<?xml version="1.0" encoding="iso-8859-1"?>
<!-- Generator: Adobe Illustrator 15.1.0, SVG Export Plug-In . SVG Version: 6.00 Build 0)  -->
<!DOCTYPE svg PUBLIC "-//W3C//DTD SVG 1.1//EN" "http://www.w3.org/Graphics/SVG/1.1/DTD/svg11.dtd">
<svg version="1.1" id="Layer_1" xmlns="http://www.w3.org/2000/svg" xmlns:xlink="http://www.w3.org/1999/xlink" x="0px" y="0px"
	 width="595px" height="842px" viewBox="0 0 595 842" style="enable-background:new 0 0 595 842;" xml:space="preserve">
<g>
	<path style="fill-rule:evenodd;clip-rule:evenodd;fill:#FFD200;" d="M44.56,676.256c-17.568-0.504-25.92-18.864-18.504-33.552
		l238.608-430.488c9.216-16.056,28.152-13.752,36.864,0l238.608,430.488c7.056,13.752,0,30.744-15.84,33.552H44.56z"/>
	<path style="fill-rule:evenodd;clip-rule:evenodd;fill:#EF3E42;" d="M44.128,669.776c-12.312-0.432-18.504-13.752-12.744-23.832
		l238.104-430.488c5.76-10.152,20.232-11.016,26.856,0L534.88,645.944c5.688,10.08-1.368,24.336-13.68,23.832H44.128z"/>
	<polygon style="fill-rule:evenodd;clip-rule:evenodd;fill:#FFD200;" points="86.824,628.448 283.168,274.64 478.936,628.448 	"/>
	<path style="fill-rule:evenodd;clip-rule:evenodd;" d="M187.192,605.984l0.432-66.096c2.664-48.672,34.776-89.064,77.04-102.816
		c6.192-2.304,50.976-14.256,50.976-14.256l29.952,17.928l-17.64,31.176c-29.808,8.28-46.584,12.888-50.544,14.256
		c-22.464,8.712-40.896,30.744-40.896,60.624v59.184H187.192z"/>
</g>
</svg>
