<?xml version="1.0" encoding="UTF-8" standalone="no"?>
<!-- Generator: Adobe Illustrator 15.1.0, SVG Export Plug-In . SVG Version: 6.00 Build 0)  -->

<svg
   xmlns:dc="http://purl.org/dc/elements/1.1/"
   xmlns:cc="http://creativecommons.org/ns#"
   xmlns:rdf="http://www.w3.org/1999/02/22-rdf-syntax-ns#"
   xmlns:svg="http://www.w3.org/2000/svg"
   xmlns="http://www.w3.org/2000/svg"
   xmlns:sodipodi="http://sodipodi.sourceforge.net/DTD/sodipodi-0.dtd"
   xmlns:inkscape="http://www.inkscape.org/namespaces/inkscape"
   version="1.1"
   id="Layer_1"
   x="0px"
   y="0px"
   width="519.56415"
   height="475.23465"
   viewBox="0 0 519.56415 475.23465"
   xml:space="preserve"
   sodipodi:docname="112.svg"
   inkscape:version="0.92.5 (2060ec1f9f, 2020-04-08)"><metadata
   id="metadata17"><rdf:RDF><cc:Work
       rdf:about=""><dc:format>image/svg+xml</dc:format><dc:type
         rdf:resource="http://purl.org/dc/dcmitype/StillImage" /></cc:Work></rdf:RDF></metadata><defs
   id="defs15" /><sodipodi:namedview
   pagecolor="#ffffff"
   bordercolor="#666666"
   borderopacity="1"
   objecttolerance="10"
   gridtolerance="10"
   guidetolerance="10"
   inkscape:pageopacity="0"
   inkscape:pageshadow="2"
   inkscape:window-width="640"
   inkscape:window-height="480"
   id="namedview13"
   showgrid="false"
   inkscape:zoom="0.28028504"
   inkscape:cx="274.17977"
   inkscape:cy="255.256"
   inkscape:window-x="0"
   inkscape:window-y="0"
   inkscape:window-maximized="0"
   inkscape:current-layer="Layer_1" />
<g
   id="g10"
   transform="translate(-23.320231,-201.02135)">
	<path
   style="clip-rule:evenodd;fill:#ffd200;fill-rule:evenodd"
   d="m 521.632,676.256 c 17.64,-0.504 25.992,-18.864 18.504,-33.552 L 301.528,212.216 c -9.144,-16.056 -28.08,-13.752 -36.864,0 L 26.056,642.704 c -7.056,13.752 0,30.744 15.84,33.552 z"
   id="path2"
   inkscape:connector-curvature="0" />
	<path
   style="clip-rule:evenodd;fill:#ef3e42;fill-rule:evenodd"
   d="m 522.064,669.776 c 12.312,-0.432 18.504,-13.752 12.744,-23.832 L 296.776,215.456 c -5.76,-10.152 -20.232,-11.016 -26.856,0 L 31.384,645.944 c -5.76,10.08 1.296,24.336 13.608,23.832 z"
   id="path4"
   inkscape:connector-curvature="0" />
	<polygon
   style="clip-rule:evenodd;fill:#ffd200;fill-rule:evenodd"
   points="87.256,628.448 479.368,628.448 283.096,274.64 "
   id="polygon6" />
	<path
   style="clip-rule:evenodd;fill-rule:evenodd"
   d="m 379,605.984 -0.432,-66.096 c -2.664,-48.672 -34.776,-89.064 -77.04,-102.816 -6.048,-2.304 -50.976,-14.256 -50.976,-14.256 l -29.952,17.928 17.64,31.176 c 29.952,8.28 46.656,12.888 50.616,14.256 22.392,8.712 40.824,30.744 40.824,60.624 v 59.184 z"
   id="path8"
   inkscape:connector-curvature="0" />
</g>
</svg>