<?xml version="1.0" encoding="iso-8859-1"?>
<!-- Generator: Adobe Illustrator 15.1.0, SVG Export Plug-In . SVG Version: 6.00 Build 0)  -->
<!DOCTYPE svg PUBLIC "-//W3C//DTD SVG 1.1//EN" "http://www.w3.org/Graphics/SVG/1.1/DTD/svg11.dtd">
<svg version="1.1" id="Layer_1" xmlns="http://www.w3.org/2000/svg" xmlns:xlink="http://www.w3.org/1999/xlink" x="0px" y="0px"
	 width="595px" height="842px" viewBox="0 0 595 842" style="enable-background:new 0 0 595 842;" xml:space="preserve">
<g>
	<path style="fill-rule:evenodd;clip-rule:evenodd;fill:#FFD200;" d="M526.168,683.168c17.64-0.432,25.56-18.072,18.504-32.184
		l-238.824-413.28c-9.648-15.48-28.584-13.248-37.008,0L30.016,650.984c-7.056,13.176,0,29.52,15.84,32.184H526.168z"/>
	<path style="fill-rule:evenodd;clip-rule:evenodd;fill:#EF3E42;" d="M526.6,676.976c12.312-0.432,18.072-13.248,12.816-22.896
		L300.52,240.728c-5.616-9.648-20.16-10.512-26.352,0L35.272,654.08c-5.688,9.648,1.368,23.328,13.248,22.896H526.6z"/>
	<polygon style="fill-rule:evenodd;clip-rule:evenodd;fill:#FFD200;" points="483.4,637.304 287.344,297.608 91.288,637.304 	"/>
	<path style="fill-rule:evenodd;clip-rule:evenodd;" d="M197.92,624.992h48.888v-85.968l54.144,31.32
		c18.936,10.584,40.968-2.232,41.472-23.832V431.96l-24.696-24.624l-24.192,24.624v77.544l-54.216-31.32
		c-17.136-9.648-40.968,1.368-41.4,23.832V624.992z"/>
</g>
</svg>
