<?xml version="1.0" encoding="iso-8859-1"?>
<!-- Generator: Adobe Illustrator 15.1.0, SVG Export Plug-In . SVG Version: 6.00 Build 0)  -->
<!DOCTYPE svg PUBLIC "-//W3C//DTD SVG 1.1//EN" "http://www.w3.org/Graphics/SVG/1.1/DTD/svg11.dtd">
<svg version="1.1" id="Layer_1" xmlns="http://www.w3.org/2000/svg" xmlns:xlink="http://www.w3.org/1999/xlink" x="0px" y="0px"
	 width="595px" height="842px" viewBox="0 0 595 842" style="enable-background:new 0 0 595 842;" xml:space="preserve">
<g>
	<path style="fill-rule:evenodd;clip-rule:evenodd;fill:#FFD200;" d="M61.048,557.384c-17.568-0.432-25.56-18.072-18.504-32.184
		L281.44,111.92c9.648-15.48,28.584-13.248,36.936,0L557.2,525.2c7.056,13.176,0,29.52-15.84,32.184H61.048z"/>
	<path style="fill-rule:evenodd;clip-rule:evenodd;fill:#EF3E42;" d="M60.616,551.192c-12.312-0.432-18.072-13.248-12.744-22.896
		l238.824-413.352c5.76-9.648,20.232-10.512,26.424,0l238.824,413.352c5.76,9.648-1.296,23.328-13.248,22.896H60.616z"/>
	<polygon style="fill-rule:evenodd;clip-rule:evenodd;fill:#FFD200;" points="103.816,511.52 299.872,171.824 496,511.52 	"/>
	<path style="fill-rule:evenodd;clip-rule:evenodd;" d="M389.296,499.208h-48.888v-85.896l-54.144,31.248
		c-18.936,10.584-40.968-2.232-41.4-23.76V306.248l24.696-24.696l24.192,24.696v77.544l54.144-31.248
		c17.208-9.72,40.968,1.296,41.4,23.76V499.208z"/>
</g>
</svg>
