<?xml version="1.0" encoding="iso-8859-1"?>
<!-- Generator: Adobe Illustrator 15.1.0, SVG Export Plug-In . SVG Version: 6.00 Build 0)  -->
<!DOCTYPE svg PUBLIC "-//W3C//DTD SVG 1.1//EN" "http://www.w3.org/Graphics/SVG/1.1/DTD/svg11.dtd">
<svg version="1.1" id="Layer_1" xmlns="http://www.w3.org/2000/svg" xmlns:xlink="http://www.w3.org/1999/xlink" x="0px" y="0px"
	 width="595px" height="842px" viewBox="0 0 595 842" style="enable-background:new 0 0 595 842;" xml:space="preserve">
<g>
	<polygon style="fill-rule:evenodd;clip-rule:evenodd;fill:#FFD200;" points="60.76,575.744 59.104,575.672 57.448,575.384 
		56.008,575.096 54.496,574.664 53.056,574.232 51.688,573.656 50.464,573.08 49.24,572.36 48.088,571.568 46.936,570.776 
		45.928,569.84 44.92,568.904 44.056,567.896 43.264,566.816 42.544,565.808 41.824,564.584 41.32,563.432 40.744,562.208 
		40.312,560.984 39.952,559.76 39.592,558.392 39.448,557.096 39.376,555.728 39.232,554.36 39.232,553.064 39.376,551.696 
		39.592,550.328 39.88,548.96 40.24,547.52 40.672,546.224 41.248,544.856 41.824,543.56 281.08,129.056 282.016,127.76 
		283.024,126.464 284.032,125.312 285.04,124.304 286.192,123.296 287.416,122.432 288.568,121.64 289.792,120.92 291.016,120.272 
		292.24,119.768 293.608,119.408 294.832,119.048 296.2,118.76 297.496,118.616 298.72,118.472 300.016,118.472 301.384,118.616 
		302.68,118.76 303.904,119.048 305.2,119.264 306.496,119.768 307.72,120.2 308.944,120.704 310.168,121.424 311.248,122.144 
		312.4,122.864 313.48,123.728 314.488,124.664 315.496,125.672 316.36,126.752 317.296,127.904 318.088,129.056 557.272,543.56 
		557.92,544.784 558.424,545.936 559,547.16 559.36,548.528 559.576,549.752 559.864,551.048 559.936,552.344 560.08,553.568 
		560.08,554.864 559.936,556.16 559.792,557.384 559.576,558.68 559.36,559.904 558.928,561.056 558.568,562.208 557.992,563.36 
		557.416,564.512 556.768,565.592 556.048,566.672 555.328,567.608 554.464,568.616 553.6,569.624 552.664,570.416 551.584,571.208 
		550.576,572 549.352,572.72 548.2,573.296 546.976,573.872 545.68,574.304 544.312,574.736 542.872,575.096 541.504,575.312 	"/>
	<polygon style="fill-rule:evenodd;clip-rule:evenodd;fill:#EF3E42;" points="59.896,569.624 58.816,569.48 57.736,569.264 
		56.656,569.048 55.72,568.688 54.712,568.328 53.848,567.896 52.984,567.464 52.12,566.96 51.328,566.312 50.536,565.664 
		49.96,565.088 49.24,564.368 48.592,563.648 48.088,562.856 47.512,562.064 47.08,561.272 46.648,560.336 46.288,559.472 
		45.928,558.608 45.64,557.6 45.496,556.736 45.28,555.728 45.208,554.72 45.208,553.784 45.208,552.848 45.28,551.912 
		45.496,550.904 45.64,549.968 45.928,548.96 46.288,548.096 46.648,547.088 47.08,546.224 286.408,132.224 286.912,131.288 
		287.56,130.496 288.208,129.704 288.856,128.984 289.576,128.264 290.368,127.688 291.232,127.112 292.096,126.608 
		292.888,126.176 293.752,125.816 294.688,125.456 295.624,125.168 296.56,124.88 297.496,124.736 298.504,124.664 299.368,124.52 
		300.376,124.52 301.24,124.664 302.248,124.808 303.256,124.952 304.12,125.24 305.056,125.528 305.992,125.888 306.856,126.32 
		307.648,126.824 308.584,127.4 309.376,127.976 310.096,128.696 310.888,129.488 311.464,130.352 312.184,131.216 312.832,132.224 
		552.088,546.224 552.592,547.088 553.024,548.096 553.384,548.96 553.744,549.968 554.032,550.904 554.104,551.984 
		554.176,552.992 554.248,553.928 554.176,554.936 554.104,555.872 553.888,556.88 553.744,557.888 553.384,558.824 553.024,559.76 
		552.664,560.624 552.232,561.488 551.728,562.424 551.152,563.216 550.576,564.008 549.856,564.728 549.136,565.448 
		548.416,566.096 547.624,566.744 546.688,567.32 545.896,567.824 544.96,568.256 544.024,568.616 543.088,568.976 542.008,569.264 
		540.928,569.408 539.848,569.48 538.84,569.624 	"/>
	<polygon style="fill-rule:evenodd;clip-rule:evenodd;fill:#FFD200;" points="103.168,529.448 299.584,189.104 496.432,529.448 	"/>
	<g>
		<polygon style="fill-rule:evenodd;clip-rule:evenodd;fill:#1F1A17;" points="496.432,529.448 420.04,397.472 103.168,529.448 		
			"/>
		<polygon style="fill-rule:evenodd;clip-rule:evenodd;fill:#FFD200;" points="324.28,457.52 327.736,465.872 346.312,458.384 
			347.248,464.072 347.68,468.536 347.68,475.52 347.68,478.184 347.68,480.848 348.544,485.24 348.976,490.136 350.344,495.032 
			352,498.92 353.368,502.448 356.464,510.368 364.816,506.912 360.928,496.328 359.128,491.432 357.328,487.04 356.464,483.08 
			356.032,479.984 355.6,477.32 355.168,474.656 355.168,471.992 355.168,468.536 355.168,466.736 354.664,462.272 353.8,458.384 
			353.368,454.352 352.504,450.824 350.776,446.36 		"/>
		<polygon style="fill-rule:evenodd;clip-rule:evenodd;fill:#FACF00;" points="380.728,495.032 386.992,495.896 395.344,434.912 
			389.224,434.048 		"/>
		<polygon style="fill-rule:evenodd;clip-rule:evenodd;fill:#FFD200;" points="401.536,479.12 401.536,478.544 401.608,478.112 
			401.752,477.68 401.896,477.32 402.112,476.888 402.328,476.528 402.616,476.168 402.976,475.88 403.696,475.376 404.488,475.016 
			405.352,474.728 406.36,474.656 407.296,474.728 408.232,475.016 409.096,475.376 409.816,475.88 410.104,476.168 410.32,476.528 
			410.608,476.888 410.824,477.32 410.968,477.68 411.112,478.112 411.256,478.544 411.256,479.12 411.256,479.552 411.112,480.056 
			410.968,480.488 410.824,480.992 410.608,481.424 410.32,481.784 410.104,482.216 409.816,482.504 409.456,482.864 
			409.096,483.08 408.664,483.368 408.232,483.512 407.8,483.728 407.296,483.8 406.864,483.872 406.36,484.016 405.928,483.872 
			405.352,483.8 404.92,483.728 404.488,483.512 404.056,483.368 403.696,483.08 403.336,482.864 402.976,482.504 402.616,482.216 
			402.328,481.784 402.112,481.424 401.896,480.992 401.752,480.488 401.608,480.056 401.536,479.552 		"/>
		<polygon style="fill-rule:evenodd;clip-rule:evenodd;fill:#FFD200;" points="366.184,451.256 366.256,450.824 366.256,450.32 
			366.4,449.816 366.616,449.384 366.76,448.952 367.048,448.592 367.336,448.16 367.552,447.872 367.912,447.512 368.416,447.296 
			368.776,447.008 369.208,446.792 369.64,446.648 370.072,446.576 370.504,446.504 371.08,446.36 371.512,446.504 372.016,446.576 
			372.448,446.648 372.952,446.792 373.744,447.296 374.464,447.872 375.04,448.592 375.472,449.384 375.688,449.816 375.76,450.32 
			375.832,450.824 375.976,451.256 375.832,451.832 375.76,452.264 375.688,452.696 375.472,453.056 375.328,453.488 
			375.04,453.848 374.752,454.208 374.464,454.496 373.744,455 372.952,455.36 372.016,455.648 371.08,455.72 370.072,455.648 
			369.208,455.36 368.416,455 367.552,454.496 367.336,454.208 367.048,453.848 366.76,453.488 366.616,453.056 366.4,452.696 
			366.256,452.264 366.256,451.832 		"/>
		<polygon style="fill-rule:evenodd;clip-rule:evenodd;fill:#1F1A17;" points="326.08,417.848 256.816,446.792 257.896,448.592 
			258.544,450.392 259.192,452.048 259.552,453.704 259.624,455.288 259.624,456.872 259.408,458.384 259.048,459.68 
			258.472,461.12 257.752,462.416 256.96,463.568 256.024,464.576 254.944,465.584 253.864,466.448 252.64,467.24 251.272,467.888 
			249.976,468.392 248.608,468.752 247.168,469.04 245.8,469.256 244.36,469.112 242.92,468.968 241.48,468.68 240.112,468.176 
			238.744,467.456 237.52,466.664 236.296,465.584 235.072,464.36 234.064,462.92 233.128,461.336 232.336,459.536 231.616,457.52 
			217.504,463.64 216.352,463.928 215.344,464 214.408,463.928 213.4,463.712 212.536,463.352 211.672,462.848 210.808,462.2 
			210.016,461.408 202.456,443.768 202.24,442.904 202.024,442.04 202.024,441.104 202.096,440.312 202.384,439.448 
			202.744,438.656 203.176,437.864 203.824,437.144 213.472,427.856 214.048,427.352 214.48,426.704 214.984,426.056 
			215.344,425.336 215.848,424.616 216.136,423.824 216.424,423.032 216.64,422.096 220.168,400.568 220.384,399.704 
			220.528,398.984 220.816,398.264 221.032,397.616 221.392,397.04 221.752,396.608 222.112,396.104 222.472,395.672 
			223.984,394.52 225.424,393.584 275.32,372.344 276.256,372.056 277.264,371.84 278.128,371.696 278.92,371.696 279.856,371.696 
			280.504,371.84 281.224,372.056 281.944,372.344 304.84,384.656 305.416,385.016 305.992,385.376 306.568,385.52 307.216,385.736 
			308.296,385.88 309.376,386.024 311.032,385.736 311.968,385.52 344.152,375.008 345.088,374.792 346.096,374.648 346.96,374.504 
			347.824,374.432 348.616,374.504 349.552,374.648 350.272,374.792 351.064,375.008 351.784,375.224 352.36,375.584 
			353.008,376.016 353.656,376.52 354.16,377.024 354.664,377.528 355.168,378.248 355.6,378.968 364.384,396.104 364.528,397.256 
			364.456,398.336 364.312,399.344 364.024,400.208 363.52,401 362.8,401.792 362.008,402.512 360.928,403.232 351.568,407.264 
			352.648,408.992 353.44,410.792 354.016,412.52 354.232,414.176 354.448,415.76 354.304,417.272 354.088,418.712 353.656,420.152 
			353.008,421.376 352.216,422.672 351.352,423.824 350.344,424.832 349.264,425.768 348.04,426.632 346.816,427.352 345.448,428 
			344.008,428.504 342.64,428.864 341.2,429.152 339.688,429.224 338.248,429.152 336.808,428.936 335.368,428.576 334,428.144 
			332.632,427.424 331.408,426.632 330.256,425.552 329.176,424.4 328.168,423.032 327.304,421.52 326.584,419.792 		"/>
		<polygon style="fill-rule:evenodd;clip-rule:evenodd;fill:#FFD200;" points="232.12,404.168 248.896,397.04 254.152,409.856 
			229.384,420.44 		"/>
		<polygon style="fill-rule:evenodd;clip-rule:evenodd;fill:#FFD200;" points="266.032,405.032 260.776,392.216 278.848,384.224 
			294.328,393.08 		"/>
	</g>
</g>
</svg>
