<?xml version="1.0" encoding="UTF-8" standalone="no"?>
<!-- Generator: Adobe Illustrator 15.1.0, SVG Export Plug-In . SVG Version: 6.00 Build 0)  -->

<svg
   xmlns:dc="http://purl.org/dc/elements/1.1/"
   xmlns:cc="http://creativecommons.org/ns#"
   xmlns:rdf="http://www.w3.org/1999/02/22-rdf-syntax-ns#"
   xmlns:svg="http://www.w3.org/2000/svg"
   xmlns="http://www.w3.org/2000/svg"
   xmlns:sodipodi="http://sodipodi.sourceforge.net/DTD/sodipodi-0.dtd"
   xmlns:inkscape="http://www.inkscape.org/namespaces/inkscape"
   version="1.1"
   id="Layer_1"
   x="0px"
   y="0px"
   width="508.58517"
   height="446.57214"
   viewBox="0 0 508.58517 446.57214"
   xml:space="preserve"
   sodipodi:docname="122.svg"
   inkscape:version="0.92.5 (2060ec1f9f, 2020-04-08)"><metadata
   id="metadata154"><rdf:RDF><cc:Work
       rdf:about=""><dc:format>image/svg+xml</dc:format><dc:type
         rdf:resource="http://purl.org/dc/dcmitype/StillImage" /></cc:Work></rdf:RDF></metadata><defs
   id="defs152" /><sodipodi:namedview
   pagecolor="#ffffff"
   bordercolor="#666666"
   borderopacity="1"
   objecttolerance="10"
   gridtolerance="10"
   guidetolerance="10"
   inkscape:pageopacity="0"
   inkscape:pageshadow="2"
   inkscape:window-width="640"
   inkscape:window-height="480"
   id="namedview150"
   showgrid="false"
   inkscape:zoom="0.28028504"
   inkscape:cx="274.74045"
   inkscape:cy="265.696"
   inkscape:window-x="0"
   inkscape:window-y="0"
   inkscape:window-maximized="0"
   inkscape:current-layer="Layer_1" />
<g
   id="g147"
   transform="translate(-22.759552,-240.12384)">
	<path
   style="clip-rule:evenodd;fill:#ffd200;fill-rule:evenodd"
   d="m 510.76,686.696 c 17.208,-0.864 24.984,-17.712 18.072,-31.536 L 295.264,250.448 c -9.432,-14.616 -28.008,-12.888 -36.216,0 L 25.408,655.16 c -6.84,12.528 0,28.944 15.552,31.104 z"
   id="path135"
   inkscape:connector-curvature="0" />
	<path
   style="clip-rule:evenodd;fill:#ef3e42;fill-rule:evenodd"
   d="m 511.192,680.648 c 12.096,-0.864 17.64,-13.392 12.528,-22.896 L 290.152,253.472 c -5.616,-9.432 -19.872,-10.296 -25.92,0 l -233.64,404.28 c -5.616,9.504 1.296,22.896 12.96,22.896 z"
   id="path137"
   inkscape:connector-curvature="0" />
	<polygon
   style="clip-rule:evenodd;fill:#ffd200;fill-rule:evenodd"
   points="85.384,641.408 468.928,641.408 277.192,309.128 "
   id="polygon139" />
	<g
   id="g145">
		<polygon
   style="clip-rule:evenodd;fill-rule:evenodd"
   points="229.312,575.456 268.12,575.456 214.264,629.744 160.336,575.456 199.144,575.456 199.144,467.672 229.312,467.672 "
   id="polygon141" />
		<polygon
   style="clip-rule:evenodd;fill-rule:evenodd"
   points="340.048,509.504 379.288,509.504 325,455.576 271.144,509.504 310.312,509.504 310.312,617.72 340.048,617.72 "
   id="polygon143" />
	</g>
</g>
</svg>