<?xml version="1.0" encoding="iso-8859-1"?>
<!-- Generator: Adobe Illustrator 15.1.0, SVG Export Plug-In . SVG Version: 6.00 Build 0)  -->
<!DOCTYPE svg PUBLIC "-//W3C//DTD SVG 1.1//EN" "http://www.w3.org/Graphics/SVG/1.1/DTD/svg11.dtd">
<svg version="1.1" id="Layer_1" xmlns="http://www.w3.org/2000/svg" xmlns:xlink="http://www.w3.org/1999/xlink" x="0px" y="0px"
	 width="595px" height="842px" viewBox="0 0 595 842" style="enable-background:new 0 0 595 842;" xml:space="preserve">
<g>
	<path style="fill-rule:evenodd;clip-rule:evenodd;fill:#FFD200;" d="M510.76,686.696c17.208-0.864,24.984-17.712,18.072-31.536
		L295.264,250.448c-9.432-14.616-28.008-12.888-36.216,0L25.408,655.16c-6.84,12.528,0,28.944,15.552,31.104L510.76,686.696z"/>
	<path style="fill-rule:evenodd;clip-rule:evenodd;fill:#EF3E42;" d="M511.192,680.648c12.096-0.864,17.64-13.392,12.528-22.896
		l-233.568-404.28c-5.616-9.432-19.872-10.296-25.92,0l-233.64,404.28c-5.616,9.504,1.296,22.896,12.96,22.896H511.192z"/>
	<polygon style="fill-rule:evenodd;clip-rule:evenodd;fill:#FFD200;" points="468.928,641.408 277.192,309.128 85.384,641.408 	"/>
	<g>
		<polygon style="fill-rule:evenodd;clip-rule:evenodd;" points="199.144,467.672 229.312,467.672 229.312,575.456 268.12,575.456 
			214.264,629.744 160.336,575.456 199.144,575.456 		"/>
		<polygon style="fill-rule:evenodd;clip-rule:evenodd;" points="310.312,617.72 340.048,617.72 340.048,509.504 379.288,509.504 
			325,455.576 271.144,509.504 310.312,509.504 		"/>
	</g>
</g>
</svg>
