<?xml version="1.0" encoding="iso-8859-1"?>
<!-- Generator: Adobe Illustrator 15.1.0, SVG Export Plug-In . SVG Version: 6.00 Build 0)  -->
<!DOCTYPE svg PUBLIC "-//W3C//DTD SVG 1.1//EN" "http://www.w3.org/Graphics/SVG/1.1/DTD/svg11.dtd">
<svg version="1.1" id="Layer_1" xmlns="http://www.w3.org/2000/svg" xmlns:xlink="http://www.w3.org/1999/xlink" x="0px" y="0px"
	 width="595px" height="842px" viewBox="0 0 595 842" style="enable-background:new 0 0 595 842;" xml:space="preserve">
<g>
	<path style="fill-rule:evenodd;clip-rule:evenodd;fill:#FFD200;" d="M43.912,685.4c-17.208-0.864-25.416-17.64-18.072-31.464
		l233.352-404.28c9.504-14.616,27.576-12.888,36.216,0l233.28,404.28c6.912,12.528,0,28.872-15.48,31.032L43.912,685.4z"/>
	<path style="fill-rule:evenodd;clip-rule:evenodd;fill:#EF3E42;" d="M43.48,679.352c-12.096-0.864-18.072-13.32-12.528-22.824
		L264.376,252.68c5.616-9.504,19.368-10.296,25.848,0l233.28,403.848c5.616,9.504-1.224,22.824-12.888,22.824H43.48z"/>
	<polygon style="fill-rule:evenodd;clip-rule:evenodd;fill:#FFD200;" points="85.24,640.184 277.264,308.264 468.856,640.184 	"/>
	<g>
		<polygon style="fill-rule:evenodd;clip-rule:evenodd;" points="181.72,548.888 308.224,434.768 320.248,448.088 193.744,562.208 
					"/>
		<polygon style="fill-rule:evenodd;clip-rule:evenodd;" points="151.552,562.208 106.768,640.184 193.744,640.184 193.744,562.208 
					"/>
		<polygon style="fill-rule:evenodd;clip-rule:evenodd;" points="361.216,562.208 403.408,562.208 448.192,640.184 361.216,640.184 
					"/>
		<path style="fill-rule:evenodd;clip-rule:evenodd;" d="M193.744,589.352c4.32-0.864,9.072,0.432,14.184,3.888
			c9.936,4.752,20.304,4.752,30.168,0c7.344-5.616,14.256-5.616,21.528,0c11.664,5.184,22.392,5.184,33.624,0
			c6.336-5.616,13.248-5.616,20.16,0c10.728,5.184,21.528,5.184,32.256,0c4.752-3.888,9.936-4.752,15.552-3.456v12.096
			c-5.616-1.728-10.8-0.432-15.552,2.952c-10.728,5.184-21.528,5.184-32.256,0c-6.912-5.112-13.824-5.112-20.16,0
			c-11.232,5.616-21.96,5.616-33.624,0c-7.272-5.112-14.184-5.112-21.528,0c-9.864,4.752-20.232,4.752-30.168,0
			c-5.544-3.384-9.432-4.248-14.184-3.384V589.352z"/>
		<path style="fill-rule:evenodd;clip-rule:evenodd;" d="M193.744,613.472c4.32-0.864,9.072,0.432,14.184,3.456
			c9.936,4.752,20.304,4.752,30.168,0c7.344-5.184,14.256-5.184,21.528,0c11.664,5.616,22.392,5.616,33.624,0
			c6.336-5.184,13.248-5.184,20.16,0c10.728,5.184,21.528,5.184,32.256,0c4.752-3.456,9.936-4.752,15.552-3.024v12.024
			c-5.616-1.656-10.8-0.792-15.552,3.024c-10.728,5.184-21.528,5.184-32.256,0c-6.912-5.112-13.824-5.112-20.16,0
			c-11.232,5.616-21.96,5.616-33.624,0c-7.272-5.112-14.184-5.112-21.528,0c-9.864,4.752-20.232,4.752-30.168,0
			c-5.544-3.384-9.432-4.248-14.184-3.384V613.472z"/>
	</g>
</g>
</svg>
