<?xml version="1.0" encoding="UTF-8" standalone="no"?>
<!-- Generator: Adobe Illustrator 15.1.0, SVG Export Plug-In . SVG Version: 6.00 Build 0)  -->

<svg
   xmlns:dc="http://purl.org/dc/elements/1.1/"
   xmlns:cc="http://creativecommons.org/ns#"
   xmlns:rdf="http://www.w3.org/1999/02/22-rdf-syntax-ns#"
   xmlns:svg="http://www.w3.org/2000/svg"
   xmlns="http://www.w3.org/2000/svg"
   xmlns:sodipodi="http://sodipodi.sourceforge.net/DTD/sodipodi-0.dtd"
   xmlns:inkscape="http://www.inkscape.org/namespaces/inkscape"
   version="1.1"
   id="Layer_1"
   x="0px"
   y="0px"
   width="508.367"
   height="446.10385"
   viewBox="0 0 508.367 446.10385"
   xml:space="preserve"
   sodipodi:docname="133.svg"
   inkscape:version="0.92.5 (2060ec1f9f, 2020-04-08)"><metadata
   id="metadata237"><rdf:RDF><cc:Work
       rdf:about=""><dc:format>image/svg+xml</dc:format><dc:type
         rdf:resource="http://purl.org/dc/dcmitype/StillImage" /></cc:Work></rdf:RDF></metadata><defs
   id="defs235" /><sodipodi:namedview
   pagecolor="#ffffff"
   bordercolor="#666666"
   borderopacity="1"
   objecttolerance="10"
   gridtolerance="10"
   guidetolerance="10"
   inkscape:pageopacity="0"
   inkscape:pageshadow="2"
   inkscape:window-width="640"
   inkscape:window-height="480"
   id="namedview233"
   showgrid="false"
   inkscape:zoom="0.28028504"
   inkscape:cx="274.4984"
   inkscape:cy="262.24"
   inkscape:window-x="0"
   inkscape:window-y="0"
   inkscape:window-maximized="0"
   inkscape:current-layer="Layer_1" />
<g
   id="g230"
   transform="translate(-23.001598,-237.13615)">
	<path
   style="clip-rule:evenodd;fill:#ffd200;fill-rule:evenodd"
   d="M 43.768,683.24 C 26.56,682.808 18.352,665.528 25.696,651.776 L 259.12,247.784 c 9.504,-15.048 27.576,-13.32 36.216,0 l 233.352,403.992 c 6.912,12.888 0,28.872 -15.48,31.464 z"
   id="path210"
   inkscape:connector-curvature="0" />
	<path
   style="clip-rule:evenodd;fill:#ef3e42;fill-rule:evenodd"
   d="M 43.336,677.192 C 31.24,676.328 25.264,664.232 30.808,654.8 L 264.304,250.808 c 5.616,-9.936 19.368,-10.8 25.848,0 L 523.504,654.8 c 5.616,9 -1.296,22.392 -12.888,22.392 z"
   id="path212"
   inkscape:connector-curvature="0" />
	<polygon
   style="clip-rule:evenodd;fill-rule:evenodd"
   points="468.856,638.384 85.096,638.384 277.192,305.96 "
   id="polygon214" />
	<g
   id="g228">
		<path
   style="clip-rule:evenodd;fill:#ffffff;fill-rule:evenodd"
   d="m 286.696,598.352 0.432,11.16 c -0.432,9.072 12.384,10.8 13.248,0.864 v -11.592 h 79.704 v 11.592 c 0.864,9.072 12.96,8.64 13.824,0 v -12.024 c 6.408,-3.888 5.544,-31.464 6.408,-31.896 -1.296,-8.136 -2.52,-9.864 -6.84,-12.888 l -5.616,-21.96 c -2.16,-7.344 -6.912,-10.8 -13.392,-11.664 -11.592,-1.296 -23.256,-2.16 -34.416,-2.16 -20.232,0.432 -32.76,1.296 -38.376,3.024 -4.176,2.16 -7.2,5.616 -8.928,10.8 l -5.616,21.96 c -11.232,6.048 -4.752,21.528 -5.184,32.256 0.432,6.048 2.16,9.936 4.752,12.528 z"
   id="path216"
   inkscape:connector-curvature="0" />
		<path
   style="clip-rule:evenodd;fill:#ffffff;fill-rule:evenodd"
   d="m 258.256,543.2 0.432,9.504 c 0,6.48 9.504,8.136 10.8,0 v -9.072 h 14.184 l 4.752,-18.504 c 1.728,-6.912 6.48,-10.8 13.248,-11.664 6.912,-0.864 15.552,-1.728 25.416,-1.728 h 20.736 c -0.864,-1.656 -2.16,-2.952 -3.888,-4.248 l -4.752,-17.712 c -2.16,-5.544 -5.616,-8.568 -10.8,-9 -8.136,-1.296 -18.504,-1.728 -30.888,-1.728 -8.208,0 -16.848,0.864 -25.848,1.728 -3.024,0.864 -6.048,3.456 -7.776,6.84 l -5.184,19.872 c -3.024,1.728 -5.184,4.68 -5.616,9 l 1.296,16.848 c 0.864,4.68 2.16,8.136 3.888,9.864 z"
   id="path218"
   inkscape:connector-curvature="0" />
		<path
   style="clip-rule:evenodd;fill:#ffffff;fill-rule:evenodd"
   d="m 229.816,499.712 v 7.776 c 0.432,5.544 8.208,6.408 9.072,0 v -7.776 h 15.048 l 3.888,-15.48 c 1.728,-5.616 5.616,-8.64 10.8,-9.504 6.048,-0.864 12.024,-1.296 18.072,-1.296 h 17.568 c -0.864,-1.728 -1.728,-2.592 -3.456,-3.456 L 296.632,453.2 c -2.592,-3.888 -5.184,-5.616 -8.64,-5.616 -7.776,-1.296 -16.344,-1.728 -25.848,-1.296 -7.776,0 -14.184,0.432 -19.368,1.296 -4.32,0 -7.344,2.592 -9.072,7.344 l -3.888,15.048 c -2.16,1.296 -3.888,3.888 -4.32,8.64 l 0.864,12.888 c 0.432,3.888 1.728,6.912 3.456,8.208 z"
   id="path220"
   inkscape:connector-curvature="0" />
		<path
   style="clip-rule:evenodd;fill-rule:evenodd"
   d="m 235.432,469.112 h 59.904 l -2.592,-13.32 c -0.864,-2.16 -2.16,-3.456 -4.32,-3.888 -8.208,-0.864 -15.48,-1.296 -22.392,-1.296 -9.072,0 -16.776,0.432 -23.256,1.296 -2.592,0.432 -3.888,1.728 -4.32,3.888 z"
   id="path222"
   inkscape:connector-curvature="0" />
		<path
   style="clip-rule:evenodd;fill-rule:evenodd"
   d="m 265.168,506.624 h 71.856 l -3.456,-15.984 c -0.432,-3.024 -2.16,-4.32 -4.752,-4.752 -9.432,-0.792 -18.504,-1.224 -27.144,-1.224 -9.36,-0.432 -18.864,0.432 -27.864,1.224 -2.592,0.432 -4.32,2.16 -5.184,4.752 z"
   id="path224"
   inkscape:connector-curvature="0" />
		<path
   style="clip-rule:evenodd;fill-rule:evenodd"
   d="m 295.336,552.704 h 89.928 l -4.32,-20.232 c -0.432,-2.16 -0.864,-4.32 -4.752,-5.184 -9,-1.728 -21.096,-2.592 -36.576,-2.592 -8.64,0 -19.8,0.864 -33.624,2.16 -2.592,0 -4.752,1.728 -6.048,4.32 z"
   id="path226"
   inkscape:connector-curvature="0" />
	</g>
</g>
</svg>