<?xml version="1.0" encoding="iso-8859-1"?>
<!-- Generator: Adobe Illustrator 15.1.0, SVG Export Plug-In . SVG Version: 6.00 Build 0)  -->
<!DOCTYPE svg PUBLIC "-//W3C//DTD SVG 1.1//EN" "http://www.w3.org/Graphics/SVG/1.1/DTD/svg11.dtd">
<svg version="1.1" id="Layer_1" xmlns="http://www.w3.org/2000/svg" xmlns:xlink="http://www.w3.org/1999/xlink" x="0px" y="0px"
	 width="595px" height="842px" viewBox="0 0 595 842" style="enable-background:new 0 0 595 842;" xml:space="preserve">
<g>
	<path style="fill-rule:evenodd;clip-rule:evenodd;fill:#FFD200;" d="M43.984,683.24C26.704,682.808,19,665.528,25.84,651.776
		L259.264,248c9.432-15.12,27.936-13.392,36.144,0l233.28,403.776c6.912,12.888,0,28.872-15.48,31.464H43.984z"/>
	<path style="fill-rule:evenodd;clip-rule:evenodd;fill:#EF3E42;" d="M43.552,677.192c-12.096-0.864-17.712-12.96-12.528-22.392
		l233.352-403.848c5.616-9.864,19.872-10.728,25.848,0L523.504,654.8c5.616,9-1.224,22.392-12.888,22.392H43.552z"/>
	<polygon style="fill-rule:evenodd;clip-rule:evenodd;fill:#FFD200;" points="85.744,638.456 277.336,306.104 468.856,638.456 	"/>
	<path style="fill-rule:evenodd;clip-rule:evenodd;" d="M133.912,629.384h288.432v-53.856H399.52c-1.296,0-2.16-0.792-2.592-1.656
		c-2.592-4.752-7.272-12.96-13.752-24.12c-9.072-12.096-21.096-18.144-35.712-18.144c-10.368,0.864-19.368,4.752-27.576,12.096
		c-2.16,2.592-12.096,15.912-29.232,40.464c-7.272,7.776-18.072,7.344-24.984,0l-26.64-37.44
		c-8.64-10.368-20.232-15.12-33.624-15.12c-11.16,0.864-20.232,5.184-27.144,12.528c-2.952,1.296-16.344,25.416-18.936,29.736
		c-0.864,0.864-1.728,1.656-2.592,1.656h-22.824V629.384z"/>
</g>
</svg>
