<?xml version="1.0" encoding="UTF-8" standalone="no"?>
<!-- Generator: Adobe Illustrator 15.1.0, SVG Export Plug-In . SVG Version: 6.00 Build 0)  -->

<svg
   xmlns:dc="http://purl.org/dc/elements/1.1/"
   xmlns:cc="http://creativecommons.org/ns#"
   xmlns:rdf="http://www.w3.org/1999/02/22-rdf-syntax-ns#"
   xmlns:svg="http://www.w3.org/2000/svg"
   xmlns="http://www.w3.org/2000/svg"
   xmlns:sodipodi="http://sodipodi.sourceforge.net/DTD/sodipodi-0.dtd"
   xmlns:inkscape="http://www.inkscape.org/namespaces/inkscape"
   version="1.1"
   id="Layer_1"
   x="0px"
   y="0px"
   width="508.01007"
   height="445.9418"
   viewBox="0 0 508.01007 445.9418"
   xml:space="preserve"
   sodipodi:docname="141.svg"
   inkscape:version="0.92.5 (2060ec1f9f, 2020-04-08)"><metadata
   id="metadata254"><rdf:RDF><cc:Work
       rdf:about=""><dc:format>image/svg+xml</dc:format><dc:type
         rdf:resource="http://purl.org/dc/dcmitype/StillImage" /></cc:Work></rdf:RDF></metadata><defs
   id="defs252" /><sodipodi:namedview
   pagecolor="#ffffff"
   bordercolor="#666666"
   borderopacity="1"
   objecttolerance="10"
   gridtolerance="10"
   guidetolerance="10"
   inkscape:pageopacity="0"
   inkscape:pageshadow="2"
   inkscape:window-width="640"
   inkscape:window-height="480"
   id="namedview250"
   showgrid="false"
   inkscape:zoom="0.28028504"
   inkscape:cx="274.14146"
   inkscape:cy="262.24"
   inkscape:window-x="0"
   inkscape:window-y="0"
   inkscape:window-maximized="0"
   inkscape:current-layer="Layer_1" />
<g
   id="g247"
   transform="translate(-23.358543,-237.2982)">
	<path
   style="clip-rule:evenodd;fill:#ffd200;fill-rule:evenodd"
   d="M 43.984,683.24 C 26.704,682.808 19,665.528 25.84,651.776 L 259.264,248 c 9.432,-15.12 27.936,-13.392 36.144,0 l 233.28,403.776 c 6.912,12.888 0,28.872 -15.48,31.464 z"
   id="path239"
   inkscape:connector-curvature="0" />
	<path
   style="clip-rule:evenodd;fill:#ef3e42;fill-rule:evenodd"
   d="M 43.552,677.192 C 31.456,676.328 25.84,664.232 31.024,654.8 L 264.376,250.952 c 5.616,-9.864 19.872,-10.728 25.848,0 L 523.504,654.8 c 5.616,9 -1.224,22.392 -12.888,22.392 z"
   id="path241"
   inkscape:connector-curvature="0" />
	<polygon
   style="clip-rule:evenodd;fill:#ffd200;fill-rule:evenodd"
   points="468.856,638.456 85.744,638.456 277.336,306.104 "
   id="polygon243" />
	<path
   style="clip-rule:evenodd;fill-rule:evenodd"
   d="M 133.912,629.384 H 422.344 V 575.528 H 399.52 c -1.296,0 -2.16,-0.792 -2.592,-1.656 -2.592,-4.752 -7.272,-12.96 -13.752,-24.12 -9.072,-12.096 -21.096,-18.144 -35.712,-18.144 -10.368,0.864 -19.368,4.752 -27.576,12.096 -2.16,2.592 -12.096,15.912 -29.232,40.464 -7.272,7.776 -18.072,7.344 -24.984,0 l -26.64,-37.44 c -8.64,-10.368 -20.232,-15.12 -33.624,-15.12 -11.16,0.864 -20.232,5.184 -27.144,12.528 -2.952,1.296 -16.344,25.416 -18.936,29.736 -0.864,0.864 -1.728,1.656 -2.592,1.656 h -22.824 z"
   id="path245"
   inkscape:connector-curvature="0" />
</g>
</svg>