<?xml version="1.0" encoding="UTF-8" standalone="no"?>
<!-- Generator: Adobe Illustrator 15.1.0, SVG Export Plug-In . SVG Version: 6.00 Build 0)  -->

<svg
   xmlns:dc="http://purl.org/dc/elements/1.1/"
   xmlns:cc="http://creativecommons.org/ns#"
   xmlns:rdf="http://www.w3.org/1999/02/22-rdf-syntax-ns#"
   xmlns:svg="http://www.w3.org/2000/svg"
   xmlns="http://www.w3.org/2000/svg"
   xmlns:sodipodi="http://sodipodi.sourceforge.net/DTD/sodipodi-0.dtd"
   xmlns:inkscape="http://www.inkscape.org/namespaces/inkscape"
   version="1.1"
   id="Layer_1"
   x="0px"
   y="0px"
   width="395.2973"
   height="346.84131"
   viewBox="0 0 395.2973 346.84131"
   xml:space="preserve"
   sodipodi:docname="141a.svg"
   inkscape:version="0.92.5 (2060ec1f9f, 2020-04-08)"><metadata
   id="metadata271"><rdf:RDF><cc:Work
       rdf:about=""><dc:format>image/svg+xml</dc:format><dc:type
         rdf:resource="http://purl.org/dc/dcmitype/StillImage" /></cc:Work></rdf:RDF></metadata><defs
   id="defs269" /><sodipodi:namedview
   pagecolor="#ffffff"
   bordercolor="#666666"
   borderopacity="1"
   objecttolerance="10"
   gridtolerance="10"
   guidetolerance="10"
   inkscape:pageopacity="0"
   inkscape:pageshadow="2"
   inkscape:window-width="640"
   inkscape:window-height="480"
   id="namedview267"
   showgrid="false"
   inkscape:zoom="0.28028504"
   inkscape:cx="295.35665"
   inkscape:cy="-72.04735"
   inkscape:window-x="0"
   inkscape:window-y="0"
   inkscape:window-maximized="0"
   inkscape:current-layer="Layer_1" />
<g
   id="g264"
   transform="translate(-2.14335,-2.11135)">
	
		<polygon
   style="clip-rule:evenodd;fill:#ffef00;fill-rule:evenodd;stroke:#e6e7e8;stroke-width:0.3053;stroke-miterlimit:10"
   points="381.952,348.8 382.456,348.728 382.96,348.656 383.464,348.584 383.968,348.512 384.4,348.44 384.904,348.368 385.408,348.224 385.84,348.08 386.344,347.936 386.776,347.72 387.28,347.576 387.712,347.36 388.144,347.144 388.576,346.928 389.008,346.712 389.44,346.424 389.872,346.208 390.304,345.92 390.664,345.632 391.096,345.272 391.456,344.984 391.816,344.696 392.176,344.336 392.536,343.976 392.896,343.616 393.256,343.256 393.544,342.896 393.832,342.536 394.12,342.104 394.48,341.744 394.696,341.312 394.984,340.88 395.2,340.448 395.416,340.016 395.704,339.584 395.92,339.152 396.064,338.648 396.28,338.216 396.424,337.712 396.568,337.28 396.712,336.776 396.856,336.272 396.928,335.84 397.072,335.336 397.144,334.832 397.216,334.328 397.216,333.896 397.216,333.392 397.288,332.888 397.288,332.384 397.288,331.88 397.216,331.376 397.216,330.944 397.144,330.368 397.072,329.936 397,329.432 396.856,328.928 396.784,328.424 396.64,327.992 396.496,327.488 396.352,327.056 396.136,326.552 395.992,326.12 395.776,325.688 395.56,325.184 395.344,324.752 395.128,324.392 395.128,324.392 213.904,10.4 213.904,10.4 213.688,9.968 213.4,9.536 213.112,9.176 212.824,8.744 212.536,8.384 212.176,8.024 211.888,7.664 211.528,7.232 211.24,6.944 210.88,6.584 210.448,6.224 210.088,5.936 209.728,5.648 209.296,5.288 208.936,5.072 208.504,4.784 208.072,4.496 207.64,4.28 207.208,4.064 206.776,3.776 206.344,3.632 205.84,3.416 205.408,3.272 204.904,3.128 204.472,2.912 203.968,2.84 203.464,2.696 203.032,2.552 202.528,2.48 202.024,2.408 201.52,2.336 201.088,2.336 200.584,2.264 200.08,2.264 199.576,2.264 199.072,2.264 198.568,2.336 198.064,2.336 197.56,2.408 197.128,2.48 196.624,2.552 196.12,2.696 195.688,2.84 195.184,2.912 194.752,3.128 194.248,3.272 193.816,3.416 193.312,3.632 192.88,3.776 192.448,4.064 192.016,4.28 191.584,4.496 191.152,4.784 190.72,5.072 190.288,5.288 189.928,5.648 189.568,5.936 189.136,6.224 188.776,6.584 188.416,6.944 188.056,7.232 187.768,7.664 187.408,8.024 187.12,8.384 186.832,8.744 186.472,9.176 186.256,9.536 185.968,9.968 185.752,10.4 185.752,10.4 4.456,324.392 4.456,324.392 4.24,324.752 3.952,325.184 3.808,325.688 3.592,326.12 3.376,326.552 3.232,327.056 3.088,327.488 2.944,327.992 2.8,328.424 2.656,328.928 2.584,329.432 2.512,329.936 2.44,330.368 2.368,330.944 2.296,331.376 2.296,331.88 2.296,332.384 2.296,332.888 2.296,333.392 2.368,333.896 2.368,334.328 2.44,334.832 2.512,335.336 2.584,335.84 2.728,336.272 2.872,336.776 3.016,337.28 3.16,337.712 3.304,338.216 3.448,338.648 3.664,339.152 3.88,339.584 4.096,340.016 4.384,340.448 4.6,340.88 4.816,341.312 5.104,341.744 5.392,342.104 5.752,342.536 6.04,342.896 6.328,343.256 6.688,343.616 7.048,343.976 7.336,344.336 7.768,344.696 8.128,344.984 8.488,345.272 8.92,345.632 9.28,345.92 9.64,346.208 10.144,346.424 10.504,346.712 10.936,346.928 11.44,347.144 11.872,347.36 12.304,347.576 12.808,347.72 13.24,347.936 13.672,348.08 14.176,348.224 14.68,348.368 15.112,348.44 15.616,348.512 16.12,348.584 16.624,348.656 17.128,348.728 17.56,348.8 18.064,348.8 18.568,348.8 18.568,348.8 381.016,348.8 381.448,348.8 "
   id="polygon256" />
	<polygon
   style="clip-rule:evenodd;fill:#e51d30;fill-rule:evenodd"
   points="381.808,344.12 382.24,344.048 382.6,344.048 383.032,343.976 383.464,343.904 383.824,343.832 384.256,343.688 384.616,343.544 385.048,343.4 385.408,343.256 385.768,343.112 386.2,342.968 386.56,342.752 386.92,342.536 387.28,342.32 387.568,342.104 387.928,341.888 388.216,341.6 388.576,341.312 388.864,341.096 389.152,340.736 389.512,340.52 389.728,340.16 390.016,339.872 390.232,339.512 390.52,339.224 390.736,338.864 390.952,338.504 391.168,338.144 391.384,337.784 391.528,337.424 391.672,337.064 391.888,336.632 392.032,336.272 392.104,335.84 392.248,335.48 392.32,335.048 392.392,334.688 392.464,334.256 392.536,333.824 392.608,333.464 392.608,333.032 392.608,332.6 392.608,332.24 392.608,331.808 392.608,331.376 392.536,331.016 392.464,330.584 392.392,330.152 392.32,329.72 392.176,329.36 392.104,328.928 391.96,328.568 391.816,328.208 391.6,327.776 391.456,327.416 391.24,327.056 391.096,326.696 391.096,326.696 209.872,12.776 209.872,12.776 209.656,12.416 209.44,12.056 209.224,11.696 208.936,11.408 208.72,11.048 208.432,10.76 208.144,10.472 207.856,10.184 207.568,9.896 207.208,9.608 206.92,9.32 206.56,9.104 206.272,8.888 205.912,8.672 205.552,8.456 205.192,8.24 204.832,8.024 204.472,7.88 204.04,7.736 203.68,7.592 203.248,7.448 202.888,7.304 202.528,7.232 202.096,7.16 201.664,7.088 201.232,7.016 200.872,7.016 200.44,6.944 200.008,6.944 199.576,6.944 199.216,6.944 198.784,7.016 198.352,7.016 197.992,7.088 197.56,7.16 197.128,7.232 196.768,7.304 196.336,7.448 195.976,7.592 195.544,7.736 195.184,7.88 194.824,8.024 194.464,8.24 194.104,8.456 193.744,8.672 193.384,8.888 193.024,9.104 192.736,9.32 192.376,9.608 192.088,9.896 191.8,10.184 191.512,10.472 191.224,10.76 190.936,11.048 190.648,11.408 190.432,11.696 190.216,12.056 189.928,12.416 189.712,12.776 189.712,12.776 8.488,326.696 8.488,326.696 8.344,327.056 8.128,327.416 7.912,327.776 7.768,328.208 7.624,328.568 7.48,328.928 7.408,329.36 7.264,329.72 7.192,330.152 7.12,330.584 7.048,331.016 6.976,331.376 6.976,331.808 6.976,332.24 6.976,332.6 6.976,333.032 6.976,333.464 7.048,333.824 7.12,334.256 7.12,334.688 7.192,335.048 7.336,335.48 7.408,335.84 7.552,336.272 7.696,336.632 7.84,337.064 7.984,337.424 8.2,337.784 8.344,338.144 8.56,338.504 8.848,338.864 9.064,339.224 9.28,339.512 9.568,339.872 9.784,340.16 10.072,340.52 10.36,340.736 10.648,341.096 11.008,341.312 11.296,341.6 11.584,341.888 11.944,342.104 12.304,342.32 12.664,342.536 13.024,342.752 13.384,342.968 13.744,343.112 14.176,343.256 14.536,343.4 14.896,343.544 15.328,343.688 15.688,343.832 16.12,343.904 16.552,343.976 16.912,344.048 17.344,344.048 17.776,344.12 18.136,344.12 18.568,344.12 18.568,344.12 381.016,344.12 381.376,344.12 "
   id="polygon258" />
	<polygon
   style="clip-rule:evenodd;fill:#ffd200;fill-rule:evenodd"
   points="348.76,313.88 50.824,313.88 199.864,55.832 "
   id="polygon260" />
	<polygon
   style="clip-rule:evenodd;fill-rule:evenodd"
   points="87.76,281.048 112.96,281.048 112.96,281.048 113.176,281.048 113.32,281.048 113.536,281.048 113.752,281.048 113.968,281.048 114.184,280.976 114.4,280.976 114.544,280.904 114.76,280.904 114.976,280.832 115.12,280.832 115.336,280.76 115.552,280.76 115.768,280.688 115.912,280.616 116.128,280.544 116.344,280.472 116.488,280.4 116.632,280.328 116.848,280.184 116.992,280.112 117.208,280.04 117.424,279.968 117.568,279.896 117.712,279.752 117.928,279.68 118.072,279.536 118.288,279.464 118.432,279.32 118.576,279.176 118.72,279.104 118.936,278.96 119.008,278.816 119.008,278.816 119.584,278.312 120.16,277.88 120.736,277.376 121.312,276.872 121.816,276.44 122.392,276.008 122.968,275.504 123.544,275.072 124.12,274.568 124.768,274.136 125.344,273.704 125.92,273.272 126.496,272.84 127.072,272.336 127.648,271.904 128.296,271.544 128.872,271.112 129.448,270.68 130.096,270.248 130.672,269.816 131.32,269.384 131.896,269.024 132.544,268.592 133.12,268.232 133.768,267.8 134.344,267.368 134.992,267.008 135.64,266.648 136.288,266.216 136.936,265.856 137.512,265.496 138.16,265.136 138.808,264.776 139.456,264.416 140.104,263.984 140.752,263.696 141.4,263.336 142.048,262.976 142.696,262.616 143.344,262.256 143.992,261.968 144.64,261.608 145.288,261.32 145.936,260.96 146.584,260.672 147.232,260.312 147.952,260.024 148.6,259.736 149.248,259.448 149.968,259.088 150.616,258.8 151.264,258.512 151.984,258.224 152.632,257.936 153.352,257.648 154,257.36 154.72,257.072 155.368,256.856 156.088,256.568 156.808,256.28 157.456,256.064 158.176,255.776 158.824,255.56 159.544,255.344 160.192,255.056 160.912,254.84 161.632,254.624 162.352,254.336 163,254.192 163.72,253.904 164.44,253.76 165.16,253.544 165.88,253.328 166.528,253.112 167.248,252.896 167.968,252.68 168.688,252.536 169.408,252.32 170.128,252.176 170.848,251.96 171.568,251.816 172.288,251.672 172.936,251.456 173.656,251.312 174.376,251.168 175.096,251.024 175.816,250.88 176.608,250.736 177.328,250.592 178.048,250.448 178.768,250.304 179.488,250.232 180.208,250.088 180.928,249.944 181.648,249.872 182.368,249.728 183.088,249.656 183.88,249.512 184.528,249.44 185.248,249.368 186.04,249.296 186.76,249.224 187.48,249.152 188.2,249.08 188.992,249.008 189.64,248.936 190.432,248.864 191.152,248.792 191.872,248.72 192.592,248.72 193.384,248.648 194.104,248.576 194.824,248.576 195.544,248.576 196.264,248.576 197.056,248.504 197.776,248.504 198.496,248.504 199.288,248.504 199.936,248.504 200.728,248.504 201.448,248.504 202.168,248.504 202.96,248.504 203.68,248.576 204.4,248.576 205.12,248.576 205.84,248.576 206.56,248.648 207.352,248.72 208.072,248.72 208.792,248.792 209.584,248.864 210.232,248.936 211.024,249.008 211.744,249.08 212.464,249.152 213.184,249.224 213.904,249.224 214.696,249.368 215.344,249.44 216.136,249.512 216.856,249.656 217.576,249.728 218.296,249.872 219.016,249.944 219.808,250.088 220.528,250.232 221.176,250.304 221.896,250.448 222.688,250.592 223.408,250.736 224.128,250.88 224.848,251.024 225.568,251.168 226.288,251.312 226.936,251.456 227.656,251.672 228.448,251.816 229.168,251.96 229.816,252.176 230.536,252.32 231.256,252.536 231.976,252.68 232.696,252.896 233.416,253.112 234.136,253.328 234.784,253.544 235.504,253.76 236.224,253.904 236.944,254.12 237.664,254.336 238.312,254.624 239.032,254.84 239.752,255.056 240.472,255.272 241.12,255.56 241.768,255.776 242.488,256.064 243.208,256.28 243.856,256.568 244.576,256.856 245.224,257.072 245.944,257.36 246.592,257.648 247.312,257.936 247.96,258.224 248.68,258.512 249.328,258.8 250.048,259.088 250.696,259.376 251.344,259.664 251.992,260.024 252.64,260.312 253.36,260.672 254.008,260.96 254.656,261.32 255.304,261.608 255.952,261.968 256.6,262.256 257.248,262.616 257.896,262.976 258.616,263.336 259.192,263.624 259.84,263.984 260.488,264.344 261.136,264.704 261.784,265.136 262.432,265.496 263.08,265.856 263.656,266.216 264.304,266.576 264.952,267.008 265.6,267.368 266.176,267.8 266.824,268.16 267.472,268.592 268.048,269.024 268.696,269.384 269.272,269.816 269.92,270.248 270.496,270.608 271.072,271.112 271.72,271.472 272.296,271.904 272.872,272.336 273.448,272.768 274.024,273.2 274.672,273.632 275.248,274.136 275.824,274.568 276.4,275 276.976,275.504 277.552,275.936 278.128,276.44 278.704,276.872 279.208,277.376 279.784,277.808 280.36,278.312 280.936,278.816 280.936,278.816 281.08,278.888 281.224,279.032 281.44,279.176 281.584,279.32 281.728,279.464 281.872,279.536 282.088,279.608 282.232,279.752 282.448,279.824 282.592,279.968 282.808,280.04 282.952,280.112 283.168,280.184 283.384,280.328 283.528,280.4 283.744,280.472 283.96,280.544 284.104,280.616 284.32,280.688 284.536,280.76 284.752,280.76 284.896,280.832 285.112,280.832 285.328,280.904 285.472,280.976 285.688,280.976 285.904,280.976 286.12,281.048 286.336,281.048 286.552,281.048 286.768,281.048 286.768,281.048 311.464,281.048 311.464,295.016 87.76,295.016 87.76,281.048 "
   id="polygon262" />
</g>
</svg>