<?xml version="1.0" encoding="iso-8859-1"?>
<!-- Generator: Adobe Illustrator 15.1.0, SVG Export Plug-In . SVG Version: 6.00 Build 0)  -->
<!DOCTYPE svg PUBLIC "-//W3C//DTD SVG 1.1//EN" "http://www.w3.org/Graphics/SVG/1.1/DTD/svg11.dtd">
<svg version="1.1" id="Layer_1" xmlns="http://www.w3.org/2000/svg" xmlns:xlink="http://www.w3.org/1999/xlink" x="0px" y="0px"
	 width="595px" height="842px" viewBox="0 0 595 842" style="enable-background:new 0 0 595 842;" xml:space="preserve">
<g>
	<path style="fill-rule:evenodd;clip-rule:evenodd;fill:#FFD200;" d="M43.552,683.24c-17.208-0.432-25.416-17.712-18.072-31.464
		L259.048,247.64c9-15.12,27.576-13.392,36.144,0l233.496,404.136c6.912,12.888,0,28.872-15.48,31.464H43.552z"/>
	<path style="fill-rule:evenodd;clip-rule:evenodd;fill:#EF3E42;" d="M43.12,677.192c-12.096-0.864-18.072-12.96-12.528-22.464
		l233.136-404.136c5.616-9.864,19.872-10.728,26.28,0l233.496,404.136c5.616,9.072-1.296,22.464-13.32,22.464H43.12z"/>
	<polygon style="fill-rule:evenodd;clip-rule:evenodd;fill:#FFD200;" points="84.952,638.384 277.12,305.816 468.784,638.384 	"/>
	<path style="fill-rule:evenodd;clip-rule:evenodd;" d="M121.096,629.312v-16.344h36.648l6.48-4.32L172,597.416l2.52-6.84
		l3.888-3.888l6.048-1.728l3.456,1.728l9.504,7.776l2.592,1.296l2.52,1.656l0.432,3.456l0.432,2.16l0.864,2.592h2.16l2.16-0.432
		l1.728-0.864v-24.12l0.432-7.344l0.432-7.272v-6.48l-0.864-15.12l-0.864-18.504v-11.664l0.432-11.592l1.296-21.6h-3.024
		l-2.592-0.792l-2.16-2.16l-0.864-2.592c-0.432-0.864,0-1.728,0.432-2.592l0.864-1.296l2.16-2.592
		c0.864-0.864,2.16-1.296,3.456-1.728c1.296-0.864,2.16-1.728,2.16-2.592l2.16-3.024l0.864-6.048l0.864-6.84
		c1.296-4.32,1.728-7.776,2.16-10.8c0.432-0.864,0.864-1.728,1.296-2.592c0.864-0.864,2.16-1.728,3.024-2.16l4.32-2.16l3.888-1.728
		l6.84-2.16l5.616-2.592l5.616-1.296l5.616-0.36l5.184,0.36l10.728,3.456l6.048,1.296l6.48,0.432l4.32-0.864l2.52-1.728l0.864-0.864
		l1.728-2.952l0.864-3.384l2.16-8.64l1.296-2.592l1.728-1.728l2.52-2.592l3.888-1.728h3.888l3.888,0.864l6.84,3.888l3.456,3.456
		l0.432,1.728l0.432,6.48l-2.16,3.816l-2.16,1.656l-0.864,3.888l-2.52,5.616l-3.888,4.32l-3.024,1.728h-1.296l-0.432-0.432h-0.864
		l-0.864,0.432l-0.432,0.864v1.296l0.432,1.728l1.296,4.32l0.432,1.728l-0.432,2.592l-1.296,5.112l-3.024,5.184l-3.024,4.752
		l-2.088,5.616l-2.16,3.888l0.864,25.416l1.728,11.592l4.248,5.616l3.024,3.024l3.024,2.16l4.752,3.024l4.32,2.16l4.248,2.16
		l4.752,3.024l5.184,3.888l3.456,3.384l2.592,2.592l4.32-2.592l8.136,6.048l3.024,2.592l5.184,2.592l4.32,2.16l4.32,2.16
		l3.456-2.592l6.84-4.32l11.232-3.024l3.024,3.024l3.024,4.752l8.64,8.64l7.272,9l4.752,6.912l3.024,3.456l2.16,3.888l2.16,4.32
		l3.456,7.704l3.024,7.776l2.16,6.48l1.728,6.48l0.432,3.024l0.432,7.272H121.096z"/>
	<polygon style="fill-rule:evenodd;clip-rule:evenodd;fill:#FFD200;" points="239.608,608.216 239.176,605.624 233.992,602.168 
		228.448,597.416 228.016,596.552 228.016,595.328 228.88,589.28 230.968,589.28 233.128,588.416 233.992,586.688 235.288,576.32 
		235.72,573.728 239.176,558.68 241.336,550.904 241.768,547.448 242.2,542.264 242.632,539.672 244.36,527.648 245.656,519.872 
		245.656,519.008 246.52,517.712 248.248,516.848 250.84,517.28 252.136,518.144 255.592,522.032 258.616,525.92 262,529.376 
		265.456,532.4 268.912,535.424 272.8,538.448 274.096,540.104 274.096,542.264 272.8,548.312 271.072,555.656 268.912,562.568 
		266.32,570.704 265.024,578.048 264.16,583.664 262.432,587.552 259.84,591.008 258.616,594.464 258.616,595.76 263.728,599.144 
		268.912,600.872 277.12,605.624 271.072,607.352 266.752,608.648 262,609.512 257.32,609.512 252.136,609.944 247.816,609.512 
		243.928,609.08 	"/>
	<polygon style="fill-rule:evenodd;clip-rule:evenodd;fill:#FFD200;" points="245.656,445.784 245.224,444.92 244.792,444.92 
		243.928,444.92 241.768,444.488 240.04,444.488 238.312,444.488 236.152,444.92 234.424,444.92 232.696,444.92 231.832,444.92 
		231.4,444.92 230.176,445.784 229.312,446.216 228.448,447.512 228.016,448.808 227.584,449.672 227.584,450.968 227.584,452.624 
		227.584,453.488 227.152,455.216 226.72,456.512 225.856,459.104 224.992,460.4 224.56,462.992 224.128,464.288 224.128,466.448 
		223.696,468.176 224.128,469.04 224.992,469.904 225.856,469.904 230.608,462.56 234.856,454.784 235.72,453.488 239.608,450.536 
		245.656,447.08 	"/>
	<polygon style="fill-rule:evenodd;clip-rule:evenodd;fill:#FFD200;" points="272.368,474.224 270.64,475.52 269.344,477.248 
		268.912,479.408 268.912,481.928 269.344,483.656 271.072,487.976 273.232,492.296 275.392,496.184 278.848,500.936 
		281.872,504.824 282.736,505.688 284.032,505.688 284.464,504.824 284.464,503.96 284.464,503.96 284.464,502.664 280.144,486.68 
		280.144,485.384 280.144,482.792 279.712,479.408 278.416,475.52 277.984,473.792 277.552,473.36 276.688,472.928 276.256,472.496 
		275.392,472.496 	"/>
	<polygon style="fill-rule:evenodd;clip-rule:evenodd;fill:#FFD200;" points="303.76,527.648 308.08,530.672 312.832,533.264 
		317.584,535.424 322.696,537.584 327.016,539.672 330.904,543.992 333.496,546.584 336.952,549.176 340.408,551.336 
		344.296,553.496 348.544,555.224 352.432,556.952 356.32,557.816 364.096,559.112 355.888,568.112 352.432,573.296 349.84,577.616 
		347.248,582.368 344.728,587.12 343,591.872 341.272,595.76 339.976,597.848 338.248,600.008 334.792,602.6 333.928,603.464 
		331.336,604.76 328.744,606.056 324.424,606.92 321.832,607.352 317.584,607.352 312.4,606.056 306.784,605.624 302.464,604.76 
		297.352,604.328 291.736,604.76 287.056,604.76 287.056,603.032 286.192,602.168 279.712,598.28 277.552,593.6 279.712,587.12 
		282.304,587.12 284.032,587.12 285.76,586.256 287.488,585.824 288.712,584.096 290.44,581.504 295.192,558.68 296.92,552.632 
		300.304,540.968 303.76,532.4 304.192,531.536 304.192,530.24 	"/>
</g>
</svg>
