<?xml version="1.0" encoding="UTF-8" standalone="no"?>
<!-- Generator: Adobe Illustrator 15.1.0, SVG Export Plug-In . SVG Version: 6.00 Build 0)  -->

<svg
   xmlns:dc="http://purl.org/dc/elements/1.1/"
   xmlns:cc="http://creativecommons.org/ns#"
   xmlns:rdf="http://www.w3.org/1999/02/22-rdf-syntax-ns#"
   xmlns:svg="http://www.w3.org/2000/svg"
   xmlns="http://www.w3.org/2000/svg"
   xmlns:sodipodi="http://sodipodi.sourceforge.net/DTD/sodipodi-0.dtd"
   xmlns:inkscape="http://www.inkscape.org/namespaces/inkscape"
   version="1.1"
   id="Layer_1"
   x="0px"
   y="0px"
   width="505.67865"
   height="443.88989"
   viewBox="0 0 505.67865 443.88989"
   xml:space="preserve"
   sodipodi:docname="143.svg"
   inkscape:version="0.92.5 (2060ec1f9f, 2020-04-08)"><metadata
   id="metadata325"><rdf:RDF><cc:Work
       rdf:about=""><dc:format>image/svg+xml</dc:format><dc:type
         rdf:resource="http://purl.org/dc/dcmitype/StillImage" /></cc:Work></rdf:RDF></metadata><defs
   id="defs323" /><sodipodi:namedview
   pagecolor="#ffffff"
   bordercolor="#666666"
   borderopacity="1"
   objecttolerance="10"
   gridtolerance="10"
   guidetolerance="10"
   inkscape:pageopacity="0"
   inkscape:pageshadow="2"
   inkscape:window-width="640"
   inkscape:window-height="480"
   id="namedview321"
   showgrid="false"
   inkscape:zoom="0.28028504"
   inkscape:cx="274.35959"
   inkscape:cy="262.24"
   inkscape:window-x="0"
   inkscape:window-y="0"
   inkscape:window-maximized="0"
   inkscape:current-layer="Layer_1" />
<g
   id="g318"
   transform="translate(-23.14041,-239.3501)">
	<path
   style="clip-rule:evenodd;fill:#ffd200;fill-rule:evenodd"
   d="m 43.624,683.24 c -17.136,-0.432 -24.84,-17.64 -18,-31.32 L 257.968,249.944 c 9.432,-14.976 27.432,-13.248 36,0 l 232.2,401.976 c 6.84,12.888 0,28.728 -15.408,31.32 z"
   id="path298"
   inkscape:connector-curvature="0" />
	<path
   style="clip-rule:evenodd;fill:#ef3e42;fill-rule:evenodd"
   d="M 43.192,677.192 C 31.24,676.328 25.624,664.376 30.808,654.944 L 263.08,252.968 c 5.544,-9.864 19.728,-10.728 25.704,0 l 232.272,401.976 c 5.544,9 -1.296,22.248 -12.888,22.248 z"
   id="path300"
   inkscape:connector-curvature="0" />
	<polygon
   style="clip-rule:evenodd;fill:#ffd200;fill-rule:evenodd"
   points="466.624,638.6 85.24,638.6 275.968,307.832 "
   id="polygon302" />
	<g
   id="g316">
		<polygon
   style="clip-rule:evenodd;fill-rule:evenodd"
   points="320.896,515.624 248.104,611.168 318.736,559.328 330.76,579.056 255.808,612.464 362.872,594.032 364.168,612.896 240.4,618.08 238.672,615.92 303.76,502.736 "
   id="polygon304" />
		<polygon
   style="clip-rule:evenodd;fill-rule:evenodd"
   points="322.624,464.648 326.44,475.304 345.304,482.216 346.168,492.512 342.712,506.192 325.576,505.76 309.304,493.736 311.032,473.648 "
   id="polygon306" />
		<polygon
   style="clip-rule:evenodd;fill-rule:evenodd"
   points="371.44,549.464 374.032,572.216 352.144,567.032 341.416,572.216 331.192,561.056 335.008,547.304 333.28,533.624 356.464,530.6 "
   id="polygon308" />
		<polygon
   style="clip-rule:evenodd;fill-rule:evenodd"
   points="409.168,590.648 413.488,591.944 407.44,612.896 400.6,613.76 398.44,612.032 383.464,606.056 386.056,586.76 401.464,581.216 "
   id="polygon310" />
		<polygon
   style="clip-rule:evenodd;fill-rule:evenodd"
   points="214.624,442.76 217.648,448.736 231.832,495.896 236.512,497.624 240.832,501.08 244.216,505.328 246.808,510.944 248.104,517.784 248.104,524.624 242.488,579.056 241.624,581.648 240.4,583.736 239.104,585.896 237.376,587.624 235.216,589.352 232.624,590.648 232.624,609.944 232.192,612.464 231.4,614.624 230.104,616.784 228.808,618.512 226.648,620.168 224.488,621.464 222.4,622.76 219.808,623.192 217.648,623.192 215.056,623.192 212.536,622.328 210.376,621.464 208.216,620.168 206.488,618.512 203.968,615.488 203.536,613.76 202.672,609.944 202.672,588.488 114.328,588.488 142.624,539.168 198.352,539.168 196.624,536.648 195.4,534.056 194.536,531.032 147.376,531.032 151.624,523.76 196.192,523.76 196.192,522.032 197.488,518.216 198.352,515.624 156.376,515.624 168.4,494.6 176.968,495.032 185.104,495.032 194.104,495.464 211.24,496.328 199.648,457.736 198.784,455.648 197.488,453.488 193.672,450.464 203.968,433.328 207.784,435.488 "
   id="polygon312" />
		<path
   style="clip-rule:evenodd;fill:#ffd200;fill-rule:evenodd"
   d="m 220.672,510.08 2.16,0.432 2.088,0.792 c 1.728,0.864 3.024,1.296 3.888,2.16 1.296,1.296 2.16,2.592 2.592,3.456 3.816,6.408 3.384,12.816 -1.296,18.432 l -1.296,1.728 -3.888,2.52 -4.248,1.296 c -1.728,0 -3.024,0 -4.32,0 l -2.16,-0.864 -2.088,-0.432 -2.16,-1.296 -1.728,-1.224 c -6.84,-5.616 -7.272,-17.568 0,-23.616 l 1.728,-1.296 2.16,-0.864 c 1.296,-0.792 2.52,-1.224 4.248,-1.224 l 2.16,-0.432 z"
   id="path314"
   inkscape:connector-curvature="0" />
	</g>
</g>
</svg>