<?xml version="1.0" encoding="iso-8859-1"?>
<!-- Generator: Adobe Illustrator 15.1.0, SVG Export Plug-In . SVG Version: 6.00 Build 0)  -->
<!DOCTYPE svg PUBLIC "-//W3C//DTD SVG 1.1//EN" "http://www.w3.org/Graphics/SVG/1.1/DTD/svg11.dtd">
<svg version="1.1" id="Layer_1" xmlns="http://www.w3.org/2000/svg" xmlns:xlink="http://www.w3.org/1999/xlink" x="0px" y="0px"
	 width="595px" height="842px" viewBox="0 0 595 842" style="enable-background:new 0 0 595 842;" xml:space="preserve">
<g>
	<path style="fill-rule:evenodd;clip-rule:evenodd;fill:#FFD200;" d="M44.56,683.24c-17.712-0.432-25.416-17.712-18.576-31.536
		l233.928-404.712c9.504-15.12,28.008-13.392,36.216,0l233.856,404.712c6.912,12.96,0,28.944-15.552,31.536H44.56z"/>
	<path style="fill-rule:evenodd;clip-rule:evenodd;fill:#EF3E42;" d="M43.696,677.192c-11.664-0.864-17.712-12.96-12.528-22.464
		l233.928-404.712c5.616-9.936,19.872-10.8,25.848,0L524.8,654.728c6.048,9.072-1.296,22.464-12.96,22.464H43.696z"/>
	<polygon style="fill-rule:evenodd;clip-rule:evenodd;fill:#FFD200;" points="86.032,638.312 278.056,305.24 470.44,638.312 	"/>
	<g>
		<polygon style="fill-rule:evenodd;clip-rule:evenodd;" points="231.832,512.744 305.992,530.456 303.4,541.256 303.4,543.416 
			303.832,545.576 305.128,547.304 306.856,549.032 308.584,549.896 310.744,550.328 312.472,549.896 315.064,549.032 
			316.792,547.736 318.088,545.576 321.112,534.344 322.84,534.776 323.704,534.776 325,534.344 325.864,533.912 336.232,501.08 
			336.664,498.92 336.232,496.328 334.936,493.736 333.208,492.008 331.48,491.144 328.024,464.432 327.16,460.976 325.432,457.952 
			322.84,455.792 319.816,454.064 298.648,448.016 279.352,443.264 254.728,438.08 250.84,438.08 247.384,438.944 244.36,441.104 
			241.768,443.264 227.08,467.024 224.92,467.024 222.76,467.456 221.032,468.752 219.808,470.48 218.944,472.208 212.464,505.832 
			212.464,506.696 213.76,508.424 217.216,509.288 214.624,518.792 214.192,521.384 214.624,523.544 215.92,525.704 
			217.648,527.432 219.808,528.296 221.896,528.728 224.488,528.296 226.648,527 228.376,525.272 229.24,523.544 		"/>
		<polygon style="fill-rule:evenodd;clip-rule:evenodd;fill:#FFD200;" points="237.88,468.32 253.864,471.344 266.824,474.368 
			290.944,479.984 321.544,488.552 319.816,466.16 318.52,464 316.792,463.136 302.104,458.816 282.376,453.632 262.072,449.312 
			253.864,448.016 251.272,448.016 249.976,449.312 		"/>
		<polygon style="fill-rule:evenodd;clip-rule:evenodd;stroke:#000000;stroke-width:1.1988;stroke-miterlimit:10;" points="
			125.704,626.216 212.032,626.216 225.352,619.304 236.152,613.76 246.952,607.712 253,604.256 256.024,602.096 258.616,600.8 
			260.344,599.072 261.64,598.208 261.64,596.912 261.64,596.912 261.64,596.048 261.64,595.616 261.208,595.184 259.912,594.32 
			257.752,593.024 255.592,591.728 253.864,590.864 250.84,589.568 247.384,588.272 242.2,586.544 233.992,583.952 227.512,582.224 
			221.032,580.064 202.528,575.312 193.024,572.72 189.568,571.424 188.272,570.992 186.976,570.128 186.544,569.264 185.68,568.4 
			185.68,566.672 185.68,565.808 186.544,564.944 187.84,564.08 189.136,563.216 192.592,561.488 196.48,560.192 199.504,558.896 
			204.256,556.736 209.872,555.008 217.216,552.416 222.328,550.76 221.032,550.76 213.76,550.76 209.872,551.12 205.12,551.552 
			200.368,551.984 195.184,552.848 190,553.28 181.792,555.008 174.016,557.168 166.672,559.328 162.784,560.624 159.328,561.92 
			156.304,563.648 154.216,564.944 153.352,565.376 151.624,566.672 151.192,567.104 150.76,568.4 150.76,569.696 151.192,570.992 
			152.488,572.288 154.576,573.584 155.872,574.016 161.056,576.176 166.24,577.904 177.472,580.928 184.384,582.656 
			191.296,583.952 198.64,586.112 204.688,587.408 214.624,590 217.648,590.864 221.464,592.16 225.352,593.888 226.648,595.184 
			226.648,596.912 224.488,598.208 222.76,599.504 220.672,600.368 219.376,600.8 216.784,601.664 213.76,602.96 209.44,604.256 
			199.504,606.848 		"/>
		<polygon style="fill-rule:evenodd;clip-rule:evenodd;stroke:#000000;stroke-width:1.1988;stroke-miterlimit:10;" points="
			307.288,625.784 387.568,625.784 400.528,615.056 407.872,609.008 413.056,603.824 413.92,601.664 413.92,599.936 
			413.488,597.776 412.624,596.048 410.464,593.888 407.008,592.16 400.528,589.568 394.048,587.84 386.272,585.68 379.792,584.384 
			371.152,582.656 359.92,580.928 356.896,580.496 350.056,579.2 343.144,578.336 330.184,576.608 327.16,576.176 266.824,569.264 
			265.096,568.832 263.8,568.4 262.936,568.4 262.936,567.968 262.936,567.536 263.368,567.104 264.232,566.672 279.352,562.352 
			305.992,556.304 303.832,556.304 298.648,556.304 294.4,556.736 285.832,556.736 282.808,557.168 277.624,557.6 271.576,558.032 
			268.552,558.032 260.776,559.328 249.112,561.056 243.064,562.352 233.992,564.512 229.24,565.808 227.08,567.104 225.784,568.4 
			225.784,569.696 225.784,571.424 227.08,572.288 228.808,572.72 232.696,574.016 239.608,576.176 244.36,577.04 251.704,578.336 
			262.072,579.632 274.168,580.928 281.944,581.792 339.256,588.704 348.76,590.432 359.92,592.16 365.968,593.888 369.856,595.184 
			372.88,596.912 373.312,598.64 373.312,599.936 372.448,601.232 371.152,601.664 369.856,602.528 364.672,604.688 360.352,607.28 
			354.304,609.872 347.896,612.464 340.552,615.488 331.912,618.008 324.568,620.6 		"/>
	</g>
</g>
</svg>
