<?xml version="1.0" encoding="iso-8859-1"?>
<!-- Generator: Adobe Illustrator 15.1.0, SVG Export Plug-In . SVG Version: 6.00 Build 0)  -->
<!DOCTYPE svg PUBLIC "-//W3C//DTD SVG 1.1//EN" "http://www.w3.org/Graphics/SVG/1.1/DTD/svg11.dtd">
<svg version="1.1" id="Layer_1" xmlns="http://www.w3.org/2000/svg" xmlns:xlink="http://www.w3.org/1999/xlink" x="0px" y="0px"
	 width="595px" height="842px" viewBox="0 0 595 842" style="enable-background:new 0 0 595 842;" xml:space="preserve">
<path style="fill-rule:evenodd;clip-rule:evenodd;fill:#FFD200;" d="M44.2,642.704c-17.568-0.432-25.992-17.568-18.504-32.112
	l238.608-412.848c9.72-14.904,28.152-13.176,36.936,0l238.536,412.848c7.056,13.248,0,29.52-15.84,32.112H44.2z"/>
<path style="fill-rule:evenodd;clip-rule:evenodd;fill:#EF3E42;" d="M43.768,637.016c-12.312-0.864-18.504-13.68-12.744-23.328
	L269.56,200.84c5.76-9.648,19.872-10.512,26.424,0L534.52,613.688c5.688,9.648-1.296,23.328-13.248,23.328H43.768z"/>
<polygon style="fill-rule:evenodd;clip-rule:evenodd;fill:#FFD200;" points="86.464,596.984 282.808,257.648 478.576,596.984 "/>
<g>
	<polygon style="fill-rule:evenodd;clip-rule:evenodd;" points="232.192,530.96 338.608,551.624 335.512,567.032 336.448,570.992 
		338.176,574.088 340.84,576.248 343.936,578.048 347.896,578.048 351.424,576.68 354.016,574.52 355.384,573.224 360.208,556.016 
		362.368,554.72 367.264,543.704 370.792,534.488 372.952,527.864 375.184,519.512 377.344,511.088 377.776,507.632 
		378.208,504.104 378.208,501.872 377.344,499.712 376.48,497.48 375.184,495.68 373.384,494.384 371.656,493.088 370.288,455.648 
		369.856,452.984 368.992,450.392 367.696,447.728 365.896,445.568 363.736,443.336 360.64,441.608 359.344,440.24 356.68,439.376 
		306.928,427.496 256.816,420.08 254.152,420.08 251.128,420.512 248.464,421.304 245.8,422.168 243.64,423.968 241.408,425.696 
		239.68,427.928 237.88,430.16 223.336,464.432 221.176,464.936 218.944,465.8 216.784,466.664 214.984,468.392 213.688,470.192 
		212.824,471.92 211.024,479.408 209.728,487.76 208.864,496.184 208.432,504.536 207.928,512.888 208.432,523.04 208.864,525.2 
		210.16,527 208.432,543.272 208.864,546.8 211.024,549.824 213.688,552.056 217.216,553.352 220.744,553.352 224.272,552.056 
		226.864,549.824 228.664,546.368 	"/>
	<polygon style="fill-rule:evenodd;clip-rule:evenodd;fill:#FFD200;" points="236.584,465.8 242.704,466.232 255.52,467.528 
		271.36,469.76 297.784,474.152 320.608,478.544 339.472,482.936 357.976,487.76 356.248,457.448 355.816,455.648 354.88,454.352 
		354.016,452.552 352.72,451.256 350.92,450.392 337.312,446.864 327.592,444.2 317.08,442.04 303.832,439.376 280.576,435.416 
		263.44,433.616 256.384,433.184 254.152,433.184 252.856,434.12 251.128,434.984 249.76,436.28 248.896,437.576 	"/>
	<rect x="142.408" y="557.312" style="fill-rule:evenodd;clip-rule:evenodd;" width="159.264" height="30.384"/>
	<polygon style="fill-rule:evenodd;clip-rule:evenodd;" points="304.768,564.8 304.768,587.696 319.672,587.696 	"/>
	<polygon style="fill-rule:evenodd;clip-rule:evenodd;" points="316.144,576.68 330.688,579.344 328.96,587.696 323.632,587.696 	
		"/>
	<polygon style="fill-rule:evenodd;clip-rule:evenodd;" points="333.784,579.776 332.056,587.696 346.96,587.696 350.056,582.44 	
		"/>
	<polygon style="fill-rule:evenodd;clip-rule:evenodd;" points="350.056,587.696 369.424,587.696 369.424,579.344 353.584,582.008 	
		"/>
	<polygon style="fill-rule:evenodd;clip-rule:evenodd;" points="355.384,578.912 370.792,576.68 370.792,565.232 363.304,565.232 	
		"/>
	<polygon style="fill-rule:evenodd;clip-rule:evenodd;" points="373.816,577.184 384.832,575.384 387.064,565.232 373.816,565.232 	
		"/>
	<polygon style="fill-rule:evenodd;clip-rule:evenodd;" points="372.52,580.208 384.4,578.48 382.24,587.696 372.52,587.696 	"/>
	<polygon style="fill-rule:evenodd;clip-rule:evenodd;" points="385.264,587.696 397.576,587.696 401.104,579.776 390.16,565.232 	
		"/>
	<polygon style="fill-rule:evenodd;clip-rule:evenodd;" points="394.12,565.232 402.472,576.248 407.296,565.232 	"/>
	<polygon style="fill-rule:evenodd;clip-rule:evenodd;" points="410.392,565.232 423.568,565.232 423.568,574.952 405.064,577.184 	
		"/>
	<polygon style="fill-rule:evenodd;clip-rule:evenodd;" points="423.568,578.048 423.568,587.696 400.672,587.696 403.768,580.208 	
		"/>
</g>
</svg>
