<?xml version="1.0" encoding="iso-8859-1"?>
<!-- Generator: Adobe Illustrator 15.1.0, SVG Export Plug-In . SVG Version: 6.00 Build 0)  -->
<!DOCTYPE svg PUBLIC "-//W3C//DTD SVG 1.1//EN" "http://www.w3.org/Graphics/SVG/1.1/DTD/svg11.dtd">
<svg version="1.1" id="Layer_1" xmlns="http://www.w3.org/2000/svg" xmlns:xlink="http://www.w3.org/1999/xlink" x="0px" y="0px"
	 width="595px" height="842px" viewBox="0 0 595 842" style="enable-background:new 0 0 595 842;" xml:space="preserve">
<g>
	<path style="fill-rule:evenodd;clip-rule:evenodd;fill:#FFD200;" d="M43.84,682.592c-17.28-0.432-24.984-17.28-18.144-31.464
		l233.496-403.92c9.432-14.688,27.504-12.96,36.144,0l233.352,403.92c6.912,12.888,0,28.872-15.48,31.464H43.84z"/>
	<path style="fill-rule:evenodd;clip-rule:evenodd;fill:#EF3E42;" d="M43.408,676.976c-12.096-0.864-17.712-13.392-12.528-22.824
		l233.424-403.92c5.616-9.504,19.872-10.368,25.848,0l233.352,403.92c5.616,9.432-1.224,22.824-12.888,22.824H43.408z"/>
	<polygon style="fill-rule:evenodd;clip-rule:evenodd;fill:#FFD200;" points="85.6,637.736 277.264,305.744 468.856,637.736 	"/>
	<polygon style="fill-rule:evenodd;clip-rule:evenodd;" points="132.976,605.912 159.256,558.968 185.104,558.968 164.008,605.912 	
		"/>
	<polygon style="fill-rule:evenodd;clip-rule:evenodd;" points="195.4,605.912 204.472,579.2 222.112,589.496 232.912,575.312 
		226.864,605.912 	"/>
	<polygon style="fill-rule:evenodd;clip-rule:evenodd;" points="258.76,605.912 261.712,558.968 287.56,558.968 290.584,605.912 	
		"/>
	<polygon style="fill-rule:evenodd;clip-rule:evenodd;" points="313.768,560.264 329.32,574.448 329.32,576.176 322.84,577.904 
		318.952,588.2 339.616,588.2 345.232,580.496 353.44,605.48 321.976,605.912 	"/>
	<polygon style="fill-rule:evenodd;clip-rule:evenodd;" points="364.6,558.968 390.016,558.968 416.728,605.912 384.832,605.912 	
		"/>
	<polygon style="fill-rule:evenodd;clip-rule:evenodd;" points="221.248,585.248 277.264,507.272 297.064,540.392 332.776,573.584 
		331.912,577.904 325,580.064 323.272,585.248 337.456,585.248 350.848,567.536 315.928,527.072 298.72,490.496 299.152,488.768 
		300.016,486.608 300.448,483.152 298.36,476.672 295.336,466.808 294.472,441.824 303.904,454.712 308.656,485.312 
		310.312,488.336 313.768,489.632 317.224,488.336 318.952,486.608 319.384,483.152 318.52,477.104 320.68,476.672 317.224,445.28 
		301.312,417.776 300.88,416.48 299.584,415.616 296.2,413.888 284.608,408.272 282.88,406.112 282.016,403.088 281.584,400.064 
		282.016,396.248 282.448,394.088 283.744,389.336 283.744,384.584 282.88,381.56 281.152,377.672 277.696,375.08 275.536,373.856 
		271.648,372.992 266.464,373.424 261.712,375.08 259.192,377.24 257.896,379.832 257.464,383.72 257.464,388.04 257.464,391.496 
		256.6,395.384 257.464,397.976 258.328,400.064 258.328,401.36 259.192,402.656 260.056,403.52 260.92,403.952 262.144,404.384 
		266.032,404.384 266.464,404.384 267.76,406.112 267.76,410 257.896,418.208 256.168,419.936 254.872,421.16 254.008,422.384 
		253.576,424.112 250.12,447.368 224.704,467.672 223.408,468.968 222.976,470.192 222.976,471.92 222.976,474.08 223.408,475.376 
		225.136,476.672 226.864,477.536 228.592,478.4 230.752,477.536 237.232,472.784 238.456,474.08 258.328,459.464 262.144,452.984 
		264.304,478.832 211.384,568.4 199.288,565.808 195.4,569.696 196.696,571.424 	"/>
</g>
</svg>
