<?xml version="1.0" encoding="iso-8859-1"?>
<!-- Generator: Adobe Illustrator 15.1.0, SVG Export Plug-In . SVG Version: 6.00 Build 0)  -->
<!DOCTYPE svg PUBLIC "-//W3C//DTD SVG 1.1//EN" "http://www.w3.org/Graphics/SVG/1.1/DTD/svg11.dtd">
<svg version="1.1" id="Layer_1" xmlns="http://www.w3.org/2000/svg" xmlns:xlink="http://www.w3.org/1999/xlink" x="0px" y="0px"
	 width="595px" height="842px" viewBox="0 0 595 842" style="enable-background:new 0 0 595 842;" xml:space="preserve">
<g>
	<path style="fill-rule:evenodd;clip-rule:evenodd;fill:#FFD200;" d="M50.752,715.208c-17.208-0.432-25.416-17.28-18.072-31.464
		l233.568-404.136c9-14.688,27.576-12.96,36.072,0l233.568,404.136c6.912,12.888,0,28.872-15.48,31.464H50.752z"/>
	<path style="fill-rule:evenodd;clip-rule:evenodd;fill:#EF3E42;" d="M50.32,709.592c-12.096-0.864-18.072-13.392-12.528-22.824
		L270.928,282.56c5.616-9.432,19.872-10.296,26.28,0l233.496,404.208c5.616,9.432-1.296,22.824-13.32,22.824H50.32z"/>
	<polygon style="fill-rule:evenodd;clip-rule:evenodd;fill:#FFD200;" points="92.152,670.352 284.32,338.216 475.984,670.352 	"/>
	<polygon style="fill-rule:evenodd;clip-rule:evenodd;" points="199.432,572.072 203.752,575.528 208.504,578.984 213.184,582.008 
		218.368,584.6 215.776,591.08 214.912,594.536 214.048,598.856 213.616,602.672 212.752,610.88 211.888,619.088 210.16,626 
		207.208,634.136 203.752,639.32 200.296,642.344 195.976,644.504 190.36,646.664 184.312,647.528 180.424,648.392 177.904,649.688 
		177.472,650.552 176.176,654.44 213.616,662.576 214.48,660.848 216.208,658.256 216.64,656.168 217.072,653.144 216.64,650.984 
		216.64,647.96 217.072,645.368 218.368,641.048 219.664,639.32 223.12,634.568 226.144,629.816 228.304,625.136 230.896,620.384 
		233.488,613.472 233.92,609.584 234.352,604.832 234.784,600.08 235.648,596.264 236.512,594.536 239.464,590.648 246.808,591.512 
		257.176,591.944 257.608,597.992 259.336,603.536 261.928,610.88 264.088,614.768 269.2,626 270.928,631.976 272.224,639.32 
		271.36,644.504 267.904,648.392 264.52,650.984 261.928,653.144 258.904,654.44 256.312,657.032 254.152,661.712 291.664,661.712 
		291.664,654.008 291.232,652.28 290.368,649.688 289.072,647.096 287.344,643.208 286.048,635 285.184,622.976 284.752,615.2 
		284.32,610.88 283.456,607.856 281.728,602.24 279.568,595.832 278.704,590.216 278.704,588.92 285.616,586.76 289.936,584.6 
		295.552,581.576 301.888,578.12 298.504,572.504 294.256,564.368 289.504,553.568 282.592,534.632 278.272,517.352 
		296.776,528.152 298.072,531.176 299.296,544.496 299.296,557.888 298.504,563.504 298.864,566.096 300.16,568.688 
		303.184,570.848 307.072,571.64 310.528,571.64 320.896,574.232 326.008,575.096 333.352,559.616 334.216,584.6 330.76,601.376 
		326.008,614.768 321.76,632.408 319.6,638.456 315.28,642.344 307.504,645.368 304.048,646.664 301.456,648.824 300.592,652.712 
		329.896,657.896 331.624,652.28 334.648,640.184 340.264,626 345.88,612.608 354.448,596.696 361.792,615.632 364.384,619.952 
		367.408,624.272 370.864,628.16 374.32,631.112 379.504,636.296 382.096,641.048 382.528,645.368 381.232,649.688 379.072,653.144 
		377.344,655.304 373.888,656.6 372.16,661.28 384.616,661.28 403.192,644.072 379.504,606.56 378.64,604.832 372.592,574.664 
		370.432,553.568 376.048,558.752 380.368,563.936 382.096,566.528 384.616,572.504 385.912,578.12 388.072,585.032 
		391.096,590.648 395.848,594.104 401.464,594.968 404.92,593.24 405.784,591.08 405.352,588.488 404.056,586.76 400.6,584.6 
		398.872,582.008 396.712,560.48 395.416,557.024 386.776,546.224 375.184,532.904 372.592,530.312 365.68,525.128 356.176,519.944 
		354.448,517.784 354.016,513.464 355.744,509.648 358.336,505.76 360.064,500.576 360.496,496.256 360.496,491.936 
		360.064,489.344 358.336,485.024 357.04,482.936 354.016,479.48 350.2,476.888 345.88,476.024 341.128,476.456 336.376,477.752 
		330.76,479.912 328.168,482.072 325.576,485.888 324.784,489.776 325.144,495.824 325.576,499.712 326.872,503.168 329.032,507.92 
		332.488,511.808 337.24,516.056 337.24,518.648 331.192,524.696 329.032,527.72 326.008,533.768 316.144,561.776 311.824,562.208 
		309.232,558.752 311.824,536.792 312.256,528.152 312.256,523.4 310.96,519.944 308.8,516.488 301.888,509.648 294.256,502.304 
		286.48,495.824 280.432,491.072 273.52,487.616 264.952,484.592 262.792,482.936 261.928,479.048 264.088,476.024 266.248,474.296 
		270.928,470.84 273.52,466.088 274.384,463.064 274.384,454.064 273.952,450.608 273.088,447.152 271.792,443.264 270.928,441.536 
		268.336,438.512 264.952,436.784 261.496,436.352 254.152,436.352 248.536,436.352 243.352,438.08 239.464,441.104 
		236.512,444.992 235.216,449.312 234.784,457.016 235.216,463.064 236.512,469.112 237.808,470.84 239.464,472.568 242.92,474.296 
		244.648,476.888 245.08,480.776 242.056,483.8 230.896,488.48 227.008,491.072 223.984,494.528 205.048,530.312 175.744,551.408 
		174.448,554.432 175.744,557.024 183.448,561.344 186.472,561.344 187.336,560.048 188.2,557.024 188.2,555.728 189.928,554 
		212.752,546.224 224.848,530.744 221.824,538.088 214.912,552.272 211.888,557.024 205.048,566.096 	"/>
</g>
</svg>
