<?xml version="1.0" encoding="UTF-8" standalone="no"?>
<!-- Generator: Adobe Illustrator 15.1.0, SVG Export Plug-In . SVG Version: 6.00 Build 0)  -->

<svg
   xmlns:dc="http://purl.org/dc/elements/1.1/"
   xmlns:cc="http://creativecommons.org/ns#"
   xmlns:rdf="http://www.w3.org/1999/02/22-rdf-syntax-ns#"
   xmlns:svg="http://www.w3.org/2000/svg"
   xmlns="http://www.w3.org/2000/svg"
   xmlns:sodipodi="http://sodipodi.sourceforge.net/DTD/sodipodi-0.dtd"
   xmlns:inkscape="http://www.inkscape.org/namespaces/inkscape"
   version="1.1"
   id="Layer_1"
   x="0px"
   y="0px"
   width="507.44183"
   height="445.34814"
   viewBox="0 0 507.44183 445.34814"
   xml:space="preserve"
   sodipodi:docname="155.svg"
   inkscape:version="0.92.5 (2060ec1f9f, 2020-04-08)"><metadata
   id="metadata518"><rdf:RDF><cc:Work
       rdf:about=""><dc:format>image/svg+xml</dc:format><dc:type
         rdf:resource="http://purl.org/dc/dcmitype/StillImage" /></cc:Work></rdf:RDF></metadata><defs
   id="defs516" /><sodipodi:namedview
   pagecolor="#ffffff"
   bordercolor="#666666"
   borderopacity="1"
   objecttolerance="10"
   gridtolerance="10"
   guidetolerance="10"
   inkscape:pageopacity="0"
   inkscape:pageshadow="2"
   inkscape:window-width="640"
   inkscape:window-height="480"
   id="namedview514"
   showgrid="false"
   inkscape:zoom="0.28028504"
   inkscape:cx="267.62807"
   inkscape:cy="269.224"
   inkscape:window-x="0"
   inkscape:window-y="0"
   inkscape:window-maximized="0"
   inkscape:current-layer="Layer_1" />
<g
   id="g511"
   transform="translate(-29.87193,-244.87584)">
	<path
   style="clip-rule:evenodd;fill:#ffd200;fill-rule:evenodd"
   d="M 50.608,690.224 C 33.4,689.36 25.264,672.584 32.536,658.832 L 265.6,255.2 c 9.432,-14.616 27.504,-12.888 36,0 l 233.064,403.632 c 6.84,12.456 0,28.8 -15.48,30.96 z"
   id="path503"
   inkscape:connector-curvature="0" />
	<path
   style="clip-rule:evenodd;fill:#ef3e42;fill-rule:evenodd"
   d="m 50.176,684.176 c -12.024,-0.864 -18,-13.32 -12.456,-22.392 l 232.992,-403.56 c 5.616,-9.504 19.368,-10.368 25.848,0 l 232.92,403.56 c 5.616,9.072 -1.296,22.392 -12.888,22.392 z"
   id="path505"
   inkscape:connector-curvature="0" />
	<polygon
   style="clip-rule:evenodd;fill:#ffd200;fill-rule:evenodd"
   points="474.904,645.08 91.864,645.08 283.672,313.664 "
   id="polygon507" />
	<path
   style="clip-rule:evenodd;fill-rule:evenodd;stroke:#000000;stroke-width:2.39359999;stroke-miterlimit:10"
   d="m 262.576,548.744 -1.728,9.432 -5.184,11.664 -2.088,3.816 -1.728,4.32 -2.16,2.592 -1.296,3.024 -2.592,7.272 -3.456,7.776 -2.952,5.976 -3.024,5.184 -3.888,4.32 -3.456,3.384 -2.592,2.16 -2.088,3.024 1.224,0.864 h 5.184 l 6.912,-0.432 2.52,-1.296 2.16,-1.728 h 1.728 l 0.864,-3.024 -0.432,-4.248 0.864,-3.456 2.16,-5.616 1.296,-2.52 3.024,-6.048 3.384,-5.184 4.32,-5.112 c 3.024,-2.16 4.752,-6.048 5.184,-6.912 l 4.32,-5.616 3.816,-5.544 2.592,-5.616 2.16,-5.112 1.296,-3.456 c 0,2.16 0,3.888 -0.432,5.112 v 4.752 l -2.16,10.728 -0.864,3.888 -0.432,2.16 v 2.16 1.296 l 0.432,1.296 1.296,2.16 1.728,2.088 1.728,1.296 20.952,17.64 3.456,2.592 3.456,1.728 2.592,1.296 3.024,0.432 2.952,1.296 2.592,0.864 4.752,0.432 2.16,-0.864 1.728,-0.432 -3.456,-4.32 -1.728,-2.592 -1.728,-1.728 -1.296,-1.728 -1.296,-0.864 h -1.296 -2.592 l 0.864,-1.296 0.432,-0.792 h -1.656 l -4.32,0.792 -2.592,-0.432 -1.728,-0.36 -2.16,-1.296 -3.456,-2.16 -3.312,-2.592 -3.024,-3.024 -2.16,-2.16 -3.024,-3.456 -0.864,-1.656 -0.432,-2.16 0.432,-2.16 0.432,-2.592 1.296,-2.592 7.776,-16.776 1.656,-4.68 v -3.456 l 0.792,-1.728 0.864,-0.864 1.728,-0.432 h 1.728 1.728 2.592 4.752 3.384 2.592 l 3.024,-0.432 h 2.592 l 3.456,-0.864 3.816,-1.296 3.888,-0.864 3.456,-0.864 2.16,-0.432 h 2.16 l 1.224,3.024 2.592,4.32 1.296,1.728 2.592,4.752 1.728,1.656 2.592,3.456 3.024,3.456 1.224,1.728 1.728,2.592 0.864,1.296 v 2.088 0.864 l -0.864,2.16 -0.864,0.864 -1.296,2.592 -1.656,3.024 -1.728,3.888 -3.024,5.112 -3.456,6.48 -2.16,3.456 -6.84,10.296 -3.456,3.456 -2.592,2.52 -2.592,2.592 -0.432,0.864 -0.432,0.864 v 0.864 l 1.296,0.432 h 1.728 l 5.184,0.432 4.32,-0.432 2.52,-1.296 1.728,-2.16 1.296,0.432 v 0.864 l 0.432,-1.296 0.432,-0.864 -0.432,-3.816 0.432,-3.888 0.432,-1.728 2.16,-3.888 3.024,-5.544 1.728,-3.456 1.656,-2.592 3.024,-4.752 5.616,-7.272 6.048,-7.776 2.088,-2.52 1.728,-2.16 0.864,-2.16 0.432,-1.296 -0.432,-1.296 -0.864,-1.296 -1.296,-1.728 -1.296,-1.728 -0.432,-1.296 7.344,2.592 3.888,1.296 3.816,1.296 3.888,0.864 3.888,3.024 0.864,0.432 2.592,5.976 4.248,11.664 0.864,2.52 2.592,6.48 0.432,2.592 1.296,2.592 1.296,3.384 0.432,1.728 1.296,2.16 2.16,2.592 2.592,2.16 2.952,1.296 2.16,0.864 6.048,1.728 h 2.16 2.088 l 1.296,-0.432 0.864,-0.432 -0.432,-1.296 -0.864,-1.728 -1.224,-1.728 -1.728,-2.16 -2.16,-3.024 h -1.296 -1.296 v -0.432 -0.432 l -1.728,-1.728 h -2.16 -1.728 l -1.296,-0.432 -0.864,-0.792 -1.656,-3.024 -4.752,-10.8 -2.16,-5.112 -7.272,-26.64 -1.296,-3.888 -1.296,-0.864 -6.048,-3.456 -3.888,-1.728 -2.52,-2.592 -2.16,-2.52 -1.296,-2.592 -0.432,-3.456 -0.432,-3.888 -0.864,-3.456 v -2.952 l -0.432,-2.16 2.16,1.296 h 1.296 l 1.296,-1.296 v -2.16 l -0.432,-3.888 -2.16,-4.68 -2.592,-5.184 -0.864,-1.728 -2.16,-2.592 -2.592,-2.16 -3.816,-2.16 -3.456,-1.656 -4.752,-1.728 -5.544,-1.296 h -3.888 l -12.888,-1.296 -12.096,-0.864 -9.432,-0.864 -4.752,-0.432 -2.952,-1.296 -3.024,-1.296 -3.024,-2.16 -4.752,-2.952 -2.16,-0.864 -4.176,-2.16 -3.888,-0.864 -4.32,-0.864 h -3.816 -3.456 l -7.776,3.024 -5.544,2.16 -17.64,0.432 3.024,-3.456 0.864,-1.728 h -2.592 l -3.456,0.432 -3.888,1.296 -2.952,1.296 -1.728,0.864 -3.456,0.432 -1.296,-0.864 -0.432,-0.864 0.432,-0.864 0.432,-0.864 1.296,-0.864 3.024,-1.296 3.816,-1.296 6.048,-1.296 6.48,-1.728 2.52,-0.432 6.048,-2.592 3.024,-2.088 3.456,-2.592 3.384,-3.456 3.456,-4.32 3.024,-4.68 3.024,-5.184 1.728,-3.024 0.432,-1.296 v -0.864 h -0.432 -0.864 l -1.296,0.432 -1.296,1.296 -1.728,1.296 -2.16,1.296 -1.728,1.296 h -1.728 V 446 445.136 l 1.728,-1.728 0.432,-1.296 v -0.864 l -0.864,-0.432 -1.296,0.864 -1.728,0.864 -1.728,1.728 -1.656,1.296 -2.16,2.16 -1.728,1.296 -1.296,0.432 h -1.728 l -0.432,-0.864 v -1.728 l 0.432,-0.864 0.432,-1.296 v -0.864 l 0.432,-0.864 -0.432,-0.432 h -1.296 l -0.864,0.432 -2.16,2.16 -2.16,3.456 -1.656,2.592 -2.16,2.952 -3.024,3.456 h -0.432 l -0.864,0.432 -0.432,-0.432 -0.432,-0.864 V 455 l 0.432,-1.728 0.864,-2.52 1.296,-4.752 0.432,-2.16 0.432,-0.864 v -0.864 l -0.432,-0.432 h -0.432 l -0.864,0.864 -1.728,1.296 -11.592,20.232 -3.456,3.456 -0.864,0.792 -1.728,0.864 -1.728,0.432 h -2.088 l -2.592,-0.864 -4.752,-2.952 -3.456,-2.592 -1.296,-0.864 -1.296,-0.432 h -0.864 v 0.432 0.432 l 0.432,1.296 0.432,1.296 0.864,1.296 -0.432,0.864 h -0.864 l -4.68,-1.728 -1.296,-0.864 -0.864,-0.432 h -0.864 l -1.296,-0.432 -0.432,0.864 0.432,0.432 0.432,0.864 0.864,1.656 1.296,1.296 v 1.296 l -1.296,0.432 -2.592,-1.296 -1.296,-0.432 -1.296,-0.864 h -1.296 l -0.432,0.432 -0.432,0.432 0.432,0.864 0.864,1.296 0.864,1.296 4.32,3.024 3.024,1.728 3.024,0.864 3.816,0.864 3.456,0.432 h 3.888 l 2.16,0.864 0.864,0.432 v 0.864 l -0.864,0.864 -3.024,1.656 -7.776,5.184 -12.024,6.48 -2.16,1.296 -2.088,1.224 -1.728,2.16 -1.296,2.16 -0.864,3.456 v 2.16 l -0.432,3.024 0.432,1.656 0.432,1.728 0.432,1.296 3.024,0.432 3.384,-1.296 2.592,0.864 h 1.296 l 1.728,-0.432 6.48,-3.816 3.384,0.432 4.752,1.224 2.592,4.752 2.592,4.752 0.864,1.728 1.224,1.296 2.16,2.088 1.728,1.296 h 1.728 l 0.432,-0.864 0.432,-0.864 -0.432,-3.384 0.432,-4.32 v -2.592 l 20.664,9.072 1.296,0.792 1.224,2.16 0.432,1.728 0.864,2.592 0.432,5.616 0.432,1.728 1.728,2.952 3.888,5.184 z"
   id="path509"
   inkscape:connector-curvature="0" />
</g>
</svg>