<?xml version="1.0" encoding="iso-8859-1"?>
<!-- Generator: Adobe Illustrator 15.1.0, SVG Export Plug-In . SVG Version: 6.00 Build 0)  -->
<!DOCTYPE svg PUBLIC "-//W3C//DTD SVG 1.1//EN" "http://www.w3.org/Graphics/SVG/1.1/DTD/svg11.dtd">
<svg version="1.1" id="Layer_1" xmlns="http://www.w3.org/2000/svg" xmlns:xlink="http://www.w3.org/1999/xlink" x="0px" y="0px"
	 width="595px" height="842px" viewBox="0 0 595 842" style="enable-background:new 0 0 595 842;" xml:space="preserve">
<g>
	<path style="fill-rule:evenodd;clip-rule:evenodd;fill:#FFD200;" d="M50.608,690.224c-17.208-0.864-25.344-17.64-18.072-31.392
		L265.6,255.2c9.432-14.616,27.504-12.888,36,0l233.064,403.632c6.84,12.456,0,28.8-15.48,30.96L50.608,690.224z"/>
	<path style="fill-rule:evenodd;clip-rule:evenodd;fill:#EF3E42;" d="M50.176,684.176c-12.024-0.864-18-13.32-12.456-22.392
		l232.992-403.56c5.616-9.504,19.368-10.368,25.848,0l232.92,403.56c5.616,9.072-1.296,22.392-12.888,22.392H50.176z"/>
	<polygon style="fill-rule:evenodd;clip-rule:evenodd;fill:#FFD200;" points="91.864,645.08 283.672,313.664 474.904,645.08 	"/>
	<path style="fill-rule:evenodd;clip-rule:evenodd;stroke:#000000;stroke-width:2.3936;stroke-miterlimit:10;" d="M262.576,548.744
		l-1.728,9.432l-5.184,11.664l-2.088,3.816l-1.728,4.32l-2.16,2.592l-1.296,3.024l-2.592,7.272l-3.456,7.776l-2.952,5.976
		l-3.024,5.184l-3.888,4.32l-3.456,3.384l-2.592,2.16l-2.088,3.024l1.224,0.864h5.184l6.912-0.432l2.52-1.296l2.16-1.728h1.728
		l0.864-3.024l-0.432-4.248l0.864-3.456l2.16-5.616l1.296-2.52l3.024-6.048l3.384-5.184l4.32-5.112
		c3.024-2.16,4.752-6.048,5.184-6.912l4.32-5.616l3.816-5.544l2.592-5.616l2.16-5.112l1.296-3.456c0,2.16,0,3.888-0.432,5.112v4.752
		l-2.16,10.728l-0.864,3.888l-0.432,2.16v2.16v1.296l0.432,1.296l1.296,2.16l1.728,2.088l1.728,1.296l20.952,17.64l3.456,2.592
		l3.456,1.728l2.592,1.296l3.024,0.432l2.952,1.296l2.592,0.864l4.752,0.432l2.16-0.864l1.728-0.432l-3.456-4.32l-1.728-2.592
		l-1.728-1.728l-1.296-1.728l-1.296-0.864h-1.296h-2.592l0.864-1.296l0.432-0.792h-1.656l-4.32,0.792l-2.592-0.432l-1.728-0.36
		l-2.16-1.296l-3.456-2.16l-3.312-2.592l-3.024-3.024l-2.16-2.16l-3.024-3.456l-0.864-1.656l-0.432-2.16l0.432-2.16l0.432-2.592
		l1.296-2.592l7.776-16.776l1.656-4.68v-3.456l0.792-1.728l0.864-0.864l1.728-0.432h1.728h1.728h2.592h4.752h3.384h2.592
		l3.024-0.432h2.592l3.456-0.864l3.816-1.296l3.888-0.864l3.456-0.864l2.16-0.432h2.16l1.224,3.024l2.592,4.32l1.296,1.728
		l2.592,4.752l1.728,1.656l2.592,3.456l3.024,3.456l1.224,1.728l1.728,2.592l0.864,1.296v2.088v0.864l-0.864,2.16l-0.864,0.864
		l-1.296,2.592l-1.656,3.024l-1.728,3.888l-3.024,5.112l-3.456,6.48l-2.16,3.456l-6.84,10.296l-3.456,3.456l-2.592,2.52
		l-2.592,2.592l-0.432,0.864l-0.432,0.864v0.864l1.296,0.432h1.728l5.184,0.432l4.32-0.432l2.52-1.296l1.728-2.16l1.296,0.432v0.864
		l0.432-1.296l0.432-0.864l-0.432-3.816l0.432-3.888l0.432-1.728l2.16-3.888l3.024-5.544l1.728-3.456l1.656-2.592l3.024-4.752
		l5.616-7.272l6.048-7.776l2.088-2.52l1.728-2.16l0.864-2.16l0.432-1.296l-0.432-1.296l-0.864-1.296l-1.296-1.728l-1.296-1.728
		l-0.432-1.296l7.344,2.592l3.888,1.296l3.816,1.296l3.888,0.864l3.888,3.024l0.864,0.432l2.592,5.976l4.248,11.664l0.864,2.52
		l2.592,6.48l0.432,2.592l1.296,2.592l1.296,3.384l0.432,1.728l1.296,2.16l2.16,2.592l2.592,2.16l2.952,1.296l2.16,0.864
		l6.048,1.728h2.16h2.088l1.296-0.432l0.864-0.432l-0.432-1.296l-0.864-1.728l-1.224-1.728l-1.728-2.16l-2.16-3.024H427.6h-1.296
		v-0.432v-0.432l-1.728-1.728h-2.16h-1.728l-1.296-0.432l-0.864-0.792l-1.656-3.024l-4.752-10.8l-2.16-5.112l-7.272-26.64
		l-1.296-3.888l-1.296-0.864l-6.048-3.456l-3.888-1.728l-2.52-2.592l-2.16-2.52l-1.296-2.592l-0.432-3.456l-0.432-3.888
		l-0.864-3.456v-2.952l-0.432-2.16l2.16,1.296h1.296l1.296-1.296v-2.16l-0.432-3.888l-2.16-4.68l-2.592-5.184l-0.864-1.728
		l-2.16-2.592l-2.592-2.16l-3.816-2.16l-3.456-1.656l-4.752-1.728l-5.544-1.296h-3.888l-12.888-1.296l-12.096-0.864l-9.432-0.864
		l-4.752-0.432l-2.952-1.296l-3.024-1.296l-3.024-2.16l-4.752-2.952l-2.16-0.864l-4.176-2.16l-3.888-0.864l-4.32-0.864h-3.816
		h-3.456l-7.776,3.024l-5.544,2.16l-17.64,0.432l3.024-3.456l0.864-1.728h-2.592l-3.456,0.432l-3.888,1.296l-2.952,1.296
		l-1.728,0.864l-3.456,0.432l-1.296-0.864l-0.432-0.864l0.432-0.864l0.432-0.864l1.296-0.864l3.024-1.296l3.816-1.296l6.048-1.296
		l6.48-1.728l2.52-0.432l6.048-2.592l3.024-2.088l3.456-2.592l3.384-3.456l3.456-4.32l3.024-4.68l3.024-5.184l1.728-3.024
		l0.432-1.296v-0.864h-0.432h-0.864l-1.296,0.432l-1.296,1.296l-1.728,1.296l-2.16,1.296l-1.728,1.296h-1.728V446v-0.864
		l1.728-1.728l0.432-1.296v-0.864l-0.864-0.432l-1.296,0.864l-1.728,0.864l-1.728,1.728l-1.656,1.296l-2.16,2.16l-1.728,1.296
		l-1.296,0.432h-1.728l-0.432-0.864v-1.728L261.28,446l0.432-1.296v-0.864l0.432-0.864l-0.432-0.432h-1.296l-0.864,0.432l-2.16,2.16
		l-2.16,3.456l-1.656,2.592l-2.16,2.952l-3.024,3.456h-0.432l-0.864,0.432l-0.432-0.432l-0.432-0.864V455l0.432-1.728l0.864-2.52
		l1.296-4.752l0.432-2.16l0.432-0.864v-0.864l-0.432-0.432h-0.432l-0.864,0.864l-1.728,1.296l-11.592,20.232l-3.456,3.456
		l-0.864,0.792l-1.728,0.864l-1.728,0.432h-2.088l-2.592-0.864l-4.752-2.952l-3.456-2.592l-1.296-0.864l-1.296-0.432h-0.864v0.432
		v0.432l0.432,1.296l0.432,1.296l0.864,1.296l-0.432,0.864h-0.864l-4.68-1.728l-1.296-0.864l-0.864-0.432h-0.864l-1.296-0.432
		l-0.432,0.864l0.432,0.432l0.432,0.864l0.864,1.656l1.296,1.296v1.296l-1.296,0.432l-2.592-1.296l-1.296-0.432l-1.296-0.864h-1.296
		l-0.432,0.432l-0.432,0.432l0.432,0.864l0.864,1.296l0.864,1.296l4.32,3.024l3.024,1.728l3.024,0.864l3.816,0.864l3.456,0.432
		h3.888l2.16,0.864l0.864,0.432v0.864l-0.864,0.864l-3.024,1.656l-7.776,5.184l-12.024,6.48l-2.16,1.296l-2.088,1.224l-1.728,2.16
		l-1.296,2.16l-0.864,3.456v2.16l-0.432,3.024l0.432,1.656l0.432,1.728l0.432,1.296l3.024,0.432l3.384-1.296l2.592,0.864h1.296
		l1.728-0.432l6.48-3.816l3.384,0.432l4.752,1.224l2.592,4.752l2.592,4.752l0.864,1.728l1.224,1.296l2.16,2.088l1.728,1.296h1.728
		l0.432-0.864l0.432-0.864l-0.432-3.384l0.432-4.32v-2.592l20.664,9.072l1.296,0.792l1.224,2.16l0.432,1.728l0.864,2.592
		l0.432,5.616l0.432,1.728l1.728,2.952l3.888,5.184L262.576,548.744z"/>
</g>
</svg>
