<?xml version="1.0" encoding="UTF-8" standalone="no"?>
<!-- Generator: Adobe Illustrator 15.1.0, SVG Export Plug-In . SVG Version: 6.00 Build 0)  -->

<svg
   xmlns:dc="http://purl.org/dc/elements/1.1/"
   xmlns:cc="http://creativecommons.org/ns#"
   xmlns:rdf="http://www.w3.org/1999/02/22-rdf-syntax-ns#"
   xmlns:svg="http://www.w3.org/2000/svg"
   xmlns="http://www.w3.org/2000/svg"
   xmlns:sodipodi="http://sodipodi.sourceforge.net/DTD/sodipodi-0.dtd"
   xmlns:inkscape="http://www.inkscape.org/namespaces/inkscape"
   version="1.1"
   id="Layer_1"
   x="0px"
   y="0px"
   width="508.0499"
   height="446.06815"
   viewBox="0 0 508.0499 446.06815"
   xml:space="preserve"
   sodipodi:docname="156.svg"
   inkscape:version="0.92.5 (2060ec1f9f, 2020-04-08)"><metadata
   id="metadata535"><rdf:RDF><cc:Work
       rdf:about=""><dc:format>image/svg+xml</dc:format><dc:type
         rdf:resource="http://purl.org/dc/dcmitype/StillImage" /></cc:Work></rdf:RDF></metadata><defs
   id="defs533" /><sodipodi:namedview
   pagecolor="#ffffff"
   bordercolor="#666666"
   borderopacity="1"
   objecttolerance="10"
   gridtolerance="10"
   guidetolerance="10"
   inkscape:pageopacity="0"
   inkscape:pageshadow="2"
   inkscape:window-width="640"
   inkscape:window-height="480"
   id="namedview531"
   showgrid="false"
   inkscape:zoom="0.28028504"
   inkscape:cx="274.14146"
   inkscape:cy="265.84"
   inkscape:window-x="0"
   inkscape:window-y="0"
   inkscape:window-maximized="0"
   inkscape:current-layer="Layer_1" />
<g
   id="g528"
   transform="translate(-23.358543,-240.77184)">
	<path
   style="clip-rule:evenodd;fill:#ffd200;fill-rule:evenodd"
   d="M 43.984,686.84 C 26.704,685.976 19,669.128 25.84,655.376 l 233.424,-404.28 c 9.432,-14.616 28.008,-12.888 36.144,0 l 233.352,404.28 c 6.84,12.456 0,28.872 -15.552,31.032 z"
   id="path520"
   inkscape:connector-curvature="0" />
	<path
   style="clip-rule:evenodd;fill:#ef3e42;fill-rule:evenodd"
   d="M 43.552,680.792 C 31.456,679.928 25.84,667.4 31.024,658.4 L 264.448,254.12 c 5.544,-9.432 19.8,-10.296 25.776,0 L 523.576,658.4 c 5.616,9 -1.296,22.392 -12.888,22.392 z"
   id="path522"
   inkscape:connector-curvature="0" />
	<polygon
   style="clip-rule:evenodd;fill:#ffd200;fill-rule:evenodd"
   points="468.856,641.624 85.744,641.624 277.336,309.704 "
   id="polygon524" />
	<polygon
   style="clip-rule:evenodd;fill-rule:evenodd"
   points="322.048,564.08 327.664,563.648 328.96,564.08 330.256,566.24 337.528,582.152 338.392,585.608 337.96,587.336 337.528,589.928 335.8,592.52 322.048,608.432 318.16,611.024 315.136,612.32 312.544,613.616 310.456,614.912 309.16,615.776 310.456,616.64 310.888,616.64 310.888,617.072 310.456,617.936 311.752,617.936 313.408,617.936 318.592,617.936 320.32,617.936 322.048,617.504 322.912,616.64 323.776,615.776 325.072,614.048 325.936,614.912 326.8,614.48 327.232,614.048 327.664,612.752 327.664,611.456 328.528,608.864 329.824,606.272 332.416,603.248 334.504,601.088 336.664,598.928 340.12,595.544 343.576,592.52 346.6,589.928 347.896,589.064 348.76,588.632 349.624,587.336 349.624,586.04 349.624,584.744 348.76,583.016 347.464,580.424 346.6,577.4 345.736,574.448 345.736,573.152 345.736,570.128 346.6,565.376 351.784,566.672 355.672,567.968 360.784,570.128 362.08,570.56 369.856,571.856 375.04,572.288 379.288,574.016 382.744,576.968 384.904,581.72 387.928,589.496 391.384,596.84 393.976,601.952 396.568,605.408 398.728,606.704 401.248,608 403.84,608.432 404.704,608.432 403.84,604.112 402.976,602.384 402.112,601.088 400.024,600.224 398.728,598.928 398.296,598.568 398.296,598.568 400.384,598.568 401.248,597.704 401.248,597.272 400.816,596.408 400.024,595.976 398.296,595.544 396.136,594.68 394.84,593.384 393.544,591.224 392.248,588.632 391.384,586.472 390.52,583.88 389.656,580.856 388.792,577.832 388.36,574.448 388.36,571.856 388.36,570.56 388.36,569.696 387.928,568.4 387.064,567.536 385.768,566.672 384.04,566.24 381.88,565.376 380.152,564.944 377.632,564.512 375.04,563.216 372.448,561.92 370.72,559.76 368.56,555.872 368.128,553.352 368.128,550.76 368.128,546.008 367.696,539.96 367.696,536.936 367.696,534.776 366.832,532.616 366.4,530.096 368.128,531.824 370.72,533.048 372.016,533.912 372.016,534.776 372.88,534.776 373.744,533.912 372.88,532.616 372.88,531.392 372.016,529.232 371.152,527.936 369.424,526.64 367.696,525.776 362.08,524.048 353.944,521.456 351.352,520.592 348.76,520.16 346.168,520.16 343.576,520.16 337.528,520.592 323.776,521.888 314.272,523.184 303.976,524.48 291.52,524.048 283.384,523.616 275.176,524.912 266.176,524.48 263.584,523.616 248.464,514.976 244.648,513.248 245.512,512.384 246.736,511.088 247.6,510.296 248.032,509.432 247.6,509 245.512,508.568 243.784,509.432 241.192,509.864 238.6,508.568 236.872,508.136 240.76,506.84 247.168,504.248 252.784,502.952 257.536,502.088 260.128,501.656 264.88,499.496 267.04,497.336 270.856,493.448 271.288,493.016 271.72,491.72 271.72,491.288 270.856,490.856 269.992,491.288 268.696,492.152 267.04,493.448 265.312,494.744 261.856,496.904 260.56,497.768 258.832,498.632 257.968,498.632 257.536,498.632 257.536,497.768 257.536,496.904 258.832,495.608 260.992,493.016 262.72,490.856 264.016,488.336 264.448,485.312 264.448,481.856 264.016,477.968 263.584,473.648 263.584,471.056 264.016,468.896 265.312,466.304 267.472,462.488 267.832,457.304 267.832,454.28 267.472,453.416 266.608,452.552 265.744,452.552 265.312,453.416 265.312,456.872 264.448,460.76 262.72,464.216 261.856,465.08 260.992,465.08 259.264,462.92 258.4,461.624 254.944,457.736 253.216,454.712 252.784,452.552 252.784,450.824 252.352,449.096 251.92,447.8 251.488,446.936 250.624,446.504 249.76,446.936 248.896,447.8 248.896,449.096 249.328,450.392 249.328,451.256 249.328,452.12 247.6,451.688 246.304,450.824 245.08,449.96 243.784,449.528 242.488,449.096 241.192,449.096 240.76,449.96 240.76,450.392 241.624,451.688 242.92,452.984 244.216,453.848 245.512,454.712 248.896,457.304 251.92,459.896 254.944,462.92 259.696,468.896 260.128,469.76 260.992,471.92 260.56,472.784 258.832,472.784 257.104,471.92 254.512,470.192 251.92,470.624 251.488,471.056 251.92,472.352 252.784,473.216 254.08,474.512 257.536,475.376 259.264,477.104 260.56,478.4 261.424,480.56 261.856,482.72 261.424,487.472 260.56,489.56 258.832,490.856 257.536,491.72 254.512,491.72 251.92,489.992 249.328,489.128 248.032,489.128 246.304,489.56 245.872,489.992 246.736,491.288 249.328,492.584 251.056,494.312 251.488,495.176 251.488,496.472 250.624,497.768 249.328,499.496 247.168,500.792 240.76,502.952 237.304,503.816 234.28,504.248 233.416,504.248 237.736,496.904 241.192,491.72 245.512,486.608 248.032,483.584 248.896,480.992 249.328,477.968 248.896,477.536 248.464,477.536 247.6,477.968 246.736,478.832 239.464,488.696 238.6,489.992 237.736,490.424 237.304,490.424 236.872,489.56 236.44,488.336 236.008,486.176 234.28,480.992 231.688,475.376 231.256,474.944 230.824,473.648 231.256,471.92 232.12,469.76 234.712,465.512 235.144,462.92 234.712,460.76 234.28,460.328 233.848,460.328 232.984,461.192 232.12,462.488 231.688,464.648 230.824,466.304 229.528,468.896 229.096,469.328 228.232,469.328 227.368,468.896 225.208,465.512 222.688,459.032 218.8,452.12 216.64,449.528 214.048,447.8 213.184,447.368 211.888,447.368 211.024,447.368 211.456,449.096 213.616,450.824 214.048,451.256 215.776,452.984 217.504,454.712 219.232,457.736 220.096,459.896 220.528,461.624 220.528,462.056 220.096,462.056 219.232,461.624 216.64,460.328 212.752,459.032 211.024,459.032 210.16,459.464 209.728,459.896 209.728,460.76 210.592,461.624 211.456,462.488 214.048,463.784 218.8,466.304 222.688,469.328 225.64,472.352 227.8,475.376 229.96,479.696 230.824,481.424 232.12,484.88 232.552,486.608 231.256,486.608 229.96,486.176 228.232,485.312 226.504,484.016 223.912,482.288 222.256,481.424 220.96,480.992 219.664,481.424 219.664,482.72 220.96,484.016 223.912,486.176 226.504,487.904 229.96,489.56 232.552,491.288 234.28,494.312 234.28,496.04 233.848,497.768 232.552,499.064 231.688,500.792 230.392,501.224 228.664,501.224 226.936,500.36 223.552,499.064 221.824,499.064 221.392,499.928 221.392,500.792 221.824,501.656 223.12,502.952 224.776,503.816 222.256,503.384 220.528,502.952 219.664,502.952 217.936,502.952 217.072,503.384 216.64,504.248 216.64,505.112 217.072,506.408 216.64,507.272 215.776,507.704 214.912,509 214.912,509.864 215.344,510.296 216.208,510.656 218.368,511.088 220.096,510.296 222.256,509.432 223.552,509 226.072,508.136 229.528,508.136 226.072,509.864 223.12,511.952 220.528,514.112 218.8,515.84 212.752,518.432 208,520.592 205.408,522.32 201.952,525.344 201.16,527.072 201.16,528.8 201.52,530.528 202.384,531.824 203.248,532.256 204.976,532.256 205.84,532.256 206.704,533.48 208,533.912 209.728,533.912 211.888,533.912 216.208,533.048 225.208,533.48 229.096,533.48 230.392,533.48 231.256,534.776 232.12,536.072 233.416,539.096 234.28,540.824 234.28,542.552 234.28,544.28 234.28,545.144 234.28,545.576 235.144,545.576 235.144,546.44 235.144,547.736 235.144,548.168 236.008,548.6 236.008,549.896 236.008,551.192 236.008,552.056 236.44,552.488 236.872,552.488 236.872,553.784 236.872,554.576 236.872,555.008 236.872,555.872 236.872,556.304 237.304,556.304 238.168,557.6 238.168,559.328 238.168,559.76 238.6,560.192 239.464,559.76 239.896,560.192 239.896,561.056 239.896,561.488 239.896,561.92 240.76,561.488 240.76,563.216 240.76,563.216 241.192,563.648 241.624,563.216 242.056,564.08 242.056,564.944 242.488,564.944 243.352,564.512 244.216,565.376 244.216,565.808 244.648,566.24 245.872,566.672 247.6,566.672 248.896,567.104 250.192,567.968 251.056,568.832 251.056,570.56 250.624,571.424 249.328,573.152 245.08,578.264 242.056,581.72 239.896,584.312 235.144,588.632 233.848,589.928 232.552,592.088 229.96,597.272 226.504,601.088 222.256,606.704 220.96,607.568 217.936,609.728 214.48,611.024 210.592,612.752 208,614.048 206.704,615.344 208.432,615.344 208.864,615.344 208.864,616.208 211.888,616.64 217.936,616.64 221.392,615.776 222.688,615.344 223.12,613.184 223.912,614.048 225.64,614.48 226.072,612.32 227.368,609.728 229.096,606.272 230.392,604.112 235.576,598.568 242.92,592.088 245.872,589.064 254.512,582.584 256.672,580.424 262.72,574.88 264.016,571.424 267.472,571.424 264.88,576.176 259.264,583.448 257.536,586.04 256.672,587.768 256.672,590.36 257.536,592.088 258.832,592.952 263.152,594.68 289.432,601.52 291.52,601.52 293.68,601.088 298,598.568 300.52,596.408 295.84,594.68 293.68,594.248 291.52,594.248 290.224,594.68 289,595.544 289,593.384 288.568,592.952 287.704,592.952 286.408,593.384 285.112,594.248 283.816,594.68 281.224,594.68 278.2,594.68 274.744,593.384 264.448,588.632 267.832,586.472 269.992,584.312 277.768,576.968 283.816,570.128 290.224,570.128 "
   id="polygon526" />
</g>
</svg>