<?xml version="1.0" encoding="iso-8859-1"?>
<!-- Generator: Adobe Illustrator 15.1.0, SVG Export Plug-In . SVG Version: 6.00 Build 0)  -->
<!DOCTYPE svg PUBLIC "-//W3C//DTD SVG 1.1//EN" "http://www.w3.org/Graphics/SVG/1.1/DTD/svg11.dtd">
<svg version="1.1" id="Layer_1" xmlns="http://www.w3.org/2000/svg" xmlns:xlink="http://www.w3.org/1999/xlink" x="0px" y="0px"
	 width="595px" height="842px" viewBox="0 0 595 842" style="enable-background:new 0 0 595 842;" xml:space="preserve">
<g>
	<path style="fill-rule:evenodd;clip-rule:evenodd;fill:#FFD200;" d="M43.624,683.024c-17.28-0.864-25.488-17.784-18.144-31.608
		L259.624,245.84c9.072-14.688,27.648-12.96,36.288,0l234.072,405.576c6.912,12.528,0,29.016-15.552,31.176L43.624,683.024z"/>
	<path style="fill-rule:evenodd;clip-rule:evenodd;fill:#EF3E42;" d="M43.192,676.904c-12.096-0.864-18.144-13.392-12.528-22.464
		l233.712-405.576c5.616-9.504,19.872-10.368,26.352,0L524.8,654.44c5.616,9.072-1.296,22.464-13.392,22.464H43.192z"/>
	<polygon style="fill-rule:evenodd;clip-rule:evenodd;fill:#FFD200;" points="85.096,637.592 277.768,304.592 469.936,637.592 	"/>
	<polygon style="fill-rule:evenodd;clip-rule:evenodd;" points="186.616,476.888 216.856,447.08 278.2,508.856 339.904,447.08 
		369.712,476.888 307.936,538.664 369.712,600.44 339.904,630.248 278.2,568.472 216.856,630.248 186.616,600.44 248.824,538.664 	
		"/>
</g>
</svg>
