<?xml version="1.0" encoding="UTF-8" standalone="no"?>
<!-- Generator: Adobe Illustrator 15.1.0, SVG Export Plug-In . SVG Version: 6.00 Build 0)  -->

<svg
   xmlns:dc="http://purl.org/dc/elements/1.1/"
   xmlns:cc="http://creativecommons.org/ns#"
   xmlns:rdf="http://www.w3.org/1999/02/22-rdf-syntax-ns#"
   xmlns:svg="http://www.w3.org/2000/svg"
   xmlns="http://www.w3.org/2000/svg"
   xmlns:sodipodi="http://sodipodi.sourceforge.net/DTD/sodipodi-0.dtd"
   xmlns:inkscape="http://www.inkscape.org/namespaces/inkscape"
   version="1.1"
   id="Layer_1"
   x="0px"
   y="0px"
   width="509.87659"
   height="447.5621"
   viewBox="0 0 509.87659 447.5621"
   xml:space="preserve"
   sodipodi:docname="161.svg"
   inkscape:version="0.92.5 (2060ec1f9f, 2020-04-08)"><metadata
   id="metadata552"><rdf:RDF><cc:Work
       rdf:about=""><dc:format>image/svg+xml</dc:format><dc:type
         rdf:resource="http://purl.org/dc/dcmitype/StillImage" /></cc:Work></rdf:RDF></metadata><defs
   id="defs550" /><sodipodi:namedview
   pagecolor="#ffffff"
   bordercolor="#666666"
   borderopacity="1"
   objecttolerance="10"
   gridtolerance="10"
   guidetolerance="10"
   inkscape:pageopacity="0"
   inkscape:pageshadow="2"
   inkscape:window-width="640"
   inkscape:window-height="480"
   id="namedview548"
   showgrid="false"
   inkscape:zoom="0.28028504"
   inkscape:cx="274.71329"
   inkscape:cy="262.024"
   inkscape:window-x="0"
   inkscape:window-y="0"
   inkscape:window-maximized="0"
   inkscape:current-layer="Layer_1" />
<g
   id="g545"
   transform="translate(-22.786711,-235.46189)">
	<path
   style="clip-rule:evenodd;fill:#ffd200;fill-rule:evenodd"
   d="M 43.624,683.024 C 26.344,682.16 18.136,665.24 25.48,651.416 L 259.624,245.84 c 9.072,-14.688 27.648,-12.96 36.288,0 l 234.072,405.576 c 6.912,12.528 0,29.016 -15.552,31.176 z"
   id="path537"
   inkscape:connector-curvature="0" />
	<path
   style="clip-rule:evenodd;fill:#ef3e42;fill-rule:evenodd"
   d="M 43.192,676.904 C 31.096,676.04 25.048,663.512 30.664,654.44 L 264.376,248.864 c 5.616,-9.504 19.872,-10.368 26.352,0 L 524.8,654.44 c 5.616,9.072 -1.296,22.464 -13.392,22.464 z"
   id="path539"
   inkscape:connector-curvature="0" />
	<polygon
   style="clip-rule:evenodd;fill:#ffd200;fill-rule:evenodd"
   points="469.936,637.592 85.096,637.592 277.768,304.592 "
   id="polygon541" />
	<polygon
   style="clip-rule:evenodd;fill-rule:evenodd"
   points="278.2,508.856 339.904,447.08 369.712,476.888 307.936,538.664 369.712,600.44 339.904,630.248 278.2,568.472 216.856,630.248 186.616,600.44 248.824,538.664 186.616,476.888 216.856,447.08 "
   id="polygon543" />
</g>
</svg>