<?xml version="1.0" encoding="iso-8859-1"?>
<!-- Generator: Adobe Illustrator 15.1.0, SVG Export Plug-In . SVG Version: 6.00 Build 0)  -->
<!DOCTYPE svg PUBLIC "-//W3C//DTD SVG 1.1//EN" "http://www.w3.org/Graphics/SVG/1.1/DTD/svg11.dtd">
<svg version="1.1" id="Layer_1" xmlns="http://www.w3.org/2000/svg" xmlns:xlink="http://www.w3.org/1999/xlink" x="0px" y="0px"
	 width="595px" height="842px" viewBox="0 0 595 842" style="enable-background:new 0 0 595 842;" xml:space="preserve">
<g>
	<path style="fill-rule:evenodd;clip-rule:evenodd;fill:#FFD200;" d="M43.768,683.024c-17.28-0.864-24.984-17.712-18.144-31.464
		L259.12,247.136c9.504-14.616,27.576-12.888,36.216,0L528.688,651.56c6.912,12.456,0,28.872-15.48,31.032L43.768,683.024z"/>
	<path style="fill-rule:evenodd;clip-rule:evenodd;fill:#EF3E42;" d="M43.336,676.976c-12.096-0.864-17.712-13.392-12.528-22.392
		L264.304,250.16c5.616-9.504,19.8-10.368,25.848,0l233.352,404.424c5.616,9-1.296,22.392-12.888,22.392H43.336z"/>
	<polygon style="fill-rule:evenodd;clip-rule:evenodd;fill:#FFD200;" points="85.528,637.736 277.192,305.744 468.856,637.736 	"/>
	<polygon style="fill-rule:evenodd;clip-rule:evenodd;" points="241.048,617.072 241.048,524.048 192.808,524.048 192.808,493.88 
		241.048,493.88 241.048,434.048 276.76,397.904 312.904,434.048 312.904,493.88 360.712,493.88 360.712,524.048 312.904,524.048 
		312.904,617.072 	"/>
</g>
</svg>
