<?xml version="1.0" encoding="iso-8859-1"?>
<!-- Generator: Adobe Illustrator 15.1.0, SVG Export Plug-In . SVG Version: 6.00 Build 0)  -->
<!DOCTYPE svg PUBLIC "-//W3C//DTD SVG 1.1//EN" "http://www.w3.org/Graphics/SVG/1.1/DTD/svg11.dtd">
<svg version="1.1" id="Layer_1" xmlns="http://www.w3.org/2000/svg" xmlns:xlink="http://www.w3.org/1999/xlink" x="0px" y="0px"
	 width="595px" height="842px" viewBox="0 0 595 842" style="enable-background:new 0 0 595 842;" xml:space="preserve">
<g>
	<path style="fill-rule:evenodd;clip-rule:evenodd;fill:#FFD200;" d="M44.56,683.024c-17.712-0.864-25.416-17.712-18.576-31.536
		l233.928-405.144c9.504-14.688,28.008-12.96,36.216,0l233.856,405.144c6.912,12.528,0,28.944-15.552,31.104L44.56,683.024z"/>
	<path style="fill-rule:evenodd;clip-rule:evenodd;fill:#EF3E42;" d="M43.696,676.976c-11.664-0.864-17.712-13.392-12.528-22.464
		l233.928-405.144c5.616-9.504,19.872-10.368,25.848,0L524.8,654.512c6.048,9.072-1.296,22.464-12.96,22.464H43.696z"/>
	<polygon style="fill-rule:evenodd;clip-rule:evenodd;fill:#FFD200;" points="86.032,637.664 278.056,305.024 470.44,637.664 	"/>
	<polygon style="fill-rule:evenodd;clip-rule:evenodd;" points="193.456,524.192 193.456,494.384 241.336,494.384 241.336,433.976 
		277.624,398.264 313.768,433.976 313.768,617.36 241.336,617.36 241.336,524.192 	"/>
</g>
</svg>
