<?xml version="1.0" encoding="iso-8859-1"?>
<!-- Generator: Adobe Illustrator 15.1.0, SVG Export Plug-In . SVG Version: 6.00 Build 0)  -->
<!DOCTYPE svg PUBLIC "-//W3C//DTD SVG 1.1//EN" "http://www.w3.org/Graphics/SVG/1.1/DTD/svg11.dtd">
<svg version="1.1" xmlns="http://www.w3.org/2000/svg" xmlns:xlink="http://www.w3.org/1999/xlink" x="0px" y="0px" width="595px"
	 height="842px" viewBox="0 0 595 842" style="enable-background:new 0 0 595 842;" xml:space="preserve">
<g id="Kuvataso_1">
</g>
<g id="_x30_">
</g>
<g id="H4">
</g>
<g id="H5">
</g>
<g id="_x31_">
</g>
<g id="_x33_">
	<g>
		<path style="fill-rule:evenodd;clip-rule:evenodd;fill:#FFD200;" d="M51.76,626h504.432c14.472-2.232,20.232-11.016,16.92-26.496
			l-249.12-436.176c-9.504-8.208-18.504-18.936-38.376-0.864L36.496,595.4C34.192,609.296,36.352,621.968,51.76,626z"/>
		<path style="fill-rule:evenodd;clip-rule:evenodd;fill:#EF3E42;" d="M304.336,578.84h203.472L304.336,226.472v-66.528
			c5.184-0.216,10.44,2.376,14.256,7.488c82.656,143.136,164.448,288.216,247.104,431.28c4.824,12.816-1.512,20.232-10.8,20.664
			l-250.56,0.432V578.84z M100.936,578.84h203.4v40.968l-249.624,0.36c-8.64-3.24-12.672-7.92-12.888-14.544v-1.296
			c0.072-1.8,0.36-3.6,0.864-5.616l247.896-429.624c3.6-6.048,8.64-9,13.752-9.144v66.528l-0.216-0.36L100.936,578.84z"/>
		<path style="fill-rule:evenodd;clip-rule:evenodd;" d="M304.552,289.328c23.904,0.288,43.344,19.872,43.344,43.776
			c0,23.976-19.44,43.56-43.344,43.848v-11.016l0,0c17.928,0,32.544-14.616,32.544-32.544c0-17.856-14.616-32.472-32.544-32.472l0,0
			V289.328z M304.048,289.328c0.216,0,0.36,0,0.504,0v11.592c-17.784,0-32.4,14.616-32.4,32.472c0,17.928,14.616,32.544,32.4,32.544
			v11.016c-0.144,0-0.288,0-0.504,0c-24.048,0-43.704-19.728-43.704-43.848S280,289.328,304.048,289.328z"/>
		<path style="fill-rule:evenodd;clip-rule:evenodd;fill:#EF3E42;" d="M304.552,366.08c18.072,0,32.76-14.688,32.76-32.76
			c0-18.072-14.688-32.76-32.76-32.76c-18,0-32.688,14.688-32.688,32.76C271.864,351.392,286.552,366.08,304.552,366.08z"/>
		<path style="fill-rule:evenodd;clip-rule:evenodd;" d="M304.552,385.16c23.904,0.288,43.344,19.8,43.344,43.704
			c0,23.976-19.44,43.56-43.344,43.776v-10.944l0,0c17.928,0,32.544-14.616,32.544-32.544c0-17.856-14.616-32.4-32.544-32.4l0,0
			V385.16z M304.048,385.16c0.216,0,0.36,0,0.504,0v11.592c-17.784,0-32.4,14.544-32.4,32.4c0,17.928,14.616,32.544,32.4,32.544
			v10.944c-0.144,0-0.288,0.072-0.504,0.072c-24.048,0-43.704-19.728-43.704-43.848C260.344,404.816,280,385.16,304.048,385.16z"/>
		<path style="fill-rule:evenodd;clip-rule:evenodd;" d="M304.552,480.488c23.904,0.288,43.344,19.872,43.344,43.776
			c0,23.976-19.44,43.56-43.344,43.848v-11.016l0,0c17.928,0,32.544-14.616,32.544-32.544c0-17.928-14.616-32.472-32.544-32.472l0,0
			V480.488z M304.048,480.488c0.216,0,0.36,0,0.504,0v11.592c-17.784,0-32.4,14.544-32.4,32.472c0,17.928,14.616,32.544,32.4,32.544
			v11.016c-0.144,0-0.288,0-0.504,0c-24.048,0-43.704-19.728-43.704-43.848C260.344,500.144,280,480.488,304.048,480.488z"/>
		<path style="fill-rule:evenodd;clip-rule:evenodd;fill:#00A389;" d="M304.552,557.24c18.072,0,32.76-14.76,32.76-32.76
			c0-18.072-14.688-32.832-32.76-32.832c-18,0-32.688,14.76-32.688,32.832C271.864,542.48,286.552,557.24,304.552,557.24z"/>
	</g>
</g>
</svg>
