<?xml version="1.0" encoding="iso-8859-1"?>
<!-- Generator: Adobe Illustrator 15.1.0, SVG Export Plug-In . SVG Version: 6.00 Build 0)  -->
<!DOCTYPE svg PUBLIC "-//W3C//DTD SVG 1.1//EN" "http://www.w3.org/Graphics/SVG/1.1/DTD/svg11.dtd">
<svg version="1.1" xmlns="http://www.w3.org/2000/svg" xmlns:xlink="http://www.w3.org/1999/xlink" x="0px" y="0px" width="595px"
	 height="842px" viewBox="0 0 595 842" style="enable-background:new 0 0 595 842;" xml:space="preserve">
<g id="Kuvataso_1">
</g>
<g id="_x30_">
</g>
<g id="H4">
</g>
<g id="H5">
</g>
<g id="_x31_">
</g>
<g id="_x33_">
	<g>
		<path style="fill-rule:evenodd;clip-rule:evenodd;fill:#FFD200;" d="M51.76,626h504.432c14.472-2.232,20.232-11.016,16.92-26.496
			l-249.12-436.176c-9.504-8.208-18.504-18.936-38.376-0.864L36.496,595.4C34.192,609.296,36.352,621.968,51.76,626z"/>
		<path style="fill-rule:evenodd;clip-rule:evenodd;fill:#EF3E42;" d="M304.336,578.84h203.472L304.336,226.472v-66.528
			c5.184-0.216,10.44,2.376,14.256,7.488c82.656,143.136,164.448,288.216,247.104,431.28c4.824,12.816-1.512,20.232-10.8,20.664
			l-250.56,0.432V578.84z M100.936,578.84h203.4v40.968l-249.624,0.36c-8.64-3.24-12.672-7.92-12.888-14.544v-1.296
			c0.072-1.8,0.36-3.6,0.864-5.616l247.896-429.624c3.6-6.048,8.64-9,13.752-9.144v66.528l-0.216-0.36L100.936,578.84z"/>
		<g>
			<path style="fill-rule:evenodd;clip-rule:evenodd;" d="M355.312,371.84l6.984-23.544l-56.376,24.48l25.128,57.456
				c3.168-7.92,6.264-15.336,9.432-23.184c31.176,22.68,27.576,48.096,25.632,65.664l37.224,8.424
				C407.872,451.904,407.872,405.824,355.312,371.84z"/>
			<path style="fill-rule:evenodd;clip-rule:evenodd;" d="M350.992,548.528l15.984,20.808l9.36-63.216l-62.352-9.36
				c5.04,6.84,10.008,13.68,15.048,20.52c-35.784,14.4-55.44-2.16-69.264-13.104l-26.856,27.072
				C255.304,550.616,294.4,575.096,350.992,548.528z"/>
			<path style="fill-rule:evenodd;clip-rule:evenodd;" d="M203.248,458.024l-25.92,4.392l51.408,37.944l37.584-50.688
				c-8.424,1.224-16.776,2.448-25.128,3.6c4.104-38.304,27.936-47.88,44.064-54.936l-11.304-36.432
				C246.376,372.56,206.416,395.672,203.248,458.024z"/>
		</g>
	</g>
</g>
</svg>
