<?xml version="1.0" encoding="UTF-8" standalone="no"?>
<!-- Generator: Adobe Illustrator 15.1.0, SVG Export Plug-In . SVG Version: 6.00 Build 0)  -->

<svg
   xmlns:dc="http://purl.org/dc/elements/1.1/"
   xmlns:cc="http://creativecommons.org/ns#"
   xmlns:rdf="http://www.w3.org/1999/02/22-rdf-syntax-ns#"
   xmlns:svg="http://www.w3.org/2000/svg"
   xmlns="http://www.w3.org/2000/svg"
   xmlns:sodipodi="http://sodipodi.sourceforge.net/DTD/sodipodi-0.dtd"
   xmlns:inkscape="http://www.inkscape.org/namespaces/inkscape"
   version="1.1"
   x="0px"
   y="0px"
   width="538.30487"
   height="473.40295"
   viewBox="0 0 538.30487 473.40295"
   xml:space="preserve"
   id="svg674"
   sodipodi:docname="166.svg"
   inkscape:version="0.92.5 (2060ec1f9f, 2020-04-08)"><metadata
   id="metadata680"><rdf:RDF><cc:Work
       rdf:about=""><dc:format>image/svg+xml</dc:format><dc:type
         rdf:resource="http://purl.org/dc/dcmitype/StillImage" /></cc:Work></rdf:RDF></metadata><defs
   id="defs678" /><sodipodi:namedview
   pagecolor="#ffffff"
   bordercolor="#666666"
   borderopacity="1"
   objecttolerance="10"
   gridtolerance="10"
   guidetolerance="10"
   inkscape:pageopacity="0"
   inkscape:pageshadow="2"
   inkscape:window-width="640"
   inkscape:window-height="480"
   id="namedview676"
   showgrid="false"
   inkscape:zoom="0.28028504"
   inkscape:cx="261.78379"
   inkscape:cy="205"
   inkscape:window-x="0"
   inkscape:window-y="0"
   inkscape:window-maximized="0"
   inkscape:current-layer="svg674" />
<g
   id="Kuvataso_1"
   transform="translate(-35.716209,-152.59703)">
</g>
<g
   id="_x30_"
   transform="translate(-35.716209,-152.59703)">
</g>
<g
   id="H4"
   transform="translate(-35.716209,-152.59703)">
</g>
<g
   id="H5"
   transform="translate(-35.716209,-152.59703)">
</g>
<g
   id="_x31_"
   transform="translate(-35.716209,-152.59703)">
</g>
<g
   id="_x33_"
   transform="translate(-35.716209,-152.59703)">
	<g
   id="g671">
		<path
   style="clip-rule:evenodd;fill:#ffd200;fill-rule:evenodd"
   d="m 51.76,626 h 504.432 c 14.472,-2.232 20.232,-11.016 16.92,-26.496 L 323.992,163.328 c -9.504,-8.208 -18.504,-18.936 -38.376,-0.864 L 36.496,595.4 c -2.304,13.896 -0.144,26.568 15.264,30.6 z"
   id="path659"
   inkscape:connector-curvature="0" />
		<path
   style="clip-rule:evenodd;fill:#ef3e42;fill-rule:evenodd"
   d="M 304.336,578.84 H 507.808 L 304.336,226.472 v -66.528 c 5.184,-0.216 10.44,2.376 14.256,7.488 82.656,143.136 164.448,288.216 247.104,431.28 4.824,12.816 -1.512,20.232 -10.8,20.664 l -250.56,0.432 V 578.84 Z m -203.4,0 h 203.4 v 40.968 l -249.624,0.36 c -8.64,-3.24 -12.672,-7.92 -12.888,-14.544 v -1.296 c 0.072,-1.8 0.36,-3.6 0.864,-5.616 L 290.584,169.088 c 3.6,-6.048 8.64,-9 13.752,-9.144 v 66.528 l -0.216,-0.36 z"
   id="path661"
   inkscape:connector-curvature="0" />
		<g
   id="g669">
			<path
   style="clip-rule:evenodd;fill-rule:evenodd"
   d="m 355.312,371.84 6.984,-23.544 -56.376,24.48 25.128,57.456 c 3.168,-7.92 6.264,-15.336 9.432,-23.184 31.176,22.68 27.576,48.096 25.632,65.664 l 37.224,8.424 c 4.536,-29.232 4.536,-75.312 -48.024,-109.296 z"
   id="path663"
   inkscape:connector-curvature="0" />
			<path
   style="clip-rule:evenodd;fill-rule:evenodd"
   d="m 350.992,548.528 15.984,20.808 9.36,-63.216 -62.352,-9.36 c 5.04,6.84 10.008,13.68 15.048,20.52 -35.784,14.4 -55.44,-2.16 -69.264,-13.104 l -26.856,27.072 c 22.392,19.368 61.488,43.848 118.08,17.28 z"
   id="path665"
   inkscape:connector-curvature="0" />
			<path
   style="clip-rule:evenodd;fill-rule:evenodd"
   d="m 203.248,458.024 -25.92,4.392 51.408,37.944 37.584,-50.688 c -8.424,1.224 -16.776,2.448 -25.128,3.6 4.104,-38.304 27.936,-47.88 44.064,-54.936 l -11.304,-36.432 c -27.576,10.656 -67.536,33.768 -70.704,96.12 z"
   id="path667"
   inkscape:connector-curvature="0" />
		</g>
	</g>
</g>
</svg>