<?xml version="1.0" encoding="iso-8859-1"?>
<!-- Generator: Adobe Illustrator 15.1.0, SVG Export Plug-In . SVG Version: 6.00 Build 0)  -->
<!DOCTYPE svg PUBLIC "-//W3C//DTD SVG 1.1//EN" "http://www.w3.org/Graphics/SVG/1.1/DTD/svg11.dtd">
<svg version="1.1" xmlns="http://www.w3.org/2000/svg" xmlns:xlink="http://www.w3.org/1999/xlink" x="0px" y="0px" width="595px"
	 height="842px" viewBox="0 0 595 842" style="enable-background:new 0 0 595 842;" xml:space="preserve">
<g id="Kuvataso_1">
</g>
<g id="_x30_">
</g>
<g id="H4">
</g>
<g id="H5">
</g>
<g id="_x33_">
	<g>
		<path style="fill-rule:evenodd;clip-rule:evenodd;fill:#FFD200;" d="M51.76,626h504.432c14.472-2.232,20.232-11.016,16.92-26.496
			l-249.12-436.176c-9.504-8.208-18.504-18.936-38.376-0.864L36.496,595.4C34.192,609.296,36.352,621.968,51.76,626z"/>
		<path style="fill-rule:evenodd;clip-rule:evenodd;fill:#EF3E42;" d="M304.336,578.84h203.472L304.336,226.472v-66.528
			c5.184-0.216,10.44,2.376,14.256,7.488c82.656,143.136,164.448,288.216,247.104,431.28c4.824,12.816-1.512,20.232-10.8,20.664
			l-250.56,0.432V578.84z M100.936,578.84h203.4v40.968l-249.624,0.36c-8.64-3.24-12.672-7.92-12.888-14.544v-1.296
			c0.072-1.8,0.36-3.6,0.864-5.616l247.896-429.624c3.6-6.048,8.64-9,13.752-9.144v66.528l-0.216-0.36L100.936,578.84z"/>
		<g>
			<path style="fill-rule:evenodd;clip-rule:evenodd;" d="M415.072,537.224V494.6h13.608l-8.64-32.04h-4.968v-9.576h9.576
				l10.512,40.608V523.4v13.824H415.072z M415.072,452.984v9.576H401.68l-0.216,0.144V494.6h13.608v42.624H403.48
				c-1.224,4.896-10.152,17.208-23.04,3.672c-0.432,0-0.792,0-1.224,0v-46.44h15.336c0.36,0,0.648-0.288,0.648-0.576v-31.032
				c0-0.36-0.288-0.648-0.648-0.648h-15.336v-9.216H415.072z M379.216,452.984v9.216H363.88c-0.36,0-0.648,0.288-0.648,0.648v31.032
				c0,0.288,0.288,0.576,0.648,0.576h15.336v46.44c-1.8,0.072-3.888,0.288-5.544,0.288c-7.056,10.152-16.272,6.192-21.528-0.288
				h-11.232v-46.08h15.192c0.36,0,0.648-0.288,0.648-0.648v-30.96c0-0.36-0.288-0.648-0.648-0.648h-15.192v-9.576H379.216z
				 M340.912,452.984v9.576h-15.264c-0.288,0-0.576,0.288-0.576,0.648v30.96c0,0.36,0.288,0.648,0.576,0.648h15.264v46.08h-38.304
				v-46.44h15.48c0.36,0,0.648-0.288,0.648-0.648v-30.96c0-0.36-0.288-0.648-0.648-0.648h-15.48v-9.216H340.912L340.912,452.984z
				 M302.608,431.6v-13.032l9.576,6.48L302.608,431.6z M271.144,404.528l28.8,19.584l-29.448,21.24v17.28h9.072
				c0.36,0,0.648,0.288,0.648,0.648v31.032c0,0.36-0.288,0.648-0.648,0.648h-9.072v45.936h32.112v-46.44H287.2
				c-0.36,0-0.648-0.288-0.648-0.648v-30.96c0-0.36,0.288-0.648,0.648-0.648h15.408v-9.216h-25.056v-4.248l25.056-17.136v-13.032
				l-31.824-21.744l-0.288,0.216v7.92L271.144,404.528z M270.496,445.352l-29.52-20.592l29.52-19.8v-7.92L229.6,424.76
				l33.552,23.616v4.32h-37.08v9.864h15.48c0.36,0,0.648,0.288,0.648,0.648v30.96c0,0.36-0.288,0.648-0.648,0.648h-15.48v46.08
				c2.376,0,4.824,0,7.2,0c9.36,11.088,19.008,4.896,21.24,0h15.984V494.96h-21.888c-0.36,0-0.648-0.288-0.648-0.648V463.28
				c0-0.36,0.288-0.648,0.648-0.648h21.888V445.352z M226.072,452.696v9.864h-15.48c-0.36,0-0.648,0.288-0.648,0.648v30.96
				c0,0.36,0.288,0.648,0.648,0.648h15.48v46.08c-0.144,0-0.288,0-0.504,0c-1.296,3.456-15.552,13.392-23.256-3.384l-11.88,0.144
				v-42.84h13.392v-32.4l-0.216-0.216h-13.176v-9.504H226.072z M190.432,452.696v9.504h-4.896l-8.496,32.616h13.392v42.84
				l-20.088,0.144v-41.76l12.24-43.344H190.432z"/>
		</g>
		<path style="fill-rule:evenodd;clip-rule:evenodd;" d="M150.544,556.592H456.76c0.072,0,0.216-0.144,0.216-0.216v-8.856
			c0-0.072-0.144-0.144-0.216-0.144H150.544c-0.144,0-0.216,0.072-0.216,0.144v8.856C150.328,556.448,150.4,556.592,150.544,556.592
			z"/>
	</g>
</g>
</svg>
