<?xml version="1.0" encoding="iso-8859-1"?>
<!-- Generator: Adobe Illustrator 15.1.0, SVG Export Plug-In . SVG Version: 6.00 Build 0)  -->
<!DOCTYPE svg PUBLIC "-//W3C//DTD SVG 1.1//EN" "http://www.w3.org/Graphics/SVG/1.1/DTD/svg11.dtd">
<svg version="1.1" xmlns="http://www.w3.org/2000/svg" xmlns:xlink="http://www.w3.org/1999/xlink" x="0px" y="0px" width="595px"
	 height="842px" viewBox="0 0 595 842" style="enable-background:new 0 0 595 842;" xml:space="preserve">
<g id="Kuvataso_1">
</g>
<g id="_x30_">
</g>
<g id="H4">
</g>
<g id="_x33_">
</g>
<g id="H5">
	<g>
		<path style="fill-rule:evenodd;clip-rule:evenodd;fill:#FFD200;" d="M51.76,626h504.432c14.472-2.232,20.232-11.016,16.92-26.496
			l-249.12-436.176c-9.504-8.208-18.504-18.936-38.376-0.864L36.496,595.4C34.192,609.296,36.352,621.968,51.76,626z"/>
		<path style="fill-rule:evenodd;clip-rule:evenodd;fill:#EF3E42;" d="M304.336,578.84h203.472L304.336,226.472v-66.528
			c5.184-0.216,10.44,2.376,14.256,7.488c82.656,143.136,164.448,288.216,247.104,431.28c4.824,12.816-1.512,20.232-10.8,20.664
			l-250.56,0.432V578.84z M100.936,578.84h203.4v40.968l-249.624,0.36c-8.64-3.24-12.672-7.92-12.888-14.544v-1.296
			c0.072-1.8,0.36-3.6,0.864-5.616l247.896-429.624c3.6-6.048,8.64-9,13.752-9.144v66.528l-0.216-0.36L100.936,578.84z"/>
		<path style="fill-rule:evenodd;clip-rule:evenodd;" d="M371.656,528.584c-16.56,17.784-7.416,35.568,10.8,36.36
			c15.336,0.648,28.512-24.192,8.928-34.92h27.432v-6.12h6.696v6.192l5.544-0.936V510.8h-5.688v6.12h-6.984V473h6.552v-5.256H407.08
			v5.688h5.688v31.32h-30.96v-31.32h5.976v-6.048l-5.976,0.36v-31.32H400.6v-12.672h-28.368v40.536h-28.224v-16.56
			c0.504-6.912-13.608-16.632-19.224,0v16.992h-19.008v64.44h16.56c-16.488,11.088-9.648,35.352,8.928,35.208
			c15.408-0.144,29.808-19.944,8.928-35.64L371.656,528.584L371.656,528.584z M305.776,387.32
			c32.544,11.664,79.632-12.456,45.72-50.904c10.728-9.936-18.144-51.48-45.72-19.296V387.32L305.776,387.32z M305.776,569.048
			v-5.688H430.48c0.072,0,0.072,0,0.072,0.072v5.472c0,0.072,0,0.144-0.072,0.144H305.776z M305.776,464.72h-12.24v-19.656
			c-2.016,0-4.104,0-6.12,0c-12.888-19.44-23.4-4.464-26.568,0h-5.184v19.656h-31.392v-32.256
			c5.112-0.432,13.896-5.832,16.56-14.688c10.08-1.152,22.536-2.232,25.272-19.152c9.792-0.576,22.536-0.648,28.296-17.424
			c3.456,2.592,7.272,4.68,11.376,6.12v-70.2c-2.376,2.808-4.752,6.12-7.128,10.08c-5.472,0.936-15.48,0.72-17.784,18.72
			c-7.632,3.888-21.024-0.288-23.04,23.904c-7.848,1.872-25.056,0.432-29.592,27.432c-6.48,1.368-19.08,1.152-23.112,24.696v42.768
			h-12.6v51.768h-6.552v-5.184h-5.616v16.92l5.904,1.224l-0.288-6.408h6.552v5.688h30.456c-19.8,12.96-10.08,33.192,6.552,35.496
			c14.112,1.944,31.896-18.864,9.648-35.496h33.264c-13.824,6.48-15.264,34.992,9.432,35.856
			c10.44,0.288,31.104-18.144,8.424-35.424h15.48V464.72L305.776,464.72z M305.776,563.36v5.688H181.144
			c-0.072,0-0.144-0.072-0.144-0.144v-5.472c0-0.072,0.072-0.072,0.144-0.072H305.776z"/>
	</g>
</g>
</svg>
