<?xml version="1.0" encoding="iso-8859-1"?>
<!-- Generator: Adobe Illustrator 15.1.0, SVG Export Plug-In . SVG Version: 6.00 Build 0)  -->
<!DOCTYPE svg PUBLIC "-//W3C//DTD SVG 1.1//EN" "http://www.w3.org/Graphics/SVG/1.1/DTD/svg11.dtd">
<svg version="1.1" xmlns="http://www.w3.org/2000/svg" xmlns:xlink="http://www.w3.org/1999/xlink" x="0px" y="0px" width="595px"
	 height="842px" viewBox="0 0 595 842" style="enable-background:new 0 0 595 842;" xml:space="preserve">
<g id="Kuvataso_1">
</g>
<g id="_x30_">
</g>
<g id="H5">
</g>
<g id="H4">
	
		<polygon style="fill-rule:evenodd;clip-rule:evenodd;fill:#EF3E42;stroke:#EF3E42;stroke-width:0.216;stroke-miterlimit:10;" points="
		37.648,241.016 93.808,224.96 307.216,347.936 519.112,224.816 575.272,239.936 560.224,296.528 388.216,395.528 559.504,494.096 
		575.2,550.976 520.264,565.52 307.144,443.12 94.816,566.024 37.648,550.4 52.768,494.384 224.272,395.528 53.272,296.96 	"/>
	
		<polygon style="fill-rule:evenodd;clip-rule:evenodd;fill:#FFD200;stroke:#FFD520;stroke-width:0.216;stroke-miterlimit:10;" points="
		55.792,251.168 90.64,242.744 305.416,367.592 520.264,242.168 555.112,251.168 545.536,286.592 358.912,395.672 545.536,505.256 
		554.536,540.176 520.264,548.024 304.84,425.264 90.064,548.6 55.792,539.6 65.368,504.752 255.592,394.664 65.368,286.016 	"/>
</g>
</svg>
