<?xml version="1.0" encoding="UTF-8" standalone="no"?>
<!-- Generator: Adobe Illustrator 15.1.0, SVG Export Plug-In . SVG Version: 6.00 Build 0)  -->

<svg
   xmlns:dc="http://purl.org/dc/elements/1.1/"
   xmlns:cc="http://creativecommons.org/ns#"
   xmlns:rdf="http://www.w3.org/1999/02/22-rdf-syntax-ns#"
   xmlns:svg="http://www.w3.org/2000/svg"
   xmlns="http://www.w3.org/2000/svg"
   xmlns:sodipodi="http://sodipodi.sourceforge.net/DTD/sodipodi-0.dtd"
   xmlns:inkscape="http://www.inkscape.org/namespaces/inkscape"
   version="1.1"
   x="0px"
   y="0px"
   width="537.88892"
   height="341.44006"
   viewBox="0 0 537.88892 341.44006"
   xml:space="preserve"
   id="svg792"
   sodipodi:docname="176.svg"
   inkscape:version="0.92.5 (2060ec1f9f, 2020-04-08)"><metadata
   id="metadata798"><rdf:RDF><cc:Work
       rdf:about=""><dc:format>image/svg+xml</dc:format><dc:type
         rdf:resource="http://purl.org/dc/dcmitype/StillImage" /></cc:Work></rdf:RDF></metadata><defs
   id="defs796" /><sodipodi:namedview
   pagecolor="#ffffff"
   bordercolor="#666666"
   borderopacity="1"
   objecttolerance="10"
   gridtolerance="10"
   guidetolerance="10"
   inkscape:pageopacity="0"
   inkscape:pageshadow="2"
   inkscape:window-width="640"
   inkscape:window-height="480"
   id="namedview794"
   showgrid="false"
   inkscape:zoom="0.28028504"
   inkscape:cx="259.98489"
   inkscape:cy="145.14007"
   inkscape:window-x="0"
   inkscape:window-y="0"
   inkscape:window-maximized="0"
   inkscape:current-layer="svg792" />
<g
   id="Kuvataso_1"
   transform="translate(-37.515107,-224.70002)">
</g>
<g
   id="_x30_"
   transform="translate(-37.515107,-224.70002)">
</g>
<g
   id="H5"
   transform="translate(-37.515107,-224.70002)">
</g>
<g
   id="H4"
   transform="translate(-37.515107,-224.70002)">
	
		<polygon
   style="clip-rule:evenodd;fill:#ef3e42;fill-rule:evenodd;stroke:#ef3e42;stroke-width:0.21600001;stroke-miterlimit:10"
   points="307.216,347.936 519.112,224.816 575.272,239.936 560.224,296.528 388.216,395.528 559.504,494.096 575.2,550.976 520.264,565.52 307.144,443.12 94.816,566.024 37.648,550.4 52.768,494.384 224.272,395.528 53.272,296.96 37.648,241.016 93.808,224.96 "
   id="polygon787" />
	
		<polygon
   style="clip-rule:evenodd;fill:#ffd200;fill-rule:evenodd;stroke:#ffd520;stroke-width:0.21600001;stroke-miterlimit:10"
   points="305.416,367.592 520.264,242.168 555.112,251.168 545.536,286.592 358.912,395.672 545.536,505.256 554.536,540.176 520.264,548.024 304.84,425.264 90.064,548.6 55.792,539.6 65.368,504.752 255.592,394.664 65.368,286.016 55.792,251.168 90.64,242.744 "
   id="polygon789" />
</g>
</svg>