<?xml version="1.0" encoding="iso-8859-1"?>
<!-- Generator: Adobe Illustrator 15.1.0, SVG Export Plug-In . SVG Version: 6.00 Build 0)  -->
<!DOCTYPE svg PUBLIC "-//W3C//DTD SVG 1.1//EN" "http://www.w3.org/Graphics/SVG/1.1/DTD/svg11.dtd">
<svg version="1.1" xmlns="http://www.w3.org/2000/svg" xmlns:xlink="http://www.w3.org/1999/xlink" x="0px" y="0px" width="595px"
	 height="842px" viewBox="0 0 595 842" style="enable-background:new 0 0 595 842;" xml:space="preserve">
<g id="Kuvataso_1">
</g>
<g id="_x30_">
</g>
<g id="H4">
</g>
<g id="H5">
	
		<polygon style="fill-rule:evenodd;clip-rule:evenodd;fill:#EF3E42;stroke:#EF3E42;stroke-width:0.216;stroke-miterlimit:10;" points="
		37.648,179.816 93.808,163.76 306.424,286.808 519.112,163.688 575.272,178.808 560.224,235.4 388.216,334.328 559.504,432.968 
		575.2,489.848 520.264,504.392 305.92,382.424 94.816,504.824 37.648,489.2 52.768,433.256 224.272,334.328 53.272,235.832 	"/>
	
		<polygon style="fill-rule:evenodd;clip-rule:evenodd;fill:#FFD200;stroke:#FFD520;stroke-width:0.216;stroke-miterlimit:10;" points="
		55.792,189.968 90.64,181.544 305.416,306.392 520.264,180.968 555.112,189.968 545.536,225.464 358.912,334.544 545.536,444.128 
		554.536,478.976 520.264,486.896 305.704,364.64 90.064,487.4 55.792,478.4 65.368,443.552 255.592,333.536 65.368,224.888 	"/>
	
		<polygon style="fill-rule:evenodd;clip-rule:evenodd;fill:#EF3E42;stroke:#EF3E42;stroke-width:0.216;stroke-miterlimit:10;" points="
		49.888,588.776 305.992,439.664 560.512,588.776 575.344,645.008 519.976,660.704 305.992,536.72 90.352,661.496 35.056,645.008 	
		"/>
	
		<polygon style="fill-rule:evenodd;clip-rule:evenodd;fill:#FFD200;stroke:#FFD520;stroke-width:0.216;stroke-miterlimit:10;" points="
		64.792,598.712 305.992,459.896 547.264,599.504 555.544,634.208 520.84,642.488 305.56,517.712 88.696,643.352 54.856,634.208 	
		"/>
</g>
</svg>
