<?xml version="1.0" encoding="UTF-8" standalone="no"?>
<!-- Generator: Adobe Illustrator 15.1.0, SVG Export Plug-In . SVG Version: 6.00 Build 0)  -->

<svg
   xmlns:dc="http://purl.org/dc/elements/1.1/"
   xmlns:cc="http://creativecommons.org/ns#"
   xmlns:rdf="http://www.w3.org/1999/02/22-rdf-syntax-ns#"
   xmlns:svg="http://www.w3.org/2000/svg"
   xmlns="http://www.w3.org/2000/svg"
   xmlns:sodipodi="http://sodipodi.sourceforge.net/DTD/sodipodi-0.dtd"
   xmlns:inkscape="http://www.inkscape.org/namespaces/inkscape"
   version="1.1"
   id="_x33_"
   x="0px"
   y="0px"
   width="538.30487"
   height="473.40295"
   viewBox="0 0 538.30487 473.40295"
   xml:space="preserve"
   sodipodi:docname="183.svg"
   inkscape:version="0.92.5 (2060ec1f9f, 2020-04-08)"><metadata
   id="metadata881"><rdf:RDF><cc:Work
       rdf:about=""><dc:format>image/svg+xml</dc:format><dc:type
         rdf:resource="http://purl.org/dc/dcmitype/StillImage" /></cc:Work></rdf:RDF></metadata><defs
   id="defs879" /><sodipodi:namedview
   pagecolor="#ffffff"
   bordercolor="#666666"
   borderopacity="1"
   objecttolerance="10"
   gridtolerance="10"
   guidetolerance="10"
   inkscape:pageopacity="0"
   inkscape:pageshadow="2"
   inkscape:window-width="640"
   inkscape:window-height="480"
   id="namedview877"
   showgrid="false"
   inkscape:zoom="0.28028504"
   inkscape:cx="266.75179"
   inkscape:cy="205"
   inkscape:window-x="0"
   inkscape:window-y="0"
   inkscape:window-maximized="0"
   inkscape:current-layer="_x33_" />
<g
   id="g874"
   transform="translate(-30.748209,-152.59703)">
	<path
   style="clip-rule:evenodd;fill:#ffd520;fill-rule:evenodd"
   d="m 46.792,626 h 504.432 c 14.472,-2.232 20.232,-11.016 16.92,-26.496 L 319.024,163.328 c -9.432,-8.208 -18.504,-18.936 -38.376,-0.864 L 31.528,595.4 c -2.304,13.896 -0.144,26.568 15.264,30.6 z"
   id="path868"
   inkscape:connector-curvature="0" />
	<path
   style="clip-rule:evenodd;fill:#ef3e42;fill-rule:evenodd"
   d="M 299.368,578.84 H 502.84 L 299.368,226.472 v -66.528 c 5.256,-0.216 10.512,2.376 14.256,7.488 82.656,143.136 164.448,288.216 247.104,431.28 4.824,12.816 -1.512,20.232 -10.728,20.664 l -250.632,0.432 V 578.84 Z m -203.4,0 h 203.4 v 40.968 l -249.624,0.36 c -8.568,-3.24 -12.672,-7.92 -12.888,-14.544 v -1.296 c 0.072,-1.8 0.36,-3.6 0.864,-5.616 L 285.616,169.088 c 3.6,-6.048 8.712,-9 13.752,-9.144 v 66.528 l -0.144,-0.36 z"
   id="path870"
   inkscape:connector-curvature="0" />
	<path
   style="clip-rule:evenodd;fill-rule:evenodd"
   d="m 406.936,469.544 25.848,12.528 c 4.968,14.616 0.36,36.216 -14.904,40.896 l -10.944,-2.016 v -5.184 c 2.304,0.36 4.68,0.72 7.056,1.008 -1.512,-15.264 -1.008,-22.608 9.504,-32.472 l -16.56,-7.92 z m -43.416,-21.024 43.416,21.024 v 6.84 l -4.536,-2.232 c -13.824,13.464 -12.312,21.456 -11.592,38.664 5.4,0.936 10.728,2.016 16.128,2.952 v 5.184 l -43.416,-8.136 v -5.4 c 1.584,0.36 3.168,0.648 4.752,0.864 -4.392,-20.88 0.288,-30.672 14.472,-43.776 L 363.52,455.36 Z m -44.712,-21.672 44.712,21.672 v 6.84 l -2.304,-1.008 c -16.704,17.928 -18.072,25.776 -16.56,49.248 6.192,1.008 12.6,2.592 18.864,3.816 v 5.4 l -44.712,-8.352 v -5.544 c 1.008,0.144 1.944,0.36 2.88,0.504 -4.392,-21.312 4.032,-42.696 18.216,-55.8 l -21.096,-10.008 z m -20.736,-10.008 20.736,10.008 v 6.768 l -0.432,-0.144 c -13.248,13.536 -19.008,27.72 -20.304,43.776 V 424.04 c 0.144,-0.072 0.216,-0.216 0.36,-0.288 l -0.36,-0.144 z m 20.736,87.624 -20.736,-3.888 v -6.912 c 0.072,0.504 0.072,0.936 0.144,1.44 6.696,1.152 13.752,2.592 20.592,3.816 z m -43.704,-98.712 22.968,11.088 v 6.768 l -21.6,-10.944 c -0.432,0.504 -0.864,1.08 -1.368,1.656 z m 22.968,94.824 -22.968,-4.32 v -6.48 c 0.216,0.072 0.36,0.072 0.576,0.144 -0.216,-0.864 -0.36,-1.728 -0.576,-2.592 v -20.232 c 3.024,-17.064 12.888,-32.4 22.968,-43.056 v 53.208 c -0.432,5.256 -0.36,10.728 0,16.416 z m -39.096,-88.488 15.84,-6.48 0.288,0.144 v 8.568 c -6.84,8.568 -12.24,17.424 -16.128,26.712 V 424.76 c 2.088,-3.168 4.464,-6.192 7.2,-9.216 l -7.2,2.88 z m 16.128,84.168 -16.128,-3.024 v -6.192 c 5.4,0.864 10.872,1.728 16.128,2.736 z m 0,-29.16 c -1.08,6.552 -1.224,13.392 0,20.232 z m -34.56,-47.448 18.432,-7.56 v 6.336 l -18.432,7.344 z m 18.432,73.584 v -6.192 c -2.304,-0.432 -4.608,-0.792 -6.912,-1.296 -1.08,-16.488 1.296,-31.104 6.912,-44.712 V 424.76 c -10.296,15.912 -12.744,33.12 -15.12,52.344 l -3.312,-4.68 v 11.52 l 4.968,6.768 z m -68.472,85.176 4.536,-140.184 45.504,-18.576 v 6.12 l -25.704,10.368 25.704,36.288 v 11.52 l -32.688,-44.928 2.448,139.824 z"
   id="path872"
   inkscape:connector-curvature="0" />
</g>
</svg>