<?xml version="1.0" encoding="iso-8859-1"?>
<!-- Generator: Adobe Illustrator 15.1.0, SVG Export Plug-In . SVG Version: 6.00 Build 0)  -->
<!DOCTYPE svg PUBLIC "-//W3C//DTD SVG 1.1//EN" "http://www.w3.org/Graphics/SVG/1.1/DTD/svg11.dtd">
<svg version="1.1" id="_x33_" xmlns="http://www.w3.org/2000/svg" xmlns:xlink="http://www.w3.org/1999/xlink" x="0px" y="0px"
	 width="595px" height="842px" viewBox="0 0 595 842" style="enable-background:new 0 0 595 842;" xml:space="preserve">
<g>
	<path style="fill-rule:evenodd;clip-rule:evenodd;fill:#FFD520;" d="M46.792,626h504.432c14.472-2.232,20.232-11.016,16.92-26.496
		l-249.12-436.176c-9.432-8.208-18.504-18.936-38.376-0.864L31.528,595.4C29.224,609.296,31.384,621.968,46.792,626z"/>
	<path style="fill-rule:evenodd;clip-rule:evenodd;fill:#EF3E42;" d="M299.368,578.84H502.84L299.368,226.472v-66.528
		c5.256-0.216,10.512,2.376,14.256,7.488c82.656,143.136,164.448,288.216,247.104,431.28c4.824,12.816-1.512,20.232-10.728,20.664
		l-250.632,0.432V578.84z M95.968,578.84h203.4v40.968l-249.624,0.36c-8.568-3.24-12.672-7.92-12.888-14.544v-1.296
		c0.072-1.8,0.36-3.6,0.864-5.616l247.896-429.624c3.6-6.048,8.712-9,13.752-9.144v66.528l-0.144-0.36L95.968,578.84z"/>
	<path style="fill-rule:evenodd;clip-rule:evenodd;" d="M406.936,469.544l25.848,12.528c4.968,14.616,0.36,36.216-14.904,40.896
		l-10.944-2.016v-5.184c2.304,0.36,4.68,0.72,7.056,1.008c-1.512-15.264-1.008-22.608,9.504-32.472l-16.56-7.92V469.544z
		 M363.52,448.52l43.416,21.024v6.84l-4.536-2.232c-13.824,13.464-12.312,21.456-11.592,38.664c5.4,0.936,10.728,2.016,16.128,2.952
		v5.184l-43.416-8.136v-5.4c1.584,0.36,3.168,0.648,4.752,0.864c-4.392-20.88,0.288-30.672,14.472-43.776l-19.224-9.144V448.52z
		 M318.808,426.848l44.712,21.672v6.84l-2.304-1.008c-16.704,17.928-18.072,25.776-16.56,49.248
		c6.192,1.008,12.6,2.592,18.864,3.816v5.4l-44.712-8.352v-5.544c1.008,0.144,1.944,0.36,2.88,0.504
		c-4.392-21.312,4.032-42.696,18.216-55.8l-21.096-10.008V426.848z M298.072,416.84l20.736,10.008v6.768l-0.432-0.144
		c-13.248,13.536-19.008,27.72-20.304,43.776V424.04c0.144-0.072,0.216-0.216,0.36-0.288l-0.36-0.144V416.84L298.072,416.84z
		 M318.808,504.464l-20.736-3.888v-6.912c0.072,0.504,0.072,0.936,0.144,1.44c6.696,1.152,13.752,2.592,20.592,3.816V504.464z
		 M275.104,405.752l22.968,11.088v6.768l-21.6-10.944c-0.432,0.504-0.864,1.08-1.368,1.656V405.752L275.104,405.752z
		 M298.072,500.576l-22.968-4.32v-6.48c0.216,0.072,0.36,0.072,0.576,0.144c-0.216-0.864-0.36-1.728-0.576-2.592v-20.232
		c3.024-17.064,12.888-32.4,22.968-43.056v53.208c-0.432,5.256-0.36,10.728,0,16.416V500.576z M258.976,412.088l15.84-6.48
		l0.288,0.144v8.568c-6.84,8.568-12.24,17.424-16.128,26.712V424.76c2.088-3.168,4.464-6.192,7.2-9.216l-7.2,2.88V412.088
		L258.976,412.088z M275.104,496.256l-16.128-3.024v-6.192c5.4,0.864,10.872,1.728,16.128,2.736V496.256L275.104,496.256z
		 M275.104,467.096c-1.08,6.552-1.224,13.392,0,20.232V467.096z M240.544,419.648l18.432-7.56v6.336l-18.432,7.344V419.648
		L240.544,419.648z M258.976,493.232v-6.192c-2.304-0.432-4.608-0.792-6.912-1.296c-1.08-16.488,1.296-31.104,6.912-44.712V424.76
		c-10.296,15.912-12.744,33.12-15.12,52.344l-3.312-4.68v11.52l4.968,6.768L258.976,493.232z M190.504,578.408l4.536-140.184
		l45.504-18.576v6.12l-25.704,10.368l25.704,36.288v11.52l-32.688-44.928l2.448,139.824L190.504,578.408z"/>
</g>
</svg>
