<?xml version="1.0" encoding="iso-8859-1"?>
<!-- Generator: Adobe Illustrator 15.1.0, SVG Export Plug-In . SVG Version: 6.00 Build 0)  -->
<!DOCTYPE svg PUBLIC "-//W3C//DTD SVG 1.1//EN" "http://www.w3.org/Graphics/SVG/1.1/DTD/svg11.dtd">
<svg version="1.1" xmlns="http://www.w3.org/2000/svg" xmlns:xlink="http://www.w3.org/1999/xlink" x="0px" y="0px" width="595px"
	 height="842px" viewBox="0 0 595 842" style="enable-background:new 0 0 595 842;" xml:space="preserve">
<g id="Kuvataso_1">
</g>
<g id="_x30_">
</g>
<g id="H4">
</g>
<g id="H5">
	<g>
		<path style="fill-rule:evenodd;clip-rule:evenodd;fill:#FFD200;" d="M69.544,626.72h504.36
			c14.472-2.16,20.232-11.016,16.92-26.424l-249.12-436.248c-9.432-8.208-18.504-18.864-38.376-0.792L54.208,596.192
			C51.904,610.088,54.064,622.76,69.544,626.72z"/>
		<path style="fill-rule:evenodd;clip-rule:evenodd;fill:#EF3E42;" d="M322.12,579.632h203.472L322.12,227.264v-66.6
			c5.184-0.144,10.44,2.448,14.256,7.56c82.584,143.064,164.376,288.144,247.032,431.208c4.824,12.816-1.512,20.304-10.728,20.664
			l-250.56,0.432V579.632z M118.72,579.632h203.4v40.896L72.424,620.96c-8.568-3.24-12.6-7.92-12.888-14.544v-1.368
			c0.072-1.728,0.36-3.6,0.864-5.544L308.224,169.88c3.6-6.048,8.712-9,13.896-9.216v66.6l-0.216-0.36L118.72,579.632z"/>
		<g>
			<path style="fill-rule:evenodd;clip-rule:evenodd;" d="M321.256,564.8c12.528,0,22.752-10.152,22.752-22.68
				c0-12.528-10.224-22.752-22.752-22.752c-12.528,0-22.68,10.224-22.68,22.752C298.576,554.648,308.728,564.8,321.256,564.8z"/>
			<path style="fill-rule:evenodd;clip-rule:evenodd;" d="M310.096,487.184c-4.248-53.712-7.416-105.192-10.728-157.752
				c-0.432-16.992,33.84-36.36,44.64,0c-3.888,52.272-7.704,104.544-11.592,156.888
				C333.352,496.904,314.416,502.664,310.096,487.184z"/>
		</g>
	</g>
</g>
</svg>
