<?xml version="1.0" encoding="utf-8"?>
<!-- Generator: Adobe Illustrator 15.1.0, SVG Export Plug-In . SVG Version: 6.00 Build 0)  -->
<!DOCTYPE svg PUBLIC "-//W3C//DTD SVG 1.0//EN" "http://www.w3.org/TR/2001/REC-SVG-20010904/DTD/svg10.dtd">
<svg version="1.0" id="Kuvataso_2" xmlns="http://www.w3.org/2000/svg" xmlns:xlink="http://www.w3.org/1999/xlink" x="0px" y="0px"
	 width="595px" height="842px" viewBox="0 0 595 842" enable-background="new 0 0 595 842" xml:space="preserve">
<g>
	<g>
		<path fill-rule="evenodd" clip-rule="evenodd" fill="#007AC2" d="M294.4,148.496h197.928c21.6,0,39.312,12.456,39.312,28.584
			v417.384c0,16.128-17.712,29.304-39.312,29.304H294.4l0,0h237.456V149H294.4V148.496z M96.4,148.496h198V149H57.016v474.768H294.4
			l0,0h-198c-21.6,0-39.312-13.176-39.312-29.304V177.08C57.088,160.952,74.8,148.496,96.4,148.496z"/>
		<path fill-rule="evenodd" clip-rule="evenodd" fill="none" stroke="#007AC2" stroke-width="0.5" stroke-miterlimit="10" d="
			M96.4,148.496h395.928c21.6,0,39.312,12.456,39.312,28.584v417.384c0,16.128-17.712,29.304-39.312,29.304H96.4
			c-21.6,0-39.312-13.176-39.312-29.304V177.08C57.088,160.952,74.8,148.496,96.4,148.496L96.4,148.496z M57.016,149h474.84v474.768
			H57.016V149z"/>
	</g>
	<path fill-rule="evenodd" clip-rule="evenodd" fill="#0079C1" d="M377.344,539.456h20.304l-0.504-236.376l51.408-0.504
		l-70.704-70.704l-0.504,0.504v-68.76h118.512c10.944,0,19.944,6.696,19.944,14.832v414.648c0,8.208-9,14.832-19.944,14.832H377.344
		V539.456z M357.832,539.456h19.512v68.472H92.8c-10.944,0-19.944-6.624-19.944-14.832V178.448c0-8.136,9-14.832,19.944-14.832
		h284.544v68.76l-71.28,69.696H357.4L357.832,539.456z"/>
	<polygon fill-rule="evenodd" clip-rule="evenodd" fill="#EF3E42" points="191.584,232.448 231.328,232.448 231.832,469.4 
		282.232,469.4 211.528,540.104 140.752,468.824 191.584,468.824 	"/>
</g>
</svg>
