<?xml version="1.0" encoding="UTF-8" standalone="no"?>
<!-- Generator: Adobe Illustrator 15.1.0, SVG Export Plug-In . SVG Version: 6.00 Build 0)  -->

<svg
   xmlns:dc="http://purl.org/dc/elements/1.1/"
   xmlns:cc="http://creativecommons.org/ns#"
   xmlns:rdf="http://www.w3.org/1999/02/22-rdf-syntax-ns#"
   xmlns:svg="http://www.w3.org/2000/svg"
   xmlns="http://www.w3.org/2000/svg"
   xmlns:sodipodi="http://sodipodi.sourceforge.net/DTD/sodipodi-0.dtd"
   xmlns:inkscape="http://www.inkscape.org/namespaces/inkscape"
   version="1.0"
   x="0px"
   y="0px"
   width="538.12897"
   height="473.35211"
   viewBox="0 0 538.12897 473.35211"
   enable-background="new 0 0 595 842"
   xml:space="preserve"
   id="svg78"
   sodipodi:docname="231.svg"
   inkscape:version="0.92.5 (2060ec1f9f, 2020-04-08)"><metadata
   id="metadata84"><rdf:RDF><cc:Work
       rdf:about=""><dc:format>image/svg+xml</dc:format><dc:type
         rdf:resource="http://purl.org/dc/dcmitype/StillImage" /></cc:Work></rdf:RDF></metadata><defs
   id="defs82" /><sodipodi:namedview
   pagecolor="#ffffff"
   bordercolor="#666666"
   borderopacity="1"
   objecttolerance="10"
   gridtolerance="10"
   guidetolerance="10"
   inkscape:pageopacity="0"
   inkscape:pageshadow="2"
   inkscape:window-width="640"
   inkscape:window-height="480"
   id="namedview80"
   showgrid="false"
   inkscape:zoom="0.28028504"
   inkscape:cx="256.0196"
   inkscape:cy="268.49411"
   inkscape:window-x="0"
   inkscape:window-y="0"
   inkscape:window-maximized="0"
   inkscape:current-layer="svg78" />
<g
   id="Kuvataso_1"
   transform="translate(-41.480397,-216.142)">
</g>
<g
   id="_x30_"
   transform="translate(-41.480397,-216.142)">
</g>
<g
   id="H2"
   transform="translate(-41.480397,-216.142)">
</g>
<g
   id="H1"
   transform="translate(-41.480397,-216.142)">
	<g
   id="g75">
		<path
   stroke-miterlimit="10"
   d="M 58.888,216.392 H 560.8 c 11.016,0 21.816,18.072 17.64,25.272 l -254.448,442.08 c -3.888,6.768 -23.616,7.56 -27.504,0.864 C 210.088,537.872 126.64,391.064 42.616,244.328 39.16,235.256 46.144,216.392 58.888,216.392 Z"
   id="path71"
   inkscape:connector-curvature="0"
   style="clip-rule:evenodd;fill:#ffd520;fill-rule:evenodd;stroke:#ffd520;stroke-width:0.5;stroke-miterlimit:10" />
		<path
   d="m 309.52,221.144 c 83.088,0 166.248,0 249.336,0 6.264,3.096 13.536,6.264 14.04,14.616 v 2.016 c -0.072,1.44 -0.36,3.096 -0.864,4.896 -83.592,144.936 -165.816,288.576 -250.776,434.736 -2.016,3.384 -6.912,5.04 -11.736,4.968 V 565.232 l 0.432,0.72 159.624,-278.28 H 309.52 Z m -247.032,0 c 82.368,0 164.736,0 247.032,0 v 66.528 H 149.464 l 160.056,277.56 v 117.144 c -4.68,-0.072 -9.288,-1.728 -11.16,-4.968 C 214.12,534.2 130.168,387.68 48.16,244.4 c -0.504,-1.368 -0.864,-2.808 -0.936,-4.32 v -2.88 c 0.576,-7.848 5.832,-16.056 15.264,-16.056 z"
   id="path73"
   inkscape:connector-curvature="0"
   style="clip-rule:evenodd;fill:#ef3e42;fill-rule:evenodd" />
	</g>
</g>
</svg>