<?xml version="1.0" encoding="utf-8"?>
<!-- Generator: Adobe Illustrator 15.1.0, SVG Export Plug-In . SVG Version: 6.00 Build 0)  -->
<!DOCTYPE svg PUBLIC "-//W3C//DTD SVG 1.0//EN" "http://www.w3.org/TR/2001/REC-SVG-20010904/DTD/svg10.dtd">
<svg version="1.0" id="Kuvataso_1" xmlns="http://www.w3.org/2000/svg" xmlns:xlink="http://www.w3.org/1999/xlink" x="0px" y="0px"
	 width="595px" height="842px" viewBox="0 0 595 842" enable-background="new 0 0 595 842" xml:space="preserve">
<g>
	<path fill-rule="evenodd" clip-rule="evenodd" fill="#FFD520" d="M275.968,619.304c136.008,0,246.96-110.952,246.96-246.888
		c0-136.008-110.952-246.96-246.96-246.96c-136.008,0-246.96,110.952-246.96,246.96C29.008,508.352,139.96,619.304,275.968,619.304z
		"/>
	<g>
		<path fill-rule="evenodd" clip-rule="evenodd" d="M349.48,437.576c11.592,0,21.024-9.432,21.024-20.88
			c0-11.592-9.432-21.024-21.024-21.024c-11.52,0-20.952,9.432-20.952,21.024C328.528,428.144,337.96,437.576,349.48,437.576z"/>
		<path fill-rule="evenodd" clip-rule="evenodd" fill="#FFD520" d="M349.48,425.84c5.112,0,9.216-4.176,9.216-9.144
			c0-5.112-4.104-9.216-9.216-9.216c-5.04,0-9.216,4.104-9.216,9.216C340.264,421.664,344.44,425.84,349.48,425.84z"/>
	</g>
	<path fill-rule="evenodd" clip-rule="evenodd" fill="#EF3E42" d="M277.264,135.536c130.248,0,236.52,106.272,236.52,236.592
		c0,130.176-106.272,236.448-236.52,236.448v-47.808c103.896,0,188.64-84.816,188.64-188.64
		c0-103.968-84.744-188.712-188.64-188.712V135.536L277.264,135.536z M277.264,402.44l117.792,117L406,509.648l7.632-7.416
		l7.92-8.64L277.264,349.376V402.44z M277.264,608.576c-130.248,0-236.52-106.272-236.52-236.448
		c0-130.32,106.272-236.592,236.52-236.592v47.88c-103.968,0-188.712,84.744-188.712,188.712
		c0,103.824,84.744,188.64,188.712,188.64V608.576L277.264,608.576z M277.264,349.376L155.512,227.768l-9.576,9.072l-8.424,8.496
		l-8.496,9.864l148.248,147.24V349.376z"/>
	<g>
		<path fill-rule="evenodd" clip-rule="evenodd" d="M250.912,322.664l78.624,78.984c3.384-6.12,7.632-8.064,13.752-9.792
			c5.688-1.656,13.032-0.504,18.72,2.304c8.568,4.464,11.448,12.744,13.32,23.256h47.016v-22.392h-20.16v-5.976h26.856v-65.592
			L250.912,322.664z"/>
		<path fill-rule="evenodd" clip-rule="evenodd" stroke="#000000" stroke-width="0.216" stroke-miterlimit="10" d="M291.952,416.984
			l-91.944-90.648v61.056H218.8v7.992h-26.712v-49.968c-0.36-1.8-0.288-3.672-1.944-4.896c-1.44-1.152-2.664-2.16-4.464-2.376
			c-6.84-0.936-13.536-0.936-20.304-0.792c-6.192,0.216-12.312,0.36-18.504,1.224c-4.032,0.576-6.408,1.872-8.856,5.256
			l-15.912,32.112v40.752h8.928c1.008-13.392,8.784-23.904,25.128-26.136c17.856,0.216,26.928,13.176,27.936,26.136L291.952,416.984
			z"/>
		<path fill-rule="evenodd" clip-rule="evenodd" d="M157.384,437.576c11.592,0,21.024-9.432,21.024-20.88
			c0-11.592-9.432-21.024-21.024-21.024c-11.52,0-20.952,9.432-20.952,21.024C136.432,428.144,145.864,437.576,157.384,437.576z"/>
		<path fill-rule="evenodd" clip-rule="evenodd" fill="#FFD520" d="M157.384,425.84c5.112,0,9.216-4.176,9.216-9.144
			c0-5.112-4.104-9.216-9.216-9.216c-5.04,0-9.216,4.104-9.216,9.216C148.168,421.664,152.344,425.84,157.384,425.84z"/>
		<polygon fill-rule="evenodd" clip-rule="evenodd" fill="#FFD520" points="176.32,376.376 133.048,376.376 145.72,349.52 
			175.6,349.52 		"/>
	</g>
</g>
</svg>
