<?xml version="1.0" encoding="utf-8"?>
<!-- Generator: Adobe Illustrator 15.1.0, SVG Export Plug-In . SVG Version: 6.00 Build 0)  -->
<!DOCTYPE svg PUBLIC "-//W3C//DTD SVG 1.0//EN" "http://www.w3.org/TR/2001/REC-SVG-20010904/DTD/svg10.dtd">
<svg version="1.0" id="Kuvataso_1" xmlns="http://www.w3.org/2000/svg" xmlns:xlink="http://www.w3.org/1999/xlink" x="0px" y="0px"
	 width="595px" height="842px" viewBox="0 0 595 842" enable-background="new 0 0 595 842" xml:space="preserve">
<g>
	<path fill-rule="evenodd" clip-rule="evenodd" fill="#FFD520" stroke="#FFD520" stroke-width="0.216" stroke-miterlimit="10" d="
		M275.968,619.304c136.008,0,246.96-110.952,246.96-246.888c0-136.008-110.952-246.96-246.96-246.96
		c-136.008,0-246.96,110.952-246.96,246.96C29.008,508.352,139.96,619.304,275.968,619.304z"/>
	<g>
		<path fill-rule="evenodd" clip-rule="evenodd" fill="#EF3E42" d="M275.968,135.896c130.248,0,236.52,106.272,236.52,236.52
			s-106.272,236.52-236.52,236.52v-47.88c103.896,0,188.712-84.744,188.712-188.64c0-103.968-84.816-188.712-188.712-188.712
			V135.896L275.968,135.896z M275.968,401.792L393.76,519.728l13.032-10.872l5.688-6.048l7.848-8.28l-144.36-144.504V401.792z
			 M275.968,608.936c-130.248,0-236.52-106.272-236.52-236.52s106.272-236.52,236.52-236.52v47.808
			c-103.896,0-188.712,84.744-188.712,188.712c0,103.896,84.816,188.64,188.712,188.64V608.936L275.968,608.936z M275.968,350.024
			L154.216,228.056l-10.872,10.008l-7.416,8.352l-6.912,8.136l146.952,147.24V350.024z"/>
		<path fill-rule="evenodd" clip-rule="evenodd" fill="none" stroke="#EF3E42" stroke-width="0.216" stroke-miterlimit="10" d="
			M275.968,135.896c130.248,0,236.52,106.272,236.52,236.52s-106.272,236.52-236.52,236.52c-130.248,0-236.52-106.272-236.52-236.52
			S145.72,135.896,275.968,135.896L275.968,135.896z M275.968,183.704c103.896,0,188.712,84.744,188.712,188.712
			c0,103.896-84.816,188.64-188.712,188.64S87.256,476.312,87.256,372.416C87.256,268.448,172.072,183.704,275.968,183.704
			L275.968,183.704z M129.016,254.552L393.76,519.728l13.032-10.872l5.688-6.048l7.848-8.28L154.216,228.056l-10.872,10.008
			l-7.416,8.352L129.016,254.552z"/>
	</g>
	<g>
		<polygon fill-rule="evenodd" clip-rule="evenodd" points="238.456,312.368 389.728,312.368 389.728,451.256 377.776,451.256 		"/>
		<g>
			<path fill-rule="evenodd" clip-rule="evenodd" d="M326.152,451.472L187.048,312.368h-27.072V437h-42.624v14.472h100.08
				l3.312-15.768c3.888-9.072,10.224-13.608,17.784-17.28c5.544-2.088,11.088-2.88,16.56-3.744c8.784,1.656,18.072,3.312,25.2,11.16
				c5.976,6.84,10.224,14.616,10.368,25.632H326.152z"/>
			<path fill-rule="evenodd" clip-rule="evenodd" d="M254.44,424.184c15.192,0,27.504,12.312,27.504,27.504
				c0,15.12-12.312,27.504-27.504,27.504v-15.336c6.768,0,12.24-5.472,12.24-12.168c0-6.768-5.472-12.24-12.24-12.24V424.184z
				 M254.44,479.192c-15.12,0-27.504-12.384-27.504-27.504c0-15.192,12.384-27.504,27.504-27.504v15.264
				c-6.696,0-12.168,5.472-12.168,12.24c0,6.696,5.472,12.168,12.168,12.168V479.192z"/>
		</g>
	</g>
</g>
</svg>
