<?xml version="1.0" encoding="UTF-8" standalone="no"?>
<!-- Generator: Adobe Illustrator 15.1.0, SVG Export Plug-In . SVG Version: 6.00 Build 0)  -->

<svg
   xmlns:dc="http://purl.org/dc/elements/1.1/"
   xmlns:cc="http://creativecommons.org/ns#"
   xmlns:rdf="http://www.w3.org/1999/02/22-rdf-syntax-ns#"
   xmlns:svg="http://www.w3.org/2000/svg"
   xmlns="http://www.w3.org/2000/svg"
   xmlns:sodipodi="http://sodipodi.sourceforge.net/DTD/sodipodi-0.dtd"
   xmlns:inkscape="http://www.inkscape.org/namespaces/inkscape"
   version="1.0"
   id="Kuvataso_1"
   x="0px"
   y="0px"
   width="494.20801"
   height="494.20801"
   viewBox="0 0 494.20801 494.20801"
   enable-background="new 0 0 595 842"
   xml:space="preserve"
   sodipodi:docname="321.svg"
   inkscape:version="0.92.5 (2060ec1f9f, 2020-04-08)"><metadata
   id="metadata1215"><rdf:RDF><cc:Work
       rdf:about=""><dc:format>image/svg+xml</dc:format><dc:type
         rdf:resource="http://purl.org/dc/dcmitype/StillImage" /></cc:Work></rdf:RDF></metadata><defs
   id="defs1213" /><sodipodi:namedview
   pagecolor="#ffffff"
   bordercolor="#666666"
   borderopacity="1"
   objecttolerance="10"
   gridtolerance="10"
   guidetolerance="10"
   inkscape:pageopacity="0"
   inkscape:pageshadow="2"
   inkscape:window-width="640"
   inkscape:window-height="480"
   id="namedview1211"
   showgrid="false"
   inkscape:zoom="0.28028504"
   inkscape:cx="268.708"
   inkscape:cy="198.808"
   inkscape:window-x="0"
   inkscape:window-y="0"
   inkscape:window-maximized="0"
   inkscape:current-layer="Kuvataso_1" />
<g
   id="g1208"
   transform="translate(-28.792,-125.6)">
	<polygon
   points="254.368,126.392 243.496,127.688 233.056,129.344 222.184,131.432 211.744,133.952 201.664,136.904 191.224,140.648 181.144,144.392 171.568,148.568 161.488,153.608 152.272,158.648 143.056,164.12 133.84,170.384 125.488,176.648 116.704,183.344 108.784,190.472 100.792,197.96 93.664,205.952 86.608,213.872 79.912,222.224 73.216,231.08 67.312,239.864 61.912,249.08 56.44,258.656 51.832,268.304 47.224,278.312 43.48,287.96 40.096,298.4 37.216,308.912 34.264,319.352 32.176,329.792 30.88,340.304 29.656,351.176 28.792,362.048 28.792,383.36 30.88,404.744 32.176,415.616 34.264,425.984 37.216,436.496 40.096,446.936 43.48,456.944 47.224,467.024 51.832,477.032 56.44,486.68 61.912,496.328 67.312,505.544 73.216,514.328 79.912,523.112 86.608,531.464 93.664,539.456 100.792,547.376 108.784,554.936 116.704,561.992 125.488,568.688 133.84,575.024 143.056,580.856 152.272,586.688 161.488,591.728 171.568,596.768 181.144,600.944 201.664,608.504 222.184,613.904 243.496,617.72 267.4,619.808 286.624,619.376 307.936,617.72 329.248,613.904 350.2,608.504 370.288,600.944 389.944,591.728 408.376,580.856 426.376,568.688 442.648,554.936 457.696,539.456 471.952,523.112 478.216,514.328 484.12,505.544 489.952,496.328 494.992,486.68 499.6,477.032 504.208,467.024 507.952,456.944 511.336,446.936 517.168,425.984 519.688,413.096 521.776,394.304 522.568,383.36 523,372.488 523,359.96 521.776,351.176 520.48,340.304 519.256,329.792 517.168,319.352 514.216,308.912 511.336,298.4 507.952,287.96 504.208,278.312 499.6,268.304 494.992,258.656 489.952,249.08 484.12,239.864 478.216,231.08 471.952,222.224 464.824,213.872 457.696,205.952 450.64,197.96 442.648,190.472 434.728,183.344 426.376,176.648 417.52,170.384 408.376,164.12 399.16,158.648 389.944,153.608 380.296,148.568 370.288,144.392 360.208,140.648 350.2,136.904 337.6,133.52 318.376,129.344 295.408,127.256 275.752,125.6 264.88,126.032 "
   id="polygon1188"
   style="clip-rule:evenodd;fill:#ffd200;fill-rule:evenodd" />
	<polygon
   points="254.8,133.952 244.36,135.176 234.28,136.472 223.84,138.56 213.832,141.08 203.752,144.032 193.744,147.344 184.096,151.088 174.448,155.264 165.232,159.872 156.016,164.912 146.872,170.384 138.448,176.216 129.664,182.48 121.744,189.176 113.752,195.872 106.264,203 99.136,210.992 92.008,218.48 85.744,226.832 79.48,235.256 73.576,244.04 68.176,252.824 63.136,262.04 58.528,271.256 54.352,280.832 50.608,290.912 47.224,300.488 44.272,310.568 41.824,321.008 39.736,331.088 38.008,341.528 36.784,351.968 36.352,362.48 36.352,383 38.008,403.88 39.736,414.392 41.824,424.328 44.272,434.768 47.224,444.848 50.608,454.496 54.352,464.504 58.528,473.72 63.136,483.368 68.176,492.584 73.576,501.368 79.48,510.152 85.744,518.504 92.008,526.856 99.136,534.416 106.264,541.904 113.752,549.464 121.744,556.16 129.664,562.856 138.448,569.12 146.872,575.024 156.016,579.992 165.232,585.032 174.448,590.072 184.096,594.248 203.752,601.376 223.84,606.776 244.36,610.16 267.76,612.248 286.192,612.248 307.072,610.16 327.592,606.776 347.68,601.376 367.336,594.248 386.56,585.032 404.56,575.024 421.768,562.856 437.608,549.464 452.296,534.416 465.688,518.504 471.952,510.152 477.784,501.368 483.256,492.584 488.296,483.368 492.904,473.72 497.08,464.504 500.824,454.496 504.208,444.848 509.608,424.328 512.128,412.232 514.648,393.44 515.08,383 515.512,372.488 515.512,360.392 514.648,351.968 513.424,341.528 511.696,331.088 509.608,321.008 507.088,310.568 504.208,300.488 500.824,290.912 497.08,280.832 492.904,271.256 488.296,262.04 483.256,252.824 477.784,244.04 471.952,235.256 465.688,226.832 459.424,218.48 452.296,210.992 445.168,203 437.608,195.872 429.688,189.176 421.768,182.48 413.344,176.216 404.56,170.384 395.344,164.912 386.56,159.872 376.984,155.264 367.336,151.088 357.688,147.344 347.68,144.032 335.944,141.08 317.08,136.472 294.544,134.816 275.752,133.088 265.312,133.088 "
   id="polygon1190"
   style="clip-rule:evenodd;fill:#ef3e42;fill-rule:evenodd" />
	<polygon
   points="259.408,184.208 251.056,185 243.136,186.296 234.712,187.952 226.792,190.04 218.8,192.128 210.88,195.08 203.32,197.96 195.832,201.344 188.272,204.656 181.144,208.832 174.016,213.08 167.32,217.688 160.624,222.656 153.928,227.696 148.096,233.168 141.832,239 136.36,244.832 130.96,251.168 125.488,257.432 120.88,264.128 116.272,270.824 112.096,277.952 107.92,285.44 104.176,292.568 100.792,300.128 97.912,308.048 95.392,315.608 92.872,323.528 91.216,331.88 89.488,339.872 88.264,347.792 87.4,356.216 86.608,364.568 86.608,380.912 88.264,397.184 89.488,405.536 91.216,413.528 92.872,421.376 95.392,429.368 97.912,437.288 100.792,444.848 104.176,452.336 107.92,459.896 112.096,467.024 116.272,474.152 120.88,481.28 125.488,487.976 130.96,494.24 136.36,500.504 141.832,506.336 148.096,512.24 153.928,517.64 160.624,522.68 167.32,527.72 174.016,532.328 181.144,536.504 188.272,540.248 195.832,543.992 203.32,547.376 218.8,553.208 234.712,557.384 251.056,560.336 269.488,561.992 284.104,561.632 300.376,560.336 316.72,557.384 332.56,553.208 348.112,547.376 363.16,540.248 377.344,532.328 390.736,522.68 403.768,512.24 415.072,500.504 425.944,487.976 430.552,481.28 435.16,474.152 439.768,467.024 443.512,459.896 447.256,452.336 450.64,444.848 453.52,437.288 456.04,429.368 460.648,413.528 462.304,403.88 464.392,389.264 464.824,380.912 464.824,372.488 464.824,362.912 464.392,356.216 463.168,347.792 461.944,339.872 460.648,331.88 458.56,323.528 456.04,315.608 453.52,308.048 450.64,300.128 447.256,292.568 443.512,285.44 439.768,277.952 435.16,270.824 430.552,264.128 425.944,257.432 420.472,251.168 415.072,244.832 409.6,239 403.768,233.168 397.432,227.696 390.736,222.656 384.04,217.688 377.344,213.08 370.288,208.832 363.16,204.656 355.6,201.344 348.112,197.96 340.552,195.08 332.56,192.128 322.984,189.608 308.728,186.296 290.8,184.568 275.752,183.344 267.4,183.776 "
   id="polygon1192"
   style="clip-rule:evenodd;fill:#ffd200;fill-rule:evenodd" />
	<polygon
   points="424.648,494.24 154.36,223.52 126.784,251.168 397.072,521.024 "
   id="polygon1194"
   style="clip-rule:evenodd;fill:#ef3e42;fill-rule:evenodd" />
	<g
   id="g1206">
		<polygon
   points="233.488,269.528 210.448,280.04 217.144,286.736 237.232,276.224 "
   id="polygon1196"
   style="clip-rule:evenodd;fill-rule:evenodd" />
		<polygon
   points="167.752,300.128 167.32,303.44 167.32,306.824 168.184,310.136 169.048,313.088 170.272,316.04 172.36,318.488 188.272,314.312 180.352,343.616 175.312,342.824 169.84,342.392 164.44,342.824 159.4,343.184 153.928,344.048 148.96,345.704 143.92,347.792 139.312,349.88 141.832,354.92 137.656,357.44 133.84,360.392 130.096,363.704 126.784,367.088 123.832,371.264 120.88,375.44 118.792,379.616 116.704,384.224 115.48,389.264 114.616,393.872 113.752,398.84 113.752,403.88 114.184,408.92 115.048,413.96 116.272,418.568 118,423.104 120.088,427.712 122.536,431.888 125.488,436.064 128.872,439.808 132.184,443.192 135.928,446.504 140.176,449.024 144.784,451.544 149.32,453.2 153.928,454.856 158.968,456.152 163.576,456.584 168.616,456.584 173.656,456.584 178.624,455.72 183.232,454.496 188.272,452.768 192.448,451.112 197.056,448.592 200.8,445.64 205.048,442.328 208.36,438.944 211.744,435.2 214.192,431.024 216.712,426.848 218.8,422.24 224.272,423.896 225.928,418.928 227.224,413.96 227.584,408.488 228.016,403.448 228.016,398.048 227.224,393.008 226.36,387.968 224.704,383 223.048,377.96 220.528,373.352 218.008,368.744 214.624,364.568 211.312,360.824 207.496,357.008 203.32,354.128 199.144,351.176 194.536,348.656 189.496,346.568 192.016,340.664 199.576,340.664 248.968,397.616 247.312,403.448 247.312,409.352 249.4,414.752 251.056,417.272 255.232,421.376 260.704,423.896 263.584,424.328 297.064,421.088 169.84,294.224 168.616,297.176 "
   id="polygon1198"
   style="clip-rule:evenodd;fill-rule:evenodd" />
		<polygon
   points="176.104,396.392 177.832,399.704 178.264,403.448 176.968,407.264 174.448,410.144 170.704,411.872 166.96,412.232 163.144,411.008 160.264,408.056 158.536,404.744 158.536,401 159.832,397.184 162.352,394.304 165.664,392.576 167.752,392.144 175.744,362.048 171.568,361.616 166.96,361.616 162.712,362.048 158.536,362.48 154.36,363.704 150.616,365.36 146.872,367.52 143.056,369.968 140.176,372.488 136.792,375.872 134.272,379.184 132.184,382.568 130.096,386.744 128.872,390.488 128.008,394.664 127.144,398.84 127.144,403.448 127.576,408.92 129.664,416.048 133.048,423.464 135.568,427.28 138.448,430.592 141.4,433.112 144.784,436.064 148.528,438.152 152.272,440.24 156.448,441.464 160.624,442.328 173.656,442.76 177.832,441.896 181.576,440.672 185.752,438.944 189.496,437.288 192.88,434.768 196.264,431.888 199.144,428.936 201.664,425.552 204.184,421.808 205.84,417.704 207.136,413.96 208.36,409.784 208.792,405.536 208.792,396.752 207.928,392.576 206.704,388.4 205.048,384.656 202.96,380.912 200.44,377.528 197.488,374.216 194.536,371.264 191.224,368.744 187.408,366.224 183.664,364.568 173.224,393.44 "
   id="polygon1200"
   style="clip-rule:evenodd;fill:#ffd200;fill-rule:evenodd" />
		<polygon
   points="397.432,451.976 401.68,449.888 405.856,447.368 409.6,444.416 413.344,441.464 416.728,438.152 420.04,434.408 422.56,430.16 425.08,425.984 427.168,421.808 432.64,423.464 434.728,418.568 435.952,413.528 436.816,408.488 436.816,403.088 436.816,398.048 436.384,392.576 435.16,387.608 433.864,382.568 431.776,377.528 429.688,372.92 426.736,368.744 423.424,364.568 420.04,360.392 416.296,357.008 412.12,353.696 410.032,352.4 412.984,340.664 413.344,339.44 412.984,338.216 412.552,337.352 411.688,336.92 410.464,336.488 341.776,336.488 346.816,320.216 346.816,319.352 346.384,318.488 345.952,317.696 345.16,317.264 344.296,316.832 302.464,316.832 301.6,316.832 300.376,317.696 299.944,318.488 299.512,319.352 299.944,320.216 301.6,327.272 302.896,328.568 304.552,329.432 312.904,333.176 298.72,368.312 346.816,416.048 379.864,412.664 381.592,411.872 383.248,410.576 384.904,409.352 386.128,407.696 386.992,405.968 387.856,403.88 387.856,402.224 387.424,399.704 386.992,397.616 385.768,395.96 384.472,394.304 382.816,393.008 381.16,392.144 379.072,391.784 376.984,391.352 361.864,364.136 364.816,363.272 370.288,362.048 374.464,361.184 378.64,361.184 382.816,361.616 386.992,362.48 391.168,363.704 394.984,365.36 398.728,367.088 402.04,369.608 405.424,372.488 408.376,375.44 410.824,378.752 412.984,382.568 414.64,386.312 416.296,390.056 417.16,394.304 417.952,398.48 417.952,402.656 417.52,406.832 417.16,411.008 415.864,415.184 414.64,418.568 412.552,422.24 410.464,425.984 407.512,429.368 404.56,432.248 401.248,434.768 397.864,437.288 394.12,439.376 389.944,440.672 385.768,441.896 381.592,442.76 377.344,442.76 373.168,442.76 386.56,455.72 385.768,455.288 392.824,453.632 "
   id="polygon1202"
   style="clip-rule:evenodd;fill-rule:evenodd" />
		<polygon
   points="355.168,367.52 351.856,369.968 348.904,372.488 345.952,375.872 343.072,379.184 340.984,382.568 339.256,386.312 338.032,390.488 368.56,391.352 "
   id="polygon1204"
   style="clip-rule:evenodd;fill:#ffd200;fill-rule:evenodd" />
	</g>
</g>
</svg>