<?xml version="1.0" encoding="utf-8"?>
<!-- Generator: Adobe Illustrator 15.1.0, SVG Export Plug-In . SVG Version: 6.00 Build 0)  -->
<!DOCTYPE svg PUBLIC "-//W3C//DTD SVG 1.0//EN" "http://www.w3.org/TR/2001/REC-SVG-20010904/DTD/svg10.dtd">
<svg version="1.0" id="Layer_1" xmlns="http://www.w3.org/2000/svg" xmlns:xlink="http://www.w3.org/1999/xlink" x="0px" y="0px"
	 width="595px" height="842px" viewBox="0 0 595 842" enable-background="new 0 0 595 842" xml:space="preserve">
<g>
	<polygon fill-rule="evenodd" clip-rule="evenodd" fill="#FFD200" points="284.68,145.976 274.24,146.408 263.368,146.84 
		252.496,148.064 241.984,149.72 231.112,151.808 220.672,154.328 210.592,157.712 200.152,161.024 190.144,164.84 180.496,169.448 
		170.848,174.056 161.2,179.024 152.056,184.928 143.2,190.76 134.416,197.024 126.064,203.72 117.712,210.848 110.152,218.408 
		102.664,226.328 95.536,234.32 88.84,242.672 82.144,251.456 76.24,260.24 70.84,269.888 65.368,279.104 60.76,288.68 
		56.584,298.76 52.408,308.768 49.024,318.848 46.144,329.288 43.624,339.8 41.536,350.24 39.88,361.112 38.584,371.552 
		37.72,382.496 37.72,403.808 39.88,425.48 41.536,435.992 43.624,446.864 46.144,457.304 49.024,467.384 52.408,477.824 
		56.584,487.832 60.76,497.48 65.368,507.128 70.84,516.776 76.24,525.92 82.144,534.776 88.84,543.56 95.536,551.912 
		102.664,560.264 110.152,567.824 117.712,575.312 126.064,582.44 134.416,589.136 143.2,595.4 152.056,601.736 161.2,607.136 
		170.848,612.608 180.496,617.216 190.144,621.392 210.592,628.952 231.112,634.352 252.496,638.096 276.328,640.256 
		295.552,640.256 316.864,638.096 338.176,634.352 359.128,628.952 379.216,621.392 398.872,612.608 417.304,601.736 
		435.304,589.136 451.648,575.312 467.128,560.264 480.952,543.56 487.216,534.776 493.048,525.92 498.952,516.776 503.92,507.128 
		508.96,497.48 513.136,487.832 516.952,477.824 520.264,467.384 526.168,446.864 528.616,433.904 531.136,414.68 531.568,403.808 
		532,393.368 532,380.336 531.136,371.552 529.912,361.112 528.256,350.24 526.168,339.8 523.648,329.288 520.264,318.848 
		516.952,308.768 513.136,298.76 508.96,288.68 503.92,279.104 498.952,269.888 493.048,260.24 487.216,251.456 480.952,242.672 
		474.256,234.32 467.128,226.328 459.568,218.408 451.648,210.848 443.656,203.72 435.304,197.024 426.52,190.76 417.304,184.928 
		408.088,179.024 398.872,174.056 389.296,169.448 379.216,164.84 369.208,161.024 359.128,157.712 346.6,154.328 327.736,149.72 
		304.336,148.064 	"/>
	<polygon fill-rule="evenodd" clip-rule="evenodd" fill="#EF3E42" points="284.68,153.536 274.24,153.968 263.8,154.328 
		253.288,155.624 243.28,157.28 232.768,159.368 222.76,161.888 212.68,164.408 202.672,168.152 193.024,171.968 183.376,176.144 
		174.232,180.752 165.016,185.72 155.8,191.192 147.448,197.024 139.024,202.928 130.672,209.624 122.752,216.32 115.192,223.808 
		108.064,231.368 100.936,239.288 94.672,247.28 88.408,255.632 82.576,264.416 77.104,273.2 72.064,282.416 67.456,292.064 
		63.28,301.712 59.536,311.288 56.152,321.368 53.272,331.376 50.752,341.456 48.664,351.464 46.936,361.976 46.144,372.416 
		45.28,382.856 45.28,403.808 46.936,424.256 48.664,434.696 50.752,445.208 53.272,455.216 56.152,465.296 59.536,475.304 
		63.28,484.952 67.456,494.6 72.064,503.744 77.104,512.96 82.576,521.744 88.408,530.528 94.672,538.952 100.936,547.304 
		108.064,555.224 115.192,562.784 122.752,569.912 130.672,577.04 139.024,583.304 147.448,589.568 155.8,595.4 165.016,600.872 
		174.232,605.912 183.376,610.52 193.024,614.696 212.68,621.824 232.768,627.224 253.288,631.04 276.76,633.128 295.192,632.696 
		316,631.04 336.52,627.224 356.608,621.824 376.264,614.696 395.56,605.912 413.56,595.4 430.696,583.304 446.608,569.912 
		461.224,555.224 475.048,538.952 480.952,530.528 486.784,521.744 492.256,512.96 497.224,503.744 501.832,494.6 506.008,484.952 
		510.256,475.304 513.568,465.296 518.608,445.208 521.128,432.608 523.648,414.248 524.44,403.808 524.44,393.368 524.44,380.768 
		523.648,372.416 522.352,361.976 520.696,351.464 518.608,341.456 516.088,331.376 513.568,321.368 510.256,311.288 
		506.008,301.712 501.832,292.064 497.224,282.416 492.256,273.2 486.784,264.416 480.952,255.632 475.048,247.28 468.352,239.288 
		461.224,231.368 454.168,223.808 446.608,216.32 438.688,209.624 430.696,202.928 422.344,197.024 413.56,191.192 404.776,185.72 
		395.56,180.752 385.912,176.144 376.264,171.968 366.688,168.152 356.608,164.408 344.872,161.456 326.512,157.28 303.472,155.192 
			"/>
	<polygon fill-rule="evenodd" clip-rule="evenodd" fill="#FFD200" points="284.68,204.152 276.76,204.152 268.408,204.584 
		259.984,205.448 252.064,207.104 243.712,208.328 235.72,210.416 227.8,212.504 220.24,215.456 212.32,218.408 204.76,221.72 
		197.2,225.536 190.144,229.28 183.016,233.456 176.32,238.064 169.624,243.104 163.288,248.144 157.024,253.544 151.192,259.376 
		145.288,265.28 139.888,271.544 134.848,277.808 129.808,284.504 125.2,291.632 121.024,298.76 116.848,305.888 113.104,313.376 
		109.72,320.936 106.84,328.496 104.32,336.416 102.232,344.408 100.144,352.328 98.416,360.248 97.192,368.672 96.328,376.592 
		95.536,384.944 95.536,401.288 97.192,418.064 98.416,425.912 100.144,434.264 102.232,442.256 104.32,450.176 106.84,457.736 
		109.72,465.656 113.104,473.216 116.848,480.776 121.024,487.832 125.2,494.96 129.808,501.656 134.848,508.352 139.888,514.688 
		145.288,520.952 151.192,526.784 157.024,532.688 163.288,538.088 169.624,543.128 176.32,548.168 183.016,552.776 
		190.144,556.952 197.2,561.128 204.76,564.872 212.32,567.824 227.8,573.656 243.712,577.832 259.984,580.784 278.416,582.44 
		293.104,582.008 309.304,580.784 325.648,577.832 341.56,573.656 357.04,567.824 372.088,561.128 386.344,552.776 400.168,543.128 
		412.696,532.688 424.432,520.952 434.872,508.352 439.912,501.656 444.52,494.96 448.696,487.832 452.44,480.776 456.256,473.216 
		459.568,465.656 462.52,457.736 465.472,450.176 469.648,434.264 471.304,424.256 473.392,409.64 473.824,401.288 473.824,393.368 
		473.824,383.288 473.392,376.592 472.528,368.672 471.304,360.248 469.648,352.328 467.56,344.408 465.472,336.416 462.52,328.496 
		459.568,320.936 456.256,313.376 452.44,305.888 448.696,298.76 444.52,291.632 439.912,284.504 434.872,277.808 429.832,271.544 
		424.432,265.28 418.6,259.376 412.696,253.544 406.432,248.144 400.168,243.104 393.472,238.064 386.344,233.456 379.216,229.28 
		372.088,225.536 364.6,221.72 357.04,218.408 349.48,215.456 341.56,212.504 332.344,210.416 317.728,207.104 299.728,205.448 	"/>
	<g>
		<polygon fill-rule="evenodd" clip-rule="evenodd" fill="#EF3E42" points="136.144,271.544 406,541.832 433.648,514.688 
			163.288,244.328 		"/>
		<polygon fill-rule="evenodd" clip-rule="evenodd" points="308.872,444.344 247.456,444.344 253.288,427.568 247.888,424.688 
			247.024,424.256 246.592,423.392 246.592,422.6 247.456,421.736 248.68,421.736 252.496,421.736 259.984,422.168 265.456,422.96 
			266.32,419.288 259.552,418.424 253.288,418.064 246.592,418.064 243.712,418.856 241.984,420.944 241.624,422.96 241.624,425.12 
			242.416,425.912 247.888,429.296 234.928,464.432 229.024,462.344 224.848,461.48 220.672,461.048 216.496,461.048 
			212.32,461.912 212.32,464.432 206.416,466.088 202.24,467.384 198.496,469.472 194.68,471.56 191.368,474.08 188.416,476.96 
			185.536,480.344 183.016,484.088 181.288,487.832 179.632,491.648 178.408,495.824 177.544,500 177.112,504.176 177.112,508.352 
			177.544,512.96 178.84,517.136 180.064,520.952 181.72,524.696 184.24,528.44 189.712,535.136 193.024,538.088 196.408,540.608 
			200.152,542.696 203.896,544.352 208.072,545.648 212.32,546.44 216.496,546.872 220.672,546.872 225.28,546.44 229.456,545.648 
			233.2,543.92 237.376,542.264 240.76,540.176 244.504,537.656 247.456,534.776 250.408,531.824 252.856,528.44 255.376,524.696 
			257.464,525.92 259.192,521.744 260.848,518 261.712,513.824 262.504,509.648 262.504,505.472 262.504,500.864 261.712,496.688 
			260.416,492.08 259.192,488.696 257.464,484.52 255.376,481.136 252.856,477.392 249.976,474.44 246.592,471.56 243.28,469.04 
			239.464,466.52 241.192,462.344 281.368,506.264 280.504,507.56 279.712,509.648 279.28,511.736 279.28,514.256 279.712,516.344 
			280.504,518.864 281.8,520.52 283.456,522.176 285.544,523.472 287.632,524.264 290.152,524.696 292.24,524.696 295.192,534.344 
			292.24,534.344 292.24,537.224 303.04,537.224 303.04,534.344 298.072,534.344 295.552,523.832 297.28,522.608 298.864,521.384 
			300.088,519.656 301.384,517.568 302.176,515.912 302.176,513.824 310.168,512.528 310.6,514.256 311.824,518.432 313.12,522.176 
			315.208,526.352 317.728,530.528 320.176,533.048 323.128,536.432 326.512,538.952 329.824,541.472 333.568,543.128 
			337.816,544.784 341.56,546.08 345.736,546.872 350.776,547.304 354.52,546.872 358.696,546.44 362.872,545.216 366.688,543.92 
			370.864,541.832 374.176,539.744 377.56,537.224 380.872,534.344 383.392,530.96 385.912,527.648 388,523.832 381.304,517.136 
			379.216,521.744 377.128,524.696 375.04,527.648 372.52,530.168 369.568,532.256 366.256,534.344 363.304,536 358.696,537.224 
			354.952,538.088 350.776,538.088 345.304,537.656 341.56,536.864 338.176,536 334.864,534.344 331.912,532.256 328.96,530.168 
			326.512,527.648 323.992,524.696 321.904,521.744 320.608,518.432 319.384,515.048 318.088,511.304 344.512,507.992 
			346.168,510.44 348.256,511.736 351.568,512.168 353.296,511.736 354.52,510.872 355.816,509.648 357.04,507.992 357.472,506.264 
			357.04,504.608 356.608,502.952 355.816,501.296 354.52,500.432 352.864,499.568 351.568,499.136 337.816,475.304 339.04,474.872 
			321.904,457.304 327.736,467.744 323.992,470.264 320.608,473.216 317.728,476.6 314.776,479.912 312.256,484.088 
			310.168,487.832 308.872,492.08 307.648,496.256 306.784,500.864 306.784,505.472 306.784,507.128 301.384,507.992 
			299.728,505.472 297.712,503.384 318.088,453.992 313.912,449.744 292.672,501.656 290.944,501.296 289.288,501.296 
			286.768,491.216 290.152,491.216 290.152,488.264 278.848,488.264 278.848,491.216 283.888,491.216 286.768,502.088 
			285.544,502.952 243.28,456.512 245.8,449.744 313.912,449.744 		"/>
		<polygon fill-rule="evenodd" clip-rule="evenodd" fill="#FFD200" points="333.208,477.824 346.168,500.432 345.304,501.656 
			344.872,502.952 317.728,505.832 318.088,502.088 318.52,498.344 319.384,494.96 321.04,491.648 322.696,488.264 324.784,485.384 
			327.304,482.432 330.256,479.912 		"/>
		<polygon fill-rule="evenodd" clip-rule="evenodd" fill="#FFD200" points="230.68,475.304 226.936,486.608 224.848,491.216 
			219.016,500 217.72,500 216.064,500.432 214.768,501.296 213.976,502.088 213.112,503.384 212.68,505.04 213.112,506.264 
			213.544,507.992 213.976,509.216 215.2,510.08 216.496,510.872 217.72,510.872 219.376,510.872 220.672,510.44 221.896,509.648 
			222.76,508.784 223.624,507.128 223.984,505.832 223.624,504.608 223.192,502.952 226.504,498.344 229.456,493.304 
			231.976,488.264 234.064,482.864 235.72,477.824 239.896,480.776 242.416,483.296 244.936,485.744 247.024,489.128 248.68,492.08 
			249.976,495.824 250.768,499.136 251.2,502.952 251.2,506.264 251.2,510.08 250.408,513.824 249.112,517.136 247.888,520.52 
			246.16,523.472 243.712,526.352 241.192,529.304 238.672,531.824 235.72,533.912 232.408,535.568 229.024,536.864 
			225.712,537.656 221.896,538.52 218.152,538.52 214.408,538.088 211.024,537.656 207.28,536.432 203.896,535.136 200.584,533.048 
			197.632,530.96 194.68,528.44 191.8,525.128 190.144,522.608 188.416,519.224 187.192,515.912 186.328,512.168 185.536,508.352 
			185.536,504.608 185.896,501.296 186.76,497.48 187.624,493.736 189.28,490.352 190.936,487.04 193.456,484.088 195.976,481.568 
			198.928,479.048 201.808,476.96 205.192,475.304 208.936,474.08 212.32,473.216 216.064,472.784 219.808,472.784 223.624,473.216 
			227.368,474.08 		"/>
		<polygon fill-rule="evenodd" clip-rule="evenodd" points="239.464,375.368 230.32,389.552 218.152,388.76 215.2,391.28 
			234.928,402.944 249.976,385.376 		"/>
		<polygon fill-rule="evenodd" clip-rule="evenodd" points="274.672,355.712 288.496,338.072 307.648,367.808 336.52,395.456 
			335.728,399.2 331.48,399.632 330.688,402.944 342.424,402.944 349.912,392.504 322.264,358.592 306.784,325.112 307.648,322.16 
			308.08,319.28 307.648,316.328 307.216,313.376 305.992,310.496 305.128,307.976 304.336,305.456 303.904,302.504 
			303.904,299.984 305.56,282.848 312.256,291.2 316,320.072 316.432,321.368 317.296,322.16 318.52,323.024 319.384,323.024 
			320.608,323.024 321.904,322.592 322.696,321.8 323.56,320.936 323.992,319.712 323.992,318.848 323.128,313.016 324.784,312.584 
			322.264,281.984 309.736,261.536 308.08,259.808 305.56,258.152 301.816,255.632 298.072,253.112 294.76,249.8 293.104,246.416 
			292.672,245.192 293.104,242.24 293.104,240.584 293.464,238.064 293.896,235.976 294.76,233.024 295.192,230.936 294.76,227.984 
			294.328,225.896 293.464,223.448 292.24,221.288 290.584,219.2 288.496,217.976 285.976,217.544 283.456,217.112 280.936,217.112 
			278.848,217.544 276.328,218.84 274.24,220.064 272.584,221.72 271.72,223.808 271.72,225.104 271.72,227.192 271.72,228.848 
			271.72,230.936 272.152,232.592 272.152,234.68 272.584,236.408 273.016,238.928 273.376,241.016 274.24,243.104 275.464,246.848 
			275.896,247.712 277.192,248.504 278.416,248.936 279.712,248.936 280.504,249.368 281.368,251.024 280.504,252.32 
			280.072,253.112 277.192,254.84 274.672,256.064 273.016,257.72 271.72,259.016 270.856,261.104 265.888,284.072 244.504,304.16 
			243.712,305.024 243.28,306.32 243.28,307.544 243.712,308.768 244.504,310.064 245.368,310.928 246.592,311.288 248.32,311.288 
			249.544,310.928 254.152,306.68 255.376,308.408 271.72,294.584 276.328,287.456 280.072,309.632 260.848,341.888 		"/>
	</g>
</g>
</svg>
