<?xml version="1.0" encoding="UTF-8" standalone="no"?>
<!-- Generator: Adobe Illustrator 15.1.0, SVG Export Plug-In . SVG Version: 6.00 Build 0)  -->

<svg
   xmlns:dc="http://purl.org/dc/elements/1.1/"
   xmlns:cc="http://creativecommons.org/ns#"
   xmlns:rdf="http://www.w3.org/1999/02/22-rdf-syntax-ns#"
   xmlns:svg="http://www.w3.org/2000/svg"
   xmlns="http://www.w3.org/2000/svg"
   xmlns:sodipodi="http://sodipodi.sourceforge.net/DTD/sodipodi-0.dtd"
   xmlns:inkscape="http://www.inkscape.org/namespaces/inkscape"
   version="1.1"
   id="Layer_1"
   x="0px"
   y="0px"
   width="496.06299"
   height="396.78299"
   viewBox="0 0 496.06296 396.78298"
   xml:space="preserve"
   sodipodi:docname="331-2.svg"
   inkscape:version="0.92.5 (2060ec1f9f, 2020-04-08)"><metadata
   id="metadata1345"><rdf:RDF><cc:Work
       rdf:about=""><dc:format>image/svg+xml</dc:format><dc:type
         rdf:resource="http://purl.org/dc/dcmitype/StillImage" /></cc:Work></rdf:RDF></metadata><defs
   id="defs1343" /><sodipodi:namedview
   pagecolor="#ffffff"
   bordercolor="#666666"
   borderopacity="1"
   objecttolerance="10"
   gridtolerance="10"
   guidetolerance="10"
   inkscape:pageopacity="0"
   inkscape:pageshadow="2"
   inkscape:window-width="640"
   inkscape:window-height="480"
   id="namedview1341"
   showgrid="false"
   inkscape:zoom="0.28032165"
   inkscape:cx="248.03201"
   inkscape:cy="198.39099"
   inkscape:window-x="0"
   inkscape:window-y="0"
   inkscape:window-maximized="0"
   inkscape:current-layer="Layer_1" />
<g
   id="LWPOLYLINE_23_"
   transform="translate(-49.608,-222.553)">
	<path
   style="fill:#ffd200"
   d="m 67.526,494.504 c 13.381,25.852 32.042,48.548 54.708,66.755 23.35,18.63 49.839,33.013 78.164,42.419 31.359,10.317 64.176,15.658 97.264,15.658 32.998,0 65.83,-5.341 97.205,-15.658 28.4,-9.406 54.8,-23.789 78.163,-42.419 22.696,-18.207 41.327,-40.903 54.739,-66.755 11.713,-22.758 17.902,-47.958 17.902,-73.567 0,-25.624 -6.189,-50.87 -17.902,-73.552 -13.412,-25.867 -32.043,-48.594 -54.739,-66.77 -23.363,-18.661 -49.763,-32.998 -78.163,-42.435 -31.375,-10.393 -64.207,-15.627 -97.205,-15.627 -33.088,0 -65.904,5.234 -97.264,15.627 -28.325,9.437 -54.814,23.773 -78.164,42.435 -22.666,18.176 -41.327,40.902 -54.708,66.77 -11.742,22.682 -17.918,47.928 -17.918,73.552 0,25.609 6.176,50.809 17.918,73.567 z"
   id="path1331"
   inkscape:connector-curvature="0" />
</g>
<g
   id="LWPOLYLINE_24_"
   transform="translate(-49.608,-222.553)">
	<path
   style="fill:#ef3e42"
   d="m 128.046,553.977 c 22.515,17.993 48.002,31.799 75.28,40.841 30.435,10.074 62.234,15.232 94.336,15.232 32.043,0 63.827,-5.158 94.292,-15.232 27.309,-9.042 52.736,-22.848 75.251,-40.841 21.695,-17.356 39.507,-39.083 52.251,-63.782 11.105,-21.36 16.93,-45.165 16.93,-69.258 0,-24.153 -5.824,-47.881 -16.93,-69.318 -12.744,-24.653 -30.556,-46.364 -52.251,-63.735 -22.515,-17.964 -47.942,-31.8 -75.251,-40.842 -30.465,-10.059 -62.249,-15.202 -94.292,-15.202 -32.102,0 -63.901,5.144 -94.336,15.202 -27.278,9.042 -52.766,22.878 -75.28,40.842 -21.681,17.371 -39.477,39.082 -52.251,63.735 -11.09,21.438 -16.901,45.165 -16.901,69.318 0,24.093 5.812,47.897 16.901,69.258 12.774,24.699 30.57,46.425 52.251,63.782 z"
   id="path1334"
   inkscape:connector-curvature="0" />
</g>
<g
   id="LWPOLYLINE_25_"
   transform="translate(-49.608,-222.553)">
	<path
   style="fill:#ffd200"
   d="M 505.498,382.219 H 89.844 c -4.021,12.487 -6.13,25.579 -6.13,38.718 0,13.154 2.109,26.186 6.13,38.702 h 415.654 c 4.005,-12.517 6.068,-25.548 6.068,-38.702 0,-13.139 -2.063,-26.231 -6.068,-38.718 z"
   id="path1337"
   inkscape:connector-curvature="0" />
</g>
</svg>