<?xml version="1.0" encoding="UTF-8" standalone="no"?>
<!-- Generator: Adobe Illustrator 15.1.0, SVG Export Plug-In . SVG Version: 6.00 Build 0)  -->

<svg
   xmlns:dc="http://purl.org/dc/elements/1.1/"
   xmlns:cc="http://creativecommons.org/ns#"
   xmlns:rdf="http://www.w3.org/1999/02/22-rdf-syntax-ns#"
   xmlns:svg="http://www.w3.org/2000/svg"
   xmlns="http://www.w3.org/2000/svg"
   xmlns:sodipodi="http://sodipodi.sourceforge.net/DTD/sodipodi-0.dtd"
   xmlns:inkscape="http://www.inkscape.org/namespaces/inkscape"
   version="1.0"
   id="Layer_1"
   x="0px"
   y="0px"
   width="495.43201"
   height="495.43201"
   viewBox="0 0 495.43201 495.43201"
   enable-background="new 0 0 595 842"
   xml:space="preserve"
   sodipodi:docname="332.svg"
   inkscape:version="0.92.5 (2060ec1f9f, 2020-04-08)"><metadata
   id="metadata1386"><rdf:RDF><cc:Work
       rdf:about=""><dc:format>image/svg+xml</dc:format><dc:type
         rdf:resource="http://purl.org/dc/dcmitype/StillImage" /></cc:Work></rdf:RDF></metadata><defs
   id="defs1384" /><sodipodi:namedview
   pagecolor="#ffffff"
   bordercolor="#666666"
   borderopacity="1"
   objecttolerance="10"
   gridtolerance="10"
   guidetolerance="10"
   inkscape:pageopacity="0"
   inkscape:pageshadow="2"
   inkscape:window-width="640"
   inkscape:window-height="480"
   id="namedview1382"
   showgrid="false"
   inkscape:zoom="0.28028504"
   inkscape:cx="259.636"
   inkscape:cy="219.256"
   inkscape:window-x="0"
   inkscape:window-y="0"
   inkscape:window-maximized="0"
   inkscape:current-layer="Layer_1" />
<g
   id="g1379"
   transform="translate(-37.864,-144.824)">
	<polygon
   points="264.016,145.688 253.072,146.984 242.632,148.64 232.12,150.728 221.68,153.248 211.168,156.632 200.656,159.944 191.008,163.76 180.928,168.368 171.28,172.976 161.632,178.016 152.416,183.848 143.632,189.752 134.776,196.016 126.424,202.712 118,209.912 110.44,217.4 102.952,225.392 95.824,233.384 89.056,241.736 82.792,250.592 76.528,259.376 71.056,269.024 66.016,278.24 60.976,287.888 56.8,297.968 52.552,308.048 49.24,318.128 46.288,328.568 43.768,339.08 41.68,349.592 40.024,360.464 38.728,370.976 37.864,381.848 37.864,403.304 40.024,425.048 41.68,435.488 43.768,446.432 46.288,456.872 49.24,466.952 52.552,477.464 56.8,487.544 60.976,497.192 66.016,506.84 71.056,516.488 76.528,525.704 82.792,534.488 89.056,543.344 95.824,551.696 102.952,560.12 110.44,567.68 118,575.168 126.424,582.296 134.776,589.064 143.632,595.328 152.416,601.592 161.632,607.064 171.28,612.536 180.928,617.144 191.008,621.32 211.168,628.88 232.12,634.352 253.072,638.096 277.048,640.256 296.344,640.256 317.656,638.096 339.04,634.352 359.992,628.88 380.152,621.32 399.88,612.536 418.744,601.592 436.384,589.064 452.728,575.168 468.208,560.12 482.104,543.344 488.368,534.488 494.272,525.704 500.104,516.488 505.144,506.84 510.184,497.192 514.36,487.544 518.176,477.464 521.92,466.952 527.392,446.432 529.912,433.4 532.432,414.176 532.864,403.304 533.296,392.792 533.296,379.76 532.432,370.976 531.136,360.464 529.48,349.592 527.392,339.08 524.872,328.568 521.92,318.128 518.176,308.048 514.36,297.968 510.184,287.888 505.144,278.24 500.104,269.024 494.272,259.376 488.368,250.592 482.104,241.736 475.408,233.384 468.208,225.392 460.72,217.4 452.728,209.912 444.736,202.712 436.384,196.016 427.528,189.752 418.744,183.848 409.528,178.016 399.88,172.976 390.232,168.368 380.152,163.76 370.072,159.944 359.992,156.632 347.392,153.248 328.528,148.64 305.056,146.984 285.4,144.824 274.888,145.256 "
   id="polygon1367"
   style="clip-rule:evenodd;fill:#ffd200;fill-rule:evenodd" />
	<polygon
   points="264.88,153.248 254.368,154.472 243.856,156.2 233.416,158.288 223.336,160.808 213.256,163.328 203.608,167.072 193.528,170.888 183.88,175.064 174.664,179.672 165.448,184.712 156.592,190.184 147.808,196.016 139.456,201.92 131.032,208.616 123.04,215.312 115.48,222.872 108.352,230.432 101.656,238.424 94.96,246.344 88.696,254.768 82.792,263.552 77.32,272.408 72.28,281.624 67.672,291.272 63.496,300.92 59.68,310.568 56.368,320.648 53.416,330.728 50.896,340.736 48.808,350.816 47.584,361.328 46.288,371.84 45.424,382.28 45.424,403.304 47.584,423.752 48.808,434.264 50.896,444.704 53.416,454.784 56.368,464.864 59.68,474.944 63.496,484.592 67.672,494.24 72.28,503.456 77.32,512.672 82.792,521.528 88.696,530.312 94.96,538.664 101.656,547.088 108.352,555.08 115.48,562.64 123.04,569.768 131.032,576.896 139.456,583.16 147.808,589.424 156.592,595.328 165.448,600.8 174.664,605.84 183.88,610.448 193.528,614.624 213.256,621.752 233.416,627.224 254.368,630.968 277.408,633.056 295.912,632.696 316.792,630.968 337.384,627.224 357.904,621.752 377.632,614.624 396.496,605.84 414.568,595.328 431.776,583.16 447.688,569.768 462.808,555.08 476.2,538.664 482.536,530.312 487.936,521.528 493.84,512.672 498.88,503.456 503.488,494.24 507.664,484.592 511.48,474.944 514.792,464.864 520.264,444.704 522.784,432.176 524.872,413.744 525.736,403.304 525.736,392.792 525.736,380.192 524.872,371.84 523.648,361.328 522.352,350.816 520.264,340.736 517.744,330.728 514.792,320.648 511.48,310.568 507.664,300.92 503.488,291.272 498.88,281.624 493.84,272.408 487.936,263.552 482.536,254.768 476.2,246.344 469.504,238.424 462.808,230.432 455.248,222.872 447.688,215.312 440.128,208.616 431.776,201.92 423.352,196.016 414.568,190.184 405.712,184.712 396.496,179.672 386.848,175.064 377.632,170.888 367.552,167.072 357.904,163.328 345.736,160.376 327.304,156.2 304.624,154.112 285.4,152.384 275.32,152.816 "
   id="polygon1369"
   style="clip-rule:evenodd;fill:#ef3e42;fill-rule:evenodd" />
	<polygon
   points="269.056,203.576 260.632,204.44 252.712,206.096 244.72,207.392 236.296,209.48 228.808,211.568 220.816,214.52 212.824,217.4 205.264,220.784 198.136,224.528 190.576,228.344 183.448,232.52 176.752,237.128 170.056,242.168 163.72,247.208 157.456,252.68 151.552,258.512 145.72,264.416 140.248,270.68 135.208,277.016 130.168,283.712 125.56,290.84 121.384,297.968 117.208,305.096 113.824,312.656 110.44,320.216 107.128,327.776 104.608,335.696 102.52,343.688 100.432,351.68 98.704,359.672 97.48,368.024 96.616,376.016 96.184,384.368 96.184,400.784 97.48,417.56 98.704,425.408 100.432,433.832 102.52,441.824 104.608,449.744 107.128,457.304 110.44,465.296 113.824,472.856 117.208,480.416 121.384,487.544 125.56,494.672 130.168,501.368 135.208,508.064 140.248,514.4 145.72,520.664 151.552,526.568 157.456,532.4 163.72,537.872 170.056,542.912 176.752,547.952 183.448,552.56 190.576,556.736 198.136,560.912 205.264,564.728 212.824,567.68 228.808,573.512 244.72,577.688 260.632,580.64 279.136,582.296 293.824,581.936 310.096,580.64 326.44,577.688 342.424,573.512 357.904,567.68 373.024,560.912 387.28,552.56 401.104,542.912 413.704,532.4 425.44,520.664 435.952,508.064 440.992,501.368 445.6,494.672 449.776,487.544 453.952,480.416 457.336,472.856 460.72,465.296 463.6,457.304 466.552,449.744 470.728,433.832 472.888,423.752 474.544,409.136 474.976,400.784 475.408,392.792 475.408,382.712 474.544,376.016 473.68,368.024 472.456,359.672 470.728,351.68 468.64,343.688 466.552,335.696 463.6,327.776 460.72,320.216 457.336,312.656 453.952,305.096 449.776,297.968 445.6,290.84 440.992,283.712 435.952,277.016 430.912,270.68 425.44,264.416 419.608,258.512 413.704,252.68 407.44,247.208 401.104,242.168 394.408,237.128 387.28,232.52 380.584,228.344 373.024,224.528 365.896,220.784 357.904,217.4 350.344,214.52 342.424,211.568 333.136,209.48 318.448,206.096 300.448,204.44 285.4,203.144 277.408,203.144 "
   id="polygon1371"
   style="clip-rule:evenodd;fill:#ffd200;fill-rule:evenodd" />
	<polygon
   points="432.568,271.976 163.72,542.048 136.072,514.76 407.8,243.032 "
   id="polygon1373"
   style="clip-rule:evenodd;fill:#ef3e42;fill-rule:evenodd" />
	<polygon
   points="145.72,326.912 227.08,245.552 227.08,299.624 292.528,299.624 299.152,300.056 305.92,301.352 312.184,303.008 318.448,305.096 324.784,308.048 330.616,311 336.52,314.744 295.48,355.424 292.528,354.632 289.576,354.2 227.08,353.768 227.08,407.912 "
   id="polygon1375"
   style="clip-rule:evenodd;fill-rule:evenodd" />
	<polygon
   points="323.488,519.368 377.632,519.368 377.632,388.976 377.632,383.144 376.768,376.808 375.544,370.544 373.888,364.64 371.728,358.808 369.64,352.904 366.688,347.504 363.376,342.032 322.696,383.144 323.488,387.32 "
   id="polygon1377"
   style="clip-rule:evenodd;fill-rule:evenodd" />
</g>
</svg>