<?xml version="1.0" encoding="utf-8"?>
<!-- Generator: Adobe Illustrator 15.1.0, SVG Export Plug-In . SVG Version: 6.00 Build 0)  -->
<!DOCTYPE svg PUBLIC "-//W3C//DTD SVG 1.0//EN" "http://www.w3.org/TR/2001/REC-SVG-20010904/DTD/svg10.dtd">
<svg version="1.0" xmlns="http://www.w3.org/2000/svg" xmlns:xlink="http://www.w3.org/1999/xlink" x="0px" y="0px" width="595px"
	 height="842px" viewBox="0 0 595 842" enable-background="new 0 0 595 842" xml:space="preserve">
<g id="Kuvataso_1">
</g>
<g id="_x30_">
</g>
<g id="HATKELT">
</g>
<g id="HAT">
</g>
<g id="HATPUN">
	<g>
		<polygon fill-rule="evenodd" clip-rule="evenodd" fill="#FFD200" points="278.128,122.504 267.616,122.504 256.744,123.368 
			245.8,124.664 235.36,126.32 224.416,128.408 213.904,130.928 203.896,133.88 193.384,137.192 183.304,141.44 173.656,145.616 
			164.008,150.656 154.36,155.696 145.144,161.168 136.288,167.432 127.504,173.696 119.08,180.464 110.728,187.592 
			103.168,195.152 95.608,202.712 88.48,211.064 81.784,219.488 75.016,228.272 69.184,237.128 63.712,246.344 58.24,255.992 
			53.632,265.64 49.456,275.288 45.208,285.368 41.896,295.808 38.944,305.888 36.424,316.832 34.336,327.344 32.68,337.784 
			31.384,348.728 30.52,359.6 30.52,381.056 32.68,402.44 34.336,413.312 36.424,423.752 38.944,434.264 41.896,444.704 
			45.208,454.784 49.456,464.864 53.632,474.944 58.24,484.592 63.712,493.808 69.184,503.096 75.016,512.312 81.784,521.096 
			88.48,529.52 95.608,537.44 103.168,545.432 110.728,552.992 119.08,560.12 127.504,566.816 136.288,573.152 145.144,578.984 
			154.36,584.888 164.008,589.928 173.656,594.536 183.304,599.144 203.896,606.272 224.416,612.176 245.8,615.92 269.776,618.08 
			289.072,617.648 310.384,615.92 331.768,612.176 352.792,606.272 372.88,599.144 392.608,589.928 411.112,578.984 
			429.112,566.816 445.528,552.992 461.008,537.44 474.904,521.096 481.168,512.312 487.072,503.096 492.904,493.808 
			497.944,484.592 502.984,474.944 507.16,464.864 510.976,454.784 514.288,444.704 520.192,423.752 522.712,410.792 
			525.232,391.928 525.664,381.056 526.096,370.112 526.096,357.512 525.232,348.728 523.936,337.784 522.28,327.344 
			520.192,316.832 517.672,305.888 514.288,295.808 510.976,285.368 507.16,275.288 502.984,265.64 497.944,255.992 
			492.904,246.344 487.072,237.128 481.168,228.272 474.904,219.488 468.136,211.064 461.008,202.712 453.448,195.152 
			445.528,187.592 437.536,180.464 429.112,173.696 420.328,167.432 411.112,161.168 401.824,155.696 392.608,150.656 
			382.96,145.616 372.88,141.44 362.8,137.192 352.792,133.88 340.192,130.496 321.256,126.32 297.856,124.232 		"/>
		<polygon fill-rule="evenodd" clip-rule="evenodd" fill="#EF3E42" points="278.128,129.632 267.616,130.064 257.176,130.928 
			246.664,131.792 236.584,133.448 226.072,135.536 216.064,138.056 205.984,141.008 195.904,144.32 186.256,148.136 
			176.608,152.312 167.32,156.92 158.104,161.96 148.888,167.432 140.464,173.336 132.112,179.6 123.688,185.864 115.768,193.064 
			108.208,200.192 101.08,207.752 93.952,215.672 87.616,224.096 81.352,232.448 75.448,240.872 69.976,250.088 64.936,259.304 
			60.328,268.592 56.152,278.24 52.408,287.888 49.024,297.968 46.072,307.976 43.552,318.056 41.464,328.568 39.808,338.648 
			38.944,349.16 38.08,359.6 38.08,380.624 39.808,401.576 41.464,412.088 43.552,422.096 46.072,432.176 49.024,442.184 
			52.408,452.264 56.152,461.912 60.328,471.56 64.936,481.28 69.976,490.496 75.448,499.28 81.352,508.136 87.616,516.488 
			93.952,524.48 101.08,532.472 108.208,539.96 115.768,547.52 123.688,554.288 132.112,560.984 140.464,566.816 148.888,572.72 
			158.104,578.192 167.32,583.232 176.608,587.84 186.256,592.016 205.984,599.144 226.072,604.616 246.664,608.36 270.136,610.52 
			288.64,610.088 309.52,608.36 330.112,604.616 350.272,599.144 370,592.016 389.296,583.232 407.296,572.72 424.504,560.984 
			440.488,547.52 455.176,532.472 469,516.488 474.904,508.136 480.736,499.28 486.208,490.496 491.248,481.28 495.856,471.56 
			500.032,461.912 504.28,452.264 507.592,442.184 512.632,422.096 515.152,409.568 517.672,391.064 518.536,380.624 
			518.536,370.112 518.536,357.512 517.672,349.16 516.448,338.648 514.72,328.568 512.632,318.056 510.112,307.976 
			507.592,297.968 504.28,287.888 500.032,278.24 495.856,268.592 491.248,259.304 486.208,250.088 480.736,240.872 
			474.904,232.448 469,224.096 462.304,215.672 455.176,207.752 448.048,200.192 440.488,193.064 432.496,185.864 424.504,179.6 
			416.152,173.336 407.296,167.432 398.512,161.96 389.296,156.92 379.648,152.312 370,148.136 360.28,144.32 350.272,141.008 
			338.464,137.624 320.032,133.448 296.992,131.792 		"/>
		<polygon fill-rule="evenodd" clip-rule="evenodd" fill="#FFD200" points="278.128,180.464 270.136,180.896 261.784,181.256 
			253.36,182.12 245.44,183.344 237.016,185.072 229.024,186.728 221.032,189.248 213.544,191.768 205.552,194.72 197.992,198.032 
			190.432,201.848 183.304,206.024 176.176,210.2 169.48,214.88 162.712,219.488 156.448,224.888 150.184,230.36 144.28,235.832 
			138.376,242.096 132.976,248.432 127.936,254.696 122.896,261.464 118.288,268.16 114.04,275.288 109.864,282.848 106.12,289.976 
			102.736,297.536 99.784,305.456 97.264,313.016 95.176,321.008 93.088,329 91.432,337.352 90.136,345.344 89.272,353.768 
			88.48,362.12 88.48,378.536 90.136,394.88 91.432,403.232 93.088,411.224 95.176,419.216 97.264,427.136 99.784,435.056 
			102.736,442.616 106.12,450.176 109.864,457.736 114.04,464.864 118.288,471.992 122.896,479.12 127.936,485.456 132.976,492.152 
			138.376,498.416 144.28,504.32 150.184,510.224 156.448,515.624 162.712,520.664 169.48,525.704 176.176,530.312 183.304,534.56 
			190.432,538.304 197.992,542.12 205.552,545.432 221.032,550.904 237.016,555.512 253.36,558.464 271.864,559.688 
			286.552,559.688 302.824,558.464 319.168,555.512 335.152,550.904 350.632,545.432 365.752,538.304 380.008,530.312 
			393.904,520.664 406.504,510.224 418.24,498.416 428.68,485.456 433.72,479.12 438.4,471.992 442.576,464.864 446.32,457.736 
			450.136,450.176 453.448,442.616 456.4,435.056 459.352,427.136 463.528,411.224 465.256,401.576 467.344,386.888 
			467.704,378.536 467.704,370.112 467.704,360.464 467.344,353.768 466.48,345.344 465.256,337.352 463.528,329 461.44,321.008 
			459.352,313.016 456.4,305.456 453.448,297.536 450.136,289.976 446.32,282.848 442.576,275.288 438.4,268.16 433.72,261.464 
			428.68,254.696 423.712,248.432 418.24,242.096 412.336,235.832 406.504,230.36 400.168,224.888 393.904,219.488 387.136,214.88 
			380.008,210.2 372.88,206.024 365.752,201.848 358.192,198.032 350.632,194.72 343.144,191.768 335.152,189.248 325.936,186.728 
			311.248,183.344 293.248,181.688 		"/>
		<polygon fill-rule="evenodd" clip-rule="evenodd" fill="#EF3E42" points="129.16,248 399.736,519.008 427.456,492.152 
			156.448,220.712 		"/>
		<polygon fill-rule="evenodd" clip-rule="evenodd" points="321.256,440.096 321.256,504.752 375.4,504.752 375.4,494.672 		"/>
		<g>
			<polygon fill-rule="evenodd" clip-rule="evenodd" points="182.008,423.32 127.936,423.32 208.864,504.32 290.296,423.32 
				236.152,423.32 236.152,355.424 185.824,305.096 184.168,312.224 182.872,319.352 182.008,326.48 			"/>
			<polygon fill-rule="evenodd" clip-rule="evenodd" points="375.4,439.736 375.4,330.224 374.968,323.528 374.176,317.264 
				372.88,310.496 370.792,304.232 368.704,297.968 366.184,291.632 363.232,285.8 359.92,280.328 355.672,274.856 351.928,269.384 
				347.32,264.776 342.28,260.168 337.24,255.992 331.768,252.176 326.296,248.432 320.464,245.48 314.128,242.96 307.864,240.872 
				301.6,238.784 294.904,237.488 288.64,236.696 281.944,236.264 275.176,236.264 268.48,236.696 262.216,237.488 255.448,239.216 
				249.184,240.872 242.92,242.96 237.016,245.912 231.112,248.864 225.28,252.176 219.808,256.424 214.768,260.6 210.16,265.208 
				205.552,269.816 243.712,307.976 249.616,301.28 256.312,295.808 264.304,292.496 273.088,289.976 281.512,289.976 
				290.296,291.2 298.648,294.584 305.776,299.624 312.04,305.888 316.648,313.448 318.376,317.264 321.256,330.224 
				321.256,385.664 			"/>
		</g>
	</g>
</g>
</svg>
