<?xml version="1.0" encoding="UTF-8" standalone="no"?>
<!-- Generator: Adobe Illustrator 15.1.0, SVG Export Plug-In . SVG Version: 6.00 Build 0)  -->

<svg
   xmlns:dc="http://purl.org/dc/elements/1.1/"
   xmlns:cc="http://creativecommons.org/ns#"
   xmlns:rdf="http://www.w3.org/1999/02/22-rdf-syntax-ns#"
   xmlns:svg="http://www.w3.org/2000/svg"
   xmlns="http://www.w3.org/2000/svg"
   xmlns:sodipodi="http://sodipodi.sourceforge.net/DTD/sodipodi-0.dtd"
   xmlns:inkscape="http://www.inkscape.org/namespaces/inkscape"
   version="1.0"
   x="0px"
   y="0px"
   width="494.42401"
   height="494.42401"
   viewBox="0 0 494.42401 494.42401"
   enable-background="new 0 0 595 842"
   xml:space="preserve"
   id="svg1501"
   sodipodi:docname="342.svg"
   inkscape:version="0.92.5 (2060ec1f9f, 2020-04-08)"><metadata
   id="metadata1507"><rdf:RDF><cc:Work
       rdf:about=""><dc:format>image/svg+xml</dc:format><dc:type
         rdf:resource="http://purl.org/dc/dcmitype/StillImage" /></cc:Work></rdf:RDF></metadata><defs
   id="defs1505" /><sodipodi:namedview
   pagecolor="#ffffff"
   bordercolor="#666666"
   borderopacity="1"
   objecttolerance="10"
   gridtolerance="10"
   guidetolerance="10"
   inkscape:pageopacity="0"
   inkscape:pageshadow="2"
   inkscape:window-width="640"
   inkscape:window-height="480"
   id="namedview1503"
   showgrid="false"
   inkscape:zoom="0.28028504"
   inkscape:cx="263.164"
   inkscape:cy="197.656"
   inkscape:window-x="0"
   inkscape:window-y="0"
   inkscape:window-maximized="0"
   inkscape:current-layer="svg1501" />
<g
   id="Kuvataso_1"
   transform="translate(-34.336,-124.232)">
</g>
<g
   id="_x30_"
   transform="translate(-34.336,-124.232)">
</g>
<g
   id="HAT"
   transform="translate(-34.336,-124.232)">
</g>
<g
   id="HATKELT"
   transform="translate(-34.336,-124.232)">
</g>
<g
   id="HATPUN"
   transform="translate(-34.336,-124.232)">
	<g
   id="g1498">
		<polygon
   points="260.056,125.024 249.112,126.32 238.672,127.976 227.8,130.064 217.288,132.584 207.28,135.536 196.768,138.848 186.76,143.024 177.112,147.2 167.104,152.24 157.888,157.28 148.672,162.752 139.456,169.016 131.032,175.28 122.248,181.976 114.328,189.104 106.336,196.664 99.208,204.152 92.08,212.576 85.384,220.928 78.688,229.712 72.856,238.496 67.384,247.712 61.984,257.36 57.376,267.008 52.768,276.656 48.952,286.664 45.64,297.176 42.688,307.184 39.808,318.056 37.648,328.568 36.424,339.008 35.2,349.88 34.336,360.752 34.336,382.136 36.424,403.52 37.648,414.392 39.808,424.76 42.688,435.272 45.64,445.712 48.952,455.792 52.768,465.8 57.376,475.88 61.984,485.528 67.384,494.744 72.856,503.888 78.688,513.104 85.384,521.96 92.08,530.312 99.208,538.232 106.336,546.224 114.328,553.784 122.248,560.84 131.032,567.536 139.456,573.872 148.672,579.704 157.888,585.608 167.104,590.576 177.112,595.184 186.76,599.792 207.28,606.92 227.8,612.824 249.112,616.568 273.016,618.656 292.24,618.224 313.552,616.568 334.936,612.824 355.816,606.92 375.976,599.792 395.632,590.576 414.064,579.704 432.064,567.536 448.408,553.784 463.456,538.232 477.712,521.96 483.976,513.104 489.808,503.888 495.712,494.744 500.752,485.528 505.36,475.88 509.968,465.8 513.712,455.792 517.024,445.712 522.928,424.76 525.448,411.872 527.536,393.008 528.4,382.136 528.76,371.264 528.76,358.664 527.536,349.88 526.24,339.008 525.016,328.568 522.928,318.056 519.976,307.184 517.024,297.176 513.712,286.664 509.968,276.656 505.36,267.008 500.752,257.36 495.712,247.712 489.808,238.496 483.976,229.712 477.712,220.928 470.584,212.576 463.456,204.152 456.328,196.664 448.408,189.104 440.416,181.976 432.064,175.28 423.28,169.016 414.064,162.752 404.848,157.28 395.632,152.24 385.984,147.2 375.976,143.024 365.896,138.848 355.816,135.536 343.288,132.152 323.992,127.976 301.024,125.888 281.368,124.232 270.496,124.232 "
   id="polygon1478"
   style="clip-rule:evenodd;fill:#ffd200;fill-rule:evenodd" />
		<polygon
   points="261.064,131.936 250.624,133.232 240.112,134.888 229.672,136.976 219.592,139.496 209.584,142.448 199.936,145.76 189.856,149.576 180.28,153.752 171.064,158.36 161.848,163.4 153.064,168.8 144.208,174.704 135.856,180.536 127.504,187.232 119.512,194.36 112.024,201.488 104.896,209.048 98.2,216.968 91.504,224.96 85.168,233.312 79.336,242.096 73.864,250.88 68.896,260.096 64.288,269.744 60.04,279.392 56.296,288.968 52.984,299.048 50.032,309.056 47.512,319.136 45.424,329.216 44.128,339.656 42.904,350.096 42.04,360.608 42.04,381.56 44.128,402.44 45.424,412.52 47.512,422.888 50.032,432.968 52.984,443.048 56.296,453.056 60.04,462.704 64.288,472.352 68.896,481.568 73.864,490.784 79.336,499.928 85.168,508.352 91.504,516.704 98.2,525.056 104.896,533.048 112.024,540.608 119.512,547.664 127.504,554.792 135.856,561.128 144.208,567.392 153.064,573.224 161.848,578.696 171.064,583.736 180.28,588.344 189.856,592.52 209.584,599.648 229.672,605.048 250.624,608.864 273.592,610.952 292.024,610.52 312.904,608.864 333.424,605.048 353.944,599.648 373.6,592.52 392.464,583.736 410.464,573.224 427.672,561.128 443.584,547.664 458.632,533.048 472.024,516.704 478.288,508.352 483.76,499.928 489.592,490.784 494.632,481.568 499.24,472.352 503.416,462.704 507.232,453.056 510.544,443.048 516.016,422.888 518.536,410.432 520.624,392 521.416,381.56 521.416,371.048 521.416,358.52 520.624,350.096 519.328,339.656 518.104,329.216 516.016,319.136 513.496,309.056 510.544,299.048 507.232,288.968 503.416,279.392 499.24,269.744 494.632,260.096 489.592,250.88 483.76,242.096 478.288,233.312 472.024,224.96 465.328,216.968 458.632,209.048 451.072,201.488 443.584,194.36 436.024,187.232 427.672,180.536 419.248,174.704 410.464,168.8 401.68,163.4 392.464,158.36 382.816,153.752 373.6,149.576 363.592,145.76 353.944,142.448 341.776,139.064 323.416,134.888 300.736,132.8 281.584,131.144 271.504,131.576 "
   id="polygon1480"
   style="clip-rule:evenodd;fill:#ef3e42;fill-rule:evenodd" />
		<g
   id="g1496">
			<polygon
   points="261.064,182.192 252.712,183.056 244.72,184.28 236.368,186.008 228.376,187.664 220.456,190.184 212.464,192.704 204.976,195.584 197.416,198.968 189.856,202.712 182.728,206.888 175.672,211.136 168.976,215.744 162.208,220.352 155.512,225.752 149.68,231.224 143.416,236.624 137.944,242.96 132.544,249.224 127.072,255.488 122.464,262.184 117.856,268.88 113.68,276.008 109.504,283.568 105.688,290.696 102.376,298.184 99.424,306.176 96.904,313.664 94.384,321.656 92.728,329.576 91.072,338 89.776,345.92 88.984,354.344 88.12,362.696 88.12,379.04 89.776,395.384 91.072,403.736 92.728,411.656 94.384,419.648 96.904,427.496 99.424,435.488 102.376,443.048 105.688,450.536 109.504,458.096 113.68,465.224 117.856,472.352 122.464,479.408 127.072,485.744 132.544,492.44 137.944,498.704 143.416,504.536 149.68,510.44 155.512,515.84 162.208,520.88 168.976,525.92 175.672,530.528 182.728,534.704 189.856,538.52 197.416,542.264 204.976,545.576 220.456,551.048 236.368,555.656 252.712,558.608 271.144,559.832 285.76,559.832 302.032,558.608 318.376,555.656 334.288,551.048 349.768,545.576 364.816,538.52 379.072,530.528 392.464,520.88 405.424,510.44 416.728,498.704 427.672,485.744 432.28,479.408 436.888,472.352 441.496,465.224 445.24,458.096 448.984,450.536 452.368,443.048 455.248,435.488 457.768,427.496 462.376,411.656 464.104,402.08 466.192,387.392 466.624,379.04 466.624,370.616 466.624,361.04 466.192,354.344 464.896,345.92 463.672,338 462.376,329.576 460.288,321.656 457.768,313.664 455.248,306.176 452.368,298.184 448.984,290.696 445.24,283.568 441.496,276.008 436.888,268.88 432.28,262.184 427.672,255.488 422.2,249.224 416.728,242.96 411.328,236.624 405.424,231.224 399.16,225.752 392.464,220.352 385.768,215.744 379.072,211.136 371.944,206.888 364.816,202.712 357.328,198.968 349.768,195.584 342.208,192.704 334.288,190.184 324.64,187.664 310.384,184.28 292.456,182.624 277.408,181.4 268.984,181.76 "
   id="polygon1482"
   style="clip-rule:evenodd;fill:#ffd200;fill-rule:evenodd" />
			<polygon
   points="161.416,325.4 161.416,322.88 162.208,320 163.504,317.48 164.728,315.392 166.816,313.304 168.976,311.576 171.424,310.352 174.376,309.92 176.896,309.488 179.848,309.92 182.368,310.352 184.888,311.576 187.336,313.304 189.064,315.392 190.72,317.48 192.376,321.224 193.24,324.608 193.24,329.576 192.808,332.528 191.944,335.912 190.72,338.792 189.064,341.312 186.544,343.4 184.024,345.128 181.072,346.784 178.12,347.648 174.808,348.44 171.424,348.872 171.424,368.528 176.032,369.392 180.64,370.256 186.544,372.344 189.064,374 192.808,378.176 195.76,383.648 196.984,389.48 196.984,394.952 196.552,403.304 194.464,409.136 190.72,413.744 185.68,417.128 179.848,418.352 173.944,418.352 171.064,417.56 166.024,414.608 161.848,410.432 158.464,402.08 158.032,399.128 134.992,399.128 134.992,403.736 135.856,407.912 137.152,412.088 138.808,416.264 140.464,420.44 142.984,423.752 145.936,427.496 148.816,430.448 152.2,433.4 155.944,435.488 160.12,437.576 163.936,439.232 172.72,440.888 181.504,440.888 185.68,440.528 189.856,439.232 194.032,437.576 198.28,435.488 202.024,433.4 205.336,430.448 208.288,427.496 211.24,424.184 213.328,420.44 217.072,412.52 218.368,408.344 219.16,403.736 219.16,388.256 218.8,384.008 217.504,379.472 216.28,375.224 214.552,371.048 212.104,367.304 209.584,363.56 206.632,360.176 203.68,357.224 206.2,353.912 208.72,350.528 210.808,346.784 212.464,342.608 213.76,338.792 214.552,334.616 215.416,330.44 214.984,322.088 214.552,317.912 213.328,313.664 211.672,309.488 209.944,305.744 207.496,302.36 204.976,299.048 202.024,295.664 198.64,292.784 195.328,291.056 191.584,289.4 187.768,288.176 183.592,287.312 179.416,286.88 175.24,286.88 171.424,287.312 167.248,288.176 163.504,289.4 159.76,291.488 155.944,293.144 153.064,295.664 149.68,298.616 147.16,301.568 144.64,304.88 142.552,308.696 140.896,312.008 139.6,316.184 138.808,320 138.376,328.352 161.848,328.352 "
   id="polygon1484"
   style="clip-rule:evenodd;fill-rule:evenodd" />
			<polygon
   points="245.152,436.712 246.376,435.056 246.808,432.968 246.808,431.312 246.376,429.224 246.016,427.496 244.72,425.84 243.064,424.184 241.408,423.32 239.68,422.888 237.592,422.528 235.936,422.888 233.848,423.752 232.192,424.616 230.896,426.272 229.672,427.496 229.24,429.584 228.808,431.672 228.808,450.104 243.928,438.008 "
   id="polygon1486"
   style="clip-rule:evenodd;fill-rule:evenodd" />
			<polygon
   points="276.112,412.088 276.976,414.608 277.84,416.696 279.496,418.784 281.152,420.44 283.24,421.664 285.328,422.888 287.848,423.32 292.456,423.32 294.976,422.888 297.064,421.664 299.08,420.44 300.736,418.784 302.464,416.696 303.688,413.744 304.12,409.568 304.12,393.656 303.688,392 302.896,389.48 301.6,387.824 299.944,385.736 297.928,384.44 295.84,383.216 293.752,382.352 291.232,381.92 288.712,382.352 286.192,382.784 284.104,383.648 282.016,384.872 278.632,388.256 258.112,382.784 264.448,325.4 310.384,325.4 312.112,343.04 279.064,343.04 276.112,369.392 279.496,367.736 282.808,366.44 286.624,366.008 290.368,365.648 294.112,366.008 297.928,366.872 301.6,368.096 304.984,369.392 307.864,371.48 310.816,374 313.768,376.52 315.856,379.472 317.944,382.784 319.6,386.168 320.896,389.912 321.256,393.656 321.688,397.04 321.688,413.384 321.256,417.128 320.032,420.872 318.376,424.184 316.288,427.496 313.768,430.448 310.816,433.4 307.072,436.28 300.736,439.232 297.064,440.528 293.32,440.888 289.504,441.32 285.328,440.888 281.584,440.096 277.84,438.44 274.024,436.712 270.712,434.192 267.76,431.672 265.24,428.36 262.72,424.976 261.064,421.664 259.84,417.56 258.976,413.744 258.544,409.568 275.752,409.568 "
   id="polygon1488"
   style="clip-rule:evenodd;fill-rule:evenodd" />
			<polygon
   points="226.72,188.528 235.936,186.008 245.152,184.28 254.368,183.056 263.584,181.76 272.8,181.4 287.056,181.76 296.2,182.192 305.344,183.488 314.56,185.144 325.072,187.664 337.6,191.408 277.84,250.88 217.936,190.976 "
   id="polygon1490"
   style="clip-rule:evenodd;fill-rule:evenodd" />
			<polygon
   points="337.6,550.184 328.384,552.704 319.168,555.224 309.952,556.88 300.736,558.608 291.664,559.4 282.448,559.832 272.8,559.832 263.584,559.4 254.368,558.608 243.496,556.52 231.76,554.432 217.936,550.184 277.84,490.352 "
   id="polygon1492"
   style="clip-rule:evenodd;fill-rule:evenodd" />
			<polygon
   points="354.808,371.48 368.632,371.48 368.632,376.52 373.6,374 379.504,372.344 385.336,371.48 389.152,372.344 392.464,373.568 395.848,376.088 403.768,373.136 412.12,371.48 419.68,371.912 423.424,373.568 426.376,375.224 429.328,379.832 431.416,384.44 431.848,389.912 431.848,441.32 418.024,441.32 418.024,389.912 417.592,386.96 416.368,384.872 414.28,382.784 411.76,381.56 409.24,381.128 406.288,381.56 403.768,382.784 401.68,384.872 400.456,386.96 400.024,389.912 400.024,441.32 386.2,441.32 386.2,389.912 385.768,386.96 384.544,384.872 382.456,382.784 380.296,381.56 377.416,381.128 374.896,381.56 372.376,382.784 370.288,384.872 368.992,386.96 368.632,389.912 368.632,441.32 354.808,441.32 "
   id="polygon1494"
   style="clip-rule:evenodd;fill-rule:evenodd" />
		</g>
	</g>
</g>
</svg>