<?xml version="1.0" encoding="utf-8"?>
<!-- Generator: Adobe Illustrator 15.1.0, SVG Export Plug-In . SVG Version: 6.00 Build 0)  -->
<!DOCTYPE svg PUBLIC "-//W3C//DTD SVG 1.0//EN" "http://www.w3.org/TR/2001/REC-SVG-20010904/DTD/svg10.dtd">
<svg version="1.0" id="Layer_1" xmlns="http://www.w3.org/2000/svg" xmlns:xlink="http://www.w3.org/1999/xlink" x="0px" y="0px"
	 width="595.28px" height="841.89px" viewBox="0 0 595.28 841.89" enable-background="new 0 0 595.28 841.89" xml:space="preserve">
<path fill="#F6EC13" d="M545.672,420.896c0-136.899-111-247.955-248.051-247.955c-136.9,0-248.013,111.055-248.013,247.955
	c0,137.016,111.112,248.051,248.013,248.051C434.672,668.947,545.672,557.912,545.672,420.896L545.672,420.896z"/>
<path fill="#EF4523" d="M537.897,420.896c0-132.633-107.55-240.238-240.276-240.238c-132.653,0-240.2,107.604-240.2,240.238
	c0,132.768,107.547,240.314,240.2,240.314C430.348,661.211,537.897,553.664,537.897,420.896L537.897,420.896z"/>
<path fill="#F6EC13" d="M487.537,420.896c0-104.835-85.1-189.781-189.916-189.781c-104.817,0-189.764,84.946-189.764,189.781
	c0,104.837,84.946,189.916,189.764,189.916C402.438,610.813,487.537,525.733,487.537,420.896L487.537,420.896z"/>
<g id="LWPOLYLINE_31_">
	<path d="M215.103,411.815c-10.695,10.087-16.8,24.138-16.8,38.794v13.633c0,29.408,23.853,53.263,53.281,53.263
		s53.243-23.854,53.243-53.263v-13.633c0-14.656-6.03-28.708-16.839-38.794c7.737-8.875,11.984-20.175,11.984-31.854v-7.794
		c0-26.754-21.692-48.464-48.388-48.464c-26.773,0-48.465,21.709-48.465,48.464v7.794
		C203.118,391.64,207.404,402.94,215.103,411.815z"/>
</g>
<path d="M383.933,402.41h13.083v23.246h-13.083v56.618c0,7.281,5.84,13.141,13.083,13.141v23.246
	c-20.063,0-36.368-16.288-36.368-36.387v-56.618H347.45V402.41h13.197v-38.738h23.285V402.41z"/>
<g id="LWPOLYLINE_30_">
	<path fill="#F6EC13" d="M227.35,464.242c0,13.292,10.885,24.139,24.233,24.139s24.195-10.847,24.195-24.139v-13.633
		c0-13.35-10.846-24.195-24.195-24.195s-24.233,10.846-24.233,24.195V464.242z"/>
</g>
<g id="LWPOLYLINE_32_">
	<path fill="#F6EC13" d="M232.243,372.167v7.794c0,10.693,8.646,19.302,19.341,19.302c10.694,0,19.341-8.609,19.341-19.302v-7.794
		c0-10.694-8.647-19.339-19.341-19.339C240.889,352.827,232.243,361.473,232.243,372.167z"/>
</g>
</svg>
