<?xml version="1.0" encoding="UTF-8" standalone="no"?>
<!-- Generator: Adobe Illustrator 15.1.0, SVG Export Plug-In . SVG Version: 6.00 Build 0)  -->

<svg
   xmlns:dc="http://purl.org/dc/elements/1.1/"
   xmlns:cc="http://creativecommons.org/ns#"
   xmlns:rdf="http://www.w3.org/1999/02/22-rdf-syntax-ns#"
   xmlns:svg="http://www.w3.org/2000/svg"
   xmlns="http://www.w3.org/2000/svg"
   xmlns:sodipodi="http://sodipodi.sourceforge.net/DTD/sodipodi-0.dtd"
   xmlns:inkscape="http://www.inkscape.org/namespaces/inkscape"
   version="1.1"
   id="Layer_1"
   x="0px"
   y="0px"
   width="496.064"
   height="496.064"
   viewBox="0 0 496.06397 496.06399"
   xml:space="preserve"
   sodipodi:docname="344-5.svg"
   inkscape:version="0.92.5 (2060ec1f9f, 2020-04-08)"><metadata
   id="metadata1658"><rdf:RDF><cc:Work
       rdf:about=""><dc:format>image/svg+xml</dc:format><dc:type
         rdf:resource="http://purl.org/dc/dcmitype/StillImage" /></cc:Work></rdf:RDF></metadata><defs
   id="defs1656" /><sodipodi:namedview
   pagecolor="#ffffff"
   bordercolor="#666666"
   borderopacity="1"
   objecttolerance="10"
   gridtolerance="10"
   guidetolerance="10"
   inkscape:pageopacity="0"
   inkscape:pageshadow="2"
   inkscape:window-width="640"
   inkscape:window-height="480"
   id="namedview1654"
   showgrid="false"
   inkscape:zoom="0.28032165"
   inkscape:cx="248.03201"
   inkscape:cy="248.03199"
   inkscape:window-x="0"
   inkscape:window-y="0"
   inkscape:window-maximized="0"
   inkscape:current-layer="Layer_1" />
<g
   id="CIRCLE_9_"
   transform="translate(-49.608,-172.913)">
	<path
   style="fill:#ffd200"
   d="m 545.672,420.974 c 0,-137.029 -111.05,-248.061 -248.061,-248.061 -136.953,0 -248.003,111.031 -248.003,248.061 0,136.953 111.05,248.003 248.003,248.003 137.011,0 248.061,-111.05 248.061,-248.003 z"
   id="path1632"
   inkscape:connector-curvature="0" />
</g>
<g
   id="CIRCLE_10_"
   transform="translate(-49.608,-172.913)">
	<path
   style="fill:#ef3e42"
   d="m 537.858,420.974 c 0,-132.763 -107.522,-240.267 -240.247,-240.267 -132.668,0 -240.266,107.504 -240.266,240.267 0,132.63 107.598,240.266 240.266,240.266 132.725,-10e-4 240.247,-107.636 240.247,-240.266 z"
   id="path1635"
   inkscape:connector-curvature="0" />
</g>
<g
   id="CIRCLE_11_"
   transform="translate(-49.608,-172.913)">
	<path
   style="fill:#ffd200"
   d="m 487.53,420.974 c 0,-104.849 -85.07,-189.918 -189.919,-189.918 -104.849,0 -189.861,85.069 -189.861,189.918 0,104.867 85.013,189.823 189.861,189.823 104.848,0 189.919,-84.956 189.919,-189.823 z"
   id="path1638"
   inkscape:connector-curvature="0" />
</g>
<g
   id="LWPOLYLINE_37_"
   transform="translate(-49.608,-172.913)">
	<path
   d="m 130.298,464.21 c 0,29.394 23.875,53.287 53.287,53.287 29.412,0 53.268,-23.894 53.268,-53.287 v -11.605 c 0,-15.739 -6.959,-30.664 -18.963,-40.79 9.121,-9.634 14.146,-22.472 14.146,-35.803 v -3.813 c 0,-26.719 -21.732,-48.432 -48.451,-48.432 -26.758,0 -48.471,21.713 -48.471,48.432 v 3.813 h 29.052 v -3.813 c 0,-10.714 8.704,-19.399 19.419,-19.399 10.714,0 19.323,8.686 19.323,19.399 v 3.813 c 0,12.856 -10.373,23.324 -23.211,23.324 h -3.831 v 27.137 h 7.719 c 13.369,0 24.216,10.848 24.216,24.122 v 13.615 c 0,13.389 -10.847,24.235 -24.216,24.235 -13.407,0 -24.217,-10.847 -24.217,-24.235 z"
   id="path1641"
   inkscape:connector-curvature="0" />
</g>
<g
   id="LWPOLYLINE_38_"
   transform="translate(-49.608,-172.913)">
	<path
   d="m 285.285,464.21 c 0,29.394 23.856,53.287 53.269,53.287 29.394,0 53.287,-23.894 53.287,-53.287 v -87.175 c 0,-29.431 -23.894,-53.268 -53.287,-53.268 -29.412,0 -53.269,23.837 -53.269,53.268 z"
   id="path1644"
   inkscape:connector-curvature="0" />
</g>
<g
   id="LWPOLYLINE_39_"
   transform="translate(-49.608,-172.913)">
	<path
   style="fill:#ffd200"
   d="m 314.338,464.21 c 0,13.389 10.847,24.235 24.216,24.235 13.388,0 24.235,-10.847 24.235,-24.235 v -87.175 c 0,-13.369 -10.848,-24.235 -24.235,-24.235 -13.369,0 -24.216,10.866 -24.216,24.235 z"
   id="path1647"
   inkscape:connector-curvature="0" />
</g>
<g
   id="LWPOLYLINE_40_"
   transform="translate(-49.608,-172.913)">
	<path
   d="m 443.421,402.484 h 13.161 v 23.211 h -13.161 v 56.53 c 0,7.282 5.917,13.16 13.161,13.16 v 23.325 c -20.102,0 -36.448,-16.385 -36.448,-36.485 v -56.53 h -13.122 v -23.211 h 13.122 v -38.818 h 23.287 z"
   id="path1650"
   inkscape:connector-curvature="0" />
</g>
</svg>