<?xml version="1.0" encoding="iso-8859-1"?>
<!-- Generator: Adobe Illustrator 15.1.0, SVG Export Plug-In . SVG Version: 6.00 Build 0)  -->
<!DOCTYPE svg PUBLIC "-//W3C//DTD SVG 1.1//EN" "http://www.w3.org/Graphics/SVG/1.1/DTD/svg11.dtd">
<svg version="1.1" id="Layer_1" xmlns="http://www.w3.org/2000/svg" xmlns:xlink="http://www.w3.org/1999/xlink" x="0px" y="0px"
	 width="595.28px" height="841.89px" viewBox="0 0 595.28 841.89" style="enable-background:new 0 0 595.28 841.89;"
	 xml:space="preserve">
<g id="CIRCLE_6_">
	<path style="fill:#FFD200;" d="M545.672,420.936c0-136.973-111.049-248.06-248.079-248.06
		c-136.935,0-247.984,111.087-247.984,248.06c0,136.953,111.05,248.078,247.984,248.078
		C434.623,669.014,545.672,557.889,545.672,420.936L545.672,420.936z"/>
</g>
<g id="CIRCLE_7_">
	<path style="fill:#EF3E42;" d="M537.972,420.936c0-132.648-107.597-240.284-240.379-240.284
		c-132.647,0-240.285,107.636-240.285,240.284c0,132.63,107.638,240.266,240.285,240.266
		C430.375,661.201,537.972,553.565,537.972,420.936L537.972,420.936z"/>
</g>
<g id="CIRCLE_8_">
	<path style="fill:#FFD200;" d="M487.493,420.936c0-104.849-85.032-189.822-189.9-189.822
		c-104.849,0-189.805,84.974-189.805,189.822c0,104.867,84.956,189.823,189.805,189.823
		C402.461,610.759,487.493,525.803,487.493,420.936L487.493,420.936z"/>
</g>
<g id="LWPOLYLINE_34_">
	<path d="M138.244,386.688h29.052v-9.69c0-3.148,0.643-6.182,1.82-9.103c5.063-12.402,19.207-18.337,31.591-13.292
		c12.364,5.063,18.357,19.171,13.314,31.555l-75.777,102.25v29.052h106.649v-29.052h-73.713l70.487-93.3
		c9.993-27.668-4.38-58.236-32.046-68.174c-27.65-10.013-58.199,4.286-68.156,31.935c-2.73,7.567-3.753,15.607-2.882,23.553
		L138.244,386.688z"/>
</g>
<g id="LWPOLYLINE_35_">
	<path d="M289.173,464.21c0,29.431,23.874,53.249,53.306,53.249c29.411,0,53.229-23.818,53.229-53.249v-21.314
		c0-29.451-23.818-53.287-53.229-53.287c-7.434,0-14.828,1.535-21.579,4.569l4.133-41.416h53.229l-1.896-29.032h-77.539
		l-9.653,96.902l33.867,7.699c4.61-6.088,11.797-9.689,19.438-9.689c13.33,0,24.177,10.865,24.177,24.254v21.314
		c0,13.351-10.847,24.197-24.177,24.197c-13.37,0-24.234-10.847-24.234-24.197H289.173z"/>
</g>
<g id="LWPOLYLINE_36_">
	<path d="M443.344,402.445h13.198v23.251h-13.198v56.491c0,7.357,5.955,13.274,13.198,13.274v23.211
		c-20.099,0-36.41-16.309-36.41-36.485v-56.491h-13.198v-23.251h13.198v-38.741h23.212V402.445z"/>
</g>
</svg>
