<?xml version="1.0" encoding="iso-8859-1"?>
<!-- Generator: Adobe Illustrator 15.1.0, SVG Export Plug-In . SVG Version: 6.00 Build 0)  -->
<!DOCTYPE svg PUBLIC "-//W3C//DTD SVG 1.1//EN" "http://www.w3.org/Graphics/SVG/1.1/DTD/svg11.dtd">
<svg version="1.1" id="Layer_1" xmlns="http://www.w3.org/2000/svg" xmlns:xlink="http://www.w3.org/1999/xlink" x="0px" y="0px"
	 width="595.28px" height="841.89px" viewBox="0 0 595.28 841.89" style="enable-background:new 0 0 595.28 841.89;"
	 xml:space="preserve">
<g id="CIRCLE_9_">
	<path style="fill:#FFD200;" d="M545.672,420.974c0-137.029-111.05-248.061-248.061-248.061
		c-136.953,0-248.003,111.031-248.003,248.061c0,136.953,111.05,248.003,248.003,248.003
		C434.622,668.977,545.672,557.927,545.672,420.974L545.672,420.974z"/>
</g>
<g id="CIRCLE_10_">
	<path style="fill:#EF3E42;" d="M537.858,420.974c0-132.763-107.522-240.267-240.247-240.267
		c-132.668,0-240.266,107.504-240.266,240.267c0,132.63,107.598,240.266,240.266,240.266
		C430.336,661.239,537.858,553.604,537.858,420.974L537.858,420.974z"/>
</g>
<g id="CIRCLE_11_">
	<path style="fill:#FFD200;" d="M487.53,420.974c0-104.849-85.07-189.918-189.919-189.918S107.75,316.125,107.75,420.974
		c0,104.867,85.013,189.823,189.861,189.823S487.53,525.841,487.53,420.974L487.53,420.974z"/>
</g>
<g id="LWPOLYLINE_37_">
	<path d="M130.298,464.21c0,29.394,23.875,53.287,53.287,53.287s53.268-23.894,53.268-53.287v-11.605
		c0-15.739-6.959-30.664-18.963-40.79c9.121-9.634,14.146-22.472,14.146-35.803v-3.813c0-26.719-21.732-48.432-48.451-48.432
		c-26.758,0-48.471,21.713-48.471,48.432v3.813h29.052v-3.813c0-10.714,8.704-19.399,19.419-19.399
		c10.714,0,19.323,8.686,19.323,19.399v3.813c0,12.856-10.373,23.324-23.211,23.324h-3.831v27.137h7.719
		c13.369,0,24.216,10.848,24.216,24.122v13.615c0,13.389-10.847,24.235-24.216,24.235c-13.407,0-24.217-10.847-24.217-24.235
		H130.298z"/>
</g>
<g id="LWPOLYLINE_38_">
	<path d="M285.285,464.21c0,29.394,23.856,53.287,53.269,53.287c29.394,0,53.287-23.894,53.287-53.287v-87.175
		c0-29.431-23.894-53.268-53.287-53.268c-29.412,0-53.269,23.837-53.269,53.268V464.21z"/>
</g>
<g id="LWPOLYLINE_39_">
	<path style="fill:#FFD200;" d="M314.338,464.21c0,13.389,10.847,24.235,24.216,24.235c13.388,0,24.235-10.847,24.235-24.235
		v-87.175c0-13.369-10.848-24.235-24.235-24.235c-13.369,0-24.216,10.866-24.216,24.235V464.21z"/>
</g>
<g id="LWPOLYLINE_40_">
	<path d="M443.421,402.484h13.161v23.211h-13.161v56.53c0,7.282,5.917,13.16,13.161,13.16v23.325
		c-20.102,0-36.448-16.385-36.448-36.485v-56.53h-13.122v-23.211h13.122v-38.818h23.287V402.484z"/>
</g>
</svg>
