<?xml version="1.0" encoding="iso-8859-1"?>
<!-- Generator: Adobe Illustrator 15.1.0, SVG Export Plug-In . SVG Version: 6.00 Build 0)  -->
<!DOCTYPE svg PUBLIC "-//W3C//DTD SVG 1.1//EN" "http://www.w3.org/Graphics/SVG/1.1/DTD/svg11.dtd">
<svg version="1.1" id="Layer_1" xmlns="http://www.w3.org/2000/svg" xmlns:xlink="http://www.w3.org/1999/xlink" x="0px" y="0px"
	 width="595.28px" height="841.89px" viewBox="0 0 595.28 841.89" style="enable-background:new 0 0 595.28 841.89;"
	 xml:space="preserve">
<g id="CIRCLE_27_">
	<path style="fill:#FFD200;" d="M545.672,420.973c0-137.019-111.079-248.041-248.003-248.041
		c-137.02,0-248.061,111.022-248.061,248.041c0,136.943,111.041,247.984,248.061,247.984
		C434.593,668.957,545.672,557.916,545.672,420.973L545.672,420.973z"/>
</g>
<g id="CIRCLE_28_">
	<path style="fill:#EF3E42;" d="M537.897,420.973c0-132.752-107.59-240.248-240.229-240.248
		c-132.753,0-240.286,107.495-240.286,240.248c0,132.621,107.533,240.248,240.286,240.248
		C430.308,661.221,537.897,553.594,537.897,420.973L537.897,420.973z"/>
</g>
<g id="CIRCLE_29_">
	<path style="fill:#FFD200;" d="M487.572,420.973c0-104.84-85.025-189.904-189.903-189.904
		c-104.859,0-189.904,85.063-189.904,189.904c0,104.859,85.045,189.808,189.904,189.808
		C402.547,610.781,487.572,525.832,487.572,420.973L487.572,420.973z"/>
</g>
<g id="CIRCLE_30_">
	<path d="M184.276,409.331c0-6.845-5.499-12.42-12.401-12.42c-6.808,0-12.382,5.575-12.382,12.42
		c0,6.808,5.574,12.382,12.382,12.382C178.777,421.712,184.276,416.138,184.276,409.331L184.276,409.331z"/>
</g>
<g id="CIRCLE_31_">
	<path d="M272.98,409.331c0-6.845-5.575-12.42-12.401-12.42s-12.458,5.575-12.458,12.42c0,6.808,5.632,12.382,12.458,12.382
		S272.98,416.138,272.98,409.331L272.98,409.331z"/>
</g>
<g id="CIRCLE_32_">
	<path d="M354.005,408.97c0-6.902-5.613-12.439-12.382-12.439c-6.902,0-12.401,5.537-12.401,12.439
		c0,6.808,5.499,12.383,12.401,12.383C348.392,421.353,354.005,415.778,354.005,408.97L354.005,408.97z"/>
</g>
<g id="ELLIPSE_2_">
	<path d="M426.06,408.97c0-6.902-5.612-12.439-12.362-12.439c-6.902,0-12.439,5.537-12.439,12.439
		c0,6.808,5.537,12.383,12.439,12.383C420.447,421.353,426.06,415.778,426.06,408.97"/>
</g>
<g id="LWPOLYLINE_75_">
	<path d="M135.278,408.97v-28.044l10.297-27.362h40.598v42.399h24.593v-5.727h-14.733v-53.624h104.822v66.632h16.8v-66.632h128.24
		v72.358H430.08c-0.076-9.026-7.357-16.288-16.383-16.288c-8.95,0.114-16.231,7.338-16.308,16.288h-39.44
		c-0.228-9.026-7.737-16.174-16.744-15.966c-8.723,0.228-15.719,7.281-15.984,15.966h-48.126
		c-0.228-9.026-7.718-16.174-16.743-15.966c-8.723,0.228-15.7,7.281-15.891,15.966h-55.994c-0.228-9.026-7.718-16.174-16.743-15.966
		c-8.723,0.228-15.738,7.281-15.966,15.966H135.278z"/>
</g>
<g id="LWPOLYLINE_76_">
	<polygon style="fill:#FFD200;" points="144.532,380.395 151.112,360.599 174.738,360.599 174.738,380.395 	"/>
</g>
<g id="LWPOLYLINE_78_">
	<path d="M200.053,531.445v-14.486c3.375-19.342,11.453-37.545,23.626-52.904h18.583c-10.694,10.885-18.886,23.93-24.006,38.266
		c2.465-0.645,4.893-1.023,7.414-1.023c14.146,0,25.599,11.453,25.599,25.598v4.551c0,14.184-11.453,25.637-25.599,25.637
		C211.506,557.082,200.053,545.629,200.053,531.445z"/>
</g>
<g id="LWPOLYLINE_77_">
	<path style="fill:#FFD200;" d="M214.065,531.445c0,6.447,5.215,11.605,11.604,11.605c6.429,0,11.624-5.158,11.624-11.605v-4.551
		c0-6.447-5.195-11.719-11.624-11.719c-6.39,0-11.604,5.271-11.604,11.719V531.445z"/>
</g>
<g id="LWPOLYLINE_79_">
	<path d="M271.729,531.445c0,14.184,11.396,25.637,25.542,25.637s25.599-11.453,25.599-25.637v-10.201
		c0-14.07-11.453-25.523-25.599-25.523c-3.508,0-7.111,0.76-10.297,2.125l1.973-19.873h25.542l-0.93-13.918h-37.203l-4.627,46.457
		l16.308,3.793c2.123-2.959,5.574-4.703,9.234-4.703c6.428,0,11.643,5.232,11.643,11.643v10.201c0,6.447-5.215,11.605-11.643,11.605
		c-6.391,0-11.604-5.158-11.604-11.605H271.729z"/>
</g>
<g id="LWPOLYLINE_80_">
	<path d="M387.378,487.453h7.888v13.918h-7.888v33.904c0,4.438,3.489,8.002,7.888,8.002v13.881
		c-12.098,0-21.844-9.785-21.844-21.883v-33.904h-7.889v-13.918h7.889v-23.322h13.956V487.453z"/>
</g>
</svg>
