<?xml version="1.0" encoding="iso-8859-1"?>
<!-- Generator: Adobe Illustrator 15.1.0, SVG Export Plug-In . SVG Version: 6.00 Build 0)  -->
<!DOCTYPE svg PUBLIC "-//W3C//DTD SVG 1.1//EN" "http://www.w3.org/Graphics/SVG/1.1/DTD/svg11.dtd">
<svg version="1.1" id="Layer_1" xmlns="http://www.w3.org/2000/svg" xmlns:xlink="http://www.w3.org/1999/xlink" x="0px" y="0px"
	 width="595.28px" height="841.89px" viewBox="0 0 595.28 841.89" style="enable-background:new 0 0 595.28 841.89;"
	 xml:space="preserve">
<g id="CIRCLE_33_">
	<path style="fill:#FFD200;" d="M545.672,420.973c0-137.019-111.079-248.041-248.041-248.041
		c-136.981,0-248.022,111.022-248.022,248.041c0,136.943,111.041,247.984,248.022,247.984
		C434.593,668.957,545.672,557.916,545.672,420.973L545.672,420.973z"/>
</g>
<g id="CIRCLE_34_">
	<path style="fill:#EF3E42;" d="M537.936,420.973c0-132.752-107.628-240.248-240.305-240.248
		c-132.696,0-240.21,107.495-240.21,240.248c0,132.621,107.514,240.248,240.21,240.248
		C430.308,661.221,537.936,553.594,537.936,420.973L537.936,420.973z"/>
</g>
<g id="CIRCLE_35_">
	<path style="fill:#FFD200;" d="M487.496,420.973c0-104.84-84.949-189.904-189.865-189.904
		c-104.897,0-189.866,85.063-189.866,189.904c0,104.859,84.969,189.808,189.866,189.808
		C402.547,610.781,487.496,525.832,487.496,420.973L487.496,420.973z"/>
</g>
<g id="CIRCLE_36_">
	<path d="M184.276,409.331c0-6.845-5.499-12.42-12.401-12.42c-6.883,0-12.382,5.575-12.382,12.42
		c0,6.808,5.499,12.382,12.382,12.382C178.777,421.712,184.276,416.138,184.276,409.331L184.276,409.331z"/>
</g>
<g id="CIRCLE_37_">
	<path d="M272.98,409.331c0-6.845-5.575-12.42-12.401-12.42s-12.42,5.575-12.42,12.42c0,6.808,5.594,12.382,12.42,12.382
		S272.98,416.138,272.98,409.331L272.98,409.331z"/>
</g>
<g id="CIRCLE_38_">
	<path d="M353.985,408.97c0-6.902-5.594-12.439-12.401-12.439c-6.845,0-12.438,5.537-12.438,12.439
		c0,6.808,5.594,12.383,12.438,12.383C348.392,421.353,353.985,415.778,353.985,408.97L353.985,408.97z"/>
</g>
<g id="ELLIPSE_3_">
	<path d="M426.021,408.97c0-6.902-5.536-12.439-12.325-12.439c-6.902,0-12.515,5.537-12.515,12.439
		c0,6.808,5.612,12.383,12.515,12.383C420.485,421.353,426.021,415.778,426.021,408.97"/>
</g>
<g id="LWPOLYLINE_81_">
	<path d="M135.278,408.97v-28.044l10.315-27.362h40.579v42.399h24.613v-5.727h-14.752v-53.624h104.822v66.632h16.838v-66.632
		h128.201v72.358H430.08c-0.076-9.026-7.357-16.288-16.459-16.288c-8.95,0.114-16.156,7.338-16.231,16.288h-39.46
		c-0.228-9.026-7.698-16.174-16.725-15.966c-8.685,0.228-15.72,7.281-15.928,15.966h-48.183
		c-0.228-9.026-7.717-16.174-16.743-15.966c-8.704,0.228-15.701,7.281-15.928,15.966h-56.032
		c-0.152-9.026-7.642-16.174-16.744-15.966c-8.722,0.228-15.663,7.281-15.89,15.966H135.278z"/>
</g>
<g id="LWPOLYLINE_82_">
	<polygon style="fill:#FFD200;" points="144.532,380.395 151.112,360.599 174.719,360.599 174.719,380.395 	"/>
</g>
<g id="LWPOLYLINE_83_">
	<path d="M200.545,531.445c0,14.184,11.453,25.637,25.599,25.637c14.108,0,25.599-11.453,25.599-25.637v-10.201
		c0-14.07-11.491-25.523-25.599-25.523c-3.583,0-7.092,0.76-10.315,2.125l1.972-19.873h25.523l-0.929-13.918h-37.203l-4.646,46.457
		l16.25,3.793c2.256-2.959,5.688-4.703,9.348-4.703c6.409,0,11.605,5.232,11.605,11.643v10.201c0,6.447-5.196,11.605-11.605,11.605
		c-6.428,0-11.662-5.158-11.662-11.605H200.545z"/>
</g>
<g id="LWPOLYLINE_84_">
	<path d="M271.217,531.445c0,14.184,11.453,25.637,25.599,25.637c14.164,0,25.617-11.453,25.617-25.637v-10.201
		c0-14.07-11.453-25.523-25.617-25.523c-3.584,0-7.111,0.76-10.334,2.125l2.029-19.873h25.522l-0.929-13.918H275.9l-4.684,46.457
		l16.288,3.793c2.2-2.959,5.651-4.703,9.311-4.703c6.428,0,11.604,5.232,11.604,11.643v10.201c0,6.447-5.177,11.605-11.604,11.605
		c-6.39,0-11.586-5.158-11.586-11.605H271.217z"/>
</g>
<g id="LWPOLYLINE_85_">
	<path d="M386.922,487.453h7.889v13.918h-7.889v33.904c0,4.438,3.489,8.002,7.889,8.002v13.881
		c-12.098,0-21.844-9.785-21.844-21.883v-33.904h-7.889v-13.918h7.889v-23.322h13.955V487.453z"/>
</g>
</svg>
