<?xml version="1.0" encoding="UTF-8" standalone="no"?>
<!-- Generator: Adobe Illustrator 15.1.0, SVG Export Plug-In . SVG Version: 6.00 Build 0)  -->

<svg
   xmlns:dc="http://purl.org/dc/elements/1.1/"
   xmlns:cc="http://creativecommons.org/ns#"
   xmlns:rdf="http://www.w3.org/1999/02/22-rdf-syntax-ns#"
   xmlns:svg="http://www.w3.org/2000/svg"
   xmlns="http://www.w3.org/2000/svg"
   xmlns:sodipodi="http://sodipodi.sourceforge.net/DTD/sodipodi-0.dtd"
   xmlns:inkscape="http://www.inkscape.org/namespaces/inkscape"
   version="1.1"
   id="Layer_1"
   x="0px"
   y="0px"
   width="496.064"
   height="496.02499"
   viewBox="0 0 496.06397 496.02499"
   xml:space="preserve"
   sodipodi:docname="345-4.svg"
   inkscape:version="0.92.5 (2060ec1f9f, 2020-04-08)"><metadata
   id="metadata1841"><rdf:RDF><cc:Work
       rdf:about=""><dc:format>image/svg+xml</dc:format><dc:type
         rdf:resource="http://purl.org/dc/dcmitype/StillImage" /></cc:Work></rdf:RDF></metadata><defs
   id="defs1839" /><sodipodi:namedview
   pagecolor="#ffffff"
   bordercolor="#666666"
   borderopacity="1"
   objecttolerance="10"
   gridtolerance="10"
   guidetolerance="10"
   inkscape:pageopacity="0"
   inkscape:pageshadow="2"
   inkscape:window-width="640"
   inkscape:window-height="480"
   id="namedview1837"
   showgrid="false"
   inkscape:zoom="0.28032165"
   inkscape:cx="248.03201"
   inkscape:cy="248.01199"
   inkscape:window-x="0"
   inkscape:window-y="0"
   inkscape:window-maximized="0"
   inkscape:current-layer="Layer_1" />
<g
   id="CIRCLE_27_"
   transform="translate(-49.608,-172.932)">
	<path
   style="fill:#ffd200"
   d="m 545.672,420.973 c 0,-137.019 -111.079,-248.041 -248.003,-248.041 -137.02,0 -248.061,111.022 -248.061,248.041 0,136.943 111.041,247.984 248.061,247.984 136.924,0 248.003,-111.041 248.003,-247.984 z"
   id="path1797"
   inkscape:connector-curvature="0" />
</g>
<g
   id="CIRCLE_28_"
   transform="translate(-49.608,-172.932)">
	<path
   style="fill:#ef3e42"
   d="m 537.897,420.973 c 0,-132.752 -107.59,-240.248 -240.229,-240.248 -132.753,0 -240.286,107.495 -240.286,240.248 0,132.621 107.533,240.248 240.286,240.248 132.64,0 240.229,-107.627 240.229,-240.248 z"
   id="path1800"
   inkscape:connector-curvature="0" />
</g>
<g
   id="CIRCLE_29_"
   transform="translate(-49.608,-172.932)">
	<path
   style="fill:#ffd200"
   d="m 487.572,420.973 c 0,-104.84 -85.025,-189.904 -189.903,-189.904 -104.859,0 -189.904,85.063 -189.904,189.904 0,104.859 85.045,189.808 189.904,189.808 104.878,0 189.903,-84.949 189.903,-189.808 z"
   id="path1803"
   inkscape:connector-curvature="0" />
</g>
<g
   id="CIRCLE_30_"
   transform="translate(-49.608,-172.932)">
	<path
   d="m 184.276,409.331 c 0,-6.845 -5.499,-12.42 -12.401,-12.42 -6.808,0 -12.382,5.575 -12.382,12.42 0,6.808 5.574,12.382 12.382,12.382 6.902,-0.001 12.401,-5.575 12.401,-12.382 z"
   id="path1806"
   inkscape:connector-curvature="0" />
</g>
<g
   id="CIRCLE_31_"
   transform="translate(-49.608,-172.932)">
	<path
   d="m 272.98,409.331 c 0,-6.845 -5.575,-12.42 -12.401,-12.42 -6.826,0 -12.458,5.575 -12.458,12.42 0,6.808 5.632,12.382 12.458,12.382 6.826,0 12.401,-5.575 12.401,-12.382 z"
   id="path1809"
   inkscape:connector-curvature="0" />
</g>
<g
   id="CIRCLE_32_"
   transform="translate(-49.608,-172.932)">
	<path
   d="m 354.005,408.97 c 0,-6.902 -5.613,-12.439 -12.382,-12.439 -6.902,0 -12.401,5.537 -12.401,12.439 0,6.808 5.499,12.383 12.401,12.383 6.769,0 12.382,-5.575 12.382,-12.383 z"
   id="path1812"
   inkscape:connector-curvature="0" />
</g>
<g
   id="ELLIPSE_2_"
   transform="translate(-49.608,-172.932)">
	<path
   d="m 426.06,408.97 c 0,-6.902 -5.612,-12.439 -12.362,-12.439 -6.902,0 -12.439,5.537 -12.439,12.439 0,6.808 5.537,12.383 12.439,12.383 6.749,0 12.362,-5.575 12.362,-12.383"
   id="path1815"
   inkscape:connector-curvature="0" />
</g>
<g
   id="LWPOLYLINE_75_"
   transform="translate(-49.608,-172.932)">
	<path
   d="m 135.278,408.97 v -28.044 l 10.297,-27.362 h 40.598 v 42.399 h 24.593 v -5.727 h -14.733 v -53.624 h 104.822 v 66.632 h 16.8 v -66.632 h 128.24 V 408.97 H 430.08 c -0.076,-9.026 -7.357,-16.288 -16.383,-16.288 -8.95,0.114 -16.231,7.338 -16.308,16.288 h -39.44 c -0.228,-9.026 -7.737,-16.174 -16.744,-15.966 -8.723,0.228 -15.719,7.281 -15.984,15.966 h -48.126 c -0.228,-9.026 -7.718,-16.174 -16.743,-15.966 -8.723,0.228 -15.7,7.281 -15.891,15.966 h -55.994 c -0.228,-9.026 -7.718,-16.174 -16.743,-15.966 -8.723,0.228 -15.738,7.281 -15.966,15.966 z"
   id="path1818"
   inkscape:connector-curvature="0" />
</g>
<g
   id="LWPOLYLINE_76_"
   transform="translate(-49.608,-172.932)">
	<polygon
   style="fill:#ffd200"
   points="174.738,360.599 174.738,380.395 144.532,380.395 151.112,360.599 "
   id="polygon1821" />
</g>
<g
   id="LWPOLYLINE_78_"
   transform="translate(-49.608,-172.932)">
	<path
   d="m 200.053,531.445 v -14.486 c 3.375,-19.342 11.453,-37.545 23.626,-52.904 h 18.583 c -10.694,10.885 -18.886,23.93 -24.006,38.266 2.465,-0.645 4.893,-1.023 7.414,-1.023 14.146,0 25.599,11.453 25.599,25.598 v 4.551 c 0,14.184 -11.453,25.637 -25.599,25.637 -14.164,-0.002 -25.617,-11.455 -25.617,-25.639 z"
   id="path1824"
   inkscape:connector-curvature="0" />
</g>
<g
   id="LWPOLYLINE_77_"
   transform="translate(-49.608,-172.932)">
	<path
   style="fill:#ffd200"
   d="m 214.065,531.445 c 0,6.447 5.215,11.605 11.604,11.605 6.429,0 11.624,-5.158 11.624,-11.605 v -4.551 c 0,-6.447 -5.195,-11.719 -11.624,-11.719 -6.39,0 -11.604,5.271 -11.604,11.719 z"
   id="path1827"
   inkscape:connector-curvature="0" />
</g>
<g
   id="LWPOLYLINE_79_"
   transform="translate(-49.608,-172.932)">
	<path
   d="m 271.729,531.445 c 0,14.184 11.396,25.637 25.542,25.637 14.146,0 25.599,-11.453 25.599,-25.637 v -10.201 c 0,-14.07 -11.453,-25.523 -25.599,-25.523 -3.508,0 -7.111,0.76 -10.297,2.125 l 1.973,-19.873 h 25.542 l -0.93,-13.918 h -37.203 l -4.627,46.457 16.308,3.793 c 2.123,-2.959 5.574,-4.703 9.234,-4.703 6.428,0 11.643,5.232 11.643,11.643 v 10.201 c 0,6.447 -5.215,11.605 -11.643,11.605 -6.391,0 -11.604,-5.158 -11.604,-11.605 h -13.938 z"
   id="path1830"
   inkscape:connector-curvature="0" />
</g>
<g
   id="LWPOLYLINE_80_"
   transform="translate(-49.608,-172.932)">
	<path
   d="m 387.378,487.453 h 7.888 v 13.918 h -7.888 v 33.904 c 0,4.438 3.489,8.002 7.888,8.002 v 13.881 c -12.098,0 -21.844,-9.785 -21.844,-21.883 v -33.904 h -7.889 v -13.918 h 7.889 v -23.322 h 13.956 z"
   id="path1833"
   inkscape:connector-curvature="0" />
</g>
</svg>