<?xml version="1.0" encoding="utf-8"?>
<!-- Generator: Adobe Illustrator 15.1.0, SVG Export Plug-In . SVG Version: 6.00 Build 0)  -->
<!DOCTYPE svg PUBLIC "-//W3C//DTD SVG 1.0//EN" "http://www.w3.org/TR/2001/REC-SVG-20010904/DTD/svg10.dtd">
<svg version="1.0" xmlns="http://www.w3.org/2000/svg" xmlns:xlink="http://www.w3.org/1999/xlink" x="0px" y="0px" width="595px"
	 height="842px" viewBox="0 0 595 842" enable-background="new 0 0 595 842" xml:space="preserve">
<g id="Kuvataso_1">
</g>
<g id="_x30_">
</g>
<g id="HATKELT">
</g>
<g id="HAT">
</g>
<g id="HATPUN">
	<g>
		<path fill-rule="evenodd" clip-rule="evenodd" fill="#FFD200" d="M426.736,635.072c85.896-45.504,144.432-135.792,144.432-239.688
			l0,0c0.072-103.968-58.464-194.4-144.432-239.904v9.792c81,44.712,135.864,130.968,135.936,230.04v0.072
			c-0.144,99-54.936,185.184-135.936,229.896V635.072L426.736,635.072z M426.736,559.544v-163.8c7.488,0,13.608-6.048,13.608-13.536
			l0,0c0-7.488-6.048-13.608-13.608-13.608l0,0v-3.816c8.856-0.072,17.712,5.76,18,17.424l0,0h17.352V303.08h-35.352v-72.072
			c49.176,37.944,80.784,97.416,80.856,164.376l0,0C507.448,462.2,475.84,521.6,426.736,559.544z M395.2,649.328
			c10.872-4.104,21.384-8.856,31.536-14.256v-9.792c-10.08,5.616-20.664,10.584-31.536,14.832V649.328L395.2,649.328z
			 M426.736,155.48c-10.152-5.4-20.664-10.152-31.536-14.256v9.216c10.872,4.248,21.456,9.216,31.536,14.832V155.48L426.736,155.48z
			 M426.736,231.008v72.072H395.2v-92.232C406.36,216.608,416.872,223.376,426.736,231.008L426.736,231.008z M426.736,364.784v3.816
			c-7.488,0-13.536,6.12-13.536,13.608l0,0c0,7.488,6.048,13.536,13.536,13.536l0,0v163.8c-9.864,7.632-20.376,14.4-31.536,20.16
			V537.44c4.176,3.888,9.792,6.408,15.912,6.768l0,0l0,0v-14.616l0,0c-5.04-0.936-8.712-5.256-8.712-10.368l0,0v-35.64h8.856V467.96
			H402.4v-25.488h-7.2v-60.264h13.824l0,0C409.312,370.616,418.024,364.784,426.736,364.784z M347.968,662.216
			c16.272-2.88,32.04-7.272,47.232-12.888v-9.216c-15.12,5.904-30.888,10.44-47.232,13.464V662.216L347.968,662.216z M395.2,141.224
			c-15.192-5.616-30.96-10.008-47.232-12.888v8.64c16.344,3.024,32.112,7.56,47.232,13.464V141.224L395.2,141.224z M395.2,210.848
			v92.232h-47.232v-109.8C364.6,197.24,380.368,203.144,395.2,210.848L395.2,210.848z M395.2,382.208v60.264h-8.064v25.488h-7.992
			v15.624h7.992v36.432v-0.072c0.288,6.912,3.313,13.104,8.064,17.496v42.264c-14.832,7.704-30.6,13.608-47.232,17.568V395.744
			c7.488,0,13.536-6.048,13.536-13.536l0,0c0-7.488-6.048-13.608-13.536-13.608v-3.888c8.784,0,17.568,5.832,17.856,17.496l0,0
			H395.2z M299.944,666.464c16.344,0,32.4-1.44,48.024-4.248v-8.64c-15.552,2.88-31.608,4.392-48.024,4.392V666.464L299.944,666.464
			z M347.968,128.336c-15.552-2.808-31.608-4.248-47.952-4.248c-0.072,0-0.072,0-0.072,0v8.496c16.416,0,32.472,1.512,48.024,4.392
			V128.336L347.968,128.336z M347.968,193.28v109.8h-26.136v72.864H303.4V303.08h-3.456V187.664l0,0
			C316.504,187.664,332.56,189.608,347.968,193.28L347.968,193.28z M347.968,364.712c-8.784,0-17.568,5.832-17.856,17.496l0,0
			h-30.168v60.048c14.256,0,28.584,9.792,28.08,28.8l0,0V516.2l0,0c0,15.48-12.6,28.08-28.08,28.008l0,0v58.68
			c16.488,0,32.616-1.944,48.024-5.616V395.744l0,0c-7.488,0-13.536-6.048-13.536-13.536l0,0c0-7.488,6.048-13.608,13.536-13.608
			V364.712L347.968,364.712z M299.944,529.016v-71.352c0.072,0,0.144,0,0.216,0c6.984,0,12.6,5.688,12.6,12.672l0,0v45.504l0,0
			c0.288,7.2-5.472,13.176-12.6,13.176C300.088,529.016,300.016,529.016,299.944,529.016z M259.48,663.44
			c13.176,2.016,26.712,3.024,40.392,3.024c0,0,0,0,0.072,0v-8.496c-0.072,0-0.072,0-0.072,0c-13.68,0-27.216-1.08-40.392-3.096
			V663.44L259.48,663.44z M299.944,124.088c-13.752,0-27.288,1.008-40.464,3.024v8.568c13.176-2.016,26.712-3.096,40.464-3.096
			V124.088L299.944,124.088z M299.944,187.664V303.08H259.48V191.696C272.584,189.032,286.12,187.664,299.944,187.664
			L299.944,187.664z M299.944,382.208v60.048c-13.608,0-27.216,8.856-27.864,27l0,0v46.728l0,0
			c-0.072,15.552,12.384,28.152,27.864,28.224v58.68c-0.072,0-0.072,0-0.072,0c-13.752,0-27.288-1.368-40.392-4.032v-202.68
			c7.488,0,13.536-6.12,13.536-13.608l0,0c0-7.488-6.048-13.536-13.536-13.536v-4.248c8.856-0.144,17.784,5.688,18.072,17.424l0,0
			H299.944L299.944,382.208z M299.944,457.664c-6.84,0.144-12.384,5.76-12.312,12.672l0,0v45.504l0,0
			c-0.288,7.128,5.256,13.032,12.312,13.176V457.664z M218.44,654.008c13.248,4.176,26.928,7.344,41.04,9.432v-8.568
			c-14.112-2.232-27.792-5.544-41.04-9.864V654.008L218.44,654.008z M259.48,127.112c-14.112,2.088-27.792,5.256-41.04,9.432v9
			c13.248-4.32,26.928-7.632,41.04-9.864V127.112L259.48,127.112z M259.48,191.696V303.08h-41.04v-98.712
			C231.472,198.752,245.224,194.504,259.48,191.696L259.48,191.696z M259.48,364.784v4.248c-7.488,0-13.608,6.048-13.608,13.536l0,0
			c0,7.488,6.12,13.608,13.608,13.608l0,0v202.68c-14.256-2.808-28.008-7.056-41.04-12.672v-42.12
			c15.408,0,27.936-12.456,27.936-27.936l0,0V509l0,0c0-7.704-3.168-15.12-8.784-20.376h-0.072
			c4.104-4.608,6.336-10.584,6.336-16.704v-0.072v-4.032c0-14.04-11.376-25.416-25.416-25.416v-60.192h23.4l0,0
			C242.056,370.688,250.768,364.856,259.48,364.784L259.48,364.784z M218.44,528.872c6.984,0,12.672-5.688,12.672-12.744l0,0V509
			l0,0c0-6.984-5.688-12.744-12.672-12.672V528.872L218.44,528.872z M218.44,482.072c5.616,0,10.152-4.536,10.152-10.152v-0.072
			v-4.032l0,0c0-5.616-4.536-10.152-10.152-10.152V482.072z M149.104,620.672c21.168,14.256,44.496,25.56,69.336,33.336v-9
			c-24.984-8.136-48.312-19.944-69.336-34.776V620.672L149.104,620.672z M218.44,136.544c-24.84,7.776-48.168,19.08-69.336,33.336
			v10.44c21.024-14.832,44.352-26.64,69.336-34.776V136.544L218.44,136.544z M218.44,204.368v98.712h-29.592v58.68h16.128v6.192
			h-26.928v-46.296h-28.944v-68.904C168.472,232.232,192.016,215.672,218.44,204.368L218.44,204.368z M218.44,382.208h-37.872l0,0
			c-0.432-18.36-22.104-22.248-31.464-11.592v9.936c0.936-6.552,6.552-11.52,13.392-11.52c7.488,0,13.536,6.048,13.536,13.536l0,0
			c0,7.488-6.048,13.608-13.536,13.608c-6.84,0-12.456-5.04-13.392-11.52V537.8c19.368,20.52,42.912,37.08,69.336,48.384v-42.12l0,0
			c-15.48,0-28.008-12.528-28.008-27.936l0,0h15.264l0,0c0,6.984,5.688,12.744,12.744,12.744l0,0v-32.544l0,0h-4.104v-14.256h4.104
			l0,0l0,0v-24.408c-5.616,0-10.224,4.536-10.224,10.152l0,0h-15.264h0.072c0-14.04,11.376-25.416,25.416-25.416V382.208
			L218.44,382.208z M149.104,350.96h16.488v-21.672h-16.488V350.96z M28.792,395.312C28.72,489.2,76.456,572,149.104,620.672v-10.44
			C81.496,562.712,37.288,484.16,37.216,395.24v0.072c0.072-88.92,44.28-167.472,111.888-214.992v-10.44
			C76.528,218.552,28.72,301.352,28.792,395.24V395.312L28.792,395.312z M149.104,252.752v68.904h-15.336l-11.304,29.808v30.744
			h22.392l0,0c0.072-4.896,1.728-8.784,4.248-11.592v9.936c-0.144,0.648-0.216,1.368-0.216,2.016l0,0c0,0.72,0.072,1.44,0.216,2.088
			V537.8c-35.136-37.224-56.736-87.336-56.736-142.488l0,0C92.368,340.088,113.968,289.976,149.104,252.752L149.104,252.752z
			 M149.104,329.288v21.672h-16.56l7.2-21.672H149.104z"/>
		<path fill-rule="evenodd" clip-rule="evenodd" fill="#EF3E42" d="M426.736,625.424c81.072-44.712,136.008-131.04,135.936-230.04
			v-0.072c0.072-99.144-54.864-185.472-135.936-230.184v65.88c49.176,37.944,80.784,97.416,80.856,164.376l0,0
			c-0.144,66.816-31.752,126.216-80.856,164.16V625.424L426.736,625.424z M426.736,395.744V368.6l0,0
			c7.56,0,13.608,6.12,13.608,13.608l0,0C440.344,389.696,434.224,395.744,426.736,395.744L426.736,395.744z M426.736,364.784
			V303.08h35.352v79.128h-17.352l0,0C444.448,370.544,435.592,364.712,426.736,364.784z M395.2,640.256
			c10.872-4.248,21.456-9.216,31.536-14.832v-65.88c-9.864,7.632-20.376,14.4-31.536,20.16V640.256L395.2,640.256z M426.736,165.128
			c-10.08-5.616-20.664-10.584-31.536-14.832v60.552c11.16,5.76,21.672,12.528,31.536,20.16V165.128L426.736,165.128z
			 M426.736,303.08v61.704c-8.712,0-17.424,5.832-17.712,17.424l0,0H395.2V303.08H426.736L426.736,303.08z M426.736,368.6
			c-7.488,0-13.536,6.12-13.536,13.608l0,0c0,7.488,6.048,13.536,13.536,13.536l0,0V368.6L426.736,368.6z M395.2,537.44v-94.968h7.2
			v25.488h8.856v15.624H402.4v35.64l0,0c0,5.112,3.672,9.432,8.712,10.368l0,0v14.616l0,0l0,0
			C404.992,543.848,399.376,541.328,395.2,537.44z M347.968,653.648c16.344-3.024,32.112-7.56,47.232-13.392v-60.552
			c-14.832,7.704-30.6,13.608-47.232,17.568V653.648L347.968,653.648z M395.2,150.296c-15.12-5.832-30.888-10.368-47.232-13.392
			v56.376c16.632,3.96,32.4,9.864,47.232,17.568V150.296L395.2,150.296z M395.2,303.08v79.128h-29.376l0,0
			c-0.288-11.664-9.072-17.496-17.856-17.496V303.08H395.2L395.2,303.08z M395.2,442.472v94.968
			c-4.752-4.392-7.776-10.584-8.064-17.496v0.072v-36.432h-7.992V467.96h7.992v-25.488H395.2L395.2,442.472z M347.968,395.744
			c7.488,0,13.536-6.048,13.536-13.536l0,0c0-7.488-6.048-13.608-13.536-13.608V395.744z M299.944,657.968
			c16.416,0,32.472-1.512,48.024-4.32v-56.376c-15.408,3.672-31.536,5.616-48.024,5.616V657.968L299.944,657.968z M347.968,136.904
			c-15.552-2.808-31.608-4.32-48.024-4.32v55.08l0,0c16.56,0,32.616,1.944,48.024,5.616V136.904L347.968,136.904z M347.968,303.08
			v61.632c-8.784,0-17.568,5.832-17.856,17.496l0,0h-30.168V303.08h3.456v72.864h18.432V303.08H347.968L347.968,303.08z
			 M347.968,368.6c-7.488,0-13.536,6.12-13.536,13.608l0,0c0,7.488,6.048,13.536,13.536,13.536l0,0V368.6L347.968,368.6z
			 M299.944,544.208v-15.192c0.072,0,0.144,0,0.216,0c7.128,0,12.888-5.976,12.6-13.176l0,0v-45.504l0,0
			c0-6.984-5.616-12.672-12.6-12.672c-0.072,0-0.144,0-0.216,0v-15.408c14.256,0,28.584,9.792,28.08,28.8l0,0V516.2l0,0
			C328.024,531.68,315.424,544.28,299.944,544.208L299.944,544.208z M259.48,654.872c13.176,2.088,26.712,3.096,40.392,3.096
			c0,0,0,0,0.072,0v-55.08c-0.072,0-0.072,0-0.072,0c-13.752,0-27.288-1.368-40.392-4.032V654.872L259.48,654.872z M299.944,132.584
			c-13.752,0-27.288,1.008-40.464,3.096v56.016c13.104-2.664,26.64-4.032,40.464-4.032V132.584L299.944,132.584z M299.944,303.08
			v79.128h-22.392l0,0c-0.288-11.736-9.216-17.568-18.072-17.424V303.08H299.944L299.944,303.08z M299.944,442.256v15.408
			c-6.84,0.144-12.384,5.76-12.312,12.672l0,0v45.504l0,0c-0.288,7.128,5.256,13.032,12.312,13.176v15.192
			c-15.48-0.072-27.936-12.672-27.864-28.224l0,0v-46.728l0,0C272.728,451.112,286.336,442.256,299.944,442.256L299.944,442.256z
			 M259.48,396.176c7.488,0,13.536-6.12,13.536-13.608l0,0c0-7.488-6.048-13.536-13.536-13.536V396.176z M218.44,645.08
			c13.248,4.32,26.928,7.632,41.04,9.792v-56.016c-14.256-2.808-28.008-7.056-41.04-12.672V645.08L218.44,645.08z M259.48,135.68
			c-14.112,2.16-27.792,5.472-41.04,9.792v58.896c13.032-5.616,26.784-9.864,41.04-12.672V135.68L259.48,135.68z M259.48,303.08
			v61.704c-8.712,0.072-17.424,5.904-17.64,17.424l0,0h-23.4V303.08H259.48L259.48,303.08z M259.48,369.032
			c-7.488,0-13.608,6.048-13.608,13.536l0,0c0,7.488,6.12,13.608,13.608,13.608l0,0V369.032L259.48,369.032z M218.44,544.064
			v-15.192c6.984,0,12.672-5.688,12.672-12.744l0,0V509l0,0c0-6.984-5.688-12.744-12.672-12.672l0,0v-14.256
			c5.616,0,10.152-4.536,10.152-10.152v-0.072v-4.032l0,0c0-5.616-4.536-10.152-10.152-10.152V442.4
			c14.04,0,25.416,11.376,25.416,25.416v4.032v0.072c0,6.12-2.232,12.096-6.336,16.704h0.072c5.616,5.256,8.784,12.672,8.784,20.376
			l0,0v7.128l0,0C246.376,531.608,233.848,544.064,218.44,544.064z M149.104,610.376c21.024,14.832,44.352,26.568,69.336,34.704
			v-58.896c-26.424-11.304-49.968-27.864-69.336-48.384V610.376L149.104,610.376z M218.44,145.472
			c-24.984,8.136-48.312,19.872-69.336,34.704v72.576c19.368-20.52,42.912-37.08,69.336-48.384V145.472L218.44,145.472z
			 M218.44,303.08v79.128h-37.872l0,0c-0.432-18.36-22.104-22.248-31.464-11.592V350.96h16.488v-21.672h-16.488v-7.632h28.944
			v46.296h26.928v-6.192h-16.128v-58.68H218.44L218.44,303.08z M218.44,442.4v15.264c-5.616,0-10.224,4.536-10.224,10.152l0,0
			h-15.264h0.072C193.024,453.776,204.4,442.4,218.44,442.4L218.44,442.4z M218.44,482.072v14.256h-4.104v-14.256H218.44
			L218.44,482.072z M218.44,528.872v15.192l0,0c-15.48,0-28.008-12.528-28.008-27.936l0,0h15.264l0,0
			C205.696,523.112,211.384,528.872,218.44,528.872L218.44,528.872L218.44,528.872z M149.104,384.656
			c0.936,6.48,6.552,11.52,13.392,11.52c7.488,0,13.536-6.12,13.536-13.608l0,0c0-7.488-6.048-13.536-13.536-13.536
			c-6.84,0-12.456,4.968-13.392,11.52V384.656L149.104,384.656z M218.44,482.072L218.44,482.072L218.44,482.072z M37.216,395.312
			c-0.072,88.848,44.208,167.544,111.888,215.064V537.8c-35.136-37.224-56.736-87.336-56.736-142.488l0,0
			c0-55.224,21.6-105.336,56.736-142.56v-72.576C81.424,227.696,37.144,306.392,37.216,395.312L37.216,395.312z M149.104,321.656
			v7.632h-9.36l-7.2,21.672h16.56v19.656c-2.52,2.808-4.176,6.696-4.248,11.592l0,0h-22.392v-30.744l11.304-29.808H149.104
			L149.104,321.656z M149.104,380.552v4.104c-0.144-0.648-0.216-1.368-0.216-2.088l0,0C148.888,381.92,148.96,381.2,149.104,380.552
			z"/>
		<g>
			<g>
				<path fill-rule="evenodd" clip-rule="evenodd" d="M192.952,467.816h15.264l0,0c0-5.616,4.608-10.152,10.224-10.152
					c5.616,0,10.152,4.536,10.152,10.152l0,0v4.032v0.072c0,5.616-4.536,10.152-10.152,10.152l0,0h-4.104v14.256h4.104l0,0
					c6.984,0,12.672,5.688,12.672,12.672l0,0v7.128l0,0c0,7.056-5.688,12.672-12.672,12.744c-7.056-0.072-12.744-5.76-12.744-12.744
					l0,0h-15.264l0,0c0,15.408,12.528,28.008,28.008,27.936c15.408,0.072,27.936-12.456,27.936-27.936l0,0V509l0,0
					c0-7.704-3.168-15.12-8.784-20.376h-0.072c4.104-4.608,6.336-10.584,6.336-16.704v-0.072v-4.032l0,0
					c0-14.04-11.376-25.416-25.416-25.416s-25.488,11.376-25.416,25.416H192.952z"/>
				<path fill-rule="evenodd" clip-rule="evenodd" d="M402.4,442.472h-15.264v25.488h-7.992v15.624h7.992v36.432v-0.072
					c0.504,13.104,10.944,23.544,23.976,24.264l0,0v-14.616l0,0c-5.04-0.936-8.712-5.328-8.712-10.44l0,0v-35.568h8.856V467.96
					H402.4V442.472z"/>
				<path fill-rule="evenodd" clip-rule="evenodd" d="M300.16,544.208c13.896-0.072,27.864-9.36,27.864-27.936l0,0v-46.8l0,0
					c-0.504-18.072-14.184-27.144-27.864-27.216v15.408c6.264,0,12.456,4.176,12.6,12.456l0,0v45.72l0,0
					c0.288,7.2-5.472,13.176-12.6,13.176V544.208z M272.08,469.256v47.16l0,0c0.144,18.576,14.184,27.864,28.08,27.792v-15.192l0,0
					c-7.128,0-12.888-5.976-12.528-13.176l0,0v-45.72l0,0c0.072-8.28,6.336-12.456,12.528-12.456v-15.408
					C286.48,442.184,272.728,451.184,272.08,469.256L272.08,469.256z"/>
			</g>
			<g>
				<path fill-rule="evenodd" clip-rule="evenodd" d="M149.104,321.656h28.944v46.296h26.928v-6.192h-16.128v-58.68H303.4v72.864
					h18.432V303.08h140.256v79.128h-17.352l0,0c-0.504-23.256-35.208-23.256-35.712,0l0,0h-43.2l0,0
					c-0.504-23.256-35.136-23.256-35.712,0l0,0h-52.56l0,0c-0.576-23.256-35.208-23.256-35.712,0l0,0h-61.272l0,0
					c-0.432-18.36-22.104-22.248-31.464-11.592V350.96h16.488v-21.672h-16.488V321.656z M144.856,382.208h-22.392v-30.744
					l11.304-29.808h15.336v7.632h-9.36l-7.2,21.672h16.56v19.656C146.584,373.424,144.928,377.312,144.856,382.208L144.856,382.208z
					"/>
				<g>
					<path fill-rule="evenodd" clip-rule="evenodd" d="M148.888,382.568c0,7.488,6.12,13.608,13.608,13.608
						c7.488,0,13.536-6.12,13.536-13.608l0,0c0-7.488-6.048-13.536-13.536-13.536C155.008,369.032,148.888,375.08,148.888,382.568
						L148.888,382.568z M273.016,382.568c0-7.488-6.048-13.536-13.536-13.536s-13.608,6.048-13.608,13.536l0,0
						c0,7.488,6.12,13.608,13.608,13.608S273.016,390.056,273.016,382.568L273.016,382.568L273.016,382.568z M361.504,382.208
						c0.072-7.488-6.048-13.608-13.536-13.608c-7.488,0-13.536,6.12-13.536,13.608l0,0c0,7.488,6.048,13.536,13.536,13.536
						C355.456,395.744,361.504,389.696,361.504,382.208L361.504,382.208L361.504,382.208z M440.344,382.208
						c0-7.488-6.12-13.608-13.608-13.608c-7.488,0-13.536,6.12-13.536,13.608l0,0c0,7.488,6.048,13.536,13.536,13.536
						C434.224,395.744,440.344,389.696,440.344,382.208L440.344,382.208z"/>
					<path fill-rule="evenodd" clip-rule="evenodd" fill="none" stroke="#000000" stroke-width="0.216" stroke-miterlimit="10" d="
						M148.888,382.568c0,7.488,6.12,13.608,13.608,13.608c7.488,0,13.536-6.12,13.536-13.608l0,0
						c0-7.488-6.048-13.536-13.536-13.536C155.008,369.032,148.888,375.08,148.888,382.568L148.888,382.568z M273.016,382.568
						c0-7.488-6.048-13.536-13.536-13.536s-13.608,6.048-13.608,13.536l0,0c0,7.488,6.12,13.608,13.608,13.608
						S273.016,390.056,273.016,382.568L273.016,382.568L273.016,382.568z M361.504,382.208c0.072-7.488-6.048-13.608-13.536-13.608
						c-7.488,0-13.536,6.12-13.536,13.608l0,0c0,7.488,6.048,13.536,13.536,13.536C355.456,395.744,361.504,389.696,361.504,382.208
						L361.504,382.208L361.504,382.208z M440.344,382.208c0-7.488-6.12-13.608-13.608-13.608c-7.488,0-13.536,6.12-13.536,13.608
						l0,0c0,7.488,6.048,13.536,13.536,13.536C434.224,395.744,440.344,389.696,440.344,382.208L440.344,382.208z"/>
				</g>
			</g>
		</g>
	</g>
</g>
</svg>
