<?xml version="1.0" encoding="UTF-8" standalone="no"?>
<!-- Generator: Adobe Illustrator 15.1.0, SVG Export Plug-In . SVG Version: 6.00 Build 0)  -->

<svg
   xmlns:dc="http://purl.org/dc/elements/1.1/"
   xmlns:cc="http://creativecommons.org/ns#"
   xmlns:rdf="http://www.w3.org/1999/02/22-rdf-syntax-ns#"
   xmlns:svg="http://www.w3.org/2000/svg"
   xmlns="http://www.w3.org/2000/svg"
   xmlns:sodipodi="http://sodipodi.sourceforge.net/DTD/sodipodi-0.dtd"
   xmlns:inkscape="http://www.inkscape.org/namespaces/inkscape"
   version="1.0"
   x="0px"
   y="0px"
   width="542.37616"
   height="542.37598"
   viewBox="0 0 542.37616 542.37598"
   enable-background="new 0 0 595 842"
   xml:space="preserve"
   id="svg1969"
   sodipodi:docname="345.svg"
   inkscape:version="0.92.5 (2060ec1f9f, 2020-04-08)"><metadata
   id="metadata1975"><rdf:RDF><cc:Work
       rdf:about=""><dc:format>image/svg+xml</dc:format><dc:type
         rdf:resource="http://purl.org/dc/dcmitype/StillImage" /></cc:Work></rdf:RDF></metadata><defs
   id="defs1973" /><sodipodi:namedview
   pagecolor="#ffffff"
   bordercolor="#666666"
   borderopacity="1"
   objecttolerance="10"
   gridtolerance="10"
   guidetolerance="10"
   inkscape:pageopacity="0"
   inkscape:pageshadow="2"
   inkscape:window-width="640"
   inkscape:window-height="480"
   id="namedview1971"
   showgrid="false"
   inkscape:zoom="0.28028504"
   inkscape:cx="268.70808"
   inkscape:cy="245.464"
   inkscape:window-x="0"
   inkscape:window-y="0"
   inkscape:window-maximized="0"
   inkscape:current-layer="svg1969" />
<g
   id="Kuvataso_1"
   transform="translate(-28.791919,-124.088)">
</g>
<g
   id="_x30_"
   transform="translate(-28.791919,-124.088)">
</g>
<g
   id="HATKELT"
   transform="translate(-28.791919,-124.088)">
</g>
<g
   id="HAT"
   transform="translate(-28.791919,-124.088)">
</g>
<g
   id="HATPUN"
   transform="translate(-28.791919,-124.088)">
	<g
   id="g1966">
		<path
   d="M 426.736,635.072 C 512.632,589.568 571.168,499.28 571.168,395.384 v 0 C 571.24,291.416 512.704,200.984 426.736,155.48 v 9.792 c 81,44.712 135.864,130.968 135.936,230.04 v 0.072 c -0.144,99 -54.936,185.184 -135.936,229.896 z m 0,-75.528 v -163.8 c 7.488,0 13.608,-6.048 13.608,-13.536 v 0 c 0,-7.488 -6.048,-13.608 -13.608,-13.608 v 0 -3.816 c 8.856,-0.072 17.712,5.76 18,17.424 v 0 h 17.352 V 303.08 h -35.352 v -72.072 c 49.176,37.944 80.784,97.416 80.856,164.376 v 0 C 507.448,462.2 475.84,521.6 426.736,559.544 Z M 395.2,649.328 c 10.872,-4.104 21.384,-8.856 31.536,-14.256 v -9.792 c -10.08,5.616 -20.664,10.584 -31.536,14.832 z M 426.736,155.48 c -10.152,-5.4 -20.664,-10.152 -31.536,-14.256 v 9.216 c 10.872,4.248 21.456,9.216 31.536,14.832 z m 0,75.528 V 303.08 H 395.2 v -92.232 c 11.16,5.76 21.672,12.528 31.536,20.16 z m 0,133.776 v 3.816 c -7.488,0 -13.536,6.12 -13.536,13.608 v 0 c 0,7.488 6.048,13.536 13.536,13.536 v 0 163.8 c -9.864,7.632 -20.376,14.4 -31.536,20.16 V 537.44 c 4.176,3.888 9.792,6.408 15.912,6.768 v 0 0 -14.616 0 c -5.04,-0.936 -8.712,-5.256 -8.712,-10.368 v 0 -35.64 h 8.856 V 467.96 H 402.4 v -25.488 h -7.2 v -60.264 h 13.824 v 0 c 0.288,-11.592 9,-17.424 17.712,-17.424 z m -78.768,297.432 c 16.272,-2.88 32.04,-7.272 47.232,-12.888 v -9.216 c -15.12,5.904 -30.888,10.44 -47.232,13.464 z M 395.2,141.224 c -15.192,-5.616 -30.96,-10.008 -47.232,-12.888 v 8.64 c 16.344,3.024 32.112,7.56 47.232,13.464 z m 0,69.624 v 92.232 h -47.232 v -109.8 c 16.632,3.96 32.4,9.864 47.232,17.568 z m 0,171.36 v 60.264 h -8.064 v 25.488 h -7.992 v 15.624 h 7.992 v 36.432 -0.072 c 0.288,6.912 3.313,13.104 8.064,17.496 v 42.264 c -14.832,7.704 -30.6,13.608 -47.232,17.568 V 395.744 c 7.488,0 13.536,-6.048 13.536,-13.536 v 0 c 0,-7.488 -6.048,-13.608 -13.536,-13.608 v -3.888 c 8.784,0 17.568,5.832 17.856,17.496 v 0 z m -95.256,284.256 c 16.344,0 32.4,-1.44 48.024,-4.248 v -8.64 c -15.552,2.88 -31.608,4.392 -48.024,4.392 z m 48.024,-538.128 c -15.552,-2.808 -31.608,-4.248 -47.952,-4.248 -0.072,0 -0.072,0 -0.072,0 v 8.496 c 16.416,0 32.472,1.512 48.024,4.392 z m 0,64.944 v 109.8 h -26.136 v 72.864 H 303.4 V 303.08 h -3.456 v -115.416 0 c 16.56,0 32.616,1.944 48.024,5.616 z m 0,171.432 c -8.784,0 -17.568,5.832 -17.856,17.496 v 0 h -30.168 v 60.048 c 14.256,0 28.584,9.792 28.08,28.8 v 0 45.144 0 c 0,15.48 -12.6,28.08 -28.08,28.008 v 0 58.68 c 16.488,0 32.616,-1.944 48.024,-5.616 v -201.528 0 c -7.488,0 -13.536,-6.048 -13.536,-13.536 v 0 c 0,-7.488 6.048,-13.608 13.536,-13.608 z m -48.024,164.304 v -71.352 c 0.072,0 0.144,0 0.216,0 6.984,0 12.6,5.688 12.6,12.672 v 0 45.504 0 c 0.288,7.2 -5.472,13.176 -12.6,13.176 -0.072,0 -0.144,0 -0.216,0 z M 259.48,663.44 c 13.176,2.016 26.712,3.024 40.392,3.024 0,0 0,0 0.072,0 v -8.496 c -0.072,0 -0.072,0 -0.072,0 -13.68,0 -27.216,-1.08 -40.392,-3.096 z m 40.464,-539.352 c -13.752,0 -27.288,1.008 -40.464,3.024 v 8.568 c 13.176,-2.016 26.712,-3.096 40.464,-3.096 z m 0,63.576 V 303.08 H 259.48 V 191.696 c 13.104,-2.664 26.64,-4.032 40.464,-4.032 z m 0,194.544 v 60.048 c -13.608,0 -27.216,8.856 -27.864,27 v 0 46.728 0 c -0.072,15.552 12.384,28.152 27.864,28.224 v 58.68 c -0.072,0 -0.072,0 -0.072,0 -13.752,0 -27.288,-1.368 -40.392,-4.032 v -202.68 c 7.488,0 13.536,-6.12 13.536,-13.608 v 0 c 0,-7.488 -6.048,-13.536 -13.536,-13.536 v -4.248 c 8.856,-0.144 17.784,5.688 18.072,17.424 v 0 z m 0,75.456 c -6.84,0.144 -12.384,5.76 -12.312,12.672 v 0 45.504 0 c -0.288,7.128 5.256,13.032 12.312,13.176 z M 218.44,654.008 c 13.248,4.176 26.928,7.344 41.04,9.432 v -8.568 c -14.112,-2.232 -27.792,-5.544 -41.04,-9.864 z m 41.04,-526.896 c -14.112,2.088 -27.792,5.256 -41.04,9.432 v 9 c 13.248,-4.32 26.928,-7.632 41.04,-9.864 z m 0,64.584 V 303.08 h -41.04 v -98.712 c 13.032,-5.616 26.784,-9.864 41.04,-12.672 z m 0,173.088 v 4.248 c -7.488,0 -13.608,6.048 -13.608,13.536 v 0 c 0,7.488 6.12,13.608 13.608,13.608 v 0 202.68 c -14.256,-2.808 -28.008,-7.056 -41.04,-12.672 v -42.12 c 15.408,0 27.936,-12.456 27.936,-27.936 v 0 -7.128 0 c 0,-7.704 -3.168,-15.12 -8.784,-20.376 h -0.072 c 4.104,-4.608 6.336,-10.584 6.336,-16.704 v -0.072 -4.032 c 0,-14.04 -11.376,-25.416 -25.416,-25.416 v -60.192 h 23.4 v 0 c 0.216,-11.52 8.928,-17.352 17.64,-17.424 z m -41.04,164.088 c 6.984,0 12.672,-5.688 12.672,-12.744 v 0 -7.128 0 c 0,-6.984 -5.688,-12.744 -12.672,-12.672 z m 0,-46.8 c 5.616,0 10.152,-4.536 10.152,-10.152 v -0.072 -4.032 0 c 0,-5.616 -4.536,-10.152 -10.152,-10.152 z m -69.336,138.6 c 21.168,14.256 44.496,25.56 69.336,33.336 v -9 c -24.984,-8.136 -48.312,-19.944 -69.336,-34.776 z M 218.44,136.544 c -24.84,7.776 -48.168,19.08 -69.336,33.336 v 10.44 c 21.024,-14.832 44.352,-26.64 69.336,-34.776 z m 0,67.824 v 98.712 h -29.592 v 58.68 h 16.128 v 6.192 h -26.928 v -46.296 h -28.944 v -68.904 c 19.368,-20.52 42.912,-37.08 69.336,-48.384 z m 0,177.84 h -37.872 v 0 c -0.432,-18.36 -22.104,-22.248 -31.464,-11.592 v 9.936 c 0.936,-6.552 6.552,-11.52 13.392,-11.52 7.488,0 13.536,6.048 13.536,13.536 v 0 c 0,7.488 -6.048,13.608 -13.536,13.608 -6.84,0 -12.456,-5.04 -13.392,-11.52 V 537.8 c 19.368,20.52 42.912,37.08 69.336,48.384 v -42.12 0 c -15.48,0 -28.008,-12.528 -28.008,-27.936 v 0 h 15.264 v 0 c 0,6.984 5.688,12.744 12.744,12.744 v 0 -32.544 0 h -4.104 v -14.256 h 4.104 v 0 0 -24.408 c -5.616,0 -10.224,4.536 -10.224,10.152 v 0 h -15.264 0.072 c 0,-14.04 11.376,-25.416 25.416,-25.416 z M 149.104,350.96 h 16.488 V 329.288 H 149.104 Z M 28.792,395.312 C 28.72,489.2 76.456,572 149.104,620.672 v -10.44 C 81.496,562.712 37.288,484.16 37.216,395.24 v 0.072 C 37.288,306.392 81.496,227.84 149.104,180.32 V 169.88 C 76.528,218.552 28.72,301.352 28.792,395.24 Z m 120.312,-142.56 v 68.904 h -15.336 l -11.304,29.808 v 30.744 h 22.392 v 0 c 0.072,-4.896 1.728,-8.784 4.248,-11.592 v 9.936 c -0.144,0.648 -0.216,1.368 -0.216,2.016 v 0 c 0,0.72 0.072,1.44 0.216,2.088 V 537.8 C 113.968,500.576 92.368,450.464 92.368,395.312 v 0 c 0,-55.224 21.6,-105.336 56.736,-142.56 z m 0,76.536 v 21.672 h -16.56 l 7.2,-21.672 z"
   id="path1942"
   inkscape:connector-curvature="0"
   style="clip-rule:evenodd;fill:#ffd200;fill-rule:evenodd" />
		<path
   d="m 426.736,625.424 c 81.072,-44.712 136.008,-131.04 135.936,-230.04 v -0.072 C 562.744,296.168 507.808,209.84 426.736,165.128 v 65.88 c 49.176,37.944 80.784,97.416 80.856,164.376 v 0 C 507.448,462.2 475.84,521.6 426.736,559.544 Z m 0,-229.68 v -27.144 0 c 7.56,0 13.608,6.12 13.608,13.608 v 0 c 0,7.488 -6.12,13.536 -13.608,13.536 z m 0,-30.96 V 303.08 h 35.352 v 79.128 h -17.352 v 0 c -0.288,-11.664 -9.144,-17.496 -18,-17.424 z M 395.2,640.256 c 10.872,-4.248 21.456,-9.216 31.536,-14.832 v -65.88 c -9.864,7.632 -20.376,14.4 -31.536,20.16 z m 31.536,-475.128 c -10.08,-5.616 -20.664,-10.584 -31.536,-14.832 v 60.552 c 11.16,5.76 21.672,12.528 31.536,20.16 z m 0,137.952 v 61.704 c -8.712,0 -17.424,5.832 -17.712,17.424 v 0 H 395.2 V 303.08 Z m 0,65.52 c -7.488,0 -13.536,6.12 -13.536,13.608 v 0 c 0,7.488 6.048,13.536 13.536,13.536 v 0 z M 395.2,537.44 v -94.968 h 7.2 v 25.488 h 8.856 v 15.624 H 402.4 v 35.64 0 c 0,5.112 3.672,9.432 8.712,10.368 v 0 14.616 0 0 c -6.12,-0.36 -11.736,-2.88 -15.912,-6.768 z m -47.232,116.208 c 16.344,-3.024 32.112,-7.56 47.232,-13.392 v -60.552 c -14.832,7.704 -30.6,13.608 -47.232,17.568 z M 395.2,150.296 c -15.12,-5.832 -30.888,-10.368 -47.232,-13.392 v 56.376 c 16.632,3.96 32.4,9.864 47.232,17.568 z m 0,152.784 v 79.128 h -29.376 v 0 c -0.288,-11.664 -9.072,-17.496 -17.856,-17.496 V 303.08 Z m 0,139.392 v 94.968 c -4.752,-4.392 -7.776,-10.584 -8.064,-17.496 v 0.072 -36.432 h -7.992 V 467.96 h 7.992 v -25.488 z m -47.232,-46.728 c 7.488,0 13.536,-6.048 13.536,-13.536 v 0 c 0,-7.488 -6.048,-13.608 -13.536,-13.608 z m -48.024,262.224 c 16.416,0 32.472,-1.512 48.024,-4.32 v -56.376 c -15.408,3.672 -31.536,5.616 -48.024,5.616 z m 48.024,-521.064 c -15.552,-2.808 -31.608,-4.32 -48.024,-4.32 v 55.08 0 c 16.56,0 32.616,1.944 48.024,5.616 z m 0,166.176 v 61.632 c -8.784,0 -17.568,5.832 -17.856,17.496 v 0 H 299.944 V 303.08 h 3.456 v 72.864 h 18.432 V 303.08 Z m 0,65.52 c -7.488,0 -13.536,6.12 -13.536,13.608 v 0 c 0,7.488 6.048,13.536 13.536,13.536 v 0 z m -48.024,175.608 v -15.192 c 0.072,0 0.144,0 0.216,0 7.128,0 12.888,-5.976 12.6,-13.176 v 0 -45.504 0 c 0,-6.984 -5.616,-12.672 -12.6,-12.672 -0.072,0 -0.144,0 -0.216,0 v -15.408 c 14.256,0 28.584,9.792 28.08,28.8 v 0 45.144 0 c 0,15.48 -12.6,28.08 -28.08,28.008 z M 259.48,654.872 c 13.176,2.088 26.712,3.096 40.392,3.096 0,0 0,0 0.072,0 v -55.08 c -0.072,0 -0.072,0 -0.072,0 -13.752,0 -27.288,-1.368 -40.392,-4.032 z m 40.464,-522.288 c -13.752,0 -27.288,1.008 -40.464,3.096 v 56.016 c 13.104,-2.664 26.64,-4.032 40.464,-4.032 z m 0,170.496 v 79.128 h -22.392 v 0 C 277.264,370.472 268.336,364.64 259.48,364.784 V 303.08 Z m 0,139.176 v 15.408 c -6.84,0.144 -12.384,5.76 -12.312,12.672 v 0 45.504 0 c -0.288,7.128 5.256,13.032 12.312,13.176 v 15.192 c -15.48,-0.072 -27.936,-12.672 -27.864,-28.224 v 0 -46.728 0 c 0.648,-18.144 14.256,-27 27.864,-27 z m -40.464,-46.08 c 7.488,0 13.536,-6.12 13.536,-13.608 v 0 c 0,-7.488 -6.048,-13.536 -13.536,-13.536 z M 218.44,645.08 c 13.248,4.32 26.928,7.632 41.04,9.792 v -56.016 c -14.256,-2.808 -28.008,-7.056 -41.04,-12.672 z m 41.04,-509.4 c -14.112,2.16 -27.792,5.472 -41.04,9.792 v 58.896 c 13.032,-5.616 26.784,-9.864 41.04,-12.672 z m 0,167.4 v 61.704 c -8.712,0.072 -17.424,5.904 -17.64,17.424 v 0 h -23.4 V 303.08 Z m 0,65.952 c -7.488,0 -13.608,6.048 -13.608,13.536 v 0 c 0,7.488 6.12,13.608 13.608,13.608 v 0 z m -41.04,175.032 v -15.192 c 6.984,0 12.672,-5.688 12.672,-12.744 v 0 -7.128 0 c 0,-6.984 -5.688,-12.744 -12.672,-12.672 v 0 -14.256 c 5.616,0 10.152,-4.536 10.152,-10.152 v -0.072 -4.032 0 c 0,-5.616 -4.536,-10.152 -10.152,-10.152 V 442.4 c 14.04,0 25.416,11.376 25.416,25.416 v 4.032 0.072 c 0,6.12 -2.232,12.096 -6.336,16.704 h 0.072 c 5.616,5.256 8.784,12.672 8.784,20.376 v 0 7.128 0 c 0,15.48 -12.528,27.936 -27.936,27.936 z m -69.336,66.312 c 21.024,14.832 44.352,26.568 69.336,34.704 V 586.184 C 192.016,574.88 168.472,558.32 149.104,537.8 Z M 218.44,145.472 c -24.984,8.136 -48.312,19.872 -69.336,34.704 v 72.576 c 19.368,-20.52 42.912,-37.08 69.336,-48.384 z m 0,157.608 v 79.128 h -37.872 v 0 c -0.432,-18.36 -22.104,-22.248 -31.464,-11.592 V 350.96 h 16.488 v -21.672 h -16.488 v -7.632 h 28.944 v 46.296 h 26.928 v -6.192 h -16.128 v -58.68 z m 0,139.32 v 15.264 c -5.616,0 -10.224,4.536 -10.224,10.152 v 0 h -15.264 0.072 c 0,-14.04 11.376,-25.416 25.416,-25.416 z m 0,39.672 v 14.256 h -4.104 v -14.256 z m 0,46.8 v 15.192 0 c -15.48,0 -28.008,-12.528 -28.008,-27.936 v 0 h 15.264 v 0 c 0,6.984 5.688,12.744 12.744,12.744 z M 149.104,384.656 c 0.936,6.48 6.552,11.52 13.392,11.52 7.488,0 13.536,-6.12 13.536,-13.608 v 0 c 0,-7.488 -6.048,-13.536 -13.536,-13.536 -6.84,0 -12.456,4.968 -13.392,11.52 z m 69.336,97.416 z M 37.216,395.312 C 37.144,484.16 81.424,562.856 149.104,610.376 V 537.8 C 113.968,500.576 92.368,450.464 92.368,395.312 v 0 c 0,-55.224 21.6,-105.336 56.736,-142.56 V 180.176 C 81.424,227.696 37.144,306.392 37.216,395.312 Z m 111.888,-73.656 v 7.632 h -9.36 l -7.2,21.672 h 16.56 v 19.656 c -2.52,2.808 -4.176,6.696 -4.248,11.592 v 0 h -22.392 v -30.744 l 11.304,-29.808 z m 0,58.896 v 4.104 c -0.144,-0.648 -0.216,-1.368 -0.216,-2.088 v 0 c 0,-0.648 0.072,-1.368 0.216,-2.016 z"
   id="path1944"
   inkscape:connector-curvature="0"
   style="clip-rule:evenodd;fill:#ef3e42;fill-rule:evenodd" />
		<g
   id="g1964">
			<g
   id="g1952">
				<path
   d="m 192.952,467.816 h 15.264 v 0 c 0,-5.616 4.608,-10.152 10.224,-10.152 5.616,0 10.152,4.536 10.152,10.152 v 0 4.032 0.072 c 0,5.616 -4.536,10.152 -10.152,10.152 v 0 h -4.104 v 14.256 h 4.104 v 0 c 6.984,0 12.672,5.688 12.672,12.672 v 0 7.128 0 c 0,7.056 -5.688,12.672 -12.672,12.744 -7.056,-0.072 -12.744,-5.76 -12.744,-12.744 v 0 h -15.264 v 0 c 0,15.408 12.528,28.008 28.008,27.936 15.408,0.072 27.936,-12.456 27.936,-27.936 v 0 -7.128 0 c 0,-7.704 -3.168,-15.12 -8.784,-20.376 h -0.072 c 4.104,-4.608 6.336,-10.584 6.336,-16.704 v -0.072 -4.032 0 c 0,-14.04 -11.376,-25.416 -25.416,-25.416 -14.04,0 -25.488,11.376 -25.416,25.416 z"
   id="path1946"
   inkscape:connector-curvature="0"
   style="clip-rule:evenodd;fill-rule:evenodd" />
				<path
   d="m 402.4,442.472 h -15.264 v 25.488 h -7.992 v 15.624 h 7.992 v 36.432 -0.072 c 0.504,13.104 10.944,23.544 23.976,24.264 v 0 -14.616 0 c -5.04,-0.936 -8.712,-5.328 -8.712,-10.44 v 0 -35.568 h 8.856 V 467.96 H 402.4 Z"
   id="path1948"
   inkscape:connector-curvature="0"
   style="clip-rule:evenodd;fill-rule:evenodd" />
				<path
   d="m 300.16,544.208 c 13.896,-0.072 27.864,-9.36 27.864,-27.936 v 0 -46.8 0 C 327.52,451.4 313.84,442.328 300.16,442.256 v 15.408 c 6.264,0 12.456,4.176 12.6,12.456 v 0 45.72 0 c 0.288,7.2 -5.472,13.176 -12.6,13.176 z m -28.08,-74.952 v 47.16 0 c 0.144,18.576 14.184,27.864 28.08,27.792 v -15.192 0 c -7.128,0 -12.888,-5.976 -12.528,-13.176 v 0 -45.72 0 c 0.072,-8.28 6.336,-12.456 12.528,-12.456 v -15.408 c -13.68,-0.072 -27.432,8.928 -28.08,27 z"
   id="path1950"
   inkscape:connector-curvature="0"
   style="clip-rule:evenodd;fill-rule:evenodd" />
			</g>
			<g
   id="g1962">
				<path
   d="m 149.104,321.656 h 28.944 v 46.296 h 26.928 V 361.76 H 188.848 V 303.08 H 303.4 v 72.864 h 18.432 V 303.08 h 140.256 v 79.128 h -17.352 v 0 c -0.504,-23.256 -35.208,-23.256 -35.712,0 v 0 h -43.2 v 0 c -0.504,-23.256 -35.136,-23.256 -35.712,0 v 0 h -52.56 v 0 c -0.576,-23.256 -35.208,-23.256 -35.712,0 v 0 h -61.272 v 0 c -0.432,-18.36 -22.104,-22.248 -31.464,-11.592 V 350.96 h 16.488 v -21.672 h -16.488 z m -4.248,60.552 h -22.392 v -30.744 l 11.304,-29.808 h 15.336 v 7.632 h -9.36 l -7.2,21.672 h 16.56 v 19.656 c -2.52,2.808 -4.176,6.696 -4.248,11.592 z"
   id="path1954"
   inkscape:connector-curvature="0"
   style="clip-rule:evenodd;fill-rule:evenodd" />
				<g
   id="g1960">
					<path
   d="m 148.888,382.568 c 0,7.488 6.12,13.608 13.608,13.608 7.488,0 13.536,-6.12 13.536,-13.608 v 0 c 0,-7.488 -6.048,-13.536 -13.536,-13.536 -7.488,0 -13.608,6.048 -13.608,13.536 z m 124.128,0 c 0,-7.488 -6.048,-13.536 -13.536,-13.536 -7.488,0 -13.608,6.048 -13.608,13.536 v 0 c 0,7.488 6.12,13.608 13.608,13.608 7.488,0 13.536,-6.12 13.536,-13.608 z m 88.488,-0.36 c 0.072,-7.488 -6.048,-13.608 -13.536,-13.608 -7.488,0 -13.536,6.12 -13.536,13.608 v 0 c 0,7.488 6.048,13.536 13.536,13.536 7.488,0 13.536,-6.048 13.536,-13.536 z m 78.84,0 c 0,-7.488 -6.12,-13.608 -13.608,-13.608 -7.488,0 -13.536,6.12 -13.536,13.608 v 0 c 0,7.488 6.048,13.536 13.536,13.536 7.488,0 13.608,-6.048 13.608,-13.536 z"
   id="path1956"
   inkscape:connector-curvature="0"
   style="clip-rule:evenodd;fill-rule:evenodd" />
					<path
   stroke-miterlimit="10"
   d="m 148.888,382.568 c 0,7.488 6.12,13.608 13.608,13.608 7.488,0 13.536,-6.12 13.536,-13.608 v 0 c 0,-7.488 -6.048,-13.536 -13.536,-13.536 -7.488,0 -13.608,6.048 -13.608,13.536 z m 124.128,0 c 0,-7.488 -6.048,-13.536 -13.536,-13.536 -7.488,0 -13.608,6.048 -13.608,13.536 v 0 c 0,7.488 6.12,13.608 13.608,13.608 7.488,0 13.536,-6.12 13.536,-13.608 z m 88.488,-0.36 c 0.072,-7.488 -6.048,-13.608 -13.536,-13.608 -7.488,0 -13.536,6.12 -13.536,13.608 v 0 c 0,7.488 6.048,13.536 13.536,13.536 7.488,0 13.536,-6.048 13.536,-13.536 z m 78.84,0 c 0,-7.488 -6.12,-13.608 -13.608,-13.608 -7.488,0 -13.536,6.12 -13.536,13.608 v 0 c 0,7.488 6.048,13.536 13.536,13.536 7.488,0 13.608,-6.048 13.608,-13.536 z"
   id="path1958"
   inkscape:connector-curvature="0"
   style="clip-rule:evenodd;fill:none;fill-rule:evenodd;stroke:#000000;stroke-width:0.21600001;stroke-miterlimit:10" />
				</g>
			</g>
		</g>
	</g>
</g>
</svg>