<?xml version="1.0" encoding="UTF-8" standalone="no"?>
<!-- Generator: Adobe Illustrator 15.1.0, SVG Export Plug-In . SVG Version: 6.00 Build 0)  -->

<svg
   xmlns:dc="http://purl.org/dc/elements/1.1/"
   xmlns:cc="http://creativecommons.org/ns#"
   xmlns:rdf="http://www.w3.org/1999/02/22-rdf-syntax-ns#"
   xmlns:svg="http://www.w3.org/2000/svg"
   xmlns="http://www.w3.org/2000/svg"
   xmlns:sodipodi="http://sodipodi.sourceforge.net/DTD/sodipodi-0.dtd"
   xmlns:inkscape="http://www.inkscape.org/namespaces/inkscape"
   version="1.1"
   id="Layer_1"
   x="0px"
   y="0px"
   width="496.06299"
   height="495.94901"
   viewBox="0 0 496.06296 495.949"
   xml:space="preserve"
   sodipodi:docname="346-2.svg"
   inkscape:version="0.92.5 (2060ec1f9f, 2020-04-08)"><metadata
   id="metadata2009"><rdf:RDF><cc:Work
       rdf:about=""><dc:format>image/svg+xml</dc:format><dc:type
         rdf:resource="http://purl.org/dc/dcmitype/StillImage" /></cc:Work></rdf:RDF></metadata><defs
   id="defs2007" /><sodipodi:namedview
   pagecolor="#ffffff"
   bordercolor="#666666"
   borderopacity="1"
   objecttolerance="10"
   gridtolerance="10"
   guidetolerance="10"
   inkscape:pageopacity="0"
   inkscape:pageshadow="2"
   inkscape:window-width="640"
   inkscape:window-height="480"
   id="namedview2005"
   showgrid="false"
   inkscape:zoom="0.28032165"
   inkscape:cx="248.03101"
   inkscape:cy="247.97499"
   inkscape:window-x="0"
   inkscape:window-y="0"
   inkscape:window-maximized="0"
   inkscape:current-layer="Layer_1" />
<g
   id="CIRCLE_45_"
   transform="translate(-49.609,-172.971)">
	<path
   style="fill:#ffd200"
   d="m 545.672,420.974 c 0,-136.998 -111.138,-248.003 -248.079,-248.003 -136.96,0 -247.984,111.005 -247.984,248.003 0,136.923 111.024,247.946 247.984,247.946 136.941,0 248.079,-111.024 248.079,-247.946 z"
   id="path1977"
   inkscape:connector-curvature="0" />
</g>
<g
   id="CIRCLE_46_"
   transform="translate(-49.609,-172.971)">
	<path
   style="fill:#ef3e42"
   d="m 537.822,420.974 c 0,-132.732 -107.573,-240.211 -240.229,-240.211 -132.694,0 -240.211,107.479 -240.211,240.211 0,132.599 107.517,240.21 240.211,240.21 132.656,0 240.229,-107.612 240.229,-240.21 z"
   id="path1980"
   inkscape:connector-curvature="0" />
</g>
<g
   id="CIRCLE_47_"
   transform="translate(-49.609,-172.971)">
	<path
   style="fill:#ffd200"
   d="m 487.43,420.974 c 0,-104.825 -84.937,-189.875 -189.837,-189.875 -104.806,0 -189.837,85.05 -189.837,189.875 0,104.843 85.031,189.78 189.837,189.78 104.9,0 189.837,-84.938 189.837,-189.78 z"
   id="path1983"
   inkscape:connector-curvature="0" />
</g>
<g
   id="LWPOLYLINE_92_"
   transform="translate(-49.609,-172.971)">
	<path
   d="M 199.442,484.713 V 463.67 c -0.436,-8.152 -7.413,-14.371 -15.527,-13.992 -7.565,0.416 -13.499,6.445 -13.954,13.992 v 21.043 c -10.56,5.689 -14.522,18.922 -8.797,29.502 2.047,3.715 5.119,6.748 8.797,8.721 v 21.119 c 0.531,8.078 7.47,14.297 15.565,13.842 7.489,-0.455 13.48,-6.371 13.916,-13.842 v -21.119 h 9.385 v -9.252 l 72.423,2.426 c 2.085,9.102 11.11,14.789 20.097,12.74 6.446,-1.365 11.413,-6.445 12.76,-12.74 l 72.992,-2.426 v 9.252 h 9.403 v 21.119 c 0.417,8.078 7.28,14.371 15.471,13.992 7.508,-0.455 13.574,-6.445 13.916,-13.992 v -21.119 c 10.654,-5.84 14.371,-19.225 8.418,-29.842 -1.935,-3.527 -4.892,-6.408 -8.418,-8.381 V 463.67 c -0.417,-8.152 -7.395,-14.371 -15.509,-13.803 -7.47,0.379 -13.461,6.332 -13.878,13.803 v 21.043 h -9.403 v 9.252 l -72.992,-2.426 c -2.446,-9.025 -11.812,-14.334 -20.912,-11.906 -5.802,1.631 -10.333,6.143 -11.944,11.906 l -72.423,2.426 v -9.252 z"
   id="path1986"
   inkscape:connector-curvature="0" />
</g>
<g
   id="LWPOLYLINE_93_"
   transform="translate(-49.609,-172.971)">
	<polygon
   points="309.233,401.256 309.233,428.443 336.27,428.443 297.593,467.195 258.878,428.443 285.99,428.443 285.99,401.256 "
   id="polygon1989" />
</g>
<g
   id="LWPOLYLINE_94_"
   transform="translate(-49.609,-172.971)">
	<path
   d="m 209.13,287.407 c 5.498,-2.844 9.631,-7.773 11.527,-13.688 h 14.068 v 92.994 h -13.992 v -71.589 l -10.125,1.839 z"
   id="path1992"
   inkscape:connector-curvature="0" />
</g>
<g
   id="LWPOLYLINE_95_"
   transform="translate(-49.609,-172.971)">
	<path
   d="m 262.613,341.194 c 0,14.067 11.489,25.519 25.595,25.519 14.087,0 25.538,-11.452 25.538,-25.519 v -41.88 c 0,-14.105 -11.451,-25.595 -25.538,-25.595 -14.105,0 -25.595,11.489 -25.595,25.595 z"
   id="path1995"
   inkscape:connector-curvature="0" />
</g>
<g
   id="LWPOLYLINE_96_"
   transform="translate(-49.609,-172.971)">
	<path
   style="fill:#ffd200"
   d="m 276.605,341.194 c 0,6.427 5.214,11.622 11.603,11.622 6.427,0 11.641,-5.195 11.641,-11.622 v -41.88 c 0,-6.408 -5.213,-11.603 -11.641,-11.603 -6.389,0 -11.603,5.195 -11.603,11.603 z"
   id="path1998"
   inkscape:connector-curvature="0" />
</g>
<g
   id="LWPOLYLINE_97_"
   transform="translate(-49.609,-172.971)">
	<path
   d="m 378.226,296.962 h 7.963 v 13.992 h -7.963 v 33.899 c 0,4.379 3.488,7.963 7.963,7.963 v 13.897 c -12.096,0 -21.841,-9.764 -21.841,-21.86 v -33.899 h -7.963 v -13.992 h 7.963 v -23.244 h 13.878 z"
   id="path2001"
   inkscape:connector-curvature="0" />
</g>
</svg>