<?xml version="1.0" encoding="utf-8"?>
<!-- Generator: Adobe Illustrator 15.1.0, SVG Export Plug-In . SVG Version: 6.00 Build 0)  -->
<!DOCTYPE svg PUBLIC "-//W3C//DTD SVG 1.0//EN" "http://www.w3.org/TR/2001/REC-SVG-20010904/DTD/svg10.dtd">
<svg version="1.0" xmlns="http://www.w3.org/2000/svg" xmlns:xlink="http://www.w3.org/1999/xlink" x="0px" y="0px" width="595px"
	 height="842px" viewBox="0 0 595 842" enable-background="new 0 0 595 842" xml:space="preserve">
<g id="Kuvataso_1">
</g>
<g id="_x30_">
</g>
<g id="HAT">
</g>
<g id="HATKELT">
</g>
<g id="HATPUN">
	<g>
		<polygon fill-rule="evenodd" clip-rule="evenodd" fill="#FFD200" points="298.288,124.664 287.416,125.096 276.544,125.528 
			266.104,126.752 255.232,128.408 244.72,130.496 234.28,133.016 223.84,135.968 213.832,139.712 203.752,143.456 193.744,147.632 
			184.096,152.672 174.52,157.712 165.304,163.544 156.52,169.376 147.736,175.712 139.384,182.336 131.464,189.464 
			123.472,197.024 115.984,204.944 108.856,212.864 102.16,221.288 95.896,230 90.064,238.784 84.16,248 79.192,257.648 
			74.584,267.224 69.976,277.304 66.232,287.312 62.416,297.32 59.536,307.832 57.016,318.272 54.928,328.712 53.272,339.584 
			51.976,350.024 51.544,360.896 51.544,382.208 53.272,403.952 54.928,414.464 57.016,424.832 59.536,435.272 62.416,445.712 
			66.232,455.72 69.976,466.232 74.584,475.808 79.192,485.456 84.16,495.032 90.064,504.248 95.896,513.032 102.16,521.816 
			108.856,530.168 115.984,538.088 123.472,546.08 131.464,553.568 139.384,560.696 147.736,567.392 156.52,573.656 165.304,579.92 
			174.52,585.392 184.096,590.36 193.744,595.4 203.752,599.576 223.84,607.136 244.72,612.536 266.104,616.28 289.936,618.44 
			308.656,618.44 330.4,616.28 351.28,612.536 372.232,607.136 392.68,599.576 411.904,590.36 430.768,579.92 448.336,567.392 
			465.04,553.568 480.088,538.088 493.912,521.816 500.176,513.032 506.44,504.248 511.84,495.032 517.312,485.456 521.92,475.808 
			526.096,466.232 530.272,455.72 533.584,445.712 539.056,424.832 541.576,412.304 544.096,393.08 544.888,382.208 
			544.888,371.768 544.888,358.808 544.096,350.024 542.8,339.584 541.144,328.712 539.056,318.272 536.536,307.832 533.584,297.32 
			530.272,287.312 526.096,277.304 521.92,267.224 517.312,257.648 511.84,248 506.44,238.784 500.176,230 493.912,221.288 
			487.216,212.864 480.088,204.944 472.6,197.024 465.04,189.464 456.688,182.336 448.336,175.712 439.552,169.376 430.768,163.544 
			421.552,157.712 411.904,152.672 402.328,147.632 392.68,143.456 382.672,139.712 372.232,135.968 360.064,133.016 
			340.84,128.408 317.44,126.32 		"/>
		<polygon fill-rule="evenodd" clip-rule="evenodd" fill="#EF3E42" points="298.288,132.224 287.848,132.224 277.336,133.016 
			266.896,134.312 256.456,135.968 246.448,137.624 236.368,140.144 226.36,143.096 216.352,146.408 206.704,150.152 
			197.056,154.76 187.48,159.368 178.264,164.408 169.48,169.808 160.696,175.28 152.344,181.544 143.992,188.24 136.432,194.936 
			128.944,202.424 121.384,209.984 114.688,217.472 107.992,225.824 101.728,234.248 96.328,242.96 90.856,251.744 85.888,260.96 
			81.28,270.608 76.672,279.824 72.928,289.832 69.544,299.408 66.664,309.488 64.144,319.928 62.056,329.936 60.76,340.448 
			59.536,350.888 58.672,361.328 58.672,382.208 60.76,402.728 62.056,413.168 64.144,423.536 66.664,433.616 69.544,443.624 
			72.928,453.272 76.672,463.28 81.28,472.928 85.888,482.072 90.856,491.288 96.328,500.072 101.728,508.856 107.992,517.208 
			114.688,525.56 121.384,533.552 128.944,541.04 136.432,548.168 143.992,554.864 152.344,561.56 160.696,567.824 169.48,573.656 
			178.264,579.128 187.48,584.096 197.056,588.704 206.704,592.88 226.36,600.008 246.448,605.408 266.896,609.224 289.936,610.88 
			308.656,610.88 329.176,609.224 350.056,605.408 370.144,600.008 389.8,592.88 408.592,584.096 426.592,573.656 443.728,561.56 
			460,548.168 474.688,533.552 488.008,517.208 494.272,508.856 500.176,500.072 505.576,491.288 510.616,482.072 515.224,472.928 
			519.4,463.28 523.144,453.272 526.528,443.624 531.928,423.536 534.448,411.08 536.536,392.288 537.4,382.208 537.4,371.768 
			537.76,359.24 536.536,350.888 535.672,340.448 534.016,329.936 531.928,319.928 529.408,309.488 526.528,299.408 
			523.144,289.832 519.4,279.824 515.224,270.608 510.616,260.96 505.576,251.744 500.176,242.96 494.272,234.248 488.008,225.824 
			481.312,217.472 474.688,209.984 467.56,202.424 460,194.936 452.08,188.24 443.728,181.544 435.376,175.28 426.592,169.808 
			417.808,164.408 408.592,159.368 399.376,154.76 389.8,150.152 380.152,146.408 370.144,143.096 357.976,140.144 339.616,135.968 
			317.008,133.88 		"/>
		<polygon fill-rule="evenodd" clip-rule="evenodd" fill="#FFD200" points="298.288,182.336 289.936,182.768 281.584,183.2 
			273.592,184.064 265.24,185.288 257.32,186.944 249.328,189.032 241.408,191.12 233.488,194.072 225.928,197.024 218.44,200.336 
			210.88,204.08 203.752,207.896 196.696,212.072 189.568,216.68 182.872,221.648 176.608,226.688 170.344,232.16 164.44,237.992 
			158.608,243.824 153.208,250.088 148.168,256.352 143.128,263.048 138.52,270.176 134.344,277.304 130.6,284.36 126.856,291.488 
			123.472,299.408 120.592,306.968 117.64,314.888 115.552,322.88 113.464,330.8 111.808,338.72 110.512,347.144 109.72,355.064 
			109.288,363.416 109.288,379.688 110.512,396.464 111.808,404.384 113.464,412.304 115.552,420.728 117.64,428.576 
			120.592,436.064 123.472,444.056 126.856,451.544 130.6,458.672 134.344,466.232 138.52,472.928 143.128,479.984 148.168,486.68 
			153.208,492.944 158.608,499.208 164.44,505.112 170.344,510.944 176.608,516.416 182.872,521.384 189.568,526.424 
			196.696,531.032 203.752,535.208 210.88,539.384 218.44,542.696 225.928,546.08 241.408,551.912 257.32,556.088 273.592,559.04 
			291.592,560.696 306.136,560.264 322.84,559.04 339.184,556.088 355.096,551.912 370.576,546.08 385.624,539.384 399.808,531.032 
			413.2,521.384 425.728,510.944 437.464,499.208 447.904,486.68 452.944,479.984 457.48,472.928 461.728,466.232 465.904,458.672 
			469.648,451.544 472.96,444.056 475.912,436.064 478.432,428.576 482.608,412.304 484.696,402.728 486.352,388.112 
			487.216,379.688 487.216,371.768 487.216,361.76 486.352,355.064 485.56,347.144 484.264,338.72 482.608,330.8 480.52,322.88 
			478.432,314.888 475.912,306.968 472.96,299.408 469.648,291.488 465.904,284.36 461.728,277.304 457.48,270.176 452.944,263.048 
			447.904,256.352 442.864,250.088 437.464,243.824 431.56,237.992 425.728,232.16 419.464,226.688 413.2,221.648 406.504,216.68 
			399.808,212.072 392.68,207.896 385.624,204.08 378.064,200.336 370.576,197.024 362.584,194.072 355.096,191.12 345.448,188.672 
			330.832,185.288 312.832,184.064 		"/>
		<g>
			<polygon fill-rule="evenodd" clip-rule="evenodd" points="171.136,434.84 168.688,436.496 166.168,438.584 164.44,441.104 
				162.352,443.624 161.128,448.232 159.904,452.408 160.264,458.672 162.352,464.504 164.44,467.024 166.168,469.544 
				168.688,471.632 171.136,473.288 171.136,494.24 172.432,499.208 175.312,503.384 179.56,506.336 184.528,507.992 190,507.632 
				194.608,505.112 197.92,501.296 200.44,496.76 200.44,494.24 200.44,473.288 210.016,473.288 210.016,464.144 281.944,466.232 
				283.672,469.976 285.76,473.288 288.64,475.376 292.024,477.464 296.992,478.76 302.392,478.328 307,476.672 311.176,473.288 
				312.4,471.2 314.92,466.232 387.28,463.712 387.28,473.288 396.856,473.288 396.496,492.512 397.288,496.76 398.944,501.296 
				402.76,505.112 406.504,507.2 412.768,507.992 417.808,506.768 421.984,503.384 424.864,499.208 425.728,496.76 426.16,494.24 
				426.16,473.288 428.68,471.632 433.288,467.024 436.168,461.624 437.032,458.672 437.464,452.408 436.168,446.576 
				433.288,441.104 431.2,438.584 428.68,436.496 426.16,434.84 426.16,414.032 425.728,411.512 424.864,408.992 423.64,406.904 
				421.984,404.816 419.896,403.16 417.808,401.864 415.288,400.64 412.768,400.208 409.816,400.208 407.368,400.64 
				404.848,401.864 402.76,403.16 400.672,404.816 399.376,406.904 397.72,408.992 397.288,411.512 396.856,414.032 396.856,434.84 
				387.28,434.84 387.28,444.056 314.92,441.968 312.832,436.928 309.088,433.184 304.912,430.232 299.44,429.008 294.544,429.44 
				289.504,431.528 287.416,433.184 285.76,434.84 284.032,436.928 282.808,439.448 281.944,441.968 210.016,444.056 
				210.016,434.84 200.44,434.84 200.44,414.032 200.44,411.512 199.144,408.992 197.92,406.904 196.696,404.816 194.608,403.16 
				192.088,401.864 190,400.64 187.048,400.208 184.528,400.208 182.008,400.64 179.56,401.864 177.472,403.16 175.312,404.816 
				173.656,406.904 172.432,408.992 171.568,411.512 171.136,414.032 			"/>
			<polygon fill-rule="evenodd" clip-rule="evenodd" points="286.984,352.112 309.88,352.112 309.88,378.896 336.664,378.896 
				298.288,417.776 259.84,378.896 286.984,378.896 			"/>
			<polygon fill-rule="evenodd" clip-rule="evenodd" points="241.84,267.656 239.32,270.176 237.232,272.696 236.008,276.008 
				233.92,282.272 233.488,288.968 233.92,295.664 235.576,301.928 238.888,307.832 243.496,312.44 248.968,315.752 
				255.232,317.408 260.2,317.408 265.24,316.976 271.072,314.528 274.024,312.8 278.632,308.192 280.72,305.312 283.24,299.408 
				284.032,293.144 284.032,286.88 283.672,282.272 282.808,278.96 281.584,275.576 279.856,272.696 275.68,267.656 
				277.336,265.136 279.856,261.392 281.152,256.784 281.584,250.952 281.152,245.12 280.288,242.168 279.496,239.216 
				276.544,235.04 273.592,231.296 268.192,227.912 261.928,226.256 258.544,225.824 255.592,226.256 252.28,227.12 
				249.328,227.912 246.448,229.64 243.928,231.296 241.84,233.816 239.752,236.336 238.096,239.216 236.8,242.168 236.008,245.12 
				236.008,250.088 236.368,254.264 236.8,258.872 238.096,262.256 			"/>
			<polygon fill-rule="evenodd" clip-rule="evenodd" fill="#FFD200" points="260.632,240.08 264.376,241.736 266.896,245.12 
				267.76,248.864 267.76,252.608 266.464,256.352 264.016,259.304 260.632,260.96 256.456,260.96 253.144,259.304 250.624,255.992 
				249.76,250.52 249.76,247.208 251.416,243.392 254.8,240.872 256.456,240.08 			"/>
			<polygon fill-rule="evenodd" clip-rule="evenodd" fill="#FFD200" points="258.112,274.784 260.2,274.784 264.376,276.44 
				268.192,279.392 269.848,283.568 270.28,289.4 269.848,295.664 267.76,299.408 264.376,302.36 260.632,304.016 256.024,303.656 
				252.28,301.928 249.328,298.616 247.672,294.872 247.24,285.224 248.968,280.616 251.848,277.304 255.592,275.216 			"/>
			<polygon fill-rule="evenodd" clip-rule="evenodd" points="335.008,262.256 342.496,262.256 342.496,294.872 342.928,298.184 
				343.792,301.568 345.016,304.448 346.672,307.4 349.192,310.28 351.712,312.44 354.232,314.528 357.544,316.184 360.496,316.976 
				363.88,317.84 363.88,303.224 360.064,301.568 358.84,299.84 356.752,296.096 356.752,294.008 356.752,262.256 363.88,262.256 
				363.88,248 356.752,248 356.752,225.032 342.496,225.032 342.496,248 335.008,248 			"/>
		</g>
	</g>
</g>
</svg>
