<?xml version="1.0" encoding="UTF-8" standalone="no"?>
<!-- Generator: Adobe Illustrator 15.1.0, SVG Export Plug-In . SVG Version: 6.00 Build 0)  -->

<svg
   xmlns:dc="http://purl.org/dc/elements/1.1/"
   xmlns:cc="http://creativecommons.org/ns#"
   xmlns:rdf="http://www.w3.org/1999/02/22-rdf-syntax-ns#"
   xmlns:svg="http://www.w3.org/2000/svg"
   xmlns="http://www.w3.org/2000/svg"
   xmlns:sodipodi="http://sodipodi.sourceforge.net/DTD/sodipodi-0.dtd"
   xmlns:inkscape="http://www.inkscape.org/namespaces/inkscape"
   version="1.1"
   id="Layer_1"
   x="0px"
   y="0px"
   width="496.06299"
   height="496.08301"
   viewBox="0 0 496.06296 496.083"
   xml:space="preserve"
   sodipodi:docname="347-2.svg"
   inkscape:version="0.92.5 (2060ec1f9f, 2020-04-08)"><metadata
   id="metadata2099"><rdf:RDF><cc:Work
       rdf:about=""><dc:format>image/svg+xml</dc:format><dc:type
         rdf:resource="http://purl.org/dc/dcmitype/StillImage" /></cc:Work></rdf:RDF></metadata><defs
   id="defs2097" /><sodipodi:namedview
   pagecolor="#ffffff"
   bordercolor="#666666"
   borderopacity="1"
   objecttolerance="10"
   gridtolerance="10"
   guidetolerance="10"
   inkscape:pageopacity="0"
   inkscape:pageshadow="2"
   inkscape:window-width="640"
   inkscape:window-height="480"
   id="namedview2095"
   showgrid="false"
   inkscape:zoom="0.28032165"
   inkscape:cx="248.03101"
   inkscape:cy="248.04199"
   inkscape:window-x="0"
   inkscape:window-y="0"
   inkscape:window-maximized="0"
   inkscape:current-layer="Layer_1" />
<g
   id="CIRCLE_64_"
   transform="translate(-49.609,-172.904)">
	<path
   style="fill:#ffd200"
   d="m 545.672,420.973 c 0,-137.034 -111.054,-248.069 -248.069,-248.069 -136.959,0 -247.994,111.035 -247.994,248.069 0,136.959 111.035,248.014 247.994,248.014 137.015,-10e-4 248.069,-111.055 248.069,-248.014 z"
   id="path2046"
   inkscape:connector-curvature="0" />
</g>
<g
   id="CIRCLE_65_"
   transform="translate(-49.609,-172.904)">
	<path
   style="fill:#ef3e42"
   d="m 537.935,420.973 c 0,-132.768 -107.564,-240.274 -240.332,-240.274 -132.711,0 -240.275,107.507 -240.275,240.274 0,132.636 107.564,240.275 240.275,240.275 132.767,0 240.332,-107.64 240.332,-240.275 z"
   id="path2049"
   inkscape:connector-curvature="0" />
</g>
<g
   id="CIRCLE_66_"
   transform="translate(-49.609,-172.904)">
	<path
   style="fill:#ffd200"
   d="m 487.49,420.973 c 0,-104.853 -84.96,-189.925 -189.888,-189.925 -104.854,0 -189.869,85.072 -189.869,189.925 0,104.872 85.016,189.831 189.869,189.831 104.928,0 189.888,-84.959 189.888,-189.831 z"
   id="path2052"
   inkscape:connector-curvature="0" />
</g>
<g
   id="CIRCLE_67_"
   transform="translate(-49.609,-172.904)">
	<path
   d="m 271.849,528.424 c 0,-26.322 -21.334,-47.6 -47.676,-47.6 -26.322,0 -47.638,21.277 -47.638,47.6 0,26.323 21.315,47.676 47.638,47.676 26.342,0 47.676,-21.354 47.676,-47.676 z"
   id="path2055"
   inkscape:connector-curvature="0" />
</g>
<g
   id="CIRCLE_68_"
   transform="translate(-49.609,-172.904)">
	<path
   d="m 419.333,528.424 c 0,-26.322 -21.354,-47.6 -47.6,-47.6 -26.304,0 -47.619,21.277 -47.619,47.6 0,26.323 21.316,47.676 47.619,47.676 26.246,0 47.6,-21.354 47.6,-47.676 z"
   id="path2058"
   inkscape:connector-curvature="0" />
</g>
<g
   id="CIRCLE_69_"
   transform="translate(-49.609,-172.904)">
	<path
   style="fill:#ffd200"
   d="m 250.059,528.424 c 0,-14.261 -11.511,-25.867 -25.886,-25.867 -14.299,0 -25.829,11.606 -25.829,25.867 0,14.261 11.53,25.943 25.829,25.943 14.375,0 25.886,-11.682 25.886,-25.943 z"
   id="path2061"
   inkscape:connector-curvature="0" />
</g>
<g
   id="CIRCLE_70_"
   transform="translate(-49.609,-172.904)">
	<path
   style="fill:#ffd200"
   d="m 397.6,528.424 c 0,-14.261 -11.605,-25.867 -25.866,-25.867 -14.337,0 -25.925,11.606 -25.925,25.867 0,14.261 11.588,25.943 25.925,25.943 14.26,0 25.866,-11.682 25.866,-25.943 z"
   id="path2064"
   inkscape:connector-curvature="0" />
</g>
<g
   id="CIRCLE_71_"
   transform="translate(-49.609,-172.904)">
	<path
   d="m 242.416,528.424 c 0,-10.013 -8.192,-18.168 -18.243,-18.168 -10.051,0 -18.205,8.155 -18.205,18.168 0,10.089 8.154,18.206 18.205,18.206 10.051,0 18.243,-8.117 18.243,-18.206 z"
   id="path2067"
   inkscape:connector-curvature="0" />
</g>
<g
   id="ELLIPSE_7_"
   transform="translate(-49.609,-172.904)">
	<path
   d="m 389.938,528.424 c 0,-10.013 -8.116,-18.168 -18.205,-18.168 -10.014,0 -18.206,8.155 -18.206,18.168 0,10.089 8.192,18.206 18.206,18.206 10.089,0 18.205,-8.117 18.205,-18.206"
   id="path2070"
   inkscape:connector-curvature="0" />
</g>
<g
   id="LWPOLYLINE_112_"
   transform="translate(-49.609,-172.904)">
	<path
   d="m 279.624,538.664 c 1.176,-7.13 1.176,-14.374 0,-21.543 h 37.057 c -1.594,7.093 -1.594,14.413 0,21.543 z"
   id="path2073"
   inkscape:connector-curvature="0" />
</g>
<g
   id="LWPOLYLINE_113_"
   transform="translate(-49.609,-172.904)">
	<path
   d="m 437.349,528.424 c -0.151,-36.563 -29.812,-66.223 -66.45,-66.071 H 224.098 c -36.411,0 -65.882,29.584 -65.958,65.92 0,0.151 9.464,0.151 9.464,0.151 0,-31.177 25.298,-56.513 56.494,-56.513 h 146.801 c 31.48,-0.228 57.006,25.185 57.158,56.513 z"
   id="path2076"
   inkscape:connector-curvature="0" />
</g>
<g
   id="LWPOLYLINE_114_"
   transform="translate(-49.609,-172.904)">
	<polygon
   points="309.436,384.732 309.436,411.946 336.498,411.946 297.83,450.671 259.086,411.946 286.224,411.946 286.224,384.732 "
   id="polygon2079" />
</g>
<g
   id="LWPOLYLINE_115_"
   transform="translate(-49.609,-172.904)">
	<path
   style="stroke:#000000;stroke-width:0.7087;stroke-linecap:round;stroke-linejoin:round;stroke-miterlimit:10"
   d="m 209.191,278.42 c 5.5,-2.807 9.615,-7.775 11.454,-13.654 h 14.033 v 92.981 h -13.9 v -71.608 l -10.24,1.839 z"
   id="path2082"
   inkscape:connector-curvature="0" />
</g>
<g
   id="LWPOLYLINE_117_"
   transform="translate(-49.609,-172.904)">
	<path
   style="stroke:#000000;stroke-width:0.7087;stroke-linecap:round;stroke-linejoin:round;stroke-miterlimit:10"
   d="M 262.67,332.146 V 317.62 c 3.262,-19.306 11.379,-37.512 23.554,-52.854 h 18.642 c -10.79,10.848 -18.983,23.914 -24.065,38.251 2.428,-0.664 4.854,-1.043 7.396,-1.043 14.128,0 25.602,11.454 25.602,25.525 v 4.646 c 0,14.146 -11.474,25.602 -25.602,25.602 -14.148,0 -25.527,-11.455 -25.527,-25.601 z"
   id="path2085"
   inkscape:connector-curvature="0" />
</g>
<g
   id="LWPOLYLINE_118_"
   transform="translate(-49.609,-172.904)">
	<path
   style="stroke:#000000;stroke-width:0.7087;stroke-linecap:round;stroke-linejoin:round;stroke-miterlimit:10"
   d="m 378.332,287.978 h 7.813 v 13.996 h -7.813 v 33.907 c 0,4.381 3.49,7.908 7.813,7.908 v 13.958 c -12.061,0 -21.847,-9.767 -21.847,-21.866 v -33.907 h -7.851 v -13.996 h 7.851 v -23.212 h 14.033 v 23.212 z"
   id="path2088"
   inkscape:connector-curvature="0" />
</g>
<g
   id="LWPOLYLINE_116_"
   transform="translate(-49.609,-172.904)">
	<path
   style="fill:#ffd200"
   d="m 276.552,332.146 c 0,6.429 5.215,11.644 11.645,11.644 6.409,0 11.605,-5.215 11.605,-11.644 V 327.5 c 0,-6.429 -5.196,-11.606 -11.605,-11.606 -6.43,0 -11.645,5.178 -11.645,11.606 z"
   id="path2091"
   inkscape:connector-curvature="0" />
</g>
</svg>