<?xml version="1.0" encoding="iso-8859-1"?>
<!-- Generator: Adobe Illustrator 15.1.0, SVG Export Plug-In . SVG Version: 6.00 Build 0)  -->
<!DOCTYPE svg PUBLIC "-//W3C//DTD SVG 1.1//EN" "http://www.w3.org/Graphics/SVG/1.1/DTD/svg11.dtd">
<svg version="1.1" id="Layer_1" xmlns="http://www.w3.org/2000/svg" xmlns:xlink="http://www.w3.org/1999/xlink" x="0px" y="0px"
	 width="595.28px" height="841.89px" viewBox="0 0 595.28 841.89" style="enable-background:new 0 0 595.28 841.89;"
	 xml:space="preserve">
<g id="CIRCLE_64_">
	<path style="fill:#FFD200;" d="M545.672,420.973c0-137.034-111.054-248.069-248.069-248.069
		c-136.959,0-247.994,111.035-247.994,248.069c0,136.959,111.035,248.014,247.994,248.014
		C434.618,668.986,545.672,557.932,545.672,420.973L545.672,420.973z"/>
</g>
<g id="CIRCLE_65_">
	<path style="fill:#EF3E42;" d="M537.935,420.973c0-132.768-107.564-240.274-240.332-240.274
		c-132.711,0-240.275,107.507-240.275,240.274c0,132.636,107.564,240.275,240.275,240.275
		C430.37,661.248,537.935,553.608,537.935,420.973L537.935,420.973z"/>
</g>
<g id="CIRCLE_66_">
	<path style="fill:#FFD200;" d="M487.49,420.973c0-104.853-84.96-189.925-189.888-189.925
		c-104.854,0-189.869,85.072-189.869,189.925c0,104.872,85.016,189.831,189.869,189.831
		C402.53,610.804,487.49,525.845,487.49,420.973L487.49,420.973z"/>
</g>
<g id="CIRCLE_67_">
	<path d="M271.849,528.424c0-26.322-21.334-47.6-47.676-47.6c-26.322,0-47.638,21.277-47.638,47.6s21.315,47.676,47.638,47.676
		C250.515,576.1,271.849,554.746,271.849,528.424L271.849,528.424z"/>
</g>
<g id="CIRCLE_68_">
	<path d="M419.333,528.424c0-26.322-21.354-47.6-47.6-47.6c-26.304,0-47.619,21.277-47.619,47.6S345.43,576.1,371.733,576.1
		C397.979,576.1,419.333,554.746,419.333,528.424L419.333,528.424z"/>
</g>
<g id="CIRCLE_69_">
	<path style="fill:#FFD200;" d="M250.059,528.424c0-14.261-11.511-25.867-25.886-25.867c-14.299,0-25.829,11.606-25.829,25.867
		s11.53,25.943,25.829,25.943C238.548,554.367,250.059,542.685,250.059,528.424L250.059,528.424z"/>
</g>
<g id="CIRCLE_70_">
	<path style="fill:#FFD200;" d="M397.6,528.424c0-14.261-11.605-25.867-25.866-25.867c-14.337,0-25.925,11.606-25.925,25.867
		s11.588,25.943,25.925,25.943C385.994,554.367,397.6,542.685,397.6,528.424L397.6,528.424z"/>
</g>
<g id="CIRCLE_71_">
	<path d="M242.416,528.424c0-10.013-8.192-18.168-18.243-18.168s-18.205,8.155-18.205,18.168c0,10.089,8.154,18.206,18.205,18.206
		S242.416,538.513,242.416,528.424L242.416,528.424z"/>
</g>
<g id="ELLIPSE_7_">
	<path d="M389.938,528.424c0-10.013-8.116-18.168-18.205-18.168c-10.014,0-18.206,8.155-18.206,18.168
		c0,10.089,8.192,18.206,18.206,18.206C381.822,546.63,389.938,538.513,389.938,528.424"/>
</g>
<g id="LWPOLYLINE_112_">
	<path d="M279.624,538.664c1.176-7.13,1.176-14.374,0-21.543h37.057c-1.594,7.093-1.594,14.413,0,21.543H279.624z"/>
</g>
<g id="LWPOLYLINE_113_">
	<path d="M437.349,528.424c-0.151-36.563-29.812-66.223-66.45-66.071H224.098c-36.411,0-65.882,29.584-65.958,65.92
		c0,0.151,9.464,0.151,9.464,0.151c0-31.177,25.298-56.513,56.494-56.513h146.801c31.48-0.228,57.006,25.185,57.158,56.513H437.349z
		"/>
</g>
<g id="LWPOLYLINE_114_">
	<polygon points="286.224,411.946 286.224,384.732 309.436,384.732 309.436,411.946 336.498,411.946 297.83,450.671 
		259.086,411.946 	"/>
</g>
<g id="LWPOLYLINE_115_">
	<path style="stroke:#000000;stroke-width:0.7087;stroke-linecap:round;stroke-linejoin:round;stroke-miterlimit:10;" d="
		M209.191,278.42c5.5-2.807,9.615-7.775,11.454-13.654h14.033v92.981h-13.9v-71.608l-10.24,1.839L209.191,278.42z"/>
</g>
<g id="LWPOLYLINE_117_">
	<path style="stroke:#000000;stroke-width:0.7087;stroke-linecap:round;stroke-linejoin:round;stroke-miterlimit:10;" d="
		M262.67,332.146v-14.526c3.262-19.306,11.379-37.512,23.554-52.854h18.642c-10.79,10.848-18.983,23.914-24.065,38.251
		c2.428-0.664,4.854-1.043,7.396-1.043c14.128,0,25.602,11.454,25.602,25.525v4.646c0,14.146-11.474,25.602-25.602,25.602
		C274.049,357.747,262.67,346.292,262.67,332.146z"/>
</g>
<g id="LWPOLYLINE_118_">
	<path style="stroke:#000000;stroke-width:0.7087;stroke-linecap:round;stroke-linejoin:round;stroke-miterlimit:10;" d="
		M378.332,287.978h7.813v13.996h-7.813v33.907c0,4.381,3.49,7.908,7.813,7.908v13.958c-12.061,0-21.847-9.767-21.847-21.866v-33.907
		h-7.851v-13.996h7.851v-23.212h14.033V287.978z"/>
</g>
<g id="LWPOLYLINE_116_">
	<path style="fill:#FFD200;" d="M276.552,332.146c0,6.429,5.215,11.644,11.645,11.644c6.409,0,11.605-5.215,11.605-11.644v-4.646
		c0-6.429-5.196-11.606-11.605-11.606c-6.43,0-11.645,5.178-11.645,11.606V332.146z"/>
</g>
</svg>
