<?xml version="1.0" encoding="UTF-8" standalone="no"?>
<!-- Generator: Adobe Illustrator 15.1.0, SVG Export Plug-In . SVG Version: 6.00 Build 0)  -->

<svg
   xmlns:dc="http://purl.org/dc/elements/1.1/"
   xmlns:cc="http://creativecommons.org/ns#"
   xmlns:rdf="http://www.w3.org/1999/02/22-rdf-syntax-ns#"
   xmlns:svg="http://www.w3.org/2000/svg"
   xmlns="http://www.w3.org/2000/svg"
   xmlns:sodipodi="http://sodipodi.sourceforge.net/DTD/sodipodi-0.dtd"
   xmlns:inkscape="http://www.inkscape.org/namespaces/inkscape"
   version="1.1"
   id="Layer_1"
   x="0px"
   y="0px"
   width="496.06299"
   height="496.00601"
   viewBox="0 0 496.06296 496.006"
   xml:space="preserve"
   sodipodi:docname="347-3.svg"
   inkscape:version="0.92.5 (2060ec1f9f, 2020-04-08)"><metadata
   id="metadata2157"><rdf:RDF><cc:Work
       rdf:about=""><dc:format>image/svg+xml</dc:format><dc:type
         rdf:resource="http://purl.org/dc/dcmitype/StillImage" /></cc:Work></rdf:RDF></metadata><defs
   id="defs2155" /><sodipodi:namedview
   pagecolor="#ffffff"
   bordercolor="#666666"
   borderopacity="1"
   objecttolerance="10"
   gridtolerance="10"
   guidetolerance="10"
   inkscape:pageopacity="0"
   inkscape:pageshadow="2"
   inkscape:window-width="640"
   inkscape:window-height="480"
   id="namedview2153"
   showgrid="false"
   inkscape:zoom="0.28032165"
   inkscape:cx="248.26301"
   inkscape:cy="248.86699"
   inkscape:window-x="0"
   inkscape:window-y="0"
   inkscape:window-maximized="0"
   inkscape:current-layer="Layer_1" />
<g
   id="CIRCLE_56_"
   transform="translate(-49.377,-173.806)">
	<path
   style="fill:#ffd200"
   d="m 545.44,421.837 c 0,-137.014 -111.112,-248.031 -248.031,-248.031 -136.995,0 -248.032,111.018 -248.032,248.031 0,136.938 111.037,247.975 248.032,247.975 136.919,0 248.031,-111.037 248.031,-247.975 z"
   id="path2101"
   inkscape:connector-curvature="0" />
</g>
<g
   id="CIRCLE_57_"
   transform="translate(-49.377,-173.806)">
	<path
   style="fill:#ef3e42"
   d="m 537.629,421.837 c 0,-132.747 -107.548,-240.238 -240.22,-240.238 -132.729,0 -240.257,107.491 -240.257,240.238 0,132.615 107.529,240.238 240.257,240.238 132.672,0 240.22,-107.623 240.22,-240.238 z"
   id="path2104"
   inkscape:connector-curvature="0" />
</g>
<g
   id="CIRCLE_58_"
   transform="translate(-49.377,-173.806)">
	<path
   style="fill:#ffd200"
   d="m 487.229,421.837 c 0,-104.836 -84.984,-189.896 -189.82,-189.896 -104.836,0 -189.877,85.06 -189.877,189.896 0,104.855 85.041,189.802 189.877,189.802 104.836,0 189.82,-84.947 189.82,-189.802 z"
   id="path2107"
   inkscape:connector-curvature="0" />
</g>
<g
   id="CIRCLE_59_"
   transform="translate(-49.377,-173.806)">
	<path
   d="m 271.584,529.271 c 0,-26.318 -21.313,-47.593 -47.612,-47.593 -26.28,0 -47.611,21.274 -47.611,47.593 0,26.319 21.331,47.668 47.611,47.668 26.299,0 47.612,-21.349 47.612,-47.668 z"
   id="path2110"
   inkscape:connector-curvature="0" />
</g>
<g
   id="CIRCLE_60_"
   transform="translate(-49.377,-173.806)">
	<path
   d="m 419.159,529.271 c 0,-26.318 -21.313,-47.593 -47.631,-47.593 -26.375,0 -47.668,21.274 -47.668,47.593 0,26.319 21.293,47.668 47.668,47.668 26.319,0 47.631,-21.349 47.631,-47.668 z"
   id="path2113"
   inkscape:connector-curvature="0" />
</g>
<g
   id="CIRCLE_61_"
   transform="translate(-49.377,-173.806)">
	<path
   style="fill:#ffd200"
   d="m 249.874,529.271 c 0,-14.259 -11.604,-25.863 -25.901,-25.863 -14.296,0 -25.901,11.604 -25.901,25.863 0,14.259 11.604,25.938 25.901,25.938 14.296,0.001 25.901,-11.679 25.901,-25.938 z"
   id="path2116"
   inkscape:connector-curvature="0" />
</g>
<g
   id="CIRCLE_62_"
   transform="translate(-49.377,-173.806)">
	<path
   style="fill:#ffd200"
   d="m 397.392,529.271 c 0,-14.259 -11.528,-25.863 -25.863,-25.863 -14.354,0 -25.882,11.604 -25.882,25.863 0,14.259 11.528,25.938 25.882,25.938 14.334,0.001 25.863,-11.679 25.863,-25.938 z"
   id="path2119"
   inkscape:connector-curvature="0" />
</g>
<g
   id="CIRCLE_63_"
   transform="translate(-49.377,-173.806)">
	<path
   d="m 242.156,529.271 c 0,-10.012 -8.153,-18.165 -18.184,-18.165 -10.068,0 -18.184,8.153 -18.184,18.165 0,10.087 8.115,18.202 18.184,18.202 10.031,0.001 18.184,-8.115 18.184,-18.202 z"
   id="path2122"
   inkscape:connector-curvature="0" />
</g>
<g
   id="ELLIPSE_6_"
   transform="translate(-49.377,-173.806)">
	<path
   d="m 389.731,529.271 c 0,-10.012 -8.191,-18.165 -18.203,-18.165 -10.087,0 -18.24,8.153 -18.24,18.165 0,10.087 8.153,18.202 18.24,18.202 10.012,0.001 18.203,-8.115 18.203,-18.202"
   id="path2125"
   inkscape:connector-curvature="0" />
</g>
<g
   id="LWPOLYLINE_104_"
   transform="translate(-49.377,-173.806)">
	<path
   d="m 279.358,539.511 c 1.232,-7.13 1.232,-14.373 0,-21.54 h 37.164 c -1.592,7.091 -1.592,14.41 0,21.54 z"
   id="path2128"
   inkscape:connector-curvature="0" />
</g>
<g
   id="LWPOLYLINE_105_"
   transform="translate(-49.377,-173.806)">
	<path
   d="M 437.21,529.271 C 436.982,492.713 407.213,463.058 370.618,463.21 H 223.896 c -36.462,0 -65.947,29.579 -65.947,65.908 0,0.152 9.386,0.152 9.386,0.152 0.076,-31.173 25.313,-56.505 56.562,-56.505 h 146.722 c 31.476,-0.228 56.997,25.181 57.149,56.505 h 9.442 z"
   id="path2131"
   inkscape:connector-curvature="0" />
</g>
<g
   id="LWPOLYLINE_106_"
   transform="translate(-49.377,-173.806)">
	<polygon
   points="309.203,385.602 309.203,412.812 336.317,412.812 297.561,451.53 258.804,412.812 285.957,412.812 285.957,385.602 "
   id="polygon2134" />
</g>
<g
   id="LWPOLYLINE_107_"
   transform="translate(-49.377,-173.806)">
	<path
   d="m 209.372,279.306 c 5.499,-2.806 9.651,-7.774 11.566,-13.652 h 14.031 v 92.967 h -13.956 v -71.598 l -10.182,1.839 z"
   id="path2137"
   inkscape:connector-curvature="0" />
</g>
<g
   id="LWPOLYLINE_109_"
   transform="translate(-49.377,-173.806)">
	<path
   d="m 270.048,307.899 c -5.176,4.797 -8.096,11.604 -8.096,18.658 v 6.466 c 0,14.145 11.453,25.598 25.598,25.598 14.088,0 25.541,-11.453 25.541,-25.598 v -6.466 c 0,-7.054 -2.92,-13.861 -8.059,-18.658 3.679,-4.209 5.765,-9.728 5.765,-15.302 v -3.735 c 0,-12.837 -10.391,-23.208 -23.247,-23.208 -12.818,0 -23.303,10.372 -23.303,23.208 v 3.735 c -0.001,5.575 2.047,11.093 5.801,15.302 z"
   id="path2140"
   inkscape:connector-curvature="0" />
</g>
<g
   id="LWPOLYLINE_108_"
   transform="translate(-49.377,-173.806)">
	<path
   style="fill:#ffd200"
   d="m 275.888,333.023 c 0,6.428 5.233,11.642 11.661,11.642 6.409,0 11.604,-5.214 11.604,-11.642 v -6.466 c 0,-6.447 -5.195,-11.642 -11.604,-11.642 -6.428,0 -11.661,5.195 -11.661,11.642 z"
   id="path2143"
   inkscape:connector-curvature="0" />
</g>
<g
   id="LWPOLYLINE_110_"
   transform="translate(-49.377,-173.806)">
	<path
   style="fill:#ffd200"
   d="m 278.239,288.862 v 3.735 c 0,5.138 4.115,9.367 9.31,9.367 5.138,0 9.253,-4.229 9.253,-9.367 v -3.735 c 0,-5.082 -4.115,-9.329 -9.253,-9.329 -5.195,0 -9.31,4.248 -9.31,9.329 z"
   id="path2146"
   inkscape:connector-curvature="0" />
</g>
<g
   id="LWPOLYLINE_111_"
   transform="translate(-49.377,-173.806)">
	<path
   d="m 377.596,288.862 h 7.813 v 13.993 h -7.813 v 33.903 c 0,4.38 3.489,7.907 7.813,7.907 v 13.956 c -12.06,0 -21.844,-9.765 -21.844,-21.862 v -33.903 h -7.85 v -13.993 h 7.85 v -23.208 h 14.031 z"
   id="path2149"
   inkscape:connector-curvature="0" />
</g>
</svg>