<?xml version="1.0" encoding="iso-8859-1"?>
<!-- Generator: Adobe Illustrator 15.1.0, SVG Export Plug-In . SVG Version: 6.00 Build 0)  -->
<!DOCTYPE svg PUBLIC "-//W3C//DTD SVG 1.1//EN" "http://www.w3.org/Graphics/SVG/1.1/DTD/svg11.dtd">
<svg version="1.1" id="Layer_1" xmlns="http://www.w3.org/2000/svg" xmlns:xlink="http://www.w3.org/1999/xlink" x="0px" y="0px"
	 width="595.28px" height="841.89px" viewBox="0 0 595.28 841.89" style="enable-background:new 0 0 595.28 841.89;"
	 xml:space="preserve">
<g id="CIRCLE_56_">
	<path style="fill:#FFD200;" d="M545.44,421.837c0-137.014-111.112-248.031-248.031-248.031
		c-136.995,0-248.032,111.018-248.032,248.031c0,136.938,111.037,247.975,248.032,247.975
		C434.328,669.812,545.44,558.775,545.44,421.837L545.44,421.837z"/>
</g>
<g id="CIRCLE_57_">
	<path style="fill:#EF3E42;" d="M537.629,421.837c0-132.747-107.548-240.238-240.22-240.238
		c-132.729,0-240.257,107.491-240.257,240.238c0,132.615,107.529,240.238,240.257,240.238
		C430.081,662.075,537.629,554.452,537.629,421.837L537.629,421.837z"/>
</g>
<g id="CIRCLE_58_">
	<path style="fill:#FFD200;" d="M487.229,421.837c0-104.836-84.984-189.896-189.82-189.896
		c-104.836,0-189.877,85.06-189.877,189.896c0,104.855,85.041,189.802,189.877,189.802
		C402.245,611.639,487.229,526.692,487.229,421.837L487.229,421.837z"/>
</g>
<g id="CIRCLE_59_">
	<path d="M271.584,529.271c0-26.318-21.313-47.593-47.612-47.593c-26.28,0-47.611,21.274-47.611,47.593s21.331,47.668,47.611,47.668
		C250.271,576.939,271.584,555.59,271.584,529.271L271.584,529.271z"/>
</g>
<g id="CIRCLE_60_">
	<path d="M419.159,529.271c0-26.318-21.313-47.593-47.631-47.593c-26.375,0-47.668,21.274-47.668,47.593
		s21.293,47.668,47.668,47.668C397.847,576.939,419.159,555.59,419.159,529.271L419.159,529.271z"/>
</g>
<g id="CIRCLE_61_">
	<path style="fill:#FFD200;" d="M249.874,529.271c0-14.259-11.604-25.863-25.901-25.863c-14.296,0-25.901,11.604-25.901,25.863
		s11.604,25.938,25.901,25.938C238.269,555.21,249.874,543.53,249.874,529.271L249.874,529.271z"/>
</g>
<g id="CIRCLE_62_">
	<path style="fill:#FFD200;" d="M397.392,529.271c0-14.259-11.528-25.863-25.863-25.863c-14.354,0-25.882,11.604-25.882,25.863
		s11.528,25.938,25.882,25.938C385.863,555.21,397.392,543.53,397.392,529.271L397.392,529.271z"/>
</g>
<g id="CIRCLE_63_">
	<path d="M242.156,529.271c0-10.012-8.153-18.165-18.184-18.165c-10.068,0-18.184,8.153-18.184,18.165
		c0,10.087,8.115,18.202,18.184,18.202C234.003,547.474,242.156,539.358,242.156,529.271L242.156,529.271z"/>
</g>
<g id="ELLIPSE_6_">
	<path d="M389.731,529.271c0-10.012-8.191-18.165-18.203-18.165c-10.087,0-18.24,8.153-18.24,18.165
		c0,10.087,8.153,18.202,18.24,18.202C381.54,547.474,389.731,539.358,389.731,529.271"/>
</g>
<g id="LWPOLYLINE_104_">
	<path d="M279.358,539.511c1.232-7.13,1.232-14.373,0-21.54h37.164c-1.592,7.091-1.592,14.41,0,21.54H279.358z"/>
</g>
<g id="LWPOLYLINE_105_">
	<path d="M437.21,529.271c-0.228-36.558-29.997-66.213-66.592-66.061H223.896c-36.462,0-65.947,29.579-65.947,65.908
		c0,0.152,9.386,0.152,9.386,0.152c0.076-31.173,25.313-56.505,56.562-56.505h146.722c31.476-0.228,56.997,25.181,57.149,56.505
		H437.21z"/>
</g>
<g id="LWPOLYLINE_106_">
	<polygon points="285.957,412.812 285.957,385.602 309.203,385.602 309.203,412.812 336.317,412.812 297.561,451.53 
		258.804,412.812 	"/>
</g>
<g id="LWPOLYLINE_107_">
	<path d="M209.372,279.306c5.499-2.806,9.651-7.774,11.566-13.652h14.031v92.967h-13.956v-71.598l-10.182,1.839L209.372,279.306z"/>
</g>
<g id="LWPOLYLINE_109_">
	<path d="M270.048,307.899c-5.176,4.797-8.096,11.604-8.096,18.658v6.466c0,14.145,11.453,25.598,25.598,25.598
		c14.088,0,25.541-11.453,25.541-25.598v-6.466c0-7.054-2.92-13.861-8.059-18.658c3.679-4.209,5.765-9.728,5.765-15.302v-3.735
		c0-12.837-10.391-23.208-23.247-23.208c-12.818,0-23.303,10.372-23.303,23.208v3.735
		C264.246,298.172,266.294,303.69,270.048,307.899z"/>
</g>
<g id="LWPOLYLINE_108_">
	<path style="fill:#FFD200;" d="M275.888,333.023c0,6.428,5.233,11.642,11.661,11.642c6.409,0,11.604-5.214,11.604-11.642v-6.466
		c0-6.447-5.195-11.642-11.604-11.642c-6.428,0-11.661,5.195-11.661,11.642V333.023z"/>
</g>
<g id="LWPOLYLINE_110_">
	<path style="fill:#FFD200;" d="M278.239,288.862v3.735c0,5.138,4.115,9.367,9.31,9.367c5.138,0,9.253-4.229,9.253-9.367v-3.735
		c0-5.082-4.115-9.329-9.253-9.329C282.354,279.533,278.239,283.781,278.239,288.862z"/>
</g>
<g id="LWPOLYLINE_111_">
	<path d="M377.596,288.862h7.813v13.993h-7.813v33.903c0,4.38,3.489,7.907,7.813,7.907v13.956c-12.06,0-21.844-9.765-21.844-21.862
		v-33.903h-7.85v-13.993h7.85v-23.208h14.031V288.862z"/>
</g>
</svg>
