<?xml version="1.0" encoding="iso-8859-1"?>
<!-- Generator: Adobe Illustrator 15.1.0, SVG Export Plug-In . SVG Version: 6.00 Build 0)  -->
<!DOCTYPE svg PUBLIC "-//W3C//DTD SVG 1.1//EN" "http://www.w3.org/Graphics/SVG/1.1/DTD/svg11.dtd">
<svg version="1.1" id="Layer_1" xmlns="http://www.w3.org/2000/svg" xmlns:xlink="http://www.w3.org/1999/xlink" x="0px" y="0px"
	 width="595.28px" height="841.89px" viewBox="0 0 595.28 841.89" style="enable-background:new 0 0 595.28 841.89;"
	 xml:space="preserve">
<g id="CIRCLE_48_">
	<path style="fill:#FFD200;" d="M545.672,420.973c0-137.019-111.041-248.041-247.984-248.041
		c-137.019,0-248.079,111.022-248.079,248.041c0,136.943,111.06,247.984,248.079,247.984
		C434.631,668.957,545.672,557.916,545.672,420.973L545.672,420.973z"/>
</g>
<g id="CIRCLE_49_">
	<path style="fill:#EF3E42;" d="M537.936,420.973c0-132.752-107.628-240.248-240.248-240.248
		c-132.752,0-240.248,107.495-240.248,240.248c0,132.621,107.495,240.248,240.248,240.248
		C430.308,661.221,537.936,553.594,537.936,420.973L537.936,420.973z"/>
</g>
<g id="CIRCLE_50_">
	<path style="fill:#FFD200;" d="M487.496,420.973c0-104.84-84.949-189.904-189.809-189.904
		c-104.84,0-189.904,85.063-189.904,189.904c0,104.859,85.063,189.808,189.904,189.808
		C402.547,610.781,487.496,525.832,487.496,420.973L487.496,420.973z"/>
</g>
<g id="CIRCLE_51_">
	<path d="M271.861,528.412c0-26.32-21.332-47.596-47.613-47.596c-26.3,0-47.595,21.275-47.595,47.596
		c0,26.318,21.294,47.67,47.595,47.67C250.529,576.082,271.861,554.73,271.861,528.412L271.861,528.412z"/>
</g>
<g id="CIRCLE_52_">
	<path d="M419.385,528.412c0-26.32-21.313-47.596-47.556-47.596c-26.376,0-47.709,21.275-47.709,47.596
		c0,26.318,21.333,47.67,47.709,47.67C398.072,576.082,419.385,554.73,419.385,528.412L419.385,528.412z"/>
</g>
<g id="CIRCLE_53_">
	<path style="fill:#FFD200;" d="M250.15,528.412c0-14.26-11.643-25.865-25.902-25.865c-14.297,0-25.902,11.605-25.902,25.865
		s11.604,25.939,25.902,25.939C238.507,554.352,250.15,542.672,250.15,528.412L250.15,528.412z"/>
</g>
<g id="CIRCLE_54_">
	<path style="fill:#FFD200;" d="M397.617,528.412c0-14.26-11.529-25.865-25.788-25.865c-14.393,0-25.921,11.605-25.921,25.865
		s11.528,25.939,25.921,25.939C386.088,554.352,397.617,542.672,397.617,528.412L397.617,528.412z"/>
</g>
<g id="CIRCLE_55_">
	<path d="M242.452,528.412c0-10.012-8.192-18.166-18.204-18.166c-10.088,0-18.185,8.154-18.185,18.166
		c0,10.088,8.097,18.203,18.185,18.203C234.26,546.615,242.452,538.5,242.452,528.412L242.452,528.412z"/>
</g>
<g id="ELLIPSE_5_">
	<path d="M389.994,528.412c0-10.012-8.153-18.166-18.165-18.166c-10.088,0-18.299,8.154-18.299,18.166
		c0,10.088,8.211,18.203,18.299,18.203C381.841,546.615,389.994,538.5,389.994,528.412"/>
</g>
<g id="LWPOLYLINE_98_">
	<path d="M279.655,538.65c1.119-7.129,1.119-14.373,0-21.541h37.127c-1.611,7.092-1.611,14.412,0,21.541H279.655z"/>
</g>
<g id="LWPOLYLINE_99_">
	<path d="M437.437,528.412c-0.151-36.559-29.959-66.215-66.518-66.064H224.172c-36.445,0-65.95,29.582-65.95,65.912
		c0,0.152,9.405,0.152,9.405,0.152c0-31.174,25.295-56.508,56.545-56.508h146.747c31.477-0.227,56.961,25.182,57.113,56.508H437.437
		z"/>
</g>
<g id="LWPOLYLINE_100_">
	<polygon points="286.197,411.947 286.197,384.737 309.444,384.737 309.444,411.947 336.578,411.947 297.839,450.668 259.1,411.947 
			"/>
</g>
<g id="LWPOLYLINE_101_">
	<path d="M214.293,295.028h14.013v-4.646c0-1.536,0.285-3.072,0.815-4.456c2.465-5.935,9.159-8.779,15.151-6.314
		c5.954,2.427,8.76,9.158,6.409,15.112l-36.388,49.074v13.956h51.14v-13.956h-35.307l33.847-44.807
		c4.741-13.273-2.143-27.874-15.359-32.709c-13.273-4.797-27.95,2.105-32.785,15.378c-1.309,3.603-1.745,7.414-1.384,11.225
		L214.293,295.028z"/>
</g>
<g id="LWPOLYLINE_102_">
	<path d="M283.163,278.437c5.518-2.807,9.614-7.774,11.453-13.653h14.088v92.971h-13.937v-71.601l-10.221,1.839L283.163,278.437z"/>
</g>
<g id="LWPOLYLINE_103_">
	<path d="M373.194,287.993h7.926v13.994h-7.926v33.904c0,4.38,3.488,7.907,7.926,7.907v13.956c-12.06,0-21.863-9.766-21.863-21.863
		v-33.904h-7.926v-13.994h7.926v-23.209h13.938V287.993z"/>
</g>
</svg>
