<?xml version="1.0" encoding="utf-8"?>
<!-- Generator: Adobe Illustrator 15.1.0, SVG Export Plug-In . SVG Version: 6.00 Build 0)  -->
<!DOCTYPE svg PUBLIC "-//W3C//DTD SVG 1.0//EN" "http://www.w3.org/TR/2001/REC-SVG-20010904/DTD/svg10.dtd">
<svg version="1.0" xmlns="http://www.w3.org/2000/svg" xmlns:xlink="http://www.w3.org/1999/xlink" x="0px" y="0px" width="595px"
	 height="842px" viewBox="0 0 595 842" enable-background="new 0 0 595 842" xml:space="preserve">
<g id="Kuvataso_1">
</g>
<g id="_x30_">
</g>
<g id="HATKELT">
</g>
<g id="HAT">
</g>
<g id="HATHARM">
	<g>
		<path fill-rule="evenodd" clip-rule="evenodd" fill="#FFD200" d="M272.584,123.152c136.008,1.656,234.72,87.768,252.36,225.576
			c10.08,125.928-67.176,230.112-186.048,262.44C165.016,650.264,27.28,521.312,30.16,365.504
			C38.152,227.768,137.296,129.848,272.584,123.152z"/>
		<g>
			<polygon fill-rule="evenodd" clip-rule="evenodd" fill="#C9CACC" points="321.256,424.688 419.104,424.688 419.104,438.944 
				419.968,441.032 422.056,444.416 425.44,446.936 429.184,447.368 433.36,446.504 435.088,445.28 436.312,443.552 438.04,439.808 
				438.4,437.72 439.264,425.12 441.352,423.824 441.784,422.6 443.44,416.336 445.168,407.984 445.96,400.424 446.824,392.864 
				446.824,377.312 446.392,375.152 445.6,373.064 444.304,371.408 443.08,369.752 441.352,368.456 439.264,367.592 427.528,334.04 
				426.232,331.52 424.576,329.432 422.488,327.272 420.4,325.616 417.88,324.392 404.848,323.096 394.768,322.664 373.312,322.232 
				356.968,322.232 334.288,323.096 330.472,323.096 326.728,323.528 322.912,324.752 319.528,326.912 317.44,329 315.784,331.088 
				314.488,333.608 309.016,347.864 293.968,384.872 295.264,400.424 298.576,418.856 299.368,422.168 300.232,424.256 
				301.456,424.688 302.32,438.944 302.752,441.032 303.616,442.76 305.272,444.416 306.928,446.072 309.016,446.936 
				313.264,446.936 315.352,446.504 317.44,445.28 319.168,443.984 320.392,442.328 320.824,440.24 321.256,438.152 			"/>
			<polygon fill-rule="evenodd" clip-rule="evenodd" fill="#FFD200" points="313.696,365.504 332.128,363.416 355.672,361.76 
				384.256,361.76 403.12,362.984 426.664,365.936 417.448,340.736 414.928,337.352 411.544,335.264 409.456,335.264 
				396.424,334.472 383.824,333.608 362.008,333.608 353.584,334.04 344.728,334.472 			"/>
			<polygon fill-rule="evenodd" clip-rule="evenodd" fill="#C9CACC" points="133.984,424.688 232.264,424.688 234.784,444.416 
				237.304,446.504 241.048,447.8 244.864,447.368 246.952,446.504 248.248,445.28 250.336,441.896 251.128,437.72 251.56,427.64 
				259.12,398.264 259.552,381.488 251.992,367.232 247.816,354.992 241.912,338.648 240.256,334.04 238.96,331.52 237.304,329.432 
				235.576,327.272 233.056,325.616 230.536,324.392 227.656,323.96 210.016,323.096 192.376,322.232 174.736,322.232 
				157.024,322.664 139.384,323.528 136.864,324.392 134.344,325.616 132.256,326.912 130.168,329 128.512,331.088 127.216,333.608 
				115.048,366.8 111.304,369.32 109.576,370.976 108.352,372.632 107.488,375.152 107.056,377.312 107.056,386.528 
				107.488,395.384 108.352,404.6 110.008,413.384 112.096,422.168 112.96,424.256 114.184,424.688 115.048,437.72 115.912,441.464 
				118.432,444.848 122.176,446.936 126.424,446.936 130.168,445.28 133.12,441.896 133.984,438.152 			"/>
			<polygon fill-rule="evenodd" clip-rule="evenodd" fill="#FFD200" points="127.216,365.504 140.248,363.848 165.88,361.76 
				178.912,361.328 191.944,361.76 204.544,362.192 217.576,362.984 239.392,365.936 232.696,347.864 230.176,340.736 
				227.656,337.352 225.928,336.128 224.272,335.264 222.184,335.264 206.632,334.04 191.08,333.608 175.096,333.608 
				159.544,334.472 144.064,335.264 140.248,336.56 138.592,337.784 137.728,339.512 			"/>
		</g>
		<polygon fill-rule="evenodd" clip-rule="evenodd" points="71.776,508.712 415.72,164.768 422.488,169.376 428.752,173.984 
			80.992,521.312 76.384,514.976 		"/>
		<polygon fill-rule="evenodd" clip-rule="evenodd" points="88.192,530.528 93.232,536.432 98.632,542.336 449.344,191.624 
			443.44,186.152 437.608,181.112 		"/>
		<polygon fill-rule="evenodd" clip-rule="evenodd" points="107.056,550.256 112.528,555.728 118.432,560.768 467.848,211.352 
			462.808,205.448 457.336,199.616 		"/>
		<polygon fill-rule="evenodd" clip-rule="evenodd" points="127.648,567.896 133.984,572.576 140.248,577.184 484.192,233.168 
			480.016,226.904 475.408,220.568 		"/>
	</g>
</g>
</svg>
