<?xml version="1.0" encoding="UTF-8" standalone="no"?>
<!-- Generator: Adobe Illustrator 15.1.0, SVG Export Plug-In . SVG Version: 6.00 Build 0)  -->

<svg
   xmlns:dc="http://purl.org/dc/elements/1.1/"
   xmlns:cc="http://creativecommons.org/ns#"
   xmlns:rdf="http://www.w3.org/1999/02/22-rdf-syntax-ns#"
   xmlns:svg="http://www.w3.org/2000/svg"
   xmlns="http://www.w3.org/2000/svg"
   xmlns:sodipodi="http://sodipodi.sourceforge.net/DTD/sodipodi-0.dtd"
   xmlns:inkscape="http://www.inkscape.org/namespaces/inkscape"
   version="1.0"
   id="Layer_1"
   x="0px"
   y="0px"
   width="495.14401"
   height="495.35999"
   viewBox="0 0 495.14401 495.35999"
   enable-background="new 0 0 595 842"
   xml:space="preserve"
   sodipodi:docname="353.svg"
   inkscape:version="0.92.5 (2060ec1f9f, 2020-04-08)"><metadata
   id="metadata2355"><rdf:RDF><cc:Work
       rdf:about=""><dc:format>image/svg+xml</dc:format><dc:type
         rdf:resource="http://purl.org/dc/dcmitype/StillImage" /></cc:Work></rdf:RDF></metadata><defs
   id="defs2353" /><sodipodi:namedview
   pagecolor="#ffffff"
   bordercolor="#666666"
   borderopacity="1"
   objecttolerance="10"
   gridtolerance="10"
   guidetolerance="10"
   inkscape:pageopacity="0"
   inkscape:pageshadow="2"
   inkscape:window-width="640"
   inkscape:window-height="480"
   id="namedview2351"
   showgrid="false"
   inkscape:zoom="0.28028504"
   inkscape:cx="258.268"
   inkscape:cy="221.92"
   inkscape:window-x="0"
   inkscape:window-y="0"
   inkscape:window-maximized="0"
   inkscape:current-layer="Layer_1" />
<g
   id="g2348"
   transform="translate(-39.232,-147.56)">
	<polygon
   points="60.832,496.328 59.464,493.16 59.464,493.16 58.096,489.92 58.096,489.92 56.8,486.752 56.8,486.752 55.576,483.44 55.576,483.44 54.28,480.272 54.28,480.272 53.128,476.96 53.128,476.96 52.048,473.72 51.976,473.72 50.896,470.408 50.896,470.408 49.96,467.024 49.96,467.024 48.952,463.784 48.952,463.784 47.944,460.4 47.944,460.328 47.152,457.016 46.288,453.632 45.424,450.32 45.424,450.248 44.704,446.936 44.704,446.936 44.056,443.48 44.056,443.48 43.336,440.096 43.336,440.096 42.76,436.64 42.184,433.184 42.184,433.184 41.68,429.8 41.248,426.344 41.248,426.344 40.744,422.888 40.744,422.888 40.456,419.504 40.096,416.12 40.096,416.048 39.88,412.592 39.88,412.592 39.592,409.136 39.592,409.136 39.448,405.608 39.304,402.224 39.304,402.224 39.232,398.696 39.232,398.696 39.232,395.24 39.232,391.712 39.232,391.712 39.304,388.328 39.304,388.256 39.448,384.8 39.592,381.344 39.592,381.344 39.88,377.96 39.88,377.888 40.096,374.432 40.096,374.432 40.456,370.976 40.744,367.52 40.744,367.52 41.248,364.064 41.248,364.064 41.68,360.608 42.184,357.224 42.184,357.224 42.76,353.768 43.336,350.312 43.336,350.312 44.056,346.856 44.056,346.856 44.704,343.544 45.424,340.16 45.424,340.16 46.288,336.704 46.288,336.704 47.152,333.32 47.152,333.32 47.944,330.008 47.944,330.008 48.952,326.696 49.96,323.312 49.96,323.312 50.896,320 50.896,320 51.976,316.688 53.128,313.376 53.128,313.376 54.28,310.208 54.28,310.208 55.576,306.824 55.576,306.824 56.8,303.656 58.096,300.416 58.096,300.416 59.464,297.248 59.464,297.248 60.832,294.008 60.832,294.008 62.272,290.84 62.272,290.84 63.784,287.744 63.784,287.744 65.296,284.648 65.296,284.648 66.88,281.552 66.88,281.552 68.464,278.456 68.464,278.384 70.12,275.432 71.848,272.408 71.848,272.408 73.576,269.384 75.304,266.36 75.376,266.36 77.176,263.408 77.176,263.408 79.048,260.528 79.048,260.528 80.92,257.576 80.992,257.576 82.936,254.696 82.936,254.696 84.88,251.888 84.88,251.888 86.896,249.08 86.896,249.08 89.056,246.272 89.056,246.272 91.144,243.536 93.232,240.872 93.232,240.872 95.392,238.064 95.392,238.064 97.696,235.4 99.928,232.736 99.928,232.736 102.232,230.144 102.232,230.144 104.536,227.624 104.536,227.624 106.912,225.032 106.912,225.032 109.36,222.512 109.36,222.512 111.808,220.136 111.808,220.136 114.256,217.688 114.256,217.688 116.776,215.24 119.296,212.864 119.296,212.864 121.888,210.56 124.48,208.256 124.48,208.256 127.072,206.024 127.072,205.952 129.736,203.72 129.736,203.72 132.472,201.56 135.208,199.4 135.208,199.4 137.944,197.312 137.944,197.312 140.752,195.296 143.56,193.208 146.368,191.192 146.368,191.192 149.248,189.32 149.248,189.32 152.128,187.304 152.128,187.304 155.08,185.504 158.032,183.704 158.032,183.704 161.056,181.832 161.056,181.832 164.008,180.104 164.008,180.104 167.104,178.448 167.104,178.448 170.128,176.792 170.128,176.792 173.224,175.208 176.32,173.552 176.32,173.552 179.344,172.04 179.344,172.04 182.512,170.6 182.512,170.6 185.68,169.16 188.848,167.792 188.848,167.792 192.088,166.424 195.328,165.056 195.328,165.056 198.568,163.832 198.568,163.832 201.808,162.608 201.808,162.608 205.12,161.456 205.12,161.456 208.288,160.304 208.288,160.304 211.6,159.224 211.6,159.224 214.984,158.216 214.984,158.216 218.296,157.208 218.296,157.208 221.68,156.272 221.68,156.272 224.992,155.408 228.376,154.544 231.76,153.752 231.76,153.752 235.144,153.032 238.528,152.312 238.528,152.312 241.912,151.592 241.984,151.592 245.368,151.016 245.368,151.016 248.752,150.44 248.752,150.44 252.208,150.008 255.664,149.504 255.664,149.504 259.12,149.072 259.192,149.072 262.576,148.712 266.032,148.352 266.032,148.352 269.488,148.136 269.488,148.136 272.944,147.848 272.944,147.848 276.4,147.776 279.856,147.56 279.856,147.56 283.384,147.56 283.384,147.56 286.84,147.56 290.296,147.56 290.368,147.56 293.752,147.56 293.752,147.56 297.28,147.776 300.592,147.848 300.664,147.848 304.048,148.136 304.048,148.136 307.576,148.352 307.576,148.352 311.032,148.712 314.416,149.072 314.416,149.072 317.872,149.504 317.872,149.504 321.328,150.008 324.784,150.44 324.784,150.44 328.24,151.016 331.696,151.592 331.696,151.592 335.008,152.312 335.008,152.312 338.464,153.032 338.464,153.032 341.848,153.752 341.848,153.752 345.232,154.544 348.616,155.408 351.928,156.272 351.928,156.272 355.312,157.208 355.312,157.208 358.624,158.216 358.624,158.216 361.936,159.224 365.248,160.304 365.248,160.304 368.56,161.456 368.56,161.456 371.8,162.608 371.8,162.608 375.04,163.832 375.04,163.832 378.28,165.056 378.28,165.056 381.52,166.424 381.52,166.424 384.688,167.792 384.688,167.792 387.928,169.16 387.928,169.16 391.096,170.6 391.096,170.6 394.192,172.04 394.192,172.04 397.288,173.552 397.36,173.552 400.384,175.208 403.48,176.792 403.48,176.792 406.504,178.448 406.504,178.448 409.528,180.104 409.528,180.104 412.552,181.832 412.552,181.904 415.504,183.704 415.504,183.704 418.528,185.504 418.528,185.504 421.408,187.304 421.408,187.304 424.36,189.32 424.36,189.32 427.168,191.192 427.168,191.192 430.048,193.208 430.048,193.208 432.856,195.296 435.664,197.312 435.664,197.312 438.4,199.4 438.4,199.4 441.136,201.56 443.872,203.72 443.872,203.72 446.536,205.952 446.536,206.024 449.128,208.256 449.128,208.256 451.72,210.56 454.312,212.864 454.312,212.864 456.832,215.24 459.352,217.688 459.352,217.688 461.8,220.136 464.248,222.512 464.248,222.512 466.696,225.032 466.696,225.032 469.072,227.624 471.376,230.144 471.376,230.144 473.68,232.736 473.68,232.736 475.984,235.4 475.984,235.4 478.144,238.064 478.144,238.064 480.304,240.872 482.464,243.536 482.464,243.536 484.552,246.272 484.552,246.272 486.64,249.08 488.656,251.888 490.672,254.696 490.672,254.696 492.616,257.576 492.616,257.576 494.56,260.528 494.56,260.528 496.36,263.408 496.36,263.408 498.16,266.36 498.232,266.36 500.032,269.384 500.032,269.384 501.76,272.408 501.76,272.408 503.488,275.432 503.488,275.432 505.072,278.456 505.072,278.456 506.656,281.552 508.312,284.576 508.312,284.648 509.824,287.744 509.824,287.744 511.336,290.84 511.336,290.912 512.704,294.008 512.704,294.008 514.144,297.248 514.144,297.248 515.44,300.416 515.44,300.416 516.808,303.656 516.808,303.656 518.104,306.824 518.104,306.896 519.256,310.208 519.256,310.208 520.408,313.376 520.408,313.376 521.56,316.688 521.56,316.688 522.64,320 523.72,323.312 523.72,323.312 524.656,326.696 524.656,326.696 525.592,330.008 525.592,330.008 526.528,333.32 526.528,333.32 527.32,336.704 527.32,336.704 528.112,340.16 528.112,340.16 528.832,343.544 528.832,343.544 529.624,346.856 529.624,346.856 530.2,350.312 530.848,353.768 530.848,353.768 531.424,357.224 531.424,357.224 531.928,360.608 532.432,364.064 532.432,364.064 532.792,367.52 532.792,367.52 533.152,370.976 533.152,370.976 533.44,374.432 533.728,377.888 533.728,377.96 533.944,381.344 534.16,384.8 534.16,384.8 534.232,388.328 534.304,391.712 534.376,395.24 534.016,395.24 534.376,395.24 534.304,398.696 534.232,402.224 534.16,405.608 534.16,405.608 533.944,409.136 533.728,412.592 533.728,412.592 533.44,416.12 533.152,419.504 533.152,419.504 532.792,422.888 532.792,422.888 532.432,426.344 532.432,426.344 531.928,429.8 531.424,433.184 531.424,433.184 530.848,436.64 530.848,436.64 530.2,440.096 530.2,440.096 529.624,443.48 529.624,443.48 528.832,446.936 528.832,446.936 528.112,450.32 527.32,453.632 527.32,453.632 526.528,457.016 526.528,457.016 525.592,460.4 524.656,463.712 524.656,463.784 523.72,467.024 523.72,467.024 522.64,470.408 522.64,470.408 521.56,473.72 521.56,473.72 520.408,476.96 520.408,476.96 519.256,480.272 519.256,480.272 518.104,483.44 518.104,483.44 516.808,486.752 516.808,486.752 515.44,489.92 515.44,489.92 514.144,493.16 514.144,493.16 512.704,496.328 511.336,499.496 511.336,499.496 509.824,502.664 509.824,502.664 508.312,505.832 508.312,505.832 506.656,508.856 506.656,508.856 505.072,511.88 505.072,511.88 503.488,514.976 503.488,514.976 501.76,518 501.76,518 500.032,521.024 500.032,521.024 498.16,523.976 496.36,526.928 494.56,529.88 494.56,529.88 492.616,532.76 492.616,532.76 490.672,535.64 490.672,535.64 488.656,538.52 488.656,538.52 486.64,541.328 484.552,544.136 484.552,544.136 482.464,546.872 482.464,546.872 480.304,549.608 478.144,552.344 478.144,552.344 475.984,555.008 475.984,555.008 473.68,557.6 473.68,557.6 471.376,560.192 469.072,562.784 469.072,562.784 466.696,565.304 464.248,567.824 464.248,567.824 461.8,570.272 459.352,572.792 459.352,572.792 456.832,575.168 454.312,577.544 454.312,577.544 451.72,579.848 449.128,582.152 449.128,582.152 446.536,584.384 446.536,584.384 443.872,586.688 443.872,586.688 441.136,588.848 438.4,591.008 438.4,591.008 435.664,593.096 435.664,593.096 432.856,595.184 430.048,597.2 430.048,597.2 427.168,599.144 427.168,599.144 424.36,601.16 424.36,601.16 421.408,603.032 421.408,603.032 418.528,604.904 418.528,604.904 415.504,606.776 415.504,606.776 412.552,608.504 412.552,608.504 409.528,610.232 406.504,612.032 406.504,612.032 403.48,613.616 403.48,613.616 400.384,615.2 397.36,616.856 397.288,616.856 394.192,618.296 394.192,618.296 391.096,619.88 391.096,619.88 387.928,621.248 387.928,621.248 384.688,622.688 384.688,622.688 381.52,623.984 381.52,623.984 378.28,625.352 378.28,625.352 375.04,626.576 375.04,626.576 371.8,627.8 371.8,627.8 368.56,628.952 368.56,628.952 365.248,630.104 365.248,630.104 361.936,631.184 358.624,632.192 358.624,632.192 355.312,633.2 355.312,633.2 351.928,634.136 348.616,635 348.616,635 345.232,635.864 345.232,635.864 341.848,636.656 338.464,637.376 338.464,637.376 335.008,638.096 335.008,638.096 331.696,638.744 331.696,638.744 328.24,639.392 328.24,639.392 324.784,639.896 324.784,639.968 321.328,640.472 317.872,640.904 317.872,640.904 314.416,641.336 314.416,641.336 311.032,641.696 311.032,641.696 307.576,641.984 304.048,642.272 304.048,642.272 300.664,642.488 297.28,642.704 297.28,642.704 293.752,642.704 293.752,642.704 290.368,642.92 290.296,642.92 286.84,642.92 283.384,642.92 283.384,642.92 279.856,642.704 279.856,642.704 276.4,642.704 276.4,642.704 272.944,642.488 269.488,642.272 269.488,642.272 266.032,641.984 262.576,641.696 262.576,641.696 259.192,641.336 259.12,641.336 255.664,640.904 255.664,640.904 252.208,640.472 248.752,639.968 248.752,639.896 245.368,639.392 245.368,639.392 241.984,638.744 238.528,638.096 238.528,638.096 235.144,637.376 235.144,637.376 231.76,636.656 228.376,635.864 228.376,635.864 224.992,635 224.992,635 221.68,634.136 218.296,633.2 218.296,633.2 214.984,632.192 214.984,632.192 211.6,631.184 211.6,631.184 208.288,630.104 208.288,630.104 205.12,628.952 205.12,628.952 201.808,627.8 201.808,627.8 198.568,626.576 198.568,626.576 195.328,625.352 195.328,625.352 192.088,623.984 188.848,622.688 188.848,622.688 185.68,621.248 182.512,619.88 182.512,619.88 179.344,618.296 179.344,618.296 176.32,616.856 176.32,616.856 173.224,615.2 170.128,613.616 170.128,613.616 167.104,612.032 167.104,612.032 164.008,610.232 164.008,610.232 161.056,608.504 161.056,608.504 158.032,606.776 158.032,606.776 155.08,604.904 155.08,604.904 152.128,603.032 152.128,603.032 149.248,601.16 149.248,601.16 146.368,599.144 146.368,599.144 143.56,597.2 143.56,597.2 140.752,595.184 137.944,593.096 137.944,593.096 135.208,591.008 135.208,591.008 132.472,588.848 129.736,586.688 129.736,586.688 127.072,584.384 127.072,584.384 124.48,582.152 124.48,582.152 121.888,579.848 119.296,577.544 119.296,577.544 116.776,575.168 114.256,572.792 114.256,572.72 111.808,570.272 111.808,570.272 109.36,567.824 109.36,567.824 106.912,565.304 104.536,562.784 104.536,562.784 102.232,560.192 99.928,557.6 99.928,557.6 97.696,555.008 97.696,555.008 95.392,552.344 95.392,552.344 93.232,549.608 93.232,549.608 91.144,546.872 89.056,544.136 89.056,544.136 86.896,541.328 86.896,541.328 84.88,538.52 84.88,538.52 82.936,535.64 80.992,532.76 80.92,532.76 79.048,529.88 79.048,529.88 77.176,526.928 77.176,526.928 75.376,523.976 75.304,523.976 73.576,521.024 73.576,521.024 71.848,518 71.848,518 70.12,514.976 70.12,514.976 68.464,511.88 68.464,511.88 66.88,508.856 66.88,508.856 65.296,505.832 65.296,505.832 63.784,502.664 63.784,502.664 62.272,499.496 60.832,496.328 "
   id="polygon2324"
   style="clip-rule:evenodd;fill:#f4c600;fill-rule:evenodd" />
	<polygon
   points="533.44,384.8 533.44,384.8 533.224,381.344 533.008,377.96 533.008,377.96 532.792,374.432 532.504,371.048 532.504,371.048 532.144,367.592 532.144,367.592 531.64,364.136 531.64,364.136 531.208,360.752 530.704,357.296 530.704,357.296 530.128,353.84 530.128,353.84 529.48,350.456 528.904,347 528.904,347 528.184,343.688 528.184,343.688 527.392,340.304 527.392,340.304 526.672,336.848 526.672,336.848 525.808,333.536 525.808,333.464 524.872,330.224 524.872,330.224 524.008,326.84 524.008,326.84 523,323.528 523,323.528 521.992,320.216 520.912,316.904 520.912,316.904 519.832,313.664 519.832,313.664 518.608,310.424 518.608,310.424 517.384,307.112 517.384,307.112 516.16,303.872 516.16,303.872 514.792,300.704 514.792,300.704 513.496,297.536 513.496,297.536 512.128,294.296 512.128,294.296 510.688,291.2 510.688,291.2 509.176,288.104 509.176,288.104 507.664,284.936 507.664,284.936 506.08,281.84 504.424,278.744 504.424,278.744 502.84,275.792 502.84,275.792 501.184,272.768 501.112,272.768 499.456,269.744 499.456,269.744 497.584,266.72 497.584,266.72 495.784,263.768 495.784,263.768 493.984,260.96 493.984,260.96 491.968,258.008 491.968,258.008 490.096,255.128 488.08,252.32 485.992,249.512 484.048,246.704 484.048,246.704 481.96,244.04 481.96,244.04 479.728,241.232 477.568,238.496 477.568,238.496 475.408,235.832 475.408,235.832 473.176,233.24 473.176,233.24 470.872,230.576 470.872,230.576 468.568,228.056 466.192,225.536 466.192,225.536 463.816,223.088 463.816,223.088 461.296,220.64 458.92,218.192 458.848,218.12 456.4,215.744 453.88,213.368 453.88,213.368 451.216,211.064 448.696,208.76 448.696,208.76 446.104,206.528 446.104,206.528 443.44,204.296 443.44,204.296 440.704,202.136 437.968,199.976 437.896,199.976 435.232,197.888 435.232,197.816 432.424,195.8 429.616,193.784 429.616,193.784 426.736,191.768 426.736,191.768 424,189.896 424,189.896 420.976,187.952 420.976,187.952 418.168,186.08 418.168,186.08 415.144,184.28 415.144,184.28 412.192,182.48 412.192,182.48 409.168,180.68 409.168,180.68 406.144,179.024 406.144,179.024 403.12,177.44 403.12,177.44 400.024,175.856 397,174.2 397,174.2 393.832,172.688 393.832,172.688 390.736,171.176 390.736,171.176 387.64,169.808 387.64,169.808 384.4,168.368 384.4,168.368 381.232,167.072 381.232,167.072 378.064,165.704 378.064,165.704 374.824,164.48 374.752,164.48 371.584,163.256 371.584,163.256 368.272,162.104 368.272,162.104 365.032,160.952 365.032,160.952 361.72,159.944 358.408,158.864 358.408,158.864 355.096,157.928 355.096,157.928 351.784,156.92 351.784,156.92 348.4,156.056 345.088,155.264 341.704,154.4 341.704,154.4 338.32,153.68 338.32,153.68 334.936,153.032 334.936,153.032 331.552,152.312 331.552,152.312 328.096,151.736 324.712,151.16 324.712,151.16 321.256,150.656 317.8,150.224 317.8,150.224 314.344,149.792 314.344,149.792 310.96,149.432 307.576,149.072 307.576,149.072 304.048,148.856 304.048,148.856 300.592,148.568 300.592,148.568 297.208,148.424 293.752,148.28 293.752,148.28 290.296,148.208 290.296,148.208 286.84,148.208 283.384,148.208 283.384,148.208 279.856,148.28 279.856,148.28 276.472,148.424 273.016,148.568 273.016,148.568 269.488,148.856 269.488,148.856 266.032,149.072 266.032,149.072 262.648,149.432 259.192,149.792 259.192,149.792 255.736,150.224 255.736,150.224 252.28,150.656 248.824,151.16 248.824,151.16 245.512,151.736 245.512,151.736 242.056,152.312 242.056,152.312 238.6,153.032 238.6,153.032 235.288,153.68 231.904,154.4 231.904,154.4 228.592,155.264 225.208,156.056 221.824,156.92 221.824,156.92 218.512,157.928 218.512,157.928 215.2,158.864 215.2,158.864 211.816,159.944 211.816,159.944 208.576,160.952 208.576,160.952 205.336,162.104 205.336,162.104 202.024,163.256 202.024,163.256 198.784,164.48 198.784,164.48 195.616,165.704 195.616,165.704 192.376,167.072 189.136,168.368 189.136,168.368 185.968,169.808 182.8,171.176 182.8,171.176 179.704,172.688 179.704,172.688 176.608,174.2 176.608,174.2 173.512,175.856 170.416,177.44 170.416,177.44 167.392,179.024 167.392,179.024 164.368,180.68 164.368,180.68 161.416,182.48 161.416,182.48 158.392,184.28 158.392,184.28 155.44,186.08 152.56,187.952 149.68,189.824 149.68,189.896 146.8,191.768 143.992,193.784 141.184,195.8 138.376,197.816 138.376,197.888 135.64,199.976 135.64,199.976 132.904,202.136 130.168,204.296 130.168,204.296 127.576,206.528 127.576,206.528 124.912,208.76 124.912,208.76 122.392,211.064 119.8,213.368 119.8,213.368 117.208,215.744 114.688,218.12 114.688,218.192 112.24,220.64 112.24,220.64 109.792,223.088 109.792,223.088 107.416,225.536 107.416,225.536 105.112,228.056 105.112,228.056 102.736,230.576 102.736,230.576 100.432,233.24 100.432,233.24 98.2,235.832 95.968,238.568 95.968,238.496 93.808,241.232 93.808,241.232 91.72,244.04 89.632,246.704 89.632,246.704 87.544,249.512 87.472,249.512 85.456,252.32 85.456,252.32 83.512,255.128 83.512,255.128 81.568,257.936 81.568,258.008 79.624,260.96 79.624,260.96 77.752,263.84 77.752,263.84 75.952,266.72 75.952,266.72 74.224,269.744 72.424,272.768 72.424,272.768 70.768,275.792 69.112,278.744 69.112,278.744 67.456,281.84 67.456,281.84 65.944,284.936 65.944,284.936 64.432,288.104 64.432,288.104 62.92,291.2 62.92,291.2 61.408,294.296 61.408,294.296 60.112,297.536 60.112,297.536 58.744,300.704 58.744,300.704 57.448,303.872 56.152,307.112 56.152,307.112 54.928,310.424 54.928,310.424 53.848,313.664 53.848,313.664 52.696,316.904 51.544,320.216 51.544,320.216 50.608,323.528 50.608,323.528 49.6,326.84 48.664,330.224 48.664,330.224 47.8,333.464 47.8,333.536 46.936,336.848 46.936,336.848 46.144,340.304 46.144,340.304 45.424,343.688 44.704,347 44.704,347 44.056,350.456 44.056,350.456 43.48,353.84 42.904,357.296 42.904,357.296 42.4,360.752 41.896,364.136 41.896,364.136 41.536,367.592 41.536,367.592 41.176,371.048 40.816,374.432 40.816,374.432 40.6,377.96 40.6,377.96 40.312,381.344 40.312,381.344 40.168,384.8 40.024,388.328 40.024,388.328 39.952,391.712 39.952,391.784 39.952,395.24 39.952,398.696 39.952,398.696 40.024,402.152 40.024,402.224 40.168,405.608 40.312,409.064 40.312,409.064 40.6,412.52 40.6,412.52 40.816,416.048 40.816,416.048 41.176,419.504 41.536,422.816 41.536,422.816 41.896,426.2 41.896,426.272 42.4,429.656 42.904,433.112 42.904,433.112 43.48,436.496 44.056,439.952 44.056,439.952 44.704,443.336 44.704,443.336 45.424,446.792 45.424,446.792 46.144,450.104 46.144,450.104 46.936,453.488 47.8,456.8 48.664,460.184 48.664,460.184 49.6,463.568 49.6,463.568 50.608,466.88 50.608,466.88 51.544,470.192 51.544,470.192 52.696,473.504 52.696,473.504 53.848,476.744 53.848,476.744 54.928,479.984 54.928,479.984 56.152,483.224 56.152,483.224 57.448,486.536 57.448,486.536 58.744,489.704 58.744,489.704 60.112,492.872 60.112,492.872 61.408,496.04 61.408,496.04 62.92,499.208 64.432,502.376 64.432,502.376 65.944,505.472 65.944,505.472 67.456,508.568 67.456,508.568 69.04,511.592 69.04,511.592 70.768,514.688 70.768,514.688 72.424,517.64 72.424,517.64 74.224,520.664 74.224,520.664 75.952,523.616 75.952,523.616 77.752,526.568 77.752,526.568 79.624,529.52 79.624,529.52 81.568,532.328 81.568,532.328 83.512,535.208 85.456,538.088 85.456,538.088 87.472,540.896 87.544,540.896 89.632,543.704 89.632,543.704 91.72,546.44 93.808,549.176 93.808,549.176 95.968,551.912 95.968,551.912 98.2,554.504 98.2,554.504 100.432,557.168 100.432,557.168 102.736,559.76 105.04,562.28 105.112,562.28 107.416,564.872 109.792,567.392 109.792,567.392 112.24,569.84 112.24,569.84 114.688,572.288 114.688,572.288 117.208,574.592 119.8,577.04 119.8,577.04 122.392,579.344 124.912,581.648 124.912,581.648 127.576,583.88 127.576,583.88 130.168,586.112 130.168,586.112 132.904,588.272 135.64,590.432 135.64,590.432 138.376,592.52 138.376,592.52 141.184,594.608 143.992,596.624 143.992,596.624 146.8,598.568 146.8,598.568 149.68,600.512 149.68,600.512 152.56,602.384 152.56,602.384 155.44,604.328 155.44,604.328 158.392,606.128 158.392,606.128 161.416,607.856 161.416,607.856 164.368,609.656 164.368,609.656 167.392,611.384 167.464,611.384 170.416,613.04 170.416,613.04 173.512,614.624 176.608,616.208 176.608,616.208 179.704,617.72 179.704,617.72 182.8,619.232 182.872,619.232 185.968,620.6 189.136,622.04 189.136,622.04 192.376,623.336 195.616,624.704 195.616,624.704 198.784,625.928 198.784,625.928 202.024,627.152 202.024,627.152 205.336,628.304 205.336,628.304 208.576,629.456 208.576,629.456 211.816,630.464 211.816,630.464 215.2,631.544 215.2,631.544 218.512,632.48 218.512,632.552 221.824,633.416 225.208,634.352 225.208,634.352 228.592,635.216 228.592,635.216 231.904,635.936 235.288,636.728 235.288,636.728 238.6,637.448 238.6,637.448 242.056,638.024 245.512,638.672 245.512,638.672 248.824,639.248 248.824,639.248 252.28,639.752 255.736,640.256 255.736,640.256 259.192,640.616 259.192,640.616 262.648,640.976 262.648,640.976 266.032,641.264 269.488,641.552 269.488,641.552 273.016,641.768 276.472,641.984 276.472,641.984 279.856,642.056 279.856,642.056 283.384,642.2 283.384,642.2 286.84,642.2 290.296,642.2 290.296,642.2 293.752,642.056 293.752,642.056 297.208,641.984 297.208,641.984 300.592,641.768 304.048,641.552 304.048,641.552 307.504,641.264 310.96,640.976 310.96,640.976 314.344,640.616 314.344,640.616 317.8,640.256 317.8,640.256 321.256,639.752 324.712,639.248 324.712,639.248 328.096,638.672 328.096,638.672 331.552,638.024 331.552,638.024 334.936,637.448 334.936,637.448 338.32,636.728 338.32,636.728 341.704,635.936 345.088,635.216 345.088,635.216 348.4,634.352 348.4,634.352 351.784,633.416 355.096,632.552 355.096,632.48 358.408,631.544 358.408,631.544 361.72,630.464 365.032,629.456 365.032,629.456 368.272,628.304 368.272,628.304 371.584,627.152 371.584,627.152 374.752,625.928 374.824,625.928 378.064,624.704 378.064,624.704 381.232,623.336 381.232,623.336 384.4,622.04 384.4,622.04 387.64,620.6 387.64,620.6 390.736,619.232 393.832,617.72 393.832,617.72 397,616.208 397,616.208 400.024,614.624 403.12,613.04 403.12,613.04 406.144,611.384 406.144,611.384 409.168,609.656 412.192,607.856 412.192,607.856 415.144,606.128 415.144,606.128 418.168,604.328 420.976,602.384 420.976,602.384 423.928,600.512 423.928,600.512 426.736,598.568 426.736,598.568 429.616,596.624 429.616,596.624 432.424,594.608 435.232,592.52 435.232,592.52 437.896,590.432 437.968,590.432 440.704,588.272 443.44,586.112 443.44,586.112 446.104,583.88 446.104,583.88 448.696,581.648 448.696,581.648 451.216,579.344 453.88,577.04 453.88,577.04 456.4,574.592 458.848,572.288 458.92,572.288 461.296,569.84 463.744,567.392 463.816,567.392 466.192,564.872 468.568,562.28 468.568,562.28 470.872,559.76 473.176,557.168 473.176,557.168 475.408,554.576 475.408,554.504 477.568,551.912 477.568,551.912 479.728,549.176 481.96,546.44 481.96,546.44 484.048,543.704 484.048,543.704 485.992,540.896 488.08,538.088 488.08,538.088 490.096,535.208 490.096,535.208 491.968,532.328 491.968,532.328 493.984,529.52 495.784,526.568 497.584,523.616 499.456,520.664 499.456,520.664 501.112,517.64 501.184,517.64 502.84,514.688 502.84,514.688 504.424,511.592 504.496,511.592 506.08,508.568 506.08,508.568 507.664,505.472 507.664,505.472 509.176,502.376 509.176,502.376 510.688,499.208 510.688,499.208 512.128,496.04 513.496,492.872 513.496,492.872 514.792,489.704 514.792,489.704 516.16,486.536 516.16,486.536 517.384,483.224 517.384,483.224 518.608,479.984 518.608,479.984 519.832,476.744 519.832,476.744 520.912,473.504 520.912,473.504 521.992,470.192 521.992,470.192 523,466.88 523,466.88 524.008,463.568 524.008,463.568 524.872,460.184 525.808,456.8 525.808,456.8 526.672,453.488 526.672,453.488 527.392,450.104 528.184,446.792 528.184,446.792 528.904,443.336 528.904,443.336 529.48,439.952 529.48,439.952 530.128,436.496 530.128,436.496 530.704,433.112 530.704,433.112 531.208,429.656 531.64,426.272 531.64,426.2 532.144,422.816 532.144,422.816 532.504,419.504 532.504,419.504 532.792,416.048 533.008,412.52 533.008,412.52 533.224,409.064 533.44,405.608 533.44,405.608 533.512,402.224 533.584,398.696 533.656,395.24 533.584,391.784 533.512,388.328 "
   id="polygon2326"
   style="clip-rule:evenodd;fill:#ffd200;fill-rule:evenodd" />
	<polygon
   points="525.808,388.4 525.664,384.944 525.52,381.56 525.52,381.56 525.304,378.176 525.304,378.176 525.016,374.72 525.016,374.72 524.728,371.408 524.728,371.408 524.368,367.952 523.864,364.568 523.504,361.184 523.504,361.184 523,357.8 523,357.8 522.424,354.488 522.424,354.416 521.776,351.104 521.128,347.72 521.128,347.72 520.48,344.336 520.48,344.336 519.688,341.096 519.688,341.096 518.896,337.712 518.896,337.712 518.032,334.4 517.168,331.088 517.168,331.088 516.16,327.848 515.224,324.536 515.224,324.536 514.216,321.224 514.216,321.224 513.136,318.056 513.136,318.056 511.984,314.816 511.984,314.816 510.832,311.576 510.832,311.576 509.608,308.48 509.608,308.48 508.384,305.24 508.384,305.24 507.016,302.072 505.72,298.976 505.72,298.904 504.28,295.88 504.28,295.88 502.84,292.712 502.84,292.712 501.4,289.616 501.328,289.616 499.816,286.592 499.816,286.592 498.304,283.496 498.304,283.496 496.72,280.544 496.72,280.544 494.992,277.592 494.992,277.592 493.336,274.568 493.336,274.568 491.536,271.616 491.536,271.616 489.736,268.808 487.936,265.928 486.136,263.048 486.136,263.048 484.12,260.168 484.12,260.168 482.248,257.36 482.248,257.36 480.232,254.552 480.232,254.552 478.216,251.816 476.128,249.08 476.128,249.08 474.04,246.416 474.04,246.416 471.88,243.752 469.72,241.088 469.72,241.088 467.488,238.568 465.256,235.976 465.256,235.976 462.952,233.384 462.952,233.384 460.648,230.936 458.272,228.416 458.2,228.416 455.824,225.968 455.824,225.968 453.376,223.664 450.928,221.288 450.928,221.288 448.408,218.912 448.408,218.912 445.888,216.608 445.888,216.608 443.44,214.376 443.44,214.376 440.704,212.144 440.704,212.144 438.184,209.984 438.184,209.984 435.448,207.896 435.448,207.896 432.784,205.808 432.784,205.808 430.12,203.648 430.12,203.648 427.312,201.632 427.312,201.632 424.576,199.688 424.576,199.688 421.768,197.744 421.768,197.744 418.888,195.8 416.008,193.928 416.008,193.928 413.2,192.128 410.32,190.328 410.32,190.328 407.368,188.6 407.368,188.6 404.344,186.872 404.344,186.872 401.392,185.216 401.392,185.216 398.44,183.632 398.44,183.632 395.344,182.048 395.344,182.048 392.32,180.536 392.248,180.536 389.224,179.024 386.128,177.584 386.128,177.584 383.032,176.216 383.032,176.216 379.864,174.848 376.696,173.48 376.696,173.48 373.528,172.256 373.528,172.256 370.36,171.032 367.048,169.88 367.048,169.88 363.88,168.728 360.64,167.648 360.64,167.648 357.472,166.64 357.472,166.64 354.16,165.704 350.848,164.696 350.848,164.696 347.608,163.76 347.608,163.76 344.296,162.968 344.224,162.968 340.912,162.176 340.912,162.176 337.672,161.456 337.672,161.384 334.288,160.736 334.288,160.736 330.904,160.088 327.52,159.44 327.52,159.44 324.208,158.864 324.208,158.864 320.824,158.432 317.368,157.928 317.368,157.928 314.056,157.496 314.056,157.496 310.6,157.136 310.6,157.136 307.216,156.848 307.216,156.848 303.832,156.56 303.832,156.56 300.376,156.344 297.136,156.2 297.064,156.2 293.68,156.056 290.224,155.984 286.84,155.912 286.84,155.912 283.456,155.984 280,156.056 276.544,156.2 276.544,156.2 273.16,156.344 269.776,156.56 269.776,156.56 266.32,156.848 262.936,157.136 262.936,157.136 259.552,157.496 259.552,157.496 256.24,157.928 256.168,157.928 252.784,158.432 249.4,158.864 249.4,158.864 246.016,159.44 246.016,159.44 242.704,160.088 239.32,160.736 239.32,160.736 236.008,161.384 236.008,161.456 232.696,162.176 232.696,162.176 229.312,162.968 229.312,162.968 226,163.76 226,163.76 222.76,164.696 222.76,164.696 219.448,165.704 216.136,166.64 216.136,166.64 212.968,167.648 212.968,167.648 209.656,168.728 209.656,168.728 206.488,169.88 206.488,169.88 203.176,171.032 203.176,171.032 200.08,172.256 200.08,172.256 196.912,173.48 196.912,173.48 193.744,174.848 190.576,176.216 190.576,176.216 187.48,177.584 187.48,177.584 184.384,179.024 181.288,180.536 181.288,180.536 178.192,182.048 178.192,182.048 175.24,183.632 175.24,183.632 172.216,185.216 172.216,185.216 169.192,186.872 169.192,186.872 166.24,188.6 166.24,188.6 163.36,190.328 163.36,190.328 160.408,192.128 160.408,192.128 157.528,193.928 157.528,193.928 154.72,195.8 154.72,195.8 151.84,197.744 151.84,197.744 149.032,199.688 146.224,201.632 146.224,201.632 143.488,203.648 143.488,203.72 140.752,205.808 140.752,205.808 138.088,207.896 135.424,209.984 135.424,209.984 132.832,212.144 132.832,212.144 130.168,214.376 130.168,214.376 127.648,216.608 125.128,218.912 125.128,218.912 122.68,221.288 120.16,223.664 120.16,223.664 117.784,225.968 115.336,228.416 115.264,228.416 112.96,230.936 112.96,230.936 110.584,233.384 110.584,233.384 108.352,235.976 108.352,235.976 106.12,238.568 103.888,241.088 103.888,241.088 101.728,243.752 99.568,246.416 99.568,246.416 97.408,249.08 97.408,249.08 95.32,251.816 95.32,251.816 93.376,254.552 93.376,254.552 91.36,257.36 91.36,257.36 89.416,260.168 89.416,260.168 87.544,263.048 85.6,265.928 85.6,265.928 83.8,268.736 83.8,268.808 82.072,271.616 82.072,271.616 80.272,274.568 80.272,274.568 78.616,277.592 78.616,277.592 76.888,280.544 76.888,280.544 75.304,283.568 75.304,283.568 73.72,286.592 73.72,286.664 72.208,289.616 72.208,289.616 70.696,292.712 69.328,295.88 69.328,295.88 67.888,298.904 67.888,298.976 66.592,302.072 65.224,305.24 65.224,305.24 64,308.48 64,308.48 62.704,311.576 62.704,311.648 61.624,314.816 60.472,318.056 59.32,321.224 58.384,324.536 58.384,324.536 57.376,327.848 57.376,327.848 56.44,331.088 55.504,334.4 55.504,334.4 54.64,337.712 54.64,337.712 53.92,341.096 53.92,341.096 53.128,344.336 53.128,344.336 52.408,347.72 52.408,347.72 51.832,351.104 51.184,354.416 51.184,354.488 50.608,357.8 50.608,357.8 50.104,361.184 49.672,364.568 49.672,364.64 49.168,367.952 49.168,367.952 48.808,371.408 48.808,371.408 48.592,374.72 48.592,374.72 48.304,378.176 48.304,378.176 48.088,381.56 47.872,384.944 47.872,384.944 47.728,388.4 47.728,388.4 47.656,391.784 47.656,391.784 47.656,395.24 47.656,398.696 47.656,398.696 47.728,402.08 47.728,402.08 47.872,405.464 47.872,405.464 48.088,408.92 48.304,412.304 48.304,412.304 48.592,415.688 48.592,415.688 48.808,419.144 48.808,419.144 49.168,422.456 49.168,422.456 49.672,425.84 49.672,425.84 50.104,429.224 50.608,432.608 50.608,432.608 51.184,435.992 51.184,435.992 51.832,439.304 52.408,442.688 52.408,442.688 53.128,446.072 53.128,446.072 53.92,449.312 53.92,449.312 54.64,452.696 54.64,452.696 55.504,456.008 55.504,456.008 56.44,459.248 57.376,462.56 57.376,462.56 58.384,465.872 58.384,465.872 59.32,469.112 59.32,469.112 60.472,472.424 60.472,472.424 61.624,475.592 62.704,478.832 62.704,478.832 64,482 64,482 65.224,485.168 65.224,485.168 66.592,488.336 67.888,491.504 67.888,491.504 69.328,494.6 70.696,497.624 70.696,497.624 72.208,500.72 72.208,500.72 73.72,503.816 73.72,503.816 75.304,506.768 76.888,509.792 76.888,509.792 78.616,512.816 78.616,512.816 80.272,515.768 80.272,515.768 82.072,518.72 82.072,518.72 83.8,521.672 83.8,521.672 85.6,524.552 85.6,524.552 87.544,527.36 89.416,530.24 89.416,530.24 91.36,533.048 91.36,533.048 93.376,535.784 93.376,535.784 95.32,538.592 95.32,538.592 97.408,541.328 97.408,541.328 99.568,543.992 99.568,543.992 101.728,546.656 103.888,549.248 103.888,549.32 106.12,551.912 106.12,551.912 108.352,554.432 108.352,554.432 110.584,556.952 110.584,557.024 112.96,559.4 112.96,559.472 115.336,561.92 117.784,564.368 117.784,564.368 120.16,566.744 122.68,569.12 122.68,569.12 125.128,571.424 125.128,571.496 127.648,573.728 127.72,573.728 130.168,576.032 130.168,576.032 132.832,578.192 132.832,578.192 135.424,580.352 138.088,582.512 138.088,582.512 140.752,584.672 140.752,584.672 143.488,586.76 143.488,586.76 146.224,588.776 146.224,588.776 149.032,590.72 151.84,592.664 151.84,592.664 154.72,594.536 154.72,594.536 157.528,596.48 157.528,596.48 160.408,598.28 160.408,598.28 163.288,600.08 163.36,600.08 166.24,601.808 166.24,601.808 169.192,603.536 172.216,605.12 172.216,605.12 175.24,606.848 175.24,606.848 178.192,608.36 178.192,608.36 181.288,609.944 181.288,609.944 184.384,611.384 187.48,612.824 187.48,612.824 190.576,614.264 190.576,614.264 193.744,615.56 196.912,616.928 196.912,616.928 200.08,618.152 200.08,618.152 203.176,619.376 203.176,619.376 206.488,620.528 206.488,620.528 209.656,621.68 209.656,621.68 212.968,622.688 212.968,622.688 216.136,623.768 216.136,623.768 219.448,624.776 222.76,625.712 222.76,625.712 226,626.576 229.312,627.44 229.312,627.44 232.696,628.232 232.696,628.232 236.008,628.952 236.008,628.952 239.32,629.672 239.32,629.744 242.704,630.32 246.016,630.968 246.016,630.968 249.4,631.544 249.4,631.544 252.784,632.048 252.784,632.048 256.168,632.48 259.552,632.84 262.936,633.272 262.936,633.272 266.32,633.56 269.776,633.848 269.776,633.848 273.16,634.064 273.16,634.064 276.544,634.208 280,634.352 280,634.352 283.456,634.352 286.84,634.496 286.84,634.496 290.224,634.352 293.68,634.352 293.68,634.352 297.136,634.208 300.376,634.064 300.376,634.064 303.832,633.848 303.832,633.848 307.216,633.56 307.216,633.56 310.6,633.272 310.6,633.272 314.056,632.84 317.368,632.48 320.824,632.048 320.824,632.048 324.208,631.544 324.208,631.544 327.52,630.968 327.52,630.968 330.904,630.32 334.288,629.744 334.288,629.672 337.672,628.952 337.672,628.952 340.912,628.232 340.912,628.232 344.224,627.44 344.224,627.44 347.608,626.576 350.848,625.712 350.848,625.712 354.16,624.776 357.4,623.768 357.472,623.768 360.64,622.688 363.88,621.68 363.88,621.68 367.048,620.528 367.048,620.528 370.36,619.376 373.528,618.152 373.528,618.152 376.696,616.928 376.696,616.928 379.864,615.56 383.032,614.264 383.032,614.264 386.128,612.824 386.128,612.824 389.224,611.384 392.248,609.944 392.32,609.944 395.344,608.36 395.344,608.36 398.44,606.848 401.392,605.12 401.392,605.12 404.344,603.536 404.344,603.536 407.368,601.808 407.368,601.808 410.32,600.08 410.32,600.08 413.2,598.28 416.008,596.48 416.008,596.48 418.888,594.536 421.768,592.664 421.768,592.664 424.576,590.72 424.576,590.72 427.312,588.776 427.312,588.776 430.12,586.76 430.12,586.76 432.784,584.672 432.784,584.672 435.448,582.512 435.448,582.512 438.184,580.352 438.184,580.352 440.704,578.192 440.704,578.192 443.368,576.032 443.44,576.032 445.888,573.728 445.888,573.728 448.408,571.496 448.408,571.424 450.928,569.12 453.376,566.816 453.376,566.816 455.824,564.368 455.824,564.368 458.2,561.92 458.272,561.92 460.648,559.4 462.952,556.952 462.952,556.952 465.256,554.432 467.488,551.912 467.488,551.912 469.72,549.32 469.72,549.248 471.88,546.656 474.04,543.992 474.04,543.992 476.128,541.328 476.128,541.328 478.216,538.592 478.216,538.592 480.232,535.784 480.232,535.784 482.248,533.048 482.248,533.048 484.12,530.24 484.12,530.24 486.136,527.36 486.136,527.36 487.936,524.552 489.736,521.672 489.736,521.672 491.536,518.72 491.536,518.72 493.336,515.768 493.336,515.768 494.992,512.816 494.992,512.816 496.72,509.792 496.72,509.792 498.304,506.768 498.304,506.768 499.816,503.816 499.816,503.816 501.328,500.72 501.328,500.72 502.84,497.624 504.28,494.6 504.28,494.6 505.72,491.504 505.72,491.504 507.016,488.336 508.384,485.168 508.384,485.168 509.608,482 509.608,482 510.832,478.832 510.832,478.832 511.984,475.592 511.984,475.592 513.136,472.424 513.136,472.424 514.216,469.112 514.216,469.112 515.224,465.872 515.224,465.872 516.16,462.56 517.168,459.248 517.168,459.248 518.032,456.008 518.896,452.696 518.896,452.696 519.688,449.312 519.688,449.312 520.48,446.072 520.48,446.072 521.128,442.688 521.128,442.688 521.776,439.304 522.424,435.992 522.424,435.992 523,432.608 523,432.608 523.504,429.224 523.504,429.224 523.864,425.84 524.368,422.456 524.728,419.144 524.728,419.144 525.016,415.688 525.016,415.688 525.304,412.304 525.304,412.304 525.52,408.92 525.52,408.92 525.664,405.464 525.808,402.08 525.808,402.08 525.88,398.696 525.952,395.24 525.88,391.784 525.808,388.4 "
   id="polygon2328"
   style="clip-rule:evenodd;fill:#d9282a;fill-rule:evenodd" />
	<polygon
   points="74.728,507.128 73.072,504.104 73.072,504.104 71.632,501.008 71.56,501.008 70.048,497.912 70.048,497.912 68.68,494.816 67.24,491.792 67.24,491.792 65.944,488.624 64.576,485.456 64.576,485.456 63.352,482.216 63.352,482.216 62.056,479.048 62.056,479.048 60.904,475.808 59.824,472.568 59.824,472.568 58.744,469.328 58.672,469.328 57.736,466.088 57.736,466.016 56.656,462.776 56.656,462.776 55.72,459.464 54.784,456.152 54.784,456.152 53.992,452.912 53.992,452.84 53.2,449.456 53.2,449.456 52.48,446.216 52.48,446.216 51.76,442.832 51.76,442.832 51.112,439.448 50.464,436.064 50.464,436.064 49.96,432.752 49.96,432.752 49.384,429.296 48.952,425.912 48.952,425.912 48.52,422.528 48.52,422.528 48.16,419.216 48.16,419.144 47.872,415.76 47.872,415.76 47.584,412.376 47.584,412.376 47.368,408.92 47.152,405.464 47.152,405.464 47.008,402.08 47.008,402.08 46.936,398.696 46.936,398.696 46.936,395.24 46.936,391.784 46.936,391.784 47.008,388.328 47.008,388.328 47.152,384.944 47.152,384.872 47.368,381.56 47.584,378.104 47.584,378.104 47.872,374.648 47.872,374.648 48.16,371.336 48.16,371.336 48.52,367.88 48.52,367.88 48.952,364.496 48.952,364.496 49.384,361.04 49.96,357.728 49.96,357.656 50.464,354.272 50.464,354.272 51.112,350.96 51.76,347.576 51.76,347.576 52.48,344.192 52.48,344.192 53.2,340.88 53.2,340.88 53.992,337.568 53.992,337.568 54.784,334.256 54.784,334.256 55.72,330.944 56.656,327.632 56.656,327.632 57.736,324.32 57.736,324.32 58.672,321.08 58.744,321.08 59.824,317.768 60.904,314.6 62.056,311.36 62.056,311.36 63.352,308.192 63.352,308.192 64.576,304.952 64.576,304.952 65.944,301.784 67.24,298.688 67.24,298.616 68.68,295.592 68.68,295.592 70.048,292.424 70.048,292.424 71.632,289.328 71.632,289.328 73.072,286.304 73.072,286.304 74.656,283.208 74.728,283.208 76.312,280.184 76.312,280.184 78.04,277.232 78.04,277.232 79.696,274.28 79.696,274.208 81.424,271.256 81.424,271.256 83.152,268.376 83.152,268.376 85.024,265.496 85.024,265.496 86.896,262.688 88.768,259.736 88.768,259.736 90.784,256.928 90.784,256.928 92.8,254.12 92.8,254.12 94.744,251.456 94.744,251.456 96.904,248.648 96.904,248.648 98.992,245.984 98.992,245.984 101.152,243.32 103.384,240.656 103.384,240.656 105.616,238.064 107.848,235.472 107.848,235.472 110.08,232.952 110.08,232.952 112.456,230.504 112.456,230.504 114.76,227.984 114.76,227.984 117.208,225.536 119.656,223.088 119.656,223.088 122.176,220.712 124.624,218.408 124.624,218.408 127.216,216.104 129.736,213.872 129.736,213.872 132.328,211.568 132.328,211.568 134.992,209.408 134.992,209.408 137.656,207.32 140.32,205.232 140.32,205.232 143.056,203.144 143.056,203.072 145.792,201.056 145.864,201.056 148.672,199.112 151.408,197.168 151.48,197.168 154.288,195.224 154.288,195.224 157.096,193.352 157.096,193.352 160.048,191.552 160.048,191.552 162.928,189.68 163,189.68 165.88,187.952 165.88,187.952 168.832,186.224 168.832,186.224 171.856,184.568 171.856,184.568 174.88,182.984 174.88,182.984 177.904,181.472 177.904,181.472 181,179.888 181,179.888 184.096,178.376 187.192,176.936 187.192,176.936 190.36,175.568 190.36,175.568 193.528,174.2 196.696,172.832 196.696,172.832 199.792,171.608 199.864,171.608 202.96,170.384 202.96,170.384 206.2,169.232 206.2,169.232 209.44,168.08 209.44,168.08 212.68,166.928 212.752,166.928 215.992,165.992 215.992,165.992 219.232,164.984 222.544,164.048 222.616,164.048 225.856,163.112 225.856,163.112 229.168,162.248 229.168,162.248 232.552,161.528 232.552,161.528 235.792,160.736 235.792,160.736 239.176,160.016 239.176,160.016 242.56,159.368 245.944,158.72 245.944,158.72 249.328,158.144 249.328,158.144 252.64,157.712 256.096,157.208 256.096,157.208 259.48,156.776 259.48,156.776 262.864,156.416 262.864,156.416 266.32,156.2 269.776,155.912 269.776,155.912 273.16,155.624 276.544,155.48 276.544,155.48 280,155.336 283.456,155.336 286.84,155.264 286.84,155.264 290.224,155.336 293.68,155.336 297.136,155.48 297.136,155.48 300.376,155.624 303.832,155.912 303.832,155.912 307.288,156.2 307.288,156.2 310.672,156.416 310.672,156.416 314.056,156.776 314.128,156.776 317.512,157.208 317.512,157.208 320.896,157.712 324.28,158.144 324.28,158.144 327.664,158.72 327.664,158.72 331.048,159.368 334.36,160.016 334.36,160.016 337.744,160.736 337.816,160.736 341.056,161.528 341.056,161.528 344.44,162.248 344.44,162.248 347.752,163.112 347.752,163.112 351.064,164.048 351.064,164.048 354.376,164.984 357.688,165.992 357.688,165.992 360.856,166.928 360.856,166.928 364.096,168.08 367.336,169.232 367.336,169.232 370.576,170.384 373.816,171.608 373.816,171.608 376.984,172.832 376.984,172.832 380.152,174.2 383.248,175.568 383.32,175.568 386.416,176.936 386.488,176.936 389.512,178.376 392.608,179.888 392.608,179.888 395.632,181.472 395.632,181.472 398.728,182.984 398.728,182.984 401.752,184.568 401.752,184.568 404.704,186.224 404.704,186.224 407.728,187.952 407.728,187.952 410.68,189.68 410.68,189.68 413.56,191.552 416.44,193.352 416.44,193.352 419.248,195.224 422.128,197.168 422.128,197.168 424.936,199.112 424.936,199.112 427.672,201.056 427.672,201.056 430.48,203.072 430.552,203.144 433.216,205.232 433.216,205.232 435.952,207.32 435.952,207.32 438.616,209.408 438.616,209.408 441.208,211.568 441.208,211.568 443.872,213.872 443.872,213.872 446.392,216.104 446.392,216.104 448.912,218.408 448.912,218.408 451.432,220.712 451.432,220.712 453.88,223.088 456.4,225.536 456.4,225.536 458.776,227.984 458.776,227.984 461.152,230.504 463.456,232.952 463.456,232.952 465.76,235.472 465.76,235.472 467.992,238.064 470.224,240.656 470.224,240.656 472.456,243.32 474.616,245.984 474.616,245.984 476.704,248.648 476.704,248.648 478.792,251.456 480.808,254.12 480.808,254.12 482.824,256.928 482.824,256.928 484.768,259.736 484.768,259.736 486.712,262.688 486.712,262.688 488.512,265.496 490.384,268.376 492.184,271.256 492.184,271.256 493.912,274.208 493.912,274.28 495.64,277.232 495.64,277.232 497.296,280.184 497.296,280.184 498.88,283.208 498.88,283.208 500.464,286.304 500.464,286.304 501.976,289.328 501.976,289.328 503.488,292.424 503.488,292.424 504.928,295.52 504.928,295.592 506.368,298.616 506.368,298.688 507.664,301.784 509.032,304.952 509.032,304.952 510.328,308.192 510.328,308.192 511.48,311.36 511.48,311.36 512.632,314.6 512.632,314.6 513.784,317.768 513.784,317.768 514.864,321.08 514.864,321.08 515.944,324.32 515.944,324.32 516.88,327.632 517.888,330.944 517.888,330.944 518.752,334.256 519.544,337.568 519.544,337.568 520.408,340.88 520.408,340.88 521.128,344.192 521.128,344.192 521.92,347.576 521.92,347.576 522.496,350.96 523.144,354.272 523.144,354.272 523.72,357.656 523.72,357.728 524.152,361.04 524.152,361.112 524.584,364.496 525.016,367.88 525.448,371.336 525.448,371.336 525.736,374.648 525.736,374.648 526.024,378.104 526.024,378.104 526.24,381.56 526.24,381.56 526.384,384.944 526.528,388.328 526.528,388.328 526.6,391.784 526.672,395.24 526.312,395.24 526.672,395.24 526.6,398.696 526.528,402.08 526.528,402.08 526.384,405.464 526.24,408.92 526.24,408.92 526.024,412.376 526.024,412.376 525.736,415.76 525.736,415.76 525.448,419.144 525.448,419.216 525.016,422.528 524.584,425.912 524.152,429.296 524.152,429.296 523.72,432.752 523.72,432.752 523.144,436.064 523.144,436.064 522.496,439.448 521.92,442.832 521.92,442.832 521.128,446.216 521.128,446.216 520.408,449.456 520.408,449.528 519.544,452.84 519.544,452.912 518.752,456.152 517.888,459.464 517.888,459.464 516.88,462.776 515.944,466.016 515.944,466.088 514.864,469.328 514.864,469.328 513.784,472.568 513.784,472.568 512.632,475.808 512.632,475.808 511.48,479.048 511.48,479.048 510.328,482.216 510.328,482.216 509.032,485.456 509.032,485.456 507.664,488.624 506.368,491.792 506.368,491.792 504.928,494.816 504.928,494.816 503.488,497.912 501.976,501.008 501.976,501.008 500.464,504.104 500.464,504.104 498.88,507.128 498.88,507.128 497.296,510.152 497.296,510.152 495.64,513.176 495.64,513.176 493.912,516.128 493.912,516.128 492.184,519.08 492.184,519.08 490.384,522.032 490.384,522.032 488.512,524.912 486.712,527.792 486.712,527.792 484.768,530.672 484.768,530.672 482.824,533.48 482.824,533.48 480.808,536.216 480.808,536.216 478.792,539.024 478.792,539.024 476.704,541.76 476.704,541.76 474.616,544.424 474.616,544.424 472.456,547.088 470.224,549.752 470.224,549.752 467.992,552.344 467.992,552.344 465.76,554.864 463.456,557.456 463.456,557.456 461.152,559.904 458.776,562.424 458.776,562.496 456.4,564.872 456.4,564.872 453.88,567.248 453.88,567.248 451.432,569.624 448.912,572 448.912,572 446.392,574.232 446.392,574.232 443.872,576.536 443.872,576.536 441.208,578.768 441.208,578.768 438.616,580.928 438.616,580.928 435.952,583.088 435.952,583.088 433.216,585.248 433.216,585.248 430.552,587.264 430.48,587.264 427.672,589.352 427.672,589.352 424.936,591.296 424.936,591.296 422.128,593.24 422.128,593.24 419.248,595.184 416.44,597.056 416.44,597.056 413.56,598.856 410.68,600.728 410.68,600.728 407.728,602.384 407.728,602.384 404.704,604.112 404.704,604.112 401.752,605.768 401.752,605.768 398.728,607.424 398.728,607.496 395.632,609.008 395.632,609.008 392.608,610.52 392.608,610.52 389.512,612.032 386.488,613.472 386.416,613.472 383.32,614.912 383.248,614.912 380.152,616.208 376.984,617.504 376.984,617.504 373.816,618.8 373.816,618.8 370.576,620.024 367.336,621.176 367.336,621.176 364.096,622.328 364.096,622.328 360.856,623.408 357.688,624.416 357.688,624.416 354.376,625.424 351.064,626.432 351.064,626.432 347.752,627.224 344.44,628.088 344.44,628.088 341.056,628.952 341.056,628.952 337.816,629.6 337.744,629.6 334.432,630.392 334.36,630.392 331.048,631.04 327.664,631.688 327.664,631.688 324.28,632.192 324.28,632.192 320.896,632.696 320.896,632.768 317.512,633.128 314.128,633.56 310.672,633.992 310.672,633.992 307.288,634.28 307.288,634.28 303.832,634.568 303.832,634.568 300.376,634.712 300.376,634.712 297.136,634.928 293.68,635 293.68,635 290.224,635.072 286.84,635.216 286.84,635.216 283.456,635.072 280,635 280,635 276.544,634.928 273.16,634.712 273.16,634.712 269.776,634.568 269.776,634.568 266.32,634.28 262.864,633.992 262.864,633.992 259.48,633.56 256.096,633.128 252.712,632.768 252.64,632.696 249.328,632.192 249.328,632.192 245.944,631.688 245.944,631.688 242.56,631.04 239.176,630.392 239.176,630.392 235.792,629.6 235.792,629.6 232.552,628.952 232.552,628.952 229.168,628.088 229.168,628.088 225.856,627.224 222.616,626.432 222.544,626.432 219.232,625.424 215.992,624.416 215.992,624.416 212.752,623.408 212.752,623.408 209.44,622.328 209.44,622.328 206.2,621.176 206.2,621.176 202.96,620.024 202.96,620.024 199.864,618.8 199.792,618.8 196.696,617.504 196.696,617.504 193.528,616.208 190.36,614.912 190.36,614.912 187.192,613.472 187.192,613.472 184.096,612.032 181,610.52 181,610.52 177.904,609.008 177.904,609.008 174.88,607.424 174.88,607.424 171.856,605.768 171.856,605.768 168.832,604.112 168.832,604.112 165.88,602.384 165.88,602.384 163,600.728 162.928,600.728 160.048,598.856 160.048,598.856 157.096,597.056 157.096,597.056 154.288,595.184 154.288,595.184 151.48,593.24 151.408,593.24 148.672,591.296 145.864,589.352 145.792,589.352 143.056,587.264 143.056,587.264 140.32,585.248 140.32,585.248 137.656,583.088 137.656,583.088 134.992,580.928 132.328,578.768 132.328,578.768 129.736,576.536 129.736,576.536 127.216,574.232 127.216,574.232 124.624,572 124.624,572 122.176,569.624 122.176,569.624 119.656,567.248 119.656,567.248 117.208,564.872 117.208,564.872 114.76,562.496 114.76,562.424 112.456,559.904 112.456,559.904 110.08,557.456 110.08,557.456 107.848,554.864 107.848,554.864 105.616,552.344 105.616,552.344 103.384,549.752 103.384,549.752 101.152,547.088 98.992,544.424 98.992,544.424 96.904,541.76 96.904,541.76 94.744,539.024 94.744,539.024 92.8,536.216 92.8,536.216 90.784,533.48 90.784,533.48 88.768,530.672 88.768,530.672 86.896,527.792 85.024,524.912 85.024,524.912 83.152,522.032 83.152,522.032 81.424,519.08 81.424,519.08 79.696,516.128 79.696,516.128 78.04,513.176 78.04,513.176 76.312,510.152 76.672,509.936 76.312,510.152 "
   id="polygon2330"
   style="clip-rule:evenodd;fill:#ef3e42;fill-rule:evenodd" />
	<polygon
   points="173.44,547.16 170.992,545.36 170.992,545.36 168.616,543.488 168.616,543.488 166.24,541.544 166.24,541.544 164.008,539.6 161.632,537.656 161.632,537.656 159.4,535.64 159.4,535.568 157.168,533.48 154.936,531.392 154.936,531.392 152.776,529.304 150.616,527.144 150.616,527.144 148.528,524.984 148.456,524.912 146.512,522.68 144.424,520.448 144.424,520.448 142.48,518.144 140.536,515.84 140.536,515.84 138.592,513.392 136.72,511.088 136.72,511.088 134.92,508.64 134.92,508.64 133.048,506.192 133.048,506.192 131.248,503.672 131.248,503.672 129.592,501.224 129.592,501.224 127.936,498.704 127.936,498.632 126.28,496.112 124.696,493.52 124.696,493.52 123.112,490.856 123.112,490.856 121.6,488.264 121.6,488.264 120.16,485.6 120.16,485.6 118.72,482.864 118.72,482.864 117.352,480.2 117.352,480.2 115.984,477.464 115.984,477.464 114.688,474.728 114.688,474.728 113.464,471.92 113.464,471.92 112.24,469.184 112.24,469.184 111.088,466.376 111.088,466.376 109.936,463.496 109.936,463.496 108.928,460.688 108.928,460.688 107.848,457.808 107.848,457.808 106.84,454.928 106.84,454.928 105.904,452.048 105.904,452.048 105.112,449.168 105.112,449.168 104.248,446.216 103.384,443.264 103.384,443.264 102.736,440.312 102.016,437.36 101.296,434.48 101.296,434.408 100.72,431.384 100.72,431.384 100.216,428.504 100.216,428.504 99.712,425.408 99.208,422.384 99.208,422.384 98.776,419.504 98.776,419.504 98.416,416.48 98.056,413.456 98.056,413.456 97.84,410.432 97.84,410.432 97.552,407.408 97.552,407.336 97.408,404.384 97.336,401.288 97.336,401.288 97.192,398.264 97.192,398.264 97.192,395.24 97.192,392.216 97.192,392.216 97.336,389.12 97.336,389.12 97.408,386.096 97.552,383.072 97.552,383.072 97.84,380.12 97.84,380.12 98.056,377.024 98.056,376.952 98.416,373.928 98.776,370.976 98.776,370.976 99.208,367.952 99.208,367.952 99.712,365 100.216,361.976 100.216,361.976 100.72,359.024 100.72,359.024 101.296,356 101.296,356 102.016,353.048 102.736,350.096 103.384,347.144 103.384,347.144 104.248,344.192 105.112,341.24 105.112,341.24 105.904,338.36 105.904,338.36 106.84,335.48 106.84,335.48 107.848,332.6 107.848,332.6 108.928,329.72 109.936,326.84 109.936,326.84 111.088,324.032 111.088,324.032 112.24,321.224 113.464,318.416 113.464,318.416 114.688,315.68 115.984,312.944 115.984,312.944 117.352,310.208 117.352,310.208 118.72,307.472 118.72,307.472 120.16,304.808 120.16,304.808 121.6,302.144 121.6,302.144 123.112,299.48 124.696,296.96 124.696,296.888 126.28,294.368 127.936,291.704 127.936,291.704 129.592,289.184 129.592,289.184 131.248,286.664 131.32,286.664 133.048,284.216 133.048,284.216 134.92,281.768 134.92,281.768 136.72,279.392 136.72,279.392 138.592,276.944 140.536,274.64 140.536,274.64 142.48,272.264 144.424,269.96 144.424,269.96 146.512,267.728 148.456,265.496 148.528,265.496 150.616,263.264 150.616,263.264 152.776,261.104 152.776,261.104 154.936,258.944 154.936,258.944 157.168,256.856 157.168,256.856 159.4,254.768 161.632,252.752 161.632,252.752 164.008,250.808 166.24,248.792 166.24,248.792 168.616,246.92 168.616,246.92 170.992,245.048 170.992,245.048 173.44,243.176 175.888,241.376 175.888,241.376 178.408,239.648 178.408,239.648 180.928,237.92 180.928,237.92 183.448,236.264 183.448,236.264 185.968,234.68 185.968,234.608 188.488,233.024 188.56,233.024 191.152,231.512 191.152,231.512 193.816,229.928 193.816,229.928 196.48,228.416 196.48,228.416 199.144,227.048 201.808,225.608 201.808,225.608 204.544,224.312 204.544,224.312 207.28,223.088 207.28,223.088 210.088,221.792 210.088,221.792 212.824,220.568 212.824,220.568 215.632,219.416 215.632,219.416 218.512,218.264 218.512,218.264 221.32,217.184 221.32,217.184 224.2,216.176 224.2,216.176 227.08,215.24 227.08,215.168 229.96,214.304 232.84,213.368 232.84,213.368 235.792,212.504 235.792,212.504 238.744,211.784 241.696,210.92 241.696,210.92 244.648,210.272 244.648,210.272 247.6,209.624 250.552,208.976 250.552,208.976 253.576,208.4 253.576,208.4 256.6,207.968 256.6,207.968 259.552,207.536 259.552,207.536 262.576,207.104 262.576,207.104 265.6,206.744 268.624,206.456 268.624,206.456 271.648,206.168 271.648,206.168 274.672,205.88 274.672,205.88 277.768,205.808 280.72,205.592 280.792,205.592 283.816,205.592 283.816,205.592 286.84,205.592 289.864,205.592 289.864,205.592 292.888,205.592 292.888,205.592 295.984,205.808 298.864,205.88 298.864,205.88 301.888,206.168 301.888,206.168 304.984,206.456 304.984,206.456 308.008,206.744 311.032,207.104 311.032,207.104 313.984,207.536 313.984,207.536 317.008,207.968 317.008,207.968 320.032,208.4 320.032,208.4 322.984,208.976 322.984,208.976 326.008,209.624 326.008,209.624 328.96,210.272 328.96,210.272 331.912,210.92 331.912,210.92 334.864,211.784 337.816,212.504 337.816,212.504 340.696,213.368 340.696,213.368 343.648,214.304 343.648,214.304 346.528,215.168 346.528,215.24 349.408,216.176 349.408,216.176 352.288,217.184 352.288,217.184 355.096,218.264 355.096,218.264 357.904,219.416 357.904,219.416 360.712,220.568 363.52,221.792 363.52,221.792 366.256,223.088 366.256,223.088 369.064,224.312 369.064,224.312 371.728,225.608 371.728,225.608 374.464,227.048 374.464,227.048 377.128,228.416 377.128,228.416 379.792,229.928 379.792,229.928 382.456,231.512 382.456,231.512 385.048,233.024 385.048,233.024 387.64,234.608 387.64,234.68 390.16,236.264 390.16,236.264 392.68,237.92 392.68,237.92 395.272,239.648 395.272,239.648 397.72,241.376 397.72,241.376 400.168,243.176 400.168,243.176 402.544,245.048 402.544,245.048 404.92,246.92 407.296,248.792 407.296,248.792 409.672,250.808 411.976,252.752 411.976,252.752 414.208,254.768 416.44,256.856 416.44,256.856 418.6,258.944 418.6,258.944 420.832,261.104 420.832,261.104 422.92,263.264 425.008,265.496 425.08,265.496 427.168,267.728 427.168,267.728 429.184,269.96 429.184,269.96 431.128,272.264 433.144,274.64 433.144,274.64 435.016,276.944 436.888,279.392 436.888,279.392 438.76,281.768 438.76,281.768 440.488,284.216 442.288,286.664 442.288,286.664 444.016,289.184 444.016,289.184 445.672,291.704 445.672,291.704 447.328,294.368 448.912,296.888 448.912,296.96 450.424,299.48 450.424,299.48 451.936,302.144 451.936,302.144 453.376,304.808 454.888,307.472 454.888,307.472 456.184,310.208 457.552,312.944 458.848,315.68 458.92,315.68 460.144,318.416 460.144,318.416 461.368,321.224 461.368,321.224 462.448,324.032 463.6,326.84 463.6,326.84 464.752,329.72 464.752,329.72 465.688,332.6 466.696,335.48 467.632,338.36 467.632,338.36 468.496,341.24 468.496,341.24 469.36,344.192 469.36,344.192 470.152,347.144 470.872,350.096 470.872,350.096 471.592,353.048 471.592,353.048 472.24,356 472.24,356 472.888,359.024 472.888,359.024 473.392,361.976 473.392,361.976 473.896,365 474.4,367.952 474.4,367.952 474.832,370.976 474.832,370.976 475.192,373.928 475.192,373.928 475.48,377.024 475.768,380.048 475.768,380.12 475.984,383.072 476.128,386.096 476.128,386.096 476.2,389.12 476.344,392.216 476.416,395.24 476.056,395.24 476.416,395.24 476.344,398.264 476.2,401.288 476.128,404.384 476.128,404.384 475.984,407.408 475.768,410.432 475.768,410.432 475.48,413.456 475.192,416.408 475.192,416.48 474.832,419.504 474.832,419.504 474.4,422.384 474.4,422.384 473.896,425.408 473.392,428.504 473.392,428.504 472.888,431.384 472.888,431.384 472.24,434.408 472.24,434.48 471.592,437.36 471.592,437.36 470.872,440.312 470.872,440.312 470.152,443.264 469.36,446.216 469.36,446.216 468.496,449.168 468.496,449.168 467.632,452.048 467.632,452.048 466.696,454.928 465.688,457.808 464.752,460.688 464.752,460.688 463.6,463.496 463.6,463.496 462.448,466.376 462.448,466.376 461.368,469.184 461.368,469.184 460.144,471.92 460.144,471.92 458.92,474.728 458.848,474.728 457.552,477.464 456.184,480.2 456.184,480.2 454.888,482.864 454.888,482.864 453.376,485.6 453.376,485.6 451.936,488.264 451.936,488.264 450.496,490.856 450.424,490.856 448.912,493.52 448.912,493.52 447.328,496.112 445.672,498.632 445.672,498.704 444.016,501.224 444.016,501.224 442.288,503.672 442.288,503.672 440.488,506.192 440.488,506.192 438.76,508.64 438.76,508.64 436.888,511.088 436.888,511.088 435.016,513.392 433.144,515.84 433.144,515.84 431.128,518.144 429.184,520.448 429.184,520.448 427.168,522.68 427.168,522.68 425.08,524.912 425.008,524.984 422.92,527.144 420.832,529.304 420.832,529.304 418.6,531.392 416.44,533.48 416.44,533.48 414.208,535.568 414.208,535.64 411.976,537.656 411.976,537.656 409.672,539.6 407.296,541.544 407.296,541.544 404.92,543.488 402.544,545.36 402.544,545.36 400.168,547.16 400.168,547.232 397.72,548.96 395.272,550.688 395.272,550.688 392.68,552.488 392.68,552.488 390.16,554.144 390.16,554.144 387.64,555.8 387.64,555.8 385.048,557.384 385.048,557.384 382.456,558.968 382.456,558.968 379.792,560.48 379.792,560.48 377.128,561.92 377.128,561.92 374.464,563.36 374.464,563.36 371.728,564.728 371.728,564.728 369.064,566.096 369.064,566.096 366.256,567.392 366.256,567.392 363.52,568.616 363.52,568.616 360.712,569.84 357.904,570.992 357.904,570.992 355.096,572.144 355.096,572.144 352.288,573.152 352.288,573.152 349.408,574.232 349.408,574.232 346.528,575.24 346.528,575.24 343.648,576.176 343.648,576.176 340.696,577.04 340.696,577.04 337.816,577.904 337.816,577.904 334.864,578.696 331.912,579.416 331.912,579.416 328.96,580.136 328.96,580.136 326.008,580.784 326.008,580.784 322.984,581.288 322.984,581.288 320.032,581.864 320.032,581.864 317.008,582.44 317.008,582.44 313.984,582.872 313.984,582.872 311.032,583.304 311.032,583.304 308.008,583.664 304.984,584.024 304.984,584.024 301.888,584.312 301.888,584.312 298.864,584.456 298.864,584.456 295.984,584.672 292.888,584.744 292.888,584.744 289.864,584.816 289.864,584.816 286.84,584.816 283.816,584.816 283.816,584.816 280.792,584.744 280.72,584.744 277.768,584.672 274.672,584.456 274.672,584.456 271.648,584.312 271.648,584.312 268.624,584.024 268.624,584.024 265.6,583.664 262.576,583.304 262.576,583.304 259.552,582.872 259.552,582.872 256.6,582.44 256.6,582.44 253.576,581.864 250.552,581.288 250.552,581.288 247.6,580.784 247.6,580.784 244.648,580.136 244.648,580.136 241.696,579.416 241.696,579.416 238.744,578.696 235.792,577.904 235.792,577.904 232.84,577.04 232.84,577.04 229.96,576.176 227.08,575.24 227.08,575.24 224.2,574.232 224.2,574.232 221.32,573.152 221.32,573.152 218.512,572.144 218.512,572.144 215.632,570.992 215.632,570.992 212.824,569.84 212.824,569.84 210.088,568.616 210.088,568.616 207.28,567.392 207.28,567.392 204.544,566.096 204.544,566.096 201.808,564.728 201.808,564.728 199.144,563.36 196.48,561.92 196.48,561.92 193.816,560.48 193.816,560.48 191.152,558.968 191.152,558.968 188.56,557.384 188.488,557.384 185.968,555.8 185.968,555.8 183.448,554.144 183.448,554.144 180.928,552.488 180.928,552.488 178.408,550.688 178.408,550.688 175.888,548.96 173.44,547.232 "
   id="polygon2332"
   style="clip-rule:evenodd;fill:#ffd200;fill-rule:evenodd" />
	<g
   id="g2346">
		<g
   id="g2342">
			<polygon
   points="286.408,304.16 286.264,303.224 286.048,302.36 285.76,301.424 285.472,300.632 285.112,299.84 284.752,298.976 284.248,298.256 283.816,297.464 283.24,296.744 282.664,296.096 282.016,295.448 281.368,294.8 280.72,294.224 280,293.648 279.208,293.144 278.488,292.712 277.696,292.28 276.832,291.92 276.04,291.632 275.176,291.344 274.312,291.2 273.376,290.912 272.512,290.84 271.576,290.696 158.392,290.696 158.896,290.696 158.104,290.84 157.24,290.912 156.376,290.984 155.584,291.2 154.72,291.344 153.928,291.632 153.208,291.92 152.416,292.28 151.624,292.712 150.904,293.072 150.256,293.648 149.536,294.08 148.888,294.656 148.312,295.232 147.736,295.88 147.16,296.456 146.656,297.176 146.152,297.896 145.792,298.688 145.432,299.408 145.072,300.2 144.784,300.992 144.496,301.712 144.28,302.576 144.136,303.44 143.992,304.232 143.992,305.096 143.992,426.416 286.624,427.208 270.352,427.208 286.624,427.208 286.624,305.888 286.552,304.952 "
   id="polygon2334"
   style="clip-rule:evenodd;fill:#ef3e42;fill-rule:evenodd" />
			<polygon
   points="156.664,434.336 156.808,434.48 159.688,437.432 159.832,437.504 159.832,437.648 159.832,451.184 159.832,467.96 159.832,481.28 159.832,481.424 159.688,481.496 156.808,484.448 156.664,484.52 156.52,484.52 146.872,484.52 146.728,484.52 146.584,484.448 143.776,481.496 143.632,481.352 143.632,481.28 143.632,467.96 143.632,451.184 143.632,437.648 143.632,437.504 143.776,437.432 146.584,434.48 146.728,434.336 146.872,434.336 156.52,434.336 "
   id="polygon2336"
   style="clip-rule:evenodd;fill:#ef3e42;fill-rule:evenodd" />
			<polygon
   points="271.432,437.792 271.432,451.184 271.432,467.96 271.432,481.064 274.096,483.8 283.528,483.8 286.264,481.064 286.264,467.96 286.264,451.184 286.264,437.792 283.528,435.056 274.096,435.056 "
   id="polygon2338"
   style="clip-rule:evenodd;fill:#ef3e42;fill-rule:evenodd" />
			<polygon
   points="168.688,434.696 178.336,434.696 181.288,437.648 181.288,451.184 204.112,451.184 204.544,450.536 205.12,449.96 205.696,449.384 206.272,448.88 206.92,448.376 207.568,447.944 208.288,447.512 209.008,447.152 209.728,446.864 210.448,446.576 211.24,446.288 211.96,446.072 212.752,445.928 213.544,445.856 214.408,445.784 215.128,445.712 215.992,445.784 216.784,445.784 217.576,445.928 218.368,446.072 219.16,446.288 219.952,446.504 220.672,446.792 221.464,447.152 222.184,447.512 222.832,447.872 223.552,448.376 224.2,448.88 224.848,449.384 225.424,449.96 225.928,450.536 226.504,451.184 249.328,451.184 249.328,437.648 252.208,434.696 261.856,434.696 264.808,437.648 264.808,481.28 261.856,484.16 252.208,484.16 249.328,481.28 249.328,467.96 226.504,467.96 225.928,468.608 225.28,469.184 224.704,469.76 223.984,470.336 223.336,470.768 222.616,471.2 221.824,471.632 221.032,472.064 220.24,472.352 219.376,472.712 218.584,472.928 217.792,473.144 216.928,473.288 216.064,473.288 215.128,473.36 214.408,473.36 213.616,473.288 212.752,473.216 211.96,473 211.24,472.856 210.448,472.568 209.728,472.28 209.008,471.92 208.288,471.56 207.568,471.128 206.92,470.768 206.344,470.264 205.696,469.688 205.12,469.112 204.616,468.464 204.184,467.96 181.288,467.96 181.288,481.28 178.336,484.16 168.688,484.16 165.736,481.28 165.808,481.28 165.736,481.28 165.736,437.648 "
   id="polygon2340"
   style="clip-rule:evenodd;fill:#ef3e42;fill-rule:evenodd" />
		</g>
		<polygon
   points="342.568,383.432 342.928,382.928 343.288,382.496 343.792,381.992 344.296,381.632 344.872,381.272 345.448,380.912 345.952,380.768 346.6,380.48 347.248,380.336 347.896,380.192 348.544,380.12 353.296,379.76 358.264,379.472 363.088,379.184 367.912,378.968 372.808,378.824 377.704,378.68 382.6,378.68 387.424,378.68 392.32,378.68 397.144,378.824 402.04,378.968 406.936,379.112 411.832,379.4 416.656,379.688 421.48,380.048 422.128,380.12 422.704,380.192 423.352,380.336 424,380.48 424.648,380.768 425.224,380.984 425.8,381.272 426.232,381.704 426.736,382.136 427.168,382.568 427.6,383.072 428.032,383.576 428.32,384.08 428.608,384.656 428.824,385.304 437.464,408.632 433.288,408.056 429.112,407.552 424.936,406.976 420.832,406.544 416.584,406.112 412.408,405.752 408.16,405.392 403.984,405.176 399.736,405.032 395.488,404.744 391.384,404.744 387.136,404.672 382.96,404.672 378.712,404.672 374.536,404.744 370.288,404.816 366.112,405.032 361.936,405.32 357.76,405.608 353.584,405.968 349.336,406.328 345.16,406.688 340.984,407.264 336.808,407.84 332.632,408.344 332.704,408.344 321.4,409.784 321.328,409.784 332.488,378.464 332.92,377.672 333.352,376.88 333.856,376.088 334.36,375.368 334.936,374.72 335.512,374 336.16,373.424 336.88,372.848 337.528,372.272 338.248,371.696 339.04,371.192 339.832,370.76 340.552,370.328 341.416,370.04 342.28,369.752 343.072,369.464 344.008,369.248 349.912,368.96 355.744,368.672 361.72,368.456 367.624,368.312 373.528,368.24 379.504,368.168 385.408,368.168 391.24,368.24 397.216,368.312 403.12,368.528 409.024,368.672 414.928,368.96 420.832,369.248 426.736,369.608 427.528,369.752 428.32,369.968 429.112,370.112 429.904,370.4 430.696,370.76 431.416,371.12 432.136,371.552 432.856,371.984 433.576,372.488 434.152,373.064 434.728,373.568 435.376,374.144 435.808,374.792 436.384,375.512 436.816,376.088 437.248,376.88 437.68,377.6 437.968,378.392 438.256,379.112 449.272,410.144 449.992,410.432 450.568,410.792 451.216,411.152 451.864,411.512 452.44,411.944 452.872,412.448 453.376,412.952 453.88,413.528 454.312,414.104 454.672,414.68 454.96,415.328 455.32,415.976 455.536,416.624 455.752,417.344 455.896,418.064 456.04,418.712 456.04,419.504 456.184,421.88 456.328,424.4 456.328,426.848 456.328,429.296 456.256,431.816 456.184,434.264 456.04,436.784 455.824,439.232 455.536,441.752 455.248,444.2 454.96,446.648 454.528,449.096 454.096,451.616 453.592,454.064 453.016,456.44 452.512,458.888 451.864,461.264 451.648,461.696 451.432,462.056 451.144,462.416 450.784,462.776 450.424,462.992 449.992,463.208 449.632,463.424 449.128,463.568 448.48,475.376 448.408,476.024 448.336,476.672 448.192,477.32 448.048,477.968 447.832,478.544 447.544,479.12 447.184,479.768 446.896,480.272 446.536,480.776 446.104,481.352 445.6,481.784 445.096,482.216 444.592,482.576 444.088,482.936 443.44,483.296 442.864,483.512 442.216,483.8 441.64,483.872 440.992,484.088 440.344,484.16 439.624,484.16 438.976,484.16 438.4,484.088 437.68,483.944 437.032,483.8 436.384,483.584 435.808,483.368 435.232,483.008 434.728,482.648 434.152,482.288 433.648,481.928 433.216,481.424 432.784,480.992 432.352,480.416 431.992,479.84 431.632,479.264 431.344,478.76 431.128,478.112 431.056,477.464 430.84,476.816 430.768,476.096 430.768,463.568 338.968,463.568 338.968,475.592 338.896,476.312 338.824,476.888 338.68,477.536 338.464,478.184 338.248,478.832 337.888,479.408 337.672,479.984 337.168,480.56 336.88,481.064 336.376,481.568 335.872,482 335.368,482.432 334.864,482.792 334.288,483.152 333.64,483.44 333.064,483.728 332.488,483.872 331.768,484.088 331.12,484.16 330.472,484.16 329.752,484.16 329.104,484.16 328.456,484.088 327.808,483.872 327.16,483.728 326.584,483.512 325.936,483.224 325.36,482.864 324.784,482.504 324.352,482.072 323.848,481.64 323.344,481.136 322.912,480.704 322.552,480.128 322.192,479.552 321.904,478.904 321.616,478.4 321.4,477.68 321.328,477.032 321.184,476.384 320.392,463.208 320.032,462.992 319.744,462.848 319.384,462.632 319.168,462.416 318.952,462.056 318.808,461.768 318.592,461.408 318.52,461.048 318.448,460.688 317.8,458.168 317.152,455.648 316.648,453.056 316.072,450.536 315.712,447.944 315.28,445.352 314.848,442.76 314.56,440.168 314.272,437.576 314.056,434.984 313.84,432.392 313.696,429.8 313.624,427.136 313.552,424.544 313.552,421.952 313.624,419.36 313.696,418.64 313.84,418.064 313.912,417.344 314.128,416.624 314.344,415.976 314.632,415.328 314.992,414.752 315.352,414.176 315.784,413.528 316.144,413.096 316.648,412.52 317.152,412.088 317.656,411.584 318.232,411.152 318.808,410.792 319.384,410.432 320.032,410.144 320.752,410 321.328,409.784 332.632,408.344 342.136,383.936 "
   id="polygon2344"
   style="clip-rule:evenodd;fill-rule:evenodd" />
	</g>
</g>
</svg>