<?xml version="1.0" encoding="iso-8859-1"?>
<!-- Generator: Adobe Illustrator 15.1.0, SVG Export Plug-In . SVG Version: 6.00 Build 0)  -->
<!DOCTYPE svg PUBLIC "-//W3C//DTD SVG 1.1//EN" "http://www.w3.org/Graphics/SVG/1.1/DTD/svg11.dtd">
<svg version="1.1" id="Layer_1" xmlns="http://www.w3.org/2000/svg" xmlns:xlink="http://www.w3.org/1999/xlink" x="0px" y="0px"
	 width="595.275px" height="841.89px" viewBox="0 0 595.275 841.89" style="enable-background:new 0 0 595.275 841.89;"
	 xml:space="preserve">
<path style="fill:#FFD200;" d="M543.461,422.989c0-136.985-111.047-248.032-248.031-248.032
	c-136.985,0-248.032,111.047-248.032,248.032c0,136.983,111.047,248.032,248.032,248.032
	C432.414,671.021,543.461,559.972,543.461,422.989"/>
<path style="fill:#EF3E42;" d="M535.71,422.989c0-132.704-107.578-240.281-240.28-240.281
	c-132.704,0-240.282,107.577-240.282,240.281c0,132.702,107.578,240.28,240.282,240.28
	C428.132,663.269,535.71,555.691,535.71,422.989"/>
<path style="fill:#FFD200;" d="M485.328,422.989c0-104.878-85.021-189.899-189.898-189.899c-104.878,0-189.9,85.021-189.9,189.899
	s85.022,189.899,189.9,189.899C400.307,612.888,485.328,527.867,485.328,422.989"/>
<path d="M320.491,475.308c0,35.316,28.63,63.943,63.946,63.943c35.314,0,63.945-28.627,63.945-63.943V370.669
	c0-35.315-28.631-63.945-63.945-63.945c-35.316,0-63.946,28.63-63.946,63.945V475.308z"/>
<path d="M169.948,382.295h34.879v-11.626c0-3.764,0.732-7.493,2.154-10.98c6.063-14.863,23.029-21.996,37.892-15.933
	c14.863,6.063,21.997,23.027,15.934,37.892l-90.859,122.726v34.877H297.84v-34.877h-88.361l84.559-111.984
	c11.996-33.218-5.207-69.867-38.423-81.865c-33.217-11.996-69.868,5.208-81.865,38.423c-3.252,9.006-4.439,18.628-3.476,28.155
	L169.948,382.295z"/>
<path style="fill:#FFD200;" d="M355.371,475.308c0,16.053,13.014,29.066,29.066,29.066c16.051,0,29.066-13.014,29.066-29.066
	V370.669c0-16.052-13.016-29.066-29.066-29.066c-16.053,0-29.066,13.014-29.066,29.066V475.308z"/>
</svg>
