<?xml version="1.0" encoding="UTF-8" standalone="no"?>
<!-- Generator: Adobe Illustrator 15.1.0, SVG Export Plug-In . SVG Version: 6.00 Build 0)  -->

<svg
   xmlns:dc="http://purl.org/dc/elements/1.1/"
   xmlns:cc="http://creativecommons.org/ns#"
   xmlns:rdf="http://www.w3.org/1999/02/22-rdf-syntax-ns#"
   xmlns:svg="http://www.w3.org/2000/svg"
   xmlns="http://www.w3.org/2000/svg"
   xmlns:sodipodi="http://sodipodi.sourceforge.net/DTD/sodipodi-0.dtd"
   xmlns:inkscape="http://www.inkscape.org/namespaces/inkscape"
   version="1.1"
   id="Layer_1"
   x="0px"
   y="0px"
   width="496.064"
   height="495.987"
   viewBox="0 0 496.06397 495.98699"
   xml:space="preserve"
   sodipodi:docname="361-1.svg"
   inkscape:version="0.92.5 (2060ec1f9f, 2020-04-08)"><metadata
   id="metadata2417"><rdf:RDF><cc:Work
       rdf:about=""><dc:format>image/svg+xml</dc:format><dc:type
         rdf:resource="http://purl.org/dc/dcmitype/StillImage" /></cc:Work></rdf:RDF></metadata><defs
   id="defs2415" /><sodipodi:namedview
   pagecolor="#ffffff"
   bordercolor="#666666"
   borderopacity="1"
   objecttolerance="10"
   gridtolerance="10"
   guidetolerance="10"
   inkscape:pageopacity="0"
   inkscape:pageshadow="2"
   inkscape:window-width="640"
   inkscape:window-height="480"
   id="namedview2413"
   showgrid="false"
   inkscape:zoom="0.28032165"
   inkscape:cx="248.03201"
   inkscape:cy="247.99399"
   inkscape:window-x="0"
   inkscape:window-y="0"
   inkscape:window-maximized="0"
   inkscape:current-layer="Layer_1" />
<g
   id="CIRCLE_72_"
   transform="translate(-49.608,-172.952)">
	<path
   style="fill:#ffd200"
   d="m 545.672,420.973 c 0,-137.008 -111.033,-248.021 -248.061,-248.021 -136.895,0 -248.003,111.014 -248.003,248.021 0,136.933 111.108,247.966 248.003,247.966 137.028,-10e-4 248.061,-111.034 248.061,-247.966 z"
   id="path2394"
   inkscape:connector-curvature="0" />
</g>
<g
   id="CIRCLE_73_"
   transform="translate(-49.608,-172.952)">
	<path
   style="fill:#ef3e42"
   d="m 537.859,420.973 c 0,-132.742 -107.468,-240.229 -240.248,-240.229 -132.628,0 -240.229,107.486 -240.229,240.229 0,132.609 107.601,240.229 240.229,240.229 132.781,0 240.248,-107.62 240.248,-240.229 z"
   id="path2397"
   inkscape:connector-curvature="0" />
</g>
<g
   id="CIRCLE_74_"
   transform="translate(-49.608,-172.952)">
	<path
   style="fill:#ffd200"
   d="m 487.501,420.973 c 0,-104.908 -84.943,-189.889 -189.89,-189.889 -104.813,0 -189.851,84.98 -189.851,189.889 0,104.852 85.038,189.87 189.851,189.87 104.947,0 189.89,-85.019 189.89,-189.87 z"
   id="path2400"
   inkscape:connector-curvature="0" />
</g>
<g
   id="LWPOLYLINE_119_"
   transform="translate(-49.608,-172.952)">
	<path
   d="m 313.159,477.134 c 0,35.305 28.63,63.935 63.953,63.935 35.305,0 63.821,-28.63 63.821,-63.935 V 372.51 c 0,-35.285 -28.517,-63.915 -63.821,-63.915 -35.323,0 -63.953,28.63 -63.953,63.915 z"
   id="path2403"
   inkscape:connector-curvature="0" />
</g>
<g
   id="LWPOLYLINE_120_"
   transform="translate(-49.608,-172.952)">
	<path
   d="m 160.072,477.134 c 0,35.305 28.668,63.935 63.973,63.935 35.323,0 63.954,-28.63 63.954,-63.935 v -25.559 c 0,-35.361 -28.63,-63.916 -63.954,-63.916 -8.949,0 -17.709,1.84 -25.9,5.423 l 4.967,-49.581 h 63.973 l -2.389,-34.906 h -92.982 l -11.642,116.189 40.689,9.348 c 5.461,-7.357 14.107,-11.623 23.284,-11.623 16.041,0 29.047,12.988 29.047,29.066 v 25.559 c 0,16.041 -13.007,29.123 -29.047,29.123 -16.021,0 -29.124,-13.082 -29.124,-29.123 z"
   id="path2406"
   inkscape:connector-curvature="0" />
</g>
<g
   id="LWPOLYLINE_121_"
   transform="translate(-49.608,-172.952)">
	<path
   style="fill:#ffd200"
   d="m 347.989,477.134 c 0,16.041 13.083,29.123 29.123,29.123 16.041,0 29.048,-13.082 29.048,-29.123 V 372.51 c 0,-16.021 -13.007,-29.009 -29.048,-29.009 -16.04,0 -29.123,12.987 -29.123,29.009 z"
   id="path2409"
   inkscape:connector-curvature="0" />
</g>
</svg>