<?xml version="1.0" encoding="UTF-8" standalone="no"?>
<!-- Generator: Adobe Illustrator 15.1.0, SVG Export Plug-In . SVG Version: 6.00 Build 0)  -->

<svg
   xmlns:dc="http://purl.org/dc/elements/1.1/"
   xmlns:cc="http://creativecommons.org/ns#"
   xmlns:rdf="http://www.w3.org/1999/02/22-rdf-syntax-ns#"
   xmlns:svg="http://www.w3.org/2000/svg"
   xmlns="http://www.w3.org/2000/svg"
   xmlns:sodipodi="http://sodipodi.sourceforge.net/DTD/sodipodi-0.dtd"
   xmlns:inkscape="http://www.inkscape.org/namespaces/inkscape"
   version="1.1"
   id="Layer_1"
   x="0px"
   y="0px"
   width="496.06299"
   height="495.94901"
   viewBox="0 0 496.06296 495.949"
   xml:space="preserve"
   sodipodi:docname="361-6.svg"
   inkscape:version="0.92.5 (2060ec1f9f, 2020-04-08)"><metadata
   id="metadata2551"><rdf:RDF><cc:Work
       rdf:about=""><dc:format>image/svg+xml</dc:format><dc:type
         rdf:resource="http://purl.org/dc/dcmitype/StillImage" /></cc:Work></rdf:RDF></metadata><defs
   id="defs2549" /><sodipodi:namedview
   pagecolor="#ffffff"
   bordercolor="#666666"
   borderopacity="1"
   objecttolerance="10"
   gridtolerance="10"
   guidetolerance="10"
   inkscape:pageopacity="0"
   inkscape:pageshadow="2"
   inkscape:window-width="640"
   inkscape:window-height="480"
   id="namedview2547"
   showgrid="false"
   inkscape:zoom="0.28032165"
   inkscape:cx="248.03101"
   inkscape:cy="247.97499"
   inkscape:window-x="0"
   inkscape:window-y="0"
   inkscape:window-maximized="0"
   inkscape:current-layer="Layer_1" />
<g
   id="CIRCLE_81_"
   transform="translate(-49.609,-172.971)">
	<path
   style="fill:#ffd200"
   d="m 545.672,420.974 c 0,-136.998 -111.063,-248.003 -248.079,-248.003 -136.885,0 -247.984,111.005 -247.984,248.003 0,136.923 111.1,247.946 247.984,247.946 137.016,0 248.079,-111.024 248.079,-247.946 z"
   id="path2525"
   inkscape:connector-curvature="0" />
</g>
<g
   id="CIRCLE_82_"
   transform="translate(-49.609,-172.971)">
	<path
   style="fill:#ef3e42"
   d="m 537.822,420.974 c 0,-132.732 -107.497,-240.211 -240.229,-240.211 -132.618,0 -240.211,107.479 -240.211,240.211 0,132.599 107.593,240.21 240.211,240.21 132.732,0 240.229,-107.612 240.229,-240.21 z"
   id="path2528"
   inkscape:connector-curvature="0" />
</g>
<g
   id="CIRCLE_83_"
   transform="translate(-49.609,-172.971)">
	<path
   style="fill:#ffd200"
   d="m 487.506,420.974 c 0,-104.9 -84.975,-189.875 -189.913,-189.875 -104.806,0 -189.837,84.975 -189.837,189.875 0,104.843 85.031,189.856 189.837,189.856 104.938,0 189.913,-85.014 189.913,-189.856 z"
   id="path2531"
   inkscape:connector-curvature="0" />
</g>
<g
   id="LWPOLYLINE_132_"
   transform="translate(-49.609,-172.971)">
	<path
   d="m 339.341,473.188 c 0,35.338 28.571,64.004 63.948,64.004 35.302,0 63.893,-28.666 63.893,-64.004 v -104.56 c 0,-35.302 -28.591,-63.968 -63.893,-63.968 -35.377,0 -63.948,28.666 -63.948,63.968 z"
   id="path2534"
   inkscape:connector-curvature="0" />
</g>
<g
   id="LWPOLYLINE_133_"
   transform="translate(-49.609,-172.971)">
	<path
   d="m 204.238,380.269 h 34.847 v -11.641 c 0,-3.754 0.777,-7.489 2.237,-10.939 6.029,-14.883 22.979,-22.011 37.805,-15.944 14.883,6.029 21.992,22.979 15.963,37.88 L 204.238,502.31 v 34.883 H 332.135 V 502.31 h -88.387 l 84.576,-111.992 c 12.021,-33.141 -5.194,-69.826 -38.43,-81.79 -33.235,-12.02 -69.826,5.157 -81.809,38.392 -3.299,9.006 -4.455,18.675 -3.508,28.135 z"
   id="path2537"
   inkscape:connector-curvature="0" />
</g>
<g
   id="LWPOLYLINE_134_"
   transform="translate(-49.609,-172.971)">
	<path
   d="m 130.582,338.9 c 13.783,-7.186 24.06,-19.376 28.742,-34.24 h 35.207 v 232.532 h -34.828 v -179.01 l -25.595,4.645 z"
   id="path2540"
   inkscape:connector-curvature="0" />
</g>
<g
   id="LWPOLYLINE_135_"
   transform="translate(-49.609,-172.971)">
	<path
   style="fill:#ffd200"
   d="m 374.168,473.188 c 0,16.076 13.082,29.121 29.121,29.121 16.04,0 29.008,-13.045 29.008,-29.121 v -104.56 c 0,-16.02 -12.968,-29.045 -29.008,-29.045 -16.039,0 -29.121,13.025 -29.121,29.045 z"
   id="path2543"
   inkscape:connector-curvature="0" />
</g>
</svg>