<?xml version="1.0" encoding="iso-8859-1"?>
<!-- Generator: Adobe Illustrator 15.1.0, SVG Export Plug-In . SVG Version: 6.00 Build 0)  -->
<!DOCTYPE svg PUBLIC "-//W3C//DTD SVG 1.1//EN" "http://www.w3.org/Graphics/SVG/1.1/DTD/svg11.dtd">
<svg version="1.1" id="Layer_1" xmlns="http://www.w3.org/2000/svg" xmlns:xlink="http://www.w3.org/1999/xlink" x="0px" y="0px"
	 width="595.28px" height="841.89px" viewBox="0 0 595.28 841.89" style="enable-background:new 0 0 595.28 841.89;"
	 xml:space="preserve">
<g id="CIRCLE_81_">
	<path style="fill:#FFD200;" d="M545.672,420.974c0-136.998-111.063-248.003-248.079-248.003
		c-136.885,0-247.984,111.005-247.984,248.003c0,136.923,111.1,247.946,247.984,247.946
		C434.609,668.92,545.672,557.896,545.672,420.974L545.672,420.974z"/>
</g>
<g id="CIRCLE_82_">
	<path style="fill:#EF3E42;" d="M537.822,420.974c0-132.732-107.497-240.211-240.229-240.211
		c-132.618,0-240.211,107.479-240.211,240.211c0,132.599,107.593,240.21,240.211,240.21
		C430.325,661.184,537.822,553.572,537.822,420.974L537.822,420.974z"/>
</g>
<g id="CIRCLE_83_">
	<path style="fill:#FFD200;" d="M487.506,420.974c0-104.9-84.975-189.875-189.913-189.875
		c-104.806,0-189.837,84.975-189.837,189.875c0,104.843,85.031,189.856,189.837,189.856
		C402.531,610.83,487.506,525.816,487.506,420.974L487.506,420.974z"/>
</g>
<g id="LWPOLYLINE_132_">
	<path d="M339.341,473.188c0,35.338,28.571,64.004,63.948,64.004c35.302,0,63.893-28.666,63.893-64.004v-104.56
		c0-35.302-28.591-63.968-63.893-63.968c-35.377,0-63.948,28.666-63.948,63.968V473.188z"/>
</g>
<g id="LWPOLYLINE_133_">
	<path d="M204.238,380.269h34.847v-11.641c0-3.754,0.777-7.489,2.237-10.939c6.029-14.883,22.979-22.011,37.805-15.944
		c14.883,6.029,21.992,22.979,15.963,37.88l-90.852,122.685v34.883h127.897v-34.883h-88.387l84.576-111.992
		c12.021-33.141-5.194-69.826-38.43-81.79c-33.235-12.02-69.826,5.157-81.809,38.392c-3.299,9.006-4.455,18.675-3.508,28.135
		L204.238,380.269z"/>
</g>
<g id="LWPOLYLINE_134_">
	<path d="M130.582,338.9c13.783-7.186,24.06-19.376,28.742-34.24h35.207v232.532h-34.828v-179.01l-25.595,4.645L130.582,338.9z"/>
</g>
<g id="LWPOLYLINE_135_">
	<path style="fill:#FFD200;" d="M374.168,473.188c0,16.076,13.082,29.121,29.121,29.121c16.04,0,29.008-13.045,29.008-29.121
		v-104.56c0-16.02-12.968-29.045-29.008-29.045c-16.039,0-29.121,13.025-29.121,29.045V473.188z"/>
</g>
</svg>
