<?xml version="1.0" encoding="iso-8859-1"?>
<!-- Generator: Adobe Illustrator 15.1.0, SVG Export Plug-In . SVG Version: 6.00 Build 0)  -->
<!DOCTYPE svg PUBLIC "-//W3C//DTD SVG 1.1//EN" "http://www.w3.org/Graphics/SVG/1.1/DTD/svg11.dtd">
<svg version="1.1" id="Layer_1" xmlns="http://www.w3.org/2000/svg" xmlns:xlink="http://www.w3.org/1999/xlink" x="0px" y="0px"
	 width="595.28px" height="841.89px" viewBox="0 0 595.28 841.89" style="enable-background:new 0 0 595.28 841.89;"
	 xml:space="preserve">
<g id="CIRCLE_72_">
	<path style="fill:#FFD200;" d="M545.672,420.973c0-137.008-111.033-248.021-248.061-248.021
		c-136.895,0-248.003,111.014-248.003,248.021c0,136.933,111.108,247.966,248.003,247.966
		C434.639,668.938,545.672,557.905,545.672,420.973L545.672,420.973z"/>
</g>
<g id="CIRCLE_73_">
	<path style="fill:#EF3E42;" d="M537.859,420.973c0-132.742-107.468-240.229-240.248-240.229
		c-132.628,0-240.229,107.486-240.229,240.229c0,132.609,107.601,240.229,240.229,240.229
		C430.392,661.202,537.859,553.582,537.859,420.973L537.859,420.973z"/>
</g>
<g id="CIRCLE_74_">
	<path style="fill:#FFD200;" d="M487.501,420.973c0-104.908-84.943-189.889-189.89-189.889
		c-104.813,0-189.851,84.98-189.851,189.889c0,104.852,85.038,189.87,189.851,189.87
		C402.558,610.843,487.501,525.824,487.501,420.973L487.501,420.973z"/>
</g>
<g id="LWPOLYLINE_119_">
	<path d="M313.159,477.134c0,35.305,28.63,63.935,63.953,63.935c35.305,0,63.821-28.63,63.821-63.935V372.51
		c0-35.285-28.517-63.915-63.821-63.915c-35.323,0-63.953,28.63-63.953,63.915V477.134z"/>
</g>
<g id="LWPOLYLINE_120_">
	<path d="M160.072,477.134c0,35.305,28.668,63.935,63.973,63.935c35.323,0,63.954-28.63,63.954-63.935v-25.559
		c0-35.361-28.63-63.916-63.954-63.916c-8.949,0-17.709,1.84-25.9,5.423l4.967-49.581h63.973l-2.389-34.906h-92.982l-11.642,116.189
		l40.689,9.348c5.461-7.357,14.107-11.623,23.284-11.623c16.041,0,29.047,12.988,29.047,29.066v25.559
		c0,16.041-13.007,29.123-29.047,29.123c-16.021,0-29.124-13.082-29.124-29.123H160.072z"/>
</g>
<g id="LWPOLYLINE_121_">
	<path style="fill:#FFD200;" d="M347.989,477.134c0,16.041,13.083,29.123,29.123,29.123c16.041,0,29.048-13.082,29.048-29.123
		V372.51c0-16.021-13.007-29.009-29.048-29.009c-16.04,0-29.123,12.987-29.123,29.009V477.134z"/>
</g>
</svg>
