<?xml version="1.0" encoding="iso-8859-1"?>
<!-- Generator: Adobe Illustrator 15.1.0, SVG Export Plug-In . SVG Version: 6.00 Build 0)  -->
<!DOCTYPE svg PUBLIC "-//W3C//DTD SVG 1.1//EN" "http://www.w3.org/Graphics/SVG/1.1/DTD/svg11.dtd">
<svg version="1.1" id="Layer_1" xmlns="http://www.w3.org/2000/svg" xmlns:xlink="http://www.w3.org/1999/xlink" x="0px" y="0px"
	 width="595.28px" height="841.89px" viewBox="0 0 595.28 841.89" style="enable-background:new 0 0 595.28 841.89;"
	 xml:space="preserve">
<g id="CIRCLE_87_">
	<path style="fill:#FFD200;" d="M545.672,420.973c0-137.034-111.054-248.069-247.994-248.069
		c-137.053,0-248.069,111.035-248.069,248.069c0,136.959,111.017,248.014,248.069,248.014
		C434.618,668.986,545.672,557.932,545.672,420.973L545.672,420.973z"/>
</g>
<g id="CIRCLE_88_">
	<path style="fill:#EF3E42;" d="M537.935,420.973c0-132.768-107.603-240.274-240.257-240.274
		c-132.748,0-240.294,107.507-240.294,240.274c0,132.636,107.546,240.275,240.294,240.275
		C430.332,661.248,537.935,553.608,537.935,420.973L537.935,420.973z"/>
</g>
<g id="CIRCLE_89_">
	<path style="fill:#FFD200;" d="M487.604,420.973c0-104.928-85.072-189.925-189.926-189.925
		c-104.928,0-189.906,84.997-189.906,189.925c0,104.872,84.979,189.907,189.906,189.907
		C402.531,610.88,487.604,525.845,487.604,420.973L487.604,420.973z"/>
</g>
<g id="LWPOLYLINE_141_">
	<path d="M313.172,473.2c0,35.35,28.598,64.023,63.871,64.023c35.425,0,64.023-28.674,64.023-64.023V368.613
		c0-35.312-28.599-63.985-64.023-63.985c-35.273,0-63.871,28.674-63.871,63.985V473.2z"/>
</g>
<g id="LWPOLYLINE_142_">
	<path d="M174.411,410.334c-12.857,12.176-20.178,28.959-20.178,46.633V473.2c0,35.35,28.674,64.023,63.966,64.023
		c35.293,0,63.967-28.674,63.967-64.023v-16.233c0-17.674-7.32-34.457-20.179-46.633c9.255-10.544,14.337-24.141,14.337-38.213
		v-9.311c0-32.088-26.037-58.183-58.125-58.183c-32.105,0-58.087,26.095-58.087,58.183v9.311
		C160.112,386.193,165.157,399.79,174.411,410.334z"/>
</g>
<g id="LWPOLYLINE_143_">
	<path style="fill:#FFD200;" d="M189.146,473.2c0,16.082,12.99,29.129,29.053,29.129c16.063,0,29.129-13.047,29.129-29.129v-16.233
		c0-16.043-13.065-29.033-29.129-29.033c-16.063,0-29.053,12.99-29.053,29.033V473.2z"/>
</g>
<g id="LWPOLYLINE_144_">
	<path style="fill:#FFD200;" d="M194.949,362.811v9.311c0,12.839,10.412,23.25,23.25,23.25c12.839,0,23.288-10.411,23.288-23.25
		v-9.311c0-12.858-10.449-23.25-23.288-23.25C205.361,339.561,194.949,349.952,194.949,362.811z"/>
</g>
<g id="LWPOLYLINE_145_">
	<path style="fill:#FFD200;" d="M348.047,473.2c0,16.082,12.99,29.129,28.996,29.129c16.157,0,29.129-13.047,29.129-29.129V368.613
		c0-16.024-12.972-29.053-29.129-29.053c-16.006,0-28.996,13.028-28.996,29.053V473.2z"/>
</g>
</svg>
