<?xml version="1.0" encoding="UTF-8" standalone="no"?>
<!-- Generator: Adobe Illustrator 15.1.0, SVG Export Plug-In . SVG Version: 6.00 Build 0)  -->

<svg
   xmlns:dc="http://purl.org/dc/elements/1.1/"
   xmlns:cc="http://creativecommons.org/ns#"
   xmlns:rdf="http://www.w3.org/1999/02/22-rdf-syntax-ns#"
   xmlns:svg="http://www.w3.org/2000/svg"
   xmlns="http://www.w3.org/2000/svg"
   xmlns:sodipodi="http://sodipodi.sourceforge.net/DTD/sodipodi-0.dtd"
   xmlns:inkscape="http://www.inkscape.org/namespaces/inkscape"
   version="1.0"
   x="0px"
   y="0px"
   width="494.64001"
   height="494.13599"
   viewBox="0 0 494.64001 494.13599"
   enable-background="new 0 0 595 842"
   xml:space="preserve"
   id="svg2627"
   sodipodi:docname="361.svg"
   inkscape:version="0.92.5 (2060ec1f9f, 2020-04-08)"><metadata
   id="metadata2633"><rdf:RDF><cc:Work
       rdf:about=""><dc:format>image/svg+xml</dc:format><dc:type
         rdf:resource="http://purl.org/dc/dcmitype/StillImage" /></cc:Work></rdf:RDF></metadata><defs
   id="defs2631" /><sodipodi:namedview
   pagecolor="#ffffff"
   bordercolor="#666666"
   borderopacity="1"
   objecttolerance="10"
   gridtolerance="10"
   guidetolerance="10"
   inkscape:pageopacity="0"
   inkscape:pageshadow="2"
   inkscape:window-width="640"
   inkscape:window-height="480"
   id="namedview2629"
   showgrid="false"
   inkscape:zoom="0.28028504"
   inkscape:cx="266.548"
   inkscape:cy="200.32"
   inkscape:window-x="0"
   inkscape:window-y="0"
   inkscape:window-maximized="0"
   inkscape:current-layer="svg2627" />
<g
   id="Kuvataso_1"
   transform="translate(-30.952,-127.184)">
</g>
<g
   id="KUVA"
   transform="translate(-30.952,-127.184)">
</g>
<g
   id="HATKELT"
   transform="translate(-30.952,-127.184)">
</g>
<g
   id="HATMUS"
   transform="translate(-30.952,-127.184)">
</g>
<g
   id="HATPUN"
   transform="translate(-30.952,-127.184)">
	<g
   id="g2624">
		<path
   d="m 525.592,374.36 c 0,135.936 -111.168,246.96 -247.248,246.96 -136.224,0 -247.392,-111.024 -247.392,-246.96 0,-136.152 111.168,-247.176 247.392,-247.176 136.08,0 247.248,111.024 247.248,247.176 z"
   id="path2610"
   inkscape:connector-curvature="0"
   style="clip-rule:evenodd;fill:#ffd200;fill-rule:evenodd" />
		<path
   d="m 518.392,375.008 c 0,131.256 -106.848,238.464 -237.888,239.184 v -50.328 c 104.328,0 189.432,-85.104 189.432,-189.144 0,-104.328 -85.104,-189.432 -189.432,-189.432 v -49.68 c 131.04,0.72 237.888,107.928 237.888,239.4 z M 280.504,614.192 c -0.432,0 -0.936,0 -1.368,0 -131.904,0 -239.472,-107.496 -239.472,-239.184 0,-131.904 107.568,-239.4 239.472,-239.4 0.432,0 0.936,0 1.368,0 v 49.68 C 176.032,185.288 91,270.392 91,374.72 c 0,104.04 85.032,189.144 189.504,189.144 z"
   id="path2612"
   inkscape:connector-curvature="0"
   style="clip-rule:evenodd;fill:#ef3e42;fill-rule:evenodd" />
		<g
   id="g2622">
			<polygon
   stroke-miterlimit="10"
   points="419.176,300.2 416.368,290.912 411.976,282.2 404.92,272.912 397,266 389.368,260.96 379.648,256.928 368.848,254.408 358.552,253.904 347.32,254.696 338.176,256.712 327.592,260.96 319.024,266.648 312.256,273.056 303.976,284.504 299.944,292.784 297.352,302.216 295.984,310.352 295.984,427.352 297.856,437.432 300.664,444.2 304.696,450.968 309.736,457.304 315.136,462.92 322.192,468.464 331.48,473.504 340.912,476.528 351.496,478.904 364.96,478.76 372.52,477.392 382.168,474.728 391.24,470.12 397.288,465.584 405.712,458.672 412.336,449.96 417.016,440.672 419.536,431.528 420.4,425.336 387.208,314.888 387.352,422.096 385.192,428.864 381.448,434.768 376.912,440.168 369.496,443.336 362.44,445.208 355.384,445.352 348.472,443.84 343.432,441.68 338.176,438.656 333.496,432.392 331.12,427.856 329.968,421.088 329.968,310.352 331.624,303.224 335.152,298.184 340.912,291.92 347.104,289.112 354.16,287.24 360.928,287.096 366.976,288.248 372.88,290.768 377.776,294.512 382.816,300.056 385.552,305.456 387.208,312.008 387.208,314.888 420.4,424.976 420.4,308.768 "
   id="polygon2614"
   style="clip-rule:evenodd;fill-rule:evenodd;stroke:#000000;stroke-width:0.1247;stroke-miterlimit:10" />
			<g
   id="g2620">
				<path
   d="m 236.872,253.544 h -40.608 l -24.984,32.4 c -6.984,9 -11.736,18.432 -16.848,28.584 -0.936,1.728 -1.8,3.456 -2.448,4.68 -2.592,6.552 -5.04,13.032 -7.056,19.728 -2.088,6.768 -3.744,13.68 -5.04,20.952 -0.648,6.12 -1.152,11.88 -1.584,17.784 -0.432,5.832 -0.864,11.664 -1.224,18 v 0 c 0,0.072 0,0.144 0,0.216 0,2.448 -0.072,4.896 -0.144,7.416 -0.36,10.152 -0.72,20.592 2.952,30.024 2.808,7.272 5.256,13.176 8.424,18.288 3.24,5.04 7.272,9.432 13.392,13.752 4.968,3.528 10.008,6.696 15.696,9 5.688,2.376 11.952,3.816 19.368,3.96 7.992,0.144 15.048,-1.224 21.528,-3.528 6.48,-2.304 12.384,-5.616 18.216,-9.432 v 0 0 0 c 1.512,-1.008 2.952,-2.088 4.32,-3.24 1.368,-1.08 2.736,-2.304 3.96,-3.6 6.552,-6.696 11.448,-15.336 14.112,-25.416 0.072,-0.216 0.072,-0.432 0.144,-0.648 1.44,-5.976 1.584,-13.032 1.656,-19.152 0,-0.36 0,-0.864 0,-1.152 v 0 c 0.144,-5.544 -0.288,-10.656 -1.296,-15.696 -1.008,-5.04 -2.52,-10.008 -4.536,-15.408 -2.376,-4.32 -4.968,-8.424 -8.064,-12.24 -3.096,-3.744 -6.624,-7.272 -11.016,-10.512 v 0 c 0,0 0.072,0.072 0,0 v 0 c -1.512,-1.152 -3.168,-2.16 -4.896,-3.168 -1.728,-1.008 -3.528,-1.872 -5.256,-2.736 -9.288,-4.248 -19.368,-6.336 -25.992,-5.76 h -0.072 c -1.152,0.072 -2.16,0.216 -3.168,0.288 -1.08,0.144 -2.16,0.288 -3.24,0.432 -5.544,0.72 -11.16,1.872 -15.84,3.312 l -1.8,0.504 0.576,-1.728 c 0.648,-1.872 1.152,-3.672 1.656,-5.472 1.08,-3.672 2.16,-7.344 3.672,-10.872 0.288,-0.648 0.576,-1.296 0.864,-1.872 4.464,-10.224 8.28,-18.864 15.192,-27.72 l 20.016,-25.272 v 0 z"
   id="path2616"
   inkscape:connector-curvature="0" />
				<path
   d="m 199.216,379.184 v 0 0 c -7.992,0 -15.192,3.672 -20.448,9.648 -5.256,5.976 -8.496,14.184 -8.496,23.184 v 0 0 c 0,9.072 3.24,17.208 8.496,23.184 5.256,5.904 12.528,9.648 20.448,9.648 v 0 0 c 7.992,0 15.192,-3.744 20.448,-9.648 5.256,-5.976 8.496,-14.112 8.496,-23.184 v 0 0 c 0,-9 -3.24,-17.208 -8.496,-23.184 -5.256,-5.976 -12.456,-9.648 -20.448,-9.648 z"
   id="path2618"
   inkscape:connector-curvature="0"
   style="fill:#ffd200" />
			</g>
		</g>
	</g>
</g>
</svg>