<?xml version="1.0" encoding="UTF-8" standalone="no"?>
<!-- Generator: Adobe Illustrator 15.1.0, SVG Export Plug-In . SVG Version: 6.00 Build 0)  -->

<svg
   xmlns:dc="http://purl.org/dc/elements/1.1/"
   xmlns:cc="http://creativecommons.org/ns#"
   xmlns:rdf="http://www.w3.org/1999/02/22-rdf-syntax-ns#"
   xmlns:svg="http://www.w3.org/2000/svg"
   xmlns="http://www.w3.org/2000/svg"
   xmlns:sodipodi="http://sodipodi.sourceforge.net/DTD/sodipodi-0.dtd"
   xmlns:inkscape="http://www.inkscape.org/namespaces/inkscape"
   version="1.0"
   id="Layer_1"
   x="0px"
   y="0px"
   width="497.03757"
   height="496.47311"
   viewBox="0 0 497.03757 496.47311"
   enable-background="new 0 0 595 842"
   xml:space="preserve"
   sodipodi:docname="362.svg"
   inkscape:version="0.92.5 (2060ec1f9f, 2020-04-08)"><metadata
   id="metadata2662"><rdf:RDF><cc:Work
       rdf:about=""><dc:format>image/svg+xml</dc:format><dc:type
         rdf:resource="http://purl.org/dc/dcmitype/StillImage" /></cc:Work></rdf:RDF></metadata><defs
   id="defs2660" /><sodipodi:namedview
   pagecolor="#ffffff"
   bordercolor="#666666"
   borderopacity="1"
   objecttolerance="10"
   gridtolerance="10"
   guidetolerance="10"
   inkscape:pageopacity="0"
   inkscape:pageshadow="2"
   inkscape:window-width="640"
   inkscape:window-height="480"
   id="namedview2658"
   showgrid="false"
   inkscape:zoom="0.28028504"
   inkscape:cx="260.55937"
   inkscape:cy="219.99373"
   inkscape:window-x="0"
   inkscape:window-y="0"
   inkscape:window-maximized="0"
   inkscape:current-layer="Layer_1" />
<g
   id="g2655"
   transform="translate(-36.940629,-144.52063)">
	<g
   id="g2643">
		<polygon
   points="209.656,370.832 220.528,374.216 232.696,379.256 244,386.384 253.288,396.392 259.984,408.128 264.592,420.296 267.112,436.208 265.024,453.344 259.12,471.776 247.816,487.328 232.264,499.064 219.736,504.104 206.704,506.192 189.496,504.536 175.312,499.928 164.368,492.8 150.976,478.904 144.64,467.168 140.896,455.072 140.032,448.736 139.672,429.44 140.896,403.52 144.28,377.168 149.68,358.304 157.672,337.712 162.712,328.064 168.544,318.416 175.312,309.2 200.008,276.512 243.64,276.512 206.704,322.232 195.4,339.44 190.792,349.016 182.8,368.312 180.712,375.872 193.744,372.128 "
   id="polygon2635"
   style="clip-rule:evenodd;fill:#cfd4d8;fill-rule:evenodd" />
		<polygon
   points="186.184,466.808 178.624,457.952 175.312,450.464 175.312,430.304 177.76,422.312 182.368,415.256 189.496,409.856 197.488,407.336 208.36,406.472 218.008,409.856 226.864,416.984 229.744,422.312 232.696,430.304 232.696,446.216 231.04,454.208 226.864,460.904 220.96,466.808 213.832,470.552 203.392,473.072 197.488,471.776 "
   id="polygon2637"
   style="clip-rule:evenodd;fill:#ffffff;fill-rule:evenodd" />
		<polygon
   points="378.136,276.08 388.576,278.6 398.224,282.776 407.008,288.68 414.568,295.808 421.264,304.16 426.304,313.448 429.688,323.456 431.344,333.968 431.344,451.688 428.824,461.768 425.08,471.416 419.608,480.632 412.912,488.552 404.488,495.32 395.704,500.288 385.624,504.104 375.616,506.192 365.104,507.056 354.664,505.328 344.584,502.448 335.368,498.2 326.512,491.936 319.024,484.808 312.688,476.024 308.08,466.808 306.424,461.768 303.904,451.688 303.904,333.968 305.56,323.456 309.376,313.448 314.416,304.16 320.68,295.808 328.672,288.68 337.456,282.776 347.104,278.6 357.184,276.08 362.584,275.648 373.096,275.648 "
   id="polygon2639"
   style="clip-rule:evenodd;fill:#cfd4d8;fill-rule:evenodd" />
		<polygon
   points="383.176,314.24 391.096,321.368 394.912,327.632 397,334.4 397,336.92 397,448.304 395.272,453.776 391.96,460.04 387.352,465.512 384.832,467.6 378.496,470.984 372.664,473.072 364.312,472.64 357.544,470.984 351.28,467.6 345.808,462.992 341.632,456.728 339.544,450.032 338.68,446.648 338.68,338.144 339.112,334.4 340.768,327.632 343.288,322.232 346.672,318.848 352.504,314.24 356.752,311.288 362.584,310.064 365.968,309.632 376.84,310.928 "
   id="polygon2641"
   style="clip-rule:evenodd;fill:#ffffff;fill-rule:evenodd" />
	</g>
	<path
   stroke-miterlimit="10"
   d="M 280.072,145.688 C 415.864,147.416 513.928,233.312 532,370.832 541.648,496.544 464.464,600.944 346.24,632.768 172.792,671.792 35.272,543.488 38.152,387.608 c 7.992,-137.52 106.92,-235.152 241.92,-241.92 z"
   id="path2645"
   inkscape:connector-curvature="0"
   style="clip-rule:evenodd;fill:none;fill-rule:evenodd;stroke:#000000;stroke-width:2.33400011;stroke-miterlimit:10" />
	<polygon
   points="148.024,598.856 491.32,255.56 487.144,249.296 482.104,242.96 135.424,589.64 141.76,594.68 "
   id="polygon2647"
   style="clip-rule:evenodd;fill-rule:evenodd" />
	<polygon
   points="429.256,191.84 435.52,196.448 88.912,543.488 84.304,536.792 79.696,530.528 422.992,187.232 "
   id="polygon2649"
   style="clip-rule:evenodd;fill-rule:evenodd" />
	<polygon
   points="106.552,564.008 456.544,214.088 450.64,208.616 444.736,203.576 96.04,552.272 101.08,558.176 "
   id="polygon2651"
   style="clip-rule:evenodd;fill-rule:evenodd" />
	<polygon
   points="126.208,582.512 474.976,233.744 469.936,227.912 464.464,222.008 114.472,572 120.376,577.472 "
   id="polygon2653"
   style="clip-rule:evenodd;fill-rule:evenodd" />
</g>
</svg>