<?xml version="1.0" encoding="utf-8"?>
<!-- Generator: Adobe Illustrator 15.1.0, SVG Export Plug-In . SVG Version: 6.00 Build 0)  -->
<!DOCTYPE svg PUBLIC "-//W3C//DTD SVG 1.0//EN" "http://www.w3.org/TR/2001/REC-SVG-20010904/DTD/svg10.dtd">
<svg version="1.0" xmlns="http://www.w3.org/2000/svg" xmlns:xlink="http://www.w3.org/1999/xlink" x="0px" y="0px" width="595px"
	 height="842px" viewBox="0 0 595 842" enable-background="new 0 0 595 842" xml:space="preserve">
<g id="Kuvataso_1">
</g>
<g id="_x30_">
</g>
<g id="HATKELT">
</g>
<g id="HATPUN">
</g>
<g id="HATSIN">
	<g>
		<polygon fill-rule="evenodd" clip-rule="evenodd" fill="#FFD200" points="286.408,148.64 275.536,148.64 264.664,149.504 
			254.152,150.728 243.28,152.456 232.768,154.544 222.328,157.064 211.816,159.944 201.736,163.328 191.728,167.504 
			181.648,171.68 172,176.288 162.352,181.76 153.136,187.232 144.352,193.064 135.568,199.76 127.144,206.456 119.224,213.584 
			111.232,221.144 103.744,228.704 96.616,237.056 89.848,245.48 83.584,253.832 77.752,263.048 71.848,272.264 66.808,281.912 
			62.2,291.56 57.592,301.208 53.848,311.216 50.104,321.728 47.152,331.808 44.632,342.248 42.544,353.12 40.888,363.632 
			39.592,374.504 39.16,385.448 39.16,406.76 40.888,428.072 42.544,439.016 44.632,449.456 47.152,459.968 50.104,470.408 
			53.848,480.488 57.592,490.568 62.2,500.576 66.808,510.224 71.848,519.44 77.752,528.656 83.584,537.872 89.848,546.656 
			96.616,555.08 103.744,563 111.232,570.992 119.224,578.552 127.144,585.68 135.568,592.376 144.352,598.64 153.136,604.544 
			162.352,610.376 172,615.416 181.648,620.024 191.728,624.632 211.816,631.76 232.768,637.592 254.152,641.408 278.056,643.496 
			296.92,643.064 318.592,641.408 339.544,637.592 360.496,631.76 381.088,624.632 400.312,615.416 419.176,604.544 
			436.816,592.376 453.52,578.552 468.64,563 482.464,546.656 488.728,537.872 495.064,528.656 500.464,519.44 505.936,510.224 
			510.544,500.576 514.72,490.568 518.896,480.488 522.28,470.408 527.752,449.456 530.272,436.496 532.792,417.704 533.584,406.76 
			533.584,395.888 533.584,382.928 532.792,374.504 531.496,363.632 529.84,353.12 527.752,342.248 525.232,331.808 522.28,321.728 
			518.896,311.216 514.72,301.208 510.544,291.56 505.936,281.912 500.464,272.264 495.064,263.048 488.728,253.832 482.464,245.48 
			475.768,237.056 468.64,228.704 461.08,221.144 453.52,213.584 445.168,206.456 436.816,199.76 427.96,193.064 419.176,187.232 
			409.96,181.76 400.312,176.288 390.664,171.68 381.088,167.504 371.008,163.328 360.496,159.944 348.4,156.632 329.104,152.456 
			305.632,150.296 		"/>
		<polygon fill-rule="evenodd" clip-rule="evenodd" fill="#EF3E42" points="286.408,155.768 275.968,156.2 265.456,157.064 
			255.016,157.856 244.504,159.512 234.424,161.672 224.416,164.192 214.336,167.072 204.256,170.456 194.68,174.2 185.032,178.376 
			175.384,182.984 166.168,188.024 157.384,193.496 148.528,199.328 140.176,205.664 131.824,211.928 124.264,219.056 
			116.704,226.184 109.144,233.744 102.448,241.664 95.752,249.656 89.488,258.44 84.016,266.792 78.544,276.08 73.504,285.296 
			68.896,294.512 64.288,304.088 60.544,313.736 57.232,323.816 54.28,333.896 51.76,343.904 49.672,354.416 48.376,364.496 
			47.152,374.936 46.288,385.448 46.288,406.4 48.376,427.28 49.672,437.72 51.76,447.8 54.28,457.88 57.232,467.888 
			60.544,477.968 64.288,487.616 68.896,497.264 73.504,506.912 78.544,515.696 84.016,524.912 89.488,533.696 95.752,542.048 
			102.448,550.04 109.144,558.032 116.704,565.52 124.264,573.08 131.824,579.776 140.176,586.472 148.528,592.376 157.384,598.208 
			166.168,603.68 175.384,608.72 185.032,613.328 194.68,617.504 214.336,624.632 234.424,630.104 255.016,633.848 278.056,635.936 
			296.92,635.504 317.368,633.848 338.32,630.104 358.408,624.632 378.136,617.504 397,608.72 415,598.208 432.208,586.472 
			448.552,573.08 463.168,558.032 476.632,542.048 482.896,533.696 488.728,524.912 494.2,515.696 499.24,506.912 503.848,497.264 
			508.024,487.616 511.84,477.968 515.152,467.888 520.624,447.8 523.144,435.2 525.232,416.84 526.024,406.4 526.024,395.888 
			526.456,383.36 525.232,374.936 524.368,364.496 522.712,354.416 520.624,343.904 518.104,333.896 515.152,323.816 
			511.84,313.736 508.024,304.088 503.848,294.512 499.24,285.296 494.2,276.08 488.728,266.792 482.896,258.44 476.632,249.656 
			469.864,241.664 463.168,233.744 456.04,226.184 448.552,219.056 440.56,211.928 432.208,205.664 423.784,199.328 415,193.496 
			406.216,188.024 397,182.984 387.784,178.376 378.136,174.2 368.488,170.456 358.408,167.072 346.24,163.76 327.808,159.512 
			305.2,157.856 		"/>
		<polygon fill-rule="evenodd" clip-rule="evenodd" fill="#0079C1" points="164.44,248 171.568,242.528 179.128,237.056 
			187.12,232.448 195.04,227.84 203.464,223.664 211.816,219.92 220.6,216.536 229.456,213.584 238.24,211.064 247.456,208.976 
			256.24,207.752 265.456,206.456 274.672,206.096 293.104,206.096 302.248,206.456 311.464,207.752 320.68,209.408 
			329.968,211.496 338.752,213.584 347.536,216.536 355.888,219.92 364.744,223.664 372.664,227.84 381.088,232.448 
			388.576,237.488 396.136,242.528 403.696,248.36 283.888,367.808 		"/>
		<polygon fill-rule="evenodd" clip-rule="evenodd" fill="#0079C1" points="403.696,542.048 396.136,547.952 388.576,552.992 
			380.656,558.032 372.664,562.64 364.744,566.816 355.888,570.56 347.536,573.512 338.752,576.464 329.536,578.984 320.68,581.072 
			311.464,582.728 302.248,583.592 293.104,584.384 274.672,584.384 265.456,583.592 256.24,582.728 247.024,581.072 
			238.24,578.984 229.456,576.464 220.6,573.512 211.816,570.128 203.464,566.384 195.04,562.208 187.12,558.032 179.128,552.992 
			171.568,547.52 164.44,542.048 284.32,422.672 		"/>
		<polygon fill-rule="evenodd" clip-rule="evenodd" fill="#0079C1" points="136.792,514.832 131.392,507.272 125.92,499.784 
			121.312,491.792 116.704,483.8 112.528,475.88 108.712,467.096 105.4,458.672 102.448,449.888 99.928,440.672 97.84,431.888 
			96.616,422.672 95.32,413.528 94.888,404.312 94.888,385.808 95.32,376.592 96.616,367.376 98.272,358.16 100.36,349.376 
			102.448,340.592 105.4,331.808 108.712,322.952 112.528,314.6 116.704,306.248 121.312,298.256 126.352,290.264 131.392,282.776 
			137.224,275.648 256.672,395.456 		"/>
		<polygon fill-rule="evenodd" clip-rule="evenodd" fill="#0079C1" points="431.776,275.648 437.176,282.776 442.648,290.264 
			447.688,298.256 452.296,306.248 456.04,314.6 459.856,322.952 463.168,331.808 466.12,340.592 468.64,349.376 470.728,358.592 
			472.024,367.376 473.248,376.592 474.112,385.808 474.112,404.312 473.248,413.528 472.024,422.672 470.728,431.888 
			468.64,441.104 466.12,449.888 463.168,458.672 459.856,467.096 456.04,475.88 451.864,483.8 447.256,492.224 442.648,499.784 
			437.176,507.272 431.344,514.832 312.328,395.024 		"/>
	</g>
</g>
</svg>
