<?xml version="1.0" encoding="UTF-8" standalone="no"?>
<!-- Generator: Adobe Illustrator 15.1.0, SVG Export Plug-In . SVG Version: 6.00 Build 0)  -->

<svg
   xmlns:dc="http://purl.org/dc/elements/1.1/"
   xmlns:cc="http://creativecommons.org/ns#"
   xmlns:rdf="http://www.w3.org/1999/02/22-rdf-syntax-ns#"
   xmlns:svg="http://www.w3.org/2000/svg"
   xmlns="http://www.w3.org/2000/svg"
   xmlns:sodipodi="http://sodipodi.sourceforge.net/DTD/sodipodi-0.dtd"
   xmlns:inkscape="http://www.inkscape.org/namespaces/inkscape"
   version="1.0"
   id="Layer_1"
   x="0px"
   y="0px"
   width="512.59717"
   height="512.59717"
   viewBox="0 0 512.59717 512.59717"
   enable-background="new 0 0 595 842"
   xml:space="preserve"
   sodipodi:docname="374.svg"
   inkscape:version="0.92.5 (2060ec1f9f, 2020-04-08)"><metadata
   id="metadata2907"><rdf:RDF><cc:Work
       rdf:about=""><dc:format>image/svg+xml</dc:format><dc:type
         rdf:resource="http://purl.org/dc/dcmitype/StillImage" /></cc:Work></rdf:RDF></metadata><defs
   id="defs2905" /><sodipodi:namedview
   pagecolor="#ffffff"
   bordercolor="#666666"
   borderopacity="1"
   objecttolerance="10"
   gridtolerance="10"
   guidetolerance="10"
   inkscape:pageopacity="0"
   inkscape:pageshadow="2"
   inkscape:window-width="640"
   inkscape:window-height="480"
   id="namedview2903"
   showgrid="false"
   inkscape:zoom="0.28028504"
   inkscape:cx="260.8386"
   inkscape:cy="241.69859"
   inkscape:window-x="0"
   inkscape:window-y="0"
   inkscape:window-maximized="0"
   inkscape:current-layer="Layer_1" />
<g
   id="g2900"
   transform="translate(-36.661398,-150.1014)">
	
		<rect
   x="37.863998"
   y="151.304"
   stroke-miterlimit="10"
   width="510.19199"
   height="510.19199"
   id="rect2880"
   style="clip-rule:evenodd;fill:none;fill-rule:evenodd;stroke:#000000;stroke-width:2.4052;stroke-miterlimit:10" />
	<polygon
   points="39.592,168.152 40.888,164.696 41.752,162.536 43.912,159.944 46.072,157.352 48.664,155.192 51.688,153.896 54.28,153.032 57.736,152.168 61.624,151.304 523.864,152.168 529.048,152.168 532.504,153.032 535.528,154.328 538.552,156.488 541.144,158.648 543.304,161.24 545.464,164.264 546.76,167.288 547.624,170.744 548.056,174.2 548.056,639.464 547.192,644.216 545.464,648.104 543.304,651.56 541.144,654.152 538.12,656.744 535.096,658.472 531.64,660.2 528.184,661.064 524.296,661.496 64.216,661.496 58.6,661.064 53.416,659.336 50.392,657.608 47.368,655.448 44.776,652.856 42.616,650.264 40.888,646.808 39.16,643.352 38.296,639.896 37.864,636.44 37.864,175.496 38.296,171.608 "
   id="polygon2882"
   style="clip-rule:evenodd;fill-rule:evenodd" />
	<polygon
   points="52.12,171.608 52.984,169.448 54.712,167.72 56.44,166.424 58.6,165.128 60.76,164.696 63.352,164.264 523.864,164.264 526.456,164.696 528.616,165.128 530.344,166.424 532.072,167.72 533.368,169.448 534.664,171.608 535.096,173.768 535.528,175.928 535.096,638.6 534.232,641.624 532.936,643.784 531.208,645.944 529.048,647.24 526.456,648.536 524.728,648.968 63.784,648.968 61.192,648.536 58.6,648.104 56.44,646.808 54.712,645.08 52.984,642.92 51.688,640.76 51.256,638.6 50.824,636.008 50.824,175.928 51.256,173.768 "
   id="polygon2884"
   style="clip-rule:evenodd;fill:#ffffff;fill-rule:evenodd" />
	<path
   d="m 292.312,243.32 c 105.408,3.024 172.8,83.376 172.8,172.8 0.864,91.152 -73.44,171.936 -172.8,172.8 -98.928,0.432 -174.096,-84.24 -172.8,-172.8 0.432,-90.72 70.848,-171.072 172.8,-172.8 z"
   id="path2886"
   inkscape:connector-curvature="0"
   style="clip-rule:evenodd;fill:#cfd4d8;fill-rule:evenodd" />
	<path
   d="M 204.616,308.552 399.88,503.816 c 50.112,-62.208 37.584,-149.04 -21.6,-196.992 -53.136,-39.312 -116.64,-39.744 -173.664,1.728 z"
   id="path2888"
   inkscape:connector-curvature="0"
   style="clip-rule:evenodd;fill:#ffffff;fill-rule:evenodd" />
	<path
   d="m 184.744,328.424 c -46.656,61.776 -40.176,136.08 13.392,189.648 54.864,46.656 124.848,48.816 181.872,5.616 z"
   id="path2890"
   inkscape:connector-curvature="0"
   style="clip-rule:evenodd;fill:#ffffff;fill-rule:evenodd" />
	<polygon
   points="485.416,162.968 462.088,162.104 50.824,574.664 50.824,598.424 "
   id="polygon2892"
   style="clip-rule:evenodd;fill-rule:evenodd" />
	<polygon
   points="527.32,162.968 49.96,641.624 48.232,618.728 503.128,163.4 "
   id="polygon2894"
   style="clip-rule:evenodd;fill-rule:evenodd" />
	<polygon
   points="535.528,197.096 535.096,173.336 60.328,648.968 84.088,649.4 "
   id="polygon2896"
   style="clip-rule:evenodd;fill-rule:evenodd" />
	<polygon
   points="535.528,239 535.528,215.24 101.8,649.4 125.992,649.4 "
   id="polygon2898"
   style="clip-rule:evenodd;fill-rule:evenodd" />
</g>
</svg>