<?xml version="1.0" encoding="UTF-8" standalone="no"?>
<!-- Generator: Adobe Illustrator 15.1.0, SVG Export Plug-In . SVG Version: 6.00 Build 0)  -->

<svg
   xmlns:dc="http://purl.org/dc/elements/1.1/"
   xmlns:cc="http://creativecommons.org/ns#"
   xmlns:rdf="http://www.w3.org/1999/02/22-rdf-syntax-ns#"
   xmlns:svg="http://www.w3.org/2000/svg"
   xmlns="http://www.w3.org/2000/svg"
   xmlns:sodipodi="http://sodipodi.sourceforge.net/DTD/sodipodi-0.dtd"
   xmlns:inkscape="http://www.inkscape.org/namespaces/inkscape"
   version="1.0"
   x="0px"
   y="0px"
   width="510.19199"
   height="679.96802"
   viewBox="0 0 510.19199 679.96802"
   enable-background="new 0 0 595 842"
   xml:space="preserve"
   id="svg2976"
   sodipodi:docname="376.svg"
   inkscape:version="0.92.5 (2060ec1f9f, 2020-04-08)"><metadata
   id="metadata2982"><rdf:RDF><cc:Work
       rdf:about=""><dc:format>image/svg+xml</dc:format><dc:type
         rdf:resource="http://purl.org/dc/dcmitype/StillImage" /></cc:Work></rdf:RDF></metadata><defs
   id="defs2980" /><sodipodi:namedview
   pagecolor="#ffffff"
   bordercolor="#666666"
   borderopacity="1"
   objecttolerance="10"
   gridtolerance="10"
   guidetolerance="10"
   inkscape:pageopacity="0"
   inkscape:pageshadow="2"
   inkscape:window-width="640"
   inkscape:window-height="480"
   id="namedview2978"
   showgrid="false"
   inkscape:zoom="0.28028504"
   inkscape:cx="259.78"
   inkscape:cy="405.95201"
   inkscape:window-x="0"
   inkscape:window-y="0"
   inkscape:window-maximized="0"
   inkscape:current-layer="svg2976" />
<g
   id="Kuvataso_1"
   transform="translate(-37.72,-146.98399)">
</g>
<g
   id="_x30_"
   transform="translate(-37.72,-146.98399)">
</g>
<g
   id="HATPUN"
   transform="translate(-37.72,-146.98399)">
</g>
<g
   id="HAT"
   transform="translate(-37.72,-146.98399)">
</g>
<g
   id="HATKELT"
   transform="translate(-37.72,-146.98399)">
</g>
<g
   id="HATSIN"
   transform="translate(-37.72,-146.98399)">
	<g
   id="g2973">
		<rect
   x="37.720001"
   y="146.98399"
   width="510.19199"
   height="679.96802"
   id="rect2947"
   style="clip-rule:evenodd;fill:#ffd200;fill-rule:evenodd" />
		<polygon
   points="39.448,163.4 41.176,160.376 42.904,157.352 45.928,152.6 48.952,150.872 51.544,149.144 54.568,148.28 58.024,147.416 61.912,146.984 525.88,146.984 532.36,147.848 534.952,148.712 537.976,150.44 540.136,152.168 542.728,154.328 544.456,156.92 545.752,159.512 547.912,164.264 547.48,807.944 545.752,814.424 542.728,819.608 539.272,821.768 536.68,823.928 533.656,825.224 530.632,826.52 527.176,826.952 60.616,826.952 57.16,826.52 52.408,824.792 48.52,822.632 45.064,820.04 42.04,816.152 39.88,811.832 38.152,808.376 37.72,804.92 37.72,172.472 38.152,167.288 "
   id="polygon2949"
   style="clip-rule:evenodd;fill:#ef3e42;fill-rule:evenodd" />
		<polygon
   points="52.84,165.56 54.136,163.4 56.296,162.104 59.32,160.808 61.912,160.376 525.88,160.376 528.04,160.808 529.336,161.24 531.064,162.536 532.792,164.264 533.656,166.424 534.52,168.584 534.52,798.44 534.52,804.488 534.088,806.648 533.224,808.808 532.36,810.536 530.632,811.832 528.472,812.696 527.176,813.128 62.776,813.56 60.616,813.128 58.456,812.696 56.296,811.4 54.136,809.24 53.272,807.944 51.976,806.216 51.544,804.056 51.544,170.744 51.544,168.584 "
   id="polygon2951"
   style="clip-rule:evenodd;fill:#ffd200;fill-rule:evenodd" />
		<polygon
   points="196.696,229.496 222.184,229.496 222.184,215.24 155.656,215.24 155.656,229.496 182.008,229.496 182.008,317.192 196.696,317.192 "
   id="polygon2953"
   style="clip-rule:evenodd;fill-rule:evenodd" />
		<polygon
   points="250.264,299.912 280.504,299.912 285.688,317.192 301.24,317.192 271.864,215.24 257.176,215.24 229.96,317.192 245.512,317.192 "
   id="polygon2955"
   style="clip-rule:evenodd;fill-rule:evenodd" />
		<polygon
   points="264.952,244.616 254.152,285.224 276.616,285.224 "
   id="polygon2957"
   style="clip-rule:evenodd;fill:#ffd200;fill-rule:evenodd" />
		<polygon
   points="347.464,282.632 363.448,317.192 380.728,317.192 356.104,263.624 378.136,215.24 360.856,215.24 347.464,244.616 334.504,215.24 316.792,215.24 338.824,263.624 314.2,317.192 331.912,317.192 "
   id="polygon2959"
   style="clip-rule:evenodd;fill-rule:evenodd" />
		<rect
   x="405.784"
   y="215.24001"
   width="14.688"
   height="101.952"
   id="rect2961"
   style="clip-rule:evenodd;fill-rule:evenodd" />
		<path
   d="m 292.6,411.368 c 93.744,1.728 161.136,71.712 161.568,161.136 0.864,92.88 -75.6,162 -161.568,161.568 C 202.312,733.208 132.76,663.224 131.464,572.504 131.896,484.808 199.72,413.096 292.6,411.368 Z"
   id="path2963"
   inkscape:connector-curvature="0"
   style="clip-rule:evenodd;fill:#ef3e42;fill-rule:evenodd" />
		<path
   d="M 292.6,554.792 210.52,472.28 c 51.84,-39.744 112.32,-39.312 164.592,0 z"
   id="path2965"
   inkscape:connector-curvature="0"
   style="clip-rule:evenodd;fill:#0079c1;fill-rule:evenodd" />
		<path
   d="m 292.6,592.376 82.08,82.08 c -51.84,39.744 -111.888,39.312 -164.16,0 z"
   id="path2967"
   inkscape:connector-curvature="0"
   style="clip-rule:evenodd;fill:#0079c1;fill-rule:evenodd" />
		<path
   d="m 274.456,573.368 -82.512,82.08 c -39.744,-51.84 -39.312,-112.32 0,-164.16 z"
   id="path2969"
   inkscape:connector-curvature="0"
   style="clip-rule:evenodd;fill:#0079c1;fill-rule:evenodd" />
		<path
   d="m 311.608,573.8 82.08,-82.512 c 39.744,51.84 39.744,112.32 0,164.592 z"
   id="path2971"
   inkscape:connector-curvature="0"
   style="clip-rule:evenodd;fill:#0079c1;fill-rule:evenodd" />
	</g>
</g>
</svg>