<?xml version="1.0" encoding="utf-8"?>
<!-- Generator: Adobe Illustrator 15.1.0, SVG Export Plug-In . SVG Version: 6.00 Build 0)  -->
<!DOCTYPE svg PUBLIC "-//W3C//DTD SVG 1.0//EN" "http://www.w3.org/TR/2001/REC-SVG-20010904/DTD/svg10.dtd">
<svg version="1.0" xmlns="http://www.w3.org/2000/svg" xmlns:xlink="http://www.w3.org/1999/xlink" x="0px" y="0px" width="595px"
	 height="842px" viewBox="0 0 595 842" enable-background="new 0 0 595 842" xml:space="preserve">
<g id="Kuvataso_1">
</g>
<g id="_x30_">
</g>
<g id="HATPUN">
</g>
<g id="HAT">
</g>
<g id="HATKELT">
</g>
<g id="HATSIN">
	<g>
		<rect x="37.72" y="146.984" fill-rule="evenodd" clip-rule="evenodd" fill="#FFD200" width="510.192" height="679.968"/>
		<polygon fill-rule="evenodd" clip-rule="evenodd" fill="#EF3E42" points="37.72,172.472 38.152,167.288 39.448,163.4 
			41.176,160.376 42.904,157.352 45.928,152.6 48.952,150.872 51.544,149.144 54.568,148.28 58.024,147.416 61.912,146.984 
			525.88,146.984 532.36,147.848 534.952,148.712 537.976,150.44 540.136,152.168 542.728,154.328 544.456,156.92 545.752,159.512 
			547.912,164.264 547.48,807.944 545.752,814.424 542.728,819.608 539.272,821.768 536.68,823.928 533.656,825.224 530.632,826.52 
			527.176,826.952 60.616,826.952 57.16,826.52 52.408,824.792 48.52,822.632 45.064,820.04 42.04,816.152 39.88,811.832 
			38.152,808.376 37.72,804.92 		"/>
		<polygon fill-rule="evenodd" clip-rule="evenodd" fill="#FFD200" points="51.544,170.744 51.544,168.584 52.84,165.56 
			54.136,163.4 56.296,162.104 59.32,160.808 61.912,160.376 525.88,160.376 528.04,160.808 529.336,161.24 531.064,162.536 
			532.792,164.264 533.656,166.424 534.52,168.584 534.52,798.44 534.52,804.488 534.088,806.648 533.224,808.808 532.36,810.536 
			530.632,811.832 528.472,812.696 527.176,813.128 62.776,813.56 60.616,813.128 58.456,812.696 56.296,811.4 54.136,809.24 
			53.272,807.944 51.976,806.216 51.544,804.056 		"/>
		<polygon fill-rule="evenodd" clip-rule="evenodd" points="182.008,317.192 196.696,317.192 196.696,229.496 222.184,229.496 
			222.184,215.24 155.656,215.24 155.656,229.496 182.008,229.496 		"/>
		<polygon fill-rule="evenodd" clip-rule="evenodd" points="229.96,317.192 245.512,317.192 250.264,299.912 280.504,299.912 
			285.688,317.192 301.24,317.192 271.864,215.24 257.176,215.24 		"/>
		<polygon fill-rule="evenodd" clip-rule="evenodd" fill="#FFD200" points="254.152,285.224 276.616,285.224 264.952,244.616 		"/>
		<polygon fill-rule="evenodd" clip-rule="evenodd" points="314.2,317.192 331.912,317.192 347.464,282.632 363.448,317.192 
			380.728,317.192 356.104,263.624 378.136,215.24 360.856,215.24 347.464,244.616 334.504,215.24 316.792,215.24 338.824,263.624 
					"/>
		<rect x="405.784" y="215.24" fill-rule="evenodd" clip-rule="evenodd" width="14.688" height="101.952"/>
		<path fill-rule="evenodd" clip-rule="evenodd" fill="#EF3E42" d="M292.6,411.368c93.744,1.728,161.136,71.712,161.568,161.136
			c0.864,92.88-75.6,162-161.568,161.568c-90.288-0.864-159.84-70.848-161.136-161.568
			C131.896,484.808,199.72,413.096,292.6,411.368z"/>
		<path fill-rule="evenodd" clip-rule="evenodd" fill="#0079C1" d="M292.6,554.792l-82.08-82.512
			c51.84-39.744,112.32-39.312,164.592,0L292.6,554.792z"/>
		<path fill-rule="evenodd" clip-rule="evenodd" fill="#0079C1" d="M292.6,592.376l82.08,82.08
			c-51.84,39.744-111.888,39.312-164.16,0L292.6,592.376z"/>
		<path fill-rule="evenodd" clip-rule="evenodd" fill="#0079C1" d="M274.456,573.368l-82.512,82.08
			c-39.744-51.84-39.312-112.32,0-164.16L274.456,573.368z"/>
		<path fill-rule="evenodd" clip-rule="evenodd" fill="#0079C1" d="M311.608,573.8l82.08-82.512
			c39.744,51.84,39.744,112.32,0,164.592L311.608,573.8z"/>
	</g>
</g>
</svg>
