<?xml version="1.0" encoding="UTF-8" standalone="no"?>
<!-- Generator: Adobe Illustrator 15.1.0, SVG Export Plug-In . SVG Version: 6.00 Build 0)  -->

<svg
   xmlns:dc="http://purl.org/dc/elements/1.1/"
   xmlns:cc="http://creativecommons.org/ns#"
   xmlns:rdf="http://www.w3.org/1999/02/22-rdf-syntax-ns#"
   xmlns:svg="http://www.w3.org/2000/svg"
   xmlns="http://www.w3.org/2000/svg"
   xmlns:sodipodi="http://sodipodi.sourceforge.net/DTD/sodipodi-0.dtd"
   xmlns:inkscape="http://www.inkscape.org/namespaces/inkscape"
   version="1.0"
   x="0px"
   y="0px"
   width="494.496"
   height="495"
   viewBox="0 0 494.496 495"
   enable-background="new 0 0 595 842"
   xml:space="preserve"
   id="svg3005"
   sodipodi:docname="381.svg"
   inkscape:version="0.92.5 (2060ec1f9f, 2020-04-08)"><metadata
   id="metadata3011"><rdf:RDF><cc:Work
       rdf:about=""><dc:format>image/svg+xml</dc:format><dc:type
         rdf:resource="http://purl.org/dc/dcmitype/StillImage" /></cc:Work></rdf:RDF></metadata><defs
   id="defs3009" /><sodipodi:namedview
   pagecolor="#ffffff"
   bordercolor="#666666"
   borderopacity="1"
   objecttolerance="10"
   gridtolerance="10"
   guidetolerance="10"
   inkscape:pageopacity="0"
   inkscape:pageshadow="2"
   inkscape:window-width="640"
   inkscape:window-height="480"
   id="namedview3007"
   showgrid="false"
   inkscape:zoom="0.28028504"
   inkscape:cx="256.324"
   inkscape:cy="221.848"
   inkscape:window-x="0"
   inkscape:window-y="0"
   inkscape:window-maximized="0"
   inkscape:current-layer="svg3005" />
<g
   id="Kuvataso_1"
   transform="translate(-41.176,-147.848)">
</g>
<g
   id="_x30_"
   transform="translate(-41.176,-147.848)">
</g>
<g
   id="KUVA"
   transform="translate(-41.176,-147.848)">
</g>
<g
   id="HATSIN"
   transform="translate(-41.176,-147.848)">
</g>
<g
   id="HATPUN"
   transform="translate(-41.176,-147.848)">
</g>
<g
   id="HATKEL"
   transform="translate(-41.176,-147.848)">
</g>
<g
   id="HAT"
   transform="translate(-41.176,-147.848)">
	<g
   id="g3002">
		<polygon
   points="266.68,148.712 256.168,149.936 245.296,151.664 234.784,153.752 224.344,156.272 213.832,159.152 203.752,162.536 193.744,166.28 183.664,170.888 174.016,175.496 164.368,180.968 155.152,186.44 146.368,192.272 137.584,198.968 129.16,205.736 121.24,212.864 113.248,219.992 105.688,227.912 98.56,236.336 91.864,244.688 85.6,253.04 79.696,262.328 73.864,271.544 68.824,281.192 64.216,290.768 59.608,300.416 55.792,310.496 52.048,321.008 49.096,331.016 46.576,341.528 44.488,352.4 42.832,362.912 41.536,373.784 41.176,384.296 41.176,406.04 42.832,427.352 44.488,438.296 46.576,448.736 49.096,459.248 52.048,469.688 55.792,479.768 59.608,489.848 64.216,499.928 68.824,509.504 73.864,518.792 79.696,528.008 85.6,537.224 91.864,545.576 98.56,554.36 105.688,562.352 113.248,570.344 121.24,577.472 129.16,584.6 137.584,591.296 146.368,597.992 155.152,603.824 164.368,609.296 174.016,614.768 183.664,619.376 193.744,623.984 213.832,631.112 234.784,636.944 256.168,640.76 280.072,642.848 298.864,642.416 320.68,640.76 341.632,636.944 362.584,631.112 383.104,623.984 402.4,614.768 421.264,603.824 438.904,591.296 455.608,577.472 470.728,562.352 484.552,545.576 490.888,537.224 497.152,528.008 502.624,518.792 508.024,509.504 512.632,499.928 516.808,489.848 521.056,479.768 524.368,469.688 529.84,448.736 532.36,435.776 534.88,416.552 535.672,406.04 535.672,395.168 535.672,382.208 534.88,373.784 533.584,362.912 531.928,352.4 529.84,341.528 527.32,331.016 524.368,321.008 521.056,310.496 516.808,300.416 512.632,290.768 508.024,281.192 502.624,271.544 497.152,262.328 490.888,253.04 484.552,244.688 477.856,236.336 470.728,227.912 463.168,219.992 455.608,212.864 447.256,205.736 438.904,198.968 430.048,192.272 421.264,186.44 412.048,180.968 402.4,175.496 392.752,170.888 383.104,166.28 373.096,162.536 362.584,159.152 350.416,155.84 331.12,151.664 307.648,149.504 288.424,147.848 277.552,147.848 "
   id="polygon2990"
   style="clip-rule:evenodd;fill:#ffd200;fill-rule:evenodd" />
		<polygon
   points="267.472,155.84 257.032,157.064 246.52,158.72 236.512,160.88 226.432,163.4 216.352,166.28 206.272,169.664 196.624,173.408 187.048,177.584 177.4,182.264 168.184,187.232 159.328,192.704 150.544,198.608 142.192,204.872 133.768,211.136 126.208,218.264 118.72,225.392 111.16,232.952 104.464,240.944 97.768,248.864 91.432,257.648 85.96,266.072 80.56,275.288 75.52,284.504 70.912,293.72 66.304,303.368 62.488,313.016 59.176,323.096 56.224,333.104 53.704,343.184 51.616,353.696 50.392,363.704 49.096,374.216 48.304,384.728 48.304,405.68 50.392,426.56 51.616,437 53.704,447.08 56.224,457.16 59.176,467.168 62.488,477.248 66.304,486.896 70.912,496.544 75.52,505.76 80.56,514.976 85.96,524.192 91.432,533.048 97.768,541.4 104.464,549.392 111.16,557.312 118.72,564.872 126.208,572 133.768,579.128 142.192,585.392 150.544,591.728 159.328,597.56 168.184,603.032 177.4,608.072 187.048,612.68 196.624,616.856 216.352,623.984 236.512,629.456 257.032,633.2 280.072,635.288 298.864,634.856 319.384,633.2 340.336,629.456 360.496,623.984 380.224,616.856 399.088,608.072 417.088,597.56 434.296,585.392 450.64,572 465.256,557.312 478.72,541.4 484.984,533.048 490.888,524.192 496.288,514.976 501.328,505.76 505.936,496.544 510.112,486.896 513.928,477.248 517.24,467.168 522.712,447.08 525.232,434.48 527.32,416.12 528.184,405.68 528.184,395.168 528.544,382.568 527.32,374.216 526.456,363.704 524.8,353.696 522.712,343.184 520.192,333.104 517.24,323.096 513.928,313.016 510.112,303.368 505.936,293.72 501.328,284.504 496.288,275.288 490.888,266.072 484.984,257.648 478.72,248.864 472.024,240.944 465.256,232.952 458.128,225.392 450.64,218.264 442.648,211.136 434.296,204.872 425.872,198.608 417.088,192.704 408.304,187.232 399.088,182.264 389.8,177.584 380.224,173.408 370.576,169.664 360.496,166.28 348.328,162.968 329.896,158.72 307.216,156.632 288.424,154.976 277.984,155.408 "
   id="polygon2992"
   style="clip-rule:evenodd;fill:#ef3e42;fill-rule:evenodd" />
		<path
   d="M 407.44,542.264 C 331.552,600.512 246.088,600.512 167.752,541.832 87.256,476.456 76.384,354.92 141.328,275.72 Z"
   id="path2994"
   inkscape:connector-curvature="0"
   style="clip-rule:evenodd;fill:#0079c1;fill-rule:evenodd" />
		<path
   d="m 168.976,248.432 c 75.888,-58.248 161.352,-58.248 239.688,0.864 80.496,65.376 91.44,186.912 26.424,266.112 z"
   id="path2996"
   inkscape:connector-curvature="0"
   style="clip-rule:evenodd;fill:#0079c1;fill-rule:evenodd" />
		<polygon
   points="265.384,236.696 265.384,345.272 311.896,391.856 311.896,236.696 "
   id="polygon2998"
   style="clip-rule:evenodd;fill:#ffffff;fill-rule:evenodd" />
		<polygon
   points="311.896,554 265.384,554 265.384,399.776 311.896,445.856 "
   id="polygon3000"
   style="clip-rule:evenodd;fill:#ffffff;fill-rule:evenodd" />
	</g>
</g>
</svg>