<?xml version="1.0" encoding="iso-8859-1"?>
<!-- Generator: Adobe Illustrator 15.1.0, SVG Export Plug-In . SVG Version: 6.00 Build 0)  -->
<!DOCTYPE svg PUBLIC "-//W3C//DTD SVG 1.1//EN" "http://www.w3.org/Graphics/SVG/1.1/DTD/svg11.dtd">
<svg version="1.1" id="Layer_1" xmlns="http://www.w3.org/2000/svg" xmlns:xlink="http://www.w3.org/1999/xlink" x="0px" y="0px"
	 width="595.28px" height="841.89px" viewBox="0 0 595.28 841.89" style="enable-background:new 0 0 595.28 841.89;"
	 xml:space="preserve">
<g id="CIRCLE_96_">
	<path style="fill:#FFD200;" d="M545.672,420.973c0-137.034-111.055-248.069-248.069-248.069
		c-136.959,0-247.994,111.035-247.994,248.069c0,136.959,111.035,248.014,247.994,248.014
		C434.617,668.986,545.672,557.932,545.672,420.973L545.672,420.973z"/>
</g>
<g id="CIRCLE_97_">
	<path style="fill:#EF3E42;" d="M537.859,420.973c0-132.768-107.527-240.274-240.257-240.274
		c-132.673,0-240.275,107.507-240.275,240.274c0,132.636,107.603,240.275,240.275,240.275
		C430.332,661.248,537.859,553.608,537.859,420.973L537.859,420.973z"/>
</g>
<g id="CIRCLE_98_">
	<path style="fill:#FFD200;" d="M487.49,420.973c0-104.928-84.959-189.925-189.888-189.925
		c-104.853,0-189.945,84.997-189.945,189.925c0,104.872,85.092,189.907,189.945,189.907
		C402.531,610.88,487.49,525.845,487.49,420.973L487.49,420.973z"/>
</g>
<g id="LWPOLYLINE_165_">
	<rect x="403.518" y="297.934" width="11.605" height="77.487"/>
</g>
<g id="LWPOLYLINE_166_">
	<polygon points="357.035,375.421 357.035,297.934 368.699,297.934 368.699,363.815 395.779,363.815 395.779,375.421 	"/>
</g>
<g id="LWPOLYLINE_167_">
	<polygon points="310.518,375.421 310.518,297.934 322.123,297.934 322.123,363.815 349.26,363.815 349.26,375.421 	"/>
</g>
<g id="LWPOLYLINE_168_">
	<path d="M242.72,350.256c0,13.938,11.227,25.165,25.146,25.165c13.9,0,25.203-11.227,25.203-25.165v-52.322h-11.606v52.322
		c0,7.491-6.106,13.56-13.597,13.56c-7.472,0-13.541-6.068-13.541-13.56v-52.322H242.72V350.256z"/>
</g>
<g id="LWPOLYLINE_169_">
	<polygon points="184.557,297.934 234.945,297.934 234.945,309.54 215.583,309.54 215.583,375.421 203.977,375.421 203.977,309.54 
		184.557,309.54 	"/>
</g>
<g id="LWPOLYLINE_170_">
	<polygon points="192.257,476.234 242.72,476.234 242.72,487.841 223.301,487.841 223.301,553.684 211.695,553.684 211.695,487.841 
		192.257,487.841 	"/>
</g>
<g id="LWPOLYLINE_171_">
	<path d="M302.57,528.575v-27.118c0-13.92-11.34-25.223-25.222-25.223c-13.919,0-25.146,11.303-25.146,25.223v27.118
		c0,13.882,11.227,25.108,25.146,25.108C291.23,553.684,302.57,542.457,302.57,528.575z"/>
</g>
<g id="LWPOLYLINE_172_">
	<polygon points="318.293,553.684 318.293,476.234 329.936,476.234 329.936,542.078 357.035,542.078 357.035,553.684 	"/>
</g>
<g id="LWPOLYLINE_173_">
	<polygon points="364.754,553.684 364.754,476.234 376.398,476.234 376.398,542.078 403.518,542.078 403.518,553.684 	"/>
</g>
<g id="LWPOLYLINE_174_">
	<path style="fill:#FFD200;" d="M290.927,528.575v-27.118c0-7.472-6.088-13.616-13.579-13.616s-13.541,6.145-13.541,13.616v27.118
		c0,7.51,6.05,13.503,13.541,13.503S290.927,536.085,290.927,528.575z"/>
</g>
<g id="LWPOLYLINE_175_">
	<path d="M405.869,448.092c14.715-1.669,25.336-14.868,23.666-29.622c-1.402-12.384-11.15-22.283-23.666-23.629H193.262
		c-14.659,1.346-25.525,14.337-24.122,29.015c1.119,12.858,11.302,23.022,24.122,24.236H405.869z"/>
</g>
</svg>
