<?xml version="1.0" encoding="UTF-8" standalone="no"?>
<!-- Generator: Adobe Illustrator 15.1.0, SVG Export Plug-In . SVG Version: 6.00 Build 0)  -->

<svg
   xmlns:dc="http://purl.org/dc/elements/1.1/"
   xmlns:cc="http://creativecommons.org/ns#"
   xmlns:rdf="http://www.w3.org/1999/02/22-rdf-syntax-ns#"
   xmlns:svg="http://www.w3.org/2000/svg"
   xmlns="http://www.w3.org/2000/svg"
   xmlns:sodipodi="http://sodipodi.sourceforge.net/DTD/sodipodi-0.dtd"
   xmlns:inkscape="http://www.inkscape.org/namespaces/inkscape"
   version="1.1"
   id="Layer_1"
   x="0px"
   y="0px"
   width="496.06299"
   height="496.08301"
   viewBox="0 0 496.06296 496.083"
   xml:space="preserve"
   sodipodi:docname="391-2.svg"
   inkscape:version="0.92.5 (2060ec1f9f, 2020-04-08)"><metadata
   id="metadata3091"><rdf:RDF><cc:Work
       rdf:about=""><dc:format>image/svg+xml</dc:format><dc:type
         rdf:resource="http://purl.org/dc/dcmitype/StillImage" /></cc:Work></rdf:RDF></metadata><defs
   id="defs3089" /><sodipodi:namedview
   pagecolor="#ffffff"
   bordercolor="#666666"
   borderopacity="1"
   objecttolerance="10"
   gridtolerance="10"
   guidetolerance="10"
   inkscape:pageopacity="0"
   inkscape:pageshadow="2"
   inkscape:window-width="640"
   inkscape:window-height="480"
   id="namedview3087"
   showgrid="false"
   inkscape:zoom="0.28032165"
   inkscape:cx="248.03101"
   inkscape:cy="248.04199"
   inkscape:window-x="0"
   inkscape:window-y="0"
   inkscape:window-maximized="0"
   inkscape:current-layer="Layer_1" />
<g
   id="CIRCLE_96_"
   transform="translate(-49.609,-172.904)">
	<path
   style="fill:#ffd200"
   d="m 545.672,420.973 c 0,-137.034 -111.055,-248.069 -248.069,-248.069 -136.959,0 -247.994,111.035 -247.994,248.069 0,136.959 111.035,248.014 247.994,248.014 137.014,-10e-4 248.069,-111.055 248.069,-248.014 z"
   id="path3044"
   inkscape:connector-curvature="0" />
</g>
<g
   id="CIRCLE_97_"
   transform="translate(-49.609,-172.904)">
	<path
   style="fill:#ef3e42"
   d="m 537.859,420.973 c 0,-132.768 -107.527,-240.274 -240.257,-240.274 -132.673,0 -240.275,107.507 -240.275,240.274 0,132.636 107.603,240.275 240.275,240.275 132.73,0 240.257,-107.64 240.257,-240.275 z"
   id="path3047"
   inkscape:connector-curvature="0" />
</g>
<g
   id="CIRCLE_98_"
   transform="translate(-49.609,-172.904)">
	<path
   style="fill:#ffd200"
   d="m 487.49,420.973 c 0,-104.928 -84.959,-189.925 -189.888,-189.925 -104.853,0 -189.945,84.997 -189.945,189.925 0,104.872 85.092,189.907 189.945,189.907 104.929,0 189.888,-85.035 189.888,-189.907 z"
   id="path3050"
   inkscape:connector-curvature="0" />
</g>
<g
   id="LWPOLYLINE_165_"
   transform="translate(-49.609,-172.904)">
	<rect
   x="403.51801"
   y="297.93399"
   width="11.605"
   height="77.487"
   id="rect3053" />
</g>
<g
   id="LWPOLYLINE_166_"
   transform="translate(-49.609,-172.904)">
	<polygon
   points="368.699,297.934 368.699,363.815 395.779,363.815 395.779,375.421 357.035,375.421 357.035,297.934 "
   id="polygon3056" />
</g>
<g
   id="LWPOLYLINE_167_"
   transform="translate(-49.609,-172.904)">
	<polygon
   points="322.123,297.934 322.123,363.815 349.26,363.815 349.26,375.421 310.518,375.421 310.518,297.934 "
   id="polygon3059" />
</g>
<g
   id="LWPOLYLINE_168_"
   transform="translate(-49.609,-172.904)">
	<path
   d="m 242.72,350.256 c 0,13.938 11.227,25.165 25.146,25.165 13.9,0 25.203,-11.227 25.203,-25.165 v -52.322 h -11.606 v 52.322 c 0,7.491 -6.106,13.56 -13.597,13.56 -7.472,0 -13.541,-6.068 -13.541,-13.56 V 297.934 H 242.72 Z"
   id="path3062"
   inkscape:connector-curvature="0" />
</g>
<g
   id="LWPOLYLINE_169_"
   transform="translate(-49.609,-172.904)">
	<polygon
   points="234.945,309.54 215.583,309.54 215.583,375.421 203.977,375.421 203.977,309.54 184.557,309.54 184.557,297.934 234.945,297.934 "
   id="polygon3065" />
</g>
<g
   id="LWPOLYLINE_170_"
   transform="translate(-49.609,-172.904)">
	<polygon
   points="242.72,487.841 223.301,487.841 223.301,553.684 211.695,553.684 211.695,487.841 192.257,487.841 192.257,476.234 242.72,476.234 "
   id="polygon3068" />
</g>
<g
   id="LWPOLYLINE_171_"
   transform="translate(-49.609,-172.904)">
	<path
   d="m 302.57,528.575 v -27.118 c 0,-13.92 -11.34,-25.223 -25.222,-25.223 -13.919,0 -25.146,11.303 -25.146,25.223 v 27.118 c 0,13.882 11.227,25.108 25.146,25.108 13.882,10e-4 25.222,-11.226 25.222,-25.108 z"
   id="path3071"
   inkscape:connector-curvature="0" />
</g>
<g
   id="LWPOLYLINE_172_"
   transform="translate(-49.609,-172.904)">
	<polygon
   points="329.936,476.234 329.936,542.078 357.035,542.078 357.035,553.684 318.293,553.684 318.293,476.234 "
   id="polygon3074" />
</g>
<g
   id="LWPOLYLINE_173_"
   transform="translate(-49.609,-172.904)">
	<polygon
   points="376.398,476.234 376.398,542.078 403.518,542.078 403.518,553.684 364.754,553.684 364.754,476.234 "
   id="polygon3077" />
</g>
<g
   id="LWPOLYLINE_174_"
   transform="translate(-49.609,-172.904)">
	<path
   style="fill:#ffd200"
   d="m 290.927,528.575 v -27.118 c 0,-7.472 -6.088,-13.616 -13.579,-13.616 -7.491,0 -13.541,6.145 -13.541,13.616 v 27.118 c 0,7.51 6.05,13.503 13.541,13.503 7.491,0 13.579,-5.993 13.579,-13.503 z"
   id="path3080"
   inkscape:connector-curvature="0" />
</g>
<g
   id="LWPOLYLINE_175_"
   transform="translate(-49.609,-172.904)">
	<path
   d="m 405.869,448.092 c 14.715,-1.669 25.336,-14.868 23.666,-29.622 -1.402,-12.384 -11.15,-22.283 -23.666,-23.629 H 193.262 c -14.659,1.346 -25.525,14.337 -24.122,29.015 1.119,12.858 11.302,23.022 24.122,24.236 z"
   id="path3083"
   inkscape:connector-curvature="0" />
</g>
</svg>