<?xml version="1.0" encoding="iso-8859-1"?>
<!-- Generator: Adobe Illustrator 15.1.0, SVG Export Plug-In . SVG Version: 6.00 Build 0)  -->
<!DOCTYPE svg PUBLIC "-//W3C//DTD SVG 1.1//EN" "http://www.w3.org/Graphics/SVG/1.1/DTD/svg11.dtd">
<svg version="1.1" id="Layer_1" xmlns="http://www.w3.org/2000/svg" xmlns:xlink="http://www.w3.org/1999/xlink" x="0px" y="0px"
	 width="595.28px" height="841.89px" viewBox="0 0 595.28 841.89" style="enable-background:new 0 0 595.28 841.89;"
	 xml:space="preserve">
<g id="CIRCLE_93_">
	<path style="fill:#FFD200;" d="M545.672,420.974c0-137.024-111.083-248.051-247.975-248.051
		c-137.043,0-248.089,111.026-248.089,248.051c0,136.948,111.046,247.993,248.089,247.993
		C434.589,668.967,545.672,557.922,545.672,420.974L545.672,420.974z"/>
</g>
<g id="CIRCLE_94_">
	<path style="fill:#EF3E42;" d="M537.974,420.974c0-132.758-107.633-240.257-240.276-240.257
		c-132.776,0-240.333,107.499-240.333,240.257c0,132.625,107.557,240.257,240.333,240.257
		C430.341,661.23,537.974,553.599,537.974,420.974L537.974,420.974z"/>
</g>
<g id="CIRCLE_95_">
	<path style="fill:#FFD200;" d="M487.495,420.974c0-104.921-84.991-189.911-189.798-189.911
		c-104.958,0-190.006,84.99-190.006,189.911c0,104.863,85.048,189.892,190.006,189.892
		C402.504,610.865,487.495,525.837,487.495,420.974L487.495,420.974z"/>
</g>
<g id="LWPOLYLINE_149_">
	<polygon points="199.698,374.458 212.46,374.458 212.46,309.833 231.518,309.833 231.518,297.242 180.83,297.242 180.83,309.833 
		199.698,309.833 	"/>
</g>
<g id="LWPOLYLINE_150_">
	<path d="M252.148,350.982c0.892,6.997,7.32,11.984,14.374,11.15c5.803-0.778,10.354-5.348,11.15-11.15v-53.74h12.345v53.74
		c-0.815,12.534-10.828,22.452-23.286,23.362c-13.919,1.005-25.96-9.481-26.984-23.362v-53.74h12.401V350.982z"/>
</g>
<g id="LWPOLYLINE_151_">
	<polygon points="318.025,362.208 318.025,297.242 305.093,297.242 305.093,374.458 344.896,374.458 344.896,362.208 	"/>
</g>
<g id="LWPOLYLINE_152_">
	<polygon points="365.564,362.208 365.564,297.242 352.67,297.242 352.67,374.458 392.416,374.458 392.416,362.208 	"/>
</g>
<g id="LWPOLYLINE_153_">
	<rect x="400.305" y="297.242" width="11.757" height="77.216"/>
</g>
<g id="LWPOLYLINE_154_">
	<path d="M407.435,393.914H188.245c-14.905,0.606-26.51,13.217-25.903,28.103c0.531,14.165,11.833,25.391,25.903,25.998h219.189
		c14.904-0.455,26.623-12.933,26.206-27.895C433.262,405.86,421.694,394.293,407.435,393.914z"/>
</g>
<g id="LWPOLYLINE_155_">
	<polygon points="153.239,528.72 163.498,528.72 163.498,477.217 178.555,477.217 178.555,467.205 138.202,467.205 138.202,477.217 
		153.239,477.217 	"/>
</g>
<g id="LWPOLYLINE_156_">
	<polygon points="169.756,528.72 186.784,467.205 196.247,467.205 212.764,528.72 202.391,528.72 199.698,519.087 182.215,519.087 
		179.294,528.72 	"/>
</g>
<g id="LWPOLYLINE_157_">
	<polygon points="240.051,528.72 255.031,483.854 255.031,528.72 264.342,528.72 264.342,467.205 250.67,467.205 240.051,499.062 
		229.413,467.205 215.76,467.205 215.76,528.72 225.07,528.72 225.07,483.854 	"/>
</g>
<g id="LWPOLYLINE_158_">
	<path d="M270.183,511.35c1.346,10.923,11.302,18.659,22.167,17.37c9.083-1.138,16.194-8.268,17.313-17.37
		c1.023-8.799,1.023-17.673,0-26.396c-1.309-10.923-11.074-18.735-21.997-17.521c-9.178,1.062-16.44,8.343-17.483,17.521
		C268.874,493.677,268.874,502.551,270.183,511.35z"/>
</g>
<g id="LWPOLYLINE_159_">
	<polygon points="319.467,467.205 330.066,493.904 330.066,467.205 338.941,467.205 338.941,493.904 349.484,467.205 
		359.27,467.205 347.133,497.924 358.587,528.72 348.878,528.72 338.941,503.006 338.941,528.72 330.066,528.72 330.066,503.006 
		319.694,528.72 309.454,528.72 321.116,497.924 309.738,467.205 	"/>
</g>
<g id="LWPOLYLINE_160_">
	<polygon points="393.288,502.703 393.288,528.72 402.163,528.72 402.163,467.205 393.288,467.205 393.288,493.752 372.315,493.752 
		372.315,467.205 363.517,467.205 363.517,528.72 372.315,528.72 372.315,502.703 	"/>
</g>
<g id="LWPOLYLINE_161_">
	<path d="M421.467,467.205h23.552v61.515h-9.178v-26.396h-8.761l-8.799,26.396h-10.089l9.179-26.89
		c-6.068-1.934-10.126-7.471-10.202-13.767v-5.992C407.435,474.259,413.616,467.812,421.467,467.205z"/>
</g>
<g id="LWPOLYLINE_162_">
	<polygon style="fill:#FFD200;" points="191.316,487.077 184.945,509.529 197.423,509.529 	"/>
</g>
<g id="LWPOLYLINE_163_">
	<path style="fill:#FFD200;" d="M279.569,510.174c0.606,5.727,5.802,9.823,11.529,9.141c4.759-0.531,8.571-4.248,9.178-9.064
		c0.929-8.078,0.929-16.118,0-24.234c-0.683-5.765-5.803-9.785-11.529-9.178c-4.893,0.531-8.723,4.438-9.178,9.329
		C278.336,494.132,278.336,502.172,279.569,510.174z"/>
</g>
<g id="LWPOLYLINE_164_">
	<path style="fill:#FFD200;" d="M416.195,483.058c0.151-3.11,2.465-5.688,5.575-6.22h14.07v16.535h-14.07
		c-3.262-0.493-5.651-3.337-5.575-6.675V483.058z"/>
</g>
</svg>
