<?xml version="1.0" encoding="UTF-8" standalone="no"?>
<!-- Generator: Adobe Illustrator 15.1.0, SVG Export Plug-In . SVG Version: 6.00 Build 0)  -->

<svg
   xmlns:dc="http://purl.org/dc/elements/1.1/"
   xmlns:cc="http://creativecommons.org/ns#"
   xmlns:rdf="http://www.w3.org/1999/02/22-rdf-syntax-ns#"
   xmlns:svg="http://www.w3.org/2000/svg"
   xmlns="http://www.w3.org/2000/svg"
   xmlns:sodipodi="http://sodipodi.sourceforge.net/DTD/sodipodi-0.dtd"
   xmlns:inkscape="http://www.inkscape.org/namespaces/inkscape"
   version="1.0"
   x="0px"
   y="0px"
   width="495.14401"
   height="495.14401"
   viewBox="0 0 495.14401 495.14401"
   enable-background="new 0 0 595 842"
   xml:space="preserve"
   id="svg3192"
   sodipodi:docname="391.svg"
   inkscape:version="0.92.5 (2060ec1f9f, 2020-04-08)"><metadata
   id="metadata3198"><rdf:RDF><cc:Work
       rdf:about=""><dc:format>image/svg+xml</dc:format><dc:type
         rdf:resource="http://purl.org/dc/dcmitype/StillImage" /></cc:Work></rdf:RDF></metadata><defs
   id="defs3196" /><sodipodi:namedview
   pagecolor="#ffffff"
   bordercolor="#666666"
   borderopacity="1"
   objecttolerance="10"
   gridtolerance="10"
   guidetolerance="10"
   inkscape:pageopacity="0"
   inkscape:pageshadow="2"
   inkscape:window-width="640"
   inkscape:window-height="480"
   id="namedview3194"
   showgrid="false"
   inkscape:zoom="0.28028504"
   inkscape:cx="258.34"
   inkscape:cy="221.776"
   inkscape:window-x="0"
   inkscape:window-y="0"
   inkscape:window-maximized="0"
   inkscape:current-layer="svg3192" />
<g
   id="Kuvataso_1"
   transform="translate(-39.16,-147.632)">
</g>
<g
   id="_x30_"
   transform="translate(-39.16,-147.632)">
</g>
<g
   id="HAT"
   transform="translate(-39.16,-147.632)">
</g>
<g
   id="HATKEL"
   transform="translate(-39.16,-147.632)">
</g>
<g
   id="HATPUN"
   transform="translate(-39.16,-147.632)">
	<g
   id="g3189">
		<polygon
   points="265.168,148.496 254.296,149.792 243.784,151.448 233.344,153.536 222.832,156.056 212.32,159.008 201.88,162.32 192.232,166.136 182.152,170.744 172.504,175.352 162.856,180.824 153.64,186.224 144.856,192.128 136,198.824 127.648,205.52 119.296,212.648 111.736,219.776 104.176,227.768 97.048,236.12 90.352,244.544 84.016,252.896 77.752,262.112 72.28,271.4 67.24,280.976 62.2,290.624 58.024,300.272 53.848,310.352 50.464,320.864 47.584,330.872 45.064,341.384 42.976,352.328 41.248,362.768 40.024,373.712 39.16,384.152 39.16,405.968 41.248,427.28 42.976,438.152 45.064,448.664 47.584,459.176 50.464,469.616 53.848,479.696 58.024,489.776 62.2,499.856 67.24,509.432 72.28,518.72 77.752,527.936 84.016,537.152 90.352,545.504 97.048,554.36 104.176,562.28 111.736,570.272 119.296,577.4 127.648,584.528 136,591.224 144.856,597.92 153.64,603.824 162.856,609.296 172.504,614.696 182.152,619.304 192.232,623.912 212.32,631.04 233.344,636.944 254.296,640.688 278.2,642.776 297.496,642.416 318.808,640.688 340.192,636.944 361.144,631.04 381.232,623.912 400.96,614.696 419.824,603.824 437.464,591.224 453.808,577.4 469.288,562.28 483.184,545.504 489.448,537.152 495.352,527.936 501.184,518.72 506.224,509.432 511.264,499.856 515.44,489.776 519.256,479.696 523,469.616 528.472,448.664 530.992,435.632 533.512,416.48 533.872,405.968 534.304,395.096 534.304,382.064 533.512,373.712 532.216,362.768 530.56,352.328 528.472,341.384 525.952,330.872 523,320.864 519.256,310.352 515.44,300.272 511.264,290.624 506.224,280.976 501.184,271.4 495.352,262.112 489.448,252.896 483.184,244.544 476.488,236.12 469.288,227.768 461.8,219.776 453.808,212.648 445.816,205.52 437.464,198.824 428.68,192.128 419.824,186.224 410.608,180.824 400.96,175.352 391.312,170.744 381.232,166.136 371.224,162.32 361.144,159.008 348.544,155.624 329.68,151.448 306.208,149.36 286.552,147.632 276.112,147.632 "
   id="polygon3161"
   style="clip-rule:evenodd;fill:#ffd200;fill-rule:evenodd" />
		<polygon
   points="266.032,155.624 255.52,156.92 245.08,158.576 234.568,160.664 224.488,163.184 214.48,166.136 204.832,169.448 194.752,173.264 185.104,177.44 175.888,182.048 166.672,187.088 157.816,192.56 149.032,198.392 140.68,204.728 132.256,210.992 124.264,218.12 116.776,225.248 109.648,232.808 102.88,240.728 96.184,248.72 89.92,257.504 84.016,265.928 78.616,275.144 73.576,284.36 68.968,293.576 64.72,303.224 60.976,312.872 57.592,322.952 54.712,333.032 52.192,343.04 50.104,353.552 48.808,363.632 47.584,374.072 46.72,384.584 46.72,405.536 48.808,426.416 50.104,436.928 52.192,447.008 54.712,457.016 57.592,467.096 60.976,477.176 64.72,486.824 68.968,496.472 73.576,505.688 78.616,514.904 84.016,524.12 89.92,532.976 96.184,541.328 102.88,549.32 109.648,557.24 116.776,564.8 124.264,571.928 132.256,579.056 140.68,585.392 149.032,591.656 157.816,597.56 166.672,602.96 175.888,608 185.104,612.608 194.752,616.784 214.48,623.912 234.568,629.384 255.52,633.2 278.632,635.288 297.064,634.856 317.944,633.2 338.464,629.384 359.056,623.912 378.784,616.784 397.648,608 415.648,597.56 432.856,585.392 448.768,571.928 463.888,557.24 477.28,541.328 483.616,532.976 489.016,524.12 494.92,514.904 499.96,505.688 504.568,496.472 508.744,486.824 512.488,477.176 515.872,467.096 521.344,447.008 523.864,434.408 525.952,416.048 526.744,405.536 526.744,395.096 526.744,382.496 525.952,374.072 524.656,363.632 523.432,353.552 521.344,343.04 518.824,333.032 515.872,322.952 512.488,312.872 508.744,303.224 504.568,293.576 499.96,284.36 494.92,275.144 489.016,265.928 483.616,257.504 477.28,248.72 470.584,240.728 463.888,232.808 456.328,225.248 448.768,218.12 441.208,210.992 432.856,204.728 424.432,198.392 415.648,192.56 406.864,187.088 397.648,182.048 388,177.44 378.784,173.264 368.704,169.448 359.056,166.136 346.888,162.752 328.456,158.576 305.776,156.488 286.552,154.76 276.472,155.192 "
   id="polygon3163"
   style="clip-rule:evenodd;fill:#ef3e42;fill-rule:evenodd" />
		<polygon
   points="270.208,206.384 261.856,207.176 253.864,208.472 245.872,210.128 237.52,211.856 229.96,214.304 221.968,216.824 214.048,219.776 206.488,223.16 199.36,226.904 191.8,231.08 184.672,235.328 177.976,239.936 171.28,244.544 164.944,249.944 158.68,255.416 152.776,260.888 146.944,267.152 141.472,273.056 136.432,279.752 131.392,286.448 126.784,293.144 122.608,300.272 118.432,307.4 115.048,314.96 111.736,322.52 108.352,330.08 105.832,338.072 103.744,345.992 101.656,353.984 100,362.336 98.704,370.328 97.912,378.68 97.48,386.672 97.48,403.448 98.704,419.792 100,428.144 101.656,436.064 103.744,444.056 105.832,452.048 108.352,459.968 111.736,467.528 115.048,475.088 118.432,482.648 122.608,489.776 126.784,496.904 131.392,503.6 136.432,510.296 141.472,516.992 146.944,523.328 152.776,529.16 158.68,534.632 164.944,540.104 171.28,545.504 177.976,550.112 184.672,554.72 191.8,559.4 199.36,563.144 206.488,566.888 214.048,570.272 229.96,575.744 245.872,579.92 261.856,582.872 280.288,584.528 294.976,584.528 311.248,582.872 327.592,579.92 343.504,575.744 359.056,570.272 374.104,563.144 388.36,554.72 402.256,545.504 414.784,534.632 426.52,523.328 437.032,510.296 442.072,503.6 446.68,496.904 450.856,489.776 455.032,482.648 458.416,475.088 461.8,467.528 464.68,459.968 467.632,452.048 471.808,436.064 473.968,426.056 475.624,411.44 476.056,403.448 476.488,395.096 476.488,385.448 475.624,378.68 474.76,370.328 473.536,362.336 471.808,353.984 469.72,345.992 467.632,338.072 464.68,330.08 461.8,322.52 458.416,314.96 455.032,307.4 450.856,300.272 446.68,293.144 442.072,286.448 437.032,279.752 431.992,273.056 426.52,267.152 420.688,260.888 414.784,255.416 408.52,249.944 402.256,244.544 395.488,239.936 388.36,235.328 381.664,231.08 374.104,226.904 366.976,223.16 359.056,219.776 351.496,216.824 343.504,214.304 334.288,211.856 319.6,208.472 301.6,206.816 286.552,205.52 278.632,205.52 "
   id="polygon3165"
   style="clip-rule:evenodd;fill:#ffd200;fill-rule:evenodd" />
		<g
   id="g3187">
			<polygon
   points="170.416,284.792 170.416,272.192 220.744,272.192 220.744,284.792 201.88,284.792 201.88,348.944 189.28,348.944 189.28,284.792 "
   id="polygon3167"
   style="clip-rule:evenodd;fill-rule:evenodd" />
			<polygon
   points="241.696,325.04 242.128,327.56 242.992,330.08 244.216,332.168 246.304,333.824 248.392,335.552 250.48,336.344 254.296,336.776 258.04,336.344 260.56,335.12 262.648,333.824 264.376,332.168 265.6,329.648 266.464,327.56 266.896,325.04 266.896,272.192 279.424,272.192 279.424,325.472 278.992,328.784 277.336,333.824 275.248,338.072 270.64,342.68 265.168,346.424 259.336,348.512 254.296,348.944 249.256,348.512 243.352,346.424 240.472,344.768 237.952,342.68 235.432,340.52 233.344,338.072 231.616,335.12 230.392,332.168 229.528,328.784 229.096,325.472 229.096,272.192 241.696,272.192 "
   id="polygon3169"
   style="clip-rule:evenodd;fill-rule:evenodd" />
			<polygon
   points="309.16,336.776 335.584,336.776 335.584,348.944 296.2,348.944 296.2,272.192 309.16,272.192 "
   id="polygon3171"
   style="clip-rule:evenodd;fill-rule:evenodd" />
			<polygon
   points="356.536,336.776 383.392,336.776 383.392,348.944 343.504,348.944 343.504,272.192 356.536,272.192 "
   id="polygon3173"
   style="clip-rule:evenodd;fill-rule:evenodd" />
			<rect
   x="391.31201"
   y="272.19199"
   width="11.736"
   height="76.751999"
   id="rect3175"
   style="clip-rule:evenodd;fill-rule:evenodd" />
			<path
   d="m 177.112,368.672 h 219.24 c 15.912,1.656 24.768,10.44 26.424,26.784 -0.864,14.256 -8.352,23.112 -23.04,26.784 H 173.368 c -14.688,-3.672 -21.816,-12.888 -22.248,-26.784 0,-16.344 8.424,-25.128 25.992,-26.784 z"
   id="path3177"
   inkscape:connector-curvature="0"
   style="clip-rule:evenodd;fill-rule:evenodd" />
			<polygon
   points="182.152,454.568 182.152,441.968 232.48,441.968 232.48,454.568 213.616,454.568 213.616,519.08 201.016,519.08 201.016,454.568 "
   id="polygon3179"
   style="clip-rule:evenodd;fill-rule:evenodd" />
			<polygon
   points="253.432,495.176 253.864,497.696 255.088,499.856 256.384,501.944 258.04,504.032 260.128,505.256 262.648,506.12 266.464,506.984 270.208,506.12 272.296,505.256 274.384,503.6 276.472,501.944 277.768,499.856 278.632,497.336 278.992,494.816 278.992,441.968 291.592,441.968 291.592,495.608 290.8,498.992 289.504,503.6 286.984,507.776 282.808,512.816 277.336,516.56 271.072,518.72 266.464,519.08 261.424,518.72 255.088,516.56 252.208,514.904 249.688,512.816 247.6,510.296 245.512,507.776 243.784,504.824 242.56,501.944 241.696,498.992 241.264,495.608 241.264,441.968 253.432,441.968 "
   id="polygon3181"
   style="clip-rule:evenodd;fill-rule:evenodd" />
			<polygon
   points="318.376,506.984 345.232,506.984 345.232,519.08 305.344,519.08 305.344,441.968 318.376,441.968 "
   id="polygon3183"
   style="clip-rule:evenodd;fill-rule:evenodd" />
			<polygon
   points="364.528,506.984 391.312,506.984 391.312,519.08 351.496,519.08 351.496,441.968 364.528,441.968 "
   id="polygon3185"
   style="clip-rule:evenodd;fill-rule:evenodd" />
		</g>
	</g>
</g>
</svg>