<?xml version="1.0" encoding="iso-8859-1"?>
<!-- Generator: Adobe Illustrator 15.1.0, SVG Export Plug-In . SVG Version: 6.00 Build 0)  -->
<!DOCTYPE svg PUBLIC "-//W3C//DTD SVG 1.1//EN" "http://www.w3.org/Graphics/SVG/1.1/DTD/svg11.dtd">
<svg version="1.1" id="Layer_1" xmlns="http://www.w3.org/2000/svg" xmlns:xlink="http://www.w3.org/1999/xlink" x="0px" y="0px"
	 width="595px" height="842px" viewBox="0 0 595 842" style="enable-background:new 0 0 595 842;" xml:space="preserve">
<g>
	<path style="fill-rule:evenodd;clip-rule:evenodd;fill:none;stroke:#007AC2;stroke-width:0.7067;stroke-miterlimit:10;" d="
		M292.168,143.528c159.264-1.368,263.376,108.144,269.712,260.208c2.304,155.592-104.04,280.296-269.712,278.928
		c-159.336,0.432-267.552-110.088-269.424-272.52C27.352,247.136,137.8,143.528,292.168,143.528z"/>
	<path style="fill-rule:evenodd;clip-rule:evenodd;fill:#0079C1;" d="M292.168,155.84c138.744,0.432,256.536,110.016,256.968,257.04
		c0.432,127.728-99.576,255.6-256.968,256.968C151.552,670.28,36.496,556.16,35.128,412.88
		C35.56,270.392,149.248,155.84,292.168,155.84z"/>
	<polygon style="fill-rule:evenodd;clip-rule:evenodd;fill:#FFFFFF;" points="82.144,447.008 82.144,379.976 402.112,379.976 
		402.112,313.304 502.984,415.184 402.112,514.616 402.112,447.008 	"/>
</g>
</svg>
