<?xml version="1.0" encoding="iso-8859-1"?>
<!-- Generator: Adobe Illustrator 15.1.0, SVG Export Plug-In . SVG Version: 6.00 Build 0)  -->
<!DOCTYPE svg PUBLIC "-//W3C//DTD SVG 1.1//EN" "http://www.w3.org/Graphics/SVG/1.1/DTD/svg11.dtd">
<svg version="1.1" id="Layer_1" xmlns="http://www.w3.org/2000/svg" xmlns:xlink="http://www.w3.org/1999/xlink" x="0px" y="0px"
	 width="595px" height="842px" viewBox="0 0 595 842" style="enable-background:new 0 0 595 842;" xml:space="preserve">
<g>
	<path style="fill-rule:evenodd;clip-rule:evenodd;fill:none;stroke:#007AC2;stroke-width:0.7067;stroke-miterlimit:10;" d="
		M22.816,413.312c-1.44-159.336,108.144-263.448,260.208-269.784c155.592-2.304,280.224,104.04,278.856,269.784
		c0.504,159.264-110.016,267.48-272.448,269.352C126.424,678.056,22.816,567.608,22.816,413.312z"/>
	<path style="fill-rule:evenodd;clip-rule:evenodd;fill:#0079C1;" d="M35.128,413.312c0.432-138.744,110.016-256.608,257.04-257.04
		c127.728-0.432,255.6,99.576,256.968,257.04c0.432,140.544-113.688,255.6-256.968,256.968
		C149.68,669.848,35.128,556.16,35.128,413.312z"/>
	<polygon style="fill-rule:evenodd;clip-rule:evenodd;fill:#FFFFFF;" points="326.296,623.264 259.264,623.264 259.264,303.296 
		192.592,303.296 294.4,202.424 393.904,303.296 326.296,303.296 	"/>
</g>
</svg>
