<?xml version="1.0" encoding="UTF-8" standalone="no"?>
<!-- Generator: Adobe Illustrator 15.1.0, SVG Export Plug-In . SVG Version: 6.00 Build 0)  -->

<svg
   xmlns:dc="http://purl.org/dc/elements/1.1/"
   xmlns:cc="http://creativecommons.org/ns#"
   xmlns:rdf="http://www.w3.org/1999/02/22-rdf-syntax-ns#"
   xmlns:svg="http://www.w3.org/2000/svg"
   xmlns="http://www.w3.org/2000/svg"
   xmlns:sodipodi="http://sodipodi.sourceforge.net/DTD/sodipodi-0.dtd"
   xmlns:inkscape="http://www.inkscape.org/namespaces/inkscape"
   version="1.0"
   id="Layer_1"
   x="0px"
   y="0px"
   width="496.7717"
   height="496.7337"
   viewBox="0 0 496.77167 496.73369"
   enable-background="new 0 0 595.28 841.89"
   xml:space="preserve"
   sodipodi:docname="413-3.svg"
   inkscape:version="0.92.5 (2060ec1f9f, 2020-04-08)"><metadata
   id="metadata62"><rdf:RDF><cc:Work
       rdf:about=""><dc:format>image/svg+xml</dc:format><dc:type
         rdf:resource="http://purl.org/dc/dcmitype/StillImage" /></cc:Work></rdf:RDF></metadata><defs
   id="defs60" /><sodipodi:namedview
   pagecolor="#ffffff"
   bordercolor="#666666"
   borderopacity="1"
   objecttolerance="10"
   gridtolerance="10"
   guidetolerance="10"
   inkscape:pageopacity="0"
   inkscape:pageshadow="2"
   inkscape:window-width="640"
   inkscape:window-height="480"
   id="namedview58"
   showgrid="false"
   inkscape:zoom="0.28032165"
   inkscape:cx="248.38536"
   inkscape:cy="248.36634"
   inkscape:window-x="0"
   inkscape:window-y="0"
   inkscape:window-maximized="0"
   inkscape:current-layer="Layer_1" />
<g
   id="CIRCLE_101_"
   transform="translate(-49.25465,-172.57765)">
	
		<path
   stroke-miterlimit="10"
   d="m 545.672,420.973 c 0,-137.019 -111.041,-248.041 -248.098,-248.041 -136.924,0 -247.965,111.022 -247.965,248.041 0,136.943 111.041,247.984 247.965,247.984 137.057,0 248.098,-111.041 248.098,-247.984 z"
   id="path48"
   inkscape:connector-curvature="0"
   style="fill:#ffffff;stroke:#0079c1;stroke-width:0.7087;stroke-linecap:round;stroke-linejoin:round;stroke-miterlimit:10" />
</g>
<g
   id="CIRCLE_102_"
   transform="translate(-49.25465,-172.57765)">
	<path
   d="m 533.992,420.973 c 0,-130.591 -105.809,-236.436 -236.418,-236.436 -130.515,0 -236.36,105.845 -236.36,236.436 0,130.496 105.846,236.38 236.36,236.38 130.61,0.001 236.418,-105.884 236.418,-236.38 z"
   id="path51"
   inkscape:connector-curvature="0"
   style="fill:#0079c1" />
</g>
<g
   id="LWPOLYLINE_191_"
   transform="translate(-49.25465,-172.57765)">
	<path
   d="m 373.801,377.494 -61.854,-63.599 c -32.482,-31.477 -84.286,-30.699 -115.763,1.745 -14.828,15.321 -23.096,35.725 -23.096,57.019 v 170.695 h 61.607 V 384.509 c 0,-6.959 2.92,-13.652 8.002,-18.469 10.258,-9.633 26.319,-9.178 36.009,1.081 l 51.35,54.307 -43.632,43.65 131.519,0.076 -0.15,-131.69 z"
   id="path54"
   inkscape:connector-curvature="0"
   style="fill:#ffffff" />
</g>
</svg>