<?xml version="1.0" encoding="utf-8"?>
<!-- Generator: Adobe Illustrator 15.1.0, SVG Export Plug-In . SVG Version: 6.00 Build 0)  -->
<!DOCTYPE svg PUBLIC "-//W3C//DTD SVG 1.0//EN" "http://www.w3.org/TR/2001/REC-SVG-20010904/DTD/svg10.dtd">
<svg version="1.0" id="Layer_1" xmlns="http://www.w3.org/2000/svg" xmlns:xlink="http://www.w3.org/1999/xlink" x="0px" y="0px"
	 width="595.28px" height="841.89px" viewBox="0 0 595.28 841.89" enable-background="new 0 0 595.28 841.89" xml:space="preserve">
<g id="CIRCLE_101_">
	
		<path fill="#FFFFFF" stroke="#0079C1" stroke-width="0.7087" stroke-linecap="round" stroke-linejoin="round" stroke-miterlimit="10" d="
		M545.672,420.973c0-137.019-111.041-248.041-248.098-248.041c-136.924,0-247.965,111.022-247.965,248.041
		c0,136.943,111.041,247.984,247.965,247.984C434.631,668.957,545.672,557.916,545.672,420.973L545.672,420.973z"/>
</g>
<g id="CIRCLE_102_">
	<path fill="#0079C1" d="M533.992,420.973c0-130.591-105.809-236.436-236.418-236.436c-130.515,0-236.36,105.845-236.36,236.436
		c0,130.496,105.846,236.38,236.36,236.38C428.184,657.354,533.992,551.469,533.992,420.973L533.992,420.973z"/>
</g>
<g id="LWPOLYLINE_191_">
	<path fill="#FFFFFF" d="M373.801,377.494l-61.854-63.599c-32.482-31.477-84.286-30.699-115.763,1.745
		c-14.828,15.321-23.096,35.725-23.096,57.019v170.695h61.607V384.509c0-6.959,2.92-13.652,8.002-18.469
		c10.258-9.633,26.319-9.178,36.009,1.081l51.35,54.307l-43.632,43.65l131.519,0.076l-0.15-131.69L373.801,377.494z"/>
</g>
</svg>
