<?xml version="1.0" encoding="utf-8"?>
<!-- Generator: Adobe Illustrator 15.1.0, SVG Export Plug-In . SVG Version: 6.00 Build 0)  -->
<!DOCTYPE svg PUBLIC "-//W3C//DTD SVG 1.0//EN" "http://www.w3.org/TR/2001/REC-SVG-20010904/DTD/svg10.dtd">
<svg version="1.0" id="Layer_1" xmlns="http://www.w3.org/2000/svg" xmlns:xlink="http://www.w3.org/1999/xlink" x="0px" y="0px"
	 width="595.28px" height="841.89px" viewBox="0 0 595.28 841.89" enable-background="new 0 0 595.28 841.89" xml:space="preserve">
<g id="CIRCLE_99_">
	<path fill="#FFFFFF" stroke="#0079C1" stroke-width="0.5" stroke-miterlimit="10" d="M545.672,420.936
		c0-136.97-111.062-248.013-247.975-248.013c-137.064,0-248.089,111.043-248.089,248.013c0,136.969,111.024,248.031,248.089,248.031
		C434.61,668.967,545.672,557.904,545.672,420.936L545.672,420.936z"/>
</g>
<g id="CIRCLE_100_">
	<path fill="#0079C1" d="M534.104,420.936c0-130.54-105.866-236.406-236.406-236.406c-130.616,0-236.425,105.866-236.425,236.406
		c0,130.521,105.809,236.424,236.425,236.424C428.237,657.359,534.104,551.456,534.104,420.936L534.104,420.936z"/>
</g>
<g id="LWPOLYLINE_190_">
	<path fill="#FFFFFF" d="M413.406,390.571l0.151-131.507l-131.772,0.151l44.02,44.02l-74.99,75.065
		c-21.849,21.867-34.063,51.358-34.063,82.196v153.317h61.961V460.193c0-14.338,5.766-28.106,15.912-38.367l75.047-74.971
		L413.406,390.571z"/>
</g>
</svg>
