<?xml version="1.0" encoding="iso-8859-1"?>
<!-- Generator: Adobe Illustrator 15.1.0, SVG Export Plug-In . SVG Version: 6.00 Build 0)  -->
<!DOCTYPE svg PUBLIC "-//W3C//DTD SVG 1.1//EN" "http://www.w3.org/Graphics/SVG/1.1/DTD/svg11.dtd">
<svg version="1.1" id="Layer_1" xmlns="http://www.w3.org/2000/svg" xmlns:xlink="http://www.w3.org/1999/xlink" x="0px" y="0px"
	 width="595px" height="842px" viewBox="0 0 595 842" style="enable-background:new 0 0 595 842;" xml:space="preserve">
<g>
	<path style="fill-rule:evenodd;clip-rule:evenodd;fill:none;stroke:#0079C1;stroke-width:0.7064;stroke-miterlimit:10;" d="
		M23.536,419.288C22.168,259.448,132.112,155.48,284.68,149.072c156.168-2.808,281.232,103.968,279.792,270.216
		c0.504,159.84-110.376,268.416-273.384,270.72C128.008,684.968,23.536,574.088,23.536,419.288z"/>
	<path style="fill-rule:evenodd;clip-rule:evenodd;fill:#0079C1;" d="M35.92,419.288c0.504-138.744,110.448-256.968,257.904-257.904
		c128.232,0,256.464,100.368,257.832,257.904c0.504,141.48-114.048,256.968-257.832,257.832
		C150.904,677.12,35.92,563.072,35.92,419.288z"/>
	<polygon style="fill-rule:evenodd;clip-rule:evenodd;fill:#FFFFFF;" points="176.104,589.208 243.928,589.208 243.928,435.704 
		246.664,421.088 253.504,407.84 259.912,400.496 268.192,394.592 276.904,390.488 286.984,388.184 362.944,387.68 362.944,455.432 
		463.744,354.272 362.944,253.472 362.944,320.36 283.744,320.792 268.192,323.096 253.504,327.272 238.888,333.68 225.568,341.888 
		213.256,351.968 202.672,363.416 193.528,376.232 186.184,389.984 180.712,404.672 176.608,427.928 176.104,435.704 	"/>
</g>
</svg>
