<?xml version="1.0" encoding="utf-8"?>
<!-- Generator: Adobe Illustrator 15.1.0, SVG Export Plug-In . SVG Version: 6.00 Build 0)  -->
<!DOCTYPE svg PUBLIC "-//W3C//DTD SVG 1.0//EN" "http://www.w3.org/TR/2001/REC-SVG-20010904/DTD/svg10.dtd">
<svg version="1.0" id="Layer_1" xmlns="http://www.w3.org/2000/svg" xmlns:xlink="http://www.w3.org/1999/xlink" x="0px" y="0px"
	 width="595.28px" height="841.89px" viewBox="0 0 595.28 841.89" enable-background="new 0 0 595.28 841.89" xml:space="preserve">
<g id="CIRCLE_103_">
	<path fill="#FFFFFF" stroke="#0079C1" stroke-width="0.5" stroke-miterlimit="10" d="M545.672,420.973
		c0-137.014-110.999-248.031-248.031-248.031c-137.014,0-248.032,111.018-248.032,248.031
		c0,136.939,111.019,247.974,248.032,247.974C434.673,668.947,545.672,557.912,545.672,420.973L545.672,420.973z"/>
</g>
<g id="CIRCLE_104_">
	<path fill="#0079C1" d="M533.992,420.973c0-130.585-105.766-236.427-236.352-236.427S61.289,290.388,61.289,420.973
		c0,130.492,105.766,236.371,236.352,236.371S533.992,551.465,533.992,420.973L533.992,420.973z"/>
</g>
<g id="LWPOLYLINE_192_">
	<path fill="#FFFFFF" d="M281.58,473.268v140.049h-61.984V317.635h-62.269l93.005-93.194l92.929,93.042H281.58v66.44
		c32.86-11.263,69.247-2.92,93.935,21.445l42.549,42.112l44.027-44.027l0.152,131.705l-131.516-0.076l43.649-43.688L334.539,451.5
		c-12.06-12.211-31.627-12.211-43.781-0.15C284.88,457.189,281.58,465.076,281.58,473.268z"/>
</g>
</svg>
