<?xml version="1.0" encoding="iso-8859-1"?>
<!-- Generator: Adobe Illustrator 15.1.0, SVG Export Plug-In . SVG Version: 6.00 Build 0)  -->
<!DOCTYPE svg PUBLIC "-//W3C//DTD SVG 1.1//EN" "http://www.w3.org/Graphics/SVG/1.1/DTD/svg11.dtd">
<svg version="1.1" id="Layer_1" xmlns="http://www.w3.org/2000/svg" xmlns:xlink="http://www.w3.org/1999/xlink" x="0px" y="0px"
	 width="595px" height="842px" viewBox="0 0 595 842" style="enable-background:new 0 0 595 842;" xml:space="preserve">
<g>
	<path style="fill-rule:evenodd;clip-rule:evenodd;fill:none;stroke:#007AC2;stroke-width:0.7061;stroke-miterlimit:10;" d="
		M295.12,152.456c161.352-1.44,266.04,109.296,272.448,262.872c2.808,157.176-104.688,283.104-272.448,281.736
		c-160.992,0.432-270.288-111.168-272.16-275.4C27.64,257.144,139.24,152.456,295.12,152.456z"/>
	<path style="fill-rule:evenodd;clip-rule:evenodd;fill:#0079C1;" d="M295.12,164.84c140.112,0.504,259.128,111.168,259.56,259.632
		c0.504,129.096-100.512,258.264-259.56,259.632c-142.056,0.504-258.264-114.84-259.2-259.632
		C35.92,280.616,150.76,164.84,295.12,164.84z"/>
	<polygon style="fill-rule:evenodd;clip-rule:evenodd;fill:#FFFFFF;" points="205.624,635.216 273.448,635.216 273.448,559.112 
		274.384,547.16 277.552,535.64 282.16,524.552 289.144,514.832 301.96,502.88 312.544,496.832 323.632,492.728 335.152,490.424 
		384.04,490.424 384.04,558.68 485.488,457.232 384.04,355.784 384.04,422.6 339.76,422.6 322.264,424.472 305.632,428.576 
		289.144,434.12 273.448,441.536 273.448,312.008 341.632,312.008 239.752,210.056 138.304,312.008 205.624,312.008 	"/>
</g>
</svg>
