<?xml version="1.0" encoding="iso-8859-1"?>
<!-- Generator: Adobe Illustrator 15.1.0, SVG Export Plug-In . SVG Version: 6.00 Build 0)  -->
<!DOCTYPE svg PUBLIC "-//W3C//DTD SVG 1.1//EN" "http://www.w3.org/Graphics/SVG/1.1/DTD/svg11.dtd">
<svg version="1.1" id="Layer_1" xmlns="http://www.w3.org/2000/svg" xmlns:xlink="http://www.w3.org/1999/xlink" x="0px" y="0px"
	 width="595px" height="842px" viewBox="0 0 595 842" style="enable-background:new 0 0 595 842;" xml:space="preserve">
<g>
	<path style="fill-rule:evenodd;clip-rule:evenodd;fill:none;stroke:#007AC2;stroke-width:0.7061;stroke-miterlimit:10;" d="
		M299.944,136.688c159.192-1.368,262.8,108.072,269.136,260.064c2.736,155.52-103.536,280.08-269.64,278.712
		C140.32,675.896,32.176,565.448,30.304,403.088C34.912,240.224,145.288,136.688,299.944,136.688z"/>
	<path style="fill-rule:evenodd;clip-rule:evenodd;fill:#0079C1;" d="M299.44,149c138.744,0.432,256.464,109.944,256.896,256.824
		c0.432,127.728-99.432,255.456-256.896,256.824C159.04,663.08,44.056,549.032,43.12,405.824C43.12,263.48,156.736,149,299.44,149z"
		/>
	<polygon style="fill-rule:evenodd;clip-rule:evenodd;fill:#FFFFFF;" points="127.504,279.032 175.456,231.584 401.68,457.304 
		448.192,410.864 447.76,554.072 306.28,552.704 353.728,505.256 	"/>
</g>
</svg>
