<?xml version="1.0" encoding="UTF-8" standalone="no"?>
<!-- Generator: Adobe Illustrator 15.1.0, SVG Export Plug-In . SVG Version: 6.00 Build 0)  -->

<svg
   xmlns:dc="http://purl.org/dc/elements/1.1/"
   xmlns:cc="http://creativecommons.org/ns#"
   xmlns:rdf="http://www.w3.org/1999/02/22-rdf-syntax-ns#"
   xmlns:svg="http://www.w3.org/2000/svg"
   xmlns="http://www.w3.org/2000/svg"
   xmlns:sodipodi="http://sodipodi.sourceforge.net/DTD/sodipodi-0.dtd"
   xmlns:inkscape="http://www.inkscape.org/namespaces/inkscape"
   version="1.1"
   id="Layer_1"
   x="0px"
   y="0px"
   width="539.31744"
   height="539.28961"
   viewBox="0 0 539.31744 539.28961"
   xml:space="preserve"
   sodipodi:docname="422.svg"
   inkscape:version="0.92.5 (2060ec1f9f, 2020-04-08)"><metadata
   id="metadata216"><rdf:RDF><cc:Work
       rdf:about=""><dc:format>image/svg+xml</dc:format><dc:type
         rdf:resource="http://purl.org/dc/dcmitype/StillImage" /></cc:Work></rdf:RDF></metadata><defs
   id="defs214" /><sodipodi:namedview
   pagecolor="#ffffff"
   bordercolor="#666666"
   borderopacity="1"
   objecttolerance="10"
   gridtolerance="10"
   guidetolerance="10"
   inkscape:pageopacity="0"
   inkscape:pageshadow="2"
   inkscape:window-width="640"
   inkscape:window-height="480"
   id="namedview212"
   showgrid="false"
   inkscape:zoom="0.28028504"
   inkscape:cx="267.33296"
   inkscape:cy="254.82806"
   inkscape:window-x="0"
   inkscape:window-y="0"
   inkscape:window-maximized="0"
   inkscape:current-layer="Layer_1" />
<g
   id="g209"
   transform="translate(-30.167042,-136.53843)">
	<path
   style="clip-rule:evenodd;fill:none;fill-rule:evenodd;stroke:#0079c1;stroke-width:0.7058;stroke-miterlimit:10"
   d="M 300.016,136.904 C 459.208,135.536 562.744,244.976 569.08,396.824 571.816,552.272 465.616,676.832 300.016,675.464 140.896,675.896 32.392,565.52 30.52,403.232 35.128,240.368 145.504,136.904 300.016,136.904 Z"
   id="path191"
   inkscape:connector-curvature="0" />
	<path
   style="clip-rule:evenodd;fill:#0079c1;fill-rule:evenodd"
   d="m 300.016,149.216 c 138.168,0.432 255.888,109.872 256.752,256.752 0,127.656 -99.864,255.312 -256.752,256.68 -140.832,0.432 -255.744,-113.544 -256.68,-256.68 0,-142.272 113.544,-256.752 256.68,-256.752 z"
   id="path193"
   inkscape:connector-curvature="0" />
	<g
   id="g207">
		<polygon
   style="clip-rule:evenodd;fill:#ffffff;fill-rule:evenodd"
   points="183.376,379.976 172.36,379.04 159.616,379.472 159.616,382.712 147.736,385.448 136.36,389.984 125.848,396.824 116.272,404.6 108.064,414.176 101.728,424.616 96.688,435.992 93.952,447.872 93.016,460.184 93.952,472.496 96.688,484.808 101.224,496.184 107.632,506.696 111.736,511.664 122.248,522.176 135.928,530.888 143.2,534.488 159.184,538.592 173.296,539.528 189.712,537.224 201.592,533.624 212.968,528.08 223.048,520.808 231.688,512.168 238.96,502.088 244.432,491.144 248.104,492.08 251.776,480.2 254.008,467.888 254.008,455.144 252.208,442.832 248.104,430.52 242.632,419.216 235.792,409.136 227.152,400.064 218.44,393.224 211.6,388.616 215.272,378.104 289.144,459.68 286.408,465.656 285.472,474.728 286.84,481.136 290.08,486.608 297.352,492.512 306.424,495.248 309.592,495.248 313.264,508.496 307.792,508.496 307.792,516.704 328.744,516.704 328.312,508.496 321.04,508.496 316.864,493.448 322.408,489.344 326.944,484.304 329.68,479.768 330.616,474.728 345.16,473.36 347.896,485.672 352.936,497.12 359.344,507.56 367.552,517.136 377.128,524.912 387.568,531.32 399.016,536.36 417.232,539.96 429.544,539.96 441.856,538.16 453.736,534.056 464.68,528.584 474.688,521.24 483.832,512.6 491.104,503.024 496.576,491.648 500.68,480.2 502.984,467.888 502.984,455.576 506.152,455.144 505.288,448.736 502.048,436.424 497.08,424.616 490.24,413.744 482.032,403.664 472.456,395.456 461.008,388.616 449.128,383.576 436.816,380.84 424.072,379.472 411.328,380.408 398.512,383.144 386.704,388.184 367.048,353.984 369.352,349.376 367.984,348.512 370.72,343.472 373.024,343.04 375.76,342.536 377.56,341.672 379.864,340.736 381.664,338.936 393.04,324.752 393.976,322.016 393.544,320.648 391.672,318.416 389.44,317.48 379.36,320.648 369.352,322.52 364.312,322.52 351.136,320.648 347.896,320.648 344.296,320.648 341.992,322.016 341.56,325.688 347.464,331.16 358.408,338 364.312,340.736 362.08,345.272 361.144,344.84 360.208,346.208 226.648,346.208 230.752,333.896 229.384,333.464 235.792,316.544 234.424,315.68 234.856,314.744 231.688,313.376 231.256,314.744 229.384,313.808 228.52,312.944 227.584,310.208 227.584,308.84 228.016,307.904 228.952,306.536 230.32,306.104 232.12,305.168 235.36,304.736 261.784,307.472 263.152,300.128 249.472,298.328 235.36,297.392 232.624,297.392 229.384,298.328 226.648,298.76 223.912,300.632 222.112,302 220.744,304.232 219.808,306.536 219.808,308.84 219.808,311.072 220.312,313.376 221.176,315.68 222.544,317.48 224.416,318.848 226.216,320.216 222.544,331.16 221.176,330.728 202.96,384.512 196.12,382.208 "
   id="polygon195" />
		<polygon
   style="clip-rule:evenodd;fill:#0079c1;fill-rule:evenodd"
   points="312.328,450.608 305.488,450.608 301.816,435.992 308.224,435.992 308.224,427.784 287.776,427.784 287.776,435.992 294.616,435.992 298.648,452.408 296.416,453.344 218.944,368.096 223.048,356.216 355.672,356.216 "
   id="polygon197" />
		<polygon
   style="clip-rule:evenodd;fill:#0079c1;fill-rule:evenodd"
   points="374.392,395.456 369.784,399.56 365.248,403.664 361.144,408.272 357.04,413.24 353.872,418.28 350.632,423.248 347.896,429.152 346.096,434.624 344.296,440.528 342.424,446.504 341.56,452.408 341.056,458.816 341.056,464.72 329.248,466.088 326.944,460.616 325.144,458.312 323.272,456.08 320.536,454.208 362.944,363.056 379.36,392.288 "
   id="polygon199" />
		<polygon
   style="clip-rule:evenodd;fill:#0079c1;fill-rule:evenodd"
   points="412.192,453.776 411.328,456.08 410.392,458.312 359.344,463.352 359.344,457.88 359.776,452.408 360.712,446.936 362.512,441.464 364.312,436.424 366.616,431.456 369.352,426.848 372.52,422.312 376.192,418.28 379.864,414.608 383.968,411.008 388.504,407.768 414.064,451.976 "
   id="polygon201" />
		<polygon
   style="clip-rule:evenodd;fill:#0079c1;fill-rule:evenodd"
   points="405.856,400.064 411.328,398.696 417.664,397.76 422.704,397.328 428.176,397.328 433.648,398.192 439.12,399.128 444.592,400.928 450.064,402.8 455.104,405.536 459.64,408.272 464.248,411.872 468.784,415.544 472.456,419.648 476.056,424.112 479.296,428.72 481.528,433.688 483.832,439.16 485.632,444.2 487,449.672 487.936,455.576 487.936,461.048 487.936,466.52 487,472.496 486.136,477.968 484.264,483.44 482.032,488.408 479.728,493.448 476.56,498.488 473.32,502.592 469.216,507.128 465.112,510.8 460.576,514.4 455.968,517.136 451,519.872 445.96,522.176 440.488,523.976 435.016,524.912 429.976,525.848 423.64,525.848 418.168,525.848 412.192,524.912 406.72,523.976 400.816,522.176 395.776,519.44 391.24,517.136 386.704,513.968 382.096,510.8 377.992,507.128 373.888,502.592 370.72,498.488 367.552,493.448 365.248,488.408 362.944,483.44 361.144,477.968 360.208,472.496 411.328,467.024 412.192,469.256 414.064,471.56 417.232,473.36 421.336,474.728 423.64,475.232 426.376,474.728 429.112,473.864 431.344,472.496 433.216,470.624 435.016,468.824 435.952,466.52 436.816,463.784 436.816,461.048 436.384,458.816 435.952,456.08 434.584,453.776 432.712,451.976 430.912,450.104 428.176,448.736 425.872,448.304 423.136,447.872 420.4,448.304 395.344,403.664 400.384,401.432 "
   id="polygon203" />
		<polygon
   style="clip-rule:evenodd;fill:#0079c1;fill-rule:evenodd"
   points="214.336,412.808 218.008,416.912 221.68,421.016 225.28,425.48 228.016,430.52 230.32,435.56 232.624,441.032 233.992,446 234.856,451.976 235.36,457.448 235.36,462.92 234.856,468.824 233.992,474.296 232.624,479.768 230.752,484.808 228.52,489.776 225.784,494.816 222.544,499.352 218.944,503.96 214.84,508.064 210.232,511.232 205.696,514.904 201.16,517.64 195.688,519.872 190.648,521.744 185.176,523.112 179.704,524.48 173.728,524.912 166.456,524.912 162.784,523.976 157.312,523.112 151.84,521.744 146.368,519.872 141.4,517.64 136.36,514.4 131.824,511.232 127.72,507.56 123.616,503.456 119.512,498.488 116.776,494.816 114.04,489.776 111.736,484.808 109.936,479.336 108.568,473.864 107.632,468.392 107.2,462.92 107.2,456.944 107.632,451.472 108.568,446 110.368,440.528 112.168,435.056 114.472,430.088 117.64,425.48 120.88,421.016 124.48,416.48 128.584,412.808 133.192,409.136 137.728,405.968 142.264,403.232 147.736,400.928 152.776,399.128 159.616,397.328 169.624,396.392 175.096,396.392 181.072,397.328 186.544,398.192 192.016,400.064 197.056,401.864 188.344,428.216 186.544,432.32 184.744,436.424 182.44,440.096 179.704,443.768 176.968,446.936 173.728,450.104 171.496,449.672 169.192,450.104 167.392,450.608 163.72,452.84 161.416,456.512 160.552,460.616 161.416,464.72 163.72,468.392 167.392,470.624 171.928,471.56 176.032,470.624 179.272,467.888 181.504,464.288 182.44,460.184 181.072,456.08 180.136,454.208 188.848,441.464 193.816,432.824 197.92,424.112 205.264,405.968 209.8,409.136 "
   id="polygon205" />
	</g>
</g>
</svg>