<?xml version="1.0" encoding="iso-8859-1"?>
<!-- Generator: Adobe Illustrator 15.1.0, SVG Export Plug-In . SVG Version: 6.00 Build 0)  -->
<!DOCTYPE svg PUBLIC "-//W3C//DTD SVG 1.1//EN" "http://www.w3.org/Graphics/SVG/1.1/DTD/svg11.dtd">
<svg version="1.1" id="Layer_1" xmlns="http://www.w3.org/2000/svg" xmlns:xlink="http://www.w3.org/1999/xlink" x="0px" y="0px"
	 width="595px" height="842px" viewBox="0 0 595 842" style="enable-background:new 0 0 595 842;" xml:space="preserve">
<g>
	<path style="fill-rule:evenodd;clip-rule:evenodd;fill:none;stroke:#0079C1;stroke-width:0.7067;stroke-miterlimit:10;" d="
		M298.432,174.056c158.76-1.368,262.512,107.856,268.92,259.344c2.232,155.16-103.752,279.36-268.92,278.064
		c-158.76,0.432-266.616-109.728-268.488-271.728C34.552,277.376,144.64,174.056,298.432,174.056z"/>
	<path style="fill-rule:evenodd;clip-rule:evenodd;fill:#0079C1;" d="M298.432,186.368
		c138.312,0.432,255.672,109.656,256.176,256.104c0.432,127.44-99.216,254.88-256.176,256.248
		C158.32,699.152,43.624,585.392,42.256,442.472C42.688,300.56,156.016,186.368,298.432,186.368z"/>
	<polygon style="fill-rule:evenodd;clip-rule:evenodd;fill:#FFFFFF;" points="268.408,490.28 258.904,492.08 239.32,480.704 
		239.32,476.6 249.328,472.496 243.424,287.816 240.688,291.92 238.888,296.96 237.016,301.496 235.216,306.464 234.28,311.504 
		233.416,316.472 232.912,323.312 232.912,330.584 233.848,347.432 237.016,354.704 235.648,359.312 236.584,366.584 
		229.312,368.816 222.472,362.48 217.936,309.2 233.848,262.328 235.648,258.728 237.016,257.36 239.752,255.056 259.768,248.72 
		260.272,244.616 260.272,242.312 257.536,240.512 256.6,233.672 255.664,227.768 255.664,221.432 256.6,218.192 258.4,214.592 
		259.768,213.224 263.44,210.92 268.408,210.056 271.648,210.056 276.616,210.92 285.76,214.088 286.624,215.96 285.76,217.328 
		285.256,217.76 286.192,224.096 285.76,227.336 286.624,231.872 285.76,241.88 284.824,243.248 283.456,243.68 278.92,243.68 
		278.416,247.352 297.136,254.624 299.296,256.424 301.096,258.728 302.464,260.96 303.4,263.264 314.344,308.336 330.688,337.424 
		335.728,341.528 337.528,347.432 335.224,351.968 341.2,366.08 355.744,361.544 355.744,359.312 352.576,359.312 351.208,358.376 
		349.336,355.208 348.472,351.536 348.472,349.736 349.336,348.368 348.472,346.064 348.472,343.832 348.904,342.464 
		348.472,341.096 348.472,339.224 349.336,337.928 351.208,336.056 354.808,333.32 357.976,332.456 361.648,331.52 365.752,331.952 
		369.352,332.888 372.592,334.688 374.824,336.992 376.192,340.16 376.696,343.328 376.192,347.936 375.328,352.472 375.328,353.84 
		375.328,355.208 376.696,357.44 368.488,359.312 370.72,361.112 372.592,362.048 375.76,362.912 379.36,365.216 381.232,367.016 
		383.968,371.12 386.2,375.224 388.072,379.328 393.04,386.6 394.84,391.136 396.208,396.608 397.144,402.944 397.576,406.616 
		397.144,411.152 394.84,414.32 391.672,417.56 387.136,412.52 388.504,409.352 387.568,407.552 389.872,404.816 386.704,395.24 
		378.928,382.496 379.864,393.872 384.832,422.456 382.6,422.888 382.6,434.264 380.296,459.32 381.664,460.688 383.464,462.056 
		385.336,463.424 385.336,466.16 375.76,471.128 369.856,470.264 369.352,447.512 370.72,436.136 370.288,432.032 370.288,429.296 
		369.352,426.56 367.984,424.76 361.216,425.192 362.584,479.336 356.608,480.272 345.232,473.432 344.8,470.696 346.6,468.896 
		348.472,467.96 351.208,467.096 346.6,423.824 339.832,422.456 344.8,398.84 346.6,378.824 335.224,378.392 332.56,372.92 
		329.32,358.376 325.72,355.208 324.352,350.672 297.136,310.136 293.896,288.32 293.464,325.616 299.728,402.08 299.728,452.984 
		300.232,457.016 300.232,458.888 301.096,460.256 302.464,461.12 303.4,461.624 303.4,465.224 291.664,477.536 280.72,477.104 
		280.288,407.552 271.648,355.208 268.912,355.64 	"/>
	<g>
		<polygon style="fill-rule:evenodd;clip-rule:evenodd;fill:#FFFFFF;" points="241.552,564.872 237.52,563.504 230.176,562.136 
			223.84,561.704 216.568,561.704 216.568,563.504 209.728,565.376 202.888,568.112 196.984,571.712 191.512,576.248 
			186.976,581.72 182.872,588.128 180.136,594.464 178.336,601.736 177.904,608.576 178.336,615.848 180.136,622.688 
			182.872,629.528 186.544,635.432 188.776,638.6 194.68,644.504 202.888,649.544 206.992,651.848 216.136,654.08 224.272,654.512 
			234.28,653.648 241.12,651.344 247.528,648.176 253.432,643.64 258.4,638.6 262.504,633.128 265.672,626.792 267.976,627.224 
			270.28,620.384 271.144,613.112 271.144,605.84 270.28,598.568 267.976,591.728 264.808,584.888 260.704,578.984 255.664,573.512 
			250.696,569.912 246.592,567.176 248.896,561.272 291.664,608.576 289.792,611.744 289.36,617.216 290.296,620.888 
			292.096,624.056 296.632,627.728 301.6,629.096 303.4,629.096 305.704,636.8 302.464,636.8 302.464,641.336 314.344,641.336 
			314.344,636.8 310.24,636.8 307.504,627.728 310.672,625.856 313.408,622.688 314.776,619.952 315.712,617.216 323.848,616.352 
			325.72,623.624 328.456,629.96 332.056,636.368 337.096,641.768 342.568,646.376 348.472,649.976 355.312,652.712 
			365.752,655.016 373.024,655.016 379.864,653.648 386.704,651.848 393.472,648.176 398.944,644.072 404.416,639.104 
			408.52,633.128 411.688,626.792 413.992,620.384 415.36,613.112 415.36,605.84 417.16,605.84 416.728,602.24 414.856,594.968 
			412.192,588.128 408.088,581.72 403.048,575.816 397.576,571.28 391.24,567.176 384.4,564.44 377.128,562.64 369.856,562.136 
			362.08,562.64 354.808,564.008 347.968,566.744 336.592,547.16 337.96,544.424 337.528,543.992 338.896,540.752 340.264,540.752 
			341.632,540.752 343,539.888 343.936,539.384 345.232,538.52 351.64,530.312 352.072,528.512 352.072,528.008 351.208,526.64 
			349.336,526.208 343.936,528.008 337.96,528.944 335.224,528.944 327.52,528.008 325.72,527.576 323.416,528.008 322.048,528.512 
			322.048,530.744 325.216,533.984 331.624,538.016 335.224,539.384 333.856,542.12 332.992,542.12 332.992,542.624 
			255.664,542.624 257.968,535.784 257.032,535.352 260.704,525.272 259.768,524.84 260.272,524.408 258.4,523.472 257.968,524.408 
			257.032,523.976 256.168,523.472 255.664,521.672 256.168,521.24 256.168,520.304 256.6,519.872 257.536,519.368 258.4,518.936 
			260.704,518.504 275.68,520.304 276.616,515.768 268.408,514.832 260.704,514.4 258.904,514.4 257.032,514.832 255.232,515.264 
			253.864,516.2 252.928,517.136 252.064,518.504 251.56,519.368 251.128,520.736 251.56,522.104 251.56,523.472 252.496,524.84 
			252.928,525.776 254.296,526.64 255.232,527.576 252.928,533.984 252.064,533.48 		"/>
		<polygon style="fill-rule:evenodd;clip-rule:evenodd;fill:#0079C1;" points="253.432,548.528 330.256,548.528 304.768,603.104 
			301.096,603.104 298.864,594.464 302.464,594.464 302.464,589.928 290.728,589.928 290.728,594.464 294.832,594.464 
			297.136,604.04 295.768,604.472 251.128,555.368 		"/>
		<polygon style="fill-rule:evenodd;clip-rule:evenodd;fill:#0079C1;" points="334.36,552.632 343.936,568.976 341.2,571.28 
			337.96,573.512 335.728,575.816 333.424,578.552 331.192,581.288 328.888,584.456 327.088,587.192 325.72,590.36 324.352,594.032 
			323.416,597.2 322.48,600.872 322.048,604.472 321.616,607.64 321.616,611.312 314.776,612.248 313.408,609.008 312.472,607.64 
			311.104,606.344 309.736,605.408 		"/>
		<polygon style="fill-rule:evenodd;clip-rule:evenodd;fill:#0079C1;" points="349.336,578.12 363.952,604.04 363.016,604.976 
			362.08,606.344 361.648,607.64 332.056,610.376 332.056,607.208 332.56,604.04 332.992,600.872 333.856,598.136 335.224,594.968 
			336.592,592.232 337.96,589.496 339.832,586.76 342.064,584.456 344.368,582.224 346.6,579.92 		"/>
		<polygon style="fill-rule:evenodd;clip-rule:evenodd;fill:#0079C1;" points="353.008,575.816 356.176,574.88 359.344,573.512 
			362.08,573.08 366.184,572.144 368.92,572.144 372.088,572.144 375.328,572.648 378.496,573.512 381.664,574.448 384.832,575.384 
			387.568,577.184 390.304,578.552 393.04,580.856 395.344,582.656 397.576,585.392 399.88,587.624 401.68,590.36 403.048,593.6 
			404.416,596.264 405.352,599.504 406.216,602.672 406.72,605.84 406.72,609.008 406.72,612.68 406.216,615.848 405.784,619.016 
			404.416,622.256 403.48,624.992 401.68,628.16 400.312,630.896 398.08,633.128 395.776,635.864 393.472,638.168 390.736,639.968 
			388.072,641.768 385.336,643.136 382.096,644.504 379.36,645.44 376.192,646.376 373.024,646.808 369.352,646.808 
			366.184,646.808 363.016,646.376 359.848,645.44 356.176,644.504 353.44,643.136 350.704,641.768 347.968,639.968 
			345.232,638.168 343,635.864 340.696,633.128 338.896,630.896 337.096,628.16 335.728,624.992 334.36,622.256 333.424,619.016 
			332.56,615.848 362.08,612.68 363.016,614.048 363.952,615.416 365.752,616.352 367.984,617.216 369.352,617.216 371.224,617.216 
			372.592,616.784 373.96,615.848 374.824,614.984 375.76,613.616 376.696,612.248 377.128,610.88 377.128,609.008 377.128,607.64 
			376.696,606.344 375.76,604.976 374.824,604.04 373.456,602.672 372.088,602.24 370.72,601.736 369.352,601.736 367.552,601.736 
					"/>
		<polygon style="fill-rule:evenodd;clip-rule:evenodd;fill:#0079C1;" points="242.92,577.184 245.656,578.984 248.392,581.288 
			250.696,583.52 252.496,585.824 254.296,588.56 256.168,591.296 257.536,594.464 258.904,597.632 259.768,600.368 260.272,604.04 
			260.704,607.208 260.704,610.376 260.272,613.616 259.768,616.784 258.904,619.952 257.968,623.12 256.6,625.856 254.8,628.592 
			252.928,631.328 250.696,634.064 248.392,636.368 246.16,638.168 243.424,640.472 240.688,641.768 237.52,643.136 234.28,644.504 
			231.544,645.44 227.944,645.872 224.776,645.872 220.672,645.872 218.368,645.872 215.2,645.008 212.032,644.504 208.792,643.136 
			206.056,641.768 203.392,640.472 200.656,638.168 197.92,636.368 195.616,634.064 193.312,630.896 192.016,628.592 
			190.144,625.856 188.776,622.688 187.912,619.952 186.976,616.784 186.544,613.616 186.04,609.944 186.04,606.776 
			186.544,603.608 186.976,600.368 187.912,597.2 189.28,594.464 190.648,591.296 192.448,588.56 194.248,585.824 196.048,583.52 
			198.352,581.288 201.088,578.984 203.824,577.184 206.56,575.816 209.728,574.448 212.896,573.08 216.568,572.144 
			222.472,571.712 225.64,571.712 228.808,572.144 232.048,572.648 235.216,573.512 238.384,574.88 233.416,589.928 232.48,592.664 
			231.112,594.968 229.744,597.2 228.376,599 226.576,600.872 224.776,602.672 223.408,602.672 222.04,602.672 221.104,603.104 
			218.8,604.472 217.432,606.776 217,609.008 217.432,611.312 218.8,613.616 221.104,614.984 223.408,615.416 226.144,614.48 
			227.944,613.112 229.312,610.88 229.744,608.576 229.312,606.344 228.376,604.976 233.416,597.632 236.584,592.664 
			238.888,587.624 		"/>
	</g>
</g>
</svg>
