<?xml version="1.0" encoding="UTF-8" standalone="no"?>
<!-- Generator: Adobe Illustrator 15.1.0, SVG Export Plug-In . SVG Version: 6.00 Build 0)  -->

<svg
   xmlns:dc="http://purl.org/dc/elements/1.1/"
   xmlns:cc="http://creativecommons.org/ns#"
   xmlns:rdf="http://www.w3.org/1999/02/22-rdf-syntax-ns#"
   xmlns:svg="http://www.w3.org/2000/svg"
   xmlns="http://www.w3.org/2000/svg"
   xmlns:sodipodi="http://sodipodi.sourceforge.net/DTD/sodipodi-0.dtd"
   xmlns:inkscape="http://www.inkscape.org/namespaces/inkscape"
   version="1.1"
   id="Layer_1"
   x="0px"
   y="0px"
   width="539.96625"
   height="539.93182"
   viewBox="0 0 539.96625 539.93182"
   xml:space="preserve"
   sodipodi:docname="424.svg"
   inkscape:version="0.92.5 (2060ec1f9f, 2020-04-08)"><metadata
   id="metadata278"><rdf:RDF><cc:Work
       rdf:about=""><dc:format>image/svg+xml</dc:format><dc:type
         rdf:resource="http://purl.org/dc/dcmitype/StillImage" /></cc:Work></rdf:RDF></metadata><defs
   id="defs276" /><sodipodi:namedview
   pagecolor="#ffffff"
   bordercolor="#666666"
   borderopacity="1"
   objecttolerance="10"
   gridtolerance="10"
   guidetolerance="10"
   inkscape:pageopacity="0"
   inkscape:pageshadow="2"
   inkscape:window-width="640"
   inkscape:window-height="480"
   id="namedview274"
   showgrid="false"
   inkscape:zoom="0.28028504"
   inkscape:cx="281.94941"
   inkscape:cy="269.15654"
   inkscape:window-x="0"
   inkscape:window-y="0"
   inkscape:window-maximized="0"
   inkscape:current-layer="Layer_1" />
<g
   id="g271"
   transform="translate(-15.550592,-150.2247)">
	<path
   style="clip-rule:evenodd;fill:none;fill-rule:evenodd;stroke:#0079c1;stroke-width:0.70670003;stroke-miterlimit:10"
   d="M 285.76,150.584 C 445.096,149.648 548.704,259.232 555.112,411.296 557.848,566.96 451.432,691.16 285.328,689.792 125.992,690.224 17.776,579.704 15.904,417.704 20.512,254.696 131.032,151.016 285.76,150.584 Z"
   id="path247"
   inkscape:connector-curvature="0" />
	<path
   style="clip-rule:evenodd;fill:#0079c1;fill-rule:evenodd"
   d="m 285.328,163.4 c 138.744,0.432 256.536,110.016 256.968,257.04 0.504,127.8 -99.504,255.6 -256.968,256.536 C 144.712,677.912 29.656,563.72 28.72,420.44 28.72,277.952 142.408,163.4 285.328,163.4 Z"
   id="path249"
   inkscape:connector-curvature="0" />
	<g
   id="g269">
		<polygon
   style="clip-rule:evenodd;fill:#ffffff;fill-rule:evenodd"
   points="341.848,555.512 341.848,551.408 352.36,546.872 345.952,361.544 343.72,366.08 341.416,371.12 339.616,375.656 338.248,380.696 336.88,385.736 335.944,390.776 335.512,397.616 335.944,404.888 336.376,421.736 339.616,429.008 338.248,433.616 339.616,440.888 332.272,443.192 325.432,436.784 320.896,383.432 336.88,336.416 338.68,332.744 339.616,331.376 342.784,329.144 362.872,322.304 363.304,318.632 362.872,316.328 360.568,314.528 359.2,307.688 358.768,301.712 358.768,295.304 359.704,292.136 361.504,288.464 362.872,287.096 366.112,284.792 371.584,283.928 374.752,283.928 379.288,284.36 388.936,288.032 389.368,289.4 388.936,290.768 388.432,291.2 388.936,298.04 388.432,300.776 389.8,305.816 388.432,315.896 388,317.264 386.632,317.696 382.024,317.696 381.16,321.368 400.312,328.64 402.184,330.512 403.984,332.312 405.352,335.048 406.72,337.352 417.664,382.568 434.08,411.728 438.688,415.904 440.488,421.736 438.688,426.272 444.592,440.456 459.208,435.92 459.208,433.616 456.04,433.616 454.672,432.68 452.368,429.512 451.936,425.84 451.936,424.04 452.368,422.168 451.936,420.008 451.936,418.136 452.368,416.768 451.936,415.4 451.432,413.6 452.368,411.728 454.168,409.928 458.344,407.624 461.08,406.76 465.184,405.824 469.288,405.824 472.888,407.192 476.128,408.992 478.432,411.296 479.8,414.536 479.8,417.704 479.296,422.168 478.864,426.776 478.432,428.144 478.864,429.512 479.8,431.744 472.024,433.616 474.256,435.416 476.128,435.92 479.296,437.288 482.536,439.52 484.336,441.392 487.072,445.496 489.808,449.6 491.176,453.704 496.648,460.976 498.52,465.584 499.888,471.056 500.752,476.96 501.256,481.064 500.32,485.168 498.52,488.84 495.28,492.08 490.744,487.04 491.608,483.8 491.176,482 493.48,479.264 490.24,469.688 482.536,456.872 483.4,467.816 488.008,497.048 486.136,497.552 486.136,508.928 483.904,534.056 485.272,535.424 486.64,536.792 488.872,537.728 488.872,540.896 478.864,545.504 473.392,545 472.888,522.176 473.824,510.8 473.392,506.696 473.392,503.888 472.888,501.152 471.088,499.352 464.248,499.784 466.048,553.712 460.144,555.08 448.264,547.736 448.264,545.504 450.064,543.632 451.936,542.264 454.168,541.832 450.064,498.416 442.792,497.048 447.832,473.36 450.064,453.272 438.184,452.768 435.952,447.296 432.712,432.68 429.112,429.512 427.24,424.904 399.88,384.368 397.144,362.48 396.64,399.92 402.616,476.528 402.616,527.648 403.048,531.32 403.552,533.624 404.416,534.488 405.352,535.856 406.72,536.36 406.72,539.96 394.84,552.344 383.392,551.84 383.392,481.568 374.32,429.512 372.016,429.944 371.584,565.088 361.504,566.456 "
   id="polygon251" />
		<g
   id="g265">
			<polygon
   style="clip-rule:evenodd;fill:#ffffff;fill-rule:evenodd"
   points="86.248,377.96 79.84,377.528 72.568,377.528 72.568,379.832 65.728,381.2 58.888,383.936 52.912,387.536 47.44,392.576 42.4,397.616 38.8,404.024 36.064,410.36 34.192,417.704 33.76,424.472 34.192,431.744 36.064,439.088 38.8,445.496 42.4,451.904 44.704,454.64 50.608,460.544 58.384,465.584 62.992,467.816 72.136,470.12 80.344,470.624 89.92,469.688 96.76,467.384 103.168,464.216 109.072,460.112 114.112,455.072 118.648,449.096 121.888,442.76 123.688,443.192 125.992,436.352 127.36,429.008 127.36,421.736 126.424,414.536 124.12,407.624 120.952,400.784 116.848,394.88 111.376,389.84 106.768,385.736 102.664,383 104.536,377.024 147.448,424.472 146.08,427.64 145.648,433.184 146.512,436.784 148.384,440.024 152.488,443.624 157.96,444.992 159.76,444.992 162.064,452.768 158.392,452.768 158.392,457.376 170.704,457.376 170.704,452.768 166.6,452.768 163.864,443.624 167.104,441.824 169.84,438.656 171.208,435.92 171.64,433.184 180.28,432.248 182.152,439.52 184.888,445.928 188.56,452.336 193.096,457.808 198.568,462.344 204.976,466.016 211.384,468.752 222.328,471.056 229.168,471.056 236.44,469.688 243.352,467.816 249.688,464.648 255.664,460.112 260.704,455.072 265.24,449.6 268.408,443.192 270.712,436.352 272.08,429.008 272.08,421.736 273.952,421.736 273.448,418.136 271.648,410.864 268.408,404.024 264.808,397.616 259.768,392.144 254.296,387.104 247.888,383 241.048,380.264 233.704,378.464 226,377.96 218.656,378.464 211.384,380.264 204.544,383 193.096,362.912 194.464,360.176 193.528,359.744 194.896,356.504 196.768,356.504 198.136,356.504 199,356.072 200.44,355.136 201.808,354.2 208.144,345.992 208.648,344.192 208.648,343.76 207.28,342.392 205.912,341.888 200.44,343.76 194.464,344.624 191.728,344.624 183.952,343.76 181.72,343.76 179.848,343.76 178.48,344.192 178.48,346.496 181.72,349.664 188.056,353.768 191.296,355.568 190.36,357.872 189.424,357.872 188.992,358.304 111.376,358.304 114.112,351.464 113.176,351.032 116.848,341.024 115.912,341.024 115.912,340.088 114.112,339.152 114.112,340.088 113.176,339.584 112.312,339.152 111.808,337.352 111.808,336.848 112.312,335.984 112.744,335.48 113.68,335.048 114.544,334.616 116.416,334.112 131.896,335.984 132.4,331.88 124.624,330.512 116.416,330.008 115.048,330.008 112.744,330.512 111.376,330.944 109.576,331.88 108.64,332.744 108.208,334.112 107.704,335.048 107.272,336.416 107.272,337.784 107.704,339.152 108.208,340.52 109.072,341.888 110.008,342.824 111.376,343.256 109.072,349.664 108.208,349.232 97.696,380.696 93.592,379.328 "
   id="polygon253" />
			<polygon
   style="clip-rule:evenodd;fill:#0079c1;fill-rule:evenodd"
   points="161.128,419.072 157.024,419.072 155.224,410.864 158.824,410.864 158.824,405.824 147.016,405.824 147.016,410.864 150.616,410.864 153.352,420.008 151.984,420.872 106.768,371.12 109.072,364.28 186.688,364.28 "
   id="polygon255" />
			<polygon
   style="clip-rule:evenodd;fill:#0079c1;fill-rule:evenodd"
   points="197.2,387.104 194.464,389.408 192.16,391.64 189.424,394.376 187.192,397.184 185.32,400.352 183.52,403.52 182.152,406.76 180.784,409.928 179.848,413.096 178.912,416.768 178.48,420.44 178.048,423.536 178.048,427.208 171.208,428.144 169.84,424.904 168.904,423.536 167.536,422.168 166.168,421.304 190.36,368.384 200.44,385.304 "
   id="polygon257" />
			<polygon
   style="clip-rule:evenodd;fill:#0079c1;fill-rule:evenodd"
   points="219.592,420.872 218.656,422.168 218.224,423.536 188.56,426.272 188.56,423.104 188.992,420.008 189.424,416.768 190.36,414.032 191.296,410.864 192.664,408.128 194.464,405.392 196.264,402.656 198.136,400.352 200.44,398.048 203.176,396.248 205.408,393.944 220.528,420.008 "
   id="polygon259" />
			<polygon
   style="clip-rule:evenodd;fill:#0079c1;fill-rule:evenodd"
   points="215.488,389.408 218.656,388.904 222.76,388.472 225.496,388.04 228.736,388.04 231.904,388.472 235.072,389.408 238.312,390.272 241.048,391.208 244.216,393.008 246.952,394.376 249.688,396.68 251.992,398.552 254.296,401.288 256.6,403.52 257.968,406.256 259.768,409.496 261.136,412.232 262.072,415.4 262.504,418.64 262.936,421.736 263.44,424.904 263.44,428.576 262.936,431.744 262.072,434.984 261.136,438.152 259.768,440.888 258.4,444.128 256.6,446.864 254.728,449.6 252.424,451.904 250.192,454.136 247.456,456.008 244.72,457.808 241.984,459.176 238.744,460.544 235.576,461.48 232.336,462.344 229.6,462.848 226,462.848 222.76,462.848 219.592,462.344 216.352,461.48 212.752,460.544 209.512,459.176 207.28,457.808 204.544,456.008 201.808,454.136 199.504,451.904 197.2,449.6 195.4,446.864 193.528,444.128 191.728,440.888 190.792,438.152 189.928,434.984 188.992,431.744 218.656,428.576 219.592,429.944 220.528,431.312 222.328,432.248 224.632,433.184 226,433.184 227.8,433.184 229.168,432.68 230.536,431.744 231.472,430.88 232.336,429.512 233.272,428.144 233.704,426.776 233.704,425.408 233.272,423.536 232.84,422.168 232.336,420.872 230.968,420.008 230.104,419.072 228.736,418.136 227.368,417.704 225.496,417.704 224.128,417.704 209.512,392.144 212.248,390.776 "
   id="polygon261" />
			<polygon
   style="clip-rule:evenodd;fill:#0079c1;fill-rule:evenodd"
   points="104.032,397.184 106.336,399.416 108.64,401.72 110.44,404.456 112.312,407.192 113.68,410.36 114.544,413.6 115.48,416.768 116.416,420.008 116.416,423.104 116.416,426.272 116.416,429.512 115.912,432.68 115.048,435.92 113.68,439.088 112.312,441.824 110.944,444.992 109.072,447.296 106.768,450.032 104.536,452.336 101.8,454.64 99.496,456.44 96.328,457.808 93.592,459.176 90.352,460.544 87.184,461.48 83.944,461.912 80.776,461.912 76.672,462.344 74.368,461.912 71.2,461.48 67.96,460.544 64.792,459.176 62.056,457.808 58.888,456.44 56.152,454.136 53.848,452.336 51.544,450.032 49.24,446.864 47.44,444.56 46.072,441.824 44.704,439.088 43.336,435.92 42.904,432.68 41.968,429.512 41.968,426.272 41.968,422.672 42.4,419.504 42.904,416.336 43.768,413.096 44.704,410.36 46.504,407.192 47.872,404.456 49.744,401.72 51.976,399.416 54.28,397.184 57.016,394.88 59.752,393.008 62.488,391.64 65.728,390.272 68.464,389.408 72.568,388.04 78.04,387.536 81.712,387.536 84.88,388.04 88.048,388.472 91.288,389.408 94.024,390.776 88.984,406.256 88.048,408.56 87.184,410.864 85.816,413.096 83.944,414.968 82.576,416.768 80.776,418.64 79.408,418.64 78.04,418.64 77.104,419.072 74.872,420.44 73.504,422.672 73,424.904 73.504,427.208 74.872,429.512 77.104,430.88 79.408,431.312 82.144,430.376 83.944,429.008 85.312,427.208 85.816,424.472 84.88,422.168 84.448,421.304 89.416,413.6 92.224,408.992 94.96,404.024 99.064,393.008 101.8,394.88 "
   id="polygon263" />
		</g>
		<rect
   x="279.85599"
   y="206.312"
   style="clip-rule:evenodd;fill:#ffffff;fill-rule:evenodd"
   width="12.312"
   height="430.056"
   id="rect267" />
	</g>
</g>
</svg>