<?xml version="1.0" encoding="iso-8859-1"?>
<!-- Generator: Adobe Illustrator 15.1.0, SVG Export Plug-In . SVG Version: 6.00 Build 0)  -->
<!DOCTYPE svg PUBLIC "-//W3C//DTD SVG 1.1//EN" "http://www.w3.org/Graphics/SVG/1.1/DTD/svg11.dtd">
<svg version="1.1" id="Layer_1" xmlns="http://www.w3.org/2000/svg" xmlns:xlink="http://www.w3.org/1999/xlink" x="0px" y="0px"
	 width="595px" height="842px" viewBox="0 0 595 842" style="enable-background:new 0 0 595 842;" xml:space="preserve">
<g>
	<path style="fill-rule:evenodd;clip-rule:evenodd;fill:none;stroke:#0079C1;stroke-width:0.7061;stroke-miterlimit:10;" d="
		M300.304,136.544c159.264-0.936,262.8,108.576,269.208,260.568c2.736,155.52-103.608,279.648-269.208,278.28
		c-159.192,0.432-267.336-110.016-269.64-271.944C35.704,240.584,146.152,136.976,300.304,136.544z"/>
	<path style="fill-rule:evenodd;clip-rule:evenodd;fill:#0079C1;" d="M300.304,149.36c138.672,0.432,255.96,109.944,256.896,256.824
		c0,127.728-99.936,255.456-256.896,256.392C159.4,663.512,44.416,549.392,43.48,406.184
		C43.48,263.84,157.096,149.36,300.304,149.36z"/>
	<g>
		<polygon style="fill-rule:evenodd;clip-rule:evenodd;fill:#FFFFFF;" points="376.48,367.448 372.376,366.08 364.6,364.712 
			358.696,364.208 350.92,364.208 351.424,366.08 344.08,367.88 337.744,370.616 331.336,374.288 325.864,378.824 321.256,384.296 
			317.152,390.704 314.416,397.112 313.048,404.384 312.184,411.224 312.616,418.568 314.416,425.336 317.152,432.176 
			320.824,438.08 323.128,441.248 329.464,447.224 337.24,452.264 341.344,454.496 350.92,456.8 359.128,457.232 368.704,455.864 
			375.616,454.064 381.952,450.896 387.928,446.288 392.896,441.248 397,435.776 400.24,428.936 402.472,429.872 404.776,423.032 
			405.712,415.832 405.712,408.488 404.776,401.216 402.472,394.376 399.304,387.536 395.2,381.56 390.16,376.088 385.192,372.416 
			381.088,369.68 383.32,363.776 426.232,411.224 424.432,414.464 423.928,419.936 424.864,423.464 426.664,426.704 
			431.272,430.304 436.24,431.672 438.112,431.672 440.344,439.448 437.176,439.448 437.176,443.984 449.056,443.984 
			449.056,439.448 444.952,439.448 442.216,430.304 445.888,428.072 448.12,425.336 449.992,422.6 450.424,419.936 458.632,419 
			460.432,426.2 463.168,432.608 467.272,438.512 471.88,443.984 477.352,449.024 483.256,452.696 490.096,455.432 500.608,457.736 
			507.88,457.736 515.224,456.368 522.064,454.064 528.472,450.896 533.944,446.72 539.416,441.752 543.52,435.776 546.688,429.44 
			548.992,422.6 550.36,415.832 550.36,408.488 552.16,408.488 551.728,404.816 549.856,397.544 547.12,390.704 543.016,384.296 
			538.48,378.392 532.576,373.784 526.168,369.68 519.328,366.944 511.984,365.144 504.712,364.208 497.44,365.144 490.096,366.512 
			482.824,369.248 471.88,349.664 472.744,346.928 472.312,346.424 473.68,343.256 475.048,343.256 476.416,343.256 477.784,342.32 
			479.152,341.888 480.088,340.952 486.496,332.312 486.928,330.944 486.928,330.008 485.992,329.072 484.624,328.64 
			478.72,330.008 473.248,331.376 470.008,331.376 462.304,330.008 460.432,330.008 458.2,330.44 456.832,330.944 456.832,333.176 
			460.432,336.416 466.408,340.52 470.008,341.888 468.64,344.624 468.208,344.192 467.776,345.056 390.16,345.056 392.464,337.784 
			391.528,337.784 395.2,327.704 394.264,327.272 394.768,326.84 392.896,325.904 392.464,326.84 391.528,326.336 391.096,325.472 
			390.664,324.104 390.664,323.168 390.664,322.736 391.096,322.232 392.032,321.8 393.4,321.368 395.2,320.864 410.248,322.736 
			411.184,318.128 403.408,317.264 395.2,316.76 393.4,316.76 391.528,317.264 389.728,317.696 388.36,318.632 387.424,319.496 
			386.56,320.432 386.056,321.8 386.056,323.168 386.056,324.536 386.056,325.904 386.992,327.272 387.928,328.208 388.792,329.072 
			389.728,330.008 387.424,336.416 386.992,335.912 		"/>
		<g>
			<polygon style="fill-rule:evenodd;clip-rule:evenodd;fill:#0079C1;" points="387.928,351.032 465.04,351.032 439.48,405.752 
				435.808,405.752 433.504,397.112 437.608,397.112 437.608,392.504 425.8,392.504 425.8,397.112 429.4,397.112 431.704,406.688 
				430.336,407.12 385.624,357.872 			"/>
			<polygon style="fill-rule:evenodd;clip-rule:evenodd;fill:#0079C1;" points="469.144,355.136 478.72,371.552 475.984,373.784 
				473.248,376.088 470.512,378.392 468.208,381.128 465.904,383.864 463.672,387.032 462.304,389.768 460.432,393.008 
				459.064,396.608 458.2,399.848 457.264,403.448 456.832,406.688 456.328,410.288 456.328,413.96 449.488,414.896 448.12,411.656 
				447.256,410.288 445.888,408.92 444.448,408.056 			"/>
			<polygon style="fill-rule:evenodd;clip-rule:evenodd;fill:#0079C1;" points="484.192,380.696 498.808,406.688 497.872,407.552 
				496.936,408.92 496.504,410.288 466.84,413.096 466.84,409.856 467.272,406.688 468.208,403.448 468.64,400.712 470.008,397.544 
				471.376,394.808 472.744,392.072 474.616,389.336 476.848,387.032 479.152,384.8 481.456,382.496 			"/>
			<polygon style="fill-rule:evenodd;clip-rule:evenodd;fill:#0079C1;" points="487.864,378.392 491.032,377.024 494.2,376.088 
				497.44,375.656 501.04,374.72 503.776,374.72 507.016,374.72 510.184,375.224 513.352,375.656 516.592,377.024 519.76,377.96 
				522.496,379.328 525.232,381.128 527.968,382.928 530.704,385.232 533.008,387.536 534.808,390.272 536.68,393.008 
				538.048,396.176 539.416,398.912 540.28,402.08 541.216,405.32 541.648,408.488 541.648,411.656 541.648,414.896 
				541.216,418.568 540.784,421.664 539.848,424.4 538.48,427.568 537.112,430.808 535.312,433.544 533.008,435.776 
				531.208,438.512 528.472,440.816 526.168,442.616 523.432,444.488 520.264,445.856 517.456,447.224 514.288,448.088 
				511.12,449.024 507.88,449.528 504.28,449.528 501.04,449.528 497.872,449.024 494.704,448.088 491.032,447.224 488.296,445.856 
				485.56,444.488 482.824,442.616 480.088,440.816 477.784,438.512 475.48,435.776 473.68,433.544 471.88,430.808 470.512,427.568 
				469.144,424.4 468.208,421.664 467.776,418.568 496.936,415.328 497.872,416.696 498.808,417.632 500.608,419 502.912,419.936 
				504.712,419.936 506.08,419.936 507.448,419.432 508.816,418.568 510.184,417.632 511.12,416.264 511.552,414.896 
				511.984,413.528 511.984,411.656 511.984,410.288 511.552,408.92 510.616,407.552 509.752,406.184 508.384,405.32 
				507.016,404.816 505.648,404.384 504.28,404.384 502.408,404.384 			"/>
			<polygon style="fill-rule:evenodd;clip-rule:evenodd;fill:#0079C1;" points="377.416,379.76 380.152,381.56 382.888,383.864 
				385.192,386.168 386.992,388.4 389.296,391.136 390.664,393.872 392.032,397.112 393.4,399.848 394.264,403.016 394.768,406.184 
				395.2,409.856 395.2,413.096 394.768,416.264 394.264,419.432 393.4,422.6 392.464,425.768 391.096,428.504 389.296,431.24 
				387.424,433.976 385.192,436.712 382.888,439.016 380.584,440.816 377.848,443.12 375.112,444.488 371.944,445.856 
				369.208,447.224 365.968,447.656 362.8,448.592 359.128,448.592 355.024,448.592 352.792,448.592 349.552,447.656 
				346.384,447.224 343.216,445.856 340.48,444.488 337.744,442.616 335.008,440.816 332.704,439.016 329.968,436.28 
				327.664,433.544 326.296,431.24 324.496,428.504 323.128,425.336 322.192,422.6 321.256,419.432 320.824,416.264 
				320.392,412.592 320.392,409.424 320.824,406.184 321.256,403.016 322.192,399.848 323.56,396.608 324.928,393.872 
				326.728,391.136 328.6,388.4 330.832,386.168 333.136,383.864 335.44,381.56 338.176,379.76 340.912,378.392 344.08,377.024 
				347.32,375.656 350.92,374.72 356.896,374.288 360.064,374.288 363.232,374.72 366.472,375.224 369.64,376.088 372.88,377.456 
				367.84,392.504 366.904,395.24 365.536,397.544 364.168,399.848 362.8,401.648 361,403.448 359.128,405.32 357.76,405.32 
				356.896,405.32 355.528,405.752 353.224,407.12 351.856,408.92 351.424,411.656 352.288,413.96 353.656,416.264 355.528,417.632 
				358.264,417.632 360.496,417.2 362.368,415.832 363.736,413.528 364.168,411.224 363.736,408.92 362.8,407.552 367.84,400.28 
				371.008,395.24 373.312,390.272 			"/>
		</g>
		<polygon style="fill-rule:evenodd;clip-rule:evenodd;fill:#FFFFFF;" points="152.56,551.696 142.48,553.064 122.896,541.688 
			122.896,537.584 133.336,533.48 127,348.296 124.696,352.832 122.392,357.368 120.592,362.408 119.224,367.448 117.856,372.416 
			116.92,377.456 116.488,383.864 116.92,391.136 117.424,408.488 120.592,415.328 119.656,420.368 120.592,427.568 113.32,429.872 
			106.48,423.464 101.872,369.68 117.856,322.736 119.656,319.496 120.592,318.128 123.76,315.896 143.848,309.056 144.352,304.952 
			143.848,303.08 141.544,301.28 140.68,294.44 139.744,288.464 139.744,282.128 140.68,278.888 142.48,275.288 143.848,273.92 
			147.52,271.616 152.56,270.68 155.728,270.68 160.768,271.184 169.84,274.784 170.344,276.152 169.84,277.52 169.408,278.024 
			170.344,284.864 169.84,287.6 170.776,292.568 169.408,302.648 168.976,304.016 167.608,304.016 163,304.448 162.136,308.12 
			181.288,315.392 183.088,317.264 184.96,319.064 186.76,321.368 187.696,324.104 198.64,368.816 215.056,398.48 219.592,402.08 
			221.896,408.488 219.592,413.096 225.568,426.704 240.112,422.096 240.112,420.368 236.944,420.368 235.576,419 233.272,416.264 
			232.84,412.592 232.84,410.792 233.272,408.92 232.84,406.688 232.84,404.816 233.272,403.448 232.84,402.08 232.408,400.28 
			233.776,398.48 235.576,396.608 239.248,394.376 242.416,393.44 246.088,392.504 250.192,392.504 253.792,393.44 257.032,395.24 
			259.336,397.976 260.704,401.216 261.136,404.384 260.2,408.92 259.768,413.528 259.336,414.896 259.768,416.264 260.704,418.568 
			252.928,420.368 255.16,422.096 257.032,422.6 260.2,423.464 263.44,425.768 265.672,428.072 268.408,432.176 270.712,436.28 
			272.512,439.88 277.552,447.656 279.352,451.76 280.72,457.232 281.656,463.64 282.088,467.744 281.224,471.848 279.352,475.52 
			276.184,478.256 271.648,473.216 272.512,470.48 272.08,468.68 274.384,465.44 271.144,456.368 263.44,443.12 264.304,454.496 
			269.344,483.224 267.04,483.728 267.04,495.608 264.808,520.232 266.176,522.032 267.544,523.4 269.776,524.336 269.776,527.504 
			259.768,532.112 254.296,531.608 253.792,508.784 254.728,496.976 254.296,493.304 254.728,490.136 253.792,487.832 
			251.992,485.528 245.584,485.96 246.952,540.32 241.048,541.688 229.672,534.344 229.168,532.112 231.04,529.808 232.84,528.872 
			235.576,528.44 231.04,485.096 223.696,483.728 228.736,459.536 231.04,439.448 219.16,439.016 216.856,433.976 213.688,419 
			210.016,415.832 208.648,411.656 181.288,371.048 178.048,349.16 177.616,386.168 183.592,462.704 184.024,514.256 
			184.024,517.928 184.456,519.728 185.392,521.096 186.328,522.032 187.696,522.968 187.696,526.64 175.816,538.952 
			164.368,538.448 164.368,468.176 155.296,416.264 152.992,416.696 		"/>
		<rect x="293.536" y="192.704" style="fill-rule:evenodd;clip-rule:evenodd;fill:#FFFFFF;" width="12.672" height="429.696"/>
	</g>
</g>
</svg>
