<?xml version="1.0" encoding="iso-8859-1"?>
<!-- Generator: Adobe Illustrator 15.1.0, SVG Export Plug-In . SVG Version: 6.00 Build 0)  -->
<!DOCTYPE svg PUBLIC "-//W3C//DTD SVG 1.1//EN" "http://www.w3.org/Graphics/SVG/1.1/DTD/svg11.dtd">
<svg version="1.1" id="Layer_1" xmlns="http://www.w3.org/2000/svg" xmlns:xlink="http://www.w3.org/1999/xlink" x="0px" y="0px"
	 width="595px" height="842px" viewBox="0 0 595 842" style="enable-background:new 0 0 595 842;" xml:space="preserve">
<g>
	
		<rect x="137.944" y="220.136" style="fill-rule:evenodd;clip-rule:evenodd;fill:#007AC2;stroke:#0079C1;stroke-width:0.5;stroke-miterlimit:10;" width="340.848" height="340.848"/>
	
		<polygon style="fill-rule:evenodd;clip-rule:evenodd;fill:#FFFFFF;stroke:#0079C1;stroke-width:0.5;stroke-miterlimit:10;" points="
		137.944,234.032 138.304,231.44 139.168,229.064 140.32,226.184 142.048,224.168 144.064,222.44 146.368,221.288 148.96,220.424 
		151.552,220.136 464.896,220.136 467.776,220.424 470.44,221.288 472.744,222.44 474.76,224.456 476.488,226.472 477.64,229.064 
		478.504,231.728 478.504,234.32 478.504,547.376 478.504,550.256 477.64,552.848 476.2,555.152 474.472,557.456 472.168,558.896 
		469.576,560.048 466.912,560.984 464.032,560.984 153.28,560.984 150.4,560.624 147.52,559.76 144.928,558.608 142.912,556.88 
		140.896,554.576 139.456,551.984 138.592,550.256 138.304,547.952 	"/>
	<polygon style="fill-rule:evenodd;clip-rule:evenodd;fill:#007AC2;" points="145.216,234.608 145.504,232.88 146.368,231.152 
		147.52,229.352 149.248,228.488 150.976,227.912 463.168,227.912 465.184,227.912 466.912,228.776 468.352,229.64 469.864,231.152 
		470.44,232.88 471.016,234.608 471.016,545.36 470.728,547.376 469.864,549.104 468.712,550.832 467.2,551.984 465.184,552.848 
		463.168,553.424 152.992,553.424 150.976,553.136 148.96,552.272 147.52,550.832 146.368,549.392 145.504,547.376 145.216,545.36 	
		"/>
	<polygon style="fill-rule:evenodd;clip-rule:evenodd;fill:#FFFFFF;" points="145.792,509.288 308.224,227.624 470.44,509.288 	"/>
	<g>
		<polygon style="fill-rule:evenodd;clip-rule:evenodd;" points="180.424,500.072 205.84,455.576 228.016,455.576 209.008,500.072 
					"/>
		<polygon style="fill-rule:evenodd;clip-rule:evenodd;" points="237.592,500.072 244.216,478.688 261.496,488.192 269.848,476.384 
			265.816,500.072 		"/>
		<polygon style="fill-rule:evenodd;clip-rule:evenodd;" points="294.4,500.072 296.416,455.576 319.456,455.576 322.336,500.072 		
			"/>
		<polygon style="fill-rule:evenodd;clip-rule:evenodd;" points="350.92,500.072 341.992,455.576 343.432,455.576 362.44,473.216 
			362.152,474.368 355.528,476.384 352.36,486.176 374.608,486.752 378.928,500.072 		"/>
		<polygon style="fill-rule:evenodd;clip-rule:evenodd;" points="407.8,500.072 387.28,455.576 410.104,455.576 435.808,500.072 		
			"/>
		<polygon style="fill-rule:evenodd;clip-rule:evenodd;" points="250.552,467.744 239.896,465.152 234.64,469.184 260.632,484.16 
			312.544,408.92 331.552,440.6 365.608,472.352 365.032,476.96 358.696,478.688 356.68,483.296 370.576,483.872 382.096,466.592 
			349.48,428.144 332.416,392.144 333.28,390.416 333.856,388.4 333.856,384.368 333.28,381.488 330.976,374.576 329.248,367.088 
			328.672,345.704 337.672,358.088 341.992,386.672 342.856,388.976 344.872,390.704 347.464,391.28 349.768,390.416 351.496,388.4 
			351.784,387.248 351.208,378.896 352.936,378.32 349.48,348.584 334.144,321.728 325.216,316.256 320.896,313.952 
			317.728,311.648 316.576,307.904 316.288,305.312 316.864,301.28 317.44,297.248 317.728,292.856 317.728,288.824 316.576,285.08 
			313.984,282.2 309.664,280.184 305.344,279.608 300.664,280.184 297.568,281.912 294.688,283.64 293.824,286.52 293.536,289.4 
			293.536,292.28 293.824,294.008 293.536,296.96 293.824,300.992 294.976,306.176 296.128,308.768 302.392,309.92 303.328,314.528 
			291.232,324.608 287.2,350.888 263.8,370.544 262.072,372.848 261.784,375.728 263.224,378.032 265.528,379.76 268.408,379.76 
			275.392,375.152 276.544,376.592 294.4,362.408 298.144,356.648 300.664,381.2 		"/>
	</g>
</g>
</svg>
