<?xml version="1.0" encoding="iso-8859-1"?>
<!-- Generator: Adobe Illustrator 15.1.0, SVG Export Plug-In . SVG Version: 6.00 Build 0)  -->
<!DOCTYPE svg PUBLIC "-//W3C//DTD SVG 1.1//EN" "http://www.w3.org/Graphics/SVG/1.1/DTD/svg11.dtd">
<svg version="1.1" id="Layer_1" xmlns="http://www.w3.org/2000/svg" xmlns:xlink="http://www.w3.org/1999/xlink" x="0px" y="0px"
	 width="595px" height="842px" viewBox="0 0 595 842" style="enable-background:new 0 0 595 842;" xml:space="preserve">
<g>
	<rect x="131.464" y="248.936" style="fill-rule:evenodd;clip-rule:evenodd;fill:#0079C1;" width="340.128" height="340.056"/>
	
		<polygon style="fill-rule:evenodd;clip-rule:evenodd;fill:#FFFFFF;stroke:#0079C1;stroke-width:0.4989;stroke-miterlimit:10;" points="
		131.176,262.76 131.464,259.88 132.328,257.576 133.48,254.984 135.208,252.968 137.512,251.24 139.816,249.8 142.408,248.936 
		145,248.936 458.056,248.936 460.648,248.936 463.24,249.8 465.832,251.24 467.848,252.968 469.576,255.272 470.728,257.576 
		471.592,260.168 471.592,263.048 471.592,575.672 471.304,578.264 470.44,580.856 469.288,583.448 467.272,585.464 
		465.256,587.192 462.664,588.344 459.784,588.992 457.192,588.992 146.728,588.992 143.848,588.632 140.968,588.056 
		138.376,586.616 136.072,584.888 134.344,582.584 132.616,580.28 132.04,578.264 131.464,575.96 	"/>
	<polygon style="fill-rule:evenodd;clip-rule:evenodd;fill:#0079C1;" points="138.664,263.336 138.952,261.32 139.816,259.592 
		140.968,258.152 142.696,257 144.424,256.424 456.328,256.424 458.344,256.712 460.072,257.288 461.512,258.44 462.664,259.88 
		463.528,261.608 464.104,263.336 464.104,573.368 463.816,575.384 462.952,577.4 461.8,578.84 460.36,580.28 458.344,581.144 
		456.328,581.432 146.44,581.432 144.424,581.144 142.408,580.28 140.68,579.128 139.528,577.4 138.952,575.384 138.664,573.368 	
		"/>
	<polygon style="fill-rule:evenodd;clip-rule:evenodd;fill:#FFFFFF;" points="218.224,417.488 192.88,417.488 192.88,281.192 
		255.16,281.192 258.904,281.48 266.104,282.92 273.016,285.512 281.944,291.56 286.84,297.032 292.312,306.536 294.904,317.48 
		294.904,324.68 293.464,331.88 290.872,338.864 284.536,347.792 276.184,354.704 269.56,358.16 262.648,360.176 255.16,360.752 
		218.224,360.752 	"/>
	<polygon style="fill-rule:evenodd;clip-rule:evenodd;fill:#007AC2;" points="218.224,306.824 257.464,307.112 261.496,308.264 
		264.952,310.856 267.832,314.312 269.56,320.36 268.984,324.68 265.816,330.44 262.648,333.32 258.616,334.832 218.224,335.12 	"/>
	<polygon style="fill-rule:evenodd;clip-rule:evenodd;fill:#FFFFFF;" points="351.928,365.36 373.24,365.36 373.24,386.672 
		387.424,386.672 387.424,365.36 408.736,365.36 408.736,351.248 387.424,351.248 387.424,329.864 373.24,329.864 373.24,351.248 
		351.928,351.248 	"/>
	<path style="fill-rule:evenodd;clip-rule:evenodd;fill:#FFFFFF;" d="M174.448,536.792h28.512
		c0.288-12.96,9.504-22.464,22.752-22.752c13.032,0.288,21.96,8.928,22.536,22.752h96.192c0.288-13.248,10.08-22.752,22.464-22.752
		c13.608,0.576,21.96,8.64,22.824,22.752h33.984l2.592-0.576l2.016-1.728l1.152-2.016v-1.44v-73.224l-0.576-2.88l-1.728-2.016
		l-2.304-1.152h-1.44h-231.12L190,452.048l-2.016,1.728l-1.152,2.304l-12.384,52.2V536.792z"/>
	<path style="fill-rule:evenodd;clip-rule:evenodd;fill:#FFFFFF;" d="M366.904,519.8c11.016,0.864,16.488,6.912,17.064,17.568
		c-0.576,8.928-5.472,14.4-14.472,16.128c-11.808,0.288-18.432-5.184-19.584-16.704C350.776,526.424,356.536,520.664,366.904,519.8z
		"/>
	<path style="fill-rule:evenodd;clip-rule:evenodd;fill:#FFFFFF;" d="M225.424,519.8c10.728,0.864,16.488,6.912,17.064,17.568
		c-0.576,8.928-5.472,14.4-14.76,16.128c-11.808,0.288-18.144-5.184-19.296-16.704C209.296,526.424,214.768,520.664,225.424,519.8z"
		/>
	<g>
		<polygon style="fill-rule:evenodd;clip-rule:evenodd;fill:#0079C1;" points="192.304,457.232 222.544,457.232 217.072,502.736 
			181.648,502.736 		"/>
		<polygon style="fill-rule:evenodd;clip-rule:evenodd;fill:#0079C1;" points="228.016,457.232 267.832,457.232 267.832,491.216 
			224.272,491.216 		"/>
		<rect x="273.592" y="457.232" style="fill-rule:evenodd;clip-rule:evenodd;fill:#0079C1;" width="45.216" height="33.984"/>
		<rect x="324.568" y="457.232" style="fill-rule:evenodd;clip-rule:evenodd;fill:#0079C1;" width="45.216" height="33.984"/>
		<rect x="375.544" y="457.232" style="fill-rule:evenodd;clip-rule:evenodd;fill:#0079C1;" width="45.288" height="33.984"/>
	</g>
	
		<polygon style="fill-rule:evenodd;clip-rule:evenodd;fill:none;stroke:#0079C1;stroke-width:0.4989;stroke-miterlimit:10;" points="
		131.176,249.008 471.16,249.008 471.16,589.208 131.536,589.208 	"/>
</g>
</svg>
