<?xml version="1.0" encoding="iso-8859-1"?>
<!-- Generator: Adobe Illustrator 15.1.0, SVG Export Plug-In . SVG Version: 6.00 Build 0)  -->
<!DOCTYPE svg PUBLIC "-//W3C//DTD SVG 1.1//EN" "http://www.w3.org/Graphics/SVG/1.1/DTD/svg11.dtd">
<svg version="1.1" id="Layer_1" xmlns="http://www.w3.org/2000/svg" xmlns:xlink="http://www.w3.org/1999/xlink" x="0px" y="0px"
	 width="595px" height="842px" viewBox="0 0 595 842" style="enable-background:new 0 0 595 842;" xml:space="preserve">
<g>
	<rect x="123.76" y="211.64" style="fill-rule:evenodd;clip-rule:evenodd;fill:#0079C1;" width="341.712" height="341.712"/>
	<polygon style="fill-rule:evenodd;clip-rule:evenodd;fill:#FFFFFF;" points="123.76,225.536 124.12,222.656 124.984,220.352 
		126.136,217.76 127.864,215.672 129.88,213.944 132.184,212.504 134.776,211.928 137.368,211.64 451.576,211.64 454.456,211.928 
		457.048,212.504 459.352,213.944 461.44,215.672 463.168,218.048 464.608,220.352 465.184,222.944 465.472,225.824 
		465.472,539.744 465.184,542.336 464.32,545.216 462.88,547.52 461.152,549.536 458.776,551.264 456.184,552.416 453.592,552.992 
		450.712,553.352 139.168,553.352 136.216,552.992 133.624,552.128 131.032,550.688 128.728,548.96 126.712,546.944 
		125.272,544.352 124.408,542.336 124.12,540.032 	"/>
	<polygon style="fill-rule:evenodd;clip-rule:evenodd;fill:#007AC2;" points="131.032,226.112 131.32,224.096 132.184,222.368 
		133.336,220.928 135.064,219.776 136.792,219.2 450.136,219.2 451.864,219.488 453.592,220.064 455.032,221.216 456.472,222.656 
		457.336,224.384 457.624,226.112 457.624,537.656 457.336,539.456 456.76,541.472 455.32,543.2 453.88,544.352 452.152,545.216 
		450.136,545.504 138.808,545.504 136.792,545.216 134.776,544.64 133.336,543.2 132.184,541.472 131.32,539.744 131.032,537.656 	
		"/>
	
		<rect x="123.76" y="211.64" style="fill-rule:evenodd;clip-rule:evenodd;fill:none;stroke:#0079C1;stroke-width:0.8039;stroke-miterlimit:10;" width="341.712" height="341.712"/>
	<path style="fill-rule:evenodd;clip-rule:evenodd;fill:#FFFFFF;" d="M203.968,518.864V246.056l130.392,0.576
		c38.232,3.528,70.92,34.2,72.648,75.528c0.576,43.416-28.656,79.92-76.104,82.8h-76.608v113.904H203.968z"/>
	<path style="fill-rule:evenodd;clip-rule:evenodd;fill:#007AC2;" d="M254.296,296.744l75.744,0.288
		c16.2,2.016,24.912,11.232,26.352,27.792c-0.864,17.928-10.44,27.432-28.368,28.872h-73.728V296.744z"/>
</g>
</svg>
