<?xml version="1.0" encoding="UTF-8" standalone="no"?>
<!-- Generator: Adobe Illustrator 15.1.0, SVG Export Plug-In . SVG Version: 6.00 Build 0)  -->

<svg
   xmlns:dc="http://purl.org/dc/elements/1.1/"
   xmlns:cc="http://creativecommons.org/ns#"
   xmlns:rdf="http://www.w3.org/1999/02/22-rdf-syntax-ns#"
   xmlns:svg="http://www.w3.org/2000/svg"
   xmlns="http://www.w3.org/2000/svg"
   xmlns:sodipodi="http://sodipodi.sourceforge.net/DTD/sodipodi-0.dtd"
   xmlns:inkscape="http://www.inkscape.org/namespaces/inkscape"
   version="1.1"
   id="Layer_1"
   x="0px"
   y="0px"
   width="341.99429"
   height="342.28229"
   viewBox="0 0 341.99429 342.28229"
   xml:space="preserve"
   sodipodi:docname="521a.svg"
   inkscape:version="0.92.5 (2060ec1f9f, 2020-04-08)"><metadata
   id="metadata539"><rdf:RDF><cc:Work
       rdf:about=""><dc:format>image/svg+xml</dc:format><dc:type
         rdf:resource="http://purl.org/dc/dcmitype/StillImage" /></cc:Work></rdf:RDF></metadata><defs
   id="defs537" /><sodipodi:namedview
   pagecolor="#ffffff"
   bordercolor="#666666"
   borderopacity="1"
   objecttolerance="10"
   gridtolerance="10"
   guidetolerance="10"
   inkscape:pageopacity="0"
   inkscape:pageshadow="2"
   inkscape:window-width="640"
   inkscape:window-height="480"
   id="namedview535"
   showgrid="false"
   inkscape:zoom="0.28028504"
   inkscape:cx="180.36115"
   inkscape:cy="167.70115"
   inkscape:window-x="0"
   inkscape:window-y="0"
   inkscape:window-maximized="0"
   inkscape:current-layer="Layer_1" />
<g
   id="g532"
   transform="translate(-117.13885,-246.41885)">
	<rect
   x="117.64"
   y="246.92"
   style="clip-rule:evenodd;fill:#007ac2;fill-rule:evenodd"
   width="340.992"
   height="341.28"
   id="rect516" />
	<polygon
   style="clip-rule:evenodd;fill:#ffffff;fill-rule:evenodd"
   points="118.504,255.56 119.656,252.968 121.384,250.952 123.4,249.224 125.992,247.784 128.584,247.208 131.176,246.92 445.024,246.92 447.616,247.208 450.28,247.784 452.872,249.224 454.888,250.952 456.616,253.256 457.768,255.56 458.632,258.152 458.632,261.032 458.632,574.592 458.344,577.256 457.48,580.136 456.04,582.44 454.312,584.456 452.008,586.184 449.704,587.336 446.752,587.912 444.16,588.2 132.904,588.2 130.024,587.912 127.144,587.048 124.552,585.608 122.248,583.88 120.232,581.864 118.792,579.272 118.216,577.256 117.64,574.88 117.352,260.744 117.64,257.864 "
   id="polygon518" />
	<polygon
   style="clip-rule:evenodd;fill:#007ac2;fill-rule:evenodd"
   points="125.992,257.576 127.144,256.136 128.584,254.984 130.6,254.408 443.296,254.408 445.024,254.696 447.04,255.272 448.552,256.424 449.704,257.864 450.568,259.592 450.856,261.32 450.856,572.576 450.568,574.304 449.992,576.32 448.84,578.12 447.04,579.272 445.312,580.136 443.296,580.424 132.616,580.424 130.312,580.136 128.584,579.56 126.856,578.12 125.704,576.32 125.128,574.592 124.84,572.576 124.84,261.32 125.128,259.304 "
   id="polygon520" />
	
		<rect
   x="117.64"
   y="246.92"
   style="clip-rule:evenodd;fill:none;fill-rule:evenodd;stroke:#0079c1;stroke-width:1.00230002;stroke-miterlimit:10"
   width="340.992"
   height="341.28"
   id="rect522" />
	<rect
   x="213.616"
   y="304.448"
   style="clip-rule:evenodd;fill:#ffffff;fill-rule:evenodd"
   width="102.528"
   height="56.952"
   id="rect524" />
	<rect
   x="213.616"
   y="389.98401"
   style="clip-rule:evenodd;fill:#ffffff;fill-rule:evenodd"
   width="102.528"
   height="56.880001"
   id="rect526" />
	<rect
   x="213.616"
   y="476.888"
   style="clip-rule:evenodd;fill:#ffffff;fill-rule:evenodd"
   width="102.528"
   height="56.952"
   id="rect528" />
	<rect
   x="338.67999"
   y="281.552"
   style="clip-rule:evenodd;fill:#ffffff;fill-rule:evenodd"
   width="22.823999"
   height="273.09601"
   id="rect530" />
</g>
</svg>