<?xml version="1.0" encoding="iso-8859-1"?>
<!-- Generator: Adobe Illustrator 15.1.0, SVG Export Plug-In . SVG Version: 6.00 Build 0)  -->
<!DOCTYPE svg PUBLIC "-//W3C//DTD SVG 1.1//EN" "http://www.w3.org/Graphics/SVG/1.1/DTD/svg11.dtd">
<svg version="1.1" id="Layer_1" xmlns="http://www.w3.org/2000/svg" xmlns:xlink="http://www.w3.org/1999/xlink" x="0px" y="0px"
	 width="595px" height="842px" viewBox="0 0 595 842" style="enable-background:new 0 0 595 842;" xml:space="preserve">
<g>
	<rect x="117.64" y="246.92" style="fill-rule:evenodd;clip-rule:evenodd;fill:#007AC2;" width="340.992" height="341.28"/>
	<polygon style="fill-rule:evenodd;clip-rule:evenodd;fill:#FFFFFF;" points="117.352,260.744 117.64,257.864 118.504,255.56 
		119.656,252.968 121.384,250.952 123.4,249.224 125.992,247.784 128.584,247.208 131.176,246.92 445.024,246.92 447.616,247.208 
		450.28,247.784 452.872,249.224 454.888,250.952 456.616,253.256 457.768,255.56 458.632,258.152 458.632,261.032 458.632,574.592 
		458.344,577.256 457.48,580.136 456.04,582.44 454.312,584.456 452.008,586.184 449.704,587.336 446.752,587.912 444.16,588.2 
		132.904,588.2 130.024,587.912 127.144,587.048 124.552,585.608 122.248,583.88 120.232,581.864 118.792,579.272 118.216,577.256 
		117.64,574.88 	"/>
	<polygon style="fill-rule:evenodd;clip-rule:evenodd;fill:#007AC2;" points="124.84,261.32 125.128,259.304 125.992,257.576 
		127.144,256.136 128.584,254.984 130.6,254.408 443.296,254.408 445.024,254.696 447.04,255.272 448.552,256.424 449.704,257.864 
		450.568,259.592 450.856,261.32 450.856,572.576 450.568,574.304 449.992,576.32 448.84,578.12 447.04,579.272 445.312,580.136 
		443.296,580.424 132.616,580.424 130.312,580.136 128.584,579.56 126.856,578.12 125.704,576.32 125.128,574.592 124.84,572.576 	
		"/>
	
		<rect x="117.64" y="246.92" style="fill-rule:evenodd;clip-rule:evenodd;fill:none;stroke:#0079C1;stroke-width:1.0023;stroke-miterlimit:10;" width="340.992" height="341.28"/>
	<rect x="213.616" y="304.448" style="fill-rule:evenodd;clip-rule:evenodd;fill:#FFFFFF;" width="102.528" height="56.952"/>
	<rect x="213.616" y="389.984" style="fill-rule:evenodd;clip-rule:evenodd;fill:#FFFFFF;" width="102.528" height="56.88"/>
	<rect x="213.616" y="476.888" style="fill-rule:evenodd;clip-rule:evenodd;fill:#FFFFFF;" width="102.528" height="56.952"/>
	<rect x="338.68" y="281.552" style="fill-rule:evenodd;clip-rule:evenodd;fill:#FFFFFF;" width="22.824" height="273.096"/>
</g>
</svg>
