<?xml version="1.0" encoding="UTF-8" standalone="no"?>
<!-- Generator: Adobe Illustrator 15.1.0, SVG Export Plug-In . SVG Version: 6.00 Build 0)  -->

<svg
   xmlns:dc="http://purl.org/dc/elements/1.1/"
   xmlns:cc="http://creativecommons.org/ns#"
   xmlns:rdf="http://www.w3.org/1999/02/22-rdf-syntax-ns#"
   xmlns:svg="http://www.w3.org/2000/svg"
   xmlns="http://www.w3.org/2000/svg"
   xmlns:sodipodi="http://sodipodi.sourceforge.net/DTD/sodipodi-0.dtd"
   xmlns:inkscape="http://www.inkscape.org/namespaces/inkscape"
   version="1.1"
   id="Layer_1"
   x="0px"
   y="0px"
   width="341.72192"
   height="341.72192"
   viewBox="0 0 341.72192 341.72192"
   xml:space="preserve"
   sodipodi:docname="521b.svg"
   inkscape:version="0.92.5 (2060ec1f9f, 2020-04-08)"><metadata
   id="metadata570"><rdf:RDF><cc:Work
       rdf:about=""><dc:format>image/svg+xml</dc:format><dc:type
         rdf:resource="http://purl.org/dc/dcmitype/StillImage" /></cc:Work></rdf:RDF></metadata><defs
   id="defs568" /><sodipodi:namedview
   pagecolor="#ffffff"
   bordercolor="#666666"
   borderopacity="1"
   objecttolerance="10"
   gridtolerance="10"
   guidetolerance="10"
   inkscape:pageopacity="0"
   inkscape:pageshadow="2"
   inkscape:window-width="640"
   inkscape:window-height="480"
   id="namedview566"
   showgrid="false"
   inkscape:zoom="0.28028504"
   inkscape:cx="174.35695"
   inkscape:cy="111.15296"
   inkscape:window-x="0"
   inkscape:window-y="0"
   inkscape:window-maximized="0"
   inkscape:current-layer="Layer_1" />
<g
   id="g563"
   transform="translate(-123.14305,-190.43105)">
	<rect
   x="123.544"
   y="190.832"
   style="clip-rule:evenodd;fill:#007ac2;fill-rule:evenodd"
   width="340.92001"
   height="340.92001"
   id="rect541" />
	<polygon
   style="clip-rule:evenodd;fill:#ffffff;fill-rule:evenodd"
   points="124.768,199.472 125.92,196.88 127.648,194.864 129.664,193.136 131.968,191.696 134.56,191.12 137.152,190.832 450.64,190.832 453.52,191.12 456.112,191.696 458.416,193.136 460.432,194.864 462.16,197.168 463.312,199.472 464.176,202.064 464.176,204.944 464.176,518.144 464.176,520.736 463.312,523.616 461.872,525.92 460.144,527.936 457.84,529.664 455.248,530.816 452.656,531.392 449.776,531.752 138.88,531.752 136,531.392 133.12,530.528 130.528,529.088 128.512,527.36 126.496,525.344 125.056,522.752 124.192,520.736 123.904,518.432 123.544,204.656 123.904,201.776 "
   id="polygon543" />
	<polygon
   style="clip-rule:evenodd;fill:#007ac2;fill-rule:evenodd"
   points="131.968,201.488 133.12,200.048 134.848,198.896 136.576,198.32 448.912,198.32 450.928,198.608 452.656,199.184 454.096,200.336 455.536,201.776 456.112,203.504 456.688,205.232 456.688,516.128 456.4,517.856 455.536,519.872 454.384,521.6 452.944,522.752 450.928,523.616 448.912,523.904 138.592,523.904 136.576,523.616 134.56,523.04 133.12,521.6 131.968,519.872 131.104,518.144 130.816,516.128 130.816,205.232 131.104,203.216 "
   id="polygon545" />
	
		<rect
   x="123.544"
   y="190.832"
   style="clip-rule:evenodd;fill:none;fill-rule:evenodd;stroke:#0079c1;stroke-width:0.80190003;stroke-miterlimit:10"
   width="340.92001"
   height="340.92001"
   id="rect547" />
	<rect
   x="157.96001"
   y="247.71201"
   style="clip-rule:evenodd;fill:#ffffff;fill-rule:evenodd"
   width="102.456"
   height="56.880001"
   id="rect549" />
	<rect
   x="157.96001"
   y="333.17599"
   style="clip-rule:evenodd;fill:#ffffff;fill-rule:evenodd"
   width="102.456"
   height="56.880001"
   id="rect551" />
	<rect
   x="157.96001"
   y="420.07999"
   style="clip-rule:evenodd;fill:#ffffff;fill-rule:evenodd"
   width="102.456"
   height="56.807999"
   id="rect553" />
	<rect
   x="282.952"
   y="224.888"
   style="clip-rule:evenodd;fill:#ffffff;fill-rule:evenodd"
   width="22.752001"
   height="272.73599"
   id="rect555" />
	<rect
   x="327.664"
   y="247.71201"
   style="clip-rule:evenodd;fill:#ffffff;fill-rule:evenodd"
   width="102.168"
   height="56.880001"
   id="rect557" />
	<rect
   x="327.664"
   y="333.17599"
   style="clip-rule:evenodd;fill:#ffffff;fill-rule:evenodd"
   width="102.168"
   height="56.880001"
   id="rect559" />
	<rect
   x="327.664"
   y="420.07999"
   style="clip-rule:evenodd;fill:#ffffff;fill-rule:evenodd"
   width="102.168"
   height="56.807999"
   id="rect561" />
</g>
</svg>