<?xml version="1.0" encoding="UTF-8" standalone="no"?>
<!-- Generator: Adobe Illustrator 15.1.0, SVG Export Plug-In . SVG Version: 6.00 Build 0)  -->

<svg
   xmlns:dc="http://purl.org/dc/elements/1.1/"
   xmlns:cc="http://creativecommons.org/ns#"
   xmlns:rdf="http://www.w3.org/1999/02/22-rdf-syntax-ns#"
   xmlns:svg="http://www.w3.org/2000/svg"
   xmlns="http://www.w3.org/2000/svg"
   xmlns:sodipodi="http://sodipodi.sourceforge.net/DTD/sodipodi-0.dtd"
   xmlns:inkscape="http://www.inkscape.org/namespaces/inkscape"
   version="1.1"
   id="Layer_1"
   x="0px"
   y="0px"
   width="342.86401"
   height="186.98399"
   viewBox="0 0 342.86401 186.98399"
   xml:space="preserve"
   sodipodi:docname="531.svg"
   inkscape:version="0.92.5 (2060ec1f9f, 2020-04-08)"><metadata
   id="metadata649"><rdf:RDF><cc:Work
       rdf:about=""><dc:format>image/svg+xml</dc:format><dc:type
         rdf:resource="http://purl.org/dc/dcmitype/StillImage" /></cc:Work></rdf:RDF></metadata><defs
   id="defs647" /><sodipodi:namedview
   pagecolor="#ffffff"
   bordercolor="#666666"
   borderopacity="1"
   objecttolerance="10"
   gridtolerance="10"
   guidetolerance="10"
   inkscape:pageopacity="0"
   inkscape:pageshadow="2"
   inkscape:window-width="640"
   inkscape:window-height="480"
   id="namedview645"
   showgrid="false"
   inkscape:zoom="0.28028504"
   inkscape:cx="180.94"
   inkscape:cy="2.4639893"
   inkscape:window-x="0"
   inkscape:window-y="0"
   inkscape:window-maximized="0"
   inkscape:current-layer="Layer_1" />
<g
   id="g642"
   transform="translate(-116.56,-236.48)">
	<rect
   x="116.56"
   y="236.48"
   style="clip-rule:evenodd;fill:#ffd520;fill-rule:evenodd"
   width="342.86401"
   height="186.98399"
   id="rect618" />
	<polygon
   style="clip-rule:evenodd;fill-rule:evenodd"
   points="128.512,250.736 133.408,246.416 139.528,243.752 142.696,242.888 433,242.888 439.408,244.904 445.24,248.432 449.56,253.328 452.152,259.448 453.016,266.144 453.016,393.872 452.152,400.568 449.56,406.688 445.24,411.584 439.408,415.112 433,417.128 146.224,417.416 139.528,416.264 133.408,413.6 128.512,409.28 124.696,403.736 122.968,397.4 122.968,262.616 124.696,256.28 "
   id="polygon620" />
	<polygon
   style="clip-rule:evenodd;fill:#ffd200;fill-rule:evenodd"
   points="434.728,255.416 438.544,257.72 441.136,261.464 442,266.144 441.712,393.872 441.424,396.176 440.848,398.552 439.696,400.568 438.256,402.296 436.528,403.736 434.44,404.6 432.424,405.464 430.12,405.464 146.8,405.464 144.496,405.464 142.12,404.6 140.104,403.736 138.376,402.296 136.936,400.28 136.072,398.264 135.208,396.176 134.92,393.872 134.92,265.856 135.208,263.84 136.072,261.464 136.936,259.448 138.376,257.72 140.104,256.28 142.12,255.128 144.496,254.48 146.8,254.192 430.408,254.48 "
   id="polygon622" />
	<path
   style="clip-rule:evenodd;fill-rule:evenodd"
   d="m 245.8,367.736 h 95.184 l 0.288,-3.168 0.576,-3.168 1.152,-2.952 1.44,-2.88 2.016,-2.592 2.376,-2.376 2.592,-1.728 2.592,-1.728 3.24,-0.864 2.88,-0.864 h 6.696 l 2.88,0.864 3.168,0.864 2.664,1.728 2.592,1.728 2.304,2.376 2.016,2.592 1.512,2.88 1.152,2.952 0.576,3.168 0.288,3.168 h 28.152 V 335.84 l -11.88,-50.832 -0.288,-1.152 -0.576,-1.44 -0.936,-1.224 -1.152,-0.864 -1.44,-0.576 -1.44,-0.288 h -229.32 l -1.44,0.288 -1.44,0.576 -1.152,0.864 -1.152,1.512 -0.576,1.44 v 77.832 1.44 l 0.576,1.44 0.864,1.152 1.152,0.864 1.44,0.576 1.44,0.288 H 200.8 c -0.288,-12.744 10.152,-22.608 22.32,-22.608 12.816,0 22.68,10.152 22.68,22.608 z"
   id="path624"
   inkscape:connector-curvature="0" />
	<path
   style="clip-rule:evenodd;fill-rule:evenodd"
   d="m 223.12,350.888 c 9.936,0.576 16.56,6.984 16.848,16.848 -0.576,9.864 -6.624,16.272 -16.848,16.848 -11.88,-0.864 -17.64,-8.424 -16.488,-19.44 1.44,-8.424 7.848,-13.968 16.488,-14.256 z"
   id="path626"
   inkscape:connector-curvature="0" />
	<path
   style="clip-rule:evenodd;fill-rule:evenodd"
   d="m 363.016,350.888 c 10.152,0.576 16.56,6.984 17.136,16.848 -0.576,9.864 -6.984,16.272 -17.136,16.848 -11.88,-0.864 -17.712,-8.424 -16.56,-19.44 1.512,-8.424 7.848,-13.968 16.56,-14.256 z"
   id="path628"
   inkscape:connector-curvature="0" />
	<g
   id="g640">
		<rect
   x="169.696"
   y="285.29599"
   style="clip-rule:evenodd;fill:#ffd520;fill-rule:evenodd"
   width="43.848"
   height="33.695999"
   id="rect630" />
		<rect
   x="221.392"
   y="285.29599"
   style="clip-rule:evenodd;fill:#ffd520;fill-rule:evenodd"
   width="42.984001"
   height="33.695999"
   id="rect632" />
		<rect
   x="271.936"
   y="285.29599"
   style="clip-rule:evenodd;fill:#ffd520;fill-rule:evenodd"
   width="42.911999"
   height="33.695999"
   id="rect634" />
		<polygon
   style="clip-rule:evenodd;fill:#ffd520;fill-rule:evenodd"
   points="363.592,318.992 322.696,318.992 322.696,285.296 359.848,285.296 "
   id="polygon636" />
		<polygon
   style="clip-rule:evenodd;fill:#ffd520;fill-rule:evenodd"
   points="407.152,330.296 396.424,285.296 367.696,285.296 372.88,330.296 "
   id="polygon638" />
	</g>
</g>
</svg>