<?xml version="1.0" encoding="iso-8859-1"?>
<!-- Generator: Adobe Illustrator 15.1.0, SVG Export Plug-In . SVG Version: 6.00 Build 0)  -->
<!DOCTYPE svg PUBLIC "-//W3C//DTD SVG 1.1//EN" "http://www.w3.org/Graphics/SVG/1.1/DTD/svg11.dtd">
<svg version="1.1" id="Layer_1" xmlns="http://www.w3.org/2000/svg" xmlns:xlink="http://www.w3.org/1999/xlink" x="0px" y="0px"
	 width="595px" height="842px" viewBox="0 0 595 842" style="enable-background:new 0 0 595 842;" xml:space="preserve">
<g>
	<rect x="109.144" y="324.032" style="fill-rule:evenodd;clip-rule:evenodd;fill:#FFD520;" width="340.848" height="185.832"/>
	<polygon style="fill-rule:evenodd;clip-rule:evenodd;" points="115.552,350.024 117.28,343.616 121.024,338.144 125.92,333.824 
		131.968,331.232 135.136,330.368 423.712,330.368 430.048,332.384 435.52,335.84 440.2,340.736 442.792,346.856 443.656,353.48 
		443.656,480.416 442.792,487.04 440.2,493.088 435.52,497.984 430.048,501.44 423.712,503.456 138.592,503.744 131.968,502.592 
		125.92,500 121.024,495.68 117.28,490.208 115.552,483.872 	"/>
	<polygon style="fill-rule:evenodd;clip-rule:evenodd;fill:#FFD520;" points="139.168,341.6 420.832,341.888 425.44,342.752 
		429.184,345.128 431.776,348.872 432.64,353.48 432.352,480.416 432.064,482.72 431.488,485.024 430.336,487.04 428.896,488.768 
		427.168,490.208 425.152,491.072 422.848,491.936 420.544,491.936 139.168,491.936 136.864,491.936 134.56,491.072 
		132.544,490.208 130.816,488.768 129.376,486.752 128.224,484.736 127.648,482.72 127.36,480.416 127.36,353.192 127.648,351.176 
		128.224,348.872 129.376,346.856 130.816,345.128 132.544,343.616 134.56,342.464 136.864,341.888 	"/>
	<path style="fill-rule:evenodd;clip-rule:evenodd;" d="M174.952,465.08v-34.344l7.848-29.376l0.576-1.44h113.4v-3.456
		l-26.856-18.432l31.968-21.672l31.752,21.672l-25.92,18.432v3.456h62.568l9.288,33.12v32.04h-24.84
		c-1.728,8.064-13.248,9.504-17.928,2.592h-6.048c-4.032,6.336-12.672,6.336-16.416,0h-75.6c-3.456,6.048-12.672,6.336-16.416,0
		h-5.184c-5.184,7.776-16.2,5.472-17.64-2.592H174.952z"/>
	<polygon style="fill-rule:evenodd;clip-rule:evenodd;fill:#FFD520;" points="186.544,407.12 200.656,407.12 200.656,431.888 
		179.92,431.888 	"/>
	<rect x="205.552" y="407.12" style="fill-rule:evenodd;clip-rule:evenodd;fill:#FFD520;" width="25.128" height="24.768"/>
	<rect x="235.288" y="407.12" style="fill-rule:evenodd;clip-rule:evenodd;fill:#FFD520;" width="24.84" height="24.768"/>
	<rect x="264.736" y="407.12" style="fill-rule:evenodd;clip-rule:evenodd;fill:#FFD520;" width="24.84" height="24.768"/>
	<rect x="294.184" y="407.12" style="fill-rule:evenodd;clip-rule:evenodd;fill:#FFD520;" width="25.056" height="24.768"/>
	<rect x="323.848" y="407.12" style="fill-rule:evenodd;clip-rule:evenodd;fill:#FFD520;" width="24.84" height="24.768"/>
	<polygon style="fill-rule:evenodd;clip-rule:evenodd;fill:#FFD520;" points="353.872,407.12 367.984,407.12 374.68,431.888 
		353.872,431.888 	"/>
	<polygon style="fill-rule:evenodd;clip-rule:evenodd;fill:#FFD520;" points="279.496,377.384 301.6,362.12 324.424,377.744 
		302.176,393.584 	"/>
</g>
</svg>
