<?xml version="1.0" encoding="iso-8859-1"?>
<!-- Generator: Adobe Illustrator 15.1.0, SVG Export Plug-In . SVG Version: 6.00 Build 0)  -->
<!DOCTYPE svg PUBLIC "-//W3C//DTD SVG 1.1//EN" "http://www.w3.org/Graphics/SVG/1.1/DTD/svg11.dtd">
<svg version="1.1" id="Layer_1" xmlns="http://www.w3.org/2000/svg" xmlns:xlink="http://www.w3.org/1999/xlink" x="0px" y="0px"
	 width="595px" height="842px" viewBox="0 0 595 842" style="enable-background:new 0 0 595 842;" xml:space="preserve">
<g>
	<rect x="109.504" y="251.6" style="fill-rule:evenodd;clip-rule:evenodd;fill:#FFD520;" width="341.568" height="186.264"/>
	<polygon style="fill-rule:evenodd;clip-rule:evenodd;" points="115.912,277.664 117.928,271.328 121.384,265.784 126.28,261.464 
		132.4,258.872 135.568,258.008 425.008,258.008 431.416,260.024 436.888,263.48 441.208,268.376 443.8,274.496 445.024,281.12 
		445.024,408.416 443.8,415.04 441.208,421.088 436.888,425.984 431.416,429.44 425.008,431.456 139.024,431.744 132.4,430.592 
		126.28,428 121.384,423.68 117.928,418.208 115.912,411.872 	"/>
	<polygon style="fill-rule:evenodd;clip-rule:evenodd;fill:#FFD520;" points="139.6,269.24 422.128,269.528 426.448,270.464 
		430.264,272.768 432.856,276.512 433.72,281.12 433.432,408.416 433.144,410.72 432.568,413.024 431.416,415.04 429.976,416.768 
		428.248,418.208 426.16,419.072 424.144,419.936 421.84,419.936 139.6,419.936 137.296,419.936 135.28,419.072 133.264,418.208 
		131.248,416.768 129.808,414.752 128.944,412.736 128.08,410.72 128.08,408.416 128.08,280.832 128.08,278.816 128.944,276.512 
		129.808,274.496 131.248,272.768 133.264,271.328 135.28,270.104 137.296,269.528 	"/>
	<polygon style="fill-rule:evenodd;clip-rule:evenodd;" points="196.336,383.792 196.336,317.264 176.032,317.264 176.032,306.32 
		226.648,306.32 226.648,317.264 207.28,317.264 207.28,383.792 	"/>
	<polygon style="fill-rule:evenodd;clip-rule:evenodd;" points="232.768,383.792 253.288,306.32 264.592,306.32 286.84,383.792 
		274.96,383.792 271.216,370.76 248.104,370.76 244.648,383.792 	"/>
	<polygon style="fill-rule:evenodd;clip-rule:evenodd;fill:#FFD520;" points="250.984,359.528 259.336,328.568 268.048,359.528 	"/>
	<polygon style="fill-rule:evenodd;clip-rule:evenodd;" points="296.992,383.792 315.424,343.04 298.936,306.32 311.968,306.32 
		322.048,328.568 332.2,306.32 345.52,306.32 328.744,343.04 347.248,383.792 334.216,383.792 322.048,357.512 309.88,383.792 	"/>
	<rect x="366.328" y="306.32" style="fill-rule:evenodd;clip-rule:evenodd;" width="11.304" height="77.472"/>
</g>
</svg>
