<?xml version="1.0" encoding="iso-8859-1"?>
<!-- Generator: Adobe Illustrator 15.1.0, SVG Export Plug-In . SVG Version: 6.00 Build 0)  -->
<!DOCTYPE svg PUBLIC "-//W3C//DTD SVG 1.1//EN" "http://www.w3.org/Graphics/SVG/1.1/DTD/svg11.dtd">
<svg version="1.1" id="Layer_1" xmlns="http://www.w3.org/2000/svg" xmlns:xlink="http://www.w3.org/1999/xlink" x="0px" y="0px"
	 width="595px" height="842px" viewBox="0 0 595 842" style="enable-background:new 0 0 595 842;" xml:space="preserve">
<g>
	
		<rect x="124.264" y="197.024" style="fill-rule:evenodd;clip-rule:evenodd;fill:#007AC2;stroke:#007AC2;stroke-width:1.002;stroke-miterlimit:10;" width="342.288" height="342.288"/>
	<polygon style="fill-rule:evenodd;clip-rule:evenodd;fill:#FFFFFF;" points="124.264,212.36 124.912,208.616 125.488,206.888 
		127.216,203.72 129.52,200.768 132.4,198.752 137.08,197.024 139.672,197.024 451.504,197.024 455.248,197.6 458.416,198.752 
		461.656,200.768 463.96,203.72 465.688,206.888 466.552,210.344 466.552,525.92 465.688,529.448 463.96,532.616 461.656,535.496 
		458.416,537.512 455.248,538.952 451.504,539.312 137.944,539.312 134.128,538.376 130.96,536.648 128.08,534.056 126.064,531.176 
		125.488,529.448 124.624,525.92 	"/>
	<polygon style="fill-rule:evenodd;clip-rule:evenodd;fill:#007AC2;" points="132.112,212.36 132.688,209.768 133.264,208.328 
		133.84,207.464 134.704,206.312 135.928,205.736 138.52,204.872 139.672,204.584 451.504,204.584 454.096,205.16 456.4,206.312 
		458.128,208.328 458.992,210.92 459.28,212.36 459.28,524.192 458.704,526.784 457.552,528.872 455.536,530.6 452.944,531.464 
		451.504,531.752 139.672,531.752 137.08,531.176 134.704,530.024 133.264,527.936 132.112,525.344 	"/>
	<path style="fill-rule:evenodd;clip-rule:evenodd;fill:#FFFFFF;" d="M221.968,386.312c10.44,0.864,15.984,6.336,16.56,16.488
		c-0.864,9.576-5.544,14.832-14.832,16.56c-10.44,0.864-18.216-6.12-18.216-18.288C207.496,391.784,212.68,386.888,221.968,386.312z
		"/>
	<path style="fill-rule:evenodd;clip-rule:evenodd;fill:#FFFFFF;" d="M358.984,386.312c10.44,0.864,15.984,6.336,16.56,16.488
		c-0.576,9.576-5.544,14.832-14.76,16.56c-10.44,0.864-18.288-6.12-18-18.288C344.512,391.784,349.768,386.888,358.984,386.312z"/>
	<path style="fill-rule:evenodd;clip-rule:evenodd;fill:#FFFFFF;" d="M199.936,402.8h-27.504v-30.96l12.168-50.76l0.864-1.728
		l1.44-1.728l1.728-0.576l1.152-0.288l224.856,0.288l1.152,0.288l0.936,0.576l1.728,1.44l0.864,2.304v76.824l-0.864,2.016
		l-1.44,1.44l-2.088,0.864h-1.152h-33.048c-0.864-13.608-9.216-21.744-21.744-22.032c-12.456,0.288-20.808,8.136-22.032,22.032H244
		c-0.288-13.032-9.864-21.744-22.032-22.032C208.936,381.344,200.224,389.768,199.936,402.8z"/>
	<polygon style="fill-rule:evenodd;clip-rule:evenodd;fill:#007AC2;" points="179.344,366.296 189.784,322.232 217.936,322.232 
		212.68,366.296 	"/>
	<polygon style="fill-rule:evenodd;clip-rule:evenodd;fill:#007AC2;" points="225.496,322.232 262,322.232 262,355.28 
		221.68,355.28 	"/>
	<rect x="269.488" y="322.232" style="fill-rule:evenodd;clip-rule:evenodd;fill:#007AC2;" width="41.688" height="33.048"/>
	<rect x="318.736" y="322.232" style="fill-rule:evenodd;clip-rule:evenodd;fill:#007AC2;" width="42.048" height="33.048"/>
	<rect x="368.272" y="322.232" style="fill-rule:evenodd;clip-rule:evenodd;fill:#007AC2;" width="42.912" height="33.048"/>
</g>
</svg>
