<?xml version="1.0" encoding="iso-8859-1"?>
<!-- Generator: Adobe Illustrator 15.1.0, SVG Export Plug-In . SVG Version: 6.00 Build 0)  -->
<!DOCTYPE svg PUBLIC "-//W3C//DTD SVG 1.1//EN" "http://www.w3.org/Graphics/SVG/1.1/DTD/svg11.dtd">
<svg version="1.1" id="Layer_1" xmlns="http://www.w3.org/2000/svg" xmlns:xlink="http://www.w3.org/1999/xlink" x="0px" y="0px"
	 width="595px" height="842px" viewBox="0 0 595 842" style="enable-background:new 0 0 595 842;" xml:space="preserve">
<g>
	
		<rect x="102.16" y="248.504" style="fill-rule:evenodd;clip-rule:evenodd;fill:#007AC2;stroke:#007AC2;stroke-width:1.0018;stroke-miterlimit:10;" width="340.632" height="340.632"/>
	<polygon style="fill-rule:evenodd;clip-rule:evenodd;fill:#FFFFFF;" points="102.16,263.552 102.52,260.024 103.096,258.296 
		104.824,254.84 107.128,252.248 110.296,250.232 114.616,248.504 117.208,248.504 427.456,248.504 431.272,248.792 
		434.728,250.232 437.608,252.248 440.2,254.84 441.64,258.296 442.792,261.752 442.792,575.528 441.64,579.272 440.2,582.44 
		437.608,585.032 434.728,587.336 431.272,588.488 427.456,589.136 115.48,588.776 112.024,587.912 108.568,586.184 105.976,583.88 
		103.96,581 103.096,579.272 102.16,575.528 	"/>
	<polygon style="fill-rule:evenodd;clip-rule:evenodd;fill:#007AC2;" points="110.008,263.552 110.296,260.888 110.872,259.736 
		111.736,258.584 112.6,257.72 113.752,256.856 116.056,255.992 117.496,255.992 427.744,255.992 430.408,256.28 432.712,257.72 
		434.44,259.736 435.304,262.328 435.304,263.552 435.304,573.8 435.016,576.392 433.576,578.696 431.56,580.424 428.968,581.288 
		427.744,581.288 117.496,581.288 114.904,581 112.6,579.56 110.872,577.544 110.008,575.24 	"/>
	<g>
		<path style="fill-rule:evenodd;clip-rule:evenodd;fill:#FFFFFF;" d="M199.72,366.8c10.368,0.864,15.84,6.336,16.416,16.416
			c-0.576,9.504-5.472,14.688-14.688,16.416c-10.44,0.864-18.216-6.048-18.216-18.144C185.248,372.272,190.432,367.376,199.72,366.8
			z"/>
		<path style="fill-rule:evenodd;clip-rule:evenodd;fill:#FFFFFF;" d="M336.088,366.8c10.368,0.864,15.84,6.336,16.416,16.416
			c-0.576,9.504-5.472,14.688-14.688,16.416c-10.44,0.864-18.216-6.048-17.928-18.144
			C321.616,372.272,327.088,367.376,336.088,366.8z"/>
		<path style="fill-rule:evenodd;clip-rule:evenodd;fill:#FFFFFF;" d="M177.76,383.216H150.4v-30.888l12.096-50.472l0.864-2.016
			l1.44-1.44l1.728-0.576l1.152-0.288l223.776,0.288l1.152,0.288l0.864,0.576l1.728,1.44l0.864,2.304v76.464l-0.864,2.016
			l-1.44,1.44l-2.016,0.864h-1.152h-32.904c-0.864-13.536-9.216-21.6-21.6-21.888c-12.456,0.288-20.808,7.776-21.96,21.888h-92.52
			c-0.288-12.96-9.792-21.6-21.888-21.888C186.688,361.904,178.048,370.256,177.76,383.216z"/>
		<polygon style="fill-rule:evenodd;clip-rule:evenodd;fill:#007AC2;" points="157.312,346.856 167.68,303.008 195.688,303.008 
			190.72,346.856 		"/>
		<polygon style="fill-rule:evenodd;clip-rule:evenodd;fill:#007AC2;" points="203.176,303.008 239.464,303.008 239.464,335.912 
			199.432,335.912 		"/>
		<rect x="247.024" y="303.008" style="fill-rule:evenodd;clip-rule:evenodd;fill:#007AC2;" width="41.472" height="32.904"/>
		<rect x="296.056" y="303.008" style="fill-rule:evenodd;clip-rule:evenodd;fill:#007AC2;" width="41.76" height="32.904"/>
		<rect x="345.304" y="303.008" style="fill-rule:evenodd;clip-rule:evenodd;fill:#007AC2;" width="42.696" height="32.904"/>
	</g>
	<g>
		<polygon style="fill-rule:evenodd;clip-rule:evenodd;fill:#FFFFFF;" points="193.312,532.256 193.312,467.96 174.592,467.96 
			174.592,456.728 223.624,456.728 223.624,467.96 204.904,467.96 204.904,532.256 		"/>
		<polygon style="fill-rule:evenodd;clip-rule:evenodd;fill:#FFFFFF;" points="228.808,532.256 249.04,456.728 261.712,456.728 
			281.872,532.256 270.64,532.256 266.896,519.584 243.856,519.584 240.328,532.256 		"/>
		<polygon style="fill-rule:evenodd;clip-rule:evenodd;fill:#007AC2;" points="247.312,508.064 255.376,479.192 263.728,508.064 		
			"/>
		<polygon style="fill-rule:evenodd;clip-rule:evenodd;fill:#FFFFFF;" points="291.448,532.256 309.52,492.44 293.176,456.728 
			306.064,456.728 315.856,478.328 325.648,456.728 338.68,456.728 322.192,492.44 340.408,532.256 327.664,532.256 
			315.856,506.624 304.048,532.256 		"/>
		<rect x="358.264" y="456.728" style="fill-rule:evenodd;clip-rule:evenodd;fill:#FFFFFF;" width="11.232" height="75.528"/>
	</g>
</g>
</svg>
