<?xml version="1.0" encoding="iso-8859-1"?>
<!-- Generator: Adobe Illustrator 15.1.0, SVG Export Plug-In . SVG Version: 6.00 Build 0)  -->
<!DOCTYPE svg PUBLIC "-//W3C//DTD SVG 1.1//EN" "http://www.w3.org/Graphics/SVG/1.1/DTD/svg11.dtd">
<svg version="1.1" id="Layer_1" xmlns="http://www.w3.org/2000/svg" xmlns:xlink="http://www.w3.org/1999/xlink" x="0px" y="0px"
	 width="595px" height="842px" viewBox="0 0 595 842" style="enable-background:new 0 0 595 842;" xml:space="preserve">
<g>
	
		<rect x="124.12" y="269.384" style="fill-rule:evenodd;clip-rule:evenodd;fill:#007AC2;stroke:#007AC2;stroke-width:1.0026;stroke-miterlimit:10;" width="341.352" height="341.352"/>
	<polygon style="fill-rule:evenodd;clip-rule:evenodd;fill:#FFFFFF;" points="124.12,284.432 124.768,280.976 125.056,279.248 
		126.784,275.72 129.376,273.128 132.256,271.112 136.864,269.384 139.456,269.384 450.424,269.384 453.88,269.672 457.336,271.112 
		460.576,273.128 462.88,275.72 464.608,279.248 465.472,282.704 465.472,597.128 464.608,600.872 462.88,604.04 460.576,606.632 
		457.336,608.936 453.88,610.088 450.424,610.736 137.44,610.376 133.984,609.512 130.816,607.784 127.936,605.48 125.92,602.6 
		125.056,600.872 124.12,597.128 	"/>
	<polygon style="fill-rule:evenodd;clip-rule:evenodd;fill:#007AC2;" points="131.968,284.432 132.544,281.84 132.832,280.688 
		133.696,279.536 134.56,278.672 135.712,277.808 138.304,276.872 139.456,276.872 450.424,276.872 453.016,277.232 455.32,278.672 
		457.048,280.688 457.984,283.28 458.272,284.432 458.272,595.4 457.624,597.992 456.184,600.296 454.168,602.024 451.864,602.888 
		450.424,602.888 139.456,602.888 136.864,602.6 134.56,601.16 132.832,599.144 131.968,596.84 	"/>
	<g>
		<path style="fill-rule:evenodd;clip-rule:evenodd;fill:#FFFFFF;" d="M221.536,458.096c10.44,0.576,15.912,6.048,16.488,16.488
			c-0.864,9.216-5.76,14.688-14.688,16.128c-10.44,0.864-18.504-6.048-18.216-18.216C206.848,463.28,212.32,458.672,221.536,458.096
			z"/>
		<path style="fill-rule:evenodd;clip-rule:evenodd;fill:#FFFFFF;" d="M358.192,458.096c10.44,0.576,15.912,6.048,16.488,16.488
			c-0.864,9.216-5.472,14.688-14.688,16.128c-10.44,0.864-18.504-6.048-18.216-18.216
			C343.504,463.28,348.976,458.672,358.192,458.096z"/>
		<path style="fill-rule:evenodd;clip-rule:evenodd;fill:#FFFFFF;" d="M199.576,474.584h-27.432v-31.248l11.88-50.544l0.864-1.728
			l1.728-1.44l1.728-0.864h1.152h224.208l1.152,0.576l0.864,0.288l1.728,1.728l0.864,2.016v76.536l-0.864,2.016l-1.44,1.8
			l-2.016,0.576l-1.152,0.288h-32.904c-0.936-13.608-9.288-22.032-22.032-22.032c-12.096,0-20.52,7.848-21.672,22.032h-92.664
			c-0.576-13.032-9.864-22.032-22.032-22.032C208.576,452.84,199.864,461.552,199.576,474.584z"/>
		<polygon style="fill-rule:evenodd;clip-rule:evenodd;fill:#007AC2;" points="179.056,437.864 189.496,394.232 217.504,394.232 
			212.32,437.864 		"/>
		<polygon style="fill-rule:evenodd;clip-rule:evenodd;fill:#007AC2;" points="225.064,394.232 261.136,394.232 261.136,427.136 
			221.248,427.136 		"/>
		<rect x="268.696" y="394.232" style="fill-rule:evenodd;clip-rule:evenodd;fill:#007AC2;" width="41.832" height="32.904"/>
		<rect x="318.016" y="394.232" style="fill-rule:evenodd;clip-rule:evenodd;fill:#007AC2;" width="41.688" height="32.904"/>
		<rect x="367.48" y="394.232" style="fill-rule:evenodd;clip-rule:evenodd;fill:#007AC2;" width="42.768" height="32.904"/>
	</g>
	<polygon style="fill-rule:evenodd;clip-rule:evenodd;fill:#EF3E42;" points="431.056,276.872 450.424,276.872 454.168,277.808 
		457.048,280.688 458.272,284.432 458.272,303.512 158.536,602.888 139.456,602.888 135.712,602.024 133.696,600.296 
		131.968,596.84 131.968,576.032 	"/>
</g>
</svg>
