<?xml version="1.0" encoding="UTF-8" standalone="no"?>
<!-- Generator: Adobe Illustrator 15.1.0, SVG Export Plug-In . SVG Version: 6.00 Build 0)  -->

<svg
   xmlns:dc="http://purl.org/dc/elements/1.1/"
   xmlns:cc="http://creativecommons.org/ns#"
   xmlns:rdf="http://www.w3.org/1999/02/22-rdf-syntax-ns#"
   xmlns:svg="http://www.w3.org/2000/svg"
   xmlns="http://www.w3.org/2000/svg"
   xmlns:sodipodi="http://sodipodi.sourceforge.net/DTD/sodipodi-0.dtd"
   xmlns:inkscape="http://www.inkscape.org/namespaces/inkscape"
   version="1.1"
   id="Layer_1"
   x="0px"
   y="0px"
   width="342.138"
   height="342.138"
   viewBox="0 0 342.138 342.138"
   xml:space="preserve"
   sodipodi:docname="543b.svg"
   inkscape:version="0.92.5 (2060ec1f9f, 2020-04-08)"><metadata
   id="metadata988"><rdf:RDF><cc:Work
       rdf:about=""><dc:format>image/svg+xml</dc:format><dc:type
         rdf:resource="http://purl.org/dc/dcmitype/StillImage" /></cc:Work></rdf:RDF></metadata><defs
   id="defs986" /><sodipodi:namedview
   pagecolor="#ffffff"
   bordercolor="#666666"
   borderopacity="1"
   objecttolerance="10"
   gridtolerance="10"
   guidetolerance="10"
   inkscape:pageopacity="0"
   inkscape:pageshadow="2"
   inkscape:window-width="640"
   inkscape:window-height="480"
   id="namedview984"
   showgrid="false"
   inkscape:zoom="0.28028504"
   inkscape:cx="166.537"
   inkscape:cy="125.43699"
   inkscape:window-x="0"
   inkscape:window-y="0"
   inkscape:window-maximized="0"
   inkscape:current-layer="Layer_1" />
<g
   id="g981"
   transform="translate(-130.963,-204.299)">
	
		<rect
   x="131.464"
   y="204.8"
   style="clip-rule:evenodd;fill:#0079c1;fill-rule:evenodd;stroke:#0079c1;stroke-width:1.00199997;stroke-miterlimit:10"
   width="341.13599"
   height="341.13599"
   id="rect941" />
	<polygon
   style="clip-rule:evenodd;fill:#ffffff;fill-rule:evenodd"
   points="132.688,214.664 134.416,211.136 136.72,208.544 139.6,206.528 144.208,204.8 146.8,204.8 457.552,204.8 461.296,205.088 464.464,206.528 467.704,208.544 470.008,211.136 471.736,214.664 472.6,218.12 472.6,532.328 471.736,536.072 470.008,539.24 467.704,541.832 464.464,544.136 461.296,545.288 457.552,545.936 145.072,545.576 141.328,544.712 138.16,542.984 135.28,540.68 133.264,537.8 132.688,536.072 131.824,532.328 131.464,219.848 132.112,216.392 "
   id="polygon943" />
	<polygon
   style="clip-rule:evenodd;fill:#0079c1;fill-rule:evenodd"
   points="140.464,216.104 141.04,214.952 141.904,214.088 143.056,213.224 145.648,212.288 146.8,212.288 457.552,212.288 460.144,212.648 462.448,214.088 464.176,216.104 465.112,218.696 465.4,219.848 465.4,530.6 464.752,533.192 463.6,535.496 461.584,537.224 458.992,538.088 457.552,538.088 146.8,538.088 144.208,537.8 141.904,536.36 140.464,534.344 139.312,532.04 139.312,219.848 139.888,217.256 "
   id="polygon945" />
	<g
   id="g957">
		<polygon
   style="clip-rule:evenodd;fill:#ffffff;fill-rule:evenodd"
   points="204.04,424.544 204.04,413.384 253.432,413.384 253.432,424.544 234.352,424.544 234.352,488.984 223.048,488.984 223.048,424.544 "
   id="polygon947" />
		<polygon
   style="clip-rule:evenodd;fill:#ffffff;fill-rule:evenodd"
   points="291.52,413.384 311.392,488.984 300.16,488.984 296.416,476.312 273.592,476.312 269.848,488.984 258.616,488.984 278.56,413.384 "
   id="polygon949" />
		<polygon
   style="clip-rule:evenodd;fill:#0079c1;fill-rule:evenodd"
   points="293.248,464.72 276.832,464.72 285.184,435.848 "
   id="polygon951" />
		<polygon
   style="clip-rule:evenodd;fill:#ffffff;fill-rule:evenodd"
   points="322.984,413.384 335.656,413.384 345.448,434.984 355.6,413.384 368.272,413.384 352.144,449.096 370.36,488.984 357.328,488.984 345.448,463.28 333.928,488.984 320.896,488.984 339.112,449.096 "
   id="polygon953" />
		<rect
   x="388.216"
   y="413.384"
   style="clip-rule:evenodd;fill:#ffffff;fill-rule:evenodd"
   width="11.304"
   height="75.599998"
   id="rect955" />
	</g>
	<g
   id="g979">
		<rect
   x="176.248"
   y="346.64001"
   style="clip-rule:evenodd;fill:#ffffff;fill-rule:evenodd"
   width="253.87199"
   height="8.0640001"
   id="rect959" />
		<path
   style="clip-rule:evenodd;fill:#ffffff;fill-rule:evenodd"
   d="M 193.024,338.864 V 304.16 l 9.504,-35.496 h 67.32 v -3.456 l -28.008,-19.944 34.416,-23.112 33.984,23.4 -28.512,19.656 v 3.456 h 121.248 l 8.928,33.48 v 36.72 h -26.28 c -2.304,8.352 -11.808,10.944 -18.792,2.592 h -5.472 c -4.896,6.912 -13.536,6.336 -17.928,0 h -80.784 c -4.32,6.336 -13.32,6.912 -17.64,0 h -6.624 c -5.184,7.2 -16.488,6.336 -19.08,-2.592 z"
   id="path961"
   inkscape:connector-curvature="0" />
		<polygon
   style="clip-rule:evenodd;fill:#0079c1;fill-rule:evenodd"
   points="220.456,276.44 220.456,303.008 198.496,303.008 205.192,276.44 "
   id="polygon963" />
		<rect
   x="225.64"
   y="276.44"
   style="clip-rule:evenodd;fill:#0079c1;fill-rule:evenodd"
   width="26.639999"
   height="26.568001"
   id="rect965" />
		<rect
   x="257.46399"
   y="276.44"
   style="clip-rule:evenodd;fill:#0079c1;fill-rule:evenodd"
   width="26.568001"
   height="26.568001"
   id="rect967" />
		<rect
   x="289.216"
   y="276.44"
   style="clip-rule:evenodd;fill:#0079c1;fill-rule:evenodd"
   width="26.208"
   height="26.568001"
   id="rect969" />
		<rect
   x="320.896"
   y="276.44"
   style="clip-rule:evenodd;fill:#0079c1;fill-rule:evenodd"
   width="26.351999"
   height="26.568001"
   id="rect971" />
		<rect
   x="352.43201"
   y="276.44"
   style="clip-rule:evenodd;fill:#0079c1;fill-rule:evenodd"
   width="26.280001"
   height="26.568001"
   id="rect973" />
		<polygon
   style="clip-rule:evenodd;fill:#0079c1;fill-rule:evenodd"
   points="300.16,244.688 275.968,262.04 251.704,245.264 276.256,228.488 "
   id="polygon975" />
		<polygon
   style="clip-rule:evenodd;fill:#0079c1;fill-rule:evenodd"
   points="406.72,303.008 384.184,303.008 384.184,276.44 399.808,276.44 "
   id="polygon977" />
	</g>
</g>
</svg>