<?xml version="1.0" encoding="UTF-8" standalone="no"?>
<!-- Generator: Adobe Illustrator 15.1.0, SVG Export Plug-In . SVG Version: 6.00 Build 0)  -->

<svg
   xmlns:dc="http://purl.org/dc/elements/1.1/"
   xmlns:cc="http://creativecommons.org/ns#"
   xmlns:rdf="http://www.w3.org/1999/02/22-rdf-syntax-ns#"
   xmlns:svg="http://www.w3.org/2000/svg"
   xmlns="http://www.w3.org/2000/svg"
   xmlns:sodipodi="http://sodipodi.sourceforge.net/DTD/sodipodi-0.dtd"
   xmlns:inkscape="http://www.inkscape.org/namespaces/inkscape"
   version="1.1"
   id="Layer_1"
   x="0px"
   y="0px"
   width="341.48981"
   height="341.48981"
   viewBox="0 0 341.48981 341.48981"
   xml:space="preserve"
   sodipodi:docname="544a.svg"
   inkscape:version="0.92.5 (2060ec1f9f, 2020-04-08)"><metadata
   id="metadata1025"><rdf:RDF><cc:Work
       rdf:about=""><dc:format>image/svg+xml</dc:format><dc:type
         rdf:resource="http://purl.org/dc/dcmitype/StillImage" /></cc:Work></rdf:RDF></metadata><defs
   id="defs1023" /><sodipodi:namedview
   pagecolor="#ffffff"
   bordercolor="#666666"
   borderopacity="1"
   objecttolerance="10"
   gridtolerance="10"
   guidetolerance="10"
   inkscape:pageopacity="0"
   inkscape:pageshadow="2"
   inkscape:window-width="640"
   inkscape:window-height="480"
   id="namedview1021"
   showgrid="false"
   inkscape:zoom="0.28028504"
   inkscape:cx="210.2409"
   inkscape:cy="197.79692"
   inkscape:window-x="0"
   inkscape:window-y="0"
   inkscape:window-maximized="0"
   inkscape:current-layer="Layer_1" />
<g
   id="g1018"
   transform="translate(-87.259102,-277.30711)">
	
		<rect
   x="87.760002"
   y="277.80801"
   style="clip-rule:evenodd;fill:#0079c1;fill-rule:evenodd;stroke:#0079c1;stroke-width:1.00179994;stroke-miterlimit:10"
   width="340.48801"
   height="340.48801"
   id="rect990" />
	<polygon
   style="clip-rule:evenodd;fill:#ffffff;fill-rule:evenodd"
   points="88.696,287.6 90.424,284.432 92.728,281.552 95.896,279.536 100.216,277.808 102.808,277.808 412.984,277.808 416.728,278.096 420.184,279.536 423.064,281.552 425.656,284.432 427.096,287.6 428.248,291.056 428.248,604.976 427.096,608.432 425.656,611.6 423.064,614.48 420.184,616.496 416.728,617.648 412.984,618.296 101.08,618.296 97.624,617.072 94.168,615.632 91.576,613.04 89.56,610.16 88.696,608.432 87.76,604.976 87.76,292.784 88.12,289.328 "
   id="polygon992" />
	<polygon
   style="clip-rule:evenodd;fill:#0079c1;fill-rule:evenodd"
   points="96.472,289.04 97.336,288.176 98.2,287.024 99.352,286.448 101.656,285.584 103.096,285.296 413.272,285.296 415.864,285.872 418.168,287.024 419.896,289.04 420.76,291.632 420.76,292.784 420.76,602.96 420.472,605.552 419.032,607.856 417.016,609.584 414.424,610.448 413.272,610.736 103.096,610.736 100.504,610.16 98.2,609.008 96.472,606.992 95.608,604.4 95.608,292.784 95.896,290.192 "
   id="polygon994" />
	<rect
   x="130.744"
   y="485.31201"
   style="clip-rule:evenodd;fill:#ffffff;fill-rule:evenodd"
   width="253.728"
   height="7.776"
   id="rect996" />
	<path
   style="clip-rule:evenodd;fill:#ffffff;fill-rule:evenodd"
   d="m 147.52,477.248 v -34.344 l 9.792,-35.352 H 224.2 v -3.744 l -28.008,-19.656 34.344,-23.328 34.056,23.328 -28.584,19.656 v 3.744 h 121.32 l 8.928,33.048 v 36.648 h -26.208 c -2.592,8.64 -12.096,11.232 -18.72,2.592 h -5.832 c -4.896,6.912 -13.248,6.336 -17.784,0 H 217 c -4.032,6.624 -13.248,6.912 -17.352,0 h -6.624 c -5.472,7.488 -16.704,6.624 -19.008,-2.592 z"
   id="path998"
   inkscape:connector-curvature="0" />
	<polygon
   style="clip-rule:evenodd;fill:#0079c1;fill-rule:evenodd"
   points="174.88,415.328 174.88,441.752 152.992,441.752 159.904,415.328 "
   id="polygon1000" />
	<rect
   x="180.35201"
   y="415.328"
   style="clip-rule:evenodd;fill:#0079c1;fill-rule:evenodd"
   width="26.280001"
   height="26.424"
   id="rect1002" />
	<rect
   x="212.104"
   y="415.328"
   style="clip-rule:evenodd;fill:#0079c1;fill-rule:evenodd"
   width="26.208"
   height="26.424"
   id="rect1004" />
	<rect
   x="243.496"
   y="415.328"
   style="clip-rule:evenodd;fill:#0079c1;fill-rule:evenodd"
   width="26.568001"
   height="26.424"
   id="rect1006" />
	<rect
   x="275.24799"
   y="415.328"
   style="clip-rule:evenodd;fill:#0079c1;fill-rule:evenodd"
   width="26.424"
   height="26.424"
   id="rect1008" />
	<rect
   x="306.56799"
   y="415.328"
   style="clip-rule:evenodd;fill:#0079c1;fill-rule:evenodd"
   width="26.280001"
   height="26.424"
   id="rect1010" />
	<polygon
   style="clip-rule:evenodd;fill:#0079c1;fill-rule:evenodd"
   points="254.44,383.576 230.248,400.928 206.344,383.864 230.536,367.448 "
   id="polygon1012" />
	<polygon
   style="clip-rule:evenodd;fill:#0079c1;fill-rule:evenodd"
   points="361.072,441.752 338.608,441.752 338.608,415.328 353.872,415.328 "
   id="polygon1014" />
	<polygon
   style="clip-rule:evenodd;fill:#ef3e42;fill-rule:evenodd"
   points="95.32,604.4 96.472,606.992 99.064,609.584 102.808,610.736 122.104,610.736 420.76,312.08 420.76,292.784 420.472,291.632 419.032,288.176 416.728,286.448 411.544,285.872 393.976,285.296 95.32,583.952 95.32,600.944 "
   id="polygon1016" />
</g>
</svg>