<?xml version="1.0" encoding="iso-8859-1"?>
<!-- Generator: Adobe Illustrator 15.1.0, SVG Export Plug-In . SVG Version: 6.00 Build 0)  -->
<!DOCTYPE svg PUBLIC "-//W3C//DTD SVG 1.1//EN" "http://www.w3.org/Graphics/SVG/1.1/DTD/svg11.dtd">
<svg version="1.1" id="Layer_1" xmlns="http://www.w3.org/2000/svg" xmlns:xlink="http://www.w3.org/1999/xlink" x="0px" y="0px"
	 width="595px" height="842px" viewBox="0 0 595 842" style="enable-background:new 0 0 595 842;" xml:space="preserve">
<g>
	
		<rect x="87.76" y="277.808" style="fill-rule:evenodd;clip-rule:evenodd;fill:#0079C1;stroke:#0079C1;stroke-width:1.0018;stroke-miterlimit:10;" width="340.488" height="340.488"/>
	<polygon style="fill-rule:evenodd;clip-rule:evenodd;fill:#FFFFFF;" points="87.76,292.784 88.12,289.328 88.696,287.6 
		90.424,284.432 92.728,281.552 95.896,279.536 100.216,277.808 102.808,277.808 412.984,277.808 416.728,278.096 420.184,279.536 
		423.064,281.552 425.656,284.432 427.096,287.6 428.248,291.056 428.248,604.976 427.096,608.432 425.656,611.6 423.064,614.48 
		420.184,616.496 416.728,617.648 412.984,618.296 101.08,618.296 97.624,617.072 94.168,615.632 91.576,613.04 89.56,610.16 
		88.696,608.432 87.76,604.976 	"/>
	<polygon style="fill-rule:evenodd;clip-rule:evenodd;fill:#0079C1;" points="95.608,292.784 95.896,290.192 96.472,289.04 
		97.336,288.176 98.2,287.024 99.352,286.448 101.656,285.584 103.096,285.296 413.272,285.296 415.864,285.872 418.168,287.024 
		419.896,289.04 420.76,291.632 420.76,292.784 420.76,602.96 420.472,605.552 419.032,607.856 417.016,609.584 414.424,610.448 
		413.272,610.736 103.096,610.736 100.504,610.16 98.2,609.008 96.472,606.992 95.608,604.4 	"/>
	<rect x="130.744" y="485.312" style="fill-rule:evenodd;clip-rule:evenodd;fill:#FFFFFF;" width="253.728" height="7.776"/>
	<path style="fill-rule:evenodd;clip-rule:evenodd;fill:#FFFFFF;" d="M147.52,477.248v-34.344l9.792-35.352H224.2v-3.744
		l-28.008-19.656l34.344-23.328l34.056,23.328l-28.584,19.656v3.744h121.32l8.928,33.048v36.648h-26.208
		c-2.592,8.64-12.096,11.232-18.72,2.592h-5.832c-4.896,6.912-13.248,6.336-17.784,0H217c-4.032,6.624-13.248,6.912-17.352,0h-6.624
		c-5.472,7.488-16.704,6.624-19.008-2.592H147.52z"/>
	<polygon style="fill-rule:evenodd;clip-rule:evenodd;fill:#0079C1;" points="152.992,441.752 159.904,415.328 174.88,415.328 
		174.88,441.752 	"/>
	<rect x="180.352" y="415.328" style="fill-rule:evenodd;clip-rule:evenodd;fill:#0079C1;" width="26.28" height="26.424"/>
	<rect x="212.104" y="415.328" style="fill-rule:evenodd;clip-rule:evenodd;fill:#0079C1;" width="26.208" height="26.424"/>
	<rect x="243.496" y="415.328" style="fill-rule:evenodd;clip-rule:evenodd;fill:#0079C1;" width="26.568" height="26.424"/>
	<rect x="275.248" y="415.328" style="fill-rule:evenodd;clip-rule:evenodd;fill:#0079C1;" width="26.424" height="26.424"/>
	<rect x="306.568" y="415.328" style="fill-rule:evenodd;clip-rule:evenodd;fill:#0079C1;" width="26.28" height="26.424"/>
	<polygon style="fill-rule:evenodd;clip-rule:evenodd;fill:#0079C1;" points="206.344,383.864 230.536,367.448 254.44,383.576 
		230.248,400.928 	"/>
	<polygon style="fill-rule:evenodd;clip-rule:evenodd;fill:#0079C1;" points="338.608,415.328 353.872,415.328 361.072,441.752 
		338.608,441.752 	"/>
	<polygon style="fill-rule:evenodd;clip-rule:evenodd;fill:#EF3E42;" points="95.32,583.952 95.32,600.944 95.32,604.4 
		96.472,606.992 99.064,609.584 102.808,610.736 122.104,610.736 420.76,312.08 420.76,292.784 420.472,291.632 419.032,288.176 
		416.728,286.448 411.544,285.872 393.976,285.296 	"/>
</g>
</svg>
