<?xml version="1.0" encoding="UTF-8" standalone="no"?>
<!-- Generator: Adobe Illustrator 15.1.0, SVG Export Plug-In . SVG Version: 6.00 Build 0)  -->

<svg
   xmlns:dc="http://purl.org/dc/elements/1.1/"
   xmlns:cc="http://creativecommons.org/ns#"
   xmlns:rdf="http://www.w3.org/1999/02/22-rdf-syntax-ns#"
   xmlns:svg="http://www.w3.org/2000/svg"
   xmlns="http://www.w3.org/2000/svg"
   xmlns:sodipodi="http://sodipodi.sourceforge.net/DTD/sodipodi-0.dtd"
   xmlns:inkscape="http://www.inkscape.org/namespaces/inkscape"
   version="1.1"
   id="Layer_1"
   x="0px"
   y="0px"
   width="341.13028"
   height="341.13028"
   viewBox="0 0 341.13028 341.13028"
   xml:space="preserve"
   sodipodi:docname="544b.svg"
   inkscape:version="0.92.5 (2060ec1f9f, 2020-04-08)"><metadata
   id="metadata1076"><rdf:RDF><cc:Work
       rdf:about=""><dc:format>image/svg+xml</dc:format><dc:type
         rdf:resource="http://purl.org/dc/dcmitype/StillImage" /></cc:Work></rdf:RDF></metadata><defs
   id="defs1074" /><sodipodi:namedview
   pagecolor="#ffffff"
   bordercolor="#666666"
   borderopacity="1"
   objecttolerance="10"
   gridtolerance="10"
   guidetolerance="10"
   inkscape:pageopacity="0"
   inkscape:pageshadow="2"
   inkscape:window-width="640"
   inkscape:window-height="480"
   id="namedview1072"
   showgrid="false"
   inkscape:zoom="0.28028504"
   inkscape:cx="188.28115"
   inkscape:cy="176.19713"
   inkscape:window-x="0"
   inkscape:window-y="0"
   inkscape:window-maximized="0"
   inkscape:current-layer="Layer_1" />
<g
   id="g1069"
   transform="translate(-109.21885,-256.06684)">
	
		<rect
   x="109.72"
   y="256.56799"
   style="clip-rule:evenodd;fill:#0079c1;fill-rule:evenodd;stroke:#0079c1;stroke-width:1.00230002;stroke-miterlimit:10"
   width="340.12799"
   height="340.12799"
   id="rect1027" />
	<polygon
   style="clip-rule:evenodd;fill:#ffffff;fill-rule:evenodd"
   points="110.656,266.36 112.384,263.192 114.976,260.312 117.856,258.296 122.464,256.568 125.056,256.568 434.872,256.568 438.328,256.856 441.784,258.296 444.952,260.312 447.256,263.192 448.984,266.36 449.848,269.816 449.848,583.376 448.984,586.832 447.256,590 444.952,592.88 441.784,594.896 438.328,596.12 434.872,596.696 123.04,596.696 119.584,595.472 116.416,594.032 113.536,591.44 111.52,588.56 110.656,586.832 109.72,583.376 109.72,271.544 110.296,268.088 "
   id="polygon1029" />
	<polygon
   style="clip-rule:evenodd;fill:#0079c1;fill-rule:evenodd"
   points="118.432,267.8 119.296,266.936 120.16,265.784 121.312,265.208 123.904,264.344 125.056,264.056 434.872,264.056 437.464,264.632 439.768,265.784 441.496,267.8 442.36,270.392 442.648,271.544 442.648,581.36 442.072,583.952 440.632,586.256 438.616,587.984 436.312,588.848 434.872,589.136 125.056,589.136 122.464,588.56 120.16,587.408 118.432,585.392 117.568,582.8 117.568,271.544 118.144,268.952 "
   id="polygon1031" />
	<g
   id="g1043">
		<polygon
   style="clip-rule:evenodd;fill:#ffffff;fill-rule:evenodd"
   points="182.08,475.952 182.08,464.432 231.328,464.432 231.328,475.952 212.32,475.952 212.32,540.176 201.088,540.176 201.088,475.952 "
   id="polygon1033" />
		<polygon
   style="clip-rule:evenodd;fill:#ffffff;fill-rule:evenodd"
   points="269.344,464.432 289.216,540.176 277.984,540.176 274.24,527.216 251.488,527.216 247.744,540.176 236.512,540.176 256.384,464.432 "
   id="polygon1035" />
		<polygon
   style="clip-rule:evenodd;fill:#0079c1;fill-rule:evenodd"
   points="271.072,515.984 254.656,515.984 262.72,487.184 "
   id="polygon1037" />
		<polygon
   style="clip-rule:evenodd;fill:#ffffff;fill-rule:evenodd"
   points="300.376,464.432 313.336,464.432 323.128,486.032 332.92,464.432 345.88,464.432 329.752,500.144 347.896,540.176 334.936,540.176 323.128,514.256 311.608,540.176 298.648,540.176 316.792,500.144 "
   id="polygon1039" />
		<rect
   x="365.46399"
   y="464.43201"
   style="clip-rule:evenodd;fill:#ffffff;fill-rule:evenodd"
   width="11.52"
   height="75.744003"
   id="rect1041" />
	</g>
	<g
   id="g1065">
		<rect
   x="154.43201"
   y="398.26401"
   style="clip-rule:evenodd;fill:#ffffff;fill-rule:evenodd"
   width="253.08"
   height="7.776"
   id="rect1045" />
		<path
   style="clip-rule:evenodd;fill:#ffffff;fill-rule:evenodd"
   d="m 171.136,390.2 v -34.272 l 9.504,-35.424 h 67.104 v -3.744 l -27.936,-19.584 33.984,-23.328 34.272,23.328 -28.512,19.584 v 3.744 H 380.44 l 8.928,33.12 V 390.2 H 363.16 c -2.592,8.64 -12.096,11.232 -18.72,2.592 h -5.472 c -4.896,6.912 -13.536,6.336 -17.856,0 h -80.568 c -4.32,6.624 -13.248,6.912 -17.568,0 h -6.624 c -5.184,7.488 -16.416,6.624 -19.008,-2.592 z"
   id="path1047"
   inkscape:connector-curvature="0" />
		<polygon
   style="clip-rule:evenodd;fill:#0079c1;fill-rule:evenodd"
   points="198.208,328.28 198.208,354.776 176.32,354.776 183.232,328.28 "
   id="polygon1049" />
		<rect
   x="203.67999"
   y="328.28"
   style="clip-rule:evenodd;fill:#0079c1;fill-rule:evenodd"
   width="26.496"
   height="26.496"
   id="rect1051" />
		<rect
   x="235.36"
   y="328.28"
   style="clip-rule:evenodd;fill:#0079c1;fill-rule:evenodd"
   width="26.208"
   height="26.496"
   id="rect1053" />
		<rect
   x="267.04001"
   y="328.28"
   style="clip-rule:evenodd;fill:#0079c1;fill-rule:evenodd"
   width="26.208"
   height="26.496"
   id="rect1055" />
		<rect
   x="298.64801"
   y="328.28"
   style="clip-rule:evenodd;fill:#0079c1;fill-rule:evenodd"
   width="26.208"
   height="26.496"
   id="rect1057" />
		<rect
   x="329.75201"
   y="328.28"
   style="clip-rule:evenodd;fill:#0079c1;fill-rule:evenodd"
   width="26.496"
   height="26.496"
   id="rect1059" />
		<polygon
   style="clip-rule:evenodd;fill:#0079c1;fill-rule:evenodd"
   points="277.984,296.6 253.504,313.88 229.6,296.888 254.08,280.472 "
   id="polygon1061" />
		<polygon
   style="clip-rule:evenodd;fill:#0079c1;fill-rule:evenodd"
   points="384.184,354.776 361.72,354.776 361.72,328.28 376.984,328.28 "
   id="polygon1063" />
	</g>
	<polygon
   style="clip-rule:evenodd;fill:#ef3e42;fill-rule:evenodd"
   points="119.008,586.256 121.024,587.984 125.056,589.136 144.064,589.136 442.36,290.84 442.36,271.544 441.784,268.952 440.632,266.936 438.616,265.208 434.872,264.056 415.576,264.056 117.28,562.352 117.568,582.8 "
   id="polygon1067" />
</g>
</svg>