<?xml version="1.0" encoding="UTF-8" standalone="no"?>
<!-- Generator: Adobe Illustrator 15.1.0, SVG Export Plug-In . SVG Version: 6.00 Build 0)  -->

<svg
   xmlns:dc="http://purl.org/dc/elements/1.1/"
   xmlns:cc="http://creativecommons.org/ns#"
   xmlns:rdf="http://www.w3.org/1999/02/22-rdf-syntax-ns#"
   xmlns:svg="http://www.w3.org/2000/svg"
   xmlns="http://www.w3.org/2000/svg"
   xmlns:sodipodi="http://sodipodi.sourceforge.net/DTD/sodipodi-0.dtd"
   xmlns:inkscape="http://www.inkscape.org/namespaces/inkscape"
   version="1.1"
   id="Layer_1"
   x="0px"
   y="0px"
   width="343.05423"
   height="489.9342"
   viewBox="0 0 343.05423 489.9342"
   xml:space="preserve"
   sodipodi:docname="563.svg"
   inkscape:version="0.92.5 (2060ec1f9f, 2020-04-08)"><metadata
   id="metadata1251"><rdf:RDF><cc:Work
       rdf:about=""><dc:format>image/svg+xml</dc:format><dc:type
         rdf:resource="http://purl.org/dc/dcmitype/StillImage" /></cc:Work></rdf:RDF></metadata><defs
   id="defs1249" /><sodipodi:namedview
   pagecolor="#ffffff"
   bordercolor="#666666"
   borderopacity="1"
   objecttolerance="10"
   gridtolerance="10"
   guidetolerance="10"
   inkscape:pageopacity="0"
   inkscape:pageshadow="2"
   inkscape:window-width="640"
   inkscape:window-height="480"
   id="namedview1247"
   showgrid="false"
   inkscape:zoom="0.28028504"
   inkscape:cx="174.4471"
   inkscape:cy="241.56309"
   inkscape:window-x="0"
   inkscape:window-y="0"
   inkscape:window-maximized="0"
   inkscape:current-layer="Layer_1" />
<g
   id="g1244"
   transform="translate(-123.0529,-172.6289)">
	
		<rect
   x="123.76"
   y="173.336"
   style="clip-rule:evenodd;fill:#00a389;fill-rule:evenodd;stroke:#00a389;stroke-width:1.41419995;stroke-miterlimit:10"
   width="341.64001"
   height="488.51999"
   id="rect1226" />
	<polygon
   style="clip-rule:evenodd;fill:#ffffff;fill-rule:evenodd"
   points="125.488,185.864 127.576,181.76 130.888,178.016 132.544,176.792 134.56,175.496 136.648,174.272 139.096,173.84 447.832,173.48 450.28,173.84 452.368,174.272 454.024,175.136 456.472,176.792 458.56,178.016 460.216,179.672 461.44,181.76 462.664,183.416 463.528,185.864 464.32,187.952 464.752,190.4 464.752,644.72 464.32,646.736 463.528,649.256 462.664,651.344 461.44,653.36 460.216,655.016 458.56,656.672 456.472,658.328 454.456,659.552 452.368,660.416 450.28,661.208 447.832,661.64 141.184,661.64 139.096,661.208 136.648,660.416 134.56,659.552 132.544,658.328 130.888,656.672 129.232,655.016 127.576,653.36 126.352,651.344 125.488,649.256 124.696,646.736 124.264,644.72 124.264,192.92 124.264,190.4 "
   id="polygon1228" />
	<polygon
   style="clip-rule:evenodd;fill:#00a389;fill-rule:evenodd"
   points="134.128,189.464 134.992,188.24 135.784,186.584 137.008,185.36 138.304,184.496 139.96,183.704 141.616,183.272 143.272,183.272 445.96,183.272 447.616,183.272 449.272,183.704 450.928,184.496 452.152,185.36 453.808,187.016 455.104,188.672 455.104,189.464 455.896,191.12 455.896,193.208 455.896,642.344 455.896,644 455.104,645.656 454.672,647.312 453.448,648.608 452.152,649.832 450.928,651.056 449.272,651.488 447.616,651.92 143.272,652.28 141.616,651.92 139.96,651.488 138.304,651.056 137.008,649.832 135.784,648.608 134.992,647.312 134.128,645.656 133.696,644 133.336,642.344 133.336,193.208 133.696,191.12 "
   id="polygon1230" />
	<polygon
   style="clip-rule:evenodd;fill:#ffffff;fill-rule:evenodd"
   points="377.704,511.232 378.928,515.408 381.448,519.512 385.552,522.824 389.296,524.48 393.472,525.272 397.576,524.48 401.68,522.824 404.632,520.376 407.512,517.064 408.736,513.32 409.168,511.232 409.6,488.48 410.824,486.824 412.48,485.168 413.272,483.512 414.136,481.424 417.88,459.968 419.896,440.888 421.192,421.448 421.552,411.584 421.552,407.048 420.328,402.08 418.24,397.976 414.928,394.232 410.824,391.784 409.6,390.92 395.92,334.688 395.128,332.168 393.832,329.288 392.608,326.84 390.952,324.752 388.864,322.664 386.848,320.576 384.76,318.56 382.24,317.336 379.792,315.68 377.272,314.816 374.392,314.024 371.944,313.592 350.416,311.936 331.768,311.072 313.192,310.712 294.616,310.28 249.976,311.072 220.168,313.16 214.408,314.024 209.008,316.04 204.04,319.352 199.504,323.528 196.192,328.496 193.672,333.824 180.064,390.92 177.184,393.008 173.872,394.664 171.352,397.544 168.904,402.512 168.04,407.048 168.04,411.584 167.68,424.76 168.472,431.024 170.128,450.464 175.096,481.064 175.528,482.72 176.32,484.376 177.544,485.6 180.064,488.48 180.064,511.232 181.288,515.408 183.376,519.08 186.256,522.032 189.568,524.048 193.672,524.912 197.848,524.912 201.952,524.048 205.264,522.032 208.576,519.08 210.232,515.408 211.528,511.232 211.528,488.48 377.704,488.48 "
   id="polygon1232" />
	<polygon
   style="clip-rule:evenodd;fill:#00a389;fill-rule:evenodd"
   points="213.184,340.088 214.84,337.136 216.424,335.912 220.168,333.464 224.344,332.168 238.384,331.376 262.36,330.512 294.616,329.72 308.656,329.72 335.08,330.512 350.416,331.376 364.456,332.168 366.544,332.6 370.72,333.824 374.032,336.344 376.048,339.224 377.272,342.104 388.864,388.472 373.168,386.816 357.472,385.592 341.704,384.296 326.008,383.936 310.312,383.504 278.92,383.504 263.224,383.936 247.456,384.296 231.76,385.592 216.424,386.816 200.728,388.472 211.528,342.968 "
   id="polygon1234" />
	<polygon
   style="clip-rule:evenodd;fill:#00a389;fill-rule:evenodd"
   points="371.944,419.864 371.512,422.312 217.72,422.312 217.72,419.864 217.288,417.416 216.424,415.328 372.736,415.328 "
   id="polygon1236" />
	<polygon
   style="clip-rule:evenodd;fill:#00a389;fill-rule:evenodd"
   points="213.976,435.128 211.888,437.216 377.272,437.216 375.688,435.128 374.032,432.68 372.736,429.728 216.424,429.728 215.2,432.68 "
   id="polygon1238" />
	<path
   style="clip-rule:evenodd;fill:#00a389;fill-rule:evenodd"
   d="m 195.76,406.688 c 11.16,-0.432 17.424,10.728 15.768,18.072 -1.296,8.28 -7.488,13.68 -15.768,13.68 -7.848,0 -14.904,-5.4 -15.696,-13.68 -2.088,-9.432 7.056,-18.072 15.696,-18.072 z"
   id="path1240"
   inkscape:connector-curvature="0" />
	<path
   style="clip-rule:evenodd;fill:#00a389;fill-rule:evenodd"
   d="m 393.832,406.688 c 11.16,-0.432 17.424,10.728 15.768,18.072 -1.296,8.28 -7.488,13.68 -15.768,13.68 -7.848,0 -14.904,-5.4 -15.696,-13.68 -2.088,-9.432 7.056,-18.072 15.696,-18.072 z"
   id="path1242"
   inkscape:connector-curvature="0" />
</g>
</svg>