<?xml version="1.0" encoding="UTF-8" standalone="no"?>
<!-- Generator: Adobe Illustrator 15.1.0, SVG Export Plug-In . SVG Version: 6.00 Build 0)  -->

<svg
   xmlns:dc="http://purl.org/dc/elements/1.1/"
   xmlns:cc="http://creativecommons.org/ns#"
   xmlns:rdf="http://www.w3.org/1999/02/22-rdf-syntax-ns#"
   xmlns:svg="http://www.w3.org/2000/svg"
   xmlns="http://www.w3.org/2000/svg"
   xmlns:sodipodi="http://sodipodi.sourceforge.net/DTD/sodipodi-0.dtd"
   xmlns:inkscape="http://www.inkscape.org/namespaces/inkscape"
   version="1.1"
   id="Layer_1"
   x="0px"
   y="0px"
   width="342.69308"
   height="488.7811"
   viewBox="0 0 342.69308 488.7811"
   xml:space="preserve"
   sodipodi:docname="564.svg"
   inkscape:version="0.92.5 (2060ec1f9f, 2020-04-08)"><metadata
   id="metadata1280"><rdf:RDF><cc:Work
       rdf:about=""><dc:format>image/svg+xml</dc:format><dc:type
         rdf:resource="http://purl.org/dc/dcmitype/StillImage" /></cc:Work></rdf:RDF></metadata><defs
   id="defs1278" /><sodipodi:namedview
   pagecolor="#ffffff"
   bordercolor="#666666"
   borderopacity="1"
   objecttolerance="10"
   gridtolerance="10"
   guidetolerance="10"
   inkscape:pageopacity="0"
   inkscape:pageshadow="2"
   inkscape:window-width="640"
   inkscape:window-height="480"
   id="namedview1276"
   showgrid="false"
   inkscape:zoom="0.28028504"
   inkscape:cx="188.48655"
   inkscape:cy="219.96256"
   inkscape:window-x="0"
   inkscape:window-y="0"
   inkscape:window-maximized="0"
   inkscape:current-layer="Layer_1" />
<g
   id="g1273"
   transform="translate(-109.01345,-152.18145)">
	
		<rect
   x="109.72"
   y="152.888"
   style="clip-rule:evenodd;fill:#00a389;fill-rule:evenodd;stroke:#00a389;stroke-width:1.4131;stroke-miterlimit:10"
   width="341.28"
   height="487.36801"
   id="rect1253" />
	<polygon
   style="clip-rule:evenodd;fill:#ffffff;fill-rule:evenodd"
   points="111.016,165.704 113.464,161.528 116.344,157.856 118.432,156.632 120.088,155.336 122.536,154.112 124.624,153.752 433.648,153.32 436.096,153.752 438.184,154.112 440.272,154.976 442.72,156.632 444.376,157.856 446.032,159.512 447.256,161.528 448.48,163.184 449.776,165.704 450.568,167.72 451,170.24 451,623.264 450.568,625.352 449.776,627.872 448.48,629.888 447.256,631.976 446.032,633.632 444.376,635.288 442.72,636.944 440.704,638.168 438.184,638.96 436.096,639.824 433.648,640.256 127.072,640.256 124.624,639.824 122.536,638.96 120.088,638.168 118.432,636.944 116.344,635.288 114.688,633.632 113.464,631.976 112.24,629.888 111.016,627.872 110.584,625.352 109.72,623.264 109.72,172.688 109.72,170.24 "
   id="polygon1255" />
	<polygon
   style="clip-rule:evenodd;fill:#00a389;fill-rule:evenodd"
   points="120.088,169.016 120.88,167.72 121.744,166.064 122.968,164.84 124.624,164.048 125.848,163.184 127.504,162.824 129.16,162.824 431.56,162.824 433.216,162.824 434.872,163.184 436.096,164.048 437.752,164.84 439.408,166.496 440.272,168.152 440.704,169.016 441.064,170.672 441.064,172.688 441.064,620.816 441.064,622.472 440.704,624.128 439.84,625.784 439.048,627.008 437.752,628.232 436.096,629.456 434.872,629.888 433.216,630.32 129.16,630.752 127.504,630.32 125.848,629.888 124.624,629.456 122.968,628.232 121.744,627.008 120.88,625.784 120.088,624.128 119.656,622.472 119.656,620.816 119.656,172.688 119.656,170.672 "
   id="polygon1257" />
	<polygon
   style="clip-rule:evenodd;fill:#ffffff;fill-rule:evenodd"
   points="363.52,489.992 364.312,494.096 366.832,498.272 370.936,501.584 375.04,503.168 379.144,504.032 383.32,503.168 386.992,501.584 390.304,499.064 392.824,495.752 394.48,492.08 394.84,489.992 394.84,467.312 396.496,465.656 397.72,464 398.584,462.344 399.376,460.256 403.12,438.8 405.568,419.936 406.864,400.496 406.864,390.632 406.864,386.096 405.568,381.128 403.552,377.024 400.24,373.28 396.064,370.832 394.84,369.968 381.232,313.88 380.44,311.36 379.144,308.48 377.92,306.032 376.264,303.944 374.608,301.856 372.592,299.84 370.072,297.752 368.056,296.528 365.536,294.872 362.656,294.008 360.208,293.216 357.328,292.784 335.872,291.128 317.296,290.336 299.08,289.904 280.216,289.472 236.008,290.336 206.344,292.352 200.584,293.216 194.752,295.304 189.784,298.544 185.68,302.72 182.008,307.688 179.488,313.016 165.88,369.968 163,372.056 160.12,373.712 157.24,376.592 154.72,381.56 153.928,386.096 153.928,390.632 153.928,403.808 154.36,410 155.944,429.296 160.912,459.896 161.776,461.552 162.568,463.136 163.432,464.432 165.88,467.312 165.88,489.992 167.104,494.096 169.192,497.84 172.072,500.72 175.816,502.808 179.488,503.6 183.664,503.6 187.768,502.808 191.44,500.72 194.392,497.84 196.408,494.096 197.272,489.992 197.632,467.312 363.088,467.312 "
   id="polygon1259" />
	<polygon
   style="clip-rule:evenodd;fill:#00a389;fill-rule:evenodd"
   points="198.928,319.208 200.584,316.328 202.168,315.104 205.912,312.584 210.016,311.36 224.056,310.568 248.392,309.704 280.216,308.912 294.256,308.912 320.608,309.704 335.872,310.568 349.84,311.36 351.928,311.792 356.032,313.016 359.344,315.464 361.864,318.416 363.088,321.296 374.248,367.52 358.552,365.864 342.856,364.64 327.16,363.344 311.464,362.984 295.912,362.552 264.952,362.552 249.256,362.984 233.56,363.344 217.864,364.64 202.168,365.864 186.544,367.52 197.632,322.088 "
   id="polygon1261" />
	<polygon
   style="clip-rule:evenodd;fill:#00a389;fill-rule:evenodd"
   points="357.328,398.84 357.328,401.36 203.464,401.36 203.464,398.84 203.032,396.392 202.168,394.304 358.552,394.304 "
   id="polygon1263" />
	<polygon
   style="clip-rule:evenodd;fill:#00a389;fill-rule:evenodd"
   points="199.72,414.104 198.064,416.192 362.656,416.192 361,414.104 359.344,411.656 358.552,408.776 202.168,408.776 201.376,411.656 "
   id="polygon1265" />
	<path
   style="clip-rule:evenodd;fill:#00a389;fill-rule:evenodd"
   d="m 181.576,385.664 c 11.16,-0.432 17.712,10.728 15.696,18.144 -0.864,8.28 -7.056,13.608 -15.696,13.608 -7.848,0 -14.472,-5.328 -15.696,-13.608 -1.656,-9.504 7.416,-18.144 15.696,-18.144 z"
   id="path1267"
   inkscape:connector-curvature="0" />
	<path
   style="clip-rule:evenodd;fill:#00a389;fill-rule:evenodd"
   d="m 379.144,385.664 c 11.16,-0.432 17.784,10.728 15.696,18.144 -0.792,8.28 -6.984,13.608 -15.696,13.608 -7.776,0 -14.4,-5.328 -15.624,-13.608 -2.088,-9.504 7.416,-18.144 15.624,-18.144 z"
   id="path1269"
   inkscape:connector-curvature="0" />
	<polygon
   style="clip-rule:evenodd;fill:#ef3e42;fill-rule:evenodd"
   points="120.88,625.784 124.192,629.096 129.16,630.752 146.512,630.752 441.064,209.408 441.064,172.688 439.84,167.72 436.096,164.048 429.904,163.184 414.28,162.824 119.656,583.664 119.656,620.816 "
   id="polygon1271" />
</g>
</svg>