<?xml version="1.0" encoding="iso-8859-1"?>
<!-- Generator: Adobe Illustrator 15.1.0, SVG Export Plug-In . SVG Version: 6.00 Build 0)  -->
<!DOCTYPE svg PUBLIC "-//W3C//DTD SVG 1.1//EN" "http://www.w3.org/Graphics/SVG/1.1/DTD/svg11.dtd">
<svg version="1.1" id="Layer_4" xmlns="http://www.w3.org/2000/svg" xmlns:xlink="http://www.w3.org/1999/xlink" x="0px" y="0px"
	 width="595px" height="842px" viewBox="0 0 595 842" style="enable-background:new 0 0 595 842;" xml:space="preserve">
<g>
	<g>
		<path style="fill-rule:evenodd;clip-rule:evenodd;fill:#007AC2;" d="M496.864,527.144c1.8,3.024,2.88,6.552,2.88,10.368v73.656
			c0,3.744-1.008,7.272-2.88,10.368v9.504h2.88l0,0V177.584h-2.88h2.88h-2.88h2.88l0,0l0,0l-2.88,0.072v9.432
			c1.8,3.024,2.88,6.552,2.88,10.368l0,0l0,0l0,0c0-3.816-1.08-7.344-2.88-10.368l0,0c1.8,3.024,2.88,6.552,2.88,10.368V497.84
			c0,3.672-1.008,7.2-2.88,10.296l0,0c1.872-3.096,2.88-6.624,2.88-10.296l0,0c0,3.672-1.008,7.2-2.88,10.296v9.504h2.88h-2.88
			V527.144L496.864,527.144z M499.744,497.84V197.456l0,0V497.84L499.744,497.84L499.744,497.84z M496.864,517.64h2.88l0,0l0,0
			H496.864z M496.072,525.92c0.288,0.432,0.504,0.792,0.792,1.224v-9.504h-0.792v-8.28c0.216-0.288,0.432-0.648,0.576-0.936l0,0
			c-0.144,0.288-0.36,0.648-0.576,0.936l0,0c0.288-0.36,0.504-0.792,0.792-1.224l0,0c-0.072,0.144-0.144,0.216-0.216,0.288l0,0
			c0.072-0.072,0.144-0.144,0.216-0.288v9.504h-0.792V525.92L496.072,525.92z M496.864,621.536
			c-0.288,0.432-0.504,0.792-0.792,1.224v8.28h0.792V621.536L496.864,621.536z M496.864,177.656v9.432
			c-0.288-0.432-0.504-0.792-0.792-1.224v-8.136L496.864,177.656L496.864,177.656z M496.864,187.088
			c-0.288-0.432-0.504-0.792-0.792-1.224l0,0C496.36,186.296,496.576,186.656,496.864,187.088L496.864,187.088L496.864,187.088z
			 M496.072,177.584h0.792H496.072h0.792H496.072L496.072,177.584z M496.072,517.64h0.792H496.072z M494.704,524.264
			c0.432,0.504,0.936,1.08,1.368,1.656v-8.28h-1.368v-6.552c0.432-0.576,0.936-1.152,1.368-1.728l0,0
			c-0.216,0.288-0.432,0.576-0.648,0.864l0,0c0.216-0.288,0.432-0.576,0.648-0.864v8.28h-1.368V524.264L494.704,524.264z
			 M496.072,622.76c-0.432,0.576-0.936,1.152-1.368,1.728v6.552h1.368V622.76L496.072,622.76z M496.072,177.728v8.136
			c-0.432-0.576-0.936-1.152-1.368-1.656v-6.48H496.072L496.072,177.728z M496.072,185.864c-0.432-0.576-0.936-1.152-1.368-1.656
			l0,0C495.136,184.712,495.64,185.288,496.072,185.864L496.072,185.864L496.072,185.864z M494.704,177.584h1.368H494.704h1.368
			H494.704L494.704,177.584z M494.704,511.088c0.216-0.288,0.504-0.576,0.72-0.864l0,0
			C495.208,510.512,494.92,510.8,494.704,511.088L494.704,511.088z M494.704,517.64h1.368H494.704z M493.984,523.472
			c0.216,0.216,0.432,0.504,0.72,0.792v-6.624h-0.72v-5.76c0.216-0.288,0.432-0.576,0.72-0.792v6.552h-0.72V523.472L493.984,523.472
			z M494.704,624.488c-0.288,0.216-0.504,0.504-0.72,0.72v5.832h0.72V624.488L494.704,624.488z M494.704,177.728v6.48
			c-0.288-0.288-0.504-0.576-0.72-0.792V177.8L494.704,177.728L494.704,177.728z M494.704,184.208
			c-0.288-0.288-0.504-0.576-0.72-0.792l0,0C494.2,183.632,494.416,183.92,494.704,184.208L494.704,184.208L494.704,184.208z
			 M493.984,177.584h0.72H493.984h0.72H493.984L493.984,177.584z M493.984,511.808c0.216-0.216,0.432-0.504,0.72-0.72
			C494.416,511.304,494.2,511.592,493.984,511.808L493.984,511.808L493.984,511.808z M493.984,511.88v-0.072l0,0V511.88
			L493.984,511.88z M493.984,517.64h0.72H493.984z M489.808,520.304c1.512,0.864,2.952,1.944,4.176,3.168v-5.832h-4.176v-2.664
			c1.512-0.864,2.88-1.872,4.104-3.096l0,0c-1.224,1.224-2.592,2.232-4.104,3.096l0,0c1.512-0.864,2.88-1.872,4.104-3.096
			c0,0,0,0,0.072,0v5.76h-4.176V520.304L489.808,520.304z M493.984,625.208c-0.072,0-0.072,0-0.072,0
			c-1.224,1.224-2.592,2.304-4.104,3.168v2.664h4.176V625.208L493.984,625.208z M493.984,177.8v5.616c-0.072,0-0.072,0-0.072,0l0,0
			c0,0,0,0,0.072,0l0,0c-1.224-1.224-2.664-2.304-4.176-3.168v-2.376L493.984,177.8L493.984,177.8z M489.808,177.584h4.176H489.808
			h4.176H489.808L489.808,177.584z M493.912,511.88h0.072H493.912L493.912,511.88L493.912,511.88z M489.808,517.64h4.176H489.808z
			 M488.08,519.44c0.576,0.216,1.224,0.576,1.728,0.864v-2.664h-1.728v-1.728c0.216-0.072,0.36-0.216,0.576-0.288l0,0
			c-0.216,0.072-0.36,0.216-0.576,0.288l0,0c0.576-0.288,1.224-0.576,1.728-0.936l0,0c-0.36,0.216-0.72,0.432-1.152,0.648l0,0
			c0.432-0.216,0.792-0.432,1.152-0.648v2.664h-1.728V519.44L488.08,519.44z M489.808,628.376c-0.504,0.36-1.152,0.648-1.728,0.936
			v1.728h1.728V628.376L489.808,628.376z M489.808,177.872v2.376c-0.504-0.36-1.152-0.648-1.728-0.936v-1.368L489.808,177.872
			L489.808,177.872z M488.08,177.584h1.728H488.08h1.728H488.08L488.08,177.584z M488.08,517.64h1.728H488.08z M483.688,518
			c1.584,0.288,3.024,0.792,4.392,1.44v-1.8h-4.392v-0.36c1.512-0.288,3.024-0.72,4.392-1.368l0,0
			c-0.216,0.072-0.36,0.144-0.576,0.216l0,0c0.216-0.072,0.36-0.144,0.576-0.216v1.728h-4.392V518L483.688,518z M488.08,629.312
			c-1.368,0.576-2.88,1.08-4.392,1.368v0.36h4.392V629.312L488.08,629.312z M488.08,177.944v1.368
			c-1.368-0.576-2.808-1.08-4.392-1.368v-0.36h4.392h-4.392v-1.152c0.432-0.288,0.648-0.216,2.448,1.584L488.08,177.944
			L488.08,177.944z M485.632,177.008L485.632,177.008L485.632,177.008z M483.688,177.584h4.392H483.688L483.688,177.584z
			 M483.688,517.28c1.296-0.216,2.592-0.648,3.816-1.152l0,0C486.28,516.632,484.984,517.064,483.688,517.28L483.688,517.28z
			 M483.688,517.64h4.392H483.688z M122.824,517.64h357.12c1.296,0,2.52,0.144,3.744,0.36v-0.36H115.84v-1.296
			C118,517.208,120.376,517.64,122.824,517.64L122.824,517.64l-6.984-2.88v1.584C118,517.208,120.376,517.64,122.824,517.64h-6.984
			v1.296C118,518.072,120.376,517.64,122.824,517.64L122.824,517.64L122.824,517.64z M483.688,630.68
			c-1.224,0.216-2.52,0.36-3.744,0.36h-357.12c-2.448,0-4.824-0.432-6.984-1.296v1.296h367.848V630.68L483.688,630.68z
			 M483.688,176.432v1.152h-3.744c1.296,0,2.52,0.144,3.744,0.36v-0.36H115.84v1.296c2.16-0.864,4.536-1.296,6.984-1.296l0,0
			c-2.448,0-4.824,0.432-6.984,1.296l0,0c2.16-0.864,4.536-1.296,6.984-1.296h-6.984h6.984l0,0l0,0h-6.984h367.848h-3.744l0,0l0,0
			l0,0l0,0l0,0C482.68,177.584,483.328,176.792,483.688,176.432L483.688,176.432z M483.688,517.28v0.36h-3.744
			C481.168,517.64,482.464,517.496,483.688,517.28L483.688,517.28z M122.824,177.584L122.824,177.584L122.824,177.584z
			 M479.944,177.584L479.944,177.584h-357.12l0,0H479.944L479.944,177.584z M479.944,517.64c1.224,0,2.52-0.144,3.744-0.36
			C482.464,517.496,481.168,517.64,479.944,517.64L479.944,517.64z M479.944,517.64 M479.944,517.64L479.944,517.64L479.944,517.64
			h3.744H479.944L479.944,517.64z M115.84,517.64h6.984l0,0l0,0l0,0h357.12l0,0h-357.12l0,0H115.84z M115.84,629.744
			c-2.664-0.936-5.04-2.52-7.056-4.536c-1.08-1.08-2.088-2.304-2.88-3.672v9.504h9.936V629.744L115.84,629.744z M105.904,527.144
			c0.792-1.296,1.8-2.52,2.88-3.672c2.016-2.016,4.392-3.528,7.056-4.536v-1.296h-9.936v-9.504c0.792,1.368,1.8,2.592,2.88,3.744
			l0,0c-1.08-1.152-2.088-2.376-2.88-3.744l0,0c2.232,3.744,5.76,6.696,9.936,8.208v-1.584l-7.056-2.88
			c1.944,1.944,4.392,3.528,7.056,4.464v1.296h-9.936V527.144L105.904,527.144z M115.84,177.584v1.296
			c-2.664,1.008-5.112,2.52-7.056,4.536l0,0c1.944-2.016,4.392-3.528,7.056-4.536l0,0c-4.176,1.584-7.704,4.464-9.936,8.208l0,0
			c0.792-1.368,1.8-2.592,2.88-3.672l0,0c-1.08,1.08-2.088,2.304-2.88,3.672v-9.504H115.84L115.84,177.584z M105.904,177.584h9.936
			H105.904h9.936H105.904L105.904,177.584z M108.784,511.88L108.784,511.88L108.784,511.88z M105.904,517.64h9.936H105.904z
			 M105.904,621.536c-1.872-3.096-2.952-6.624-2.952-10.368v-73.656c0-3.672,1.08-7.272,2.952-10.368v-9.504h-2.952h2.952v-9.504
			c-1.872-3.024-2.952-6.552-2.952-10.296l0,0c0,3.744,1.08,7.272,2.952,10.296l0,0c-1.872-3.024-2.952-6.552-2.952-10.296V197.456
			c0-3.816,1.08-7.344,2.952-10.368l0,0c-1.872,3.024-2.952,6.552-2.952,10.368l0,0c0-3.816,1.08-7.344,2.952-10.368v-9.504h-2.952
			h2.952h-2.952l0,0l0,0h2.952h-2.952V631.04l0,0h2.952V621.536L105.904,621.536z M102.952,517.64L102.952,517.64L102.952,517.64z
			 M102.952,197.456V497.84l0,0l0,0l0,0l0,0V197.456z M102.952,197.456L102.952,197.456L102.952,197.456L102.952,197.456
			L102.952,197.456L102.952,197.456z M102.952,517.64 M102.952,517.64h2.952H102.952z"/>
		
			<path style="fill-rule:evenodd;clip-rule:evenodd;fill:none;stroke:#007AC2;stroke-width:1.0001;stroke-linejoin:bevel;stroke-miterlimit:10;" d="
			M122.824,517.64h357.12c10.944,0,19.8,8.928,19.8,19.872v73.656c0,5.328-2.088,10.368-5.832,14.04
			c-3.672,3.744-8.712,5.832-13.968,5.832h-357.12c-5.256,0-10.296-2.088-14.04-5.832c-3.744-3.672-5.832-8.712-5.832-14.04v-73.656
			c0-5.256,2.088-10.296,5.832-14.04C112.528,519.728,117.568,517.64,122.824,517.64 M102.952,517.64h396.792h-19.8
			c5.256,0,10.296-2.088,13.968-5.76c3.744-3.744,5.832-8.784,5.832-14.04V197.456c0-11.016-8.856-19.872-19.8-19.872h19.8H102.952
			h19.872c-10.944,0-19.872,8.856-19.872,19.872V497.84c0,10.944,8.928,19.8,19.872,19.8H102.952z M102.952,517.64L102.952,517.64
			L102.952,517.64z M108.784,511.88 M108.784,511.88c3.6,3.528,8.568,5.76,14.04,5.76l0,0 M102.952,497.84
			c0,5.472,2.232,10.44,5.832,14.04l0,0C105.184,508.28,102.952,503.312,102.952,497.84L102.952,497.84L102.952,497.84z
			 M102.952,197.456V497.84l0,0l0,0l0,0l0,0 M102.952,197.456L102.952,197.456L102.952,197.456L102.952,197.456L102.952,197.456
			L102.952,197.456z M108.784,183.416c-3.6,3.6-5.832,8.568-5.832,14.04l0,0C102.952,191.984,105.184,187.016,108.784,183.416
			L108.784,183.416L108.784,183.416z M122.824,177.584c-5.472,0-10.44,2.232-14.04,5.832l0,0
			C112.384,179.816,117.352,177.584,122.824,177.584L122.824,177.584z M122.824,177.584 M122.824,177.584L122.824,177.584
			L122.824,177.584h-19.872l0,0l0,0 M479.944,177.584L479.944,177.584h-357.12l0,0H479.944L479.944,177.584z M485.632,177.008
			L485.632,177.008L485.632,177.008z M486.136,178.016c-3.6-3.6-0.72-0.432-6.192-0.432l0,0l0,0l0,0l0,0l0,0h19.8l0,0l0,0
			 M499.744,197.456L499.744,197.456L499.744,197.456c0-5.472-2.232-10.44-5.832-14.04l0,0
			C497.512,187.016,499.744,191.984,499.744,197.456 M499.744,497.84V197.456l0,0V497.84L499.744,497.84L499.744,497.84z
			 M496.648,508.424c2.016-3.168,3.096-6.84,3.096-10.584l0,0C499.744,501.584,498.664,505.256,496.648,508.424L496.648,508.424
			L496.648,508.424z M495.424,510.224c0.432-0.576,0.864-1.152,1.224-1.8l0,0C496.288,509.072,495.856,509.648,495.424,510.224
			L495.424,510.224L495.424,510.224z M493.984,511.808c0.504-0.504,1.008-1.008,1.44-1.584l0,0
			C494.992,510.8,494.488,511.304,493.984,511.808L493.984,511.808L493.984,511.808z M493.912,511.88l0.072-0.072l0,0
			L493.912,511.88L493.912,511.88L493.912,511.88z M488.656,515.624c1.944-0.936,3.744-2.232,5.256-3.744l0,0
			C492.4,513.392,490.6,514.688,488.656,515.624L488.656,515.624L488.656,515.624z M487.504,516.128
			c0.36-0.144,0.792-0.288,1.152-0.504l0,0C488.296,515.84,487.864,515.984,487.504,516.128L487.504,516.128L487.504,516.128z
			 M479.944,517.64c2.592,0,5.184-0.504,7.56-1.512l0,0C485.128,517.136,482.536,517.64,479.944,517.64L479.944,517.64z
			 M479.944,517.64L479.944,517.64L479.944,517.64z M102.952,517.64L102.952,517.64L102.952,517.64z M479.944,517.64L479.944,517.64
			L479.944,517.64h19.8l0,0l0,0 M102.952,517.64h19.872l0,0l0,0l0,0h357.12l0,0h-357.12l0,0 M102.952,177.584V631.04l0,0h396.792
			l0,0V177.584H102.952z"/>
	</g>
	<g>
		<path style="fill-rule:evenodd;clip-rule:evenodd;fill:#007AC2;" d="M112.888,497.84c0,5.472,4.464,9.864,9.936,9.864l0,0h357.12
			l0,0c2.592,0,5.112-1.008,6.984-2.88c1.872-1.872,2.88-4.392,2.88-6.984l0,0V197.456l0,0c0-5.472-4.392-9.936-9.864-9.936l0,0
			h-357.12l0,0c-5.472,0-9.936,4.464-9.936,9.936l0,0V497.84L112.888,497.84z"/>
		<g>
			<g>
				<polygon style="fill-rule:evenodd;clip-rule:evenodd;fill:#FFFFFF;" points="457.264,475.088 145.504,475.088 145.504,220.136 
					457.264,220.136 457.264,475.088 				"/>
				
					<polyline style="fill-rule:evenodd;clip-rule:evenodd;fill:none;stroke:#FFFFFF;stroke-width:0;stroke-linejoin:bevel;stroke-miterlimit:10;" points="
					457.264,475.088 145.504,475.088 145.504,220.136 457.264,220.136 457.264,475.088 				"/>
			</g>
			<g>
				<g>
					<polygon style="fill-rule:evenodd;clip-rule:evenodd;" points="447.328,418.28 155.44,418.28 155.44,438.224 447.328,438.224 
						447.328,418.28 					"/>
				</g>
				<path style="fill-rule:evenodd;clip-rule:evenodd;" d="M241.12,256.856h120.528l-19.872,51.84
					c-25.344-13.248-55.512-13.248-80.784,0L241.12,256.856L241.12,256.856z"/>
				<g>
					<path style="fill-rule:evenodd;clip-rule:evenodd;" d="M254.08,312.728l-24.048-49.464l-41.832,51.12l45,17.208
						C239.104,324.248,246.16,317.84,254.08,312.728L254.08,312.728L254.08,312.728z"/>
				</g>
				<g>
					<polygon style="fill-rule:evenodd;clip-rule:evenodd;" points="416.296,325.76 373.888,337.568 373.888,412.736 
						416.296,412.736 416.296,325.76 416.296,325.76 					"/>
				</g>
				<g>
					<path style="fill-rule:evenodd;clip-rule:evenodd;" d="M348.688,312.728l23.976-49.464l41.904,51.12l-45,17.208
						C363.664,324.248,356.608,317.84,348.688,312.728L348.688,312.728L348.688,312.728z"/>
				</g>
				<g>
					<polygon style="fill-rule:evenodd;clip-rule:evenodd;" points="186.472,325.76 228.808,337.568 228.88,412.736 
						186.472,412.736 186.472,325.76 186.472,325.76 					"/>
				</g>
				<path style="fill-rule:evenodd;clip-rule:evenodd;" d="M364.024,409.856h-125.28v-69.192
					c14.544-20.088,37.872-31.968,62.568-31.968c24.84,0,48.168,11.88,62.712,31.968V409.856L364.024,409.856z"/>
			</g>
		</g>
	</g>
	<g>
		<g>
			<path style="fill-rule:evenodd;clip-rule:evenodd;fill:#007AC2;" d="M122.824,527.576h357.12c5.472,0,9.864,4.464,9.864,9.936
				v73.656c0,5.544-4.392,9.936-9.864,9.936h-357.12c-5.472,0-9.936-4.392-9.936-9.936v-73.656
				C112.888,532.04,117.352,527.576,122.824,527.576L122.824,527.576z"/>
		</g>
		<g>
			
				<path style="fill-rule:evenodd;clip-rule:evenodd;fill:#FFFFFF;stroke:#FFFFFF;stroke-width:0;stroke-linejoin:bevel;stroke-miterlimit:10;" d="
				M393.832,570.92c0-5.904-4.824-10.728-10.8-10.728l0,0h-1.656l0,0c-3.816,0-7.56,1.008-10.8,2.88l0,0
				c-2.016-1.872-4.608-2.88-7.344-2.88l0,0h-2.376l0,0c-2.376,0.36-4.608,1.152-6.696,2.232l0,0v-2.232l0,0h-8.496l0,0v42.48l0,0
				h8.496l0,0v-30.024l0,0c0-3.096,2.52-5.688,5.616-5.688c3.168,0,5.688,2.592,5.688,5.688l0,0v30.024l0,0h8.496l0,0v-30.024l0,0
				c0-3.096,2.592-5.688,5.688-5.688s5.688,2.592,5.688,5.688l0,0v30.024l0,0h8.496l0,0V570.92v3.672v28.08V570.92z"/>
			
				<polygon style="fill-rule:evenodd;clip-rule:evenodd;fill:#FFFFFF;stroke:#FFFFFF;stroke-width:0;stroke-linejoin:bevel;stroke-miterlimit:10;" points="
				308.224,602.672 316.72,602.672 316.72,602.672 316.72,591.368 316.72,591.368 321.184,584.456 321.184,584.456 327.592,602.672 
				327.592,602.672 336.592,602.672 336.592,602.672 327.016,575.456 327.016,575.456 336.592,560.768 336.592,560.768 
				326.44,560.768 326.44,560.768 317.656,574.376 317.656,574.376 316.72,575.744 316.72,575.744 316.72,546.008 316.72,546.008 
				308.224,546.008 308.224,546.008 308.224,602.672 			"/>
			
				<path style="fill-rule:evenodd;clip-rule:evenodd;fill:#FFFFFF;stroke:#FFFFFF;stroke-width:0;stroke-linejoin:bevel;stroke-miterlimit:10;" d="
				M253.216,598.712v7.056l0,0l6.264-3.312l0,0c1.8-1.008,2.664-3.168,2.016-5.112c-0.648-2.016-2.664-3.168-4.752-2.88
				C254.728,594.824,253.216,596.624,253.216,598.712L253.216,598.712z"/>
			
				<path style="fill-rule:evenodd;clip-rule:evenodd;fill:#FFFFFF;stroke:#FFFFFF;stroke-width:0;stroke-linejoin:bevel;stroke-miterlimit:10;" d="
				M213.4,602.6h31.176l0,0v-8.496l0,0h-20.592l0,0l17.424-23.256l0,0c4.104-5.4,4.176-12.888,0.288-18.432
				c-3.96-5.472-11.016-7.848-17.496-5.76c-6.408,2.016-10.8,8.064-10.8,14.832l0,0v2.808l0,0h8.496l0,0v-2.016l0,0
				c-0.36-3.168,1.44-6.192,4.392-7.344c2.952-1.224,6.336-0.288,8.28,2.232c1.944,2.52,1.944,6.048,0.072,8.568l0,0l-21.24,28.368
				l0,0V602.6L213.4,602.6z"/>
			
				<path style="fill-rule:evenodd;clip-rule:evenodd;fill:#FFFFFF;stroke:#FFFFFF;stroke-width:0;stroke-linejoin:bevel;stroke-miterlimit:10;" d="
				M292.96,590.144v-20.376l0,0c0-6.912-5.616-12.528-12.528-12.528c-6.84,0-12.456,5.616-12.456,12.528l0,0v20.376l0,0
				c0,4.464,2.376,8.568,6.264,10.8c3.816,2.232,8.568,2.232,12.456,0C290.584,598.712,292.96,594.608,292.96,590.144h-6.84
				c0,2.016-1.08,3.888-2.808,4.896c-1.8,1.008-3.96,1.008-5.688,0s-2.808-2.88-2.808-4.896l0,0v-20.376l0,0
				c0-3.168,2.52-5.688,5.616-5.688c3.168,0,5.688,2.52,5.688,5.688l0,0v20.376H292.96z"/>
			
				<polygon style="fill-rule:evenodd;clip-rule:evenodd;fill:#FFFFFF;stroke:#FFFFFF;stroke-width:0;stroke-linejoin:bevel;stroke-miterlimit:10;" points="
				404.992,571.424 429.544,571.424 429.544,571.424 429.544,608.36 429.544,608.36 443.728,608.36 443.728,608.36 443.728,571.424 
				443.728,571.424 467.344,571.424 467.344,571.424 436.168,540.248 436.168,540.248 404.992,571.424 404.992,571.424 
				429.544,571.424 443.728,571.424 467.344,571.424 			"/>
			
				<polygon style="fill-rule:evenodd;clip-rule:evenodd;fill:#FFFFFF;stroke:#FFFFFF;stroke-width:0;stroke-linejoin:bevel;stroke-miterlimit:10;" points="
				134.848,571.424 159.4,571.424 159.4,571.424 159.4,608.36 159.4,608.36 173.584,608.36 173.584,608.36 173.584,571.424 
				173.584,571.424 197.2,571.424 197.2,571.424 166.024,540.248 166.024,540.248 134.848,571.424 			"/>
		</g>
	</g>
</g>
</svg>
