<?xml version="1.0" encoding="iso-8859-1"?>
<!-- Generator: Adobe Illustrator 15.1.0, SVG Export Plug-In . SVG Version: 6.00 Build 0)  -->
<!DOCTYPE svg PUBLIC "-//W3C//DTD SVG 1.1//EN" "http://www.w3.org/Graphics/SVG/1.1/DTD/svg11.dtd">
<svg version="1.1" id="_x32_" xmlns="http://www.w3.org/2000/svg" xmlns:xlink="http://www.w3.org/1999/xlink" x="0px" y="0px"
	 width="595px" height="842px" viewBox="0 0 595 842" style="enable-background:new 0 0 595 842;" xml:space="preserve">
<g>
	
		<path style="fill-rule:evenodd;clip-rule:evenodd;stroke:#000000;stroke-width:0.216;stroke-linejoin:bevel;stroke-miterlimit:10;" d="
		M347.176,316.472v-13.824l0,0c0-7.056-5.76-12.816-12.888-12.816c-7.056,0-12.816,5.76-12.816,12.816l0,0v13.824l0,0
		c0,4.608,2.448,8.856,6.408,11.16c3.96,2.304,8.856,2.304,12.816,0C344.728,325.328,347.176,321.08,347.176,316.472H341.2
		c0,2.52-1.296,4.824-3.456,6.048c-2.16,1.224-4.752,1.224-6.912,0s-3.456-3.528-3.456-6.048l0,0v-13.824l0,0
		c0-3.816,3.096-6.912,6.912-6.912s6.912,3.096,6.912,6.912l0,0v13.824H347.176z"/>
	
		<path style="fill-rule:evenodd;clip-rule:evenodd;stroke:#000000;stroke-width:0.216;stroke-linejoin:bevel;stroke-miterlimit:10;" d="
		M334.864,377.384h1.584l0,0c5.472,0,10.152-3.96,11.088-9.432c0.936-5.4-2.232-10.656-7.416-12.456l0,0l-8.136-2.88l0,0
		c-2.088-0.72-3.384-2.88-3.024-5.04c0.36-2.232,2.304-3.816,4.464-3.816l0,0h2.808l0,0c2.52,0,4.536,2.016,4.536,4.536l0,0h5.904
		l0,0c0-5.76-4.68-10.44-10.44-10.44l0,0h-2.808l0,0c-5.112,0-9.432,3.672-10.296,8.712c-0.864,5.04,2.016,9.936,6.84,11.592l0,0
		l8.208,2.88l0,0c1.224,0.432,2.232,1.296,2.88,2.376l0,0c0.576,1.08,0.72,2.304,0.288,3.456l0,0
		c-1.152,3.168-4.392,5.04-7.704,4.464s-5.688-3.456-5.688-6.84l0,0h-5.976l0,0C321.976,371.624,327.736,377.384,334.864,377.384
		L334.864,377.384z"/>
	
		<path style="fill-rule:evenodd;clip-rule:evenodd;stroke:#000000;stroke-width:0.216;stroke-linejoin:bevel;stroke-miterlimit:10;" d="
		M334.864,281.336h1.584l0,0c5.472,0,10.152-3.96,11.088-9.36s-2.232-10.728-7.416-12.528l0,0l-8.136-2.88l0,0
		c-2.088-0.72-3.384-2.88-3.024-5.04c0.36-2.16,2.304-3.816,4.464-3.816l0,0h2.808l0,0c2.52,0,4.536,2.088,4.536,4.608l0,0h5.904
		l0,0c0-5.832-4.68-10.512-10.44-10.512l0,0h-2.808l0,0c-5.112,0-9.432,3.672-10.296,8.712c-0.864,5.04,2.016,9.936,6.84,11.664l0,0
		l8.208,2.88l0,0c1.224,0.432,2.232,1.224,2.88,2.304l0,0c0.576,1.08,0.72,2.376,0.288,3.456l0,0
		c-1.152,3.168-4.392,5.04-7.704,4.464s-5.688-3.456-5.688-6.768l0,0h-5.976l0,0C321.976,275.576,327.736,281.336,334.864,281.336
		L334.864,281.336z"/>
	<g>
		<polygon style="fill-rule:evenodd;clip-rule:evenodd;" points="294.472,296.456 283.24,296.456 283.24,319.136 294.472,319.136 
			294.472,296.456 		"/>
		
			<polyline style="fill-rule:evenodd;clip-rule:evenodd;fill:none;stroke:#000000;stroke-width:0.216;stroke-linejoin:bevel;stroke-miterlimit:10;" points="
			294.472,296.456 283.24,296.456 283.24,319.136 294.472,319.136 294.472,296.456 		"/>
	</g>
	<g>
		<polygon style="fill-rule:evenodd;clip-rule:evenodd;" points="294.472,387.464 283.24,387.464 283.24,409.568 294.472,409.568 
			294.472,387.464 		"/>
		
			<polyline style="fill-rule:evenodd;clip-rule:evenodd;fill:none;stroke:#000000;stroke-width:0.216;stroke-linejoin:bevel;stroke-miterlimit:10;" points="
			294.472,387.464 283.24,387.464 283.24,409.568 294.472,409.568 294.472,387.464 		"/>
	</g>
	<g>
		<polygon style="fill-rule:evenodd;clip-rule:evenodd;" points="294.472,341.96 283.24,341.96 283.24,364.64 294.472,364.64 
			294.472,341.96 		"/>
		
			<polyline style="fill-rule:evenodd;clip-rule:evenodd;fill:none;stroke:#000000;stroke-width:0.216;stroke-linejoin:bevel;stroke-miterlimit:10;" points="
			294.472,341.96 283.24,341.96 283.24,364.64 294.472,364.64 294.472,341.96 		"/>
	</g>
	<g>
		<polygon style="fill-rule:evenodd;clip-rule:evenodd;" points="294.472,250.952 283.24,250.952 283.24,273.632 294.472,273.632 
			294.472,250.952 		"/>
		
			<polyline style="fill-rule:evenodd;clip-rule:evenodd;fill:none;stroke:#000000;stroke-width:0.216;stroke-linejoin:bevel;stroke-miterlimit:10;" points="
			294.472,250.952 283.24,250.952 283.24,273.632 294.472,273.632 294.472,250.952 		"/>
	</g>
	<g>
		<polygon style="fill-rule:evenodd;clip-rule:evenodd;" points="294.472,205.448 283.24,205.448 283.24,228.128 294.472,228.128 
			294.472,205.448 		"/>
		
			<polyline style="fill-rule:evenodd;clip-rule:evenodd;fill:none;stroke:#000000;stroke-width:0.216;stroke-linejoin:bevel;stroke-miterlimit:10;" points="
			294.472,205.448 283.24,205.448 283.24,228.128 294.472,228.128 294.472,205.448 		"/>
	</g>
	<g>
		<path style="fill-rule:evenodd;clip-rule:evenodd;fill:#007AC2;" d="M283.384,505.904h141.552v-396.72H283.384v-0.216h141.552
			v0.216h0.216v396.72h-0.216v0.216H283.384V505.904z M283.384,505.904h124.848c9.36,0,16.992-7.632,16.992-16.992V126.176
			c0-9.432-7.632-16.992-16.992-16.992H283.384h141.552l0,0H283.384v0.216H424.72v396.288H283.384V505.904z M283.384,505.904
			h141.552l0,0H283.384h124.488l0,0H283.384L283.384,505.904z M424.936,505.904v-396.72l0,0V505.904L424.936,505.904
			L424.936,505.904z M424.936,488.912V126.176l0,0V488.912L424.936,488.912z M141.76,505.904h141.624v0.216H141.76V505.904h-0.216
			v-396.72h0.216v-0.216h141.624v0.216H141.76V505.904L141.76,505.904L141.76,505.904z M283.384,109.184v0.216H141.976v396.288
			h141.408v0.216H141.76h141.624H159.04l0,0c-9.36,0-16.992-7.632-16.992-16.992V126.176c0-9.432,7.632-16.992,16.992-16.992
			H283.384L283.384,109.184z M141.76,505.904L141.76,505.904L141.76,505.904z M283.384,109.184H141.76l0,0H283.384L283.384,109.184z
			 M141.76,109.184v396.72l0,0V109.184L141.76,109.184L141.76,109.184z M158.752,505.904h124.632H158.752z"/>
		<path style="fill-rule:evenodd;clip-rule:evenodd;fill:none;stroke:#007AC2;stroke-width:0.5;stroke-miterlimit:10;" d="
			M141.76,505.904h283.176v-396.72H141.76V505.904 M141.76,505.904h283.176l0,0H141.76z M141.76,505.904L141.76,505.904
			L141.76,505.904z M424.936,505.904v-396.72l0,0V505.904L424.936,505.904L424.936,505.904z M424.936,109.184H141.76l0,0H424.936
			L424.936,109.184L424.936,109.184z M141.76,109.184v396.72l0,0V109.184L141.76,109.184L141.76,109.184z M141.976,505.688H424.72
			V109.4H141.976V505.688L141.976,505.688z M424.936,505.904v0.216H141.76v-0.216h-0.216v-396.72h0.216v-0.216h283.176v0.216h0.216
			v396.72H424.936L424.936,505.904z M159.04,505.904h249.192c9.36,0,16.992-7.632,16.992-16.992V126.176
			c0-9.432-7.632-16.992-16.992-16.992H159.04c-9.36,0-16.992,7.56-16.992,16.992v362.736
			C142.048,498.272,149.68,505.904,159.04,505.904 M424.936,488.912V126.176l0,0V488.912L424.936,488.912L424.936,488.912z
			 M158.752,505.904h249.12l0,0H158.752z"/>
	</g>
	<path style="fill-rule:evenodd;clip-rule:evenodd;fill:#007AC2;" d="M181.432,117.68h-22.68c-4.68,0-8.496,3.816-8.496,8.496
		v362.736c0,4.68,3.816,8.496,8.496,8.496h22.68l0,0V117.68L181.432,117.68z"/>
	<path style="fill-rule:evenodd;clip-rule:evenodd;fill:#007AC2;" d="M283.24,497.408h124.632c4.752,0,8.568-3.816,8.568-8.496
		V126.176c0-4.68-3.816-8.496-8.568-8.496H283.24l0,0v62.352l101.736,56.448v141.84L283.24,435.056V497.408L283.24,497.408z"/>
</g>
</svg>
