<?xml version="1.0" encoding="UTF-8" standalone="no"?>
<!-- Generator: Adobe Illustrator 15.1.0, SVG Export Plug-In . SVG Version: 6.00 Build 0)  -->

<svg
   xmlns:dc="http://purl.org/dc/elements/1.1/"
   xmlns:cc="http://creativecommons.org/ns#"
   xmlns:rdf="http://www.w3.org/1999/02/22-rdf-syntax-ns#"
   xmlns:svg="http://www.w3.org/2000/svg"
   xmlns="http://www.w3.org/2000/svg"
   xmlns:sodipodi="http://sodipodi.sourceforge.net/DTD/sodipodi-0.dtd"
   xmlns:inkscape="http://www.inkscape.org/namespaces/inkscape"
   version="1.1"
   id="Layer_1"
   x="0px"
   y="0px"
   width="341.85599"
   height="205.2"
   viewBox="0 0 341.85599 205.2"
   xml:space="preserve"
   sodipodi:docname="571.svg"
   inkscape:version="0.92.5 (2060ec1f9f, 2020-04-08)"><metadata
   id="metadata1486"><rdf:RDF><cc:Work
       rdf:about=""><dc:format>image/svg+xml</dc:format><dc:type
         rdf:resource="http://purl.org/dc/dcmitype/StillImage" /></cc:Work></rdf:RDF></metadata><defs
   id="defs1484" /><sodipodi:namedview
   pagecolor="#ffffff"
   bordercolor="#666666"
   borderopacity="1"
   objecttolerance="10"
   gridtolerance="10"
   guidetolerance="10"
   inkscape:pageopacity="0"
   inkscape:pageshadow="2"
   inkscape:window-width="640"
   inkscape:window-height="480"
   id="namedview1482"
   showgrid="false"
   inkscape:zoom="0.28028504"
   inkscape:cx="159.556"
   inkscape:cy="24.856003"
   inkscape:window-x="0"
   inkscape:window-y="0"
   inkscape:window-maximized="0"
   inkscape:current-layer="Layer_1" />
<g
   id="g1479"
   transform="translate(-137.944,-240.65601)">
	<rect
   x="137.944"
   y="240.65601"
   style="clip-rule:evenodd;fill:#ffd200;fill-rule:evenodd"
   width="341.85599"
   height="205.2"
   id="rect1471" />
	<polygon
   style="clip-rule:evenodd;fill-rule:evenodd"
   points="141.472,249.944 144.064,246.704 146.944,244.112 150.4,242.384 154.504,241.232 461.296,240.944 467.056,242.384 472.24,245.552 475.12,248.144 477.208,251.672 479.224,257.144 479.8,261.176 479.224,429.296 477.208,435.128 475.12,438.296 472.24,441.176 468.784,443.48 465.04,444.92 461.296,445.856 156.52,445.856 152.488,444.92 148.672,443.48 145.504,441.176 142.624,438.296 140.32,435.128 138.304,429.296 138.304,257.144 139.456,253.4 "
   id="polygon1473" />
	<polygon
   style="clip-rule:evenodd;fill:#ffd200;fill-rule:evenodd"
   points="149.824,255.704 151.552,253.688 154.216,251.96 157.096,251.096 459.208,251.096 462.16,251.384 464.752,252.824 467.056,254.552 469.072,258.296 469.36,261.176 469.36,425.264 468.496,429.584 465.904,433.112 463.6,434.552 460.648,435.416 158.536,435.704 155.656,435.128 152.776,433.976 150.688,431.96 148.96,429.584 148.096,426.704 148.096,261.176 148.672,258.296 "
   id="polygon1475" />
	<polygon
   style="clip-rule:evenodd;fill-rule:evenodd"
   points="155.08,426.128 155.08,363.992 188.344,350.096 221.608,363.992 221.608,391.208 226.864,391.208 226.864,377.6 250.912,275.072 274.6,377.6 274.6,391.208 279.856,391.208 279.856,374.072 292.528,357.008 306.064,357.008 306.064,350.384 326.656,350.384 326.656,357.008 340.264,357.008 353.296,374.072 353.296,384.512 358.192,384.512 358.192,360.464 386.56,343.4 414.64,360.464 414.64,394.664 419.896,394.664 419.896,331.52 441.28,326.336 462.736,331.52 462.736,425.264 461.872,427.568 459.208,428.72 158.536,428.72 156.232,427.856 "
   id="polygon1477" />
</g>
</svg>