<?xml version="1.0" encoding="UTF-8" standalone="no"?>
<!-- Generator: Adobe Illustrator 15.1.0, SVG Export Plug-In . SVG Version: 6.00 Build 0)  -->

<svg
   xmlns:dc="http://purl.org/dc/elements/1.1/"
   xmlns:cc="http://creativecommons.org/ns#"
   xmlns:rdf="http://www.w3.org/1999/02/22-rdf-syntax-ns#"
   xmlns:svg="http://www.w3.org/2000/svg"
   xmlns="http://www.w3.org/2000/svg"
   xmlns:sodipodi="http://sodipodi.sourceforge.net/DTD/sodipodi-0.dtd"
   xmlns:inkscape="http://www.inkscape.org/namespaces/inkscape"
   version="1.1"
   id="Layer_1"
   x="0px"
   y="0px"
   width="341.064"
   height="204.696"
   viewBox="0 0 341.064 204.696"
   xml:space="preserve"
   sodipodi:docname="572.svg"
   inkscape:version="0.92.5 (2060ec1f9f, 2020-04-08)"><metadata
   id="metadata1505"><rdf:RDF><cc:Work
       rdf:about=""><dc:format>image/svg+xml</dc:format><dc:type
         rdf:resource="http://purl.org/dc/dcmitype/StillImage" /></cc:Work></rdf:RDF></metadata><defs
   id="defs1503" /><sodipodi:namedview
   pagecolor="#ffffff"
   bordercolor="#666666"
   borderopacity="1"
   objecttolerance="10"
   gridtolerance="10"
   guidetolerance="10"
   inkscape:pageopacity="0"
   inkscape:pageshadow="2"
   inkscape:window-width="640"
   inkscape:window-height="480"
   id="namedview1501"
   showgrid="false"
   inkscape:zoom="0.28028504"
   inkscape:cx="192.172"
   inkscape:cy="44.800003"
   inkscape:window-x="0"
   inkscape:window-y="0"
   inkscape:window-maximized="0"
   inkscape:current-layer="Layer_1" />
<g
   id="g1498"
   transform="translate(-105.328,-261.104)">
	<rect
   x="105.328"
   y="261.104"
   style="clip-rule:evenodd;fill:#ffd200;fill-rule:evenodd"
   width="341.064"
   height="204.696"
   id="rect1488" />
	<polygon
   style="clip-rule:evenodd;fill-rule:evenodd"
   points="108.784,270.464 111.448,267.224 114.4,264.56 117.856,262.832 121.672,261.68 427.96,261.392 433.792,262.832 438.76,265.784 441.712,268.664 444.016,272.192 445.744,277.736 446.392,281.552 445.744,449.384 444.016,455 441.712,458.168 438.76,461.12 435.52,463.496 431.704,464.936 427.96,465.8 123.76,465.8 119.944,464.936 116.128,463.496 112.888,461.12 110.008,458.168 107.632,455 105.616,449.384 105.616,277.736 106.768,273.92 "
   id="polygon1490" />
	<polygon
   style="clip-rule:evenodd;fill:#ffd200;fill-rule:evenodd"
   points="117.28,276.008 119.08,273.92 121.384,272.48 124.336,271.616 425.872,271.616 428.824,271.904 431.416,273.056 433.504,275.144 435.52,278.888 436.096,281.552 436.096,445.352 435.232,449.384 432.64,452.912 429.976,454.712 427.312,455.576 125.776,455.576 122.824,455.288 120.232,453.776 118.144,452.048 116.416,449.384 115.552,446.792 115.552,281.552 115.84,278.888 "
   id="polygon1492" />
	<polygon
   style="clip-rule:evenodd;fill-rule:evenodd"
   points="122.536,446.216 122.248,383.936 155.656,370.472 188.992,383.936 188.992,411.152 193.96,411.152 193.96,397.688 217.936,295.304 241.624,397.688 241.624,411.44 246.88,411.44 246.88,394.16 259.768,377.24 273.232,377.24 273.232,370.472 293.68,370.472 293.68,377.24 307.36,377.24 319.96,394.16 319.96,404.456 325.216,404.456 325.216,380.768 353.296,363.776 381.376,380.768 381.376,414.68 386.704,414.68 386.704,351.752 408.016,346.496 429.112,351.752 429.112,445.352 428.536,447.368 425.872,448.808 125.776,448.808 123.76,447.944 "
   id="polygon1494" />
	<polygon
   style="clip-rule:evenodd;fill:#ef3e42;fill-rule:evenodd"
   points="115.84,448.232 116.992,450.896 118.72,453.2 121.384,454.712 124.048,455.576 125.488,455.576 155.296,455.576 436.096,287.384 436.096,281.552 435.52,278.888 434.368,276.296 432.64,273.92 429.976,272.48 427.312,271.616 425.872,271.616 396.064,271.616 115.264,439.736 115.264,445.352 "
   id="polygon1496" />
</g>
</svg>