<?xml version="1.0" encoding="UTF-8" standalone="no"?>
<!-- Generator: Adobe Illustrator 15.1.0, SVG Export Plug-In . SVG Version: 6.00 Build 0)  -->

<svg
   xmlns:dc="http://purl.org/dc/elements/1.1/"
   xmlns:cc="http://creativecommons.org/ns#"
   xmlns:rdf="http://www.w3.org/1999/02/22-rdf-syntax-ns#"
   xmlns:svg="http://www.w3.org/2000/svg"
   xmlns="http://www.w3.org/2000/svg"
   xmlns:sodipodi="http://sodipodi.sourceforge.net/DTD/sodipodi-0.dtd"
   xmlns:inkscape="http://www.inkscape.org/namespaces/inkscape"
   version="1.1"
   id="Layer_2"
   x="0px"
   y="0px"
   width="395.4881"
   height="280.9361"
   viewBox="0 0 395.4881 280.9361"
   xml:space="preserve"
   sodipodi:docname="575.svg"
   inkscape:version="0.92.5 (2060ec1f9f, 2020-04-08)"><metadata
   id="metadata1616"><rdf:RDF><cc:Work
       rdf:about=""><dc:format>image/svg+xml</dc:format><dc:type
         rdf:resource="http://purl.org/dc/dcmitype/StillImage" /></cc:Work></rdf:RDF></metadata><defs
   id="defs1614" /><sodipodi:namedview
   pagecolor="#ffffff"
   bordercolor="#666666"
   borderopacity="1"
   objecttolerance="10"
   gridtolerance="10"
   guidetolerance="10"
   inkscape:pageopacity="0"
   inkscape:pageshadow="2"
   inkscape:window-width="640"
   inkscape:window-height="480"
   id="namedview1612"
   showgrid="false"
   inkscape:zoom="0.28028504"
   inkscape:cx="205.20005"
   inkscape:cy="78.996052"
   inkscape:window-x="0"
   inkscape:window-y="0"
   inkscape:window-maximized="0"
   inkscape:current-layer="Layer_2" />
<g
   id="g1609"
   transform="translate(-92.299953,-219.05995)">
	<g
   id="g1585">
		<path
   style="fill:#007ac2"
   d="m 92.44,477.032 v 0.072 0 c 0,6.192 2.52,11.808 6.624,15.912 v 0 c -4.104,-4.104 -6.624,-9.72 -6.624,-15.912 z m 0,0 z m 6.624,15.984 c 4.032,4.032 9.648,6.552 15.912,6.552 v 0 c -6.264,0 -11.88,-2.52 -15.912,-6.552 z m 15.912,6.552 v 0 z m 0,0"
   id="path1583"
   inkscape:connector-curvature="0" />
	</g>
	<path
   style="clip-rule:evenodd;fill:#007ac2;fill-rule:evenodd"
   d="m 92.512,477.68 v 21.744 H 114.4 l 0.648,0.072 c -12.456,0 -22.536,-10.08 -22.536,-22.536 z"
   id="path1587"
   inkscape:connector-curvature="0" />
	<path
   style="clip-rule:evenodd;fill:#007ac2;fill-rule:evenodd"
   d="M 92.512,241.52 V 219.704 H 114.4 l 0.648,-0.072 c -12.456,0 -22.536,10.08 -22.536,22.536 z"
   id="path1589"
   inkscape:connector-curvature="0" />
	<path
   style="clip-rule:evenodd;fill:#007ac2;fill-rule:evenodd"
   d="m 487.144,241.448 v -21.744 h -21.96 l -0.648,-0.072 c 12.456,0 22.536,10.08 22.536,22.464 z"
   id="path1591"
   inkscape:connector-curvature="0" />
	<path
   style="clip-rule:evenodd;fill:#007ac2;fill-rule:evenodd"
   d="m 486.784,477.68 v 21.744 h -21.888 l -0.648,0.072 c 12.456,0 22.536,-10.08 22.536,-22.536 z"
   id="path1593"
   inkscape:connector-curvature="0" />
	
		<rect
   x="92.800003"
   y="219.56"
   style="clip-rule:evenodd;fill:none;fill-rule:evenodd;stroke:#007ac2;stroke-width:1.00010002;stroke-miterlimit:10"
   width="394.48801"
   height="279.936"
   id="rect1595" />
	<g
   id="g1607">
		
			<path
   style="clip-rule:evenodd;fill:#007ac2;fill-rule:evenodd;stroke:#007ac2;stroke-width:0;stroke-linejoin:bevel;stroke-miterlimit:10"
   d="m 475.192,240.656 c 0,-6.192 -5.04,-11.232 -11.232,-11.232 v 0 H 114.976 v 0 c -6.264,0 -11.304,5.04 -11.304,11.232 v 0 236.376 0 c 0,6.264 5.04,11.304 11.304,11.304 v 0 H 463.96 v 0 c 2.952,0 5.832,-1.224 7.92,-3.312 2.16,-2.088 3.312,-4.968 3.312,-7.992 v 0 z"
   id="path1597"
   inkscape:connector-curvature="0" />
		<g
   id="g1605">
			
				<path
   style="clip-rule:evenodd;fill:#ffffff;fill-rule:evenodd;stroke:#ffffff;stroke-width:0;stroke-linejoin:bevel;stroke-miterlimit:10"
   d="m 280.936,259.016 c 0,-8.496 -6.912,-15.408 -15.408,-15.408 -8.424,0 -15.336,6.912 -15.336,15.408 0,8.424 6.912,15.336 15.336,15.336 8.496,0 15.408,-6.912 15.408,-15.336 z"
   id="path1599"
   inkscape:connector-curvature="0" />
			
				<path
   style="clip-rule:evenodd;fill:#ffffff;fill-rule:evenodd;stroke:#ffffff;stroke-width:0;stroke-linejoin:bevel;stroke-miterlimit:10"
   d="m 358.696,354.92 c 0,-6.264 -5.112,-11.304 -11.376,-11.304 -6.264,0 -11.304,5.04 -11.304,11.304 0,6.336 5.04,11.376 11.304,11.376 6.264,0 11.376,-5.04 11.376,-11.376 z"
   id="path1601"
   inkscape:connector-curvature="0" />
			
				<path
   style="clip-rule:evenodd;fill:#ffffff;fill-rule:evenodd;stroke:#ffffff;stroke-width:0;stroke-linejoin:bevel;stroke-miterlimit:10"
   d="m 322.048,359.672 c 1.296,-1.8 1.152,-4.104 -0.288,-5.76 v 0 l -17.712,-28.296 v 0 l -8.928,-33.84 v 0 c -1.728,-4.464 -5.616,-8.208 -10.728,-10.152 v 0 l -12.168,-4.608 v 0 h -16.272 v 0 l -13.176,4.32 v 0 c -3.888,1.368 -7.488,4.536 -9.432,8.136 v 0 l -14.112,36.792 v 0 l 3.96,39.96 v 0 c -0.288,1.872 0.648,3.744 2.376,4.752 1.8,0.936 4.032,0.864 5.76,-0.216 1.656,-1.08 2.448,-3.024 2.016,-4.896 v 0 l -0.648,-33.624 v 0 l 8.784,-23.184 v 0 l 5.544,153.576 v 0 c -0.288,3.168 1.08,6.192 3.6,7.776 2.52,1.656 5.76,1.656 8.496,0.072 2.736,-1.656 4.536,-4.608 4.608,-7.776 v 0 l 0.216,-99.216 v 0 l 10.08,41.616 v 0 l 1.224,47.448 0.072,-0.144 c 0.36,4.248 3.96,7.488 8.208,7.488 4.248,0 7.848,-3.24 8.28,-7.488 v 0 l -0.72,-51.984 v 0 l -5.256,-60.984 v 0 l 0.216,-29.664 v 0 l 2.664,17.28 v 0 l 23.976,32.472 v 0 c 0.576,0.936 1.512,1.656 2.592,2.088 v 0 l 6.912,19.944 v 0 l 10.656,0.504 v 0 l 3.168,75.816 v 0 c -0.144,1.656 0.648,3.312 2.16,4.248 1.512,0.936 3.456,1.008 5.112,0.216 1.656,-0.72 2.664,-2.232 2.664,-3.96 v 0 l 0.576,-42.336 v 0 c 0.288,-0.432 0.792,-0.792 1.44,-0.792 0.576,-0.072 1.08,0.144 1.512,0.504 v 0 c 2.376,2.448 3.672,5.472 3.816,8.712 v 0 c 0.216,8.64 0,17.352 -0.648,25.992 v 0 c -0.072,1.728 0.864,3.456 2.448,4.392 1.656,1.008 3.744,1.08 5.472,0.288 1.728,-0.792 2.808,-2.376 2.952,-4.176 v 0 l 1.44,-31.464 v 0 l -3.384,-34.776 v 0 l 5.4,7.92 v 0 l 0.576,7.488 v 0 l 0.576,7.488 v 0 c 0,1.08 0.648,2.088 1.656,2.592 1.008,0.432 2.16,0.36 3.096,-0.288 0.864,-0.648 1.296,-1.8 1.152,-2.88 v 0 l -0.648,-13.608 v 0 c 0,-3.168 -0.72,-6.12 -1.872,-8.424 v 0 l -7.704,-11.664 v 0 c -1.8,-3.096 -5.256,-5.04 -9.072,-5.04 v 0 h -13.464 v 0 l -14.112,3.168 v 0 l -5.04,-11.808 z"
   id="path1603"
   inkscape:connector-curvature="0" />
		</g>
	</g>
</g>
</svg>