<?xml version="1.0" encoding="utf-8"?>
<!-- Generator: Adobe Illustrator 15.1.0, SVG Export Plug-In . SVG Version: 6.00 Build 0)  -->
<!DOCTYPE svg PUBLIC "-//W3C//DTD SVG 1.0//EN" "http://www.w3.org/TR/2001/REC-SVG-20010904/DTD/svg10.dtd">
<svg version="1.0" id="Layer_1" xmlns="http://www.w3.org/2000/svg" xmlns:xlink="http://www.w3.org/1999/xlink" x="0px" y="0px"
	 width="595.28px" height="841.89px" viewBox="0 0 595.28 841.89" enable-background="new 0 0 595.28 841.89" xml:space="preserve">
<g id="LWPOLYLINE_1672_">
	
		<path fill="none" stroke="#000000" stroke-width="0.7087" stroke-linecap="round" stroke-linejoin="round" stroke-miterlimit="10" d="
		M208.597,321.326h48.788c3.37,0,6.1-2.73,6.1-6.1v-48.798c0-3.36-2.729-6.09-6.1-6.09h-48.788c-3.37,0-6.1,2.73-6.1,6.09v48.798
		C202.497,318.596,205.227,321.326,208.597,321.326z"/>
</g>
<g id="LWPOLYLINE_1717_">
	<rect x="49.608" y="233.906" fill="#0079C1" width="496.063" height="374.079"/>
</g>
<g id="LWPOLYLINE_1718_">
	<path fill="#FFFFFF" d="M55.708,607.984h483.873c3.36,0,6.091-2.73,6.091-6.1V240.005c0-3.37-2.73-6.1-6.091-6.1H55.708
		c-3.37,0-6.1,2.73-6.1,6.1v361.879C49.608,605.254,52.338,607.984,55.708,607.984z"/>
</g>
<g id="LWPOLYLINE_1719_">
	<path fill="#0079C1" d="M55.708,603.918h483.873c1.12,0,2.024-0.904,2.024-2.033V240.005c0-1.129-0.904-2.033-2.024-2.033H55.708
		c-1.12,0-2.033,0.904-2.033,2.033v361.879C53.675,603.014,54.588,603.918,55.708,603.918z"/>
</g>
<g id="LWPOLYLINE_1720_">
	<polygon fill="#FFFFFF" points="94.34,524.631 94.34,506.332 80.107,506.332 80.107,524.631 74.007,524.631 74.007,483.965 
		80.107,483.965 80.107,500.232 94.34,500.232 94.34,483.965 100.439,483.965 100.439,524.631 	"/>
</g>
<g id="LWPOLYLINE_1721_">
	<polygon fill="#FFFFFF" points="121.779,524.631 124.829,524.631 124.829,508.365 134.995,483.965 128.086,483.965 
		121.779,499.092 115.482,483.965 108.573,483.965 118.729,508.365 118.729,524.631 	"/>
</g>
<g id="LWPOLYLINE_1722_">
	<polygon fill="#FFFFFF" points="138.252,483.965 144.757,483.965 152.485,512.432 160.204,483.965 166.717,483.965 
		155.535,524.631 149.435,524.631 	"/>
</g>
<g id="LWPOLYLINE_1723_">
	<rect x="175.66" y="483.965" fill="#FFFFFF" width="6.1" height="40.666"/>
</g>
<g id="LWPOLYLINE_1724_">
	<polygon fill="#FFFFFF" points="195.587,524.631 195.587,483.965 201.678,483.965 215.911,511.414 215.911,483.965 222.01,483.965 
		222.01,524.631 215.911,524.631 201.678,497.182 201.678,524.631 	"/>
</g>
<g id="LWPOLYLINE_1725_">
	<polygon fill="#FFFFFF" points="241.938,514.465 241.938,524.631 235.838,524.631 235.838,483.965 241.938,483.965 
		241.938,503.488 254.947,483.965 262.271,483.965 250.683,501.248 262.271,524.631 255.352,524.631 246.823,507.15 	"/>
</g>
<g id="LWPOLYLINE_1727_">
	<polygon fill="#FFFFFF" points="272.437,524.631 265.932,524.631 276.701,483.965 283.619,483.965 294.388,524.631 
		287.883,524.631 286.057,517.713 274.263,517.713 	"/>
</g>
<g id="CIRCLE_155_">
	<path fill="#FFFFFF" d="M277.313,479.09c0-1.799-1.459-3.248-3.248-3.248c-1.798,0-3.257,1.449-3.257,3.248
		s1.459,3.248,3.257,3.248C275.854,482.338,277.313,480.889,277.313,479.09L277.313,479.09z"/>
</g>
<g id="CIRCLE_156_">
	<path fill="#FFFFFF" d="M289.512,479.09c0-1.799-1.459-3.248-3.248-3.248c-1.807,0-3.257,1.449-3.257,3.248s1.45,3.248,3.257,3.248
		C288.053,482.338,289.512,480.889,289.512,479.09L289.512,479.09z"/>
</g>
<g id="LWPOLYLINE_1729_">
	<polygon fill="#FFFFFF" points="304.959,524.631 298.455,524.631 309.232,483.965 316.142,483.965 326.92,524.631 320.415,524.631 
		318.589,517.713 306.794,517.713 	"/>
</g>
<g id="CIRCLE_157_">
	<path fill="#FFFFFF" d="M309.845,479.09c0-1.799-1.459-3.248-3.258-3.248c-1.798,0-3.247,1.449-3.247,3.248
		s1.449,3.248,3.247,3.248C308.386,482.338,309.845,480.889,309.845,479.09L309.845,479.09z"/>
</g>
<g id="CIRCLE_158_">
	<path fill="#FFFFFF" d="M322.044,479.09c0-1.799-1.459-3.248-3.257-3.248s-3.248,1.449-3.248,3.248s1.45,3.248,3.248,3.248
		S322.044,480.889,322.044,479.09L322.044,479.09z"/>
</g>
<g id="LWPOLYLINE_1730_">
	<polygon fill="#FFFFFF" points="94.34,581.553 94.34,563.252 80.107,563.252 80.107,581.553 74.007,581.553 74.007,540.896 
		80.107,540.896 80.107,557.162 94.34,557.162 94.34,540.896 100.439,540.896 100.439,581.553 	"/>
</g>
<g id="LWPOLYLINE_1731_">
	<polygon fill="#FFFFFF" points="121.779,581.553 124.829,581.553 124.829,565.285 134.995,540.896 128.086,540.896 
		121.779,556.023 115.482,540.896 108.573,540.896 118.729,565.285 118.729,581.553 	"/>
</g>
<g id="LWPOLYLINE_1732_">
	<polygon fill="#FFFFFF" points="138.252,540.896 144.757,540.896 152.485,569.352 160.204,540.896 166.717,540.896 
		155.535,581.553 149.435,581.553 	"/>
</g>
<g id="LWPOLYLINE_1733_">
	<rect x="175.66" y="540.896" fill="#FFFFFF" width="6.1" height="40.656"/>
</g>
<g id="LWPOLYLINE_1734_">
	<polygon fill="#FFFFFF" points="195.587,581.553 195.587,540.896 201.678,540.896 215.911,568.336 215.911,540.896 222.01,540.896 
		222.01,581.553 215.911,581.553 201.678,554.113 201.678,581.553 	"/>
</g>
<g id="LWPOLYLINE_1735_">
	<path fill="#FFFFFF" d="M254.947,581.553h4.066v-22.367h-13.207v6.1h7.107v2.854v0.197c0,3.934-3.182,7.115-7.107,7.115
		c-3.935,0-7.116-3.182-7.116-7.115v-14.223c0-3.936,3.182-7.117,7.116-7.117c3.925,0,7.107,3.182,7.107,7.117h6.1
		c0-7.305-5.911-13.217-13.207-13.217c-7.305,0-13.216,5.912-13.216,13.217v14.223c0,7.285,5.911,13.188,13.188,13.178
		c2.702,0,5.337-0.838,7.559-2.381L254.947,581.553z"/>
</g>
<g id="LWPOLYLINE_1736_">
	<polygon fill="#FFFFFF" points="271.213,581.553 293.578,581.553 293.578,575.451 277.313,575.451 277.313,563.252 
		288.298,563.252 288.298,557.162 277.313,557.162 277.313,546.996 293.578,546.996 293.578,540.896 271.213,540.896 	"/>
</g>
<g id="LWPOLYLINE_1737_">
	<path fill="#FFFFFF" d="M476.758,518.408c2.4-1.242,4.208-3.398,5.018-5.977h6.165v40.664h-6.1v-31.316l-4.471,0.818
		L476.758,518.408z"/>
</g>
<g id="LWPOLYLINE_1738_">
	<polygon fill="#FFFFFF" points="511.926,512.432 518.025,512.432 518.025,538.863 521.282,538.863 521.282,544.963 
		518.025,544.963 518.025,553.096 511.926,553.096 511.926,544.963 496.884,544.963 496.884,538.863 	"/>
</g>
<g id="LWPOLYLINE_1740_">
	<polygon fill="#FFFFFF" points="94.34,402.646 94.34,384.347 80.107,384.347 80.107,402.646 74.007,402.646 74.007,361.981 
		80.107,361.981 80.107,378.247 94.34,378.247 94.34,361.981 100.439,361.981 100.439,402.646 	"/>
</g>
<g id="LWPOLYLINE_1741_">
	<polygon fill="#FFFFFF" points="114.268,402.646 136.624,402.646 136.624,396.546 120.358,396.546 120.358,384.347 
		131.343,384.347 131.343,378.247 120.358,378.247 120.358,368.081 136.624,368.081 136.624,361.981 114.268,361.981 	"/>
</g>
<g id="LWPOLYLINE_1742_">
	<polygon fill="#FFFFFF" points="147.609,402.646 147.609,361.981 153.708,361.981 153.708,396.546 167.932,396.546 
		167.932,402.646 	"/>
</g>
<g id="LWPOLYLINE_1743_">
	<path fill="#FFFFFF" d="M190.552,372.966c-0.132-2.636-2.222-4.735-4.857-4.886h-2.561c-2.664,0.169-4.688,2.466-4.518,5.13
		c0.094,1.412,0.8,2.72,1.939,3.567l10.844,3.972c2.824,1.685,4.819,4.472,5.497,7.691c1.355,6.382-2.72,12.661-9.103,14.025
		c-0.094,0.009-0.179,0.028-0.273,0.047c-7.888,1.167-15.24-4.292-16.407-12.19l6.034-0.894c0.678,4.565,4.923,7.719,9.488,7.041
		c3.087-0.725,4.999-3.813,4.264-6.891c-0.311-1.346-1.111-2.532-2.231-3.332l-10.882-3.991c-3.134-1.892-5.111-5.234-5.271-8.896
		c-0.245-6.034,4.434-11.117,10.467-11.38h2.843c5.949,0.226,10.703,5.036,10.834,10.995L190.552,372.966z"/>
</g>
<g id="LWPOLYLINE_1744_">
	<rect x="207.778" y="361.981" fill="#FFFFFF" width="6.1" height="40.665"/>
</g>
<g id="LWPOLYLINE_1745_">
	<polygon fill="#FFFFFF" points="227.705,402.646 227.705,361.981 233.805,361.981 248.038,389.43 248.038,361.981 254.137,361.981 
		254.137,402.646 248.038,402.646 233.805,375.197 233.805,402.646 	"/>
</g>
<g id="LWPOLYLINE_1746_">
	<polygon fill="#FFFFFF" points="274.065,392.479 274.065,402.646 267.965,402.646 267.965,361.981 274.065,361.981 
		274.065,381.504 287.074,361.981 294.388,361.981 282.8,379.264 294.388,402.646 287.479,402.646 278.941,385.166 	"/>
</g>
<g id="LWPOLYLINE_1747_">
	<rect x="302.521" y="361.981" fill="#FFFFFF" width="6.1" height="40.665"/>
</g>
<g id="LWPOLYLINE_1748_">
	<polygon fill="#FFFFFF" points="94.34,459.576 94.34,441.277 80.107,441.277 80.107,459.576 74.007,459.576 74.007,418.912 
		80.107,418.912 80.107,435.178 94.34,435.178 94.34,418.912 100.439,418.912 100.439,459.576 	"/>
</g>
<g id="LWPOLYLINE_1749_">
	<polygon fill="#FFFFFF" points="114.268,459.576 136.624,459.576 136.624,453.477 120.358,453.477 120.358,441.277 
		131.343,441.277 131.343,435.178 120.358,435.178 120.358,425.012 136.624,425.012 136.624,418.912 114.268,418.912 	"/>
</g>
<g id="LWPOLYLINE_1750_">
	<polygon fill="#FFFFFF" points="147.609,459.576 147.609,418.912 153.708,418.912 153.708,453.477 167.932,453.477 
		167.932,459.576 	"/>
</g>
<g id="LWPOLYLINE_1751_">
	<path fill="#FFFFFF" d="M190.552,429.887c-0.132-2.625-2.222-4.734-4.857-4.875h-2.561c-2.664,0.17-4.688,2.467-4.518,5.121
		c0.094,1.412,0.8,2.719,1.939,3.566l10.844,3.973c2.824,1.686,4.819,4.471,5.497,7.691c1.355,6.391-2.72,12.67-9.103,14.025
		c-0.094,0.018-0.179,0.037-0.273,0.047c-7.888,1.166-15.24-4.283-16.407-12.189l6.034-0.887c0.678,4.557,4.923,7.719,9.488,7.041
		c3.087-0.732,4.999-3.82,4.264-6.889c-0.311-1.355-1.111-2.543-2.231-3.342l-10.882-3.982c-3.134-1.902-5.111-5.234-5.271-8.895
		c-0.245-6.035,4.434-11.127,10.467-11.381h2.843c5.949,0.216,10.703,5.036,10.834,10.985L190.552,429.887z"/>
</g>
<g id="LWPOLYLINE_1752_">
	<rect x="207.778" y="418.912" fill="#FFFFFF" width="6.1" height="40.665"/>
</g>
<g id="LWPOLYLINE_1753_">
	<polygon fill="#FFFFFF" points="227.705,459.576 227.705,418.912 233.805,418.912 248.038,446.359 248.038,418.912 
		254.137,418.912 254.137,459.576 248.038,459.576 233.805,432.127 233.805,459.576 	"/>
</g>
<g id="LWPOLYLINE_1754_">
	<path fill="#FFFFFF" d="M287.074,459.576h4.067v-22.365h-13.216v6.1h7.116v2.842v0.207c0,3.926-3.182,7.117-7.116,7.117
		s-7.116-3.191-7.116-7.117v-14.232c0-3.934,3.182-7.115,7.116-7.115s7.116,3.182,7.116,7.115h6.1
		c0-7.305-5.921-13.215-13.216-13.215c-7.305,0-13.216,5.911-13.216,13.215v14.232c0,7.277,5.911,13.18,13.197,13.17
		c2.702,0,5.337-0.838,7.55-2.381L287.074,459.576z"/>
</g>
<g id="LWPOLYLINE_1755_">
	<polygon fill="#FFFFFF" points="303.34,418.912 325.705,418.912 325.705,425.012 309.439,425.012 309.439,435.178 320.415,435.178 
		320.415,441.277 309.439,441.277 309.439,459.576 303.34,459.576 	"/>
</g>
<g id="LWPOLYLINE_1757_">
	<path fill="#FFFFFF" d="M358.228,446.359v-14.232c0-7.305-5.921-13.215-13.216-13.215s-13.207,5.911-13.207,13.215v14.232
		c0,7.297,5.912,13.217,13.207,13.217S358.228,453.656,358.228,446.359z"/>
</g>
<g id="LWPOLYLINE_1758_">
	<path fill="#FFFFFF" d="M374.898,441.277v18.299h-6.1v-40.665h14.025c5.732,0,10.373,4.641,10.373,10.374v1.619
		c0,4.367-2.729,8.264-6.843,9.752l6.843,18.92h-6.504l-6.617-18.299H374.898z"/>
</g>
<g id="LWPOLYLINE_1760_">
	<path fill="#FFFFFF" d="M419.479,429.887c-0.132-2.625-2.231-4.734-4.857-4.875h-2.561c-2.664,0.17-4.688,2.467-4.519,5.121
		c0.095,1.412,0.791,2.719,1.93,3.566l10.854,3.973c2.814,1.686,4.811,4.471,5.497,7.691c1.355,6.391-2.72,12.67-9.111,14.025
		c-0.085,0.018-0.17,0.037-0.264,0.047c-7.897,1.166-15.249-4.283-16.417-12.189l6.034-0.887c0.678,4.557,4.923,7.719,9.488,7.041
		c3.097-0.732,4.998-3.82,4.273-6.889c-0.319-1.355-1.12-2.543-2.24-3.342l-10.872-3.982c-3.144-1.902-5.121-5.234-5.271-8.895
		c-0.254-6.035,4.425-11.127,10.458-11.381h2.853c5.949,0.216,10.693,5.036,10.825,10.985L419.479,429.887z"/>
</g>
<g id="LWPOLYLINE_1765_">
	<path fill="#FFFFFF" d="M208.597,321.326h48.788c3.37,0,6.1-2.73,6.1-6.1v-48.798c0-3.36-2.729-6.09-6.1-6.09h-48.788
		c-3.37,0-6.1,2.73-6.1,6.09v48.798C202.497,318.596,205.227,321.326,208.597,321.326z"/>
</g>
<g id="LWPOLYLINE_1766_">
	<path fill="#EF3E42" d="M208.597,318.276h48.788c1.694,0,3.05-1.365,3.05-3.05v-48.798c0-1.685-1.355-3.041-3.05-3.041h-48.788
		c-1.685,0-3.05,1.355-3.05,3.041v48.798C205.547,316.911,206.912,318.276,208.597,318.276z"/>
</g>
<g id="LWPOLYLINE_1767_">
	<path fill="#FFFFFF" d="M221.813,299.977c0,6.175,5.008,11.183,11.183,11.183c6.175,0,11.173-5.007,11.173-11.183v-2.438
		c0-3.304-1.45-6.429-3.973-8.557c1.902-2.033,2.956-4.716,2.956-7.502v-0.819c0-5.61-4.547-10.166-10.157-10.166
		c-5.62,0-10.167,4.556-10.167,10.166v0.819h6.1v-0.819c0-2.24,1.817-4.066,4.067-4.066c2.24,0,4.066,1.826,4.066,4.066v0.819
		c0,2.692-2.193,4.876-4.886,4.876h-0.809v5.695h1.628c2.805,0,5.083,2.269,5.083,5.083v2.843c0,2.805-2.278,5.083-5.083,5.083
		c-2.815,0-5.083-2.278-5.083-5.083H221.813z"/>
</g>
<g id="LWPOLYLINE_1768_">
	
		<path fill="none" stroke="#70CDDD" stroke-width="0.7087" stroke-linecap="round" stroke-linejoin="round" stroke-miterlimit="10" d="
		M275.684,321.326H385.47c3.369,0,6.1-2.73,6.1-6.1v-48.798c0-3.36-2.73-6.09-6.1-6.09H275.684c-3.37,0-6.1,2.73-6.1,6.09v48.798
		C269.584,318.596,272.314,321.326,275.684,321.326z"/>
</g>
<g id="LWPOLYLINE_1769_">
	<path fill="#FFFFFF" d="M275.684,321.326H385.47c3.369,0,6.1-2.73,6.1-6.1v-48.798c0-3.36-2.73-6.09-6.1-6.09H275.684
		c-3.37,0-6.1,2.73-6.1,6.09v48.798C269.584,318.596,272.314,321.326,275.684,321.326z"/>
</g>
<g id="LWPOLYLINE_1770_">
	<path fill="#00A389" d="M275.684,318.276H385.47c1.685,0,3.05-1.365,3.05-3.05v-48.798c0-1.685-1.365-3.041-3.05-3.041H275.684
		c-1.676,0-3.05,1.355-3.05,3.041v48.798C272.634,316.911,274.008,318.276,275.684,318.276z"/>
</g>
<g id="LWPOLYLINE_1771_">
	<path fill="#FFFFFF" d="M348.269,283.71h6.1v-2.033c0-0.659,0.123-1.308,0.377-1.92c1.063-2.598,4.02-3.85,6.627-2.787
		c2.598,1.064,3.84,4.029,2.786,6.627l-15.89,21.462v6.1h22.356v-6.1h-15.447l14.788-19.579c2.1-5.808-0.913-12.218-6.721-14.317
		s-12.219,0.913-14.308,6.721c-0.574,1.572-0.782,3.257-0.612,4.923L348.269,283.71z"/>
</g>
<g id="LWPOLYLINE_1772_">
	<path fill="#FFFFFF" d="M326.11,276.472c2.4-1.243,4.207-3.389,5.017-5.978h6.156v40.665h-6.1v-31.308l-4.462,0.81L326.11,276.472z
		"/>
</g>
<g id="LWPOLYLINE_1726_">
	<polygon fill="#0079C1" points="284.636,511.621 275.684,511.621 280.165,494.133 	"/>
</g>
<g id="LWPOLYLINE_1728_">
	<polygon fill="#0079C1" points="317.158,511.621 308.216,511.621 312.688,494.133 	"/>
</g>
<g id="LWPOLYLINE_1739_">
	<polygon fill="#0079C1" points="503.793,538.863 511.926,524.574 511.926,538.863 	"/>
</g>
<g id="LWPOLYLINE_1759_">
	<path fill="#0079C1" d="M374.898,435.178h7.926c2.363,0,4.273-1.91,4.273-4.273v-1.619c0-2.363-1.91-4.273-4.273-4.273h-7.926
		V435.178z"/>
</g>
<g id="LWPOLYLINE_1762_">
	<path fill="#FFFFFF" d="M468.418,419.928v-6.363c1.459-8.443,4.998-16.397,10.308-23.119h8.133
		c-4.688,4.744-8.274,10.458-10.496,16.746c1.045-0.32,2.137-0.48,3.238-0.48c6.175,0,11.183,5.007,11.183,11.183v2.033
		c0,6.175-5.008,11.183-11.183,11.183S468.418,426.104,468.418,419.928z"/>
</g>
<g id="LWPOLYLINE_1763_">
	<polygon fill="#FFFFFF" points="511.926,390.446 518.025,390.446 518.025,416.878 521.282,416.878 521.282,422.979 
		518.025,422.979 518.025,431.111 511.926,431.111 511.926,422.979 496.884,422.979 496.884,416.878 	"/>
</g>
<g id="LWPOLYLINE_1764_">
	<polygon fill="#0079C1" points="503.793,416.878 511.926,402.589 511.926,416.878 	"/>
</g>
<g id="LWPOLYLINE_1761_">
	<path fill="#0079C1" d="M474.518,419.928c0,2.804,2.278,5.083,5.083,5.083c2.814,0,5.083-2.279,5.083-5.083v-2.033
		c0-2.805-2.269-5.083-5.083-5.083c-2.805,0-5.083,2.278-5.083,5.083V419.928z"/>
</g>
<g id="LWPOLYLINE_1756_">
	<path fill="#0079C1" d="M352.128,446.359v-14.232c0-3.934-3.182-7.115-7.116-7.115c-3.925,0-7.116,3.182-7.116,7.115v14.232
		c0,3.926,3.191,7.117,7.116,7.117C348.946,453.477,352.128,450.285,352.128,446.359z"/>
</g>
<g id="LWPOLYLINE_1673_">
	<polygon fill="#FFFFFF" points="290.528,311.159 312.895,311.159 312.895,305.06 296.628,305.06 296.628,292.86 307.604,292.86 
		307.604,286.761 296.628,286.761 296.628,276.594 312.895,276.594 312.895,270.495 290.528,270.495 	"/>
</g>
</svg>
