<?xml version="1.0" encoding="UTF-8" standalone="no"?>
<!-- Generator: Adobe Illustrator 15.1.0, SVG Export Plug-In . SVG Version: 6.00 Build 0)  -->

<svg
   xmlns:dc="http://purl.org/dc/elements/1.1/"
   xmlns:cc="http://creativecommons.org/ns#"
   xmlns:rdf="http://www.w3.org/1999/02/22-rdf-syntax-ns#"
   xmlns:svg="http://www.w3.org/2000/svg"
   xmlns="http://www.w3.org/2000/svg"
   xmlns:sodipodi="http://sodipodi.sourceforge.net/DTD/sodipodi-0.dtd"
   xmlns:inkscape="http://www.inkscape.org/namespaces/inkscape"
   version="1.0"
   id="Layer_1"
   x="0px"
   y="0px"
   width="496.064"
   height="323.95901"
   viewBox="0 0 496.06397 323.95901"
   enable-background="new 0 0 595.28 841.89"
   xml:space="preserve"
   sodipodi:docname="611-2.svg"
   inkscape:version="0.92.5 (2060ec1f9f, 2020-04-08)"><metadata
   id="metadata130"><rdf:RDF><cc:Work
       rdf:about=""><dc:format>image/svg+xml</dc:format><dc:type
         rdf:resource="http://purl.org/dc/dcmitype/StillImage" /></cc:Work></rdf:RDF></metadata><defs
   id="defs128" /><sodipodi:namedview
   pagecolor="#ffffff"
   bordercolor="#666666"
   borderopacity="1"
   objecttolerance="10"
   gridtolerance="10"
   guidetolerance="10"
   inkscape:pageopacity="0"
   inkscape:pageshadow="2"
   inkscape:window-width="640"
   inkscape:window-height="480"
   id="namedview126"
   showgrid="false"
   inkscape:zoom="0.28032165"
   inkscape:cx="248.03201"
   inkscape:cy="161.97899"
   inkscape:window-x="0"
   inkscape:window-y="0"
   inkscape:window-maximized="0"
   inkscape:current-layer="Layer_1" />
<g
   id="LWPOLYLINE_1674_"
   transform="translate(-49.608,-258.965)">
	<rect
   x="49.608002"
   y="258.965"
   width="496.06299"
   height="323.95801"
   id="rect2"
   style="fill:#0079c1" />
</g>
<g
   id="LWPOLYLINE_1675_"
   transform="translate(-49.608,-258.965)">
	<path
   d="m 57.202,582.924 h 480.876 c 4.184,0 7.594,-3.398 7.594,-7.592 V 266.559 c 0,-4.195 -3.41,-7.593 -7.594,-7.593 H 57.202 c -4.195,0 -7.594,3.398 -7.594,7.593 v 308.773 c 0,4.193 3.399,7.592 7.594,7.592 z"
   id="path5"
   inkscape:connector-curvature="0"
   style="fill:#ffffff" />
</g>
<g
   id="LWPOLYLINE_1665_"
   transform="translate(-49.608,-258.965)">
	<path
   d="m 57.202,577.861 h 480.876 c 1.395,0 2.531,-1.135 2.531,-2.529 V 266.559 c 0,-1.394 -1.137,-2.531 -2.531,-2.531 H 57.202 c -1.395,0 -2.531,1.137 -2.531,2.531 v 308.773 c 0,1.395 1.137,2.529 2.531,2.529 z"
   id="path8"
   inkscape:connector-curvature="0"
   style="fill:#0079c1" />
</g>
<g
   id="LWPOLYLINE_1701_"
   transform="translate(-49.608,-258.965)">
	<path
   d="m 185.527,367.792 h 60.734 c 4.195,0 7.594,-3.398 7.594,-7.582 v -60.747 c 0,-4.195 -3.398,-7.593 -7.594,-7.593 h -60.734 c -4.195,0 -7.594,3.398 -7.594,7.593 v 60.747 c 0.001,4.184 3.399,7.582 7.594,7.582 z"
   id="path11"
   inkscape:connector-curvature="0"
   style="fill:#ffffff" />
</g>
<g
   id="LWPOLYLINE_1703_"
   transform="translate(-49.608,-258.965)">
	<path
   d="m 185.527,364.007 h 60.734 c 2.098,0 3.797,-1.711 3.797,-3.797 v -60.747 c 0,-2.098 -1.699,-3.797 -3.797,-3.797 h -60.734 c -2.098,0 -3.797,1.699 -3.797,3.797 v 60.747 c 0,2.086 1.7,3.785 3.797,3.797 z"
   id="path14"
   inkscape:connector-curvature="0"
   style="fill:#ef3e42" />
</g>
<g
   id="LWPOLYLINE_1666_"
   transform="translate(-49.608,-258.965)">
	<polygon
   points="177.676,534.834 187.296,499.398 195.394,499.398 181.473,550.02 173.879,550.02 159.958,499.398 168.055,499.398 "
   id="polygon17"
   style="fill:#ffffff" />
</g>
<g
   id="CIRCLE_151_"
   transform="translate(-49.608,-258.965)">
	<path
   d="m 333.07,493.328 c 0,-2.238 -1.805,-4.055 -4.043,-4.055 -2.238,0 -4.055,1.816 -4.055,4.055 0,2.239 1.816,4.055 4.055,4.055 2.239,0 4.043,-1.817 4.043,-4.055 z"
   id="path20"
   inkscape:connector-curvature="0"
   style="fill:#ffffff" />
</g>
<g
   id="LWPOLYLINE_1669_"
   transform="translate(-49.608,-258.965)">
	<path
   d="m 449.501,455.115 v -7.922 c 1.805,-10.512 6.211,-20.412 12.819,-28.779 h 10.125 c -5.836,5.895 -10.301,13.02 -13.065,20.846 1.313,-0.398 2.671,-0.598 4.03,-0.598 7.699,0 13.922,6.234 13.922,13.922 v 2.531 c 0,7.688 -6.223,13.908 -13.922,13.908 -7.686,0 -13.909,-6.22 -13.909,-13.908 z"
   id="path23"
   inkscape:connector-curvature="0"
   style="fill:#ffffff" />
</g>
<g
   id="LWPOLYLINE_1671_"
   transform="translate(-49.608,-258.965)">
	<path
   d="m 201.968,341.227 c 0,7.687 6.233,13.921 13.921,13.921 7.687,0 13.921,-6.234 13.921,-13.921 v -3.046 c 0,-4.102 -1.805,-8.004 -4.957,-10.64 2.379,-2.543 3.691,-5.883 3.691,-9.351 v -1.008 c 0,-6.996 -5.66,-12.656 -12.655,-12.656 -6.984,0 -12.655,5.66 -12.655,12.656 v 1.008 h 7.593 v -1.008 c 0,-2.801 2.273,-5.063 5.063,-5.063 2.801,0 5.063,2.262 5.063,5.063 v 1.008 c 0,3.351 -2.719,6.07 -6.07,6.07 h -1.008 v 7.089 h 2.016 c 3.492,0 6.328,2.836 6.328,6.328 v 3.55 c 0,3.492 -2.836,6.328 -6.328,6.328 -3.492,0 -6.328,-2.835 -6.328,-6.328 z"
   id="path26"
   inkscape:connector-curvature="0"
   style="fill:#ffffff" />
</g>
<g
   id="LWPOLYLINE_1676_"
   transform="translate(-49.608,-258.965)">
	<polygon
   points="87.575,527.24 87.575,550.02 79.981,550.02 79.981,499.398 87.575,499.398 87.575,519.646 105.293,519.646 105.293,499.398 112.887,499.398 112.887,550.02 105.293,550.02 105.293,527.24 "
   id="polygon29"
   style="fill:#ffffff" />
</g>
<g
   id="LWPOLYLINE_1677_"
   transform="translate(-49.608,-258.965)">
	<polygon
   points="143.26,529.771 155.915,499.398 147.303,499.398 139.463,518.229 131.612,499.398 123.011,499.398 135.666,529.771 135.666,550.02 139.463,550.02 143.26,550.02 "
   id="polygon32"
   style="fill:#ffffff" />
</g>
<g
   id="LWPOLYLINE_1678_"
   transform="translate(-49.608,-258.965)">
	<polygon
   points="238.927,499.398 256.645,533.568 256.645,499.398 264.237,499.398 264.237,550.02 256.645,550.02 238.927,515.85 238.927,550.02 231.333,550.02 231.333,499.398 "
   id="polygon35"
   style="fill:#ffffff" />
</g>
<g
   id="LWPOLYLINE_1679_"
   transform="translate(-49.608,-258.965)">
	<rect
   x="206.52499"
   y="499.39801"
   width="7.5939999"
   height="50.620998"
   id="rect38"
   style="fill:#ffffff" />
</g>
<g
   id="LWPOLYLINE_1680_"
   transform="translate(-49.608,-258.965)">
	<polygon
   points="281.439,550.02 281.439,499.398 289.033,499.398 289.033,523.701 305.228,499.398 314.345,499.398 299.919,520.912 314.345,550.02 305.743,550.02 295.103,528.248 289.033,537.365 289.033,550.02 "
   id="polygon41"
   style="fill:#ffffff" />
</g>
<g
   id="LWPOLYLINE_1681_"
   transform="translate(-49.608,-258.965)">
	<polygon
   points="332.32,499.398 340.921,499.398 354.326,550.02 346.241,550.02 343.956,541.418 329.273,541.418 327,550.02 318.902,550.02 "
   id="polygon44"
   style="fill:#ffffff" />
</g>
<g
   id="CIRCLE_152_"
   transform="translate(-49.608,-258.965)">
	<path
   d="m 348.257,493.328 c 0,-2.238 -1.805,-4.055 -4.043,-4.055 -2.238,0 -4.055,1.816 -4.055,4.055 0,2.239 1.816,4.055 4.055,4.055 2.239,0 4.043,-1.817 4.043,-4.055 z"
   id="path47"
   inkscape:connector-curvature="0"
   style="fill:#ffffff" />
</g>
<g
   id="CIRCLE_153_"
   transform="translate(-49.608,-258.965)">
	<path
   d="m 373.567,493.328 c 0,-2.238 -1.816,-4.055 -4.054,-4.055 -2.227,0 -4.043,1.816 -4.043,4.055 0,2.239 1.816,4.055 4.043,4.055 2.238,0 4.054,-1.817 4.054,-4.055 z"
   id="path50"
   inkscape:connector-curvature="0"
   style="fill:#ffffff" />
</g>
<g
   id="LWPOLYLINE_1683_"
   transform="translate(-49.608,-258.965)">
	<polygon
   points="372.806,499.398 381.419,499.398 394.824,550.02 386.728,550.02 384.454,541.418 369.771,541.418 367.498,550.02 359.389,550.02 "
   id="polygon53"
   style="fill:#ffffff" />
</g>
<g
   id="CIRCLE_154_"
   transform="translate(-49.608,-258.965)">
	<path
   d="m 388.755,493.328 c 0,-2.238 -1.816,-4.055 -4.055,-4.055 -2.227,0 -4.043,1.816 -4.043,4.055 0,2.239 1.816,4.055 4.043,4.055 2.238,0 4.055,-1.817 4.055,-4.055 z"
   id="path56"
   inkscape:connector-curvature="0"
   style="fill:#ffffff" />
</g>
<g
   id="LWPOLYLINE_1685_"
   transform="translate(-49.608,-258.965)">
	<path
   d="m 459.872,506.838 c 2.987,-1.547 5.237,-4.229 6.245,-7.439 h 7.676 v 50.621 h -7.594 v -38.975 l -5.565,1.008 z"
   id="path59"
   inkscape:connector-curvature="0"
   style="fill:#ffffff" />
</g>
<g
   id="LWPOLYLINE_1686_"
   transform="translate(-49.608,-258.965)">
	<polygon
   points="511.256,532.303 515.298,532.303 515.298,539.896 511.256,539.896 511.256,550.02 503.662,550.02 503.662,539.896 484.925,539.896 484.925,532.303 503.662,499.398 511.256,499.398 "
   id="polygon62"
   style="fill:#ffffff" />
</g>
<g
   id="LWPOLYLINE_1687_"
   transform="translate(-49.608,-258.965)">
	<polygon
   points="87.575,446.256 87.575,469.023 79.981,469.023 79.981,418.414 87.575,418.414 87.575,438.662 105.293,438.662 105.293,418.414 112.887,418.414 112.887,469.023 105.293,469.023 105.293,446.256 "
   id="polygon65"
   style="fill:#ffffff" />
</g>
<g
   id="LWPOLYLINE_1688_"
   transform="translate(-49.608,-258.965)">
	<polygon
   points="157.931,461.443 137.682,461.443 137.682,446.256 151.356,446.256 151.356,438.662 137.682,438.662 137.682,426.008 157.931,426.008 157.931,418.414 130.101,418.414 130.101,469.023 157.931,469.023 "
   id="polygon68"
   style="fill:#ffffff" />
</g>
<g
   id="LWPOLYLINE_1689_"
   transform="translate(-49.608,-258.965)">
	<polygon
   points="179.199,418.414 179.199,461.443 196.905,461.443 196.905,469.023 171.605,469.023 171.605,418.414 "
   id="polygon71"
   style="fill:#ffffff" />
</g>
<g
   id="LWPOLYLINE_1690_"
   transform="translate(-49.608,-258.965)">
	<polygon
   points="321.434,469.023 321.434,418.414 329.027,418.414 329.027,442.705 345.222,418.414 354.326,418.414 339.913,439.928 354.326,469.023 345.726,469.023 335.097,447.264 329.027,456.381 329.027,469.023 "
   id="polygon74"
   style="fill:#ffffff" />
</g>
<g
   id="LWPOLYLINE_1691_"
   transform="translate(-49.608,-258.965)">
	<polygon
   points="278.908,418.414 296.626,452.584 296.626,418.414 304.22,418.414 304.22,469.023 296.626,469.023 278.908,434.865 278.908,469.023 271.315,469.023 271.315,418.414 "
   id="polygon77"
   style="fill:#ffffff" />
</g>
<g
   id="LWPOLYLINE_1692_"
   transform="translate(-49.608,-258.965)">
	<path
   d="m 225.075,432.078 c -0.164,-3.27 -2.777,-5.895 -6.058,-6.07 h -3.188 c -3.316,0.211 -5.824,3.059 -5.613,6.375 0.105,1.768 0.984,3.385 2.402,4.439 l 13.499,4.945 c 3.516,2.109 6,5.578 6.844,9.574 1.699,7.957 -3.387,15.773 -11.331,17.473 -0.117,0.012 -0.223,0.023 -0.328,0.047 -9.832,1.451 -18.983,-5.344 -20.437,-15.164 l 7.511,-1.113 c 0.844,5.684 6.129,9.609 11.813,8.766 3.854,-0.902 6.222,-4.746 5.308,-8.59 -0.387,-1.664 -1.383,-3.141 -2.777,-4.148 l -13.546,-4.969 c -3.902,-2.355 -6.362,-6.516 -6.55,-11.061 -0.316,-7.512 5.507,-13.852 13.019,-14.168 h 3.539 c 7.405,0.27 13.323,6.27 13.487,13.676 z"
   id="path80"
   inkscape:connector-curvature="0"
   style="fill:#ffffff" />
</g>
<g
   id="LWPOLYLINE_1694_"
   transform="translate(-49.608,-258.965)">
	<rect
   x="246.52"
   y="418.414"
   width="7.5939999"
   height="50.609001"
   id="rect83"
   style="fill:#ffffff" />
</g>
<g
   id="LWPOLYLINE_1695_"
   transform="translate(-49.608,-258.965)">
	<rect
   x="364.45099"
   y="418.414"
   width="7.5929999"
   height="50.609001"
   id="rect86"
   style="fill:#ffffff" />
</g>
<g
   id="LWPOLYLINE_1698_"
   transform="translate(-49.608,-258.965)">
	<polygon
   points="511.256,451.318 515.298,451.318 515.298,458.912 511.256,458.912 511.256,469.023 503.662,469.023 503.662,458.912 484.925,458.912 484.925,451.318 503.662,418.414 511.256,418.414 "
   id="polygon89"
   style="fill:#ffffff" />
</g>
<g
   id="LWPOLYLINE_1704_"
   transform="translate(-49.608,-258.965)">
	
		<path
   stroke-miterlimit="10"
   d="m 269.042,367.792 h 136.669 c 4.194,0 7.593,-3.398 7.593,-7.582 v -60.747 c 0,-4.195 -3.398,-7.593 -7.593,-7.593 H 269.042 c -4.195,0 -7.594,3.398 -7.594,7.593 v 60.747 c 0,4.184 3.399,7.582 7.594,7.582 z"
   id="path92"
   inkscape:connector-curvature="0"
   style="fill:none;stroke:#70cddd;stroke-width:0.7087;stroke-linecap:round;stroke-linejoin:round;stroke-miterlimit:10" />
</g>
<g
   id="LWPOLYLINE_1706_"
   transform="translate(-49.608,-258.965)">
	<path
   d="m 269.042,367.792 h 136.669 c 4.194,0 7.593,-3.398 7.593,-7.582 v -60.747 c 0,-4.195 -3.398,-7.593 -7.593,-7.593 H 269.042 c -4.195,0 -7.594,3.398 -7.594,7.593 v 60.747 c 0,4.184 3.399,7.582 7.594,7.582 z"
   id="path95"
   inkscape:connector-curvature="0"
   style="fill:#ffffff" />
</g>
<g
   id="LWPOLYLINE_1709_"
   transform="translate(-49.608,-258.965)">
	<path
   d="m 269.042,364.007 h 136.669 c 2.097,0 3.796,-1.711 3.796,-3.797 v -60.747 c 0,-2.098 -1.699,-3.797 -3.796,-3.797 H 269.042 c -2.098,0 -3.797,1.699 -3.797,3.797 v 60.747 c 0,2.086 1.699,3.785 3.797,3.797 z"
   id="path98"
   inkscape:connector-curvature="0"
   style="fill:#00a389" />
</g>
<g
   id="LWPOLYLINE_1710_"
   transform="translate(-49.608,-258.965)">
	<polygon
   points="315.353,347.554 295.103,347.554 295.103,332.368 308.778,332.368 308.778,324.774 295.103,324.774 295.103,312.119 315.353,312.119 315.353,304.525 287.521,304.525 287.521,355.148 315.353,355.148 "
   id="polygon101"
   style="fill:#ffffff" />
</g>
<g
   id="LWPOLYLINE_1712_"
   transform="translate(-49.608,-258.965)">
	<path
   d="m 331.805,311.966 c 2.999,-1.558 5.249,-4.23 6.257,-7.441 h 7.664 v 50.623 h -7.594 v -38.986 l -5.554,1.02 z"
   id="path104"
   inkscape:connector-curvature="0"
   style="fill:#ffffff" />
</g>
<g
   id="LWPOLYLINE_1713_"
   transform="translate(-49.608,-258.965)">
	<path
   d="m 359.389,320.978 h 7.594 v -2.531 c 0,-0.82 0.164,-1.641 0.469,-2.391 1.324,-3.234 5.015,-4.793 8.249,-3.469 3.234,1.313 4.793,5.016 3.469,8.25 l -19.78,26.717 v 7.594 h 27.843 v -7.594 h -19.229 l 18.409,-24.385 c 2.602,-7.23 -1.137,-15.21 -8.367,-17.823 -7.229,-2.602 -15.21,1.137 -17.823,8.367 -0.703,1.969 -0.961,4.055 -0.762,6.129 z"
   id="path107"
   inkscape:connector-curvature="0"
   style="fill:#ffffff" />
</g>
<g
   id="LWPOLYLINE_1667_"
   transform="translate(-49.608,-258.965)">
	<polygon
   points="336.62,512.053 342.187,533.826 331.055,533.826 "
   id="polygon110"
   style="fill:#0079c1" />
</g>
<g
   id="LWPOLYLINE_1668_"
   transform="translate(-49.608,-258.965)">
	<path
   d="m 457.095,455.115 c 0,3.492 2.824,6.328 6.315,6.328 3.504,0 6.328,-2.836 6.328,-6.328 v -2.531 c 0,-3.504 -2.824,-6.328 -6.328,-6.328 -3.491,0 -6.315,2.824 -6.315,6.328 z"
   id="path113"
   inkscape:connector-curvature="0"
   style="fill:#0079c1" />
</g>
<g
   id="LWPOLYLINE_1682_"
   transform="translate(-49.608,-258.965)">
	<polygon
   points="377.106,512.053 382.685,533.826 371.54,533.826 "
   id="polygon116"
   style="fill:#0079c1" />
</g>
<g
   id="LWPOLYLINE_1684_"
   transform="translate(-49.608,-258.965)">
	<polygon
   points="503.662,532.303 493.538,532.303 503.662,514.514 "
   id="polygon119"
   style="fill:#0079c1" />
</g>
<g
   id="LWPOLYLINE_1700_"
   transform="translate(-49.608,-258.965)">
	<polygon
   points="503.662,451.318 493.538,451.318 503.662,433.529 "
   id="polygon122"
   style="fill:#0079c1" />
</g>
</svg>