<?xml version="1.0" encoding="iso-8859-1"?>
<!-- Generator: Adobe Illustrator 15.1.0, SVG Export Plug-In . SVG Version: 6.00 Build 0)  -->
<!DOCTYPE svg PUBLIC "-//W3C//DTD SVG 1.1//EN" "http://www.w3.org/Graphics/SVG/1.1/DTD/svg11.dtd">
<svg version="1.1" id="Layer_1" xmlns="http://www.w3.org/2000/svg" xmlns:xlink="http://www.w3.org/1999/xlink" x="0px" y="0px"
	 width="595px" height="842px" viewBox="0 0 595 842" style="enable-background:new 0 0 595 842;" xml:space="preserve">
<g>
	
		<rect x="37.72" y="224.456" style="fill-rule:evenodd;clip-rule:evenodd;fill:#0079C1;stroke:#007AC2;stroke-width:1.2334;stroke-miterlimit:10;" width="524.304" height="336.528"/>
	<polygon style="fill-rule:evenodd;clip-rule:evenodd;fill:#FFFFFF;" points="37.72,232.448 38.224,230.648 38.224,229.784 
		39.088,227.984 39.952,226.688 41.32,226.256 43.048,224.888 44.848,224.888 46.216,224.456 554.536,224.456 556.264,224.888 
		558.064,225.32 559.36,226.688 560.728,227.984 561.16,228.92 562.024,230.648 562.024,231.584 562.024,554.288 561.592,556.088 
		560.728,557.816 559.36,559.184 558.064,560.048 556.264,560.984 554.536,560.984 45.712,560.984 43.984,560.984 42.184,560.048 
		40.384,559.184 39.088,557.816 38.224,556.088 37.72,554.288 37.72,552.488 	"/>
	<polygon style="fill-rule:evenodd;clip-rule:evenodd;fill:#0079C1;" points="41.752,232.448 41.752,231.152 42.616,229.784 
		43.552,228.92 44.848,228.488 45.712,228.488 554.536,228.488 554.968,228.488 556.264,228.92 557.2,229.784 558.064,231.152 
		558.064,232.448 558.064,553.424 558.064,554.72 557.632,555.152 556.696,556.088 555.832,556.952 554.536,556.952 45.712,556.952 
		44.416,556.952 43.048,556.088 42.184,555.152 41.752,553.856 	"/>
	<polygon style="fill-rule:evenodd;clip-rule:evenodd;fill:#FFFFFF;" points="268.624,556.952 268.624,513.896 210.016,513.896 
		210.016,525.848 182.512,506.336 210.016,486.824 210.016,498.344 268.624,498.344 268.624,406.472 257.104,406.472 
		276.616,378.968 297.928,406.472 284.608,406.472 284.608,498.344 343.144,498.344 343.144,486.824 370.216,506.336 
		343.144,525.848 343.144,513.896 284.608,513.896 284.608,556.952 	"/>
	<g>
		<g>
			<polygon style="fill-rule:evenodd;clip-rule:evenodd;fill:#FFFFFF;" points="61.264,421.952 61.264,461.048 80.848,461.048 
				80.848,455.288 67.096,455.288 67.096,421.952 			"/>
			<polygon style="fill-rule:evenodd;clip-rule:evenodd;fill:#FFFFFF;" points="83.08,461.048 93.232,421.952 99.928,421.952 
				110.152,461.048 104.392,461.048 102.592,454.352 90.568,454.352 88.84,461.048 			"/>
			<polygon style="fill-rule:evenodd;clip-rule:evenodd;fill:#0079C1;" points="92.368,448.592 100.792,448.592 96.4,433.976 			"/>
			<polygon style="fill-rule:evenodd;clip-rule:evenodd;fill:#FFFFFF;" points="119.008,461.048 119.008,421.952 125.704,421.952 
				134.56,445.064 142.984,421.952 150.112,421.952 150.112,461.048 144.352,461.048 144.352,435.704 134.56,461.048 
				124.768,435.704 124.768,461.048 			"/>
			<polygon style="fill-rule:evenodd;clip-rule:evenodd;fill:#FFFFFF;" points="163.432,461.048 163.432,421.952 170.488,421.952 
				178.984,445.064 187.84,421.952 194.968,421.952 194.968,461.048 188.704,461.048 188.704,435.704 178.984,461.048 
				169.192,435.704 169.192,461.048 			"/>
			<rect x="208.288" y="421.952" style="fill-rule:evenodd;clip-rule:evenodd;fill:#FFFFFF;" width="5.76" height="39.096"/>
			<polygon style="fill-rule:evenodd;clip-rule:evenodd;fill:#FFFFFF;" points="333.424,461.048 333.424,428.216 323.632,428.216 
				323.632,421.952 348.904,421.952 348.904,428.216 339.184,428.216 339.184,461.048 			"/>
			<polygon style="fill-rule:evenodd;clip-rule:evenodd;fill:#FFFFFF;" points="356.896,421.952 362.224,421.952 362.224,448.592 
				362.728,451.256 364.024,453.488 366.256,454.856 368.92,455.288 371.584,454.856 373.816,453.488 375.112,451.256 
				376.048,449.528 376.048,421.952 381.808,421.952 381.376,450.824 380.44,454.352 378.208,457.016 374.68,459.68 
				371.152,461.048 368.056,461.048 364.456,460.184 361.36,458.816 358.696,456.152 357.832,454.352 356.464,450.824 
				356.464,449.528 356.464,421.952 			"/>
			<polygon style="fill-rule:evenodd;clip-rule:evenodd;fill:#FFFFFF;" points="395.128,461.048 395.128,421.952 408.448,421.952 
				411.544,422.888 414.208,424.184 416.008,425.552 416.872,426.848 418.168,429.944 418.672,433.04 418.168,436.208 
				416.44,439.736 413.344,442.4 411.544,443.264 418.672,461.048 412.408,461.048 405.352,443.264 400.888,443.264 
				400.888,461.048 			"/>
			<polygon style="fill-rule:evenodd;clip-rule:evenodd;fill:#0079C1;" points="400.888,428.216 409.312,428.216 411.112,428.648 
				412.408,430.88 412.408,434.408 411.544,436.64 409.744,437.504 408.448,437.936 400.888,437.936 			"/>
			<polygon style="fill-rule:evenodd;clip-rule:evenodd;fill:#FFFFFF;" points="428.392,421.952 449.704,421.952 449.704,428.216 
				434.152,428.216 434.152,437.936 444.808,437.936 444.808,443.696 434.152,443.696 434.152,455.288 449.704,455.288 
				449.704,461.048 428.392,461.048 			"/>
			<polygon style="fill-rule:evenodd;clip-rule:evenodd;fill:#FFFFFF;" points="460.36,461.048 460.36,421.952 466.12,421.952 
				479.944,448.592 479.944,421.952 485.704,421.952 485.704,461.048 479.944,461.048 466.12,434.84 466.12,461.048 			"/>
			<polygon style="fill-rule:evenodd;clip-rule:evenodd;fill:#FFFFFF;" points="499.024,461.048 499.024,421.952 505.216,421.952 
				505.216,441.032 517.672,421.952 524.728,421.952 513.208,438.872 524.728,461.048 518.104,461.048 509.68,444.632 
				505.216,451.256 505.216,461.048 			"/>
			<rect x="532.288" y="421.952" style="fill-rule:evenodd;clip-rule:evenodd;fill:#FFFFFF;" width="5.76" height="39.096"/>
		</g>
		<rect x="386.2" y="477.032" style="fill-rule:evenodd;clip-rule:evenodd;fill:#FFFFFF;" width="105.696" height="58.608"/>
		<polygon style="fill-rule:evenodd;clip-rule:evenodd;" points="387.568,483.656 388,482.792 388.432,480.992 388.864,480.56 
			390.232,479.264 392.032,478.832 393.328,478.328 484.336,478.328 486.136,478.832 487.432,479.264 488.8,480.56 489.664,481.928 
			490.096,483.656 490.096,529.448 489.664,530.744 487.936,532.544 486.568,533.408 485.272,533.84 393.328,533.84 392.032,533.84 
			390.232,532.976 388.864,532.112 388,530.744 387.568,528.944 		"/>
		<polygon style="fill-rule:evenodd;clip-rule:evenodd;fill:#FFFFFF;" points="390.664,483.656 391.096,482.792 392.032,481.928 
			393.328,481.496 484.336,481.496 485.704,481.928 486.568,482.792 487,484.16 487,528.512 486.568,529.88 485.704,530.744 
			484.336,531.176 393.328,531.176 392.464,530.744 391.528,530.312 390.664,528.512 		"/>
		<polygon style="fill-rule:evenodd;clip-rule:evenodd;" points="398.224,499.208 404.416,499.208 404.416,496.976 404.416,495.68 
			405.352,494.312 406.216,493.448 408.016,492.584 410.176,492.584 411.544,493.016 412.84,493.88 413.344,495.248 
			414.208,496.544 413.776,498.776 412.84,500.144 398.224,520.088 398.224,525.848 419.968,525.848 419.968,520.088 
			405.784,520.088 418.168,502.808 419.104,501.008 419.968,498.776 419.968,496.544 419.536,495.248 419.536,494.312 
			418.672,492.152 417.736,491.216 415.504,488.552 413.776,487.688 410.176,486.824 408.016,486.824 404.848,487.688 
			402.688,488.552 401.32,490.352 400.024,492.152 399.088,493.88 398.224,496.112 		"/>
		<polygon style="fill-rule:evenodd;clip-rule:evenodd;" points="442.144,509 439.984,509.432 437.32,509.864 435.52,509 
			433.288,508.568 431.488,507.2 430.192,505.472 428.824,503.672 427.96,501.44 427.528,498.776 427.96,495.68 429.328,492.584 
			431.056,489.92 433.72,488.12 435.952,487.256 437.752,486.824 440.848,487.256 443.512,487.688 445.312,488.984 447.472,491.216 
			448.408,493.448 449.272,495.68 449.272,496.544 449.272,499.64 449.272,504.104 448.408,508.568 447.472,511.664 
			446.176,515.192 445.312,516.992 444.376,518.792 443.512,520.088 439.048,525.848 431.488,525.848 437.752,517.856 
			439.984,515.192 440.848,513.464 442.144,510.296 		"/>
		<polygon style="fill-rule:evenodd;clip-rule:evenodd;fill:#FFFFFF;" points="438.616,492.584 439.48,492.584 441.28,493.448 
			442.648,495.248 443.512,496.112 443.512,499.64 443.08,501.008 442.144,502.304 440.848,503.24 439.48,503.672 437.752,503.672 
			435.952,503.24 434.656,501.872 434.152,501.008 433.72,499.64 433.288,496.976 433.72,495.68 434.656,494.312 435.52,493.448 
			436.816,493.016 		"/>
		<polygon style="fill-rule:evenodd;clip-rule:evenodd;" points="457.696,499.208 463.96,499.208 463.96,497.48 463.96,495.68 
			464.824,494.312 466.624,493.016 468.784,492.584 471.016,493.016 472.816,494.816 473.248,496.112 473.248,496.544 
			473.248,498.344 472.816,499.64 457.696,520.088 457.696,525.848 479.44,525.848 479.44,520.088 465.256,520.088 477.712,502.808 
			479.008,501.008 479.44,498.776 479.44,496.544 479.008,494.312 478.144,492.152 476.776,490.352 475.048,488.552 
			473.248,487.688 471.016,486.824 468.784,486.824 466.624,486.824 464.392,487.688 462.16,488.552 460.792,490.352 
			459.496,492.152 458.632,493.88 457.696,496.112 		"/>
		<rect x="60.832" y="477.032" style="fill-rule:evenodd;clip-rule:evenodd;fill:#FFFFFF;" width="105.696" height="58.608"/>
		<polygon style="fill-rule:evenodd;clip-rule:evenodd;" points="62.632,483.656 62.632,482.792 63.496,480.992 63.928,480.56 
			64.864,479.264 66.592,478.832 68.392,478.328 158.968,478.328 160.768,478.832 162.064,479.264 163.432,480.56 164.296,481.928 
			164.728,483.656 164.728,529.448 164.296,530.744 163,532.544 161.632,533.408 159.832,533.84 68.392,533.84 66.592,533.84 
			64.864,532.976 63.928,532.112 63.064,530.744 62.632,528.944 		"/>
		<polygon style="fill-rule:evenodd;clip-rule:evenodd;fill:#FFFFFF;" points="65.296,483.656 65.728,482.792 66.592,481.928 
			68.392,481.496 158.968,481.496 160.768,481.928 161.632,482.792 162.064,484.16 162.064,528.512 161.632,529.88 160.768,530.744 
			158.968,531.176 68.392,531.176 67.096,530.744 66.16,530.312 65.296,528.512 		"/>
		<polygon style="fill-rule:evenodd;clip-rule:evenodd;" points="73.288,499.208 79.048,499.208 79.048,496.976 79.48,495.68 
			79.912,494.312 81.28,493.448 83.08,492.584 84.808,492.584 86.176,493.016 87.472,493.88 88.408,495.248 88.84,496.544 
			88.84,498.776 87.904,500.144 73.288,520.088 73.288,525.848 94.6,525.848 94.6,520.088 80.416,520.088 93.232,502.808 
			94.168,501.008 94.6,498.776 94.6,496.544 94.6,495.248 94.168,494.312 93.232,492.152 92.8,491.216 90.136,488.552 
			88.408,487.688 85.24,486.824 83.08,486.824 79.48,487.688 77.752,488.552 75.952,490.352 74.584,492.152 73.72,493.88 
			73.288,496.112 		"/>
		<polygon style="fill-rule:evenodd;clip-rule:evenodd;" points="117.208,509 115.048,509.432 112.384,509.864 110.584,509 
			108.352,508.568 106.552,507.2 104.824,505.472 103.456,503.672 103.024,501.44 102.592,498.776 103.024,495.68 103.888,492.584 
			105.688,489.92 108.352,488.12 110.584,487.256 112.816,486.824 115.48,487.256 118.144,487.688 119.872,488.984 122.104,491.216 
			123.472,493.448 123.904,495.68 123.904,496.544 123.904,499.64 123.904,504.104 123.472,508.568 122.536,511.664 
			120.808,515.192 120.376,516.992 119.008,518.792 118.144,520.088 113.68,525.848 106.552,525.848 112.816,517.856 
			114.544,515.192 115.48,513.464 116.776,510.296 		"/>
		<polygon style="fill-rule:evenodd;clip-rule:evenodd;fill:#FFFFFF;" points="113.248,492.584 114.112,492.584 116.344,493.448 
			117.712,495.248 118.144,496.112 118.144,499.64 117.712,501.008 116.776,502.304 115.48,503.24 114.112,503.672 112.384,503.672 
			111.016,503.24 109.216,501.872 108.784,501.008 108.352,499.64 108.352,496.976 108.784,495.68 109.216,494.312 110.152,493.448 
			111.448,493.016 		"/>
		<polygon style="fill-rule:evenodd;clip-rule:evenodd;" points="132.76,499.208 138.52,499.208 138.52,497.48 139.024,495.68 
			139.456,494.312 141.184,493.016 143.416,492.584 145.648,493.016 147.448,494.816 147.88,496.112 148.312,496.544 
			148.312,498.344 147.88,499.64 132.76,520.088 132.76,525.848 154.072,525.848 154.072,520.088 139.888,520.088 152.776,502.808 
			153.64,501.008 154.072,498.776 154.072,496.544 153.64,494.312 152.776,492.152 151.408,490.352 149.68,488.552 147.88,487.688 
			145.648,486.824 143.416,486.824 141.184,486.824 139.024,487.688 137.224,488.552 135.424,490.352 134.128,492.152 
			133.192,493.88 132.76,496.112 		"/>
		<polygon style="fill-rule:evenodd;clip-rule:evenodd;fill:#FFFFFF;" points="212.248,250.232 212.248,289.256 231.328,289.256 
			231.328,283.496 218.008,283.496 218.008,250.232 		"/>
		<polygon style="fill-rule:evenodd;clip-rule:evenodd;fill:#FFFFFF;" points="233.56,289.256 243.784,250.232 250.408,250.232 
			261.064,289.256 254.872,289.256 253.072,282.632 241.12,282.632 239.32,289.256 		"/>
		<polygon style="fill-rule:evenodd;clip-rule:evenodd;fill:#007AC2;" points="242.92,276.872 247.312,261.752 251.344,276.872 		
			"/>
		<polygon style="fill-rule:evenodd;clip-rule:evenodd;fill:#FFFFFF;" points="269.56,289.256 269.56,250.232 275.32,250.232 
			275.32,265.784 289.072,265.784 289.072,250.232 294.832,250.232 294.832,289.256 289.072,289.256 289.072,271.544 
			275.32,271.544 275.32,289.256 		"/>
		<polygon style="fill-rule:evenodd;clip-rule:evenodd;fill:#FFFFFF;" points="312.112,289.256 312.112,255.992 302.32,255.992 
			302.32,250.232 327.592,250.232 327.592,255.992 317.872,255.992 317.872,289.256 		"/>
		<rect x="335.152" y="250.232" style="fill-rule:evenodd;clip-rule:evenodd;fill:#FFFFFF;" width="5.76" height="39.024"/>
		<rect x="239.32" y="304.808" style="fill-rule:evenodd;clip-rule:evenodd;fill:#FFFFFF;" width="74.52" height="58.608"/>
		<polygon style="fill-rule:evenodd;clip-rule:evenodd;fill:#EF3E42;" points="245.08,360.752 244.216,360.32 243.352,359.888 
			242.416,359.024 242.416,358.088 242.416,310.568 242.416,310.136 242.92,309.272 243.352,308.84 243.784,308.408 
			244.216,307.904 245.08,307.904 307.648,307.904 308.944,307.904 309.88,308.84 310.312,309.704 310.744,310.568 310.744,357.656 
			310.312,359.024 309.88,359.888 308.944,360.32 307.648,360.752 		"/>
		<polygon style="fill-rule:evenodd;clip-rule:evenodd;fill:#FFFFFF;" points="255.304,324.392 259.768,323.456 259.768,353.696 
			265.528,353.696 265.528,314.6 259.768,314.6 258.904,316.4 257.968,318.128 256.24,319.496 254.872,320.36 		"/>
		<polygon style="fill-rule:evenodd;clip-rule:evenodd;fill:#FFFFFF;" points="276.616,327.488 282.376,327.488 282.376,324.392 
			283.312,323.024 284.176,321.728 285.04,320.792 287.272,320.36 289.504,321.224 291.304,322.16 292.168,323.888 292.168,325.688 
			291.736,327.488 276.616,347.864 276.616,353.696 297.928,353.696 297.928,347.864 283.744,347.864 296.632,331.016 
			297.496,328.784 297.928,326.552 297.928,323.888 297.064,321.224 295.264,318.128 293.536,316.832 291.304,315.464 288.64,314.6 
			286.408,314.6 284.176,315.032 281.944,315.896 280.216,317.264 278.848,319.064 277.552,320.792 276.616,324.392 		"/>
	</g>
</g>
</svg>
