<?xml version="1.0" encoding="utf-8"?>
<!-- Generator: Adobe Illustrator 15.1.0, SVG Export Plug-In . SVG Version: 6.00 Build 0)  -->
<!DOCTYPE svg PUBLIC "-//W3C//DTD SVG 1.0//EN" "http://www.w3.org/TR/2001/REC-SVG-20010904/DTD/svg10.dtd">
<svg version="1.0" id="Layer_1" xmlns="http://www.w3.org/2000/svg" xmlns:xlink="http://www.w3.org/1999/xlink" x="0px" y="0px"
	 width="595.28px" height="841.89px" viewBox="0 0 595.28 841.89" enable-background="new 0 0 595.28 841.89" xml:space="preserve">
<g id="LWPOLYLINE_19_">
	<rect x="49.608" y="482.414" fill="#FFD200" width="496.063" height="127.209"/>
</g>
<g id="LWPOLYLINE_865_">
	<path d="M59.149,609.623h155.816V482.414H59.142c-5.264,0-9.533,4.27-9.533,9.54v108.128
		C49.608,605.354,53.878,609.623,59.149,609.623z"/>
</g>
<g id="LWPOLYLINE_867_">
	<path d="M208.605,609.623h327.525c5.271,0,9.541-4.27,9.541-9.541V491.954c0-5.271-4.27-9.54-9.541-9.54H208.605V609.623z"/>
</g>
<g id="LWPOLYLINE_20_">
	<rect x="49.608" y="232.267" fill="#FFD200" width="496.063" height="127.193"/>
</g>
<g id="LWPOLYLINE_901_">
	<path d="M208.605,359.46h327.525c5.271,0,9.541-4.27,9.541-9.54V241.807c0-5.271-4.27-9.54-9.541-9.54H208.605V359.46z"/>
</g>
<g id="LWPOLYLINE_882_">
	<path d="M59.149,359.46h155.816V232.267H59.142c-5.264,0-9.533,4.27-9.533,9.54V349.92C49.608,355.19,53.878,359.46,59.149,359.46z
		"/>
</g>
<g id="LWPOLYLINE_864_">
	<path fill="#FFD200" d="M59.149,603.263h149.456V488.774H59.149c-1.76,0-3.181,1.428-3.181,3.18v108.128
		C55.969,601.834,57.39,603.263,59.149,603.263z"/>
</g>
<g id="LWPOLYLINE_870_">
	<path fill="#FFD200" d="M214.966,603.263h321.165c1.768,0,3.181-1.429,3.181-3.181V491.954c0-1.752-1.413-3.18-3.181-3.18H214.966
		V603.263z"/>
</g>
<g id="LWPOLYLINE_874_">
	<path fill="#FFFFFF" d="M234.039,593.722h76.326c5.271,0,9.54-4.27,9.54-9.541v-76.325c0-5.271-4.27-9.54-9.54-9.54h-76.326
		c-5.264,0-9.533,4.27-9.533,9.54v76.325C224.506,589.452,228.775,593.722,234.039,593.722z"/>
</g>
<g id="LWPOLYLINE_886_">
	<path fill="#FFD200" d="M59.149,353.1h149.456V238.627H59.149c-1.76,0-3.181,1.413-3.181,3.18V349.92
		C55.969,351.672,57.39,353.1,59.149,353.1z"/>
</g>
<g id="LWPOLYLINE_887_">
	<path fill="#FFD200" d="M214.966,353.1h321.165c1.768,0,3.181-1.428,3.181-3.18V241.807c0-1.767-1.413-3.18-3.181-3.18H214.966
		V353.1z"/>
</g>
<g id="LWPOLYLINE_877_">
	<path fill="#FFFFFF" d="M338.987,593.722h171.702c5.271,0,9.541-4.27,9.541-9.541v-76.325c0-5.271-4.271-9.54-9.541-9.54H338.987
		c-5.271,0-9.541,4.27-9.541,9.54v76.325C329.446,589.452,333.716,593.722,338.987,593.722z"/>
</g>
<g id="LWPOLYLINE_868_">
	<polygon points="84.584,526.938 84.584,593.722 103.665,593.722 103.665,546.019 141.828,546.019 141.828,574.641 179.983,536.478 
		141.828,498.315 141.828,526.938 	"/>
</g>
<g id="LWPOLYLINE_872_">
	<path fill="#EF3E42" d="M234.039,588.951h76.326c2.628,0,4.771-2.135,4.771-4.771v-76.325c0-2.635-2.143-4.771-4.771-4.771h-76.326
		c-2.628,0-4.77,2.136-4.77,4.771v76.325C229.27,586.816,231.411,588.951,234.039,588.951z"/>
</g>
<g id="LWPOLYLINE_876_">
	<path fill="#FFFFFF" d="M257.258,514.216v9.541h21.04c-0.994,5.109-2.548,10.085-4.631,14.841
		c-3.88,9.658-5.875,19.965-5.875,30.359v8.908h9.541v-12.088c0-10.602,2.018-21.113,5.948-30.979
		c2.201-6.654,3.497-13.574,3.865-20.583H257.258z"/>
</g>
<g id="LWPOLYLINE_878_">
	<path fill="#00A389" d="M338.987,588.951h171.702c2.65,0,4.771-2.135,4.771-4.771v-76.325c0-2.635-2.12-4.771-4.771-4.771H338.987
		c-2.65,0-4.771,2.136-4.771,4.771v76.325C334.217,586.816,336.337,588.951,338.987,588.951z"/>
</g>
<g id="LWPOLYLINE_891_">
	<path fill="#FFFFFF" d="M234.039,343.56h76.326c5.271,0,9.54-4.271,9.54-9.541v-76.325c0-5.257-4.27-9.526-9.54-9.526h-76.326
		c-5.264,0-9.533,4.27-9.533,9.526v76.325C224.506,339.289,228.775,343.56,234.039,343.56z"/>
</g>
<g id="LWPOLYLINE_879_">
	<path fill="#FFFFFF" d="M417.212,523.565c3.754-1.943,6.581-5.315,7.847-9.35h9.63v63.604h-9.541v-48.97l-6.979,1.267
		L417.212,523.565z"/>
</g>
<g id="LWPOLYLINE_880_">
	<polygon fill="#FFFFFF" points="361.558,577.82 396.54,577.82 396.54,568.28 371.099,568.28 371.099,549.198 388.28,549.198 
		388.28,539.658 371.099,539.658 371.099,523.757 396.54,523.757 396.54,514.216 361.558,514.216 	"/>
</g>
<g id="LWPOLYLINE_884_">
	<path fill="#FFFFFF" d="M458.657,543.133c-3.519,3.298-5.506,7.921-5.506,12.75v4.446c0,9.659,7.817,17.491,17.477,17.491
		c9.658,0,17.491-7.832,17.491-17.491v-4.446c0-4.829-1.988-9.452-5.521-12.75c2.532-2.9,3.931-6.626,3.931-10.469v-2.547
		c0-8.775-7.111-15.901-15.9-15.901c-8.775,0-15.887,7.126-15.887,15.901v2.547C454.741,536.507,456.125,540.232,458.657,543.133z"
		/>
</g>
<g id="LWPOLYLINE_881_">
	<path fill="#00A389" d="M462.677,560.329c0,4.388,3.563,7.951,7.951,7.951c4.401,0,7.95-3.563,7.95-7.951v-4.446
		c0-4.402-3.549-7.95-7.95-7.95c-4.388,0-7.951,3.548-7.951,7.95V560.329z"/>
</g>
<g id="LWPOLYLINE_897_">
	<path fill="#FFFFFF" d="M338.987,343.56h171.702c5.271,0,9.541-4.271,9.541-9.541v-76.325c0-5.257-4.271-9.526-9.541-9.526H338.987
		c-5.271,0-9.541,4.27-9.541,9.526v76.325C329.446,339.289,333.716,343.56,338.987,343.56z"/>
</g>
<g id="LWPOLYLINE_883_">
	<path fill="#00A389" d="M464.267,530.117v2.547c0,3.52,2.842,6.36,6.361,6.36c3.519,0,6.36-2.841,6.36-6.36v-2.547
		c0-3.504-2.842-6.36-6.36-6.36C467.108,523.757,464.267,526.613,464.267,530.117z"/>
</g>
<g id="LWPOLYLINE_889_">
	<polygon points="170.442,286.315 141.828,286.315 141.828,343.56 122.746,343.56 122.746,286.315 94.124,286.315 132.287,248.167 	
		"/>
</g>
<g id="LWPOLYLINE_893_">
	<path fill="#EF3E42" d="M234.039,338.789h76.326c2.628,0,4.771-2.135,4.771-4.771v-76.325c0-2.636-2.143-4.771-4.771-4.771h-76.326
		c-2.628,0-4.77,2.135-4.77,4.771v76.325C229.27,336.654,231.411,338.789,234.039,338.789z"/>
</g>
<g id="LWPOLYLINE_892_">
	<path fill="#FFFFFF" d="M257.258,264.054v9.541h21.04c-0.994,5.108-2.548,10.085-4.631,14.855
		c-3.88,9.644-5.875,19.95-5.875,30.345v8.907h9.541v-12.088c0-10.601,2.018-21.113,5.948-30.963
		c2.201-6.67,3.497-13.59,3.865-20.598H257.258z"/>
</g>
<g id="LWPOLYLINE_894_">
	<path fill="#00A389" d="M338.987,338.789h171.702c2.65,0,4.771-2.135,4.771-4.771v-76.325c0-2.636-2.12-4.771-4.771-4.771H338.987
		c-2.65,0-4.771,2.135-4.771,4.771v76.325C334.217,336.654,336.337,338.789,338.987,338.789z"/>
</g>
<g id="LWPOLYLINE_900_">
	<path fill="#FFFFFF" d="M458.657,292.97c-3.519,3.299-5.506,7.907-5.506,12.751v4.446c0,9.658,7.817,17.491,17.477,17.491
		c9.658,0,17.491-7.833,17.491-17.491v-4.446c0-4.844-1.988-9.452-5.521-12.751c2.532-2.9,3.931-6.625,3.931-10.468v-2.547
		c0-8.775-7.111-15.901-15.9-15.901c-8.775,0-15.887,7.126-15.887,15.901v2.547C454.741,286.345,456.125,290.069,458.657,292.97z"/>
</g>
<g id="LWPOLYLINE_898_">
	<polygon fill="#FFFFFF" points="361.558,327.658 396.54,327.658 396.54,318.117 371.099,318.117 371.099,299.036 388.28,299.036 
		388.28,289.495 371.099,289.495 371.099,273.595 396.54,273.595 396.54,264.054 361.558,264.054 	"/>
</g>
<g id="LWPOLYLINE_899_">
	<path fill="#FFFFFF" d="M417.212,273.403c3.754-1.944,6.581-5.301,7.847-9.35h9.63v63.604h-9.541v-48.97l-6.979,1.267
		L417.212,273.403z"/>
</g>
<g id="LWPOLYLINE_902_">
	<path fill="#00A389" d="M464.267,279.955v2.547c0,3.504,2.842,6.36,6.361,6.36c3.519,0,6.36-2.856,6.36-6.36v-2.547
		c0-3.505-2.842-6.36-6.36-6.36C467.108,273.595,464.267,276.45,464.267,279.955z"/>
</g>
<g id="LWPOLYLINE_816_">
	<path fill="#00A389" d="M462.677,310.167c0,4.388,3.563,7.95,7.951,7.95c4.401,0,7.95-3.563,7.95-7.95v-4.446
		c0-4.402-3.549-7.951-7.95-7.951c-4.388,0-7.951,3.549-7.951,7.951V310.167z"/>
</g>
</svg>
