<?xml version="1.0" encoding="UTF-8" standalone="no"?>
<!-- Generator: Adobe Illustrator 15.1.0, SVG Export Plug-In . SVG Version: 6.00 Build 0)  -->

<svg
   xmlns:dc="http://purl.org/dc/elements/1.1/"
   xmlns:cc="http://creativecommons.org/ns#"
   xmlns:rdf="http://www.w3.org/1999/02/22-rdf-syntax-ns#"
   xmlns:svg="http://www.w3.org/2000/svg"
   xmlns="http://www.w3.org/2000/svg"
   xmlns:sodipodi="http://sodipodi.sourceforge.net/DTD/sodipodi-0.dtd"
   xmlns:inkscape="http://www.inkscape.org/namespaces/inkscape"
   version="1.1"
   id="Layer_1"
   x="0px"
   y="0px"
   width="495.504"
   height="208.728"
   viewBox="0 0 495.504 208.728"
   xml:space="preserve"
   sodipodi:docname="613.svg"
   inkscape:version="0.92.5 (2060ec1f9f, 2020-04-08)"><metadata
   id="metadata643"><rdf:RDF><cc:Work
       rdf:about=""><dc:format>image/svg+xml</dc:format><dc:type
         rdf:resource="http://purl.org/dc/dcmitype/StillImage" /></cc:Work></rdf:RDF></metadata><defs
   id="defs641" /><sodipodi:namedview
   pagecolor="#ffffff"
   bordercolor="#666666"
   borderopacity="1"
   objecttolerance="10"
   gridtolerance="10"
   guidetolerance="10"
   inkscape:pageopacity="0"
   inkscape:pageshadow="2"
   inkscape:window-width="640"
   inkscape:window-height="480"
   id="namedview639"
   showgrid="false"
   inkscape:zoom="0.28028504"
   inkscape:cx="223.996"
   inkscape:cy="68.056"
   inkscape:window-x="0"
   inkscape:window-y="0"
   inkscape:window-maximized="0"
   inkscape:current-layer="Layer_1" />
<g
   id="g636"
   transform="translate(-73.503998,-280.328)">
	<rect
   x="73.503998"
   y="280.328"
   style="clip-rule:evenodd;fill:#ffd200;fill-rule:evenodd"
   width="495.504"
   height="208.728"
   id="rect588" />
	<polygon
   style="clip-rule:evenodd;fill-rule:evenodd"
   points="74.8,285.8 76.096,284.144 78.184,282.488 79.408,281.192 82.36,280.328 560.944,280.76 563.464,281.624 565.192,282.848 566.416,284.144 567.28,285.008 567.712,285.8 568.576,287.096 569.008,288.392 569.008,289.616 569.008,374.36 568.576,378.176 567.28,380.264 565.624,381.992 563.896,382.856 562.24,384.08 560.944,384.512 558.856,384.944 562.24,385.376 564.76,386.6 566.416,388.328 567.712,390.416 569.008,392.936 569.008,480.992 567.712,483.512 566.416,485.672 565.192,486.896 563.464,487.76 560.944,488.624 82.792,489.056 80.272,488.192 78.184,487.328 76.096,485.672 74.8,483.512 73.936,480.992 73.936,392.936 75.232,389.12 77.32,387.032 79.048,385.808 81.568,384.944 84.088,384.944 81.568,384.512 79.048,383.648 76.888,381.992 75.232,380.264 74.8,378.608 73.936,376.952 73.504,289.616 73.936,287.96 "
   id="polygon590" />
	<polygon
   style="clip-rule:evenodd;fill:#ffd200;fill-rule:evenodd"
   points="79.84,287.528 81.136,286.232 82,285.8 84.088,285.8 203.824,285.8 203.824,379.472 84.088,379.472 82,379.04 80.704,378.176 79.408,376.952 79.048,375.224 78.616,290.912 79.048,289.184 "
   id="polygon592" />
	<polygon
   style="clip-rule:evenodd;fill-rule:evenodd"
   points="149.032,317.048 149.032,293.864 180.64,325.04 149.032,356.288 149.032,332.672 117.784,332.672 117.784,371.84 102.232,371.84 102.232,317.048 "
   id="polygon594" />
	<polygon
   style="clip-rule:evenodd;fill:#ffd200;fill-rule:evenodd"
   points="79.84,391.712 81.136,390.848 84.088,389.984 203.824,389.984 203.824,483.944 84.088,483.944 82,483.512 80.704,482.72 79.408,480.992 79.048,480.2 78.616,395.024 79.048,393.368 "
   id="polygon596" />
	<polygon
   style="clip-rule:evenodd;fill-rule:evenodd"
   points="133.408,421.16 180.64,421.16 180.64,475.52 164.656,475.52 164.656,436.712 133.408,436.712 133.408,459.896 102.232,428.72 133.408,397.616 "
   id="polygon598" />
	<polygon
   style="clip-rule:evenodd;fill:#ffd200;fill-rule:evenodd"
   points="559.72,285.8 561.376,286.232 563.104,288.392 563.896,290.912 563.896,374.36 563.104,376.952 562.24,378.176 559.72,379.472 209.296,379.472 209.296,285.8 "
   id="polygon600" />
	<polygon
   style="clip-rule:evenodd;fill-rule:evenodd"
   points="235.072,314.528 235.072,306.464 269.2,306.464 269.2,314.528 256.168,314.528 256.168,358.808 248.104,358.808 248.104,314.528 "
   id="polygon602" />
	<polygon
   style="clip-rule:evenodd;fill-rule:evenodd"
   points="295.336,306.464 309.232,358.808 301.168,358.808 299.08,349.952 283.096,349.952 280.576,358.808 272.584,358.808 286.48,306.464 "
   id="polygon604" />
	<polygon
   style="clip-rule:evenodd;fill:#ffd520;fill-rule:evenodd"
   points="296.632,341.888 285.256,341.888 291.16,322.088 "
   id="polygon606" />
	<polygon
   style="clip-rule:evenodd;fill-rule:evenodd"
   points="328.6,324.608 341.704,358.808 354.736,324.608 354.736,358.808 362.368,358.808 362.368,306.464 353.08,306.464 341.704,336.848 329.896,306.464 320.608,306.464 320.608,358.808 328.6,358.808 "
   id="polygon608" />
	<polygon
   style="clip-rule:evenodd;fill-rule:evenodd"
   points="399.448,306.464 403.696,307.76 407.008,309.848 409.6,312.8 410.824,315.32 411.256,319.568 411.256,323.384 410.392,327.56 407.872,330.944 404.92,333.464 402.4,334.76 388.072,334.328 388.072,358.808 380.08,358.808 380.08,306.464 "
   id="polygon610" />
	<polygon
   style="clip-rule:evenodd;fill:#ffd520;fill-rule:evenodd"
   points="399.016,314.528 401.968,315.752 403.696,319.136 403.696,322.952 401.968,325.904 398.152,327.56 388.072,327.56 388.072,314.528 "
   id="polygon612" />
	<polygon
   style="clip-rule:evenodd;fill-rule:evenodd"
   points="450.928,358.808 450.928,350.744 430.264,350.744 430.264,335.192 444.16,335.192 444.16,327.56 430.264,327.56 430.264,314.528 450.928,314.528 450.928,306.464 422.2,306.464 422.2,358.808 "
   id="polygon614" />
	<polygon
   style="clip-rule:evenodd;fill-rule:evenodd"
   points="538.192,359.24 538.192,351.176 517.528,351.176 517.528,335.624 531.424,335.624 531.424,327.56 517.528,327.56 517.528,314.528 538.192,314.528 538.192,306.896 509.536,306.896 509.536,359.24 "
   id="polygon616" />
	<polygon
   style="clip-rule:evenodd;fill-rule:evenodd"
   points="484.624,306.464 488.44,307.76 491.824,309.848 494.776,312.8 496.432,318.272 496.432,323.384 495.208,327.56 493.048,330.944 489.664,333.464 487.144,334.76 496.432,358.808 488.008,358.808 478.72,334.328 472.816,334.328 472.816,358.808 465.256,358.808 465.256,306.464 "
   id="polygon618" />
	<polygon
   style="clip-rule:evenodd;fill:#ffd520;fill-rule:evenodd"
   points="484.192,314.528 486.352,315.32 488.44,318.272 488.872,322.088 487.144,325.904 484.192,327.128 482.968,327.56 472.816,327.56 472.816,314.528 "
   id="polygon620" />
	<polygon
   style="clip-rule:evenodd;fill:#ffd200;fill-rule:evenodd"
   points="559.72,483.512 560.512,483.512 561.376,483.152 562.672,481.856 563.104,480.992 563.896,479.336 563.896,396.752 563.896,395.024 563.464,393.368 562.672,391.712 561.376,390.848 559.72,389.984 209.296,389.984 209.296,483.944 "
   id="polygon622" />
	<polygon
   style="clip-rule:evenodd;fill-rule:evenodd"
   points="235.072,418.64 235.072,411.08 269.2,411.08 269.2,418.64 256.168,418.64 256.168,463.28 248.104,463.28 248.104,418.64 "
   id="polygon624" />
	<polygon
   style="clip-rule:evenodd;fill-rule:evenodd"
   points="287.344,448.52 289.432,452.768 292.384,454.424 296.2,455.288 299.512,454.424 302.464,452.768 303.688,450.68 304.984,448.52 304.984,446 304.984,411.08 312.976,411.08 312.976,447.728 311.752,452.336 309.592,456.152 306.28,459.536 302.032,462.056 297.496,462.848 294.544,462.848 289.864,462.056 285.688,459.536 282.736,456.152 280.144,452.336 279.352,447.728 278.92,411.08 286.912,411.08 "
   id="polygon626" />
	<polygon
   style="clip-rule:evenodd;fill-rule:evenodd"
   points="427.312,448.52 429.832,452.768 432.784,454.424 436.168,455.288 439.912,454.424 442.864,452.768 444.16,450.68 445.024,448.52 445.384,446 445.384,411.08 453.016,411.08 453.016,447.728 452.152,452.336 449.632,456.152 446.248,459.536 442.432,462.056 437.824,462.848 434.44,462.848 430.264,462.056 426.016,459.536 422.632,456.152 420.544,452.336 419.248,447.728 419.248,411.08 427.312,411.08 "
   id="polygon628" />
	<polygon
   style="clip-rule:evenodd;fill-rule:evenodd"
   points="350.128,411.512 353.872,412.376 357.688,414.896 360.208,417.848 361.936,422.816 361.936,428.288 360.64,432.104 358.552,435.488 355.6,438.008 353.08,439.232 361.936,463.28 353.512,463.28 344.656,439.232 338.752,439.232 338.752,463.28 330.688,463.28 330.688,411.512 "
   id="polygon630" />
	<polygon
   style="clip-rule:evenodd;fill:#ffd520;fill-rule:evenodd"
   points="349.696,419.072 351.784,420.368 353.872,422.816 354.304,426.632 352.648,430.376 349.696,432.104 348.832,432.104 338.752,432.104 338.752,419.072 "
   id="polygon632" />
	<polygon
   style="clip-rule:evenodd;fill-rule:evenodd"
   points="383.032,411.08 383.032,435.92 399.448,411.08 408.736,411.08 393.976,433.328 408.736,463.28 400.312,463.28 388.936,440.96 383.032,450.248 383.032,463.28 374.968,463.28 374.968,411.08 "
   id="polygon634" />
</g>
</svg>