<?xml version="1.0" encoding="iso-8859-1"?>
<!-- Generator: Adobe Illustrator 15.1.0, SVG Export Plug-In . SVG Version: 6.00 Build 0)  -->
<!DOCTYPE svg PUBLIC "-//W3C//DTD SVG 1.1//EN" "http://www.w3.org/Graphics/SVG/1.1/DTD/svg11.dtd">
<svg version="1.1" id="Layer_1" xmlns="http://www.w3.org/2000/svg" xmlns:xlink="http://www.w3.org/1999/xlink" x="0px" y="0px"
	 width="595px" height="842px" viewBox="0 0 595 842" style="enable-background:new 0 0 595 842;" xml:space="preserve">
<g>
	
		<rect x="65.944" y="221.792" style="fill-rule:evenodd;clip-rule:evenodd;fill:#0079C1;stroke:#0079C1;stroke-width:1.0517;stroke-miterlimit:10;" width="447.048" height="447.048"/>
	<polygon style="fill-rule:evenodd;clip-rule:evenodd;fill:#FFFFFF;" points="65.944,241.88 66.376,236.912 67.096,234.68 
		69.4,230.504 72.424,226.76 76.6,224.096 82.288,221.792 85.672,221.792 492.904,221.792 497.872,222.584 502.408,224.096 
		506.152,226.76 509.176,230.504 511.48,234.68 512.632,239.216 512.632,651.416 511.48,655.952 509.176,660.128 506.152,663.872 
		502.408,666.536 497.872,668.408 492.904,668.84 83.368,668.84 78.832,667.688 74.296,665.384 70.912,662.36 68.248,658.184 
		67.096,655.952 65.944,651.416 	"/>
	<polygon style="fill-rule:evenodd;clip-rule:evenodd;fill:#0079C1;" points="75.808,241.88 76.6,238.496 77.32,236.552 
		78.472,235.4 79.624,233.888 80.776,233.168 84.16,232.016 86.032,231.656 493.264,231.656 496.72,232.376 499.744,233.888 
		501.616,236.552 503.128,240.008 503.128,241.88 503.128,649.112 502.408,652.496 500.896,655.16 498.232,657.464 494.776,658.616 
		493.264,658.976 86.032,658.976 82.648,658.184 79.624,656.672 77.32,654.008 76.168,650.624 	"/>
	<polygon style="fill-rule:evenodd;clip-rule:evenodd;fill:#FFFFFF;" points="229.528,660.488 229.528,547.304 229.168,538.592 
		228.016,529.88 226.144,521.528 223.48,513.248 220.024,505.256 213.616,493.88 208.72,487.112 203.032,480.272 156.448,433.688 
		132.616,457.592 132.616,394.448 195.832,394.448 172.36,418.28 218.944,464.792 222.688,468.896 226.144,473.072 229.528,477.608 
		229.528,321.368 196.192,321.368 240.904,276.728 285.544,321.368 251.848,321.368 251.848,660.488 	"/>
	<polygon style="fill-rule:evenodd;clip-rule:evenodd;fill:#FFFFFF;" points="348.688,660.488 348.688,543.488 349.84,534.776 
		351.352,526.496 354.736,513.968 358.12,506.048 364.6,494.672 369.856,487.472 375.544,481.064 422.128,434.48 445.6,458.312 
		445.6,395.168 382.384,395.168 406.216,419 359.272,465.512 353.224,472.712 347.536,480.272 342.28,488.264 337.744,496.976 
		332.416,510.224 329.752,519.296 327.88,528.728 326.368,543.128 326.368,660.488 	"/>
</g>
</svg>
