<?xml version="1.0" encoding="UTF-8" standalone="no"?>
<!-- Generator: Adobe Illustrator 15.1.0, SVG Export Plug-In . SVG Version: 6.00 Build 0)  -->

<svg
   xmlns:dc="http://purl.org/dc/elements/1.1/"
   xmlns:cc="http://creativecommons.org/ns#"
   xmlns:rdf="http://www.w3.org/1999/02/22-rdf-syntax-ns#"
   xmlns:svg="http://www.w3.org/2000/svg"
   xmlns="http://www.w3.org/2000/svg"
   xmlns:sodipodi="http://sodipodi.sourceforge.net/DTD/sodipodi-0.dtd"
   xmlns:inkscape="http://www.inkscape.org/namespaces/inkscape"
   version="1.0"
   id="Layer_1"
   x="0px"
   y="0px"
   width="297.642"
   height="496.06302"
   viewBox="0 0 297.64198 496.06301"
   enable-background="new 0 0 595.28 841.89"
   xml:space="preserve"
   sodipodi:docname="622-5.svg"
   inkscape:version="0.92.5 (2060ec1f9f, 2020-04-08)"><metadata
   id="metadata968"><rdf:RDF><cc:Work
       rdf:about=""><dc:format>image/svg+xml</dc:format><dc:type
         rdf:resource="http://purl.org/dc/dcmitype/StillImage" /></cc:Work></rdf:RDF></metadata><defs
   id="defs966" /><sodipodi:namedview
   pagecolor="#ffffff"
   bordercolor="#666666"
   borderopacity="1"
   objecttolerance="10"
   gridtolerance="10"
   guidetolerance="10"
   inkscape:pageopacity="0"
   inkscape:pageshadow="2"
   inkscape:window-width="640"
   inkscape:window-height="480"
   id="namedview964"
   showgrid="false"
   inkscape:zoom="0.28032165"
   inkscape:cx="148.82101"
   inkscape:cy="248.03201"
   inkscape:window-x="0"
   inkscape:window-y="0"
   inkscape:window-maximized="0"
   inkscape:current-layer="Layer_1" />
<g
   id="LWPOLYLINE_904_"
   transform="translate(-148.819,-172.914)">
	<rect
   x="148.819"
   y="569.77002"
   width="297.642"
   height="99.207001"
   id="rect906"
   style="fill:#0079c1" />
</g>
<g
   id="LWPOLYLINE_905_"
   transform="translate(-148.819,-172.914)">
	<rect
   x="148.819"
   y="172.914"
   width="297.642"
   height="396.85599"
   id="rect909"
   style="fill:#0079c1" />
</g>
<g
   id="LWPOLYLINE_906_"
   transform="translate(-148.819,-172.914)">
	<path
   d="m 158.741,569.77 h 277.798 c 5.481,0 9.922,-4.439 9.922,-9.922 V 182.836 c 0,-5.482 -4.44,-9.922 -9.922,-9.922 H 158.741 c -5.481,0 -9.922,4.44 -9.922,9.922 v 377.012 c 0,5.482 4.441,9.922 9.922,9.922 z"
   id="path912"
   inkscape:connector-curvature="0"
   style="fill:#ffffff" />
</g>
<g
   id="LWPOLYLINE_907_"
   transform="translate(-148.819,-172.914)">
	<path
   d="m 158.741,563.156 h 277.798 c 1.822,0 3.308,-1.486 3.308,-3.309 V 182.836 c 0,-1.822 -1.485,-3.308 -3.308,-3.308 H 158.741 c -1.83,0 -3.308,1.485 -3.308,3.308 v 377.012 c 0.001,1.822 1.478,3.308 3.308,3.308 z"
   id="path915"
   inkscape:connector-curvature="0"
   style="fill:#0079c1" />
</g>
<g
   id="LWPOLYLINE_908_"
   transform="translate(-148.819,-172.914)">
	<path
   d="m 158.741,668.977 h 277.798 c 5.481,0 9.922,-4.441 9.922,-9.922 v -79.363 c 0,-5.48 -4.44,-9.922 -9.922,-9.922 H 158.741 c -5.481,0 -9.922,4.441 -9.922,9.922 v 79.363 c 0,5.48 4.441,9.922 9.922,9.922 z"
   id="path918"
   inkscape:connector-curvature="0"
   style="fill:#ffffff" />
</g>
<g
   id="LWPOLYLINE_910_"
   transform="translate(-148.819,-172.914)">
	<path
   d="m 158.741,662.361 h 277.798 c 1.822,0 3.308,-1.484 3.308,-3.307 v -79.363 c 0,-1.836 -1.485,-3.307 -3.308,-3.307 H 158.741 c -1.83,0 -3.308,1.471 -3.308,3.307 v 79.363 c 0.001,1.823 1.478,3.307 3.308,3.307 z"
   id="path921"
   inkscape:connector-curvature="0"
   style="fill:#0079c1" />
</g>
<g
   id="LWPOLYLINE_911_"
   transform="translate(-148.819,-172.914)">
	<polygon
   points="214.959,520.266 254.647,480.594 224.882,480.594 224.882,179.528 205.045,179.528 205.045,480.594 175.278,480.594 "
   id="polygon924"
   style="fill:#ffffff" />
</g>
<g
   id="LWPOLYLINE_912_"
   transform="translate(-148.819,-172.914)">
	<path
   d="m 274.438,179.528 -0.65,85.028 4.303,93.173 c 1.707,8.973 10.366,14.868 19.339,13.153 6.66,-1.271 11.874,-6.477 13.146,-13.153 l 4.302,-93.173 -0.65,-85.028 z"
   id="path927"
   inkscape:connector-curvature="0"
   style="fill:#ffffff" />
</g>
<g
   id="LWPOLYLINE_913_"
   transform="translate(-148.819,-172.914)">
	<polygon
   points="370.406,262.091 370.406,563.156 390.235,563.156 390.235,262.091 420.002,262.091 380.313,222.402 340.64,262.091 "
   id="polygon930"
   style="fill:#ffffff" />
</g>
<g
   id="LWPOLYLINE_918_"
   transform="translate(-148.819,-172.914)">
	<path
   d="m 210.58,630.527 c 0,7.535 6.109,13.645 13.643,13.645 7.534,0 13.644,-6.109 13.644,-13.645 v -2.969 c 0,-4.027 -1.776,-7.84 -4.862,-10.443 2.328,-2.48 3.622,-5.758 3.622,-9.156 v -0.98 c 0,-6.859 -5.551,-12.402 -12.403,-12.402 -6.852,0 -12.402,5.543 -12.402,12.402 v 0.98 h 7.441 v -0.98 c 0,-2.756 2.221,-4.961 4.961,-4.961 2.741,0 4.961,2.205 4.961,4.961 v 0.98 c 0,3.291 -2.664,5.955 -5.956,5.955 h -0.987 v 6.953 h 1.982 c 3.423,0 6.201,2.771 6.201,6.201 v 3.459 c 0,3.432 -2.778,6.203 -6.201,6.203 -3.422,0 -6.201,-2.771 -6.201,-6.203 z"
   id="path933"
   inkscape:connector-curvature="0"
   style="fill:#ffffff" />
</g>
<g
   id="LWPOLYLINE_919_"
   transform="translate(-148.819,-172.914)">
	<path
   d="m 250.269,630.527 c 0,7.535 6.102,13.645 13.644,13.645 7.533,0 13.635,-6.109 13.635,-13.645 v -22.324 c 0,-7.533 -6.102,-13.627 -13.635,-13.627 -7.542,0 -13.644,6.094 -13.644,13.627 z"
   id="path936"
   inkscape:connector-curvature="0"
   style="fill:#ffffff" />
</g>
<g
   id="LWPOLYLINE_921_"
   transform="translate(-148.819,-172.914)">
	<path
   d="m 290.447,630.527 c 0,7.535 6.109,13.645 13.643,13.645 7.534,0 13.644,-6.109 13.644,-13.645 v -22.324 c 0,-7.533 -6.109,-13.627 -13.644,-13.627 -7.533,0 -13.643,6.094 -13.643,13.627 z"
   id="path939"
   inkscape:connector-curvature="0"
   style="fill:#ffffff" />
</g>
<g
   id="LWPOLYLINE_923_"
   transform="translate(-148.819,-172.914)">
	<path
   d="m 364.159,609.076 c -1.593,-1.363 -3.645,-2.098 -5.758,-2.098 -2.985,0.367 -5.864,1.377 -8.421,2.971 v -2.971 h -7.442 v 37.193 h 7.442 V 617.88 c 0,-2.742 2.205,-4.961 4.961,-4.961 2.726,0 4.961,2.219 4.961,4.961 v 26.291 h 7.441 V 617.88 c 0,-2.742 2.205,-4.961 4.961,-4.961 2.726,0 4.962,2.219 4.962,4.961 v 26.291 h 7.441 l -0.016,-28.344 c -0.337,-4.777 -4.149,-8.559 -8.927,-8.85 -3.98,-0.52 -8.037,0.216 -11.605,2.099 z"
   id="path942"
   inkscape:connector-curvature="0"
   style="fill:#ffffff" />
</g>
<g
   id="LWPOLYLINE_914_"
   transform="translate(-148.819,-172.914)">
	<polygon
   points="304.358,186.112 304.305,179.636 284.36,179.636 284.154,206.171 "
   id="polygon945"
   style="fill:#0079c1" />
</g>
<g
   id="LWPOLYLINE_915_"
   transform="translate(-148.819,-172.914)">
	<polygon
   points="283.748,259.488 304.756,238.617 304.465,199.985 284.047,220.258 "
   id="polygon948"
   style="fill:#0079c1" />
</g>
<g
   id="LWPOLYLINE_916_"
   transform="translate(-148.819,-172.914)">
	<polygon
   points="285.831,310.339 303.646,292.638 304.955,264.357 304.863,252.505 284.116,273.115 "
   id="polygon951"
   style="fill:#0079c1" />
</g>
<g
   id="LWPOLYLINE_917_"
   transform="translate(-148.819,-172.914)">
	<path
   d="m 286.451,323.706 1.386,32.17 c 0.681,3.599 4.149,5.941 7.732,5.252 2.672,-0.49 4.754,-2.588 5.26,-5.252 l 2.144,-48.585 z"
   id="path954"
   inkscape:connector-curvature="0"
   style="fill:#0079c1" />
</g>
<g
   id="LWPOLYLINE_920_"
   transform="translate(-148.819,-172.914)">
	<path
   d="m 257.71,630.527 c 0,3.432 2.771,6.203 6.202,6.203 3.422,0 6.193,-2.771 6.193,-6.203 v -22.324 c 0,-3.414 -2.771,-6.186 -6.193,-6.186 -3.431,0 -6.202,2.771 -6.202,6.186 z"
   id="path957"
   inkscape:connector-curvature="0"
   style="fill:#0079c1" />
</g>
<g
   id="LWPOLYLINE_922_"
   transform="translate(-148.819,-172.914)">
	<path
   d="m 297.889,630.527 c 0,3.432 2.771,6.203 6.201,6.203 3.423,0 6.201,-2.771 6.201,-6.203 v -22.324 c 0,-3.414 -2.778,-6.186 -6.201,-6.186 -3.43,0 -6.201,2.771 -6.201,6.186 z"
   id="path960"
   inkscape:connector-curvature="0"
   style="fill:#0079c1" />
</g>
</svg>