<?xml version="1.0" encoding="UTF-8" standalone="no"?>
<!-- Generator: Adobe Illustrator 15.1.0, SVG Export Plug-In . SVG Version: 6.00 Build 0)  -->

<svg
   xmlns:dc="http://purl.org/dc/elements/1.1/"
   xmlns:cc="http://creativecommons.org/ns#"
   xmlns:rdf="http://www.w3.org/1999/02/22-rdf-syntax-ns#"
   xmlns:svg="http://www.w3.org/2000/svg"
   xmlns="http://www.w3.org/2000/svg"
   xmlns:sodipodi="http://sodipodi.sourceforge.net/DTD/sodipodi-0.dtd"
   xmlns:inkscape="http://www.inkscape.org/namespaces/inkscape"
   version="1.0"
   id="Layer_1"
   x="0px"
   y="0px"
   width="496.064"
   height="661.45605"
   viewBox="0 0 496.06397 661.45604"
   enable-background="new 0 0 595.28 841.89"
   xml:space="preserve"
   sodipodi:docname="622-3.svg"
   inkscape:version="0.92.5 (2060ec1f9f, 2020-04-08)"><metadata
   id="metadata852"><rdf:RDF><cc:Work
       rdf:about=""><dc:format>image/svg+xml</dc:format><dc:type
         rdf:resource="http://purl.org/dc/dcmitype/StillImage" /></cc:Work></rdf:RDF></metadata><defs
   id="defs850" /><sodipodi:namedview
   pagecolor="#ffffff"
   bordercolor="#666666"
   borderopacity="1"
   objecttolerance="10"
   gridtolerance="10"
   guidetolerance="10"
   inkscape:pageopacity="0"
   inkscape:pageshadow="2"
   inkscape:window-width="640"
   inkscape:window-height="480"
   id="namedview848"
   showgrid="false"
   inkscape:zoom="0.28032165"
   inkscape:cx="248.03201"
   inkscape:cy="330.72803"
   inkscape:window-x="0"
   inkscape:window-y="0"
   inkscape:window-maximized="0"
   inkscape:current-layer="Layer_1" />
<g
   id="LWPOLYLINE_5_"
   transform="translate(-49.608,-90.217)">
	<rect
   x="49.608002"
   y="586.28003"
   width="496.06299"
   height="165.39301"
   id="rect799"
   style="fill:#0079c1" />
</g>
<g
   id="LWPOLYLINE_4335_"
   transform="translate(-49.608,-90.217)">
	<path
   d="M 520.903,586.28 H 74.415 c -13.705,0 -24.806,11.121 -24.806,24.806 v 115.781 c 0,13.704 11.102,24.806 24.806,24.806 h 446.47 c 13.686,0 24.787,-11.102 24.787,-24.806 0,-0.02 0,-115.8 0,-115.8 0,-13.685 -11.102,-24.767 -24.769,-24.787 z"
   id="path802"
   inkscape:connector-curvature="0"
   style="fill:#ffffff" />
</g>
<g
   id="LWPOLYLINE_1393_"
   transform="translate(-49.608,-90.217)">
	<rect
   x="49.608002"
   y="90.217003"
   width="496.06299"
   height="496.06299"
   id="rect805"
   style="fill:#0079c1" />
</g>
<g
   id="LWPOLYLINE_1377_"
   transform="translate(-49.608,-90.217)">
	<path
   d="m 74.242,594.549 c -9.063,0.096 -16.365,7.465 -16.365,16.537 v 115.781 c 0,9.13 7.408,16.537 16.538,16.537 h 446.47 c 9.13,0 16.518,-7.407 16.518,-16.537 V 611.086 c -0.152,-9.13 -7.561,-16.479 -16.69,-16.537 z"
   id="path808"
   inkscape:connector-curvature="0"
   style="fill:#0079c1" />
</g>
<g
   id="LWPOLYLINE_1396_"
   transform="translate(-49.608,-90.217)">
	<path
   d="m 66.146,586.28 h 463.007 c 9.13,0 16.519,-7.407 16.519,-16.537 V 106.755 c 0,-9.149 -7.389,-16.538 -16.519,-16.538 H 66.146 c -9.13,0 -16.538,7.389 -16.538,16.538 v 462.988 c 0,9.13 7.408,16.537 16.538,16.537 z"
   id="path811"
   inkscape:connector-curvature="0"
   style="fill:#ffffff" />
</g>
<g
   id="LWPOLYLINE_4334_"
   transform="translate(-49.608,-90.217)">
	<path
   d="m 66.146,578.012 h 463.007 c 4.556,0 8.249,-3.694 8.249,-8.269 V 106.755 c 0,-4.575 -3.693,-8.27 -8.249,-8.27 H 115.748 66.146 c -4.575,0 -8.269,3.694 -8.269,8.27 v 462.988 c 0,4.574 3.694,8.269 8.269,8.269 z"
   id="path814"
   inkscape:connector-curvature="0"
   style="fill:#0079c1" />
</g>
<g
   id="LWPOLYLINE_4339_"
   transform="translate(-49.608,-90.217)">
	<path
   d="m 230.39,699.534 v 12.384 l 7.503,-8.709 c 2.029,-1.588 2.402,-4.498 0.833,-6.546 -1.579,-2.028 -4.498,-2.393 -6.527,-0.823 -1.139,0.881 -1.809,2.24 -1.809,3.694 z"
   id="path817"
   inkscape:connector-curvature="0"
   style="fill:#ffffff" />
</g>
<g
   id="LWPOLYLINE_4331_"
   transform="translate(-49.608,-90.217)">
	<polygon
   points="248.038,201.825 297.649,152.213 347.262,201.825 310.053,201.825 310.053,578.012 285.247,578.012 285.247,201.825 "
   id="polygon820"
   style="fill:#ffffff" />
</g>
<g
   id="LWPOLYLINE_4332_"
   transform="translate(-49.608,-90.217)">
	<polygon
   points="417.526,201.825 467.139,152.213 516.75,201.825 479.541,201.825 479.541,578.012 454.735,578.012 454.735,201.825 "
   id="polygon823"
   style="fill:#ffffff" />
</g>
<g
   id="LWPOLYLINE_4333_"
   transform="translate(-49.608,-90.217)">
	<polygon
   points="177.754,474.673 128.151,524.284 78.549,474.673 115.748,474.673 115.748,98.485 140.554,98.485 140.554,474.673 "
   id="polygon826"
   style="fill:#ffffff" />
</g>
<g
   id="LWPOLYLINE_4336_"
   transform="translate(-49.608,-90.217)">
	<polygon
   points="332.025,704.453 322.656,704.435 315.183,683.093 310.254,690.5 310.254,704.435 300.951,704.435 300.951,642.438 310.254,642.438 310.254,676.7 322.656,657.942 331.949,657.942 321.346,673.867 "
   id="polygon829"
   style="fill:#ffffff" />
</g>
<g
   id="LWPOLYLINE_4337_"
   transform="translate(-49.608,-90.217)">
	<path
   d="m 392.72,704.435 v -35.43 c -0.421,-5.952 -5.187,-10.699 -11.158,-11.063 -4.977,-0.651 -10.049,0.268 -14.509,2.622 -2.01,-1.685 -4.556,-2.622 -7.197,-2.622 -3.731,0.459 -7.33,1.723 -10.526,3.713 v -3.713 h -9.303 v 46.492 h 9.303 v -32.846 c 0,-3.445 2.756,-6.201 6.201,-6.201 3.407,0 6.201,2.756 6.201,6.201 v 32.846 h 9.283 v -32.846 c 0,-3.445 2.775,-6.201 6.202,-6.201 3.426,0 6.201,2.756 6.201,6.201 v 32.846 h 9.302 z"
   id="path832"
   inkscape:connector-curvature="0"
   style="fill:#ffffff" />
</g>
<g
   id="LWPOLYLINE_4338_"
   transform="translate(-49.608,-90.217)">
	<path
   d="M 273.398,654.842 H 253.55 l -2.469,24.786 8.671,1.991 c 1.177,-1.551 3.015,-2.47 4.967,-2.47 3.417,0 6.202,2.775 6.202,6.202 v 5.455 c 0,3.426 -2.785,6.201 -6.202,6.201 -3.426,0 -6.202,-2.775 -6.202,-6.201 h -7.436 c 0,7.541 6.106,13.628 13.638,13.628 7.532,0 13.638,-6.087 13.638,-13.628 v -5.455 c 0,-7.542 -6.106,-13.647 -13.638,-13.647 -1.904,0 -3.78,0.402 -5.522,1.168 l 1.053,-10.585 h 13.647 z"
   id="path835"
   inkscape:connector-curvature="0"
   style="fill:#ffffff" />
</g>
<g
   id="LWPOLYLINE_4340_"
   transform="translate(-49.608,-90.217)">
	<path
   d="m 219.614,642.438 v 61.996 h -9.302 v -47.736 l -6.814,1.244 -0.938,-6.394 c 3.666,-1.895 6.422,-5.187 7.656,-9.11 z"
   id="path838"
   inkscape:connector-curvature="0"
   style="fill:#ffffff" />
</g>
<g
   id="LWPOLYLINE_4341_"
   transform="translate(-49.608,-90.217)">
	<polygon
   points="151.924,664.929 114.715,627.72 77.515,664.929 105.413,664.929 105.413,720.742 124.017,720.742 124.017,664.929 "
   id="polygon841"
   style="fill:#ffffff" />
</g>
<g
   id="LWPOLYLINE_4342_"
   transform="translate(-49.608,-90.217)">
	<polygon
   points="480.575,627.72 443.365,664.929 471.272,664.929 471.272,720.742 489.877,720.742 489.877,664.929 517.784,664.929 "
   id="polygon844"
   style="fill:#ffffff" />
</g>
</svg>