<?xml version="1.0" encoding="utf-8"?>
<!-- Generator: Adobe Illustrator 15.1.0, SVG Export Plug-In . SVG Version: 6.00 Build 0)  -->
<!DOCTYPE svg PUBLIC "-//W3C//DTD SVG 1.0//EN" "http://www.w3.org/TR/2001/REC-SVG-20010904/DTD/svg10.dtd">
<svg version="1.0" id="Layer_1" xmlns="http://www.w3.org/2000/svg" xmlns:xlink="http://www.w3.org/1999/xlink" x="0px" y="0px"
	 width="595.28px" height="841.89px" viewBox="0 0 595.28 841.89" enable-background="new 0 0 595.28 841.89" xml:space="preserve">
<g id="LWPOLYLINE_2440_">
	<rect x="49.608" y="172.919" fill="#0079C1" width="496.063" height="496.051"/>
</g>
<g id="LWPOLYLINE_2441_">
	<path fill="#FFFFFF" d="M66.145,668.971h462.99c9.123,0,16.537-7.402,16.537-16.537V189.45c0-9.129-7.414-16.53-16.537-16.53
		H66.145c-9.136,0-16.537,7.401-16.537,16.53v462.984C49.608,661.568,57.009,668.971,66.145,668.971z"/>
</g>
<g id="LWPOLYLINE_3582_">
	<path fill="#0079C1" d="M59.255,190.828v460.227c0,4.568,3.7,8.27,8.269,8.27h217.708h169.501h24.805h48.22
		c4.568,0,8.269-3.701,8.269-8.27V190.828c0-4.562-3.7-8.262-8.269-8.262H115.755H67.523
		C62.955,182.566,59.255,186.266,59.255,190.828z"/>
</g>
<g id="LWPOLYLINE_2442_">
	
		<rect x="392.72" y="225.273" fill="none" stroke="#3D5AA9" stroke-width="0.7087" stroke-linecap="round" stroke-linejoin="round" stroke-miterlimit="10" width="124.013" height="124.019"/>
</g>
<g id="LWPOLYLINE_2443_">
	<path fill="#FFFFFF" d="M403.744,349.292h101.964c6.086,0,11.024-4.932,11.024-11.023V236.297c0-6.086-4.938-11.024-11.024-11.024
		H403.744c-6.099,0-11.024,4.938-11.024,11.024v101.971C392.72,344.36,397.646,349.292,403.744,349.292z"/>
</g>
<g id="LWPOLYLINE_2444_">
	<path fill="#0079C1" d="M403.744,343.78h101.964c3.05,0,5.512-2.469,5.512-5.512V236.297c0-3.037-2.462-5.512-5.512-5.512H403.744
		c-3.037,0-5.512,2.476-5.512,5.512v101.971C398.232,341.311,400.707,343.78,403.744,343.78z"/>
</g>
<g id="CIRCLE_163_">
	<path fill="#FFFFFF" d="M431.586,305.475c0-5.174-4.211-9.372-9.378-9.372c-5.168,0-9.379,4.198-9.379,9.372
		s4.211,9.372,9.379,9.372C427.375,314.847,431.586,310.649,431.586,305.475L431.586,305.475z"/>
</g>
<g id="CIRCLE_164_">
	<path fill="#FFFFFF" d="M492.757,305.475c0-5.174-4.186-9.372-9.366-9.372s-9.365,4.198-9.365,9.372s4.185,9.372,9.365,9.372
		S492.757,310.649,492.757,305.475L492.757,305.475z"/>
</g>
<g id="LWPOLYLINE_2445_">
	<path fill="#FFFFFF" d="M433.232,306.03c0.293-6.086-4.402-11.267-10.489-11.561c-6.086-0.3-11.267,4.39-11.56,10.482
		c-0.013,0.357-0.013,0.721,0,1.078h-6.623v-17.641l5.513-14.884h24.805v24.257h3.866V263.59h65.586v30.866h-9.366v4.402h9.366
		v7.171h-9.915c0.294-6.086-4.401-11.267-10.488-11.561c-6.086-0.3-11.267,4.39-11.561,10.482c-0.025,0.357-0.025,0.721,0,1.078
		H433.232z"/>
</g>
<g id="CIRCLE_165_">
	
		<path fill="none" stroke="#3D5AA9" stroke-width="0.7087" stroke-linecap="round" stroke-linejoin="round" stroke-miterlimit="10" d="
		M426.648,305.475c0-2.457-1.979-4.447-4.44-4.447c-2.463,0-4.453,1.99-4.453,4.447c0,2.456,1.99,4.447,4.453,4.447
		C424.67,309.922,426.648,307.931,426.648,305.475L426.648,305.475z"/>
</g>
<g id="CIRCLE_166_">
	
		<path fill="none" stroke="#3D5AA9" stroke-width="0.7087" stroke-linecap="round" stroke-linejoin="round" stroke-miterlimit="10" d="
		M487.831,305.475c0-2.457-1.99-4.447-4.44-4.447c-2.449,0-4.44,1.99-4.44,4.447c0,2.456,1.991,4.447,4.44,4.447
		C485.841,309.922,487.831,307.931,487.831,305.475L487.831,305.475z"/>
</g>
<g id="LWPOLYLINE_2446_">
	<polygon fill="#0079C1" points="410.252,288.389 413.225,278.469 426.125,278.469 426.125,288.389 	"/>
</g>
<g id="LWPOLYLINE_3579_">
	<polygon fill="#FFFFFF" points="285.231,660.824 285.231,284.705 248.036,284.705 297.634,234.919 347.244,284.705 
		310.036,284.705 310.036,660.824 	"/>
</g>
<g id="LWPOLYLINE_3580_">
	<polygon fill="#FFFFFF" points="140.561,179.566 140.561,557.009 177.768,557.009 128.158,606.971 78.548,557.009 115.755,557.009 
		115.755,179.566 	"/>
</g>
<g id="LWPOLYLINE_3581_">
	<polygon fill="#FFFFFF" points="454.732,663.324 454.732,424.396 417.524,424.396 467.135,374.09 516.732,424.396 479.537,424.396 
		479.537,663.324 	"/>
</g>
</svg>
