<?xml version="1.0" encoding="iso-8859-1"?>
<!-- Generator: Adobe Illustrator 15.1.0, SVG Export Plug-In . SVG Version: 6.00 Build 0)  -->
<!DOCTYPE svg PUBLIC "-//W3C//DTD SVG 1.1//EN" "http://www.w3.org/Graphics/SVG/1.1/DTD/svg11.dtd">
<svg version="1.1" id="Layer_1" xmlns="http://www.w3.org/2000/svg" xmlns:xlink="http://www.w3.org/1999/xlink" x="0px" y="0px"
	 width="595px" height="842px" viewBox="0 0 595 842" style="enable-background:new 0 0 595 842;" xml:space="preserve">
<g>
	
		<rect x="51.76" y="207.104" style="fill-rule:evenodd;clip-rule:evenodd;fill:#0079C1;stroke:#0079C1;stroke-width:1.4145;stroke-miterlimit:10;" width="528.12" height="368.064"/>
	<polygon style="fill-rule:evenodd;clip-rule:evenodd;fill:#FFFFFF;" points="52.192,224.312 52.192,220.28 53.92,216.248 
		56.152,213.152 59.32,210.416 63.352,208.184 67.384,207.32 562.888,207.32 566.92,207.752 570.52,209.12 574.12,211.352 
		576.784,214.448 578.584,218.48 579.88,224.312 579.88,559.904 578.584,563.936 576.784,567.536 574.12,570.632 570.52,572.864 
		566.92,574.664 67.384,574.664 61.12,572.864 57.952,570.632 55.288,567.536 53.056,563.936 52.192,557.672 	"/>
	<polygon style="fill-rule:evenodd;clip-rule:evenodd;fill:#0079C1;" points="60.328,224.096 61.624,220.136 63.424,217.4 
		65.656,216.104 68.824,215.6 562.888,215.6 565.624,216.104 569.152,218.768 570.952,221.432 571.384,224.096 571.384,557.672 
		570.952,560.84 569.152,563.504 565.624,565.736 562.888,566.6 71.056,566.6 67.456,566.168 64.792,565.304 62.056,563.504 
		60.76,560.84 59.824,556.376 	"/>
	<polygon style="fill-rule:evenodd;clip-rule:evenodd;fill:#FFFFFF;" points="103.24,343.976 103.24,258.584 118.432,258.584 
		137.224,308.192 156.016,258.584 171.64,258.584 171.64,343.976 158.68,343.976 158.68,288.536 137.224,343.976 115.768,288.536 
		115.768,343.976 	"/>
	<rect x="200.728" y="258.584" style="fill-rule:evenodd;clip-rule:evenodd;fill:#FFFFFF;" width="12.96" height="85.392"/>
	<polygon style="fill-rule:evenodd;clip-rule:evenodd;fill:#FFFFFF;" points="242.776,343.976 242.776,258.584 255.304,258.584 
		255.304,299.264 283.024,258.584 298.216,258.584 273.592,295.232 298.216,343.976 283.888,343.976 265.6,307.328 255.304,322.52 
		255.304,343.976 	"/>
	<polygon style="fill-rule:evenodd;clip-rule:evenodd;fill:#FFFFFF;" points="315.136,343.976 315.136,258.584 328.096,258.584 
		328.096,299.264 355.384,258.584 371.08,258.584 346.456,295.232 371.08,343.976 356.32,343.976 338.392,307.328 328.096,322.52 
		328.096,343.976 	"/>
	<polygon style="fill-rule:evenodd;clip-rule:evenodd;fill:#FFFFFF;" points="387.136,343.976 434.08,343.976 434.08,331.016 
		400.096,331.016 400.096,305.528 422.92,305.528 422.92,292.568 400.096,292.568 400.096,271.112 434.08,271.112 434.08,258.584 
		387.136,258.584 	"/>
	<polygon style="fill-rule:evenodd;clip-rule:evenodd;fill:#FFFFFF;" points="458.272,258.584 471.232,258.584 471.232,331.016 
		501.184,331.016 501.184,343.976 458.272,343.976 	"/>
	<rect x="515.512" y="258.584" style="fill-rule:evenodd;clip-rule:evenodd;fill:#FFFFFF;" width="12.96" height="85.392"/>
	<polygon style="fill-rule:evenodd;clip-rule:evenodd;fill:#FFFFFF;" points="185.968,523.688 185.968,433.832 263.368,433.832 
		263.368,395.384 314.272,446.792 263.368,497.768 263.368,459.32 211.888,459.32 211.888,523.688 	"/>
	<g>
		<rect x="400.096" y="395.384" style="fill-rule:evenodd;clip-rule:evenodd;fill:#EF3E42;" width="128.376" height="128.304"/>
		<path style="fill-rule:evenodd;clip-rule:evenodd;fill:#FFFFFF;" d="M410.608,395.456h107.64c5.688,0,10.368,4.68,10.368,10.368
			v107.568c0,5.688-4.68,10.368-10.368,10.368h-107.64c-5.76,0-10.368-4.68-10.368-10.368V405.824
			C400.24,400.136,404.848,395.456,410.608,395.456z"/>
		<g>
			<polygon style="fill-rule:evenodd;clip-rule:evenodd;fill:#EF3E42;" points="406.792,408.416 407.296,405.68 408.592,403.88 
				410.392,402.152 413.056,401.648 515.512,401.648 518.176,402.152 519.976,403.88 521.344,405.68 521.776,408.416 
				521.776,510.728 521.344,513.392 519.976,515.192 518.176,516.56 515.512,517.424 413.056,517.424 410.824,516.56 
				408.592,515.624 407.296,513.392 406.792,511.16 			"/>
			<polygon style="fill-rule:evenodd;clip-rule:evenodd;fill:#FFFFFF;" points="444.808,416.912 479.296,416.912 480.16,429.8 
				456.472,429.8 454.672,448.088 457.336,447.224 461.872,445.856 466.768,445.856 469.432,446.36 471.664,447.224 
				473.896,448.088 476.128,449.024 478.36,450.32 480.16,452.12 481.96,453.92 484.624,457.52 486.856,462.416 487.792,466.88 
				487.792,481.208 486.856,485.24 485.992,488.336 483.328,492.872 480.16,496.4 476.128,499.136 471.664,501.368 466.768,502.232 
				461.872,502.232 456.904,501.368 452.44,499.136 448.408,496.4 445.312,492.872 442.576,488.336 441.28,483.872 440.848,478.976 
				453.808,478.976 454.24,482.072 455.608,485.24 457.84,487.472 460.936,489.272 462.736,489.272 464.104,489.704 
				467.632,489.272 470.8,487.472 473.032,485.24 474.832,480.776 474.832,467.816 473.896,464.648 471.664,461.984 
				469.432,460.184 465.832,458.816 462.736,458.816 459.568,459.752 456.904,461.984 455.608,462.848 440.848,459.752 			"/>
		</g>
	</g>
</g>
</svg>
