<?xml version="1.0" encoding="iso-8859-1"?>
<!-- Generator: Adobe Illustrator 15.1.0, SVG Export Plug-In . SVG Version: 6.00 Build 0)  -->
<!DOCTYPE svg PUBLIC "-//W3C//DTD SVG 1.1//EN" "http://www.w3.org/Graphics/SVG/1.1/DTD/svg11.dtd">
<svg version="1.1" id="Layer_1" xmlns="http://www.w3.org/2000/svg" xmlns:xlink="http://www.w3.org/1999/xlink" x="0px" y="0px"
	 width="595px" height="842px" viewBox="0 0 595 842" style="enable-background:new 0 0 595 842;" xml:space="preserve">
<g>
	
		<rect x="13.96" y="268.376" style="fill-rule:evenodd;clip-rule:evenodd;fill:#0079C1;stroke:#0079C1;stroke-width:1.3467;stroke-miterlimit:10;" width="572.472" height="91.08"/>
	<polygon style="fill-rule:evenodd;clip-rule:evenodd;fill:#FFFFFF;" points="13.96,277.592 14.464,275.144 14.968,273.2 
		15.4,272.264 16.408,271.256 17.848,269.816 19.792,268.808 23.176,268.376 577.72,268.376 580.6,268.808 582.544,269.816 
		584.488,271.256 585.496,273.2 586.432,275.144 586.432,351.248 585.928,353.192 584.488,356.072 582.544,357.584 580.6,358.52 
		578.656,359.024 22.24,359.024 18.784,358.016 17.344,357.08 15.4,355.64 14.464,353.192 13.96,351.248 	"/>
	<polygon style="fill-rule:evenodd;clip-rule:evenodd;fill:#0079C1;" points="18.784,277.592 18.784,275.648 19.792,274.64 
		20.728,273.2 22.24,272.696 127.864,272.696 127.864,354.632 22.24,354.632 20.728,354.128 19.792,353.192 18.784,351.752 
		18.784,350.312 	"/>
	<polygon style="fill-rule:evenodd;clip-rule:evenodd;fill:#FFFFFF;" points="66.304,347.864 66.304,306.68 46,306.68 
		73.144,279.536 100.72,306.68 79.912,306.68 79.912,347.864 	"/>
	<g>
		<rect x="132.256" y="272.696" style="fill-rule:evenodd;clip-rule:evenodd;fill:#0079C1;" width="225.36" height="81.936"/>
		<polygon style="fill-rule:evenodd;clip-rule:evenodd;fill:#FFFFFF;" points="145.36,279.536 201.592,279.536 203.536,280.472 
			204.976,281.408 206.416,282.92 207.424,284.36 207.424,286.304 207.424,341.096 206.92,343.976 205.912,345.416 204.472,346.856 
			202.528,347.864 200.584,347.864 146.296,347.864 144.352,347.864 142.408,346.856 140.968,345.416 140.032,343.976 
			139.528,341.096 139.528,285.296 140.032,283.856 140.968,281.912 142.408,280.976 143.416,280.472 		"/>
		<polygon style="fill-rule:evenodd;clip-rule:evenodd;fill:#EF3E42;" points="142.912,286.304 142.912,285.296 143.92,283.856 
			144.856,283.352 146.296,282.92 200.584,282.92 202.096,283.352 203.032,283.856 204.04,285.296 204.04,286.304 204.04,341.096 
			204.04,342.536 203.032,343.472 202.096,343.976 200.584,344.48 146.296,344.48 144.856,344.48 143.92,343.472 142.912,342.536 
			142.912,341.096 		"/>
		<polygon style="fill-rule:evenodd;clip-rule:evenodd;fill:#FFFFFF;" points="162.352,297.896 162.352,291.128 184.096,291.128 
			183.16,296.96 182.224,302.288 180.712,307.112 179.272,311 178.336,314.384 177.328,317.336 177.328,319.712 176.824,323.6 
			176.824,327.992 176.824,336.704 169.552,336.704 169.552,330.44 170.056,325.04 170.56,319.712 171.064,317.336 172.504,312.44 
			173.944,309.56 174.952,306.68 175.888,303.728 176.824,300.848 177.328,297.896 		"/>
		<polygon style="fill-rule:evenodd;clip-rule:evenodd;fill:#FFFFFF;" points="214.696,285.296 215.128,283.352 216.136,281.912 
			217.576,280.976 219.52,279.968 221.464,279.536 344.008,279.536 345.952,279.968 347.896,280.976 349.408,281.912 
			350.344,283.352 350.848,286.304 350.848,342.032 350.344,343.976 349.408,345.416 347.896,346.856 345.952,347.864 
			344.008,347.864 221.464,347.864 219.52,347.864 217.576,346.856 216.136,345.416 215.128,343.976 214.696,342.032 		"/>
		<polygon style="fill-rule:evenodd;clip-rule:evenodd;fill:#00A389;" points="217.576,341.096 217.576,286.304 218.08,285.296 
			218.584,283.856 219.52,283.352 220.024,283.352 221.464,282.92 344.008,282.92 345.52,283.352 346.456,283.856 346.96,285.296 
			347.464,286.304 347.464,341.096 346.96,342.536 346.456,343.472 345.52,344.48 344.008,344.48 221.464,344.48 220.024,344.48 
			218.584,343.472 218.08,342.536 		"/>
		<g>
			<polygon style="fill-rule:evenodd;clip-rule:evenodd;fill:#FFFFFF;" points="241.336,291.128 241.336,336.704 266.536,336.704 
				266.536,329.936 248.608,329.936 248.608,316.328 260.704,316.328 260.704,309.56 248.608,309.56 248.608,297.896 
				266.536,297.896 266.536,291.128 			"/>
			<polygon style="fill-rule:evenodd;clip-rule:evenodd;fill:#FFFFFF;" points="281.08,336.704 281.08,301.352 276.256,302.288 
				275.248,297.896 277.192,296.456 279.136,295.016 280.144,293.072 281.08,291.128 287.848,291.128 287.848,336.704 			"/>
			<polygon style="fill-rule:evenodd;clip-rule:evenodd;fill:#FFFFFF;" points="302.824,312.008 301.384,310.064 300.376,308.12 
				299.944,305.672 299.944,302.792 299.944,300.344 300.88,297.896 301.888,295.952 303.832,294.08 305.776,292.568 
				308.656,291.632 311.104,291.128 313.48,291.632 316.864,292.568 319.816,295.016 321.76,297.896 322.696,301.352 
				322.696,305.672 322.192,308.12 321.256,310.064 319.816,312.008 321.76,313.952 323.2,317.336 323.704,319.712 323.704,325.544 
				323.2,327.992 321.256,331.376 318.808,334.256 314.92,336.2 311.104,336.704 308.656,336.704 305.272,335.264 301.888,332.816 
				300.376,330.44 298.936,326.984 298.936,324.104 298.936,321.224 299.44,317.336 300.376,314.888 300.88,313.952 			"/>
			<polygon style="fill-rule:evenodd;clip-rule:evenodd;fill:#00A389;" points="312.04,297.896 313.984,299.408 315.424,300.848 
				315.928,304.232 315.424,306.68 313.48,308.624 312.04,309.056 310.6,309.056 309.16,308.624 307.648,307.112 306.712,305.168 
				306.712,302.792 306.712,300.848 307.648,299.84 309.592,298.4 			"/>
			<polygon style="fill-rule:evenodd;clip-rule:evenodd;fill:#00A389;" points="310.6,315.392 313.984,315.896 315.928,317.768 
				316.864,320.216 316.864,325.04 315.928,327.488 313.048,329.936 309.592,329.936 307.216,327.992 305.776,326.048 
				305.776,321.224 306.712,317.768 308.152,316.328 			"/>
		</g>
	</g>
	<polygon style="fill-rule:evenodd;clip-rule:evenodd;fill:#0079C1;" points="362.008,272.696 577.72,272.696 579.16,273.2 
		581.104,274.64 582.04,276.584 582.04,350.312 581.608,352.688 579.664,354.128 577.72,354.632 362.008,354.632 	"/>
	<g>
		<polygon style="fill-rule:evenodd;clip-rule:evenodd;fill:#FFFFFF;" points="384.76,336.704 384.76,291.128 392.032,291.128 
			392.032,312.944 406.576,291.128 414.784,291.128 401.752,310.496 414.784,336.704 407.08,336.704 397.36,316.832 392.032,325.04 
			392.032,336.704 		"/>
		<polygon style="fill-rule:evenodd;clip-rule:evenodd;fill:#FFFFFF;" points="433.72,291.128 436.6,291.128 439.552,292.136 
			442,293.072 443.872,295.016 445.816,296.96 447.76,300.344 448.768,304.232 448.768,323.168 448.264,325.544 447.328,328.496 
			445.816,330.872 442.936,333.32 439.552,335.768 435.16,336.2 431.272,336.2 427.456,334.76 425.008,333.32 422.056,330.872 
			419.176,326.984 419.176,321.656 419.176,305.672 419.68,301.784 421.12,297.896 424,295.016 427.456,292.568 431.272,291.128 		
			"/>
		<polygon style="fill-rule:evenodd;clip-rule:evenodd;fill:#0079C1;" points="432.784,297.896 435.16,297.896 438.112,298.904 
			440.488,300.848 441.496,303.728 442,305.672 442,321.656 441.496,324.608 439.552,327.488 437.104,328.928 432.784,329.432 
			430.84,328.928 428.392,327.488 426.448,324.608 425.944,321.656 425.944,304.736 426.952,301.784 428.896,299.408 430.84,298.4 
					"/>
		<polygon style="fill-rule:evenodd;clip-rule:evenodd;fill:#FFFFFF;" points="455.032,297.896 455.032,291.128 484.624,291.128 
			484.624,297.896 473.464,297.896 473.464,336.704 466.696,336.704 466.696,297.896 		"/>
		<polygon style="fill-rule:evenodd;clip-rule:evenodd;fill:#FFFFFF;" points="493.336,336.704 493.336,291.128 500.176,291.128 
			500.176,312.944 515.152,291.128 523.432,291.128 510.328,310.496 523.432,336.704 515.656,336.704 505.936,316.832 
			500.176,325.04 500.176,336.704 		"/>
		<polygon style="fill-rule:evenodd;clip-rule:evenodd;fill:#FFFFFF;" points="527.32,336.704 534.088,336.704 536.032,328.928 
			550.072,328.928 552.016,336.704 558.784,336.704 546.688,291.128 538.912,291.128 527.32,335.768 		"/>
		<polygon style="fill-rule:evenodd;clip-rule:evenodd;fill:#0079C1;" points="537.976,322.16 542.8,304.736 548.128,322.16 		"/>
	</g>
</g>
</svg>
