<?xml version="1.0" encoding="UTF-8" standalone="no"?>
<!-- Generator: Adobe Illustrator 15.1.0, SVG Export Plug-In . SVG Version: 6.00 Build 0)  -->

<svg
   xmlns:dc="http://purl.org/dc/elements/1.1/"
   xmlns:cc="http://creativecommons.org/ns#"
   xmlns:rdf="http://www.w3.org/1999/02/22-rdf-syntax-ns#"
   xmlns:svg="http://www.w3.org/2000/svg"
   xmlns="http://www.w3.org/2000/svg"
   xmlns:sodipodi="http://sodipodi.sourceforge.net/DTD/sodipodi-0.dtd"
   xmlns:inkscape="http://www.inkscape.org/namespaces/inkscape"
   version="1.1"
   id="Layer_1"
   x="0px"
   y="0px"
   width="407.32382"
   height="114.4998"
   viewBox="0 0 407.32382 114.4998"
   xml:space="preserve"
   sodipodi:docname="633.svg"
   inkscape:version="0.92.5 (2060ec1f9f, 2020-04-08)"><metadata
   id="metadata1174"><rdf:RDF><cc:Work
       rdf:about=""><dc:format>image/svg+xml</dc:format><dc:type
         rdf:resource="http://purl.org/dc/dcmitype/StillImage" /></cc:Work></rdf:RDF></metadata><defs
   id="defs1172" /><sodipodi:namedview
   pagecolor="#ffffff"
   bordercolor="#666666"
   borderopacity="1"
   objecttolerance="10"
   gridtolerance="10"
   guidetolerance="10"
   inkscape:pageopacity="0"
   inkscape:pageshadow="2"
   inkscape:window-width="640"
   inkscape:window-height="480"
   id="namedview1170"
   showgrid="false"
   inkscape:zoom="0.28028504"
   inkscape:cx="217.6339"
   inkscape:cy="2.9419121"
   inkscape:window-x="0"
   inkscape:window-y="0"
   inkscape:window-maximized="0"
   inkscape:current-layer="Layer_1" />
<g
   id="g1167"
   transform="translate(-79.866102,-309.44211)">
	
		<rect
   x="80.344002"
   y="309.92001"
   style="clip-rule:evenodd;fill:#0079c1;fill-rule:evenodd;stroke:#0079c1;stroke-width:0.9558;stroke-miterlimit:10"
   width="406.36801"
   height="113.544"
   id="rect1139" />
	<polygon
   style="clip-rule:evenodd;fill:#ffffff;fill-rule:evenodd"
   points="82.072,314.744 84.16,312.728 86.248,311.288 88.984,310.28 91.72,309.92 476.704,309.92 479.152,310.64 481.528,311.288 482.896,312.728 484.624,314.744 486.064,317.192 486.712,319.928 486.712,414.536 486.064,416.264 484.624,418.712 482.896,420.728 480.52,422.024 478.144,423.104 474.688,423.464 91.72,423.464 88.984,423.104 86.248,422.024 84.16,420.728 82.072,418.712 81.064,416.264 80.344,413.528 80.344,319.928 81.064,317.192 "
   id="polygon1141" />
	<polygon
   style="clip-rule:evenodd;fill:#0079c1;fill-rule:evenodd"
   points="87.256,317.48 88.984,316.472 90.712,315.824 475.336,315.464 477.064,315.824 478.792,316.832 480.16,318.56 480.88,320.288 480.88,321.296 480.88,412.16 480.52,414.176 479.512,415.904 478.144,416.984 476.416,417.632 91.72,417.992 89.704,417.632 87.976,416.624 86.608,415.256 85.888,413.168 85.888,321.296 86.248,319.208 "
   id="polygon1143" />
	<g
   id="g1163">
		<polygon
   style="clip-rule:evenodd;fill:#ffffff;fill-rule:evenodd"
   points="123.04,338.144 123.04,365.72 140.968,338.144 151.264,338.144 135.064,362.624 151.264,395.312 141.976,395.312 129.592,370.832 123.04,380.84 123.04,395.312 114.472,395.312 114.472,338.144 "
   id="polygon1145" />
		<polygon
   style="clip-rule:evenodd;fill:#ffffff;fill-rule:evenodd"
   points="171.208,378.104 172.576,381.488 175.024,384.584 178.48,386.312 181.216,386.672 183.592,386.312 186.04,385.304 189.136,382.928 191.152,378.104 191.152,338.144 199.792,338.144 199.432,378.392 198.424,383.216 195.976,387.68 192.232,391.496 187.768,393.872 182.944,394.952 179.488,394.952 174.664,393.872 170.2,391.496 166.384,387.68 164.008,383.216 162.64,378.392 162.64,338.144 171.208,338.144 "
   id="polygon1147" />
		<polygon
   style="clip-rule:evenodd;fill:#ffffff;fill-rule:evenodd"
   points="242.128,340.232 244.864,341.96 247.312,344.336 249.328,347.072 251.776,353.264 251.776,380.12 250.408,384.944 247.312,389.12 243.496,392.504 239.032,394.592 233.848,395.312 228.664,394.592 224.2,392.504 219.088,387.68 216.64,383.216 215.272,378.392 215.632,353.264 217.36,348.512 220.096,344.336 224.2,340.88 228.664,339.224 233.848,338.144 237.304,338.504 "
   id="polygon1149" />
		<polygon
   style="clip-rule:evenodd;fill:#0079c1;fill-rule:evenodd"
   points="240.76,349.88 242.776,352.976 243.856,356.72 243.856,376.664 242.776,380.48 240.76,383.576 237.664,386.024 233.848,386.672 230.104,386.024 225.928,382.928 224.2,379.112 223.912,376.664 223.912,355.352 225.28,351.896 227.656,348.8 230.104,347.792 233.848,346.784 237.664,347.792 "
   id="polygon1151" />
		<polygon
   style="clip-rule:evenodd;fill:#ffffff;fill-rule:evenodd"
   points="276.544,368.816 292.024,368.816 295.768,366.728 299.152,363.632 301.24,359.816 301.6,357.08 301.6,349.52 299.872,345.416 298.216,342.968 294.76,340.232 288.928,338.504 267.904,338.144 267.904,395.312 276.544,395.312 "
   id="polygon1153" />
		<polygon
   style="clip-rule:evenodd;fill:#0079c1;fill-rule:evenodd"
   points="291.664,348.512 293.392,351.896 293.392,356.072 291.664,359.528 289.288,360.896 288.568,360.896 276.544,361.184 276.544,346.784 288.568,346.784 "
   id="polygon1155" />
		<rect
   x="314.63199"
   y="338.14401"
   style="clip-rule:evenodd;fill:#ffffff;fill-rule:evenodd"
   width="8.6400003"
   height="57.167999"
   id="rect1157" />
		<polygon
   style="clip-rule:evenodd;fill:#ffffff;fill-rule:evenodd"
   points="362.8,340.232 365.896,341.96 368.344,344.336 370.432,347.072 372.808,353.264 372.808,380.12 371.44,384.944 368.344,389.12 364.528,392.504 359.704,394.592 354.952,395.312 349.768,394.592 344.944,392.504 340.12,387.68 337.384,383.216 336.304,378.392 336.664,353.264 338.392,348.512 341.128,344.336 344.944,340.88 349.768,339.224 354.952,338.144 358.048,338.504 "
   id="polygon1159" />
		<polygon
   style="clip-rule:evenodd;fill:#0079c1;fill-rule:evenodd"
   points="361.792,349.88 363.88,352.976 364.888,356.72 364.888,376.664 363.88,380.48 361.792,383.576 358.696,386.024 354.952,386.672 351.136,386.024 347.032,382.928 345.304,379.112 344.944,376.664 344.944,355.352 346.312,351.896 348.688,348.8 351.136,347.792 354.952,346.784 358.696,347.792 "
   id="polygon1161" />
	</g>
	<polygon
   style="clip-rule:evenodd;fill:#ffffff;fill-rule:evenodd"
   points="413.416,335.048 461.584,335.048 461.584,383.216 443.728,365 407.584,401.144 395.2,389.12 431.632,352.976 "
   id="polygon1165" />
</g>
</svg>