<?xml version="1.0" encoding="iso-8859-1"?>
<!-- Generator: Adobe Illustrator 15.1.0, SVG Export Plug-In . SVG Version: 6.00 Build 0)  -->
<!DOCTYPE svg PUBLIC "-//W3C//DTD SVG 1.1//EN" "http://www.w3.org/Graphics/SVG/1.1/DTD/svg11.dtd">
<svg version="1.1" xmlns="http://www.w3.org/2000/svg" xmlns:xlink="http://www.w3.org/1999/xlink" x="0px" y="0px" width="595px"
	 height="842px" viewBox="0 0 595 842" style="enable-background:new 0 0 595 842;" xml:space="preserve">
<g id="Layer_1">
	<g>
		
			<rect x="185.104" y="71.096" style="fill-rule:evenodd;clip-rule:evenodd;stroke:#000000;stroke-width:1.0001;stroke-miterlimit:10;" width="177.984" height="90.144"/>
		<path style="fill-rule:evenodd;clip-rule:evenodd;fill:#FFFFFF;stroke:#000000;stroke-width:0.5;stroke-miterlimit:10;" d="
			M193.744,70.808h160.848c4.824,0,8.712,3.96,8.712,8.784v73.08c0,4.896-3.888,8.856-8.712,8.856H193.744
			c-4.824,0-8.784-3.96-8.784-8.856v-73.08C184.96,74.768,188.92,70.808,193.744,70.808z"/>
		
			<rect x="185.104" y="162.32" style="fill-rule:evenodd;clip-rule:evenodd;stroke:#000000;stroke-width:1.0001;stroke-miterlimit:10;" width="177.984" height="89.928"/>
		<path style="fill-rule:evenodd;clip-rule:evenodd;fill:#FFFFFF;stroke:#000000;stroke-width:0.5;stroke-miterlimit:10;" d="
			M193.888,161.816H354.52c4.824,0,8.784,3.96,8.784,8.784v73.008c0,4.824-3.96,8.784-8.784,8.784H193.888
			c-4.824,0-8.784-3.96-8.784-8.784V170.6C185.104,165.776,189.064,161.816,193.888,161.816z"/>
		<path style="fill-rule:evenodd;clip-rule:evenodd;" d="M189.208,243.968c0,2.376,1.944,4.248,4.248,4.248l0,0l161.568,0.072l0,0
			c1.08,0,2.16-0.432,2.952-1.224s1.296-1.872,1.296-3.024l0,0v-73.656l0,0c0-2.376-1.944-4.248-4.248-4.248l0,0l-161.568-0.072l0,0
			c-2.304,0-4.248,1.872-4.248,4.248l0,0V243.968L189.208,243.968z"/>
		<path style="fill-rule:evenodd;clip-rule:evenodd;" d="M359.272,79.448c0-2.376-1.944-4.248-4.248-4.248l0,0l-161.568-0.072l0,0
			c-2.304,0-4.248,1.872-4.248,4.248l0,0v73.872l0,0c0,2.376,1.944,4.32,4.248,4.32l0,0h161.568l0,0c1.08,0,2.16-0.432,2.952-1.224
			s1.296-1.872,1.296-3.024l0,0V79.448L359.272,79.448z"/>
		<g>
			<polygon style="fill-rule:evenodd;clip-rule:evenodd;fill:#FFFFFF;" points="246.232,235.472 246.232,195.8 280.216,195.8 
				280.216,178.808 302.824,201.488 280.216,224.168 280.216,207.176 257.536,207.176 257.536,235.472 246.232,235.472 			"/>
		</g>
		<polygon style="fill-rule:evenodd;clip-rule:evenodd;fill:#FFFFFF;" points="205.768,133.376 210.88,133.376 210.88,133.376 
			210.88,124.88 210.88,124.88 214.912,118.76 214.912,118.76 222.184,133.376 222.184,133.376 227.872,133.376 227.872,133.376 
			218.152,113.864 218.152,113.864 227.872,99.248 227.872,99.248 221.752,99.248 221.752,99.248 210.88,115.592 210.88,115.592 
			210.88,99.248 210.88,99.248 205.768,99.248 205.768,99.248 205.768,133.376 		"/>
		<path style="fill-rule:evenodd;clip-rule:evenodd;fill:#FFFFFF;" d="M342.784,124.88v-8.568l0,0c0-4.68-3.816-8.496-8.496-8.496
			c-4.68,0-8.496,3.816-8.496,8.496l0,0v8.568l0,0c0,3.024,1.656,5.832,4.248,7.344c2.664,1.512,5.904,1.512,8.496,0
			C341.2,130.712,342.784,127.904,342.784,124.88h-5.112c0,1.152-0.648,2.304-1.656,2.952c-1.08,0.576-2.376,0.576-3.384,0
			c-1.08-0.648-1.728-1.8-1.728-2.952l0,0v-8.568l0,0c0-1.872,1.512-3.384,3.384-3.384s3.384,1.512,3.384,3.384l0,0v8.568H342.784z"
			/>
		<path style="fill-rule:evenodd;clip-rule:evenodd;fill:#FFFFFF;" d="M321.184,133.232v-5.184l0,0l0,0l0,0
			c-1.512-0.144-2.736-1.44-2.736-3.024l0,0v-8.352l0,0v-3.96l0,0h2.736l0,0V107.6l0,0h-2.736l0,0v-8.496l0,0h-5.04l0,0v8.496l0,0
			h-3.096l0,0v5.112l0,0h3.096l0,0v12.312l0,0c0,4.392,3.384,7.992,7.776,8.136V133.232z"/>
		<polygon style="fill-rule:evenodd;clip-rule:evenodd;fill:#FFFFFF;" points="231.544,104.36 236.656,104.36 236.656,104.36 
			236.656,99.248 236.656,99.248 231.544,99.248 231.544,99.248 231.544,104.36 		"/>
		<polygon style="fill-rule:evenodd;clip-rule:evenodd;fill:#FFFFFF;" points="231.544,133.376 231.544,107.816 231.544,107.816 
			236.656,107.816 236.656,107.816 236.656,133.376 236.656,133.376 231.544,133.376 		"/>
		<path style="fill-rule:evenodd;clip-rule:evenodd;fill:#FFFFFF;" d="M285.4,133.376h-5.04l0,0v-1.512l0,0
			c-2.088,1.152-4.392,1.728-6.696,1.656l0,0c-1.152,0.072-2.304-0.288-3.168-1.008l0,0c-1.944-2.16-2.448-5.256-1.296-7.92l0,0
			c2.52-3.672,6.696-5.976,11.16-6.192l0,0v-3.528l0,0c-0.504-1.224-1.8-1.944-3.096-1.728c-1.296,0.216-2.232,1.368-2.232,2.664
			l0,0h-5.112l0,0c0-4.032,3.024-7.344,7.056-7.776c3.96-0.432,7.632,2.232,8.424,6.192l0,0V133.376l-5.04-5.112
			c-1.152,0.648-2.376,1.08-3.672,1.368l0,0c-0.576,0.216-1.224,0.216-1.8-0.072c-0.576-0.288-0.936-0.792-1.152-1.368l0,0
			c-0.072-0.648,0-1.296,0.216-1.872l0,0c0.288-1.08,0.864-2.016,1.728-2.736l0,0c1.368-1.152,2.952-1.944,4.68-2.376l0,0v7.056
			L285.4,133.376z"/>
		<path style="fill-rule:evenodd;clip-rule:evenodd;fill:#FFFFFF;" d="M298.432,107.816c-3.168,0-5.832,2.088-6.624,5.112
			c-0.792,3.024,0.576,6.192,3.312,7.704l0,0l5.472,3.024l-0.144-0.072c0.72,0.36,1.224,1.008,1.368,1.728
			c0.216,0.792,0,1.584-0.504,2.16l0,0c-1.08,1.08-2.664,1.44-4.032,0.864c-1.368-0.576-2.304-1.944-2.304-3.456l0,0h-4.752l0,0
			c0,3.96,2.808,7.416,6.696,8.28c3.816,0.864,7.776-1.08,9.432-4.68l0,0c1.296-3.528-0.144-7.416-3.384-9.216l0,0l-5.472-3.024
			l0.072,0.072c-0.792-0.36-1.152-1.224-1.008-2.088c0.216-0.864,0.936-1.44,1.872-1.44l0,0h0.936l0,0
			c1.008,0,1.872,0.792,1.872,1.872l0,0h4.896l0,0c0-3.816-3.024-6.84-6.768-6.84l0,0H298.432L298.432,107.816z"/>
		<path style="fill-rule:evenodd;clip-rule:evenodd;fill:#FFFFFF;" d="M243.496,133.376h5.112l0,0v-17.712l0,0
			c0-1.368,0.792-2.664,2.088-3.168c1.224-0.504,2.736-0.288,3.672,0.72l0,0v-5.4l0,0c-2.016,0-3.96,0.432-5.76,1.368l0,0v-1.368
			l0,0h-5.112l0,0V133.376L243.496,133.376z"/>
		<polygon style="fill-rule:evenodd;clip-rule:evenodd;fill:#FFFFFF;" points="258.04,104.504 263.08,104.504 263.08,104.504 
			263.08,99.392 263.08,99.392 258.04,99.392 258.04,99.392 258.04,104.504 		"/>
		<path style="fill-rule:evenodd;clip-rule:evenodd;fill:#FFFFFF;" d="M255.808,135.752c1.224,0,2.232-1.008,2.232-2.232l0,0v-25.56
			l0,0h5.04l0,0v25.56l0,0c0,2.088-0.864,4.104-2.448,5.472c-1.512,1.368-3.6,2.016-5.688,1.8l0,0L255.808,135.752L255.808,135.752z
			"/>
	</g>
</g>
<g id="KUVA">
</g>
<g id="Layer_4">
</g>
<g id="Layer_2">
</g>
<g id="Layer_3">
</g>
</svg>
