<?xml version="1.0" encoding="UTF-8" standalone="no"?>
<!-- Generator: Adobe Illustrator 15.1.0, SVG Export Plug-In . SVG Version: 6.00 Build 0)  -->

<svg
   xmlns:dc="http://purl.org/dc/elements/1.1/"
   xmlns:cc="http://creativecommons.org/ns#"
   xmlns:rdf="http://www.w3.org/1999/02/22-rdf-syntax-ns#"
   xmlns:svg="http://www.w3.org/2000/svg"
   xmlns="http://www.w3.org/2000/svg"
   xmlns:sodipodi="http://sodipodi.sourceforge.net/DTD/sodipodi-0.dtd"
   xmlns:inkscape="http://www.inkscape.org/namespaces/inkscape"
   version="1.1"
   id="Layer_1"
   x="0px"
   y="0px"
   width="496.06299"
   height="71.530998"
   viewBox="0 0 496.06296 71.530997"
   xml:space="preserve"
   sodipodi:docname="645.svg"
   inkscape:version="0.92.5 (2060ec1f9f, 2020-04-08)"><metadata
   id="metadata1524"><rdf:RDF><cc:Work
       rdf:about=""><dc:format>image/svg+xml</dc:format><dc:type
         rdf:resource="http://purl.org/dc/dcmitype/StillImage" /></cc:Work></rdf:RDF></metadata><defs
   id="defs1522" /><sodipodi:namedview
   pagecolor="#ffffff"
   bordercolor="#666666"
   borderopacity="1"
   objecttolerance="10"
   gridtolerance="10"
   guidetolerance="10"
   inkscape:pageopacity="0"
   inkscape:pageshadow="2"
   inkscape:window-width="640"
   inkscape:window-height="480"
   id="namedview1520"
   showgrid="false"
   inkscape:zoom="0.28032165"
   inkscape:cx="248.03201"
   inkscape:cy="35.764993"
   inkscape:window-x="0"
   inkscape:window-y="0"
   inkscape:window-maximized="0"
   inkscape:current-layer="Layer_1" />
<g
   id="g1511"
   transform="translate(-49.608,-385.179)">
	<g
   id="LWPOLYLINE">
		<rect
   x="49.608002"
   y="385.17999"
   style="fill:#0079c1"
   width="496.06299"
   height="71.529999"
   id="rect1418" />
	</g>
	<g
   id="LWPOLYLINE_33_">
		<path
   style="fill:#ffffff"
   d="m 59.146,456.71 h 442.859 c 5.06,0 9.911,-2.009 13.487,-5.587 l 30.179,-30.178 -30.179,-30.179 c -3.576,-3.577 -8.428,-5.587 -13.487,-5.587 H 59.146 c -5.268,0 -9.537,4.271 -9.538,9.537 v 52.456 c 0.001,5.268 4.271,9.538 9.538,9.538 z"
   id="path1421"
   inkscape:connector-curvature="0" />
	</g>
	<g
   id="LWPOLYLINE_2_">
		<path
   style="fill:#0079c1"
   d="m 59.146,451.941 h 437.376 c 5.072,0.266 9.956,-1.96 13.083,-5.963 l 21.761,-25.033 -21.761,-25.034 c -3.127,-4.003 -8.011,-6.229 -13.083,-5.963 H 59.146 c -2.634,0 -4.769,2.136 -4.769,4.769 v 52.456 c 10e-4,2.634 2.136,4.768 4.769,4.768 z"
   id="path1424"
   inkscape:connector-curvature="0" />
	</g>
	<g
   id="LWPOLYLINE_3_">
		<path
   style="fill:#ffffff"
   d="m 103.907,431.354 c 2.525,6.154 9.563,9.097 15.719,6.571 6.156,-2.526 9.099,-9.563 6.572,-15.719 -1.597,-3.892 -5.107,-6.668 -9.262,-7.325 l 0.031,-0.469 c -2.164,-0.335 -4.379,-0.097 -6.422,0.692 l -3.014,-8.442 -0.307,0.109 -0.754,-2.073 0.733,-0.791 -0.06,-1.077 -0.81,-0.785 -1.048,-0.041 -3.673,0.372 0.053,0.515 3.636,-0.369 0.814,0.033 0.522,0.506 0.035,0.656 -0.402,0.436 -0.107,-0.293 -0.699,0.437 0.999,2.746 -0.278,0.1 0.624,1.749 H 86.607 l -0.104,-0.232 -0.306,0.144 -0.368,-0.726 3.328,-2.032 0.217,-0.213 0.188,-0.406 -0.065,-0.28 -0.183,-0.166 -0.291,-0.103 -0.549,-0.04 -1.04,0.062 -1.391,0.026 -2.059,-0.228 -1.037,-0.226 -0.57,-0.041 -0.212,0.08 -0.208,0.26 -0.017,0.469 0.077,0.286 0.252,0.554 0.38,0.57 0.433,0.505 0.625,0.608 0.603,0.404 0.301,0.116 0.352,0.026 0.467,0.919 -0.311,0.2 0.381,0.854 -3.045,5.248 c -6.214,-3.028 -13.705,-0.446 -16.733,5.768 -0.66,1.354 -1.07,2.816 -1.211,4.317 l 0.465,0.053 c -0.614,6.625 4.259,12.494 10.884,13.108 6.371,0.591 12.094,-3.902 13.029,-10.232 l 2.135,0.179 c 0.1,1.229 0.847,2.311 1.96,2.839 l -0.62,2.402 H 91.37 v 1.163 h 3.11 v -1.163 h -0.981 l 0.542,-2.095 c 1.891,0.232 3.612,-1.112 3.846,-3.003 0.097,-0.791 -0.082,-1.591 -0.508,-2.264 l 11.248,-12.624 0.613,1.719 c -5.716,2.997 -8.215,9.852 -5.77,15.824 z"
   id="path1427"
   inkscape:connector-curvature="0" />
	</g>
	<g
   id="LWPOLYLINE_4_">
		<path
   style="fill:#0079c1"
   d="m 78.353,427.661 8.221,0.688 c -0.142,0.867 -0.4,1.713 -0.77,2.511 -2.253,4.878 -8.034,7.006 -12.912,4.752 -4.878,-2.253 -7.006,-8.033 -4.752,-12.912 2.253,-4.878 8.034,-7.006 12.912,-4.752 l -4.177,7.197 c -0.902,0.054 -1.592,0.829 -1.538,1.731 0.054,0.903 0.828,1.592 1.731,1.538 0.525,-0.03 1.002,-0.31 1.285,-0.753 z"
   id="path1430"
   inkscape:connector-curvature="0" />
	</g>
	<g
   id="LWPOLYLINE_5_">
		<path
   style="fill:#0079c1"
   d="m 78.298,425.621 4.084,-7.038 c 2.872,1.836 4.574,5.042 4.485,8.449 l -8.146,-0.682 c -0.075,-0.275 -0.221,-0.527 -0.423,-0.729 z"
   id="path1433"
   inkscape:connector-curvature="0" />
	</g>
	<g
   id="LWPOLYLINE_6_">
		<path
   style="fill:#0079c1"
   d="m 91.172,427.407 -1.694,-0.142 c 0.174,-4.482 -2.064,-8.715 -5.866,-11.094 l 2.554,-4.4 6.214,13.924 c -0.571,0.432 -0.993,1.031 -1.208,1.712 z"
   id="path1436"
   inkscape:connector-curvature="0" />
	</g>
	<g
   id="LWPOLYLINE_7_">
		<path
   style="fill:#0079c1"
   d="m 94.845,425.016 0.486,-2.278 h -0.954 v -1.164 h 3.005 v 1.164 h -0.926 l -0.549,2.574 c 0.118,0.055 0.233,0.116 0.345,0.184 l 11.771,-13.21 -0.647,-1.815 H 87.312 l 6.509,14.585 c 0.337,-0.065 0.683,-0.077 1.024,-0.04 z"
   id="path1439"
   inkscape:connector-curvature="0" />
	</g>
	<g
   id="LWPOLYLINE_8_">
		<path
   style="fill:#0079c1"
   d="m 115.133,425.145 -0.65,-0.675 -0.779,-1.309 -0.737,-1.275 -1.483,-4.156 c 4.483,-1.769 9.587,0.013 11.997,4.187 2.686,4.654 1.091,10.604 -3.563,13.29 -4.654,2.687 -10.604,1.092 -13.29,-3.562 -2.687,-4.654 -1.092,-10.604 3.562,-13.29 l 1.476,4.134 0.808,1.396 0.867,1.459 0.42,0.435 c -0.555,0.714 -0.424,1.743 0.29,2.297 0.715,0.555 1.744,0.425 2.298,-0.29 0.555,-0.715 0.425,-1.743 -0.29,-2.298 -0.268,-0.208 -0.59,-0.327 -0.926,-0.343 z"
   id="path1442"
   inkscape:connector-curvature="0" />
	</g>
	<g
   id="LWPOLYLINE_9_">
		<path
   style="fill:#ffffff"
   d="m 140.658,444.051 -1.94,0.796 v 0.808 l 3.644,2.114 1.927,-0.269 0.069,-12.265 -0.175,-1.262 0.33,-12.194 0.452,-0.014 1.675,10.133 -0.067,13.103 2.111,0.057 2.319,-2.335 v -0.706 c -0.383,-0.267 -0.635,-0.682 -0.693,-1.145 l 0.001,-10.192 -1.071,-14.06 0.141,-7.278 0.539,3.795 5.199,7.896 0.186,0.657 0.563,0.523 c 0.132,0.123 0.214,0.29 0.232,0.468 0.124,1.223 0.478,2.41 1.041,3.502 l 2.162,0.093 c -0.248,2.808 -0.711,5.593 -1.387,8.329 l 1.376,0.219 0.757,8.246 c -0.438,0.067 -0.841,0.284 -1.139,0.613 l 0.017,0.47 2.129,1.394 0.924,-0.188 c 0.123,-0.024 0.211,-0.134 0.208,-0.259 l -0.084,-4.098 -0.127,-2.546 v -3.433 l 1.221,-0.05 c 0.313,0.236 0.494,0.609 0.485,1.002 l -0.18,3.993 v 3.439 c 0,0.135 0.104,0.248 0.238,0.259 l 0.858,0.071 1.85,-0.847 v -0.622 c -0.424,-0.119 -0.766,-0.433 -0.922,-0.845 l 0.533,-5.306 -0.076,-1.578 0.419,-0.046 c -0.586,-2.44 -0.928,-4.934 -1.021,-7.441 0.149,0.316 0.328,0.619 0.531,0.904 0.312,0.392 0.574,0.819 0.78,1.276 0.229,0.584 0.428,1.179 0.596,1.782 0.031,0.112 0.008,0.231 -0.063,0.324 l -0.281,0.367 0.096,0.365 -0.164,0.567 0.816,0.852 c 0.042,0.043 0.112,0.045 0.157,0.002 0.004,-0.003 0.662,-0.699 0.662,-0.699 0.191,-0.357 0.299,-0.754 0.313,-1.158 -0.013,-1.518 -0.391,-3.01 -1.102,-4.351 -0.166,-0.32 -0.385,-0.611 -0.646,-0.86 -0.382,-0.986 -0.921,-1.906 -1.596,-2.721 -0.126,-0.153 -0.282,-0.279 -0.458,-0.37 -0.292,-0.151 -0.595,-0.279 -0.906,-0.383 -0.085,-0.027 -0.166,-0.065 -0.242,-0.113 l -0.395,-0.248 c -0.017,-0.011 -0.029,-0.026 -0.033,-0.047 -0.009,-0.04 0.017,-0.079 0.057,-0.088 l 1.25,-0.271 c 0.06,-0.013 0.099,-0.072 0.085,-0.132 -0.003,-0.015 -0.009,-0.029 -0.018,-0.041 l -0.132,-0.184 c -0.055,-0.077 -0.079,-0.174 -0.065,-0.268 l 0.261,-1.817 c 0.018,-0.113 0.017,-0.229 -0.004,-0.343 l -0.125,-0.714 c -0.041,-0.234 -0.156,-0.45 -0.329,-0.614 -1.097,-1.04 -2.8,-1.094 -3.959,-0.124 -0.178,0.148 -0.366,0.285 -0.563,0.409 -0.269,0.17 -0.35,0.525 -0.18,0.794 0.004,0.007 0.009,0.014 0.013,0.021 0.021,0.029 0.029,0.066 0.025,0.102 l -0.068,0.553 c -0.006,0.048 -0.002,0.095 0.01,0.141 l 0.092,0.344 c 0.022,0.086 0.02,0.177 -0.01,0.261 l -0.054,0.154 c -0.091,0.261 -0.097,0.544 -0.015,0.809 l 0.067,0.219 c 0.077,0.251 0.229,0.473 0.435,0.635 l 0.071,0.057 c 0.077,0.061 0.171,0.095 0.269,0.096 l 0.334,0.006 c 0.081,0.001 0.146,0.067 0.146,0.148 l -0.001,0.134 c 0,0.065 -0.042,0.122 -0.104,0.142 l -2.489,0.785 c -0.109,0.035 -0.229,-0.02 -0.272,-0.126 l -1.029,-2.48 0.444,-0.866 -0.362,-1.187 -0.94,-0.732 -3.046,-5.55 -2.011,-8.463 c -0.199,-0.838 -0.801,-1.521 -1.606,-1.826 l -3.109,-1.175 c -0.066,-0.025 -0.105,-0.093 -0.095,-0.163 l 0.08,-0.475 c 0.012,-0.069 0.07,-0.121 0.141,-0.123 l 0.811,-0.031 c 0.179,-0.007 0.328,-0.142 0.353,-0.319 l 0.252,-1.821 c 0.016,-0.115 0.004,-0.233 -0.034,-0.344 l -0.158,-0.457 c -0.016,-0.048 -0.021,-0.099 -0.016,-0.149 l 0.055,-0.534 c 0.017,-0.163 0.015,-0.328 -0.005,-0.491 l -0.087,-0.724 c -0.007,-0.092 0.028,-0.182 0.096,-0.243 0.146,-0.144 0.146,-0.379 0.002,-0.523 -0.047,-0.047 -0.104,-0.081 -0.169,-0.098 -0.219,-0.06 -0.431,-0.141 -0.634,-0.239 -0.887,-0.43 -1.882,-0.584 -2.857,-0.441 -1.228,0.178 -2.137,1.231 -2.132,2.472 -0.032,1.131 0.094,2.261 0.375,3.356 0.021,0.082 0.071,0.155 0.14,0.206 l 0.216,0.159 c 0.039,0.028 0.062,0.073 0.061,0.121 l -0.012,0.873 c -0.001,0.094 -0.062,0.177 -0.15,0.207 l -3.334,1.145 c -0.644,0.221 -1.15,0.724 -1.376,1.364 l -3.146,8.945 0.544,7.688 0.307,2.618 1.222,1.078 1.367,-0.423 -0.157,-1.319 0.268,-0.942 -0.607,-1.394 -0.044,-5.867 c 0.26,-1.896 0.893,-3.721 1.862,-5.37 z"
   id="path1445"
   inkscape:connector-curvature="0" />
	</g>
	<g
   id="LWPOLYLINE_11_">
		<path
   style="fill:#ffffff"
   d="m 186.112,422.733 h 6.975 c 5.037,0 9.12,-4.083 9.12,-9.12 v -1.431 c 0,-5.037 -4.083,-9.12 -9.12,-9.12 h -12.339 v 35.765 h 5.364 z"
   id="path1448"
   inkscape:connector-curvature="0" />
	</g>
	<g
   id="LWPOLYLINE_10_">
		<path
   style="fill:#0079c1"
   d="m 186.112,417.368 h 6.975 c 2.074,0 3.755,-1.681 3.755,-3.755 v -1.431 c 0,-2.074 -1.681,-3.756 -3.755,-3.756 h -6.975 z"
   id="path1451"
   inkscape:connector-curvature="0" />
	</g>
	<g
   id="LWPOLYLINE_12_">
		<rect
   x="206.14101"
   y="412.004"
   style="fill:#ffffff"
   width="5.3649998"
   height="26.823"
   id="rect1454" />
	</g>
	<g
   id="LWPOLYLINE_13_">
		<rect
   x="206.14101"
   y="403.06299"
   style="fill:#ffffff"
   width="5.3649998"
   height="5.3639998"
   id="rect1457" />
	</g>
	<g
   id="LWPOLYLINE_14_">
		<path
   style="fill:#ffffff"
   d="m 236.542,418.62 v -0.179 c 0,-3.556 -2.883,-6.438 -6.438,-6.438 -2.158,0.267 -4.232,0.999 -6.08,2.146 v -11.087 h -5.364 v 35.765 h 5.364 v -18.955 c 0,-1.976 1.602,-3.576 3.576,-3.576 1.976,0 3.577,1.601 3.577,3.576 v 18.955 h 5.365 z"
   id="path1460"
   inkscape:connector-curvature="0" />
	</g>
	<g
   id="LWPOLYLINE_15_">
		<rect
   x="242.979"
   y="403.06299"
   style="fill:#ffffff"
   width="5.3639998"
   height="35.764999"
   id="rect1463" />
	</g>
	<g
   id="LWPOLYLINE_16_">
		<path
   style="fill:#ffffff"
   d="m 271.949,438.827 h -5.365 v -1.717 c -2.154,1.163 -4.571,1.754 -7.02,1.716 -2.202,0.059 -4.184,-1.329 -4.882,-3.418 -0.871,-2.744 -0.137,-5.744 1.902,-7.775 2.608,-2.803 6.181,-4.519 9.999,-4.803 v -2.779 c 0,-1.481 -1.201,-2.683 -2.682,-2.683 -1.481,0 -2.683,1.201 -2.683,2.683 h -5.365 c 0,-4.444 3.603,-8.047 8.048,-8.047 4.443,0 8.047,3.603 8.047,8.047 v 18.776 z"
   id="path1466"
   inkscape:connector-curvature="0" />
	</g>
	<g
   id="LWPOLYLINE_17_">
		<path
   style="fill:#0079c1"
   d="m 266.584,426.326 c -1.789,0.432 -3.45,1.281 -4.847,2.48 -1.253,1.101 -1.964,2.695 -1.944,4.363 0.024,1.086 0.925,1.947 2.011,1.922 0.089,-0.001 0.178,-0.01 0.267,-0.023 1.579,-0.255 3.105,-0.774 4.514,-1.534 v -7.208 z"
   id="path1469"
   inkscape:connector-curvature="0" />
	</g>
	<g
   id="LWPOLYLINE_18_">
		<path
   style="fill:#ffffff"
   d="m 283.752,412.004 v 26.108 c 0,4.346 -3.523,7.868 -7.869,7.868 h -0.715 l 0.715,-5.364 c 1.383,0 2.504,-1.121 2.504,-2.504 v -26.108 z"
   id="path1472"
   inkscape:connector-curvature="0" />
	</g>
	<g
   id="LWPOLYLINE_19_">
		<rect
   x="278.38699"
   y="403.06299"
   style="fill:#ffffff"
   width="5.3649998"
   height="5.3639998"
   id="rect1475" />
	</g>
	<g
   id="LWPOLYLINE_20_">
		<path
   style="fill:#ffffff"
   d="m 307.356,438.827 h -5.364 v -1.717 c -2.155,1.163 -4.572,1.754 -7.021,1.716 -2.202,0.059 -4.184,-1.329 -4.882,-3.418 -0.871,-2.744 -0.137,-5.744 1.902,-7.775 2.609,-2.803 6.181,-4.519 10,-4.803 v -2.779 c 0,-1.481 -1.201,-2.683 -2.683,-2.683 -1.482,0 -2.683,1.201 -2.683,2.683 h -5.364 c 0,-4.444 3.603,-8.047 8.047,-8.047 4.443,0 8.047,3.603 8.047,8.047 v 18.776 z"
   id="path1478"
   inkscape:connector-curvature="0" />
	</g>
	<g
   id="LWPOLYLINE_21_">
		<path
   style="fill:#0079c1"
   d="m 301.992,426.326 c -1.79,0.432 -3.45,1.281 -4.848,2.48 -1.253,1.101 -1.963,2.695 -1.944,4.363 0.024,1.086 0.925,1.947 2.011,1.922 0.089,-0.001 0.179,-0.01 0.267,-0.023 1.58,-0.255 3.106,-0.774 4.515,-1.534 v -7.208 z"
   id="path1481"
   inkscape:connector-curvature="0" />
	</g>
	<g
   id="LWPOLYLINE_22_">
		<path
   style="fill:#ffffff"
   d="m 329.393,413.522 c -1.162,-0.981 -2.633,-1.519 -4.153,-1.519 -2.158,0.267 -4.232,0.999 -6.08,2.146 v -2.146 h -5.364 v 26.823 h 5.364 v -18.955 c 0,-1.976 1.601,-3.576 3.576,-3.576 1.975,0 3.577,1.601 3.577,3.576 v 18.955 h 5.364 v -18.955 c 0,-1.976 1.602,-3.576 3.577,-3.576 1.975,0 3.576,1.601 3.576,3.576 v 18.955 h 5.364 l -0.002,-20.439 c -0.245,-3.438 -2.995,-6.167 -6.436,-6.384 -2.877,-0.368 -5.799,0.162 -8.363,1.519 z"
   id="path1484"
   inkscape:connector-curvature="0" />
	</g>
	<g
   id="LWPOLYLINE_23_">
		<path
   style="fill:#ffffff"
   d="m 367.084,438.827 h -5.364 v -1.717 c -2.155,1.163 -4.572,1.754 -7.021,1.716 -2.201,0.059 -4.184,-1.329 -4.881,-3.418 -0.872,-2.744 -0.138,-5.744 1.901,-7.775 2.609,-2.803 6.181,-4.519 10,-4.803 v -2.779 c 0,-1.481 -1.201,-2.683 -2.683,-2.683 -1.482,0 -2.682,1.201 -2.682,2.683 h -5.366 c 0,-4.444 3.604,-8.047 8.048,-8.047 4.444,0 8.047,3.603 8.047,8.047 v 18.776 z"
   id="path1487"
   inkscape:connector-curvature="0" />
	</g>
	<g
   id="LWPOLYLINE_24_">
		<path
   style="fill:#0079c1"
   d="m 361.72,426.326 c -1.79,0.432 -3.45,1.281 -4.847,2.48 -1.254,1.101 -1.964,2.695 -1.945,4.363 0.024,1.086 0.925,1.947 2.011,1.922 0.09,-0.001 0.179,-0.01 0.267,-0.023 1.58,-0.255 3.106,-0.774 4.515,-1.534 v -7.208 z"
   id="path1490"
   inkscape:connector-curvature="0" />
	</g>
	<g
   id="LWPOLYLINE_25_">
		<polygon
   style="fill:#ffffff"
   points="373.522,403.063 378.887,403.063 378.887,422.825 386.04,412.004 391.404,412.004 385.281,421.188 391.44,438.835 386.04,438.827 381.73,426.516 378.887,430.78 378.887,438.827 373.522,438.827 "
   id="polygon1493" />
	</g>
	<g
   id="LWPOLYLINE_26_">
		<rect
   x="396.05399"
   y="412.004"
   style="fill:#ffffff"
   width="5.3649998"
   height="26.823"
   id="rect1496" />
	</g>
	<g
   id="LWPOLYLINE_27_">
		<rect
   x="396.05399"
   y="403.06299"
   style="fill:#ffffff"
   width="5.3649998"
   height="5.3639998"
   id="rect1499" />
	</g>
	<g
   id="LWPOLYLINE_28_">
		<path
   style="fill:#ffffff"
   d="m 428.243,414.687 h 5.364 v -1.789 c 0,-0.579 0.113,-1.152 0.331,-1.688 0.933,-2.286 3.542,-3.383 5.828,-2.45 2.286,0.933 3.384,3.542 2.451,5.828 l -13.975,18.876 v 5.364 h 19.67 v -5.364 h -13.59 l 13.006,-17.224 c 1.845,-5.109 -0.801,-10.747 -5.91,-12.592 -5.108,-1.846 -10.746,0.801 -12.591,5.909 -0.501,1.386 -0.684,2.865 -0.535,4.331 z"
   id="path1502"
   inkscape:connector-curvature="0" />
	</g>
	<g
   id="LWPOLYLINE_29_">
		<path
   style="fill:#ffffff"
   d="m 455.663,443.299 4.325,-5.033 c 1.171,-0.907 1.385,-2.592 0.478,-3.764 -0.907,-1.171 -2.593,-1.385 -3.763,-0.478 -0.657,0.509 -1.04,1.291 -1.04,2.121 z"
   id="path1505"
   inkscape:connector-curvature="0" />
	</g>
	<g
   id="LWPOLYLINE_1_">
		<path
   style="fill:#ffffff"
   d="m 479.879,415.946 c 1.585,-0.821 2.776,-2.24 3.312,-3.942 h 4.065 v 26.823 h -4.024 v -20.654 l -2.947,0.537 z"
   id="path1508"
   inkscape:connector-curvature="0" />
	</g>
</g>
<g
   id="LWPOLYLINE_35_"
   transform="translate(-49.608,-385.179)">
	<rect
   x="361.32401"
   y="403.013"
   style="fill:#ffffff"
   width="5.3639998"
   height="5.3649998"
   id="rect1513" />
</g>
<g
   id="LWPOLYLINE_34_"
   transform="translate(-49.608,-385.179)">
	<rect
   x="351.681"
   y="403.013"
   style="fill:#ffffff"
   width="5.355"
   height="5.3649998"
   id="rect1516" />
</g>
</svg>