<?xml version="1.0" encoding="iso-8859-1"?>
<!-- Generator: Adobe Illustrator 15.1.0, SVG Export Plug-In . SVG Version: 6.00 Build 0)  -->
<!DOCTYPE svg PUBLIC "-//W3C//DTD SVG 1.1//EN" "http://www.w3.org/Graphics/SVG/1.1/DTD/svg11.dtd">
<svg version="1.1" id="Layer_1" xmlns="http://www.w3.org/2000/svg" xmlns:xlink="http://www.w3.org/1999/xlink" x="0px" y="0px"
	 width="595.28px" height="841.89px" viewBox="0 0 595.28 841.89" style="enable-background:new 0 0 595.28 841.89;"
	 xml:space="preserve">
<g>
	<g id="LWPOLYLINE">
		<rect x="49.608" y="385.18" style="fill:#0079C1;" width="496.063" height="71.53"/>
	</g>
	<g id="LWPOLYLINE_33_">
		<path style="fill:#FFFFFF;" d="M59.146,456.71h442.859c5.06,0,9.911-2.009,13.487-5.587l30.179-30.178l-30.179-30.179
			c-3.576-3.577-8.428-5.587-13.487-5.587H59.146c-5.268,0-9.537,4.271-9.538,9.537v52.456
			C49.609,452.44,53.879,456.71,59.146,456.71z"/>
	</g>
	<g id="LWPOLYLINE_2_">
		<path style="fill:#0079C1;" d="M59.146,451.941h437.376c5.072,0.266,9.956-1.96,13.083-5.963l21.761-25.033l-21.761-25.034
			c-3.127-4.003-8.011-6.229-13.083-5.963H59.146c-2.634,0-4.769,2.136-4.769,4.769v52.456
			C54.378,449.807,56.513,451.941,59.146,451.941z"/>
	</g>
	<g id="LWPOLYLINE_3_">
		<path style="fill:#FFFFFF;" d="M103.907,431.354c2.525,6.154,9.563,9.097,15.719,6.571s9.099-9.563,6.572-15.719
			c-1.597-3.892-5.107-6.668-9.262-7.325l0.031-0.469c-2.164-0.335-4.379-0.097-6.422,0.692l-3.014-8.442l-0.307,0.109l-0.754-2.073
			l0.733-0.791l-0.06-1.077l-0.81-0.785l-1.048-0.041l-3.673,0.372l0.053,0.515l3.636-0.369l0.814,0.033l0.522,0.506l0.035,0.656
			l-0.402,0.436l-0.107-0.293l-0.699,0.437l0.999,2.746l-0.278,0.1l0.624,1.749H86.607l-0.104-0.232l-0.306,0.144l-0.368-0.726
			l3.328-2.032l0.217-0.213l0.188-0.406l-0.065-0.28l-0.183-0.166l-0.291-0.103l-0.549-0.04l-1.04,0.062l-1.391,0.026l-2.059-0.228
			l-1.037-0.226l-0.57-0.041l-0.212,0.08l-0.208,0.26l-0.017,0.469l0.077,0.286l0.252,0.554l0.38,0.57l0.433,0.505l0.625,0.608
			l0.603,0.404l0.301,0.116l0.352,0.026l0.467,0.919l-0.311,0.2l0.381,0.854l-3.045,5.248c-6.214-3.028-13.705-0.446-16.733,5.768
			c-0.66,1.354-1.07,2.816-1.211,4.317l0.465,0.053c-0.614,6.625,4.259,12.494,10.884,13.108
			c6.371,0.591,12.094-3.902,13.029-10.232l2.135,0.179c0.1,1.229,0.847,2.311,1.96,2.839l-0.62,2.402H91.37v1.163h3.11v-1.163
			h-0.981l0.542-2.095c1.891,0.232,3.612-1.112,3.846-3.003c0.097-0.791-0.082-1.591-0.508-2.264l11.248-12.624l0.613,1.719
			c-5.716,2.997-8.215,9.852-5.77,15.824L103.907,431.354z"/>
	</g>
	<g id="LWPOLYLINE_4_">
		<path style="fill:#0079C1;" d="M78.353,427.661l8.221,0.688c-0.142,0.867-0.4,1.713-0.77,2.511
			c-2.253,4.878-8.034,7.006-12.912,4.752c-4.878-2.253-7.006-8.033-4.752-12.912c2.253-4.878,8.034-7.006,12.912-4.752
			l-4.177,7.197c-0.902,0.054-1.592,0.829-1.538,1.731c0.054,0.903,0.828,1.592,1.731,1.538
			C77.593,428.384,78.07,428.104,78.353,427.661z"/>
	</g>
	<g id="LWPOLYLINE_5_">
		<path style="fill:#0079C1;" d="M78.298,425.621l4.084-7.038c2.872,1.836,4.574,5.042,4.485,8.449l-8.146-0.682
			C78.646,426.075,78.5,425.823,78.298,425.621z"/>
	</g>
	<g id="LWPOLYLINE_6_">
		<path style="fill:#0079C1;" d="M91.172,427.407l-1.694-0.142c0.174-4.482-2.064-8.715-5.866-11.094l2.554-4.4l6.214,13.924
			C91.809,426.127,91.387,426.726,91.172,427.407z"/>
	</g>
	<g id="LWPOLYLINE_7_">
		<path style="fill:#0079C1;" d="M94.845,425.016l0.486-2.278h-0.954v-1.164h3.005v1.164h-0.926l-0.549,2.574
			c0.118,0.055,0.233,0.116,0.345,0.184l11.771-13.21l-0.647-1.815H87.312l6.509,14.585
			C94.158,424.991,94.504,424.979,94.845,425.016z"/>
	</g>
	<g id="LWPOLYLINE_8_">
		<path style="fill:#0079C1;" d="M115.133,425.145l-0.65-0.675l-0.779-1.309l-0.737-1.275l-1.483-4.156
			c4.483-1.769,9.587,0.013,11.997,4.187c2.686,4.654,1.091,10.604-3.563,13.29c-4.654,2.687-10.604,1.092-13.29-3.562
			c-2.687-4.654-1.092-10.604,3.562-13.29l1.476,4.134l0.808,1.396l0.867,1.459l0.42,0.435c-0.555,0.714-0.424,1.743,0.29,2.297
			c0.715,0.555,1.744,0.425,2.298-0.29c0.555-0.715,0.425-1.743-0.29-2.298C115.791,425.28,115.469,425.161,115.133,425.145z"/>
	</g>
	<g id="LWPOLYLINE_9_">
		<path style="fill:#FFFFFF;" d="M140.658,444.051l-1.94,0.796v0.808l3.644,2.114l1.927-0.269l0.069-12.265l-0.175-1.262
			l0.33-12.194l0.452-0.014l1.675,10.133l-0.067,13.103l2.111,0.057l2.319-2.335v-0.706c-0.383-0.267-0.635-0.682-0.693-1.145
			l0.001-10.192l-1.071-14.06l0.141-7.278l0.539,3.795l5.199,7.896l0.186,0.657l0.563,0.523c0.132,0.123,0.214,0.29,0.232,0.468
			c0.124,1.223,0.478,2.41,1.041,3.502l2.162,0.093c-0.248,2.808-0.711,5.593-1.387,8.329l1.376,0.219l0.757,8.246
			c-0.438,0.067-0.841,0.284-1.139,0.613l0.017,0.47l2.129,1.394l0.924-0.188c0.123-0.024,0.211-0.134,0.208-0.259l-0.084-4.098
			l-0.127-2.546v-3.433l1.221-0.05c0.313,0.236,0.494,0.609,0.485,1.002l-0.18,3.993v3.439c0,0.135,0.104,0.248,0.238,0.259
			l0.858,0.071l1.85-0.847v-0.622c-0.424-0.119-0.766-0.433-0.922-0.845l0.533-5.306l-0.076-1.578l0.419-0.046
			c-0.586-2.44-0.928-4.934-1.021-7.441c0.149,0.316,0.328,0.619,0.531,0.904c0.312,0.392,0.574,0.819,0.78,1.276
			c0.229,0.584,0.428,1.179,0.596,1.782c0.031,0.112,0.008,0.231-0.063,0.324l-0.281,0.367l0.096,0.365l-0.164,0.567l0.816,0.852
			c0.042,0.043,0.112,0.045,0.157,0.002c0.004-0.003,0.662-0.699,0.662-0.699c0.191-0.357,0.299-0.754,0.313-1.158
			c-0.013-1.518-0.391-3.01-1.102-4.351c-0.166-0.32-0.385-0.611-0.646-0.86c-0.382-0.986-0.921-1.906-1.596-2.721
			c-0.126-0.153-0.282-0.279-0.458-0.37c-0.292-0.151-0.595-0.279-0.906-0.383c-0.085-0.027-0.166-0.065-0.242-0.113l-0.395-0.248
			c-0.017-0.011-0.029-0.026-0.033-0.047c-0.009-0.04,0.017-0.079,0.057-0.088l1.25-0.271c0.06-0.013,0.099-0.072,0.085-0.132
			c-0.003-0.015-0.009-0.029-0.018-0.041l-0.132-0.184c-0.055-0.077-0.079-0.174-0.065-0.268l0.261-1.817
			c0.018-0.113,0.017-0.229-0.004-0.343l-0.125-0.714c-0.041-0.234-0.156-0.45-0.329-0.614c-1.097-1.04-2.8-1.094-3.959-0.124
			c-0.178,0.148-0.366,0.285-0.563,0.409c-0.269,0.17-0.35,0.525-0.18,0.794c0.004,0.007,0.009,0.014,0.013,0.021
			c0.021,0.029,0.029,0.066,0.025,0.102l-0.068,0.553c-0.006,0.048-0.002,0.095,0.01,0.141l0.092,0.344
			c0.022,0.086,0.02,0.177-0.01,0.261l-0.054,0.154c-0.091,0.261-0.097,0.544-0.015,0.809l0.067,0.219
			c0.077,0.251,0.229,0.473,0.435,0.635l0.071,0.057c0.077,0.061,0.171,0.095,0.269,0.096l0.334,0.006
			c0.081,0.001,0.146,0.067,0.146,0.148l-0.001,0.134c0,0.065-0.042,0.122-0.104,0.142l-2.489,0.785
			c-0.109,0.035-0.229-0.02-0.272-0.126l-1.029-2.48l0.444-0.866l-0.362-1.187l-0.94-0.732l-3.046-5.55l-2.011-8.463
			c-0.199-0.838-0.801-1.521-1.606-1.826l-3.109-1.175c-0.066-0.025-0.105-0.093-0.095-0.163l0.08-0.475
			c0.012-0.069,0.07-0.121,0.141-0.123l0.811-0.031c0.179-0.007,0.328-0.142,0.353-0.319l0.252-1.821
			c0.016-0.115,0.004-0.233-0.034-0.344l-0.158-0.457c-0.016-0.048-0.021-0.099-0.016-0.149l0.055-0.534
			c0.017-0.163,0.015-0.328-0.005-0.491l-0.087-0.724c-0.007-0.092,0.028-0.182,0.096-0.243c0.146-0.144,0.146-0.379,0.002-0.523
			c-0.047-0.047-0.104-0.081-0.169-0.098c-0.219-0.06-0.431-0.141-0.634-0.239c-0.887-0.43-1.882-0.584-2.857-0.441
			c-1.228,0.178-2.137,1.231-2.132,2.472c-0.032,1.131,0.094,2.261,0.375,3.356c0.021,0.082,0.071,0.155,0.14,0.206l0.216,0.159
			c0.039,0.028,0.062,0.073,0.061,0.121l-0.012,0.873c-0.001,0.094-0.062,0.177-0.15,0.207l-3.334,1.145
			c-0.644,0.221-1.15,0.724-1.376,1.364l-3.146,8.945l0.544,7.688l0.307,2.618l1.222,1.078l1.367-0.423l-0.157-1.319l0.268-0.942
			l-0.607-1.394l-0.044-5.867c0.26-1.896,0.893-3.721,1.862-5.37L140.658,444.051z"/>
	</g>
	<g id="LWPOLYLINE_11_">
		<path style="fill:#FFFFFF;" d="M186.112,422.733h6.975c5.037,0,9.12-4.083,9.12-9.12v-1.431c0-5.037-4.083-9.12-9.12-9.12h-12.339
			v35.765h5.364V422.733z"/>
	</g>
	<g id="LWPOLYLINE_10_">
		<path style="fill:#0079C1;" d="M186.112,417.368h6.975c2.074,0,3.755-1.681,3.755-3.755v-1.431c0-2.074-1.681-3.756-3.755-3.756
			h-6.975V417.368z"/>
	</g>
	<g id="LWPOLYLINE_12_">
		<rect x="206.141" y="412.004" style="fill:#FFFFFF;" width="5.365" height="26.823"/>
	</g>
	<g id="LWPOLYLINE_13_">
		<rect x="206.141" y="403.063" style="fill:#FFFFFF;" width="5.365" height="5.364"/>
	</g>
	<g id="LWPOLYLINE_14_">
		<path style="fill:#FFFFFF;" d="M236.542,418.62v-0.179c0-3.556-2.883-6.438-6.438-6.438c-2.158,0.267-4.232,0.999-6.08,2.146
			v-11.087h-5.364v35.765h5.364v-18.955c0-1.976,1.602-3.576,3.576-3.576c1.976,0,3.577,1.601,3.577,3.576v18.955h5.365V418.62z"/>
	</g>
	<g id="LWPOLYLINE_15_">
		<rect x="242.979" y="403.063" style="fill:#FFFFFF;" width="5.364" height="35.765"/>
	</g>
	<g id="LWPOLYLINE_16_">
		<path style="fill:#FFFFFF;" d="M271.949,438.827h-5.365v-1.717c-2.154,1.163-4.571,1.754-7.02,1.716
			c-2.202,0.059-4.184-1.329-4.882-3.418c-0.871-2.744-0.137-5.744,1.902-7.775c2.608-2.803,6.181-4.519,9.999-4.803v-2.779
			c0-1.481-1.201-2.683-2.682-2.683c-1.481,0-2.683,1.201-2.683,2.683h-5.365c0-4.444,3.603-8.047,8.048-8.047
			c4.443,0,8.047,3.603,8.047,8.047V438.827z"/>
	</g>
	<g id="LWPOLYLINE_17_">
		<path style="fill:#0079C1;" d="M266.584,426.326c-1.789,0.432-3.45,1.281-4.847,2.48c-1.253,1.101-1.964,2.695-1.944,4.363
			c0.024,1.086,0.925,1.947,2.011,1.922c0.089-0.001,0.178-0.01,0.267-0.023c1.579-0.255,3.105-0.774,4.514-1.534V426.326z"/>
	</g>
	<g id="LWPOLYLINE_18_">
		<path style="fill:#FFFFFF;" d="M283.752,412.004v26.108c0,4.346-3.523,7.868-7.869,7.868h-0.715l0.715-5.364
			c1.383,0,2.504-1.121,2.504-2.504v-26.108H283.752z"/>
	</g>
	<g id="LWPOLYLINE_19_">
		<rect x="278.387" y="403.063" style="fill:#FFFFFF;" width="5.365" height="5.364"/>
	</g>
	<g id="LWPOLYLINE_20_">
		<path style="fill:#FFFFFF;" d="M307.356,438.827h-5.364v-1.717c-2.155,1.163-4.572,1.754-7.021,1.716
			c-2.202,0.059-4.184-1.329-4.882-3.418c-0.871-2.744-0.137-5.744,1.902-7.775c2.609-2.803,6.181-4.519,10-4.803v-2.779
			c0-1.481-1.201-2.683-2.683-2.683s-2.683,1.201-2.683,2.683h-5.364c0-4.444,3.603-8.047,8.047-8.047
			c4.443,0,8.047,3.603,8.047,8.047V438.827z"/>
	</g>
	<g id="LWPOLYLINE_21_">
		<path style="fill:#0079C1;" d="M301.992,426.326c-1.79,0.432-3.45,1.281-4.848,2.48c-1.253,1.101-1.963,2.695-1.944,4.363
			c0.024,1.086,0.925,1.947,2.011,1.922c0.089-0.001,0.179-0.01,0.267-0.023c1.58-0.255,3.106-0.774,4.515-1.534V426.326z"/>
	</g>
	<g id="LWPOLYLINE_22_">
		<path style="fill:#FFFFFF;" d="M329.393,413.522c-1.162-0.981-2.633-1.519-4.153-1.519c-2.158,0.267-4.232,0.999-6.08,2.146
			v-2.146h-5.364v26.823h5.364v-18.955c0-1.976,1.601-3.576,3.576-3.576s3.577,1.601,3.577,3.576v18.955h5.364v-18.955
			c0-1.976,1.602-3.576,3.577-3.576c1.975,0,3.576,1.601,3.576,3.576v18.955h5.364l-0.002-20.439
			c-0.245-3.438-2.995-6.167-6.436-6.384C334.879,411.635,331.957,412.165,329.393,413.522z"/>
	</g>
	<g id="LWPOLYLINE_23_">
		<path style="fill:#FFFFFF;" d="M367.084,438.827h-5.364v-1.717c-2.155,1.163-4.572,1.754-7.021,1.716
			c-2.201,0.059-4.184-1.329-4.881-3.418c-0.872-2.744-0.138-5.744,1.901-7.775c2.609-2.803,6.181-4.519,10-4.803v-2.779
			c0-1.481-1.201-2.683-2.683-2.683s-2.682,1.201-2.682,2.683h-5.366c0-4.444,3.604-8.047,8.048-8.047s8.047,3.603,8.047,8.047
			V438.827z"/>
	</g>
	<g id="LWPOLYLINE_24_">
		<path style="fill:#0079C1;" d="M361.72,426.326c-1.79,0.432-3.45,1.281-4.847,2.48c-1.254,1.101-1.964,2.695-1.945,4.363
			c0.024,1.086,0.925,1.947,2.011,1.922c0.09-0.001,0.179-0.01,0.267-0.023c1.58-0.255,3.106-0.774,4.515-1.534V426.326z"/>
	</g>
	<g id="LWPOLYLINE_25_">
		<polygon style="fill:#FFFFFF;" points="378.887,438.827 373.522,438.827 373.522,403.063 378.887,403.063 378.887,422.825 
			386.04,412.004 391.404,412.004 385.281,421.188 391.44,438.835 386.04,438.827 381.73,426.516 378.887,430.78 		"/>
	</g>
	<g id="LWPOLYLINE_26_">
		<rect x="396.054" y="412.004" style="fill:#FFFFFF;" width="5.365" height="26.823"/>
	</g>
	<g id="LWPOLYLINE_27_">
		<rect x="396.054" y="403.063" style="fill:#FFFFFF;" width="5.365" height="5.364"/>
	</g>
	<g id="LWPOLYLINE_28_">
		<path style="fill:#FFFFFF;" d="M428.243,414.687h5.364v-1.789c0-0.579,0.113-1.152,0.331-1.688
			c0.933-2.286,3.542-3.383,5.828-2.45s3.384,3.542,2.451,5.828l-13.975,18.876v5.364h19.67v-5.364h-13.59l13.006-17.224
			c1.845-5.109-0.801-10.747-5.91-12.592c-5.108-1.846-10.746,0.801-12.591,5.909c-0.501,1.386-0.684,2.865-0.535,4.331
			L428.243,414.687z"/>
	</g>
	<g id="LWPOLYLINE_29_">
		<path style="fill:#FFFFFF;" d="M455.663,443.299l4.325-5.033c1.171-0.907,1.385-2.592,0.478-3.764
			c-0.907-1.171-2.593-1.385-3.763-0.478c-0.657,0.509-1.04,1.291-1.04,2.121V443.299z"/>
	</g>
	<g id="LWPOLYLINE_1_">
		<path style="fill:#FFFFFF;" d="M479.879,415.946c1.585-0.821,2.776-2.24,3.312-3.942h4.065v26.823h-4.024v-20.654l-2.947,0.537
			L479.879,415.946z"/>
	</g>
</g>
<g id="LWPOLYLINE_35_">
	<rect x="361.324" y="403.013" style="fill:#FFFFFF;" width="5.364" height="5.365"/>
</g>
<g id="LWPOLYLINE_34_">
	<rect x="351.681" y="403.013" style="fill:#FFFFFF;" width="5.355" height="5.365"/>
</g>
</svg>
