<?xml version="1.0" encoding="iso-8859-1"?>
<!-- Generator: Adobe Illustrator 15.1.0, SVG Export Plug-In . SVG Version: 6.00 Build 0)  -->
<!DOCTYPE svg PUBLIC "-//W3C//DTD SVG 1.1//EN" "http://www.w3.org/Graphics/SVG/1.1/DTD/svg11.dtd">
<svg version="1.1" id="Layer_1" xmlns="http://www.w3.org/2000/svg" xmlns:xlink="http://www.w3.org/1999/xlink" x="0px" y="0px"
	 width="595px" height="842px" viewBox="0 0 595 842" style="enable-background:new 0 0 595 842;" xml:space="preserve">
<g>
	<rect x="59.104" y="296.96" style="fill-rule:evenodd;clip-rule:evenodd;fill:#FFD200;" width="466.848" height="105.696"/>
	<polygon style="fill-rule:evenodd;clip-rule:evenodd;" points="59.104,306.104 59.968,303.728 61.12,301.352 62.704,299.408 
		64.72,298.184 67.888,296.96 466.336,296.96 469.504,297.824 473.104,298.976 476.704,300.56 477.856,301.784 525.952,349.808 
		479.44,396.32 476.704,398.696 473.536,400.712 471.52,401.072 469.936,401.864 468.352,402.296 466.336,402.296 68.248,402.296 
		65.872,401.864 63.496,400.712 62.704,399.92 61.12,397.904 60.328,396.752 59.536,394.376 	"/>
	<polygon style="fill-rule:evenodd;clip-rule:evenodd;fill:#FFD200;" points="64.288,307.328 64.72,305.744 65.512,304.16 
		67.096,302.936 68.68,302.144 462.808,302.144 464.392,302.576 465.976,303.368 467.128,304.952 467.92,306.536 467.92,307.328 
		467.92,391.928 467.56,393.944 466.768,395.168 464.392,396.752 462.808,397.112 69.904,397.112 67.888,397.112 66.304,395.96 
		65.08,394.736 64.288,391.928 	"/>
	<g>
		<polygon style="fill-rule:evenodd;clip-rule:evenodd;" points="90.928,376.088 98.848,376.088 98.848,352.256 117.136,352.256 
			117.136,376.088 125.128,376.088 125.128,323.24 117.136,323.24 117.136,344.264 98.848,344.264 98.848,323.24 90.928,323.24 		
			"/>
		<polygon style="fill-rule:evenodd;clip-rule:evenodd;" points="142.984,323.24 172.36,323.24 172.36,331.16 150.904,331.16 
			150.904,344.264 165.232,344.264 165.232,352.256 150.904,352.256 150.904,368.096 172.36,368.096 172.36,376.088 
			142.984,376.088 		"/>
		<rect x="185.536" y="323.24" style="fill-rule:evenodd;clip-rule:evenodd;" width="7.92" height="52.848"/>
		<polygon style="fill-rule:evenodd;clip-rule:evenodd;" points="211.312,376.088 211.312,323.24 219.304,323.24 237.52,358.952 
			237.52,323.24 245.512,323.24 245.512,376.088 237.52,376.088 219.304,340.304 219.304,376.088 		"/>
		<polygon style="fill-rule:evenodd;clip-rule:evenodd;" points="278.056,323.24 284.032,325.184 287.992,327.992 290.368,330.008 
			292.384,334.328 293.608,338.72 293.608,360.536 293.176,363.776 291.232,368.096 287.992,371.696 284.032,374.504 
			279.64,375.656 276.472,376.088 273.304,375.656 268.912,374.504 264.952,371.696 261.784,368.096 260.2,363.776 259.408,358.952 
			259.408,340.304 260.2,335.912 261.784,331.592 264.952,327.992 268.912,325.184 273.304,323.6 		"/>
		<polygon style="fill-rule:evenodd;clip-rule:evenodd;fill:#FFD200;" points="277.696,331.16 280.072,331.952 284.032,334.76 
			285.256,337.136 285.616,340.304 285.616,358.952 285.256,362.552 283.24,365.36 280.072,367.304 276.472,368.096 
			272.944,367.304 270.928,366.152 268.552,363.344 267.76,361.4 267.76,337.928 269.344,334.76 271.72,332.384 275.32,331.16 		"/>
		<polygon style="fill-rule:evenodd;clip-rule:evenodd;" points="307.432,323.24 315.352,323.24 315.352,368.096 333.64,368.096 
			333.64,376.088 307.432,376.088 		"/>
		<polygon style="fill-rule:evenodd;clip-rule:evenodd;" points="351.928,376.088 344.008,376.088 357.904,323.24 367.048,323.24 
			380.944,376.088 372.952,376.088 370.576,366.944 354.736,366.944 		"/>
		<polygon style="fill-rule:evenodd;clip-rule:evenodd;fill:#FFD200;" points="356.68,358.952 362.656,339.08 368.2,358.952 		"/>
		<polygon style="fill-rule:evenodd;clip-rule:evenodd;" points="408.736,331.16 408.736,323.24 433.36,323.24 432.568,329.576 
			431.416,335.912 429.832,341.888 427.384,347.432 426.232,353.408 425.44,359.744 425.008,366.152 425.008,376.088 
			417.088,376.088 417.52,362.552 418.312,356.576 419.464,350.672 421.48,345.056 423.856,339.944 425.44,334.328 426.232,331.16 
					"/>
	</g>
</g>
</svg>
