<?xml version="1.0" encoding="UTF-8" standalone="no"?>
<!-- Generator: Adobe Illustrator 15.1.0, SVG Export Plug-In . SVG Version: 6.00 Build 0)  -->

<svg
   xmlns:dc="http://purl.org/dc/elements/1.1/"
   xmlns:cc="http://creativecommons.org/ns#"
   xmlns:rdf="http://www.w3.org/1999/02/22-rdf-syntax-ns#"
   xmlns:svg="http://www.w3.org/2000/svg"
   xmlns="http://www.w3.org/2000/svg"
   xmlns:sodipodi="http://sodipodi.sourceforge.net/DTD/sodipodi-0.dtd"
   xmlns:inkscape="http://www.inkscape.org/namespaces/inkscape"
   version="1.1"
   id="Layer_1"
   x="0px"
   y="0px"
   width="430.1297"
   height="99.0737"
   viewBox="0 0 430.1297 99.0737"
   xml:space="preserve"
   sodipodi:docname="648.svg"
   inkscape:version="0.92.5 (2060ec1f9f, 2020-04-08)"><metadata
   id="metadata1613"><rdf:RDF><cc:Work
       rdf:about=""><dc:format>image/svg+xml</dc:format><dc:type
         rdf:resource="http://purl.org/dc/dcmitype/StillImage" /></cc:Work></rdf:RDF></metadata><defs
   id="defs1611" /><sodipodi:namedview
   pagecolor="#ffffff"
   bordercolor="#666666"
   borderopacity="1"
   objecttolerance="10"
   gridtolerance="10"
   guidetolerance="10"
   inkscape:pageopacity="0"
   inkscape:pageshadow="2"
   inkscape:window-width="640"
   inkscape:window-height="480"
   id="namedview1609"
   showgrid="false"
   inkscape:zoom="0.28028504"
   inkscape:cx="217.44485"
   inkscape:cy="3.4008537"
   inkscape:window-x="0"
   inkscape:window-y="0"
   inkscape:window-maximized="0"
   inkscape:current-layer="Layer_1" />
<g
   id="g1606"
   transform="translate(-80.055148,-325.32715)">
	
		<rect
   x="80.559998"
   y="325.832"
   style="clip-rule:evenodd;fill:#ffffff;fill-rule:evenodd;stroke:#000000;stroke-width:1.00969994;stroke-miterlimit:10"
   width="429.12"
   height="98.064003"
   id="rect1580" />
	<polygon
   style="clip-rule:evenodd;fill-rule:evenodd"
   points="82.432,330.152 83.872,328.352 85.672,326.912 87.832,326.192 90.424,325.832 455.896,326.192 459.208,327.272 462.448,328.352 464.968,330.512 509.68,374.864 466.48,418.496 464.968,419.576 463.528,420.656 460.648,422.024 457.768,423.464 454.096,423.896 89.344,423.896 85.672,422.744 83.872,421.664 82.432,419.936 81.352,417.776 80.56,415.544 80.56,334.544 81.352,332.384 "
   id="polygon1582" />
	<polygon
   style="clip-rule:evenodd;fill:#ffffff;fill-rule:evenodd"
   points="87.112,332.024 89.344,330.872 450.856,330.872 452.656,331.232 454.096,332.024 454.456,332.744 455.536,334.184 455.536,335.624 455.536,415.184 455.176,416.696 454.096,418.136 452.656,418.856 450.856,419.216 90.424,419.216 88.624,418.856 87.112,418.136 86.032,416.696 85.672,415.904 85.312,414.104 85.312,335.624 85.672,334.184 "
   id="polygon1584" />
	<g
   id="g1604">
		<polygon
   style="clip-rule:evenodd;fill-rule:evenodd"
   points="117.28,350.528 117.28,374.144 132.904,350.528 141.976,350.528 127.864,371.624 141.976,399.56 133.624,399.56 123.112,378.536 117.28,387.248 117.28,399.56 110.008,399.56 110.008,350.528 "
   id="polygon1586" />
		<polygon
   style="clip-rule:evenodd;fill-rule:evenodd"
   points="238.672,350.528 238.672,374.144 254.296,350.528 263.368,350.528 249.184,371.624 263.368,399.56 255.016,399.56 244.504,378.536 238.672,387.248 238.672,399.56 231.4,399.56 231.4,350.528 "
   id="polygon1588" />
		<polygon
   style="clip-rule:evenodd;fill-rule:evenodd"
   points="178.696,357.8 159.112,357.8 159.112,370.184 172.144,370.184 172.144,377.384 159.112,377.384 159.112,392.288 178.696,392.288 178.696,399.56 151.84,399.56 151.84,350.528 178.696,350.528 "
   id="polygon1590" />
		<polygon
   style="clip-rule:evenodd;fill-rule:evenodd"
   points="210.304,360.68 208.504,358.88 204.544,357.8 200.872,357.8 198.352,358.88 196.912,360.68 196.192,363.272 196.552,365.792 199.072,368.312 209.944,372.344 212.536,373.424 215.776,375.944 217.936,379.256 219.016,383.216 219.448,387.248 218.296,391.208 216.136,394.52 213.256,397.04 208.504,399.56 200.872,399.56 197.632,398.48 193.96,396.32 190.72,393.008 188.56,389.408 187.768,385.808 187.408,383.576 194.68,383.576 195.04,385.808 196.552,389.048 199.432,391.208 202.672,391.928 205.984,391.928 208.864,390.128 211.024,387.608 211.816,385.808 211.384,382.856 210.664,381.416 209.224,380.336 207.424,379.256 196.192,375.224 193.96,373.784 191.8,371.984 190.36,369.752 188.92,365.792 188.92,362.552 189.28,359.24 190.72,356.72 192.16,354.92 193.96,352.688 196.552,351.608 199.072,350.888 201.592,350.528 205.264,350.528 209.224,350.888 212.896,353.048 215.776,356 217.576,359.6 218.296,363.632 210.664,363.632 "
   id="polygon1592" />
		<polygon
   style="clip-rule:evenodd;fill-rule:evenodd"
   points="339.976,360.68 338.536,358.88 334.576,357.8 330.904,357.8 328.384,358.88 326.512,360.68 326.152,363.272 326.512,365.792 329.104,368.312 339.976,372.344 342.568,373.424 345.448,375.944 347.968,379.256 349.048,383.216 349.048,387.248 347.968,391.208 346.168,394.52 342.928,397.04 338.536,399.56 330.904,399.56 327.664,398.48 323.632,396.32 320.752,393.008 318.52,389.408 317.8,385.808 317.44,383.576 324.712,383.576 325.072,385.808 326.512,389.048 329.104,391.208 332.344,391.928 336.016,391.928 338.896,390.128 341.056,387.608 341.776,385.808 341.416,382.856 340.336,381.416 339.256,380.336 337.456,379.256 326.152,375.224 323.632,373.784 321.832,371.984 320.392,369.752 318.88,365.792 318.88,362.552 319.312,359.24 320.392,356.72 322.192,354.92 323.992,352.688 326.512,351.608 329.104,350.888 331.624,350.528 335.296,350.528 339.256,350.888 342.928,353.048 345.448,356 347.248,359.6 347.968,363.632 340.696,363.632 "
   id="polygon1594" />
		<polygon
   style="clip-rule:evenodd;fill-rule:evenodd"
   points="280.864,383.576 281.584,386.888 284.104,390.488 288.064,391.928 291.736,391.928 294.616,390.488 296.848,387.968 297.928,384.656 297.928,350.528 305.128,350.528 305.128,385.016 304.408,387.968 303.616,390.488 301.096,394.16 297.568,397.04 293.536,398.84 289.216,399.56 286.264,399.2 282.304,397.76 278.632,395.24 275.032,390.488 273.592,386.528 273.592,383.576 273.592,350.528 280.864,350.528 "
   id="polygon1596" />
		<polygon
   style="clip-rule:evenodd;fill-rule:evenodd"
   points="354.16,357.8 354.16,350.528 386.128,350.528 386.128,357.8 373.816,357.8 373.816,399.56 367.624,398.84 366.544,399.56 366.544,357.8 "
   id="polygon1598" />
		<polygon
   style="clip-rule:evenodd;fill-rule:evenodd"
   points="402.472,350.528 410.824,350.528 423.928,399.56 416.656,399.56 414.136,391.208 399.232,391.208 397.072,399.56 389.44,399.56 "
   id="polygon1600" />
		<polygon
   style="clip-rule:evenodd;fill:#ffffff;fill-rule:evenodd"
   points="411.976,383.936 401.392,383.936 406.864,365.072 "
   id="polygon1602" />
	</g>
</g>
</svg>