<?xml version="1.0" encoding="UTF-8" standalone="no"?>
<!-- Generator: Adobe Illustrator 15.1.0, SVG Export Plug-In . SVG Version: 6.00 Build 0)  -->

<svg
   xmlns:dc="http://purl.org/dc/elements/1.1/"
   xmlns:cc="http://creativecommons.org/ns#"
   xmlns:rdf="http://www.w3.org/1999/02/22-rdf-syntax-ns#"
   xmlns:svg="http://www.w3.org/2000/svg"
   xmlns="http://www.w3.org/2000/svg"
   xmlns:sodipodi="http://sodipodi.sourceforge.net/DTD/sodipodi-0.dtd"
   xmlns:inkscape="http://www.inkscape.org/namespaces/inkscape"
   version="1.1"
   id="Layer_1"
   x="0px"
   y="0px"
   width="496.06299"
   height="259.32602"
   viewBox="0 0 496.06296 259.32601"
   xml:space="preserve"
   sodipodi:docname="649-1.svg"
   inkscape:version="0.92.5 (2060ec1f9f, 2020-04-08)"><metadata
   id="metadata1761"><rdf:RDF><cc:Work
       rdf:about=""><dc:format>image/svg+xml</dc:format><dc:type
         rdf:resource="http://purl.org/dc/dcmitype/StillImage" /></cc:Work></rdf:RDF></metadata><defs
   id="defs1759" /><sodipodi:namedview
   pagecolor="#ffffff"
   bordercolor="#666666"
   borderopacity="1"
   objecttolerance="10"
   gridtolerance="10"
   guidetolerance="10"
   inkscape:pageopacity="0"
   inkscape:pageshadow="2"
   inkscape:window-width="640"
   inkscape:window-height="480"
   id="namedview1757"
   showgrid="false"
   inkscape:zoom="0.28032165"
   inkscape:cx="248.03201"
   inkscape:cy="129.663"
   inkscape:window-x="0"
   inkscape:window-y="0"
   inkscape:window-maximized="0"
   inkscape:current-layer="Layer_1" />
<g
   id="LWPOLYLINE_1278_"
   transform="translate(-49.608,-291.282)">
	<rect
   x="49.608002"
   y="470.60001"
   style="fill:#00a389"
   width="496.06299"
   height="80.008003"
   id="rect1615" />
</g>
<g
   id="LWPOLYLINE_1281_"
   transform="translate(-49.608,-291.282)">
	<path
   style="fill:#ffffff"
   d="m 57.605,470.6 c -4.418,0 -7.997,3.574 -7.997,8.001 v 64.005 c 0,4.418 3.579,8.002 7.997,8.002 H 501.67 c 4.242,0 8.308,-1.686 11.309,-4.687 l 32.692,-35.322 -32.692,-35.313 c -3.001,-3 -7.066,-4.686 -11.309,-4.686 z"
   id="path1618"
   inkscape:connector-curvature="0" />
</g>
<g
   id="LWPOLYLINE_1273_"
   transform="translate(-49.608,-291.282)">
	<path
   style="fill:#00a389"
   d="m 57.605,474.6 c -2.209,0 -3.996,1.788 -3.996,4.001 v 64.005 c 0,2.214 1.787,4.001 3.996,4.001 h 68.011 V 474.6 Z"
   id="path1621"
   inkscape:connector-curvature="0" />
</g>
<g
   id="LWPOLYLINE_1274_"
   transform="translate(-49.608,-291.282)">
	<path
   style="fill:#ffffff"
   d="m 59.606,485.936 v 49.335 c 0,2.945 2.389,5.335 5.334,5.335 h 49.34 c 2.945,0 5.334,-2.39 5.334,-5.335 v -49.335 c 0,-2.954 -2.389,-5.334 -5.334,-5.334 H 64.94 c -2.945,0 -5.334,2.379 -5.334,5.334 z"
   id="path1624"
   inkscape:connector-curvature="0" />
</g>
<g
   id="LWPOLYLINE_1285_"
   transform="translate(-49.608,-291.282)">
	<path
   style="fill:#00a389"
   d="m 64.94,537.938 h 49.34 c 1.473,0 2.667,-1.195 2.667,-2.668 v -49.335 c 0,-1.481 -1.194,-2.667 -2.667,-2.667 H 64.94 c -1.473,0 -2.667,1.186 -2.667,2.667 v 49.335 c 0,1.473 1.195,2.668 2.667,2.668 z"
   id="path1627"
   inkscape:connector-curvature="0" />
</g>
<g
   id="LWPOLYLINE_1442_"
   transform="translate(-49.608,-291.282)">
	<rect
   x="49.608002"
   y="291.28201"
   style="fill:#00a389"
   width="496.06299"
   height="80.017998"
   id="rect1630" />
</g>
<g
   id="LWPOLYLINE_1446_"
   transform="translate(-49.608,-291.282)">
	<path
   style="fill:#ffffff"
   d="m 57.605,291.282 c -4.418,0 -7.997,3.594 -7.997,8.002 v 64.014 c 0,4.418 3.579,8.002 7.997,8.002 H 501.67 c 4.242,0 8.308,-1.686 11.309,-4.687 l 32.692,-35.322 -32.692,-35.313 c -3.001,-3.001 -7.066,-4.695 -11.309,-4.695 H 57.605 Z"
   id="path1633"
   inkscape:connector-curvature="0" />
</g>
<g
   id="LWPOLYLINE_1289_"
   transform="translate(-49.608,-291.282)">
	<path
   style="fill:#00a389"
   d="m 129.617,474.6 v 72.007 H 497.67 c 2.205,0 4.001,-1.787 4.001,-4.001 v -64.005 c 0,-2.213 -1.796,-4.001 -4.001,-4.001 z"
   id="path1636"
   inkscape:connector-curvature="0" />
</g>
<g
   id="LWPOLYLINE_1445_"
   transform="translate(-49.608,-291.282)">
	<path
   style="fill:#00a389"
   d="m 129.617,295.283 v 72.016 H 497.67 c 2.205,0 4.001,-1.797 4.001,-4.001 v -64.014 c 0,-2.204 -1.796,-4.001 -4.001,-4.001 z"
   id="path1639"
   inkscape:connector-curvature="0" />
</g>
<g
   id="LWPOLYLINE_1449_"
   transform="translate(-49.608,-291.282)">
	<path
   style="fill:#00a389"
   d="m 57.605,295.283 c -2.209,0 -3.996,1.797 -3.996,4.001 v 64.014 c 0,2.204 1.787,4.001 3.996,4.001 h 68.011 v -72.016 z"
   id="path1642"
   inkscape:connector-curvature="0" />
</g>
<g
   id="LWPOLYLINE_1266_"
   transform="translate(-49.608,-291.282)">
	<polygon
   style="fill:#ffffff"
   points="306.842,311.286 320.845,338.292 320.845,311.286 326.846,311.286 326.846,351.295 320.845,351.295 306.842,324.289 306.842,351.295 300.84,351.295 300.84,311.286 "
   id="polygon1645" />
</g>
<g
   id="LWPOLYLINE_1448_"
   transform="translate(-49.608,-291.282)">
	<path
   style="fill:#ffffff"
   d="m 59.606,355.963 c 0,2.945 2.389,5.335 5.334,5.335 h 49.34 c 2.945,0 5.334,-2.39 5.334,-5.335 v -49.344 c 0,-2.945 -2.389,-5.335 -5.334,-5.335 H 64.94 c -2.945,0 -5.334,2.39 -5.334,5.335 z"
   id="path1648"
   inkscape:connector-curvature="0" />
</g>
<g
   id="LWPOLYLINE_1269_"
   transform="translate(-49.608,-291.282)">
	<path
   style="fill:#ffffff"
   d="m 475.666,322.289 v 6.261 c -1.427,8.308 -4.918,16.133 -10.15,22.745 h -8.002 c 4.621,-4.667 8.149,-10.289 10.335,-16.476 -1.037,0.315 -2.111,0.473 -3.186,0.473 -6.075,0 -11.002,-4.927 -11.002,-11.003 v -2 c 0,-6.075 4.927,-11.003 11.002,-11.003 6.075,0 11.003,4.928 11.003,11.003 z"
   id="path1651"
   inkscape:connector-curvature="0" />
</g>
<g
   id="LWPOLYLINE_1450_"
   transform="translate(-49.608,-291.282)">
	<path
   style="fill:#00a389"
   d="m 64.94,358.63 h 49.34 c 1.473,0 2.667,-1.194 2.667,-2.667 v -49.344 c 0,-1.464 -1.194,-2.668 -2.667,-2.668 H 64.94 c -1.473,0 -2.667,1.204 -2.667,2.668 v 49.344 c 0,1.473 1.195,2.667 2.667,2.667 z"
   id="path1654"
   inkscape:connector-curvature="0" />
</g>
<g
   id="LWPOLYLINE_1270_"
   transform="translate(-49.608,-291.282)">
	<polygon
   style="fill:#ffffff"
   points="340.441,351.295 340.441,311.286 346.442,311.286 346.442,330.494 359.251,311.286 366.447,311.286 355.047,328.29 366.447,351.295 359.649,351.295 351.249,334.088 346.442,341.293 346.442,351.295 "
   id="polygon1657" />
</g>
<g
   id="LWPOLYLINE_1271_"
   transform="translate(-49.608,-291.282)">
	<rect
   x="374.44901"
   y="311.28601"
   style="fill:#ffffff"
   width="6.0009999"
   height="40.008999"
   id="rect1660" />
</g>
<g
   id="LWPOLYLINE_1272_"
   transform="translate(-49.608,-291.282)">
	<path
   style="fill:#ffffff"
   d="m 431.859,317.167 c 2.362,-1.222 4.14,-3.343 4.937,-5.881 h 6.066 v 40.009 h -6.002 v -30.803 l -4.398,0.797 z"
   id="path1663"
   inkscape:connector-curvature="0" />
</g>
<g
   id="LWPOLYLINE_1277_"
   transform="translate(-49.608,-291.282)">
	<path
   style="fill:#ffffff"
   d="m 102.681,526.603 c 0.152,1.473 1.477,2.547 2.949,2.389 1.26,-0.139 2.251,-1.13 2.38,-2.389 v -4.001 h 1.07 l 1.356,-12.188 c 0.139,-1.287 -0.652,-2.481 -1.889,-2.853 l -0.538,-0.157 -3.139,-9.882 c -0.353,-1.102 -1.38,-1.852 -2.543,-1.852 h -24.37 c -1.157,0 -2.186,0.75 -2.537,1.852 l -3.145,9.882 -0.537,0.157 c -1.236,0.371 -2.023,1.565 -1.885,2.853 l 1.353,12.188 h 1.069 v 4.001 c 0.153,1.473 1.478,2.547 2.95,2.389 1.259,-0.139 2.25,-1.13 2.385,-2.389 v -4.001 h 25.07 v 4.001 z"
   id="path1666"
   inkscape:connector-curvature="0" />
</g>
<g
   id="LWPOLYLINE_1275_"
   transform="translate(-49.608,-291.282)">
	<path
   style="fill:#00a389"
   d="m 78.411,511.923 h 23.468 c 0,-0.277 0.037,-0.546 0.098,-0.806 H 78.31 c 0.064,0.26 0.101,0.529 0.101,0.806 z"
   id="path1669"
   inkscape:connector-curvature="0" />
</g>
<g
   id="ELLIPSE_8_"
   transform="translate(-49.608,-291.282)">
	<path
   style="fill:#00a389"
   d="m 107.482,511.933 c 0,-1.177 -0.959,-2.131 -2.14,-2.131 -1.176,0 -2.13,0.954 -2.13,2.131 0,1.176 0.954,2.139 2.13,2.139 1.181,-10e-4 2.14,-0.964 2.14,-2.139"
   id="path1672"
   inkscape:connector-curvature="0" />
</g>
<g
   id="LWPOLYLINE_1276_"
   transform="translate(-49.608,-291.282)">
	<rect
   x="281.233"
   y="311.28601"
   style="fill:#ffffff"
   width="6.0019999"
   height="40.008999"
   id="rect1675" />
</g>
<g
   id="LWPOLYLINE_1279_"
   transform="translate(-49.608,-291.282)">
	<path
   style="fill:#ffffff"
   d="m 410.855,317.167 c 2.361,-1.222 4.14,-3.343 4.936,-5.881 h 6.066 v 40.009 h -6.001 v -30.803 l -4.399,0.797 z"
   id="path1678"
   inkscape:connector-curvature="0" />
</g>
<g
   id="LWPOLYLINE_1280_"
   transform="translate(-49.608,-291.282)">
	<path
   style="fill:#00a389"
   d="m 459.662,322.289 v 2 c 0,2.76 2.241,5.001 5.001,5.001 2.76,0 5.001,-2.241 5.001,-5.001 v -2 c 0,-2.76 -2.241,-5.001 -5.001,-5.001 -2.76,0 -5.001,2.241 -5.001,5.001 z"
   id="path1681"
   inkscape:connector-curvature="0" />
</g>
<g
   id="ELLIPSE_9_"
   transform="translate(-49.608,-291.282)">
	<path
   style="fill:#00a389"
   d="m 77.077,511.933 c 0,-1.177 -0.953,-2.131 -2.135,-2.131 -1.181,0 -2.135,0.954 -2.135,2.131 0,1.176 0.954,2.139 2.135,2.139 1.182,-10e-4 2.135,-0.964 2.135,-2.139"
   id="path1684"
   inkscape:connector-curvature="0" />
</g>
<g
   id="LWPOLYLINE_1290_"
   transform="translate(-49.608,-291.282)">
	<path
   style="fill:#00a389"
   d="m 77.614,514.146 h 25.062 c -0.204,-0.24 -0.37,-0.509 -0.495,-0.796 H 78.105 c -0.125,0.287 -0.292,0.555 -0.491,0.796 z"
   id="path1687"
   inkscape:connector-curvature="0" />
</g>
<g
   id="LWPOLYLINE_1293_"
   transform="translate(-49.608,-291.282)">
	<path
   style="fill:#00a389"
   d="m 102.027,499.328 1.954,7.427 c -9.178,-1.277 -18.495,-1.277 -27.673,0 l 1.954,-7.427 c 0.157,-0.593 0.686,-1.001 1.292,-1.001 h 21.176 c 0.612,0 1.14,0.408 1.297,1.001 z"
   id="path1690"
   inkscape:connector-curvature="0" />
</g>
<g
   id="LWPOLYLINE_1447_"
   transform="translate(-49.608,-291.282)">
	<polygon
   style="fill:#ffffff"
   points="80.541,354.759 83.264,332.097 88.395,332.097 87.746,354.759 "
   id="polygon1693" />
</g>
<g
   id="LWPOLYLINE_1451_"
   transform="translate(-49.608,-291.282)">
	<polygon
   style="fill:#ffffff"
   points="90.146,308.092 90.595,323.826 94.966,323.826 93.081,308.092 "
   id="polygon1696" />
</g>
<g
   id="LWPOLYLINE_1452_"
   transform="translate(-49.608,-291.282)">
	<polygon
   style="fill:#ffffff"
   points="98.68,354.759 95.961,332.097 90.83,332.097 91.479,354.759 "
   id="polygon1699" />
</g>
<g
   id="LWPOLYLINE_1453_"
   transform="translate(-49.608,-291.282)">
	<polygon
   style="fill:#ffffff"
   points="101.61,328.096 102.412,330.763 98.68,330.763 99.744,328.096 79.477,328.096 80.541,330.763 76.809,330.763 77.61,328.096 71.475,328.096 71.475,325.16 107.746,325.16 107.746,328.096 "
   id="polygon1702" />
</g>
<g
   id="LWPOLYLINE_1454_"
   transform="translate(-49.608,-291.282)">
	<polygon
   style="fill:#ffffff"
   points="89.08,308.092 88.626,323.826 84.255,323.826 86.145,308.092 "
   id="polygon1705" />
</g>
<g
   id="LWPOLYLINE_1455_"
   transform="translate(-49.608,-291.282)">
	<polygon
   style="fill:#ffffff"
   points="155.623,333.291 155.623,351.295 149.621,351.295 149.621,311.286 155.623,311.286 155.623,327.29 169.621,327.29 169.621,311.286 175.622,311.286 175.622,351.295 169.621,351.295 169.621,333.291 "
   id="polygon1708" />
</g>
<g
   id="LWPOLYLINE_1456_"
   transform="translate(-49.608,-291.282)">
	<path
   style="fill:#ffffff"
   d="m 264.285,322.095 c -0.129,-2.594 -2.194,-4.668 -4.778,-4.807 h -2.52 c -2.621,0.166 -4.612,2.426 -4.445,5.047 0.093,1.39 0.787,2.677 1.903,3.511 l 10.674,3.908 c 2.773,1.657 4.732,4.398 5.408,7.557 1.334,6.289 -2.677,12.466 -8.96,13.809 -0.088,0.01 -0.172,0.028 -0.264,0.037 -7.766,1.158 -14.994,-4.214 -16.143,-11.984 l 5.932,-0.88 c 0.662,4.492 4.844,7.595 9.335,6.928 3.043,-0.713 4.918,-3.751 4.2,-6.779 -0.314,-1.324 -1.093,-2.491 -2.204,-3.287 l -10.696,-3.918 c -3.084,-1.861 -5.029,-5.149 -5.187,-8.752 -0.25,-5.937 4.362,-10.938 10.289,-11.197 h 2.807 c 5.853,0.214 10.525,4.955 10.65,10.817 z"
   id="path1711"
   inkscape:connector-curvature="0" />
</g>
<g
   id="LWPOLYLINE_1457_"
   transform="translate(-49.608,-291.282)">
	<polygon
   style="fill:#ffffff"
   points="211.228,345.294 195.224,345.294 195.224,333.291 206.027,333.291 206.027,327.29 195.224,327.29 195.224,317.288 211.228,317.288 211.228,311.286 189.223,311.286 189.223,351.295 211.228,351.295 "
   id="polygon1714" />
</g>
<g
   id="LWPOLYLINE_1458_"
   transform="translate(-49.608,-291.282)">
	<polygon
   style="fill:#ffffff"
   points="228.027,311.286 228.027,345.294 242.03,345.294 242.03,351.295 222.026,351.295 222.026,311.286 "
   id="polygon1717" />
</g>
<g
   id="LWPOLYLINE_1282_"
   transform="translate(-49.608,-291.282)">
	<polygon
   style="fill:#ffffff"
   points="211.228,524.602 195.224,524.602 195.224,512.6 206.027,512.6 206.027,506.598 195.224,506.598 195.224,496.596 211.228,496.596 211.228,490.604 189.223,490.604 189.223,530.604 211.228,530.604 "
   id="polygon1720" />
</g>
<g
   id="LWPOLYLINE_1283_"
   transform="translate(-49.608,-291.282)">
	<rect
   x="281.233"
   y="490.604"
   style="fill:#ffffff"
   width="6.0019999"
   height="40"
   id="rect1723" />
</g>
<g
   id="LWPOLYLINE_1284_"
   transform="translate(-49.608,-291.282)">
	<polygon
   style="fill:#ffffff"
   points="228.027,490.604 228.027,524.602 242.03,524.602 242.03,530.604 222.026,530.604 222.026,490.604 "
   id="polygon1726" />
</g>
<g
   id="LWPOLYLINE_1286_"
   transform="translate(-49.608,-291.282)">
	<rect
   x="374.44901"
   y="490.604"
   style="fill:#ffffff"
   width="6.0009999"
   height="40"
   id="rect1729" />
</g>
<g
   id="LWPOLYLINE_1287_"
   transform="translate(-49.608,-291.282)">
	<polygon
   style="fill:#ffffff"
   points="340.441,530.604 340.441,490.604 346.442,490.604 346.442,509.802 359.251,490.604 366.447,490.604 355.047,507.598 366.447,530.604 359.649,530.604 351.249,513.405 346.442,520.601 346.442,530.604 "
   id="polygon1732" />
</g>
<g
   id="LWPOLYLINE_1288_"
   transform="translate(-49.608,-291.282)">
	<path
   style="fill:#ffffff"
   d="m 410.855,496.476 c 2.361,-1.223 4.14,-3.334 4.936,-5.872 h 6.066 v 40 h -6.001 V 499.8 l -4.399,0.797 z"
   id="path1735"
   inkscape:connector-curvature="0" />
</g>
<g
   id="LWPOLYLINE_1292_"
   transform="translate(-49.608,-291.282)">
	<polygon
   style="fill:#ffffff"
   points="155.623,512.6 155.623,530.604 149.621,530.604 149.621,490.604 155.623,490.604 155.623,506.598 169.621,506.598 169.621,490.604 175.622,490.604 175.622,530.604 169.621,530.604 169.621,512.6 "
   id="polygon1738" />
</g>
<g
   id="LWPOLYLINE_1294_"
   transform="translate(-49.608,-291.282)">
	<polygon
   style="fill:#ffffff"
   points="306.842,490.604 320.845,517.601 320.845,490.604 326.846,490.604 326.846,530.604 320.845,530.604 306.842,503.597 306.842,530.604 300.84,530.604 300.84,490.604 "
   id="polygon1741" />
</g>
<g
   id="LWPOLYLINE_1295_"
   transform="translate(-49.608,-291.282)">
	<path
   style="fill:#ffffff"
   d="m 475.666,501.597 v 6.261 c -1.427,8.308 -4.918,16.133 -10.15,22.746 h -8.002 c 4.621,-4.659 8.149,-10.29 10.335,-16.477 -1.037,0.315 -2.111,0.473 -3.186,0.473 -6.075,0 -11.002,-4.927 -11.002,-11.003 v -2 c 0,-6.075 4.927,-10.993 11.002,-10.993 6.075,0 11.003,4.917 11.003,10.993 z"
   id="path1744"
   inkscape:connector-curvature="0" />
</g>
<g
   id="LWPOLYLINE_1297_"
   transform="translate(-49.608,-291.282)">
	<path
   style="fill:#ffffff"
   d="m 264.285,501.402 c -0.129,-2.593 -2.194,-4.668 -4.778,-4.807 h -2.52 c -2.621,0.167 -4.612,2.427 -4.445,5.047 0.093,1.39 0.787,2.668 1.903,3.501 l 10.674,3.918 c 2.773,1.657 4.732,4.398 5.408,7.566 1.334,6.279 -2.677,12.466 -8.96,13.799 -0.088,0.019 -0.172,0.028 -0.264,0.037 -7.766,1.148 -14.994,-4.214 -16.143,-11.983 l 5.932,-0.88 c 0.662,4.491 4.844,7.594 9.335,6.927 3.043,-0.713 4.918,-3.751 4.2,-6.779 -0.314,-1.324 -1.093,-2.491 -2.204,-3.287 l -10.696,-3.918 c -3.084,-1.861 -5.029,-5.149 -5.187,-8.752 -0.25,-5.927 4.362,-10.946 10.289,-11.188 h 2.807 c 5.853,0.204 10.525,4.945 10.65,10.799 z"
   id="path1747"
   inkscape:connector-curvature="0" />
</g>
<g
   id="LWPOLYLINE_1298_"
   transform="translate(-49.608,-291.282)">
	<path
   style="fill:#ffffff"
   d="m 431.859,496.476 c 2.362,-1.223 4.14,-3.334 4.937,-5.872 h 6.066 v 40 H 436.86 V 499.8 l -4.398,0.797 z"
   id="path1750"
   inkscape:connector-curvature="0" />
</g>
<g
   id="LWPOLYLINE_1302_"
   transform="translate(-49.608,-291.282)">
	<path
   style="fill:#00a389"
   d="m 459.662,501.597 v 2 c 0,2.77 2.241,5.002 5.001,5.002 2.76,0 5.001,-2.232 5.001,-5.002 v -2 c 0,-2.76 -2.241,-5.001 -5.001,-5.001 -2.76,0 -5.001,2.241 -5.001,5.001 z"
   id="path1753"
   inkscape:connector-curvature="0" />
</g>
</svg>