<?xml version="1.0" encoding="utf-8"?>
<!-- Generator: Adobe Illustrator 15.1.0, SVG Export Plug-In . SVG Version: 6.00 Build 0)  -->
<!DOCTYPE svg PUBLIC "-//W3C//DTD SVG 1.0//EN" "http://www.w3.org/TR/2001/REC-SVG-20010904/DTD/svg10.dtd">
<svg version="1.0" id="Layer_1" xmlns="http://www.w3.org/2000/svg" xmlns:xlink="http://www.w3.org/1999/xlink" x="0px" y="0px"
	 width="595.28px" height="841.89px" viewBox="0 0 595.28 841.89" enable-background="new 0 0 595.28 841.89" xml:space="preserve">
<g id="LWPOLYLINE_18_">
	
		<rect x="49.608" y="229.631" fill="none" stroke="#FFFFFF" stroke-width="0.25" stroke-linecap="round" stroke-linejoin="round" stroke-miterlimit="10" width="436.175" height="103.849"/>
</g>
<g id="LWPOLYLINE_952_">
	
		<rect x="57.566" y="508.41" fill="none" stroke="#FFFFFF" stroke-width="0.25" stroke-linecap="round" stroke-linejoin="round" stroke-miterlimit="10" width="488.105" height="103.848"/>
</g>
<g id="LWPOLYLINE_818_">
	<path d="M480.603,508.41c5.181,0,10.157,1.936,13.98,5.408l51.089,46.51l-51.089,46.521c-3.823,3.486-8.8,5.408-13.98,5.408H67.953
		c-5.734,0-10.387-4.65-10.387-10.385v-83.078c0-5.732,4.652-10.385,10.387-10.385H480.603z"/>
</g>
<g id="LWPOLYLINE_999_">
	<path d="M420.727,229.631c5.169,0,10.146,1.923,13.979,5.41l51.077,46.509l-51.077,46.509c-3.834,3.486-8.811,5.421-13.979,5.421
		H59.995c-5.734,0-10.387-4.652-10.387-10.386v-83.077c0-5.746,4.652-10.386,10.387-10.386H420.727z"/>
</g>
<g id="LWPOLYLINE_956_">
	<path fill="#FFFFFF" d="M62.76,601.873v-83.078c0-2.873,2.326-5.191,5.193-5.191h415.402c2.873,0,5.193,2.318,5.193,5.191v83.078
		c0,2.873-2.32,5.193-5.193,5.193H67.953C65.086,607.066,62.76,604.746,62.76,601.873z"/>
</g>
<g id="LWPOLYLINE_969_">
	<path fill="#FFFFFF" d="M54.802,323.094v-83.077c0-2.873,2.326-5.193,5.193-5.193h363.483c2.873,0,5.193,2.32,5.193,5.193v83.077
		c0,2.861-2.32,5.193-5.193,5.193H59.995C57.128,328.288,54.802,325.956,54.802,323.094z"/>
</g>
<g id="LWPOLYLINE_980_">
	<rect x="62.592" y="242.614" fill="#3D5AA9" width="77.89" height="77.884"/>
</g>
<g id="LWPOLYLINE_825_">
	<path d="M272.729,312.384c-0.859,1.575-2.35,2.693-4.099,3.089c-3.36,0.757-6.702-1.358-7.459-4.712h-16.223v-21.229l5.68-21.097
		h73.737v-2.693l-17.196-11.9l21.091-14.618l21.097,14.618l-17.202,11.9v2.693h41.797l5.687,21.097v21.229H363.41
		c-0.409,1.743-1.526,3.246-3.102,4.099c-3.029,1.659-6.804,0.541-8.463-2.476h-3.053c-0.554,0.961-1.371,1.767-2.332,2.332
		c-3.126,1.851-7.165,0.805-9.016-2.332h-50.309c-0.564,0.961-1.37,1.767-2.332,2.332c-3.138,1.851-7.177,0.805-9.027-2.332H272.729
		z"/>
</g>
<g id="LWPOLYLINE_826_">
	<polygon fill="#FFFFFF" points="253.875,273.304 263.605,273.304 263.605,289.532 249.505,289.532 	"/>
</g>
<g id="LWPOLYLINE_953_">
	<path d="M453.243,569.416V551.24c0-9.316-7.562-16.877-16.878-16.877S419.5,541.924,419.5,551.24v18.176
		c0,9.328,7.549,16.877,16.865,16.877S453.243,578.744,453.243,569.416z"/>
</g>
<g id="LWPOLYLINE_954_">
	<polygon points="335.895,534.363 369.637,534.363 369.637,542.152 356.654,542.152 356.654,586.293 348.865,586.293 
		348.865,542.152 335.895,542.152 	"/>
</g>
<g id="LWPOLYLINE_955_">
	<path d="M384.964,562.924v23.369h-7.79v-51.93h17.911c7.321,0,13.235,5.938,13.235,13.246v2.08c0,5.578-3.486,10.555-8.728,12.453
		l8.728,24.15h-8.294l-8.463-23.369H384.964z"/>
</g>
<g id="LWPOLYLINE_960_">
	<polygon points="299.284,586.293 327.84,586.293 327.84,578.504 307.074,578.504 307.074,562.924 321.097,562.924 321.097,555.135 
		307.074,555.135 307.074,542.152 327.84,542.152 327.84,534.363 299.284,534.363 	"/>
</g>
<g id="LWPOLYLINE_961_">
	<polygon points="262.674,586.293 275.657,552.539 275.657,586.293 283.446,586.293 283.446,534.363 274.617,534.363 
		262.674,563.971 250.731,534.363 241.902,534.363 241.902,586.293 249.691,586.293 249.691,552.539 	"/>
</g>
<g id="LWPOLYLINE_962_">
	<polygon points="191.925,557.082 191.925,547.346 198.416,547.346 198.416,557.082 208.153,557.082 208.153,563.574 
		198.416,563.574 198.416,573.311 191.925,573.311 191.925,563.574 182.194,563.574 182.194,557.082 	"/>
</g>
<g id="LWPOLYLINE_967_">
	<polygon points="183.967,278.304 183.967,268.567 190.458,268.567 190.458,278.304 200.195,278.304 200.195,284.795 
		190.458,284.795 190.458,294.533 183.967,294.533 183.967,284.795 174.23,284.795 174.23,278.304 	"/>
</g>
<g id="LWPOLYLINE_968_">
	<rect x="70.549" y="521.393" fill="#3D5AA9" width="77.891" height="77.883"/>
</g>
<g id="LWPOLYLINE_970_">
	<rect x="233.944" y="315.629" width="155.779" height="4.869"/>
</g>
<g id="LWPOLYLINE_972_">
	<polygon fill="#FFFFFF" points="360.97,273.304 370.707,273.304 375.07,289.532 360.97,289.532 	"/>
</g>
<g id="LWPOLYLINE_973_">
	<rect x="342.146" y="273.304" fill="#FFFFFF" width="15.579" height="16.228"/>
</g>
<g id="LWPOLYLINE_975_">
	<rect x="323.32" y="273.304" fill="#FFFFFF" width="15.579" height="16.228"/>
</g>
<g id="LWPOLYLINE_976_">
	<rect x="304.501" y="273.304" fill="#FFFFFF" width="15.573" height="16.228"/>
</g>
<g id="LWPOLYLINE_977_">
	
		<polygon fill="none" stroke="#000000" stroke-width="0.7087" stroke-linecap="round" stroke-linejoin="round" stroke-miterlimit="10" points="
		312.874,253.842 328.261,243.179 343.66,253.842 328.261,264.492 	"/>
</g>
<g id="LWPOLYLINE_978_">
	<rect x="285.677" y="273.304" fill="#FFFFFF" width="15.579" height="16.228"/>
</g>
<g id="LWPOLYLINE_979_">
	<rect x="266.852" y="273.304" fill="#FFFFFF" width="15.579" height="16.228"/>
</g>
<g id="LWPOLYLINE_822_">
	<path fill="#FFFFFF" d="M384.964,555.135h10.121c3.018,0,5.446-2.428,5.446-5.445v-2.08c0-3.004-2.429-5.457-5.446-5.457h-10.121
		V555.135z"/>
</g>
<g id="LWPOLYLINE_964_">
	<path fill="#FFFFFF" d="M445.453,569.416V551.24c0-5.014-4.063-9.088-9.088-9.088c-5.013,0-9.075,4.074-9.075,9.088v18.176
		c0,5.025,4.063,9.088,9.075,9.088C441.39,578.504,445.453,574.441,445.453,569.416z"/>
</g>
<g id="LWPOLYLINE_963_">
	<path fill="#FFFFFF" d="M88.725,591.486v-62.305h28.556c10.038,0,18.176,8.139,18.176,18.164c0,10.049-8.138,18.176-18.176,18.176
		h-16.871v25.965H88.725z"/>
</g>
<g id="LWPOLYLINE_981_">
	<path fill="#FFFFFF" d="M80.767,312.708v-62.317h28.557c10.037,0,18.176,8.138,18.176,18.176s-8.139,18.176-18.176,18.176H92.445
		v25.965H80.767z"/>
</g>
<g id="LWPOLYLINE_983_">
	<path fill="#3D5AA9" d="M92.445,262.076h16.878c3.588,0,6.491,2.909,6.491,6.491c0,3.594-2.903,6.491-6.491,6.491H92.445V262.076z"
		/>
</g>
<g id="LWPOLYLINE_966_">
	<path fill="#3D5AA9" d="M100.409,540.854h16.871c3.589,0,6.492,2.91,6.492,6.492c0,3.594-2.903,6.49-6.492,6.49h-16.871V540.854z"
		/>
</g>
</svg>
