<?xml version="1.0" encoding="utf-8"?>
<!-- Generator: Adobe Illustrator 15.1.0, SVG Export Plug-In . SVG Version: 6.00 Build 0)  -->
<!DOCTYPE svg PUBLIC "-//W3C//DTD SVG 1.0//EN" "http://www.w3.org/TR/2001/REC-SVG-20010904/DTD/svg10.dtd">
<svg version="1.0" id="Layer_1" xmlns="http://www.w3.org/2000/svg" xmlns:xlink="http://www.w3.org/1999/xlink" x="0px" y="0px"
	 width="595.28px" height="841.89px" viewBox="0 0 595.28 841.89" enable-background="new 0 0 595.28 841.89" xml:space="preserve">
<g id="LWPOLYLINE_987_">
	<path d="M475.045,364.574c5.611,0,11.027,2.088,15.177,5.873l55.45,50.491l-55.45,50.491c-4.149,3.784-9.565,5.886-15.177,5.886
		H60.884c-6.231,0-11.275-5.051-11.275-11.275v-90.19c0-6.237,5.044-11.275,11.275-11.275H475.045z"/>
</g>
<g id="LWPOLYLINE_985_">
	<path fill="#FFFFFF" d="M55.246,466.04v-90.19c0-3.119,2.519-5.638,5.638-5.638h417.149c3.119,0,5.638,2.519,5.638,5.638v90.19
		c0,3.105-2.519,5.638-5.638,5.638H60.884C57.765,471.678,55.246,469.146,55.246,466.04z"/>
</g>
<g id="CIRCLE_113_">
	<path d="M407.575,450.811c0-6.839-5.546-12.397-12.397-12.397s-12.397,5.559-12.397,12.397c0,6.852,5.546,12.41,12.397,12.41
		S407.575,457.662,407.575,450.811L407.575,450.811z"/>
</g>
<g id="LWPOLYLINE_829_">
	<path d="M278.913,451.463h-24.769c-2.44,0-4.418-1.983-4.418-4.424v-55.503c0-2.44,1.978-4.424,4.418-4.424h164.602
		c2.036,0,3.784,1.37,4.28,3.328l9.905,38.707v22.315h-21.989c0.365-8.718-6.408-16.064-15.112-16.417
		c-8.718-0.353-16.064,6.421-16.417,15.125c-0.026,0.431-0.026,0.861,0,1.292h-68.957c0.353-8.718-6.421-16.064-15.132-16.417
		s-16.059,6.421-16.411,15.125C278.894,450.602,278.894,451.032,278.913,451.463z"/>
</g>
<g id="LWPOLYLINE_984_">
	
		<rect x="49.608" y="364.574" fill="none" stroke="#000000" stroke-width="0.25" stroke-linecap="round" stroke-linejoin="round" stroke-miterlimit="10" width="496.063" height="112.741"/>
</g>
<g id="CIRCLE_120_">
	<path d="M307.082,450.811c0-6.839-5.553-12.397-12.397-12.397c-6.852,0-12.404,5.559-12.404,12.397
		c0,6.852,5.553,12.41,12.404,12.41C301.529,463.221,307.082,457.662,307.082,450.811L307.082,450.811z"/>
</g>
<g id="LWPOLYLINE_990_">
	<polygon points="195.471,417.415 195.471,406.844 202.518,406.844 202.518,417.415 213.088,417.415 213.088,424.462 
		202.518,424.462 202.518,435.032 195.471,435.032 195.471,424.462 184.899,424.462 184.899,417.415 	"/>
</g>
<g id="LWPOLYLINE_996_">
	<rect x="63.703" y="378.669" fill="#3D5AA9" width="84.552" height="84.552"/>
</g>
<g id="LWPOLYLINE_998_">
	<path d="M83.429,454.765v-67.652h31.007c10.896,0,19.731,8.835,19.731,19.731c0,10.897-8.835,19.732-19.731,19.732H96.113v28.188
		H83.429z"/>
</g>
<g id="LWPOLYLINE_994_">
	<path fill="#3D5AA9" d="M96.113,399.797h18.322c3.889,0,7.047,3.158,7.047,7.047c0,3.902-3.158,7.048-7.047,7.048H96.113V399.797z"
		/>
</g>
<g id="LWPOLYLINE_838_">
	<rect x="292.003" y="391.602" fill="#FFFFFF" width="32.417" height="25.356"/>
</g>
<g id="LWPOLYLINE_839_">
	<rect x="255.364" y="391.602" fill="#FFFFFF" width="32.41" height="25.356"/>
</g>
<g id="LWPOLYLINE_989_">
	<polygon fill="#FFFFFF" points="427.425,424.645 400.828,424.645 396.796,391.602 418.968,391.602 	"/>
</g>
<g id="LWPOLYLINE_992_">
	<rect x="328.647" y="391.602" fill="#FFFFFF" width="32.417" height="25.356"/>
</g>
<g id="LWPOLYLINE_993_">
	<polygon fill="#FFFFFF" points="395.621,416.958 365.293,416.958 365.293,391.602 392.541,391.602 	"/>
</g>
</svg>
