<?xml version="1.0" encoding="UTF-8" standalone="no"?>
<!-- Generator: Adobe Illustrator 15.1.0, SVG Export Plug-In . SVG Version: 6.00 Build 0)  -->

<svg
   xmlns:dc="http://purl.org/dc/elements/1.1/"
   xmlns:cc="http://creativecommons.org/ns#"
   xmlns:rdf="http://www.w3.org/1999/02/22-rdf-syntax-ns#"
   xmlns:svg="http://www.w3.org/2000/svg"
   xmlns="http://www.w3.org/2000/svg"
   xmlns:sodipodi="http://sodipodi.sourceforge.net/DTD/sodipodi-0.dtd"
   xmlns:inkscape="http://www.inkscape.org/namespaces/inkscape"
   version="1.0"
   id="Layer_1"
   x="0px"
   y="0px"
   width="496.31302"
   height="382.87701"
   viewBox="0 0 496.31299 382.87701"
   enable-background="new 0 0 595.28 841.89"
   xml:space="preserve"
   sodipodi:docname="650-2.svg"
   inkscape:version="0.92.5 (2060ec1f9f, 2020-04-08)"><metadata
   id="metadata1954"><rdf:RDF><cc:Work
       rdf:about=""><dc:format>image/svg+xml</dc:format><dc:type
         rdf:resource="http://purl.org/dc/dcmitype/StillImage" /></cc:Work></rdf:RDF></metadata><defs
   id="defs1952" /><sodipodi:namedview
   pagecolor="#ffffff"
   bordercolor="#666666"
   borderopacity="1"
   objecttolerance="10"
   gridtolerance="10"
   guidetolerance="10"
   inkscape:pageopacity="0"
   inkscape:pageshadow="2"
   inkscape:window-width="640"
   inkscape:window-height="480"
   id="namedview1950"
   showgrid="false"
   inkscape:zoom="0.28032165"
   inkscape:cx="248.15701"
   inkscape:cy="191.438"
   inkscape:window-x="0"
   inkscape:window-y="0"
   inkscape:window-maximized="0"
   inkscape:current-layer="Layer_1" />
<g
   id="LWPOLYLINE_18_"
   transform="translate(-49.483002,-229.506)">
	
		<rect
   x="49.608002"
   y="229.631"
   stroke-miterlimit="10"
   width="436.17499"
   height="103.849"
   id="rect1856"
   style="fill:none;stroke:#ffffff;stroke-width:0.25;stroke-linecap:round;stroke-linejoin:round;stroke-miterlimit:10" />
</g>
<g
   id="LWPOLYLINE_952_"
   transform="translate(-49.483002,-229.506)">
	
		<rect
   x="57.566002"
   y="508.41"
   stroke-miterlimit="10"
   width="488.10501"
   height="103.848"
   id="rect1859"
   style="fill:none;stroke:#ffffff;stroke-width:0.25;stroke-linecap:round;stroke-linejoin:round;stroke-miterlimit:10" />
</g>
<g
   id="LWPOLYLINE_818_"
   transform="translate(-49.483002,-229.506)">
	<path
   d="m 480.603,508.41 c 5.181,0 10.157,1.936 13.98,5.408 l 51.089,46.51 -51.089,46.521 c -3.823,3.486 -8.8,5.408 -13.98,5.408 H 67.953 c -5.734,0 -10.387,-4.65 -10.387,-10.385 v -83.078 c 0,-5.732 4.652,-10.385 10.387,-10.385 h 412.65 z"
   id="path1862"
   inkscape:connector-curvature="0" />
</g>
<g
   id="LWPOLYLINE_999_"
   transform="translate(-49.483002,-229.506)">
	<path
   d="m 420.727,229.631 c 5.169,0 10.146,1.923 13.979,5.41 l 51.077,46.509 -51.077,46.509 c -3.834,3.486 -8.811,5.421 -13.979,5.421 H 59.995 c -5.734,0 -10.387,-4.652 -10.387,-10.386 v -83.077 c 0,-5.746 4.652,-10.386 10.387,-10.386 z"
   id="path1865"
   inkscape:connector-curvature="0" />
</g>
<g
   id="LWPOLYLINE_956_"
   transform="translate(-49.483002,-229.506)">
	<path
   d="m 62.76,601.873 v -83.078 c 0,-2.873 2.326,-5.191 5.193,-5.191 h 415.402 c 2.873,0 5.193,2.318 5.193,5.191 v 83.078 c 0,2.873 -2.32,5.193 -5.193,5.193 H 67.953 c -2.867,0 -5.193,-2.32 -5.193,-5.193 z"
   id="path1868"
   inkscape:connector-curvature="0"
   style="fill:#ffffff" />
</g>
<g
   id="LWPOLYLINE_969_"
   transform="translate(-49.483002,-229.506)">
	<path
   d="m 54.802,323.094 v -83.077 c 0,-2.873 2.326,-5.193 5.193,-5.193 h 363.483 c 2.873,0 5.193,2.32 5.193,5.193 v 83.077 c 0,2.861 -2.32,5.193 -5.193,5.193 H 59.995 c -2.867,0.001 -5.193,-2.331 -5.193,-5.193 z"
   id="path1871"
   inkscape:connector-curvature="0"
   style="fill:#ffffff" />
</g>
<g
   id="LWPOLYLINE_980_"
   transform="translate(-49.483002,-229.506)">
	<rect
   x="62.591999"
   y="242.614"
   width="77.889999"
   height="77.884003"
   id="rect1874"
   style="fill:#3d5aa9" />
</g>
<g
   id="LWPOLYLINE_825_"
   transform="translate(-49.483002,-229.506)">
	<path
   d="m 272.729,312.384 c -0.859,1.575 -2.35,2.693 -4.099,3.089 -3.36,0.757 -6.702,-1.358 -7.459,-4.712 h -16.223 v -21.229 l 5.68,-21.097 h 73.737 v -2.693 l -17.196,-11.9 21.091,-14.618 21.097,14.618 -17.202,11.9 v 2.693 h 41.797 l 5.687,21.097 v 21.229 H 363.41 c -0.409,1.743 -1.526,3.246 -3.102,4.099 -3.029,1.659 -6.804,0.541 -8.463,-2.476 h -3.053 c -0.554,0.961 -1.371,1.767 -2.332,2.332 -3.126,1.851 -7.165,0.805 -9.016,-2.332 h -50.309 c -0.564,0.961 -1.37,1.767 -2.332,2.332 -3.138,1.851 -7.177,0.805 -9.027,-2.332 z"
   id="path1877"
   inkscape:connector-curvature="0" />
</g>
<g
   id="LWPOLYLINE_826_"
   transform="translate(-49.483002,-229.506)">
	<polygon
   points="263.605,289.532 249.505,289.532 253.875,273.304 263.605,273.304 "
   id="polygon1880"
   style="fill:#ffffff" />
</g>
<g
   id="LWPOLYLINE_953_"
   transform="translate(-49.483002,-229.506)">
	<path
   d="M 453.243,569.416 V 551.24 c 0,-9.316 -7.562,-16.877 -16.878,-16.877 -9.316,0 -16.865,7.561 -16.865,16.877 v 18.176 c 0,9.328 7.549,16.877 16.865,16.877 9.316,0 16.878,-7.549 16.878,-16.877 z"
   id="path1883"
   inkscape:connector-curvature="0" />
</g>
<g
   id="LWPOLYLINE_954_"
   transform="translate(-49.483002,-229.506)">
	<polygon
   points="369.637,542.152 356.654,542.152 356.654,586.293 348.865,586.293 348.865,542.152 335.895,542.152 335.895,534.363 369.637,534.363 "
   id="polygon1886" />
</g>
<g
   id="LWPOLYLINE_955_"
   transform="translate(-49.483002,-229.506)">
	<path
   d="m 384.964,562.924 v 23.369 h -7.79 v -51.93 h 17.911 c 7.321,0 13.235,5.938 13.235,13.246 v 2.08 c 0,5.578 -3.486,10.555 -8.728,12.453 l 8.728,24.15 h -8.294 l -8.463,-23.369 h -6.599 z"
   id="path1889"
   inkscape:connector-curvature="0" />
</g>
<g
   id="LWPOLYLINE_960_"
   transform="translate(-49.483002,-229.506)">
	<polygon
   points="327.84,578.504 307.074,578.504 307.074,562.924 321.097,562.924 321.097,555.135 307.074,555.135 307.074,542.152 327.84,542.152 327.84,534.363 299.284,534.363 299.284,586.293 327.84,586.293 "
   id="polygon1892" />
</g>
<g
   id="LWPOLYLINE_961_"
   transform="translate(-49.483002,-229.506)">
	<polygon
   points="275.657,586.293 283.446,586.293 283.446,534.363 274.617,534.363 262.674,563.971 250.731,534.363 241.902,534.363 241.902,586.293 249.691,586.293 249.691,552.539 262.674,586.293 275.657,552.539 "
   id="polygon1895" />
</g>
<g
   id="LWPOLYLINE_962_"
   transform="translate(-49.483002,-229.506)">
	<polygon
   points="198.416,547.346 198.416,557.082 208.153,557.082 208.153,563.574 198.416,563.574 198.416,573.311 191.925,573.311 191.925,563.574 182.194,563.574 182.194,557.082 191.925,557.082 191.925,547.346 "
   id="polygon1898" />
</g>
<g
   id="LWPOLYLINE_967_"
   transform="translate(-49.483002,-229.506)">
	<polygon
   points="190.458,268.567 190.458,278.304 200.195,278.304 200.195,284.795 190.458,284.795 190.458,294.533 183.967,294.533 183.967,284.795 174.23,284.795 174.23,278.304 183.967,278.304 183.967,268.567 "
   id="polygon1901" />
</g>
<g
   id="LWPOLYLINE_968_"
   transform="translate(-49.483002,-229.506)">
	<rect
   x="70.549004"
   y="521.39301"
   width="77.890999"
   height="77.883003"
   id="rect1904"
   style="fill:#3d5aa9" />
</g>
<g
   id="LWPOLYLINE_970_"
   transform="translate(-49.483002,-229.506)">
	<rect
   x="233.944"
   y="315.629"
   width="155.77901"
   height="4.869"
   id="rect1907" />
</g>
<g
   id="LWPOLYLINE_972_"
   transform="translate(-49.483002,-229.506)">
	<polygon
   points="375.07,289.532 360.97,289.532 360.97,273.304 370.707,273.304 "
   id="polygon1910"
   style="fill:#ffffff" />
</g>
<g
   id="LWPOLYLINE_973_"
   transform="translate(-49.483002,-229.506)">
	<rect
   x="342.146"
   y="273.30399"
   width="15.579"
   height="16.228001"
   id="rect1913"
   style="fill:#ffffff" />
</g>
<g
   id="LWPOLYLINE_975_"
   transform="translate(-49.483002,-229.506)">
	<rect
   x="323.32001"
   y="273.30399"
   width="15.579"
   height="16.228001"
   id="rect1916"
   style="fill:#ffffff" />
</g>
<g
   id="LWPOLYLINE_976_"
   transform="translate(-49.483002,-229.506)">
	<rect
   x="304.50101"
   y="273.30399"
   width="15.573"
   height="16.228001"
   id="rect1919"
   style="fill:#ffffff" />
</g>
<g
   id="LWPOLYLINE_977_"
   transform="translate(-49.483002,-229.506)">
	
		<polygon
   stroke-miterlimit="10"
   points="343.66,253.842 328.261,264.492 312.874,253.842 328.261,243.179 "
   id="polygon1922"
   style="fill:none;stroke:#000000;stroke-width:0.7087;stroke-linecap:round;stroke-linejoin:round;stroke-miterlimit:10" />
</g>
<g
   id="LWPOLYLINE_978_"
   transform="translate(-49.483002,-229.506)">
	<rect
   x="285.677"
   y="273.30399"
   width="15.579"
   height="16.228001"
   id="rect1925"
   style="fill:#ffffff" />
</g>
<g
   id="LWPOLYLINE_979_"
   transform="translate(-49.483002,-229.506)">
	<rect
   x="266.85199"
   y="273.30399"
   width="15.579"
   height="16.228001"
   id="rect1928"
   style="fill:#ffffff" />
</g>
<g
   id="LWPOLYLINE_822_"
   transform="translate(-49.483002,-229.506)">
	<path
   d="m 384.964,555.135 h 10.121 c 3.018,0 5.446,-2.428 5.446,-5.445 v -2.08 c 0,-3.004 -2.429,-5.457 -5.446,-5.457 h -10.121 z"
   id="path1931"
   inkscape:connector-curvature="0"
   style="fill:#ffffff" />
</g>
<g
   id="LWPOLYLINE_964_"
   transform="translate(-49.483002,-229.506)">
	<path
   d="M 445.453,569.416 V 551.24 c 0,-5.014 -4.063,-9.088 -9.088,-9.088 -5.013,0 -9.075,4.074 -9.075,9.088 v 18.176 c 0,5.025 4.063,9.088 9.075,9.088 5.025,0 9.088,-4.063 9.088,-9.088 z"
   id="path1934"
   inkscape:connector-curvature="0"
   style="fill:#ffffff" />
</g>
<g
   id="LWPOLYLINE_963_"
   transform="translate(-49.483002,-229.506)">
	<path
   d="m 88.725,591.486 v -62.305 h 28.556 c 10.038,0 18.176,8.139 18.176,18.164 0,10.049 -8.138,18.176 -18.176,18.176 H 100.41 v 25.965 z"
   id="path1937"
   inkscape:connector-curvature="0"
   style="fill:#ffffff" />
</g>
<g
   id="LWPOLYLINE_981_"
   transform="translate(-49.483002,-229.506)">
	<path
   d="m 80.767,312.708 v -62.317 h 28.557 c 10.037,0 18.176,8.138 18.176,18.176 0,10.038 -8.139,18.176 -18.176,18.176 H 92.445 v 25.965 z"
   id="path1940"
   inkscape:connector-curvature="0"
   style="fill:#ffffff" />
</g>
<g
   id="LWPOLYLINE_983_"
   transform="translate(-49.483002,-229.506)">
	<path
   d="m 92.445,262.076 h 16.878 c 3.588,0 6.491,2.909 6.491,6.491 0,3.594 -2.903,6.491 -6.491,6.491 H 92.445 Z"
   id="path1943"
   inkscape:connector-curvature="0"
   style="fill:#3d5aa9" />
</g>
<g
   id="LWPOLYLINE_966_"
   transform="translate(-49.483002,-229.506)">
	<path
   d="m 100.409,540.854 h 16.871 c 3.589,0 6.492,2.91 6.492,6.492 0,3.594 -2.903,6.49 -6.492,6.49 h -16.871 z"
   id="path1946"
   inkscape:connector-curvature="0"
   style="fill:#3d5aa9" />
</g>
</svg>