<?xml version="1.0" encoding="UTF-8" standalone="no"?>
<!-- Generator: Adobe Illustrator 15.1.0, SVG Export Plug-In . SVG Version: 6.00 Build 0)  -->

<svg
   xmlns:dc="http://purl.org/dc/elements/1.1/"
   xmlns:cc="http://creativecommons.org/ns#"
   xmlns:rdf="http://www.w3.org/1999/02/22-rdf-syntax-ns#"
   xmlns:svg="http://www.w3.org/2000/svg"
   xmlns="http://www.w3.org/2000/svg"
   xmlns:sodipodi="http://sodipodi.sourceforge.net/DTD/sodipodi-0.dtd"
   xmlns:inkscape="http://www.inkscape.org/namespaces/inkscape"
   version="1.1"
   id="Layer_1"
   x="0px"
   y="0px"
   width="483.24609"
   height="132.96609"
   viewBox="0 0 483.24609 132.96609"
   xml:space="preserve"
   sodipodi:docname="650.svg"
   inkscape:version="0.92.5 (2060ec1f9f, 2020-04-08)"><metadata
   id="metadata1983"><rdf:RDF><cc:Work
       rdf:about=""><dc:format>image/svg+xml</dc:format><dc:type
         rdf:resource="http://purl.org/dc/dcmitype/StillImage" /></cc:Work></rdf:RDF></metadata><defs
   id="defs1981" /><sodipodi:namedview
   pagecolor="#ffffff"
   bordercolor="#666666"
   borderopacity="1"
   objecttolerance="10"
   gridtolerance="10"
   guidetolerance="10"
   inkscape:pageopacity="0"
   inkscape:pageshadow="2"
   inkscape:window-width="640"
   inkscape:window-height="480"
   id="namedview1979"
   showgrid="false"
   inkscape:zoom="0.28028504"
   inkscape:cx="253.72305"
   inkscape:cy="-90.280942"
   inkscape:window-x="0"
   inkscape:window-y="0"
   inkscape:window-maximized="0"
   inkscape:current-layer="Layer_1" />
<g
   id="g1976"
   transform="translate(-43.776952,-197.75296)">
	
		<rect
   x="44.344002"
   y="198.32001"
   style="clip-rule:evenodd;fill:#ffffff;fill-rule:evenodd;stroke:#000000;stroke-width:1.13409996;stroke-miterlimit:10"
   width="482.112"
   height="131.832"
   id="rect1956" />
	<polygon
   style="clip-rule:evenodd;fill-rule:evenodd"
   points="46.432,204.008 48.448,201.56 51.328,199.544 54.208,198.752 57.448,198.32 452.584,198.32 456.256,199.112 460.36,200.768 464.392,202.784 468.064,206.096 526.096,264.056 468.496,322.448 466.84,323.672 464.824,325.256 463.168,326.48 460.36,327.704 458.704,328.568 456.688,328.928 452.152,329.792 57.016,329.792 52.552,329.36 50.104,327.704 47.656,325.688 45.64,322.808 44.776,320 44.344,318.344 44.344,209.768 45.208,206.888 "
   id="polygon1958" />
	<polygon
   style="clip-rule:evenodd;fill:#ffffff;fill-rule:evenodd"
   points="52.552,207.32 54.208,205.664 57.448,204.872 447.256,204.872 449.344,205.232 451.36,206.456 453.016,208.112 453.808,211.352 453.808,316.688 453.016,320.36 450.568,322.448 447.256,323.672 57.448,323.672 55,323.24 53.344,322.016 51.76,320.36 50.896,316.688 50.896,211.352 51.328,208.904 "
   id="polygon1960" />
	<rect
   x="60.688"
   y="214.664"
   style="clip-rule:evenodd;fill:#0079c1;fill-rule:evenodd"
   width="99.216003"
   height="98.783997"
   id="rect1962" />
	<polygon
   style="clip-rule:evenodd;fill:#ffffff;fill-rule:evenodd"
   points="120.304,224.888 126.424,225.68 132.184,228.128 137.08,232.232 141.544,239.576 143.2,247.712 141.544,256.28 137.08,263.264 130.528,268.52 124.408,270.608 120.304,270.968 98.704,270.968 98.704,303.656 84.016,303.656 84.016,224.888 "
   id="polygon1964" />
	<polygon
   style="clip-rule:evenodd;fill:#0079c1;fill-rule:evenodd"
   points="123.616,240.368 126.856,242.816 128.08,244.832 128.08,249.728 125.2,254.264 121.96,255.848 98.704,255.848 98.704,239.576 120.304,239.576 "
   id="polygon1966" />
	<polygon
   style="clip-rule:evenodd;fill-rule:evenodd"
   points="215.056,247.712 223.192,247.712 223.192,259.952 235.864,259.952 235.864,268.16 223.192,268.16 223.192,280.76 215.056,280.76 215.056,268.16 202.816,268.16 202.816,259.952 215.056,259.952 "
   id="polygon1968" />
	<polygon
   style="clip-rule:evenodd;fill-rule:evenodd"
   points="286.48,229.784 286.48,221.144 313.768,221.144 313.768,243.248 344.008,243.248 344.008,234.68 345.592,232.592 347.68,231.008 349.696,230.144 352.576,229.784 355.024,230.144 357.472,231.008 359.056,232.592 360.712,234.68 360.712,243.248 381.16,243.248 381.16,226.904 392.176,226.904 392.176,243.248 404.848,243.248 404.848,281.984 398.296,281.984 399.088,284.072 400.312,287.744 399.952,290.984 398.656,293.864 397.072,296.312 394.624,298.328 410.536,298.328 410.536,303.656 278.704,303.656 278.704,298.328 299.872,298.328 297.496,296.312 295.912,293.864 294.688,290.984 294.256,287.744 294.688,284.864 295.912,281.984 281.152,281.984 281.152,248.936 289.36,248.936 289.36,259.16 305.632,259.16 305.632,229.784 "
   id="polygon1970" />
	<polygon
   style="clip-rule:evenodd;fill:#ffffff;fill-rule:evenodd"
   points="335.8,284.864 335.44,287.744 335.8,290.984 336.664,293.864 338.68,296.312 341.128,298.328 312.112,298.328 314.56,296.312 316.216,293.864 317.44,290.984 317.872,287.744 317.44,286.088 317.008,284.864 315.784,281.984 337.456,281.984 "
   id="polygon1972" />
	<polygon
   style="clip-rule:evenodd;fill:#ffffff;fill-rule:evenodd"
   points="377.056,284.864 376.624,287.744 377.056,290.984 378.28,293.864 379.936,296.312 382.384,298.328 353.368,298.328 355.816,296.312 357.472,293.864 358.696,290.984 359.056,287.744 359.056,286.088 358.696,284.864 357.04,281.984 378.712,281.984 "
   id="polygon1974" />
</g>
</svg>