<?xml version="1.0" encoding="UTF-8" standalone="no"?>
<!-- Generator: Adobe Illustrator 15.1.0, SVG Export Plug-In . SVG Version: 6.00 Build 0)  -->

<svg
   xmlns:dc="http://purl.org/dc/elements/1.1/"
   xmlns:cc="http://creativecommons.org/ns#"
   xmlns:rdf="http://www.w3.org/1999/02/22-rdf-syntax-ns#"
   xmlns:svg="http://www.w3.org/2000/svg"
   xmlns="http://www.w3.org/2000/svg"
   xmlns:sodipodi="http://sodipodi.sourceforge.net/DTD/sodipodi-0.dtd"
   xmlns:inkscape="http://www.inkscape.org/namespaces/inkscape"
   version="1.1"
   id="Layer_1"
   x="0px"
   y="0px"
   width="496.064"
   height="496.04401"
   viewBox="0 0 496.06397 496.044"
   xml:space="preserve"
   sodipodi:docname="651-2.svg"
   inkscape:version="0.92.5 (2060ec1f9f, 2020-04-08)"><metadata
   id="metadata2023"><rdf:RDF><cc:Work
       rdf:about=""><dc:format>image/svg+xml</dc:format><dc:type
         rdf:resource="http://purl.org/dc/dcmitype/StillImage" /></cc:Work></rdf:RDF></metadata><defs
   id="defs2021" /><sodipodi:namedview
   pagecolor="#ffffff"
   bordercolor="#666666"
   borderopacity="1"
   objecttolerance="10"
   gridtolerance="10"
   guidetolerance="10"
   inkscape:pageopacity="0"
   inkscape:pageshadow="2"
   inkscape:window-width="640"
   inkscape:window-height="480"
   id="namedview2019"
   showgrid="false"
   inkscape:zoom="0.28032165"
   inkscape:cx="248.03201"
   inkscape:cy="248.022"
   inkscape:window-x="0"
   inkscape:window-y="0"
   inkscape:window-maximized="0"
   inkscape:current-layer="Layer_1" />
<g
   id="LWPOLYLINE_1001_"
   transform="translate(-49.608,-172.923)">
	<rect
   x="49.608002"
   y="172.923"
   style="fill:#0079c1"
   width="496.06299"
   height="496.04401"
   id="rect1985" />
</g>
<g
   id="LWPOLYLINE_1002_"
   transform="translate(-49.608,-172.923)">
	<path
   style="fill:#ffffff"
   d="M 512.597,172.923 H 82.683 c -18.279,0 -33.075,14.777 -33.075,33.075 v 429.895 c 0,18.298 14.796,33.074 33.075,33.074 h 429.914 c 18.299,0 33.075,-14.776 33.075,-33.074 V 205.998 c 0,-18.298 -14.776,-33.075 -33.075,-33.075 z"
   id="path1988"
   inkscape:connector-curvature="0" />
</g>
<g
   id="LWPOLYLINE_1006_"
   transform="translate(-49.608,-172.923)">
	<path
   style="fill:#0079c1"
   d="M 512.597,189.46 H 82.683 c -9.13,0 -16.537,7.388 -16.537,16.537 v 429.895 c 0,9.148 7.407,16.537 16.537,16.537 h 429.914 c 9.149,0 16.537,-7.389 16.537,-16.537 V 205.998 c 0,-9.149 -7.388,-16.538 -16.537,-16.538 z"
   id="path1991"
   inkscape:connector-curvature="0" />
</g>
<g
   id="LWPOLYLINE_840_"
   transform="translate(-49.608,-172.923)">
	<polygon
   style="fill:#ffffff"
   points="281.112,454.02 235.635,454.02 235.635,396.139 289.381,396.139 289.381,363.064 305.918,363.064 305.918,396.139 359.665,396.139 359.665,454.02 314.187,454.02 314.187,619.394 281.112,619.394 "
   id="polygon1994" />
</g>
<g
   id="LWPOLYLINE_841_"
   transform="translate(-49.608,-172.923)">
	<path
   style="fill:#ffffff"
   d="m 339.107,237.618 11.638,20.059 c 5.188,-2.526 10.776,-4.096 16.499,-4.632 26.299,-2.45 49.612,16.882 52.101,43.143 l -1.8,0.23 c 2.259,24.346 -14.891,46.205 -39.084,49.765 -25.17,3.751 -48.579,-13.628 -52.292,-38.779 l -8.154,0.689 c -0.383,4.67 -3.234,8.805 -7.503,10.833 l 2.374,9.188 h 3.789 v 4.441 h -11.866 v -4.441 h 3.731 l -2.066,-8 c -3.005,0.344 -6.067,-0.345 -8.652,-1.953 -6.144,-3.904 -7.981,-12.02 -4.096,-18.183 l -42.989,-48.234 -2.335,6.546 c 21.839,11.484 31.39,37.668 22.05,60.484 l -1.666,-0.651 c -6.105,14.891 -19.523,25.495 -35.41,28.021 -25.112,3.943 -48.693,-13.168 -52.655,-38.281 -3.981,-25.112 13.149,-48.693 38.262,-52.674 l -0.115,-1.799 c 8.269,-1.263 16.729,-0.383 24.538,2.641 l 11.522,-32.271 1.167,0.459 2.89,-7.963 -2.813,-2.986 0.229,-4.134 3.101,-2.986 4,-0.153 14.03,1.417 -0.191,1.953 -13.896,-1.417 -3.12,0.115 -1.991,1.952 -0.134,2.488 1.531,1.685 0.402,-1.11 2.68,1.646 -3.809,10.489 1.053,0.383 -2.373,6.699 h 77.193 l 0.401,-0.88 1.168,0.536 1.416,-2.756 -12.729,-7.771 -0.822,-0.804 -0.728,-1.569 0.249,-1.072 0.708,-0.65 1.11,-0.383 2.105,-0.153 3.962,0.229 5.321,0.115 7.866,-0.881 3.962,-0.842 2.183,-0.153 0.804,0.306 0.804,0.996 0.058,1.761 -0.287,1.11 -0.977,2.105 -1.454,2.182 -1.646,1.953 -2.393,2.297 -2.297,1.569 -1.148,0.421 -1.34,0.115 -1.799,3.521 1.187,0.766 z"
   id="path1997"
   inkscape:connector-curvature="0" />
</g>
<g
   id="LWPOLYLINE_842_"
   transform="translate(-49.608,-172.923)">
	<path
   style="fill:#0079c1"
   d="m 372.067,294.427 c 2.029,0.115 3.828,1.187 4.938,2.871 1.838,2.909 0.995,6.775 -1.914,8.651 -2.909,1.837 -6.795,0.995 -8.651,-1.914 l -31.429,2.642 c 3.312,20.25 22.433,33.993 42.684,30.663 20.288,-3.292 33.993,-22.394 30.701,-42.683 -3.292,-20.25 -22.433,-33.993 -42.684,-30.701 -3.312,0.536 -6.546,1.531 -9.589,2.948 z"
   id="path2000"
   inkscape:connector-curvature="0" />
</g>
<g
   id="LWPOLYLINE_1004_"
   transform="translate(-49.608,-172.923)">
	<path
   style="fill:#0079c1"
   d="m 317.44,303.078 6.47,-0.574 c -0.65,-17.111 7.886,-33.304 22.433,-42.377 l -9.762,-16.844 -23.753,53.21 c 2.182,1.685 3.79,3.944 4.612,6.585 z"
   id="path2003"
   inkscape:connector-curvature="0" />
</g>
<g
   id="LWPOLYLINE_1005_"
   transform="translate(-49.608,-172.923)">
	<rect
   x="243.903"
   y="404.40799"
   style="fill:#ef3e42"
   width="107.492"
   height="41.342999"
   id="rect2006" />
</g>
<g
   id="LWPOLYLINE_1007_"
   transform="translate(-49.608,-172.923)">
	<path
   style="fill:#0079c1"
   d="m 365.024,299.021 c 0.287,-1.072 0.842,-2.029 1.607,-2.794 l -15.6,-26.912 c -10.968,7.043 -17.476,19.293 -17.131,32.309 z"
   id="path2009"
   inkscape:connector-curvature="0" />
</g>
<g
   id="LWPOLYLINE_1009_"
   transform="translate(-49.608,-172.923)">
	<path
   style="fill:#0079c1"
   d="m 298.032,295.728 -44.98,-50.454 2.469,-6.967 h 76.677 l -24.883,55.737 c -1.282,-0.23 -2.603,-0.268 -3.904,-0.115 l -1.856,-8.728 h 3.637 v -4.441 h -11.485 v 4.441 h 3.541 l 2.106,9.838 c -0.46,0.23 -0.9,0.46 -1.322,0.689 z"
   id="path2012"
   inkscape:connector-curvature="0" />
</g>
<g
   id="LWPOLYLINE_1012_"
   transform="translate(-49.608,-172.923)">
	<path
   style="fill:#0079c1"
   d="m 239.137,284.244 -3.082,5.359 -3.331,5.55 -1.588,1.685 c 0.785,0.995 1.244,2.22 1.301,3.522 0.172,3.445 -2.488,6.393 -5.953,6.546 -3.445,0.153 -6.374,-2.488 -6.546,-5.934 -0.172,-3.446 2.488,-6.393 5.934,-6.546 l 2.488,-2.603 2.986,-4.977 2.813,-4.9 5.666,-15.887 c -19.102,-7.542 -40.692,1.876 -48.234,20.939 -7.522,19.103 1.857,40.731 20.959,48.234 19.083,7.542 40.692,-1.837 48.215,-20.939 6.756,-17.111 -0.039,-36.635 -16.001,-45.822 z"
   id="path2015"
   inkscape:connector-curvature="0" />
</g>
</svg>