<?xml version="1.0" encoding="iso-8859-1"?>
<!-- Generator: Adobe Illustrator 15.1.0, SVG Export Plug-In . SVG Version: 6.00 Build 0)  -->
<!DOCTYPE svg PUBLIC "-//W3C//DTD SVG 1.1//EN" "http://www.w3.org/Graphics/SVG/1.1/DTD/svg11.dtd">
<svg version="1.1" id="Layer_1" xmlns="http://www.w3.org/2000/svg" xmlns:xlink="http://www.w3.org/1999/xlink" x="0px" y="0px"
	 width="595.28px" height="841.89px" viewBox="0 0 595.28 841.89" style="enable-background:new 0 0 595.28 841.89;"
	 xml:space="preserve">
<g id="LWPOLYLINE_1001_">
	<rect x="49.608" y="172.923" style="fill:#0079C1;" width="496.063" height="496.044"/>
</g>
<g id="LWPOLYLINE_1002_">
	<path style="fill:#FFFFFF;" d="M512.597,172.923H82.683c-18.279,0-33.075,14.777-33.075,33.075v429.895
		c0,18.298,14.796,33.074,33.075,33.074h429.914c18.299,0,33.075-14.776,33.075-33.074V205.998
		C545.672,187.7,530.896,172.923,512.597,172.923z"/>
</g>
<g id="LWPOLYLINE_1006_">
	<path style="fill:#0079C1;" d="M512.597,189.46H82.683c-9.13,0-16.537,7.388-16.537,16.537v429.895
		c0,9.148,7.407,16.537,16.537,16.537h429.914c9.149,0,16.537-7.389,16.537-16.537V205.998
		C529.134,196.849,521.746,189.46,512.597,189.46z"/>
</g>
<g id="LWPOLYLINE_840_">
	<polygon style="fill:#FFFFFF;" points="314.187,619.394 281.112,619.394 281.112,454.02 235.635,454.02 235.635,396.139 
		289.381,396.139 289.381,363.064 305.918,363.064 305.918,396.139 359.665,396.139 359.665,454.02 314.187,454.02 	"/>
</g>
<g id="LWPOLYLINE_841_">
	<path style="fill:#FFFFFF;" d="M339.107,237.618l11.638,20.059c5.188-2.526,10.776-4.096,16.499-4.632
		c26.299-2.45,49.612,16.882,52.101,43.143l-1.8,0.23c2.259,24.346-14.891,46.205-39.084,49.765
		c-25.17,3.751-48.579-13.628-52.292-38.779l-8.154,0.689c-0.383,4.67-3.234,8.805-7.503,10.833l2.374,9.188h3.789v4.441h-11.866
		v-4.441h3.731l-2.066-8c-3.005,0.344-6.067-0.345-8.652-1.953c-6.144-3.904-7.981-12.02-4.096-18.183l-42.989-48.234l-2.335,6.546
		c21.839,11.484,31.39,37.668,22.05,60.484l-1.666-0.651c-6.105,14.891-19.523,25.495-35.41,28.021
		c-25.112,3.943-48.693-13.168-52.655-38.281c-3.981-25.112,13.149-48.693,38.262-52.674l-0.115-1.799
		c8.269-1.263,16.729-0.383,24.538,2.641l11.522-32.271l1.167,0.459l2.89-7.963l-2.813-2.986l0.229-4.134l3.101-2.986l4-0.153
		l14.03,1.417l-0.191,1.953l-13.896-1.417l-3.12,0.115l-1.991,1.952l-0.134,2.488l1.531,1.685l0.402-1.11l2.68,1.646l-3.809,10.489
		l1.053,0.383l-2.373,6.699h77.193l0.401-0.88l1.168,0.536l1.416-2.756l-12.729-7.771l-0.822-0.804l-0.728-1.569l0.249-1.072
		l0.708-0.65l1.11-0.383l2.105-0.153l3.962,0.229l5.321,0.115l7.866-0.881l3.962-0.842l2.183-0.153l0.804,0.306l0.804,0.996
		l0.058,1.761l-0.287,1.11l-0.977,2.105l-1.454,2.182l-1.646,1.953l-2.393,2.297l-2.297,1.569l-1.148,0.421l-1.34,0.115
		l-1.799,3.521l1.187,0.766L339.107,237.618z"/>
</g>
<g id="LWPOLYLINE_842_">
	<path style="fill:#0079C1;" d="M372.067,294.427c2.029,0.115,3.828,1.187,4.938,2.871c1.838,2.909,0.995,6.775-1.914,8.651
		c-2.909,1.837-6.795,0.995-8.651-1.914l-31.429,2.642c3.312,20.25,22.433,33.993,42.684,30.663
		c20.288-3.292,33.993-22.394,30.701-42.683c-3.292-20.25-22.433-33.993-42.684-30.701c-3.312,0.536-6.546,1.531-9.589,2.948
		L372.067,294.427z"/>
</g>
<g id="LWPOLYLINE_1004_">
	<path style="fill:#0079C1;" d="M317.44,303.078l6.47-0.574c-0.65-17.111,7.886-33.304,22.433-42.377l-9.762-16.844l-23.753,53.21
		C315.01,298.178,316.618,300.437,317.44,303.078z"/>
</g>
<g id="LWPOLYLINE_1005_">
	<rect x="243.903" y="404.408" style="fill:#EF3E42;" width="107.492" height="41.343"/>
</g>
<g id="LWPOLYLINE_1007_">
	<path style="fill:#0079C1;" d="M365.024,299.021c0.287-1.072,0.842-2.029,1.607-2.794l-15.6-26.912
		c-10.968,7.043-17.476,19.293-17.131,32.309L365.024,299.021z"/>
</g>
<g id="LWPOLYLINE_1009_">
	<path style="fill:#0079C1;" d="M298.032,295.728l-44.98-50.454l2.469-6.967h76.677l-24.883,55.737
		c-1.282-0.23-2.603-0.268-3.904-0.115l-1.856-8.728h3.637v-4.441h-11.485v4.441h3.541l2.106,9.838
		C298.894,295.269,298.454,295.499,298.032,295.728z"/>
</g>
<g id="LWPOLYLINE_1012_">
	<path style="fill:#0079C1;" d="M239.137,284.244l-3.082,5.359l-3.331,5.55l-1.588,1.685c0.785,0.995,1.244,2.22,1.301,3.522
		c0.172,3.445-2.488,6.393-5.953,6.546c-3.445,0.153-6.374-2.488-6.546-5.934s2.488-6.393,5.934-6.546l2.488-2.603l2.986-4.977
		l2.813-4.9l5.666-15.887c-19.102-7.542-40.692,1.876-48.234,20.939c-7.522,19.103,1.857,40.731,20.959,48.234
		c19.083,7.542,40.692-1.837,48.215-20.939c6.756-17.111-0.039-36.635-16.001-45.822L239.137,284.244z"/>
</g>
</svg>
