<?xml version="1.0" encoding="UTF-8" standalone="no"?>
<!-- Generator: Adobe Illustrator 15.1.0, SVG Export Plug-In . SVG Version: 6.00 Build 0)  -->

<svg
   xmlns:dc="http://purl.org/dc/elements/1.1/"
   xmlns:cc="http://creativecommons.org/ns#"
   xmlns:rdf="http://www.w3.org/1999/02/22-rdf-syntax-ns#"
   xmlns:svg="http://www.w3.org/2000/svg"
   xmlns="http://www.w3.org/2000/svg"
   xmlns:sodipodi="http://sodipodi.sourceforge.net/DTD/sodipodi-0.dtd"
   xmlns:inkscape="http://www.inkscape.org/namespaces/inkscape"
   version="1.1"
   id="Layer_1"
   x="0px"
   y="0px"
   width="239.2435"
   height="239.2435"
   viewBox="0 0 239.2435 239.2435"
   xml:space="preserve"
   sodipodi:docname="651.svg"
   inkscape:version="0.92.5 (2060ec1f9f, 2020-04-08)"><metadata
   id="metadata2042"><rdf:RDF><cc:Work
       rdf:about=""><dc:format>image/svg+xml</dc:format><dc:type
         rdf:resource="http://purl.org/dc/dcmitype/StillImage" /></cc:Work></rdf:RDF></metadata><defs
   id="defs2040" /><sodipodi:namedview
   pagecolor="#ffffff"
   bordercolor="#666666"
   borderopacity="1"
   objecttolerance="10"
   gridtolerance="10"
   guidetolerance="10"
   inkscape:pageopacity="0"
   inkscape:pageshadow="2"
   inkscape:window-width="640"
   inkscape:window-height="480"
   id="namedview2038"
   showgrid="false"
   inkscape:zoom="0.28028504"
   inkscape:cx="109.14976"
   inkscape:cy="53.865743"
   inkscape:window-x="0"
   inkscape:window-y="0"
   inkscape:window-maximized="0"
   inkscape:current-layer="Layer_1" />
<g
   id="g2035"
   transform="translate(-188.35024,-235.62225)">
	
		<rect
   x="188.70399"
   y="235.976"
   style="clip-rule:evenodd;fill:#0079c1;fill-rule:evenodd;stroke:#0079c1;stroke-width:0.70749998;stroke-miterlimit:10"
   width="238.536"
   height="238.536"
   id="rect2025" />
	<polygon
   style="clip-rule:evenodd;fill:#ffffff;fill-rule:evenodd"
   points="191.584,242.672 194.032,239.864 197.272,237.632 200.944,236.408 204.544,235.976 411.4,235.976 415.216,236.408 418.672,237.632 421.912,239.864 424.36,242.672 426.232,246.128 427.24,251.816 427.24,458.456 426.232,464.144 424.36,467.6 421.912,470.408 418.672,472.64 415.216,473.864 411.4,474.512 204.544,474.512 198.856,473.432 195.616,471.632 192.808,468.968 190.576,465.944 189.136,462.272 188.704,458.456 188.704,249.8 189.784,246.128 "
   id="polygon2027" />
	<polygon
   style="clip-rule:evenodd;fill:#0079c1;fill-rule:evenodd"
   points="198.496,246.776 200.728,244.904 204.544,243.896 411.4,243.896 413.992,244.328 416.44,245.768 418.312,247.784 419.32,251.816 419.104,459.824 418.312,462.488 416.44,464.504 413.992,465.944 411.4,466.376 204.544,466.376 201.952,465.944 199.504,464.504 197.704,462.488 196.84,459.824 196.624,251.816 197.272,249.008 "
   id="polygon2029" />
	<polygon
   style="clip-rule:evenodd;fill:#ffffff;fill-rule:evenodd"
   points="278.272,291.632 278.272,263.84 337.672,263.84 337.672,291.632 315.928,291.632 315.928,446.648 300.16,446.648 300.16,291.632 "
   id="polygon2031" />
	<rect
   x="282.16"
   y="267.65601"
   style="clip-rule:evenodd;fill:#ef3e42;fill-rule:evenodd"
   width="51.695999"
   height="19.944"
   id="rect2033" />
</g>
</svg>