<?xml version="1.0" encoding="iso-8859-1"?>
<!-- Generator: Adobe Illustrator 15.1.0, SVG Export Plug-In . SVG Version: 6.00 Build 0)  -->
<!DOCTYPE svg PUBLIC "-//W3C//DTD SVG 1.1//EN" "http://www.w3.org/Graphics/SVG/1.1/DTD/svg11.dtd">
<svg version="1.1" id="Layer_1" xmlns="http://www.w3.org/2000/svg" xmlns:xlink="http://www.w3.org/1999/xlink" x="0px" y="0px"
	 width="595px" height="842px" viewBox="0 0 595 842" style="enable-background:new 0 0 595 842;" xml:space="preserve">
<g>
	
		<rect x="188.704" y="235.976" style="fill-rule:evenodd;clip-rule:evenodd;fill:#0079C1;stroke:#0079C1;stroke-width:0.7075;stroke-miterlimit:10;" width="238.536" height="238.536"/>
	<polygon style="fill-rule:evenodd;clip-rule:evenodd;fill:#FFFFFF;" points="188.704,249.8 189.784,246.128 191.584,242.672 
		194.032,239.864 197.272,237.632 200.944,236.408 204.544,235.976 411.4,235.976 415.216,236.408 418.672,237.632 421.912,239.864 
		424.36,242.672 426.232,246.128 427.24,251.816 427.24,458.456 426.232,464.144 424.36,467.6 421.912,470.408 418.672,472.64 
		415.216,473.864 411.4,474.512 204.544,474.512 198.856,473.432 195.616,471.632 192.808,468.968 190.576,465.944 189.136,462.272 
		188.704,458.456 	"/>
	<polygon style="fill-rule:evenodd;clip-rule:evenodd;fill:#0079C1;" points="196.624,251.816 197.272,249.008 198.496,246.776 
		200.728,244.904 204.544,243.896 411.4,243.896 413.992,244.328 416.44,245.768 418.312,247.784 419.32,251.816 419.104,459.824 
		418.312,462.488 416.44,464.504 413.992,465.944 411.4,466.376 204.544,466.376 201.952,465.944 199.504,464.504 197.704,462.488 
		196.84,459.824 	"/>
	<polygon style="fill-rule:evenodd;clip-rule:evenodd;fill:#FFFFFF;" points="300.16,446.648 300.16,291.632 278.272,291.632 
		278.272,263.84 337.672,263.84 337.672,291.632 315.928,291.632 315.928,446.648 	"/>
	<rect x="282.16" y="267.656" style="fill-rule:evenodd;clip-rule:evenodd;fill:#EF3E42;" width="51.696" height="19.944"/>
</g>
</svg>
