<?xml version="1.0" encoding="iso-8859-1"?>
<!-- Generator: Adobe Illustrator 15.1.0, SVG Export Plug-In . SVG Version: 6.00 Build 0)  -->
<!DOCTYPE svg PUBLIC "-//W3C//DTD SVG 1.1//EN" "http://www.w3.org/Graphics/SVG/1.1/DTD/svg11.dtd">
<svg version="1.1" id="Layer_1" xmlns="http://www.w3.org/2000/svg" xmlns:xlink="http://www.w3.org/1999/xlink" x="0px" y="0px"
	 width="595px" height="842px" viewBox="0 0 595 842" style="enable-background:new 0 0 595 842;" xml:space="preserve">
<g>
	
		<rect x="145.864" y="234.032" style="fill-rule:evenodd;clip-rule:evenodd;fill:#0079C1;stroke:#0079C1;stroke-width:0.5692;stroke-miterlimit:10;" width="240.48" height="240.48"/>
	<polygon style="fill-rule:evenodd;clip-rule:evenodd;fill:#FFFFFF;" points="146.08,248.144 146.944,244.472 148.744,241.016 
		151.408,238.136 154.504,235.904 158.176,234.68 162.064,234.032 370.144,234.032 374.032,234.68 377.704,235.904 380.8,238.136 
		383.464,241.016 385.264,244.472 386.344,250.232 386.344,458.312 385.264,464.072 383.464,467.528 380.8,470.408 377.704,472.64 
		374.032,473.864 370.144,474.512 162.064,474.512 156.304,473.432 152.848,471.632 149.968,468.968 147.736,465.872 146.512,462.2 
		145.864,458.312 	"/>
	<polygon style="fill-rule:evenodd;clip-rule:evenodd;fill:#0079C1;" points="154.072,250.232 154.504,247.352 155.944,245.12 
		157.96,243.248 162.064,242.024 370.144,242.024 373.024,242.672 375.256,244.112 377.128,246.128 378.136,250.232 
		378.136,459.752 377.128,462.416 375.256,464.432 373.024,465.872 370.144,466.304 162.064,466.304 159.184,465.872 
		156.736,464.432 155.08,462.416 154.072,459.752 	"/>
	<polygon style="fill-rule:evenodd;clip-rule:evenodd;fill:#FFFFFF;" points="226.504,262.472 242.632,262.472 242.632,346.928 
		306.784,346.928 306.784,324.824 335.008,324.824 335.008,385.16 306.784,385.16 306.784,363.128 242.632,363.128 242.632,447.512 
		226.504,447.512 	"/>
	<rect x="310.888" y="328.712" style="fill-rule:evenodd;clip-rule:evenodd;fill:#EF3E42;" width="20.016" height="52.416"/>
</g>
</svg>
