<?xml version="1.0" encoding="iso-8859-1"?>
<!-- Generator: Adobe Illustrator 15.1.0, SVG Export Plug-In . SVG Version: 6.00 Build 0)  -->
<!DOCTYPE svg PUBLIC "-//W3C//DTD SVG 1.1//EN" "http://www.w3.org/Graphics/SVG/1.1/DTD/svg11.dtd">
<svg version="1.1" id="Layer_1" xmlns="http://www.w3.org/2000/svg" xmlns:xlink="http://www.w3.org/1999/xlink" x="0px" y="0px"
	 width="595px" height="842px" viewBox="0 0 595 842" style="enable-background:new 0 0 595 842;" xml:space="preserve">
<g>
	
		<rect x="145.36" y="235.256" style="fill-rule:evenodd;clip-rule:evenodd;fill:#0079C1;stroke:#0079C1;stroke-width:0.7055;stroke-miterlimit:10;" width="238.608" height="238.608"/>
	<polygon style="fill-rule:evenodd;clip-rule:evenodd;fill:#FFFFFF;" points="145.36,249.224 146.44,245.408 148.24,242.096 
		150.688,239.072 153.928,237.056 157.384,235.616 161.272,235.256 368.128,235.256 371.8,235.616 375.472,237.056 378.712,239.072 
		381.16,242.096 382.96,245.408 383.968,251.096 383.968,457.952 382.96,463.496 381.16,466.952 378.712,469.76 375.472,471.992 
		371.8,473.432 368.128,473.864 161.272,473.864 155.584,472.784 152.272,470.984 149.248,468.536 147.232,465.296 145.792,461.624 
		145.36,457.952 	"/>
	<polygon style="fill-rule:evenodd;clip-rule:evenodd;fill:#0079C1;" points="153.352,251.096 153.712,248.432 155.152,245.984 
		157.384,244.184 161.272,243.176 368.128,243.176 370.792,243.536 373.24,244.976 375.04,247.208 376.048,251.096 375.904,459.392 
		375.04,461.84 373.24,464.072 370.792,465.296 368.128,465.872 161.272,465.872 158.608,465.296 156.16,464.072 154.36,461.84 
		153.496,459.392 	"/>
	<polygon style="fill-rule:evenodd;clip-rule:evenodd;fill:#FFFFFF;" points="191.296,261.392 247.384,261.392 243.928,286.376 
		240.688,298.832 236.584,310.784 234.352,316.04 232.768,321.944 229.096,346.136 228.664,352.256 228.448,381.056 
		210.592,381.056 211.024,352.256 213.472,334.328 216.28,322.592 223.408,304.664 230.896,279.32 191.296,279.32 	"/>
	<polygon style="fill-rule:evenodd;clip-rule:evenodd;fill:#FFFFFF;" points="306.64,261.248 311.896,261.608 319.816,264.056 
		326.728,268.16 332.632,273.992 336.664,280.904 339.544,291.488 339.544,351.032 337.672,358.952 332.632,368.456 324.712,375.8 
		314.704,380.264 306.64,381.272 295.912,379.472 288.568,375.8 282.304,370.472 277.624,363.992 274.168,353.624 273.592,348.152 
		273.808,291.488 275.392,283.568 279.064,276.224 284.32,269.96 293.464,264.056 298.576,262.256 	"/>
	<polygon style="fill-rule:evenodd;clip-rule:evenodd;fill:#0079C1;" points="304.768,279.32 311.896,280.328 317.8,284.36 
		321.472,292.496 321.04,351.824 318.808,356.72 313.48,361.544 304.768,362.984 296.704,359.312 292.024,351.824 291.88,292.496 
		293.248,287.24 296.704,282.992 	"/>
	<polygon style="fill-rule:evenodd;clip-rule:evenodd;fill:#FFFFFF;" points="195.4,449.024 195.4,401.144 202.456,401.144 
		202.456,426.272 210.808,413.6 219.304,413.6 211.24,426.128 219.304,449.024 211.816,449.024 206.344,433.616 202.456,439.52 
		202.456,449.024 	"/>
	<polygon style="fill-rule:evenodd;clip-rule:evenodd;fill:#FFFFFF;" points="232.336,448.808 225.208,448.808 225.208,412.952 
		232.336,412.952 232.336,414.824 236.008,413.384 238.024,412.952 241.48,412.952 243.928,413.744 246.16,415.4 249.832,413.744 
		253.432,412.952 258.112,412.952 260.992,413.744 264.232,416.624 265.816,420.512 265.816,448.808 258.76,448.808 258.76,423.464 
		258.328,421.232 256.888,419.648 255.88,419.072 252.856,418.856 251.056,419.648 249.184,422.24 249.184,448.808 241.912,448.808 
		241.912,423.464 240.832,420.512 240.04,419.648 238.24,418.856 236.008,418.856 234.136,419.648 232.768,421.232 232.336,423.464 
			"/>
	<polygon style="fill-rule:evenodd;clip-rule:evenodd;fill:#FFFFFF;" points="273.16,452.696 309.232,396.896 305.992,394.664 
		269.92,450.464 	"/>
	<polygon style="fill-rule:evenodd;clip-rule:evenodd;fill:#FFFFFF;" points="318.376,449.024 311.248,449.024 311.248,401.144 
		318.376,401.144 318.376,415.4 320.392,414.392 322.48,413.744 326.728,413.168 329.536,413.6 332.2,415.184 334.216,417.416 
		335.224,420.296 335.224,449.024 327.952,449.024 327.952,423.68 326.944,420.656 324.28,419.072 322.048,419.072 319.384,420.656 
		318.376,423.68 	"/>
</g>
</svg>
