<?xml version="1.0" encoding="UTF-8" standalone="no"?>
<!-- Generator: Adobe Illustrator 15.1.0, SVG Export Plug-In . SVG Version: 6.00 Build 0)  -->

<svg
   xmlns:dc="http://purl.org/dc/elements/1.1/"
   xmlns:cc="http://creativecommons.org/ns#"
   xmlns:rdf="http://www.w3.org/1999/02/22-rdf-syntax-ns#"
   xmlns:svg="http://www.w3.org/2000/svg"
   xmlns="http://www.w3.org/2000/svg"
   xmlns:sodipodi="http://sodipodi.sourceforge.net/DTD/sodipodi-0.dtd"
   xmlns:inkscape="http://www.inkscape.org/namespaces/inkscape"
   version="1.1"
   id="Layer_1"
   x="0px"
   y="0px"
   width="455.10211"
   height="222.11009"
   viewBox="0 0 455.10211 222.11009"
   xml:space="preserve"
   sodipodi:docname="661.svg"
   inkscape:version="0.92.5 (2060ec1f9f, 2020-04-08)"><metadata
   id="metadata2141"><rdf:RDF><cc:Work
       rdf:about=""><dc:format>image/svg+xml</dc:format><dc:type
         rdf:resource="http://purl.org/dc/dcmitype/StillImage" /></cc:Work></rdf:RDF></metadata><defs
   id="defs2139" /><sodipodi:namedview
   pagecolor="#ffffff"
   bordercolor="#666666"
   borderopacity="1"
   objecttolerance="10"
   gridtolerance="10"
   guidetolerance="10"
   inkscape:pageopacity="0"
   inkscape:pageshadow="2"
   inkscape:window-width="640"
   inkscape:window-height="480"
   id="namedview2137"
   showgrid="false"
   inkscape:zoom="0.28028504"
   inkscape:cx="217.11505"
   inkscape:cy="18.191041"
   inkscape:window-x="0"
   inkscape:window-y="0"
   inkscape:window-maximized="0"
   inkscape:current-layer="Layer_1" />
<g
   id="g2134"
   transform="translate(-80.384948,-217.08095)">
	
		<rect
   x="80.919998"
   y="217.616"
   style="clip-rule:evenodd;fill:#0079c1;fill-rule:evenodd;stroke:#0079c1;stroke-width:1.07009995;stroke-miterlimit:10"
   width="454.03201"
   height="221.03999"
   id="rect2092" />
	<polygon
   style="clip-rule:evenodd;fill:#ffffff;fill-rule:evenodd"
   points="83.296,222.584 84.808,220.712 87.112,219.128 91.36,217.616 524.944,217.616 527.608,218.408 529.912,219.56 531.856,221.432 533.8,223.808 534.16,225.32 534.952,228.416 534.952,427.064 534.592,429.8 533.8,432.464 531.856,434.768 529.912,436.712 526.888,438.224 523.432,438.656 91.72,438.656 88.624,437.864 85.96,436.712 84.016,434.768 82.504,432.464 81.352,429.8 80.92,428.648 80.92,227.984 81.712,225.32 "
   id="polygon2094" />
	<polygon
   style="clip-rule:evenodd;fill:#0079c1;fill-rule:evenodd"
   points="89.056,224.96 90.568,223.808 92.512,223.376 523.432,223.376 525.304,223.808 527.608,225.68 529.192,228.416 529.192,229.136 529.192,427.064 528.76,429.008 527.608,430.952 526.096,432.104 524.152,432.824 523.432,432.824 92.512,432.824 90.568,432.464 89.056,431.672 87.472,430.16 86.752,428.216 86.752,427.064 86.752,229.136 87.112,227.264 "
   id="polygon2096" />
	<polygon
   style="clip-rule:evenodd;fill:#ffffff;fill-rule:evenodd"
   points="115.912,261.464 115.912,252.608 154,252.608 154,261.464 139.384,261.464 139.384,310.64 130.528,310.64 130.528,261.464 "
   id="polygon2098" />
	<polygon
   style="clip-rule:evenodd;fill:#ffffff;fill-rule:evenodd"
   points="173.584,291.848 174.376,295.664 176.68,299.12 179.776,301.424 183.592,302.216 187.84,301.424 190.936,299.12 193.24,295.664 193.96,291.848 193.96,252.608 202.816,252.608 202.456,295.304 200.512,300.272 197.848,304.52 193.6,307.976 187.048,310.28 183.592,310.64 178.624,310.28 173.584,307.976 169.768,304.52 166.672,300.272 165.52,297.176 164.8,291.848 164.8,252.608 173.584,252.608 "
   id="polygon2100" />
	<polygon
   style="clip-rule:evenodd;fill:#ffffff;fill-rule:evenodd"
   points="330.4,291.848 331.192,295.664 333.496,299.12 336.592,301.424 340.408,302.216 344.656,301.424 347.68,299.12 349.984,295.664 350.776,291.848 350.776,252.608 359.632,252.608 359.272,295.304 357.328,300.272 354.592,304.52 350.416,307.976 343.864,310.28 340.408,310.64 335.368,310.28 330.4,307.976 326.584,304.52 323.488,300.272 322.336,297.176 321.544,291.848 321.544,252.608 330.4,252.608 "
   id="polygon2102" />
	<polygon
   style="clip-rule:evenodd;fill:#ffffff;fill-rule:evenodd"
   points="280.864,252.608 280.864,280.688 299.296,252.608 309.664,252.608 293.176,277.592 309.664,310.64 300.016,310.64 287.776,286.088 280.864,296.456 280.864,310.64 272.008,310.64 272.008,252.608 "
   id="polygon2104" />
	<polygon
   style="clip-rule:evenodd;fill:#ffffff;fill-rule:evenodd"
   points="244,252.608 247.024,253.4 251.272,255.272 254.368,258.368 256.672,262.616 257.392,267.224 257.032,272.984 254.368,278.744 251.272,281.84 247.024,283.784 257.392,310.64 248.176,310.64 237.808,283.784 231.256,283.784 231.256,310.64 222.472,310.64 222.472,252.608 "
   id="polygon2106" />
	<polygon
   style="clip-rule:evenodd;fill:#0079c1;fill-rule:evenodd"
   points="246.304,262.616 248.176,265.712 248.608,269.888 247.816,272.624 245.512,275.288 243.568,275.648 231.256,276.08 231.256,261.464 243.568,261.464 "
   id="polygon2108" />
	<polygon
   style="clip-rule:evenodd;fill:#ffffff;fill-rule:evenodd"
   points="330.04,291.848 330.76,295.664 333.856,299.912 338.896,301.856 342.712,301.856 347.32,299.12 349.624,295.664 350.416,291.848 350.416,252.608 359.272,252.608 358.84,295.304 357.328,300.272 355.384,303.368 351.568,306.824 348.832,308.768 343.864,310.28 338.464,310.64 333.496,309.488 328.888,306.824 324.28,301.856 321.976,297.176 321.184,291.848 321.184,252.608 330.04,252.608 "
   id="polygon2110" />
	<polygon
   style="clip-rule:evenodd;fill:#ffffff;fill-rule:evenodd"
   points="151.696,356.432 149.392,352.184 145.936,348.728 141.688,346.424 137.08,345.632 131.32,345.632 126.712,347.216 122.464,349.52 119.368,353.336 117.496,359.456 117.496,364.136 120.16,369.896 124.768,374.072 139.744,379.904 142.48,381.776 144.784,384.872 144.424,388.328 143.272,390.992 140.176,393.728 137.872,394.88 133.624,395.24 129.808,393.728 126.712,391.424 125.56,389.12 124.768,384.872 115.912,384.872 116.704,390.272 118.648,394.88 120.952,397.544 124.768,401 129.808,403.304 134.776,403.736 140.536,403.736 144.784,402.152 148.6,399.056 151.696,395.24 153.208,390.992 153.64,386.024 152.848,381.416 150.544,377.168 147.088,373.712 142.84,371.768 129.808,367.16 127.504,364.856 126.352,362.192 126.352,359.096 128.224,356.432 131.68,354.488 135.928,353.696 139.024,354.848 142.48,357.152 143.632,361.04 152.488,361.04 "
   id="polygon2112" />
	<polygon
   style="clip-rule:evenodd;fill:#ffffff;fill-rule:evenodd"
   points="186.688,345.632 202.096,403.736 193.24,403.736 190.504,394.088 172.864,394.088 170.128,403.736 161.344,403.736 176.68,345.632 "
   id="polygon2114" />
	<polygon
   style="clip-rule:evenodd;fill:#0079c1;fill-rule:evenodd"
   points="188.2,385.232 175.528,385.232 181.72,362.984 "
   id="polygon2116" />
	<polygon
   style="clip-rule:evenodd;fill:#ffffff;fill-rule:evenodd"
   points="244,403.736 244,395.24 223.624,395.24 223.624,345.632 214.768,345.632 214.768,403.736 "
   id="polygon2118" />
	<polygon
   style="clip-rule:evenodd;fill:#ffffff;fill-rule:evenodd"
   points="279.712,349.52 283.168,353.336 286.264,359.456 287.056,364.496 287.056,384.872 286.264,390.272 284.32,394.88 280.864,399.056 276.616,401.792 271.648,403.736 266.248,403.736 262.792,403.304 258.184,401 254.368,397.544 251.272,393.296 249.328,386.816 249.328,362.984 250.48,357.944 252.064,354.488 255.52,350.672 259.768,347.576 264.736,346.064 268.192,345.632 275.104,346.784 "
   id="polygon2120" />
	<polygon
   style="clip-rule:evenodd;fill:#0079c1;fill-rule:evenodd"
   points="275.464,357.152 278.2,361.832 278.56,364.496 278.56,384.872 277.408,388.688 275.464,392.144 272.008,394.448 267.04,395.24 263.224,393.728 259.336,390.272 258.184,386.384 258.184,361.832 259.336,359.456 260.92,357.152 264.376,355.28 268.192,354.488 272.008,355.28 "
   id="polygon2122" />
	<polygon
   style="clip-rule:evenodd;fill:#ffffff;fill-rule:evenodd"
   points="453.808,253.4 452.296,263.768 450.712,270.32 448.048,278.384 446.536,282.992 445.384,289.544 444.592,296.456 444.592,310.64 436.168,310.64 436.168,298.328 436.528,293 438.832,282.992 441.136,276.44 443.8,269.528 445.744,261.824 426.88,261.824 426.88,253.4 "
   id="polygon2124" />
	<polygon
   style="clip-rule:evenodd;fill:#ffffff;fill-rule:evenodd"
   points="493.408,255.704 496.864,259.16 499.168,263.768 499.96,268.736 499.96,296.456 498.808,301.424 494.992,306.824 488.8,309.92 484.192,310.64 479.224,309.92 473.392,306.824 469.936,303.008 468.424,297.968 468.424,265.28 469.936,260.672 474.616,255.704 480.736,252.968 484.192,252.608 488.8,253.4 "
   id="polygon2126" />
	<polygon
   style="clip-rule:evenodd;fill:#0079c1;fill-rule:evenodd"
   points="491.464,268.736 491.104,296.024 489.952,299.12 486.136,301.856 481.888,301.856 478.072,299.12 476.92,296.024 476.92,267.584 478.072,264.128 480.736,262.256 483.04,261.464 485.344,261.464 489.952,264.128 "
   id="polygon2128" />
	<polygon
   style="clip-rule:evenodd;fill:#ffffff;fill-rule:evenodd"
   points="422.704,359.888 424.216,355.28 426.88,351.032 430.768,347.936 436.888,345.632 441.928,346.064 446.896,347.936 451.504,352.544 454.24,358.304 454.24,365.288 452.296,369.896 433.432,395.24 454.6,395.24 454.6,403.736 422.704,403.736 422.704,395.24 445.384,364.136 445.744,361.832 444.952,358.304 443.08,356 439.984,354.488 436.528,354.848 433.072,357.152 431.488,360.248 431.488,364.496 422.704,364.496 "
   id="polygon2130" />
	<polygon
   style="clip-rule:evenodd;fill:#ffffff;fill-rule:evenodd"
   points="471.088,345.632 494.2,345.632 494.992,354.488 478.792,354.488 477.64,366.8 482.248,365.648 487.288,366.008 493.408,368.312 496.864,372.2 499.6,378.32 499.96,381.416 499.6,391.424 498.016,396.032 494.992,399.848 488.8,402.944 484.192,403.736 479.224,402.944 473.392,399.848 469.936,396.032 468.784,392.936 468.064,387.968 476.92,387.968 477.28,390.272 478.792,392.936 483.04,395.24 487.288,394.448 490.744,391.424 491.104,389.12 491.104,380.264 489.952,377.168 487.288,374.864 484.192,374.072 480.736,374.864 478.072,377.168 468.064,374.864 "
   id="polygon2132" />
</g>
</svg>