<?xml version="1.0" encoding="iso-8859-1"?>
<!-- Generator: Adobe Illustrator 15.1.0, SVG Export Plug-In . SVG Version: 6.00 Build 0)  -->
<!DOCTYPE svg PUBLIC "-//W3C//DTD SVG 1.1//EN" "http://www.w3.org/Graphics/SVG/1.1/DTD/svg11.dtd">
<svg version="1.1" id="Layer_1" xmlns="http://www.w3.org/2000/svg" xmlns:xlink="http://www.w3.org/1999/xlink" x="0px" y="0px"
	 width="595px" height="842px" viewBox="0 0 595 842" style="enable-background:new 0 0 595 842;" xml:space="preserve">
<g>
	
		<rect x="44.344" y="279.824" style="fill-rule:evenodd;clip-rule:evenodd;fill:#0079C1;stroke:#0079C1;stroke-width:1.131;stroke-miterlimit:10;" width="479.808" height="100.728"/>
	<polygon style="fill-rule:evenodd;clip-rule:evenodd;fill:#FFFFFF;" points="44.344,288.752 44.776,286.736 46,284.288 
		47.656,282.272 49.672,281.048 52.912,279.824 514,279.824 517.672,280.616 520.552,282.272 522.136,284.288 523.792,287.528 
		524.152,289.976 524.152,370.4 523.36,374.072 522.136,376.088 520.552,377.744 518.896,379.4 516.448,380.192 514,380.552 
		52.912,380.192 49.672,379.4 47.656,377.744 46,376.088 44.776,374.072 44.344,371.624 	"/>
	<polygon style="fill-rule:evenodd;clip-rule:evenodd;fill:#0079C1;" points="49.24,289.976 50.104,287.528 50.896,285.944 
		52.48,285.08 54.136,284.72 514,284.72 515.656,285.08 517.312,285.944 518.464,287.528 518.896,289.976 518.896,371.264 
		517.672,373.712 516.448,374.504 514.864,375.296 514,375.296 54.136,375.296 52.48,374.864 50.896,374.072 50.104,372.848 
		49.24,371.264 49.24,369.608 	"/>
	<polygon style="fill-rule:evenodd;clip-rule:evenodd;fill:#FFFFFF;" points="74.44,355.424 74.44,305.024 91.504,305.024 
		94.384,305.384 96.832,305.816 100.072,308.264 102.88,311.072 104.104,314.744 104.536,318.848 103.672,324.104 101.296,328.568 
		97.984,331.016 95.608,331.808 81.784,331.808 81.784,355.424 	"/>
	<polygon style="fill-rule:evenodd;clip-rule:evenodd;fill:#0079C1;" points="81.784,312.296 92.728,312.728 94.744,313.52 
		96.832,315.968 96.832,320.432 95.968,322.88 93.952,324.536 92.728,324.896 81.784,324.896 	"/>
	<polygon style="fill-rule:evenodd;clip-rule:evenodd;fill:#FFFFFF;" points="114.688,305.024 122.392,305.024 122.392,338.72 
		122.824,342.392 125.632,346.064 130.096,347.648 133.336,347.288 137.44,345.272 138.664,343.184 139.888,338.72 139.888,305.024 
		147.592,305.024 147.16,340.376 146.368,344.84 144.352,348.872 141.112,352.112 137.008,354.2 132.544,354.992 128.08,354.992 
		123.616,353.336 121.168,352.112 117.928,348.872 115.912,344.84 114.688,340.376 	"/>
	<polygon style="fill-rule:evenodd;clip-rule:evenodd;fill:#FFFFFF;" points="461.224,305.024 468.496,305.024 468.496,338.72 
		469.36,342.392 472.168,346.064 476.272,347.648 479.512,347.288 483.544,345.272 484.768,343.184 485.992,338.72 485.992,305.024 
		493.696,305.024 493.696,340.376 492.472,344.84 490.456,348.872 487.216,352.112 483.112,354.2 478.648,354.992 474.184,354.992 
		470.152,353.336 467.704,352.112 464.464,348.872 462.016,344.84 461.224,340.376 	"/>
	<polygon style="fill-rule:evenodd;clip-rule:evenodd;fill:#FFFFFF;" points="172.36,355.424 165.088,355.424 165.088,305.024 
		172.36,305.024 189.856,338.72 189.856,305.024 197.56,305.024 197.56,355.424 189.856,355.424 172.36,321.296 	"/>
	<polygon style="fill-rule:evenodd;clip-rule:evenodd;fill:#FFFFFF;" points="213.832,355.424 213.832,305.024 221.536,305.024 
		221.536,329 237.376,305.024 246.736,305.024 232.12,326.552 246.736,355.424 238.168,355.424 227.224,333.824 221.536,342.824 
		221.536,355.424 	"/>
	<polygon style="fill-rule:evenodd;clip-rule:evenodd;fill:#FFFFFF;" points="259.336,355.424 251.632,355.424 265.024,305.024 
		273.52,305.024 286.984,355.424 279.208,355.424 276.832,346.856 261.784,346.856 	"/>
	<polygon style="fill-rule:evenodd;clip-rule:evenodd;fill:#0079C1;" points="263.8,339.152 269.056,320.072 274.744,339.152 	"/>
	<polygon style="fill-rule:evenodd;clip-rule:evenodd;fill:#FFFFFF;" points="348.256,355.424 340.912,355.424 353.944,305.024 
		362.44,305.024 375.904,355.424 368.56,355.424 366.112,346.856 350.704,346.856 	"/>
	<polygon style="fill-rule:evenodd;clip-rule:evenodd;fill:#007AC2;" points="352.72,339.152 358.408,320.072 363.664,339.152 	"/>
	<polygon style="fill-rule:evenodd;clip-rule:evenodd;fill:#FFFFFF;" points="305.56,355.424 297.928,355.424 297.928,305.024 
		305.56,305.024 305.56,324.896 323.056,324.896 323.056,305.024 330.76,305.024 330.76,355.424 323.056,355.424 323.056,332.672 
		305.56,332.672 	"/>
	<polygon style="fill-rule:evenodd;clip-rule:evenodd;fill:#FFFFFF;" points="340.552,355.424 353.944,305.024 362.44,305.024 
		375.904,355.424 368.56,355.424 365.752,346.856 350.704,346.856 348.256,355.424 	"/>
	<polygon style="fill-rule:evenodd;clip-rule:evenodd;fill:#0079C1;" points="352.72,339.152 358.408,320.072 363.664,339.152 	"/>
	<polygon style="fill-rule:evenodd;clip-rule:evenodd;fill:#FFFFFF;" points="388.504,355.424 388.504,305.024 407.152,305.024 
		409.6,305.384 412.048,306.608 414.496,308.264 416.944,311.072 418.528,315.968 418.528,321.296 416.944,326.552 414.496,329.36 
		410.032,331.808 418.528,355.424 410.392,355.424 401.896,331.808 396.208,331.808 396.208,355.424 	"/>
	<polygon style="fill-rule:evenodd;clip-rule:evenodd;fill:#0079C1;" points="396.208,312.296 406.792,312.728 409.6,313.952 
		411.256,316.76 411.256,320.432 408.808,324.104 406.792,324.896 396.208,324.896 	"/>
	<polygon style="fill-rule:evenodd;clip-rule:evenodd;fill:#FFFFFF;" points="441.28,305.024 448.984,305.024 448.624,342.824 
		447.832,346.856 445.384,350.528 441.712,353.336 438.04,354.992 435.232,355.424 432.352,354.992 428.32,353.336 424.648,350.528 
		422.2,346.856 421.408,344.408 421.408,341.168 428.68,341.168 429.904,345.272 433.144,347.288 436.024,347.648 438.832,346.424 
		440.92,343.184 	"/>
</g>
</svg>
