<?xml version="1.0" encoding="iso-8859-1"?>
<!-- Generator: Adobe Illustrator 15.1.0, SVG Export Plug-In . SVG Version: 6.00 Build 0)  -->
<!DOCTYPE svg PUBLIC "-//W3C//DTD SVG 1.1//EN" "http://www.w3.org/Graphics/SVG/1.1/DTD/svg11.dtd">
<svg version="1.1" id="Layer_1" xmlns="http://www.w3.org/2000/svg" xmlns:xlink="http://www.w3.org/1999/xlink" x="0px" y="0px"
	 width="595.28px" height="841.89px" viewBox="0 0 595.28 841.89" style="enable-background:new 0 0 595.28 841.89;"
	 xml:space="preserve">
<g id="LWPOLYLINE_1061_">
	<path style="fill:#EF3E42;" d="M93.485,669.044H501.35c24.397,0,44.1-19.701,44.1-44.099V217.029
		c0-24.295-19.702-44.099-44.1-44.099H93.485c-24.346,0-44.099,19.804-44.099,44.099v407.916
		C49.386,649.343,69.139,669.044,93.485,669.044z"/>
</g>
<g id="LWPOLYLINE_856_">
	<rect x="333.223" y="172.93" style="fill:#FFFFFF;" width="71.661" height="22.049"/>
</g>
<g id="LWPOLYLINE_857_">
	<path style="fill:#FFFFFF;" d="M206.489,363.107h49.561V346.57c0-5.308,1.072-10.616,3.063-15.618
		c8.677-21.131,32.768-31.237,53.899-22.662c21.131,8.677,31.287,32.768,22.662,53.899L206.489,536.747v49.611h181.858v-49.611
		H262.685L382.936,377.5c17.099-47.264-7.4-99.427-54.613-116.475c-47.263-17.047-99.375,7.452-116.474,54.716
		c-4.594,12.76-6.278,26.439-4.9,40.016L206.489,363.107z"/>
</g>
<g id="LWPOLYLINE_1060_">
	<rect x="333.223" y="646.994" style="fill:#FFFFFF;" width="71.661" height="22.05"/>
</g>
<g id="LWPOLYLINE_1062_">
	<rect x="189.952" y="646.994" style="fill:#FFFFFF;" width="71.61" height="22.05"/>
</g>
<g id="LWPOLYLINE_1063_">
	<path style="fill:#FFFFFF;" d="M476.544,669.044h24.806c24.397,0,44.1-19.701,44.1-44.099V600.14h-22.05v24.806
		c0,12.147-9.901,22.049-22.05,22.049h-24.806V669.044z"/>
</g>
<g id="LWPOLYLINE_1064_">
	<path style="fill:#FFFFFF;" d="M545.449,241.835v-24.806c0-24.295-19.702-44.099-44.1-44.099h-24.806v22.049h24.806
		c12.148,0,22.05,9.902,22.05,22.05v24.806H545.449z"/>
</g>
<g id="LWPOLYLINE_1065_">
	<rect x="523.399" y="456.817" style="fill:#FFFFFF;" width="22.05" height="71.661"/>
</g>
<g id="LWPOLYLINE_1066_">
	<rect x="523.399" y="313.496" style="fill:#FFFFFF;" width="22.05" height="71.661"/>
</g>
<g id="LWPOLYLINE_1067_">
	<path style="fill:#FFFFFF;" d="M118.291,172.93H93.485c-24.346,0-44.099,19.804-44.099,44.099v24.806h22.049v-24.806
		c0-12.148,9.851-22.05,22.049-22.05h24.806V172.93z"/>
</g>
<g id="LWPOLYLINE_1069_">
	<rect x="189.952" y="172.93" style="fill:#FFFFFF;" width="71.61" height="22.049"/>
</g>
<g id="LWPOLYLINE_1071_">
	<rect x="49.386" y="313.496" style="fill:#FFFFFF;" width="22.049" height="71.661"/>
</g>
<g id="LWPOLYLINE_1073_">
	<rect x="49.386" y="456.817" style="fill:#FFFFFF;" width="22.049" height="71.661"/>
</g>
<g id="LWPOLYLINE_1074_">
	<path style="fill:#FFFFFF;" d="M49.386,600.14v24.806c0,24.397,19.752,44.099,44.099,44.099h24.806v-22.05H93.485
		c-12.198,0-22.049-9.901-22.049-22.049V600.14H49.386z"/>
</g>
</svg>
