<?xml version="1.0" encoding="UTF-8" standalone="no"?>
<!-- Generator: Adobe Illustrator 15.1.0, SVG Export Plug-In . SVG Version: 6.00 Build 0)  -->

<svg
   xmlns:dc="http://purl.org/dc/elements/1.1/"
   xmlns:cc="http://creativecommons.org/ns#"
   xmlns:rdf="http://www.w3.org/1999/02/22-rdf-syntax-ns#"
   xmlns:svg="http://www.w3.org/2000/svg"
   xmlns="http://www.w3.org/2000/svg"
   xmlns:sodipodi="http://sodipodi.sourceforge.net/DTD/sodipodi-0.dtd"
   xmlns:inkscape="http://www.inkscape.org/namespaces/inkscape"
   version="1.1"
   id="Layer_1"
   x="0px"
   y="0px"
   width="86.818993"
   height="86.746696"
   viewBox="0 0 86.818993 86.746696"
   xml:space="preserve"
   sodipodi:docname="664.svg"
   inkscape:version="0.92.5 (2060ec1f9f, 2020-04-08)"><metadata
   id="metadata2352"><rdf:RDF><cc:Work
       rdf:about=""><dc:format>image/svg+xml</dc:format><dc:type
         rdf:resource="http://purl.org/dc/dcmitype/StillImage" /></cc:Work></rdf:RDF></metadata><defs
   id="defs2350" /><sodipodi:namedview
   pagecolor="#ffffff"
   bordercolor="#666666"
   borderopacity="1"
   objecttolerance="10"
   gridtolerance="10"
   guidetolerance="10"
   inkscape:pageopacity="0"
   inkscape:pageshadow="2"
   inkscape:window-width="640"
   inkscape:window-height="480"
   id="namedview2348"
   showgrid="false"
   inkscape:zoom="0.28028504"
   inkscape:cx="145.29335"
   inkscape:cy="-89.99065"
   inkscape:window-x="0"
   inkscape:window-y="0"
   inkscape:window-maximized="0"
   inkscape:current-layer="Layer_1" />
<polygon
   style="clip-rule:evenodd;fill:#ef3e42;fill-rule:evenodd;stroke:#ef3e42;stroke-width:0.70670003;stroke-miterlimit:10"
   points="238.672,330.656 152.56,330.656 152.56,244.616 238.6,244.616 "
   id="polygon2339"
   transform="translate(-152.20665,-244.26265)" />
<polygon
   style="clip-rule:evenodd;fill:#ffffff;fill-rule:evenodd"
   points="154,247.568 154.936,246.488 156.808,245.264 159.76,244.616 231.472,244.616 233.704,244.976 235.072,245.624 236.296,246.488 237.304,247.568 238.024,248.936 238.6,251.096 238.6,324.248 238.312,325.76 237.304,327.776 236.296,328.856 235.072,329.72 232.984,330.512 231.472,330.656 159.76,330.656 157.528,330.368 155.512,329.288 154,327.776 152.992,325.76 152.56,324.248 152.56,251.096 152.992,249.584 "
   id="polygon2341"
   transform="translate(-152.20665,-244.26265)" />
<polygon
   style="clip-rule:evenodd;fill:#ef3e42;fill-rule:evenodd"
   points="156.808,249.728 157.6,248.936 159.256,248.288 231.112,248.216 232.624,248.432 233.56,248.936 234.352,249.728 235,251.24 235,324.104 234.64,325.184 233.56,326.48 232.624,326.984 231.472,327.128 159.256,327.056 158.104,326.768 156.808,325.688 156.304,324.608 156.232,324.104 156.16,251.816 156.304,250.736 "
   id="polygon2343"
   transform="translate(-152.20665,-244.26265)" />
<polygon
   style="clip-rule:evenodd;fill:#ffffff;fill-rule:evenodd"
   points="188.488,274.064 189.064,271.904 189.856,270.536 190.792,269.456 192.664,268.232 194.896,267.656 197.128,267.728 199.216,268.592 201.016,269.96 202.168,271.904 202.744,274.064 202.6,276.296 201.808,278.456 179.848,307.76 179.848,316.328 211.384,316.328 211.384,307.76 190.576,307.76 208.936,283.208 210.448,280.112 211.24,276.656 211.312,273.2 210.592,269.744 209.152,266.648 206.992,263.768 204.256,261.608 201.16,260.024 198.424,259.16 195.472,258.944 193.096,259.16 189.208,260.24 186.616,261.824 184.024,264.056 181.864,266.936 180.496,270.104 179.848,273.632 179.848,277.664 188.56,277.664 "
   id="polygon2345"
   transform="translate(-152.20665,-244.26265)" />
</svg>