<?xml version="1.0" encoding="iso-8859-1"?>
<!-- Generator: Adobe Illustrator 15.1.0, SVG Export Plug-In . SVG Version: 6.00 Build 0)  -->
<!DOCTYPE svg PUBLIC "-//W3C//DTD SVG 1.1//EN" "http://www.w3.org/Graphics/SVG/1.1/DTD/svg11.dtd">
<svg version="1.1" id="Layer_1" xmlns="http://www.w3.org/2000/svg" xmlns:xlink="http://www.w3.org/1999/xlink" x="0px" y="0px"
	 width="595px" height="842px" viewBox="0 0 595 842" style="enable-background:new 0 0 595 842;" xml:space="preserve">
<g>
	<rect x="181.72" y="258.296" style="fill-rule:evenodd;clip-rule:evenodd;fill:#FFD200;" width="108.72" height="86.184"/>
	<polygon style="fill-rule:evenodd;clip-rule:evenodd;" points="183.664,269.816 184.024,267.224 185.176,264.704 186.832,262.688 
		188.2,261.68 190.648,260.6 192.448,260.312 278.92,260.24 280.648,260.384 283.24,261.248 285.4,262.688 287.128,264.704 
		287.848,266.36 288.496,268.952 288.496,333.032 288.424,334.76 287.56,337.28 286.552,338.72 285.4,340.088 283.96,341.096 
		282.448,341.96 279.856,342.464 193.24,342.608 190.648,342.248 188.2,341.096 186.184,339.44 184.672,337.28 183.88,334.76 
		183.808,333.824 	"/>
	<polygon style="fill-rule:evenodd;clip-rule:evenodd;fill:#FFD200;" points="187.552,269.816 187.912,267.8 188.92,266 
		190.072,265.136 191.224,264.488 192.592,264.128 278.92,264.128 280.936,264.488 282.808,265.568 283.744,266.576 
		284.536,268.448 284.752,269.816 284.608,333.68 284.104,335.696 282.808,337.352 280.936,338.36 279.64,338.72 192.592,338.72 
		191.224,338.36 190.072,337.712 188.92,336.776 188.2,335.696 187.552,333.68 	"/>
	<polygon style="fill-rule:evenodd;clip-rule:evenodd;" points="216.568,272.624 225.208,272.624 225.208,309.92 229.816,309.92 
		229.816,318.56 225.208,318.56 225.208,330.08 216.568,330.08 216.568,318.56 195.256,318.56 195.256,309.92 	"/>
	<polygon style="fill-rule:evenodd;clip-rule:evenodd;fill:#FFD520;" points="205.192,309.92 216.568,290.048 216.568,309.92 	"/>
	<polygon style="fill-rule:evenodd;clip-rule:evenodd;" points="242.416,291.344 251.056,291.344 251.056,287.816 251.632,285.656 
		253.36,283.208 255.304,281.912 256.744,281.48 258.976,281.408 261.136,281.912 263.008,283.208 264.448,285.008 265.24,287.096 
		265.312,289.328 264.736,291.488 242.416,321.512 242.416,330.152 274.024,330.152 274.024,321.512 253.144,321.512 
		272.152,296.024 273.016,293.936 273.952,291.128 273.808,285.8 272.728,282.416 271.072,279.392 268.696,276.728 265.888,274.64 
		262.648,273.416 259.264,272.768 256.816,272.768 253.432,273.488 250.192,274.856 247.384,276.944 245.152,279.68 
		243.496,282.776 242.56,286.16 242.416,288.464 	"/>
</g>
</svg>
