<?xml version="1.0" encoding="iso-8859-1"?>
<!-- Generator: Adobe Illustrator 15.1.0, SVG Export Plug-In . SVG Version: 6.00 Build 0)  -->
<!DOCTYPE svg PUBLIC "-//W3C//DTD SVG 1.1//EN" "http://www.w3.org/Graphics/SVG/1.1/DTD/svg11.dtd">
<svg version="1.1" id="Layer_1" xmlns="http://www.w3.org/2000/svg" xmlns:xlink="http://www.w3.org/1999/xlink" x="0px" y="0px"
	 width="595px" height="842px" viewBox="0 0 595 842" style="enable-background:new 0 0 595 842;" xml:space="preserve">
<g>
	
		<rect x="217.144" y="186.728" style="fill-rule:evenodd;clip-rule:evenodd;fill:none;stroke:#000000;stroke-width:0.3623;stroke-miterlimit:10;" width="153.936" height="85.608"/>
	<polygon style="fill-rule:evenodd;clip-rule:evenodd;" points="219.376,195.296 219.808,193.208 220.456,191.912 221.248,190.904 
		222.904,189.536 225.64,189.032 362.512,189.032 364.6,189.32 366.4,190.328 368.128,192.56 368.776,195.296 368.776,263.768 
		368.128,266.504 366.904,268.232 365.248,269.384 363.16,270.032 224.992,270.032 222.904,269.384 221.248,268.232 
		220.024,266.504 219.376,264.416 	"/>
	<polygon style="fill-rule:evenodd;clip-rule:evenodd;fill:#FFFFFF;" points="223.696,195.296 224.056,194.144 224.848,193.496 
		225.64,193.208 362.872,193.352 363.304,193.496 363.952,193.856 364.312,194.504 364.456,194.936 364.456,264.128 
		364.168,264.776 363.664,265.496 363.16,265.568 362.512,265.712 225.64,265.712 224.848,265.568 224.344,265.208 223.84,264.56 
		223.696,263.768 	"/>
	<polygon style="fill-rule:evenodd;clip-rule:evenodd;" points="238.96,201.056 236.08,229.496 246.16,231.8 247.024,230.792 
		248.32,229.856 250.408,229.064 252.64,228.92 254.728,229.568 256.528,230.792 257.968,232.592 258.904,234.968 258.76,243.824 
		257.608,246.56 256.024,248.144 253.936,249.152 251.704,249.584 249.616,249.152 247.528,248.144 246.016,246.56 245.08,244.616 
		244.72,242.384 236.08,242.384 236.224,244.76 236.728,246.92 237.664,249.152 238.816,251.24 240.256,253.04 242.056,254.624 
		243.928,255.92 246.16,257 249.544,257.864 253.072,258.008 256.456,257.36 259.696,255.92 262.432,253.832 264.808,251.24 
		266.464,248.144 267.4,244.76 267.4,233.744 266.896,231.584 265.456,228.416 263.44,225.536 261.784,224.024 259.984,222.656 
		257.896,221.648 254.44,220.64 251.056,220.496 248.752,220.712 245.512,221.792 246.664,209.552 262.432,209.552 261.784,201.056 
			"/>
	<polygon style="fill-rule:evenodd;clip-rule:evenodd;" points="278.848,219.56 287.56,219.56 287.488,216.032 288.136,213.8 
		289.432,211.64 291.016,210.56 293.824,209.552 295.408,209.552 298.144,210.56 299.944,212 301.096,213.8 301.456,215.24 
		301.6,217.112 301.312,219.056 300.664,220.352 278.848,249.584 278.848,258.008 310.24,258.008 310.24,249.584 289.648,249.584 
		307.72,225.176 309.016,222.584 310.096,218.624 310.096,215.096 309.016,210.704 307.36,207.536 304.984,204.944 303.184,203.504 
		300.016,201.992 297.496,201.272 293.824,200.912 290.44,201.416 288.784,202.064 285.616,203.792 283.024,206.096 
		280.936,208.904 279.64,212.144 279.136,214.88 278.848,216.68 	"/>
	<polygon style="fill-rule:evenodd;clip-rule:evenodd;" points="322.48,219.56 331.048,219.56 331.048,216.032 331.624,213.8 
		333.064,211.64 334.576,210.56 337.312,209.552 338.896,209.552 341.632,210.56 343.432,212 344.656,213.8 345.016,215.24 
		345.16,217.112 344.872,219.056 344.224,220.352 322.48,249.584 322.48,258.008 353.8,258.008 353.8,249.584 333.136,249.584 
		351.28,225.176 352.576,222.584 353.656,218.624 353.8,215.096 352.576,210.704 350.92,207.536 348.544,204.944 346.744,203.504 
		343.576,201.992 340.984,201.272 337.312,200.912 333.928,201.416 332.272,202.064 329.104,203.792 326.512,206.096 
		324.424,208.904 323.128,212.144 322.624,214.88 322.48,216.68 	"/>
</g>
</svg>
