<?xml version="1.0" encoding="utf-8"?>
<!-- Generator: Adobe Illustrator 15.1.0, SVG Export Plug-In . SVG Version: 6.00 Build 0)  -->
<!DOCTYPE svg PUBLIC "-//W3C//DTD SVG 1.0//EN" "http://www.w3.org/TR/2001/REC-SVG-20010904/DTD/svg10.dtd">
<svg version="1.0" id="Layer_1" xmlns="http://www.w3.org/2000/svg" xmlns:xlink="http://www.w3.org/1999/xlink" x="0px" y="0px"
	 width="595.28px" height="841.89px" viewBox="0 0 595.28 841.89" enable-background="new 0 0 595.28 841.89" xml:space="preserve">
<g id="LWPOLYLINE_1021_">
	
		<rect x="49.608" y="288.056" fill="#FFFFFF" stroke="#000000" stroke-width="0.25" stroke-linecap="round" stroke-linejoin="round" stroke-miterlimit="10" width="496.063" height="265.778"/>
</g>
<g id="LWPOLYLINE_844_">
	<rect x="129.725" y="536.115" width="37.324" height="11.813"/>
</g>
<g id="LWPOLYLINE_846_">
	<rect x="527.953" y="438.938" width="11.813" height="36.037"/>
</g>
<g id="LWPOLYLINE_848_">
	<path d="M502.907,547.928h13.234c13.069,0,23.624-10.555,23.624-23.625v-13.289h-11.813v13.289c0,6.508-5.25,11.813-11.812,11.813
		h-13.234V547.928z"/>
</g>
<g id="LWPOLYLINE_852_">
	<path d="M539.766,330.875v-13.289c0-13.016-10.555-23.625-23.624-23.625h-13.234v11.813h13.234c6.562,0,11.812,5.305,11.812,11.813
		v13.289H539.766z"/>
</g>
<g id="LWPOLYLINE_853_">
	<rect x="204.372" y="293.962" width="37.296" height="11.813"/>
</g>
<g id="LWPOLYLINE_854_">
	<rect x="55.515" y="366.914" width="11.813" height="36.039"/>
</g>
<g id="LWPOLYLINE_1022_">
	<rect x="204.372" y="536.115" width="37.296" height="11.813"/>
</g>
<g id="LWPOLYLINE_1023_">
	<rect x="278.992" y="536.115" width="37.324" height="11.813"/>
</g>
<g id="LWPOLYLINE_1024_">
	<rect x="428.26" y="536.115" width="37.296" height="11.813"/>
</g>
<g id="LWPOLYLINE_1026_">
	<rect x="353.612" y="536.115" width="37.296" height="11.813"/>
</g>
<g id="LWPOLYLINE_1028_">
	<rect x="527.953" y="366.914" width="11.813" height="36.039"/>
</g>
<g id="LWPOLYLINE_1031_">
	<rect x="428.26" y="293.962" width="37.296" height="11.813"/>
</g>
<g id="LWPOLYLINE_1032_">
	<rect x="353.612" y="293.962" width="37.296" height="11.813"/>
</g>
<g id="LWPOLYLINE_1033_">
	<rect x="129.725" y="293.962" width="37.324" height="11.813"/>
</g>
<g id="LWPOLYLINE_1034_">
	<rect x="278.992" y="293.962" width="37.324" height="11.813"/>
</g>
<g id="LWPOLYLINE_1035_">
	<path d="M92.429,293.962H79.14c-13.043,0-23.625,10.609-23.625,23.625v13.289h11.813v-13.289c0-6.508,5.305-11.813,11.813-11.813
		h13.289V293.962z"/>
</g>
<g id="LWPOLYLINE_1037_">
	<rect x="55.515" y="438.938" width="11.813" height="36.037"/>
</g>
<g id="LWPOLYLINE_1038_">
	<path d="M55.515,511.014v13.289c0,13.07,10.582,23.625,23.625,23.625h13.289v-11.813H79.14c-6.508,0-11.813-5.305-11.813-11.813
		v-13.289H55.515z"/>
</g>
<g id="LWPOLYLINE_1039_">
	<path d="M116.053,460.811c0,26.906,21.82,48.727,48.727,48.727c26.905,0,48.726-21.82,48.726-48.727v-19.469
		c0-26.905-21.82-48.725-48.726-48.725c-6.809,0-13.508,1.422-19.742,4.156l3.773-37.843h48.726l-1.75-26.578h-70.874l-8.859,88.593
		l31.008,7.11c4.184-5.578,10.746-8.86,17.719-8.86c12.222,0,22.147,9.899,22.147,22.147v19.469c0,12.25-9.926,22.148-22.147,22.148
		c-12.25,0-22.148-9.898-22.148-22.148H116.053z"/>
</g>
<g id="LWPOLYLINE_1040_">
	<path d="M247.164,389.937h26.551v-8.859c0-2.844,0.574-5.688,1.641-8.367c4.648-11.32,17.555-16.734,28.875-12.141
		c11.348,4.648,16.788,17.555,12.141,28.875l-69.207,93.514v26.578h97.425v-26.578H277.27l64.421-85.311
		c9.16-25.32-3.965-53.265-29.257-62.397c-25.32-9.133-53.238,3.992-62.371,29.312c-2.488,6.836-3.391,14.164-2.652,21.438
		L247.164,389.937z"/>
</g>
<g id="LWPOLYLINE_1041_">
	<path d="M381.831,389.937h26.577v-8.859c0-2.844,0.547-5.688,1.641-8.367c4.594-11.32,17.5-16.734,28.875-12.141
		c11.266,4.648,16.733,17.555,12.141,28.875l-69.233,93.514v26.578h97.451v-26.578h-67.374l64.421-85.311
		c9.188-25.32-3.938-53.265-29.257-62.397c-25.32-9.133-53.211,3.992-62.397,29.312c-2.461,6.836-3.391,14.164-2.625,21.438
		L381.831,389.937z"/>
</g>
</svg>
