<?xml version="1.0" encoding="iso-8859-1"?>
<!-- Generator: Adobe Illustrator 15.1.0, SVG Export Plug-In . SVG Version: 6.00 Build 0)  -->
<!DOCTYPE svg PUBLIC "-//W3C//DTD SVG 1.1//EN" "http://www.w3.org/Graphics/SVG/1.1/DTD/svg11.dtd">
<svg version="1.1" id="Layer_1" xmlns="http://www.w3.org/2000/svg" xmlns:xlink="http://www.w3.org/1999/xlink" x="0px" y="0px"
	 width="595px" height="842px" viewBox="0 0 595 842" style="enable-background:new 0 0 595 842;" xml:space="preserve">
<g>
	
		<polygon style="fill-rule:evenodd;clip-rule:evenodd;fill:#EF3E42;stroke:#EF3E42;stroke-width:0.7072;stroke-miterlimit:10;" points="
		365.824,286.736 253.864,286.736 254.008,200.768 365.824,200.768 	"/>
	<polygon style="fill-rule:evenodd;clip-rule:evenodd;fill:#FFFFFF;" points="254.08,206.312 254.584,204.656 255.448,203.072 
		256.168,202.136 256.816,201.56 258.256,200.768 259.768,200.192 261.424,199.976 269.632,199.976 269.632,203.792 
		261.568,203.792 259.984,204.08 258.76,205.088 257.896,206.528 257.752,207.536 257.752,214.304 254.008,214.304 	"/>
	<rect x="280.432" y="200.768" style="fill-rule:evenodd;clip-rule:evenodd;fill:#FFFFFF;" width="11.52" height="3.888"/>
	<rect x="280.432" y="282.92" style="fill-rule:evenodd;clip-rule:evenodd;fill:#FFFFFF;" width="11.52" height="3.888"/>
	<rect x="303.4" y="200.768" style="fill-rule:evenodd;clip-rule:evenodd;fill:#FFFFFF;" width="11.52" height="3.888"/>
	<rect x="326.368" y="200.768" style="fill-rule:evenodd;clip-rule:evenodd;fill:#FFFFFF;" width="11.448" height="3.888"/>
	<rect x="326.368" y="282.92" style="fill-rule:evenodd;clip-rule:evenodd;fill:#FFFFFF;" width="11.448" height="3.888"/>
	<rect x="303.976" y="282.92" style="fill-rule:evenodd;clip-rule:evenodd;fill:#FFFFFF;" width="11.376" height="3.888"/>
	<polygon style="fill-rule:evenodd;clip-rule:evenodd;fill:#FFFFFF;" points="254.08,280.472 254.584,282.056 255.448,283.568 
		256.168,284.576 256.816,285.08 258.256,285.944 259.768,286.52 261.424,286.808 269.632,286.808 269.632,282.92 261.568,282.92 
		259.984,282.632 258.76,281.696 257.896,280.256 257.752,279.176 257.752,272.408 254.008,272.408 	"/>
	<polygon style="fill-rule:evenodd;clip-rule:evenodd;fill:#FFFFFF;" points="365.68,207.104 365.248,205.448 364.384,203.936 
		363.592,203 362.944,202.424 361.504,201.56 359.992,200.984 358.408,200.768 350.272,200.768 350.272,204.656 358.192,204.656 
		359.848,204.872 361.072,205.88 361.936,207.248 362.008,208.4 362.008,215.024 365.824,215.024 	"/>
	<rect x="253.864" y="225.752" style="fill-rule:evenodd;clip-rule:evenodd;fill:#FFFFFF;" width="3.816" height="11.448"/>
	<rect x="362.08" y="226.616" style="fill-rule:evenodd;clip-rule:evenodd;fill:#FFFFFF;" width="3.744" height="11.448"/>
	<rect x="362.08" y="249.368" style="fill-rule:evenodd;clip-rule:evenodd;fill:#FFFFFF;" width="3.744" height="11.448"/>
	<rect x="253.864" y="248.648" style="fill-rule:evenodd;clip-rule:evenodd;fill:#FFFFFF;" width="3.816" height="11.448"/>
	<polygon style="fill-rule:evenodd;clip-rule:evenodd;fill:#FFFFFF;" points="349.768,282.92 358.192,282.92 360.208,282.344 
		361.072,281.624 361.792,280.184 362.008,279.176 362.008,272.408 365.824,272.408 365.608,280.976 365.032,282.56 
		364.384,283.568 363.592,284.576 362.512,285.368 360.784,286.376 358.696,286.88 349.768,286.736 	"/>
	<polygon style="fill-rule:evenodd;clip-rule:evenodd;fill:#FFFFFF;" points="274.312,223.664 277.12,221.792 279.424,219.2 
		280.576,217.328 281.368,215.24 290.152,215.24 290.152,272.48 281.512,272.48 281.512,228.416 275.104,229.568 	"/>
	<polygon style="fill-rule:evenodd;clip-rule:evenodd;fill:#FFFFFF;" points="307.36,260.816 328.6,260.816 328.6,272.336 
		337.24,272.336 337.24,260.816 341.776,260.816 341.776,252.32 337.24,252.32 337.24,215.024 328.6,215.024 307.36,252.32 	"/>
	<polygon style="fill-rule:evenodd;clip-rule:evenodd;fill:#EF3E42;" points="317.224,252.32 328.6,232.376 328.6,252.32 	"/>
</g>
</svg>
