<?xml version="1.0" encoding="UTF-8" standalone="no"?>
<!-- Generator: Adobe Illustrator 15.1.0, SVG Export Plug-In . SVG Version: 6.00 Build 0)  -->

<svg
   xmlns:dc="http://purl.org/dc/elements/1.1/"
   xmlns:cc="http://creativecommons.org/ns#"
   xmlns:rdf="http://www.w3.org/1999/02/22-rdf-syntax-ns#"
   xmlns:svg="http://www.w3.org/2000/svg"
   xmlns="http://www.w3.org/2000/svg"
   xmlns:sodipodi="http://sodipodi.sourceforge.net/DTD/sodipodi-0.dtd"
   xmlns:inkscape="http://www.inkscape.org/namespaces/inkscape"
   version="1.1"
   id="Layer_1"
   x="0px"
   y="0px"
   width="112.66779"
   height="87.113602"
   viewBox="0 0 112.66779 87.113602"
   xml:space="preserve"
   sodipodi:docname="667.svg"
   inkscape:version="0.92.5 (2060ec1f9f, 2020-04-08)"><metadata
   id="metadata2598"><rdf:RDF><cc:Work
       rdf:about=""><dc:format>image/svg+xml</dc:format><dc:type
         rdf:resource="http://purl.org/dc/dcmitype/StillImage" /></cc:Work></rdf:RDF></metadata><defs
   id="defs2596" /><sodipodi:namedview
   pagecolor="#ffffff"
   bordercolor="#666666"
   borderopacity="1"
   objecttolerance="10"
   gridtolerance="10"
   guidetolerance="10"
   inkscape:pageopacity="0"
   inkscape:pageshadow="2"
   inkscape:window-width="640"
   inkscape:window-height="480"
   id="namedview2594"
   showgrid="false"
   inkscape:zoom="0.28028504"
   inkscape:cx="43.990193"
   inkscape:cy="-133.9104"
   inkscape:window-x="0"
   inkscape:window-y="0"
   inkscape:window-maximized="0"
   inkscape:current-layer="Layer_1" />
<g
   id="g2591"
   transform="translate(-253.50981,-199.976)">
	
		<polygon
   style="clip-rule:evenodd;fill:#ef3e42;fill-rule:evenodd;stroke:#ef3e42;stroke-width:0.70719999;stroke-miterlimit:10"
   points="254.008,200.768 365.824,200.768 365.824,286.736 253.864,286.736 "
   id="polygon2555" />
	<polygon
   style="clip-rule:evenodd;fill:#ffffff;fill-rule:evenodd"
   points="255.448,203.072 256.168,202.136 256.816,201.56 258.256,200.768 259.768,200.192 261.424,199.976 269.632,199.976 269.632,203.792 261.568,203.792 259.984,204.08 258.76,205.088 257.896,206.528 257.752,207.536 257.752,214.304 254.008,214.304 254.08,206.312 254.584,204.656 "
   id="polygon2557" />
	<rect
   x="280.43201"
   y="200.76801"
   style="clip-rule:evenodd;fill:#ffffff;fill-rule:evenodd"
   width="11.52"
   height="3.888"
   id="rect2559" />
	<rect
   x="280.43201"
   y="282.92001"
   style="clip-rule:evenodd;fill:#ffffff;fill-rule:evenodd"
   width="11.52"
   height="3.888"
   id="rect2561" />
	<rect
   x="303.39999"
   y="200.76801"
   style="clip-rule:evenodd;fill:#ffffff;fill-rule:evenodd"
   width="11.52"
   height="3.888"
   id="rect2563" />
	<rect
   x="326.36801"
   y="200.76801"
   style="clip-rule:evenodd;fill:#ffffff;fill-rule:evenodd"
   width="11.448"
   height="3.888"
   id="rect2565" />
	<rect
   x="326.36801"
   y="282.92001"
   style="clip-rule:evenodd;fill:#ffffff;fill-rule:evenodd"
   width="11.448"
   height="3.888"
   id="rect2567" />
	<rect
   x="303.97601"
   y="282.92001"
   style="clip-rule:evenodd;fill:#ffffff;fill-rule:evenodd"
   width="11.376"
   height="3.888"
   id="rect2569" />
	<polygon
   style="clip-rule:evenodd;fill:#ffffff;fill-rule:evenodd"
   points="255.448,283.568 256.168,284.576 256.816,285.08 258.256,285.944 259.768,286.52 261.424,286.808 269.632,286.808 269.632,282.92 261.568,282.92 259.984,282.632 258.76,281.696 257.896,280.256 257.752,279.176 257.752,272.408 254.008,272.408 254.08,280.472 254.584,282.056 "
   id="polygon2571" />
	<polygon
   style="clip-rule:evenodd;fill:#ffffff;fill-rule:evenodd"
   points="364.384,203.936 363.592,203 362.944,202.424 361.504,201.56 359.992,200.984 358.408,200.768 350.272,200.768 350.272,204.656 358.192,204.656 359.848,204.872 361.072,205.88 361.936,207.248 362.008,208.4 362.008,215.024 365.824,215.024 365.68,207.104 365.248,205.448 "
   id="polygon2573" />
	<rect
   x="253.864"
   y="225.752"
   style="clip-rule:evenodd;fill:#ffffff;fill-rule:evenodd"
   width="3.816"
   height="11.448"
   id="rect2575" />
	<rect
   x="362.07999"
   y="226.616"
   style="clip-rule:evenodd;fill:#ffffff;fill-rule:evenodd"
   width="3.744"
   height="11.448"
   id="rect2577" />
	<rect
   x="362.07999"
   y="249.368"
   style="clip-rule:evenodd;fill:#ffffff;fill-rule:evenodd"
   width="3.744"
   height="11.448"
   id="rect2579" />
	<rect
   x="253.864"
   y="248.64799"
   style="clip-rule:evenodd;fill:#ffffff;fill-rule:evenodd"
   width="3.816"
   height="11.448"
   id="rect2581" />
	<polygon
   style="clip-rule:evenodd;fill:#ffffff;fill-rule:evenodd"
   points="360.208,282.344 361.072,281.624 361.792,280.184 362.008,279.176 362.008,272.408 365.824,272.408 365.608,280.976 365.032,282.56 364.384,283.568 363.592,284.576 362.512,285.368 360.784,286.376 358.696,286.88 349.768,286.736 349.768,282.92 358.192,282.92 "
   id="polygon2583" />
	<polygon
   style="clip-rule:evenodd;fill:#ffffff;fill-rule:evenodd"
   points="279.424,219.2 280.576,217.328 281.368,215.24 290.152,215.24 290.152,272.48 281.512,272.48 281.512,228.416 275.104,229.568 274.312,223.664 277.12,221.792 "
   id="polygon2585" />
	<polygon
   style="clip-rule:evenodd;fill:#ffffff;fill-rule:evenodd"
   points="328.6,272.336 337.24,272.336 337.24,260.816 341.776,260.816 341.776,252.32 337.24,252.32 337.24,215.024 328.6,215.024 307.36,252.32 307.36,260.816 328.6,260.816 "
   id="polygon2587" />
	<polygon
   style="clip-rule:evenodd;fill:#ef3e42;fill-rule:evenodd"
   points="328.6,252.32 317.224,252.32 328.6,232.376 "
   id="polygon2589" />
</g>
</svg>