<?xml version="1.0" encoding="UTF-8" standalone="no"?>
<!-- Generator: Adobe Illustrator 15.1.0, SVG Export Plug-In . SVG Version: 6.00 Build 0)  -->

<svg
   xmlns:dc="http://purl.org/dc/elements/1.1/"
   xmlns:cc="http://creativecommons.org/ns#"
   xmlns:rdf="http://www.w3.org/1999/02/22-rdf-syntax-ns#"
   xmlns:svg="http://www.w3.org/2000/svg"
   xmlns="http://www.w3.org/2000/svg"
   xmlns:sodipodi="http://sodipodi.sourceforge.net/DTD/sodipodi-0.dtd"
   xmlns:inkscape="http://www.inkscape.org/namespaces/inkscape"
   version="1.1"
   id="Layer_1"
   x="0px"
   y="0px"
   width="130.37959"
   height="130.4512"
   viewBox="0 0 130.37959 130.4512"
   xml:space="preserve"
   sodipodi:docname="671.svg"
   inkscape:version="0.92.5 (2060ec1f9f, 2020-04-08)"><metadata
   id="metadata2623"><rdf:RDF><cc:Work
       rdf:about=""><dc:format>image/svg+xml</dc:format><dc:type
         rdf:resource="http://purl.org/dc/dcmitype/StillImage" /></cc:Work></rdf:RDF></metadata><defs
   id="defs2621" /><sodipodi:namedview
   pagecolor="#ffffff"
   bordercolor="#666666"
   borderopacity="1"
   objecttolerance="10"
   gridtolerance="10"
   guidetolerance="10"
   inkscape:pageopacity="0"
   inkscape:pageshadow="2"
   inkscape:window-width="640"
   inkscape:window-height="480"
   id="namedview2619"
   showgrid="false"
   inkscape:zoom="0.28028504"
   inkscape:cx="80.4936"
   inkscape:cy="-40.1664"
   inkscape:window-x="0"
   inkscape:window-y="0"
   inkscape:window-maximized="0"
   inkscape:current-layer="Layer_1" />
<g
   id="g2616"
   transform="translate(-217.0064,-250.3824)">
	
		<polygon
   style="clip-rule:evenodd;fill:#00a389;fill-rule:evenodd;stroke:#009b7a;stroke-width:0.70719999;stroke-miterlimit:10"
   points="347.032,380.48 217.36,380.48 217.36,250.736 346.888,250.736 "
   id="polygon2600" />
	<polygon
   style="clip-rule:evenodd;fill:#ffffff;fill-rule:evenodd"
   points="219.376,255.128 220.888,253.472 223.768,251.6 228.16,250.736 336.232,250.736 339.544,251.24 341.632,252.176 343.504,253.472 344.944,255.128 346.096,257.072 347.032,260.384 347.032,370.832 346.456,373.064 344.944,376.016 343.504,377.672 341.632,378.968 338.464,380.192 336.232,380.48 228.16,380.48 224.776,379.976 221.824,378.392 219.376,376.016 217.864,373.064 217.36,370.832 217.36,260.384 217.864,258.224 "
   id="polygon2602" />
	<polygon
   style="clip-rule:evenodd;fill:#00a389;fill-rule:evenodd"
   points="223.768,258.296 224.992,257.072 227.296,256.136 335.584,256.136 337.888,256.352 339.4,257.072 340.624,258.296 341.488,260.6 341.488,370.544 341.056,372.056 339.4,374 337.888,374.792 336.232,375.008 227.296,375.008 225.64,374.504 223.768,372.848 222.976,371.264 222.76,370.544 222.76,261.464 222.976,259.808 "
   id="polygon2604" />
	<polygon
   style="clip-rule:evenodd;fill:#ffffff;fill-rule:evenodd"
   points="279.568,311.576 278.056,365.36 263.008,365.36 270.784,311.576 "
   id="polygon2606" />
	<polygon
   style="clip-rule:evenodd;fill:#ffffff;fill-rule:evenodd"
   points="301.816,365.36 286.84,365.36 285.328,311.576 294.112,311.576 "
   id="polygon2608" />
	<polygon
   style="clip-rule:evenodd;fill:#ffffff;fill-rule:evenodd"
   points="262.216,309.848 268.192,309.848 267.184,305.816 297.28,305.816 296.416,309.848 302.176,309.848 301.312,305.816 316.36,305.816 316.36,303.44 248.032,303.44 248.032,305.816 263.08,305.816 "
   id="polygon2610" />
	<polygon
   style="clip-rule:evenodd;fill:#ffffff;fill-rule:evenodd"
   points="280.936,265.856 279.928,300.632 272.44,300.632 277.48,265.856 "
   id="polygon2612" />
	<polygon
   style="clip-rule:evenodd;fill:#ffffff;fill-rule:evenodd"
   points="292.456,300.632 284.968,300.632 284.032,265.856 287.416,265.856 "
   id="polygon2614" />
</g>
</svg>