<?xml version="1.0" encoding="iso-8859-1"?>
<!-- Generator: Adobe Illustrator 15.1.0, SVG Export Plug-In . SVG Version: 6.00 Build 0)  -->
<!DOCTYPE svg PUBLIC "-//W3C//DTD SVG 1.1//EN" "http://www.w3.org/Graphics/SVG/1.1/DTD/svg11.dtd">
<svg version="1.1" id="Layer_1" xmlns="http://www.w3.org/2000/svg" xmlns:xlink="http://www.w3.org/1999/xlink" x="0px" y="0px"
	 width="595px" height="842px" viewBox="0 0 595 842" style="enable-background:new 0 0 595 842;" xml:space="preserve">
<g>
	
		<polygon style="fill-rule:evenodd;clip-rule:evenodd;fill:#00A389;stroke:#009B7A;stroke-width:0.7072;stroke-miterlimit:10;" points="
		217.36,250.736 346.888,250.736 347.032,380.48 217.36,380.48 	"/>
	<polygon style="fill-rule:evenodd;clip-rule:evenodd;fill:#FFFFFF;" points="217.36,260.384 217.864,258.224 219.376,255.128 
		220.888,253.472 223.768,251.6 228.16,250.736 336.232,250.736 339.544,251.24 341.632,252.176 343.504,253.472 344.944,255.128 
		346.096,257.072 347.032,260.384 347.032,370.832 346.456,373.064 344.944,376.016 343.504,377.672 341.632,378.968 
		338.464,380.192 336.232,380.48 228.16,380.48 224.776,379.976 221.824,378.392 219.376,376.016 217.864,373.064 217.36,370.832 	
		"/>
	<polygon style="fill-rule:evenodd;clip-rule:evenodd;fill:#00A389;" points="222.76,261.464 222.976,259.808 223.768,258.296 
		224.992,257.072 227.296,256.136 335.584,256.136 337.888,256.352 339.4,257.072 340.624,258.296 341.488,260.6 341.488,370.544 
		341.056,372.056 339.4,374 337.888,374.792 336.232,375.008 227.296,375.008 225.64,374.504 223.768,372.848 222.976,371.264 
		222.76,370.544 	"/>
	<polygon style="fill-rule:evenodd;clip-rule:evenodd;fill:#FFFFFF;" points="263.008,365.36 270.784,311.576 279.568,311.576 
		278.056,365.36 	"/>
	<polygon style="fill-rule:evenodd;clip-rule:evenodd;fill:#FFFFFF;" points="285.328,311.576 294.112,311.576 301.816,365.36 
		286.84,365.36 	"/>
	<polygon style="fill-rule:evenodd;clip-rule:evenodd;fill:#FFFFFF;" points="248.032,305.816 263.08,305.816 262.216,309.848 
		268.192,309.848 267.184,305.816 297.28,305.816 296.416,309.848 302.176,309.848 301.312,305.816 316.36,305.816 316.36,303.44 
		248.032,303.44 	"/>
	<polygon style="fill-rule:evenodd;clip-rule:evenodd;fill:#FFFFFF;" points="272.44,300.632 277.48,265.856 280.936,265.856 
		279.928,300.632 	"/>
	<polygon style="fill-rule:evenodd;clip-rule:evenodd;fill:#FFFFFF;" points="284.032,265.856 287.416,265.856 292.456,300.632 
		284.968,300.632 	"/>
</g>
</svg>
