<?xml version="1.0" encoding="UTF-8" standalone="no"?>
<!-- Generator: Adobe Illustrator 15.1.0, SVG Export Plug-In . SVG Version: 6.00 Build 0)  -->

<svg
   xmlns:dc="http://purl.org/dc/elements/1.1/"
   xmlns:cc="http://creativecommons.org/ns#"
   xmlns:rdf="http://www.w3.org/1999/02/22-rdf-syntax-ns#"
   xmlns:svg="http://www.w3.org/2000/svg"
   xmlns="http://www.w3.org/2000/svg"
   xmlns:sodipodi="http://sodipodi.sourceforge.net/DTD/sodipodi-0.dtd"
   xmlns:inkscape="http://www.inkscape.org/namespaces/inkscape"
   version="1.1"
   id="Layer_1"
   x="0px"
   y="0px"
   width="129.299"
   height="129.44299"
   viewBox="0 0 129.299 129.44299"
   xml:space="preserve"
   sodipodi:docname="672.svg"
   inkscape:version="0.92.5 (2060ec1f9f, 2020-04-08)"><metadata
   id="metadata2650"><rdf:RDF><cc:Work
       rdf:about=""><dc:format>image/svg+xml</dc:format><dc:type
         rdf:resource="http://purl.org/dc/dcmitype/StillImage" /></cc:Work></rdf:RDF></metadata><defs
   id="defs2648" /><sodipodi:namedview
   pagecolor="#ffffff"
   bordercolor="#666666"
   borderopacity="1"
   objecttolerance="10"
   gridtolerance="10"
   guidetolerance="10"
   inkscape:pageopacity="0"
   inkscape:pageshadow="2"
   inkscape:window-width="640"
   inkscape:window-height="480"
   id="namedview2646"
   showgrid="false"
   inkscape:zoom="0.28028504"
   inkscape:cx="123.3335"
   inkscape:cy="-47.366501"
   inkscape:window-x="0"
   inkscape:window-y="0"
   inkscape:window-maximized="0"
   inkscape:current-layer="Layer_1" />
<g
   id="g2643"
   transform="translate(-174.1665,-244.19051)">
	
		<rect
   x="174.52"
   y="244.54401"
   style="clip-rule:evenodd;fill:#00a389;fill-rule:evenodd;stroke:#00a389;stroke-width:0.70700002;stroke-miterlimit:10"
   width="128.592"
   height="128.73599"
   id="rect2625" />
	<polygon
   style="clip-rule:evenodd;fill:#ffffff;fill-rule:evenodd"
   points="176.536,248.936 178.048,247.28 180.856,245.48 185.248,244.544 292.528,244.544 295.912,245.12 297.856,245.984 299.656,247.28 301.168,248.936 302.248,250.88 303.112,254.192 303.112,363.704 302.68,365.936 301.168,368.816 299.656,370.472 297.856,371.768 294.76,372.992 292.528,373.28 185.248,373.28 181.936,372.776 178.912,371.264 176.536,368.816 175.024,365.936 174.52,363.704 174.52,254.192 175.024,251.96 "
   id="polygon2627" />
	<polygon
   style="clip-rule:evenodd;fill:#00a389;fill-rule:evenodd"
   points="180.856,252.104 182.08,250.88 184.384,249.944 291.88,249.944 294.112,250.16 295.696,250.88 296.848,252.104 297.856,254.408 297.856,363.416 297.28,364.928 295.696,366.872 294.112,367.664 292.528,367.88 184.384,367.88 182.872,367.304 180.856,365.72 180.136,364.136 179.92,363.416 179.92,255.272 180.136,253.616 "
   id="polygon2629" />
	<polygon
   style="clip-rule:evenodd;fill:#ffffff;fill-rule:evenodd"
   points="266.752,342.176 267.112,343.76 267.76,345.272 269.704,346.928 272.152,347.504 274.528,346.928 276.472,345.272 277.12,343.76 277.48,342.176 277.48,335.192 278.56,333.824 279.208,332.096 281.152,317.048 281.368,313.232 281.584,308.552 281.296,306.68 280.504,305.096 279.424,303.656 277.48,302.432 272.44,282.416 271.36,280.472 269.92,278.816 268.048,277.52 266.032,276.656 263.8,276.296 251.416,275.648 238.888,275.288 225.928,275.504 213.904,276.296 211.744,276.656 209.8,277.52 207.928,278.672 206.488,280.328 205.408,282.2 204.616,284.504 200.296,302.432 198.856,303.368 197.632,304.52 196.768,306.032 196.264,307.688 196.336,313.232 196.552,317.048 196.768,320.792 197.2,324.608 198.64,332.096 199.072,333.608 199.504,334.256 200.368,335.264 200.368,343.04 200.944,344.624 202.024,346.424 203.248,346.928 205.624,347.504 208.144,346.928 210.016,345.272 210.952,343.04 210.952,335.192 266.752,335.192 "
   id="polygon2631" />
	<polygon
   style="clip-rule:evenodd;fill:#00a389;fill-rule:evenodd"
   points="208.792,308.768 210.016,309.848 210.736,311.432 210.952,313.016 210.736,314.672 210.016,316.184 208.792,317.408 207.28,318.128 205.624,318.344 203.968,318.128 202.456,317.408 201.376,316.184 200.584,314.672 200.296,313.016 200.584,311.432 201.664,309.632 202.456,308.768 203.968,308.048 205.624,307.688 207.28,308.048 "
   id="polygon2633" />
	<polygon
   style="clip-rule:evenodd;fill:#00a389;fill-rule:evenodd"
   points="275.392,308.768 276.616,309.848 277.336,311.432 277.552,313.016 277.336,314.672 276.616,316.184 275.392,317.408 273.88,318.128 272.224,318.344 270.568,318.128 269.056,317.408 267.976,316.184 267.184,314.672 266.896,313.016 267.184,311.432 268.336,309.632 269.056,308.768 270.568,308.048 272.224,307.688 273.88,308.048 "
   id="polygon2635" />
	<polygon
   style="clip-rule:evenodd;fill:#00a389;fill-rule:evenodd"
   points="264.952,311.432 264.808,312.296 264.808,313.016 213.04,313.016 212.896,312.296 212.824,311.432 212.608,310.64 265.168,310.64 "
   id="polygon2637" />
	<polygon
   style="clip-rule:evenodd;fill:#00a389;fill-rule:evenodd"
   points="265.6,316.4 266.032,317.192 266.68,317.912 211.168,317.912 211.744,317.192 212.176,316.4 212.608,315.536 265.168,315.536 "
   id="polygon2639" />
	<polygon
   style="clip-rule:evenodd;fill:#00a389;fill-rule:evenodd"
   points="232.552,299.984 238.888,299.984 251.488,300.056 257.824,300.416 264.16,300.92 270.496,301.496 266.68,285.872 265.816,284.504 264.592,283.352 263.08,282.848 250.552,282.056 238.888,281.84 227.224,282.056 215.56,282.704 213.904,283.064 212.464,283.928 211.528,285.152 210.952,286.664 207.28,301.496 218.512,300.488 "
   id="polygon2641" />
</g>
</svg>