<?xml version="1.0" encoding="UTF-8" standalone="no"?>
<!-- Generator: Adobe Illustrator 15.1.0, SVG Export Plug-In . SVG Version: 6.00 Build 0)  -->

<svg
   xmlns:dc="http://purl.org/dc/elements/1.1/"
   xmlns:cc="http://creativecommons.org/ns#"
   xmlns:rdf="http://www.w3.org/1999/02/22-rdf-syntax-ns#"
   xmlns:svg="http://www.w3.org/2000/svg"
   xmlns="http://www.w3.org/2000/svg"
   xmlns:sodipodi="http://sodipodi.sourceforge.net/DTD/sodipodi-0.dtd"
   xmlns:inkscape="http://www.inkscape.org/namespaces/inkscape"
   version="1.1"
   id="Layer_1"
   x="0px"
   y="0px"
   width="129.0831"
   height="129.15469"
   viewBox="0 0 129.0831 129.15469"
   xml:space="preserve"
   sodipodi:docname="674.svg"
   inkscape:version="0.92.5 (2060ec1f9f, 2020-04-08)"><metadata
   id="metadata2686"><rdf:RDF><cc:Work
       rdf:about=""><dc:format>image/svg+xml</dc:format><dc:type
         rdf:resource="http://purl.org/dc/dcmitype/StillImage" /></cc:Work></rdf:RDF></metadata><defs
   id="defs2684" /><sodipodi:namedview
   pagecolor="#ffffff"
   bordercolor="#666666"
   borderopacity="1"
   objecttolerance="10"
   gridtolerance="10"
   guidetolerance="10"
   inkscape:pageopacity="0"
   inkscape:pageshadow="2"
   inkscape:window-width="640"
   inkscape:window-height="480"
   id="namedview2682"
   showgrid="false"
   inkscape:zoom="0.28028504"
   inkscape:cx="73.14935"
   inkscape:cy="-4.16665"
   inkscape:window-x="0"
   inkscape:window-y="0"
   inkscape:window-maximized="0"
   inkscape:current-layer="Layer_1" />
<g
   id="g2679"
   transform="translate(-224.35065,-287.67865)">
	
		<polygon
   style="clip-rule:evenodd;fill:#0079c1;fill-rule:evenodd;stroke:#0079c1;stroke-width:0.70670003;stroke-miterlimit:10"
   points="353.08,416.48 224.704,416.48 224.704,288.032 352.936,288.032 "
   id="polygon2669" />
	<polygon
   style="clip-rule:evenodd;fill:#ffffff;fill-rule:evenodd"
   points="226.72,292.352 228.232,290.768 231.04,288.896 235.432,288.032 342.424,288.032 345.664,288.536 347.752,289.4 349.552,290.768 351.136,292.352 352.216,294.296 353.08,297.608 353.08,406.976 352.648,409.136 351.136,412.088 349.552,413.672 347.752,414.968 344.656,416.192 342.424,416.48 235.432,416.48 232.048,415.976 229.096,414.464 226.72,412.088 225.208,409.136 224.704,406.976 224.704,297.608 225.208,295.376 "
   id="polygon2671" />
	<polygon
   style="clip-rule:evenodd;fill:#0079c1;fill-rule:evenodd"
   points="231.04,295.52 232.264,294.296 234.568,293.36 341.776,293.36 344.008,293.576 345.52,294.296 346.744,295.52 347.752,297.824 347.752,406.616 347.176,408.128 345.52,410.072 344.008,410.864 342.424,411.08 234.568,411.08 232.912,410.504 231.04,408.92 230.32,407.408 230.104,406.616 230.104,298.688 230.32,297.032 "
   id="polygon2673" />
	<polygon
   style="clip-rule:evenodd;fill:#ffffff;fill-rule:evenodd"
   points="241.192,378.32 244.36,379.184 249.256,379.544 254.152,378.896 258.04,377.528 261.496,375.296 264.232,377.024 268.84,378.896 275.32,379.544 280.216,378.896 284.824,377.024 287.632,375.296 291.88,377.744 296.56,379.184 301.384,379.544 306.28,378.896 310.816,377.024 313.696,375.296 318.592,378.32 324.208,379.4 327.52,379.544 332.416,378.896 336.952,377.024 339.76,375.296 339.76,371.048 336.952,372.776 333.928,374.072 329.104,375.152 324.208,375.152 320.104,374.504 316.36,372.776 313.696,371.048 309.304,373.568 305.272,374.936 303.04,375.152 298.216,375.152 293.392,374.072 289.72,372.416 287.632,371.048 283.312,373.568 280.216,374.648 276.976,375.152 272.08,375.152 267.256,374.072 264.232,372.776 261.496,371.048 257.176,373.568 252.496,374.936 250.84,375.152 245.944,375.152 241.192,374.072 238.24,372.776 235.432,371.048 235.432,375.296 238.24,377.096 "
   id="polygon2675" />
	<polygon
   style="clip-rule:evenodd;fill:#ffffff;fill-rule:evenodd"
   points="254.44,351.896 256.6,347.648 265.24,347.648 267.688,343.4 258.832,343.4 262.936,335.336 272.368,335.336 282.52,317.84 284.68,317.84 283.312,322.16 286.84,322.16 286.84,325.112 282.304,325.112 278.92,335.48 282.52,339.152 309.088,339.152 315.208,328.496 323.92,328.496 323.92,339.152 328.816,339.152 331.048,343.4 276.328,343.4 275.032,347.648 333.352,347.648 335.656,351.896 339.76,351.896 339.76,366.8 336.952,368.528 332.416,370.256 327.52,371.048 322.624,370.688 319.456,369.824 316.36,368.528 313.696,366.8 309.304,369.176 304.624,370.688 301.384,371.048 296.56,370.688 291.88,369.176 287.632,366.8 283.312,369.176 278.632,370.688 273.736,371.048 268.84,370.256 264.232,368.528 261.496,366.8 257.248,369.176 252.568,370.688 251.056,370.904 247.816,371.048 235.288,351.896 "
   id="polygon2677" />
</g>
</svg>