<?xml version="1.0" encoding="UTF-8" standalone="no"?>
<!-- Generator: Adobe Illustrator 15.1.0, SVG Export Plug-In . SVG Version: 6.00 Build 0)  -->

<svg
   xmlns:dc="http://purl.org/dc/elements/1.1/"
   xmlns:cc="http://creativecommons.org/ns#"
   xmlns:rdf="http://www.w3.org/1999/02/22-rdf-syntax-ns#"
   xmlns:svg="http://www.w3.org/2000/svg"
   xmlns="http://www.w3.org/2000/svg"
   xmlns:sodipodi="http://sodipodi.sourceforge.net/DTD/sodipodi-0.dtd"
   xmlns:inkscape="http://www.inkscape.org/namespaces/inkscape"
   version="1.1"
   id="Layer_1"
   x="0px"
   y="0px"
   width="129.29869"
   height="129.44269"
   viewBox="0 0 129.29869 129.44269"
   xml:space="preserve"
   sodipodi:docname="675.svg"
   inkscape:version="0.92.5 (2060ec1f9f, 2020-04-08)"><metadata
   id="metadata2713"><rdf:RDF><cc:Work
       rdf:about=""><dc:format>image/svg+xml</dc:format><dc:type
         rdf:resource="http://purl.org/dc/dcmitype/StillImage" /></cc:Work></rdf:RDF></metadata><defs
   id="defs2711" /><sodipodi:namedview
   pagecolor="#ffffff"
   bordercolor="#666666"
   borderopacity="1"
   objecttolerance="10"
   gridtolerance="10"
   guidetolerance="10"
   inkscape:pageopacity="0"
   inkscape:pageshadow="2"
   inkscape:window-width="640"
   inkscape:window-height="480"
   id="namedview2709"
   showgrid="false"
   inkscape:zoom="0.28028504"
   inkscape:cx="108.71735"
   inkscape:cy="-61.76666"
   inkscape:window-x="0"
   inkscape:window-y="0"
   inkscape:window-maximized="0"
   inkscape:current-layer="Layer_1" />
<g
   id="g2706"
   transform="translate(-188.78265,-229.79065)">
	
		<rect
   x="189.136"
   y="230.144"
   style="clip-rule:evenodd;fill:#0079c1;fill-rule:evenodd;stroke:#0079c1;stroke-width:0.70670003;stroke-miterlimit:10"
   width="128.592"
   height="128.73599"
   id="rect2688" />
	<polygon
   style="clip-rule:evenodd;fill:#ffffff;fill-rule:evenodd"
   points="191.152,234.536 192.664,232.88 195.472,231.08 199.864,230.144 307.072,230.144 310.456,230.72 312.4,231.584 314.272,232.88 315.784,234.536 316.864,236.48 317.728,239.792 317.728,349.304 317.296,351.536 315.784,354.416 314.272,356.072 312.4,357.368 309.304,358.592 307.072,358.88 199.864,358.88 196.552,358.376 193.528,356.864 191.152,354.416 189.64,351.536 189.136,349.304 189.136,239.792 189.64,237.56 "
   id="polygon2690" />
	<polygon
   style="clip-rule:evenodd;fill:#0079c1;fill-rule:evenodd"
   points="195.472,237.704 196.696,236.48 199,235.544 306.424,235.544 308.8,235.76 310.24,236.48 311.392,237.704 312.4,240.008 312.4,349.016 311.824,350.528 310.24,352.472 308.8,353.264 307.072,353.48 199,353.48 197.488,352.904 195.472,351.32 194.752,349.736 194.536,349.016 194.536,240.872 194.752,239.216 "
   id="polygon2692" />
	<polygon
   style="clip-rule:evenodd;fill:#ffffff;fill-rule:evenodd"
   points="205.984,340.376 209.224,341.24 214.12,341.6 218.944,340.808 222.832,339.512 226.36,337.352 229.168,339.08 233.776,340.808 240.328,341.6 245.08,340.808 249.688,339.08 252.496,337.352 256.744,339.728 261.424,341.24 266.32,341.6 271.288,340.808 275.824,339.08 278.632,337.352 283.6,340.304 289.216,341.456 292.528,341.6 297.424,340.808 301.888,339.08 304.768,337.352 304.768,333.104 301.888,334.832 298.864,336.128 294.112,337.208 289.216,337.208 285.112,336.56 281.368,334.832 278.632,333.104 274.384,335.48 270.352,336.92 267.976,337.208 263.08,337.208 258.256,336.128 254.584,334.472 252.496,333.104 248.248,335.48 245.08,336.56 241.912,337.208 236.944,337.208 232.12,336.128 229.168,334.832 226.36,333.104 222.112,335.48 217.432,336.992 215.776,337.208 210.736,337.208 205.984,336.128 203.032,334.832 200.152,333.104 200.152,337.352 203.032,339.08 "
   id="polygon2694" />
	<polygon
   style="clip-rule:evenodd;fill:#ffffff;fill-rule:evenodd"
   points="236.368,318.128 279.136,318.128 282.448,311.72 304.84,311.72 304.84,328.856 300.592,331.304 295.912,332.744 292.6,333.104 287.704,332.744 283.672,331.808 278.632,328.856 274.384,331.304 269.632,332.744 265.384,333.104 259.84,332.456 255.232,330.584 252.424,328.856 248.176,331.304 243.352,332.744 238.456,333.104 233.56,332.456 228.88,330.584 226.144,328.856 221.752,331.304 217.072,332.744 213.832,333.104 199.864,311.72 227.512,311.72 "
   id="polygon2696" />
	<polygon
   style="clip-rule:evenodd;fill:#ffffff;fill-rule:evenodd"
   points="300.592,296.672 290.296,296.672 284.68,307.328 300.592,307.328 "
   id="polygon2698" />
	<rect
   x="252.92799"
   y="280.616"
   style="clip-rule:evenodd;fill:#ffffff;fill-rule:evenodd"
   width="19.224001"
   height="10.728"
   id="rect2700" />
	<rect
   x="261.42401"
   y="265.64001"
   style="clip-rule:evenodd;fill:#ffffff;fill-rule:evenodd"
   width="2.2320001"
   height="12.816"
   id="rect2702" />
	<polygon
   style="clip-rule:evenodd;fill:#ffffff;fill-rule:evenodd"
   points="263.656,263.552 263.656,261.32 235.72,247.424 209.368,301.064 227.512,301.064 242.344,255.056 "
   id="polygon2704" />
</g>
</svg>