<?xml version="1.0" encoding="iso-8859-1"?>
<!-- Generator: Adobe Illustrator 15.1.0, SVG Export Plug-In . SVG Version: 6.00 Build 0)  -->
<!DOCTYPE svg PUBLIC "-//W3C//DTD SVG 1.1//EN" "http://www.w3.org/Graphics/SVG/1.1/DTD/svg11.dtd">
<svg version="1.1" id="Layer_1" xmlns="http://www.w3.org/2000/svg" xmlns:xlink="http://www.w3.org/1999/xlink" x="0px" y="0px"
	 width="595.28px" height="841.89px" viewBox="0 0 595.28 841.89" style="enable-background:new 0 0 595.28 841.89;"
	 xml:space="preserve">
<g id="LWPOLYLINE_1308_">
	<rect x="49.609" y="172.913" style="fill:#0079C1;" width="496.063" height="496.063"/>
</g>
<g id="LWPOLYLINE_1291_">
	<path style="fill:#FFFFFF;" d="M99.195,668.977h396.866c27.408,0,49.611-22.203,49.611-49.611v-396.84
		c0-27.409-22.203-49.612-49.611-49.612H99.195c-27.383,0-49.586,22.203-49.586,49.612v396.84
		C49.609,646.773,71.812,668.977,99.195,668.977z"/>
</g>
<g id="LWPOLYLINE_1307_">
	<path style="fill:#0079C1;" d="M99.195,644.171h396.866c13.68,0,24.807-11.127,24.807-24.806v-396.84
		c0-13.73-11.127-24.806-24.807-24.806H99.195c-13.705,0-24.78,11.076-24.78,24.806v396.84
		C74.415,633.044,85.49,644.171,99.195,644.171z"/>
</g>
<g id="LWPOLYLINE_1296_">
	<path style="fill:#FFFFFF;" d="M246.089,495.847h90.112c43.945-5.461,77.021-42.721,77.225-87.024
		c0-48.08-38.943-87.024-87.023-87.024H190.149v297.566h55.94V495.847z"/>
</g>
<g id="LWPOLYLINE_1300_">
	<path style="fill:#0079C1;" d="M246.089,439.805v-62.065h80.313c16.689,0,30.42,13.219,31.084,29.858
		c0.637,16.69-11.996,30.931-28.635,32.207H246.089z"/>
</g>
<g id="LWPOLYLINE_1301_">
	<polygon style="fill:#FFFFFF;" points="90.952,280.864 297.615,214.256 504.328,280.864 504.328,315.572 297.615,248.913 
		90.952,315.521 	"/>
</g>
</svg>
