<?xml version="1.0" encoding="UTF-8" standalone="no"?>
<!-- Generator: Adobe Illustrator 15.1.0, SVG Export Plug-In . SVG Version: 6.00 Build 0)  -->

<svg
   xmlns:dc="http://purl.org/dc/elements/1.1/"
   xmlns:cc="http://creativecommons.org/ns#"
   xmlns:rdf="http://www.w3.org/1999/02/22-rdf-syntax-ns#"
   xmlns:svg="http://www.w3.org/2000/svg"
   xmlns="http://www.w3.org/2000/svg"
   xmlns:sodipodi="http://sodipodi.sourceforge.net/DTD/sodipodi-0.dtd"
   xmlns:inkscape="http://www.inkscape.org/namespaces/inkscape"
   version="1.1"
   id="Layer_1"
   x="0px"
   y="0px"
   width="129.44339"
   height="129.515"
   viewBox="0 0 129.44339 129.515"
   xml:space="preserve"
   sodipodi:docname="678.svg"
   inkscape:version="0.92.5 (2060ec1f9f, 2020-04-08)"><metadata
   id="metadata2820"><rdf:RDF><cc:Work
       rdf:about=""><dc:format>image/svg+xml</dc:format><dc:type
         rdf:resource="http://purl.org/dc/dcmitype/StillImage" /></cc:Work></rdf:RDF></metadata><defs
   id="defs2818" /><sodipodi:namedview
   pagecolor="#ffffff"
   bordercolor="#666666"
   borderopacity="1"
   objecttolerance="10"
   gridtolerance="10"
   guidetolerance="10"
   inkscape:pageopacity="0"
   inkscape:pageshadow="2"
   inkscape:window-width="640"
   inkscape:window-height="480"
   id="namedview2816"
   showgrid="false"
   inkscape:zoom="0.28028504"
   inkscape:cx="87.9095"
   inkscape:cy="-75.8065"
   inkscape:window-x="0"
   inkscape:window-y="0"
   inkscape:window-maximized="0"
   inkscape:current-layer="Layer_1" />
<g
   id="g2813"
   transform="translate(-209.5905,-215.6785)">
	
		<polygon
   style="clip-rule:evenodd;fill:#0079c1;fill-rule:evenodd;stroke:#0079c1;stroke-width:0.70700002;stroke-miterlimit:10"
   points="338.68,344.84 209.944,344.84 209.944,216.032 338.536,216.032 "
   id="polygon2793" />
	<polygon
   style="clip-rule:evenodd;fill:#ffffff;fill-rule:evenodd"
   points="211.96,220.496 213.472,218.768 216.208,216.896 220.672,216.032 327.952,216.032 331.264,216.536 333.352,217.4 335.152,218.768 336.592,220.496 337.672,222.368 338.536,225.608 338.536,335.264 338.104,337.424 336.592,340.376 335.152,342.176 333.352,343.472 330.184,344.624 327.952,344.84 220.672,344.84 217.288,344.336 214.336,342.824 211.96,340.376 210.448,337.424 209.944,335.264 209.944,225.608 210.448,223.448 "
   id="polygon2795" />
	<polygon
   style="clip-rule:evenodd;fill:#0079c1;fill-rule:evenodd"
   points="216.28,223.664 217.504,222.44 219.808,221.432 327.304,221.36 329.608,221.72 331.12,222.44 332.2,223.664 333.208,225.968 333.208,334.976 332.632,336.56 331.12,338.432 329.608,339.224 327.952,339.512 219.808,339.44 218.152,338.864 216.28,337.352 215.56,335.84 215.344,334.976 215.2,226.832 215.56,225.104 "
   id="polygon2797" />
	<polygon
   style="clip-rule:evenodd;fill:#ffffff;fill-rule:evenodd"
   points="325.864,327.776 308.872,327.776 310.744,326.336 312.04,324.464 313.264,321.296 313.12,317.912 311.896,314.888 323.704,314.888 323.704,289.04 317.296,289.04 317.296,297.104 304.408,297.104 304.408,274.064 319.456,274.064 319.456,267.656 298,267.656 298,284.72 274.384,284.72 274.384,278.096 272.728,275.936 270.208,274.424 267.472,274.064 264.736,274.856 262.576,276.584 261.496,278.096 261.496,284.72 245.656,284.72 245.656,271.904 237.016,271.904 237.016,284.72 227.08,284.72 227.08,314.888 232.048,314.888 230.68,317.912 230.68,321.296 231.256,323.456 232.48,325.472 233.2,326.336 235,327.776 222.616,327.776 222.616,332.024 325.864,332.024 "
   id="polygon2799" />
	<polygon
   style="clip-rule:evenodd;fill:#007ac2;fill-rule:evenodd"
   points="263.224,316.832 262.792,319.136 262.936,321.296 263.584,323.456 264.664,325.472 265.384,326.336 267.184,327.776 244.576,327.776 246.304,326.336 247.744,324.464 248.824,321.296 248.968,319.136 248.464,316.832 247.528,314.888 264.232,314.888 "
   id="polygon2801" />
	<polygon
   style="clip-rule:evenodd;fill:#007ac2;fill-rule:evenodd"
   points="295.408,316.832 294.976,319.136 295.12,321.296 295.768,323.456 296.848,325.472 297.568,326.336 299.368,327.776 276.76,327.776 278.488,326.336 279.928,324.464 281.152,321.296 281.224,319.136 280.72,316.832 279.712,314.888 296.416,314.888 "
   id="polygon2803" />
	<polygon
   style="clip-rule:evenodd;fill:#ffffff;fill-rule:evenodd"
   points="239.536,240.656 242.704,242.744 244.432,244.616 245.656,246.776 246.664,250.376 246.448,254.192 245.08,257.72 242.704,260.672 239.536,262.616 237.16,263.48 233.416,263.552 229.816,262.616 227.656,261.392 225.784,259.664 223.696,256.568 222.76,252.896 222.76,250.376 223.264,248 224.92,244.616 227.656,241.952 229.816,240.656 232.264,239.936 234.784,239.576 237.16,239.936 "
   id="polygon2805" />
	<polygon
   style="clip-rule:evenodd;fill:#0079c1;fill-rule:evenodd"
   points="238.816,243.176 240.616,244.256 242.704,246.704 243.928,249.512 244.144,252.68 243.568,254.768 242.056,257.576 239.752,259.664 236.8,260.888 234.784,261.104 231.616,260.528 229.6,259.664 228.016,258.368 226.216,255.704 225.28,252.68 225.28,250.592 226.216,247.568 228.016,244.904 230.608,243.176 232.552,242.384 234.784,242.168 236.8,242.384 "
   id="polygon2807" />
	<polygon
   style="clip-rule:evenodd;fill:#ffffff;fill-rule:evenodd"
   points="233.776,253.112 234.28,253.544 234.64,253.688 235.216,253.544 239.104,249.584 239.248,249.296 239.248,248.936 238.888,248.288 238.384,248.072 237.664,248.216 235.72,250.088 235.72,245.912 235.72,245.552 235.504,245.264 235.288,245.048 235,244.904 234.64,244.832 234.28,244.904 234.064,245.048 233.848,245.264 233.632,245.552 233.632,245.912 233.632,252.536 "
   id="polygon2809" />
	<polygon
   style="clip-rule:evenodd;fill:#ffffff;fill-rule:evenodd"
   points="222.832,231.152 223.048,229.784 224.488,228.92 325.864,228.92 325.864,241.736 224.416,232.52 223.264,231.944 "
   id="polygon2811" />
</g>
</svg>