<?xml version="1.0" encoding="UTF-8" standalone="no"?>
<!-- Generator: Adobe Illustrator 15.1.0, SVG Export Plug-In . SVG Version: 6.00 Build 0)  -->

<svg
   xmlns:dc="http://purl.org/dc/elements/1.1/"
   xmlns:cc="http://creativecommons.org/ns#"
   xmlns:rdf="http://www.w3.org/1999/02/22-rdf-syntax-ns#"
   xmlns:svg="http://www.w3.org/2000/svg"
   xmlns="http://www.w3.org/2000/svg"
   xmlns:sodipodi="http://sodipodi.sourceforge.net/DTD/sodipodi-0.dtd"
   xmlns:inkscape="http://www.inkscape.org/namespaces/inkscape"
   version="1.1"
   id="Dummy_x25_Layer_x25_Dummy_x25_Layer"
   x="0px"
   y="0px"
   width="129.0831"
   height="129.15469"
   viewBox="0 0 129.0831 129.15469"
   xml:space="preserve"
   sodipodi:docname="679.svg"
   inkscape:version="0.92.5 (2060ec1f9f, 2020-04-08)"><metadata
   id="metadata2863"><rdf:RDF><cc:Work
       rdf:about=""><dc:format>image/svg+xml</dc:format><dc:type
         rdf:resource="http://purl.org/dc/dcmitype/StillImage" /></cc:Work></rdf:RDF></metadata><defs
   id="defs2861" /><sodipodi:namedview
   pagecolor="#ffffff"
   bordercolor="#666666"
   borderopacity="1"
   objecttolerance="10"
   gridtolerance="10"
   guidetolerance="10"
   inkscape:pageopacity="0"
   inkscape:pageshadow="2"
   inkscape:window-width="640"
   inkscape:window-height="480"
   id="namedview2859"
   showgrid="false"
   inkscape:zoom="0.28028504"
   inkscape:cx="101.94935"
   inkscape:cy="-61.40665"
   inkscape:window-x="0"
   inkscape:window-y="0"
   inkscape:window-maximized="0"
   inkscape:current-layer="Dummy_x25_Layer_x25_Dummy_x25_Layer" />
<g
   id="g2856"
   transform="translate(-195.55065,-230.43865)">
	
		<polygon
   style="clip-rule:evenodd;fill:#0079c1;fill-rule:evenodd;stroke:#0079c1;stroke-width:0.70670003;stroke-miterlimit:10"
   points="324.28,359.24 195.904,359.24 195.904,230.792 324.136,230.792 "
   id="polygon2822" />
	<polygon
   style="clip-rule:evenodd;fill:#ffffff;fill-rule:evenodd"
   points="197.92,235.256 199.432,233.528 202.24,231.656 206.632,230.792 313.624,230.792 316.864,231.296 318.952,232.16 320.752,233.528 322.336,235.256 323.416,237.056 324.28,240.368 324.28,349.736 323.848,351.896 322.336,354.848 320.752,356.576 318.952,357.872 315.856,359.024 313.624,359.24 206.632,359.24 203.248,358.736 200.296,357.224 197.92,354.848 196.408,351.896 195.904,349.736 195.904,240.368 196.408,238.136 "
   id="polygon2824" />
	<polygon
   style="clip-rule:evenodd;fill:#0079c1;fill-rule:evenodd"
   points="202.24,238.424 203.464,237.2 205.768,236.192 312.976,236.12 315.208,236.408 316.72,237.2 317.944,238.424 318.952,240.656 318.952,349.376 318.376,351.032 316.72,352.832 315.208,353.624 313.624,353.912 205.768,353.84 204.112,353.264 202.24,351.752 201.52,350.24 201.304,349.376 201.304,241.52 201.52,239.792 "
   id="polygon2826" />
	<g
   id="g2834">
		<polygon
   style="clip-rule:evenodd;fill:#ffffff;fill-rule:evenodd"
   points="225.64,255.344 228.808,257.432 230.536,259.304 231.76,261.464 232.696,265.064 232.48,268.88 231.184,272.336 228.808,275.288 225.64,277.232 223.264,278.096 219.52,278.24 215.992,277.232 213.76,276.008 211.96,274.28 209.872,271.256 208.864,267.584 208.864,265.064 209.44,262.688 211.096,259.304 213.76,256.64 215.992,255.344 218.368,254.624 220.888,254.264 223.264,254.624 "
   id="polygon2828" />
		<polygon
   style="clip-rule:evenodd;fill:#0079c1;fill-rule:evenodd"
   points="224.848,257.864 226.648,258.944 228.808,261.32 230.032,264.2 230.104,267.368 229.672,269.384 228.16,272.264 225.856,274.28 222.904,275.504 220.888,275.72 217.72,275.144 215.776,274.28 214.12,272.984 212.392,270.392 211.384,267.368 211.384,265.28 212.392,262.184 214.12,259.592 216.712,257.864 218.656,257.072 220.888,256.856 222.904,257.072 "
   id="polygon2830" />
		<polygon
   style="clip-rule:evenodd;fill:#ffffff;fill-rule:evenodd"
   points="219.88,267.8 220.456,268.232 220.672,268.304 221.32,268.232 225.208,264.272 225.352,263.984 225.352,263.624 224.992,262.976 224.416,262.76 223.768,262.904 221.824,264.704 221.824,260.6 221.824,260.24 221.608,259.952 221.392,259.736 221.104,259.592 220.744,259.52 220.456,259.592 220.24,259.736 219.952,259.952 219.736,260.24 219.736,260.6 219.736,267.224 "
   id="polygon2832" />
	</g>
	<polygon
   style="clip-rule:evenodd;fill:#ffffff;fill-rule:evenodd"
   points="209.008,245.912 209.224,244.472 210.664,243.608 311.608,243.608 311.608,256.424 210.52,247.208 209.44,246.632 "
   id="polygon2836" />
	<g
   id="g2854">
		<polygon
   style="clip-rule:evenodd;fill:#ffffff;fill-rule:evenodd"
   points="221.176,336.344 222.184,334.328 223.552,332.744 225.424,331.52 227.512,330.8 229.672,330.44 231.832,330.8 233.92,331.52 235.792,332.744 237.16,334.328 238.24,336.344 238.816,339.584 277.552,339.584 277.768,337.424 278.56,335.336 279.856,333.464 281.44,332.096 283.456,331.088 285.616,330.584 286.696,330.44 288.856,330.8 290.944,331.52 292.744,332.744 294.184,334.328 295.192,336.344 295.696,338.504 295.84,339.584 309.448,339.584 310.456,339.368 311.176,338.72 311.752,337.28 311.752,306.32 311.608,305.744 311.176,304.664 310.312,304.016 309.232,303.8 216.28,303.8 215.272,304.016 214.552,304.664 214.12,305.528 209.08,326.624 209.08,339.584 220.528,339.584 220.672,338.504 "
   id="polygon2838" />
		<polygon
   style="clip-rule:evenodd;fill:#0079c1;fill-rule:evenodd"
   points="228.016,306.104 225.856,324.32 211.96,324.32 216.28,306.104 "
   id="polygon2840" />
		<polygon
   style="clip-rule:evenodd;fill:#0079c1;fill-rule:evenodd"
   points="246.304,319.784 229.528,319.784 231.184,306.104 246.304,306.104 "
   id="polygon2842" />
		<rect
   x="249.39999"
   y="306.104"
   style="clip-rule:evenodd;fill:#0079c1;fill-rule:evenodd"
   width="17.351999"
   height="13.68"
   id="rect2844" />
		<rect
   x="269.92001"
   y="306.104"
   style="clip-rule:evenodd;fill:#0079c1;fill-rule:evenodd"
   width="17.496"
   height="13.68"
   id="rect2846" />
		<rect
   x="290.51199"
   y="306.104"
   style="clip-rule:evenodd;fill:#0079c1;fill-rule:evenodd"
   width="17.856001"
   height="13.68"
   id="rect2848" />
		<polygon
   style="clip-rule:evenodd;fill:#ffffff;fill-rule:evenodd"
   points="233.128,333.68 234.928,334.976 235.648,336.2 236.296,337.856 236.512,339.584 236.296,341.312 235.648,343.04 234.568,344.48 233.128,345.56 231.4,346.208 229.672,346.424 227.944,346.208 226.288,345.56 224.848,344.48 223.768,343.04 223.048,341.312 222.832,339.584 223.048,337.856 223.768,336.2 224.848,334.76 226.288,333.68 227.944,332.96 229.672,332.744 231.4,332.96 "
   id="polygon2850" />
		<polygon
   style="clip-rule:evenodd;fill:#ffffff;fill-rule:evenodd"
   points="290.08,333.68 291.808,334.976 292.528,336.2 293.248,337.856 293.536,339.584 293.248,341.312 292.528,343.04 291.448,344.48 290.08,345.56 288.424,346.208 286.696,346.424 284.824,346.208 283.24,345.56 281.8,344.48 280.72,343.04 280.072,341.312 279.856,339.584 280.072,337.856 280.72,336.2 281.8,334.76 283.24,333.68 284.824,332.96 286.696,332.744 288.424,332.96 "
   id="polygon2852" />
	</g>
</g>
</svg>