<?xml version="1.0" encoding="UTF-8" standalone="no"?>
<!-- Generator: Adobe Illustrator 15.1.0, SVG Export Plug-In . SVG Version: 6.00 Build 0)  -->

<svg
   xmlns:dc="http://purl.org/dc/elements/1.1/"
   xmlns:cc="http://creativecommons.org/ns#"
   xmlns:rdf="http://www.w3.org/1999/02/22-rdf-syntax-ns#"
   xmlns:svg="http://www.w3.org/2000/svg"
   xmlns="http://www.w3.org/2000/svg"
   xmlns:sodipodi="http://sodipodi.sourceforge.net/DTD/sodipodi-0.dtd"
   xmlns:inkscape="http://www.inkscape.org/namespaces/inkscape"
   version="1.1"
   id="Layer_1"
   x="0px"
   y="0px"
   width="496.064"
   height="496.013"
   viewBox="0 0 496.06397 496.01299"
   xml:space="preserve"
   sodipodi:docname="681-5.svg"
   inkscape:version="0.92.5 (2060ec1f9f, 2020-04-08)"><metadata
   id="metadata3005"><rdf:RDF><cc:Work
       rdf:about=""><dc:format>image/svg+xml</dc:format><dc:type
         rdf:resource="http://purl.org/dc/dcmitype/StillImage" /></cc:Work></rdf:RDF></metadata><defs
   id="defs3003" /><sodipodi:namedview
   pagecolor="#ffffff"
   bordercolor="#666666"
   borderopacity="1"
   objecttolerance="10"
   gridtolerance="10"
   guidetolerance="10"
   inkscape:pageopacity="0"
   inkscape:pageshadow="2"
   inkscape:window-width="640"
   inkscape:window-height="480"
   id="namedview3001"
   showgrid="false"
   inkscape:zoom="0.28032165"
   inkscape:cx="248.03201"
   inkscape:cy="248.006"
   inkscape:window-x="0"
   inkscape:window-y="0"
   inkscape:window-maximized="0"
   inkscape:current-layer="Layer_1" />
<g
   id="LWPOLYLINE_931_"
   transform="translate(-49.608,-172.938)">
	<rect
   x="49.608002"
   y="172.938"
   style="fill:#0079c1"
   width="496.06299"
   height="496.013"
   id="rect2976" />
</g>
<g
   id="LWPOLYLINE_1140_"
   transform="translate(-49.608,-172.938)">
	<path
   style="fill:#ffffff"
   d="m 93.703,668.951 h 407.874 c 24.293,0 44.095,-19.751 44.095,-44.095 V 217.033 c 0,-24.395 -19.802,-44.095 -44.095,-44.095 H 93.703 c -24.344,0 -44.095,19.7 -44.095,44.095 v 407.823 c 0,24.344 19.751,44.095 44.095,44.095 z"
   id="path2979"
   inkscape:connector-curvature="0" />
</g>
<g
   id="LWPOLYLINE_930_"
   transform="translate(-49.608,-172.938)">
	<path
   style="fill:#0079c1"
   d="m 93.703,646.904 h 407.874 c 12.146,0 22.048,-9.901 22.048,-22.048 V 217.033 c 0,-12.197 -9.901,-22.047 -22.048,-22.047 H 93.703 c -12.172,0 -22.047,9.85 -22.047,22.047 v 407.823 c 0,12.147 9.875,22.048 22.047,22.048 z"
   id="path2982"
   inkscape:connector-curvature="0" />
</g>
<g
   id="LWPOLYLINE_935_"
   transform="translate(-49.608,-172.938)">
	<path
   style="fill:#ffffff"
   d="m 191.818,383.459 18.857,-3.316 c 12.3,-2.195 24.905,-2.246 37.256,-0.204 l 7.809,1.326 35.266,-33.07 c 0,-1.531 -1.225,-2.756 -2.756,-2.756 -0.587,0 -1.174,0.204 -1.634,0.562 -8.165,-2.961 -13.243,-11.075 -12.351,-19.649 l -5.308,-0.204 6.635,-22.047 c 0.128,-0.204 0.256,-0.408 0.383,-0.663 8.089,-12.657 24.931,-16.383 37.613,-8.269 12.657,8.064 16.383,24.905 8.293,37.613 23.91,23.885 41.339,53.485 50.704,85.943 l 4.414,-4.389 c 29.192,5.818 59.304,5.053 88.139,-2.246 l -10.411,27.202 c 20.21,15.362 29.191,41.492 22.659,66.091 h -5.716 c -4.593,15.821 -15.821,28.886 -30.724,35.827 -28.682,13.371 -62.824,1.021 -76.195,-27.661 h -86.965 c -15.106,-9.595 -24.241,-26.232 -24.241,-44.095 l -24.625,-22.149 -6.2,5.41 c 13.83,16.688 17.071,39.808 8.318,59.66 -12.759,28.988 -46.595,42.104 -75.558,29.345 -28.963,-12.759 -42.13,-46.595 -29.346,-75.532 12.759,-28.987 46.596,-42.154 75.559,-29.396 l 3.827,-6.788 -7.094,-2.45 z"
   id="path2985"
   inkscape:connector-curvature="0" />
</g>
<g
   id="LWPOLYLINE_1141_"
   transform="translate(-49.608,-172.938)">
	<polygon
   style="fill:#0079c1"
   points="306.419,402.087 296.492,411.988 276.64,395.453 293.175,382.234 "
   id="polygon2988" />
</g>
<g
   id="LWPOLYLINE_1142_"
   transform="translate(-49.608,-172.938)">
	<path
   style="fill:#0079c1"
   d="m 206.287,467.413 c 7.298,9.288 9.492,21.639 5.818,32.866 -6.073,18.526 -26.028,28.58 -44.528,22.507 -18.501,-6.073 -28.58,-25.978 -22.507,-44.503 6.073,-18.525 26.002,-28.58 44.528,-22.507 l -4.108,12.453 c -11.61,-3.828 -24.14,2.501 -27.941,14.137 -3.828,11.636 2.5,24.14 14.137,27.967 11.61,3.828 24.14,-2.5 27.941,-14.137 2.322,-7.043 0.944,-14.8 -3.649,-20.618 z"
   id="path2991"
   inkscape:connector-curvature="0" />
</g>
<g
   id="LWPOLYLINE_1143_"
   transform="translate(-49.608,-172.938)">
	<polygon
   style="fill:#0079c1"
   points="361.563,493.696 361.563,482.672 339.515,482.672 350.538,493.696 "
   id="polygon2994" />
</g>
<g
   id="LWPOLYLINE_934_"
   transform="translate(-49.608,-172.938)">
	<path
   style="fill:#0079c1"
   d="m 381.39,489.256 c 0,19.495 15.77,35.316 35.265,35.316 19.496,0 35.316,-15.821 35.316,-35.316 0,-8.778 -3.316,-17.301 -9.288,-23.782 l -9.288,9.288 c 3.521,4.032 5.409,9.187 5.409,14.494 0,12.248 -9.9,22.149 -22.149,22.149 -12.248,0 -22.148,-9.901 -22.148,-22.149 z"
   id="path2997"
   inkscape:connector-curvature="0" />
</g>
</svg>