<?xml version="1.0" encoding="iso-8859-1"?>
<!-- Generator: Adobe Illustrator 15.1.0, SVG Export Plug-In . SVG Version: 6.00 Build 0)  -->
<!DOCTYPE svg PUBLIC "-//W3C//DTD SVG 1.1//EN" "http://www.w3.org/Graphics/SVG/1.1/DTD/svg11.dtd">
<svg version="1.1" id="Layer_1" xmlns="http://www.w3.org/2000/svg" xmlns:xlink="http://www.w3.org/1999/xlink" x="0px" y="0px"
	 width="595.28px" height="841.89px" viewBox="0 0 595.28 841.89" style="enable-background:new 0 0 595.28 841.89;"
	 xml:space="preserve">
<g id="LWPOLYLINE_1151_">
	<rect x="49.323" y="172.875" style="fill:#0079C1;" width="496.063" height="496.14"/>
</g>
<g id="LWPOLYLINE_944_">
	<path style="fill:#FFFFFF;" d="M93.398,669.015h407.886c24.398,0,44.102-19.754,44.102-44.102V216.977
		c0-24.348-19.703-44.102-44.102-44.102H93.398c-24.348,0-44.076,19.754-44.076,44.102v407.937
		C49.323,649.261,69.051,669.015,93.398,669.015z"/>
</g>
<g id="LWPOLYLINE_1152_">
	<path style="fill:#0079C1;" d="M93.398,646.964h407.886c12.199,0,22.051-9.902,22.051-22.051V216.977
		c0-12.148-9.852-22.051-22.051-22.051H93.398c-12.174,0-22.051,9.902-22.051,22.051v407.937
		C71.348,637.062,81.225,646.964,93.398,646.964z"/>
</g>
<g id="CIRCLE_118_">
	<path style="fill:#FFFFFF;" d="M178.283,478.267c0-13.986-11.332-25.369-25.343-25.369c-14.011,0-25.343,11.383-25.343,25.369
		c0,14.036,11.332,25.368,25.343,25.368C166.952,503.635,178.283,492.303,178.283,478.267L178.283,478.267z"/>
</g>
<g id="LWPOLYLINE_1153_">
	<path style="fill:#FFFFFF;" d="M429.824,478.267c-0.103-16.794-13.782-30.371-30.626-30.269
		c-16.666,0.051-30.192,13.577-30.269,30.269H183.464c-0.077-16.794-13.782-30.371-30.6-30.269
		c-16.691,0.051-30.218,13.577-30.294,30.269h-12.633l-3.701-57.373c-0.383-6.074,4.211-11.28,10.259-11.688l86.059-5.921
		l39.686-50.686l154.354,6.584l44.05,57.373l50.737,8.78l-8.779,52.932H429.824z"/>
</g>
<g id="CIRCLE_129_">
	<path style="fill:#FFFFFF;" d="M424.669,478.267c0-13.986-11.383-25.369-25.369-25.369c-13.985,0-25.368,11.383-25.368,25.369
		c0,14.036,11.383,25.368,25.368,25.368C413.286,503.635,424.669,492.303,424.669,478.267L424.669,478.267z"/>
</g>
<g id="CIRCLE_119_">
	<path style="fill:#0079C1;" d="M167.283,478.42c0-7.861-6.38-14.241-14.267-14.241c-7.86,0-14.241,6.38-14.241,14.241
		c0,7.86,6.38,14.24,14.241,14.24C160.903,492.66,167.283,486.28,167.283,478.42L167.283,478.42z"/>
</g>
<g id="LWPOLYLINE_950_">
	<polygon style="fill:#0079C1;" points="323.808,364.695 388.632,367.911 420.074,414.003 323.808,407.725 	"/>
</g>
<g id="LWPOLYLINE_1154_">
	<polygon style="fill:#0079C1;" points="315.002,364.542 252.168,361.633 220.241,404.203 315.002,407.725 	"/>
</g>
<g id="CIRCLE_130_">
	<path style="fill:#0079C1;" d="M413.644,478.42c0-7.861-6.381-14.241-14.241-14.241c-7.861,0-14.292,6.38-14.292,14.241
		c0,7.86,6.431,14.24,14.292,14.24C407.263,492.66,413.644,486.28,413.644,478.42L413.644,478.42z"/>
</g>
</svg>
