<?xml version="1.0" encoding="iso-8859-1"?>
<!-- Generator: Adobe Illustrator 15.1.0, SVG Export Plug-In . SVG Version: 6.00 Build 0)  -->
<!DOCTYPE svg PUBLIC "-//W3C//DTD SVG 1.1//EN" "http://www.w3.org/Graphics/SVG/1.1/DTD/svg11.dtd">
<svg version="1.1" id="Layer_1" xmlns="http://www.w3.org/2000/svg" xmlns:xlink="http://www.w3.org/1999/xlink" x="0px" y="0px"
	 width="595.28px" height="841.89px" viewBox="0 0 595.28 841.89" style="enable-background:new 0 0 595.28 841.89;"
	 xml:space="preserve">
<g id="CIRCLE_115_">
	<path style="fill:#0079C1;" d="M416.3,476.241c0-7.86-6.432-14.24-14.292-14.24c-7.859,0-14.24,6.38-14.24,14.24
		s6.381,14.291,14.24,14.291C409.868,490.532,416.3,484.102,416.3,476.241L416.3,476.241z"/>
</g>
<g id="LWPOLYLINE_936_">
	<rect x="49.777" y="172.958" style="fill:#0079C1;" width="496.063" height="496.063"/>
</g>
<g id="LWPOLYLINE_937_">
	<path style="fill:#FFFFFF;" d="M545.841,624.922V217.057c0-24.397-19.753-44.099-44.1-44.099H93.851
		c-24.347,0-44.074,19.702-44.074,44.099v407.865c0,24.347,19.727,44.1,44.074,44.1h407.89
		C526.088,669.021,545.841,649.269,545.841,624.922z"/>
</g>
<g id="CIRCLE_116_">
	<path style="fill:#0079C1;" d="M169.927,476.241c0-7.86-6.38-14.24-14.24-14.24c-7.886,0-14.266,6.38-14.266,14.24
		s6.38,14.291,14.266,14.291C163.547,490.532,169.927,484.102,169.927,476.241L169.927,476.241z"/>
</g>
<g id="LWPOLYLINE_938_">
	<path style="fill:#0079C1;" d="M523.791,624.922V217.057c0-12.199-9.902-22.049-22.05-22.049H93.851
		c-12.173,0-22.024,9.851-22.024,22.049v407.865c0,12.148,9.851,22.05,22.024,22.05h407.89
		C513.889,646.972,523.791,637.07,523.791,624.922z"/>
</g>
<g id="CIRCLE_126_">
	<path style="fill:#FFFFFF;" d="M180.952,476.088c0-13.985-11.356-25.367-25.367-25.367c-13.985,0-25.342,11.382-25.342,25.367
		c0,14.036,11.356,25.367,25.342,25.367C169.595,501.455,180.952,490.124,180.952,476.088L180.952,476.088z"/>
</g>
<g id="CIRCLE_127_">
	<path style="fill:#FFFFFF;" d="M427.324,476.088c0-13.985-11.382-25.367-25.418-25.367c-13.985,0-25.316,11.382-25.316,25.367
		c0,14.036,11.331,25.367,25.316,25.367C415.942,501.455,427.324,490.124,427.324,476.088L427.324,476.088z"/>
</g>
<g id="LWPOLYLINE_1145_">
	<path style="fill:#FFFFFF;" d="M432.429,476.088c-0.052-16.792-13.781-30.369-30.573-30.267
		c-16.69,0.051-30.217,13.576-30.268,30.267H186.106c-0.076-16.792-13.781-30.369-30.573-30.267
		c-16.716,0.051-30.216,13.576-30.318,30.267h-12.607l-3.726-57.37c-0.383-6.074,4.211-11.28,10.259-11.688l86.054-5.921
		l38.025-48.59c1.046-1.327,2.654-2.093,4.338-2.093h223.608c2.909,0,5.359,2.297,5.462,5.206l6.073,114.688
		c0,0.103,0,0.153,0,0.255c0,3.063-2.501,5.513-5.512,5.513H432.429z"/>
</g>
<g id="LWPOLYLINE_939_">
	<polygon style="fill:#0079C1;" points="317.868,359.665 254.807,359.46 222.881,402.028 317.639,401.977 	"/>
</g>
</svg>
