<?xml version="1.0" encoding="UTF-8" standalone="no"?>
<!-- Generator: Adobe Illustrator 15.1.0, SVG Export Plug-In . SVG Version: 6.00 Build 0)  -->

<svg
   xmlns:dc="http://purl.org/dc/elements/1.1/"
   xmlns:cc="http://creativecommons.org/ns#"
   xmlns:rdf="http://www.w3.org/1999/02/22-rdf-syntax-ns#"
   xmlns:svg="http://www.w3.org/2000/svg"
   xmlns="http://www.w3.org/2000/svg"
   xmlns:sodipodi="http://sodipodi.sourceforge.net/DTD/sodipodi-0.dtd"
   xmlns:inkscape="http://www.inkscape.org/namespaces/inkscape"
   version="1.1"
   id="Layer_1"
   x="0px"
   y="0px"
   width="496.064"
   height="496.14001"
   viewBox="0 0 496.06397 496.14001"
   xml:space="preserve"
   sodipodi:docname="681-2.svg"
   inkscape:version="0.92.5 (2060ec1f9f, 2020-04-08)"><metadata
   id="metadata2900"><rdf:RDF><cc:Work
       rdf:about=""><dc:format>image/svg+xml</dc:format><dc:type
         rdf:resource="http://purl.org/dc/dcmitype/StillImage" /></cc:Work></rdf:RDF></metadata><defs
   id="defs2898" /><sodipodi:namedview
   pagecolor="#ffffff"
   bordercolor="#666666"
   borderopacity="1"
   objecttolerance="10"
   gridtolerance="10"
   guidetolerance="10"
   inkscape:pageopacity="0"
   inkscape:pageshadow="2"
   inkscape:window-width="640"
   inkscape:window-height="480"
   id="namedview2896"
   showgrid="false"
   inkscape:zoom="0.28032165"
   inkscape:cx="248.31801"
   inkscape:cy="248.07001"
   inkscape:window-x="0"
   inkscape:window-y="0"
   inkscape:window-maximized="0"
   inkscape:current-layer="Layer_1" />
<g
   id="LWPOLYLINE_1151_"
   transform="translate(-49.322,-172.875)">
	<rect
   x="49.323002"
   y="172.875"
   style="fill:#0079c1"
   width="496.06299"
   height="496.14001"
   id="rect2865" />
</g>
<g
   id="LWPOLYLINE_944_"
   transform="translate(-49.322,-172.875)">
	<path
   style="fill:#ffffff"
   d="m 93.398,669.015 h 407.886 c 24.398,0 44.102,-19.754 44.102,-44.102 V 216.977 c 0,-24.348 -19.703,-44.102 -44.102,-44.102 H 93.398 c -24.348,0 -44.076,19.754 -44.076,44.102 v 407.937 c 10e-4,24.347 19.729,44.101 44.076,44.101 z"
   id="path2868"
   inkscape:connector-curvature="0" />
</g>
<g
   id="LWPOLYLINE_1152_"
   transform="translate(-49.322,-172.875)">
	<path
   style="fill:#0079c1"
   d="m 93.398,646.964 h 407.886 c 12.199,0 22.051,-9.902 22.051,-22.051 V 216.977 c 0,-12.148 -9.852,-22.051 -22.051,-22.051 H 93.398 c -12.174,0 -22.051,9.902 -22.051,22.051 v 407.937 c 0.001,12.148 9.878,22.05 22.051,22.05 z"
   id="path2871"
   inkscape:connector-curvature="0" />
</g>
<g
   id="CIRCLE_118_"
   transform="translate(-49.322,-172.875)">
	<path
   style="fill:#ffffff"
   d="m 178.283,478.267 c 0,-13.986 -11.332,-25.369 -25.343,-25.369 -14.011,0 -25.343,11.383 -25.343,25.369 0,14.036 11.332,25.368 25.343,25.368 14.012,0 25.343,-11.332 25.343,-25.368 z"
   id="path2874"
   inkscape:connector-curvature="0" />
</g>
<g
   id="LWPOLYLINE_1153_"
   transform="translate(-49.322,-172.875)">
	<path
   style="fill:#ffffff"
   d="m 429.824,478.267 c -0.103,-16.794 -13.782,-30.371 -30.626,-30.269 -16.666,0.051 -30.192,13.577 -30.269,30.269 H 183.464 c -0.077,-16.794 -13.782,-30.371 -30.6,-30.269 -16.691,0.051 -30.218,13.577 -30.294,30.269 h -12.633 l -3.701,-57.373 c -0.383,-6.074 4.211,-11.28 10.259,-11.688 l 86.059,-5.921 39.686,-50.686 154.354,6.584 44.05,57.373 50.737,8.78 -8.779,52.932 h -52.778 z"
   id="path2877"
   inkscape:connector-curvature="0" />
</g>
<g
   id="CIRCLE_129_"
   transform="translate(-49.322,-172.875)">
	<path
   style="fill:#ffffff"
   d="m 424.669,478.267 c 0,-13.986 -11.383,-25.369 -25.369,-25.369 -13.985,0 -25.368,11.383 -25.368,25.369 0,14.036 11.383,25.368 25.368,25.368 13.986,0 25.369,-11.332 25.369,-25.368 z"
   id="path2880"
   inkscape:connector-curvature="0" />
</g>
<g
   id="CIRCLE_119_"
   transform="translate(-49.322,-172.875)">
	<path
   style="fill:#0079c1"
   d="m 167.283,478.42 c 0,-7.861 -6.38,-14.241 -14.267,-14.241 -7.86,0 -14.241,6.38 -14.241,14.241 0,7.86 6.38,14.24 14.241,14.24 7.887,0 14.267,-6.38 14.267,-14.24 z"
   id="path2883"
   inkscape:connector-curvature="0" />
</g>
<g
   id="LWPOLYLINE_950_"
   transform="translate(-49.322,-172.875)">
	<polygon
   style="fill:#0079c1"
   points="420.074,414.003 323.808,407.725 323.808,364.695 388.632,367.911 "
   id="polygon2886" />
</g>
<g
   id="LWPOLYLINE_1154_"
   transform="translate(-49.322,-172.875)">
	<polygon
   style="fill:#0079c1"
   points="220.241,404.203 315.002,407.725 315.002,364.542 252.168,361.633 "
   id="polygon2889" />
</g>
<g
   id="CIRCLE_130_"
   transform="translate(-49.322,-172.875)">
	<path
   style="fill:#0079c1"
   d="m 413.644,478.42 c 0,-7.861 -6.381,-14.241 -14.241,-14.241 -7.861,0 -14.292,6.38 -14.292,14.241 0,7.86 6.431,14.24 14.292,14.24 7.86,0 14.241,-6.38 14.241,-14.24 z"
   id="path2892"
   inkscape:connector-curvature="0" />
</g>
</svg>