<?xml version="1.0" encoding="iso-8859-1"?>
<!-- Generator: Adobe Illustrator 15.1.0, SVG Export Plug-In . SVG Version: 6.00 Build 0)  -->
<!DOCTYPE svg PUBLIC "-//W3C//DTD SVG 1.1//EN" "http://www.w3.org/Graphics/SVG/1.1/DTD/svg11.dtd">
<svg version="1.1" id="Layer_1" xmlns="http://www.w3.org/2000/svg" xmlns:xlink="http://www.w3.org/1999/xlink" x="0px" y="0px"
	 width="595.28px" height="841.89px" viewBox="0 0 595.28 841.89" style="enable-background:new 0 0 595.28 841.89;"
	 xml:space="preserve">
<g id="LWPOLYLINE_1127_">
	<rect x="49.608" y="172.913" style="fill:#0079C1;" width="496.063" height="496.063"/>
</g>
<g id="LWPOLYLINE_1128_">
	<path style="fill:#FFFFFF;" d="M93.708,668.977h407.865c24.397,0,44.099-19.753,44.099-44.1V217.012
		c0-24.397-19.701-44.099-44.099-44.099H93.708c-24.347,0-44.1,19.702-44.1,44.099v407.865
		C49.608,649.224,69.361,668.977,93.708,668.977z"/>
</g>
<g id="LWPOLYLINE_1129_">
	<path style="fill:#0079C1;" d="M93.708,646.927h407.865c12.198,0,22.05-9.901,22.05-22.05V217.012
		c0-12.199-9.852-22.049-22.05-22.049H93.708c-12.173,0-22.05,9.851-22.05,22.049v407.865
		C71.658,637.025,81.535,646.927,93.708,646.927z"/>
</g>
<g id="LWPOLYLINE_1130_">
	<rect x="136.684" y="509.117" style="fill:#FFFFFF;" width="339.573" height="28.685"/>
</g>
<g id="CIRCLE_121_">
	<path style="fill:#FFFFFF;" d="M343.96,476.043c0-18.272-14.827-33.074-33.074-33.074c-18.272,0-33.074,14.802-33.074,33.074
		s14.802,33.074,33.074,33.074C329.133,509.117,343.96,494.315,343.96,476.043L343.96,476.043z"/>
</g>
<g id="LWPOLYLINE_1131_">
	<path style="fill:#FFFFFF;" d="M136.684,500.287c0,4.9,3.956,8.83,8.83,8.83c4.875,0,8.83-3.93,8.83-8.83
		c0-4.849-3.955-8.778-8.83-8.778c-0.739,0-1.479,0.102-2.194,0.255v-17.915h128.546c1.123-19.855,16.971-35.678,36.8-36.801
		c21.539-1.225,39.99,15.262,41.216,36.801h126.376V338.846c0-10.157-7.043-19.038-16.945-21.437
		c-98.278-23.632-200.794-23.632-299.098,0c-9.928,2.399-16.895,11.28-16.895,21.437v126.172H127.88v8.83h6.609v26.438H136.684z"/>
</g>
<g id="LWPOLYLINE_1132_">
	<path style="fill:#0079C1;" d="M203.113,394.48h34.631c3.037,0,5.513-2.501,5.513-5.513V350.79c0-3.063-2.476-5.512-5.513-5.512
		h-34.631c-3.037,0-5.513,2.45-5.513,5.512v38.178C197.601,391.979,200.076,394.48,203.113,394.48z"/>
</g>
<g id="CIRCLE_122_">
	<path style="fill:#0079C1;" d="M330.715,476.043c0-10.974-8.881-19.854-19.829-19.854c-10.974,0-19.855,8.881-19.855,19.854
		s8.882,19.854,19.855,19.854C321.834,495.897,330.715,487.017,330.715,476.043L330.715,476.043z"/>
</g>
<g id="LWPOLYLINE_1134_">
	<path style="fill:#0079C1;" d="M313.336,393.766h96.466c3.063,0,5.513-2.45,5.513-5.512v-38.178c0-3.012-2.45-5.513-5.513-5.513
		h-96.339c-3.063,0-5.512,2.501-5.512,5.513c0,0.102-0.128,38.28-0.128,38.28C307.849,391.367,310.324,393.766,313.336,393.766z"/>
</g>
</svg>
