<?xml version="1.0" encoding="iso-8859-1"?>
<!-- Generator: Adobe Illustrator 15.1.0, SVG Export Plug-In . SVG Version: 6.00 Build 0)  -->
<!DOCTYPE svg PUBLIC "-//W3C//DTD SVG 1.1//EN" "http://www.w3.org/Graphics/SVG/1.1/DTD/svg11.dtd">
<svg version="1.1" id="Layer_1" xmlns="http://www.w3.org/2000/svg" xmlns:xlink="http://www.w3.org/1999/xlink" x="0px" y="0px"
	 width="595.28px" height="841.89px" viewBox="0 0 595.28 841.89" style="enable-background:new 0 0 595.28 841.89;"
	 xml:space="preserve">
<g id="LWPOLYLINE_1135_">
	<rect x="49.608" y="172.9" style="fill:#0079C1;" width="496.063" height="496.089"/>
</g>
<g id="LWPOLYLINE_924_">
	<path style="fill:#FFFFFF;" d="M93.71,668.989h407.86c24.399,0,44.102-19.754,44.102-44.102V217.002
		c0-24.398-19.702-44.102-44.102-44.102H93.71c-24.373,0-44.102,19.703-44.102,44.102v407.886
		C49.608,649.235,69.337,668.989,93.71,668.989z"/>
</g>
<g id="LWPOLYLINE_926_">
	<path style="fill:#0079C1;" d="M93.71,646.938h407.86c12.199,0,22.051-9.902,22.051-22.051V217.002
		c0-12.199-9.852-22.051-22.051-22.051H93.71c-12.174,0-22.051,9.852-22.051,22.051v407.886
		C71.659,637.036,81.536,646.938,93.71,646.938z"/>
</g>
<g id="LWPOLYLINE_1136_">
	<path style="fill:#FFFFFF;" d="M317.866,485.234H207.868c-17.993-29.248-56.275-38.385-85.549-20.418
		c-1.99,1.276-3.93,2.604-5.793,4.033l-15.108-25.879v-61.712l90.397-6.636V259.98h11.024l2.221,110.253l94.787-19.855l2.221,13.22
		l41.881-35.271l8.831-24.245l-8.831-2.195v-33.076c4.951-9.902,16.793-14.139,26.899-9.698
		c10.464,4.646,15.211,16.845,10.592,27.309c-2.169,4.951-2.169,10.515,0,15.466c8.754,19.855,13.297,41.294,13.271,62.987
		c36.419-7.299,74.14,3.165,101.602,28.227l-10.516,13.17c-40.375-37.67-103.668-35.425-141.287,5.002
		C325.905,431.281,316.284,457.977,317.866,485.234z"/>
</g>
<g id="CIRCLE_123_">
	<path style="fill:#FFFFFF;" d="M507.645,479.415c0-49.716-40.272-89.989-89.989-89.989c-49.716,0-89.988,40.273-89.988,89.989
		c0,49.665,40.272,89.989,89.988,89.989C467.372,569.404,507.645,529.08,507.645,479.415L507.645,479.415z"/>
</g>
<g id="CIRCLE_124_">
	<path style="fill:#FFFFFF;" d="M205.494,517.8c0-27.921-22.638-50.584-50.609-50.584c-27.945,0-50.608,22.663-50.608,50.584
		c0,27.972,22.663,50.635,50.608,50.635C182.856,568.435,205.494,545.771,205.494,517.8L205.494,517.8z"/>
</g>
<g id="CIRCLE_125_">
	<path style="fill:#0079C1;" d="M465.228,479.415c0-26.287-21.284-47.623-47.572-47.623c-26.287,0-47.572,21.336-47.572,47.623
		s21.285,47.572,47.572,47.572C443.943,526.987,465.228,505.702,465.228,479.415L465.228,479.415z"/>
</g>
<g id="CIRCLE_114_">
	<path style="fill:#0079C1;" d="M183.062,517.8c0-15.568-12.608-28.176-28.177-28.176c-15.567,0-28.176,12.607-28.176,28.176
		s12.608,28.227,28.176,28.227C170.453,546.026,183.062,533.368,183.062,517.8L183.062,517.8z"/>
</g>
</svg>
