<?xml version="1.0" encoding="iso-8859-1"?>
<!-- Generator: Adobe Illustrator 15.1.0, SVG Export Plug-In . SVG Version: 6.00 Build 0)  -->
<!DOCTYPE svg PUBLIC "-//W3C//DTD SVG 1.1//EN" "http://www.w3.org/Graphics/SVG/1.1/DTD/svg11.dtd">
<svg version="1.1" id="Layer_1" xmlns="http://www.w3.org/2000/svg" xmlns:xlink="http://www.w3.org/1999/xlink" x="0px" y="0px"
	 width="595.28px" height="841.89px" viewBox="0 0 595.28 841.89" style="enable-background:new 0 0 595.28 841.89;"
	 xml:space="preserve">
<g id="LWPOLYLINE_931_">
	<rect x="49.608" y="172.938" style="fill:#0079C1;" width="496.063" height="496.013"/>
</g>
<g id="LWPOLYLINE_1140_">
	<path style="fill:#FFFFFF;" d="M93.703,668.951h407.874c24.293,0,44.095-19.751,44.095-44.095V217.033
		c0-24.395-19.802-44.095-44.095-44.095H93.703c-24.344,0-44.095,19.7-44.095,44.095v407.823
		C49.608,649.2,69.359,668.951,93.703,668.951z"/>
</g>
<g id="LWPOLYLINE_930_">
	<path style="fill:#0079C1;" d="M93.703,646.904h407.874c12.146,0,22.048-9.901,22.048-22.048V217.033
		c0-12.197-9.901-22.047-22.048-22.047H93.703c-12.172,0-22.047,9.85-22.047,22.047v407.823
		C71.656,637.003,81.531,646.904,93.703,646.904z"/>
</g>
<g id="LWPOLYLINE_935_">
	<path style="fill:#FFFFFF;" d="M191.818,383.459l18.857-3.316c12.3-2.195,24.905-2.246,37.256-0.204l7.809,1.326l35.266-33.07
		c0-1.531-1.225-2.756-2.756-2.756c-0.587,0-1.174,0.204-1.634,0.562c-8.165-2.961-13.243-11.075-12.351-19.649l-5.308-0.204
		l6.635-22.047c0.128-0.204,0.256-0.408,0.383-0.663c8.089-12.657,24.931-16.383,37.613-8.269
		c12.657,8.064,16.383,24.905,8.293,37.613c23.91,23.885,41.339,53.485,50.704,85.943l4.414-4.389
		c29.192,5.818,59.304,5.053,88.139-2.246l-10.411,27.202c20.21,15.362,29.191,41.492,22.659,66.091h-5.716
		c-4.593,15.821-15.821,28.886-30.724,35.827c-28.682,13.371-62.824,1.021-76.195-27.661h-86.965
		c-15.106-9.595-24.241-26.232-24.241-44.095l-24.625-22.149l-6.2,5.41c13.83,16.688,17.071,39.808,8.318,59.66
		c-12.759,28.988-46.595,42.104-75.558,29.345s-42.13-46.595-29.346-75.532c12.759-28.987,46.596-42.154,75.559-29.396l3.827-6.788
		l-7.094-2.45L191.818,383.459z"/>
</g>
<g id="LWPOLYLINE_1141_">
	<polygon style="fill:#0079C1;" points="276.64,395.453 293.175,382.234 306.419,402.087 296.492,411.988 	"/>
</g>
<g id="LWPOLYLINE_1142_">
	<path style="fill:#0079C1;" d="M206.287,467.413c7.298,9.288,9.492,21.639,5.818,32.866c-6.073,18.526-26.028,28.58-44.528,22.507
		c-18.501-6.073-28.58-25.978-22.507-44.503s26.002-28.58,44.528-22.507l-4.108,12.453c-11.61-3.828-24.14,2.501-27.941,14.137
		c-3.828,11.636,2.5,24.14,14.137,27.967c11.61,3.828,24.14-2.5,27.941-14.137c2.322-7.043,0.944-14.8-3.649-20.618L206.287,467.413
		z"/>
</g>
<g id="LWPOLYLINE_1143_">
	<polygon style="fill:#0079C1;" points="339.515,482.672 350.538,493.696 361.563,493.696 361.563,482.672 	"/>
</g>
<g id="LWPOLYLINE_934_">
	<path style="fill:#0079C1;" d="M381.39,489.256c0,19.495,15.77,35.316,35.265,35.316c19.496,0,35.316-15.821,35.316-35.316
		c0-8.778-3.316-17.301-9.288-23.782l-9.288,9.288c3.521,4.032,5.409,9.187,5.409,14.494c0,12.248-9.9,22.149-22.149,22.149
		c-12.248,0-22.148-9.901-22.148-22.149H381.39z"/>
</g>
</svg>
