<?xml version="1.0" encoding="UTF-8" standalone="no"?>
<!-- Generator: Adobe Illustrator 15.1.0, SVG Export Plug-In . SVG Version: 6.00 Build 0)  -->

<svg
   xmlns:dc="http://purl.org/dc/elements/1.1/"
   xmlns:cc="http://creativecommons.org/ns#"
   xmlns:rdf="http://www.w3.org/1999/02/22-rdf-syntax-ns#"
   xmlns:svg="http://www.w3.org/2000/svg"
   xmlns="http://www.w3.org/2000/svg"
   xmlns:sodipodi="http://sodipodi.sourceforge.net/DTD/sodipodi-0.dtd"
   xmlns:inkscape="http://www.inkscape.org/namespaces/inkscape"
   version="1.1"
   id="Layer_1"
   x="0px"
   y="0px"
   width="496.064"
   height="496.064"
   viewBox="0 0 496.06397 496.06399"
   xml:space="preserve"
   sodipodi:docname="681-9.svg"
   inkscape:version="0.92.5 (2060ec1f9f, 2020-04-08)"><metadata
   id="metadata3132"><rdf:RDF><cc:Work
       rdf:about=""><dc:format>image/svg+xml</dc:format><dc:type
         rdf:resource="http://purl.org/dc/dcmitype/StillImage" /></cc:Work></rdf:RDF></metadata><defs
   id="defs3130" /><sodipodi:namedview
   pagecolor="#ffffff"
   bordercolor="#666666"
   borderopacity="1"
   objecttolerance="10"
   gridtolerance="10"
   guidetolerance="10"
   inkscape:pageopacity="0"
   inkscape:pageshadow="2"
   inkscape:window-width="640"
   inkscape:window-height="480"
   id="namedview3128"
   showgrid="false"
   inkscape:zoom="0.28032165"
   inkscape:cx="248.03201"
   inkscape:cy="248.03199"
   inkscape:window-x="0"
   inkscape:window-y="0"
   inkscape:window-maximized="0"
   inkscape:current-layer="Layer_1" />
<g
   id="LWPOLYLINE_1114_"
   transform="translate(-49.608,-172.91299)">
	<rect
   x="49.608002"
   y="172.91299"
   style="fill:#0079c1"
   width="496.06299"
   height="496.06299"
   id="rect3100" />
</g>
<g
   id="LWPOLYLINE_1121_"
   transform="translate(-49.608,-172.91299)">
	<path
   style="fill:#ffffff"
   d="M 545.672,624.877 V 217.012 c 0,-24.397 -19.753,-44.099 -44.1,-44.099 H 93.682 c -24.347,0 -44.074,19.702 -44.074,44.099 v 407.865 c 0,24.347 19.727,44.1 44.074,44.1 h 407.89 c 24.347,0 44.1,-19.753 44.1,-44.1 z"
   id="path3103"
   inkscape:connector-curvature="0" />
</g>
<g
   id="LWPOLYLINE_1119_"
   transform="translate(-49.608,-172.91299)">
	<path
   style="fill:#0079c1"
   d="M 523.622,624.877 V 217.012 c 0,-12.199 -9.851,-22.049 -22.05,-22.049 H 93.682 c -12.173,0 -22.024,9.851 -22.024,22.049 v 407.865 c 0,12.148 9.851,22.05 22.024,22.05 h 407.89 c 12.199,0 22.05,-9.902 22.05,-22.05 z"
   id="path3106"
   inkscape:connector-curvature="0" />
</g>
<g
   id="LWPOLYLINE_1122_"
   transform="translate(-49.608,-172.91299)">
	<path
   style="fill:#ffffff"
   d="m 367.029,338.744 19.446,33.534 c 8.678,-4.186 18.068,-6.839 27.664,-7.708 43.997,-4.134 82.992,28.226 87.127,72.223 l -3.012,0.307 c 3.777,40.781 -24.908,77.377 -65.434,83.349 -42.058,6.228 -81.231,-22.815 -87.458,-64.924 l -13.653,1.123 c -0.639,7.86 -5.411,14.802 -12.531,18.171 l 3.956,15.363 h 6.354 v 7.451 h -19.88 v -7.451 h 6.277 l -3.471,-13.424 c -5.053,0.663 -10.157,-0.511 -14.47,-3.216 -10.311,-6.533 -13.398,-20.109 -6.891,-30.42 l -71.916,-80.746 -3.93,10.974 c 36.57,19.191 52.546,63.035 36.902,101.213 l -2.782,-1.071 c -10.208,24.856 -32.666,42.619 -59.232,46.855 -42.032,6.635 -81.486,-22.05 -88.147,-64.057 -6.661,-42.057 22.024,-81.46 64.056,-88.146 l -0.204,-3.012 c 13.832,-2.144 27.996,-0.612 41.062,4.441 l 19.268,-54.001 1.965,0.714 4.823,-13.219 -4.696,-5.104 0.383,-6.891 5.181,-5.002 6.712,-0.255 23.479,2.348 -0.332,3.317 -23.249,-2.348 -5.206,0.204 -3.343,3.215 -0.229,4.186 2.577,2.807 0.689,-1.889 4.466,2.808 -6.406,17.558 1.787,0.664 -3.981,11.178 h 129.183 l 0.664,-1.48 1.965,0.919 2.373,-4.696 -21.283,-12.964 -1.379,-1.378 -1.225,-2.604 0.408,-1.786 1.174,-1.072 1.863,-0.613 3.521,-0.255 6.636,0.357 8.906,0.205 13.169,-1.48 6.584,-1.429 3.675,-0.255 1.378,0.51 1.327,1.633 0.103,3.011 -0.511,1.837 -1.582,3.522 -2.45,3.675 -2.756,3.216 -4.007,3.879 -3.854,2.603 -1.914,0.715 -2.271,0.204 -2.96,5.87 1.99,1.276 z"
   id="path3109"
   inkscape:connector-curvature="0" />
</g>
<g
   id="LWPOLYLINE_1123_"
   transform="translate(-49.608,-172.91299)">
	<path
   style="fill:#0079c1"
   d="m 199.719,416.785 -5.155,8.932 -5.564,9.341 -2.68,2.756 c 1.327,1.735 2.067,3.777 2.195,5.921 0.281,5.768 -4.185,10.668 -9.953,10.974 -5.793,0.255 -10.693,-4.186 -10.974,-9.953 -0.28,-5.768 4.16,-10.718 9.953,-10.974 l 4.16,-4.338 4.977,-8.371 4.721,-8.167 9.494,-26.541 c -31.977,-12.607 -68.114,3.063 -80.721,35.014 -12.607,32.002 3.088,68.139 35.04,80.746 31.951,12.606 68.088,-3.063 80.695,-35.065 11.331,-28.634 -0.051,-61.299 -26.745,-76.713 z"
   id="path3112"
   inkscape:connector-curvature="0" />
</g>
<g
   id="LWPOLYLINE_1124_"
   transform="translate(-49.608,-172.91299)">
	<path
   style="fill:#0079c1"
   d="m 330.766,448.226 10.846,-0.867 c -1.123,-28.685 13.169,-55.736 37.489,-70.946 l -16.308,-28.124 -39.761,89.015 c 3.65,2.756 6.355,6.584 7.734,10.922 z"
   id="path3115"
   inkscape:connector-curvature="0" />
</g>
<g
   id="LWPOLYLINE_1125_"
   transform="translate(-49.608,-172.91299)">
	<path
   style="fill:#0079c1"
   d="m 410.363,441.488 c 0.51,-1.735 1.429,-3.368 2.756,-4.695 l -26.133,-44.967 c -18.375,11.739 -29.271,32.207 -28.685,54.052 z"
   id="path3118"
   inkscape:connector-curvature="0" />
</g>
<g
   id="LWPOLYLINE_1126_"
   transform="translate(-49.608,-172.91299)">
	<path
   style="fill:#0079c1"
   d="m 422.204,433.781 c 3.318,0.204 6.38,1.991 8.167,4.85 3.164,4.849 1.735,11.33 -3.165,14.444 -4.899,3.113 -11.331,1.684 -14.495,-3.216 l -52.546,4.39 c 5.537,33.941 37.54,56.961 71.431,51.397 33.891,-5.564 56.91,-37.515 51.347,-71.457 -5.512,-33.891 -37.464,-56.91 -71.405,-51.346 -5.563,0.868 -10.974,2.552 -16.078,4.9 z"
   id="path3121"
   inkscape:connector-curvature="0" />
</g>
<g
   id="LWPOLYLINE_909_"
   transform="translate(-49.608,-172.91299)">
	<path
   style="fill:#0079c1"
   d="m 298.278,436.027 -75.285,-84.472 4.16,-11.637 H 355.444 L 313.82,433.22 c -2.169,-0.408 -4.363,-0.51 -6.559,-0.255 l -3.088,-14.598 h 6.1 v -7.401 h -19.217 v 7.401 h 5.921 l 3.496,16.486 c -0.766,0.358 -1.48,0.715 -2.195,1.174 z"
   id="path3124"
   inkscape:connector-curvature="0" />
</g>
</svg>