<?xml version="1.0" encoding="UTF-8" standalone="no"?>
<!-- Generator: Adobe Illustrator 15.1.0, SVG Export Plug-In . SVG Version: 6.00 Build 0)  -->

<svg
   xmlns:dc="http://purl.org/dc/elements/1.1/"
   xmlns:cc="http://creativecommons.org/ns#"
   xmlns:rdf="http://www.w3.org/1999/02/22-rdf-syntax-ns#"
   xmlns:svg="http://www.w3.org/2000/svg"
   xmlns="http://www.w3.org/2000/svg"
   xmlns:sodipodi="http://sodipodi.sourceforge.net/DTD/sodipodi-0.dtd"
   xmlns:inkscape="http://www.inkscape.org/namespaces/inkscape"
   version="1.1"
   id="Layer_1"
   x="0px"
   y="0px"
   width="496.064"
   height="496.064"
   viewBox="0 0 496.06397 496.06399"
   xml:space="preserve"
   sodipodi:docname="681-8.svg"
   inkscape:version="0.92.5 (2060ec1f9f, 2020-04-08)"><metadata
   id="metadata3098"><rdf:RDF><cc:Work
       rdf:about=""><dc:format>image/svg+xml</dc:format><dc:type
         rdf:resource="http://purl.org/dc/dcmitype/StillImage" /></cc:Work></rdf:RDF></metadata><defs
   id="defs3096" /><sodipodi:namedview
   pagecolor="#ffffff"
   bordercolor="#666666"
   borderopacity="1"
   objecttolerance="10"
   gridtolerance="10"
   guidetolerance="10"
   inkscape:pageopacity="0"
   inkscape:pageshadow="2"
   inkscape:window-width="640"
   inkscape:window-height="480"
   id="namedview3094"
   showgrid="false"
   inkscape:zoom="0.28032165"
   inkscape:cx="248.03201"
   inkscape:cy="248.03199"
   inkscape:window-x="0"
   inkscape:window-y="0"
   inkscape:window-maximized="0"
   inkscape:current-layer="Layer_1" />
<g
   id="LWPOLYLINE_1127_"
   transform="translate(-49.608,-172.91299)">
	<rect
   x="49.608002"
   y="172.91299"
   style="fill:#0079c1"
   width="496.06299"
   height="496.06299"
   id="rect3066" />
</g>
<g
   id="LWPOLYLINE_1128_"
   transform="translate(-49.608,-172.91299)">
	<path
   style="fill:#ffffff"
   d="m 93.708,668.977 h 407.865 c 24.397,0 44.099,-19.753 44.099,-44.1 V 217.012 c 0,-24.397 -19.701,-44.099 -44.099,-44.099 H 93.708 c -24.347,0 -44.1,19.702 -44.1,44.099 v 407.865 c 0,24.347 19.753,44.1 44.1,44.1 z"
   id="path3069"
   inkscape:connector-curvature="0" />
</g>
<g
   id="LWPOLYLINE_1129_"
   transform="translate(-49.608,-172.91299)">
	<path
   style="fill:#0079c1"
   d="m 93.708,646.927 h 407.865 c 12.198,0 22.05,-9.901 22.05,-22.05 V 217.012 c 0,-12.199 -9.852,-22.049 -22.05,-22.049 H 93.708 c -12.173,0 -22.05,9.851 -22.05,22.049 v 407.865 c 0,12.148 9.877,22.05 22.05,22.05 z"
   id="path3072"
   inkscape:connector-curvature="0" />
</g>
<g
   id="LWPOLYLINE_1130_"
   transform="translate(-49.608,-172.91299)">
	<rect
   x="136.68401"
   y="509.117"
   style="fill:#ffffff"
   width="339.573"
   height="28.684999"
   id="rect3075" />
</g>
<g
   id="CIRCLE_121_"
   transform="translate(-49.608,-172.91299)">
	<path
   style="fill:#ffffff"
   d="m 343.96,476.043 c 0,-18.272 -14.827,-33.074 -33.074,-33.074 -18.272,0 -33.074,14.802 -33.074,33.074 0,18.272 14.802,33.074 33.074,33.074 18.247,0 33.074,-14.802 33.074,-33.074 z"
   id="path3078"
   inkscape:connector-curvature="0" />
</g>
<g
   id="LWPOLYLINE_1131_"
   transform="translate(-49.608,-172.91299)">
	<path
   style="fill:#ffffff"
   d="m 136.684,500.287 c 0,4.9 3.956,8.83 8.83,8.83 4.875,0 8.83,-3.93 8.83,-8.83 0,-4.849 -3.955,-8.778 -8.83,-8.778 -0.739,0 -1.479,0.102 -2.194,0.255 v -17.915 h 128.546 c 1.123,-19.855 16.971,-35.678 36.8,-36.801 21.539,-1.225 39.99,15.262 41.216,36.801 H 476.258 V 338.846 c 0,-10.157 -7.043,-19.038 -16.945,-21.437 -98.278,-23.632 -200.794,-23.632 -299.098,0 -9.928,2.399 -16.895,11.28 -16.895,21.437 v 126.172 h -15.44 v 8.83 h 6.609 v 26.438 h 2.195 z"
   id="path3081"
   inkscape:connector-curvature="0" />
</g>
<g
   id="LWPOLYLINE_1132_"
   transform="translate(-49.608,-172.91299)">
	<path
   style="fill:#0079c1"
   d="m 203.113,394.48 h 34.631 c 3.037,0 5.513,-2.501 5.513,-5.513 V 350.79 c 0,-3.063 -2.476,-5.512 -5.513,-5.512 h -34.631 c -3.037,0 -5.513,2.45 -5.513,5.512 v 38.178 c 0.001,3.011 2.476,5.512 5.513,5.512 z"
   id="path3084"
   inkscape:connector-curvature="0" />
</g>
<g
   id="CIRCLE_122_"
   transform="translate(-49.608,-172.91299)">
	<path
   style="fill:#0079c1"
   d="m 330.715,476.043 c 0,-10.974 -8.881,-19.854 -19.829,-19.854 -10.974,0 -19.855,8.881 -19.855,19.854 0,10.973 8.882,19.854 19.855,19.854 10.948,0 19.829,-8.88 19.829,-19.854 z"
   id="path3087"
   inkscape:connector-curvature="0" />
</g>
<g
   id="LWPOLYLINE_1134_"
   transform="translate(-49.608,-172.91299)">
	<path
   style="fill:#0079c1"
   d="m 313.336,393.766 h 96.466 c 3.063,0 5.513,-2.45 5.513,-5.512 v -38.178 c 0,-3.012 -2.45,-5.513 -5.513,-5.513 h -96.339 c -3.063,0 -5.512,2.501 -5.512,5.513 0,0.102 -0.128,38.28 -0.128,38.28 0.026,3.011 2.501,5.41 5.513,5.41 z"
   id="path3090"
   inkscape:connector-curvature="0" />
</g>
</svg>