<?xml version="1.0" encoding="UTF-8" standalone="no"?>
<!-- Generator: Adobe Illustrator 15.1.0, SVG Export Plug-In . SVG Version: 6.00 Build 0)  -->

<svg
   xmlns:dc="http://purl.org/dc/elements/1.1/"
   xmlns:cc="http://creativecommons.org/ns#"
   xmlns:rdf="http://www.w3.org/1999/02/22-rdf-syntax-ns#"
   xmlns:svg="http://www.w3.org/2000/svg"
   xmlns="http://www.w3.org/2000/svg"
   xmlns:sodipodi="http://sodipodi.sourceforge.net/DTD/sodipodi-0.dtd"
   xmlns:inkscape="http://www.inkscape.org/namespaces/inkscape"
   version="1.1"
   id="Layer_1"
   x="0px"
   y="0px"
   width="496.064"
   height="496.08902"
   viewBox="0 0 496.06397 496.08901"
   xml:space="preserve"
   sodipodi:docname="681-7.svg"
   inkscape:version="0.92.5 (2060ec1f9f, 2020-04-08)"><metadata
   id="metadata3064"><rdf:RDF><cc:Work
       rdf:about=""><dc:format>image/svg+xml</dc:format><dc:type
         rdf:resource="http://purl.org/dc/dcmitype/StillImage" /></cc:Work></rdf:RDF></metadata><defs
   id="defs3062" /><sodipodi:namedview
   pagecolor="#ffffff"
   bordercolor="#666666"
   borderopacity="1"
   objecttolerance="10"
   gridtolerance="10"
   guidetolerance="10"
   inkscape:pageopacity="0"
   inkscape:pageshadow="2"
   inkscape:window-width="640"
   inkscape:window-height="480"
   id="namedview3060"
   showgrid="false"
   inkscape:zoom="0.28032165"
   inkscape:cx="248.03201"
   inkscape:cy="248.04399"
   inkscape:window-x="0"
   inkscape:window-y="0"
   inkscape:window-maximized="0"
   inkscape:current-layer="Layer_1" />
<g
   id="LWPOLYLINE_1135_"
   transform="translate(-49.608,-172.89999)">
	<rect
   x="49.608002"
   y="172.89999"
   style="fill:#0079c1"
   width="496.06299"
   height="496.08899"
   id="rect3035" />
</g>
<g
   id="LWPOLYLINE_924_"
   transform="translate(-49.608,-172.89999)">
	<path
   style="fill:#ffffff"
   d="m 93.71,668.989 h 407.86 c 24.399,0 44.102,-19.754 44.102,-44.102 V 217.002 C 545.672,192.604 525.97,172.9 501.57,172.9 H 93.71 c -24.373,0 -44.102,19.703 -44.102,44.102 v 407.886 c 0,24.347 19.729,44.101 44.102,44.101 z"
   id="path3038"
   inkscape:connector-curvature="0" />
</g>
<g
   id="LWPOLYLINE_926_"
   transform="translate(-49.608,-172.89999)">
	<path
   style="fill:#0079c1"
   d="m 93.71,646.938 h 407.86 c 12.199,0 22.051,-9.902 22.051,-22.051 V 217.002 c 0,-12.199 -9.852,-22.051 -22.051,-22.051 H 93.71 c -12.174,0 -22.051,9.852 -22.051,22.051 v 407.886 c 0,12.148 9.877,22.05 22.051,22.05 z"
   id="path3041"
   inkscape:connector-curvature="0" />
</g>
<g
   id="LWPOLYLINE_1136_"
   transform="translate(-49.608,-172.89999)">
	<path
   style="fill:#ffffff"
   d="M 317.866,485.234 H 207.868 c -17.993,-29.248 -56.275,-38.385 -85.549,-20.418 -1.99,1.276 -3.93,2.604 -5.793,4.033 L 101.418,442.97 v -61.712 l 90.397,-6.636 V 259.98 h 11.024 l 2.221,110.253 94.787,-19.855 2.221,13.22 41.881,-35.271 8.831,-24.245 -8.831,-2.195 v -33.076 c 4.951,-9.902 16.793,-14.139 26.899,-9.698 10.464,4.646 15.211,16.845 10.592,27.309 -2.169,4.951 -2.169,10.515 0,15.466 8.754,19.855 13.297,41.294 13.271,62.987 36.419,-7.299 74.14,3.165 101.602,28.227 l -10.516,13.17 c -40.375,-37.67 -103.668,-35.425 -141.287,5.002 -18.605,20.007 -28.226,46.703 -26.644,73.96 z"
   id="path3044"
   inkscape:connector-curvature="0" />
</g>
<g
   id="CIRCLE_123_"
   transform="translate(-49.608,-172.89999)">
	<path
   style="fill:#ffffff"
   d="m 507.645,479.415 c 0,-49.716 -40.272,-89.989 -89.989,-89.989 -49.716,0 -89.988,40.273 -89.988,89.989 0,49.665 40.272,89.989 89.988,89.989 49.716,0 89.989,-40.324 89.989,-89.989 z"
   id="path3047"
   inkscape:connector-curvature="0" />
</g>
<g
   id="CIRCLE_124_"
   transform="translate(-49.608,-172.89999)">
	<path
   style="fill:#ffffff"
   d="m 205.494,517.8 c 0,-27.921 -22.638,-50.584 -50.609,-50.584 -27.945,0 -50.608,22.663 -50.608,50.584 0,27.972 22.663,50.635 50.608,50.635 27.971,0 50.609,-22.664 50.609,-50.635 z"
   id="path3050"
   inkscape:connector-curvature="0" />
</g>
<g
   id="CIRCLE_125_"
   transform="translate(-49.608,-172.89999)">
	<path
   style="fill:#0079c1"
   d="m 465.228,479.415 c 0,-26.287 -21.284,-47.623 -47.572,-47.623 -26.287,0 -47.572,21.336 -47.572,47.623 0,26.287 21.285,47.572 47.572,47.572 26.287,0 47.572,-21.285 47.572,-47.572 z"
   id="path3053"
   inkscape:connector-curvature="0" />
</g>
<g
   id="CIRCLE_114_"
   transform="translate(-49.608,-172.89999)">
	<path
   style="fill:#0079c1"
   d="m 183.062,517.8 c 0,-15.568 -12.608,-28.176 -28.177,-28.176 -15.567,0 -28.176,12.607 -28.176,28.176 0,15.569 12.608,28.227 28.176,28.227 15.568,-0.001 28.177,-12.659 28.177,-28.227 z"
   id="path3056"
   inkscape:connector-curvature="0" />
</g>
</svg>