<?xml version="1.0" encoding="UTF-8" standalone="no"?>
<!-- Generator: Adobe Illustrator 15.1.0, SVG Export Plug-In . SVG Version: 6.00 Build 0)  -->

<svg
   xmlns:dc="http://purl.org/dc/elements/1.1/"
   xmlns:cc="http://creativecommons.org/ns#"
   xmlns:rdf="http://www.w3.org/1999/02/22-rdf-syntax-ns#"
   xmlns:svg="http://www.w3.org/2000/svg"
   xmlns="http://www.w3.org/2000/svg"
   xmlns:sodipodi="http://sodipodi.sourceforge.net/DTD/sodipodi-0.dtd"
   xmlns:inkscape="http://www.inkscape.org/namespaces/inkscape"
   version="1.1"
   id="Layer_1"
   x="0px"
   y="0px"
   width="129.87509"
   height="129.87469"
   viewBox="0 0 129.87509 129.87469"
   xml:space="preserve"
   sodipodi:docname="681.svg"
   inkscape:version="0.92.5 (2060ec1f9f, 2020-04-08)"><metadata
   id="metadata3159"><rdf:RDF><cc:Work
       rdf:about=""><dc:format>image/svg+xml</dc:format><dc:type
         rdf:resource="http://purl.org/dc/dcmitype/StillImage" /></cc:Work></rdf:RDF></metadata><defs
   id="defs3157" /><sodipodi:namedview
   pagecolor="#ffffff"
   bordercolor="#666666"
   borderopacity="1"
   objecttolerance="10"
   gridtolerance="10"
   guidetolerance="10"
   inkscape:pageopacity="0"
   inkscape:pageshadow="2"
   inkscape:window-width="640"
   inkscape:window-height="480"
   id="namedview3155"
   showgrid="false"
   inkscape:zoom="0.28028504"
   inkscape:cx="87.18935"
   inkscape:cy="-68.60665"
   inkscape:window-x="0"
   inkscape:window-y="0"
   inkscape:window-maximized="0"
   inkscape:current-layer="Layer_1" />
<g
   id="g3152"
   transform="translate(-210.31065,-222.51865)">
	
		<polygon
   style="clip-rule:evenodd;fill:#0079c1;fill-rule:evenodd;stroke:#0079c1;stroke-width:0.70670003;stroke-miterlimit:10"
   points="339.832,352.04 210.664,352.04 210.664,222.872 339.688,222.872 "
   id="polygon3134" />
	<polygon
   style="clip-rule:evenodd;fill:#ffffff;fill-rule:evenodd"
   points="212.752,227.408 214.192,225.608 217.072,223.736 221.392,222.872 328.96,222.872 332.344,223.448 334.36,224.312 336.232,225.608 337.744,227.408 338.824,229.208 339.688,232.52 339.688,342.464 339.256,344.624 337.744,347.576 336.232,349.376 334.36,350.672 331.264,351.824 328.96,352.04 221.392,352.04 218.152,351.536 215.056,350.024 212.752,347.576 211.24,344.624 210.664,342.464 210.664,232.52 211.24,230.36 "
   id="polygon3136" />
	<polygon
   style="clip-rule:evenodd;fill:#0079c1;fill-rule:evenodd"
   points="217.072,230.576 218.224,229.352 220.528,228.344 328.456,228.272 330.76,228.56 332.128,229.352 333.352,230.576 334.36,232.88 334.36,342.104 333.784,343.76 332.128,345.632 330.76,346.352 328.96,346.712 220.528,346.64 219.016,346.064 217.072,344.552 216.28,342.968 216.064,342.104 216.064,233.744 216.28,231.944 "
   id="polygon3138" />
	<polygon
   style="clip-rule:evenodd;fill:#ffffff;fill-rule:evenodd"
   points="294.472,303.944 295.12,301.64 296.56,299.12 298,297.824 300.88,295.952 303.184,295.232 305.56,294.944 307.864,295.232 310.168,295.952 312.256,297.032 313.984,298.688 315.424,300.632 316.432,302.72 316.864,305.168 316.936,306.32 327.016,306.32 327.016,299.264 318.664,299.264 318.664,295.736 327.232,295.736 327.232,262.4 257.752,262.4 257.752,295.448 262.864,295.448 262.864,299.048 253.792,299.048 253.792,278.384 253.576,276.944 252.784,275.648 251.632,274.64 249.544,274.064 229.96,274.064 228.664,274.424 228.088,275.072 223.48,288.824 223.48,306.32 230.392,306.32 230.608,303.944 231.4,301.784 232.552,299.696 234.136,297.896 236.08,296.528 238.24,295.664 240.544,295.088 242.992,295.088 245.296,295.664 247.456,296.528 249.328,297.896 250.984,299.696 252.136,301.784 252.928,303.944 253.144,306.32 294.184,306.32 "
   id="polygon3140" />
	<polygon
   style="clip-rule:evenodd;fill:#0079c1;fill-rule:evenodd"
   points="247.816,288.824 228.952,288.824 232.336,278.384 247.816,278.384 "
   id="polygon3142" />
	<polygon
   style="clip-rule:evenodd;fill:#ffffff;fill-rule:evenodd"
   points="244.936,298.184 246.808,299.12 248.32,300.56 249.616,302.288 250.408,304.304 250.624,306.464 250.408,308.552 249.616,310.496 248.32,312.296 246.808,313.664 244.936,314.744 242.848,315.248 240.688,315.248 238.6,314.744 237.592,314.312 235.864,313.016 234.136,311.288 233.344,309.056 232.912,306.464 233.128,304.304 233.92,302.288 235.072,300.56 236.728,299.12 238.6,298.184 240.688,297.608 241.768,297.608 242.848,297.608 "
   id="polygon3144" />
	<polygon
   style="clip-rule:evenodd;fill:#0079c1;fill-rule:evenodd"
   points="243.856,302.72 244.504,303.152 245.512,304.304 246.016,305.672 246.016,307.256 245.512,308.552 244.504,309.776 243.208,310.496 241.768,310.712 240.256,310.496 238.888,309.776 238.024,308.552 237.52,307.256 237.376,306.464 237.736,304.952 238.024,304.304 238.456,303.584 239.248,302.864 240.256,302.432 240.976,302.216 241.768,302.072 242.56,302.216 "
   id="polygon3146" />
	<polygon
   style="clip-rule:evenodd;fill:#ffffff;fill-rule:evenodd"
   points="308.728,298.184 310.6,299.12 312.256,300.56 313.48,302.288 314.2,304.304 314.416,306.464 314.2,308.552 313.48,310.496 312.256,312.296 310.6,313.664 308.728,314.744 306.64,315.248 304.48,315.248 302.392,314.744 301.384,314.312 299.656,313.016 298,311.288 297.208,309.056 296.776,306.464 296.992,304.304 297.784,302.288 298.936,300.56 300.52,299.12 302.392,298.184 304.48,297.608 305.56,297.608 306.64,297.608 "
   id="polygon3148" />
	<polygon
   style="clip-rule:evenodd;fill:#0079c1;fill-rule:evenodd"
   points="307.792,302.72 308.296,303.152 309.304,304.304 309.808,305.672 309.808,307.256 309.304,308.552 308.296,309.776 307.072,310.496 305.56,310.712 304.12,310.496 302.824,309.776 301.888,308.552 301.312,307.256 301.312,306.464 301.528,304.952 301.888,304.304 302.32,303.584 303.184,302.864 304.12,302.432 304.84,302.216 305.56,302.072 306.352,302.216 "
   id="polygon3150" />
</g>
</svg>