<?xml version="1.0" encoding="UTF-8" standalone="no"?>
<!-- Generator: Adobe Illustrator 15.1.0, SVG Export Plug-In . SVG Version: 6.00 Build 0)  -->

<svg
   xmlns:dc="http://purl.org/dc/elements/1.1/"
   xmlns:cc="http://creativecommons.org/ns#"
   xmlns:rdf="http://www.w3.org/1999/02/22-rdf-syntax-ns#"
   xmlns:svg="http://www.w3.org/2000/svg"
   xmlns="http://www.w3.org/2000/svg"
   xmlns:sodipodi="http://sodipodi.sourceforge.net/DTD/sodipodi-0.dtd"
   xmlns:inkscape="http://www.inkscape.org/namespaces/inkscape"
   version="1.1"
   id="Layer_1"
   x="0px"
   y="0px"
   width="129.37109"
   height="129.51469"
   viewBox="0 0 129.37109 129.51469"
   xml:space="preserve"
   sodipodi:docname="682.svg"
   inkscape:version="0.92.5 (2060ec1f9f, 2020-04-08)"><metadata
   id="metadata3348"><rdf:RDF><cc:Work
       rdf:about=""><dc:format>image/svg+xml</dc:format><dc:type
         rdf:resource="http://purl.org/dc/dcmitype/StillImage" /></cc:Work></rdf:RDF></metadata><defs
   id="defs3346" /><sodipodi:namedview
   pagecolor="#ffffff"
   bordercolor="#666666"
   borderopacity="1"
   objecttolerance="10"
   gridtolerance="10"
   guidetolerance="10"
   inkscape:pageopacity="0"
   inkscape:pageshadow="2"
   inkscape:window-width="640"
   inkscape:window-height="480"
   id="namedview3344"
   showgrid="false"
   inkscape:zoom="0.28028504"
   inkscape:cx="102.09335"
   inkscape:cy="31.90535"
   inkscape:window-x="0"
   inkscape:window-y="0"
   inkscape:window-maximized="0"
   inkscape:current-layer="Layer_1" />
<g
   id="g3341"
   transform="translate(-195.40665,-323.39065)">
	
		<polygon
   style="clip-rule:evenodd;fill:#0079c1;fill-rule:evenodd;stroke:#0079c1;stroke-width:0.70670003;stroke-miterlimit:10"
   points="324.424,452.552 195.76,452.552 195.76,323.744 324.28,323.744 "
   id="polygon3333" />
	<polygon
   style="clip-rule:evenodd;fill:#ffffff;fill-rule:evenodd"
   points="197.776,328.136 199.288,326.48 202.096,324.68 206.488,323.744 313.768,323.744 317.008,324.32 319.096,325.184 320.968,326.48 322.336,328.136 323.56,330.08 324.424,333.392 324.424,442.904 323.848,445.064 322.336,448.016 320.968,449.672 319.096,450.968 315.928,452.192 313.768,452.552 206.488,452.552 203.104,451.976 200.152,450.464 197.776,448.016 196.264,445.064 195.76,442.904 195.76,333.392 196.264,331.232 "
   id="polygon3335" />
	<polygon
   style="clip-rule:evenodd;fill:#0079c1;fill-rule:evenodd"
   points="202.096,331.304 203.32,330.08 205.624,329.144 313.048,329.144 315.352,329.36 316.864,330.08 318.088,331.304 318.952,333.608 318.952,442.616 318.52,444.128 316.864,446.072 315.352,446.864 313.768,447.08 205.624,447.08 203.968,446.504 202.096,444.848 201.376,443.336 201.16,442.616 201.16,334.472 201.376,332.816 "
   id="polygon3337" />
	<polygon
   style="clip-rule:evenodd;fill:#ffffff;fill-rule:evenodd"
   points="240.832,431.672 240.832,430.232 244.432,428.864 242.272,365.648 240.76,368.744 239.608,372.128 238.888,375.584 238.96,386.168 240.112,388.544 239.608,390.2 239.968,392.72 237.592,393.44 235.144,391.28 233.632,372.992 239.104,356.936 240.112,355.28 241.048,354.56 247.96,352.256 248.032,350.168 247.384,349.88 246.808,347.144 246.592,342.464 247.816,340.376 249.976,339.296 251.848,339.08 252.712,339.152 256.96,340.808 256.672,341.672 256.96,343.832 256.744,344.912 257.176,346.568 256.744,349.952 256.24,350.6 254.44,350.6 254.224,351.896 260.704,354.416 262,355.64 263.008,357.368 266.68,372.776 272.224,382.784 273.88,384.08 274.528,386.168 273.808,387.68 275.824,392.504 280.864,390.992 280.864,390.2 279.784,390.2 278.776,389.336 278.344,388.256 278.344,387.608 278.56,386.384 278.344,385.376 278.344,384.944 278.488,384.44 278.272,383.36 278.704,382.64 279.64,381.92 281.512,381.056 283.384,380.696 285.04,380.912 286.408,381.704 287.416,382.784 287.992,384.08 287.848,385.952 287.488,387.896 287.416,388.472 287.632,389.12 287.992,389.552 285.256,390.2 285.976,390.848 288.064,391.64 288.856,392.144 290.44,394.232 292.024,397.184 293.536,399.488 294.184,401.216 295.048,404.672 295.12,406.472 294.904,407.84 294.184,409.064 293.176,410.072 291.592,408.416 292.024,407.336 291.808,406.76 292.528,405.68 291.448,402.512 288.856,398.048 289.072,401.576 290.8,411.8 290.008,411.872 290.008,415.976 289.288,424.256 289.72,424.904 290.224,425.336 290.872,425.696 290.872,426.776 287.632,428.288 285.688,428.072 285.472,420.44 285.76,414.104 285.256,412.88 284.896,412.592 282.592,412.664 282.736,416.624 283.168,431.168 281.224,431.6 277.192,429.152 277.048,428.288 277.696,427.568 278.56,427.208 279.208,427.136 277.696,412.376 275.32,411.872 276.976,403.592 277.696,396.824 273.808,396.608 272.872,394.88 271.792,389.84 270.496,388.76 270.064,387.248 260.704,373.424 259.624,365.864 259.624,378.608 261.568,404.816 261.64,423.176 261.856,424.184 262.576,424.904 263.008,425.264 263.008,426.416 258.832,430.592 255.016,430.52 255.016,406.76 251.992,388.76 251.128,388.976 250.984,434.984 247.6,435.488 "
   id="polygon3339" />
</g>
</svg>