<?xml version="1.0" encoding="UTF-8" standalone="no"?>
<!-- Generator: Adobe Illustrator 15.1.0, SVG Export Plug-In . SVG Version: 6.00 Build 0)  -->

<svg
   xmlns:dc="http://purl.org/dc/elements/1.1/"
   xmlns:cc="http://creativecommons.org/ns#"
   xmlns:rdf="http://www.w3.org/1999/02/22-rdf-syntax-ns#"
   xmlns:svg="http://www.w3.org/2000/svg"
   xmlns="http://www.w3.org/2000/svg"
   xmlns:sodipodi="http://sodipodi.sourceforge.net/DTD/sodipodi-0.dtd"
   xmlns:inkscape="http://www.inkscape.org/namespaces/inkscape"
   version="1.1"
   id="Layer_1"
   x="0px"
   y="0px"
   width="130.019"
   height="130.091"
   viewBox="0 0 130.019 130.091"
   xml:space="preserve"
   sodipodi:docname="683.svg"
   inkscape:version="0.92.5 (2060ec1f9f, 2020-04-08)"><metadata
   id="metadata3367"><rdf:RDF><cc:Work
       rdf:about=""><dc:format>image/svg+xml</dc:format><dc:type
         rdf:resource="http://purl.org/dc/dcmitype/StillImage" /></cc:Work></rdf:RDF></metadata><defs
   id="defs3365" /><sodipodi:namedview
   pagecolor="#ffffff"
   bordercolor="#666666"
   borderopacity="1"
   objecttolerance="10"
   gridtolerance="10"
   guidetolerance="10"
   inkscape:pageopacity="0"
   inkscape:pageshadow="2"
   inkscape:window-width="640"
   inkscape:window-height="480"
   id="namedview3363"
   showgrid="false"
   inkscape:zoom="0.28028504"
   inkscape:cx="123.3335"
   inkscape:cy="-25.694504"
   inkscape:window-x="0"
   inkscape:window-y="0"
   inkscape:window-maximized="0"
   inkscape:current-layer="Layer_1" />
<g
   id="g3360"
   transform="translate(-174.1665,-265.21449)">
	
		<rect
   x="174.52"
   y="265.56799"
   style="clip-rule:evenodd;fill:#0079c1;fill-rule:evenodd;stroke:#0079c1;stroke-width:0.70700002;stroke-miterlimit:10"
   width="129.312"
   height="129.384"
   id="rect3350" />
	<polygon
   style="clip-rule:evenodd;fill:#ffffff;fill-rule:evenodd"
   points="176.536,269.96 178.048,268.304 180.928,266.432 185.32,265.568 293.176,265.568 296.56,266.072 298.504,267.008 300.304,268.304 301.816,269.96 302.968,271.904 303.832,275.216 303.832,385.376 303.4,387.536 301.816,390.488 300.304,392.144 298.504,393.44 295.408,394.664 293.176,394.952 185.32,394.952 182.008,394.448 178.912,392.936 176.536,390.488 175.024,387.536 174.52,385.376 174.52,275.216 175.024,272.984 "
   id="polygon3352" />
	<polygon
   style="clip-rule:evenodd;fill:#0079c1;fill-rule:evenodd"
   points="180.928,273.128 182.152,271.904 184.384,270.896 292.456,270.896 294.76,271.112 296.344,271.904 297.496,273.128 298.504,275.432 298.504,385.016 297.928,386.528 296.344,388.544 294.76,389.264 293.176,389.48 184.384,389.48 182.872,388.976 180.928,387.32 180.136,385.808 179.92,385.016 179.92,276.296 180.136,274.64 "
   id="polygon3354" />
	<polygon
   style="clip-rule:evenodd;fill:#ffffff;fill-rule:evenodd"
   points="224.344,360.104 226.072,363.416 228.16,366.368 230.752,369.032 235.288,372.2 238.672,373.856 242.92,375.296 247.672,375.584 251.272,375.296 256.672,373.928 261.712,371.552 266.104,368.168 269.56,363.848 272.656,358.304 273.736,352.328 273.736,348.08 273.304,344.48 272.224,340.088 269.92,335.912 267.688,332.96 263.8,329.144 264.304,319.28 267.832,321.44 271.144,324.104 273.952,327.056 276.472,330.296 278.704,333.968 280.288,337.784 281.944,343.832 282.376,350.024 282.088,355.64 280.792,360.32 279.208,364.208 276.04,369.68 272.008,374.36 267.184,378.32 261.568,381.272 255.664,383.288 247.456,384.152 241.192,383.504 235.144,381.704 229.6,378.896 226.144,376.448 223.12,373.64 219.16,368.816 217.072,365.144 222.976,356.72 "
   id="polygon3356" />
	<polygon
   style="clip-rule:evenodd;fill:#ffffff;fill-rule:evenodd"
   points="206.992,357.08 224.2,332.384 250.48,332.384 251.056,323.744 228.664,323.744 228.664,315.176 251.488,315.176 252.712,294.296 250.48,292.208 249.112,289.328 249.112,285.152 249.76,283.208 250.912,281.408 253.36,279.464 256.456,278.456 259.48,278.672 262.36,280.04 264.016,281.336 265.528,284.072 266.104,286.16 265.816,289.256 265.096,291.2 263.872,292.928 261.352,294.8 258.76,341.096 228.664,341.096 209.08,369.032 191.44,356.72 196.336,349.592 "
   id="polygon3358" />
</g>
</svg>