<?xml version="1.0" encoding="UTF-8" standalone="no"?>
<!-- Generator: Adobe Illustrator 15.1.0, SVG Export Plug-In . SVG Version: 6.00 Build 0)  -->

<svg
   xmlns:dc="http://purl.org/dc/elements/1.1/"
   xmlns:cc="http://creativecommons.org/ns#"
   xmlns:rdf="http://www.w3.org/1999/02/22-rdf-syntax-ns#"
   xmlns:svg="http://www.w3.org/2000/svg"
   xmlns="http://www.w3.org/2000/svg"
   xmlns:sodipodi="http://sodipodi.sourceforge.net/DTD/sodipodi-0.dtd"
   xmlns:inkscape="http://www.inkscape.org/namespaces/inkscape"
   version="1.1"
   id="Layer_1"
   x="0px"
   y="0px"
   width="129.888"
   height="129.96001"
   viewBox="0 0 129.888 129.96001"
   xml:space="preserve"
   sodipodi:docname="684.svg"
   inkscape:version="0.92.5 (2060ec1f9f, 2020-04-08)"><metadata
   id="metadata3392"><rdf:RDF><cc:Work
       rdf:about=""><dc:format>image/svg+xml</dc:format><dc:type
         rdf:resource="http://purl.org/dc/dcmitype/StillImage" /></cc:Work></rdf:RDF></metadata><defs
   id="defs3390" /><sodipodi:namedview
   pagecolor="#ffffff"
   bordercolor="#666666"
   borderopacity="1"
   objecttolerance="10"
   gridtolerance="10"
   guidetolerance="10"
   inkscape:pageopacity="0"
   inkscape:pageshadow="2"
   inkscape:window-width="640"
   inkscape:window-height="480"
   id="namedview3388"
   showgrid="false"
   inkscape:zoom="0.28028504"
   inkscape:cx="65.956"
   inkscape:cy="31.552"
   inkscape:window-x="0"
   inkscape:window-y="0"
   inkscape:window-maximized="0"
   inkscape:current-layer="Layer_1" />
<g
   id="g3385"
   transform="translate(-231.544,-322.592)">
	<polygon
   style="clip-rule:evenodd;fill:#ffd200;fill-rule:evenodd"
   points="361.432,452.552 231.544,452.552 231.544,322.592 361.288,322.592 "
   id="polygon3369" />
	<polygon
   style="clip-rule:evenodd;fill-rule:evenodd"
   points="233.56,326.984 235.072,325.328 237.88,323.456 242.344,322.592 350.632,322.592 353.944,323.096 356.032,324.032 357.904,325.328 359.344,326.984 360.424,328.928 361.288,332.24 361.288,442.832 360.856,445.064 359.344,448.016 357.904,449.672 356.032,450.968 352.792,452.192 350.632,452.552 242.344,452.552 238.96,451.976 236.008,450.392 233.56,448.016 232.048,445.064 231.544,442.832 231.544,332.24 232.048,330.08 "
   id="polygon3371" />
	<polygon
   style="clip-rule:evenodd;fill:#ffd200;fill-rule:evenodd"
   points="237.952,330.152 239.176,328.928 241.48,327.992 349.984,327.992 352.288,328.208 353.8,328.928 354.88,330.152 355.888,332.456 355.888,442.472 355.384,444.056 353.8,446 352.288,446.792 350.632,447.008 241.48,447.008 239.824,446.432 237.952,444.776 237.16,443.264 236.944,442.472 236.872,333.392 237.16,331.736 "
   id="polygon3373" />
	<polygon
   style="clip-rule:evenodd;fill-rule:evenodd"
   points="336.88,342.176 336.232,339.512 334.576,337.208 332.992,336.2 331.264,335.768 262.72,335.696 260.848,335.912 258.472,337.208 257.248,338.648 256.24,341.312 256.24,409.208 336.88,409.208 "
   id="polygon3375" />
	<rect
   x="270.56799"
   y="349.952"
   style="clip-rule:evenodd;fill:#ffd200;fill-rule:evenodd"
   width="51.768002"
   height="41.976002"
   id="rect3377" />
	<polygon
   style="clip-rule:evenodd;fill-rule:evenodd"
   points="261.208,439.52 265.672,439.52 267.832,437.36 267.832,415.832 265.672,413.6 261.208,413.6 259.12,415.832 259.12,437.36 "
   id="polygon3379" />
	<polygon
   style="clip-rule:evenodd;fill-rule:evenodd"
   points="277.12,413.6 279.352,415.832 279.352,422.168 290.944,422.168 291.448,421.376 292.816,420.224 294.328,419.36 296.056,419 297.928,419.144 299.512,419.792 300.952,420.8 302.176,422.168 313.84,422.168 313.84,415.832 315.928,413.6 320.464,413.6 322.552,415.832 322.552,437.36 320.464,439.52 315.928,439.52 313.84,437.36 313.84,430.808 302.176,430.808 300.952,432.248 300.304,432.824 298.792,433.688 297.064,434.048 295.192,433.904 293.536,433.328 292.096,432.248 290.944,430.808 279.352,430.808 279.352,437.36 277.12,439.52 272.728,439.52 270.568,437.36 270.568,415.832 272.728,413.6 "
   id="polygon3381" />
	<polygon
   style="clip-rule:evenodd;fill-rule:evenodd"
   points="327.376,439.52 331.768,439.52 334,437.36 334,415.832 331.768,413.6 327.376,413.6 325.216,415.832 325.216,437.36 "
   id="polygon3383" />
</g>
</svg>