<?xml version="1.0" encoding="UTF-8" standalone="no"?>
<!-- Generator: Adobe Illustrator 15.1.0, SVG Export Plug-In . SVG Version: 6.00 Build 0)  -->

<svg
   xmlns:dc="http://purl.org/dc/elements/1.1/"
   xmlns:cc="http://creativecommons.org/ns#"
   xmlns:rdf="http://www.w3.org/1999/02/22-rdf-syntax-ns#"
   xmlns:svg="http://www.w3.org/2000/svg"
   xmlns="http://www.w3.org/2000/svg"
   xmlns:sodipodi="http://sodipodi.sourceforge.net/DTD/sodipodi-0.dtd"
   xmlns:inkscape="http://www.inkscape.org/namespaces/inkscape"
   version="1.1"
   id="Layer_1"
   x="0px"
   y="0px"
   width="496.06299"
   height="108.877"
   viewBox="0 0 496.06296 108.877"
   xml:space="preserve"
   sodipodi:docname="686-1.svg"
   inkscape:version="0.92.5 (2060ec1f9f, 2020-04-08)"><metadata
   id="metadata3491"><rdf:RDF><cc:Work
       rdf:about=""><dc:format>image/svg+xml</dc:format><dc:type
         rdf:resource="http://purl.org/dc/dcmitype/StillImage" /></cc:Work></rdf:RDF></metadata><defs
   id="defs3489" /><sodipodi:namedview
   pagecolor="#ffffff"
   bordercolor="#666666"
   borderopacity="1"
   objecttolerance="10"
   gridtolerance="10"
   guidetolerance="10"
   inkscape:pageopacity="0"
   inkscape:pageshadow="2"
   inkscape:window-width="640"
   inkscape:window-height="480"
   id="namedview3487"
   showgrid="false"
   inkscape:zoom="0.28032165"
   inkscape:cx="248.09101"
   inkscape:cy="54.482994"
   inkscape:window-x="0"
   inkscape:window-y="0"
   inkscape:window-maximized="0"
   inkscape:current-layer="Layer_1" />
<g
   id="LWPOLYLINE_1049_"
   transform="translate(-49.549,-366.551)">
	<rect
   x="436.73599"
   y="366.552"
   style="fill:#0079c1"
   width="108.875"
   height="108.876"
   id="rect3435" />
</g>
<g
   id="LWPOLYLINE_1204_"
   transform="translate(-49.549,-366.551)">
	<rect
   x="249.813"
   y="366.552"
   style="fill:#0079c1"
   width="108.876"
   height="108.876"
   id="rect3438" />
</g>
<g
   id="LWPOLYLINE_1211_"
   transform="translate(-49.549,-366.551)">
	<rect
   x="49.549"
   y="366.552"
   style="fill:#0079c1"
   width="108.881"
   height="108.876"
   id="rect3441" />
</g>
<g
   id="LWPOLYLINE_1199_"
   transform="translate(-49.549,-366.551)">
	<path
   style="fill:#ffffff"
   d="m 446.415,475.428 h 89.518 c 5.344,0 9.679,-4.336 9.679,-9.679 V 376.23 c 0,-5.354 -4.335,-9.679 -9.679,-9.679 h -89.518 c -5.344,0 -9.679,4.324 -9.679,9.679 v 89.519 c 0,5.343 4.335,9.679 9.679,9.679 z"
   id="path3444"
   inkscape:connector-curvature="0" />
</g>
<g
   id="LWPOLYLINE_1205_"
   transform="translate(-49.549,-366.551)">
	<path
   style="fill:#ffffff"
   d="m 259.492,475.428 h 89.518 c 5.344,0 9.68,-4.336 9.68,-9.679 V 376.23 c 0,-5.354 -4.336,-9.679 -9.68,-9.679 h -89.518 c -5.344,0 -9.679,4.324 -9.679,9.679 v 89.519 c 0,5.343 4.335,9.679 9.679,9.679 z"
   id="path3447"
   inkscape:connector-curvature="0" />
</g>
<g
   id="LWPOLYLINE_1210_"
   transform="translate(-49.549,-366.551)">
	<path
   style="fill:#ffffff"
   d="m 59.228,475.428 h 89.529 c 5.338,0 9.673,-4.336 9.673,-9.679 V 376.23 c 0,-5.354 -4.335,-9.679 -9.673,-9.679 H 59.228 c -5.344,0 -9.679,4.324 -9.679,9.679 v 89.519 c 0,5.343 4.335,9.679 9.679,9.679 z"
   id="path3450"
   inkscape:connector-curvature="0" />
</g>
<g
   id="LWPOLYLINE_1201_"
   transform="translate(-49.549,-366.551)">
	<path
   style="fill:#0079c1"
   d="m 446.415,470.588 h 89.518 c 2.678,0 4.84,-2.173 4.84,-4.839 V 376.23 c 0,-2.677 -2.162,-4.839 -4.84,-4.839 h -89.518 c -2.666,0 -4.84,2.162 -4.84,4.839 v 89.519 c 0,2.666 2.174,4.839 4.84,4.839 z"
   id="path3453"
   inkscape:connector-curvature="0" />
</g>
<g
   id="LWPOLYLINE_1206_"
   transform="translate(-49.549,-366.551)">
	<path
   style="fill:#0079c1"
   d="m 259.492,470.588 h 89.518 c 2.678,0 4.84,-2.173 4.84,-4.839 V 376.23 c 0,-2.677 -2.162,-4.839 -4.84,-4.839 h -89.518 c -2.672,0 -4.839,2.162 -4.839,4.839 v 89.519 c 0,2.666 2.167,4.839 4.839,4.839 z"
   id="path3456"
   inkscape:connector-curvature="0" />
</g>
<g
   id="LWPOLYLINE_1214_"
   transform="translate(-49.549,-366.551)">
	<path
   style="fill:#0079c1"
   d="m 59.228,470.588 h 89.529 c 2.666,0 4.834,-2.173 4.834,-4.839 V 376.23 c 0,-2.677 -2.168,-4.839 -4.834,-4.839 H 59.228 c -2.672,0 -4.839,2.162 -4.839,4.839 v 89.519 c -0.001,2.666 2.167,4.839 4.839,4.839 z"
   id="path3459"
   inkscape:connector-curvature="0" />
</g>
<g
   id="LWPOLYLINE_1200_"
   transform="translate(-49.549,-366.551)">
	<path
   style="fill:#ffffff"
   d="m 458.569,427.123 -3.977,5.96 13.891,9.241 12.345,-20.365 h 20.669 l 2.027,-31.625 c 3.395,-1.557 4.873,-5.567 3.315,-8.962 -1.557,-3.395 -5.567,-4.873 -8.962,-3.327 -3.383,1.568 -4.873,5.579 -3.315,8.962 0.481,1.053 1.21,1.949 2.14,2.633 l -1.03,13.23 h -15.247 v 7.158 h 14.687 l -0.369,4.772 H 476.46 l -10.731,17.095 z"
   id="path3462"
   inkscape:connector-curvature="0" />
</g>
<g
   id="LWPOLYLINE_1202_"
   transform="translate(-49.549,-366.551)">
	<polygon
   style="fill:#ffffff"
   points="534.723,464.539 534.723,460.909 447.625,440.946 447.625,464.539 "
   id="polygon3465" />
</g>
<g
   id="LWPOLYLINE_1203_"
   transform="translate(-49.549,-366.551)">
	<path
   style="fill:#ffffff"
   d="m 504.309,413.232 c 3.786,2.565 6.363,6.554 7.147,11.057 1.602,9.186 -4.549,17.924 -13.724,19.515 -9.175,1.602 -17.912,-4.549 -19.515,-13.724 l -4.2,6.464 c 5.153,11.494 18.663,16.636 30.179,11.472 11.494,-5.164 16.636,-18.675 11.472,-30.179 -2.229,-4.974 -6.161,-8.973 -11.091,-11.292 z"
   id="path3468"
   inkscape:connector-curvature="0" />
</g>
<g
   id="LWPOLYLINE_1207_"
   transform="translate(-49.549,-366.551)">
	<polygon
   style="fill:#ffffff"
   points="347.801,464.539 347.801,460.909 260.702,440.946 260.702,464.539 "
   id="polygon3471" />
</g>
<g
   id="LWPOLYLINE_1208_"
   transform="translate(-49.549,-366.551)">
	<path
   style="fill:#ffffff"
   d="m 295.911,413.232 c -7.708,5.231 -9.724,15.717 -4.492,23.424 5.232,7.707 15.728,9.724 23.436,4.492 3.786,-2.565 6.362,-6.564 7.146,-11.068 l 4.212,6.464 c -2.24,4.963 -6.161,8.974 -11.09,11.292 -11.404,5.377 -25.015,0.493 -30.392,-10.911 -5.377,-11.403 -0.493,-25.003 10.911,-30.38 z"
   id="path3474"
   inkscape:connector-curvature="0" />
</g>
<g
   id="LWPOLYLINE_1209_"
   transform="translate(-49.549,-366.551)">
	<path
   style="fill:#ffffff"
   d="m 341.65,427.123 3.977,5.96 -13.891,9.241 -12.345,-20.365 h -20.669 l -2.027,-31.625 c -1.042,-0.482 -1.949,-1.221 -2.627,-2.14 -2.207,-3.014 -1.557,-7.248 1.451,-9.455 3.013,-2.207 7.237,-1.557 9.444,1.456 2.212,3.002 1.563,7.237 -1.445,9.444 l 1.03,13.23 h 15.247 v 7.158 h -14.687 l 0.369,4.772 h 18.294 l 10.731,17.095 z"
   id="path3477"
   inkscape:connector-curvature="0" />
</g>
<g
   id="LWPOLYLINE_1213_"
   transform="translate(-49.549,-366.551)">
	<polygon
   style="fill:#ffffff"
   points="147.542,464.539 60.438,464.539 60.438,440.946 147.542,460.909 "
   id="polygon3480" />
</g>
<g
   id="LWPOLYLINE_1215_"
   transform="translate(-49.549,-366.551)">
	<path
   style="fill:#ffffff"
   d="m 99.41,377.642 c -1.209,0.292 -2.095,1.322 -2.179,2.554 v 1.691 l 0.118,1.154 -0.101,0.493 0.538,3.069 1.02,0.448 1.344,0.437 c 0.257,0.594 0.336,1.266 0.212,1.916 l -3.54,2.991 c -0.381,0.325 -0.639,0.751 -0.729,1.244 l -1.26,7.987 -8.743,7.102 c -0.381,0.303 -0.442,0.863 -0.146,1.244 l 0.616,0.818 c 0.303,0.392 0.852,0.47 1.255,0.19 l 1.787,-1.288 c 0.308,-0.213 0.723,-0.224 1.036,-0.011 l 0.151,0.089 5.002,-3.607 c 1.042,-0.896 1.938,-1.96 2.655,-3.137 l 0.795,7.819 -0.017,1.377 -12.552,12.895 6.632,18.629 -3.327,1.636 v 1.736 h 9.124 l -4.783,-20.702 7.399,-5.579 2.263,11.27 5.959,14.014 c 0.011,0.022 0.022,0.045 0.028,0.067 0.341,0.952 -0.163,2.005 -1.115,2.353 l -2.711,0.772 v 1.199 h 3.786 l 5.568,-3.933 -4.772,-16.411 -0.991,-14.484 c 0.812,-1.322 0.812,-3.002 -0.017,-4.324 l -0.963,-4.324 v -7.931 l 3.271,4.358 c 0.168,0.257 0.291,0.526 0.347,0.829 l 1.299,9.87 c 0.067,0.493 0.521,0.84 1.014,0.784 l 0.857,-0.112 c 0.493,-0.056 0.851,-0.504 0.795,-0.997 l -0.224,-1.972 c -0.056,-0.504 0.297,-0.941 0.79,-1.008 l 0.084,-0.011 -1.064,-9.511 -4.269,-7.987 -1.266,-1.714 -3.955,-2.296 c -1.451,-0.852 -2.195,-2.532 -1.837,-4.167 0.291,-1.03 0.481,-2.083 0.571,-3.147 0.101,-0.908 -0.067,-1.826 -0.499,-2.633 -1.217,-1.615 -3.307,-2.309 -5.256,-1.749 z"
   id="path3483"
   inkscape:connector-curvature="0" />
</g>
</svg>