<?xml version="1.0" encoding="UTF-8" standalone="no"?>
<!-- Generator: Adobe Illustrator 15.1.0, SVG Export Plug-In . SVG Version: 6.00 Build 0)  -->

<svg
   xmlns:dc="http://purl.org/dc/elements/1.1/"
   xmlns:cc="http://creativecommons.org/ns#"
   xmlns:rdf="http://www.w3.org/1999/02/22-rdf-syntax-ns#"
   xmlns:svg="http://www.w3.org/2000/svg"
   xmlns="http://www.w3.org/2000/svg"
   xmlns:sodipodi="http://sodipodi.sourceforge.net/DTD/sodipodi-0.dtd"
   xmlns:inkscape="http://www.inkscape.org/namespaces/inkscape"
   version="1.1"
   id="Layer_1"
   x="0px"
   y="0px"
   width="130.59489"
   height="130.5947"
   viewBox="0 0 130.59489 130.5947"
   xml:space="preserve"
   sodipodi:docname="686.svg"
   inkscape:version="0.92.5 (2060ec1f9f, 2020-04-08)"><metadata
   id="metadata3510"><rdf:RDF><cc:Work
       rdf:about=""><dc:format>image/svg+xml</dc:format><dc:type
         rdf:resource="http://purl.org/dc/dcmitype/StillImage" /></cc:Work></rdf:RDF></metadata><defs
   id="defs3508" /><sodipodi:namedview
   pagecolor="#ffffff"
   bordercolor="#666666"
   borderopacity="1"
   objecttolerance="10"
   gridtolerance="10"
   guidetolerance="10"
   inkscape:pageopacity="0"
   inkscape:pageshadow="2"
   inkscape:window-width="640"
   inkscape:window-height="480"
   id="namedview3506"
   showgrid="false"
   inkscape:zoom="0.28028504"
   inkscape:cx="72.78935"
   inkscape:cy="-32.89465"
   inkscape:window-x="0"
   inkscape:window-y="0"
   inkscape:window-maximized="0"
   inkscape:current-layer="Layer_1" />
<g
   id="g3503"
   transform="translate(-224.71065,-257.51065)">
	
		<polygon
   style="clip-rule:evenodd;fill:#0079c1;fill-rule:evenodd;stroke:#0079c1;stroke-width:0.70670003;stroke-miterlimit:10"
   points="354.952,387.752 225.064,387.752 225.064,257.864 354.88,257.864 "
   id="polygon3493" />
	<path
   style="clip-rule:evenodd;fill:#ffffff;fill-rule:evenodd"
   d="m 225.064,267.512 0.576,-2.232 c 0.504,-1.008 1.008,-2.016 1.584,-3.024 0.432,-0.576 0.792,-1.296 1.368,-1.656 l 2.88,-1.872 4.392,-0.864 H 344.08 l 3.456,0.504 1.944,0.864 1.872,1.368 1.512,1.656 1.152,1.944 0.864,3.312 v 110.592 l -0.432,2.232 -1.584,2.952 -1.512,1.656 -1.872,1.296 -3.096,1.224 -2.304,0.288 H 235.864 l -3.312,-0.504 -3.024,-1.584 -2.304,-2.376 -1.584,-2.952 -0.576,-2.232 z"
   id="path3495"
   inkscape:connector-curvature="0" />
	<polygon
   style="clip-rule:evenodd;fill:#0079c1;fill-rule:evenodd"
   points="231.472,265.424 232.696,264.2 235,263.192 343.504,263.192 345.88,263.48 347.248,264.2 348.472,265.424 349.48,267.728 349.48,377.744 348.904,379.328 347.248,381.272 345.88,382.064 344.08,382.28 235,382.28 233.488,381.704 231.472,380.12 230.68,378.536 230.464,377.744 230.464,268.592 230.68,266.936 "
   id="polygon3497" />
	<polygon
   style="clip-rule:evenodd;fill:#ffffff;fill-rule:evenodd"
   points="263.512,348.08 275.392,331.808 281.44,317.552 280.864,316.04 280.792,315.176 282.664,308.552 282.88,306.896 283.096,297.752 279.208,303.08 277.336,315.248 276.688,316.688 275.752,317.264 274.6,317.12 273.736,316.472 273.16,315.608 273.52,311.936 272.872,311.72 274.312,299.12 280.792,287.672 283.312,286.016 287.056,284 287.704,283.352 288.28,281.408 288.136,278.96 287.632,275.216 287.704,273.488 288.712,271.4 290.152,270.392 292.744,269.6 294.616,269.816 296.416,270.464 297.64,271.4 298.072,273.272 298.144,275.144 297.928,276.656 298.072,277.52 297.928,278.96 297.208,281.912 296.92,282.128 294.184,282.704 293.896,284.576 299.008,288.968 300.736,300.056 310.744,308.48 311.392,309.776 311.176,311.216 310.096,312.224 309.088,312.44 308.08,312.224 305.776,310.424 305.272,311.072 297.712,305.024 296.056,302.504 295.12,312.944 307.792,335.264 301.384,353.048 305.92,356 305.488,357.944 293.464,356.072 298.288,336.704 290.008,324.608 282.952,337.064 270.568,350.6 270.784,352.472 273.52,353.264 273.952,355.208 268.48,355.208 "
   id="polygon3499" />
	<polygon
   style="clip-rule:evenodd;fill:#ffffff;fill-rule:evenodd"
   points="346.384,377.96 346.384,373.928 233.776,348.584 233.776,377.96 "
   id="polygon3501" />
</g>
</svg>