<?xml version="1.0" encoding="UTF-8" standalone="no"?>
<!-- Generator: Adobe Illustrator 15.1.0, SVG Export Plug-In . SVG Version: 6.00 Build 0)  -->

<svg
   xmlns:dc="http://purl.org/dc/elements/1.1/"
   xmlns:cc="http://creativecommons.org/ns#"
   xmlns:rdf="http://www.w3.org/1999/02/22-rdf-syntax-ns#"
   xmlns:svg="http://www.w3.org/2000/svg"
   xmlns="http://www.w3.org/2000/svg"
   xmlns:sodipodi="http://sodipodi.sourceforge.net/DTD/sodipodi-0.dtd"
   xmlns:inkscape="http://www.inkscape.org/namespaces/inkscape"
   version="1.1"
   id="Layer_1"
   x="0px"
   y="0px"
   width="496.064"
   height="372.052"
   viewBox="0 0 496.06397 372.052"
   xml:space="preserve"
   sodipodi:docname="701-1.svg"
   inkscape:version="0.92.5 (2060ec1f9f, 2020-04-08)"><metadata
   id="metadata58"><rdf:RDF><cc:Work
       rdf:about=""><dc:format>image/svg+xml</dc:format><dc:type
         rdf:resource="http://purl.org/dc/dcmitype/StillImage" /></cc:Work></rdf:RDF></metadata><defs
   id="defs56" /><sodipodi:namedview
   pagecolor="#ffffff"
   bordercolor="#666666"
   borderopacity="1"
   objecttolerance="10"
   gridtolerance="10"
   guidetolerance="10"
   inkscape:pageopacity="0"
   inkscape:pageshadow="2"
   inkscape:window-width="640"
   inkscape:window-height="480"
   id="namedview54"
   showgrid="false"
   inkscape:zoom="0.28032165"
   inkscape:cx="248.03201"
   inkscape:cy="186.026"
   inkscape:window-x="0"
   inkscape:window-y="0"
   inkscape:window-maximized="0"
   inkscape:current-layer="Layer_1" />
<g
   id="LWPOLYLINE_1232_"
   transform="translate(-49.608002,-234.919)">
	<rect
   x="49.608002"
   y="234.91901"
   style="fill:#0079c1"
   width="496.06299"
   height="372.052"
   id="rect2" />
</g>
<g
   id="LWPOLYLINE_1104_"
   transform="translate(-49.608002,-234.919)">
	<path
   style="fill:#ffffff"
   d="m 60.552,606.971 h 474.176 c 6.047,0 10.944,-4.897 10.944,-10.943 V 245.863 c 0,-6.047 -4.897,-10.944 -10.944,-10.944 H 60.552 c -6.046,0 -10.943,4.897 -10.943,10.944 v 350.164 c -0.001,6.046 4.897,10.944 10.943,10.944 z"
   id="path5"
   inkscape:connector-curvature="0" />
</g>
<g
   id="LWPOLYLINE_1239_"
   transform="translate(-49.608002,-234.919)">
	<path
   style="fill:#0079c1"
   d="m 60.552,599.675 h 474.176 c 2.01,0 3.648,-1.621 3.648,-3.647 V 245.863 c 0,-2.01 -1.639,-3.648 -3.648,-3.648 H 60.552 c -2.01,0 -3.647,1.639 -3.647,3.648 v 350.164 c -10e-4,2.027 1.637,3.648 3.647,3.648 z"
   id="path8"
   inkscape:connector-curvature="0" />
</g>
<g
   id="LWPOLYLINE_1107_"
   transform="translate(-49.608002,-234.919)">
	<rect
   x="133.493"
   y="284.16599"
   style="fill:#ffffff"
   width="164.146"
   height="164.13901"
   id="rect11" />
</g>
<g
   id="LWPOLYLINE_1108_"
   transform="translate(-49.608002,-234.919)">
	<polygon
   style="fill:#ffffff"
   points="311.312,503.022 311.312,549.517 330.463,549.517 330.463,557.725 303.112,557.725 303.112,503.022 "
   id="polygon14" />
</g>
<g
   id="LWPOLYLINE_1110_"
   transform="translate(-49.608002,-234.919)">
	<polygon
   style="fill:#ffffff"
   points="195.87,557.725 204.078,557.725 204.078,503.022 194.781,503.022 182.199,534.199 169.609,503.022 160.312,503.022 160.312,557.725 168.52,557.725 168.52,522.157 182.199,557.725 195.87,522.157 "
   id="polygon17" />
</g>
<g
   id="LWPOLYLINE_1115_"
   transform="translate(-49.608002,-234.919)">
	<polygon
   style="fill:#ffffff"
   points="374.778,503.022 374.778,549.517 393.93,549.517 393.93,557.725 366.57,557.725 366.57,503.022 "
   id="polygon20" />
</g>
<g
   id="LWPOLYLINE_1133_"
   transform="translate(-49.608002,-234.919)">
	<polygon
   style="fill:#ffffff"
   points="230.618,503.022 239.915,503.022 254.414,557.725 245.666,557.725 243.2,548.436 227.334,548.436 224.876,557.725 216.111,557.725 "
   id="polygon23" />
</g>
<g
   id="LWPOLYLINE_1236_"
   transform="translate(-49.608002,-234.919)">
	<path
   d="m 207.549,304.955 v 12.396 h -43.774 v -12.396 c 0,-5.438 -4.408,-9.846 -9.847,-9.846 -5.438,0 -9.846,4.408 -9.846,9.846 v 91.924 c 0,5.438 4.408,9.846 9.846,9.846 5.438,0 9.847,-4.407 9.847,-9.846 v -18.982 l 37.205,29.386 v 24.606 c 0,5.438 4.407,9.846 9.846,9.846 5.438,0 9.846,-4.407 9.846,-9.846 V 407.08 h 49.609 v 24.809 c 0,5.438 4.417,9.846 9.854,9.846 5.438,0 9.847,-4.407 9.847,-9.846 v -41.292 c 0,-5.54 -2.533,-10.792 -6.874,-14.254 -13.156,-10.487 -28.659,-17.632 -45.185,-20.823 -3.074,-3.969 -6.663,-7.499 -10.683,-10.488 v -40.076 c 0,-5.438 -4.407,-9.846 -9.846,-9.846 -5.437,-0.001 -9.845,4.408 -9.845,9.845 z"
   id="path26"
   inkscape:connector-curvature="0" />
</g>
<g
   id="LWPOLYLINE_1237_"
   transform="translate(-49.608002,-234.919)">
	<rect
   x="297.64001"
   y="284.16599"
   style="fill:#ffffff"
   width="164.147"
   height="164.13901"
   id="rect29" />
</g>
<g
   id="LWPOLYLINE_1240_"
   transform="translate(-49.608002,-234.919)">
	<path
   d="m 357.383,362.747 7.06,7.11 -46.3,42.863 c -4.779,4.425 -5.066,11.89 -0.642,16.669 4.416,4.779 11.881,5.066 16.66,0.642 0.22,-0.186 0.423,-0.389 0.608,-0.591 l 43.082,-46.038 46.004,46.477 c 4.695,4.526 12.16,4.408 16.686,-0.27 4.526,-4.695 4.392,-12.16 -0.287,-16.687 -0.118,-0.118 -0.236,-0.236 -0.371,-0.338 l -46.663,-43.673 11.788,-14.524 c 6.316,0.946 12.768,-0.304 18.257,-3.547 l 23.475,-23.947 c 1.824,-1.824 1.841,-4.797 0.018,-6.638 -1.824,-1.823 -4.797,-1.841 -6.621,-0.017 l -20.164,20.57 c -0.777,0.776 -2.027,0.794 -2.82,0.034 -0.794,-0.777 -0.794,-2.044 -0.018,-2.821 l 20.182,-20.604 c 1.841,-1.824 1.841,-4.796 0.018,-6.62 -1.824,-1.841 -4.797,-1.841 -6.621,-0.017 l -20.705,20.063 c -0.793,0.776 -2.061,0.76 -2.82,-0.034 -0.759,-0.794 -0.76,-2.061 0.034,-2.82 l 20.688,-20.047 c 1.823,-1.823 1.823,-4.796 0,-6.62 -1.824,-1.824 -4.779,-1.841 -6.62,-0.017 l -24.066,23.34 c -3.293,5.488 -4.577,11.923 -3.647,18.239 l -13.781,13.798 -8.833,-7.954 c 1.621,-4.442 2.111,-9.204 1.452,-13.865 -8.494,-16.703 -25.096,-27.765 -43.774,-29.184 -7.921,1.908 -14.034,8.225 -15.672,16.213 2.043,18.628 13.646,34.841 30.618,42.778 4.692,0.51 9.421,-0.149 13.795,-1.923 z"
   id="path32"
   inkscape:connector-curvature="0" />
</g>
<g
   id="LWPOLYLINE_1243_"
   transform="translate(-49.608002,-234.919)">
	<rect
   x="339.76901"
   y="503.022"
   style="fill:#ffffff"
   width="8.2069998"
   height="54.702"
   id="rect35" />
</g>
<g
   id="LWPOLYLINE_1244_"
   transform="translate(-49.608002,-234.919)">
	<polygon
   style="fill:#0079c1"
   points="235.263,516.686 241.283,540.228 229.25,540.228 "
   id="polygon38" />
</g>
<g
   id="LWPOLYLINE_1246_"
   transform="translate(-49.608002,-234.919)">
	<polygon
   style="fill:#ffffff"
   points="274.663,503.022 274.663,549.517 293.814,549.517 293.814,557.725 266.455,557.725 266.455,503.022 "
   id="polygon41" />
</g>
<g
   id="LWPOLYLINE_1247_"
   transform="translate(-49.608002,-234.919)">
	<polygon
   style="fill:#ffffff"
   points="411.173,503.022 420.478,503.022 434.968,557.725 426.22,557.725 423.754,548.436 407.879,548.436 405.431,557.725 396.665,557.725 "
   id="polygon44" />
</g>
<g
   id="LWPOLYLINE_1249_"
   transform="translate(-49.608002,-234.919)">
	<polygon
   style="fill:#0079c1"
   points="415.816,516.686 421.829,540.228 409.805,540.228 "
   id="polygon47" />
</g>
<g
   id="LWPOLYLINE_1105_"
   transform="translate(-49.608002,-234.919)">
	<path
   style="fill:#ffffff"
   d="m 234.047,354.844 c -17.936,-2.77 -36.285,-0.794 -53.224,5.726 l -17.049,-14.034 c 21.989,-16.028 52.624,-12.414 70.273,8.308 z"
   id="path50"
   inkscape:connector-curvature="0" />
</g>
</svg>