<?xml version="1.0" encoding="iso-8859-1"?>
<!-- Generator: Adobe Illustrator 15.1.0, SVG Export Plug-In . SVG Version: 6.00 Build 0)  -->
<!DOCTYPE svg PUBLIC "-//W3C//DTD SVG 1.1//EN" "http://www.w3.org/Graphics/SVG/1.1/DTD/svg11.dtd">
<svg version="1.1" id="Layer_1" xmlns="http://www.w3.org/2000/svg" xmlns:xlink="http://www.w3.org/1999/xlink" x="0px" y="0px"
	 width="595.28px" height="841.89px" viewBox="0 0 595.28 841.89" style="enable-background:new 0 0 595.28 841.89;"
	 xml:space="preserve">
<g id="LWPOLYLINE_1232_">
	<rect x="49.608" y="234.919" style="fill:#0079C1;" width="496.063" height="372.052"/>
</g>
<g id="LWPOLYLINE_1104_">
	<path style="fill:#FFFFFF;" d="M60.552,606.971h474.176c6.047,0,10.944-4.897,10.944-10.943V245.863
		c0-6.047-4.897-10.944-10.944-10.944H60.552c-6.046,0-10.943,4.897-10.943,10.944v350.164
		C49.608,602.073,54.506,606.971,60.552,606.971z"/>
</g>
<g id="LWPOLYLINE_1239_">
	<path style="fill:#0079C1;" d="M60.552,599.675h474.176c2.01,0,3.648-1.621,3.648-3.647V245.863c0-2.01-1.639-3.648-3.648-3.648
		H60.552c-2.01,0-3.647,1.639-3.647,3.648v350.164C56.904,598.054,58.542,599.675,60.552,599.675z"/>
</g>
<g id="LWPOLYLINE_1107_">
	<rect x="133.493" y="284.166" style="fill:#FFFFFF;" width="164.146" height="164.139"/>
</g>
<g id="LWPOLYLINE_1108_">
	<polygon style="fill:#FFFFFF;" points="303.112,557.725 303.112,503.022 311.312,503.022 311.312,549.517 330.463,549.517 
		330.463,557.725 	"/>
</g>
<g id="LWPOLYLINE_1110_">
	<polygon style="fill:#FFFFFF;" points="182.199,557.725 195.87,522.157 195.87,557.725 204.078,557.725 204.078,503.022 
		194.781,503.022 182.199,534.199 169.609,503.022 160.312,503.022 160.312,557.725 168.52,557.725 168.52,522.157 	"/>
</g>
<g id="LWPOLYLINE_1115_">
	<polygon style="fill:#FFFFFF;" points="366.57,557.725 366.57,503.022 374.778,503.022 374.778,549.517 393.93,549.517 
		393.93,557.725 	"/>
</g>
<g id="LWPOLYLINE_1133_">
	<polygon style="fill:#FFFFFF;" points="224.876,557.725 216.111,557.725 230.618,503.022 239.915,503.022 254.414,557.725 
		245.666,557.725 243.2,548.436 227.334,548.436 	"/>
</g>
<g id="LWPOLYLINE_1236_">
	<path d="M207.549,304.955v12.396h-43.774v-12.396c0-5.438-4.408-9.846-9.847-9.846c-5.438,0-9.846,4.408-9.846,9.846v91.924
		c0,5.438,4.408,9.846,9.846,9.846c5.438,0,9.847-4.407,9.847-9.846v-18.982l37.205,29.386v24.606c0,5.438,4.407,9.846,9.846,9.846
		c5.438,0,9.846-4.407,9.846-9.846V407.08h49.609v24.809c0,5.438,4.417,9.846,9.854,9.846c5.438,0,9.847-4.407,9.847-9.846v-41.292
		c0-5.54-2.533-10.792-6.874-14.254c-13.156-10.487-28.659-17.632-45.185-20.823c-3.074-3.969-6.663-7.499-10.683-10.488v-40.076
		c0-5.438-4.407-9.846-9.846-9.846C211.957,295.109,207.549,299.518,207.549,304.955z"/>
</g>
<g id="LWPOLYLINE_1237_">
	<rect x="297.64" y="284.166" style="fill:#FFFFFF;" width="164.147" height="164.139"/>
</g>
<g id="LWPOLYLINE_1240_">
	<path d="M357.383,362.747l7.06,7.11l-46.3,42.863c-4.779,4.425-5.066,11.89-0.642,16.669c4.416,4.779,11.881,5.066,16.66,0.642
		c0.22-0.186,0.423-0.389,0.608-0.591l43.082-46.038l46.004,46.477c4.695,4.526,12.16,4.408,16.686-0.27
		c4.526-4.695,4.392-12.16-0.287-16.687c-0.118-0.118-0.236-0.236-0.371-0.338l-46.663-43.673l11.788-14.524
		c6.316,0.946,12.768-0.304,18.257-3.547l23.475-23.947c1.824-1.824,1.841-4.797,0.018-6.638c-1.824-1.823-4.797-1.841-6.621-0.017
		l-20.164,20.57c-0.777,0.776-2.027,0.794-2.82,0.034c-0.794-0.777-0.794-2.044-0.018-2.821l20.182-20.604
		c1.841-1.824,1.841-4.796,0.018-6.62c-1.824-1.841-4.797-1.841-6.621-0.017l-20.705,20.063c-0.793,0.776-2.061,0.76-2.82-0.034
		s-0.76-2.061,0.034-2.82l20.688-20.047c1.823-1.823,1.823-4.796,0-6.62c-1.824-1.824-4.779-1.841-6.62-0.017l-24.066,23.34
		c-3.293,5.488-4.577,11.923-3.647,18.239l-13.781,13.798l-8.833-7.954c1.621-4.442,2.111-9.204,1.452-13.865
		c-8.494-16.703-25.096-27.765-43.774-29.184c-7.921,1.908-14.034,8.225-15.672,16.213c2.043,18.628,13.646,34.841,30.618,42.778
		C348.28,365.18,353.009,364.521,357.383,362.747z"/>
</g>
<g id="LWPOLYLINE_1243_">
	<rect x="339.769" y="503.022" style="fill:#FFFFFF;" width="8.207" height="54.702"/>
</g>
<g id="LWPOLYLINE_1244_">
	<polygon style="fill:#0079C1;" points="241.283,540.228 229.25,540.228 235.263,516.686 	"/>
</g>
<g id="LWPOLYLINE_1246_">
	<polygon style="fill:#FFFFFF;" points="266.455,557.725 266.455,503.022 274.663,503.022 274.663,549.517 293.814,549.517 
		293.814,557.725 	"/>
</g>
<g id="LWPOLYLINE_1247_">
	<polygon style="fill:#FFFFFF;" points="405.431,557.725 396.665,557.725 411.173,503.022 420.478,503.022 434.968,557.725 
		426.22,557.725 423.754,548.436 407.879,548.436 	"/>
</g>
<g id="LWPOLYLINE_1249_">
	<polygon style="fill:#0079C1;" points="421.829,540.228 409.805,540.228 415.816,516.686 	"/>
</g>
<g id="LWPOLYLINE_1105_">
	<path style="fill:#FFFFFF;" d="M234.047,354.844c-17.936-2.77-36.285-0.794-53.224,5.726l-17.049-14.034
		C185.763,330.508,216.398,334.122,234.047,354.844z"/>
</g>
</svg>
