<?xml version="1.0" encoding="utf-8"?>
<!-- Generator: Adobe Illustrator 15.1.0, SVG Export Plug-In . SVG Version: 6.00 Build 0)  -->
<!DOCTYPE svg PUBLIC "-//W3C//DTD SVG 1.1//EN" "http://www.w3.org/Graphics/SVG/1.1/DTD/svg11.dtd">
<svg version="1.1" id="Layer_3" xmlns="http://www.w3.org/2000/svg" xmlns:xlink="http://www.w3.org/1999/xlink" x="0px" y="0px"
	 width="595px" height="842px" viewBox="0 0 595 842" enable-background="new 0 0 595 842" xml:space="preserve">
<g>
	<path fill="#0079C1" d="M297.712,204.656h177.12c6.265,0,11.377,5.112,11.377,11.377v328.751c0,6.265-5.112,11.305-11.377,11.305
		h-177.12h188.497V204.656H297.712L297.712,204.656z M297.712,550.472V210.344h177.12c3.168,0,5.688,2.521,5.688,5.688v328.752
		c0,3.097-2.521,5.688-5.688,5.688H297.712z M120.592,204.656h177.12H109.216l0,0v351.433h188.496h-177.12
		c-6.264,0-11.376-5.04-11.376-11.305V216.031C109.216,209.768,114.328,204.656,120.592,204.656L120.592,204.656L120.592,204.656z
		 M297.712,210.344v340.128h-177.12c-3.168,0-5.688-2.592-5.688-5.688V216.031c0-3.168,2.52-5.688,5.688-5.688l0,0H297.712z"/>
	<path fill="none" stroke="#0079C1" stroke-width="1.0001" stroke-linejoin="bevel" stroke-miterlimit="10" d="M120.592,204.656
		h354.24c6.265,0,11.377,5.112,11.377,11.377v328.751c0,6.265-5.112,11.305-11.377,11.305h-354.24
		c-6.264,0-11.376-5.04-11.376-11.305V216.031C109.216,209.768,114.328,204.656,120.592,204.656 M109.216,204.656h376.993v351.433
		H109.216V204.656 M120.592,210.344h354.24c3.168,0,5.688,2.521,5.688,5.688v328.752c0,3.097-2.521,5.688-5.688,5.688h-354.24
		c-3.168,0-5.688-2.592-5.688-5.688V216.031C114.904,212.864,117.424,210.344,120.592,210.344"/>
</g>
<g>
	<polygon fill="#FFFFFF" points="169.264,242.96 425.224,242.96 425.224,370.544 169.264,370.544 	"/>
</g>
<g>
	<path fill="#141006" d="M290.44,355.208v-26.856c0-3.672-0.72-7.271-2.16-10.656c-3.096-5.399-7.848-9.647-13.608-12.168
		c-6.336-2.664-13.031-4.68-19.8-5.903c-3.527-4.608-7.92-8.568-12.815-11.592l-0.072-30.816c0-4.176-3.456-7.632-7.632-7.632
		c-4.248,0-7.632,3.456-7.704,7.632v10.224h-33.12v-10.224c0-2.736-1.44-5.256-3.816-6.624s-5.328-1.368-7.704,0
		s-3.815,3.888-3.815,6.624v70.416v-70.416v70.416c0,4.248,3.456,7.704,7.632,7.704c4.248,0,7.704-3.456,7.704-7.704v-14.04
		l28.08,23.76v17.856c0,4.248,3.384,7.632,7.632,7.632s7.632-3.384,7.632-7.632v-17.856h38.305v17.856
		c0,2.735,1.439,5.256,3.815,6.624s5.256,1.368,7.632,0S290.44,357.944,290.44,355.208L290.44,355.208z"/>
	<path fill="none" stroke="#7C3A00" stroke-width="0.216" stroke-linejoin="bevel" stroke-miterlimit="10" d="M290.44,355.208
		v-26.856c0-3.672-0.72-7.271-2.16-10.656c-3.096-5.399-7.848-9.647-13.608-12.168c-6.336-2.664-13.031-4.68-19.8-5.903
		c-3.527-4.608-7.92-8.568-12.815-11.592l-0.072-30.816c0-4.176-3.456-7.632-7.632-7.632c-4.248,0-7.632,3.456-7.704,7.632v10.224
		h-33.12v-10.224c0-2.736-1.44-5.256-3.816-6.624s-5.328-1.368-7.704,0s-3.815,3.888-3.815,6.624v70.416v-70.416v70.416
		c0,4.248,3.456,7.704,7.632,7.704c4.248,0,7.704-3.456,7.704-7.704v-14.04l28.08,23.76v17.856c0,4.248,3.384,7.632,7.632,7.632
		s7.632-3.384,7.632-7.632v-17.856h38.305v17.856c0,2.735,1.439,5.256,3.815,6.624s5.256,1.368,7.632,0
		S290.44,357.944,290.44,355.208"/>
</g>
<g>
	<path fill="#FFFFFF" d="M207.928,302.288l-14.257-12.24c18-11.521,41.616-8.784,56.593,6.552l2.304,2.592
		c-7.2-1.296-14.544-1.872-21.888-1.728c-6.408-0.36-12.816,0.576-18.792,2.808C210.592,300.992,209.224,301.64,207.928,302.288
		L207.928,302.288L207.928,302.288z"/>
</g>
<g>
	<path fill="#141006" d="M314.848,343.4l36.792-34.56l-5.76-6.264c-6.12,2.592-13.177,1.367-18.145-3.024
		c-7.128-6.552-12.24-15.048-14.688-24.336c-1.44-4.464-0.145-9.36,3.312-12.528s8.424-4.032,12.744-2.16
		c8.136,2.521,15.552,6.984,21.6,12.96c5.688,5.112,7.416,13.248,4.393,20.232l6.336,5.904l12.456-11.664
		c-2.088-5.761-0.504-12.24,3.96-16.416l15.264-15.336c0.937-0.937,2.376-1.296,3.672-1.009c1.368,0.36,2.376,1.44,2.736,2.736
		c0.36,1.368,0,2.736-1.008,3.672l-15.265,15.336c-0.504,0.504-0.647,1.225-0.504,1.872c0.217,0.648,0.721,1.152,1.368,1.296
		c0.648,0.217,1.368,0,1.872-0.432l15.336-15.336c1.44-1.512,3.888-1.512,5.4,0c1.439,1.439,1.512,3.888,0,5.4l-15.336,15.336
		c-0.721,0.72-0.721,1.943,0,2.664c0.72,0.72,1.943,0.792,2.664,0l15.191-15.265c1.44-1.512,3.889-1.512,5.4-0.072
		c1.512,1.513,1.512,3.889,0.072,5.4l-15.265,15.408c-4.176,4.464-10.656,6.048-16.416,3.96L371.656,309.2l34.992,32.688
		c2.376,2.304,3.313,5.76,2.376,9c-1.008,3.168-3.672,5.616-6.984,6.192c-3.312,0.575-5.688,0.359-7.703-2.305l-32.616-35.063
		l-33.048,34.92c-3.097,3.672-8.641,4.176-12.385,1.08C312.545,352.688,311.896,347.216,314.848,343.4L314.848,343.4L314.848,343.4z
		"/>
	<path fill="none" stroke="#7C3A00" stroke-width="0.216" stroke-linejoin="bevel" stroke-miterlimit="10" d="M314.848,343.4
		l36.792-34.56l-5.76-6.264c-6.12,2.592-13.177,1.367-18.145-3.024c-7.128-6.552-12.24-15.048-14.688-24.336
		c-1.44-4.464-0.145-9.36,3.312-12.528s8.424-4.032,12.744-2.16c8.136,2.521,15.552,6.984,21.6,12.96
		c5.688,5.112,7.416,13.248,4.393,20.232l6.336,5.904l12.456-11.664c-2.088-5.761-0.504-12.24,3.96-16.416l15.264-15.336
		c0.937-0.937,2.376-1.296,3.672-1.009c1.368,0.36,2.376,1.44,2.736,2.736c0.36,1.368,0,2.736-1.008,3.672l-15.265,15.336
		c-0.504,0.504-0.647,1.225-0.504,1.872c0.217,0.648,0.721,1.152,1.368,1.296c0.648,0.217,1.368,0,1.872-0.432l15.336-15.336
		c1.44-1.512,3.888-1.512,5.4,0c1.439,1.439,1.512,3.888,0,5.4l-15.336,15.336c-0.721,0.72-0.721,1.943,0,2.664
		c0.72,0.72,1.943,0.792,2.664,0l15.191-15.265c1.44-1.512,3.889-1.512,5.4-0.072c1.512,1.513,1.512,3.889,0.072,5.4l-15.265,15.408
		c-4.176,4.464-10.656,6.048-16.416,3.96L371.656,309.2l34.992,32.688c2.376,2.304,3.313,5.76,2.376,9
		c-1.008,3.168-3.672,5.616-6.984,6.192c-3.312,0.575-5.688,0.359-7.703-2.305l-32.616-35.063l-33.048,34.92
		c-3.097,3.672-8.641,4.176-12.385,1.08C312.545,352.688,311.896,347.216,314.848,343.4L314.848,343.4"/>
</g>
<g>
	<polygon fill="#FFFFFF" points="312.976,458.312 319.385,458.312 319.385,415.904 312.976,415.904 	"/>
	<polyline fill="none" stroke="#FFFFFF" stroke-width="0.216" stroke-linejoin="bevel" stroke-miterlimit="10" points="
		312.976,458.312 319.385,458.312 319.385,415.904 312.976,415.904 312.976,458.312 	"/>
</g>
<g>
	<polygon fill="#FFFFFF" points="290.008,481.712 279.424,481.712 279.424,475.304 307,475.304 307,481.712 296.416,481.712 
		296.416,517.856 290.008,517.856 290.008,481.712 	"/>
	<polyline fill="none" stroke="#FFFFFF" stroke-width="0.216" stroke-linejoin="bevel" stroke-miterlimit="10" points="
		290.008,481.712 279.424,481.712 279.424,475.304 307,475.304 307,481.712 296.416,481.712 296.416,517.856 290.008,517.856 
		290.008,481.712 290.008,481.712 	"/>
</g>
<polygon fill="#FFFFFF" stroke="#FFFFFF" stroke-width="0.216" stroke-linejoin="bevel" stroke-miterlimit="10" points="
	173.584,458.312 179.992,458.312 179.992,458.312 179.992,430.663 179.992,430.663 190.576,458.312 190.576,458.312 
	201.232,430.663 201.232,430.663 201.232,458.312 201.232,458.312 207.64,458.312 207.64,458.312 207.64,415.904 207.64,415.904 
	199.936,415.904 199.936,415.904 195.256,428.36 195.256,428.36 190.576,440.528 190.576,440.528 185.896,428.36 185.896,428.36 
	181.288,415.904 181.288,415.904 173.584,415.904 173.584,415.904 "/>
<polygon fill="#FFFFFF" stroke="#FFFFFF" stroke-width="0.216" stroke-linejoin="bevel" stroke-miterlimit="10" points="
	256.096,458.312 277.336,458.312 277.336,458.312 277.336,451.904 277.336,451.904 262.432,451.904 262.432,451.904 
	262.432,415.904 262.432,415.904 256.096,415.904 256.096,415.904 "/>
<polygon fill="#FFFFFF" stroke="#FFFFFF" stroke-width="0.216" stroke-linejoin="bevel" stroke-miterlimit="10" points="
	393.257,458.312 399.664,458.312 399.664,458.312 399.664,429.584 399.664,429.584 414.568,458.312 414.568,458.312 
	420.904,458.312 420.904,458.312 420.904,415.832 420.904,415.832 414.568,415.832 414.568,415.832 414.568,444.488 
	414.568,444.488 399.664,415.832 399.664,415.832 393.257,415.832 393.257,415.832 "/>
<polygon fill="#FFFFFF" stroke="#FFFFFF" stroke-width="0.216" stroke-linejoin="bevel" stroke-miterlimit="10" points="
	178.12,517.856 184.528,517.856 184.528,517.856 184.528,507.199 184.528,507.199 189.568,499.64 189.568,499.64 198.64,517.856 
	198.64,517.856 205.768,517.856 205.768,517.856 193.6,493.52 193.6,493.52 205.768,475.304 205.768,475.304 198.136,475.304 
	198.136,475.304 184.528,495.752 184.528,495.752 184.528,475.304 184.528,475.304 178.12,475.304 178.12,475.304 "/>
<path fill="#FFFFFF" stroke="#FFFFFF" stroke-width="0.216" stroke-linejoin="bevel" stroke-miterlimit="10" d="M255.088,517.856
	h-6.336l0,0v-42.552l0,0h14.616l0,0c3.024,0,5.904,1.296,7.992,3.528c2.016,2.159,3.096,5.184,2.808,8.207l0,0
	c0.433,4.969-2.664,9.576-7.416,11.16l0,0l7.488,19.656l0,0h-6.84l0,0l-7.488-19.728l0,0h-4.824l0,0V517.856v-25.488v-10.655l0,0
	h8.28l0,0c2.521,0,4.464,2.016,4.464,4.464l0,0v1.728l0,0c0,2.448-1.943,4.464-4.464,4.464l0,0l0,0l0,0h-8.28V517.856
	L255.088,517.856z"/>
<path fill="#FFFFFF" stroke="#FFFFFF" stroke-width="0.216" stroke-linejoin="bevel" stroke-miterlimit="10" d="M415.36,504.031
	v-14.903l0,0c0-7.633-6.191-13.824-13.824-13.824c-7.632,0-13.823,6.191-13.823,13.824l0,0v14.903l0,0
	c0,7.632,6.191,13.824,13.823,13.824C409.169,517.856,415.36,511.663,415.36,504.031h-6.408c0,4.104-3.312,7.416-7.416,7.416
	c-4.104,0-7.487-3.312-7.487-7.416l0,0v-14.903l0,0c0-4.104,3.384-7.416,7.487-7.416c4.104,0,7.416,3.312,7.416,7.416l0,0v14.903
	H415.36z"/>
<polygon fill="#FFFFFF" stroke="#FFFFFF" stroke-width="0.216" stroke-linejoin="bevel" stroke-miterlimit="10" points="
	348.976,517.856 355.385,517.856 355.385,517.856 355.385,489.128 355.385,489.128 370.288,517.856 370.288,517.856 
	376.624,517.856 376.624,517.856 376.624,475.304 376.624,475.304 370.288,475.304 370.288,475.304 370.288,504.031 
	370.288,504.031 355.385,475.304 355.385,475.304 348.976,475.304 348.976,475.304 "/>
<polygon fill="#FFFFFF" stroke="#FFFFFF" stroke-width="0.216" stroke-linejoin="bevel" stroke-miterlimit="10" points="
	284.896,458.312 306.064,458.312 306.064,458.312 306.064,451.904 306.064,451.904 291.232,451.904 291.232,451.904 
	291.232,415.904 291.232,415.904 284.896,415.904 284.896,415.904 "/>
<polygon fill="#FFFFFF" stroke="#FFFFFF" stroke-width="0.216" stroke-linejoin="bevel" stroke-miterlimit="10" points="
	333.856,458.312 355.096,458.312 355.096,458.312 355.096,451.904 355.096,451.904 340.192,451.904 340.192,451.904 
	340.192,415.904 340.192,415.904 333.856,415.904 333.856,415.904 "/>
<g>
	<polyline fill="#FFFFFF" points="209.967,517.967 216.375,517.967 216.375,517.967 218.391,510.696 218.391,510.696 
		231.28,510.696 231.28,510.696 233.367,517.967 233.367,517.967 239.776,517.967 239.776,517.967 228.471,475.415 228.471,475.415 
		221.272,475.415 221.272,475.415 209.967,517.967 	"/>
	<polygon fill="#0079C1" points="229.48,504.359 229.48,504.359 224.871,488.087 224.871,488.087 220.263,504.359 	"/>
</g>
<g>
	<polyline fill="#FFFFFF" points="309.854,517.967 316.262,517.967 316.262,517.967 318.278,510.696 318.278,510.696 
		331.167,510.696 331.167,510.696 333.255,517.967 333.255,517.967 339.663,517.967 339.663,517.967 328.358,475.415 
		328.358,475.415 321.159,475.415 321.159,475.415 309.854,517.967 	"/>
	<polygon fill="#0079C1" points="329.367,504.359 329.367,504.359 324.759,488.087 324.759,488.087 320.15,504.359 	"/>
</g>
<g>
	<polyline fill="#FFFFFF" points="216.439,458.8 222.847,458.8 222.847,458.8 224.863,451.529 224.863,451.529 237.751,451.529 
		237.751,451.529 239.839,458.8 239.839,458.8 246.247,458.8 246.247,458.8 234.943,416.248 234.943,416.248 227.743,416.248 
		227.743,416.248 216.439,458.8 	"/>
	<polygon fill="#0079C1" points="235.951,445.192 235.951,445.192 231.343,428.92 231.343,428.92 226.735,445.192 	"/>
</g>
<g>
	<polyline fill="#FFFFFF" points="357.412,458.218 363.82,458.218 363.82,458.218 365.836,450.947 365.836,450.947 378.724,450.947 
		378.724,450.947 380.812,458.218 380.812,458.218 387.221,458.218 387.221,458.218 375.916,415.666 375.916,415.666 
		368.717,415.666 368.717,415.666 357.412,458.218 	"/>
	<polygon fill="#0079C1" points="376.926,444.61 376.926,444.61 372.316,428.338 372.316,428.338 367.709,444.61 	"/>
</g>
<path fill="#0079C1" d="M255.14,481.759L255.14,481.759h8.28l0,0c2.521,0,4.464,2.016,4.464,4.464l0,0v1.728l0,0
	c0,2.448-1.943,4.464-4.464,4.464l0,0l0,0l0,0h-8.28V481.759z"/>
<path fill="#FFFFFF" stroke="#595959" stroke-width="0.216" stroke-linejoin="bevel" stroke-miterlimit="10" d="M348.088,591.367"/>
</svg>
