<?xml version="1.0" encoding="utf-8"?>
<!-- Generator: Adobe Illustrator 15.1.0, SVG Export Plug-In . SVG Version: 6.00 Build 0)  -->
<!DOCTYPE svg PUBLIC "-//W3C//DTD SVG 1.1//EN" "http://www.w3.org/Graphics/SVG/1.1/DTD/svg11.dtd">
<svg version="1.1" xmlns="http://www.w3.org/2000/svg" xmlns:xlink="http://www.w3.org/1999/xlink" x="0px" y="0px" width="595px"
	 height="842px" viewBox="0 0 595 842" enable-background="new 0 0 595 842" xml:space="preserve">
<g id="Layer_1">
	<g>
		<rect x="47.224" y="268.016" fill="#0079C1" width="481.607" height="291.816"/>
		
			<rect x="47.224" y="268.016" fill="none" stroke="#0079C1" stroke-width="1.0001" stroke-linejoin="bevel" stroke-miterlimit="10" width="481.607" height="291.816"/>
	</g>
	<g>
		<path fill="#FFFFFF" d="M58.528,268.016h459c6.265,0,11.304,5.04,11.304,11.304v269.208c0,6.264-5.039,11.304-11.304,11.304h-459
			c-6.264,0-11.304-5.04-11.304-11.304V279.32C47.224,273.056,52.264,268.016,58.528,268.016z"/>
		
			<line fill="none" stroke="#0079C1" stroke-width="0.216" stroke-miterlimit="10" x1="58.528" y1="268.016" x2="517.528" y2="268.016"/>
		<path fill="none" stroke="#0079C1" stroke-width="0.216" stroke-miterlimit="10" d="M517.528,268.016
			c6.265,0,11.304,5.04,11.304,11.304"/>
		
			<line fill="none" stroke="#0079C1" stroke-width="0.216" stroke-miterlimit="10" x1="528.832" y1="279.32" x2="528.832" y2="548.528"/>
		<path fill="none" stroke="#0079C1" stroke-width="0.216" stroke-miterlimit="10" d="M528.832,548.528
			c0,6.264-5.039,11.305-11.304,11.305"/>
		
			<line fill="none" stroke="#0079C1" stroke-width="0.216" stroke-miterlimit="10" x1="517.528" y1="559.831" x2="58.528" y2="559.831"/>
		<path fill="none" stroke="#0079C1" stroke-width="0.216" stroke-miterlimit="10" d="M58.528,559.831
			c-6.264,0-11.304-5.04-11.304-11.304"/>
		
			<line fill="none" stroke="#0079C1" stroke-width="0.216" stroke-miterlimit="10" x1="47.224" y1="548.528" x2="47.224" y2="279.32"/>
		<path fill="none" stroke="#0079C1" stroke-width="0.216" stroke-miterlimit="10" d="M47.224,279.32
			c0-6.264,5.04-11.304,11.304-11.304"/>
	</g>
	<path fill="#0079C1" d="M268.264,273.704h249.264c3.097,0,5.688,2.52,5.688,5.615v269.208c0,3.096-2.592,5.616-5.688,5.616H268.264
		V273.704z"/>
	<path fill="#0079C1" d="M262.648,273.704H58.528c-3.096,0-5.688,2.52-5.688,5.615v269.208c0,3.168,2.593,5.688,5.688,5.688h204.12
		V273.704z"/>
	<polygon fill="#FFFFFF" points="298.576,521.6 319.744,521.6 319.744,515.192 304.841,515.192 304.841,479.048 298.576,479.048 	
		"/>
	<polygon fill="#FFFFFF" points="350.344,521.6 327.016,521.6 327.016,479.048 350.344,479.048 350.344,485.455 333.352,485.455 
		333.352,496.039 344.872,496.039 344.872,502.448 333.352,502.448 333.352,515.192 350.344,515.192 	"/>
	<rect x="361.864" y="479.048" fill="#FFFFFF" width="6.336" height="42.552"/>
	<rect x="418.816" y="479.048" fill="#FFFFFF" width="6.408" height="42.552"/>
	<polygon fill="#FFFFFF" points="439.624,521.6 460.936,521.6 460.936,515.192 446.032,515.192 446.032,479.048 439.624,479.048 	
		"/>
	<path fill="#FFFFFF" d="M474.904,473.936c0-1.872-1.512-3.384-3.384-3.384s-3.384,1.512-3.384,3.384s1.512,3.384,3.384,3.384
		S474.904,475.808,474.904,473.936z"/>
	<path fill="#FFFFFF" d="M487.72,473.936c0-1.872-1.584-3.384-3.456-3.384s-3.384,1.512-3.384,3.384s1.512,3.384,3.384,3.384
		S487.72,475.808,487.72,473.936z"/>
	<rect x="331.841" y="306.248" fill="#FFFFFF" width="127.584" height="127.439"/>
	<polygon fill="#FFFFFF" points="119.44,477.608 93.952,477.608 93.952,388.472 170.488,388.472 170.488,350.24 221.536,401.216 
		170.56,452.119 170.56,413.96 119.512,413.96 119.512,477.608 	"/>
	<path fill="#141006" d="M395.633,422.743h57.384l-48.168-84.312l13.104-22.968h-18.504l-3.815,6.696v32.472l31.536,55.224h-12.097
		L395.633,375.8V422.743L395.633,422.743z M338.248,422.743l48.168-84.312l-13.104-22.968h18.504l3.816,6.696v32.472l-31.464,55.224
		h12.096l19.368-34.056v46.943H338.248L338.248,422.743z"/>
	<path fill="#FFFFFF" d="M389.135,521.558h-6.407v-42.552h14.688c3.024,0,5.904,1.296,7.92,3.456
		c2.088,2.231,3.097,5.256,2.88,8.208c0.36,5.04-2.664,9.647-7.487,11.159l7.487,19.729h-6.768l-7.488-19.729h-4.824l0.045,20.129"
		/>
	<path fill="#0079C1" d="M389.135,485.413h8.28c2.448,0,4.464,1.944,4.464,4.465v1.655c0,2.448-2.016,4.464-4.464,4.464h-8.28
		V485.413z"/>
	<path fill="#FFFFFF" stroke="#8E8E8E" stroke-miterlimit="10" d="M389.135,521.558"/>
	<polygon fill="#FFFFFF" points="469.487,521.558 471.503,514.285 484.391,514.285 486.479,521.558 492.815,521.558 
		481.583,479.006 474.383,479.006 463.079,521.558 	"/>
	<polygon fill="#0079C1" points="482.591,507.949 477.983,491.678 473.375,507.949 	"/>
	<path fill="#FFFFFF" stroke="#8E8E8E" stroke-miterlimit="10" d="M389.135,521.558"/>
</g>
<g id="Layer_2">
</g>
</svg>
