<?xml version="1.0" encoding="iso-8859-1"?>
<!-- Generator: Adobe Illustrator 15.1.0, SVG Export Plug-In . SVG Version: 6.00 Build 0)  -->
<!DOCTYPE svg PUBLIC "-//W3C//DTD SVG 1.1//EN" "http://www.w3.org/Graphics/SVG/1.1/DTD/svg11.dtd">
<svg version="1.1" id="Layer_1" xmlns="http://www.w3.org/2000/svg" xmlns:xlink="http://www.w3.org/1999/xlink" x="0px" y="0px"
	 width="595px" height="842px" viewBox="0 0 595 842" style="enable-background:new 0 0 595 842;" xml:space="preserve">
<g>
	<g>
		<path style="fill-rule:evenodd;clip-rule:evenodd;fill:#0079C1;" d="M416.224,240.944H534.52l-84.312,145.944h-33.984h30.744
			c2.016,0,3.888-1.08,4.896-2.808l77.688-134.64c1.08-1.728,1.08-3.888,0-5.688c-1.008-1.728-2.88-2.808-4.896-2.808H416.224
			L416.224,240.944z M416.224,384.08h30.744c1.008,0,1.944-0.504,2.448-1.44L527.104,248c0.504-0.864,0.504-1.944,0-2.808
			c-0.504-0.864-1.44-1.44-2.448-1.44H416.224V384.08z M304.984,240.944h111.24H304.984L304.984,240.944z M416.224,386.888h-111.24
			H416.224L416.224,386.888z M416.224,243.752V384.08h-111.24v-60.264h60.192v-63.72h-60.192v-16.344H416.224L416.224,243.752z
			 M193.816,384.08h111.168v-60.264H193.816V384.08L193.816,384.08z M193.816,260.096h111.168v-16.344H193.816V260.096
			L193.816,260.096z M193.816,240.944h111.168H193.816L193.816,240.944z M193.816,386.888h111.168H193.816z M193.816,243.752v16.344
			h-83.592v63.72h83.592v60.264H85.384c-1.512,0-2.808-1.296-2.808-2.808v-134.64c0-1.584,1.296-2.88,2.808-2.88H193.816
			L193.816,243.752z M79.768,386.888h114.048H85.384c-3.096,0-5.616-2.52-5.616-5.616v-134.64c0-3.168,2.52-5.688,5.616-5.688
			h108.432H79.768V386.888z"/>
		
			<polygon style="fill-rule:evenodd;clip-rule:evenodd;fill:none;stroke:#0079C1;stroke-width:1.0001;stroke-linejoin:bevel;stroke-miterlimit:10;" points="
			79.768,386.888 79.768,240.944 534.52,240.944 450.208,386.888 		"/>
		
			<line style="fill-rule:evenodd;clip-rule:evenodd;fill:none;stroke:#0079C1;stroke-width:1.0001;stroke-linejoin:bevel;stroke-miterlimit:10;" x1="79.768" y1="381.272" x2="79.768" y2="246.632"/>
		
			<path style="fill-rule:evenodd;clip-rule:evenodd;fill:none;stroke:#0079C1;stroke-width:1.0001;stroke-linejoin:bevel;stroke-miterlimit:10;" d="
			M79.768,246.632c0-3.168,2.52-5.688,5.616-5.688"/>
		
			<line style="fill-rule:evenodd;clip-rule:evenodd;fill:none;stroke:#0079C1;stroke-width:1.0001;stroke-linejoin:bevel;stroke-miterlimit:10;" x1="85.384" y1="240.944" x2="524.656" y2="240.944"/>
		
			<path style="fill-rule:evenodd;clip-rule:evenodd;fill:none;stroke:#0079C1;stroke-width:1.0001;stroke-linejoin:bevel;stroke-miterlimit:10;" d="
			M524.656,240.944c2.016,0,3.888,1.08,4.896,2.808c1.08,1.8,1.08,3.96,0,5.688"/>
		
			<line style="fill-rule:evenodd;clip-rule:evenodd;fill:none;stroke:#0079C1;stroke-width:1.0001;stroke-linejoin:bevel;stroke-miterlimit:10;" x1="529.552" y1="249.44" x2="451.864" y2="384.08"/>
		
			<path style="fill-rule:evenodd;clip-rule:evenodd;fill:none;stroke:#0079C1;stroke-width:1.0001;stroke-linejoin:bevel;stroke-miterlimit:10;" d="
			M451.864,384.08c-1.008,1.728-2.88,2.808-4.896,2.808"/>
		
			<line style="fill-rule:evenodd;clip-rule:evenodd;fill:none;stroke:#0079C1;stroke-width:1.0001;stroke-linejoin:bevel;stroke-miterlimit:10;" x1="446.968" y1="386.888" x2="85.384" y2="386.888"/>
		
			<path style="fill-rule:evenodd;clip-rule:evenodd;fill:none;stroke:#0079C1;stroke-width:1.0001;stroke-linejoin:bevel;stroke-miterlimit:10;" d="
			M85.384,386.888c-3.096,0-5.616-2.52-5.616-5.616"/>
		
			<line style="fill-rule:evenodd;clip-rule:evenodd;fill:none;stroke:#0079C1;stroke-width:1.0001;stroke-linejoin:bevel;stroke-miterlimit:10;" x1="82.576" y1="381.272" x2="82.576" y2="246.632"/>
		
			<path style="fill-rule:evenodd;clip-rule:evenodd;fill:none;stroke:#0079C1;stroke-width:1.0001;stroke-linejoin:bevel;stroke-miterlimit:10;" d="
			M82.576,246.632c0-1.584,1.296-2.88,2.808-2.88"/>
		
			<line style="fill-rule:evenodd;clip-rule:evenodd;fill:none;stroke:#0079C1;stroke-width:1.0001;stroke-linejoin:bevel;stroke-miterlimit:10;" x1="85.384" y1="243.752" x2="524.656" y2="243.752"/>
		
			<path style="fill-rule:evenodd;clip-rule:evenodd;fill:none;stroke:#0079C1;stroke-width:1.0001;stroke-linejoin:bevel;stroke-miterlimit:10;" d="
			M524.656,243.752c1.008,0,1.944,0.576,2.448,1.44c0.504,0.864,0.504,1.944,0,2.808"/>
		
			<line style="fill-rule:evenodd;clip-rule:evenodd;fill:none;stroke:#0079C1;stroke-width:1.0001;stroke-linejoin:bevel;stroke-miterlimit:10;" x1="527.104" y1="248" x2="449.416" y2="382.64"/>
		
			<path style="fill-rule:evenodd;clip-rule:evenodd;fill:none;stroke:#0079C1;stroke-width:1.0001;stroke-linejoin:bevel;stroke-miterlimit:10;" d="
			M449.416,382.64c-0.504,0.936-1.44,1.44-2.448,1.44"/>
		
			<line style="fill-rule:evenodd;clip-rule:evenodd;fill:none;stroke:#0079C1;stroke-width:1.0001;stroke-linejoin:bevel;stroke-miterlimit:10;" x1="446.968" y1="384.08" x2="85.384" y2="384.08"/>
		
			<path style="fill-rule:evenodd;clip-rule:evenodd;fill:none;stroke:#0079C1;stroke-width:1.0001;stroke-linejoin:bevel;stroke-miterlimit:10;" d="
			M85.384,384.08c-1.512,0-2.808-1.296-2.808-2.808"/>
		
			<rect x="110.224" y="260.096" style="fill-rule:evenodd;clip-rule:evenodd;fill:none;stroke:#0079C1;stroke-width:1.0001;stroke-linejoin:bevel;stroke-miterlimit:10;" width="254.952" height="63.72"/>
	</g>
	<polygon style="fill-rule:evenodd;clip-rule:evenodd;fill:#FFFFFF;" points="402.184,338.36 421.336,305.24 404.776,295.664 
		439.624,286.304 448.912,321.152 432.352,311.576 413.272,344.768 	"/>
	<g>
		<polygon style="fill-rule:evenodd;clip-rule:evenodd;fill:#141006;" points="170.848,313.664 152.704,313.664 152.704,297.032 
			169.264,297.032 159.328,284.792 164.08,284.792 154.864,275.216 158.032,275.216 149.752,261.248 141.472,275.216 
			144.64,275.216 135.424,284.792 140.176,284.792 130.384,297.032 146.944,297.032 146.944,313.664 126.136,313.664 
			126.136,307.256 132.544,307.256 132.544,302.144 113.392,302.144 113.392,307.256 119.8,307.256 119.8,313.664 113.392,313.664 
			113.392,318.776 170.848,318.776 		"/>
		<path style="fill-rule:evenodd;clip-rule:evenodd;fill:#141006;" d="M291.376,319.568V276.44c0-2.808-2.304-5.112-5.112-5.112
			v-1.872c0-2.88-2.304-5.112-5.112-5.112h-28.728l-10.44,39.24c-0.432,3.96,1.44,7.776,4.824,9.936
			c3.312,2.088,7.632,2.088,11.016,0c3.384-2.088,5.256-3.816,4.824-7.776v-20.952h3.24v34.776H291.376z"/>
		<path style="fill-rule:evenodd;clip-rule:evenodd;fill:#FFFFFF;" d="M257.536,305.384v-25.056l3.888-3.816h4.392
			c0-2.808,2.304-5.112,5.112-5.112v-1.944h-14.544l-9.504,35.928c0,2.016,1.08,3.816,2.88,4.752c1.8,0.937,3.96,0.72,5.544-0.432
			C256.96,308.552,257.896,307.328,257.536,305.384L257.536,305.384L257.536,305.384L257.536,305.384z"/>
		<rect x="271.504" y="276.512" style="fill-rule:evenodd;clip-rule:evenodd;fill:#FFFFFF;" width="14.04" height="8.856"/>
		<polygon style="fill-rule:evenodd;clip-rule:evenodd;fill:#141006;" points="177.544,271.976 205.912,262.904 234.208,271.976 
			234.208,276.44 205.912,267.368 177.544,276.512 		"/>
		<path style="fill-rule:evenodd;clip-rule:evenodd;fill:#141006;" d="M214.408,282.776c0-4.752-3.816-8.568-8.496-8.568
			c-4.752,0-8.496,3.816-8.496,8.568c0,4.68,3.744,8.496,8.496,8.496C210.592,291.272,214.408,287.456,214.408,282.776z"/>
		<path style="fill-rule:evenodd;clip-rule:evenodd;fill:#141006;" d="M188.848,319.568h34.056v-1.08
			c-4.968,0-9.072-4.032-9.072-9.072V293.36h-21.528v0.576c3.096,0,5.616,2.52,5.616,5.688l-0.072,9.72c0,4.968-4.032,9-9,9.145
			V319.568z"/>
		<path style="fill-rule:evenodd;clip-rule:evenodd;fill:#141006;" d="M310.024,310.28l18.36-17.28l-2.88-3.096
			c-3.096,1.224-6.552,0.648-9.072-1.512c-3.528-3.312-6.12-7.56-7.344-12.24c-0.72-2.232-0.072-4.68,1.656-6.264
			s4.248-1.944,6.408-1.08c4.032,1.296,7.704,3.528,10.728,6.552c2.88,2.52,3.744,6.624,2.232,10.08l3.168,2.952l6.192-5.832
			c-1.008-2.88-0.216-6.12,2.016-8.208l7.632-7.632c0.504-0.504,1.224-0.72,1.872-0.504c0.648,0.144,1.152,0.72,1.368,1.368
			c0.144,0.648-0.072,1.368-0.504,1.8l-7.632,7.704c-0.288,0.216-0.36,0.576-0.288,0.936c0.072,0.288,0.36,0.576,0.72,0.648
			c0.288,0.072,0.648,0,0.864-0.288l7.704-7.632c0.72-0.72,1.944-0.72,2.664,0c0.792,0.72,0.792,1.944,0,2.736l-7.632,7.632
			c-0.36,0.36-0.36,0.936,0,1.368c0.36,0.36,0.936,0.36,1.368,0l7.56-7.704c0.72-0.72,1.944-0.72,2.736,0
			c0.72,0.72,0.72,1.944,0,2.736l-7.632,7.632c-2.088,2.304-5.328,3.096-8.208,2.016l-5.688,6.048l17.496,16.344
			c1.224,1.152,1.656,2.88,1.152,4.464c-0.432,1.584-1.8,2.808-3.456,3.096s-2.808,0.144-3.816-1.152l-16.344-17.496l-16.488,17.424
			c-1.584,1.872-4.32,2.088-6.192,0.576C308.872,314.96,308.512,312.224,310.024,310.28z"/>
	</g>
	<g>
		
			<path style="fill-rule:evenodd;clip-rule:evenodd;fill:#FFFFFF;stroke:#FFFFFF;stroke-width:0.216;stroke-linejoin:bevel;stroke-miterlimit:10;" d="
			M141.904,367.808v-21.312h7.344c1.512,0,2.952,0.648,3.96,1.8c1.008,1.08,1.584,2.592,1.44,4.104
			c0.216,2.448-1.368,4.752-3.744,5.544h-3.384h-2.448v9.864H141.904z"/>
		<path style="fill-rule:evenodd;clip-rule:evenodd;fill:#0079C1;" d="M151.48,351.968c0-1.224-1.008-2.232-2.232-2.232h-4.176
			v5.328h4.176c1.224,0,2.232-1.008,2.232-2.232V351.968l-2.232,3.096L151.48,351.968z"/>
		
			<polygon style="fill-rule:evenodd;clip-rule:evenodd;fill:#FFFFFF;stroke:#FFFFFF;stroke-width:0.216;stroke-linejoin:bevel;stroke-miterlimit:10;" points="
			110.224,367.808 120.88,367.808 120.88,364.568 113.392,364.568 113.392,346.496 110.224,346.496 		"/>
		
			<polygon style="fill-rule:evenodd;clip-rule:evenodd;fill:#FFFFFF;stroke:#FFFFFF;stroke-width:0.216;stroke-linejoin:bevel;stroke-miterlimit:10;" points="
			136.144,367.808 124.48,367.808 124.48,346.496 136.144,346.496 136.144,349.736 127.648,349.736 127.648,355.064 
			133.408,355.064 133.408,358.232 127.648,358.232 127.648,364.568 136.144,364.568 		"/>
		
			<path style="fill-rule:evenodd;clip-rule:evenodd;fill:#FFFFFF;stroke:#FFFFFF;stroke-width:0.216;stroke-linejoin:bevel;stroke-miterlimit:10;" d="
			M171.208,360.896v-7.488c0-3.816-3.096-6.912-6.912-6.912s-6.912,3.096-6.912,6.912v7.488c0,3.816,3.096,6.912,6.912,6.912
			S171.208,364.712,171.208,360.896h-3.168c0,2.016-1.656,3.672-3.744,3.672c-2.016,0-3.672-1.656-3.672-3.672v-7.488
			c0-2.016,1.656-3.672,3.672-3.672c2.088,0,3.744,1.656,3.744,3.672v7.488H171.208z"/>
		<g>
			<polygon style="fill-rule:evenodd;clip-rule:evenodd;fill:#FFFFFF;" points="178.48,349.736 173.152,349.736 173.152,346.496 
				186.976,346.496 186.976,349.736 181.72,349.736 181.72,367.808 178.48,367.808 			"/>
			
				<polygon style="fill-rule:evenodd;clip-rule:evenodd;fill:none;stroke:#FFFFFF;stroke-width:0.216;stroke-linejoin:bevel;stroke-miterlimit:10;" points="
				178.48,349.736 173.152,349.736 173.152,346.496 186.976,346.496 186.976,349.736 181.72,349.736 181.72,367.808 178.48,367.808 
							"/>
		</g>
		
			<path style="fill-rule:evenodd;clip-rule:evenodd;fill:#FFFFFF;stroke:#FFFFFF;stroke-width:0.216;stroke-linejoin:bevel;stroke-miterlimit:10;" d="
			M205.264,360.896v-14.4h-3.168v14.4c0,2.016-1.728,3.672-3.744,3.672c-2.088,0-3.744-1.656-3.744-3.672v-14.4h-3.168v14.4
			c0,3.816,3.096,6.912,6.912,6.912S205.264,364.712,205.264,360.896z"/>
		
			<path style="fill-rule:evenodd;clip-rule:evenodd;fill:#FFFFFF;stroke:#FFFFFF;stroke-width:0.216;stroke-linejoin:bevel;stroke-miterlimit:10;" d="
			M226.288,360.896v-14.4h-3.168v14.4c0,2.016-1.656,3.672-3.744,3.672c-2.016,0-3.672-1.656-3.672-3.672v-14.4h-3.24v14.4
			c0,3.816,3.096,6.912,6.912,6.912S226.288,364.712,226.288,360.896z"/>
		
			<polygon style="fill-rule:evenodd;clip-rule:evenodd;fill:#FFFFFF;stroke:#FFFFFF;stroke-width:0.216;stroke-linejoin:bevel;stroke-miterlimit:10;" points="
			233.56,367.808 244.144,367.808 244.144,364.568 236.728,364.568 236.728,346.496 233.56,346.496 		"/>
		
			<rect x="247.744" y="346.496" style="fill-rule:evenodd;clip-rule:evenodd;fill:#FFFFFF;stroke:#FFFFFF;stroke-width:0.216;stroke-linejoin:bevel;stroke-miterlimit:10;" width="3.24" height="21.312"/>
	</g>
</g>
</svg>
