<?xml version="1.0" encoding="UTF-8" standalone="no"?>
<!-- Generator: Adobe Illustrator 15.1.0, SVG Export Plug-In . SVG Version: 6.00 Build 0)  -->

<svg
   xmlns:dc="http://purl.org/dc/elements/1.1/"
   xmlns:cc="http://creativecommons.org/ns#"
   xmlns:rdf="http://www.w3.org/1999/02/22-rdf-syntax-ns#"
   xmlns:svg="http://www.w3.org/2000/svg"
   xmlns="http://www.w3.org/2000/svg"
   xmlns:sodipodi="http://sodipodi.sourceforge.net/DTD/sodipodi-0.dtd"
   xmlns:inkscape="http://www.inkscape.org/namespaces/inkscape"
   version="1.1"
   x="0px"
   y="0px"
   width="353.58511"
   height="86.032097"
   viewBox="0 0 353.58511 86.032097"
   enable-background="new 0 0 595 842"
   xml:space="preserve"
   id="svg425"
   sodipodi:docname="704.svg"
   inkscape:version="0.92.5 (2060ec1f9f, 2020-04-08)"><metadata
   id="metadata431"><rdf:RDF><cc:Work
       rdf:about=""><dc:format>image/svg+xml</dc:format><dc:type
         rdf:resource="http://purl.org/dc/dcmitype/StillImage" /></cc:Work></rdf:RDF></metadata><defs
   id="defs429" /><sodipodi:namedview
   pagecolor="#ffffff"
   bordercolor="#666666"
   borderopacity="1"
   objecttolerance="10"
   gridtolerance="10"
   guidetolerance="10"
   inkscape:pageopacity="0"
   inkscape:pageshadow="2"
   inkscape:window-width="640"
   inkscape:window-height="480"
   id="namedview427"
   showgrid="false"
   inkscape:zoom="0.28028504"
   inkscape:cx="189.79205"
   inkscape:cy="-210.15595"
   inkscape:window-x="0"
   inkscape:window-y="0"
   inkscape:window-maximized="0"
   inkscape:current-layer="svg425" />
<g
   id="Layer_1"
   transform="translate(-107.70795,-124.81195)">
	<g
   id="Layer_1_1_">
	</g>
	<g
   id="Layer_3">
	</g>
	<g
   id="kuva">
	</g>
	<g
   id="ruskea">
	</g>
	<g
   id="AME_x5F_FRZ">
	</g>
	<g
   id="Layer_2">
	</g>
	<g
   id="Layer_4">
	</g>
	<g
   id="g329">
		<path
   d="m 284.536,125.312 h 176.257 v 85.032 H 284.536 414.713 c 2.304,0 4.464,-0.864 6.048,-2.448 l 40.032,-40.032 v 0 l -40.032,-40.031 c -1.584,-1.584 -3.744,-2.521 -6.048,-2.521 z m -176.328,0 H 284.536 116.704 c -4.68,0 -8.496,3.816 -8.496,8.496 v 68.04 c 0,4.68 3.816,8.496 8.496,8.496 H 284.536 108.208 Z"
   id="path325"
   inkscape:connector-curvature="0"
   style="fill:#7c3a00" />
		<path
   stroke-miterlimit="10"
   d="m 108.208,125.312 h 352.585 v 85.032 H 108.208 v -85.032 m 352.585,42.552 -40.032,40.032 c -1.584,1.584 -3.744,2.448 -6.048,2.448 H 116.704 c -4.68,0 -8.496,-3.816 -8.496,-8.496 v -68.04 c 0,-4.68 3.816,-8.496 8.496,-8.496 h 298.009 c 2.304,0 4.464,0.937 6.048,2.521 z"
   id="path327"
   inkscape:connector-curvature="0"
   style="fill:none;stroke:#7c3a00;stroke-width:1.00010002;stroke-linejoin:bevel;stroke-miterlimit:10" />
	</g>
	
		<rect
   x="204.54401"
   y="150.29601"
   stroke-miterlimit="10"
   width="179.28"
   height="34.271"
   id="rect331"
   style="fill:none;stroke:#000000;stroke-width:0.21600001;stroke-miterlimit:10" />
	<g
   id="g335">
		<path
   d="m 443.801,167.864 -37.08,37.009 c -0.792,0.792 -1.872,1.224 -2.952,1.224 H 116.704 c -2.304,0 -4.248,-1.872 -4.248,-4.248 v -68.04 c 0,-2.304 1.944,-4.248 4.248,-4.248 h 287.064 c 1.08,0 2.16,0.433 2.952,1.296 z"
   id="path333"
   inkscape:connector-curvature="0"
   style="fill:#7c3a00" />
	</g>
	<polygon
   stroke-miterlimit="10"
   points="249.472,156.776 249.472,151.88 249.472,151.88 244.576,151.88 244.576,151.88 244.576,156.776 249.472,156.776 "
   id="polygon337"
   style="fill:#ffffff;stroke:#ffffff;stroke-width:0.21600001;stroke-linejoin:bevel;stroke-miterlimit:10" />
	<polygon
   stroke-miterlimit="10"
   points="226.216,184.64 226.216,151.88 226.216,151.88 221.32,151.88 221.32,151.88 221.32,164.984 221.32,164.984 209.8,164.984 209.8,164.984 209.8,151.88 209.8,151.88 204.904,151.88 204.904,151.88 204.904,184.64 204.904,184.64 209.8,184.64 209.8,184.64 209.8,169.88 209.8,169.88 221.32,169.88 221.32,169.88 221.32,184.64 226.216,184.64 "
   id="polygon339"
   style="fill:#ffffff;stroke:#ffffff;stroke-width:0.21600001;stroke-linejoin:bevel;stroke-miterlimit:10" />
	<polygon
   stroke-miterlimit="10"
   points="237.664,156.776 237.664,151.88 237.664,151.88 232.768,151.88 232.768,151.88 232.768,156.776 237.664,156.776 "
   id="polygon341"
   style="fill:#ffffff;stroke:#ffffff;stroke-width:0.21600001;stroke-linejoin:bevel;stroke-miterlimit:10" />
	<polygon
   stroke-miterlimit="10"
   points="232.768,160.088 237.664,160.088 237.664,160.088 237.664,184.64 237.664,184.64 232.768,184.64 232.768,160.088 "
   id="polygon343"
   style="fill:#ffffff;stroke:#ffffff;stroke-width:0.21600001;stroke-linejoin:bevel;stroke-miterlimit:10" />
	<path
   stroke-miterlimit="10"
   d="m 288.28,168.584 h -6.192 v 0 h -0.144 v 0 c -0.145,-1.225 0.432,-2.448 1.512,-3.097 1.08,-0.647 2.376,-0.647 3.456,0 1.08,0.648 1.656,1.872 1.512,3.097 v 0 h -0.144 l 5.112,-0.288 c 0,-4.536 -3.672,-8.208 -8.208,-8.208 -4.536,0 -8.208,3.672 -8.208,8.208 v 0 8.208 0 c 0,2.88 1.584,5.616 4.104,7.056 2.521,1.44 5.688,1.44 8.208,0 2.521,-1.439 4.104,-4.176 4.104,-7.056 v 0 h -4.896 v 0 c 0,1.151 -0.647,2.231 -1.656,2.808 -1.008,0.576 -2.304,0.576 -3.312,0 -1.008,-0.576 -1.584,-1.656 -1.584,-2.808 v 0 -3.601 0 h 0.144 v 0 h 11.305 v 0 -4.607 z"
   id="path345"
   inkscape:connector-curvature="0"
   style="fill:#ffffff;stroke:#ffffff;stroke-width:0.21600001;stroke-linejoin:bevel;stroke-miterlimit:10" />
	<path
   stroke-miterlimit="10"
   d="m 299.224,184.64 h 4.968 v 0 -17.352 0 c 0,-1.801 1.44,-3.313 3.24,-3.313 1.8,0 3.312,1.512 3.312,3.313 v 0 17.352 0 h 4.896 v 0 -18.36 0 c 0,-3.384 -2.809,-6.191 -6.264,-6.191 v 0 h -1.368 v 0 c -1.296,0.216 -2.664,0.647 -3.816,1.296 v 0 -1.296 0 h -4.968 v 0 z"
   id="path347"
   inkscape:connector-curvature="0"
   style="fill:#ffffff;stroke:#ffffff;stroke-width:0.21600001;stroke-linejoin:bevel;stroke-miterlimit:10" />
	<polygon
   stroke-miterlimit="10"
   points="326.44,184.64 326.44,178.088 326.44,178.088 329.032,174.128 329.032,174.128 332.704,184.64 332.704,184.64 337.888,184.64 337.888,184.64 332.416,168.944 332.416,168.944 337.888,160.448 337.888,160.448 332.056,160.448 332.056,160.448 326.944,168.296 326.944,168.296 326.44,169.088 326.44,169.088 326.44,151.88 326.44,151.88 321.545,151.88 321.545,151.88 321.545,184.64 326.44,184.64 "
   id="polygon349"
   style="fill:#ffffff;stroke:#ffffff;stroke-width:0.21600001;stroke-linejoin:bevel;stroke-miterlimit:10" />
	<polygon
   stroke-miterlimit="10"
   points="362.801,184.64 369.352,160.088 369.352,160.088 364.456,160.088 364.456,160.088 360.352,175.424 360.352,175.424 356.248,160.088 356.248,160.088 351.352,160.088 351.352,160.088 357.904,184.64 362.801,184.64 "
   id="polygon351"
   style="fill:#ffffff;stroke:#ffffff;stroke-width:0.21600001;stroke-linejoin:bevel;stroke-miterlimit:10" />
	
		<line
   stroke-miterlimit="10"
   x1="341.84799"
   y1="151.88"
   x2="341.84799"
   y2="156.776"
   id="line353"
   style="fill:none;stroke:#ffffff;stroke-width:0.21600001;stroke-linejoin:bevel;stroke-miterlimit:10" />
	
		<line
   stroke-miterlimit="10"
   x1="346.74399"
   y1="151.88"
   x2="341.84799"
   y2="151.88"
   id="line355"
   style="fill:none;stroke:#ffffff;stroke-width:0.21600001;stroke-linejoin:bevel;stroke-miterlimit:10" />
	
		<line
   stroke-miterlimit="10"
   x1="346.74399"
   y1="156.776"
   x2="346.74399"
   y2="151.88"
   id="line357"
   style="fill:none;stroke:#ffffff;stroke-width:0.21600001;stroke-linejoin:bevel;stroke-miterlimit:10" />
	
		<line
   stroke-miterlimit="10"
   x1="341.84799"
   y1="156.776"
   x2="346.74399"
   y2="156.776"
   id="line359"
   style="fill:none;stroke:#ffffff;stroke-width:0.21600001;stroke-linejoin:bevel;stroke-miterlimit:10" />
	
		<line
   stroke-miterlimit="10"
   x1="346.74399"
   y1="184.64"
   x2="341.84799"
   y2="184.64"
   id="line361"
   style="fill:none;stroke:#ffffff;stroke-width:0.21600001;stroke-linejoin:bevel;stroke-miterlimit:10" />
	
		<line
   stroke-miterlimit="10"
   x1="346.74399"
   y1="160.088"
   x2="346.74399"
   y2="184.64"
   id="line363"
   style="fill:none;stroke:#ffffff;stroke-width:0.21600001;stroke-linejoin:bevel;stroke-miterlimit:10" />
	
		<line
   stroke-miterlimit="10"
   x1="341.84799"
   y1="160.088"
   x2="346.74399"
   y2="160.088"
   id="line365"
   style="fill:none;stroke:#ffffff;stroke-width:0.21600001;stroke-linejoin:bevel;stroke-miterlimit:10" />
	
		<line
   stroke-miterlimit="10"
   x1="341.84799"
   y1="184.64"
   x2="341.84799"
   y2="160.088"
   id="line367"
   style="fill:none;stroke:#ffffff;stroke-width:0.21600001;stroke-linejoin:bevel;stroke-miterlimit:10" />
	
		<line
   stroke-miterlimit="10"
   x1="373.673"
   y1="151.88"
   x2="373.673"
   y2="156.776"
   id="line369"
   style="fill:none;stroke:#ffffff;stroke-width:0.21600001;stroke-linejoin:bevel;stroke-miterlimit:10" />
	
		<line
   stroke-miterlimit="10"
   x1="378.56799"
   y1="151.88"
   x2="373.673"
   y2="151.88"
   id="line371"
   style="fill:none;stroke:#ffffff;stroke-width:0.21600001;stroke-linejoin:bevel;stroke-miterlimit:10" />
	
		<line
   stroke-miterlimit="10"
   x1="378.56799"
   y1="156.776"
   x2="378.56799"
   y2="151.88"
   id="line373"
   style="fill:none;stroke:#ffffff;stroke-width:0.21600001;stroke-linejoin:bevel;stroke-miterlimit:10" />
	
		<line
   stroke-miterlimit="10"
   x1="373.673"
   y1="156.776"
   x2="378.56799"
   y2="156.776"
   id="line375"
   style="fill:none;stroke:#ffffff;stroke-width:0.21600001;stroke-linejoin:bevel;stroke-miterlimit:10" />
	
		<line
   stroke-miterlimit="10"
   x1="378.56799"
   y1="184.64"
   x2="373.673"
   y2="184.64"
   id="line377"
   style="fill:none;stroke:#ffffff;stroke-width:0.21600001;stroke-linejoin:bevel;stroke-miterlimit:10" />
	
		<line
   stroke-miterlimit="10"
   x1="378.56799"
   y1="160.088"
   x2="378.56799"
   y2="184.64"
   id="line379"
   style="fill:none;stroke:#ffffff;stroke-width:0.21600001;stroke-linejoin:bevel;stroke-miterlimit:10" />
	
		<line
   stroke-miterlimit="10"
   x1="373.673"
   y1="160.088"
   x2="378.56799"
   y2="160.088"
   id="line381"
   style="fill:none;stroke:#ffffff;stroke-width:0.21600001;stroke-linejoin:bevel;stroke-miterlimit:10" />
	
		<line
   stroke-miterlimit="10"
   x1="373.673"
   y1="184.64"
   x2="373.673"
   y2="160.088"
   id="line383"
   style="fill:none;stroke:#ffffff;stroke-width:0.21600001;stroke-linejoin:bevel;stroke-miterlimit:10" />
	<polygon
   stroke-miterlimit="10"
   points="346.528,156.776 346.528,151.88 346.528,151.88 341.633,151.88 341.633,151.88 341.633,156.776 346.528,156.776 "
   id="polygon385"
   style="fill:#ffffff;stroke:#ffffff;stroke-width:0.21600001;stroke-linejoin:bevel;stroke-miterlimit:10" />
	<polygon
   stroke-miterlimit="10"
   points="341.633,160.088 346.528,160.088 346.528,160.088 346.528,184.64 346.528,184.64 341.633,184.64 341.633,160.088 "
   id="polygon387"
   style="fill:#ffffff;stroke:#ffffff;stroke-width:0.21600001;stroke-linejoin:bevel;stroke-miterlimit:10" />
	<polygon
   stroke-miterlimit="10"
   points="378.425,156.776 378.425,151.88 378.425,151.88 373.528,151.88 373.528,151.88 373.528,156.776 378.425,156.776 "
   id="polygon389"
   style="fill:#ffffff;stroke:#ffffff;stroke-width:0.21600001;stroke-linejoin:bevel;stroke-miterlimit:10" />
	<polygon
   stroke-miterlimit="10"
   points="373.528,160.088 378.425,160.088 378.425,160.088 378.425,184.64 378.425,184.64 373.528,184.64 373.528,160.088 "
   id="polygon391"
   style="fill:#ffffff;stroke:#ffffff;stroke-width:0.21600001;stroke-linejoin:bevel;stroke-miterlimit:10" />
	<polygon
   stroke-miterlimit="10"
   points="244.576,160.088 249.472,160.088 249.472,160.088 249.472,184.64 249.472,184.64 244.576,184.64 244.576,160.088 "
   id="polygon393"
   style="fill:#ffffff;stroke:#ffffff;stroke-width:0.21600001;stroke-linejoin:bevel;stroke-miterlimit:10" />
	<g
   id="g397">
		<polygon
   points="181.36,193.352 130.312,193.352 130.312,142.376 181.36,142.376 "
   id="polygon395"
   style="fill:#ffffff" />
	</g>
	<g
   id="g415">
		<path
   stroke-miterlimit="10"
   d="m 156.664,170.888 v -5.616 c -0.144,-2.52 0.576,-4.968 1.944,-7.056 3.023,-3.384 7.488,-5.185 12.023,-4.896 1.225,-0.071 2.448,0.288 3.385,1.08 0.936,0.792 1.584,1.872 1.655,3.168 0.504,2.952 -0.216,5.977 -2.016,8.425 -2.592,3.096 -6.48,4.896 -10.512,4.896 h -6.479 z"
   id="path399"
   inkscape:connector-curvature="0"
   style="fill:#7c3a00;stroke:#7c3a00;stroke-width:0.21600001;stroke-linejoin:bevel;stroke-miterlimit:10" />
		<g
   id="g405">
			<path
   d="m 156.664,173.048 3.384,0.072 c 1.513,0 3.024,0.144 4.465,0.504 1.871,0.576 3.527,1.655 4.752,3.168 0.72,0.936 1.296,2.088 1.512,3.312 0.288,1.08 0.288,2.232 0.072,3.313 -0.145,0.936 -0.721,1.8 -1.584,2.231 -0.721,0.36 -1.44,0.504 -2.16,0.504 -0.792,0.072 -1.513,0.072 -2.305,0 -1.224,-0.144 -2.52,-0.504 -3.672,-1.008 -1.367,-0.576 -2.592,-1.584 -3.384,-2.88 -0.432,-0.72 -0.792,-1.584 -0.936,-2.448 -0.072,-0.647 -0.145,-1.224 -0.145,-1.872 v -4.896 z"
   id="path401"
   inkscape:connector-curvature="0"
   style="fill:#7c3a00" />
			<path
   stroke-miterlimit="10"
   d="m 156.664,173.048 3.384,0.072 c 1.513,0 3.024,0.144 4.465,0.504 1.871,0.576 3.527,1.655 4.752,3.168 0.72,0.936 1.296,2.088 1.512,3.312 0.288,1.08 0.288,2.232 0.072,3.313 -0.145,0.936 -0.721,1.8 -1.584,2.231 -0.721,0.36 -1.44,0.504 -2.16,0.504 -0.792,0.072 -1.513,0.072 -2.305,0 -1.224,-0.144 -2.52,-0.504 -3.672,-1.008 -1.367,-0.576 -2.592,-1.584 -3.384,-2.88 -0.432,-0.72 -0.792,-1.584 -0.936,-2.448 -0.072,-0.647 -0.145,-1.224 -0.145,-1.872 v -4.896"
   id="path403"
   inkscape:connector-curvature="0"
   style="fill:none;stroke:#7c3a00;stroke-width:0.21600001;stroke-linejoin:bevel;stroke-miterlimit:10" />
		</g>
		<path
   stroke-miterlimit="10"
   d="m 153.352,170.888 v -5.616 c 0.144,-2.52 -0.504,-4.968 -1.872,-7.056 -3.097,-3.384 -7.488,-5.185 -12.024,-4.896 -1.296,-0.071 -2.52,0.288 -3.456,1.08 -0.936,0.792 -1.512,1.872 -1.655,3.168 -0.505,2.952 0.287,5.977 2.088,8.425 2.592,3.096 6.407,4.896 10.512,4.896 h 6.407 z"
   id="path407"
   inkscape:connector-curvature="0"
   style="fill:#7c3a00;stroke:#7c3a00;stroke-width:0.21600001;stroke-linejoin:bevel;stroke-miterlimit:10" />
		<g
   id="g413">
			<path
   d="m 153.352,173.048 -3.385,0.072 c -1.512,0 -2.951,0.144 -4.464,0.504 -1.8,0.576 -3.456,1.655 -4.752,3.168 -0.72,0.936 -1.224,2.088 -1.439,3.312 -0.288,1.08 -0.288,2.232 -0.145,3.313 0.145,0.936 0.721,1.8 1.656,2.231 0.648,0.36 1.368,0.504 2.16,0.504 0.72,0.072 1.512,0.072 2.231,0 1.297,-0.144 2.521,-0.504 3.673,-1.008 1.439,-0.576 2.592,-1.584 3.384,-2.88 0.504,-0.72 0.792,-1.584 0.936,-2.448 0.145,-0.647 0.145,-1.224 0.145,-1.872 z"
   id="path409"
   inkscape:connector-curvature="0"
   style="fill:#7c3a00" />
			<path
   stroke-miterlimit="10"
   d="m 153.352,173.048 -3.385,0.072 c -1.512,0 -2.951,0.144 -4.464,0.504 -1.8,0.576 -3.456,1.655 -4.752,3.168 -0.72,0.936 -1.224,2.088 -1.439,3.312 -0.288,1.08 -0.288,2.232 -0.145,3.313 0.145,0.936 0.721,1.8 1.656,2.231 0.648,0.36 1.368,0.504 2.16,0.504 0.72,0.072 1.512,0.072 2.231,0 1.297,-0.144 2.521,-0.504 3.673,-1.008 1.439,-0.576 2.592,-1.584 3.384,-2.88 0.504,-0.72 0.792,-1.584 0.936,-2.448 0.145,-0.647 0.145,-1.224 0.145,-1.872 v -4.896"
   id="path411"
   inkscape:connector-curvature="0"
   style="fill:none;stroke:#7c3a00;stroke-width:0.21600001;stroke-linejoin:bevel;stroke-miterlimit:10" />
		</g>
	</g>
</g>
<g
   id="Layer_2_1_"
   transform="translate(-107.70795,-124.81195)">
	<g
   id="g422">
		<path
   d="m 267.09,184.728 h 4.896 v 0 -32.76 0 h -4.896 v 0 10.08 0 c -0.504,-0.288 -1.008,-0.504 -1.512,-0.721 v 0 l -1.944,-0.792 v 0 c -1.8,-0.647 -3.815,-0.432 -5.472,0.648 -1.584,1.08 -2.521,2.952 -2.521,4.896 v 0 12.743 0 c 0,1.729 0.721,3.313 2.017,4.465 1.224,1.079 2.952,1.655 4.607,1.439 h -0.863 c 2.016,0 3.96,-0.576 5.688,-1.512 v 0 1.514"
   id="path418"
   inkscape:connector-curvature="0"
   style="fill:#ffffff" />
		<path
   d="m 267.09,167.377 v 0 c 0,-1.801 -1.439,-3.313 -3.312,-3.313 -1.801,0 -3.24,1.512 -3.24,3.313 v 0 10.512 0 c 0,1.152 0.647,2.231 1.656,2.808 1.008,0.576 2.231,0.576 3.239,0 1.009,-0.576 1.656,-1.655 1.656,-2.808 v -10.512 z"
   id="path420"
   inkscape:connector-curvature="0"
   style="fill:#7c3a00" />
	</g>
</g>
</svg>