<?xml version="1.0" encoding="UTF-8" standalone="no"?>
<!-- Generator: Adobe Illustrator 15.1.0, SVG Export Plug-In . SVG Version: 6.00 Build 0)  -->

<svg
   xmlns:dc="http://purl.org/dc/elements/1.1/"
   xmlns:cc="http://creativecommons.org/ns#"
   xmlns:rdf="http://www.w3.org/1999/02/22-rdf-syntax-ns#"
   xmlns:svg="http://www.w3.org/2000/svg"
   xmlns="http://www.w3.org/2000/svg"
   xmlns:sodipodi="http://sodipodi.sourceforge.net/DTD/sodipodi-0.dtd"
   xmlns:inkscape="http://www.inkscape.org/namespaces/inkscape"
   version="1.1"
   x="0px"
   y="0px"
   width="288.89603"
   height="193.20805"
   viewBox="0 0 288.89603 193.20805"
   xml:space="preserve"
   id="svg556"
   sodipodi:docname="704a.svg"
   inkscape:version="0.92.5 (2060ec1f9f, 2020-04-08)"><metadata
   id="metadata562"><rdf:RDF><cc:Work
       rdf:about=""><dc:format>image/svg+xml</dc:format><dc:type
         rdf:resource="http://purl.org/dc/dcmitype/StillImage" /></cc:Work></rdf:RDF></metadata><defs
   id="defs560" /><sodipodi:namedview
   pagecolor="#ffffff"
   bordercolor="#666666"
   borderopacity="1"
   objecttolerance="10"
   gridtolerance="10"
   guidetolerance="10"
   inkscape:pageopacity="0"
   inkscape:pageshadow="2"
   inkscape:window-width="640"
   inkscape:window-height="480"
   id="namedview558"
   showgrid="false"
   inkscape:zoom="0.28028504"
   inkscape:cx="209.73605"
   inkscape:cy="72.22805"
   inkscape:window-x="0"
   inkscape:window-y="0"
   inkscape:window-maximized="0"
   inkscape:current-layer="svg556" />
<g
   id="Layer_3"
   transform="translate(-87.76395,-300.01999)">
</g>
<g
   id="Layer_1"
   transform="translate(-87.76395,-300.01999)">
</g>
<g
   id="AME_x5F_FRZ"
   transform="translate(-87.76395,-300.01999)">
</g>
<g
   id="kuva"
   transform="translate(-87.76395,-300.01999)">
</g>
<g
   id="_x33_"
   transform="translate(-87.76395,-300.01999)">
</g>
<g
   id="MITAT"
   transform="translate(-87.76395,-300.01999)">
</g>
<g
   id="Layer_2"
   transform="translate(-87.76395,-300.01999)">
	<g
   id="g553">
		
			<rect
   x="88.192001"
   y="300.12799"
   style="clip-rule:evenodd;fill:#7c3a00;fill-rule:evenodd;stroke:#000000;stroke-width:0.21600001;stroke-miterlimit:10"
   width="288.35999"
   height="101.952"
   id="rect439" />
		<g
   id="g445">
			<polygon
   style="clip-rule:evenodd;fill:#7c3a00;fill-rule:evenodd"
   points="375.976,492.728 88.264,492.728 88.264,402.08 375.976,402.08 "
   id="polygon441" />
			
				<polyline
   style="clip-rule:evenodd;fill:none;fill-rule:evenodd;stroke:#733907;stroke-width:1.00010002;stroke-linejoin:bevel;stroke-miterlimit:10"
   points="     88.264,402.08 375.976,402.08 375.976,492.728 88.264,492.728 88.264,402.08    "
   id="polyline443" />
		</g>
		<g
   id="g451">
			<path
   style="clip-rule:evenodd;fill:#ffffff;fill-rule:evenodd"
   d="m 96.832,300.56 h 270.576 c 4.752,0 8.568,3.816 8.568,8.496 v 84.6 c 0,4.68 -3.816,8.424 -8.568,8.424 H 96.832 c -4.752,0 -8.568,-3.744 -8.568,-8.424 v -84.6 c 0,-4.68 3.816,-8.496 8.568,-8.496 z"
   id="path447"
   inkscape:connector-curvature="0" />
			
				<path
   style="clip-rule:evenodd;fill:none;fill-rule:evenodd;stroke:#733907;stroke-width:1.00010002;stroke-linejoin:bevel;stroke-miterlimit:10"
   d="m 96.832,300.56 h 270.576 c 4.752,0 8.568,3.816 8.568,8.496 v 84.6 c 0,4.68 -3.816,8.424 -8.568,8.424 H 96.832 c -4.752,0 -8.568,-3.744 -8.568,-8.424 v -84.6 c 0,-4.68 3.816,-8.496 8.568,-8.496"
   id="path449"
   inkscape:connector-curvature="0" />
		</g>
		<g
   id="g455">
			<path
   style="clip-rule:evenodd;fill:#7c3a00;fill-rule:evenodd"
   d="m 96.832,304.304 h 270.576 c 2.376,0 4.32,1.944 4.32,4.248 v 85.032 c 0,2.376 -1.944,4.248 -4.32,4.248 H 96.832 c -2.376,0 -4.248,-1.872 -4.248,-4.248 v -85.032 c 0,-2.304 1.872,-4.248 4.248,-4.248 z"
   id="path453"
   inkscape:connector-curvature="0" />
		</g>
		<g
   id="g461">
			<path
   style="clip-rule:evenodd;fill:#ffffff;fill-rule:evenodd"
   d="m 96.832,402.08 h 270.576 c 4.752,0 8.568,3.816 8.568,8.568 v 73.584 c 0,4.68 -3.816,8.496 -8.568,8.496 H 96.832 c -4.752,0 -8.568,-3.816 -8.568,-8.496 v -73.584 c 0,-4.752 3.816,-8.568 8.568,-8.568 z"
   id="path457"
   inkscape:connector-curvature="0" />
			
				<path
   style="clip-rule:evenodd;fill:none;fill-rule:evenodd;stroke:#733907;stroke-width:1.00010002;stroke-linejoin:bevel;stroke-miterlimit:10"
   d="m 96.832,402.08 h 270.576 c 4.752,0 8.568,3.816 8.568,8.568 v 73.584 c 0,4.68 -3.816,8.496 -8.568,8.496 H 96.832 c -4.752,0 -8.568,-3.816 -8.568,-8.496 v -73.584 c 0,-4.752 3.816,-8.568 8.568,-8.568"
   id="path459"
   inkscape:connector-curvature="0" />
		</g>
		<g
   id="g465">
			<path
   style="clip-rule:evenodd;fill:#7c3a00;fill-rule:evenodd"
   d="m 96.832,406.328 h 270.576 c 2.376,0 4.32,1.944 4.32,4.32 v 73.584 c 0,2.376 -1.944,4.248 -4.32,4.248 H 96.832 c -2.376,0 -4.248,-1.872 -4.248,-4.248 v -73.584 c 0,-2.376 1.872,-4.32 4.248,-4.32 z"
   id="path463"
   inkscape:connector-curvature="0" />
		</g>
		<g
   id="g527">
			
				<polygon
   style="clip-rule:evenodd;fill:#ffffff;fill-rule:evenodd;stroke:#ffffff;stroke-width:0.21600001;stroke-linejoin:bevel;stroke-miterlimit:10"
   points="239.896,344.408 239.896,340.088 239.896,340.088 235.576,340.088 235.576,340.088 235.576,344.408 239.896,344.408 "
   id="polygon467" />
			
				<polygon
   style="clip-rule:evenodd;fill:#ffffff;fill-rule:evenodd;stroke:#ffffff;stroke-width:0.21600001;stroke-linejoin:bevel;stroke-miterlimit:10"
   points="219.448,368.888 219.448,340.088 219.448,340.088 215.128,340.088 215.128,340.088 215.128,351.608 215.128,351.608 205.048,351.608 205.048,351.608 205.048,340.088 205.048,340.088 200.728,340.088 200.728,340.088 200.728,368.888 200.728,368.888 205.048,368.888 205.048,368.888 205.048,355.928 205.048,355.928 215.128,355.928 215.128,355.928 215.128,368.888 219.448,368.888 "
   id="polygon469" />
			
				<polygon
   style="clip-rule:evenodd;fill:#ffffff;fill-rule:evenodd;stroke:#ffffff;stroke-width:0.21600001;stroke-linejoin:bevel;stroke-miterlimit:10"
   points="229.528,344.408 229.528,340.088 229.528,340.088 225.208,340.088 225.208,340.088 225.208,344.408 229.528,344.408 "
   id="polygon471" />
			
				<polygon
   style="clip-rule:evenodd;fill:#ffffff;fill-rule:evenodd;stroke:#ffffff;stroke-width:0.21600001;stroke-linejoin:bevel;stroke-miterlimit:10"
   points="225.208,347.288 229.528,347.288 229.528,347.288 229.528,368.888 229.528,368.888 225.208,368.888 225.208,347.288 "
   id="polygon473" />
			
				<path
   style="clip-rule:evenodd;fill:#ffffff;fill-rule:evenodd;stroke:#ffffff;stroke-width:0.21600001;stroke-linejoin:bevel;stroke-miterlimit:10"
   d="m 254.872,368.888 h 4.32 v 0 -28.8 0 h -4.32 v 0 8.856 0 c -0.432,-0.288 -0.864,-0.504 -1.296,-0.648 v 0 l -1.728,-0.648 v 0 c -1.584,-0.648 -3.384,-0.432 -4.752,0.504 -1.44,1.008 -2.304,2.592 -2.304,4.32 v 0 11.232 0 c 0,1.512 0.648,2.88 1.8,3.888 1.08,1.008 2.592,1.44 4.032,1.224 l -0.72,0.072 c 1.728,0 3.456,-0.504 4.968,-1.368 v 0 1.368 -6.048 -9.216 0 c 0,-1.584 -1.296,-2.88 -2.88,-2.88 -1.584,0 -2.88,1.296 -2.88,2.88 v 0 9.216 0 c 0,1.008 0.576,2.016 1.44,2.52 0.936,0.504 2.016,0.504 2.88,0 0.936,-0.504 1.44,-1.512 1.44,-2.52 z"
   id="path475"
   inkscape:connector-curvature="0" />
			
				<path
   style="clip-rule:evenodd;fill:#ffffff;fill-rule:evenodd;stroke:#ffffff;stroke-width:0.21600001;stroke-linejoin:bevel;stroke-miterlimit:10"
   d="m 274.024,354.776 h -5.472 v 0 h -0.144 v 0 c -0.072,-1.08 0.432,-2.16 1.368,-2.736 0.936,-0.576 2.088,-0.576 3.024,0 0.936,0.576 1.44,1.656 1.368,2.736 v 0 h -0.144 l 4.464,-0.288 c 0,-3.96 -3.24,-7.2 -7.2,-7.2 -3.96,0 -7.2,3.24 -7.2,7.2 v 0 7.2 0 c 0,2.592 1.368,4.968 3.6,6.264 2.232,1.296 4.968,1.296 7.2,0 2.232,-1.296 3.6,-3.672 3.6,-6.264 v 0 h -4.32 v 0 c 0,1.008 -0.504,2.016 -1.44,2.52 -0.864,0.504 -2.016,0.504 -2.88,0 -0.864,-0.504 -1.44,-1.512 -1.44,-2.52 v 0 -3.168 0 h 0.144 v 0 h 9.936 v 0 -4.032 z"
   id="path477"
   inkscape:connector-curvature="0" />
			
				<path
   style="clip-rule:evenodd;fill:#ffffff;fill-rule:evenodd;stroke:#ffffff;stroke-width:0.21600001;stroke-linejoin:bevel;stroke-miterlimit:10"
   d="m 283.744,368.888 h 4.32 v 0 -15.264 0 c 0,-1.584 1.224,-2.88 2.88,-2.88 1.584,0 2.88,1.296 2.88,2.88 v 0 15.264 0 h 4.32 v 0 -16.128 0 c 0,-3.024 -2.448,-5.472 -5.472,-5.472 v 0 h -1.224 v 0 c -1.224,0.216 -2.376,0.576 -3.384,1.152 v 0 -1.152 0 h -4.32 v 0 z"
   id="path479"
   inkscape:connector-curvature="0" />
			
				<polygon
   style="clip-rule:evenodd;fill:#ffffff;fill-rule:evenodd;stroke:#ffffff;stroke-width:0.21600001;stroke-linejoin:bevel;stroke-miterlimit:10"
   points="307.576,368.888 307.576,363.128 307.576,363.128 309.808,359.672 309.808,359.672 313.048,368.888 313.048,368.888 317.656,368.888 317.656,368.888 312.832,355.064 312.832,355.064 317.656,347.576 317.656,347.576 312.472,347.576 312.472,347.576 308.008,354.488 308.008,354.488 307.576,355.208 307.576,355.208 307.576,340.088 307.576,340.088 303.256,340.088 303.256,340.088 303.256,368.888 307.576,368.888 "
   id="polygon481" />
			
				<polygon
   style="clip-rule:evenodd;fill:#ffffff;fill-rule:evenodd;stroke:#ffffff;stroke-width:0.21600001;stroke-linejoin:bevel;stroke-miterlimit:10"
   points="339.544,368.888 345.304,347.288 345.304,347.288 340.984,347.288 340.984,347.288 337.384,360.752 337.384,360.752 333.784,347.288 333.784,347.288 329.464,347.288 329.464,347.288 335.224,368.888 339.544,368.888 "
   id="polygon483" />
			
				<line
   style="clip-rule:evenodd;fill:none;fill-rule:evenodd;stroke:#ffffff;stroke-width:0.21600001;stroke-linejoin:bevel;stroke-miterlimit:10"
   x1="321.112"
   y1="340.08801"
   x2="321.112"
   y2="344.40799"
   id="line485" />
			
				<line
   style="clip-rule:evenodd;fill:none;fill-rule:evenodd;stroke:#ffffff;stroke-width:0.21600001;stroke-linejoin:bevel;stroke-miterlimit:10"
   x1="325.43201"
   y1="340.08801"
   x2="321.112"
   y2="340.08801"
   id="line487" />
			
				<line
   style="clip-rule:evenodd;fill:none;fill-rule:evenodd;stroke:#ffffff;stroke-width:0.21600001;stroke-linejoin:bevel;stroke-miterlimit:10"
   x1="325.43201"
   y1="344.40799"
   x2="325.43201"
   y2="340.08801"
   id="line489" />
			
				<line
   style="clip-rule:evenodd;fill:none;fill-rule:evenodd;stroke:#ffffff;stroke-width:0.21600001;stroke-linejoin:bevel;stroke-miterlimit:10"
   x1="321.112"
   y1="344.40799"
   x2="325.43201"
   y2="344.40799"
   id="line491" />
			
				<line
   style="clip-rule:evenodd;fill:none;fill-rule:evenodd;stroke:#ffffff;stroke-width:0.21600001;stroke-linejoin:bevel;stroke-miterlimit:10"
   x1="325.43201"
   y1="368.888"
   x2="321.112"
   y2="368.888"
   id="line493" />
			
				<line
   style="clip-rule:evenodd;fill:none;fill-rule:evenodd;stroke:#ffffff;stroke-width:0.21600001;stroke-linejoin:bevel;stroke-miterlimit:10"
   x1="325.43201"
   y1="347.28799"
   x2="325.43201"
   y2="368.888"
   id="line495" />
			
				<line
   style="clip-rule:evenodd;fill:none;fill-rule:evenodd;stroke:#ffffff;stroke-width:0.21600001;stroke-linejoin:bevel;stroke-miterlimit:10"
   x1="321.112"
   y1="347.28799"
   x2="325.43201"
   y2="347.28799"
   id="line497" />
			
				<line
   style="clip-rule:evenodd;fill:none;fill-rule:evenodd;stroke:#ffffff;stroke-width:0.21600001;stroke-linejoin:bevel;stroke-miterlimit:10"
   x1="321.112"
   y1="368.888"
   x2="321.112"
   y2="347.28799"
   id="line499" />
			
				<line
   style="clip-rule:evenodd;fill:none;fill-rule:evenodd;stroke:#ffffff;stroke-width:0.21600001;stroke-linejoin:bevel;stroke-miterlimit:10"
   x1="349.048"
   y1="340.08801"
   x2="349.048"
   y2="344.40799"
   id="line501" />
			
				<line
   style="clip-rule:evenodd;fill:none;fill-rule:evenodd;stroke:#ffffff;stroke-width:0.21600001;stroke-linejoin:bevel;stroke-miterlimit:10"
   x1="353.36801"
   y1="340.08801"
   x2="349.048"
   y2="340.08801"
   id="line503" />
			
				<line
   style="clip-rule:evenodd;fill:none;fill-rule:evenodd;stroke:#ffffff;stroke-width:0.21600001;stroke-linejoin:bevel;stroke-miterlimit:10"
   x1="353.36801"
   y1="344.40799"
   x2="353.36801"
   y2="340.08801"
   id="line505" />
			
				<line
   style="clip-rule:evenodd;fill:none;fill-rule:evenodd;stroke:#ffffff;stroke-width:0.21600001;stroke-linejoin:bevel;stroke-miterlimit:10"
   x1="349.048"
   y1="344.40799"
   x2="353.36801"
   y2="344.40799"
   id="line507" />
			
				<line
   style="clip-rule:evenodd;fill:none;fill-rule:evenodd;stroke:#ffffff;stroke-width:0.21600001;stroke-linejoin:bevel;stroke-miterlimit:10"
   x1="353.36801"
   y1="368.888"
   x2="349.048"
   y2="368.888"
   id="line509" />
			
				<line
   style="clip-rule:evenodd;fill:none;fill-rule:evenodd;stroke:#ffffff;stroke-width:0.21600001;stroke-linejoin:bevel;stroke-miterlimit:10"
   x1="353.36801"
   y1="347.28799"
   x2="353.36801"
   y2="368.888"
   id="line511" />
			
				<line
   style="clip-rule:evenodd;fill:none;fill-rule:evenodd;stroke:#ffffff;stroke-width:0.21600001;stroke-linejoin:bevel;stroke-miterlimit:10"
   x1="349.048"
   y1="347.28799"
   x2="353.36801"
   y2="347.28799"
   id="line513" />
			
				<line
   style="clip-rule:evenodd;fill:none;fill-rule:evenodd;stroke:#ffffff;stroke-width:0.21600001;stroke-linejoin:bevel;stroke-miterlimit:10"
   x1="349.048"
   y1="368.888"
   x2="349.048"
   y2="347.28799"
   id="line515" />
			
				<polygon
   style="clip-rule:evenodd;fill:#ffffff;fill-rule:evenodd;stroke:#ffffff;stroke-width:0.21600001;stroke-linejoin:bevel;stroke-miterlimit:10"
   points="325.216,344.408 325.216,340.088 325.216,340.088 320.896,340.088 320.896,340.088 320.896,344.408 325.216,344.408 "
   id="polygon517" />
			
				<polygon
   style="clip-rule:evenodd;fill:#ffffff;fill-rule:evenodd;stroke:#ffffff;stroke-width:0.21600001;stroke-linejoin:bevel;stroke-miterlimit:10"
   points="320.896,347.288 325.216,347.288 325.216,347.288 325.216,368.888 325.216,368.888 320.896,368.888 320.896,347.288 "
   id="polygon519" />
			
				<polygon
   style="clip-rule:evenodd;fill:#ffffff;fill-rule:evenodd;stroke:#ffffff;stroke-width:0.21600001;stroke-linejoin:bevel;stroke-miterlimit:10"
   points="353.296,344.408 353.296,340.088 353.296,340.088 348.976,340.088 348.976,340.088 348.976,344.408 353.296,344.408 "
   id="polygon521" />
			
				<polygon
   style="clip-rule:evenodd;fill:#ffffff;fill-rule:evenodd;stroke:#ffffff;stroke-width:0.21600001;stroke-linejoin:bevel;stroke-miterlimit:10"
   points="348.976,347.288 353.296,347.288 353.296,347.288 353.296,368.888 353.296,368.888 348.976,368.888 348.976,347.288 "
   id="polygon523" />
			
				<polygon
   style="clip-rule:evenodd;fill:#ffffff;fill-rule:evenodd;stroke:#ffffff;stroke-width:0.21600001;stroke-linejoin:bevel;stroke-miterlimit:10"
   points="235.576,347.288 239.896,347.288 239.896,347.288 239.896,368.888 239.896,368.888 235.576,368.888 235.576,347.288 "
   id="polygon525" />
		</g>
		
			<rect
   x="109.576"
   y="385.08801"
   style="clip-rule:evenodd;fill:none;fill-rule:evenodd;stroke:#f6ec13;stroke-width:0;stroke-linejoin:bevel;stroke-miterlimit:10"
   width="0"
   height="0"
   id="rect529" />
		
			<rect
   x="109.576"
   y="385.08801"
   style="clip-rule:evenodd;fill:none;fill-rule:evenodd;stroke:#f6ec13;stroke-width:0;stroke-linejoin:bevel;stroke-miterlimit:10"
   width="0"
   height="0"
   id="rect531" />
		<g
   id="g535">
			<polygon
   style="clip-rule:evenodd;fill:#ffffff;fill-rule:evenodd"
   points="177.616,385.088 109.576,385.088 109.576,317.192 177.616,317.192 "
   id="polygon533" />
		</g>
		<path
   style="clip-rule:evenodd;fill:#7c3a00;fill-rule:evenodd"
   d="m 145.864,354.128 v -7.776 c -0.144,-3.384 0.72,-6.84 2.592,-9.72 4.248,-4.608 10.368,-7.056 16.632,-6.696 1.728,-0.144 3.384,0.36 4.68,1.44 1.296,1.08 2.16,2.664 2.304,4.32 0.648,4.104 -0.36,8.352 -2.808,11.664 -3.6,4.32 -8.928,6.84 -14.544,6.768 z"
   id="path537"
   inkscape:connector-curvature="0" />
		<g
   id="g541">
			<path
   style="clip-rule:evenodd;fill:#7c3a00;fill-rule:evenodd"
   d="m 145.864,357.152 h 4.68 c 2.088,0 4.104,0.216 6.12,0.72 2.592,0.792 4.896,2.304 6.624,4.392 0.936,1.368 1.656,2.88 2.016,4.536 0.36,1.512 0.36,3.096 0.072,4.536 -0.144,1.368 -0.936,2.52 -2.16,3.168 -0.936,0.432 -1.944,0.648 -3.024,0.72 -1.008,0.072 -2.088,0.072 -3.096,0 -1.728,-0.216 -3.456,-0.72 -5.112,-1.512 -1.872,-0.72 -3.528,-2.088 -4.608,-3.888 -0.648,-1.008 -1.08,-2.16 -1.296,-3.384 -0.144,-0.864 -0.216,-1.728 -0.216,-2.592 z"
   id="path539"
   inkscape:connector-curvature="0" />
		</g>
		<path
   style="clip-rule:evenodd;fill:#7c3a00;fill-rule:evenodd"
   d="m 141.328,354.128 v -7.776 c 0.144,-3.384 -0.72,-6.84 -2.664,-9.72 -4.176,-4.608 -10.296,-7.056 -16.56,-6.696 -1.728,-0.144 -3.384,0.36 -4.68,1.44 -1.368,1.08 -2.16,2.664 -2.304,4.32 -0.72,4.104 0.36,8.352 2.808,11.664 3.6,4.32 8.928,6.84 14.472,6.768 z"
   id="path543"
   inkscape:connector-curvature="0" />
		<g
   id="g547">
			<path
   style="clip-rule:evenodd;fill:#7c3a00;fill-rule:evenodd"
   d="m 141.328,357.152 h -4.68 c -2.088,0 -4.176,0.216 -6.12,0.72 -2.592,0.792 -4.896,2.304 -6.624,4.392 -1.008,1.368 -1.656,2.88 -2.016,4.536 -0.36,1.512 -0.432,3.096 -0.144,4.536 0.216,1.368 1.008,2.52 2.232,3.168 0.936,0.432 1.944,0.648 3.024,0.72 1.008,0.072 2.016,0.072 3.096,0 1.728,-0.216 3.456,-0.72 5.04,-1.512 1.944,-0.72 3.6,-2.088 4.68,-3.888 0.648,-1.008 1.08,-2.16 1.296,-3.384 0.144,-0.864 0.216,-1.728 0.216,-2.592 z"
   id="path545"
   inkscape:connector-curvature="0" />
		</g>
		<g
   id="g551">
			<polygon
   style="clip-rule:evenodd;fill:#ffffff;fill-rule:evenodd"
   points="206.056,436.064 240.112,436.064 240.112,419.144 262.792,441.68 240.112,464.36 240.112,447.368 217.432,447.368 217.432,475.736 206.056,475.736 "
   id="polygon549" />
		</g>
	</g>
</g>
</svg>