<?xml version="1.0" encoding="iso-8859-1"?>
<!-- Generator: Adobe Illustrator 15.1.0, SVG Export Plug-In . SVG Version: 6.00 Build 0)  -->
<!DOCTYPE svg PUBLIC "-//W3C//DTD SVG 1.1//EN" "http://www.w3.org/Graphics/SVG/1.1/DTD/svg11.dtd">
<svg version="1.1" xmlns="http://www.w3.org/2000/svg" xmlns:xlink="http://www.w3.org/1999/xlink" x="0px" y="0px" width="595px"
	 height="842px" viewBox="0 0 595 842" style="enable-background:new 0 0 595 842;" xml:space="preserve">
<g id="Layer_3">
</g>
<g id="Layer_1">
</g>
<g id="AME_x5F_FRZ">
</g>
<g id="kuva">
</g>
<g id="_x33_">
</g>
<g id="MITAT">
</g>
<g id="Layer_2">
	<g>
		
			<rect x="88.192" y="300.128" style="fill-rule:evenodd;clip-rule:evenodd;fill:#7C3A00;stroke:#000000;stroke-width:0.216;stroke-miterlimit:10;" width="288.36" height="101.952"/>
		<g>
			<polygon style="fill-rule:evenodd;clip-rule:evenodd;fill:#7C3A00;" points="88.264,402.08 375.976,402.08 375.976,492.728 
				88.264,492.728 88.264,402.08 			"/>
			
				<polyline style="fill-rule:evenodd;clip-rule:evenodd;fill:none;stroke:#733907;stroke-width:1.0001;stroke-linejoin:bevel;stroke-miterlimit:10;" points="
				88.264,402.08 375.976,402.08 375.976,492.728 88.264,492.728 88.264,402.08 			"/>
		</g>
		<g>
			<path style="fill-rule:evenodd;clip-rule:evenodd;fill:#FFFFFF;" d="M96.832,300.56h270.576c4.752,0,8.568,3.816,8.568,8.496
				v84.6c0,4.68-3.816,8.424-8.568,8.424H96.832c-4.752,0-8.568-3.744-8.568-8.424v-84.6C88.264,304.376,92.08,300.56,96.832,300.56
				L96.832,300.56z"/>
			
				<path style="fill-rule:evenodd;clip-rule:evenodd;fill:none;stroke:#733907;stroke-width:1.0001;stroke-linejoin:bevel;stroke-miterlimit:10;" d="
				M96.832,300.56h270.576c4.752,0,8.568,3.816,8.568,8.496v84.6c0,4.68-3.816,8.424-8.568,8.424H96.832
				c-4.752,0-8.568-3.744-8.568-8.424v-84.6C88.264,304.376,92.08,300.56,96.832,300.56"/>
		</g>
		<g>
			<path style="fill-rule:evenodd;clip-rule:evenodd;fill:#7C3A00;" d="M96.832,304.304h270.576c2.376,0,4.32,1.944,4.32,4.248
				v85.032c0,2.376-1.944,4.248-4.32,4.248H96.832c-2.376,0-4.248-1.872-4.248-4.248v-85.032
				C92.584,306.248,94.456,304.304,96.832,304.304L96.832,304.304z"/>
		</g>
		<g>
			<path style="fill-rule:evenodd;clip-rule:evenodd;fill:#FFFFFF;" d="M96.832,402.08h270.576c4.752,0,8.568,3.816,8.568,8.568
				v73.584c0,4.68-3.816,8.496-8.568,8.496H96.832c-4.752,0-8.568-3.816-8.568-8.496v-73.584
				C88.264,405.896,92.08,402.08,96.832,402.08L96.832,402.08z"/>
			
				<path style="fill-rule:evenodd;clip-rule:evenodd;fill:none;stroke:#733907;stroke-width:1.0001;stroke-linejoin:bevel;stroke-miterlimit:10;" d="
				M96.832,402.08h270.576c4.752,0,8.568,3.816,8.568,8.568v73.584c0,4.68-3.816,8.496-8.568,8.496H96.832
				c-4.752,0-8.568-3.816-8.568-8.496v-73.584C88.264,405.896,92.08,402.08,96.832,402.08"/>
		</g>
		<g>
			<path style="fill-rule:evenodd;clip-rule:evenodd;fill:#7C3A00;" d="M96.832,406.328h270.576c2.376,0,4.32,1.944,4.32,4.32
				v73.584c0,2.376-1.944,4.248-4.32,4.248H96.832c-2.376,0-4.248-1.872-4.248-4.248v-73.584
				C92.584,408.272,94.456,406.328,96.832,406.328L96.832,406.328z"/>
		</g>
		<g>
			
				<polygon style="fill-rule:evenodd;clip-rule:evenodd;fill:#FFFFFF;stroke:#FFFFFF;stroke-width:0.216;stroke-linejoin:bevel;stroke-miterlimit:10;" points="
				235.576,344.408 239.896,344.408 239.896,344.408 239.896,340.088 239.896,340.088 235.576,340.088 235.576,340.088 
				235.576,344.408 			"/>
			
				<polygon style="fill-rule:evenodd;clip-rule:evenodd;fill:#FFFFFF;stroke:#FFFFFF;stroke-width:0.216;stroke-linejoin:bevel;stroke-miterlimit:10;" points="
				215.128,368.888 219.448,368.888 219.448,368.888 219.448,340.088 219.448,340.088 215.128,340.088 215.128,340.088 
				215.128,351.608 215.128,351.608 205.048,351.608 205.048,351.608 205.048,340.088 205.048,340.088 200.728,340.088 
				200.728,340.088 200.728,368.888 200.728,368.888 205.048,368.888 205.048,368.888 205.048,355.928 205.048,355.928 
				215.128,355.928 215.128,355.928 215.128,368.888 			"/>
			
				<polygon style="fill-rule:evenodd;clip-rule:evenodd;fill:#FFFFFF;stroke:#FFFFFF;stroke-width:0.216;stroke-linejoin:bevel;stroke-miterlimit:10;" points="
				225.208,344.408 229.528,344.408 229.528,344.408 229.528,340.088 229.528,340.088 225.208,340.088 225.208,340.088 
				225.208,344.408 			"/>
			
				<polygon style="fill-rule:evenodd;clip-rule:evenodd;fill:#FFFFFF;stroke:#FFFFFF;stroke-width:0.216;stroke-linejoin:bevel;stroke-miterlimit:10;" points="
				225.208,368.888 225.208,347.288 225.208,347.288 229.528,347.288 229.528,347.288 229.528,368.888 229.528,368.888 
				225.208,368.888 			"/>
			
				<path style="fill-rule:evenodd;clip-rule:evenodd;fill:#FFFFFF;stroke:#FFFFFF;stroke-width:0.216;stroke-linejoin:bevel;stroke-miterlimit:10;" d="
				M254.872,368.888h4.32l0,0v-28.8l0,0h-4.32l0,0v8.856l0,0c-0.432-0.288-0.864-0.504-1.296-0.648l0,0l-1.728-0.648l0,0
				c-1.584-0.648-3.384-0.432-4.752,0.504c-1.44,1.008-2.304,2.592-2.304,4.32l0,0v11.232l0,0c0,1.512,0.648,2.88,1.8,3.888
				c1.08,1.008,2.592,1.44,4.032,1.224l-0.72,0.072c1.728,0,3.456-0.504,4.968-1.368l0,0V368.888v-6.048v-9.216l0,0
				c0-1.584-1.296-2.88-2.88-2.88s-2.88,1.296-2.88,2.88l0,0v9.216l0,0c0,1.008,0.576,2.016,1.44,2.52
				c0.936,0.504,2.016,0.504,2.88,0c0.936-0.504,1.44-1.512,1.44-2.52V368.888z"/>
			
				<path style="fill-rule:evenodd;clip-rule:evenodd;fill:#FFFFFF;stroke:#FFFFFF;stroke-width:0.216;stroke-linejoin:bevel;stroke-miterlimit:10;" d="
				M274.024,354.776h-5.472l0,0h-0.144l0,0c-0.072-1.08,0.432-2.16,1.368-2.736s2.088-0.576,3.024,0s1.44,1.656,1.368,2.736l0,0
				H274.024l4.464-0.288c0-3.96-3.24-7.2-7.2-7.2s-7.2,3.24-7.2,7.2l0,0v7.2l0,0c0,2.592,1.368,4.968,3.6,6.264s4.968,1.296,7.2,0
				s3.6-3.672,3.6-6.264l0,0h-4.32l0,0c0,1.008-0.504,2.016-1.44,2.52c-0.864,0.504-2.016,0.504-2.88,0
				c-0.864-0.504-1.44-1.512-1.44-2.52l0,0v-3.168l0,0h0.144l0,0h9.936l0,0v-4.032L274.024,354.776z"/>
			
				<path style="fill-rule:evenodd;clip-rule:evenodd;fill:#FFFFFF;stroke:#FFFFFF;stroke-width:0.216;stroke-linejoin:bevel;stroke-miterlimit:10;" d="
				M283.744,368.888h4.32l0,0v-15.264l0,0c0-1.584,1.224-2.88,2.88-2.88c1.584,0,2.88,1.296,2.88,2.88l0,0v15.264l0,0h4.32l0,0
				V352.76l0,0c0-3.024-2.448-5.472-5.472-5.472l0,0h-1.224l0,0c-1.224,0.216-2.376,0.576-3.384,1.152l0,0v-1.152l0,0h-4.32l0,0
				V368.888L283.744,368.888z"/>
			
				<polygon style="fill-rule:evenodd;clip-rule:evenodd;fill:#FFFFFF;stroke:#FFFFFF;stroke-width:0.216;stroke-linejoin:bevel;stroke-miterlimit:10;" points="
				303.256,368.888 307.576,368.888 307.576,368.888 307.576,363.128 307.576,363.128 309.808,359.672 309.808,359.672 
				313.048,368.888 313.048,368.888 317.656,368.888 317.656,368.888 312.832,355.064 312.832,355.064 317.656,347.576 
				317.656,347.576 312.472,347.576 312.472,347.576 308.008,354.488 308.008,354.488 307.576,355.208 307.576,355.208 
				307.576,340.088 307.576,340.088 303.256,340.088 303.256,340.088 303.256,368.888 			"/>
			
				<polygon style="fill-rule:evenodd;clip-rule:evenodd;fill:#FFFFFF;stroke:#FFFFFF;stroke-width:0.216;stroke-linejoin:bevel;stroke-miterlimit:10;" points="
				335.224,368.888 339.544,368.888 339.544,368.888 345.304,347.288 345.304,347.288 340.984,347.288 340.984,347.288 
				337.384,360.752 337.384,360.752 333.784,347.288 333.784,347.288 329.464,347.288 329.464,347.288 335.224,368.888 			"/>
			
				<line style="fill-rule:evenodd;clip-rule:evenodd;fill:none;stroke:#FFFFFF;stroke-width:0.216;stroke-linejoin:bevel;stroke-miterlimit:10;" x1="321.112" y1="340.088" x2="321.112" y2="344.408"/>
			
				<line style="fill-rule:evenodd;clip-rule:evenodd;fill:none;stroke:#FFFFFF;stroke-width:0.216;stroke-linejoin:bevel;stroke-miterlimit:10;" x1="325.432" y1="340.088" x2="321.112" y2="340.088"/>
			
				<line style="fill-rule:evenodd;clip-rule:evenodd;fill:none;stroke:#FFFFFF;stroke-width:0.216;stroke-linejoin:bevel;stroke-miterlimit:10;" x1="325.432" y1="344.408" x2="325.432" y2="340.088"/>
			
				<line style="fill-rule:evenodd;clip-rule:evenodd;fill:none;stroke:#FFFFFF;stroke-width:0.216;stroke-linejoin:bevel;stroke-miterlimit:10;" x1="321.112" y1="344.408" x2="325.432" y2="344.408"/>
			
				<line style="fill-rule:evenodd;clip-rule:evenodd;fill:none;stroke:#FFFFFF;stroke-width:0.216;stroke-linejoin:bevel;stroke-miterlimit:10;" x1="325.432" y1="368.888" x2="321.112" y2="368.888"/>
			
				<line style="fill-rule:evenodd;clip-rule:evenodd;fill:none;stroke:#FFFFFF;stroke-width:0.216;stroke-linejoin:bevel;stroke-miterlimit:10;" x1="325.432" y1="347.288" x2="325.432" y2="368.888"/>
			
				<line style="fill-rule:evenodd;clip-rule:evenodd;fill:none;stroke:#FFFFFF;stroke-width:0.216;stroke-linejoin:bevel;stroke-miterlimit:10;" x1="321.112" y1="347.288" x2="325.432" y2="347.288"/>
			
				<line style="fill-rule:evenodd;clip-rule:evenodd;fill:none;stroke:#FFFFFF;stroke-width:0.216;stroke-linejoin:bevel;stroke-miterlimit:10;" x1="321.112" y1="368.888" x2="321.112" y2="347.288"/>
			
				<line style="fill-rule:evenodd;clip-rule:evenodd;fill:none;stroke:#FFFFFF;stroke-width:0.216;stroke-linejoin:bevel;stroke-miterlimit:10;" x1="349.048" y1="340.088" x2="349.048" y2="344.408"/>
			
				<line style="fill-rule:evenodd;clip-rule:evenodd;fill:none;stroke:#FFFFFF;stroke-width:0.216;stroke-linejoin:bevel;stroke-miterlimit:10;" x1="353.368" y1="340.088" x2="349.048" y2="340.088"/>
			
				<line style="fill-rule:evenodd;clip-rule:evenodd;fill:none;stroke:#FFFFFF;stroke-width:0.216;stroke-linejoin:bevel;stroke-miterlimit:10;" x1="353.368" y1="344.408" x2="353.368" y2="340.088"/>
			
				<line style="fill-rule:evenodd;clip-rule:evenodd;fill:none;stroke:#FFFFFF;stroke-width:0.216;stroke-linejoin:bevel;stroke-miterlimit:10;" x1="349.048" y1="344.408" x2="353.368" y2="344.408"/>
			
				<line style="fill-rule:evenodd;clip-rule:evenodd;fill:none;stroke:#FFFFFF;stroke-width:0.216;stroke-linejoin:bevel;stroke-miterlimit:10;" x1="353.368" y1="368.888" x2="349.048" y2="368.888"/>
			
				<line style="fill-rule:evenodd;clip-rule:evenodd;fill:none;stroke:#FFFFFF;stroke-width:0.216;stroke-linejoin:bevel;stroke-miterlimit:10;" x1="353.368" y1="347.288" x2="353.368" y2="368.888"/>
			
				<line style="fill-rule:evenodd;clip-rule:evenodd;fill:none;stroke:#FFFFFF;stroke-width:0.216;stroke-linejoin:bevel;stroke-miterlimit:10;" x1="349.048" y1="347.288" x2="353.368" y2="347.288"/>
			
				<line style="fill-rule:evenodd;clip-rule:evenodd;fill:none;stroke:#FFFFFF;stroke-width:0.216;stroke-linejoin:bevel;stroke-miterlimit:10;" x1="349.048" y1="368.888" x2="349.048" y2="347.288"/>
			
				<polygon style="fill-rule:evenodd;clip-rule:evenodd;fill:#FFFFFF;stroke:#FFFFFF;stroke-width:0.216;stroke-linejoin:bevel;stroke-miterlimit:10;" points="
				320.896,344.408 325.216,344.408 325.216,344.408 325.216,340.088 325.216,340.088 320.896,340.088 320.896,340.088 
				320.896,344.408 			"/>
			
				<polygon style="fill-rule:evenodd;clip-rule:evenodd;fill:#FFFFFF;stroke:#FFFFFF;stroke-width:0.216;stroke-linejoin:bevel;stroke-miterlimit:10;" points="
				320.896,368.888 320.896,347.288 320.896,347.288 325.216,347.288 325.216,347.288 325.216,368.888 325.216,368.888 
				320.896,368.888 			"/>
			
				<polygon style="fill-rule:evenodd;clip-rule:evenodd;fill:#FFFFFF;stroke:#FFFFFF;stroke-width:0.216;stroke-linejoin:bevel;stroke-miterlimit:10;" points="
				348.976,344.408 353.296,344.408 353.296,344.408 353.296,340.088 353.296,340.088 348.976,340.088 348.976,340.088 
				348.976,344.408 			"/>
			
				<polygon style="fill-rule:evenodd;clip-rule:evenodd;fill:#FFFFFF;stroke:#FFFFFF;stroke-width:0.216;stroke-linejoin:bevel;stroke-miterlimit:10;" points="
				348.976,368.888 348.976,347.288 348.976,347.288 353.296,347.288 353.296,347.288 353.296,368.888 353.296,368.888 
				348.976,368.888 			"/>
			
				<polygon style="fill-rule:evenodd;clip-rule:evenodd;fill:#FFFFFF;stroke:#FFFFFF;stroke-width:0.216;stroke-linejoin:bevel;stroke-miterlimit:10;" points="
				235.576,368.888 235.576,347.288 235.576,347.288 239.896,347.288 239.896,347.288 239.896,368.888 239.896,368.888 
				235.576,368.888 			"/>
		</g>
		
			<rect x="109.576" y="385.088" style="fill-rule:evenodd;clip-rule:evenodd;fill:none;stroke:#F6EC13;stroke-width:0;stroke-linejoin:bevel;stroke-miterlimit:10;" width="0" height="0"/>
		
			<rect x="109.576" y="385.088" style="fill-rule:evenodd;clip-rule:evenodd;fill:none;stroke:#F6EC13;stroke-width:0;stroke-linejoin:bevel;stroke-miterlimit:10;" width="0" height="0"/>
		<g>
			<polygon style="fill-rule:evenodd;clip-rule:evenodd;fill:#FFFFFF;" points="109.576,317.192 177.616,317.192 177.616,385.088 
				109.576,385.088 109.576,317.192 			"/>
		</g>
		<path style="fill-rule:evenodd;clip-rule:evenodd;fill:#7C3A00;" d="M145.864,354.128v-7.776c-0.144-3.384,0.72-6.84,2.592-9.72
			c4.248-4.608,10.368-7.056,16.632-6.696c1.728-0.144,3.384,0.36,4.68,1.44s2.16,2.664,2.304,4.32
			c0.648,4.104-0.36,8.352-2.808,11.664c-3.6,4.32-8.928,6.84-14.544,6.768H145.864L145.864,354.128z"/>
		<g>
			<path style="fill-rule:evenodd;clip-rule:evenodd;fill:#7C3A00;" d="M145.864,357.152h4.68c2.088,0,4.104,0.216,6.12,0.72
				c2.592,0.792,4.896,2.304,6.624,4.392c0.936,1.368,1.656,2.88,2.016,4.536c0.36,1.512,0.36,3.096,0.072,4.536
				c-0.144,1.368-0.936,2.52-2.16,3.168c-0.936,0.432-1.944,0.648-3.024,0.72c-1.008,0.072-2.088,0.072-3.096,0
				c-1.728-0.216-3.456-0.72-5.112-1.512c-1.872-0.72-3.528-2.088-4.608-3.888c-0.648-1.008-1.08-2.16-1.296-3.384
				c-0.144-0.864-0.216-1.728-0.216-2.592V357.152L145.864,357.152z"/>
		</g>
		<path style="fill-rule:evenodd;clip-rule:evenodd;fill:#7C3A00;" d="M141.328,354.128v-7.776c0.144-3.384-0.72-6.84-2.664-9.72
			c-4.176-4.608-10.296-7.056-16.56-6.696c-1.728-0.144-3.384,0.36-4.68,1.44c-1.368,1.08-2.16,2.664-2.304,4.32
			c-0.72,4.104,0.36,8.352,2.808,11.664c3.6,4.32,8.928,6.84,14.472,6.768H141.328L141.328,354.128z"/>
		<g>
			<path style="fill-rule:evenodd;clip-rule:evenodd;fill:#7C3A00;" d="M141.328,357.152h-4.68c-2.088,0-4.176,0.216-6.12,0.72
				c-2.592,0.792-4.896,2.304-6.624,4.392c-1.008,1.368-1.656,2.88-2.016,4.536c-0.36,1.512-0.432,3.096-0.144,4.536
				c0.216,1.368,1.008,2.52,2.232,3.168c0.936,0.432,1.944,0.648,3.024,0.72c1.008,0.072,2.016,0.072,3.096,0
				c1.728-0.216,3.456-0.72,5.04-1.512c1.944-0.72,3.6-2.088,4.68-3.888c0.648-1.008,1.08-2.16,1.296-3.384
				c0.144-0.864,0.216-1.728,0.216-2.592V357.152L141.328,357.152z"/>
		</g>
		<g>
			<polygon style="fill-rule:evenodd;clip-rule:evenodd;fill:#FFFFFF;" points="217.432,475.736 206.056,475.736 206.056,436.064 
				240.112,436.064 240.112,419.144 262.792,441.68 240.112,464.36 240.112,447.368 217.432,447.368 217.432,475.736 
				217.432,475.736 			"/>
		</g>
	</g>
</g>
</svg>
