<?xml version="1.0" encoding="iso-8859-1"?>
<!-- Generator: Adobe Illustrator 15.1.0, SVG Export Plug-In . SVG Version: 6.00 Build 0)  -->
<!DOCTYPE svg PUBLIC "-//W3C//DTD SVG 1.1//EN" "http://www.w3.org/Graphics/SVG/1.1/DTD/svg11.dtd">
<svg version="1.1" id="Layer_1" xmlns="http://www.w3.org/2000/svg" xmlns:xlink="http://www.w3.org/1999/xlink" x="0px" y="0px"
	 width="595px" height="842px" viewBox="0 0 595 842" style="enable-background:new 0 0 595 842;" xml:space="preserve">
<g>
	
		<rect x="61.12" y="145.4" style="fill-rule:evenodd;clip-rule:evenodd;fill:#0079C1;stroke:#0079C1;stroke-width:2.0044;stroke-miterlimit:10;" width="465.624" height="545.112"/>
	<polygon style="fill-rule:evenodd;clip-rule:evenodd;fill:#FFFFFF;" points="61.12,166.64 61.552,161.6 63.424,156.992 
		68.032,150.944 72.136,148.208 77.248,146.336 82.288,145.4 506.008,145.4 511.048,146.336 515.656,148.208 521.2,152.816 
		524.008,156.488 525.808,161.096 526.744,166.208 526.744,669.272 525.808,674.312 523.072,681.224 519.328,685.4 515.224,688.136 
		510.616,690.008 505.504,690.512 82.288,690.512 77.248,690.008 72.136,688.136 68.032,685.4 64.792,681.224 62.488,677.12 
		61.12,672.008 61.12,667.4 	"/>
	<polygon style="fill-rule:evenodd;clip-rule:evenodd;fill:#0079C1;" points="71.704,166.64 72.136,162.968 74.008,159.728 
		76.816,157.424 80.488,156.056 505.504,156.056 509.176,156.992 513.352,159.728 515.656,164.84 516.16,166.64 516.16,669.272 
		515.224,672.944 512.416,677.552 509.176,679.424 505.504,679.856 82.288,679.856 78.616,679.424 75.376,677.552 73.072,674.816 
		71.704,671.072 	"/>
	<rect x="174.664" y="216.968" style="fill-rule:evenodd;clip-rule:evenodd;fill:#FFFFFF;" width="238.104" height="238.104"/>
	<g>
		<polygon style="fill-rule:evenodd;clip-rule:evenodd;fill:#FFFFFF;" points="211.528,619.88 226.792,619.88 235.072,608.288 
			240.184,599.576 244.36,590.288 246.664,580.136 247.096,575.528 247.096,560.336 246.16,555.224 243.856,550.184 240.616,546.44 
			236.008,543.2 231.4,540.896 223.552,540.464 216.208,542.336 211.528,545.576 207.856,549.248 204.616,556.16 203.68,561.2 
			203.68,568.184 206.056,575.528 211.096,581.576 215.272,584.744 220.312,586.616 228.16,587.048 233.272,585.68 230.464,593.096 
			226.792,600.44 221.68,606.92 		"/>
		<polygon style="fill-rule:evenodd;clip-rule:evenodd;fill:#007AC2;" points="226.36,552.488 230.968,553.856 235.072,559.4 
			235.072,567.248 232.768,571.856 227.224,575.096 221.68,574.592 217.576,571.856 215.272,567.248 215.272,561.2 217.072,556.592 
			221.248,552.92 224.488,552.488 		"/>
		<polygon style="fill-rule:evenodd;clip-rule:evenodd;fill:#FFFFFF;" points="288.64,539.528 291.448,540.032 298.72,542.336 
			304.264,547.376 307.504,554.288 308.44,562.64 307.504,568.184 305.2,573.728 303.328,576.032 307.936,582.008 310.24,588.92 
			310.24,597.272 309.808,602.312 307.936,607.424 302.896,613.832 296.488,617.576 290.008,618.944 283.6,618.44 278.488,616.64 
			274.312,613.832 270.64,609.728 267.4,602.312 266.968,597.272 266.968,588.92 268.336,584.312 270.64,579.704 273.88,576.032 
			270.64,570.92 269.272,565.376 268.768,559.4 270.208,551.984 272.944,547.376 276.616,543.704 281.224,541.4 286.336,540.032 		
			"/>
		<polygon style="fill-rule:evenodd;clip-rule:evenodd;fill:#007AC2;" points="288.64,551.552 291.88,551.984 295.12,555.224 
			296.488,559.4 296.056,565.88 293.248,569.552 287.272,570.488 284.464,569.552 282.16,567.248 280.792,562.64 280.792,558.032 
			282.16,555.224 284.464,552.92 		"/>
		<polygon style="fill-rule:evenodd;clip-rule:evenodd;fill:#007AC2;" points="288.64,581.576 293.752,582.944 297.856,588.488 
			298.36,599.072 295.12,604.616 288.64,607.424 283.6,605.984 280.36,602.312 278.92,597.272 278.92,589.856 281.224,585.248 
			285.4,582.44 290.512,582.008 		"/>
		<polygon style="fill-rule:evenodd;clip-rule:evenodd;fill:#FFFFFF;" points="330.112,633.704 341.2,616.64 342.136,612.896 
			340.696,609.728 337.528,607.856 333.352,608.288 331.48,610.16 330.112,613.4 		"/>
		<polygon style="fill-rule:evenodd;clip-rule:evenodd;fill:#FFFFFF;" points="372.088,618.944 384.112,618.944 384.112,539.528 
			372.088,539.528 369.784,544.136 366.544,548.312 361.936,551.048 363.376,559.4 372.088,558.032 		"/>
	</g>
	<g>
		<polygon style="fill-rule:evenodd;clip-rule:evenodd;" points="185.248,375.728 185.248,296.384 212.464,296.384 217.576,296.816 
			224.488,300.056 229.528,306.032 232.336,312.944 232.768,320.792 231.904,326.336 227.728,333.32 223.552,336.488 
			218.944,339.296 232.768,375.728 220.312,375.728 206.056,338.792 197.272,338.792 197.272,375.728 		"/>
		<polygon style="fill-rule:evenodd;clip-rule:evenodd;fill:#FFFFFF;" points="197.272,308.336 212.464,308.336 217.072,309.776 
			220.312,313.448 220.816,319.928 220.312,323.096 217.072,326.84 212.464,328.208 197.272,328.208 		"/>
		<polygon style="fill-rule:evenodd;clip-rule:evenodd;" points="242.92,334.184 254.944,334.184 256.312,330.08 260.056,328.208 
			262.792,328.208 265.6,329.576 267.4,331.88 267.4,340.232 261.856,341.168 257.248,342.536 251.272,345.272 245.728,349.448 
			241.12,354.992 240.184,359.6 240.616,367.016 244.36,372.992 249.904,375.728 255.88,375.296 261.856,373.928 267.4,371.624 
			267.4,375.728 278.92,375.728 278.92,330.512 276.184,324.032 272.944,320.36 266.464,316.688 261.856,316.184 256.816,316.688 
			252.208,318.488 248.464,321.296 244.36,327.272 		"/>
		<polygon style="fill-rule:evenodd;clip-rule:evenodd;fill:#FFFFFF;" points="267.4,347.144 267.4,363.272 258.616,366.512 
			254.512,366.512 252.64,364.208 251.704,360.968 253.072,356.792 254.944,353.624 258.616,350.384 261.424,349.016 		"/>
		<polygon style="fill-rule:evenodd;clip-rule:evenodd;" points="316.288,320.792 316.288,296.384 328.24,296.384 328.24,375.728 
			316.288,375.728 316.288,372.056 310.744,374.36 302.392,375.728 298.36,375.296 294.616,373.424 291.88,370.688 289.576,367.448 
			288.64,363.272 288.64,328.64 289.576,324.968 293.248,319.928 296.488,317.624 301.96,316.184 306.136,316.688 312.544,318.992 
					"/>
		<polygon style="fill-rule:evenodd;clip-rule:evenodd;fill:#FFFFFF;" points="308.44,325.904 311.176,326.336 313.984,328.208 
			316.288,332.384 316.288,360.536 313.984,364.64 309.808,367.016 305.2,366.512 301.528,363.272 300.592,360.536 300.592,332.384 
			302.392,328.208 305.2,326.336 		"/>
		<rect x="340.264" y="316.184" style="fill-rule:evenodd;clip-rule:evenodd;" width="11.52" height="59.544"/>
		<rect x="340.264" y="296.384" style="fill-rule:evenodd;clip-rule:evenodd;" width="11.52" height="11.952"/>
		<polygon style="fill-rule:evenodd;clip-rule:evenodd;" points="382.24,316.184 390.088,317.624 396.568,322.232 400.744,328.64 
			402.112,333.32 402.112,358.664 399.808,366.08 394.768,371.624 387.784,375.296 382.24,375.728 377.2,375.296 370.288,371.624 
			365.176,366.08 362.872,358.664 362.44,355.928 362.44,336.056 363.376,330.944 365.176,326.336 370.288,320.36 377.2,317.12 		
			"/>
		<polygon style="fill-rule:evenodd;clip-rule:evenodd;fill:#FFFFFF;" points="384.112,328.208 388.288,330.512 390.592,336.056 
			390.592,355.928 389.224,360.536 385.48,363.272 382.24,363.776 379.504,363.272 375.832,360.536 374.896,357.296 
			374.392,336.056 375.832,331.448 379.504,328.64 		"/>
	</g>
</g>
</svg>
