<?xml version="1.0" encoding="UTF-8" standalone="no"?>
<!-- Generator: Adobe Illustrator 15.1.0, SVG Export Plug-In . SVG Version: 6.00 Build 0)  -->

<svg
   xmlns:dc="http://purl.org/dc/elements/1.1/"
   xmlns:cc="http://creativecommons.org/ns#"
   xmlns:rdf="http://www.w3.org/1999/02/22-rdf-syntax-ns#"
   xmlns:svg="http://www.w3.org/2000/svg"
   xmlns="http://www.w3.org/2000/svg"
   xmlns:sodipodi="http://sodipodi.sourceforge.net/DTD/sodipodi-0.dtd"
   xmlns:inkscape="http://www.inkscape.org/namespaces/inkscape"
   version="1.1"
   id="Layer_1"
   x="0px"
   y="0px"
   width="466.0481"
   height="381.44809"
   viewBox="0 0 466.0481 381.44809"
   xml:space="preserve"
   sodipodi:docname="712.svg"
   inkscape:version="0.92.5 (2060ec1f9f, 2020-04-08)"><metadata
   id="metadata683"><rdf:RDF><cc:Work
       rdf:about=""><dc:format>image/svg+xml</dc:format><dc:type
         rdf:resource="http://purl.org/dc/dcmitype/StillImage" /></cc:Work></rdf:RDF></metadata><defs
   id="defs681" /><sodipodi:namedview
   pagecolor="#ffffff"
   bordercolor="#666666"
   borderopacity="1"
   objecttolerance="10"
   gridtolerance="10"
   guidetolerance="10"
   inkscape:pageopacity="0"
   inkscape:pageshadow="2"
   inkscape:window-width="640"
   inkscape:window-height="480"
   id="namedview679"
   showgrid="false"
   inkscape:zoom="0.28028504"
   inkscape:cx="220.75205"
   inkscape:cy="188.94005"
   inkscape:window-x="0"
   inkscape:window-y="0"
   inkscape:window-maximized="0"
   inkscape:current-layer="Layer_1" />
<g
   id="g676"
   transform="translate(-76.74795,-228.49195)">
	<g
   id="g656">
		<polygon
   style="clip-rule:evenodd;fill-rule:evenodd"
   points="339.904,479.696 339.976,482.36 340.264,485.024 340.768,487.688 341.488,490.28 342.424,492.8 343.504,495.248 344.728,497.624 346.168,499.928 347.752,502.088 349.552,504.104 351.424,505.976 353.44,507.776 355.6,509.36 357.904,510.8 360.28,512.024 362.728,513.104 365.248,513.968 367.912,514.616 370.504,515.12 373.168,515.408 375.904,515.48 375.904,520.016 241.12,520.016 241.12,515.48 243.784,515.336 246.448,515.048 249.04,514.544 251.704,513.824 254.224,512.888 256.672,511.808 258.976,510.584 261.28,509.144 263.368,507.488 265.456,505.688 267.328,503.816 269.056,501.8 270.64,499.568 272.008,497.336 273.232,494.888 274.312,492.44 275.176,489.92 275.896,487.328 276.4,484.664 276.688,482 276.76,479.336 277.048,441.32 276.976,439.232 276.688,437.144 276.256,435.128 275.608,433.112 274.744,431.24 273.736,429.44 272.584,427.64 271.216,426.128 269.776,424.616 268.192,423.248 266.464,422.096 264.664,421.088 262.72,420.296 260.776,419.72 258.688,419.216 256.672,418.928 254.584,418.856 254.584,416.624 339.904,416.624 "
   id="polygon650" />
		<polygon
   style="clip-rule:evenodd;fill-rule:evenodd"
   points="340.984,365.144 339.616,361.04 337.672,357.008 335.224,353.336 332.272,350.024 328.96,347.144 325.288,344.696 321.328,342.752 317.152,341.312 312.832,340.448 308.44,340.16 304.048,340.448 299.728,341.312 295.624,342.752 291.664,344.696 287.992,347.144 284.68,350.024 281.8,353.336 279.28,357.008 277.336,361.04 275.968,365.144 275.104,369.464 274.816,373.856 275.104,378.248 275.968,382.64 277.336,386.816 279.28,390.776 281.8,394.448 284.68,397.76 287.992,400.64 291.664,403.088 295.624,405.104 299.728,406.472 304.048,407.336 308.44,407.624 312.832,407.336 317.152,406.472 321.328,405.104 325.288,403.088 328.96,400.64 332.272,397.76 335.224,394.448 337.672,390.776 339.616,386.816 340.984,382.64 341.848,378.248 342.136,373.856 341.848,369.464 "
   id="polygon652" />
		<polygon
   style="clip-rule:evenodd;fill-rule:evenodd"
   points="414.208,342.392 414.208,359.024 308.44,325.04 202.744,359.096 202.744,342.392 308.44,308.408 "
   id="polygon654" />
	</g>
	<g
   id="g674">
		<g
   id="g660">
			<path
   style="clip-rule:evenodd;fill:#0079c1;fill-rule:evenodd"
   d="m 308.512,240.08 h 213.192 c 5.832,0 10.584,4.68 10.584,10.512 V 587.84 c 0,5.832 -4.752,10.584 -10.584,10.584 H 308.512 v -60.84 H 427.24 V 300.632 H 308.512 Z m -208.728,0 h 208.728 v 60.552 H 189.856 v 0 236.952 h 118.656 v 60.84 H 99.784 c -5.832,0 -10.512,-4.752 -10.512,-10.584 V 250.592 c 0,-5.832 4.68,-10.512 10.512,-10.512 z"
   id="path658"
   inkscape:connector-curvature="0" />
		</g>
		<g
   id="g672">
			<g
   id="g664">
				<path
   style="clip-rule:evenodd;fill:#0079c1;fill-rule:evenodd"
   d="m 309.736,229.496 h 210.96 c 11.664,0 21.096,9.432 21.096,21.096 V 587.84 c 0,5.616 -2.232,10.944 -6.12,14.904 -3.96,3.96 -9.36,6.192 -14.976,6.192 h -210.96 232.056 v -379.44 z m -210.888,0 H 309.736 77.752 v 0 379.44 H 309.736 98.848 c -11.664,0 -21.096,-9.432 -21.096,-21.096 V 250.592 c 0,-11.664 9.432,-21.096 21.096,-21.096 z"
   id="path662"
   inkscape:connector-curvature="0" />
			</g>
			<g
   id="g670">
				<path
   style="fill:#0079c1"
   d="m 534.304,228.992 h 7.488 l 0.504,0.504 v 21.096 0 337.248 0 21.096 l -0.504,0.504 h -7.488 v -1.008 h 6.984 V 594.32 c -0.144,0.576 -0.36,1.224 -0.648,1.8 -0.144,0.432 -0.36,0.792 -0.504,1.224 -1.08,2.088 -2.448,4.032 -4.176,5.76 v 0 0 0 c -0.504,0.576 -1.08,1.08 -1.656,1.512 v -1.296 c 0.288,-0.288 0.648,-0.576 1.008,-0.936 v 0 0 0 c 1.584,-1.584 2.88,-3.456 3.888,-5.472 0.216,-0.432 0.36,-0.792 0.576,-1.224 1.008,-2.448 1.512,-5.112 1.512,-7.848 v 0 -337.248 0 c 0,-5.688 -2.304,-10.872 -5.976,-14.544 -0.36,-0.36 -0.72,-0.648 -1.008,-0.936 v -1.368 c 0.576,0.504 1.152,1.008 1.656,1.584 2.448,2.376 4.32,5.4 5.328,8.712 V 230 h -6.984 z m -224.568,0 h 210.96 v 0 h 13.608 V 230 h -7.056 c 2.592,0.792 4.968,2.088 7.056,3.744 v 1.368 C 530.632,231.944 525.88,230 520.696,230 v 0 H 309.736 Z M 534.304,609.44 h -13.608 -210.96 v -1.008 h 210.96 c 3.96,0 7.776,-1.152 11.016,-3.168 0.648,-0.432 1.296,-0.864 1.872,-1.368 0.216,-0.144 0.432,-0.36 0.72,-0.576 v 1.296 c -0.072,0.072 -0.072,0.072 -0.072,0.072 -0.648,0.504 -1.296,0.936 -1.944,1.368 -1.584,1.008 -3.312,1.8 -5.112,2.376 h 7.128 z M 98.848,228.992 H 309.736 V 230 H 98.848 v 0 c -5.184,0 -9.936,1.944 -13.608,5.112 v -1.368 c 2.088,-1.656 4.464,-2.952 7.056,-3.744 H 85.24 v -1.008 H 98.848 Z M 309.736,609.44 H 98.848 v 0 H 85.24 v -1.008 h 7.056 c -2.592,-0.864 -4.968,-2.088 -7.056,-3.816 v -1.296 c 3.672,3.168 8.424,5.112 13.608,5.112 v 0 h 210.888 z m -224.496,0 h -7.488 l -0.504,-0.504 v -21.096 0 -337.248 0 -21.096 h 0.504 v -0.504 H 85.24 V 230 h -6.984 v 14.04 c 1.008,-3.312 2.88,-6.336 5.328,-8.712 0.504,-0.576 1.08,-1.08 1.656,-1.584 v 1.368 c -0.288,0.288 -0.648,0.576 -1.008,0.936 -3.672,3.672 -5.976,8.856 -5.976,14.544 v 0 337.248 0 c 0,5.688 2.304,10.8 5.976,14.544 0.36,0.36 0.72,0.648 1.008,0.936 v 1.296 c -0.576,-0.432 -1.152,-1.008 -1.656,-1.512 -2.448,-2.448 -4.32,-5.4 -5.328,-8.784 v 14.112 h 6.984 z"
   id="path666"
   inkscape:connector-curvature="0" />
				<path
   style="fill:none;stroke:#0079c1;stroke-width:1.00010002;stroke-miterlimit:10"
   d="m 98.848,228.992 h 421.848 v 0 h 21.096 l 0.504,0.504 v 21.096 0 337.248 0 21.096 l -0.504,0.504 H 520.696 98.848 v 0 H 77.752 l -0.504,-0.504 v -21.096 0 -337.248 0 -21.096 h 0.504 v -0.504 H 98.848 Z M 520.696,230 H 98.848 v 0 c -5.688,0 -10.872,2.304 -14.616,6.048 -3.672,3.672 -5.976,8.856 -5.976,14.544 v 0 337.248 0 c 0,5.688 2.304,10.8 5.976,14.544 3.744,3.744 8.928,6.048 14.616,6.048 v 0 h 421.848 c 3.96,0 7.776,-1.152 11.016,-3.168 0.648,-0.432 1.296,-0.864 1.872,-1.368 0.576,-0.432 1.152,-0.936 1.728,-1.512 v 0 0 0 c 1.584,-1.584 2.88,-3.456 3.888,-5.472 0.216,-0.432 0.36,-0.792 0.576,-1.224 1.008,-2.448 1.512,-5.112 1.512,-7.848 v 0 -337.248 0 c 0,-5.688 -2.304,-10.872 -5.976,-14.544 C 531.568,232.304 526.384,230 520.696,230 Z m 6.552,0 c 3.312,1.08 6.336,2.88 8.712,5.328 2.448,2.376 4.32,5.4 5.328,8.712 V 230 Z m 14.04,364.32 c -0.144,0.576 -0.36,1.224 -0.648,1.8 -0.144,0.432 -0.36,0.792 -0.504,1.224 -1.08,2.088 -2.448,4.032 -4.176,5.76 v 0 0 0 c -0.576,0.576 -1.152,1.08 -1.728,1.584 -0.648,0.504 -1.296,0.936 -1.944,1.368 -1.584,1.008 -3.312,1.8 -5.112,2.376 h 14.112 z M 92.296,608.432 c -3.312,-1.08 -6.336,-2.88 -8.712,-5.328 -2.448,-2.448 -4.32,-5.4 -5.328,-8.784 v 14.112 z M 78.256,244.04 c 1.008,-3.312 2.88,-6.336 5.328,-8.712 2.376,-2.448 5.4,-4.248 8.712,-5.328 h -14.04 z"
   id="path668"
   inkscape:connector-curvature="0" />
			</g>
		</g>
	</g>
</g>
</svg>