<?xml version="1.0" encoding="iso-8859-1"?>
<!-- Generator: Adobe Illustrator 15.1.0, SVG Export Plug-In . SVG Version: 6.00 Build 0)  -->
<!DOCTYPE svg PUBLIC "-//W3C//DTD SVG 1.1//EN" "http://www.w3.org/Graphics/SVG/1.1/DTD/svg11.dtd">
<svg version="1.1" id="Layer_1" xmlns="http://www.w3.org/2000/svg" xmlns:xlink="http://www.w3.org/1999/xlink" x="0px" y="0px"
	 width="595px" height="842px" viewBox="0 0 595 842" style="enable-background:new 0 0 595 842;" xml:space="preserve">
<g>
	<g>
		<polygon style="fill-rule:evenodd;clip-rule:evenodd;" points="254.584,416.624 339.904,416.624 339.904,479.696 339.976,482.36 
			340.264,485.024 340.768,487.688 341.488,490.28 342.424,492.8 343.504,495.248 344.728,497.624 346.168,499.928 347.752,502.088 
			349.552,504.104 351.424,505.976 353.44,507.776 355.6,509.36 357.904,510.8 360.28,512.024 362.728,513.104 365.248,513.968 
			367.912,514.616 370.504,515.12 373.168,515.408 375.904,515.48 375.904,520.016 241.12,520.016 241.12,515.48 243.784,515.336 
			246.448,515.048 249.04,514.544 251.704,513.824 254.224,512.888 256.672,511.808 258.976,510.584 261.28,509.144 
			263.368,507.488 265.456,505.688 267.328,503.816 269.056,501.8 270.64,499.568 272.008,497.336 273.232,494.888 274.312,492.44 
			275.176,489.92 275.896,487.328 276.4,484.664 276.688,482 276.76,479.336 277.048,441.32 276.976,439.232 276.688,437.144 
			276.256,435.128 275.608,433.112 274.744,431.24 273.736,429.44 272.584,427.64 271.216,426.128 269.776,424.616 268.192,423.248 
			266.464,422.096 264.664,421.088 262.72,420.296 260.776,419.72 258.688,419.216 256.672,418.928 254.584,418.856 		"/>
		<polygon style="fill-rule:evenodd;clip-rule:evenodd;" points="342.136,373.856 341.848,369.464 340.984,365.144 339.616,361.04 
			337.672,357.008 335.224,353.336 332.272,350.024 328.96,347.144 325.288,344.696 321.328,342.752 317.152,341.312 
			312.832,340.448 308.44,340.16 304.048,340.448 299.728,341.312 295.624,342.752 291.664,344.696 287.992,347.144 284.68,350.024 
			281.8,353.336 279.28,357.008 277.336,361.04 275.968,365.144 275.104,369.464 274.816,373.856 275.104,378.248 275.968,382.64 
			277.336,386.816 279.28,390.776 281.8,394.448 284.68,397.76 287.992,400.64 291.664,403.088 295.624,405.104 299.728,406.472 
			304.048,407.336 308.44,407.624 312.832,407.336 317.152,406.472 321.328,405.104 325.288,403.088 328.96,400.64 332.272,397.76 
			335.224,394.448 337.672,390.776 339.616,386.816 340.984,382.64 341.848,378.248 		"/>
		<polygon style="fill-rule:evenodd;clip-rule:evenodd;" points="202.744,342.392 308.44,308.408 414.208,342.392 414.208,359.024 
			308.44,325.04 202.744,359.096 		"/>
	</g>
	<g>
		<g>
			<path style="fill-rule:evenodd;clip-rule:evenodd;fill:#0079C1;" d="M308.512,240.08h213.192c5.832,0,10.584,4.68,10.584,10.512
				V587.84c0,5.832-4.752,10.584-10.584,10.584H308.512v-60.84H427.24V300.632H308.512V240.08z M99.784,240.08h208.728v60.552
				H189.856l0,0v236.952h118.656v60.84H99.784c-5.832,0-10.512-4.752-10.512-10.584V250.592
				C89.272,244.76,93.952,240.08,99.784,240.08L99.784,240.08z"/>
		</g>
		<g>
			<g>
				<path style="fill-rule:evenodd;clip-rule:evenodd;fill:#0079C1;" d="M309.736,229.496h210.96
					c11.664,0,21.096,9.432,21.096,21.096V587.84c0,5.616-2.232,10.944-6.12,14.904c-3.96,3.96-9.36,6.192-14.976,6.192h-210.96
					h232.056v-379.44H309.736z M98.848,229.496h210.888H77.752l0,0v379.44h231.984H98.848c-11.664,0-21.096-9.432-21.096-21.096
					V250.592C77.752,238.928,87.184,229.496,98.848,229.496L98.848,229.496z"/>
			</g>
			<g>
				<path style="fill:#0079C1;" d="M534.304,228.992h7.488l0.504,0.504v21.096l0,0V587.84l0,0v21.096l-0.504,0.504h-7.488v-1.008
					h6.984V594.32c-0.144,0.576-0.36,1.224-0.648,1.8c-0.144,0.432-0.36,0.792-0.504,1.224c-1.08,2.088-2.448,4.032-4.176,5.76l0,0
					l0,0l0,0c-0.504,0.576-1.08,1.08-1.656,1.512v-1.296c0.288-0.288,0.648-0.576,1.008-0.936l0,0l0,0l0,0
					c1.584-1.584,2.88-3.456,3.888-5.472c0.216-0.432,0.36-0.792,0.576-1.224c1.008-2.448,1.512-5.112,1.512-7.848l0,0V250.592l0,0
					c0-5.688-2.304-10.872-5.976-14.544c-0.36-0.36-0.72-0.648-1.008-0.936v-1.368c0.576,0.504,1.152,1.008,1.656,1.584
					c2.448,2.376,4.32,5.4,5.328,8.712V230h-6.984V228.992z M309.736,228.992h210.96l0,0h13.608V230h-7.056
					c2.592,0.792,4.968,2.088,7.056,3.744v1.368c-3.672-3.168-8.424-5.112-13.608-5.112l0,0h-210.96V228.992L309.736,228.992z
					 M534.304,609.44h-13.608h-210.96v-1.008h210.96c3.96,0,7.776-1.152,11.016-3.168c0.648-0.432,1.296-0.864,1.872-1.368
					c0.216-0.144,0.432-0.36,0.72-0.576v1.296c-0.072,0.072-0.072,0.072-0.072,0.072c-0.648,0.504-1.296,0.936-1.944,1.368
					c-1.584,1.008-3.312,1.8-5.112,2.376h7.128V609.44z M98.848,228.992h210.888V230H98.848l0,0c-5.184,0-9.936,1.944-13.608,5.112
					v-1.368c2.088-1.656,4.464-2.952,7.056-3.744H85.24v-1.008H98.848L98.848,228.992L98.848,228.992z M309.736,609.44H98.848l0,0
					H85.24v-1.008h7.056c-2.592-0.864-4.968-2.088-7.056-3.816v-1.296c3.672,3.168,8.424,5.112,13.608,5.112l0,0h210.888V609.44z
					 M85.24,609.44h-7.488l-0.504-0.504V587.84l0,0V250.592l0,0v-21.096h0.504v-0.504h7.488V230h-6.984v14.04
					c1.008-3.312,2.88-6.336,5.328-8.712c0.504-0.576,1.08-1.08,1.656-1.584v1.368c-0.288,0.288-0.648,0.576-1.008,0.936
					c-3.672,3.672-5.976,8.856-5.976,14.544l0,0V587.84l0,0c0,5.688,2.304,10.8,5.976,14.544c0.36,0.36,0.72,0.648,1.008,0.936
					v1.296c-0.576-0.432-1.152-1.008-1.656-1.512c-2.448-2.448-4.32-5.4-5.328-8.784v14.112h6.984V609.44z"/>
				<path style="fill:none;stroke:#0079C1;stroke-width:1.0001;stroke-miterlimit:10;" d="M98.848,228.992h421.848l0,0h21.096
					l0.504,0.504v21.096l0,0V587.84l0,0v21.096l-0.504,0.504h-21.096H98.848l0,0H77.752l-0.504-0.504V587.84l0,0V250.592l0,0
					v-21.096h0.504v-0.504H98.848L98.848,228.992L98.848,228.992z M520.696,230H98.848l0,0c-5.688,0-10.872,2.304-14.616,6.048
					c-3.672,3.672-5.976,8.856-5.976,14.544l0,0V587.84l0,0c0,5.688,2.304,10.8,5.976,14.544c3.744,3.744,8.928,6.048,14.616,6.048
					l0,0h421.848c3.96,0,7.776-1.152,11.016-3.168c0.648-0.432,1.296-0.864,1.872-1.368c0.576-0.432,1.152-0.936,1.728-1.512l0,0
					l0,0l0,0c1.584-1.584,2.88-3.456,3.888-5.472c0.216-0.432,0.36-0.792,0.576-1.224c1.008-2.448,1.512-5.112,1.512-7.848l0,0
					V250.592l0,0c0-5.688-2.304-10.872-5.976-14.544C531.568,232.304,526.384,230,520.696,230L520.696,230L520.696,230z
					 M527.248,230c3.312,1.08,6.336,2.88,8.712,5.328c2.448,2.376,4.32,5.4,5.328,8.712V230H527.248L527.248,230z M541.288,594.32
					c-0.144,0.576-0.36,1.224-0.648,1.8c-0.144,0.432-0.36,0.792-0.504,1.224c-1.08,2.088-2.448,4.032-4.176,5.76l0,0l0,0l0,0
					c-0.576,0.576-1.152,1.08-1.728,1.584c-0.648,0.504-1.296,0.936-1.944,1.368c-1.584,1.008-3.312,1.8-5.112,2.376h14.112V594.32
					L541.288,594.32z M92.296,608.432c-3.312-1.08-6.336-2.88-8.712-5.328c-2.448-2.448-4.32-5.4-5.328-8.784v14.112H92.296
					L92.296,608.432z M78.256,244.04c1.008-3.312,2.88-6.336,5.328-8.712c2.376-2.448,5.4-4.248,8.712-5.328h-14.04V244.04z"/>
			</g>
		</g>
	</g>
</g>
</svg>
