<?xml version="1.0" encoding="UTF-8" standalone="no"?>
<!-- Generator: Adobe Illustrator 15.1.0, SVG Export Plug-In . SVG Version: 6.00 Build 0)  -->

<svg
   xmlns:dc="http://purl.org/dc/elements/1.1/"
   xmlns:cc="http://creativecommons.org/ns#"
   xmlns:rdf="http://www.w3.org/1999/02/22-rdf-syntax-ns#"
   xmlns:svg="http://www.w3.org/2000/svg"
   xmlns="http://www.w3.org/2000/svg"
   xmlns:sodipodi="http://sodipodi.sourceforge.net/DTD/sodipodi-0.dtd"
   xmlns:inkscape="http://www.inkscape.org/namespaces/inkscape"
   version="1.0"
   id="Layer_1"
   x="0px"
   y="0px"
   width="496.31299"
   height="496.23599"
   viewBox="0 0 496.31296 496.23598"
   enable-background="new 0 0 595.28 841.89"
   xml:space="preserve"
   sodipodi:docname="715-2.svg"
   inkscape:version="0.92.5 (2060ec1f9f, 2020-04-08)"><metadata
   id="metadata702"><rdf:RDF><cc:Work
       rdf:about=""><dc:format>image/svg+xml</dc:format><dc:type
         rdf:resource="http://purl.org/dc/dcmitype/StillImage" /></cc:Work></rdf:RDF></metadata><defs
   id="defs700" /><sodipodi:namedview
   pagecolor="#ffffff"
   bordercolor="#666666"
   borderopacity="1"
   objecttolerance="10"
   gridtolerance="10"
   guidetolerance="10"
   inkscape:pageopacity="0"
   inkscape:pageshadow="2"
   inkscape:window-width="640"
   inkscape:window-height="480"
   id="namedview698"
   showgrid="false"
   inkscape:zoom="0.28032165"
   inkscape:cx="248.15601"
   inkscape:cy="248.11798"
   inkscape:window-x="0"
   inkscape:window-y="0"
   inkscape:window-maximized="0"
   inkscape:current-layer="Layer_1" />
<g
   id="LWPOLYLINE_1116_"
   transform="translate(-49.484001,-172.827)">
	
		<rect
   x="49.609001"
   y="172.952"
   stroke-miterlimit="10"
   width="496.06299"
   height="495.98599"
   id="rect685"
   style="fill:#ffffff;stroke:#000000;stroke-width:0.25;stroke-miterlimit:10" />
</g>
<g
   id="LWPOLYLINE_1252_"
   transform="translate(-49.484001,-172.827)">
	<path
   d="m 93.703,668.938 h 407.875 c 24.344,0 44.094,-19.75 44.094,-44.094 V 216.97 c 0,-24.344 -19.75,-44.018 -44.094,-44.018 H 93.703 c -24.344,0 -44.094,19.674 -44.094,44.018 v 407.874 c 0,24.344 19.75,44.094 44.094,44.094 z"
   id="path688"
   inkscape:connector-curvature="0" />
</g>
<g
   id="LWPOLYLINE_1118_"
   transform="translate(-49.484001,-172.827)">
	<path
   d="m 93.703,646.891 h 407.875 c 12.094,0 22.047,-9.875 22.047,-22.047 V 216.97 c 0,-12.172 -9.953,-22.047 -22.047,-22.047 H 93.703 c -12.172,0 -22.047,9.875 -22.047,22.047 v 407.874 c 0,12.172 9.875,22.047 22.047,22.047 z"
   id="path691"
   inkscape:connector-curvature="0"
   style="fill:#ffffff" />
</g>
<g
   id="LWPOLYLINE_1120_"
   transform="translate(-49.484001,-172.827)">
	<polygon
   points="225.987,630.355 369.256,630.355 369.256,492.561 507.09,492.561 507.09,349.253 369.256,349.253 369.256,211.458 225.987,211.458 225.987,349.253 88.191,349.253 88.191,492.561 225.987,492.561 "
   id="polygon694"
   style="fill:#ef4523" />
</g>
</svg>