<?xml version="1.0" encoding="iso-8859-1"?>
<!-- Generator: Adobe Illustrator 15.1.0, SVG Export Plug-In . SVG Version: 6.00 Build 0)  -->
<!DOCTYPE svg PUBLIC "-//W3C//DTD SVG 1.1//EN" "http://www.w3.org/Graphics/SVG/1.1/DTD/svg11.dtd">
<svg version="1.1" id="Layer_1" xmlns="http://www.w3.org/2000/svg" xmlns:xlink="http://www.w3.org/1999/xlink" x="0px" y="0px"
	 width="595px" height="842px" viewBox="0 0 595 842" style="enable-background:new 0 0 595 842;" xml:space="preserve">
<g>
	
		<rect x="145.36" y="236.984" style="fill-rule:evenodd;clip-rule:evenodd;fill:#0079C1;stroke:#0079C1;stroke-width:0.591;stroke-miterlimit:10;" width="251.28" height="200.88"/>
	<polygon style="fill-rule:evenodd;clip-rule:evenodd;fill:#FFFFFF;" points="145.36,248.072 146.656,244.04 148.168,241.664 
		151.12,238.928 155.152,237.2 159.472,236.984 384.112,236.984 386.848,237.2 390.664,238.928 393.04,240.656 394.696,242.744 
		395.992,245.336 396.424,248.072 396.208,428.288 394.696,432.104 391.744,435.272 389.44,436.568 385.336,437.864 
		156.448,437.864 153.712,437.216 150.112,435.272 147.304,432.104 146.008,429.512 145.36,426.776 	"/>
	<polygon style="fill-rule:evenodd;clip-rule:evenodd;fill:#0079C1;" points="151.552,249.584 151.984,247.64 152.848,245.768 
		154.36,244.472 156.88,243.392 157.96,243.176 384.112,243.176 385.984,243.608 387.712,244.472 389.224,245.768 390.016,247.64 
		390.232,249.584 390.232,426.344 389.584,428.288 388.576,429.728 386.848,431.024 384.904,431.456 384.112,431.672 
		157.96,431.672 154.936,431.024 153.496,429.728 152.416,428.288 151.768,426.344 151.552,425.264 	"/>
	<rect x="208.144" y="274.712" style="fill-rule:evenodd;clip-rule:evenodd;fill:#FFFFFF;" width="125.712" height="125.496"/>
	<polygon style="fill-rule:evenodd;clip-rule:evenodd;fill:#EF3E42;" points="251.992,280.184 251.992,318.128 214.336,318.128 
		214.336,355.784 251.992,355.784 251.992,393.44 289.864,393.44 289.864,355.784 327.448,355.784 327.448,318.128 289.864,318.128 
		289.864,280.184 	"/>
</g>
</svg>
