<?xml version="1.0" encoding="UTF-8" standalone="no"?>
<!-- Generator: Adobe Illustrator 15.1.0, SVG Export Plug-In . SVG Version: 6.00 Build 0)  -->

<svg
   xmlns:dc="http://purl.org/dc/elements/1.1/"
   xmlns:cc="http://creativecommons.org/ns#"
   xmlns:rdf="http://www.w3.org/1999/02/22-rdf-syntax-ns#"
   xmlns:svg="http://www.w3.org/2000/svg"
   xmlns="http://www.w3.org/2000/svg"
   xmlns:sodipodi="http://sodipodi.sourceforge.net/DTD/sodipodi-0.dtd"
   xmlns:inkscape="http://www.inkscape.org/namespaces/inkscape"
   version="1.1"
   x="0px"
   y="0px"
   width="466.0481"
   height="381.44809"
   viewBox="0 0 466.0481 381.44809"
   xml:space="preserve"
   id="svg1634"
   sodipodi:docname="731.svg"
   inkscape:version="0.92.5 (2060ec1f9f, 2020-04-08)"><metadata
   id="metadata1640"><rdf:RDF><cc:Work
       rdf:about=""><dc:format>image/svg+xml</dc:format><dc:type
         rdf:resource="http://purl.org/dc/dcmitype/StillImage" /></cc:Work></rdf:RDF></metadata><defs
   id="defs1638" /><sodipodi:namedview
   pagecolor="#ffffff"
   bordercolor="#666666"
   borderopacity="1"
   objecttolerance="10"
   gridtolerance="10"
   guidetolerance="10"
   inkscape:pageopacity="0"
   inkscape:pageshadow="2"
   inkscape:window-width="640"
   inkscape:window-height="480"
   id="namedview1636"
   showgrid="false"
   inkscape:zoom="0.28028504"
   inkscape:cx="220.75205"
   inkscape:cy="188.94005"
   inkscape:window-x="0"
   inkscape:window-y="0"
   inkscape:window-maximized="0"
   inkscape:current-layer="svg1634" />
<g
   id="Kuvataso_1"
   transform="translate(-76.74795,-228.49195)">
</g>
<g
   id="_x30_"
   transform="translate(-76.74795,-228.49195)">
</g>
<g
   id="HATSIN"
   transform="translate(-76.74795,-228.49195)">
</g>
<g
   id="HAT"
   transform="translate(-76.74795,-228.49195)">
	<g
   id="g1631">
		<g
   id="g1623">
			<g
   id="g1609">
				<path
   style="clip-rule:evenodd;fill:#0079c1;fill-rule:evenodd"
   d="m 308.512,240.08 h 213.192 c 5.832,0 10.584,4.68 10.584,10.512 V 587.84 c 0,5.832 -4.752,10.584 -10.584,10.584 H 308.512 v -60.84 H 427.24 V 300.632 H 308.512 Z m -208.728,0 h 208.728 v 60.552 H 189.856 v 0 236.952 h 118.656 v 60.84 H 99.784 c -5.832,0 -10.512,-4.752 -10.512,-10.584 V 250.592 c 0,-5.832 4.68,-10.512 10.512,-10.512 z"
   id="path1607"
   inkscape:connector-curvature="0" />
			</g>
			<g
   id="g1621">
				<g
   id="g1613">
					<path
   style="clip-rule:evenodd;fill:#0079c1;fill-rule:evenodd"
   d="m 309.736,229.496 h 210.96 c 11.664,0 21.096,9.432 21.096,21.096 V 587.84 c 0,5.616 -2.232,10.944 -6.12,14.904 -3.96,3.96 -9.36,6.192 -14.976,6.192 h -210.96 232.056 v -379.44 z m -210.888,0 H 309.736 77.752 v 0 379.44 H 309.736 98.848 c -11.664,0 -21.096,-9.432 -21.096,-21.096 V 250.592 c 0,-11.664 9.432,-21.096 21.096,-21.096 z"
   id="path1611"
   inkscape:connector-curvature="0" />
				</g>
				<g
   id="g1619">
					<path
   style="fill:#0079c1"
   d="m 534.304,228.992 h 7.488 l 0.504,0.504 v 21.096 0 337.248 0 21.096 l -0.504,0.504 h -7.488 v -1.008 h 6.984 V 594.32 c -0.144,0.576 -0.36,1.224 -0.648,1.8 -0.144,0.432 -0.36,0.792 -0.504,1.224 -1.08,2.088 -2.448,4.032 -4.176,5.76 v 0 0 0 c -0.504,0.576 -1.08,1.08 -1.656,1.512 v -1.296 c 0.288,-0.288 0.648,-0.576 1.008,-0.936 v 0 0 0 c 1.584,-1.584 2.88,-3.456 3.888,-5.472 0.216,-0.432 0.36,-0.792 0.576,-1.224 1.008,-2.448 1.512,-5.112 1.512,-7.848 v 0 -337.248 0 c 0,-5.688 -2.304,-10.872 -5.976,-14.544 -0.36,-0.36 -0.72,-0.648 -1.008,-0.936 v -1.368 c 0.576,0.504 1.152,1.008 1.656,1.584 2.448,2.376 4.32,5.4 5.328,8.712 V 230 h -6.984 z m -224.568,0 h 210.96 v 0 h 13.608 V 230 h -7.056 c 2.592,0.792 4.968,2.088 7.056,3.744 v 1.368 C 530.632,231.944 525.88,230 520.696,230 v 0 H 309.736 Z M 534.304,609.44 h -13.608 -210.96 v -1.008 h 210.96 c 3.96,0 7.776,-1.152 11.016,-3.168 0.648,-0.432 1.296,-0.864 1.872,-1.368 0.216,-0.144 0.432,-0.36 0.72,-0.576 v 1.296 c -0.072,0.072 -0.072,0.072 -0.072,0.072 -0.648,0.504 -1.296,0.936 -1.944,1.368 -1.584,1.008 -3.312,1.8 -5.112,2.376 h 7.128 z M 98.848,228.992 H 309.736 V 230 H 98.848 v 0 c -5.184,0 -9.936,1.944 -13.608,5.112 v -1.368 c 2.088,-1.656 4.464,-2.952 7.056,-3.744 H 85.24 v -1.008 H 98.848 Z M 309.736,609.44 H 98.848 v 0 H 85.24 v -1.008 h 7.056 c -2.592,-0.864 -4.968,-2.088 -7.056,-3.816 v -1.296 c 3.672,3.168 8.424,5.112 13.608,5.112 v 0 h 210.888 z m -224.496,0 h -7.488 l -0.504,-0.504 v -21.096 0 -337.248 0 -21.096 h 0.504 v -0.504 H 85.24 V 230 h -6.984 v 14.04 c 1.008,-3.312 2.88,-6.336 5.328,-8.712 0.504,-0.576 1.08,-1.08 1.656,-1.584 v 1.368 c -0.288,0.288 -0.648,0.576 -1.008,0.936 -3.672,3.672 -5.976,8.856 -5.976,14.544 v 0 337.248 0 c 0,5.688 2.304,10.8 5.976,14.544 0.36,0.36 0.72,0.648 1.008,0.936 v 1.296 c -0.576,-0.432 -1.152,-1.008 -1.656,-1.512 -2.448,-2.448 -4.32,-5.4 -5.328,-8.784 v 14.112 h 6.984 z"
   id="path1615"
   inkscape:connector-curvature="0" />
					<path
   style="fill:none;stroke:#0079c1;stroke-width:1.00010002;stroke-miterlimit:10"
   d="m 98.848,228.992 h 421.848 v 0 h 21.096 l 0.504,0.504 v 21.096 0 337.248 0 21.096 l -0.504,0.504 H 520.696 98.848 v 0 H 77.752 l -0.504,-0.504 v -21.096 0 -337.248 0 -21.096 h 0.504 v -0.504 H 98.848 Z M 520.696,230 H 98.848 v 0 c -5.688,0 -10.872,2.304 -14.616,6.048 -3.672,3.672 -5.976,8.856 -5.976,14.544 v 0 337.248 0 c 0,5.688 2.304,10.8 5.976,14.544 3.744,3.744 8.928,6.048 14.616,6.048 v 0 h 421.848 c 3.96,0 7.776,-1.152 11.016,-3.168 0.648,-0.432 1.296,-0.864 1.872,-1.368 0.576,-0.432 1.152,-0.936 1.728,-1.512 v 0 0 0 c 1.584,-1.584 2.88,-3.456 3.888,-5.472 0.216,-0.432 0.36,-0.792 0.576,-1.224 1.008,-2.448 1.512,-5.112 1.512,-7.848 v 0 -337.248 0 c 0,-5.688 -2.304,-10.872 -5.976,-14.544 C 531.568,232.304 526.384,230 520.696,230 Z m 6.552,0 c 3.312,1.08 6.336,2.88 8.712,5.328 2.448,2.376 4.32,5.4 5.328,8.712 V 230 Z m 14.04,364.32 c -0.144,0.576 -0.36,1.224 -0.648,1.8 -0.144,0.432 -0.36,0.792 -0.504,1.224 -1.08,2.088 -2.448,4.032 -4.176,5.76 v 0 0 0 c -0.576,0.576 -1.152,1.08 -1.728,1.584 -0.648,0.504 -1.296,0.936 -1.944,1.368 -1.584,1.008 -3.312,1.8 -5.112,2.376 h 14.112 z M 92.296,608.432 c -3.312,-1.08 -6.336,-2.88 -8.712,-5.328 -2.448,-2.448 -4.32,-5.4 -5.328,-8.784 v 14.112 z M 78.256,244.04 c 1.008,-3.312 2.88,-6.336 5.328,-8.712 2.376,-2.448 5.4,-4.248 8.712,-5.328 h -14.04 z"
   id="path1617"
   inkscape:connector-curvature="0" />
				</g>
			</g>
		</g>
		<g
   id="g1629">
			<polygon
   style="clip-rule:evenodd;fill-rule:evenodd"
   points="415.936,512.24 415.936,495.68 404.272,495.68 404.272,406.04 418.384,406.04 346.312,327.92 273.952,406.04 288.424,406.04 288.424,495.68 248.176,495.68 248.176,467.096 253.432,469.112 259.048,470.768 264.664,472.352 270.28,473.144 275.968,473.576 281.584,474.008 277.552,470.336 269.92,463.136 263.08,454.64 257.464,445.424 253.432,435.344 250.624,424.832 249.4,419.72 257.824,425.696 264.304,429.296 277.192,434.12 268.336,424.832 260.632,414.896 254.224,404.024 248.968,392.36 244.936,380.264 241.336,361.328 238.096,380.264 234.064,392.36 228.88,404.024 222.04,414.896 214.768,424.832 205.912,434.12 217.144,430.088 224.848,425.696 233.272,419.72 231.256,430.088 227.656,440.168 222.832,449.816 216.352,459.896 201.088,474.008 212.752,473.144 224.056,470.768 229.24,469.112 234.856,467.096 234.856,495.68 201.088,495.68 201.088,512.24 "
   id="polygon1625" />
			<rect
   x="331.048"
   y="448.59201"
   style="clip-rule:evenodd;fill:#ffffff;fill-rule:evenodd"
   width="30.6"
   height="47.088001"
   id="rect1627" />
		</g>
	</g>
</g>
</svg>