<?xml version="1.0" encoding="iso-8859-1"?>
<!-- Generator: Adobe Illustrator 15.1.0, SVG Export Plug-In . SVG Version: 6.00 Build 0)  -->
<!DOCTYPE svg PUBLIC "-//W3C//DTD SVG 1.1//EN" "http://www.w3.org/Graphics/SVG/1.1/DTD/svg11.dtd">
<svg version="1.1" xmlns="http://www.w3.org/2000/svg" xmlns:xlink="http://www.w3.org/1999/xlink" x="0px" y="0px" width="595px"
	 height="842px" viewBox="0 0 595 842" style="enable-background:new 0 0 595 842;" xml:space="preserve">
<g id="Kuvataso_1">
</g>
<g id="_x30_">
</g>
<g id="HATSIN">
</g>
<g id="HAT">
	<g>
		<g>
			<g>
				<path style="fill-rule:evenodd;clip-rule:evenodd;fill:#0079C1;" d="M308.512,240.08h213.192c5.832,0,10.584,4.68,10.584,10.512
					V587.84c0,5.832-4.752,10.584-10.584,10.584H308.512v-60.84H427.24V300.632H308.512V240.08z M99.784,240.08h208.728v60.552
					H189.856l0,0v236.952h118.656v60.84H99.784c-5.832,0-10.512-4.752-10.512-10.584V250.592
					C89.272,244.76,93.952,240.08,99.784,240.08L99.784,240.08z"/>
			</g>
			<g>
				<g>
					<path style="fill-rule:evenodd;clip-rule:evenodd;fill:#0079C1;" d="M309.736,229.496h210.96
						c11.664,0,21.096,9.432,21.096,21.096V587.84c0,5.616-2.232,10.944-6.12,14.904c-3.96,3.96-9.36,6.192-14.976,6.192h-210.96
						h232.056v-379.44H309.736z M98.848,229.496h210.888H77.752l0,0v379.44h231.984H98.848c-11.664,0-21.096-9.432-21.096-21.096
						V250.592C77.752,238.928,87.184,229.496,98.848,229.496L98.848,229.496z"/>
				</g>
				<g>
					<path style="fill:#0079C1;" d="M534.304,228.992h7.488l0.504,0.504v21.096l0,0V587.84l0,0v21.096l-0.504,0.504h-7.488v-1.008
						h6.984V594.32c-0.144,0.576-0.36,1.224-0.648,1.8c-0.144,0.432-0.36,0.792-0.504,1.224c-1.08,2.088-2.448,4.032-4.176,5.76l0,0
						l0,0l0,0c-0.504,0.576-1.08,1.08-1.656,1.512v-1.296c0.288-0.288,0.648-0.576,1.008-0.936l0,0l0,0l0,0
						c1.584-1.584,2.88-3.456,3.888-5.472c0.216-0.432,0.36-0.792,0.576-1.224c1.008-2.448,1.512-5.112,1.512-7.848l0,0V250.592l0,0
						c0-5.688-2.304-10.872-5.976-14.544c-0.36-0.36-0.72-0.648-1.008-0.936v-1.368c0.576,0.504,1.152,1.008,1.656,1.584
						c2.448,2.376,4.32,5.4,5.328,8.712V230h-6.984V228.992z M309.736,228.992h210.96l0,0h13.608V230h-7.056
						c2.592,0.792,4.968,2.088,7.056,3.744v1.368c-3.672-3.168-8.424-5.112-13.608-5.112l0,0h-210.96V228.992L309.736,228.992z
						 M534.304,609.44h-13.608h-210.96v-1.008h210.96c3.96,0,7.776-1.152,11.016-3.168c0.648-0.432,1.296-0.864,1.872-1.368
						c0.216-0.144,0.432-0.36,0.72-0.576v1.296c-0.072,0.072-0.072,0.072-0.072,0.072c-0.648,0.504-1.296,0.936-1.944,1.368
						c-1.584,1.008-3.312,1.8-5.112,2.376h7.128V609.44z M98.848,228.992h210.888V230H98.848l0,0c-5.184,0-9.936,1.944-13.608,5.112
						v-1.368c2.088-1.656,4.464-2.952,7.056-3.744H85.24v-1.008H98.848L98.848,228.992L98.848,228.992z M309.736,609.44H98.848l0,0
						H85.24v-1.008h7.056c-2.592-0.864-4.968-2.088-7.056-3.816v-1.296c3.672,3.168,8.424,5.112,13.608,5.112l0,0h210.888V609.44z
						 M85.24,609.44h-7.488l-0.504-0.504V587.84l0,0V250.592l0,0v-21.096h0.504v-0.504h7.488V230h-6.984v14.04
						c1.008-3.312,2.88-6.336,5.328-8.712c0.504-0.576,1.08-1.08,1.656-1.584v1.368c-0.288,0.288-0.648,0.576-1.008,0.936
						c-3.672,3.672-5.976,8.856-5.976,14.544l0,0V587.84l0,0c0,5.688,2.304,10.8,5.976,14.544c0.36,0.36,0.72,0.648,1.008,0.936
						v1.296c-0.576-0.432-1.152-1.008-1.656-1.512c-2.448-2.448-4.32-5.4-5.328-8.784v14.112h6.984V609.44z"/>
					<path style="fill:none;stroke:#0079C1;stroke-width:1.0001;stroke-miterlimit:10;" d="M98.848,228.992h421.848l0,0h21.096
						l0.504,0.504v21.096l0,0V587.84l0,0v21.096l-0.504,0.504h-21.096H98.848l0,0H77.752l-0.504-0.504V587.84l0,0V250.592l0,0
						v-21.096h0.504v-0.504H98.848L98.848,228.992L98.848,228.992z M520.696,230H98.848l0,0c-5.688,0-10.872,2.304-14.616,6.048
						c-3.672,3.672-5.976,8.856-5.976,14.544l0,0V587.84l0,0c0,5.688,2.304,10.8,5.976,14.544c3.744,3.744,8.928,6.048,14.616,6.048
						l0,0h421.848c3.96,0,7.776-1.152,11.016-3.168c0.648-0.432,1.296-0.864,1.872-1.368c0.576-0.432,1.152-0.936,1.728-1.512l0,0
						l0,0l0,0c1.584-1.584,2.88-3.456,3.888-5.472c0.216-0.432,0.36-0.792,0.576-1.224c1.008-2.448,1.512-5.112,1.512-7.848l0,0
						V250.592l0,0c0-5.688-2.304-10.872-5.976-14.544C531.568,232.304,526.384,230,520.696,230L520.696,230L520.696,230z
						 M527.248,230c3.312,1.08,6.336,2.88,8.712,5.328c2.448,2.376,4.32,5.4,5.328,8.712V230H527.248L527.248,230z M541.288,594.32
						c-0.144,0.576-0.36,1.224-0.648,1.8c-0.144,0.432-0.36,0.792-0.504,1.224c-1.08,2.088-2.448,4.032-4.176,5.76l0,0l0,0l0,0
						c-0.576,0.576-1.152,1.08-1.728,1.584c-0.648,0.504-1.296,0.936-1.944,1.368c-1.584,1.008-3.312,1.8-5.112,2.376h14.112V594.32
						L541.288,594.32z M92.296,608.432c-3.312-1.08-6.336-2.88-8.712-5.328c-2.448-2.448-4.32-5.4-5.328-8.784v14.112H92.296
						L92.296,608.432z M78.256,244.04c1.008-3.312,2.88-6.336,5.328-8.712c2.376-2.448,5.4-4.248,8.712-5.328h-14.04V244.04z"/>
				</g>
			</g>
		</g>
		<g>
			<polygon style="fill-rule:evenodd;clip-rule:evenodd;" points="201.088,495.68 201.088,512.24 415.936,512.24 415.936,495.68 
				404.272,495.68 404.272,406.04 418.384,406.04 346.312,327.92 273.952,406.04 288.424,406.04 288.424,495.68 248.176,495.68 
				248.176,467.096 253.432,469.112 259.048,470.768 264.664,472.352 270.28,473.144 275.968,473.576 281.584,474.008 
				277.552,470.336 269.92,463.136 263.08,454.64 257.464,445.424 253.432,435.344 250.624,424.832 249.4,419.72 257.824,425.696 
				264.304,429.296 277.192,434.12 268.336,424.832 260.632,414.896 254.224,404.024 248.968,392.36 244.936,380.264 
				241.336,361.328 238.096,380.264 234.064,392.36 228.88,404.024 222.04,414.896 214.768,424.832 205.912,434.12 217.144,430.088 
				224.848,425.696 233.272,419.72 231.256,430.088 227.656,440.168 222.832,449.816 216.352,459.896 201.088,474.008 
				212.752,473.144 224.056,470.768 229.24,469.112 234.856,467.096 234.856,495.68 			"/>
			<rect x="331.048" y="448.592" style="fill-rule:evenodd;clip-rule:evenodd;fill:#FFFFFF;" width="30.6" height="47.088"/>
		</g>
	</g>
</g>
</svg>
