<?xml version="1.0" encoding="iso-8859-1"?>
<!-- Generator: Adobe Illustrator 15.1.0, SVG Export Plug-In . SVG Version: 6.00 Build 0)  -->
<!DOCTYPE svg PUBLIC "-//W3C//DTD SVG 1.1//EN" "http://www.w3.org/Graphics/SVG/1.1/DTD/svg11.dtd">
<svg version="1.1" xmlns="http://www.w3.org/2000/svg" xmlns:xlink="http://www.w3.org/1999/xlink" x="0px" y="0px" width="595px"
	 height="842px" viewBox="0 0 595 842" style="enable-background:new 0 0 595 842;" xml:space="preserve">
<g id="Kuvataso_1">
</g>
<g id="_x30_">
</g>
<g id="HATSIN">
</g>
<g id="HAT">
	<g>
		<g>
			<path style="fill-rule:evenodd;clip-rule:evenodd;fill:#0079C1;" d="M308.512,240.08h213.192c5.832,0,10.584,4.68,10.584,10.512
				V587.84c0,5.832-4.752,10.584-10.584,10.584H308.512v-60.84H427.24V300.632H308.512V240.08z M99.784,240.08h208.728v60.552
				H189.856l0,0v236.952h118.656v60.84H99.784c-5.832,0-10.512-4.752-10.512-10.584V250.592
				C89.272,244.76,93.952,240.08,99.784,240.08L99.784,240.08z"/>
		</g>
		<g>
			<g>
				<path style="fill-rule:evenodd;clip-rule:evenodd;fill:#0079C1;" d="M309.736,229.496h210.96
					c11.664,0,21.096,9.432,21.096,21.096V587.84c0,5.616-2.232,10.944-6.12,14.904c-3.96,3.96-9.36,6.192-14.976,6.192h-210.96
					h232.056v-379.44H309.736z M98.848,229.496h210.888H77.752l0,0v379.44h231.984H98.848c-11.664,0-21.096-9.432-21.096-21.096
					V250.592C77.752,238.928,87.184,229.496,98.848,229.496L98.848,229.496z"/>
			</g>
			<g>
				<path style="fill:#0079C1;" d="M534.304,228.992h7.488l0.504,0.504v21.096l0,0V587.84l0,0v21.096l-0.504,0.504h-7.488v-1.008
					h6.984V594.32c-0.144,0.576-0.36,1.224-0.648,1.8c-0.144,0.432-0.36,0.792-0.504,1.224c-1.08,2.088-2.448,4.032-4.176,5.76l0,0
					l0,0l0,0c-0.504,0.576-1.08,1.08-1.656,1.512v-1.296c0.288-0.288,0.648-0.576,1.008-0.936l0,0l0,0l0,0
					c1.584-1.584,2.88-3.456,3.888-5.472c0.216-0.432,0.36-0.792,0.576-1.224c1.008-2.448,1.512-5.112,1.512-7.848l0,0V250.592l0,0
					c0-5.688-2.304-10.872-5.976-14.544c-0.36-0.36-0.72-0.648-1.008-0.936v-1.368c0.576,0.504,1.152,1.008,1.656,1.584
					c2.448,2.376,4.32,5.4,5.328,8.712V230h-6.984V228.992z M309.736,228.992h210.96l0,0h13.608V230h-7.056
					c2.592,0.792,4.968,2.088,7.056,3.744v1.368c-3.672-3.168-8.424-5.112-13.608-5.112l0,0h-210.96V228.992L309.736,228.992z
					 M534.304,609.44h-13.608h-210.96v-1.008h210.96c3.96,0,7.776-1.152,11.016-3.168c0.648-0.432,1.296-0.864,1.872-1.368
					c0.216-0.144,0.432-0.36,0.72-0.576v1.296c-0.072,0.072-0.072,0.072-0.072,0.072c-0.648,0.504-1.296,0.936-1.944,1.368
					c-1.584,1.008-3.312,1.8-5.112,2.376h7.128V609.44z M98.848,228.992h210.888V230H98.848l0,0c-5.184,0-9.936,1.944-13.608,5.112
					v-1.368c2.088-1.656,4.464-2.952,7.056-3.744H85.24v-1.008H98.848L98.848,228.992L98.848,228.992z M309.736,609.44H98.848l0,0
					H85.24v-1.008h7.056c-2.592-0.864-4.968-2.088-7.056-3.816v-1.296c3.672,3.168,8.424,5.112,13.608,5.112l0,0h210.888V609.44z
					 M85.24,609.44h-7.488l-0.504-0.504V587.84l0,0V250.592l0,0v-21.096h0.504v-0.504h7.488V230h-6.984v14.04
					c1.008-3.312,2.88-6.336,5.328-8.712c0.504-0.576,1.08-1.08,1.656-1.584v1.368c-0.288,0.288-0.648,0.576-1.008,0.936
					c-3.672,3.672-5.976,8.856-5.976,14.544l0,0V587.84l0,0c0,5.688,2.304,10.8,5.976,14.544c0.36,0.36,0.72,0.648,1.008,0.936
					v1.296c-0.576-0.432-1.152-1.008-1.656-1.512c-2.448-2.448-4.32-5.4-5.328-8.784v14.112h6.984V609.44z"/>
				<path style="fill:none;stroke:#0079C1;stroke-width:1.0001;stroke-miterlimit:10;" d="M98.848,228.992h421.848l0,0h21.096
					l0.504,0.504v21.096l0,0V587.84l0,0v21.096l-0.504,0.504h-21.096H98.848l0,0H77.752l-0.504-0.504V587.84l0,0V250.592l0,0
					v-21.096h0.504v-0.504H98.848L98.848,228.992L98.848,228.992z M520.696,230H98.848l0,0c-5.688,0-10.872,2.304-14.616,6.048
					c-3.672,3.672-5.976,8.856-5.976,14.544l0,0V587.84l0,0c0,5.688,2.304,10.8,5.976,14.544c3.744,3.744,8.928,6.048,14.616,6.048
					l0,0h421.848c3.96,0,7.776-1.152,11.016-3.168c0.648-0.432,1.296-0.864,1.872-1.368c0.576-0.432,1.152-0.936,1.728-1.512l0,0
					l0,0l0,0c1.584-1.584,2.88-3.456,3.888-5.472c0.216-0.432,0.36-0.792,0.576-1.224c1.008-2.448,1.512-5.112,1.512-7.848l0,0
					V250.592l0,0c0-5.688-2.304-10.872-5.976-14.544C531.568,232.304,526.384,230,520.696,230L520.696,230L520.696,230z
					 M527.248,230c3.312,1.08,6.336,2.88,8.712,5.328c2.448,2.376,4.32,5.4,5.328,8.712V230H527.248L527.248,230z M541.288,594.32
					c-0.144,0.576-0.36,1.224-0.648,1.8c-0.144,0.432-0.36,0.792-0.504,1.224c-1.08,2.088-2.448,4.032-4.176,5.76l0,0l0,0l0,0
					c-0.576,0.576-1.152,1.08-1.728,1.584c-0.648,0.504-1.296,0.936-1.944,1.368c-1.584,1.008-3.312,1.8-5.112,2.376h14.112V594.32
					L541.288,594.32z M92.296,608.432c-3.312-1.08-6.336-2.88-8.712-5.328c-2.448-2.448-4.32-5.4-5.328-8.784v14.112H92.296
					L92.296,608.432z M78.256,244.04c1.008-3.312,2.88-6.336,5.328-8.712c2.376-2.448,5.4-4.248,8.712-5.328h-14.04V244.04z"/>
			</g>
		</g>
	</g>
	<g>
		<g>
			<polygon style="fill-rule:evenodd;clip-rule:evenodd;stroke:#000000;stroke-width:0.216;stroke-miterlimit:10;" points="
				412.336,473.576 409.384,473.576 412.336,492.656 412.336,492.656 			"/>
			<polygon style="fill-rule:evenodd;clip-rule:evenodd;stroke:#000000;stroke-width:0.216;stroke-miterlimit:10;" points="
				198.208,473.576 412.336,492.656 409.384,473.576 409.384,473.576 			"/>
			<polygon style="fill-rule:evenodd;clip-rule:evenodd;stroke:#000000;stroke-width:0.216;stroke-miterlimit:10;" points="
				412.336,492.656 198.208,473.576 409.384,492.656 409.384,492.656 			"/>
			<polygon style="fill-rule:evenodd;clip-rule:evenodd;stroke:#000000;stroke-width:0.216;stroke-miterlimit:10;" points="
				198.208,492.656 409.384,492.656 198.208,473.576 198.208,473.576 			"/>
		</g>
		<g>
			<polygon style="fill-rule:evenodd;clip-rule:evenodd;stroke:#000000;stroke-width:0.216;stroke-miterlimit:10;" points="
				207.928,473.36 205.12,473.432 206.488,473.576 206.488,473.576 			"/>
			<polygon style="fill-rule:evenodd;clip-rule:evenodd;stroke:#000000;stroke-width:0.216;stroke-miterlimit:10;" points="
				203.752,473.072 205.12,473.432 207.928,473.36 207.928,473.36 			"/>
			<polygon style="fill-rule:evenodd;clip-rule:evenodd;stroke:#000000;stroke-width:0.216;stroke-miterlimit:10;" points="
				209.224,472.928 203.752,473.072 207.928,473.36 207.928,473.36 			"/>
			<polygon style="fill-rule:evenodd;clip-rule:evenodd;stroke:#000000;stroke-width:0.216;stroke-miterlimit:10;" points="
				202.528,472.424 203.752,473.072 209.224,472.928 209.224,472.928 			"/>
			<polygon style="fill-rule:evenodd;clip-rule:evenodd;stroke:#000000;stroke-width:0.216;stroke-miterlimit:10;" points="
				210.448,472.28 202.528,472.424 209.224,472.928 209.224,472.928 			"/>
			<polygon style="fill-rule:evenodd;clip-rule:evenodd;stroke:#000000;stroke-width:0.216;stroke-miterlimit:10;" points="
				201.376,471.56 202.528,472.424 210.448,472.28 210.448,472.28 			"/>
			<polygon style="fill-rule:evenodd;clip-rule:evenodd;stroke:#000000;stroke-width:0.216;stroke-miterlimit:10;" points="
				211.528,471.344 201.376,471.56 210.448,472.28 210.448,472.28 			"/>
			<polygon style="fill-rule:evenodd;clip-rule:evenodd;stroke:#000000;stroke-width:0.216;stroke-miterlimit:10;" points="
				200.44,470.552 201.376,471.56 211.528,471.344 211.528,471.344 			"/>
			<polygon style="fill-rule:evenodd;clip-rule:evenodd;stroke:#000000;stroke-width:0.216;stroke-miterlimit:10;" points="
				212.392,470.264 200.44,470.552 211.528,471.344 211.528,471.344 			"/>
			<polygon style="fill-rule:evenodd;clip-rule:evenodd;stroke:#000000;stroke-width:0.216;stroke-miterlimit:10;" points="
				199.792,469.328 200.44,470.552 212.392,470.264 212.392,470.264 			"/>
			<polygon style="fill-rule:evenodd;clip-rule:evenodd;stroke:#000000;stroke-width:0.216;stroke-miterlimit:10;" points="
				213.04,468.968 199.792,469.328 212.392,470.264 212.392,470.264 			"/>
			<polygon style="fill-rule:evenodd;clip-rule:evenodd;stroke:#000000;stroke-width:0.216;stroke-miterlimit:10;" points="
				199.36,467.96 199.792,469.328 213.04,468.968 213.04,468.968 			"/>
			<polygon style="fill-rule:evenodd;clip-rule:evenodd;stroke:#000000;stroke-width:0.216;stroke-miterlimit:10;" points="
				213.4,467.6 196.552,467.96 199.36,467.96 199.36,467.96 			"/>
			<polygon style="fill-rule:evenodd;clip-rule:evenodd;stroke:#000000;stroke-width:0.216;stroke-miterlimit:10;" points="
				213.4,467.6 199.36,467.96 213.04,468.968 213.04,468.968 			"/>
			<polygon style="fill-rule:evenodd;clip-rule:evenodd;stroke:#000000;stroke-width:0.216;stroke-miterlimit:10;" points="
				213.472,466.232 196.552,467.96 213.4,467.6 213.4,467.6 			"/>
			<polygon style="fill-rule:evenodd;clip-rule:evenodd;stroke:#000000;stroke-width:0.216;stroke-miterlimit:10;" points="
				213.328,464.864 196.552,467.96 213.472,466.232 213.472,466.232 			"/>
			<polygon style="fill-rule:evenodd;clip-rule:evenodd;stroke:#000000;stroke-width:0.216;stroke-miterlimit:10;" points="
				212.896,463.496 196.552,467.96 213.328,464.864 213.328,464.864 			"/>
			<polygon style="fill-rule:evenodd;clip-rule:evenodd;stroke:#000000;stroke-width:0.216;stroke-miterlimit:10;" points="
				212.176,462.272 196.552,467.96 212.896,463.496 212.896,463.496 			"/>
			<polygon style="fill-rule:evenodd;clip-rule:evenodd;stroke:#000000;stroke-width:0.216;stroke-miterlimit:10;" points="
				211.312,461.192 196.552,467.96 212.176,462.272 212.176,462.272 			"/>
			<polygon style="fill-rule:evenodd;clip-rule:evenodd;stroke:#000000;stroke-width:0.216;stroke-miterlimit:10;" points="
				210.232,460.328 196.552,467.96 211.312,461.192 211.312,461.192 			"/>
			<polygon style="fill-rule:evenodd;clip-rule:evenodd;stroke:#000000;stroke-width:0.216;stroke-miterlimit:10;" points="
				208.936,459.68 196.552,467.96 210.232,460.328 210.232,460.328 			"/>
			<polygon style="fill-rule:evenodd;clip-rule:evenodd;stroke:#000000;stroke-width:0.216;stroke-miterlimit:10;" points="
				203.896,459.608 196.552,467.96 208.936,459.68 208.936,459.68 			"/>
			<polygon style="fill-rule:evenodd;clip-rule:evenodd;stroke:#000000;stroke-width:0.216;stroke-miterlimit:10;" points="
				205.048,459.32 203.896,459.608 208.936,459.68 208.936,459.68 			"/>
			<polygon style="fill-rule:evenodd;clip-rule:evenodd;stroke:#000000;stroke-width:0.216;stroke-miterlimit:10;" points="
				207.568,459.32 205.048,459.32 208.936,459.68 208.936,459.68 			"/>
			<polygon style="fill-rule:evenodd;clip-rule:evenodd;stroke:#000000;stroke-width:0.216;stroke-miterlimit:10;" points="
				206.2,459.248 205.048,459.32 207.568,459.32 207.568,459.32 			"/>
			<polygon style="fill-rule:evenodd;clip-rule:evenodd;stroke:#000000;stroke-width:0.216;stroke-miterlimit:10;" points="
				196.552,452.12 196.552,467.96 203.896,459.608 203.896,459.608 			"/>
			<polygon style="fill-rule:evenodd;clip-rule:evenodd;stroke:#000000;stroke-width:0.216;stroke-miterlimit:10;" points="
				203.896,452.048 189.568,452.12 196.552,452.12 196.552,452.12 			"/>
			<polygon style="fill-rule:evenodd;clip-rule:evenodd;stroke:#000000;stroke-width:0.216;stroke-miterlimit:10;" points="
				203.896,452.048 196.552,452.12 203.896,459.608 203.896,459.608 			"/>
			<polygon style="fill-rule:evenodd;clip-rule:evenodd;stroke:#000000;stroke-width:0.216;stroke-miterlimit:10;" points="
				401.752,451.904 335.296,452.048 399.736,452.048 399.736,452.048 			"/>
			<polygon style="fill-rule:evenodd;clip-rule:evenodd;stroke:#000000;stroke-width:0.216;stroke-miterlimit:10;" points="
				403.768,451.472 335.296,452.048 401.752,451.904 401.752,451.904 			"/>
			<polygon style="fill-rule:evenodd;clip-rule:evenodd;stroke:#000000;stroke-width:0.216;stroke-miterlimit:10;" points="
				405.64,450.752 335.296,452.048 403.768,451.472 403.768,451.472 			"/>
			<polygon style="fill-rule:evenodd;clip-rule:evenodd;stroke:#000000;stroke-width:0.216;stroke-miterlimit:10;" points="
				407.44,449.744 335.296,452.048 405.64,450.752 405.64,450.752 			"/>
			<polygon style="fill-rule:evenodd;clip-rule:evenodd;stroke:#000000;stroke-width:0.216;stroke-miterlimit:10;" points="
				287.776,449.168 203.896,452.048 287.56,452.048 287.56,452.048 			"/>
			<polygon style="fill-rule:evenodd;clip-rule:evenodd;stroke:#000000;stroke-width:0.216;stroke-miterlimit:10;" points="
				287.776,449.168 189.568,452.12 203.896,452.048 203.896,452.048 			"/>
			<polygon style="fill-rule:evenodd;clip-rule:evenodd;stroke:#000000;stroke-width:0.216;stroke-miterlimit:10;" points="
				335.152,449.168 335.296,452.048 407.44,449.744 407.44,449.744 			"/>
			<polygon style="fill-rule:evenodd;clip-rule:evenodd;stroke:#000000;stroke-width:0.216;stroke-miterlimit:10;" points="
				409.096,448.52 335.152,449.168 407.44,449.744 407.44,449.744 			"/>
			<polygon style="fill-rule:evenodd;clip-rule:evenodd;stroke:#000000;stroke-width:0.216;stroke-miterlimit:10;" points="
				410.536,447.08 335.152,449.168 409.096,448.52 409.096,448.52 			"/>
			<polygon style="fill-rule:evenodd;clip-rule:evenodd;stroke:#000000;stroke-width:0.216;stroke-miterlimit:10;" points="
				288.28,446.36 189.568,452.12 287.776,449.168 287.776,449.168 			"/>
			<polygon style="fill-rule:evenodd;clip-rule:evenodd;stroke:#000000;stroke-width:0.216;stroke-miterlimit:10;" points="
				334.576,446.36 335.152,449.168 410.536,447.08 410.536,447.08 			"/>
			<polygon style="fill-rule:evenodd;clip-rule:evenodd;stroke:#000000;stroke-width:0.216;stroke-miterlimit:10;" points="
				411.76,445.496 334.576,446.36 410.536,447.08 410.536,447.08 			"/>
			<polygon style="fill-rule:evenodd;clip-rule:evenodd;stroke:#000000;stroke-width:0.216;stroke-miterlimit:10;" points="
				189.568,444.848 189.568,452.12 288.28,446.36 288.28,446.36 			"/>
			<polygon style="fill-rule:evenodd;clip-rule:evenodd;stroke:#000000;stroke-width:0.216;stroke-miterlimit:10;" points="
				288.28,446.36 211.096,444.848 189.568,444.848 189.568,444.848 			"/>
			<polygon style="fill-rule:evenodd;clip-rule:evenodd;stroke:#000000;stroke-width:0.216;stroke-miterlimit:10;" points="
				209.728,444.776 211.096,444.848 288.28,446.36 288.28,446.36 			"/>
			<polygon style="fill-rule:evenodd;clip-rule:evenodd;stroke:#000000;stroke-width:0.216;stroke-miterlimit:10;" points="
				208.36,444.344 209.728,444.776 288.28,446.36 288.28,446.36 			"/>
			<polygon style="fill-rule:evenodd;clip-rule:evenodd;stroke:#000000;stroke-width:0.216;stroke-miterlimit:10;" points="
				207.136,443.696 208.36,444.344 288.28,446.36 288.28,446.36 			"/>
			<polygon style="fill-rule:evenodd;clip-rule:evenodd;stroke:#000000;stroke-width:0.216;stroke-miterlimit:10;" points="
				412.768,443.696 334.576,446.36 411.76,445.496 411.76,445.496 			"/>
			<polygon style="fill-rule:evenodd;clip-rule:evenodd;stroke:#000000;stroke-width:0.216;stroke-miterlimit:10;" points="
				289.144,443.552 207.136,443.696 288.28,446.36 288.28,446.36 			"/>
			<polygon style="fill-rule:evenodd;clip-rule:evenodd;stroke:#000000;stroke-width:0.216;stroke-miterlimit:10;" points="
				333.784,443.552 334.576,446.36 412.768,443.696 412.768,443.696 			"/>
			<polygon style="fill-rule:evenodd;clip-rule:evenodd;stroke:#000000;stroke-width:0.216;stroke-miterlimit:10;" points="
				206.056,442.76 207.136,443.696 289.144,443.552 289.144,443.552 			"/>
			<polygon style="fill-rule:evenodd;clip-rule:evenodd;stroke:#000000;stroke-width:0.216;stroke-miterlimit:10;" points="
				413.488,441.752 333.784,443.552 412.768,443.696 412.768,443.696 			"/>
			<polygon style="fill-rule:evenodd;clip-rule:evenodd;stroke:#000000;stroke-width:0.216;stroke-miterlimit:10;" points="
				205.12,441.68 206.056,442.76 289.144,443.552 289.144,443.552 			"/>
			<polygon style="fill-rule:evenodd;clip-rule:evenodd;stroke:#000000;stroke-width:0.216;stroke-miterlimit:10;" points="
				290.296,440.96 205.12,441.68 289.144,443.552 289.144,443.552 			"/>
			<polygon style="fill-rule:evenodd;clip-rule:evenodd;stroke:#000000;stroke-width:0.216;stroke-miterlimit:10;" points="
				332.56,440.96 333.784,443.552 413.488,441.752 413.488,441.752 			"/>
			<polygon style="fill-rule:evenodd;clip-rule:evenodd;stroke:#000000;stroke-width:0.216;stroke-miterlimit:10;" points="
				204.472,440.456 205.12,441.68 290.296,440.96 290.296,440.96 			"/>
			<polygon style="fill-rule:evenodd;clip-rule:evenodd;stroke:#000000;stroke-width:0.216;stroke-miterlimit:10;" points="
				413.92,439.736 332.56,440.96 413.488,441.752 413.488,441.752 			"/>
			<polygon style="fill-rule:evenodd;clip-rule:evenodd;stroke:#000000;stroke-width:0.216;stroke-miterlimit:10;" points="
				204.112,439.088 204.472,440.456 290.296,440.96 290.296,440.96 			"/>
			<polygon style="fill-rule:evenodd;clip-rule:evenodd;stroke:#000000;stroke-width:0.216;stroke-miterlimit:10;" points="
				291.808,438.44 204.112,439.088 290.296,440.96 290.296,440.96 			"/>
			<polygon style="fill-rule:evenodd;clip-rule:evenodd;stroke:#000000;stroke-width:0.216;stroke-miterlimit:10;" points="
				331.048,438.44 332.56,440.96 413.92,439.736 413.92,439.736 			"/>
			<polygon style="fill-rule:evenodd;clip-rule:evenodd;stroke:#000000;stroke-width:0.216;stroke-miterlimit:10;" points="
				414.064,437.72 331.048,438.44 413.92,439.736 413.92,439.736 			"/>
			<polygon style="fill-rule:evenodd;clip-rule:evenodd;stroke:#000000;stroke-width:0.216;stroke-miterlimit:10;" points="
				203.968,437.72 204.112,439.088 291.808,438.44 291.808,438.44 			"/>
			<polygon style="fill-rule:evenodd;clip-rule:evenodd;stroke:#000000;stroke-width:0.216;stroke-miterlimit:10;" points="
				293.608,436.208 203.968,437.72 291.808,438.44 291.808,438.44 			"/>
			<polygon style="fill-rule:evenodd;clip-rule:evenodd;stroke:#000000;stroke-width:0.216;stroke-miterlimit:10;" points="
				329.32,436.208 331.048,438.44 414.064,437.72 414.064,437.72 			"/>
			<polygon style="fill-rule:evenodd;clip-rule:evenodd;stroke:#000000;stroke-width:0.216;stroke-miterlimit:10;" points="
				295.624,434.192 203.968,437.72 293.608,436.208 293.608,436.208 			"/>
			<polygon style="fill-rule:evenodd;clip-rule:evenodd;stroke:#000000;stroke-width:0.216;stroke-miterlimit:10;" points="
				327.232,434.192 329.32,436.208 414.064,437.72 414.064,437.72 			"/>
			<polygon style="fill-rule:evenodd;clip-rule:evenodd;stroke:#000000;stroke-width:0.216;stroke-miterlimit:10;" points="
				297.928,432.392 203.968,437.72 295.624,434.192 295.624,434.192 			"/>
			<polygon style="fill-rule:evenodd;clip-rule:evenodd;stroke:#000000;stroke-width:0.216;stroke-miterlimit:10;" points="
				325,432.392 327.232,434.192 414.064,437.72 414.064,437.72 			"/>
			<polygon style="fill-rule:evenodd;clip-rule:evenodd;stroke:#000000;stroke-width:0.216;stroke-miterlimit:10;" points="
				300.304,430.88 203.968,437.72 297.928,432.392 297.928,432.392 			"/>
			<polygon style="fill-rule:evenodd;clip-rule:evenodd;stroke:#000000;stroke-width:0.216;stroke-miterlimit:10;" points="
				322.48,430.88 325,432.392 414.064,437.72 414.064,437.72 			"/>
			<polygon style="fill-rule:evenodd;clip-rule:evenodd;stroke:#000000;stroke-width:0.216;stroke-miterlimit:10;" points="
				302.968,429.728 203.968,437.72 300.304,430.88 300.304,430.88 			"/>
			<polygon style="fill-rule:evenodd;clip-rule:evenodd;stroke:#000000;stroke-width:0.216;stroke-miterlimit:10;" points="
				319.888,429.728 322.48,430.88 414.064,437.72 414.064,437.72 			"/>
			<polygon style="fill-rule:evenodd;clip-rule:evenodd;stroke:#000000;stroke-width:0.216;stroke-miterlimit:10;" points="
				305.704,428.864 203.968,437.72 302.968,429.728 302.968,429.728 			"/>
			<polygon style="fill-rule:evenodd;clip-rule:evenodd;stroke:#000000;stroke-width:0.216;stroke-miterlimit:10;" points="
				317.152,428.864 319.888,429.728 414.064,437.72 414.064,437.72 			"/>
			<polygon style="fill-rule:evenodd;clip-rule:evenodd;stroke:#000000;stroke-width:0.216;stroke-miterlimit:10;" points="
				308.512,428.36 203.968,437.72 305.704,428.864 305.704,428.864 			"/>
			<polygon style="fill-rule:evenodd;clip-rule:evenodd;stroke:#000000;stroke-width:0.216;stroke-miterlimit:10;" points="
				314.272,428.36 317.152,428.864 414.064,437.72 414.064,437.72 			"/>
			<polygon style="fill-rule:evenodd;clip-rule:evenodd;stroke:#000000;stroke-width:0.216;stroke-miterlimit:10;" points="
				311.392,428.144 261.28,393.8 237.376,393.8 237.376,393.8 			"/>
			<polygon style="fill-rule:evenodd;clip-rule:evenodd;stroke:#000000;stroke-width:0.216;stroke-miterlimit:10;" points="
				261.28,393.8 311.392,428.144 314.272,428.36 314.272,428.36 			"/>
			<polygon style="fill-rule:evenodd;clip-rule:evenodd;stroke:#000000;stroke-width:0.216;stroke-miterlimit:10;" points="
				261.28,393.8 314.272,428.36 414.064,437.72 414.064,437.72 			"/>
			<polygon style="fill-rule:evenodd;clip-rule:evenodd;stroke:#000000;stroke-width:0.216;stroke-miterlimit:10;" points="
				237.376,393.8 308.512,428.36 311.392,428.144 311.392,428.144 			"/>
			<polygon style="fill-rule:evenodd;clip-rule:evenodd;stroke:#000000;stroke-width:0.216;stroke-miterlimit:10;" points="
				237.376,393.8 203.968,437.72 308.512,428.36 308.512,428.36 			"/>
			<polygon style="fill-rule:evenodd;clip-rule:evenodd;stroke:#000000;stroke-width:0.216;stroke-miterlimit:10;" points="
				313.84,393.8 261.28,393.8 414.064,437.72 414.064,437.72 			"/>
			<polygon style="fill-rule:evenodd;clip-rule:evenodd;stroke:#000000;stroke-width:0.216;stroke-miterlimit:10;" points="
				414.064,437.72 378.352,393.8 313.84,393.8 313.84,393.8 			"/>
			<polygon style="fill-rule:evenodd;clip-rule:evenodd;stroke:#000000;stroke-width:0.216;stroke-miterlimit:10;" points="
				236.512,393.656 203.968,437.72 237.376,393.8 237.376,393.8 			"/>
			<polygon style="fill-rule:evenodd;clip-rule:evenodd;stroke:#000000;stroke-width:0.216;stroke-miterlimit:10;" points="
				312.976,393.656 261.28,393.8 313.84,393.8 313.84,393.8 			"/>
			<polygon style="fill-rule:evenodd;clip-rule:evenodd;stroke:#000000;stroke-width:0.216;stroke-miterlimit:10;" points="
				262.216,393.656 261.28,393.8 312.976,393.656 312.976,393.656 			"/>
			<polygon style="fill-rule:evenodd;clip-rule:evenodd;stroke:#000000;stroke-width:0.216;stroke-miterlimit:10;" points="
				379.216,393.656 378.352,393.8 414.064,437.72 414.064,437.72 			"/>
			<polygon style="fill-rule:evenodd;clip-rule:evenodd;stroke:#000000;stroke-width:0.216;stroke-miterlimit:10;" points="
				235.72,393.08 203.968,437.72 236.512,393.656 236.512,393.656 			"/>
			<polygon style="fill-rule:evenodd;clip-rule:evenodd;stroke:#000000;stroke-width:0.216;stroke-miterlimit:10;" points="
				312.184,393.08 262.216,393.656 312.976,393.656 312.976,393.656 			"/>
			<polygon style="fill-rule:evenodd;clip-rule:evenodd;stroke:#000000;stroke-width:0.216;stroke-miterlimit:10;" points="
				263.008,393.08 262.216,393.656 312.184,393.08 312.184,393.08 			"/>
			<polygon style="fill-rule:evenodd;clip-rule:evenodd;stroke:#000000;stroke-width:0.216;stroke-miterlimit:10;" points="
				380.008,393.08 379.216,393.656 414.064,437.72 414.064,437.72 			"/>
			<polygon style="fill-rule:evenodd;clip-rule:evenodd;stroke:#000000;stroke-width:0.216;stroke-miterlimit:10;" points="
				311.68,392.36 263.008,393.08 312.184,393.08 312.184,393.08 			"/>
			<polygon style="fill-rule:evenodd;clip-rule:evenodd;stroke:#000000;stroke-width:0.216;stroke-miterlimit:10;" points="
				235.216,392.36 203.968,437.72 235.72,393.08 235.72,393.08 			"/>
			<polygon style="fill-rule:evenodd;clip-rule:evenodd;stroke:#000000;stroke-width:0.216;stroke-miterlimit:10;" points="
				263.512,392.36 263.008,393.08 311.68,392.36 311.68,392.36 			"/>
			<polygon style="fill-rule:evenodd;clip-rule:evenodd;stroke:#000000;stroke-width:0.216;stroke-miterlimit:10;" points="
				380.512,392.36 380.008,393.08 414.064,437.72 414.064,437.72 			"/>
			<polygon style="fill-rule:evenodd;clip-rule:evenodd;stroke:#000000;stroke-width:0.216;stroke-miterlimit:10;" points="
				235,391.424 203.968,437.72 235.216,392.36 235.216,392.36 			"/>
			<polygon style="fill-rule:evenodd;clip-rule:evenodd;stroke:#000000;stroke-width:0.216;stroke-miterlimit:10;" points="
				311.464,391.424 263.512,392.36 311.68,392.36 311.68,392.36 			"/>
			<polygon style="fill-rule:evenodd;clip-rule:evenodd;stroke:#000000;stroke-width:0.216;stroke-miterlimit:10;" points="
				380.728,391.424 380.512,392.36 414.064,437.72 414.064,437.72 			"/>
			<polygon style="fill-rule:evenodd;clip-rule:evenodd;stroke:#000000;stroke-width:0.216;stroke-miterlimit:10;" points="
				263.656,391.424 263.512,392.36 311.464,391.424 311.464,391.424 			"/>
			<polygon style="fill-rule:evenodd;clip-rule:evenodd;stroke:#000000;stroke-width:0.216;stroke-miterlimit:10;" points="
				414.064,370.76 380.728,391.424 414.064,437.72 414.064,437.72 			"/>
			<polygon style="fill-rule:evenodd;clip-rule:evenodd;stroke:#000000;stroke-width:0.216;stroke-miterlimit:10;" points="
				235,368.96 203.968,437.72 235,391.424 235,391.424 			"/>
			<polygon style="fill-rule:evenodd;clip-rule:evenodd;stroke:#000000;stroke-width:0.216;stroke-miterlimit:10;" points="
				263.656,368.96 263.656,391.424 311.464,391.424 311.464,391.424 			"/>
			<polygon style="fill-rule:evenodd;clip-rule:evenodd;stroke:#000000;stroke-width:0.216;stroke-miterlimit:10;" points="
				311.464,368.816 263.656,368.96 311.464,391.424 311.464,391.424 			"/>
			<polygon style="fill-rule:evenodd;clip-rule:evenodd;stroke:#000000;stroke-width:0.216;stroke-miterlimit:10;" points="
				380.728,368.816 380.728,391.424 414.064,370.76 414.064,370.76 			"/>
			<polygon style="fill-rule:evenodd;clip-rule:evenodd;stroke:#000000;stroke-width:0.216;stroke-miterlimit:10;" points="
				414.136,368.744 380.728,368.816 414.064,370.76 414.064,370.76 			"/>
			<polygon style="fill-rule:evenodd;clip-rule:evenodd;stroke:#000000;stroke-width:0.216;stroke-miterlimit:10;" points="
				203.968,368.744 203.968,437.72 235,368.96 235,368.96 			"/>
			<polygon style="fill-rule:evenodd;clip-rule:evenodd;stroke:#000000;stroke-width:0.216;stroke-miterlimit:10;" points="
				235.216,368.024 203.968,368.744 235,368.96 235,368.96 			"/>
			<polygon style="fill-rule:evenodd;clip-rule:evenodd;stroke:#000000;stroke-width:0.216;stroke-miterlimit:10;" points="
				263.512,368.024 263.656,368.96 311.464,368.816 311.464,368.816 			"/>
			<polygon style="fill-rule:evenodd;clip-rule:evenodd;stroke:#000000;stroke-width:0.216;stroke-miterlimit:10;" points="
				311.68,367.88 263.512,368.024 311.464,368.816 311.464,368.816 			"/>
			<polygon style="fill-rule:evenodd;clip-rule:evenodd;stroke:#000000;stroke-width:0.216;stroke-miterlimit:10;" points="
				380.512,367.88 380.728,368.816 414.136,368.744 414.136,368.744 			"/>
			<polygon style="fill-rule:evenodd;clip-rule:evenodd;stroke:#000000;stroke-width:0.216;stroke-miterlimit:10;" points="
				235.72,367.304 203.968,368.744 235.216,368.024 235.216,368.024 			"/>
			<polygon style="fill-rule:evenodd;clip-rule:evenodd;stroke:#000000;stroke-width:0.216;stroke-miterlimit:10;" points="
				263.008,367.304 263.512,368.024 311.68,367.88 311.68,367.88 			"/>
			<polygon style="fill-rule:evenodd;clip-rule:evenodd;stroke:#000000;stroke-width:0.216;stroke-miterlimit:10;" points="
				312.184,367.16 263.008,367.304 311.68,367.88 311.68,367.88 			"/>
			<polygon style="fill-rule:evenodd;clip-rule:evenodd;stroke:#000000;stroke-width:0.216;stroke-miterlimit:10;" points="
				380.008,367.16 380.512,367.88 414.136,368.744 414.136,368.744 			"/>
			<polygon style="fill-rule:evenodd;clip-rule:evenodd;stroke:#000000;stroke-width:0.216;stroke-miterlimit:10;" points="
				236.512,366.728 203.968,368.744 235.72,367.304 235.72,367.304 			"/>
			<polygon style="fill-rule:evenodd;clip-rule:evenodd;stroke:#000000;stroke-width:0.216;stroke-miterlimit:10;" points="
				262.216,366.728 263.008,367.304 312.184,367.16 312.184,367.16 			"/>
			<polygon style="fill-rule:evenodd;clip-rule:evenodd;stroke:#000000;stroke-width:0.216;stroke-miterlimit:10;" points="
				413.992,366.728 380.008,367.16 414.136,368.744 414.136,368.744 			"/>
			<polygon style="fill-rule:evenodd;clip-rule:evenodd;stroke:#000000;stroke-width:0.216;stroke-miterlimit:10;" points="
				204.112,366.728 203.968,368.744 236.512,366.728 236.512,366.728 			"/>
			<polygon style="fill-rule:evenodd;clip-rule:evenodd;stroke:#000000;stroke-width:0.216;stroke-miterlimit:10;" points="
				312.976,366.584 262.216,366.728 312.184,367.16 312.184,367.16 			"/>
			<polygon style="fill-rule:evenodd;clip-rule:evenodd;stroke:#000000;stroke-width:0.216;stroke-miterlimit:10;" points="
				379.216,366.584 380.008,367.16 413.992,366.728 413.992,366.728 			"/>
			<polygon style="fill-rule:evenodd;clip-rule:evenodd;stroke:#000000;stroke-width:0.216;stroke-miterlimit:10;" points="
				237.376,366.584 204.112,366.728 236.512,366.728 236.512,366.728 			"/>
			<polygon style="fill-rule:evenodd;clip-rule:evenodd;stroke:#000000;stroke-width:0.216;stroke-miterlimit:10;" points="
				261.28,366.584 262.216,366.728 312.976,366.584 312.976,366.584 			"/>
			<polygon style="fill-rule:evenodd;clip-rule:evenodd;stroke:#000000;stroke-width:0.216;stroke-miterlimit:10;" points="
				313.84,366.44 237.376,366.584 261.28,366.584 261.28,366.584 			"/>
			<polygon style="fill-rule:evenodd;clip-rule:evenodd;stroke:#000000;stroke-width:0.216;stroke-miterlimit:10;" points="
				313.84,366.44 261.28,366.584 312.976,366.584 312.976,366.584 			"/>
			<polygon style="fill-rule:evenodd;clip-rule:evenodd;stroke:#000000;stroke-width:0.216;stroke-miterlimit:10;" points="
				378.352,366.44 379.216,366.584 413.992,366.728 413.992,366.728 			"/>
			<polygon style="fill-rule:evenodd;clip-rule:evenodd;stroke:#000000;stroke-width:0.216;stroke-miterlimit:10;" points="
				413.56,364.784 313.84,366.44 378.352,366.44 378.352,366.44 			"/>
			<polygon style="fill-rule:evenodd;clip-rule:evenodd;stroke:#000000;stroke-width:0.216;stroke-miterlimit:10;" points="
				413.56,364.784 378.352,366.44 413.992,366.728 413.992,366.728 			"/>
			<polygon style="fill-rule:evenodd;clip-rule:evenodd;stroke:#000000;stroke-width:0.216;stroke-miterlimit:10;" points="
				204.544,364.784 313.84,366.44 413.56,364.784 413.56,364.784 			"/>
			<polygon style="fill-rule:evenodd;clip-rule:evenodd;stroke:#000000;stroke-width:0.216;stroke-miterlimit:10;" points="
				204.544,364.784 237.376,366.584 313.84,366.44 313.84,366.44 			"/>
			<polygon style="fill-rule:evenodd;clip-rule:evenodd;stroke:#000000;stroke-width:0.216;stroke-miterlimit:10;" points="
				204.544,364.784 204.112,366.728 237.376,366.584 237.376,366.584 			"/>
			<polygon style="fill-rule:evenodd;clip-rule:evenodd;stroke:#000000;stroke-width:0.216;stroke-miterlimit:10;" points="
				412.84,362.84 204.544,364.784 413.56,364.784 413.56,364.784 			"/>
			<polygon style="fill-rule:evenodd;clip-rule:evenodd;stroke:#000000;stroke-width:0.216;stroke-miterlimit:10;" points="
				205.336,362.84 204.544,364.784 412.84,362.84 412.84,362.84 			"/>
			<polygon style="fill-rule:evenodd;clip-rule:evenodd;stroke:#000000;stroke-width:0.216;stroke-miterlimit:10;" points="
				411.832,361.112 205.336,362.84 412.84,362.84 412.84,362.84 			"/>
			<polygon style="fill-rule:evenodd;clip-rule:evenodd;stroke:#000000;stroke-width:0.216;stroke-miterlimit:10;" points="
				206.272,361.112 205.336,362.84 411.832,361.112 411.832,361.112 			"/>
			<polygon style="fill-rule:evenodd;clip-rule:evenodd;stroke:#000000;stroke-width:0.216;stroke-miterlimit:10;" points="
				410.608,359.456 206.272,361.112 411.832,361.112 411.832,361.112 			"/>
			<polygon style="fill-rule:evenodd;clip-rule:evenodd;stroke:#000000;stroke-width:0.216;stroke-miterlimit:10;" points="
				207.496,359.456 206.272,361.112 410.608,359.456 410.608,359.456 			"/>
			<polygon style="fill-rule:evenodd;clip-rule:evenodd;stroke:#000000;stroke-width:0.216;stroke-miterlimit:10;" points="
				409.168,358.088 207.496,359.456 410.608,359.456 410.608,359.456 			"/>
			<polygon style="fill-rule:evenodd;clip-rule:evenodd;stroke:#000000;stroke-width:0.216;stroke-miterlimit:10;" points="
				208.936,358.088 207.496,359.456 409.168,358.088 409.168,358.088 			"/>
			<polygon style="fill-rule:evenodd;clip-rule:evenodd;stroke:#000000;stroke-width:0.216;stroke-miterlimit:10;" points="
				407.512,356.864 208.936,358.088 409.168,358.088 409.168,358.088 			"/>
			<polygon style="fill-rule:evenodd;clip-rule:evenodd;stroke:#000000;stroke-width:0.216;stroke-miterlimit:10;" points="
				210.592,356.864 208.936,358.088 407.512,356.864 407.512,356.864 			"/>
			<polygon style="fill-rule:evenodd;clip-rule:evenodd;stroke:#000000;stroke-width:0.216;stroke-miterlimit:10;" points="
				405.712,355.928 210.592,356.864 407.512,356.864 407.512,356.864 			"/>
			<polygon style="fill-rule:evenodd;clip-rule:evenodd;stroke:#000000;stroke-width:0.216;stroke-miterlimit:10;" points="
				212.392,355.856 210.592,356.864 405.712,355.928 405.712,355.928 			"/>
			<polygon style="fill-rule:evenodd;clip-rule:evenodd;stroke:#000000;stroke-width:0.216;stroke-miterlimit:10;" points="
				403.84,355.208 212.392,355.856 405.712,355.928 405.712,355.928 			"/>
			<polygon style="fill-rule:evenodd;clip-rule:evenodd;stroke:#000000;stroke-width:0.216;stroke-miterlimit:10;" points="
				214.264,355.208 212.392,355.856 403.84,355.208 403.84,355.208 			"/>
			<polygon style="fill-rule:evenodd;clip-rule:evenodd;stroke:#000000;stroke-width:0.216;stroke-miterlimit:10;" points="
				401.824,354.776 214.264,355.208 403.84,355.208 403.84,355.208 			"/>
			<polygon style="fill-rule:evenodd;clip-rule:evenodd;stroke:#000000;stroke-width:0.216;stroke-miterlimit:10;" points="
				216.28,354.776 214.264,355.208 401.824,354.776 401.824,354.776 			"/>
			<polygon style="fill-rule:evenodd;clip-rule:evenodd;stroke:#000000;stroke-width:0.216;stroke-miterlimit:10;" points="
				399.808,354.632 216.28,354.776 401.824,354.776 401.824,354.776 			"/>
			<polygon style="fill-rule:evenodd;clip-rule:evenodd;stroke:#000000;stroke-width:0.216;stroke-miterlimit:10;" points="
				218.296,354.632 216.28,354.776 399.808,354.632 399.808,354.632 			"/>
			<polygon style="fill-rule:evenodd;clip-rule:evenodd;stroke:#000000;stroke-width:0.216;stroke-miterlimit:10;" points="
				387.856,352.184 218.296,354.632 399.808,354.632 399.808,354.632 			"/>
			<polygon style="fill-rule:evenodd;clip-rule:evenodd;stroke:#000000;stroke-width:0.216;stroke-miterlimit:10;" points="
				230.248,352.184 218.296,354.632 387.856,352.184 387.856,352.184 			"/>
			<polygon style="fill-rule:evenodd;clip-rule:evenodd;stroke:#000000;stroke-width:0.216;stroke-miterlimit:10;" points="
				375.832,350.096 230.248,352.184 387.856,352.184 387.856,352.184 			"/>
			<polygon style="fill-rule:evenodd;clip-rule:evenodd;stroke:#000000;stroke-width:0.216;stroke-miterlimit:10;" points="
				242.272,350.096 230.248,352.184 375.832,350.096 375.832,350.096 			"/>
			<polygon style="fill-rule:evenodd;clip-rule:evenodd;stroke:#000000;stroke-width:0.216;stroke-miterlimit:10;" points="
				363.808,348.296 242.272,350.096 375.832,350.096 375.832,350.096 			"/>
			<polygon style="fill-rule:evenodd;clip-rule:evenodd;stroke:#000000;stroke-width:0.216;stroke-miterlimit:10;" points="
				254.296,348.296 242.272,350.096 363.808,348.296 363.808,348.296 			"/>
			<polygon style="fill-rule:evenodd;clip-rule:evenodd;stroke:#000000;stroke-width:0.216;stroke-miterlimit:10;" points="
				351.64,346.928 254.296,348.296 363.808,348.296 363.808,348.296 			"/>
			<polygon style="fill-rule:evenodd;clip-rule:evenodd;stroke:#000000;stroke-width:0.216;stroke-miterlimit:10;" points="
				266.464,346.928 254.296,348.296 351.64,346.928 351.64,346.928 			"/>
			<polygon style="fill-rule:evenodd;clip-rule:evenodd;stroke:#000000;stroke-width:0.216;stroke-miterlimit:10;" points="
				339.472,345.848 266.464,346.928 351.64,346.928 351.64,346.928 			"/>
			<polygon style="fill-rule:evenodd;clip-rule:evenodd;stroke:#000000;stroke-width:0.216;stroke-miterlimit:10;" points="
				278.632,345.848 266.464,346.928 339.472,345.848 339.472,345.848 			"/>
			<polygon style="fill-rule:evenodd;clip-rule:evenodd;stroke:#000000;stroke-width:0.216;stroke-miterlimit:10;" points="
				327.304,345.128 278.632,345.848 339.472,345.848 339.472,345.848 			"/>
			<polygon style="fill-rule:evenodd;clip-rule:evenodd;stroke:#000000;stroke-width:0.216;stroke-miterlimit:10;" points="
				290.8,345.128 278.632,345.848 327.304,345.128 327.304,345.128 			"/>
			<polygon style="fill-rule:evenodd;clip-rule:evenodd;stroke:#000000;stroke-width:0.216;stroke-miterlimit:10;" points="
				315.136,344.768 290.8,345.128 327.304,345.128 327.304,345.128 			"/>
			<polygon style="fill-rule:evenodd;clip-rule:evenodd;stroke:#000000;stroke-width:0.216;stroke-miterlimit:10;" points="
				302.896,344.768 290.8,345.128 315.136,344.768 315.136,344.768 			"/>
		</g>
		<g>
			<polygon style="fill-rule:evenodd;clip-rule:evenodd;stroke:#000000;stroke-width:0.216;stroke-miterlimit:10;" points="
				308.8,473.432 311.392,473.576 313.984,473.432 313.984,473.432 			"/>
			<polygon style="fill-rule:evenodd;clip-rule:evenodd;stroke:#000000;stroke-width:0.216;stroke-miterlimit:10;" points="
				316.576,472.928 308.8,473.432 313.984,473.432 313.984,473.432 			"/>
			<polygon style="fill-rule:evenodd;clip-rule:evenodd;stroke:#000000;stroke-width:0.216;stroke-miterlimit:10;" points="
				306.28,472.928 308.8,473.432 316.576,472.928 316.576,472.928 			"/>
			<polygon style="fill-rule:evenodd;clip-rule:evenodd;stroke:#000000;stroke-width:0.216;stroke-miterlimit:10;" points="
				319.024,472.136 306.28,472.928 316.576,472.928 316.576,472.928 			"/>
			<polygon style="fill-rule:evenodd;clip-rule:evenodd;stroke:#000000;stroke-width:0.216;stroke-miterlimit:10;" points="
				303.76,472.136 306.28,472.928 319.024,472.136 319.024,472.136 			"/>
			<polygon style="fill-rule:evenodd;clip-rule:evenodd;stroke:#000000;stroke-width:0.216;stroke-miterlimit:10;" points="
				321.4,471.128 303.76,472.136 319.024,472.136 319.024,472.136 			"/>
			<polygon style="fill-rule:evenodd;clip-rule:evenodd;stroke:#000000;stroke-width:0.216;stroke-miterlimit:10;" points="
				301.384,471.128 303.76,472.136 321.4,471.128 321.4,471.128 			"/>
			<polygon style="fill-rule:evenodd;clip-rule:evenodd;stroke:#000000;stroke-width:0.216;stroke-miterlimit:10;" points="
				323.632,469.76 301.384,471.128 321.4,471.128 321.4,471.128 			"/>
			<polygon style="fill-rule:evenodd;clip-rule:evenodd;stroke:#000000;stroke-width:0.216;stroke-miterlimit:10;" points="
				299.224,469.76 301.384,471.128 323.632,469.76 323.632,469.76 			"/>
			<polygon style="fill-rule:evenodd;clip-rule:evenodd;stroke:#000000;stroke-width:0.216;stroke-miterlimit:10;" points="
				325.648,468.176 299.224,469.76 323.632,469.76 323.632,469.76 			"/>
			<polygon style="fill-rule:evenodd;clip-rule:evenodd;stroke:#000000;stroke-width:0.216;stroke-miterlimit:10;" points="
				297.208,468.176 299.224,469.76 325.648,468.176 325.648,468.176 			"/>
			<polygon style="fill-rule:evenodd;clip-rule:evenodd;stroke:#000000;stroke-width:0.216;stroke-miterlimit:10;" points="
				327.52,466.304 297.208,468.176 325.648,468.176 325.648,468.176 			"/>
			<polygon style="fill-rule:evenodd;clip-rule:evenodd;stroke:#000000;stroke-width:0.216;stroke-miterlimit:10;" points="
				295.408,466.304 297.208,468.176 327.52,466.304 327.52,466.304 			"/>
			<polygon style="fill-rule:evenodd;clip-rule:evenodd;stroke:#000000;stroke-width:0.216;stroke-miterlimit:10;" points="
				329.104,464.288 295.408,466.304 327.52,466.304 327.52,466.304 			"/>
			<polygon style="fill-rule:evenodd;clip-rule:evenodd;stroke:#000000;stroke-width:0.216;stroke-miterlimit:10;" points="
				293.752,464.288 295.408,466.304 329.104,464.288 329.104,464.288 			"/>
			<polygon style="fill-rule:evenodd;clip-rule:evenodd;stroke:#000000;stroke-width:0.216;stroke-miterlimit:10;" points="
				330.472,462.056 293.752,464.288 329.104,464.288 329.104,464.288 			"/>
			<polygon style="fill-rule:evenodd;clip-rule:evenodd;stroke:#000000;stroke-width:0.216;stroke-miterlimit:10;" points="
				292.456,462.056 293.752,464.288 330.472,462.056 330.472,462.056 			"/>
			<polygon style="fill-rule:evenodd;clip-rule:evenodd;stroke:#000000;stroke-width:0.216;stroke-miterlimit:10;" points="
				311.392,461.624 292.456,462.056 330.472,462.056 330.472,462.056 			"/>
			<polygon style="fill-rule:evenodd;clip-rule:evenodd;stroke:#000000;stroke-width:0.216;stroke-miterlimit:10;" points="
				309.736,461.48 292.456,462.056 311.392,461.624 311.392,461.624 			"/>
			<polygon style="fill-rule:evenodd;clip-rule:evenodd;stroke:#000000;stroke-width:0.216;stroke-miterlimit:10;" points="
				313.048,461.48 311.392,461.624 330.472,462.056 330.472,462.056 			"/>
			<polygon style="fill-rule:evenodd;clip-rule:evenodd;stroke:#000000;stroke-width:0.216;stroke-miterlimit:10;" points="
				308.152,461.048 292.456,462.056 309.736,461.48 309.736,461.48 			"/>
			<polygon style="fill-rule:evenodd;clip-rule:evenodd;stroke:#000000;stroke-width:0.216;stroke-miterlimit:10;" points="
				314.704,461.048 313.048,461.48 330.472,462.056 330.472,462.056 			"/>
			<polygon style="fill-rule:evenodd;clip-rule:evenodd;stroke:#000000;stroke-width:0.216;stroke-miterlimit:10;" points="
				306.64,460.328 292.456,462.056 308.152,461.048 308.152,461.048 			"/>
			<polygon style="fill-rule:evenodd;clip-rule:evenodd;stroke:#000000;stroke-width:0.216;stroke-miterlimit:10;" points="
				316.216,460.328 314.704,461.048 330.472,462.056 330.472,462.056 			"/>
			<polygon style="fill-rule:evenodd;clip-rule:evenodd;stroke:#000000;stroke-width:0.216;stroke-miterlimit:10;" points="
				331.552,459.68 316.216,460.328 330.472,462.056 330.472,462.056 			"/>
			<polygon style="fill-rule:evenodd;clip-rule:evenodd;stroke:#000000;stroke-width:0.216;stroke-miterlimit:10;" points="
				291.376,459.68 292.456,462.056 306.64,460.328 306.64,460.328 			"/>
			<polygon style="fill-rule:evenodd;clip-rule:evenodd;stroke:#000000;stroke-width:0.216;stroke-miterlimit:10;" points="
				305.272,459.392 291.376,459.68 306.64,460.328 306.64,460.328 			"/>
			<polygon style="fill-rule:evenodd;clip-rule:evenodd;stroke:#000000;stroke-width:0.216;stroke-miterlimit:10;" points="
				317.584,459.392 316.216,460.328 331.552,459.68 331.552,459.68 			"/>
			<polygon style="fill-rule:evenodd;clip-rule:evenodd;stroke:#000000;stroke-width:0.216;stroke-miterlimit:10;" points="
				304.048,458.168 291.376,459.68 305.272,459.392 305.272,459.392 			"/>
			<polygon style="fill-rule:evenodd;clip-rule:evenodd;stroke:#000000;stroke-width:0.216;stroke-miterlimit:10;" points="
				318.736,458.168 317.584,459.392 331.552,459.68 331.552,459.68 			"/>
			<polygon style="fill-rule:evenodd;clip-rule:evenodd;stroke:#000000;stroke-width:0.216;stroke-miterlimit:10;" points="
				332.272,457.232 318.736,458.168 331.552,459.68 331.552,459.68 			"/>
			<polygon style="fill-rule:evenodd;clip-rule:evenodd;stroke:#000000;stroke-width:0.216;stroke-miterlimit:10;" points="
				290.584,457.232 291.376,459.68 304.048,458.168 304.048,458.168 			"/>
			<polygon style="fill-rule:evenodd;clip-rule:evenodd;stroke:#000000;stroke-width:0.216;stroke-miterlimit:10;" points="
				303.112,456.8 290.584,457.232 304.048,458.168 304.048,458.168 			"/>
			<polygon style="fill-rule:evenodd;clip-rule:evenodd;stroke:#000000;stroke-width:0.216;stroke-miterlimit:10;" points="
				319.672,456.8 318.736,458.168 332.272,457.232 332.272,457.232 			"/>
			<polygon style="fill-rule:evenodd;clip-rule:evenodd;stroke:#000000;stroke-width:0.216;stroke-miterlimit:10;" points="
				302.392,455.288 290.584,457.232 303.112,456.8 303.112,456.8 			"/>
			<polygon style="fill-rule:evenodd;clip-rule:evenodd;stroke:#000000;stroke-width:0.216;stroke-miterlimit:10;" points="
				320.392,455.288 319.672,456.8 332.272,457.232 332.272,457.232 			"/>
			<polygon style="fill-rule:evenodd;clip-rule:evenodd;stroke:#000000;stroke-width:0.216;stroke-miterlimit:10;" points="
				332.776,454.64 320.392,455.288 332.272,457.232 332.272,457.232 			"/>
			<polygon style="fill-rule:evenodd;clip-rule:evenodd;stroke:#000000;stroke-width:0.216;stroke-miterlimit:10;" points="
				290.152,454.64 290.584,457.232 302.392,455.288 302.392,455.288 			"/>
			<polygon style="fill-rule:evenodd;clip-rule:evenodd;stroke:#000000;stroke-width:0.216;stroke-miterlimit:10;" points="
				301.96,453.704 290.152,454.64 302.392,455.288 302.392,455.288 			"/>
			<polygon style="fill-rule:evenodd;clip-rule:evenodd;stroke:#000000;stroke-width:0.216;stroke-miterlimit:10;" points="
				320.824,453.704 320.392,455.288 332.776,454.64 332.776,454.64 			"/>
			<polygon style="fill-rule:evenodd;clip-rule:evenodd;stroke:#000000;stroke-width:0.216;stroke-miterlimit:10;" points="
				332.92,452.048 320.824,453.704 332.776,454.64 332.776,454.64 			"/>
			<polygon style="fill-rule:evenodd;clip-rule:evenodd;stroke:#000000;stroke-width:0.216;stroke-miterlimit:10;" points="
				301.816,452.048 290.152,454.64 301.96,453.704 301.96,453.704 			"/>
			<polygon style="fill-rule:evenodd;clip-rule:evenodd;stroke:#000000;stroke-width:0.216;stroke-miterlimit:10;" points="
				289.936,452.048 290.152,454.64 301.816,452.048 301.816,452.048 			"/>
			<polygon style="fill-rule:evenodd;clip-rule:evenodd;stroke:#000000;stroke-width:0.216;stroke-miterlimit:10;" points="
				320.968,452.048 320.824,453.704 332.92,452.048 332.92,452.048 			"/>
			<polygon style="fill-rule:evenodd;clip-rule:evenodd;stroke:#000000;stroke-width:0.216;stroke-miterlimit:10;" points="
				301.96,450.392 289.936,452.048 301.816,452.048 301.816,452.048 			"/>
			<polygon style="fill-rule:evenodd;clip-rule:evenodd;stroke:#000000;stroke-width:0.216;stroke-miterlimit:10;" points="
				320.824,450.392 320.968,452.048 332.92,452.048 332.92,452.048 			"/>
			<polygon style="fill-rule:evenodd;clip-rule:evenodd;stroke:#000000;stroke-width:0.216;stroke-miterlimit:10;" points="
				332.776,449.456 320.824,450.392 332.92,452.048 332.92,452.048 			"/>
			<polygon style="fill-rule:evenodd;clip-rule:evenodd;stroke:#000000;stroke-width:0.216;stroke-miterlimit:10;" points="
				290.152,449.456 289.936,452.048 301.96,450.392 301.96,450.392 			"/>
			<polygon style="fill-rule:evenodd;clip-rule:evenodd;stroke:#000000;stroke-width:0.216;stroke-miterlimit:10;" points="
				302.392,448.808 290.152,449.456 301.96,450.392 301.96,450.392 			"/>
			<polygon style="fill-rule:evenodd;clip-rule:evenodd;stroke:#000000;stroke-width:0.216;stroke-miterlimit:10;" points="
				320.392,448.808 320.824,450.392 332.776,449.456 332.776,449.456 			"/>
			<polygon style="fill-rule:evenodd;clip-rule:evenodd;stroke:#000000;stroke-width:0.216;stroke-miterlimit:10;" points="
				303.112,447.296 290.152,449.456 302.392,448.808 302.392,448.808 			"/>
			<polygon style="fill-rule:evenodd;clip-rule:evenodd;stroke:#000000;stroke-width:0.216;stroke-miterlimit:10;" points="
				319.672,447.296 320.392,448.808 332.776,449.456 332.776,449.456 			"/>
			<polygon style="fill-rule:evenodd;clip-rule:evenodd;stroke:#000000;stroke-width:0.216;stroke-miterlimit:10;" points="
				290.584,446.936 290.152,449.456 303.112,447.296 303.112,447.296 			"/>
			<polygon style="fill-rule:evenodd;clip-rule:evenodd;stroke:#000000;stroke-width:0.216;stroke-miterlimit:10;" points="
				332.272,446.936 319.672,447.296 332.776,449.456 332.776,449.456 			"/>
			<polygon style="fill-rule:evenodd;clip-rule:evenodd;stroke:#000000;stroke-width:0.216;stroke-miterlimit:10;" points="
				304.048,445.928 290.584,446.936 303.112,447.296 303.112,447.296 			"/>
			<polygon style="fill-rule:evenodd;clip-rule:evenodd;stroke:#000000;stroke-width:0.216;stroke-miterlimit:10;" points="
				318.736,445.928 319.672,447.296 332.272,446.936 332.272,446.936 			"/>
			<polygon style="fill-rule:evenodd;clip-rule:evenodd;stroke:#000000;stroke-width:0.216;stroke-miterlimit:10;" points="
				305.272,444.704 290.584,446.936 304.048,445.928 304.048,445.928 			"/>
			<polygon style="fill-rule:evenodd;clip-rule:evenodd;stroke:#000000;stroke-width:0.216;stroke-miterlimit:10;" points="
				317.584,444.704 318.736,445.928 332.272,446.936 332.272,446.936 			"/>
			<polygon style="fill-rule:evenodd;clip-rule:evenodd;stroke:#000000;stroke-width:0.216;stroke-miterlimit:10;" points="
				331.552,444.416 317.584,444.704 332.272,446.936 332.272,446.936 			"/>
			<polygon style="fill-rule:evenodd;clip-rule:evenodd;stroke:#000000;stroke-width:0.216;stroke-miterlimit:10;" points="
				291.376,444.416 290.584,446.936 305.272,444.704 305.272,444.704 			"/>
			<polygon style="fill-rule:evenodd;clip-rule:evenodd;stroke:#000000;stroke-width:0.216;stroke-miterlimit:10;" points="
				306.64,443.768 291.376,444.416 305.272,444.704 305.272,444.704 			"/>
			<polygon style="fill-rule:evenodd;clip-rule:evenodd;stroke:#000000;stroke-width:0.216;stroke-miterlimit:10;" points="
				316.216,443.768 317.584,444.704 331.552,444.416 331.552,444.416 			"/>
			<polygon style="fill-rule:evenodd;clip-rule:evenodd;stroke:#000000;stroke-width:0.216;stroke-miterlimit:10;" points="
				308.152,443.048 291.376,444.416 306.64,443.768 306.64,443.768 			"/>
			<polygon style="fill-rule:evenodd;clip-rule:evenodd;stroke:#000000;stroke-width:0.216;stroke-miterlimit:10;" points="
				314.704,443.048 316.216,443.768 331.552,444.416 331.552,444.416 			"/>
			<polygon style="fill-rule:evenodd;clip-rule:evenodd;stroke:#000000;stroke-width:0.216;stroke-miterlimit:10;" points="
				309.736,442.616 291.376,444.416 308.152,443.048 308.152,443.048 			"/>
			<polygon style="fill-rule:evenodd;clip-rule:evenodd;stroke:#000000;stroke-width:0.216;stroke-miterlimit:10;" points="
				313.048,442.616 314.704,443.048 331.552,444.416 331.552,444.416 			"/>
			<polygon style="fill-rule:evenodd;clip-rule:evenodd;stroke:#000000;stroke-width:0.216;stroke-miterlimit:10;" points="
				330.472,442.04 311.392,442.472 313.048,442.616 313.048,442.616 			"/>
			<polygon style="fill-rule:evenodd;clip-rule:evenodd;stroke:#000000;stroke-width:0.216;stroke-miterlimit:10;" points="
				330.472,442.04 313.048,442.616 331.552,444.416 331.552,444.416 			"/>
			<polygon style="fill-rule:evenodd;clip-rule:evenodd;stroke:#000000;stroke-width:0.216;stroke-miterlimit:10;" points="
				292.456,442.04 311.392,442.472 330.472,442.04 330.472,442.04 			"/>
			<polygon style="fill-rule:evenodd;clip-rule:evenodd;stroke:#000000;stroke-width:0.216;stroke-miterlimit:10;" points="
				292.456,442.04 309.736,442.616 311.392,442.472 311.392,442.472 			"/>
			<polygon style="fill-rule:evenodd;clip-rule:evenodd;stroke:#000000;stroke-width:0.216;stroke-miterlimit:10;" points="
				292.456,442.04 291.376,444.416 309.736,442.616 309.736,442.616 			"/>
			<polygon style="fill-rule:evenodd;clip-rule:evenodd;stroke:#000000;stroke-width:0.216;stroke-miterlimit:10;" points="
				329.104,439.808 292.456,442.04 330.472,442.04 330.472,442.04 			"/>
			<polygon style="fill-rule:evenodd;clip-rule:evenodd;stroke:#000000;stroke-width:0.216;stroke-miterlimit:10;" points="
				293.752,439.808 292.456,442.04 329.104,439.808 329.104,439.808 			"/>
			<polygon style="fill-rule:evenodd;clip-rule:evenodd;stroke:#000000;stroke-width:0.216;stroke-miterlimit:10;" points="
				327.52,437.792 293.752,439.808 329.104,439.808 329.104,439.808 			"/>
			<polygon style="fill-rule:evenodd;clip-rule:evenodd;stroke:#000000;stroke-width:0.216;stroke-miterlimit:10;" points="
				295.408,437.792 293.752,439.808 327.52,437.792 327.52,437.792 			"/>
			<polygon style="fill-rule:evenodd;clip-rule:evenodd;stroke:#000000;stroke-width:0.216;stroke-miterlimit:10;" points="
				325.648,435.92 295.408,437.792 327.52,437.792 327.52,437.792 			"/>
			<polygon style="fill-rule:evenodd;clip-rule:evenodd;stroke:#000000;stroke-width:0.216;stroke-miterlimit:10;" points="
				297.208,435.92 295.408,437.792 325.648,435.92 325.648,435.92 			"/>
			<polygon style="fill-rule:evenodd;clip-rule:evenodd;stroke:#000000;stroke-width:0.216;stroke-miterlimit:10;" points="
				323.632,434.336 297.208,435.92 325.648,435.92 325.648,435.92 			"/>
			<polygon style="fill-rule:evenodd;clip-rule:evenodd;stroke:#000000;stroke-width:0.216;stroke-miterlimit:10;" points="
				299.224,434.336 297.208,435.92 323.632,434.336 323.632,434.336 			"/>
			<polygon style="fill-rule:evenodd;clip-rule:evenodd;stroke:#000000;stroke-width:0.216;stroke-miterlimit:10;" points="
				321.4,433.04 299.224,434.336 323.632,434.336 323.632,434.336 			"/>
			<polygon style="fill-rule:evenodd;clip-rule:evenodd;stroke:#000000;stroke-width:0.216;stroke-miterlimit:10;" points="
				301.384,433.04 299.224,434.336 321.4,433.04 321.4,433.04 			"/>
			<polygon style="fill-rule:evenodd;clip-rule:evenodd;stroke:#000000;stroke-width:0.216;stroke-miterlimit:10;" points="
				319.024,431.96 301.384,433.04 321.4,433.04 321.4,433.04 			"/>
			<polygon style="fill-rule:evenodd;clip-rule:evenodd;stroke:#000000;stroke-width:0.216;stroke-miterlimit:10;" points="
				303.76,431.96 301.384,433.04 319.024,431.96 319.024,431.96 			"/>
			<polygon style="fill-rule:evenodd;clip-rule:evenodd;stroke:#000000;stroke-width:0.216;stroke-miterlimit:10;" points="
				316.576,431.168 303.76,431.96 319.024,431.96 319.024,431.96 			"/>
			<polygon style="fill-rule:evenodd;clip-rule:evenodd;stroke:#000000;stroke-width:0.216;stroke-miterlimit:10;" points="
				306.28,431.168 303.76,431.96 316.576,431.168 316.576,431.168 			"/>
			<polygon style="fill-rule:evenodd;clip-rule:evenodd;stroke:#000000;stroke-width:0.216;stroke-miterlimit:10;" points="
				313.984,430.664 306.28,431.168 316.576,431.168 316.576,431.168 			"/>
			<polygon style="fill-rule:evenodd;clip-rule:evenodd;stroke:#000000;stroke-width:0.216;stroke-miterlimit:10;" points="
				308.8,430.664 306.28,431.168 313.984,430.664 313.984,430.664 			"/>
			<polygon style="fill-rule:evenodd;clip-rule:evenodd;stroke:#000000;stroke-width:0.216;stroke-miterlimit:10;" points="
				311.392,430.52 308.8,430.664 313.984,430.664 313.984,430.664 			"/>
		</g>
	</g>
</g>
</svg>
