<?xml version="1.0" encoding="UTF-8" standalone="no"?>
<!-- Generator: Adobe Illustrator 15.1.0, SVG Export Plug-In . SVG Version: 6.00 Build 0)  -->

<svg
   xmlns:dc="http://purl.org/dc/elements/1.1/"
   xmlns:cc="http://creativecommons.org/ns#"
   xmlns:rdf="http://www.w3.org/1999/02/22-rdf-syntax-ns#"
   xmlns:svg="http://www.w3.org/2000/svg"
   xmlns="http://www.w3.org/2000/svg"
   xmlns:sodipodi="http://sodipodi.sourceforge.net/DTD/sodipodi-0.dtd"
   xmlns:inkscape="http://www.inkscape.org/namespaces/inkscape"
   version="1.1"
   id="Layer_3"
   x="0px"
   y="0px"
   width="418.52917"
   height="269.78464"
   viewBox="0 0 418.52917 269.78464"
   enable-background="new 0 0 595 842"
   xml:space="preserve"
   sodipodi:docname="771b.svg"
   inkscape:version="0.92.5 (2060ec1f9f, 2020-04-08)"><metadata
   id="metadata2380"><rdf:RDF><cc:Work
       rdf:about=""><dc:format>image/svg+xml</dc:format><dc:type
         rdf:resource="http://purl.org/dc/dcmitype/StillImage" /></cc:Work></rdf:RDF></metadata><defs
   id="defs2378" /><sodipodi:namedview
   pagecolor="#ffffff"
   bordercolor="#666666"
   borderopacity="1"
   objecttolerance="10"
   gridtolerance="10"
   guidetolerance="10"
   inkscape:pageopacity="0"
   inkscape:pageshadow="2"
   inkscape:window-width="640"
   inkscape:window-height="480"
   id="namedview2376"
   showgrid="false"
   inkscape:zoom="0.28028504"
   inkscape:cx="198.79305"
   inkscape:cy="74.17205"
   inkscape:window-x="0"
   inkscape:window-y="0"
   inkscape:window-maximized="0"
   inkscape:current-layer="Layer_3" />
<g
   id="g2345"
   transform="translate(-98.70695,-225.3874)">
	<path
   d="m 509.392,494.672 h 3.24 -3.24 v -0.504 l 0.432,-0.072 4.248,-2.88 2.376,-4.464 0.288,-2.881 -0.864,-257.976 -6.479,0.072 v 0.072 h 6.984 -6.984 v 0.504 l 0.432,0.072 4.248,2.88 2.376,4.464 0.288,2.88 v -10.8 268.632 h -7.345 z m 0,-6.696 0.576,-0.36 1.368,-2.88 -0.144,-249.336 -1.512,-2.592 -0.288,-0.144 z m -203.4,6.696 h 203.4 v -0.504 l -3.168,0.504 h 3.168 z m 203.4,-268.704 v 0.072 h -203.4 203.4 v 0.504 l -3.168,-0.504 z m 0,6.696 v 255.312 l -1.872,1.224 -201.528,0.072 V 231.368 H 506.944 Z M 99.496,226.04 v 268.632 0 h 206.496 -196.416 -1.224 l -0.36,-0.145 h -0.576 l -0.504,-0.144 -0.432,-0.145 -0.433,-0.144 -0.504,-0.288 -0.432,-0.145 -0.36,-0.288 -0.432,-0.287 -0.432,-0.288 -0.36,-0.288 -0.432,-0.288 -0.36,-0.288 -0.288,-0.432 -0.432,-0.288 -0.288,-0.433 -0.216,-0.432 -0.288,-0.432 -0.288,-0.433 -0.216,-0.432 -0.288,-0.433 -0.145,-0.432 -0.286,-0.572 -0.144,-0.432 -0.145,-0.432 -0.071,-0.576 V 485.6 l -0.145,-0.432 V 226.04 Z m 206.496,5.328 v 257.903 l -197.424,0.072 -2.664,-1.44 -1.512,-2.592 -0.145,-248.472 0.288,-1.872 2.16,-2.88 2.736,-0.72 h 196.561 z m -196.56,-5.328 h -1.225 l -0.432,0.144 H 107.2 l -0.504,0.145 -0.432,0.144 -0.36,0.144 -0.576,0.288 -0.432,0.145 -0.36,0.288 -0.432,0.288 -0.433,0.288 -0.359,0.287 -0.433,0.288 -0.432,0.288 -0.216,0.433 -0.433,0.288 -0.287,0.432 -0.288,0.432 -0.288,0.433 -0.216,0.432 -0.288,0.432 -0.288,0.433 -0.143,0.428 -0.288,0.576 -0.071,0.432 -0.145,0.433 -0.144,0.576 v 0.575 l -0.145,0.433 v 1.296 -10.8 H 305.991 109.432 Z"
   id="path2341"
   inkscape:connector-curvature="0"
   style="fill:#7c3a00" />
	<path
   stroke-miterlimit="10"
   d="m 99.496,226.04 v 268.632 0 h 413.137 -403.057 -1.224 l -0.36,-0.145 h -0.576 l -0.504,-0.144 -0.432,-0.145 -0.433,-0.144 -0.504,-0.288 -0.432,-0.145 -0.36,-0.288 -0.432,-0.287 -0.432,-0.288 -0.36,-0.288 -0.432,-0.288 -0.36,-0.288 -0.288,-0.432 -0.432,-0.288 -0.288,-0.433 -0.216,-0.432 -0.288,-0.432 -0.288,-0.433 -0.216,-0.432 -0.288,-0.433 -0.145,-0.432 -0.286,-0.572 -0.144,-0.432 -0.145,-0.432 -0.071,-0.576 V 485.6 l -0.145,-0.432 V 226.04 Z m 9.936,0 h -1.225 l -0.432,0.144 H 107.2 l -0.504,0.145 -0.432,0.144 -0.36,0.144 -0.576,0.288 -0.432,0.145 -0.36,0.288 -0.432,0.288 -0.433,0.288 -0.359,0.287 -0.433,0.288 -0.432,0.288 -0.216,0.433 -0.433,0.288 -0.287,0.432 -0.288,0.432 -0.288,0.433 -0.216,0.432 -0.288,0.432 -0.288,0.433 -0.143,0.428 -0.288,0.576 -0.071,0.432 -0.145,0.433 -0.144,0.576 v 0.575 l -0.145,0.433 v 1.296 -10.8 H 516.376 109.432 Z m 0,5.328 -2.736,0.72 -2.16,2.88 -0.288,1.872 0.145,248.472 1.512,2.592 2.664,1.44 398.952,-0.145 2.448,-1.584 1.368,-2.88 -0.145,-249.335 -1.512,-2.592 -2.736,-1.439 H 109.432 Z m 396.792,-5.328 3.6,0.576 4.248,2.88 2.376,4.464 0.288,2.88 v -10.8 268.632 h -10.512 l 3.6,-0.576 4.248,-2.88 2.376,-4.464 0.288,-2.881 -0.864,-257.976 z"
   id="path2343"
   inkscape:connector-curvature="0"
   style="fill:none;stroke:#7c3a00;stroke-width:1.00010002;stroke-miterlimit:10" />
</g>
<rect
   x="169.05305"
   y="41.62059"
   stroke-miterlimit="10"
   width="80.928001"
   height="79.848"
   id="rect2347"
   style="fill:none;stroke:#ffffff;stroke-width:2.0000999;stroke-miterlimit:10;stroke-dasharray:20.0013, 2.0001" />
<path
   stroke-miterlimit="10"
   d="m 158.03705,228.9646 v -8.136 0 0 0 c -2.448,-0.288 -4.32,-2.376 -4.32,-4.896 v 0 -13.176 0 -6.336 0 h 4.32 v 0 -8.063 0 h -4.32 v 0 -13.536 0 h -8.136 v 0 13.536 0 h -4.896 v 0 8.063 0 h 4.896 v 0 19.512 0 c 0,6.984 5.544,12.744 12.456,13.032 z"
   id="path2349"
   inkscape:connector-curvature="0"
   style="fill:#ffffff;stroke:#ffffff;stroke-width:0.21600001;stroke-linejoin:bevel;stroke-miterlimit:10" />
<polygon
   stroke-miterlimit="10"
   points="273.016,454.352 273.016,443.552 273.016,443.552 277.336,436.928 277.336,436.928 283.384,454.352 283.384,454.352 292.024,454.352 292.024,454.352 282.88,428.36 282.88,428.36 292.024,414.392 292.024,414.392 282.304,414.392 282.304,414.392 273.88,427.207 273.88,427.207 273.016,428.575 273.016,428.575 273.016,400.208 273.016,400.208 264.88,400.208 264.88,400.208 264.88,454.352 273.016,454.352 "
   id="polygon2351"
   style="fill:#ffffff;stroke:#ffffff;stroke-width:0.21600001;stroke-linejoin:bevel;stroke-miterlimit:10"
   transform="translate(-98.70695,-225.3874)" />
<polygon
   stroke-miterlimit="10"
   points="341.848,408.344 341.848,400.208 341.848,400.208 333.713,400.208 333.713,400.208 333.713,408.344 341.848,408.344 "
   id="polygon2353"
   style="fill:#ffffff;stroke:#ffffff;stroke-width:0.21600001;stroke-linejoin:bevel;stroke-miterlimit:10"
   transform="translate(-98.70695,-225.3874)" />
<polygon
   stroke-miterlimit="10"
   points="333.713,413.744 341.848,413.744 341.848,413.744 341.848,454.352 341.848,454.352 333.713,454.352 333.713,413.744 "
   id="polygon2355"
   style="fill:#ffffff;stroke:#ffffff;stroke-width:0.21600001;stroke-linejoin:bevel;stroke-miterlimit:10"
   transform="translate(-98.70695,-225.3874)" />
<polygon
   stroke-miterlimit="10"
   points="438.904,408.344 438.904,400.208 438.904,400.208 430.768,400.208 430.768,400.208 430.768,408.344 438.904,408.344 "
   id="polygon2357"
   style="fill:#ffffff;stroke:#ffffff;stroke-width:0.21600001;stroke-linejoin:bevel;stroke-miterlimit:10"
   transform="translate(-98.70695,-225.3874)" />
<polygon
   stroke-miterlimit="10"
   points="430.768,413.744 438.904,413.744 438.904,413.744 438.904,454.352 438.904,454.352 430.768,454.352 430.768,413.744 "
   id="polygon2359"
   style="fill:#ffffff;stroke:#ffffff;stroke-width:0.21600001;stroke-linejoin:bevel;stroke-miterlimit:10"
   transform="translate(-98.70695,-225.3874)" />
<polygon
   stroke-miterlimit="10"
   points="360.784,454.352 360.784,400.208 360.784,400.208 352.648,400.208 352.648,400.208 352.648,454.352 360.784,454.352 "
   id="polygon2361"
   style="fill:#ffffff;stroke:#ffffff;stroke-width:0.21600001;stroke-linejoin:bevel;stroke-miterlimit:10"
   transform="translate(-98.70695,-225.3874)" />
<path
   stroke-miterlimit="10"
   d="m 280.00605,188.3566 h -8.137 v 0 30.888 0 c 0,5.256 4.248,9.575 9.504,9.72 v 0 c 3.313,-0.072 6.553,-0.937 9.505,-2.521 v 0 2.521 0 h 8.136 v 0 -40.607 0 h -8.136 v 0 29.231 0 c 0,3.023 -2.448,5.399 -5.473,5.399 -2.952,0 -5.399,-2.376 -5.399,-5.399 v 0 z"
   id="path2363"
   inkscape:connector-curvature="0"
   style="fill:#ffffff;stroke:#ffffff;stroke-width:0.21600001;stroke-linejoin:bevel;stroke-miterlimit:10" />
<path
   stroke-miterlimit="10"
   d="m 323.92605,228.9646 v -8.136 0 0 0 c -2.448,-0.288 -4.32,-2.376 -4.32,-4.896 v 0 -13.176 0 -6.336 0 h 4.32 v 0 -8.063 0 h -4.32 v 0 -13.536 0 h -8.136 v 0 13.536 0 h -4.896 v 0 8.063 0 h 4.896 v 0 19.512 0 c 0,6.984 5.471,12.744 12.456,13.032 z"
   id="path2365"
   inkscape:connector-curvature="0"
   style="fill:#ffffff;stroke:#ffffff;stroke-width:0.21600001;stroke-linejoin:bevel;stroke-miterlimit:10" />
<path
   stroke-miterlimit="10"
   d="m 368.06105,202.3956 h -10.296 v 0 h -0.216 v 0 c -0.217,-2.016 0.72,-4.031 2.52,-5.111 1.729,-1.08 3.96,-1.08 5.688,0 1.8,1.08 2.735,3.096 2.592,5.111 v 0 h -0.288 l 8.424,-0.504 c 0,-7.416 -6.048,-13.464 -13.536,-13.464 -7.487,0 -13.607,6.048 -13.607,13.464 v 0 13.536 0 c 0,7.488 6.12,13.536 13.607,13.536 7.488,0 13.536,-6.048 13.536,-13.536 v 0 h -8.136 v 0 c 0,1.944 -1.008,3.744 -2.736,4.68 -1.656,1.009 -3.744,1.009 -5.399,0 -1.656,-0.936 -2.736,-2.735 -2.736,-4.68 v 0 -5.976 0 h 0.288 v 0 h 18.72 v 0 -7.561 z"
   id="path2367"
   inkscape:connector-curvature="0"
   style="fill:#ffffff;stroke:#ffffff;stroke-width:0.21600001;stroke-linejoin:bevel;stroke-miterlimit:10" />
<polygon
   stroke-miterlimit="10"
   points="161.92,454.136 161.92,418.928 161.92,418.928 175.456,454.136 175.456,454.136 188.992,418.928 188.992,418.928 188.992,454.136 188.992,454.136 197.128,454.136 197.128,454.136 197.128,399.992 197.128,399.992 187.408,399.992 187.408,399.992 181.432,416.048 181.432,416.048 175.456,431.455 175.456,431.455 169.48,416.048 169.48,416.048 163.504,399.992 163.504,399.992 153.784,399.992 153.784,399.992 153.784,454.136 161.92,454.136 "
   id="polygon2369"
   style="fill:#ffffff;stroke:#ffffff;stroke-width:0.21600001;stroke-linejoin:bevel;stroke-miterlimit:10"
   transform="translate(-98.70695,-225.3874)" />
<path
   stroke-miterlimit="10"
   d="m 133.79005,228.4606 h -8.067 v 0 -2.447 0 c -3.246,1.8 -6.991,2.736 -10.663,2.664 v 0 c -1.872,0.072 -3.672,-0.504 -5.112,-1.656 v 0 c -3.096,-3.456 -3.816,-8.352 -1.944,-12.528 v 0 c 4.032,-5.903 10.584,-9.575 17.719,-9.937 v 0 -5.543 0 c -0.794,-2.017 -2.813,-3.168 -4.903,-2.809 -2.016,0.432 -3.528,2.16 -3.528,4.32 v 0 h -8.136 v 0 c 0,-6.336 4.824,-11.664 11.16,-12.384 6.344,-0.648 12.178,3.6 13.474,9.792 v 0 30.528 l -8.067,-8.207 c -1.876,1.008 -3.823,1.799 -5.839,2.231 v 0 c -0.936,0.36 -1.944,0.288 -2.88,-0.144 -0.864,-0.433 -1.512,-1.225 -1.8,-2.232 v 0 c -0.144,-0.936 0,-1.944 0.288,-2.88 v 0 c 0.504,-1.728 1.44,-3.24 2.736,-4.392 v 0 c 2.16,-1.801 4.754,-3.097 7.495,-3.744 v 0 11.16 z"
   id="path2371"
   inkscape:connector-curvature="0"
   style="clip-rule:evenodd;fill:#ffffff;fill-rule:evenodd;stroke:#ffffff;stroke-width:0.21600001;stroke-linejoin:bevel;stroke-miterlimit:10" />
<path
   stroke-miterlimit="10"
   d="m 225.04005,228.7626 h -8.067 v 0 -2.447 0 c -3.246,1.8 -6.99,2.736 -10.663,2.664 v 0 c -1.872,0.072 -3.672,-0.504 -5.112,-1.656 v 0 c -3.096,-3.456 -3.815,-8.352 -1.943,-12.528 v 0 c 4.031,-5.903 10.584,-9.575 17.719,-9.937 v 0 -5.543 0 c -0.795,-2.017 -2.813,-3.168 -4.902,-2.809 -2.017,0.432 -3.528,2.16 -3.528,4.32 v 0 h -8.136 v 0 c 0,-6.336 4.824,-11.664 11.16,-12.384 6.344,-0.648 12.178,3.6 13.474,9.792 v 0 30.528 l -8.067,-8.207 c -1.876,1.008 -3.822,1.799 -5.839,2.231 v 0 c -0.937,0.36 -1.944,0.288 -2.88,-0.144 -0.864,-0.433 -1.512,-1.225 -1.801,-2.232 v 0 c -0.144,-0.936 0,-1.944 0.289,-2.88 v 0 c 0.504,-1.728 1.439,-3.24 2.735,-4.392 v 0 c 2.16,-1.801 4.755,-3.097 7.495,-3.744 v 0 11.16 z"
   id="path2373"
   inkscape:connector-curvature="0"
   style="clip-rule:evenodd;fill:#ffffff;fill-rule:evenodd;stroke:#ffffff;stroke-width:0.21600001;stroke-linejoin:bevel;stroke-miterlimit:10" />
</svg>