<?xml version="1.0" encoding="UTF-8" standalone="no"?>
<!-- Generator: Adobe Illustrator 15.1.0, SVG Export Plug-In . SVG Version: 6.00 Build 0)  -->

<svg
   xmlns:dc="http://purl.org/dc/elements/1.1/"
   xmlns:cc="http://creativecommons.org/ns#"
   xmlns:rdf="http://www.w3.org/1999/02/22-rdf-syntax-ns#"
   xmlns:svg="http://www.w3.org/2000/svg"
   xmlns="http://www.w3.org/2000/svg"
   xmlns:sodipodi="http://sodipodi.sourceforge.net/DTD/sodipodi-0.dtd"
   xmlns:inkscape="http://www.inkscape.org/namespaces/inkscape"
   version="1.1"
   id="Layer1"
   x="0px"
   y="0px"
   width="466.0481"
   height="381.44809"
   viewBox="0 0 466.0481 381.44809"
   xml:space="preserve"
   sodipodi:docname="772b.svg"
   inkscape:version="0.92.5 (2060ec1f9f, 2020-04-08)"><metadata
   id="metadata2504"><rdf:RDF><cc:Work
       rdf:about=""><dc:format>image/svg+xml</dc:format><dc:type
         rdf:resource="http://purl.org/dc/dcmitype/StillImage" /></cc:Work></rdf:RDF></metadata><defs
   id="defs2502" /><sodipodi:namedview
   pagecolor="#ffffff"
   bordercolor="#666666"
   borderopacity="1"
   objecttolerance="10"
   gridtolerance="10"
   guidetolerance="10"
   inkscape:pageopacity="0"
   inkscape:pageshadow="2"
   inkscape:window-width="640"
   inkscape:window-height="480"
   id="namedview2500"
   showgrid="false"
   inkscape:zoom="0.28028504"
   inkscape:cx="220.75205"
   inkscape:cy="188.94005"
   inkscape:window-x="0"
   inkscape:window-y="0"
   inkscape:window-maximized="0"
   inkscape:current-layer="Layer1" />
<g
   id="g2497"
   transform="translate(-76.74795,-228.49195)">
	<g
   id="g2475">
		<path
   style="clip-rule:evenodd;fill:#7c3a00;fill-rule:evenodd"
   d="m 99.784,240.08 h 421.92 c 5.832,0 10.584,4.68 10.584,10.512 V 587.84 c 0,5.832 -4.752,10.584 -10.584,10.584 H 99.784 c -5.832,0 -10.512,-4.752 -10.512,-10.584 V 250.592 c 0,-5.832 4.68,-10.512 10.512,-10.512 z"
   id="path2471"
   inkscape:connector-curvature="0" />
		
			<path
   style="clip-rule:evenodd;fill:none;fill-rule:evenodd;stroke:#7c3a00;stroke-width:0;stroke-linejoin:bevel;stroke-miterlimit:10"
   d="m 99.784,240.08 h 421.92 c 5.832,0 10.584,4.68 10.584,10.512 V 587.84 c 0,5.832 -4.752,10.584 -10.584,10.584 H 99.784 c -5.832,0 -10.512,-4.752 -10.512,-10.584 V 250.592 c 0,-5.832 4.68,-10.512 10.512,-10.512"
   id="path2473"
   inkscape:connector-curvature="0" />
	</g>
	<g
   id="g2487">
		<g
   id="g2479">
			<path
   style="clip-rule:evenodd;fill:#7c3a00;fill-rule:evenodd"
   d="m 309.736,229.496 h 210.96 c 11.664,0 21.096,9.432 21.096,21.096 V 587.84 c 0,5.616 -2.232,10.944 -6.12,14.904 -3.96,3.96 -9.36,6.192 -14.976,6.192 h -210.96 232.056 v -379.44 z m -210.888,0 H 309.736 77.752 v 0 379.44 H 309.736 98.848 c -11.664,0 -21.096,-9.432 -21.096,-21.096 V 250.592 c 0,-11.664 9.432,-21.096 21.096,-21.096 z"
   id="path2477"
   inkscape:connector-curvature="0" />
		</g>
		<g
   id="g2485">
			<path
   style="fill:#7c3a00"
   d="m 534.304,228.992 h 7.488 l 0.504,0.504 v 21.096 0 337.248 0 21.096 l -0.504,0.504 h -7.488 v -1.008 h 6.984 V 594.32 c -0.144,0.576 -0.36,1.224 -0.648,1.8 -0.144,0.432 -0.36,0.792 -0.504,1.224 -1.08,2.088 -2.448,4.032 -4.176,5.76 v 0 0 0 c -0.504,0.576 -1.08,1.08 -1.656,1.512 v -1.296 c 0.288,-0.288 0.648,-0.576 1.008,-0.936 v 0 0 0 c 1.584,-1.584 2.88,-3.456 3.888,-5.472 0.216,-0.432 0.36,-0.792 0.576,-1.224 1.008,-2.448 1.512,-5.112 1.512,-7.848 v 0 -337.248 0 c 0,-5.688 -2.304,-10.872 -5.976,-14.544 -0.36,-0.36 -0.72,-0.648 -1.008,-0.936 v -1.368 c 0.576,0.504 1.152,1.008 1.656,1.584 2.448,2.376 4.32,5.4 5.328,8.712 V 230 h -6.984 z m -224.568,0 h 210.96 v 0 h 13.608 V 230 h -7.056 c 2.592,0.792 4.968,2.088 7.056,3.744 v 1.368 C 530.632,231.944 525.88,230 520.696,230 v 0 H 309.736 Z M 534.304,609.44 h -13.608 -210.96 v -1.008 h 210.96 c 3.96,0 7.776,-1.152 11.016,-3.168 0.648,-0.432 1.296,-0.864 1.872,-1.368 0.216,-0.144 0.432,-0.36 0.72,-0.576 v 1.296 c -0.072,0.072 -0.072,0.072 -0.072,0.072 -0.648,0.504 -1.296,0.936 -1.944,1.368 -1.584,1.008 -3.312,1.8 -5.112,2.376 h 7.128 z M 98.848,228.992 H 309.736 V 230 H 98.848 v 0 c -5.184,0 -9.936,1.944 -13.608,5.112 v -1.368 c 2.088,-1.656 4.464,-2.952 7.056,-3.744 H 85.24 v -1.008 H 98.848 Z M 309.736,609.44 H 98.848 v 0 H 85.24 v -1.008 h 7.056 c -2.592,-0.864 -4.968,-2.088 -7.056,-3.816 v -1.296 c 3.672,3.168 8.424,5.112 13.608,5.112 v 0 h 210.888 z m -224.496,0 h -7.488 l -0.504,-0.504 v -21.096 0 -337.248 0 -21.096 h 0.504 v -0.504 H 85.24 V 230 h -6.984 v 14.04 c 1.008,-3.312 2.88,-6.336 5.328,-8.712 0.504,-0.576 1.08,-1.08 1.656,-1.584 v 1.368 c -0.288,0.288 -0.648,0.576 -1.008,0.936 -3.672,3.672 -5.976,8.856 -5.976,14.544 v 0 337.248 0 c 0,5.688 2.304,10.8 5.976,14.544 0.36,0.36 0.72,0.648 1.008,0.936 v 1.296 c -0.576,-0.432 -1.152,-1.008 -1.656,-1.512 -2.448,-2.448 -4.32,-5.4 -5.328,-8.784 v 14.112 h 6.984 z"
   id="path2481"
   inkscape:connector-curvature="0" />
			<path
   style="fill:none;stroke:#7c3a00;stroke-width:1.00010002;stroke-miterlimit:10"
   d="m 98.848,228.992 h 421.848 v 0 h 21.096 l 0.504,0.504 v 21.096 0 337.248 0 21.096 l -0.504,0.504 H 520.696 98.848 v 0 H 77.752 l -0.504,-0.504 v -21.096 0 -337.248 0 -21.096 h 0.504 v -0.504 H 98.848 Z M 520.696,230 H 98.848 v 0 c -5.688,0 -10.872,2.304 -14.616,6.048 -3.672,3.672 -5.976,8.856 -5.976,14.544 v 0 337.248 0 c 0,5.688 2.304,10.8 5.976,14.544 3.744,3.744 8.928,6.048 14.616,6.048 v 0 h 421.848 c 3.96,0 7.776,-1.152 11.016,-3.168 0.648,-0.432 1.296,-0.864 1.872,-1.368 0.576,-0.432 1.152,-0.936 1.728,-1.512 v 0 0 0 c 1.584,-1.584 2.88,-3.456 3.888,-5.472 0.216,-0.432 0.36,-0.792 0.576,-1.224 1.008,-2.448 1.512,-5.112 1.512,-7.848 v 0 -337.248 0 c 0,-5.688 -2.304,-10.872 -5.976,-14.544 C 531.568,232.304 526.384,230 520.696,230 Z m 6.552,0 c 3.312,1.08 6.336,2.88 8.712,5.328 2.448,2.376 4.32,5.4 5.328,8.712 V 230 Z m 14.04,364.32 c -0.144,0.576 -0.36,1.224 -0.648,1.8 -0.144,0.432 -0.36,0.792 -0.504,1.224 -1.08,2.088 -2.448,4.032 -4.176,5.76 v 0 0 0 c -0.576,0.576 -1.152,1.08 -1.728,1.584 -0.648,0.504 -1.296,0.936 -1.944,1.368 -1.584,1.008 -3.312,1.8 -5.112,2.376 h 14.112 z M 92.296,608.432 c -3.312,-1.08 -6.336,-2.88 -8.712,-5.328 -2.448,-2.448 -4.32,-5.4 -5.328,-8.784 v 14.112 z M 78.256,244.04 c 1.008,-3.312 2.88,-6.336 5.328,-8.712 2.376,-2.448 5.4,-4.248 8.712,-5.328 h -14.04 z"
   id="path2483"
   inkscape:connector-curvature="0" />
		</g>
	</g>
	<g
   id="g2495">
		<g
   id="g2491">
			<polygon
   style="clip-rule:evenodd;fill:#ffffff;fill-rule:evenodd"
   points="429.544,537.584 192.088,537.584 192.088,300.632 429.544,300.632 "
   id="polygon2489" />
		</g>
		<path
   style="clip-rule:evenodd;fill:#7c3a00;fill-rule:evenodd"
   d="m 310.96,374.36 0.648,-0.648 44.352,45.504 -38.52,38.808 0.144,49.104 c 0.504,3.384 1.152,5.4 3.456,7.488 2.88,1.944 5.76,3.312 10.224,2.664 4.464,-1.152 3.168,-0.792 7.416,-2.16 45.144,-13.464 72.36,-55.224 72.576,-96.552 -2.376,-48.528 -33.624,-96.192 -100.296,-99.36 v 0 18.288 c 0.288,0 0.576,0 0.864,-0.072 43.344,1.08 80.352,34.488 80.496,82.152 0.072,37.584 -25.272,66.6 -56.016,76.752 l 0.144,-0.216 -0.144,-0.432 v -30.168 l 45.864,-46.44 -70.848,-70.992 -0.36,0.36 z m -6.264,132.984 v -49.68 L 266.464,419.072 310.96,374.36 v -25.92 l -71.064,70.632 45.936,45.936 0.216,31.968 -0.216,-0.36 c -7.776,-2.88 -14.616,-6.48 -21.456,-10.656 -19.728,-15.696 -33.84,-35.424 -34.704,-66.888 1.728,-41.832 30.6,-80.136 81.288,-81.576 v -18.288 c -57.384,3.096 -94.896,39.384 -100.224,97.848 0.072,47.88 33.408,91.224 81.36,100.368 5.76,0.144 9,-2.16 10.44,-4.104 1.512,-2.376 2.088,-3.744 2.16,-5.976 z"
   id="path2493"
   inkscape:connector-curvature="0" />
	</g>
</g>
</svg>