<?xml version="1.0" encoding="iso-8859-1"?>
<!-- Generator: Adobe Illustrator 15.1.0, SVG Export Plug-In . SVG Version: 6.00 Build 0)  -->
<!DOCTYPE svg PUBLIC "-//W3C//DTD SVG 1.1//EN" "http://www.w3.org/Graphics/SVG/1.1/DTD/svg11.dtd">
<svg version="1.1" xmlns="http://www.w3.org/2000/svg" xmlns:xlink="http://www.w3.org/1999/xlink" x="0px" y="0px" width="595px"
	 height="842px" viewBox="0 0 595 842" style="enable-background:new 0 0 595 842;" xml:space="preserve">
<g id="Layer1">
</g>
<g id="Layer_2">
	<g>
		<g>
			<g>
				<path style="fill-rule:evenodd;clip-rule:evenodd;fill:#7C3A00;" d="M99.784,240.08h421.92c5.832,0,10.584,4.68,10.584,10.512
					V587.84c0,5.832-4.752,10.584-10.584,10.584H99.784c-5.832,0-10.512-4.752-10.512-10.584V250.592
					C89.272,244.76,93.952,240.08,99.784,240.08L99.784,240.08z"/>
				
					<path style="fill-rule:evenodd;clip-rule:evenodd;fill:none;stroke:#7C3A00;stroke-width:0;stroke-linejoin:bevel;stroke-miterlimit:10;" d="
					M99.784,240.08h421.92c5.832,0,10.584,4.68,10.584,10.512V587.84c0,5.832-4.752,10.584-10.584,10.584H99.784
					c-5.832,0-10.512-4.752-10.512-10.584V250.592C89.272,244.76,93.952,240.08,99.784,240.08"/>
			</g>
			
				<rect x="192.088" y="537.584" style="fill-rule:evenodd;clip-rule:evenodd;fill:#FFFFFF;stroke:#000000;stroke-width:0.216;stroke-linejoin:bevel;stroke-miterlimit:10;" width="0" height="0"/>
			
				<rect x="192.088" y="537.584" style="fill-rule:evenodd;clip-rule:evenodd;fill:#FFFFFF;stroke:#000000;stroke-width:0.216;stroke-linejoin:bevel;stroke-miterlimit:10;" width="0" height="0"/>
			<g>
				<polygon style="fill-rule:evenodd;clip-rule:evenodd;fill:#FFFFFF;" points="192.088,300.632 429.544,300.632 429.544,537.584 
					192.088,537.584 192.088,300.632 				"/>
			</g>
			
				<rect x="428.176" y="537.944" style="fill-rule:evenodd;clip-rule:evenodd;fill:none;stroke:#000000;stroke-width:0;stroke-linejoin:bevel;stroke-miterlimit:10;" width="0" height="0"/>
			
				<rect x="428.176" y="537.944" style="fill-rule:evenodd;clip-rule:evenodd;fill:none;stroke:#000000;stroke-width:0;stroke-linejoin:bevel;stroke-miterlimit:10;" width="0" height="0"/>
			
				<rect x="428.176" y="537.944" style="fill-rule:evenodd;clip-rule:evenodd;fill:none;stroke:#000000;stroke-width:0;stroke-linejoin:bevel;stroke-miterlimit:10;" width="0" height="0"/>
			<g>
				<g>
					<path style="fill-rule:evenodd;clip-rule:evenodd;fill:#7C3A00;" d="M309.736,229.496h210.96
						c11.664,0,21.096,9.432,21.096,21.096V587.84c0,5.616-2.232,10.944-6.12,14.904c-3.96,3.96-9.36,6.192-14.976,6.192h-210.96
						h232.056v-379.44H309.736z M98.848,229.496h210.888H77.752l0,0v379.44h231.984H98.848c-11.664,0-21.096-9.432-21.096-21.096
						V250.592C77.752,238.928,87.184,229.496,98.848,229.496L98.848,229.496z"/>
				</g>
				<g>
					<path style="fill:#7C3A00;" d="M534.304,228.992h7.488l0.504,0.504v21.096l0,0V587.84l0,0v21.096l-0.504,0.504h-7.488v-1.008
						h6.984V594.32c-0.144,0.576-0.36,1.224-0.648,1.8c-0.144,0.432-0.36,0.792-0.504,1.224c-1.08,2.088-2.448,4.032-4.176,5.76l0,0
						l0,0l0,0c-0.504,0.576-1.08,1.08-1.656,1.512v-1.296c0.288-0.288,0.648-0.576,1.008-0.936l0,0l0,0l0,0
						c1.584-1.584,2.88-3.456,3.888-5.472c0.216-0.432,0.36-0.792,0.576-1.224c1.008-2.448,1.512-5.112,1.512-7.848l0,0V250.592l0,0
						c0-5.688-2.304-10.872-5.976-14.544c-0.36-0.36-0.72-0.648-1.008-0.936v-1.368c0.576,0.504,1.152,1.008,1.656,1.584
						c2.448,2.376,4.32,5.4,5.328,8.712V230h-6.984V228.992z M309.736,228.992h210.96l0,0h13.608V230h-7.056
						c2.592,0.792,4.968,2.088,7.056,3.744v1.368c-3.672-3.168-8.424-5.112-13.608-5.112l0,0h-210.96V228.992L309.736,228.992z
						 M534.304,609.44h-13.608h-210.96v-1.008h210.96c3.96,0,7.776-1.152,11.016-3.168c0.648-0.432,1.296-0.864,1.872-1.368
						c0.216-0.144,0.432-0.36,0.72-0.576v1.296c-0.072,0.072-0.072,0.072-0.072,0.072c-0.648,0.504-1.296,0.936-1.944,1.368
						c-1.584,1.008-3.312,1.8-5.112,2.376h7.128V609.44z M98.848,228.992h210.888V230H98.848l0,0c-5.184,0-9.936,1.944-13.608,5.112
						v-1.368c2.088-1.656,4.464-2.952,7.056-3.744H85.24v-1.008H98.848L98.848,228.992L98.848,228.992z M309.736,609.44H98.848l0,0
						H85.24v-1.008h7.056c-2.592-0.864-4.968-2.088-7.056-3.816v-1.296c3.672,3.168,8.424,5.112,13.608,5.112l0,0h210.888V609.44z
						 M85.24,609.44h-7.488l-0.504-0.504V587.84l0,0V250.592l0,0v-21.096h0.504v-0.504h7.488V230h-6.984v14.04
						c1.008-3.312,2.88-6.336,5.328-8.712c0.504-0.576,1.08-1.08,1.656-1.584v1.368c-0.288,0.288-0.648,0.576-1.008,0.936
						c-3.672,3.672-5.976,8.856-5.976,14.544l0,0V587.84l0,0c0,5.688,2.304,10.8,5.976,14.544c0.36,0.36,0.72,0.648,1.008,0.936
						v1.296c-0.576-0.432-1.152-1.008-1.656-1.512c-2.448-2.448-4.32-5.4-5.328-8.784v14.112h6.984V609.44z"/>
					<path style="fill:none;stroke:#7C3A00;stroke-width:1.0001;stroke-miterlimit:10;" d="M98.848,228.992h421.848l0,0h21.096
						l0.504,0.504v21.096l0,0V587.84l0,0v21.096l-0.504,0.504h-21.096H98.848l0,0H77.752l-0.504-0.504V587.84l0,0V250.592l0,0
						v-21.096h0.504v-0.504H98.848L98.848,228.992L98.848,228.992z M520.696,230H98.848l0,0c-5.688,0-10.872,2.304-14.616,6.048
						c-3.672,3.672-5.976,8.856-5.976,14.544l0,0V587.84l0,0c0,5.688,2.304,10.8,5.976,14.544c3.744,3.744,8.928,6.048,14.616,6.048
						l0,0h421.848c3.96,0,7.776-1.152,11.016-3.168c0.648-0.432,1.296-0.864,1.872-1.368c0.576-0.432,1.152-0.936,1.728-1.512l0,0
						l0,0l0,0c1.584-1.584,2.88-3.456,3.888-5.472c0.216-0.432,0.36-0.792,0.576-1.224c1.008-2.448,1.512-5.112,1.512-7.848l0,0
						V250.592l0,0c0-5.688-2.304-10.872-5.976-14.544C531.568,232.304,526.384,230,520.696,230L520.696,230L520.696,230z
						 M527.248,230c3.312,1.08,6.336,2.88,8.712,5.328c2.448,2.376,4.32,5.4,5.328,8.712V230H527.248L527.248,230z M541.288,594.32
						c-0.144,0.576-0.36,1.224-0.648,1.8c-0.144,0.432-0.36,0.792-0.504,1.224c-1.08,2.088-2.448,4.032-4.176,5.76l0,0l0,0l0,0
						c-0.576,0.576-1.152,1.08-1.728,1.584c-0.648,0.504-1.296,0.936-1.944,1.368c-1.584,1.008-3.312,1.8-5.112,2.376h14.112V594.32
						L541.288,594.32z M92.296,608.432c-3.312-1.08-6.336-2.88-8.712-5.328c-2.448-2.448-4.32-5.4-5.328-8.784v14.112H92.296
						L92.296,608.432z M78.256,244.04c1.008-3.312,2.88-6.336,5.328-8.712c2.376-2.448,5.4-4.248,8.712-5.328h-14.04V244.04z"/>
				</g>
			</g>
		</g>
		<g>
			
				<rect x="192.088" y="530.384" style="fill-rule:evenodd;clip-rule:evenodd;fill:#FFFFFF;stroke:#000000;stroke-width:0.216;stroke-linejoin:bevel;stroke-miterlimit:10;" width="0" height="0"/>
			
				<rect x="192.088" y="530.384" style="fill-rule:evenodd;clip-rule:evenodd;fill:#FFFFFF;stroke:#000000;stroke-width:0.216;stroke-linejoin:bevel;stroke-miterlimit:10;" width="0" height="0"/>
			<g>
				<polygon style="fill-rule:evenodd;clip-rule:evenodd;fill:#FFFFFF;" points="192.088,299.48 429.544,299.48 429.544,530.384 
					192.088,530.384 192.088,299.48 				"/>
			</g>
			<g>
				
					<polygon style="fill-rule:evenodd;clip-rule:evenodd;fill:none;stroke:#F6EC13;stroke-width:0;stroke-linejoin:bevel;stroke-miterlimit:10;" points="
					429.616,530.744 429.616,530.744 429.616,530.744 429.616,530.816 				"/>
				
					<polygon style="fill-rule:evenodd;clip-rule:evenodd;fill:none;stroke:#F6EC13;stroke-width:0;stroke-linejoin:bevel;stroke-miterlimit:10;" points="
					192.664,530.744 192.664,530.744 192.664,530.744 192.664,530.816 				"/>
			</g>
			<g>
				
					<polygon style="fill-rule:evenodd;clip-rule:evenodd;fill:none;stroke:#F6EC13;stroke-width:0;stroke-linejoin:bevel;stroke-miterlimit:10;" points="
					429.616,530.744 429.616,530.744 429.616,530.744 429.616,530.816 				"/>
				
					<polygon style="fill-rule:evenodd;clip-rule:evenodd;fill:none;stroke:#F6EC13;stroke-width:0;stroke-linejoin:bevel;stroke-miterlimit:10;" points="
					192.664,530.744 192.664,530.744 192.664,530.744 192.664,530.816 				"/>
			</g>
			
				<line style="fill-rule:evenodd;clip-rule:evenodd;fill:none;stroke:#000000;stroke-width:0.0295;stroke-miterlimit:10;" x1="191.584" y1="530.744" x2="191.656" y2="530.744"/>
			
				<line style="fill-rule:evenodd;clip-rule:evenodd;fill:none;stroke:#000000;stroke-width:0.0295;stroke-miterlimit:10;" x1="191.584" y1="530.744" x2="191.656" y2="530.744"/>
			<g>
				<g>
					<path style="fill-rule:evenodd;clip-rule:evenodd;fill:#FFFFFF;" d="M265.816,492.368l1.152-28.584
						c25.416-7.848,50.112-17.928,73.8-30.096c8.352-4.68,16.272-10.08,23.688-16.128c11.808-9.576,21.096-21.816,27.288-35.712
						l-7.848,17.136c-10.008,17.064-24.624,30.96-42.192,40.104c-21.312,13.392-43.92,24.408-67.68,32.76l-1.44,4.968
						C271,482.288,268.768,487.472,265.816,492.368L265.816,492.368L265.816,492.368L265.816,492.368L265.816,492.368
						L265.816,492.368z"/>
				</g>
				<polygon style="fill:#733907;" points="334.144,433.544 318.016,433.472 318.016,456.728 318.736,465.728 320.32,471.848 
					323.2,477.464 327.592,483.08 333.064,487.688 339.328,491.072 347.968,494.384 357.04,496.184 367.768,496.184 
					373.168,495.464 378.208,493.664 381.88,491 384.472,487.256 385.768,482.864 386.488,475.016 385.408,467.096 382.744,458.744 
					378.352,451.112 371.728,444.704 364.024,439.664 355.528,436.136 344.944,434.192 				"/>
				<polygon style="fill:#733907;" points="317.872,433.256 334.144,433.328 334.144,433.472 334.144,433.328 344.944,433.976 
					344.944,433.976 344.944,433.976 355.6,435.92 355.6,435.992 355.6,435.92 364.168,439.448 364.168,439.448 364.168,439.448 
					371.872,444.56 371.872,444.56 371.872,444.56 378.496,450.968 378.424,451.112 378.496,451.04 382.96,458.672 382.96,458.672 
					382.96,458.672 385.624,467.096 385.552,467.096 385.624,467.096 386.704,474.944 386.704,475.016 386.704,475.016 
					385.984,482.936 385.912,482.936 385.984,482.936 384.688,487.328 384.688,487.328 384.688,487.328 382.024,491.072 
					382.024,491.144 382.024,491.144 378.352,493.808 378.28,493.736 378.352,493.808 373.168,495.68 373.168,495.68 
					373.168,495.68 367.768,496.4 367.768,496.328 367.768,496.4 357.04,496.4 357.04,496.328 357.04,496.4 347.968,494.6 
					347.968,494.6 347.968,494.6 339.256,491.288 339.328,491.144 339.256,491.288 332.92,487.904 332.92,487.904 332.92,487.904 
					327.448,483.296 327.448,483.224 327.448,483.224 323.056,477.536 323.128,477.536 322.984,477.536 320.176,471.92 
					320.176,471.92 320.176,471.848 318.52,465.728 318.592,465.728 318.52,465.728 317.8,456.728 317.944,456.728 317.8,456.728 
					317.8,433.4 317.872,433.4 				"/>
				<g>
					<path style="fill-rule:evenodd;clip-rule:evenodd;fill:#A55335;" d="M302.104,422.816v-26.928V422.816L302.104,422.816z
						 M297.568,422.816L297.568,422.816h4.536H297.568L297.568,422.816z M302.104,422.816v-26.928V422.816L302.104,422.816z
						 M302.104,395.888l-0.288-8.856l-1.584-8.784l-2.664-7.56l2.664,7.56l1.584,8.784L302.104,395.888l-4.536-16.92
						L302.104,395.888z M297.568,422.816L297.568,422.816h-26.352v-0.288L297.568,422.816L297.568,422.816z M297.568,370.688
						l-0.288-0.864l-4.248-7.776l4.536,16.92l-4.536-16.92l4.248,7.776L297.568,370.688L297.568,370.688z M293.032,362.048
						l-7.776-7.416l-8.856-6.12l-9.648-4.752l-2.664-0.864l2.664,0.864l9.648,4.752l8.856,6.12L293.032,362.048l-28.944-11.664
						L293.032,362.048L293.032,362.048z M264.088,422.384l7.128,0.432l-7.128-3.24l7.128,3.24L264.088,422.384z M264.088,342.896
						l-7.56-2.376l-10.584-1.728l-10.728-0.072l28.872,11.664l-28.872-11.664l10.728,0.072l10.584,1.728L264.088,342.896
						L264.088,342.896z M235.216,338.72l-5.832,0.216l-5.544,1.728l-0.792,0.432l0.792-0.432l5.544-1.728L235.216,338.72
						l-12.168,10.008L235.216,338.72L235.216,338.72z M223.048,401.72l4.392,4.608l7.56,5.832l8.352,4.68l9,3.384l9.288,2.016
						l2.448,0.144l-2.448-0.144l-9.288-2.016l-9-3.384L235,412.16l-7.56-5.832L223.048,401.72L223.048,401.72z M264.088,419.576
						l-41.04-19.152L264.088,419.576z M223.048,341.096l-4.176,2.664l-3.384,3.6l3.384-3.6L223.048,341.096L223.048,341.096z
						 M215.488,354.992l7.56-6.264L215.488,354.992L215.488,354.992z M215.488,390.344l0.792,1.8l4.536,7.272l-5.328-21.744
						l5.328,21.744l-4.536-7.272L215.488,390.344L215.488,390.344z M220.816,399.416l2.232,2.304L220.816,399.416l2.232,1.008
						L220.816,399.416z M215.488,347.36l-0.576,0.576l-2.736,5.184l-1.296,5.688l4.608-3.816l-4.608,3.816l1.296-5.688l2.736-5.184
						L215.488,347.36L215.488,347.36z M210.88,358.808l-0.648,8.568l0.648,8.568l2.088,8.28l2.52,6.12l-2.52-6.12l-2.088-8.28
						l-0.648-8.568L210.88,358.808l4.608,18.864L210.88,358.808z"/>
				</g>
				<polygon style="fill:#733907;" points="271.36,422.744 278.992,422.744 271.36,422.672 				"/>
				<polygon style="fill:#733907;" points="302.104,395.888 302.176,395.888 302.176,422.816 302.104,422.816 302.104,422.96 
					302.104,422.96 271.216,422.96 271.216,422.96 271.144,422.96 271.144,422.96 261.64,422.312 261.64,422.312 261.64,422.312 
					252.28,420.368 252.28,420.368 252.28,420.368 243.352,416.984 243.352,416.984 243.352,416.984 234.928,412.232 
					234.928,412.232 234.928,412.232 227.368,406.4 227.368,406.4 227.368,406.4 220.744,399.488 220.816,399.416 220.744,399.488 
					216.136,392.216 216.136,392.216 216.136,392.216 212.824,384.296 212.824,384.296 212.824,384.296 210.808,375.944 
					210.808,375.944 210.808,375.944 210.088,367.376 210.088,367.376 210.088,367.376 210.808,358.808 210.88,358.808 
					210.808,358.808 212.104,353.12 212.104,353.12 212.104,353.048 214.84,347.936 214.84,347.936 214.84,347.864 218.8,343.688 
					218.8,343.616 218.8,343.616 223.768,340.52 223.768,340.52 223.768,340.52 229.312,338.792 229.384,338.792 229.384,338.792 
					235.216,338.648 235.216,338.72 235.216,338.648 245.944,338.72 245.944,338.72 245.944,338.72 256.528,340.376 
					256.528,340.376 256.6,340.376 266.824,343.688 266.824,343.688 266.824,343.688 276.472,348.44 276.472,348.44 276.472,348.44 
					285.256,354.56 285.328,354.56 285.328,354.56 293.104,361.976 293.032,362.048 293.104,361.976 297.424,369.824 
					297.424,369.824 297.424,369.824 300.304,378.176 300.304,378.248 300.304,378.248 301.96,386.96 301.96,387.032 
					301.96,387.032 302.176,395.888 				"/>
				<polygon style="fill:#733907;" points="302.032,422.744 302.032,395.888 302.032,395.888 301.744,387.032 300.088,378.248 
					297.208,369.896 292.96,362.12 285.184,354.704 276.328,348.584 266.752,343.832 256.528,340.592 245.944,338.936 
					235.216,338.792 235.216,338.792 229.384,339.008 223.84,340.736 218.944,343.832 214.984,348.008 212.32,353.192 
					211.024,358.808 210.304,367.376 211.024,375.872 213.04,384.224 216.352,392.072 220.888,399.344 227.512,406.256 
					235.072,412.088 243.424,416.768 252.352,420.152 261.64,422.096 271.144,422.744 271.144,422.528 271.144,422.456 
					271.216,422.456 				"/>
				<polygon style="fill:#733907;" points="318.232,422.744 318.232,395.888 318.232,395.888 318.52,387.032 320.104,378.248 
					323.128,369.896 327.376,362.12 335.152,354.704 343.936,348.584 353.584,343.832 363.808,340.592 374.392,338.936 
					385.12,338.792 385.12,338.792 390.88,339.008 396.424,340.736 401.32,343.832 405.28,348.008 408.016,353.192 409.312,358.808 
					410.032,367.376 409.312,375.872 407.296,384.224 403.984,392.072 399.376,399.344 392.824,406.256 385.264,412.088 
					376.912,416.768 367.912,420.152 358.624,422.096 349.192,422.744 349.192,422.528 349.192,422.456 349.048,422.456 				"/>
				<polygon style="fill:#47472C;" points="285.904,433.472 285.904,433.328 302.104,433.256 302.104,433.4 302.176,433.4 
					302.176,456.728 302.176,456.728 301.456,465.728 301.384,465.728 301.456,465.728 299.8,471.848 299.8,471.92 299.8,471.92 
					297.064,477.536 296.92,477.536 296.992,477.536 292.6,483.224 292.6,483.224 292.6,483.296 287.128,487.904 287.128,487.904 
					287.128,487.904 280.792,491.288 280.72,491.144 280.792,491.288 272.152,494.6 272.152,494.6 272.08,494.6 263.008,496.4 
					263.008,496.328 263.008,496.4 252.28,496.4 252.28,496.328 252.28,496.4 246.88,495.68 246.88,495.68 246.88,495.68 
					241.768,493.808 241.768,493.736 241.696,493.808 238.024,491.144 238.024,491.144 238.024,491.072 235.36,487.328 
					235.36,487.328 235.36,487.328 234.064,482.936 234.136,482.936 234.064,482.936 233.344,475.016 233.344,475.016 
					233.344,474.944 234.424,467.096 234.496,467.096 234.424,467.096 237.088,458.672 237.088,458.672 237.088,458.672 
					241.48,451.04 241.624,451.112 241.552,450.968 248.176,444.56 248.176,444.56 248.176,444.56 255.88,439.448 255.88,439.448 
					255.88,439.448 264.448,435.92 264.448,435.992 264.448,435.92 275.104,433.976 275.104,433.976 275.104,433.976 
					285.904,433.328 				"/>
				<polygon style="fill:#733907;" points="301.96,433.472 285.904,433.544 275.104,434.192 264.52,436.136 256.024,439.664 
					248.32,444.704 241.696,451.112 237.304,458.744 234.64,467.096 233.56,475.016 234.28,482.864 235.576,487.256 238.168,491 
					241.84,493.664 246.952,495.464 252.28,496.184 263.008,496.184 272.08,494.384 280.72,491.072 286.984,487.688 292.456,483.08 
					296.848,477.464 299.656,471.848 301.24,465.728 301.96,456.728 				"/>
			</g>
		</g>
	</g>
</g>
</svg>
