<?xml version="1.0" encoding="iso-8859-1"?>
<!-- Generator: Adobe Illustrator 15.1.0, SVG Export Plug-In . SVG Version: 6.00 Build 0)  -->
<!DOCTYPE svg PUBLIC "-//W3C//DTD SVG 1.1//EN" "http://www.w3.org/Graphics/SVG/1.1/DTD/svg11.dtd">
<svg version="1.1" id="DEFPOINTS" xmlns="http://www.w3.org/2000/svg" xmlns:xlink="http://www.w3.org/1999/xlink" x="0px" y="0px"
	 width="595px" height="842px" viewBox="0 0 595 842" style="enable-background:new 0 0 595 842;" xml:space="preserve">
<g>
	<g>
		<path style="fill-rule:evenodd;clip-rule:evenodd;fill:#7C3A00;" d="M363.088,241.952h146.448c5.832,0,10.512,4.68,10.512,10.512
			v337.248c0,5.832-4.68,10.512-10.512,10.512H363.088v-60.768h54.216V302.504h-54.216V241.952L363.088,241.952z M363.088,530.24
			L363.088,530.24l8.856-0.864l8.424-2.52l7.848-4.176l6.84-5.544l5.616-6.768l4.176-7.776l2.592-8.424l0.864-8.712l-0.864-8.784
			l-2.592-8.352l-4.176-7.776l-5.616-6.768l-6.84-5.616l-7.848-4.104l-8.424-2.592l-8.856-0.792l0,0l0,0v23.544l0,0l0,0l6.624,1.008
			l5.976,3.024l4.752,4.68l3.024,5.976l1.008,6.552l-1.008,6.552l-3.024,5.904l-4.752,4.68l-5.976,3.024l-6.624,1.008l0,0V530.24
			L363.088,530.24z M363.088,402.944L363.088,402.944L363.088,402.944l8.856-0.864l8.424-2.52l7.848-4.104l6.84-5.616l5.616-6.768
			l4.176-7.776l2.592-8.352l0.864-8.784l-0.864-8.712l-2.592-8.424l-4.176-7.776l-5.616-6.768l-6.84-5.544l-7.848-4.176l-8.424-2.52
			l-8.856-0.864l0,0v23.544l0,0l6.624,1.08l5.976,3.024l4.752,4.68l3.024,5.904l1.008,6.552l-1.008,6.552l-3.024,5.904l-4.752,4.752
			l-5.976,3.024l-6.624,1.008l0,0l0,0V402.944z M298.576,241.952h64.512v60.552h-64.512V241.952L298.576,241.952z M363.088,600.224
			h-64.512v-60.768h64.512V600.224L363.088,600.224z M363.088,313.376v23.544l-6.624,1.08l-5.976,3.024l-4.68,4.68l-3.096,5.904
			l-1.008,6.552l0,0v21.24l0,0l0,0l0,0h21.384v23.544h-21.384l0,0v37.728l0,0h21.384v23.544h-21.384l0,0l0,0l0,0v21.24l0,0
			l1.008,6.552l3.096,5.904l4.68,4.68l5.976,3.024l6.624,1.008v23.616l-8.784-0.864l-8.496-2.52l-7.848-4.176l-6.84-5.544
			l-5.616-6.768l-4.176-7.776l-2.52-8.424l-0.864-8.712l0,0v-21.24l0,0h-19.368v-23.544h19.368v-37.728h-19.368V379.4h19.368l0,0
			v-21.24l0,0l0.864-8.712l2.52-8.424l4.176-7.776l5.616-6.768l6.84-5.544l7.848-4.176l8.496-2.52L363.088,313.376z
			 M234.712,241.952h63.864v60.552h-63.864V241.952L234.712,241.952z M298.576,600.224h-63.864v-60.768h63.864V600.224
			L298.576,600.224z M298.576,379.4v23.544h-18.648v37.728h18.648v23.544h-18.648l0,0v21.24l0,0l-0.864,8.712l-2.592,8.424
			l-4.176,7.776l-5.616,6.768l-6.84,5.544l-7.776,4.176l-8.496,2.52l-8.856,0.864v-23.616l6.624-1.008l5.976-3.024l4.752-4.68
			l3.024-5.904l1.08-6.552l0,0v-21.24l0,0l0,0l0,0h-21.456v-23.544h21.456l0,0v-37.728l0,0h-21.456V379.4l0,0h21.456l0,0l0,0l0,0
			v-21.24l0,0l-1.08-6.552l-3.024-5.904l-4.752-4.68L241.336,338l-6.624-1.08v-23.544l8.856,0.864l8.496,2.52l7.776,4.176
			l6.84,5.544l5.616,6.768l4.176,7.776l2.592,8.424l0.864,8.712l0,0v21.24l0,0l0,0l0,0H298.576z M87.616,241.952h147.096v60.552
			H179.92l0,0v236.952h54.792v60.768H87.616c-5.832,0-10.512-4.68-10.512-10.512V252.464
			C77.104,246.632,81.784,241.952,87.616,241.952L87.616,241.952L87.616,241.952z M234.712,313.376L234.712,313.376l-8.784,0.864
			l-8.496,2.52l-7.776,4.176l-6.84,5.544l-5.616,6.768l-4.176,7.776l-2.592,8.424l-0.864,8.712l0.864,8.784l2.592,8.352l4.176,7.776
			l5.616,6.768l6.84,5.616l7.776,4.104l8.496,2.52l8.784,0.864l0,0l0,0V379.4l-6.552-1.008l-5.976-3.024l-4.752-4.752l-3.024-5.904
			l-1.08-6.552l1.08-6.552l3.024-5.904l4.752-4.68L228.16,338l6.552-1.08V313.376L234.712,313.376z M234.712,440.672
			L234.712,440.672L234.712,440.672l-8.784,0.792l-8.496,2.592l-7.776,4.104l-6.84,5.616l-5.616,6.768l-4.176,7.776l-2.592,8.352
			l-0.864,8.784l0.864,8.712l2.592,8.424l4.176,7.776l5.616,6.768l6.84,5.544l7.776,4.176l8.496,2.52l8.784,0.864l0,0v-23.616
			l-6.552-1.008l-5.976-3.024l-4.752-4.68l-3.024-5.904l-1.08-6.552l1.08-6.552l3.024-5.976l4.752-4.68l5.976-3.024l6.552-1.008
			V440.672L234.712,440.672z M234.712,379.4"/>
		
			<path style="fill-rule:evenodd;clip-rule:evenodd;fill:none;stroke:#7C3A00;stroke-width:0;stroke-linejoin:bevel;stroke-miterlimit:10;" d="
			M87.616,241.952h421.92c5.832,0,10.512,4.68,10.512,10.512v337.248c0,5.832-4.68,10.512-10.512,10.512H87.616
			c-5.832,0-10.512-4.68-10.512-10.512V252.464C77.104,246.632,81.784,241.952,87.616,241.952 M179.92,302.504h237.384v236.952
			H179.92V302.504 M279.928,379.4v-21.24l0,0l-0.864-8.712l-2.592-8.424l-4.176-7.776l-5.616-6.768l-6.84-5.544l-7.776-4.176
			l-8.496-2.52l-8.856-0.864l-8.784,0.864l-8.496,2.52l-7.776,4.176l-6.84,5.544l-5.616,6.768l-4.176,7.776l-2.592,8.424
			l-0.864,8.712l0.864,8.784l2.592,8.352l4.176,7.776l5.616,6.768l6.84,5.616l7.776,4.104l8.496,2.52l8.784,0.864l0,0h21.456l0,0
			v37.728l0,0h-21.456l0,0l-8.784,0.792l-8.496,2.592l-7.776,4.104l-6.84,5.616l-5.616,6.768l-4.176,7.776l-2.592,8.352
			l-0.864,8.784l0.864,8.712l2.592,8.424l4.176,7.776l5.616,6.768l6.84,5.544l7.776,4.176l8.496,2.52l8.784,0.864l8.856-0.864
			l8.496-2.52l7.776-4.176l6.84-5.544l5.616-6.768l4.176-7.776l2.592-8.424l0.864-8.712l0,0v-21.24l0,0h38.016l0,0v21.24l0,0
			l0.864,8.712l2.52,8.424l4.176,7.776l5.616,6.768l6.84,5.544l7.848,4.176l8.496,2.52l8.784,0.864l8.856-0.864l8.424-2.52
			l7.848-4.176l6.84-5.544l5.616-6.768l4.176-7.776l2.592-8.424l0.864-8.712l-0.864-8.784l-2.592-8.352l-4.176-7.776l-5.616-6.768
			l-6.84-5.616l-7.848-4.104l-8.424-2.592l-8.856-0.792l0,0h-21.384l0,0v-37.728l0,0h21.384l0,0l8.856-0.864l8.424-2.52l7.848-4.104
			l6.84-5.616l5.616-6.768l4.176-7.776l2.592-8.352l0.864-8.784l-0.864-8.712l-2.592-8.424l-4.176-7.776l-5.616-6.768l-6.84-5.544
			l-7.848-4.176l-8.424-2.52l-8.856-0.864l-8.784,0.864l-8.496,2.52l-7.848,4.176l-6.84,5.544l-5.616,6.768l-4.176,7.776
			l-2.52,8.424l-0.864,8.712l0,0v21.24l0,0H279.928L279.928,379.4L279.928,379.4L279.928,379.4L279.928,379.4z M279.928,402.944
			h38.016v37.728h-38.016V402.944L279.928,402.944z M256.168,379.4h-21.456l0,0l-6.552-1.008l-5.976-3.024l-4.752-4.752
			l-3.024-5.904l-1.08-6.552l1.08-6.552l3.024-5.904l4.752-4.68L228.16,338l6.552-1.08l6.624,1.08l5.976,3.024l4.752,4.68
			l3.024,5.904l1.08,6.552l0,0V379.4L256.168,379.4L256.168,379.4L256.168,379.4L256.168,379.4z M341.704,379.4h21.384l0,0
			l6.624-1.008l5.976-3.024l4.752-4.752l3.024-5.904l1.008-6.552l-1.008-6.552l-3.024-5.904l-4.752-4.68L369.712,338l-6.624-1.08
			l-6.624,1.08l-5.976,3.024l-4.68,4.68l-3.096,5.904l-1.008,6.552l0,0V379.4L341.704,379.4L341.704,379.4L341.704,379.4
			L341.704,379.4z M256.168,464.216h-21.456l0,0l-6.552,1.008l-5.976,3.024l-4.752,4.68l-3.024,5.976l-1.08,6.552l1.08,6.552
			l3.024,5.904l4.752,4.68l5.976,3.024l6.552,1.008l6.624-1.008l5.976-3.024l4.752-4.68l3.024-5.904l1.08-6.552l0,0V464.216
			L256.168,464.216L256.168,464.216L256.168,464.216L256.168,464.216z M341.704,464.216h21.384l0,0l6.624,1.008l5.976,3.024
			l4.752,4.68l3.024,5.976l1.008,6.552l-1.008,6.552l-3.024,5.904l-4.752,4.68l-5.976,3.024l-6.624,1.008l-6.624-1.008l-5.976-3.024
			l-4.68-4.68l-3.096-5.904l-1.008-6.552l0,0V464.216L341.704,464.216L341.704,464.216L341.704,464.216z"/>
	</g>
	<g>
		<path style="fill-rule:evenodd;clip-rule:evenodd;fill:#7C3A00;" d="M298.576,231.368h210.96c11.664,0,21.096,9.432,21.096,21.096
			v337.248c0,5.616-2.232,10.944-6.192,14.904s-9.288,6.192-14.904,6.192h-210.96h232.056v-379.44H298.576z M87.616,231.368h210.96
			H66.52l0,0v379.44h232.056H87.616c-11.664,0-21.096-9.432-21.096-21.096V252.464C66.52,240.8,75.952,231.368,87.616,231.368
			L87.616,231.368z"/>
		
			<path style="fill-rule:evenodd;clip-rule:evenodd;fill:none;stroke:#7C3A00;stroke-width:1.4173;stroke-linejoin:bevel;stroke-miterlimit:10;" d="
			M87.616,231.368h421.92c11.664,0,21.096,9.432,21.096,21.096v337.248c0,5.616-2.232,10.944-6.192,14.904
			s-9.288,6.192-14.904,6.192H87.616c-11.664,0-21.096-9.432-21.096-21.096V252.464C66.52,240.8,75.952,231.368,87.616,231.368
			 M66.52,231.368h464.112v379.44H66.52V231.368"/>
	</g>
</g>
</svg>
