<?xml version="1.0" encoding="iso-8859-1"?>
<!-- Generator: Adobe Illustrator 15.1.0, SVG Export Plug-In . SVG Version: 6.00 Build 0)  -->
<!DOCTYPE svg PUBLIC "-//W3C//DTD SVG 1.1//EN" "http://www.w3.org/Graphics/SVG/1.1/DTD/svg11.dtd">
<svg version="1.1" xmlns="http://www.w3.org/2000/svg" xmlns:xlink="http://www.w3.org/1999/xlink" x="0px" y="0px" width="595px"
	 height="842px" viewBox="0 0 595 842" style="enable-background:new 0 0 595 842;" xml:space="preserve">
<g id="Layer_1">
	<g>
		<g>
			<g>
				<path style="fill-rule:evenodd;clip-rule:evenodd;fill:#7C3A00;" d="M99.784,240.08h421.92c5.832,0,10.584,4.68,10.584,10.512
					V587.84c0,5.832-4.752,10.584-10.584,10.584H99.784c-5.832,0-10.512-4.752-10.512-10.584V250.592
					C89.272,244.76,93.952,240.08,99.784,240.08L99.784,240.08z"/>
				
					<path style="fill-rule:evenodd;clip-rule:evenodd;fill:none;stroke:#7C3A00;stroke-width:0;stroke-linejoin:bevel;stroke-miterlimit:10;" d="
					M99.784,240.08h421.92c5.832,0,10.584,4.68,10.584,10.512V587.84c0,5.832-4.752,10.584-10.584,10.584H99.784
					c-5.832,0-10.512-4.752-10.512-10.584V250.592C89.272,244.76,93.952,240.08,99.784,240.08"/>
			</g>
			<g>
				<polygon style="fill-rule:evenodd;clip-rule:evenodd;fill:#FFFFFF;" points="192.088,300.632 429.544,300.632 429.544,537.584 
					192.088,537.584 192.088,300.632 				"/>
			</g>
			<g>
				<g>
					<path style="fill-rule:evenodd;clip-rule:evenodd;fill:#7C3A00;" d="M309.736,229.496h210.96
						c11.664,0,21.096,9.432,21.096,21.096V587.84c0,5.616-2.232,10.944-6.12,14.904c-3.96,3.96-9.36,6.192-14.976,6.192h-210.96
						h232.056v-379.44H309.736z M98.848,229.496h210.888H77.752l0,0v379.44h231.984H98.848c-11.664,0-21.096-9.432-21.096-21.096
						V250.592C77.752,238.928,87.184,229.496,98.848,229.496L98.848,229.496z"/>
				</g>
				<g>
					<path style="fill:#7C3A00;" d="M534.304,228.992h7.488l0.504,0.504v21.096l0,0V587.84l0,0v21.096l-0.504,0.504h-7.488v-1.008
						h6.984V594.32c-0.144,0.576-0.36,1.224-0.648,1.8c-0.144,0.432-0.36,0.792-0.504,1.224c-1.08,2.088-2.448,4.032-4.176,5.76l0,0
						l0,0l0,0c-0.504,0.576-1.08,1.08-1.656,1.512v-1.296c0.288-0.288,0.648-0.576,1.008-0.936l0,0l0,0l0,0
						c1.584-1.584,2.88-3.456,3.888-5.472c0.216-0.432,0.36-0.792,0.576-1.224c1.008-2.448,1.512-5.112,1.512-7.848l0,0V250.592l0,0
						c0-5.688-2.304-10.872-5.976-14.544c-0.36-0.36-0.72-0.648-1.008-0.936v-1.368c0.576,0.504,1.152,1.008,1.656,1.584
						c2.448,2.376,4.32,5.4,5.328,8.712V230h-6.984V228.992z M309.736,228.992h210.96l0,0h13.608V230h-7.056
						c2.592,0.792,4.968,2.088,7.056,3.744v1.368c-3.672-3.168-8.424-5.112-13.608-5.112l0,0h-210.96V228.992L309.736,228.992z
						 M534.304,609.44h-13.608h-210.96v-1.008h210.96c3.96,0,7.776-1.152,11.016-3.168c0.648-0.432,1.296-0.864,1.872-1.368
						c0.216-0.144,0.432-0.36,0.72-0.576v1.296c-0.072,0.072-0.072,0.072-0.072,0.072c-0.648,0.504-1.296,0.936-1.944,1.368
						c-1.584,1.008-3.312,1.8-5.112,2.376h7.128V609.44z M98.848,228.992h210.888V230H98.848l0,0c-5.184,0-9.936,1.944-13.608,5.112
						v-1.368c2.088-1.656,4.464-2.952,7.056-3.744H85.24v-1.008H98.848L98.848,228.992L98.848,228.992z M309.736,609.44H98.848l0,0
						H85.24v-1.008h7.056c-2.592-0.864-4.968-2.088-7.056-3.816v-1.296c3.672,3.168,8.424,5.112,13.608,5.112l0,0h210.888V609.44z
						 M85.24,609.44h-7.488l-0.504-0.504V587.84l0,0V250.592l0,0v-21.096h0.504v-0.504h7.488V230h-6.984v14.04
						c1.008-3.312,2.88-6.336,5.328-8.712c0.504-0.576,1.08-1.08,1.656-1.584v1.368c-0.288,0.288-0.648,0.576-1.008,0.936
						c-3.672,3.672-5.976,8.856-5.976,14.544l0,0V587.84l0,0c0,5.688,2.304,10.8,5.976,14.544c0.36,0.36,0.72,0.648,1.008,0.936
						v1.296c-0.576-0.432-1.152-1.008-1.656-1.512c-2.448-2.448-4.32-5.4-5.328-8.784v14.112h6.984V609.44z"/>
					<path style="fill:none;stroke:#7C3A00;stroke-width:1.0001;stroke-miterlimit:10;" d="M98.848,228.992h421.848l0,0h21.096
						l0.504,0.504v21.096l0,0V587.84l0,0v21.096l-0.504,0.504h-21.096H98.848l0,0H77.752l-0.504-0.504V587.84l0,0V250.592l0,0
						v-21.096h0.504v-0.504H98.848L98.848,228.992L98.848,228.992z M520.696,230H98.848l0,0c-5.688,0-10.872,2.304-14.616,6.048
						c-3.672,3.672-5.976,8.856-5.976,14.544l0,0V587.84l0,0c0,5.688,2.304,10.8,5.976,14.544c3.744,3.744,8.928,6.048,14.616,6.048
						l0,0h421.848c3.96,0,7.776-1.152,11.016-3.168c0.648-0.432,1.296-0.864,1.872-1.368c0.576-0.432,1.152-0.936,1.728-1.512l0,0
						l0,0l0,0c1.584-1.584,2.88-3.456,3.888-5.472c0.216-0.432,0.36-0.792,0.576-1.224c1.008-2.448,1.512-5.112,1.512-7.848l0,0
						V250.592l0,0c0-5.688-2.304-10.872-5.976-14.544C531.568,232.304,526.384,230,520.696,230L520.696,230L520.696,230z
						 M527.248,230c3.312,1.08,6.336,2.88,8.712,5.328c2.448,2.376,4.32,5.4,5.328,8.712V230H527.248L527.248,230z M541.288,594.32
						c-0.144,0.576-0.36,1.224-0.648,1.8c-0.144,0.432-0.36,0.792-0.504,1.224c-1.08,2.088-2.448,4.032-4.176,5.76l0,0l0,0l0,0
						c-0.576,0.576-1.152,1.08-1.728,1.584c-0.648,0.504-1.296,0.936-1.944,1.368c-1.584,1.008-3.312,1.8-5.112,2.376h14.112V594.32
						L541.288,594.32z M92.296,608.432c-3.312-1.08-6.336-2.88-8.712-5.328c-2.448-2.448-4.32-5.4-5.328-8.784v14.112H92.296
						L92.296,608.432z M78.256,244.04c1.008-3.312,2.88-6.336,5.328-8.712c2.376-2.448,5.4-4.248,8.712-5.328h-14.04V244.04z"/>
				</g>
			</g>
		</g>
		
			<rect x="179.92" y="539.456" style="fill-rule:evenodd;clip-rule:evenodd;fill:#FFFFFF;stroke:#000000;stroke-width:0.216;stroke-linejoin:bevel;stroke-miterlimit:10;" width="0" height="0"/>
		
			<rect x="179.92" y="539.456" style="fill-rule:evenodd;clip-rule:evenodd;fill:#FFFFFF;stroke:#000000;stroke-width:0.216;stroke-linejoin:bevel;stroke-miterlimit:10;" width="0" height="0"/>
		<g>
			<g>
				<path style="fill-rule:evenodd;clip-rule:evenodd;fill:#7C3A00;" d="M375.472,359.672l-7.848-38.664
					c7.128,2.952,12.168,6.48,18.216,11.016l9.432,10.872c4.752,7.272,8.064,15.192,11.376,24.696
					c1.8,6.984,2.88,13.896,3.024,20.808v1.584c-0.144,7.848-1.584,15.552-5.04,23.256c-4.68,10.152-9.144,19.296-18.936,28.44
					l-7.488,7.2l19.728-1.224l-4.392,7.848c-4.104,5.04-9.648,8.064-16.704,10.368l-22.824,4.608l-12.312,10.944
					c-4.32,2.88-8.568,5.688-12.888,8.568v-29.016c4.608-2.592,9.072-5.328,13.536-8.136c18.36-9.504,33.624-24.048,44.064-41.832
					l8.208-17.856c-6.408,14.472-16.2,27.288-28.512,37.224c-7.704,6.336-15.984,11.952-24.696,16.848
					c-4.176,2.16-8.352,4.176-12.6,6.192v-37.512l1.152,0.504l1.8,7.632l38.808-22.32c5.04-3.672,8.064-8.28,9.36-13.032
					l0.648-7.488c3.168-1.008,5.256-4.752,5.76-7.056c2.448-5.688,0.792-10.224-5.688-13.752L375.472,359.672L375.472,359.672z
					 M328.816,507.92c1.296,0.144,2.592,0.288,3.96,0.504c-1.368,1.008-2.592,1.872-3.96,2.808V507.92z M328.816,489.992
					c-0.072,0.072-0.216,0.144-0.36,0.216c-7.92,4.752-15.192,8.352-23.472,11.376l6.336,3.528
					c6.192,1.368,11.592,2.088,17.496,2.808v3.312c-1.152,0.792-2.376,1.584-3.96,2.52c-11.952,5.976-22.032,8.352-34.2,3.24
					c-2.952-1.44-5.688-3.096-8.568-5.472l-47.016,5.4c-1.008,0.072-2.016,0.072-3.024,0.144v-11.808l9.36-2.448l-9.36-2.16v-8.424
					c1.512,0,2.808-1.296,2.808-2.808c0-1.584-1.296-2.808-2.808-2.808v-12.672c0.432-0.216,0.936-0.432,1.44-0.648l8.928-4.104
					l48.456-28.872c2.304-4.896,4.968-9.36,7.632-14.112c2.808-3.6,4.968-6.912,7.488-10.44l6.336-6.984l16.488,7.128v37.512
					c-20.88,10.008-42.408,18.432-64.512,25.2l-1.152,29.88l0,0l0,0l0,0l0,0l0,0c3.024-5.112,5.4-10.512,7.056-16.272l1.512-5.112
					c19.8-6.984,38.88-15.768,57.096-26.136V489.992z M232.048,517.064c-3.024,0.072-5.976,0-9-0.216
					c-3.888-1.512-7.632-3.24-11.52-5.688c-0.72-1.008-0.864-1.368-1.224-2.664c-0.432-3.6,0-4.68,2.736-5.472
					c1.8-0.216,4.176,0.288,5.976,1.08c1.224,0.72,2.376,1.368,3.672,1.728c1.728,0.504,3.456,0.648,5.256,0.504l4.104-1.08V517.064
					L232.048,517.064z M232.048,500.648l-2.52-0.648l-13.248-1.08l-4.68-0.36c-0.648-0.072-1.296-0.504-2.016-1.08
					c-1.368-1.584-1.224-3.096-0.432-4.608c2.448-4.752,4.68-7.704,8.424-10.872c4.536-3.672,9.144-5.832,14.472-8.064v12.672
					c-1.584,0-2.808,1.224-2.808,2.808c0,1.512,1.224,2.808,2.808,2.808V500.648z"/>
			</g>
			<g>
				<path style="fill-rule:evenodd;clip-rule:evenodd;fill:#7C3A00;" d="M328.384,301.208h-1.872L208.864,489.2
					c-0.432,1.08-0.216,2.304,0.576,3.168c0.864-2.016,2.016-3.888,3.384-5.616L328.384,301.208L328.384,301.208L328.384,301.208z"
					/>
				<path style="fill-rule:evenodd;clip-rule:evenodd;fill:none;stroke:#7C3A00;stroke-width:0.5;stroke-miterlimit:10;" d="
					M328.384,301.208h-1.872L208.864,489.2c-0.432,1.08-0.216,2.304,0.576,3.168c0.864-2.016,2.016-3.888,3.384-5.616
					L328.384,301.208L328.384,301.208"/>
			</g>
		</g>
	</g>
</g>
<g id="MITAT">
</g>
<g id="OTS">
</g>
<g id="KUVA">
</g>
<g id="Layer1">
</g>
</svg>
