<?xml version="1.0" encoding="iso-8859-1"?>
<!-- Generator: Adobe Illustrator 15.1.0, SVG Export Plug-In . SVG Version: 6.00 Build 0)  -->
<!DOCTYPE svg PUBLIC "-//W3C//DTD SVG 1.1//EN" "http://www.w3.org/Graphics/SVG/1.1/DTD/svg11.dtd">
<svg version="1.1" id="Layer1" xmlns="http://www.w3.org/2000/svg" xmlns:xlink="http://www.w3.org/1999/xlink" x="0px" y="0px"
	 width="595px" height="842px" viewBox="0 0 595 842" style="enable-background:new 0 0 595 842;" xml:space="preserve">
<g>
	<g>
		<g>
			<path style="fill-rule:evenodd;clip-rule:evenodd;fill:#7C3A00;" d="M99.784,240.08h421.92c5.832,0,10.584,4.68,10.584,10.512
				V587.84c0,5.832-4.752,10.584-10.584,10.584H99.784c-5.832,0-10.512-4.752-10.512-10.584V250.592
				C89.272,244.76,93.952,240.08,99.784,240.08L99.784,240.08z"/>
			
				<path style="fill-rule:evenodd;clip-rule:evenodd;fill:none;stroke:#7C3A00;stroke-width:0;stroke-linejoin:bevel;stroke-miterlimit:10;" d="
				M99.784,240.08h421.92c5.832,0,10.584,4.68,10.584,10.512V587.84c0,5.832-4.752,10.584-10.584,10.584H99.784
				c-5.832,0-10.512-4.752-10.512-10.584V250.592C89.272,244.76,93.952,240.08,99.784,240.08"/>
		</g>
		<g>
			<polygon style="fill-rule:evenodd;clip-rule:evenodd;fill:#FFFFFF;" points="192.088,300.632 429.544,300.632 429.544,537.584 
				192.088,537.584 192.088,300.632 			"/>
		</g>
		<g>
			<g>
				<path style="fill-rule:evenodd;clip-rule:evenodd;fill:#7C3A00;" d="M309.736,229.496h210.96
					c11.664,0,21.096,9.432,21.096,21.096V587.84c0,5.616-2.232,10.944-6.12,14.904c-3.96,3.96-9.36,6.192-14.976,6.192h-210.96
					h232.056v-379.44H309.736z M98.848,229.496h210.888H77.752l0,0v379.44h231.984H98.848c-11.664,0-21.096-9.432-21.096-21.096
					V250.592C77.752,238.928,87.184,229.496,98.848,229.496L98.848,229.496z"/>
			</g>
			<g>
				<path style="fill:#7C3A00;" d="M534.304,228.992h7.488l0.504,0.504v21.096l0,0V587.84l0,0v21.096l-0.504,0.504h-7.488v-1.008
					h6.984V594.32c-0.144,0.576-0.36,1.224-0.648,1.8c-0.144,0.432-0.36,0.792-0.504,1.224c-1.08,2.088-2.448,4.032-4.176,5.76l0,0
					l0,0l0,0c-0.504,0.576-1.08,1.08-1.656,1.512v-1.296c0.288-0.288,0.648-0.576,1.008-0.936l0,0l0,0l0,0
					c1.584-1.584,2.88-3.456,3.888-5.472c0.216-0.432,0.36-0.792,0.576-1.224c1.008-2.448,1.512-5.112,1.512-7.848l0,0V250.592l0,0
					c0-5.688-2.304-10.872-5.976-14.544c-0.36-0.36-0.72-0.648-1.008-0.936v-1.368c0.576,0.504,1.152,1.008,1.656,1.584
					c2.448,2.376,4.32,5.4,5.328,8.712V230h-6.984V228.992z M309.736,228.992h210.96l0,0h13.608V230h-7.056
					c2.592,0.792,4.968,2.088,7.056,3.744v1.368c-3.672-3.168-8.424-5.112-13.608-5.112l0,0h-210.96V228.992L309.736,228.992z
					 M534.304,609.44h-13.608h-210.96v-1.008h210.96c3.96,0,7.776-1.152,11.016-3.168c0.648-0.432,1.296-0.864,1.872-1.368
					c0.216-0.144,0.432-0.36,0.72-0.576v1.296c-0.072,0.072-0.072,0.072-0.072,0.072c-0.648,0.504-1.296,0.936-1.944,1.368
					c-1.584,1.008-3.312,1.8-5.112,2.376h7.128V609.44z M98.848,228.992h210.888V230H98.848l0,0c-5.184,0-9.936,1.944-13.608,5.112
					v-1.368c2.088-1.656,4.464-2.952,7.056-3.744H85.24v-1.008H98.848L98.848,228.992L98.848,228.992z M309.736,609.44H98.848l0,0
					H85.24v-1.008h7.056c-2.592-0.864-4.968-2.088-7.056-3.816v-1.296c3.672,3.168,8.424,5.112,13.608,5.112l0,0h210.888V609.44z
					 M85.24,609.44h-7.488l-0.504-0.504V587.84l0,0V250.592l0,0v-21.096h0.504v-0.504h7.488V230h-6.984v14.04
					c1.008-3.312,2.88-6.336,5.328-8.712c0.504-0.576,1.08-1.08,1.656-1.584v1.368c-0.288,0.288-0.648,0.576-1.008,0.936
					c-3.672,3.672-5.976,8.856-5.976,14.544l0,0V587.84l0,0c0,5.688,2.304,10.8,5.976,14.544c0.36,0.36,0.72,0.648,1.008,0.936
					v1.296c-0.576-0.432-1.152-1.008-1.656-1.512c-2.448-2.448-4.32-5.4-5.328-8.784v14.112h6.984V609.44z"/>
				<path style="fill:none;stroke:#7C3A00;stroke-width:1.0001;stroke-miterlimit:10;" d="M98.848,228.992h421.848l0,0h21.096
					l0.504,0.504v21.096l0,0V587.84l0,0v21.096l-0.504,0.504h-21.096H98.848l0,0H77.752l-0.504-0.504V587.84l0,0V250.592l0,0
					v-21.096h0.504v-0.504H98.848L98.848,228.992L98.848,228.992z M520.696,230H98.848l0,0c-5.688,0-10.872,2.304-14.616,6.048
					c-3.672,3.672-5.976,8.856-5.976,14.544l0,0V587.84l0,0c0,5.688,2.304,10.8,5.976,14.544c3.744,3.744,8.928,6.048,14.616,6.048
					l0,0h421.848c3.96,0,7.776-1.152,11.016-3.168c0.648-0.432,1.296-0.864,1.872-1.368c0.576-0.432,1.152-0.936,1.728-1.512l0,0
					l0,0l0,0c1.584-1.584,2.88-3.456,3.888-5.472c0.216-0.432,0.36-0.792,0.576-1.224c1.008-2.448,1.512-5.112,1.512-7.848l0,0
					V250.592l0,0c0-5.688-2.304-10.872-5.976-14.544C531.568,232.304,526.384,230,520.696,230L520.696,230L520.696,230z
					 M527.248,230c3.312,1.08,6.336,2.88,8.712,5.328c2.448,2.376,4.32,5.4,5.328,8.712V230H527.248L527.248,230z M541.288,594.32
					c-0.144,0.576-0.36,1.224-0.648,1.8c-0.144,0.432-0.36,0.792-0.504,1.224c-1.08,2.088-2.448,4.032-4.176,5.76l0,0l0,0l0,0
					c-0.576,0.576-1.152,1.08-1.728,1.584c-0.648,0.504-1.296,0.936-1.944,1.368c-1.584,1.008-3.312,1.8-5.112,2.376h14.112V594.32
					L541.288,594.32z M92.296,608.432c-3.312-1.08-6.336-2.88-8.712-5.328c-2.448-2.448-4.32-5.4-5.328-8.784v14.112H92.296
					L92.296,608.432z M78.256,244.04c1.008-3.312,2.88-6.336,5.328-8.712c2.376-2.448,5.4-4.248,8.712-5.328h-14.04V244.04z"/>
			</g>
		</g>
	</g>
	<g>
		<polygon style="fill-rule:evenodd;clip-rule:evenodd;fill:#FFFFFF;" points="192.088,300.632 429.544,300.632 429.544,537.584 
			192.088,537.584 192.088,300.632 		"/>
	</g>
	<g>
		
			<polygon style="fill-rule:evenodd;clip-rule:evenodd;fill:#7C3A00;stroke:#7C3A00;stroke-width:0.216;stroke-linejoin:bevel;stroke-miterlimit:10;" points="
			300.088,406.544 300.088,358.448 300.088,358.448 218.728,358.448 310.96,308.336 403.192,358.448 322.552,358.448 
			322.552,358.448 322.552,407.624 		"/>
		
			<polygon style="fill-rule:evenodd;clip-rule:evenodd;fill:#7C3A00;stroke:#7C3A00;stroke-width:0.216;stroke-linejoin:bevel;stroke-miterlimit:10;" points="
			322.552,448.088 322.552,495.824 322.552,495.824 403.192,495.824 403.192,522.176 218.872,522.176 218.872,495.824 
			300.088,495.824 300.088,495.824 300.088,447.224 		"/>
		<g>
			<path style="fill-rule:evenodd;clip-rule:evenodd;fill:#7C3A00;" d="M368.056,483.584l-11.952-4.392l5.688-17.28
				c0.36-0.504,0.432-1.152,0.288-1.728c-0.144-0.576-0.504-1.08-1.008-1.368l-2.376-2.376c-0.936-1.512-1.944-3.096-2.88-4.608
				c-0.72-2.232-2.736-3.744-5.112-3.744h-23.4c-5.976,0-12.024-0.072-18-0.288c-4.824-0.072-9.648-0.576-14.328-1.296
				l-26.424,7.848l6.264,23.328l-14.904,3.384l-4.464-21.96c-0.072-0.576-0.36-1.152-0.72-1.584
				c-1.656-2.52-2.664-5.256-3.096-8.208c-0.432-1.44-0.36-2.952,0.216-4.32c0.72-1.296,1.872-2.304,3.24-2.808l5.616-2.232
				l3.672-2.808c1.8-1.512,2.304-4.104,1.008-6.048L245.8,401.36l-22.248,11.736l-7.056-4.968c-0.432-0.288-0.792-0.864-0.864-1.44
				c-0.144-0.576,0-1.224,0.36-1.656l1.584-3.96l15.912-23.688l-3.96-7.56l6.552-0.864l4.752,6.984h21.456L290.8,404.24
				c1.08,1.08,2.448,1.8,3.888,2.088l28.44,1.296c2.16,0.072,4.248-0.288,6.264-1.08l20.376-4.392c1.8-0.432,3.6-0.216,5.256,0.504
				l15.696,11.736l4.968,1.08l3.888,0.504l37.872,9.864l-6.48,12.312l-31.896-11.736l-3.096-0.576l-2.88,19.656
				c-0.432,1.296-0.36,2.664,0.072,3.96l5.256,10.872c0.648,1.296,0.648,2.808,0,4.104L368.056,483.584L368.056,483.584
				L368.056,483.584z"/>
			
				<path style="fill-rule:evenodd;clip-rule:evenodd;fill:none;stroke:#7C3A00;stroke-width:0.216;stroke-linejoin:bevel;stroke-miterlimit:10;" d="
				M368.056,483.584l-11.952-4.392l5.688-17.28c0.36-0.504,0.432-1.152,0.288-1.728c-0.144-0.576-0.504-1.08-1.008-1.368
				l-2.376-2.376c-0.936-1.512-1.944-3.096-2.88-4.608c-0.72-2.232-2.736-3.744-5.112-3.744h-23.4c-5.976,0-12.024-0.072-18-0.288
				c-4.824-0.072-9.648-0.576-14.328-1.296l-26.424,7.848l6.264,23.328l-14.904,3.384l-4.464-21.96
				c-0.072-0.576-0.36-1.152-0.72-1.584c-1.656-2.52-2.664-5.256-3.096-8.208c-0.432-1.44-0.36-2.952,0.216-4.32
				c0.72-1.296,1.872-2.304,3.24-2.808l5.616-2.232l3.672-2.808c1.8-1.512,2.304-4.104,1.008-6.048L245.8,401.36l-22.248,11.736
				l-7.056-4.968c-0.432-0.288-0.792-0.864-0.864-1.44c-0.144-0.576,0-1.224,0.36-1.656l1.584-3.96l15.912-23.688l-3.96-7.56
				l6.552-0.864l4.752,6.984h21.456L290.8,404.24c1.08,1.08,2.448,1.8,3.888,2.088l28.44,1.296c2.16,0.072,4.248-0.288,6.264-1.08
				l20.376-4.392c1.8-0.432,3.6-0.216,5.256,0.504l15.696,11.736l4.968,1.08l3.888,0.504l37.872,9.864l-6.48,12.312l-31.896-11.736
				l-3.096-0.576l-2.88,19.656c-0.432,1.296-0.36,2.664,0.072,3.96l5.256,10.872c0.648,1.296,0.648,2.808,0,4.104L368.056,483.584
				L368.056,483.584"/>
		</g>
	</g>
</g>
</svg>
