<?xml version="1.0" encoding="UTF-8" standalone="no"?>
<!-- Generator: Adobe Illustrator 15.1.0, SVG Export Plug-In . SVG Version: 6.00 Build 0)  -->

<svg
   xmlns:dc="http://purl.org/dc/elements/1.1/"
   xmlns:cc="http://creativecommons.org/ns#"
   xmlns:rdf="http://www.w3.org/1999/02/22-rdf-syntax-ns#"
   xmlns:svg="http://www.w3.org/2000/svg"
   xmlns="http://www.w3.org/2000/svg"
   xmlns:sodipodi="http://sodipodi.sourceforge.net/DTD/sodipodi-0.dtd"
   xmlns:inkscape="http://www.inkscape.org/namespaces/inkscape"
   version="1.1"
   id="Layer_1"
   x="0px"
   y="0px"
   width="466.0481"
   height="381.44809"
   viewBox="0 0 466.0481 381.44809"
   xml:space="preserve"
   sodipodi:docname="774b.svg"
   inkscape:version="0.92.5 (2060ec1f9f, 2020-04-08)"><metadata
   id="metadata3160"><rdf:RDF><cc:Work
       rdf:about=""><dc:format>image/svg+xml</dc:format><dc:type
         rdf:resource="http://purl.org/dc/dcmitype/StillImage" /></cc:Work></rdf:RDF></metadata><defs
   id="defs3158" /><sodipodi:namedview
   pagecolor="#ffffff"
   bordercolor="#666666"
   borderopacity="1"
   objecttolerance="10"
   gridtolerance="10"
   guidetolerance="10"
   inkscape:pageopacity="0"
   inkscape:pageshadow="2"
   inkscape:window-width="640"
   inkscape:window-height="480"
   id="namedview3156"
   showgrid="false"
   inkscape:zoom="0.28028504"
   inkscape:cx="220.75205"
   inkscape:cy="188.94005"
   inkscape:window-x="0"
   inkscape:window-y="0"
   inkscape:window-maximized="0"
   inkscape:current-layer="Layer_1" />
<g
   id="g3153"
   transform="translate(-76.74795,-228.49195)">
	<g
   id="g3087">
		<path
   style="clip-rule:evenodd;fill:#7c3a00;fill-rule:evenodd"
   d="m 99.784,240.08 h 421.92 c 5.832,0 10.584,4.68 10.584,10.512 V 587.84 c 0,5.832 -4.752,10.584 -10.584,10.584 H 99.784 c -5.832,0 -10.512,-4.752 -10.512,-10.584 V 250.592 c 0,-5.832 4.68,-10.512 10.512,-10.512 z"
   id="path3083"
   inkscape:connector-curvature="0" />
		
			<path
   style="clip-rule:evenodd;fill:none;fill-rule:evenodd;stroke:#7c3a00;stroke-width:0;stroke-linejoin:bevel;stroke-miterlimit:10"
   d="m 99.784,240.08 h 421.92 c 5.832,0 10.584,4.68 10.584,10.512 V 587.84 c 0,5.832 -4.752,10.584 -10.584,10.584 H 99.784 c -5.832,0 -10.512,-4.752 -10.512,-10.584 V 250.592 c 0,-5.832 4.68,-10.512 10.512,-10.512"
   id="path3085"
   inkscape:connector-curvature="0" />
	</g>
	<g
   id="g3099">
		<g
   id="g3091">
			<path
   style="clip-rule:evenodd;fill:#7c3a00;fill-rule:evenodd"
   d="m 309.736,229.496 h 210.96 c 11.664,0 21.096,9.432 21.096,21.096 V 587.84 c 0,5.616 -2.232,10.944 -6.12,14.904 -3.96,3.96 -9.36,6.192 -14.976,6.192 h -210.96 232.056 v -379.44 z m -210.888,0 H 309.736 77.752 v 0 379.44 H 309.736 98.848 c -11.664,0 -21.096,-9.432 -21.096,-21.096 V 250.592 c 0,-11.664 9.432,-21.096 21.096,-21.096 z"
   id="path3089"
   inkscape:connector-curvature="0" />
		</g>
		<g
   id="g3097">
			<path
   style="fill:#7c3a00"
   d="m 534.304,228.992 h 7.488 l 0.504,0.504 v 21.096 0 337.248 0 21.096 l -0.504,0.504 h -7.488 v -1.008 h 6.984 V 594.32 c -0.144,0.576 -0.36,1.224 -0.648,1.8 -0.144,0.432 -0.36,0.792 -0.504,1.224 -1.08,2.088 -2.448,4.032 -4.176,5.76 v 0 0 0 c -0.504,0.576 -1.08,1.08 -1.656,1.512 v -1.296 c 0.288,-0.288 0.648,-0.576 1.008,-0.936 v 0 0 0 c 1.584,-1.584 2.88,-3.456 3.888,-5.472 0.216,-0.432 0.36,-0.792 0.576,-1.224 1.008,-2.448 1.512,-5.112 1.512,-7.848 v 0 -337.248 0 c 0,-5.688 -2.304,-10.872 -5.976,-14.544 -0.36,-0.36 -0.72,-0.648 -1.008,-0.936 v -1.368 c 0.576,0.504 1.152,1.008 1.656,1.584 2.448,2.376 4.32,5.4 5.328,8.712 V 230 h -6.984 z m -224.568,0 h 210.96 v 0 h 13.608 V 230 h -7.056 c 2.592,0.792 4.968,2.088 7.056,3.744 v 1.368 C 530.632,231.944 525.88,230 520.696,230 v 0 H 309.736 Z M 534.304,609.44 h -13.608 -210.96 v -1.008 h 210.96 c 3.96,0 7.776,-1.152 11.016,-3.168 0.648,-0.432 1.296,-0.864 1.872,-1.368 0.216,-0.144 0.432,-0.36 0.72,-0.576 v 1.296 c -0.072,0.072 -0.072,0.072 -0.072,0.072 -0.648,0.504 -1.296,0.936 -1.944,1.368 -1.584,1.008 -3.312,1.8 -5.112,2.376 h 7.128 z M 98.848,228.992 H 309.736 V 230 H 98.848 v 0 c -5.184,0 -9.936,1.944 -13.608,5.112 v -1.368 c 2.088,-1.656 4.464,-2.952 7.056,-3.744 H 85.24 v -1.008 H 98.848 Z M 309.736,609.44 H 98.848 v 0 H 85.24 v -1.008 h 7.056 c -2.592,-0.864 -4.968,-2.088 -7.056,-3.816 v -1.296 c 3.672,3.168 8.424,5.112 13.608,5.112 v 0 h 210.888 z m -224.496,0 h -7.488 l -0.504,-0.504 v -21.096 0 -337.248 0 -21.096 h 0.504 v -0.504 H 85.24 V 230 h -6.984 v 14.04 c 1.008,-3.312 2.88,-6.336 5.328,-8.712 0.504,-0.576 1.08,-1.08 1.656,-1.584 v 1.368 c -0.288,0.288 -0.648,0.576 -1.008,0.936 -3.672,3.672 -5.976,8.856 -5.976,14.544 v 0 337.248 0 c 0,5.688 2.304,10.8 5.976,14.544 0.36,0.36 0.72,0.648 1.008,0.936 v 1.296 c -0.576,-0.432 -1.152,-1.008 -1.656,-1.512 -2.448,-2.448 -4.32,-5.4 -5.328,-8.784 v 14.112 h 6.984 z"
   id="path3093"
   inkscape:connector-curvature="0" />
			<path
   style="fill:none;stroke:#7c3a00;stroke-width:1.00010002;stroke-miterlimit:10"
   d="m 98.848,228.992 h 421.848 v 0 h 21.096 l 0.504,0.504 v 21.096 0 337.248 0 21.096 l -0.504,0.504 H 520.696 98.848 v 0 H 77.752 l -0.504,-0.504 v -21.096 0 -337.248 0 -21.096 h 0.504 v -0.504 H 98.848 Z M 520.696,230 H 98.848 v 0 c -5.688,0 -10.872,2.304 -14.616,6.048 -3.672,3.672 -5.976,8.856 -5.976,14.544 v 0 337.248 0 c 0,5.688 2.304,10.8 5.976,14.544 3.744,3.744 8.928,6.048 14.616,6.048 v 0 h 421.848 c 3.96,0 7.776,-1.152 11.016,-3.168 0.648,-0.432 1.296,-0.864 1.872,-1.368 0.576,-0.432 1.152,-0.936 1.728,-1.512 v 0 0 0 c 1.584,-1.584 2.88,-3.456 3.888,-5.472 0.216,-0.432 0.36,-0.792 0.576,-1.224 1.008,-2.448 1.512,-5.112 1.512,-7.848 v 0 -337.248 0 c 0,-5.688 -2.304,-10.872 -5.976,-14.544 C 531.568,232.304 526.384,230 520.696,230 Z m 6.552,0 c 3.312,1.08 6.336,2.88 8.712,5.328 2.448,2.376 4.32,5.4 5.328,8.712 V 230 Z m 14.04,364.32 c -0.144,0.576 -0.36,1.224 -0.648,1.8 -0.144,0.432 -0.36,0.792 -0.504,1.224 -1.08,2.088 -2.448,4.032 -4.176,5.76 v 0 0 0 c -0.576,0.576 -1.152,1.08 -1.728,1.584 -0.648,0.504 -1.296,0.936 -1.944,1.368 -1.584,1.008 -3.312,1.8 -5.112,2.376 h 14.112 z M 92.296,608.432 c -3.312,-1.08 -6.336,-2.88 -8.712,-5.328 -2.448,-2.448 -4.32,-5.4 -5.328,-8.784 v 14.112 z M 78.256,244.04 c 1.008,-3.312 2.88,-6.336 5.328,-8.712 2.376,-2.448 5.4,-4.248 8.712,-5.328 h -14.04 z"
   id="path3095"
   inkscape:connector-curvature="0" />
		</g>
	</g>
	<g
   id="g3151">
		
			<rect
   x="192.088"
   y="537.58398"
   style="clip-rule:evenodd;fill:#ffffff;fill-rule:evenodd;stroke:#000000;stroke-width:0.21600001;stroke-linejoin:bevel;stroke-miterlimit:10"
   width="0"
   height="0"
   id="rect3101" />
		
			<rect
   x="192.088"
   y="537.58398"
   style="clip-rule:evenodd;fill:#ffffff;fill-rule:evenodd;stroke:#000000;stroke-width:0.21600001;stroke-linejoin:bevel;stroke-miterlimit:10"
   width="0"
   height="0"
   id="rect3103" />
		<g
   id="g3107">
			<polygon
   style="clip-rule:evenodd;fill:#ffffff;fill-rule:evenodd"
   points="429.544,537.584 192.088,537.584 192.088,300.632 429.544,300.632 "
   id="polygon3105" />
		</g>
		
			<rect
   x="428.17599"
   y="537.94397"
   style="clip-rule:evenodd;fill:none;fill-rule:evenodd;stroke:#000000;stroke-width:0;stroke-linejoin:bevel;stroke-miterlimit:10"
   width="0"
   height="0"
   id="rect3109" />
		
			<rect
   x="428.17599"
   y="537.94397"
   style="clip-rule:evenodd;fill:none;fill-rule:evenodd;stroke:#000000;stroke-width:0;stroke-linejoin:bevel;stroke-miterlimit:10"
   width="0"
   height="0"
   id="rect3111" />
		
			<rect
   x="428.17599"
   y="537.94397"
   style="clip-rule:evenodd;fill:none;fill-rule:evenodd;stroke:#000000;stroke-width:0;stroke-linejoin:bevel;stroke-miterlimit:10"
   width="0"
   height="0"
   id="rect3113" />
		<g
   id="g3139">
			<g
   id="g3121">
				<polygon
   style="clip-rule:evenodd;fill:#7c3a00;fill-rule:evenodd"
   points="251.416,393.44 253.648,393.296 255.88,392.864 258.04,392.144 260.056,391.136 262,389.84 263.656,388.328 265.168,386.6 266.392,384.728 267.4,382.712 268.192,380.552 268.624,378.32 268.768,376.016 268.768,376.016 268.768,372.2 268.768,372.2 268.624,369.896 268.192,367.736 267.472,365.576 266.464,363.56 265.24,361.616 263.728,359.96 262,358.448 262,358.448 263.224,356.648 264.232,354.704 264.952,352.688 265.384,350.528 265.528,348.368 265.528,348.368 265.528,345.128 265.528,345.128 265.384,343.04 265.024,340.952 264.304,339.008 263.368,337.064 262.216,335.336 260.848,333.752 259.264,332.384 257.536,331.232 255.592,330.296 253.576,329.576 251.56,329.216 249.472,329.072 249.472,329.072 226.936,329.072 226.936,393.44 251.416,393.44 "
   id="polygon3115" />
				<polygon
   style="clip-rule:evenodd;fill:#ffffff;fill-rule:evenodd"
   points="249.472,338.72 250.696,338.792 251.92,339.224 253,339.8 254.008,340.592 254.8,341.6 255.376,342.68 255.808,343.904 255.88,345.128 255.88,345.128 255.88,348.368 255.88,348.368 255.808,349.592 255.376,350.816 254.8,351.968 254.008,352.904 253,353.696 251.92,354.344 250.696,354.704 249.472,354.848 249.472,354.848 236.584,354.848 236.584,354.848 236.584,338.72 249.472,338.72 "
   id="polygon3117" />
				<polygon
   style="clip-rule:evenodd;fill:#ffffff;fill-rule:evenodd"
   points="236.584,364.424 251.416,364.424 251.416,364.424 252.928,364.64 254.368,365.072 255.664,365.792 256.816,366.728 257.824,367.88 258.544,369.248 258.976,370.688 259.12,372.2 259.12,372.2 259.12,376.016 259.12,376.016 258.976,377.6 258.544,379.04 257.824,380.336 256.816,381.488 255.664,382.496 254.368,383.216 252.928,383.648 251.416,383.792 251.416,383.792 236.584,383.792 236.584,364.424 "
   id="polygon3119" />
			</g>
			<g
   id="g3129">
				<polygon
   style="clip-rule:evenodd;fill:#7c3a00;fill-rule:evenodd"
   points="313.696,392.576 315.712,391.856 317.656,390.92 319.456,389.696 321.112,388.328 321.112,388.328 323.056,390.056 325.072,391.64 325.072,391.64 328.888,393.8 328.888,393.8 334.576,386.816 334.576,386.816 331.912,385.16 329.392,383.36 327.016,381.344 327.016,381.344 327.016,381.344 327.016,381.344 328.528,378.608 329.68,375.728 329.68,375.728 331.192,371.264 331.192,371.264 322.696,369.464 322.696,369.464 321.832,372.2 320.752,374.864 320.752,374.864 313.768,366.152 313.768,366.152 314.2,365.864 314.2,365.864 317.944,363.2 317.944,363.2 319.24,362.192 320.392,360.968 321.328,359.6 322.048,358.088 322.552,356.504 322.768,354.848 322.696,353.192 322.696,353.192 322.336,351.32 321.616,349.52 320.536,347.936 319.24,346.568 317.656,345.416 315.928,344.624 315.928,344.624 313.696,343.904 311.392,343.544 309.016,343.4 306.712,343.616 304.336,344.048 302.104,344.84 302.104,344.84 300.664,345.632 299.296,346.64 298.216,347.864 297.28,349.232 296.56,350.816 296.128,352.4 296.128,352.4 296.056,354.344 296.344,356.216 296.848,358.016 297.64,359.816 298.576,361.4 298.576,361.4 300.952,364.424 300.952,364.424 297.28,366.8 297.28,366.8 295.48,368.096 293.896,369.68 292.528,371.408 291.376,373.352 290.584,375.44 290.584,375.44 290.152,376.808 289.936,378.176 290.008,379.616 290.008,379.616 290.152,381.56 290.584,383.432 291.376,385.232 292.312,386.96 293.536,388.472 294.976,389.84 296.56,390.992 298.288,391.928 300.088,392.576 300.088,392.576 302.32,393.152 304.696,393.44 307.072,393.512 309.448,393.296 311.608,393.08 "
   id="polygon3123" />
				<polygon
   style="clip-rule:evenodd;fill:#ffffff;fill-rule:evenodd"
   points="305.704,370.544 303.904,371.552 302.392,372.776 301.096,374.216 301.096,374.216 300.304,375.512 299.728,376.88 299.512,378.32 299.44,379.832 299.44,379.832 299.656,380.984 300.088,382.136 300.664,383.144 301.456,384.08 302.32,384.8 302.32,384.8 303.76,385.448 305.272,385.808 306.784,385.88 306.784,385.88 308.8,385.664 310.744,385.088 310.744,385.088 313.048,383.792 315.136,382.064 315.136,382.064 305.776,370.472 315.136,382.064 315.136,382.064 305.776,370.472 305.704,370.544 "
   id="polygon3125" />
				<polygon
   style="clip-rule:evenodd;fill:#ffffff;fill-rule:evenodd"
   points="309.448,360.392 311.752,358.592 313.768,356.72 313.768,356.72 314.272,355.856 314.56,354.848 314.56,353.84 314.344,352.904 313.84,352.04 313.12,351.32 313.12,351.32 311.536,350.816 309.808,350.6 308.08,350.816 306.424,351.32 306.424,351.32 305.776,351.896 305.272,352.688 305.056,353.552 305.056,354.416 305.344,355.28 305.848,356 305.848,356 309.304,360.392 309.304,360.392 309.448,360.392 "
   id="polygon3127" />
			</g>
			<g
   id="g3137">
				<polygon
   style="clip-rule:evenodd;fill:#7c3a00;fill-rule:evenodd"
   points="377.992,393.44 380.224,393.296 382.456,392.864 384.616,392.144 386.704,391.136 388.576,389.84 390.304,388.328 391.744,386.6 393.04,384.728 394.048,382.712 394.768,380.552 395.2,378.32 395.344,376.016 395.344,376.016 395.344,372.2 395.344,372.2 395.2,369.896 394.768,367.736 394.048,365.576 393.04,363.56 391.816,361.616 390.304,359.96 388.576,358.448 388.576,358.448 389.872,356.648 390.808,354.704 391.528,352.688 391.96,350.528 392.104,348.368 392.104,348.368 392.104,345.128 392.104,345.128 391.96,343.04 391.6,340.952 390.88,339.008 389.944,337.064 388.792,335.336 387.424,333.752 385.84,332.384 384.112,331.232 382.168,330.296 380.224,329.576 378.136,329.216 376.048,329.072 376.048,329.072 353.512,329.072 353.512,393.44 377.992,393.44 "
   id="polygon3131" />
				<polygon
   style="clip-rule:evenodd;fill:#ffffff;fill-rule:evenodd"
   points="376.048,338.72 377.272,338.792 378.496,339.224 379.648,339.8 380.584,340.592 381.376,341.6 382.024,342.68 382.384,343.904 382.456,345.128 382.456,345.128 382.456,348.368 382.456,348.368 382.384,349.592 382.024,350.816 381.376,351.968 380.584,352.904 379.648,353.696 378.496,354.344 377.272,354.704 376.048,354.848 376.048,354.848 363.16,354.848 363.16,354.848 363.16,338.72 376.048,338.72 "
   id="polygon3133" />
				<polygon
   style="clip-rule:evenodd;fill:#ffffff;fill-rule:evenodd"
   points="363.16,364.424 377.992,364.424 377.992,364.424 379.504,364.64 380.944,365.072 382.24,365.792 383.464,366.728 384.4,367.88 385.12,369.248 385.552,370.688 385.696,372.2 385.696,372.2 385.696,376.016 385.696,376.016 385.552,377.6 385.12,379.04 384.4,380.336 383.464,381.488 382.24,382.496 380.944,383.216 379.504,383.648 377.992,383.792 377.992,383.792 363.16,383.792 363.16,364.424 "
   id="polygon3135" />
			</g>
		</g>
		<g
   id="g3143">
			<path
   style="clip-rule:evenodd;fill:#7c3a00;fill-rule:evenodd"
   d="m 208.864,448.016 v 75.744 h 15.696 v -15.552 h 172.368 v 15.552 h 15.696 v -96.552 c 0,-4.32 -3.528,-7.776 -7.848,-7.776 -4.32,0 -7.848,3.384 -7.848,7.704 v 30.528 C 394.048,473.72 380.8,485.888 364.6,487.4 H 224.56 v -39.384 c 0,-4.32 -3.528,-7.776 -7.848,-7.776 -4.32,0 -7.848,3.456 -7.848,7.776 z"
   id="path3141"
   inkscape:connector-curvature="0" />
		</g>
		<path
   style="clip-rule:evenodd;fill:#7c3a00;fill-rule:evenodd"
   d="m 356.248,476.096 c 3.744,4.68 13.896,2.952 22.68,-3.96 8.712,-6.984 12.816,-16.416 9.072,-21.096 -3.744,-4.752 -13.896,-3.024 -22.608,3.96 -8.784,6.912 -12.888,16.344 -9.144,21.096 z"
   id="path3145"
   inkscape:connector-curvature="0" />
		<g
   id="g3149">
			<path
   style="clip-rule:evenodd;fill:#7c3a00;fill-rule:evenodd"
   d="M 291.88,479.696 H 240.4 c -2.16,0 -4.248,-0.864 -5.616,-2.52 -1.44,-1.584 -2.016,-3.744 -1.656,-5.832 0.576,-4.176 3.384,-7.704 7.272,-9.432 33.336,-11.376 69.48,-11.376 102.888,0 3.888,1.728 6.624,5.256 7.272,9.432 0.36,2.088 -0.216,4.248 -1.656,5.904 -1.368,1.584 -3.456,2.52 -5.616,2.448 H 291.88 Z"
   id="path3147"
   inkscape:connector-curvature="0" />
		</g>
	</g>
</g>
</svg>