<?xml version="1.0" encoding="UTF-8" standalone="no"?>
<!-- Generator: Adobe Illustrator 15.1.0, SVG Export Plug-In . SVG Version: 6.00 Build 0)  -->

<svg
   xmlns:dc="http://purl.org/dc/elements/1.1/"
   xmlns:cc="http://creativecommons.org/ns#"
   xmlns:rdf="http://www.w3.org/1999/02/22-rdf-syntax-ns#"
   xmlns:svg="http://www.w3.org/2000/svg"
   xmlns="http://www.w3.org/2000/svg"
   xmlns:sodipodi="http://sodipodi.sourceforge.net/DTD/sodipodi-0.dtd"
   xmlns:inkscape="http://www.inkscape.org/namespaces/inkscape"
   version="1.1"
   x="0px"
   y="0px"
   width="466.0481"
   height="381.44809"
   viewBox="0 0 466.0481 381.44809"
   xml:space="preserve"
   id="svg3224"
   sodipodi:docname="774c.svg"
   inkscape:version="0.92.5 (2060ec1f9f, 2020-04-08)"><metadata
   id="metadata3230"><rdf:RDF><cc:Work
       rdf:about=""><dc:format>image/svg+xml</dc:format><dc:type
         rdf:resource="http://purl.org/dc/dcmitype/StillImage" /></cc:Work></rdf:RDF></metadata><defs
   id="defs3228" /><sodipodi:namedview
   pagecolor="#ffffff"
   bordercolor="#666666"
   borderopacity="1"
   objecttolerance="10"
   gridtolerance="10"
   guidetolerance="10"
   inkscape:pageopacity="0"
   inkscape:pageshadow="2"
   inkscape:window-width="640"
   inkscape:window-height="480"
   id="namedview3226"
   showgrid="false"
   inkscape:zoom="0.28028504"
   inkscape:cx="220.75205"
   inkscape:cy="188.94005"
   inkscape:window-x="0"
   inkscape:window-y="0"
   inkscape:window-maximized="0"
   inkscape:current-layer="svg3224" />
<g
   id="Layer_1"
   transform="translate(-76.74795,-228.49195)">
</g>
<g
   id="AME_x5F_FRZ"
   transform="translate(-76.74795,-228.49195)">
</g>
<g
   id="KUVA"
   transform="translate(-76.74795,-228.49195)">
</g>
<g
   id="ruskea"
   transform="translate(-76.74795,-228.49195)">
</g>
<g
   id="OTS"
   transform="translate(-76.74795,-228.49195)">
</g>
<g
   id="mitat2"
   transform="translate(-76.74795,-228.49195)">
</g>
<g
   id="_x30_"
   transform="translate(-76.74795,-228.49195)">
</g>
<g
   id="MITAT"
   transform="translate(-76.74795,-228.49195)">
</g>
<g
   id="Layer1"
   transform="translate(-76.74795,-228.49195)">
</g>
<g
   id="HAT"
   transform="translate(-76.74795,-228.49195)">
	<g
   id="g3221">
		<g
   id="g3193">
			<g
   id="g3175">
				<path
   style="clip-rule:evenodd;fill:#7c3a00;fill-rule:evenodd"
   d="m 99.784,240.08 h 421.92 c 5.832,0 10.584,4.68 10.584,10.512 V 587.84 c 0,5.832 -4.752,10.584 -10.584,10.584 H 99.784 c -5.832,0 -10.512,-4.752 -10.512,-10.584 V 250.592 c 0,-5.832 4.68,-10.512 10.512,-10.512 z"
   id="path3171"
   inkscape:connector-curvature="0" />
				
					<path
   style="clip-rule:evenodd;fill:none;fill-rule:evenodd;stroke:#7c3a00;stroke-width:0;stroke-linejoin:bevel;stroke-miterlimit:10"
   d="m 99.784,240.08 h 421.92 c 5.832,0 10.584,4.68 10.584,10.512 V 587.84 c 0,5.832 -4.752,10.584 -10.584,10.584 H 99.784 c -5.832,0 -10.512,-4.752 -10.512,-10.584 V 250.592 c 0,-5.832 4.68,-10.512 10.512,-10.512"
   id="path3173"
   inkscape:connector-curvature="0" />
			</g>
			<g
   id="g3179">
				<polygon
   style="clip-rule:evenodd;fill:#ffffff;fill-rule:evenodd"
   points="429.544,537.584 192.088,537.584 192.088,300.632 429.544,300.632 "
   id="polygon3177" />
			</g>
			<g
   id="g3191">
				<g
   id="g3183">
					<path
   style="clip-rule:evenodd;fill:#7c3a00;fill-rule:evenodd"
   d="m 309.736,229.496 h 210.96 c 11.664,0 21.096,9.432 21.096,21.096 V 587.84 c 0,5.616 -2.232,10.944 -6.12,14.904 -3.96,3.96 -9.36,6.192 -14.976,6.192 h -210.96 232.056 v -379.44 z m -210.888,0 H 309.736 77.752 v 0 379.44 H 309.736 98.848 c -11.664,0 -21.096,-9.432 -21.096,-21.096 V 250.592 c 0,-11.664 9.432,-21.096 21.096,-21.096 z"
   id="path3181"
   inkscape:connector-curvature="0" />
				</g>
				<g
   id="g3189">
					<path
   style="fill:#7c3a00"
   d="m 534.304,228.992 h 7.488 l 0.504,0.504 v 21.096 0 337.248 0 21.096 l -0.504,0.504 h -7.488 v -1.008 h 6.984 V 594.32 c -0.144,0.576 -0.36,1.224 -0.648,1.8 -0.144,0.432 -0.36,0.792 -0.504,1.224 -1.08,2.088 -2.448,4.032 -4.176,5.76 v 0 0 0 c -0.504,0.576 -1.08,1.08 -1.656,1.512 v -1.296 c 0.288,-0.288 0.648,-0.576 1.008,-0.936 v 0 0 0 c 1.584,-1.584 2.88,-3.456 3.888,-5.472 0.216,-0.432 0.36,-0.792 0.576,-1.224 1.008,-2.448 1.512,-5.112 1.512,-7.848 v 0 -337.248 0 c 0,-5.688 -2.304,-10.872 -5.976,-14.544 -0.36,-0.36 -0.72,-0.648 -1.008,-0.936 v -1.368 c 0.576,0.504 1.152,1.008 1.656,1.584 2.448,2.376 4.32,5.4 5.328,8.712 V 230 h -6.984 z m -224.568,0 h 210.96 v 0 h 13.608 V 230 h -7.056 c 2.592,0.792 4.968,2.088 7.056,3.744 v 1.368 C 530.632,231.944 525.88,230 520.696,230 v 0 H 309.736 Z M 534.304,609.44 h -13.608 -210.96 v -1.008 h 210.96 c 3.96,0 7.776,-1.152 11.016,-3.168 0.648,-0.432 1.296,-0.864 1.872,-1.368 0.216,-0.144 0.432,-0.36 0.72,-0.576 v 1.296 c -0.072,0.072 -0.072,0.072 -0.072,0.072 -0.648,0.504 -1.296,0.936 -1.944,1.368 -1.584,1.008 -3.312,1.8 -5.112,2.376 h 7.128 z M 98.848,228.992 H 309.736 V 230 H 98.848 v 0 c -5.184,0 -9.936,1.944 -13.608,5.112 v -1.368 c 2.088,-1.656 4.464,-2.952 7.056,-3.744 H 85.24 v -1.008 H 98.848 Z M 309.736,609.44 H 98.848 v 0 H 85.24 v -1.008 h 7.056 c -2.592,-0.864 -4.968,-2.088 -7.056,-3.816 v -1.296 c 3.672,3.168 8.424,5.112 13.608,5.112 v 0 h 210.888 z m -224.496,0 h -7.488 l -0.504,-0.504 v -21.096 0 -337.248 0 -21.096 h 0.504 v -0.504 H 85.24 V 230 h -6.984 v 14.04 c 1.008,-3.312 2.88,-6.336 5.328,-8.712 0.504,-0.576 1.08,-1.08 1.656,-1.584 v 1.368 c -0.288,0.288 -0.648,0.576 -1.008,0.936 -3.672,3.672 -5.976,8.856 -5.976,14.544 v 0 337.248 0 c 0,5.688 2.304,10.8 5.976,14.544 0.36,0.36 0.72,0.648 1.008,0.936 v 1.296 c -0.576,-0.432 -1.152,-1.008 -1.656,-1.512 -2.448,-2.448 -4.32,-5.4 -5.328,-8.784 v 14.112 h 6.984 z"
   id="path3185"
   inkscape:connector-curvature="0" />
					<path
   style="fill:none;stroke:#7c3a00;stroke-width:1.00010002;stroke-miterlimit:10"
   d="m 98.848,228.992 h 421.848 v 0 h 21.096 l 0.504,0.504 v 21.096 0 337.248 0 21.096 l -0.504,0.504 H 520.696 98.848 v 0 H 77.752 l -0.504,-0.504 v -21.096 0 -337.248 0 -21.096 h 0.504 v -0.504 H 98.848 Z M 520.696,230 H 98.848 v 0 c -5.688,0 -10.872,2.304 -14.616,6.048 -3.672,3.672 -5.976,8.856 -5.976,14.544 v 0 337.248 0 c 0,5.688 2.304,10.8 5.976,14.544 3.744,3.744 8.928,6.048 14.616,6.048 v 0 h 421.848 c 3.96,0 7.776,-1.152 11.016,-3.168 0.648,-0.432 1.296,-0.864 1.872,-1.368 0.576,-0.432 1.152,-0.936 1.728,-1.512 v 0 0 0 c 1.584,-1.584 2.88,-3.456 3.888,-5.472 0.216,-0.432 0.36,-0.792 0.576,-1.224 1.008,-2.448 1.512,-5.112 1.512,-7.848 v 0 -337.248 0 c 0,-5.688 -2.304,-10.872 -5.976,-14.544 C 531.568,232.304 526.384,230 520.696,230 Z m 6.552,0 c 3.312,1.08 6.336,2.88 8.712,5.328 2.448,2.376 4.32,5.4 5.328,8.712 V 230 Z m 14.04,364.32 c -0.144,0.576 -0.36,1.224 -0.648,1.8 -0.144,0.432 -0.36,0.792 -0.504,1.224 -1.08,2.088 -2.448,4.032 -4.176,5.76 v 0 0 0 c -0.576,0.576 -1.152,1.08 -1.728,1.584 -0.648,0.504 -1.296,0.936 -1.944,1.368 -1.584,1.008 -3.312,1.8 -5.112,2.376 h 14.112 z M 92.296,608.432 c -3.312,-1.08 -6.336,-2.88 -8.712,-5.328 -2.448,-2.448 -4.32,-5.4 -5.328,-8.784 v 14.112 z M 78.256,244.04 c 1.008,-3.312 2.88,-6.336 5.328,-8.712 2.376,-2.448 5.4,-4.248 8.712,-5.328 h -14.04 z"
   id="path3187"
   inkscape:connector-curvature="0" />
				</g>
			</g>
		</g>
		<g
   id="g3219">
			<path
   style="clip-rule:evenodd;fill:#7c3a00;fill-rule:evenodd"
   d="m 242.92,476.24 0.792,13.536 c 0.216,4.68 0.936,9.432 2.016,14.04 0.792,3.24 2.016,6.336 3.6,9.288 2.16,3.96 5.04,7.56 8.496,10.512 1.872,1.224 3.816,2.304 5.832,3.312 1.584,0.648 3.096,1.296 4.68,1.944 3.096,0.936 6.192,1.656 9.36,2.16 1.584,0.288 3.24,0.504 4.824,0.576 3.6,0.144 7.2,0.144 10.728,0 2.088,-0.072 4.032,-0.432 5.904,-1.008 2.448,-0.432 4.32,-2.304 4.824,-4.68 0.216,-0.576 0.36,-1.152 0.432,-1.728 0.288,-3.096 -0.288,-6.192 -1.512,-9 -1.44,-3.24 -3.888,-5.904 -7.056,-7.488 -2.304,-1.296 -4.752,-2.304 -7.344,-2.88 -1.44,-0.288 -2.808,-0.72 -4.176,-1.152 -7.848,-2.304 -15.552,-4.824 -23.256,-7.56 -3.024,-1.224 -5.976,-2.736 -8.784,-4.392 -1.944,-1.224 -3.528,-2.88 -4.68,-4.896 -0.864,-1.44 -1.584,-2.952 -2.232,-4.464 z"
   id="path3195"
   inkscape:connector-curvature="0" />
			<path
   style="clip-rule:evenodd;fill:#7c3a00;fill-rule:evenodd"
   d="m 242.92,438.296 0.792,13.536 c 0.216,4.752 0.936,9.432 2.016,14.04 0.792,3.24 2.016,6.408 3.6,9.288 2.16,4.032 5.04,7.56 8.496,10.512 1.872,1.224 3.816,2.304 5.832,3.312 1.584,0.648 3.096,1.296 4.68,1.944 3.096,0.936 6.192,1.656 9.36,2.16 1.584,0.288 3.24,0.504 4.824,0.576 3.6,0.144 7.2,0.144 10.728,0 2.088,-0.072 4.032,-0.432 5.904,-0.936 2.448,-0.504 4.32,-2.376 4.824,-4.752 0.216,-0.576 0.36,-1.152 0.432,-1.728 0.288,-3.024 -0.288,-6.12 -1.512,-8.928 -1.44,-3.312 -3.888,-5.976 -7.056,-7.56 -2.304,-1.296 -4.752,-2.232 -7.344,-2.88 -1.44,-0.288 -2.808,-0.72 -4.176,-1.152 -7.848,-2.304 -15.552,-4.824 -23.256,-7.56 -3.024,-1.224 -5.976,-2.664 -8.784,-4.392 -1.944,-1.224 -3.528,-2.88 -4.68,-4.824 -0.864,-1.512 -1.584,-3.024 -2.232,-4.536 z"
   id="path3197"
   inkscape:connector-curvature="0" />
			<path
   style="clip-rule:evenodd;fill:#7c3a00;fill-rule:evenodd"
   d="m 371.296,438.296 -0.72,13.536 c -0.288,4.752 -0.936,9.432 -2.088,14.04 -0.72,3.24 -1.944,6.408 -3.528,9.288 -2.16,4.032 -5.04,7.56 -8.496,10.512 -1.872,1.224 -3.888,2.304 -5.904,3.312 -1.512,0.648 -3.096,1.296 -4.68,1.944 -3.024,0.936 -6.12,1.656 -9.288,2.16 -1.584,0.288 -3.24,0.504 -4.896,0.576 -3.528,0.144 -7.128,0.144 -10.728,0 -2.016,-0.072 -4.032,-0.432 -5.976,-0.936 -2.376,-0.504 -4.248,-2.376 -4.752,-4.752 -0.216,-0.576 -0.36,-1.152 -0.432,-1.728 -0.288,-3.024 0.216,-6.12 1.512,-8.928 1.368,-3.312 3.888,-5.976 7.056,-7.56 2.304,-1.296 4.824,-2.232 7.416,-2.88 1.368,-0.288 2.808,-0.72 4.176,-1.152 7.776,-2.304 15.552,-4.824 23.256,-7.56 3.024,-1.224 5.976,-2.664 8.784,-4.392 1.944,-1.224 3.528,-2.88 4.68,-4.824 0.792,-1.512 1.512,-3.024 2.232,-4.536 z"
   id="path3199"
   inkscape:connector-curvature="0" />
			<path
   style="clip-rule:evenodd;fill:#7c3a00;fill-rule:evenodd"
   d="m 371.296,476.24 -0.72,13.536 c -0.288,4.68 -0.936,9.432 -2.088,14.04 -0.72,3.24 -1.944,6.336 -3.528,9.288 -2.16,3.96 -5.04,7.56 -8.496,10.512 -1.872,1.224 -3.888,2.304 -5.904,3.312 -1.512,0.648 -3.096,1.296 -4.68,1.944 -3.024,0.936 -6.12,1.656 -9.288,2.16 -1.584,0.288 -3.24,0.504 -4.896,0.576 -3.528,0.144 -7.128,0.144 -10.728,0 -2.016,-0.072 -4.032,-0.432 -5.976,-1.008 -2.376,-0.432 -4.248,-2.304 -4.752,-4.68 -0.216,-0.576 -0.36,-1.152 -0.432,-1.728 -0.288,-3.096 0.216,-6.192 1.512,-9 1.368,-3.24 3.888,-5.904 7.056,-7.488 2.304,-1.296 4.824,-2.304 7.416,-2.88 1.368,-0.288 2.808,-0.72 4.176,-1.152 7.776,-2.376 15.552,-4.824 23.256,-7.56 3.024,-1.224 5.976,-2.736 8.784,-4.392 1.944,-1.224 3.528,-2.88 4.68,-4.896 0.792,-1.44 1.512,-2.952 2.232,-4.464 z"
   id="path3201"
   inkscape:connector-curvature="0" />
			<g
   id="g3205">
				<path
   style="clip-rule:evenodd;fill:#7c3a00;fill-rule:evenodd"
   d="m 241.768,334.4 1.656,12.024 c 0.792,5.688 1.8,11.304 3.096,16.848 0.72,3.168 1.656,6.336 2.88,9.36 1.584,3.888 4.536,7.056 8.28,8.928 4.464,2.088 9,3.816 13.68,5.256 3.96,1.584 7.992,2.88 12.168,3.672 4.032,1.152 7.92,2.736 11.592,4.68 3.024,1.584 5.472,4.104 6.984,7.2 1.584,3.168 2.016,6.84 1.152,10.368 -0.576,3.096 -3.384,5.4 -6.552,5.328 -3.168,0.36 -6.336,0.648 -9.504,0.72 -2.736,0 -5.4,-0.144 -8.064,-0.432 -7.92,-0.864 -15.552,-3.672 -22.104,-8.136 -3.096,-2.304 -5.688,-5.184 -7.632,-8.496 -2.376,-3.96 -4.104,-8.352 -4.968,-12.888 -1.008,-5.76 -1.656,-11.592 -1.944,-17.496 -0.072,-3.168 -0.216,-6.408 -0.36,-9.576 z"
   id="path3203"
   inkscape:connector-curvature="0" />
			</g>
			<path
   style="clip-rule:evenodd;fill:#7c3a00;fill-rule:evenodd"
   d="m 242.92,400.424 0.792,13.536 c 0.216,4.752 0.936,9.36 2.016,14.04 0.792,3.24 2.016,6.336 3.6,9.216 2.16,4.032 5.04,7.56 8.496,10.512 1.872,1.224 3.816,2.376 5.832,3.312 1.584,0.648 3.096,1.368 4.68,2.016 3.096,0.864 6.192,1.584 9.36,2.088 1.584,0.36 3.24,0.576 4.824,0.648 3.6,0.144 7.2,0.144 10.728,0 2.016,-0.144 4.032,-0.432 5.904,-1.008 2.448,-0.504 4.32,-2.304 4.824,-4.752 0.216,-0.504 0.288,-1.08 0.432,-1.656 0.288,-3.096 -0.288,-6.192 -1.512,-9 -1.44,-3.312 -3.96,-5.976 -7.056,-7.56 -2.304,-1.296 -4.752,-2.232 -7.344,-2.88 -1.44,-0.288 -2.808,-0.648 -4.176,-1.152 -7.848,-2.304 -15.552,-4.824 -23.256,-7.416 -3.024,-1.296 -5.976,-2.736 -8.784,-4.464 -1.944,-1.224 -3.528,-2.88 -4.68,-4.824 -0.864,-1.44 -1.584,-2.952 -2.232,-4.536 z"
   id="path3207"
   inkscape:connector-curvature="0" />
			<g
   id="g3211">
				<path
   style="clip-rule:evenodd;fill:#7c3a00;fill-rule:evenodd"
   d="m 372.448,334.4 -1.656,12.024 c -0.72,5.688 -1.8,11.304 -3.024,16.848 -0.792,3.168 -1.728,6.336 -2.88,9.36 -1.584,3.888 -4.536,7.056 -8.352,8.928 -4.392,2.088 -9,3.816 -13.608,5.256 -3.96,1.584 -8.064,2.88 -12.168,3.672 -4.032,1.152 -7.92,2.736 -11.592,4.68 -3.096,1.584 -5.544,4.104 -7.056,7.2 -1.584,3.168 -2.016,6.84 -1.224,10.368 0.648,3.096 3.456,5.4 6.624,5.328 3.168,0.36 6.336,0.648 9.576,0.72 2.664,0 5.4,-0.144 8.064,-0.432 7.92,-0.864 15.48,-3.672 22.104,-8.136 3.024,-2.304 5.616,-5.184 7.56,-8.496 2.448,-3.96 4.104,-8.352 4.968,-12.888 1.08,-5.76 1.728,-11.592 1.944,-17.496 0.144,-3.168 0.216,-6.408 0.432,-9.576 z"
   id="path3209"
   inkscape:connector-curvature="0" />
			</g>
			<g
   id="g3215">
				<path
   style="clip-rule:evenodd;fill:#7c3a00;fill-rule:evenodd"
   d="m 307.216,303.512 -3.744,20.088 c -0.432,3.456 -1.656,6.696 -3.672,9.576 -11.304,15.768 -12.456,36.792 -2.736,53.64 2.088,3.456 5.904,5.544 10.008,5.544 4.104,0 7.92,-2.088 10.152,-5.544 9.72,-16.848 8.568,-37.872 -2.808,-53.64 -2.016,-2.88 -3.312,-6.12 -3.672,-9.576 z"
   id="path3213"
   inkscape:connector-curvature="0" />
			</g>
			<path
   style="clip-rule:evenodd;fill:#7c3a00;fill-rule:evenodd"
   d="m 371.296,400.424 -0.72,13.536 c -0.288,4.752 -0.936,9.36 -2.088,14.04 -0.72,3.24 -1.944,6.336 -3.528,9.216 -2.16,4.032 -5.04,7.56 -8.496,10.512 -1.872,1.224 -3.888,2.376 -5.904,3.312 -1.512,0.648 -3.096,1.368 -4.68,2.016 -3.024,0.864 -6.12,1.584 -9.288,2.088 -1.656,0.36 -3.24,0.576 -4.896,0.648 -3.528,0.144 -7.128,0.144 -10.728,0 -2.016,-0.144 -4.032,-0.432 -5.976,-1.008 -2.376,-0.504 -4.248,-2.304 -4.752,-4.752 -0.216,-0.504 -0.36,-1.08 -0.432,-1.656 -0.288,-3.096 0.216,-6.192 1.512,-9 1.368,-3.312 3.888,-5.976 7.056,-7.56 2.304,-1.296 4.824,-2.232 7.416,-2.88 1.368,-0.288 2.808,-0.648 4.176,-1.152 7.776,-2.304 15.552,-4.824 23.256,-7.416 3.024,-1.296 5.976,-2.736 8.784,-4.464 1.944,-1.224 3.528,-2.88 4.68,-4.824 0.792,-1.44 1.512,-2.952 2.232,-4.536 z"
   id="path3217"
   inkscape:connector-curvature="0" />
		</g>
	</g>
</g>
</svg>