<?xml version="1.0" encoding="iso-8859-1"?>
<!-- Generator: Adobe Illustrator 15.1.0, SVG Export Plug-In . SVG Version: 6.00 Build 0)  -->
<!DOCTYPE svg PUBLIC "-//W3C//DTD SVG 1.1//EN" "http://www.w3.org/Graphics/SVG/1.1/DTD/svg11.dtd">
<svg version="1.1" xmlns="http://www.w3.org/2000/svg" xmlns:xlink="http://www.w3.org/1999/xlink" x="0px" y="0px" width="595px"
	 height="842px" viewBox="0 0 595 842" style="enable-background:new 0 0 595 842;" xml:space="preserve">
<g id="Layer_1">
</g>
<g id="AME_x5F_FRZ">
</g>
<g id="KUVA">
</g>
<g id="ruskea">
</g>
<g id="OTS">
</g>
<g id="mitat2">
</g>
<g id="_x30_">
</g>
<g id="MITAT">
</g>
<g id="Layer1">
</g>
<g id="HAT">
	<g>
		<g>
			<g>
				<path style="fill-rule:evenodd;clip-rule:evenodd;fill:#7C3A00;" d="M99.784,240.08h421.92c5.832,0,10.584,4.68,10.584,10.512
					V587.84c0,5.832-4.752,10.584-10.584,10.584H99.784c-5.832,0-10.512-4.752-10.512-10.584V250.592
					C89.272,244.76,93.952,240.08,99.784,240.08L99.784,240.08z"/>
				
					<path style="fill-rule:evenodd;clip-rule:evenodd;fill:none;stroke:#7C3A00;stroke-width:0;stroke-linejoin:bevel;stroke-miterlimit:10;" d="
					M99.784,240.08h421.92c5.832,0,10.584,4.68,10.584,10.512V587.84c0,5.832-4.752,10.584-10.584,10.584H99.784
					c-5.832,0-10.512-4.752-10.512-10.584V250.592C89.272,244.76,93.952,240.08,99.784,240.08"/>
			</g>
			<g>
				<polygon style="fill-rule:evenodd;clip-rule:evenodd;fill:#FFFFFF;" points="192.088,300.632 429.544,300.632 429.544,537.584 
					192.088,537.584 192.088,300.632 				"/>
			</g>
			<g>
				<g>
					<path style="fill-rule:evenodd;clip-rule:evenodd;fill:#7C3A00;" d="M309.736,229.496h210.96
						c11.664,0,21.096,9.432,21.096,21.096V587.84c0,5.616-2.232,10.944-6.12,14.904c-3.96,3.96-9.36,6.192-14.976,6.192h-210.96
						h232.056v-379.44H309.736z M98.848,229.496h210.888H77.752l0,0v379.44h231.984H98.848c-11.664,0-21.096-9.432-21.096-21.096
						V250.592C77.752,238.928,87.184,229.496,98.848,229.496L98.848,229.496z"/>
				</g>
				<g>
					<path style="fill:#7C3A00;" d="M534.304,228.992h7.488l0.504,0.504v21.096l0,0V587.84l0,0v21.096l-0.504,0.504h-7.488v-1.008
						h6.984V594.32c-0.144,0.576-0.36,1.224-0.648,1.8c-0.144,0.432-0.36,0.792-0.504,1.224c-1.08,2.088-2.448,4.032-4.176,5.76l0,0
						l0,0l0,0c-0.504,0.576-1.08,1.08-1.656,1.512v-1.296c0.288-0.288,0.648-0.576,1.008-0.936l0,0l0,0l0,0
						c1.584-1.584,2.88-3.456,3.888-5.472c0.216-0.432,0.36-0.792,0.576-1.224c1.008-2.448,1.512-5.112,1.512-7.848l0,0V250.592l0,0
						c0-5.688-2.304-10.872-5.976-14.544c-0.36-0.36-0.72-0.648-1.008-0.936v-1.368c0.576,0.504,1.152,1.008,1.656,1.584
						c2.448,2.376,4.32,5.4,5.328,8.712V230h-6.984V228.992z M309.736,228.992h210.96l0,0h13.608V230h-7.056
						c2.592,0.792,4.968,2.088,7.056,3.744v1.368c-3.672-3.168-8.424-5.112-13.608-5.112l0,0h-210.96V228.992L309.736,228.992z
						 M534.304,609.44h-13.608h-210.96v-1.008h210.96c3.96,0,7.776-1.152,11.016-3.168c0.648-0.432,1.296-0.864,1.872-1.368
						c0.216-0.144,0.432-0.36,0.72-0.576v1.296c-0.072,0.072-0.072,0.072-0.072,0.072c-0.648,0.504-1.296,0.936-1.944,1.368
						c-1.584,1.008-3.312,1.8-5.112,2.376h7.128V609.44z M98.848,228.992h210.888V230H98.848l0,0c-5.184,0-9.936,1.944-13.608,5.112
						v-1.368c2.088-1.656,4.464-2.952,7.056-3.744H85.24v-1.008H98.848L98.848,228.992L98.848,228.992z M309.736,609.44H98.848l0,0
						H85.24v-1.008h7.056c-2.592-0.864-4.968-2.088-7.056-3.816v-1.296c3.672,3.168,8.424,5.112,13.608,5.112l0,0h210.888V609.44z
						 M85.24,609.44h-7.488l-0.504-0.504V587.84l0,0V250.592l0,0v-21.096h0.504v-0.504h7.488V230h-6.984v14.04
						c1.008-3.312,2.88-6.336,5.328-8.712c0.504-0.576,1.08-1.08,1.656-1.584v1.368c-0.288,0.288-0.648,0.576-1.008,0.936
						c-3.672,3.672-5.976,8.856-5.976,14.544l0,0V587.84l0,0c0,5.688,2.304,10.8,5.976,14.544c0.36,0.36,0.72,0.648,1.008,0.936
						v1.296c-0.576-0.432-1.152-1.008-1.656-1.512c-2.448-2.448-4.32-5.4-5.328-8.784v14.112h6.984V609.44z"/>
					<path style="fill:none;stroke:#7C3A00;stroke-width:1.0001;stroke-miterlimit:10;" d="M98.848,228.992h421.848l0,0h21.096
						l0.504,0.504v21.096l0,0V587.84l0,0v21.096l-0.504,0.504h-21.096H98.848l0,0H77.752l-0.504-0.504V587.84l0,0V250.592l0,0
						v-21.096h0.504v-0.504H98.848L98.848,228.992L98.848,228.992z M520.696,230H98.848l0,0c-5.688,0-10.872,2.304-14.616,6.048
						c-3.672,3.672-5.976,8.856-5.976,14.544l0,0V587.84l0,0c0,5.688,2.304,10.8,5.976,14.544c3.744,3.744,8.928,6.048,14.616,6.048
						l0,0h421.848c3.96,0,7.776-1.152,11.016-3.168c0.648-0.432,1.296-0.864,1.872-1.368c0.576-0.432,1.152-0.936,1.728-1.512l0,0
						l0,0l0,0c1.584-1.584,2.88-3.456,3.888-5.472c0.216-0.432,0.36-0.792,0.576-1.224c1.008-2.448,1.512-5.112,1.512-7.848l0,0
						V250.592l0,0c0-5.688-2.304-10.872-5.976-14.544C531.568,232.304,526.384,230,520.696,230L520.696,230L520.696,230z
						 M527.248,230c3.312,1.08,6.336,2.88,8.712,5.328c2.448,2.376,4.32,5.4,5.328,8.712V230H527.248L527.248,230z M541.288,594.32
						c-0.144,0.576-0.36,1.224-0.648,1.8c-0.144,0.432-0.36,0.792-0.504,1.224c-1.08,2.088-2.448,4.032-4.176,5.76l0,0l0,0l0,0
						c-0.576,0.576-1.152,1.08-1.728,1.584c-0.648,0.504-1.296,0.936-1.944,1.368c-1.584,1.008-3.312,1.8-5.112,2.376h14.112V594.32
						L541.288,594.32z M92.296,608.432c-3.312-1.08-6.336-2.88-8.712-5.328c-2.448-2.448-4.32-5.4-5.328-8.784v14.112H92.296
						L92.296,608.432z M78.256,244.04c1.008-3.312,2.88-6.336,5.328-8.712c2.376-2.448,5.4-4.248,8.712-5.328h-14.04V244.04z"/>
				</g>
			</g>
		</g>
		<g>
			<path style="fill-rule:evenodd;clip-rule:evenodd;fill:#7C3A00;" d="M242.92,476.24l0.792,13.536
				c0.216,4.68,0.936,9.432,2.016,14.04c0.792,3.24,2.016,6.336,3.6,9.288c2.16,3.96,5.04,7.56,8.496,10.512
				c1.872,1.224,3.816,2.304,5.832,3.312c1.584,0.648,3.096,1.296,4.68,1.944c3.096,0.936,6.192,1.656,9.36,2.16
				c1.584,0.288,3.24,0.504,4.824,0.576c3.6,0.144,7.2,0.144,10.728,0c2.088-0.072,4.032-0.432,5.904-1.008
				c2.448-0.432,4.32-2.304,4.824-4.68c0.216-0.576,0.36-1.152,0.432-1.728c0.288-3.096-0.288-6.192-1.512-9
				c-1.44-3.24-3.888-5.904-7.056-7.488c-2.304-1.296-4.752-2.304-7.344-2.88c-1.44-0.288-2.808-0.72-4.176-1.152
				c-7.848-2.304-15.552-4.824-23.256-7.56c-3.024-1.224-5.976-2.736-8.784-4.392c-1.944-1.224-3.528-2.88-4.68-4.896
				c-0.864-1.44-1.584-2.952-2.232-4.464L242.92,476.24L242.92,476.24z"/>
			<path style="fill-rule:evenodd;clip-rule:evenodd;fill:#7C3A00;" d="M242.92,438.296l0.792,13.536
				c0.216,4.752,0.936,9.432,2.016,14.04c0.792,3.24,2.016,6.408,3.6,9.288c2.16,4.032,5.04,7.56,8.496,10.512
				c1.872,1.224,3.816,2.304,5.832,3.312c1.584,0.648,3.096,1.296,4.68,1.944c3.096,0.936,6.192,1.656,9.36,2.16
				c1.584,0.288,3.24,0.504,4.824,0.576c3.6,0.144,7.2,0.144,10.728,0c2.088-0.072,4.032-0.432,5.904-0.936
				c2.448-0.504,4.32-2.376,4.824-4.752c0.216-0.576,0.36-1.152,0.432-1.728c0.288-3.024-0.288-6.12-1.512-8.928
				c-1.44-3.312-3.888-5.976-7.056-7.56c-2.304-1.296-4.752-2.232-7.344-2.88c-1.44-0.288-2.808-0.72-4.176-1.152
				c-7.848-2.304-15.552-4.824-23.256-7.56c-3.024-1.224-5.976-2.664-8.784-4.392c-1.944-1.224-3.528-2.88-4.68-4.824
				c-0.864-1.512-1.584-3.024-2.232-4.536L242.92,438.296L242.92,438.296z"/>
			<path style="fill-rule:evenodd;clip-rule:evenodd;fill:#7C3A00;" d="M371.296,438.296l-0.72,13.536
				c-0.288,4.752-0.936,9.432-2.088,14.04c-0.72,3.24-1.944,6.408-3.528,9.288c-2.16,4.032-5.04,7.56-8.496,10.512
				c-1.872,1.224-3.888,2.304-5.904,3.312c-1.512,0.648-3.096,1.296-4.68,1.944c-3.024,0.936-6.12,1.656-9.288,2.16
				c-1.584,0.288-3.24,0.504-4.896,0.576c-3.528,0.144-7.128,0.144-10.728,0c-2.016-0.072-4.032-0.432-5.976-0.936
				c-2.376-0.504-4.248-2.376-4.752-4.752c-0.216-0.576-0.36-1.152-0.432-1.728c-0.288-3.024,0.216-6.12,1.512-8.928
				c1.368-3.312,3.888-5.976,7.056-7.56c2.304-1.296,4.824-2.232,7.416-2.88c1.368-0.288,2.808-0.72,4.176-1.152
				c7.776-2.304,15.552-4.824,23.256-7.56c3.024-1.224,5.976-2.664,8.784-4.392c1.944-1.224,3.528-2.88,4.68-4.824
				c0.792-1.512,1.512-3.024,2.232-4.536L371.296,438.296L371.296,438.296z"/>
			<path style="fill-rule:evenodd;clip-rule:evenodd;fill:#7C3A00;" d="M371.296,476.24l-0.72,13.536
				c-0.288,4.68-0.936,9.432-2.088,14.04c-0.72,3.24-1.944,6.336-3.528,9.288c-2.16,3.96-5.04,7.56-8.496,10.512
				c-1.872,1.224-3.888,2.304-5.904,3.312c-1.512,0.648-3.096,1.296-4.68,1.944c-3.024,0.936-6.12,1.656-9.288,2.16
				c-1.584,0.288-3.24,0.504-4.896,0.576c-3.528,0.144-7.128,0.144-10.728,0c-2.016-0.072-4.032-0.432-5.976-1.008
				c-2.376-0.432-4.248-2.304-4.752-4.68c-0.216-0.576-0.36-1.152-0.432-1.728c-0.288-3.096,0.216-6.192,1.512-9
				c1.368-3.24,3.888-5.904,7.056-7.488c2.304-1.296,4.824-2.304,7.416-2.88c1.368-0.288,2.808-0.72,4.176-1.152
				c7.776-2.376,15.552-4.824,23.256-7.56c3.024-1.224,5.976-2.736,8.784-4.392c1.944-1.224,3.528-2.88,4.68-4.896
				c0.792-1.44,1.512-2.952,2.232-4.464L371.296,476.24L371.296,476.24z"/>
			<g>
				<path style="fill-rule:evenodd;clip-rule:evenodd;fill:#7C3A00;" d="M241.768,334.4l1.656,12.024
					c0.792,5.688,1.8,11.304,3.096,16.848c0.72,3.168,1.656,6.336,2.88,9.36c1.584,3.888,4.536,7.056,8.28,8.928
					c4.464,2.088,9,3.816,13.68,5.256c3.96,1.584,7.992,2.88,12.168,3.672c4.032,1.152,7.92,2.736,11.592,4.68
					c3.024,1.584,5.472,4.104,6.984,7.2c1.584,3.168,2.016,6.84,1.152,10.368c-0.576,3.096-3.384,5.4-6.552,5.328
					c-3.168,0.36-6.336,0.648-9.504,0.72c-2.736,0-5.4-0.144-8.064-0.432c-7.92-0.864-15.552-3.672-22.104-8.136
					c-3.096-2.304-5.688-5.184-7.632-8.496c-2.376-3.96-4.104-8.352-4.968-12.888c-1.008-5.76-1.656-11.592-1.944-17.496
					c-0.072-3.168-0.216-6.408-0.36-9.576L241.768,334.4L241.768,334.4z"/>
			</g>
			<path style="fill-rule:evenodd;clip-rule:evenodd;fill:#7C3A00;" d="M242.92,400.424l0.792,13.536
				c0.216,4.752,0.936,9.36,2.016,14.04c0.792,3.24,2.016,6.336,3.6,9.216c2.16,4.032,5.04,7.56,8.496,10.512
				c1.872,1.224,3.816,2.376,5.832,3.312c1.584,0.648,3.096,1.368,4.68,2.016c3.096,0.864,6.192,1.584,9.36,2.088
				c1.584,0.36,3.24,0.576,4.824,0.648c3.6,0.144,7.2,0.144,10.728,0c2.016-0.144,4.032-0.432,5.904-1.008
				c2.448-0.504,4.32-2.304,4.824-4.752c0.216-0.504,0.288-1.08,0.432-1.656c0.288-3.096-0.288-6.192-1.512-9
				c-1.44-3.312-3.96-5.976-7.056-7.56c-2.304-1.296-4.752-2.232-7.344-2.88c-1.44-0.288-2.808-0.648-4.176-1.152
				c-7.848-2.304-15.552-4.824-23.256-7.416c-3.024-1.296-5.976-2.736-8.784-4.464c-1.944-1.224-3.528-2.88-4.68-4.824
				c-0.864-1.44-1.584-2.952-2.232-4.536L242.92,400.424L242.92,400.424z"/>
			<g>
				<path style="fill-rule:evenodd;clip-rule:evenodd;fill:#7C3A00;" d="M372.448,334.4l-1.656,12.024
					c-0.72,5.688-1.8,11.304-3.024,16.848c-0.792,3.168-1.728,6.336-2.88,9.36c-1.584,3.888-4.536,7.056-8.352,8.928
					c-4.392,2.088-9,3.816-13.608,5.256c-3.96,1.584-8.064,2.88-12.168,3.672c-4.032,1.152-7.92,2.736-11.592,4.68
					c-3.096,1.584-5.544,4.104-7.056,7.2c-1.584,3.168-2.016,6.84-1.224,10.368c0.648,3.096,3.456,5.4,6.624,5.328
					c3.168,0.36,6.336,0.648,9.576,0.72c2.664,0,5.4-0.144,8.064-0.432c7.92-0.864,15.48-3.672,22.104-8.136
					c3.024-2.304,5.616-5.184,7.56-8.496c2.448-3.96,4.104-8.352,4.968-12.888c1.08-5.76,1.728-11.592,1.944-17.496
					c0.144-3.168,0.216-6.408,0.432-9.576L372.448,334.4L372.448,334.4z"/>
			</g>
			<g>
				<path style="fill-rule:evenodd;clip-rule:evenodd;fill:#7C3A00;" d="M307.216,303.512l-3.744,20.088
					c-0.432,3.456-1.656,6.696-3.672,9.576c-11.304,15.768-12.456,36.792-2.736,53.64c2.088,3.456,5.904,5.544,10.008,5.544
					s7.92-2.088,10.152-5.544c9.72-16.848,8.568-37.872-2.808-53.64c-2.016-2.88-3.312-6.12-3.672-9.576L307.216,303.512
					L307.216,303.512z"/>
			</g>
			<path style="fill-rule:evenodd;clip-rule:evenodd;fill:#7C3A00;" d="M371.296,400.424l-0.72,13.536
				c-0.288,4.752-0.936,9.36-2.088,14.04c-0.72,3.24-1.944,6.336-3.528,9.216c-2.16,4.032-5.04,7.56-8.496,10.512
				c-1.872,1.224-3.888,2.376-5.904,3.312c-1.512,0.648-3.096,1.368-4.68,2.016c-3.024,0.864-6.12,1.584-9.288,2.088
				c-1.656,0.36-3.24,0.576-4.896,0.648c-3.528,0.144-7.128,0.144-10.728,0c-2.016-0.144-4.032-0.432-5.976-1.008
				c-2.376-0.504-4.248-2.304-4.752-4.752c-0.216-0.504-0.36-1.08-0.432-1.656c-0.288-3.096,0.216-6.192,1.512-9
				c1.368-3.312,3.888-5.976,7.056-7.56c2.304-1.296,4.824-2.232,7.416-2.88c1.368-0.288,2.808-0.648,4.176-1.152
				c7.776-2.304,15.552-4.824,23.256-7.416c3.024-1.296,5.976-2.736,8.784-4.464c1.944-1.224,3.528-2.88,4.68-4.824
				c0.792-1.44,1.512-2.952,2.232-4.536L371.296,400.424L371.296,400.424z"/>
		</g>
	</g>
</g>
</svg>
