<?xml version="1.0" encoding="iso-8859-1"?>
<!-- Generator: Adobe Illustrator 15.1.0, SVG Export Plug-In . SVG Version: 6.00 Build 0)  -->
<!DOCTYPE svg PUBLIC "-//W3C//DTD SVG 1.1//EN" "http://www.w3.org/Graphics/SVG/1.1/DTD/svg11.dtd">
<svg version="1.1" id="Layer1" xmlns="http://www.w3.org/2000/svg" xmlns:xlink="http://www.w3.org/1999/xlink" x="0px" y="0px"
	 width="595px" height="842px" viewBox="0 0 595 842" style="enable-background:new 0 0 595 842;" xml:space="preserve">
<g>
	<g>
		<g>
			<path style="fill-rule:evenodd;clip-rule:evenodd;fill:#7C3A00;" d="M99.784,240.08h421.92c5.832,0,10.584,4.68,10.584,10.512
				V587.84c0,5.832-4.752,10.584-10.584,10.584H99.784c-5.832,0-10.512-4.752-10.512-10.584V250.592
				C89.272,244.76,93.952,240.08,99.784,240.08L99.784,240.08z"/>
			
				<path style="fill-rule:evenodd;clip-rule:evenodd;fill:none;stroke:#7C3A00;stroke-width:0;stroke-linejoin:bevel;stroke-miterlimit:10;" d="
				M99.784,240.08h421.92c5.832,0,10.584,4.68,10.584,10.512V587.84c0,5.832-4.752,10.584-10.584,10.584H99.784
				c-5.832,0-10.512-4.752-10.512-10.584V250.592C89.272,244.76,93.952,240.08,99.784,240.08"/>
		</g>
		<g>
			<polygon style="fill-rule:evenodd;clip-rule:evenodd;fill:#FFFFFF;" points="192.088,300.632 429.544,300.632 429.544,537.584 
				192.088,537.584 192.088,300.632 			"/>
		</g>
		<g>
			<g>
				<path style="fill-rule:evenodd;clip-rule:evenodd;fill:#7C3A00;" d="M309.736,229.496h210.96
					c11.664,0,21.096,9.432,21.096,21.096V587.84c0,5.616-2.232,10.944-6.12,14.904c-3.96,3.96-9.36,6.192-14.976,6.192h-210.96
					h232.056v-379.44H309.736z M98.848,229.496h210.888H77.752l0,0v379.44h231.984H98.848c-11.664,0-21.096-9.432-21.096-21.096
					V250.592C77.752,238.928,87.184,229.496,98.848,229.496L98.848,229.496z"/>
			</g>
			<g>
				<path style="fill:#7C3A00;" d="M534.304,228.992h7.488l0.504,0.504v21.096l0,0V587.84l0,0v21.096l-0.504,0.504h-7.488v-1.008
					h6.984V594.32c-0.144,0.576-0.36,1.224-0.648,1.8c-0.144,0.432-0.36,0.792-0.504,1.224c-1.08,2.088-2.448,4.032-4.176,5.76l0,0
					l0,0l0,0c-0.504,0.576-1.08,1.08-1.656,1.512v-1.296c0.288-0.288,0.648-0.576,1.008-0.936l0,0l0,0l0,0
					c1.584-1.584,2.88-3.456,3.888-5.472c0.216-0.432,0.36-0.792,0.576-1.224c1.008-2.448,1.512-5.112,1.512-7.848l0,0V250.592l0,0
					c0-5.688-2.304-10.872-5.976-14.544c-0.36-0.36-0.72-0.648-1.008-0.936v-1.368c0.576,0.504,1.152,1.008,1.656,1.584
					c2.448,2.376,4.32,5.4,5.328,8.712V230h-6.984V228.992z M309.736,228.992h210.96l0,0h13.608V230h-7.056
					c2.592,0.792,4.968,2.088,7.056,3.744v1.368c-3.672-3.168-8.424-5.112-13.608-5.112l0,0h-210.96V228.992L309.736,228.992z
					 M534.304,609.44h-13.608h-210.96v-1.008h210.96c3.96,0,7.776-1.152,11.016-3.168c0.648-0.432,1.296-0.864,1.872-1.368
					c0.216-0.144,0.432-0.36,0.72-0.576v1.296c-0.072,0.072-0.072,0.072-0.072,0.072c-0.648,0.504-1.296,0.936-1.944,1.368
					c-1.584,1.008-3.312,1.8-5.112,2.376h7.128V609.44z M98.848,228.992h210.888V230H98.848l0,0c-5.184,0-9.936,1.944-13.608,5.112
					v-1.368c2.088-1.656,4.464-2.952,7.056-3.744H85.24v-1.008H98.848L98.848,228.992L98.848,228.992z M309.736,609.44H98.848l0,0
					H85.24v-1.008h7.056c-2.592-0.864-4.968-2.088-7.056-3.816v-1.296c3.672,3.168,8.424,5.112,13.608,5.112l0,0h210.888V609.44z
					 M85.24,609.44h-7.488l-0.504-0.504V587.84l0,0V250.592l0,0v-21.096h0.504v-0.504h7.488V230h-6.984v14.04
					c1.008-3.312,2.88-6.336,5.328-8.712c0.504-0.576,1.08-1.08,1.656-1.584v1.368c-0.288,0.288-0.648,0.576-1.008,0.936
					c-3.672,3.672-5.976,8.856-5.976,14.544l0,0V587.84l0,0c0,5.688,2.304,10.8,5.976,14.544c0.36,0.36,0.72,0.648,1.008,0.936
					v1.296c-0.576-0.432-1.152-1.008-1.656-1.512c-2.448-2.448-4.32-5.4-5.328-8.784v14.112h6.984V609.44z"/>
				<path style="fill:none;stroke:#7C3A00;stroke-width:1.0001;stroke-miterlimit:10;" d="M98.848,228.992h421.848l0,0h21.096
					l0.504,0.504v21.096l0,0V587.84l0,0v21.096l-0.504,0.504h-21.096H98.848l0,0H77.752l-0.504-0.504V587.84l0,0V250.592l0,0
					v-21.096h0.504v-0.504H98.848L98.848,228.992L98.848,228.992z M520.696,230H98.848l0,0c-5.688,0-10.872,2.304-14.616,6.048
					c-3.672,3.672-5.976,8.856-5.976,14.544l0,0V587.84l0,0c0,5.688,2.304,10.8,5.976,14.544c3.744,3.744,8.928,6.048,14.616,6.048
					l0,0h421.848c3.96,0,7.776-1.152,11.016-3.168c0.648-0.432,1.296-0.864,1.872-1.368c0.576-0.432,1.152-0.936,1.728-1.512l0,0
					l0,0l0,0c1.584-1.584,2.88-3.456,3.888-5.472c0.216-0.432,0.36-0.792,0.576-1.224c1.008-2.448,1.512-5.112,1.512-7.848l0,0
					V250.592l0,0c0-5.688-2.304-10.872-5.976-14.544C531.568,232.304,526.384,230,520.696,230L520.696,230L520.696,230z
					 M527.248,230c3.312,1.08,6.336,2.88,8.712,5.328c2.448,2.376,4.32,5.4,5.328,8.712V230H527.248L527.248,230z M541.288,594.32
					c-0.144,0.576-0.36,1.224-0.648,1.8c-0.144,0.432-0.36,0.792-0.504,1.224c-1.08,2.088-2.448,4.032-4.176,5.76l0,0l0,0l0,0
					c-0.576,0.576-1.152,1.08-1.728,1.584c-0.648,0.504-1.296,0.936-1.944,1.368c-1.584,1.008-3.312,1.8-5.112,2.376h14.112V594.32
					L541.288,594.32z M92.296,608.432c-3.312-1.08-6.336-2.88-8.712-5.328c-2.448-2.448-4.32-5.4-5.328-8.784v14.112H92.296
					L92.296,608.432z M78.256,244.04c1.008-3.312,2.88-6.336,5.328-8.712c2.376-2.448,5.4-4.248,8.712-5.328h-14.04V244.04z"/>
			</g>
		</g>
	</g>
	<g>
		<path style="fill-rule:evenodd;clip-rule:evenodd;fill:#7C3A00;" d="M412.48,509.216l-0.432,0.432
			c-0.144,0.216-0.288,0.504-0.288,0.792v5.76h-10.584c0.648-2.448,1.944-4.68,3.6-6.624c1.44-1.728,2.16-3.96,2.232-6.192
			l-1.512-6.696l-2.808-9c-2.88-8.352-8.28-15.696-15.48-20.88c-1.728-0.936-3.384-2.016-5.04-3.096
			c-5.184-3.168-9.576-7.488-12.888-12.672l-1.728,1.08c-5.256,3.744-7.704,10.152-6.264,16.416c0.288,2.376,0.72,4.752,1.44,7.056
			c0.504,1.296,0.072,2.808-1.08,3.672c-7.704,5.544-14.328,12.456-19.44,20.448c-1.296,1.8-2.16,3.816-2.736,5.976
			c-0.288,2.232-2.232,3.96-4.536,3.96c-0.72,2.16-1.152,4.32-1.44,6.624H322.12l3.24-5.976c1.08-2.088,2.448-4.032,4.032-5.832
			l17.424-23.76c1.44-1.872,1.584-4.392,0.36-6.408l-3.528-10.152l-3.6-14.184l-8.496,1.368
			c-12.816,1.728-25.848,1.872-38.592,0.432l2.376,8.712l2.016,11.448l6.48,22.32l2.088,4.608l1.296,1.872l0.36,0.792
			c0.648,2.088-0.288,4.248-2.232,5.184c-2.664,2.448-4.032,5.976-3.744,9.576h-11.448l0.936-1.872
			c1.656-3.312,3.744-6.408,6.264-9.216c1.224-1.8,1.44-4.104,0.72-6.192L290.296,482l-4.464-8.064l-6.768-10.224l-5.544-10.44
			l-4.392-2.232l-5.112,2.448c-5.616,2.304-11.736,3.528-17.856,3.528l-8.496,1.728c-1.368,0.288-2.304,1.512-2.16,2.952
			l3.312,18.072c0.144,0.864,0.648,1.584,1.44,2.016c2.664,0.36,4.968,2.232,5.832,4.752h5.472v10.656l-3.888-0.648
			c-6.12-1.512-11.304-5.688-14.04-11.448l-6.192-18.288l-2.808-11.304c-0.432-1.656,0.216-3.384,1.584-4.464
			c8.856-5.472,18.72-9.072,29.016-10.584l0,0c-3.24-6.984-4.968-14.616-5.112-22.248l0,0c-2.664-9.072-6.84-17.64-12.456-25.272
			l-5.112,2.952l-2.952,10.584c0.072,2.592,0.216,5.112,0.432,7.704c-0.504,1.368-1.872,2.304-3.312,2.16
			c-2.304,2.016-5.472,2.664-8.352,1.728c-3.168-0.648-5.328-3.6-4.824-6.84l-5.472-38.736l-9.576-5.544l3.6-0.504
			c5.04-0.648,10.08-0.72,15.12-0.216l3.6-1.08c13.392-3.384,27.504-0.072,38.016,8.856l21.528,18.216
			c0.864,0.504,1.728,0.864,2.664,1.08l12.456-6.912l1.872-20.736c0.432-4.248,2.304-8.208,5.4-11.16l1.44-1.008
			c1.368-1.08,2.16-2.664,2.16-4.32c0-0.936-0.216-1.872-0.648-2.664c-1.008,0.504-2.232,0.504-3.24,0.072
			c-1.08-0.36-1.872-1.224-2.304-2.304c-0.576-1.512-0.936-3.096-1.152-4.752c-0.36-1.872-0.216-3.816,0.432-5.544
			c-1.296-2.088-1.296-4.824,0-6.912c1.584-1.872,3.744-3.168,6.12-3.744c2.952-1.08,6.264-0.648,8.928,1.08
			c0.792,0.576,1.512,1.296,2.016,2.088c1.08,1.512,1.656,3.312,1.584,5.184v4.752c-0.144,2.52-0.576,5.112-1.44,7.488
			c-0.576,2.664,0.216,5.4,2.16,7.272c3.312,6.48,4.752,13.824,4.104,21.096c-0.072,3.312,0.864,6.48,2.52,9.216
			c1.584,4.104,2.376,8.496,2.376,12.888v5.04l0,0l2.232-0.144c5.328-0.288,10.656-1.224,15.84-2.592l33.696,4.32l3.672-1.008
			c14.76-3.096,29.304,5.832,33.192,20.376c2.952,10.08,2.736,20.88-0.504,30.96c-0.936,2.088-0.72,4.536,0.648,6.48
			c1.296,1.872,3.6,2.88,5.904,2.664l-3.168,1.872c-3.888,1.296-8.136-0.144-10.44-3.528c-4.752-7.056-7.2-15.336-6.984-23.832
			c0.144-8.28-1.296-16.488-4.392-24.192c-2.376-4.896-8.136-7.056-13.104-4.896l3.024,3.312c6.768,8.496,9.36,19.512,6.984,30.096
			c0.216,10.512,4.68,20.52,12.24,27.864v6.552c-0.216,1.368-0.072,2.736,0.36,4.032l7.92,25.488c0.648,1.728,0.144,3.6-1.224,4.824
			L412.48,509.216L412.48,509.216z"/>
	</g>
</g>
</svg>
