<?xml version="1.0" encoding="iso-8859-1"?>
<!-- Generator: Adobe Illustrator 15.1.0, SVG Export Plug-In . SVG Version: 6.00 Build 0)  -->
<!DOCTYPE svg PUBLIC "-//W3C//DTD SVG 1.1//EN" "http://www.w3.org/Graphics/SVG/1.1/DTD/svg11.dtd">
<svg version="1.1" id="Layer_1" xmlns="http://www.w3.org/2000/svg" xmlns:xlink="http://www.w3.org/1999/xlink" x="0px" y="0px"
	 width="595px" height="842px" viewBox="0 0 595 842" style="enable-background:new 0 0 595 842;" xml:space="preserve">
<g>
	<g>
		<path style="fill-rule:evenodd;clip-rule:evenodd;fill:#0079C1;" d="M87.4,241.664h422.496c5.832,0,10.584,4.752,10.584,10.584
			v337.68c0,5.832-4.752,10.584-10.584,10.584H87.4c-5.832,0-10.584-4.752-10.584-10.584v-337.68
			C76.816,246.416,81.568,241.664,87.4,241.664L87.4,241.664z"/>
	</g>
	<g>
		<path style="fill-rule:evenodd;clip-rule:evenodd;fill:#0079C1;" d="M298.576,231.08h211.32c11.664,0,21.096,9.504,21.096,21.168
			v337.68c0,5.616-2.232,11.016-6.192,14.976s-9.288,6.192-14.904,6.192h-211.32h232.416V231.08H298.576z M87.4,231.08h211.176
			H66.232l0,0v380.016h232.344H87.4c-11.664,0-21.168-9.504-21.168-21.168v-337.68C66.232,240.584,75.736,231.08,87.4,231.08
			L87.4,231.08z"/>
		
			<path style="fill-rule:evenodd;clip-rule:evenodd;fill:none;stroke:#0079C1;stroke-width:1.0001;stroke-linejoin:bevel;stroke-miterlimit:10;" d="
			M87.4,231.08h422.496c11.664,0,21.096,9.504,21.096,21.168v337.68c0,5.616-2.232,11.016-6.192,14.976s-9.288,6.192-14.904,6.192
			H87.4c-11.664,0-21.168-9.504-21.168-21.168v-337.68C66.232,240.584,75.736,231.08,87.4,231.08 M66.232,231.08h464.76v380.016
			H66.232V231.08"/>
	</g>
	<g>
		<rect x="179.848" y="304.808" style="fill-rule:evenodd;clip-rule:evenodd;fill:#FFFFFF;" width="237.024" height="237.168"/>
		<g>
			<g>
				
					<path style="fill-rule:evenodd;clip-rule:evenodd;stroke:#000000;stroke-width:0.216;stroke-linejoin:bevel;stroke-miterlimit:10;" d="
					M216.424,520.376h2.52l0,0c8.784,0,16.272-6.264,17.712-14.904c1.44-8.64-3.528-17.136-11.808-20.016l0,0l-13.032-4.536l0,0
					c-3.312-1.224-5.328-4.608-4.752-8.064c0.576-3.528,3.6-6.048,7.128-6.048l0,0h4.464l0,0c3.96,0,7.2,3.24,7.2,7.272l0,0h9.504
					l0,0c0-9.288-7.488-16.776-16.704-16.776l0,0h-4.464l0,0c-8.136,0-15.12,5.904-16.488,13.968
					c-1.368,7.992,3.312,15.84,11.016,18.576l0,0l13.032,4.536l0,0c1.944,0.648,3.528,2.016,4.536,3.744l0,0
					c1.008,1.728,1.152,3.744,0.504,5.544l0,0c-1.8,5.04-6.984,8.064-12.312,7.128c-5.256-0.936-9.072-5.544-9.072-10.872l0,0
					h-9.504l0,0C195.904,511.232,205.12,520.376,216.424,520.376L216.424,520.376z"/>
				
					<path style="fill-rule:evenodd;clip-rule:evenodd;stroke:#000000;stroke-width:0.216;stroke-linejoin:bevel;stroke-miterlimit:10;" d="
					M287.416,499.856v-22.032l0,0c0-11.376-9.216-20.52-20.52-20.52s-20.52,9.144-20.52,20.52l0,0v22.032l0,0
					c0,7.344,3.96,14.112,10.296,17.784c6.336,3.672,14.112,3.672,20.448,0C283.528,513.968,287.416,507.2,287.416,499.856h-9.504
					c0,3.96-2.088,7.632-5.472,9.576c-3.456,1.944-7.632,1.944-11.088,0c-3.384-1.944-5.472-5.616-5.472-9.576l0,0v-22.032l0,0
					c0-6.12,4.896-11.088,11.016-11.088s11.016,4.968,11.016,11.088l0,0v22.032H287.416z"/>
				
					<path style="fill-rule:evenodd;clip-rule:evenodd;stroke:#000000;stroke-width:0.216;stroke-linejoin:bevel;stroke-miterlimit:10;" d="
					M317.512,520.376h2.52l0,0c8.784,0,16.272-6.264,17.712-14.904c1.512-8.64-3.456-17.136-11.736-20.016l0,0l-13.104-4.536l0,0
					c-3.312-1.224-5.328-4.608-4.752-8.064c0.576-3.528,3.6-6.048,7.2-6.048l0,0h4.392l0,0c4.032,0,7.272,3.24,7.272,7.272l0,0
					h9.432l0,0c0-9.288-7.488-16.776-16.704-16.776l0,0h-4.392l0,0c-8.208,0-15.12,5.904-16.488,13.968
					c-1.296,7.992,3.24,15.84,10.944,18.576l0,0l13.032,4.536l0,0c1.944,0.648,3.528,2.016,4.608,3.744l0,0
					c0.936,1.728,1.152,3.744,0.432,5.544l0,0c-1.8,5.04-6.984,8.064-12.24,7.128c-5.328-0.936-9.144-5.544-9.144-10.872l0,0h-9.36
					l0,0C297.136,511.232,306.208,520.376,317.512,520.376L317.512,520.376z"/>
			</g>
			<g>
				<g>
					<path style="fill-rule:evenodd;clip-rule:evenodd;fill:#EF3E42;" d="M356.968,364.496c-3.96-3.96-8.136-7.776-12.456-11.304
						c-13.752-12.456-29.952-21.744-47.592-27.288c-10.944-3.6-22.896-3.24-33.696,1.008l-2.664,2.376l37.368,37.296l0.648-0.72
						c2.088-1.728,4.896-2.088,7.344-0.936c10.584,5.904,20.304,13.176,28.872,21.744c8.64,8.568,16.056,18.288,22.032,28.872
						c1.152,2.448,0.792,5.328-0.936,7.272l-0.792,0.792l37.44,37.296l2.304-2.736c4.248-10.728,4.608-22.68,1.008-33.696
						c-5.616-17.568-15.048-33.768-27.504-47.448C364.744,372.632,361,368.456,356.968,364.496L356.968,364.496z"/>
				</g>
				<g>
					<path style="fill-rule:evenodd;clip-rule:evenodd;fill:#EF3E42;" d="M370.864,474.152l-29.16-28.872
						c-2.232-2.448-2.088-6.12,0.144-8.496l10.44-10.368l37.368,37.296L379.36,474.08
						C376.984,476.24,373.312,476.312,370.864,474.152L370.864,474.152z"/>
				</g>
				<g>
					<path style="fill-rule:evenodd;clip-rule:evenodd;fill:#EF3E42;" d="M247.528,350.96l28.728,29.088
						c2.376,2.232,6.12,2.088,8.424-0.216l10.44-10.44l-37.368-37.296L247.6,342.392C245.368,344.84,245.368,348.512,247.528,350.96
						L247.528,350.96z"/>
				</g>
			</g>
		</g>
	</g>
</g>
</svg>
