<?xml version="1.0" encoding="iso-8859-1"?>
<!-- Generator: Adobe Illustrator 15.1.0, SVG Export Plug-In . SVG Version: 6.00 Build 0)  -->
<!DOCTYPE svg PUBLIC "-//W3C//DTD SVG 1.1//EN" "http://www.w3.org/Graphics/SVG/1.1/DTD/svg11.dtd">
<svg version="1.1" id="Layer_1" xmlns="http://www.w3.org/2000/svg" xmlns:xlink="http://www.w3.org/1999/xlink" x="0px" y="0px"
	 width="595px" height="842px" viewBox="0 0 595 842" style="enable-background:new 0 0 595 842;" xml:space="preserve">
<g>
	<g>
		<path style="fill-rule:evenodd;clip-rule:evenodd;fill:#0079C1;" d="M87.4,241.664h422.496c5.832,0,10.584,4.752,10.584,10.584
			v337.68c0,5.832-4.752,10.584-10.584,10.584H87.4c-5.832,0-10.584-4.752-10.584-10.584v-337.68
			C76.816,246.416,81.568,241.664,87.4,241.664L87.4,241.664z"/>
	</g>
	<g>
		<path style="fill-rule:evenodd;clip-rule:evenodd;fill:#0079C1;" d="M298.576,231.08h211.32c11.664,0,21.096,9.504,21.096,21.168
			v337.68c0,5.616-2.232,11.016-6.192,14.976s-9.288,6.192-14.904,6.192h-211.32h232.416V231.08H298.576z M87.4,231.08h211.176
			H66.232l0,0v380.016h232.344H87.4c-11.664,0-21.168-9.504-21.168-21.168v-337.68C66.232,240.584,75.736,231.08,87.4,231.08
			L87.4,231.08z"/>
		
			<path style="fill-rule:evenodd;clip-rule:evenodd;fill:none;stroke:#0079C1;stroke-width:1.0001;stroke-linejoin:bevel;stroke-miterlimit:10;" d="
			M87.4,231.08h422.496c11.664,0,21.096,9.504,21.096,21.168v337.68c0,5.616-2.232,11.016-6.192,14.976s-9.288,6.192-14.904,6.192
			H87.4c-11.664,0-21.168-9.504-21.168-21.168v-337.68C66.232,240.584,75.736,231.08,87.4,231.08 M66.232,231.08h464.76v380.016
			H66.232V231.08"/>
	</g>
	<rect x="179.848" y="304.808" style="fill-rule:evenodd;clip-rule:evenodd;fill:#FFFFFF;" width="237.024" height="237.168"/>
	<g>
		
			<rect x="179.776" y="541.616" style="fill-rule:evenodd;clip-rule:evenodd;fill:none;stroke:#000000;stroke-width:0;stroke-linejoin:bevel;stroke-miterlimit:10;" width="0" height="0"/>
		
			<rect x="416.872" y="541.616" style="fill-rule:evenodd;clip-rule:evenodd;fill:none;stroke:#000000;stroke-width:0;stroke-linejoin:bevel;stroke-miterlimit:10;" width="0" height="0"/>
		
			<rect x="179.776" y="541.616" style="fill-rule:evenodd;clip-rule:evenodd;fill:none;stroke:#000000;stroke-width:0;stroke-linejoin:bevel;stroke-miterlimit:10;" width="0" height="0"/>
		
			<rect x="416.872" y="541.616" style="fill-rule:evenodd;clip-rule:evenodd;fill:none;stroke:#000000;stroke-width:0;stroke-linejoin:bevel;stroke-miterlimit:10;" width="0" height="0"/>
	</g>
	<g>
		<path style="fill-rule:evenodd;clip-rule:evenodd;fill:#EF3E42;" d="M340.48,528.44h-73.728V365.432
			c0-3.744,1.584-7.416,4.392-9.936c2.808-2.592,6.552-3.816,10.368-3.456h12.96v-13.104l-14.4,0.504l-24.408,18v14.184h-10.008
			v-25.56l34.56-25.2h14.256l0,0l0,0v-3.24h18.504v3.24h6.552l13.464,5.76v7.2l-11.52,5.112h-8.496v13.104h14.256
			c7.2,0,13.104,5.616,13.464,12.744L340.48,528.44L340.48,528.44z"/>
	</g>
</g>
</svg>
