<?xml version="1.0" encoding="UTF-8" standalone="no"?>
<!-- Generator: Adobe Illustrator 15.1.0, SVG Export Plug-In . SVG Version: 6.00 Build 0)  -->

<svg
   xmlns:dc="http://purl.org/dc/elements/1.1/"
   xmlns:cc="http://creativecommons.org/ns#"
   xmlns:rdf="http://www.w3.org/1999/02/22-rdf-syntax-ns#"
   xmlns:svg="http://www.w3.org/2000/svg"
   xmlns="http://www.w3.org/2000/svg"
   xmlns:sodipodi="http://sodipodi.sourceforge.net/DTD/sodipodi-0.dtd"
   xmlns:inkscape="http://www.inkscape.org/namespaces/inkscape"
   version="1.1"
   x="0px"
   y="0px"
   width="362.448"
   height="151.416"
   viewBox="0 0 362.448 151.416"
   xml:space="preserve"
   id="svg40"
   sodipodi:docname="812.svg"
   inkscape:version="0.92.5 (2060ec1f9f, 2020-04-08)"><metadata
   id="metadata46"><rdf:RDF><cc:Work
       rdf:about=""><dc:format>image/svg+xml</dc:format><dc:type
         rdf:resource="http://purl.org/dc/dcmitype/StillImage" /></cc:Work></rdf:RDF></metadata><defs
   id="defs44" /><sodipodi:namedview
   pagecolor="#ffffff"
   bordercolor="#666666"
   borderopacity="1"
   objecttolerance="10"
   gridtolerance="10"
   guidetolerance="10"
   inkscape:pageopacity="0"
   inkscape:pageshadow="2"
   inkscape:window-width="640"
   inkscape:window-height="480"
   id="namedview42"
   showgrid="false"
   inkscape:zoom="0.28028504"
   inkscape:cx="181.156"
   inkscape:cy="47.392"
   inkscape:window-x="0"
   inkscape:window-y="0"
   inkscape:window-maximized="0"
   inkscape:current-layer="svg40" />
<g
   id="Kuvataso_1"
   transform="translate(-116.344,-316.976)">
</g>
<g
   id="_x30_"
   transform="translate(-116.344,-316.976)">
</g>
<g
   id="HAT"
   transform="translate(-116.344,-316.976)">
</g>
<g
   id="HATKEL"
   transform="translate(-116.344,-316.976)">
</g>
<g
   id="HATPUN"
   transform="translate(-116.344,-316.976)">
	<g
   id="g37">
		<rect
   x="116.344"
   y="317.336"
   style="clip-rule:evenodd;fill:#ffd520;fill-rule:evenodd"
   width="362.37601"
   height="151.056"
   id="rect29" />
		<path
   style="clip-rule:evenodd;fill:#ef3e42;fill-rule:evenodd"
   d="m 134.632,316.976 h 325.944 c 10.08,0 18.216,8.784 18.216,19.512 V 448.88 c 0,10.728 -8.136,19.512 -18.216,19.512 H 134.632 c -10.008,0 -18.216,-8.784 -18.216,-19.512 V 336.488 c 0,-10.728 8.208,-19.512 18.216,-19.512 z"
   id="path31"
   inkscape:connector-curvature="0" />
		<path
   style="clip-rule:evenodd;fill:#ffd200;fill-rule:evenodd"
   d="m 135.64,325.904 h 323.568 c 5.688,0 10.368,4.68 10.368,10.368 v 112.896 c 0,5.688 -4.68,10.368 -10.368,10.368 H 135.64 c -5.688,0 -10.368,-4.68 -10.368,-10.368 V 336.272 c 0,-5.688 4.68,-10.368 10.368,-10.368 z"
   id="path33"
   inkscape:connector-curvature="0" />
		<polygon
   style="clip-rule:evenodd;fill-rule:evenodd"
   points="255.088,344.12 206.992,392.576 255.088,440.96 255.088,404.6 388,404.6 388,380.552 255.088,380.552 "
   id="polygon35" />
	</g>
</g>
</svg>