<?xml version="1.0" encoding="iso-8859-1"?>
<!-- Generator: Adobe Illustrator 15.1.0, SVG Export Plug-In . SVG Version: 6.00 Build 0)  -->
<!DOCTYPE svg PUBLIC "-//W3C//DTD SVG 1.1//EN" "http://www.w3.org/Graphics/SVG/1.1/DTD/svg11.dtd">
<svg version="1.1" xmlns="http://www.w3.org/2000/svg" xmlns:xlink="http://www.w3.org/1999/xlink" x="0px" y="0px" width="595px"
	 height="842px" viewBox="0 0 595 842" style="enable-background:new 0 0 595 842;" xml:space="preserve">
<g id="Kuvataso_1">
</g>
<g id="_x30_">
</g>
<g id="HAT">
</g>
<g id="HATKEL">
</g>
<g id="HATPUN">
	<g>
		<rect x="116.344" y="263.264" style="fill-rule:evenodd;clip-rule:evenodd;fill:#FFD200;" width="362.448" height="231.696"/>
		<polygon style="fill-rule:evenodd;clip-rule:evenodd;fill:#EF3E42;" points="116.344,285.08 117.28,278.6 121.312,271.256 
			125.92,266.936 131.752,264.2 140.968,263.264 453.016,263.264 459.136,263.264 467.128,265.712 472.312,269.744 475.12,272.768 
			477.856,278.6 478.792,287.816 478.792,471.632 478.144,477.464 475.984,483.584 473.896,486.968 468.928,491.216 
			463.096,494.024 456.976,494.96 138.16,494.96 129.592,493.376 124.336,489.992 118.864,483.584 116.704,477.464 116.344,470.048 
					"/>
		<polygon style="fill-rule:evenodd;clip-rule:evenodd;fill:#FFD200;" points="127.432,283.568 128.944,279.248 132.04,275.864 
			136.648,274.352 456.976,273.992 461.296,275.216 465.256,278.024 467.704,283.568 467.704,473.432 466.84,477.752 
			464.032,481.424 458.56,484.16 138.16,484.16 133.552,483.296 128.944,479.264 127.144,473.432 		"/>
		<polygon style="fill-rule:evenodd;clip-rule:evenodd;" points="222.904,318.2 233.632,318.2 232.696,312.368 231.184,308.696 
			228.736,305.312 225.64,302.864 220.456,300.128 216.424,299.192 210.88,298.544 205.408,299.48 201.736,300.704 197.992,302.576 
			195.256,305.312 192.808,308.408 190.648,313.952 190.072,317.912 190.648,321.872 192.16,326.84 194.968,330.8 199.576,334.76 
			202.96,336.344 217.936,341.528 221.68,343.688 223.192,345.848 224.416,349.808 223.192,353.84 221.32,356.576 217.072,359.312 
			213.976,360.608 210.592,360.608 207.208,359.672 204.472,358.088 202.024,355.64 199.576,351.392 199.216,348.008 188.2,348.008 
			188.848,352.256 190.072,356.576 191.872,360.248 194.68,363.92 197.704,366.728 203.536,369.752 208.432,370.976 
			211.816,371.624 216.712,371.336 222.544,370.112 227.8,367.016 231.76,362.696 234.568,357.224 235.432,351.392 235.144,347.36 
			233.344,341.528 229.96,336.92 225.352,332.96 222.544,331.736 204.472,324.968 202.024,321.872 201.088,318.2 202.024,314.528 
			204.472,311.432 208.144,309.92 214.264,309.92 218.296,310.856 221.032,313.304 222.256,315.752 		"/>
		<polygon style="fill-rule:evenodd;clip-rule:evenodd;" points="261.568,371.336 261.568,309.92 243.424,309.92 243.424,298.904 
			290.728,298.904 290.728,309.92 272.584,309.92 272.584,371.336 		"/>
		<polygon style="fill-rule:evenodd;clip-rule:evenodd;" points="321.04,298.904 325.288,299.192 329.32,300.416 333.28,302.288 
			338.176,306.536 340.984,309.92 342.784,313.952 344.368,320.072 344.368,322.52 344.368,347.648 344.008,351.968 341.92,358.088 
			338.176,363.632 333.28,367.952 327.448,370.4 321.04,371.336 316.72,370.976 312.4,369.752 308.44,367.952 303.544,363.632 
			299.872,358.088 298.36,354.128 297.496,347.648 297.496,323.744 297.784,318.2 298.936,313.952 300.736,309.92 305.056,305.024 
			310.312,301.352 316.72,299.192 		"/>
		<polygon style="fill-rule:evenodd;clip-rule:evenodd;fill:#FFD200;" points="321.04,309.632 324.064,310.208 328.672,312.368 
			331.768,316.04 333.64,320.648 333.64,347.648 332.704,352.616 329.896,356.576 325.936,359.312 321.04,360.608 317.656,359.96 
			314.56,358.736 311.824,356.576 309.088,352.616 308.44,349.52 308.44,320.648 309.088,317.624 311.824,313.304 316.144,310.856 
					"/>
		<polygon style="fill-rule:evenodd;clip-rule:evenodd;" points="362.8,299.192 387.64,299.192 391.6,299.48 395.92,301.064 
			399.88,303.8 402.328,306.536 404.488,309.92 406.072,315.464 406.072,322.808 405.136,326.48 402.688,331.736 398.368,335.696 
			395.272,337.568 393.472,338.144 373.528,338.144 373.528,371.624 362.8,371.624 		"/>
		<polygon style="fill-rule:evenodd;clip-rule:evenodd;fill:#FFD200;" points="373.528,310.208 387.64,310.208 391.312,310.856 
			393.76,313.304 395.272,317.624 395.272,321.872 393.76,325.256 391.312,327.416 387.64,328.352 373.528,328.352 		"/>
		<polygon style="fill-rule:evenodd;clip-rule:evenodd;" points="168.832,409.352 168.832,405.68 169.48,400.496 171.64,395.528 
			174.088,392.216 177.184,389.408 181.432,386.384 186.688,385.736 193.096,386.024 198.928,388.472 202.312,390.992 
			205.984,395.888 208.144,401.72 209.08,407.192 207.568,412.16 204.76,417.632 182.368,447.08 208.792,447.08 208.792,458.096 
			168.832,458.096 168.832,447.08 195.256,411.8 197.416,408.488 197.704,405.68 197.704,404.456 196.192,400.496 194.32,398.624 
			191.872,397.112 189.136,396.464 184.816,397.4 181.432,400.136 179.92,403.88 179.92,409.352 		"/>
		<polygon style="fill-rule:evenodd;clip-rule:evenodd;" points="246.808,386.96 250.84,387.608 256.672,389.696 259.984,392.216 
			262.792,395.24 265.816,399.272 266.464,403.52 266.752,406.904 266.464,442.472 264.952,447.656 262.792,451.04 259.984,454.424 
			254.8,457.808 250.84,459.032 246.808,459.32 240.4,458.384 235.144,455.648 231.76,452.912 228.376,447.656 226.864,441.536 
			227.152,403.88 228.376,398.912 230.536,395.24 235.144,390.992 240.4,388.184 242.56,387.608 		"/>
		<polygon style="fill-rule:evenodd;clip-rule:evenodd;fill:#FFD200;" points="245.296,398.048 249.616,398.336 252.064,399.56 
			254.8,402.944 255.736,405.68 255.736,406.904 255.736,439.376 254.152,444.92 250.84,447.656 246.808,448.592 242.56,447.656 
			239.464,444.92 237.952,440.888 237.952,405.68 238.528,402.944 240.4,400.496 242.56,398.912 		"/>
		<polygon style="fill-rule:evenodd;clip-rule:evenodd;" points="304.12,386.96 308.44,387.608 314.272,389.696 317.656,392.216 
			320.392,395.24 323.2,399.272 324.064,403.52 324.064,406.904 324.064,442.472 322.552,447.656 320.392,451.04 317.656,454.424 
			312.4,457.808 308.44,459.032 304.12,459.32 298.072,458.384 292.528,455.648 289.504,452.912 286.12,447.656 284.608,441.536 
			284.608,403.88 286.12,398.912 288.28,395.24 292.528,390.992 298.072,388.184 300.16,387.608 		"/>
		<polygon style="fill-rule:evenodd;clip-rule:evenodd;fill:#FFD200;" points="302.896,398.048 306.928,398.336 309.664,399.56 
			312.4,402.944 313.048,405.68 313.336,406.904 313.336,439.376 311.536,444.92 308.44,447.656 304.12,448.592 300.16,447.656 
			296.848,444.92 295.336,440.888 295.336,405.68 296.2,402.944 297.784,400.496 300.16,398.912 		"/>
		<polygon style="fill-rule:evenodd;clip-rule:evenodd;" points="363.664,458.384 363.664,404.168 374.752,404.168 374.752,407.192 
			380.872,404.744 386.416,404.168 391.312,405.392 395.632,407.84 402.328,405.392 406.936,404.456 413.416,404.456 
			418.024,405.968 421.984,409.064 424.432,413.024 425.368,417.992 425.368,458.384 414.64,458.384 414.64,420.08 413.992,417.632 
			412.768,415.544 411.904,414.608 408.52,413.024 404.848,413.384 402.688,414.608 400.528,417.632 399.88,420.08 399.88,458.384 
			389.152,458.384 389.152,420.08 388.216,416.768 386.416,414.608 384.256,413.384 381.808,413.024 379.36,413.384 
			376.264,415.544 374.752,418.856 374.752,458.384 		"/>
	</g>
</g>
</svg>
