<?xml version="1.0" encoding="iso-8859-1"?>
<!-- Generator: Adobe Illustrator 15.1.0, SVG Export Plug-In . SVG Version: 6.00 Build 0)  -->
<!DOCTYPE svg PUBLIC "-//W3C//DTD SVG 1.1//EN" "http://www.w3.org/Graphics/SVG/1.1/DTD/svg11.dtd">
<svg version="1.1" xmlns="http://www.w3.org/2000/svg" xmlns:xlink="http://www.w3.org/1999/xlink" x="0px" y="0px" width="595px"
	 height="842px" viewBox="0 0 595 842" style="enable-background:new 0 0 595 842;" xml:space="preserve">
<g id="Kuvataso_1">
</g>
<g id="_x30_">
</g>
<g id="HAT">
</g>
<g id="HATKEL">
</g>
<g id="HATPUN">
	<g>
		<rect x="124.264" y="296.816" style="fill-rule:evenodd;clip-rule:evenodd;fill:#FFD200;" width="361.584" height="231.048"/>
		<polygon style="fill-rule:evenodd;clip-rule:evenodd;fill:#EF3E42;" points="124.264,318.56 125.2,312.08 129.232,304.736 
			134.128,300.488 139.888,297.752 148.816,296.816 460.432,296.816 466.192,296.816 474.472,299.264 479.656,303.224 
			482.104,306.32 484.912,312.08 485.848,321.296 485.848,504.608 485.488,510.44 483.4,516.56 480.88,519.944 476.344,524.192 
			470.512,527 464.392,527.864 146.008,527.864 137.8,526.352 132.256,522.968 127.072,516.56 124.912,510.44 124.264,503.096 		"/>
		<polygon style="fill-rule:evenodd;clip-rule:evenodd;fill:#FFD200;" points="135.352,317.048 136.864,312.728 140.248,309.344 
			144.496,307.832 464.392,307.544 468.64,308.768 472.312,311.504 474.76,317.048 475.12,506.48 474.184,510.728 471.448,514.4 
			465.616,517.208 146.008,517.208 141.76,516.272 136.864,512.312 135.352,506.48 		"/>
		<polygon style="fill-rule:evenodd;clip-rule:evenodd;" points="254.44,307.544 355.672,307.544 305.2,358.376 		"/>
		<polygon style="fill-rule:evenodd;clip-rule:evenodd;" points="254.44,517.208 305.2,466.664 355.672,517.208 		"/>
		<polygon style="fill-rule:evenodd;clip-rule:evenodd;" points="232.984,376.088 243.712,376.088 243.712,423.176 249.544,423.176 
			249.544,433.904 243.712,433.904 243.712,448.304 232.984,448.304 232.984,433.904 206.056,433.904 206.056,423.176 		"/>
		<polygon style="fill-rule:evenodd;clip-rule:evenodd;fill:#FFD200;" points="218.584,423.176 232.984,398.12 232.984,423.176 		
			"/>
		<polygon style="fill-rule:evenodd;clip-rule:evenodd;" points="282.592,389.912 305.776,389.912 306.424,398.768 290.584,398.768 
			289.36,411.008 292.672,410.072 296.056,409.784 299.368,410.072 304.264,412.232 307.936,415.904 310.672,420.512 
			311.608,425.624 311.608,431.744 310.384,436.928 307.936,441.824 305.488,444.344 300.88,446.792 295.768,447.656 
			290.584,446.792 285.616,444.344 282.304,440.312 280.72,436.928 279.856,431.744 288.424,431.744 289,434.192 291.16,437.288 
			294.544,438.8 298.216,438.512 301.168,436.352 302.392,434.192 302.752,424.112 301.816,421.664 299.944,419.864 297.928,418.64 
			295.48,418.352 291.808,419.576 289.936,421.088 279.856,419 		"/>
		<polygon style="fill-rule:evenodd;clip-rule:evenodd;" points="258.4,453.2 266.392,448.88 267.904,447.656 268.84,445.856 
			269.128,442.76 267.904,440.96 266.68,439.376 264.52,438.8 261.496,439.088 259.048,441.248 258.4,444.344 		"/>
		<polygon style="fill-rule:evenodd;clip-rule:evenodd;" points="343.72,447.656 343.72,394.448 354.808,394.448 354.808,397.256 
			357.832,395.672 363.376,394.448 367.912,394.448 371.296,395.384 374.392,396.896 375.616,398.12 380.152,396.032 
			384.76,394.808 387.208,394.448 393.328,394.448 396.424,395.384 399.448,396.896 402.832,400.28 404.344,403.376 
			405.568,407.336 405.28,448.592 394.552,448.592 394.552,410.432 393.976,407.912 392.752,405.824 389.656,403.664 
			384.76,403.664 381.736,405.824 380.152,410.432 380.152,448.592 369.136,448.592 369.136,410.432 368.272,406.688 
			365.824,403.952 361.792,403.016 358.48,403.952 356.608,405.824 354.808,409.136 354.808,448.592 344.08,448.592 		"/>
	</g>
</g>
</svg>
