<?xml version="1.0" encoding="UTF-8" standalone="no"?>
<!-- Generator: Adobe Illustrator 15.1.0, SVG Export Plug-In . SVG Version: 6.00 Build 0)  -->

<svg
   xmlns:dc="http://purl.org/dc/elements/1.1/"
   xmlns:cc="http://creativecommons.org/ns#"
   xmlns:rdf="http://www.w3.org/1999/02/22-rdf-syntax-ns#"
   xmlns:svg="http://www.w3.org/2000/svg"
   xmlns="http://www.w3.org/2000/svg"
   xmlns:sodipodi="http://sodipodi.sourceforge.net/DTD/sodipodi-0.dtd"
   xmlns:inkscape="http://www.inkscape.org/namespaces/inkscape"
   version="1.1"
   x="0px"
   y="0px"
   width="360.86401"
   height="230.976"
   viewBox="0 0 360.86401 230.976"
   xml:space="preserve"
   id="svg297"
   sodipodi:docname="823.svg"
   inkscape:version="0.92.5 (2060ec1f9f, 2020-04-08)"><metadata
   id="metadata303"><rdf:RDF><cc:Work
       rdf:about=""><dc:format>image/svg+xml</dc:format><dc:type
         rdf:resource="http://purl.org/dc/dcmitype/StillImage" /></cc:Work></rdf:RDF></metadata><defs
   id="defs301" /><sodipodi:namedview
   pagecolor="#ffffff"
   bordercolor="#666666"
   borderopacity="1"
   objecttolerance="10"
   gridtolerance="10"
   guidetolerance="10"
   inkscape:pageopacity="0"
   inkscape:pageshadow="2"
   inkscape:window-width="640"
   inkscape:window-height="480"
   id="namedview299"
   showgrid="false"
   inkscape:zoom="0.28028504"
   inkscape:cx="173.74"
   inkscape:cy="78.856003"
   inkscape:window-x="0"
   inkscape:window-y="0"
   inkscape:window-maximized="0"
   inkscape:current-layer="svg297" />
<g
   id="Kuvataso_1"
   transform="translate(-123.76,-268.88)">
</g>
<g
   id="_x30_"
   transform="translate(-123.76,-268.88)">
</g>
<g
   id="HAT"
   transform="translate(-123.76,-268.88)">
</g>
<g
   id="HATKEL"
   transform="translate(-123.76,-268.88)">
</g>
<g
   id="HATPUN"
   transform="translate(-123.76,-268.88)">
	<g
   id="g294">
		<rect
   x="123.76"
   y="268.88"
   style="clip-rule:evenodd;fill:#ffd200;fill-rule:evenodd"
   width="360.86401"
   height="230.976"
   id="rect270" />
		<polygon
   style="clip-rule:evenodd;fill:#ef3e42;fill-rule:evenodd"
   points="128.656,276.872 133.264,272.552 139.096,269.816 148.24,268.88 458.92,268.88 465.04,269.168 472.96,271.616 478.216,275.288 480.952,278.672 483.688,284.504 484.624,293.36 484.624,476.312 483.976,482.432 481.888,488.192 479.728,491.864 474.832,496.184 469.36,498.92 462.88,499.856 145.504,499.856 137.224,497.984 131.752,494.96 126.208,488.192 124.12,482.432 123.76,474.8 123.76,290.624 124.696,284.504 "
   id="polygon272" />
		<polygon
   style="clip-rule:evenodd;fill:#ffd200;fill-rule:evenodd"
   points="139.672,281.408 143.992,279.896 462.88,279.896 467.488,280.832 471.16,283.568 473.608,289.04 473.608,478.112 472.672,482.72 469.936,486.392 464.464,488.84 145.504,488.84 140.896,487.904 136.36,483.944 134.488,478.112 134.776,289.04 136.36,284.792 "
   id="polygon274" />
		<polygon
   style="clip-rule:evenodd;fill-rule:evenodd"
   points="304.048,330.296 253.648,279.896 354.736,279.896 "
   id="polygon276" />
		<polygon
   style="clip-rule:evenodd;fill-rule:evenodd"
   points="354.736,489.128 253.648,489.128 304.048,438.44 "
   id="polygon278" />
		<g
   id="g292">
			<polygon
   style="clip-rule:evenodd;fill-rule:evenodd"
   points="184.312,370.976 231.976,360.896 204.184,420.44 218.8,420.44 174.232,463.784 173.944,420.44 188.272,420.44 206.632,381.056 156.16,391.712 199.576,304.952 228.592,304.952 "
   id="polygon280" />
			<polygon
   style="clip-rule:evenodd;fill-rule:evenodd"
   points="279.928,348.368 290.944,348.368 290.944,395.096 296.776,395.096 296.776,406.112 290.944,406.112 290.944,420.44 279.928,420.44 279.928,406.112 253.36,406.112 253.36,395.096 "
   id="polygon282" />
			<polygon
   style="clip-rule:evenodd;fill:#ffd200;fill-rule:evenodd"
   points="279.928,395.096 265.888,395.096 279.928,370.04 "
   id="polygon284" />
			<polygon
   style="clip-rule:evenodd;fill-rule:evenodd"
   points="315.352,418.928 315.928,415.904 315.64,413.744 313.48,411.584 311.32,411.008 308.584,411.296 306.136,413.456 305.2,416.192 305.2,425.264 313.192,421.088 "
   id="polygon286" />
			<polygon
   style="clip-rule:evenodd;fill-rule:evenodd"
   points="336.736,393.296 338.536,391.424 342.208,390.488 347.104,392.072 349.552,396.32 349.552,405.176 348.904,407.624 347.104,409.424 343.72,411.008 341.272,411.008 338.824,410.072 337.024,408.56 335.8,406.4 335.152,403.952 326.656,403.952 326.656,405.824 327.52,409.136 329.104,412.232 331.192,415.256 333.928,417.416 338.824,419.216 344.368,419.576 347.68,418.928 352.576,416.48 355.024,413.744 356.896,411.008 358.408,403.952 358.408,397.544 357.472,392.36 355.024,387.752 351.352,384.368 348.04,382.568 344.656,381.992 341.272,381.632 336.088,383.144 337.312,370.616 353.224,370.616 352.576,362.12 329.68,362.12 326.656,390.848 "
   id="polygon288" />
			<polygon
   style="clip-rule:evenodd;fill-rule:evenodd"
   points="401.176,366.368 401.176,369.464 405.496,367.592 409.744,366.368 414.64,366.656 419.536,368.24 422.272,370.04 426.52,368.24 431.128,367.016 436.024,366.368 441.208,367.016 445.816,368.816 449.488,372.488 451,375.224 451.576,378.608 451.576,420.44 440.92,420.44 440.92,382.28 440.632,379.832 438.472,376.736 435.088,375.224 431.416,375.512 428.104,377.672 426.88,379.832 426.52,382.28 426.52,420.44 415.864,420.44 415.864,382.28 415.216,379.832 413.128,376.736 409.744,375.224 406.072,375.512 403.048,377.672 401.464,381.056 401.176,420.44 390.52,420.44 390.52,366.368 "
   id="polygon290" />
		</g>
	</g>
</g>
</svg>