<?xml version="1.0" encoding="iso-8859-1"?>
<!-- Generator: Adobe Illustrator 15.1.0, SVG Export Plug-In . SVG Version: 6.00 Build 0)  -->
<!DOCTYPE svg PUBLIC "-//W3C//DTD SVG 1.1//EN" "http://www.w3.org/Graphics/SVG/1.1/DTD/svg11.dtd">
<svg version="1.1" xmlns="http://www.w3.org/2000/svg" xmlns:xlink="http://www.w3.org/1999/xlink" x="0px" y="0px" width="595px"
	 height="842px" viewBox="0 0 595 842" style="enable-background:new 0 0 595 842;" xml:space="preserve">
<g id="Kuvataso_1">
</g>
<g id="_x30_">
</g>
<g id="KUVA">
</g>
<g id="HAT">
</g>
<g id="HATKEL">
</g>
<g id="HATPUN">
	<g>
		<polygon style="fill-rule:evenodd;clip-rule:evenodd;fill:#FFD200;" points="109,560.912 109,197.816 472.672,197.528 
			472.672,560.912 		"/>
		<polygon style="fill-rule:evenodd;clip-rule:evenodd;fill:#EF3E42;" points="136.144,560.912 129.952,559.616 121.312,555.368 
			116.704,551.048 111.52,543.344 109,530.672 109,227.696 110.584,218.48 113.032,212.576 116.704,207.392 121.312,203.36 
			126.856,200.264 136.144,197.816 445.6,197.816 451.72,199.04 460.072,203.36 464.68,207.392 468.352,212.576 471.808,221.504 
			472.672,227.696 472.672,530.672 471.16,540.248 466.84,548.528 460.072,555.368 451.72,559.616 445.6,560.912 		"/>
		<polygon style="fill-rule:evenodd;clip-rule:evenodd;fill:#FFD200;" points="139.24,546.08 134.56,545.144 130.312,542.984 
			126.856,539.6 124.12,533.192 124.12,229.568 124.768,223.088 126.856,218.768 130.312,215.672 136.72,212.936 444.664,212.936 
			448.984,214.448 454.528,218.768 456.688,223.088 457.264,227.696 457.264,533.192 455.752,537.8 451.144,542.984 
			446.824,545.144 444.664,545.792 		"/>
		<polygon style="fill-rule:evenodd;clip-rule:evenodd;" points="308.872,401.072 365.824,401.072 365.824,446 434.224,378.32 
			365.824,309.92 365.824,355.496 308.872,355.496 		"/>
		<polygon style="fill-rule:evenodd;clip-rule:evenodd;" points="272.872,355.208 215.92,355.208 215.92,310.208 147.808,378.032 
			215.92,446 215.92,400.784 272.872,400.784 		"/>
	</g>
</g>
</svg>
