<?xml version="1.0" encoding="iso-8859-1"?>
<!-- Generator: Adobe Illustrator 15.1.0, SVG Export Plug-In . SVG Version: 6.00 Build 0)  -->
<!DOCTYPE svg PUBLIC "-//W3C//DTD SVG 1.1//EN" "http://www.w3.org/Graphics/SVG/1.1/DTD/svg11.dtd">
<svg version="1.1" xmlns="http://www.w3.org/2000/svg" xmlns:xlink="http://www.w3.org/1999/xlink" x="0px" y="0px" width="595px"
	 height="842px" viewBox="0 0 595 842" style="enable-background:new 0 0 595 842;" xml:space="preserve">
<g id="Kuvataso_1">
</g>
<g id="_x30_">
</g>
<g id="KUVA">
</g>
<g id="HAT">
</g>
<g id="HATKEL">
</g>
<g id="HATPUN">
	<g>
		<polygon style="fill-rule:evenodd;clip-rule:evenodd;fill:#FFD200;" points="123.904,222.296 482.248,222.296 482.536,581.144 
			123.904,581.144 		"/>
		<polygon style="fill-rule:evenodd;clip-rule:evenodd;fill:#EF3E42;" points="123.904,249.008 125.128,242.96 129.376,234.464 
			133.696,229.856 141.544,224.672 153.712,222.296 452.728,222.296 461.872,223.808 467.632,226.256 472.816,229.856 
			477.064,234.464 480.088,239.936 482.536,249.008 482.536,554.432 481.312,560.48 477.064,568.688 472.816,573.296 
			467.632,576.896 459.136,580.28 452.728,581.144 153.712,581.144 144.28,579.632 136.072,575.384 129.376,568.688 125.128,560.48 
			123.904,554.432 		"/>
		<polygon style="fill-rule:evenodd;clip-rule:evenodd;fill:#FFD200;" points="138.808,252.032 139.456,247.496 141.544,243.248 
			144.928,239.936 151.264,237.2 450.928,237.2 457.336,237.776 461.584,239.936 464.896,243.248 467.632,249.656 467.632,553.496 
			466.12,557.744 461.584,563.216 457.336,565.376 452.728,565.952 151.264,565.952 146.728,564.44 141.544,559.904 
			139.456,555.656 138.808,553.496 		"/>
		<polygon style="fill-rule:evenodd;clip-rule:evenodd;" points="219.088,423.104 319.312,423.104 319.312,467.168 386.488,401 
			319.312,333.824 319.312,378.536 219.088,378.536 		"/>
	</g>
</g>
</svg>
