<?xml version="1.0" encoding="UTF-8" standalone="no"?>
<!-- Generator: Adobe Illustrator 15.1.0, SVG Export Plug-In . SVG Version: 6.00 Build 0)  -->

<svg
   xmlns:dc="http://purl.org/dc/elements/1.1/"
   xmlns:cc="http://creativecommons.org/ns#"
   xmlns:rdf="http://www.w3.org/1999/02/22-rdf-syntax-ns#"
   xmlns:svg="http://www.w3.org/2000/svg"
   xmlns="http://www.w3.org/2000/svg"
   xmlns:sodipodi="http://sodipodi.sourceforge.net/DTD/sodipodi-0.dtd"
   xmlns:inkscape="http://www.inkscape.org/namespaces/inkscape"
   version="1.1"
   x="0px"
   y="0px"
   width="358.63199"
   height="358.84799"
   viewBox="0 0 358.63199 358.84799"
   xml:space="preserve"
   id="svg373"
   sodipodi:docname="826.svg"
   inkscape:version="0.92.5 (2060ec1f9f, 2020-04-08)"><metadata
   id="metadata379"><rdf:RDF><cc:Work
       rdf:about=""><dc:format>image/svg+xml</dc:format><dc:type
         rdf:resource="http://purl.org/dc/dcmitype/StillImage" /></cc:Work></rdf:RDF></metadata><defs
   id="defs377" /><sodipodi:namedview
   pagecolor="#ffffff"
   bordercolor="#666666"
   borderopacity="1"
   objecttolerance="10"
   gridtolerance="10"
   guidetolerance="10"
   inkscape:pageopacity="0"
   inkscape:pageshadow="2"
   inkscape:window-width="640"
   inkscape:window-height="480"
   id="namedview375"
   showgrid="false"
   inkscape:zoom="0.28028504"
   inkscape:cx="173.596"
   inkscape:cy="160.144"
   inkscape:window-x="0"
   inkscape:window-y="0"
   inkscape:window-maximized="0"
   inkscape:current-layer="svg373" />
<g
   id="Kuvataso_1"
   transform="translate(-123.904,-222.296)">
</g>
<g
   id="_x30_"
   transform="translate(-123.904,-222.296)">
</g>
<g
   id="KUVA"
   transform="translate(-123.904,-222.296)">
</g>
<g
   id="HAT"
   transform="translate(-123.904,-222.296)">
</g>
<g
   id="HATKEL"
   transform="translate(-123.904,-222.296)">
</g>
<g
   id="HATPUN"
   transform="translate(-123.904,-222.296)">
	<g
   id="g370">
		<polygon
   style="clip-rule:evenodd;fill:#ffd200;fill-rule:evenodd"
   points="482.536,581.144 123.904,581.144 123.904,222.296 482.248,222.296 "
   id="polygon362" />
		<polygon
   style="clip-rule:evenodd;fill:#ef3e42;fill-rule:evenodd"
   points="129.376,234.464 133.696,229.856 141.544,224.672 153.712,222.296 452.728,222.296 461.872,223.808 467.632,226.256 472.816,229.856 477.064,234.464 480.088,239.936 482.536,249.008 482.536,554.432 481.312,560.48 477.064,568.688 472.816,573.296 467.632,576.896 459.136,580.28 452.728,581.144 153.712,581.144 144.28,579.632 136.072,575.384 129.376,568.688 125.128,560.48 123.904,554.432 123.904,249.008 125.128,242.96 "
   id="polygon364" />
		<polygon
   style="clip-rule:evenodd;fill:#ffd200;fill-rule:evenodd"
   points="141.544,243.248 144.928,239.936 151.264,237.2 450.928,237.2 457.336,237.776 461.584,239.936 464.896,243.248 467.632,249.656 467.632,553.496 466.12,557.744 461.584,563.216 457.336,565.376 452.728,565.952 151.264,565.952 146.728,564.44 141.544,559.904 139.456,555.656 138.808,553.496 138.808,252.032 139.456,247.496 "
   id="polygon366" />
		<polygon
   style="clip-rule:evenodd;fill-rule:evenodd"
   points="319.312,467.168 386.488,401 319.312,333.824 319.312,378.536 219.088,378.536 219.088,423.104 319.312,423.104 "
   id="polygon368" />
	</g>
</g>
</svg>