<?xml version="1.0" encoding="UTF-8" standalone="no"?>
<!-- Generator: Adobe Illustrator 15.1.0, SVG Export Plug-In . SVG Version: 6.00 Build 0)  -->

<svg
   xmlns:dc="http://purl.org/dc/elements/1.1/"
   xmlns:cc="http://creativecommons.org/ns#"
   xmlns:rdf="http://www.w3.org/1999/02/22-rdf-syntax-ns#"
   xmlns:svg="http://www.w3.org/2000/svg"
   xmlns="http://www.w3.org/2000/svg"
   xmlns:sodipodi="http://sodipodi.sourceforge.net/DTD/sodipodi-0.dtd"
   xmlns:inkscape="http://www.inkscape.org/namespaces/inkscape"
   version="1.1"
   x="0px"
   y="0px"
   width="358.12799"
   height="120.09601"
   viewBox="0 0 358.12799 120.09601"
   xml:space="preserve"
   id="svg454"
   sodipodi:docname="831.svg"
   inkscape:version="0.92.5 (2060ec1f9f, 2020-04-08)"><metadata
   id="metadata460"><rdf:RDF><cc:Work
       rdf:about=""><dc:format>image/svg+xml</dc:format><dc:type
         rdf:resource="http://purl.org/dc/dcmitype/StillImage" /></cc:Work></rdf:RDF></metadata><defs
   id="defs458" /><sodipodi:namedview
   pagecolor="#ffffff"
   bordercolor="#666666"
   borderopacity="1"
   objecttolerance="10"
   gridtolerance="10"
   guidetolerance="10"
   inkscape:pageopacity="0"
   inkscape:pageshadow="2"
   inkscape:window-width="640"
   inkscape:window-height="480"
   id="namedview456"
   showgrid="false"
   inkscape:zoom="0.28028504"
   inkscape:cx="177.484"
   inkscape:cy="-64.855995"
   inkscape:window-x="0"
   inkscape:window-y="0"
   inkscape:window-maximized="0"
   inkscape:current-layer="svg454" />
<g
   id="Kuvataso_1"
   transform="translate(-120.016,-236.048)">
</g>
<g
   id="_x30_"
   transform="translate(-120.016,-236.048)">
</g>
<g
   id="HAT"
   transform="translate(-120.016,-236.048)">
</g>
<g
   id="HATKEL"
   transform="translate(-120.016,-236.048)">
</g>
<g
   id="HATPUN"
   transform="translate(-120.016,-236.048)">
	<g
   id="g451">
		<g
   id="g437">
			<rect
   x="120.016"
   y="236.048"
   style="clip-rule:evenodd;fill:#ffd520;fill-rule:evenodd"
   width="358.12799"
   height="120.096"
   id="rect433" />
			<path
   style="clip-rule:evenodd;fill:#ef3e42;fill-rule:evenodd"
   d="M 298.864,236.048 H 460.36 c 9.648,0 17.568,8.064 17.568,17.928 v 84.24 c 0,9.864 -7.92,17.928 -17.568,17.928 H 298.864 v -9 H 458.92 c 5.76,0 10.44,-4.68 10.44,-10.368 v -81.36 c 0,-5.76 -4.68,-10.44 -10.44,-10.44 H 298.864 Z m -161.064,0 h 161.064 v 8.928 H 138.88 c -5.76,0 -10.44,4.68 -10.44,10.44 v 81.36 c 0,5.688 4.68,10.368 10.44,10.368 h 159.984 v 9 H 137.8 c -9.72,0 -17.568,-8.064 -17.568,-17.928 v -84.24 c 0,-9.864 7.848,-17.928 17.568,-17.928 z"
   id="path435"
   inkscape:connector-curvature="0" />
		</g>
		<g
   id="g449">
			<polygon
   style="clip-rule:evenodd;fill-rule:evenodd"
   points="198.496,314.888 200.368,311.792 204.688,307.76 209.872,305.312 215.416,304.376 222.832,305.96 227.8,309.056 230.536,311.792 232.696,314.888 234.568,320.144 234.856,323.816 347.824,323.816 348.112,320.144 349.912,314.888 353.296,310.28 357.976,306.896 365.32,304.736 372.736,305.312 378.856,308.12 383.176,313.304 385.696,318.272 386.56,323.816 407.224,323.816 409.096,322.88 409.384,321.656 409.672,290.552 409.384,289.328 408.448,288.104 406.576,287.456 383.176,287.456 381.952,287.168 380.44,286.232 357.328,259.448 355.456,258.224 353.008,257.288 274.888,257.288 273.376,257.576 272.08,258.512 243.784,285.296 242.272,286.232 185.896,294.872 183.736,296.096 182.512,298.256 182.512,300.128 182.512,319.784 183.088,321.944 184.96,323.528 186.832,323.816 196.048,323.816 196.336,320.144 "
   id="polygon439" />
			<path
   style="clip-rule:evenodd;fill-rule:evenodd;stroke:#000000;stroke-width:0.21600001;stroke-miterlimit:10"
   d="m 215.776,338.072 c 8.28,0 14.976,-6.768 14.976,-15.048 0,-8.28 -6.696,-15.048 -14.976,-15.048 -8.28,0 -15.048,6.768 -15.048,15.048 0,8.28 6.768,15.048 15.048,15.048 z"
   id="path441"
   inkscape:connector-curvature="0" />
			<path
   style="clip-rule:evenodd;fill-rule:evenodd;stroke:#000000;stroke-width:0.21600001;stroke-miterlimit:10"
   d="m 367.264,338.864 c 8.28,0 15.048,-6.768 15.048,-15.048 0,-8.28 -6.768,-15.048 -15.048,-15.048 -8.28,0 -15.048,6.768 -15.048,15.048 0,8.28 6.768,15.048 15.048,15.048 z"
   id="path443"
   inkscape:connector-curvature="0" />
			<polygon
   style="clip-rule:evenodd;fill:#ffd200;fill-rule:evenodd"
   points="309.304,265.28 311.176,267.152 311.464,268.664 311.464,283.136 310.528,285.656 308.656,287.168 307.144,287.456 262.864,287.456 261.352,287.168 259.768,286.232 258.904,284.072 258.904,281.624 259.48,280.976 274.6,265.64 275.824,264.992 277.336,264.344 307.144,264.344 "
   id="polygon445" />
			<polygon
   style="clip-rule:evenodd;fill:#ffd200;fill-rule:evenodd"
   points="351.496,264.704 353.008,265.64 367.48,282.56 368.128,285.656 366.544,287.168 365.32,287.456 321.616,287.456 319.744,286.88 318.52,285.008 318.52,267.44 319.744,265.28 321.616,264.344 349.336,264.704 "
   id="polygon447" />
		</g>
	</g>
</g>
</svg>