<?xml version="1.0" encoding="iso-8859-1"?>
<!-- Generator: Adobe Illustrator 15.1.0, SVG Export Plug-In . SVG Version: 6.00 Build 0)  -->
<!DOCTYPE svg PUBLIC "-//W3C//DTD SVG 1.1//EN" "http://www.w3.org/Graphics/SVG/1.1/DTD/svg11.dtd">
<svg version="1.1" xmlns="http://www.w3.org/2000/svg" xmlns:xlink="http://www.w3.org/1999/xlink" x="0px" y="0px" width="595px"
	 height="842px" viewBox="0 0 595 842" style="enable-background:new 0 0 595 842;" xml:space="preserve">
<g id="Kuvataso_1">
</g>
<g id="_x30_">
</g>
<g id="HAT">
</g>
<g id="HATKEL">
</g>
<g id="HATPUN">
	<g>
		<g>
			<rect x="120.016" y="236.048" style="fill-rule:evenodd;clip-rule:evenodd;fill:#FFD520;" width="358.128" height="120.096"/>
			<path style="fill-rule:evenodd;clip-rule:evenodd;fill:#EF3E42;" d="M298.864,236.048H460.36c9.648,0,17.568,8.064,17.568,17.928
				v84.24c0,9.864-7.92,17.928-17.568,17.928H298.864v-9H458.92c5.76,0,10.44-4.68,10.44-10.368v-81.36
				c0-5.76-4.68-10.44-10.44-10.44H298.864V236.048z M137.8,236.048h161.064v8.928H138.88c-5.76,0-10.44,4.68-10.44,10.44v81.36
				c0,5.688,4.68,10.368,10.44,10.368h159.984v9H137.8c-9.72,0-17.568-8.064-17.568-17.928v-84.24
				C120.232,244.112,128.08,236.048,137.8,236.048z"/>
		</g>
		<g>
			<polygon style="fill-rule:evenodd;clip-rule:evenodd;" points="196.048,323.816 196.336,320.144 198.496,314.888 
				200.368,311.792 204.688,307.76 209.872,305.312 215.416,304.376 222.832,305.96 227.8,309.056 230.536,311.792 232.696,314.888 
				234.568,320.144 234.856,323.816 347.824,323.816 348.112,320.144 349.912,314.888 353.296,310.28 357.976,306.896 
				365.32,304.736 372.736,305.312 378.856,308.12 383.176,313.304 385.696,318.272 386.56,323.816 407.224,323.816 409.096,322.88 
				409.384,321.656 409.672,290.552 409.384,289.328 408.448,288.104 406.576,287.456 383.176,287.456 381.952,287.168 
				380.44,286.232 357.328,259.448 355.456,258.224 353.008,257.288 274.888,257.288 273.376,257.576 272.08,258.512 
				243.784,285.296 242.272,286.232 185.896,294.872 183.736,296.096 182.512,298.256 182.512,300.128 182.512,319.784 
				183.088,321.944 184.96,323.528 186.832,323.816 			"/>
			<path style="fill-rule:evenodd;clip-rule:evenodd;stroke:#000000;stroke-width:0.216;stroke-miterlimit:10;" d="M215.776,338.072
				c8.28,0,14.976-6.768,14.976-15.048c0-8.28-6.696-15.048-14.976-15.048c-8.28,0-15.048,6.768-15.048,15.048
				C200.728,331.304,207.496,338.072,215.776,338.072z"/>
			<path style="fill-rule:evenodd;clip-rule:evenodd;stroke:#000000;stroke-width:0.216;stroke-miterlimit:10;" d="M367.264,338.864
				c8.28,0,15.048-6.768,15.048-15.048c0-8.28-6.768-15.048-15.048-15.048c-8.28,0-15.048,6.768-15.048,15.048
				C352.216,332.096,358.984,338.864,367.264,338.864z"/>
			<polygon style="fill-rule:evenodd;clip-rule:evenodd;fill:#FFD200;" points="277.336,264.344 307.144,264.344 309.304,265.28 
				311.176,267.152 311.464,268.664 311.464,283.136 310.528,285.656 308.656,287.168 307.144,287.456 262.864,287.456 
				261.352,287.168 259.768,286.232 258.904,284.072 258.904,281.624 259.48,280.976 274.6,265.64 275.824,264.992 			"/>
			<polygon style="fill-rule:evenodd;clip-rule:evenodd;fill:#FFD200;" points="321.616,264.344 349.336,264.704 351.496,264.704 
				353.008,265.64 367.48,282.56 368.128,285.656 366.544,287.168 365.32,287.456 321.616,287.456 319.744,286.88 318.52,285.008 
				318.52,267.44 319.744,265.28 			"/>
		</g>
	</g>
</g>
</svg>
