<?xml version="1.0" encoding="iso-8859-1"?>
<!-- Generator: Adobe Illustrator 15.1.0, SVG Export Plug-In . SVG Version: 6.00 Build 0)  -->
<!DOCTYPE svg PUBLIC "-//W3C//DTD SVG 1.1//EN" "http://www.w3.org/Graphics/SVG/1.1/DTD/svg11.dtd">
<svg version="1.1" xmlns="http://www.w3.org/2000/svg" xmlns:xlink="http://www.w3.org/1999/xlink" x="0px" y="0px" width="595px"
	 height="842px" viewBox="0 0 595 842" style="enable-background:new 0 0 595 842;" xml:space="preserve">
<g id="Kuvataso_1">
</g>
<g id="_x30_">
</g>
<g id="HAT">
</g>
<g id="HATKEL">
</g>
<g id="HATPUN">
	<g>
		<g>
			<rect x="127.216" y="272.048" style="fill-rule:evenodd;clip-rule:evenodd;fill:#FFD520;" width="358.128" height="120.096"/>
			<path style="fill-rule:evenodd;clip-rule:evenodd;fill:#EF3E42;" d="M306.064,272.048H467.56c9.648,0,17.568,8.064,17.568,17.928
				v84.24c0,9.864-7.92,17.928-17.568,17.928H306.064v-9H466.12c5.76,0,10.44-4.68,10.44-10.368v-81.36
				c0-5.76-4.68-10.44-10.44-10.44H306.064V272.048z M145,272.048h161.064v8.928H146.08c-5.76,0-10.44,4.68-10.44,10.44v81.36
				c0,5.688,4.68,10.368,10.44,10.368h159.984v9H145c-9.72,0-17.568-8.064-17.568-17.928v-84.24
				C127.432,280.112,135.28,272.048,145,272.048z"/>
		</g>
		<g>
			<polygon style="fill-rule:evenodd;clip-rule:evenodd;" points="266.032,358.088 333.64,358.088 334.216,353.192 335.728,350.168 
				338.824,346.208 343.072,343.472 346.096,342.248 349.48,341.96 352.792,342.248 357.4,344.048 361.36,347.432 364.096,351.392 
				365.32,354.776 365.608,358.088 389.656,358.088 391.816,357.512 393.328,354.776 393.328,299.624 393.328,298.112 
				392.752,297.176 390.016,295.304 226.432,295.304 223.696,296.528 222.832,298.4 213.976,335.264 213.976,358.088 
				234.064,358.088 234.352,354.776 235.288,351.392 237.16,348.656 239.248,346.208 243.496,343.472 248.392,342.248 
				253.288,342.248 257.824,344.048 261.784,347.432 264.52,351.392 265.456,354.776 			"/>
			<polygon style="fill-rule:evenodd;clip-rule:evenodd;fill:#FFD200;" points="218.872,331.304 226.432,299.264 246.88,299.264 
				243.208,331.304 			"/>
			<polygon style="fill-rule:evenodd;clip-rule:evenodd;fill:#FFD200;" points="252.64,299.264 249.616,323.384 278.848,323.384 
				278.848,299.264 			"/>
			<rect x="284.32" y="299.264" style="fill-rule:evenodd;clip-rule:evenodd;fill:#FFD200;" width="30.384" height="24.12"/>
			<rect x="320.536" y="299.264" style="fill-rule:evenodd;clip-rule:evenodd;fill:#FFD200;" width="30.456" height="24.12"/>
			<rect x="356.464" y="299.264" style="fill-rule:evenodd;clip-rule:evenodd;fill:#FFD200;" width="30.456" height="24.12"/>
			<path style="fill-rule:evenodd;clip-rule:evenodd;stroke:#000000;stroke-width:0.216;stroke-miterlimit:10;" d="M249.976,368.672
				c6.336,0,11.52-5.184,11.52-11.52s-5.184-11.52-11.52-11.52s-11.52,5.184-11.52,11.52S243.64,368.672,249.976,368.672z"/>
			<path style="fill-rule:evenodd;clip-rule:evenodd;stroke:#000000;stroke-width:0.216;stroke-miterlimit:10;" d="M349.912,368.672
				c6.336,0,11.52-5.184,11.52-11.52s-5.184-11.52-11.52-11.52s-11.52,5.184-11.52,11.52S343.576,368.672,349.912,368.672z"/>
		</g>
	</g>
</g>
</svg>
