<?xml version="1.0" encoding="iso-8859-1"?>
<!-- Generator: Adobe Illustrator 15.1.0, SVG Export Plug-In . SVG Version: 6.00 Build 0)  -->
<!DOCTYPE svg PUBLIC "-//W3C//DTD SVG 1.1//EN" "http://www.w3.org/Graphics/SVG/1.1/DTD/svg11.dtd">
<svg version="1.1" xmlns="http://www.w3.org/2000/svg" xmlns:xlink="http://www.w3.org/1999/xlink" x="0px" y="0px" width="595px"
	 height="842px" viewBox="0 0 595 842" style="enable-background:new 0 0 595 842;" xml:space="preserve">
<g id="Kuvataso_1">
</g>
<g id="_x30_">
</g>
<g id="HAT">
</g>
<g id="HATKEL">
</g>
<g id="HATPUN">
	<g>
		<rect x="135.928" y="269.024" style="fill-rule:evenodd;clip-rule:evenodd;fill:#FFD200;" width="357.696" height="119.376"/>
		<polygon style="fill-rule:evenodd;clip-rule:evenodd;fill:#EF3E42;" points="135.928,285.44 137.08,280.256 140.752,274.496 
			144.712,271.184 151.048,269.024 157.096,269.024 472.096,269.024 481.816,269.96 488.728,274.496 492.4,280.256 493.624,286.952 
			493.624,370.544 491.824,379.04 488.728,383.288 483.328,386.888 476.92,388.4 151.048,388.4 144.712,386.312 139.528,381.776 
			136.504,375.656 135.928,370.544 		"/>
		<polygon style="fill-rule:evenodd;clip-rule:evenodd;fill:#FFD200;" points="144.064,286.952 146.224,281.192 149.248,278.744 
			155.008,277.52 476.92,278.168 481.456,279.32 484.552,283.28 485.128,286.952 485.128,370.544 484.552,374.144 482.392,377.168 
			477.856,379.328 152.56,379.328 149.248,378.752 146.224,376.304 144.352,371.768 		"/>
		<polygon style="fill-rule:evenodd;clip-rule:evenodd;" points="231.328,340.52 235.864,341.456 240.112,343.544 242.2,345.704 
			244.936,349.664 246.16,353.84 245.872,358.736 244.072,362.984 241.336,366.584 237.376,369.32 231.328,370.544 226.504,369.608 
			222.544,367.52 218.296,362.984 216.496,357.224 216.784,352.328 219.232,346.928 223.768,342.68 228.016,340.88 		"/>
		<polygon style="fill-rule:evenodd;clip-rule:evenodd;" points="380.296,340.52 385.12,341.456 389.08,343.544 391.528,345.704 
			393.904,349.664 395.128,353.84 394.84,358.736 393.328,362.984 390.304,366.584 386.344,369.32 380.296,370.544 375.76,369.608 
			371.512,367.52 367.552,362.984 365.464,357.224 365.752,352.328 368.2,346.928 373.024,342.68 377.272,340.88 		"/>
		<polygon style="fill-rule:evenodd;clip-rule:evenodd;" points="212.248,355.712 202.888,355.712 200.44,354.776 198.928,352.976 
			199.216,331.16 199.504,329.648 201.016,327.848 202.528,327.2 257.104,318.704 258.904,318.128 286.768,291.2 288.856,289.976 
			425.728,289.976 427.6,291.2 428.176,293 428.176,352.688 427.6,354.488 425.152,355.712 399.376,355.712 399.088,351.752 
			397.864,348.44 396.064,345.056 393.904,342.032 390.88,339.656 387.568,337.784 382.096,336.632 376.696,336.92 371.224,338.72 
			368.2,340.88 365.464,343.544 363.664,346.64 361.504,351.752 361.216,355.712 250.408,355.712 250.12,351.752 247.96,346.64 
			245.872,343.544 243.424,340.88 238.6,337.784 235,336.92 229.24,336.632 223.768,337.784 219.232,340.88 216.496,343.544 
			214.336,346.64 212.536,351.752 		"/>
		<polygon style="fill-rule:evenodd;clip-rule:evenodd;fill:#FFD200;" points="292.24,297.248 322.768,297.248 324.856,298.4 
			326.08,301.496 326.08,316.328 324.856,318.416 321.832,319.64 277.984,319.64 275.536,319.064 274.024,317.192 273.736,315.68 
			274.024,313.88 289.216,298.4 289.792,297.824 		"/>
	</g>
</g>
</svg>
