<?xml version="1.0" encoding="UTF-8" standalone="no"?>
<!-- Generator: Adobe Illustrator 15.1.0, SVG Export Plug-In . SVG Version: 6.00 Build 0)  -->

<svg
   xmlns:dc="http://purl.org/dc/elements/1.1/"
   xmlns:cc="http://creativecommons.org/ns#"
   xmlns:rdf="http://www.w3.org/1999/02/22-rdf-syntax-ns#"
   xmlns:svg="http://www.w3.org/2000/svg"
   xmlns="http://www.w3.org/2000/svg"
   xmlns:sodipodi="http://sodipodi.sourceforge.net/DTD/sodipodi-0.dtd"
   xmlns:inkscape="http://www.inkscape.org/namespaces/inkscape"
   version="1.1"
   x="0px"
   y="0px"
   width="360.504"
   height="120.24001"
   viewBox="0 0 360.504 120.24001"
   xml:space="preserve"
   id="svg2334"
   sodipodi:docname="836.svg"
   inkscape:version="0.92.5 (2060ec1f9f, 2020-04-08)"><metadata
   id="metadata2340"><rdf:RDF><cc:Work
       rdf:about=""><dc:format>image/svg+xml</dc:format><dc:type
         rdf:resource="http://purl.org/dc/dcmitype/StillImage" /></cc:Work></rdf:RDF></metadata><defs
   id="defs2338" /><sodipodi:namedview
   pagecolor="#ffffff"
   bordercolor="#666666"
   borderopacity="1"
   objecttolerance="10"
   gridtolerance="10"
   guidetolerance="10"
   inkscape:pageopacity="0"
   inkscape:pageshadow="2"
   inkscape:window-width="640"
   inkscape:window-height="480"
   id="namedview2336"
   showgrid="false"
   inkscape:zoom="0.28028504"
   inkscape:cx="164.668"
   inkscape:cy="44.656"
   inkscape:window-x="0"
   inkscape:window-y="0"
   inkscape:window-maximized="0"
   inkscape:current-layer="svg2334" />
<g
   id="Kuvataso_1"
   transform="translate(-132.832,-345.41599)">
</g>
<g
   id="_x30_"
   transform="translate(-132.832,-345.41599)">
</g>
<g
   id="HATKEL"
   transform="translate(-132.832,-345.41599)">
</g>
<g
   id="HATPUN"
   transform="translate(-132.832,-345.41599)">
</g>
<g
   id="HAT"
   transform="translate(-132.832,-345.41599)">
	<g
   id="g2331">
		<rect
   x="132.832"
   y="345.41599"
   style="clip-rule:evenodd;fill:#ffd200;fill-rule:evenodd"
   width="360.504"
   height="120.24"
   id="rect2319" />
		<polygon
   style="clip-rule:evenodd;fill:#ef3e42;fill-rule:evenodd"
   points="137.728,350.96 141.688,347.576 147.808,345.416 153.856,345.416 471.304,345.416 481.384,346.352 488.44,350.96 492.112,356.72 493.336,363.488 493.336,447.656 491.176,456.224 488.44,460.472 482.896,464.144 476.488,465.656 147.808,465.656 141.688,463.496 136.504,458.96 133.408,452.84 132.832,447.656 132.832,361.904 134.056,356.72 "
   id="polygon2321" />
		<polygon
   style="clip-rule:evenodd;fill:#ffd200;fill-rule:evenodd"
   points="146.224,355.208 152.056,353.984 476.488,354.632 480.808,355.856 484.12,359.816 484.768,363.488 484.768,447.656 484.12,451.328 482.032,454.352 477.424,456.512 149.608,456.512 146.224,455.864 143.2,453.488 141.04,448.88 141.04,363.488 143.2,357.656 "
   id="polygon2323" />
		<g
   id="g2329">
			<polygon
   style="clip-rule:evenodd;fill-rule:evenodd;stroke:#000000;stroke-width:0.4989;stroke-miterlimit:10"
   points="286.048,428.144 300.376,407.408 322.336,407.408 322.624,400.064 304.048,400.064 304.048,393.08 323.272,393.08 324.136,376.016 321.4,373.856 320.176,370.76 320.824,366.224 322.336,364.352 325.072,362.84 328.456,362.552 331.768,363.776 333.928,366.512 334.576,369.896 333.64,372.92 332.416,374.792 331.48,375.656 329.032,414.752 304.048,414.752 287.92,438.224 272.944,427.784 277.192,421.736 "
   id="polygon2325" />
			<polygon
   style="clip-rule:evenodd;fill-rule:evenodd;stroke:#000000;stroke-width:0.4989;stroke-miterlimit:10"
   points="300.664,431.456 302.824,434.84 305.56,437.864 310.456,441.248 315.928,443.048 322.048,443.408 327.808,442.184 332.992,439.088 336.088,436.352 339.4,431.456 341.272,425.984 341.56,419.936 340.336,414.176 337.6,408.92 334.864,405.896 333.352,404.672 333.928,396.464 337.6,398.912 340.984,401.936 343.72,405.32 346.168,409.28 347.68,413.528 348.616,417.776 348.904,422.312 348.616,426.92 346.456,433.328 343.072,439.088 340.336,442.472 336.664,445.208 330.904,448.592 324.496,450.392 319.888,450.68 313.192,449.816 306.784,447.368 303.112,445.208 299.728,442.184 296.776,438.512 294.616,434.84 299.44,427.784 "
   id="polygon2327" />
		</g>
	</g>
</g>
</svg>