<?xml version="1.0" encoding="UTF-8" standalone="no"?>
<!-- Generator: Adobe Illustrator 15.1.0, SVG Export Plug-In . SVG Version: 6.00 Build 0)  -->

<svg
   xmlns:dc="http://purl.org/dc/elements/1.1/"
   xmlns:cc="http://creativecommons.org/ns#"
   xmlns:rdf="http://www.w3.org/1999/02/22-rdf-syntax-ns#"
   xmlns:svg="http://www.w3.org/2000/svg"
   xmlns="http://www.w3.org/2000/svg"
   xmlns:sodipodi="http://sodipodi.sourceforge.net/DTD/sodipodi-0.dtd"
   xmlns:inkscape="http://www.inkscape.org/namespaces/inkscape"
   version="1.1"
   x="0px"
   y="0px"
   width="363.168"
   height="121.03201"
   viewBox="0 0 363.168 121.03201"
   xml:space="preserve"
   id="svg2369"
   sodipodi:docname="841.svg"
   inkscape:version="0.92.5 (2060ec1f9f, 2020-04-08)"><metadata
   id="metadata2375"><rdf:RDF><cc:Work
       rdf:about=""><dc:format>image/svg+xml</dc:format><dc:type
         rdf:resource="http://purl.org/dc/dcmitype/StillImage" /></cc:Work></rdf:RDF></metadata><defs
   id="defs2373" /><sodipodi:namedview
   pagecolor="#ffffff"
   bordercolor="#666666"
   borderopacity="1"
   objecttolerance="10"
   gridtolerance="10"
   guidetolerance="10"
   inkscape:pageopacity="0"
   inkscape:pageshadow="2"
   inkscape:window-width="640"
   inkscape:window-height="480"
   id="namedview2371"
   showgrid="false"
   inkscape:zoom="0.28028504"
   inkscape:cx="180.796"
   inkscape:cy="9.9520111"
   inkscape:window-x="0"
   inkscape:window-y="0"
   inkscape:window-maximized="0"
   inkscape:current-layer="svg2369" />
<g
   id="Kuvataso_1"
   transform="translate(-116.704,-309.92)">
</g>
<g
   id="_x30_"
   transform="translate(-116.704,-309.92)">
</g>
<g
   id="HATPUN"
   transform="translate(-116.704,-309.92)">
</g>
<g
   id="HAT"
   transform="translate(-116.704,-309.92)">
</g>
<g
   id="HATKEL"
   transform="translate(-116.704,-309.92)">
	<g
   id="g2366">
		<rect
   x="116.704"
   y="309.92001"
   style="clip-rule:evenodd;fill:#ffd200;fill-rule:evenodd"
   width="363.168"
   height="121.032"
   id="rect2346" />
		<polygon
   style="clip-rule:evenodd;fill:#ef3e42;fill-rule:evenodd"
   points="121.672,315.464 125.632,312.08 132.112,309.92 138.232,309.92 457.984,309.92 467.848,310.784 474.904,315.464 478.576,321.296 479.872,328.064 479.872,412.88 478,421.448 474.904,425.768 469.36,429.44 462.952,430.952 132.112,430.952 125.632,428.864 120.736,424.184 117.352,418.136 116.704,412.88 116.704,326.48 118,321.296 "
   id="polygon2348" />
		<polygon
   style="clip-rule:evenodd;fill:#ffd200;fill-rule:evenodd"
   points="130.24,319.712 136.144,318.488 462.952,319.136 467.56,320.36 470.584,324.32 471.232,328.064 471.232,412.88 470.584,416.624 468.496,419.648 464.176,421.736 133.624,421.736 130.24,421.16 127.216,418.784 125.344,414.176 125.344,328.064 127.216,322.232 "
   id="polygon2350" />
		<g
   id="g2364">
			<polygon
   style="clip-rule:evenodd;fill-rule:evenodd"
   points="272.008,384.656 273.592,387.968 274.816,392.648 274.816,396.896 273.592,402.44 271.72,402.152 268.984,407.048 264.664,410.792 259.768,412.88 254.224,413.816 248.968,412.88 243.712,410.432 240.328,407.408 236.944,401.864 236.08,398.48 235.72,392.936 237.304,387.68 240.04,382.784 244.36,379.4 250.192,376.952 249.616,375.08 255.448,374.504 261.28,375.728 264.664,377.24 267.76,372.92 262.504,370.76 260.344,359.744 264.952,358.448 269.56,357.872 274.816,357.872 277.552,358.16 280.36,358.808 283.096,359.384 284.968,356.648 289.864,351.104 292.312,348.656 294.76,346.208 294.76,342.824 292.312,342.824 291.088,342.824 289.576,340.664 288.928,334.832 287.704,334.832 288.64,331.448 290.512,328.352 293.896,326.84 297.28,326.48 300.592,328.064 303.328,331.736 303.976,336.056 303.616,340.952 305.776,342.824 310.384,347.432 312.832,350.816 317.152,355.712 319.96,362.48 321.472,366.512 322.12,369.248 321.76,372.344 325.792,370.184 327.952,371.12 332.56,371.696 335.944,372.344 341.776,371.12 348.832,369.896 350.344,373.856 350.704,376.592 350.704,378.176 355.024,382.136 357.112,385.52 358.984,391.064 358.696,396.032 358.696,400.928 356.536,400.928 354.088,405.824 350.056,410.144 344.872,412.88 337.168,413.816 331.624,412.592 326.728,409.856 322.696,405.824 320.824,402.44 291.376,402.44 287.416,400.64 284.608,397.256 282.808,393.224 282.52,390.128 283.096,387.392 273.592,378.176 269.848,381.848 "
   id="polygon2352" />
			<g
   id="g2362">
				<polygon
   style="clip-rule:evenodd;fill:#ffd200;fill-rule:evenodd"
   points="301.456,365.216 297.568,368.312 293.536,364.928 289.288,361.832 295.696,357.584 "
   id="polygon2354" />
				<polygon
   style="clip-rule:evenodd;fill:#ffd200;fill-rule:evenodd"
   points="319.312,392.288 319.024,396.32 315.352,396.32 312.256,392.288 "
   id="polygon2356" />
				<polygon
   style="clip-rule:evenodd;fill:#ffd200;fill-rule:evenodd"
   points="335.584,401.216 339.904,401.864 343.936,399.992 345.448,396.896 345.736,393.872 344.224,390.776 347.608,388.616 348.544,389.84 348.832,391.352 349.48,392.648 349.768,394.16 349.48,396.896 349.12,398.12 348.832,399.704 347.608,401.216 345.448,404.024 342.064,405.824 339.616,405.824 336.88,405.824 334.072,404.888 332.848,404.312 331.624,403.376 329.176,399.992 332.56,398.12 "
   id="polygon2358" />
				<polygon
   style="clip-rule:evenodd;fill:#ffd200;fill-rule:evenodd"
   points="264.664,390.128 264.952,392.288 265.24,395.096 264.952,398.48 263.728,401.216 262.216,402.8 260.344,404.312 258.472,405.248 256.96,405.536 253,405.824 250.192,404.888 247.744,403.376 245.584,401.504 244.36,399.056 243.424,396.032 243.424,394.736 244.072,392 245.008,389.264 246.808,387.104 248.968,385.52 252.064,384.296 254.8,384.008 256.384,384.296 259.12,384.944 256.672,388.328 254.512,387.968 251.416,388.904 248.968,390.776 247.456,393.872 247.744,396.32 248.68,399.056 251.128,401.216 254.224,401.864 256.384,401.864 258.184,400.928 260.056,399.416 260.992,397.544 261.28,395.384 261.28,393.224 260.344,391.064 263.08,388.328 "
   id="polygon2360" />
			</g>
		</g>
	</g>
</g>
</svg>