<?xml version="1.0" encoding="UTF-8" standalone="no"?>
<!-- Generator: Adobe Illustrator 15.1.0, SVG Export Plug-In . SVG Version: 6.00 Build 0)  -->

<svg
   xmlns:dc="http://purl.org/dc/elements/1.1/"
   xmlns:cc="http://creativecommons.org/ns#"
   xmlns:rdf="http://www.w3.org/1999/02/22-rdf-syntax-ns#"
   xmlns:svg="http://www.w3.org/2000/svg"
   xmlns="http://www.w3.org/2000/svg"
   xmlns:sodipodi="http://sodipodi.sourceforge.net/DTD/sodipodi-0.dtd"
   xmlns:inkscape="http://www.inkscape.org/namespaces/inkscape"
   version="1.1"
   x="0px"
   y="0px"
   width="358.12799"
   height="120.02401"
   viewBox="0 0 358.12799 120.02401"
   xml:space="preserve"
   id="svg2398"
   sodipodi:docname="842.svg"
   inkscape:version="0.92.5 (2060ec1f9f, 2020-04-08)"><metadata
   id="metadata2404"><rdf:RDF><cc:Work
       rdf:about=""><dc:format>image/svg+xml</dc:format><dc:type
         rdf:resource="http://purl.org/dc/dcmitype/StillImage" /></cc:Work></rdf:RDF></metadata><defs
   id="defs2402" /><sodipodi:namedview
   pagecolor="#ffffff"
   bordercolor="#666666"
   borderopacity="1"
   objecttolerance="10"
   gridtolerance="10"
   guidetolerance="10"
   inkscape:pageopacity="0"
   inkscape:pageshadow="2"
   inkscape:window-width="640"
   inkscape:window-height="480"
   id="namedview2400"
   showgrid="false"
   inkscape:zoom="0.28028504"
   inkscape:cx="163.084"
   inkscape:cy="35.872"
   inkscape:window-x="0"
   inkscape:window-y="0"
   inkscape:window-maximized="0"
   inkscape:current-layer="svg2398" />
<g
   id="Kuvataso_1"
   transform="translate(-134.416,-336.84799)">
</g>
<g
   id="_x30_"
   transform="translate(-134.416,-336.84799)">
</g>
<g
   id="HATPUN"
   transform="translate(-134.416,-336.84799)">
</g>
<g
   id="HAT"
   transform="translate(-134.416,-336.84799)">
</g>
<g
   id="HATKEL"
   transform="translate(-134.416,-336.84799)">
	<g
   id="g2395">
		<rect
   x="134.416"
   y="336.84799"
   style="clip-rule:evenodd;fill:#ffd520;fill-rule:evenodd"
   width="358.12799"
   height="120.024"
   id="rect2381" />
		<path
   style="clip-rule:evenodd;fill:#ef3e42;fill-rule:evenodd"
   d="M 313.264,336.848 H 474.76 c 9.648,0 17.568,8.064 17.568,17.928 v 84.168 c 0,9.864 -7.92,17.928 -17.568,17.928 H 313.264 v -9 H 473.32 c 5.76,0 10.44,-4.68 10.44,-10.368 v -81.288 c 0,-5.76 -4.68,-10.44 -10.44,-10.44 H 313.264 Z m -161.064,0 h 161.064 v 8.928 H 153.28 c -5.76,0 -10.44,4.68 -10.44,10.44 v 81.288 c 0,5.688 4.68,10.368 10.44,10.368 h 159.984 v 9 H 152.2 c -9.72,0 -17.568,-8.064 -17.568,-17.928 v -84.168 c 0,-9.864 7.848,-17.928 17.568,-17.928 z"
   id="path2383"
   inkscape:connector-curvature="0" />
		<g
   id="g2393">
			<polygon
   style="clip-rule:evenodd;fill-rule:evenodd"
   points="282.088,395.168 285.112,398.192 287.848,402.728 290.584,407.552 291.736,411.44 292.096,415.976 292.096,420.224 291.16,424.4 290.584,426.488 287.848,425.912 286.048,429.512 282.088,434.696 276.976,438.296 270.928,440.744 264.592,441.608 258.832,441.032 253.072,438.944 248.248,435.272 245.224,432.248 242.776,428.936 240.976,424.976 239.752,418.712 239.752,414.464 240.976,408.776 243.064,403.952 246.088,399.704 249.112,396.968 252.784,394.88 251.272,392.432 255.52,390.632 260.632,389.696 266.104,389.12 270.28,389.696 273.952,376.088 266.68,378.248 265.168,375.512 264.232,372.776 264.592,369.752 265.456,366.728 276.328,367.952 277.552,363.128 294.76,355.568 296.272,358.592 286.048,363.992 287.2,366.44 282.376,368.528 280,375.512 281.512,377.312 296.632,377.312 307.432,400.928 304.696,404.24 306.208,406.04 322.552,406.04 331.264,384.872 326.44,382.784 325.216,378.824 325.864,377.312 345.52,377.312 346.744,378.824 344.584,386.384 376.048,386.384 377.272,388.184 375.76,393.656 379.072,396.032 383.32,400.928 386.344,406.328 387.784,412.088 388.144,418.424 387.496,422.312 386.344,426.2 383.896,425.624 382.096,429.224 378.784,433.184 373.312,437.72 365.752,440.744 359.704,441.32 353.656,440.456 347.896,438.008 343.072,434.408 339.184,429.512 336.448,423.824 308.656,426.848 306.208,426.2 303.472,424.112 301.96,422.312 301.096,419 301.096,416.624 301.672,414.464 279.064,388.184 275.752,388.184 274.528,390.92 278.488,392.72 "
   id="polygon2385" />
			<polygon
   style="clip-rule:evenodd;fill:#ffd200;fill-rule:evenodd"
   points="345.808,405.104 347.896,402.728 350.632,400.568 356.68,411.8 342.784,411.152 344.008,408.128 "
   id="polygon2387" />
			<polygon
   style="clip-rule:evenodd;fill:#ffd200;fill-rule:evenodd"
   points="260.92,398.192 257.32,399.416 254.008,401.216 251.272,403.592 248.824,406.328 246.736,411.152 245.8,414.824 245.8,418.424 246.736,421.952 247.96,425.624 248.824,427.136 251.272,429.872 255.808,433.184 259.12,434.696 262.72,435.272 264.592,435.272 269.992,434.696 273.304,433.184 277.84,429.872 280.288,427.136 281.152,425.624 282.664,421.952 283.024,420.224 283.312,416.624 283.6,413.888 282.664,411.152 280.288,406.328 277.84,403.304 276.688,402.08 273.304,399.992 271.792,399.416 266.968,412.664 268.768,414.824 269.128,418.424 267.256,420.512 264.592,421.088 262.144,420.512 260.92,419 260.056,416.624 260.344,415.112 261.568,413.6 262.72,412.376 264.592,412.088 268.192,398.192 264.592,397.904 "
   id="polygon2389" />
			<polygon
   style="clip-rule:evenodd;fill:#ffd200;fill-rule:evenodd"
   points="350.056,431.96 355.168,434.408 356.968,434.984 358.768,435.272 360.64,435.272 366.04,434.408 372.736,431.024 375.112,428.36 378.136,423.464 379.072,420.224 379.36,414.824 378.784,411.152 377.272,407.552 375.112,404.528 372.736,402.08 369.352,399.992 366.04,398.48 362.44,397.904 358.768,397.904 357.256,398.192 353.656,399.056 360.64,411.44 363.664,412.664 365.464,415.112 365.464,416.912 364.528,419.648 361.792,421.376 343.072,423.176 345.232,427.424 "
   id="polygon2391" />
		</g>
	</g>
</g>
</svg>