<?xml version="1.0" encoding="UTF-8" standalone="no"?>
<!-- Generator: Adobe Illustrator 15.1.0, SVG Export Plug-In . SVG Version: 6.00 Build 0)  -->

<svg
   xmlns:dc="http://purl.org/dc/elements/1.1/"
   xmlns:cc="http://creativecommons.org/ns#"
   xmlns:rdf="http://www.w3.org/1999/02/22-rdf-syntax-ns#"
   xmlns:svg="http://www.w3.org/2000/svg"
   xmlns="http://www.w3.org/2000/svg"
   xmlns:sodipodi="http://sodipodi.sourceforge.net/DTD/sodipodi-0.dtd"
   xmlns:inkscape="http://www.inkscape.org/namespaces/inkscape"
   version="1.1"
   id="Kuvataso_1"
   x="0px"
   y="0px"
   width="358.12799"
   height="120.09601"
   viewBox="0 0 358.12799 120.09601"
   xml:space="preserve"
   sodipodi:docname="849.svg"
   inkscape:version="0.92.5 (2060ec1f9f, 2020-04-08)"><metadata
   id="metadata2553"><rdf:RDF><cc:Work
       rdf:about=""><dc:format>image/svg+xml</dc:format><dc:type
         rdf:resource="http://purl.org/dc/dcmitype/StillImage" /></cc:Work></rdf:RDF></metadata><defs
   id="defs2551" /><sodipodi:namedview
   pagecolor="#ffffff"
   bordercolor="#666666"
   borderopacity="1"
   objecttolerance="10"
   gridtolerance="10"
   guidetolerance="10"
   inkscape:pageopacity="0"
   inkscape:pageshadow="2"
   inkscape:window-width="640"
   inkscape:window-height="480"
   id="namedview2549"
   showgrid="false"
   inkscape:zoom="0.28028504"
   inkscape:cx="170.284"
   inkscape:cy="-28.855995"
   inkscape:window-x="0"
   inkscape:window-y="0"
   inkscape:window-maximized="0"
   inkscape:current-layer="Kuvataso_1" />
<g
   id="g2546"
   transform="translate(-127.216,-272.048)">
	<g
   id="g2522">
		<rect
   x="127.216"
   y="272.048"
   style="clip-rule:evenodd;fill:#ffd520;fill-rule:evenodd"
   width="358.12799"
   height="120.096"
   id="rect2518" />
		<path
   style="clip-rule:evenodd;fill:#ef3e42;fill-rule:evenodd"
   d="M 306.064,272.048 H 467.56 c 9.648,0 17.568,8.064 17.568,17.928 v 84.24 c 0,9.864 -7.92,17.928 -17.568,17.928 H 306.064 v -9 H 466.12 c 5.76,0 10.44,-4.68 10.44,-10.368 v -81.36 c 0,-5.76 -4.68,-10.44 -10.44,-10.44 H 306.064 Z m -161.064,0 h 161.064 v 8.928 H 146.08 c -5.76,0 -10.44,4.68 -10.44,10.44 v 81.36 c 0,5.688 4.68,10.368 10.44,10.368 h 159.984 v 9 H 145 c -9.72,0 -17.568,-8.064 -17.568,-17.928 v -84.24 c 0,-9.864 7.848,-17.928 17.568,-17.928 z"
   id="path2520"
   inkscape:connector-curvature="0" />
	</g>
	<g
   id="g2544">
		<g
   id="g2528">
			<path
   style="clip-rule:evenodd;fill-rule:evenodd"
   d="m 186.688,361.184 c 1.512,0 3.024,0 4.536,0 7.272,0.072 15.048,-5.112 16.2,-15.408 0.648,-5.904 -0.648,-11.664 -6.12,-17.136 1.944,-2.376 4.104,-7.704 3.24,-13.392 -0.936,-5.76 -4.176,-11.88 -14.04,-13.536 h -3.816 v 8.64 h 2.088 c 4.896,0.216 6.768,3.312 6.912,6.408 0.36,5.976 -2.592,8.784 -6.984,8.712 h -2.016 v 8.928 h 3.888 c 5.976,0.216 7.776,3.888 7.992,7.632 0.504,7.344 -3.456,10.512 -8.064,10.296 h -3.816 z m -17.64,-59.4 v 59.4 c 5.832,0 11.736,0 17.64,0 v -8.856 h -8.856 L 177.76,334.4 h 8.928 v -8.928 l -9,-0.072 -0.072,-15.048 h 9.072 v -8.64 z"
   id="path2524"
   inkscape:connector-curvature="0" />
			<path
   style="clip-rule:evenodd;fill:none;fill-rule:evenodd;stroke:#000000;stroke-width:0.21600001;stroke-miterlimit:10"
   d="m 169.048,301.784 v 59.4 c 7.416,0 14.832,0 22.176,0 7.272,0.072 15.048,-5.112 16.2,-15.408 0.648,-5.904 -0.648,-11.664 -6.12,-17.136 1.944,-2.376 4.104,-7.704 3.24,-13.392 -0.936,-5.76 -4.176,-11.88 -14.04,-13.536 z m 8.568,8.568 0.072,15.048 11.016,0.072 c 4.392,0.072 7.344,-2.736 6.984,-8.712 -0.144,-3.096 -2.016,-6.192 -6.912,-6.408 z m 0.144,24.048 0.072,17.928 h 12.672 c 4.608,0.216 8.568,-2.952 8.064,-10.296 -0.216,-3.744 -2.016,-7.416 -7.992,-7.632 z"
   id="path2526"
   inkscape:connector-curvature="0" />
		</g>
		<path
   style="clip-rule:evenodd;fill-rule:evenodd;stroke:#000000;stroke-width:0.21600001;stroke-miterlimit:10"
   d="m 253.288,291.56 4.464,-0.144 c -10.44,37.008 -5.184,56.448 -0.144,80.28 -1.44,0 -3.24,0 -4.32,0 -9.792,-18.72 -10.8,-28.944 -10.728,-41.688 0.072,-18.72 7.776,-32.4 10.728,-38.448 z"
   id="path2530"
   inkscape:connector-curvature="0" />
		<path
   style="clip-rule:evenodd;fill-rule:evenodd;stroke:#000000;stroke-width:0.21600001;stroke-miterlimit:10"
   d="m 431.776,292.64 -4.392,-0.144 c 10.368,37.08 5.112,56.448 0.072,80.28 1.44,0 3.24,0 4.392,0 9.792,-18.648 10.728,-28.944 10.656,-41.688 -0.072,-18.72 -7.776,-32.328 -10.728,-38.448 z"
   id="path2532"
   inkscape:connector-curvature="0" />
		<polygon
   style="clip-rule:evenodd;fill-rule:evenodd;stroke:#000000;stroke-width:0.21600001;stroke-miterlimit:10"
   points="292.456,343.976 304.048,301.64 313.192,301.64 296.848,361.184 287.848,361.112 271.648,301.784 280.792,301.784 "
   id="polygon2534" />
		<g
   id="g2540">
			<path
   style="clip-rule:evenodd;fill-rule:evenodd"
   d="m 340.48,319.28 11.592,42.192 h 9.144 L 345.088,302 h -4.608 z m 0,31.752 v -8.856 h 6.408 l 2.52,8.856 z m -20.808,10.296 h 9.144 l 11.592,-42.192 0.072,0.145 V 302 h -5.112 z m 20.808,-19.152 v 8.856 h -8.928 l 2.52,-8.856 z"
   id="path2536"
   inkscape:connector-curvature="0" />
			<path
   style="clip-rule:evenodd;fill:none;fill-rule:evenodd;stroke:#000000;stroke-width:0.21600001;stroke-miterlimit:10"
   d="m 319.672,361.328 h 9.144 l 11.592,-42.192 11.664,42.336 h 9.144 L 345.088,302 h -9.72 z m 14.4,-19.152 h 12.816 l 2.52,8.856 h -17.856 z"
   id="path2538"
   inkscape:connector-curvature="0" />
		</g>
		<polygon
   style="clip-rule:evenodd;fill-rule:evenodd;stroke:#000000;stroke-width:0.21600001;stroke-miterlimit:10"
   points="383.032,330.656 402.4,301.784 412.84,301.784 395.776,327.344 412.696,361.112 402.904,361.112 390.232,335.552 383.032,346.496 383.032,361.184 374.32,361.184 374.32,301.784 383.032,301.784 "
   id="polygon2542" />
	</g>
</g>
</svg>