<?xml version="1.0" encoding="UTF-8" standalone="no"?>
<!-- Generator: Adobe Illustrator 15.1.0, SVG Export Plug-In . SVG Version: 6.00 Build 0)  -->

<svg
   xmlns:dc="http://purl.org/dc/elements/1.1/"
   xmlns:cc="http://creativecommons.org/ns#"
   xmlns:rdf="http://www.w3.org/1999/02/22-rdf-syntax-ns#"
   xmlns:svg="http://www.w3.org/2000/svg"
   xmlns="http://www.w3.org/2000/svg"
   xmlns:sodipodi="http://sodipodi.sourceforge.net/DTD/sodipodi-0.dtd"
   xmlns:inkscape="http://www.inkscape.org/namespaces/inkscape"
   version="1.1"
   x="0px"
   y="0px"
   width="359.85602"
   height="119.88"
   viewBox="0 0 359.85602 119.88"
   xml:space="preserve"
   id="svg2582"
   sodipodi:docname="851.svg"
   inkscape:version="0.92.5 (2060ec1f9f, 2020-04-08)"><metadata
   id="metadata2588"><rdf:RDF><cc:Work
       rdf:about=""><dc:format>image/svg+xml</dc:format><dc:type
         rdf:resource="http://purl.org/dc/dcmitype/StillImage" /></cc:Work></rdf:RDF></metadata><defs
   id="defs2586" /><sodipodi:namedview
   pagecolor="#ffffff"
   bordercolor="#666666"
   borderopacity="1"
   objecttolerance="10"
   gridtolerance="10"
   guidetolerance="10"
   inkscape:pageopacity="0"
   inkscape:pageshadow="2"
   inkscape:window-width="640"
   inkscape:window-height="480"
   id="namedview2584"
   showgrid="false"
   inkscape:zoom="0.28028504"
   inkscape:cx="171.22"
   inkscape:cy="-76.088005"
   inkscape:window-x="0"
   inkscape:window-y="0"
   inkscape:window-maximized="0"
   inkscape:current-layer="svg2582" />
<g
   id="Kuvataso_1"
   transform="translate(-126.28,-225.032)">
</g>
<g
   id="_x30_"
   transform="translate(-126.28,-225.032)">
</g>
<g
   id="HATPUN"
   transform="translate(-126.28,-225.032)">
</g>
<g
   id="HATKEL"
   transform="translate(-126.28,-225.032)">
</g>
<g
   id="HAT"
   transform="translate(-126.28,-225.032)">
	<g
   id="g2579">
		<rect
   x="126.424"
   y="225.032"
   style="clip-rule:evenodd;fill:#ffd200;fill-rule:evenodd"
   width="359.71201"
   height="119.88"
   id="rect2559" />
		<path
   style="fill:#ef3e42"
   d="M 467.632,225.176 H 144.64 144.568 c -5.04,0 -9.576,2.016 -12.888,5.256 -3.384,3.24 -5.4,7.776 -5.4,12.672 v 0 83.808 0 c 0,4.896 2.016,9.432 5.4,12.672 3.312,3.24 7.848,5.256 12.96,5.256 v 0 h 322.992 v 0 c 5.04,0 9.648,-2.016 12.96,-5.256 3.312,-3.24 5.4,-7.776 5.4,-12.672 v 0 -83.808 0 c 0,-4.896 -2.088,-9.432 -5.4,-12.672 -3.312,-3.24 -7.92,-5.256 -12.96,-5.256 z"
   id="path2561"
   inkscape:connector-curvature="0" />
		<path
   style="fill:#ffd200"
   d="m 468.496,233.6 h -324.72 -0.072 c -2.592,0 -4.968,0.936 -6.696,2.448 -1.656,1.512 -2.736,3.6 -2.736,5.904 v 0 86.112 0 c 0,2.304 1.08,4.392 2.736,5.904 1.728,1.512 4.104,2.448 6.696,2.448 h 0.072 324.72 v 0 c 2.592,0 4.968,-0.936 6.696,-2.448 1.728,-1.512 2.808,-3.6 2.808,-5.904 v 0 -86.112 0 c 0,-2.304 -1.08,-4.392 -2.808,-5.904 -1.728,-1.512 -4.104,-2.448 -6.696,-2.448 z"
   id="path2563"
   inkscape:connector-curvature="0" />
		<g
   id="g2577">
			<polygon
   style="clip-rule:evenodd;fill-rule:evenodd"
   points="234.568,255.776 238.528,261.608 239.752,268.664 239.176,276.944 237.664,280.328 235.504,283.424 239.752,289.256 241.336,294.44 241.624,303.08 240.4,310.424 236.44,316.544 230.608,320.864 221.68,323.024 216.424,322.376 211.24,319.928 208.504,317.768 204.76,313.52 203.248,310.424 202.024,304.88 201.736,298.112 202.6,292.64 204.76,287.744 208.144,283.424 205.12,278.816 203.896,273.272 203.896,266.864 205.12,261.608 207.856,257 211.528,253.616 216.424,251.168 221.68,250.592 228.736,251.816 "
   id="polygon2565" />
			<polygon
   style="clip-rule:evenodd;fill:#ffd520;fill-rule:evenodd"
   points="224.128,261.608 226.864,263.48 228.736,266.504 228.736,273.56 226.864,276.656 222.904,278.816 219.52,278.528 216.784,276.656 214.912,273.56 214.624,268.664 214.912,266.504 215.848,264.344 218.584,262.256 220.744,261.608 "
   id="polygon2567" />
			<polygon
   style="clip-rule:evenodd;fill:#ffd520;fill-rule:evenodd"
   points="227.8,291.056 229.96,294.152 230.896,298.112 230.608,305.528 227.8,309.848 223.192,311.936 219.232,311.648 215.848,309.848 213.04,305.528 212.752,296.6 214.336,293.216 218.008,289.832 223.192,288.968 "
   id="polygon2569" />
			<rect
   x="271.72"
   y="281.552"
   style="clip-rule:evenodd;fill-rule:evenodd"
   width="36.144001"
   height="8.9280005"
   id="rect2571" />
			<polygon
   style="clip-rule:evenodd;fill-rule:evenodd"
   points="336.448,261.032 339.472,259.16 341.92,256.424 344.08,253.616 345.664,250.232 356.392,250.232 356.392,323.024 345.664,323.024 345.664,267.152 337.672,268.376 "
   id="polygon2573" />
			<polygon
   style="clip-rule:evenodd;fill-rule:evenodd"
   points="392.608,305.24 393.256,297.824 395.056,290.48 397.216,283.136 400.312,276.008 402.76,268.664 404.56,261.32 380.656,261.32 380.656,250.592 414.424,250.592 413.776,258.224 412.264,265.928 410.392,273.56 407.944,280.328 406.432,283.712 404.92,290.48 403.336,300.632 403.048,304.88 403.048,323.024 392.032,323.024 392.032,312.872 "
   id="polygon2575" />
		</g>
	</g>
</g>
</svg>