<?xml version="1.0" encoding="iso-8859-1"?>
<!-- Generator: Adobe Illustrator 15.1.0, SVG Export Plug-In . SVG Version: 6.00 Build 0)  -->
<!DOCTYPE svg PUBLIC "-//W3C//DTD SVG 1.1//EN" "http://www.w3.org/Graphics/SVG/1.1/DTD/svg11.dtd">
<svg version="1.1" xmlns="http://www.w3.org/2000/svg" xmlns:xlink="http://www.w3.org/1999/xlink" x="0px" y="0px" width="595px"
	 height="842px" viewBox="0 0 595 842" style="enable-background:new 0 0 595 842;" xml:space="preserve">
<g id="Kuvataso_1">
</g>
<g id="_x30_">
</g>
<g id="HATPUN">
</g>
<g id="HATKEL">
</g>
<g id="HAT">
	<g>
		<rect x="126.424" y="225.032" style="fill-rule:evenodd;clip-rule:evenodd;fill:#FFD200;" width="359.712" height="119.88"/>
		<path style="fill:#EF3E42;" d="M467.632,225.176H144.64h-0.072c-5.04,0-9.576,2.016-12.888,5.256
			c-3.384,3.24-5.4,7.776-5.4,12.672l0,0v83.808l0,0c0,4.896,2.016,9.432,5.4,12.672c3.312,3.24,7.848,5.256,12.96,5.256l0,0
			h322.992l0,0c5.04,0,9.648-2.016,12.96-5.256c3.312-3.24,5.4-7.776,5.4-12.672l0,0v-83.808l0,0c0-4.896-2.088-9.432-5.4-12.672
			C477.28,227.192,472.672,225.176,467.632,225.176L467.632,225.176z"/>
		<path style="fill:#FFD200;" d="M468.496,233.6h-324.72h-0.072c-2.592,0-4.968,0.936-6.696,2.448
			c-1.656,1.512-2.736,3.6-2.736,5.904l0,0v86.112l0,0c0,2.304,1.08,4.392,2.736,5.904c1.728,1.512,4.104,2.448,6.696,2.448h0.072
			h324.72l0,0c2.592,0,4.968-0.936,6.696-2.448c1.728-1.512,2.808-3.6,2.808-5.904l0,0v-86.112l0,0c0-2.304-1.08-4.392-2.808-5.904
			C473.464,234.536,471.088,233.6,468.496,233.6L468.496,233.6z"/>
		<g>
			<polygon style="fill-rule:evenodd;clip-rule:evenodd;" points="221.68,250.592 228.736,251.816 234.568,255.776 238.528,261.608 
				239.752,268.664 239.176,276.944 237.664,280.328 235.504,283.424 239.752,289.256 241.336,294.44 241.624,303.08 240.4,310.424 
				236.44,316.544 230.608,320.864 221.68,323.024 216.424,322.376 211.24,319.928 208.504,317.768 204.76,313.52 203.248,310.424 
				202.024,304.88 201.736,298.112 202.6,292.64 204.76,287.744 208.144,283.424 205.12,278.816 203.896,273.272 203.896,266.864 
				205.12,261.608 207.856,257 211.528,253.616 216.424,251.168 			"/>
			<polygon style="fill-rule:evenodd;clip-rule:evenodd;fill:#FFD520;" points="218.584,262.256 220.744,261.608 224.128,261.608 
				226.864,263.48 228.736,266.504 228.736,273.56 226.864,276.656 222.904,278.816 219.52,278.528 216.784,276.656 214.912,273.56 
				214.624,268.664 214.912,266.504 215.848,264.344 			"/>
			<polygon style="fill-rule:evenodd;clip-rule:evenodd;fill:#FFD520;" points="218.008,289.832 223.192,288.968 227.8,291.056 
				229.96,294.152 230.896,298.112 230.608,305.528 227.8,309.848 223.192,311.936 219.232,311.648 215.848,309.848 213.04,305.528 
				212.752,296.6 214.336,293.216 			"/>
			<rect x="271.72" y="281.552" style="fill-rule:evenodd;clip-rule:evenodd;" width="36.144" height="8.928"/>
			<polygon style="fill-rule:evenodd;clip-rule:evenodd;" points="345.664,267.152 337.672,268.376 336.448,261.032 339.472,259.16 
				341.92,256.424 344.08,253.616 345.664,250.232 356.392,250.232 356.392,323.024 345.664,323.024 			"/>
			<polygon style="fill-rule:evenodd;clip-rule:evenodd;" points="392.032,323.024 392.032,312.872 392.608,305.24 393.256,297.824 
				395.056,290.48 397.216,283.136 400.312,276.008 402.76,268.664 404.56,261.32 380.656,261.32 380.656,250.592 414.424,250.592 
				413.776,258.224 412.264,265.928 410.392,273.56 407.944,280.328 406.432,283.712 404.92,290.48 403.336,300.632 403.048,304.88 
				403.048,323.024 			"/>
		</g>
	</g>
</g>
</svg>
