<?xml version="1.0" encoding="UTF-8" standalone="no"?>
<!-- Generator: Adobe Illustrator 15.1.0, SVG Export Plug-In . SVG Version: 6.00 Build 0)  -->

<svg
   xmlns:dc="http://purl.org/dc/elements/1.1/"
   xmlns:cc="http://creativecommons.org/ns#"
   xmlns:rdf="http://www.w3.org/1999/02/22-rdf-syntax-ns#"
   xmlns:svg="http://www.w3.org/2000/svg"
   xmlns="http://www.w3.org/2000/svg"
   xmlns:sodipodi="http://sodipodi.sourceforge.net/DTD/sodipodi-0.dtd"
   xmlns:inkscape="http://www.inkscape.org/namespaces/inkscape"
   version="1.0"
   id="Layer_1"
   x="0px"
   y="0px"
   width="496.06299"
   height="330.60101"
   viewBox="0 0 496.06296 330.60101"
   enable-background="new 0 0 595.28 841.89"
   xml:space="preserve"
   sodipodi:docname="854-2.svg"
   inkscape:version="0.92.5 (2060ec1f9f, 2020-04-08)"><metadata
   id="metadata2785"><rdf:RDF><cc:Work
       rdf:about=""><dc:format>image/svg+xml</dc:format><dc:type
         rdf:resource="http://purl.org/dc/dcmitype/StillImage" /></cc:Work></rdf:RDF></metadata><defs
   id="defs2783" /><sodipodi:namedview
   pagecolor="#ffffff"
   bordercolor="#666666"
   borderopacity="1"
   objecttolerance="10"
   gridtolerance="10"
   guidetolerance="10"
   inkscape:pageopacity="0"
   inkscape:pageshadow="2"
   inkscape:window-width="640"
   inkscape:window-height="480"
   id="namedview2781"
   showgrid="false"
   inkscape:zoom="0.28032165"
   inkscape:cx="248.41002"
   inkscape:cy="166.16299"
   inkscape:window-x="0"
   inkscape:window-y="0"
   inkscape:window-maximized="0"
   inkscape:current-layer="Layer_1" />
<g
   id="LWPOLYLINE_255_"
   transform="translate(-49.23,-256.50699)">
	<rect
   x="49.23"
   y="256.50699"
   width="496.06299"
   height="330.60101"
   id="rect2732"
   style="fill:#ffd200" />
</g>
<g
   id="LWPOLYLINE_257_"
   transform="translate(-49.23,-256.50699)">
	<path
   d="M 520.295,587.108 H 73.985 c -13.692,0 -24.755,-11.043 -24.755,-24.756 V 281.304 c 0,-13.693 11.063,-24.796 24.755,-24.796 h 446.31 c 13.712,0 24.998,11.104 24.998,24.796 v 281.049 c 0,13.712 -11.286,24.755 -24.998,24.755 z"
   id="path2735"
   inkscape:connector-curvature="0"
   style="fill:#ef3e42" />
</g>
<g
   id="LWPOLYLINE_256_"
   transform="translate(-49.23,-256.50699)">
	<path
   d="M 520.295,574.73 H 73.985 c -6.816,0 -12.378,-5.542 -12.378,-12.378 V 281.304 c 0,-6.816 5.562,-12.378 12.378,-12.378 h 446.31 c 6.876,0 12.458,5.562 12.458,12.378 v 281.049 c 0,6.835 -5.582,12.377 -12.458,12.377 z"
   id="path2738"
   inkscape:connector-curvature="0"
   style="fill:#ffd200" />
</g>
<g
   id="LWPOLYLINE_258_"
   transform="translate(-49.23,-256.50699)">
	<path
   d="m 143.135,370.132 c 0,12.58 10.092,22.753 22.632,22.753 12.58,0 22.834,-10.173 22.834,-22.753 v -4.955 c 0,-6.715 -3.115,-13.045 -8.13,-17.353 3.903,-4.167 6.027,-9.627 6.027,-15.331 v -1.658 c 0,-11.407 -9.304,-20.589 -20.731,-20.589 -11.407,0 -20.67,9.182 -20.67,20.589 v 1.658 h 12.378 v -1.658 c 0,-4.53 3.742,-8.211 8.292,-8.211 4.551,0 8.313,3.681 8.313,8.211 v 1.658 c 0,5.542 -4.389,9.931 -9.951,9.931 h -1.638 v 11.589 h 3.276 c 5.704,0 10.437,4.611 10.437,10.375 v 5.744 c 0,5.704 -4.733,10.375 -10.437,10.375 -5.703,0 -10.254,-4.672 -10.254,-10.375 z"
   id="path2741"
   inkscape:connector-curvature="0" />
</g>
<g
   id="LWPOLYLINE_259_"
   transform="translate(-49.23,-256.50699)">
	<path
   d="m 209.13,370.132 c 0,12.58 10.295,22.753 22.834,22.753 12.539,0 22.672,-10.173 22.672,-22.753 v -37.174 c 0,-12.519 -10.133,-22.713 -22.672,-22.713 -12.539,0 -22.834,10.194 -22.834,22.713 z"
   id="path2744"
   inkscape:connector-curvature="0" />
</g>
<g
   id="LWPOLYLINE_261_"
   transform="translate(-49.23,-256.50699)">
	<path
   d="m 311.368,334.354 c -2.629,-2.184 -6.067,-3.519 -9.627,-3.519 -4.915,0.688 -9.769,2.407 -14.057,4.996 v -4.996 h -12.357 v 62.051 h 12.357 v -43.828 c 0,-4.591 3.762,-8.272 8.353,-8.272 4.55,0 8.151,3.681 8.151,8.272 v 43.828 h 12.54 v -43.828 c 0,-4.591 3.579,-8.272 8.13,-8.272 4.591,0 8.354,3.681 8.354,8.272 v 43.828 H 345.59 V 345.62 c -0.486,-7.908 -6.837,-14.259 -14.866,-14.785 -6.655,-0.789 -13.328,0.404 -19.356,3.519 z"
   id="path2747"
   inkscape:connector-curvature="0" />
</g>
<g
   id="LWPOLYLINE_262_"
   transform="translate(-49.23,-256.50699)">
	<rect
   x="360.435"
   y="330.83499"
   width="12.378"
   height="62.050999"
   id="rect2750" />
</g>
<g
   id="LWPOLYLINE_263_"
   transform="translate(-49.23,-256.50699)">
	<rect
   x="360.435"
   y="310.246"
   width="12.378"
   height="12.378"
   id="rect2753" />
</g>
<g
   id="LWPOLYLINE_260_"
   transform="translate(-49.23,-256.50699)">
	<path
   d="m 221.71,370.132 c 0,5.704 4.551,10.375 10.254,10.375 5.703,0 10.254,-4.672 10.254,-10.375 v -37.174 c 0,-5.704 -4.551,-10.335 -10.254,-10.335 -5.703,0 -10.254,4.631 -10.254,10.335 z"
   id="path2756"
   inkscape:connector-curvature="0"
   style="fill:#ffd200" />
</g>
<g
   id="LWPOLYLINE_264_"
   transform="translate(-49.23,-256.50699)">
	<path
   d="m 430.697,346.166 v 46.72 h -12.419 v -43.828 c 0,-4.591 -3.6,-8.272 -8.171,-8.272 -4.53,0 -8.252,3.681 -8.252,8.272 v 43.828 h -12.458 v -62.051 h 12.458 v 4.996 c 4.207,-2.589 8.899,-4.308 13.996,-4.996 8.131,0 14.846,6.715 14.846,15.331 z"
   id="path2759"
   inkscape:connector-curvature="0" />
</g>
<g
   id="LWPOLYLINE_266_"
   transform="translate(-49.23,-256.50699)">
	<path
   d="m 193.476,479.308 c -5.542,5.097 -8.616,12.297 -8.616,19.821 v 6.957 c 0,15.129 12.216,27.345 27.385,27.345 15.007,0 27.223,-12.216 27.223,-27.345 v -6.957 c 0,-7.524 -3.115,-14.725 -8.656,-19.821 3.903,-4.53 6.229,-10.354 6.229,-16.342 v -3.964 c 0,-13.672 -11.104,-24.796 -24.796,-24.796 -13.692,0 -24.796,11.124 -24.796,24.796 v 3.964 c 0,5.987 2.123,11.811 6.027,16.342 z"
   id="path2762"
   inkscape:connector-curvature="0" />
</g>
<g
   id="LWPOLYLINE_268_"
   transform="translate(-49.23,-256.50699)">
	<rect
   x="264.224"
   y="476.396"
   width="32.299"
   height="14.886"
   id="rect2765" />
</g>
<g
   id="LWPOLYLINE_269_"
   transform="translate(-49.23,-256.50699)">
	<path
   d="m 321.299,448.809 c 5.886,-2.993 10.274,-8.333 12.216,-14.603 h 15.027 v 99.225 h -14.865 v -76.37 l -10.922,1.941 z"
   id="path2768"
   inkscape:connector-curvature="0" />
</g>
<g
   id="LWPOLYLINE_265_"
   transform="translate(-49.23,-256.50699)">
	<path
   d="m 199.867,506.086 c 0,6.877 5.501,12.378 12.377,12.378 6.816,0 12.378,-5.501 12.378,-12.378 v -6.957 c 0,-6.796 -5.562,-12.378 -12.378,-12.378 -6.876,0 -12.377,5.582 -12.377,12.378 z"
   id="path2771"
   inkscape:connector-curvature="0"
   style="fill:#ffd200" />
</g>
<g
   id="LWPOLYLINE_270_"
   transform="translate(-49.23,-256.50699)">
	<path
   d="m 370.386,434.206 v 14.845 h 32.927 c -1.618,8.01 -4.126,15.735 -7.362,23.138 -5.986,15.048 -9.142,31.147 -9.142,47.367 v 13.956 h 14.886 v -18.931 c 0,-16.464 3.235,-32.927 9.223,-48.217 3.479,-10.477 5.582,-21.196 6.067,-32.158 z"
   id="path2774"
   inkscape:connector-curvature="0" />
</g>
<g
   id="LWPOLYLINE_267_"
   transform="translate(-49.23,-256.50699)">
	<path
   d="m 202.294,459.002 v 3.964 c 0,5.502 4.409,9.87 9.951,9.87 5.38,0 9.789,-4.368 9.789,-9.87 v -3.964 c 0,-5.501 -4.409,-9.951 -9.789,-9.951 -5.542,0 -9.951,4.45 -9.951,9.951 z"
   id="path2777"
   inkscape:connector-curvature="0"
   style="fill:#ffd200" />
</g>
</svg>