<?xml version="1.0" encoding="utf-8"?>
<!-- Generator: Adobe Illustrator 15.1.0, SVG Export Plug-In . SVG Version: 6.00 Build 0)  -->
<!DOCTYPE svg PUBLIC "-//W3C//DTD SVG 1.0//EN" "http://www.w3.org/TR/2001/REC-SVG-20010904/DTD/svg10.dtd">
<svg version="1.0" id="Layer_1" xmlns="http://www.w3.org/2000/svg" xmlns:xlink="http://www.w3.org/1999/xlink" x="0px" y="0px"
	 width="595.28px" height="841.89px" viewBox="0 0 595.28 841.89" enable-background="new 0 0 595.28 841.89" xml:space="preserve">
<g id="LWPOLYLINE_255_">
	<rect x="49.23" y="256.507" fill="#FFD200" width="496.063" height="330.601"/>
</g>
<g id="LWPOLYLINE_257_">
	<path fill="#EF3E42" d="M520.295,587.108H73.985c-13.692,0-24.755-11.043-24.755-24.756V281.304
		c0-13.693,11.063-24.796,24.755-24.796h446.31c13.712,0,24.998,11.104,24.998,24.796v281.049
		C545.293,576.065,534.007,587.108,520.295,587.108z"/>
</g>
<g id="LWPOLYLINE_256_">
	<path fill="#FFD200" d="M520.295,574.73H73.985c-6.816,0-12.378-5.542-12.378-12.378V281.304c0-6.816,5.562-12.378,12.378-12.378
		h446.31c6.876,0,12.458,5.562,12.458,12.378v281.049C532.753,569.188,527.171,574.73,520.295,574.73z"/>
</g>
<g id="LWPOLYLINE_258_">
	<path d="M143.135,370.132c0,12.58,10.092,22.753,22.632,22.753c12.58,0,22.834-10.173,22.834-22.753v-4.955
		c0-6.715-3.115-13.045-8.13-17.353c3.903-4.167,6.027-9.627,6.027-15.331v-1.658c0-11.407-9.304-20.589-20.731-20.589
		c-11.407,0-20.67,9.182-20.67,20.589v1.658h12.378v-1.658c0-4.53,3.742-8.211,8.292-8.211c4.551,0,8.313,3.681,8.313,8.211v1.658
		c0,5.542-4.389,9.931-9.951,9.931h-1.638v11.589h3.276c5.704,0,10.437,4.611,10.437,10.375v5.744
		c0,5.704-4.733,10.375-10.437,10.375c-5.703,0-10.254-4.672-10.254-10.375H143.135z"/>
</g>
<g id="LWPOLYLINE_259_">
	<path d="M209.13,370.132c0,12.58,10.295,22.753,22.834,22.753s22.672-10.173,22.672-22.753v-37.174
		c0-12.519-10.133-22.713-22.672-22.713s-22.834,10.194-22.834,22.713V370.132z"/>
</g>
<g id="LWPOLYLINE_261_">
	<path d="M311.368,334.354c-2.629-2.184-6.067-3.519-9.627-3.519c-4.915,0.688-9.769,2.407-14.057,4.996v-4.996h-12.357v62.051
		h12.357v-43.828c0-4.591,3.762-8.272,8.353-8.272c4.55,0,8.151,3.681,8.151,8.272v43.828h12.54v-43.828
		c0-4.591,3.579-8.272,8.13-8.272c4.591,0,8.354,3.681,8.354,8.272v43.828h12.378V345.62c-0.486-7.908-6.837-14.259-14.866-14.785
		C324.069,330.046,317.396,331.239,311.368,334.354z"/>
</g>
<g id="LWPOLYLINE_262_">
	<rect x="360.435" y="330.835" width="12.378" height="62.051"/>
</g>
<g id="LWPOLYLINE_263_">
	<rect x="360.435" y="310.246" width="12.378" height="12.378"/>
</g>
<g id="LWPOLYLINE_260_">
	<path fill="#FFD200" d="M221.71,370.132c0,5.704,4.551,10.375,10.254,10.375s10.254-4.672,10.254-10.375v-37.174
		c0-5.704-4.551-10.335-10.254-10.335s-10.254,4.631-10.254,10.335V370.132z"/>
</g>
<g id="LWPOLYLINE_264_">
	<path d="M430.697,346.166v46.72h-12.419v-43.828c0-4.591-3.6-8.272-8.171-8.272c-4.53,0-8.252,3.681-8.252,8.272v43.828h-12.458
		v-62.051h12.458v4.996c4.207-2.589,8.899-4.308,13.996-4.996C423.982,330.835,430.697,337.55,430.697,346.166z"/>
</g>
<g id="LWPOLYLINE_266_">
	<path d="M193.476,479.308c-5.542,5.097-8.616,12.297-8.616,19.821v6.957c0,15.129,12.216,27.345,27.385,27.345
		c15.007,0,27.223-12.216,27.223-27.345v-6.957c0-7.524-3.115-14.725-8.656-19.821c3.903-4.53,6.229-10.354,6.229-16.342v-3.964
		c0-13.672-11.104-24.796-24.796-24.796s-24.796,11.124-24.796,24.796v3.964C187.449,468.953,189.572,474.777,193.476,479.308z"/>
</g>
<g id="LWPOLYLINE_268_">
	<rect x="264.224" y="476.396" width="32.299" height="14.886"/>
</g>
<g id="LWPOLYLINE_269_">
	<path d="M321.299,448.809c5.886-2.993,10.274-8.333,12.216-14.603h15.027v99.225h-14.865v-76.37l-10.922,1.941L321.299,448.809z"/>
</g>
<g id="LWPOLYLINE_265_">
	<path fill="#FFD200" d="M199.867,506.086c0,6.877,5.501,12.378,12.377,12.378c6.816,0,12.378-5.501,12.378-12.378v-6.957
		c0-6.796-5.562-12.378-12.378-12.378c-6.876,0-12.377,5.582-12.377,12.378V506.086z"/>
</g>
<g id="LWPOLYLINE_270_">
	<path d="M370.386,434.206v14.845h32.927c-1.618,8.01-4.126,15.735-7.362,23.138c-5.986,15.048-9.142,31.147-9.142,47.367v13.956
		h14.886v-18.931c0-16.464,3.235-32.927,9.223-48.217c3.479-10.477,5.582-21.196,6.067-32.158H370.386z"/>
</g>
<g id="LWPOLYLINE_267_">
	<path fill="#FFD200" d="M202.294,459.002v3.964c0,5.502,4.409,9.87,9.951,9.87c5.38,0,9.789-4.368,9.789-9.87v-3.964
		c0-5.501-4.409-9.951-9.789-9.951C206.703,449.051,202.294,453.501,202.294,459.002z"/>
</g>
</svg>
