<?xml version="1.0" encoding="iso-8859-1"?>
<!-- Generator: Adobe Illustrator 15.1.0, SVG Export Plug-In . SVG Version: 6.00 Build 0)  -->
<!DOCTYPE svg PUBLIC "-//W3C//DTD SVG 1.1//EN" "http://www.w3.org/Graphics/SVG/1.1/DTD/svg11.dtd">
<svg version="1.1" xmlns="http://www.w3.org/2000/svg" xmlns:xlink="http://www.w3.org/1999/xlink" x="0px" y="0px" width="595px"
	 height="842px" viewBox="0 0 595 842" style="enable-background:new 0 0 595 842;" xml:space="preserve">
<g id="Kuvataso_1">
</g>
<g id="_x30_">
</g>
<g id="HATPUN">
</g>
<g id="HATKEL">
</g>
<g id="HAT">
	<g>
		<rect x="126.424" y="189.032" style="fill-rule:evenodd;clip-rule:evenodd;fill:#FFD200;" width="359.712" height="119.88"/>
		<path style="fill:#EF3E42;" d="M467.632,189.176H144.64h-0.072c-5.04,0-9.576,2.016-12.888,5.256
			c-3.384,3.24-5.4,7.776-5.4,12.672l0,0v83.808l0,0c0,4.896,2.016,9.432,5.4,12.672c3.312,3.24,7.848,5.256,12.96,5.256l0,0
			h322.992l0,0c5.04,0,9.648-2.016,12.96-5.256s5.4-7.776,5.4-12.672l0,0v-83.808l0,0c0-4.896-2.088-9.432-5.4-12.672
			C477.28,191.192,472.672,189.176,467.632,189.176L467.632,189.176z"/>
		<path style="fill:#FFD200;" d="M468.496,197.6h-324.72h-0.072c-2.592,0-4.968,0.936-6.696,2.448
			c-1.656,1.512-2.736,3.6-2.736,5.904l0,0v86.112l0,0c0,2.304,1.08,4.392,2.736,5.904c1.728,1.512,4.104,2.448,6.696,2.448h0.072
			h324.72l0,0c2.592,0,4.968-0.936,6.696-2.448c1.728-1.512,2.808-3.6,2.808-5.904l0,0v-86.112l0,0c0-2.304-1.08-4.392-2.808-5.904
			C473.464,198.536,471.088,197.6,468.496,197.6L468.496,197.6z"/>
		<g>
			<polygon style="fill-rule:evenodd;clip-rule:evenodd;" points="200.872,234.896 192.016,234.896 192.664,230 194.752,226.04 
				198.136,222.656 200.872,221.144 203.968,219.92 208.504,219.92 213.112,221.144 217.072,223.592 220.096,227.264 221.32,230 
				221.968,234.896 221.968,237.056 221.32,241.592 220.096,244.688 218.296,247.136 220.456,249.512 222.904,254.12 
				223.48,259.016 223.48,265.136 222.256,270.032 219.232,274.28 216.784,276.728 212.176,279.176 206.992,279.752 
				201.808,279.176 197.2,276.728 194.752,274.28 192.016,270.032 190.504,263.264 199.648,263.264 200.296,266.648 
				202.744,269.384 205.768,270.608 209.44,270.608 212.176,268.808 214.336,265.712 214.624,258.08 213.688,255.632 
				212.176,253.832 210.376,252.32 208.216,251.672 204.544,251.672 204.544,243.104 208.216,243.104 210.016,242.528 
				212.824,239.144 213.112,233.672 211.6,230.936 210.016,229.712 206.056,228.776 203.032,230.288 201.808,231.872 			"/>
			<polygon style="fill-rule:evenodd;clip-rule:evenodd;" points="314.056,279.464 304.912,279.464 304.912,234.248 
				314.056,234.248 314.056,236.696 319.24,234.896 323.56,234.248 327.808,235.184 331.48,237.344 336.952,235.184 
				342.784,234.248 347.392,234.608 352.216,237.344 355.024,240.368 356.176,245.912 356.176,279.464 347.032,279.464 
				347.032,247.712 346.456,244.688 344.008,242.528 342.136,241.592 339.112,241.88 336.664,243.752 335.152,246.488 
				335.152,279.464 326.008,279.464 326.008,247.712 325.36,244.688 323.848,243.104 322.048,241.88 318.016,241.88 
				316.216,243.104 314.056,246.488 			"/>
			<rect x="366.616" y="234.248" style="fill-rule:evenodd;clip-rule:evenodd;" width="8.856" height="45.216"/>
			<rect x="366.616" y="219.344" style="fill-rule:evenodd;clip-rule:evenodd;" width="8.856" height="9.145"/>
			<polygon style="fill-rule:evenodd;clip-rule:evenodd;" points="396.496,279.464 387.64,279.464 387.64,234.248 396.496,234.248 
				396.496,236.696 401.968,234.896 407.512,234.608 411.472,235.832 414.856,238.28 416.944,241.88 417.592,245.912 
				417.592,279.464 408.448,279.464 408.448,247.712 408.088,245.552 406.576,243.104 403.552,241.592 401.68,241.592 
				398.656,243.104 396.784,245.552 396.496,247.712 			"/>
			<path style="fill-rule:evenodd;clip-rule:evenodd;" d="M255.664,219.632h0.144l3.384,0.288l4.896,2.16l3.96,3.024l2.736,4.32
				l1.512,5.184v28.656l-0.288,3.384l-1.224,3.384l-2.736,4.248l-2.448,2.448l-4.536,2.448l-5.256,0.576h-0.144v-9.144h2.304
				l3.96-2.736l1.224-3.384v-29.304l-0.288-1.224l-2.736-3.672l-3.096-1.512l-1.368,0.144V219.632z M252.496,219.92l3.168-0.288
				v9.288l-2.232,0.144l-3.672,2.808l-1.584,3.312v29.304l0.936,2.16l2.16,2.736l3.384,1.224h1.008v9.144l-5.04-0.576l-4.536-2.448
				l-3.672-3.672l-2.448-4.608l-0.576-3.313v-30.528l1.152-5.184l3.096-4.32l3.96-3.024L252.496,219.92z"/>
		</g>
	</g>
</g>
</svg>
