<?xml version="1.0" encoding="UTF-8" standalone="no"?>
<!-- Generator: Adobe Illustrator 15.1.0, SVG Export Plug-In . SVG Version: 6.00 Build 0)  -->

<svg
   xmlns:dc="http://purl.org/dc/elements/1.1/"
   xmlns:cc="http://creativecommons.org/ns#"
   xmlns:rdf="http://www.w3.org/1999/02/22-rdf-syntax-ns#"
   xmlns:svg="http://www.w3.org/2000/svg"
   xmlns="http://www.w3.org/2000/svg"
   xmlns:sodipodi="http://sodipodi.sourceforge.net/DTD/sodipodi-0.dtd"
   xmlns:inkscape="http://www.inkscape.org/namespaces/inkscape"
   version="1.1"
   x="0px"
   y="0px"
   width="359.85602"
   height="119.88"
   viewBox="0 0 359.85602 119.88"
   xml:space="preserve"
   id="svg2814"
   sodipodi:docname="854.svg"
   inkscape:version="0.92.5 (2060ec1f9f, 2020-04-08)"><metadata
   id="metadata2820"><rdf:RDF><cc:Work
       rdf:about=""><dc:format>image/svg+xml</dc:format><dc:type
         rdf:resource="http://purl.org/dc/dcmitype/StillImage" /></cc:Work></rdf:RDF></metadata><defs
   id="defs2818" /><sodipodi:namedview
   pagecolor="#ffffff"
   bordercolor="#666666"
   borderopacity="1"
   objecttolerance="10"
   gridtolerance="10"
   guidetolerance="10"
   inkscape:pageopacity="0"
   inkscape:pageshadow="2"
   inkscape:window-width="640"
   inkscape:window-height="480"
   id="namedview2816"
   showgrid="false"
   inkscape:zoom="0.28028504"
   inkscape:cx="171.22"
   inkscape:cy="-112.08801"
   inkscape:window-x="0"
   inkscape:window-y="0"
   inkscape:window-maximized="0"
   inkscape:current-layer="svg2814" />
<g
   id="Kuvataso_1"
   transform="translate(-126.28,-189.032)">
</g>
<g
   id="_x30_"
   transform="translate(-126.28,-189.032)">
</g>
<g
   id="HATPUN"
   transform="translate(-126.28,-189.032)">
</g>
<g
   id="HATKEL"
   transform="translate(-126.28,-189.032)">
</g>
<g
   id="HAT"
   transform="translate(-126.28,-189.032)">
	<g
   id="g2811">
		<rect
   x="126.424"
   y="189.032"
   style="clip-rule:evenodd;fill:#ffd200;fill-rule:evenodd"
   width="359.71201"
   height="119.88"
   id="rect2791" />
		<path
   style="fill:#ef3e42"
   d="M 467.632,189.176 H 144.64 144.568 c -5.04,0 -9.576,2.016 -12.888,5.256 -3.384,3.24 -5.4,7.776 -5.4,12.672 v 0 83.808 0 c 0,4.896 2.016,9.432 5.4,12.672 3.312,3.24 7.848,5.256 12.96,5.256 v 0 h 322.992 v 0 c 5.04,0 9.648,-2.016 12.96,-5.256 3.312,-3.24 5.4,-7.776 5.4,-12.672 v 0 -83.808 0 c 0,-4.896 -2.088,-9.432 -5.4,-12.672 -3.312,-3.24 -7.92,-5.256 -12.96,-5.256 z"
   id="path2793"
   inkscape:connector-curvature="0" />
		<path
   style="fill:#ffd200"
   d="m 468.496,197.6 h -324.72 -0.072 c -2.592,0 -4.968,0.936 -6.696,2.448 -1.656,1.512 -2.736,3.6 -2.736,5.904 v 0 86.112 0 c 0,2.304 1.08,4.392 2.736,5.904 1.728,1.512 4.104,2.448 6.696,2.448 h 0.072 324.72 v 0 c 2.592,0 4.968,-0.936 6.696,-2.448 1.728,-1.512 2.808,-3.6 2.808,-5.904 v 0 -86.112 0 c 0,-2.304 -1.08,-4.392 -2.808,-5.904 -1.728,-1.512 -4.104,-2.448 -6.696,-2.448 z"
   id="path2795"
   inkscape:connector-curvature="0" />
		<g
   id="g2809">
			<polygon
   style="clip-rule:evenodd;fill-rule:evenodd"
   points="192.664,230 194.752,226.04 198.136,222.656 200.872,221.144 203.968,219.92 208.504,219.92 213.112,221.144 217.072,223.592 220.096,227.264 221.32,230 221.968,234.896 221.968,237.056 221.32,241.592 220.096,244.688 218.296,247.136 220.456,249.512 222.904,254.12 223.48,259.016 223.48,265.136 222.256,270.032 219.232,274.28 216.784,276.728 212.176,279.176 206.992,279.752 201.808,279.176 197.2,276.728 194.752,274.28 192.016,270.032 190.504,263.264 199.648,263.264 200.296,266.648 202.744,269.384 205.768,270.608 209.44,270.608 212.176,268.808 214.336,265.712 214.624,258.08 213.688,255.632 212.176,253.832 210.376,252.32 208.216,251.672 204.544,251.672 204.544,243.104 208.216,243.104 210.016,242.528 212.824,239.144 213.112,233.672 211.6,230.936 210.016,229.712 206.056,228.776 203.032,230.288 201.808,231.872 200.872,234.896 192.016,234.896 "
   id="polygon2797" />
			<polygon
   style="clip-rule:evenodd;fill-rule:evenodd"
   points="304.912,234.248 314.056,234.248 314.056,236.696 319.24,234.896 323.56,234.248 327.808,235.184 331.48,237.344 336.952,235.184 342.784,234.248 347.392,234.608 352.216,237.344 355.024,240.368 356.176,245.912 356.176,279.464 347.032,279.464 347.032,247.712 346.456,244.688 344.008,242.528 342.136,241.592 339.112,241.88 336.664,243.752 335.152,246.488 335.152,279.464 326.008,279.464 326.008,247.712 325.36,244.688 323.848,243.104 322.048,241.88 318.016,241.88 316.216,243.104 314.056,246.488 314.056,279.464 304.912,279.464 "
   id="polygon2799" />
			<rect
   x="366.616"
   y="234.248"
   style="clip-rule:evenodd;fill-rule:evenodd"
   width="8.8559999"
   height="45.216"
   id="rect2801" />
			<rect
   x="366.616"
   y="219.34399"
   style="clip-rule:evenodd;fill-rule:evenodd"
   width="8.8559999"
   height="9.1450005"
   id="rect2803" />
			<polygon
   style="clip-rule:evenodd;fill-rule:evenodd"
   points="387.64,234.248 396.496,234.248 396.496,236.696 401.968,234.896 407.512,234.608 411.472,235.832 414.856,238.28 416.944,241.88 417.592,245.912 417.592,279.464 408.448,279.464 408.448,247.712 408.088,245.552 406.576,243.104 403.552,241.592 401.68,241.592 398.656,243.104 396.784,245.552 396.496,247.712 396.496,279.464 387.64,279.464 "
   id="polygon2805" />
			<path
   style="clip-rule:evenodd;fill-rule:evenodd"
   d="m 255.664,219.632 h 0.144 l 3.384,0.288 4.896,2.16 3.96,3.024 2.736,4.32 1.512,5.184 v 28.656 l -0.288,3.384 -1.224,3.384 -2.736,4.248 -2.448,2.448 -4.536,2.448 -5.256,0.576 h -0.144 v -9.144 h 2.304 l 3.96,-2.736 1.224,-3.384 v -29.304 l -0.288,-1.224 -2.736,-3.672 -3.096,-1.512 -1.368,0.144 z m -3.168,0.288 3.168,-0.288 v 9.288 l -2.232,0.144 -3.672,2.808 -1.584,3.312 v 29.304 l 0.936,2.16 2.16,2.736 3.384,1.224 h 1.008 v 9.144 l -5.04,-0.576 -4.536,-2.448 -3.672,-3.672 -2.448,-4.608 -0.576,-3.313 v -30.528 l 1.152,-5.184 3.096,-4.32 3.96,-3.024 z"
   id="path2807"
   inkscape:connector-curvature="0" />
		</g>
	</g>
</g>
</svg>