<?xml version="1.0" encoding="UTF-8" standalone="no"?>
<!-- Generator: Adobe Illustrator 15.1.0, SVG Export Plug-In . SVG Version: 6.00 Build 0)  -->

<svg
   xmlns:dc="http://purl.org/dc/elements/1.1/"
   xmlns:cc="http://creativecommons.org/ns#"
   xmlns:rdf="http://www.w3.org/1999/02/22-rdf-syntax-ns#"
   xmlns:svg="http://www.w3.org/2000/svg"
   xmlns="http://www.w3.org/2000/svg"
   xmlns:sodipodi="http://sodipodi.sourceforge.net/DTD/sodipodi-0.dtd"
   xmlns:inkscape="http://www.inkscape.org/namespaces/inkscape"
   version="1.1"
   x="0px"
   y="0px"
   width="362.29999"
   height="194.036"
   viewBox="0 0 362.29999 194.036"
   xml:space="preserve"
   id="svg2922"
   sodipodi:docname="855b.svg"
   inkscape:version="0.92.5 (2060ec1f9f, 2020-04-08)"><metadata
   id="metadata2928"><rdf:RDF><cc:Work
       rdf:about=""><dc:format>image/svg+xml</dc:format><dc:type
         rdf:resource="http://purl.org/dc/dcmitype/StillImage" /></cc:Work></rdf:RDF></metadata><defs
   id="defs2926" /><sodipodi:namedview
   pagecolor="#ffffff"
   bordercolor="#666666"
   borderopacity="1"
   objecttolerance="10"
   gridtolerance="10"
   guidetolerance="10"
   inkscape:pageopacity="0"
   inkscape:pageshadow="2"
   inkscape:window-width="640"
   inkscape:window-height="480"
   id="namedview2924"
   showgrid="false"
   inkscape:zoom="0.28028504"
   inkscape:cx="177.086"
   inkscape:cy="-53.518005"
   inkscape:window-x="0"
   inkscape:window-y="0"
   inkscape:window-maximized="0"
   inkscape:current-layer="svg2922" />
<g
   id="Kuvataso_1"
   transform="translate(-120.414,-173.446)">
</g>
<g
   id="_x30_"
   transform="translate(-120.414,-173.446)">
</g>
<g
   id="HATPUN"
   transform="translate(-120.414,-173.446)">
</g>
<g
   id="HATKEL"
   transform="translate(-120.414,-173.446)">
</g>
<g
   id="HAT"
   transform="translate(-120.414,-173.446)">
	<g
   id="g2919">
		
			<rect
   x="120.664"
   y="173.696"
   style="clip-rule:evenodd;fill:#0079c1;fill-rule:evenodd;stroke:#0079c1;stroke-width:0.5;stroke-miterlimit:10"
   width="361.79999"
   height="193.536"
   id="rect2881" />
		<path
   style="clip-rule:evenodd;fill:#ffffff;fill-rule:evenodd"
   d="M 464.392,174.056 H 301.24 v 8.28 h 162 c 6.048,0 11.016,4.752 11.016,10.512 v 154.944 c 0,5.76 -4.968,10.44 -11.016,10.44 h -162 v 8.64 h 163.152 c 9.792,0 17.712,-8.064 17.712,-17.856 V 191.912 c 0,-9.792 -7.92,-17.856 -17.712,-17.856 z m -163.152,0 H 138.52 c -9.792,0 -17.784,8.064 -17.784,17.856 v 157.104 c 0,9.792 7.992,17.856 17.784,17.856 h 162.72 v -8.64 H 139.312 c -6.048,0 -10.944,-4.68 -10.944,-10.44 V 192.848 c 0,-5.76 4.896,-10.512 10.944,-10.512 H 301.24 Z"
   id="path2883"
   inkscape:connector-curvature="0" />
		<polygon
   style="clip-rule:evenodd;fill:#ffffff;fill-rule:evenodd"
   points="162.424,203.36 234.856,203.36 240.976,263.768 228.664,336.128 168.544,336.128 156.232,263.768 "
   id="polygon2885" />
		<polygon
   style="clip-rule:evenodd;fill:#0079c1;fill-rule:evenodd"
   points="224.056,215.384 228.664,263.768 216.64,263.768 216.064,258.512 212.608,252.032 208.648,248.648 204.04,246.2 196.912,245.552 190.144,247.712 184.6,252.032 181.792,256.64 180.568,263.768 168.544,263.768 173.224,215.384 "
   id="polygon2887" />
		<polygon
   style="clip-rule:evenodd;fill:#0079c1;fill-rule:evenodd"
   points="192.592,256.64 194.752,255.416 197.2,254.48 201.232,254.768 204.616,256.64 206.2,258.8 207.712,262.184 207.712,263.768 189.496,263.768 190.432,259.736 "
   id="polygon2889" />
		<polygon
   style="clip-rule:evenodd;fill:#ffffff;fill-rule:evenodd"
   points="302.248,210.632 305.992,212.792 309.376,217.76 309.952,222.008 309.664,226.688 307.792,230.648 307.216,231.872 309.664,235.616 311.176,239.936 311.176,244.832 310.6,249.152 307.216,254.408 303.832,256.856 298,258.08 293.68,257.504 288.784,254.408 286.336,250.736 284.752,246.416 285.04,239.936 286.336,235.616 287.848,232.808 289.072,231.872 286.912,228.2 285.976,222.008 286.912,217.76 289.072,214.016 292.456,211.28 295.264,210.344 298,210.056 "
   id="polygon2891" />
		<polygon
   style="clip-rule:evenodd;fill:#0079c1;fill-rule:evenodd"
   points="298.864,217.112 300.736,218.048 302.536,220.208 302.896,223.88 302.536,225.752 300.736,227.912 298,228.848 295.264,227.912 294.04,226.688 293.392,223.88 293.392,222.008 294.04,219.272 296.2,217.4 "
   id="polygon2893" />
		<polygon
   style="clip-rule:evenodd;fill:#0079c1;fill-rule:evenodd"
   points="296.2,235.904 297.064,235.616 298.864,235.616 300.088,235.904 301.96,236.84 303.184,238.352 303.832,241.448 303.832,246.056 302.536,248.864 301.024,250.088 298.864,251.024 297.064,251.024 295.264,250.088 293.392,248.864 292.456,246.992 292.168,241.448 292.456,239.576 293.392,237.776 295.264,236.192 "
   id="polygon2895" />
		<polygon
   style="clip-rule:evenodd;fill:#ffffff;fill-rule:evenodd"
   points="302.248,283.712 305.992,285.872 309.376,290.768 309.952,295.088 309.664,299.696 307.792,303.728 307.216,304.952 309.664,308.624 311.176,312.944 311.176,317.912 310.6,322.232 307.216,327.416 303.832,329.936 298,331.16 293.68,330.512 288.784,327.416 286.336,323.744 284.752,319.424 285.04,312.944 286.336,308.624 287.848,305.888 289.072,304.952 286.912,301.28 285.976,295.088 286.912,290.768 289.072,287.096 292.456,284.288 295.264,283.352 298,283.064 "
   id="polygon2897" />
		<polygon
   style="clip-rule:evenodd;fill:#0079c1;fill-rule:evenodd"
   points="298.864,290.192 300.736,291.056 302.536,293.216 302.896,296.96 302.536,298.76 300.736,300.92 298,301.856 295.264,300.92 294.04,299.696 293.392,296.96 293.392,295.088 294.04,292.28 296.2,290.48 "
   id="polygon2899" />
		<polygon
   style="clip-rule:evenodd;fill:#0079c1;fill-rule:evenodd"
   points="296.2,308.984 297.064,308.624 298.864,308.624 300.088,308.984 301.96,309.848 303.184,311.432 303.832,314.528 303.832,319.136 302.536,321.872 301.024,323.168 298.864,324.032 297.064,324.032 295.264,323.168 293.392,321.872 292.456,320.072 292.168,314.528 292.456,312.656 293.392,310.784 295.264,309.272 "
   id="polygon2901" />
		<rect
   x="331.26401"
   y="230.64799"
   style="clip-rule:evenodd;fill:#ffffff;fill-rule:evenodd"
   width="23.976"
   height="5.9039998"
   id="rect2903" />
		<polygon
   style="clip-rule:evenodd;fill:#ffffff;fill-rule:evenodd"
   points="387.64,209.696 380.224,209.696 379.288,212.216 377.776,214.304 375.616,216.176 374.392,216.824 374.968,221.72 380.512,220.784 380.512,258.08 387.64,258.08 "
   id="polygon2905" />
		<rect
   x="331.26401"
   y="303.07999"
   style="clip-rule:evenodd;fill:#ffffff;fill-rule:evenodd"
   width="23.976"
   height="5.9039998"
   id="rect2907" />
		<polygon
   style="clip-rule:evenodd;fill:#ffffff;fill-rule:evenodd"
   points="387.64,282.416 380.224,282.416 379.288,284.936 377.776,287.096 375.616,288.608 374.392,289.256 374.968,294.44 380.512,293.576 380.512,330.512 387.64,330.512 "
   id="polygon2909" />
		<polygon
   style="clip-rule:evenodd;fill:#ffffff;fill-rule:evenodd"
   points="441.28,328.712 443.44,323.168 444.952,317.264 445.888,311.432 445.888,302.504 444.952,296.312 443.44,289.544 441.28,284.936 438.472,279.68 435.376,279.68 437.248,287.384 438.76,295.088 439.696,301.856 439.408,306.824 439.12,314.528 438.184,322.52 436.312,330.224 435.376,333.896 438.472,333.896 "
   id="polygon2911" />
		<polygon
   style="clip-rule:evenodd;fill:#ffffff;fill-rule:evenodd"
   points="426.448,210.056 425.872,215.888 424.648,222.008 422.776,227.912 420.904,231.872 419.392,238.712 418.744,245.48 418.744,248.864 418.744,258.08 411.328,258.08 411.688,246.992 412.912,238.064 414.784,231.584 417.232,226.04 419.032,220.208 419.68,217.112 403.624,217.112 403.624,210.056 "
   id="polygon2913" />
		<polygon
   style="clip-rule:evenodd;fill:#ffffff;fill-rule:evenodd"
   points="409.528,307.112 412.624,306.176 415.648,307.112 417.808,309.272 418.744,312.368 418.744,318.488 417.808,320.648 415.648,322.808 412.624,323.744 410.752,323.168 407.944,321.584 407.08,319.712 406.72,317.552 399.376,317.552 399.664,320.648 401.464,324.68 404.56,328.064 408.304,330.224 412.624,330.872 417.232,330.224 419.68,329 424,324.68 425.512,320.648 425.512,309.56 424.648,306.464 422.128,303.08 418.744,300.344 416.008,299.408 413.2,299.12 410.104,299.408 407.368,299.984 408.304,289.832 421.552,289.832 421.192,282.776 401.824,282.776 399.376,306.824 407.944,308.624 "
   id="polygon2915" />
		<polygon
   style="clip-rule:evenodd;fill:#ffffff;fill-rule:evenodd"
   points="267.328,328.712 265.168,323.168 263.584,317.264 262.648,311.432 262.648,302.504 263.584,296.312 265.168,289.544 267.328,284.936 270.064,279.68 273.16,279.68 271.288,287.384 269.776,295.088 268.84,301.856 269.128,306.824 269.488,314.528 270.352,322.52 272.224,330.224 273.16,333.896 270.064,333.896 "
   id="polygon2917" />
	</g>
</g>
</svg>