<?xml version="1.0" encoding="iso-8859-1"?>
<!-- Generator: Adobe Illustrator 15.1.0, SVG Export Plug-In . SVG Version: 6.00 Build 0)  -->
<!DOCTYPE svg PUBLIC "-//W3C//DTD SVG 1.1//EN" "http://www.w3.org/Graphics/SVG/1.1/DTD/svg11.dtd">
<svg version="1.1" xmlns="http://www.w3.org/2000/svg" xmlns:xlink="http://www.w3.org/1999/xlink" x="0px" y="0px" width="595px"
	 height="842px" viewBox="0 0 595 842" style="enable-background:new 0 0 595 842;" xml:space="preserve">
<g id="Kuvataso_1">
</g>
<g id="HATSIN">
	<g>
		<path style="fill:#0079C1;" d="M468.496,312.8h-324.72h-0.072c-2.592,0-4.968,0.936-6.696,2.448
			c-1.656,1.512-2.736,3.6-2.736,5.904l0,0v86.112l0,0c0,2.304,1.08,4.392,2.736,5.904c1.728,1.512,4.104,2.448,6.696,2.448h0.072
			h324.72l0,0c2.592,0,4.968-0.936,6.696-2.448c1.728-1.512,2.808-3.6,2.808-5.904l0,0v-86.112l0,0c0-2.304-1.08-4.392-2.808-5.904
			C473.464,313.736,471.088,312.8,468.496,312.8L468.496,312.8z"/>
		<g>
			<path style="fill-rule:evenodd;clip-rule:evenodd;fill:#0079C1;" d="M306.064,424.04h180.072V304.232H306.064v0.144h161.568l0,0
				c5.04,0,9.648,2.016,12.96,5.256c3.312,3.24,5.4,7.776,5.4,12.672l0,0v83.808l0,0c0,4.896-2.088,9.432-5.4,12.672
				c-3.312,3.168-7.92,5.184-12.96,5.184l0,0H306.064V424.04z M125.992,424.04h180.072v-0.072H144.64l0,0
				c-5.112,0-9.648-2.016-12.96-5.184c-3.384-3.24-5.4-7.776-5.4-12.672l0,0v-83.808l0,0c0-4.896,2.016-9.432,5.4-12.672
				c3.312-3.24,7.848-5.256,12.888-5.256h0.072h161.424v-0.144H125.992V424.04z"/>
			<path style="fill-rule:evenodd;clip-rule:evenodd;fill:none;stroke:#0079C1;stroke-width:0.4989;stroke-miterlimit:10;" d="
				M125.992,424.04h360.144V304.232H125.992V424.04L125.992,424.04z M467.632,304.376H144.64h-0.072
				c-5.04,0-9.576,2.016-12.888,5.256c-3.384,3.24-5.4,7.776-5.4,12.672l0,0v83.808l0,0c0,4.896,2.016,9.432,5.4,12.672
				c3.312,3.168,7.848,5.184,12.96,5.184l0,0h322.992l0,0c5.04,0,9.648-2.016,12.96-5.184c3.312-3.24,5.4-7.776,5.4-12.672l0,0
				v-83.808l0,0c0-4.896-2.088-9.432-5.4-12.672C477.28,306.392,472.672,304.376,467.632,304.376L467.632,304.376z"/>
		</g>
		<g>
			<polygon style="fill-rule:evenodd;clip-rule:evenodd;fill:#FFFFFF;" points="250.192,349.664 241.048,349.664 241.984,345.128 
				244.144,340.88 247.456,337.496 250.192,335.984 252.928,335.048 257.752,334.76 262.288,335.984 266.248,338.432 
				268.984,342.032 270.208,345.128 271.144,349.664 271.144,352.04 270.208,356.648 268.984,359.384 267.472,361.76 
				269.632,364.208 271.72,368.744 272.656,373.928 272.656,379.688 271.144,384.872 268.408,389.12 265.672,391.208 
				261.136,393.656 256.24,394.592 251.128,393.656 246.52,391.208 243.784,389.12 241.048,384.872 239.896,378.176 248.68,378.176 
				249.544,381.488 251.704,383.936 255.016,385.448 258.4,385.16 261.424,383.36 263.224,380.264 263.512,372.704 262.936,370.616 
				261.424,368.456 259.624,367.232 257.176,366.368 253.792,366.368 253.792,357.872 257.176,357.872 258.976,357.224 
				261.712,354.2 262,348.44 260.776,345.704 258.976,344.48 255.016,343.904 252.28,345.128 251.128,346.64 			"/>
			<polygon style="fill-rule:evenodd;clip-rule:evenodd;fill:#FFFFFF;" points="301.096,335.048 304.408,334.76 308.08,335.048 
				312.616,336.92 316.576,340.232 319.6,344.48 320.824,349.376 320.824,378.176 320.536,381.488 319.6,384.872 316.576,389.12 
				314.128,391.208 309.592,393.656 304.408,394.592 299.296,393.656 294.76,391.208 291.16,387.608 289,383 288.136,379.688 
				288.136,349.376 289.648,344.48 292.384,340.232 296.344,336.92 			"/>
			<polygon style="fill-rule:evenodd;clip-rule:evenodd;fill:#0079C1;" points="302.32,344.192 305.632,343.904 309.016,345.128 
				311.68,348.728 312.04,349.952 312.04,379.112 310.528,382.424 306.856,385.16 303.184,385.448 300.16,383.936 297.856,381.488 
				297.208,379.112 297.208,349.952 298.432,346.64 			"/>
			<polygon style="fill-rule:evenodd;clip-rule:evenodd;fill:#FFFFFF;" points="354.232,393.944 345.088,393.944 345.088,349.376 
				354.232,349.376 354.232,351.464 359.344,349.664 363.592,349.376 367.84,349.952 371.512,352.4 376.984,349.952 
				382.744,349.376 387.28,349.664 392.104,352.04 394.552,355.424 396.064,360.608 396.064,393.944 386.992,393.944 
				386.992,362.408 386.344,359.384 383.968,357.224 382.096,356.648 379.072,356.648 376.336,358.448 375.112,361.472 
				375.112,393.944 366.04,393.944 366.04,362.408 365.392,359.384 363.88,357.872 362.08,356.648 358.12,356.648 356.32,357.872 
				354.232,361.472 			"/>
			<rect x="406.36" y="349.376" style="fill-rule:evenodd;clip-rule:evenodd;fill:#FFFFFF;" width="8.856" height="44.568"/>
			<rect x="406.36" y="334.184" style="fill-rule:evenodd;clip-rule:evenodd;fill:#FFFFFF;" width="8.856" height="9.072"/>
			<polygon style="fill-rule:evenodd;clip-rule:evenodd;fill:#FFFFFF;" points="436.168,393.944 427.312,393.944 427.312,349.376 
				436.168,349.376 436.168,351.464 441.28,349.664 447.04,349.376 451,350.528 454.312,352.976 456.472,356.648 457.048,360.608 
				457.048,393.944 447.976,393.944 447.976,362.408 447.688,360.248 446.176,357.872 443.08,356.648 440.992,356.648 
				438.256,357.872 436.456,360.248 436.168,362.408 			"/>
			<polygon style="fill-rule:evenodd;clip-rule:evenodd;fill:#FFFFFF;" points="158.248,402.152 158.248,329 158.536,326.912 
				159.76,325.04 161.848,323.528 162.784,323.24 213.76,323.24 215.92,323.528 218.008,325.04 219.232,326.912 219.808,329 
				219.808,400.928 219.232,403.088 218.008,405.176 215.92,406.4 213.76,406.688 164.008,406.688 161.848,406.4 159.76,405.176 
				158.536,403.088 			"/>
			<polygon style="fill-rule:evenodd;clip-rule:evenodd;fill:#0079C1;" points="161.272,329.288 162.496,327.2 163.72,326.264 
				214.048,326.264 215.56,326.912 216.496,327.776 216.784,329.288 216.784,400.928 216.496,402.44 215.56,403.664 
				214.696,403.952 164.296,403.952 163.72,403.952 162.496,403.088 161.56,401.864 161.272,400.64 			"/>
			<polygon style="fill-rule:evenodd;clip-rule:evenodd;fill:#FFFFFF;" points="182.8,329 194.968,329 188.848,353.264 			"/>
			<polygon style="fill-rule:evenodd;clip-rule:evenodd;fill:#FFFFFF;" points="181.576,349.664 182.512,350.528 183.736,351.464 
				184.96,352.4 186.184,352.976 187.336,353.264 188.848,353.264 190.432,353.264 191.584,352.976 193.456,352.04 194.032,351.464 
				195.256,350.528 196.192,349.664 210.736,360.248 209.224,362.12 207.424,363.92 205.264,365.72 203.464,367.232 
				201.016,368.456 198.928,369.392 196.48,370.256 191.296,371.192 185.824,371.192 184.024,370.904 178.84,369.392 
				174.304,367.232 172.504,365.72 170.344,363.92 168.544,362.12 167.032,360.248 			"/>
			<polygon style="fill-rule:evenodd;clip-rule:evenodd;fill:#FFFFFF;" points="177.328,400.64 176.104,399.992 175.528,398.84 
				175.528,376.664 175.816,375.44 176.104,374.864 177.328,373.928 199.792,373.928 201.016,374.216 201.592,374.864 
				202.24,376.016 202.24,376.664 202.24,398.192 201.952,399.416 201.016,400.352 199.792,400.928 178.264,400.928 			"/>
			<polygon style="fill-rule:evenodd;clip-rule:evenodd;fill:#0079C1;" points="178.264,399.416 177.688,399.416 176.752,398.84 
				176.752,398.192 176.752,376.664 176.752,376.016 177.328,375.728 177.688,375.44 178.264,375.44 199.792,375.44 
				200.728,375.728 201.016,376.664 201.016,398.192 200.728,399.128 199.792,399.416 			"/>
			<polygon style="fill-rule:evenodd;clip-rule:evenodd;fill:#FFFFFF;" points="185.824,398.192 185.824,389.408 192.808,389.12 
				194.968,388.184 196.768,386.384 197.704,384.224 197.704,381.2 196.768,379.4 195.544,377.888 194.032,377.24 191.584,376.664 
				181.576,376.664 181.576,398.192 			"/>
			<polygon style="fill-rule:evenodd;clip-rule:evenodd;fill:#0079C1;" points="185.824,385.16 191.584,385.16 193.096,384.512 
				193.456,384.224 193.744,383 193.456,381.488 192.808,381.2 191.584,380.624 185.824,380.624 			"/>
		</g>
	</g>
</g>
</svg>
