<?xml version="1.0" encoding="UTF-8" standalone="no"?>
<!-- Generator: Adobe Illustrator 15.1.0, SVG Export Plug-In . SVG Version: 6.00 Build 0)  -->

<svg
   xmlns:dc="http://purl.org/dc/elements/1.1/"
   xmlns:cc="http://creativecommons.org/ns#"
   xmlns:rdf="http://www.w3.org/1999/02/22-rdf-syntax-ns#"
   xmlns:svg="http://www.w3.org/2000/svg"
   xmlns="http://www.w3.org/2000/svg"
   xmlns:sodipodi="http://sodipodi.sourceforge.net/DTD/sodipodi-0.dtd"
   xmlns:inkscape="http://www.inkscape.org/namespaces/inkscape"
   version="1.1"
   id="Layer_1"
   x="0px"
   y="0px"
   width="361.29599"
   height="362.952"
   viewBox="0 0 361.29599 362.952"
   xml:space="preserve"
   sodipodi:docname="861a.svg"
   inkscape:version="0.92.5 (2060ec1f9f, 2020-04-08)"><metadata
   id="metadata3046"><rdf:RDF><cc:Work
       rdf:about=""><dc:format>image/svg+xml</dc:format><dc:type
         rdf:resource="http://purl.org/dc/dcmitype/StillImage" /></cc:Work></rdf:RDF></metadata><defs
   id="defs3044" /><sodipodi:namedview
   pagecolor="#ffffff"
   bordercolor="#666666"
   borderopacity="1"
   objecttolerance="10"
   gridtolerance="10"
   guidetolerance="10"
   inkscape:pageopacity="0"
   inkscape:pageshadow="2"
   inkscape:window-width="640"
   inkscape:window-height="480"
   id="namedview3042"
   showgrid="false"
   inkscape:zoom="0.28028504"
   inkscape:cx="174.46"
   inkscape:cy="148.192"
   inkscape:window-x="0"
   inkscape:window-y="0"
   inkscape:window-maximized="0"
   inkscape:current-layer="Layer_1" />
<rect
   x="0"
   y="5.4931643e-06"
   style="clip-rule:evenodd;fill:#f2ca00;fill-rule:evenodd"
   width="361.29599"
   height="362.952"
   id="rect3033" />
<polygon
   style="clip-rule:evenodd;fill:#d92729;fill-rule:evenodd"
   points="456.112,206.24 457.552,206.312 459.064,206.528 460.576,206.744 461.944,207.104 463.384,207.536 464.824,208.04 466.12,208.544 467.416,209.12 468.712,209.768 470.008,210.488 471.232,211.28 472.384,212.144 473.464,213.008 474.616,213.944 475.624,214.88 476.632,215.96 477.568,217.04 478.432,218.192 479.296,219.344 480.016,220.568 480.736,221.792 481.456,223.088 482.032,224.384 482.536,225.752 483.04,227.048 483.472,228.488 483.832,229.928 484.048,231.44 484.264,232.88 484.336,234.392 484.336,235.904 484.336,538.88 484.336,540.392 484.264,541.904 484.048,543.416 483.832,544.856 483.472,546.296 483.04,547.736 482.536,549.104 482.032,550.4 481.456,551.696 480.736,552.992 480.016,554.288 479.296,555.512 478.432,556.664 477.568,557.744 476.632,558.824 475.624,559.904 474.616,560.84 473.464,561.848 472.384,562.64 471.232,563.504 470.008,564.296 468.712,565.016 467.416,565.664 466.12,566.312 464.824,566.816 463.384,567.32 461.944,567.68 460.576,568.04 459.064,568.256 457.552,568.472 456.112,568.616 454.528,568.616 154.072,568.616 152.488,568.616 151.048,568.472 149.536,568.256 148.024,568.04 146.656,567.68 145.216,567.32 143.776,566.816 142.48,566.312 141.184,565.664 139.888,565.016 138.592,564.296 137.368,563.504 136.216,562.64 135.136,561.848 133.984,560.84 132.976,559.904 131.968,558.824 131.032,557.744 130.168,556.664 129.304,555.512 128.584,554.288 127.864,552.992 127.144,551.696 126.568,550.4 126.064,549.104 125.56,547.736 125.128,546.296 124.768,544.856 124.552,543.416 124.336,541.904 124.264,540.392 124.264,538.88 124.264,235.904 124.264,234.392 124.336,232.88 124.552,231.44 124.768,229.928 125.128,228.488 125.56,227.048 126.064,225.752 126.568,224.384 127.144,223.088 127.864,221.792 128.584,220.568 129.304,219.344 130.168,218.192 131.032,217.04 131.968,215.96 132.976,214.88 133.984,213.944 135.136,213.008 136.216,212.144 137.368,211.28 138.592,210.488 139.888,209.768 141.184,209.12 142.48,208.544 143.776,208.04 145.216,207.536 146.656,207.104 148.024,206.744 149.536,206.528 151.048,206.312 152.488,206.24 154.072,206.24 454.528,206.24 "
   id="polygon3035"
   transform="translate(-123.04,-206.24)" />
<polygon
   style="clip-rule:evenodd;fill:#f2ca00;fill-rule:evenodd"
   points="455.392,221.432 456.184,221.504 457.12,221.576 457.912,221.792 458.776,221.936 459.568,222.152 460.36,222.44 461.152,222.728 461.944,223.088 462.664,223.448 463.312,223.88 464.032,224.312 464.68,224.744 465.328,225.248 465.976,225.824 466.552,226.4 467.128,226.976 467.632,227.552 468.208,228.2 468.64,228.92 469.072,229.568 469.504,230.288 469.864,231.008 470.224,231.728 470.512,232.52 470.8,233.312 471.088,234.104 471.232,234.896 471.376,235.76 471.52,236.624 471.592,237.488 471.592,238.28 471.592,537.944 471.592,538.808 471.52,539.672 471.376,540.536 471.232,541.328 471.088,542.192 470.8,542.984 470.512,543.776 470.224,544.496 469.864,545.216 469.504,546.008 469.072,546.728 468.64,547.376 468.208,548.096 467.632,548.672 467.128,549.32 466.552,549.896 465.976,550.4 465.328,550.976 464.68,551.48 464.032,551.984 463.312,552.416 462.664,552.776 461.944,553.208 461.152,553.568 460.36,553.784 459.568,554.072 458.776,554.288 457.912,554.504 457.12,554.648 456.184,554.792 455.392,554.864 454.528,554.864 155.008,554.864 154.216,554.864 153.28,554.792 152.416,554.648 151.624,554.504 150.832,554.288 150.04,554.072 149.176,553.784 148.456,553.568 147.664,553.208 146.944,552.776 146.224,552.416 145.504,551.984 144.856,551.48 144.208,550.976 143.56,550.4 142.984,549.896 142.48,549.32 141.904,548.672 141.4,548.096 140.968,547.376 140.464,546.728 140.032,546.008 139.672,545.216 139.384,544.496 139.024,543.776 138.736,542.984 138.52,542.192 138.304,541.328 138.16,540.536 138.088,539.672 138.016,538.808 138.016,537.944 138.016,238.28 138.016,237.488 138.088,236.624 138.16,235.76 138.304,234.896 138.52,234.104 138.736,233.312 139.024,232.52 139.384,231.728 139.672,231.008 140.032,230.288 140.464,229.568 140.968,228.92 141.4,228.2 141.904,227.552 142.48,226.976 142.984,226.4 143.56,225.824 144.208,225.248 144.856,224.744 145.504,224.312 146.224,223.88 146.944,223.448 147.664,223.088 148.456,222.728 149.176,222.44 150.04,222.152 150.832,221.936 151.624,221.792 152.416,221.576 153.28,221.504 154.216,221.432 155.008,221.432 454.528,221.432 "
   id="polygon3037"
   transform="translate(-123.04,-206.24)" />
<polygon
   style="clip-rule:evenodd;fill:#1f1a17;fill-rule:evenodd"
   points="265.96,499.712 272.728,462.632 284.68,426.992 297.568,400.136 318.016,368.816 337.672,346.136 359.776,325.904 383.968,308.048 403.624,296.744 423.856,287.24 406.72,247.352 391.96,253.832 364.024,269.456 344.08,282.92 325.432,297.968 302.032,320.36 286.768,338.792 276.976,351.608 263.8,371.552 208.576,247.352 188.632,256.208 250.912,396.104 241.12,418.208 233.416,441.104 227.656,464.72 223.624,488.696 221.752,504.608 221.104,520.88 221.104,537.152 264.736,537.152 "
   id="polygon3039"
   transform="translate(-123.04,-206.24)" />
</svg>