<?xml version="1.0" encoding="UTF-8" standalone="no"?>
<!-- Generator: Adobe Illustrator 15.1.0, SVG Export Plug-In . SVG Version: 6.00 Build 0)  -->

<svg
   xmlns:dc="http://purl.org/dc/elements/1.1/"
   xmlns:cc="http://creativecommons.org/ns#"
   xmlns:rdf="http://www.w3.org/1999/02/22-rdf-syntax-ns#"
   xmlns:svg="http://www.w3.org/2000/svg"
   xmlns="http://www.w3.org/2000/svg"
   xmlns:sodipodi="http://sodipodi.sourceforge.net/DTD/sodipodi-0.dtd"
   xmlns:inkscape="http://www.inkscape.org/namespaces/inkscape"
   version="1.1"
   x="0px"
   y="0px"
   width="361.36801"
   height="363.02399"
   viewBox="0 0 361.36801 363.02399"
   xml:space="preserve"
   id="svg3063"
   sodipodi:docname="861b.svg"
   inkscape:version="0.92.5 (2060ec1f9f, 2020-04-08)"><metadata
   id="metadata3069"><rdf:RDF><cc:Work
       rdf:about=""><dc:format>image/svg+xml</dc:format><dc:type
         rdf:resource="http://purl.org/dc/dcmitype/StillImage" /></cc:Work></rdf:RDF></metadata><defs
   id="defs3067" /><sodipodi:namedview
   pagecolor="#ffffff"
   bordercolor="#666666"
   borderopacity="1"
   objecttolerance="10"
   gridtolerance="10"
   guidetolerance="10"
   inkscape:pageopacity="0"
   inkscape:pageshadow="2"
   inkscape:window-width="640"
   inkscape:window-height="480"
   id="namedview3065"
   showgrid="false"
   inkscape:zoom="0.28028504"
   inkscape:cx="174.46"
   inkscape:cy="148.26399"
   inkscape:window-x="0"
   inkscape:window-y="0"
   inkscape:window-maximized="0"
   inkscape:current-layer="svg3063" />
<g
   id="Kuvataso_1"
   transform="translate(-123.04,-206.24)">
</g>
<g
   id="_x30_"
   transform="translate(-123.04,-206.24)">
</g>
<g
   id="HATPUN"
   transform="translate(-123.04,-206.24)">
</g>
<g
   id="HATKEL"
   transform="translate(-123.04,-206.24)">
</g>
<g
   id="HAT"
   transform="translate(-123.04,-206.24)">
	<g
   id="g3060">
		<rect
   x="123.04"
   y="206.24001"
   style="clip-rule:evenodd;fill:#ffd200;fill-rule:evenodd"
   width="361.36801"
   height="363.02399"
   id="rect3052" />
		<path
   style="clip-rule:evenodd;fill:#ef3e42;fill-rule:evenodd"
   d="m 154,206.24 h 300.6 c 16.416,0 29.808,13.392 29.808,29.736 v 303.048 c 0,16.344 -13.392,29.736 -29.808,29.736 H 154 c -16.344,0 -29.808,-13.392 -29.808,-29.736 V 235.976 c 0,-16.344 13.464,-29.736 29.808,-29.736 z"
   id="path3054"
   inkscape:connector-curvature="0" />
		<path
   style="clip-rule:evenodd;fill:#ffd200;fill-rule:evenodd"
   d="m 155.008,221.432 h 299.52 c 9.432,0 17.064,7.632 17.064,16.92 v 299.736 c 0,9.288 -7.632,16.92 -17.064,16.92 h -299.52 c -9.36,0 -17.064,-7.632 -17.064,-16.92 V 238.352 c 0,-9.288 7.704,-16.92 17.064,-16.92 z"
   id="path3056"
   inkscape:connector-curvature="0" />
		<polygon
   style="clip-rule:evenodd;fill-rule:evenodd"
   points="319.312,433.616 321.184,422.528 324.856,414.968 332.2,406.328 341.704,400.496 346.96,398.624 352.792,397.76 449.272,397.76 449.272,354.128 351.28,354.128 334.648,356.864 326.656,359.312 319.024,362.696 308.584,369.464 308.584,245.984 286.84,245.984 286.84,371.912 160.264,371.912 160.264,393.728 286.48,393.728 284.68,397.4 282.808,401.144 280.648,406.616 278.848,413.096 276.688,421.952 276.04,433.328 276.04,534.344 319.312,534.344 "
   id="polygon3058" />
	</g>
</g>
</svg>