<?xml version="1.0" encoding="iso-8859-1"?>
<!-- Generator: Adobe Illustrator 15.1.0, SVG Export Plug-In . SVG Version: 6.00 Build 0)  -->
<!DOCTYPE svg PUBLIC "-//W3C//DTD SVG 1.1//EN" "http://www.w3.org/Graphics/SVG/1.1/DTD/svg11.dtd">
<svg version="1.1" xmlns="http://www.w3.org/2000/svg" xmlns:xlink="http://www.w3.org/1999/xlink" x="0px" y="0px" width="595px"
	 height="842px" viewBox="0 0 595 842" style="enable-background:new 0 0 595 842;" xml:space="preserve">
<g id="Kuvataso_1">
</g>
<g id="_x30_">
</g>
<g id="HATPUN">
</g>
<g id="HATKEL">
</g>
<g id="HAT">
	<g>
		<rect x="123.04" y="206.24" style="fill-rule:evenodd;clip-rule:evenodd;fill:#FFD200;" width="361.368" height="363.024"/>
		<path style="fill-rule:evenodd;clip-rule:evenodd;fill:#EF3E42;" d="M154,206.24h300.6c16.416,0,29.808,13.392,29.808,29.736
			v303.048c0,16.344-13.392,29.736-29.808,29.736H154c-16.344,0-29.808-13.392-29.808-29.736V235.976
			C124.192,219.632,137.656,206.24,154,206.24z"/>
		<path style="fill-rule:evenodd;clip-rule:evenodd;fill:#FFD200;" d="M155.008,221.432h299.52c9.432,0,17.064,7.632,17.064,16.92
			v299.736c0,9.288-7.632,16.92-17.064,16.92h-299.52c-9.36,0-17.064-7.632-17.064-16.92V238.352
			C137.944,229.064,145.648,221.432,155.008,221.432z"/>
		<polygon style="fill-rule:evenodd;clip-rule:evenodd;" points="276.04,534.344 319.312,534.344 319.312,433.616 321.184,422.528 
			324.856,414.968 332.2,406.328 341.704,400.496 346.96,398.624 352.792,397.76 449.272,397.76 449.272,354.128 351.28,354.128 
			334.648,356.864 326.656,359.312 319.024,362.696 308.584,369.464 308.584,245.984 286.84,245.984 286.84,371.912 
			160.264,371.912 160.264,393.728 286.48,393.728 284.68,397.4 282.808,401.144 280.648,406.616 278.848,413.096 276.688,421.952 
			276.04,433.328 		"/>
	</g>
</g>
</svg>
