<?xml version="1.0" encoding="UTF-8" standalone="no"?>
<!-- Generator: Adobe Illustrator 15.1.0, SVG Export Plug-In . SVG Version: 6.00 Build 0)  -->

<svg
   xmlns:dc="http://purl.org/dc/elements/1.1/"
   xmlns:cc="http://creativecommons.org/ns#"
   xmlns:rdf="http://www.w3.org/1999/02/22-rdf-syntax-ns#"
   xmlns:svg="http://www.w3.org/2000/svg"
   xmlns="http://www.w3.org/2000/svg"
   xmlns:sodipodi="http://sodipodi.sourceforge.net/DTD/sodipodi-0.dtd"
   xmlns:inkscape="http://www.inkscape.org/namespaces/inkscape"
   version="1.1"
   x="0px"
   y="0px"
   width="359.784"
   height="239.976"
   viewBox="0 0 359.784 239.976"
   xml:space="preserve"
   id="svg3159"
   sodipodi:docname="863.svg"
   inkscape:version="0.92.5 (2060ec1f9f, 2020-04-08)"><metadata
   id="metadata3165"><rdf:RDF><cc:Work
       rdf:about=""><dc:format>image/svg+xml</dc:format><dc:type
         rdf:resource="http://purl.org/dc/dcmitype/StillImage" /></cc:Work></rdf:RDF></metadata><defs
   id="defs3163" /><sodipodi:namedview
   pagecolor="#ffffff"
   bordercolor="#666666"
   borderopacity="1"
   objecttolerance="10"
   gridtolerance="10"
   guidetolerance="10"
   inkscape:pageopacity="0"
   inkscape:pageshadow="2"
   inkscape:window-width="640"
   inkscape:window-height="480"
   id="namedview3161"
   showgrid="false"
   inkscape:zoom="0.28028504"
   inkscape:cx="184.828"
   inkscape:cy="112.192"
   inkscape:window-x="0"
   inkscape:window-y="0"
   inkscape:window-maximized="0"
   inkscape:current-layer="svg3159" />
<g
   id="Kuvataso_1"
   transform="translate(-112.672,-293.216)">
</g>
<g
   id="_x30_"
   transform="translate(-112.672,-293.216)">
</g>
<g
   id="HATPUN"
   transform="translate(-112.672,-293.216)">
</g>
<g
   id="HATKEL"
   transform="translate(-112.672,-293.216)">
</g>
<g
   id="HAT"
   transform="translate(-112.672,-293.216)">
	<g
   id="g3156">
		<rect
   x="112.672"
   y="293.216"
   style="clip-rule:evenodd;fill:#ffd200;fill-rule:evenodd"
   width="359.784"
   height="239.976"
   id="rect3110" />
		<polygon
   style="clip-rule:evenodd;fill:#ef3e42;fill-rule:evenodd"
   points="117.568,301.424 122.176,297.176 127.936,294.08 137.08,293.216 446.896,293.216 452.944,293.216 460.864,295.952 466.048,299.912 468.784,303.224 471.592,309.056 472.456,318.488 472.456,508.856 471.88,514.976 469.72,521.312 467.56,524.984 462.736,529.232 457.264,532.328 450.856,533.192 134.344,533.192 126.136,531.392 120.592,528.08 115.12,521.312 113.032,514.976 112.672,507.056 112.672,315.752 113.608,309.056 "
   id="polygon3112" />
		<polygon
   style="clip-rule:evenodd;fill:#ffd200;fill-rule:evenodd"
   points="128.512,306.32 132.832,304.448 450.856,304.448 455.392,305.384 459.064,308.408 461.512,314.24 461.512,510.656 460.576,515.264 457.84,519.224 452.368,521.96 134.344,521.96 129.736,520.736 125.2,516.776 123.4,510.656 123.688,314.24 125.2,309.632 "
   id="polygon3114" />
		<polygon
   style="clip-rule:evenodd;fill-rule:evenodd"
   points="247.672,455.216 277.552,485.384 247.672,515.552 247.672,493.016 142.552,493.016 142.552,477.752 247.672,477.752 "
   id="polygon3116" />
		<polygon
   style="clip-rule:evenodd;fill-rule:evenodd"
   points="337.456,477.752 442.288,477.752 442.288,493.016 337.456,493.016 337.456,515.552 307.648,485.384 337.456,455.216 "
   id="polygon3118" />
		<polygon
   style="clip-rule:evenodd;fill-rule:evenodd"
   points="174.52,387.032 168.184,386.744 162.64,387.32 157.456,389.48 151.984,393.152 147.448,398.048 144.352,404.096 142.552,412.664 142.84,417.2 144.712,423.536 146.8,427.496 149.248,431.168 152.632,434.192 156.304,436.64 160.264,438.44 166.6,440.024 170.92,440.312 177.616,439.088 183.664,436.352 188.848,432.104 192.808,426.92 194.68,422.6 196.192,416.264 201.664,416.264 208.072,418.712 210.232,418.136 211.744,408.992 232.12,382.496 235.216,389.768 233.056,390.704 231.256,392.216 227.872,394.952 225.136,398.624 222.976,402.584 221.752,406.832 220.888,411.152 220.888,415.688 221.464,419.936 222.976,424.112 225.136,428.072 227.872,431.456 231.256,434.48 237.016,437.864 243.424,440.024 250.12,440.024 256.528,438.8 262.576,435.704 265.96,432.968 268.984,429.656 271.432,425.984 273.88,419.648 274.456,415.4 274.456,409.928 273.592,406.544 271.144,400.136 268.408,396.464 265.384,393.44 262,390.704 253.792,387.32 248.32,386.744 244,387.032 240.4,387.68 231.544,365.144 204.688,332.168 201.952,330.368 199.216,330.08 196.48,331.304 178.48,362.984 177.328,366.656 178.192,370.256 178.84,371.192 185.248,375.8 178.84,388.256 "
   id="polygon3120" />
		<polygon
   style="clip-rule:evenodd;fill-rule:evenodd"
   points="217.504,317.912 219.016,321.512 219.016,323.96 217.504,327.344 215.056,329.792 211.744,331.304 208.072,331.016 204.688,329.144 202.6,326.12 201.952,323.96 202.312,320.288 203.176,317.912 205.912,315.464 208.072,314.528 210.52,313.952 213.832,314.816 "
   id="polygon3122" />
		<polygon
   style="clip-rule:evenodd;fill:#ffd200;fill-rule:evenodd"
   points="166.6,392.504 163,393.44 159.328,394.952 157.816,395.888 153.208,399.848 151.12,403.16 149.536,406.832 148.672,410.504 148.384,412.304 148.672,416.264 149.536,419.936 151.12,423.536 154.432,428.072 159.328,431.744 164.8,433.904 168.472,434.48 172.432,434.192 176.392,433.256 182.44,430.52 185.824,426.92 188.848,422.024 190.432,416.264 169.696,416.264 167.824,415.688 166.6,414.176 166.6,412.664 176.392,393.44 172.432,392.504 "
   id="polygon3124" />
		<polygon
   style="clip-rule:evenodd;fill:#ffd200;fill-rule:evenodd"
   points="185.824,399.848 187.984,403.16 188.848,405.032 189.784,407.768 190.432,410.504 174.232,410.504 181.576,396.176 183.088,397.112 "
   id="polygon3126" />
		<polygon
   style="clip-rule:evenodd;fill:#ffd200;fill-rule:evenodd"
   points="190.432,396.824 192.808,400.136 194.68,404.096 195.904,408.344 196.192,410.504 201.952,410.504 188.272,382.136 184.024,390.704 187.624,393.44 "
   id="polygon3128" />
		<polygon
   style="clip-rule:evenodd;fill:#ffd200;fill-rule:evenodd"
   points="203.176,386.456 194.032,380.984 202.6,398.624 "
   id="polygon3130" />
		<polygon
   style="clip-rule:evenodd;fill:#ffd200;fill-rule:evenodd"
   points="213.832,396.824 215.704,385.52 215.704,382.784 215.056,381.848 212.968,379.4 227.296,379.4 "
   id="polygon3132" />
		<polygon
   style="clip-rule:evenodd;fill:#ffd200;fill-rule:evenodd"
   points="247.096,416.264 249.184,415.976 250.408,414.752 250.408,412.664 242.488,392.864 244.36,392.504 250.408,392.504 255.88,394.088 261.064,397.112 262.288,398.336 265.96,402.872 267.472,406.544 268.408,410.216 268.408,416.264 267.76,419.936 266.248,423.536 263.8,426.56 259.84,430.52 253.432,433.616 250.696,434.192 246.736,434.48 240.976,433.256 237.592,431.744 232.768,428.432 230.32,425.336 227.584,420.224 226.648,416.624 226.648,410.792 226.936,408.704 229.096,403.52 231.256,400.136 233.992,397.4 237.304,394.952 244.936,414.752 "
   id="polygon3134" />
		<polygon
   style="clip-rule:evenodd;fill:#ffd200;fill-rule:evenodd"
   points="207.136,373.64 228.808,373.64 226.936,369.68 204.688,347.72 195.904,363.56 "
   id="polygon3136" />
		<polygon
   style="clip-rule:evenodd;fill-rule:evenodd"
   points="410.032,387.032 416.728,386.744 422.2,387.32 427.384,389.48 432.856,393.152 437.464,398.048 440.488,404.096 442,412.664 442,417.2 440.2,423.536 438.04,427.496 435.592,431.168 432.28,434.192 428.608,436.64 424.648,438.44 418.24,440.024 413.632,440.312 407.296,439.088 401.176,436.352 395.992,432.104 392.032,426.92 390.232,422.6 388.648,416.264 383.176,416.264 376.768,418.712 374.68,418.136 373.168,408.992 352.72,382.496 349.696,389.768 351.784,390.704 353.656,392.216 356.68,394.952 359.704,398.624 361.864,402.584 363.088,406.832 364.024,411.152 364.024,415.688 363.376,419.936 361.864,424.112 359.704,428.072 356.968,431.456 353.656,434.48 347.824,437.864 341.488,440.024 334.72,440.024 328.384,438.8 322.264,435.704 318.88,432.968 315.856,429.656 313.408,425.984 310.96,419.648 310.384,415.4 310.384,409.928 311.32,406.544 313.696,400.136 316.432,396.464 319.528,393.44 322.84,390.704 331.12,387.32 336.592,386.744 340.84,387.032 344.512,387.68 353.368,365.144 380.152,332.168 382.6,330.368 385.624,330.08 388.36,331.304 406.36,362.984 407.584,366.656 406.648,370.256 406.072,371.192 399.664,375.8 406.072,388.256 "
   id="polygon3138" />
		<polygon
   style="clip-rule:evenodd;fill-rule:evenodd"
   points="367.336,317.912 365.824,321.512 365.824,323.96 367.336,327.344 369.784,329.792 373.168,331.304 376.768,331.016 380.152,329.144 382.312,326.12 382.888,323.96 382.6,320.288 381.664,317.912 378.928,315.464 376.768,314.528 374.392,313.952 370.72,314.816 "
   id="polygon3140" />
		<polygon
   style="clip-rule:evenodd;fill:#ffd200;fill-rule:evenodd"
   points="418.24,392.504 421.912,393.44 425.512,394.952 427.096,395.888 431.344,399.848 433.792,403.16 435.304,406.832 436.24,410.504 436.24,412.304 436.24,416.264 435.304,419.936 433.792,423.536 430.12,428.072 425.512,431.744 420.04,433.904 416.44,434.48 412.48,434.192 408.52,433.256 402.4,430.52 399.016,426.92 395.992,422.024 394.48,416.264 415.216,416.264 417.016,415.688 418.24,414.176 418.24,412.664 408.52,393.44 412.12,392.504 "
   id="polygon3142" />
		<polygon
   style="clip-rule:evenodd;fill:#ffd200;fill-rule:evenodd"
   points="399.016,399.848 396.928,403.16 395.992,405.032 395.056,407.768 394.48,410.504 410.608,410.504 403.336,396.176 401.752,397.112 "
   id="polygon3144" />
		<polygon
   style="clip-rule:evenodd;fill:#ffd200;fill-rule:evenodd"
   points="394.48,396.824 392.032,400.136 390.232,404.096 389.008,408.344 388.648,410.504 382.888,410.504 396.568,382.136 400.888,390.704 397.216,393.44 "
   id="polygon3146" />
		<polygon
   style="clip-rule:evenodd;fill:#ffd200;fill-rule:evenodd"
   points="381.664,386.456 390.808,380.984 382.312,398.624 "
   id="polygon3148" />
		<polygon
   style="clip-rule:evenodd;fill:#ffd200;fill-rule:evenodd"
   points="371.008,396.824 369.208,385.52 369.208,382.784 369.784,381.848 371.944,379.4 357.616,379.4 "
   id="polygon3150" />
		<polygon
   style="clip-rule:evenodd;fill:#ffd200;fill-rule:evenodd"
   points="337.816,416.264 335.656,415.976 334.432,414.752 334.432,412.664 342.352,392.864 340.264,392.504 334.432,392.504 328.96,394.088 323.776,397.112 322.552,398.336 318.88,402.872 317.368,406.544 316.432,410.216 316.432,416.264 317.08,419.936 318.592,423.536 321.04,426.56 325,430.52 331.408,433.616 334.144,434.192 338.104,434.48 343.576,433.256 347.248,431.744 352.144,428.432 354.52,425.336 357.328,420.224 358.192,416.624 358.192,410.792 357.904,408.704 355.744,403.52 353.656,400.136 350.92,397.4 347.536,394.952 339.904,414.752 "
   id="polygon3152" />
		<polygon
   style="clip-rule:evenodd;fill:#ffd200;fill-rule:evenodd"
   points="377.704,373.64 356.104,373.64 357.904,369.68 380.152,347.72 389.008,363.56 "
   id="polygon3154" />
	</g>
</g>
</svg>