<?xml version="1.0" encoding="UTF-8" standalone="no"?>
<!-- Generator: Adobe Illustrator 15.1.0, SVG Export Plug-In . SVG Version: 6.00 Build 0)  -->

<svg
   xmlns:dc="http://purl.org/dc/elements/1.1/"
   xmlns:cc="http://creativecommons.org/ns#"
   xmlns:rdf="http://www.w3.org/1999/02/22-rdf-syntax-ns#"
   xmlns:svg="http://www.w3.org/2000/svg"
   xmlns="http://www.w3.org/2000/svg"
   xmlns:sodipodi="http://sodipodi.sourceforge.net/DTD/sodipodi-0.dtd"
   xmlns:inkscape="http://www.inkscape.org/namespaces/inkscape"
   version="1.0"
   id="Layer_1"
   x="0px"
   y="0px"
   width="496.064"
   height="824.216"
   viewBox="0 0 496.06397 824.21599"
   enable-background="new 0 0 595.28 841.89"
   xml:space="preserve"
   sodipodi:docname="871-4.svg"
   inkscape:version="0.92.5 (2060ec1f9f, 2020-04-08)"><metadata
   id="metadata3937"><rdf:RDF><cc:Work
       rdf:about=""><dc:format>image/svg+xml</dc:format><dc:type
         rdf:resource="http://purl.org/dc/dcmitype/StillImage" /></cc:Work></rdf:RDF></metadata><defs
   id="defs3935" /><sodipodi:namedview
   pagecolor="#ffffff"
   bordercolor="#666666"
   borderopacity="1"
   objecttolerance="10"
   gridtolerance="10"
   guidetolerance="10"
   inkscape:pageopacity="0"
   inkscape:pageshadow="2"
   inkscape:window-width="640"
   inkscape:window-height="480"
   id="namedview3933"
   showgrid="false"
   inkscape:zoom="0.28032165"
   inkscape:cx="248.03101"
   inkscape:cy="412.10799"
   inkscape:window-x="0"
   inkscape:window-y="0"
   inkscape:window-maximized="0"
   inkscape:current-layer="Layer_1" />
<g
   id="LWPOLYLINE_422_"
   transform="translate(-49.609,-8.8369999)">
	<rect
   x="49.609001"
   y="667.77197"
   width="496.06299"
   height="165.28"
   id="rect3665"
   style="fill:#ffd200" />
</g>
<g
   id="LWPOLYLINE_423_"
   transform="translate(-49.609,-8.8369999)">
	<path
   d="m 68.216,833.053 h 458.687 c 10.275,0 18.77,-8.332 18.77,-18.606 V 686.299 c 0,-10.274 -8.494,-18.526 -18.77,-18.526 H 68.216 c -10.315,0 -18.607,8.252 -18.607,18.526 v 128.147 c 0,10.275 8.292,18.607 18.607,18.607 z"
   id="path3668"
   inkscape:connector-curvature="0"
   style="fill:#ef3e42" />
</g>
<g
   id="LWPOLYLINE_424_"
   transform="translate(-49.609,-8.8369999)">
	<path
   d="m 68.216,820.676 h 458.687 c 3.439,0 6.189,-2.792 6.189,-6.229 V 686.299 c 0,-3.397 -2.75,-6.148 -6.189,-6.148 H 68.216 c -3.438,0 -6.229,2.751 -6.229,6.148 v 128.147 c -0.001,3.438 2.79,6.23 6.229,6.23 z"
   id="path3671"
   inkscape:connector-curvature="0"
   style="fill:#ffd200" />
</g>
<g
   id="LWPOLYLINE_425_"
   transform="translate(-49.609,-8.8369999)">
	<path
   d="m 120.033,752.881 v 22.369 h -7.362 v -49.633 h 17.13 c 6.877,0 12.58,5.663 12.58,12.62 v 2.022 c 0,5.34 -3.276,10.032 -8.353,11.893 l 8.353,23.098 h -8.029 l -7.989,-22.369 z"
   id="path3674"
   inkscape:connector-curvature="0" />
</g>
<g
   id="LWPOLYLINE_426_"
   transform="translate(-49.609,-8.8369999)">
	<path
   d="m 120.033,745.519 h 9.769 c 2.792,0 5.077,-2.427 5.077,-5.259 v -2.022 c 0,-2.872 -2.285,-5.137 -5.077,-5.137 h -9.769 z"
   id="path3677"
   inkscape:connector-curvature="0"
   style="fill:#ffd200" />
</g>
<g
   id="LWPOLYLINE_427_"
   transform="translate(-49.609,-8.8369999)">
	<rect
   x="164.69"
   y="725.617"
   width="7.5240002"
   height="7.4829998"
   id="rect3680" />
</g>
<g
   id="LWPOLYLINE_428_"
   transform="translate(-49.609,-8.8369999)">
	<rect
   x="151.321"
   y="725.617"
   width="7.3410001"
   height="7.4829998"
   id="rect3683" />
</g>
<g
   id="LWPOLYLINE_429_"
   transform="translate(-49.609,-8.8369999)">
	<path
   d="m 173.164,775.25 h -7.503 v -2.347 c -2.912,1.497 -6.351,2.347 -9.789,2.347 -2.912,0.08 -5.663,-1.901 -6.674,-4.814 -1.314,-3.762 -0.142,-7.928 2.609,-10.76 3.58,-3.883 8.656,-6.229 13.854,-6.715 v -3.802 c 0,-2.022 -1.598,-3.641 -3.721,-3.641 -1.962,0 -3.6,1.618 -3.6,3.641 h -7.504 c 0,-6.148 4.875,-11.164 11.104,-11.164 6.189,0 11.225,5.016 11.225,11.164 v 26.091 z"
   id="path3686"
   inkscape:connector-curvature="0" />
</g>
<g
   id="LWPOLYLINE_430_"
   transform="translate(-49.609,-8.8369999)">
	<path
   d="m 165.661,757.896 c -2.447,0.566 -4.712,1.779 -6.674,3.397 -1.8,1.578 -2.75,3.803 -2.75,6.067 0.162,1.537 1.274,2.751 2.75,2.67 2.589,-0.404 4.712,-1.052 6.674,-2.104 z"
   id="path3689"
   inkscape:connector-curvature="0"
   style="fill:#ffd200" />
</g>
<g
   id="LWPOLYLINE_431_"
   transform="translate(-49.609,-8.8369999)">
	<path
   d="m 180.991,747.218 0.162,20.387 c 0.829,4.288 4.429,7.483 8.818,7.646 2.913,-0.364 5.866,-1.416 8.454,-2.953 v 2.953 h 7.504 v -49.633 h -7.504 v 15.371 c -2.588,-1.578 -5.38,-2.589 -8.454,-2.993 -4.914,-10e-4 -8.98,4.003 -8.98,9.222 z"
   id="path3692"
   inkscape:connector-curvature="0" />
</g>
<g
   id="LWPOLYLINE_432_"
   transform="translate(-49.609,-8.8369999)">
	<path
   d="m 198.425,748.916 v 15.371 c 0,2.751 -2.265,5.017 -4.854,5.017 -2.811,0 -5.076,-2.266 -5.076,-5.017 v -15.371 c 0,-2.75 2.265,-4.935 5.076,-4.935 2.589,0 4.854,2.185 4.854,4.935 z"
   id="path3695"
   inkscape:connector-curvature="0"
   style="fill:#ffd200" />
</g>
<g
   id="LWPOLYLINE_433_"
   transform="translate(-49.609,-8.8369999)">
	<path
   d="m 214.768,747.218 v 20.387 c 0.951,4.288 4.551,7.483 8.939,7.646 2.953,-0.364 5.865,-1.416 8.454,-2.953 v 2.953 h 7.342 v -49.633 h -7.342 v 15.371 c -2.589,-1.578 -5.501,-2.589 -8.454,-2.993 -4.874,-10e-4 -8.939,4.003 -8.939,9.222 z"
   id="path3698"
   inkscape:connector-curvature="0" />
</g>
<g
   id="LWPOLYLINE_434_"
   transform="translate(-49.609,-8.8369999)">
	<path
   d="m 232.161,748.916 v 15.371 c 0,2.751 -2.265,5.017 -5.016,5.017 -2.609,0 -4.915,-2.266 -4.915,-5.017 v -15.371 c 0,-2.75 2.306,-4.935 4.915,-4.935 2.751,0 5.016,2.185 5.016,4.935 z"
   id="path3701"
   inkscape:connector-curvature="0"
   style="fill:#ffd200" />
</g>
<g
   id="LWPOLYLINE_435_"
   transform="translate(-49.609,-8.8369999)">
	<path
   d="m 274.25,747.218 v 28.032 h -7.341 v -26.334 c 0,-2.75 -2.286,-4.935 -5.036,-4.935 -2.791,0 -4.915,2.185 -4.915,4.935 v 26.334 h -7.503 v -37.255 h 7.503 v 2.993 c 2.589,-1.578 5.38,-2.589 8.454,-2.993 4.914,0 8.838,4.004 8.838,9.223 z"
   id="path3704"
   inkscape:connector-curvature="0" />
</g>
<g
   id="LWPOLYLINE_436_"
   transform="translate(-49.609,-8.8369999)">
	<rect
   x="283.229"
   y="737.995"
   width="7.4629998"
   height="37.255001"
   id="rect3707" />
</g>
<g
   id="LWPOLYLINE_437_"
   transform="translate(-49.609,-8.8369999)">
	<rect
   x="283.229"
   y="725.617"
   width="7.4629998"
   height="7.4829998"
   id="rect3710" />
</g>
<g
   id="LWPOLYLINE_438_"
   transform="translate(-49.609,-8.8369999)">
	<path
   d="m 325.42,747.218 v 28.032 h -7.504 v -26.334 c 0,-2.75 -2.104,-4.935 -4.875,-4.935 -2.791,0 -5.057,2.185 -5.057,4.935 v 26.334 h -7.361 v -37.255 h 7.361 v 2.993 c 2.631,-1.578 5.543,-2.589 8.496,-2.993 4.874,0 8.94,4.004 8.94,9.223 z"
   id="path3713"
   inkscape:connector-curvature="0" />
</g>
<g
   id="LWPOLYLINE_439_"
   transform="translate(-49.609,-8.8369999)">
	<path
   d="m 350.215,773.187 c -2.629,1.699 -5.379,2.629 -8.535,2.993 -4.854,0 -8.918,-3.964 -8.918,-8.898 0,-0.243 0,-20.63 0,-20.63 0.971,-4.328 4.551,-7.524 8.918,-7.686 2.994,0.444 5.906,1.375 8.535,2.952 v -2.952 h 7.322 v 34.221 c 0,1.86 -0.324,3.479 -0.971,5.057 -2.75,5.946 -9.951,8.615 -15.816,5.784 l 3.115,-6.715 c 2.266,1.012 4.854,0.081 5.865,-2.144 0.323,-0.689 0.485,-1.335 0.485,-1.982 z"
   id="path3716"
   inkscape:connector-curvature="0" />
</g>
<g
   id="LWPOLYLINE_440_"
   transform="translate(-49.609,-8.8369999)">
	<path
   d="m 340.305,765.339 c 0,2.751 2.266,4.936 4.855,4.936 2.75,0 5.055,-2.185 5.055,-4.936 v -15.452 c 0,-2.669 -2.305,-4.895 -5.055,-4.895 -2.59,0 -4.855,2.226 -4.855,4.895 z"
   id="path3719"
   inkscape:connector-curvature="0"
   style="fill:#ffd200" />
</g>
<g
   id="LWPOLYLINE_441_"
   transform="translate(-49.609,-8.8369999)">
	<path
   d="m 364.576,762.75 c 0,6.877 5.5,12.5 12.377,12.5 h 0.971 c 6.027,0 10.922,-4.895 10.922,-10.963 0,-3.883 -1.941,-7.483 -5.381,-9.465 l -8.291,-4.773 c -0.688,-0.404 -1.174,-1.213 -1.174,-2.104 0,-1.375 1.174,-2.427 2.469,-2.427 h 1.455 c 1.457,0 2.428,1.052 2.428,2.427 h 7.523 c 0,-5.461 -4.41,-9.95 -9.951,-9.95 h -1.455 c -5.584,0 -9.951,4.489 -9.951,9.95 0,3.52 1.941,6.756 4.895,8.576 l 8.291,4.772 c 0.971,0.647 1.658,1.82 1.658,2.993 0,1.901 -1.496,3.479 -3.438,3.479 h -0.971 c -2.791,0 -4.895,-2.185 -4.895,-5.017 h -7.482 z"
   id="path3722"
   inkscape:connector-curvature="0" />
</g>
<g
   id="LWPOLYLINE_442_"
   transform="translate(-49.609,-8.8369999)">
	<polygon
   points="411.174,775.25 421.125,737.995 413.602,737.995 407.453,761.294 401.223,737.995 393.861,737.995 403.65,775.25 "
   id="polygon3725" />
</g>
<g
   id="LWPOLYLINE_443_"
   transform="translate(-49.609,-8.8369999)">
	<rect
   x="441.99799"
   y="725.617"
   width="7.2810001"
   height="7.4829998"
   id="rect3728" />
</g>
<g
   id="LWPOLYLINE_444_"
   transform="translate(-49.609,-8.8369999)">
	<rect
   x="428.64801"
   y="725.617"
   width="7.322"
   height="7.4829998"
   id="rect3731" />
</g>
<g
   id="LWPOLYLINE_445_"
   transform="translate(-49.609,-8.8369999)">
	<path
   d="m 450.33,775.25 h -7.361 v -2.347 c -3.074,1.497 -6.393,2.347 -9.789,2.347 -3.074,0.08 -5.906,-1.901 -6.836,-4.814 -1.174,-3.762 -0.162,-7.928 2.75,-10.76 3.6,-3.883 8.453,-6.229 13.875,-6.715 v -3.802 c 0,-2.022 -1.658,-3.641 -3.762,-3.641 -2.145,0 -3.762,1.618 -3.762,3.641 h -7.443 c 0,-6.148 5.016,-11.164 11.205,-11.164 6.188,0 11.123,5.016 11.123,11.164 z"
   id="path3734"
   inkscape:connector-curvature="0" />
</g>
<g
   id="LWPOLYLINE_446_"
   transform="translate(-49.609,-8.8369999)">
	<path
   d="m 442.969,757.896 c -2.428,0.566 -4.855,1.779 -6.836,3.397 -1.66,1.578 -2.631,3.803 -2.631,6.067 0,1.537 1.295,2.751 2.791,2.67 2.59,-0.404 4.734,-1.052 6.676,-2.104 z"
   id="path3737"
   inkscape:connector-curvature="0"
   style="fill:#ffd200" />
</g>
<g
   id="LWPOLYLINE_447_"
   transform="translate(-49.609,-8.8369999)">
	<path
   d="m 475.248,773.187 c -2.629,1.699 -5.543,2.629 -8.494,2.993 -4.855,0 -8.941,-3.964 -8.941,-8.898 0,-0.243 0,-20.63 0,-20.63 0.77,-4.328 4.572,-7.524 8.941,-7.686 2.951,0.444 5.865,1.375 8.494,2.952 v -2.952 h 7.281 v 34.221 c 0,1.86 -0.283,3.479 -1.094,5.057 -2.791,5.946 -9.748,8.615 -15.814,5.784 l 3.234,-6.715 c 2.186,1.012 4.936,0.081 5.906,-2.144 0.325,-0.689 0.487,-1.335 0.487,-1.982 z"
   id="path3740"
   inkscape:connector-curvature="0" />
</g>
<g
   id="LWPOLYLINE_448_"
   transform="translate(-49.609,-8.8369999)">
	<path
   d="m 465.297,765.339 c 0,2.751 2.104,4.936 4.854,4.936 2.832,0 5.098,-2.185 5.098,-4.936 v -15.452 c 0,-2.669 -2.266,-4.895 -5.098,-4.895 -2.75,0 -4.854,2.226 -4.854,4.895 z"
   id="path3743"
   inkscape:connector-curvature="0"
   style="fill:#ffd200" />
</g>
<g
   id="LWPOLYLINE_449_"
   transform="translate(-49.609,-8.8369999)">
	<rect
   x="49.609001"
   y="8.8369999"
   width="496.06299"
   height="206.64101"
   id="rect3746"
   style="fill:#ffd200" />
</g>
<g
   id="LWPOLYLINE_450_"
   transform="translate(-49.609,-8.8369999)">
	<path
   d="m 68.216,215.478 h 458.687 c 10.275,0 18.77,-8.354 18.77,-18.607 V 27.424 c 0,-10.295 -8.494,-18.587 -18.77,-18.587 H 68.216 c -10.315,0 -18.607,8.292 -18.607,18.587 V 196.87 c 0,10.254 8.292,18.608 18.607,18.608 z"
   id="path3749"
   inkscape:connector-curvature="0"
   style="fill:#ef3e42" />
</g>
<g
   id="LWPOLYLINE_451_"
   transform="translate(-49.609,-8.8369999)">
	<path
   d="m 68.216,203.06 h 458.687 c 3.439,0 6.189,-2.751 6.189,-6.189 V 27.424 c 0,-3.418 -2.75,-6.229 -6.189,-6.229 H 68.216 c -3.438,0 -6.229,2.812 -6.229,6.229 V 196.87 c -0.001,3.439 2.79,6.19 6.229,6.19 z"
   id="path3752"
   inkscape:connector-curvature="0"
   style="fill:#ffd200" />
</g>
<g
   id="LWPOLYLINE_453_"
   transform="translate(-49.609,-8.8369999)">
	<path
   d="m 158.663,73.294 h 9.789 c 6.978,0 12.54,-5.622 12.54,-12.641 v -1.921 c 0,-7.019 -5.562,-12.742 -12.54,-12.742 h -17.13 v 49.633 h 7.341 z"
   id="path3755"
   inkscape:connector-curvature="0" />
</g>
<g
   id="LWPOLYLINE_452_"
   transform="translate(-49.609,-8.8369999)">
	<path
   d="m 158.663,65.872 h 9.789 c 2.913,0 5.218,-2.347 5.218,-5.219 v -1.921 c 0,-2.953 -2.306,-5.218 -5.218,-5.218 h -9.789 z"
   id="path3758"
   inkscape:connector-curvature="0"
   style="fill:#ffd200" />
</g>
<g
   id="LWPOLYLINE_454_"
   transform="translate(-49.609,-8.8369999)">
	<path
   d="m 201.864,83.245 h 7.503 c 0,6.877 -5.542,12.378 -12.418,12.378 -6.816,0 -12.378,-5.501 -12.378,-12.378 V 70.867 c 0,-6.876 5.562,-12.418 12.378,-12.418 6.876,0 12.418,5.542 12.418,12.418 v 6.917 h -17.454 v 5.461 c 0,2.67 2.285,4.996 5.036,4.996 2.791,0 4.915,-2.326 4.915,-4.996 z"
   id="path3761"
   inkscape:connector-curvature="0" />
</g>
<g
   id="LWPOLYLINE_455_"
   transform="translate(-49.609,-8.8369999)">
	<path
   d="m 191.913,71.353 h 9.951 c 0,-3.276 -2.124,-5.48 -4.915,-5.48 -2.751,-0.001 -5.036,2.203 -5.036,5.48 z"
   id="path3764"
   inkscape:connector-curvature="0"
   style="fill:#ffd200" />
</g>
<g
   id="LWPOLYLINE_456_"
   transform="translate(-49.609,-8.8369999)">
	<rect
   x="218.30701"
   y="45.990002"
   width="7.3410001"
   height="49.632999"
   id="rect3767" />
</g>
<g
   id="LWPOLYLINE_457_"
   transform="translate(-49.609,-8.8369999)">
	<path
   d="m 258.434,95.623 h -7.503 v -2.346 c -2.913,1.617 -6.189,2.427 -9.627,2.346 -3.074,0.081 -5.865,-1.881 -6.816,-4.713 -1.153,-3.822 -0.162,-7.988 2.589,-10.86 3.742,-3.843 8.616,-6.189 13.854,-6.594 v -3.822 c 0,-2.124 -1.638,-3.762 -3.6,-3.762 -2.104,0 -3.742,1.638 -3.742,3.762 h -7.503 c 0,-6.189 5.056,-11.185 11.245,-11.185 6.027,0 11.104,4.995 11.104,11.185 v 25.989 z"
   id="path3770"
   inkscape:connector-curvature="0" />
</g>
<g
   id="LWPOLYLINE_458_"
   transform="translate(-49.609,-8.8369999)">
	<path
   d="m 250.93,78.29 c -2.427,0.647 -4.712,1.76 -6.674,3.397 -1.78,1.558 -2.791,3.742 -2.629,6.108 0,1.477 1.153,2.71 2.791,2.629 2.447,-0.303 4.551,-1.071 6.513,-2.104 V 78.29 Z"
   id="path3773"
   inkscape:connector-curvature="0"
   style="fill:#ffd200" />
</g>
<g
   id="LWPOLYLINE_459_"
   transform="translate(-49.609,-8.8369999)">
	<path
   d="m 265.411,83.245 c 0,6.877 5.562,12.378 12.418,12.378 h 0.971 c 6.027,0 10.922,-4.874 10.922,-10.901 0,-3.822 -2.104,-7.504 -5.542,-9.466 l -8.13,-4.712 c -0.85,-0.506 -1.335,-1.314 -1.335,-2.225 0,-1.295 1.173,-2.447 2.649,-2.447 h 1.436 c 1.315,0 2.468,1.152 2.468,2.447 h 7.463 c 0,-5.44 -4.551,-9.87 -9.931,-9.87 h -1.436 c -5.562,0 -9.991,4.43 -9.991,9.87 0,3.6 1.8,6.856 4.915,8.575 l 8.292,4.793 c 1.011,0.668 1.659,1.801 1.659,3.034 0,1.962 -1.659,3.52 -3.438,3.52 h -0.971 c -2.791,0 -5.056,-2.326 -5.056,-4.996 z"
   id="path3776"
   inkscape:connector-curvature="0" />
</g>
<g
   id="LWPOLYLINE_460_"
   transform="translate(-49.609,-8.8369999)">
	<path
   d="m 306.854,58.449 h 4.084 v 7.423 h -4.084 v 18.102 c 0,2.306 1.799,4.268 4.084,4.268 v 7.382 c -6.391,0 -11.588,-5.198 -11.588,-11.649 V 65.872 h -4.228 v -7.423 h 4.228 V 45.99 h 7.504 z"
   id="path3779"
   inkscape:connector-curvature="0" />
</g>
<g
   id="LWPOLYLINE_461_"
   transform="translate(-49.609,-8.8369999)">
	<path
   d="M 317.43,86.44 V 58.449 h 7.525 v 26.272 c 0,2.751 2.104,4.955 4.854,4.955 2.791,0 5.076,-2.204 5.076,-4.955 V 58.449 h 7.361 v 37.174 h -7.361 V 92.63 c -2.588,1.638 -5.541,2.589 -8.475,2.993 -4.894,0 -8.98,-4.005 -8.98,-9.183 z"
   id="path3782"
   inkscape:connector-curvature="0" />
</g>
<g
   id="LWPOLYLINE_462_"
   transform="translate(-49.609,-8.8369999)">
	<path
   d="m 350.215,83.245 c 0,6.877 5.543,12.378 12.379,12.378 h 1.012 c 5.986,0 10.881,-4.874 10.881,-10.901 0,-3.822 -2.145,-7.504 -5.381,-9.466 l -8.332,-4.712 c -0.648,-0.506 -1.092,-1.314 -1.092,-2.225 0,-1.295 0.93,-2.447 2.426,-2.447 h 1.498 c 1.254,0 2.426,1.152 2.426,2.447 h 7.523 c 0,-5.44 -4.449,-9.87 -9.949,-9.87 h -1.498 c -5.541,0 -9.91,4.43 -9.91,9.87 0,3.6 1.779,6.856 4.854,8.575 l 8.334,4.793 c 0.971,0.668 1.617,1.801 1.617,3.034 0,1.962 -1.455,3.52 -3.396,3.52 h -1.012 c -2.752,0 -5.057,-2.326 -5.057,-4.996 z"
   id="path3785"
   inkscape:connector-curvature="0" />
</g>
<g
   id="LWPOLYLINE_463_"
   transform="translate(-49.609,-8.8369999)">
	<path
   d="m 391.596,58.449 h 4.248 v 7.423 h -4.248 v 18.102 c 0,2.306 1.82,4.268 4.248,4.268 v 7.382 c -6.514,0 -11.73,-5.198 -11.73,-11.649 V 65.872 h -4.248 v -7.423 h 4.248 V 45.99 h 7.482 z"
   id="path3788"
   inkscape:connector-curvature="0" />
</g>
<g
   id="LWPOLYLINE_464_"
   transform="translate(-49.609,-8.8369999)">
	<rect
   x="403.164"
   y="58.449001"
   width="7.5250001"
   height="37.174"
   id="rect3791" />
</g>
<g
   id="LWPOLYLINE_465_"
   transform="translate(-49.609,-8.8369999)">
	<rect
   x="403.164"
   y="45.990002"
   width="7.5250001"
   height="7.5240002"
   id="rect3794" />
</g>
<g
   id="LWPOLYLINE_466_"
   transform="translate(-49.609,-8.8369999)">
	<path
   d="m 436.416,83.245 h 7.523 c 0,6.877 -5.543,12.378 -12.379,12.378 -6.875,0 -12.377,-5.501 -12.377,-12.378 V 70.867 c 0,-6.876 5.502,-12.418 12.377,-12.418 6.836,0 12.379,5.542 12.379,12.418 v 6.917 h -17.436 v 5.461 c 0,2.67 2.307,4.996 5.057,4.996 2.753,0 4.856,-2.326 4.856,-4.996 z"
   id="path3797"
   inkscape:connector-curvature="0" />
</g>
<g
   id="LWPOLYLINE_467_"
   transform="translate(-49.609,-8.8369999)">
	<path
   d="m 426.504,71.353 h 9.912 c 0,-3.276 -2.104,-5.48 -4.855,-5.48 -2.75,-0.001 -5.057,2.203 -5.057,5.48 z"
   id="path3800"
   inkscape:connector-curvature="0"
   style="fill:#ffd200" />
</g>
<g
   id="LWPOLYLINE_468_"
   transform="translate(-49.609,-8.8369999)">
	<path
   d="m 120.033,155.935 v 22.369 h -7.362 v -49.593 h 17.13 c 6.877,0 12.58,5.623 12.58,12.661 v 1.962 c 0,5.299 -3.276,10.093 -8.353,11.893 l 8.353,23.077 h -8.029 l -7.989,-22.369 z"
   id="path3803"
   inkscape:connector-curvature="0" />
</g>
<g
   id="LWPOLYLINE_470_"
   transform="translate(-49.609,-8.8369999)">
	<rect
   x="164.69"
   y="128.711"
   width="7.5240002"
   height="7.4429998"
   id="rect3806" />
</g>
<g
   id="LWPOLYLINE_471_"
   transform="translate(-49.609,-8.8369999)">
	<rect
   x="151.321"
   y="128.711"
   width="7.3410001"
   height="7.4429998"
   id="rect3809" />
</g>
<g
   id="LWPOLYLINE_472_"
   transform="translate(-49.609,-8.8369999)">
	<path
   d="m 173.164,178.304 h -7.503 v -2.407 c -2.912,1.639 -6.351,2.488 -9.789,2.407 -2.912,0.081 -5.663,-1.881 -6.674,-4.753 -1.314,-3.822 -0.142,-7.989 2.609,-10.739 3.58,-3.924 8.656,-6.271 13.854,-6.715 v -3.823 c 0,-2.123 -1.598,-3.762 -3.721,-3.762 -1.962,0 -3.6,1.639 -3.6,3.762 h -7.504 c 0,-6.188 4.875,-11.144 11.104,-11.144 6.189,0 11.225,4.955 11.225,11.144 v 26.03 z"
   id="path3812"
   inkscape:connector-curvature="0" />
</g>
<g
   id="LWPOLYLINE_469_"
   transform="translate(-49.609,-8.8369999)">
	<path
   d="m 120.033,148.512 h 9.769 c 2.792,0 5.077,-2.346 5.077,-5.178 v -1.962 c 0,-2.952 -2.285,-5.218 -5.077,-5.218 h -9.769 z"
   id="path3815"
   inkscape:connector-curvature="0"
   style="fill:#ffd200" />
</g>
<g
   id="LWPOLYLINE_473_"
   transform="translate(-49.609,-8.8369999)">
	<path
   d="m 165.661,160.93 c -2.447,0.647 -4.712,1.801 -6.674,3.52 -1.8,1.437 -2.75,3.62 -2.75,6.027 0.162,1.436 1.274,2.67 2.75,2.67 2.589,-0.385 4.712,-1.153 6.674,-2.205 z"
   id="path3818"
   inkscape:connector-curvature="0"
   style="fill:#ffd200" />
</g>
<g
   id="LWPOLYLINE_474_"
   transform="translate(-49.609,-8.8369999)">
	<path
   d="m 180.991,150.231 0.162,20.487 c 0.829,4.228 4.429,7.383 8.818,7.585 2.913,-0.445 5.866,-1.396 8.454,-2.953 v 2.953 h 7.504 V 128.71 h -7.504 v 15.331 c -2.588,-1.558 -5.38,-2.589 -8.454,-2.912 -4.914,0.001 -8.98,4.005 -8.98,9.102 z"
   id="path3821"
   inkscape:connector-curvature="0" />
</g>
<g
   id="LWPOLYLINE_475_"
   transform="translate(-49.609,-8.8369999)">
	<path
   d="m 198.425,152.031 v 15.33 c 0,2.751 -2.265,4.996 -4.854,4.996 -2.811,0 -5.076,-2.245 -5.076,-4.996 v -15.33 c 0,-2.751 2.265,-4.955 5.076,-4.955 2.589,0 4.854,2.204 4.854,4.955 z"
   id="path3824"
   inkscape:connector-curvature="0"
   style="fill:#ffd200" />
</g>
<g
   id="LWPOLYLINE_476_"
   transform="translate(-49.609,-8.8369999)">
	<path
   d="m 214.768,150.231 v 20.487 c 0.951,4.228 4.551,7.383 8.939,7.585 2.953,-0.445 5.865,-1.396 8.454,-2.953 v 2.953 h 7.342 V 128.71 h -7.342 v 15.331 c -2.589,-1.558 -5.501,-2.589 -8.454,-2.912 -4.874,0.001 -8.939,4.005 -8.939,9.102 z"
   id="path3827"
   inkscape:connector-curvature="0" />
</g>
<g
   id="LWPOLYLINE_477_"
   transform="translate(-49.609,-8.8369999)">
	<path
   d="m 232.161,152.031 v 15.33 c 0,2.751 -2.265,4.996 -5.016,4.996 -2.609,0 -4.915,-2.245 -4.915,-4.996 v -15.33 c 0,-2.751 2.306,-4.955 4.915,-4.955 2.751,0 5.016,2.204 5.016,4.955 z"
   id="path3830"
   inkscape:connector-curvature="0"
   style="fill:#ffd200" />
</g>
<g
   id="LWPOLYLINE_478_"
   transform="translate(-49.609,-8.8369999)">
	<path
   d="m 274.25,150.231 v 28.072 h -7.341 v -26.272 c 0,-2.751 -2.286,-4.955 -5.036,-4.955 -2.791,0 -4.915,2.204 -4.915,4.955 v 26.272 h -7.503 V 141.13 h 7.503 v 2.912 c 2.589,-1.558 5.38,-2.589 8.454,-2.912 4.914,0 8.838,4.004 8.838,9.101 z"
   id="path3833"
   inkscape:connector-curvature="0" />
</g>
<g
   id="LWPOLYLINE_479_"
   transform="translate(-49.609,-8.8369999)">
	<rect
   x="283.229"
   y="141.13"
   width="7.4629998"
   height="37.174"
   id="rect3836" />
</g>
<g
   id="LWPOLYLINE_480_"
   transform="translate(-49.609,-8.8369999)">
	<rect
   x="283.229"
   y="128.711"
   width="7.4629998"
   height="7.4429998"
   id="rect3839" />
</g>
<g
   id="LWPOLYLINE_481_"
   transform="translate(-49.609,-8.8369999)">
	<path
   d="m 325.42,150.231 v 28.072 h -7.504 v -26.272 c 0,-2.751 -2.104,-4.955 -4.875,-4.955 -2.791,0 -5.057,2.204 -5.057,4.955 v 26.272 h -7.361 V 141.13 h 7.361 v 2.912 c 2.631,-1.558 5.543,-2.589 8.496,-2.912 4.874,0 8.94,4.004 8.94,9.101 z"
   id="path3842"
   inkscape:connector-curvature="0" />
</g>
<g
   id="LWPOLYLINE_482_"
   transform="translate(-49.609,-8.8369999)">
	<path
   d="m 350.215,176.342 c -2.629,1.517 -5.379,2.609 -8.535,2.912 -4.854,0 -8.918,-3.984 -8.918,-8.858 0,-0.283 0,-20.73 0,-20.73 0.971,-4.228 4.551,-7.402 8.918,-7.564 2.994,0.384 5.906,1.375 8.535,2.953 v -2.953 h 7.322 v 34.241 c 0,1.679 -0.324,3.397 -0.971,4.955 -2.75,6.027 -9.951,8.535 -15.816,5.784 l 3.115,-6.755 c 2.266,1.052 4.854,0.081 5.865,-2.104 0.323,-0.607 0.485,-1.234 0.485,-1.881 z"
   id="path3845"
   inkscape:connector-curvature="0" />
</g>
<g
   id="LWPOLYLINE_483_"
   transform="translate(-49.609,-8.8369999)">
	<path
   d="m 340.305,168.353 c 0,2.751 2.266,4.955 4.855,4.955 2.75,0 5.055,-2.204 5.055,-4.955 v -15.33 c 0,-2.791 -2.305,-4.976 -5.055,-4.976 -2.59,0 -4.855,2.185 -4.855,4.976 z"
   id="path3848"
   inkscape:connector-curvature="0"
   style="fill:#ffd200" />
</g>
<g
   id="LWPOLYLINE_484_"
   transform="translate(-49.609,-8.8369999)">
	<path
   d="m 364.576,165.886 c 0,6.876 5.5,12.418 12.377,12.418 h 0.971 c 6.027,0 10.922,-4.915 10.922,-10.942 0,-3.822 -1.941,-7.422 -5.381,-9.384 l -8.291,-4.794 C 374.486,152.698 374,151.869 374,151 c 0,-1.335 1.174,-2.488 2.469,-2.488 h 1.455 c 1.457,0 2.428,1.153 2.428,2.488 h 7.523 c 0,-5.481 -4.41,-9.87 -9.951,-9.87 h -1.455 c -5.584,0 -9.951,4.389 -9.951,9.87 0,3.539 1.941,6.815 4.895,8.615 l 8.291,4.753 c 0.971,0.627 1.658,1.76 1.658,2.993 0,1.962 -1.496,3.52 -3.438,3.52 h -0.971 c -2.791,0 -4.895,-2.285 -4.895,-4.995 z"
   id="path3851"
   inkscape:connector-curvature="0" />
</g>
<g
   id="LWPOLYLINE_485_"
   transform="translate(-49.609,-8.8369999)">
	<polygon
   points="411.174,178.304 421.125,141.13 413.602,141.13 407.453,164.368 401.223,141.13 393.861,141.13 403.65,178.304 "
   id="polygon3854" />
</g>
<g
   id="LWPOLYLINE_486_"
   transform="translate(-49.609,-8.8369999)">
	<rect
   x="441.99799"
   y="128.711"
   width="7.2810001"
   height="7.4429998"
   id="rect3857" />
</g>
<g
   id="LWPOLYLINE_487_"
   transform="translate(-49.609,-8.8369999)">
	<rect
   x="428.64801"
   y="128.711"
   width="7.322"
   height="7.4429998"
   id="rect3860" />
</g>
<g
   id="LWPOLYLINE_488_"
   transform="translate(-49.609,-8.8369999)">
	<path
   d="m 450.33,178.304 h -7.361 v -2.407 c -3.074,1.639 -6.393,2.488 -9.789,2.407 -3.074,0.081 -5.906,-1.881 -6.836,-4.753 -1.174,-3.822 -0.162,-7.989 2.75,-10.739 3.6,-3.924 8.453,-6.271 13.875,-6.715 v -3.823 c 0,-2.123 -1.658,-3.762 -3.762,-3.762 -2.145,0 -3.762,1.639 -3.762,3.762 h -7.443 c 0,-6.188 5.016,-11.144 11.205,-11.144 6.188,0 11.123,4.955 11.123,11.144 z"
   id="path3863"
   inkscape:connector-curvature="0" />
</g>
<g
   id="LWPOLYLINE_489_"
   transform="translate(-49.609,-8.8369999)">
	<path
   d="m 442.969,160.93 c -2.428,0.647 -4.855,1.801 -6.836,3.52 -1.66,1.437 -2.631,3.62 -2.631,6.027 0,1.436 1.295,2.67 2.791,2.67 2.59,-0.385 4.734,-1.153 6.676,-2.205 z"
   id="path3866"
   inkscape:connector-curvature="0"
   style="fill:#ffd200" />
</g>
<g
   id="LWPOLYLINE_490_"
   transform="translate(-49.609,-8.8369999)">
	<path
   d="m 475.248,176.342 c -2.629,1.517 -5.543,2.609 -8.494,2.912 -4.855,0 -8.941,-3.984 -8.941,-8.858 0,-0.283 0,-20.73 0,-20.73 0.77,-4.228 4.572,-7.402 8.941,-7.564 2.951,0.384 5.865,1.375 8.494,2.953 v -2.953 h 7.281 v 34.241 c 0,1.679 -0.283,3.397 -1.094,4.955 -2.791,6.027 -9.748,8.535 -15.814,5.784 l 3.234,-6.755 c 2.186,1.052 4.936,0.081 5.906,-2.104 0.325,-0.607 0.487,-1.234 0.487,-1.881 z"
   id="path3869"
   inkscape:connector-curvature="0" />
</g>
<g
   id="LWPOLYLINE_491_"
   transform="translate(-49.609,-8.8369999)">
	<path
   d="m 465.297,168.353 c 0,2.751 2.104,4.955 4.854,4.955 2.832,0 5.098,-2.204 5.098,-4.955 v -15.33 c 0,-2.791 -2.266,-4.976 -5.098,-4.976 -2.75,0 -4.854,2.185 -4.854,4.976 z"
   id="path3872"
   inkscape:connector-curvature="0"
   style="fill:#ffd200" />
</g>
<g
   id="LWPOLYLINE_492_"
   transform="translate(-49.609,-8.8369999)">
	<rect
   x="49.609001"
   y="374.40701"
   width="496.06299"
   height="165.34"
   id="rect3875"
   style="fill:#ffd200" />
</g>
<g
   id="LWPOLYLINE_493_"
   transform="translate(-49.609,-8.8369999)">
	<path
   d="m 68.216,539.747 h 458.687 c 10.275,0 18.77,-8.373 18.77,-18.647 V 393.034 c 0,-10.254 -8.494,-18.627 -18.77,-18.627 H 68.216 c -10.315,0 -18.607,8.373 -18.607,18.627 V 521.1 c 0,10.274 8.292,18.647 18.607,18.647 z"
   id="path3878"
   inkscape:connector-curvature="0"
   style="fill:#ef3e42" />
</g>
<g
   id="LWPOLYLINE_494_"
   transform="translate(-49.609,-8.8369999)">
	<path
   d="m 68.216,527.329 h 458.687 c 3.439,0 6.189,-2.791 6.189,-6.229 V 393.034 c 0,-3.378 -2.75,-6.249 -6.189,-6.249 H 68.216 c -3.438,0 -6.229,2.871 -6.229,6.249 V 521.1 c -0.001,3.438 2.79,6.229 6.229,6.229 z"
   id="path3881"
   inkscape:connector-curvature="0"
   style="fill:#ffd200" />
</g>
<g
   id="LWPOLYLINE_496_"
   transform="translate(-49.609,-8.8369999)">
	<path
   d="m 158.663,459.534 h 9.789 c 6.978,0 12.54,-5.663 12.54,-12.6 v -2.022 c 0,-6.958 -5.562,-12.661 -12.54,-12.661 h -17.13 v 49.652 h 7.341 z"
   id="path3884"
   inkscape:connector-curvature="0" />
</g>
<g
   id="LWPOLYLINE_495_"
   transform="translate(-49.609,-8.8369999)">
	<path
   d="m 158.663,452.173 h 9.789 c 2.913,0 5.218,-2.407 5.218,-5.238 v -2.022 c 0,-2.853 -2.306,-5.239 -5.218,-5.239 h -9.789 z"
   id="path3887"
   inkscape:connector-curvature="0"
   style="fill:#ffd200" />
</g>
<g
   id="LWPOLYLINE_497_"
   transform="translate(-49.609,-8.8369999)">
	<path
   d="m 201.864,469.525 h 7.503 c 0,6.836 -5.542,12.378 -12.418,12.378 -6.816,0 -12.378,-5.542 -12.378,-12.378 v -12.499 c 0,-6.815 5.562,-12.357 12.378,-12.357 6.876,0 12.418,5.542 12.418,12.357 v 7.038 h -17.454 v 5.461 c 0,2.711 2.285,4.895 5.036,4.895 2.791,0 4.915,-2.184 4.915,-4.895 z"
   id="path3890"
   inkscape:connector-curvature="0" />
</g>
<g
   id="LWPOLYLINE_498_"
   transform="translate(-49.609,-8.8369999)">
	<path
   d="m 191.913,457.593 h 9.951 c 0,-3.236 -2.124,-5.42 -4.915,-5.42 -2.751,0 -5.036,2.183 -5.036,5.42 z"
   id="path3893"
   inkscape:connector-curvature="0"
   style="fill:#ffd200" />
</g>
<g
   id="LWPOLYLINE_499_"
   transform="translate(-49.609,-8.8369999)">
	<rect
   x="218.30701"
   y="432.25101"
   width="7.3410001"
   height="49.652"
   id="rect3896" />
</g>
<g
   id="LWPOLYLINE_500_"
   transform="translate(-49.609,-8.8369999)">
	<path
   d="m 258.434,481.903 h -7.503 v -2.427 c -2.913,1.577 -6.189,2.427 -9.627,2.427 -3.074,0.081 -5.865,-1.901 -6.816,-4.732 -1.153,-3.803 -0.162,-8.009 2.589,-10.841 3.742,-3.803 8.616,-6.229 13.854,-6.634 v -3.883 c 0,-2.023 -1.638,-3.641 -3.6,-3.641 -2.104,0 -3.742,1.617 -3.742,3.641 h -7.503 c 0,-6.129 5.056,-11.145 11.245,-11.145 6.027,0 11.104,5.016 11.104,11.145 v 26.09 z"
   id="path3899"
   inkscape:connector-curvature="0" />
</g>
<g
   id="LWPOLYLINE_501_"
   transform="translate(-49.609,-8.8369999)">
	<path
   d="m 250.93,464.551 c -2.427,0.565 -4.712,1.779 -6.674,3.397 -1.78,1.577 -2.791,3.802 -2.629,6.067 0,1.537 1.153,2.67 2.791,2.67 2.447,-0.404 4.551,-1.133 6.513,-2.104 v -10.03 z"
   id="path3902"
   inkscape:connector-curvature="0"
   style="fill:#ffd200" />
</g>
<g
   id="LWPOLYLINE_502_"
   transform="translate(-49.609,-8.8369999)">
	<path
   d="m 265.411,469.525 c 0,6.836 5.562,12.378 12.418,12.378 h 0.971 c 6.027,0 10.922,-4.895 10.922,-10.962 0,-3.883 -2.104,-7.483 -5.542,-9.465 l -8.13,-4.773 c -0.85,-0.404 -1.335,-1.214 -1.335,-2.104 0,-1.375 1.173,-2.427 2.649,-2.427 h 1.436 c 1.315,0 2.468,1.052 2.468,2.427 h 7.463 c 0,-5.481 -4.551,-9.931 -9.931,-9.931 h -1.436 c -5.562,0 -9.991,4.449 -9.991,9.931 0,3.52 1.8,6.715 4.915,8.575 l 8.292,4.773 c 1.011,0.647 1.659,1.82 1.659,2.993 0,1.901 -1.659,3.479 -3.438,3.479 h -0.971 c -2.791,0 -5.056,-2.184 -5.056,-4.895 h -7.363 z"
   id="path3905"
   inkscape:connector-curvature="0" />
</g>
<g
   id="LWPOLYLINE_503_"
   transform="translate(-49.609,-8.8369999)">
	<path
   d="m 306.854,444.669 h 4.084 v 7.504 h -4.084 v 18.081 c 0,2.265 1.799,4.166 4.084,4.166 v 7.483 c -6.391,0 -11.588,-5.218 -11.588,-11.649 v -18.081 h -4.228 v -7.504 h 4.228 v -12.418 h 7.504 z"
   id="path3908"
   inkscape:connector-curvature="0" />
</g>
<g
   id="LWPOLYLINE_504_"
   transform="translate(-49.609,-8.8369999)">
	<path
   d="m 317.43,472.681 v -28.012 h 7.525 v 26.272 c 0,2.751 2.104,5.016 4.854,5.016 2.791,0 5.076,-2.265 5.076,-5.016 v -26.272 h 7.361 v 37.234 h -7.361 v -3.033 c -2.588,1.617 -5.541,2.669 -8.475,3.033 -4.894,0 -8.98,-4.005 -8.98,-9.222 z"
   id="path3911"
   inkscape:connector-curvature="0" />
</g>
<g
   id="LWPOLYLINE_505_"
   transform="translate(-49.609,-8.8369999)">
	<path
   d="m 350.215,469.525 c 0,6.836 5.543,12.378 12.379,12.378 h 1.012 c 5.986,0 10.881,-4.895 10.881,-10.962 0,-3.883 -2.145,-7.483 -5.381,-9.465 l -8.332,-4.773 c -0.648,-0.404 -1.092,-1.214 -1.092,-2.104 0,-1.375 0.93,-2.427 2.426,-2.427 h 1.498 c 1.254,0 2.426,1.052 2.426,2.427 h 7.523 c 0,-5.481 -4.449,-9.931 -9.949,-9.931 h -1.498 c -5.541,0 -9.91,4.449 -9.91,9.931 0,3.52 1.779,6.715 4.854,8.575 l 8.334,4.773 c 0.971,0.647 1.617,1.82 1.617,2.993 0,1.901 -1.455,3.479 -3.396,3.479 h -1.012 c -2.752,0 -5.057,-2.184 -5.057,-4.895 h -7.323 z"
   id="path3914"
   inkscape:connector-curvature="0" />
</g>
<g
   id="LWPOLYLINE_506_"
   transform="translate(-49.609,-8.8369999)">
	<path
   d="m 391.596,444.669 h 4.248 v 7.504 h -4.248 v 18.081 c 0,2.265 1.82,4.166 4.248,4.166 v 7.483 c -6.514,0 -11.73,-5.218 -11.73,-11.649 v -18.081 h -4.248 v -7.504 h 4.248 v -12.418 h 7.482 z"
   id="path3917"
   inkscape:connector-curvature="0" />
</g>
<g
   id="LWPOLYLINE_507_"
   transform="translate(-49.609,-8.8369999)">
	<rect
   x="403.164"
   y="444.66901"
   width="7.5250001"
   height="37.234001"
   id="rect3920" />
</g>
<g
   id="LWPOLYLINE_508_"
   transform="translate(-49.609,-8.8369999)">
	<rect
   x="403.164"
   y="432.25101"
   width="7.5250001"
   height="7.4219999"
   id="rect3923" />
</g>
<g
   id="LWPOLYLINE_509_"
   transform="translate(-49.609,-8.8369999)">
	<path
   d="m 436.416,469.525 h 7.523 c 0,6.836 -5.543,12.378 -12.379,12.378 -6.875,0 -12.377,-5.542 -12.377,-12.378 v -12.499 c 0,-6.815 5.502,-12.357 12.377,-12.357 6.836,0 12.379,5.542 12.379,12.357 v 7.038 h -17.436 v 5.461 c 0,2.711 2.307,4.895 5.057,4.895 2.753,0 4.856,-2.184 4.856,-4.895 z"
   id="path3926"
   inkscape:connector-curvature="0" />
</g>
<g
   id="LWPOLYLINE_510_"
   transform="translate(-49.609,-8.8369999)">
	<path
   d="m 426.504,457.593 h 9.912 c 0,-3.236 -2.104,-5.42 -4.855,-5.42 -2.75,0 -5.057,2.183 -5.057,5.42 z"
   id="path3929"
   inkscape:connector-curvature="0"
   style="fill:#ffd200" />
</g>
</svg>