<?xml version="1.0" encoding="UTF-8" standalone="no"?>
<!-- Generator: Adobe Illustrator 15.1.0, SVG Export Plug-In . SVG Version: 6.00 Build 0)  -->

<svg
   xmlns:dc="http://purl.org/dc/elements/1.1/"
   xmlns:cc="http://creativecommons.org/ns#"
   xmlns:rdf="http://www.w3.org/1999/02/22-rdf-syntax-ns#"
   xmlns:svg="http://www.w3.org/2000/svg"
   xmlns="http://www.w3.org/2000/svg"
   xmlns:sodipodi="http://sodipodi.sourceforge.net/DTD/sodipodi-0.dtd"
   xmlns:inkscape="http://www.inkscape.org/namespaces/inkscape"
   version="1.0"
   id="Layer_1"
   x="0px"
   y="0px"
   width="496.064"
   height="158.726"
   viewBox="0 0 496.06397 158.726"
   enable-background="new 0 0 595.28 841.89"
   xml:space="preserve"
   sodipodi:docname="871-1.svg"
   inkscape:version="0.92.5 (2060ec1f9f, 2020-04-08)"><metadata
   id="metadata3295"><rdf:RDF><cc:Work
       rdf:about=""><dc:format>image/svg+xml</dc:format><dc:type
         rdf:resource="http://purl.org/dc/dcmitype/StillImage" /></cc:Work></rdf:RDF></metadata><defs
   id="defs3293" /><sodipodi:namedview
   pagecolor="#ffffff"
   bordercolor="#666666"
   borderopacity="1"
   objecttolerance="10"
   gridtolerance="10"
   guidetolerance="10"
   inkscape:pageopacity="0"
   inkscape:pageshadow="2"
   inkscape:window-width="640"
   inkscape:window-height="480"
   id="namedview3291"
   showgrid="false"
   inkscape:zoom="0.28032165"
   inkscape:cx="248.03201"
   inkscape:cy="79.362993"
   inkscape:window-x="0"
   inkscape:window-y="0"
   inkscape:window-maximized="0"
   inkscape:current-layer="Layer_1" />
<g
   id="LWPOLYLINE_271_"
   transform="translate(-49.608,-341.582)">
	<rect
   x="49.608002"
   y="341.582"
   width="496.06299"
   height="158.726"
   id="rect3167"
   style="fill:#ffd200" />
</g>
<g
   id="LWPOLYLINE_272_"
   transform="translate(-49.608,-341.582)">
	<path
   d="m 60.753,500.308 h 473.799 c 6.143,0 11.12,-4.952 11.12,-11.119 V 352.75 c 0,-6.167 -4.978,-11.168 -11.12,-11.168 H 60.753 c -6.155,0 -11.145,5.001 -11.145,11.168 v 136.438 c 0,6.167 4.99,11.12 11.145,11.12 z"
   id="path3170"
   inkscape:connector-curvature="0"
   style="fill:#ef3e42" />
</g>
<g
   id="LWPOLYLINE_273_"
   transform="translate(-49.608,-341.582)">
	<path
   d="m 60.753,492.903 h 473.799 c 2.039,0 3.69,-1.676 3.69,-3.715 V 352.75 c 0,-2.064 -1.651,-3.715 -3.69,-3.715 H 60.753 c -2.04,0 -3.715,1.651 -3.715,3.715 v 136.438 c 0,2.04 1.675,3.715 3.715,3.715 z"
   id="path3173"
   inkscape:connector-curvature="0"
   style="fill:#ffd200" />
</g>
<g
   id="LWPOLYLINE_282_"
   transform="translate(-49.608,-341.582)">
	<path
   d="m 204.219,373.825 h 4.188 v 7.43 h -4.188 v 18.137 c 0,2.307 1.846,4.225 4.188,4.225 v 7.429 c -6.446,0 -11.739,-5.22 -11.739,-11.654 v -18.137 h -4.2 v -7.43 h 4.2 v -12.382 h 7.551 z"
   id="path3176"
   inkscape:connector-curvature="0" />
</g>
<g
   id="LWPOLYLINE_275_"
   transform="translate(-49.608,-341.582)">
	<polygon
   points="99.503,361.442 107.928,361.442 121.038,411.045 113.111,411.045 110.854,402.584 96.479,402.584 94.233,411.045 86.295,411.045 "
   id="polygon3179" />
</g>
<g
   id="LWPOLYLINE_274_"
   transform="translate(-49.608,-341.582)">
	<polygon
   points="103.715,373.825 109.104,395.154 98.228,395.154 "
   id="polygon3182"
   style="fill:#ffd200" />
</g>
<g
   id="LWPOLYLINE_276_"
   transform="translate(-49.608,-341.582)">
	<path
   d="m 135.411,373.825 v 36.261 c 0,6.009 -4.88,10.901 -10.853,10.901 h -0.971 l 0.971,-7.454 c 1.846,0 3.436,-1.554 3.436,-3.448 v -36.261 h 7.417 z"
   id="path3185"
   inkscape:connector-curvature="0" />
</g>
<g
   id="LWPOLYLINE_277_"
   transform="translate(-49.608,-341.582)">
	<rect
   x="127.994"
   y="361.44199"
   width="7.4169998"
   height="7.4299998"
   id="rect3188" />
</g>
<g
   id="LWPOLYLINE_278_"
   transform="translate(-49.608,-341.582)">
	<path
   d="m 144.334,398.638 c 0,6.896 5.561,12.407 12.407,12.407 6.858,0 12.443,-5.511 12.443,-12.407 v -12.395 c 0,-6.859 -5.585,-12.419 -12.443,-12.419 -6.847,0 -12.407,5.56 -12.407,12.419 z"
   id="path3191"
   inkscape:connector-curvature="0" />
</g>
<g
   id="LWPOLYLINE_279_"
   transform="translate(-49.608,-341.582)">
	<path
   d="m 151.86,398.638 c 0,2.719 2.149,4.978 4.881,4.978 2.756,0 4.989,-2.258 4.989,-4.978 v -12.395 c 0,-2.731 -2.233,-4.989 -4.989,-4.989 -2.731,0 -4.881,2.258 -4.881,4.989 z"
   id="path3194"
   inkscape:connector-curvature="0"
   style="fill:#ffd200" />
</g>
<g
   id="LWPOLYLINE_280_"
   transform="translate(-49.608,-341.582)">
	<rect
   x="178.07001"
   y="373.82501"
   width="7.454"
   height="37.220001"
   id="rect3197" />
</g>
<g
   id="LWPOLYLINE_281_"
   transform="translate(-49.608,-341.582)">
	<rect
   x="178.07001"
   y="361.44199"
   width="7.454"
   height="7.4299998"
   id="rect3200" />
</g>
<g
   id="LWPOLYLINE_283_"
   transform="translate(-49.608,-341.582)">
	<path
   d="m 224.468,373.825 h 4.188 v 7.43 h -4.188 v 18.137 c 0,2.307 1.955,4.225 4.188,4.225 v 7.429 c -6.349,0 -11.617,-5.22 -11.617,-11.654 v -18.137 h -4.225 v -7.43 h 4.225 v -12.382 h 7.429 z"
   id="path3203"
   inkscape:connector-curvature="0" />
</g>
<g
   id="LWPOLYLINE_284_"
   transform="translate(-49.608,-341.582)">
	<path
   d="m 258.993,411.045 h -7.43 v -2.403 c -3.047,1.639 -6.349,2.452 -9.772,2.403 -3.047,0.049 -5.778,-1.845 -6.762,-4.747 -1.177,-3.812 -0.194,-7.951 2.635,-10.755 3.617,-3.909 8.606,-6.301 13.899,-6.689 v -3.885 c 0,-2.064 -1.65,-3.715 -3.714,-3.715 -2.064,0 -3.715,1.651 -3.715,3.715 h -7.454 c 0,-6.155 5.014,-11.145 11.169,-11.145 6.154,0 11.144,4.99 11.144,11.145 z"
   id="path3206"
   inkscape:connector-curvature="0" />
</g>
<g
   id="LWPOLYLINE_285_"
   transform="translate(-49.608,-341.582)">
	<path
   d="m 251.563,393.698 c -2.537,0.619 -4.795,1.796 -6.762,3.447 -1.748,1.53 -2.731,3.739 -2.731,6.034 0.098,1.518 1.372,2.744 2.829,2.695 2.537,-0.388 4.698,-1.129 6.664,-2.161 z"
   id="path3209"
   inkscape:connector-curvature="0"
   style="fill:#ffd200" />
</g>
<g
   id="LWPOLYLINE_286_"
   transform="translate(-49.608,-341.582)">
	<rect
   x="267.90399"
   y="373.82501"
   width="7.4289999"
   height="37.220001"
   id="rect3212" />
</g>
<g
   id="LWPOLYLINE_287_"
   transform="translate(-49.608,-341.582)">
	<rect
   x="267.90399"
   y="361.44199"
   width="7.4289999"
   height="7.4299998"
   id="rect3215" />
</g>
<g
   id="LWPOLYLINE_288_"
   transform="translate(-49.608,-341.582)">
	<path
   d="m 310.077,383.002 v 28.042 h -7.454 v -26.27 c 0,-2.719 -2.221,-4.977 -4.977,-4.977 -2.731,0 -4.893,2.258 -4.893,4.977 v 26.27 h -7.526 v -37.22 h 7.526 v 2.975 c 2.537,-1.554 5.39,-2.586 8.413,-2.975 4.881,10e-4 8.911,4.007 8.911,9.178 z"
   id="path3218"
   inkscape:connector-curvature="0" />
</g>
<g
   id="LWPOLYLINE_289_"
   transform="translate(-49.608,-341.582)">
	<path
   d="m 334.927,398.638 c 0,6.896 5.487,12.407 12.334,12.407 h 0.972 c 6.069,0 10.974,-4.892 10.974,-10.901 0,-3.909 -2.063,-7.478 -5.39,-9.444 l -8.304,-4.795 c -0.729,-0.425 -1.189,-1.262 -1.189,-2.148 0,-1.372 1.093,-2.501 2.452,-2.501 h 1.457 c 1.359,0 2.524,1.129 2.524,2.501 h 7.479 c 0,-5.487 -4.516,-9.931 -10.003,-9.931 h -1.457 c -5.487,0 -9.882,4.443 -9.882,9.931 0,3.521 1.846,6.798 4.881,8.546 l 8.23,4.795 c 1.093,0.644 1.748,1.821 1.748,3.047 0,1.918 -1.578,3.472 -3.521,3.472 h -0.972 c -2.743,0 -4.904,-2.258 -4.904,-4.978 h -7.429 z"
   id="path3221"
   inkscape:connector-curvature="0" />
</g>
<g
   id="LWPOLYLINE_290_"
   transform="translate(-49.608,-341.582)">
	<path
   d="m 366.636,401.843 v -28.019 h 7.43 v 26.319 c 0,2.731 2.233,4.929 5.002,4.929 2.719,0 5.001,-2.197 5.001,-4.929 v -26.319 h 7.405 v 37.22 h -7.405 v -2.974 c -2.671,1.615 -5.487,2.586 -8.521,2.974 -4.93,0.001 -8.912,-4.005 -8.912,-9.201 z"
   id="path3224"
   inkscape:connector-curvature="0" />
</g>
<g
   id="LWPOLYLINE_291_"
   transform="translate(-49.608,-341.582)">
	<path
   d="m 422.988,375.913 c -1.554,-1.311 -3.617,-2.088 -5.778,-2.088 -2.914,0.389 -5.852,1.42 -8.425,2.975 v -2.975 h -7.405 v 37.22 h 7.405 v -26.27 c 0,-2.719 2.282,-4.977 5.001,-4.977 2.72,0 4.904,2.258 4.904,4.977 v 26.27 h 7.527 v -26.27 c 0,-2.719 2.16,-4.977 4.904,-4.977 2.719,0 4.977,2.258 4.977,4.977 v 26.27 h 7.43 v -28.37 c -0.389,-4.747 -4.103,-8.559 -8.91,-8.85 -4.006,-0.498 -8.109,0.243 -11.63,2.088 z"
   id="path3227"
   inkscape:connector-curvature="0" />
</g>
<g
   id="LWPOLYLINE_292_"
   transform="translate(-49.608,-341.582)">
	<path
   d="m 451.468,401.843 v -28.019 h 7.43 v 26.319 c 0,2.731 2.233,4.929 5.002,4.929 2.719,0 4.977,-2.197 4.977,-4.929 v -26.319 h 7.43 v 37.22 h -7.43 v -2.974 c -2.646,1.615 -5.487,2.586 -8.521,2.974 -4.858,0.001 -8.888,-4.005 -8.888,-9.201 z"
   id="path3230"
   inkscape:connector-curvature="0" />
</g>
<g
   id="LWPOLYLINE_293_"
   transform="translate(-49.608,-341.582)">
	<path
   d="m 508.985,411.045 h -7.405 v -2.403 c -2.962,1.639 -6.409,2.452 -9.711,2.403 -3.133,0.049 -5.876,-1.845 -6.848,-4.747 -1.165,-3.812 -0.097,-7.951 2.72,-10.755 3.545,-3.909 8.522,-6.301 13.839,-6.689 v -3.885 c 0,-2.064 -1.699,-3.715 -3.738,-3.715 -2.04,0 -3.69,1.651 -3.69,3.715 h -7.479 c 0,-6.155 5.002,-11.145 11.169,-11.145 6.167,0 11.144,4.99 11.144,11.145 v 26.076 z"
   id="path3233"
   inkscape:connector-curvature="0" />
</g>
<g
   id="LWPOLYLINE_294_"
   transform="translate(-49.608,-341.582)">
	<path
   d="m 501.58,393.698 c -2.477,0.619 -4.807,1.796 -6.677,3.447 -1.748,1.53 -2.743,3.739 -2.743,6.034 0,1.518 1.263,2.744 2.841,2.695 2.549,-0.388 4.589,-1.129 6.579,-2.161 z"
   id="path3236"
   inkscape:connector-curvature="0"
   style="fill:#ffd200" />
</g>
<g
   id="LWPOLYLINE_295_"
   transform="translate(-49.608,-341.582)">
	<polygon
   points="149.603,438.348 137.196,438.348 137.196,480.545 129.742,480.545 129.742,438.348 117.323,438.348 117.323,430.918 149.603,430.918 "
   id="polygon3239" />
</g>
<g
   id="LWPOLYLINE_296_"
   transform="translate(-49.608,-341.582)">
	<rect
   x="154.495"
   y="443.29999"
   width="7.454"
   height="37.244999"
   id="rect3242" />
</g>
<g
   id="LWPOLYLINE_297_"
   transform="translate(-49.608,-341.582)">
	<rect
   x="154.495"
   y="430.918"
   width="7.454"
   height="7.4299998"
   id="rect3245" />
</g>
<g
   id="LWPOLYLINE_298_"
   transform="translate(-49.608,-341.582)">
	<path
   d="m 170.933,452.502 v 20.37 c 0.789,4.322 4.504,7.479 8.91,7.673 3.022,-0.438 5.876,-1.457 8.413,-2.962 v 2.962 h 7.429 v -49.627 h -7.429 v 15.345 c -2.537,-1.603 -5.391,-2.574 -8.413,-2.963 -4.88,0 -8.91,3.982 -8.91,9.202 z"
   id="path3248"
   inkscape:connector-curvature="0" />
</g>
<g
   id="LWPOLYLINE_299_"
   transform="translate(-49.608,-341.582)">
	<path
   d="m 188.256,454.201 v 15.418 c 0,2.743 -2.259,4.929 -4.989,4.929 -2.756,0 -4.881,-2.186 -4.881,-4.929 v -15.418 c 0,-2.743 2.125,-4.929 4.881,-4.929 2.73,0 4.989,2.186 4.989,4.929 z"
   id="path3251"
   inkscape:connector-curvature="0"
   style="fill:#ffd200" />
</g>
<g
   id="LWPOLYLINE_300_"
   transform="translate(-49.608,-341.582)">
	<polygon
   points="219.576,480.545 229.445,443.3 222.016,443.3 215.861,466.584 209.585,443.3 202.155,443.3 212.122,480.545 "
   id="polygon3254" />
</g>
<g
   id="LWPOLYLINE_301_"
   transform="translate(-49.608,-341.582)">
	<rect
   x="235.916"
   y="443.29999"
   width="7.4299998"
   height="37.244999"
   id="rect3257" />
</g>
<g
   id="LWPOLYLINE_302_"
   transform="translate(-49.608,-341.582)">
	<rect
   x="235.916"
   y="430.918"
   width="7.4299998"
   height="7.4299998"
   id="rect3260" />
</g>
<g
   id="LWPOLYLINE_303_"
   transform="translate(-49.608,-341.582)">
	<path
   d="m 251.272,468.113 c 0,6.847 5.56,12.432 12.419,12.432 h 0.983 c 6.058,0 10.95,-4.904 10.95,-10.926 0,-3.934 -2.04,-7.479 -5.463,-9.469 l -8.219,-4.759 c -0.789,-0.438 -1.178,-1.287 -1.178,-2.186 0,-1.359 1.08,-2.477 2.44,-2.477 h 1.469 c 1.359,0 2.44,1.117 2.44,2.477 h 7.551 c 0,-5.438 -4.504,-9.906 -9.991,-9.906 h -1.469 c -5.487,0 -9.991,4.468 -9.991,9.906 0,3.545 1.967,6.799 5.014,8.595 l 8.219,4.783 c 1.068,0.632 1.748,1.772 1.748,3.035 0,1.894 -1.554,3.447 -3.521,3.447 h -0.983 c -2.731,0 -4.989,-2.233 -4.989,-4.953 h -7.429 z"
   id="path3263"
   inkscape:connector-curvature="0" />
</g>
<g
   id="LWPOLYLINE_304_"
   transform="translate(-49.608,-341.582)">
	<path
   d="m 300.875,452.502 v 20.37 c 0.887,4.322 4.602,7.479 9.008,7.673 2.926,-0.438 5.778,-1.457 8.413,-2.962 v 2.962 h 7.43 v -49.627 h -7.43 v 15.345 c -2.537,-1.603 -5.487,-2.574 -8.413,-2.963 -5.001,0 -9.008,3.982 -9.008,9.202 z"
   id="path3266"
   inkscape:connector-curvature="0" />
</g>
<g
   id="LWPOLYLINE_305_"
   transform="translate(-49.608,-341.582)">
	<path
   d="m 318.296,454.201 v 15.418 c 0,2.743 -2.246,4.929 -4.978,4.929 -2.756,0 -5.014,-2.186 -5.014,-4.929 v -15.418 c 0,-2.743 2.258,-4.929 5.014,-4.929 2.732,0 4.978,2.186 4.978,4.929 z"
   id="path3269"
   inkscape:connector-curvature="0"
   style="fill:#ffd200" />
</g>
<g
   id="LWPOLYLINE_306_"
   transform="translate(-49.608,-341.582)">
	<rect
   x="335.60699"
   y="443.29999"
   width="7.4289999"
   height="37.244999"
   id="rect3272" />
</g>
<g
   id="LWPOLYLINE_307_"
   transform="translate(-49.608,-341.582)">
	<rect
   x="335.60699"
   y="430.918"
   width="7.4289999"
   height="7.4299998"
   id="rect3275" />
</g>
<g
   id="LWPOLYLINE_308_"
   transform="translate(-49.608,-341.582)">
	<path
   d="m 374.648,445.389 c -1.651,-1.36 -3.69,-2.089 -5.778,-2.089 -3.035,0.389 -5.876,1.36 -8.401,2.963 V 443.3 h -7.453 v 37.245 h 7.453 v -26.344 c 0,-2.743 2.161,-4.929 4.904,-4.929 2.72,0 4.953,2.186 4.953,4.929 v 26.344 h 7.43 v -26.344 c 0,-2.743 2.282,-4.929 5.025,-4.929 2.744,0 4.978,2.186 4.978,4.929 v 26.344 h 7.43 v -28.407 c -0.389,-4.759 -4.176,-8.546 -8.983,-8.838 -3.935,-0.51 -8.013,0.243 -11.558,2.089 z"
   id="path3278"
   inkscape:connector-curvature="0" />
</g>
<g
   id="LWPOLYLINE_309_"
   transform="translate(-49.608,-341.582)">
	<path
   d="m 425.731,445.389 c -1.554,-1.36 -3.642,-2.089 -5.778,-2.089 -2.913,0.389 -5.875,1.36 -8.4,2.963 V 443.3 h -7.43 v 37.245 h 7.43 v -26.344 c 0,-2.743 2.233,-4.929 4.953,-4.929 2.768,0 4.929,2.186 4.929,4.929 v 26.344 h 7.43 v -26.344 c 0,-2.743 2.258,-4.929 4.977,-4.929 2.769,0 5.002,2.186 5.002,4.929 v 26.344 h 7.43 v -28.407 c -0.389,-4.759 -4.225,-8.546 -8.911,-8.838 -4.008,-0.51 -8.134,0.243 -11.632,2.089 z"
   id="path3281"
   inkscape:connector-curvature="0" />
</g>
<g
   id="LWPOLYLINE_310_"
   transform="translate(-49.608,-341.582)">
	<path
   d="m 477.98,480.545 h -7.453 v -2.404 c -2.938,1.603 -6.24,2.452 -9.688,2.404 -3.011,0.048 -5.778,-1.894 -6.75,-4.759 -1.263,-3.836 -0.194,-7.964 2.671,-10.829 3.594,-3.86 8.498,-6.264 13.767,-6.652 v -3.885 c 0,-2.015 -1.651,-3.69 -3.715,-3.69 -2.039,0 -3.715,1.676 -3.715,3.69 h -7.405 c 0,-6.143 4.953,-11.12 11.12,-11.12 6.191,0 11.168,4.978 11.168,11.12 z"
   id="path3284"
   inkscape:connector-curvature="0" />
</g>
<g
   id="LWPOLYLINE_311_"
   transform="translate(-49.608,-341.582)">
	<path
   d="m 470.527,463.161 c -2.452,0.582 -4.783,1.748 -6.628,3.423 -1.797,1.578 -2.769,3.764 -2.769,6.07 0,1.505 1.312,2.743 2.865,2.694 2.525,-0.389 4.589,-1.141 6.531,-2.185 v -10.002 z"
   id="path3287"
   inkscape:connector-curvature="0"
   style="fill:#ffd200" />
</g>
</svg>