<?xml version="1.0" encoding="utf-8"?>
<!-- Generator: Adobe Illustrator 15.1.0, SVG Export Plug-In . SVG Version: 6.00 Build 0)  -->
<!DOCTYPE svg PUBLIC "-//W3C//DTD SVG 1.0//EN" "http://www.w3.org/TR/2001/REC-SVG-20010904/DTD/svg10.dtd">
<svg version="1.0" id="Layer_1" xmlns="http://www.w3.org/2000/svg" xmlns:xlink="http://www.w3.org/1999/xlink" x="0px" y="0px"
	 width="595.28px" height="841.89px" viewBox="0 0 595.28 841.89" enable-background="new 0 0 595.28 841.89" xml:space="preserve">
<g id="LWPOLYLINE_635_">
	<rect x="49.608" y="524.98" fill="#FFD200" width="496.063" height="247.993"/>
</g>
<g id="LWPOLYLINE_636_">
	<path fill="#EF3E42" d="M67.057,772.974h461.167c9.635,0,17.448-7.737,17.448-17.372V542.391c0-9.597-7.813-17.41-17.448-17.41
		H67.057c-9.615,0-17.448,7.813-17.448,17.41v213.211C49.608,765.236,57.441,772.974,67.057,772.974z"/>
</g>
<g id="LWPOLYLINE_637_">
	<path fill="#FFD200" d="M67.057,761.367h461.167c3.224,0,5.804-2.579,5.804-5.766V542.391c0-3.148-2.58-5.804-5.804-5.804H67.057
		c-3.205,0-5.803,2.655-5.803,5.804v213.211C61.254,758.788,63.852,761.367,67.057,761.367z"/>
</g>
<g id="LWPOLYLINE_638_">
	<path d="M162.302,612.602c0,9.406,7.644,16.993,17.107,16.993c9.312,0,16.955-7.587,16.955-16.993v-3.756
		c0-4.969-2.144-9.824-5.955-13.01c2.92-3.11,4.419-7.283,4.419-11.455v-1.214c0-8.572-6.847-15.552-15.419-15.552
		s-15.571,6.979-15.571,15.552v1.214h9.313v-1.214c0-3.452,2.73-6.221,6.259-6.221c3.356,0,6.106,2.769,6.106,6.221v1.214
		c0,4.097-3.187,7.396-7.34,7.396h-1.214v8.724h2.447c4.267,0,7.643,3.452,7.643,7.7v4.4c0,4.248-3.376,7.7-7.643,7.7
		c-4.268,0-7.795-3.452-7.795-7.7H162.302z"/>
</g>
<g id="LWPOLYLINE_639_">
	<rect x="227.392" y="594.015" width="20.18" height="9.218"/>
</g>
<g id="LWPOLYLINE_640_">
	<path d="M294.074,629.595h-9.368v-2.959c-3.661,2.048-7.928,3.034-12.044,2.959c-3.831,0.075-7.339-2.276-8.572-5.842
		c-1.384-4.855-0.151-10.014,3.357-13.579c4.608-4.779,10.715-7.738,17.259-8.27v-4.854c0-2.504-1.973-4.628-4.571-4.628
		c-2.579,0-4.59,2.124-4.59,4.628h-9.331c0-7.738,6.297-13.883,13.921-13.883c7.644,0,13.939,6.145,13.939,13.883V629.595z"/>
</g>
<g id="LWPOLYLINE_641_">
	<path fill="#FFD200" d="M284.706,607.974c-3.016,0.721-5.937,2.2-8.383,4.248c-2.125,1.935-3.357,4.704-3.357,7.624
		c0.152,1.783,1.669,3.338,3.509,3.263c3.224-0.455,5.804-1.328,8.231-2.655V607.974z"/>
</g>
<g id="LWPOLYLINE_642_">
	<polygon points="322.03,604.863 332.897,583.167 323.566,583.167 317.289,595.532 311.182,583.167 301.851,583.167 
		312.718,604.863 300.314,629.595 309.646,629.595 317.289,614.081 325.064,629.595 334.434,629.595 	"/>
</g>
<g id="LWPOLYLINE_643_">
	<rect x="341.906" y="567.615" width="9.179" height="61.979"/>
</g>
<g id="LWPOLYLINE_644_">
	<path d="M392.051,629.595h-9.331v-2.959c-3.642,2.048-7.966,3.034-12.1,2.959c-3.831,0.075-7.321-2.276-8.535-5.842
		c-1.517-4.855-0.151-10.014,3.338-13.579c4.477-4.779,10.697-7.738,17.297-8.27v-4.854c0-2.504-1.973-4.628-4.628-4.628
		c-2.579,0-4.703,2.124-4.703,4.628h-9.179c0-7.738,6.145-13.883,13.882-13.883c7.7,0,13.959,6.145,13.959,13.883V629.595z"/>
</g>
<g id="LWPOLYLINE_645_">
	<path fill="#FFD200" d="M382.72,607.974c-3.072,0.721-5.955,2.2-8.421,4.248c-2.124,1.935-3.376,4.704-3.376,7.624
		c0,1.783,1.707,3.338,3.528,3.263c3.186-0.455,5.841-1.328,8.269-2.655V607.974z"/>
</g>
<g id="LWPOLYLINE_646_">
	<path d="M401.989,594.622v25.451c1.062,5.425,5.613,9.294,11.151,9.521c3.642-0.418,7.32-1.669,10.545-3.642v3.642h9.331v-61.979
		h-9.331v19.192c-3.225-1.972-6.903-3.186-10.545-3.641C406.996,583.167,401.989,588.098,401.989,594.622z"/>
</g>
<g id="LWPOLYLINE_647_">
	<path fill="#FFD200" d="M423.686,596.746v19.269c0,3.414-2.731,6.221-6.259,6.221c-3.376,0-6.145-2.807-6.145-6.221v-19.269
		c0-3.414,2.769-6.145,6.145-6.145C420.954,590.602,423.686,593.332,423.686,596.746z"/>
</g>
<g id="LWPOLYLINE_648_">
	<path d="M167.498,695.367l-0.189,25.527c-0.892,5.349-5.5,9.293-11,9.521c-3.812-0.531-7.34-1.744-10.525-3.642v3.642h-9.313
		V668.36h9.313v19.269c3.186-2.011,6.714-3.262,10.525-3.793C162.454,683.836,167.498,688.843,167.498,695.367z"/>
</g>
<g id="LWPOLYLINE_649_">
	<path fill="#FFD200" d="M145.783,697.567v19.192c0,3.414,2.73,6.183,6.106,6.183c3.527,0,6.259-2.769,6.259-6.183v-19.192
		c0-3.414-2.731-6.297-6.259-6.297C148.514,691.271,145.783,694.153,145.783,697.567z"/>
</g>
<g id="LWPOLYLINE_650_">
	<path d="M177.418,714.901c0,8.572,6.884,15.514,15.438,15.514c8.572,0,15.457-6.941,15.457-15.514v-15.514
		c0-8.572-6.885-15.552-15.457-15.552c-8.554,0-15.438,6.979-15.438,15.552V714.901z"/>
</g>
<g id="LWPOLYLINE_651_">
	<path fill="#FFD200" d="M186.597,714.901c0,3.452,2.921,6.183,6.259,6.183c3.356,0,6.277-2.73,6.277-6.183v-15.514
		c0-3.414-2.921-6.145-6.277-6.145c-3.338,0-6.259,2.73-6.259,6.145V714.901z"/>
</g>
<g id="LWPOLYLINE_652_">
	<path d="M239.34,727.912c-3.224,1.972-6.732,3.262-10.563,3.717c-6.088,0-11.152-5.007-11.152-11.151c0-0.304,0-25.831,0-25.831
		c1.044-5.349,5.652-9.293,11.152-9.521c3.831,0.455,7.34,1.744,10.563,3.641v-3.641h9.313v42.786c0,2.2-0.437,4.361-1.366,6.296
		c-3.527,7.435-12.403,10.697-19.743,7.132l3.831-8.421c2.902,1.365,6.126,0.075,7.473-2.655
		C239.188,729.505,239.34,728.746,239.34,727.912z"/>
</g>
<g id="LWPOLYLINE_653_">
	<path fill="#FFD200" d="M226.955,717.974c0,3.414,2.731,6.146,6.24,6.146c3.376,0,6.145-2.731,6.145-6.146V698.78
		c0-3.413-2.769-6.221-6.145-6.221c-3.509,0-6.24,2.808-6.24,6.221V717.974z"/>
</g>
<g id="LWPOLYLINE_654_">
	<path d="M279.698,727.912c-3.224,1.972-6.884,3.262-10.563,3.717c-6.106,0-11.151-5.007-11.151-11.151c0-0.304,0-25.831,0-25.831
		c1.043-5.349,5.651-9.293,11.151-9.521c3.68,0.455,7.34,1.744,10.563,3.641v-3.641h9.313v42.786c0,2.2-0.437,4.361-1.385,6.296
		c-3.508,7.435-12.384,10.697-19.876,7.132l3.964-8.421c2.77,1.365,6.146,0.075,7.34-2.655
		C279.547,729.505,279.698,728.746,279.698,727.912z"/>
</g>
<g id="LWPOLYLINE_655_">
	<path fill="#FFD200" d="M267.314,717.974c0,3.414,2.73,6.146,6.088,6.146c3.527,0,6.296-2.731,6.296-6.146V698.78
		c0-3.413-2.769-6.221-6.296-6.221c-3.357,0-6.088,2.808-6.088,6.221V717.974z"/>
</g>
<g id="LWPOLYLINE_656_">
	<rect x="300.182" y="683.836" width="9.313" height="46.579"/>
</g>
<g id="LWPOLYLINE_657_">
	<rect x="300.182" y="668.36" width="9.313" height="9.331"/>
</g>
<g id="LWPOLYLINE_658_">
	<path d="M340.389,688.539h9.331v-3.11c0-0.986,0.304-2.01,0.607-2.883c1.669-4.021,6.106-5.917,10.089-4.324
		c3.945,1.594,5.918,6.221,4.249,10.166l-24.276,32.696v9.331h34.214v-9.331h-23.669l22.606-29.89
		c3.225-8.8-1.365-18.662-10.241-21.772c-8.876-3.187-18.662,1.365-21.848,10.241c-0.911,2.428-1.214,4.932-0.911,7.511
		L340.389,688.539z"/>
</g>
<g id="LWPOLYLINE_659_">
	<path d="M389.472,713.271c0,9.559,7.624,17.145,16.917,17.145c9.483,0,17.146-7.586,17.146-17.145v-27.842
		c0-9.406-7.662-17.068-17.146-17.068c-9.293,0-16.917,7.662-16.917,17.068V713.271z"/>
</g>
<g id="LWPOLYLINE_660_">
	<path fill="#FFD200" d="M398.803,713.271c0,4.324,3.338,7.813,7.586,7.813c4.324,0,7.814-3.489,7.814-7.813v-27.842
		c0-4.324-3.49-7.737-7.814-7.737c-4.248,0-7.586,3.413-7.586,7.737V713.271z"/>
</g>
<g id="LWPOLYLINE_661_">
	<path d="M453.651,683.836h5.158v9.407h-5.158v22.606c0,2.883,2.275,5.234,5.158,5.234v9.331c-7.928,0-14.489-6.562-14.489-14.565
		v-22.606h-5.311v-9.407h5.311V668.36h9.331V683.836z"/>
</g>
<g id="LWPOLYLINE_662_">
	<rect x="49.608" y="68.916" fill="#FFD200" width="496.063" height="247.993"/>
</g>
<g id="LWPOLYLINE_663_">
	<path fill="#EF3E42" d="M67.057,316.909h461.167c9.635,0,17.448-7.775,17.448-17.391V86.364c0-9.635-7.813-17.448-17.448-17.448
		H67.057c-9.615,0-17.448,7.813-17.448,17.448v213.154C49.608,309.134,57.441,316.909,67.057,316.909z"/>
</g>
<g id="LWPOLYLINE_664_">
	<path fill="#FFD200" d="M67.057,305.321h461.167c3.224,0,5.804-2.598,5.804-5.803V86.364c0-3.225-2.58-5.804-5.804-5.804H67.057
		c-3.205,0-5.803,2.579-5.803,5.804v213.154C61.254,302.724,63.852,305.321,67.057,305.321z"/>
</g>
<g id="LWPOLYLINE_665_">
	<path d="M69.939,156.499c0,9.407,7.682,17.031,16.993,17.031c9.483,0,17.107-7.624,17.107-17.031v-3.736
		c0-4.988-2.276-9.768-6.088-12.991c2.883-3.148,4.552-7.188,4.552-11.455v-1.233c0-8.572-7.036-15.532-15.571-15.532
		c-8.572,0-15.457,6.96-15.457,15.532v1.233h9.331v-1.233c0-3.433,2.77-6.183,6.126-6.183c3.527,0,6.259,2.75,6.259,6.183v1.233
		c0,4.115-3.376,7.415-7.491,7.415h-1.232v8.687h2.465c4.268,0,7.795,3.433,7.795,7.757v4.324c0,4.286-3.527,7.719-7.795,7.719
		c-4.305,0-7.662-3.433-7.662-7.719H69.939z"/>
</g>
<g id="LWPOLYLINE_666_">
	<rect x="135.086" y="137.95" width="20.18" height="9.313"/>
</g>
<g id="LWPOLYLINE_667_">
	<path d="M201.712,173.53H192.4v-2.94c-3.68,2.049-7.946,3.016-12.252,2.94c-3.812,0.151-7.15-2.276-8.383-5.86
		c-1.536-4.837-0.304-9.995,3.376-13.522c4.419-4.817,10.696-7.814,17.259-8.345v-4.837c0-2.503-2.144-4.57-4.571-4.57
		c-2.617,0-4.76,2.067-4.76,4.57h-9.313c0-7.624,6.24-13.883,14.072-13.883c7.644,0,13.883,6.259,13.883,13.883V173.53z"/>
</g>
<g id="LWPOLYLINE_668_">
	<path fill="#FFD200" d="M192.4,151.909c-3.072,0.702-5.955,2.238-8.383,4.306c-2.181,1.896-3.376,4.646-3.376,7.566
		c0,1.821,1.536,3.357,3.527,3.357c3.168-0.55,5.804-1.461,8.231-2.77V151.909z"/>
</g>
<g id="LWPOLYLINE_669_">
	<polygon points="222.195,173.53 212.883,173.53 212.883,111.551 222.195,111.551 222.195,145.803 234.58,127.083 243.911,127.083 
		233.195,142.995 243.911,173.53 234.58,173.53 227.107,152.251 222.195,159.647 	"/>
</g>
<g id="LWPOLYLINE_670_">
	<path d="M249.411,158.054c0,8.535,7.036,15.477,15.608,15.477h1.194c7.492,0,13.637-6.088,13.637-13.58
		c0-4.893-2.617-9.331-6.732-11.796l-10.412-6.031c-0.911-0.512-1.499-1.593-1.499-2.655c0-1.669,1.347-3.072,3.035-3.072h1.972
		c1.688,0,3.073,1.403,3.073,3.072h9.331c0-6.885-5.652-12.385-12.404-12.385h-1.972c-6.714,0-12.366,5.5-12.366,12.385
		c0,4.419,2.447,8.459,6.259,10.716l10.261,6.031c1.347,0.739,2.124,2.199,2.124,3.735c0,2.353-1.973,4.268-4.306,4.268h-1.194
		c-3.509,0-6.277-2.73-6.277-6.164H249.411z"/>
</g>
<g id="LWPOLYLINE_671_">
	<path d="M310.253,158.054h9.312c0,8.535-6.998,15.477-15.57,15.477c-8.573,0-15.42-6.941-15.42-15.477v-15.476
		c0-8.534,6.847-15.495,15.42-15.495c8.572,0,15.57,6.961,15.57,15.495v8.648h-21.678v6.827c0,3.434,2.731,6.164,6.107,6.164
		S310.253,161.487,310.253,158.054z"/>
</g>
<g id="LWPOLYLINE_672_">
	<path fill="#FFD200" d="M297.887,143.223h12.366c0-4.059-2.883-6.827-6.259-6.827S297.887,139.164,297.887,143.223z"/>
</g>
<g id="LWPOLYLINE_673_">
	<rect x="330.564" y="111.551" width="9.369" height="61.979"/>
</g>
<g id="LWPOLYLINE_674_">
	<rect x="352.299" y="127.083" width="9.331" height="46.447"/>
</g>
<g id="LWPOLYLINE_675_">
	<rect x="352.299" y="111.551" width="9.331" height="9.35"/>
</g>
<g id="LWPOLYLINE_676_">
	<path d="M371.568,158.054c0,8.535,7.055,15.477,15.552,15.477h1.252c7.472,0,13.617-6.088,13.617-13.58
		c0-4.893-2.617-9.331-6.752-11.796l-10.394-6.031c-0.91-0.512-1.517-1.593-1.517-2.655c0-1.669,1.365-3.072,3.186-3.072h1.859
		c1.706,0,3.072,1.403,3.072,3.072h9.331c0-6.885-5.538-12.385-12.403-12.385h-1.859c-6.865,0-12.517,5.5-12.517,12.385
		c0,4.419,2.427,8.459,6.296,10.716l10.241,6.031c1.366,0.739,2.125,2.199,2.125,3.735c0,2.353-1.973,4.268-4.286,4.268h-1.252
		c-3.49,0-6.221-2.73-6.221-6.164H371.568z"/>
</g>
<g id="LWPOLYLINE_677_">
	<path d="M432.409,158.054h9.331c0,8.535-7.055,15.477-15.589,15.477c-8.573,0-15.438-6.941-15.438-15.477v-15.476
		c0-8.534,6.865-15.495,15.438-15.495c8.534,0,15.589,6.961,15.589,15.495v8.648h-21.734v6.827c0,3.434,2.77,6.164,6.146,6.164
		C429.603,164.218,432.409,161.487,432.409,158.054z"/>
</g>
<g id="LWPOLYLINE_678_">
	<path fill="#FFD200" d="M420.006,143.223h12.403c0-4.059-2.807-6.827-6.258-6.827C422.775,136.396,420.006,139.164,420.006,143.223
		z"/>
</g>
<g id="LWPOLYLINE_679_">
	<rect x="452.893" y="111.551" width="9.179" height="61.979"/>
</g>
<g id="LWPOLYLINE_680_">
	<rect x="474.589" y="111.551" width="9.18" height="61.979"/>
</g>
<g id="LWPOLYLINE_681_">
	<path d="M516.01,158.054h9.331c0,8.535-6.903,15.477-15.476,15.477c-8.497,0-15.552-6.941-15.552-15.477v-15.476
		c0-8.534,7.055-15.495,15.552-15.495c8.572,0,15.476,6.961,15.476,15.495v8.648h-21.696v6.827c0,3.434,2.73,6.164,6.221,6.164
		C513.278,164.218,516.01,161.487,516.01,158.054z"/>
</g>
<g id="LWPOLYLINE_682_">
	<path fill="#FFD200" d="M503.645,143.223h12.365c0-4.059-2.731-6.827-6.145-6.827C506.375,136.396,503.645,139.164,503.645,143.223
		z"/>
</g>
<g id="LWPOLYLINE_683_">
	<path d="M144.854,227.828h5.196v9.313h-5.196v22.606c0,2.921,2.276,5.292,5.196,5.292v9.312c-8.079,0-14.508-6.543-14.508-14.604
		v-22.606h-5.368v-9.313h5.368v-15.532h9.312V227.828z"/>
</g>
<g id="LWPOLYLINE_684_">
	<path d="M179.257,258.856h9.313c0,8.534-7.036,15.494-15.571,15.494c-8.572,0-15.456-6.96-15.456-15.494v-15.533
		c0-8.534,6.884-15.495,15.456-15.495c8.535,0,15.571,6.961,15.571,15.495v8.648h-21.696v6.885c0,3.375,2.769,6.183,6.125,6.183
		C176.488,265.039,179.257,262.231,179.257,258.856z"/>
</g>
<g id="LWPOLYLINE_685_">
	<path fill="#FFD200" d="M166.873,243.968h12.384c0-4.097-2.769-6.827-6.259-6.827C169.642,237.141,166.873,239.871,166.873,243.968
		z"/>
</g>
<g id="LWPOLYLINE_686_">
	<rect x="199.74" y="212.296" width="9.16" height="62.055"/>
</g>
<g id="LWPOLYLINE_687_">
	<rect x="221.455" y="227.828" width="9.161" height="46.522"/>
</g>
<g id="LWPOLYLINE_688_">
	<rect x="221.455" y="212.296" width="9.161" height="9.312"/>
</g>
<g id="LWPOLYLINE_689_">
	<rect x="243.152" y="212.296" width="9.179" height="62.055"/>
</g>
<g id="LWPOLYLINE_690_">
	<rect x="264.867" y="212.296" width="9.18" height="62.055"/>
</g>
<g id="LWPOLYLINE_691_">
	<path d="M306.27,258.856h9.331c0,8.534-6.847,15.494-15.419,15.494c-8.592,0-15.608-6.96-15.608-15.494v-15.533
		c0-8.534,7.017-15.495,15.608-15.495c8.572,0,15.419,6.961,15.419,15.495v8.648h-21.716v6.885c0,3.375,2.77,6.183,6.297,6.183
		C303.539,265.039,306.27,262.231,306.27,258.856z"/>
</g>
<g id="LWPOLYLINE_692_">
	<path fill="#FFD200" d="M293.885,243.968h12.385c0-4.097-2.73-6.827-6.088-6.827C296.654,237.141,293.885,239.871,293.885,243.968z
		"/>
</g>
<g id="LWPOLYLINE_693_">
	<path d="M346.609,232.475h9.331v-3.11c0-1.023,0.151-1.991,0.645-2.921c1.479-3.982,6.107-5.879,10.052-4.267
		c3.983,1.688,5.842,6.164,4.286,10.146l-24.313,32.716v9.312h34.138v-9.312h-23.555l22.455-29.871
		c3.224-8.876-1.403-18.644-10.203-21.867c-8.876-3.148-18.511,1.46-21.735,10.336c-0.948,2.352-1.251,4.932-0.948,7.473
		L346.609,232.475z"/>
</g>
<g id="LWPOLYLINE_694_">
	<path d="M395.541,257.319c0,9.407,7.661,17.031,17.145,17.031c9.482,0,17.145-7.624,17.145-17.031v-27.955
		c0-9.406-7.662-17.068-17.145-17.068c-9.483,0-17.145,7.662-17.145,17.068V257.319z"/>
</g>
<g id="LWPOLYLINE_695_">
	<path fill="#FFD200" d="M404.872,257.319c0,4.268,3.527,7.72,7.813,7.72s7.775-3.452,7.775-7.72v-27.955
		c0-4.305-3.489-7.757-7.775-7.757s-7.813,3.452-7.813,7.757V257.319z"/>
</g>
<g id="LWPOLYLINE_696_">
	<path d="M459.758,227.828h5.349v9.313h-5.349v22.606c0,2.921,2.466,5.292,5.349,5.292v9.312c-8.117,0-14.642-6.543-14.642-14.604
		v-22.606h-5.234v-9.313h5.234v-15.532h9.293V227.828z"/>
</g>
</svg>
