<?xml version="1.0" encoding="utf-8"?>
<!-- Generator: Adobe Illustrator 15.1.0, SVG Export Plug-In . SVG Version: 6.00 Build 0)  -->
<!DOCTYPE svg PUBLIC "-//W3C//DTD SVG 1.0//EN" "http://www.w3.org/TR/2001/REC-SVG-20010904/DTD/svg10.dtd">
<svg version="1.0" id="Layer_1" xmlns="http://www.w3.org/2000/svg" xmlns:xlink="http://www.w3.org/1999/xlink" x="0px" y="0px"
	 width="595.28px" height="841.89px" viewBox="0 0 595.28 841.89" enable-background="new 0 0 595.28 841.89" xml:space="preserve">
<g id="LWPOLYLINE_7_">
	<rect x="49.472" y="607.111" fill="#FFD200" width="496.063" height="155.068"/>
</g>
<g id="LWPOLYLINE_8_">
	<rect x="49.472" y="80.986" fill="#FFD200" width="496.063" height="154.993"/>
</g>
<g id="LWPOLYLINE_312_">
	<path fill="#EF3E42" d="M61.098,762.18H533.89c6.448,0,11.646-5.235,11.646-11.607V618.794c0-6.448-5.197-11.683-11.646-11.683
		H61.098c-6.429,0-11.626,5.234-11.626,11.683v131.778C49.472,756.944,54.669,762.18,61.098,762.18z"/>
</g>
<g id="LWPOLYLINE_313_">
	<path fill="#FFD200" d="M61.098,754.365H533.89c2.124,0,3.831-1.669,3.831-3.793V618.794c0-2.124-1.707-3.906-3.831-3.906H61.098
		c-2.162,0-4.002,1.782-4.002,3.906v131.778C57.096,752.696,58.936,754.365,61.098,754.365z"/>
</g>
<g id="LWPOLYLINE_314_">
	<path d="M159.381,647.623c-0.151-2.352-1.991-4.173-4.116-4.248h-2.295c-2.313,0.151-4.001,2.124-3.812,4.399
		c0,1.177,0.607,2.353,1.65,3.035l9.351,3.414c2.295,1.441,4.116,3.793,4.571,6.6c1.233,5.501-2.276,10.849-7.795,12.063
		c-6.885,0.986-13.276-3.679-14.225-10.469l5.216-0.759c0.437,3.945,4.116,6.638,8.08,5.993c2.618-0.606,4.306-3.187,3.68-5.842
		c-0.304-1.138-0.911-2.124-1.992-2.807l-9.331-3.49c-2.58-1.593-4.249-4.476-4.4-7.586c-0.303-5.235,3.813-9.635,8.857-9.862h2.446
		c5.197,0.228,9.161,4.399,9.313,9.559H159.381z"/>
</g>
<g id="LWPOLYLINE_315_">
	<path d="M187.831,673.038h-5.349v-1.707c-1.991,1.176-4.457,1.707-6.885,1.707c-2.143,0-3.983-1.29-4.76-3.338
		c-0.759-2.731-0.152-5.614,1.991-7.587c2.466-2.731,5.975-4.438,9.654-4.666v-2.769c0-1.441-1.081-2.579-2.636-2.579
		c-1.328,0-2.58,1.138-2.58,2.579h-5.197c0-4.324,3.528-7.814,7.776-7.814c4.457,0,7.985,3.49,7.985,7.814V673.038z"/>
</g>
<g id="LWPOLYLINE_316_">
	<path fill="#FFD200" d="M182.482,660.823c-1.688,0.456-3.376,1.214-4.76,2.428c-1.233,1.063-1.84,2.58-1.84,4.249
		c0,1.023,0.948,1.858,1.991,1.858c1.84-0.304,3.225-0.759,4.609-1.556V660.823z"/>
</g>
<g id="LWPOLYLINE_317_">
	<rect x="194.09" y="638.064" width="5.197" height="34.974"/>
</g>
<g id="LWPOLYLINE_318_">
	<rect x="206.171" y="638.064" width="5.349" height="34.974"/>
</g>
<g id="LWPOLYLINE_319_">
	<rect x="218.386" y="646.864" width="5.349" height="26.174"/>
</g>
<g id="LWPOLYLINE_320_">
	<rect x="218.386" y="638.064" width="5.349" height="5.311"/>
</g>
<g id="LWPOLYLINE_321_">
	<path d="M236.726,646.864h3.072v5.235h-3.072v12.669c0,1.707,1.384,2.959,3.072,2.959v5.311c-4.608,0-8.288-3.68-8.288-8.27V652.1
		h-3.016v-5.235h3.016v-8.8h5.216V646.864z"/>
</g>
<g id="LWPOLYLINE_322_">
	<path d="M251.103,646.864h2.921v5.235h-2.921v12.669c0,1.707,1.233,2.959,2.921,2.959v5.311c-4.609,0-8.27-3.68-8.27-8.27V652.1
		h-2.883v-5.235h2.883v-8.8h5.349V646.864z"/>
</g>
<g id="LWPOLYLINE_323_">
	<path d="M258.594,666.514v-19.649h5.197V665.3c0,1.896,1.536,3.527,3.528,3.527c1.821,0,3.508-1.631,3.508-3.527v-18.436h5.216
		v26.174h-5.216v-2.124c-1.839,1.138-3.812,1.82-5.955,2.124C261.363,673.038,258.594,670.23,258.594,666.514z"/>
</g>
<g id="LWPOLYLINE_324_">
	<path d="M308.57,648.344c-1.043-1.024-2.446-1.479-3.964-1.479c-2.144,0.228-4.135,0.986-5.956,2.087v-2.087h-5.216v26.174h5.216
		v-18.512c0-1.896,1.537-3.489,3.509-3.489c1.991,0,3.527,1.593,3.527,3.489v18.512h5.196v-18.512c0-1.896,1.537-3.489,3.528-3.489
		c1.82,0,3.509,1.593,3.509,3.489v18.512h5.178v-19.953c-0.304-3.338-2.883-6.069-6.259-6.221
		C313.919,646.485,311.188,647.016,308.57,648.344z"/>
</g>
<g id="LWPOLYLINE_325_">
	<path d="M328.599,664.313c0,4.817,4.002,8.725,8.725,8.725c4.894,0,8.725-3.907,8.725-8.725v-8.725
		c0-4.855-3.831-8.725-8.725-8.725c-4.723,0-8.725,3.869-8.725,8.725V664.313z"/>
</g>
<g id="LWPOLYLINE_326_">
	<path fill="#FFD200" d="M333.947,664.313c0,1.935,1.536,3.414,3.376,3.414c1.973,0,3.509-1.479,3.509-3.414v-8.725
		c0-1.973-1.536-3.489-3.509-3.489c-1.84,0-3.376,1.517-3.376,3.489V664.313z"/>
</g>
<g id="LWPOLYLINE_327_">
	<path d="M369.869,666.514l-0.151-14.263c-0.455-3.072-3.035-5.311-6.146-5.387c-2.124,0.228-4.097,0.986-5.917,2.011v-2.011h-5.368
		v33.115h5.368v-9.065c1.669,1.138,3.793,1.82,5.917,2.124C366.986,673.038,369.869,670.23,369.869,666.514z"/>
</g>
<g id="LWPOLYLINE_328_">
	<path fill="#FFD200" d="M357.655,665.3v-10.773c0-1.896,1.517-3.489,3.489-3.489c1.859,0,3.414,1.593,3.414,3.489V665.3
		c0,1.896-1.555,3.527-3.414,3.527C359.172,668.827,357.655,667.196,357.655,665.3z"/>
</g>
<g id="LWPOLYLINE_329_">
	<path d="M375.407,664.313c0,4.817,3.945,8.725,8.725,8.725c4.855,0,8.648-3.907,8.648-8.725v-8.725
		c0-4.855-3.793-8.725-8.648-8.725c-4.779,0-8.725,3.869-8.725,8.725V664.313z"/>
</g>
<g id="LWPOLYLINE_330_">
	<path fill="#FFD200" d="M380.566,664.313c0,1.935,1.707,3.414,3.565,3.414c1.973,0,3.49-1.479,3.49-3.414v-8.725
		c0-1.973-1.518-3.489-3.49-3.489c-1.858,0-3.565,1.517-3.565,3.489V664.313z"/>
</g>
<g id="LWPOLYLINE_331_">
	<rect x="399.077" y="646.864" width="5.235" height="26.174"/>
</g>
<g id="LWPOLYLINE_332_">
	<rect x="399.077" y="638.064" width="5.235" height="5.311"/>
</g>
<g id="LWPOLYLINE_333_">
	<rect x="411.292" y="638.064" width="5.234" height="34.974"/>
</g>
<g id="LWPOLYLINE_334_">
	<rect x="423.506" y="638.064" width="5.234" height="34.974"/>
</g>
<g id="LWPOLYLINE_335_">
	<path d="M446.948,664.313h5.196c0,4.817-3.831,8.725-8.724,8.725c-4.742,0-8.725-3.907-8.725-8.725v-8.725
		c0-4.855,3.982-8.725,8.725-8.725c4.893,0,8.724,3.869,8.724,8.725v4.817h-12.252v3.907c0,1.935,1.518,3.414,3.528,3.414
		C445.393,667.728,446.948,666.248,446.948,664.313z"/>
</g>
<g id="LWPOLYLINE_336_">
	<path fill="#FFD200" d="M439.893,655.893h7.056c0-2.276-1.556-3.793-3.527-3.793C441.41,652.1,439.893,653.616,439.893,655.893z"/>
</g>
<g id="LWPOLYLINE_337_">
	<polygon points="108.021,696.253 130.629,696.253 130.629,701.487 121.942,701.487 121.942,731.15 116.745,731.15 116.745,701.487 
		108.021,701.487 	"/>
</g>
<g id="LWPOLYLINE_338_">
	<rect x="134.137" y="704.978" width="5.368" height="26.173"/>
</g>
<g id="LWPOLYLINE_339_">
	<rect x="134.137" y="696.253" width="5.368" height="5.234"/>
</g>
<g id="LWPOLYLINE_340_">
	<rect x="146.39" y="696.253" width="5.197" height="34.897"/>
</g>
<g id="LWPOLYLINE_341_">
	<rect x="158.623" y="696.253" width="5.216" height="34.897"/>
</g>
<g id="LWPOLYLINE_342_">
	<path d="M186.902,731.15h-5.216v-1.707c-2.125,1.176-4.571,1.783-6.847,1.707c-2.162,0.076-4.153-1.365-4.76-3.338
		c-0.929-2.655-0.133-5.614,1.84-7.549c2.427-2.73,5.955-4.438,9.768-4.741v-2.655c0-1.479-1.195-2.655-2.731-2.655
		c-1.384,0-2.617,1.176-2.617,2.655h-5.159c0-4.362,3.471-7.89,7.776-7.89c4.419,0,7.947,3.527,7.947,7.89V731.15z"/>
</g>
<g id="LWPOLYLINE_343_">
	<path fill="#FFD200" d="M181.686,718.937c-1.84,0.455-3.357,1.252-4.723,2.428c-1.233,1.062-1.973,2.655-1.973,4.248
		c0,1.063,0.892,1.896,1.973,1.896c1.84-0.304,3.376-0.834,4.723-1.517V718.937z"/>
</g>
<g id="CIRCLE_105_">
	<path d="M182.482,700.084c0-1.935-1.536-3.528-3.528-3.528c-1.839,0-3.357,1.594-3.357,3.528s1.518,3.527,3.357,3.527
		C180.946,703.611,182.482,702.019,182.482,700.084L182.482,700.084z"/>
</g>
<g id="CIRCLE_106_">
	<path fill="#FFD200" d="M180.491,700.084c0-0.721-0.645-1.403-1.537-1.403c-0.777,0-1.384,0.683-1.384,1.403
		c0,0.759,0.607,1.403,1.384,1.403C179.846,701.487,180.491,700.843,180.491,700.084L180.491,700.084z"/>
</g>
<g id="LWPOLYLINE_344_">
	<path d="M199.287,704.978h2.883v5.234h-2.883v12.707c0,1.632,1.384,2.997,2.883,2.997v5.234c-4.419,0-8.08-3.717-8.08-8.231
		v-12.707h-3.073v-5.234h3.073v-8.725h5.197V704.978z"/>
</g>
<g id="LWPOLYLINE_345_">
	<path d="M218.538,722.426h5.348c0,4.779-3.964,8.725-8.687,8.725c-4.912,0-8.725-3.945-8.725-8.725v-8.725
		c0-4.817,3.813-8.724,8.725-8.724c4.723,0,8.687,3.906,8.687,8.724v4.855h-12.214v3.869c0,1.896,1.499,3.49,3.528,3.49
		C217.039,725.916,218.538,724.322,218.538,722.426z"/>
</g>
<g id="LWPOLYLINE_346_">
	<path fill="#FFD200" d="M211.671,714.081h6.866c0-2.314-1.499-3.869-3.338-3.869C213.17,710.212,211.671,711.767,211.671,714.081z"
		/>
</g>
<g id="LWPOLYLINE_347_">
	<path d="M236.271,704.978h2.92v5.234h-2.92v12.707c0,1.632,1.232,2.997,2.92,2.997v5.234c-4.608,0-8.269-3.717-8.269-8.231v-12.707
		h-2.883v-5.234h2.883v-8.725h5.349V704.978z"/>
</g>
<g id="LWPOLYLINE_348_">
	<path d="M264.872,704.978c0-2.125,1.195-3.49,2.883-3.49v-5.234c-4.419,0-8.08,3.679-8.08,8.193c0,0.531-3.073,0.531-3.073,0.531
		v5.234h3.073v20.938h5.197v-20.938h2.883v-5.234H264.872z"/>
</g>
<g id="LWPOLYLINE_349_">
	<path d="M271.567,722.426c0,4.779,3.983,8.725,8.725,8.725c4.912,0,8.725-3.945,8.725-8.725v-8.725
		c0-4.817-3.813-8.724-8.725-8.724c-4.742,0-8.725,3.906-8.725,8.724V722.426z"/>
</g>
<g id="LWPOLYLINE_350_">
	<rect x="282.435" y="696.253" width="5.197" height="5.234"/>
</g>
<g id="LWPOLYLINE_351_">
	<path fill="#FFD200" d="M276.783,722.426c0,1.896,1.688,3.49,3.509,3.49c1.992,0,3.528-1.594,3.528-3.49v-8.725
		c0-1.935-1.536-3.489-3.528-3.489c-1.821,0-3.509,1.555-3.509,3.489V722.426z"/>
</g>
<g id="LWPOLYLINE_352_">
	<rect x="272.971" y="696.253" width="5.349" height="5.234"/>
</g>
<g id="LWPOLYLINE_353_">
	<path d="M300.623,713.019v18.132h-5.348v-26.173h5.348v1.403c1.84-0.948,3.832-1.403,5.804-1.403v5.538
		c-1.347-1.328-3.509-1.328-4.855,0.075C300.927,711.273,300.623,712.108,300.623,713.019z"/>
</g>
<g id="LWPOLYLINE_354_">
	<path d="M339.144,706.456c-1.043-0.948-2.579-1.479-3.964-1.479c-2.124,0.228-4.115,0.985-5.955,2.048v-2.048h-5.197v26.173h5.197
		V712.64c0-1.896,1.536-3.452,3.527-3.452c1.84,0,3.339,1.556,3.339,3.452v18.511h5.348V712.64c0-1.896,1.537-3.452,3.376-3.452
		c1.973,0,3.509,1.556,3.509,3.452v18.511h5.197v-19.877c-0.133-3.413-2.921-6.068-6.24-6.296
		C344.512,704.598,341.591,705.129,339.144,706.456z"/>
</g>
<g id="LWPOLYLINE_355_">
	<path d="M359.172,722.426c0,4.779,3.983,8.725,8.725,8.725c4.855,0,8.725-3.945,8.725-8.725v-8.725
		c0-4.817-3.869-8.724-8.725-8.724c-4.741,0-8.725,3.906-8.725,8.724V722.426z"/>
</g>
<g id="LWPOLYLINE_356_">
	<path fill="#FFD200" d="M364.407,722.426c0,1.896,1.517,3.49,3.489,3.49s3.528-1.594,3.528-3.49v-8.725
		c0-1.935-1.556-3.489-3.528-3.489s-3.489,1.555-3.489,3.489V722.426z"/>
</g>
<g id="LWPOLYLINE_357_">
	<path d="M400.291,724.702v-14.339c-0.606-3.034-3.187-5.234-6.259-5.386c-2.124,0.303-4.135,0.985-5.955,2.048v-2.048h-5.197
		v33.152h5.197v-9.065c1.82,1.1,3.831,1.858,5.955,2.086C397.561,731.15,400.291,728.42,400.291,724.702z"/>
</g>
<g id="LWPOLYLINE_358_">
	<path fill="#FFD200" d="M388.077,723.488V712.64c0-1.896,1.669-3.452,3.527-3.452c1.973,0,3.528,1.556,3.528,3.452v10.849
		c0,1.896-1.556,3.489-3.528,3.489C389.746,726.978,388.077,725.385,388.077,723.488z"/>
</g>
<g id="LWPOLYLINE_359_">
	<path d="M417.74,722.426h5.349c0,4.779-3.983,8.725-8.725,8.725c-4.894,0-8.876-3.945-8.876-8.725v-8.725
		c0-4.817,3.982-8.724,8.876-8.724c4.741,0,8.725,3.906,8.725,8.724v4.855h-12.252v3.869c0,1.896,1.517,3.49,3.527,3.49
		C416.223,725.916,417.74,724.322,417.74,722.426z"/>
</g>
<g id="LWPOLYLINE_360_">
	<path fill="#FFD200" d="M410.837,714.081h6.903c0-2.314-1.518-3.869-3.376-3.869C412.354,710.212,410.837,711.767,410.837,714.081z
		"/>
</g>
<g id="LWPOLYLINE_361_">
	<path d="M428.589,711.388v14.376c0.607,3.073,3.225,5.311,6.259,5.387c2.124-0.228,4.135-0.986,5.955-2.086v2.086H446v-34.897
		h-5.197v10.772c-1.82-1.063-3.831-1.82-5.955-2.048C431.32,704.978,428.589,707.784,428.589,711.388z"/>
</g>
<g id="LWPOLYLINE_362_">
	<path fill="#FFD200" d="M440.803,712.64v10.849c0,1.896-1.517,3.489-3.489,3.489c-1.821,0-3.527-1.593-3.527-3.489V712.64
		c0-1.896,1.706-3.452,3.527-3.452C439.286,709.188,440.803,710.743,440.803,712.64z"/>
</g>
<g id="LWPOLYLINE_363_">
	<path d="M464.17,722.426h5.234c0,4.779-3.982,8.725-8.725,8.725c-4.703,0-8.687-3.945-8.687-8.725v-8.725
		c0-4.817,3.983-8.724,8.687-8.724c4.742,0,8.725,3.906,8.725,8.724v4.855h-12.252v3.869c0,1.896,1.555,3.49,3.527,3.49
		S464.17,724.322,464.17,722.426z"/>
</g>
<g id="LWPOLYLINE_364_">
	<path fill="#FFD200" d="M457.152,714.081h7.018c0-2.314-1.518-3.869-3.49-3.869S457.152,711.767,457.152,714.081z"/>
</g>
<g id="LWPOLYLINE_365_">
	<path d="M480.86,713.019v18.132h-5.159v-26.173h5.159v1.403c1.82-0.948,4.021-1.403,5.993-1.403v5.538
		c-1.403-1.328-3.528-1.328-4.932,0.075C481.315,711.273,480.86,712.108,480.86,713.019z"/>
</g>
<g id="LWPOLYLINE_390_">
	<path fill="#EF3E42" d="M66.902,235.979h461.222c9.597,0,17.411-7.795,17.411-17.411V98.397c0-9.616-7.814-17.411-17.411-17.411
		H66.902c-9.654,0-17.43,7.795-17.43,17.411v120.17C49.472,228.184,57.248,235.979,66.902,235.979z"/>
</g>
<g id="LWPOLYLINE_366_">
	<path fill="#FFD200" d="M66.902,224.372h461.222c3.187,0,5.766-2.617,5.766-5.804V98.397c0-3.224-2.579-5.804-5.766-5.804H66.902
		c-3.205,0-5.804,2.58-5.804,5.804v120.17C61.098,221.754,63.697,224.372,66.902,224.372z"/>
</g>
<g id="LWPOLYLINE_367_">
	<path d="M113.369,147.767c-0.151-3.053-2.579-5.424-5.652-5.576h-2.921c-3.034,0.151-5.348,2.845-5.026,5.879
		c0,1.612,0.759,3.072,2.143,4.059l12.385,4.514c3.186,1.991,5.5,5.14,6.259,8.8c1.536,7.34-3.073,14.49-10.413,16.026
		c-9.313,1.385-17.695-4.798-19.099-13.807l6.904-1.081c0.892,5.197,5.652,8.857,10.849,8.117c3.68-0.872,5.804-4.457,4.875-7.985
		c-0.304-1.536-1.195-2.807-2.447-3.812l-12.537-4.495c-3.509-2.2-5.804-5.955-5.956-10.185
		c-0.284-6.847,5.064-12.765,11.911-12.992h3.224c6.885,0.228,12.233,5.728,12.385,12.537H113.369z"/>
</g>
<g id="LWPOLYLINE_368_">
	<path d="M151.15,181.735h-6.904v-2.257c-2.921,1.536-5.937,2.333-9.161,2.257c-2.921,0.076-5.5-1.802-6.449-4.457
		c-1.043-3.604-0.152-7.492,2.617-10.071c3.376-3.66,7.947-5.917,12.992-6.296v-3.661c0-1.916-1.688-3.452-3.509-3.452
		c-1.992,0-3.528,1.537-3.528,3.452h-7.037c0-5.728,4.761-10.413,10.564-10.413s10.413,4.685,10.413,10.413V181.735z"/>
</g>
<g id="LWPOLYLINE_369_">
	<path fill="#FFD200" d="M144.247,165.443c-2.276,0.607-4.59,1.688-6.43,3.262c-1.499,1.385-2.428,3.452-2.428,5.69
		c0,1.347,1.233,2.503,2.58,2.428c2.465-0.304,4.457-1.005,6.278-1.973V165.443z"/>
</g>
<g id="LWPOLYLINE_370_">
	<rect x="159.533" y="135.23" width="7.037" height="46.505"/>
</g>
<g id="LWPOLYLINE_371_">
	<rect x="175.882" y="135.23" width="6.885" height="46.505"/>
</g>
<g id="LWPOLYLINE_372_">
	<rect x="192.098" y="146.837" width="7.037" height="34.898"/>
</g>
<g id="LWPOLYLINE_373_">
	<rect x="192.098" y="135.23" width="7.037" height="6.961"/>
</g>
<g id="LWPOLYLINE_374_">
	<path d="M216.546,146.837h3.964v6.96h-3.964v16.994c0,2.219,1.688,3.983,3.964,3.983v6.96c-6.107,0-11-4.912-11-10.943v-16.994
		h-3.964v-6.96h3.964V135.23h7.037V146.837z"/>
</g>
<g id="LWPOLYLINE_375_">
	<path d="M235.531,146.837h3.964v6.96h-3.964v16.994c0,2.219,1.821,3.983,3.964,3.983v6.96c-5.956,0-10.868-4.912-10.868-10.943
		v-16.994h-3.964v-6.96h3.964V135.23h6.904V146.837z"/>
</g>
<g id="LWPOLYLINE_376_">
	<path d="M245.602,173.087v-26.25h7.037v24.637c0,2.58,1.973,4.647,4.571,4.647c2.618,0,4.59-2.067,4.59-4.647v-24.637h7.037v34.898
		h-7.037v-2.769c-2.276,1.46-5.045,2.428-7.776,2.769C249.263,181.735,245.602,177.999,245.602,173.087z"/>
</g>
<g id="LWPOLYLINE_377_">
	<path d="M312.421,148.867c-1.537-1.309-3.528-2.029-5.349-2.029c-2.921,0.341-5.501,1.309-7.985,2.769v-2.769h-7.036v34.898h7.036
		v-24.637c0-2.58,1.991-4.646,4.609-4.646c2.579,0,4.723,2.067,4.723,4.646v24.637h6.885v-24.637c0-2.58,2.124-4.646,4.76-4.646
		c2.58,0,4.571,2.067,4.571,4.646v24.637h7.036v-26.61c-0.303-4.438-3.982-8.022-8.439-8.288
		C319.57,146.325,315.759,147.027,312.421,148.867z"/>
</g>
<g id="LWPOLYLINE_378_">
	<path d="M339.011,170.09c0,6.429,5.349,11.645,11.74,11.645c6.449,0,11.646-5.216,11.646-11.645v-11.607
		c0-6.43-5.196-11.646-11.646-11.646c-6.392,0-11.74,5.216-11.74,11.646V170.09z"/>
</g>
<g id="LWPOLYLINE_379_">
	<path fill="#FFD200" d="M346.048,170.09c0,2.617,2.124,4.685,4.703,4.685c2.485,0,4.609-2.067,4.609-4.685v-11.607
		c0-2.618-2.124-4.685-4.609-4.685c-2.579,0-4.703,2.067-4.703,4.685V170.09z"/>
</g>
<g id="LWPOLYLINE_380_">
	<path d="M393.881,173.087V153.95c-0.721-4.04-4.287-6.922-8.27-7.112c-2.883,0.341-5.5,1.233-7.928,2.769v-2.769h-7.056v44.21
		h7.056v-12.082c2.428,1.46,5.045,2.428,7.928,2.769C390.201,181.735,393.881,177.999,393.881,173.087z"/>
</g>
<g id="LWPOLYLINE_381_">
	<path fill="#FFD200" d="M377.684,171.475v-14.376c0-2.58,2.124-4.646,4.59-4.646c2.617,0,4.741,2.067,4.741,4.646v14.376
		c0,2.58-2.124,4.647-4.741,4.647C379.808,176.122,377.684,174.054,377.684,171.475z"/>
</g>
<g id="LWPOLYLINE_382_">
	<path d="M401.354,170.09c0,6.429,5.234,11.645,11.607,11.645c6.448,0,11.683-5.216,11.683-11.645v-11.607
		c0-6.43-5.234-11.646-11.683-11.646c-6.373,0-11.607,5.216-11.607,11.646V170.09z"/>
</g>
<g id="LWPOLYLINE_383_">
	<path fill="#FFD200" d="M408.409,170.09c0,2.617,1.972,4.685,4.552,4.685c2.655,0,4.779-2.067,4.779-4.685v-11.607
		c0-2.618-2.124-4.685-4.779-4.685c-2.58,0-4.552,2.067-4.552,4.685V170.09z"/>
</g>
<g id="LWPOLYLINE_384_">
	<rect x="432.989" y="146.837" width="7.056" height="34.898"/>
</g>
<g id="LWPOLYLINE_385_">
	<rect x="432.989" y="135.23" width="7.056" height="6.961"/>
</g>
<g id="LWPOLYLINE_386_">
	<rect x="449.225" y="135.23" width="7.055" height="46.505"/>
</g>
<g id="LWPOLYLINE_387_">
	<rect x="465.573" y="135.23" width="7.018" height="46.505"/>
</g>
<g id="LWPOLYLINE_388_">
	<path d="M496.792,170.09h6.865c0,6.429-5.196,11.645-11.646,11.645c-6.41,0-11.607-5.216-11.607-11.645v-11.607
		c0-6.43,5.197-11.646,11.607-11.646c6.449,0,11.646,5.216,11.646,11.646v6.467H487.46v5.14c0,2.617,2.124,4.685,4.552,4.685
		C494.63,174.775,496.792,172.708,496.792,170.09z"/>
</g>
<g id="LWPOLYLINE_389_">
	<path fill="#FFD200" d="M487.46,158.938h9.332c0-3.073-2.162-5.14-4.78-5.14C489.584,153.798,487.46,155.865,487.46,158.938z"/>
</g>
</svg>
