<?xml version="1.0" encoding="UTF-8" standalone="no"?>
<!-- Generator: Adobe Illustrator 15.1.0, SVG Export Plug-In . SVG Version: 6.00 Build 0)  -->

<svg
   xmlns:dc="http://purl.org/dc/elements/1.1/"
   xmlns:cc="http://creativecommons.org/ns#"
   xmlns:rdf="http://www.w3.org/1999/02/22-rdf-syntax-ns#"
   xmlns:svg="http://www.w3.org/2000/svg"
   xmlns="http://www.w3.org/2000/svg"
   xmlns:sodipodi="http://sodipodi.sourceforge.net/DTD/sodipodi-0.dtd"
   xmlns:inkscape="http://www.inkscape.org/namespaces/inkscape"
   version="1.0"
   id="Layer_1"
   x="0px"
   y="0px"
   width="496.064"
   height="704.112"
   viewBox="0 0 496.06397 704.11199"
   enable-background="new 0 0 595.28 841.89"
   xml:space="preserve"
   sodipodi:docname="871-7.svg"
   inkscape:version="0.92.5 (2060ec1f9f, 2020-04-08)"><metadata
   id="metadata4516"><rdf:RDF><cc:Work
       rdf:about=""><dc:format>image/svg+xml</dc:format><dc:type
         rdf:resource="http://purl.org/dc/dcmitype/StillImage" /></cc:Work></rdf:RDF></metadata><defs
   id="defs4514" /><sodipodi:namedview
   pagecolor="#ffffff"
   bordercolor="#666666"
   borderopacity="1"
   objecttolerance="10"
   gridtolerance="10"
   guidetolerance="10"
   inkscape:pageopacity="0"
   inkscape:pageshadow="2"
   inkscape:window-width="640"
   inkscape:window-height="480"
   id="namedview4512"
   showgrid="false"
   inkscape:zoom="0.28032165"
   inkscape:cx="248.03201"
   inkscape:cy="352.05599"
   inkscape:window-x="0"
   inkscape:window-y="0"
   inkscape:window-maximized="0"
   inkscape:current-layer="Layer_1" />
<g
   id="LWPOLYLINE_573_"
   transform="translate(-49.608002,-68.889)">
	<rect
   x="49.608002"
   y="524.98798"
   width="496.06299"
   height="248.013"
   id="rect4325"
   style="fill:#ffd200" />
</g>
<g
   id="LWPOLYLINE_574_"
   transform="translate(-49.608002,-68.889)">
	<path
   d="m 67.021,773.001 h 461.24 c 9.597,0 17.411,-7.738 17.411,-17.374 V 542.4 c 0,-9.598 -7.814,-17.412 -17.411,-17.412 H 67.021 c -9.635,0 -17.412,7.814 -17.412,17.412 v 213.227 c -0.001,9.636 7.777,17.374 17.412,17.374 z"
   id="path4328"
   inkscape:connector-curvature="0"
   style="fill:#ef3e42" />
</g>
<g
   id="LWPOLYLINE_575_"
   transform="translate(-49.608002,-68.889)">
	<path
   d="m 67.021,761.394 h 461.24 c 3.224,0 5.804,-2.58 5.804,-5.767 V 542.4 c 0,-3.148 -2.58,-5.804 -5.804,-5.804 H 67.021 c -3.187,0 -5.804,2.655 -5.804,5.804 v 213.227 c 0,3.186 2.617,5.767 5.804,5.767 z"
   id="path4331"
   inkscape:connector-curvature="0"
   style="fill:#ffd200" />
</g>
<g
   id="LWPOLYLINE_576_"
   transform="translate(-49.608002,-68.889)">
	<path
   d="m 162.254,612.616 c 0,9.407 7.682,16.994 17.146,16.994 9.483,0 17.107,-7.587 17.107,-16.994 v -3.756 c 0,-4.969 -2.275,-9.824 -6.088,-13.011 2.864,-3.111 4.419,-7.284 4.419,-11.456 v -1.214 c 0,-8.573 -6.903,-15.554 -15.438,-15.554 -8.573,0 -15.458,6.98 -15.458,15.554 v 1.214 h 9.18 v -1.214 c 0,-3.452 2.921,-6.222 6.278,-6.222 3.376,0 6.259,2.77 6.259,6.222 v 1.214 c 0,4.097 -3.376,7.396 -7.492,7.396 h -1.232 v 8.725 h 2.466 c 4.268,0 7.795,3.452 7.795,7.701 v 4.4 c 0,4.248 -3.527,7.7 -7.795,7.7 -4.306,0 -7.776,-3.452 -7.776,-7.7 h -9.371 z"
   id="path4334"
   inkscape:connector-curvature="0" />
</g>
<g
   id="LWPOLYLINE_577_"
   transform="translate(-49.608002,-68.889)">
	<rect
   x="227.405"
   y="594.02802"
   width="20.181999"
   height="9.2180004"
   id="rect4337" />
</g>
<g
   id="LWPOLYLINE_578_"
   transform="translate(-49.608002,-68.889)">
	<path
   d="m 294.037,629.61 h -9.161 v -2.959 c -3.832,2.049 -7.947,3.035 -12.215,2.959 -3.851,0.076 -7.341,-2.275 -8.422,-5.842 -1.536,-4.855 -0.304,-10.015 3.225,-13.58 4.571,-4.78 10.697,-7.738 17.412,-8.27 v -4.855 c 0,-2.504 -2.144,-4.628 -4.724,-4.628 -2.617,0 -4.608,2.124 -4.608,4.628 h -9.313 c 0,-7.739 6.239,-13.884 13.921,-13.884 7.777,0 13.885,6.145 13.885,13.884 z"
   id="path4340"
   inkscape:connector-curvature="0" />
</g>
<g
   id="LWPOLYLINE_579_"
   transform="translate(-49.608002,-68.889)">
	<path
   d="m 284.876,607.988 c -3.187,0.721 -6.107,2.2 -8.402,4.248 -2.314,1.935 -3.51,4.704 -3.357,7.625 0,1.783 1.536,3.338 3.357,3.263 3.186,-0.455 5.955,-1.328 8.402,-2.655 z"
   id="path4343"
   inkscape:connector-curvature="0"
   style="fill:#ffd200" />
</g>
<g
   id="LWPOLYLINE_580_"
   transform="translate(-49.608002,-68.889)">
	<polygon
   points="323.55,583.18 317.442,595.546 311.183,583.18 301.832,583.18 312.682,604.878 300.334,629.61 309.646,629.61 317.442,614.096 325.086,629.61 334.398,629.61 322.051,604.878 332.862,583.18 "
   id="polygon4346" />
</g>
<g
   id="LWPOLYLINE_581_"
   transform="translate(-49.608002,-68.889)">
	<rect
   x="341.89099"
   y="567.62598"
   width="9.3319998"
   height="61.984001"
   id="rect4349" />
</g>
<g
   id="LWPOLYLINE_582_"
   transform="translate(-49.608002,-68.889)">
	<path
   d="m 392.039,629.61 h -9.331 v -2.959 c -3.642,2.049 -7.814,3.035 -12.063,2.959 -3.793,0.076 -7.359,-2.275 -8.421,-5.842 -1.518,-4.855 -0.304,-10.015 3.187,-13.58 4.628,-4.78 10.735,-7.738 17.298,-8.27 v -4.855 c 0,-2.504 -1.973,-4.628 -4.553,-4.628 -2.617,0 -4.59,2.124 -4.59,4.628 h -9.369 c 0,-7.739 6.297,-13.884 13.959,-13.884 7.587,0 13.884,6.145 13.884,13.884 v 32.547 z"
   id="path4352"
   inkscape:connector-curvature="0" />
</g>
<g
   id="LWPOLYLINE_583_"
   transform="translate(-49.608002,-68.889)">
	<path
   d="m 382.708,607.988 c -3.035,0.721 -5.956,2.2 -8.27,4.248 -2.276,1.935 -3.49,4.704 -3.339,7.625 0,1.783 1.518,3.338 3.339,3.263 3.262,-0.455 5.993,-1.328 8.27,-2.655 z"
   id="path4355"
   inkscape:connector-curvature="0"
   style="fill:#ffd200" />
</g>
<g
   id="LWPOLYLINE_584_"
   transform="translate(-49.608002,-68.889)">
	<path
   d="m 401.979,594.636 v 25.453 c 1.062,5.425 5.651,9.294 11.152,9.521 3.793,-0.417 7.359,-1.669 10.546,-3.642 v 3.642 h 9.331 v -61.984 h -9.331 v 19.195 c -3.187,-1.973 -6.753,-3.187 -10.546,-3.642 -6.069,10e-4 -11.152,4.931 -11.152,11.457 z"
   id="path4358"
   inkscape:connector-curvature="0" />
</g>
<g
   id="LWPOLYLINE_585_"
   transform="translate(-49.608002,-68.889)">
	<path
   d="m 423.677,596.76 v 19.271 c 0,3.414 -2.731,6.221 -6.07,6.221 -3.565,0 -6.297,-2.807 -6.297,-6.221 V 596.76 c 0,-3.414 2.731,-6.146 6.297,-6.146 3.338,0 6.07,2.732 6.07,6.146 z"
   id="path4361"
   inkscape:connector-curvature="0"
   style="fill:#ffd200" />
</g>
<g
   id="LWPOLYLINE_586_"
   transform="translate(-49.608002,-68.889)">
	<path
   d="m 168.399,695.388 v 25.53 c -1.081,5.349 -5.652,9.294 -11.152,9.521 -3.68,-0.531 -7.341,-1.745 -10.565,-3.642 v 3.642 h -9.313 v -62.061 h 9.313 v 19.271 c 3.225,-2.011 6.733,-3.262 10.565,-3.793 6.107,0 11.152,5.007 11.152,11.532 z"
   id="path4364"
   inkscape:connector-curvature="0" />
</g>
<g
   id="LWPOLYLINE_587_"
   transform="translate(-49.608002,-68.889)">
	<path
   d="m 146.682,697.588 v 19.195 c 0,3.414 2.731,6.183 6.26,6.183 3.356,0 6.126,-2.769 6.126,-6.183 v -19.195 c 0,-3.414 -2.77,-6.297 -6.126,-6.297 -3.529,0 -6.26,2.883 -6.26,6.297 z"
   id="path4367"
   inkscape:connector-curvature="0"
   style="fill:#ffd200" />
</g>
<g
   id="LWPOLYLINE_588_"
   transform="translate(-49.608002,-68.889)">
	<path
   d="m 178.319,714.924 c 0,8.573 6.885,15.516 15.458,15.516 8.535,0 15.571,-6.942 15.571,-15.516 v -15.515 c 0,-8.573 -7.036,-15.553 -15.571,-15.553 -8.573,0 -15.458,6.979 -15.458,15.553 z"
   id="path4370"
   inkscape:connector-curvature="0" />
</g>
<g
   id="LWPOLYLINE_589_"
   transform="translate(-49.608002,-68.889)">
	<path
   d="m 187.632,714.924 c 0,3.452 2.788,6.184 6.146,6.184 3.527,0 6.259,-2.731 6.259,-6.184 v -15.515 c 0,-3.414 -2.731,-6.146 -6.259,-6.146 -3.357,0 -6.146,2.731 -6.146,6.146 z"
   id="path4373"
   inkscape:connector-curvature="0"
   style="fill:#ffd200" />
</g>
<g
   id="LWPOLYLINE_590_"
   transform="translate(-49.608002,-68.889)">
	<path
   d="m 240.397,727.936 c -3.224,1.973 -6.903,3.263 -10.564,3.718 -6.259,0 -11.152,-5.008 -11.152,-11.153 0,-0.303 0,-25.833 0,-25.833 1.081,-5.349 5.652,-9.294 11.152,-9.521 3.661,0.455 7.341,1.745 10.564,3.642 v -3.642 h 9.161 v 42.79 c 0,2.2 -0.436,4.362 -1.384,6.297 -3.357,7.436 -12.196,10.697 -19.726,7.132 l 4.002,-8.422 c 2.73,1.366 6.107,0.076 7.34,-2.655 0.305,-0.761 0.607,-1.519 0.607,-2.353 z"
   id="path4376"
   inkscape:connector-curvature="0" />
</g>
<g
   id="LWPOLYLINE_591_"
   transform="translate(-49.608002,-68.889)">
	<path
   d="m 227.842,717.997 c 0,3.414 2.921,6.145 6.297,6.145 3.338,0 6.259,-2.73 6.259,-6.145 v -19.195 c 0,-3.414 -2.921,-6.221 -6.259,-6.221 -3.376,0 -6.297,2.807 -6.297,6.221 z"
   id="path4379"
   inkscape:connector-curvature="0"
   style="fill:#ffd200" />
</g>
<g
   id="LWPOLYLINE_592_"
   transform="translate(-49.608002,-68.889)">
	<path
   d="m 280.608,727.936 c -3.225,1.973 -6.753,3.263 -10.565,3.718 -6.107,0 -11.152,-5.008 -11.152,-11.153 0,-0.303 0,-25.833 0,-25.833 1.081,-5.349 5.652,-9.294 11.152,-9.521 3.813,0.455 7.341,1.745 10.565,3.642 v -3.642 h 9.313 v 42.79 c 0,2.2 -0.437,4.362 -1.385,6.297 -3.527,7.436 -12.386,10.697 -19.877,7.132 l 4.002,-8.422 c 2.73,1.366 6.107,0.076 7.491,-2.655 0.304,-0.761 0.456,-1.519 0.456,-2.353 z"
   id="path4382"
   inkscape:connector-curvature="0" />
</g>
<g
   id="LWPOLYLINE_593_"
   transform="translate(-49.608002,-68.889)">
	<path
   d="m 268.203,717.997 c 0,3.414 2.77,6.145 6.298,6.145 3.338,0 6.107,-2.73 6.107,-6.145 v -19.195 c 0,-3.414 -2.77,-6.221 -6.107,-6.221 -3.528,0 -6.298,2.807 -6.298,6.221 z"
   id="path4385"
   inkscape:connector-curvature="0"
   style="fill:#ffd200" />
</g>
<g
   id="LWPOLYLINE_594_"
   transform="translate(-49.608002,-68.889)">
	<rect
   x="301.073"
   y="683.85602"
   width="9.3319998"
   height="46.583"
   id="rect4388" />
</g>
<g
   id="LWPOLYLINE_595_"
   transform="translate(-49.608002,-68.889)">
	<rect
   x="301.073"
   y="668.37903"
   width="9.3319998"
   height="9.3319998"
   id="rect4391" />
</g>
<g
   id="LWPOLYLINE_596_"
   transform="translate(-49.608002,-68.889)">
	<path
   d="m 341.436,688.56 h 9.332 v -3.11 c 0,-0.986 0.151,-2.011 0.455,-2.883 1.669,-4.021 6.146,-5.918 10.09,-4.324 3.945,1.593 5.956,6.221 4.249,10.166 l -24.126,32.699 v 9.332 h 34.103 v -9.332 h -23.557 l 22.457,-29.892 c 3.262,-8.801 -1.366,-18.664 -10.242,-21.774 -8.801,-3.187 -18.664,1.365 -21.831,10.242 -0.778,2.428 -1.081,4.932 -0.93,7.511 z"
   id="path4394"
   inkscape:connector-curvature="0" />
</g>
<g
   id="LWPOLYLINE_597_"
   transform="translate(-49.608002,-68.889)">
	<polygon
   points="417.759,708.741 422.614,708.741 422.614,717.997 417.759,717.997 417.759,730.439 408.427,730.439 408.427,717.997 385.438,717.997 385.438,708.741 408.427,668.379 417.759,668.379 "
   id="polygon4397" />
</g>
<g
   id="LWPOLYLINE_598_"
   transform="translate(-49.608002,-68.889)">
	<polygon
   points="408.427,708.741 396.022,708.741 408.427,686.891 "
   id="polygon4400"
   style="fill:#ffd200" />
</g>
<g
   id="LWPOLYLINE_599_"
   transform="translate(-49.608002,-68.889)">
	<path
   d="m 452.733,683.856 h 5.235 v 9.407 h -5.235 v 22.608 c 0,2.884 2.276,5.235 5.235,5.235 v 9.332 c -7.966,0 -14.566,-6.563 -14.566,-14.567 v -22.608 h -5.159 v -9.407 h 5.159 v -15.478 h 9.331 z"
   id="path4403"
   inkscape:connector-curvature="0" />
</g>
<g
   id="LWPOLYLINE_600_"
   transform="translate(-49.608002,-68.889)">
	<rect
   x="49.608002"
   y="68.889"
   width="496.06299"
   height="248.013"
   id="rect4406"
   style="fill:#ffd200" />
</g>
<g
   id="LWPOLYLINE_601_"
   transform="translate(-49.608002,-68.889)">
	<path
   d="m 67.021,316.901 h 461.24 c 9.597,0 17.411,-7.776 17.411,-17.393 V 86.338 c 0,-9.635 -7.814,-17.449 -17.411,-17.449 H 67.021 c -9.635,0 -17.412,7.814 -17.412,17.449 v 213.171 c -0.001,9.616 7.777,17.392 17.412,17.392 z"
   id="path4409"
   inkscape:connector-curvature="0"
   style="fill:#ef3e42" />
</g>
<g
   id="LWPOLYLINE_602_"
   transform="translate(-49.608002,-68.889)">
	<path
   d="m 67.021,305.313 h 461.24 c 3.224,0 5.804,-2.599 5.804,-5.804 V 86.338 c 0,-3.224 -2.58,-5.804 -5.804,-5.804 H 67.021 c -3.187,0 -5.804,2.58 -5.804,5.804 v 213.171 c 0,3.205 2.617,5.804 5.804,5.804 z"
   id="path4412"
   inkscape:connector-curvature="0"
   style="fill:#ffd200" />
</g>
<g
   id="LWPOLYLINE_603_"
   transform="translate(-49.608002,-68.889)">
	<path
   d="m 69.941,156.479 c 0,9.407 7.625,17.032 17.108,17.032 9.313,0 16.994,-7.625 16.994,-17.032 v -3.736 c 0,-4.988 -2.144,-9.769 -6.146,-12.993 2.921,-3.148 4.609,-7.188 4.609,-11.456 v -1.232 c 0,-8.573 -6.885,-15.534 -15.458,-15.534 -8.535,0 -15.572,6.961 -15.572,15.534 v 1.232 h 9.313 v -1.232 c 0,-3.433 2.769,-6.184 6.259,-6.184 3.357,0 6.126,2.751 6.126,6.184 v 1.232 c 0,4.116 -3.356,7.416 -7.321,7.416 H 84.45 v 8.688 h 2.599 c 4.306,0 7.662,3.433 7.662,7.758 v 4.324 c 0,4.286 -3.356,7.72 -7.662,7.72 -4.268,0 -7.796,-3.434 -7.796,-7.72 h -9.312 z"
   id="path4415"
   inkscape:connector-curvature="0" />
</g>
<g
   id="LWPOLYLINE_604_"
   transform="translate(-49.608002,-68.889)">
	<rect
   x="135.07401"
   y="137.929"
   width="20.181"
   height="9.3129997"
   id="rect4418" />
</g>
<g
   id="LWPOLYLINE_605_"
   transform="translate(-49.608002,-68.889)">
	<path
   d="m 201.725,173.511 h -9.332 v -2.939 c -3.661,2.048 -7.966,3.016 -12.082,2.939 -3.831,0.151 -7.34,-2.276 -8.535,-5.861 -1.536,-4.836 -0.151,-9.995 3.319,-13.523 4.457,-4.817 10.716,-7.814 17.298,-8.345 v -4.837 c 0,-2.504 -1.973,-4.571 -4.609,-4.571 -2.579,0 -4.703,2.067 -4.703,4.571 H 173.9 c 0,-7.625 6.107,-13.884 13.884,-13.884 7.644,0 13.941,6.259 13.941,13.884 z"
   id="path4421"
   inkscape:connector-curvature="0" />
</g>
<g
   id="LWPOLYLINE_606_"
   transform="translate(-49.608002,-68.889)">
	<path
   d="m 192.393,151.889 c -3.073,0.701 -5.956,2.237 -8.422,4.305 -2.143,1.897 -3.376,4.647 -3.376,7.568 0,1.82 1.688,3.357 3.528,3.357 3.225,-0.551 5.842,-1.461 8.27,-2.77 z"
   id="path4424"
   inkscape:connector-curvature="0"
   style="fill:#ffd200" />
</g>
<g
   id="LWPOLYLINE_607_"
   transform="translate(-49.608002,-68.889)">
	<polygon
   points="212.877,111.526 222.189,111.526 222.189,145.781 234.594,127.061 243.907,127.061 233.209,142.974 243.907,173.511 234.594,173.511 227.103,152.229 222.189,159.627 222.189,173.511 212.877,173.511 "
   id="polygon4427" />
</g>
<g
   id="LWPOLYLINE_608_"
   transform="translate(-49.608002,-68.889)">
	<path
   d="m 249.407,158.033 c 0,8.535 7.037,15.478 15.572,15.478 h 1.252 c 7.473,0 13.58,-6.089 13.58,-13.58 0,-4.894 -2.58,-9.332 -6.695,-11.798 l -10.262,-6.031 c -1.043,-0.513 -1.688,-1.594 -1.688,-2.655 0,-1.669 1.536,-3.073 3.225,-3.073 h 1.84 c 1.669,0 3.072,1.404 3.072,3.073 h 9.313 c 0,-6.886 -5.5,-12.386 -12.385,-12.386 h -1.84 c -6.886,0 -12.386,5.5 -12.386,12.386 0,4.419 2.313,8.459 6.126,10.716 l 10.224,6.031 c 1.385,0.74 2.144,2.2 2.144,3.737 0,2.352 -1.84,4.268 -4.268,4.268 h -1.252 c -3.509,0 -6.24,-2.731 -6.24,-6.165 h -9.332 z"
   id="path4430"
   inkscape:connector-curvature="0" />
</g>
<g
   id="LWPOLYLINE_609_"
   transform="translate(-49.608002,-68.889)">
	<path
   d="m 310.254,158.033 h 9.313 c 0,8.535 -7.037,15.478 -15.572,15.478 -8.573,0 -15.458,-6.942 -15.458,-15.478 v -15.477 c 0,-8.535 6.885,-15.496 15.458,-15.496 8.535,0 15.572,6.961 15.572,15.496 v 8.648 h -21.698 v 6.828 c 0,3.434 2.77,6.165 6.126,6.165 3.527,0.001 6.259,-2.73 6.259,-6.164 z"
   id="path4433"
   inkscape:connector-curvature="0" />
</g>
<g
   id="LWPOLYLINE_610_"
   transform="translate(-49.608002,-68.889)">
	<path
   d="m 297.868,143.201 h 12.386 c 0,-4.059 -2.731,-6.828 -6.26,-6.828 -3.356,0 -6.126,2.77 -6.126,6.828 z"
   id="path4436"
   inkscape:connector-curvature="0"
   style="fill:#ffd200" />
</g>
<g
   id="LWPOLYLINE_611_"
   transform="translate(-49.608002,-68.889)">
	<rect
   x="330.73801"
   y="111.526"
   width="9.3129997"
   height="61.984001"
   id="rect4439" />
</g>
<g
   id="LWPOLYLINE_612_"
   transform="translate(-49.608002,-68.889)">
	<rect
   x="352.43701"
   y="127.061"
   width="9.3310003"
   height="46.450001"
   id="rect4442" />
</g>
<g
   id="LWPOLYLINE_613_"
   transform="translate(-49.608002,-68.889)">
	<rect
   x="352.43701"
   y="111.526"
   width="9.3310003"
   height="9.3509998"
   id="rect4445" />
</g>
<g
   id="LWPOLYLINE_614_"
   transform="translate(-49.608002,-68.889)">
	<path
   d="m 371.707,158.033 c 0,8.535 6.866,15.478 15.438,15.478 h 1.252 c 7.474,0 13.581,-6.089 13.581,-13.58 0,-4.894 -2.58,-9.332 -6.753,-11.798 l -10.204,-6.031 c -1.1,-0.513 -1.556,-1.594 -1.556,-2.655 0,-1.669 1.404,-3.073 3.111,-3.073 h 1.82 c 1.669,0 3.035,1.404 3.035,3.073 h 9.332 c 0,-6.886 -5.539,-12.386 -12.367,-12.386 h -1.82 c -6.904,0 -12.442,5.5 -12.442,12.386 0,4.419 2.313,8.459 6.146,10.716 l 10.242,6.031 c 1.365,0.74 2.124,2.2 2.124,3.737 0,2.352 -1.821,4.268 -4.249,4.268 h -1.252 c -3.527,0 -6.259,-2.731 -6.259,-6.165 h -9.179 z"
   id="path4448"
   inkscape:connector-curvature="0" />
</g>
<g
   id="LWPOLYLINE_615_"
   transform="translate(-49.608002,-68.889)">
	<path
   d="m 432.401,158.033 h 9.332 c 0,8.535 -7.057,15.478 -15.629,15.478 -8.498,0 -15.401,-6.942 -15.401,-15.478 v -15.477 c 0,-8.535 6.903,-15.496 15.401,-15.496 8.572,0 15.629,6.961 15.629,15.496 v 8.648 h -21.699 v 6.828 c 0,3.434 2.731,6.165 6.07,6.165 3.566,0.001 6.297,-2.73 6.297,-6.164 z"
   id="path4451"
   inkscape:connector-curvature="0" />
</g>
<g
   id="LWPOLYLINE_616_"
   transform="translate(-49.608002,-68.889)">
	<path
   d="m 420.034,143.201 h 12.367 c 0,-4.059 -2.731,-6.828 -6.297,-6.828 -3.338,0 -6.07,2.77 -6.07,6.828 z"
   id="path4454"
   inkscape:connector-curvature="0"
   style="fill:#ffd200" />
</g>
<g
   id="LWPOLYLINE_617_"
   transform="translate(-49.608002,-68.889)">
	<rect
   x="452.88599"
   y="111.526"
   width="9.3319998"
   height="61.984001"
   id="rect4457" />
</g>
<g
   id="LWPOLYLINE_618_"
   transform="translate(-49.608002,-68.889)">
	<rect
   x="474.58401"
   y="111.526"
   width="9.3319998"
   height="61.984001"
   id="rect4460" />
</g>
<g
   id="LWPOLYLINE_619_"
   transform="translate(-49.608002,-68.889)">
	<path
   d="m 516.159,158.033 h 9.332 c 0,8.535 -6.979,15.478 -15.553,15.478 -8.574,0 -15.478,-6.942 -15.478,-15.478 v -15.477 c 0,-8.535 6.904,-15.496 15.478,-15.496 8.574,0 15.553,6.961 15.553,15.496 v 8.648 h -21.698 v 6.828 c 0,3.434 2.731,6.165 6.146,6.165 3.337,0.001 6.22,-2.73 6.22,-6.164 z"
   id="path4463"
   inkscape:connector-curvature="0" />
</g>
<g
   id="LWPOLYLINE_620_"
   transform="translate(-49.608002,-68.889)">
	<path
   d="m 503.793,143.201 h 12.366 c 0,-4.059 -2.883,-6.828 -6.221,-6.828 -3.414,0 -6.145,2.77 -6.145,6.828 z"
   id="path4466"
   inkscape:connector-curvature="0"
   style="fill:#ffd200" />
</g>
<g
   id="LWPOLYLINE_621_"
   transform="translate(-49.608002,-68.889)">
	<path
   d="m 145.753,227.813 h 5.196 v 9.313 h -5.196 v 22.608 c 0,2.921 2.313,5.292 5.196,5.292 v 9.313 c -7.928,0 -14.528,-6.543 -14.528,-14.604 v -22.608 h -5.159 v -9.313 h 5.159 V 212.28 h 9.332 z"
   id="path4469"
   inkscape:connector-curvature="0" />
</g>
<g
   id="LWPOLYLINE_622_"
   transform="translate(-49.608002,-68.889)">
	<path
   d="m 180.159,258.843 h 9.313 c 0,8.535 -7.037,15.496 -15.572,15.496 -8.573,0 -15.458,-6.961 -15.458,-15.496 V 243.31 c 0,-8.535 6.885,-15.496 15.458,-15.496 8.535,0 15.572,6.961 15.572,15.496 v 8.648 h -21.718 v 6.885 c 0,3.377 2.77,6.184 6.146,6.184 3.528,-10e-4 6.259,-2.807 6.259,-6.184 z"
   id="path4472"
   inkscape:connector-curvature="0" />
</g>
<g
   id="LWPOLYLINE_623_"
   transform="translate(-49.608002,-68.889)">
	<path
   d="m 167.754,243.954 h 12.405 c 0,-4.097 -2.731,-6.828 -6.26,-6.828 -3.376,0 -6.145,2.731 -6.145,6.828 z"
   id="path4475"
   inkscape:connector-curvature="0"
   style="fill:#ffd200" />
</g>
<g
   id="LWPOLYLINE_624_"
   transform="translate(-49.608002,-68.889)">
	<rect
   x="200.62399"
   y="212.27901"
   width="9.3319998"
   height="62.060001"
   id="rect4478" />
</g>
<g
   id="LWPOLYLINE_625_"
   transform="translate(-49.608002,-68.889)">
	<rect
   x="222.342"
   y="227.813"
   width="9.3310003"
   height="46.525002"
   id="rect4481" />
</g>
<g
   id="LWPOLYLINE_626_"
   transform="translate(-49.608002,-68.889)">
	<rect
   x="222.342"
   y="212.27901"
   width="9.3310003"
   height="9.3129997"
   id="rect4484" />
</g>
<g
   id="LWPOLYLINE_627_"
   transform="translate(-49.608002,-68.889)">
	<rect
   x="244.05901"
   y="212.27901"
   width="9.3319998"
   height="62.060001"
   id="rect4487" />
</g>
<g
   id="LWPOLYLINE_628_"
   transform="translate(-49.608002,-68.889)">
	<rect
   x="265.77499"
   y="212.27901"
   width="9.3319998"
   height="62.060001"
   id="rect4490" />
</g>
<g
   id="LWPOLYLINE_629_"
   transform="translate(-49.608002,-68.889)">
	<path
   d="m 307.371,258.843 h 9.313 c 0,8.535 -7.037,15.496 -15.61,15.496 -8.573,0 -15.42,-6.961 -15.42,-15.496 V 243.31 c 0,-8.535 6.847,-15.496 15.42,-15.496 8.573,0 15.61,6.961 15.61,15.496 v 8.648 h -21.698 v 6.885 c 0,3.377 2.73,6.184 6.088,6.184 3.376,-10e-4 6.297,-2.807 6.297,-6.184 z"
   id="path4493"
   inkscape:connector-curvature="0" />
</g>
<g
   id="LWPOLYLINE_630_"
   transform="translate(-49.608002,-68.889)">
	<path
   d="m 294.985,243.954 h 12.386 c 0,-4.097 -2.921,-6.828 -6.298,-6.828 -3.357,0 -6.088,2.731 -6.088,6.828 z"
   id="path4496"
   inkscape:connector-curvature="0"
   style="fill:#ffd200" />
</g>
<g
   id="LWPOLYLINE_631_"
   transform="translate(-49.608002,-68.889)">
	<path
   d="m 347.543,232.46 h 9.294 v -3.11 c 0,-1.024 0.228,-1.991 0.683,-2.921 1.669,-3.983 6.069,-5.88 10.053,-4.268 3.982,1.688 5.842,6.164 4.286,10.147 l -24.315,32.718 v 9.313 h 34.103 v -9.313 h -23.52 l 22.609,-29.873 c 3.187,-8.876 -1.366,-18.645 -10.242,-21.869 -8.877,-3.148 -18.664,1.461 -21.851,10.337 -0.91,2.353 -1.252,4.932 -0.91,7.474 z"
   id="path4499"
   inkscape:connector-curvature="0" />
</g>
<g
   id="LWPOLYLINE_632_"
   transform="translate(-49.608002,-68.889)">
	<polygon
   points="423.828,252.641 428.911,252.641 428.911,261.878 423.828,261.878 423.828,274.339 414.496,274.339 414.496,261.878 391.584,261.878 391.584,252.641 414.496,212.279 423.828,212.279 "
   id="polygon4502" />
</g>
<g
   id="LWPOLYLINE_633_"
   transform="translate(-49.608002,-68.889)">
	<polygon
   points="414.496,252.641 402.13,252.641 414.496,230.867 "
   id="polygon4505"
   style="fill:#ffd200" />
</g>
<g
   id="LWPOLYLINE_634_"
   transform="translate(-49.608002,-68.889)">
	<path
   d="m 458.841,227.813 h 5.349 v 9.313 h -5.349 v 22.608 c 0,2.921 2.466,5.292 5.349,5.292 v 9.313 c -8.079,0 -14.49,-6.543 -14.49,-14.604 v -22.608 h -5.387 v -9.313 H 449.7 V 212.28 h 9.142 v 15.533 z"
   id="path4508"
   inkscape:connector-curvature="0" />
</g>
</svg>