<?xml version="1.0" encoding="UTF-8" standalone="no"?>
<!-- Generator: Adobe Illustrator 15.1.0, SVG Export Plug-In . SVG Version: 6.00 Build 0)  -->

<svg
   xmlns:dc="http://purl.org/dc/elements/1.1/"
   xmlns:cc="http://creativecommons.org/ns#"
   xmlns:rdf="http://www.w3.org/1999/02/22-rdf-syntax-ns#"
   xmlns:svg="http://www.w3.org/2000/svg"
   xmlns="http://www.w3.org/2000/svg"
   xmlns:sodipodi="http://sodipodi.sourceforge.net/DTD/sodipodi-0.dtd"
   xmlns:inkscape="http://www.inkscape.org/namespaces/inkscape"
   version="1.0"
   id="Layer_1"
   x="0px"
   y="0px"
   width="496.064"
   height="434.66501"
   viewBox="0 0 496.06397 434.665"
   enable-background="new 0 0 595.28 841.89"
   xml:space="preserve"
   sodipodi:docname="871-3.svg"
   inkscape:version="0.92.5 (2060ec1f9f, 2020-04-08)"><metadata
   id="metadata3663"><rdf:RDF><cc:Work
       rdf:about=""><dc:format>image/svg+xml</dc:format><dc:type
         rdf:resource="http://purl.org/dc/dcmitype/StillImage" /></cc:Work></rdf:RDF></metadata><defs
   id="defs3661" /><sodipodi:namedview
   pagecolor="#ffffff"
   bordercolor="#666666"
   borderopacity="1"
   objecttolerance="10"
   gridtolerance="10"
   guidetolerance="10"
   inkscape:pageopacity="0"
   inkscape:pageshadow="2"
   inkscape:window-width="640"
   inkscape:window-height="480"
   id="namedview3659"
   showgrid="false"
   inkscape:zoom="0.28032165"
   inkscape:cx="248.03201"
   inkscape:cy="217.545"
   inkscape:window-x="0"
   inkscape:window-y="0"
   inkscape:window-maximized="0"
   inkscape:current-layer="Layer_1" />
<g
   id="LWPOLYLINE_5_"
   transform="translate(-49.608,-203.825)">
	<rect
   x="49.608002"
   y="440.04901"
   width="496.06299"
   height="198.44099"
   id="rect3553"
   style="fill:#ffd200" />
</g>
<g
   id="LWPOLYLINE_420_"
   transform="translate(-49.608,-203.825)">
	<path
   d="m 60.774,638.49 h 473.732 c 6.165,0 11.166,-5 11.166,-11.165 V 451.25 c 0,-6.141 -5.001,-11.201 -11.166,-11.201 H 60.774 c -6.153,0 -11.166,5.061 -11.166,11.201 v 176.075 c 0,6.165 5.013,11.165 11.166,11.165 z"
   id="path3556"
   inkscape:connector-curvature="0" />
</g>
<g
   id="LWPOLYLINE_6_"
   transform="translate(-49.608,-203.825)">
	<rect
   x="49.608002"
   y="203.826"
   width="496.06299"
   height="119.058"
   id="rect3559"
   style="fill:#ffd200" />
</g>
<g
   id="LWPOLYLINE_391_"
   transform="translate(-49.608,-203.825)">
	<path
   d="m 60.774,631.063 h 473.732 c 2.039,0 3.689,-1.65 3.689,-3.738 V 451.25 c 0,-2.038 -1.65,-3.737 -3.689,-3.737 H 60.774 c -2.063,0 -3.714,1.699 -3.714,3.737 v 176.075 c 0,2.088 1.651,3.738 3.714,3.738 z"
   id="path3562"
   inkscape:connector-curvature="0"
   style="fill:#ffd200" />
</g>
<g
   id="LWPOLYLINE_421_"
   transform="translate(-49.608,-203.825)">
	<path
   d="m 60.774,322.884 h 473.732 c 6.165,0 11.166,-5.049 11.166,-11.214 v -96.679 c 0,-6.189 -5.001,-11.166 -11.166,-11.166 H 60.774 c -6.153,0 -11.166,4.976 -11.166,11.166 v 96.679 c 0,6.165 5.013,11.214 11.166,11.214 z"
   id="path3565"
   inkscape:connector-curvature="0" />
</g>
<g
   id="LWPOLYLINE_393_"
   transform="translate(-49.608,-203.825)">
	<path
   d="m 188.534,507.029 h 9.673 c 6.954,0 12.634,-5.68 12.634,-12.622 v -2.015 c 0,-6.99 -5.68,-12.622 -12.634,-12.622 h -17.125 v 49.614 h 7.452 z"
   id="path3568"
   inkscape:connector-curvature="0" />
</g>
<g
   id="LWPOLYLINE_392_"
   transform="translate(-49.608,-203.825)">
	<path
   d="m 188.534,499.602 h 9.673 c 2.828,0 5.182,-2.379 5.182,-5.194 v -2.015 c 0,-2.889 -2.354,-5.17 -5.182,-5.17 h -9.673 z"
   id="path3571"
   inkscape:connector-curvature="0"
   style="fill:#ffd200" />
</g>
<g
   id="LWPOLYLINE_395_"
   transform="translate(-49.608,-203.825)">
	<path
   d="m 249.568,513.243 v -17.379 c 0,-8.908 -7.258,-16.094 -16.142,-16.094 -8.908,0 -16.153,7.186 -16.153,16.094 v 17.379 c 0,8.884 7.245,16.142 16.153,16.142 8.884,0 16.142,-7.258 16.142,-16.142 z"
   id="path3574"
   inkscape:connector-curvature="0" />
</g>
<g
   id="LWPOLYLINE_394_"
   transform="translate(-49.608,-203.825)">
	<path
   d="m 242.116,513.243 v -17.379 c 0,-4.782 -3.896,-8.642 -8.69,-8.642 -4.794,0 -8.726,3.859 -8.726,8.642 v 17.379 c 0,4.806 3.932,8.642 8.726,8.642 4.794,0 8.69,-3.836 8.69,-8.642 z"
   id="path3577"
   inkscape:connector-curvature="0"
   style="fill:#ffd200" />
</g>
<g
   id="LWPOLYLINE_396_"
   transform="translate(-49.608,-203.825)">
	<path
   d="m 269.812,507.029 v 22.355 H 262.36 V 479.77 h 17.137 c 7.039,0 12.719,5.632 12.719,12.622 v 2.015 c 0,5.316 -3.337,10.049 -8.41,11.894 l 8.41,23.084 h -8.022 L 276.16,507.03 h -6.348 z"
   id="path3580"
   inkscape:connector-curvature="0" />
</g>
<g
   id="LWPOLYLINE_397_"
   transform="translate(-49.608,-203.825)">
	<path
   d="m 269.812,499.602 h 9.685 c 2.937,0 5.292,-2.379 5.292,-5.194 v -2.015 c 0,-2.889 -2.354,-5.17 -5.292,-5.17 h -9.685 z"
   id="path3583"
   inkscape:connector-curvature="0"
   style="fill:#ffd200" />
</g>
<g
   id="LWPOLYLINE_398_"
   transform="translate(-49.608,-203.825)">
	<polygon
   points="316.476,514.457 325.869,479.771 333.867,479.771 320.189,529.385 312.737,529.385 299.157,479.771 307.082,479.771 "
   id="polygon3586" />
</g>
<g
   id="LWPOLYLINE_400_"
   transform="translate(-49.608,-203.825)">
	<path
   d="m 373.02,513.243 v -17.379 c 0,-8.908 -7.258,-16.094 -16.142,-16.094 -8.933,0 -16.068,7.186 -16.068,16.094 v 17.379 c 0,8.884 7.136,16.142 16.068,16.142 8.884,0 16.142,-7.258 16.142,-16.142 z"
   id="path3589"
   inkscape:connector-curvature="0" />
</g>
<g
   id="LWPOLYLINE_399_"
   transform="translate(-49.608,-203.825)">
	<path
   d="m 365.567,513.243 v -17.379 c 0,-4.782 -3.908,-8.642 -8.689,-8.642 -4.806,0 -8.593,3.859 -8.593,8.642 v 17.379 c 0,4.806 3.787,8.642 8.593,8.642 4.781,0 8.689,-3.836 8.689,-8.642 z"
   id="path3592"
   inkscape:connector-curvature="0"
   style="fill:#ffd200" />
</g>
<g
   id="LWPOLYLINE_402_"
   transform="translate(-49.608,-203.825)">
	<path
   d="m 414.21,513.243 v -17.379 c 0,-8.908 -7.233,-16.094 -16.165,-16.094 -8.908,0 -16.142,7.186 -16.142,16.094 v 17.379 c 0,8.884 7.233,16.142 16.142,16.142 8.932,0 16.165,-7.258 16.165,-16.142 z"
   id="path3595"
   inkscape:connector-curvature="0" />
</g>
<g
   id="LWPOLYLINE_401_"
   transform="translate(-49.608,-203.825)">
	<path
   d="m 406.782,513.243 v -17.379 c 0,-4.782 -3.932,-8.642 -8.737,-8.642 -4.782,0 -8.69,3.859 -8.69,8.642 v 17.379 c 0,4.806 3.908,8.642 8.69,8.642 4.806,0 8.737,-3.836 8.737,-8.642 z"
   id="path3598"
   inkscape:connector-curvature="0"
   style="fill:#ffd200" />
</g>
<g
   id="LWPOLYLINE_404_"
   transform="translate(-49.608,-203.825)">
	<path
   d="m 196.944,549.167 v 49.613 h 7.416 11.457 c 7.331,0 13.398,-5.971 13.398,-13.35 v -2.985 c 0,-4.199 -1.941,-8.132 -5.279,-10.656 1.748,-2.258 2.731,-5.098 2.731,-7.913 v -2.039 c 0,-6.99 -5.68,-12.67 -12.622,-12.67 z"
   id="path3601"
   inkscape:connector-curvature="0" />
</g>
<g
   id="LWPOLYLINE_403_"
   transform="translate(-49.608,-203.825)">
	<path
   d="m 204.36,569.022 h 9.685 c 2.852,0 5.194,-2.331 5.194,-5.146 v -2.039 c 0,-2.864 -2.342,-5.219 -5.194,-5.219 h -9.685 z"
   id="path3604"
   inkscape:connector-curvature="0"
   style="fill:#ffd200" />
</g>
<g
   id="LWPOLYLINE_405_"
   transform="translate(-49.608,-203.825)">
	<path
   d="m 204.36,576.498 h 11.457 c 3.229,0 5.971,2.621 5.971,5.947 v 2.985 c 0,3.252 -2.743,5.922 -5.971,5.922 H 204.36 Z"
   id="path3607"
   inkscape:connector-curvature="0"
   style="fill:#ffd200" />
</g>
<g
   id="LWPOLYLINE_407_"
   transform="translate(-49.608,-203.825)">
	<path
   d="m 270.892,582.688 v -17.355 c 0,-8.932 -7.233,-16.165 -16.142,-16.165 -8.92,0 -16.153,7.233 -16.153,16.165 v 17.355 c 0,8.884 7.233,16.093 16.153,16.093 8.908,-10e-4 16.142,-7.21 16.142,-16.093 z"
   id="path3610"
   inkscape:connector-curvature="0" />
</g>
<g
   id="LWPOLYLINE_406_"
   transform="translate(-49.608,-203.825)">
	<path
   d="m 263.439,582.688 v -17.355 c 0,-4.806 -3.908,-8.714 -8.689,-8.714 -4.794,0 -8.702,3.908 -8.702,8.714 v 17.355 c 0,4.782 3.908,8.665 8.702,8.665 4.782,0 8.689,-3.883 8.689,-8.665 z"
   id="path3613"
   inkscape:connector-curvature="0"
   style="fill:#ffd200" />
</g>
<g
   id="LWPOLYLINE_408_"
   transform="translate(-49.608,-203.825)">
	<path
   d="m 291.232,576.498 v 22.282 h -7.524 v -49.613 h 17.1 c 7.052,0 12.731,5.68 12.731,12.67 v 2.039 c 0,5.243 -3.338,10.049 -8.411,11.846 l 8.411,23.059 h -7.938 l -8.119,-22.282 h -6.25 z"
   id="path3616"
   inkscape:connector-curvature="0" />
</g>
<g
   id="LWPOLYLINE_409_"
   transform="translate(-49.608,-203.825)">
	<path
   d="m 291.232,569.022 h 9.576 c 2.949,0 5.304,-2.331 5.304,-5.146 v -2.039 c 0,-2.864 -2.354,-5.219 -5.304,-5.219 h -9.576 z"
   id="path3619"
   inkscape:connector-curvature="0"
   style="fill:#ffd200" />
</g>
<g
   id="LWPOLYLINE_410_"
   transform="translate(-49.608,-203.825)">
	<path
   d="m 349.741,598.78 h 4.879 v -27.258 h -16.044 v 7.451 h 8.617 v 3.472 c 0,5.024 -3.812,8.907 -8.617,8.907 -4.805,0 -8.689,-3.883 -8.689,-8.665 v -17.355 c 0,-4.806 3.884,-8.714 8.689,-8.714 4.805,0 8.617,3.908 8.617,8.714 h 7.427 c 0,-8.932 -7.16,-16.165 -16.044,-16.165 -8.884,0 -16.129,7.233 -16.129,16.165 v 17.355 c 0,8.835 7.245,16.093 16.129,16.045 3.229,0 6.456,-0.972 9.175,-2.913 z"
   id="path3622"
   inkscape:connector-curvature="0" />
</g>
<g
   id="LWPOLYLINE_412_"
   transform="translate(-49.608,-203.825)">
	<polygon
   points="376.733,549.167 385.131,549.167 398.336,598.78 390.423,598.78 388.189,590.334 373.771,590.334 371.538,598.78 363.626,598.78 "
   id="polygon3625" />
</g>
<g
   id="LWPOLYLINE_411_"
   transform="translate(-49.608,-203.825)">
	<polygon
   points="380.956,561.595 386.394,582.906 375.567,582.906 "
   id="polygon3628"
   style="fill:#ffd200" />
</g>
<g
   id="CIRCLE_107_"
   transform="translate(-49.608,-203.825)">
	<path
   d="m 386.685,541.254 c 0,-3.106 -2.621,-5.729 -5.729,-5.729 -3.155,0 -5.68,2.622 -5.68,5.729 0,3.131 2.524,5.729 5.68,5.729 3.107,-10e-4 5.729,-2.598 5.729,-5.729 z"
   id="path3631"
   inkscape:connector-curvature="0" />
</g>
<g
   id="CIRCLE_108_"
   transform="translate(-49.608,-203.825)">
	<path
   d="m 382.995,541.254 c 0,-1.068 -0.995,-1.941 -2.039,-1.941 -1.092,0 -1.99,0.873 -1.99,1.941 0,1.068 0.898,1.99 1.99,1.99 1.044,0 2.039,-0.922 2.039,-1.99 z"
   id="path3634"
   inkscape:connector-curvature="0"
   style="fill:#ffd200" />
</g>
<g
   id="LWPOLYLINE_413_"
   transform="translate(-49.608,-203.825)">
	<path
   d="m 60.774,315.432 h 473.732 c 2.039,0 3.689,-1.699 3.689,-3.762 v -96.679 c 0,-2.063 -1.65,-3.738 -3.689,-3.738 H 60.774 c -2.063,0 -3.714,1.675 -3.714,3.738 v 96.679 c 0,2.063 1.651,3.762 3.714,3.762 z"
   id="path3637"
   inkscape:connector-curvature="0"
   style="fill:#ffd200" />
</g>
<g
   id="LWPOLYLINE_414_"
   transform="translate(-49.608,-203.825)">
	<polygon
   points="208.365,238.56 208.365,280.722 225.684,280.722 225.684,288.149 200.937,288.149 200.937,238.56 "
   id="polygon3640" />
</g>
<g
   id="LWPOLYLINE_416_"
   transform="translate(-49.608,-203.825)">
	<polygon
   points="241.352,238.56 249.762,238.56 262.869,288.149 254.932,288.149 252.687,279.69 238.402,279.69 236.157,288.149 228.22,288.149 "
   id="polygon3643" />
</g>
<g
   id="LWPOLYLINE_415_"
   transform="translate(-49.608,-203.825)">
	<polygon
   points="245.551,250.915 251.036,272.239 240.089,272.239 "
   id="polygon3646"
   style="fill:#ffd200" />
</g>
<g
   id="LWPOLYLINE_417_"
   transform="translate(-49.608,-203.825)">
	<polygon
   points="306.111,288.149 313.539,288.149 313.539,238.56 305.128,238.56 293.671,266.826 282.227,238.56 273.816,238.56 273.816,288.149 281.268,288.149 281.268,255.903 293.671,288.149 306.111,255.903 "
   id="polygon3649" />
</g>
<g
   id="LWPOLYLINE_418_"
   transform="translate(-49.608,-203.825)">
	<polygon
   points="362.654,288.149 370.082,288.149 370.082,238.56 361.659,238.56 350.227,266.826 338.771,238.56 330.348,238.56 330.348,288.149 337.8,288.149 337.8,255.903 350.227,288.149 362.654,255.903 "
   id="polygon3652" />
</g>
<g
   id="LWPOLYLINE_419_"
   transform="translate(-49.608,-203.825)">
	<rect
   x="386.92801"
   y="238.56"
   width="7.4029999"
   height="49.589001"
   id="rect3655" />
</g>
</svg>