<?xml version="1.0" encoding="UTF-8" standalone="no"?>
<!-- Generator: Adobe Illustrator 15.1.0, SVG Export Plug-In . SVG Version: 6.00 Build 0)  -->

<svg
   xmlns:dc="http://purl.org/dc/elements/1.1/"
   xmlns:cc="http://creativecommons.org/ns#"
   xmlns:rdf="http://www.w3.org/1999/02/22-rdf-syntax-ns#"
   xmlns:svg="http://www.w3.org/2000/svg"
   xmlns="http://www.w3.org/2000/svg"
   xmlns:sodipodi="http://sodipodi.sourceforge.net/DTD/sodipodi-0.dtd"
   xmlns:inkscape="http://www.inkscape.org/namespaces/inkscape"
   version="1.0"
   id="Layer_1"
   x="0px"
   y="0px"
   width="496.06299"
   height="653.08398"
   viewBox="0 0 496.06296 653.08397"
   enable-background="new 0 0 595.28 841.89"
   xml:space="preserve"
   sodipodi:docname="872-1.svg"
   inkscape:version="0.92.5 (2060ec1f9f, 2020-04-08)"><metadata
   id="metadata4886"><rdf:RDF><cc:Work
       rdf:about=""><dc:format>image/svg+xml</dc:format><dc:type
         rdf:resource="http://purl.org/dc/dcmitype/StillImage" /></cc:Work></rdf:RDF></metadata><defs
   id="defs4884" /><sodipodi:namedview
   pagecolor="#ffffff"
   bordercolor="#666666"
   borderopacity="1"
   objecttolerance="10"
   gridtolerance="10"
   guidetolerance="10"
   inkscape:pageopacity="0"
   inkscape:pageshadow="2"
   inkscape:window-width="640"
   inkscape:window-height="480"
   id="namedview4882"
   showgrid="false"
   inkscape:zoom="0.28032165"
   inkscape:cx="247.93501"
   inkscape:cy="326.793"
   inkscape:window-x="0"
   inkscape:window-y="0"
   inkscape:window-maximized="0"
   inkscape:current-layer="Layer_1" />
<g
   id="LWPOLYLINE_697_"
   transform="translate(-49.705,-94.653999)">
	<rect
   x="91.103996"
   y="541.12701"
   width="413.245"
   height="206.61099"
   id="rect4581"
   style="fill:#ffd200" />
</g>
<g
   id="LWPOLYLINE_698_"
   transform="translate(-49.705,-94.653999)">
	<path
   d="M 103.521,747.738 H 491.97 c 6.836,0 12.378,-5.541 12.378,-12.377 V 553.504 c 0,-6.836 -5.542,-12.377 -12.378,-12.377 H 103.521 c -6.876,0 -12.417,5.541 -12.417,12.377 v 181.857 c 0,6.836 5.542,12.377 12.417,12.377 z"
   id="path4584"
   inkscape:connector-curvature="0"
   style="fill:#ef3e42" />
</g>
<g
   id="LWPOLYLINE_699_"
   transform="translate(-49.705,-94.653999)">
	<path
   d="M 103.521,739.527 H 491.97 c 2.266,0 4.045,-1.9 4.045,-4.166 V 553.504 c 0,-2.265 -1.779,-4.166 -4.045,-4.166 H 103.521 c -2.326,0 -4.267,1.901 -4.267,4.166 v 181.857 c 0,2.266 1.942,4.166 4.267,4.166 z"
   id="path4587"
   inkscape:connector-curvature="0"
   style="fill:#ffd200" />
</g>
<g
   id="LWPOLYLINE_700_"
   transform="translate(-49.705,-94.653999)">
	<polygon
   points="131.694,586.349 131.694,603.094 125.991,603.094 125.991,565.881 131.694,565.881 131.694,580.727 144.597,580.727 144.597,565.881 150.26,565.881 150.26,603.094 144.597,603.094 144.597,586.349 "
   id="polygon4590" />
</g>
<g
   id="LWPOLYLINE_701_"
   transform="translate(-49.705,-94.653999)">
	<path
   d="m 156.975,596.218 v -21.033 h 5.542 v 19.739 c 0,2.022 1.638,3.762 3.762,3.762 1.941,0 3.742,-1.739 3.742,-3.762 v -19.739 h 5.521 v 27.909 h -5.521 v -2.184 c -1.942,1.173 -4.105,1.941 -6.391,2.184 -3.743,0 -6.655,-2.993 -6.655,-6.876 z"
   id="path4593"
   inkscape:connector-curvature="0" />
</g>
<g
   id="LWPOLYLINE_702_"
   transform="translate(-49.705,-94.653999)">
	<path
   d="m 182.235,593.791 c 0,5.137 4.085,9.303 9.303,9.303 5.198,0 9.263,-4.166 9.263,-9.303 v -9.303 c 0,-5.097 -4.065,-9.304 -9.263,-9.304 -5.218,0 -9.303,4.207 -9.303,9.304 z"
   id="path4596"
   inkscape:connector-curvature="0" />
</g>
<g
   id="LWPOLYLINE_703_"
   transform="translate(-49.705,-94.653999)">
	<path
   d="m 187.796,593.791 c 0,2.022 1.598,3.722 3.742,3.722 2.124,0 3.762,-1.699 3.762,-3.722 v -9.303 c 0,-2.023 -1.638,-3.762 -3.762,-3.762 -2.144,0 -3.742,1.738 -3.742,3.762 z"
   id="path4599"
   inkscape:connector-curvature="0"
   style="fill:#ffd200" />
</g>
<g
   id="LWPOLYLINE_704_"
   transform="translate(-49.705,-94.653999)">
	<rect
   x="207.515"
   y="565.88098"
   width="5.5419998"
   height="37.213001"
   id="rect4602" />
</g>
<g
   id="LWPOLYLINE_705_"
   transform="translate(-49.705,-94.653999)">
	<path
   d="m 227.072,575.185 h 3.074 v 5.542 h -3.074 v 13.631 c 0,1.698 1.436,3.155 3.074,3.155 v 5.581 c -4.712,0 -8.616,-3.964 -8.616,-8.736 v -13.631 h -3.276 v -5.542 h 3.276 v -9.304 h 5.542 z"
   id="path4605"
   inkscape:connector-curvature="0" />
</g>
<g
   id="LWPOLYLINE_706_"
   transform="translate(-49.705,-94.653999)">
	<path
   d="m 235.061,593.791 c 0,5.137 4.065,9.303 9.303,9.303 5.177,0 9.263,-4.166 9.263,-9.303 v -9.303 c 0,-5.097 -4.085,-9.304 -9.263,-9.304 -5.238,0 -9.303,4.207 -9.303,9.304 z"
   id="path4608"
   inkscape:connector-curvature="0" />
</g>
<g
   id="LWPOLYLINE_707_"
   transform="translate(-49.705,-94.653999)">
	<path
   d="m 240.603,593.791 c 0,2.022 1.638,3.722 3.762,3.722 2.103,0 3.701,-1.699 3.701,-3.722 v -9.303 c 0,-2.023 -1.598,-3.762 -3.701,-3.762 -2.124,0 -3.762,1.738 -3.762,3.762 z"
   id="path4611"
   inkscape:connector-curvature="0"
   style="fill:#ffd200" />
</g>
<g
   id="LWPOLYLINE_708_"
   transform="translate(-49.705,-94.653999)">
	<path
   d="m 277.451,603.094 h -5.542 v -1.819 c -2.285,1.254 -4.752,1.9 -7.362,1.819 -2.265,0.081 -4.389,-1.415 -5.056,-3.559 -0.971,-2.832 -0.162,-5.987 1.941,-8.09 2.811,-2.913 6.391,-4.652 10.476,-5.016 v -2.832 c 0,-1.537 -1.335,-2.871 -2.811,-2.871 -1.638,0 -2.75,1.334 -2.75,2.871 h -5.704 c 0,-4.611 3.742,-8.413 8.454,-8.413 4.591,0 8.353,3.802 8.353,8.413 v 19.497 z"
   id="path4614"
   inkscape:connector-curvature="0" />
</g>
<g
   id="LWPOLYLINE_709_"
   transform="translate(-49.705,-94.653999)">
	<path
   d="m 271.91,590.069 c -1.962,0.485 -3.6,1.376 -5.076,2.589 -1.315,1.133 -2.124,2.832 -1.962,4.53 0,1.173 0.85,2.022 1.962,2.022 1.961,-0.283 3.6,-0.85 5.076,-1.618 z"
   id="path4617"
   inkscape:connector-curvature="0"
   style="fill:#ffd200" />
</g>
<g
   id="LWPOLYLINE_710_"
   transform="translate(-49.705,-94.653999)">
	<path
   d="m 289.667,575.185 v 27.182 c 0,4.449 -3.6,8.211 -8.15,8.211 -0.667,0 0,-5.622 0,-5.622 1.436,0 2.609,-1.133 2.609,-2.589 v -27.182 z"
   id="path4620"
   inkscape:connector-curvature="0" />
</g>
<g
   id="LWPOLYLINE_711_"
   transform="translate(-49.705,-94.653999)">
	<rect
   x="284.125"
   y="565.88098"
   width="5.5419998"
   height="5.5819998"
   id="rect4623" />
</g>
<g
   id="LWPOLYLINE_712_"
   transform="translate(-49.705,-94.653999)">
	<path
   d="m 296.341,593.791 c 0,5.137 4.227,9.303 9.303,9.303 5.218,0 9.445,-4.166 9.445,-9.303 v -9.303 c 0,-5.097 -4.228,-9.304 -9.445,-9.304 -5.076,0 -9.303,4.207 -9.303,9.304 z"
   id="path4626"
   inkscape:connector-curvature="0" />
</g>
<g
   id="LWPOLYLINE_713_"
   transform="translate(-49.705,-94.653999)">
	<path
   d="m 302.044,593.791 c 0,2.022 1.639,3.722 3.6,3.722 2.104,0 3.742,-1.699 3.742,-3.722 v -9.303 c 0,-2.023 -1.639,-3.762 -3.742,-3.762 -1.961,0 -3.6,1.738 -3.6,3.762 z"
   id="path4629"
   inkscape:connector-curvature="0"
   style="fill:#ffd200" />
</g>
<g
   id="LWPOLYLINE_714_"
   transform="translate(-49.705,-94.653999)">
	<path
   d="m 333.654,593.791 c 0,5.137 4.065,9.303 9.304,9.303 5.239,0 8.777,-3.721 8.777,-8.17 0,-2.953 -1.416,-5.623 -4.065,-7.119 l -6.026,-3.56 c -0.647,-0.323 -0.951,-0.971 -0.951,-1.618 0,-0.971 0.789,-1.9 1.78,-1.9 h 1.133 c 1.152,0 1.941,0.93 1.941,1.9 h 5.582 c 0,-4.126 -3.459,-7.442 -7.523,-7.442 h -1.133 c -4.065,0 -7.342,3.316 -7.342,7.442 0,2.67 1.314,5.097 3.601,6.432 l 6.188,3.6 c 0.788,0.485 1.314,1.295 1.314,2.266 0,1.456 -1.153,2.589 -2.629,2.589 -2.771,0 -4.389,-1.699 -4.389,-3.722 h -5.562 z"
   id="path4632"
   inkscape:connector-curvature="0" />
</g>
<g
   id="LWPOLYLINE_715_"
   transform="translate(-49.705,-94.653999)">
	<path
   d="m 375.236,603.094 h -5.501 v -1.819 c -2.347,1.254 -4.773,1.9 -7.362,1.819 -2.265,0.081 -4.247,-1.415 -5.097,-3.559 -0.971,-2.832 -0.161,-5.987 1.942,-8.09 2.831,-2.913 6.552,-4.652 10.517,-5.016 v -2.832 c 0,-1.537 -1.376,-2.871 -2.832,-2.871 -1.618,0 -2.75,1.334 -2.75,2.871 h -5.703 c 0,-4.611 3.923,-8.413 8.453,-8.413 4.611,0 8.333,3.802 8.333,8.413 z"
   id="path4635"
   inkscape:connector-curvature="0" />
</g>
<g
   id="LWPOLYLINE_716_"
   transform="translate(-49.705,-94.653999)">
	<path
   d="m 369.735,590.069 c -1.82,0.485 -3.641,1.376 -5.097,2.589 -1.295,1.133 -1.941,2.832 -1.941,4.53 0,1.173 0.971,2.022 1.941,2.022 1.941,-0.283 3.6,-0.85 5.097,-1.618 z"
   id="path4638"
   inkscape:connector-curvature="0"
   style="fill:#ffd200" />
</g>
<g
   id="LWPOLYLINE_717_"
   transform="translate(-49.705,-94.653999)">
	<rect
   x="381.95001"
   y="565.88098"
   width="5.5009999"
   height="37.213001"
   id="rect4641" />
</g>
<g
   id="LWPOLYLINE_718_"
   transform="translate(-49.705,-94.653999)">
	<rect
   x="394.97501"
   y="565.88098"
   width="5.5009999"
   height="37.213001"
   id="rect4644" />
</g>
<g
   id="LWPOLYLINE_719_"
   transform="translate(-49.705,-94.653999)">
	<rect
   x="407.99899"
   y="575.185"
   width="5.5419998"
   height="27.909"
   id="rect4647" />
</g>
<g
   id="LWPOLYLINE_720_"
   transform="translate(-49.705,-94.653999)">
	<rect
   x="407.99899"
   y="565.88098"
   width="5.5419998"
   height="5.5819998"
   id="rect4650" />
</g>
<g
   id="LWPOLYLINE_721_"
   transform="translate(-49.705,-94.653999)">
	<path
   d="m 427.576,575.185 h 3.074 v 5.542 h -3.074 v 13.631 c 0,1.698 1.295,3.155 3.074,3.155 v 5.581 c -4.732,0 -8.655,-3.964 -8.655,-8.736 v -13.631 h -3.236 v -5.542 h 3.236 v -9.304 h 5.581 z"
   id="path4653"
   inkscape:connector-curvature="0" />
</g>
<g
   id="LWPOLYLINE_722_"
   transform="translate(-49.705,-94.653999)">
	<path
   d="m 442.704,575.185 h 3.317 v 5.542 h -3.317 v 13.631 c 0,1.698 1.497,3.155 3.317,3.155 v 5.581 c -4.935,0 -8.858,-3.964 -8.858,-8.736 v -13.631 h -3.074 v -5.542 h 3.074 v -9.304 h 5.541 z"
   id="path4656"
   inkscape:connector-curvature="0" />
</g>
<g
   id="LWPOLYLINE_723_"
   transform="translate(-49.705,-94.653999)">
	<path
   d="m 450.713,596.218 v -21.033 h 5.703 v 19.739 c 0,2.022 1.659,3.762 3.601,3.762 2.104,0 3.721,-1.739 3.721,-3.762 v -19.739 h 5.582 v 27.909 h -5.582 v -2.184 c -1.941,1.173 -4.045,1.941 -6.391,2.184 -3.519,0 -6.634,-2.993 -6.634,-6.876 z"
   id="path4659"
   inkscape:connector-curvature="0" />
</g>
<g
   id="LWPOLYLINE_724_"
   transform="translate(-49.705,-94.653999)">
	<path
   d="m 165.105,637.961 c 0,-2.468 -1.942,-4.368 -4.389,-4.449 h -2.265 c -2.488,0.162 -4.429,2.185 -4.268,4.611 0.182,1.294 0.829,2.508 1.78,3.276 l 9.951,3.6 c 2.629,1.618 4.429,4.126 5.076,7.038 1.314,5.905 -2.447,11.649 -8.313,12.943 -7.503,1.012 -14.177,-3.964 -15.33,-11.204 l 5.542,-0.85 c 0.647,4.288 4.551,7.119 8.636,6.553 2.953,-0.728 4.591,-3.479 3.903,-6.351 -0.324,-1.254 -0.951,-2.306 -1.962,-3.033 l -9.93,-3.641 c -2.913,-1.739 -4.712,-4.813 -4.874,-8.171 -0.162,-5.581 4.085,-10.192 9.626,-10.436 h 2.589 c 5.4,0.243 9.789,4.651 9.95,10.112 h -5.722 z"
   id="path4662"
   inkscape:connector-curvature="0" />
</g>
<g
   id="LWPOLYLINE_725_"
   transform="translate(-49.705,-94.653999)">
	<path
   d="m 190.224,655.839 h 5.542 c 0,5.097 -4.065,9.304 -9.303,9.304 -5.056,0 -9.283,-4.207 -9.283,-9.304 v -9.303 c 0,-5.137 4.227,-9.384 9.283,-9.384 5.238,0 9.303,4.247 9.303,9.384 v 5.097 H 182.72 v 4.206 c 0,2.022 1.8,3.641 3.742,3.641 2.123,-10e-4 3.762,-1.619 3.762,-3.641 z"
   id="path4665"
   inkscape:connector-curvature="0" />
</g>
<g
   id="LWPOLYLINE_726_"
   transform="translate(-49.705,-94.653999)">
	<path
   d="m 182.72,646.859 h 7.503 c 0,-2.467 -1.638,-4.125 -3.762,-4.125 -1.941,0 -3.741,1.659 -3.741,4.125 z"
   id="path4668"
   inkscape:connector-curvature="0"
   style="fill:#ffd200" />
</g>
<g
   id="LWPOLYLINE_727_"
   transform="translate(-49.705,-94.653999)">
	<path
   d="m 208.142,645.808 v 19.335 h -5.703 v -27.99 h 5.703 v 1.537 c 1.962,-0.971 4.085,-1.537 6.189,-1.537 v 5.905 c -1.477,-1.416 -3.742,-1.335 -5.178,0.081 -0.687,0.687 -1.011,1.658 -1.011,2.669 z"
   id="path4671"
   inkscape:connector-curvature="0" />
</g>
<g
   id="LWPOLYLINE_728_"
   transform="translate(-49.705,-94.653999)">
	<polygon
   points="228.872,665.143 236.335,637.152 230.814,637.152 226.082,654.545 221.531,637.152 215.807,637.152 223.311,665.143 "
   id="polygon4674" />
</g>
<g
   id="LWPOLYLINE_729_"
   transform="translate(-49.705,-94.653999)">
	<rect
   x="241.25"
   y="637.15198"
   width="5.5419998"
   height="27.99"
   id="rect4677" />
</g>
<g
   id="LWPOLYLINE_730_"
   transform="translate(-49.705,-94.653999)">
	<rect
   x="241.25"
   y="627.849"
   width="5.5419998"
   height="5.6630001"
   id="rect4680" />
</g>
<g
   id="LWPOLYLINE_731_"
   transform="translate(-49.705,-94.653999)">
	<path
   d="m 272.051,646.536 c 0,-5.137 -4.227,-9.384 -9.283,-9.384 -5.238,0 -9.303,4.247 -9.303,9.384 v 9.303 c 0,5.097 4.065,9.304 9.303,9.304 5.056,0 9.283,-4.207 9.283,-9.304 h -5.542 c 0,2.022 -1.638,3.641 -3.742,3.641 -2.124,0 -3.762,-1.618 -3.762,-3.641 v -9.303 c 0,-2.144 1.638,-3.802 3.762,-3.802 2.104,0 3.742,1.658 3.742,3.802 z"
   id="path4683"
   inkscape:connector-curvature="0" />
</g>
<g
   id="LWPOLYLINE_732_"
   transform="translate(-49.705,-94.653999)">
	<path
   d="m 290.617,655.839 h 5.562 c 0,5.097 -4.085,9.304 -9.303,9.304 -5.036,0 -9.263,-4.207 -9.263,-9.304 v -9.303 c 0,-5.137 4.227,-9.384 9.263,-9.384 5.218,0 9.303,4.247 9.303,9.384 v 5.097 h -13.065 v 4.206 c 0,2.022 1.8,3.641 3.762,3.641 2.103,-10e-4 3.741,-1.619 3.741,-3.641 z"
   id="path4686"
   inkscape:connector-curvature="0" />
</g>
<g
   id="LWPOLYLINE_733_"
   transform="translate(-49.705,-94.653999)">
	<path
   d="m 283.114,646.859 h 7.503 c 0,-2.467 -1.638,-4.125 -3.741,-4.125 -1.962,0 -3.762,1.659 -3.762,4.125 z"
   id="path4689"
   inkscape:connector-curvature="0"
   style="fill:#ffd200" />
</g>
<g
   id="LWPOLYLINE_734_"
   transform="translate(-49.705,-94.653999)">
	<polygon
   points="302.833,627.849 308.557,627.849 308.557,648.478 315.897,637.152 321.601,637.152 315.089,646.779 321.601,665.143 315.897,665.143 311.509,652.28 308.557,656.688 308.557,665.143 302.833,665.143 "
   id="polygon4692" />
</g>
<g
   id="LWPOLYLINE_735_"
   transform="translate(-49.705,-94.653999)">
	<path
   d="m 325.666,655.839 c 0,5.097 4.085,9.304 9.303,9.304 5.036,0 9.304,-4.207 9.304,-9.304 v -9.303 c 0,-5.137 -4.268,-9.384 -9.304,-9.384 -5.218,0 -9.303,4.247 -9.303,9.384 z"
   id="path4695"
   inkscape:connector-curvature="0" />
</g>
<g
   id="LWPOLYLINE_736_"
   transform="translate(-49.705,-94.653999)">
	<rect
   x="337.09299"
   y="627.849"
   width="5.7030001"
   height="5.6630001"
   id="rect4698" />
</g>
<g
   id="LWPOLYLINE_737_"
   transform="translate(-49.705,-94.653999)">
	<path
   d="m 331.228,655.839 c 0,2.022 1.639,3.641 3.741,3.641 1.962,0 3.601,-1.618 3.601,-3.641 v -9.303 c 0,-2.144 -1.639,-3.802 -3.601,-3.802 -2.103,0 -3.741,1.658 -3.741,3.802 z"
   id="path4701"
   inkscape:connector-curvature="0"
   style="fill:#ffd200" />
</g>
<g
   id="LWPOLYLINE_738_"
   transform="translate(-49.705,-94.653999)">
	<rect
   x="327.14301"
   y="627.849"
   width="5.5619998"
   height="5.6630001"
   id="rect4704" />
</g>
<g
   id="LWPOLYLINE_739_"
   transform="translate(-49.705,-94.653999)">
	<path
   d="m 356.468,645.808 v 19.335 h -5.501 v -27.99 h 5.501 v 1.537 c 1.982,-0.971 4.126,-1.537 6.391,-1.537 v 5.905 c -1.496,-1.416 -3.923,-1.335 -5.42,0.081 -0.648,0.687 -0.971,1.658 -0.971,2.669 z"
   id="path4707"
   inkscape:connector-curvature="0" />
</g>
<g
   id="LWPOLYLINE_740_"
   transform="translate(-49.705,-94.653999)">
	<path
   d="m 385.51,644.068 v 21.074 h -5.541 v -19.739 c 0,-2.104 -1.659,-3.762 -3.762,-3.762 -2.104,0 -3.722,1.658 -3.722,3.762 v 19.739 h -5.582 v -27.99 h 5.582 v 2.265 c 1.941,-1.213 4.045,-1.941 6.311,-2.265 3.762,0 6.714,2.994 6.714,6.916 z"
   id="path4710"
   inkscape:connector-curvature="0" />
</g>
<g
   id="LWPOLYLINE_741_"
   transform="translate(-49.705,-94.653999)">
	<rect
   x="392.18399"
   y="637.15198"
   width="5.5419998"
   height="27.99"
   id="rect4713" />
</g>
<g
   id="LWPOLYLINE_742_"
   transform="translate(-49.705,-94.653999)">
	<rect
   x="392.18399"
   y="627.849"
   width="5.5419998"
   height="5.6630001"
   id="rect4716" />
</g>
<g
   id="LWPOLYLINE_743_"
   transform="translate(-49.705,-94.653999)">
	<path
   d="m 423.774,644.068 v 21.074 h -5.501 v -19.739 c 0,-2.104 -1.78,-3.762 -3.722,-3.762 -2.184,0 -3.762,1.658 -3.762,3.762 v 19.739 h -5.541 v -27.99 h 5.541 v 2.265 c 1.941,-1.213 4.086,-1.941 6.351,-2.265 3.722,0 6.634,2.994 6.634,6.916 z"
   id="path4719"
   inkscape:connector-curvature="0" />
</g>
<g
   id="LWPOLYLINE_744_"
   transform="translate(-49.705,-94.653999)">
	<path
   d="m 442.381,663.524 c -1.941,1.295 -4.045,1.982 -6.311,2.306 -3.64,0 -6.714,-3.033 -6.714,-6.674 0,-0.162 0,-15.451 0,-15.451 0.647,-3.317 3.397,-5.663 6.714,-5.744 2.266,0.243 4.369,0.971 6.311,2.185 v -2.185 h 5.582 v 25.563 c 0,1.456 -0.162,2.629 -0.85,3.883 -2.144,4.45 -7.321,6.311 -11.892,4.288 l 2.427,-5.097 c 1.658,0.809 3.6,0 4.409,-1.537 0.162,-0.566 0.324,-1.051 0.324,-1.537 z"
   id="path4722"
   inkscape:connector-curvature="0" />
</g>
<g
   id="LWPOLYLINE_745_"
   transform="translate(-49.705,-94.653999)">
	<path
   d="m 434.897,657.7 c 0,2.022 1.82,3.64 3.762,3.64 2.104,0 3.722,-1.617 3.722,-3.64 v -11.568 c 0,-2.063 -1.618,-3.803 -3.722,-3.803 -1.941,0 -3.762,1.739 -3.762,3.803 z"
   id="path4725"
   inkscape:connector-curvature="0"
   style="fill:#ffd200" />
</g>
<g
   id="LWPOLYLINE_746_"
   transform="translate(-49.705,-94.653999)">
	<path
   d="m 237.326,694.994 h 3.114 v 5.662 h -3.114 v 13.51 c 0,1.78 1.314,3.155 3.114,3.155 v 5.663 c -4.915,0 -8.818,-3.964 -8.818,-8.818 v -13.51 h -3.114 v -5.662 h 3.114 v -9.304 h 5.704 z"
   id="path4728"
   inkscape:connector-curvature="0" />
</g>
<g
   id="LWPOLYLINE_747_"
   transform="translate(-49.705,-94.653999)">
	<rect
   x="245.96201"
   y="694.99402"
   width="5.5419998"
   height="27.99"
   id="rect4731" />
</g>
<g
   id="LWPOLYLINE_748_"
   transform="translate(-49.705,-94.653999)">
	<rect
   x="245.96201"
   y="685.69"
   width="5.5419998"
   height="5.6630001"
   id="rect4734" />
</g>
<g
   id="LWPOLYLINE_749_"
   transform="translate(-49.705,-94.653999)">
	<rect
   x="259.00601"
   y="685.69"
   width="5.5419998"
   height="37.293999"
   id="rect4737" />
</g>
<g
   id="LWPOLYLINE_750_"
   transform="translate(-49.705,-94.653999)">
	<rect
   x="272.05099"
   y="685.69"
   width="5.5619998"
   height="37.293999"
   id="rect4740" />
</g>
<g
   id="LWPOLYLINE_751_"
   transform="translate(-49.705,-94.653999)">
	<path
   d="m 302.206,722.984 h -5.562 v -1.82 c -2.265,1.254 -4.854,1.82 -7.301,1.82 -2.306,0 -4.429,-1.456 -5.056,-3.641 -1.011,-2.831 -0.162,-5.905 1.941,-8.049 2.589,-2.913 6.351,-4.732 10.416,-5.057 v -2.831 c 0,-1.537 -1.274,-2.751 -2.75,-2.751 -1.638,0 -2.953,1.214 -2.953,2.751 h -5.501 c 0,-4.611 3.701,-8.413 8.454,-8.413 4.55,0 8.313,3.802 8.313,8.413 v 19.578 z"
   id="path4743"
   inkscape:connector-curvature="0" />
</g>
<g
   id="LWPOLYLINE_752_"
   transform="translate(-49.705,-94.653999)">
	<path
   d="m 296.644,709.879 c -1.941,0.566 -3.58,1.416 -5.016,2.67 -1.314,1.132 -2.124,2.75 -2.124,4.449 0,1.173 0.951,2.022 2.124,2.022 1.941,-0.243 3.58,-0.769 5.016,-1.618 z"
   id="path4746"
   inkscape:connector-curvature="0"
   style="fill:#ffd200" />
</g>
<g
   id="CIRCLE_109_"
   transform="translate(-49.705,-94.653999)">
	<path
   d="m 297.494,689.775 c 0,-2.063 -1.638,-3.681 -3.6,-3.681 -2.104,0 -3.742,1.618 -3.742,3.681 0,2.145 1.638,3.762 3.742,3.762 1.961,0 3.6,-1.617 3.6,-3.762 z"
   id="path4749"
   inkscape:connector-curvature="0" />
</g>
<g
   id="CIRCLE_110_"
   transform="translate(-49.705,-94.653999)">
	<path
   d="m 295.37,689.775 c 0,-0.769 -0.83,-1.415 -1.477,-1.415 -0.991,0 -1.638,0.646 -1.638,1.415 0,0.931 0.647,1.578 1.638,1.578 0.648,0.001 1.477,-0.647 1.477,-1.578 z"
   id="path4752"
   inkscape:connector-curvature="0"
   style="fill:#ffd200" />
</g>
<g
   id="LWPOLYLINE_753_"
   transform="translate(-49.705,-94.653999)">
	<path
   d="m 315.412,694.994 h 3.074 v 5.662 h -3.074 v 13.51 c 0,1.78 1.314,3.155 3.074,3.155 v 5.663 c -4.712,0 -8.615,-3.964 -8.615,-8.818 v -13.51 h -3.276 v -5.662 h 3.276 v -9.304 h 5.541 z"
   id="path4755"
   inkscape:connector-curvature="0" />
</g>
<g
   id="LWPOLYLINE_754_"
   transform="translate(-49.705,-94.653999)">
	<path
   d="m 335.94,713.681 h 5.703 c 0,5.097 -4.228,9.304 -9.263,9.304 -5.238,0 -9.304,-4.207 -9.304,-9.304 v -9.384 c 0,-5.056 4.065,-9.303 9.304,-9.303 5.035,0 9.263,4.247 9.263,9.303 v 5.178 h -13.024 v 4.206 c 0,2.022 1.598,3.641 3.762,3.641 1.961,-10e-4 3.559,-1.619 3.559,-3.641 z"
   id="path4758"
   inkscape:connector-curvature="0" />
</g>
<g
   id="LWPOLYLINE_755_"
   transform="translate(-49.705,-94.653999)">
	<path
   d="m 328.619,704.701 h 7.321 c 0,-2.427 -1.599,-4.045 -3.56,-4.045 -2.163,0 -3.761,1.618 -3.761,4.045 z"
   id="path4761"
   inkscape:connector-curvature="0"
   style="fill:#ffd200" />
</g>
<g
   id="LWPOLYLINE_756_"
   transform="translate(-49.705,-94.653999)">
	<path
   d="m 366.903,701.91 v 21.074 h -5.541 v -19.739 c 0,-2.022 -1.82,-3.762 -3.762,-3.762 -2.104,0 -3.722,1.739 -3.722,3.762 v 19.739 h -5.521 v -27.99 h 5.521 v 2.265 c 1.982,-1.173 4.085,-1.941 6.391,-2.265 3.56,0 6.634,2.993 6.634,6.916 z"
   id="path4764"
   inkscape:connector-curvature="0" />
</g>
<g
   id="LWPOLYLINE_757_"
   transform="translate(-49.705,-94.653999)">
	<rect
   x="49.705002"
   y="94.653999"
   width="496.06299"
   height="206.632"
   id="rect4767"
   style="fill:#ffd200" />
</g>
<g
   id="LWPOLYLINE_758_"
   transform="translate(-49.705,-94.653999)">
	<path
   d="M 68.311,301.286 H 527 c 10.436,0 18.768,-8.353 18.768,-18.606 V 113.24 c 0,-10.294 -8.332,-18.586 -18.768,-18.586 H 68.311 c -10.294,0 -18.606,8.292 -18.606,18.586 v 169.44 c 0,10.254 8.312,18.606 18.606,18.606 z"
   id="path4770"
   inkscape:connector-curvature="0"
   style="fill:#ef3e42" />
</g>
<g
   id="LWPOLYLINE_759_"
   transform="translate(-49.705,-94.653999)">
	<path
   d="M 68.311,288.868 H 527 c 3.559,0 6.31,-2.75 6.31,-6.188 V 113.24 c 0,-3.418 -2.751,-6.229 -6.31,-6.229 H 68.311 c -3.438,0 -6.229,2.812 -6.229,6.229 v 169.44 c 0,3.438 2.791,6.188 6.229,6.188 z"
   id="path4773"
   inkscape:connector-curvature="0"
   style="fill:#ffd200" />
</g>
<g
   id="LWPOLYLINE_760_"
   transform="translate(-49.705,-94.653999)">
	<path
   d="m 120.955,145.275 c -0.202,-3.276 -2.629,-5.804 -5.905,-5.946 h -3.074 c -3.276,0.142 -5.703,2.993 -5.542,6.188 0.162,1.78 0.991,3.337 2.265,4.369 l 13.389,4.833 c 3.417,2.042 5.865,5.481 6.694,9.384 1.598,7.827 -3.438,15.451 -11.103,17.089 -9.93,1.477 -19.071,-5.097 -20.386,-14.804 l 7.342,-1.092 c 0.829,5.643 6.027,9.465 11.568,8.636 3.762,-0.87 6.047,-4.631 5.238,-8.393 -0.324,-1.699 -1.314,-3.074 -2.791,-4.065 L 105.464,156.6 c -3.903,-2.306 -6.209,-6.391 -6.533,-10.86 -0.323,-7.422 5.38,-13.611 12.883,-13.935 h 3.438 c 7.139,0.323 13.024,6.188 13.166,13.469 h -7.463 z"
   id="path4776"
   inkscape:connector-curvature="0" />
</g>
<g
   id="LWPOLYLINE_761_"
   transform="translate(-49.705,-94.653999)">
	<path
   d="m 154.366,169.059 h 7.483 c 0,6.876 -5.521,12.377 -12.377,12.377 -6.836,0 -12.377,-5.501 -12.377,-12.377 v -12.377 c 0,-6.876 5.542,-12.418 12.377,-12.418 6.856,0 12.377,5.542 12.377,12.418 v 6.917 h -17.413 v 5.46 c 0,2.67 2.285,4.996 5.036,4.996 2.79,0 4.894,-2.326 4.894,-4.996 z"
   id="path4779"
   inkscape:connector-curvature="0" />
</g>
<g
   id="LWPOLYLINE_762_"
   transform="translate(-49.705,-94.653999)">
	<path
   d="m 144.436,157.167 h 9.93 c 0,-3.276 -2.104,-5.481 -4.894,-5.481 -2.751,0.001 -5.036,2.205 -5.036,5.481 z"
   id="path4782"
   inkscape:connector-curvature="0"
   style="fill:#ffd200" />
</g>
<g
   id="LWPOLYLINE_763_"
   transform="translate(-49.705,-94.653999)">
	<path
   d="m 178.17,155.61 v 25.827 h -7.342 v -37.172 h 7.342 v 1.962 c 2.588,-1.274 5.542,-1.962 8.454,-1.962 v 7.827 c -1.941,-1.881 -5.056,-1.881 -6.978,0.081 -0.991,0.909 -1.476,2.203 -1.476,3.437 z"
   id="path4785"
   inkscape:connector-curvature="0" />
</g>
<g
   id="LWPOLYLINE_764_"
   transform="translate(-49.705,-94.653999)">
	<polygon
   points="206.039,181.437 215.807,144.264 208.466,144.264 202.277,167.502 196.088,144.264 188.585,144.264 198.536,181.437 "
   id="polygon4788" />
</g>
<g
   id="LWPOLYLINE_765_"
   transform="translate(-49.705,-94.653999)">
	<rect
   x="222.319"
   y="144.26401"
   width="7.5029998"
   height="37.172001"
   id="rect4791" />
</g>
<g
   id="LWPOLYLINE_766_"
   transform="translate(-49.705,-94.653999)">
	<rect
   x="222.319"
   y="131.806"
   width="7.5029998"
   height="7.5229998"
   id="rect4794" />
</g>
<g
   id="LWPOLYLINE_767_"
   transform="translate(-49.705,-94.653999)">
	<path
   d="m 263.557,156.682 c 0,-6.876 -5.501,-12.418 -12.539,-12.418 -6.856,0 -12.377,5.542 -12.377,12.418 v 12.377 c 0,6.876 5.521,12.377 12.377,12.377 7.038,0 12.539,-5.501 12.539,-12.377 h -7.463 c 0,2.67 -2.326,4.996 -5.076,4.996 -2.589,0 -4.874,-2.326 -4.874,-4.996 v -12.377 c 0,-2.791 2.285,-4.996 4.874,-4.996 2.75,0 5.076,2.205 5.076,4.996 z"
   id="path4797"
   inkscape:connector-curvature="0" />
</g>
<g
   id="LWPOLYLINE_768_"
   transform="translate(-49.705,-94.653999)">
	<path
   d="m 288.352,169.059 h 7.341 c 0,6.876 -5.542,12.377 -12.417,12.377 -6.816,0 -12.377,-5.501 -12.377,-12.377 v -12.377 c 0,-6.876 5.562,-12.418 12.377,-12.418 6.876,0 12.417,5.542 12.417,12.418 v 6.917 h -17.292 v 5.46 c 0,2.67 2.124,4.996 4.874,4.996 2.792,0 5.077,-2.326 5.077,-4.996 z"
   id="path4800"
   inkscape:connector-curvature="0" />
</g>
<g
   id="LWPOLYLINE_769_"
   transform="translate(-49.705,-94.653999)">
	<path
   d="m 278.402,157.167 h 9.95 c 0,-3.276 -2.285,-5.481 -5.076,-5.481 -2.751,0.001 -4.874,2.205 -4.874,5.481 z"
   id="path4803"
   inkscape:connector-curvature="0"
   style="fill:#ffd200" />
</g>
<g
   id="LWPOLYLINE_770_"
   transform="translate(-49.705,-94.653999)">
	<polygon
   points="304.633,131.806 312.136,131.806 312.136,159.271 321.925,144.264 329.428,144.264 320.974,157.005 329.428,181.437 321.925,181.437 316.06,164.428 312.136,170.293 312.136,181.437 304.633,181.437 "
   id="polygon4806" />
</g>
<g
   id="LWPOLYLINE_771_"
   transform="translate(-49.705,-94.653999)">
	<path
   d="m 334.969,169.059 c 0,6.876 5.563,12.377 12.378,12.377 6.855,0 12.438,-5.501 12.438,-12.377 v -12.377 c 0,-6.876 -5.582,-12.418 -12.438,-12.418 -6.815,0 -12.378,5.542 -12.378,12.418 z"
   id="path4809"
   inkscape:connector-curvature="0" />
</g>
<g
   id="LWPOLYLINE_772_"
   transform="translate(-49.705,-94.653999)">
	<rect
   x="350.319"
   y="131.806"
   width="7.4829998"
   height="7.5229998"
   id="rect4812" />
</g>
<g
   id="LWPOLYLINE_773_"
   transform="translate(-49.705,-94.653999)">
	<path
   d="m 342.331,169.059 c 0,2.67 2.265,4.996 5.016,4.996 2.629,0 4.914,-2.326 4.914,-4.996 v -12.377 c 0,-2.791 -2.285,-4.996 -4.914,-4.996 -2.751,0 -5.016,2.205 -5.016,4.996 z"
   id="path4815"
   inkscape:connector-curvature="0"
   style="fill:#ffd200" />
</g>
<g
   id="LWPOLYLINE_774_"
   transform="translate(-49.705,-94.653999)">
	<rect
   x="336.931"
   y="131.806"
   width="7.342"
   height="7.5229998"
   id="rect4818" />
</g>
<g
   id="LWPOLYLINE_775_"
   transform="translate(-49.705,-94.653999)">
	<path
   d="m 376.045,155.61 v 25.827 h -7.523 v -37.172 h 7.523 v 1.962 c 2.589,-1.274 5.582,-1.962 8.494,-1.962 v 7.827 c -1.981,-1.881 -5.056,-1.881 -7.038,0.081 -0.971,0.909 -1.456,2.203 -1.456,3.437 z"
   id="path4821"
   inkscape:connector-curvature="0" />
</g>
<g
   id="LWPOLYLINE_776_"
   transform="translate(-49.705,-94.653999)">
	<path
   d="m 414.714,153.406 v 28.031 h -7.361 v -26.312 c 0,-2.669 -2.266,-4.915 -5.097,-4.915 -2.589,0 -4.854,2.245 -4.854,4.915 v 26.312 h -7.523 v -37.172 h 7.523 v 2.953 c 2.589,-1.557 5.421,-2.588 8.495,-2.953 4.893,-10e-4 8.817,4.004 8.817,9.141 z"
   id="path4824"
   inkscape:connector-curvature="0" />
</g>
<g
   id="LWPOLYLINE_777_"
   transform="translate(-49.705,-94.653999)">
	<rect
   x="423.612"
   y="144.26401"
   width="7.5229998"
   height="37.172001"
   id="rect4827" />
</g>
<g
   id="LWPOLYLINE_778_"
   transform="translate(-49.705,-94.653999)">
	<rect
   x="423.612"
   y="131.806"
   width="7.5229998"
   height="7.5229998"
   id="rect4830" />
</g>
<g
   id="LWPOLYLINE_779_"
   transform="translate(-49.705,-94.653999)">
	<path
   d="m 465.882,153.406 v 28.031 h -7.483 v -26.312 c 0,-2.669 -2.144,-4.915 -4.935,-4.915 -2.751,0 -5.016,2.245 -5.016,4.915 v 26.312 h -7.361 v -37.172 h 7.361 v 2.953 c 2.589,-1.557 5.501,-2.588 8.454,-2.953 4.894,-10e-4 8.98,4.004 8.98,9.141 z"
   id="path4833"
   inkscape:connector-curvature="0" />
</g>
<g
   id="LWPOLYLINE_780_"
   transform="translate(-49.705,-94.653999)">
	<path
   d="m 490.596,179.475 c -2.589,1.558 -5.339,2.649 -8.413,2.953 -4.895,0 -8.979,-3.984 -8.979,-8.899 0,-0.324 0.161,-20.689 0.161,-20.689 0.81,-4.227 4.409,-7.402 8.818,-7.564 3.074,0.303 5.824,1.396 8.413,2.912 v -2.912 h 7.523 v 34.199 c 0,1.719 -0.485,3.438 -1.133,4.996 -2.75,6.027 -9.91,8.535 -15.774,5.784 l 3.074,-6.795 c 2.265,1.092 4.894,0.122 5.864,-2.104 0.325,-0.648 0.446,-1.193 0.446,-1.881 z"
   id="path4836"
   inkscape:connector-curvature="0" />
</g>
<g
   id="LWPOLYLINE_781_"
   transform="translate(-49.705,-94.653999)">
	<path
   d="m 480.686,171.486 c 0,2.791 2.306,4.995 4.895,4.995 2.75,0 5.016,-2.204 5.016,-4.995 v -15.29 c 0,-2.791 -2.266,-4.976 -5.016,-4.976 -2.589,0 -4.895,2.185 -4.895,4.976 z"
   id="path4839"
   inkscape:connector-curvature="0"
   style="fill:#ffd200" />
</g>
<g
   id="LWPOLYLINE_782_"
   transform="translate(-49.705,-94.653999)">
	<path
   d="m 217.122,226.941 h 4.247 v 7.382 h -4.247 v 18.141 c 0,2.346 1.961,4.227 4.247,4.227 v 7.422 c -6.512,0 -11.75,-5.238 -11.75,-11.649 v -18.141 h -4.065 v -7.382 h 4.065 v -12.418 h 7.503 z"
   id="path4842"
   inkscape:connector-curvature="0" />
</g>
<g
   id="LWPOLYLINE_783_"
   transform="translate(-49.705,-94.653999)">
	<rect
   x="228.87199"
   y="226.94099"
   width="7.3010001"
   height="37.172001"
   id="rect4845" />
</g>
<g
   id="LWPOLYLINE_784_"
   transform="translate(-49.705,-94.653999)">
	<rect
   x="228.87199"
   y="214.52299"
   width="7.3010001"
   height="7.4429998"
   id="rect4848" />
</g>
<g
   id="LWPOLYLINE_785_"
   transform="translate(-49.705,-94.653999)">
	<rect
   x="246.144"
   y="214.52299"
   width="7.4829998"
   height="49.59"
   id="rect4851" />
</g>
<g
   id="LWPOLYLINE_786_"
   transform="translate(-49.705,-94.653999)">
	<rect
   x="263.55701"
   y="214.52299"
   width="7.3410001"
   height="49.59"
   id="rect4854" />
</g>
<g
   id="LWPOLYLINE_787_"
   transform="translate(-49.705,-94.653999)">
	<path
   d="m 303.683,264.114 h -7.504 v -2.407 c -2.912,1.638 -6.35,2.488 -9.626,2.407 -3.074,0.081 -5.865,-1.881 -6.836,-4.753 -1.153,-3.822 -0.142,-7.988 2.609,-10.739 3.58,-3.924 8.616,-6.27 13.854,-6.715 v -3.822 c 0,-2.124 -1.638,-3.762 -3.6,-3.762 -2.124,0 -3.762,1.638 -3.762,3.762 h -7.463 c 0,-6.188 5.036,-11.144 11.225,-11.144 6.027,0 11.104,4.955 11.104,11.144 v 26.029 z"
   id="path4857"
   inkscape:connector-curvature="0" />
</g>
<g
   id="LWPOLYLINE_788_"
   transform="translate(-49.705,-94.653999)">
	<path
   d="m 296.179,246.741 c -2.447,0.647 -4.712,1.8 -6.674,3.519 -1.8,1.436 -2.791,3.62 -2.629,6.027 0,1.436 1.152,2.669 2.791,2.669 2.427,-0.384 4.551,-1.153 6.512,-2.205 z"
   id="path4860"
   inkscape:connector-curvature="0"
   style="fill:#ffd200" />
</g>
<g
   id="CIRCLE_111_"
   transform="translate(-49.705,-94.653999)">
	<path
   d="m 297.494,220.004 c 0,-2.771 -2.286,-4.955 -4.915,-4.955 -2.75,0 -5.036,2.185 -5.036,4.955 0,2.71 2.286,4.915 5.036,4.915 2.629,0 4.915,-2.205 4.915,-4.915 z"
   id="path4863"
   inkscape:connector-curvature="0" />
</g>
<g
   id="CIRCLE_112_"
   transform="translate(-49.705,-94.653999)">
	<path
   d="m 294.541,220.004 c 0,-1.112 -0.971,-2.042 -1.961,-2.042 -1.112,0 -2.124,0.93 -2.124,2.042 0,1.072 1.011,1.962 2.124,1.962 0.99,0 1.961,-0.89 1.961,-1.962 z"
   id="path4866"
   inkscape:connector-curvature="0"
   style="fill:#ffd200" />
</g>
<g
   id="LWPOLYLINE_789_"
   transform="translate(-49.705,-94.653999)">
	<path
   d="m 321.277,226.941 h 4.227 v 7.382 h -4.227 v 18.141 c 0,2.346 1.962,4.227 4.227,4.227 v 7.422 c -6.491,0 -11.729,-5.238 -11.729,-11.649 v -18.141 h -4.228 v -7.382 h 4.228 v -12.418 h 7.503 v 12.418 z"
   id="path4869"
   inkscape:connector-curvature="0" />
</g>
<g
   id="LWPOLYLINE_790_"
   transform="translate(-49.705,-94.653999)">
	<path
   d="m 348.823,251.696 h 7.321 c 0,6.876 -5.501,12.418 -12.378,12.418 -6.836,0 -12.377,-5.542 -12.377,-12.418 v -12.377 c 0,-6.876 5.541,-12.377 12.377,-12.377 6.877,0 12.378,5.501 12.378,12.377 v 6.957 h -17.252 v 5.42 c 0,2.71 2.266,4.996 4.874,4.996 2.792,-0.001 5.057,-2.286 5.057,-4.996 z"
   id="path4872"
   inkscape:connector-curvature="0" />
</g>
<g
   id="LWPOLYLINE_791_"
   transform="translate(-49.705,-94.653999)">
	<path
   d="m 338.893,239.804 h 9.931 c 0,-3.276 -2.266,-5.481 -5.057,-5.481 -2.609,0 -4.874,2.205 -4.874,5.481 z"
   id="path4875"
   inkscape:connector-curvature="0"
   style="fill:#ffd200" />
</g>
<g
   id="LWPOLYLINE_792_"
   transform="translate(-49.705,-94.653999)">
	<path
   d="m 389.878,236.042 v 28.071 h -7.32 v -26.271 c 0,-2.75 -2.266,-4.955 -5.057,-4.955 -2.75,0 -4.854,2.205 -4.854,4.955 v 26.271 h -7.523 v -37.172 h 7.523 v 2.912 c 2.589,-1.557 5.339,-2.588 8.413,-2.912 4.935,0 8.818,4.005 8.818,9.101 z"
   id="path4878"
   inkscape:connector-curvature="0" />
</g>
</svg>