<?xml version="1.0" encoding="utf-8"?>
<!-- Generator: Adobe Illustrator 15.1.0, SVG Export Plug-In . SVG Version: 6.00 Build 0)  -->
<!DOCTYPE svg PUBLIC "-//W3C//DTD SVG 1.0//EN" "http://www.w3.org/TR/2001/REC-SVG-20010904/DTD/svg10.dtd">
<svg version="1.0" id="Layer_1" xmlns="http://www.w3.org/2000/svg" xmlns:xlink="http://www.w3.org/1999/xlink" x="0px" y="0px"
	 width="595.28px" height="841.89px" viewBox="0 0 595.28 841.89" enable-background="new 0 0 595.28 841.89" xml:space="preserve">
<g id="LWPOLYLINE_697_">
	<rect x="91.104" y="541.127" fill="#FFD200" width="413.245" height="206.611"/>
</g>
<g id="LWPOLYLINE_698_">
	<path fill="#EF3E42" d="M103.521,747.738h388.449c6.836,0,12.378-5.541,12.378-12.377V553.504c0-6.836-5.542-12.377-12.378-12.377
		H103.521c-6.876,0-12.417,5.541-12.417,12.377v181.857C91.104,742.197,96.646,747.738,103.521,747.738z"/>
</g>
<g id="LWPOLYLINE_699_">
	<path fill="#FFD200" d="M103.521,739.527h388.449c2.266,0,4.045-1.9,4.045-4.166V553.504c0-2.265-1.779-4.166-4.045-4.166H103.521
		c-2.326,0-4.267,1.901-4.267,4.166v181.857C99.254,737.627,101.196,739.527,103.521,739.527z"/>
</g>
<g id="LWPOLYLINE_700_">
	<polygon points="144.597,603.094 144.597,586.349 131.694,586.349 131.694,603.094 125.991,603.094 125.991,565.881 
		131.694,565.881 131.694,580.727 144.597,580.727 144.597,565.881 150.26,565.881 150.26,603.094 	"/>
</g>
<g id="LWPOLYLINE_701_">
	<path d="M156.975,596.218v-21.033h5.542v19.739c0,2.022,1.638,3.762,3.762,3.762c1.941,0,3.742-1.739,3.742-3.762v-19.739h5.521
		v27.909h-5.521v-2.184c-1.942,1.173-4.105,1.941-6.391,2.184C159.887,603.094,156.975,600.101,156.975,596.218z"/>
</g>
<g id="LWPOLYLINE_702_">
	<path d="M182.235,593.791c0,5.137,4.085,9.303,9.303,9.303c5.198,0,9.263-4.166,9.263-9.303v-9.303
		c0-5.097-4.065-9.304-9.263-9.304c-5.218,0-9.303,4.207-9.303,9.304V593.791z"/>
</g>
<g id="LWPOLYLINE_703_">
	<path fill="#FFD200" d="M187.796,593.791c0,2.022,1.598,3.722,3.742,3.722c2.124,0,3.762-1.699,3.762-3.722v-9.303
		c0-2.023-1.638-3.762-3.762-3.762c-2.144,0-3.742,1.738-3.742,3.762V593.791z"/>
</g>
<g id="LWPOLYLINE_704_">
	<rect x="207.515" y="565.881" width="5.542" height="37.213"/>
</g>
<g id="LWPOLYLINE_705_">
	<path d="M227.072,575.185h3.074v5.542h-3.074v13.631c0,1.698,1.436,3.155,3.074,3.155v5.581c-4.712,0-8.616-3.964-8.616-8.736
		v-13.631h-3.276v-5.542h3.276v-9.304h5.542V575.185z"/>
</g>
<g id="LWPOLYLINE_706_">
	<path d="M235.061,593.791c0,5.137,4.065,9.303,9.303,9.303c5.177,0,9.263-4.166,9.263-9.303v-9.303
		c0-5.097-4.085-9.304-9.263-9.304c-5.238,0-9.303,4.207-9.303,9.304V593.791z"/>
</g>
<g id="LWPOLYLINE_707_">
	<path fill="#FFD200" d="M240.603,593.791c0,2.022,1.638,3.722,3.762,3.722c2.103,0,3.701-1.699,3.701-3.722v-9.303
		c0-2.023-1.598-3.762-3.701-3.762c-2.124,0-3.762,1.738-3.762,3.762V593.791z"/>
</g>
<g id="LWPOLYLINE_708_">
	<path d="M277.451,603.094h-5.542v-1.819c-2.285,1.254-4.752,1.9-7.362,1.819c-2.265,0.081-4.389-1.415-5.056-3.559
		c-0.971-2.832-0.162-5.987,1.941-8.09c2.811-2.913,6.391-4.652,10.476-5.016v-2.832c0-1.537-1.335-2.871-2.811-2.871
		c-1.638,0-2.75,1.334-2.75,2.871h-5.704c0-4.611,3.742-8.413,8.454-8.413c4.591,0,8.353,3.802,8.353,8.413V603.094z"/>
</g>
<g id="LWPOLYLINE_709_">
	<path fill="#FFD200" d="M271.91,590.069c-1.962,0.485-3.6,1.376-5.076,2.589c-1.315,1.133-2.124,2.832-1.962,4.53
		c0,1.173,0.85,2.022,1.962,2.022c1.961-0.283,3.6-0.85,5.076-1.618V590.069z"/>
</g>
<g id="LWPOLYLINE_710_">
	<path d="M289.667,575.185v27.182c0,4.449-3.6,8.211-8.15,8.211c-0.667,0,0-5.622,0-5.622c1.436,0,2.609-1.133,2.609-2.589v-27.182
		H289.667z"/>
</g>
<g id="LWPOLYLINE_711_">
	<rect x="284.125" y="565.881" width="5.542" height="5.582"/>
</g>
<g id="LWPOLYLINE_712_">
	<path d="M296.341,593.791c0,5.137,4.227,9.303,9.303,9.303c5.218,0,9.445-4.166,9.445-9.303v-9.303
		c0-5.097-4.228-9.304-9.445-9.304c-5.076,0-9.303,4.207-9.303,9.304V593.791z"/>
</g>
<g id="LWPOLYLINE_713_">
	<path fill="#FFD200" d="M302.044,593.791c0,2.022,1.639,3.722,3.6,3.722c2.104,0,3.742-1.699,3.742-3.722v-9.303
		c0-2.023-1.639-3.762-3.742-3.762c-1.961,0-3.6,1.738-3.6,3.762V593.791z"/>
</g>
<g id="LWPOLYLINE_714_">
	<path d="M333.654,593.791c0,5.137,4.065,9.303,9.304,9.303s8.777-3.721,8.777-8.17c0-2.953-1.416-5.623-4.065-7.119l-6.026-3.56
		c-0.647-0.323-0.951-0.971-0.951-1.618c0-0.971,0.789-1.9,1.78-1.9h1.133c1.152,0,1.941,0.93,1.941,1.9h5.582
		c0-4.126-3.459-7.442-7.523-7.442h-1.133c-4.065,0-7.342,3.316-7.342,7.442c0,2.67,1.314,5.097,3.601,6.432l6.188,3.6
		c0.788,0.485,1.314,1.295,1.314,2.266c0,1.456-1.153,2.589-2.629,2.589c-2.771,0-4.389-1.699-4.389-3.722H333.654z"/>
</g>
<g id="LWPOLYLINE_715_">
	<path d="M375.236,603.094h-5.501v-1.819c-2.347,1.254-4.773,1.9-7.362,1.819c-2.265,0.081-4.247-1.415-5.097-3.559
		c-0.971-2.832-0.161-5.987,1.942-8.09c2.831-2.913,6.552-4.652,10.517-5.016v-2.832c0-1.537-1.376-2.871-2.832-2.871
		c-1.618,0-2.75,1.334-2.75,2.871h-5.703c0-4.611,3.923-8.413,8.453-8.413c4.611,0,8.333,3.802,8.333,8.413V603.094z"/>
</g>
<g id="LWPOLYLINE_716_">
	<path fill="#FFD200" d="M369.735,590.069c-1.82,0.485-3.641,1.376-5.097,2.589c-1.295,1.133-1.941,2.832-1.941,4.53
		c0,1.173,0.971,2.022,1.941,2.022c1.941-0.283,3.6-0.85,5.097-1.618V590.069z"/>
</g>
<g id="LWPOLYLINE_717_">
	<rect x="381.95" y="565.881" width="5.501" height="37.213"/>
</g>
<g id="LWPOLYLINE_718_">
	<rect x="394.975" y="565.881" width="5.501" height="37.213"/>
</g>
<g id="LWPOLYLINE_719_">
	<rect x="407.999" y="575.185" width="5.542" height="27.909"/>
</g>
<g id="LWPOLYLINE_720_">
	<rect x="407.999" y="565.881" width="5.542" height="5.582"/>
</g>
<g id="LWPOLYLINE_721_">
	<path d="M427.576,575.185h3.074v5.542h-3.074v13.631c0,1.698,1.295,3.155,3.074,3.155v5.581c-4.732,0-8.655-3.964-8.655-8.736
		v-13.631h-3.236v-5.542h3.236v-9.304h5.581V575.185z"/>
</g>
<g id="LWPOLYLINE_722_">
	<path d="M442.704,575.185h3.317v5.542h-3.317v13.631c0,1.698,1.497,3.155,3.317,3.155v5.581c-4.935,0-8.858-3.964-8.858-8.736
		v-13.631h-3.074v-5.542h3.074v-9.304h5.541V575.185z"/>
</g>
<g id="LWPOLYLINE_723_">
	<path d="M450.713,596.218v-21.033h5.703v19.739c0,2.022,1.659,3.762,3.601,3.762c2.104,0,3.721-1.739,3.721-3.762v-19.739h5.582
		v27.909h-5.582v-2.184c-1.941,1.173-4.045,1.941-6.391,2.184C453.828,603.094,450.713,600.101,450.713,596.218z"/>
</g>
<g id="LWPOLYLINE_724_">
	<path d="M165.105,637.961c0-2.468-1.942-4.368-4.389-4.449h-2.265c-2.488,0.162-4.429,2.185-4.268,4.611
		c0.182,1.294,0.829,2.508,1.78,3.276l9.951,3.6c2.629,1.618,4.429,4.126,5.076,7.038c1.314,5.905-2.447,11.649-8.313,12.943
		c-7.503,1.012-14.177-3.964-15.33-11.204l5.542-0.85c0.647,4.288,4.551,7.119,8.636,6.553c2.953-0.728,4.591-3.479,3.903-6.351
		c-0.324-1.254-0.951-2.306-1.962-3.033l-9.93-3.641c-2.913-1.739-4.712-4.813-4.874-8.171c-0.162-5.581,4.085-10.192,9.626-10.436
		h2.589c5.4,0.243,9.789,4.651,9.95,10.112H165.105z"/>
</g>
<g id="LWPOLYLINE_725_">
	<path d="M190.224,655.839h5.542c0,5.097-4.065,9.304-9.303,9.304c-5.056,0-9.283-4.207-9.283-9.304v-9.303
		c0-5.137,4.227-9.384,9.283-9.384c5.238,0,9.303,4.247,9.303,9.384v5.097H182.72v4.206c0,2.022,1.8,3.641,3.742,3.641
		C188.585,659.479,190.224,657.861,190.224,655.839z"/>
</g>
<g id="LWPOLYLINE_726_">
	<path fill="#FFD200" d="M182.72,646.859h7.503c0-2.467-1.638-4.125-3.762-4.125C184.52,642.734,182.72,644.393,182.72,646.859z"/>
</g>
<g id="LWPOLYLINE_727_">
	<path d="M208.142,645.808v19.335h-5.703v-27.99h5.703v1.537c1.962-0.971,4.085-1.537,6.189-1.537v5.905
		c-1.477-1.416-3.742-1.335-5.178,0.081C208.466,643.826,208.142,644.797,208.142,645.808z"/>
</g>
<g id="LWPOLYLINE_728_">
	<polygon points="215.807,637.152 223.311,665.143 228.872,665.143 236.335,637.152 230.814,637.152 226.082,654.545 
		221.531,637.152 	"/>
</g>
<g id="LWPOLYLINE_729_">
	<rect x="241.25" y="637.152" width="5.542" height="27.99"/>
</g>
<g id="LWPOLYLINE_730_">
	<rect x="241.25" y="627.849" width="5.542" height="5.663"/>
</g>
<g id="LWPOLYLINE_731_">
	<path d="M272.051,646.536c0-5.137-4.227-9.384-9.283-9.384c-5.238,0-9.303,4.247-9.303,9.384v9.303
		c0,5.097,4.065,9.304,9.303,9.304c5.056,0,9.283-4.207,9.283-9.304h-5.542c0,2.022-1.638,3.641-3.742,3.641
		c-2.124,0-3.762-1.618-3.762-3.641v-9.303c0-2.144,1.638-3.802,3.762-3.802c2.104,0,3.742,1.658,3.742,3.802H272.051z"/>
</g>
<g id="LWPOLYLINE_732_">
	<path d="M290.617,655.839h5.562c0,5.097-4.085,9.304-9.303,9.304c-5.036,0-9.263-4.207-9.263-9.304v-9.303
		c0-5.137,4.227-9.384,9.263-9.384c5.218,0,9.303,4.247,9.303,9.384v5.097h-13.065v4.206c0,2.022,1.8,3.641,3.762,3.641
		C288.979,659.479,290.617,657.861,290.617,655.839z"/>
</g>
<g id="LWPOLYLINE_733_">
	<path fill="#FFD200" d="M283.114,646.859h7.503c0-2.467-1.638-4.125-3.741-4.125C284.914,642.734,283.114,644.393,283.114,646.859z
		"/>
</g>
<g id="LWPOLYLINE_734_">
	<polygon points="308.557,665.143 302.833,665.143 302.833,627.849 308.557,627.849 308.557,648.478 315.897,637.152 
		321.601,637.152 315.089,646.779 321.601,665.143 315.897,665.143 311.509,652.28 308.557,656.688 	"/>
</g>
<g id="LWPOLYLINE_735_">
	<path d="M325.666,655.839c0,5.097,4.085,9.304,9.303,9.304c5.036,0,9.304-4.207,9.304-9.304v-9.303
		c0-5.137-4.268-9.384-9.304-9.384c-5.218,0-9.303,4.247-9.303,9.384V655.839z"/>
</g>
<g id="LWPOLYLINE_736_">
	<rect x="337.093" y="627.849" width="5.703" height="5.663"/>
</g>
<g id="LWPOLYLINE_737_">
	<path fill="#FFD200" d="M331.228,655.839c0,2.022,1.639,3.641,3.741,3.641c1.962,0,3.601-1.618,3.601-3.641v-9.303
		c0-2.144-1.639-3.802-3.601-3.802c-2.103,0-3.741,1.658-3.741,3.802V655.839z"/>
</g>
<g id="LWPOLYLINE_738_">
	<rect x="327.143" y="627.849" width="5.562" height="5.663"/>
</g>
<g id="LWPOLYLINE_739_">
	<path d="M356.468,645.808v19.335h-5.501v-27.99h5.501v1.537c1.982-0.971,4.126-1.537,6.391-1.537v5.905
		c-1.496-1.416-3.923-1.335-5.42,0.081C356.791,643.826,356.468,644.797,356.468,645.808z"/>
</g>
<g id="LWPOLYLINE_740_">
	<path d="M385.51,644.068v21.074h-5.541v-19.739c0-2.104-1.659-3.762-3.762-3.762c-2.104,0-3.722,1.658-3.722,3.762v19.739h-5.582
		v-27.99h5.582v2.265c1.941-1.213,4.045-1.941,6.311-2.265C382.558,637.152,385.51,640.146,385.51,644.068z"/>
</g>
<g id="LWPOLYLINE_741_">
	<rect x="392.184" y="637.152" width="5.542" height="27.99"/>
</g>
<g id="LWPOLYLINE_742_">
	<rect x="392.184" y="627.849" width="5.542" height="5.663"/>
</g>
<g id="LWPOLYLINE_743_">
	<path d="M423.774,644.068v21.074h-5.501v-19.739c0-2.104-1.78-3.762-3.722-3.762c-2.184,0-3.762,1.658-3.762,3.762v19.739h-5.541
		v-27.99h5.541v2.265c1.941-1.213,4.086-1.941,6.351-2.265C420.862,637.152,423.774,640.146,423.774,644.068z"/>
</g>
<g id="LWPOLYLINE_744_">
	<path d="M442.381,663.524c-1.941,1.295-4.045,1.982-6.311,2.306c-3.64,0-6.714-3.033-6.714-6.674c0-0.162,0-15.451,0-15.451
		c0.647-3.317,3.397-5.663,6.714-5.744c2.266,0.243,4.369,0.971,6.311,2.185v-2.185h5.582v25.563c0,1.456-0.162,2.629-0.85,3.883
		c-2.144,4.45-7.321,6.311-11.892,4.288l2.427-5.097c1.658,0.809,3.6,0,4.409-1.537C442.219,664.495,442.381,664.01,442.381,663.524
		z"/>
</g>
<g id="LWPOLYLINE_745_">
	<path fill="#FFD200" d="M434.897,657.7c0,2.022,1.82,3.64,3.762,3.64c2.104,0,3.722-1.617,3.722-3.64v-11.568
		c0-2.063-1.618-3.803-3.722-3.803c-1.941,0-3.762,1.739-3.762,3.803V657.7z"/>
</g>
<g id="LWPOLYLINE_746_">
	<path d="M237.326,694.994h3.114v5.662h-3.114v13.51c0,1.78,1.314,3.155,3.114,3.155v5.663c-4.915,0-8.818-3.964-8.818-8.818v-13.51
		h-3.114v-5.662h3.114v-9.304h5.704V694.994z"/>
</g>
<g id="LWPOLYLINE_747_">
	<rect x="245.962" y="694.994" width="5.542" height="27.99"/>
</g>
<g id="LWPOLYLINE_748_">
	<rect x="245.962" y="685.69" width="5.542" height="5.663"/>
</g>
<g id="LWPOLYLINE_749_">
	<rect x="259.006" y="685.69" width="5.542" height="37.294"/>
</g>
<g id="LWPOLYLINE_750_">
	<rect x="272.051" y="685.69" width="5.562" height="37.294"/>
</g>
<g id="LWPOLYLINE_751_">
	<path d="M302.206,722.984h-5.562v-1.82c-2.265,1.254-4.854,1.82-7.301,1.82c-2.306,0-4.429-1.456-5.056-3.641
		c-1.011-2.831-0.162-5.905,1.941-8.049c2.589-2.913,6.351-4.732,10.416-5.057v-2.831c0-1.537-1.274-2.751-2.75-2.751
		c-1.638,0-2.953,1.214-2.953,2.751h-5.501c0-4.611,3.701-8.413,8.454-8.413c4.55,0,8.313,3.802,8.313,8.413V722.984z"/>
</g>
<g id="LWPOLYLINE_752_">
	<path fill="#FFD200" d="M296.644,709.879c-1.941,0.566-3.58,1.416-5.016,2.67c-1.314,1.132-2.124,2.75-2.124,4.449
		c0,1.173,0.951,2.022,2.124,2.022c1.941-0.243,3.58-0.769,5.016-1.618V709.879z"/>
</g>
<g id="CIRCLE_109_">
	<path d="M297.494,689.775c0-2.063-1.638-3.681-3.6-3.681c-2.104,0-3.742,1.618-3.742,3.681c0,2.145,1.638,3.762,3.742,3.762
		C295.855,693.537,297.494,691.92,297.494,689.775L297.494,689.775z"/>
</g>
<g id="CIRCLE_110_">
	<path fill="#FFD200" d="M295.37,689.775c0-0.769-0.83-1.415-1.477-1.415c-0.991,0-1.638,0.646-1.638,1.415
		c0,0.931,0.647,1.578,1.638,1.578C294.541,691.354,295.37,690.706,295.37,689.775L295.37,689.775z"/>
</g>
<g id="LWPOLYLINE_753_">
	<path d="M315.412,694.994h3.074v5.662h-3.074v13.51c0,1.78,1.314,3.155,3.074,3.155v5.663c-4.712,0-8.615-3.964-8.615-8.818v-13.51
		h-3.276v-5.662h3.276v-9.304h5.541V694.994z"/>
</g>
<g id="LWPOLYLINE_754_">
	<path d="M335.94,713.681h5.703c0,5.097-4.228,9.304-9.263,9.304c-5.238,0-9.304-4.207-9.304-9.304v-9.384
		c0-5.056,4.065-9.303,9.304-9.303c5.035,0,9.263,4.247,9.263,9.303v5.178h-13.024v4.206c0,2.022,1.598,3.641,3.762,3.641
		C334.342,717.321,335.94,715.703,335.94,713.681z"/>
</g>
<g id="LWPOLYLINE_755_">
	<path fill="#FFD200" d="M328.619,704.701h7.321c0-2.427-1.599-4.045-3.56-4.045C330.217,700.656,328.619,702.274,328.619,704.701z"
		/>
</g>
<g id="LWPOLYLINE_756_">
	<path d="M366.903,701.91v21.074h-5.541v-19.739c0-2.022-1.82-3.762-3.762-3.762c-2.104,0-3.722,1.739-3.722,3.762v19.739h-5.521
		v-27.99h5.521v2.265c1.982-1.173,4.085-1.941,6.391-2.265C363.829,694.994,366.903,697.987,366.903,701.91z"/>
</g>
<g id="LWPOLYLINE_757_">
	<rect x="49.705" y="94.654" fill="#FFD200" width="496.063" height="206.632"/>
</g>
<g id="LWPOLYLINE_758_">
	<path fill="#EF3E42" d="M68.311,301.286H527c10.436,0,18.768-8.353,18.768-18.606V113.24c0-10.294-8.332-18.586-18.768-18.586
		H68.311c-10.294,0-18.606,8.292-18.606,18.586V282.68C49.705,292.934,58.017,301.286,68.311,301.286z"/>
</g>
<g id="LWPOLYLINE_759_">
	<path fill="#FFD200" d="M68.311,288.868H527c3.559,0,6.31-2.75,6.31-6.188V113.24c0-3.418-2.751-6.229-6.31-6.229H68.311
		c-3.438,0-6.229,2.812-6.229,6.229V282.68C62.082,286.118,64.873,288.868,68.311,288.868z"/>
</g>
<g id="LWPOLYLINE_760_">
	<path d="M120.955,145.275c-0.202-3.276-2.629-5.804-5.905-5.946h-3.074c-3.276,0.142-5.703,2.993-5.542,6.188
		c0.162,1.78,0.991,3.337,2.265,4.369l13.389,4.833c3.417,2.042,5.865,5.481,6.694,9.384c1.598,7.827-3.438,15.451-11.103,17.089
		c-9.93,1.477-19.071-5.097-20.386-14.804l7.342-1.092c0.829,5.643,6.027,9.465,11.568,8.636c3.762-0.87,6.047-4.631,5.238-8.393
		c-0.324-1.699-1.314-3.074-2.791-4.065l-13.186-4.874c-3.903-2.306-6.209-6.391-6.533-10.86
		c-0.323-7.422,5.38-13.611,12.883-13.935h3.438c7.139,0.323,13.024,6.188,13.166,13.469H120.955z"/>
</g>
<g id="LWPOLYLINE_761_">
	<path d="M154.366,169.059h7.483c0,6.876-5.521,12.377-12.377,12.377c-6.836,0-12.377-5.501-12.377-12.377v-12.377
		c0-6.876,5.542-12.418,12.377-12.418c6.856,0,12.377,5.542,12.377,12.418v6.917h-17.413v5.46c0,2.67,2.285,4.996,5.036,4.996
		C152.262,174.055,154.366,171.729,154.366,169.059z"/>
</g>
<g id="LWPOLYLINE_762_">
	<path fill="#FFD200" d="M144.436,157.167h9.93c0-3.276-2.104-5.481-4.894-5.481C146.721,151.687,144.436,153.891,144.436,157.167z"
		/>
</g>
<g id="LWPOLYLINE_763_">
	<path d="M178.17,155.61v25.827h-7.342v-37.172h7.342v1.962c2.588-1.274,5.542-1.962,8.454-1.962v7.827
		c-1.941-1.881-5.056-1.881-6.978,0.081C178.655,153.082,178.17,154.376,178.17,155.61z"/>
</g>
<g id="LWPOLYLINE_764_">
	<polygon points="188.585,144.264 198.536,181.437 206.039,181.437 215.807,144.264 208.466,144.264 202.277,167.502 
		196.088,144.264 	"/>
</g>
<g id="LWPOLYLINE_765_">
	<rect x="222.319" y="144.264" width="7.503" height="37.172"/>
</g>
<g id="LWPOLYLINE_766_">
	<rect x="222.319" y="131.806" width="7.503" height="7.523"/>
</g>
<g id="LWPOLYLINE_767_">
	<path d="M263.557,156.682c0-6.876-5.501-12.418-12.539-12.418c-6.856,0-12.377,5.542-12.377,12.418v12.377
		c0,6.876,5.521,12.377,12.377,12.377c7.038,0,12.539-5.501,12.539-12.377h-7.463c0,2.67-2.326,4.996-5.076,4.996
		c-2.589,0-4.874-2.326-4.874-4.996v-12.377c0-2.791,2.285-4.996,4.874-4.996c2.75,0,5.076,2.205,5.076,4.996H263.557z"/>
</g>
<g id="LWPOLYLINE_768_">
	<path d="M288.352,169.059h7.341c0,6.876-5.542,12.377-12.417,12.377c-6.816,0-12.377-5.501-12.377-12.377v-12.377
		c0-6.876,5.562-12.418,12.377-12.418c6.876,0,12.417,5.542,12.417,12.418v6.917h-17.292v5.46c0,2.67,2.124,4.996,4.874,4.996
		C286.067,174.055,288.352,171.729,288.352,169.059z"/>
</g>
<g id="LWPOLYLINE_769_">
	<path fill="#FFD200" d="M278.402,157.167h9.95c0-3.276-2.285-5.481-5.076-5.481C280.525,151.687,278.402,153.891,278.402,157.167z"
		/>
</g>
<g id="LWPOLYLINE_770_">
	<polygon points="312.136,181.437 304.633,181.437 304.633,131.806 312.136,131.806 312.136,159.271 321.925,144.264 
		329.428,144.264 320.974,157.005 329.428,181.437 321.925,181.437 316.06,164.428 312.136,170.293 	"/>
</g>
<g id="LWPOLYLINE_771_">
	<path d="M334.969,169.059c0,6.876,5.563,12.377,12.378,12.377c6.855,0,12.438-5.501,12.438-12.377v-12.377
		c0-6.876-5.582-12.418-12.438-12.418c-6.815,0-12.378,5.542-12.378,12.418V169.059z"/>
</g>
<g id="LWPOLYLINE_772_">
	<rect x="350.319" y="131.806" width="7.483" height="7.523"/>
</g>
<g id="LWPOLYLINE_773_">
	<path fill="#FFD200" d="M342.331,169.059c0,2.67,2.265,4.996,5.016,4.996c2.629,0,4.914-2.326,4.914-4.996v-12.377
		c0-2.791-2.285-4.996-4.914-4.996c-2.751,0-5.016,2.205-5.016,4.996V169.059z"/>
</g>
<g id="LWPOLYLINE_774_">
	<rect x="336.931" y="131.806" width="7.342" height="7.523"/>
</g>
<g id="LWPOLYLINE_775_">
	<path d="M376.045,155.61v25.827h-7.523v-37.172h7.523v1.962c2.589-1.274,5.582-1.962,8.494-1.962v7.827
		c-1.981-1.881-5.056-1.881-7.038,0.081C376.53,153.082,376.045,154.376,376.045,155.61z"/>
</g>
<g id="LWPOLYLINE_776_">
	<path d="M414.714,153.406v28.031h-7.361v-26.312c0-2.669-2.266-4.915-5.097-4.915c-2.589,0-4.854,2.245-4.854,4.915v26.312h-7.523
		v-37.172h7.523v2.953c2.589-1.557,5.421-2.588,8.495-2.953C410.79,144.264,414.714,148.269,414.714,153.406z"/>
</g>
<g id="LWPOLYLINE_777_">
	<rect x="423.612" y="144.264" width="7.523" height="37.172"/>
</g>
<g id="LWPOLYLINE_778_">
	<rect x="423.612" y="131.806" width="7.523" height="7.523"/>
</g>
<g id="LWPOLYLINE_779_">
	<path d="M465.882,153.406v28.031h-7.483v-26.312c0-2.669-2.144-4.915-4.935-4.915c-2.751,0-5.016,2.245-5.016,4.915v26.312h-7.361
		v-37.172h7.361v2.953c2.589-1.557,5.501-2.588,8.454-2.953C461.796,144.264,465.882,148.269,465.882,153.406z"/>
</g>
<g id="LWPOLYLINE_780_">
	<path d="M490.596,179.475c-2.589,1.558-5.339,2.649-8.413,2.953c-4.895,0-8.979-3.984-8.979-8.899
		c0-0.324,0.161-20.689,0.161-20.689c0.81-4.227,4.409-7.402,8.818-7.564c3.074,0.303,5.824,1.396,8.413,2.912v-2.912h7.523v34.199
		c0,1.719-0.485,3.438-1.133,4.996c-2.75,6.027-9.91,8.535-15.774,5.784l3.074-6.795c2.265,1.092,4.894,0.122,5.864-2.104
		C490.475,180.708,490.596,180.163,490.596,179.475z"/>
</g>
<g id="LWPOLYLINE_781_">
	<path fill="#FFD200" d="M480.686,171.486c0,2.791,2.306,4.995,4.895,4.995c2.75,0,5.016-2.204,5.016-4.995v-15.29
		c0-2.791-2.266-4.976-5.016-4.976c-2.589,0-4.895,2.185-4.895,4.976V171.486z"/>
</g>
<g id="LWPOLYLINE_782_">
	<path d="M217.122,226.941h4.247v7.382h-4.247v18.141c0,2.346,1.961,4.227,4.247,4.227v7.422c-6.512,0-11.75-5.238-11.75-11.649
		v-18.141h-4.065v-7.382h4.065v-12.418h7.503V226.941z"/>
</g>
<g id="LWPOLYLINE_783_">
	<rect x="228.872" y="226.941" width="7.301" height="37.172"/>
</g>
<g id="LWPOLYLINE_784_">
	<rect x="228.872" y="214.523" width="7.301" height="7.443"/>
</g>
<g id="LWPOLYLINE_785_">
	<rect x="246.144" y="214.523" width="7.483" height="49.59"/>
</g>
<g id="LWPOLYLINE_786_">
	<rect x="263.557" y="214.523" width="7.341" height="49.59"/>
</g>
<g id="LWPOLYLINE_787_">
	<path d="M303.683,264.114h-7.504v-2.407c-2.912,1.638-6.35,2.488-9.626,2.407c-3.074,0.081-5.865-1.881-6.836-4.753
		c-1.153-3.822-0.142-7.988,2.609-10.739c3.58-3.924,8.616-6.27,13.854-6.715v-3.822c0-2.124-1.638-3.762-3.6-3.762
		c-2.124,0-3.762,1.638-3.762,3.762h-7.463c0-6.188,5.036-11.144,11.225-11.144c6.027,0,11.104,4.955,11.104,11.144V264.114z"/>
</g>
<g id="LWPOLYLINE_788_">
	<path fill="#FFD200" d="M296.179,246.741c-2.447,0.647-4.712,1.8-6.674,3.519c-1.8,1.436-2.791,3.62-2.629,6.027
		c0,1.436,1.152,2.669,2.791,2.669c2.427-0.384,4.551-1.153,6.512-2.205V246.741z"/>
</g>
<g id="CIRCLE_111_">
	<path d="M297.494,220.004c0-2.771-2.286-4.955-4.915-4.955c-2.75,0-5.036,2.185-5.036,4.955c0,2.71,2.286,4.915,5.036,4.915
		C295.208,224.919,297.494,222.714,297.494,220.004L297.494,220.004z"/>
</g>
<g id="CIRCLE_112_">
	<path fill="#FFD200" d="M294.541,220.004c0-1.112-0.971-2.042-1.961-2.042c-1.112,0-2.124,0.93-2.124,2.042
		c0,1.072,1.011,1.962,2.124,1.962C293.57,221.966,294.541,221.076,294.541,220.004L294.541,220.004z"/>
</g>
<g id="LWPOLYLINE_789_">
	<path d="M321.277,226.941h4.227v7.382h-4.227v18.141c0,2.346,1.962,4.227,4.227,4.227v7.422c-6.491,0-11.729-5.238-11.729-11.649
		v-18.141h-4.228v-7.382h4.228v-12.418h7.503V226.941z"/>
</g>
<g id="LWPOLYLINE_790_">
	<path d="M348.823,251.696h7.321c0,6.876-5.501,12.418-12.378,12.418c-6.836,0-12.377-5.542-12.377-12.418v-12.377
		c0-6.876,5.541-12.377,12.377-12.377c6.877,0,12.378,5.501,12.378,12.377v6.957h-17.252v5.42c0,2.71,2.266,4.996,4.874,4.996
		C346.558,256.691,348.823,254.406,348.823,251.696z"/>
</g>
<g id="LWPOLYLINE_791_">
	<path fill="#FFD200" d="M338.893,239.804h9.931c0-3.276-2.266-5.481-5.057-5.481C341.158,234.323,338.893,236.528,338.893,239.804z
		"/>
</g>
<g id="LWPOLYLINE_792_">
	<path d="M389.878,236.042v28.071h-7.32v-26.271c0-2.75-2.266-4.955-5.057-4.955c-2.75,0-4.854,2.205-4.854,4.955v26.271h-7.523
		v-37.172h7.523v2.912c2.589-1.557,5.339-2.588,8.413-2.912C385.995,226.941,389.878,230.946,389.878,236.042z"/>
</g>
</svg>
