<?xml version="1.0" encoding="iso-8859-1"?>
<!-- Generator: Adobe Illustrator 15.1.0, SVG Export Plug-In . SVG Version: 6.00 Build 0)  -->
<!DOCTYPE svg PUBLIC "-//W3C//DTD SVG 1.1//EN" "http://www.w3.org/Graphics/SVG/1.1/DTD/svg11.dtd">
<svg version="1.1" id="Layer2" xmlns="http://www.w3.org/2000/svg" xmlns:xlink="http://www.w3.org/1999/xlink" x="0px" y="0px"
	 width="595px" height="842px" viewBox="0 0 595 842" style="enable-background:new 0 0 595 842;" xml:space="preserve">
<g>
	<g>
		<path style="fill-rule:evenodd;clip-rule:evenodd;fill:#007AC2;" d="M163.504,253.04h309.024c3.96,0,7.2-3.24,7.2-7.272V120.344
			c0-4.032-3.24-7.272-7.2-7.272H163.504c-4.032,0-7.272,3.24-7.272,7.272v125.424C156.232,249.8,159.472,253.04,163.504,253.04
			L163.504,253.04z"/>
	</g>
	<polygon style="fill-rule:evenodd;clip-rule:evenodd;fill:#ED1C24;" points="229.744,153.104 229.672,153.104 229.672,153.104 
		229.672,153.104 	"/>
	<polygon style="fill-rule:evenodd;clip-rule:evenodd;fill:#ED1C24;" points="229.744,153.104 229.672,153.104 229.672,153.104 
		229.672,153.104 	"/>
	<polygon style="fill-rule:evenodd;clip-rule:evenodd;fill:#ED1C24;" points="229.744,153.104 229.672,153.104 229.672,153.104 
		229.672,153.104 	"/>
	<polygon style="fill-rule:evenodd;clip-rule:evenodd;fill:#ED1C24;" points="229.744,153.104 229.672,153.104 229.672,153.104 
		229.672,153.104 	"/>
	<polygon style="fill-rule:evenodd;clip-rule:evenodd;fill:#ED1C24;" points="229.744,153.104 229.672,153.104 229.672,153.104 
		229.672,153.104 	"/>
	<polygon style="fill-rule:evenodd;clip-rule:evenodd;fill:#ED1C24;" points="229.744,153.104 229.672,153.104 229.672,153.104 
		229.672,153.104 	"/>
	<polygon style="fill-rule:evenodd;clip-rule:evenodd;fill:#ED1C24;" points="229.744,153.104 229.672,153.104 229.672,153.104 
		229.672,153.104 	"/>
	<polygon style="fill-rule:evenodd;clip-rule:evenodd;fill:#ED1C24;" points="229.744,153.104 229.672,153.104 229.672,153.104 
		229.672,153.104 	"/>
	<g>
		<path style="fill-rule:evenodd;clip-rule:evenodd;fill:#ED1C24;" d="M413.272,145.832c-2.448-2.52-5.04-4.824-7.704-7.056
			c-8.496-7.632-18.576-13.392-29.448-16.848c-6.84-2.232-14.184-2.016-20.88,0.648l-1.656,1.44l23.112,23.112l0.432-0.432
			c1.296-1.08,3.096-1.296,4.536-0.648c6.552,3.672,12.6,8.208,17.928,13.464c5.328,5.328,9.864,11.376,13.608,17.928
			c0.72,1.512,0.504,3.24-0.576,4.536l-0.504,0.432l23.184,23.112l1.44-1.656c2.592-6.696,2.808-14.04,0.648-20.88
			c-3.528-10.944-9.36-20.952-17.064-29.448C418.096,150.872,415.792,148.28,413.272,145.832L413.272,145.832z"/>
	</g>
	<g>
		<path style="fill-rule:evenodd;clip-rule:evenodd;fill:#ED1C24;" d="M345.52,137.408l17.784,18
			c1.44,1.368,3.744,1.368,5.184-0.072l6.48-6.48l-23.112-23.112l-6.264,6.408C344.224,133.592,344.152,135.896,345.52,137.408
			L345.52,137.408z"/>
		
			<path style="fill-rule:evenodd;clip-rule:evenodd;fill:none;stroke:#ED1C24;stroke-width:0.216;stroke-linejoin:bevel;stroke-miterlimit:10;" d="
			M345.52,137.408l17.784,18c1.44,1.368,3.744,1.368,5.184-0.072l6.48-6.48l-23.112-23.112l-6.264,6.408
			C344.224,133.592,344.152,135.896,345.52,137.408"/>
	</g>
	<g>
		<path style="fill-rule:evenodd;clip-rule:evenodd;fill:#ED1C24;" d="M421.84,213.728l-18-17.856
			c-1.368-1.512-1.296-3.816,0.144-5.256l6.408-6.408l23.184,23.04l-6.408,6.408C425.656,215.024,423.424,215.096,421.84,213.728
			L421.84,213.728z"/>
		
			<path style="fill-rule:evenodd;clip-rule:evenodd;fill:none;stroke:#ED1C24;stroke-width:0.216;stroke-linejoin:bevel;stroke-miterlimit:10;" d="
			M421.84,213.728l-18-17.856c-1.368-1.512-1.296-3.816,0.144-5.256l6.408-6.408l23.184,23.04l-6.408,6.408
			C425.656,215.024,423.424,215.096,421.84,213.728"/>
	</g>
	<g>
		<path style="fill-rule:evenodd;clip-rule:evenodd;fill:#ED1C24;" d="M250.408,240.944h-40.104v-89.496
			c0.072-2.088,0.936-4.104,2.52-5.472c1.584-1.44,3.6-2.088,5.76-1.944h7.2v-7.128l-7.992,0.216l-14.832,9.936v7.776h-5.472v-14.04
			l20.448-13.896h7.848l0,0l0,0v-1.728h9.504v1.728h3.672l7.344,3.168v4.032l-6.336,2.808h-4.68v7.128h7.848
			c3.96,0,7.2,3.096,7.416,7.056L250.408,240.944L250.408,240.944z"/>
	</g>
	
		<path style="fill-rule:evenodd;clip-rule:evenodd;fill:#FFFFFF;stroke:#FFFFFF;stroke-width:0.216;stroke-linejoin:bevel;stroke-miterlimit:10;" d="
		M325.72,243.536h1.512l0,0c5.4,0,10.008-3.888,10.872-9.216c0.936-5.256-2.16-10.44-7.2-12.24l0,0l-7.992-2.736l0,0
		c-2.088-0.72-3.312-2.808-2.952-4.968s2.232-3.672,4.392-3.672l0,0h2.736l0,0c2.448,0,4.392,1.944,4.392,4.392l0,0h5.832l0,0
		c0-5.616-4.608-10.224-10.224-10.224l0,0h-2.736l0,0c-4.968,0-9.288,3.6-10.08,8.568c-0.864,4.896,2.016,9.72,6.696,11.376l0,0
		l7.992,2.736l0,0c1.224,0.432,2.16,1.296,2.808,2.304l0,0c0.576,1.08,0.72,2.304,0.288,3.384l0,0
		c-1.08,3.096-4.248,4.968-7.488,4.392c-3.24-0.576-5.616-3.384-5.616-6.696l0,0h-5.832l0,0
		C313.12,237.92,318.808,243.536,325.72,243.536L325.72,243.536z"/>
	
		<path style="fill-rule:evenodd;clip-rule:evenodd;fill:#FFFFFF;stroke:#FFFFFF;stroke-width:0.216;stroke-linejoin:bevel;stroke-miterlimit:10;" d="
		M387.712,243.536h1.512l0,0c5.4,0,9.936-3.888,10.872-9.216c0.864-5.256-2.16-10.44-7.2-12.24l0,0l-7.992-2.736l0,0
		c-2.088-0.72-3.312-2.808-2.952-4.968c0.36-2.16,2.232-3.672,4.392-3.672l0,0h2.664l0,0c2.52,0,4.464,1.944,4.464,4.392l0,0h5.832
		l0,0c0-5.616-4.608-10.224-10.296-10.224l0,0h-2.664l0,0c-4.968,0-9.288,3.6-10.08,8.568c-0.864,4.896,2.016,9.72,6.696,11.376l0,0
		l7.992,2.736l0,0c1.152,0.432,2.16,1.296,2.808,2.304l0,0c0.576,1.08,0.72,2.304,0.288,3.384l0,0
		c-1.08,3.096-4.32,4.968-7.488,4.392c-3.24-0.576-5.616-3.384-5.616-6.696l0,0h-5.832l0,0
		C375.112,237.92,380.728,243.536,387.712,243.536L387.712,243.536z"/>
	
		<path style="fill-rule:evenodd;clip-rule:evenodd;fill:#FFFFFF;stroke:#FFFFFF;stroke-width:0.216;stroke-linejoin:bevel;stroke-miterlimit:10;" d="
		M369.208,230.936V217.4l0,0c0-6.912-5.616-12.528-12.6-12.528c-6.912,0-12.528,5.616-12.528,12.528l0,0v13.536l0,0
		c0,4.464,2.376,8.64,6.264,10.872c3.888,2.232,8.712,2.232,12.6,0C366.832,239.576,369.208,235.4,369.208,230.936h-5.832
		c0,2.448-1.296,4.68-3.384,5.832c-2.088,1.224-4.68,1.224-6.768,0c-2.088-1.152-3.384-3.384-3.384-5.832l0,0V217.4l0,0
		c0-3.744,3.096-6.768,6.768-6.768c3.744,0,6.768,3.024,6.768,6.768l0,0v13.536H369.208z"/>
	<g>
		<path style="fill-rule:evenodd;clip-rule:evenodd;fill:#007AC2;" d="M317.872,260.312h168.912V105.944H317.872h154.44
			c7.992,0,14.472,6.48,14.472,14.472v125.352c0,7.992-6.48,14.544-14.472,14.544H317.872z M149.032,260.312h168.84H163.504l0,0
			c-7.992,0-14.472-6.552-14.472-14.544V120.416c0-7.992,6.48-14.472,14.472-14.472h154.368h-168.84V260.312L149.032,260.312z"/>
		
			<path style="fill-rule:evenodd;clip-rule:evenodd;fill:none;stroke:#007AC2;stroke-width:1.0001;stroke-linejoin:bevel;stroke-miterlimit:10;" d="
			M149.032,260.312h337.752V105.944H149.032V260.312 M163.504,260.312h308.808c7.992,0,14.472-6.552,14.472-14.544V120.416
			c0-7.992-6.48-14.472-14.472-14.472H163.504c-7.992,0-14.472,6.48-14.472,14.472v125.352
			C149.032,253.76,155.512,260.312,163.504,260.312"/>
	</g>
</g>
</svg>
