<?xml version="1.0" encoding="UTF-8" standalone="no"?>
<!-- Generator: Adobe Illustrator 15.1.0, SVG Export Plug-In . SVG Version: 6.00 Build 0)  -->

<svg
   xmlns:dc="http://purl.org/dc/elements/1.1/"
   xmlns:cc="http://creativecommons.org/ns#"
   xmlns:rdf="http://www.w3.org/1999/02/22-rdf-syntax-ns#"
   xmlns:svg="http://www.w3.org/2000/svg"
   xmlns="http://www.w3.org/2000/svg"
   xmlns:sodipodi="http://sodipodi.sourceforge.net/DTD/sodipodi-0.dtd"
   xmlns:inkscape="http://www.inkscape.org/namespaces/inkscape"
   version="1.1"
   id="Layer2"
   x="0px"
   y="0px"
   width="338.75211"
   height="155.3681"
   viewBox="0 0 338.75211 155.3681"
   xml:space="preserve"
   sodipodi:docname="880.svg"
   inkscape:version="0.92.5 (2060ec1f9f, 2020-04-08)"><metadata
   id="metadata5016"><rdf:RDF><cc:Work
       rdf:about=""><dc:format>image/svg+xml</dc:format><dc:type
         rdf:resource="http://purl.org/dc/dcmitype/StillImage" /></cc:Work></rdf:RDF></metadata><defs
   id="defs5014" /><sodipodi:namedview
   pagecolor="#ffffff"
   bordercolor="#666666"
   borderopacity="1"
   objecttolerance="10"
   gridtolerance="10"
   guidetolerance="10"
   inkscape:pageopacity="0"
   inkscape:pageshadow="2"
   inkscape:window-width="640"
   inkscape:window-height="480"
   id="namedview5012"
   showgrid="false"
   inkscape:zoom="0.28028504"
   inkscape:cx="148.96805"
   inkscape:cy="-160.18795"
   inkscape:window-x="0"
   inkscape:window-y="0"
   inkscape:window-maximized="0"
   inkscape:current-layer="Layer2" />
<g
   id="g5009"
   transform="translate(-148.53195,-105.44395)">
	<g
   id="g4959">
		<path
   style="clip-rule:evenodd;fill:#007ac2;fill-rule:evenodd"
   d="m 163.504,253.04 h 309.024 c 3.96,0 7.2,-3.24 7.2,-7.272 V 120.344 c 0,-4.032 -3.24,-7.272 -7.2,-7.272 H 163.504 c -4.032,0 -7.272,3.24 -7.272,7.272 v 125.424 c 0,4.032 3.24,7.272 7.272,7.272 z"
   id="path4957"
   inkscape:connector-curvature="0" />
	</g>
	<polygon
   style="clip-rule:evenodd;fill:#ed1c24;fill-rule:evenodd"
   points="229.672,153.104 229.672,153.104 229.744,153.104 229.672,153.104 "
   id="polygon4961" />
	<polygon
   style="clip-rule:evenodd;fill:#ed1c24;fill-rule:evenodd"
   points="229.672,153.104 229.672,153.104 229.744,153.104 229.672,153.104 "
   id="polygon4963" />
	<polygon
   style="clip-rule:evenodd;fill:#ed1c24;fill-rule:evenodd"
   points="229.672,153.104 229.672,153.104 229.744,153.104 229.672,153.104 "
   id="polygon4965" />
	<polygon
   style="clip-rule:evenodd;fill:#ed1c24;fill-rule:evenodd"
   points="229.672,153.104 229.672,153.104 229.744,153.104 229.672,153.104 "
   id="polygon4967" />
	<polygon
   style="clip-rule:evenodd;fill:#ed1c24;fill-rule:evenodd"
   points="229.672,153.104 229.672,153.104 229.744,153.104 229.672,153.104 "
   id="polygon4969" />
	<polygon
   style="clip-rule:evenodd;fill:#ed1c24;fill-rule:evenodd"
   points="229.672,153.104 229.672,153.104 229.744,153.104 229.672,153.104 "
   id="polygon4971" />
	<polygon
   style="clip-rule:evenodd;fill:#ed1c24;fill-rule:evenodd"
   points="229.672,153.104 229.672,153.104 229.744,153.104 229.672,153.104 "
   id="polygon4973" />
	<polygon
   style="clip-rule:evenodd;fill:#ed1c24;fill-rule:evenodd"
   points="229.672,153.104 229.672,153.104 229.744,153.104 229.672,153.104 "
   id="polygon4975" />
	<g
   id="g4979">
		<path
   style="clip-rule:evenodd;fill:#ed1c24;fill-rule:evenodd"
   d="m 413.272,145.832 c -2.448,-2.52 -5.04,-4.824 -7.704,-7.056 -8.496,-7.632 -18.576,-13.392 -29.448,-16.848 -6.84,-2.232 -14.184,-2.016 -20.88,0.648 l -1.656,1.44 23.112,23.112 0.432,-0.432 c 1.296,-1.08 3.096,-1.296 4.536,-0.648 6.552,3.672 12.6,8.208 17.928,13.464 5.328,5.328 9.864,11.376 13.608,17.928 0.72,1.512 0.504,3.24 -0.576,4.536 l -0.504,0.432 23.184,23.112 1.44,-1.656 c 2.592,-6.696 2.808,-14.04 0.648,-20.88 -3.528,-10.944 -9.36,-20.952 -17.064,-29.448 -2.232,-2.664 -4.536,-5.256 -7.056,-7.704 z"
   id="path4977"
   inkscape:connector-curvature="0" />
	</g>
	<g
   id="g4985">
		<path
   style="clip-rule:evenodd;fill:#ed1c24;fill-rule:evenodd"
   d="m 345.52,137.408 17.784,18 c 1.44,1.368 3.744,1.368 5.184,-0.072 l 6.48,-6.48 -23.112,-23.112 -6.264,6.408 c -1.368,1.44 -1.44,3.744 -0.072,5.256 z"
   id="path4981"
   inkscape:connector-curvature="0" />
		
			<path
   style="clip-rule:evenodd;fill:none;fill-rule:evenodd;stroke:#ed1c24;stroke-width:0.21600001;stroke-linejoin:bevel;stroke-miterlimit:10"
   d="m 345.52,137.408 17.784,18 c 1.44,1.368 3.744,1.368 5.184,-0.072 l 6.48,-6.48 -23.112,-23.112 -6.264,6.408 c -1.368,1.44 -1.44,3.744 -0.072,5.256"
   id="path4983"
   inkscape:connector-curvature="0" />
	</g>
	<g
   id="g4991">
		<path
   style="clip-rule:evenodd;fill:#ed1c24;fill-rule:evenodd"
   d="m 421.84,213.728 -18,-17.856 c -1.368,-1.512 -1.296,-3.816 0.144,-5.256 l 6.408,-6.408 23.184,23.04 -6.408,6.408 c -1.512,1.368 -3.744,1.44 -5.328,0.072 z"
   id="path4987"
   inkscape:connector-curvature="0" />
		
			<path
   style="clip-rule:evenodd;fill:none;fill-rule:evenodd;stroke:#ed1c24;stroke-width:0.21600001;stroke-linejoin:bevel;stroke-miterlimit:10"
   d="m 421.84,213.728 -18,-17.856 c -1.368,-1.512 -1.296,-3.816 0.144,-5.256 l 6.408,-6.408 23.184,23.04 -6.408,6.408 c -1.512,1.368 -3.744,1.44 -5.328,0.072"
   id="path4989"
   inkscape:connector-curvature="0" />
	</g>
	<g
   id="g4995">
		<path
   style="clip-rule:evenodd;fill:#ed1c24;fill-rule:evenodd"
   d="m 250.408,240.944 h -40.104 v -89.496 c 0.072,-2.088 0.936,-4.104 2.52,-5.472 1.584,-1.44 3.6,-2.088 5.76,-1.944 h 7.2 v -7.128 l -7.992,0.216 -14.832,9.936 v 7.776 h -5.472 v -14.04 l 20.448,-13.896 h 7.848 v 0 0 -1.728 h 9.504 v 1.728 h 3.672 l 7.344,3.168 v 4.032 l -6.336,2.808 h -4.68 v 7.128 h 7.848 c 3.96,0 7.2,3.096 7.416,7.056 z"
   id="path4993"
   inkscape:connector-curvature="0" />
	</g>
	
		<path
   style="clip-rule:evenodd;fill:#ffffff;fill-rule:evenodd;stroke:#ffffff;stroke-width:0.21600001;stroke-linejoin:bevel;stroke-miterlimit:10"
   d="m 325.72,243.536 h 1.512 v 0 c 5.4,0 10.008,-3.888 10.872,-9.216 0.936,-5.256 -2.16,-10.44 -7.2,-12.24 v 0 l -7.992,-2.736 v 0 c -2.088,-0.72 -3.312,-2.808 -2.952,-4.968 0.36,-2.16 2.232,-3.672 4.392,-3.672 v 0 h 2.736 v 0 c 2.448,0 4.392,1.944 4.392,4.392 v 0 h 5.832 v 0 c 0,-5.616 -4.608,-10.224 -10.224,-10.224 v 0 h -2.736 v 0 c -4.968,0 -9.288,3.6 -10.08,8.568 -0.864,4.896 2.016,9.72 6.696,11.376 v 0 l 7.992,2.736 v 0 c 1.224,0.432 2.16,1.296 2.808,2.304 v 0 c 0.576,1.08 0.72,2.304 0.288,3.384 v 0 c -1.08,3.096 -4.248,4.968 -7.488,4.392 -3.24,-0.576 -5.616,-3.384 -5.616,-6.696 v 0 h -5.832 v 0 c 0,6.984 5.688,12.6 12.6,12.6 z"
   id="path4997"
   inkscape:connector-curvature="0" />
	
		<path
   style="clip-rule:evenodd;fill:#ffffff;fill-rule:evenodd;stroke:#ffffff;stroke-width:0.21600001;stroke-linejoin:bevel;stroke-miterlimit:10"
   d="m 387.712,243.536 h 1.512 v 0 c 5.4,0 9.936,-3.888 10.872,-9.216 0.864,-5.256 -2.16,-10.44 -7.2,-12.24 v 0 l -7.992,-2.736 v 0 c -2.088,-0.72 -3.312,-2.808 -2.952,-4.968 0.36,-2.16 2.232,-3.672 4.392,-3.672 v 0 h 2.664 v 0 c 2.52,0 4.464,1.944 4.464,4.392 v 0 h 5.832 v 0 c 0,-5.616 -4.608,-10.224 -10.296,-10.224 v 0 h -2.664 v 0 c -4.968,0 -9.288,3.6 -10.08,8.568 -0.864,4.896 2.016,9.72 6.696,11.376 v 0 l 7.992,2.736 v 0 c 1.152,0.432 2.16,1.296 2.808,2.304 v 0 c 0.576,1.08 0.72,2.304 0.288,3.384 v 0 c -1.08,3.096 -4.32,4.968 -7.488,4.392 -3.24,-0.576 -5.616,-3.384 -5.616,-6.696 v 0 h -5.832 v 0 c 0,6.984 5.616,12.6 12.6,12.6 z"
   id="path4999"
   inkscape:connector-curvature="0" />
	
		<path
   style="clip-rule:evenodd;fill:#ffffff;fill-rule:evenodd;stroke:#ffffff;stroke-width:0.21600001;stroke-linejoin:bevel;stroke-miterlimit:10"
   d="m 369.208,230.936 v -13.536 0 c 0,-6.912 -5.616,-12.528 -12.6,-12.528 -6.912,0 -12.528,5.616 -12.528,12.528 v 0 13.536 0 c 0,4.464 2.376,8.64 6.264,10.872 3.888,2.232 8.712,2.232 12.6,0 3.888,-2.232 6.264,-6.408 6.264,-10.872 h -5.832 c 0,2.448 -1.296,4.68 -3.384,5.832 -2.088,1.224 -4.68,1.224 -6.768,0 -2.088,-1.152 -3.384,-3.384 -3.384,-5.832 v 0 -13.536 0 c 0,-3.744 3.096,-6.768 6.768,-6.768 3.744,0 6.768,3.024 6.768,6.768 v 0 13.536 z"
   id="path5001"
   inkscape:connector-curvature="0" />
	<g
   id="g5007">
		<path
   style="clip-rule:evenodd;fill:#007ac2;fill-rule:evenodd"
   d="M 317.872,260.312 H 486.784 V 105.944 h -168.912 154.44 c 7.992,0 14.472,6.48 14.472,14.472 v 125.352 c 0,7.992 -6.48,14.544 -14.472,14.544 z m -168.84,0 h 168.84 -154.368 v 0 c -7.992,0 -14.472,-6.552 -14.472,-14.544 V 120.416 c 0,-7.992 6.48,-14.472 14.472,-14.472 h 154.368 -168.84 z"
   id="path5003"
   inkscape:connector-curvature="0" />
		
			<path
   style="clip-rule:evenodd;fill:none;fill-rule:evenodd;stroke:#007ac2;stroke-width:1.00010002;stroke-linejoin:bevel;stroke-miterlimit:10"
   d="M 149.032,260.312 H 486.784 V 105.944 H 149.032 v 154.368 m 14.472,0 h 308.808 c 7.992,0 14.472,-6.552 14.472,-14.544 V 120.416 c 0,-7.992 -6.48,-14.472 -14.472,-14.472 H 163.504 c -7.992,0 -14.472,6.48 -14.472,14.472 v 125.352 c 0,7.992 6.48,14.544 14.472,14.544"
   id="path5005"
   inkscape:connector-curvature="0" />
	</g>
</g>
</svg>