<?xml version="1.0" encoding="UTF-8" standalone="no"?>
<!-- Generator: Adobe Illustrator 15.1.0, SVG Export Plug-In . SVG Version: 6.00 Build 0)  -->

<svg
   xmlns:dc="http://purl.org/dc/elements/1.1/"
   xmlns:cc="http://creativecommons.org/ns#"
   xmlns:rdf="http://www.w3.org/1999/02/22-rdf-syntax-ns#"
   xmlns:svg="http://www.w3.org/2000/svg"
   xmlns="http://www.w3.org/2000/svg"
   xmlns:sodipodi="http://sodipodi.sourceforge.net/DTD/sodipodi-0.dtd"
   xmlns:inkscape="http://www.inkscape.org/namespaces/inkscape"
   version="1.0"
   id="Layer_1"
   x="0px"
   y="0px"
   width="248.45338"
   height="496.54282"
   viewBox="0 0 248.45337 496.54281"
   enable-background="new 0 0 595.28 841.89"
   xml:space="preserve"
   sodipodi:docname="911.svg"
   inkscape:version="0.92.5 (2060ec1f9f, 2020-04-08)"><metadata
   id="metadata5039"><rdf:RDF><cc:Work
       rdf:about=""><dc:format>image/svg+xml</dc:format><dc:type
         rdf:resource="http://purl.org/dc/dcmitype/StillImage" /></cc:Work></rdf:RDF></metadata><defs
   id="defs5037" /><sodipodi:namedview
   pagecolor="#ffffff"
   bordercolor="#666666"
   borderopacity="1"
   objecttolerance="10"
   gridtolerance="10"
   guidetolerance="10"
   inkscape:pageopacity="0"
   inkscape:pageshadow="2"
   inkscape:window-width="640"
   inkscape:window-height="480"
   id="namedview5035"
   showgrid="false"
   inkscape:zoom="0.28032165"
   inkscape:cx="109.87063"
   inkscape:cy="277.12093"
   inkscape:window-x="0"
   inkscape:window-y="0"
   inkscape:window-maximized="0"
   inkscape:current-layer="Layer_1" />
<polygon
   stroke-miterlimit="10"
   points="435.921,325.758 311.954,201.7 435.921,201.7 "
   id="polygon5018"
   style="fill:#3d5aa9;stroke:#3d5aa9;stroke-width:0.25;stroke-miterlimit:10"
   transform="translate(-187.76938,-201.52313)" />
<polygon
   stroke-miterlimit="10"
   points="188.071,201.7 311.954,201.7 188.071,325.758 "
   id="polygon5020"
   style="fill:#3d5aa9;stroke:#3d5aa9;stroke-width:0.25;stroke-miterlimit:10"
   transform="translate(-187.76938,-201.52313)" />
<polygon
   stroke-miterlimit="10"
   points="435.921,400.158 435.921,474.562 311.954,350.585 188.071,474.562 188.071,400.158 311.954,276.102 "
   id="polygon5022"
   style="fill:#3d5aa9;stroke:#3d5aa9;stroke-width:0.25;stroke-miterlimit:10"
   transform="translate(-187.76938,-201.52313)" />
<polygon
   stroke-miterlimit="10"
   points="435.921,548.962 435.921,623.362 311.954,499.388 188.071,623.362 188.071,548.962 311.954,424.987 "
   id="polygon5024"
   style="fill:#3d5aa9;stroke:#3d5aa9;stroke-width:0.25;stroke-miterlimit:10"
   transform="translate(-187.76938,-201.52313)" />
<polygon
   stroke-miterlimit="10"
   points="435.921,697.764 188.071,697.764 311.954,573.788 "
   id="polygon5026"
   style="fill:#3d5aa9;stroke:#3d5aa9;stroke-width:0.25;stroke-miterlimit:10"
   transform="translate(-187.76938,-201.52313)" />
<polygon
   stroke-miterlimit="10"
   points="435.921,623.362 435.921,697.764 311.954,573.788 188.071,697.764 188.071,623.362 311.954,499.388 "
   id="polygon5028"
   style="fill:#ffffff;stroke:#3d5aa9;stroke-width:0.25;stroke-linecap:square;stroke-miterlimit:10"
   transform="translate(-187.76938,-201.52313)" />
<polygon
   stroke-miterlimit="10"
   points="435.921,474.562 435.921,548.962 311.954,424.987 188.071,548.962 188.071,474.562 311.954,350.585 "
   id="polygon5030"
   style="fill:#ffffff;stroke:#3d5aa9;stroke-width:0.25;stroke-linecap:square;stroke-miterlimit:10"
   transform="translate(-187.76938,-201.52313)" />
<polygon
   stroke-miterlimit="10"
   points="435.921,325.758 435.921,400.158 311.954,276.102 188.071,400.158 188.071,325.758 311.954,201.7 "
   id="polygon5032"
   style="fill:#ffffff;stroke:#3d5aa9;stroke-width:0.25;stroke-linecap:square;stroke-miterlimit:10"
   transform="translate(-187.76938,-201.52313)" />
</svg>