<?xml version="1.0" encoding="iso-8859-1"?>
<!-- Generator: Adobe Illustrator 15.1.0, SVG Export Plug-In . SVG Version: 6.00 Build 0)  -->
<!DOCTYPE svg PUBLIC "-//W3C//DTD SVG 1.1//EN" "http://www.w3.org/Graphics/SVG/1.1/DTD/svg11.dtd">
<svg version="1.1" id="Layer_1" xmlns="http://www.w3.org/2000/svg" xmlns:xlink="http://www.w3.org/1999/xlink" x="0px" y="0px"
	 width="595.28px" height="841.89px" viewBox="0 0 595.28 841.89" style="enable-background:new 0 0 595.28 841.89;"
	 xml:space="preserve">
<g id="LWPOLYLINE_1881_">
	<rect x="49.608" y="296.935" style="fill:#FFD200;" width="496.063" height="248.021"/>
</g>
<g id="LWPOLYLINE_1882_">
	<path d="M54.569,321.739V520.15c0,10.979,8.911,19.844,19.843,19.844h446.455c10.955,0,19.844-8.865,19.844-19.844V321.739
		c0-10.955-8.889-19.843-19.844-19.843H74.413C63.48,301.896,54.569,310.784,54.569,321.739z"/>
</g>
<g id="LWPOLYLINE_1880_">
	<path style="fill:#FFD200;" d="M64.491,520.15V321.739c0-5.489,4.456-9.921,9.921-9.921h446.455c5.466,0,9.922,4.433,9.922,9.921
		V520.15c0,5.489-4.456,9.922-9.922,9.922H74.413C68.947,530.072,64.491,525.64,64.491,520.15z"/>
</g>
<g id="LWPOLYLINE_1883_">
	<polygon points="372.041,326.7 496.063,420.956 372.041,515.189 372.041,453.179 119.061,495.346 119.061,346.543 372.041,388.71 	
		"/>
</g>
</svg>
