<?xml version="1.0" encoding="UTF-8" standalone="no"?>
<!-- Generator: Adobe Illustrator 15.1.0, SVG Export Plug-In . SVG Version: 6.00 Build 0)  -->

<svg
   xmlns:dc="http://purl.org/dc/elements/1.1/"
   xmlns:cc="http://creativecommons.org/ns#"
   xmlns:rdf="http://www.w3.org/1999/02/22-rdf-syntax-ns#"
   xmlns:svg="http://www.w3.org/2000/svg"
   xmlns="http://www.w3.org/2000/svg"
   xmlns:sodipodi="http://sodipodi.sourceforge.net/DTD/sodipodi-0.dtd"
   xmlns:inkscape="http://www.inkscape.org/namespaces/inkscape"
   version="1.1"
   id="Layer_1"
   x="0px"
   y="0px"
   width="496.064"
   height="433.71201"
   viewBox="0 0 496.06397 433.712"
   xml:space="preserve"
   sodipodi:docname="931.svg"
   inkscape:version="0.92.5 (2060ec1f9f, 2020-04-08)"><metadata
   id="metadata5134"><rdf:RDF><cc:Work
       rdf:about=""><dc:format>image/svg+xml</dc:format><dc:type
         rdf:resource="http://purl.org/dc/dcmitype/StillImage" /></cc:Work></rdf:RDF></metadata><defs
   id="defs5132" /><sodipodi:namedview
   pagecolor="#ffffff"
   bordercolor="#666666"
   borderopacity="1"
   objecttolerance="10"
   gridtolerance="10"
   guidetolerance="10"
   inkscape:pageopacity="0"
   inkscape:pageshadow="2"
   inkscape:window-width="640"
   inkscape:window-height="480"
   id="namedview5130"
   showgrid="false"
   inkscape:zoom="0.28032165"
   inkscape:cx="247.90001"
   inkscape:cy="217.40599"
   inkscape:window-x="0"
   inkscape:window-y="0"
   inkscape:window-maximized="0"
   inkscape:current-layer="Layer_1" />
<polygon
   points="545.804,291.563 437.606,291.563 437.606,204.639 545.804,204.639 "
   id="polygon5109"
   transform="translate(-49.74,-204.639)" />
<polygon
   points="437.606,464.809 437.606,378.181 545.804,378.181 545.804,464.809 "
   id="polygon5111"
   transform="translate(-49.74,-204.639)" />
<polygon
   points="437.606,551.731 545.804,551.731 545.804,638.351 437.606,638.351 "
   id="polygon5113"
   transform="translate(-49.74,-204.639)" />
<polygon
   style="fill:#ffd200"
   points="437.606,464.809 545.804,464.809 545.804,551.731 437.606,551.731 "
   id="polygon5115"
   transform="translate(-49.74,-204.639)" />
<polygon
   style="fill:#ffd200"
   points="545.804,378.181 437.606,378.181 437.606,291.563 545.804,291.563 "
   id="polygon5117"
   transform="translate(-49.74,-204.639)" />
<polygon
   points="49.74,529.849 49.74,638.351 158.238,638.351 "
   id="polygon5119"
   transform="translate(-49.74,-204.639)" />
<polygon
   points="49.74,421.643 158.238,529.849 158.238,421.643 49.74,313.141 "
   id="polygon5121"
   transform="translate(-49.74,-204.639)" />
<polygon
   points="158.238,313.141 49.74,204.639 158.238,204.639 "
   id="polygon5123"
   transform="translate(-49.74,-204.639)" />
<polygon
   style="fill:#ffd200"
   points="158.238,313.141 49.74,204.639 49.74,313.141 158.238,421.643 "
   id="polygon5125"
   transform="translate(-49.74,-204.639)" />
<polygon
   style="fill:#ffd200"
   points="158.238,529.849 49.74,421.643 49.74,529.849 158.238,638.351 "
   id="polygon5127"
   transform="translate(-49.74,-204.639)" />
</svg>