<?xml version="1.0" encoding="iso-8859-1"?>
<!-- Generator: Adobe Illustrator 16.0.0, SVG Export Plug-In . SVG Version: 6.00 Build 0)  -->
<!DOCTYPE svg PUBLIC "-//W3C//DTD SVG 1.1//EN" "http://www.w3.org/Graphics/SVG/1.1/DTD/svg11.dtd">
<svg version="1.1" id="Layer_1" xmlns="http://www.w3.org/2000/svg" xmlns:xlink="http://www.w3.org/1999/xlink" x="0px" y="0px"
	 width="425.197px" height="425.196px" viewBox="0 0 425.197 425.196" style="enable-background:new 0 0 425.197 425.196;"
	 xml:space="preserve">
<g id="LWPOLYLINE_6_">
	<path style="fill:#FFCD00;" d="M198.428,46.749L16.368,362.086c-4.519,7.827-1.837,17.836,5.99,22.354
		c2.487,1.438,5.31,2.193,8.182,2.193h364.12c9.038,0,16.364-7.327,16.364-16.364c0-2.873-0.755-5.694-2.193-8.183L226.772,46.749
		c-4.519-7.827-14.528-10.509-22.355-5.99C201.929,42.194,199.863,44.261,198.428,46.749z"/>
</g>
<g id="LWPOLYLINE_7_">
	<path style="fill:#E4002B;" d="M202.476,49.086L20.417,364.423c-3.228,5.592-1.313,12.74,4.278,15.968
		c1.777,1.025,3.793,1.565,5.845,1.565h364.12c6.454,0,11.688-5.233,11.688-11.688c0-2.053-0.54-4.068-1.566-5.846L222.723,49.086
		c-3.228-5.591-10.377-7.507-15.968-4.278C204.978,45.834,203.502,47.31,202.476,49.086z"/>
</g>
<g id="LWPOLYLINE_8_">
	<polygon style="fill:#FFCD00;" points="212.599,92.336 62.935,351.565 362.264,351.565 	"/>
</g>
<g id="LWPOLYLINE_11_">
	<path style="fill:#101820;" d="M234.23,200.717l23.703,11.73l-11.734,23.707l-43.819,14.719
		c-16.599,6.409-27.46,22.466-27.231,40.258V335.2l-18.703-18.701L137.745,335.2v-43.866c-0.317-33.678,20.499-63.944,52.061-75.696
		L234.23,200.717z"/>
</g>
</svg>
