<?xml version="1.0" encoding="UTF-8" standalone="no"?>
<!-- Generator: Adobe Illustrator 16.0.0, SVG Export Plug-In . SVG Version: 6.00 Build 0)  -->

<svg
   xmlns:dc="http://purl.org/dc/elements/1.1/"
   xmlns:cc="http://creativecommons.org/ns#"
   xmlns:rdf="http://www.w3.org/1999/02/22-rdf-syntax-ns#"
   xmlns:svg="http://www.w3.org/2000/svg"
   xmlns="http://www.w3.org/2000/svg"
   xmlns:sodipodi="http://sodipodi.sourceforge.net/DTD/sodipodi-0.dtd"
   xmlns:inkscape="http://www.inkscape.org/namespaces/inkscape"
   version="1.1"
   id="Layer_1"
   x="0px"
   y="0px"
   width="396.8519"
   height="348.06564"
   viewBox="0 0 396.85191 348.06563"
   xml:space="preserve"
   sodipodi:docname="A10.svg"
   inkscape:version="0.92.5 (2060ec1f9f, 2020-04-08)"><metadata
   id="metadata53"><rdf:RDF><cc:Work
       rdf:about=""><dc:format>image/svg+xml</dc:format><dc:type
         rdf:resource="http://purl.org/dc/dcmitype/StillImage" /></cc:Work></rdf:RDF></metadata><defs
   id="defs51" /><sodipodi:namedview
   pagecolor="#ffffff"
   bordercolor="#666666"
   borderopacity="1"
   objecttolerance="10"
   gridtolerance="10"
   guidetolerance="10"
   inkscape:pageopacity="0"
   inkscape:pageshadow="2"
   inkscape:window-width="640"
   inkscape:window-height="480"
   id="namedview49"
   showgrid="false"
   inkscape:zoom="0.55503813"
   inkscape:cx="198.42638"
   inkscape:cy="174.03299"
   inkscape:window-x="0"
   inkscape:window-y="0"
   inkscape:window-maximized="0"
   inkscape:current-layer="Layer_1" />
<g
   id="LWPOLYLINE_6_"
   transform="translate(-14.172113,-38.565352)">
	<path
   style="fill:#ffcd00"
   d="M 198.428,46.749 16.367,362.088 c -4.519,7.824 -1.836,17.834 5.991,22.354 2.489,1.435 5.308,2.189 8.181,2.189 h 364.117 c 9.038,0 16.368,-7.324 16.368,-16.361 0,-2.874 -0.761,-5.696 -2.196,-8.182 L 226.773,46.749 c -4.522,-7.827 -14.526,-10.507 -22.354,-5.988 -2.489,1.435 -4.556,3.503 -5.991,5.988 z"
   id="path36"
   inkscape:connector-curvature="0" />
</g>
<g
   id="LWPOLYLINE_7_"
   transform="translate(-14.172113,-38.565352)">
	<path
   style="fill:#e4002b"
   d="M 202.475,49.088 20.417,364.424 c -3.227,5.59 -1.313,12.741 4.277,15.968 1.778,1.023 3.795,1.567 5.845,1.567 h 364.117 c 6.46,0 11.69,-5.236 11.69,-11.689 0,-2.055 -0.538,-4.067 -1.564,-5.846 L 222.72,49.088 c -3.224,-5.59 -10.372,-7.508 -15.968,-4.277 -1.775,1.027 -3.251,2.502 -4.277,4.277 z"
   id="path39"
   inkscape:connector-curvature="0" />
</g>
<g
   id="LWPOLYLINE_8_"
   transform="translate(-14.172113,-38.565352)">
	<polygon
   style="fill:#ffcd00"
   points="362.266,351.567 212.601,92.339 62.934,351.567 "
   id="polygon42" />
</g>
<g
   id="LWPOLYLINE_10_"
   transform="translate(-14.172113,-38.565352)">
	<path
   style="fill:#101820"
   d="m 324.857,318.837 v 25.716 H 100.34 v -25.716 h 21.707 c 2.193,0 4.315,-0.771 5.998,-2.176 23.71,-19.823 53.652,-30.64 84.556,-30.555 30.902,-0.085 60.844,10.731 84.55,30.555 1.687,1.404 3.809,2.176 5.998,2.176 z"
   id="path45"
   inkscape:connector-curvature="0" />
</g>
</svg>