<?xml version="1.0" encoding="UTF-8" standalone="no"?>
<!-- Generator: Adobe Illustrator 16.0.0, SVG Export Plug-In . SVG Version: 6.00 Build 0)  -->

<svg
   xmlns:dc="http://purl.org/dc/elements/1.1/"
   xmlns:cc="http://creativecommons.org/ns#"
   xmlns:rdf="http://www.w3.org/1999/02/22-rdf-syntax-ns#"
   xmlns:svg="http://www.w3.org/2000/svg"
   xmlns="http://www.w3.org/2000/svg"
   xmlns:sodipodi="http://sodipodi.sourceforge.net/DTD/sodipodi-0.dtd"
   xmlns:inkscape="http://www.inkscape.org/namespaces/inkscape"
   version="1.1"
   id="Layer_1"
   x="0px"
   y="0px"
   width="396.8519"
   height="348.06534"
   viewBox="0 0 396.85191 348.06533"
   xml:space="preserve"
   sodipodi:docname="A12.svg"
   inkscape:version="0.92.5 (2060ec1f9f, 2020-04-08)"><metadata
   id="metadata118"><rdf:RDF><cc:Work
       rdf:about=""><dc:format>image/svg+xml</dc:format><dc:type
         rdf:resource="http://purl.org/dc/dcmitype/StillImage" /></cc:Work></rdf:RDF></metadata><defs
   id="defs116" /><sodipodi:namedview
   pagecolor="#ffffff"
   bordercolor="#666666"
   borderopacity="1"
   objecttolerance="10"
   gridtolerance="10"
   guidetolerance="10"
   inkscape:pageopacity="0"
   inkscape:pageshadow="2"
   inkscape:window-width="640"
   inkscape:window-height="480"
   id="namedview114"
   showgrid="false"
   inkscape:zoom="0.55503813"
   inkscape:cx="198.42638"
   inkscape:cy="174.03299"
   inkscape:window-x="0"
   inkscape:window-y="0"
   inkscape:window-maximized="0"
   inkscape:current-layer="Layer_1" />
<g
   id="LWPOLYLINE_6_"
   transform="translate(-14.172113,-38.565653)">
	<path
   style="fill:#ffcd00"
   d="M 198.426,46.749 16.367,362.088 c -4.519,7.824 -1.836,17.834 5.991,22.354 2.489,1.435 5.308,2.189 8.181,2.189 h 364.117 c 9.038,0 16.368,-7.324 16.368,-16.362 0,-2.873 -0.761,-5.695 -2.196,-8.181 L 226.771,46.749 c -4.519,-7.827 -14.526,-10.507 -22.354,-5.987 -2.488,1.434 -4.552,3.502 -5.991,5.987 z"
   id="path83"
   inkscape:connector-curvature="0" />
</g>
<g
   id="LWPOLYLINE_7_"
   transform="translate(-14.172113,-38.565653)">
	<path
   style="fill:#e4002b"
   d="M 202.476,49.089 20.417,364.424 c -3.227,5.59 -1.313,12.741 4.277,15.968 1.778,1.023 3.795,1.567 5.845,1.567 h 364.117 c 6.46,0 11.69,-5.236 11.69,-11.69 0,-2.054 -0.538,-4.066 -1.564,-5.845 L 222.721,49.089 c -3.227,-5.59 -10.374,-7.508 -15.968,-4.277 -1.774,1.026 -3.25,2.501 -4.277,4.277 z"
   id="path86"
   inkscape:connector-curvature="0" />
</g>
<g
   id="LWPOLYLINE_8_"
   transform="translate(-14.172113,-38.565653)">
	<polygon
   style="fill:#ffcd00"
   points="362.266,351.567 212.599,92.34 62.934,351.567 "
   id="polygon89" />
</g>
<g
   id="LWPOLYLINE_15_"
   transform="translate(-14.172113,-38.565653)">
	<polygon
   style="fill:#101820"
   points="185.682,335.525 282.149,331.269 281.184,316.742 197.083,330.758 255.926,305.019 246.481,289.847 190.983,329.459 248.705,255.993 235.281,245.933 184.013,333.203 "
   id="polygon92" />
</g>
<g
   id="LWPOLYLINE_16_"
   transform="translate(-14.172113,-38.565653)">
	<polygon
   style="fill:#101820"
   points="258.919,281.522 256.607,291.132 264.455,299.422 272.628,296.26 289.97,299.486 288.936,283.264 276.708,267.493 258.124,269.547 "
   id="polygon95" />
</g>
<g
   id="LWPOLYLINE_17_"
   transform="translate(-14.172113,-38.565653)">
	<polygon
   style="fill:#101820"
   points="297.736,320.095 297.423,325.967 309.44,330.567 311.554,332.139 316.804,330.826 320.722,315.345 317.049,313.906 311.772,307.15 299.287,310.544 "
   id="polygon98" />
</g>
<g
   id="LWPOLYLINE_19_"
   transform="translate(-14.172113,-38.565653)">
	<path
   style="fill:#101820"
   d="m 152.734,331.951 c 0,3.085 2.499,5.587 5.586,5.587 h 15.645 c 3.084,0 5.587,-2.502 5.587,-5.587 v -25.75 h -26.818 z"
   id="path101"
   inkscape:connector-curvature="0" />
</g>
<g
   id="LWPOLYLINE_20_"
   transform="translate(-14.172113,-38.565653)">
	<path
   style="fill:#101820"
   d="m 128.239,243.131 -8.848,15.324 h 17.052 c 0.415,0 0.751,0.337 0.751,0.755 v 5.648 h -21.5 l -3.4,5.886 h 24.9 v 5.651 c 0,0.414 -0.336,0.755 -0.751,0.755 H 108.598 L 94.13,302.203 h 2.615 80.072 c 3.689,0 7.331,-0.83 10.653,-2.428 1.915,-0.925 3.135,-2.859 3.142,-4.985 v -31.918 c 0,-2.985 -0.796,-5.92 -2.309,-8.49 l -8.565,-14.573 c -0.588,-1.007 -1.115,-2.047 -1.578,-3.118 L 162.481,200.23 c -1.16,-2.692 -3.332,-4.828 -6.049,-5.934 l -6.138,10.633 c 1.513,0.503 2.744,1.629 3.373,3.095 l 15.097,35.107 z"
   id="path104"
   inkscape:connector-curvature="0" />
</g>
<g
   id="LWPOLYLINE_18_"
   transform="translate(-14.172113,-38.565653)">
	<polygon
   style="fill:#101820"
   points="239.701,238.669 253.376,248.499 265.815,248.482 268.331,238.482 267.712,229.635 252.867,224.194 250.534,216.357 240.972,222.933 "
   id="polygon107" />
</g>
<g
   id="CIRCLE_1_"
   transform="translate(-14.172113,-38.565653)">
	<path
   style="fill:#ffcd00"
   d="m 179.055,267.799 c 0,-7.215 -5.848,-13.063 -13.064,-13.063 -7.215,0 -13.067,5.849 -13.067,13.063 0,7.216 5.852,13.067 13.067,13.067 7.216,0 13.064,-5.851 13.064,-13.067 z"
   id="path110"
   inkscape:connector-curvature="0" />
</g>
</svg>