<?xml version="1.0" encoding="iso-8859-1"?>
<!-- Generator: Adobe Illustrator 16.0.0, SVG Export Plug-In . SVG Version: 6.00 Build 0)  -->
<!DOCTYPE svg PUBLIC "-//W3C//DTD SVG 1.1//EN" "http://www.w3.org/Graphics/SVG/1.1/DTD/svg11.dtd">
<svg version="1.1" id="Layer_1" xmlns="http://www.w3.org/2000/svg" xmlns:xlink="http://www.w3.org/1999/xlink" x="0px" y="0px"
	 width="425.197px" height="425.196px" viewBox="0 0 425.197 425.196" style="enable-background:new 0 0 425.197 425.196;"
	 xml:space="preserve">
<g id="LWPOLYLINE_6_">
	<path style="fill:#FFCD00;" d="M198.426,46.749L16.367,362.088c-4.519,7.824-1.836,17.834,5.991,22.354
		c2.489,1.435,5.308,2.189,8.181,2.189h364.117c9.038,0,16.368-7.324,16.368-16.362c0-2.873-0.761-5.695-2.196-8.181L226.771,46.749
		c-4.519-7.827-14.526-10.507-22.354-5.987C201.929,42.196,199.865,44.264,198.426,46.749z"/>
</g>
<g id="LWPOLYLINE_7_">
	<path style="fill:#E4002B;" d="M202.476,49.089L20.417,364.424c-3.227,5.59-1.313,12.741,4.277,15.968
		c1.778,1.023,3.795,1.567,5.845,1.567h364.117c6.46,0,11.69-5.236,11.69-11.69c0-2.054-0.538-4.066-1.564-5.845L222.721,49.089
		c-3.227-5.59-10.374-7.508-15.968-4.277C204.979,45.838,203.503,47.313,202.476,49.089z"/>
</g>
<g id="LWPOLYLINE_8_">
	<polygon style="fill:#FFCD00;" points="212.599,92.34 62.934,351.567 362.266,351.567 	"/>
</g>
<g id="LWPOLYLINE_15_">
	<polygon style="fill:#101820;" points="235.281,245.933 184.013,333.203 185.682,335.525 282.149,331.269 281.184,316.742 
		197.083,330.758 255.926,305.019 246.481,289.847 190.983,329.459 248.705,255.993 	"/>
</g>
<g id="LWPOLYLINE_16_">
	<polygon style="fill:#101820;" points="276.708,267.493 258.124,269.547 258.919,281.522 256.607,291.132 264.455,299.422 
		272.628,296.26 289.97,299.486 288.936,283.264 	"/>
</g>
<g id="LWPOLYLINE_17_">
	<polygon style="fill:#101820;" points="311.772,307.15 299.287,310.544 297.736,320.095 297.423,325.967 309.44,330.567 
		311.554,332.139 316.804,330.826 320.722,315.345 317.049,313.906 	"/>
</g>
<g id="LWPOLYLINE_19_">
	<path style="fill:#101820;" d="M152.734,331.951c0,3.085,2.499,5.587,5.586,5.587h15.645c3.084,0,5.587-2.502,5.587-5.587v-25.75
		h-26.818V331.951z"/>
</g>
<g id="LWPOLYLINE_20_">
	<path style="fill:#101820;" d="M128.239,243.131l-8.848,15.324h17.052c0.415,0,0.751,0.337,0.751,0.755v5.648h-21.5l-3.4,5.886
		h24.9v5.651c0,0.414-0.336,0.755-0.751,0.755h-27.845l-14.468,25.053h2.615h80.072c3.689,0,7.331-0.83,10.653-2.428
		c1.915-0.925,3.135-2.859,3.142-4.985v-31.918c0-2.985-0.796-5.92-2.309-8.49l-8.565-14.573c-0.588-1.007-1.115-2.047-1.578-3.118
		l-15.679-36.461c-1.16-2.692-3.332-4.828-6.049-5.934l-6.138,10.633c1.513,0.503,2.744,1.629,3.373,3.095l15.097,35.107H128.239z"
		/>
</g>
<g id="LWPOLYLINE_18_">
	<polygon style="fill:#101820;" points="250.534,216.357 240.972,222.933 239.701,238.669 253.376,248.499 265.815,248.482 
		268.331,238.482 267.712,229.635 252.867,224.194 	"/>
</g>
<g id="CIRCLE_1_">
	<path style="fill:#FFCD00;" d="M179.055,267.799c0-7.215-5.848-13.063-13.064-13.063c-7.215,0-13.067,5.849-13.067,13.063
		c0,7.216,5.852,13.067,13.067,13.067C173.207,280.866,179.055,275.015,179.055,267.799L179.055,267.799z"/>
</g>
</svg>
