<?xml version="1.0" encoding="UTF-8" standalone="no"?>
<!-- Generator: Adobe Illustrator 16.0.0, SVG Export Plug-In . SVG Version: 6.00 Build 0)  -->

<svg
   xmlns:dc="http://purl.org/dc/elements/1.1/"
   xmlns:cc="http://creativecommons.org/ns#"
   xmlns:rdf="http://www.w3.org/1999/02/22-rdf-syntax-ns#"
   xmlns:svg="http://www.w3.org/2000/svg"
   xmlns="http://www.w3.org/2000/svg"
   xmlns:sodipodi="http://sodipodi.sourceforge.net/DTD/sodipodi-0.dtd"
   xmlns:inkscape="http://www.inkscape.org/namespaces/inkscape"
   version="1.1"
   id="Layer_1"
   x="0px"
   y="0px"
   width="396.8519"
   height="348.06564"
   viewBox="0 0 396.85191 348.06563"
   xml:space="preserve"
   sodipodi:docname="A17.svg"
   inkscape:version="0.92.5 (2060ec1f9f, 2020-04-08)"><metadata
   id="metadata300"><rdf:RDF><cc:Work
       rdf:about=""><dc:format>image/svg+xml</dc:format><dc:type
         rdf:resource="http://purl.org/dc/dcmitype/StillImage" /></cc:Work></rdf:RDF></metadata><defs
   id="defs298" /><sodipodi:namedview
   pagecolor="#ffffff"
   bordercolor="#666666"
   borderopacity="1"
   objecttolerance="10"
   gridtolerance="10"
   guidetolerance="10"
   inkscape:pageopacity="0"
   inkscape:pageshadow="2"
   inkscape:window-width="640"
   inkscape:window-height="480"
   id="namedview296"
   showgrid="false"
   inkscape:zoom="0.55503813"
   inkscape:cx="198.42638"
   inkscape:cy="174.03299"
   inkscape:window-x="0"
   inkscape:window-y="0"
   inkscape:window-maximized="0"
   inkscape:current-layer="Layer_1" />
<g
   id="LWPOLYLINE_6_"
   transform="translate(-14.172113,-38.565352)">
	<path
   style="fill:#ffcd00"
   d="M 198.428,46.749 16.367,362.088 c -4.519,7.824 -1.836,17.834 5.991,22.354 2.489,1.435 5.308,2.189 8.181,2.189 h 364.117 c 9.038,0 16.368,-7.324 16.368,-16.361 0,-2.874 -0.761,-5.696 -2.196,-8.182 L 226.773,46.749 c -4.522,-7.827 -14.526,-10.507 -22.354,-5.988 -2.489,1.435 -4.556,3.503 -5.991,5.988 z"
   id="path277"
   inkscape:connector-curvature="0" />
</g>
<g
   id="LWPOLYLINE_7_"
   transform="translate(-14.172113,-38.565352)">
	<path
   style="fill:#e4002b"
   d="M 202.475,49.088 20.417,364.424 c -3.227,5.59 -1.313,12.741 4.277,15.968 1.778,1.023 3.795,1.567 5.845,1.567 h 364.117 c 6.46,0 11.69,-5.236 11.69,-11.689 0,-2.055 -0.538,-4.067 -1.564,-5.846 L 222.72,49.088 c -3.224,-5.59 -10.372,-7.508 -15.968,-4.277 -1.775,1.027 -3.251,2.502 -4.277,4.277 z"
   id="path280"
   inkscape:connector-curvature="0" />
</g>
<g
   id="LWPOLYLINE_8_"
   transform="translate(-14.172113,-38.565352)">
	<polygon
   style="fill:#ffcd00"
   points="362.266,351.567 212.601,92.339 62.934,351.567 "
   id="polygon283" />
</g>
<g
   id="CIRCLE_2_"
   transform="translate(-14.172113,-38.565352)">
	<path
   style="fill:#101820"
   d="m 259.803,214.096 c 0,-9.891 -8.024,-17.913 -17.92,-17.913 -9.888,0 -17.912,8.022 -17.912,17.913 0,9.895 8.024,17.916 17.912,17.916 9.896,0 17.92,-8.022 17.92,-17.916 z"
   id="path286"
   inkscape:connector-curvature="0" />
</g>
<g
   id="CIRCLE_3_"
   transform="translate(-14.172113,-38.565352)">
	<path
   style="fill:#101820"
   d="m 181.973,230.859 c 0,-9.419 -7.637,-17.06 -17.059,-17.06 -9.422,0 -17.063,7.641 -17.063,17.06 0,9.425 7.641,17.063 17.063,17.063 9.422,0 17.059,-7.638 17.059,-17.063 z"
   id="path289"
   inkscape:connector-curvature="0" />
</g>
<g
   id="LWPOLYLINE_10_"
   transform="translate(-14.172113,-38.565352)">
	<path
   style="fill:#101820"
   d="m 201.495,265.338 10.562,6.589 c 2.169,1.517 5.08,1.388 7.114,-0.306 l 3.42,-2.856 17.342,-14.478 8.487,22.363 -7.767,28.157 -3.509,29.001 c -0.497,4.076 2.407,7.776 6.48,8.272 4.073,0.493 7.78,-2.411 8.276,-6.484 l 2.557,-21.119 6.59,-22.788 0.687,-0.051 7.324,16.335 c 0.898,2.213 3.047,3.662 5.434,3.662 h 30.704 c 3.979,0 7.209,-3.224 7.209,-7.206 0,-3.981 -3.23,-7.208 -7.209,-7.208 h -24.148 l -17.823,-49.123 10.819,1.758 11.248,15.641 c 2.033,2.826 5.971,3.469 8.793,1.438 2.822,-2.033 3.468,-5.968 1.435,-8.793 l -14.295,-19.885 -24.373,-4.08 c -6.807,-1.143 -13.777,0.789 -19.027,5.271 l -19.81,16.893 -3.74,3.125 c -0.075,0.118 -0.156,0.228 -0.259,0.329 -0.66,0.66 -1.735,0.66 -2.394,-0.007 l -15.145,-9.493 -19.25,-0.936 c -7.705,-0.377 -14.625,4.679 -16.61,12.129 l -4.077,15.302 -10.51,16.905 c -1.258,2.333 -0.388,5.243 1.945,6.502 2.003,1.077 4.485,0.604 5.95,-1.136 l 10.449,-15.607 3.02,-7.263 4.118,14.736 -3.666,20.97 -0.524,21.278 c -0.082,3.377 2.588,6.186 5.968,6.267 3.38,0.082 6.185,-2.588 6.267,-5.964 0.003,-0.112 0.003,-0.225 0,-0.333 l 0.979,-19.667 3.169,-15.764 7.79,15.314 c 0.891,2.224 3.045,3.686 5.446,3.686 h 22.19 c 3.155,0 5.712,-2.557 5.712,-5.709 0,-3.151 -2.557,-5.709 -5.712,-5.709 -0.027,0 -0.055,0 -0.082,0 l -0.414,0.004 -17.349,0.129 -15.112,-44.192 8.931,0.129 z"
   id="path292"
   inkscape:connector-curvature="0" />
</g>
</svg>