<?xml version="1.0" encoding="iso-8859-1"?>
<!-- Generator: Adobe Illustrator 16.0.0, SVG Export Plug-In . SVG Version: 6.00 Build 0)  -->
<!DOCTYPE svg PUBLIC "-//W3C//DTD SVG 1.1//EN" "http://www.w3.org/Graphics/SVG/1.1/DTD/svg11.dtd">
<svg version="1.1" id="Layer_1" xmlns="http://www.w3.org/2000/svg" xmlns:xlink="http://www.w3.org/1999/xlink" x="0px" y="0px"
	 width="425.197px" height="425.196px" viewBox="0 0 425.197 425.196" style="enable-background:new 0 0 425.197 425.196;"
	 xml:space="preserve">
<g id="LWPOLYLINE_6_">
	<path style="fill:#FFCD00;" d="M198.428,46.749L16.367,362.088c-4.519,7.824-1.836,17.834,5.991,22.354
		c2.489,1.435,5.308,2.189,8.181,2.189h364.117c9.038,0,16.368-7.324,16.368-16.361c0-2.874-0.761-5.696-2.196-8.182L226.773,46.749
		c-4.522-7.827-14.526-10.507-22.354-5.988C201.93,42.196,199.863,44.264,198.428,46.749z"/>
</g>
<g id="LWPOLYLINE_7_">
	<path style="fill:#E4002B;" d="M202.475,49.088L20.417,364.424c-3.227,5.59-1.313,12.741,4.277,15.968
		c1.778,1.023,3.795,1.567,5.845,1.567h364.117c6.46,0,11.69-5.236,11.69-11.689c0-2.055-0.538-4.067-1.564-5.846L222.72,49.088
		c-3.224-5.59-10.372-7.508-15.968-4.277C204.977,45.838,203.501,47.313,202.475,49.088z"/>
</g>
<g id="LWPOLYLINE_8_">
	<polygon style="fill:#FFCD00;" points="212.601,92.339 62.934,351.567 362.266,351.567 	"/>
</g>
<g id="CIRCLE_2_">
	<path style="fill:#101820;" d="M259.803,214.096c0-9.891-8.024-17.913-17.92-17.913c-9.888,0-17.912,8.022-17.912,17.913
		c0,9.895,8.024,17.916,17.912,17.916C251.779,232.012,259.803,223.99,259.803,214.096L259.803,214.096z"/>
</g>
<g id="CIRCLE_3_">
	<path style="fill:#101820;" d="M181.973,230.859c0-9.419-7.637-17.06-17.059-17.06c-9.422,0-17.063,7.641-17.063,17.06
		c0,9.425,7.641,17.063,17.063,17.063C174.336,247.922,181.973,240.284,181.973,230.859L181.973,230.859z"/>
</g>
<g id="LWPOLYLINE_10_">
	<path style="fill:#101820;" d="M201.495,265.338l10.562,6.589c2.169,1.517,5.08,1.388,7.114-0.306l3.42-2.856l17.342-14.478
		l8.487,22.363l-7.767,28.157l-3.509,29.001c-0.497,4.076,2.407,7.776,6.48,8.272c4.073,0.493,7.78-2.411,8.276-6.484l2.557-21.119
		l6.59-22.788l0.687-0.051l7.324,16.335c0.898,2.213,3.047,3.662,5.434,3.662h30.704c3.979,0,7.209-3.224,7.209-7.206
		c0-3.981-3.23-7.208-7.209-7.208h-24.148l-17.823-49.123l10.819,1.758l11.248,15.641c2.033,2.826,5.971,3.469,8.793,1.438
		c2.822-2.033,3.468-5.968,1.435-8.793l-14.295-19.885l-24.373-4.08c-6.807-1.143-13.777,0.789-19.027,5.271l-19.81,16.893
		l-3.74,3.125c-0.075,0.118-0.156,0.228-0.259,0.329c-0.66,0.66-1.735,0.66-2.394-0.007l-15.145-9.493l-19.25-0.936
		c-7.705-0.377-14.625,4.679-16.61,12.129l-4.077,15.302l-10.51,16.905c-1.258,2.333-0.388,5.243,1.945,6.502
		c2.003,1.077,4.485,0.604,5.95-1.136l10.449-15.607l3.02-7.263l4.118,14.736l-3.666,20.97l-0.524,21.278
		c-0.082,3.377,2.588,6.186,5.968,6.267c3.38,0.082,6.185-2.588,6.267-5.964c0.003-0.112,0.003-0.225,0-0.333l0.979-19.667
		l3.169-15.764l7.79,15.314c0.891,2.224,3.045,3.686,5.446,3.686h22.19c3.155,0,5.712-2.557,5.712-5.709
		c0-3.151-2.557-5.709-5.712-5.709c-0.027,0-0.055,0-0.082,0l-0.414,0.004l-17.349,0.129l-15.112-44.192l8.931,0.129
		L201.495,265.338z"/>
</g>
</svg>
