<?xml version="1.0" encoding="UTF-8" standalone="no"?>
<!-- Generator: Adobe Illustrator 16.0.0, SVG Export Plug-In . SVG Version: 6.00 Build 0)  -->

<svg
   xmlns:dc="http://purl.org/dc/elements/1.1/"
   xmlns:cc="http://creativecommons.org/ns#"
   xmlns:rdf="http://www.w3.org/1999/02/22-rdf-syntax-ns#"
   xmlns:svg="http://www.w3.org/2000/svg"
   xmlns="http://www.w3.org/2000/svg"
   xmlns:sodipodi="http://sodipodi.sourceforge.net/DTD/sodipodi-0.dtd"
   xmlns:inkscape="http://www.inkscape.org/namespaces/inkscape"
   version="1.1"
   id="Layer_1"
   x="0px"
   y="0px"
   width="396.8519"
   height="348.06564"
   viewBox="0 0 396.85191 348.06563"
   xml:space="preserve"
   sodipodi:docname="A18.svg"
   inkscape:version="0.92.5 (2060ec1f9f, 2020-04-08)"><metadata
   id="metadata334"><rdf:RDF><cc:Work
       rdf:about=""><dc:format>image/svg+xml</dc:format><dc:type
         rdf:resource="http://purl.org/dc/dcmitype/StillImage" /></cc:Work></rdf:RDF></metadata><defs
   id="defs332" /><sodipodi:namedview
   pagecolor="#ffffff"
   bordercolor="#666666"
   borderopacity="1"
   objecttolerance="10"
   gridtolerance="10"
   guidetolerance="10"
   inkscape:pageopacity="0"
   inkscape:pageshadow="2"
   inkscape:window-width="640"
   inkscape:window-height="480"
   id="namedview330"
   showgrid="false"
   inkscape:zoom="0.55503813"
   inkscape:cx="198.42638"
   inkscape:cy="174.03299"
   inkscape:window-x="0"
   inkscape:window-y="0"
   inkscape:window-maximized="0"
   inkscape:current-layer="Layer_1" />
<g
   id="LWPOLYLINE_6_"
   transform="translate(-14.172113,-38.565352)">
	<path
   style="fill:#ffcd00"
   d="M 198.428,46.749 16.367,362.088 c -4.519,7.824 -1.836,17.834 5.991,22.354 2.489,1.435 5.308,2.189 8.181,2.189 h 364.116 c 9.039,0 16.369,-7.324 16.369,-16.361 0,-2.874 -0.762,-5.696 -2.197,-8.182 L 226.773,46.749 c -4.523,-7.827 -14.526,-10.507 -22.354,-5.988 -2.489,1.435 -4.556,3.503 -5.991,5.988 z"
   id="path302"
   inkscape:connector-curvature="0" />
</g>
<g
   id="LWPOLYLINE_7_"
   transform="translate(-14.172113,-38.565352)">
	<path
   style="fill:#e4002b"
   d="M 202.475,49.088 20.417,364.424 c -3.227,5.59 -1.313,12.741 4.277,15.968 1.778,1.023 3.795,1.567 5.845,1.567 h 364.116 c 6.461,0 11.691,-5.236 11.691,-11.689 0,-2.055 -0.539,-4.067 -1.564,-5.846 L 222.72,49.088 c -3.225,-5.59 -10.372,-7.508 -15.968,-4.277 -1.775,1.027 -3.251,2.502 -4.277,4.277 z"
   id="path305"
   inkscape:connector-curvature="0" />
</g>
<g
   id="LWPOLYLINE_8_"
   transform="translate(-14.172113,-38.565352)">
	<polygon
   style="fill:#ffcd00"
   points="362.265,351.567 212.601,92.339 62.934,351.567 "
   id="polygon308" />
</g>
<g
   id="LWPOLYLINE_28_"
   transform="translate(-14.172113,-38.565352)">
	<path
   style="fill:#101820"
   d="m 244.181,253.953 9.215,13.152 c 3.537,-2.088 7.393,-3.591 11.412,-4.44 20.449,-4.339 40.537,8.725 44.877,29.174 4.33,20.449 -8.727,40.541 -29.176,44.877 -20.449,4.335 -40.543,-8.726 -44.875,-29.175 H 222.4 c -3.047,0 -5.957,-1.285 -8.012,-3.536 l -44.538,-47.491 -2.536,8.331 c 16.314,6.919 25.648,24.233 22.452,41.663 -3.764,20.564 -23.486,34.179 -44.047,30.412 -20.561,-3.768 -34.176,-23.489 -30.412,-44.051 3.768,-20.562 23.489,-34.176 44.05,-30.408 l 10.81,-35.465 c 1.622,-5.317 6.528,-8.956 12.088,-8.956 h 14.582 v 8.311 h -14.582 c -1.904,0 -3.587,1.244 -4.145,3.066 l -3.026,9.933 61.693,10.673 6.357,-17.191 -14.016,-3.849 c -0.844,-0.323 -1.381,-1.153 -1.332,-2.054 0.061,-1.146 1.047,-2.021 2.189,-1.959 h 1.094 30.303 v 8.194 h -9.506 z"
   id="path311"
   inkscape:connector-curvature="0" />
</g>
<g
   id="LWPOLYLINE_25_"
   transform="translate(-14.172113,-38.565352)">
	<polygon
   style="fill:#ffcd00"
   points="219.361,297.13 172.646,247.357 233.851,257.945 "
   id="polygon314" />
</g>
<g
   id="LWPOLYLINE_26_"
   transform="translate(-14.172113,-38.565352)">
	<path
   style="fill:#ffcd00"
   d="m 251.582,278.986 c -5.318,5.413 -8.352,12.662 -8.467,20.252 h 22.652 z"
   id="path317"
   inkscape:connector-curvature="0" />
</g>
<g
   id="LWPOLYLINE_27_"
   transform="translate(-14.172113,-38.565352)">
	<path
   style="fill:#ffcd00"
   d="m 234.81,299.238 c 0.123,-10.296 4.436,-20.096 11.941,-27.141 l -6.072,-8.671 -13.246,35.812 h 7.432 z"
   id="path320"
   inkscape:connector-curvature="0" />
</g>
<g
   id="LWPOLYLINE_29_"
   transform="translate(-14.172113,-38.565352)">
	<path
   style="fill:#ffcd00"
   d="m 275.75,299.017 c 0.639,0.912 0.979,1.996 0.979,3.108 0,2.988 -2.42,5.416 -5.412,5.416 h -27.141 c 4.338,15.729 20.605,24.965 36.334,20.63 15.73,-4.336 24.965,-20.603 20.627,-36.332 -4.332,-15.729 -20.6,-24.965 -36.328,-20.633 -2.313,0.64 -4.537,1.558 -6.631,2.73 z"
   id="path323"
   inkscape:connector-curvature="0" />
</g>
<g
   id="LWPOLYLINE_30_"
   transform="translate(-14.172113,-38.565352)">
	<path
   style="fill:#ffcd00"
   d="m 164.876,272.846 -8.307,27.249 c -0.051,0.245 -0.122,0.483 -0.218,0.714 -0.863,2.132 -3.294,3.162 -5.43,2.296 -2.136,-0.867 -3.163,-3.295 -2.299,-5.431 l 8.293,-27.202 c -16.137,-2.417 -31.177,8.705 -33.594,24.843 -2.417,16.134 8.701,31.173 24.839,33.594 16.138,2.414 31.177,-8.704 33.594,-24.842 1.949,-13.004 -4.933,-25.73 -16.878,-31.221 z"
   id="path326"
   inkscape:connector-curvature="0" />
</g>
</svg>