<?xml version="1.0" encoding="iso-8859-1"?>
<!-- Generator: Adobe Illustrator 16.0.0, SVG Export Plug-In . SVG Version: 6.00 Build 0)  -->
<!DOCTYPE svg PUBLIC "-//W3C//DTD SVG 1.1//EN" "http://www.w3.org/Graphics/SVG/1.1/DTD/svg11.dtd">
<svg version="1.1" id="Layer_1" xmlns="http://www.w3.org/2000/svg" xmlns:xlink="http://www.w3.org/1999/xlink" x="0px" y="0px"
	 width="425.197px" height="425.196px" viewBox="0 0 425.197 425.196" style="enable-background:new 0 0 425.197 425.196;"
	 xml:space="preserve">
<g id="LWPOLYLINE_6_">
	<path style="fill:#FFCD00;" d="M198.428,46.749L16.367,362.088c-4.519,7.824-1.836,17.834,5.991,22.354
		c2.489,1.435,5.308,2.189,8.181,2.189h364.116c9.039,0,16.369-7.324,16.369-16.361c0-2.874-0.762-5.696-2.197-8.182L226.773,46.749
		c-4.523-7.827-14.526-10.507-22.354-5.988C201.93,42.196,199.863,44.264,198.428,46.749z"/>
</g>
<g id="LWPOLYLINE_7_">
	<path style="fill:#E4002B;" d="M202.475,49.088L20.417,364.424c-3.227,5.59-1.313,12.741,4.277,15.968
		c1.778,1.023,3.795,1.567,5.845,1.567h364.116c6.461,0,11.691-5.236,11.691-11.689c0-2.055-0.539-4.067-1.564-5.846L222.72,49.088
		c-3.225-5.59-10.372-7.508-15.968-4.277C204.977,45.838,203.501,47.313,202.475,49.088z"/>
</g>
<g id="LWPOLYLINE_8_">
	<polygon style="fill:#FFCD00;" points="212.601,92.339 62.934,351.567 362.265,351.567 	"/>
</g>
<g id="LWPOLYLINE_28_">
	<path style="fill:#101820;" d="M244.181,253.953l9.215,13.152c3.537-2.088,7.393-3.591,11.412-4.44
		c20.449-4.339,40.537,8.725,44.877,29.174c4.33,20.449-8.727,40.541-29.176,44.877c-20.449,4.335-40.543-8.726-44.875-29.175H222.4
		c-3.047,0-5.957-1.285-8.012-3.536l-44.538-47.491l-2.536,8.331c16.314,6.919,25.648,24.233,22.452,41.663
		c-3.764,20.564-23.486,34.179-44.047,30.412c-20.561-3.768-34.176-23.489-30.412-44.051c3.768-20.562,23.489-34.176,44.05-30.408
		l10.81-35.465c1.622-5.317,6.528-8.956,12.088-8.956h14.582v8.311h-14.582c-1.904,0-3.587,1.244-4.145,3.066l-3.026,9.933
		l61.693,10.673l6.357-17.191l-14.016-3.849c-0.844-0.323-1.381-1.153-1.332-2.054c0.061-1.146,1.047-2.021,2.189-1.959h1.094
		h30.303v8.194h-9.506L244.181,253.953z"/>
</g>
<g id="LWPOLYLINE_25_">
	<polygon style="fill:#FFCD00;" points="172.646,247.357 233.851,257.945 219.361,297.13 	"/>
</g>
<g id="LWPOLYLINE_26_">
	<path style="fill:#FFCD00;" d="M251.582,278.986c-5.318,5.413-8.352,12.662-8.467,20.252h22.652L251.582,278.986z"/>
</g>
<g id="LWPOLYLINE_27_">
	<path style="fill:#FFCD00;" d="M234.81,299.238c0.123-10.296,4.436-20.096,11.941-27.141l-6.072-8.671l-13.246,35.812h7.432H234.81
		z"/>
</g>
<g id="LWPOLYLINE_29_">
	<path style="fill:#FFCD00;" d="M275.75,299.017c0.639,0.912,0.979,1.996,0.979,3.108c0,2.988-2.42,5.416-5.412,5.416h-27.141
		c4.338,15.729,20.605,24.965,36.334,20.63c15.73-4.336,24.965-20.603,20.627-36.332c-4.332-15.729-20.6-24.965-36.328-20.633
		c-2.313,0.64-4.537,1.558-6.631,2.73L275.75,299.017z"/>
</g>
<g id="LWPOLYLINE_30_">
	<path style="fill:#FFCD00;" d="M164.876,272.846l-8.307,27.249c-0.051,0.245-0.122,0.483-0.218,0.714
		c-0.863,2.132-3.294,3.162-5.43,2.296c-2.136-0.867-3.163-3.295-2.299-5.431l8.293-27.202
		c-16.137-2.417-31.177,8.705-33.594,24.843c-2.417,16.134,8.701,31.173,24.839,33.594c16.138,2.414,31.177-8.704,33.594-24.842
		C183.703,291.063,176.821,278.337,164.876,272.846z"/>
</g>
</svg>
