<?xml version="1.0" encoding="iso-8859-1"?>
<!-- Generator: Adobe Illustrator 16.0.0, SVG Export Plug-In . SVG Version: 6.00 Build 0)  -->
<!DOCTYPE svg PUBLIC "-//W3C//DTD SVG 1.1//EN" "http://www.w3.org/Graphics/SVG/1.1/DTD/svg11.dtd">
<svg version="1.1" id="Layer_1" xmlns="http://www.w3.org/2000/svg" xmlns:xlink="http://www.w3.org/1999/xlink" x="0px" y="0px"
	 width="425.197px" height="425.196px" viewBox="0 0 425.197 425.196" style="enable-background:new 0 0 425.197 425.196;"
	 xml:space="preserve">
<g id="LWPOLYLINE_6_">
	<path style="fill:#FFCD00;" d="M198.428,46.749L16.367,362.088c-4.519,7.824-1.836,17.834,5.991,22.354
		c2.489,1.435,5.308,2.189,8.181,2.189h364.117c9.038,0,16.368-7.324,16.368-16.361c0-2.874-0.761-5.696-2.196-8.182L226.773,46.749
		c-4.522-7.827-14.526-10.507-22.354-5.988C201.93,42.196,199.863,44.264,198.428,46.749z"/>
</g>
<g id="LWPOLYLINE_7_">
	<path style="fill:#E4002B;" d="M202.475,49.088L20.417,364.424c-3.227,5.59-1.313,12.741,4.277,15.968
		c1.778,1.023,3.795,1.567,5.845,1.567h364.117c6.46,0,11.69-5.236,11.69-11.689c0-2.055-0.538-4.067-1.564-5.846L222.72,49.088
		c-3.224-5.59-10.372-7.508-15.968-4.277C204.977,45.838,203.501,47.313,202.475,49.088z"/>
</g>
<g id="LWPOLYLINE_8_">
	<polygon style="fill:#FFCD00;" points="212.601,92.339 62.934,351.567 362.266,351.567 	"/>
</g>
<g id="CIRCLE_1_">
	<path style="fill:#101820;" d="M211.206,188.349c0-8.263-6.698-14.958-14.961-14.958c-8.257,0-14.953,6.695-14.953,14.958
		c0,8.256,6.695,14.955,14.953,14.955C204.508,203.304,211.206,196.605,211.206,188.349L211.206,188.349z"/>
</g>
<g id="LWPOLYLINE_14_">
	<path style="fill:#101820;" d="M211.805,274.008l13.309-8.63c2.55-3.947,3.026-8.885,1.285-13.247l-8.364-26.09l9.541,3.485
		l6.691,20.911c0.449,3.095,3.318,5.24,6.413,4.795c2.148-0.313,3.931-1.823,4.59-3.894l59.178,21.867l-0.748-4.373l-58.674-21.68
		l-8.134-25.302c-0.789-2.462-2.713-4.396-5.175-5.191l-26.489-9.79c-7.95-2.142-16.251,1.996-19.318,9.64l-0.707,1.911
		l13.225,41.034l-15.089,23.254c-1.826,2.819-2.802,6.107-2.805,9.467l-0.037,30.918c-0.119,4.325,3.288,7.927,7.613,8.045
		c4.325,0.119,7.931-3.288,8.047-7.612c0.007-0.146,0.007-0.289,0-0.433v-31.925L211.805,274.008z"/>
</g>
<g id="LWPOLYLINE_15_">
	<path style="fill:#101820;" d="M153.771,248.35c-2.88,1.523-3.982,5.094-2.458,7.978c1.007,1.9,2.969,3.107,5.118,3.142
		l17.358,72.541l3.724-0.959l-17.334-72.5l25.678-8.147l2.714-7.341l-5.811-18.024l-5.893,15.947L153.771,248.35z"/>
</g>
<g id="LWPOLYLINE_16_">
	<path style="fill:#101820;" d="M120.456,342.214h184.088v-7.478H119.701c-4.659,0-8.664-3.291-9.568-7.857
		c-0.231-1.177-1.377-1.941-2.554-1.711c-0.996,0.201-1.724,1.064-1.748,2.081c-0.187,8.079,6.212,14.777,14.288,14.961
		C120.231,342.214,120.343,342.214,120.456,342.214z"/>
</g>
<g id="LWPOLYLINE_17_">
	<path style="fill:#101820;" d="M229.099,267.235c-0.272,0.455-0.564,0.897-0.878,1.325l-13.573,8.8l-1.544,1.697l3.66,14.203
		l16.464,30.391l0.652,1.51c2.333,3.693,7.216,4.791,10.908,2.459c3.651-2.309,4.773-7.12,2.522-10.807l-14.661-27.069
		L229.099,267.235z"/>
</g>
</svg>
