<?xml version="1.0" encoding="iso-8859-1"?>
<!-- Generator: Adobe Illustrator 16.0.0, SVG Export Plug-In . SVG Version: 6.00 Build 0)  -->
<!DOCTYPE svg PUBLIC "-//W3C//DTD SVG 1.1//EN" "http://www.w3.org/Graphics/SVG/1.1/DTD/svg11.dtd">
<svg version="1.1" id="Layer_1" xmlns="http://www.w3.org/2000/svg" xmlns:xlink="http://www.w3.org/1999/xlink" x="0px" y="0px"
	 width="425.197px" height="425.196px" viewBox="0 0 425.197 425.196" style="enable-background:new 0 0 425.197 425.196;"
	 xml:space="preserve">
<g id="LWPOLYLINE_6_">
	<path style="fill:#FFCD00;" d="M198.428,46.749L16.367,362.088c-4.519,7.824-1.836,17.834,5.991,22.354
		c2.489,1.435,5.308,2.189,8.181,2.189h364.117c9.038,0,16.368-7.324,16.368-16.362c0-2.873-0.761-5.695-2.196-8.181L226.773,46.749
		c-4.522-7.827-14.526-10.507-22.354-5.987C201.931,42.196,199.863,44.264,198.428,46.749z"/>
</g>
<g id="LWPOLYLINE_7_">
	<path style="fill:#E4002B;" d="M202.475,49.089L20.417,364.424c-3.227,5.59-1.313,12.741,4.277,15.968
		c1.778,1.023,3.795,1.567,5.845,1.567h364.117c6.46,0,11.689-5.236,11.689-11.69c0-2.054-0.537-4.066-1.563-5.845L222.72,49.089
		c-3.224-5.59-10.372-7.508-15.968-4.277C204.977,45.838,203.501,47.313,202.475,49.089z"/>
</g>
<g id="LWPOLYLINE_8_">
	<polygon style="fill:#FFCD00;" points="212.601,92.34 62.934,351.567 362.266,351.567 	"/>
</g>
<g id="LWPOLYLINE_31_">
	<path style="fill:#101820;" d="M217.232,196.102l18.701-18.701l18.701,18.701v86.067c0,3.557-0.897,7.052-2.618,10.166
		c-5.61,10.174-18.408,13.87-28.582,8.256l-41.273-22.768v64.391l-18.701-18.702l-18.703,18.702l0.003-91.685
		c-0.075-3.699,0.83-7.352,2.615-10.588c5.614-10.178,18.411-13.873,28.584-8.26l41.272,22.769V196.102z"/>
</g>
</svg>
