<?xml version="1.0" encoding="UTF-8" standalone="no"?>
<!-- Generator: Adobe Illustrator 16.0.0, SVG Export Plug-In . SVG Version: 6.00 Build 0)  -->

<svg
   xmlns:dc="http://purl.org/dc/elements/1.1/"
   xmlns:cc="http://creativecommons.org/ns#"
   xmlns:rdf="http://www.w3.org/1999/02/22-rdf-syntax-ns#"
   xmlns:svg="http://www.w3.org/2000/svg"
   xmlns="http://www.w3.org/2000/svg"
   xmlns:sodipodi="http://sodipodi.sourceforge.net/DTD/sodipodi-0.dtd"
   xmlns:inkscape="http://www.inkscape.org/namespaces/inkscape"
   version="1.1"
   id="Layer_1"
   x="0px"
   y="0px"
   width="396.8519"
   height="348.06564"
   viewBox="0 0 396.85191 348.06563"
   xml:space="preserve"
   sodipodi:docname="A20.3.svg"
   inkscape:version="0.92.5 (2060ec1f9f, 2020-04-08)"><metadata
   id="metadata460"><rdf:RDF><cc:Work
       rdf:about=""><dc:format>image/svg+xml</dc:format><dc:type
         rdf:resource="http://purl.org/dc/dcmitype/StillImage" /></cc:Work></rdf:RDF></metadata><defs
   id="defs458" /><sodipodi:namedview
   pagecolor="#ffffff"
   bordercolor="#666666"
   borderopacity="1"
   objecttolerance="10"
   gridtolerance="10"
   guidetolerance="10"
   inkscape:pageopacity="0"
   inkscape:pageshadow="2"
   inkscape:window-width="640"
   inkscape:window-height="480"
   id="namedview456"
   showgrid="false"
   inkscape:zoom="0.55503813"
   inkscape:cx="198.42638"
   inkscape:cy="174.03299"
   inkscape:window-x="0"
   inkscape:window-y="0"
   inkscape:window-maximized="0"
   inkscape:current-layer="Layer_1" />
<g
   id="LWPOLYLINE_6_"
   transform="translate(-14.172113,-38.565352)">
	<path
   style="fill:#ffcd00"
   d="M 198.428,46.749 16.367,362.088 c -4.519,7.824 -1.836,17.834 5.991,22.354 2.489,1.435 5.308,2.189 8.181,2.189 h 364.117 c 9.038,0 16.368,-7.324 16.368,-16.361 0,-2.874 -0.761,-5.696 -2.196,-8.182 L 226.773,46.749 c -4.522,-7.827 -14.526,-10.507 -22.354,-5.988 -2.489,1.435 -4.556,3.503 -5.991,5.988 z"
   id="path443"
   inkscape:connector-curvature="0" />
</g>
<g
   id="LWPOLYLINE_7_"
   transform="translate(-14.172113,-38.565352)">
	<path
   style="fill:#e4002b"
   d="M 202.475,49.088 20.417,364.424 c -3.227,5.59 -1.313,12.741 4.277,15.968 1.778,1.023 3.795,1.567 5.845,1.567 h 364.117 c 6.46,0 11.69,-5.236 11.69,-11.689 0,-2.055 -0.538,-4.067 -1.564,-5.846 L 222.72,49.088 c -3.224,-5.59 -10.372,-7.508 -15.968,-4.277 -1.775,1.027 -3.251,2.502 -4.277,4.277 z"
   id="path446"
   inkscape:connector-curvature="0" />
</g>
<g
   id="LWPOLYLINE_8_"
   transform="translate(-14.172113,-38.565352)">
	<polygon
   style="fill:#ffcd00"
   points="362.266,351.567 212.601,92.339 62.934,351.567 "
   id="polygon449" />
</g>
<g
   id="LWPOLYLINE_10_"
   transform="translate(-14.172113,-38.565352)">
	<path
   style="fill:#101820"
   d="m 198.687,277.578 c 2.414,0.938 4.855,1.796 7.324,2.571 1.435,0.448 2.891,0.815 4.366,1.104 2.162,0.425 4.326,0.83 6.495,1.221 1.313,0.238 2.646,0.354 3.979,0.34 2.203,-0.014 4.399,0.014 6.597,0.096 5.141,0.18 10.241,1.044 15.165,2.563 0.788,0.293 1.57,0.599 2.346,0.925 2.203,0.915 4.216,2.23 5.943,3.88 2.918,2.792 5.958,5.45 9.106,7.974 1.727,1.381 3.679,2.444 5.773,3.148 1.469,0.497 2.985,0.857 4.516,1.081 0.775,0.112 1.557,0.103 2.325,-0.026 0.796,-0.137 1.585,-0.27 2.381,-0.395 0.244,-0.038 0.482,-0.109 0.707,-0.211 0.299,-0.133 0.639,-0.153 0.959,-0.055 0.19,0.089 0.34,0.241 0.428,0.436 2.197,4.964 5.243,9.514 9.004,13.428 1.796,1.981 3.591,3.971 5.38,5.964 3.938,4.383 9.588,6.831 15.478,6.701 0.626,-0.013 1.197,-0.367 1.482,-0.925 0.231,-0.445 0.211,-0.979 -0.055,-1.407 -1.482,-2.404 -3.59,-4.362 -6.1,-5.668 -0.762,-0.398 -1.523,-0.793 -2.292,-1.181 -0.87,-0.441 -1.795,-0.755 -2.761,-0.928 l -0.517,-0.092 c -0.395,-0.136 -0.728,-0.404 -0.945,-0.759 -0.32,-0.506 -0.612,-1.033 -0.871,-1.574 -0.319,-0.673 -0.687,-1.313 -1.108,-1.924 -0.489,-0.701 -0.932,-1.432 -1.333,-2.187 -1.237,-2.34 -2.291,-4.771 -3.148,-7.276 -0.843,-2.452 -1.462,-4.975 -1.85,-7.539 -0.068,-0.452 -0.143,-0.904 -0.225,-1.353 -0.108,-0.626 -0.374,-1.214 -0.755,-1.721 -0.299,-0.395 -0.728,-0.677 -1.203,-0.796 -1.408,-0.354 -2.815,-0.693 -4.23,-1.021 -1.196,-0.278 -2.373,-0.656 -3.516,-1.129 -0.448,-0.187 -0.877,-0.432 -1.271,-0.728 -1.034,-0.769 -1.741,-1.896 -1.985,-3.162 -0.552,-2.843 -1.211,-5.658 -1.979,-8.446 -0.278,-1.02 -0.605,-2.026 -0.979,-3.02 -0.163,-0.432 -0.367,-0.843 -0.611,-1.237 l -0.701,-1.125 c 0.789,0.177 1.619,-0.085 2.17,-0.688 0.795,-0.874 1.04,-2.111 0.646,-3.22 -0.843,-2.387 -2.353,-4.485 -4.339,-6.053 -2.353,-1.85 -4.943,-3.366 -7.704,-4.516 -2.429,-1.013 -4.944,-1.792 -7.515,-2.332 -1.489,-0.313 -2.985,-0.612 -4.475,-0.891 -3.347,-0.623 -6.732,-0.99 -10.133,-1.096 -4.258,-0.132 -8.508,-0.537 -12.717,-1.203 -2.652,-0.425 -5.224,-1.265 -7.617,-2.496 -4.523,-2.325 -8.27,-5.909 -10.792,-10.323 -0.68,-1.18 -1.184,-2.451 -1.51,-3.774 -1.041,-4.284 -2.006,-8.589 -2.89,-12.907 -0.422,-2.081 -0.973,-4.135 -1.653,-6.147 -0.258,-0.771 -0.585,-1.517 -0.972,-2.227 l -0.354,-0.65 c 1.313,-0.391 2.673,-0.611 4.04,-0.662 0.789,-0.031 1.578,-0.137 2.346,-0.316 0.333,-0.082 0.653,-0.211 0.945,-0.388 l 0.612,-0.371 0.7,-0.462 0.687,-0.388 0.518,-0.262 c -0.109,-0.275 -0.272,-0.527 -0.477,-0.741 -0.897,-0.945 -1.992,-1.677 -3.209,-2.149 -2,-0.775 -4.101,-1.251 -6.243,-1.404 l -0.53,-0.037 c -0.782,-1.578 -2.006,-2.891 -3.523,-3.781 l -0.598,-0.347 c -0.054,-2.081 0.327,-4.155 1.129,-6.081 0.53,-1.271 1.156,-2.502 1.87,-3.683 0.421,-0.689 0.769,-1.414 1.047,-2.172 1.415,-3.853 1.537,-8.065 0.347,-11.996 -0.109,-0.354 -0.354,-0.653 -0.68,-0.833 -0.333,-0.178 -0.673,-0.33 -1.02,-0.463 -0.313,-0.119 -0.653,-0.156 -0.979,-0.115 -0.333,0.04 -0.619,0.262 -0.748,0.571 -0.15,0.391 -0.313,0.778 -0.476,1.166 -0.123,0.285 -0.163,0.605 -0.116,0.911 0.156,1.071 0.292,2.143 0.395,3.224 0.258,2.683 -0.619,5.352 -2.413,7.364 l -0.316,0.357 c -1.35,-0.666 -2.655,-1.428 -3.9,-2.278 l -1.846,-1.262 c -0.218,-0.177 -0.486,-0.271 -0.765,-0.275 -0.667,-0.003 -1.238,0.473 -1.354,1.126 -0.082,0.469 0.034,0.945 0.316,1.322 1.455,1.929 3.25,3.574 5.301,4.853 l 0.412,0.252 -0.17,1.183 -0.405,2.251 -0.595,2.809 -0.129,0.357 h -1.816 c -1.452,0.055 -2.887,0.351 -4.244,0.874 -1.843,0.707 -3.618,1.588 -5.297,2.625 -1.343,0.826 -2.795,1.455 -4.312,1.87 -1.037,0.278 -2.078,0.558 -3.115,0.833 -1.163,0.306 -2.295,0.71 -3.393,1.207 -0.547,0.245 -1.095,0.493 -1.646,0.741 -0.541,0.241 -1.091,0.455 -1.652,0.646 -0.537,0.184 -0.993,0.558 -1.275,1.051 -0.238,0.419 -0.251,0.922 -0.037,1.354 0.265,0.534 0.71,0.962 1.258,1.204 0.605,0.269 1.092,0.751 1.367,1.35 0.208,0.449 0.496,0.85 0.86,1.184 0.466,0.428 0.993,0.788 1.567,1.061 1.309,0.619 2.676,1.115 4.08,1.482 1.296,0.367 2.632,0.558 3.979,0.564 l 1.34,0.177 c 1.941,1.561 4.22,2.643 6.654,3.162 0.915,3.394 1.282,6.913 1.084,10.426 -0.102,1.418 -0.167,2.842 -0.194,4.264 -0.034,1.707 -0.149,3.41 -0.347,5.107 -0.279,2.359 -0.354,4.739 -0.225,7.113 0.048,0.873 0.092,1.747 0.14,2.625 0.037,0.744 0.149,1.485 0.33,2.21 0.762,3.02 1.71,5.994 2.846,8.898 l 0.493,1.269 c -2.733,-0.834 -5.566,-1.313 -8.422,-1.422 l -2.346,-0.095 h -1.863 l -2.258,-0.007 h -1.86 l -2.537,-0.078 -1.605,-0.079 -2.958,-0.115 c -0.377,0.004 -0.751,0.055 -1.115,0.149 -0.775,0.201 -1.517,0.527 -2.193,0.966 -0.214,0.136 -0.452,0.231 -0.704,0.286 -0.347,0.067 -0.684,0.184 -1.003,0.34 -0.602,0.292 -1.102,0.762 -1.438,1.34 -0.469,0.822 -0.646,1.778 -0.5,2.713 0.126,0.816 0.377,1.605 0.748,2.34 0.429,0.86 0.888,1.703 1.367,2.536 0.986,1.7 2.047,3.359 3.176,4.972 1.285,1.836 2.625,3.631 4.019,5.386 1.687,2.122 3.468,4.169 5.345,6.127 1.176,1.225 2.353,2.455 3.522,3.689 0.708,0.744 1.5,1.404 2.356,1.969 1.068,0.7 2.187,1.319 3.346,1.85 0.888,0.401 1.799,0.755 2.727,1.047 0.53,0.171 1.085,0.231 1.639,0.188 0.683,-0.058 1.37,-0.099 2.054,-0.126 0.537,-0.017 1.074,-0.062 1.608,-0.122 0.149,-0.018 0.292,-0.062 0.425,-0.13 0.456,-0.237 0.904,-0.492 1.343,-0.758 0.36,-0.218 0.479,-0.687 0.262,-1.047 -0.024,-0.038 -0.051,-0.078 -0.082,-0.112 -0.167,-0.188 -0.306,-0.398 -0.412,-0.626 -0.442,-0.948 -1.105,-1.774 -1.938,-2.407 -2.394,-1.826 -5.036,-3.298 -7.844,-4.38 -0.711,-0.275 -1.449,-0.476 -2.2,-0.599 l -0.959,-0.152 -0.078,-0.17 -3.839,-7.229 -3.832,-7.361 -0.673,-1.143 c 1.102,0.218 2.193,0.49 3.271,0.81 1.445,0.432 2.891,0.87 4.332,1.313 l 1.608,0.496 1.737,0.564 1.313,0.408 1.238,0.378 2.564,0.703 c 2.999,0.867 6.12,1.225 9.233,1.068 0.959,-0.052 1.891,-0.31 2.733,-0.759 z"
   id="path452"
   inkscape:connector-curvature="0" />
</g>
</svg>