<?xml version="1.0" encoding="UTF-8" standalone="no"?>
<!-- Generator: Adobe Illustrator 16.0.0, SVG Export Plug-In . SVG Version: 6.00 Build 0)  -->

<svg
   xmlns:dc="http://purl.org/dc/elements/1.1/"
   xmlns:cc="http://creativecommons.org/ns#"
   xmlns:rdf="http://www.w3.org/1999/02/22-rdf-syntax-ns#"
   xmlns:svg="http://www.w3.org/2000/svg"
   xmlns="http://www.w3.org/2000/svg"
   xmlns:sodipodi="http://sodipodi.sourceforge.net/DTD/sodipodi-0.dtd"
   xmlns:inkscape="http://www.inkscape.org/namespaces/inkscape"
   version="1.1"
   id="Layer_1"
   x="0px"
   y="0px"
   width="396.8519"
   height="348.06564"
   viewBox="0 0 396.85191 348.06563"
   xml:space="preserve"
   sodipodi:docname="A20.1.svg"
   inkscape:version="0.92.5 (2060ec1f9f, 2020-04-08)"><metadata
   id="metadata422"><rdf:RDF><cc:Work
       rdf:about=""><dc:format>image/svg+xml</dc:format><dc:type
         rdf:resource="http://purl.org/dc/dcmitype/StillImage" /></cc:Work></rdf:RDF></metadata><defs
   id="defs420" /><sodipodi:namedview
   pagecolor="#ffffff"
   bordercolor="#666666"
   borderopacity="1"
   objecttolerance="10"
   gridtolerance="10"
   guidetolerance="10"
   inkscape:pageopacity="0"
   inkscape:pageshadow="2"
   inkscape:window-width="640"
   inkscape:window-height="480"
   id="namedview418"
   showgrid="false"
   inkscape:zoom="0.55503813"
   inkscape:cx="198.42638"
   inkscape:cy="174.03299"
   inkscape:window-x="0"
   inkscape:window-y="0"
   inkscape:window-maximized="0"
   inkscape:current-layer="Layer_1" />
<g
   id="LWPOLYLINE_6_"
   transform="translate(-14.172113,-38.565352)">
	<path
   style="fill:#ffcd00"
   d="M 198.428,46.749 16.367,362.088 c -4.519,7.824 -1.836,17.834 5.991,22.354 2.489,1.435 5.308,2.189 8.181,2.189 h 364.117 c 9.038,0 16.368,-7.324 16.368,-16.361 0,-2.874 -0.761,-5.696 -2.196,-8.182 L 226.773,46.749 c -4.522,-7.827 -14.526,-10.507 -22.354,-5.988 -2.489,1.435 -4.556,3.503 -5.991,5.988 z"
   id="path405"
   inkscape:connector-curvature="0" />
</g>
<g
   id="LWPOLYLINE_7_"
   transform="translate(-14.172113,-38.565352)">
	<path
   style="fill:#e4002b"
   d="M 202.475,49.088 20.417,364.424 c -3.227,5.59 -1.313,12.741 4.277,15.968 1.778,1.023 3.795,1.567 5.845,1.567 h 364.117 c 6.46,0 11.69,-5.236 11.69,-11.689 0,-2.055 -0.538,-4.067 -1.564,-5.846 L 222.72,49.088 c -3.224,-5.59 -10.372,-7.508 -15.968,-4.277 -1.775,1.027 -3.251,2.502 -4.277,4.277 z"
   id="path408"
   inkscape:connector-curvature="0" />
</g>
<g
   id="LWPOLYLINE_8_"
   transform="translate(-14.172113,-38.565352)">
	<polygon
   style="fill:#ffcd00"
   points="362.266,351.567 212.601,92.339 62.934,351.567 "
   id="polygon411" />
</g>
<g
   id="LWPOLYLINE_10_"
   transform="translate(-14.172113,-38.565352)">
	<path
   style="fill:#101820"
   d="m 336.241,333.394 c 0.34,-0.218 0.441,-0.67 0.224,-1.014 -0.006,-0.01 -0.013,-0.023 -0.02,-0.03 l -4.652,-6.569 c -0.136,-0.19 -0.354,-0.306 -0.584,-0.31 l -0.803,-0.017 c -0.47,-0.007 -0.897,-0.238 -1.17,-0.619 l -0.462,-0.652 c -0.401,-0.571 -1.055,-0.915 -1.755,-0.932 l -1.537,-0.027 c -1.006,-0.021 -1.932,-0.558 -2.448,-1.418 l -0.802,-1.319 c -0.422,-0.704 -0.789,-1.438 -1.096,-2.207 l -1.584,-4.006 c -1.973,-4.991 -3.673,-10.081 -5.087,-15.253 l -4.407,-16.11 c -0.224,-0.819 -0.788,-1.503 -1.557,-1.87 l -4.298,-2.071 c -4.625,-2.233 -7.753,-6.722 -8.235,-11.843 l -0.816,-8.568 1.374,0.643 c 0.809,0.377 1.774,0.03 2.148,-0.778 0.109,-0.231 0.163,-0.483 0.149,-0.741 -0.054,-1.612 -0.374,-3.21 -0.951,-4.72 l -2.149,-5.651 c -1.51,-3.972 -4.522,-7.185 -8.385,-8.949 l -2.143,-0.979 c -3.965,-1.809 -8.229,-2.904 -12.574,-3.22 l -26.909,-1.966 c -3.441,-0.252 -6.739,-1.425 -9.562,-3.403 l -3.033,-2.122 c -2.155,-1.51 -4.509,-2.727 -6.991,-3.611 l -2.305,-0.819 c -1.578,-0.564 -3.244,-0.854 -4.924,-0.854 h -2.318 c -1.49,0 -2.973,0.286 -4.36,0.844 l -7.508,3.002 c -1.279,0.511 -2.632,0.793 -4.013,0.833 l -10.801,0.327 c -0.102,0.003 -0.2,-0.027 -0.282,-0.092 -0.19,-0.15 -0.228,-0.426 -0.078,-0.619 l 2.193,-2.815 c 0.122,-0.16 0.095,-0.392 -0.064,-0.514 -0.072,-0.058 -0.164,-0.085 -0.255,-0.078 l -2.649,0.211 c -1.788,0.143 -3.533,0.608 -5.151,1.384 l -2.717,1.292 c -0.969,0.463 -2.043,0.649 -3.114,0.544 -0.429,-0.048 -0.819,-0.265 -1.078,-0.611 -0.51,-0.684 -0.371,-1.649 0.313,-2.159 1.635,-1.225 3.509,-2.092 5.501,-2.547 l 9.725,-2.23 c 9.091,-2.088 16.844,-8.005 21.25,-16.227 l 2.972,-5.542 c 0.395,-0.748 0.734,-1.527 1,-2.333 0.149,-0.462 -0.103,-0.959 -0.564,-1.111 -0.3,-0.099 -0.626,-0.031 -0.864,0.18 l -2.006,1.803 c -0.626,0.561 -1.292,1.067 -2.006,1.513 l -0.252,0.16 c -0.762,0.476 -1.618,0.771 -2.516,0.863 -0.123,0.014 -0.252,-0.014 -0.361,-0.082 -0.278,-0.163 -0.367,-0.526 -0.203,-0.802 l 1.646,-2.721 c 0.231,-0.381 0.108,-0.877 -0.272,-1.108 -0.285,-0.177 -0.652,-0.153 -0.918,0.055 l -0.429,0.34 c -1.632,1.285 -3.203,2.646 -4.719,4.066 l -1.897,1.776 c -0.544,0.51 -1.258,0.796 -2.006,0.796 h -0.333 c -0.571,0 -1.026,-0.459 -1.026,-1.027 v -0.055 c 0,-0.689 0.095,-1.377 0.285,-2.041 l 0.531,-1.836 c 0.088,-0.313 -0.088,-0.639 -0.401,-0.728 -0.075,-0.023 -0.163,-0.027 -0.245,-0.017 -0.755,0.105 -1.435,0.499 -1.904,1.102 l -2.224,2.846 c -0.604,0.775 -1.131,1.604 -1.569,2.485 l -0.381,0.766 c -0.306,0.618 -0.697,1.183 -1.163,1.693 l -2.907,3.165 c -0.18,0.197 -0.435,0.31 -0.704,0.31 -0.527,0 -0.952,-0.429 -0.952,-0.955 v -1.574 c 0,-0.807 0.133,-1.605 0.391,-2.367 l 2.268,-6.662 c 0.16,-0.459 -0.088,-0.962 -0.547,-1.118 -0.289,-0.096 -0.605,-0.041 -0.84,0.149 -0.755,0.612 -1.377,1.367 -1.836,2.224 l -4.26,7.93 c -0.956,1.781 -1.986,3.522 -3.087,5.219 l -1.095,1.69 c -0.636,0.979 -1.391,1.884 -2.241,2.686 -2.703,2.904 -7.222,3.136 -10.208,0.524 l -3.862,-3.377 c -0.775,-0.68 -1.769,-1.064 -2.799,-1.091 -0.404,-0.007 -0.741,0.313 -0.751,0.721 -0.003,0.108 0.021,0.218 0.065,0.319 l 1.112,2.455 c 0.058,0.126 0.078,0.265 0.058,0.404 -0.054,0.401 -0.425,0.684 -0.826,0.626 -0.925,-0.129 -1.816,-0.432 -2.625,-0.895 l -2.03,-1.156 c -0.554,-0.313 -1.17,-0.503 -1.806,-0.558 -0.483,-0.044 -0.911,0.316 -0.952,0.803 -0.021,0.225 0.048,0.445 0.187,0.622 l 1.843,2.315 c 0.156,0.194 0.221,0.442 0.184,0.688 -0.079,0.479 -0.527,0.809 -1.01,0.734 -0.728,-0.116 -1.438,-0.34 -2.101,-0.67 l -2.18,-1.071 c -0.51,-0.252 -1.125,-0.044 -1.377,0.466 -0.15,0.31 -0.14,0.67 0.034,0.969 0.344,0.592 0.769,1.136 1.262,1.612 l 0.238,0.231 c 3.359,3.233 7.756,5.182 12.408,5.494 l 5.964,0.405 c 0.439,0.03 0.836,0.278 1.054,0.659 0.364,0.636 0.146,1.441 -0.486,1.806 l -7.804,4.481 c -2.047,1.177 -4.121,2.306 -6.222,3.38 l -5.318,2.724 c -2.71,1.387 -4.662,3.9 -5.338,6.865 l -0.436,1.904 c -0.18,0.792 -0.228,1.607 -0.139,2.414 l 0.49,4.535 c 0.037,0.374 0.354,0.66 0.728,0.66 h 0.877 c 0.615,0 1.227,-0.099 1.815,-0.289 l 0.272,-0.089 c 0.901,-0.292 1.867,-0.329 2.788,-0.104 l 0.864,0.203 c 1.224,0.296 2.516,0.055 3.55,-0.666 l 2.911,-2.03 c 0.806,-0.561 1.802,-0.778 2.768,-0.602 l 5.209,0.966 c 0.248,0.048 0.459,0.218 0.551,0.455 l 0.503,1.293 c 1.608,4.107 4.121,7.8 7.351,10.806 0.272,0.252 0.629,0.395 1,0.395 h 0.663 c 0.486,0 0.88,-0.395 0.88,-0.884 v -7.862 c 0,-0.054 0.01,-0.115 0.034,-0.17 0.095,-0.224 0.35,-0.326 0.575,-0.234 l 15.454,6.457 c 1.761,0.741 2.972,2.394 3.138,4.298 l 0.536,6.134 c 0.082,0.966 0.442,1.884 1.027,2.659 l 4.271,5.631 -1.673,6.134 c -0.83,3.044 -1.986,5.985 -3.441,8.78 l -6.112,11.733 c -0.422,0.807 -0.769,1.656 -1.03,2.526 l -1.302,4.295 c -0.507,1.677 -1.163,3.302 -1.959,4.859 l -2.992,5.845 c -1.102,2.155 -2.465,4.165 -4.063,5.987 l -3.067,3.499 c -0.629,0.718 -1.323,1.37 -2.078,1.948 -0.524,0.408 -1.02,0.844 -1.482,1.313 l -1.194,1.211 c -0.456,0.462 -0.452,1.203 0.01,1.659 0.218,0.218 0.517,0.34 0.823,0.34 h 5.488 c 1.969,0 3.924,-0.36 5.767,-1.064 0.36,-0.139 0.656,-0.418 0.816,-0.771 l 0.639,-1.428 0.391,0.571 c 0.275,0.4 0.823,0.503 1.224,0.224 0.231,-0.156 0.374,-0.418 0.381,-0.7 l 0.16,-5.199 c 0.034,-1.166 0.245,-2.325 0.622,-3.431 1.877,-5.508 4.563,-10.707 7.97,-15.427 l 0.763,-1.061 c 0.381,-0.527 0.83,-1.003 1.333,-1.411 0.537,-0.432 1.006,-0.938 1.401,-1.503 l 4.747,-6.79 2.741,-3.513 c 3.367,-4.318 5.903,-9.229 7.474,-14.479 l 0.313,-1.047 v 2.809 c 0,3.488 -0.415,6.963 -1.23,10.356 l -1.517,6.271 c -0.932,3.835 0.421,7.861 3.475,10.364 l 16.431,13.472 c 3.216,2.635 6.949,4.556 10.962,5.641 l 1.911,0.514 1.313,0.585 c 2.529,1.129 5.468,0.877 7.772,-0.663 l -6.256,-8.035 c -0.36,-0.462 -0.918,-0.734 -1.503,-0.734 h -2.095 v -1.384 l -6.447,0.493 -1.536,-0.752 c -4.829,-2.356 -9.079,-5.743 -12.452,-9.925 l -0.904,-1.126 c -1.748,-2.166 -2.122,-5.131 -0.966,-7.66 l 8.093,-17.736 c 0.326,-0.721 0.537,-1.496 0.618,-2.284 l 0.231,-2.173 c 0.156,-1.496 1.415,-2.636 2.918,-2.636 h 11.799 c 2.502,0 4.991,-0.319 7.412,-0.952 l 6.101,-1.591 c 1.903,-0.497 3.821,-0.915 5.76,-1.258 0.625,-0.109 1.258,0.196 1.551,0.768 l 1.421,2.7 c 2.455,4.686 5.406,9.099 8.813,13.152 l 3.536,4.209 c 1.102,1.313 1.34,3.152 0.612,4.706 l -1.823,3.873 c -1.489,3.166 -3.087,6.273 -4.794,9.327 l -5.461,9.738 c -1.979,3.529 -4.427,6.767 -7.29,9.629 l -4.869,4.862 c -0.462,0.459 -0.462,1.204 0,1.66 0.197,0.196 0.456,0.319 0.734,0.34 l 4.033,0.329 c 1.972,0.16 3.964,-0.078 5.848,-0.71 0.531,-0.177 1,-0.504 1.354,-0.938 l 1.088,-1.351 0.538,0.433 c 0.251,0.204 0.625,0.163 0.829,-0.089 0.082,-0.102 0.129,-0.234 0.129,-0.367 v -4.546 c 0,-2.292 0.592,-4.546 1.728,-6.539 l 5.332,-9.36 c 1.74,-3.057 3.699,-5.988 5.861,-8.763 l 9.364,-12.037 c 0.762,-0.979 0.83,-2.336 0.164,-3.383 l -3.067,-4.812 2.387,0.932 c 2.224,0.87 4.502,1.599 6.814,2.189 2.74,0.701 5.365,1.796 7.8,3.244 l 0.422,0.255 c 0.87,0.521 1.537,1.323 1.884,2.275 l 5.379,14.787 c 0.688,1.891 1.299,3.809 1.829,5.75 l 0.211,0.769 c 0.286,1.047 0.688,2.061 1.197,3.02 0.326,0.618 0.564,1.271 0.707,1.941 l 0.17,0.796 c 0.272,1.309 0.844,2.536 1.666,3.59 3.693,4.495 9.235,7.06 15.05,6.968 0.801,-0.017 1.596,-0.255 2.284,-0.686 z"
   id="path414"
   inkscape:connector-curvature="0" />
</g>
</svg>