<?xml version="1.0" encoding="iso-8859-1"?>
<!-- Generator: Adobe Illustrator 16.0.0, SVG Export Plug-In . SVG Version: 6.00 Build 0)  -->
<!DOCTYPE svg PUBLIC "-//W3C//DTD SVG 1.1//EN" "http://www.w3.org/Graphics/SVG/1.1/DTD/svg11.dtd">
<svg version="1.1" id="Layer_1" xmlns="http://www.w3.org/2000/svg" xmlns:xlink="http://www.w3.org/1999/xlink" x="0px" y="0px"
	 width="425.197px" height="425.196px" viewBox="0 0 425.197 425.196" style="enable-background:new 0 0 425.197 425.196;"
	 xml:space="preserve">
<g id="LWPOLYLINE_6_">
	<path style="fill:#FFCD00;" d="M198.428,46.749L16.367,362.088c-4.519,7.824-1.836,17.834,5.991,22.354
		c2.489,1.435,5.308,2.189,8.181,2.189h364.117c9.038,0,16.368-7.324,16.368-16.361c0-2.874-0.761-5.696-2.196-8.182L226.773,46.749
		c-4.522-7.827-14.526-10.507-22.354-5.988C201.93,42.196,199.863,44.264,198.428,46.749z"/>
</g>
<g id="LWPOLYLINE_7_">
	<path style="fill:#E4002B;" d="M202.475,49.088L20.417,364.424c-3.227,5.59-1.313,12.741,4.277,15.968
		c1.778,1.023,3.795,1.567,5.845,1.567h364.117c6.46,0,11.69-5.236,11.69-11.689c0-2.055-0.538-4.067-1.564-5.846L222.72,49.088
		c-3.224-5.59-10.372-7.508-15.968-4.277C204.977,45.838,203.501,47.313,202.475,49.088z"/>
</g>
<g id="LWPOLYLINE_8_">
	<polygon style="fill:#FFCD00;" points="212.601,92.339 62.934,351.567 362.266,351.567 	"/>
</g>
<g id="LWPOLYLINE_10_">
	<path style="fill:#101820;" d="M336.241,333.394c0.34-0.218,0.441-0.67,0.224-1.014c-0.006-0.01-0.013-0.023-0.02-0.03
		l-4.652-6.569c-0.136-0.19-0.354-0.306-0.584-0.31l-0.803-0.017c-0.47-0.007-0.897-0.238-1.17-0.619l-0.462-0.652
		c-0.401-0.571-1.055-0.915-1.755-0.932l-1.537-0.027c-1.006-0.021-1.932-0.558-2.448-1.418l-0.802-1.319
		c-0.422-0.704-0.789-1.438-1.096-2.207l-1.584-4.006c-1.973-4.991-3.673-10.081-5.087-15.253l-4.407-16.11
		c-0.224-0.819-0.788-1.503-1.557-1.87l-4.298-2.071c-4.625-2.233-7.753-6.722-8.235-11.843l-0.816-8.568l1.374,0.643
		c0.809,0.377,1.774,0.03,2.148-0.778c0.109-0.231,0.163-0.483,0.149-0.741c-0.054-1.612-0.374-3.21-0.951-4.72l-2.149-5.651
		c-1.51-3.972-4.522-7.185-8.385-8.949l-2.143-0.979c-3.965-1.809-8.229-2.904-12.574-3.22l-26.909-1.966
		c-3.441-0.252-6.739-1.425-9.562-3.403l-3.033-2.122c-2.155-1.51-4.509-2.727-6.991-3.611l-2.305-0.819
		c-1.578-0.564-3.244-0.854-4.924-0.854h-2.318c-1.49,0-2.973,0.286-4.36,0.844l-7.508,3.002c-1.279,0.511-2.632,0.793-4.013,0.833
		l-10.801,0.327c-0.102,0.003-0.2-0.027-0.282-0.092c-0.19-0.15-0.228-0.426-0.078-0.619l2.193-2.815
		c0.122-0.16,0.095-0.392-0.064-0.514c-0.072-0.058-0.164-0.085-0.255-0.078l-2.649,0.211c-1.788,0.143-3.533,0.608-5.151,1.384
		l-2.717,1.292c-0.969,0.463-2.043,0.649-3.114,0.544c-0.429-0.048-0.819-0.265-1.078-0.611c-0.51-0.684-0.371-1.649,0.313-2.159
		c1.635-1.225,3.509-2.092,5.501-2.547l9.725-2.23c9.091-2.088,16.844-8.005,21.25-16.227l2.972-5.542
		c0.395-0.748,0.734-1.527,1-2.333c0.149-0.462-0.103-0.959-0.564-1.111c-0.3-0.099-0.626-0.031-0.864,0.18l-2.006,1.803
		c-0.626,0.561-1.292,1.067-2.006,1.513l-0.252,0.16c-0.762,0.476-1.618,0.771-2.516,0.863c-0.123,0.014-0.252-0.014-0.361-0.082
		c-0.278-0.163-0.367-0.526-0.203-0.802l1.646-2.721c0.231-0.381,0.108-0.877-0.272-1.108c-0.285-0.177-0.652-0.153-0.918,0.055
		l-0.429,0.34c-1.632,1.285-3.203,2.646-4.719,4.066l-1.897,1.776c-0.544,0.51-1.258,0.796-2.006,0.796h-0.333
		c-0.571,0-1.026-0.459-1.026-1.027v-0.055c0-0.689,0.095-1.377,0.285-2.041l0.531-1.836c0.088-0.313-0.088-0.639-0.401-0.728
		c-0.075-0.023-0.163-0.027-0.245-0.017c-0.755,0.105-1.435,0.499-1.904,1.102l-2.224,2.846c-0.604,0.775-1.131,1.604-1.569,2.485
		l-0.381,0.766c-0.306,0.618-0.697,1.183-1.163,1.693l-2.907,3.165c-0.18,0.197-0.435,0.31-0.704,0.31
		c-0.527,0-0.952-0.429-0.952-0.955v-1.574c0-0.807,0.133-1.605,0.391-2.367l2.268-6.662c0.16-0.459-0.088-0.962-0.547-1.118
		c-0.289-0.096-0.605-0.041-0.84,0.149c-0.755,0.612-1.377,1.367-1.836,2.224l-4.26,7.93c-0.956,1.781-1.986,3.522-3.087,5.219
		l-1.095,1.69c-0.636,0.979-1.391,1.884-2.241,2.686c-2.703,2.904-7.222,3.136-10.208,0.524l-3.862-3.377
		c-0.775-0.68-1.769-1.064-2.799-1.091c-0.404-0.007-0.741,0.313-0.751,0.721c-0.003,0.108,0.021,0.218,0.065,0.319l1.112,2.455
		c0.058,0.126,0.078,0.265,0.058,0.404c-0.054,0.401-0.425,0.684-0.826,0.626c-0.925-0.129-1.816-0.432-2.625-0.895l-2.03-1.156
		c-0.554-0.313-1.17-0.503-1.806-0.558c-0.483-0.044-0.911,0.316-0.952,0.803c-0.021,0.225,0.048,0.445,0.187,0.622l1.843,2.315
		c0.156,0.194,0.221,0.442,0.184,0.688c-0.079,0.479-0.527,0.809-1.01,0.734c-0.728-0.116-1.438-0.34-2.101-0.67l-2.18-1.071
		c-0.51-0.252-1.125-0.044-1.377,0.466c-0.15,0.31-0.14,0.67,0.034,0.969c0.344,0.592,0.769,1.136,1.262,1.612l0.238,0.231
		c3.359,3.233,7.756,5.182,12.408,5.494l5.964,0.405c0.439,0.03,0.836,0.278,1.054,0.659c0.364,0.636,0.146,1.441-0.486,1.806
		l-7.804,4.481c-2.047,1.177-4.121,2.306-6.222,3.38l-5.318,2.724c-2.71,1.387-4.662,3.9-5.338,6.865l-0.436,1.904
		c-0.18,0.792-0.228,1.607-0.139,2.414l0.49,4.535c0.037,0.374,0.354,0.66,0.728,0.66h0.877c0.615,0,1.227-0.099,1.815-0.289
		l0.272-0.089c0.901-0.292,1.867-0.329,2.788-0.104l0.864,0.203c1.224,0.296,2.516,0.055,3.55-0.666l2.911-2.03
		c0.806-0.561,1.802-0.778,2.768-0.602l5.209,0.966c0.248,0.048,0.459,0.218,0.551,0.455l0.503,1.293
		c1.608,4.107,4.121,7.8,7.351,10.806c0.272,0.252,0.629,0.395,1,0.395h0.663c0.486,0,0.88-0.395,0.88-0.884v-7.862
		c0-0.054,0.01-0.115,0.034-0.17c0.095-0.224,0.35-0.326,0.575-0.234l15.454,6.457c1.761,0.741,2.972,2.394,3.138,4.298l0.536,6.134
		c0.082,0.966,0.442,1.884,1.027,2.659l4.271,5.631l-1.673,6.134c-0.83,3.044-1.986,5.985-3.441,8.78l-6.112,11.733
		c-0.422,0.807-0.769,1.656-1.03,2.526l-1.302,4.295c-0.507,1.677-1.163,3.302-1.959,4.859l-2.992,5.845
		c-1.102,2.155-2.465,4.165-4.063,5.987l-3.067,3.499c-0.629,0.718-1.323,1.37-2.078,1.948c-0.524,0.408-1.02,0.844-1.482,1.313
		l-1.194,1.211c-0.456,0.462-0.452,1.203,0.01,1.659c0.218,0.218,0.517,0.34,0.823,0.34h5.488c1.969,0,3.924-0.36,5.767-1.064
		c0.36-0.139,0.656-0.418,0.816-0.771l0.639-1.428l0.391,0.571c0.275,0.4,0.823,0.503,1.224,0.224
		c0.231-0.156,0.374-0.418,0.381-0.7l0.16-5.199c0.034-1.166,0.245-2.325,0.622-3.431c1.877-5.508,4.563-10.707,7.97-15.427
		l0.763-1.061c0.381-0.527,0.83-1.003,1.333-1.411c0.537-0.432,1.006-0.938,1.401-1.503l4.747-6.79l2.741-3.513
		c3.367-4.318,5.903-9.229,7.474-14.479l0.313-1.047v2.809c0,3.488-0.415,6.963-1.23,10.356l-1.517,6.271
		c-0.932,3.835,0.421,7.861,3.475,10.364l16.431,13.472c3.216,2.635,6.949,4.556,10.962,5.641l1.911,0.514l1.313,0.585
		c2.529,1.129,5.468,0.877,7.772-0.663l-6.256-8.035c-0.36-0.462-0.918-0.734-1.503-0.734h-2.095v-1.384l-6.447,0.493l-1.536-0.752
		c-4.829-2.356-9.079-5.743-12.452-9.925l-0.904-1.126c-1.748-2.166-2.122-5.131-0.966-7.66l8.093-17.736
		c0.326-0.721,0.537-1.496,0.618-2.284l0.231-2.173c0.156-1.496,1.415-2.636,2.918-2.636h11.799c2.502,0,4.991-0.319,7.412-0.952
		l6.101-1.591c1.903-0.497,3.821-0.915,5.76-1.258c0.625-0.109,1.258,0.196,1.551,0.768l1.421,2.7
		c2.455,4.686,5.406,9.099,8.813,13.152l3.536,4.209c1.102,1.313,1.34,3.152,0.612,4.706l-1.823,3.873
		c-1.489,3.166-3.087,6.273-4.794,9.327l-5.461,9.738c-1.979,3.529-4.427,6.767-7.29,9.629l-4.869,4.862
		c-0.462,0.459-0.462,1.204,0,1.66c0.197,0.196,0.456,0.319,0.734,0.34l4.033,0.329c1.972,0.16,3.964-0.078,5.848-0.71
		c0.531-0.177,1-0.504,1.354-0.938l1.088-1.351l0.538,0.433c0.251,0.204,0.625,0.163,0.829-0.089
		c0.082-0.102,0.129-0.234,0.129-0.367v-4.546c0-2.292,0.592-4.546,1.728-6.539l5.332-9.36c1.74-3.057,3.699-5.988,5.861-8.763
		l9.364-12.037c0.762-0.979,0.83-2.336,0.164-3.383l-3.067-4.812l2.387,0.932c2.224,0.87,4.502,1.599,6.814,2.189
		c2.74,0.701,5.365,1.796,7.8,3.244l0.422,0.255c0.87,0.521,1.537,1.323,1.884,2.275l5.379,14.787
		c0.688,1.891,1.299,3.809,1.829,5.75l0.211,0.769c0.286,1.047,0.688,2.061,1.197,3.02c0.326,0.618,0.564,1.271,0.707,1.941
		l0.17,0.796c0.272,1.309,0.844,2.536,1.666,3.59c3.693,4.495,9.235,7.06,15.05,6.968
		C334.758,334.063,335.553,333.825,336.241,333.394z"/>
</g>
</svg>
