<?xml version="1.0" encoding="UTF-8" standalone="no"?>
<!-- Generator: Adobe Illustrator 16.0.0, SVG Export Plug-In . SVG Version: 6.00 Build 0)  -->

<svg
   xmlns:dc="http://purl.org/dc/elements/1.1/"
   xmlns:cc="http://creativecommons.org/ns#"
   xmlns:rdf="http://www.w3.org/1999/02/22-rdf-syntax-ns#"
   xmlns:svg="http://www.w3.org/2000/svg"
   xmlns="http://www.w3.org/2000/svg"
   xmlns:sodipodi="http://sodipodi.sourceforge.net/DTD/sodipodi-0.dtd"
   xmlns:inkscape="http://www.inkscape.org/namespaces/inkscape"
   version="1.1"
   id="Layer_1"
   x="0px"
   y="0px"
   width="396.8519"
   height="348.06564"
   viewBox="0 0 396.85191 348.06563"
   xml:space="preserve"
   sodipodi:docname="A20.2.svg"
   inkscape:version="0.92.5 (2060ec1f9f, 2020-04-08)"><metadata
   id="metadata441"><rdf:RDF><cc:Work
       rdf:about=""><dc:format>image/svg+xml</dc:format><dc:type
         rdf:resource="http://purl.org/dc/dcmitype/StillImage" /></cc:Work></rdf:RDF></metadata><defs
   id="defs439" /><sodipodi:namedview
   pagecolor="#ffffff"
   bordercolor="#666666"
   borderopacity="1"
   objecttolerance="10"
   gridtolerance="10"
   guidetolerance="10"
   inkscape:pageopacity="0"
   inkscape:pageshadow="2"
   inkscape:window-width="640"
   inkscape:window-height="480"
   id="namedview437"
   showgrid="false"
   inkscape:zoom="0.55503813"
   inkscape:cx="198.42638"
   inkscape:cy="174.03299"
   inkscape:window-x="0"
   inkscape:window-y="0"
   inkscape:window-maximized="0"
   inkscape:current-layer="Layer_1" />
<g
   id="LWPOLYLINE_6_"
   transform="translate(-14.172113,-38.565352)">
	<path
   style="fill:#ffcd00"
   d="M 198.428,46.749 16.367,362.088 c -4.519,7.824 -1.836,17.834 5.991,22.354 2.489,1.435 5.308,2.189 8.181,2.189 h 364.117 c 9.038,0 16.368,-7.324 16.368,-16.361 0,-2.874 -0.761,-5.696 -2.196,-8.182 L 226.773,46.749 c -4.522,-7.827 -14.526,-10.507 -22.354,-5.988 -2.489,1.435 -4.556,3.503 -5.991,5.988 z"
   id="path424"
   inkscape:connector-curvature="0" />
</g>
<g
   id="LWPOLYLINE_7_"
   transform="translate(-14.172113,-38.565352)">
	<path
   style="fill:#e4002b"
   d="M 202.475,49.088 20.417,364.424 c -3.227,5.59 -1.313,12.741 4.277,15.968 1.778,1.023 3.795,1.567 5.845,1.567 h 364.117 c 6.46,0 11.69,-5.236 11.69,-11.689 0,-2.055 -0.538,-4.067 -1.564,-5.846 L 222.72,49.088 c -3.224,-5.59 -10.372,-7.508 -15.968,-4.277 -1.775,1.027 -3.251,2.502 -4.277,4.277 z"
   id="path427"
   inkscape:connector-curvature="0" />
</g>
<g
   id="LWPOLYLINE_8_"
   transform="translate(-14.172113,-38.565352)">
	<polygon
   style="fill:#ffcd00"
   points="362.266,351.567 212.601,92.339 62.934,351.567 "
   id="polygon430" />
</g>
<g
   id="LWPOLYLINE_13_"
   transform="translate(-14.172113,-38.565352)">
	<path
   style="fill:#101820"
   d="m 310.48,322.955 c -0.911,0.058 -1.829,-0.059 -2.699,-0.344 l -0.762,-0.255 c -1.285,-0.425 -2.414,-1.2 -3.271,-2.248 l -0.741,-0.897 c -0.918,-1.118 -1.659,-2.37 -2.203,-3.713 l -5.998,-14.876 c -0.3,-0.745 -0.667,-1.459 -1.081,-2.146 l -0.483,-0.775 c -0.258,-0.429 -0.632,-0.775 -1.074,-1.014 l -1.815,-0.976 c -1.197,-0.643 -2.496,-1.064 -3.836,-1.248 l -6.801,-0.938 c -1.142,-0.156 -2.264,-0.452 -3.339,-0.881 l -4.236,-1.689 c -1.421,-0.564 -2.877,-1.017 -4.366,-1.347 l -1.156,-0.259 c -0.381,-0.085 -0.762,0.157 -0.85,0.541 -0.007,0.044 -0.014,0.089 -0.014,0.133 l -0.17,5.257 c -0.048,1.604 0.245,3.203 0.856,4.692 l 1.918,4.682 c 0.36,0.871 0.108,1.874 -0.619,2.466 l -2.488,2.047 c -3.033,2.481 -5.855,5.212 -8.433,8.16 l -1.803,2.054 c -0.687,0.782 -1.285,1.639 -1.781,2.551 l -0.388,0.714 c -0.096,0.163 -0.163,0.34 -0.225,0.517 l -0.707,2.271 c -0.089,0.271 -0.129,0.558 -0.136,0.84 v 0.599 c 0,0.234 -0.096,0.452 -0.266,0.615 -0.34,0.326 -0.884,0.313 -1.211,-0.03 -0.108,-0.112 -0.292,-0.119 -0.4,-0.011 -0.027,0.023 -0.048,0.048 -0.062,0.078 l -0.483,0.963 c -0.354,0.696 -0.972,1.221 -1.713,1.448 -1.585,0.482 -3.237,0.687 -4.883,0.602 l -3.047,-0.153 c -0.218,-0.013 -0.388,-0.184 -0.401,-0.4 l -0.027,-0.401 c -0.007,-0.13 -0.067,-0.245 -0.177,-0.32 l -0.367,-0.269 c -0.055,-0.037 -0.102,-0.085 -0.136,-0.139 -0.177,-0.263 -0.108,-0.616 0.149,-0.796 l 0.605,-0.415 c 0.537,-0.363 1.108,-0.677 1.7,-0.932 l 2.999,-1.285 c 1.122,-0.479 2.148,-1.163 3.026,-2.013 l 1.387,-1.344 c 2.074,-2.02 3.999,-4.192 5.753,-6.504 l 2.313,-3.061 c 0.986,-1.303 1.856,-2.687 2.604,-4.135 0.959,-1.894 1.027,-4.114 0.184,-6.063 l -5.698,-13.115 c -0.347,-0.795 -1.143,-1.302 -2.007,-1.285 l -1.972,0.041 c -1.959,0.041 -3.91,0.285 -5.821,0.725 l -14.635,3.373 c -3.155,0.724 -6.379,1.091 -9.609,1.091 h -0.714 c -0.204,0 -0.401,0.089 -0.537,0.245 l -0.523,0.595 c -2.047,2.336 -4.176,4.601 -6.373,6.797 l -2.836,2.829 c -1.122,1.129 -2.339,2.156 -3.638,3.077 l -0.871,0.619 c -0.129,0.092 -0.163,0.269 -0.068,0.398 0.027,0.037 0.061,0.067 0.102,0.088 l 5.617,2.829 c 1.197,0.599 2.469,1.026 3.781,1.275 l 1.68,0.315 c 1.387,0.259 2.815,0.105 4.107,-0.445 l 1.911,-0.813 c 0.122,-0.055 0.258,-0.081 0.388,-0.081 0.558,0 0.999,0.448 0.999,0.999 v 0.708 l 0.646,-0.463 c 0.245,-0.177 0.537,-0.272 0.836,-0.272 h 1.83 c 0.815,0 1.618,0.14 2.38,0.412 l 1.918,0.677 c 0.299,0.108 0.599,0.204 0.904,0.289 0.048,0.01 0.081,0.03 0.115,0.061 0.116,0.105 0.13,0.289 0.021,0.405 l -1.088,1.207 c -0.489,0.54 -1.054,1.003 -1.68,1.373 l -1.367,0.8 c -0.652,0.387 -1.4,0.591 -2.162,0.591 h -1.326 c -0.693,0 -1.388,-0.102 -2.047,-0.299 l -7.195,-2.156 c -3.672,-1.102 -7.393,-2.054 -11.14,-2.855 l -1.68,-0.36 c -0.49,-0.103 -0.959,-0.293 -1.387,-0.562 l -0.673,-0.429 c -0.211,-0.132 -0.408,-0.278 -0.591,-0.445 -1.755,-1.581 -1.891,-4.284 -0.306,-6.038 l 2.258,-2.51 c 1.448,-1.602 2.768,-3.309 3.951,-5.107 l 1.102,-1.673 c 0.217,-0.326 0.129,-0.769 -0.204,-0.986 -0.116,-0.074 -0.251,-0.115 -0.388,-0.115 h -1.449 c -0.258,0 -0.496,0.136 -0.619,0.357 l -0.816,1.414 c -0.687,1.2 -1.551,2.295 -2.557,3.247 l -0.251,0.245 c -2.299,2.176 -4.74,4.196 -7.306,6.049 l -0.942,0.681 c -1.754,1.268 -3.414,2.669 -4.958,4.188 l -8.222,8.089 c -0.819,0.81 -1.537,1.707 -2.139,2.687 l -1.969,3.189 c -0.238,0.392 -0.381,0.833 -0.415,1.292 l -0.119,1.643 c -0.003,0.055 -0.014,0.105 -0.031,0.16 -0.116,0.374 -0.517,0.584 -0.891,0.469 -0.231,-0.071 -0.438,-0.197 -0.605,-0.37 l -0.436,-0.449 c -0.054,-0.058 -0.143,-0.058 -0.2,-0.004 -0.007,0.011 -0.017,0.021 -0.024,0.031 l -0.748,1.255 c -0.211,0.354 -0.568,0.602 -0.973,0.673 l -1.598,0.285 c -1.01,0.178 -2.037,0.249 -3.063,0.208 l -4.651,-0.188 c -0.075,0 -0.146,-0.033 -0.197,-0.092 l -0.711,-0.778 c -0.054,-0.058 -0.129,-0.092 -0.21,-0.092 h -0.677 c -0.082,0 -0.16,-0.051 -0.194,-0.126 -0.048,-0.108 -0.003,-0.234 0.105,-0.285 l 8.069,-3.693 c 2.04,-0.938 3.832,-2.339 5.226,-4.101 l 1.064,-1.34 c 0.782,-0.982 1.604,-1.931 2.468,-2.842 l 0.092,-0.103 c 0.697,-0.762 1.306,-1.598 1.819,-2.495 l 2.397,-4.169 c 0.469,-0.819 1.075,-1.558 1.789,-2.18 l 0.979,-0.854 c 1.098,-0.959 2.122,-1.999 3.06,-3.114 l 7.491,-8.902 c 0.33,-0.388 0.507,-0.884 0.503,-1.394 l -0.003,-0.334 c -0.003,-0.493 -0.262,-0.945 -0.677,-1.203 l -0.585,-0.36 c -0.452,-0.279 -0.969,-0.426 -1.5,-0.426 h -0.673 c -0.768,0 -1.506,-0.309 -2.043,-0.859 -0.289,-0.3 -0.619,-0.552 -0.979,-0.752 -0.738,-0.411 -1.336,-1.037 -1.724,-1.792 l -0.031,-0.058 c -0.238,-0.466 -0.449,-0.949 -0.636,-1.441 -0.061,-0.16 -0.177,-0.293 -0.326,-0.374 l -0.344,-0.105 c -0.449,-0.14 -0.755,-0.555 -0.755,-1.023 v -0.936 c 0,-0.184 -0.071,-0.36 -0.201,-0.493 l -0.564,-0.588 c -0.16,-0.163 -0.228,-0.395 -0.19,-0.619 l 0.249,-1.428 c 0.047,-0.269 -0.061,-0.537 -0.279,-0.7 l -0.395,-0.286 c -0.336,-0.252 -0.5,-0.67 -0.415,-1.081 l 0.228,-1.102 c 0.051,-0.245 -0.031,-0.504 -0.218,-0.674 l -0.289,-0.258 c -0.15,-0.137 -0.235,-0.327 -0.235,-0.53 v -0.898 c 0,-0.197 -0.082,-0.388 -0.228,-0.523 -0.34,-0.313 -0.506,-0.775 -0.445,-1.23 0.187,-1.395 -0.044,-2.809 -0.66,-4.07 l -1.295,-2.659 c -0.479,-0.979 -1.472,-1.602 -2.564,-1.602 h -4.634 c -0.724,0 -1.445,-0.055 -2.159,-0.163 -1.476,-0.228 -2.975,-0.221 -4.444,0.017 l -1.907,0.31 c -0.769,0.123 -1.547,0.188 -2.329,0.184 h -0.531 c -0.404,-0.003 -0.789,-0.177 -1.057,-0.476 l -0.66,-0.738 c -0.055,-0.061 -0.129,-0.095 -0.211,-0.095 l -1.826,-0.014 c -0.289,-0.004 -0.571,-0.115 -0.778,-0.316 -1.136,-1.085 -1.428,-2.781 -0.721,-4.183 l 0.371,-0.734 c 0.272,-0.537 0.653,-1.013 1.119,-1.391 2.013,-1.636 4.233,-2.988 6.61,-4.022 l 4.414,-1.925 c 0.66,-0.285 1.271,-0.673 1.815,-1.142 l 2.452,-2.122 c 0.534,-0.459 1.099,-0.877 1.693,-1.255 l 2.125,-1.347 c 0.418,-0.269 0.901,-0.418 1.397,-0.438 l -2.52,0.109 c -0.717,0.033 -1.424,0.173 -2.101,0.414 l -2.979,1.075 c -0.623,0.224 -1.275,0.34 -1.935,0.34 h -1.18 c -0.391,0 -0.711,-0.319 -0.711,-0.711 l -0.003,-0.278 c 0,-0.289 0.108,-0.568 0.306,-0.782 l 1.384,-1.5 -0.347,-0.921 c -0.194,-0.521 -0.01,-1.112 0.452,-1.425 0.469,-0.326 1.03,-0.497 1.602,-0.5 l 2.03,-0.007 c 0.493,-0.003 0.982,0.082 1.445,0.248 l 0.646,0.228 -0.122,-0.058 c -0.599,-0.285 -1.146,-0.673 -1.612,-1.146 l -0.296,-0.3 c -0.031,-0.03 -0.061,-0.064 -0.088,-0.102 -0.388,-0.5 -0.296,-1.214 0.201,-1.602 0.421,-0.326 0.986,-0.391 1.469,-0.17 l 2.543,1.159 c 0.558,0.255 1.166,0.385 1.778,0.385 h 0.571 c 0.71,0 1.377,-0.354 1.775,-0.942 l 0.932,-1.387 c 0.479,-0.711 0.734,-1.551 0.728,-2.411 v -0.612 c -0.003,-0.313 -0.092,-0.618 -0.255,-0.884 -0.721,-1.177 -1.768,-2.118 -3.013,-2.713 -1.517,-0.722 -2.989,-1.53 -4.407,-2.422 l -2.655,-1.673 c -0.521,-0.326 -0.922,-0.813 -1.143,-1.387 -0.034,-0.089 -0.055,-0.181 -0.058,-0.272 -0.017,-0.476 0.35,-0.87 0.823,-0.891 0.555,-0.021 1.102,0.122 1.578,0.404 l 4.049,2.432 c 0.874,0.527 1.802,0.955 2.768,1.281 0.374,0.126 0.778,-0.071 0.904,-0.445 0.055,-0.166 0.048,-0.347 -0.021,-0.51 l -1.159,-2.706 c -2.578,-6.016 -7.147,-10.963 -12.941,-14.01 l -2.268,-1.193 c -0.456,-0.238 -0.836,-0.595 -1.105,-1.037 l -0.18,-0.292 c -0.068,-0.116 -0.105,-0.245 -0.105,-0.374 0,-0.395 0.323,-0.714 0.714,-0.714 l 1.35,0.007 c 1.347,0.007 2.669,0.326 3.87,0.938 l 1.754,0.897 c 0.211,0.108 0.469,0.027 0.575,-0.184 0.031,-0.062 0.047,-0.126 0.047,-0.19 0.007,-0.721 -0.17,-1.432 -0.51,-2.064 l -1.221,-2.261 c -0.521,-0.966 -1.258,-1.803 -2.156,-2.435 l -1.319,-0.936 c -0.497,-0.354 -0.949,-0.769 -1.343,-1.234 l -0.571,-0.687 c -0.092,-0.108 -0.149,-0.245 -0.163,-0.388 -0.037,-0.395 0.248,-0.741 0.643,-0.778 0.67,-0.064 1.347,0.112 1.897,0.5 3.329,2.319 5.804,5.665 7.049,9.524 l 0.71,2.207 c 0.333,1.034 0.782,2.026 1.34,2.958 l 0.721,1.197 c 0.405,0.677 1.279,0.897 1.955,0.489 0.265,-0.156 0.469,-0.397 0.588,-0.684 l 1.554,-3.825 c 0.235,-0.571 0.503,-1.129 0.81,-1.666 0.153,-0.265 0.438,-0.432 0.745,-0.432 0.473,0 0.857,0.384 0.857,0.854 v 0.721 c 0,0.884 -0.208,1.758 -0.605,2.55 l -2.248,4.495 c -0.52,1.041 -0.5,2.271 0.058,3.299 l 0.231,0.473 c 1.238,2.516 2.322,5.101 3.254,7.742 0.292,0.83 0.507,1.69 0.643,2.561 0.072,0.466 0.51,0.785 0.976,0.714 0.225,-0.034 0.425,-0.153 0.558,-0.337 l 6.875,-9.351 c 0.177,-0.241 0.472,-0.374 0.771,-0.343 0.469,0.047 0.813,0.466 0.769,0.935 l -0.099,0.982 c -0.068,0.694 -0.306,1.364 -0.69,1.945 l -1.663,2.499 c -0.643,0.969 -1.397,1.854 -2.254,2.639 l -0.554,0.503 c -0.769,0.708 -1.438,1.51 -1.989,2.397 l -5.154,8.293 c -0.126,0.204 -0.062,0.47 0.139,0.592 0.054,0.034 0.119,0.055 0.184,0.062 1.228,0.115 2.465,-0.034 3.628,-0.442 l 5.423,-1.9 c 0.854,-0.296 1.653,-0.731 2.367,-1.275 l 1.194,-0.914 c 0.333,-0.252 0.602,-0.575 0.795,-0.942 l 0.31,-0.592 c 0.262,-0.5 0.208,-1.104 -0.143,-1.547 l -0.816,-1.034 c -0.197,-0.248 -0.476,-0.425 -0.786,-0.499 l -0.16,-0.041 c -0.265,-0.064 -0.523,-0.167 -0.762,-0.307 l -1.435,-0.833 c -0.064,-0.037 -0.122,-0.085 -0.167,-0.146 -0.19,-0.252 -0.143,-0.609 0.105,-0.8 0.5,-0.384 1.108,-0.588 1.734,-0.588 h 0.513 c 0.51,0 1.013,0.136 1.456,0.401 l 2.249,1.333 c 0.456,0.271 0.973,0.408 1.503,0.401 l 0.993,-0.018 c 1.075,-0.017 2.047,-0.636 2.517,-1.602 0.755,-1.547 1.149,-3.24 1.149,-4.957 l 0.007,-0.7 c 0,-1.299 -0.497,-2.544 -1.394,-3.479 l -1.299,-1.347 c -0.401,-0.422 -0.891,-0.759 -1.428,-0.982 l -1.129,-0.47 c -0.904,-0.381 -1.7,-0.986 -2.3,-1.758 -0.082,-0.105 -0.139,-0.228 -0.167,-0.36 -0.088,-0.463 0.211,-0.915 0.678,-1.003 1.19,-0.238 2.428,0.047 3.4,0.782 l 1.285,0.969 c 0.408,0.31 0.986,0.228 1.299,-0.181 0.109,-0.143 0.17,-0.315 0.184,-0.496 0.041,-0.578 -0.095,-1.149 -0.394,-1.649 l -0.517,-0.88 c -0.265,-0.449 -0.558,-0.881 -0.87,-1.3 l -1.115,-1.479 c -1.646,-2.193 -3.604,-4.139 -5.81,-5.771 l -5.362,-3.979 c -0.476,-0.354 -0.874,-0.802 -1.169,-1.319 l -0.133,-0.234 c -0.061,-0.105 -0.095,-0.228 -0.095,-0.35 0,-0.395 0.32,-0.715 0.714,-0.715 h 0.877 c 0.5,0 0.99,0.13 1.421,0.378 l 2.792,1.604 c 0.34,0.197 0.775,0.078 0.973,-0.262 0.092,-0.163 0.119,-0.354 0.071,-0.533 l -0.377,-1.473 c -0.187,-0.544 0.014,-1.147 0.486,-1.469 0.585,-0.401 1.384,-0.259 1.785,0.326 0.495,0.721 0.76,1.575 0.753,2.449 l -0.007,1.696 c -0.007,0.823 0.231,1.629 0.667,2.322 l 0.714,1.119 c 0.795,1.241 1.68,2.421 2.652,3.526 l 2.081,2.359 c 0.286,0.326 0.762,0.388 1.122,0.143 0.456,-0.306 0.809,-0.737 1.027,-1.244 l 0.436,-1.027 c 0.306,-0.728 0.496,-1.499 0.551,-2.288 l 0.319,-4.502 c 0.014,-0.187 0.095,-0.363 0.238,-0.486 0.299,-0.258 0.748,-0.23 1.006,0.068 l 0.714,0.816 c 0.116,0.129 0.177,0.299 0.177,0.469 l 0.007,1.517 c 0.007,0.721 -0.047,1.435 -0.149,2.148 l -0.32,2.166 c -0.088,0.589 -0.292,1.153 -0.612,1.656 l -0.469,0.741 c -0.143,0.228 -0.265,0.47 -0.36,0.721 l -1.21,3.091 c -0.211,0.541 -0.313,1.115 -0.292,1.693 l 0.088,2.666 c 0.007,0.303 0.041,0.602 0.109,0.895 l 0.306,1.425 c 0.062,0.282 0.095,0.567 0.109,0.854 l 0.123,3.057 c 0.034,0.802 -0.075,1.604 -0.306,2.373 l -0.68,2.221 c -0.285,0.935 -0.761,1.802 -1.401,2.543 l -2.727,3.193 c -0.21,0.255 -0.333,0.574 -0.34,0.907 -0.007,0.395 0.306,0.714 0.701,0.721 0.129,0.004 0.251,-0.026 0.36,-0.088 l 4.25,-2.356 c 0.319,-0.174 0.598,-0.408 0.83,-0.687 l 0.102,-0.126 c 0.367,-0.452 0.789,-0.857 1.258,-1.204 l 1.177,-0.877 c 0.51,-0.374 1.136,-0.575 1.768,-0.562 0.089,0.004 0.17,0.024 0.245,0.065 0.286,0.143 0.395,0.485 0.252,0.768 l -0.714,1.388 c -0.164,0.316 -0.381,0.599 -0.646,0.833 l -3.183,2.826 c -0.578,0.517 -1.238,0.932 -1.958,1.233 l -2.128,0.901 c -0.612,0.259 -1.258,0.432 -1.918,0.51 l -3.332,0.408 c -0.973,0.116 -1.937,0.337 -2.868,0.653 l -9.487,3.227 c -0.225,0.078 -0.343,0.319 -0.269,0.541 0.037,0.115 0.119,0.204 0.228,0.251 l 1.935,0.888 c 0.282,0.129 0.595,0.163 0.897,0.099 l 3.132,-0.68 c 0.469,-0.103 0.955,-0.082 1.415,0.054 0.088,0.027 0.17,0.071 0.234,0.137 0.228,0.217 0.231,0.578 0.014,0.806 l -2.071,2.139 c -0.163,0.17 -0.16,0.438 0.01,0.605 0.038,0.033 0.078,0.061 0.126,0.081 l 1.064,0.47 c 2.547,1.122 5.027,2.387 7.421,3.798 l 4.625,2.72 c 1.754,1.03 3.754,1.575 5.788,1.575 h 2.529 c 1.163,0 2.326,-0.072 3.482,-0.215 l 3.06,-0.377 c 1.803,-0.222 3.625,-0.272 5.44,-0.144 l 7.345,0.504 c 1.802,0.122 3.618,0.074 5.413,-0.143 l 21.068,-2.578 c 1.768,-0.214 3.536,-0.363 5.317,-0.448 l 4.699,-0.218 c 1,-0.048 1.993,0.081 2.944,0.377 l 13.241,4.125 c 1.802,0.564 3.217,1.985 3.761,3.795 l 0.734,2.431 c 0.061,0.194 0.014,0.408 -0.13,0.558 -0.217,0.228 -0.577,0.238 -0.809,0.023 l -0.626,-0.598 c -0.741,-0.701 -1.625,-1.234 -2.584,-1.564 -0.36,-0.126 -0.693,-0.319 -0.979,-0.578 l -0.605,-0.541 0.32,0.541 c 0.211,0.354 0.34,0.748 0.381,1.156 l 0.299,2.972 c 0.252,2.407 0.374,4.828 0.374,7.256 v 5.438 c 0,3.968 2.523,7.494 6.277,8.772 l 7.215,2.462 c 1.067,0.363 1.822,1.329 1.918,2.455 l 0.523,6.131 c 0.115,1.285 0.395,2.55 0.844,3.757 l 2.264,6.09 c 0.286,0.751 0.715,1.435 1.279,2.006 l 1.448,1.482 c 0.367,0.374 0.829,0.64 1.333,0.769 l 1.149,0.293 c 0.421,0.108 0.815,0.313 1.148,0.598 0.137,0.116 0.225,0.282 0.245,0.463 0.041,0.391 -0.238,0.741 -0.633,0.785 l -0.999,0.112 c -0.272,0.031 -0.47,0.279 -0.442,0.551 0.021,0.17 0.123,0.313 0.272,0.392 l 1.537,0.771 c 0.856,0.429 1.503,1.184 1.795,2.091 l 1.081,3.34 c 0.007,0.033 0.014,0.067 0.014,0.105 0.022,0.237 -0.162,0.441 -0.393,0.455 z"
   id="path433"
   inkscape:connector-curvature="0" />
</g>
</svg>