<?xml version="1.0" encoding="UTF-8" standalone="no"?>
<!-- Generator: Adobe Illustrator 16.0.0, SVG Export Plug-In . SVG Version: 6.00 Build 0)  -->

<svg
   xmlns:dc="http://purl.org/dc/elements/1.1/"
   xmlns:cc="http://creativecommons.org/ns#"
   xmlns:rdf="http://www.w3.org/1999/02/22-rdf-syntax-ns#"
   xmlns:svg="http://www.w3.org/2000/svg"
   xmlns="http://www.w3.org/2000/svg"
   xmlns:sodipodi="http://sodipodi.sourceforge.net/DTD/sodipodi-0.dtd"
   xmlns:inkscape="http://www.inkscape.org/namespaces/inkscape"
   version="1.1"
   id="Layer_1"
   x="0px"
   y="0px"
   width="396.85211"
   height="348.06815"
   viewBox="0 0 396.85212 348.06813"
   xml:space="preserve"
   sodipodi:docname="A22.4_2.svg"
   inkscape:version="0.92.5 (2060ec1f9f, 2020-04-08)"><metadata
   id="metadata612"><rdf:RDF><cc:Work
       rdf:about=""><dc:format>image/svg+xml</dc:format><dc:type
         rdf:resource="http://purl.org/dc/dcmitype/StillImage" /></cc:Work></rdf:RDF></metadata><defs
   id="defs610" /><sodipodi:namedview
   pagecolor="#ffffff"
   bordercolor="#666666"
   borderopacity="1"
   objecttolerance="10"
   gridtolerance="10"
   guidetolerance="10"
   inkscape:pageopacity="0"
   inkscape:pageshadow="2"
   inkscape:window-width="640"
   inkscape:window-height="480"
   id="namedview608"
   showgrid="false"
   inkscape:zoom="0.55503813"
   inkscape:cx="198.4256"
   inkscape:cy="174.03399"
   inkscape:window-x="0"
   inkscape:window-y="0"
   inkscape:window-maximized="0"
   inkscape:current-layer="Layer_1" />
<g
   id="LWPOLYLINE_6_"
   transform="translate(-14.172899,-38.563859)">
	<path
   style="fill:#ffcd00"
   d="M 198.425,46.749 16.369,362.085 c -4.521,7.825 -1.837,17.833 5.988,22.352 2.488,1.438 5.309,2.195 8.184,2.195 h 364.117 c 9.038,0 16.367,-7.326 16.367,-16.364 0,-2.875 -0.761,-5.698 -2.198,-8.183 L 226.772,46.749 c -4.521,-7.827 -14.529,-10.509 -22.355,-5.99 -2.489,1.436 -4.554,3.502 -5.992,5.99 z"
   id="path595"
   inkscape:connector-curvature="0" />
</g>
<g
   id="LWPOLYLINE_7_"
   transform="translate(-14.172899,-38.563859)">
	<path
   style="fill:#e4002b"
   d="M 202.476,49.088 20.417,364.421 c -3.229,5.593 -1.313,12.741 4.276,15.968 1.779,1.024 3.794,1.566 5.847,1.566 h 364.117 c 6.453,0 11.688,-5.234 11.688,-11.688 0,-2.053 -0.542,-4.067 -1.566,-5.847 L 222.721,49.088 c -3.227,-5.593 -10.376,-7.507 -15.968,-4.279 -1.776,1.025 -3.252,2.501 -4.277,4.279 z"
   id="path598"
   inkscape:connector-curvature="0" />
</g>
<g
   id="LWPOLYLINE_8_"
   transform="translate(-14.172899,-38.563859)">
	<polygon
   style="fill:#ffcd00"
   points="362.266,351.564 212.597,92.337 62.933,351.564 "
   id="polygon601" />
</g>
<g
   id="LWPOLYLINE_9_"
   transform="translate(-14.172899,-38.563859)">
	<polygon
   style="fill:#101820"
   points="143.213,307.585 184.546,263.88 184.546,335.053 212.597,307.002 240.653,335.053 240.653,192.457 212.597,164.403 184.546,192.457 184.546,229.86 126.231,291.521 "
   id="polygon604" />
</g>
</svg>