<?xml version="1.0" encoding="UTF-8" standalone="no"?>
<!-- Generator: Adobe Illustrator 16.0.0, SVG Export Plug-In . SVG Version: 6.00 Build 0)  -->

<svg
   xmlns:dc="http://purl.org/dc/elements/1.1/"
   xmlns:cc="http://creativecommons.org/ns#"
   xmlns:rdf="http://www.w3.org/1999/02/22-rdf-syntax-ns#"
   xmlns:svg="http://www.w3.org/2000/svg"
   xmlns="http://www.w3.org/2000/svg"
   xmlns:sodipodi="http://sodipodi.sourceforge.net/DTD/sodipodi-0.dtd"
   xmlns:inkscape="http://www.inkscape.org/namespaces/inkscape"
   version="1.1"
   id="Layer_1"
   x="0px"
   y="0px"
   width="396.85211"
   height="348.0672"
   viewBox="0 0 396.85212 348.06719"
   xml:space="preserve"
   sodipodi:docname="A22.2_2.svg"
   inkscape:version="0.92.5 (2060ec1f9f, 2020-04-08)"><metadata
   id="metadata536"><rdf:RDF><cc:Work
       rdf:about=""><dc:format>image/svg+xml</dc:format><dc:type
         rdf:resource="http://purl.org/dc/dcmitype/StillImage" /></cc:Work></rdf:RDF></metadata><defs
   id="defs534" /><sodipodi:namedview
   pagecolor="#ffffff"
   bordercolor="#666666"
   borderopacity="1"
   objecttolerance="10"
   gridtolerance="10"
   guidetolerance="10"
   inkscape:pageopacity="0"
   inkscape:pageshadow="2"
   inkscape:window-width="640"
   inkscape:window-height="480"
   id="namedview532"
   showgrid="false"
   inkscape:zoom="0.55503813"
   inkscape:cx="198.4256"
   inkscape:cy="174.03399"
   inkscape:window-x="0"
   inkscape:window-y="0"
   inkscape:window-maximized="0"
   inkscape:current-layer="Layer_1" />
<g
   id="LWPOLYLINE_6_"
   transform="translate(-14.172899,-38.564788)">
	<path
   style="fill:#ffcd00"
   d="M 198.425,46.748 16.369,362.085 c -4.521,7.825 -1.837,17.833 5.988,22.352 2.488,1.438 5.309,2.195 8.184,2.195 h 364.117 c 9.038,0 16.367,-7.326 16.367,-16.364 0,-2.875 -0.761,-5.698 -2.198,-8.183 L 226.774,46.748 c -4.525,-7.825 -14.53,-10.507 -22.355,-5.988 -2.489,1.437 -4.556,3.5 -5.994,5.988 z"
   id="path519"
   inkscape:connector-curvature="0" />
</g>
<g
   id="LWPOLYLINE_7_"
   transform="translate(-14.172899,-38.564788)">
	<path
   style="fill:#e4002b"
   d="M 202.478,49.088 20.417,364.421 c -3.229,5.593 -1.312,12.741 4.277,15.968 1.779,1.024 3.794,1.566 5.847,1.566 h 364.117 c 6.453,0 11.688,-5.234 11.688,-11.688 0,-2.053 -0.542,-4.067 -1.566,-5.847 L 222.719,49.088 c -3.224,-5.592 -10.372,-7.507 -15.968,-4.28 -1.772,1.025 -3.249,2.501 -4.273,4.28 z"
   id="path522"
   inkscape:connector-curvature="0" />
</g>
<g
   id="LWPOLYLINE_8_"
   transform="translate(-14.172899,-38.564788)">
	<polygon
   style="fill:#ffcd00"
   points="362.266,351.564 212.598,92.335 62.933,351.564 "
   id="polygon525" />
</g>
<g
   id="LWPOLYLINE_9_"
   transform="translate(-14.172899,-38.564788)">
	<polygon
   style="fill:#101820"
   points="278.053,288.24 240.653,288.24 240.653,334.994 212.598,306.944 184.546,334.994 184.546,250.833 147.142,250.833 147.142,227.459 184.546,227.459 184.546,192.399 212.598,164.345 240.653,192.399 240.653,264.863 278.053,264.863 "
   id="polygon528" />
</g>
</svg>