<?xml version="1.0" encoding="iso-8859-1"?>
<!-- Generator: Adobe Illustrator 16.0.0, SVG Export Plug-In . SVG Version: 6.00 Build 0)  -->
<!DOCTYPE svg PUBLIC "-//W3C//DTD SVG 1.1//EN" "http://www.w3.org/Graphics/SVG/1.1/DTD/svg11.dtd">
<svg version="1.1" id="Layer_1" xmlns="http://www.w3.org/2000/svg" xmlns:xlink="http://www.w3.org/1999/xlink" x="0px" y="0px"
	 width="425.197px" height="425.196px" viewBox="0 0 425.197 425.196" style="enable-background:new 0 0 425.197 425.196;"
	 xml:space="preserve">
<g id="LWPOLYLINE_6_">
	<path style="fill:#FFCD00;" d="M198.425,46.748L16.369,362.085c-4.521,7.825-1.837,17.833,5.988,22.352
		c2.488,1.438,5.309,2.195,8.184,2.195h364.117c9.038,0,16.367-7.326,16.367-16.364c0-2.875-0.761-5.698-2.198-8.183L226.774,46.748
		c-4.525-7.825-14.53-10.507-22.355-5.988C201.93,42.197,199.863,44.26,198.425,46.748z"/>
</g>
<g id="LWPOLYLINE_7_">
	<path style="fill:#E4002B;" d="M202.478,49.088L20.417,364.421c-3.229,5.593-1.312,12.741,4.277,15.968
		c1.779,1.024,3.794,1.566,5.847,1.566h364.117c6.453,0,11.688-5.234,11.688-11.688c0-2.053-0.542-4.067-1.566-5.847L222.719,49.088
		c-3.224-5.592-10.372-7.507-15.968-4.28C204.979,45.833,203.502,47.309,202.478,49.088z"/>
</g>
<g id="LWPOLYLINE_8_">
	<polygon style="fill:#FFCD00;" points="212.598,92.335 62.933,351.564 362.266,351.564 	"/>
</g>
<g id="LWPOLYLINE_9_">
	<polygon style="fill:#101820;" points="240.653,264.863 278.053,264.863 278.053,288.24 240.653,288.24 240.653,334.994 
		212.598,306.944 184.546,334.994 184.546,250.833 147.142,250.833 147.142,227.459 184.546,227.459 184.546,192.399 
		212.598,164.345 240.653,192.399 	"/>
</g>
</svg>
