<?xml version="1.0" encoding="iso-8859-1"?>
<!-- Generator: Adobe Illustrator 16.0.0, SVG Export Plug-In . SVG Version: 6.00 Build 0)  -->
<!DOCTYPE svg PUBLIC "-//W3C//DTD SVG 1.1//EN" "http://www.w3.org/Graphics/SVG/1.1/DTD/svg11.dtd">
<svg version="1.1" id="Layer_1" xmlns="http://www.w3.org/2000/svg" xmlns:xlink="http://www.w3.org/1999/xlink" x="0px" y="0px"
	 width="425.197px" height="425.196px" viewBox="0 0 425.197 425.196" style="enable-background:new 0 0 425.197 425.196;"
	 xml:space="preserve">
<g id="LWPOLYLINE_6_">
	<path style="fill:#FFCD00;" d="M198.428,46.75L16.367,362.087c-4.519,7.824-1.836,17.834,5.991,22.354
		c2.489,1.436,5.308,2.189,8.181,2.189h364.117c9.038,0,16.368-7.324,16.368-16.361c0-2.873-0.761-5.695-2.196-8.182L226.773,46.75
		c-4.522-7.827-14.526-10.508-22.354-5.989C201.93,42.196,199.863,44.263,198.428,46.75z"/>
</g>
<g id="LWPOLYLINE_7_">
	<path style="fill:#E4002B;" d="M202.475,49.088L20.417,364.423c-3.227,5.59-1.313,12.742,4.277,15.969
		c1.778,1.023,3.795,1.566,5.845,1.566h364.117c6.46,0,11.69-5.236,11.69-11.689c0-2.055-0.538-4.066-1.564-5.846L222.72,49.088
		c-3.224-5.59-10.372-7.506-15.968-4.279C204.977,45.836,203.501,47.312,202.475,49.088z"/>
</g>
<g id="LWPOLYLINE_8_">
	<polygon style="fill:#FFCD00;" points="212.601,92.338 62.934,351.567 362.266,351.567 	"/>
</g>
<g id="CIRCLE_7_">
	<path style="fill:#101820;" d="M245.284,172.021c0-18.076-14.655-32.729-32.731-32.729c-18.074,0-32.729,14.653-32.729,32.729
		c0,18.075,14.655,32.728,32.729,32.728C230.628,204.749,245.284,190.096,245.284,172.021L245.284,172.021z"/>
</g>
<g id="CIRCLE_8_">
	<path style="fill:#101820;" d="M245.284,313.226c0-18.076-14.655-32.73-32.731-32.73c-18.074,0-32.729,14.654-32.729,32.73
		s14.655,32.73,32.729,32.73C230.628,345.956,245.284,331.302,245.284,313.226L245.284,313.226z"/>
</g>
<g id="CIRCLE_11_">
	<path style="fill:#101820;" d="M245.284,242.624c0-18.076-14.655-32.729-32.731-32.729c-18.074,0-32.729,14.653-32.729,32.729
		c0,18.074,14.655,32.729,32.729,32.729C230.628,275.353,245.284,260.698,245.284,242.624L245.284,242.624z"/>
</g>
<g id="CIRCLE_6_">
	<path style="fill:#E4002B;" d="M235.933,172.021c0-12.911-10.466-23.379-23.38-23.379c-12.907,0-23.378,10.468-23.378,23.379
		c0,12.912,10.471,23.378,23.378,23.378C225.467,195.399,235.933,184.933,235.933,172.021L235.933,172.021z"/>
</g>
<g id="CIRCLE_9_">
	<path style="fill:#009775;" d="M235.933,313.226c0-12.914-10.466-23.379-23.38-23.379c-12.907,0-23.378,10.465-23.378,23.379
		c0,12.91,10.471,23.377,23.378,23.377C225.467,336.603,235.933,326.136,235.933,313.226L235.933,313.226z"/>
</g>
<g id="CIRCLE_10_">
	<path style="fill:#FFCD00;" d="M235.933,242.624c0-12.913-10.466-23.379-23.38-23.379c-12.907,0-23.378,10.466-23.378,23.379
		c0,12.91,10.471,23.377,23.378,23.377C225.467,266.001,235.933,255.534,235.933,242.624L235.933,242.624z"/>
</g>
</svg>
