<?xml version="1.0" encoding="iso-8859-1"?>
<!-- Generator: Adobe Illustrator 16.0.0, SVG Export Plug-In . SVG Version: 6.00 Build 0)  -->
<!DOCTYPE svg PUBLIC "-//W3C//DTD SVG 1.1//EN" "http://www.w3.org/Graphics/SVG/1.1/DTD/svg11.dtd">
<svg version="1.1" id="Layer_1" xmlns="http://www.w3.org/2000/svg" xmlns:xlink="http://www.w3.org/1999/xlink" x="0px" y="0px"
	 width="425.197px" height="425.196px" viewBox="0 0 425.197 425.196" style="enable-background:new 0 0 425.197 425.196;"
	 xml:space="preserve">
<g id="LWPOLYLINE_6_">
	<path style="fill:#FFCD00;" d="M198.426,46.749L16.367,362.088c-4.519,7.824-1.836,17.834,5.991,22.354
		c2.489,1.435,5.308,2.189,8.181,2.189h364.117c9.038,0,16.368-7.324,16.368-16.361c0-2.874-0.761-5.696-2.196-8.182L226.771,46.749
		c-4.519-7.827-14.526-10.507-22.354-5.988C201.929,42.196,199.865,44.264,198.426,46.749z"/>
</g>
<g id="LWPOLYLINE_7_">
	<path style="fill:#E4002B;" d="M202.476,49.088L20.417,364.424c-3.227,5.59-1.313,12.741,4.277,15.968
		c1.778,1.023,3.795,1.567,5.845,1.567h364.117c6.46,0,11.689-5.236,11.689-11.689c0-2.055-0.537-4.067-1.563-5.846L222.721,49.088
		c-3.227-5.59-10.374-7.508-15.968-4.277C204.979,45.838,203.503,47.313,202.476,49.088z"/>
</g>
<g id="LWPOLYLINE_8_">
	<polygon style="fill:#FFCD00;" points="212.599,92.339 62.934,351.567 362.266,351.567 	"/>
</g>
<g id="LWPOLYLINE_12_">
	<path style="fill:#101820;" d="M279.361,273.617l-20.17-2.577c2.904-20.181-7.453-39.956-25.707-49.049l11.385,21.993
		l-21.059-6.719l-17.944-34.758l34.754-17.94l21.066,6.722l-16.668,13.939C269.684,218.554,283.408,245.871,279.361,273.617z"/>
</g>
<g id="LWPOLYLINE_13_">
	<path style="fill:#101820;" d="M194.061,221.216c-18.678,7.813-30.463,26.481-29.487,46.702l13.455-21.058l4.91,21.599
		l-20.837,33.098l-33.098-20.833l-4.903-21.567l20.901,13.114c-3.554-29.895,13.315-58.48,41.204-69.817
		C186.206,202.453,194.061,221.209,194.061,221.216z"/>
</g>
<g id="LWPOLYLINE_14_">
	<path style="fill:#101820;" d="M238.856,304.549l-24.904-1.074l16.318-14.899l39.074,1.774l-1.775,39.068l-16.321,14.907
		l1.19-24.972c-24.015,18.008-57.103,17.756-80.843-0.608l12.319-16.182C199.977,314.736,221.953,315.532,238.856,304.549z"/>
</g>
</svg>
