<?xml version="1.0" encoding="iso-8859-1"?>
<!-- Generator: Adobe Illustrator 16.0.0, SVG Export Plug-In . SVG Version: 6.00 Build 0)  -->
<!DOCTYPE svg PUBLIC "-//W3C//DTD SVG 1.1//EN" "http://www.w3.org/Graphics/SVG/1.1/DTD/svg11.dtd">
<svg version="1.1" id="Layer_1" xmlns="http://www.w3.org/2000/svg" xmlns:xlink="http://www.w3.org/1999/xlink" x="0px" y="0px"
	 width="425.197px" height="425.196px" viewBox="0 0 425.197 425.196" style="enable-background:new 0 0 425.197 425.196;"
	 xml:space="preserve">
<g id="LWPOLYLINE_6_">
	<path style="fill:#FFCD00;" d="M198.426,46.749L16.367,362.088c-4.519,7.824-1.836,17.834,5.991,22.354
		c2.489,1.435,5.308,2.189,8.181,2.189h364.117c9.038,0,16.368-7.324,16.368-16.361c0-2.874-0.761-5.696-2.196-8.182L226.771,46.749
		c-4.519-7.827-14.526-10.507-22.354-5.987C201.929,42.196,199.865,44.264,198.426,46.749z"/>
</g>
<g id="LWPOLYLINE_7_">
	<path style="fill:#E4002B;" d="M202.476,49.089L20.417,364.424c-3.227,5.59-1.313,12.741,4.277,15.968
		c1.778,1.023,3.795,1.567,5.845,1.567h364.117c6.46,0,11.689-5.236,11.689-11.689c0-2.055-0.537-4.067-1.563-5.846L222.721,49.089
		c-3.227-5.59-10.374-7.508-15.968-4.277C204.979,45.838,203.503,47.313,202.476,49.089z"/>
</g>
<g id="LWPOLYLINE_8_">
	<polygon style="fill:#FFCD00;" points="212.599,92.34 62.934,351.567 362.266,351.567 	"/>
</g>
<g id="LWPOLYLINE_19_">
	<path style="fill:#101820;" d="M138.762,321.026H115.45v-30.541l8.548-31.377h59.382v-3.265l-24.761-17.341l30.225-20.544
		l30.283,20.605l-25.295,17.279v3.265h107.27l7.93,29.474v32.444h-23.183c-1.014,3.733-4.162,6.495-7.991,7.005
		c-3.516,0.129-6.82-1.659-8.644-4.665h-4.984c-1.639,2.646-4.42,4.372-7.521,4.665c-3.359-0.055-6.453-1.813-8.222-4.665h-71.489
		c-1.673,2.802-4.658,4.56-7.922,4.665c-3.135-0.225-5.964-1.969-7.58-4.665h-5.869c-1.248,2.217-3.363,3.821-5.838,4.413
		C144.879,328.963,139.942,325.937,138.762,321.026"/>
</g>
<g id="LWPOLYLINE_28_">
	<rect x="100.605" y="328.031" style="fill:#101820;" width="224.455" height="7.012"/>
</g>
<g id="LWPOLYLINE_20_">
	<rect x="144.403" y="265.997" style="fill:#FFCD00;" width="23.319" height="23.536"/>
</g>
<g id="LWPOLYLINE_21_">
	<polyline style="fill:#FFCD00;" points="172.282,265.997 172.282,289.533 195.859,289.533 195.859,265.997 172.282,265.997 	"/>
</g>
<g id="LWPOLYLINE_22_">
	<polyline style="fill:#FFCD00;" points="200.286,265.997 200.286,289.533 223.864,289.533 223.864,265.997 200.286,265.997 	"/>
</g>
<g id="LWPOLYLINE_23_">
	<polyline style="fill:#FFCD00;" points="228.423,265.997 228.423,289.533 251.745,289.533 251.745,265.997 228.423,265.997 	"/>
</g>
<g id="LWPOLYLINE_24_">
	<polyline style="fill:#FFCD00;" points="256.3,265.997 279.878,265.997 279.878,289.533 256.3,289.533 256.3,265.997 	"/>
</g>
<g id="LWPOLYLINE_25_">
	<polyline style="fill:#FFCD00;" points="284.578,265.997 284.578,289.533 304.448,289.533 298.117,265.997 284.578,265.997 	"/>
</g>
<g id="LWPOLYLINE_26_">
	<polyline style="fill:#FFCD00;" points="139.599,289.533 120.248,289.533 126.26,265.997 139.599,265.997 139.599,289.533 	"/>
</g>
<g id="LWPOLYLINE_27_">
	<polyline style="fill:#FFCD00;" points="167.406,238.265 188.902,223.596 210.103,237.911 188.606,253.287 167.406,238.265 	"/>
</g>
</svg>
