<?xml version="1.0" encoding="iso-8859-1"?>
<!-- Generator: Adobe Illustrator 16.0.0, SVG Export Plug-In . SVG Version: 6.00 Build 0)  -->
<!DOCTYPE svg PUBLIC "-//W3C//DTD SVG 1.1//EN" "http://www.w3.org/Graphics/SVG/1.1/DTD/svg11.dtd">
<svg version="1.1" id="Layer_1" xmlns="http://www.w3.org/2000/svg" xmlns:xlink="http://www.w3.org/1999/xlink" x="0px" y="0px"
	 width="425.197px" height="425.196px" viewBox="0 0 425.197 425.196" style="enable-background:new 0 0 425.197 425.196;"
	 xml:space="preserve">
<g id="LWPOLYLINE_6_">
	<path style="fill:#FFCD00;" d="M198.426,46.749L16.367,362.088c-4.519,7.824-1.836,17.834,5.991,22.354
		c2.489,1.435,5.308,2.189,8.181,2.189h364.117c9.038,0,16.368-7.324,16.368-16.361c0-2.874-0.761-5.696-2.196-8.182L226.771,46.749
		c-4.519-7.827-14.526-10.507-22.354-5.988C201.929,42.196,199.865,44.263,198.426,46.749z"/>
</g>
<g id="LWPOLYLINE_7_">
	<path style="fill:#E4002B;" d="M202.476,49.088L20.417,364.424c-3.227,5.59-1.313,12.741,4.277,15.968
		c1.778,1.023,3.795,1.567,5.845,1.567h364.117c6.46,0,11.689-5.236,11.689-11.689c0-2.055-0.537-4.067-1.563-5.846L222.721,49.088
		c-3.227-5.59-10.374-7.508-15.968-4.277C204.979,45.838,203.503,47.313,202.476,49.088z"/>
</g>
<g id="LWPOLYLINE_8_">
	<polygon style="fill:#FFCD00;" points="212.599,92.339 62.934,351.567 362.266,351.567 	"/>
</g>
<g id="LWPOLYLINE_16_">
	<polygon style="fill:#101820;" points="278.057,344.553 259.356,344.553 259.356,335.199 240.655,335.199 240.655,344.553 
		221.95,344.553 221.95,335.199 203.248,335.199 203.248,344.553 184.546,344.553 184.546,335.199 165.842,335.199 165.842,344.553 
		147.141,344.553 147.141,335.199 137.79,335.199 137.79,316.498 147.141,316.498 147.141,260.391 137.79,260.391 137.79,241.688 
		147.141,241.688 147.141,232.338 156.491,222.984 165.842,232.338 165.842,241.688 184.546,241.688 184.546,232.338 
		193.897,222.984 203.248,232.338 203.248,241.688 221.95,241.688 221.95,232.338 231.303,222.984 240.655,232.338 240.655,241.688 
		259.356,241.688 259.356,232.338 268.707,222.984 278.057,232.338 278.057,241.688 287.406,241.688 287.406,260.391 
		278.057,260.391 278.057,316.498 287.406,316.498 287.406,335.199 278.057,335.199 	"/>
</g>
<g id="LWPOLYLINE_13_">
	<rect x="165.842" y="260.391" style="fill:#FFCD00;" width="18.705" height="56.107"/>
</g>
<g id="LWPOLYLINE_14_">
	<rect x="203.248" y="260.391" style="fill:#FFCD00;" width="18.702" height="56.107"/>
</g>
<g id="LWPOLYLINE_15_">
	<rect x="240.655" y="260.391" style="fill:#FFCD00;" width="18.701" height="56.107"/>
</g>
</svg>
