<?xml version="1.0" encoding="iso-8859-1"?>
<!-- Generator: Adobe Illustrator 16.0.0, SVG Export Plug-In . SVG Version: 6.00 Build 0)  -->
<!DOCTYPE svg PUBLIC "-//W3C//DTD SVG 1.1//EN" "http://www.w3.org/Graphics/SVG/1.1/DTD/svg11.dtd">
<svg version="1.1" id="Layer_1" xmlns="http://www.w3.org/2000/svg" xmlns:xlink="http://www.w3.org/1999/xlink" x="0px" y="0px"
	 width="425.197px" height="425.196px" viewBox="0 0 425.197 425.196" style="enable-background:new 0 0 425.197 425.196;"
	 xml:space="preserve">
<g id="LWPOLYLINE_3_">
	
		<polygon style="fill:#E4002B;stroke:#EB1C2D;stroke-width:0.7087;stroke-linecap:round;stroke-linejoin:round;stroke-miterlimit:10;" points="
		368.996,87.065 212.599,177.296 56.205,87.065 14.391,98.187 25.693,139.951 151.512,212.54 25.477,285.249 14.174,327.013 
		55.989,338.132 212.599,247.782 369.208,338.132 411.023,327.013 399.72,285.249 273.689,212.54 399.507,139.951 410.81,98.187 	
		"/>
</g>
<g id="LWPOLYLINE_2_">
	
		<polygon style="fill:#FFCD00;stroke:#FFCE02;stroke-width:0.7087;stroke-linecap:round;stroke-linejoin:round;stroke-miterlimit:10;" points="
		395.842,106.818 389.057,131.88 249.25,212.54 389.25,293.306 396.034,318.364 370.95,325.038 212.599,233.681 54.255,325.038 
		29.167,318.364 35.948,293.306 175.947,212.54 36.14,131.88 29.355,106.818 54.447,100.147 212.599,191.391 370.757,100.147 	"/>
</g>
</svg>
