<?xml version="1.0" encoding="iso-8859-1"?>
<!-- Generator: Adobe Illustrator 16.0.0, SVG Export Plug-In . SVG Version: 6.00 Build 0)  -->
<!DOCTYPE svg PUBLIC "-//W3C//DTD SVG 1.1//EN" "http://www.w3.org/Graphics/SVG/1.1/DTD/svg11.dtd">
<svg version="1.1" id="Layer_1" xmlns="http://www.w3.org/2000/svg" xmlns:xlink="http://www.w3.org/1999/xlink" x="0px" y="0px"
	 width="425.197px" height="425.196px" viewBox="0 0 425.197 425.196" style="enable-background:new 0 0 425.197 425.196;"
	 xml:space="preserve">
<g id="LWPOLYLINE_6_">
	<path style="fill:#FFCD00;" d="M198.423,46.748L16.369,362.084c-4.521,7.826-1.837,17.834,5.988,22.353
		c2.488,1.438,5.309,2.195,8.184,2.195h364.117c9.038,0,16.367-7.326,16.367-16.364c0-2.875-0.761-5.698-2.198-8.184L226.774,46.748
		c-4.525-7.826-14.529-10.507-22.355-5.988C201.93,42.197,199.861,44.259,198.423,46.748z"/>
</g>
<g id="LWPOLYLINE_7_">
	<path style="fill:#E4002B;" d="M202.478,49.088L20.417,364.421c-3.229,5.592-1.313,12.741,4.276,15.968
		c1.779,1.024,3.794,1.566,5.847,1.566h364.117c6.453,0,11.688-5.234,11.688-11.688c0-2.053-0.542-4.067-1.566-5.847L222.719,49.088
		c-3.223-5.592-10.372-7.507-15.967-4.28C204.979,45.833,203.503,47.309,202.478,49.088z"/>
</g>
<g id="LWPOLYLINE_8_">
	<polygon style="fill:#FFCD00;" points="212.598,92.335 62.931,351.564 362.266,351.564 	"/>
</g>
<g id="LWPOLYLINE_19_">
	<polygon style="fill:#101820;" points="300.982,250.099 358.217,349.23 66.979,349.228 	"/>
</g>
<g id="LWPOLYLINE_21_">
	<path style="fill:#101820;" d="M166.927,289.945l68.903-29.288c-1.096-5.95,1.348-12,6.266-15.522
		c7.007-5.021,16.76-3.41,21.782,3.601l7.458-3.169c0.883-0.377,1.296-1.398,0.922-2.282l-5.15-12.112
		c-1.876-4.422-6.988-6.484-11.417-4.605l-27.209,11.567c-0.426,0.181-0.902,0.184-1.328,0.014l-29.188-11.777
		c-0.432-0.174-0.908-0.168-1.334,0.013l-55.998,23.806c-0.361,0.148-0.657,0.416-0.845,0.754l-17.669,31.835
		c-0.264,0.467-0.29,1.034-0.083,1.524l8.219,19.338c0.38,0.887,1.398,1.3,2.288,0.922l6.337-2.694
		c-1.097-5.949,1.347-11.999,6.266-15.522C152.159,281.323,161.913,282.935,166.927,289.945z"/>
</g>
<g id="LWPOLYLINE_22_">
	<path style="fill:#FFCD00;" d="M194.408,233.835l-19.558,8.315c-0.884,0.374-1.296,1.389-0.922,2.269l6.021,14.343
		c0.374,0.884,1.393,1.296,2.275,0.929c0.007-0.007,32.844-13.969,32.844-13.969c0.876-0.374,1.289-1.393,0.915-2.275
		c-0.174-0.403-0.49-0.726-0.883-0.906l-19.332-8.68c-0.445-0.2-0.948-0.206-1.393-0.016L194.408,233.835z"/>
</g>
<g id="LWPOLYLINE_23_">
	<path style="fill:#FFCD00;" d="M144.43,275.702l29.06-12.354c0.877-0.377,1.296-1.393,0.922-2.279l-6.04-14.381
		c-0.374-0.89-1.393-1.306-2.282-0.935c-0.006,0.006-17.869,7.606-17.869,7.606c-0.496,0.206-0.863,0.631-1.005,1.153l-5.093,19.119
		c-0.252,0.929,0.303,1.883,1.231,2.131c0.373,0.1,0.773,0.074,1.128-0.081L144.43,275.702z"/>
</g>
<g id="LWPOLYLINE_24_">
	<path style="fill:#FFCD00;" d="M275.558,302.006c0,4.132,3.353,7.481,7.484,7.481c4.126,0,7.478-3.35,7.478-7.481v-3.742
		c0-4.132-3.352-7.478-7.478-7.478c-4.132,0-7.484,3.346-7.484,7.478V302.006z"/>
</g>
<g id="LWPOLYLINE_26_">
	<path style="fill:#FFCD00;" d="M297.94,330.057c0,4.132,3.352,7.483,7.483,7.483s7.478-3.352,7.478-7.483v-3.739
		c0-4.132-3.346-7.48-7.478-7.48s-7.483,3.349-7.483,7.48V330.057z"/>
</g>
<g id="LWPOLYLINE_31_">
	<path style="fill:#FFCD00;" d="M215.718,297.655c2.76-1.432,4.835-3.903,5.77-6.872h7.085v46.757h-7.014v-36.001l-5.138,0.935
		L215.718,297.655z"/>
</g>
<g id="LWPOLYLINE_32_">
	<path style="fill:#FFCD00;" d="M240.266,324.681c0,7.104,5.756,12.859,12.854,12.859c7.104,0,12.859-5.756,12.859-12.859v-2.805
		c0-3.797-1.676-7.394-4.583-9.836c2.192-2.341,3.417-5.428,3.417-8.632v-0.935c0-6.456-5.234-11.69-11.693-11.69
		c-6.453,0-11.688,5.234-11.688,11.69v0.935h7.014v-0.935c0-2.585,2.095-4.677,4.674-4.677c2.585,0,4.68,2.092,4.68,4.677v0.935
		c0,3.101-2.514,5.608-5.614,5.608h-0.936v6.549h1.87c3.229,0,5.847,2.617,5.847,5.844v3.271c0,3.229-2.617,5.847-5.847,5.847
		s-5.841-2.617-5.841-5.847H240.266z"/>
</g>
<g id="LWPOLYLINE_34_">
	<polygon style="fill:#FFCD00;" points="314.281,296.03 278.904,338.198 273.889,333.989 309.272,291.824 	"/>
</g>
<g id="LWPOLYLINE_25_">
	<path style="fill:#101820;" d="M281.167,302.006c0,1.035,0.838,1.873,1.876,1.873c1.031,0,1.869-0.838,1.869-1.873v-3.742
		c0-1.031-0.838-1.869-1.869-1.869c-1.038,0-1.876,0.838-1.876,1.869V302.006z"/>
</g>
<g id="LWPOLYLINE_27_">
	<path style="fill:#101820;" d="M303.554,330.057c0,1.034,0.831,1.872,1.869,1.872c1.031,0,1.87-0.838,1.87-1.872v-3.739
		c0-1.031-0.839-1.869-1.87-1.869c-1.038,0-1.869,0.838-1.869,1.869V330.057z"/>
</g>
<g id="CIRCLE_2_">
	<path style="fill:#101820;" d="M166.276,299.64c0-6.502-5.273-11.777-11.781-11.777c-6.507,0-11.78,5.275-11.78,11.777
		c0,6.508,5.273,11.78,11.78,11.78C161.003,311.42,166.276,306.147,166.276,299.64L166.276,299.64z"/>
</g>
<g id="CIRCLE_3_">
	<path style="fill:#101820;" d="M263.228,258.433c0-6.505-5.278-11.778-11.78-11.778c-6.508,0-11.78,5.273-11.78,11.778
		c0,6.504,5.272,11.777,11.78,11.777C257.95,270.21,263.228,264.937,263.228,258.433L263.228,258.433z"/>
</g>
</svg>
