<?xml version="1.0" encoding="iso-8859-1"?>
<!-- Generator: Adobe Illustrator 16.0.0, SVG Export Plug-In . SVG Version: 6.00 Build 0)  -->
<!DOCTYPE svg PUBLIC "-//W3C//DTD SVG 1.1//EN" "http://www.w3.org/Graphics/SVG/1.1/DTD/svg11.dtd">
<svg version="1.1" id="Layer_1" xmlns="http://www.w3.org/2000/svg" xmlns:xlink="http://www.w3.org/1999/xlink" x="0px" y="0px"
	 width="425.197px" height="425.196px" viewBox="0 0 425.197 425.196" style="enable-background:new 0 0 425.197 425.196;"
	 xml:space="preserve">
<g id="LWPOLYLINE_6_">
	<path style="fill:#FFCD00;" d="M198.423,46.749L16.369,362.085c-4.521,7.825-1.837,17.833,5.988,22.352
		c2.488,1.438,5.309,2.195,8.184,2.195h364.117c9.038,0,16.367-7.326,16.367-16.364c0-2.875-0.761-5.698-2.198-8.183L226.774,46.749
		c-4.525-7.827-14.529-10.509-22.355-5.99C201.93,42.195,199.861,44.261,198.423,46.749z"/>
</g>
<g id="LWPOLYLINE_7_">
	<path style="fill:#E4002B;" d="M202.478,49.088L20.417,364.421c-3.229,5.593-1.313,12.741,4.276,15.968
		c1.779,1.024,3.794,1.566,5.847,1.566h364.117c6.453,0,11.688-5.234,11.688-11.688c0-2.053-0.542-4.067-1.566-5.847L222.719,49.088
		c-3.223-5.593-10.372-7.507-15.967-4.279C204.979,45.834,203.503,47.31,202.478,49.088z"/>
</g>
<g id="LWPOLYLINE_8_">
	<polygon style="fill:#FFCD00;" points="212.599,92.337 62.933,351.564 362.266,351.564 	"/>
</g>
<g id="LWPOLYLINE_21_">
	<polygon style="fill:#101820;" points="300.982,250.099 358.217,349.23 66.981,349.228 	"/>
</g>
<g id="LWPOLYLINE_23_">
	<path style="fill:#101820;" d="M166.927,289.945l68.903-29.288c-1.096-5.95,1.348-12,6.266-15.522
		c7.007-5.021,16.76-3.41,21.782,3.601l7.458-3.169c0.883-0.377,1.296-1.398,0.922-2.281l-5.15-12.112
		c-1.876-4.423-6.988-6.485-11.417-4.606l-27.209,11.567c-0.426,0.181-0.902,0.185-1.328,0.014l-29.188-11.777
		c-0.433-0.174-0.909-0.168-1.335,0.013l-55.998,23.806c-0.361,0.148-0.657,0.416-0.845,0.754l-17.669,31.835
		c-0.264,0.468-0.29,1.034-0.083,1.524l8.219,19.339c0.38,0.886,1.398,1.299,2.288,0.922l6.337-2.695
		c-1.097-5.949,1.347-11.999,6.266-15.522C152.159,281.323,161.913,282.936,166.927,289.945z"/>
</g>
<g id="LWPOLYLINE_24_">
	<path style="fill:#FFCD00;" d="M194.408,233.835l-19.558,8.315c-0.884,0.374-1.296,1.389-0.922,2.269l6.021,14.343
		c0.374,0.884,1.393,1.296,2.275,0.929c0.007-0.007,32.844-13.969,32.844-13.969c0.876-0.374,1.289-1.393,0.915-2.275
		c-0.174-0.403-0.49-0.726-0.883-0.906l-19.332-8.68c-0.445-0.199-0.948-0.206-1.393-0.016L194.408,233.835z"/>
</g>
<g id="LWPOLYLINE_25_">
	<path style="fill:#FFCD00;" d="M144.43,275.702l29.06-12.354c0.877-0.377,1.296-1.393,0.922-2.279l-6.04-14.381
		c-0.374-0.89-1.393-1.306-2.282-0.935c-0.007,0.006-17.869,7.606-17.869,7.606c-0.496,0.206-0.863,0.632-1.005,1.153l-5.093,19.12
		c-0.252,0.928,0.303,1.882,1.231,2.13c0.374,0.101,0.773,0.074,1.128-0.08L144.43,275.702z"/>
</g>
<g id="LWPOLYLINE_26_">
	<path style="fill:#FFCD00;" d="M275.558,302.006c0,4.132,3.353,7.481,7.484,7.481c4.126,0,7.478-3.35,7.478-7.481v-3.741
		c0-4.133-3.352-7.479-7.478-7.479c-4.132,0-7.484,3.346-7.484,7.479V302.006z"/>
</g>
<g id="LWPOLYLINE_28_">
	<path style="fill:#FFCD00;" d="M297.94,330.057c0,4.132,3.352,7.484,7.483,7.484s7.478-3.353,7.478-7.484v-3.738
		c0-4.133-3.346-7.481-7.478-7.481s-7.483,3.349-7.483,7.481V330.057z"/>
</g>
<g id="LWPOLYLINE_30_">
	<path style="fill:#FFCD00;" d="M265.979,303.641v7.316c-1.669,9.711-5.743,18.849-11.854,26.584h-9.353
		c5.395-5.45,9.521-12.025,12.073-19.255c-1.205,0.367-2.463,0.551-3.726,0.551c-7.098,0-12.854-5.756-12.854-12.856v-2.34
		c0-7.101,5.756-12.857,12.854-12.857C260.223,290.783,265.979,296.54,265.979,303.641z"/>
</g>
<g id="LWPOLYLINE_34_">
	<polygon style="fill:#FFCD00;" points="314.281,296.03 278.904,338.198 273.889,333.989 309.272,291.824 	"/>
</g>
<g id="LWPOLYLINE_27_">
	<path style="fill:#101820;" d="M281.167,302.006c0,1.035,0.838,1.873,1.876,1.873c1.031,0,1.869-0.838,1.869-1.873v-3.741
		c0-1.032-0.838-1.87-1.869-1.87c-1.038,0-1.876,0.838-1.876,1.87V302.006z"/>
</g>
<g id="LWPOLYLINE_29_">
	<path style="fill:#101820;" d="M303.554,330.057c0,1.035,0.831,1.873,1.869,1.873c1.031,0,1.87-0.838,1.87-1.873v-3.738
		c0-1.032-0.839-1.87-1.87-1.87c-1.038,0-1.869,0.838-1.869,1.87V330.057z"/>
</g>
<g id="LWPOLYLINE_31_">
	<path style="fill:#101820;" d="M247.279,303.641v2.34c0,3.227,2.611,5.843,5.841,5.843s5.847-2.616,5.847-5.843v-2.34
		c0-3.227-2.617-5.844-5.847-5.844S247.279,300.414,247.279,303.641z"/>
</g>
<g id="CIRCLE_2_">
	<path style="fill:#101820;" d="M166.276,299.64c0-6.502-5.273-11.777-11.781-11.777c-6.507,0-11.78,5.275-11.78,11.777
		c0,6.508,5.273,11.78,11.78,11.78C161.003,311.42,166.276,306.147,166.276,299.64L166.276,299.64z"/>
</g>
<g id="CIRCLE_3_">
	<path style="fill:#101820;" d="M263.228,258.433c0-6.505-5.278-11.778-11.78-11.778c-6.508,0-11.78,5.273-11.78,11.778
		c0,6.504,5.272,11.777,11.78,11.777C257.95,270.21,263.228,264.937,263.228,258.433L263.228,258.433z"/>
</g>
</svg>
