<?xml version="1.0" encoding="UTF-8" standalone="no"?>
<!-- Generator: Adobe Illustrator 16.0.0, SVG Export Plug-In . SVG Version: 6.00 Build 0)  -->

<svg
   xmlns:dc="http://purl.org/dc/elements/1.1/"
   xmlns:cc="http://creativecommons.org/ns#"
   xmlns:rdf="http://www.w3.org/1999/02/22-rdf-syntax-ns#"
   xmlns:svg="http://www.w3.org/2000/svg"
   xmlns="http://www.w3.org/2000/svg"
   xmlns:sodipodi="http://sodipodi.sourceforge.net/DTD/sodipodi-0.dtd"
   xmlns:inkscape="http://www.inkscape.org/namespaces/inkscape"
   version="1.1"
   id="Layer_1"
   x="0px"
   y="0px"
   width="396.84903"
   height="348.06516"
   viewBox="0 0 396.84904 348.06514"
   xml:space="preserve"
   sodipodi:docname="A3.1_2.svg"
   inkscape:version="0.92.5 (2060ec1f9f, 2020-04-08)"><metadata
   id="metadata983"><rdf:RDF><cc:Work
       rdf:about=""><dc:format>image/svg+xml</dc:format><dc:type
         rdf:resource="http://purl.org/dc/dcmitype/StillImage" /></cc:Work></rdf:RDF></metadata><defs
   id="defs981" /><sodipodi:namedview
   pagecolor="#ffffff"
   bordercolor="#666666"
   borderopacity="1"
   objecttolerance="10"
   gridtolerance="10"
   guidetolerance="10"
   inkscape:pageopacity="0"
   inkscape:pageshadow="2"
   inkscape:window-width="640"
   inkscape:window-height="480"
   id="namedview979"
   showgrid="false"
   inkscape:zoom="0.55503813"
   inkscape:cx="198.42452"
   inkscape:cy="174.03199"
   inkscape:window-x="0"
   inkscape:window-y="0"
   inkscape:window-maximized="0"
   inkscape:current-layer="Layer_1" />
<g
   id="LWPOLYLINE_6_"
   transform="translate(-14.17397,-38.564859)">
	<path
   style="fill:#ffcd00"
   d="M 198.428,46.75 16.37,362.088 c -4.521,7.824 -1.837,17.834 5.99,22.354 2.487,1.434 5.311,2.188 8.181,2.188 h 364.12 c 9.041,0 16.362,-7.326 16.362,-16.362 0,-2.873 -0.755,-5.694 -2.188,-8.181 L 226.776,46.75 c -4.519,-7.827 -14.532,-10.509 -22.356,-5.99 -2.487,1.435 -4.553,3.503 -5.992,5.99 z"
   id="path933"
   inkscape:connector-curvature="0" />
</g>
<g
   id="LWPOLYLINE_7_"
   transform="translate(-14.17397,-38.564859)">
	<path
   style="fill:#e4002b"
   d="M 202.478,49.088 20.42,364.423 c -3.228,5.591 -1.314,12.739 4.278,15.97 1.776,1.024 3.792,1.563 5.843,1.563 h 364.12 c 6.455,0 11.692,-5.231 11.692,-11.687 0,-2.054 -0.544,-4.067 -1.568,-5.846 L 222.726,49.088 c -3.23,-5.592 -10.376,-7.508 -15.971,-4.278 -1.774,1.024 -3.248,2.5 -4.277,4.278 z"
   id="path936"
   inkscape:connector-curvature="0" />
</g>
<g
   id="LWPOLYLINE_8_"
   transform="translate(-14.17397,-38.564859)">
	<polygon
   style="fill:#ffcd00"
   points="362.269,351.565 212.602,92.338 62.936,351.565 "
   id="polygon939" />
</g>
<g
   id="LWPOLYLINE_18_"
   transform="translate(-14.17397,-38.564859)">
	<polygon
   style="fill:#101820"
   points="66.985,349.228 300.986,250.102 358.219,349.233 "
   id="polygon942" />
</g>
<g
   id="LWPOLYLINE_19_"
   transform="translate(-14.17397,-38.564859)">
	<path
   style="fill:#101820"
   d="m 166.932,289.948 68.903,-29.289 c -1.094,-5.952 1.346,-12 6.268,-15.523 7.005,-5.021 16.761,-3.408 21.781,3.603 l 7.456,-3.172 c 0.884,-0.375 1.299,-1.396 0.925,-2.282 l -5.15,-12.107 c -1.878,-4.424 -6.993,-6.49 -11.417,-4.605 l -27.207,11.563 c -0.427,0.182 -0.906,0.188 -1.334,0.012 l -29.185,-11.773 c -0.433,-0.172 -0.912,-0.169 -1.334,0.012 l -56.004,23.806 c -0.357,0.152 -0.65,0.416 -0.837,0.755 l -17.673,31.836 c -0.264,0.468 -0.293,1.029 -0.082,1.527 l 8.222,19.335 c 0.375,0.887 1.399,1.299 2.282,0.925 l 6.344,-2.698 c -1.1,-5.951 1.34,-12 6.262,-15.525 7.009,-5.026 16.758,-3.41 21.78,3.6 z"
   id="path945"
   inkscape:connector-curvature="0" />
</g>
<g
   id="CIRCLE_2_"
   transform="translate(-14.17397,-38.564859)">
	<path
   style="fill:#101820"
   d="m 166.276,299.64 c 0,-6.502 -5.273,-11.777 -11.781,-11.777 -6.507,0 -11.78,5.275 -11.78,11.777 0,6.508 5.273,11.78 11.78,11.78 6.508,0 11.781,-5.273 11.781,-11.78 z"
   id="path948"
   inkscape:connector-curvature="0" />
</g>
<g
   id="CIRCLE_3_"
   transform="translate(-14.17397,-38.564859)">
	<path
   style="fill:#101820"
   d="m 263.228,258.433 c 0,-6.505 -5.278,-11.778 -11.78,-11.778 -6.508,0 -11.78,5.273 -11.78,11.778 0,6.504 5.272,11.777 11.78,11.777 6.502,0 11.78,-5.273 11.78,-11.777 z"
   id="path951"
   inkscape:connector-curvature="0" />
</g>
<g
   id="LWPOLYLINE_20_"
   transform="translate(-14.17397,-38.564859)">
	<path
   style="fill:#ffcd00"
   d="m 194.407,233.834 -19.558,8.32 c -0.878,0.375 -1.288,1.387 -0.919,2.268 l 6.021,14.341 c 0.369,0.884 1.388,1.299 2.271,0.928 0.006,-0.003 32.843,-13.966 32.843,-13.966 0.883,-0.378 1.293,-1.396 0.918,-2.276 -0.169,-0.404 -0.485,-0.726 -0.884,-0.907 l -19.33,-8.678 c -0.444,-0.199 -0.948,-0.205 -1.393,-0.018 z"
   id="path954"
   inkscape:connector-curvature="0" />
</g>
<g
   id="LWPOLYLINE_21_"
   transform="translate(-14.17397,-38.564859)">
	<path
   style="fill:#ffcd00"
   d="m 144.436,275.705 29.056,-12.354 c 0.877,-0.374 1.293,-1.393 0.924,-2.276 l -6.045,-14.385 c -0.375,-0.889 -1.393,-1.305 -2.276,-0.933 -0.012,0.003 -17.873,7.604 -17.873,7.604 -0.497,0.211 -0.866,0.635 -1,1.152 l -5.097,19.122 c -0.251,0.928 0.304,1.882 1.229,2.13 0.38,0.1 0.772,0.073 1.129,-0.078 z"
   id="path957"
   inkscape:connector-curvature="0" />
</g>
<g
   id="LWPOLYLINE_22_"
   transform="translate(-14.17397,-38.564859)">
	<path
   style="fill:#ffcd00"
   d="m 275.565,301.881 c 0,4.132 3.347,7.482 7.479,7.482 4.132,0 7.479,-3.351 7.479,-7.482 v -3.739 c 0,-4.132 -3.347,-7.479 -7.479,-7.479 -4.132,0 -7.479,3.348 -7.479,7.479 z"
   id="path960"
   inkscape:connector-curvature="0" />
</g>
<g
   id="LWPOLYLINE_24_"
   transform="translate(-14.17397,-38.564859)">
	<path
   style="fill:#ffcd00"
   d="m 297.943,329.936 c 0,4.132 3.354,7.479 7.485,7.479 4.131,0 7.479,-3.348 7.479,-7.479 v -3.742 c 0,-4.131 -3.348,-7.481 -7.479,-7.481 -4.132,0 -7.485,3.351 -7.485,7.481 z"
   id="path963"
   inkscape:connector-curvature="0" />
</g>
<g
   id="LWPOLYLINE_27_"
   transform="translate(-14.17397,-38.564859)">
	<path
   style="fill:#ffcd00"
   d="m 242.061,290.785 v 7.014 h 15.467 c -0.731,3.752 -1.872,7.412 -3.405,10.914 -2.851,7.096 -4.313,14.669 -4.313,22.314 v 6.546 h 7.011 v -8.884 c 0,-7.798 1.487,-15.525 4.372,-22.768 1.615,-4.896 2.575,-9.986 2.844,-15.137 h -21.976 z"
   id="path966"
   inkscape:connector-curvature="0" />
</g>
<g
   id="LWPOLYLINE_28_"
   transform="translate(-14.17397,-38.564859)">
	<polygon
   style="fill:#ffcd00"
   points="273.897,333.869 309.273,291.701 314.288,295.906 278.906,338.07 "
   id="polygon969" />
</g>
<g
   id="LWPOLYLINE_23_"
   transform="translate(-14.17397,-38.564859)">
	<path
   style="fill:#101820"
   d="m 281.17,301.881 c 0,1.036 0.837,1.873 1.873,1.873 1.03,0 1.873,-0.837 1.873,-1.873 v -3.739 c 0,-1.033 -0.843,-1.87 -1.873,-1.87 -1.036,0 -1.873,0.837 -1.873,1.87 z"
   id="path972"
   inkscape:connector-curvature="0" />
</g>
<g
   id="LWPOLYLINE_25_"
   transform="translate(-14.17397,-38.564859)">
	<path
   style="fill:#101820"
   d="m 303.555,329.936 c 0,1.03 0.837,1.87 1.873,1.87 1.029,0 1.866,-0.84 1.866,-1.87 v -3.742 c 0,-1.032 -0.837,-1.869 -1.866,-1.869 -1.036,0 -1.873,0.837 -1.873,1.869 z"
   id="path975"
   inkscape:connector-curvature="0" />
</g>
</svg>