<?xml version="1.0" encoding="UTF-8" standalone="no"?>
<!-- Generator: Adobe Illustrator 16.0.0, SVG Export Plug-In . SVG Version: 6.00 Build 0)  -->

<svg
   xmlns:dc="http://purl.org/dc/elements/1.1/"
   xmlns:cc="http://creativecommons.org/ns#"
   xmlns:rdf="http://www.w3.org/1999/02/22-rdf-syntax-ns#"
   xmlns:svg="http://www.w3.org/2000/svg"
   xmlns="http://www.w3.org/2000/svg"
   xmlns:sodipodi="http://sodipodi.sourceforge.net/DTD/sodipodi-0.dtd"
   xmlns:inkscape="http://www.inkscape.org/namespaces/inkscape"
   version="1.1"
   id="Layer_1"
   x="0px"
   y="0px"
   width="396.85056"
   height="348.06815"
   viewBox="0 0 396.85056 348.06813"
   xml:space="preserve"
   sodipodi:docname="A3.1_3.svg"
   inkscape:version="0.92.5 (2060ec1f9f, 2020-04-08)"><metadata
   id="metadata1041"><rdf:RDF><cc:Work
       rdf:about=""><dc:format>image/svg+xml</dc:format><dc:type
         rdf:resource="http://purl.org/dc/dcmitype/StillImage" /></cc:Work></rdf:RDF></metadata><defs
   id="defs1039" /><sodipodi:namedview
   pagecolor="#ffffff"
   bordercolor="#666666"
   borderopacity="1"
   objecttolerance="10"
   gridtolerance="10"
   guidetolerance="10"
   inkscape:pageopacity="0"
   inkscape:pageshadow="2"
   inkscape:window-width="640"
   inkscape:window-height="480"
   id="namedview1037"
   showgrid="false"
   inkscape:zoom="0.55503813"
   inkscape:cx="198.42504"
   inkscape:cy="174.03399"
   inkscape:window-x="0"
   inkscape:window-y="0"
   inkscape:window-maximized="0"
   inkscape:current-layer="Layer_1" />
<g
   id="LWPOLYLINE_15_"
   transform="translate(-14.173455,-38.563859)">
	<path
   style="fill:#ffcd00"
   d="M 198.426,46.749 16.37,362.085 c -4.522,7.825 -1.837,17.833 5.988,22.352 2.488,1.438 5.309,2.195 8.184,2.195 h 364.116 c 9.037,0 16.366,-7.326 16.366,-16.364 0,-2.875 -0.757,-5.698 -2.194,-8.183 L 226.773,46.749 c -4.522,-7.827 -14.529,-10.509 -22.355,-5.99 -2.489,1.436 -4.554,3.502 -5.992,5.99 z"
   id="path985"
   inkscape:connector-curvature="0" />
</g>
<g
   id="LWPOLYLINE_14_"
   transform="translate(-14.173455,-38.563859)">
	<path
   style="fill:#e4002b"
   d="M 202.477,49.088 20.418,364.421 c -3.23,5.593 -1.312,12.741 4.277,15.968 1.779,1.024 3.793,1.566 5.847,1.566 h 364.116 c 6.455,0 11.689,-5.234 11.689,-11.688 0,-2.053 -0.541,-4.067 -1.566,-5.847 L 222.721,49.088 c -3.226,-5.593 -10.375,-7.507 -15.967,-4.279 -1.776,1.025 -3.252,2.501 -4.277,4.279 z"
   id="path988"
   inkscape:connector-curvature="0" />
</g>
<g
   id="LWPOLYLINE_13_"
   transform="translate(-14.173455,-38.563859)">
	<polygon
   style="fill:#ffcd00"
   points="362.265,351.564 212.598,92.337 62.934,351.564 "
   id="polygon991" />
</g>
<g
   id="LWPOLYLINE_19_"
   transform="translate(-14.173455,-38.563859)">
	<polygon
   style="fill:#101820"
   points="66.981,349.228 300.985,250.099 358.22,349.23 "
   id="polygon994" />
</g>
<g
   id="LWPOLYLINE_11_"
   transform="translate(-14.173455,-38.563859)">
	<path
   style="fill:#101820"
   d="m 166.93,289.945 68.903,-29.288 c -1.096,-5.95 1.345,-12 6.263,-15.522 7.011,-5.021 16.764,-3.41 21.785,3.601 l 7.458,-3.169 c 0.883,-0.377 1.296,-1.398 0.919,-2.281 l -5.147,-12.112 c -1.879,-4.423 -6.991,-6.485 -11.416,-4.606 l -27.21,11.567 c -0.425,0.181 -0.902,0.185 -1.331,0.014 l -29.188,-11.777 c -0.429,-0.174 -0.906,-0.168 -1.331,0.013 l -56.002,23.806 c -0.357,0.148 -0.654,0.416 -0.841,0.754 L 122.12,282.78 c -0.261,0.467 -0.29,1.034 -0.081,1.524 l 8.219,19.339 c 0.377,0.886 1.399,1.299 2.285,0.922 l 6.34,-2.695 c -1.096,-5.949 1.344,-11.999 6.266,-15.522 7.009,-5.025 16.762,-3.412 21.781,3.597 z"
   id="path997"
   inkscape:connector-curvature="0" />
</g>
<g
   id="LWPOLYLINE_9_"
   transform="translate(-14.173455,-38.563859)">
	<path
   style="fill:#ffcd00"
   d="m 194.407,233.835 -19.558,8.315 c -0.88,0.374 -1.293,1.389 -0.922,2.269 l 6.023,14.343 c 0.371,0.884 1.39,1.296 2.272,0.929 0.007,-0.007 32.844,-13.969 32.844,-13.969 0.88,-0.374 1.292,-1.393 0.915,-2.275 -0.171,-0.403 -0.486,-0.726 -0.883,-0.906 l -19.332,-8.68 c -0.441,-0.2 -0.944,-0.206 -1.39,-0.016 z"
   id="path1000"
   inkscape:connector-curvature="0" />
</g>
<g
   id="LWPOLYLINE_8_"
   transform="translate(-14.173455,-38.563859)">
	<path
   style="fill:#ffcd00"
   d="m 144.433,275.702 29.056,-12.354 c 0.88,-0.377 1.296,-1.393 0.922,-2.279 l -6.041,-14.381 c -0.374,-0.89 -1.392,-1.306 -2.278,-0.935 -0.01,0.006 -17.872,7.606 -17.872,7.606 -0.493,0.206 -0.864,0.632 -1.002,1.153 l -5.096,19.12 c -0.248,0.928 0.303,1.882 1.231,2.13 0.377,0.1 0.774,0.074 1.131,-0.08 z"
   id="path1003"
   inkscape:connector-curvature="0" />
</g>
<g
   id="LWPOLYLINE_7_"
   transform="translate(-14.173455,-38.563859)">
	<path
   style="fill:#ffcd00"
   d="m 275.561,302.006 c 0,4.132 3.349,7.481 7.48,7.481 4.129,0 7.48,-3.35 7.48,-7.481 v -3.742 c 0,-4.132 -3.352,-7.478 -7.48,-7.478 -4.132,0 -7.48,3.346 -7.48,7.478 z"
   id="path1006"
   inkscape:connector-curvature="0" />
</g>
<g
   id="LWPOLYLINE_30_"
   transform="translate(-14.173455,-38.563859)">
	<path
   style="fill:#ffcd00"
   d="m 297.942,330.057 c 0,4.132 3.349,7.484 7.48,7.484 4.131,0 7.481,-3.353 7.481,-7.484 v -3.738 c 0,-4.133 -3.35,-7.481 -7.481,-7.481 -4.131,0 -7.48,3.349 -7.48,7.481 z"
   id="path1009"
   inkscape:connector-curvature="0" />
</g>
<g
   id="LWPOLYLINE_33_"
   transform="translate(-14.173455,-38.563859)">
	<path
   style="fill:#ffcd00"
   d="m 244.32,312.033 c -2.589,2.434 -4.055,5.827 -4.055,9.376 v 3.271 c 0,7.104 5.756,12.86 12.856,12.86 7.1,0 12.857,-5.757 12.857,-12.86 v -3.271 c 0,-3.549 -1.467,-6.942 -4.055,-9.376 1.859,-2.127 2.888,-4.86 2.888,-7.69 v -1.869 c 0,-6.456 -5.234,-11.69 -11.69,-11.69 -6.456,0 -11.69,5.234 -11.69,11.69 v 1.869 c 0,2.83 1.028,5.563 2.889,7.69 z"
   id="path1012"
   inkscape:connector-curvature="0" />
</g>
<g
   id="LWPOLYLINE_36_"
   transform="translate(-14.173455,-38.563859)">
	
		<rect
   x="266.565"
   y="311.737"
   transform="matrix(0.6428,-0.7661,0.7661,0.6428,-136.259,337.8284)"
   style="fill:#ffcd00"
   width="55.043999"
   height="6.5450001"
   id="rect1015" />
</g>
<g
   id="LWPOLYLINE_6_"
   transform="translate(-14.173455,-38.563859)">
	<path
   style="fill:#101820"
   d="m 281.168,302.006 c 0,1.035 0.839,1.873 1.873,1.873 1.031,0 1.869,-0.838 1.869,-1.873 v -3.742 c 0,-1.031 -0.838,-1.869 -1.869,-1.869 -1.034,0 -1.873,0.838 -1.873,1.869 z"
   id="path1018"
   inkscape:connector-curvature="0" />
</g>
<g
   id="LWPOLYLINE_5_"
   transform="translate(-14.173455,-38.563859)">
	<path
   style="fill:#101820"
   d="m 303.553,330.057 c 0,1.034 0.835,1.873 1.869,1.873 1.031,0 1.87,-0.839 1.87,-1.873 v -3.738 c 0,-1.032 -0.839,-1.87 -1.87,-1.87 -1.034,0 -1.869,0.838 -1.869,1.87 z"
   id="path1021"
   inkscape:connector-curvature="0" />
</g>
<g
   id="LWPOLYLINE_4_"
   transform="translate(-14.173455,-38.563859)">
	<path
   style="fill:#101820"
   d="m 247.278,324.681 c 0,3.229 2.614,5.847 5.844,5.847 3.227,0 5.844,-2.617 5.844,-5.847 v -3.271 c 0,-3.227 -2.617,-5.844 -5.844,-5.844 -3.229,0 -5.844,2.617 -5.844,5.844 z"
   id="path1024"
   inkscape:connector-curvature="0" />
</g>
<g
   id="LWPOLYLINE_34_"
   transform="translate(-14.173455,-38.563859)">
	<path
   style="fill:#101820"
   d="m 248.445,302.474 v 1.869 c 0,2.582 2.095,4.674 4.677,4.674 2.582,0 4.677,-2.092 4.677,-4.674 v -1.869 c 0,-2.585 -2.095,-4.677 -4.677,-4.677 -2.582,0 -4.677,2.092 -4.677,4.677 z"
   id="path1027"
   inkscape:connector-curvature="0" />
</g>
<g
   id="CIRCLE_2_"
   transform="translate(-14.173455,-38.563859)">
	<path
   style="fill:#101820"
   d="m 166.276,299.64 c 0,-6.502 -5.273,-11.777 -11.781,-11.777 -6.507,0 -11.78,5.275 -11.78,11.777 0,6.508 5.273,11.78 11.78,11.78 6.508,0 11.781,-5.273 11.781,-11.78 z"
   id="path1030"
   inkscape:connector-curvature="0" />
</g>
<g
   id="CIRCLE_3_"
   transform="translate(-14.173455,-38.563859)">
	<path
   style="fill:#101820"
   d="m 263.228,258.433 c 0,-6.505 -5.278,-11.778 -11.78,-11.778 -6.508,0 -11.78,5.273 -11.78,11.778 0,6.504 5.272,11.777 11.78,11.777 6.502,0 11.78,-5.273 11.78,-11.777 z"
   id="path1033"
   inkscape:connector-curvature="0" />
</g>
</svg>