<?xml version="1.0" encoding="iso-8859-1"?>
<!-- Generator: Adobe Illustrator 16.0.0, SVG Export Plug-In . SVG Version: 6.00 Build 0)  -->
<!DOCTYPE svg PUBLIC "-//W3C//DTD SVG 1.1//EN" "http://www.w3.org/Graphics/SVG/1.1/DTD/svg11.dtd">
<svg version="1.1" id="Layer_1" xmlns="http://www.w3.org/2000/svg" xmlns:xlink="http://www.w3.org/1999/xlink" x="0px" y="0px"
	 width="425.197px" height="425.196px" viewBox="0 0 425.197 425.196" style="enable-background:new 0 0 425.197 425.196;"
	 xml:space="preserve">
<g id="LWPOLYLINE_15_">
	<path style="fill:#FFCD00;" d="M198.426,46.749L16.37,362.085c-4.522,7.825-1.837,17.833,5.988,22.352
		c2.488,1.438,5.309,2.195,8.184,2.195h364.116c9.037,0,16.366-7.326,16.366-16.364c0-2.875-0.757-5.698-2.194-8.183L226.773,46.749
		c-4.522-7.827-14.529-10.509-22.355-5.99C201.929,42.195,199.864,44.261,198.426,46.749z"/>
</g>
<g id="LWPOLYLINE_14_">
	<path style="fill:#E4002B;" d="M202.477,49.088L20.418,364.421c-3.23,5.593-1.312,12.741,4.277,15.968
		c1.779,1.024,3.793,1.566,5.847,1.566h364.116c6.455,0,11.689-5.234,11.689-11.688c0-2.053-0.541-4.067-1.566-5.847L222.721,49.088
		c-3.226-5.593-10.375-7.507-15.967-4.279C204.978,45.834,203.502,47.31,202.477,49.088z"/>
</g>
<g id="LWPOLYLINE_13_">
	<polygon style="fill:#FFCD00;" points="212.598,92.337 62.934,351.564 362.265,351.564 	"/>
</g>
<g id="LWPOLYLINE_19_">
	<polygon style="fill:#101820;" points="300.985,250.099 358.22,349.23 66.981,349.228 	"/>
</g>
<g id="LWPOLYLINE_11_">
	<path style="fill:#101820;" d="M166.93,289.945l68.903-29.288c-1.096-5.95,1.345-12,6.263-15.522
		c7.011-5.021,16.764-3.41,21.785,3.601l7.458-3.169c0.883-0.377,1.296-1.398,0.919-2.281l-5.147-12.112
		c-1.879-4.423-6.991-6.485-11.416-4.606l-27.21,11.567c-0.425,0.181-0.902,0.185-1.331,0.014l-29.188-11.777
		c-0.429-0.174-0.906-0.168-1.331,0.013l-56.002,23.806c-0.357,0.148-0.654,0.416-0.841,0.754l-17.672,31.835
		c-0.261,0.467-0.29,1.034-0.081,1.524l8.219,19.339c0.377,0.886,1.399,1.299,2.285,0.922l6.34-2.695
		c-1.096-5.949,1.344-11.999,6.266-15.522C152.158,281.323,161.911,282.936,166.93,289.945z"/>
</g>
<g id="LWPOLYLINE_9_">
	<path style="fill:#FFCD00;" d="M194.407,233.835l-19.558,8.315c-0.88,0.374-1.293,1.389-0.922,2.269l6.023,14.343
		c0.371,0.884,1.39,1.296,2.272,0.929c0.007-0.007,32.844-13.969,32.844-13.969c0.88-0.374,1.292-1.393,0.915-2.275
		c-0.171-0.403-0.486-0.726-0.883-0.906l-19.332-8.68c-0.441-0.2-0.944-0.206-1.39-0.016L194.407,233.835z"/>
</g>
<g id="LWPOLYLINE_8_">
	<path style="fill:#FFCD00;" d="M144.433,275.702l29.056-12.354c0.88-0.377,1.296-1.393,0.922-2.279l-6.041-14.381
		c-0.374-0.89-1.392-1.306-2.278-0.935c-0.01,0.006-17.872,7.606-17.872,7.606c-0.493,0.206-0.864,0.632-1.002,1.153l-5.096,19.12
		c-0.248,0.928,0.303,1.882,1.231,2.13c0.377,0.1,0.774,0.074,1.131-0.08L144.433,275.702z"/>
</g>
<g id="LWPOLYLINE_7_">
	<path style="fill:#FFCD00;" d="M275.561,302.006c0,4.132,3.349,7.481,7.48,7.481c4.129,0,7.48-3.35,7.48-7.481v-3.742
		c0-4.132-3.352-7.478-7.48-7.478c-4.132,0-7.48,3.346-7.48,7.478V302.006z"/>
</g>
<g id="LWPOLYLINE_30_">
	<path style="fill:#FFCD00;" d="M297.942,330.057c0,4.132,3.349,7.484,7.48,7.484s7.481-3.353,7.481-7.484v-3.738
		c0-4.133-3.35-7.481-7.481-7.481s-7.48,3.349-7.48,7.481V330.057z"/>
</g>
<g id="LWPOLYLINE_33_">
	<path style="fill:#FFCD00;" d="M244.32,312.033c-2.589,2.434-4.055,5.827-4.055,9.376v3.271c0,7.104,5.756,12.86,12.856,12.86
		s12.857-5.757,12.857-12.86v-3.271c0-3.549-1.467-6.942-4.055-9.376c1.859-2.127,2.888-4.86,2.888-7.69v-1.869
		c0-6.456-5.234-11.69-11.69-11.69s-11.69,5.234-11.69,11.69v1.869C241.431,307.173,242.459,309.906,244.32,312.033z"/>
</g>
<g id="LWPOLYLINE_36_">
	
		<rect x="266.565" y="311.737" transform="matrix(0.6428 -0.7661 0.7661 0.6428 -136.259 337.8284)" style="fill:#FFCD00;" width="55.044" height="6.545"/>
</g>
<g id="LWPOLYLINE_6_">
	<path style="fill:#101820;" d="M281.168,302.006c0,1.035,0.839,1.873,1.873,1.873c1.031,0,1.869-0.838,1.869-1.873v-3.742
		c0-1.031-0.838-1.869-1.869-1.869c-1.034,0-1.873,0.838-1.873,1.869V302.006z"/>
</g>
<g id="LWPOLYLINE_5_">
	<path style="fill:#101820;" d="M303.553,330.057c0,1.034,0.835,1.873,1.869,1.873c1.031,0,1.87-0.839,1.87-1.873v-3.738
		c0-1.032-0.839-1.87-1.87-1.87c-1.034,0-1.869,0.838-1.869,1.87V330.057z"/>
</g>
<g id="LWPOLYLINE_4_">
	<path style="fill:#101820;" d="M247.278,324.681c0,3.229,2.614,5.847,5.844,5.847c3.227,0,5.844-2.617,5.844-5.847v-3.271
		c0-3.227-2.617-5.844-5.844-5.844c-3.229,0-5.844,2.617-5.844,5.844V324.681z"/>
</g>
<g id="LWPOLYLINE_34_">
	<path style="fill:#101820;" d="M248.445,302.474v1.869c0,2.582,2.095,4.674,4.677,4.674s4.677-2.092,4.677-4.674v-1.869
		c0-2.585-2.095-4.677-4.677-4.677S248.445,299.889,248.445,302.474z"/>
</g>
<g id="CIRCLE_2_">
	<path style="fill:#101820;" d="M166.276,299.64c0-6.502-5.273-11.777-11.781-11.777c-6.507,0-11.78,5.275-11.78,11.777
		c0,6.508,5.273,11.78,11.78,11.78C161.003,311.42,166.276,306.147,166.276,299.64L166.276,299.64z"/>
</g>
<g id="CIRCLE_3_">
	<path style="fill:#101820;" d="M263.228,258.433c0-6.505-5.278-11.778-11.78-11.778c-6.508,0-11.78,5.273-11.78,11.778
		c0,6.504,5.272,11.777,11.78,11.777C257.95,270.21,263.228,264.937,263.228,258.433L263.228,258.433z"/>
</g>
</svg>
