<?xml version="1.0" encoding="iso-8859-1"?>
<!-- Generator: Adobe Illustrator 16.0.0, SVG Export Plug-In . SVG Version: 6.00 Build 0)  -->
<!DOCTYPE svg PUBLIC "-//W3C//DTD SVG 1.1//EN" "http://www.w3.org/Graphics/SVG/1.1/DTD/svg11.dtd">
<svg version="1.1" id="Layer_1" xmlns="http://www.w3.org/2000/svg" xmlns:xlink="http://www.w3.org/1999/xlink" x="0px" y="0px"
	 width="425.197px" height="425.196px" viewBox="0 0 425.197 425.196" style="enable-background:new 0 0 425.197 425.196;"
	 xml:space="preserve">
<g id="LWPOLYLINE_6_">
	<path style="fill:#FFCD00;" d="M198.425,46.748L16.369,362.085c-4.521,7.825-1.837,17.833,5.988,22.352
		c2.488,1.438,5.309,2.195,8.184,2.195h364.117c9.038,0,16.367-7.326,16.367-16.364c0-2.875-0.761-5.698-2.198-8.183L226.772,46.748
		c-4.522-7.826-14.529-10.508-22.355-5.989C201.928,42.196,199.863,44.26,198.425,46.748z"/>
</g>
<g id="LWPOLYLINE_7_">
	<path style="fill:#E4002B;" d="M202.476,49.088L20.417,364.421c-3.23,5.593-1.313,12.741,4.276,15.968
		c1.779,1.024,3.794,1.566,5.847,1.566h364.117c6.453,0,11.688-5.234,11.688-11.688c0-2.053-0.542-4.067-1.566-5.847L222.72,49.088
		c-3.226-5.593-10.375-7.507-15.967-4.28C204.977,45.832,203.501,47.309,202.476,49.088z"/>
</g>
<g id="LWPOLYLINE_8_">
	<polygon style="fill:#FFCD00;" points="212.597,92.335 62.933,351.564 362.266,351.564 	"/>
</g>
<g id="LWPOLYLINE_16_">
	<polygon style="fill:#101820;" points="124.213,250.099 66.978,349.23 358.211,349.228 	"/>
</g>
<g id="LWPOLYLINE_29_">
	<path style="fill:#101820;" d="M189.236,260.464l68.938,29.201c3.52-4.925,9.565-7.371,15.516-6.282
		c8.483,1.554,14.098,9.686,12.551,18.169l7.458,3.158c0.883,0.377,1.908-0.035,2.282-0.922l5.131-12.118
		c1.876-4.426-0.193-9.534-4.622-11.41l-27.222-11.532c-0.426-0.181-0.761-0.521-0.935-0.947l-11.81-29.172
		c-0.174-0.429-0.51-0.771-0.935-0.951l-56.032-23.734c-0.357-0.152-0.754-0.181-1.128-0.078l-35.174,9.408
		c-0.519,0.139-0.944,0.506-1.153,1.003l-8.196,19.348c-0.374,0.887,0.038,1.908,0.925,2.282l6.343,2.688
		c3.52-4.922,9.566-7.372,15.52-6.282C185.171,243.846,190.79,251.98,189.236,260.464z"/>
</g>
<g id="LWPOLYLINE_17_">
	<path style="fill:#FFCD00;" d="M145.759,302.01c0,4.132,3.349,7.478,7.481,7.478c4.132,0,7.48-3.346,7.48-7.478v-3.742
		c0-4.132-3.349-7.481-7.48-7.481c-4.133,0-7.481,3.35-7.481,7.481V302.01z"/>
</g>
<g id="LWPOLYLINE_19_">
	<path style="fill:#FFCD00;" d="M168.141,330.06c0,4.133,3.349,7.481,7.48,7.481s7.48-3.349,7.48-7.481v-3.742
		c0-4.132-3.349-7.477-7.48-7.477s-7.48,3.345-7.48,7.477V330.06z"/>
</g>
<g id="LWPOLYLINE_21_">
	<path style="fill:#FFCD00;" d="M136.18,303.644v7.313c-1.669,9.714-5.746,18.854-11.854,26.584h-9.353
		c5.395-5.447,9.518-12.022,12.073-19.255c-1.209,0.367-2.463,0.555-3.726,0.555c-7.101,0-12.857-5.757-12.857-12.86v-2.337
		c0-7.101,5.757-12.857,12.857-12.857S136.18,296.543,136.18,303.644z"/>
</g>
<g id="LWPOLYLINE_34_">
	
		<rect x="136.768" y="311.742" transform="matrix(0.6428 -0.766 0.766 0.6428 -182.628 238.3792)" style="fill:#FFCD00;" width="55.041" height="6.543"/>
</g>
<g id="LWPOLYLINE_18_">
	<path style="fill:#101820;" d="M151.371,302.01c0,1.031,0.835,1.869,1.87,1.869c1.031,0,1.869-0.838,1.869-1.869v-3.742
		c0-1.035-0.838-1.873-1.869-1.873c-1.035,0-1.87,0.838-1.87,1.873V302.01z"/>
</g>
<g id="LWPOLYLINE_20_">
	<path style="fill:#101820;" d="M173.752,330.06c0,1.035,0.838,1.87,1.869,1.87c1.034,0,1.869-0.835,1.869-1.87v-3.742
		c0-1.031-0.835-1.869-1.869-1.869c-1.031,0-1.869,0.838-1.869,1.869V330.06z"/>
</g>
<g id="LWPOLYLINE_22_">
	<path style="fill:#101820;" d="M117.477,303.644v2.337c0,3.229,2.617,5.847,5.844,5.847c3.229,0,5.847-2.617,5.847-5.847v-2.337
		c0-3.227-2.617-5.844-5.847-5.844C120.094,297.8,117.477,300.417,117.477,303.644z"/>
</g>
<g id="LWPOLYLINE_30_">
	<path style="fill:#FFCD00;" d="M248.684,241.235l-19.575-8.287c-0.88-0.374-1.896,0.035-2.27,0.912l-6.13,14.298
		c-0.377,0.88,0.032,1.901,0.912,2.275c0.006,0.007,32.864,13.917,32.864,13.917c0.883,0.374,1.901-0.038,2.275-0.922
		c0.168-0.402,0.181-0.854,0.032-1.263l-7.188-19.938c-0.161-0.451-0.509-0.818-0.954-1.006L248.684,241.235z"/>
</g>
<g id="LWPOLYLINE_31_">
	<path style="fill:#FFCD00;" d="M183.847,234.386l29.072,12.309c0.883,0.374,1.901-0.031,2.278-0.915l6.149-14.343
		c0.377-0.883-0.032-1.904-0.915-2.282c-0.007-0.006-17.885-7.574-17.885-7.574c-0.493-0.206-1.058-0.177-1.524,0.084l-17.295,9.618
		c-0.839,0.471-1.142,1.527-0.674,2.369c0.187,0.338,0.483,0.605,0.841,0.757L183.847,234.386z"/>
</g>
<g id="CIRCLE">
	<path style="fill:#101820;" d="M185.323,258.481c0-6.505-5.274-11.778-11.779-11.778s-11.779,5.273-11.779,11.778
		s5.274,11.779,11.779,11.779S185.323,264.986,185.323,258.481L185.323,258.481z"/>
</g>
<g id="CIRCLE_1_">
	<path style="fill:#101820;" d="M282.375,299.453c0-6.505-5.275-11.778-11.779-11.778c-6.506,0-11.778,5.273-11.778,11.778
		c0,6.506,5.272,11.778,11.778,11.778C277.099,311.231,282.375,305.959,282.375,299.453L282.375,299.453z"/>
</g>
</svg>
