<?xml version="1.0" encoding="UTF-8" standalone="no"?>
<!-- Generator: Adobe Illustrator 16.0.0, SVG Export Plug-In . SVG Version: 6.00 Build 0)  -->

<svg
   xmlns:dc="http://purl.org/dc/elements/1.1/"
   xmlns:cc="http://creativecommons.org/ns#"
   xmlns:rdf="http://www.w3.org/1999/02/22-rdf-syntax-ns#"
   xmlns:svg="http://www.w3.org/2000/svg"
   xmlns="http://www.w3.org/2000/svg"
   xmlns:sodipodi="http://sodipodi.sourceforge.net/DTD/sodipodi-0.dtd"
   xmlns:inkscape="http://www.inkscape.org/namespaces/inkscape"
   version="1.1"
   id="Layer_1"
   x="0px"
   y="0px"
   width="396.85211"
   height="348.06818"
   viewBox="0 0 396.85212 348.06816"
   xml:space="preserve"
   sodipodi:docname="A3.2_9.svg"
   inkscape:version="0.92.5 (2060ec1f9f, 2020-04-08)"><metadata
   id="metadata1802"><rdf:RDF><cc:Work
       rdf:about=""><dc:format>image/svg+xml</dc:format><dc:type
         rdf:resource="http://purl.org/dc/dcmitype/StillImage" /></cc:Work></rdf:RDF></metadata><defs
   id="defs1800" /><sodipodi:namedview
   pagecolor="#ffffff"
   bordercolor="#666666"
   borderopacity="1"
   objecttolerance="10"
   gridtolerance="10"
   guidetolerance="10"
   inkscape:pageopacity="0"
   inkscape:pageshadow="2"
   inkscape:window-width="640"
   inkscape:window-height="480"
   id="namedview1798"
   showgrid="false"
   inkscape:zoom="0.55503813"
   inkscape:cx="198.4256"
   inkscape:cy="174.03399"
   inkscape:window-x="0"
   inkscape:window-y="0"
   inkscape:window-maximized="0"
   inkscape:current-layer="Layer_1" />
<g
   id="LWPOLYLINE_6_"
   transform="translate(-14.172899,-38.563824)">
	<path
   style="fill:#ffcd00"
   d="M 198.423,46.748 16.369,362.085 c -4.521,7.825 -1.837,17.833 5.988,22.352 2.488,1.438 5.309,2.195 8.184,2.195 h 364.117 c 9.038,0 16.367,-7.326 16.367,-16.364 0,-2.875 -0.761,-5.698 -2.198,-8.183 L 226.774,46.748 c -4.525,-7.826 -14.529,-10.508 -22.355,-5.989 -2.489,1.437 -4.558,3.501 -5.996,5.989 z"
   id="path1749"
   inkscape:connector-curvature="0" />
</g>
<g
   id="LWPOLYLINE_7_"
   transform="translate(-14.172899,-38.563824)">
	<path
   style="fill:#e4002b"
   d="M 202.478,49.088 20.417,364.421 c -3.229,5.593 -1.313,12.741 4.276,15.968 1.779,1.024 3.794,1.566 5.847,1.566 h 364.117 c 6.453,0 11.688,-5.234 11.688,-11.688 0,-2.053 -0.542,-4.067 -1.566,-5.847 L 222.719,49.088 c -3.223,-5.593 -10.372,-7.507 -15.967,-4.28 -1.773,1.024 -3.249,2.501 -4.274,4.28 z"
   id="path1752"
   inkscape:connector-curvature="0" />
</g>
<g
   id="LWPOLYLINE_8_"
   transform="translate(-14.172899,-38.563824)">
	<polygon
   style="fill:#ffcd00"
   points="362.266,351.564 212.599,92.335 62.933,351.564 "
   id="polygon1755" />
</g>
<g
   id="LWPOLYLINE_10_"
   transform="translate(-14.172899,-38.563824)">
	<polygon
   style="fill:#101820"
   points="358.211,349.228 124.213,250.099 66.978,349.23 "
   id="polygon1758" />
</g>
<g
   id="LWPOLYLINE_16_"
   transform="translate(-14.172899,-38.563824)">
	<path
   style="fill:#101820"
   d="m 169.036,269.089 c 5.865,2.808 12.898,0.325 15.709,-5.544 2.804,-5.866 0.322,-12.898 -5.544,-15.709 -0.322,-0.155 -0.651,-0.294 -0.986,-0.419 -6.104,-2.26 -12.879,0.851 -15.142,6.949 -2.121,5.711 0.464,12.093 5.963,14.723 z"
   id="path1761"
   inkscape:connector-curvature="0" />
</g>
<g
   id="LWPOLYLINE_17_"
   transform="translate(-14.172899,-38.563824)">
	<path
   style="fill:#101820"
   d="m 189.238,260.464 68.936,29.201 c 3.52,-4.925 9.565,-7.371 15.516,-6.282 8.483,1.554 14.098,9.686 12.551,18.169 l 7.458,3.158 c 0.884,0.378 1.908,-0.035 2.282,-0.922 l 5.131,-12.118 c 1.876,-4.426 -0.193,-9.534 -4.622,-11.41 l -27.222,-11.532 c -0.426,-0.18 -0.761,-0.521 -0.935,-0.947 l -11.81,-29.172 c -0.174,-0.429 -0.509,-0.771 -0.935,-0.951 l -56.03,-23.734 c -0.361,-0.152 -0.754,-0.181 -1.128,-0.078 l -35.177,9.408 c -0.517,0.139 -0.941,0.507 -1.154,1.003 l -8.194,19.348 c -0.374,0.887 0.038,1.908 0.925,2.282 l 6.341,2.688 c 3.521,-4.922 9.566,-7.372 15.522,-6.282 8.477,1.553 14.099,9.687 12.545,18.171 z"
   id="path1764"
   inkscape:connector-curvature="0" />
</g>
<g
   id="LWPOLYLINE_20_"
   transform="translate(-14.172899,-38.563824)">
	<path
   style="fill:#101820"
   d="m 266.031,310.177 c 5.873,2.811 12.905,0.329 15.71,-5.541 2.811,-5.869 0.328,-12.901 -5.538,-15.705 -0.328,-0.155 -0.657,-0.297 -0.992,-0.42 -6.099,-2.262 -12.873,0.848 -15.136,6.946 -2.121,5.711 0.464,12.093 5.956,14.72 z"
   id="path1767"
   inkscape:connector-curvature="0" />
</g>
<g
   id="LWPOLYLINE_18_"
   transform="translate(-14.172899,-38.563824)">
	<path
   style="fill:#ffcd00"
   d="m 248.684,241.235 -19.577,-8.287 c -0.876,-0.374 -1.895,0.035 -2.269,0.912 l -6.131,14.298 c -0.373,0.88 0.032,1.901 0.916,2.275 0.006,0.007 32.862,13.917 32.862,13.917 0.883,0.374 1.901,-0.038 2.275,-0.922 0.168,-0.402 0.181,-0.854 0.032,-1.263 l -7.188,-19.938 c -0.161,-0.451 -0.509,-0.818 -0.954,-1.006 z"
   id="path1770"
   inkscape:connector-curvature="0" />
</g>
<g
   id="LWPOLYLINE_19_"
   transform="translate(-14.172899,-38.563824)">
	<path
   style="fill:#ffcd00"
   d="m 183.848,234.386 29.073,12.309 c 0.883,0.374 1.901,-0.031 2.275,-0.915 l 6.149,-14.343 c 0.38,-0.883 -0.032,-1.904 -0.915,-2.281 -0.007,-0.007 -17.882,-7.575 -17.882,-7.575 -0.496,-0.206 -1.058,-0.177 -1.528,0.084 l -17.295,9.618 c -0.838,0.471 -1.141,1.527 -0.671,2.369 0.188,0.338 0.484,0.605 0.839,0.757 z"
   id="path1773"
   inkscape:connector-curvature="0" />
</g>
<g
   id="LWPOLYLINE_27_"
   transform="translate(-14.172899,-38.563824)">
	<path
   style="fill:#ffcd00"
   d="m 176.732,302.01 c 0,4.132 3.352,7.48 7.484,7.48 4.132,0 7.483,-3.349 7.483,-7.48 v -3.739 c 0,-4.132 -3.352,-7.484 -7.483,-7.484 -4.133,0 -7.484,3.353 -7.484,7.484 z"
   id="path1776"
   inkscape:connector-curvature="0" />
</g>
<g
   id="LWPOLYLINE_29_"
   transform="translate(-14.172899,-38.563824)">
	<path
   style="fill:#ffcd00"
   d="m 199.12,330.063 c 0,4.132 3.346,7.478 7.478,7.478 4.132,0 7.484,-3.346 7.484,-7.478 v -3.742 c 0,-4.132 -3.353,-7.48 -7.484,-7.48 -4.131,0 -7.478,3.349 -7.478,7.48 z"
   id="path1779"
   inkscape:connector-curvature="0" />
</g>
<g
   id="LWPOLYLINE_31_"
   transform="translate(-14.172899,-38.563824)">
	<path
   style="fill:#ffcd00"
   d="m 116.894,297.658 c 2.762,-1.431 4.838,-3.906 5.772,-6.872 h 7.084 v 46.755 h -7.014 v -36.002 l -5.138,0.935 z"
   id="path1782"
   inkscape:connector-curvature="0" />
</g>
<g
   id="LWPOLYLINE_32_"
   transform="translate(-14.172899,-38.563824)">
	<path
   style="fill:#ffcd00"
   d="m 141.441,324.684 c 0,7.101 5.756,12.857 12.856,12.857 7.1,0 12.855,-5.757 12.855,-12.857 v -2.804 c 0,-3.794 -1.676,-7.397 -4.577,-9.84 2.192,-2.34 3.41,-5.425 3.41,-8.632 v -0.935 c 0,-6.453 -5.234,-11.688 -11.688,-11.688 -6.455,0 -11.689,5.234 -11.689,11.688 v 0.935 h 7.013 v -0.935 c 0,-2.578 2.096,-4.674 4.677,-4.674 2.582,0 4.676,2.096 4.676,4.674 v 0.935 c 0,3.101 -2.513,5.614 -5.61,5.614 h -0.935 v 6.543 h 1.869 c 3.227,0 5.842,2.617 5.842,5.847 v 3.271 c 0,3.227 -2.615,5.844 -5.842,5.844 -3.229,0 -5.843,-2.617 -5.843,-5.844 h -7.014 z"
   id="path1785"
   inkscape:connector-curvature="0" />
</g>
<g
   id="LWPOLYLINE_34_"
   transform="translate(-14.172899,-38.563824)">
	<polygon
   style="fill:#ffcd00"
   points="175.069,333.995 210.446,291.827 215.46,296.034 180.078,338.198 "
   id="polygon1788" />
</g>
<g
   id="LWPOLYLINE_28_"
   transform="translate(-14.172899,-38.563824)">
	<path
   style="fill:#101820"
   d="m 182.346,302.01 c 0,1.031 0.838,1.869 1.87,1.869 1.031,0 1.869,-0.838 1.869,-1.869 v -3.739 c 0,-1.034 -0.838,-1.872 -1.869,-1.872 -1.032,0 -1.87,0.838 -1.87,1.872 z"
   id="path1791"
   inkscape:connector-curvature="0" />
</g>
<g
   id="LWPOLYLINE_30_"
   transform="translate(-14.172899,-38.563824)">
	<path
   style="fill:#101820"
   d="m 204.728,330.063 c 0,1.031 0.838,1.869 1.869,1.869 1.031,0 1.869,-0.838 1.869,-1.869 v -3.742 c 0,-1.035 -0.838,-1.873 -1.869,-1.873 -1.031,0 -1.869,0.838 -1.869,1.873 z"
   id="path1794"
   inkscape:connector-curvature="0" />
</g>
</svg>