<?xml version="1.0" encoding="UTF-8" standalone="no"?>
<!-- Generator: Adobe Illustrator 16.0.0, SVG Export Plug-In . SVG Version: 6.00 Build 0)  -->

<svg
   xmlns:dc="http://purl.org/dc/elements/1.1/"
   xmlns:cc="http://creativecommons.org/ns#"
   xmlns:rdf="http://www.w3.org/1999/02/22-rdf-syntax-ns#"
   xmlns:svg="http://www.w3.org/2000/svg"
   xmlns="http://www.w3.org/2000/svg"
   xmlns:sodipodi="http://sodipodi.sourceforge.net/DTD/sodipodi-0.dtd"
   xmlns:inkscape="http://www.inkscape.org/namespaces/inkscape"
   version="1.1"
   id="Layer_1"
   x="0px"
   y="0px"
   width="396.85211"
   height="348.06818"
   viewBox="0 0 396.85212 348.06816"
   xml:space="preserve"
   sodipodi:docname="A3.2_5.svg"
   inkscape:version="0.92.5 (2060ec1f9f, 2020-04-08)"><metadata
   id="metadata1582"><rdf:RDF><cc:Work
       rdf:about=""><dc:format>image/svg+xml</dc:format><dc:type
         rdf:resource="http://purl.org/dc/dcmitype/StillImage" /></cc:Work></rdf:RDF></metadata><defs
   id="defs1580" /><sodipodi:namedview
   pagecolor="#ffffff"
   bordercolor="#666666"
   borderopacity="1"
   objecttolerance="10"
   gridtolerance="10"
   guidetolerance="10"
   inkscape:pageopacity="0"
   inkscape:pageshadow="2"
   inkscape:window-width="640"
   inkscape:window-height="480"
   id="namedview1578"
   showgrid="false"
   inkscape:zoom="0.55503813"
   inkscape:cx="198.4256"
   inkscape:cy="174.03399"
   inkscape:window-x="0"
   inkscape:window-y="0"
   inkscape:window-maximized="0"
   inkscape:current-layer="Layer_1" />
<g
   id="LWPOLYLINE_6_"
   transform="translate(-14.172899,-38.563824)">
	<path
   style="fill:#ffcd00"
   d="M 198.425,46.748 16.369,362.085 c -4.521,7.825 -1.837,17.833 5.988,22.352 2.488,1.438 5.309,2.195 8.184,2.195 h 364.117 c 9.038,0 16.367,-7.326 16.367,-16.364 0,-2.875 -0.761,-5.698 -2.198,-8.183 L 226.772,46.748 c -4.522,-7.826 -14.529,-10.508 -22.355,-5.989 -2.489,1.437 -4.554,3.501 -5.992,5.989 z"
   id="path1526"
   inkscape:connector-curvature="0" />
</g>
<g
   id="LWPOLYLINE_7_"
   transform="translate(-14.172899,-38.563824)">
	<path
   style="fill:#e4002b"
   d="M 202.476,49.088 20.417,364.421 c -3.23,5.593 -1.313,12.741 4.276,15.968 1.779,1.024 3.794,1.566 5.847,1.566 h 364.117 c 6.453,0 11.688,-5.234 11.688,-11.688 0,-2.053 -0.542,-4.067 -1.566,-5.847 L 222.72,49.088 c -3.226,-5.593 -10.375,-7.507 -15.967,-4.28 -1.776,1.024 -3.252,2.501 -4.277,4.28 z"
   id="path1529"
   inkscape:connector-curvature="0" />
</g>
<g
   id="LWPOLYLINE_8_"
   transform="translate(-14.172899,-38.563824)">
	<polygon
   style="fill:#ffcd00"
   points="362.266,351.564 212.597,92.335 62.933,351.564 "
   id="polygon1532" />
</g>
<g
   id="LWPOLYLINE_10_"
   transform="translate(-14.172899,-38.563824)">
	<polygon
   style="fill:#101820"
   points="358.211,349.228 124.213,250.099 66.978,349.23 "
   id="polygon1535" />
</g>
<g
   id="LWPOLYLINE_17_"
   transform="translate(-14.172899,-38.563824)">
	<path
   style="fill:#101820"
   d="m 189.236,260.464 68.938,29.201 c 3.52,-4.925 9.565,-7.371 15.516,-6.282 8.483,1.554 14.098,9.686 12.551,18.169 l 7.458,3.158 c 0.883,0.377 1.908,-0.035 2.282,-0.922 l 5.131,-12.118 c 1.876,-4.426 -0.193,-9.534 -4.622,-11.41 l -27.222,-11.532 c -0.426,-0.181 -0.761,-0.521 -0.935,-0.947 l -11.81,-29.172 c -0.174,-0.429 -0.51,-0.771 -0.935,-0.951 l -56.032,-23.734 c -0.357,-0.152 -0.754,-0.181 -1.128,-0.078 l -35.174,9.408 c -0.519,0.139 -0.944,0.506 -1.153,1.003 l -8.196,19.348 c -0.374,0.887 0.038,1.908 0.925,2.282 l 6.343,2.688 c 3.52,-4.922 9.566,-7.372 15.52,-6.282 8.478,1.553 14.097,9.687 12.543,18.171 z"
   id="path1538"
   inkscape:connector-curvature="0" />
</g>
<g
   id="LWPOLYLINE_18_"
   transform="translate(-14.172899,-38.563824)">
	<path
   style="fill:#ffcd00"
   d="m 248.684,241.235 -19.575,-8.287 c -0.88,-0.374 -1.896,0.035 -2.27,0.912 l -6.13,14.298 c -0.377,0.88 0.032,1.901 0.912,2.275 0.006,0.007 32.864,13.917 32.864,13.917 0.883,0.374 1.901,-0.038 2.275,-0.922 0.168,-0.402 0.181,-0.854 0.032,-1.263 l -7.188,-19.938 c -0.161,-0.451 -0.509,-0.818 -0.954,-1.006 z"
   id="path1541"
   inkscape:connector-curvature="0" />
</g>
<g
   id="LWPOLYLINE_19_"
   transform="translate(-14.172899,-38.563824)">
	<path
   style="fill:#ffcd00"
   d="m 183.847,234.386 29.072,12.309 c 0.883,0.374 1.901,-0.032 2.278,-0.915 l 6.149,-14.343 c 0.377,-0.883 -0.032,-1.904 -0.915,-2.282 -0.007,-0.006 -17.885,-7.574 -17.885,-7.574 -0.493,-0.206 -1.058,-0.177 -1.524,0.084 l -17.295,9.618 c -0.839,0.471 -1.142,1.527 -0.674,2.369 0.187,0.338 0.483,0.605 0.841,0.757 z"
   id="path1544"
   inkscape:connector-curvature="0" />
</g>
<g
   id="LWPOLYLINE_28_"
   transform="translate(-14.172899,-38.563824)">
	<path
   style="fill:#ffcd00"
   d="m 143.778,324.684 c 0,7.101 5.756,12.857 12.856,12.857 7.1,0 12.86,-5.757 12.86,-12.857 v -21.04 c 0,-7.101 -5.76,-12.857 -12.86,-12.857 -7.1,0 -12.856,5.757 -12.856,12.857 z"
   id="path1547"
   inkscape:connector-curvature="0" />
</g>
<g
   id="LWPOLYLINE_30_"
   transform="translate(-14.172899,-38.563824)">
	<path
   style="fill:#ffcd00"
   d="m 116.894,297.658 c 2.762,-1.431 4.838,-3.906 5.772,-6.872 h 7.084 v 46.755 h -7.014 v -36.002 l -5.138,0.935 z"
   id="path1550"
   inkscape:connector-curvature="0" />
</g>
<g
   id="LWPOLYLINE_31_"
   transform="translate(-14.172899,-38.563824)">
	<path
   style="fill:#ffcd00"
   d="m 179.074,302.01 c 0,4.132 3.349,7.478 7.48,7.478 4.131,0 7.48,-3.346 7.48,-7.478 v -3.742 c 0,-4.132 -3.349,-7.481 -7.48,-7.481 -4.131,0 -7.48,3.35 -7.48,7.481 z"
   id="path1553"
   inkscape:connector-curvature="0" />
</g>
<g
   id="LWPOLYLINE_33_"
   transform="translate(-14.172899,-38.563824)">
	<path
   style="fill:#ffcd00"
   d="m 201.455,330.06 c 0,4.133 3.349,7.481 7.48,7.481 4.131,0 7.481,-3.349 7.481,-7.481 v -3.742 c 0,-4.132 -3.35,-7.477 -7.481,-7.477 -4.131,0 -7.48,3.345 -7.48,7.477 z"
   id="path1556"
   inkscape:connector-curvature="0" />
</g>
<g
   id="LWPOLYLINE_36_"
   transform="translate(-14.172899,-38.563824)">
	
		<rect
   x="170.082"
   y="311.741"
   transform="matrix(0.6428,-0.7661,0.7661,0.6428,-170.7287,263.9037)"
   style="fill:#ffcd00"
   width="55.041"
   height="6.5440001"
   id="rect1559" />
</g>
<g
   id="LWPOLYLINE_29_"
   transform="translate(-14.172899,-38.563824)">
	<path
   style="fill:#101820"
   d="m 150.791,324.684 c 0,3.227 2.617,5.844 5.844,5.844 3.229,0 5.847,-2.617 5.847,-5.844 v -21.04 c 0,-3.227 -2.617,-5.844 -5.847,-5.844 -3.227,0 -5.844,2.617 -5.844,5.844 z"
   id="path1562"
   inkscape:connector-curvature="0" />
</g>
<g
   id="LWPOLYLINE_32_"
   transform="translate(-14.172899,-38.563824)">
	<path
   style="fill:#101820"
   d="m 184.685,302.01 c 0,1.031 0.835,1.869 1.869,1.869 1.031,0 1.869,-0.838 1.869,-1.869 v -3.742 c 0,-1.035 -0.838,-1.873 -1.869,-1.873 -1.034,0 -1.869,0.838 -1.869,1.873 z"
   id="path1565"
   inkscape:connector-curvature="0" />
</g>
<g
   id="LWPOLYLINE_34_"
   transform="translate(-14.172899,-38.563824)">
	<path
   style="fill:#101820"
   d="m 207.066,330.06 c 0,1.035 0.838,1.87 1.869,1.87 1.035,0 1.87,-0.835 1.87,-1.87 v -3.742 c 0,-1.031 -0.835,-1.869 -1.87,-1.869 -1.031,0 -1.869,0.838 -1.869,1.869 z"
   id="path1568"
   inkscape:connector-curvature="0" />
</g>
<g
   id="CIRCLE"
   transform="translate(-14.172899,-38.563824)">
	<path
   style="fill:#101820"
   d="m 185.323,258.481 c 0,-6.505 -5.274,-11.778 -11.779,-11.778 -6.505,0 -11.779,5.273 -11.779,11.778 0,6.505 5.274,11.779 11.779,11.779 6.505,0 11.779,-5.274 11.779,-11.779 z"
   id="path1571"
   inkscape:connector-curvature="0" />
</g>
<g
   id="CIRCLE_1_"
   transform="translate(-14.172899,-38.563824)">
	<path
   style="fill:#101820"
   d="m 282.375,299.453 c 0,-6.505 -5.275,-11.778 -11.779,-11.778 -6.506,0 -11.778,5.273 -11.778,11.778 0,6.506 5.272,11.778 11.778,11.778 6.503,0 11.779,-5.272 11.779,-11.778 z"
   id="path1574"
   inkscape:connector-curvature="0" />
</g>
</svg>