<?xml version="1.0" encoding="UTF-8" standalone="no"?>
<!-- Generator: Adobe Illustrator 16.0.0, SVG Export Plug-In . SVG Version: 6.00 Build 0)  -->

<svg
   xmlns:dc="http://purl.org/dc/elements/1.1/"
   xmlns:cc="http://creativecommons.org/ns#"
   xmlns:rdf="http://www.w3.org/1999/02/22-rdf-syntax-ns#"
   xmlns:svg="http://www.w3.org/2000/svg"
   xmlns="http://www.w3.org/2000/svg"
   xmlns:sodipodi="http://sodipodi.sourceforge.net/DTD/sodipodi-0.dtd"
   xmlns:inkscape="http://www.inkscape.org/namespaces/inkscape"
   version="1.1"
   id="Layer_1"
   x="0px"
   y="0px"
   width="396.85211"
   height="348.0672"
   viewBox="0 0 396.85212 348.06719"
   xml:space="preserve"
   sodipodi:docname="A3.2_3.svg"
   inkscape:version="0.92.5 (2060ec1f9f, 2020-04-08)"><metadata
   id="metadata1469"><rdf:RDF><cc:Work
       rdf:about=""><dc:format>image/svg+xml</dc:format><dc:type
         rdf:resource="http://purl.org/dc/dcmitype/StillImage" /></cc:Work></rdf:RDF></metadata><defs
   id="defs1467" /><sodipodi:namedview
   pagecolor="#ffffff"
   bordercolor="#666666"
   borderopacity="1"
   objecttolerance="10"
   gridtolerance="10"
   guidetolerance="10"
   inkscape:pageopacity="0"
   inkscape:pageshadow="2"
   inkscape:window-width="640"
   inkscape:window-height="480"
   id="namedview1465"
   showgrid="false"
   inkscape:zoom="0.55503813"
   inkscape:cx="198.4256"
   inkscape:cy="174.03399"
   inkscape:window-x="0"
   inkscape:window-y="0"
   inkscape:window-maximized="0"
   inkscape:current-layer="Layer_1" />
<g
   id="LWPOLYLINE_6_"
   transform="translate(-14.172899,-38.564788)">
	<path
   style="fill:#ffcd00"
   d="M 198.425,46.748 16.369,362.085 c -4.521,7.825 -1.837,17.833 5.988,22.352 2.488,1.438 5.309,2.195 8.184,2.195 h 364.117 c 9.038,0 16.367,-7.326 16.367,-16.364 0,-2.875 -0.761,-5.698 -2.198,-8.183 L 226.772,46.748 c -4.522,-7.825 -14.529,-10.507 -22.355,-5.988 -2.489,1.437 -4.554,3.5 -5.992,5.988 z"
   id="path1413"
   inkscape:connector-curvature="0" />
</g>
<g
   id="LWPOLYLINE_7_"
   transform="translate(-14.172899,-38.564788)">
	<path
   style="fill:#e4002b"
   d="M 202.476,49.088 20.417,364.421 c -3.23,5.593 -1.313,12.741 4.276,15.968 1.779,1.024 3.794,1.566 5.847,1.566 h 364.117 c 6.453,0 11.688,-5.234 11.688,-11.688 0,-2.053 -0.542,-4.067 -1.566,-5.847 L 222.72,49.088 c -3.226,-5.592 -10.375,-7.507 -15.967,-4.28 -1.776,1.025 -3.252,2.501 -4.277,4.28 z"
   id="path1416"
   inkscape:connector-curvature="0" />
</g>
<g
   id="LWPOLYLINE_8_"
   transform="translate(-14.172899,-38.564788)">
	<polygon
   style="fill:#ffcd00"
   points="362.266,351.564 212.597,92.335 62.933,351.564 "
   id="polygon1419" />
</g>
<g
   id="LWPOLYLINE_14_"
   transform="translate(-14.172899,-38.564788)">
	<polygon
   style="fill:#101820"
   points="358.211,349.228 124.213,250.099 66.978,349.23 "
   id="polygon1422" />
</g>
<g
   id="LWPOLYLINE_25_"
   transform="translate(-14.172899,-38.564788)">
	<path
   style="fill:#101820"
   d="m 189.236,260.464 68.938,29.201 c 3.52,-4.925 9.565,-7.371 15.516,-6.282 8.483,1.554 14.098,9.686 12.551,18.169 l 7.458,3.158 c 0.883,0.377 1.908,-0.035 2.282,-0.922 l 5.131,-12.118 c 1.876,-4.426 -0.193,-9.534 -4.622,-11.41 l -27.222,-11.532 c -0.426,-0.181 -0.761,-0.521 -0.935,-0.947 l -11.81,-29.172 c -0.174,-0.429 -0.51,-0.771 -0.935,-0.951 l -56.032,-23.734 c -0.357,-0.152 -0.754,-0.181 -1.128,-0.078 l -35.174,9.408 c -0.519,0.139 -0.944,0.506 -1.153,1.003 l -8.196,19.348 c -0.374,0.887 0.038,1.908 0.925,2.282 l 6.343,2.688 c 3.52,-4.921 9.566,-7.371 15.52,-6.281 8.478,1.552 14.097,9.686 12.543,18.17 z"
   id="path1425"
   inkscape:connector-curvature="0" />
</g>
<g
   id="LWPOLYLINE_15_"
   transform="translate(-14.172899,-38.564788)">
	<path
   style="fill:#ffcd00"
   d="m 145.759,302.01 c 0,4.132 3.349,7.478 7.481,7.478 4.132,0 7.48,-3.346 7.48,-7.478 v -3.742 c 0,-4.132 -3.349,-7.481 -7.48,-7.481 -4.133,0 -7.481,3.35 -7.481,7.481 z"
   id="path1428"
   inkscape:connector-curvature="0" />
</g>
<g
   id="LWPOLYLINE_17_"
   transform="translate(-14.172899,-38.564788)">
	<path
   style="fill:#ffcd00"
   d="m 168.141,330.06 c 0,4.133 3.349,7.481 7.48,7.481 4.131,0 7.48,-3.349 7.48,-7.481 v -3.742 c 0,-4.132 -3.349,-7.477 -7.48,-7.477 -4.131,0 -7.48,3.345 -7.48,7.477 z"
   id="path1431"
   inkscape:connector-curvature="0" />
</g>
<g
   id="LWPOLYLINE_33_"
   transform="translate(-14.172899,-38.564788)">
	<path
   style="fill:#ffcd00"
   d="m 114.521,312.04 c -2.591,2.43 -4.058,5.82 -4.058,9.372 v 3.271 c 0,7.101 5.757,12.857 12.857,12.857 7.1,0 12.859,-5.757 12.859,-12.857 v -3.271 c 0,-3.552 -1.47,-6.942 -4.058,-9.372 1.863,-2.134 2.888,-4.867 2.888,-7.694 v -1.872 c 0,-6.453 -5.234,-11.688 -11.689,-11.688 -6.456,0 -11.688,5.234 -11.688,11.688 v 1.872 c 10e-4,2.827 1.027,5.56 2.889,7.694 z"
   id="path1434"
   inkscape:connector-curvature="0" />
</g>
<g
   id="LWPOLYLINE_36_"
   transform="translate(-14.172899,-38.564788)">
	
		<rect
   x="136.76801"
   y="311.742"
   transform="matrix(0.6428,-0.766,0.766,0.6428,-182.628,238.3792)"
   style="fill:#ffcd00"
   width="55.041"
   height="6.5430002"
   id="rect1437" />
</g>
<g
   id="LWPOLYLINE_16_"
   transform="translate(-14.172899,-38.564788)">
	<path
   style="fill:#101820"
   d="m 151.371,302.01 c 0,1.031 0.835,1.869 1.87,1.869 1.031,0 1.869,-0.838 1.869,-1.869 v -3.742 c 0,-1.035 -0.838,-1.873 -1.869,-1.873 -1.035,0 -1.87,0.838 -1.87,1.873 z"
   id="path1440"
   inkscape:connector-curvature="0" />
</g>
<g
   id="LWPOLYLINE_18_"
   transform="translate(-14.172899,-38.564788)">
	<path
   style="fill:#101820"
   d="m 173.752,330.06 c 0,1.035 0.838,1.869 1.869,1.869 1.034,0 1.869,-0.834 1.869,-1.869 v -3.742 c 0,-1.031 -0.835,-1.869 -1.869,-1.869 -1.031,0 -1.869,0.838 -1.869,1.869 z"
   id="path1443"
   inkscape:connector-curvature="0" />
</g>
<g
   id="LWPOLYLINE_32_"
   transform="translate(-14.172899,-38.564788)">
	<path
   style="fill:#101820"
   d="m 117.477,324.684 c 0,3.227 2.617,5.844 5.844,5.844 3.229,0 5.847,-2.617 5.847,-5.844 v -3.271 c 0,-3.229 -2.617,-5.847 -5.847,-5.847 -3.227,0 -5.844,2.617 -5.844,5.847 z"
   id="path1446"
   inkscape:connector-curvature="0" />
</g>
<g
   id="LWPOLYLINE_34_"
   transform="translate(-14.172899,-38.564788)">
	<path
   style="fill:#101820"
   d="m 118.647,302.474 v 1.872 c 0,2.582 2.092,4.677 4.674,4.677 2.581,0 4.677,-2.095 4.677,-4.677 v -1.872 c 0,-2.578 -2.096,-4.674 -4.677,-4.674 -2.582,0 -4.674,2.096 -4.674,4.674 z"
   id="path1449"
   inkscape:connector-curvature="0" />
</g>
<g
   id="LWPOLYLINE_26_"
   transform="translate(-14.172899,-38.564788)">
	<path
   style="fill:#ffcd00"
   d="m 248.684,241.235 -19.575,-8.287 c -0.88,-0.374 -1.896,0.035 -2.27,0.912 l -6.13,14.298 c -0.377,0.88 0.032,1.901 0.912,2.275 0.006,0.007 32.864,13.917 32.864,13.917 0.883,0.374 1.901,-0.038 2.275,-0.922 0.168,-0.402 0.181,-0.854 0.032,-1.264 l -7.188,-19.938 c -0.161,-0.451 -0.509,-0.818 -0.954,-1.006 z"
   id="path1452"
   inkscape:connector-curvature="0" />
</g>
<g
   id="LWPOLYLINE_27_"
   transform="translate(-14.172899,-38.564788)">
	<path
   style="fill:#ffcd00"
   d="m 183.847,234.386 29.072,12.309 c 0.883,0.374 1.901,-0.032 2.278,-0.915 l 6.149,-14.343 c 0.377,-0.883 -0.032,-1.904 -0.915,-2.282 -0.007,-0.006 -17.885,-7.574 -17.885,-7.574 -0.493,-0.206 -1.058,-0.177 -1.524,0.084 l -17.295,9.618 c -0.839,0.471 -1.142,1.527 -0.674,2.369 0.187,0.338 0.483,0.605 0.841,0.757 z"
   id="path1455"
   inkscape:connector-curvature="0" />
</g>
<g
   id="CIRCLE"
   transform="translate(-14.172899,-38.564788)">
	<path
   style="fill:#101820"
   d="m 185.323,258.481 c 0,-6.505 -5.274,-11.778 -11.779,-11.778 -6.505,0 -11.779,5.273 -11.779,11.778 0,6.505 5.274,11.779 11.779,11.779 6.505,0 11.779,-5.274 11.779,-11.779 z"
   id="path1458"
   inkscape:connector-curvature="0" />
</g>
<g
   id="CIRCLE_1_"
   transform="translate(-14.172899,-38.564788)">
	<path
   style="fill:#101820"
   d="m 282.375,299.453 c 0,-6.505 -5.275,-11.778 -11.779,-11.778 -6.506,0 -11.778,5.273 -11.778,11.778 0,6.506 5.272,11.778 11.778,11.778 6.503,0 11.779,-5.272 11.779,-11.778 z"
   id="path1461"
   inkscape:connector-curvature="0" />
</g>
</svg>