<?xml version="1.0" encoding="iso-8859-1"?>
<!-- Generator: Adobe Illustrator 16.0.0, SVG Export Plug-In . SVG Version: 6.00 Build 0)  -->
<!DOCTYPE svg PUBLIC "-//W3C//DTD SVG 1.1//EN" "http://www.w3.org/Graphics/SVG/1.1/DTD/svg11.dtd">
<svg version="1.1" id="Layer_1" xmlns="http://www.w3.org/2000/svg" xmlns:xlink="http://www.w3.org/1999/xlink" x="0px" y="0px"
	 width="425.197px" height="425.196px" viewBox="0 0 425.197 425.196" style="enable-background:new 0 0 425.197 425.196;"
	 xml:space="preserve">
<g id="LWPOLYLINE_6_">
	<path style="fill:#FFCD00;" d="M198.423,46.748L16.369,362.085c-4.521,7.825-1.837,17.833,5.988,22.352
		c2.488,1.438,5.309,2.195,8.184,2.195h364.117c9.038,0,16.367-7.326,16.367-16.364c0-2.875-0.761-5.698-2.198-8.183L226.774,46.748
		c-4.525-7.826-14.529-10.508-22.355-5.989C201.93,42.196,199.861,44.26,198.423,46.748z"/>
</g>
<g id="LWPOLYLINE_7_">
	<path style="fill:#E4002B;" d="M202.478,49.088L20.417,364.421c-3.229,5.593-1.313,12.741,4.276,15.968
		c1.779,1.024,3.794,1.566,5.847,1.566h364.117c6.453,0,11.688-5.234,11.688-11.688c0-2.053-0.542-4.067-1.566-5.847L222.719,49.088
		c-3.223-5.593-10.372-7.507-15.967-4.28C204.979,45.832,203.503,47.309,202.478,49.088z"/>
</g>
<g id="LWPOLYLINE_8_">
	<polygon style="fill:#FFCD00;" points="212.599,92.335 62.933,351.564 362.266,351.564 	"/>
</g>
<g id="LWPOLYLINE_10_">
	<polygon style="fill:#101820;" points="124.213,250.099 66.978,349.23 358.211,349.228 	"/>
</g>
<g id="LWPOLYLINE_16_">
	<path style="fill:#101820;" d="M169.036,269.089c5.865,2.808,12.898,0.325,15.709-5.544c2.804-5.866,0.322-12.898-5.544-15.709
		c-0.322-0.155-0.651-0.294-0.986-0.419c-6.104-2.26-12.879,0.851-15.142,6.949C160.952,260.077,163.537,266.459,169.036,269.089z"
		/>
</g>
<g id="LWPOLYLINE_17_">
	<path style="fill:#101820;" d="M189.238,260.464l68.936,29.201c3.52-4.925,9.565-7.371,15.516-6.282
		c8.483,1.554,14.098,9.686,12.551,18.169l7.458,3.158c0.884,0.378,1.908-0.035,2.282-0.922l5.131-12.118
		c1.876-4.426-0.193-9.534-4.622-11.41l-27.222-11.532c-0.426-0.18-0.761-0.521-0.935-0.947l-11.81-29.172
		c-0.174-0.429-0.509-0.771-0.935-0.951l-56.03-23.734c-0.361-0.152-0.754-0.181-1.128-0.078l-35.177,9.408
		c-0.517,0.139-0.941,0.507-1.154,1.003l-8.194,19.348c-0.374,0.887,0.038,1.908,0.925,2.282l6.341,2.688
		c3.521-4.922,9.566-7.372,15.522-6.282C185.17,243.846,190.792,251.98,189.238,260.464z"/>
</g>
<g id="LWPOLYLINE_20_">
	<path style="fill:#101820;" d="M266.031,310.177c5.873,2.811,12.905,0.329,15.71-5.541c2.811-5.869,0.328-12.901-5.538-15.705
		c-0.328-0.155-0.657-0.297-0.992-0.42c-6.099-2.262-12.873,0.848-15.136,6.946C257.954,301.168,260.539,307.55,266.031,310.177z"/>
</g>
<g id="LWPOLYLINE_18_">
	<path style="fill:#FFCD00;" d="M248.684,241.235l-19.577-8.287c-0.876-0.374-1.895,0.035-2.269,0.912l-6.131,14.298
		c-0.373,0.88,0.032,1.901,0.916,2.275c0.006,0.007,32.862,13.917,32.862,13.917c0.883,0.374,1.901-0.038,2.275-0.922
		c0.168-0.402,0.181-0.854,0.032-1.263l-7.188-19.938c-0.161-0.451-0.509-0.818-0.954-1.006L248.684,241.235z"/>
</g>
<g id="LWPOLYLINE_19_">
	<path style="fill:#FFCD00;" d="M183.848,234.386l29.073,12.309c0.883,0.374,1.901-0.031,2.275-0.915l6.149-14.343
		c0.38-0.883-0.032-1.904-0.915-2.281c-0.007-0.007-17.882-7.575-17.882-7.575c-0.496-0.206-1.058-0.177-1.528,0.084l-17.295,9.618
		c-0.838,0.471-1.141,1.527-0.671,2.369c0.188,0.338,0.484,0.605,0.839,0.757L183.848,234.386z"/>
</g>
<g id="LWPOLYLINE_27_">
	<path style="fill:#FFCD00;" d="M176.732,302.01c0,4.132,3.352,7.48,7.484,7.48c4.132,0,7.483-3.349,7.483-7.48v-3.739
		c0-4.132-3.352-7.484-7.483-7.484c-4.133,0-7.484,3.353-7.484,7.484V302.01z"/>
</g>
<g id="LWPOLYLINE_29_">
	<path style="fill:#FFCD00;" d="M199.12,330.063c0,4.132,3.346,7.478,7.478,7.478s7.484-3.346,7.484-7.478v-3.742
		c0-4.132-3.353-7.48-7.484-7.48s-7.478,3.349-7.478,7.48V330.063z"/>
</g>
<g id="LWPOLYLINE_31_">
	<path style="fill:#FFCD00;" d="M116.894,297.658c2.762-1.431,4.838-3.906,5.772-6.872h7.084v46.755h-7.014v-36.002l-5.138,0.935
		L116.894,297.658z"/>
</g>
<g id="LWPOLYLINE_32_">
	<path style="fill:#FFCD00;" d="M141.441,324.684c0,7.101,5.756,12.857,12.856,12.857c7.1,0,12.855-5.757,12.855-12.857v-2.804
		c0-3.794-1.676-7.397-4.577-9.84c2.192-2.34,3.41-5.425,3.41-8.632v-0.935c0-6.453-5.234-11.688-11.688-11.688
		c-6.455,0-11.689,5.234-11.689,11.688v0.935h7.013v-0.935c0-2.578,2.096-4.674,4.677-4.674c2.582,0,4.676,2.096,4.676,4.674v0.935
		c0,3.101-2.513,5.614-5.61,5.614h-0.935v6.543h1.869c3.227,0,5.842,2.617,5.842,5.847v3.271c0,3.227-2.615,5.844-5.842,5.844
		c-3.229,0-5.843-2.617-5.843-5.844H141.441z"/>
</g>
<g id="LWPOLYLINE_34_">
	<polygon style="fill:#FFCD00;" points="215.46,296.034 180.078,338.198 175.069,333.995 210.446,291.827 	"/>
</g>
<g id="LWPOLYLINE_28_">
	<path style="fill:#101820;" d="M182.346,302.01c0,1.031,0.838,1.869,1.87,1.869c1.031,0,1.869-0.838,1.869-1.869v-3.739
		c0-1.034-0.838-1.872-1.869-1.872c-1.032,0-1.87,0.838-1.87,1.872V302.01z"/>
</g>
<g id="LWPOLYLINE_30_">
	<path style="fill:#101820;" d="M204.728,330.063c0,1.031,0.838,1.869,1.869,1.869s1.869-0.838,1.869-1.869v-3.742
		c0-1.035-0.838-1.873-1.869-1.873s-1.869,0.838-1.869,1.873V330.063z"/>
</g>
</svg>
