<?xml version="1.0" encoding="UTF-8" standalone="no"?>
<!-- Generator: Adobe Illustrator 16.0.0, SVG Export Plug-In . SVG Version: 6.00 Build 0)  -->

<svg
   xmlns:dc="http://purl.org/dc/elements/1.1/"
   xmlns:cc="http://creativecommons.org/ns#"
   xmlns:rdf="http://www.w3.org/1999/02/22-rdf-syntax-ns#"
   xmlns:svg="http://www.w3.org/2000/svg"
   xmlns="http://www.w3.org/2000/svg"
   xmlns:sodipodi="http://sodipodi.sourceforge.net/DTD/sodipodi-0.dtd"
   xmlns:inkscape="http://www.inkscape.org/namespaces/inkscape"
   version="1.1"
   id="Layer_1"
   x="0px"
   y="0px"
   width="396.8519"
   height="348.06534"
   viewBox="0 0 396.85191 348.06533"
   xml:space="preserve"
   sodipodi:docname="A30.svg"
   inkscape:version="0.92.5 (2060ec1f9f, 2020-04-08)"><metadata
   id="metadata1827"><rdf:RDF><cc:Work
       rdf:about=""><dc:format>image/svg+xml</dc:format><dc:type
         rdf:resource="http://purl.org/dc/dcmitype/StillImage" /></cc:Work></rdf:RDF></metadata><defs
   id="defs1825" /><sodipodi:namedview
   pagecolor="#ffffff"
   bordercolor="#666666"
   borderopacity="1"
   objecttolerance="10"
   gridtolerance="10"
   guidetolerance="10"
   inkscape:pageopacity="0"
   inkscape:pageshadow="2"
   inkscape:window-width="640"
   inkscape:window-height="480"
   id="namedview1823"
   showgrid="false"
   inkscape:zoom="0.55503813"
   inkscape:cx="198.42638"
   inkscape:cy="174.03299"
   inkscape:window-x="0"
   inkscape:window-y="0"
   inkscape:window-maximized="0"
   inkscape:current-layer="Layer_1" />
<g
   id="LWPOLYLINE_6_"
   transform="translate(-14.172113,-38.565653)">
	<path
   style="fill:#ffcd00"
   d="M 198.426,46.749 16.367,362.088 c -4.519,7.824 -1.836,17.834 5.991,22.354 2.489,1.435 5.308,2.189 8.181,2.189 h 364.117 c 9.038,0 16.368,-7.324 16.368,-16.361 0,-2.874 -0.761,-5.696 -2.196,-8.182 L 226.771,46.749 c -4.519,-7.827 -14.526,-10.507 -22.354,-5.987 -2.488,1.434 -4.552,3.502 -5.991,5.987 z"
   id="path1804"
   inkscape:connector-curvature="0" />
</g>
<g
   id="LWPOLYLINE_7_"
   transform="translate(-14.172113,-38.565653)">
	<path
   style="fill:#e4002b"
   d="M 202.476,49.089 20.417,364.424 c -3.227,5.59 -1.313,12.741 4.277,15.968 1.778,1.023 3.795,1.567 5.845,1.567 h 364.117 c 6.46,0 11.689,-5.236 11.689,-11.689 0,-2.055 -0.537,-4.067 -1.563,-5.846 L 222.721,49.089 c -3.227,-5.59 -10.374,-7.508 -15.968,-4.277 -1.774,1.026 -3.25,2.501 -4.277,4.277 z"
   id="path1807"
   inkscape:connector-curvature="0" />
</g>
<g
   id="LWPOLYLINE_8_"
   transform="translate(-14.172113,-38.565653)">
	<polygon
   style="fill:#ffcd00"
   points="362.266,351.567 212.599,92.34 62.934,351.567 "
   id="polygon1810" />
</g>
<g
   id="LWPOLYLINE_12_"
   transform="translate(-14.172113,-38.565653)">
	<polygon
   style="fill:#101820"
   points="253.622,202.909 260.368,215.551 246.025,232.416 224.109,227.367 218.203,202.065 233.384,184.357 251.935,190.246 "
   id="polygon1813" />
</g>
<g
   id="LWPOLYLINE_13_"
   transform="translate(-14.172113,-38.565653)">
	<polygon
   style="fill:#101820"
   points="222.425,295.678 208.083,305.794 198.811,302.41 185.308,303.271 181.102,293.135 186.151,287.242 186.991,272.06 208.083,259.4 222.425,273.743 "
   id="polygon1816" />
</g>
<g
   id="LWPOLYLINE_14_"
   transform="translate(-14.172113,-38.565653)">
	<polygon
   style="fill:#101820"
   points="73.447,337.77 126.276,337.77 117.844,327.712 120.367,312.547 134.709,306.637 143.985,313.387 155.801,314.227 160.01,331.095 155.801,337.844 230.018,337.844 269.895,195.993 358.444,349.361 66.752,349.361 "
   id="polygon1819" />
</g>
</svg>