<?xml version="1.0" encoding="iso-8859-1"?>
<!-- Generator: Adobe Illustrator 16.0.0, SVG Export Plug-In . SVG Version: 6.00 Build 0)  -->
<!DOCTYPE svg PUBLIC "-//W3C//DTD SVG 1.1 Tiny//EN" "http://www.w3.org/Graphics/SVG/1.1/DTD/svg11-tiny.dtd">
<svg version="1.1" baseProfile="tiny" id="Layer_1" xmlns="http://www.w3.org/2000/svg" xmlns:xlink="http://www.w3.org/1999/xlink"
	 x="0px" y="0px" width="425.197px" height="425.196px" viewBox="0 0 425.197 425.196" xml:space="preserve">
<g id="LWPOLYLINE_6_">
	<path fill="#FFCD00" d="M198.426,46.749L16.367,362.088c-4.519,7.824-1.836,17.834,5.991,22.354
		c2.489,1.435,5.308,2.189,8.181,2.189h364.117c9.038,0,16.368-7.324,16.368-16.361c0-2.874-0.761-5.696-2.196-8.182L226.771,46.749
		c-4.519-7.827-14.526-10.507-22.354-5.987C201.929,42.196,199.865,44.264,198.426,46.749z"/>
</g>
<g id="LWPOLYLINE_7_">
	<path fill="#E4002B" d="M202.476,49.089L20.417,364.424c-3.227,5.59-1.313,12.741,4.277,15.968
		c1.778,1.023,3.795,1.567,5.845,1.567h364.117c6.46,0,11.689-5.236,11.689-11.689c0-2.055-0.537-4.067-1.563-5.846L222.721,49.089
		c-3.227-5.59-10.374-7.508-15.968-4.277C204.979,45.838,203.503,47.313,202.476,49.089z"/>
</g>
<g id="LWPOLYLINE_8_">
	<polygon fill="#FFCD00" points="212.599,92.34 62.934,351.567 362.266,351.567 	"/>
</g>
<g id="LWPOLYLINE_10_">
	<polygon fill="#101820" points="123.648,270.35 153.159,281.513 183.805,281.22 222.406,337.389 238.615,337.389 222.406,300.221 
		222.406,281.22 268.25,274.688 280.599,293.631 287.366,293.924 282.795,272.787 291.88,271.063 291.88,270.35 291.88,269.636 
		282.795,267.323 287.366,246.775 280.599,246.479 268.25,265.426 222.406,258.891 222.406,239.89 238.615,201.845 222.406,201.845 
		183.805,258.891 153.159,259.183 	"/>
</g>
</svg>
