<?xml version="1.0" encoding="iso-8859-1"?>
<!-- Generator: Adobe Illustrator 16.0.0, SVG Export Plug-In . SVG Version: 6.00 Build 0)  -->
<!DOCTYPE svg PUBLIC "-//W3C//DTD SVG 1.1//EN" "http://www.w3.org/Graphics/SVG/1.1/DTD/svg11.dtd">
<svg version="1.1" id="Layer_1" xmlns="http://www.w3.org/2000/svg" xmlns:xlink="http://www.w3.org/1999/xlink" x="0px" y="0px"
	 width="425.197px" height="425.196px" viewBox="0 0 425.197 425.196" style="enable-background:new 0 0 425.197 425.196;"
	 xml:space="preserve">
<g id="LWPOLYLINE_6_">
	<path style="fill:#FFCD00;" d="M202.442,20.039L71.982,246.006c-3.241,5.61-1.319,12.779,4.29,16.021
		c1.785,1.03,3.806,1.57,5.865,1.57h260.927c6.475,0,11.723-5.247,11.723-11.726c0-2.059-0.541-4.083-1.567-5.865L222.757,20.039
		c-3.242-5.609-10.411-7.531-16.021-4.292C204.952,16.775,203.474,18.256,202.442,20.039z"/>
</g>
<g id="LWPOLYLINE_69_">
	<rect x="61.823" y="277" style="fill:#FFCD00;" width="301.55" height="134.023"/>
</g>
<g id="LWPOLYLINE_7_">
	<path style="fill:#E4002B;" d="M205.344,21.714L74.883,247.684c-2.313,4.007-0.942,9.128,3.064,11.441
		c1.275,0.732,2.72,1.124,4.19,1.124h260.927c4.627,0,8.374-3.755,8.374-8.378c0-1.471-0.385-2.916-1.123-4.188L219.851,21.714
		c-2.313-4.008-7.434-5.38-11.44-3.067C207.14,19.383,206.079,20.439,205.344,21.714z"/>
</g>
<g id="LWPOLYLINE_67_">
	<path style="fill:#E4002B;" d="M75.227,411.023h274.748c7.397,0,13.398-6.002,13.398-13.404V290.403
		c0-7.405-6.001-13.403-13.398-13.403H75.227c-7.402,0-13.404,5.998-13.404,13.403v107.216
		C61.823,405.021,67.825,411.023,75.227,411.023z"/>
</g>
<g id="LWPOLYLINE_8_">
	<polygon style="fill:#FFCD00;" points="212.598,52.707 105.349,238.468 319.849,238.468 	"/>
</g>
<g id="LWPOLYLINE_68_">
	<path style="fill:#FFCD00;" d="M75.227,404.319h274.748c3.695,0,6.696-3.001,6.696-6.7V290.403c0-3.702-3.001-6.703-6.696-6.703
		H75.227c-3.699,0-6.7,3.001-6.7,6.703v107.216C68.527,401.318,71.528,404.319,75.227,404.319z"/>
</g>
<g id="CIRCLE">
	<path style="fill:#101820;" d="M224.327,216.409c0-6.478-5.251-11.726-11.729-11.726c-6.474,0-11.726,5.248-11.726,11.726
		c0,6.479,5.251,11.727,11.726,11.727C219.076,228.136,224.327,222.888,224.327,216.409L224.327,216.409z"/>
</g>
<g id="POINT_26_">
	<line style="fill:#101820;" x1="212.598" y1="204.684" x2="212.598" y2="204.684"/>
</g>
<g id="LWPOLYLINE_9_">
	<path style="fill:#101820;" d="M200.876,105.32l5.861,81.341c0,3.241,2.624,5.864,5.861,5.864c3.242,0,5.865-2.623,5.865-5.864
		l5.861-81.341c-0.089-6.474-5.41-11.651-11.885-11.563C206.09,93.844,200.964,98.972,200.876,105.32z"/>
</g>
<g id="LWPOLYLINE_40_">
	<path style="fill:#101820;" d="M124.598,306.612c-0.129-2.602-2.203-4.687-4.804-4.826h-2.532c-2.631,0.166-4.63,2.435-4.463,5.065
		c0.088,1.401,0.787,2.688,1.91,3.525l10.724,3.929c2.79,1.67,4.76,4.427,5.436,7.605c1.345,6.319-2.687,12.527-9.002,13.872
		c-0.089,0.015-0.174,0.03-0.262,0.041c-7.809,1.157-15.074-4.238-16.23-12.051l5.968-0.88c0.665,4.513,4.867,7.632,9.379,6.962
		c3.056-0.72,4.941-3.769,4.224-6.813c-0.318-1.331-1.101-2.506-2.217-3.304l-10.754-3.939c-3.101-1.874-5.056-5.174-5.207-8.795
		c-0.251-5.961,4.379-10.998,10.34-11.25h2.816c5.883,0.215,10.58,4.979,10.709,10.865L124.598,306.612z"/>
</g>
<g id="LWPOLYLINE_41_">
	<path style="fill:#101820;" d="M138.016,328.522v-22.716h6.031v21.308c0,2.221,1.799,4.021,4.021,4.021s4.021-1.8,4.021-4.021
		v-21.308h6.031v30.154h-6.031v-2.413c-2.077,1.29-4.408,2.11-6.836,2.413c-3.995,0-7.236-3.241-7.236-7.236V328.522z"/>
</g>
<g id="LWPOLYLINE_42_">
	<path style="fill:#101820;" d="M165.355,325.91c0,5.55,4.501,10.051,10.052,10.051c5.554,0,10.052-4.501,10.052-10.051v-10.053
		c0-5.55-4.498-10.051-10.052-10.051c-5.55,0-10.052,4.501-10.052,10.051V325.91z"/>
</g>
<g id="LWPOLYLINE_44_">
	<rect x="192.698" y="295.754" style="fill:#101820;" width="6.03" height="40.207"/>
</g>
<g id="LWPOLYLINE_45_">
	<path style="fill:#101820;" d="M225.266,335.961h-6.03v-1.929c-2.425,1.308-5.141,1.97-7.895,1.925
		c-2.476,0.066-4.704-1.493-5.487-3.84c-0.979-3.085-0.156-6.459,2.14-8.743c2.93-3.148,6.947-5.077,11.242-5.399v-3.122
		c0-1.667-1.354-3.015-3.017-3.015c-1.667,0-3.016,1.348-3.016,3.015h-6.031c0-4.996,4.05-9.046,9.046-9.046s9.047,4.05,9.047,9.046
		V335.961z"/>
</g>
<g id="LWPOLYLINE_47_">
	<path style="fill:#101820;" d="M231.696,328.522v-22.716h6.031v21.308c0,2.221,1.803,4.021,4.021,4.021
		c2.221,0,4.022-1.8,4.022-4.021v-21.308h6.031v30.154h-6.031v-2.413c-2.078,1.29-4.41,2.11-6.835,2.413
		c-3.998,0-7.239-3.241-7.239-7.236V328.522z"/>
</g>
<g id="LWPOLYLINE_48_">
	<path style="fill:#101820;" d="M258.231,325.91c0,5.55,4.501,10.051,10.052,10.051h0.806c4.885,0,8.847-3.961,8.847-8.847
		c0-3.148-1.67-6.057-4.39-7.643l-6.674-3.888c-0.621-0.362-0.998-1.02-0.998-1.736c0-1.108,0.901-2.01,2.01-2.01h1.205
		c1.109,0,2.011,0.901,2.011,2.01h6.03c0-4.441-3.599-8.041-8.041-8.041h-1.205c-4.441,0-8.041,3.6-8.041,8.041
		c0,2.86,1.522,5.506,3.991,6.947l6.674,3.888c0.864,0.503,1.396,1.431,1.396,2.432c0,1.556-1.264,2.815-2.815,2.815h-0.806
		c-2.217,0-4.021-1.803-4.021-4.02H258.231z"/>
</g>
<g id="LWPOLYLINE_49_">
	<path style="fill:#101820;" d="M291.808,305.807h3.415v6.031h-3.415v14.674c0,1.889,1.53,3.418,3.415,3.418v6.031
		c-5.219,0-9.445-4.231-9.445-9.449v-14.674h-3.423v-6.031h3.423v-10.053h6.03V305.807z"/>
</g>
<g id="LWPOLYLINE_50_">
	<path style="fill:#101820;" d="M319.752,335.961h-6.03v-1.929c-2.425,1.308-5.144,1.97-7.894,1.925
		c-2.476,0.066-4.708-1.493-5.491-3.84c-0.977-3.085-0.155-6.459,2.144-8.743c2.927-3.148,6.947-5.077,11.241-5.399v-3.122
		c0-1.667-1.353-3.015-3.016-3.015c-1.671,0-3.015,1.348-3.015,3.015h-6.031c0-4.996,4.05-9.046,9.046-9.046s9.046,4.05,9.046,9.046
		V335.961z"/>
</g>
<g id="LWPOLYLINE_52_">
	<polygon style="fill:#101820;" points="92.784,362.109 100.825,392.265 106.856,392.265 114.897,362.109 108.867,362.109 
		103.841,380.957 98.815,362.109 	"/>
</g>
<g id="LWPOLYLINE_53_">
	<rect x="131.786" y="352.059" style="fill:#101820;" width="6.031" height="6.03"/>
</g>
<g id="LWPOLYLINE_54_">
	<rect x="120.928" y="352.059" style="fill:#101820;" width="6.031" height="6.03"/>
</g>
<g id="LWPOLYLINE_55_">
	<path style="fill:#101820;" d="M138.619,392.265h-6.031v-1.929c-2.42,1.308-5.14,1.974-7.89,1.929
		c-2.476,0.067-4.704-1.493-5.487-3.843c-0.979-3.082-0.156-6.457,2.135-8.74c2.935-3.151,6.948-5.081,11.242-5.398v-3.127
		c0-1.662-1.349-3.016-3.015-3.016c-1.663,0-3.016,1.354-3.016,3.016h-6.031c0-4.996,4.051-9.047,9.047-9.047
		s9.046,4.051,9.046,9.047V392.265z"/>
</g>
<g id="LWPOLYLINE_57_">
	<path style="fill:#101820;" d="M165.961,369.55v-0.201c0-3.998-3.241-7.239-7.239-7.239c-2.424,0.304-4.756,1.124-6.833,2.413
		v-12.464h-6.031v40.206h6.031v-21.308c0-2.221,1.8-4.021,4.021-4.021c2.221,0,4.021,1.801,4.021,4.021v21.308h6.031V369.55z"/>
</g>
<g id="LWPOLYLINE_58_">
	<path style="fill:#101820;" d="M186.064,382.213h6.031c0,5.551-4.501,10.052-10.052,10.052c-5.554,0-10.052-4.501-10.052-10.052
		v-10.052c0-5.55,4.498-10.052,10.052-10.052c5.55,0,10.052,4.502,10.052,10.052v5.633h-14.072v4.419
		c0,2.225,1.799,4.021,4.021,4.021C184.265,386.233,186.064,384.438,186.064,382.213z"/>
</g>
<g id="LWPOLYLINE_60_">
	<path style="fill:#101820;" d="M219.435,369.55v22.715h-6.032v-21.308c0-2.221-1.799-4.021-4.021-4.021
		c-2.221,0-4.021,1.801-4.021,4.021v21.308h-6.031v-30.155h6.031v2.413c2.077-1.289,4.408-2.109,6.836-2.413
		c3.994,0,7.236,3.241,7.236,7.239V369.55z"/>
</g>
<g id="LWPOLYLINE_61_">
	<path style="fill:#101820;" d="M246.776,369.55v22.715h-6.033v-21.308c0-2.221-1.801-4.021-4.021-4.021
		c-2.218,0-4.021,1.801-4.021,4.021v21.308h-6.03v-30.155h6.03v2.413c2.077-1.289,4.412-2.109,6.837-2.413
		c3.999,0,7.238,3.241,7.238,7.239V369.55z"/>
</g>
<g id="LWPOLYLINE_62_">
	<path style="fill:#101820;" d="M266.878,382.213h6.031c0,5.551-4.501,10.052-10.052,10.052s-10.052-4.501-10.052-10.052v-10.052
		c0-5.55,4.501-10.052,10.052-10.052s10.052,4.502,10.052,10.052v5.633h-14.072v4.419c0,2.225,1.803,4.021,4.021,4.021
		C265.075,386.233,266.878,384.438,266.878,382.213z"/>
</g>
<g id="LWPOLYLINE_64_">
	<path style="fill:#101820;" d="M287.181,362.109h3.423v6.031h-3.423v14.679c0,1.885,1.53,3.414,3.423,3.414v6.031
		c-5.219,0-9.454-4.228-9.454-9.445v-14.679h-3.414v-6.031h3.414v-10.051h6.031V362.109z"/>
</g>
<g id="LWPOLYLINE_65_">
	<path style="fill:#101820;" d="M303.67,362.109h3.415v6.031h-3.415v14.679c0,1.885,1.53,3.414,3.415,3.414v6.031
		c-5.218,0-9.445-4.228-9.445-9.445v-14.679h-3.423v-6.031h3.423v-10.051h6.03V362.109z"/>
</g>
<g id="LWPOLYLINE_66_">
	<path style="fill:#101820;" d="M317.388,389.712l-7.089-27.336h6.032l5.025,18.848l5.026-18.848h6.03l-8.041,30.155
		c-0.888,5.106-5.751,8.525-10.857,7.638l1.611-6.03c1.773,0,3.215-1.441,3.215-3.219c0-0.495-0.303-0.946-0.769-1.124
		C317.506,389.771,317.447,389.745,317.388,389.712z"/>
</g>
<g id="LWPOLYLINE_43_">
	<path style="fill:#FFCD00;" d="M171.386,325.91c0,2.217,1.803,4.02,4.021,4.02c2.221,0,4.021-1.803,4.021-4.02v-10.053
		c0-2.221-1.799-4.02-4.021-4.02c-2.217,0-4.021,1.799-4.021,4.02V325.91z"/>
</g>
<g id="LWPOLYLINE_46_">
	<path style="fill:#FFCD00;" d="M219.236,321.903c-2.016,0.488-3.881,1.441-5.452,2.794c-1.408,1.234-2.206,3.026-2.184,4.9
		c0.026,1.223,1.038,2.191,2.258,2.165c0.1-0.004,0.203-0.015,0.3-0.029c1.777-0.288,3.492-0.868,5.078-1.722V321.903z"/>
</g>
<g id="LWPOLYLINE_51_">
	<path style="fill:#FFCD00;" d="M313.722,321.903c-2.018,0.488-3.88,1.441-5.455,2.794c-1.403,1.234-2.202,3.026-2.18,4.9
		c0.022,1.223,1.034,2.191,2.254,2.165c0.104-0.004,0.207-0.015,0.303-0.029c1.774-0.288,3.489-0.868,5.078-1.722V321.903z"/>
</g>
<g id="LWPOLYLINE_56_">
	<path style="fill:#FFCD00;" d="M132.587,378.215c-2.01,0.48-3.876,1.438-5.447,2.786c-1.408,1.238-2.21,3.03-2.188,4.907
		c0.029,1.221,1.042,2.188,2.261,2.159c0.1,0,0.2-0.012,0.299-0.026c1.778-0.288,3.492-0.868,5.074-1.726V378.215z"/>
</g>
<g id="LWPOLYLINE_59_">
	<path style="fill:#FFCD00;" d="M178.023,372.564h8.041v-0.403c0-2.217-1.8-4.021-4.021-4.021c-2.221,0-4.021,1.804-4.021,4.021
		V372.564z"/>
</g>
<g id="LWPOLYLINE_63_">
	<path style="fill:#FFCD00;" d="M258.837,372.564h8.041v-0.403c0-2.217-1.804-4.021-4.021-4.021c-2.218,0-4.021,1.804-4.021,4.021
		V372.564z"/>
</g>
</svg>
