<?xml version="1.0" encoding="UTF-8" standalone="no"?>
<!-- Generator: Adobe Illustrator 16.0.0, SVG Export Plug-In . SVG Version: 6.00 Build 0)  -->

<svg
   xmlns:dc="http://purl.org/dc/elements/1.1/"
   xmlns:cc="http://creativecommons.org/ns#"
   xmlns:rdf="http://www.w3.org/1999/02/22-rdf-syntax-ns#"
   xmlns:svg="http://www.w3.org/2000/svg"
   xmlns="http://www.w3.org/2000/svg"
   xmlns:sodipodi="http://sodipodi.sourceforge.net/DTD/sodipodi-0.dtd"
   xmlns:inkscape="http://www.inkscape.org/namespaces/inkscape"
   version="1.1"
   id="Layer_1"
   x="0px"
   y="0px"
   width="301.54999"
   height="396.84949"
   viewBox="0 0 301.54999 396.84947"
   xml:space="preserve"
   sodipodi:docname="A33_2.svg"
   inkscape:version="0.92.5 (2060ec1f9f, 2020-04-08)"><metadata
   id="metadata2017"><rdf:RDF><cc:Work
       rdf:about=""><dc:format>image/svg+xml</dc:format><dc:type
         rdf:resource="http://purl.org/dc/dcmitype/StillImage" /></cc:Work></rdf:RDF></metadata><defs
   id="defs2015" /><sodipodi:namedview
   pagecolor="#ffffff"
   bordercolor="#666666"
   borderopacity="1"
   objecttolerance="10"
   gridtolerance="10"
   guidetolerance="10"
   inkscape:pageopacity="0"
   inkscape:pageshadow="2"
   inkscape:window-width="640"
   inkscape:window-height="480"
   id="namedview2013"
   showgrid="false"
   inkscape:zoom="0.55503813"
   inkscape:cx="150.7755"
   inkscape:cy="198.42499"
   inkscape:window-x="0"
   inkscape:window-y="0"
   inkscape:window-maximized="0"
   inkscape:current-layer="Layer_1" />
<g
   id="LWPOLYLINE_6_"
   transform="translate(-61.823,-14.17351)">
	<path
   style="fill:#ffcd00"
   d="M 202.442,20.039 71.982,246.006 c -3.241,5.61 -1.319,12.779 4.29,16.021 1.785,1.03 3.806,1.57 5.865,1.57 h 260.927 c 6.475,0 11.723,-5.247 11.723,-11.726 0,-2.059 -0.541,-4.083 -1.567,-5.865 L 222.757,20.039 c -3.242,-5.609 -10.411,-7.531 -16.021,-4.292 -1.784,1.028 -3.262,2.509 -4.294,4.292 z"
   id="path1904"
   inkscape:connector-curvature="0" />
</g>
<g
   id="LWPOLYLINE_69_"
   transform="translate(-61.823,-14.17351)">
	<rect
   x="61.823002"
   y="277"
   style="fill:#ffcd00"
   width="301.54999"
   height="134.02299"
   id="rect1907" />
</g>
<g
   id="LWPOLYLINE_7_"
   transform="translate(-61.823,-14.17351)">
	<path
   style="fill:#e4002b"
   d="M 205.344,21.714 74.883,247.684 c -2.313,4.007 -0.942,9.128 3.064,11.441 1.275,0.732 2.72,1.124 4.19,1.124 h 260.927 c 4.627,0 8.374,-3.755 8.374,-8.378 0,-1.471 -0.385,-2.916 -1.123,-4.188 L 219.851,21.714 c -2.313,-4.008 -7.434,-5.38 -11.44,-3.067 -1.271,0.736 -2.332,1.792 -3.067,3.067 z"
   id="path1910"
   inkscape:connector-curvature="0" />
</g>
<g
   id="LWPOLYLINE_67_"
   transform="translate(-61.823,-14.17351)">
	<path
   style="fill:#e4002b"
   d="m 75.227,411.023 h 274.748 c 7.397,0 13.398,-6.002 13.398,-13.404 V 290.403 C 363.373,282.998 357.372,277 349.975,277 H 75.227 c -7.402,0 -13.404,5.998 -13.404,13.403 v 107.216 c 0,7.402 6.002,13.404 13.404,13.404 z"
   id="path1913"
   inkscape:connector-curvature="0" />
</g>
<g
   id="LWPOLYLINE_8_"
   transform="translate(-61.823,-14.17351)">
	<polygon
   style="fill:#ffcd00"
   points="319.849,238.468 212.598,52.707 105.349,238.468 "
   id="polygon1916" />
</g>
<g
   id="LWPOLYLINE_68_"
   transform="translate(-61.823,-14.17351)">
	<path
   style="fill:#ffcd00"
   d="m 75.227,404.319 h 274.748 c 3.695,0 6.696,-3.001 6.696,-6.7 V 290.403 c 0,-3.702 -3.001,-6.703 -6.696,-6.703 H 75.227 c -3.699,0 -6.7,3.001 -6.7,6.703 v 107.216 c 0,3.699 3.001,6.7 6.7,6.7 z"
   id="path1919"
   inkscape:connector-curvature="0" />
</g>
<g
   id="CIRCLE"
   transform="translate(-61.823,-14.17351)">
	<path
   style="fill:#101820"
   d="m 224.327,216.409 c 0,-6.478 -5.251,-11.726 -11.729,-11.726 -6.474,0 -11.726,5.248 -11.726,11.726 0,6.479 5.251,11.727 11.726,11.727 6.478,0 11.729,-5.248 11.729,-11.727 z"
   id="path1922"
   inkscape:connector-curvature="0" />
</g>
<g
   id="POINT_26_"
   transform="translate(-61.823,-14.17351)">
	<line
   style="fill:#101820"
   x1="212.59801"
   y1="204.68401"
   x2="212.59801"
   y2="204.68401"
   id="line1925" />
</g>
<g
   id="LWPOLYLINE_9_"
   transform="translate(-61.823,-14.17351)">
	<path
   style="fill:#101820"
   d="m 200.876,105.32 5.861,81.341 c 0,3.241 2.624,5.864 5.861,5.864 3.242,0 5.865,-2.623 5.865,-5.864 l 5.861,-81.341 c -0.089,-6.474 -5.41,-11.651 -11.885,-11.563 -6.349,0.087 -11.475,5.215 -11.563,11.563 z"
   id="path1928"
   inkscape:connector-curvature="0" />
</g>
<g
   id="LWPOLYLINE_40_"
   transform="translate(-61.823,-14.17351)">
	<path
   style="fill:#101820"
   d="m 124.598,306.612 c -0.129,-2.602 -2.203,-4.687 -4.804,-4.826 h -2.532 c -2.631,0.166 -4.63,2.435 -4.463,5.065 0.088,1.401 0.787,2.688 1.91,3.525 l 10.724,3.929 c 2.79,1.67 4.76,4.427 5.436,7.605 1.345,6.319 -2.687,12.527 -9.002,13.872 -0.089,0.015 -0.174,0.03 -0.262,0.041 -7.809,1.157 -15.074,-4.238 -16.23,-12.051 l 5.968,-0.88 c 0.665,4.513 4.867,7.632 9.379,6.962 3.056,-0.72 4.941,-3.769 4.224,-6.813 -0.318,-1.331 -1.101,-2.506 -2.217,-3.304 l -10.754,-3.939 c -3.101,-1.874 -5.056,-5.174 -5.207,-8.795 -0.251,-5.961 4.379,-10.998 10.34,-11.25 h 2.816 c 5.883,0.215 10.58,4.979 10.709,10.865 z"
   id="path1931"
   inkscape:connector-curvature="0" />
</g>
<g
   id="LWPOLYLINE_41_"
   transform="translate(-61.823,-14.17351)">
	<path
   style="fill:#101820"
   d="m 138.016,328.522 v -22.716 h 6.031 v 21.308 c 0,2.221 1.799,4.021 4.021,4.021 2.222,0 4.021,-1.8 4.021,-4.021 v -21.308 h 6.031 v 30.154 h -6.031 v -2.413 c -2.077,1.29 -4.408,2.11 -6.836,2.413 -3.995,0 -7.236,-3.241 -7.236,-7.236 v -0.202 z"
   id="path1934"
   inkscape:connector-curvature="0" />
</g>
<g
   id="LWPOLYLINE_42_"
   transform="translate(-61.823,-14.17351)">
	<path
   style="fill:#101820"
   d="m 165.355,325.91 c 0,5.55 4.501,10.051 10.052,10.051 5.554,0 10.052,-4.501 10.052,-10.051 v -10.053 c 0,-5.55 -4.498,-10.051 -10.052,-10.051 -5.55,0 -10.052,4.501 -10.052,10.051 z"
   id="path1937"
   inkscape:connector-curvature="0" />
</g>
<g
   id="LWPOLYLINE_44_"
   transform="translate(-61.823,-14.17351)">
	<rect
   x="192.698"
   y="295.754"
   style="fill:#101820"
   width="6.0300002"
   height="40.207001"
   id="rect1940" />
</g>
<g
   id="LWPOLYLINE_45_"
   transform="translate(-61.823,-14.17351)">
	<path
   style="fill:#101820"
   d="m 225.266,335.961 h -6.03 v -1.929 c -2.425,1.308 -5.141,1.97 -7.895,1.925 -2.476,0.066 -4.704,-1.493 -5.487,-3.84 -0.979,-3.085 -0.156,-6.459 2.14,-8.743 2.93,-3.148 6.947,-5.077 11.242,-5.399 v -3.122 c 0,-1.667 -1.354,-3.015 -3.017,-3.015 -1.667,0 -3.016,1.348 -3.016,3.015 h -6.031 c 0,-4.996 4.05,-9.046 9.046,-9.046 4.996,0 9.047,4.05 9.047,9.046 v 21.108 z"
   id="path1943"
   inkscape:connector-curvature="0" />
</g>
<g
   id="LWPOLYLINE_47_"
   transform="translate(-61.823,-14.17351)">
	<path
   style="fill:#101820"
   d="m 231.696,328.522 v -22.716 h 6.031 v 21.308 c 0,2.221 1.803,4.021 4.021,4.021 2.221,0 4.022,-1.8 4.022,-4.021 v -21.308 h 6.031 v 30.154 h -6.031 v -2.413 c -2.078,1.29 -4.41,2.11 -6.835,2.413 -3.998,0 -7.239,-3.241 -7.239,-7.236 z"
   id="path1946"
   inkscape:connector-curvature="0" />
</g>
<g
   id="LWPOLYLINE_48_"
   transform="translate(-61.823,-14.17351)">
	<path
   style="fill:#101820"
   d="m 258.231,325.91 c 0,5.55 4.501,10.051 10.052,10.051 h 0.806 c 4.885,0 8.847,-3.961 8.847,-8.847 0,-3.148 -1.67,-6.057 -4.39,-7.643 l -6.674,-3.888 c -0.621,-0.362 -0.998,-1.02 -0.998,-1.736 0,-1.108 0.901,-2.01 2.01,-2.01 h 1.205 c 1.109,0 2.011,0.901 2.011,2.01 h 6.03 c 0,-4.441 -3.599,-8.041 -8.041,-8.041 h -1.205 c -4.441,0 -8.041,3.6 -8.041,8.041 0,2.86 1.522,5.506 3.991,6.947 l 6.674,3.888 c 0.864,0.503 1.396,1.431 1.396,2.432 0,1.556 -1.264,2.815 -2.815,2.815 h -0.806 c -2.217,0 -4.021,-1.803 -4.021,-4.02 h -6.031 z"
   id="path1949"
   inkscape:connector-curvature="0" />
</g>
<g
   id="LWPOLYLINE_49_"
   transform="translate(-61.823,-14.17351)">
	<path
   style="fill:#101820"
   d="m 291.808,305.807 h 3.415 v 6.031 h -3.415 v 14.674 c 0,1.889 1.53,3.418 3.415,3.418 v 6.031 c -5.219,0 -9.445,-4.231 -9.445,-9.449 v -14.674 h -3.423 v -6.031 h 3.423 v -10.053 h 6.03 z"
   id="path1952"
   inkscape:connector-curvature="0" />
</g>
<g
   id="LWPOLYLINE_50_"
   transform="translate(-61.823,-14.17351)">
	<path
   style="fill:#101820"
   d="m 319.752,335.961 h -6.03 v -1.929 c -2.425,1.308 -5.144,1.97 -7.894,1.925 -2.476,0.066 -4.708,-1.493 -5.491,-3.84 -0.977,-3.085 -0.155,-6.459 2.144,-8.743 2.927,-3.148 6.947,-5.077 11.241,-5.399 v -3.122 c 0,-1.667 -1.353,-3.015 -3.016,-3.015 -1.671,0 -3.015,1.348 -3.015,3.015 h -6.031 c 0,-4.996 4.05,-9.046 9.046,-9.046 4.996,0 9.046,4.05 9.046,9.046 z"
   id="path1955"
   inkscape:connector-curvature="0" />
</g>
<g
   id="LWPOLYLINE_52_"
   transform="translate(-61.823,-14.17351)">
	<polygon
   style="fill:#101820"
   points="106.856,392.265 114.897,362.109 108.867,362.109 103.841,380.957 98.815,362.109 92.784,362.109 100.825,392.265 "
   id="polygon1958" />
</g>
<g
   id="LWPOLYLINE_53_"
   transform="translate(-61.823,-14.17351)">
	<rect
   x="131.786"
   y="352.05899"
   style="fill:#101820"
   width="6.0310001"
   height="6.0300002"
   id="rect1961" />
</g>
<g
   id="LWPOLYLINE_54_"
   transform="translate(-61.823,-14.17351)">
	<rect
   x="120.928"
   y="352.05899"
   style="fill:#101820"
   width="6.0310001"
   height="6.0300002"
   id="rect1964" />
</g>
<g
   id="LWPOLYLINE_55_"
   transform="translate(-61.823,-14.17351)">
	<path
   style="fill:#101820"
   d="m 138.619,392.265 h -6.031 v -1.929 c -2.42,1.308 -5.14,1.974 -7.89,1.929 -2.476,0.067 -4.704,-1.493 -5.487,-3.843 -0.979,-3.082 -0.156,-6.457 2.135,-8.74 2.935,-3.151 6.948,-5.081 11.242,-5.398 v -3.127 c 0,-1.662 -1.349,-3.016 -3.015,-3.016 -1.663,0 -3.016,1.354 -3.016,3.016 h -6.031 c 0,-4.996 4.051,-9.047 9.047,-9.047 4.996,0 9.046,4.051 9.046,9.047 z"
   id="path1967"
   inkscape:connector-curvature="0" />
</g>
<g
   id="LWPOLYLINE_57_"
   transform="translate(-61.823,-14.17351)">
	<path
   style="fill:#101820"
   d="m 165.961,369.55 v -0.201 c 0,-3.998 -3.241,-7.239 -7.239,-7.239 -2.424,0.304 -4.756,1.124 -6.833,2.413 v -12.464 h -6.031 v 40.206 h 6.031 v -21.308 c 0,-2.221 1.8,-4.021 4.021,-4.021 2.221,0 4.021,1.801 4.021,4.021 v 21.308 h 6.031 V 369.55 Z"
   id="path1970"
   inkscape:connector-curvature="0" />
</g>
<g
   id="LWPOLYLINE_58_"
   transform="translate(-61.823,-14.17351)">
	<path
   style="fill:#101820"
   d="m 186.064,382.213 h 6.031 c 0,5.551 -4.501,10.052 -10.052,10.052 -5.554,0 -10.052,-4.501 -10.052,-10.052 v -10.052 c 0,-5.55 4.498,-10.052 10.052,-10.052 5.55,0 10.052,4.502 10.052,10.052 v 5.633 h -14.072 v 4.419 c 0,2.225 1.799,4.021 4.021,4.021 2.221,-10e-4 4.02,-1.796 4.02,-4.021 z"
   id="path1973"
   inkscape:connector-curvature="0" />
</g>
<g
   id="LWPOLYLINE_60_"
   transform="translate(-61.823,-14.17351)">
	<path
   style="fill:#101820"
   d="m 219.435,369.55 v 22.715 h -6.032 v -21.308 c 0,-2.221 -1.799,-4.021 -4.021,-4.021 -2.221,0 -4.021,1.801 -4.021,4.021 v 21.308 H 199.33 V 362.11 h 6.031 v 2.413 c 2.077,-1.289 4.408,-2.109 6.836,-2.413 3.994,0 7.236,3.241 7.236,7.239 v 0.201 z"
   id="path1976"
   inkscape:connector-curvature="0" />
</g>
<g
   id="LWPOLYLINE_61_"
   transform="translate(-61.823,-14.17351)">
	<path
   style="fill:#101820"
   d="m 246.776,369.55 v 22.715 h -6.033 v -21.308 c 0,-2.221 -1.801,-4.021 -4.021,-4.021 -2.218,0 -4.021,1.801 -4.021,4.021 v 21.308 h -6.03 V 362.11 h 6.03 v 2.413 c 2.077,-1.289 4.412,-2.109 6.837,-2.413 3.999,0 7.238,3.241 7.238,7.239 z"
   id="path1979"
   inkscape:connector-curvature="0" />
</g>
<g
   id="LWPOLYLINE_62_"
   transform="translate(-61.823,-14.17351)">
	<path
   style="fill:#101820"
   d="m 266.878,382.213 h 6.031 c 0,5.551 -4.501,10.052 -10.052,10.052 -5.551,0 -10.052,-4.501 -10.052,-10.052 v -10.052 c 0,-5.55 4.501,-10.052 10.052,-10.052 5.551,0 10.052,4.502 10.052,10.052 v 5.633 h -14.072 v 4.419 c 0,2.225 1.803,4.021 4.021,4.021 2.217,-10e-4 4.02,-1.796 4.02,-4.021 z"
   id="path1982"
   inkscape:connector-curvature="0" />
</g>
<g
   id="LWPOLYLINE_64_"
   transform="translate(-61.823,-14.17351)">
	<path
   style="fill:#101820"
   d="m 287.181,362.109 h 3.423 v 6.031 h -3.423 v 14.679 c 0,1.885 1.53,3.414 3.423,3.414 v 6.031 c -5.219,0 -9.454,-4.228 -9.454,-9.445 V 368.14 h -3.414 v -6.031 h 3.414 v -10.051 h 6.031 z"
   id="path1985"
   inkscape:connector-curvature="0" />
</g>
<g
   id="LWPOLYLINE_65_"
   transform="translate(-61.823,-14.17351)">
	<path
   style="fill:#101820"
   d="m 303.67,362.109 h 3.415 v 6.031 h -3.415 v 14.679 c 0,1.885 1.53,3.414 3.415,3.414 v 6.031 c -5.218,0 -9.445,-4.228 -9.445,-9.445 V 368.14 h -3.423 v -6.031 h 3.423 v -10.051 h 6.03 z"
   id="path1988"
   inkscape:connector-curvature="0" />
</g>
<g
   id="LWPOLYLINE_66_"
   transform="translate(-61.823,-14.17351)">
	<path
   style="fill:#101820"
   d="m 317.388,389.712 -7.089,-27.336 h 6.032 l 5.025,18.848 5.026,-18.848 h 6.03 l -8.041,30.155 c -0.888,5.106 -5.751,8.525 -10.857,7.638 l 1.611,-6.03 c 1.773,0 3.215,-1.441 3.215,-3.219 0,-0.495 -0.303,-0.946 -0.769,-1.124 -0.065,-0.025 -0.124,-0.051 -0.183,-0.084 z"
   id="path1991"
   inkscape:connector-curvature="0" />
</g>
<g
   id="LWPOLYLINE_43_"
   transform="translate(-61.823,-14.17351)">
	<path
   style="fill:#ffcd00"
   d="m 171.386,325.91 c 0,2.217 1.803,4.02 4.021,4.02 2.221,0 4.021,-1.803 4.021,-4.02 v -10.053 c 0,-2.221 -1.799,-4.02 -4.021,-4.02 -2.217,0 -4.021,1.799 -4.021,4.02 z"
   id="path1994"
   inkscape:connector-curvature="0" />
</g>
<g
   id="LWPOLYLINE_46_"
   transform="translate(-61.823,-14.17351)">
	<path
   style="fill:#ffcd00"
   d="m 219.236,321.903 c -2.016,0.488 -3.881,1.441 -5.452,2.794 -1.408,1.234 -2.206,3.026 -2.184,4.9 0.026,1.223 1.038,2.191 2.258,2.165 0.1,-0.004 0.203,-0.015 0.3,-0.029 1.777,-0.288 3.492,-0.868 5.078,-1.722 z"
   id="path1997"
   inkscape:connector-curvature="0" />
</g>
<g
   id="LWPOLYLINE_51_"
   transform="translate(-61.823,-14.17351)">
	<path
   style="fill:#ffcd00"
   d="m 313.722,321.903 c -2.018,0.488 -3.88,1.441 -5.455,2.794 -1.403,1.234 -2.202,3.026 -2.18,4.9 0.022,1.223 1.034,2.191 2.254,2.165 0.104,-0.004 0.207,-0.015 0.303,-0.029 1.774,-0.288 3.489,-0.868 5.078,-1.722 z"
   id="path2000"
   inkscape:connector-curvature="0" />
</g>
<g
   id="LWPOLYLINE_56_"
   transform="translate(-61.823,-14.17351)">
	<path
   style="fill:#ffcd00"
   d="m 132.587,378.215 c -2.01,0.48 -3.876,1.438 -5.447,2.786 -1.408,1.238 -2.21,3.03 -2.188,4.907 0.029,1.221 1.042,2.188 2.261,2.159 0.1,0 0.2,-0.012 0.299,-0.026 1.778,-0.288 3.492,-0.868 5.074,-1.726 v -8.1 z"
   id="path2003"
   inkscape:connector-curvature="0" />
</g>
<g
   id="LWPOLYLINE_59_"
   transform="translate(-61.823,-14.17351)">
	<path
   style="fill:#ffcd00"
   d="m 178.023,372.564 h 8.041 v -0.403 c 0,-2.217 -1.8,-4.021 -4.021,-4.021 -2.221,0 -4.021,1.804 -4.021,4.021 v 0.403 z"
   id="path2006"
   inkscape:connector-curvature="0" />
</g>
<g
   id="LWPOLYLINE_63_"
   transform="translate(-61.823,-14.17351)">
	<path
   style="fill:#ffcd00"
   d="m 258.837,372.564 h 8.041 v -0.403 c 0,-2.217 -1.804,-4.021 -4.021,-4.021 -2.218,0 -4.021,1.804 -4.021,4.021 v 0.403 z"
   id="path2009"
   inkscape:connector-curvature="0" />
</g>
</svg>