<?xml version="1.0" encoding="iso-8859-1"?>
<!-- Generator: Adobe Illustrator 16.0.0, SVG Export Plug-In . SVG Version: 6.00 Build 0)  -->
<!DOCTYPE svg PUBLIC "-//W3C//DTD SVG 1.1//EN" "http://www.w3.org/Graphics/SVG/1.1/DTD/svg11.dtd">
<svg version="1.1" id="Layer_1" xmlns="http://www.w3.org/2000/svg" xmlns:xlink="http://www.w3.org/1999/xlink" x="0px" y="0px"
	 width="425.197px" height="425.196px" viewBox="0 0 425.197 425.196" style="enable-background:new 0 0 425.197 425.196;"
	 xml:space="preserve">
<g id="LWPOLYLINE_10_">
	<path style="fill:#FFCD00;" d="M198.426,46.749L16.367,362.088c-4.519,7.824-1.836,17.834,5.991,22.354
		c2.489,1.435,5.308,2.189,8.181,2.189h364.117c9.038,0,16.368-7.324,16.368-16.362c0-2.873-0.761-5.695-2.196-8.181L226.771,46.749
		c-4.519-7.827-14.526-10.507-22.354-5.987C201.929,42.196,199.865,44.264,198.426,46.749z"/>
</g>
<g id="LWPOLYLINE_11_">
	<path style="fill:#E4002B;" d="M202.476,49.089L20.417,364.424c-3.227,5.59-1.313,12.741,4.277,15.968
		c1.778,1.023,3.795,1.567,5.845,1.567h364.117c6.46,0,11.69-5.236,11.69-11.69c0-2.054-0.538-4.066-1.564-5.845L222.721,49.089
		c-3.227-5.59-10.374-7.508-15.968-4.277C204.979,45.838,203.503,47.313,202.476,49.089z"/>
</g>
<g id="LWPOLYLINE_12_">
	<polygon style="fill:#FFCD00;" points="212.599,92.34 62.934,351.567 362.266,351.567 	"/>
</g>
<g id="LWPOLYLINE_15_">
	<path style="fill:#101820;" d="M147.096,337.307c2.969-0.646,6.073-0.112,8.657,1.489c8.762,5.444,19.854,5.444,28.616,0
		c3.846-2.387,8.722-2.339,12.52,0.123c8.977,5.817,20.531,5.817,29.507,0c3.824-2.482,8.747-2.51,12.597-0.071
		c8.854,5.597,20.136,5.597,28.99,0c2.992-1.895,6.678-2.326,10.031-1.181v11.562h67.794l-35.091-60.783h-32.703v21.17
		c-3.354-1.149-7.039-0.714-10.031,1.177c-8.854,5.601-20.136,5.601-28.99,0c-3.85-2.435-8.772-2.407-12.597,0.075
		c-8.977,5.817-20.531,5.817-29.507,0c-3.798-2.462-8.674-2.51-12.52-0.123c-8.762,5.44-19.854,5.44-28.616,0
		c-2.584-1.604-5.688-2.139-8.657-1.489v-20.81H114.39l-35.091,60.776l67.797,0.007V337.307z"/>
</g>
<g id="LWPOLYLINE_13_">
	<path style="fill:#FFCD00;" d="M147.096,318.619v9.337c2.969-0.646,6.073-0.115,8.657,1.489c8.762,5.444,19.854,5.444,28.616,0
		c3.846-2.387,8.722-2.339,12.52,0.123c8.977,5.817,20.531,5.817,29.507,0c3.824-2.482,8.747-2.51,12.597-0.071
		c8.854,5.597,20.136,5.597,28.99,0c2.992-1.895,6.678-2.326,10.031-1.181v-9.351c-3.354-1.146-7.039-0.714-10.031,1.18
		c-8.854,5.598-20.136,5.598-28.99,0c-3.85-2.438-8.772-2.41-12.597,0.072c-8.977,5.817-20.531,5.817-29.507,0
		c-3.798-2.462-8.674-2.51-12.52-0.123c-8.762,5.444-19.854,5.444-28.616,0C153.169,318.49,150.065,317.956,147.096,318.619z"/>
</g>
<g id="LWPOLYLINE_14_">
	<polygon style="fill:#101820;" points="147.096,288.445 137.708,278.021 236.736,188.855 246.127,199.277 	"/>
</g>
</svg>
