<?xml version="1.0" encoding="UTF-8" standalone="no"?>
<!-- Generator: Adobe Illustrator 16.0.0, SVG Export Plug-In . SVG Version: 6.00 Build 0)  -->

<svg
   xmlns:dc="http://purl.org/dc/elements/1.1/"
   xmlns:cc="http://creativecommons.org/ns#"
   xmlns:rdf="http://www.w3.org/1999/02/22-rdf-syntax-ns#"
   xmlns:svg="http://www.w3.org/2000/svg"
   xmlns="http://www.w3.org/2000/svg"
   xmlns:sodipodi="http://sodipodi.sourceforge.net/DTD/sodipodi-0.dtd"
   xmlns:inkscape="http://www.inkscape.org/namespaces/inkscape"
   version="1.1"
   id="Layer_1"
   x="0px"
   y="0px"
   width="396.8519"
   height="348.06534"
   viewBox="0 0 396.85191 348.06533"
   xml:space="preserve"
   sodipodi:docname="A6.svg"
   inkscape:version="0.92.5 (2060ec1f9f, 2020-04-08)"><metadata
   id="metadata2086"><rdf:RDF><cc:Work
       rdf:about=""><dc:format>image/svg+xml</dc:format><dc:type
         rdf:resource="http://purl.org/dc/dcmitype/StillImage" /></cc:Work></rdf:RDF></metadata><defs
   id="defs2084" /><sodipodi:namedview
   pagecolor="#ffffff"
   bordercolor="#666666"
   borderopacity="1"
   objecttolerance="10"
   gridtolerance="10"
   guidetolerance="10"
   inkscape:pageopacity="0"
   inkscape:pageshadow="2"
   inkscape:window-width="640"
   inkscape:window-height="480"
   id="namedview2082"
   showgrid="false"
   inkscape:zoom="0.55503813"
   inkscape:cx="198.42638"
   inkscape:cy="174.03299"
   inkscape:window-x="0"
   inkscape:window-y="0"
   inkscape:window-maximized="0"
   inkscape:current-layer="Layer_1" />
<g
   id="LWPOLYLINE_10_"
   transform="translate(-14.172113,-38.565653)">
	<path
   style="fill:#ffcd00"
   d="M 198.426,46.749 16.367,362.088 c -4.519,7.824 -1.836,17.834 5.991,22.354 2.489,1.435 5.308,2.189 8.181,2.189 h 364.117 c 9.038,0 16.368,-7.324 16.368,-16.362 0,-2.873 -0.761,-5.695 -2.196,-8.181 L 226.771,46.749 c -4.519,-7.827 -14.526,-10.507 -22.354,-5.987 -2.488,1.434 -4.552,3.502 -5.991,5.987 z"
   id="path2063"
   inkscape:connector-curvature="0" />
</g>
<g
   id="LWPOLYLINE_11_"
   transform="translate(-14.172113,-38.565653)">
	<path
   style="fill:#e4002b"
   d="M 202.476,49.089 20.417,364.424 c -3.227,5.59 -1.313,12.741 4.277,15.968 1.778,1.023 3.795,1.567 5.845,1.567 h 364.117 c 6.46,0 11.69,-5.236 11.69,-11.69 0,-2.054 -0.538,-4.066 -1.564,-5.845 L 222.721,49.089 c -3.227,-5.59 -10.374,-7.508 -15.968,-4.277 -1.774,1.026 -3.25,2.501 -4.277,4.277 z"
   id="path2066"
   inkscape:connector-curvature="0" />
</g>
<g
   id="LWPOLYLINE_12_"
   transform="translate(-14.172113,-38.565653)">
	<polygon
   style="fill:#ffcd00"
   points="362.266,351.567 212.599,92.34 62.934,351.567 "
   id="polygon2069" />
</g>
<g
   id="LWPOLYLINE_15_"
   transform="translate(-14.172113,-38.565653)">
	<path
   style="fill:#101820"
   d="m 147.096,337.307 c 2.969,-0.646 6.073,-0.112 8.657,1.489 8.762,5.444 19.854,5.444 28.616,0 3.846,-2.387 8.722,-2.339 12.52,0.123 8.977,5.817 20.531,5.817 29.507,0 3.824,-2.482 8.747,-2.51 12.597,-0.071 8.854,5.597 20.136,5.597 28.99,0 2.992,-1.895 6.678,-2.326 10.031,-1.181 v 11.562 h 67.794 l -35.091,-60.783 h -32.703 v 21.17 c -3.354,-1.149 -7.039,-0.714 -10.031,1.177 -8.854,5.601 -20.136,5.601 -28.99,0 -3.85,-2.435 -8.772,-2.407 -12.597,0.075 -8.977,5.817 -20.531,5.817 -29.507,0 -3.798,-2.462 -8.674,-2.51 -12.52,-0.123 -8.762,5.44 -19.854,5.44 -28.616,0 -2.584,-1.604 -5.688,-2.139 -8.657,-1.489 v -20.81 H 114.39 l -35.091,60.776 67.797,0.007 z"
   id="path2072"
   inkscape:connector-curvature="0" />
</g>
<g
   id="LWPOLYLINE_13_"
   transform="translate(-14.172113,-38.565653)">
	<path
   style="fill:#ffcd00"
   d="m 147.096,318.619 v 9.337 c 2.969,-0.646 6.073,-0.115 8.657,1.489 8.762,5.444 19.854,5.444 28.616,0 3.846,-2.387 8.722,-2.339 12.52,0.123 8.977,5.817 20.531,5.817 29.507,0 3.824,-2.482 8.747,-2.51 12.597,-0.071 8.854,5.597 20.136,5.597 28.99,0 2.992,-1.895 6.678,-2.326 10.031,-1.181 v -9.351 c -3.354,-1.146 -7.039,-0.714 -10.031,1.18 -8.854,5.598 -20.136,5.598 -28.99,0 -3.85,-2.438 -8.772,-2.41 -12.597,0.072 -8.977,5.817 -20.531,5.817 -29.507,0 -3.798,-2.462 -8.674,-2.51 -12.52,-0.123 -8.762,5.444 -19.854,5.444 -28.616,0 -2.584,-1.604 -5.688,-2.138 -8.657,-1.475 z"
   id="path2075"
   inkscape:connector-curvature="0" />
</g>
<g
   id="LWPOLYLINE_14_"
   transform="translate(-14.172113,-38.565653)">
	<polygon
   style="fill:#101820"
   points="236.736,188.855 246.127,199.277 147.096,288.445 137.708,278.021 "
   id="polygon2078" />
</g>
</svg>