<?xml version="1.0" encoding="UTF-8" standalone="no"?>
<!-- Generator: Adobe Illustrator 16.0.0, SVG Export Plug-In . SVG Version: 6.00 Build 0)  -->

<svg
   xmlns:dc="http://purl.org/dc/elements/1.1/"
   xmlns:cc="http://creativecommons.org/ns#"
   xmlns:rdf="http://www.w3.org/1999/02/22-rdf-syntax-ns#"
   xmlns:svg="http://www.w3.org/2000/svg"
   xmlns="http://www.w3.org/2000/svg"
   xmlns:sodipodi="http://sodipodi.sourceforge.net/DTD/sodipodi-0.dtd"
   xmlns:inkscape="http://www.inkscape.org/namespaces/inkscape"
   version="1.1"
   id="Layer_1"
   x="0px"
   y="0px"
   width="397.55914"
   height="348.77423"
   viewBox="0 0 397.55915 348.77422"
   xml:space="preserve"
   sodipodi:docname="A7.svg"
   inkscape:version="0.92.5 (2060ec1f9f, 2020-04-08)"><metadata
   id="metadata2120"><rdf:RDF><cc:Work
       rdf:about=""><dc:format>image/svg+xml</dc:format><dc:type
         rdf:resource="http://purl.org/dc/dcmitype/StillImage" /></cc:Work></rdf:RDF></metadata><defs
   id="defs2118" /><sodipodi:namedview
   pagecolor="#ffffff"
   bordercolor="#666666"
   borderopacity="1"
   objecttolerance="10"
   gridtolerance="10"
   guidetolerance="10"
   inkscape:pageopacity="0"
   inkscape:pageshadow="2"
   inkscape:window-width="640"
   inkscape:window-height="480"
   id="namedview2116"
   showgrid="false"
   inkscape:zoom="0.55503813"
   inkscape:cx="198.77829"
   inkscape:cy="174.38834"
   inkscape:window-x="0"
   inkscape:window-y="0"
   inkscape:window-maximized="0"
   inkscape:current-layer="Layer_1" />
<g
   id="LWPOLYLINE_7_"
   transform="translate(-13.820208,-38.212116)">
	
		<path
   style="fill:#ffcd00;stroke:#ffcd00;stroke-width:0.7087;stroke-linecap:round;stroke-linejoin:round;stroke-miterlimit:10"
   d="M 198.423,46.748 16.369,362.085 c -4.521,7.825 -1.837,17.833 5.988,22.352 2.488,1.438 5.309,2.195 8.184,2.195 h 364.117 c 9.038,0 16.367,-7.326 16.367,-16.364 0,-2.875 -0.761,-5.698 -2.198,-8.183 L 226.774,46.748 c -4.525,-7.825 -14.53,-10.507 -22.355,-5.988 -2.489,1.437 -4.558,3.5 -5.996,5.988 z"
   id="path2088"
   inkscape:connector-curvature="0" />
</g>
<g
   id="LWPOLYLINE_8_"
   transform="translate(-13.820208,-38.212116)">
	
		<path
   style="fill:#e4002b;stroke:#e4002b;stroke-width:0.7087;stroke-linecap:round;stroke-linejoin:round;stroke-miterlimit:10"
   d="M 202.478,49.088 20.417,364.421 c -3.23,5.592 -1.313,12.741 4.276,15.968 1.779,1.024 3.794,1.566 5.847,1.566 h 364.117 c 6.453,0 11.688,-5.234 11.688,-11.688 0,-2.053 -0.542,-4.067 -1.566,-5.847 L 222.719,49.088 c -3.224,-5.592 -10.372,-7.507 -15.968,-4.28 -1.772,1.025 -3.249,2.501 -4.273,4.28 z"
   id="path2091"
   inkscape:connector-curvature="0" />
</g>
<g
   id="LWPOLYLINE_9_"
   transform="translate(-13.820208,-38.212116)">
	
		<polygon
   style="fill:#ffcd00;stroke:#ffcd00;stroke-width:0.7087;stroke-linecap:round;stroke-linejoin:round;stroke-miterlimit:10"
   points="362.266,351.564 212.598,92.335 62.933,351.564 "
   id="polygon2094" />
</g>
<g
   id="LWPOLYLINE_11_"
   transform="translate(-13.820208,-38.212116)">
	
		<path
   style="fill:#101820;stroke:#101820;stroke-width:0.7087;stroke-linecap:round;stroke-linejoin:round;stroke-miterlimit:10"
   d="m 334.393,307.966 -10.108,-17.508 c -2.275,-0.706 -4.454,-1.709 -6.465,-2.984 -1.876,-1.187 -4.049,-1.812 -6.266,-1.809 -2.218,-0.003 -4.391,0.622 -6.266,1.809 -8.851,5.598 -20.139,5.598 -28.989,0 -3.854,-2.438 -8.772,-2.408 -12.602,0.07 -8.974,5.821 -20.531,5.821 -29.505,0 -3.796,-2.462 -8.676,-2.508 -12.518,-0.119 -8.768,5.443 -19.854,5.443 -28.62,0 -2.582,-1.602 -5.688,-2.137 -8.657,-1.492 V 226.77 h -46.716 l -70.7,122.458 h 117.417 v -18.874 c 2.969,-0.648 6.075,-0.116 8.657,1.488 8.766,5.444 19.853,5.444 28.62,0 3.842,-2.388 8.722,-2.34 12.518,0.123 8.974,5.817 20.531,5.817 29.505,0 3.829,-2.481 8.747,-2.508 12.602,-0.071 8.851,5.596 20.139,5.596 28.989,0 2.746,-1.737 6.091,-2.253 9.23,-1.418 1.16,0.303 2.263,0.783 3.274,1.422 8.851,5.598 20.132,5.598 28.988,0 0.349,-0.223 0.71,-0.423 1.077,-0.606 l -7.4,-12.818 c -7.613,2.398 -15.896,1.321 -22.639,-2.945 -2.005,-1.271 -4.352,-1.896 -6.717,-1.799 -2.063,0.077 -4.074,0.696 -5.814,1.799 -8.851,5.599 -20.139,5.599 -28.989,0 -3.854,-2.437 -8.772,-2.408 -12.602,0.07 -8.974,5.821 -20.531,5.821 -29.505,0 -3.796,-2.462 -8.676,-2.507 -12.518,-0.119 -8.768,5.444 -19.854,5.444 -28.62,0 -2.582,-1.602 -5.688,-2.137 -8.657,-1.492 V 302.3 c 2.969,-0.648 6.075,-0.116 8.657,1.488 8.766,5.444 19.853,5.444 28.62,0 3.842,-2.388 8.722,-2.34 12.518,0.123 8.974,5.817 20.531,5.817 29.505,0 3.829,-2.482 8.747,-2.508 12.602,-0.071 8.813,5.573 20.042,5.599 28.886,0.064 3.822,-2.462 8.729,-2.481 12.57,-0.052 4.957,3.133 10.791,4.578 16.638,4.114 z"
   id="path2097"
   inkscape:connector-curvature="0" />
</g>
<g
   id="LWPOLYLINE_12_"
   transform="translate(-13.820208,-38.212116)">
	
		<path
   style="fill:#101820;stroke:#101820;stroke-width:0.7087;stroke-linecap:round;stroke-linejoin:round;stroke-miterlimit:10"
   d="m 188.22,188.26 c -0.441,0.032 -0.844,0.265 -1.092,0.632 l -9.715,14.417 c -0.441,0.661 -0.268,1.557 0.39,1.998 l 4.729,3.188 c 3.633,-3.442 8.932,-4.478 13.592,-2.649 6.638,2.598 9.913,10.095 7.314,16.733 l 51.357,34.604 c 3.636,-3.442 8.935,-4.474 13.595,-2.646 6.64,2.602 9.914,10.092 7.316,16.734 l 5.557,3.745 c 0.657,0.445 1.554,0.268 1.998,-0.39 l 6.079,-9.027 c 2.224,-3.298 1.354,-7.771 -1.946,-9.995 l -20.28,-13.666 c -0.315,-0.213 -0.535,-0.542 -0.605,-0.915 l -4.983,-25.553 c -0.07,-0.377 -0.29,-0.709 -0.605,-0.922 l -41.746,-28.125 c -0.264,-0.181 -0.586,-0.264 -0.902,-0.245 z"
   id="path2100"
   inkscape:connector-curvature="0" />
</g>
<g
   id="CIRCLE_2_"
   transform="translate(-13.820208,-38.212116)">
	
		<path
   style="fill:#101820;stroke:#101820;stroke-width:0.7087;stroke-linecap:round;stroke-linejoin:round;stroke-miterlimit:10"
   d="m 200.853,218.318 c 0,-5.382 -4.362,-9.743 -9.741,-9.743 -5.383,0 -9.743,4.361 -9.743,9.743 0,5.383 4.36,9.743 9.743,9.743 5.379,0.001 9.741,-4.36 9.741,-9.743 z"
   id="path2103"
   inkscape:connector-curvature="0" />
</g>
<g
   id="CIRCLE_3_"
   transform="translate(-13.820208,-38.212116)">
	
		<path
   style="fill:#101820;stroke:#101820;stroke-width:0.7087;stroke-linecap:round;stroke-linejoin:round;stroke-miterlimit:10"
   d="m 273.122,267.01 c 0,-5.379 -4.364,-9.743 -9.746,-9.743 -5.383,0 -9.74,4.364 -9.74,9.743 0,5.38 4.357,9.743 9.74,9.743 5.381,0 9.746,-4.363 9.746,-9.743 z"
   id="path2106"
   inkscape:connector-curvature="0" />
</g>
<g
   id="LWPOLYLINE_15_"
   transform="translate(-13.820208,-38.212116)">
	
		<path
   style="fill:#ffcd00;stroke:#ffcd00;stroke-width:0.7087;stroke-linecap:round;stroke-linejoin:round;stroke-miterlimit:10"
   d="m 258.025,234.634 -2.694,-17.317 c -0.064,-0.396 -0.284,-0.748 -0.619,-0.971 l -14.556,-9.811 c -0.657,-0.438 -1.547,-0.268 -1.991,0.387 l -7.182,10.662 c -0.444,0.657 -0.277,1.55 0.381,1.995 0.006,0.003 24.438,16.467 24.438,16.467 0.657,0.444 1.553,0.271 1.998,-0.387 0.2,-0.3 0.277,-0.664 0.225,-1.025 z"
   id="path2109"
   inkscape:connector-curvature="0" />
</g>
<g
   id="LWPOLYLINE_16_"
   transform="translate(-13.820208,-38.212116)">
	
		<path
   style="fill:#ffcd00;stroke:#ffcd00;stroke-width:0.7087;stroke-linecap:round;stroke-linejoin:round;stroke-miterlimit:10"
   d="m 234.039,204.072 -7.207,10.701 c -0.444,0.657 -1.341,0.828 -1.998,0.387 l -21.621,-14.568 c -0.264,-0.181 -0.464,-0.441 -0.561,-0.748 -0.251,-0.761 0.161,-1.579 0.922,-1.824 l 15.51,-5.073 c 0.444,-0.142 0.922,-0.074 1.309,0.184 l 13.26,8.937 c 0.663,0.451 0.837,1.344 0.386,2.004 z"
   id="path2112"
   inkscape:connector-curvature="0" />
</g>
</svg>