<?xml version="1.0" encoding="UTF-8" standalone="no"?>
<!-- Generator: Adobe Illustrator 16.0.0, SVG Export Plug-In . SVG Version: 6.00 Build 0)  -->

<svg
   xmlns:dc="http://purl.org/dc/elements/1.1/"
   xmlns:cc="http://creativecommons.org/ns#"
   xmlns:rdf="http://www.w3.org/1999/02/22-rdf-syntax-ns#"
   xmlns:svg="http://www.w3.org/2000/svg"
   xmlns="http://www.w3.org/2000/svg"
   xmlns:sodipodi="http://sodipodi.sourceforge.net/DTD/sodipodi-0.dtd"
   xmlns:inkscape="http://www.inkscape.org/namespaces/inkscape"
   version="1.1"
   id="Layer_1"
   x="0px"
   y="0px"
   width="396.8519"
   height="348.06564"
   viewBox="0 0 396.85191 348.06563"
   xml:space="preserve"
   sodipodi:docname="A8.svg"
   inkscape:version="0.92.5 (2060ec1f9f, 2020-04-08)"><metadata
   id="metadata2166"><rdf:RDF><cc:Work
       rdf:about=""><dc:format>image/svg+xml</dc:format><dc:type
         rdf:resource="http://purl.org/dc/dcmitype/StillImage" /></cc:Work></rdf:RDF></metadata><defs
   id="defs2164" /><sodipodi:namedview
   pagecolor="#ffffff"
   bordercolor="#666666"
   borderopacity="1"
   objecttolerance="10"
   gridtolerance="10"
   guidetolerance="10"
   inkscape:pageopacity="0"
   inkscape:pageshadow="2"
   inkscape:window-width="640"
   inkscape:window-height="480"
   id="namedview2162"
   showgrid="false"
   inkscape:zoom="0.55503813"
   inkscape:cx="198.42638"
   inkscape:cy="174.03299"
   inkscape:window-x="0"
   inkscape:window-y="0"
   inkscape:window-maximized="0"
   inkscape:current-layer="Layer_1" />
<g
   id="LWPOLYLINE_6_"
   transform="translate(-14.172113,-38.565352)">
	<path
   style="fill:#ffcd00"
   d="M 198.428,46.749 16.367,362.088 c -4.519,7.824 -1.836,17.834 5.991,22.354 2.489,1.435 5.308,2.189 8.181,2.189 h 364.117 c 9.038,0 16.368,-7.324 16.368,-16.361 0,-2.874 -0.761,-5.696 -2.196,-8.182 L 226.773,46.749 c -4.522,-7.827 -14.526,-10.507 -22.354,-5.988 -2.489,1.435 -4.556,3.503 -5.991,5.988 z"
   id="path2122"
   inkscape:connector-curvature="0" />
</g>
<g
   id="LWPOLYLINE_7_"
   transform="translate(-14.172113,-38.565352)">
	<path
   style="fill:#e4002b"
   d="M 202.475,49.088 20.417,364.424 c -3.227,5.59 -1.313,12.741 4.277,15.968 1.778,1.023 3.795,1.567 5.845,1.567 h 364.117 c 6.46,0 11.69,-5.236 11.69,-11.689 0,-2.055 -0.538,-4.067 -1.564,-5.846 L 222.72,49.088 c -3.224,-5.59 -10.372,-7.508 -15.968,-4.277 -1.775,1.027 -3.251,2.502 -4.277,4.277 z"
   id="path2125"
   inkscape:connector-curvature="0" />
</g>
<g
   id="LWPOLYLINE_8_"
   transform="translate(-14.172113,-38.565352)">
	<polygon
   style="fill:#ffcd00"
   points="362.266,351.567 212.601,92.339 62.934,351.567 "
   id="polygon2128" />
</g>
<g
   id="LWPOLYLINE_19_"
   transform="translate(-14.172113,-38.565352)">
	<path
   style="fill:#101820"
   d="m 292.894,333.155 c 0,1.7 1.381,3.077 3.081,3.077 h 8.616 c 1.7,0 3.08,-1.377 3.08,-3.077 v -14.189 h -14.777 v 14.189"
   id="path2131"
   inkscape:connector-curvature="0" />
</g>
<g
   id="LWPOLYLINE_21_"
   transform="translate(-14.172113,-38.565352)">
	<path
   style="fill:#101820"
   d="m 262,256.86 h 30.562 c 2.462,0 4.686,1.466 5.658,3.724 l 8.637,20.089 c 0.258,0.592 0.544,1.163 0.87,1.717 l 4.72,8.028 c 0.836,1.418 1.271,3.033 1.271,4.679 v 17.586 c 0,1.17 -0.673,2.237 -1.728,2.744 -1.836,0.881 -3.842,1.34 -5.875,1.34 H 262 217.885 c -2.026,0 -4.033,-0.459 -5.869,-1.34 -1.054,-0.507 -1.728,-1.574 -1.728,-2.744 v -17.586 c 0,-1.646 0.436,-3.261 1.271,-4.679 l 4.72,-8.028 c 0.319,-0.554 0.612,-1.125 0.864,-1.717 l 8.643,-20.089 c 0.973,-2.258 3.196,-3.724 5.651,-3.724 z"
   id="path2134"
   inkscape:connector-curvature="0" />
</g>
<g
   id="LWPOLYLINE_22_"
   transform="translate(-14.172113,-38.565352)">
	<path
   style="fill:#101820"
   d="m 231.112,333.155 c 0,1.7 -1.381,3.077 -3.081,3.077 h -8.616 c -1.7,0 -3.08,-1.377 -3.08,-3.077 v -14.189 h 14.777 v 14.189"
   id="path2137"
   inkscape:connector-curvature="0" />
</g>
<g
   id="LWPOLYLINE_24_"
   transform="translate(-14.172113,-38.565352)">
	<path
   style="fill:#101820"
   d="M 262.21,250.689 H 262 231.438 c -4.924,0 -9.378,2.931 -11.322,7.457 l -4.373,10.166 H 187.72 c -1.582,0 -3.142,-0.356 -4.567,-1.044 -0.819,-0.395 -1.343,-1.224 -1.346,-2.135 v -13.676 c 0,-1.278 0.343,-2.537 0.989,-3.639 l 3.669,-6.246 c 0.255,-0.432 0.479,-0.874 0.677,-1.336 l 6.719,-15.621 c 0.76,-1.762 2.487,-2.896 4.398,-2.896 h 23.774 23.767 c 1.911,0 3.646,1.135 4.4,2.896 l 6.719,15.621 c 0.197,0.462 0.422,0.904 0.674,1.336 l 3.672,6.246 c 0.517,0.878 0.836,1.858 0.945,2.871 z"
   id="path2140"
   inkscape:connector-curvature="0" />
</g>
<g
   id="LWPOLYLINE_25_"
   transform="translate(-14.172113,-38.565352)">
	<path
   style="fill:#101820"
   d="m 226.474,215.544 v -3.522 c 0,-1.095 -0.293,-2.169 -0.851,-3.114 l -3.142,-5.355 c -0.218,-0.371 -0.415,-0.751 -0.585,-1.146 l -5.76,-13.391 c -0.646,-1.506 -2.129,-2.482 -3.768,-2.482 H 191.995 171.62 c -1.642,0 -3.125,0.977 -3.771,2.482 l -5.76,13.391 c -0.17,0.395 -0.364,0.774 -0.582,1.146 l -3.145,5.355 c -0.554,0.945 -0.847,2.02 -0.847,3.114 v 11.725 c 0.003,0.782 0.449,1.492 1.153,1.832 1.221,0.589 2.56,0.895 3.914,0.895 h 23.761 l 1.846,-4.298 c 1.731,-4.022 5.689,-6.631 10.067,-6.631 h 23.774 4.444 z"
   id="path2143"
   inkscape:connector-curvature="0" />
</g>
<g
   id="LWPOLYLINE_26_"
   transform="translate(-14.172113,-38.565352)">
	<path
   style="fill:#101820"
   d="m 198,281.061 c 0,1.319 -1.067,2.394 -2.394,2.394 h -6.704 c -1.323,0 -2.394,-1.074 -2.394,-2.394 V 270.024 H 198 v 11.037"
   id="path2146"
   inkscape:connector-curvature="0" />
</g>
<g
   id="LWPOLYLINE_28_"
   transform="translate(-14.172113,-38.565352)">
	<path
   style="fill:#101820"
   d="m 171.398,237.395 c 0,1.136 -0.918,2.054 -2.05,2.054 h -5.747 c -1.132,0 -2.054,-0.918 -2.054,-2.054 v -9.456 h 9.851 v 9.456"
   id="path2149"
   inkscape:connector-curvature="0" />
</g>
<g
   id="LWPOLYLINE_20_"
   transform="translate(-14.172113,-38.565352)">
	<path
   style="fill:#ffcd00"
   d="m 262,263.019 h 28.535 c 1.23,0 2.346,0.728 2.829,1.86 l 8.316,19.344 H 262 222.326 l 8.316,-19.344 c 0.483,-1.133 1.599,-1.86 2.829,-1.86 z"
   id="path2152"
   inkscape:connector-curvature="0" />
</g>
<g
   id="LWPOLYLINE_23_"
   transform="translate(-14.172113,-38.565352)">
	<path
   style="fill:#ffcd00"
   d="m 222.033,226.507 h 22.19 c 0.959,0 1.822,0.571 2.196,1.448 l 6.475,15.043 h -30.861 -30.866 l 6.472,-15.043 c 0.374,-0.877 1.238,-1.448 2.197,-1.448 z"
   id="path2155"
   inkscape:connector-curvature="0" />
</g>
<g
   id="LWPOLYLINE_27_"
   transform="translate(-14.172113,-38.565352)">
	<path
   style="fill:#ffcd00"
   d="m 191.997,190.637 h 19.019 c 0.823,0 1.564,0.486 1.884,1.241 l 5.549,12.894 h -26.452 -26.454 l 5.546,-12.894 c 0.323,-0.755 1.064,-1.241 1.884,-1.241 z"
   id="path2158"
   inkscape:connector-curvature="0" />
</g>
</svg>