<?xml version="1.0" encoding="UTF-8" standalone="no"?>
<!-- Generator: Adobe Illustrator 16.0.0, SVG Export Plug-In . SVG Version: 6.00 Build 0)  -->

<svg
   xmlns:dc="http://purl.org/dc/elements/1.1/"
   xmlns:cc="http://creativecommons.org/ns#"
   xmlns:rdf="http://www.w3.org/1999/02/22-rdf-syntax-ns#"
   xmlns:svg="http://www.w3.org/2000/svg"
   xmlns="http://www.w3.org/2000/svg"
   xmlns:sodipodi="http://sodipodi.sourceforge.net/DTD/sodipodi-0.dtd"
   xmlns:inkscape="http://www.inkscape.org/namespaces/inkscape"
   version="1.1"
   id="Layer_1"
   x="0px"
   y="0px"
   width="396.84787"
   height="396.84787"
   viewBox="0 0 396.84788 396.84786"
   xml:space="preserve"
   sodipodi:docname="B2.svg"
   inkscape:version="0.92.5 (2060ec1f9f, 2020-04-08)"><metadata
   id="metadata2226"><rdf:RDF><cc:Work
       rdf:about=""><dc:format>image/svg+xml</dc:format><dc:type
         rdf:resource="http://purl.org/dc/dcmitype/StillImage" /></cc:Work></rdf:RDF></metadata><defs
   id="defs2224" /><sodipodi:namedview
   pagecolor="#ffffff"
   bordercolor="#666666"
   borderopacity="1"
   objecttolerance="10"
   gridtolerance="10"
   guidetolerance="10"
   inkscape:pageopacity="0"
   inkscape:pageshadow="2"
   inkscape:window-width="640"
   inkscape:window-height="480"
   id="namedview2222"
   showgrid="false"
   inkscape:zoom="0.55503813"
   inkscape:cx="198.42607"
   inkscape:cy="198.42296"
   inkscape:window-x="0"
   inkscape:window-y="0"
   inkscape:window-maximized="0"
   inkscape:current-layer="Layer_1" />
<g
   id="LWPOLYLINE_5_"
   transform="translate(-14.172426,-14.173109)">
	
		<rect
   x="72.291"
   y="72.290001"
   transform="matrix(0.7071,-0.7071,0.7071,0.7071,-88.0608,212.5981)"
   style="fill:#101820"
   width="280.617"
   height="280.616"
   id="rect2206" />
</g>
<g
   id="LWPOLYLINE_6_"
   transform="translate(-14.172426,-14.173109)">
	<polygon
   style="fill:#ffcd00"
   points="70.394,212.599 121.652,263.861 263.855,121.657 212.599,70.395 "
   id="polygon2209" />
</g>
<g
   id="LWPOLYLINE_7_"
   transform="translate(-14.172426,-14.173109)">
	<polygon
   style="fill:#ffcd00"
   points="354.803,212.599 303.541,161.343 161.336,303.546 212.599,354.806 "
   id="polygon2212" />
</g>
<g
   id="LWPOLYLINE_8_"
   transform="translate(-14.172426,-14.173109)">
	<polygon
   style="fill:#ffffff"
   points="361.415,212.599 212.599,361.421 158.031,306.853 141.494,323.389 212.599,394.49 394.488,212.599 323.382,141.5 306.853,158.033 "
   id="polygon2215" />
</g>
<g
   id="LWPOLYLINE_9_"
   transform="translate(-14.172426,-14.173109)">
	<polygon
   style="fill:#ffffff"
   points="212.599,63.783 267.168,118.348 283.698,101.814 212.599,30.71 30.708,212.599 101.811,283.703 118.345,267.167 63.779,212.599 "
   id="polygon2218" />
</g>
</svg>