<?xml version="1.0" encoding="iso-8859-1"?>
<!-- Generator: Adobe Illustrator 16.0.0, SVG Export Plug-In . SVG Version: 6.00 Build 0)  -->
<!DOCTYPE svg PUBLIC "-//W3C//DTD SVG 1.1//EN" "http://www.w3.org/Graphics/SVG/1.1/DTD/svg11.dtd">
<svg version="1.1" id="Layer_1" xmlns="http://www.w3.org/2000/svg" xmlns:xlink="http://www.w3.org/1999/xlink" x="0px" y="0px"
	 width="425.197px" height="425.196px" viewBox="0 0 425.197 425.196" style="enable-background:new 0 0 425.197 425.196;"
	 xml:space="preserve">
<g id="LWPOLYLINE_9_">
	<rect x="14.173" y="14.173" style="fill:#005EB8;" width="396.851" height="396.849"/>
</g>
<g id="LWPOLYLINE_7_">
	<path style="fill:#FFFFFF;" d="M40.632,411.022h343.933c14.612,0,26.459-11.844,26.459-26.457V40.632
		c0-14.613-11.847-26.458-26.459-26.458H40.632c-14.613,0-26.459,11.846-26.459,26.458v343.934
		C14.173,399.179,26.019,411.022,40.632,411.022z"/>
</g>
<g id="LWPOLYLINE_8_">
	<path style="fill:#005EB8;" d="M27.402,40.631v343.935c0,7.307,5.923,13.229,13.229,13.229h343.936
		c7.306,0,13.229-5.922,13.229-13.229V40.631c0-7.306-5.923-13.229-13.229-13.229H40.631C33.325,27.402,27.402,33.325,27.402,40.631
		z"/>
</g>
<g id="LWPOLYLINE_12_">
	<polygon style="fill:#FFFFFF;" points="124.96,265.612 80.315,220.968 80.315,278.739 146.457,344.882 212.598,278.739 
		212.598,220.968 167.954,265.612 167.954,80.314 124.96,80.314 	"/>
</g>
<g id="LWPOLYLINE_6_">
	
		<rect x="14.173" y="14.173" style="fill:none;stroke:#005EB8;stroke-width:0.5;stroke-miterlimit:10;" width="396.851" height="396.849"/>
</g>
<g id="LWPOLYLINE_11_">
	<polygon style="fill:#E4002B;" points="131.576,281.581 86.929,236.935 86.929,276.001 146.457,335.526 205.985,276.001 
		205.985,236.935 161.339,281.581 161.339,86.929 131.576,86.929 	"/>
</g>
<g id="LWPOLYLINE_13_">
	<polygon style="fill:#FFFFFF;" points="300.237,134.261 344.881,178.908 344.881,139.843 285.354,80.314 225.827,139.843 
		225.827,178.908 270.472,134.261 270.472,344.882 300.237,344.882 	"/>
</g>
</svg>
