<?xml version="1.0" encoding="UTF-8" standalone="no"?>
<!-- Generator: Adobe Illustrator 16.0.0, SVG Export Plug-In . SVG Version: 6.00 Build 0)  -->

<svg
   xmlns:dc="http://purl.org/dc/elements/1.1/"
   xmlns:cc="http://creativecommons.org/ns#"
   xmlns:rdf="http://www.w3.org/1999/02/22-rdf-syntax-ns#"
   xmlns:svg="http://www.w3.org/2000/svg"
   xmlns="http://www.w3.org/2000/svg"
   xmlns:sodipodi="http://sodipodi.sourceforge.net/DTD/sodipodi-0.dtd"
   xmlns:inkscape="http://www.inkscape.org/namespaces/inkscape"
   version="1.1"
   id="Layer_1"
   x="0px"
   y="0px"
   width="396.849"
   height="396.84698"
   viewBox="0 0 396.84901 396.84697"
   xml:space="preserve"
   sodipodi:docname="B4.svg"
   inkscape:version="0.92.5 (2060ec1f9f, 2020-04-08)"><metadata
   id="metadata2276"><rdf:RDF><cc:Work
       rdf:about=""><dc:format>image/svg+xml</dc:format><dc:type
         rdf:resource="http://purl.org/dc/dcmitype/StillImage" /></cc:Work></rdf:RDF></metadata><defs
   id="defs2274" /><sodipodi:namedview
   pagecolor="#ffffff"
   bordercolor="#666666"
   borderopacity="1"
   objecttolerance="10"
   gridtolerance="10"
   guidetolerance="10"
   inkscape:pageopacity="0"
   inkscape:pageshadow="2"
   inkscape:window-width="640"
   inkscape:window-height="480"
   id="namedview2272"
   showgrid="false"
   inkscape:zoom="0.55503813"
   inkscape:cx="198.4245"
   inkscape:cy="198.42399"
   inkscape:window-x="0"
   inkscape:window-y="0"
   inkscape:window-maximized="0"
   inkscape:current-layer="Layer_1" />
<g
   id="CIRCLE_3_"
   transform="translate(-14.174,-14.175)">
	<path
   style="fill:#ffcd00"
   d="m 411.023,212.601 c 0,-109.587 -88.835,-198.426 -198.421,-198.426 -109.589,0 -198.428,88.839 -198.428,198.426 0,109.586 88.839,198.421 198.428,198.421 109.586,-10e-4 198.421,-88.835 198.421,-198.421 z"
   id="path2256"
   inkscape:connector-curvature="0" />
</g>
<g
   id="CIRCLE_4_"
   transform="translate(-14.174,-14.175)">
	<path
   style="fill:#e4002b"
   d="m 404.827,212.601 c 0,-106.164 -86.065,-192.226 -192.225,-192.226 -106.162,0 -192.223,86.062 -192.223,192.226 0,106.159 86.061,192.225 192.223,192.225 106.159,-0.001 192.225,-86.066 192.225,-192.225 z"
   id="path2259"
   inkscape:connector-curvature="0" />
</g>
<g
   id="CIRCLE_5_"
   transform="translate(-14.174,-14.175)">
	<path
   style="fill:#ffcd00"
   d="m 364.522,212.601 c 0,-83.901 -68.02,-151.921 -151.92,-151.921 -83.903,0 -151.918,68.02 -151.918,151.921 0,83.901 68.015,151.92 151.918,151.92 83.9,0 151.92,-68.019 151.92,-151.92 z"
   id="path2262"
   inkscape:connector-curvature="0" />
</g>
<g
   id="LWPOLYLINE_2_"
   transform="translate(-14.174,-14.175)">
	<polygon
   style="fill:#101820"
   points="94.788,218.093 94.788,257.555 149.044,311.811 203.303,257.555 203.303,218.093 164.543,256.846 164.543,125.786 133.542,125.786 133.542,256.846 "
   id="polygon2265" />
</g>
<g
   id="LWPOLYLINE_3_"
   transform="translate(-14.174,-14.175)">
	<polygon
   style="fill:#e4002b"
   points="330.414,219.509 330.414,180.043 276.157,125.786 221.9,180.043 221.9,219.509 260.654,180.756 260.654,311.811 291.66,311.811 291.66,180.756 "
   id="polygon2268" />
</g>
</svg>