<?xml version="1.0" encoding="iso-8859-1"?>
<!-- Generator: Adobe Illustrator 16.0.0, SVG Export Plug-In . SVG Version: 6.00 Build 0)  -->
<!DOCTYPE svg PUBLIC "-//W3C//DTD SVG 1.1//EN" "http://www.w3.org/Graphics/SVG/1.1/DTD/svg11.dtd">
<svg version="1.1" id="Layer_1" xmlns="http://www.w3.org/2000/svg" xmlns:xlink="http://www.w3.org/1999/xlink" x="0px" y="0px"
	 width="425.197px" height="425.196px" viewBox="0 0 425.197 425.196" style="enable-background:new 0 0 425.197 425.196;"
	 xml:space="preserve">
<g id="LWPOLYLINE_26_">
	<rect x="110.313" y="274.801" style="fill:#FFCD00;" width="204.57" height="136.223"/>
</g>
<g id="LWPOLYLINE_28_">
	<path style="fill:#E4002B;" d="M314.883,288.439v108.945c0,7.532-6.107,13.639-13.636,13.639H123.949
		c-7.529,0-13.636-6.106-13.636-13.639V288.439c0-7.532,6.107-13.639,13.636-13.639h177.298
		C308.776,274.801,314.883,280.907,314.883,288.439z"/>
</g>
<g id="LWPOLYLINE_27_">
	<path style="fill:#FFCD00;" d="M308.061,288.439v108.945c0,3.768-3.053,6.821-6.813,6.821H123.949
		c-3.761,0-6.814-3.054-6.814-6.821V288.439c0-3.764,3.054-6.817,6.814-6.817h177.298
		C305.008,281.622,308.061,284.676,308.061,288.439z"/>
</g>
<g id="LWPOLYLINE_32_">
	<path style="fill:#101820;" d="M271.848,314.443l3.617,5.152c1.384-0.82,2.889-1.406,4.468-1.741
		c8.01-1.696,15.884,3.418,17.576,11.428c1.7,8.014-3.414,15.885-11.424,17.584c-8.01,1.7-15.885-3.418-17.584-11.432h-5.183
		c-1.195,0-2.331-0.5-3.136-1.384l-17.448-18.606l-1.001,3.264c6.393,2.711,10.048,9.495,8.8,16.324
		c-1.475,8.055-9.198,13.391-17.253,11.913c-8.056-1.478-13.396-9.202-11.913-17.257c1.474-8.055,9.198-13.388,17.253-11.913
		l4.234-13.892c0.639-2.087,2.557-3.512,4.738-3.512h5.708v3.257h-5.708c-0.745,0-1.407,0.488-1.625,1.203l-1.188,3.888
		l24.173,4.182l2.489-6.734l-5.49-1.508c-0.331-0.128-0.542-0.451-0.526-0.805c0.03-0.448,0.413-0.79,0.857-0.768h0.429h11.875
		v3.212h-3.723L271.848,314.443z"/>
</g>
<g id="LWPOLYLINE_38_">
	<path style="fill:#101820;" d="M153.341,314.443l-3.61,5.152c-7.047-4.167-16.14-1.828-20.307,5.22
		c-4.167,7.047-1.828,16.144,5.219,20.31c7.047,4.167,16.14,1.832,20.307-5.22c0.82-1.387,1.407-2.896,1.745-4.471h5.182
		c1.196,0,2.332-0.5,3.136-1.384l17.449-18.606l0.993,3.264c-7.536,3.196-11.056,11.902-7.859,19.441
		c3.197,7.54,11.898,11.06,19.442,7.859c7.536-3.196,11.056-11.897,7.859-19.438c-2.708-6.39-9.491-10.044-16.32-8.796
		l-4.234-13.892c-0.64-2.087-2.557-3.512-4.738-3.512h-5.716v3.257h5.716c0.745,0,1.406,0.488,1.625,1.203l1.188,3.888
		l-24.172,4.182l-2.49-6.734l5.49-1.508c0.421-0.158,0.632-0.628,0.474-1.05c-0.128-0.327-0.459-0.541-0.813-0.522h-0.429h-11.868
		v3.212h3.723L153.341,314.443z"/>
</g>
<g id="LWPOLYLINE_6_">
	<path style="fill:#FFCD00;" d="M355.692,32.073c3.294-5.709,1.338-13.008-4.37-16.302c-1.813-1.046-3.873-1.599-5.964-1.599H79.84
		c-6.592,0-11.936,5.344-11.936,11.933c0,2.095,0.553,4.151,1.602,5.968l132.758,229.941c3.294,5.709,10.59,7.664,16.297,4.37
		c1.82-1.046,3.324-2.554,4.37-4.37L355.692,32.073z"/>
</g>
<g id="LWPOLYLINE_7_">
	<path style="fill:#E4002B;" d="M352.736,30.369c2.354-4.076,0.963-9.292-3.121-11.646c-1.294-0.749-2.761-1.14-4.257-1.14H79.84
		c-4.708,0-8.525,3.813-8.525,8.521c0,1.496,0.395,2.967,1.143,4.264l132.754,229.942c2.354,4.08,7.573,5.476,11.649,3.121
		c1.294-0.748,2.369-1.823,3.114-3.121L352.736,30.369z"/>
</g>
<g id="LWPOLYLINE_8_">
	<polygon style="fill:#FFCD00;" points="127.085,53.384 212.599,201.498 298.111,53.384 	"/>
</g>
<g id="LWPOLYLINE_29_">
	<polygon style="fill:#FFCD00;" points="243.825,311.856 267.801,316.008 262.131,331.358 	"/>
</g>
<g id="LWPOLYLINE_30_">
	<path style="fill:#FFCD00;" d="M274.751,324.251c-2.084,2.121-3.272,4.96-3.317,7.931h8.875L274.751,324.251z"/>
</g>
<g id="LWPOLYLINE_31_">
	<path style="fill:#FFCD00;" d="M268.178,332.182c0.052-4.031,1.737-7.87,4.678-10.631l-2.377-3.399l-5.189,14.03h2.911H268.178z"/>
</g>
<g id="LWPOLYLINE_33_">
	<path style="fill:#FFCD00;" d="M284.22,332.096c0.248,0.356,0.384,0.781,0.384,1.218c0,1.174-0.948,2.121-2.121,2.121h-10.635
		c1.699,6.163,8.07,9.785,14.237,8.085c6.159-1.699,9.777-8.07,8.077-14.237c-1.699-6.159-8.07-9.777-14.229-8.077
		c-0.91,0.248-1.775,0.605-2.595,1.067L284.22,332.096z"/>
</g>
<g id="LWPOLYLINE_34_">
	<path style="fill:#FFCD00;" d="M240.779,321.844l-3.249,10.673c-0.022,0.098-0.053,0.191-0.083,0.282
		c-0.346,0.834-1.293,1.237-2.128,0.898s-1.241-1.29-0.902-2.129l3.249-10.657c-6.325-0.943-12.214,3.415-13.162,9.732
		c-0.947,6.325,3.407,12.214,9.732,13.162c6.317,0.947,12.214-3.407,13.161-9.732C248.157,328.981,245.464,323.995,240.779,321.844z
		"/>
</g>
<g id="LWPOLYLINE_35_">
	<polygon style="fill:#FFCD00;" points="181.372,311.856 157.395,316.008 163.065,331.358 	"/>
</g>
<g id="LWPOLYLINE_36_">
	<path style="fill:#FFCD00;" d="M150.445,324.251c2.083,2.121,3.271,4.96,3.317,7.931h-8.875L150.445,324.251z"/>
</g>
<g id="LWPOLYLINE_37_">
	<path style="fill:#FFCD00;" d="M157.019,332.182c-0.053-4.031-1.737-7.87-4.678-10.631l2.376-3.399l5.189,14.03h-2.911H157.019z"/>
</g>
<g id="LWPOLYLINE_39_">
	<path style="fill:#FFCD00;" d="M140.977,332.096c-0.669,0.962-0.437,2.286,0.519,2.955c0.361,0.252,0.782,0.384,1.219,0.384h10.635
		c-0.249,0.906-0.609,1.778-1.068,2.595c-3.136,5.573-10.191,7.551-15.764,4.422c-5.573-3.136-7.551-10.19-4.415-15.764
		c3.129-5.573,10.184-7.551,15.756-4.415L140.977,332.096z"/>
</g>
<g id="LWPOLYLINE_40_">
	<path style="fill:#FFCD00;" d="M184.41,321.844l3.256,10.673c0.188,0.888,1.054,1.451,1.934,1.268
		c0.888-0.185,1.451-1.05,1.264-1.938c-0.016-0.094-0.046-0.188-0.083-0.278l-3.249-10.657c5.092-0.759,10.078,1.934,12.229,6.615
		c2.67,5.81,0.128,12.684-5.678,15.351c-5.813,2.67-12.681,0.124-15.351-5.683C176.062,331.385,178.604,324.514,184.41,321.844z"/>
</g>
<g id="LWPOLYLINE_41_">
	<polygon style="fill:#101820;" points="142.706,376.928 192.465,376.928 183.943,385.452 192.142,385.452 204.077,373.521 
		192.142,361.585 183.943,361.585 192.465,370.11 142.706,370.11 	"/>
</g>
<g id="LWPOLYLINE_42_">
	<polygon style="fill:#101820;" points="282.49,376.928 232.732,376.928 241.252,385.452 233.055,385.452 221.12,373.521 
		233.055,361.585 241.252,361.585 232.732,370.11 282.49,370.11 	"/>
</g>
</svg>
