<?xml version="1.0" encoding="iso-8859-1"?>
<!-- Generator: Adobe Illustrator 16.0.0, SVG Export Plug-In . SVG Version: 6.00 Build 0)  -->
<!DOCTYPE svg PUBLIC "-//W3C//DTD SVG 1.1//EN" "http://www.w3.org/Graphics/SVG/1.1/DTD/svg11.dtd">
<svg version="1.1" id="Layer_1" xmlns="http://www.w3.org/2000/svg" xmlns:xlink="http://www.w3.org/1999/xlink" x="0px" y="0px"
	 width="425.197px" height="425.196px" viewBox="0 0 425.197 425.196" style="enable-background:new 0 0 425.197 425.196;"
	 xml:space="preserve">
<g id="LWPOLYLINE_8_">
	<polygon style="fill:#FFFFFF;stroke:#101820;stroke-width:0.5;stroke-miterlimit:10;" points="411.024,130.41 411.024,294.781 
		294.787,411.023 130.41,411.023 14.173,294.781 14.173,130.41 130.41,14.173 294.787,14.173 	"/>
</g>
<g id="LWPOLYLINE_9_">
	<polygon style="fill:#E4002B;" points="393.382,137.711 393.382,287.479 287.479,393.389 137.714,393.389 31.814,287.479 
		31.814,137.711 137.714,31.809 287.479,31.809 	"/>
</g>
<g id="LWPOLYLINE_10_">
	<path style="fill:#FFFFFF;" d="M67.225,237.723c-1.411,10.128,5.66,19.483,15.793,20.895c10.127,1.404,19.483-5.66,20.894-15.794
		c1.088-7.812-2.888-15.446-9.909-19.039l-23.349-11.666c-12.042-6.151-19.265-18.899-18.347-32.401
		c1.258-18.632,17.392-32.717,36.024-31.452c18.638,1.265,32.723,17.392,31.458,36.024H99.82
		c1.264-7.605-3.878-14.797-11.489-16.062c-7.605-1.258-14.796,3.885-16.061,11.489c-0.991,5.977,1.982,11.903,7.362,14.688
		l23.319,11.653c13.702,6.96,21.934,21.429,20.912,36.766c-1.41,21.149-19.696,37.149-40.845,35.739
		c-21.149-1.411-37.149-19.696-35.739-40.84H67.225z"/>
</g>
<g id="LWPOLYLINE_11_">
	<polygon style="fill:#FFFFFF;" points="197.802,148.361 130.246,148.361 130.246,167.869 154.273,167.869 154.273,278.55 
		173.781,278.55 173.781,167.869 197.802,167.869 	"/>
</g>
<g id="LWPOLYLINE_12_">
	<path style="fill:#FFFFFF;" d="M278.008,181.942c0-18.645-15.112-33.757-33.763-33.751c-18.639,0-33.751,15.112-33.751,33.757
		v63.021c0.013,18.638,15.125,33.75,33.763,33.75c18.651,0,33.764-15.112,33.751-33.763V181.942z"/>
</g>
<g id="LWPOLYLINE_13_">
	<path style="fill:#FFFFFF;" d="M323.674,224.435v53.976H303.82v-63.896v-66.322h19.659h16.086c18.638,0,33.75,15.112,33.75,33.751
		v8.741c0,18.639-15.112,33.751-33.75,33.751H323.674z"/>
</g>
<g id="LWPOLYLINE_14_">
	<path style="fill:#E4002B;" d="M258.155,181.942c0-7.672-6.226-13.897-13.909-13.897c-7.672,0-13.896,6.226-13.896,13.897
		l0.012,63.027c0,7.671,6.226,13.896,13.896,13.896c7.672,0,13.897-6.226,13.897-13.903V181.942z"/>
</g>
<g id="LWPOLYLINE_15_">
	<path style="fill:#E4002B;" d="M323.674,168.045v36.535h15.891c7.672,0,13.896-6.225,13.896-13.896v-8.741
		c0-7.672-6.225-13.897-13.896-13.897h-16.086H323.674z"/>
</g>
</svg>
