<?xml version="1.0" encoding="iso-8859-1"?>
<!-- Generator: Adobe Illustrator 16.0.0, SVG Export Plug-In . SVG Version: 6.00 Build 0)  -->
<!DOCTYPE svg PUBLIC "-//W3C//DTD SVG 1.1//EN" "http://www.w3.org/Graphics/SVG/1.1/DTD/svg11.dtd">
<svg version="1.1" id="Layer_1" xmlns="http://www.w3.org/2000/svg" xmlns:xlink="http://www.w3.org/1999/xlink" x="0px" y="0px"
	 width="425.197px" height="425.196px" viewBox="0 0 425.197 425.196" style="enable-background:new 0 0 425.197 425.196;"
	 xml:space="preserve">
<g id="ELLIPSE_3_">
	<path style="fill:#FFCD00;" d="M411.025,212.599c0-109.584-88.84-198.423-198.428-198.423
		c-109.588,0-198.425,88.839-198.425,198.423c0,109.588,88.837,198.422,198.425,198.422
		C322.185,411.021,411.025,322.187,411.025,212.599"/>
</g>
<g id="ELLIPSE_4_">
	<path style="fill:#E4002B;" d="M404.821,212.599c0-106.162-86.062-192.224-192.224-192.224
		c-106.162,0-192.226,86.062-192.226,192.224c0,106.166,86.064,192.223,192.226,192.223
		C318.759,404.821,404.821,318.759,404.821,212.599"/>
</g>
<g id="ELLIPSE_5_">
	<path style="fill:#FFCD00;" d="M333.511,212.599c0-66.779-54.141-120.915-120.914-120.915
		c-66.783,0-120.914,54.136-120.914,120.915c0,66.777,54.131,120.918,120.914,120.918
		C279.371,333.517,333.511,279.376,333.511,212.599"/>
</g>
</svg>
