<?xml version="1.0" encoding="UTF-8" standalone="no"?>
<!-- Generator: Adobe Illustrator 16.0.0, SVG Export Plug-In . SVG Version: 6.00 Build 0)  -->

<svg
   xmlns:dc="http://purl.org/dc/elements/1.1/"
   xmlns:cc="http://creativecommons.org/ns#"
   xmlns:rdf="http://www.w3.org/1999/02/22-rdf-syntax-ns#"
   xmlns:svg="http://www.w3.org/2000/svg"
   xmlns="http://www.w3.org/2000/svg"
   xmlns:sodipodi="http://sodipodi.sourceforge.net/DTD/sodipodi-0.dtd"
   xmlns:inkscape="http://www.inkscape.org/namespaces/inkscape"
   version="1.1"
   id="Layer_1"
   x="0px"
   y="0px"
   width="396.85101"
   height="396.85101"
   viewBox="0 0 396.85102 396.851"
   xml:space="preserve"
   sodipodi:docname="C12.svg"
   inkscape:version="0.92.5 (2060ec1f9f, 2020-04-08)"><metadata
   id="metadata136"><rdf:RDF><cc:Work
       rdf:about=""><dc:format>image/svg+xml</dc:format><dc:type
         rdf:resource="http://purl.org/dc/dcmitype/StillImage" /></cc:Work></rdf:RDF></metadata><defs
   id="defs134" /><sodipodi:namedview
   pagecolor="#ffffff"
   bordercolor="#666666"
   borderopacity="1"
   objecttolerance="10"
   gridtolerance="10"
   guidetolerance="10"
   inkscape:pageopacity="0"
   inkscape:pageshadow="2"
   inkscape:window-width="640"
   inkscape:window-height="480"
   id="namedview132"
   showgrid="false"
   inkscape:zoom="0.55503813"
   inkscape:cx="198.4255"
   inkscape:cy="198.42599"
   inkscape:window-x="0"
   inkscape:window-y="0"
   inkscape:window-maximized="0"
   inkscape:current-layer="Layer_1" />
<g
   id="CIRCLE_4_"
   transform="translate(-14.173,-14.173)">
	<path
   style="fill:#ffcd00"
   d="m 411.024,212.598 c 0,-109.587 -88.839,-198.425 -198.426,-198.425 -109.588,0 -198.425,88.838 -198.425,198.425 0,109.587 88.837,198.426 198.425,198.426 109.587,-10e-4 198.426,-88.839 198.426,-198.426 z"
   id="path89"
   inkscape:connector-curvature="0" />
</g>
<g
   id="CIRCLE_5_"
   transform="translate(-14.173,-14.173)">
	<path
   style="fill:#e4002b"
   d="m 404.823,212.598 c 0,-106.162 -86.062,-192.225 -192.225,-192.225 -106.163,0 -192.225,86.063 -192.225,192.225 0,106.163 86.062,192.225 192.225,192.225 106.163,0 192.225,-86.062 192.225,-192.225 z"
   id="path92"
   inkscape:connector-curvature="0" />
</g>
<g
   id="LWPOLYLINE_25_"
   transform="translate(-14.173,-14.173)">
	<path
   style="fill:#ffcd00"
   d="m 94.773,116.697 213.725,213.726 c -55.854,45.46 -135.949,45.46 -191.802,0 C 51.625,277.457 41.809,181.77 94.773,116.697 Z"
   id="path95"
   inkscape:connector-curvature="0" />
</g>
<g
   id="LWPOLYLINE_24_"
   transform="translate(-14.173,-14.173)">
	<path
   style="fill:#ffcd00"
   d="m 330.421,308.499 c 52.965,-65.072 43.15,-160.761 -21.923,-213.726 -55.854,-45.46 -135.949,-45.46 -191.802,0 z"
   id="path98"
   inkscape:connector-curvature="0" />
</g>
<g
   id="LWPOLYLINE_30_"
   transform="translate(-14.173,-14.173)">
	<path
   style="fill:#101820"
   d="m 183.287,161.363 -5.896,-5.896 c 5.114,-15.491 20.868,-24.837 36.913,-21.897 l 9.332,-30.614 c 1.398,-4.592 5.635,-7.729 10.437,-7.729 h 12.588 v 7.17 h -12.588 c -1.646,0 -3.099,1.075 -3.578,2.649 l -2.613,8.573 53.258,9.214 5.488,-14.842 -12.101,-3.321 c -0.729,-0.277 -1.194,-0.995 -1.15,-1.773 0.055,-0.988 0.9,-1.743 1.889,-1.688 h 0.944 26.161 v 7.07 h -8.206 l -6.637,17.947 7.956,11.356 c 3.054,-1.805 6.38,-3.1 9.85,-3.836 17.651,-3.743 34.996,7.533 38.74,25.186 3.742,17.652 -7.533,34.996 -25.186,38.74 -17.652,3.743 -34.998,-7.533 -38.74,-25.185 h -11.424 c -2.63,0 -5.14,-1.108 -6.911,-3.052 l -38.449,-40.998 -2.19,7.19 c 8.662,3.674 15.32,10.903 18.271,19.84 5.656,17.136 -3.649,35.612 -20.785,41.268 l -5.896,-5.896 c 13.88,-2.4 23.186,-15.598 20.785,-29.477 -1.433,-8.277 -6.848,-15.319 -14.48,-18.828 l -7.169,23.523 c -0.045,0.211 -0.108,0.416 -0.188,0.614 -0.747,1.843 -2.845,2.73 -4.688,1.983 -1.842,-0.747 -2.73,-2.846 -1.983,-4.688 l 7.157,-23.481 c -13.71,-2.052 -26.55,7.219 -28.911,20.878 z"
   id="path101"
   inkscape:connector-curvature="0" />
</g>
<g
   id="LWPOLYLINE_26_"
   transform="translate(-14.173,-14.173)">
	<polygon
   style="fill:#ffcd00"
   points="266.1,163.498 225.776,120.531 278.61,129.672 "
   id="polygon104" />
</g>
<g
   id="LWPOLYLINE_27_"
   transform="translate(-14.173,-14.173)">
	<path
   style="fill:#ffcd00"
   d="m 293.915,147.838 c -4.59,4.673 -7.206,10.932 -7.306,17.479 h 19.551 z"
   id="path107"
   inkscape:connector-curvature="0" />
</g>
<g
   id="LWPOLYLINE_28_"
   transform="translate(-14.173,-14.173)">
	<path
   style="fill:#ffcd00"
   d="m 279.438,165.317 c 0.107,-8.887 3.829,-17.347 10.309,-23.429 l -5.244,-7.484 -11.431,30.913 h 6.418 z"
   id="path110"
   inkscape:connector-curvature="0" />
</g>
<g
   id="LWPOLYLINE_29_"
   transform="translate(-14.173,-14.173)">
	<path
   style="fill:#ffcd00"
   d="m 314.782,165.128 c 0.55,0.786 0.846,1.723 0.846,2.683 0,2.583 -2.094,4.677 -4.676,4.677 h -23.43 c 3.744,13.578 17.786,21.552 31.365,17.809 13.579,-3.743 21.553,-17.786 17.809,-31.364 -3.743,-13.579 -17.785,-21.553 -31.363,-17.81 -1.996,0.55 -3.916,1.341 -5.72,2.354 l 15.169,21.651"
   id="path113"
   inkscape:connector-curvature="0" />
</g>
<g
   id="LWPOLYLINE_31_"
   transform="translate(-14.173,-14.173)">
	<path
   style="fill:#101820"
   d="m 229.357,251.281 c -12.07,3.92 -21.979,12.663 -27.373,24.151 h 36.462 c 6.058,0 10.969,4.911 10.969,10.968 0,6.058 -4.911,10.968 -10.969,10.968 h -50.701 c -7.02,0 -13.488,-3.796 -16.913,-9.923 l -20.305,-36.335 -12.633,29.129 c 1.691,1.983 2.614,4.508 2.601,7.113 -0.032,6.005 -4.925,10.847 -10.93,10.814 -6.004,-0.031 -10.846,-4.925 -10.814,-10.929 0.032,-6.005 4.925,-10.847 10.929,-10.814 l 28.181,-64.979 h 15.546 c 1.237,0.495 2.22,1.478 2.715,2.715 1,2.501 -0.215,5.339 -2.715,6.34 h -9.603 l -5.472,12.612 16.556,30.8 c 3.452,6.501 9.939,10.831 17.269,11.521 2.701,-7.115 6.852,-13.591 12.187,-19.019 l -9.273,-10.801 0.271,0.316 c -0.739,-0.809 -1.266,-1.789 -1.53,-2.852 -0.877,-3.525 1.27,-7.093 4.794,-7.972 h 14.579 z"
   id="path116"
   inkscape:connector-curvature="0" />
</g>
<g
   id="LWPOLYLINE_32_"
   transform="translate(-14.173,-14.173)">
	<path
   style="fill:#101820"
   d="m 138.037,218.307 v 18.526 c 5.116,-0.11 9.174,-4.349 9.063,-9.464 -0.108,-4.96 -4.103,-8.955 -9.063,-9.062 z"
   id="path119"
   inkscape:connector-curvature="0" />
</g>
<g
   id="LWPOLYLINE_33_"
   transform="translate(-14.173,-14.173)">
	<path
   style="fill:#101820"
   d="m 268.667,290.591 c -1.107,10.489 -7.418,19.72 -16.79,24.562 -15.384,7.947 -34.299,1.918 -42.246,-13.467 h 12.403 c 7.947,8.535 21.308,9.012 29.843,1.063 6.604,-6.148 8.571,-15.813 4.896,-24.053 z"
   id="path122"
   inkscape:connector-curvature="0" />
</g>
<g
   id="LWPOLYLINE_34_"
   transform="translate(-14.173,-14.173)">
	<path
   style="fill:#101820"
   d="m 246.085,268.01 c -7.375,-3.289 -15.979,-2.083 -22.167,3.105 H 210.63 c 5.071,-8.415 13.792,-13.968 23.561,-15 z"
   id="path125"
   inkscape:connector-curvature="0" />
</g>
<g
   id="LWPOLYLINE_35_"
   transform="translate(-14.173,-14.173)">
	<path
   style="fill:#101820"
   d="m 145.551,273.434 4.356,-10.046 c 8.13,6.898 12.197,17.456 10.797,28.024 -2.273,17.166 -18.033,29.24 -35.199,26.966 -17.167,-2.274 -29.24,-18.033 -26.965,-35.2 2.273,-17.165 18.033,-29.238 35.199,-26.965 l -4.323,9.967 c -11.662,0.114 -21.023,9.659 -20.91,21.321 0.114,11.661 9.66,21.023 21.321,20.91 11.662,-0.114 21.023,-9.659 20.91,-21.321 -0.048,-5.025 -1.887,-9.866 -5.186,-13.656 z"
   id="path128"
   inkscape:connector-curvature="0" />
</g>
</svg>