<?xml version="1.0" encoding="iso-8859-1"?>
<!-- Generator: Adobe Illustrator 16.0.0, SVG Export Plug-In . SVG Version: 6.00 Build 0)  -->
<!DOCTYPE svg PUBLIC "-//W3C//DTD SVG 1.1//EN" "http://www.w3.org/Graphics/SVG/1.1/DTD/svg11.dtd">
<svg version="1.1" id="Layer_1" xmlns="http://www.w3.org/2000/svg" xmlns:xlink="http://www.w3.org/1999/xlink" x="0px" y="0px"
	 width="425.197px" height="425.196px" viewBox="0 0 425.197 425.196" style="enable-background:new 0 0 425.197 425.196;"
	 xml:space="preserve">
<g id="CIRCLE_4_">
	<path style="fill:#FFCD00;" d="M411.024,212.598c0-109.587-88.839-198.425-198.426-198.425
		c-109.588,0-198.425,88.838-198.425,198.425s88.837,198.426,198.425,198.426C322.185,411.023,411.024,322.185,411.024,212.598
		L411.024,212.598z"/>
</g>
<g id="CIRCLE_5_">
	<path style="fill:#E4002B;" d="M404.823,212.598c0-106.162-86.062-192.225-192.225-192.225S20.373,106.436,20.373,212.598
		c0,106.163,86.062,192.225,192.225,192.225S404.823,318.761,404.823,212.598L404.823,212.598z"/>
</g>
<g id="LWPOLYLINE_25_">
	<path style="fill:#FFCD00;" d="M94.773,116.697l213.725,213.726c-55.854,45.46-135.949,45.46-191.802,0
		C51.625,277.457,41.809,181.77,94.773,116.697z"/>
</g>
<g id="LWPOLYLINE_24_">
	<path style="fill:#FFCD00;" d="M330.421,308.499c52.965-65.072,43.15-160.761-21.923-213.726
		c-55.854-45.46-135.949-45.46-191.802,0L330.421,308.499z"/>
</g>
<g id="LWPOLYLINE_30_">
	<path style="fill:#101820;" d="M183.287,161.363l-5.896-5.896c5.114-15.491,20.868-24.837,36.913-21.897l9.332-30.614
		c1.398-4.592,5.635-7.729,10.437-7.729h12.588v7.17h-12.588c-1.646,0-3.099,1.075-3.578,2.649l-2.613,8.573l53.258,9.214
		l5.488-14.842l-12.101-3.321c-0.729-0.277-1.194-0.995-1.15-1.773c0.055-0.988,0.9-1.743,1.889-1.688h0.944h26.161v7.07h-8.206
		l-6.637,17.947l7.956,11.356c3.054-1.805,6.38-3.1,9.85-3.836c17.651-3.743,34.996,7.533,38.74,25.186
		c3.742,17.652-7.533,34.996-25.186,38.74c-17.652,3.743-34.998-7.533-38.74-25.185h-11.424c-2.63,0-5.14-1.108-6.911-3.052
		l-38.449-40.998l-2.19,7.19c8.662,3.674,15.32,10.903,18.271,19.84c5.656,17.136-3.649,35.612-20.785,41.268l-5.896-5.896
		c13.88-2.4,23.186-15.598,20.785-29.477c-1.433-8.277-6.848-15.319-14.48-18.828l-7.169,23.523
		c-0.045,0.211-0.108,0.416-0.188,0.614c-0.747,1.843-2.845,2.73-4.688,1.983c-1.842-0.747-2.73-2.846-1.983-4.688l7.157-23.481
		C198.488,138.433,185.648,147.704,183.287,161.363z"/>
</g>
<g id="LWPOLYLINE_26_">
	<polygon style="fill:#FFCD00;" points="225.776,120.531 278.61,129.672 266.1,163.498 	"/>
</g>
<g id="LWPOLYLINE_27_">
	<path style="fill:#FFCD00;" d="M293.915,147.838c-4.59,4.673-7.206,10.932-7.306,17.479h19.551L293.915,147.838z"/>
</g>
<g id="LWPOLYLINE_28_">
	<path style="fill:#FFCD00;" d="M279.438,165.317c0.107-8.887,3.829-17.347,10.309-23.429l-5.244-7.484l-11.431,30.913h6.418
		H279.438z"/>
</g>
<g id="LWPOLYLINE_29_">
	<path style="fill:#FFCD00;" d="M314.782,165.128c0.55,0.786,0.846,1.723,0.846,2.683c0,2.583-2.094,4.677-4.676,4.677h-23.43
		c3.744,13.578,17.786,21.552,31.365,17.809s21.553-17.786,17.809-31.364c-3.743-13.579-17.785-21.553-31.363-17.81
		c-1.996,0.55-3.916,1.341-5.72,2.354L314.782,165.128"/>
</g>
<g id="LWPOLYLINE_31_">
	<path style="fill:#101820;" d="M229.357,251.281c-12.07,3.92-21.979,12.663-27.373,24.151h36.462
		c6.058,0,10.969,4.911,10.969,10.968c0,6.058-4.911,10.968-10.969,10.968h-50.701c-7.02,0-13.488-3.796-16.913-9.923
		l-20.305-36.335l-12.633,29.129c1.691,1.983,2.614,4.508,2.601,7.113c-0.032,6.005-4.925,10.847-10.93,10.814
		c-6.004-0.031-10.846-4.925-10.814-10.929c0.032-6.005,4.925-10.847,10.929-10.814l28.181-64.979h15.546
		c1.237,0.495,2.22,1.478,2.715,2.715c1,2.501-0.215,5.339-2.715,6.34h-9.603l-5.472,12.612l16.556,30.8
		c3.452,6.501,9.939,10.831,17.269,11.521c2.701-7.115,6.852-13.591,12.187-19.019l-9.273-10.801l0.271,0.316
		c-0.739-0.809-1.266-1.789-1.53-2.852c-0.877-3.525,1.27-7.093,4.794-7.972h14.579L229.357,251.281z"/>
</g>
<g id="LWPOLYLINE_32_">
	<path style="fill:#101820;" d="M138.037,218.307v18.526c5.116-0.11,9.174-4.349,9.063-9.464
		C146.992,222.409,142.997,218.414,138.037,218.307z"/>
</g>
<g id="LWPOLYLINE_33_">
	<path style="fill:#101820;" d="M268.667,290.591c-1.107,10.489-7.418,19.72-16.79,24.562c-15.384,7.947-34.299,1.918-42.246-13.467
		h12.403c7.947,8.535,21.308,9.012,29.843,1.063c6.604-6.148,8.571-15.813,4.896-24.053L268.667,290.591z"/>
</g>
<g id="LWPOLYLINE_34_">
	<path style="fill:#101820;" d="M246.085,268.01c-7.375-3.289-15.979-2.083-22.167,3.105H210.63
		c5.071-8.415,13.792-13.968,23.561-15L246.085,268.01z"/>
</g>
<g id="LWPOLYLINE_35_">
	<path style="fill:#101820;" d="M145.551,273.434l4.356-10.046c8.13,6.898,12.197,17.456,10.797,28.024
		c-2.273,17.166-18.033,29.24-35.199,26.966c-17.167-2.274-29.24-18.033-26.965-35.2c2.273-17.165,18.033-29.238,35.199-26.965
		l-4.323,9.967c-11.662,0.114-21.023,9.659-20.91,21.321c0.114,11.661,9.66,21.023,21.321,20.91
		c11.662-0.114,21.023-9.659,20.91-21.321C150.689,282.065,148.85,277.224,145.551,273.434z"/>
</g>
</svg>
