<?xml version="1.0" encoding="UTF-8" standalone="no"?>
<!-- Generator: Adobe Illustrator 16.0.0, SVG Export Plug-In . SVG Version: 6.00 Build 0)  -->

<svg
   xmlns:dc="http://purl.org/dc/elements/1.1/"
   xmlns:cc="http://creativecommons.org/ns#"
   xmlns:rdf="http://www.w3.org/1999/02/22-rdf-syntax-ns#"
   xmlns:svg="http://www.w3.org/2000/svg"
   xmlns="http://www.w3.org/2000/svg"
   xmlns:sodipodi="http://sodipodi.sourceforge.net/DTD/sodipodi-0.dtd"
   xmlns:inkscape="http://www.inkscape.org/namespaces/inkscape"
   version="1.1"
   id="Layer_1"
   x="0px"
   y="0px"
   width="396.85501"
   height="396.845"
   viewBox="0 0 396.85502 396.84499"
   xml:space="preserve"
   sodipodi:docname="C13.svg"
   inkscape:version="0.92.5 (2060ec1f9f, 2020-04-08)"><metadata
   id="metadata167"><rdf:RDF><cc:Work
       rdf:about=""><dc:format>image/svg+xml</dc:format><dc:type
         rdf:resource="http://purl.org/dc/dcmitype/StillImage" /></cc:Work></rdf:RDF></metadata><defs
   id="defs165" /><sodipodi:namedview
   pagecolor="#ffffff"
   bordercolor="#666666"
   borderopacity="1"
   objecttolerance="10"
   gridtolerance="10"
   guidetolerance="10"
   inkscape:pageopacity="0"
   inkscape:pageshadow="2"
   inkscape:window-width="640"
   inkscape:window-height="480"
   id="namedview163"
   showgrid="false"
   inkscape:zoom="0.55503813"
   inkscape:cx="198.4275"
   inkscape:cy="198.42299"
   inkscape:window-x="0"
   inkscape:window-y="0"
   inkscape:window-maximized="0"
   inkscape:current-layer="Layer_1" />
<g
   id="CIRCLE"
   transform="translate(-14.171,-14.176)">
	<path
   style="fill:#ffcd00"
   d="m 411.026,212.599 c 0,-109.584 -88.84,-198.423 -198.428,-198.423 -109.588,0 -198.427,88.839 -198.427,198.423 0,109.588 88.839,198.422 198.427,198.422 109.588,0 198.428,-88.834 198.428,-198.422 z"
   id="path138"
   inkscape:connector-curvature="0" />
</g>
<g
   id="CIRCLE_1_"
   transform="translate(-14.171,-14.176)">
	<path
   style="fill:#e4002b"
   d="m 404.822,212.599 c 0,-106.162 -86.062,-192.224 -192.224,-192.224 -106.162,0 -192.224,86.062 -192.224,192.224 0,106.166 86.062,192.223 192.224,192.223 106.162,-10e-4 192.224,-86.063 192.224,-192.223 z"
   id="path141"
   inkscape:connector-curvature="0" />
</g>
<g
   id="LWPOLYLINE"
   transform="translate(-14.171,-14.176)">
	<path
   style="fill:#ffcd00"
   d="m 330.419,308.503 c 52.968,-65.078 43.147,-160.762 -21.921,-213.73 -55.854,-45.457 -135.946,-45.457 -191.8,0 z"
   id="path144"
   inkscape:connector-curvature="0" />
</g>
<g
   id="LWPOLYLINE_1_"
   transform="translate(-14.171,-14.176)">
	<path
   style="fill:#ffcd00"
   d="m 94.777,116.698 213.722,213.725 c -55.854,45.457 -135.946,45.457 -191.8,0 C 51.62,277.456 41.809,181.772 94.777,116.698 Z"
   id="path147"
   inkscape:connector-curvature="0" />
</g>
<g
   id="CIRCLE_2_"
   transform="translate(-14.171,-14.176)">
	<path
   style="fill:#101820"
   d="m 237.549,104.611 c 0,-13.373 -10.848,-24.221 -24.221,-24.221 -13.373,0 -24.221,10.848 -24.221,24.221 0,13.373 10.848,24.22 24.221,24.22 13.373,0 24.221,-10.848 24.221,-24.22 z"
   id="path150"
   inkscape:connector-curvature="0" />
</g>
<g
   id="LWPOLYLINE_2_"
   transform="translate(-14.171,-14.176)">
	<path
   style="fill:#101820"
   d="m 262.185,240.259 c 5.203,1.875 10.946,-0.824 12.822,-6.033 0.334,-0.928 0.532,-1.906 0.577,-2.895 l -0.712,-38.043 -26.927,-42.977 c -8.936,-16.114 -29.243,-21.931 -45.348,-12.994 -4.419,2.452 -8.225,5.875 -11.128,10.009 l -5.979,16.245 59.335,59.334 -0.632,-36.318 11.02,16.312 0.514,29.793 c 0.1,0.523 0.244,1.037 0.424,1.533 z"
   id="path153"
   inkscape:connector-curvature="0" />
</g>
<g
   id="LWPOLYLINE_3_"
   transform="translate(-14.171,-14.176)">
	<path
   style="fill:#101820"
   d="m 188.441,210.366 -14.744,-14.744 -0.712,1.935 -19.848,13.733 c -4.355,3.9 -4.733,10.592 -0.838,14.951 3.183,3.563 8.358,4.549 12.633,2.412 l 21.903,-15.041 z"
   id="path156"
   inkscape:connector-curvature="0" />
</g>
<g
   id="LWPOLYLINE_4_"
   transform="translate(-14.171,-14.176)">
	<path
   style="fill:#101820"
   d="m 197.169,219.091 -0.171,7.984 -21.561,51.094 -12.291,49.066 c -1.109,7.191 3.823,13.924 11.02,15.033 6.465,0.996 12.678,-2.9 14.599,-9.148 l 11.533,-44.826 17.827,-39.965 0.632,33.473 c 0.297,2.209 0.956,4.355 1.956,6.354 l 20.01,41.105 4.104,8.439 c 3.057,6.277 10.613,8.883 16.889,5.83 6.276,-3.053 8.883,-10.613 5.835,-16.885 -0.009,-0.027 -4.166,-8.494 -4.166,-8.494 l -17.521,-35.754 -0.262,-14.869 z"
   id="path159"
   inkscape:connector-curvature="0" />
</g>
</svg>