<?xml version="1.0" encoding="UTF-8" standalone="no"?>
<!-- Generator: Adobe Illustrator 16.0.0, SVG Export Plug-In . SVG Version: 6.00 Build 0)  -->

<svg
   xmlns:dc="http://purl.org/dc/elements/1.1/"
   xmlns:cc="http://creativecommons.org/ns#"
   xmlns:rdf="http://www.w3.org/1999/02/22-rdf-syntax-ns#"
   xmlns:svg="http://www.w3.org/2000/svg"
   xmlns="http://www.w3.org/2000/svg"
   xmlns:sodipodi="http://sodipodi.sourceforge.net/DTD/sodipodi-0.dtd"
   xmlns:inkscape="http://www.inkscape.org/namespaces/inkscape"
   version="1.1"
   id="Layer_1"
   x="0px"
   y="0px"
   width="396.853"
   height="396.845"
   viewBox="0 0 396.85301 396.84499"
   xml:space="preserve"
   sodipodi:docname="C16.svg"
   inkscape:version="0.92.5 (2060ec1f9f, 2020-04-08)"><metadata
   id="metadata296"><rdf:RDF><cc:Work
       rdf:about=""><dc:format>image/svg+xml</dc:format><dc:type
         rdf:resource="http://purl.org/dc/dcmitype/StillImage" /></cc:Work></rdf:RDF></metadata><defs
   id="defs294" /><sodipodi:namedview
   pagecolor="#ffffff"
   bordercolor="#666666"
   borderopacity="1"
   objecttolerance="10"
   gridtolerance="10"
   guidetolerance="10"
   inkscape:pageopacity="0"
   inkscape:pageshadow="2"
   inkscape:window-width="640"
   inkscape:window-height="480"
   id="namedview292"
   showgrid="false"
   inkscape:zoom="0.55503813"
   inkscape:cx="198.4265"
   inkscape:cy="198.42299"
   inkscape:window-x="0"
   inkscape:window-y="0"
   inkscape:window-maximized="0"
   inkscape:current-layer="Layer_1" />
<g
   id="CIRCLE_2_"
   transform="translate(-14.172,-14.176)">
	<path
   style="fill:#ffcd00"
   d="m 411.025,212.599 c 0,-109.584 -88.84,-198.423 -198.43,-198.423 -109.588,0 -198.423,88.839 -198.423,198.423 0,109.588 88.835,198.422 198.423,198.422 109.59,0 198.43,-88.834 198.43,-198.422 z"
   id="path267"
   inkscape:connector-curvature="0" />
</g>
<g
   id="CIRCLE_3_"
   transform="translate(-14.172,-14.176)">
	<path
   style="fill:#e4002b"
   d="m 404.821,212.599 c 0,-106.162 -86.063,-192.224 -192.226,-192.224 -106.162,0 -192.223,86.062 -192.223,192.224 0,106.166 86.062,192.223 192.223,192.223 106.163,-10e-4 192.226,-86.063 192.226,-192.223 z"
   id="path270"
   inkscape:connector-curvature="0" />
</g>
<g
   id="LWPOLYLINE_6_"
   transform="translate(-14.172,-14.176)">
	<path
   style="fill:#ffcd00"
   d="m 308.479,330.433 c -55.845,45.457 -135.926,45.457 -191.771,0 C 51.647,277.478 41.832,181.808 94.791,116.744 Z"
   id="path273"
   inkscape:connector-curvature="0" />
</g>
<g
   id="LWPOLYLINE_7_"
   transform="translate(-14.172,-14.176)">
	<path
   style="fill:#ffcd00"
   d="m 330.4,308.517 c 52.959,-65.066 43.148,-160.74 -21.921,-213.694 -55.845,-45.452 -135.926,-45.452 -191.771,0 z"
   id="path276"
   inkscape:connector-curvature="0" />
</g>
<g
   id="LWPOLYLINE_8_"
   transform="translate(-14.172,-14.176)">
	<path
   style="fill:#101820"
   d="m 246.673,268.628 c -6.718,9.057 -13.336,18.197 -19.847,27.408 l -2.507,4.514 h 10.856 l 1.84,-6.881 1.902,-0.748 c 1.344,-0.533 2.381,-1.623 2.841,-2.994 l 1.506,-4.482 c 2.525,-4.121 5.393,-8.016 8.585,-11.645 z"
   id="path279"
   inkscape:connector-curvature="0" />
</g>
<g
   id="LWPOLYLINE_9_"
   transform="translate(-14.172,-14.176)">
	<path
   style="fill:#101820"
   d="m 321.041,299.155 v -5.121 l 2.948,-3.318 c 0.866,-0.979 1.154,-2.35 0.758,-3.594 l -8.937,-28.129 v -9.492 c 0,-0.711 -0.315,-1.389 -0.848,-1.861 -9.559,-8.391 -14.067,-21.137 -11.921,-33.666 0.839,-11.389 -3.265,-22.584 -11.263,-30.732 -0.072,-0.072 -0.126,-0.153 -0.162,-0.248 -0.145,-0.383 0.036,-0.815 0.424,-0.965 5.816,-2.304 12.407,0.401 14.933,6.128 3.688,9.478 5.275,19.649 4.635,29.797 0.189,9.055 4.139,17.621 10.902,23.639 2.696,2.033 6.393,2.074 9.135,0.109 -0.117,-0.027 -0.226,-0.059 -0.343,-0.09 -4.211,-1.182 -6.673,-5.555 -5.492,-9.768 3.481,-9.381 4.238,-19.559 2.183,-29.346 -2.832,-16.994 -18.909,-28.482 -35.898,-25.65 -1.217,0.202 -2.426,0.478 -3.616,0.824 -1.189,0.348 -2.471,0.234 -3.589,-0.319 -11.109,-5.496 -23.823,-6.845 -35.844,-3.797 -3.923,1.078 -7.944,1.759 -12.002,2.021 -2.245,0.117 -4.473,0.473 -6.646,1.068 -1.723,-12.913 -4.014,-25.745 -6.854,-38.459 -1.064,-6.912 -7.519,-11.655 -14.43,-10.6 -6.231,0.956 -10.812,6.344 -10.744,12.642 l -1.691,20.623 c -0.067,0.815 -0.537,1.546 -1.249,1.952 l -6.849,3.891 76.983,76.982 c 0.758,-5.826 4.5,-10.83 9.874,-13.211 2.886,5.906 7.692,10.65 13.626,13.455 8.088,3.926 14.824,10.176 19.351,17.947 3.481,7.941 6.294,16.15 8.423,24.555 0.036,1.813 -0.316,3.611 -1.028,5.279 -0.352,0.393 -0.694,0.795 -1.019,1.199 2.02,2.148 4.103,4.236 6.25,6.255 z"
   id="path282"
   inkscape:connector-curvature="0" />
</g>
<g
   id="LWPOLYLINE_10_"
   transform="translate(-14.172,-14.176)">
	<path
   style="fill:#101820"
   d="m 117.16,139.111 c -1.637,0.415 -3.247,0.929 -4.825,1.538 -6.267,-0.933 -12.66,-0.582 -18.792,1.042 l 9.333,4.635 5.631,43.712 c 0.997,4.121 5.145,6.65 9.265,5.658 1.438,-0.352 2.742,-1.104 3.76,-2.173 1.831,0.198 3.477,-1.127 3.67,-2.962 0,-0.005 -0.73,-6.867 -0.73,-6.867 l 3.751,-11.993 5.974,-3.396 c 6.082,8.333 10.659,17.666 13.521,27.571 -0.189,8.413 1.736,16.741 5.6,24.215 -11.042,1.561 -21.678,5.254 -31.309,10.875 -1.88,1.096 -2.827,3.297 -2.327,5.42 2.462,10.5 5.568,20.84 9.297,30.961 3.652,6.988 10.595,11.646 18.445,12.373 v -10.457 h -5.749 c -1.037,-2.813 -3.566,-4.807 -6.546,-5.152 -1.064,-0.93 -1.709,-2.254 -1.786,-3.67 -0.942,-6.096 -1.961,-12.184 -3.043,-18.262 -0.23,-1.289 0.582,-2.537 1.857,-2.85 l 9.653,-2.326 c 8.855,-0.018 17.575,-2.23 25.361,-6.447 l 4.797,2.16 c 4.08,8.098 8.724,15.902 13.891,23.35 l 12.661,25.98 c 0.604,2.813 -0.023,5.748 -1.718,8.07 -2.931,2.984 -5.226,6.533 -6.754,10.428 h 10.853 c 0.036,-3.58 1.416,-7.02 3.864,-9.631 l 2.385,-2.568 c 0.749,-1.475 0.609,-3.246 -0.352,-4.59 -1.786,-2.305 -3.039,-4.975 -3.684,-7.818 -2.358,-7.977 -4.581,-15.992 -6.664,-24.041 -0.992,-6.934 -2.412,-13.801 -4.247,-20.559 6.069,0.707 12.178,1.076 18.287,1.113 z"
   id="path285"
   inkscape:connector-curvature="0" />
</g>
<g
   id="LWPOLYLINE_11_"
   transform="translate(-14.172,-14.176)">
	<path
   style="fill:#101820"
   d="m 195.638,102.203 -9.64,2.155 0.086,3.485 7.939,-0.627 c -0.879,7.484 4.477,14.261 11.957,15.141 7.485,0.875 14.254,-4.482 15.138,-11.957 0.875,-7.485 -4.481,-14.261 -11.959,-15.141 -5.5,-0.64 -10.843,2.101 -13.521,6.944 z"
   id="path288"
   inkscape:connector-curvature="0" />
</g>
</svg>