<?xml version="1.0" encoding="iso-8859-1"?>
<!-- Generator: Adobe Illustrator 16.0.0, SVG Export Plug-In . SVG Version: 6.00 Build 0)  -->
<!DOCTYPE svg PUBLIC "-//W3C//DTD SVG 1.1//EN" "http://www.w3.org/Graphics/SVG/1.1/DTD/svg11.dtd">
<svg version="1.1" id="Layer_1" xmlns="http://www.w3.org/2000/svg" xmlns:xlink="http://www.w3.org/1999/xlink" x="0px" y="0px"
	 width="425.197px" height="425.196px" viewBox="0 0 425.197 425.196" style="enable-background:new 0 0 425.197 425.196;"
	 xml:space="preserve">
<g id="LWPOLYLINE_22_">
	<rect x="137.726" y="261.282" style="fill:#FFCD00;" width="149.744" height="149.741"/>
</g>
<g id="LWPOLYLINE_23_">
	<path style="fill:#E4002B;" d="M287.47,396.985V275.32c0-7.754-6.284-14.038-14.04-14.038H151.765
		c-7.755,0-14.039,6.284-14.039,14.038v121.665c0,7.75,6.284,14.038,14.039,14.038H273.43
		C281.186,411.023,287.47,404.735,287.47,396.985z"/>
</g>
<g id="LWPOLYLINE_24_">
	<path style="fill:#FFCD00;" d="M279.98,396.985V275.32c0-3.617-2.932-6.549-6.55-6.549H151.765c-3.617,0-6.553,2.932-6.553,6.549
		v121.665c0,3.617,2.936,6.553,6.553,6.553H273.43C277.048,403.538,279.98,400.603,279.98,396.985z"/>
</g>
<g id="CIRCLE_1_">
	<path style="fill:#FFCD00;" d="M332.409,133.984c0-66.169-53.643-119.812-119.813-119.812
		c-66.169,0-119.808,53.643-119.808,119.812c0,66.17,53.639,119.813,119.808,119.813
		C278.766,253.797,332.409,200.154,332.409,133.984L332.409,133.984z"/>
</g>
<g id="CIRCLE_3_">
	<path style="fill:#E4002B;" d="M326.777,134.003c0-63.058-51.124-114.178-114.182-114.178c-63.056,0-114.176,51.12-114.176,114.178
		c0,63.059,51.12,114.179,114.176,114.179C275.653,248.182,326.777,197.062,326.777,134.003L326.777,134.003z"/>
</g>
<g id="LWPOLYLINE_19_">
	<path style="fill:#FFCD00;" d="M112.33,157.44h200.508c3.601-15.384,3.609-31.392,0.025-46.779H112.333
		c-3.583,15.388-3.575,31.396,0.021,46.779"/>
</g>
<g id="LWPOLYLINE_25_">
	<polygon style="fill:#101820;" points="163.296,311.819 175.65,311.819 175.65,308.45 166.666,308.45 166.666,301.712 
		172.727,301.712 172.727,298.343 166.666,298.343 166.666,292.728 175.65,292.728 175.65,289.358 163.296,289.358 	"/>
</g>
<g id="LWPOLYLINE_26_">
	<rect x="179.692" y="294.974" style="fill:#101820;" width="3.369" height="16.846"/>
</g>
<g id="LWPOLYLINE_27_">
	<rect x="179.692" y="289.358" style="fill:#101820;" width="3.369" height="3.369"/>
</g>
<g id="LWPOLYLINE_28_">
	<polygon style="fill:#101820;" points="197.662,311.819 194.292,311.819 194.292,289.358 197.662,289.358 197.662,301.77 
		202.154,294.974 205.523,294.974 201.678,300.742 205.543,311.828 202.154,311.819 199.445,304.09 197.662,306.766 	"/>
</g>
<g id="LWPOLYLINE_29_">
	<path style="fill:#101820;" d="M207.992,306.204c0,3.101,2.515,5.615,5.615,5.615s5.615-2.515,5.615-5.615v-5.615
		c0-3.101-2.515-5.615-5.615-5.615s-5.615,2.515-5.615,5.615V306.204z"/>
</g>
<g id="LWPOLYLINE_31_">
	<path style="fill:#101820;" d="M222.369,306.204c0,3.101,2.514,5.615,5.615,5.615h0.449c2.729,0,4.938-2.213,4.938-4.938
		c0-1.759-0.934-3.385-2.452-4.269l-3.729-2.176c-0.343-0.202-0.558-0.57-0.558-0.971c0-0.619,0.504-1.123,1.123-1.123h0.677
		c0.619,0,1.123,0.504,1.123,1.123h3.369c0-2.481-2.011-4.492-4.492-4.492h-0.677c-2.478,0-4.492,2.011-4.492,4.492
		c0,1.598,0.851,3.076,2.233,3.881l3.725,2.172c0.483,0.281,0.78,0.802,0.78,1.362c0,0.867-0.702,1.569-1.569,1.569h-0.449
		c-1.243,0-2.246-1.007-2.246-2.246H222.369z"/>
</g>
<g id="LWPOLYLINE_32_">
	<polygon style="fill:#101820;" points="240.56,311.819 237.191,311.819 237.191,289.358 240.56,289.358 240.56,301.77 
		245.052,294.974 248.421,294.974 244.578,300.742 248.446,311.828 245.052,311.819 242.348,304.09 240.56,306.766 	"/>
</g>
<g id="LWPOLYLINE_33_">
	<path style="fill:#101820;" d="M258.529,306.204h3.369c0,3.101-2.515,5.615-5.615,5.615s-5.615-2.515-5.615-5.615v-5.615
		c0-3.101,2.515-5.615,5.615-5.615s5.615,2.515,5.615,5.615v3.146h-7.861v2.469c0,1.239,1.008,2.246,2.246,2.246
		C257.526,308.45,258.529,307.443,258.529,306.204z"/>
</g>
<g id="LWPOLYLINE_38_">
	<path style="fill:#101820;" d="M226.943,344.979l4.187,5.975c1.606-0.95,3.356-1.631,5.182-2.02
		c9.29-1.969,18.415,3.964,20.385,13.254c1.974,9.286-3.964,18.415-13.25,20.385c-9.29,1.969-18.414-3.964-20.384-13.254h-6.012
		c-1.388,0-2.704-0.578-3.638-1.603l-20.231-21.577l-1.156,3.786c7.416,3.142,11.652,11.008,10.203,18.927
		c-1.714,9.34-10.669,15.524-20.009,13.811c-9.34-1.709-15.524-10.669-13.815-20.008c1.71-9.34,10.669-15.524,20.009-13.812
		l4.909-16.11c0.739-2.416,2.969-4.067,5.491-4.067h6.627v3.774h-6.627c-0.863,0-1.627,0.565-1.883,1.396l-1.375,4.509l28.027,4.847
		l2.886-7.808l-6.366-1.746c-0.385-0.148-0.628-0.524-0.604-0.934c0.029-0.521,0.471-0.916,0.991-0.892h0.5h13.765v3.725h-4.318
		L226.943,344.979z"/>
</g>
<g id="LWPOLYLINE_30_">
	<path style="fill:#FFCD00;" d="M211.361,306.204c0,1.239,1.008,2.246,2.246,2.246c1.243,0,2.246-1.007,2.246-2.246v-5.615
		c0-1.238-1.003-2.246-2.246-2.246c-1.238,0-2.246,1.008-2.246,2.246V306.204z"/>
</g>
<g id="LWPOLYLINE_34_">
	<path style="fill:#FFCD00;" d="M254.037,300.812h4.492v-0.223c0-1.238-1.003-2.246-2.246-2.246c-1.238,0-2.246,1.008-2.246,2.246
		V300.812z"/>
</g>
<g id="LWPOLYLINE_35_">
	<polygon style="fill:#FFCD00;" points="194.449,341.98 222.252,346.791 215.667,364.591 	"/>
</g>
<g id="LWPOLYLINE_36_">
	<path style="fill:#FFCD00;" d="M230.304,356.35c-2.416,2.456-3.79,5.751-3.844,9.199h10.288L230.304,356.35z"/>
</g>
<g id="LWPOLYLINE_37_">
	<path style="fill:#FFCD00;" d="M222.686,365.549c0.058-4.679,2.015-9.129,5.426-12.329l-2.759-3.939l-6.016,16.269h3.378H222.686z"
		/>
</g>
<g id="LWPOLYLINE_39_">
	<path style="fill:#FFCD00;" d="M241.287,365.445c0.289,0.417,0.441,0.908,0.441,1.412c0,1.362-1.098,2.461-2.461,2.461h-12.324
		c1.97,7.146,9.356,11.342,16.503,9.372c7.144-1.97,11.342-9.355,9.368-16.503c-1.969-7.147-9.355-11.342-16.503-9.368
		c-1.049,0.289-2.06,0.702-3.01,1.238L241.287,365.445z"/>
</g>
<g id="LWPOLYLINE_40_">
	<path style="fill:#FFCD00;" d="M190.918,353.563l-3.773,12.374c-0.021,0.111-0.054,0.219-0.095,0.326
		c-0.396,0.966-1.499,1.437-2.47,1.04c-0.97-0.392-1.437-1.494-1.044-2.465l3.77-12.357c-7.333-1.098-14.166,3.955-15.265,11.284
		s3.955,14.162,11.284,15.261c7.333,1.098,14.162-3.951,15.261-11.284C199.474,361.837,196.348,356.057,190.918,353.563z"/>
</g>
</svg>
