<?xml version="1.0" encoding="UTF-8" standalone="no"?>
<!-- Generator: Adobe Illustrator 16.0.0, SVG Export Plug-In . SVG Version: 6.00 Build 0)  -->

<svg
   xmlns:dc="http://purl.org/dc/elements/1.1/"
   xmlns:cc="http://creativecommons.org/ns#"
   xmlns:rdf="http://www.w3.org/1999/02/22-rdf-syntax-ns#"
   xmlns:svg="http://www.w3.org/2000/svg"
   xmlns="http://www.w3.org/2000/svg"
   xmlns:sodipodi="http://sodipodi.sourceforge.net/DTD/sodipodi-0.dtd"
   xmlns:inkscape="http://www.inkscape.org/namespaces/inkscape"
   version="1.1"
   id="Layer_1"
   x="0px"
   y="0px"
   width="239.621"
   height="396.85101"
   viewBox="0 0 239.62101 396.851"
   xml:space="preserve"
   sodipodi:docname="C17_2.svg"
   inkscape:version="0.92.5 (2060ec1f9f, 2020-04-08)"><metadata
   id="metadata385"><rdf:RDF><cc:Work
       rdf:about=""><dc:format>image/svg+xml</dc:format><dc:type
         rdf:resource="http://purl.org/dc/dcmitype/StillImage" /></cc:Work></rdf:RDF></metadata><defs
   id="defs383" /><sodipodi:namedview
   pagecolor="#ffffff"
   bordercolor="#666666"
   borderopacity="1"
   objecttolerance="10"
   gridtolerance="10"
   guidetolerance="10"
   inkscape:pageopacity="0"
   inkscape:pageshadow="2"
   inkscape:window-width="640"
   inkscape:window-height="480"
   id="namedview381"
   showgrid="false"
   inkscape:zoom="0.55503813"
   inkscape:cx="119.8105"
   inkscape:cy="198.425"
   inkscape:window-x="0"
   inkscape:window-y="0"
   inkscape:window-maximized="0"
   inkscape:current-layer="Layer_1" />
<g
   id="LWPOLYLINE_22_"
   transform="translate(-92.788,-14.172)">
	<rect
   x="137.726"
   y="261.28201"
   style="fill:#ffcd00"
   width="149.744"
   height="149.741"
   id="rect314" />
</g>
<g
   id="LWPOLYLINE_23_"
   transform="translate(-92.788,-14.172)">
	<path
   style="fill:#e4002b"
   d="M 287.47,396.985 V 275.32 c 0,-7.754 -6.284,-14.038 -14.04,-14.038 H 151.765 c -7.755,0 -14.039,6.284 -14.039,14.038 v 121.665 c 0,7.75 6.284,14.038 14.039,14.038 H 273.43 c 7.756,0 14.04,-6.288 14.04,-14.038 z"
   id="path317"
   inkscape:connector-curvature="0" />
</g>
<g
   id="LWPOLYLINE_24_"
   transform="translate(-92.788,-14.172)">
	<path
   style="fill:#ffcd00"
   d="M 279.98,396.985 V 275.32 c 0,-3.617 -2.932,-6.549 -6.55,-6.549 H 151.765 c -3.617,0 -6.553,2.932 -6.553,6.549 v 121.665 c 0,3.617 2.936,6.553 6.553,6.553 H 273.43 c 3.618,0 6.55,-2.935 6.55,-6.553 z"
   id="path320"
   inkscape:connector-curvature="0" />
</g>
<g
   id="CIRCLE_1_"
   transform="translate(-92.788,-14.172)">
	<path
   style="fill:#ffcd00"
   d="m 332.409,133.984 c 0,-66.169 -53.643,-119.812 -119.813,-119.812 -66.169,0 -119.808,53.643 -119.808,119.812 0,66.17 53.639,119.813 119.808,119.813 66.17,0 119.813,-53.643 119.813,-119.813 z"
   id="path323"
   inkscape:connector-curvature="0" />
</g>
<g
   id="CIRCLE_3_"
   transform="translate(-92.788,-14.172)">
	<path
   style="fill:#e4002b"
   d="m 326.777,134.003 c 0,-63.058 -51.124,-114.178 -114.182,-114.178 -63.056,0 -114.176,51.12 -114.176,114.178 0,63.059 51.12,114.179 114.176,114.179 63.058,0 114.182,-51.12 114.182,-114.179 z"
   id="path326"
   inkscape:connector-curvature="0" />
</g>
<g
   id="LWPOLYLINE_19_"
   transform="translate(-92.788,-14.172)">
	<path
   style="fill:#ffcd00"
   d="m 112.33,157.44 h 200.508 c 3.601,-15.384 3.609,-31.392 0.025,-46.779 h -200.53 c -3.583,15.388 -3.575,31.396 0.021,46.779"
   id="path329"
   inkscape:connector-curvature="0" />
</g>
<g
   id="LWPOLYLINE_25_"
   transform="translate(-92.788,-14.172)">
	<polygon
   style="fill:#101820"
   points="175.65,308.45 166.666,308.45 166.666,301.712 172.727,301.712 172.727,298.343 166.666,298.343 166.666,292.728 175.65,292.728 175.65,289.358 163.296,289.358 163.296,311.819 175.65,311.819 "
   id="polygon332" />
</g>
<g
   id="LWPOLYLINE_26_"
   transform="translate(-92.788,-14.172)">
	<rect
   x="179.692"
   y="294.974"
   style="fill:#101820"
   width="3.369"
   height="16.846001"
   id="rect335" />
</g>
<g
   id="LWPOLYLINE_27_"
   transform="translate(-92.788,-14.172)">
	<rect
   x="179.692"
   y="289.358"
   style="fill:#101820"
   width="3.369"
   height="3.369"
   id="rect338" />
</g>
<g
   id="LWPOLYLINE_28_"
   transform="translate(-92.788,-14.172)">
	<polygon
   style="fill:#101820"
   points="194.292,289.358 197.662,289.358 197.662,301.77 202.154,294.974 205.523,294.974 201.678,300.742 205.543,311.828 202.154,311.819 199.445,304.09 197.662,306.766 197.662,311.819 194.292,311.819 "
   id="polygon341" />
</g>
<g
   id="LWPOLYLINE_29_"
   transform="translate(-92.788,-14.172)">
	<path
   style="fill:#101820"
   d="m 207.992,306.204 c 0,3.101 2.515,5.615 5.615,5.615 3.1,0 5.615,-2.515 5.615,-5.615 v -5.615 c 0,-3.101 -2.515,-5.615 -5.615,-5.615 -3.1,0 -5.615,2.515 -5.615,5.615 z"
   id="path344"
   inkscape:connector-curvature="0" />
</g>
<g
   id="LWPOLYLINE_31_"
   transform="translate(-92.788,-14.172)">
	<path
   style="fill:#101820"
   d="m 222.369,306.204 c 0,3.101 2.514,5.615 5.615,5.615 h 0.449 c 2.729,0 4.938,-2.213 4.938,-4.938 0,-1.759 -0.934,-3.385 -2.452,-4.269 l -3.729,-2.176 c -0.343,-0.202 -0.558,-0.57 -0.558,-0.971 0,-0.619 0.504,-1.123 1.123,-1.123 h 0.677 c 0.619,0 1.123,0.504 1.123,1.123 h 3.369 c 0,-2.481 -2.011,-4.492 -4.492,-4.492 h -0.677 c -2.478,0 -4.492,2.011 -4.492,4.492 0,1.598 0.851,3.076 2.233,3.881 l 3.725,2.172 c 0.483,0.281 0.78,0.802 0.78,1.362 0,0.867 -0.702,1.569 -1.569,1.569 h -0.449 c -1.243,0 -2.246,-1.007 -2.246,-2.246 h -3.368 z"
   id="path347"
   inkscape:connector-curvature="0" />
</g>
<g
   id="LWPOLYLINE_32_"
   transform="translate(-92.788,-14.172)">
	<polygon
   style="fill:#101820"
   points="237.191,289.358 240.56,289.358 240.56,301.77 245.052,294.974 248.421,294.974 244.578,300.742 248.446,311.828 245.052,311.819 242.348,304.09 240.56,306.766 240.56,311.819 237.191,311.819 "
   id="polygon350" />
</g>
<g
   id="LWPOLYLINE_33_"
   transform="translate(-92.788,-14.172)">
	<path
   style="fill:#101820"
   d="m 258.529,306.204 h 3.369 c 0,3.101 -2.515,5.615 -5.615,5.615 -3.1,0 -5.615,-2.515 -5.615,-5.615 v -5.615 c 0,-3.101 2.515,-5.615 5.615,-5.615 3.1,0 5.615,2.515 5.615,5.615 v 3.146 h -7.861 v 2.469 c 0,1.239 1.008,2.246 2.246,2.246 1.243,0 2.246,-1.007 2.246,-2.246 z"
   id="path353"
   inkscape:connector-curvature="0" />
</g>
<g
   id="LWPOLYLINE_38_"
   transform="translate(-92.788,-14.172)">
	<path
   style="fill:#101820"
   d="m 226.943,344.979 4.187,5.975 c 1.606,-0.95 3.356,-1.631 5.182,-2.02 9.29,-1.969 18.415,3.964 20.385,13.254 1.974,9.286 -3.964,18.415 -13.25,20.385 -9.29,1.969 -18.414,-3.964 -20.384,-13.254 h -6.012 c -1.388,0 -2.704,-0.578 -3.638,-1.603 l -20.231,-21.577 -1.156,3.786 c 7.416,3.142 11.652,11.008 10.203,18.927 -1.714,9.34 -10.669,15.524 -20.009,13.811 -9.34,-1.709 -15.524,-10.669 -13.815,-20.008 1.71,-9.34 10.669,-15.524 20.009,-13.812 l 4.909,-16.11 c 0.739,-2.416 2.969,-4.067 5.491,-4.067 h 6.627 v 3.774 h -6.627 c -0.863,0 -1.627,0.565 -1.883,1.396 l -1.375,4.509 28.027,4.847 2.886,-7.808 -6.366,-1.746 c -0.385,-0.148 -0.628,-0.524 -0.604,-0.934 0.029,-0.521 0.471,-0.916 0.991,-0.892 h 0.5 13.765 v 3.725 h -4.318 z"
   id="path356"
   inkscape:connector-curvature="0" />
</g>
<g
   id="LWPOLYLINE_30_"
   transform="translate(-92.788,-14.172)">
	<path
   style="fill:#ffcd00"
   d="m 211.361,306.204 c 0,1.239 1.008,2.246 2.246,2.246 1.243,0 2.246,-1.007 2.246,-2.246 v -5.615 c 0,-1.238 -1.003,-2.246 -2.246,-2.246 -1.238,0 -2.246,1.008 -2.246,2.246 z"
   id="path359"
   inkscape:connector-curvature="0" />
</g>
<g
   id="LWPOLYLINE_34_"
   transform="translate(-92.788,-14.172)">
	<path
   style="fill:#ffcd00"
   d="m 254.037,300.812 h 4.492 v -0.223 c 0,-1.238 -1.003,-2.246 -2.246,-2.246 -1.238,0 -2.246,1.008 -2.246,2.246 z"
   id="path362"
   inkscape:connector-curvature="0" />
</g>
<g
   id="LWPOLYLINE_35_"
   transform="translate(-92.788,-14.172)">
	<polygon
   style="fill:#ffcd00"
   points="215.667,364.591 194.449,341.98 222.252,346.791 "
   id="polygon365" />
</g>
<g
   id="LWPOLYLINE_36_"
   transform="translate(-92.788,-14.172)">
	<path
   style="fill:#ffcd00"
   d="m 230.304,356.35 c -2.416,2.456 -3.79,5.751 -3.844,9.199 h 10.288 z"
   id="path368"
   inkscape:connector-curvature="0" />
</g>
<g
   id="LWPOLYLINE_37_"
   transform="translate(-92.788,-14.172)">
	<path
   style="fill:#ffcd00"
   d="m 222.686,365.549 c 0.058,-4.679 2.015,-9.129 5.426,-12.329 l -2.759,-3.939 -6.016,16.269 h 3.378 -0.029 z"
   id="path371"
   inkscape:connector-curvature="0" />
</g>
<g
   id="LWPOLYLINE_39_"
   transform="translate(-92.788,-14.172)">
	<path
   style="fill:#ffcd00"
   d="m 241.287,365.445 c 0.289,0.417 0.441,0.908 0.441,1.412 0,1.362 -1.098,2.461 -2.461,2.461 h -12.324 c 1.97,7.146 9.356,11.342 16.503,9.372 7.144,-1.97 11.342,-9.355 9.368,-16.503 -1.969,-7.147 -9.355,-11.342 -16.503,-9.368 -1.049,0.289 -2.06,0.702 -3.01,1.238 z"
   id="path374"
   inkscape:connector-curvature="0" />
</g>
<g
   id="LWPOLYLINE_40_"
   transform="translate(-92.788,-14.172)">
	<path
   style="fill:#ffcd00"
   d="m 190.918,353.563 -3.773,12.374 c -0.021,0.111 -0.054,0.219 -0.095,0.326 -0.396,0.966 -1.499,1.437 -2.47,1.04 -0.97,-0.392 -1.437,-1.494 -1.044,-2.465 l 3.77,-12.357 c -7.333,-1.098 -14.166,3.955 -15.265,11.284 -1.099,7.329 3.955,14.162 11.284,15.261 7.333,1.098 14.162,-3.951 15.261,-11.284 0.888,-5.905 -2.238,-11.685 -7.668,-14.179 z"
   id="path377"
   inkscape:connector-curvature="0" />
</g>
</svg>