<?xml version="1.0" encoding="iso-8859-1"?>
<!-- Generator: Adobe Illustrator 16.0.0, SVG Export Plug-In . SVG Version: 6.00 Build 0)  -->
<!DOCTYPE svg PUBLIC "-//W3C//DTD SVG 1.1//EN" "http://www.w3.org/Graphics/SVG/1.1/DTD/svg11.dtd">
<svg version="1.1" id="Layer_1" xmlns="http://www.w3.org/2000/svg" xmlns:xlink="http://www.w3.org/1999/xlink" x="0px" y="0px"
	 width="425.197px" height="425.196px" viewBox="0 0 425.197 425.196" style="enable-background:new 0 0 425.197 425.196;"
	 xml:space="preserve">
<g id="CIRCLE_3_">
	<path style="fill:#FFCD00;" d="M411.023,212.601c0-109.587-88.835-198.426-198.424-198.426
		c-109.586,0-198.425,88.839-198.425,198.426c0,109.586,88.839,198.421,198.425,198.421
		C322.188,411.021,411.023,322.187,411.023,212.601L411.023,212.601z"/>
</g>
<g id="CIRCLE_2_">
	<path style="fill:#E4002B;" d="M404.827,212.601c0-106.164-86.065-192.226-192.228-192.226
		c-106.159,0-192.22,86.062-192.22,192.226c0,106.159,86.061,192.225,192.22,192.225
		C318.761,404.825,404.827,318.76,404.827,212.601L404.827,212.601z"/>
</g>
<g id="LWPOLYLINE_6_">
	<path style="fill:#FFCD00;" d="M162.248,69.266l127.78,274.039c72.186-42.763,96.04-135.953,53.273-208.139
		C306.378,72.847,230.594,45.258,162.248,69.266z"/>
</g>
<g id="LWPOLYLINE_7_">
	<path style="fill:#FFCD00;" d="M133.924,81.893C61.739,124.659,37.889,217.845,80.651,290.03
		c36.923,62.324,112.712,89.912,181.058,65.9L133.924,81.893z"/>
</g>
<g id="LWPOLYLINE_16_">
	<polygon style="fill:#101820;" points="159.136,135.964 134.245,160.86 170.748,160.86 185.205,191.866 134.25,191.862 
		173.002,230.615 167.727,230.615 133.537,230.615 79.285,176.363 133.545,122.103 152.674,122.103 	"/>
</g>
<g id="LWPOLYLINE_17_">
	<path style="fill:#101820;" d="M256.009,270.338v-53.052c0-14.038-11.382-25.42-25.424-25.42h-11.175l-14.455-31.006h25.63
		c31.159,0,56.421,25.261,56.421,56.426v119.538L256.009,270.338z"/>
</g>
</svg>
