<?xml version="1.0" encoding="UTF-8" standalone="no"?>
<!-- Generator: Adobe Illustrator 16.0.0, SVG Export Plug-In . SVG Version: 6.00 Build 0)  -->

<svg
   xmlns:dc="http://purl.org/dc/elements/1.1/"
   xmlns:cc="http://creativecommons.org/ns#"
   xmlns:rdf="http://www.w3.org/1999/02/22-rdf-syntax-ns#"
   xmlns:svg="http://www.w3.org/2000/svg"
   xmlns="http://www.w3.org/2000/svg"
   xmlns:sodipodi="http://sodipodi.sourceforge.net/DTD/sodipodi-0.dtd"
   xmlns:inkscape="http://www.inkscape.org/namespaces/inkscape"
   version="1.1"
   id="Layer_1"
   x="0px"
   y="0px"
   width="396.849"
   height="396.84698"
   viewBox="0 0 396.84901 396.84697"
   xml:space="preserve"
   sodipodi:docname="C18.svg"
   inkscape:version="0.92.5 (2060ec1f9f, 2020-04-08)"><metadata
   id="metadata525"><rdf:RDF><cc:Work
       rdf:about=""><dc:format>image/svg+xml</dc:format><dc:type
         rdf:resource="http://purl.org/dc/dcmitype/StillImage" /></cc:Work></rdf:RDF></metadata><defs
   id="defs523" /><sodipodi:namedview
   pagecolor="#ffffff"
   bordercolor="#666666"
   borderopacity="1"
   objecttolerance="10"
   gridtolerance="10"
   guidetolerance="10"
   inkscape:pageopacity="0"
   inkscape:pageshadow="2"
   inkscape:window-width="640"
   inkscape:window-height="480"
   id="namedview521"
   showgrid="false"
   inkscape:zoom="0.55503813"
   inkscape:cx="198.4245"
   inkscape:cy="198.42399"
   inkscape:window-x="0"
   inkscape:window-y="0"
   inkscape:window-maximized="0"
   inkscape:current-layer="Layer_1" />
<g
   id="CIRCLE_3_"
   transform="translate(-14.174,-14.175)">
	<path
   style="fill:#ffcd00"
   d="m 411.023,212.601 c 0,-109.587 -88.835,-198.426 -198.424,-198.426 -109.586,0 -198.425,88.839 -198.425,198.426 0,109.586 88.839,198.421 198.425,198.421 109.589,-10e-4 198.424,-88.835 198.424,-198.421 z"
   id="path502"
   inkscape:connector-curvature="0" />
</g>
<g
   id="CIRCLE_2_"
   transform="translate(-14.174,-14.175)">
	<path
   style="fill:#e4002b"
   d="m 404.827,212.601 c 0,-106.164 -86.065,-192.226 -192.228,-192.226 -106.159,0 -192.22,86.062 -192.22,192.226 0,106.159 86.061,192.225 192.22,192.225 106.162,-0.001 192.228,-86.066 192.228,-192.225 z"
   id="path505"
   inkscape:connector-curvature="0" />
</g>
<g
   id="LWPOLYLINE_6_"
   transform="translate(-14.174,-14.175)">
	<path
   style="fill:#ffcd00"
   d="m 162.248,69.266 127.78,274.039 C 362.214,300.542 386.068,207.352 343.301,135.166 306.378,72.847 230.594,45.258 162.248,69.266 Z"
   id="path508"
   inkscape:connector-curvature="0" />
</g>
<g
   id="LWPOLYLINE_7_"
   transform="translate(-14.174,-14.175)">
	<path
   style="fill:#ffcd00"
   d="M 133.924,81.893 C 61.739,124.659 37.889,217.845 80.651,290.03 c 36.923,62.324 112.712,89.912 181.058,65.9 z"
   id="path511"
   inkscape:connector-curvature="0" />
</g>
<g
   id="LWPOLYLINE_16_"
   transform="translate(-14.174,-14.175)">
	<polygon
   style="fill:#101820"
   points="170.748,160.86 185.205,191.866 134.25,191.862 173.002,230.615 167.727,230.615 133.537,230.615 79.285,176.363 133.545,122.103 152.674,122.103 159.136,135.964 134.245,160.86 "
   id="polygon514" />
</g>
<g
   id="LWPOLYLINE_17_"
   transform="translate(-14.174,-14.175)">
	<path
   style="fill:#101820"
   d="m 256.009,270.338 v -53.052 c 0,-14.038 -11.382,-25.42 -25.424,-25.42 H 219.41 L 204.955,160.86 h 25.63 c 31.159,0 56.421,25.261 56.421,56.426 v 119.538 z"
   id="path517"
   inkscape:connector-curvature="0" />
</g>
</svg>