<?xml version="1.0" encoding="UTF-8" standalone="no"?>
<!-- Generator: Adobe Illustrator 16.0.0, SVG Export Plug-In . SVG Version: 6.00 Build 0)  -->

<svg
   xmlns:dc="http://purl.org/dc/elements/1.1/"
   xmlns:cc="http://creativecommons.org/ns#"
   xmlns:rdf="http://www.w3.org/1999/02/22-rdf-syntax-ns#"
   xmlns:svg="http://www.w3.org/2000/svg"
   xmlns="http://www.w3.org/2000/svg"
   xmlns:sodipodi="http://sodipodi.sourceforge.net/DTD/sodipodi-0.dtd"
   xmlns:inkscape="http://www.inkscape.org/namespaces/inkscape"
   version="1.1"
   id="Layer_1"
   x="0px"
   y="0px"
   width="396.85101"
   height="396.849"
   viewBox="0 0 396.85102 396.84899"
   xml:space="preserve"
   sodipodi:docname="C2.svg"
   inkscape:version="0.92.5 (2060ec1f9f, 2020-04-08)"><metadata
   id="metadata611"><rdf:RDF><cc:Work
       rdf:about=""><dc:format>image/svg+xml</dc:format><dc:type
         rdf:resource="http://purl.org/dc/dcmitype/StillImage" /></cc:Work></rdf:RDF></metadata><defs
   id="defs609" /><sodipodi:namedview
   pagecolor="#ffffff"
   bordercolor="#666666"
   borderopacity="1"
   objecttolerance="10"
   gridtolerance="10"
   guidetolerance="10"
   inkscape:pageopacity="0"
   inkscape:pageshadow="2"
   inkscape:window-width="640"
   inkscape:window-height="480"
   id="namedview607"
   showgrid="false"
   inkscape:zoom="0.55503813"
   inkscape:cx="198.4255"
   inkscape:cy="198.42499"
   inkscape:window-x="0"
   inkscape:window-y="0"
   inkscape:window-maximized="0"
   inkscape:current-layer="Layer_1" />
<g
   id="CIRCLE_8_"
   transform="translate(-14.173,-14.174)">
	<path
   style="fill:#ffcd00"
   d="m 411.024,212.599 c 0,-109.587 -88.838,-198.426 -198.425,-198.425 -109.588,0 -198.426,88.838 -198.426,198.425 0,109.587 88.838,198.424 198.426,198.424 109.587,-0.001 198.425,-88.837 198.425,-198.424 z"
   id="path552"
   inkscape:connector-curvature="0" />
</g>
<g
   id="CIRCLE_9_"
   transform="translate(-14.173,-14.174)">
	<path
   style="fill:#e4002b"
   d="m 404.824,212.599 c 0,-106.163 -86.062,-192.225 -192.225,-192.225 -106.163,0 -192.224,86.062 -192.224,192.225 0,106.162 86.062,192.224 192.225,192.224 106.163,0 192.224,-86.062 192.224,-192.224 z"
   id="path555"
   inkscape:connector-curvature="0" />
</g>
<g
   id="LWPOLYLINE_11_"
   transform="translate(-14.173,-14.174)">
	<path
   style="fill:#ffcd00"
   d="M 308.5,330.422 94.774,116.697 c -52.964,65.072 -43.149,160.76 21.924,213.725 55.852,45.46 135.948,45.46 191.802,0 z"
   id="path558"
   inkscape:connector-curvature="0" />
</g>
<g
   id="CIRCLE_13_"
   transform="translate(-14.173,-14.174)">
	<path
   style="fill:#101820"
   d="m 152.446,296.921 c 0,-13.612 -11.035,-24.646 -24.646,-24.646 -13.611,0 -24.646,11.034 -24.646,24.646 0,13.611 11.035,24.646 24.646,24.646 13.611,0 24.646,-11.035 24.646,-24.646 z"
   id="path561"
   inkscape:connector-curvature="0" />
</g>
<g
   id="CIRCLE_15_"
   transform="translate(-14.173,-14.174)">
	<path
   style="fill:#101820"
   d="m 255.558,296.921 c 0,-13.612 -11.033,-24.646 -24.645,-24.646 -13.612,0 -24.647,11.034 -24.647,24.646 0,13.611 11.035,24.646 24.647,24.646 13.612,-0.001 24.645,-11.035 24.645,-24.646 z"
   id="path564"
   inkscape:connector-curvature="0" />
</g>
<g
   id="LWPOLYLINE_10_"
   transform="translate(-14.173,-14.174)">
	<path
   style="fill:#ffcd00"
   d="m 330.422,308.499 c 52.965,-65.072 43.148,-160.76 -21.923,-213.725 -55.854,-45.46 -135.949,-45.46 -191.802,0 z"
   id="path567"
   inkscape:connector-curvature="0" />
</g>
<g
   id="LWPOLYLINE_12_"
   transform="translate(-14.173,-14.174)">
	<path
   style="fill:#101820"
   d="m 295.149,190.622 c 0,2.034 1.649,3.683 3.683,3.683 h 10.312 c 2.034,0 3.683,-1.648 3.683,-3.683 V 173.648 H 295.15 v 16.974"
   id="path570"
   inkscape:connector-curvature="0" />
</g>
<g
   id="LWPOLYLINE_14_"
   transform="translate(-14.173,-14.174)">
	<path
   style="fill:#101820"
   d="m 258.188,99.344 h 36.563 c 2.942,0 5.604,1.752 6.767,4.456 l 10.336,24.033 c 0.303,0.705 0.649,1.391 1.039,2.054 l 5.645,9.605 c 0.998,1.696 1.523,3.629 1.523,5.597 v 21.038 c -0.005,1.401 -0.81,2.677 -2.07,3.285 -2.192,1.055 -4.592,1.603 -7.023,1.603 H 258.19 205.411 c -2.43,0 -4.83,-0.548 -7.021,-1.603 -1.263,-0.608 -2.067,-1.884 -2.07,-3.285 v -21.038 c 0,-1.968 0.524,-3.9 1.522,-5.597 l 5.644,-9.605 c 0.39,-0.663 0.736,-1.349 1.041,-2.054 L 214.86,103.8 c 1.162,-2.704 3.822,-4.456 6.765,-4.456 z"
   id="path573"
   inkscape:connector-curvature="0" />
</g>
<g
   id="LWPOLYLINE_15_"
   transform="translate(-14.173,-14.174)">
	<path
   style="fill:#101820"
   d="m 203.549,181.626 v -7.978 h 17.677 v 16.974 c 0,2.034 -1.646,3.683 -3.682,3.683 h -1.316 z"
   id="path576"
   inkscape:connector-curvature="0" />
</g>
<g
   id="LWPOLYLINE_19_"
   transform="translate(-14.173,-14.174)">
	<path
   style="fill:#101820"
   d="m 175.625,197.547 c -1.912,0.158 -3.788,0.611 -5.563,1.34 -4.168,1.829 -6.762,6.057 -6.503,10.602 h 7.691 0.354 l -0.354,5.146 -8.103,2.904 c -0.34,2.934 0.371,5.894 2.005,8.354 0.102,0.152 0.307,0.193 0.458,0.092 0.037,-0.024 0.068,-0.056 0.093,-0.092 l 6.075,-4.52 c 1.728,-1.285 3.629,-2.318 5.646,-3.066 2.387,-0.885 4.983,-1.028 7.452,-0.413 l 4.521,1.337 v -7.909 z"
   id="path579"
   inkscape:connector-curvature="0" />
</g>
<g
   id="CIRCLE_10_"
   transform="translate(-14.173,-14.174)">
	<path
   style="fill:#ffcd00"
   d="m 312.441,148.338 c 0,-4.756 -3.854,-8.611 -8.611,-8.611 -4.756,0 -8.61,3.855 -8.61,8.611 0,4.756 3.854,8.612 8.61,8.612 4.756,0 8.611,-3.856 8.611,-8.612 z"
   id="path582"
   inkscape:connector-curvature="0" />
</g>
<g
   id="LWPOLYLINE_13_"
   transform="translate(-14.173,-14.174)">
	<path
   style="fill:#ffcd00"
   d="m 258.188,106.709 h 34.139 c 1.471,0 2.8,0.876 3.383,2.228 l 9.951,23.141 h -47.473 -47.472 l 9.951,-23.141 c 0.581,-1.352 1.91,-2.228 3.384,-2.228 z"
   id="path585"
   inkscape:connector-curvature="0" />
</g>
<g
   id="CIRCLE_11_"
   transform="translate(-14.173,-14.174)">
	<path
   style="fill:#ffcd00"
   d="m 221.158,148.338 c 0,-4.756 -3.856,-8.611 -8.611,-8.611 -4.758,0 -8.612,3.855 -8.612,8.611 0,4.756 3.854,8.612 8.612,8.612 4.754,0 8.611,-3.856 8.611,-8.612 z"
   id="path588"
   inkscape:connector-curvature="0" />
</g>
<g
   id="LWPOLYLINE_16_"
   transform="translate(-14.173,-14.174)">
	<path
   style="fill:#ffcd00"
   d="m 231.58,150.278 h 53.271 v 3.723 c 0,0.275 -0.223,0.498 -0.498,0.498 h -52.276 c -0.275,0 -0.497,-0.223 -0.497,-0.498 z"
   id="path591"
   inkscape:connector-curvature="0" />
</g>
<g
   id="LWPOLYLINE_17_"
   transform="translate(-14.173,-14.174)">
	<path
   style="fill:#ffcd00"
   d="M 284.851,146.398 H 231.58 v -3.724 c 0,-0.274 0.222,-0.497 0.497,-0.497 h 52.276 c 0.275,0 0.498,0.223 0.498,0.497 z"
   id="path594"
   inkscape:connector-curvature="0" />
</g>
<g
   id="CIRCLE_12_"
   transform="translate(-14.173,-14.174)">
	<path
   style="fill:#ffcd00"
   d="m 143.655,296.921 c 0,-8.758 -7.099,-15.855 -15.855,-15.855 -8.756,0 -15.855,7.098 -15.855,15.855 0,8.756 7.099,15.854 15.855,15.854 8.756,0 15.855,-7.098 15.855,-15.854 z"
   id="path597"
   inkscape:connector-curvature="0" />
</g>
<g
   id="CIRCLE_14_"
   transform="translate(-14.173,-14.174)">
	<path
   style="fill:#ffcd00"
   d="m 246.768,296.921 c 0,-8.758 -7.098,-15.855 -15.854,-15.855 -8.758,0 -15.855,7.098 -15.855,15.855 0,8.756 7.098,15.854 15.855,15.854 8.756,0 15.854,-7.098 15.854,-15.854 z"
   id="path600"
   inkscape:connector-curvature="0" />
</g>
<g
   id="LWPOLYLINE_18_"
   transform="translate(-14.173,-14.174)">
	<path
   style="fill:#101820"
   d="m 239.096,261.02 c 1.104,2.72 0.624,5.826 -1.249,8.085 -15.361,-3.829 -30.919,5.519 -34.75,20.881 -1.119,4.491 -1.135,9.186 -0.047,13.683 l -35.836,-1.596 c -5.144,-0.236 -9.561,-3.735 -10.967,-8.688 -1.764,-14.187 -13.709,-24.905 -28.002,-25.127 -1.103,-0.036 -2.185,-0.308 -3.174,-0.796 -3.827,-1.892 -5.397,-6.529 -3.506,-10.357 2.72,-6.962 8.655,-12.167 15.913,-13.956 l 9.148,-2.626 c 0.083,1.579 0.244,3.152 0.483,4.716 l 20.707,-16.994 c 3.106,-2.549 6.535,-4.677 10.197,-6.33 2.947,-1.329 6.357,-1.125 9.124,0.545 0.628,0.379 1.21,0.826 1.737,1.334 l 15.322,19.878 -15.621,10.953 -14.231,-19.18 -22.696,17.222 c -1.376,1.045 -1.81,2.924 -1.027,4.466 2.288,4.333 6.548,7.276 11.409,7.885 l 2.151,-4.893 c 0.566,-1.289 1.843,-2.119 3.251,-2.115 h 22.728 l 16.113,-11.255 8.626,11.255 h 21.185 z"
   id="path603"
   inkscape:connector-curvature="0" />
</g>
</svg>