<?xml version="1.0" encoding="iso-8859-1"?>
<!-- Generator: Adobe Illustrator 16.0.0, SVG Export Plug-In . SVG Version: 6.00 Build 0)  -->
<!DOCTYPE svg PUBLIC "-//W3C//DTD SVG 1.1//EN" "http://www.w3.org/Graphics/SVG/1.1/DTD/svg11.dtd">
<svg version="1.1" id="Layer_1" xmlns="http://www.w3.org/2000/svg" xmlns:xlink="http://www.w3.org/1999/xlink" x="0px" y="0px"
	 width="425.197px" height="425.196px" viewBox="0 0 425.197 425.196" style="enable-background:new 0 0 425.197 425.196;"
	 xml:space="preserve">
<g id="CIRCLE_8_">
	<path style="fill:#FFCD00;" d="M411.024,212.599c0-109.587-88.838-198.426-198.425-198.425
		c-109.588,0-198.426,88.838-198.426,198.425s88.838,198.424,198.426,198.424C322.186,411.022,411.024,322.186,411.024,212.599
		L411.024,212.599z"/>
</g>
<g id="CIRCLE_9_">
	<path style="fill:#E4002B;" d="M404.824,212.599c0-106.163-86.062-192.225-192.225-192.225S20.375,106.436,20.375,212.599
		c0,106.162,86.062,192.224,192.225,192.224S404.824,318.761,404.824,212.599L404.824,212.599z"/>
</g>
<g id="LWPOLYLINE_11_">
	<path style="fill:#FFCD00;" d="M308.5,330.422L94.774,116.697c-52.964,65.072-43.149,160.76,21.924,213.725
		C172.55,375.882,252.646,375.882,308.5,330.422z"/>
</g>
<g id="CIRCLE_13_">
	<path style="fill:#101820;" d="M152.446,296.921c0-13.612-11.035-24.646-24.646-24.646s-24.646,11.034-24.646,24.646
		c0,13.611,11.035,24.646,24.646,24.646S152.446,310.532,152.446,296.921L152.446,296.921z"/>
</g>
<g id="CIRCLE_15_">
	<path style="fill:#101820;" d="M255.558,296.921c0-13.612-11.033-24.646-24.645-24.646c-13.612,0-24.647,11.034-24.647,24.646
		c0,13.611,11.035,24.646,24.647,24.646C244.525,321.566,255.558,310.532,255.558,296.921L255.558,296.921z"/>
</g>
<g id="LWPOLYLINE_10_">
	<path style="fill:#FFCD00;" d="M330.422,308.499c52.965-65.072,43.148-160.76-21.923-213.725
		c-55.854-45.46-135.949-45.46-191.802,0L330.422,308.499z"/>
</g>
<g id="LWPOLYLINE_12_">
	<path style="fill:#101820;" d="M295.149,190.622c0,2.034,1.649,3.683,3.683,3.683h10.312c2.034,0,3.683-1.648,3.683-3.683v-16.974
		h-17.677V190.622"/>
</g>
<g id="LWPOLYLINE_14_">
	<path style="fill:#101820;" d="M258.188,99.344h36.563c2.942,0,5.604,1.752,6.767,4.456l10.336,24.033
		c0.303,0.705,0.649,1.391,1.039,2.054l5.645,9.605c0.998,1.696,1.523,3.629,1.523,5.597v21.038c-0.005,1.401-0.81,2.677-2.07,3.285
		c-2.192,1.055-4.592,1.603-7.023,1.603h-52.778h-52.779c-2.43,0-4.83-0.548-7.021-1.603c-1.263-0.608-2.067-1.884-2.07-3.285
		v-21.038c0-1.968,0.524-3.9,1.522-5.597l5.644-9.605c0.39-0.663,0.736-1.349,1.041-2.054L214.86,103.8
		c1.162-2.704,3.822-4.456,6.765-4.456H258.188z"/>
</g>
<g id="LWPOLYLINE_15_">
	<path style="fill:#101820;" d="M203.549,181.626v-7.978h17.677v16.974c0,2.034-1.646,3.683-3.682,3.683h-1.316L203.549,181.626z"/>
</g>
<g id="LWPOLYLINE_19_">
	<path style="fill:#101820;" d="M175.625,197.547c-1.912,0.158-3.788,0.611-5.563,1.34c-4.168,1.829-6.762,6.057-6.503,10.602h7.691
		h0.354l-0.354,5.146l-8.103,2.904c-0.34,2.934,0.371,5.894,2.005,8.354c0.102,0.152,0.307,0.193,0.458,0.092
		c0.037-0.024,0.068-0.056,0.093-0.092l6.075-4.52c1.728-1.285,3.629-2.318,5.646-3.066c2.387-0.885,4.983-1.028,7.452-0.413
		l4.521,1.337v-7.909L175.625,197.547z"/>
</g>
<g id="CIRCLE_10_">
	<path style="fill:#FFCD00;" d="M312.441,148.338c0-4.756-3.854-8.611-8.611-8.611c-4.756,0-8.61,3.855-8.61,8.611
		s3.854,8.612,8.61,8.612C308.586,156.95,312.441,153.094,312.441,148.338L312.441,148.338z"/>
</g>
<g id="LWPOLYLINE_13_">
	<path style="fill:#FFCD00;" d="M258.188,106.709h34.139c1.471,0,2.8,0.876,3.383,2.228l9.951,23.141h-47.473h-47.472l9.951-23.141
		c0.581-1.352,1.91-2.228,3.384-2.228H258.188z"/>
</g>
<g id="CIRCLE_11_">
	<path style="fill:#FFCD00;" d="M221.158,148.338c0-4.756-3.856-8.611-8.611-8.611c-4.758,0-8.612,3.855-8.612,8.611
		s3.854,8.612,8.612,8.612C217.301,156.95,221.158,153.094,221.158,148.338L221.158,148.338z"/>
</g>
<g id="LWPOLYLINE_16_">
	<path style="fill:#FFCD00;" d="M231.58,150.278h53.271v3.723c0,0.275-0.223,0.498-0.498,0.498h-52.276
		c-0.275,0-0.497-0.223-0.497-0.498V150.278z"/>
</g>
<g id="LWPOLYLINE_17_">
	<path style="fill:#FFCD00;" d="M284.851,146.398H231.58v-3.724c0-0.274,0.222-0.497,0.497-0.497h52.276
		c0.275,0,0.498,0.223,0.498,0.497V146.398z"/>
</g>
<g id="CIRCLE_12_">
	<path style="fill:#FFCD00;" d="M143.655,296.921c0-8.758-7.099-15.855-15.855-15.855s-15.855,7.098-15.855,15.855
		c0,8.756,7.099,15.854,15.855,15.854S143.655,305.677,143.655,296.921L143.655,296.921z"/>
</g>
<g id="CIRCLE_14_">
	<path style="fill:#FFCD00;" d="M246.768,296.921c0-8.758-7.098-15.855-15.854-15.855c-8.758,0-15.855,7.098-15.855,15.855
		c0,8.756,7.098,15.854,15.855,15.854C239.67,312.775,246.768,305.677,246.768,296.921L246.768,296.921z"/>
</g>
<g id="LWPOLYLINE_18_">
	<path style="fill:#101820;" d="M239.096,261.02c1.104,2.72,0.624,5.826-1.249,8.085c-15.361-3.829-30.919,5.519-34.75,20.881
		c-1.119,4.491-1.135,9.186-0.047,13.683l-35.836-1.596c-5.144-0.236-9.561-3.735-10.967-8.688
		c-1.764-14.187-13.709-24.905-28.002-25.127c-1.103-0.036-2.185-0.308-3.174-0.796c-3.827-1.892-5.397-6.529-3.506-10.357
		c2.72-6.962,8.655-12.167,15.913-13.956l9.148-2.626c0.083,1.579,0.244,3.152,0.483,4.716l20.707-16.994
		c3.106-2.549,6.535-4.677,10.197-6.33c2.947-1.329,6.357-1.125,9.124,0.545c0.628,0.379,1.21,0.826,1.737,1.334l15.322,19.878
		l-15.621,10.953l-14.231-19.18l-22.696,17.222c-1.376,1.045-1.81,2.924-1.027,4.466c2.288,4.333,6.548,7.276,11.409,7.885
		l2.151-4.893c0.566-1.289,1.843-2.119,3.251-2.115h22.728l16.113-11.255l8.626,11.255h21.185L239.096,261.02z"/>
</g>
</svg>
