<?xml version="1.0" encoding="UTF-8" standalone="no"?>
<!-- Generator: Adobe Illustrator 16.0.0, SVG Export Plug-In . SVG Version: 6.00 Build 0)  -->

<svg
   xmlns:dc="http://purl.org/dc/elements/1.1/"
   xmlns:cc="http://creativecommons.org/ns#"
   xmlns:rdf="http://www.w3.org/1999/02/22-rdf-syntax-ns#"
   xmlns:svg="http://www.w3.org/2000/svg"
   xmlns="http://www.w3.org/2000/svg"
   xmlns:sodipodi="http://sodipodi.sourceforge.net/DTD/sodipodi-0.dtd"
   xmlns:inkscape="http://www.inkscape.org/namespaces/inkscape"
   version="1.1"
   id="Layer_1"
   x="0px"
   y="0px"
   width="396.849"
   height="396.85101"
   viewBox="0 0 396.84901 396.851"
   xml:space="preserve"
   sodipodi:docname="C20.svg"
   inkscape:version="0.92.5 (2060ec1f9f, 2020-04-08)"><metadata
   id="metadata639"><rdf:RDF><cc:Work
       rdf:about=""><dc:format>image/svg+xml</dc:format><dc:type
         rdf:resource="http://purl.org/dc/dcmitype/StillImage" /></cc:Work></rdf:RDF></metadata><defs
   id="defs637" /><sodipodi:namedview
   pagecolor="#ffffff"
   bordercolor="#666666"
   borderopacity="1"
   objecttolerance="10"
   gridtolerance="10"
   guidetolerance="10"
   inkscape:pageopacity="0"
   inkscape:pageshadow="2"
   inkscape:window-width="640"
   inkscape:window-height="480"
   id="namedview635"
   showgrid="false"
   inkscape:zoom="0.55503813"
   inkscape:cx="198.4245"
   inkscape:cy="198.42599"
   inkscape:window-x="0"
   inkscape:window-y="0"
   inkscape:window-maximized="0"
   inkscape:current-layer="Layer_1" />
<g
   id="CIRCLE_4_"
   transform="translate(-14.174,-14.173)">
	<path
   style="fill:#ffcd00"
   d="m 411.023,212.599 c 0,-109.588 -88.836,-198.426 -198.424,-198.426 -109.587,0 -198.425,88.838 -198.425,198.426 0,109.587 88.838,198.425 198.425,198.425 109.588,-10e-4 198.424,-88.838 198.424,-198.425 z"
   id="path613"
   inkscape:connector-curvature="0" />
</g>
<g
   id="CIRCLE_5_"
   transform="translate(-14.174,-14.173)">
	<path
   style="fill:#e4002b"
   d="m 404.824,212.599 c 0,-106.163 -86.061,-192.225 -192.225,-192.225 -106.162,0 -192.224,86.062 -192.224,192.225 0,106.163 86.062,192.224 192.224,192.224 106.164,-10e-4 192.225,-86.061 192.225,-192.224 z"
   id="path616"
   inkscape:connector-curvature="0" />
</g>
<g
   id="LWPOLYLINE_9_"
   transform="translate(-14.174,-14.173)">
	<path
   style="fill:#ffcd00"
   d="M 330.423,308.499 172.966,151.043 116.698,94.774 c 55.852,-45.461 135.95,-45.461 191.801,0 65.075,52.965 74.889,148.653 21.924,213.725 z"
   id="path619"
   inkscape:connector-curvature="0" />
</g>
<g
   id="LWPOLYLINE_13_"
   transform="translate(-14.174,-14.173)">
	<path
   style="fill:#ffcd00"
   d="m 94.775,116.697 60.078,60.079 153.647,153.646 c -55.852,45.461 -135.949,45.461 -191.801,0 C 51.626,277.458 41.81,181.77 94.775,116.697 Z"
   id="path622"
   inkscape:connector-curvature="0" />
</g>
<g
   id="LWPOLYLINE_10_"
   transform="translate(-14.174,-14.173)">
	<polygon
   style="fill:#101820"
   points="267.207,314.079 284.257,331.131 284.261,306.185 250.154,272.075 250.154,331.131 "
   id="polygon625" />
</g>
<g
   id="LWPOLYLINE_11_"
   transform="translate(-14.174,-14.173)">
	<path
   style="fill:#101820"
   d="m 138.812,160.734 c -0.008,0.432 -0.011,0.863 -0.012,1.295 l 0.003,108.208 -37.21,-37.213 v 43.847 l 54.259,54.26 54.254,-54.253 v -43.845 l -37.199,37.195 -0.001,-75.4 z"
   id="path628"
   inkscape:connector-curvature="0" />
</g>
<g
   id="LWPOLYLINE_12_"
   transform="translate(-14.174,-14.173)">
	<path
   style="fill:#101820"
   d="m 284.271,262.347 0.02,-100.22 c 0.045,-40.176 -32.488,-72.782 -72.665,-72.826 -26.267,-0.029 -50.51,14.104 -63.425,36.977 l 25.964,25.965 c 4.46,-17.024 19.863,-28.882 37.461,-28.837 21.333,0.054 38.581,17.39 38.528,38.722 v 66.102 z"
   id="path631"
   inkscape:connector-curvature="0" />
</g>
</svg>