<?xml version="1.0" encoding="iso-8859-1"?>
<!-- Generator: Adobe Illustrator 16.0.0, SVG Export Plug-In . SVG Version: 6.00 Build 0)  -->
<!DOCTYPE svg PUBLIC "-//W3C//DTD SVG 1.1//EN" "http://www.w3.org/Graphics/SVG/1.1/DTD/svg11.dtd">
<svg version="1.1" id="Layer_1" xmlns="http://www.w3.org/2000/svg" xmlns:xlink="http://www.w3.org/1999/xlink" x="0px" y="0px"
	 width="425.197px" height="425.196px" viewBox="0 0 425.197 425.196" style="enable-background:new 0 0 425.197 425.196;"
	 xml:space="preserve">
<g id="CIRCLE_4_">
	<path style="fill:#FFCD00;" d="M411.023,212.599c0-109.588-88.836-198.426-198.424-198.426
		c-109.587,0-198.425,88.838-198.425,198.426c0,109.587,88.838,198.425,198.425,198.425
		C322.187,411.023,411.023,322.186,411.023,212.599L411.023,212.599z"/>
</g>
<g id="CIRCLE_5_">
	<path style="fill:#E4002B;" d="M404.824,212.599c0-106.163-86.061-192.225-192.225-192.225
		c-106.162,0-192.224,86.062-192.224,192.225s86.062,192.224,192.224,192.224C318.763,404.822,404.824,318.762,404.824,212.599
		L404.824,212.599z"/>
</g>
<g id="LWPOLYLINE_9_">
	<path style="fill:#FFCD00;" d="M330.423,308.499L172.966,151.043l-56.268-56.269c55.852-45.461,135.95-45.461,191.801,0
		C373.574,147.739,383.388,243.427,330.423,308.499z"/>
</g>
<g id="LWPOLYLINE_13_">
	<path style="fill:#FFCD00;" d="M94.775,116.697l60.078,60.079L308.5,330.422c-55.852,45.461-135.949,45.461-191.801,0
		C51.626,277.458,41.81,181.77,94.775,116.697z"/>
</g>
<g id="LWPOLYLINE_10_">
	<polygon style="fill:#101820;" points="250.154,272.075 250.154,331.131 267.207,314.079 284.257,331.131 284.261,306.185 	"/>
</g>
<g id="LWPOLYLINE_11_">
	<path style="fill:#101820;" d="M138.812,160.734c-0.008,0.432-0.011,0.863-0.012,1.295l0.003,108.208l-37.21-37.213v43.847
		l54.259,54.26l54.254-54.253v-43.845l-37.199,37.195l-0.001-75.4L138.812,160.734z"/>
</g>
<g id="LWPOLYLINE_12_">
	<path style="fill:#101820;" d="M284.271,262.347l0.02-100.22c0.045-40.176-32.488-72.782-72.665-72.826
		c-26.267-0.029-50.51,14.104-63.425,36.977l25.964,25.965c4.46-17.024,19.863-28.882,37.461-28.837
		c21.333,0.054,38.581,17.39,38.528,38.722v66.102L284.271,262.347z"/>
</g>
</svg>
