<?xml version="1.0" encoding="UTF-8" standalone="no"?>
<!-- Generator: Adobe Illustrator 16.0.0, SVG Export Plug-In . SVG Version: 6.00 Build 0)  -->

<svg
   xmlns:dc="http://purl.org/dc/elements/1.1/"
   xmlns:cc="http://creativecommons.org/ns#"
   xmlns:rdf="http://www.w3.org/1999/02/22-rdf-syntax-ns#"
   xmlns:svg="http://www.w3.org/2000/svg"
   xmlns="http://www.w3.org/2000/svg"
   xmlns:sodipodi="http://sodipodi.sourceforge.net/DTD/sodipodi-0.dtd"
   xmlns:inkscape="http://www.inkscape.org/namespaces/inkscape"
   version="1.1"
   id="Layer_1"
   x="0px"
   y="0px"
   width="396.85001"
   height="396.84698"
   viewBox="0 0 396.85001 396.84697"
   xml:space="preserve"
   sodipodi:docname="C21.svg"
   inkscape:version="0.92.5 (2060ec1f9f, 2020-04-08)"><metadata
   id="metadata674"><rdf:RDF><cc:Work
       rdf:about=""><dc:format>image/svg+xml</dc:format><dc:type
         rdf:resource="http://purl.org/dc/dcmitype/StillImage" /></cc:Work></rdf:RDF></metadata><defs
   id="defs672" /><sodipodi:namedview
   pagecolor="#ffffff"
   bordercolor="#666666"
   borderopacity="1"
   objecttolerance="10"
   gridtolerance="10"
   guidetolerance="10"
   inkscape:pageopacity="0"
   inkscape:pageshadow="2"
   inkscape:window-width="640"
   inkscape:window-height="480"
   id="namedview670"
   showgrid="false"
   inkscape:zoom="0.55503813"
   inkscape:cx="198.4255"
   inkscape:cy="198.42399"
   inkscape:window-x="0"
   inkscape:window-y="0"
   inkscape:window-maximized="0"
   inkscape:current-layer="Layer_1" />
<g
   id="CIRCLE_6_"
   transform="translate(-14.173,-14.175)">
	<path
   style="fill:#ffcd00"
   d="m 411.023,212.6 c 0,-109.591 -88.844,-198.425 -198.428,-198.425 -109.586,0 -198.422,88.834 -198.422,198.425 0,109.581 88.836,198.422 198.422,198.422 109.584,-10e-4 198.428,-88.841 198.428,-198.422 z"
   id="path641"
   inkscape:connector-curvature="0" />
</g>
<g
   id="CIRCLE_2_"
   transform="translate(-14.173,-14.175)">
	<path
   style="fill:#e4002b"
   d="m 404.818,212.6 c 0,-106.163 -86.059,-192.226 -192.223,-192.226 -106.158,0 -192.221,86.063 -192.221,192.226 0,106.162 86.063,192.221 192.221,192.221 C 318.759,404.82 404.818,318.762 404.818,212.6 Z"
   id="path644"
   inkscape:connector-curvature="0" />
</g>
<g
   id="CIRCLE_1_"
   transform="translate(-14.173,-14.175)">
	<path
   style="fill:#ffcd00"
   d="m 364.482,212.6 c 0,-83.888 -67.996,-151.889 -151.887,-151.889 -83.883,0 -151.884,68.001 -151.884,151.889 0,83.883 68.001,151.884 151.884,151.884 83.891,-10e-4 151.887,-68.002 151.887,-151.884 z"
   id="path647"
   inkscape:connector-curvature="0" />
</g>
<g
   id="INSERT_1_"
   transform="translate(-14.173,-14.175)">
	<g
   id="LWPOLYLINE_2_">
		<path
   style="fill:#101820"
   d="m 180.315,339.687 v -55.799 h 11.159 v 2.949 c 2.568,-1.339 5.321,-2.3 8.167,-2.851 1.24,-0.133 2.492,-0.163 3.736,-0.099 3.581,0.008 7.025,1.367 9.646,3.803 4.877,-2.828 10.48,-4.153 16.105,-3.803 7.693,-0.129 14.07,5.91 14.377,13.595 l 0.053,42.204 h -11.164 v -39.431 c 0,-4.111 -3.334,-7.44 -7.438,-7.44 -4.111,0 -7.441,3.329 -7.441,7.44 v 39.431 h -11.159 v -39.431 c 0,-4.111 -3.334,-7.44 -7.44,-7.44 -4.112,0 -7.441,3.329 -7.441,7.44 v 39.431 h -11.16"
   id="path650"
   inkscape:connector-curvature="0" />
	</g>
</g>
<g
   id="LWPOLYLINE_1_"
   transform="translate(-14.173,-14.175)">
	<path
   style="fill:#101820"
   d="m 71.716,164.724 c -10.548,31.046 -10.548,64.706 0,95.751 L 119.597,212.6 Z"
   id="path654"
   inkscape:connector-curvature="0" />
</g>
<g
   id="LWPOLYLINE_8_"
   transform="translate(-14.173,-14.175)">
	<path
   style="fill:#101820"
   d="m 353.472,164.724 c 10.557,31.046 10.557,64.706 0,95.751 L 305.597,212.6 Z"
   id="path657"
   inkscape:connector-curvature="0" />
</g>
<g
   id="LWPOLYLINE_12_"
   transform="translate(-14.173,-14.175)">
	<path
   style="fill:#101820"
   d="M 200.202,258.859 H 132 v -18.6 l 46.499,-61.996 c 5.138,-6.847 3.748,-16.566 -3.099,-21.703 -2.684,-2.009 -5.944,-3.095 -9.3,-3.095 -8.561,0 -15.501,6.937 -15.501,15.497 v 6.197 H 132 v -6.197 c 0,-18.83 15.271,-34.097 34.101,-34.097 18.835,0 34.102,15.267 34.102,34.097 0,7.377 -2.394,14.558 -6.821,20.46 L 155.25,240.26 h 44.952 z"
   id="path660"
   inkscape:connector-curvature="0" />
</g>
<g
   id="LWPOLYLINE_13_"
   transform="translate(-14.173,-14.175)">
	<path
   style="fill:#101820"
   d="m 242.044,196.085 h 13.949 v -4.649 c 0,-1.505 0.299,-2.996 0.863,-4.39 2.428,-5.944 9.215,-8.8 15.156,-6.372 5.949,2.423 8.803,9.206 6.375,15.155 l -36.344,49.08 v 13.95 h 51.158 v -13.95 h -35.346 l 33.824,-44.785 c 4.795,-13.287 -2.086,-27.946 -15.369,-32.742 -13.283,-4.8 -27.941,2.082 -32.746,15.369 -1.299,3.599 -1.77,7.449 -1.385,11.258 z"
   id="path663"
   inkscape:connector-curvature="0" />
</g>
<g
   id="LWPOLYLINE_14_"
   transform="translate(-14.173,-14.175)">
	<path
   style="fill:#101820"
   d="m 209.625,274.365 14.989,-17.45 c 4.07,-3.146 4.805,-8.988 1.658,-13.048 -3.145,-4.061 -8.984,-4.804 -13.045,-1.658 -2.273,1.761 -3.603,4.479 -3.603,7.351 v 24.805 z"
   id="path666"
   inkscape:connector-curvature="0" />
</g>
</svg>