<?xml version="1.0" encoding="iso-8859-1"?>
<!-- Generator: Adobe Illustrator 16.0.0, SVG Export Plug-In . SVG Version: 6.00 Build 0)  -->
<!DOCTYPE svg PUBLIC "-//W3C//DTD SVG 1.1//EN" "http://www.w3.org/Graphics/SVG/1.1/DTD/svg11.dtd">
<svg version="1.1" id="Layer_1" xmlns="http://www.w3.org/2000/svg" xmlns:xlink="http://www.w3.org/1999/xlink" x="0px" y="0px"
	 width="425.197px" height="425.196px" viewBox="0 0 425.197 425.196" style="enable-background:new 0 0 425.197 425.196;"
	 xml:space="preserve">
<g id="CIRCLE_6_">
	<path style="fill:#FFCD00;" d="M411.023,212.6c0-109.591-88.844-198.425-198.428-198.425
		c-109.586,0-198.422,88.834-198.422,198.425c0,109.581,88.836,198.422,198.422,198.422
		C322.179,411.021,411.023,322.181,411.023,212.6L411.023,212.6z"/>
</g>
<g id="CIRCLE_2_">
	<path style="fill:#E4002B;" d="M404.818,212.6c0-106.163-86.059-192.226-192.223-192.226
		c-106.158,0-192.221,86.063-192.221,192.226c0,106.162,86.063,192.221,192.221,192.221
		C318.759,404.82,404.818,318.762,404.818,212.6L404.818,212.6z"/>
</g>
<g id="CIRCLE_1_">
	<path style="fill:#FFCD00;" d="M364.482,212.6c0-83.888-67.996-151.889-151.887-151.889c-83.883,0-151.884,68.001-151.884,151.889
		c0,83.883,68.001,151.884,151.884,151.884C296.486,364.483,364.482,296.482,364.482,212.6L364.482,212.6z"/>
</g>
<g id="INSERT_1_">
	<g id="LWPOLYLINE_2_">
		<path style="fill:#101820;" d="M180.315,339.687v-55.799h11.159v2.949c2.568-1.339,5.321-2.3,8.167-2.851
			c1.24-0.133,2.492-0.163,3.736-0.099c3.581,0.008,7.025,1.367,9.646,3.803c4.877-2.828,10.48-4.153,16.105-3.803
			c7.693-0.129,14.07,5.91,14.377,13.595l0.053,42.204h-11.164v-39.431c0-4.111-3.334-7.44-7.438-7.44
			c-4.111,0-7.441,3.329-7.441,7.44v39.431h-11.159v-39.431c0-4.111-3.334-7.44-7.44-7.44c-4.112,0-7.441,3.329-7.441,7.44v39.431
			H180.315"/>
	</g>
</g>
<g id="LWPOLYLINE_1_">
	<path style="fill:#101820;" d="M71.716,164.724c-10.548,31.046-10.548,64.706,0,95.751l47.881-47.875L71.716,164.724z"/>
</g>
<g id="LWPOLYLINE_8_">
	<path style="fill:#101820;" d="M353.472,164.724c10.557,31.046,10.557,64.706,0,95.751L305.597,212.6L353.472,164.724z"/>
</g>
<g id="LWPOLYLINE_12_">
	<path style="fill:#101820;" d="M200.202,258.859H132v-18.6l46.499-61.996c5.138-6.847,3.748-16.566-3.099-21.703
		c-2.684-2.009-5.944-3.095-9.3-3.095c-8.561,0-15.501,6.937-15.501,15.497v6.197H132v-6.197c0-18.83,15.271-34.097,34.101-34.097
		c18.835,0,34.102,15.267,34.102,34.097c0,7.377-2.394,14.558-6.821,20.46L155.25,240.26h44.952V258.859z"/>
</g>
<g id="LWPOLYLINE_13_">
	<path style="fill:#101820;" d="M242.044,196.085h13.949v-4.649c0-1.505,0.299-2.996,0.863-4.39c2.428-5.944,9.215-8.8,15.156-6.372
		c5.949,2.423,8.803,9.206,6.375,15.155l-36.344,49.08v13.95h51.158v-13.95h-35.346l33.824-44.785
		c4.795-13.287-2.086-27.946-15.369-32.742c-13.283-4.8-27.941,2.082-32.746,15.369c-1.299,3.599-1.77,7.449-1.385,11.258
		L242.044,196.085z"/>
</g>
<g id="LWPOLYLINE_14_">
	<path style="fill:#101820;" d="M209.625,274.365l14.989-17.45c4.07-3.146,4.805-8.988,1.658-13.048
		c-3.145-4.061-8.984-4.804-13.045-1.658c-2.273,1.761-3.603,4.479-3.603,7.351V274.365z"/>
</g>
</svg>
