<?xml version="1.0" encoding="iso-8859-1"?>
<!-- Generator: Adobe Illustrator 16.0.0, SVG Export Plug-In . SVG Version: 6.00 Build 0)  -->
<!DOCTYPE svg PUBLIC "-//W3C//DTD SVG 1.1//EN" "http://www.w3.org/Graphics/SVG/1.1/DTD/svg11.dtd">
<svg version="1.1" id="Layer_1" xmlns="http://www.w3.org/2000/svg" xmlns:xlink="http://www.w3.org/1999/xlink" x="0px" y="0px"
	 width="425.197px" height="425.196px" viewBox="0 0 425.197 425.196" style="enable-background:new 0 0 425.197 425.196;"
	 xml:space="preserve">
<g id="CIRCLE_2_">
	<path style="fill:#FFCD00;" d="M411.025,212.597c0-109.587-88.84-198.424-198.423-198.424
		c-109.59,0-198.429,88.837-198.429,198.424c0,109.59,88.839,198.427,198.429,198.427
		C322.185,411.023,411.025,322.187,411.025,212.597L411.025,212.597z"/>
</g>
<g id="CIRCLE_3_">
	<path style="fill:#E4002B;" d="M404.824,212.597c0-106.161-86.059-192.224-192.222-192.224
		c-106.163,0-192.227,86.063-192.227,192.224c0,106.162,86.064,192.229,192.227,192.229
		C318.765,404.825,404.824,318.759,404.824,212.597L404.824,212.597z"/>
</g>
<g id="CIRCLE_4_">
	<path style="fill:#FFCD00;" d="M364.492,212.597c0-83.886-68.006-151.888-151.89-151.888c-83.891,0-151.896,68.004-151.896,151.888
		c0,83.891,68.004,151.89,151.896,151.89C296.486,364.486,364.492,296.487,364.492,212.597L364.492,212.597z"/>
</g>
<g id="INSERT_24_">
	<g id="LWPOLYLINE_1_">
		<path style="fill:#101820;" d="M180.316,339.686v-55.798h11.158v2.951c2.567-1.341,5.318-2.298,8.17-2.852
			c1.237-0.13,2.49-0.165,3.734-0.1c3.582,0.008,7.024,1.364,9.646,3.804c4.879-2.828,10.483-4.149,16.108-3.804
			c7.686-0.127,14.072,5.914,14.371,13.599l0.055,42.199h-11.16v-39.429c0-4.107-3.334-7.442-7.447-7.442
			c-4.104,0-7.438,3.335-7.438,7.442v39.429h-11.16v-39.429c0-4.107-3.328-7.442-7.439-7.442s-7.439,3.335-7.439,7.442v39.429
			H180.316"/>
	</g>
</g>
<g id="LWPOLYLINE_4_">
	<path style="fill:#101820;" d="M71.717,164.718c-10.551,31.048-10.551,64.713,0,95.757l47.879-47.878L71.717,164.718z"/>
</g>
<g id="LWPOLYLINE_5_">
	<path style="fill:#101820;" d="M353.478,164.718c10.553,31.048,10.553,64.713,0,95.757l-47.879-47.878L353.478,164.718z"/>
</g>
<g id="LWPOLYLINE_9_">
	<path style="fill:#101820;" d="M131.992,175.162h18.606v-6.202c0-2.006,0.392-3.997,1.145-5.856
		c3.235-7.925,12.281-11.729,20.212-8.496c7.923,3.231,11.728,12.281,8.492,20.208l-48.455,65.447v18.599h68.206v-18.599h-47.125
		l45.097-59.721c6.401-17.71-2.774-37.258-20.489-43.654c-17.714-6.398-37.257,2.776-43.659,20.491
		c-1.729,4.803-2.367,9.933-1.852,15.013L131.992,175.162z"/>
</g>
<g id="LWPOLYLINE_10_">
	<path style="fill:#101820;" d="M242.042,233.289c0,14.125,11.451,25.572,25.576,25.572c14.127,0,25.578-11.447,25.578-25.572
		v-5.584c0-7.547-3.336-14.709-9.107-19.566c4.357-4.653,6.777-10.79,6.777-17.168v-1.86c0-12.842-10.404-23.248-23.248-23.248
		c-12.842,0-23.246,10.406-23.246,23.248v1.86h13.947v-1.86c0-5.134,4.166-9.299,9.299-9.299c5.135,0,9.301,4.165,9.301,9.299v1.86
		c0,6.164-4.996,11.159-11.16,11.159H263.9v13.022h3.719c6.426,0,11.629,5.207,11.629,11.624v6.514
		c0,6.421-5.203,11.623-11.629,11.623c-6.416,0-11.627-5.202-11.627-11.623H242.042z"/>
</g>
<g id="LWPOLYLINE_14_">
	<path style="fill:#101820;" d="M209.497,274.362l14.993-17.445c4.066-3.147,4.805-8.988,1.66-13.05
		c-3.15-4.058-8.99-4.803-13.049-1.656c-2.274,1.764-3.604,4.477-3.604,7.351V274.362z"/>
</g>
</svg>
