<?xml version="1.0" encoding="iso-8859-1"?>
<!-- Generator: Adobe Illustrator 16.0.0, SVG Export Plug-In . SVG Version: 6.00 Build 0)  -->
<!DOCTYPE svg PUBLIC "-//W3C//DTD SVG 1.1//EN" "http://www.w3.org/Graphics/SVG/1.1/DTD/svg11.dtd">
<svg version="1.1" id="Layer_1" xmlns="http://www.w3.org/2000/svg" xmlns:xlink="http://www.w3.org/1999/xlink" x="0px" y="0px"
	 width="425.197px" height="425.196px" viewBox="0 0 425.197 425.196" style="enable-background:new 0 0 425.197 425.196;"
	 xml:space="preserve">
<g id="CIRCLE_2_">
	<path style="fill:#FFCD00;" d="M411.025,212.6c0-109.589-88.846-198.426-198.428-198.426
		c-109.591,0-198.425,88.837-198.425,198.426c0,109.582,88.834,198.423,198.425,198.423
		C322.179,411.022,411.025,322.182,411.025,212.6L411.025,212.6z"/>
</g>
<g id="CIRCLE_3_">
	<path style="fill:#E4002B;" d="M404.819,212.6c0-106.163-86.059-192.227-192.222-192.227S20.374,106.437,20.374,212.6
		s86.061,192.222,192.224,192.222S404.819,318.763,404.819,212.6L404.819,212.6z"/>
</g>
<g id="CIRCLE_4_">
	<path style="fill:#FFCD00;" d="M364.482,212.6c0-83.888-67.997-151.89-151.885-151.89S60.712,128.712,60.712,212.6
		c0,83.883,67.997,151.885,151.885,151.885S364.482,296.482,364.482,212.6L364.482,212.6z"/>
</g>
<g id="INSERT_24_">
	<g id="LWPOLYLINE_1_">
		<path style="fill:#101820;" d="M180.312,339.688v-55.8h11.164v2.949c2.564-1.338,5.316-2.3,8.163-2.851
			c1.239-0.133,2.495-0.163,3.735-0.099c3.581,0.009,7.025,1.367,9.65,3.804c4.872-2.829,10.479-4.154,16.104-3.804
			c7.693-0.128,14.069,5.911,14.377,13.595l0.052,42.205h-11.163v-39.431c0-4.111-3.334-7.441-7.437-7.441
			c-4.112,0-7.445,3.33-7.445,7.441v39.431h-11.155v-39.431c0-4.111-3.333-7.441-7.444-7.441c-4.112,0-7.437,3.33-7.437,7.441
			v39.431H180.312"/>
	</g>
</g>
<g id="LWPOLYLINE_4_">
	<path style="fill:#101820;" d="M71.713,164.724c-10.548,31.045-10.548,64.706,0,95.752l47.884-47.876L71.713,164.724z"/>
</g>
<g id="LWPOLYLINE_5_">
	<path style="fill:#101820;" d="M353.472,164.724c10.557,31.045,10.557,64.706,0,95.752L305.596,212.6L353.472,164.724z"/>
</g>
<g id="LWPOLYLINE_9_">
	<path style="fill:#101820;" d="M131.992,175.16h18.6v-6.197c0-2.009,0.393-4,1.154-5.855c3.231-7.928,12.274-11.731,20.207-8.496
		c7.924,3.231,11.728,12.274,8.496,20.207l-48.457,65.441v18.6h68.203v-18.6h-47.116l45.089-59.715
		c6.394-17.715-2.778-37.26-20.489-43.657c-17.71-6.398-37.259,2.775-43.653,20.489c-1.735,4.804-2.376,9.937-1.855,15.014
		L131.992,175.16z"/>
</g>
<g id="LWPOLYLINE_10_">
	<path style="fill:#101820;" d="M242.318,233.285c0,14.129,11.454,25.574,25.574,25.574c14.13,0,25.575-11.445,25.575-25.574
		v-10.228c0-14.125-11.445-25.579-25.575-25.579c-3.564,0-7.094,0.748-10.351,2.192l1.982-19.86h25.575l-0.932-13.95h-37.2
		l-4.649,46.5l16.274,3.723c2.197-2.928,5.642-4.65,9.3-4.65c6.42,0,11.625,5.201,11.625,11.625v10.228
		c0,6.424-5.205,11.625-11.625,11.625c-6.419,0-11.625-5.201-11.625-11.625H242.318z"/>
</g>
<g id="LWPOLYLINE_14_">
	<path style="fill:#101820;" d="M209.605,274.365l14.993-17.45c4.061-3.146,4.804-8.988,1.658-13.048
		c-3.146-4.061-8.983-4.804-13.044-1.658c-2.273,1.761-3.607,4.479-3.607,7.351V274.365z"/>
</g>
</svg>
