<?xml version="1.0" encoding="UTF-8" standalone="no"?>
<!-- Generator: Adobe Illustrator 16.0.0, SVG Export Plug-In . SVG Version: 6.00 Build 0)  -->

<svg
   xmlns:dc="http://purl.org/dc/elements/1.1/"
   xmlns:cc="http://creativecommons.org/ns#"
   xmlns:rdf="http://www.w3.org/1999/02/22-rdf-syntax-ns#"
   xmlns:svg="http://www.w3.org/2000/svg"
   xmlns="http://www.w3.org/2000/svg"
   xmlns:sodipodi="http://sodipodi.sourceforge.net/DTD/sodipodi-0.dtd"
   xmlns:inkscape="http://www.inkscape.org/namespaces/inkscape"
   version="1.1"
   id="Layer_1"
   x="0px"
   y="0px"
   width="396.853"
   height="396.849"
   viewBox="0 0 396.85301 396.84899"
   xml:space="preserve"
   sodipodi:docname="C22_23.svg"
   inkscape:version="0.92.5 (2060ec1f9f, 2020-04-08)"><metadata
   id="metadata1441"><rdf:RDF><cc:Work
       rdf:about=""><dc:format>image/svg+xml</dc:format><dc:type
         rdf:resource="http://purl.org/dc/dcmitype/StillImage" /></cc:Work></rdf:RDF></metadata><defs
   id="defs1439" /><sodipodi:namedview
   pagecolor="#ffffff"
   bordercolor="#666666"
   borderopacity="1"
   objecttolerance="10"
   gridtolerance="10"
   guidetolerance="10"
   inkscape:pageopacity="0"
   inkscape:pageshadow="2"
   inkscape:window-width="640"
   inkscape:window-height="480"
   id="namedview1437"
   showgrid="false"
   inkscape:zoom="0.55503813"
   inkscape:cx="198.4265"
   inkscape:cy="198.42499"
   inkscape:window-x="0"
   inkscape:window-y="0"
   inkscape:window-maximized="0"
   inkscape:current-layer="Layer_1" />
<g
   id="CIRCLE_2_"
   transform="translate(-14.172,-14.174)">
	<path
   style="fill:#ffcd00"
   d="m 411.025,212.6 c 0,-109.591 -88.846,-198.426 -198.428,-198.426 -109.591,0 -198.425,88.835 -198.425,198.426 0,109.582 88.834,198.423 198.425,198.423 109.582,-0.001 198.428,-88.841 198.428,-198.423 z"
   id="path1406"
   inkscape:connector-curvature="0" />
</g>
<g
   id="CIRCLE_3_"
   transform="translate(-14.172,-14.174)">
	<path
   style="fill:#e4002b"
   d="m 404.819,212.6 c 0,-106.163 -86.059,-192.227 -192.222,-192.227 -106.163,0 -192.223,86.064 -192.223,192.227 0,106.163 86.061,192.222 192.224,192.222 106.163,0 192.221,-86.059 192.221,-192.222 z"
   id="path1409"
   inkscape:connector-curvature="0" />
</g>
<g
   id="CIRCLE_4_"
   transform="translate(-14.172,-14.174)">
	<path
   style="fill:#ffcd00"
   d="m 364.482,212.6 c 0,-83.888 -67.997,-151.89 -151.885,-151.89 -83.888,0 -151.885,68.002 -151.885,151.89 0,83.883 67.997,151.885 151.885,151.885 83.888,0 151.885,-68.003 151.885,-151.885 z"
   id="path1412"
   inkscape:connector-curvature="0" />
</g>
<g
   id="LWPOLYLINE_2_"
   transform="translate(-14.172,-14.174)">
	<path
   style="fill:#101820"
   d="m 164.721,353.475 c 31.046,10.557 64.706,10.557 95.752,0 l -47.876,-47.876 z"
   id="path1415"
   inkscape:connector-curvature="0" />
</g>
<g
   id="LWPOLYLINE_3_"
   transform="translate(-14.172,-14.174)">
	<path
   style="fill:#101820"
   d="m 164.721,71.718 c 31.046,-10.551 64.706,-10.551 95.752,0 l -47.876,47.878 z"
   id="path1418"
   inkscape:connector-curvature="0" />
</g>
<g
   id="LWPOLYLINE_10_"
   transform="translate(-14.172,-14.174)">
	<polygon
   style="fill:#101820"
   points="152.327,225.644 162.251,225.644 162.251,244.243 152.327,244.243 152.327,269.049 133.727,269.049 133.727,244.243 87.852,244.243 87.852,225.644 133.727,145.042 152.327,145.042 "
   id="polygon1421" />
</g>
<g
   id="LWPOLYLINE_12_"
   transform="translate(-14.172,-14.174)">
	<path
   style="fill:#101820"
   d="m 204.409,206.27 h 13.949 v -4.649 c 0,-1.509 0.3,-2.996 0.864,-4.39 2.427,-5.949 9.214,-8.8 15.154,-6.376 5.949,2.427 8.805,9.214 6.377,15.154 l -36.345,49.086 v 13.954 h 51.158 v -13.954 h -35.345 l 33.823,-44.786 c 4.795,-13.287 -2.086,-27.947 -15.369,-32.746 -13.283,-4.796 -27.942,2.085 -32.746,15.368 -1.3,3.604 -1.77,7.454 -1.385,11.262 z"
   id="path1424"
   inkscape:connector-curvature="0" />
</g>
<g
   id="LWPOLYLINE_13_"
   transform="translate(-14.172,-14.174)">
	<path
   style="fill:#101820"
   d="m 306.614,216.403 c -2.419,-2.039 -5.479,-3.158 -8.642,-3.158 -4.487,0.556 -8.805,2.077 -12.65,4.466 v -4.466 h -11.155 v 55.804 h 11.155 v -39.436 c 0,-4.106 3.333,-7.44 7.444,-7.44 4.104,0 7.437,3.334 7.437,7.44 v 39.436 h 11.164 v -39.436 c 0,-4.106 3.324,-7.44 7.437,-7.44 4.111,0 7.444,3.334 7.444,7.44 v 39.436 h 11.155 v -42.525 c -0.513,-7.154 -6.231,-12.825 -13.395,-13.278 -5.983,-0.767 -12.06,0.336 -17.394,3.157 z"
   id="path1427"
   inkscape:connector-curvature="0" />
</g>
<g
   id="LWPOLYLINE_16_"
   transform="translate(-14.172,-14.174)">
	<path
   style="fill:#101820"
   d="M 171.679,284.546 186.671,267.1 c 4.061,-3.146 4.805,-8.987 1.658,-13.052 -3.145,-4.061 -8.992,-4.8 -13.052,-1.654 -2.274,1.761 -3.599,4.475 -3.599,7.351 v 24.801 z"
   id="path1430"
   inkscape:connector-curvature="0" />
</g>
<g
   id="LWPOLYLINE_11_"
   transform="translate(-14.172,-14.174)">
	<polygon
   style="fill:#ffcd00"
   points="133.727,225.644 108.93,225.644 133.727,182.075 "
   id="polygon1433" />
</g>
</svg>