<?xml version="1.0" encoding="UTF-8" standalone="no"?>
<svg
   xmlns:dc="http://purl.org/dc/elements/1.1/"
   xmlns:cc="http://creativecommons.org/ns#"
   xmlns:rdf="http://www.w3.org/1999/02/22-rdf-syntax-ns#"
   xmlns:svg="http://www.w3.org/2000/svg"
   xmlns="http://www.w3.org/2000/svg"
   xmlns:sodipodi="http://sodipodi.sourceforge.net/DTD/sodipodi-0.dtd"
   xmlns:inkscape="http://www.inkscape.org/namespaces/inkscape"
   inkscape:version="1.0 (4035a4fb49, 2020-05-01)"
   sodipodi:docname="C22_blanko.svg"
   xml:space="preserve"
   viewBox="0 0 396.85301 396.851"
   height="396.85101"
   width="396.853"
   y="0px"
   x="0px"
   id="Layer_1"
   version="1.1"><metadata
   id="metadata889"><rdf:RDF><cc:Work
       rdf:about=""><dc:format>image/svg+xml</dc:format><dc:type
         rdf:resource="http://purl.org/dc/dcmitype/StillImage" /><dc:title></dc:title></cc:Work></rdf:RDF></metadata><defs
   id="defs887" /><sodipodi:namedview
   inkscape:document-rotation="0"
   inkscape:current-layer="Layer_1"
   inkscape:window-maximized="0"
   inkscape:window-y="0"
   inkscape:window-x="0"
   inkscape:cy="211.84144"
   inkscape:cx="157.48859"
   inkscape:zoom="1.5698849"
   showgrid="false"
   id="namedview885"
   inkscape:window-height="951"
   inkscape:window-width="1107"
   inkscape:pageshadow="2"
   inkscape:pageopacity="0"
   guidetolerance="10"
   gridtolerance="10"
   objecttolerance="10"
   borderopacity="1"
   bordercolor="#666666"
   pagecolor="#ffffff" />
<g
   transform="translate(-14.172,-14.173)"
   id="CIRCLE_6_">
	<path
   inkscape:connector-curvature="0"
   id="path857"
   d="m 411.025,212.596 c 0,-109.586 -88.84,-198.423 -198.425,-198.423 -109.59,0 -198.428,88.837 -198.428,198.423 0,109.59 88.838,198.428 198.428,198.428 109.585,-10e-4 198.425,-88.838 198.425,-198.428 z"
   style="fill:#ffcd00" />
</g>
<g
   transform="translate(-14.172,-14.173)"
   id="CIRCLE_2_">
	<path
   inkscape:connector-curvature="0"
   id="path860"
   d="m 404.824,212.596 c 0,-106.162 -86.059,-192.223 -192.224,-192.223 -106.163,0 -192.225,86.061 -192.225,192.223 0,106.162 86.062,192.228 192.225,192.228 106.165,0 192.224,-86.066 192.224,-192.228 z"
   style="fill:#e4002b" />
</g>
<g
   transform="translate(-14.172,-14.173)"
   id="CIRCLE_1_">
	<path
   inkscape:connector-curvature="0"
   id="path863"
   d="m 364.492,212.596 c 0,-83.883 -68.006,-151.89 -151.892,-151.89 -83.888,0 -151.894,68.007 -151.894,151.89 0,83.891 68.006,151.891 151.894,151.891 83.886,-0.001 151.892,-68.001 151.892,-151.891 z"
   style="fill:#ffcd00" />
</g>
<g
   transform="translate(-14.172,-14.173)"
   id="LWPOLYLINE_8_">
	<path
   inkscape:connector-curvature="0"
   id="path866"
   d="m 164.721,353.48 c 31.045,10.551 64.71,10.551 95.759,0 L 212.6,305.601 Z"
   style="fill:#101820" />
</g>
<g
   transform="translate(-14.172,-14.173)"
   id="LWPOLYLINE_3_">
	<path
   inkscape:connector-curvature="0"
   id="path869"
   d="m 164.721,71.719 c 31.045,-10.551 64.71,-10.551 95.759,0 l -47.88,47.875 z"
   style="fill:#101820" />
</g>


<g
   transform="translate(-14.172,-14.173)"
   id="LWPOLYLINE_1_">
	<path
   inkscape:connector-curvature="0"
   id="path878"
   d="m 303.486,216.404 c -2.42,-2.041 -5.479,-3.158 -8.645,-3.158 -4.488,0.553 -8.801,2.078 -12.643,4.461 v -4.461 h -11.166 v 55.801 h 11.166 v -39.436 c 0,-4.107 3.328,-7.439 7.439,-7.439 4.104,0 7.439,3.332 7.439,7.439 v 39.436 h 11.158 v -39.436 c 0,-4.107 3.336,-7.439 7.439,-7.439 4.111,0 7.439,3.332 7.439,7.439 v 39.436 h 11.166 l -0.008,-42.521 c -0.508,-7.15 -6.232,-12.83 -13.387,-13.279 -5.985,-0.77 -12.063,0.333 -17.397,3.157 z"
   style="fill:#101820" />
</g>

</svg>
