<?xml version="1.0" encoding="UTF-8" standalone="no"?>
<!-- Generator: Adobe Illustrator 16.0.0, SVG Export Plug-In . SVG Version: 6.00 Build 0)  -->

<svg
   xmlns:dc="http://purl.org/dc/elements/1.1/"
   xmlns:cc="http://creativecommons.org/ns#"
   xmlns:rdf="http://www.w3.org/1999/02/22-rdf-syntax-ns#"
   xmlns:svg="http://www.w3.org/2000/svg"
   xmlns="http://www.w3.org/2000/svg"
   xmlns:sodipodi="http://sodipodi.sourceforge.net/DTD/sodipodi-0.dtd"
   xmlns:inkscape="http://www.inkscape.org/namespaces/inkscape"
   version="1.1"
   id="Layer_1"
   x="0px"
   y="0px"
   width="396.85199"
   height="396.85101"
   viewBox="0 0 396.852 396.851"
   xml:space="preserve"
   sodipodi:docname="C22_2.svg"
   inkscape:version="0.92.5 (2060ec1f9f, 2020-04-08)"><metadata
   id="metadata1290"><rdf:RDF><cc:Work
       rdf:about=""><dc:format>image/svg+xml</dc:format><dc:type
         rdf:resource="http://purl.org/dc/dcmitype/StillImage" /></cc:Work></rdf:RDF></metadata><defs
   id="defs1288" /><sodipodi:namedview
   pagecolor="#ffffff"
   bordercolor="#666666"
   borderopacity="1"
   objecttolerance="10"
   gridtolerance="10"
   guidetolerance="10"
   inkscape:pageopacity="0"
   inkscape:pageshadow="2"
   inkscape:window-width="640"
   inkscape:window-height="480"
   id="namedview1286"
   showgrid="false"
   inkscape:zoom="0.55503813"
   inkscape:cx="198.4255"
   inkscape:cy="198.42599"
   inkscape:window-x="0"
   inkscape:window-y="0"
   inkscape:window-maximized="0"
   inkscape:current-layer="Layer_1" />
<g
   id="CIRCLE_3_"
   transform="translate(-14.173,-14.173)">
	<path
   style="fill:#ffcd00"
   d="m 411.025,212.597 c 0,-109.587 -88.84,-198.424 -198.423,-198.424 -109.59,0 -198.429,88.837 -198.429,198.424 0,109.59 88.839,198.427 198.429,198.427 109.583,-10e-4 198.423,-88.837 198.423,-198.427 z"
   id="path1255"
   inkscape:connector-curvature="0" />
</g>
<g
   id="CIRCLE_4_"
   transform="translate(-14.173,-14.173)">
	<path
   style="fill:#e4002b"
   d="m 404.824,212.597 c 0,-106.161 -86.059,-192.224 -192.222,-192.224 -106.163,0 -192.227,86.063 -192.227,192.224 0,106.162 86.064,192.229 192.227,192.229 106.163,-0.001 192.222,-86.067 192.222,-192.229 z"
   id="path1258"
   inkscape:connector-curvature="0" />
</g>
<g
   id="CIRCLE_5_"
   transform="translate(-14.173,-14.173)">
	<path
   style="fill:#ffcd00"
   d="m 364.492,212.597 c 0,-83.886 -68.006,-151.888 -151.89,-151.888 -83.891,0 -151.896,68.004 -151.896,151.888 0,83.891 68.004,151.89 151.896,151.89 83.884,-0.001 151.89,-68 151.89,-151.89 z"
   id="path1261"
   inkscape:connector-curvature="0" />
</g>
<g
   id="LWPOLYLINE_4_"
   transform="translate(-14.173,-14.173)">
	<path
   style="fill:#101820"
   d="m 164.723,353.48 c 31.041,10.552 64.708,10.552 95.757,0 l -47.878,-47.878 z"
   id="path1264"
   inkscape:connector-curvature="0" />
</g>
<g
   id="LWPOLYLINE_5_"
   transform="translate(-14.173,-14.173)">
	
		<path
   style="fill:#101820;stroke:#101820;stroke-width:0.7087;stroke-linecap:round;stroke-linejoin:round;stroke-miterlimit:10"
   d="m 164.723,71.718 c 31.041,-10.552 64.708,-10.552 95.757,0 l -47.878,47.876 z"
   id="path1267"
   inkscape:connector-curvature="0" />
</g>
<g
   id="LWPOLYLINE_12_"
   transform="translate(-14.173,-14.173)">
	<path
   style="fill:#101820"
   d="m 90.953,185.606 h 18.598 v -6.202 c 0,-2.005 0.392,-3.996 1.145,-5.856 3.235,-7.923 12.281,-11.728 20.212,-8.496 7.923,3.232 11.728,12.281 8.492,20.208 l -48.447,65.447 v 18.598 h 68.198 v -18.598 h -47.118 l 45.089,-59.722 c 6.402,-17.714 -2.774,-37.257 -20.488,-43.655 -17.714,-6.396 -37.258,2.778 -43.66,20.492 -1.729,4.803 -2.367,9.933 -1.852,15.013 z"
   id="path1270"
   inkscape:connector-curvature="0" />
</g>
<g
   id="LWPOLYLINE_13_"
   transform="translate(-14.173,-14.173)">
	<path
   style="fill:#101820"
   d="m 201.312,243.729 c 0,14.126 11.451,25.576 25.577,25.576 14.125,0 25.576,-11.45 25.576,-25.576 v -41.85 c 0,-14.125 -11.451,-25.576 -25.576,-25.576 -14.125,0 -25.577,11.451 -25.577,25.576 z"
   id="path1273"
   inkscape:connector-curvature="0" />
</g>
<g
   id="LWPOLYLINE_15_"
   transform="translate(-14.173,-14.173)">
	<path
   style="fill:#101820"
   d="m 303.509,216.662 c -2.414,-2.037 -5.473,-3.159 -8.639,-3.159 -4.488,0.558 -8.799,2.083 -12.641,4.465 v -4.465 h -11.168 v 55.802 h 11.168 v -39.433 c 0,-4.107 3.326,-7.438 7.438,-7.438 4.105,0 7.439,3.331 7.439,7.438 v 39.433 h 11.16 v -39.433 c 0,-4.107 3.326,-7.438 7.439,-7.438 4.111,0 7.438,3.331 7.438,7.438 v 39.433 h 11.16 v -42.518 c -0.508,-7.155 -6.232,-12.83 -13.389,-13.284 -5.985,-0.765 -12.063,0.338 -17.405,3.159 z"
   id="path1276"
   inkscape:connector-curvature="0" />
</g>
<g
   id="LWPOLYLINE_16_"
   transform="translate(-14.173,-14.173)">
	<path
   style="fill:#101820"
   d="m 168.573,284.806 15.001,-17.445 c 4.059,-3.146 4.804,-8.987 1.652,-13.049 -3.143,-4.058 -8.983,-4.804 -13.042,-1.656 -2.275,1.76 -3.612,4.477 -3.612,7.351 v 24.799 z"
   id="path1279"
   inkscape:connector-curvature="0" />
</g>
<g
   id="LWPOLYLINE_14_"
   transform="translate(-14.173,-14.173)">
	<path
   style="fill:#ffcd00"
   d="m 215.261,243.729 c 0,6.425 5.209,11.628 11.627,11.628 6.426,0 11.627,-5.203 11.627,-11.628 v -41.85 c 0,-6.42 -5.201,-11.624 -11.627,-11.624 -6.418,0 -11.627,5.203 -11.627,11.624 z"
   id="path1282"
   inkscape:connector-curvature="0" />
</g>
</svg>