<?xml version="1.0" encoding="iso-8859-1"?>
<!-- Generator: Adobe Illustrator 16.0.0, SVG Export Plug-In . SVG Version: 6.00 Build 0)  -->
<!DOCTYPE svg PUBLIC "-//W3C//DTD SVG 1.1//EN" "http://www.w3.org/Graphics/SVG/1.1/DTD/svg11.dtd">
<svg version="1.1" id="Layer_1" xmlns="http://www.w3.org/2000/svg" xmlns:xlink="http://www.w3.org/1999/xlink" x="0px" y="0px"
	 width="425.197px" height="425.196px" viewBox="0 0 425.197 425.196" style="enable-background:new 0 0 425.197 425.196;"
	 xml:space="preserve">
<g id="CIRCLE_2_">
	<path style="fill:#FFCD00;" d="M411.025,212.6c0-109.589-88.846-198.426-198.428-198.426
		c-109.591,0-198.425,88.837-198.425,198.426c0,109.582,88.834,198.423,198.425,198.423
		C322.179,411.022,411.025,322.182,411.025,212.6L411.025,212.6z"/>
</g>
<g id="CIRCLE_3_">
	<path style="fill:#E4002B;" d="M404.819,212.6c0-106.163-86.059-192.227-192.222-192.227S20.374,106.437,20.374,212.6
		s86.061,192.222,192.224,192.222S404.819,318.763,404.819,212.6L404.819,212.6z"/>
</g>
<g id="CIRCLE_4_">
	<path style="fill:#FFCD00;" d="M364.482,212.6c0-83.888-67.997-151.89-151.885-151.89S60.712,128.712,60.712,212.6
		c0,83.883,67.997,151.885,151.885,151.885S364.482,296.482,364.482,212.6L364.482,212.6z"/>
</g>
<g id="LWPOLYLINE_2_">
	<path style="fill:#101820;" d="M164.721,353.475c31.046,10.557,64.706,10.557,95.752,0l-47.876-47.876L164.721,353.475z"/>
</g>
<g id="LWPOLYLINE_3_">
	<path style="fill:#101820;" d="M164.721,71.718c31.046-10.551,64.706-10.551,95.752,0l-47.876,47.878L164.721,71.718z"/>
</g>
<g id="LWPOLYLINE_8_">
	<path style="fill:#101820;" d="M103.742,234.943c0,18.835,15.266,34.105,34.097,34.105c18.831,0,34.097-15.271,34.097-34.105
		v-7.437c0-10.065-4.445-19.617-12.138-26.097c5.804-6.206,9.043-14.386,9.043-22.887v-2.483c0-17.121-13.882-30.998-31.003-30.998
		s-31.002,13.877-31.002,30.998v2.483h18.6v-2.483c0-6.847,5.556-12.394,12.402-12.394s12.403,5.547,12.403,12.394v2.483
		c0,8.219-6.667,14.878-14.881,14.878h-2.479v17.36h4.958c8.557,0,15.497,6.94,15.497,15.506v8.676
		c0,8.564-6.94,15.501-15.497,15.501c-8.564,0-15.497-6.937-15.497-15.501H103.742z"/>
</g>
<g id="LWPOLYLINE_9_">
	<path style="fill:#101820;" d="M214.101,189.713c5.497-2.847,9.625-7.766,11.48-13.673h14.095v93.009h-13.95v-71.613l-10.223,1.859
		L214.101,189.713z"/>
</g>
<g id="LWPOLYLINE_10_">
	<path style="fill:#101820;" d="M290.723,216.403c-2.419-2.039-5.479-3.158-8.642-3.158c-4.487,0.556-8.804,2.077-12.642,4.466
		v-4.466h-11.164v55.804h11.164v-39.436c0-4.106,3.325-7.44,7.437-7.44s7.437,3.334,7.437,7.44v39.436h11.163v-39.436
		c0-4.106,3.334-7.44,7.437-7.44c4.111,0,7.445,3.334,7.445,7.44v39.436h11.154v-42.525c-0.513-7.154-6.231-12.825-13.386-13.278
		C302.134,212.479,296.057,213.582,290.723,216.403z"/>
</g>
<g id="LWPOLYLINE_13_">
	<path style="fill:#101820;" d="M181.364,284.546l14.993-17.446c4.06-3.146,4.804-8.987,1.658-13.052
		c-3.146-4.061-8.984-4.8-13.044-1.654c-2.274,1.761-3.607,4.475-3.607,7.351V284.546z"/>
</g>
</svg>
