<?xml version="1.0" encoding="iso-8859-1"?>
<!-- Generator: Adobe Illustrator 16.0.0, SVG Export Plug-In . SVG Version: 6.00 Build 0)  -->
<!DOCTYPE svg PUBLIC "-//W3C//DTD SVG 1.1//EN" "http://www.w3.org/Graphics/SVG/1.1/DTD/svg11.dtd">
<svg version="1.1" id="Layer_1" xmlns="http://www.w3.org/2000/svg" xmlns:xlink="http://www.w3.org/1999/xlink" x="0px" y="0px"
	 width="425.197px" height="425.196px" viewBox="0 0 425.197 425.196" style="enable-background:new 0 0 425.197 425.196;"
	 xml:space="preserve">
<g id="CIRCLE_2_">
	<path style="fill:#FFCD00;" d="M411.025,212.6c0-109.589-88.846-198.426-198.428-198.426
		c-109.591,0-198.425,88.837-198.425,198.426c0,109.582,88.834,198.423,198.425,198.423
		C322.179,411.022,411.025,322.182,411.025,212.6L411.025,212.6z"/>
</g>
<g id="CIRCLE_3_">
	<path style="fill:#E4002B;" d="M404.819,212.6c0-106.163-86.059-192.227-192.222-192.227S20.374,106.437,20.374,212.6
		s86.061,192.222,192.224,192.222S404.819,318.763,404.819,212.6L404.819,212.6z"/>
</g>
<g id="CIRCLE_4_">
	<path style="fill:#FFCD00;" d="M364.482,212.6c0-83.888-67.997-151.89-151.885-151.89S60.712,128.712,60.712,212.6
		c0,83.883,67.997,151.885,151.885,151.885S364.482,296.482,364.482,212.6L364.482,212.6z"/>
</g>
<g id="LWPOLYLINE_2_">
	<path style="fill:#101820;" d="M164.721,353.475c31.046,10.557,64.706,10.557,95.752,0l-47.876-47.876L164.721,353.475z"/>
</g>
<g id="LWPOLYLINE_3_">
	<path style="fill:#101820;" d="M164.721,71.718c31.046-10.551,64.706-10.551,95.752,0l-47.876,47.878L164.721,71.718z"/>
</g>
<g id="LWPOLYLINE_8_">
	<path style="fill:#101820;" d="M90.946,185.345h18.608v-6.201c0-2.009,0.385-3.996,1.146-5.855
		c3.231-7.924,12.283-11.728,20.207-8.496c7.924,3.23,11.728,12.283,8.497,20.207l-48.457,65.445v18.604h68.202v-18.604h-47.115
		l45.09-59.719c6.402-17.711-2.778-37.26-20.489-43.655c-17.711-6.396-37.26,2.775-43.653,20.491
		c-1.735,4.804-2.368,9.932-1.855,15.014L90.946,185.345z"/>
</g>
<g id="LWPOLYLINE_9_">
	<path style="fill:#101820;" d="M201.314,243.47c0,14.125,11.445,25.579,25.575,25.579c14.121,0,25.575-11.454,25.575-25.579
		v-10.228c0-14.13-11.454-25.575-25.575-25.575c-3.564,0-7.095,0.744-10.36,2.188l1.992-19.86h25.574l-0.932-13.955h-37.199
		l-4.65,46.505l16.275,3.723c2.196-2.933,5.642-4.65,9.3-4.65c6.419,0,11.625,5.201,11.625,11.625v10.228
		c0,6.424-5.206,11.625-11.625,11.625c-6.42,0-11.625-5.201-11.625-11.625H201.314z"/>
</g>
<g id="LWPOLYLINE_10_">
	<path style="fill:#101820;" d="M303.511,216.403c-2.419-2.039-5.479-3.158-8.643-3.158c-4.487,0.556-8.804,2.077-12.642,4.466
		v-4.466h-11.163v55.804h11.163v-39.436c0-4.106,3.325-7.44,7.437-7.44s7.437,3.334,7.437,7.44v39.436h11.163v-39.436
		c0-4.106,3.334-7.44,7.437-7.44c4.112,0,7.445,3.334,7.445,7.44v39.436h11.163l-0.008-42.525
		c-0.514-7.154-6.231-12.825-13.386-13.278C314.922,212.479,308.845,213.582,303.511,216.403z"/>
</g>
<g id="LWPOLYLINE_14_">
	<path style="fill:#101820;" d="M168.576,284.546l14.993-17.446c4.061-3.146,4.804-8.987,1.658-13.052
		c-3.146-4.061-8.983-4.8-13.043-1.654c-2.274,1.761-3.607,4.475-3.607,7.351V284.546z"/>
</g>
</svg>
