<?xml version="1.0" encoding="iso-8859-1"?>
<!-- Generator: Adobe Illustrator 16.0.0, SVG Export Plug-In . SVG Version: 6.00 Build 0)  -->
<!DOCTYPE svg PUBLIC "-//W3C//DTD SVG 1.1//EN" "http://www.w3.org/Graphics/SVG/1.1/DTD/svg11.dtd">
<svg version="1.1" id="Layer_1" xmlns="http://www.w3.org/2000/svg" xmlns:xlink="http://www.w3.org/1999/xlink" x="0px" y="0px"
	 width="425.197px" height="425.196px" viewBox="0 0 425.197 425.196" style="enable-background:new 0 0 425.197 425.196;"
	 xml:space="preserve">
<g id="CIRCLE_2_">
	<path style="fill:#FFCD00;" d="M411.025,212.6c0-109.591-88.846-198.426-198.428-198.426
		c-109.591,0-198.425,88.835-198.425,198.426c0,109.582,88.834,198.423,198.425,198.423
		C322.179,411.022,411.025,322.182,411.025,212.6L411.025,212.6z"/>
</g>
<g id="CIRCLE_3_">
	<path style="fill:#E4002B;" d="M404.819,212.6c0-106.163-86.059-192.227-192.222-192.227S20.374,106.437,20.374,212.6
		s86.061,192.222,192.224,192.222S404.819,318.763,404.819,212.6L404.819,212.6z"/>
</g>
<g id="CIRCLE_4_">
	<path style="fill:#FFCD00;" d="M364.482,212.6c0-83.888-67.997-151.89-151.885-151.89S60.712,128.712,60.712,212.6
		c0,83.883,67.997,151.885,151.885,151.885S364.482,296.482,364.482,212.6L364.482,212.6z"/>
</g>
<g id="LWPOLYLINE_2_">
	<path style="fill:#101820;" d="M164.721,353.475c31.046,10.557,64.706,10.557,95.752,0l-47.876-47.876L164.721,353.475z"/>
</g>
<g id="LWPOLYLINE_3_">
	<path style="fill:#101820;" d="M164.721,71.718c31.046-10.551,64.706-10.551,95.752,0l-47.876,47.878L164.721,71.718z"/>
</g>
<g id="LWPOLYLINE_10_">
	<polygon style="fill:#101820;" points="133.727,145.042 152.327,145.042 152.327,225.644 162.251,225.644 162.251,244.243 
		152.327,244.243 152.327,269.049 133.727,269.049 133.727,244.243 87.852,244.243 87.852,225.644 	"/>
</g>
<g id="LWPOLYLINE_11_">
	<path style="fill:#101820;" d="M204.409,243.47c0,14.125,11.454,25.579,25.583,25.579c14.121,0,25.575-11.454,25.575-25.579v-41.85
		c0-14.125-11.454-25.58-25.575-25.58c-14.129,0-25.583,11.455-25.583,25.58V243.47z"/>
</g>
<g id="LWPOLYLINE_13_">
	<path style="fill:#101820;" d="M306.614,216.403c-2.419-2.039-5.479-3.158-8.642-3.158c-4.487,0.556-8.805,2.077-12.65,4.466
		v-4.466h-11.155v55.804h11.155v-39.436c0-4.106,3.333-7.44,7.444-7.44c4.104,0,7.437,3.334,7.437,7.44v39.436h11.164v-39.436
		c0-4.106,3.324-7.44,7.437-7.44c4.111,0,7.444,3.334,7.444,7.44v39.436h11.155v-42.525c-0.513-7.154-6.231-12.825-13.395-13.278
		C318.025,212.479,311.948,213.582,306.614,216.403z"/>
</g>
<g id="LWPOLYLINE_17_">
	<path style="fill:#101820;" d="M171.679,284.546l14.992-17.446c4.061-3.146,4.805-8.987,1.658-13.052
		c-3.145-4.061-8.992-4.8-13.052-1.654c-2.274,1.761-3.599,4.475-3.599,7.351V284.546z"/>
</g>
<g id="LWPOLYLINE_12_">
	<path style="fill:#FFCD00;" d="M218.358,243.47c0,6.424,5.206,11.625,11.634,11.625c6.42,0,11.625-5.201,11.625-11.625v-41.85
		c0-6.424-5.205-11.625-11.625-11.625c-6.428,0-11.634,5.201-11.634,11.625V243.47z"/>
</g>
<g id="LWPOLYLINE_14_">
	<polygon style="fill:#FFCD00;" points="108.93,225.644 133.727,182.075 133.727,225.644 	"/>
</g>
</svg>
