<?xml version="1.0" encoding="UTF-8" standalone="no"?>
<!-- Generator: Adobe Illustrator 16.0.0, SVG Export Plug-In . SVG Version: 6.00 Build 0)  -->

<svg
   xmlns:dc="http://purl.org/dc/elements/1.1/"
   xmlns:cc="http://creativecommons.org/ns#"
   xmlns:rdf="http://www.w3.org/1999/02/22-rdf-syntax-ns#"
   xmlns:svg="http://www.w3.org/2000/svg"
   xmlns="http://www.w3.org/2000/svg"
   xmlns:sodipodi="http://sodipodi.sourceforge.net/DTD/sodipodi-0.dtd"
   xmlns:inkscape="http://www.inkscape.org/namespaces/inkscape"
   version="1.1"
   id="Layer_1"
   x="0px"
   y="0px"
   width="396.853"
   height="396.849"
   viewBox="0 0 396.85301 396.84899"
   xml:space="preserve"
   sodipodi:docname="C22_22.svg"
   inkscape:version="0.92.5 (2060ec1f9f, 2020-04-08)"><metadata
   id="metadata1404"><rdf:RDF><cc:Work
       rdf:about=""><dc:format>image/svg+xml</dc:format><dc:type
         rdf:resource="http://purl.org/dc/dcmitype/StillImage" /></cc:Work></rdf:RDF></metadata><defs
   id="defs1402" /><sodipodi:namedview
   pagecolor="#ffffff"
   bordercolor="#666666"
   borderopacity="1"
   objecttolerance="10"
   gridtolerance="10"
   guidetolerance="10"
   inkscape:pageopacity="0"
   inkscape:pageshadow="2"
   inkscape:window-width="640"
   inkscape:window-height="480"
   id="namedview1400"
   showgrid="false"
   inkscape:zoom="0.55503813"
   inkscape:cx="198.4265"
   inkscape:cy="198.42499"
   inkscape:window-x="0"
   inkscape:window-y="0"
   inkscape:window-maximized="0"
   inkscape:current-layer="Layer_1" />
<g
   id="CIRCLE_2_"
   transform="translate(-14.172,-14.174)">
	<path
   style="fill:#ffcd00"
   d="m 411.025,212.6 c 0,-109.591 -88.846,-198.426 -198.428,-198.426 -109.591,0 -198.425,88.835 -198.425,198.426 0,109.582 88.834,198.423 198.425,198.423 109.582,-0.001 198.428,-88.841 198.428,-198.423 z"
   id="path1369"
   inkscape:connector-curvature="0" />
</g>
<g
   id="CIRCLE_3_"
   transform="translate(-14.172,-14.174)">
	<path
   style="fill:#e4002b"
   d="m 404.819,212.6 c 0,-106.163 -86.059,-192.227 -192.222,-192.227 -106.163,0 -192.223,86.064 -192.223,192.227 0,106.163 86.061,192.222 192.224,192.222 106.163,0 192.221,-86.059 192.221,-192.222 z"
   id="path1372"
   inkscape:connector-curvature="0" />
</g>
<g
   id="CIRCLE_4_"
   transform="translate(-14.172,-14.174)">
	<path
   style="fill:#ffcd00"
   d="m 364.482,212.6 c 0,-83.888 -67.997,-151.89 -151.885,-151.89 -83.888,0 -151.885,68.002 -151.885,151.89 0,83.883 67.997,151.885 151.885,151.885 83.888,0 151.885,-68.003 151.885,-151.885 z"
   id="path1375"
   inkscape:connector-curvature="0" />
</g>
<g
   id="LWPOLYLINE_2_"
   transform="translate(-14.172,-14.174)">
	<path
   style="fill:#101820"
   d="m 164.721,353.475 c 31.046,10.557 64.706,10.557 95.752,0 l -47.876,-47.876 z"
   id="path1378"
   inkscape:connector-curvature="0" />
</g>
<g
   id="LWPOLYLINE_3_"
   transform="translate(-14.172,-14.174)">
	<path
   style="fill:#101820"
   d="m 164.721,71.718 c 31.046,-10.551 64.706,-10.551 95.752,0 l -47.876,47.878 z"
   id="path1381"
   inkscape:connector-curvature="0" />
</g>
<g
   id="LWPOLYLINE_10_"
   transform="translate(-14.172,-14.174)">
	<polygon
   style="fill:#101820"
   points="165.123,225.644 175.039,225.644 175.039,244.243 165.123,244.243 165.123,269.049 146.515,269.049 146.515,244.243 100.639,244.243 100.639,225.644 146.515,145.042 165.123,145.042 "
   id="polygon1384" />
</g>
<g
   id="LWPOLYLINE_12_"
   transform="translate(-14.172,-14.174)">
	<path
   style="fill:#101820"
   d="M 186.202,284.546 201.195,267.1 c 4.06,-3.146 4.804,-8.987 1.658,-13.052 -3.146,-4.061 -8.992,-4.8 -13.053,-1.654 -2.273,1.761 -3.599,4.475 -3.599,7.351 v 24.801 z"
   id="path1387"
   inkscape:connector-curvature="0" />
</g>
<g
   id="LWPOLYLINE_13_"
   transform="translate(-14.172,-14.174)">
	<path
   style="fill:#101820"
   d="m 217.196,189.713 c 5.496,-2.847 9.634,-7.766 11.488,-13.673 h 14.095 v 93.009 H 228.83 v -71.613 l -10.224,1.859 z"
   id="path1390"
   inkscape:connector-curvature="0" />
</g>
<g
   id="LWPOLYLINE_14_"
   transform="translate(-14.172,-14.174)">
	<path
   style="fill:#101820"
   d="m 293.827,216.403 c -2.419,-2.039 -5.479,-3.158 -8.642,-3.158 -4.488,0.556 -8.805,2.077 -12.651,4.466 v -4.466 H 261.38 v 55.804 h 11.154 v -39.436 c 0,-4.106 3.334,-7.44 7.445,-7.44 4.103,0 7.437,3.334 7.437,7.44 v 39.436 h 11.163 v -39.436 c 0,-4.106 3.325,-7.44 7.437,-7.44 4.112,0 7.445,3.334 7.445,7.44 v 39.436 h 11.155 v -42.525 c -0.513,-7.154 -6.231,-12.825 -13.395,-13.278 -5.983,-0.767 -12.061,0.336 -17.394,3.157 z"
   id="path1393"
   inkscape:connector-curvature="0" />
</g>
<g
   id="LWPOLYLINE_11_"
   transform="translate(-14.172,-14.174)">
	<polygon
   style="fill:#ffcd00"
   points="146.515,225.644 121.717,225.644 146.515,182.075 "
   id="polygon1396" />
</g>
</svg>