<?xml version="1.0" encoding="iso-8859-1"?>
<!-- Generator: Adobe Illustrator 16.0.0, SVG Export Plug-In . SVG Version: 6.00 Build 0)  -->
<!DOCTYPE svg PUBLIC "-//W3C//DTD SVG 1.1//EN" "http://www.w3.org/Graphics/SVG/1.1/DTD/svg11.dtd">
<svg version="1.1" id="Layer_1" xmlns="http://www.w3.org/2000/svg" xmlns:xlink="http://www.w3.org/1999/xlink" x="0px" y="0px"
	 width="425.197px" height="425.196px" viewBox="0 0 425.197 425.196" style="enable-background:new 0 0 425.197 425.196;"
	 xml:space="preserve">
<g id="CIRCLE_2_">
	<path style="fill:#FFCD00;" d="M411.025,212.549c0-109.589-88.846-198.425-198.428-198.425
		c-109.591,0-198.425,88.836-198.425,198.425c0,109.582,88.834,198.423,198.425,198.423
		C322.179,410.972,411.025,322.131,411.025,212.549L411.025,212.549z"/>
</g>
<g id="CIRCLE_3_">
	<path style="fill:#E4002B;" d="M404.819,212.549c0-106.163-86.059-192.226-192.222-192.226S20.374,106.386,20.374,212.549
		s86.061,192.222,192.224,192.222S404.819,318.712,404.819,212.549L404.819,212.549z"/>
</g>
<g id="CIRCLE_4_">
	<path style="fill:#FFCD00;" d="M364.482,212.549c0-83.888-67.997-151.889-151.885-151.889S60.712,128.661,60.712,212.549
		c0,83.883,67.997,151.885,151.885,151.885S364.482,296.432,364.482,212.549L364.482,212.549z"/>
</g>
<g id="LWPOLYLINE_6_">
	<path style="fill:#101820;" d="M164.721,353.424c31.046,10.557,64.706,10.557,95.752,0l-47.876-47.876L164.721,353.424z"/>
</g>
<g id="LWPOLYLINE_7_">
	<path style="fill:#101820;" d="M164.721,71.667c31.046-10.55,64.706-10.55,95.752,0l-47.876,47.878L164.721,71.667z"/>
</g>
<g id="LWPOLYLINE_8_">
	<path style="fill:#101820;" d="M90.946,185.294h18.608v-6.201c0-2.009,0.385-3.996,1.146-5.855
		c3.231-7.923,12.283-11.727,20.207-8.496s11.728,12.283,8.497,20.207l-48.457,65.445v18.604h68.202v-18.604h-47.115l45.09-59.719
		c6.402-17.711-2.778-37.259-20.489-43.655s-37.26,2.776-43.653,20.491c-1.735,4.804-2.368,9.932-1.855,15.014L90.946,185.294z"/>
</g>
<g id="LWPOLYLINE_9_">
	<path style="fill:#101820;" d="M201.314,206.219h13.95v-4.649c0-1.509,0.29-2.996,0.863-4.39c2.419-5.949,9.206-8.8,15.155-6.376
		c5.94,2.428,8.795,9.214,6.368,15.155l-36.337,49.086v13.954h51.15v-13.954h-35.346l33.824-44.786
		c4.795-13.288-2.086-27.947-15.369-32.746c-13.283-4.795-27.943,2.085-32.738,15.369c-1.308,3.603-1.777,7.454-1.393,11.261
		L201.314,206.219z"/>
</g>
<g id="LWPOLYLINE_10_">
	<path style="fill:#101820;" d="M303.511,216.353c-2.419-2.039-5.479-3.158-8.643-3.158c-4.487,0.556-8.804,2.077-12.642,4.466
		v-4.466h-11.163v55.804h11.163v-39.436c0-4.106,3.325-7.44,7.437-7.44s7.437,3.334,7.437,7.44v39.436h11.163v-39.436
		c0-4.106,3.334-7.44,7.437-7.44c4.112,0,7.445,3.334,7.445,7.44v39.436h11.163l-0.008-42.525
		c-0.514-7.154-6.231-12.825-13.386-13.278C314.922,212.429,308.845,213.531,303.511,216.353z"/>
</g>
<g id="LWPOLYLINE_14_">
	<path style="fill:#101820;" d="M168.576,284.495l14.993-17.446c4.061-3.146,4.804-8.987,1.658-13.052
		c-3.146-4.061-8.983-4.8-13.043-1.654c-2.274,1.761-3.607,4.475-3.607,7.351V284.495z"/>
</g>
</svg>
