<?xml version="1.0" encoding="UTF-8" standalone="no"?>
<!-- Generator: Adobe Illustrator 16.0.0, SVG Export Plug-In . SVG Version: 6.00 Build 0)  -->

<svg
   xmlns:dc="http://purl.org/dc/elements/1.1/"
   xmlns:cc="http://creativecommons.org/ns#"
   xmlns:rdf="http://www.w3.org/1999/02/22-rdf-syntax-ns#"
   xmlns:svg="http://www.w3.org/2000/svg"
   xmlns="http://www.w3.org/2000/svg"
   xmlns:sodipodi="http://sodipodi.sourceforge.net/DTD/sodipodi-0.dtd"
   xmlns:inkscape="http://www.inkscape.org/namespaces/inkscape"
   version="1.1"
   id="Layer_1"
   x="0px"
   y="0px"
   width="396.853"
   height="396.849"
   viewBox="0 0 396.85301 396.84899"
   xml:space="preserve"
   sodipodi:docname="C22_3.svg"
   inkscape:version="0.92.5 (2060ec1f9f, 2020-04-08)"><metadata
   id="metadata1552"><rdf:RDF><cc:Work
       rdf:about=""><dc:format>image/svg+xml</dc:format><dc:type
         rdf:resource="http://purl.org/dc/dcmitype/StillImage" /></cc:Work></rdf:RDF></metadata><defs
   id="defs1550" /><sodipodi:namedview
   pagecolor="#ffffff"
   bordercolor="#666666"
   borderopacity="1"
   objecttolerance="10"
   gridtolerance="10"
   guidetolerance="10"
   inkscape:pageopacity="0"
   inkscape:pageshadow="2"
   inkscape:window-width="640"
   inkscape:window-height="480"
   id="namedview1548"
   showgrid="false"
   inkscape:zoom="0.55503813"
   inkscape:cx="198.4265"
   inkscape:cy="198.42499"
   inkscape:window-x="0"
   inkscape:window-y="0"
   inkscape:window-maximized="0"
   inkscape:current-layer="Layer_1" />
<g
   id="CIRCLE_2_"
   transform="translate(-14.172,-14.174)">
	<path
   style="fill:#ffcd00"
   d="m 411.025,212.6 c 0,-109.589 -88.846,-198.426 -198.428,-198.426 -109.591,0 -198.425,88.837 -198.425,198.426 0,109.582 88.834,198.423 198.425,198.423 109.582,-0.001 198.428,-88.841 198.428,-198.423 z"
   id="path1520"
   inkscape:connector-curvature="0" />
</g>
<g
   id="CIRCLE_3_"
   transform="translate(-14.172,-14.174)">
	<path
   style="fill:#e4002b"
   d="m 404.819,212.6 c 0,-106.163 -86.059,-192.227 -192.222,-192.227 -106.163,0 -192.223,86.064 -192.223,192.227 0,106.163 86.061,192.222 192.224,192.222 106.163,0 192.221,-86.059 192.221,-192.222 z"
   id="path1523"
   inkscape:connector-curvature="0" />
</g>
<g
   id="CIRCLE_4_"
   transform="translate(-14.172,-14.174)">
	<path
   style="fill:#ffcd00"
   d="m 364.482,212.6 c 0,-83.888 -67.997,-151.89 -151.885,-151.89 -83.888,0 -151.885,68.002 -151.885,151.89 0,83.883 67.997,151.885 151.885,151.885 83.888,0 151.885,-68.003 151.885,-151.885 z"
   id="path1526"
   inkscape:connector-curvature="0" />
</g>
<g
   id="LWPOLYLINE_2_"
   transform="translate(-14.172,-14.174)">
	<path
   style="fill:#101820"
   d="m 164.721,353.475 c 31.046,10.557 64.706,10.557 95.752,0 l -47.876,-47.876 z"
   id="path1529"
   inkscape:connector-curvature="0" />
</g>
<g
   id="LWPOLYLINE_3_"
   transform="translate(-14.172,-14.174)">
	<path
   style="fill:#101820"
   d="m 164.721,71.718 c 31.046,-10.551 64.706,-10.551 95.752,0 l -47.876,47.878 z"
   id="path1532"
   inkscape:connector-curvature="0" />
</g>
<g
   id="LWPOLYLINE_9_"
   transform="translate(-14.172,-14.174)">
	<path
   style="fill:#101820"
   d="m 103.742,185.345 h 18.6 v -6.201 c 0,-2.009 0.385,-3.996 1.146,-5.855 3.231,-7.924 12.283,-11.728 20.207,-8.496 7.924,3.23 11.728,12.283 8.496,20.207 l -48.448,65.445 v 18.604 h 68.194 V 250.445 H 124.82 l 45.089,-59.719 c 6.402,-17.711 -2.778,-37.26 -20.489,-43.655 -17.711,-6.396 -37.26,2.775 -43.653,20.491 -1.735,4.804 -2.368,9.932 -1.855,15.014 z"
   id="path1535"
   inkscape:connector-curvature="0" />
</g>
<g
   id="LWPOLYLINE_10_"
   transform="translate(-14.172,-14.174)">
	<path
   style="fill:#101820"
   d="m 214.101,189.713 c 5.497,-2.847 9.625,-7.766 11.48,-13.673 h 14.095 v 93.009 h -13.95 v -71.613 l -10.223,1.859 z"
   id="path1538"
   inkscape:connector-curvature="0" />
</g>
<g
   id="LWPOLYLINE_11_"
   transform="translate(-14.172,-14.174)">
	<path
   style="fill:#101820"
   d="m 290.723,216.403 c -2.419,-2.039 -5.479,-3.158 -8.642,-3.158 -4.487,0.556 -8.804,2.077 -12.642,4.466 v -4.466 h -11.164 v 55.804 h 11.164 v -39.436 c 0,-4.106 3.325,-7.44 7.437,-7.44 4.112,0 7.437,3.334 7.437,7.44 v 39.436 h 11.163 v -39.436 c 0,-4.106 3.334,-7.44 7.437,-7.44 4.111,0 7.445,3.334 7.445,7.44 v 39.436 h 11.154 v -42.525 c -0.513,-7.154 -6.231,-12.825 -13.386,-13.278 -5.992,-0.767 -12.069,0.336 -17.403,3.157 z"
   id="path1541"
   inkscape:connector-curvature="0" />
</g>
<g
   id="LWPOLYLINE_14_"
   transform="translate(-14.172,-14.174)">
	<path
   style="fill:#101820"
   d="M 181.364,284.546 196.357,267.1 c 4.06,-3.146 4.804,-8.987 1.658,-13.052 -3.146,-4.061 -8.984,-4.8 -13.044,-1.654 -2.274,1.761 -3.607,4.475 -3.607,7.351 z"
   id="path1544"
   inkscape:connector-curvature="0" />
</g>
</svg>