<?xml version="1.0" encoding="UTF-8" standalone="no"?>
<!-- Generator: Adobe Illustrator 16.0.0, SVG Export Plug-In . SVG Version: 6.00 Build 0)  -->

<svg
   xmlns:dc="http://purl.org/dc/elements/1.1/"
   xmlns:cc="http://creativecommons.org/ns#"
   xmlns:rdf="http://www.w3.org/1999/02/22-rdf-syntax-ns#"
   xmlns:svg="http://www.w3.org/2000/svg"
   xmlns="http://www.w3.org/2000/svg"
   xmlns:sodipodi="http://sodipodi.sourceforge.net/DTD/sodipodi-0.dtd"
   xmlns:inkscape="http://www.inkscape.org/namespaces/inkscape"
   version="1.1"
   id="Layer_1"
   x="0px"
   y="0px"
   width="396.853"
   height="396.849"
   viewBox="0 0 396.85301 396.84899"
   xml:space="preserve"
   sodipodi:docname="C22_18.svg"
   inkscape:version="0.92.5 (2060ec1f9f, 2020-04-08)"><metadata
   id="metadata1213"><rdf:RDF><cc:Work
       rdf:about=""><dc:format>image/svg+xml</dc:format><dc:type
         rdf:resource="http://purl.org/dc/dcmitype/StillImage" /></cc:Work></rdf:RDF></metadata><defs
   id="defs1211" /><sodipodi:namedview
   pagecolor="#ffffff"
   bordercolor="#666666"
   borderopacity="1"
   objecttolerance="10"
   gridtolerance="10"
   guidetolerance="10"
   inkscape:pageopacity="0"
   inkscape:pageshadow="2"
   inkscape:window-width="640"
   inkscape:window-height="480"
   id="namedview1209"
   showgrid="false"
   inkscape:zoom="0.55503813"
   inkscape:cx="198.4265"
   inkscape:cy="198.42499"
   inkscape:window-x="0"
   inkscape:window-y="0"
   inkscape:window-maximized="0"
   inkscape:current-layer="Layer_1" />
<g
   id="CIRCLE_2_"
   transform="translate(-14.172,-14.174)">
	<path
   style="fill:#ffcd00"
   d="m 411.025,212.6 c 0,-109.589 -88.846,-198.426 -198.428,-198.426 -109.591,0 -198.425,88.837 -198.425,198.426 0,109.582 88.834,198.423 198.425,198.423 109.582,-0.001 198.428,-88.841 198.428,-198.423 z"
   id="path1181"
   inkscape:connector-curvature="0" />
</g>
<g
   id="CIRCLE_3_"
   transform="translate(-14.172,-14.174)">
	<path
   style="fill:#e4002b"
   d="m 404.819,212.6 c 0,-106.163 -86.059,-192.227 -192.222,-192.227 -106.163,0 -192.223,86.064 -192.223,192.227 0,106.163 86.061,192.222 192.224,192.222 106.163,0 192.221,-86.059 192.221,-192.222 z"
   id="path1184"
   inkscape:connector-curvature="0" />
</g>
<g
   id="CIRCLE_4_"
   transform="translate(-14.172,-14.174)">
	<path
   style="fill:#ffcd00"
   d="m 364.482,212.6 c 0,-83.888 -67.997,-151.89 -151.885,-151.89 -83.888,0 -151.885,68.002 -151.885,151.89 0,83.883 67.997,151.885 151.885,151.885 83.888,0 151.885,-68.003 151.885,-151.885 z"
   id="path1187"
   inkscape:connector-curvature="0" />
</g>
<g
   id="LWPOLYLINE_2_"
   transform="translate(-14.172,-14.174)">
	<path
   style="fill:#101820"
   d="m 164.721,353.475 c 31.046,10.557 64.706,10.557 95.752,0 l -47.876,-47.876 z"
   id="path1190"
   inkscape:connector-curvature="0" />
</g>
<g
   id="LWPOLYLINE_3_"
   transform="translate(-14.172,-14.174)">
	<path
   style="fill:#101820"
   d="m 164.721,71.718 c 31.046,-10.551 64.706,-10.551 95.752,0 l -47.876,47.878 z"
   id="path1193"
   inkscape:connector-curvature="0" />
</g>
<g
   id="LWPOLYLINE_8_"
   transform="translate(-14.172,-14.174)">
	<path
   style="fill:#101820"
   d="m 94.672,234.943 c 0,18.835 15.267,34.105 34.097,34.105 18.83,0 34.105,-15.271 34.105,-34.105 v -7.437 c 0,-10.065 -4.445,-19.617 -12.146,-26.097 5.813,-6.206 9.043,-14.386 9.043,-22.887 v -2.483 c 0,-17.121 -13.881,-30.998 -31.002,-30.998 -17.121,0 -31.003,13.877 -31.003,30.998 v 2.483 h 18.6 v -2.483 c 0,-6.847 5.556,-12.394 12.403,-12.394 6.847,0 12.403,5.547 12.403,12.394 v 2.483 c 0,8.219 -6.667,14.878 -14.882,14.878 h -2.479 v 17.36 h 4.958 c 8.565,0 15.505,6.94 15.505,15.506 v 8.676 c 0,8.564 -6.94,15.501 -15.505,15.501 -8.556,0 -15.497,-6.937 -15.497,-15.501 h -18.6 z"
   id="path1196"
   inkscape:connector-curvature="0" />
</g>
<g
   id="LWPOLYLINE_9_"
   transform="translate(-14.172,-14.174)">
	<path
   style="fill:#101820"
   d="m 205.033,176.04 v 13.955 h 30.771 c -1.462,7.462 -3.735,14.74 -6.778,21.707 -5.667,14.112 -8.582,29.182 -8.582,44.389 v 13.018 h 13.95 V 251.44 c 0,-15.515 2.949,-30.883 8.693,-45.29 3.214,-9.74 5.119,-19.865 5.658,-30.11 z"
   id="path1199"
   inkscape:connector-curvature="0" />
</g>
<g
   id="LWPOLYLINE_10_"
   transform="translate(-14.172,-14.174)">
	<path
   style="fill:#101820"
   d="m 299.792,216.403 c -2.419,-2.039 -5.479,-3.158 -8.642,-3.158 -4.487,0.556 -8.804,2.077 -12.65,4.466 v -4.466 h -11.155 v 55.804 H 278.5 v -39.436 c 0,-4.106 3.333,-7.44 7.444,-7.44 4.104,0 7.438,3.334 7.438,7.44 v 39.436 h 11.163 v -39.436 c 0,-4.106 3.333,-7.44 7.437,-7.44 4.111,0 7.445,3.334 7.445,7.44 v 39.436 h 11.154 v -42.525 c -0.513,-7.154 -6.231,-12.825 -13.386,-13.278 -5.991,-0.767 -12.069,0.336 -17.403,3.157 z"
   id="path1202"
   inkscape:connector-curvature="0" />
</g>
<g
   id="LWPOLYLINE_13_"
   transform="translate(-14.172,-14.174)">
	<path
   style="fill:#101820"
   d="M 172.294,284.546 187.287,267.1 c 4.06,-3.146 4.804,-8.987 1.658,-13.052 -3.146,-4.061 -8.983,-4.8 -13.044,-1.654 -2.274,1.761 -3.607,4.475 -3.607,7.351 z"
   id="path1205"
   inkscape:connector-curvature="0" />
</g>
</svg>