<?xml version="1.0" encoding="UTF-8" standalone="no"?>
<!-- Generator: Adobe Illustrator 16.0.0, SVG Export Plug-In . SVG Version: 6.00 Build 0)  -->

<svg
   xmlns:dc="http://purl.org/dc/elements/1.1/"
   xmlns:cc="http://creativecommons.org/ns#"
   xmlns:rdf="http://www.w3.org/1999/02/22-rdf-syntax-ns#"
   xmlns:svg="http://www.w3.org/2000/svg"
   xmlns="http://www.w3.org/2000/svg"
   xmlns:sodipodi="http://sodipodi.sourceforge.net/DTD/sodipodi-0.dtd"
   xmlns:inkscape="http://www.inkscape.org/namespaces/inkscape"
   version="1.1"
   id="Layer_1"
   x="0px"
   y="0px"
   width="396.853"
   height="396.849"
   viewBox="0 0 396.85301 396.84899"
   xml:space="preserve"
   sodipodi:docname="C22_24.svg"
   inkscape:version="0.92.5 (2060ec1f9f, 2020-04-08)"><metadata
   id="metadata1478"><rdf:RDF><cc:Work
       rdf:about=""><dc:format>image/svg+xml</dc:format><dc:type
         rdf:resource="http://purl.org/dc/dcmitype/StillImage" /></cc:Work></rdf:RDF></metadata><defs
   id="defs1476" /><sodipodi:namedview
   pagecolor="#ffffff"
   bordercolor="#666666"
   borderopacity="1"
   objecttolerance="10"
   gridtolerance="10"
   guidetolerance="10"
   inkscape:pageopacity="0"
   inkscape:pageshadow="2"
   inkscape:window-width="640"
   inkscape:window-height="480"
   id="namedview1474"
   showgrid="false"
   inkscape:zoom="0.55503813"
   inkscape:cx="198.4265"
   inkscape:cy="198.42499"
   inkscape:window-x="0"
   inkscape:window-y="0"
   inkscape:window-maximized="0"
   inkscape:current-layer="Layer_1" />
<g
   id="CIRCLE_2_"
   transform="translate(-14.172,-14.174)">
	<path
   style="fill:#ffcd00"
   d="m 411.025,212.6 c 0,-109.591 -88.846,-198.426 -198.428,-198.426 -109.591,0 -198.425,88.835 -198.425,198.426 0,109.582 88.834,198.423 198.425,198.423 109.582,-0.001 198.428,-88.841 198.428,-198.423 z"
   id="path1443"
   inkscape:connector-curvature="0" />
</g>
<g
   id="CIRCLE_3_"
   transform="translate(-14.172,-14.174)">
	<path
   style="fill:#e4002b"
   d="m 404.819,212.6 c 0,-106.163 -86.059,-192.227 -192.222,-192.227 -106.163,0 -192.223,86.064 -192.223,192.227 0,106.163 86.061,192.222 192.224,192.222 106.163,0 192.221,-86.059 192.221,-192.222 z"
   id="path1446"
   inkscape:connector-curvature="0" />
</g>
<g
   id="CIRCLE_4_"
   transform="translate(-14.172,-14.174)">
	<path
   style="fill:#ffcd00"
   d="m 364.482,212.6 c 0,-83.888 -67.997,-151.89 -151.885,-151.89 -83.888,0 -151.885,68.002 -151.885,151.89 0,83.883 67.997,151.885 151.885,151.885 83.888,0 151.885,-68.003 151.885,-151.885 z"
   id="path1449"
   inkscape:connector-curvature="0" />
</g>
<g
   id="LWPOLYLINE_2_"
   transform="translate(-14.172,-14.174)">
	<path
   style="fill:#101820"
   d="m 164.721,353.475 c 31.046,10.557 64.706,10.557 95.752,0 l -47.876,-47.876 z"
   id="path1452"
   inkscape:connector-curvature="0" />
</g>
<g
   id="LWPOLYLINE_3_"
   transform="translate(-14.172,-14.174)">
	<path
   style="fill:#101820"
   d="m 164.721,71.718 c 31.046,-10.551 64.706,-10.551 95.752,0 l -47.876,47.878 z"
   id="path1455"
   inkscape:connector-curvature="0" />
</g>
<g
   id="LWPOLYLINE_9_"
   transform="translate(-14.172,-14.174)">
	<polygon
   style="fill:#101820"
   points="152.327,225.644 162.251,225.644 162.251,244.243 152.327,244.243 152.327,269.049 133.727,269.049 133.727,244.243 87.852,244.243 87.852,225.644 133.727,145.042 152.327,145.042 "
   id="polygon1458" />
</g>
<g
   id="LWPOLYLINE_11_"
   transform="translate(-14.172,-14.174)">
	<path
   style="fill:#101820"
   d="m 204.409,243.47 c 0,14.125 11.454,25.579 25.583,25.579 14.121,0 25.575,-11.454 25.575,-25.579 v -5.577 c 0,-7.548 -3.334,-14.711 -9.112,-19.575 4.359,-4.649 6.787,-10.787 6.787,-17.163 v -1.859 c 0,-12.843 -10.411,-23.255 -23.25,-23.255 -12.848,0 -23.258,10.412 -23.258,23.255 v 1.859 h 13.949 v -1.859 c 0,-5.138 4.172,-9.3 9.309,-9.3 5.129,0 9.3,4.162 9.3,9.3 v 1.859 c 0,6.163 -5,11.163 -11.163,11.163 h -1.863 v 13.019 h 3.727 c 6.42,0 11.625,5.205 11.625,11.625 v 6.509 c 0,6.424 -5.205,11.625 -11.625,11.625 -6.428,0 -11.634,-5.201 -11.634,-11.625 h -13.95 z"
   id="path1461"
   inkscape:connector-curvature="0" />
</g>
<g
   id="LWPOLYLINE_12_"
   transform="translate(-14.172,-14.174)">
	<path
   style="fill:#101820"
   d="m 306.614,216.403 c -2.419,-2.039 -5.479,-3.158 -8.642,-3.158 -4.487,0.556 -8.805,2.077 -12.65,4.466 v -4.466 h -11.155 v 55.804 h 11.155 v -39.436 c 0,-4.106 3.333,-7.44 7.444,-7.44 4.104,0 7.437,3.334 7.437,7.44 v 39.436 h 11.164 v -39.436 c 0,-4.106 3.324,-7.44 7.437,-7.44 4.111,0 7.444,3.334 7.444,7.44 v 39.436 h 11.155 v -42.525 c -0.513,-7.154 -6.231,-12.825 -13.395,-13.278 -5.983,-0.767 -12.06,0.336 -17.394,3.157 z"
   id="path1464"
   inkscape:connector-curvature="0" />
</g>
<g
   id="LWPOLYLINE_15_"
   transform="translate(-14.172,-14.174)">
	<path
   style="fill:#101820"
   d="M 171.679,284.546 186.671,267.1 c 4.061,-3.146 4.805,-8.987 1.658,-13.052 -3.145,-4.061 -8.992,-4.8 -13.052,-1.654 -2.274,1.761 -3.599,4.475 -3.599,7.351 v 24.801 z"
   id="path1467"
   inkscape:connector-curvature="0" />
</g>
<g
   id="LWPOLYLINE_10_"
   transform="translate(-14.172,-14.174)">
	<polygon
   style="fill:#ffcd00"
   points="133.727,225.644 108.93,225.644 133.727,182.075 "
   id="polygon1470" />
</g>
</svg>