<?xml version="1.0" encoding="UTF-8" standalone="no"?>
<!-- Generator: Adobe Illustrator 16.0.0, SVG Export Plug-In . SVG Version: 6.00 Build 0)  -->

<svg
   xmlns:dc="http://purl.org/dc/elements/1.1/"
   xmlns:cc="http://creativecommons.org/ns#"
   xmlns:rdf="http://www.w3.org/1999/02/22-rdf-syntax-ns#"
   xmlns:svg="http://www.w3.org/2000/svg"
   xmlns="http://www.w3.org/2000/svg"
   xmlns:sodipodi="http://sodipodi.sourceforge.net/DTD/sodipodi-0.dtd"
   xmlns:inkscape="http://www.inkscape.org/namespaces/inkscape"
   version="1.1"
   id="Layer_1"
   x="0px"
   y="0px"
   width="396.853"
   height="396.84799"
   viewBox="0 0 396.85301 396.84798"
   xml:space="preserve"
   sodipodi:docname="C22_4.svg"
   inkscape:version="0.92.5 (2060ec1f9f, 2020-04-08)"><metadata
   id="metadata1586"><rdf:RDF><cc:Work
       rdf:about=""><dc:format>image/svg+xml</dc:format><dc:type
         rdf:resource="http://purl.org/dc/dcmitype/StillImage" /></cc:Work></rdf:RDF></metadata><defs
   id="defs1584" /><sodipodi:namedview
   pagecolor="#ffffff"
   bordercolor="#666666"
   borderopacity="1"
   objecttolerance="10"
   gridtolerance="10"
   guidetolerance="10"
   inkscape:pageopacity="0"
   inkscape:pageshadow="2"
   inkscape:window-width="640"
   inkscape:window-height="480"
   id="namedview1582"
   showgrid="false"
   inkscape:zoom="0.55503813"
   inkscape:cx="198.4265"
   inkscape:cy="198.37399"
   inkscape:window-x="0"
   inkscape:window-y="0"
   inkscape:window-maximized="0"
   inkscape:current-layer="Layer_1" />
<g
   id="CIRCLE_2_"
   transform="translate(-14.172,-14.124)">
	<path
   style="fill:#ffcd00"
   d="m 411.025,212.549 c 0,-109.589 -88.846,-198.425 -198.428,-198.425 -109.591,0 -198.425,88.836 -198.425,198.425 0,109.582 88.834,198.423 198.425,198.423 109.582,0 198.428,-88.841 198.428,-198.423 z"
   id="path1554"
   inkscape:connector-curvature="0" />
</g>
<g
   id="CIRCLE_3_"
   transform="translate(-14.172,-14.124)">
	<path
   style="fill:#e4002b"
   d="m 404.819,212.549 c 0,-106.163 -86.059,-192.226 -192.222,-192.226 -106.163,0 -192.223,86.063 -192.223,192.226 0,106.163 86.061,192.222 192.224,192.222 106.163,0 192.221,-86.059 192.221,-192.222 z"
   id="path1557"
   inkscape:connector-curvature="0" />
</g>
<g
   id="CIRCLE_4_"
   transform="translate(-14.172,-14.124)">
	<path
   style="fill:#ffcd00"
   d="m 364.482,212.549 c 0,-83.888 -67.997,-151.889 -151.885,-151.889 -83.888,0 -151.885,68.001 -151.885,151.889 0,83.883 67.997,151.885 151.885,151.885 83.888,0 151.885,-68.002 151.885,-151.885 z"
   id="path1560"
   inkscape:connector-curvature="0" />
</g>
<g
   id="LWPOLYLINE_6_"
   transform="translate(-14.172,-14.124)">
	<path
   style="fill:#101820"
   d="m 164.721,353.424 c 31.046,10.557 64.706,10.557 95.752,0 l -47.876,-47.876 z"
   id="path1563"
   inkscape:connector-curvature="0" />
</g>
<g
   id="LWPOLYLINE_7_"
   transform="translate(-14.172,-14.124)">
	<path
   style="fill:#101820"
   d="m 164.721,71.667 c 31.046,-10.55 64.706,-10.55 95.752,0 l -47.876,47.878 z"
   id="path1566"
   inkscape:connector-curvature="0" />
</g>
<g
   id="LWPOLYLINE_8_"
   transform="translate(-14.172,-14.124)">
	<path
   style="fill:#101820"
   d="m 90.946,185.294 h 18.608 v -6.201 c 0,-2.009 0.385,-3.996 1.146,-5.855 3.231,-7.923 12.283,-11.727 20.207,-8.496 7.924,3.231 11.728,12.283 8.497,20.207 l -48.457,65.445 v 18.604 h 68.202 v -18.604 h -47.115 l 45.09,-59.719 c 6.402,-17.711 -2.778,-37.259 -20.489,-43.655 -17.711,-6.396 -37.26,2.776 -43.653,20.491 -1.735,4.804 -2.368,9.932 -1.855,15.014 z"
   id="path1569"
   inkscape:connector-curvature="0" />
</g>
<g
   id="LWPOLYLINE_9_"
   transform="translate(-14.172,-14.124)">
	<path
   style="fill:#101820"
   d="m 201.314,206.219 h 13.95 v -4.649 c 0,-1.509 0.29,-2.996 0.863,-4.39 2.419,-5.949 9.206,-8.8 15.155,-6.376 5.94,2.428 8.795,9.214 6.368,15.155 l -36.337,49.086 v 13.954 h 51.15 v -13.954 h -35.346 l 33.824,-44.786 c 4.795,-13.288 -2.086,-27.947 -15.369,-32.746 -13.283,-4.795 -27.943,2.085 -32.738,15.369 -1.308,3.603 -1.777,7.454 -1.393,11.261 z"
   id="path1572"
   inkscape:connector-curvature="0" />
</g>
<g
   id="LWPOLYLINE_10_"
   transform="translate(-14.172,-14.124)">
	<path
   style="fill:#101820"
   d="m 303.511,216.353 c -2.419,-2.039 -5.479,-3.158 -8.643,-3.158 -4.487,0.556 -8.804,2.077 -12.642,4.466 v -4.466 h -11.163 v 55.804 h 11.163 v -39.436 c 0,-4.106 3.325,-7.44 7.437,-7.44 4.112,0 7.437,3.334 7.437,7.44 v 39.436 h 11.163 v -39.436 c 0,-4.106 3.334,-7.44 7.437,-7.44 4.112,0 7.445,3.334 7.445,7.44 v 39.436 h 11.163 L 334.3,226.474 c -0.514,-7.154 -6.231,-12.825 -13.386,-13.278 -5.992,-0.767 -12.069,0.335 -17.403,3.157 z"
   id="path1575"
   inkscape:connector-curvature="0" />
</g>
<g
   id="LWPOLYLINE_14_"
   transform="translate(-14.172,-14.124)">
	<path
   style="fill:#101820"
   d="m 168.576,284.495 14.993,-17.446 c 4.061,-3.146 4.804,-8.987 1.658,-13.052 -3.146,-4.061 -8.983,-4.8 -13.043,-1.654 -2.274,1.761 -3.607,4.475 -3.607,7.351 v 24.801 z"
   id="path1578"
   inkscape:connector-curvature="0" />
</g>
</svg>