<?xml version="1.0" encoding="UTF-8" standalone="no"?>
<!-- Generator: Adobe Illustrator 16.0.0, SVG Export Plug-In . SVG Version: 6.00 Build 0)  -->

<svg
   xmlns:dc="http://purl.org/dc/elements/1.1/"
   xmlns:cc="http://creativecommons.org/ns#"
   xmlns:rdf="http://www.w3.org/1999/02/22-rdf-syntax-ns#"
   xmlns:svg="http://www.w3.org/2000/svg"
   xmlns="http://www.w3.org/2000/svg"
   xmlns:sodipodi="http://sodipodi.sourceforge.net/DTD/sodipodi-0.dtd"
   xmlns:inkscape="http://www.inkscape.org/namespaces/inkscape"
   version="1.1"
   id="Layer_1"
   x="0px"
   y="0px"
   width="396.85199"
   height="396.85101"
   viewBox="0 0 396.852 396.851"
   xml:space="preserve"
   sodipodi:docname="C22_9.svg"
   inkscape:version="0.92.5 (2060ec1f9f, 2020-04-08)"><metadata
   id="metadata1762"><rdf:RDF><cc:Work
       rdf:about=""><dc:format>image/svg+xml</dc:format><dc:type
         rdf:resource="http://purl.org/dc/dcmitype/StillImage" /></cc:Work></rdf:RDF></metadata><defs
   id="defs1760" /><sodipodi:namedview
   pagecolor="#ffffff"
   bordercolor="#666666"
   borderopacity="1"
   objecttolerance="10"
   gridtolerance="10"
   guidetolerance="10"
   inkscape:pageopacity="0"
   inkscape:pageshadow="2"
   inkscape:window-width="640"
   inkscape:window-height="480"
   id="namedview1758"
   showgrid="false"
   inkscape:zoom="0.55503813"
   inkscape:cx="198.4255"
   inkscape:cy="198.42599"
   inkscape:window-x="0"
   inkscape:window-y="0"
   inkscape:window-maximized="0"
   inkscape:current-layer="Layer_1" />
<g
   id="CIRCLE_2_"
   transform="translate(-14.173,-14.173)">
	<path
   style="fill:#ffcd00"
   d="m 411.025,212.597 c 0,-109.587 -88.84,-198.424 -198.423,-198.424 -109.59,0 -198.429,88.837 -198.429,198.424 0,109.59 88.839,198.427 198.429,198.427 109.583,-10e-4 198.423,-88.837 198.423,-198.427 z"
   id="path1730"
   inkscape:connector-curvature="0" />
</g>
<g
   id="CIRCLE_3_"
   transform="translate(-14.173,-14.173)">
	<path
   style="fill:#e4002b"
   d="m 404.824,212.597 c 0,-106.161 -86.059,-192.224 -192.222,-192.224 -106.163,0 -192.227,86.063 -192.227,192.224 0,106.162 86.064,192.229 192.227,192.229 106.163,-0.001 192.222,-86.067 192.222,-192.229 z"
   id="path1733"
   inkscape:connector-curvature="0" />
</g>
<g
   id="CIRCLE_4_"
   transform="translate(-14.173,-14.173)">
	<path
   style="fill:#ffcd00"
   d="m 364.492,212.597 c 0,-83.886 -68.006,-151.888 -151.89,-151.888 -83.891,0 -151.896,68.004 -151.896,151.888 0,83.891 68.004,151.89 151.896,151.89 83.884,-0.001 151.89,-68 151.89,-151.89 z"
   id="path1736"
   inkscape:connector-curvature="0" />
</g>
<g
   id="LWPOLYLINE_2_"
   transform="translate(-14.173,-14.173)">
	<path
   style="fill:#101820"
   d="m 164.723,353.48 c 31.041,10.552 64.708,10.552 95.757,0 l -47.878,-47.878 z"
   id="path1739"
   inkscape:connector-curvature="0" />
</g>
<g
   id="LWPOLYLINE_3_"
   transform="translate(-14.173,-14.173)">
	<path
   style="fill:#101820"
   d="m 164.723,71.718 c 31.041,-10.552 64.708,-10.552 95.757,0 l -47.878,47.876 z"
   id="path1742"
   inkscape:connector-curvature="0" />
</g>
<g
   id="LWPOLYLINE_8_"
   transform="translate(-14.173,-14.173)">
	<path
   style="fill:#101820"
   d="m 94.673,185.345 h 18.598 v -6.202 c 0,-2.006 0.392,-3.996 1.146,-5.856 3.235,-7.923 12.281,-11.728 20.212,-8.496 7.923,3.236 11.728,12.281 8.492,20.208 l -48.447,65.446 v 18.603 h 68.198 v -18.603 h -47.118 l 45.089,-59.717 c 6.402,-17.714 -2.774,-37.261 -20.488,-43.657 -17.714,-6.398 -37.258,2.776 -43.66,20.49 -1.729,4.803 -2.367,9.933 -1.852,15.013 z"
   id="path1745"
   inkscape:connector-curvature="0" />
</g>
<g
   id="LWPOLYLINE_9_"
   transform="translate(-14.173,-14.173)">
	<path
   style="fill:#101820"
   d="m 205.031,176.045 v 13.949 h 30.771 c -1.459,7.462 -3.727,14.74 -6.77,21.711 -5.672,14.109 -8.584,29.177 -8.584,44.386 v 13.022 h 13.947 v -17.672 c 0,-15.513 2.951,-30.883 8.693,-45.289 3.219,-9.741 5.117,-19.866 5.656,-30.107 z"
   id="path1748"
   inkscape:connector-curvature="0" />
</g>
<g
   id="LWPOLYLINE_10_"
   transform="translate(-14.173,-14.173)">
	<path
   style="fill:#101820"
   d="m 299.791,216.404 c -2.414,-2.04 -5.473,-3.158 -8.639,-3.158 -4.488,0.553 -8.799,2.078 -12.65,4.461 v -4.461 h -11.158 v 55.802 h 11.158 v -39.437 c 0,-4.107 3.336,-7.439 7.447,-7.439 4.104,0 7.439,3.332 7.439,7.439 v 39.437 h 11.158 v -39.437 c 0,-4.107 3.328,-7.439 7.439,-7.439 4.111,0 7.439,3.332 7.439,7.439 v 39.437 h 11.158 v -42.522 c -0.514,-7.15 -6.232,-12.83 -13.387,-13.279 -5.985,-0.769 -12.065,0.333 -17.404,3.157 z"
   id="path1751"
   inkscape:connector-curvature="0" />
</g>
<g
   id="LWPOLYLINE_14_"
   transform="translate(-14.173,-14.173)">
	<path
   style="fill:#101820"
   d="M 172.293,284.545 187.294,267.1 c 4.059,-3.147 4.804,-8.988 1.652,-13.05 -3.143,-4.058 -8.983,-4.803 -13.041,-1.656 -2.275,1.764 -3.612,4.477 -3.612,7.352 z"
   id="path1754"
   inkscape:connector-curvature="0" />
</g>
</svg>