<?xml version="1.0" encoding="iso-8859-1"?>
<!-- Generator: Adobe Illustrator 16.0.0, SVG Export Plug-In . SVG Version: 6.00 Build 0)  -->
<!DOCTYPE svg PUBLIC "-//W3C//DTD SVG 1.1//EN" "http://www.w3.org/Graphics/SVG/1.1/DTD/svg11.dtd">
<svg version="1.1" id="Layer_1" xmlns="http://www.w3.org/2000/svg" xmlns:xlink="http://www.w3.org/1999/xlink" x="0px" y="0px"
	 width="425.197px" height="425.196px" viewBox="0 0 425.197 425.196" style="enable-background:new 0 0 425.197 425.196;"
	 xml:space="preserve">
<g id="CIRCLE_3_">
	<path style="fill:#FFCD00;" d="M411.025,212.601c0-109.589-88.842-198.429-198.425-198.429
		c-109.588,0-198.428,88.84-198.428,198.429c0,109.584,88.84,198.424,198.428,198.424
		C322.183,411.024,411.025,322.185,411.025,212.601L411.025,212.601z"/>
</g>
<g id="CIRCLE_4_">
	<path style="fill:#E4002B;" d="M404.824,212.601c0-106.165-86.063-192.226-192.224-192.226
		c-106.164,0-192.226,86.061-192.226,192.226c0,106.164,86.062,192.226,192.226,192.226
		C318.761,404.826,404.824,318.765,404.824,212.601L404.824,212.601z"/>
</g>
<g id="CIRCLE_5_">
	<path style="fill:#FFCD00;" d="M364.486,212.601c0-83.887-67.998-151.89-151.886-151.89c-83.886,0-151.893,68.003-151.893,151.89
		c0,83.886,68.006,151.889,151.893,151.889C296.488,364.489,364.486,296.486,364.486,212.601L364.486,212.601z"/>
</g>
<g id="LWPOLYLINE_6_">
	<polygon style="fill:#101820;" points="112.465,305.514 75.257,268.355 112.458,231.104 	"/>
</g>
<g id="LWPOLYLINE_7_">
	<path style="fill:#101820;" d="M126.1,255.224h11.16v-3.72c0-1.203,0.235-2.398,0.688-3.513c1.941-4.758,7.371-7.041,12.129-5.096
		c4.754,1.937,7.037,7.366,5.096,12.12L126.1,294.292v11.16h40.925v-11.16h-28.277l27.059-35.836
		c3.839-10.63-1.664-22.359-12.294-26.198c-10.63-3.836-22.359,1.668-26.198,12.298c-1.038,2.882-1.418,5.96-1.11,9.008
		L126.1,255.224z"/>
</g>
<g id="LWPOLYLINE_8_">
	<path style="fill:#101820;" d="M179.426,284.988c0,11.302,9.162,20.464,20.464,20.464c11.298,0,20.458-9.162,20.458-20.464v-33.484
		c0-11.299-9.16-20.461-20.458-20.461c-11.302,0-20.464,9.162-20.464,20.461V284.988z"/>
</g>
<g id="LWPOLYLINE_10_">
	<path style="fill:#101820;" d="M268.302,252.803c-2.412-2.037-5.473-3.159-8.639-3.159c-4.488,0.554-8.809,2.079-12.652,4.466
		v-4.466h-11.16v55.809h11.16v-39.438c0-4.112,3.336-7.44,7.441-7.44c4.111,0,7.447,3.328,7.447,7.44v39.438h11.16v-39.438
		c0-4.112,3.328-7.44,7.439-7.44c4.113,0,7.441,3.328,7.441,7.44v39.438h11.16l-0.008-42.527
		c-0.508-7.151-6.227-12.828-13.381-13.281C279.716,248.875,273.644,249.981,268.302,252.803z"/>
</g>
<g id="LWPOLYLINE_11_">
	<polygon style="fill:#101820;" points="312.736,305.514 349.945,268.355 312.744,231.104 	"/>
</g>
<g id="ELLIPSE_2_">
	<path style="fill:#101820;" d="M129.962,209.364c0-8.692-7.044-15.737-15.737-15.737s-15.741,7.045-15.741,15.737
		c0,8.693,7.048,15.741,15.741,15.741S129.962,218.058,129.962,209.364"/>
</g>
<g id="ELLIPSE_3_">
	<path style="fill:#101820;" d="M287.242,209.418c0-8.692-7.049-15.741-15.742-15.741s-15.74,7.049-15.74,15.741
		c0,8.693,7.047,15.737,15.74,15.737S287.242,218.111,287.242,209.418"/>
</g>
<g id="LWPOLYLINE_17_">
	<path style="fill:#101820;" d="M148.209,192.797h17.674v-5.896h-17.674v-54.778h185.925v56.631h-24.289v5.888h17.672v14.772
		l-36.971,0.023c0.162-10.519-8.232-19.177-18.754-19.338c-10.516-0.162-19.17,8.231-19.33,18.75
		c-0.008,0.181-0.008,0.357-0.008,0.534H133.268c0.161-10.515-8.232-19.177-18.75-19.338c-10.519-0.162-19.173,8.231-19.338,18.754
		c0,0.191,0,0.392,0,0.584h-9.078l0.004-32.751l13.773-30.067h42.466v46.231H148.209z"/>
</g>
<g id="LWPOLYLINE_9_">
	<path style="fill:#FFCD00;" d="M190.586,284.988c0,5.138,4.166,9.304,9.304,9.304c5.134,0,9.3-4.166,9.3-9.304v-33.484
		c0-5.135-4.166-9.301-9.3-9.301c-5.138,0-9.304,4.166-9.304,9.301V284.988z"/>
</g>
<g id="LWPOLYLINE_16_">
	<polygon style="fill:#FFCD00;" points="131.534,152.514 104.391,152.514 93.922,175.365 131.534,175.365 	"/>
</g>
</svg>
