<?xml version="1.0" encoding="iso-8859-1"?>
<!-- Generator: Adobe Illustrator 16.0.0, SVG Export Plug-In . SVG Version: 6.00 Build 0)  -->
<!DOCTYPE svg PUBLIC "-//W3C//DTD SVG 1.1//EN" "http://www.w3.org/Graphics/SVG/1.1/DTD/svg11.dtd">
<svg version="1.1" id="Layer_1" xmlns="http://www.w3.org/2000/svg" xmlns:xlink="http://www.w3.org/1999/xlink" x="0px" y="0px"
	 width="425.197px" height="425.196px" viewBox="0 0 425.197 425.196" style="enable-background:new 0 0 425.197 425.196;"
	 xml:space="preserve">
<g id="CIRCLE_2_">
	<path style="fill:#FFCD00;" d="M411.025,212.601c0-109.588-88.84-198.428-198.428-198.428S14.172,103.013,14.172,212.601
		c0,109.583,88.837,198.423,198.425,198.423S411.025,322.184,411.025,212.601L411.025,212.601z"/>
</g>
<g id="CIRCLE_3_">
	<path style="fill:#E4002B;" d="M404.818,212.601c0-106.164-86.062-192.228-192.221-192.228
		c-106.16,0-192.223,86.063-192.223,192.228c0,106.159,86.063,192.221,192.223,192.221
		C318.756,404.821,404.818,318.76,404.818,212.601L404.818,212.601z"/>
</g>
<g id="CIRCLE_4_">
	<path style="fill:#FFCD00;" d="M364.485,212.601c0-83.89-67.998-151.892-151.888-151.892S60.709,128.71,60.709,212.601
		c0,83.881,67.998,151.887,151.888,151.887S364.485,296.481,364.485,212.601L364.485,212.601z"/>
</g>
<g id="LWPOLYLINE_5_">
	<polygon style="fill:#101820;" points="112.464,305.514 75.251,268.355 112.456,231.104 	"/>
</g>
<g id="LWPOLYLINE_8_">
	<polygon style="fill:#101820;" points="312.73,305.514 349.943,268.355 312.738,231.104 	"/>
</g>
<g id="LWPOLYLINE_14_">
	<path style="fill:#101820;" d="M261.48,252.802c-2.42-2.039-5.48-3.159-8.644-3.159c-4.488,0.556-8.806,2.077-12.644,4.462v-4.462
		h-11.165v55.807h11.165v-39.436c0-4.112,3.325-7.442,7.438-7.442s7.446,3.33,7.446,7.442v39.436h11.156v-39.436
		c0-4.112,3.334-7.442,7.445-7.442c4.104,0,7.438,3.33,7.438,7.442v39.436h11.165l-0.009-42.521
		c-0.513-7.155-6.231-12.832-13.387-13.285C272.892,248.873,266.814,249.976,261.48,252.802z"/>
</g>
<g id="LWPOLYLINE_15_">
	<path style="fill:#101820;" d="M132.666,241.974c4.402-2.273,7.702-6.215,9.19-10.934h11.276v74.409h-11.165v-57.294l-8.172,1.487
		L132.666,241.974z"/>
</g>
<g id="LWPOLYLINE_16_">
	<polygon style="fill:#101820;" points="196.415,231.04 207.579,231.04 207.579,279.405 213.529,279.405 213.529,290.565 
		207.579,290.565 207.579,305.449 196.415,305.449 196.415,290.565 168.878,290.565 168.878,279.405 	"/>
</g>
<g id="LWPOLYLINE_17_">
	<polygon style="fill:#FFCD00;" points="181.531,279.405 196.415,253.259 196.415,279.405 	"/>
</g>
<g id="ELLIPSE_2_">
	<path style="fill:#101820;" d="M129.962,209.364c0-8.692-7.044-15.737-15.737-15.737s-15.741,7.045-15.741,15.737
		c0,8.693,7.048,15.741,15.741,15.741S129.962,218.058,129.962,209.364"/>
</g>
<g id="ELLIPSE_3_">
	<path style="fill:#101820;" d="M287.242,209.418c0-8.692-7.049-15.741-15.742-15.741s-15.74,7.049-15.74,15.741
		c0,8.693,7.047,15.737,15.74,15.737S287.242,218.111,287.242,209.418"/>
</g>
<g id="LWPOLYLINE_2_">
	<path style="fill:#101820;" d="M148.209,192.797h17.674v-5.896h-17.674v-54.778h185.925v56.631h-24.289v5.888h17.672v14.772
		l-36.971,0.023c0.162-10.519-8.232-19.177-18.754-19.338c-10.516-0.162-19.17,8.231-19.33,18.75
		c-0.008,0.181-0.008,0.357-0.008,0.534H133.268c0.161-10.515-8.232-19.177-18.75-19.338c-10.519-0.162-19.173,8.231-19.338,18.754
		c0,0.191,0,0.392,0,0.584h-9.078l0.004-32.751l13.773-30.067h42.466v46.231H148.209z"/>
</g>
<g id="LWPOLYLINE_1_">
	<polygon style="fill:#FFCD00;" points="131.534,152.514 104.391,152.514 93.922,175.365 131.534,175.365 	"/>
</g>
</svg>
