<?xml version="1.0" encoding="UTF-8" standalone="no"?>
<!-- Generator: Adobe Illustrator 16.0.0, SVG Export Plug-In . SVG Version: 6.00 Build 0)  -->

<svg
   xmlns:dc="http://purl.org/dc/elements/1.1/"
   xmlns:cc="http://creativecommons.org/ns#"
   xmlns:rdf="http://www.w3.org/1999/02/22-rdf-syntax-ns#"
   xmlns:svg="http://www.w3.org/2000/svg"
   xmlns="http://www.w3.org/2000/svg"
   xmlns:sodipodi="http://sodipodi.sourceforge.net/DTD/sodipodi-0.dtd"
   xmlns:inkscape="http://www.inkscape.org/namespaces/inkscape"
   version="1.1"
   id="Layer_1"
   x="0px"
   y="0px"
   width="396.853"
   height="396.85101"
   viewBox="0 0 396.85301 396.851"
   xml:space="preserve"
   sodipodi:docname="C23_6.svg"
   inkscape:version="0.92.5 (2060ec1f9f, 2020-04-08)"><metadata
   id="metadata2029"><rdf:RDF><cc:Work
       rdf:about=""><dc:format>image/svg+xml</dc:format><dc:type
         rdf:resource="http://purl.org/dc/dcmitype/StillImage" /></cc:Work></rdf:RDF></metadata><defs
   id="defs2027" /><sodipodi:namedview
   pagecolor="#ffffff"
   bordercolor="#666666"
   borderopacity="1"
   objecttolerance="10"
   gridtolerance="10"
   guidetolerance="10"
   inkscape:pageopacity="0"
   inkscape:pageshadow="2"
   inkscape:window-width="640"
   inkscape:window-height="480"
   id="namedview2025"
   showgrid="false"
   inkscape:zoom="0.55503813"
   inkscape:cx="198.4265"
   inkscape:cy="198.42599"
   inkscape:window-x="0"
   inkscape:window-y="0"
   inkscape:window-maximized="0"
   inkscape:current-layer="Layer_1" />
<g
   id="CIRCLE_2_"
   transform="translate(-14.172,-14.173)">
	<path
   style="fill:#ffcd00"
   d="m 411.025,212.601 c 0,-109.588 -88.84,-198.428 -198.428,-198.428 -109.588,0 -198.425,88.84 -198.425,198.428 0,109.583 88.837,198.423 198.425,198.423 109.588,0 198.428,-88.84 198.428,-198.423 z"
   id="path1982"
   inkscape:connector-curvature="0" />
</g>
<g
   id="CIRCLE_3_"
   transform="translate(-14.172,-14.173)">
	<path
   style="fill:#e4002b"
   d="m 404.818,212.601 c 0,-106.164 -86.062,-192.228 -192.221,-192.228 -106.16,0 -192.223,86.063 -192.223,192.228 0,106.159 86.063,192.221 192.223,192.221 106.159,-10e-4 192.221,-86.062 192.221,-192.221 z"
   id="path1985"
   inkscape:connector-curvature="0" />
</g>
<g
   id="CIRCLE_4_"
   transform="translate(-14.172,-14.173)">
	<path
   style="fill:#ffcd00"
   d="m 364.485,212.601 c 0,-83.89 -67.998,-151.892 -151.888,-151.892 -83.89,0 -151.888,68.001 -151.888,151.892 0,83.881 67.998,151.887 151.888,151.887 83.89,0 151.888,-68.007 151.888,-151.887 z"
   id="path1988"
   inkscape:connector-curvature="0" />
</g>
<g
   id="LWPOLYLINE_5_"
   transform="translate(-14.172,-14.173)">
	<polygon
   style="fill:#101820"
   points="112.456,231.104 112.464,305.514 75.251,268.355 "
   id="polygon1991" />
</g>
<g
   id="LWPOLYLINE_8_"
   transform="translate(-14.172,-14.173)">
	<polygon
   style="fill:#101820"
   points="312.738,231.104 312.73,305.514 349.943,268.355 "
   id="polygon1994" />
</g>
<g
   id="LWPOLYLINE_12_"
   transform="translate(-14.172,-14.173)">
	<path
   style="fill:#101820"
   d="m 259.625,252.802 c -2.42,-2.039 -5.48,-3.159 -8.643,-3.159 -4.488,0.556 -8.806,2.077 -12.652,4.462 v -4.462 h -11.156 v 55.807 h 11.156 v -39.436 c 0,-4.112 3.334,-7.442 7.445,-7.442 4.104,0 7.438,3.33 7.438,7.442 v 39.436 h 11.165 v -39.436 c 0,-4.112 3.325,-7.442 7.438,-7.442 4.113,0 7.438,3.33 7.438,7.442 v 39.436 h 11.165 l -0.009,-42.521 c -0.504,-7.155 -6.224,-12.832 -13.388,-13.285 -5.985,-0.771 -12.064,0.332 -17.397,3.158 z"
   id="path1997"
   inkscape:connector-curvature="0" />
</g>
<g
   id="LWPOLYLINE_13_"
   transform="translate(-14.172,-14.173)">
	<path
   style="fill:#101820"
   d="m 134.777,241.974 c 4.394,-2.273 7.703,-6.215 9.19,-10.934 h 11.276 v 74.409 h -11.165 v -57.294 l -8.181,1.487 z"
   id="path2000"
   inkscape:connector-curvature="0" />
</g>
<g
   id="LWPOLYLINE_18_"
   transform="translate(-14.172,-14.173)">
	<path
   style="fill:#101820"
   d="m 177.197,264.859 c -4.121,3.868 -6.455,9.267 -6.455,14.918 v 5.206 c 0,11.302 9.165,20.466 20.466,20.466 11.302,0 20.458,-9.164 20.458,-20.466 v -5.206 c 0,-5.651 -2.334,-11.05 -6.455,-14.918 2.967,-3.39 4.6,-7.741 4.6,-12.242 v -2.975 c 0,-10.276 -8.335,-18.603 -18.603,-18.603 -10.275,0 -18.602,8.326 -18.602,18.603 v 2.975 c -0.001,4.501 1.633,8.853 4.591,12.242 z"
   id="path2003"
   inkscape:connector-curvature="0" />
</g>
<g
   id="LWPOLYLINE_17_"
   transform="translate(-14.172,-14.173)">
	<path
   style="fill:#ffcd00"
   d="m 181.907,284.983 c 0,5.138 4.163,9.301 9.301,9.301 5.138,0 9.302,-4.163 9.302,-9.301 v -5.206 c 0,-5.138 -4.164,-9.302 -9.302,-9.302 -5.138,0 -9.301,4.164 -9.301,9.302 z"
   id="path2006"
   inkscape:connector-curvature="0" />
</g>
<g
   id="LWPOLYLINE_19_"
   transform="translate(-14.172,-14.173)">
	<path
   style="fill:#ffcd00"
   d="m 183.762,249.643 v 2.975 c 0,4.112 3.334,7.442 7.445,7.442 4.104,0 7.438,-3.33 7.438,-7.442 v -2.975 c 0,-4.112 -3.334,-7.442 -7.438,-7.442 -4.111,-0.001 -7.445,3.329 -7.445,7.442 z"
   id="path2009"
   inkscape:connector-curvature="0" />
</g>
<g
   id="ELLIPSE_2_"
   transform="translate(-14.172,-14.173)">
	<path
   style="fill:#101820"
   d="m 129.962,209.364 c 0,-8.692 -7.044,-15.737 -15.737,-15.737 -8.693,0 -15.741,7.045 -15.741,15.737 0,8.693 7.048,15.741 15.741,15.741 8.693,0 15.737,-7.047 15.737,-15.741"
   id="path2012"
   inkscape:connector-curvature="0" />
</g>
<g
   id="ELLIPSE_3_"
   transform="translate(-14.172,-14.173)">
	<path
   style="fill:#101820"
   d="m 287.242,209.418 c 0,-8.692 -7.049,-15.741 -15.742,-15.741 -8.693,0 -15.74,7.049 -15.74,15.741 0,8.693 7.047,15.737 15.74,15.737 8.693,0 15.742,-7.044 15.742,-15.737"
   id="path2015"
   inkscape:connector-curvature="0" />
</g>
<g
   id="LWPOLYLINE_1_"
   transform="translate(-14.172,-14.173)">
	<path
   style="fill:#101820"
   d="m 148.209,192.797 h 17.674 v -5.896 h -17.674 v -54.778 h 185.925 v 56.631 h -24.289 v 5.888 h 17.672 v 14.772 l -36.971,0.023 c 0.162,-10.519 -8.232,-19.177 -18.754,-19.338 -10.516,-0.162 -19.17,8.231 -19.33,18.75 -0.008,0.181 -0.008,0.357 -0.008,0.534 H 133.268 c 0.161,-10.515 -8.232,-19.177 -18.75,-19.338 -10.519,-0.162 -19.173,8.231 -19.338,18.754 0,0.191 0,0.392 0,0.584 h -9.078 l 0.004,-32.751 13.773,-30.067 h 42.466 v 46.231 h 5.864 z"
   id="path2018"
   inkscape:connector-curvature="0" />
</g>
<g
   id="LWPOLYLINE_16_"
   transform="translate(-14.172,-14.173)">
	<polygon
   style="fill:#ffcd00"
   points="93.922,175.365 131.534,175.365 131.534,152.514 104.391,152.514 "
   id="polygon2021" />
</g>
</svg>