<?xml version="1.0" encoding="UTF-8" standalone="no"?>
<!-- Generator: Adobe Illustrator 16.0.0, SVG Export Plug-In . SVG Version: 6.00 Build 0)  -->

<svg
   xmlns:dc="http://purl.org/dc/elements/1.1/"
   xmlns:cc="http://creativecommons.org/ns#"
   xmlns:rdf="http://www.w3.org/1999/02/22-rdf-syntax-ns#"
   xmlns:svg="http://www.w3.org/2000/svg"
   xmlns="http://www.w3.org/2000/svg"
   xmlns:sodipodi="http://sodipodi.sourceforge.net/DTD/sodipodi-0.dtd"
   xmlns:inkscape="http://www.inkscape.org/namespaces/inkscape"
   version="1.1"
   id="Layer_1"
   x="0px"
   y="0px"
   width="396.853"
   height="396.85101"
   viewBox="0 0 396.85301 396.851"
   xml:space="preserve"
   sodipodi:docname="C23_8.svg"
   inkscape:version="0.92.5 (2060ec1f9f, 2020-04-08)"><metadata
   id="metadata2118"><rdf:RDF><cc:Work
       rdf:about=""><dc:format>image/svg+xml</dc:format><dc:type
         rdf:resource="http://purl.org/dc/dcmitype/StillImage" /></cc:Work></rdf:RDF></metadata><defs
   id="defs2116" /><sodipodi:namedview
   pagecolor="#ffffff"
   bordercolor="#666666"
   borderopacity="1"
   objecttolerance="10"
   gridtolerance="10"
   guidetolerance="10"
   inkscape:pageopacity="0"
   inkscape:pageshadow="2"
   inkscape:window-width="640"
   inkscape:window-height="480"
   id="namedview2114"
   showgrid="false"
   inkscape:zoom="0.55503813"
   inkscape:cx="198.4265"
   inkscape:cy="198.42599"
   inkscape:window-x="0"
   inkscape:window-y="0"
   inkscape:window-maximized="0"
   inkscape:current-layer="Layer_1" />
<g
   id="CIRCLE_2_"
   transform="translate(-14.172,-14.173)">
	<path
   style="fill:#ffcd00"
   d="m 411.025,212.601 c 0,-109.59 -88.84,-198.428 -198.428,-198.428 -109.588,0 -198.425,88.837 -198.425,198.428 0,109.583 88.837,198.423 198.425,198.423 109.588,0 198.428,-88.84 198.428,-198.423 z"
   id="path2074"
   inkscape:connector-curvature="0" />
</g>
<g
   id="CIRCLE_3_"
   transform="translate(-14.172,-14.173)">
	<path
   style="fill:#e4002b"
   d="m 404.818,212.601 c 0,-106.164 -86.062,-192.228 -192.221,-192.228 -106.16,0 -192.223,86.063 -192.223,192.228 0,106.159 86.063,192.221 192.223,192.221 106.159,-10e-4 192.221,-86.062 192.221,-192.221 z"
   id="path2077"
   inkscape:connector-curvature="0" />
</g>
<g
   id="CIRCLE_4_"
   transform="translate(-14.172,-14.173)">
	<path
   style="fill:#ffcd00"
   d="m 364.485,212.601 c 0,-83.89 -67.998,-151.892 -151.888,-151.892 -83.89,0 -151.888,68.001 -151.888,151.892 0,83.881 67.998,151.887 151.888,151.887 83.89,0 151.888,-68.007 151.888,-151.887 z"
   id="path2080"
   inkscape:connector-curvature="0" />
</g>
<g
   id="LWPOLYLINE_6_"
   transform="translate(-14.172,-14.173)">
	<polygon
   style="fill:#101820"
   points="112.456,231.104 112.464,305.514 75.251,268.355 "
   id="polygon2083" />
</g>
<g
   id="LWPOLYLINE_9_"
   transform="translate(-14.172,-14.173)">
	<polygon
   style="fill:#101820"
   points="312.738,231.104 312.73,305.514 349.943,268.355 "
   id="polygon2086" />
</g>
<g
   id="LWPOLYLINE_14_"
   transform="translate(-14.172,-14.173)">
	<path
   style="fill:#101820"
   d="m 124.86,255.225 h 11.156 v -3.723 c 0,-1.201 0.239,-2.398 0.692,-3.514 1.94,-4.758 7.369,-7.04 12.123,-5.1 4.762,1.94 7.044,7.369 5.104,12.127 l -29.075,39.273 v 11.16 h 40.923 v -11.16 h -28.28 l 27.066,-35.837 c 3.838,-10.631 -1.667,-22.359 -12.302,-26.198 -10.626,-3.838 -22.355,1.667 -26.194,12.298 -1.043,2.885 -1.419,5.963 -1.111,9.011 z"
   id="path2089"
   inkscape:connector-curvature="0" />
</g>
<g
   id="LWPOLYLINE_15_"
   transform="translate(-14.172,-14.173)">
	<path
   style="fill:#101820"
   d="m 269.541,252.802 c -2.41,-2.039 -5.471,-3.159 -8.634,-3.159 -4.497,0.556 -8.806,2.077 -12.652,4.462 v -4.462 H 237.09 v 55.807 h 11.165 v -39.436 c 0,-4.112 3.334,-7.442 7.438,-7.442 4.112,0 7.446,3.33 7.446,7.442 v 39.436 h 11.156 v -39.436 c 0,-4.112 3.334,-7.442 7.445,-7.442 4.104,0 7.438,3.33 7.438,7.442 v 39.436 h 11.165 l -0.009,-42.521 c -0.504,-7.155 -6.231,-12.832 -13.387,-13.285 -5.985,-0.771 -12.072,0.332 -17.406,3.158 z"
   id="path2092"
   inkscape:connector-curvature="0" />
</g>
<g
   id="LWPOLYLINE_16_"
   transform="translate(-14.172,-14.173)">
	<polygon
   style="fill:#101820"
   points="215.64,279.405 221.59,279.405 221.59,290.565 215.64,290.565 215.64,305.449 204.476,305.449 204.476,290.565 176.949,290.565 176.949,279.405 204.476,231.04 215.64,231.04 "
   id="polygon2095" />
</g>
<g
   id="LWPOLYLINE_17_"
   transform="translate(-14.172,-14.173)">
	<polygon
   style="fill:#ffcd00"
   points="204.476,279.405 189.592,279.405 204.476,253.259 "
   id="polygon2098" />
</g>
<g
   id="ELLIPSE_2_"
   transform="translate(-14.172,-14.173)">
	<path
   style="fill:#101820"
   d="m 129.962,209.364 c 0,-8.692 -7.044,-15.737 -15.737,-15.737 -8.693,0 -15.741,7.045 -15.741,15.737 0,8.693 7.048,15.741 15.741,15.741 8.693,0 15.737,-7.047 15.737,-15.741"
   id="path2101"
   inkscape:connector-curvature="0" />
</g>
<g
   id="ELLIPSE_3_"
   transform="translate(-14.172,-14.173)">
	<path
   style="fill:#101820"
   d="m 287.242,209.418 c 0,-8.692 -7.049,-15.741 -15.742,-15.741 -8.693,0 -15.74,7.049 -15.74,15.741 0,8.693 7.047,15.737 15.74,15.737 8.693,0 15.742,-7.044 15.742,-15.737"
   id="path2104"
   inkscape:connector-curvature="0" />
</g>
<g
   id="LWPOLYLINE_2_"
   transform="translate(-14.172,-14.173)">
	<path
   style="fill:#101820"
   d="m 148.209,192.797 h 17.674 v -5.896 h -17.674 v -54.778 h 185.925 v 56.631 h -24.289 v 5.888 h 17.672 v 14.772 l -36.971,0.023 c 0.162,-10.519 -8.232,-19.177 -18.754,-19.338 -10.516,-0.162 -19.17,8.231 -19.33,18.75 -0.008,0.181 -0.008,0.357 -0.008,0.534 H 133.268 c 0.161,-10.515 -8.232,-19.177 -18.75,-19.338 -10.519,-0.162 -19.173,8.231 -19.338,18.754 0,0.191 0,0.392 0,0.584 h -9.078 l 0.004,-32.751 13.773,-30.067 h 42.466 v 46.231 h 5.864 z"
   id="path2107"
   inkscape:connector-curvature="0" />
</g>
<g
   id="LWPOLYLINE_1_"
   transform="translate(-14.172,-14.173)">
	<polygon
   style="fill:#ffcd00"
   points="93.922,175.365 131.534,175.365 131.534,152.514 104.391,152.514 "
   id="polygon2110" />
</g>
</svg>