<?xml version="1.0" encoding="iso-8859-1"?>
<!-- Generator: Adobe Illustrator 16.0.0, SVG Export Plug-In . SVG Version: 6.00 Build 0)  -->
<!DOCTYPE svg PUBLIC "-//W3C//DTD SVG 1.1//EN" "http://www.w3.org/Graphics/SVG/1.1/DTD/svg11.dtd">
<svg version="1.1" id="Layer_1" xmlns="http://www.w3.org/2000/svg" xmlns:xlink="http://www.w3.org/1999/xlink" x="0px" y="0px"
	 width="425.197px" height="425.196px" viewBox="0 0 425.197 425.196" style="enable-background:new 0 0 425.197 425.196;"
	 xml:space="preserve">
<g id="CIRCLE_3_">
	<path style="fill:#FFCD00;" d="M411.025,212.601c0-109.59-88.84-198.428-198.428-198.428S14.172,103.01,14.172,212.601
		c0,109.583,88.837,198.423,198.425,198.423S411.025,322.184,411.025,212.601L411.025,212.601z"/>
</g>
<g id="CIRCLE_4_">
	<path style="fill:#E4002B;" d="M404.818,212.601c0-106.164-86.062-192.226-192.221-192.226
		c-106.16,0-192.223,86.062-192.223,192.226c0,106.159,86.063,192.221,192.223,192.221
		C318.756,404.821,404.818,318.76,404.818,212.601L404.818,212.601z"/>
</g>
<g id="CIRCLE_5_">
	<path style="fill:#FFCD00;" d="M364.519,212.601c0-83.907-68.023-151.922-151.922-151.922
		c-83.907,0-151.922,68.015-151.922,151.922c0,83.898,68.023,151.917,151.922,151.917S364.519,296.499,364.519,212.601
		L364.519,212.601z"/>
</g>
<g id="LWPOLYLINE_6_">
	<path style="fill:#101820;" d="M323.416,193.759h10.917v19.269h-10.917v46.891c0,6.031,4.891,10.917,10.917,10.917v19.273
		c-16.67,0-30.186-13.516-30.186-30.19v-46.891H293.23v-19.269h10.917v-32.114h19.269V193.759z"/>
</g>
<g id="LWPOLYLINE_7_">
	<polygon style="fill:#101820;" points="136.512,134.861 159.799,134.861 159.799,235.772 172.221,235.772 172.221,259.059 
		159.799,259.059 159.799,290.108 136.512,290.108 136.512,259.059 79.073,259.059 79.073,235.772 	"/>
</g>
<g id="LWPOLYLINE_9_">
	<path style="fill:#101820;" d="M192.114,185.316h23.287v-7.762c0-2.513,0.487-5.005,1.437-7.331
		c4.044-9.925,15.371-14.687,25.296-10.639s14.687,15.375,10.644,25.3l-60.663,81.937v23.287H277.5v-23.287h-58.995l56.456-74.764
		c8.011-22.176-3.479-46.651-25.654-54.657c-22.176-8.01-46.643,3.475-54.653,25.651c-2.171,6.014-2.966,12.438-2.325,18.799
		L192.114,185.316z"/>
</g>
<g id="LWPOLYLINE_8_">
	<polygon style="fill:#FFCD00;" points="105.463,235.772 136.512,181.226 136.512,235.772 	"/>
</g>
</svg>
