<?xml version="1.0" encoding="UTF-8" standalone="no"?>
<!-- Generator: Adobe Illustrator 16.0.0, SVG Export Plug-In . SVG Version: 6.00 Build 0)  -->

<svg
   xmlns:dc="http://purl.org/dc/elements/1.1/"
   xmlns:cc="http://creativecommons.org/ns#"
   xmlns:rdf="http://www.w3.org/1999/02/22-rdf-syntax-ns#"
   xmlns:svg="http://www.w3.org/2000/svg"
   xmlns="http://www.w3.org/2000/svg"
   xmlns:sodipodi="http://sodipodi.sourceforge.net/DTD/sodipodi-0.dtd"
   xmlns:inkscape="http://www.inkscape.org/namespaces/inkscape"
   version="1.1"
   id="Layer_1"
   x="0px"
   y="0px"
   width="396.853"
   height="396.85101"
   viewBox="0 0 396.85301 396.851"
   xml:space="preserve"
   sodipodi:docname="C24_13.svg"
   inkscape:version="0.92.5 (2060ec1f9f, 2020-04-08)"><metadata
   id="metadata2249"><rdf:RDF><cc:Work
       rdf:about=""><dc:format>image/svg+xml</dc:format><dc:type
         rdf:resource="http://purl.org/dc/dcmitype/StillImage" /></cc:Work></rdf:RDF></metadata><defs
   id="defs2247" /><sodipodi:namedview
   pagecolor="#ffffff"
   bordercolor="#666666"
   borderopacity="1"
   objecttolerance="10"
   gridtolerance="10"
   guidetolerance="10"
   inkscape:pageopacity="0"
   inkscape:pageshadow="2"
   inkscape:window-width="640"
   inkscape:window-height="480"
   id="namedview2245"
   showgrid="false"
   inkscape:zoom="0.55503813"
   inkscape:cx="198.4265"
   inkscape:cy="198.42599"
   inkscape:window-x="0"
   inkscape:window-y="0"
   inkscape:window-maximized="0"
   inkscape:current-layer="Layer_1" />
<g
   id="CIRCLE_3_"
   transform="translate(-14.172,-14.173)">
	<path
   style="fill:#ffcd00"
   d="m 411.025,212.601 c 0,-109.59 -88.84,-198.428 -198.428,-198.428 -109.588,0 -198.425,88.837 -198.425,198.428 0,109.583 88.837,198.423 198.425,198.423 109.588,0 198.428,-88.84 198.428,-198.423 z"
   id="path2226"
   inkscape:connector-curvature="0" />
</g>
<g
   id="CIRCLE_4_"
   transform="translate(-14.172,-14.173)">
	<path
   style="fill:#e4002b"
   d="m 404.818,212.601 c 0,-106.164 -86.062,-192.226 -192.221,-192.226 -106.16,0 -192.223,86.062 -192.223,192.226 0,106.159 86.063,192.221 192.223,192.221 106.159,-10e-4 192.221,-86.062 192.221,-192.221 z"
   id="path2229"
   inkscape:connector-curvature="0" />
</g>
<g
   id="CIRCLE_5_"
   transform="translate(-14.172,-14.173)">
	<path
   style="fill:#ffcd00"
   d="m 364.519,212.601 c 0,-83.907 -68.023,-151.922 -151.922,-151.922 -83.907,0 -151.922,68.015 -151.922,151.922 0,83.898 68.023,151.917 151.922,151.917 83.899,0 151.922,-68.019 151.922,-151.917 z"
   id="path2232"
   inkscape:connector-curvature="0" />
</g>
<g
   id="LWPOLYLINE_5_"
   transform="translate(-14.172,-14.173)">
	<path
   style="fill:#101820"
   d="m 323.416,193.759 h 10.917 v 19.269 h -10.917 v 46.891 c 0,6.031 4.891,10.917 10.917,10.917 v 19.273 c -16.67,0 -30.186,-13.516 -30.186,-30.19 V 213.028 H 293.23 v -19.269 h 10.917 v -32.114 h 19.269 z"
   id="path2235"
   inkscape:connector-curvature="0" />
</g>
<g
   id="LWPOLYLINE_6_"
   transform="translate(-14.172,-14.173)">
	<path
   style="fill:#101820"
   d="m 85.228,247.415 c 0,23.578 19.115,42.693 42.693,42.693 23.578,0 42.693,-19.115 42.693,-42.693 v -9.313 c 0,-12.601 -5.565,-24.557 -15.208,-32.67 7.284,-7.767 11.327,-18.012 11.327,-28.651 v -3.108 c 0,-21.436 -17.371,-38.812 -38.812,-38.812 -21.432,0 -38.812,17.375 -38.812,38.812 v 3.108 h 23.287 v -3.108 c 0,-8.574 6.95,-15.524 15.525,-15.524 8.574,0 15.524,6.95 15.524,15.524 v 3.108 c 0,10.284 -8.335,18.627 -18.628,18.627 h -3.103 v 21.731 h 6.207 c 10.72,0 19.406,8.69 19.406,19.406 v 10.869 c 0,10.717 -8.686,19.406 -19.406,19.406 -10.712,0 -19.406,-8.689 -19.406,-19.406 H 85.228 Z"
   id="path2238"
   inkscape:connector-curvature="0" />
</g>
<g
   id="LWPOLYLINE_7_"
   transform="translate(-14.172,-14.173)">
	<path
   style="fill:#101820"
   d="m 192.114,247.415 c 0,23.578 19.115,42.693 42.693,42.693 23.577,0 42.692,-19.115 42.692,-42.693 v -17.076 c 0,-23.577 -19.115,-42.692 -42.692,-42.692 -5.959,0 -11.849,1.244 -17.286,3.654 l 3.309,-33.152 h 42.693 l -1.548,-23.287 h -62.099 l -7.763,77.624 27.169,6.21 c 3.658,-4.89 9.412,-7.762 15.524,-7.762 10.712,0 19.405,8.686 19.405,19.405 v 17.076 c 0,10.717 -8.693,19.406 -19.405,19.406 -10.721,0 -19.406,-8.689 -19.406,-19.406 z"
   id="path2241"
   inkscape:connector-curvature="0" />
</g>
</svg>