<?xml version="1.0" encoding="UTF-8" standalone="no"?>
<!-- Generator: Adobe Illustrator 16.0.0, SVG Export Plug-In . SVG Version: 6.00 Build 0)  -->

<svg
   xmlns:dc="http://purl.org/dc/elements/1.1/"
   xmlns:cc="http://creativecommons.org/ns#"
   xmlns:rdf="http://www.w3.org/1999/02/22-rdf-syntax-ns#"
   xmlns:svg="http://www.w3.org/2000/svg"
   xmlns="http://www.w3.org/2000/svg"
   xmlns:sodipodi="http://sodipodi.sourceforge.net/DTD/sodipodi-0.dtd"
   xmlns:inkscape="http://www.inkscape.org/namespaces/inkscape"
   version="1.1"
   id="Layer_1"
   x="0px"
   y="0px"
   width="396.853"
   height="396.85101"
   viewBox="0 0 396.85301 396.851"
   xml:space="preserve"
   sodipodi:docname="C24_10.svg"
   inkscape:version="0.92.5 (2060ec1f9f, 2020-04-08)"><metadata
   id="metadata2171"><rdf:RDF><cc:Work
       rdf:about=""><dc:format>image/svg+xml</dc:format><dc:type
         rdf:resource="http://purl.org/dc/dcmitype/StillImage" /></cc:Work></rdf:RDF></metadata><defs
   id="defs2169" /><sodipodi:namedview
   pagecolor="#ffffff"
   bordercolor="#666666"
   borderopacity="1"
   objecttolerance="10"
   gridtolerance="10"
   guidetolerance="10"
   inkscape:pageopacity="0"
   inkscape:pageshadow="2"
   inkscape:window-width="640"
   inkscape:window-height="480"
   id="namedview2167"
   showgrid="false"
   inkscape:zoom="0.55503813"
   inkscape:cx="198.4265"
   inkscape:cy="198.42599"
   inkscape:window-x="0"
   inkscape:window-y="0"
   inkscape:window-maximized="0"
   inkscape:current-layer="Layer_1" />
<g
   id="CIRCLE_3_"
   transform="translate(-14.172,-14.173)">
	<path
   style="fill:#ffcd00"
   d="m 411.025,212.601 c 0,-109.59 -88.84,-198.428 -198.428,-198.428 -109.588,0 -198.425,88.837 -198.425,198.428 0,109.583 88.837,198.423 198.425,198.423 109.588,0 198.428,-88.84 198.428,-198.423 z"
   id="path2145"
   inkscape:connector-curvature="0" />
</g>
<g
   id="CIRCLE_4_"
   transform="translate(-14.172,-14.173)">
	<path
   style="fill:#e4002b"
   d="m 404.818,212.601 c 0,-106.164 -86.062,-192.226 -192.221,-192.226 -106.16,0 -192.223,86.062 -192.223,192.226 0,106.159 86.063,192.221 192.223,192.221 106.159,-10e-4 192.221,-86.062 192.221,-192.221 z"
   id="path2148"
   inkscape:connector-curvature="0" />
</g>
<g
   id="CIRCLE_5_"
   transform="translate(-14.172,-14.173)">
	<path
   style="fill:#ffcd00"
   d="m 364.519,212.601 c 0,-83.907 -68.023,-151.922 -151.922,-151.922 -83.907,0 -151.922,68.015 -151.922,151.922 0,83.898 68.023,151.917 151.922,151.917 83.899,0 151.922,-68.019 151.922,-151.917 z"
   id="path2151"
   inkscape:connector-curvature="0" />
</g>
<g
   id="LWPOLYLINE_6_"
   transform="translate(-14.172,-14.173)">
	<path
   style="fill:#101820"
   d="m 91.682,185.595 h 23.228 v -7.737 c 0,-2.509 0.487,-4.993 1.427,-7.313 4.044,-9.896 15.337,-14.648 25.236,-10.609 9.891,4.04 14.644,15.333 10.609,25.232 l -60.5,81.719 v 23.223 h 85.155 v -23.223 h -58.833 l 56.303,-74.567 c 7.984,-22.12 -3.463,-46.523 -25.587,-54.512 -22.116,-7.985 -46.523,3.471 -54.508,25.586 -2.163,5.997 -2.958,12.404 -2.316,18.748 z"
   id="path2154"
   inkscape:connector-curvature="0" />
</g>
<g
   id="LWPOLYLINE_7_"
   transform="translate(-14.172,-14.173)">
	<path
   style="fill:#101820"
   d="m 192.336,247.531 c 0,23.514 19.063,42.577 42.582,42.577 23.518,0 42.581,-19.063 42.581,-42.577 v -69.673 c 0,-23.518 -19.063,-42.582 -42.581,-42.582 -23.519,0 -42.582,19.064 -42.582,42.582 z"
   id="path2157"
   inkscape:connector-curvature="0" />
</g>
<g
   id="LWPOLYLINE_9_"
   transform="translate(-14.172,-14.173)">
	<path
   style="fill:#101820"
   d="m 323.185,193.759 h 10.926 v 19.269 h -10.926 v 46.891 c 0,6.031 4.89,10.917 10.926,10.917 v 19.273 c -16.68,0 -30.195,-13.516 -30.195,-30.19 V 213.028 H 293 v -19.269 h 10.916 v -32.114 h 19.27 v 32.114 z"
   id="path2160"
   inkscape:connector-curvature="0" />
</g>
<g
   id="LWPOLYLINE_8_"
   transform="translate(-14.172,-14.173)">
	<path
   style="fill:#ffcd00"
   d="m 215.564,247.531 c 0,10.686 8.668,19.354 19.354,19.354 10.686,0 19.354,-8.669 19.354,-19.354 v -69.673 c 0,-10.69 -8.669,-19.355 -19.354,-19.355 -10.687,0 -19.354,8.665 -19.354,19.355 z"
   id="path2163"
   inkscape:connector-curvature="0" />
</g>
</svg>