<?xml version="1.0" encoding="iso-8859-1"?>
<!-- Generator: Adobe Illustrator 16.0.0, SVG Export Plug-In . SVG Version: 6.00 Build 0)  -->
<!DOCTYPE svg PUBLIC "-//W3C//DTD SVG 1.1//EN" "http://www.w3.org/Graphics/SVG/1.1/DTD/svg11.dtd">
<svg version="1.1" id="Layer_1" xmlns="http://www.w3.org/2000/svg" xmlns:xlink="http://www.w3.org/1999/xlink" x="0px" y="0px"
	 width="425.197px" height="425.196px" viewBox="0 0 425.197 425.196" style="enable-background:new 0 0 425.197 425.196;"
	 xml:space="preserve">
<g id="CIRCLE_3_">
	<path style="fill:#FFCD00;" d="M411.025,212.601c0-109.59-88.84-198.428-198.428-198.428S14.172,103.01,14.172,212.601
		c0,109.583,88.837,198.423,198.425,198.423S411.025,322.184,411.025,212.601L411.025,212.601z"/>
</g>
<g id="CIRCLE_4_">
	<path style="fill:#E4002B;" d="M404.818,212.601c0-106.164-86.062-192.226-192.221-192.226
		c-106.16,0-192.223,86.062-192.223,192.226c0,106.159,86.063,192.221,192.223,192.221
		C318.756,404.821,404.818,318.76,404.818,212.601L404.818,212.601z"/>
</g>
<g id="CIRCLE_5_">
	<path style="fill:#FFCD00;" d="M364.519,212.601c0-83.907-68.023-151.922-151.922-151.922
		c-83.907,0-151.922,68.015-151.922,151.922c0,83.898,68.023,151.917,151.922,151.917S364.519,296.499,364.519,212.601
		L364.519,212.601z"/>
</g>
<g id="LWPOLYLINE_7_">
	<path style="fill:#101820;" d="M87.108,157.871c9.156-4.745,16.046-12.943,19.141-22.783h23.492v155.021h-23.253V170.745
		l-17.038,3.099L87.108,157.871z"/>
</g>
<g id="LWPOLYLINE_9_">
	<path style="fill:#101820;" d="M188.148,205.548c-8.584,8.057-13.456,19.303-13.456,31.079v10.853
		c0,23.544,19.089,42.629,42.633,42.629s42.633-19.085,42.633-42.629v-10.853c0-11.776-4.872-23.022-13.456-31.079
		c6.173-7.062,9.575-16.124,9.575-25.501v-6.202c0-21.402-17.346-38.756-38.752-38.756s-38.752,17.354-38.752,38.756v6.202
		C178.573,189.424,181.975,198.486,188.148,205.548z"/>
</g>
<g id="LWPOLYLINE_11_">
	<path style="fill:#101820;" d="M320.099,197.097h10.549v18.603h-10.549v45.262c0,5.822,4.728,10.545,10.549,10.545v18.603
		c-16.098,0-29.151-13.05-29.151-29.147v-45.262h-10.541v-18.603h10.541v-31.002h18.603V197.097z"/>
</g>
<g id="LWPOLYLINE_8_">
	<path style="fill:#FFCD00;" d="M197.945,247.479c0,10.699,8.677,19.376,19.38,19.376s19.38-8.677,19.38-19.376v-10.853
		c0-10.703-8.677-19.376-19.38-19.376s-19.38,8.673-19.38,19.376V247.479z"/>
</g>
<g id="LWPOLYLINE_10_">
	<path style="fill:#FFCD00;" d="M201.826,173.844v6.202c0,8.557,6.941,15.499,15.499,15.499c8.565,0,15.499-6.941,15.499-15.499
		v-6.202c0-8.562-6.934-15.503-15.499-15.503C208.767,158.341,201.826,165.282,201.826,173.844z"/>
</g>
</svg>
