<?xml version="1.0" encoding="iso-8859-1"?>
<!-- Generator: Adobe Illustrator 16.0.0, SVG Export Plug-In . SVG Version: 6.00 Build 0)  -->
<!DOCTYPE svg PUBLIC "-//W3C//DTD SVG 1.1//EN" "http://www.w3.org/Graphics/SVG/1.1/DTD/svg11.dtd">
<svg version="1.1" id="Layer_1" xmlns="http://www.w3.org/2000/svg" xmlns:xlink="http://www.w3.org/1999/xlink" x="0px" y="0px"
	 width="425.197px" height="425.196px" viewBox="0 0 425.197 425.196" style="enable-background:new 0 0 425.197 425.196;"
	 xml:space="preserve">
<g id="CIRCLE_3_">
	<path style="fill:#FFCD00;" d="M411.025,212.601c0-109.59-88.84-198.428-198.428-198.428S14.172,103.01,14.172,212.601
		c0,109.583,88.837,198.423,198.425,198.423S411.025,322.184,411.025,212.601L411.025,212.601z"/>
</g>
<g id="CIRCLE_4_">
	<path style="fill:#E4002B;" d="M404.818,212.601c0-106.164-86.062-192.226-192.221-192.226
		c-106.16,0-192.223,86.062-192.223,192.226c0,106.159,86.063,192.221,192.223,192.221
		C318.756,404.821,404.818,318.76,404.818,212.601L404.818,212.601z"/>
</g>
<g id="CIRCLE_5_">
	<path style="fill:#FFCD00;" d="M364.519,212.601c0-83.907-68.023-151.922-151.922-151.922
		c-83.907,0-151.922,68.015-151.922,151.922c0,83.898,68.023,151.917,151.922,151.917S364.519,296.499,364.519,212.601
		L364.519,212.601z"/>
</g>
<g id="LWPOLYLINE_5_">
	<path style="fill:#101820;" d="M268.071,197.097h10.54v18.603h-10.54v45.262c0,5.822,4.719,10.545,10.54,10.545v18.603
		c-16.088,0-29.143-13.05-29.143-29.147v-45.262h-10.541v-18.603h10.541v-31.002h18.603V197.097z"/>
</g>
<g id="LWPOLYLINE_7_">
	<path style="fill:#101820;" d="M122.689,247.488v-24.245c5.531-32.194,19.038-62.487,39.291-88.121h30.999
		c-17.885,18.063-31.554,39.859-40.018,63.826c4.001-1.215,8.164-1.83,12.345-1.83c23.543,0,42.624,19.081,42.624,42.62v7.75
		c0,23.535-19.081,42.62-42.624,42.62C141.77,290.108,122.689,271.023,122.689,247.488z"/>
</g>
<g id="LWPOLYLINE_6_">
	<path style="fill:#FFCD00;" d="M145.933,247.488c0,10.698,8.677,19.372,19.372,19.372c10.703,0,19.371-8.674,19.371-19.372v-7.75
		c0-10.698-8.668-19.376-19.371-19.376c-10.695,0-19.372,8.678-19.372,19.376V247.488z"/>
</g>
</svg>
