<?xml version="1.0" encoding="iso-8859-1"?>
<!-- Generator: Adobe Illustrator 16.0.0, SVG Export Plug-In . SVG Version: 6.00 Build 0)  -->
<!DOCTYPE svg PUBLIC "-//W3C//DTD SVG 1.1//EN" "http://www.w3.org/Graphics/SVG/1.1/DTD/svg11.dtd">
<svg version="1.1" id="Layer_1" xmlns="http://www.w3.org/2000/svg" xmlns:xlink="http://www.w3.org/1999/xlink" x="0px" y="0px"
	 width="425.197px" height="425.196px" viewBox="0 0 425.197 425.196" style="enable-background:new 0 0 425.197 425.196;"
	 xml:space="preserve">
<g id="CIRCLE_3_">
	<path style="fill:#FFCD00;" d="M411.025,212.601c0-109.59-88.84-198.428-198.428-198.428S14.172,103.01,14.172,212.601
		c0,109.583,88.837,198.423,198.425,198.423S411.025,322.184,411.025,212.601L411.025,212.601z"/>
</g>
<g id="CIRCLE_4_">
	<path style="fill:#E4002B;" d="M404.818,212.601c0-106.164-86.062-192.226-192.221-192.226
		c-106.16,0-192.223,86.062-192.223,192.226c0,106.159,86.063,192.221,192.223,192.221
		C318.756,404.821,404.818,318.76,404.818,212.601L404.818,212.601z"/>
</g>
<g id="CIRCLE_5_">
	<path style="fill:#FFCD00;" d="M364.519,212.601c0-83.907-68.023-151.922-151.922-151.922
		c-83.907,0-151.922,68.015-151.922,151.922c0,83.898,68.023,151.917,151.922,151.917S364.519,296.499,364.519,212.601
		L364.519,212.601z"/>
</g>
<g id="LWPOLYLINE_6_">
	<path style="fill:#101820;" d="M87.108,157.871c9.156-4.745,16.046-12.943,19.141-22.783h23.492v155.021h-23.253V170.745
		l-17.038,3.099L87.108,157.871z"/>
</g>
<g id="LWPOLYLINE_8_">
	<path style="fill:#101820;" d="M176.093,247.479v-24.253c5.531-32.199,19.039-62.5,39.299-88.139h30.999
		c-17.885,18.068-31.554,39.868-40.026,63.834c4.01-1.209,8.173-1.825,12.354-1.825c23.543,0,42.633,19.086,42.633,42.629v7.754
		c0,23.544-19.09,42.629-42.633,42.629C195.174,290.108,176.093,271.023,176.093,247.479z"/>
</g>
<g id="LWPOLYLINE_9_">
	<path style="fill:#101820;" d="M321.5,198.042h10.541v18.602H321.5v45.267c0,5.821,4.72,10.541,10.541,10.541v18.602
		c-16.098,0-29.143-13.045-29.143-29.143v-45.267h-10.541v-18.602h10.541v-31.007H321.5V198.042z"/>
</g>
<g id="LWPOLYLINE_7_">
	<path style="fill:#FFCD00;" d="M199.346,247.479c0,10.699,8.669,19.376,19.372,19.376s19.38-8.677,19.38-19.376v-7.754
		c0-10.703-8.677-19.376-19.38-19.376s-19.372,8.673-19.372,19.376V247.479z"/>
</g>
</svg>
