<?xml version="1.0" encoding="UTF-8" standalone="no"?>
<svg
   xmlns:dc="http://purl.org/dc/elements/1.1/"
   xmlns:cc="http://creativecommons.org/ns#"
   xmlns:rdf="http://www.w3.org/1999/02/22-rdf-syntax-ns#"
   xmlns:svg="http://www.w3.org/2000/svg"
   xmlns="http://www.w3.org/2000/svg"
   xmlns:sodipodi="http://sodipodi.sourceforge.net/DTD/sodipodi-0.dtd"
   xmlns:inkscape="http://www.inkscape.org/namespaces/inkscape"
   inkscape:version="1.0 (4035a4fb49, 2020-05-01)"
   sodipodi:docname="C24_blanko.svg"
   xml:space="preserve"
   viewBox="0 0 396.85102 396.84899"
   height="396.849"
   width="396.85101"
   y="0px"
   x="0px"
   id="Layer_1"
   version="1.1"><metadata
   id="metadata2143"><rdf:RDF><cc:Work
       rdf:about=""><dc:format>image/svg+xml</dc:format><dc:type
         rdf:resource="http://purl.org/dc/dcmitype/StillImage" /><dc:title></dc:title></cc:Work></rdf:RDF></metadata><defs
   id="defs2141" /><sodipodi:namedview
   inkscape:document-rotation="0"
   inkscape:current-layer="Layer_1"
   inkscape:window-maximized="0"
   inkscape:window-y="0"
   inkscape:window-x="0"
   inkscape:cy="235.58755"
   inkscape:cx="187.83095"
   inkscape:zoom="1.5698849"
   showgrid="false"
   id="namedview2139"
   inkscape:window-height="848"
   inkscape:window-width="1063"
   inkscape:pageshadow="2"
   inkscape:pageopacity="0"
   guidetolerance="10"
   gridtolerance="10"
   objecttolerance="10"
   borderopacity="1"
   bordercolor="#666666"
   pagecolor="#ffffff" />
<g
   transform="translate(-14.173,-14.174)"
   id="CIRCLE_3_">
	<path
   inkscape:connector-curvature="0"
   id="path2120"
   d="m 411.024,212.599 c 0,-109.588 -88.838,-198.425 -198.426,-198.425 -109.587,0 -198.425,88.837 -198.425,198.425 0,109.586 88.838,198.424 198.425,198.424 109.588,-0.001 198.426,-88.838 198.426,-198.424 z"
   style="fill:#ffcd00" />
</g>
<g
   transform="translate(-14.173,-14.174)"
   id="CIRCLE_4_">
	<path
   inkscape:connector-curvature="0"
   id="path2123"
   d="m 404.822,212.599 c 0,-106.163 -86.061,-192.225 -192.224,-192.225 -106.162,0 -192.224,86.062 -192.224,192.225 0,106.162 86.062,192.223 192.224,192.223 106.163,-10e-4 192.224,-86.061 192.224,-192.223 z"
   style="fill:#e4002b" />
</g>
<g
   transform="translate(-14.173,-14.174)"
   id="CIRCLE_5_">
	<path
   inkscape:connector-curvature="0"
   id="path2126"
   d="m 364.517,212.599 c 0,-83.903 -68.016,-151.919 -151.919,-151.919 -83.902,0 -151.918,68.017 -151.918,151.919 0,83.902 68.016,151.918 151.918,151.918 83.903,0 151.919,-68.016 151.919,-151.918 z"
   style="fill:#ffcd00" />
</g>


<g
   transform="translate(-14.173,-14.174)"
   id="LWPOLYLINE_7_">
	<path
   inkscape:connector-curvature="0"
   id="path2135"
   d="m 320.724,198.042 h 10.541 v 18.602 h -10.541 v 45.266 c 0,5.822 4.721,10.541 10.541,10.541 v 18.604 c -16.095,0 -29.143,-13.049 -29.143,-29.145 v -45.266 h -10.541 v -18.602 h 10.541 v -31.005 h 18.602 z"
   style="fill:#101820" />
</g>
</svg>
