<?xml version="1.0" encoding="iso-8859-1"?>
<!-- Generator: Adobe Illustrator 16.0.0, SVG Export Plug-In . SVG Version: 6.00 Build 0)  -->
<!DOCTYPE svg PUBLIC "-//W3C//DTD SVG 1.1//EN" "http://www.w3.org/Graphics/SVG/1.1/DTD/svg11.dtd">
<svg version="1.1" id="Layer_1" xmlns="http://www.w3.org/2000/svg" xmlns:xlink="http://www.w3.org/1999/xlink" x="0px" y="0px"
	 width="425.197px" height="425.196px" viewBox="0 0 425.197 425.196" style="enable-background:new 0 0 425.197 425.196;"
	 xml:space="preserve">
<g id="CIRCLE_3_">
	<path style="fill:#FFCD00;" d="M411.025,212.601c0-109.59-88.84-198.428-198.428-198.428S14.172,103.01,14.172,212.601
		c0,109.583,88.837,198.423,198.425,198.423S411.025,322.184,411.025,212.601L411.025,212.601z"/>
</g>
<g id="CIRCLE_4_">
	<path style="fill:#E4002B;" d="M404.818,212.601c0-106.164-86.062-192.226-192.221-192.226
		c-106.16,0-192.223,86.062-192.223,192.226c0,106.159,86.063,192.221,192.223,192.221
		C318.756,404.821,404.818,318.76,404.818,212.601L404.818,212.601z"/>
</g>
<g id="CIRCLE_5_">
	<path style="fill:#FFCD00;" d="M364.519,212.601c0-83.907-68.023-151.922-151.922-151.922
		c-83.907,0-151.922,68.015-151.922,151.922c0,83.898,68.023,151.917,151.922,151.917S364.519,296.499,364.519,212.601
		L364.519,212.601z"/>
</g>
<g id="LWPOLYLINE_6_">
	<path style="fill:#101820;" d="M91.682,185.595h23.228v-7.737c0-2.509,0.487-4.993,1.427-7.313
		c4.044-9.896,15.337-14.648,25.236-10.609c9.891,4.04,14.644,15.333,10.609,25.232l-60.5,81.719v23.223h85.155v-23.223h-58.833
		l56.303-74.567c7.984-22.12-3.463-46.523-25.587-54.512c-22.116-7.985-46.523,3.471-54.508,25.586
		c-2.163,5.997-2.958,12.404-2.316,18.748L91.682,185.595z"/>
</g>
<g id="LWPOLYLINE_7_">
	<path style="fill:#101820;" d="M192.336,247.531c0,23.514,19.063,42.577,42.582,42.577c23.518,0,42.581-19.063,42.581-42.577
		v-69.673c0-23.518-19.063-42.582-42.581-42.582c-23.519,0-42.582,19.064-42.582,42.582V247.531z"/>
</g>
<g id="LWPOLYLINE_9_">
	<path style="fill:#101820;" d="M323.185,193.759h10.926v19.269h-10.926v46.891c0,6.031,4.89,10.917,10.926,10.917v19.273
		c-16.68,0-30.195-13.516-30.195-30.19v-46.891H293v-19.269h10.916v-32.114h19.27V193.759z"/>
</g>
<g id="LWPOLYLINE_8_">
	<path style="fill:#FFCD00;" d="M215.564,247.531c0,10.686,8.668,19.354,19.354,19.354c10.686,0,19.354-8.669,19.354-19.354v-69.673
		c0-10.69-8.669-19.355-19.354-19.355c-10.687,0-19.354,8.665-19.354,19.355V247.531z"/>
</g>
</svg>
