<?xml version="1.0" encoding="UTF-8" standalone="no"?>
<!-- Generator: Adobe Illustrator 16.0.0, SVG Export Plug-In . SVG Version: 6.00 Build 0)  -->

<svg
   xmlns:dc="http://purl.org/dc/elements/1.1/"
   xmlns:cc="http://creativecommons.org/ns#"
   xmlns:rdf="http://www.w3.org/1999/02/22-rdf-syntax-ns#"
   xmlns:svg="http://www.w3.org/2000/svg"
   xmlns="http://www.w3.org/2000/svg"
   xmlns:sodipodi="http://sodipodi.sourceforge.net/DTD/sodipodi-0.dtd"
   xmlns:inkscape="http://www.inkscape.org/namespaces/inkscape"
   version="1.1"
   id="Layer_1"
   x="0px"
   y="0px"
   width="396.853"
   height="396.85101"
   viewBox="0 0 396.85301 396.851"
   xml:space="preserve"
   sodipodi:docname="C24_14.svg"
   inkscape:version="0.92.5 (2060ec1f9f, 2020-04-08)"><metadata
   id="metadata2277"><rdf:RDF><cc:Work
       rdf:about=""><dc:format>image/svg+xml</dc:format><dc:type
         rdf:resource="http://purl.org/dc/dcmitype/StillImage" /></cc:Work></rdf:RDF></metadata><defs
   id="defs2275" /><sodipodi:namedview
   pagecolor="#ffffff"
   bordercolor="#666666"
   borderopacity="1"
   objecttolerance="10"
   gridtolerance="10"
   guidetolerance="10"
   inkscape:pageopacity="0"
   inkscape:pageshadow="2"
   inkscape:window-width="640"
   inkscape:window-height="480"
   id="namedview2273"
   showgrid="false"
   inkscape:zoom="0.55503813"
   inkscape:cx="198.4265"
   inkscape:cy="198.42599"
   inkscape:window-x="0"
   inkscape:window-y="0"
   inkscape:window-maximized="0"
   inkscape:current-layer="Layer_1" />
<g
   id="CIRCLE_3_"
   transform="translate(-14.172,-14.173)">
	<path
   style="fill:#ffcd00"
   d="m 411.025,212.601 c 0,-109.59 -88.84,-198.428 -198.428,-198.428 -109.588,0 -198.425,88.837 -198.425,198.428 0,109.583 88.837,198.423 198.425,198.423 109.588,0 198.428,-88.84 198.428,-198.423 z"
   id="path2251"
   inkscape:connector-curvature="0" />
</g>
<g
   id="CIRCLE_4_"
   transform="translate(-14.172,-14.173)">
	<path
   style="fill:#e4002b"
   d="m 404.818,212.601 c 0,-106.164 -86.062,-192.226 -192.221,-192.226 -106.16,0 -192.223,86.062 -192.223,192.226 0,106.159 86.063,192.221 192.223,192.221 106.159,-10e-4 192.221,-86.062 192.221,-192.221 z"
   id="path2254"
   inkscape:connector-curvature="0" />
</g>
<g
   id="CIRCLE_5_"
   transform="translate(-14.172,-14.173)">
	<path
   style="fill:#ffcd00"
   d="m 364.519,212.601 c 0,-83.907 -68.023,-151.922 -151.922,-151.922 -83.907,0 -151.922,68.015 -151.922,151.922 0,83.898 68.023,151.917 151.922,151.917 83.899,0 151.922,-68.019 151.922,-151.917 z"
   id="path2257"
   inkscape:connector-curvature="0" />
</g>
<g
   id="LWPOLYLINE_6_"
   transform="translate(-14.172,-14.173)">
	<path
   style="fill:#101820"
   d="m 323.416,193.759 h 10.917 v 19.269 h -10.917 v 46.891 c 0,6.031 4.891,10.917 10.917,10.917 v 19.273 c -16.67,0 -30.186,-13.516 -30.186,-30.19 V 213.028 H 293.23 v -19.269 h 10.917 v -32.114 h 19.269 z"
   id="path2260"
   inkscape:connector-curvature="0" />
</g>
<g
   id="LWPOLYLINE_7_"
   transform="translate(-14.172,-14.173)">
	<polygon
   style="fill:#101820"
   points="159.799,235.772 172.221,235.772 172.221,259.059 159.799,259.059 159.799,290.108 136.512,290.108 136.512,259.059 79.073,259.059 79.073,235.772 136.512,134.861 159.799,134.861 "
   id="polygon2263" />
</g>
<g
   id="LWPOLYLINE_9_"
   transform="translate(-14.172,-14.173)">
	<path
   style="fill:#101820"
   d="m 192.114,185.316 h 23.287 v -7.762 c 0,-2.513 0.487,-5.005 1.437,-7.331 4.044,-9.925 15.371,-14.687 25.296,-10.639 9.925,4.048 14.687,15.375 10.644,25.3 l -60.663,81.937 v 23.287 H 277.5 v -23.287 h -58.995 l 56.456,-74.764 c 8.011,-22.176 -3.479,-46.651 -25.654,-54.657 -22.176,-8.01 -46.643,3.475 -54.653,25.651 -2.171,6.014 -2.966,12.438 -2.325,18.799 z"
   id="path2266"
   inkscape:connector-curvature="0" />
</g>
<g
   id="LWPOLYLINE_8_"
   transform="translate(-14.172,-14.173)">
	<polygon
   style="fill:#ffcd00"
   points="136.512,235.772 105.463,235.772 136.512,181.226 "
   id="polygon2269" />
</g>
</svg>