<?xml version="1.0" encoding="UTF-8" standalone="no"?>
<!-- Generator: Adobe Illustrator 16.0.0, SVG Export Plug-In . SVG Version: 6.00 Build 0)  -->

<svg
   xmlns:dc="http://purl.org/dc/elements/1.1/"
   xmlns:cc="http://creativecommons.org/ns#"
   xmlns:rdf="http://www.w3.org/1999/02/22-rdf-syntax-ns#"
   xmlns:svg="http://www.w3.org/2000/svg"
   xmlns="http://www.w3.org/2000/svg"
   xmlns:sodipodi="http://sodipodi.sourceforge.net/DTD/sodipodi-0.dtd"
   xmlns:inkscape="http://www.inkscape.org/namespaces/inkscape"
   version="1.1"
   id="Layer_1"
   x="0px"
   y="0px"
   width="396.85101"
   height="396.84698"
   viewBox="0 0 396.85102 396.84697"
   xml:space="preserve"
   sodipodi:docname="C25.svg"
   inkscape:version="0.92.5 (2060ec1f9f, 2020-04-08)"><metadata
   id="metadata46"><rdf:RDF><cc:Work
       rdf:about=""><dc:format>image/svg+xml</dc:format><dc:type
         rdf:resource="http://purl.org/dc/dcmitype/StillImage" /></cc:Work></rdf:RDF></metadata><defs
   id="defs44" /><sodipodi:namedview
   pagecolor="#ffffff"
   bordercolor="#666666"
   borderopacity="1"
   objecttolerance="10"
   gridtolerance="10"
   guidetolerance="10"
   inkscape:pageopacity="0"
   inkscape:pageshadow="2"
   inkscape:window-width="640"
   inkscape:window-height="480"
   id="namedview42"
   showgrid="false"
   inkscape:zoom="0.55503813"
   inkscape:cx="198.4255"
   inkscape:cy="198.42399"
   inkscape:window-x="0"
   inkscape:window-y="0"
   inkscape:window-maximized="0"
   inkscape:current-layer="Layer_1" />
<g
   id="CIRCLE_2_"
   transform="translate(-14.173,-14.175)">
	<path
   style="fill:#ffcd00"
   d="m 411.024,212.601 c 0,-109.587 -88.839,-198.426 -198.426,-198.426 -109.586,0 -198.425,88.839 -198.425,198.426 0,109.582 88.839,198.421 198.425,198.421 109.587,-10e-4 198.426,-88.839 198.426,-198.421 z"
   id="path2"
   inkscape:connector-curvature="0" />
</g>
<g
   id="CIRCLE_1_"
   transform="translate(-14.173,-14.175)">
	<path
   style="fill:#e4002b"
   d="m 404.817,212.601 c 0,-106.163 -86.061,-192.224 -192.219,-192.224 -106.158,0 -192.219,86.061 -192.219,192.224 0,106.158 86.061,192.219 192.219,192.219 106.158,0 192.219,-86.061 192.219,-192.219 z"
   id="path5"
   inkscape:connector-curvature="0" />
</g>
<g
   id="CIRCLE_3_"
   transform="translate(-14.173,-14.175)">
	<path
   style="fill:#ffcd00"
   d="m 364.5,212.601 c 0,-83.898 -68.005,-151.912 -151.902,-151.912 -83.897,0 -151.902,68.014 -151.902,151.912 0,83.893 68.005,151.902 151.902,151.902 83.897,0 151.902,-68.01 151.902,-151.902 z"
   id="path8"
   inkscape:connector-curvature="0" />
</g>
<g
   id="LWPOLYLINE_2_"
   transform="translate(-14.173,-14.175)">
	<path
   style="fill:#101820"
   d="m 292.102,202.996 h -31.58 c -0.17,-7.22 -6.172,-12.931 -13.387,-12.755 -6.976,0.171 -12.584,5.783 -12.755,12.755 h -38.513 c -0.17,-7.22 -6.163,-12.931 -13.387,-12.755 -6.976,0.171 -12.584,5.783 -12.755,12.755 h -44.804 c -0.18,-7.22 -6.172,-12.931 -13.396,-12.755 -6.967,0.171 -12.584,5.783 -12.754,12.755 h -16.38 v -22.453 l 8.267,-21.847 h 32.451 V 192.6 h 19.688 v -4.569 h -11.814 v -42.885 h 83.863 v 53.28 h 13.473 v -53.28 h 102.107 v 57.85 h -12.183 c -0.171,-7.22 -6.163,-12.931 -13.388,-12.755 -6.975,0.171 -12.582,5.783 -12.753,12.755 z"
   id="path11"
   inkscape:connector-curvature="0" />
</g>
<g
   id="CIRCLE_14_"
   transform="translate(-14.173,-14.175)">
	<path
   style="fill:#101820"
   d="m 121.605,203.291 c 0,-5.48 -4.437,-9.921 -9.916,-9.921 -5.479,0 -9.926,4.44 -9.926,9.921 0,5.479 4.446,9.921 9.926,9.921 5.48,0 9.916,-4.441 9.916,-9.921 z"
   id="path14"
   inkscape:connector-curvature="0" />
</g>
<g
   id="CIRCLE_6_"
   transform="translate(-14.173,-14.175)">
	<path
   style="fill:#101820"
   d="m 192.56,203.291 c 0,-5.48 -4.437,-9.921 -9.917,-9.921 -5.479,0 -9.925,4.44 -9.925,9.921 0,5.479 4.445,9.921 9.925,9.921 5.481,0 9.917,-4.441 9.917,-9.921 z"
   id="path17"
   inkscape:connector-curvature="0" />
</g>
<g
   id="CIRCLE_5_"
   transform="translate(-14.173,-14.175)">
	<path
   style="fill:#101820"
   d="m 257.376,202.996 c 0,-5.48 -4.445,-9.921 -9.925,-9.921 -5.48,0 -9.926,4.44 -9.926,9.921 0,5.479 4.445,9.921 9.926,9.921 5.48,0 9.925,-4.441 9.925,-9.921 z"
   id="path20"
   inkscape:connector-curvature="0" />
</g>
<g
   id="CIRCLE_4_"
   transform="translate(-14.173,-14.175)">
	<path
   style="fill:#101820"
   d="m 315.021,202.996 c 0,-5.48 -4.445,-9.921 -9.925,-9.921 -5.48,0 -9.926,4.44 -9.926,9.921 0,5.479 4.445,9.921 9.926,9.921 5.48,0 9.925,-4.441 9.925,-9.921 z"
   id="path23"
   inkscape:connector-curvature="0" />
</g>
<g
   id="LWPOLYLINE_1_"
   transform="translate(-14.173,-14.175)">
	<path
   style="fill:#101820"
   d="m 192.132,300.943 v -33.485 c 0,-11.298 9.164,-20.458 20.466,-20.458 11.302,0 20.466,9.16 20.466,20.458 v 33.485 c 0,11.301 -9.164,20.466 -20.466,20.466 -11.302,0 -20.466,-9.165 -20.466,-20.466 z"
   id="path26"
   inkscape:connector-curvature="0" />
</g>
<g
   id="LWPOLYLINE_15_"
   transform="translate(-14.173,-14.175)">
	<path
   style="fill:#101820"
   d="m 285.023,265.684 h 5.95 v 11.16 h -5.95 v 27.065 c 0.137,3.3 2.667,6.01 5.95,6.378 v 11.19 c -9.455,-0.397 -16.961,-8.104 -17.114,-17.568 v -27.065 h -6.694 v -11.16 h 6.694 v -18.602 h 11.164 z"
   id="path29"
   inkscape:connector-curvature="0" />
</g>
<g
   id="LWPOLYLINE_16_"
   transform="translate(-14.173,-14.175)">
	<path
   style="fill:#101820"
   d="m 132.385,301.037 c 0,11.302 9.164,20.466 20.466,20.466 11.31,0 20.466,-9.164 20.466,-20.466 v -4.463 c 0,-6.043 -2.668,-11.771 -7.283,-15.661 3.487,-3.727 5.428,-8.634 5.428,-13.737 v -1.487 c 0,-10.276 -8.335,-18.606 -18.61,-18.606 -10.276,0 -18.603,8.33 -18.603,18.606 v 1.487 h 11.165 v -1.487 c 0,-4.112 3.334,-7.442 7.438,-7.442 4.112,0 7.446,3.33 7.446,7.442 v 1.487 c 0,4.933 -4.001,8.934 -8.934,8.934 h -1.488 v 10.416 h 2.976 c 5.138,0 9.31,4.163 9.31,9.301 v 5.211 c 0,5.138 -4.172,9.301 -9.31,9.301 -5.138,0 -9.302,-4.163 -9.302,-9.301 h -11.165 z"
   id="path32"
   inkscape:connector-curvature="0" />
</g>
<g
   id="LWPOLYLINE_8_"
   transform="translate(-14.173,-14.175)">
	<polyline
   style="fill:#ffcd00"
   points="89.795,180.149 95.07,164.287 113.971,164.287 113.971,180.149 89.795,180.149  "
   id="polyline35" />
</g>
<g
   id="LWPOLYLINE_3_"
   transform="translate(-14.173,-14.175)">
	<path
   style="fill:#ffcd00"
   d="m 203.297,300.943 v -33.485 c 0,-5.134 4.163,-9.302 9.301,-9.302 5.138,0 9.301,4.168 9.301,9.302 v 33.485 c 0,5.138 -4.163,9.301 -9.301,9.301 -5.138,0 -9.301,-4.163 -9.301,-9.301 z"
   id="path38"
   inkscape:connector-curvature="0" />
</g>
</svg>