<?xml version="1.0" encoding="UTF-8" standalone="no"?>
<!-- Generator: Adobe Illustrator 16.0.0, SVG Export Plug-In . SVG Version: 6.00 Build 0)  -->

<svg
   xmlns:dc="http://purl.org/dc/elements/1.1/"
   xmlns:cc="http://creativecommons.org/ns#"
   xmlns:rdf="http://www.w3.org/1999/02/22-rdf-syntax-ns#"
   xmlns:svg="http://www.w3.org/2000/svg"
   xmlns="http://www.w3.org/2000/svg"
   xmlns:sodipodi="http://sodipodi.sourceforge.net/DTD/sodipodi-0.dtd"
   xmlns:inkscape="http://www.inkscape.org/namespaces/inkscape"
   version="1.1"
   id="Layer_1"
   x="0px"
   y="0px"
   width="396.853"
   height="396.85101"
   viewBox="0 0 396.85301 396.851"
   xml:space="preserve"
   sodipodi:docname="C25_3.svg"
   inkscape:version="0.92.5 (2060ec1f9f, 2020-04-08)"><metadata
   id="metadata184"><rdf:RDF><cc:Work
       rdf:about=""><dc:format>image/svg+xml</dc:format><dc:type
         rdf:resource="http://purl.org/dc/dcmitype/StillImage" /></cc:Work></rdf:RDF></metadata><defs
   id="defs182" /><sodipodi:namedview
   pagecolor="#ffffff"
   bordercolor="#666666"
   borderopacity="1"
   objecttolerance="10"
   gridtolerance="10"
   guidetolerance="10"
   inkscape:pageopacity="0"
   inkscape:pageshadow="2"
   inkscape:window-width="640"
   inkscape:window-height="480"
   id="namedview180"
   showgrid="false"
   inkscape:zoom="0.55503813"
   inkscape:cx="198.4265"
   inkscape:cy="198.42599"
   inkscape:window-x="0"
   inkscape:window-y="0"
   inkscape:window-maximized="0"
   inkscape:current-layer="Layer_1" />
<g
   id="CIRCLE_7_"
   transform="translate(-14.172,-14.173)">
	<path
   style="fill:#ffcd00"
   d="m 411.025,212.601 c 0,-109.59 -88.84,-198.428 -198.428,-198.428 -109.588,0 -198.425,88.837 -198.425,198.428 0,109.583 88.837,198.423 198.425,198.423 109.588,0 198.428,-88.84 198.428,-198.423 z"
   id="path137"
   inkscape:connector-curvature="0" />
</g>
<g
   id="CIRCLE_12_"
   transform="translate(-14.172,-14.173)">
	<path
   style="fill:#e4002b"
   d="m 404.818,212.601 c 0,-106.164 -86.062,-192.226 -192.221,-192.226 -106.16,0 -192.223,86.062 -192.223,192.226 0,106.159 86.063,192.221 192.223,192.221 106.159,-10e-4 192.221,-86.062 192.221,-192.221 z"
   id="path140"
   inkscape:connector-curvature="0" />
</g>
<g
   id="CIRCLE_6_"
   transform="translate(-14.172,-14.173)">
	<path
   style="fill:#ffcd00"
   d="m 364.501,212.601 c 0,-83.898 -68.006,-151.911 -151.904,-151.911 -83.898,0 -151.904,68.012 -151.904,151.911 0,83.894 68.006,151.904 151.904,151.904 83.898,0 151.904,-68.011 151.904,-151.904 z"
   id="path143"
   inkscape:connector-curvature="0" />
</g>
<g
   id="LWPOLYLINE_14_"
   transform="translate(-14.172,-14.173)">
	<path
   style="fill:#101820"
   d="m 284.142,265.774 h 5.95 v 11.16 h -5.95 v 27.062 c 0.137,3.309 2.668,6.014 5.95,6.382 v 11.186 c -9.455,-0.393 -16.97,-8.1 -17.114,-17.567 v -27.062 h -6.694 v -11.16 h 6.694 v -18.603 h 11.164 z"
   id="path146"
   inkscape:connector-curvature="0" />
</g>
<g
   id="LWPOLYLINE_15_"
   transform="translate(-14.172,-14.173)">
	<polygon
   style="fill:#101820"
   points="166.69,295.456 172.64,295.456 172.64,306.62 166.69,306.62 166.69,321.504 155.525,321.504 155.525,306.62 127.989,306.62 127.989,295.456 155.525,247.082 166.69,247.082 "
   id="polygon149" />
</g>
<g
   id="LWPOLYLINE_17_"
   transform="translate(-14.172,-14.173)">
	<path
   style="fill:#101820"
   d="m 191.242,301.038 c 0,11.302 9.165,20.466 20.467,20.466 11.31,0 20.466,-9.164 20.466,-20.466 v -33.49 c 0,-11.302 -9.165,-20.466 -20.466,-20.466 -11.302,0 -20.467,9.164 -20.467,20.466 z"
   id="path152"
   inkscape:connector-curvature="0" />
</g>
<g
   id="LWPOLYLINE_7_"
   transform="translate(-14.172,-14.173)">
	<path
   style="fill:#101820"
   d="m 292.101,202.996 h -31.579 c -0.171,-7.22 -6.172,-12.931 -13.388,-12.755 -6.976,0.171 -12.584,5.784 -12.755,12.755 h -38.513 c -0.171,-7.22 -6.163,-12.931 -13.387,-12.755 -6.977,0.171 -12.584,5.784 -12.755,12.755 H 124.92 c -0.179,-7.22 -6.172,-12.931 -13.396,-12.755 -6.967,0.171 -12.584,5.784 -12.755,12.755 H 82.39 v -22.454 l 8.267,-21.847 h 32.452 V 192.6 h 19.688 v -4.57 h -11.814 v -42.885 h 83.864 v 53.281 h 13.474 v -53.281 h 102.107 v 57.851 h -12.183 c -0.171,-7.22 -6.164,-12.931 -13.388,-12.755 -6.977,0.171 -12.585,5.783 -12.756,12.755 z"
   id="path155"
   inkscape:connector-curvature="0" />
</g>
<g
   id="LWPOLYLINE_6_"
   transform="translate(-14.172,-14.173)">
	<polyline
   style="fill:#ffcd00"
   points="89.793,180.149 95.067,164.287 113.969,164.287 113.969,180.149 89.793,180.149  "
   id="polyline158" />
</g>
<g
   id="LWPOLYLINE_16_"
   transform="translate(-14.172,-14.173)">
	<polygon
   style="fill:#ffcd00"
   points="155.525,295.456 140.642,295.456 155.525,269.31 "
   id="polygon161" />
</g>
<g
   id="LWPOLYLINE_18_"
   transform="translate(-14.172,-14.173)">
	<path
   style="fill:#ffcd00"
   d="m 202.407,301.038 c 0,5.138 4.163,9.301 9.302,9.301 5.138,0 9.31,-4.163 9.31,-9.301 v -33.49 c 0,-5.138 -4.172,-9.301 -9.31,-9.301 -5.139,0 -9.302,4.163 -9.302,9.301 z"
   id="path164"
   inkscape:connector-curvature="0" />
</g>
<g
   id="CIRCLE_8_"
   transform="translate(-14.172,-14.173)">
	<path
   style="fill:#101820"
   d="m 121.603,203.291 c 0,-5.48 -4.437,-9.921 -9.917,-9.921 -5.48,0 -9.925,4.44 -9.925,9.921 0,5.479 4.445,9.921 9.925,9.921 5.48,0 9.917,-4.441 9.917,-9.921 z"
   id="path167"
   inkscape:connector-curvature="0" />
</g>
<g
   id="CIRCLE_9_"
   transform="translate(-14.172,-14.173)">
	<path
   style="fill:#101820"
   d="m 192.558,203.291 c 0,-5.48 -4.437,-9.921 -9.916,-9.921 -5.48,0 -9.925,4.44 -9.925,9.921 0,5.479 4.445,9.921 9.925,9.921 5.48,0 9.916,-4.441 9.916,-9.921 z"
   id="path170"
   inkscape:connector-curvature="0" />
</g>
<g
   id="CIRCLE_10_"
   transform="translate(-14.172,-14.173)">
	<path
   style="fill:#101820"
   d="m 257.376,202.996 c 0,-5.48 -4.446,-9.921 -9.926,-9.921 -5.48,0 -9.925,4.44 -9.925,9.921 0,5.479 4.445,9.921 9.925,9.921 5.48,0 9.926,-4.441 9.926,-9.921 z"
   id="path173"
   inkscape:connector-curvature="0" />
</g>
<g
   id="CIRCLE_11_"
   transform="translate(-14.172,-14.173)">
	<path
   style="fill:#101820"
   d="m 315.021,202.996 c 0,-5.48 -4.445,-9.921 -9.926,-9.921 -5.479,0 -9.925,4.44 -9.925,9.921 0,5.479 4.445,9.921 9.925,9.921 5.481,0 9.926,-4.441 9.926,-9.921 z"
   id="path176"
   inkscape:connector-curvature="0" />
</g>
</svg>