<?xml version="1.0" encoding="iso-8859-1"?>
<!-- Generator: Adobe Illustrator 16.0.0, SVG Export Plug-In . SVG Version: 6.00 Build 0)  -->
<!DOCTYPE svg PUBLIC "-//W3C//DTD SVG 1.1//EN" "http://www.w3.org/Graphics/SVG/1.1/DTD/svg11.dtd">
<svg version="1.1" id="Layer_1" xmlns="http://www.w3.org/2000/svg" xmlns:xlink="http://www.w3.org/1999/xlink" x="0px" y="0px"
	 width="425.197px" height="425.196px" viewBox="0 0 425.197 425.196" style="enable-background:new 0 0 425.197 425.196;"
	 xml:space="preserve">
<g id="CIRCLE_7_">
	<path style="fill:#FFCD00;" d="M411.025,212.601c0-109.59-88.84-198.428-198.428-198.428S14.172,103.01,14.172,212.601
		c0,109.583,88.837,198.423,198.425,198.423S411.025,322.184,411.025,212.601L411.025,212.601z"/>
</g>
<g id="CIRCLE_12_">
	<path style="fill:#E4002B;" d="M404.818,212.601c0-106.164-86.062-192.226-192.221-192.226
		c-106.16,0-192.223,86.062-192.223,192.226c0,106.159,86.063,192.221,192.223,192.221
		C318.756,404.821,404.818,318.76,404.818,212.601L404.818,212.601z"/>
</g>
<g id="CIRCLE_6_">
	<path style="fill:#FFCD00;" d="M364.501,212.601c0-83.898-68.006-151.911-151.904-151.911S60.693,128.702,60.693,212.601
		c0,83.894,68.006,151.904,151.904,151.904S364.501,296.494,364.501,212.601L364.501,212.601z"/>
</g>
<g id="LWPOLYLINE_6_">
	<path style="fill:#101820;" d="M292.101,202.996h-31.579c-0.171-7.22-6.172-12.931-13.388-12.755
		c-6.976,0.171-12.584,5.784-12.755,12.755h-38.513c-0.171-7.22-6.163-12.931-13.387-12.755
		c-6.977,0.171-12.584,5.784-12.755,12.755H124.92c-0.179-7.22-6.172-12.931-13.396-12.755c-6.967,0.171-12.584,5.784-12.755,12.755
		H82.39v-22.454l8.267-21.847h32.452v33.905h19.688v-4.57h-11.814v-42.885h83.864v53.281h13.474v-53.281h102.107v57.851h-12.183
		c-0.171-7.22-6.164-12.931-13.388-12.755C297.88,190.412,292.272,196.024,292.101,202.996z"/>
</g>
<g id="CIRCLE_8_">
	<path style="fill:#101820;" d="M121.603,203.291c0-5.48-4.437-9.921-9.917-9.921s-9.925,4.44-9.925,9.921
		c0,5.479,4.445,9.921,9.925,9.921S121.603,208.771,121.603,203.291L121.603,203.291z"/>
</g>
<g id="CIRCLE_9_">
	<path style="fill:#101820;" d="M192.558,203.291c0-5.48-4.437-9.921-9.916-9.921c-5.48,0-9.925,4.44-9.925,9.921
		c0,5.479,4.445,9.921,9.925,9.921C188.122,213.212,192.558,208.771,192.558,203.291L192.558,203.291z"/>
</g>
<g id="CIRCLE_10_">
	<path style="fill:#101820;" d="M257.376,202.996c0-5.48-4.446-9.921-9.926-9.921s-9.925,4.44-9.925,9.921
		c0,5.479,4.445,9.921,9.925,9.921S257.376,208.476,257.376,202.996L257.376,202.996z"/>
</g>
<g id="CIRCLE_11_">
	<path style="fill:#101820;" d="M315.021,202.996c0-5.48-4.445-9.921-9.926-9.921c-5.479,0-9.925,4.44-9.925,9.921
		c0,5.479,4.445,9.921,9.925,9.921C310.576,212.917,315.021,208.476,315.021,202.996L315.021,202.996z"/>
</g>
<g id="LWPOLYLINE_15_">
	<path style="fill:#101820;" d="M133.195,301.021v-11.639c2.659-15.461,9.139-30.007,18.868-42.313h14.883
		c-8.592,8.673-15.148,19.137-19.218,30.647c1.923-0.586,3.924-0.881,5.933-0.881c11.301,0,20.466,9.165,20.466,20.466v3.719
		c0,11.307-9.165,20.467-20.466,20.467C142.36,321.487,133.195,312.327,133.195,301.021z"/>
</g>
<g id="LWPOLYLINE_16_">
	<path style="fill:#101820;" d="M191.242,301.021c0,11.307,9.165,20.467,20.467,20.467c11.301,0,20.466-9.16,20.466-20.467v-33.485
		c0-11.302-9.165-20.466-20.466-20.466c-11.302,0-20.467,9.164-20.467,20.466V301.021z"/>
</g>
<g id="LWPOLYLINE_18_">
	<path style="fill:#101820;" d="M283.766,265.748h6.326v11.165h-6.326v27.164c0,3.492,2.83,6.326,6.326,6.326v11.16
		c-9.66,0-17.491-7.83-17.491-17.486v-27.164h-6.326v-11.165h6.326v-18.602h11.165V265.748z"/>
</g>
<g id="LWPOLYLINE_5_">
	<polyline style="fill:#FFCD00;" points="89.793,180.149 95.067,164.287 113.969,164.287 113.969,180.149 89.793,180.149 	"/>
</g>
<g id="LWPOLYLINE_14_">
	<path style="fill:#FFCD00;" d="M144.36,301.021c0,5.139,4.163,9.306,9.301,9.306c5.138,0,9.301-4.167,9.301-9.306v-3.719
		c0-5.138-4.163-9.301-9.301-9.301c-5.138,0-9.301,4.163-9.301,9.301V301.021z"/>
</g>
<g id="LWPOLYLINE_17_">
	<path style="fill:#FFCD00;" d="M202.407,301.021c0,5.139,4.163,9.306,9.302,9.306c5.138,0,9.301-4.167,9.301-9.306v-33.485
		c0-5.138-4.163-9.301-9.301-9.301c-5.139,0-9.302,4.163-9.302,9.301V301.021z"/>
</g>
</svg>
