<?xml version="1.0" encoding="iso-8859-1"?>
<!-- Generator: Adobe Illustrator 16.0.0, SVG Export Plug-In . SVG Version: 6.00 Build 0)  -->
<!DOCTYPE svg PUBLIC "-//W3C//DTD SVG 1.1//EN" "http://www.w3.org/Graphics/SVG/1.1/DTD/svg11.dtd">
<svg version="1.1" id="Layer_1" xmlns="http://www.w3.org/2000/svg" xmlns:xlink="http://www.w3.org/1999/xlink" x="0px" y="0px"
	 width="425.197px" height="425.196px" viewBox="0 0 425.197 425.196" style="enable-background:new 0 0 425.197 425.196;"
	 xml:space="preserve">
<g id="CIRCLE_7_">
	<path style="fill:#FFCD00;" d="M411.025,212.601c0-109.59-88.84-198.428-198.428-198.428S14.172,103.01,14.172,212.601
		c0,109.583,88.837,198.423,198.425,198.423S411.025,322.184,411.025,212.601L411.025,212.601z"/>
</g>
<g id="CIRCLE_12_">
	<path style="fill:#E4002B;" d="M404.818,212.601c0-106.164-86.062-192.226-192.221-192.226
		c-106.16,0-192.223,86.062-192.223,192.226c0,106.159,86.063,192.221,192.223,192.221
		C318.756,404.821,404.818,318.76,404.818,212.601L404.818,212.601z"/>
</g>
<g id="CIRCLE_6_">
	<path style="fill:#FFCD00;" d="M364.501,212.601c0-83.898-68.006-151.911-151.904-151.911S60.693,128.702,60.693,212.601
		c0,83.894,68.006,151.904,151.904,151.904S364.501,296.494,364.501,212.601L364.501,212.601z"/>
</g>
<g id="LWPOLYLINE_14_">
	<path style="fill:#101820;" d="M284.142,265.774h5.95v11.16h-5.95v27.062c0.137,3.309,2.668,6.014,5.95,6.382v11.186
		c-9.455-0.393-16.97-8.1-17.114-17.567v-27.062h-6.694v-11.16h6.694v-18.603h11.164V265.774z"/>
</g>
<g id="LWPOLYLINE_15_">
	<polygon style="fill:#101820;" points="155.525,247.082 166.69,247.082 166.69,295.456 172.64,295.456 172.64,306.62 
		166.69,306.62 166.69,321.504 155.525,321.504 155.525,306.62 127.989,306.62 127.989,295.456 	"/>
</g>
<g id="LWPOLYLINE_17_">
	<path style="fill:#101820;" d="M191.242,301.038c0,11.302,9.165,20.466,20.467,20.466c11.31,0,20.466-9.164,20.466-20.466v-33.49
		c0-11.302-9.165-20.466-20.466-20.466c-11.302,0-20.467,9.164-20.467,20.466V301.038z"/>
</g>
<g id="LWPOLYLINE_7_">
	<path style="fill:#101820;" d="M292.101,202.996h-31.579c-0.171-7.22-6.172-12.931-13.388-12.755
		c-6.976,0.171-12.584,5.784-12.755,12.755h-38.513c-0.171-7.22-6.163-12.931-13.387-12.755
		c-6.977,0.171-12.584,5.784-12.755,12.755H124.92c-0.179-7.22-6.172-12.931-13.396-12.755c-6.967,0.171-12.584,5.784-12.755,12.755
		H82.39v-22.454l8.267-21.847h32.452v33.905h19.688v-4.57h-11.814v-42.885h83.864v53.281h13.474v-53.281h102.107v57.851h-12.183
		c-0.171-7.22-6.164-12.931-13.388-12.755C297.88,190.412,292.272,196.024,292.101,202.996z"/>
</g>
<g id="LWPOLYLINE_6_">
	<polyline style="fill:#FFCD00;" points="89.793,180.149 95.067,164.287 113.969,164.287 113.969,180.149 89.793,180.149 	"/>
</g>
<g id="LWPOLYLINE_16_">
	<polygon style="fill:#FFCD00;" points="140.642,295.456 155.525,269.31 155.525,295.456 	"/>
</g>
<g id="LWPOLYLINE_18_">
	<path style="fill:#FFCD00;" d="M202.407,301.038c0,5.138,4.163,9.301,9.302,9.301c5.138,0,9.31-4.163,9.31-9.301v-33.49
		c0-5.138-4.172-9.301-9.31-9.301c-5.139,0-9.302,4.163-9.302,9.301V301.038z"/>
</g>
<g id="CIRCLE_8_">
	<path style="fill:#101820;" d="M121.603,203.291c0-5.48-4.437-9.921-9.917-9.921s-9.925,4.44-9.925,9.921
		c0,5.479,4.445,9.921,9.925,9.921S121.603,208.771,121.603,203.291L121.603,203.291z"/>
</g>
<g id="CIRCLE_9_">
	<path style="fill:#101820;" d="M192.558,203.291c0-5.48-4.437-9.921-9.916-9.921c-5.48,0-9.925,4.44-9.925,9.921
		c0,5.479,4.445,9.921,9.925,9.921C188.122,213.212,192.558,208.771,192.558,203.291L192.558,203.291z"/>
</g>
<g id="CIRCLE_10_">
	<path style="fill:#101820;" d="M257.376,202.996c0-5.48-4.446-9.921-9.926-9.921s-9.925,4.44-9.925,9.921
		c0,5.479,4.445,9.921,9.925,9.921S257.376,208.476,257.376,202.996L257.376,202.996z"/>
</g>
<g id="CIRCLE_11_">
	<path style="fill:#101820;" d="M315.021,202.996c0-5.48-4.445-9.921-9.926-9.921c-5.479,0-9.925,4.44-9.925,9.921
		c0,5.479,4.445,9.921,9.925,9.921C310.576,212.917,315.021,208.476,315.021,202.996L315.021,202.996z"/>
</g>
</svg>
