<?xml version="1.0" encoding="iso-8859-1"?>
<!-- Generator: Adobe Illustrator 16.0.0, SVG Export Plug-In . SVG Version: 6.00 Build 0)  -->
<!DOCTYPE svg PUBLIC "-//W3C//DTD SVG 1.1//EN" "http://www.w3.org/Graphics/SVG/1.1/DTD/svg11.dtd">
<svg version="1.1" id="Layer_1" xmlns="http://www.w3.org/2000/svg" xmlns:xlink="http://www.w3.org/1999/xlink" x="0px" y="0px"
	 width="425.197px" height="425.196px" viewBox="0 0 425.197 425.196" style="enable-background:new 0 0 425.197 425.196;"
	 xml:space="preserve">
<g id="CIRCLE_1_">
	<path style="fill:#FFCD00;" d="M411.025,212.599c0-109.584-88.84-198.423-198.43-198.423
		c-109.588,0-198.423,88.839-198.423,198.423c0,109.588,88.835,198.422,198.423,198.422
		C322.185,411.021,411.025,322.187,411.025,212.599L411.025,212.599z"/>
</g>
<g id="ELLIPSE_2_">
	<path style="fill:#E4002B;" d="M404.821,212.599c0-106.162-86.063-192.224-192.226-192.224
		c-106.162,0-192.223,86.062-192.223,192.224c0,106.166,86.062,192.227,192.223,192.227
		C318.758,404.825,404.821,318.765,404.821,212.599"/>
</g>
<g id="ELLIPSE_3_">
	<path style="fill:#FFCD00;" d="M364.486,212.599c0-83.885-68-151.889-151.891-151.889c-83.884,0-151.889,68.004-151.889,151.889
		c0,83.883,68.004,151.893,151.889,151.889C296.486,364.487,364.486,296.481,364.486,212.599"/>
</g>
<g id="LWPOLYLINE_6_">
	<path style="fill:#101820;" d="M134.013,263.622v-16.854c-0.334-6.5-5.875-11.496-12.376-11.162
		c-6.033,0.311-10.857,5.131-11.168,11.162v16.854c-8.458,4.568-11.61,15.127-7.043,23.586c1.61,2.984,4.058,5.434,7.043,7.047
		v16.844c0.383,6.502,5.96,11.467,12.462,11.084c5.969-0.348,10.73-5.113,11.083-11.084v-16.844h7.561v-7.402l57.95,1.889
		c1.627,7.264,8.833,11.83,16.091,10.203c5.097-1.137,9.064-5.113,10.21-10.203l58.343-1.889v7.402h7.565v16.844
		c0.333,6.502,5.87,11.508,12.372,11.168c6.032-0.311,10.856-5.131,11.163-11.168v-16.844c8.458-4.742,11.47-15.447,6.727-23.904
		c-1.578-2.822-3.904-5.15-6.727-6.729v-16.854c-0.379-6.5-5.961-11.461-12.462-11.082c-5.97,0.352-10.73,5.113-11.073,11.082
		v16.854h-7.565v7.404l-58.343-1.895c-1.993-7.258-9.495-11.533-16.757-9.545c-4.644,1.277-8.273,4.902-9.544,9.545l-57.95,1.895
		v-7.404H134.013z"/>
</g>
<g id="LWPOLYLINE_7_">
	<polygon style="fill:#101820;" points="249.731,206.417 212.595,243.646 175.367,206.417 	"/>
</g>
<g id="LWPOLYLINE_9_">
	<path style="fill:#101820;" d="M163.121,137.096c-5.149,4.833-8.066,11.583-8.066,18.643v6.511
		c0,14.121,11.447,25.573,25.573,25.573c14.125,0,25.573-11.452,25.573-25.573v-6.511c0-7.061-2.922-13.81-8.071-18.643
		c3.707-4.238,5.744-9.671,5.744-15.298v-3.724c0-12.841-10.406-23.247-23.247-23.247s-23.251,10.406-23.251,23.247v3.724
		C157.377,127.424,159.419,132.857,163.121,137.096z"/>
</g>
<g id="LWPOLYLINE_11_">
	<path style="fill:#101820;" d="M262.157,118.074h7.899v13.95h-7.899v33.946c0,4.364,3.535,7.903,7.899,7.903v13.95
		c-12.065,0-21.85-9.784-21.85-21.854v-33.946h-7.908v-13.95h7.908V94.827h13.95V118.074z"/>
</g>
<g id="LWPOLYLINE_8_">
	<path style="fill:#FFCD00;" d="M169.005,162.25c0,6.42,5.203,11.623,11.624,11.623s11.623-5.203,11.623-11.623v-6.511
		c0-6.42-5.203-11.623-11.623-11.623s-11.624,5.203-11.624,11.623V162.25z"/>
</g>
<g id="LWPOLYLINE_10_">
	<path style="fill:#FFCD00;" d="M171.327,118.074v3.724c0,5.131,4.166,9.297,9.302,9.297c5.135,0,9.297-4.166,9.297-9.297v-3.724
		c0-5.136-4.162-9.297-9.297-9.297C175.493,108.776,171.327,112.938,171.327,118.074z"/>
</g>
</svg>
