<?xml version="1.0" encoding="UTF-8" standalone="no"?>
<!-- Generator: Adobe Illustrator 16.0.0, SVG Export Plug-In . SVG Version: 6.00 Build 0)  -->

<svg
   xmlns:dc="http://purl.org/dc/elements/1.1/"
   xmlns:cc="http://creativecommons.org/ns#"
   xmlns:rdf="http://www.w3.org/1999/02/22-rdf-syntax-ns#"
   xmlns:svg="http://www.w3.org/2000/svg"
   xmlns="http://www.w3.org/2000/svg"
   xmlns:sodipodi="http://sodipodi.sourceforge.net/DTD/sodipodi-0.dtd"
   xmlns:inkscape="http://www.inkscape.org/namespaces/inkscape"
   version="1.1"
   id="Layer_1"
   x="0px"
   y="0px"
   width="396.849"
   height="396.85101"
   viewBox="0 0 396.84901 396.851"
   xml:space="preserve"
   sodipodi:docname="C26_7.svg"
   inkscape:version="0.92.5 (2060ec1f9f, 2020-04-08)"><metadata
   id="metadata677"><rdf:RDF><cc:Work
       rdf:about=""><dc:format>image/svg+xml</dc:format><dc:type
         rdf:resource="http://purl.org/dc/dcmitype/StillImage" /></cc:Work></rdf:RDF></metadata><defs
   id="defs675" /><sodipodi:namedview
   pagecolor="#ffffff"
   bordercolor="#666666"
   borderopacity="1"
   objecttolerance="10"
   gridtolerance="10"
   guidetolerance="10"
   inkscape:pageopacity="0"
   inkscape:pageshadow="2"
   inkscape:window-width="640"
   inkscape:window-height="480"
   id="namedview673"
   showgrid="false"
   inkscape:zoom="0.55503813"
   inkscape:cx="198.4245"
   inkscape:cy="198.42599"
   inkscape:window-x="0"
   inkscape:window-y="0"
   inkscape:window-maximized="0"
   inkscape:current-layer="Layer_1" />
<g
   id="CIRCLE_1_"
   transform="translate(-14.174,-14.173)">
	<path
   style="fill:#ffcd00"
   d="m 411.023,212.596 c 0,-109.586 -88.838,-198.423 -198.426,-198.423 -109.584,0 -198.423,88.837 -198.423,198.423 0,109.589 88.839,198.428 198.423,198.428 109.588,-10e-4 198.426,-88.839 198.426,-198.428 z"
   id="path645"
   inkscape:connector-curvature="0" />
</g>
<g
   id="ELLIPSE"
   transform="translate(-14.174,-14.173)">
	<path
   style="fill:#e4002b"
   d="m 404.822,212.596 c 0,-106.16 -86.061,-192.224 -192.225,-192.224 -106.161,0 -192.222,86.063 -192.222,192.224 0,106.165 86.062,192.227 192.222,192.227 106.164,-10e-4 192.225,-86.062 192.225,-192.227"
   id="path648"
   inkscape:connector-curvature="0" />
</g>
<g
   id="ELLIPSE_1_"
   transform="translate(-14.174,-14.173)">
	<path
   style="fill:#ffcd00"
   d="m 364.486,212.596 c 0,-83.885 -68,-151.888 -151.889,-151.888 -83.886,0 -151.886,68.002 -151.886,151.888 0,83.886 68,151.891 151.886,151.891 83.889,-0.001 151.889,-68.006 151.889,-151.891"
   id="path651"
   inkscape:connector-curvature="0" />
</g>
<g
   id="LWPOLYLINE_2_"
   transform="translate(-14.174,-14.173)">
	<path
   style="fill:#101820"
   d="M 134.015,263.621 V 246.77 c -0.333,-6.501 -5.876,-11.497 -12.377,-11.163 -6.035,0.308 -10.855,5.128 -11.163,11.163 v 16.852 c -8.462,4.568 -11.616,15.125 -7.047,23.587 1.611,2.982 4.06,5.432 7.047,7.043 v 16.852 c 0.38,6.5 5.958,11.462 12.458,11.082 5.971,-0.351 10.731,-5.111 11.082,-11.082 v -16.852 h 7.56 v -7.402 l 57.953,1.889 c 1.624,7.266 8.83,11.834 16.091,10.206 5.094,-1.137 9.068,-5.111 10.209,-10.206 l 58.346,-1.889 v 7.402 h 7.561 v 16.852 c 0.334,6.5 5.873,11.501 12.377,11.167 6.031,-0.312 10.855,-5.137 11.164,-11.167 v -16.852 c 8.457,-4.744 11.471,-15.445 6.727,-23.903 -1.578,-2.816 -3.906,-5.146 -6.727,-6.727 V 246.77 c -0.381,-6.501 -5.959,-11.463 -12.459,-11.082 -5.971,0.351 -10.736,5.115 -11.082,11.082 v 16.852 h -7.561 v 7.401 l -58.346,-1.889 c -1.991,-7.261 -9.492,-11.535 -16.752,-9.548 -4.646,1.273 -8.274,4.902 -9.548,9.548 l -57.953,1.889 v -7.401 h -7.56 z"
   id="path654"
   inkscape:connector-curvature="0" />
</g>
<g
   id="LWPOLYLINE_3_"
   transform="translate(-14.174,-14.173)">
	<polygon
   style="fill:#101820"
   points="175.372,206.416 249.732,206.416 212.597,243.645 "
   id="polygon657" />
</g>
<g
   id="LWPOLYLINE_10_"
   transform="translate(-14.174,-14.173)">
	<path
   style="fill:#101820"
   d="m 181.752,162.276 c 0,14.129 11.45,25.574 25.575,25.574 14.125,0 25.575,-11.445 25.575,-25.574 v -41.844 c 0,-14.125 -11.45,-25.575 -25.575,-25.575 -14.125,0 -25.575,11.45 -25.575,25.575 z"
   id="path660"
   inkscape:connector-curvature="0" />
</g>
<g
   id="LWPOLYLINE_12_"
   transform="translate(-14.174,-14.173)">
	<path
   style="fill:#101820"
   d="m 128.279,108.523 c 5.496,-2.846 9.629,-7.765 11.483,-13.667 h 14.091 v 92.995 h -13.95 v -71.607 l -10.219,1.861 z"
   id="path663"
   inkscape:connector-curvature="0" />
</g>
<g
   id="LWPOLYLINE_13_"
   transform="translate(-14.174,-14.173)">
	<path
   style="fill:#101820"
   d="m 288.832,117.575 h 7.906 v 13.948 h -7.906 v 33.947 c 0,4.363 3.539,7.902 7.906,7.902 v 13.95 c -12.072,0 -21.855,-9.783 -21.855,-21.852 v -33.947 h -7.906 v -13.948 h 7.906 V 94.326 h 13.949 z"
   id="path666"
   inkscape:connector-curvature="0" />
</g>
<g
   id="LWPOLYLINE_11_"
   transform="translate(-14.174,-14.173)">
	<path
   style="fill:#ffcd00"
   d="m 195.702,162.276 c 0,6.419 5.206,11.625 11.625,11.625 6.419,0 11.625,-5.206 11.625,-11.625 v -41.844 c 0,-6.421 -5.206,-11.625 -11.625,-11.625 -6.419,0 -11.625,5.204 -11.625,11.625 z"
   id="path669"
   inkscape:connector-curvature="0" />
</g>
</svg>