<?xml version="1.0" encoding="UTF-8" standalone="no"?>
<!-- Generator: Adobe Illustrator 16.0.0, SVG Export Plug-In . SVG Version: 6.00 Build 0)  -->

<svg
   xmlns:dc="http://purl.org/dc/elements/1.1/"
   xmlns:cc="http://creativecommons.org/ns#"
   xmlns:rdf="http://www.w3.org/1999/02/22-rdf-syntax-ns#"
   xmlns:svg="http://www.w3.org/2000/svg"
   xmlns="http://www.w3.org/2000/svg"
   xmlns:sodipodi="http://sodipodi.sourceforge.net/DTD/sodipodi-0.dtd"
   xmlns:inkscape="http://www.inkscape.org/namespaces/inkscape"
   version="1.1"
   id="Layer_1"
   x="0px"
   y="0px"
   width="396.849"
   height="396.84698"
   viewBox="0 0 396.84901 396.84697"
   xml:space="preserve"
   sodipodi:docname="C27.svg"
   inkscape:version="0.92.5 (2060ec1f9f, 2020-04-08)"><metadata
   id="metadata732"><rdf:RDF><cc:Work
       rdf:about=""><dc:format>image/svg+xml</dc:format><dc:type
         rdf:resource="http://purl.org/dc/dcmitype/StillImage" /></cc:Work></rdf:RDF></metadata><defs
   id="defs730" /><sodipodi:namedview
   pagecolor="#ffffff"
   bordercolor="#666666"
   borderopacity="1"
   objecttolerance="10"
   gridtolerance="10"
   guidetolerance="10"
   inkscape:pageopacity="0"
   inkscape:pageshadow="2"
   inkscape:window-width="640"
   inkscape:window-height="480"
   id="namedview728"
   showgrid="false"
   inkscape:zoom="0.55503813"
   inkscape:cx="198.4245"
   inkscape:cy="198.42399"
   inkscape:window-x="0"
   inkscape:window-y="0"
   inkscape:window-maximized="0"
   inkscape:current-layer="Layer_1" />
<g
   id="CIRCLE_25_"
   transform="translate(-14.174,-14.175)">
	<path
   style="fill:#ffcd00"
   d="m 411.023,212.601 c 0,-109.587 -88.835,-198.426 -198.424,-198.426 -109.586,0 -198.425,88.839 -198.425,198.426 0,109.586 88.839,198.421 198.425,198.421 109.589,-10e-4 198.424,-88.835 198.424,-198.421 z"
   id="path679"
   inkscape:connector-curvature="0" />
</g>
<g
   id="CIRCLE_24_"
   transform="translate(-14.174,-14.175)">
	<path
   style="fill:#e4002b"
   d="m 404.827,212.601 c 0,-106.164 -86.065,-192.226 -192.228,-192.226 -106.159,0 -192.22,86.062 -192.22,192.226 0,106.159 86.061,192.225 192.22,192.225 106.162,-0.001 192.228,-86.066 192.228,-192.225 z"
   id="path682"
   inkscape:connector-curvature="0" />
</g>
<g
   id="CIRCLE_23_"
   transform="translate(-14.174,-14.175)">
	<path
   style="fill:#ffcd00"
   d="m 364.522,212.601 c 0,-83.901 -68.02,-151.921 -151.923,-151.921 -83.9,0 -151.915,68.02 -151.915,151.921 0,83.901 68.015,151.92 151.915,151.92 83.903,0 151.923,-68.019 151.923,-151.92 z"
   id="path685"
   inkscape:connector-curvature="0" />
</g>
<g
   id="CIRCLE_21_"
   transform="translate(-14.174,-14.175)">
	<path
   style="fill:#101820"
   d="m 192.095,298.842 c 0,-21.054 -17.063,-38.117 -38.113,-38.117 -21.05,0 -38.117,17.063 -38.117,38.117 0,21.05 17.067,38.118 38.117,38.118 21.05,0 38.113,-17.068 38.113,-38.118 z"
   id="path688"
   inkscape:connector-curvature="0" />
</g>
<g
   id="ELLIPSE_6_"
   transform="translate(-14.174,-14.175)">
	<path
   style="fill:#ffcd00"
   d="m 174.694,298.842 c 0,-11.44 -9.275,-20.711 -20.712,-20.711 -11.439,0 -20.711,9.271 -20.711,20.711 0,11.44 9.271,20.712 20.711,20.712 11.436,0 20.712,-9.272 20.712,-20.712"
   id="path691"
   inkscape:connector-curvature="0" />
</g>
<g
   id="CIRCLE_26_"
   transform="translate(-14.174,-14.175)">
	<path
   style="fill:#101820"
   d="m 309.336,298.842 c 0,-21.054 -17.063,-38.117 -38.113,-38.117 -21.059,0 -38.122,17.063 -38.122,38.117 0,21.05 17.063,38.118 38.122,38.118 21.05,0 38.113,-17.068 38.113,-38.118 z"
   id="path694"
   inkscape:connector-curvature="0" />
</g>
<g
   id="ELLIPSE_7_"
   transform="translate(-14.174,-14.175)">
	<path
   style="fill:#ffcd00"
   d="m 250.507,298.842 c 0,-11.44 9.271,-20.711 20.716,-20.711 11.437,0 20.707,9.271 20.707,20.711 0,11.44 -9.271,20.712 -20.707,20.712 -11.444,0 -20.716,-9.272 -20.716,-20.712"
   id="path697"
   inkscape:connector-curvature="0" />
</g>
<g
   id="LWPOLYLINE_21_"
   transform="translate(-14.174,-14.175)">
	<path
   style="fill:#101820"
   d="m 134.389,110.599 c 5.497,-2.841 9.632,-7.765 11.49,-13.668 h 14.091 v 93.015 h -13.951 v -71.622 l -10.223,1.862 z"
   id="path700"
   inkscape:connector-curvature="0" />
</g>
<g
   id="LWPOLYLINE_22_"
   transform="translate(-14.174,-14.175)">
	<polygon
   style="fill:#101820"
   points="228.799,157.388 236.24,157.388 236.24,171.34 228.799,171.34 228.799,189.945 214.85,189.945 214.85,171.34 180.434,171.34 180.434,157.388 214.85,96.931 228.799,96.931 "
   id="polygon703" />
</g>
<g
   id="LWPOLYLINE_24_"
   transform="translate(-14.174,-14.175)">
	<path
   style="fill:#101820"
   d="m 282.903,120.186 h 7.909 v 13.952 h -7.909 v 33.946 c 0,4.37 3.535,7.909 7.909,7.909 v 13.952 c -12.076,0 -21.861,-9.785 -21.861,-21.861 v -33.946 h -7.909 v -13.952 h 7.909 V 96.931 h 13.952 z"
   id="path706"
   inkscape:connector-curvature="0" />
</g>
<g
   id="LWPOLYLINE_23_"
   transform="translate(-14.174,-14.175)">
	<polygon
   style="fill:#ffcd00"
   points="214.85,157.388 196.244,157.388 214.85,124.708 "
   id="polygon709" />
</g>
<g
   id="LWPOLYLINE_25_"
   transform="translate(-14.174,-14.175)">
	<path
   style="fill:#101820"
   d="m 197.754,306.783 c 0.947,-5.709 0.947,-11.535 0,-17.244 h 29.692 c -1.263,5.678 -1.263,11.566 0,17.244 z"
   id="path712"
   inkscape:connector-curvature="0" />
</g>
<g
   id="CIRCLE_22_"
   transform="translate(-14.174,-14.175)">
	<path
   style="fill:#101820"
   d="m 168.552,298.842 c 0,-8.049 -6.525,-14.569 -14.57,-14.569 -8.049,0 -14.569,6.521 -14.569,14.569 0,8.045 6.521,14.57 14.569,14.57 8.045,0 14.57,-6.525 14.57,-14.57 z"
   id="path715"
   inkscape:connector-curvature="0" />
</g>
<g
   id="LWPOLYLINE_26_"
   transform="translate(-14.174,-14.175)">
	<path
   style="fill:#101820"
   d="m 153.752,253.311 c -24.978,0.055 -45.197,20.311 -45.206,45.283 h -7.558 c 0,-0.054 0,-0.104 0,-0.153 0.018,-29.121 23.642,-52.71 52.764,-52.688 h 117.696 c 0.055,0 0.1,0 0.153,0 29.122,0.063 52.679,23.72 52.615,52.841 h -7.566 c -0.009,-24.973 -20.229,-45.229 -45.202,-45.283 z"
   id="path718"
   inkscape:connector-curvature="0" />
</g>
<g
   id="CIRCLE_27_"
   transform="translate(-14.174,-14.175)">
	<path
   style="fill:#101820"
   d="m 285.789,298.842 c 0,-8.049 -6.521,-14.569 -14.565,-14.569 -8.054,0 -14.574,6.521 -14.574,14.569 0,8.045 6.521,14.57 14.574,14.57 8.044,0 14.565,-6.525 14.565,-14.57 z"
   id="path721"
   inkscape:connector-curvature="0" />
</g>
<g
   id="LWPOLYLINE_27_"
   transform="translate(-14.174,-14.175)">
	<polygon
   style="fill:#101820"
   points="249.804,199.244 175.397,199.244 212.599,236.45 "
   id="polygon724" />
</g>
</svg>