<?xml version="1.0" encoding="UTF-8" standalone="no"?>
<!-- Generator: Adobe Illustrator 16.0.0, SVG Export Plug-In . SVG Version: 6.00 Build 0)  -->

<svg
   xmlns:dc="http://purl.org/dc/elements/1.1/"
   xmlns:cc="http://creativecommons.org/ns#"
   xmlns:rdf="http://www.w3.org/1999/02/22-rdf-syntax-ns#"
   xmlns:svg="http://www.w3.org/2000/svg"
   xmlns="http://www.w3.org/2000/svg"
   xmlns:sodipodi="http://sodipodi.sourceforge.net/DTD/sodipodi-0.dtd"
   xmlns:inkscape="http://www.inkscape.org/namespaces/inkscape"
   version="1.1"
   id="Layer_1"
   x="0px"
   y="0px"
   width="396.85101"
   height="396.85501"
   viewBox="0 0 396.85102 396.855"
   xml:space="preserve"
   sodipodi:docname="C3.svg"
   inkscape:version="0.92.5 (2060ec1f9f, 2020-04-08)"><metadata
   id="metadata2523"><rdf:RDF><cc:Work
       rdf:about=""><dc:format>image/svg+xml</dc:format><dc:type
         rdf:resource="http://purl.org/dc/dcmitype/StillImage" /></cc:Work></rdf:RDF></metadata><defs
   id="defs2521" /><sodipodi:namedview
   pagecolor="#ffffff"
   bordercolor="#666666"
   borderopacity="1"
   objecttolerance="10"
   gridtolerance="10"
   guidetolerance="10"
   inkscape:pageopacity="0"
   inkscape:pageshadow="2"
   inkscape:window-width="640"
   inkscape:window-height="480"
   id="namedview2519"
   showgrid="false"
   inkscape:zoom="0.55503813"
   inkscape:cx="198.4255"
   inkscape:cy="198.42799"
   inkscape:window-x="0"
   inkscape:window-y="0"
   inkscape:window-maximized="0"
   inkscape:current-layer="Layer_1" />
<path
   style="fill:#ffcd00"
   d="M 396.851,198.43 C 396.851,88.84 308.015,0 198.425,0 88.835,0 0,88.84 0,198.43 c 0,109.585 88.835,198.425 198.425,198.425 109.59,0 198.426,-88.84 198.426,-198.425 z"
   id="path2500"
   inkscape:connector-curvature="0" />
<path
   style="fill:#e4002b"
   d="M 390.654,198.43 C 390.654,92.263 304.588,6.201 198.425,6.201 92.262,6.201 6.197,92.263 6.197,198.43 c 0,106.162 86.066,192.224 192.229,192.224 106.163,0 192.228,-86.062 192.228,-192.224 z"
   id="path2502"
   inkscape:connector-curvature="0" />
<path
   style="fill:#ffcd00"
   d="m 294.33,316.255 c -55.851,45.46 -135.951,45.46 -191.802,0 C 37.455,263.289 27.634,167.602 80.605,102.529 Z"
   id="path2504"
   inkscape:connector-curvature="0" />
<path
   style="fill:#ffcd00"
   d="M 102.529,80.604 316.256,294.33 C 369.217,229.257 359.404,133.565 294.331,80.604 238.48,35.143 158.379,35.143 102.529,80.604 Z"
   id="path2506"
   inkscape:connector-curvature="0" />
<path
   style="fill:#101820"
   d="m 118.752,230.013 c 0,-8.692 -7.052,-15.74 -15.744,-15.74 -8.685,0 -15.736,7.048 -15.736,15.74 0,8.689 7.052,15.741 15.736,15.741 8.693,0 15.744,-7.052 15.744,-15.741"
   id="path2508"
   inkscape:connector-curvature="0" />
<path
   style="fill:#101820"
   d="m 88.664,167.222 h 42.465 v 46.222 h 5.864 17.668 v -5.89 h -17.668 v -48.636 l 71.116,71.116 h -86.058 c 0.162,-10.518 -8.231,-19.172 -18.745,-19.335 -10.514,-0.162 -19.173,8.231 -19.335,18.745 -0.009,0.197 -0.009,0.394 0,0.59 h -9.077 v -32.746 z"
   id="path2510"
   inkscape:connector-curvature="0" />
<polygon
   style="fill:#ffcd00"
   points="96.888,210.186 134.49,210.186 134.49,187.338 107.351,187.338 "
   id="polygon2512"
   transform="translate(-14.173,-14.171)" />
<path
   style="fill:#101820"
   d="m 322.888,152.785 v 56.619 h -24.284 v 5.89 h 17.668 v 14.771 l -36.96,0.021 c 0.162,-10.514 -8.231,-19.173 -18.754,-19.335 -7.334,-0.111 -14.086,4 -17.343,10.569 L 174.68,152.785 Z"
   id="path2514"
   inkscape:connector-curvature="0" />
<path
   style="fill:#101820"
   d="m 266.456,244.535 c 7.992,-3.419 11.701,-12.672 8.282,-20.659 -3.419,-7.992 -12.667,-11.697 -20.659,-8.278 -3.719,1.59 -6.685,4.547 -8.274,8.266 -0.009,0.017 0.009,0.038 0.025,0.043 l 0.052,0.051 z"
   id="path2516"
   inkscape:connector-curvature="0" />
</svg>