<?xml version="1.0" encoding="iso-8859-1"?>
<!-- Generator: Adobe Illustrator 16.0.0, SVG Export Plug-In . SVG Version: 6.00 Build 0)  -->
<!DOCTYPE svg PUBLIC "-//W3C//DTD SVG 1.1//EN" "http://www.w3.org/Graphics/SVG/1.1/DTD/svg11.dtd">
<svg version="1.1" id="Layer_1" xmlns="http://www.w3.org/2000/svg" xmlns:xlink="http://www.w3.org/1999/xlink" x="0px" y="0px"
	 width="425.197px" height="425.196px" viewBox="0 0 425.197 425.196" style="enable-background:new 0 0 425.197 425.196;"
	 xml:space="preserve">
<g id="CIRCLE_3_">
	<path style="fill:#FFCD00;" d="M411.023,212.599c0-109.587-88.838-198.425-198.424-198.425
		c-109.587,0-198.425,88.838-198.425,198.425c0,109.586,88.838,198.424,198.425,198.424
		C322.185,411.022,411.023,322.185,411.023,212.599L411.023,212.599z"/>
</g>
<g id="CIRCLE_4_">
	<path style="fill:#E4002B;" d="M404.824,212.599c0-106.163-86.063-192.225-192.225-192.225
		c-106.163,0-192.225,86.062-192.225,192.225c0,106.164,86.062,192.225,192.225,192.225
		C318.761,404.823,404.824,318.761,404.824,212.599L404.824,212.599z"/>
</g>
<g id="CIRCLE_5_">
	<path style="fill:#FFCD00;" d="M364.488,212.599c0-83.887-68.004-151.89-151.889-151.89c-83.887,0-151.89,68.003-151.89,151.89
		s68.003,151.889,151.89,151.889C296.484,364.487,364.488,296.485,364.488,212.599L364.488,212.599z"/>
</g>
<g id="LWPOLYLINE_8_">
	<polygon style="fill:#E4002B;" points="108.044,284.017 110.392,281.669 110.392,246.688 108.044,244.341 100.282,244.341 
		97.936,246.688 97.936,281.669 100.282,284.017 	"/>
</g>
<g id="LWPOLYLINE_9_">
	<path style="fill:#E4002B;" d="M212.409,140.923c-0.253-6.546-5.471-11.813-12.015-12.126h-90.445
		c-6.429,0.026-11.711,5.084-12.014,11.507v97.387l114.474,0.621V140.923z"/>
</g>
<g id="LWPOLYLINE_10_">
	<path style="fill:#E4002B;" d="M115.426,281.669v-34.98l2.347-2.348h7.762l2.347,2.348v10.84h18.291
		c2.106-2.785,5.413-4.404,8.906-4.357c3.547-0.057,6.915,1.559,9.093,4.357h18.29v-10.84l2.347-2.348h7.762l2.347,2.348v34.98
		l-2.347,2.348h-7.762l-2.347-2.348V270.94h-18.29c-2.251,2.703-5.554,4.311-9.071,4.414c-3.492,0.012-6.785-1.625-8.884-4.414
		h-18.334v10.729l-2.347,2.348h-7.762L115.426,281.669z"/>
</g>
<g id="LWPOLYLINE_11_">
	<polygon style="fill:#E4002B;" points="210.061,244.341 202.299,244.341 199.952,246.688 199.952,281.669 202.299,284.017 
		210.061,284.017 212.409,281.669 212.409,246.688 	"/>
</g>
<g id="LWPOLYLINE_12_">
	<path style="fill:#101820;" d="M318.189,283.497c0,1.848,1.502,3.348,3.35,3.348h9.377c1.848,0,3.348-1.5,3.348-3.348v-15.434
		h-16.074V283.497"/>
</g>
<g id="LWPOLYLINE_14_">
	<path style="fill:#101820;" d="M284.583,200.503h33.246c2.674,0,5.094,1.592,6.15,4.051l9.398,21.852
		c0.275,0.643,0.592,1.266,0.945,1.867l5.133,8.734c0.906,1.543,1.385,3.301,1.385,5.09v19.129
		c-0.004,1.273-0.736,2.434-1.885,2.986c-1.992,0.957-4.174,1.457-6.385,1.457h-47.988h-47.988c-2.209,0-4.391-0.5-6.385-1.457
		c-1.146-0.553-1.877-1.713-1.883-2.986v-19.129c0-1.789,0.479-3.547,1.387-5.09l5.131-8.734c0.355-0.602,0.67-1.225,0.945-1.867
		l9.398-21.852c1.057-2.459,3.477-4.051,6.152-4.051H284.583z"/>
</g>
<g id="LWPOLYLINE_15_">
	<path style="fill:#101820;" d="M250.978,283.497c0,1.848-1.498,3.348-3.348,3.348h-9.375c-1.852,0-3.35-1.5-3.35-3.348v-15.434
		h16.072V283.497"/>
</g>
<g id="LWPOLYLINE_13_">
	<path style="fill:#FFCD00;" d="M284.583,207.2h31.039c1.338,0,2.549,0.795,3.076,2.025l9.049,21.039h-43.164h-43.162l9.049-21.039
		c0.527-1.23,1.738-2.025,3.076-2.025H284.583z"/>
</g>
</svg>
