<?xml version="1.0" encoding="UTF-8" standalone="no"?>
<!-- Generator: Adobe Illustrator 16.0.0, SVG Export Plug-In . SVG Version: 6.00 Build 0)  -->

<svg
   xmlns:dc="http://purl.org/dc/elements/1.1/"
   xmlns:cc="http://creativecommons.org/ns#"
   xmlns:rdf="http://www.w3.org/1999/02/22-rdf-syntax-ns#"
   xmlns:svg="http://www.w3.org/2000/svg"
   xmlns="http://www.w3.org/2000/svg"
   xmlns:sodipodi="http://sodipodi.sourceforge.net/DTD/sodipodi-0.dtd"
   xmlns:inkscape="http://www.inkscape.org/namespaces/inkscape"
   version="1.1"
   id="Layer_1"
   x="0px"
   y="0px"
   width="396.849"
   height="396.849"
   viewBox="0 0 396.84901 396.84899"
   xml:space="preserve"
   sodipodi:docname="C30.svg"
   inkscape:version="0.92.5 (2060ec1f9f, 2020-04-08)"><metadata
   id="metadata992"><rdf:RDF><cc:Work
       rdf:about=""><dc:format>image/svg+xml</dc:format><dc:type
         rdf:resource="http://purl.org/dc/dcmitype/StillImage" /></cc:Work></rdf:RDF></metadata><defs
   id="defs990" /><sodipodi:namedview
   pagecolor="#ffffff"
   bordercolor="#666666"
   borderopacity="1"
   objecttolerance="10"
   gridtolerance="10"
   guidetolerance="10"
   inkscape:pageopacity="0"
   inkscape:pageshadow="2"
   inkscape:window-width="640"
   inkscape:window-height="480"
   id="namedview988"
   showgrid="false"
   inkscape:zoom="0.55503813"
   inkscape:cx="198.4245"
   inkscape:cy="198.42499"
   inkscape:window-x="0"
   inkscape:window-y="0"
   inkscape:window-maximized="0"
   inkscape:current-layer="Layer_1" />
<g
   id="CIRCLE_3_"
   transform="translate(-14.174,-14.174)">
	<path
   style="fill:#ffcd00"
   d="m 411.023,212.599 c 0,-109.587 -88.838,-198.425 -198.424,-198.425 -109.587,0 -198.425,88.838 -198.425,198.425 0,109.586 88.838,198.424 198.425,198.424 109.586,-0.001 198.424,-88.838 198.424,-198.424 z"
   id="path954"
   inkscape:connector-curvature="0" />
</g>
<g
   id="CIRCLE_4_"
   transform="translate(-14.174,-14.174)">
	<path
   style="fill:#e4002b"
   d="m 404.824,212.599 c 0,-106.163 -86.063,-192.225 -192.225,-192.225 -106.163,0 -192.225,86.062 -192.225,192.225 0,106.164 86.062,192.225 192.225,192.225 106.162,-0.001 192.225,-86.063 192.225,-192.225 z"
   id="path957"
   inkscape:connector-curvature="0" />
</g>
<g
   id="CIRCLE_5_"
   transform="translate(-14.174,-14.174)">
	<path
   style="fill:#ffcd00"
   d="m 364.488,212.599 c 0,-83.887 -68.004,-151.89 -151.889,-151.89 -83.887,0 -151.89,68.003 -151.89,151.89 0,83.887 68.003,151.889 151.89,151.889 83.885,-10e-4 151.889,-68.003 151.889,-151.889 z"
   id="path960"
   inkscape:connector-curvature="0" />
</g>
<g
   id="LWPOLYLINE_8_"
   transform="translate(-14.174,-14.174)">
	<polygon
   style="fill:#e4002b"
   points="110.392,246.688 108.044,244.341 100.282,244.341 97.936,246.688 97.936,281.669 100.282,284.017 108.044,284.017 110.392,281.669 "
   id="polygon963" />
</g>
<g
   id="LWPOLYLINE_9_"
   transform="translate(-14.174,-14.174)">
	<path
   style="fill:#e4002b"
   d="m 212.409,140.923 c -0.253,-6.546 -5.471,-11.813 -12.015,-12.126 h -90.445 c -6.429,0.026 -11.711,5.084 -12.014,11.507 v 97.387 l 114.474,0.621 z"
   id="path966"
   inkscape:connector-curvature="0" />
</g>
<g
   id="LWPOLYLINE_10_"
   transform="translate(-14.174,-14.174)">
	<path
   style="fill:#e4002b"
   d="m 115.426,281.669 v -34.98 l 2.347,-2.348 h 7.762 l 2.347,2.348 v 10.84 h 18.291 c 2.106,-2.785 5.413,-4.404 8.906,-4.357 3.547,-0.057 6.915,1.559 9.093,4.357 h 18.29 v -10.84 l 2.347,-2.348 h 7.762 l 2.347,2.348 v 34.98 l -2.347,2.348 h -7.762 l -2.347,-2.348 V 270.94 h -18.29 c -2.251,2.703 -5.554,4.311 -9.071,4.414 -3.492,0.012 -6.785,-1.625 -8.884,-4.414 h -18.334 v 10.729 l -2.347,2.348 h -7.762 z"
   id="path969"
   inkscape:connector-curvature="0" />
</g>
<g
   id="LWPOLYLINE_11_"
   transform="translate(-14.174,-14.174)">
	<polygon
   style="fill:#e4002b"
   points="199.952,246.688 199.952,281.669 202.299,284.017 210.061,284.017 212.409,281.669 212.409,246.688 210.061,244.341 202.299,244.341 "
   id="polygon972" />
</g>
<g
   id="LWPOLYLINE_12_"
   transform="translate(-14.174,-14.174)">
	<path
   style="fill:#101820"
   d="m 318.189,283.497 c 0,1.848 1.502,3.348 3.35,3.348 h 9.377 c 1.848,0 3.348,-1.5 3.348,-3.348 V 268.063 H 318.19 v 15.434"
   id="path975"
   inkscape:connector-curvature="0" />
</g>
<g
   id="LWPOLYLINE_14_"
   transform="translate(-14.174,-14.174)">
	<path
   style="fill:#101820"
   d="m 284.583,200.503 h 33.246 c 2.674,0 5.094,1.592 6.15,4.051 l 9.398,21.852 c 0.275,0.643 0.592,1.266 0.945,1.867 l 5.133,8.734 c 0.906,1.543 1.385,3.301 1.385,5.09 v 19.129 c -0.004,1.273 -0.736,2.434 -1.885,2.986 -1.992,0.957 -4.174,1.457 -6.385,1.457 h -47.988 -47.988 c -2.209,0 -4.391,-0.5 -6.385,-1.457 -1.146,-0.553 -1.877,-1.713 -1.883,-2.986 v -19.129 c 0,-1.789 0.479,-3.547 1.387,-5.09 l 5.131,-8.734 c 0.355,-0.602 0.67,-1.225 0.945,-1.867 l 9.398,-21.852 c 1.057,-2.459 3.477,-4.051 6.152,-4.051 z"
   id="path978"
   inkscape:connector-curvature="0" />
</g>
<g
   id="LWPOLYLINE_15_"
   transform="translate(-14.174,-14.174)">
	<path
   style="fill:#101820"
   d="m 250.978,283.497 c 0,1.848 -1.498,3.348 -3.348,3.348 h -9.375 c -1.852,0 -3.35,-1.5 -3.35,-3.348 v -15.434 h 16.072 v 15.434"
   id="path981"
   inkscape:connector-curvature="0" />
</g>
<g
   id="LWPOLYLINE_13_"
   transform="translate(-14.174,-14.174)">
	<path
   style="fill:#ffcd00"
   d="m 284.583,207.2 h 31.039 c 1.338,0 2.549,0.795 3.076,2.025 l 9.049,21.039 h -43.164 -43.162 l 9.049,-21.039 c 0.527,-1.23 1.738,-2.025 3.076,-2.025 z"
   id="path984"
   inkscape:connector-curvature="0" />
</g>
</svg>