<?xml version="1.0" encoding="iso-8859-1"?>
<!-- Generator: Adobe Illustrator 16.0.0, SVG Export Plug-In . SVG Version: 6.00 Build 0)  -->
<!DOCTYPE svg PUBLIC "-//W3C//DTD SVG 1.1//EN" "http://www.w3.org/Graphics/SVG/1.1/DTD/svg11.dtd">
<svg version="1.1" id="Layer_1" xmlns="http://www.w3.org/2000/svg" xmlns:xlink="http://www.w3.org/1999/xlink" x="0px" y="0px"
	 width="425.197px" height="425.196px" viewBox="0 0 425.197 425.196" style="enable-background:new 0 0 425.197 425.196;"
	 xml:space="preserve">
<g id="CIRCLE_3_">
	<path style="fill:#FFCD00;" d="M411.023,212.601c0-109.587-88.835-198.426-198.421-198.426
		c-109.589,0-198.428,88.839-198.428,198.426c0,109.586,88.839,198.421,198.428,198.421
		C322.188,411.021,411.023,322.187,411.023,212.601L411.023,212.601z"/>
</g>
<g id="CIRCLE_4_">
	<path style="fill:#E4002B;" d="M404.827,212.601c0-106.164-86.065-192.226-192.225-192.226
		c-106.162,0-192.223,86.062-192.223,192.226c0,106.159,86.061,192.225,192.223,192.225
		C318.761,404.825,404.827,318.76,404.827,212.601L404.827,212.601z"/>
</g>
<g id="CIRCLE_5_">
	<path style="fill:#FFCD00;" d="M364.522,212.601c0-83.901-68.02-151.921-151.92-151.921c-83.903,0-151.918,68.02-151.918,151.921
		s68.015,151.92,151.918,151.92C296.502,364.521,364.522,296.502,364.522,212.601L364.522,212.601z"/>
</g>
<g id="LWPOLYLINE_4_">
	<path style="fill:#101820;" d="M225.002,254.456c0,28.251,22.898,51.154,51.154,51.154s51.154-22.903,51.154-51.154v-83.712
		c0-28.255-22.898-51.154-51.154-51.154s-51.154,22.899-51.154,51.154V254.456z"/>
</g>
<g id="LWPOLYLINE_5_">
	<path style="fill:#101820;" d="M99.749,254.456v-29.104c6.638-38.636,22.854-74.999,47.158-105.763h37.205
		c-21.465,21.682-37.867,47.836-48.031,76.602c4.807-1.457,9.799-2.196,14.822-2.196c28.248,0,51.156,22.907,51.156,51.158v9.303
		c0,28.251-22.908,51.154-51.156,51.154C122.651,305.61,99.749,282.707,99.749,254.456z"/>
</g>
<g id="LWPOLYLINE_6_">
	<path style="fill:#FFCD00;" d="M127.648,245.153v9.303c0,12.843,10.412,23.251,23.255,23.251c12.845,0,23.252-10.408,23.252-23.251
		v-9.303c0-12.843-10.407-23.255-23.252-23.255C138.06,221.898,127.648,232.311,127.648,245.153z"/>
</g>
<g id="LWPOLYLINE_7_">
	<path style="fill:#FFCD00;" d="M252.907,254.456c0,12.843,10.407,23.251,23.25,23.251s23.25-10.408,23.25-23.251v-83.712
		c0-12.843-10.407-23.25-23.25-23.25s-23.25,10.407-23.25,23.25V254.456z"/>
</g>
</svg>
