<?xml version="1.0" encoding="iso-8859-1"?>
<!-- Generator: Adobe Illustrator 16.0.0, SVG Export Plug-In . SVG Version: 6.00 Build 0)  -->
<!DOCTYPE svg PUBLIC "-//W3C//DTD SVG 1.1//EN" "http://www.w3.org/Graphics/SVG/1.1/DTD/svg11.dtd">
<svg version="1.1" id="Layer_1" xmlns="http://www.w3.org/2000/svg" xmlns:xlink="http://www.w3.org/1999/xlink" x="0px" y="0px"
	 width="425.197px" height="425.196px" viewBox="0 0 425.197 425.196" style="enable-background:new 0 0 425.197 425.196;"
	 xml:space="preserve">
<g id="CIRCLE_3_">
	<path style="fill:#FFCD00;" d="M322.076,123.648c0-60.463-49.016-109.475-109.479-109.475
		c-60.461,0-109.477,49.011-109.477,109.475c0,60.459,49.016,109.475,109.477,109.475
		C273.06,233.123,322.076,184.107,322.076,123.648L322.076,123.648z"/>
</g>
<g id="LWPOLYLINE_111_">
	<rect x="103.121" y="239.968" style="fill:#FFCD00;" width="218.955" height="171.055"/>
</g>
<g id="CIRCLE_4_">
	<path style="fill:#E4002B;" d="M318.649,123.648c0-58.573-47.482-106.056-106.052-106.056c-58.57,0-106.054,47.483-106.054,106.056
		c0,58.572,47.483,106.056,106.054,106.056C271.167,229.704,318.649,182.221,318.649,123.648L318.649,123.648z"/>
</g>
<g id="LWPOLYLINE_113_">
	<path style="fill:#E4002B;" d="M116.807,411.022h191.579c7.562,0,13.689-6.128,13.689-13.687V253.649
		c0-7.558-6.128-13.682-13.689-13.682H116.807c-7.559,0-13.687,6.124-13.687,13.682v143.687
		C103.121,404.895,109.249,411.022,116.807,411.022z"/>
</g>
<g id="CIRCLE_5_">
	<path style="fill:#FFCD00;" d="M296.417,123.648c0-46.295-37.529-83.816-83.82-83.816c-46.292,0-83.817,37.521-83.817,83.816
		c0,46.29,37.525,83.815,83.817,83.815C258.888,207.464,296.417,169.938,296.417,123.648L296.417,123.648z"/>
</g>
<g id="LWPOLYLINE_112_">
	<path style="fill:#FFCD00;" d="M116.807,404.182h191.579c3.78,0,6.845-3.064,6.845-6.846V253.649c0-3.781-3.064-6.841-6.845-6.841
		H116.807c-3.781,0-6.845,3.06-6.845,6.841v143.687C109.962,401.117,113.026,404.182,116.807,404.182z"/>
</g>
<g id="LWPOLYLINE_6_">
	<path style="fill:#101820;" d="M219.442,146.741c0,15.587,12.633,28.224,28.225,28.224c15.583,0,28.224-12.637,28.224-28.224
		v-46.185c0-15.587-12.641-28.224-28.224-28.224c-15.592,0-28.225,12.637-28.225,28.224V146.741z"/>
</g>
<g id="LWPOLYLINE_7_">
	<path style="fill:#101820;" d="M158.211,118.98c-5.683,5.335-8.905,12.78-8.905,20.576v7.184c0,15.587,12.637,28.224,28.225,28.224
		c15.589,0,28.222-12.637,28.222-28.224v-7.184c0-7.796-3.223-15.241-8.904-20.576c4.09-4.679,6.339-10.678,6.339-16.885V97.99
		c0-14.172-11.486-25.658-25.656-25.658c-14.169,0-25.659,11.486-25.659,25.658v4.105
		C151.872,108.302,154.125,114.302,158.211,118.98z"/>
</g>
<g id="LWPOLYLINE_64_">
	<polygon style="fill:#101820;" points="166.207,344.653 161.83,344.653 169.082,317.282 173.735,317.282 180.985,344.653 
		176.606,344.653 175.375,339.997 167.437,339.997 	"/>
</g>
<g id="LWPOLYLINE_65_">
	<rect x="184.819" y="317.282" style="fill:#101820;" width="4.104" height="27.371"/>
</g>
<g id="LWPOLYLINE_66_">
	<rect x="194.395" y="317.282" style="fill:#101820;" width="4.105" height="27.371"/>
</g>
<g id="LWPOLYLINE_67_">
	<path style="fill:#101820;" d="M215.91,325.289c-0.89-0.755-2.015-1.162-3.177-1.162c-1.652,0.204-3.237,0.763-4.648,1.638v-1.638
		h-4.105v20.526h4.105v-14.508c0-1.514,1.223-2.735,2.731-2.735c1.518,0,2.739,1.222,2.739,2.735v14.508h4.105v-14.508
		c0-1.514,1.223-2.735,2.739-2.735c1.51,0,2.732,1.222,2.732,2.735v14.508h4.105V329.01c-0.188-2.63-2.294-4.717-4.928-4.883
		C220.114,323.84,217.873,324.248,215.91,325.289z"/>
</g>
<g id="LWPOLYLINE_68_">
	<rect x="240.105" y="317.282" style="fill:#101820;" width="4.104" height="4.105"/>
</g>
<g id="LWPOLYLINE_69_">
	<rect x="232.716" y="317.282" style="fill:#101820;" width="4.105" height="4.105"/>
</g>
<g id="LWPOLYLINE_70_">
	<path style="fill:#101820;" d="M244.753,344.653h-4.105v-1.316c-1.646,0.891-3.494,1.343-5.373,1.313
		c-1.684,0.045-3.2-1.016-3.735-2.615c-0.665-2.098-0.099-4.396,1.456-5.95c2-2.147,4.731-3.461,7.652-3.676v-2.124
		c0-1.136-0.913-2.053-2.053-2.053c-1.132,0-2.053,0.917-2.053,2.053h-4.105c0-3.403,2.762-6.158,6.158-6.158
		c3.403,0,6.158,2.755,6.158,6.158V344.653z"/>
</g>
<g id="LWPOLYLINE_72_">
	<path style="fill:#101820;" d="M263.363,329.19v15.463h-4.105v-14.508c0-1.514-1.223-2.735-2.731-2.735
		c-1.517,0-2.739,1.222-2.739,2.735v14.508h-4.105v-20.526h4.105v1.638c1.411-0.875,3.003-1.434,4.656-1.638
		c2.717,0,4.92,2.204,4.92,4.924V329.19z"/>
</g>
<g id="LWPOLYLINE_73_">
	<path style="fill:#101820;" d="M136.922,367.505l-0.012,11.256c-0.46,2.373-2.498,4.12-4.916,4.207
		c-1.646-0.208-3.23-0.759-4.653-1.619v1.619h-4.104V355.6h4.104v8.486c1.415-0.883,3.004-1.441,4.653-1.645
		c2.72,0,4.928,2.203,4.928,4.928V367.505z"/>
</g>
<g id="LWPOLYLINE_75_">
	<path style="fill:#101820;" d="M150.608,376.127h4.105c0,3.776-3.064,6.841-6.845,6.841c-3.777,0-6.841-3.064-6.841-6.841v-6.841
		c0-3.781,3.063-6.845,6.841-6.845c3.78,0,6.845,3.063,6.845,6.845v3.829h-9.58v3.012c0,1.513,1.226,2.735,2.735,2.735
		C149.381,378.862,150.608,377.64,150.608,376.127z"/>
</g>
<g id="LWPOLYLINE_77_">
	<path style="fill:#101820;" d="M168.395,381.873c-1.411,0.876-3,1.438-4.652,1.642c-2.721,0-4.924-2.207-4.924-4.924v-0.136
		l0.011-11.26c0.457-2.377,2.494-4.12,4.913-4.207c1.649,0.207,3.233,0.758,4.652,1.618v-1.618h4.105v18.885
		c0,0.959-0.211,1.91-0.615,2.781c-1.535,3.287-5.444,4.705-8.731,3.17l1.736-3.717c1.233,0.573,2.697,0.041,3.274-1.192
		C168.316,382.591,168.395,382.235,168.395,381.873z"/>
</g>
<g id="LWPOLYLINE_79_">
	<path style="fill:#101820;" d="M181.536,368.734v14.233h-4.107v-20.526h4.107v1.102c1.441-0.725,3.034-1.102,4.648-1.102v4.339
		c-1.079-1.057-2.807-1.041-3.871,0.038C181.815,367.331,181.536,368.018,181.536,368.734z"/>
</g>
<g id="LWPOLYLINE_80_">
	<rect x="197.134" y="355.6" style="fill:#101820;" width="4.105" height="4.105"/>
</g>
<g id="LWPOLYLINE_81_">
	<rect x="189.747" y="355.6" style="fill:#101820;" width="4.105" height="4.105"/>
</g>
<g id="LWPOLYLINE_82_">
	<path style="fill:#101820;" d="M201.783,382.968h-4.104v-1.313c-1.646,0.891-3.494,1.344-5.366,1.313
		c-1.69,0.045-3.207-1.019-3.735-2.619c-0.672-2.098-0.105-4.392,1.449-5.946c2-2.147,4.731-3.456,7.652-3.675v-2.129
		c0-1.132-0.913-2.053-2.053-2.053c-1.133,0-2.053,0.921-2.053,2.053h-4.105c0-3.399,2.762-6.157,6.158-6.157
		c3.403,0,6.157,2.758,6.157,6.157V382.968z"/>
</g>
<g id="LWPOLYLINE_84_">
	<path style="fill:#101820;" d="M220.4,367.505v15.463h-4.104v-14.505c0-1.513-1.23-2.739-2.74-2.739
		c-1.509,0-2.739,1.227-2.739,2.739v14.505h-4.105v-20.526h4.105v1.645c1.419-0.883,3.004-1.441,4.656-1.645
		c2.717,0,4.928,2.203,4.928,4.928V367.505z"/>
</g>
<g id="LWPOLYLINE_85_">
	<path style="fill:#101820;" d="M224.226,376.127c0,3.776,3.064,6.841,6.845,6.841h0.552c3.32,0,6.015-2.694,6.015-6.022
		c0-2.143-1.133-4.12-2.989-5.199l-4.543-2.649c-0.415-0.245-0.679-0.694-0.679-1.181c0-0.759,0.618-1.37,1.373-1.37h0.823
		c0.754,0,1.365,0.611,1.365,1.37h4.105c0-3.022-2.452-5.475-5.471-5.475h-0.823c-3.026,0-5.479,2.452-5.479,5.475
		c0,1.947,1.034,3.747,2.717,4.728l4.543,2.649c0.589,0.34,0.951,0.974,0.951,1.652c0,1.061-0.854,1.917-1.909,1.917h-0.552
		c-1.509,0-2.739-1.223-2.739-2.735H224.226z"/>
</g>
<g id="LWPOLYLINE_86_">
	<path style="fill:#101820;" d="M255.975,367.505v15.463h-4.105v-14.505c0-1.513-1.223-2.739-2.731-2.739
		c-1.518,0-2.74,1.227-2.74,2.739v14.505h-4.104v-20.526h4.104v1.645c1.412-0.883,3.004-1.441,4.649-1.645
		c2.724,0,4.928,2.203,4.928,4.928V367.505z"/>
</g>
<g id="LWPOLYLINE_87_">
	<rect x="260.903" y="362.441" style="fill:#101820;" width="4.105" height="20.526"/>
</g>
<g id="LWPOLYLINE_88_">
	<rect x="260.903" y="355.6" style="fill:#101820;" width="4.105" height="4.105"/>
</g>
<g id="LWPOLYLINE_89_">
	<path style="fill:#101820;" d="M284.169,367.505v15.463h-4.105v-14.505c0-1.513-1.23-2.739-2.739-2.739
		c-1.51,0-2.74,1.227-2.74,2.739v14.505h-4.104v-20.526h4.104v1.645c1.419-0.883,3.004-1.441,4.656-1.645
		c2.717,0,4.929,2.203,4.929,4.928V367.505z"/>
</g>
<g id="LWPOLYLINE_90_">
	<path style="fill:#101820;" d="M297.851,381.873c-1.411,0.876-3.004,1.438-4.656,1.642c-2.717,0-4.921-2.207-4.921-4.924v-0.136
		l0.008-11.26c0.461-2.377,2.498-4.12,4.913-4.207c1.652,0.207,3.237,0.758,4.656,1.618v-1.618h4.105v18.885
		c0,0.959-0.212,1.91-0.619,2.781c-1.532,3.287-5.441,4.705-8.731,3.17l1.735-3.717c1.238,0.573,2.702,0.041,3.275-1.192
		C297.776,382.591,297.851,382.235,297.851,381.873z"/>
</g>
<g id="LWPOLYLINE_92_">
	<polygon style="fill:#101820;" points="129.942,295.39 131.995,295.39 131.995,284.439 138.839,268.019 134.186,268.019 
		129.942,278.198 125.701,268.019 121.048,268.019 127.889,284.439 127.889,295.39 	"/>
</g>
<g id="LWPOLYLINE_93_">
	<rect x="141.575" y="268.019" style="fill:#101820;" width="4.105" height="27.371"/>
</g>
<g id="LWPOLYLINE_94_">
	<path style="fill:#101820;" d="M159.913,288.545h4.105c0,3.78-3.063,6.845-6.845,6.845c-3.777,0-6.841-3.064-6.841-6.845v-6.841
		c0-3.777,3.063-6.841,6.841-6.841c3.781,0,6.845,3.063,6.845,6.841v3.83h-9.58v3.011c0,1.509,1.227,2.739,2.735,2.739
		C158.686,291.284,159.913,290.054,159.913,288.545z"/>
</g>
<g id="LWPOLYLINE_96_">
	<rect x="168.942" y="274.863" style="fill:#101820;" width="4.105" height="20.526"/>
</g>
<g id="LWPOLYLINE_97_">
	<rect x="168.942" y="268.019" style="fill:#101820;" width="4.105" height="4.104"/>
</g>
<g id="LWPOLYLINE_98_">
	<path style="fill:#101820;" d="M177.428,288.545c0,3.78,3.066,6.845,6.839,6.845h0.552c3.327,0,6.021-2.698,6.021-6.022
		c0-2.143-1.14-4.124-2.988-5.203l-4.543-2.646c-0.423-0.249-0.679-0.697-0.679-1.185c0-0.755,0.61-1.366,1.365-1.366h0.823
		c0.754,0,1.365,0.611,1.365,1.366h4.105c0-3.022-2.452-5.471-5.471-5.471h-0.823c-3.019,0-5.473,2.448-5.473,5.471
		c0,1.947,1.033,3.751,2.719,4.731l4.543,2.646c0.588,0.344,0.95,0.974,0.95,1.656c0,1.057-0.86,1.917-1.916,1.917h-0.552
		c-1.509,0-2.731-1.23-2.731-2.739H177.428z"/>
</g>
<g id="LWPOLYLINE_99_">
	<path style="fill:#101820;" d="M199.594,281.156v14.233h-4.104v-20.526h4.104v1.094c1.449-0.721,3.042-1.094,4.656-1.094v4.339
		c-1.079-1.057-2.814-1.041-3.871,0.038C199.881,279.753,199.594,280.439,199.594,281.156z"/>
</g>
<g id="LWPOLYLINE_100_">
	<path style="fill:#101820;" d="M219.849,295.39h-4.105v-1.317c-1.645,0.891-3.501,1.344-5.373,1.313
		c-1.683,0.045-3.199-1.015-3.735-2.615c-0.664-2.098-0.105-4.396,1.457-5.95c1.999-2.146,4.731-3.46,7.651-3.675v-2.125
		c0-1.136-0.92-2.053-2.052-2.053c-1.133,0-2.053,0.917-2.053,2.053h-4.105c0-3.403,2.754-6.157,6.158-6.157
		c3.403,0,6.157,2.754,6.157,6.157V295.39z"/>
</g>
<g id="LWPOLYLINE_102_">
	<path style="fill:#101820;" d="M228.882,274.863v19.976c0,3.328-2.693,6.022-6.021,6.022h-0.551l0.551-4.105
		c1.057,0,1.917-0.856,1.917-1.917v-19.976H228.882z"/>
</g>
<g id="LWPOLYLINE_103_">
	<rect x="224.778" y="268.019" style="fill:#101820;" width="4.104" height="4.104"/>
</g>
<g id="LWPOLYLINE_104_">
	<path style="fill:#101820;" d="M233.811,288.545c0,3.78,3.063,6.845,6.837,6.845c3.781,0,6.845-3.064,6.845-6.845v-6.841
		c0-3.777-3.063-6.841-6.845-6.841c-3.773,0-6.837,3.063-6.837,6.841V288.545z"/>
</g>
<g id="LWPOLYLINE_106_">
	<rect x="252.42" y="274.863" style="fill:#101820;" width="4.105" height="20.526"/>
</g>
<g id="LWPOLYLINE_107_">
	<rect x="252.42" y="268.019" style="fill:#101820;" width="4.105" height="4.104"/>
</g>
<g id="LWPOLYLINE_108_">
	<path style="fill:#101820;" d="M266.79,274.863h2.324v4.104h-2.324v9.988c0,1.287,1.041,2.328,2.324,2.328v4.105
		c-3.555,0-6.43-2.883-6.43-6.434v-9.988h-2.332v-4.104h2.332v-6.845h4.105V274.863z"/>
</g>
<g id="LWPOLYLINE_109_">
	<path style="fill:#101820;" d="M272.668,290.326v-15.463h4.104v14.504c0,1.51,1.23,2.736,2.74,2.736
		c1.509,0,2.739-1.227,2.739-2.736v-14.504h4.105v20.526h-4.105v-1.646c-1.419,0.88-3.004,1.441-4.656,1.646
		c-2.717,0-4.928-2.207-4.928-4.928V290.326z"/>
</g>
<g id="LWPOLYLINE_110_">
	<path style="fill:#101820;" d="M290.735,288.545c0,3.78,3.063,6.845,6.845,6.845h0.543c3.328,0,6.022-2.698,6.022-6.022
		c0-2.143-1.14-4.124-2.988-5.203l-4.543-2.646c-0.423-0.249-0.68-0.697-0.68-1.185c0-0.755,0.611-1.366,1.366-1.366h0.822
		c0.755,0,1.374,0.611,1.374,1.366h4.104c0-3.022-2.452-5.471-5.479-5.471H297.3c-3.019,0-5.472,2.448-5.472,5.471
		c0,1.947,1.034,3.751,2.717,4.731l4.543,2.646c0.589,0.344,0.951,0.974,0.951,1.656c0,1.057-0.86,1.917-1.917,1.917h-0.543
		c-1.518,0-2.739-1.23-2.739-2.739H290.735z"/>
</g>
<g id="LWPOLYLINE_8_">
	<path style="fill:#FFCD00;" d="M164.701,146.741c0,7.083,5.743,12.83,12.83,12.83c7.084,0,12.827-5.747,12.827-12.83v-7.184
		c0-7.086-5.743-12.83-12.827-12.83c-7.087,0-12.83,5.743-12.83,12.83V146.741z"/>
</g>
<g id="LWPOLYLINE_9_">
	<path style="fill:#FFCD00;" d="M167.267,97.99v4.105c0,5.667,4.596,10.263,10.264,10.263c5.665,0,10.261-4.596,10.261-10.263V97.99
		c0-5.671-4.596-10.263-10.261-10.263C171.863,87.727,167.267,92.318,167.267,97.99z"/>
</g>
<g id="LWPOLYLINE_10_">
	<path style="fill:#FFCD00;" d="M234.837,146.741c0,7.083,5.742,12.83,12.829,12.83c7.086,0,12.829-5.747,12.829-12.83v-46.185
		c0-7.086-5.743-12.829-12.829-12.829c-7.087,0-12.829,5.743-12.829,12.829V146.741z"/>
</g>
<g id="LWPOLYLINE_63_">
	<polygon style="fill:#FFCD00;" points="174.417,335.893 168.395,335.893 171.407,324.127 	"/>
</g>
<g id="LWPOLYLINE_71_">
	<path style="fill:#FFCD00;" d="M240.648,335.085c-1.366,0.332-2.642,0.98-3.705,1.897c-0.959,0.842-1.502,2.064-1.487,3.34
		c0.016,0.83,0.702,1.49,1.54,1.472c0.067,0,0.136-0.008,0.203-0.02c1.208-0.196,2.37-0.592,3.449-1.173V335.085z"/>
</g>
<g id="LWPOLYLINE_74_">
	<path style="fill:#FFCD00;" d="M127.341,368.463v8.482c0,1.514,1.227,2.739,2.74,2.739c1.509,0,2.735-1.226,2.735-2.739v-8.482
		c0-1.513-1.227-2.739-2.735-2.739C128.568,365.724,127.341,366.95,127.341,368.463z"/>
</g>
<g id="LWPOLYLINE_76_">
	<path style="fill:#FFCD00;" d="M145.133,369.558h5.475v-0.271c0-1.514-1.227-2.74-2.739-2.74c-1.51,0-2.735,1.227-2.735,2.74
		V369.558z"/>
</g>
<g id="LWPOLYLINE_78_">
	<path style="fill:#FFCD00;" d="M162.924,377.496c0,1.51,1.222,2.736,2.735,2.736c1.513,0,2.735-1.227,2.735-2.736v-8.485
		c0-1.514-1.223-2.736-2.735-2.736c-1.514,0-2.735,1.223-2.735,2.736V377.496z"/>
</g>
<g id="LWPOLYLINE_83_">
	<path style="fill:#FFCD00;" d="M197.678,373.398c-1.366,0.332-2.634,0.981-3.706,1.902c-0.958,0.841-1.502,2.06-1.486,3.335
		c0.015,0.834,0.709,1.494,1.539,1.472c0.068,0,0.136-0.008,0.204-0.015c1.207-0.196,2.377-0.593,3.449-1.178V373.398z"/>
</g>
<g id="LWPOLYLINE_91_">
	<path style="fill:#FFCD00;" d="M292.379,377.496c0,1.51,1.223,2.736,2.732,2.736c1.517,0,2.739-1.227,2.739-2.736v-8.485
		c0-1.514-1.223-2.736-2.739-2.736c-1.51,0-2.732,1.223-2.732,2.736V377.496z"/>
</g>
<g id="LWPOLYLINE_95_">
	<path style="fill:#FFCD00;" d="M154.438,281.979h5.475v-0.275c0-1.514-1.227-2.736-2.739-2.736c-1.509,0-2.735,1.223-2.735,2.736
		V281.979z"/>
</g>
<g id="LWPOLYLINE_101_">
	<path style="fill:#FFCD00;" d="M215.744,285.82c-1.365,0.332-2.641,0.981-3.705,1.898c-0.966,0.841-1.509,2.063-1.494,3.339
		c0.022,0.83,0.709,1.49,1.54,1.472c0.067,0,0.136-0.008,0.203-0.019c1.208-0.196,2.377-0.593,3.456-1.174V285.82z"/>
</g>
<g id="LWPOLYLINE_105_">
	<path style="fill:#FFCD00;" d="M237.916,288.545c0,1.509,1.223,2.739,2.732,2.739c1.517,0,2.739-1.23,2.739-2.739v-6.841
		c0-1.514-1.223-2.736-2.739-2.736c-1.51,0-2.732,1.223-2.732,2.736V288.545z"/>
</g>
</svg>
