<?xml version="1.0" encoding="UTF-8" standalone="no"?>
<!-- Generator: Adobe Illustrator 16.0.0, SVG Export Plug-In . SVG Version: 6.00 Build 0)  -->

<svg
   xmlns:dc="http://purl.org/dc/elements/1.1/"
   xmlns:cc="http://creativecommons.org/ns#"
   xmlns:rdf="http://www.w3.org/1999/02/22-rdf-syntax-ns#"
   xmlns:svg="http://www.w3.org/2000/svg"
   xmlns="http://www.w3.org/2000/svg"
   xmlns:sodipodi="http://sodipodi.sourceforge.net/DTD/sodipodi-0.dtd"
   xmlns:inkscape="http://www.inkscape.org/namespaces/inkscape"
   version="1.1"
   id="Layer_1"
   x="0px"
   y="0px"
   width="251.675"
   height="396.85101"
   viewBox="0 0 251.67501 396.851"
   xml:space="preserve"
   sodipodi:docname="C32_4_3.svg"
   inkscape:version="0.92.5 (2060ec1f9f, 2020-04-08)"><metadata
   id="metadata1293"><rdf:RDF><cc:Work
       rdf:about=""><dc:format>image/svg+xml</dc:format><dc:type
         rdf:resource="http://purl.org/dc/dcmitype/StillImage" /></cc:Work></rdf:RDF></metadata><defs
   id="defs1291" /><sodipodi:namedview
   pagecolor="#ffffff"
   bordercolor="#666666"
   borderopacity="1"
   objecttolerance="10"
   gridtolerance="10"
   guidetolerance="10"
   inkscape:pageopacity="0"
   inkscape:pageshadow="2"
   inkscape:window-width="640"
   inkscape:window-height="480"
   id="namedview1289"
   showgrid="false"
   inkscape:zoom="0.55503813"
   inkscape:cx="125.8375"
   inkscape:cy="198.42599"
   inkscape:window-x="0"
   inkscape:window-y="0"
   inkscape:window-maximized="0"
   inkscape:current-layer="Layer_1" />
<g
   id="CIRCLE"
   transform="translate(-86.761,-14.173)">
	<path
   style="fill:#ffcd00"
   d="m 338.436,140.008 c 0,-69.495 -56.34,-125.835 -125.839,-125.835 -69.497,0 -125.836,56.34 -125.836,125.835 0,69.498 56.34,125.838 125.836,125.838 69.499,0 125.839,-56.34 125.839,-125.838 z"
   id="path1228"
   inkscape:connector-curvature="0" />
</g>
<g
   id="LWPOLYLINE_33_"
   transform="translate(-86.761,-14.173)">
	<rect
   x="94.624001"
   y="273.39301"
   style="fill:#ffcd00"
   width="235.944"
   height="137.631"
   id="rect1231" />
</g>
<g
   id="CIRCLE_1_"
   transform="translate(-86.761,-14.173)">
	<path
   style="fill:#e4002b"
   d="m 334.498,140.008 c 0,-67.324 -54.579,-121.9 -121.9,-121.9 -67.324,0 -121.902,54.576 -121.902,121.9 0,67.33 54.579,121.904 121.902,121.904 67.32,0 121.9,-54.574 121.9,-121.904 z"
   id="path1234"
   inkscape:connector-curvature="0" />
</g>
<g
   id="LWPOLYLINE_35_"
   transform="translate(-86.761,-14.173)">
	<path
   style="fill:#e4002b"
   d="m 110.355,411.023 h 204.486 c 8.684,0 15.727,-7.043 15.727,-15.73 V 289.119 c 0,-8.688 -7.043,-15.727 -15.727,-15.727 H 110.355 c -8.688,0 -15.731,7.039 -15.731,15.727 v 106.174 c 0,8.687 7.043,15.73 15.731,15.73 z"
   id="path1237"
   inkscape:connector-curvature="0" />
</g>
<g
   id="CIRCLE_2_"
   transform="translate(-86.761,-14.173)">
	<path
   style="fill:#ffcd00"
   d="m 308.943,140.008 c 0,-53.209 -43.138,-96.342 -96.346,-96.342 -53.208,0 -96.344,43.133 -96.344,96.342 0,53.208 43.135,96.346 96.344,96.346 53.208,0 96.346,-43.138 96.346,-96.346 z"
   id="path1240"
   inkscape:connector-curvature="0" />
</g>
<g
   id="LWPOLYLINE_34_"
   transform="translate(-86.761,-14.173)">
	<path
   style="fill:#ffcd00"
   d="m 110.355,403.16 h 204.486 c 4.337,0 7.859,-3.521 7.859,-7.867 V 289.119 c 0,-4.346 -3.522,-7.863 -7.859,-7.863 H 110.355 c -4.341,0 -7.863,3.518 -7.863,7.863 v 106.174 c 0,4.346 3.522,7.867 7.863,7.867 z"
   id="path1243"
   inkscape:connector-curvature="0" />
</g>
<g
   id="LWPOLYLINE"
   transform="translate(-86.761,-14.173)">
	<path
   style="fill:#101820"
   d="m 220.464,166.551 c 0,17.922 14.521,32.442 32.442,32.442 17.912,0 32.442,-14.521 32.442,-32.442 v -53.087 c 0,-17.912 -14.53,-32.439 -32.442,-32.439 -17.921,0 -32.442,14.527 -32.442,32.439 z"
   id="path1246"
   inkscape:connector-curvature="0" />
</g>
<g
   id="LWPOLYLINE_1_"
   transform="translate(-86.761,-14.173)">
	<polygon
   style="fill:#101820"
   points="195.292,157.703 204.73,157.703 204.73,175.398 195.292,175.398 195.292,198.993 177.596,198.993 177.596,175.398 133.949,175.398 133.949,157.703 177.596,81.024 195.292,81.024 "
   id="polygon1249" />
</g>
<g
   id="LWPOLYLINE_24_"
   transform="translate(-86.761,-14.173)">
	<polygon
   style="fill:#101820"
   points="177.006,295.018 183.694,295.018 194.112,334.343 187.823,334.343 186.054,327.659 174.647,327.659 172.877,334.343 166.588,334.343 "
   id="polygon1252" />
</g>
<g
   id="LWPOLYLINE_25_"
   transform="translate(-86.761,-14.173)">
	<rect
   x="199.621"
   y="295.01801"
   style="fill:#101820"
   width="5.8979998"
   height="39.325001"
   id="rect1255" />
</g>
<g
   id="LWPOLYLINE_26_"
   transform="translate(-86.761,-14.173)">
	<path
   style="fill:#101820"
   d="m 212.597,327.069 v -22.22 h 5.898 v 20.841 c 0,2.173 1.761,3.934 3.93,3.934 2.177,0 3.938,-1.761 3.938,-3.934 v -20.84 h 5.898 v 29.493 h -5.898 v -2.359 c -2.039,1.262 -4.312,2.064 -6.688,2.359 -3.912,0 -7.078,-3.171 -7.078,-7.078 z"
   id="path1258"
   inkscape:connector-curvature="0" />
</g>
<g
   id="LWPOLYLINE_27_"
   transform="translate(-86.761,-14.173)">
	<path
   style="fill:#101820"
   d="m 252.708,324.511 h 5.898 c 0,5.43 -4.398,9.832 -9.828,9.832 -5.431,0 -9.837,-4.402 -9.837,-9.832 v -9.828 c 0,-5.431 4.406,-9.833 9.837,-9.833 5.43,0 9.828,4.402 9.828,9.833 v 5.504 h -13.767 v 4.324 c 0,2.173 1.761,3.934 3.938,3.934 2.17,-10e-4 3.931,-1.761 3.931,-3.934 z"
   id="path1261"
   inkscape:connector-curvature="0" />
</g>
<g
   id="LWPOLYLINE_29_"
   transform="translate(-86.761,-14.173)">
	<polygon
   style="fill:#101820"
   points="191.562,355.973 174.647,355.973 174.647,350.074 198.241,350.074 198.241,355.973 180.354,383.496 199.23,383.496 199.23,389.395 173.667,389.395 173.667,383.496 "
   id="polygon1264" />
</g>
<g
   id="LWPOLYLINE_30_"
   transform="translate(-86.761,-14.173)">
	<path
   style="fill:#101820"
   d="m 205.128,379.566 c 0,5.43 4.398,9.828 9.828,9.828 5.43,0 9.828,-4.398 9.828,-9.828 v -9.832 c 0,-5.431 -4.398,-9.833 -9.828,-9.833 -5.43,0 -9.828,4.402 -9.828,9.833 z"
   id="path1267"
   inkscape:connector-curvature="0" />
</g>
<g
   id="LWPOLYLINE_32_"
   transform="translate(-86.761,-14.173)">
	<path
   style="fill:#101820"
   d="m 251.528,367.18 v 22.215 h -5.898 v -20.84 c 0,-2.173 -1.762,-3.934 -3.93,-3.934 -2.178,0 -3.938,1.761 -3.938,3.934 v 20.84 h -5.898 v -29.493 h 5.898 v 2.359 c 2.03,-1.258 4.312,-2.064 6.688,-2.359 3.912,0 7.078,3.171 7.078,7.079 z"
   id="path1270"
   inkscape:connector-curvature="0" />
</g>
<g
   id="LWPOLYLINE_2_"
   transform="translate(-86.761,-14.173)">
	<polygon
   style="fill:#ffcd00"
   points="177.596,157.703 154.004,157.703 177.596,116.257 "
   id="polygon1273" />
</g>
<g
   id="LWPOLYLINE_3_"
   transform="translate(-86.761,-14.173)">
	<path
   style="fill:#ffcd00"
   d="m 238.161,166.551 c 0,8.146 6.601,14.746 14.746,14.746 8.145,0 14.746,-6.601 14.746,-14.746 v -53.087 c 0,-8.141 -6.601,-14.746 -14.746,-14.746 -8.145,0 -14.746,6.605 -14.746,14.746 z"
   id="path1276"
   inkscape:connector-curvature="0" />
</g>
<g
   id="LWPOLYLINE_23_"
   transform="translate(-86.761,-14.173)">
	<polygon
   style="fill:#ffcd00"
   points="180.354,304.85 184.674,321.761 176.026,321.761 "
   id="polygon1279" />
</g>
<g
   id="LWPOLYLINE_28_"
   transform="translate(-86.761,-14.173)">
	<path
   style="fill:#ffcd00"
   d="m 244.839,315.072 h 7.868 v -0.39 c 0,-2.178 -1.761,-3.934 -3.93,-3.934 -2.178,0 -3.938,1.756 -3.938,3.934 z"
   id="path1282"
   inkscape:connector-curvature="0" />
</g>
<g
   id="LWPOLYLINE_31_"
   transform="translate(-86.761,-14.173)">
	<path
   style="fill:#ffcd00"
   d="m 211.027,379.566 c 0,2.169 1.761,3.93 3.93,3.93 2.169,0 3.93,-1.761 3.93,-3.93 v -9.832 c 0,-2.173 -1.761,-3.934 -3.93,-3.934 -2.169,0 -3.93,1.761 -3.93,3.934 z"
   id="path1285"
   inkscape:connector-curvature="0" />
</g>
</svg>