<?xml version="1.0" encoding="UTF-8" standalone="no"?>
<!-- Generator: Adobe Illustrator 16.0.0, SVG Export Plug-In . SVG Version: 6.00 Build 0)  -->

<svg
   xmlns:dc="http://purl.org/dc/elements/1.1/"
   xmlns:cc="http://creativecommons.org/ns#"
   xmlns:rdf="http://www.w3.org/1999/02/22-rdf-syntax-ns#"
   xmlns:svg="http://www.w3.org/2000/svg"
   xmlns="http://www.w3.org/2000/svg"
   xmlns:sodipodi="http://sodipodi.sourceforge.net/DTD/sodipodi-0.dtd"
   xmlns:inkscape="http://www.inkscape.org/namespaces/inkscape"
   version="1.1"
   id="Layer_1"
   x="0px"
   y="0px"
   width="281.582"
   height="396.85101"
   viewBox="0 0 281.58201 396.851"
   xml:space="preserve"
   sodipodi:docname="C32_5_2.svg"
   inkscape:version="0.92.5 (2060ec1f9f, 2020-04-08)"><metadata
   id="metadata1409"><rdf:RDF><cc:Work
       rdf:about=""><dc:format>image/svg+xml</dc:format><dc:type
         rdf:resource="http://purl.org/dc/dcmitype/StillImage" /></cc:Work></rdf:RDF></metadata><defs
   id="defs1407" /><sodipodi:namedview
   pagecolor="#ffffff"
   bordercolor="#666666"
   borderopacity="1"
   objecttolerance="10"
   gridtolerance="10"
   guidetolerance="10"
   inkscape:pageopacity="0"
   inkscape:pageshadow="2"
   inkscape:window-width="640"
   inkscape:window-height="480"
   id="namedview1405"
   showgrid="false"
   inkscape:zoom="0.55503813"
   inkscape:cx="140.7915"
   inkscape:cy="198.426"
   inkscape:window-x="0"
   inkscape:window-y="0"
   inkscape:window-maximized="0"
   inkscape:current-layer="Layer_1" />
<g
   id="CIRCLE_3_"
   transform="translate(-71.806999,-14.173)">
	<path
   style="fill:#ffcd00"
   d="m 353.389,154.963 c 0,-77.758 -63.034,-140.79 -140.792,-140.79 -77.755,0 -140.79,63.032 -140.79,140.79 0,77.753 63.035,140.787 140.79,140.787 77.758,0 140.792,-63.034 140.792,-140.787 z"
   id="path1320"
   inkscape:connector-curvature="0" />
</g>
<g
   id="LWPOLYLINE_49_"
   transform="translate(-71.806999,-14.173)">
	<rect
   x="71.806999"
   y="303.67001"
   style="fill:#ffcd00"
   width="281.582"
   height="107.354"
   id="rect1323" />
</g>
<g
   id="CIRCLE_4_"
   transform="translate(-71.806999,-14.173)">
	<path
   style="fill:#e4002b"
   d="m 348.984,154.963 c 0,-75.327 -61.065,-136.391 -136.387,-136.391 -75.324,0 -136.389,61.064 -136.389,136.391 0,75.326 61.064,136.391 136.389,136.391 75.321,0 136.387,-61.065 136.387,-136.391 z"
   id="path1326"
   inkscape:connector-curvature="0" />
</g>
<g
   id="LWPOLYLINE_51_"
   transform="translate(-71.806999,-14.173)">
	<path
   style="fill:#e4002b"
   d="m 89.408,411.023 h 246.377 c 9.725,0 17.604,-7.881 17.604,-17.601 V 321.27 c 0,-9.719 -7.88,-17.6 -17.604,-17.6 H 89.408 c -9.72,0 -17.601,7.881 -17.601,17.6 v 72.153 c 0,9.72 7.881,17.6 17.601,17.6 z"
   id="path1329"
   inkscape:connector-curvature="0" />
</g>
<g
   id="CIRCLE_5_"
   transform="translate(-71.806999,-14.173)">
	<path
   style="fill:#ffcd00"
   d="m 320.392,154.963 c 0,-59.536 -48.264,-107.793 -107.795,-107.793 -59.531,0 -107.792,48.257 -107.792,107.793 0,59.531 48.261,107.79 107.792,107.79 59.531,0 107.795,-48.259 107.795,-107.79 z"
   id="path1332"
   inkscape:connector-curvature="0" />
</g>
<g
   id="LWPOLYLINE_50_"
   transform="translate(-71.806999,-14.173)">
	<path
   style="fill:#ffcd00"
   d="m 89.408,402.226 h 246.377 c 4.862,0 8.803,-3.94 8.803,-8.803 V 321.27 c 0,-4.857 -3.94,-8.797 -8.803,-8.797 H 89.408 c -4.862,0 -8.803,3.939 -8.803,8.797 v 72.153 c 0,4.862 3.94,8.803 8.803,8.803 z"
   id="path1335"
   inkscape:connector-curvature="0" />
</g>
<g
   id="LWPOLYLINE_27_"
   transform="translate(-71.806999,-14.173)">
	<path
   style="fill:#101820"
   d="m 221.4,184.66 c 0,20.046 16.246,36.298 36.297,36.298 20.041,0 36.297,-16.252 36.297,-36.298 v -59.395 c 0,-20.046 -16.256,-36.297 -36.297,-36.297 -20.051,0 -36.297,16.251 -36.297,36.297 z"
   id="path1338"
   inkscape:connector-curvature="0" />
</g>
<g
   id="LWPOLYLINE_28_"
   transform="translate(-71.806999,-14.173)">
	<path
   style="fill:#101820"
   d="m 134.512,184.66 c 0,20.046 16.244,36.298 36.295,36.298 20.051,0 36.297,-16.252 36.297,-36.298 v -14.519 c 0,-20.046 -16.246,-36.297 -36.297,-36.297 -5.066,0 -10.064,1.058 -14.693,3.111 l 2.814,-28.189 h 36.297 l -1.32,-19.798 h -52.793 l -6.6,65.995 23.096,5.279 c 3.115,-4.159 8.007,-6.6 13.199,-6.6 9.113,0 16.499,7.386 16.499,16.499 v 14.519 c 0,9.108 -7.386,16.499 -16.499,16.499 -9.113,0 -16.499,-7.391 -16.499,-16.499 z"
   id="path1341"
   inkscape:connector-curvature="0" />
</g>
<g
   id="LWPOLYLINE_30_"
   transform="translate(-71.806999,-14.173)">
	<polygon
   style="fill:#101820"
   points="108.939,360.867 117.742,339.748 111.758,339.748 106.299,352.841 100.845,339.748 94.862,339.748 103.66,360.867 103.66,374.944 106.299,374.944 108.939,374.944 "
   id="polygon1344" />
</g>
<g
   id="LWPOLYLINE_31_"
   transform="translate(-71.806999,-14.173)">
	<rect
   x="121.26"
   y="339.74799"
   style="fill:#101820"
   width="5.2789998"
   height="35.195999"
   id="rect1347" />
</g>
<g
   id="LWPOLYLINE_32_"
   transform="translate(-71.806999,-14.173)">
	<path
   style="fill:#101820"
   d="m 144.843,366.146 h 5.279 c 0,4.857 -3.94,8.798 -8.802,8.798 -4.857,0 -8.798,-3.94 -8.798,-8.798 v -8.798 c 0,-4.862 3.94,-8.803 8.798,-8.803 4.861,0 8.802,3.94 8.802,8.803 v 4.926 h -12.32 v 3.872 c 0,1.946 1.577,3.519 3.519,3.519 1.945,0 3.522,-1.572 3.522,-3.519 z"
   id="path1350"
   inkscape:connector-curvature="0" />
</g>
<g
   id="LWPOLYLINE_34_"
   transform="translate(-71.806999,-14.173)">
	<rect
   x="156.453"
   y="348.54599"
   style="fill:#101820"
   width="5.2800002"
   height="26.398001"
   id="rect1353" />
</g>
<g
   id="LWPOLYLINE_35_"
   transform="translate(-71.806999,-14.173)">
	<rect
   x="156.453"
   y="339.74799"
   style="fill:#101820"
   width="5.2800002"
   height="5.2800002"
   id="rect1356" />
</g>
<g
   id="LWPOLYLINE_36_"
   transform="translate(-71.806999,-14.173)">
	<path
   style="fill:#101820"
   d="m 167.372,366.146 c 0,4.857 3.94,8.798 8.793,8.798 h 0.708 c 4.28,0 7.745,-3.465 7.745,-7.745 0,-2.756 -1.466,-5.299 -3.844,-6.687 l -5.842,-3.406 c -0.544,-0.315 -0.874,-0.894 -0.874,-1.519 0,-0.976 0.786,-1.762 1.757,-1.762 h 1.058 c 0.971,0 1.757,0.786 1.757,1.762 h 5.279 c 0,-3.888 -3.154,-7.042 -7.036,-7.042 h -1.058 c -3.882,0 -7.036,3.154 -7.036,7.042 0,2.504 1.329,4.818 3.493,6.08 l 5.843,3.406 c 0.757,0.437 1.223,1.252 1.223,2.125 0,1.364 -1.106,2.466 -2.465,2.466 h -0.708 c -1.941,0 -3.514,-1.572 -3.514,-3.519 h -5.279 z"
   id="path1359"
   inkscape:connector-curvature="0" />
</g>
<g
   id="LWPOLYLINE_37_"
   transform="translate(-71.806999,-14.173)">
	<path
   style="fill:#101820"
   d="m 195.875,356.641 v 18.304 h -5.279 v -26.398 h 5.279 v 1.417 c 1.863,-0.932 3.911,-1.417 5.987,-1.417 v 5.581 c -1.388,-1.359 -3.619,-1.34 -4.979,0.049 -0.638,0.658 -1.008,1.542 -1.008,2.464 z"
   id="path1362"
   inkscape:connector-curvature="0" />
</g>
<g
   id="LWPOLYLINE_38_"
   transform="translate(-71.806999,-14.173)">
	<path
   style="fill:#101820"
   d="m 221.923,374.944 h -5.279 v -1.688 c -2.115,1.145 -4.503,1.728 -6.91,1.688 -2.164,0.058 -4.115,-1.311 -4.804,-3.368 -0.854,-2.697 -0.136,-5.648 1.873,-7.647 2.571,-2.761 6.085,-4.444 9.841,-4.727 v -2.736 c 0,-1.456 -1.184,-2.64 -2.64,-2.64 -1.456,0 -2.64,1.184 -2.64,2.64 h -5.279 c 0,-4.372 3.542,-7.92 7.919,-7.92 4.377,0 7.919,3.548 7.919,7.92 z"
   id="path1365"
   inkscape:connector-curvature="0" />
</g>
<g
   id="LWPOLYLINE_40_"
   transform="translate(-71.806999,-14.173)">
	<path
   style="fill:#101820"
   d="m 233.541,348.546 v 25.694 c 0,4.275 -3.465,7.745 -7.744,7.745 h -0.709 l 0.709,-5.279 c 1.358,0 2.465,-1.102 2.465,-2.466 v -25.694 z"
   id="path1368"
   inkscape:connector-curvature="0" />
</g>
<g
   id="LWPOLYLINE_41_"
   transform="translate(-71.806999,-14.173)">
	<rect
   x="228.261"
   y="339.74799"
   style="fill:#101820"
   width="5.2789998"
   height="5.2800002"
   id="rect1371" />
</g>
<g
   id="LWPOLYLINE_42_"
   transform="translate(-71.806999,-14.173)">
	<path
   style="fill:#101820"
   d="m 239.878,366.146 c 0,4.857 3.94,8.798 8.793,8.798 4.862,0 8.803,-3.94 8.803,-8.798 v -8.798 c 0,-4.862 -3.94,-8.803 -8.803,-8.803 -4.853,0 -8.793,3.94 -8.793,8.803 z"
   id="path1374"
   inkscape:connector-curvature="0" />
</g>
<g
   id="LWPOLYLINE_44_"
   transform="translate(-71.806999,-14.173)">
	<rect
   x="263.811"
   y="348.54599"
   style="fill:#101820"
   width="5.2789998"
   height="26.398001"
   id="rect1377" />
</g>
<g
   id="LWPOLYLINE_45_"
   transform="translate(-71.806999,-14.173)">
	<rect
   x="263.811"
   y="339.74799"
   style="fill:#101820"
   width="5.2789998"
   height="5.2800002"
   id="rect1380" />
</g>
<g
   id="LWPOLYLINE_46_"
   transform="translate(-71.806999,-14.173)">
	<path
   style="fill:#101820"
   d="m 282.29,348.546 h 2.989 v 5.28 h -2.989 v 12.85 c 0,1.649 1.34,2.989 2.989,2.989 v 5.279 c -4.571,0 -8.269,-3.702 -8.269,-8.269 v -12.85 h -2.999 v -5.28 h 2.999 v -8.798 h 5.279 v 8.799 z"
   id="path1383"
   inkscape:connector-curvature="0" />
</g>
<g
   id="LWPOLYLINE_47_"
   transform="translate(-71.806999,-14.173)">
	<path
   style="fill:#101820"
   d="m 289.85,368.432 v -19.886 h 5.279 v 18.653 c 0,1.946 1.582,3.523 3.523,3.523 1.94,0 3.522,-1.577 3.522,-3.523 v -18.653 h 5.28 v 26.398 h -5.28 v -2.111 c -1.824,1.131 -3.862,1.85 -5.988,2.111 -3.493,0 -6.337,-2.834 -6.337,-6.338 v -0.174 z"
   id="path1386"
   inkscape:connector-curvature="0" />
</g>
<g
   id="LWPOLYLINE_48_"
   transform="translate(-71.806999,-14.173)">
	<path
   style="fill:#101820"
   d="m 313.084,366.146 c 0,4.857 3.94,8.798 8.802,8.798 h 0.699 c 4.28,0 7.745,-3.465 7.745,-7.745 0,-2.756 -1.466,-5.299 -3.844,-6.687 l -5.843,-3.406 c -0.543,-0.315 -0.873,-0.894 -0.873,-1.519 0,-0.976 0.786,-1.762 1.757,-1.762 h 1.058 c 0.971,0 1.767,0.786 1.767,1.762 h 5.279 c 0,-3.888 -3.154,-7.042 -7.046,-7.042 h -1.058 c -3.882,0 -7.036,3.154 -7.036,7.042 0,2.504 1.329,4.818 3.493,6.08 l 5.843,3.406 c 0.757,0.437 1.223,1.252 1.223,2.125 0,1.364 -1.106,2.466 -2.465,2.466 h -0.699 c -1.95,0 -3.522,-1.572 -3.522,-3.519 h -5.28 z"
   id="path1389"
   inkscape:connector-curvature="0" />
</g>
<g
   id="LWPOLYLINE_29_"
   transform="translate(-71.806999,-14.173)">
	<path
   style="fill:#ffcd00"
   d="m 241.198,184.66 c 0,9.108 7.386,16.499 16.499,16.499 9.113,0 16.499,-7.391 16.499,-16.499 v -59.395 c 0,-9.113 -7.386,-16.499 -16.499,-16.499 -9.113,0 -16.499,7.386 -16.499,16.499 z"
   id="path1392"
   inkscape:connector-curvature="0" />
</g>
<g
   id="LWPOLYLINE_33_"
   transform="translate(-71.806999,-14.173)">
	<path
   style="fill:#ffcd00"
   d="m 137.802,357.698 h 7.041 v -0.35 c 0,-1.945 -1.577,-3.522 -3.522,-3.522 -1.941,0 -3.519,1.577 -3.519,3.522 z"
   id="path1395"
   inkscape:connector-curvature="0" />
</g>
<g
   id="LWPOLYLINE_39_"
   transform="translate(-71.806999,-14.173)">
	<path
   style="fill:#ffcd00"
   d="m 216.644,362.639 c -1.757,0.427 -3.396,1.261 -4.766,2.445 -1.242,1.082 -1.94,2.649 -1.921,4.289 0.029,1.073 0.912,1.922 1.979,1.893 0.088,0 0.175,-0.01 0.262,-0.02 1.554,-0.252 3.058,-0.762 4.445,-1.514 v -7.093 z"
   id="path1398"
   inkscape:connector-curvature="0" />
</g>
<g
   id="LWPOLYLINE_43_"
   transform="translate(-71.806999,-14.173)">
	<path
   style="fill:#ffcd00"
   d="m 245.158,366.146 c 0,1.946 1.572,3.519 3.514,3.519 1.95,0 3.522,-1.572 3.522,-3.519 v -8.798 c 0,-1.945 -1.572,-3.522 -3.522,-3.522 -1.941,0 -3.514,1.577 -3.514,3.522 z"
   id="path1401"
   inkscape:connector-curvature="0" />
</g>
</svg>