<?xml version="1.0" encoding="iso-8859-1"?>
<!-- Generator: Adobe Illustrator 16.0.0, SVG Export Plug-In . SVG Version: 6.00 Build 0)  -->
<!DOCTYPE svg PUBLIC "-//W3C//DTD SVG 1.1//EN" "http://www.w3.org/Graphics/SVG/1.1/DTD/svg11.dtd">
<svg version="1.1" id="Layer_1" xmlns="http://www.w3.org/2000/svg" xmlns:xlink="http://www.w3.org/1999/xlink" x="0px" y="0px"
	 width="425.197px" height="425.196px" viewBox="0 0 425.197 425.196" style="enable-background:new 0 0 425.197 425.196;"
	 xml:space="preserve">
<g id="CIRCLE">
	<path style="fill:#FFCD00;" d="M338.436,140.008c0-69.495-56.34-125.835-125.839-125.835c-69.497,0-125.836,56.34-125.836,125.835
		c0,69.498,56.34,125.838,125.836,125.838C282.096,265.846,338.436,209.506,338.436,140.008L338.436,140.008z"/>
</g>
<g id="LWPOLYLINE_33_">
	<rect x="94.624" y="273.393" style="fill:#FFCD00;" width="235.944" height="137.631"/>
</g>
<g id="CIRCLE_1_">
	<path style="fill:#E4002B;" d="M334.498,140.008c0-67.324-54.579-121.9-121.9-121.9c-67.324,0-121.902,54.576-121.902,121.9
		c0,67.33,54.579,121.904,121.902,121.904C279.918,261.912,334.498,207.338,334.498,140.008L334.498,140.008z"/>
</g>
<g id="LWPOLYLINE_35_">
	<path style="fill:#E4002B;" d="M110.355,411.023h204.486c8.684,0,15.727-7.043,15.727-15.73V289.119
		c0-8.688-7.043-15.727-15.727-15.727H110.355c-8.688,0-15.731,7.039-15.731,15.727v106.174
		C94.624,403.98,101.667,411.023,110.355,411.023z"/>
</g>
<g id="CIRCLE_2_">
	<path style="fill:#FFCD00;" d="M308.943,140.008c0-53.209-43.138-96.342-96.346-96.342c-53.208,0-96.344,43.133-96.344,96.342
		c0,53.208,43.135,96.346,96.344,96.346C265.805,236.354,308.943,193.216,308.943,140.008L308.943,140.008z"/>
</g>
<g id="LWPOLYLINE_34_">
	<path style="fill:#FFCD00;" d="M110.355,403.16h204.486c4.337,0,7.859-3.521,7.859-7.867V289.119c0-4.346-3.522-7.863-7.859-7.863
		H110.355c-4.341,0-7.863,3.518-7.863,7.863v106.174C102.492,399.639,106.014,403.16,110.355,403.16z"/>
</g>
<g id="LWPOLYLINE">
	<path style="fill:#101820;" d="M220.464,166.551c0,17.922,14.521,32.442,32.442,32.442c17.912,0,32.442-14.521,32.442-32.442
		v-53.087c0-17.912-14.53-32.439-32.442-32.439c-17.921,0-32.442,14.527-32.442,32.439V166.551z"/>
</g>
<g id="LWPOLYLINE_1_">
	<polygon style="fill:#101820;" points="177.596,81.024 195.292,81.024 195.292,157.703 204.73,157.703 204.73,175.398 
		195.292,175.398 195.292,198.993 177.596,198.993 177.596,175.398 133.949,175.398 133.949,157.703 	"/>
</g>
<g id="LWPOLYLINE_24_">
	<polygon style="fill:#101820;" points="172.877,334.343 166.588,334.343 177.006,295.018 183.694,295.018 194.112,334.343 
		187.823,334.343 186.054,327.659 174.647,327.659 	"/>
</g>
<g id="LWPOLYLINE_25_">
	<rect x="199.621" y="295.018" style="fill:#101820;" width="5.898" height="39.325"/>
</g>
<g id="LWPOLYLINE_26_">
	<path style="fill:#101820;" d="M212.597,327.069v-22.22h5.898v20.841c0,2.173,1.761,3.934,3.93,3.934
		c2.177,0,3.938-1.761,3.938-3.934V304.85h5.898v29.493h-5.898v-2.359c-2.039,1.262-4.312,2.064-6.688,2.359
		c-3.912,0-7.078-3.171-7.078-7.078V327.069z"/>
</g>
<g id="LWPOLYLINE_27_">
	<path style="fill:#101820;" d="M252.708,324.511h5.898c0,5.43-4.398,9.832-9.828,9.832c-5.431,0-9.837-4.402-9.837-9.832v-9.828
		c0-5.431,4.406-9.833,9.837-9.833c5.43,0,9.828,4.402,9.828,9.833v5.504h-13.767v4.324c0,2.173,1.761,3.934,3.938,3.934
		C250.947,328.444,252.708,326.684,252.708,324.511z"/>
</g>
<g id="LWPOLYLINE_29_">
	<polygon style="fill:#101820;" points="173.667,389.395 173.667,383.496 191.562,355.973 174.647,355.973 174.647,350.074 
		198.241,350.074 198.241,355.973 180.354,383.496 199.23,383.496 199.23,389.395 	"/>
</g>
<g id="LWPOLYLINE_30_">
	<path style="fill:#101820;" d="M205.128,379.566c0,5.43,4.398,9.828,9.828,9.828s9.828-4.398,9.828-9.828v-9.832
		c0-5.431-4.398-9.833-9.828-9.833s-9.828,4.402-9.828,9.833V379.566z"/>
</g>
<g id="LWPOLYLINE_32_">
	<path style="fill:#101820;" d="M251.528,367.18v22.215h-5.898v-20.84c0-2.173-1.762-3.934-3.93-3.934
		c-2.178,0-3.938,1.761-3.938,3.934v20.84h-5.898v-29.493h5.898v2.359c2.03-1.258,4.312-2.064,6.688-2.359
		c3.912,0,7.078,3.171,7.078,7.079V367.18z"/>
</g>
<g id="LWPOLYLINE_2_">
	<polygon style="fill:#FFCD00;" points="154.004,157.703 177.596,116.257 177.596,157.703 	"/>
</g>
<g id="LWPOLYLINE_3_">
	<path style="fill:#FFCD00;" d="M238.161,166.551c0,8.146,6.601,14.746,14.746,14.746s14.746-6.601,14.746-14.746v-53.087
		c0-8.141-6.601-14.746-14.746-14.746s-14.746,6.605-14.746,14.746V166.551z"/>
</g>
<g id="LWPOLYLINE_23_">
	<polygon style="fill:#FFCD00;" points="184.674,321.761 176.026,321.761 180.354,304.85 	"/>
</g>
<g id="LWPOLYLINE_28_">
	<path style="fill:#FFCD00;" d="M244.839,315.072h7.868v-0.39c0-2.178-1.761-3.934-3.93-3.934c-2.178,0-3.938,1.756-3.938,3.934
		V315.072z"/>
</g>
<g id="LWPOLYLINE_31_">
	<path style="fill:#FFCD00;" d="M211.027,379.566c0,2.169,1.761,3.93,3.93,3.93s3.93-1.761,3.93-3.93v-9.832
		c0-2.173-1.761-3.934-3.93-3.934s-3.93,1.761-3.93,3.934V379.566z"/>
</g>
</svg>
