<?xml version="1.0" encoding="UTF-8" standalone="no"?>
<!-- Generator: Adobe Illustrator 16.0.0, SVG Export Plug-In . SVG Version: 6.00 Build 0)  -->

<svg
   xmlns:dc="http://purl.org/dc/elements/1.1/"
   xmlns:cc="http://creativecommons.org/ns#"
   xmlns:rdf="http://www.w3.org/1999/02/22-rdf-syntax-ns#"
   xmlns:svg="http://www.w3.org/2000/svg"
   xmlns="http://www.w3.org/2000/svg"
   xmlns:sodipodi="http://sodipodi.sourceforge.net/DTD/sodipodi-0.dtd"
   xmlns:inkscape="http://www.inkscape.org/namespaces/inkscape"
   version="1.1"
   id="Layer_1"
   x="0px"
   y="0px"
   width="219.334"
   height="396.85101"
   viewBox="0 0 219.334 396.851"
   xml:space="preserve"
   sodipodi:docname="C32_5_3.svg"
   inkscape:version="0.92.5 (2060ec1f9f, 2020-04-08)"><metadata
   id="metadata1587"><rdf:RDF><cc:Work
       rdf:about=""><dc:format>image/svg+xml</dc:format><dc:type
         rdf:resource="http://purl.org/dc/dcmitype/StillImage" /></cc:Work></rdf:RDF></metadata><defs
   id="defs1585" /><sodipodi:namedview
   pagecolor="#ffffff"
   bordercolor="#666666"
   borderopacity="1"
   objecttolerance="10"
   gridtolerance="10"
   guidetolerance="10"
   inkscape:pageopacity="0"
   inkscape:pageshadow="2"
   inkscape:window-width="640"
   inkscape:window-height="480"
   id="namedview1583"
   showgrid="false"
   inkscape:zoom="0.55503813"
   inkscape:cx="109.6675"
   inkscape:cy="198.42599"
   inkscape:window-x="0"
   inkscape:window-y="0"
   inkscape:window-maximized="0"
   inkscape:current-layer="Layer_1" />
<g
   id="CIRCLE_3_"
   transform="translate(-102.931,-14.173)">
	<path
   style="fill:#ffcd00"
   d="m 322.265,123.837 c 0,-60.565 -49.101,-109.664 -109.668,-109.664 -60.566,0 -109.666,49.099 -109.666,109.664 0,60.568 49.1,109.668 109.666,109.668 60.568,0 109.668,-49.1 109.668,-109.668 z"
   id="path1411"
   inkscape:connector-curvature="0" />
</g>
<g
   id="LWPOLYLINE_107_"
   transform="translate(-102.931,-14.173)">
	<rect
   x="102.932"
   y="239.674"
   style="fill:#ffcd00"
   width="219.33299"
   height="171.35001"
   id="rect1414" />
</g>
<g
   id="CIRCLE_4_"
   transform="translate(-102.931,-14.173)">
	<path
   style="fill:#e4002b"
   d="M 318.833,123.837 C 318.833,65.163 271.268,17.6 212.598,17.6 c -58.672,0 -106.237,47.563 -106.237,106.237 0,58.674 47.565,106.239 106.237,106.239 58.669,0 106.235,-47.565 106.235,-106.239 z"
   id="path1417"
   inkscape:connector-curvature="0" />
</g>
<g
   id="LWPOLYLINE_109_"
   transform="translate(-102.931,-14.173)">
	<path
   style="fill:#e4002b"
   d="m 116.641,411.023 h 191.91 c 7.575,0 13.714,-6.138 13.714,-13.709 V 253.379 c 0,-7.57 -6.139,-13.705 -13.714,-13.705 h -191.91 c -7.571,0 -13.709,6.135 -13.709,13.705 v 143.936 c 0,7.571 6.138,13.708 13.709,13.708 z"
   id="path1420"
   inkscape:connector-curvature="0" />
</g>
<g
   id="CIRCLE_5_"
   transform="translate(-102.931,-14.173)">
	<path
   style="fill:#ffcd00"
   d="m 296.562,123.837 c 0,-46.371 -37.594,-83.961 -83.965,-83.961 -46.371,0 -83.963,37.59 -83.963,83.961 0,46.371 37.592,83.965 83.963,83.965 46.371,0 83.965,-37.594 83.965,-83.965 z"
   id="path1423"
   inkscape:connector-curvature="0" />
</g>
<g
   id="LWPOLYLINE_108_"
   transform="translate(-102.931,-14.173)">
	<path
   style="fill:#ffcd00"
   d="m 116.641,404.171 h 191.91 c 3.788,0 6.856,-3.069 6.856,-6.856 V 253.379 c 0,-3.787 -3.068,-6.853 -6.856,-6.853 h -191.91 c -3.788,0 -6.857,3.065 -6.857,6.853 v 143.936 c 0,3.787 3.07,6.856 6.857,6.856 z"
   id="path1426"
   inkscape:connector-curvature="0" />
</g>
<g
   id="LWPOLYLINE_56_"
   transform="translate(-102.931,-14.173)">
	<path
   style="fill:#101820"
   d="m 219.454,146.97 c 0,15.614 12.655,28.272 28.273,28.272 15.61,0 28.272,-12.658 28.272,-28.272 v -46.266 c 0,-15.614 -12.662,-28.272 -28.272,-28.272 -15.618,0 -28.273,12.658 -28.273,28.272 z"
   id="path1429"
   inkscape:connector-curvature="0" />
</g>
<g
   id="LWPOLYLINE_57_"
   transform="translate(-102.931,-14.173)">
	<path
   style="fill:#101820"
   d="m 151.774,146.97 c 0,15.614 12.653,28.272 28.271,28.272 15.618,0 28.273,-12.658 28.273,-28.272 v -11.31 c 0,-15.614 -12.655,-28.272 -28.273,-28.272 -3.946,0 -7.839,0.823 -11.445,2.423 l 2.192,-21.957 h 28.273 l -1.028,-15.422 h -41.123 l -5.14,51.405 17.99,4.112 c 2.427,-3.235 6.237,-5.141 10.281,-5.141 7.099,0 12.852,5.753 12.852,12.852 v 11.31 c 0,7.099 -5.753,12.852 -12.852,12.852 -7.099,0 -12.852,-5.753 -12.852,-12.852 z"
   id="path1432"
   inkscape:connector-curvature="0" />
</g>
<g
   id="LWPOLYLINE_60_"
   transform="translate(-102.931,-14.173)">
	<polygon
   style="fill:#101820"
   points="169.008,317.122 173.665,317.122 180.93,344.541 176.545,344.541 175.313,339.876 167.36,339.876 166.128,344.541 161.742,344.541 "
   id="polygon1435" />
</g>
<g
   id="LWPOLYLINE_61_"
   transform="translate(-102.931,-14.173)">
	<rect
   x="184.77"
   y="317.12201"
   style="fill:#101820"
   width="4.112"
   height="27.419001"
   id="rect1438" />
</g>
<g
   id="LWPOLYLINE_62_"
   transform="translate(-102.931,-14.173)">
	<rect
   x="194.36301"
   y="317.12201"
   style="fill:#101820"
   width="4.112"
   height="27.419001"
   id="rect1441" />
</g>
<g
   id="LWPOLYLINE_63_"
   transform="translate(-102.931,-14.173)">
	<path
   style="fill:#101820"
   d="m 215.916,325.143 c -0.892,-0.756 -2.019,-1.164 -3.183,-1.164 -1.655,0.204 -3.243,0.764 -4.656,1.641 v -1.641 h -4.112 v 20.563 h 4.112 v -14.534 c 0,-1.516 1.225,-2.74 2.736,-2.74 1.52,0 2.744,1.225 2.744,2.74 v 14.534 h 4.112 v -14.534 c 0,-1.516 1.225,-2.74 2.744,-2.74 1.512,0 2.736,1.225 2.736,2.74 v 14.534 h 4.113 V 328.87 c -0.189,-2.634 -2.299,-4.725 -4.937,-4.891 -2.199,-0.288 -4.444,0.121 -6.409,1.164 z"
   id="path1444"
   inkscape:connector-curvature="0" />
</g>
<g
   id="LWPOLYLINE_64_"
   transform="translate(-102.931,-14.173)">
	<rect
   x="240.15199"
   y="317.12201"
   style="fill:#101820"
   width="4.112"
   height="4.112"
   id="rect1447" />
</g>
<g
   id="LWPOLYLINE_65_"
   transform="translate(-102.931,-14.173)">
	<rect
   x="232.75101"
   y="317.12201"
   style="fill:#101820"
   width="4.112"
   height="4.112"
   id="rect1450" />
</g>
<g
   id="LWPOLYLINE_66_"
   transform="translate(-102.931,-14.173)">
	<path
   style="fill:#101820"
   d="m 244.809,344.541 h -4.112 v -1.319 c -1.648,0.892 -3.501,1.346 -5.383,1.315 -1.686,0.045 -3.205,-1.017 -3.742,-2.619 -0.665,-2.103 -0.099,-4.404 1.459,-5.961 2.003,-2.151 4.74,-3.467 7.666,-3.682 v -2.128 c 0,-1.138 -0.915,-2.057 -2.057,-2.057 -1.134,0 -2.057,0.919 -2.057,2.057 h -4.112 c 0,-3.41 2.767,-6.169 6.169,-6.169 3.409,0 6.169,2.759 6.169,6.169 z"
   id="path1453"
   inkscape:connector-curvature="0" />
</g>
<g
   id="LWPOLYLINE_68_"
   transform="translate(-102.931,-14.173)">
	<path
   style="fill:#101820"
   d="m 263.451,329.051 v 15.49 h -4.112 v -14.534 c 0,-1.516 -1.225,-2.74 -2.736,-2.74 -1.52,0 -2.744,1.225 -2.744,2.74 v 14.534 h -4.112 v -20.563 h 4.112 v 1.641 c 1.413,-0.877 3.009,-1.437 4.664,-1.641 2.722,0 4.929,2.207 4.929,4.933 v 0.14 z"
   id="path1456"
   inkscape:connector-curvature="0" />
</g>
<g
   id="LWPOLYLINE_69_"
   transform="translate(-102.931,-14.173)">
	<path
   style="fill:#101820"
   d="m 136.791,367.432 -0.011,11.274 c -0.461,2.378 -2.502,4.128 -4.925,4.215 -1.648,-0.208 -3.235,-0.76 -4.661,-1.622 v 1.622 h -4.112 v -27.415 h 4.112 v 8.501 c 1.417,-0.885 3.009,-1.444 4.661,-1.648 2.725,0 4.937,2.208 4.937,4.937 v 0.136 z"
   id="path1459"
   inkscape:connector-curvature="0" />
</g>
<g
   id="LWPOLYLINE_71_"
   transform="translate(-102.931,-14.173)">
	<path
   style="fill:#101820"
   d="m 150.5,376.068 h 4.112 c 0,3.783 -3.069,6.853 -6.856,6.853 -3.784,0 -6.853,-3.069 -6.853,-6.853 v -6.854 c 0,-3.787 3.069,-6.856 6.853,-6.856 3.787,0 6.856,3.069 6.856,6.856 v 3.837 h -9.597 v 3.017 c 0,1.516 1.229,2.74 2.74,2.74 1.517,0.001 2.745,-1.224 2.745,-2.74 z"
   id="path1462"
   inkscape:connector-curvature="0" />
</g>
<g
   id="LWPOLYLINE_73_"
   transform="translate(-102.931,-14.173)">
	<path
   style="fill:#101820"
   d="m 168.32,381.824 c -1.414,0.877 -3.009,1.44 -4.663,1.645 -2.725,0 -4.933,-2.211 -4.933,-4.933 V 378.4 l 0.012,-11.279 c 0.457,-2.381 2.498,-4.127 4.921,-4.215 1.654,0.208 3.241,0.76 4.663,1.622 v -1.622 h 4.112 v 18.918 c 0,0.961 -0.211,1.913 -0.62,2.786 -1.535,3.292 -5.451,4.714 -8.745,3.175 l 1.737,-3.723 c 1.24,0.574 2.707,0.041 3.281,-1.194 0.152,-0.325 0.235,-0.68 0.235,-1.044 z"
   id="path1465"
   inkscape:connector-curvature="0" />
</g>
<g
   id="LWPOLYLINE_75_"
   transform="translate(-102.931,-14.173)">
	<path
   style="fill:#101820"
   d="m 181.482,368.663 v 14.258 h -4.113 v -20.563 h 4.113 v 1.104 c 1.444,-0.727 3.039,-1.104 4.656,-1.104 v 4.347 c -1.081,-1.058 -2.812,-1.043 -3.878,0.038 -0.499,0.515 -0.778,1.202 -0.778,1.92 z"
   id="path1468"
   inkscape:connector-curvature="0" />
</g>
<g
   id="LWPOLYLINE_76_"
   transform="translate(-102.931,-14.173)">
	<rect
   x="197.10699"
   y="355.50601"
   style="fill:#101820"
   width="4.1129999"
   height="4.112"
   id="rect1471" />
</g>
<g
   id="LWPOLYLINE_77_"
   transform="translate(-102.931,-14.173)">
	<rect
   x="189.707"
   y="355.50601"
   style="fill:#101820"
   width="4.112"
   height="4.112"
   id="rect1474" />
</g>
<g
   id="LWPOLYLINE_78_"
   transform="translate(-102.931,-14.173)">
	<path
   style="fill:#101820"
   d="m 201.764,382.921 h -4.112 v -1.315 c -1.648,0.893 -3.5,1.346 -5.375,1.315 -1.693,0.046 -3.213,-1.021 -3.742,-2.623 -0.673,-2.102 -0.105,-4.399 1.452,-5.957 2.003,-2.151 4.74,-3.462 7.666,-3.682 v -2.132 c 0,-1.134 -0.915,-2.057 -2.056,-2.057 -1.134,0 -2.056,0.923 -2.056,2.057 h -4.113 c 0,-3.405 2.767,-6.169 6.169,-6.169 3.409,0 6.168,2.764 6.168,6.169 v 14.394 z"
   id="path1477"
   inkscape:connector-curvature="0" />
</g>
<g
   id="LWPOLYLINE_80_"
   transform="translate(-102.931,-14.173)">
	<path
   style="fill:#101820"
   d="m 220.414,367.432 v 15.489 h -4.112 v -14.529 c 0,-1.516 -1.232,-2.744 -2.744,-2.744 -1.512,0 -2.744,1.229 -2.744,2.744 v 14.529 h -4.112 v -20.563 h 4.112 v 1.648 c 1.421,-0.885 3.009,-1.444 4.664,-1.648 2.722,0 4.937,2.208 4.937,4.937 v 0.137 z"
   id="path1480"
   inkscape:connector-curvature="0" />
</g>
<g
   id="LWPOLYLINE_81_"
   transform="translate(-102.931,-14.173)">
	<path
   style="fill:#101820"
   d="m 224.247,376.068 c 0,3.783 3.069,6.853 6.856,6.853 h 0.552 c 3.326,0 6.025,-2.699 6.025,-6.032 0,-2.147 -1.134,-4.128 -2.994,-5.209 l -4.551,-2.653 c -0.415,-0.246 -0.68,-0.695 -0.68,-1.183 0,-0.76 0.619,-1.373 1.375,-1.373 h 0.824 c 0.756,0 1.368,0.613 1.368,1.373 h 4.113 c 0,-3.028 -2.457,-5.485 -5.481,-5.485 h -0.824 c -3.031,0 -5.488,2.457 -5.488,5.485 0,1.95 1.036,3.753 2.722,4.735 l 4.551,2.653 c 0.59,0.341 0.953,0.976 0.953,1.656 0,1.062 -0.854,1.92 -1.913,1.92 h -0.552 c -1.512,0 -2.744,-1.225 -2.744,-2.74 z"
   id="path1483"
   inkscape:connector-curvature="0" />
</g>
<g
   id="LWPOLYLINE_82_"
   transform="translate(-102.931,-14.173)">
	<path
   style="fill:#101820"
   d="m 256.05,367.432 v 15.489 h -4.113 v -14.529 c 0,-1.516 -1.225,-2.744 -2.736,-2.744 -1.52,0 -2.744,1.229 -2.744,2.744 v 14.529 h -4.112 v -20.563 h 4.112 v 1.648 c 1.414,-0.885 3.009,-1.444 4.657,-1.648 2.729,0 4.937,2.208 4.937,4.937 v 0.137 z"
   id="path1486"
   inkscape:connector-curvature="0" />
</g>
<g
   id="LWPOLYLINE_83_"
   transform="translate(-102.931,-14.173)">
	<rect
   x="260.98599"
   y="362.358"
   style="fill:#101820"
   width="4.1129999"
   height="20.563"
   id="rect1489" />
</g>
<g
   id="LWPOLYLINE_84_"
   transform="translate(-102.931,-14.173)">
	<rect
   x="260.98599"
   y="355.50601"
   style="fill:#101820"
   width="4.1129999"
   height="4.112"
   id="rect1492" />
</g>
<g
   id="LWPOLYLINE_85_"
   transform="translate(-102.931,-14.173)">
	<path
   style="fill:#101820"
   d="m 284.292,367.432 v 15.489 h -4.112 v -14.529 c 0,-1.516 -1.232,-2.744 -2.744,-2.744 -1.512,0 -2.744,1.229 -2.744,2.744 v 14.529 h -4.112 v -20.563 h 4.112 v 1.648 c 1.421,-0.885 3.009,-1.444 4.664,-1.648 2.722,0 4.937,2.208 4.937,4.937 v 0.137 z"
   id="path1495"
   inkscape:connector-curvature="0" />
</g>
<g
   id="LWPOLYLINE_86_"
   transform="translate(-102.931,-14.173)">
	<path
   style="fill:#101820"
   d="m 297.999,381.824 c -1.414,0.877 -3.009,1.44 -4.664,1.645 -2.722,0 -4.93,-2.211 -4.93,-4.933 V 378.4 l 0.008,-11.279 c 0.461,-2.381 2.502,-4.127 4.922,-4.215 1.655,0.208 3.242,0.76 4.664,1.622 v -1.622 h 4.112 v 18.918 c 0,0.961 -0.212,1.913 -0.62,2.786 -1.534,3.292 -5.45,4.714 -8.746,3.175 l 1.738,-3.723 c 1.24,0.574 2.706,0.041 3.281,-1.194 0.158,-0.325 0.235,-0.68 0.235,-1.044 z"
   id="path1498"
   inkscape:connector-curvature="0" />
</g>
<g
   id="LWPOLYLINE_88_"
   transform="translate(-102.931,-14.173)">
	<polygon
   style="fill:#101820"
   points="131.854,284.223 138.711,267.772 134.051,267.772 129.798,277.971 125.55,267.772 120.889,267.772 127.742,284.223 127.742,295.191 129.798,295.191 131.854,295.191 "
   id="polygon1501" />
</g>
<g
   id="LWPOLYLINE_89_"
   transform="translate(-102.931,-14.173)">
	<rect
   x="141.452"
   y="267.772"
   style="fill:#101820"
   width="4.112"
   height="27.419001"
   id="rect1504" />
</g>
<g
   id="LWPOLYLINE_90_"
   transform="translate(-102.931,-14.173)">
	<path
   style="fill:#101820"
   d="m 159.821,288.335 h 4.113 c 0,3.787 -3.069,6.856 -6.857,6.856 -3.784,0 -6.853,-3.069 -6.853,-6.856 v -6.853 c 0,-3.784 3.069,-6.854 6.853,-6.854 3.788,0 6.857,3.069 6.857,6.854 v 3.836 h -9.597 v 3.017 c 0,1.512 1.229,2.744 2.74,2.744 1.516,0 2.744,-1.232 2.744,-2.744 z"
   id="path1507"
   inkscape:connector-curvature="0" />
</g>
<g
   id="LWPOLYLINE_92_"
   transform="translate(-102.931,-14.173)">
	<rect
   x="168.86501"
   y="274.629"
   style="fill:#101820"
   width="4.112"
   height="20.563"
   id="rect1510" />
</g>
<g
   id="LWPOLYLINE_93_"
   transform="translate(-102.931,-14.173)">
	<rect
   x="168.86501"
   y="267.772"
   style="fill:#101820"
   width="4.112"
   height="4.112"
   id="rect1513" />
</g>
<g
   id="LWPOLYLINE_94_"
   transform="translate(-102.931,-14.173)">
	<path
   style="fill:#101820"
   d="m 177.369,288.335 c 0,3.787 3.069,6.856 6.849,6.856 h 0.552 c 3.334,0 6.033,-2.702 6.033,-6.032 0,-2.147 -1.142,-4.132 -2.994,-5.213 l -4.551,-2.649 c -0.423,-0.25 -0.681,-0.699 -0.681,-1.187 0,-0.757 0.612,-1.369 1.369,-1.369 h 0.824 c 0.756,0 1.368,0.612 1.368,1.369 h 4.113 c 0,-3.028 -2.457,-5.481 -5.481,-5.481 h -0.824 c -3.024,0 -5.481,2.453 -5.481,5.481 0,1.95 1.036,3.757 2.722,4.739 l 4.551,2.649 c 0.59,0.345 0.953,0.976 0.953,1.66 0,1.058 -0.862,1.92 -1.92,1.92 h -0.552 c -1.512,0 -2.736,-1.232 -2.736,-2.744 h -4.114 z"
   id="path1516"
   inkscape:connector-curvature="0" />
</g>
<g
   id="LWPOLYLINE_95_"
   transform="translate(-102.931,-14.173)">
	<path
   style="fill:#101820"
   d="m 199.572,280.934 v 14.258 h -4.112 v -20.563 h 4.112 v 1.097 c 1.451,-0.723 3.047,-1.097 4.664,-1.097 v 4.347 c -1.081,-1.058 -2.819,-1.043 -3.878,0.038 -0.499,0.513 -0.786,1.202 -0.786,1.92 z"
   id="path1519"
   inkscape:connector-curvature="0" />
</g>
<g
   id="LWPOLYLINE_96_"
   transform="translate(-102.931,-14.173)">
	<path
   style="fill:#101820"
   d="m 219.862,295.191 h -4.112 v -1.319 c -1.648,0.893 -3.508,1.346 -5.383,1.315 -1.686,0.046 -3.205,-1.017 -3.741,-2.619 -0.666,-2.102 -0.106,-4.403 1.459,-5.961 2.003,-2.15 4.739,-3.466 7.665,-3.682 v -2.128 c 0,-1.138 -0.922,-2.057 -2.057,-2.057 -1.134,0 -2.056,0.919 -2.056,2.057 h -4.112 c 0,-3.409 2.759,-6.169 6.168,-6.169 3.41,0 6.169,2.76 6.169,6.169 z"
   id="path1522"
   inkscape:connector-curvature="0" />
</g>
<g
   id="LWPOLYLINE_98_"
   transform="translate(-102.931,-14.173)">
	<path
   style="fill:#101820"
   d="m 228.911,274.629 v 20.011 c 0,3.334 -2.698,6.032 -6.032,6.032 h -0.552 l 0.552,-4.112 c 1.059,0 1.92,-0.858 1.92,-1.92 v -20.011 z"
   id="path1525"
   inkscape:connector-curvature="0" />
</g>
<g
   id="LWPOLYLINE_99_"
   transform="translate(-102.931,-14.173)">
	<rect
   x="224.798"
   y="267.772"
   style="fill:#101820"
   width="4.112"
   height="4.112"
   id="rect1528" />
</g>
<g
   id="LWPOLYLINE_100_"
   transform="translate(-102.931,-14.173)">
	<path
   style="fill:#101820"
   d="m 233.847,288.335 c 0,3.787 3.069,6.856 6.85,6.856 3.787,0 6.856,-3.069 6.856,-6.856 v -6.853 c 0,-3.784 -3.069,-6.854 -6.856,-6.854 -3.78,0 -6.85,3.069 -6.85,6.854 z"
   id="path1531"
   inkscape:connector-curvature="0" />
</g>
<g
   id="LWPOLYLINE_102_"
   transform="translate(-102.931,-14.173)">
	<rect
   x="252.49001"
   y="274.629"
   style="fill:#101820"
   width="4.112"
   height="20.563"
   id="rect1534" />
</g>
<g
   id="LWPOLYLINE_103_"
   transform="translate(-102.931,-14.173)">
	<rect
   x="252.49001"
   y="267.772"
   style="fill:#101820"
   width="4.112"
   height="4.112"
   id="rect1537" />
</g>
<g
   id="LWPOLYLINE_104_"
   transform="translate(-102.931,-14.173)">
	<path
   style="fill:#101820"
   d="m 266.883,274.629 h 2.328 v 4.112 h -2.328 v 10.006 c 0,1.289 1.043,2.332 2.328,2.332 v 4.112 c -3.561,0 -6.441,-2.888 -6.441,-6.444 v -10.006 h -2.336 v -4.112 h 2.336 v -6.856 h 4.113 z"
   id="path1540"
   inkscape:connector-curvature="0" />
</g>
<g
   id="LWPOLYLINE_105_"
   transform="translate(-102.931,-14.173)">
	<path
   style="fill:#101820"
   d="m 272.772,290.119 v -15.49 h 4.112 v 14.53 c 0,1.512 1.232,2.74 2.744,2.74 1.512,0 2.744,-1.229 2.744,-2.74 v -14.53 h 4.112 v 20.563 h -4.112 v -1.648 c -1.421,0.881 -3.009,1.444 -4.664,1.648 -2.722,0 -4.937,-2.211 -4.937,-4.937 v -0.136 z"
   id="path1543"
   inkscape:connector-curvature="0" />
</g>
<g
   id="LWPOLYLINE_106_"
   transform="translate(-102.931,-14.173)">
	<path
   style="fill:#101820"
   d="m 290.87,288.335 c 0,3.787 3.069,6.856 6.856,6.856 h 0.544 c 3.334,0 6.033,-2.702 6.033,-6.032 0,-2.147 -1.142,-4.132 -2.994,-5.213 l -4.551,-2.649 c -0.423,-0.25 -0.68,-0.699 -0.68,-1.187 0,-0.757 0.612,-1.369 1.368,-1.369 h 0.823 c 0.757,0 1.376,0.612 1.376,1.369 h 4.112 c 0,-3.028 -2.456,-5.481 -5.488,-5.481 h -0.823 c -3.024,0 -5.481,2.453 -5.481,5.481 0,1.95 1.036,3.757 2.722,4.739 l 4.551,2.649 c 0.59,0.345 0.953,0.976 0.953,1.66 0,1.058 -0.862,1.92 -1.921,1.92 h -0.544 c -1.52,0 -2.744,-1.232 -2.744,-2.744 h -4.112 z"
   id="path1546"
   inkscape:connector-curvature="0" />
</g>
<g
   id="LWPOLYLINE_58_"
   transform="translate(-102.931,-14.173)">
	<path
   style="fill:#ffcd00"
   d="m 234.875,146.97 c 0,7.099 5.753,12.852 12.852,12.852 7.099,0 12.851,-5.753 12.851,-12.852 v -46.266 c 0,-7.096 -5.752,-12.851 -12.851,-12.851 -7.099,0 -12.852,5.755 -12.852,12.851 z"
   id="path1549"
   inkscape:connector-curvature="0" />
</g>
<g
   id="LWPOLYLINE_59_"
   transform="translate(-102.931,-14.173)">
	<polygon
   style="fill:#ffcd00"
   points="171.336,323.979 174.353,335.764 168.32,335.764 "
   id="polygon1552" />
</g>
<g
   id="LWPOLYLINE_67_"
   transform="translate(-102.931,-14.173)">
	<path
   style="fill:#ffcd00"
   d="m 240.697,334.955 c -1.369,0.333 -2.646,0.982 -3.712,1.901 -0.96,0.843 -1.505,2.067 -1.489,3.345 0.015,0.832 0.703,1.493 1.542,1.475 0.067,0 0.136,-0.008 0.204,-0.02 1.209,-0.196 2.374,-0.593 3.455,-1.175 z"
   id="path1555"
   inkscape:connector-curvature="0" />
</g>
<g
   id="LWPOLYLINE_70_"
   transform="translate(-102.931,-14.173)">
	<path
   style="fill:#ffcd00"
   d="m 127.194,368.392 v 8.497 c 0,1.516 1.229,2.744 2.744,2.744 1.512,0 2.741,-1.229 2.741,-2.744 v -8.497 c 0,-1.516 -1.229,-2.744 -2.741,-2.744 -1.516,-0.001 -2.744,1.228 -2.744,2.744 z"
   id="path1558"
   inkscape:connector-curvature="0" />
</g>
<g
   id="LWPOLYLINE_72_"
   transform="translate(-102.931,-14.173)">
	<path
   style="fill:#ffcd00"
   d="m 145.016,369.487 h 5.484 v -0.272 c 0,-1.516 -1.229,-2.744 -2.744,-2.744 -1.512,0 -2.74,1.229 -2.74,2.744 z"
   id="path1561"
   inkscape:connector-curvature="0" />
</g>
<g
   id="LWPOLYLINE_74_"
   transform="translate(-102.931,-14.173)">
	<path
   style="fill:#ffcd00"
   d="m 162.838,377.44 c 0,1.512 1.225,2.74 2.738,2.74 1.52,0 2.744,-1.229 2.744,-2.74 v -8.501 c 0,-1.516 -1.225,-2.74 -2.744,-2.74 -1.514,0 -2.738,1.225 -2.738,2.74 z"
   id="path1564"
   inkscape:connector-curvature="0" />
</g>
<g
   id="LWPOLYLINE_79_"
   transform="translate(-102.931,-14.173)">
	<path
   style="fill:#ffcd00"
   d="m 197.652,373.335 c -1.368,0.333 -2.639,0.983 -3.712,1.905 -0.96,0.843 -1.504,2.063 -1.489,3.342 0.015,0.835 0.71,1.496 1.542,1.474 0.068,0 0.136,-0.008 0.204,-0.015 1.21,-0.197 2.381,-0.594 3.455,-1.18 z"
   id="path1567"
   inkscape:connector-curvature="0" />
</g>
<g
   id="LWPOLYLINE_87_"
   transform="translate(-102.931,-14.173)">
	<path
   style="fill:#ffcd00"
   d="m 292.517,377.44 c 0,1.512 1.226,2.74 2.737,2.74 1.52,0 2.744,-1.229 2.744,-2.74 v -8.501 c 0,-1.516 -1.225,-2.74 -2.744,-2.74 -1.512,0 -2.737,1.225 -2.737,2.74 z"
   id="path1570"
   inkscape:connector-curvature="0" />
</g>
<g
   id="LWPOLYLINE_91_"
   transform="translate(-102.931,-14.173)">
	<path
   style="fill:#ffcd00"
   d="m 154.337,281.758 h 5.484 v -0.275 c 0,-1.517 -1.228,-2.741 -2.744,-2.741 -1.512,0 -2.74,1.225 -2.74,2.741 z"
   id="path1573"
   inkscape:connector-curvature="0" />
</g>
<g
   id="LWPOLYLINE_97_"
   transform="translate(-102.931,-14.173)">
	<path
   style="fill:#ffcd00"
   d="m 215.75,285.605 c -1.368,0.333 -2.646,0.983 -3.712,1.901 -0.968,0.843 -1.512,2.067 -1.497,3.346 0.023,0.831 0.711,1.492 1.543,1.474 0.067,0 0.136,-0.008 0.204,-0.019 1.209,-0.196 2.381,-0.594 3.462,-1.176 z"
   id="path1576"
   inkscape:connector-curvature="0" />
</g>
<g
   id="LWPOLYLINE_101_"
   transform="translate(-102.931,-14.173)">
	<path
   style="fill:#ffcd00"
   d="m 237.959,288.335 c 0,1.512 1.225,2.744 2.737,2.744 1.52,0 2.744,-1.232 2.744,-2.744 v -6.853 c 0,-1.517 -1.225,-2.741 -2.744,-2.741 -1.513,0 -2.737,1.225 -2.737,2.741 z"
   id="path1579"
   inkscape:connector-curvature="0" />
</g>
</svg>