<?xml version="1.0" encoding="iso-8859-1"?>
<!-- Generator: Adobe Illustrator 16.0.0, SVG Export Plug-In . SVG Version: 6.00 Build 0)  -->
<!DOCTYPE svg PUBLIC "-//W3C//DTD SVG 1.1//EN" "http://www.w3.org/Graphics/SVG/1.1/DTD/svg11.dtd">
<svg version="1.1" id="Layer_1" xmlns="http://www.w3.org/2000/svg" xmlns:xlink="http://www.w3.org/1999/xlink" x="0px" y="0px"
	 width="425.197px" height="425.196px" viewBox="0 0 425.197 425.196" style="enable-background:new 0 0 425.197 425.196;"
	 xml:space="preserve">
<g id="CIRCLE">
	<path style="fill:#FFCD00;" d="M352.278,153.848c0-77.141-62.537-139.675-139.68-139.675S72.918,76.707,72.918,153.848
		c0,77.144,62.537,139.675,139.68,139.675S352.278,230.991,352.278,153.848L352.278,153.848z"/>
</g>
<g id="LWPOLYLINE_25_">
	<rect x="103.479" y="301.899" style="fill:#FFCD00;" width="218.238" height="109.124"/>
</g>
<g id="CIRCLE_1_">
	<path style="fill:#E4002B;" d="M347.907,153.848c0-74.729-60.582-135.311-135.309-135.311S77.29,79.119,77.29,153.848
		c0,74.731,60.582,135.313,135.309,135.313S347.907,228.579,347.907,153.848L347.907,153.848z"/>
</g>
<g id="LWPOLYLINE_27_">
	<path style="fill:#E4002B;" d="M120.935,411.023h183.326c9.638,0,17.456-7.818,17.456-17.461V319.36
		c0-9.643-7.818-17.461-17.456-17.461H120.935c-9.647,0-17.456,7.818-17.456,17.461v74.202
		C103.479,403.205,111.288,411.023,120.935,411.023z"/>
</g>
<g id="CIRCLE_2_">
	<path style="fill:#FFCD00;" d="M319.542,153.848c0-59.061-47.883-106.938-106.943-106.938S105.655,94.787,105.655,153.848
		c0,59.063,47.883,106.938,106.943,106.938S319.542,212.911,319.542,153.848L319.542,153.848z"/>
</g>
<g id="LWPOLYLINE_26_">
	<path style="fill:#FFCD00;" d="M120.935,402.295h183.326c4.823,0,8.732-3.909,8.732-8.732V319.36c0-4.818-3.909-8.728-8.732-8.728
		H120.935c-4.823,0-8.732,3.909-8.732,8.728v74.202C112.203,398.386,116.112,402.295,120.935,402.295z"/>
</g>
<g id="LWPOLYLINE">
	<path style="fill:#101820;" d="M221.332,183.311c0,19.889,16.117,36.01,36.01,36.01c19.883,0,36.011-16.121,36.011-36.01v-58.926
		c0-19.888-16.128-36.01-36.011-36.01c-19.893,0-36.01,16.123-36.01,36.01V183.311z"/>
</g>
<g id="LWPOLYLINE_1_">
	<polygon style="fill:#101820;" points="173.748,88.375 193.389,88.375 193.389,173.49 203.865,173.49 203.865,193.132 
		193.389,193.132 193.389,219.321 173.748,219.321 173.748,193.132 125.297,193.132 125.297,173.49 	"/>
</g>
<g id="LWPOLYLINE_20_">
	<polygon style="fill:#101820;" points="168.509,378.287 161.529,378.287 173.092,334.636 180.516,334.636 192.08,378.287 
		185.099,378.287 183.135,370.868 170.474,370.868 	"/>
</g>
<g id="LWPOLYLINE_21_">
	<rect x="198.194" y="334.636" style="fill:#101820;" width="6.548" height="43.651"/>
</g>
<g id="LWPOLYLINE_22_">
	<path style="fill:#101820;" d="M212.598,370.213V345.55h6.547v23.133c0,2.411,1.955,4.366,4.362,4.366
		c2.417,0,4.371-1.955,4.371-4.366V345.55h6.548v32.737h-6.548v-2.619c-2.263,1.4-4.785,2.291-7.424,2.619
		c-4.342,0-7.856-3.52-7.856-7.857V370.213z"/>
</g>
<g id="LWPOLYLINE_23_">
	<path style="fill:#101820;" d="M257.12,367.373h6.548c0,6.027-4.882,10.914-10.909,10.914s-10.919-4.887-10.919-10.914v-10.909
		c0-6.027,4.892-10.914,10.919-10.914s10.909,4.887,10.909,10.914v6.109h-15.28v4.8c0,2.412,1.954,4.366,4.371,4.366
		C255.166,371.739,257.12,369.785,257.12,367.373z"/>
</g>
<g id="LWPOLYLINE_2_">
	<polygon style="fill:#FFCD00;" points="147.558,173.49 173.748,127.483 173.748,173.49 	"/>
</g>
<g id="LWPOLYLINE_3_">
	<path style="fill:#FFCD00;" d="M240.973,183.311c0,9.041,7.327,16.368,16.368,16.368s16.368-7.327,16.368-16.368v-58.926
		c0-9.039-7.327-16.368-16.368-16.368s-16.368,7.33-16.368,16.368V183.311z"/>
</g>
<g id="LWPOLYLINE_19_">
	<polygon style="fill:#FFCD00;" points="181.604,364.32 172.004,364.32 176.809,345.55 	"/>
</g>
<g id="LWPOLYLINE_24_">
	<path style="fill:#FFCD00;" d="M248.387,356.897h8.732v-0.434c0-2.417-1.954-4.366-4.361-4.366c-2.417,0-4.371,1.949-4.371,4.366
		V356.897z"/>
</g>
</svg>
