<?xml version="1.0" encoding="UTF-8" standalone="no"?>
<!-- Generator: Adobe Illustrator 16.0.0, SVG Export Plug-In . SVG Version: 6.00 Build 0)  -->

<svg
   xmlns:dc="http://purl.org/dc/elements/1.1/"
   xmlns:cc="http://creativecommons.org/ns#"
   xmlns:rdf="http://www.w3.org/1999/02/22-rdf-syntax-ns#"
   xmlns:svg="http://www.w3.org/2000/svg"
   xmlns="http://www.w3.org/2000/svg"
   xmlns:sodipodi="http://sodipodi.sourceforge.net/DTD/sodipodi-0.dtd"
   xmlns:inkscape="http://www.inkscape.org/namespaces/inkscape"
   version="1.1"
   id="Layer_1"
   x="0px"
   y="0px"
   width="396.853"
   height="396.85101"
   viewBox="0 0 396.85301 396.851"
   xml:space="preserve"
   sodipodi:docname="C32_9.svg"
   inkscape:version="0.92.5 (2060ec1f9f, 2020-04-08)"><metadata
   id="metadata1983"><rdf:RDF><cc:Work
       rdf:about=""><dc:format>image/svg+xml</dc:format><dc:type
         rdf:resource="http://purl.org/dc/dcmitype/StillImage" /></cc:Work></rdf:RDF></metadata><defs
   id="defs1981" /><sodipodi:namedview
   pagecolor="#ffffff"
   bordercolor="#666666"
   borderopacity="1"
   objecttolerance="10"
   gridtolerance="10"
   guidetolerance="10"
   inkscape:pageopacity="0"
   inkscape:pageshadow="2"
   inkscape:window-width="640"
   inkscape:window-height="480"
   id="namedview1979"
   showgrid="false"
   inkscape:zoom="0.55503813"
   inkscape:cx="198.4265"
   inkscape:cy="198.42599"
   inkscape:window-x="0"
   inkscape:window-y="0"
   inkscape:window-maximized="0"
   inkscape:current-layer="Layer_1" />
<g
   id="CIRCLE_3_"
   transform="translate(-14.172,-14.173)">
	<path
   style="fill:#ffcd00"
   d="m 411.025,212.601 c 0,-109.588 -88.84,-198.428 -198.428,-198.428 -109.585,0 -198.425,88.84 -198.425,198.428 0,109.583 88.84,198.423 198.425,198.423 109.588,-10e-4 198.428,-88.84 198.428,-198.423 z"
   id="path1957"
   inkscape:connector-curvature="0" />
</g>
<g
   id="CIRCLE_4_"
   transform="translate(-14.172,-14.173)">
	<path
   style="fill:#e4002b"
   d="m 404.818,212.601 c 0,-106.164 -86.062,-192.226 -192.221,-192.226 -106.162,0 -192.223,86.062 -192.223,192.226 0,106.159 86.062,192.221 192.223,192.221 106.159,-10e-4 192.221,-86.062 192.221,-192.221 z"
   id="path1960"
   inkscape:connector-curvature="0" />
</g>
<g
   id="CIRCLE_5_"
   transform="translate(-14.172,-14.173)">
	<path
   style="fill:#ffcd00"
   d="m 364.519,212.601 c 0,-83.907 -68.023,-151.922 -151.922,-151.922 -83.905,0 -151.919,68.015 -151.919,151.922 0,83.898 68.019,151.917 151.919,151.917 83.899,0 151.922,-68.019 151.922,-151.917 z"
   id="path1963"
   inkscape:connector-curvature="0" />
</g>
<g
   id="LWPOLYLINE_4_"
   transform="translate(-14.172,-14.173)">
	<path
   style="fill:#101820"
   d="m 245.963,254.455 c 0,28.25 22.902,51.156 51.156,51.156 28.254,0 51.156,-22.906 51.156,-51.156 v -83.71 c 0,-28.254 -22.902,-51.156 -51.156,-51.156 -28.254,0 -51.156,22.902 -51.156,51.156 z"
   id="path1966"
   inkscape:connector-curvature="0" />
</g>
<g
   id="LWPOLYLINE_5_"
   transform="translate(-14.172,-14.173)">
	<path
   style="fill:#101820"
   d="m 137.878,180.046 h 27.904 v -9.301 c 0,-3.014 0.585,-5.997 1.722,-8.788 4.852,-11.887 18.421,-17.594 30.313,-12.747 11.891,4.852 17.602,18.423 12.747,30.314 l -72.685,98.184 v 27.903 H 240.194 V 277.708 H 169.5 l 67.649,-89.592 c 9.592,-26.569 -4.164,-55.892 -30.742,-65.488 -26.57,-9.596 -55.89,4.167 -65.491,30.737 -2.599,7.207 -3.552,14.9 -2.778,22.526 z"
   id="path1969"
   inkscape:connector-curvature="0" />
</g>
<g
   id="LWPOLYLINE_6_"
   transform="translate(-14.172,-14.173)">
	<path
   style="fill:#101820"
   d="m 78.972,146.928 c 10.99,-5.693 19.256,-15.533 22.971,-27.339 h 28.186 v 186.022 h -27.903 v -143.24 l -20.444,3.724 z"
   id="path1972"
   inkscape:connector-curvature="0" />
</g>
<g
   id="LWPOLYLINE_7_"
   transform="translate(-14.172,-14.173)">
	<path
   style="fill:#ffcd00"
   d="m 273.867,254.455 c 0,12.841 10.412,23.253 23.253,23.253 12.841,0 23.253,-10.412 23.253,-23.253 v -83.71 c 0,-12.845 -10.412,-23.253 -23.253,-23.253 -12.841,0 -23.253,10.408 -23.253,23.253 z"
   id="path1975"
   inkscape:connector-curvature="0" />
</g>
</svg>