<?xml version="1.0" encoding="UTF-8" standalone="no"?>
<!-- Generator: Adobe Illustrator 16.0.0, SVG Export Plug-In . SVG Version: 6.00 Build 0)  -->

<svg
   xmlns:dc="http://purl.org/dc/elements/1.1/"
   xmlns:cc="http://creativecommons.org/ns#"
   xmlns:rdf="http://www.w3.org/1999/02/22-rdf-syntax-ns#"
   xmlns:svg="http://www.w3.org/2000/svg"
   xmlns="http://www.w3.org/2000/svg"
   xmlns:sodipodi="http://sodipodi.sourceforge.net/DTD/sodipodi-0.dtd"
   xmlns:inkscape="http://www.inkscape.org/namespaces/inkscape"
   version="1.1"
   id="Layer_1"
   x="0px"
   y="0px"
   width="396.853"
   height="396.85101"
   viewBox="0 0 396.85301 396.851"
   xml:space="preserve"
   sodipodi:docname="C32_7.svg"
   inkscape:version="0.92.5 (2060ec1f9f, 2020-04-08)"><metadata
   id="metadata1643"><rdf:RDF><cc:Work
       rdf:about=""><dc:format>image/svg+xml</dc:format><dc:type
         rdf:resource="http://purl.org/dc/dcmitype/StillImage" /></cc:Work></rdf:RDF></metadata><defs
   id="defs1641" /><sodipodi:namedview
   pagecolor="#ffffff"
   bordercolor="#666666"
   borderopacity="1"
   objecttolerance="10"
   gridtolerance="10"
   guidetolerance="10"
   inkscape:pageopacity="0"
   inkscape:pageshadow="2"
   inkscape:window-width="640"
   inkscape:window-height="480"
   id="namedview1639"
   showgrid="false"
   inkscape:zoom="0.55503813"
   inkscape:cx="198.4265"
   inkscape:cy="198.42599"
   inkscape:window-x="0"
   inkscape:window-y="0"
   inkscape:window-maximized="0"
   inkscape:current-layer="Layer_1" />
<g
   id="CIRCLE_3_"
   transform="translate(-14.172,-14.173)">
	<path
   style="fill:#ffcd00"
   d="m 411.025,212.601 c 0,-109.588 -88.84,-198.428 -198.428,-198.428 -109.585,0 -198.425,88.84 -198.425,198.428 0,109.583 88.84,198.423 198.425,198.423 109.588,-10e-4 198.428,-88.84 198.428,-198.423 z"
   id="path1614"
   inkscape:connector-curvature="0" />
</g>
<g
   id="CIRCLE_4_"
   transform="translate(-14.172,-14.173)">
	<path
   style="fill:#e4002b"
   d="m 404.818,212.601 c 0,-106.164 -86.062,-192.226 -192.221,-192.226 -106.162,0 -192.223,86.062 -192.223,192.226 0,106.159 86.062,192.221 192.223,192.221 106.159,-10e-4 192.221,-86.062 192.221,-192.221 z"
   id="path1617"
   inkscape:connector-curvature="0" />
</g>
<g
   id="CIRCLE_5_"
   transform="translate(-14.172,-14.173)">
	<path
   style="fill:#ffcd00"
   d="m 364.519,212.601 c 0,-83.907 -68.023,-151.922 -151.922,-151.922 -83.905,0 -151.919,68.015 -151.919,151.922 0,83.898 68.019,151.917 151.919,151.917 83.899,0 151.922,-68.019 151.922,-151.917 z"
   id="path1620"
   inkscape:connector-curvature="0" />
</g>
<g
   id="LWPOLYLINE_5_"
   transform="translate(-14.172,-14.173)">
	<path
   style="fill:#101820"
   d="m 225.001,254.455 c 0,28.25 22.902,51.156 51.156,51.156 28.245,0 51.156,-22.906 51.156,-51.156 v -83.71 c 0,-28.254 -22.911,-51.156 -51.156,-51.156 -28.254,0 -51.156,22.902 -51.156,51.156 z"
   id="path1623"
   inkscape:connector-curvature="0" />
</g>
<g
   id="LWPOLYLINE_6_"
   transform="translate(-14.172,-14.173)">
	<path
   style="fill:#101820"
   d="m 114.022,204.137 c -10.297,9.669 -16.14,23.168 -16.14,37.295 v 13.023 c 0,28.25 22.902,51.156 51.156,51.156 28.252,0 51.154,-22.906 51.154,-51.156 v -13.023 c 0,-14.127 -5.839,-27.626 -16.14,-37.295 7.412,-8.472 11.489,-19.346 11.489,-30.604 v -7.438 c 0,-25.689 -20.818,-46.506 -46.503,-46.506 -25.685,0 -46.506,20.816 -46.506,46.506 v 7.438 c 0.001,11.258 4.083,22.132 11.49,30.604 z"
   id="path1626"
   inkscape:connector-curvature="0" />
</g>
<g
   id="LWPOLYLINE_7_"
   transform="translate(-14.172,-14.173)">
	<path
   style="fill:#ffcd00"
   d="m 125.786,254.455 c 0,12.841 10.413,23.253 23.253,23.253 12.845,0 23.253,-10.412 23.253,-23.253 v -13.023 c 0,-12.845 -10.408,-23.253 -23.253,-23.253 -12.84,0 -23.253,10.408 -23.253,23.253 z"
   id="path1629"
   inkscape:connector-curvature="0" />
</g>
<g
   id="LWPOLYLINE_8_"
   transform="translate(-14.172,-14.173)">
	<path
   style="fill:#ffcd00"
   d="m 130.436,166.095 v 7.438 c 0,10.275 8.331,18.602 18.603,18.602 10.276,0 18.603,-8.326 18.603,-18.602 v -7.438 c 0,-10.276 -8.327,-18.603 -18.603,-18.603 -10.272,0 -18.603,8.327 -18.603,18.603 z"
   id="path1632"
   inkscape:connector-curvature="0" />
</g>
<g
   id="LWPOLYLINE_9_"
   transform="translate(-14.172,-14.173)">
	<path
   style="fill:#ffcd00"
   d="m 252.905,254.455 c 0,12.841 10.404,23.253 23.253,23.253 12.841,0 23.253,-10.412 23.253,-23.253 v -83.71 c 0,-12.845 -10.412,-23.253 -23.253,-23.253 -12.849,0 -23.253,10.408 -23.253,23.253 z"
   id="path1635"
   inkscape:connector-curvature="0" />
</g>
</svg>