<?xml version="1.0" encoding="iso-8859-1"?>
<!-- Generator: Adobe Illustrator 16.0.0, SVG Export Plug-In . SVG Version: 6.00 Build 0)  -->
<!DOCTYPE svg PUBLIC "-//W3C//DTD SVG 1.1//EN" "http://www.w3.org/Graphics/SVG/1.1/DTD/svg11.dtd">
<svg version="1.1" id="Layer_1" xmlns="http://www.w3.org/2000/svg" xmlns:xlink="http://www.w3.org/1999/xlink" x="0px" y="0px"
	 width="425.197px" height="425.196px" viewBox="0 0 425.197 425.196" style="enable-background:new 0 0 425.197 425.196;"
	 xml:space="preserve">
<g id="CIRCLE_3_">
	<path style="fill:#FFCD00;" d="M411.025,212.601c0-109.588-88.84-198.428-198.428-198.428
		c-109.585,0-198.425,88.84-198.425,198.428c0,109.583,88.84,198.423,198.425,198.423
		C322.185,411.023,411.025,322.184,411.025,212.601L411.025,212.601z"/>
</g>
<g id="CIRCLE_4_">
	<path style="fill:#E4002B;" d="M404.818,212.601c0-106.164-86.062-192.226-192.221-192.226
		c-106.162,0-192.223,86.062-192.223,192.226c0,106.159,86.062,192.221,192.223,192.221
		C318.756,404.821,404.818,318.76,404.818,212.601L404.818,212.601z"/>
</g>
<g id="CIRCLE_5_">
	<path style="fill:#FFCD00;" d="M364.519,212.601c0-83.907-68.023-151.922-151.922-151.922
		c-83.905,0-151.919,68.015-151.919,151.922c0,83.898,68.019,151.917,151.919,151.917
		C296.496,364.518,364.519,296.499,364.519,212.601L364.519,212.601z"/>
</g>
<g id="LWPOLYLINE_4_">
	<path style="fill:#101820;" d="M225.001,254.455c0,28.25,22.902,51.156,51.156,51.156c28.245,0,51.156-22.906,51.156-51.156v-83.71
		c0-28.254-22.911-51.156-51.156-51.156c-28.254,0-51.156,22.902-51.156,51.156V254.455z"/>
</g>
<g id="LWPOLYLINE_5_">
	<polygon style="fill:#101820;" points="157.408,119.589 185.309,119.589 185.309,240.504 200.193,240.504 200.193,268.407 
		185.309,268.407 185.309,305.611 157.408,305.611 157.408,268.407 88.581,268.407 88.581,240.504 	"/>
</g>
<g id="LWPOLYLINE_6_">
	<polygon style="fill:#FFCD00;" points="120.203,240.504 157.408,175.139 157.408,240.504 	"/>
</g>
<g id="LWPOLYLINE_7_">
	<path style="fill:#FFCD00;" d="M252.905,254.455c0,12.841,10.404,23.253,23.253,23.253c12.841,0,23.253-10.412,23.253-23.253
		v-83.71c0-12.845-10.412-23.253-23.253-23.253c-12.849,0-23.253,10.408-23.253,23.253V254.455z"/>
</g>
</svg>
