<?xml version="1.0" encoding="iso-8859-1"?>
<!-- Generator: Adobe Illustrator 16.0.0, SVG Export Plug-In . SVG Version: 6.00 Build 0)  -->
<!DOCTYPE svg PUBLIC "-//W3C//DTD SVG 1.1//EN" "http://www.w3.org/Graphics/SVG/1.1/DTD/svg11.dtd">
<svg version="1.1" id="Layer_1" xmlns="http://www.w3.org/2000/svg" xmlns:xlink="http://www.w3.org/1999/xlink" x="0px" y="0px"
	 width="425.197px" height="425.196px" viewBox="0 0 425.197 425.196" style="enable-background:new 0 0 425.197 425.196;"
	 xml:space="preserve">
<g id="CIRCLE_1_">
	<path style="fill:#FFCD00;" d="M411.025,212.601c0-109.588-88.84-198.428-198.428-198.428
		c-109.585,0-198.425,88.84-198.425,198.428c0,109.583,88.84,198.423,198.425,198.423
		C322.185,411.023,411.025,322.184,411.025,212.601L411.025,212.601z"/>
</g>
<g id="LWPOLYLINE_6_">
	<path style="fill:#101820;" d="M349.576,69.04c-2.992-2.855-6.078-5.621-9.25-8.284L60.754,340.329
		c2.663,3.171,5.429,6.253,8.284,9.249L349.576,69.04z"/>
</g>
<g id="LWPOLYLINE_7_">
	<path style="fill:#101820;" d="M364.442,84.863c-2.667-3.167-5.429-6.249-8.292-9.246L75.617,356.152
		c2.997,2.859,6.078,5.625,9.246,8.293L364.442,84.863z"/>
</g>
<g id="LWPOLYLINE_8_">
	<path style="fill:#101820;" d="M377.598,102.389c-2.325-3.479-4.762-6.891-7.309-10.225L92.163,370.292
		c3.33,2.548,6.741,4.984,10.229,7.31L377.598,102.389z"/>
</g>
<g id="LWPOLYLINE_9_">
	<path style="fill:#101820;" d="M333.034,54.899c-3.334-2.539-6.745-4.979-10.233-7.309L47.589,322.804
		c2.33,3.487,4.766,6.898,7.31,10.225L333.034,54.899z"/>
</g>
<g id="LWPOLYLINE_10_">
	<path style="fill:#8A8D8F;" d="M252.905,178.866v-8.121c0-1.94,0.239-3.873,0.719-5.749l-28.622,28.626v13.147L252.905,178.866z"/>
</g>
<g id="LWPOLYLINE_11_">
	<path style="fill:#8A8D8F;" d="M281.245,119.841c-4.54-0.457-9.122-0.299-13.618,0.462l-41.915,41.915
		c-0.471,2.816-0.71,5.668-0.71,8.527v5.339L281.245,119.841z"/>
</g>
<g id="LWPOLYLINE_12_">
	<path style="fill:#8A8D8F;" d="M303.967,127.804c-2.735-1.77-5.634-3.274-8.66-4.497l-24.902,24.903
		c4.214-1.073,8.643-0.945,12.789,0.368L303.967,127.804z"/>
</g>
<g id="LWPOLYLINE_13_">
	<path style="fill:#8A8D8F;" d="M319.261,143.196c-1.685-2.637-3.607-5.116-5.745-7.403L293.76,155.55
		c2.128,2.47,3.719,5.364,4.659,8.488L319.261,143.196z"/>
</g>
<g id="LWPOLYLINE_14_">
	<polygon style="fill:#8A8D8F;" points="252.905,209.557 252.905,196.404 225.001,224.308 225.001,237.46 	"/>
</g>
<g id="LWPOLYLINE_15_">
	<path style="fill:#8A8D8F;" d="M327.314,170.745c0-5.301-0.829-10.575-2.444-15.619l-25.459,25.458v73.87
		c0,12.841-10.412,23.253-23.253,23.253c-12.849,0-23.253-10.412-23.253-23.253v-27.364l-27.903,27.903c0,0.043,0,0.085,0,0.132
		c0.376,28.25,23.578,50.854,51.823,50.478c27.989-0.368,50.489-23.159,50.489-51.148V170.745z"/>
</g>
<g id="LWPOLYLINE_16_">
	<path style="fill:#8A8D8F;" d="M198.62,263.838c0.582-3.095,0.872-6.236,0.872-9.383v-4.638l-55.6,55.598
		c4.616,0.402,9.267,0.18,13.824-0.676L198.62,263.838z"/>
</g>
<g id="LWPOLYLINE_17_">
	<path style="fill:#8A8D8F;" d="M198.167,233.604c-0.778-3.377-1.906-6.659-3.351-9.806l-23.229,23.236v7.42
		c0,2.274-0.338,4.544-0.996,6.724L198.167,233.604z"/>
</g>
<g id="LWPOLYLINE_18_">
	<path style="fill:#8A8D8F;" d="M155.057,276.712c-4.305,1.304-8.899,1.325-13.217,0.068l-20.889,20.885
		c2.766,1.749,5.685,3.232,8.733,4.425L155.057,276.712z"/>
</g>
<g id="LWPOLYLINE_19_">
	<path style="fill:#8A8D8F;" d="M131.061,270.022c-2.171-2.41-3.813-5.244-4.826-8.326l-20.731,20.73
		c1.71,2.621,3.655,5.078,5.813,7.336L131.061,270.022z"/>
</g>
<g id="LWPOLYLINE_20_">
	<path style="fill:#8A8D8F;" d="M188.105,212.977c-1.958-2.411-4.121-4.646-6.48-6.668l-19.861,19.858
		c2.556,1.813,4.723,4.121,6.365,6.788L188.105,212.977z"/>
</g>
<g id="LWPOLYLINE_21_">
	<path style="fill:#8A8D8F;" d="M181.539,119.589h-37.202c-24.305,30.763-40.522,67.125-47.16,105.767v29.1
		c0,5.488,0.88,10.942,2.616,16.149l25.288-25.288v-0.162c0-0.06,0-0.111,0-0.167c0.09-12.84,10.575-23.18,23.415-23.086
		l22.573-22.577c-11.665-5.788-25.095-6.908-37.559-3.134C143.674,167.428,160.08,141.269,181.539,119.589z"/>
</g>
</svg>
