<?xml version="1.0" encoding="UTF-8" standalone="no"?>
<!-- Generator: Adobe Illustrator 16.0.0, SVG Export Plug-In . SVG Version: 6.00 Build 0)  -->

<svg
   xmlns:dc="http://purl.org/dc/elements/1.1/"
   xmlns:cc="http://creativecommons.org/ns#"
   xmlns:rdf="http://www.w3.org/1999/02/22-rdf-syntax-ns#"
   xmlns:svg="http://www.w3.org/2000/svg"
   xmlns="http://www.w3.org/2000/svg"
   xmlns:sodipodi="http://sodipodi.sourceforge.net/DTD/sodipodi-0.dtd"
   xmlns:inkscape="http://www.inkscape.org/namespaces/inkscape"
   version="1.1"
   id="Layer_1"
   x="0px"
   y="0px"
   width="396.85101"
   height="396.87201"
   viewBox="0 0 396.85102 396.872"
   xml:space="preserve"
   sodipodi:docname="C34.svg"
   inkscape:version="0.92.5 (2060ec1f9f, 2020-04-08)"><metadata
   id="metadata2359"><rdf:RDF><cc:Work
       rdf:about=""><dc:format>image/svg+xml</dc:format><dc:type
         rdf:resource="http://purl.org/dc/dcmitype/StillImage" /></cc:Work></rdf:RDF></metadata><defs
   id="defs2357" /><sodipodi:namedview
   pagecolor="#ffffff"
   bordercolor="#666666"
   borderopacity="1"
   objecttolerance="10"
   gridtolerance="10"
   guidetolerance="10"
   inkscape:pageopacity="0"
   inkscape:pageshadow="2"
   inkscape:window-width="640"
   inkscape:window-height="480"
   id="namedview2355"
   showgrid="false"
   inkscape:zoom="0.55503813"
   inkscape:cx="198.4255"
   inkscape:cy="198.43599"
   inkscape:window-x="0"
   inkscape:window-y="0"
   inkscape:window-maximized="0"
   inkscape:current-layer="Layer_1" />
<g
   id="LWPOLYLINE_61_"
   transform="translate(-14.173,-14.162)">
	<polygon
   style="fill:#ffcd00"
   points="14.173,14.294 411.024,14.162 411.024,411.034 14.173,411.034 "
   id="polygon2327" />
</g>
<g
   id="LWPOLYLINE_60_"
   transform="translate(-14.173,-14.162)">
	<path
   style="fill:#e4002b"
   d="M 391.183,411.034 H 34.014 c -10.957,0 -19.841,-8.884 -19.841,-19.842 V 34.13 c 0,-10.956 8.879,-19.839 19.834,-19.843 l 357.169,-0.119 c 0.002,0 0.004,0 0.007,0 10.957,0 19.841,8.885 19.841,19.844 v 357.181 c 0,10.957 -8.884,19.841 -19.841,19.841 z"
   id="path2330"
   inkscape:connector-curvature="0" />
</g>
<g
   id="LWPOLYLINE_62_"
   transform="translate(-14.173,-14.162)">
	<path
   style="fill:#ffcd00"
   d="M 388.978,397.806 H 36.219 c -4.87,0 -8.818,-3.948 -8.818,-8.818 V 36.334 c 0,-4.87 3.946,-8.817 8.815,-8.818 l 352.759,-0.117 c 4.873,0 8.821,3.948 8.821,8.818 v 352.771 c 0,4.869 -3.948,8.818 -8.818,8.818 z"
   id="path2333"
   inkscape:connector-curvature="0" />
</g>
<g
   id="CIRCLE_11_"
   transform="translate(-14.173,-14.162)">
	<path
   style="fill:#e4002b"
   d="m 349.293,212.631 c 0,-75.493 -61.2,-136.693 -136.694,-136.693 -75.496,0 -136.695,61.2 -136.695,136.693 0,75.494 61.199,136.693 136.695,136.693 75.494,0 136.694,-61.199 136.694,-136.693 z"
   id="path2336"
   inkscape:connector-curvature="0" />
</g>
<g
   id="CIRCLE_12_"
   transform="translate(-14.173,-14.162)">
	<path
   style="fill:#ffcd00"
   d="m 320.632,212.631 c 0,-59.664 -48.369,-108.031 -108.033,-108.031 -59.665,0 -108.034,48.367 -108.034,108.031 0,59.665 48.369,108.032 108.034,108.032 59.664,0 108.033,-48.367 108.033,-108.032 z"
   id="path2339"
   inkscape:connector-curvature="0" />
</g>
<g
   id="LWPOLYLINE_63_"
   transform="translate(-14.173,-14.162)">
	<path
   style="fill:#101820"
   d="m 221.418,242.395 c 0,20.091 16.287,36.379 36.379,36.379 20.09,0 36.377,-16.288 36.377,-36.379 v -59.527 c 0,-20.092 -16.287,-36.379 -36.377,-36.379 -20.092,0 -36.379,16.287 -36.379,36.379 z"
   id="path2342"
   inkscape:connector-curvature="0" />
</g>
<g
   id="LWPOLYLINE_64_"
   transform="translate(-14.173,-14.162)">
	<polygon
   style="fill:#101820"
   points="193.196,232.473 203.779,232.473 203.779,252.315 193.196,252.315 193.196,278.773 173.354,278.773 173.354,252.315 124.409,252.315 124.409,232.473 173.354,146.488 193.196,146.488 "
   id="polygon2345" />
</g>
<g
   id="LWPOLYLINE_65_"
   transform="translate(-14.173,-14.162)">
	<polygon
   style="fill:#ffcd00"
   points="173.354,232.473 146.896,232.473 173.354,185.995 "
   id="polygon2348" />
</g>
<g
   id="LWPOLYLINE_66_"
   transform="translate(-14.173,-14.162)">
	<path
   style="fill:#ffcd00"
   d="m 241.26,242.395 c 0,9.133 7.404,16.536 16.537,16.536 9.131,0 16.534,-7.403 16.534,-16.536 v -59.527 c 0,-9.133 -7.403,-16.536 -16.534,-16.536 -9.133,0 -16.537,7.403 -16.537,16.536 z"
   id="path2351"
   inkscape:connector-curvature="0" />
</g>
</svg>