<?xml version="1.0" encoding="iso-8859-1"?>
<!-- Generator: Adobe Illustrator 16.0.0, SVG Export Plug-In . SVG Version: 6.00 Build 0)  -->
<!DOCTYPE svg PUBLIC "-//W3C//DTD SVG 1.1//EN" "http://www.w3.org/Graphics/SVG/1.1/DTD/svg11.dtd">
<svg version="1.1" id="Layer_1" xmlns="http://www.w3.org/2000/svg" xmlns:xlink="http://www.w3.org/1999/xlink" x="0px" y="0px"
	 width="425.197px" height="425.196px" viewBox="0 0 425.197 425.196" style="enable-background:new 0 0 425.197 425.196;"
	 xml:space="preserve">
<g id="LWPOLYLINE_7_">
	<polygon style="fill:#FFCD00;" points="411.025,411.03 14.172,411.03 14.172,14.294 411.025,14.166 	"/>
</g>
<g id="LWPOLYLINE_6_">
	<path style="fill:#E4002B;" d="M391.178,411.03H34.014c-10.956,0-19.842-8.886-19.842-19.847V34.131
		c0-10.956,8.881-19.837,19.838-19.842l357.159-0.118c10.966,0,19.856,8.886,19.856,19.842v357.171
		C411.025,402.145,402.134,411.03,391.178,411.03z"/>
</g>
<g id="LWPOLYLINE_8_">
	<path style="fill:#FFCD00;" d="M388.975,397.799H36.221c-4.869,0-8.818-3.949-8.818-8.817V36.333c0-4.868,3.945-8.817,8.813-8.817
		l352.75-0.118c4.878,0,8.827,3.949,8.827,8.817v352.767C397.793,393.85,393.844,397.799,388.975,397.799z"/>
</g>
<g id="CIRCLE_3_">
	<path style="fill:#E4002B;" d="M349.292,212.63c0-75.492-61.206-136.693-136.699-136.693c-75.49,0-136.687,61.201-136.687,136.693
		c0,75.493,61.196,136.689,136.687,136.689C288.085,349.319,349.292,288.123,349.292,212.63L349.292,212.63z"/>
</g>
<g id="CIRCLE_4_">
	<path style="fill:#FFCD00;" d="M320.626,212.63c0-59.663-48.366-108.029-108.034-108.029c-59.661,0-108.027,48.366-108.027,108.029
		c0,59.664,48.366,108.029,108.027,108.029C272.26,320.659,320.626,272.294,320.626,212.63L320.626,212.63z"/>
</g>
<g id="LWPOLYLINE_9_">
	<path style="fill:#101820;" d="M221.419,242.392c0,20.093,16.279,36.381,36.372,36.381s36.382-16.288,36.382-36.381v-59.527
		c0-20.088-16.289-36.377-36.382-36.377s-36.372,16.289-36.372,36.377V242.392z"/>
</g>
<g id="LWPOLYLINE_10_">
	<path style="fill:#101820;" d="M128.817,242.392c0,20.093,16.289,36.381,36.381,36.381c20.085,0,36.375-16.288,36.375-36.381
		v-7.936c0-10.737-4.741-20.92-12.958-27.836c6.206-6.616,9.655-15.348,9.655-24.415v-2.648c0-18.264-14.806-33.069-33.071-33.069
		c-18.268,0-33.074,14.806-33.074,33.069v2.648h19.842v-2.648c0-7.303,5.924-13.227,13.231-13.227
		c7.303,0,13.224,5.924,13.224,13.227v2.648c0,8.763-7.104,15.87-15.872,15.87h-2.644v18.522h5.292
		c9.131,0,16.537,7.403,16.537,16.534v9.26c0,9.136-7.405,16.534-16.537,16.534c-9.136,0-16.539-7.398-16.539-16.534H128.817z"/>
</g>
<g id="LWPOLYLINE_11_">
	<path style="fill:#FFCD00;" d="M241.257,242.392c0,9.136,7.407,16.534,16.534,16.534c9.137,0,16.535-7.398,16.535-16.534v-59.527
		c0-9.132-7.398-16.534-16.535-16.534c-9.127,0-16.534,7.402-16.534,16.534V242.392z"/>
</g>
</svg>
