<?xml version="1.0" encoding="iso-8859-1"?>
<!-- Generator: Adobe Illustrator 16.0.0, SVG Export Plug-In . SVG Version: 6.00 Build 0)  -->
<!DOCTYPE svg PUBLIC "-//W3C//DTD SVG 1.1//EN" "http://www.w3.org/Graphics/SVG/1.1/DTD/svg11.dtd">
<svg version="1.1" id="Layer_1" xmlns="http://www.w3.org/2000/svg" xmlns:xlink="http://www.w3.org/1999/xlink" x="0px" y="0px"
	 width="425.197px" height="425.196px" viewBox="0 0 425.197 425.196" style="enable-background:new 0 0 425.197 425.196;"
	 xml:space="preserve">
<g id="LWPOLYLINE_22_">
	<polygon style="fill:#FFCD00;" points="411.023,411.035 14.174,411.035 14.174,14.292 411.023,14.161 	"/>
</g>
<g id="LWPOLYLINE_21_">
	<path style="fill:#101820;" d="M391.184,411.035H34.017c-10.962,0-19.843-8.886-19.843-19.843V34.128
		c0-10.955,8.876-19.838,19.833-19.843l357.168-0.117c10.962,0,19.848,8.883,19.848,19.843v357.182
		C411.023,402.149,402.137,411.035,391.184,411.035z"/>
</g>
<g id="LWPOLYLINE_23_">
	<path style="fill:#FFCD00;" d="M388.981,397.807H36.22c-4.872,0-8.817-3.951-8.817-8.817V36.334c0-4.869,3.945-8.817,8.813-8.82
		l352.757-0.117c4.876,0,8.822,3.948,8.822,8.819v352.773C397.794,393.855,393.848,397.807,388.981,397.807z"/>
</g>
<g id="LWPOLYLINE_17_">
	<path style="fill:#101820;" d="M397.794,55.454V36.216c0-0.771-0.1-1.541-0.298-2.286L33.935,397.504
		c0.745,0.198,1.513,0.303,2.285,0.303h19.242L397.794,55.454z"/>
</g>
<g id="LWPOLYLINE_18_">
	<polygon style="fill:#101820;" points="397.794,89.753 397.794,67.926 67.932,397.807 89.756,397.807 	"/>
</g>
<g id="LWPOLYLINE_19_">
	<path style="fill:#101820;" d="M391.256,27.697L27.701,391.269c-0.199-0.745-0.298-1.512-0.298-2.279v-19.247L369.721,27.403
		l19.251-0.007C389.749,27.396,390.516,27.498,391.256,27.697z"/>
</g>
<g id="LWPOLYLINE_20_">
	<polygon style="fill:#101820;" points="357.251,27.408 27.403,357.268 27.403,335.443 335.417,27.415 	"/>
</g>
<g id="LWPOLYLINE_24_">
	<path style="fill:#8A8D8F;" d="M272.789,90.042c-67.704-33.243-149.537-5.308-182.779,62.396
		c-18.642,37.965-18.638,82.427,0.004,120.39l21.757-21.757c-9.436-24.758-9.44-52.119,0-76.876
		c21.225-55.686,83.58-83.621,139.267-62.395L272.789,90.042z"/>
</g>
<g id="LWPOLYLINE_25_">
	<path style="fill:#8A8D8F;" d="M174.116,313.443c55.674,21.251,118.041-6.653,139.297-62.329c9.463-24.784,9.463-52.188,0-76.971
		l21.752-21.755c18.674,37.989,18.674,82.487,0,120.478c-33.265,67.692-115.108,95.599-182.802,62.333L174.116,313.443z"/>
</g>
<g id="LWPOLYLINE_26_">
	<path style="fill:#8A8D8F;" d="M151.614,301.65c2.487,1.706,5.047,3.307,7.67,4.799l-20.854,20.858
		c-2.51-1.625-4.962-3.329-7.359-5.113L151.614,301.65z"/>
</g>
<g id="LWPOLYLINE_27_">
	<path style="fill:#8A8D8F;" d="M322.163,131.097c1.778,2.396,3.485,4.852,5.11,7.359l-20.858,20.856
		c-1.489-2.623-3.097-5.184-4.795-7.673L322.163,131.097z"/>
</g>
<g id="LWPOLYLINE_28_">
	<path style="fill:#8A8D8F;" d="M291.94,139.492l20.28-20.28c-2.013-2.145-4.09-4.227-6.239-6.235l-20.28,20.28
		C287.868,135.248,289.945,137.329,291.94,139.492z"/>
</g>
<g id="LWPOLYLINE_29_">
	<path style="fill:#8A8D8F;" d="M119.184,312.253l20.28-20.28c-2.163-1.993-4.244-4.074-6.235-6.237l-20.28,20.28
		C114.958,308.163,117.04,310.242,119.184,312.253z"/>
</g>
<g id="LWPOLYLINE_30_">
	<path style="fill:#8A8D8F;" d="M123.554,273.584c-1.702-2.49-3.305-5.052-4.795-7.678l-20.858,20.858
		c1.625,2.511,3.327,4.967,5.111,7.364L123.554,273.584z"/>
</g>
<g id="LWPOLYLINE_31_">
	<path style="fill:#8A8D8F;" d="M294.089,103.04c-2.393-1.784-4.849-3.488-7.359-5.108l-20.858,20.857
		c2.628,1.49,5.184,3.091,7.676,4.795L294.089,103.04z"/>
</g>
<g id="LWPOLYLINE_44_">
	<path style="fill:#8A8D8F;" d="M206.873,246.385c-1.869,16.933-15.233,30.299-32.166,32.168L206.873,246.385z"/>
</g>
<g id="LWPOLYLINE_45_">
	<path style="fill:#8A8D8F;" d="M289.033,164.222c1.625,2.729,2.89,5.657,3.756,8.714l-18.456,18.461v-8.53
		c0-1.194-0.126-2.387-0.388-3.554L289.033,164.222z"/>
</g>
<g id="LWPOLYLINE_46_">
	<path style="fill:#8A8D8F;" d="M221.464,244.265c-0.027-0.623-0.045-1.246-0.045-1.869v-10.554l19.838-19.845v12.473
		L221.464,244.265z"/>
</g>
<g id="LWPOLYLINE_47_">
	<path style="fill:#8A8D8F;" d="M294.17,193.381v49.015c0,12.817-6.745,24.691-17.752,31.252
		c-17.265,10.282-39.595,4.627-49.87-12.635l15.088-15.096c1.95,8.922,10.764,14.579,19.685,12.635
		c7.594-1.657,13.012-8.382,13.012-16.156v-29.172L294.17,193.381z"/>
</g>
<g id="LWPOLYLINE_48_">
	<path style="fill:#8A8D8F;" d="M270.269,148.693l-18.971,18.969c4.018-1.72,8.56-1.774,12.623-0.153l14.564-14.564
		C275.94,151.184,273.177,149.754,270.269,148.693z"/>
</g>
<g id="LWPOLYLINE_49_">
	<path style="fill:#8A8D8F;" d="M221.419,210.016l19.838-19.845v-7.305c0-2.233,0.461-4.443,1.336-6.497l-21.174,21.174V210.016z"/>
</g>
<g id="LWPOLYLINE_50_">
	<path style="fill:#8A8D8F;" d="M187.143,244.292l19.793-19.798c-0.316-3.451-1.129-6.842-2.402-10.063l-17.282,17.28v10.685
		C187.251,243.03,187.215,243.662,187.143,244.292z"/>
</g>
<g id="LWPOLYLINE_51_">
	<path style="fill:#8A8D8F;" d="M162.323,256.643l-14.235,14.234c2.379,1.89,4.984,3.475,7.757,4.716l16.772-16.772
		C169.036,259.233,165.424,258.469,162.323,256.643z"/>
</g>
<g id="LWPOLYLINE_52_">
	<path style="fill:#8A8D8F;" d="M222.322,174.813l27.423-27.423C236.083,150.492,225.419,161.156,222.322,174.813z"/>
</g>
<g id="LWPOLYLINE_53_">
	<path style="fill:#8A8D8F;" d="M181.67,215.46l14.051-14.043c-2.168-2.05-4.588-3.826-7.188-5.289l-15.362,15.364
		C176.332,211.966,179.287,213.345,181.67,215.46z"/>
</g>
<g id="LWPOLYLINE_54_">
	<path style="fill:#8A8D8F;" d="M142.272,242.396l-7.214,7.21c0.654,3.217,1.733,6.33,3.219,9.256l15.915-15.912
		c-0.01-0.186-0.01-0.371-0.01-0.554H142.272z"/>
</g>
<g id="LWPOLYLINE_55_">
	<path style="fill:#8A8D8F;" d="M147.256,215.584l24.109-24.113c-5.291-0.095-10.542,0.967-15.382,3.111l2.826-28.252h36.378
		l-1.318-19.842h-52.916l-6.613,66.144L147.256,215.584z"/>
</g>
</svg>
