<?xml version="1.0" encoding="UTF-8" standalone="no"?>
<svg
   xmlns:dc="http://purl.org/dc/elements/1.1/"
   xmlns:cc="http://creativecommons.org/ns#"
   xmlns:rdf="http://www.w3.org/1999/02/22-rdf-syntax-ns#"
   xmlns:svg="http://www.w3.org/2000/svg"
   xmlns="http://www.w3.org/2000/svg"
   xmlns:sodipodi="http://sodipodi.sourceforge.net/DTD/sodipodi-0.dtd"
   xmlns:inkscape="http://www.inkscape.org/namespaces/inkscape"
   inkscape:version="1.0 (4035a4fb49, 2020-05-01)"
   sodipodi:docname="C35_blanko.svg"
   xml:space="preserve"
   viewBox="0 0 396.85401 396.87099"
   height="396.871"
   width="396.854"
   y="0px"
   x="0px"
   id="Layer_1"
   version="1.1"><metadata
   id="metadata2509"><rdf:RDF><cc:Work
       rdf:about=""><dc:format>image/svg+xml</dc:format><dc:type
         rdf:resource="http://purl.org/dc/dcmitype/StillImage" /><dc:title></dc:title></cc:Work></rdf:RDF></metadata><defs
   id="defs2507" /><sodipodi:namedview
   inkscape:document-rotation="0"
   inkscape:current-layer="Layer_1"
   inkscape:window-maximized="0"
   inkscape:window-y="374"
   inkscape:window-x="544"
   inkscape:cy="160.45038"
   inkscape:cx="12.786202"
   inkscape:zoom="0.78494245"
   showgrid="false"
   id="namedview2505"
   inkscape:window-height="687"
   inkscape:window-width="874"
   inkscape:pageshadow="2"
   inkscape:pageopacity="0"
   guidetolerance="10"
   gridtolerance="10"
   objecttolerance="10"
   borderopacity="1"
   bordercolor="#666666"
   pagecolor="#ffffff" />
<g
   transform="translate(-14.171,-14.163)"
   id="LWPOLYLINE_116_">
	<polygon
   id="polygon2423"
   points="14.171,14.296 411.025,14.163 411.025,411.034 14.171,411.034 "
   style="fill:#ffcd00" />
</g>
<g
   transform="translate(-14.171,-14.163)"
   id="LWPOLYLINE_115_">
	<path
   inkscape:connector-curvature="0"
   id="path2426"
   d="M 391.179,411.034 H 34.012 c -10.959,0 -19.841,-8.883 -19.841,-19.842 V 34.131 c 0,-10.959 8.882,-19.84 19.836,-19.846 l 357.172,-0.113 c 10.959,0 19.846,8.881 19.846,19.84 v 357.179 c 0,10.96 -8.887,19.843 -19.846,19.843 z"
   style="fill:#101820" />
</g>
<g
   transform="translate(-14.171,-14.163)"
   id="LWPOLYLINE_117_">
	<path
   inkscape:connector-curvature="0"
   id="path2429"
   d="M 388.972,397.806 H 36.218 c -4.869,0 -8.819,-3.949 -8.819,-8.814 V 36.337 c 0,-4.874 3.945,-8.819 8.814,-8.825 L 388.972,27.4 c 4.875,0 8.825,3.951 8.825,8.819 v 352.772 c 0,4.865 -3.95,8.815 -8.825,8.815 z"
   style="fill:#ffcd00" />
</g>
<g
   transform="translate(-14.171,-14.163)"
   id="LWPOLYLINE_111_">
	<path
   inkscape:connector-curvature="0"
   id="path2432"
   d="M 397.797,55.455 V 36.219 c 0,-0.774 -0.103,-1.544 -0.308,-2.288 L 33.935,397.509 c 0.744,0.195 1.514,0.297 2.283,0.297 h 19.24 z"
   style="fill:#101820" />
</g>
<g
   transform="translate(-14.171,-14.163)"
   id="LWPOLYLINE_112_">
	<polygon
   id="polygon2435"
   points="67.931,397.806 89.757,397.806 397.797,89.753 397.797,67.927 "
   style="fill:#101820" />
</g>
<g
   transform="translate(-14.171,-14.163)"
   id="LWPOLYLINE_113_">
	<path
   inkscape:connector-curvature="0"
   id="path2438"
   d="M 391.25,27.697 27.702,391.271 c -0.2,-0.744 -0.303,-1.51 -0.303,-2.279 v -19.25 L 369.722,27.405 388.972,27.4 c 0.771,0 1.54,0.102 2.278,0.297 z"
   style="fill:#101820" />
</g>
<g
   transform="translate(-14.171,-14.163)"
   id="LWPOLYLINE_114_">
	<polygon
   id="polygon2441"
   points="27.399,335.448 335.418,27.42 357.245,27.41 27.399,357.274 "
   style="fill:#101820" />
</g>
<g
   transform="translate(-14.171,-14.163)"
   id="LWPOLYLINE_118_">
	<path
   inkscape:connector-curvature="0"
   id="path2444"
   d="M 272.792,90.046 C 205.087,56.799 123.25,84.736 90.008,152.441 c -18.64,37.962 -18.64,82.426 0.006,120.393 l 21.754,-21.76 c -9.436,-24.756 -9.436,-52.117 0,-76.874 21.226,-55.688 83.582,-83.625 139.261,-62.399 z"
   style="fill:#8a8d8f" />
</g>
<g
   transform="translate(-14.171,-14.163)"
   id="LWPOLYLINE_119_">
	<path
   inkscape:connector-curvature="0"
   id="path2447"
   d="m 174.119,313.448 c 55.669,21.25 118.037,-6.656 139.289,-62.334 9.461,-24.787 9.461,-52.184 0,-76.965 l 21.754,-21.755 c 18.676,37.988 18.676,82.482 0,120.474 -33.268,67.689 -115.112,95.602 -182.797,62.334 z"
   style="fill:#8a8d8f" />
</g>
<g
   transform="translate(-14.171,-14.163)"
   id="LWPOLYLINE_120_">
	<path
   inkscape:connector-curvature="0"
   id="path2450"
   d="m 151.606,301.651 c 2.493,1.709 5.059,3.311 7.675,4.797 l -20.854,20.857 c -2.509,-1.621 -4.961,-3.324 -7.357,-5.111 z"
   style="fill:#8a8d8f" />
</g>
<g
   transform="translate(-14.171,-14.163)"
   id="LWPOLYLINE_121_">
	<path
   inkscape:connector-curvature="0"
   id="path2453"
   d="m 322.161,131.097 c 1.775,2.396 3.489,4.854 5.11,7.363 l -20.861,20.856 c -1.488,-2.622 -3.089,-5.187 -4.793,-7.675 z"
   style="fill:#8a8d8f" />
</g>
<g
   transform="translate(-14.171,-14.163)"
   id="LWPOLYLINE_122_">
	<path
   inkscape:connector-curvature="0"
   id="path2456"
   d="m 291.941,139.496 20.276,-20.282 c -2.012,-2.145 -4.095,-4.223 -6.239,-6.234 l -20.276,20.277 c 2.165,1.995 4.238,4.074 6.239,6.239 z"
   style="fill:#8a8d8f" />
</g>
<g
   transform="translate(-14.171,-14.163)"
   id="LWPOLYLINE_123_">
	<path
   inkscape:connector-curvature="0"
   id="path2459"
   d="m 119.182,312.257 20.281,-20.281 c -2.165,-1.996 -4.243,-4.074 -6.233,-6.234 l -20.282,20.277 c 2.011,2.144 4.09,4.226 6.234,6.238 z"
   style="fill:#8a8d8f" />
</g>
<g
   transform="translate(-14.171,-14.163)"
   id="LWPOLYLINE_124_">
	<path
   inkscape:connector-curvature="0"
   id="path2462"
   d="m 123.553,273.587 c -1.703,-2.494 -3.304,-5.055 -4.792,-7.682 L 97.9,286.769 c 1.621,2.508 3.33,4.965 5.11,7.361 z"
   style="fill:#8a8d8f" />
</g>
<g
   transform="translate(-14.171,-14.163)"
   id="LWPOLYLINE_125_">
	<path
   inkscape:connector-curvature="0"
   id="path2465"
   d="m 294.085,103.042 c -2.391,-1.78 -4.854,-3.484 -7.357,-5.11 l -20.861,20.856 c 2.627,1.493 5.191,3.094 7.675,4.797 z"
   style="fill:#8a8d8f" />
</g>












</svg>
