<?xml version="1.0" encoding="UTF-8" standalone="no"?>
<!-- Generator: Adobe Illustrator 16.0.0, SVG Export Plug-In . SVG Version: 6.00 Build 0)  -->

<svg
   xmlns:dc="http://purl.org/dc/elements/1.1/"
   xmlns:cc="http://creativecommons.org/ns#"
   xmlns:rdf="http://www.w3.org/1999/02/22-rdf-syntax-ns#"
   xmlns:svg="http://www.w3.org/2000/svg"
   xmlns="http://www.w3.org/2000/svg"
   xmlns:sodipodi="http://sodipodi.sourceforge.net/DTD/sodipodi-0.dtd"
   xmlns:inkscape="http://www.inkscape.org/namespaces/inkscape"
   version="1.1"
   id="Layer_1"
   x="0px"
   y="0px"
   width="373.10001"
   height="396.85101"
   viewBox="0 0 373.10001 396.851"
   xml:space="preserve"
   sodipodi:docname="C36.svg"
   inkscape:version="0.92.5 (2060ec1f9f, 2020-04-08)"><metadata
   id="metadata2776"><rdf:RDF><cc:Work
       rdf:about=""><dc:format>image/svg+xml</dc:format><dc:type
         rdf:resource="http://purl.org/dc/dcmitype/StillImage" /></cc:Work></rdf:RDF></metadata><defs
   id="defs2774" /><sodipodi:namedview
   pagecolor="#ffffff"
   bordercolor="#666666"
   borderopacity="1"
   objecttolerance="10"
   gridtolerance="10"
   guidetolerance="10"
   inkscape:pageopacity="0"
   inkscape:pageshadow="2"
   inkscape:window-width="640"
   inkscape:window-height="480"
   id="namedview2772"
   showgrid="false"
   inkscape:zoom="0.55503813"
   inkscape:cx="186.5505"
   inkscape:cy="198.42601"
   inkscape:window-x="0"
   inkscape:window-y="0"
   inkscape:window-maximized="0"
   inkscape:current-layer="Layer_1" />
<g
   id="LWPOLYLINE_333_"
   transform="translate(-26.048,-14.173)">
	<rect
   x="26.048"
   y="14.173"
   style="fill:#ffcd00"
   width="373.10001"
   height="396.85101"
   id="rect2687" />
</g>
<g
   id="LWPOLYLINE_335_"
   transform="translate(-26.048,-14.173)">
	<path
   style="fill:#e4002b"
   d="M 44.914,411.023 H 380.28 c 10.422,0 18.868,-8.442 18.868,-18.86 V 33.038 c 0,-10.42 -8.446,-18.865 -18.868,-18.865 H 44.914 c -10.418,0 -18.865,8.445 -18.865,18.865 v 359.125 c -0.001,10.418 8.447,18.86 18.865,18.86 z"
   id="path2690"
   inkscape:connector-curvature="0" />
</g>
<g
   id="LWPOLYLINE_334_"
   transform="translate(-26.048,-14.173)">
	<path
   style="fill:#ffcd00"
   d="M 44.914,398.447 H 380.28 c 3.471,0 6.292,-2.813 6.292,-6.284 V 33.038 c 0,-3.474 -2.821,-6.288 -6.292,-6.288 H 44.914 c -3.476,0 -6.288,2.814 -6.288,6.288 v 359.125 c -10e-4,3.472 2.812,6.284 6.288,6.284 z"
   id="path2693"
   inkscape:connector-curvature="0" />
</g>
<g
   id="CIRCLE_63_"
   transform="translate(-26.048,-14.173)">
	<path
   style="fill:#e4002b"
   d="m 239.847,253.122 c 0,-23.922 -19.396,-43.315 -43.322,-43.315 -23.925,0 -43.316,19.394 -43.316,43.315 0,23.925 19.392,43.322 43.316,43.322 23.926,0 43.322,-19.397 43.322,-43.322 z"
   id="path2696"
   inkscape:connector-curvature="0" />
</g>
<g
   id="CIRCLE_65_"
   transform="translate(-26.048,-14.173)">
	<path
   style="fill:#e4002b"
   d="m 340.453,253.122 c 0,-23.922 -19.39,-43.315 -43.314,-43.315 -23.927,0 -43.315,19.394 -43.315,43.315 0,23.925 19.389,43.322 43.315,43.322 23.924,0 43.314,-19.397 43.314,-43.322 z"
   id="path2699"
   inkscape:connector-curvature="0" />
</g>
<g
   id="CIRCLE_67_"
   transform="translate(-26.048,-14.173)">
	<path
   style="fill:#e4002b"
   d="m 139.234,253.122 c 0,-23.922 -19.394,-43.315 -43.319,-43.315 -23.922,0 -43.314,19.394 -43.314,43.315 0,23.925 19.393,43.322 43.318,43.322 23.921,0 43.315,-19.397 43.315,-43.322 z"
   id="path2702"
   inkscape:connector-curvature="0" />
</g>
<g
   id="CIRCLE_64_"
   transform="translate(-26.048,-14.173)">
	<path
   style="fill:#ffcd00"
   d="m 230.758,253.122 c 0,-18.906 -15.324,-34.234 -34.233,-34.234 -18.909,0 -34.231,15.328 -34.231,34.234 0,18.909 15.322,34.237 34.231,34.237 18.909,0 34.233,-15.328 34.233,-34.237 z"
   id="path2705"
   inkscape:connector-curvature="0" />
</g>
<g
   id="CIRCLE_66_"
   transform="translate(-26.048,-14.173)">
	<path
   style="fill:#ffcd00"
   d="m 331.372,253.122 c 0,-18.906 -15.324,-34.234 -34.233,-34.234 -18.911,0 -34.235,15.328 -34.235,34.234 0,18.909 15.324,34.237 34.235,34.237 18.908,0 34.233,-15.328 34.233,-34.237 z"
   id="path2708"
   inkscape:connector-curvature="0" />
</g>
<g
   id="CIRCLE_68_"
   transform="translate(-26.048,-14.173)">
	<path
   style="fill:#ffcd00"
   d="m 130.153,253.122 c 0,-18.906 -15.328,-34.234 -34.238,-34.234 -18.905,0 -34.234,15.328 -34.234,34.234 0,18.909 15.329,34.237 34.234,34.237 18.91,0 34.238,-15.328 34.238,-34.237 z"
   id="path2711"
   inkscape:connector-curvature="0" />
</g>
<g
   id="LWPOLYLINE_320_"
   transform="translate(-26.048,-14.173)">
	<path
   style="fill:#101820"
   d="m 199.322,262.556 c 0,6.366 5.162,11.528 11.527,11.528 6.365,0 11.528,-5.162 11.528,-11.528 v -18.864 c 0,-6.365 -5.163,-11.528 -11.528,-11.528 -6.365,0 -11.527,5.163 -11.527,11.528 z"
   id="path2714"
   inkscape:connector-curvature="0" />
</g>
<g
   id="LWPOLYLINE_321_"
   transform="translate(-26.048,-14.173)">
	<path
   style="fill:#101820"
   d="m 174.315,251.22 c -2.325,2.178 -3.643,5.219 -3.643,8.401 v 2.935 c 0,6.366 5.163,11.528 11.528,11.528 6.374,0 11.528,-5.162 11.528,-11.528 v -2.935 c 0,-3.183 -1.31,-6.224 -3.635,-8.401 1.667,-1.911 2.594,-4.366 2.594,-6.902 v -1.675 c 0,-5.788 -4.699,-10.479 -10.487,-10.479 -5.788,0 -10.479,4.691 -10.479,10.479 v 1.675 c 0,2.536 0.919,4.991 2.594,6.902 z"
   id="path2717"
   inkscape:connector-curvature="0" />
</g>
<g
   id="LWPOLYLINE_325_"
   transform="translate(-26.048,-14.173)">
	<path
   style="fill:#101820"
   d="m 299.933,262.556 c 0,6.366 5.163,11.528 11.529,11.528 6.365,0 11.527,-5.162 11.527,-11.528 v -18.864 c 0,-6.365 -5.162,-11.528 -11.527,-11.528 -6.366,0 -11.529,5.163 -11.529,11.528 z"
   id="path2720"
   inkscape:connector-curvature="0" />
</g>
<g
   id="LWPOLYLINE_326_"
   transform="translate(-26.048,-14.173)">
	<path
   style="fill:#101820"
   d="m 272.333,262.556 c 0,6.366 5.162,11.528 11.527,11.528 6.374,0 11.529,-5.162 11.529,-11.528 v -4.613 c 0,-6.365 -5.155,-11.527 -11.529,-11.527 -1.602,0 -3.194,0.337 -4.666,0.987 l 0.895,-8.95 h 11.527 l -0.414,-6.289 h -16.771 l -2.098,20.959 7.341,1.678 c 0.983,-1.32 2.545,-2.097 4.187,-2.097 2.895,0 5.244,2.345 5.244,5.239 v 4.613 c 0,2.895 -2.35,5.24 -5.244,5.24 -2.894,0 -5.235,-2.346 -5.235,-5.24 z"
   id="path2723"
   inkscape:connector-curvature="0" />
</g>
<g
   id="LWPOLYLINE_328_"
   transform="translate(-26.048,-14.173)">
	<path
   style="fill:#101820"
   d="m 98.711,262.556 c 0,6.366 5.162,11.528 11.527,11.528 6.366,0 11.528,-5.162 11.528,-11.528 v -18.864 c 0,-6.365 -5.162,-11.528 -11.528,-11.528 -6.365,0 -11.527,5.163 -11.527,11.528 z"
   id="path2726"
   inkscape:connector-curvature="0" />
</g>
<g
   id="LWPOLYLINE_329_"
   transform="translate(-26.048,-14.173)">
	<path
   style="fill:#101820"
   d="m 73.705,251.22 c -2.321,2.178 -3.639,5.219 -3.639,8.401 v 2.935 c 0,6.366 5.158,11.528 11.528,11.528 6.366,0 11.528,-5.162 11.528,-11.528 v -2.935 c 0,-3.183 -1.317,-6.224 -3.639,-8.401 1.671,-1.911 2.59,-4.366 2.59,-6.902 v -1.675 c 0,-5.788 -4.69,-10.479 -10.479,-10.479 -5.788,0 -10.479,4.691 -10.479,10.479 v 1.675 c 0,2.536 0.919,4.991 2.59,6.902 z"
   id="path2729"
   inkscape:connector-curvature="0" />
</g>
<g
   id="LWPOLYLINE_322_"
   transform="translate(-26.048,-14.173)">
	<path
   style="fill:#ffcd00"
   d="m 176.965,262.556 c 0,2.895 2.342,5.24 5.235,5.24 2.895,0 5.244,-2.346 5.244,-5.24 v -2.935 c 0,-2.894 -2.35,-5.239 -5.244,-5.239 -2.894,0 -5.235,2.346 -5.235,5.239 z"
   id="path2732"
   inkscape:connector-curvature="0" />
</g>
<g
   id="LWPOLYLINE_323_"
   transform="translate(-26.048,-14.173)">
	<path
   style="fill:#ffcd00"
   d="m 178.014,242.643 v 1.675 c 0,2.316 1.878,4.194 4.187,4.194 2.317,0 4.195,-1.878 4.195,-4.194 v -1.675 c 0,-2.317 -1.878,-4.19 -4.195,-4.19 -2.309,-0.001 -4.187,1.872 -4.187,4.19 z"
   id="path2735"
   inkscape:connector-curvature="0" />
</g>
<g
   id="LWPOLYLINE_324_"
   transform="translate(-26.048,-14.173)">
	<path
   style="fill:#ffcd00"
   d="m 205.614,262.556 c 0,2.895 2.342,5.24 5.235,5.24 2.895,0 5.244,-2.346 5.244,-5.24 v -18.864 c 0,-2.895 -2.35,-5.239 -5.244,-5.239 -2.894,0 -5.235,2.345 -5.235,5.239 z"
   id="path2738"
   inkscape:connector-curvature="0" />
</g>
<g
   id="LWPOLYLINE_327_"
   transform="translate(-26.048,-14.173)">
	<path
   style="fill:#ffcd00"
   d="m 306.218,262.556 c 0,2.895 2.35,5.24 5.244,5.24 2.894,0 5.235,-2.346 5.235,-5.24 v -18.864 c 0,-2.895 -2.342,-5.239 -5.235,-5.239 -2.895,0 -5.244,2.345 -5.244,5.239 z"
   id="path2741"
   inkscape:connector-curvature="0" />
</g>
<g
   id="LWPOLYLINE_330_"
   transform="translate(-26.048,-14.173)">
	<path
   style="fill:#ffcd00"
   d="m 76.355,262.556 c 0,2.895 2.345,5.24 5.239,5.24 2.894,0 5.24,-2.346 5.24,-5.24 v -2.935 c 0,-2.894 -2.347,-5.239 -5.24,-5.239 -2.895,0 -5.239,2.346 -5.239,5.239 z"
   id="path2744"
   inkscape:connector-curvature="0" />
</g>
<g
   id="LWPOLYLINE_331_"
   transform="translate(-26.048,-14.173)">
	<path
   style="fill:#ffcd00"
   d="m 77.403,242.643 v 1.675 c 0,2.316 1.874,4.194 4.191,4.194 2.313,0 4.19,-1.878 4.19,-4.194 v -1.675 c 0,-2.317 -1.878,-4.19 -4.19,-4.19 -2.317,-0.001 -4.191,1.872 -4.191,4.19 z"
   id="path2747"
   inkscape:connector-curvature="0" />
</g>
<g
   id="LWPOLYLINE_332_"
   transform="translate(-26.048,-14.173)">
	<path
   style="fill:#ffcd00"
   d="m 105,262.556 c 0,2.895 2.346,5.24 5.239,5.24 2.895,0 5.24,-2.346 5.24,-5.24 v -18.864 c 0,-2.895 -2.346,-5.239 -5.24,-5.239 -2.894,0 -5.239,2.345 -5.239,5.239 z"
   id="path2750"
   inkscape:connector-curvature="0" />
</g>
<g
   id="LWPOLYLINE_314_"
   transform="translate(-26.048,-14.173)">
	<path
   style="fill:#101820"
   d="m 290.178,208.953 c 3.505,-20.552 13.3,-39.511 28.04,-54.249 l 28.551,-28.543 h -29.648 l 13.975,-13.975 h 41.502 v 41.501 l -13.976,13.975 v -29.645 l -28.543,28.543 c -11.738,11.736 -19.722,26.694 -22.958,42.979 -5.553,-1.276 -11.309,-1.472 -16.943,-0.586 z"
   id="path2753"
   inkscape:connector-curvature="0" />
</g>
<g
   id="LWPOLYLINE_315_"
   transform="translate(-26.048,-14.173)">
	<path
   style="fill:#101820"
   d="m 288.763,381.684 v -84.638 c 5.545,1.057 11.229,1.057 16.772,0 v 84.638 z"
   id="path2756"
   inkscape:connector-curvature="0" />
</g>
<g
   id="LWPOLYLINE_316_"
   transform="translate(-26.048,-14.173)">
	<path
   style="fill:#101820"
   d="M 204.915,209.201 V 91.228 l 20.958,20.959 V 92.423 l -29.348,-29.34 -29.34,29.34 v 19.764 l 20.959,-20.959 v 117.974 c 5.536,-1.061 11.227,-1.061 16.771,-0.001 z"
   id="path2759"
   inkscape:connector-curvature="0" />
</g>
<g
   id="LWPOLYLINE_317_"
   transform="translate(-26.048,-14.173)">
	<path
   style="fill:#101820"
   d="m 204.923,381.684 v -84.638 c -5.536,1.057 -11.228,1.057 -16.771,0 v 84.638 z"
   id="path2762"
   inkscape:connector-curvature="0" />
</g>
<g
   id="LWPOLYLINE_318_"
   transform="translate(-26.048,-14.173)">
	<path
   style="fill:#101820"
   d="M 104.3,209.201 V 91.228 l 20.963,20.959 V 92.423 L 95.914,63.083 66.57,92.423 v 19.764 L 87.533,91.228 v 117.974 c 5.541,-1.061 11.227,-1.061 16.767,-0.001 z"
   id="path2765"
   inkscape:connector-curvature="0" />
</g>
<g
   id="LWPOLYLINE_319_"
   transform="translate(-26.048,-14.173)">
	<path
   style="fill:#101820"
   d="m 104.304,381.684 v -84.638 c -5.54,1.057 -11.227,1.057 -16.767,0 v 84.638 z"
   id="path2768"
   inkscape:connector-curvature="0" />
</g>
</svg>