<?xml version="1.0" encoding="iso-8859-1"?>
<!-- Generator: Adobe Illustrator 16.0.0, SVG Export Plug-In . SVG Version: 6.00 Build 0)  -->
<!DOCTYPE svg PUBLIC "-//W3C//DTD SVG 1.1//EN" "http://www.w3.org/Graphics/SVG/1.1/DTD/svg11.dtd">
<svg version="1.1" id="Layer_1" xmlns="http://www.w3.org/2000/svg" xmlns:xlink="http://www.w3.org/1999/xlink" x="0px" y="0px"
	 width="425.197px" height="425.196px" viewBox="0 0 425.197 425.196" style="enable-background:new 0 0 425.197 425.196;"
	 xml:space="preserve">
<g id="LWPOLYLINE_333_">
	<rect x="26.048" y="14.173" style="fill:#FFCD00;" width="373.1" height="396.851"/>
</g>
<g id="LWPOLYLINE_335_">
	<path style="fill:#E4002B;" d="M44.914,411.023H380.28c10.422,0,18.868-8.442,18.868-18.86V33.038
		c0-10.42-8.446-18.865-18.868-18.865H44.914c-10.418,0-18.865,8.445-18.865,18.865v359.125
		C26.048,402.581,34.496,411.023,44.914,411.023z"/>
</g>
<g id="LWPOLYLINE_334_">
	<path style="fill:#FFCD00;" d="M44.914,398.447H380.28c3.471,0,6.292-2.813,6.292-6.284V33.038c0-3.474-2.821-6.288-6.292-6.288
		H44.914c-3.476,0-6.288,2.814-6.288,6.288v359.125C38.625,395.635,41.438,398.447,44.914,398.447z"/>
</g>
<g id="CIRCLE_63_">
	<path style="fill:#E4002B;" d="M239.847,253.122c0-23.922-19.396-43.315-43.322-43.315c-23.925,0-43.316,19.394-43.316,43.315
		c0,23.925,19.392,43.322,43.316,43.322C220.451,296.444,239.847,277.047,239.847,253.122L239.847,253.122z"/>
</g>
<g id="CIRCLE_65_">
	<path style="fill:#E4002B;" d="M340.453,253.122c0-23.922-19.39-43.315-43.314-43.315c-23.927,0-43.315,19.394-43.315,43.315
		c0,23.925,19.389,43.322,43.315,43.322C321.063,296.444,340.453,277.047,340.453,253.122L340.453,253.122z"/>
</g>
<g id="CIRCLE_67_">
	<path style="fill:#E4002B;" d="M139.234,253.122c0-23.922-19.394-43.315-43.319-43.315c-23.922,0-43.314,19.394-43.314,43.315
		c0,23.925,19.393,43.322,43.318,43.322C119.84,296.444,139.234,277.047,139.234,253.122L139.234,253.122z"/>
</g>
<g id="CIRCLE_64_">
	<path style="fill:#FFCD00;" d="M230.758,253.122c0-18.906-15.324-34.234-34.233-34.234s-34.231,15.328-34.231,34.234
		c0,18.909,15.322,34.237,34.231,34.237S230.758,272.031,230.758,253.122L230.758,253.122z"/>
</g>
<g id="CIRCLE_66_">
	<path style="fill:#FFCD00;" d="M331.372,253.122c0-18.906-15.324-34.234-34.233-34.234c-18.911,0-34.235,15.328-34.235,34.234
		c0,18.909,15.324,34.237,34.235,34.237C316.047,287.359,331.372,272.031,331.372,253.122L331.372,253.122z"/>
</g>
<g id="CIRCLE_68_">
	<path style="fill:#FFCD00;" d="M130.153,253.122c0-18.906-15.328-34.234-34.238-34.234c-18.905,0-34.234,15.328-34.234,34.234
		c0,18.909,15.329,34.237,34.234,34.237C114.825,287.359,130.153,272.031,130.153,253.122L130.153,253.122z"/>
</g>
<g id="LWPOLYLINE_320_">
	<path style="fill:#101820;" d="M199.322,262.556c0,6.366,5.162,11.528,11.527,11.528s11.528-5.162,11.528-11.528v-18.864
		c0-6.365-5.163-11.528-11.528-11.528s-11.527,5.163-11.527,11.528V262.556z"/>
</g>
<g id="LWPOLYLINE_321_">
	<path style="fill:#101820;" d="M174.315,251.22c-2.325,2.178-3.643,5.219-3.643,8.401v2.935c0,6.366,5.163,11.528,11.528,11.528
		c6.374,0,11.528-5.162,11.528-11.528v-2.935c0-3.183-1.31-6.224-3.635-8.401c1.667-1.911,2.594-4.366,2.594-6.902v-1.675
		c0-5.788-4.699-10.479-10.487-10.479s-10.479,4.691-10.479,10.479v1.675C171.721,246.854,172.64,249.309,174.315,251.22z"/>
</g>
<g id="LWPOLYLINE_325_">
	<path style="fill:#101820;" d="M299.933,262.556c0,6.366,5.163,11.528,11.529,11.528c6.365,0,11.527-5.162,11.527-11.528v-18.864
		c0-6.365-5.162-11.528-11.527-11.528c-6.366,0-11.529,5.163-11.529,11.528V262.556z"/>
</g>
<g id="LWPOLYLINE_326_">
	<path style="fill:#101820;" d="M272.333,262.556c0,6.366,5.162,11.528,11.527,11.528c6.374,0,11.529-5.162,11.529-11.528v-4.613
		c0-6.365-5.155-11.527-11.529-11.527c-1.602,0-3.194,0.337-4.666,0.987l0.895-8.95h11.527l-0.414-6.289h-16.771l-2.098,20.959
		l7.341,1.678c0.983-1.32,2.545-2.097,4.187-2.097c2.895,0,5.244,2.345,5.244,5.239v4.613c0,2.895-2.35,5.24-5.244,5.24
		c-2.894,0-5.235-2.346-5.235-5.24H272.333z"/>
</g>
<g id="LWPOLYLINE_328_">
	<path style="fill:#101820;" d="M98.711,262.556c0,6.366,5.162,11.528,11.527,11.528c6.366,0,11.528-5.162,11.528-11.528v-18.864
		c0-6.365-5.162-11.528-11.528-11.528c-6.365,0-11.527,5.163-11.527,11.528V262.556z"/>
</g>
<g id="LWPOLYLINE_329_">
	<path style="fill:#101820;" d="M73.705,251.22c-2.321,2.178-3.639,5.219-3.639,8.401v2.935c0,6.366,5.158,11.528,11.528,11.528
		c6.366,0,11.528-5.162,11.528-11.528v-2.935c0-3.183-1.317-6.224-3.639-8.401c1.671-1.911,2.59-4.366,2.59-6.902v-1.675
		c0-5.788-4.69-10.479-10.479-10.479c-5.788,0-10.479,4.691-10.479,10.479v1.675C71.115,246.854,72.034,249.309,73.705,251.22z"/>
</g>
<g id="LWPOLYLINE_322_">
	<path style="fill:#FFCD00;" d="M176.965,262.556c0,2.895,2.342,5.24,5.235,5.24c2.895,0,5.244-2.346,5.244-5.24v-2.935
		c0-2.894-2.35-5.239-5.244-5.239c-2.894,0-5.235,2.346-5.235,5.239V262.556z"/>
</g>
<g id="LWPOLYLINE_323_">
	<path style="fill:#FFCD00;" d="M178.014,242.643v1.675c0,2.316,1.878,4.194,4.187,4.194c2.317,0,4.195-1.878,4.195-4.194v-1.675
		c0-2.317-1.878-4.19-4.195-4.19C179.892,238.452,178.014,240.325,178.014,242.643z"/>
</g>
<g id="LWPOLYLINE_324_">
	<path style="fill:#FFCD00;" d="M205.614,262.556c0,2.895,2.342,5.24,5.235,5.24c2.895,0,5.244-2.346,5.244-5.24v-18.864
		c0-2.895-2.35-5.239-5.244-5.239c-2.894,0-5.235,2.345-5.235,5.239V262.556z"/>
</g>
<g id="LWPOLYLINE_327_">
	<path style="fill:#FFCD00;" d="M306.218,262.556c0,2.895,2.35,5.24,5.244,5.24c2.894,0,5.235-2.346,5.235-5.24v-18.864
		c0-2.895-2.342-5.239-5.235-5.239c-2.895,0-5.244,2.345-5.244,5.239V262.556z"/>
</g>
<g id="LWPOLYLINE_330_">
	<path style="fill:#FFCD00;" d="M76.355,262.556c0,2.895,2.345,5.24,5.239,5.24c2.894,0,5.24-2.346,5.24-5.24v-2.935
		c0-2.894-2.347-5.239-5.24-5.239c-2.895,0-5.239,2.346-5.239,5.239V262.556z"/>
</g>
<g id="LWPOLYLINE_331_">
	<path style="fill:#FFCD00;" d="M77.403,242.643v1.675c0,2.316,1.874,4.194,4.191,4.194c2.313,0,4.19-1.878,4.19-4.194v-1.675
		c0-2.317-1.878-4.19-4.19-4.19C79.277,238.452,77.403,240.325,77.403,242.643z"/>
</g>
<g id="LWPOLYLINE_332_">
	<path style="fill:#FFCD00;" d="M105,262.556c0,2.895,2.346,5.24,5.239,5.24c2.895,0,5.24-2.346,5.24-5.24v-18.864
		c0-2.895-2.346-5.239-5.24-5.239c-2.894,0-5.239,2.345-5.239,5.239V262.556z"/>
</g>
<g id="LWPOLYLINE_314_">
	<path style="fill:#101820;" d="M290.178,208.953c3.505-20.552,13.3-39.511,28.04-54.249l28.551-28.543h-29.648l13.975-13.975
		h41.502v41.501l-13.976,13.975v-29.645l-28.543,28.543c-11.738,11.736-19.722,26.694-22.958,42.979
		C301.568,208.263,295.812,208.067,290.178,208.953z"/>
</g>
<g id="LWPOLYLINE_315_">
	<path style="fill:#101820;" d="M288.763,381.684v-84.638c5.545,1.057,11.229,1.057,16.772,0v84.638H288.763z"/>
</g>
<g id="LWPOLYLINE_316_">
	<path style="fill:#101820;" d="M204.915,209.201V91.228l20.958,20.959V92.423l-29.348-29.34l-29.34,29.34v19.764l20.959-20.959
		v117.974C193.68,208.141,199.371,208.141,204.915,209.201z"/>
</g>
<g id="LWPOLYLINE_317_">
	<path style="fill:#101820;" d="M204.923,381.684v-84.638c-5.536,1.057-11.228,1.057-16.771,0v84.638H204.923z"/>
</g>
<g id="LWPOLYLINE_318_">
	<path style="fill:#101820;" d="M104.3,209.201V91.228l20.963,20.959V92.423l-29.349-29.34l-29.344,29.34v19.764l20.963-20.959
		v117.974C93.074,208.141,98.76,208.141,104.3,209.201z"/>
</g>
<g id="LWPOLYLINE_319_">
	<path style="fill:#101820;" d="M104.304,381.684v-84.638c-5.54,1.057-11.227,1.057-16.767,0v84.638H104.304z"/>
</g>
</svg>
