<?xml version="1.0" encoding="UTF-8" standalone="no"?>
<svg
   xmlns:dc="http://purl.org/dc/elements/1.1/"
   xmlns:cc="http://creativecommons.org/ns#"
   xmlns:rdf="http://www.w3.org/1999/02/22-rdf-syntax-ns#"
   xmlns:svg="http://www.w3.org/2000/svg"
   xmlns="http://www.w3.org/2000/svg"
   xmlns:sodipodi="http://sodipodi.sourceforge.net/DTD/sodipodi-0.dtd"
   xmlns:inkscape="http://www.inkscape.org/namespaces/inkscape"
   inkscape:version="1.0 (4035a4fb49, 2020-05-01)"
   sodipodi:docname="C36_blanko.svg"
   xml:space="preserve"
   viewBox="0 0 373.10001 396.851"
   height="396.85101"
   width="373.10001"
   y="0px"
   x="0px"
   id="Layer_1"
   version="1.1"><metadata
   id="metadata2776"><rdf:RDF><cc:Work
       rdf:about=""><dc:format>image/svg+xml</dc:format><dc:type
         rdf:resource="http://purl.org/dc/dcmitype/StillImage" /><dc:title></dc:title></cc:Work></rdf:RDF></metadata><defs
   id="defs2774" /><sodipodi:namedview
   inkscape:document-rotation="0"
   inkscape:current-layer="Layer_1"
   inkscape:window-maximized="0"
   inkscape:window-y="305"
   inkscape:window-x="523"
   inkscape:cy="252.42995"
   inkscape:cx="83.748512"
   inkscape:zoom="0.78494245"
   showgrid="false"
   id="namedview2772"
   inkscape:window-height="699"
   inkscape:window-width="888"
   inkscape:pageshadow="2"
   inkscape:pageopacity="0"
   guidetolerance="10"
   gridtolerance="10"
   objecttolerance="10"
   borderopacity="1"
   bordercolor="#666666"
   pagecolor="#ffffff" />
<g
   transform="translate(-26.048,-14.173)"
   id="LWPOLYLINE_333_">
	<rect
   id="rect2687"
   height="396.85101"
   width="373.10001"
   style="fill:#ffcd00"
   y="14.173"
   x="26.048" />
</g>
<g
   transform="translate(-26.048,-14.173)"
   id="LWPOLYLINE_335_">
	<path
   inkscape:connector-curvature="0"
   id="path2690"
   d="M 44.914,411.023 H 380.28 c 10.422,0 18.868,-8.442 18.868,-18.86 V 33.038 c 0,-10.42 -8.446,-18.865 -18.868,-18.865 H 44.914 c -10.418,0 -18.865,8.445 -18.865,18.865 v 359.125 c -0.001,10.418 8.447,18.86 18.865,18.86 z"
   style="fill:#e4002b" />
</g>
<g
   transform="translate(-26.048,-14.173)"
   id="LWPOLYLINE_334_">
	<path
   inkscape:connector-curvature="0"
   id="path2693"
   d="M 44.914,398.447 H 380.28 c 3.471,0 6.292,-2.813 6.292,-6.284 V 33.038 c 0,-3.474 -2.821,-6.288 -6.292,-6.288 H 44.914 c -3.476,0 -6.288,2.814 -6.288,6.288 v 359.125 c -10e-4,3.472 2.812,6.284 6.288,6.284 z"
   style="fill:#ffcd00" />
</g>
<g
   transform="translate(-26.048,-14.173)"
   id="CIRCLE_63_">
	<path
   inkscape:connector-curvature="0"
   id="path2696"
   d="m 239.847,253.122 c 0,-23.922 -19.396,-43.315 -43.322,-43.315 -23.925,0 -43.316,19.394 -43.316,43.315 0,23.925 19.392,43.322 43.316,43.322 23.926,0 43.322,-19.397 43.322,-43.322 z"
   style="fill:#e4002b" />
</g>
<g
   transform="translate(-26.048,-14.173)"
   id="CIRCLE_65_">
	<path
   inkscape:connector-curvature="0"
   id="path2699"
   d="m 340.453,253.122 c 0,-23.922 -19.39,-43.315 -43.314,-43.315 -23.927,0 -43.315,19.394 -43.315,43.315 0,23.925 19.389,43.322 43.315,43.322 23.924,0 43.314,-19.397 43.314,-43.322 z"
   style="fill:#e4002b" />
</g>
<g
   transform="translate(-26.048,-14.173)"
   id="CIRCLE_67_">
	<path
   inkscape:connector-curvature="0"
   id="path2702"
   d="m 139.234,253.122 c 0,-23.922 -19.394,-43.315 -43.319,-43.315 -23.922,0 -43.314,19.394 -43.314,43.315 0,23.925 19.393,43.322 43.318,43.322 23.921,0 43.315,-19.397 43.315,-43.322 z"
   style="fill:#e4002b" />
</g>
<g
   transform="translate(-26.048,-14.173)"
   id="CIRCLE_64_">
	<path
   inkscape:connector-curvature="0"
   id="path2705"
   d="m 230.758,253.122 c 0,-18.906 -15.324,-34.234 -34.233,-34.234 -18.909,0 -34.231,15.328 -34.231,34.234 0,18.909 15.322,34.237 34.231,34.237 18.909,0 34.233,-15.328 34.233,-34.237 z"
   style="fill:#ffcd00" />
</g>
<g
   transform="translate(-26.048,-14.173)"
   id="CIRCLE_66_">
	<path
   inkscape:connector-curvature="0"
   id="path2708"
   d="m 331.372,253.122 c 0,-18.906 -15.324,-34.234 -34.233,-34.234 -18.911,0 -34.235,15.328 -34.235,34.234 0,18.909 15.324,34.237 34.235,34.237 18.908,0 34.233,-15.328 34.233,-34.237 z"
   style="fill:#ffcd00" />
</g>
<g
   transform="translate(-26.048,-14.173)"
   id="CIRCLE_68_">
	<path
   inkscape:connector-curvature="0"
   id="path2711"
   d="m 130.153,253.122 c 0,-18.906 -15.328,-34.234 -34.238,-34.234 -18.905,0 -34.234,15.328 -34.234,34.234 0,18.909 15.329,34.237 34.234,34.237 18.91,0 34.238,-15.328 34.238,-34.237 z"
   style="fill:#ffcd00" />
</g>













<g
   transform="translate(-26.048,-14.173)"
   id="LWPOLYLINE_314_">
	<path
   inkscape:connector-curvature="0"
   id="path2753"
   d="m 290.178,208.953 c 3.505,-20.552 13.3,-39.511 28.04,-54.249 l 28.551,-28.543 h -29.648 l 13.975,-13.975 h 41.502 v 41.501 l -13.976,13.975 v -29.645 l -28.543,28.543 c -11.738,11.736 -19.722,26.694 -22.958,42.979 -5.553,-1.276 -11.309,-1.472 -16.943,-0.586 z"
   style="fill:#101820" />
</g>
<g
   transform="translate(-26.048,-14.173)"
   id="LWPOLYLINE_315_">
	<path
   inkscape:connector-curvature="0"
   id="path2756"
   d="m 288.763,381.684 v -84.638 c 5.545,1.057 11.229,1.057 16.772,0 v 84.638 z"
   style="fill:#101820" />
</g>
<g
   transform="translate(-26.048,-14.173)"
   id="LWPOLYLINE_316_">
	<path
   inkscape:connector-curvature="0"
   id="path2759"
   d="M 204.915,209.201 V 91.228 l 20.958,20.959 V 92.423 l -29.348,-29.34 -29.34,29.34 v 19.764 l 20.959,-20.959 v 117.974 c 5.536,-1.061 11.227,-1.061 16.771,-0.001 z"
   style="fill:#101820" />
</g>
<g
   transform="translate(-26.048,-14.173)"
   id="LWPOLYLINE_317_">
	<path
   inkscape:connector-curvature="0"
   id="path2762"
   d="m 204.923,381.684 v -84.638 c -5.536,1.057 -11.228,1.057 -16.771,0 v 84.638 z"
   style="fill:#101820" />
</g>
<g
   transform="translate(-26.048,-14.173)"
   id="LWPOLYLINE_318_">
	<path
   inkscape:connector-curvature="0"
   id="path2765"
   d="M 104.3,209.201 V 91.228 l 20.963,20.959 V 92.423 L 95.914,63.083 66.57,92.423 v 19.764 L 87.533,91.228 v 117.974 c 5.541,-1.061 11.227,-1.061 16.767,-0.001 z"
   style="fill:#101820" />
</g>
<g
   transform="translate(-26.048,-14.173)"
   id="LWPOLYLINE_319_">
	<path
   inkscape:connector-curvature="0"
   id="path2768"
   d="m 104.304,381.684 v -84.638 c -5.54,1.057 -11.227,1.057 -16.767,0 v 84.638 z"
   style="fill:#101820" />
</g>
</svg>
