<?xml version="1.0" encoding="UTF-8" standalone="no"?>
<!-- Generator: Adobe Illustrator 16.0.0, SVG Export Plug-In . SVG Version: 6.00 Build 0)  -->

<svg
   xmlns:dc="http://purl.org/dc/elements/1.1/"
   xmlns:cc="http://creativecommons.org/ns#"
   xmlns:rdf="http://www.w3.org/1999/02/22-rdf-syntax-ns#"
   xmlns:svg="http://www.w3.org/2000/svg"
   xmlns="http://www.w3.org/2000/svg"
   xmlns:sodipodi="http://sodipodi.sourceforge.net/DTD/sodipodi-0.dtd"
   xmlns:inkscape="http://www.inkscape.org/namespaces/inkscape"
   version="1.1"
   id="Layer_1"
   x="0px"
   y="0px"
   width="396.853"
   height="332.466"
   viewBox="0 0 396.85301 332.46599"
   xml:space="preserve"
   sodipodi:docname="C36_6.svg"
   inkscape:version="0.92.5 (2060ec1f9f, 2020-04-08)"><metadata
   id="metadata3156"><rdf:RDF><cc:Work
       rdf:about=""><dc:format>image/svg+xml</dc:format><dc:type
         rdf:resource="http://purl.org/dc/dcmitype/StillImage" /></cc:Work></rdf:RDF></metadata><defs
   id="defs3154" /><sodipodi:namedview
   pagecolor="#ffffff"
   bordercolor="#666666"
   borderopacity="1"
   objecttolerance="10"
   gridtolerance="10"
   guidetolerance="10"
   inkscape:pageopacity="0"
   inkscape:pageshadow="2"
   inkscape:window-width="640"
   inkscape:window-height="480"
   id="namedview3152"
   showgrid="false"
   inkscape:zoom="0.55503813"
   inkscape:cx="198.4265"
   inkscape:cy="166.23299"
   inkscape:window-x="0"
   inkscape:window-y="0"
   inkscape:window-maximized="0"
   inkscape:current-layer="Layer_1" />
<g
   id="LWPOLYLINE_254_"
   transform="translate(-14.172,-46.365)">
	<rect
   x="14.172"
   y="46.366001"
   style="fill:#ffcd00"
   width="396.853"
   height="332.465"
   id="rect3037" />
</g>
<g
   id="LWPOLYLINE_252_"
   transform="translate(-14.172,-46.365)">
	<path
   style="fill:#e4002b"
   d="M 29.976,378.831 H 395.22 c 8.729,0 15.805,-7.076 15.805,-15.805 V 62.169 c 0,-8.728 -7.076,-15.804 -15.805,-15.804 H 29.976 c -8.729,0 -15.804,7.076 -15.804,15.804 v 300.857 c 0,8.729 7.076,15.805 15.804,15.805 z"
   id="path3040"
   inkscape:connector-curvature="0" />
</g>
<g
   id="LWPOLYLINE_253_"
   transform="translate(-14.172,-46.365)">
	<path
   style="fill:#ffcd00"
   d="M 29.976,368.296 H 395.22 c 2.905,0 5.269,-2.359 5.269,-5.27 V 62.169 c 0,-2.91 -2.363,-5.268 -5.269,-5.268 H 29.976 c -2.908,0 -5.268,2.358 -5.268,5.268 v 300.857 c 0,2.911 2.36,5.27 5.268,5.27 z"
   id="path3043"
   inkscape:connector-curvature="0" />
</g>
<g
   id="CIRCLE_48_"
   transform="translate(-14.172,-46.365)">
	<path
   style="fill:#e4002b"
   d="m 193.284,246.548 c 0,-20.045 -16.25,-36.291 -36.295,-36.291 -20.039,0 -36.286,16.246 -36.286,36.291 0,20.039 16.247,36.289 36.286,36.289 20.045,0 36.295,-16.25 36.295,-36.289 z"
   id="path3046"
   inkscape:connector-curvature="0" />
</g>
<g
   id="CIRCLE_50_"
   transform="translate(-14.172,-46.365)">
	<path
   style="fill:#e4002b"
   d="m 108.995,246.548 c 0,-20.045 -16.246,-36.291 -36.291,-36.291 -20.042,0 -36.288,16.246 -36.288,36.291 0,20.039 16.246,36.289 36.288,36.289 20.045,0 36.291,-16.25 36.291,-36.289 z"
   id="path3049"
   inkscape:connector-curvature="0" />
</g>
<g
   id="CIRCLE_52_"
   transform="translate(-14.172,-46.365)">
	<path
   style="fill:#e4002b"
   d="m 361.857,246.548 c 0,-20.045 -16.249,-36.291 -36.294,-36.291 -20.039,0 -36.288,16.246 -36.288,36.291 0,20.039 16.249,36.289 36.288,36.289 20.045,0 36.294,-16.25 36.294,-36.289 z"
   id="path3052"
   inkscape:connector-curvature="0" />
</g>
<g
   id="CIRCLE_57_"
   transform="translate(-14.172,-46.365)">
	<path
   style="fill:#e4002b"
   d="m 277.571,246.548 c 0,-20.045 -16.25,-36.291 -36.295,-36.291 -20.039,0 -36.288,16.246 -36.288,36.291 0,20.039 16.249,36.289 36.288,36.289 20.045,0 36.295,-16.25 36.295,-36.289 z"
   id="path3055"
   inkscape:connector-curvature="0" />
</g>
<g
   id="CIRCLE_49_"
   transform="translate(-14.172,-46.365)">
	<path
   style="fill:#ffcd00"
   d="m 185.672,246.548 c 0,-15.842 -12.841,-28.682 -28.684,-28.682 -15.836,0 -28.678,12.84 -28.678,28.682 0,15.836 12.842,28.68 28.678,28.68 15.844,0 28.684,-12.844 28.684,-28.68 z"
   id="path3058"
   inkscape:connector-curvature="0" />
</g>
<g
   id="CIRCLE_51_"
   transform="translate(-14.172,-46.365)">
	<path
   style="fill:#ffcd00"
   d="m 101.387,246.548 c 0,-15.842 -12.841,-28.682 -28.684,-28.682 -15.839,0 -28.68,12.84 -28.68,28.682 0,15.836 12.841,28.68 28.68,28.68 15.843,0 28.684,-12.844 28.684,-28.68 z"
   id="path3061"
   inkscape:connector-curvature="0" />
</g>
<g
   id="CIRCLE_53_"
   transform="translate(-14.172,-46.365)">
	<path
   style="fill:#ffcd00"
   d="m 354.246,246.548 c 0,-15.842 -12.841,-28.682 -28.683,-28.682 -15.836,0 -28.677,12.84 -28.677,28.682 0,15.836 12.841,28.68 28.677,28.68 15.842,0 28.683,-12.844 28.683,-28.68 z"
   id="path3064"
   inkscape:connector-curvature="0" />
</g>
<g
   id="CIRCLE_58_"
   transform="translate(-14.172,-46.365)">
	<path
   style="fill:#ffcd00"
   d="m 269.958,246.548 c 0,-15.842 -12.84,-28.682 -28.683,-28.682 -15.836,0 -28.677,12.84 -28.677,28.682 0,15.836 12.841,28.68 28.677,28.68 15.844,0 28.683,-12.844 28.683,-28.68 z"
   id="path3067"
   inkscape:connector-curvature="0" />
</g>
<g
   id="LWPOLYLINE_242_"
   transform="translate(-14.172,-46.365)">
	<path
   style="fill:#101820"
   d="m 159.333,254.45 c 0,5.332 4.325,9.658 9.657,9.658 5.333,0 9.658,-4.326 9.658,-9.658 v -15.803 c 0,-5.336 -4.325,-9.658 -9.658,-9.658 -5.332,0 -9.657,4.322 -9.657,9.658 z"
   id="path3070"
   inkscape:connector-curvature="0" />
</g>
<g
   id="LWPOLYLINE_243_"
   transform="translate(-14.172,-46.365)">
	<path
   style="fill:#101820"
   d="m 138.383,244.948 c -1.943,1.826 -3.047,4.377 -3.047,7.043 v 2.459 c 0,5.332 4.325,9.658 9.657,9.658 5.333,0 9.658,-4.326 9.658,-9.658 v -2.459 c 0,-2.666 -1.104,-5.217 -3.047,-7.043 1.395,-1.598 2.169,-3.652 2.169,-5.779 v -1.4 c 0,-4.852 -3.932,-8.779 -8.78,-8.779 -4.848,0 -8.779,3.928 -8.779,8.779 v 1.4 c 0,2.127 0.768,4.182 2.169,5.779 z"
   id="path3073"
   inkscape:connector-curvature="0" />
</g>
<g
   id="LWPOLYLINE_247_"
   transform="translate(-14.172,-46.365)">
	<path
   style="fill:#101820"
   d="m 75.047,254.45 c 0,5.332 4.322,9.658 9.657,9.658 5.333,0 9.658,-4.326 9.658,-9.658 v -15.803 c 0,-5.336 -4.325,-9.658 -9.658,-9.658 -5.335,0 -9.657,4.322 -9.657,9.658 z"
   id="path3076"
   inkscape:connector-curvature="0" />
</g>
<g
   id="LWPOLYLINE_248_"
   transform="translate(-14.172,-46.365)">
	<path
   style="fill:#101820"
   d="m 54.095,244.948 c -1.943,1.826 -3.048,4.377 -3.048,7.043 v 2.459 c 0,5.332 4.326,9.658 9.658,9.658 5.336,0 9.658,-4.326 9.658,-9.658 v -2.459 c 0,-2.666 -1.101,-5.217 -3.048,-7.043 1.398,-1.598 2.17,-3.652 2.17,-5.779 v -1.4 c 0,-4.852 -3.932,-8.779 -8.78,-8.779 -4.848,0 -8.78,3.928 -8.78,8.779 v 1.4 c 0,2.127 0.772,4.182 2.17,5.779 z"
   id="path3079"
   inkscape:connector-curvature="0" />
</g>
<g
   id="LWPOLYLINE_257_"
   transform="translate(-14.172,-46.365)">
	<path
   style="fill:#101820"
   d="m 327.906,254.45 c 0,5.332 4.326,9.658 9.658,9.658 5.333,0 9.658,-4.326 9.658,-9.658 v -15.803 c 0,-5.336 -4.325,-9.658 -9.658,-9.658 -5.332,0 -9.658,4.322 -9.658,9.658 z"
   id="path3082"
   inkscape:connector-curvature="0" />
</g>
<g
   id="LWPOLYLINE_258_"
   transform="translate(-14.172,-46.365)">
	<path
   style="fill:#101820"
   d="m 304.258,254.45 v -5.494 c 1.253,-7.295 4.319,-14.16 8.902,-19.967 h 7.024 c -4.048,4.092 -7.146,9.031 -9.063,14.461 0.903,-0.277 1.846,-0.414 2.795,-0.414 5.332,0 9.658,4.322 9.658,9.658 v 1.756 c 0,5.332 -4.326,9.658 -9.658,9.658 -5.333,0 -9.658,-4.326 -9.658,-9.658 z"
   id="path3085"
   inkscape:connector-curvature="0" />
</g>
<g
   id="LWPOLYLINE_270_"
   transform="translate(-14.172,-46.365)">
	<path
   style="fill:#101820"
   d="m 243.62,254.45 c 0,5.332 4.325,9.658 9.657,9.658 5.333,0 9.658,-4.326 9.658,-9.658 v -15.803 c 0,-5.336 -4.325,-9.658 -9.658,-9.658 -5.332,0 -9.657,4.322 -9.657,9.658 z"
   id="path3088"
   inkscape:connector-curvature="0" />
</g>
<g
   id="LWPOLYLINE_271_"
   transform="translate(-14.172,-46.365)">
	<path
   style="fill:#101820"
   d="m 222.67,244.948 c -1.943,1.826 -3.047,4.377 -3.047,7.043 v 2.459 c 0,5.332 4.325,9.658 9.657,9.658 5.333,0 9.658,-4.326 9.658,-9.658 v -2.459 c 0,-2.666 -1.104,-5.217 -3.047,-7.043 1.395,-1.598 2.169,-3.652 2.169,-5.779 v -1.4 c 0,-4.852 -3.932,-8.779 -8.78,-8.779 -4.848,0 -8.779,3.928 -8.779,8.779 v 1.4 c 0,2.127 0.768,4.182 2.169,5.779 z"
   id="path3091"
   inkscape:connector-curvature="0" />
</g>
<g
   id="LWPOLYLINE_244_"
   transform="translate(-14.172,-46.365)">
	<path
   style="fill:#ffcd00"
   d="m 140.604,254.45 c 0,2.422 1.963,4.391 4.39,4.391 2.421,0 4.391,-1.969 4.391,-4.391 v -2.459 c 0,-2.424 -1.97,-4.391 -4.391,-4.391 -2.427,0 -4.39,1.967 -4.39,4.391 z"
   id="path3094"
   inkscape:connector-curvature="0" />
</g>
<g
   id="LWPOLYLINE_245_"
   transform="translate(-14.172,-46.365)">
	<path
   style="fill:#ffcd00"
   d="m 141.482,237.769 v 1.4 c 0,1.943 1.569,3.512 3.512,3.512 1.938,0 3.513,-1.568 3.513,-3.512 v -1.4 c 0,-1.943 -1.575,-3.512 -3.513,-3.512 -1.943,0 -3.512,1.568 -3.512,3.512 z"
   id="path3097"
   inkscape:connector-curvature="0" />
</g>
<g
   id="LWPOLYLINE_246_"
   transform="translate(-14.172,-46.365)">
	<path
   style="fill:#ffcd00"
   d="m 164.6,254.45 c 0,2.422 1.969,4.391 4.39,4.391 2.428,0 4.391,-1.969 4.391,-4.391 v -15.803 c 0,-2.428 -1.963,-4.391 -4.391,-4.391 -2.421,0 -4.39,1.963 -4.39,4.391 z"
   id="path3100"
   inkscape:connector-curvature="0" />
</g>
<g
   id="LWPOLYLINE_249_"
   transform="translate(-14.172,-46.365)">
	<path
   style="fill:#ffcd00"
   d="m 56.316,254.45 c 0,2.422 1.966,4.391 4.39,4.391 2.424,0 4.39,-1.969 4.39,-4.391 v -2.459 c 0,-2.424 -1.966,-4.391 -4.39,-4.391 -2.424,0 -4.39,1.967 -4.39,4.391 z"
   id="path3103"
   inkscape:connector-curvature="0" />
</g>
<g
   id="LWPOLYLINE_250_"
   transform="translate(-14.172,-46.365)">
	<path
   style="fill:#ffcd00"
   d="m 57.194,237.769 v 1.4 c 0,1.943 1.571,3.512 3.512,3.512 1.941,0 3.512,-1.568 3.512,-3.512 v -1.4 c 0,-1.943 -1.571,-3.512 -3.512,-3.512 -1.941,0 -3.512,1.568 -3.512,3.512 z"
   id="path3106"
   inkscape:connector-curvature="0" />
</g>
<g
   id="LWPOLYLINE_251_"
   transform="translate(-14.172,-46.365)">
	<path
   style="fill:#ffcd00"
   d="m 80.315,254.45 c 0,2.422 1.966,4.391 4.39,4.391 2.425,0 4.391,-1.969 4.391,-4.391 v -15.803 c 0,-2.428 -1.966,-4.391 -4.391,-4.391 -2.424,0 -4.39,1.963 -4.39,4.391 z"
   id="path3109"
   inkscape:connector-curvature="0" />
</g>
<g
   id="LWPOLYLINE_259_"
   transform="translate(-14.172,-46.365)">
	<path
   style="fill:#ffcd00"
   d="m 309.527,252.694 v 1.756 c 0,2.422 1.969,4.391 4.39,4.391 2.428,0 4.39,-1.969 4.39,-4.391 v -1.756 c 0,-2.428 -1.962,-4.391 -4.39,-4.391 -2.421,0.001 -4.39,1.964 -4.39,4.391 z"
   id="path3112"
   inkscape:connector-curvature="0" />
</g>
<g
   id="LWPOLYLINE_260_"
   transform="translate(-14.172,-46.365)">
	<path
   style="fill:#ffcd00"
   d="m 333.174,254.45 c 0,2.422 1.969,4.391 4.39,4.391 2.428,0 4.39,-1.969 4.39,-4.391 v -15.803 c 0,-2.428 -1.962,-4.391 -4.39,-4.391 -2.421,0 -4.39,1.963 -4.39,4.391 z"
   id="path3115"
   inkscape:connector-curvature="0" />
</g>
<g
   id="LWPOLYLINE_272_"
   transform="translate(-14.172,-46.365)">
	<path
   style="fill:#ffcd00"
   d="m 224.891,254.45 c 0,2.422 1.963,4.391 4.39,4.391 2.421,0 4.391,-1.969 4.391,-4.391 v -2.459 c 0,-2.424 -1.97,-4.391 -4.391,-4.391 -2.427,0 -4.39,1.967 -4.39,4.391 z"
   id="path3118"
   inkscape:connector-curvature="0" />
</g>
<g
   id="LWPOLYLINE_273_"
   transform="translate(-14.172,-46.365)">
	<path
   style="fill:#ffcd00"
   d="m 225.769,237.769 v 1.4 c 0,1.943 1.568,3.512 3.512,3.512 1.937,0 3.513,-1.568 3.513,-3.512 v -1.4 c 0,-1.943 -1.576,-3.512 -3.513,-3.512 -1.944,0 -3.512,1.568 -3.512,3.512 z"
   id="path3121"
   inkscape:connector-curvature="0" />
</g>
<g
   id="LWPOLYLINE_274_"
   transform="translate(-14.172,-46.365)">
	<path
   style="fill:#ffcd00"
   d="m 248.887,254.45 c 0,2.422 1.969,4.391 4.39,4.391 2.428,0 4.391,-1.969 4.391,-4.391 v -15.803 c 0,-2.428 -1.963,-4.391 -4.391,-4.391 -2.421,0 -4.39,1.963 -4.39,4.391 z"
   id="path3124"
   inkscape:connector-curvature="0" />
</g>
<g
   id="LWPOLYLINE_238_"
   transform="translate(-14.172,-46.365)">
	<path
   style="fill:#101820"
   d="m 164.013,209.751 v -98.832 l 17.56,17.56 V 111.923 L 156.989,87.34 132.407,111.923 v 16.556 l 17.559,-17.56 v 98.832 c 4.641,-0.885 9.411,-0.885 14.047,0 z"
   id="path3127"
   inkscape:connector-curvature="0" />
</g>
<g
   id="LWPOLYLINE_239_"
   transform="translate(-14.172,-46.365)">
	<path
   style="fill:#101820"
   d="m 164.026,354.247 v -70.904 c -4.642,0.889 -9.406,0.889 -14.048,0 v 70.904 z"
   id="path3130"
   inkscape:connector-curvature="0" />
</g>
<g
   id="LWPOLYLINE_240_"
   transform="translate(-14.172,-46.365)">
	<path
   style="fill:#101820"
   d="m 79.728,209.751 v -98.832 l 17.56,17.56 V 111.923 L 72.704,87.339 48.12,111.923 v 16.556 l 17.561,-17.56 v 98.832 c 4.641,-0.885 9.408,-0.885 14.047,0 z"
   id="path3133"
   inkscape:connector-curvature="0" />
</g>
<g
   id="LWPOLYLINE_241_"
   transform="translate(-14.172,-46.365)">
	<path
   style="fill:#101820"
   d="m 79.731,354.247 v -70.904 c -4.639,0.889 -9.406,0.889 -14.048,0 v 70.904 z"
   id="path3136"
   inkscape:connector-curvature="0" />
</g>
<g
   id="LWPOLYLINE_255_"
   transform="translate(-14.172,-46.365)">
	<path
   style="fill:#101820"
   d="m 319.74,209.544 c 2.931,-17.217 11.143,-33.099 23.486,-45.449 l 23.912,-23.912 h -24.829 l 11.704,-11.705 h 34.765 v 34.765 l -11.704,11.708 v -24.832 l -23.912,23.912 c -9.833,9.832 -16.527,22.362 -19.232,36.001 -4.655,-1.068 -9.472,-1.234 -14.19,-0.488 z"
   id="path3139"
   inkscape:connector-curvature="0" />
</g>
<g
   id="LWPOLYLINE_256_"
   transform="translate(-14.172,-46.365)">
	<path
   style="fill:#101820"
   d="m 318.551,354.247 v -70.904 c 4.643,0.889 9.406,0.889 14.048,0 v 70.904 z"
   id="path3142"
   inkscape:connector-curvature="0" />
</g>
<g
   id="LWPOLYLINE_268_"
   transform="translate(-14.172,-46.365)">
	<path
   style="fill:#101820"
   d="m 248.299,209.751 v -98.832 l 17.561,17.56 V 111.923 L 241.276,87.34 216.692,111.923 v 16.556 l 17.561,-17.56 v 98.832 c 4.641,-0.885 9.412,-0.885 14.046,0 z"
   id="path3145"
   inkscape:connector-curvature="0" />
</g>
<g
   id="LWPOLYLINE_269_"
   transform="translate(-14.172,-46.365)">
	<path
   style="fill:#101820"
   d="m 248.313,354.247 v -70.904 c -4.642,0.889 -9.406,0.889 -14.048,0 v 70.904 z"
   id="path3148"
   inkscape:connector-curvature="0" />
</g>
</svg>