<?xml version="1.0" encoding="iso-8859-1"?>
<!-- Generator: Adobe Illustrator 16.0.0, SVG Export Plug-In . SVG Version: 6.00 Build 0)  -->
<!DOCTYPE svg PUBLIC "-//W3C//DTD SVG 1.1//EN" "http://www.w3.org/Graphics/SVG/1.1/DTD/svg11.dtd">
<svg version="1.1" id="Layer_1" xmlns="http://www.w3.org/2000/svg" xmlns:xlink="http://www.w3.org/1999/xlink" x="0px" y="0px"
	 width="425.197px" height="425.196px" viewBox="0 0 425.197 425.196" style="enable-background:new 0 0 425.197 425.196;"
	 xml:space="preserve">
<g id="LWPOLYLINE_254_">
	<rect x="14.172" y="46.366" style="fill:#FFCD00;" width="396.853" height="332.465"/>
</g>
<g id="LWPOLYLINE_252_">
	<path style="fill:#E4002B;" d="M29.976,378.831H395.22c8.729,0,15.805-7.076,15.805-15.805V62.169
		c0-8.728-7.076-15.804-15.805-15.804H29.976c-8.729,0-15.804,7.076-15.804,15.804v300.857
		C14.172,371.755,21.248,378.831,29.976,378.831z"/>
</g>
<g id="LWPOLYLINE_253_">
	<path style="fill:#FFCD00;" d="M29.976,368.296H395.22c2.905,0,5.269-2.359,5.269-5.27V62.169c0-2.91-2.363-5.268-5.269-5.268
		H29.976c-2.908,0-5.268,2.358-5.268,5.268v300.857C24.708,365.937,27.068,368.296,29.976,368.296z"/>
</g>
<g id="CIRCLE_48_">
	<path style="fill:#E4002B;" d="M193.284,246.548c0-20.045-16.25-36.291-36.295-36.291c-20.039,0-36.286,16.246-36.286,36.291
		c0,20.039,16.247,36.289,36.286,36.289C177.034,282.837,193.284,266.587,193.284,246.548L193.284,246.548z"/>
</g>
<g id="CIRCLE_50_">
	<path style="fill:#E4002B;" d="M108.995,246.548c0-20.045-16.246-36.291-36.291-36.291c-20.042,0-36.288,16.246-36.288,36.291
		c0,20.039,16.246,36.289,36.288,36.289C92.749,282.837,108.995,266.587,108.995,246.548L108.995,246.548z"/>
</g>
<g id="CIRCLE_52_">
	<path style="fill:#E4002B;" d="M361.857,246.548c0-20.045-16.249-36.291-36.294-36.291c-20.039,0-36.288,16.246-36.288,36.291
		c0,20.039,16.249,36.289,36.288,36.289C345.608,282.837,361.857,266.587,361.857,246.548L361.857,246.548z"/>
</g>
<g id="CIRCLE_57_">
	<path style="fill:#E4002B;" d="M277.571,246.548c0-20.045-16.25-36.291-36.295-36.291c-20.039,0-36.288,16.246-36.288,36.291
		c0,20.039,16.249,36.289,36.288,36.289C261.321,282.837,277.571,266.587,277.571,246.548L277.571,246.548z"/>
</g>
<g id="CIRCLE_49_">
	<path style="fill:#FFCD00;" d="M185.672,246.548c0-15.842-12.841-28.682-28.684-28.682c-15.836,0-28.678,12.84-28.678,28.682
		c0,15.836,12.842,28.68,28.678,28.68C172.832,275.228,185.672,262.384,185.672,246.548L185.672,246.548z"/>
</g>
<g id="CIRCLE_51_">
	<path style="fill:#FFCD00;" d="M101.387,246.548c0-15.842-12.841-28.682-28.684-28.682c-15.839,0-28.68,12.84-28.68,28.682
		c0,15.836,12.841,28.68,28.68,28.68C88.546,275.228,101.387,262.384,101.387,246.548L101.387,246.548z"/>
</g>
<g id="CIRCLE_53_">
	<path style="fill:#FFCD00;" d="M354.246,246.548c0-15.842-12.841-28.682-28.683-28.682c-15.836,0-28.677,12.84-28.677,28.682
		c0,15.836,12.841,28.68,28.677,28.68C341.405,275.228,354.246,262.384,354.246,246.548L354.246,246.548z"/>
</g>
<g id="CIRCLE_58_">
	<path style="fill:#FFCD00;" d="M269.958,246.548c0-15.842-12.84-28.682-28.683-28.682c-15.836,0-28.677,12.84-28.677,28.682
		c0,15.836,12.841,28.68,28.677,28.68C257.119,275.228,269.958,262.384,269.958,246.548L269.958,246.548z"/>
</g>
<g id="LWPOLYLINE_242_">
	<path style="fill:#101820;" d="M159.333,254.45c0,5.332,4.325,9.658,9.657,9.658c5.333,0,9.658-4.326,9.658-9.658v-15.803
		c0-5.336-4.325-9.658-9.658-9.658c-5.332,0-9.657,4.322-9.657,9.658V254.45z"/>
</g>
<g id="LWPOLYLINE_243_">
	<path style="fill:#101820;" d="M138.383,244.948c-1.943,1.826-3.047,4.377-3.047,7.043v2.459c0,5.332,4.325,9.658,9.657,9.658
		c5.333,0,9.658-4.326,9.658-9.658v-2.459c0-2.666-1.104-5.217-3.047-7.043c1.395-1.598,2.169-3.652,2.169-5.779v-1.4
		c0-4.852-3.932-8.779-8.78-8.779c-4.848,0-8.779,3.928-8.779,8.779v1.4C136.214,241.296,136.982,243.351,138.383,244.948z"/>
</g>
<g id="LWPOLYLINE_247_">
	<path style="fill:#101820;" d="M75.047,254.45c0,5.332,4.322,9.658,9.657,9.658c5.333,0,9.658-4.326,9.658-9.658v-15.803
		c0-5.336-4.325-9.658-9.658-9.658c-5.335,0-9.657,4.322-9.657,9.658V254.45z"/>
</g>
<g id="LWPOLYLINE_248_">
	<path style="fill:#101820;" d="M54.095,244.948c-1.943,1.826-3.048,4.377-3.048,7.043v2.459c0,5.332,4.326,9.658,9.658,9.658
		c5.336,0,9.658-4.326,9.658-9.658v-2.459c0-2.666-1.101-5.217-3.048-7.043c1.398-1.598,2.17-3.652,2.17-5.779v-1.4
		c0-4.852-3.932-8.779-8.78-8.779s-8.78,3.928-8.78,8.779v1.4C51.925,241.296,52.697,243.351,54.095,244.948z"/>
</g>
<g id="LWPOLYLINE_257_">
	<path style="fill:#101820;" d="M327.906,254.45c0,5.332,4.326,9.658,9.658,9.658c5.333,0,9.658-4.326,9.658-9.658v-15.803
		c0-5.336-4.325-9.658-9.658-9.658c-5.332,0-9.658,4.322-9.658,9.658V254.45z"/>
</g>
<g id="LWPOLYLINE_258_">
	<path style="fill:#101820;" d="M304.258,254.45v-5.494c1.253-7.295,4.319-14.16,8.902-19.967h7.024
		c-4.048,4.092-7.146,9.031-9.063,14.461c0.903-0.277,1.846-0.414,2.795-0.414c5.332,0,9.658,4.322,9.658,9.658v1.756
		c0,5.332-4.326,9.658-9.658,9.658C308.583,264.108,304.258,259.782,304.258,254.45z"/>
</g>
<g id="LWPOLYLINE_270_">
	<path style="fill:#101820;" d="M243.62,254.45c0,5.332,4.325,9.658,9.657,9.658c5.333,0,9.658-4.326,9.658-9.658v-15.803
		c0-5.336-4.325-9.658-9.658-9.658c-5.332,0-9.657,4.322-9.657,9.658V254.45z"/>
</g>
<g id="LWPOLYLINE_271_">
	<path style="fill:#101820;" d="M222.67,244.948c-1.943,1.826-3.047,4.377-3.047,7.043v2.459c0,5.332,4.325,9.658,9.657,9.658
		c5.333,0,9.658-4.326,9.658-9.658v-2.459c0-2.666-1.104-5.217-3.047-7.043c1.395-1.598,2.169-3.652,2.169-5.779v-1.4
		c0-4.852-3.932-8.779-8.78-8.779c-4.848,0-8.779,3.928-8.779,8.779v1.4C220.501,241.296,221.269,243.351,222.67,244.948z"/>
</g>
<g id="LWPOLYLINE_244_">
	<path style="fill:#FFCD00;" d="M140.604,254.45c0,2.422,1.963,4.391,4.39,4.391c2.421,0,4.391-1.969,4.391-4.391v-2.459
		c0-2.424-1.97-4.391-4.391-4.391c-2.427,0-4.39,1.967-4.39,4.391V254.45z"/>
</g>
<g id="LWPOLYLINE_245_">
	<path style="fill:#FFCD00;" d="M141.482,237.769v1.4c0,1.943,1.569,3.512,3.512,3.512c1.938,0,3.513-1.568,3.513-3.512v-1.4
		c0-1.943-1.575-3.512-3.513-3.512C143.051,234.257,141.482,235.825,141.482,237.769z"/>
</g>
<g id="LWPOLYLINE_246_">
	<path style="fill:#FFCD00;" d="M164.6,254.45c0,2.422,1.969,4.391,4.39,4.391c2.428,0,4.391-1.969,4.391-4.391v-15.803
		c0-2.428-1.963-4.391-4.391-4.391c-2.421,0-4.39,1.963-4.39,4.391V254.45z"/>
</g>
<g id="LWPOLYLINE_249_">
	<path style="fill:#FFCD00;" d="M56.316,254.45c0,2.422,1.966,4.391,4.39,4.391s4.39-1.969,4.39-4.391v-2.459
		c0-2.424-1.966-4.391-4.39-4.391s-4.39,1.967-4.39,4.391V254.45z"/>
</g>
<g id="LWPOLYLINE_250_">
	<path style="fill:#FFCD00;" d="M57.194,237.769v1.4c0,1.943,1.571,3.512,3.512,3.512s3.512-1.568,3.512-3.512v-1.4
		c0-1.943-1.571-3.512-3.512-3.512S57.194,235.825,57.194,237.769z"/>
</g>
<g id="LWPOLYLINE_251_">
	<path style="fill:#FFCD00;" d="M80.315,254.45c0,2.422,1.966,4.391,4.39,4.391c2.425,0,4.391-1.969,4.391-4.391v-15.803
		c0-2.428-1.966-4.391-4.391-4.391c-2.424,0-4.39,1.963-4.39,4.391V254.45z"/>
</g>
<g id="LWPOLYLINE_259_">
	<path style="fill:#FFCD00;" d="M309.527,252.694v1.756c0,2.422,1.969,4.391,4.39,4.391c2.428,0,4.39-1.969,4.39-4.391v-1.756
		c0-2.428-1.962-4.391-4.39-4.391C311.496,248.304,309.527,250.267,309.527,252.694z"/>
</g>
<g id="LWPOLYLINE_260_">
	<path style="fill:#FFCD00;" d="M333.174,254.45c0,2.422,1.969,4.391,4.39,4.391c2.428,0,4.39-1.969,4.39-4.391v-15.803
		c0-2.428-1.962-4.391-4.39-4.391c-2.421,0-4.39,1.963-4.39,4.391V254.45z"/>
</g>
<g id="LWPOLYLINE_272_">
	<path style="fill:#FFCD00;" d="M224.891,254.45c0,2.422,1.963,4.391,4.39,4.391c2.421,0,4.391-1.969,4.391-4.391v-2.459
		c0-2.424-1.97-4.391-4.391-4.391c-2.427,0-4.39,1.967-4.39,4.391V254.45z"/>
</g>
<g id="LWPOLYLINE_273_">
	<path style="fill:#FFCD00;" d="M225.769,237.769v1.4c0,1.943,1.568,3.512,3.512,3.512c1.937,0,3.513-1.568,3.513-3.512v-1.4
		c0-1.943-1.576-3.512-3.513-3.512C227.337,234.257,225.769,235.825,225.769,237.769z"/>
</g>
<g id="LWPOLYLINE_274_">
	<path style="fill:#FFCD00;" d="M248.887,254.45c0,2.422,1.969,4.391,4.39,4.391c2.428,0,4.391-1.969,4.391-4.391v-15.803
		c0-2.428-1.963-4.391-4.391-4.391c-2.421,0-4.39,1.963-4.39,4.391V254.45z"/>
</g>
<g id="LWPOLYLINE_238_">
	<path style="fill:#101820;" d="M164.013,209.751v-98.832l17.56,17.56v-16.556l-24.584-24.583l-24.582,24.583v16.556l17.559-17.56
		v98.832C154.607,208.866,159.377,208.866,164.013,209.751z"/>
</g>
<g id="LWPOLYLINE_239_">
	<path style="fill:#101820;" d="M164.026,354.247v-70.904c-4.642,0.889-9.406,0.889-14.048,0v70.904H164.026z"/>
</g>
<g id="LWPOLYLINE_240_">
	<path style="fill:#101820;" d="M79.728,209.751v-98.832l17.56,17.56v-16.556L72.704,87.339L48.12,111.923v16.556l17.561-17.56
		v98.832C70.322,208.866,75.089,208.866,79.728,209.751z"/>
</g>
<g id="LWPOLYLINE_241_">
	<path style="fill:#101820;" d="M79.731,354.247v-70.904c-4.639,0.889-9.406,0.889-14.048,0v70.904H79.731z"/>
</g>
<g id="LWPOLYLINE_255_">
	<path style="fill:#101820;" d="M319.74,209.544c2.931-17.217,11.143-33.099,23.486-45.449l23.912-23.912h-24.829l11.704-11.705
		h34.765v34.765l-11.704,11.708v-24.832l-23.912,23.912c-9.833,9.832-16.527,22.362-19.232,36.001
		C329.275,208.964,324.458,208.798,319.74,209.544z"/>
</g>
<g id="LWPOLYLINE_256_">
	<path style="fill:#101820;" d="M318.551,354.247v-70.904c4.643,0.889,9.406,0.889,14.048,0v70.904H318.551z"/>
</g>
<g id="LWPOLYLINE_268_">
	<path style="fill:#101820;" d="M248.299,209.751v-98.832l17.561,17.56v-16.556l-24.584-24.583l-24.584,24.583v16.556l17.561-17.56
		v98.832C238.894,208.866,243.665,208.866,248.299,209.751z"/>
</g>
<g id="LWPOLYLINE_269_">
	<path style="fill:#101820;" d="M248.313,354.247v-70.904c-4.642,0.889-9.406,0.889-14.048,0v70.904H248.313z"/>
</g>
</svg>
