<?xml version="1.0" encoding="UTF-8" standalone="no"?>
<!-- Generator: Adobe Illustrator 16.0.0, SVG Export Plug-In . SVG Version: 6.00 Build 0)  -->

<svg
   xmlns:dc="http://purl.org/dc/elements/1.1/"
   xmlns:cc="http://creativecommons.org/ns#"
   xmlns:rdf="http://www.w3.org/1999/02/22-rdf-syntax-ns#"
   xmlns:svg="http://www.w3.org/2000/svg"
   xmlns="http://www.w3.org/2000/svg"
   xmlns:sodipodi="http://sodipodi.sourceforge.net/DTD/sodipodi-0.dtd"
   xmlns:inkscape="http://www.inkscape.org/namespaces/inkscape"
   version="1.1"
   id="Layer_1"
   x="0px"
   y="0px"
   width="373.09299"
   height="396.85101"
   viewBox="0 0 373.09299 396.851"
   xml:space="preserve"
   sodipodi:docname="C36_2.svg"
   inkscape:version="0.92.5 (2060ec1f9f, 2020-04-08)"><metadata
   id="metadata2816"><rdf:RDF><cc:Work
       rdf:about=""><dc:format>image/svg+xml</dc:format><dc:type
         rdf:resource="http://purl.org/dc/dcmitype/StillImage" /></cc:Work></rdf:RDF></metadata><defs
   id="defs2814" /><sodipodi:namedview
   pagecolor="#ffffff"
   bordercolor="#666666"
   borderopacity="1"
   objecttolerance="10"
   gridtolerance="10"
   guidetolerance="10"
   inkscape:pageopacity="0"
   inkscape:pageshadow="2"
   inkscape:window-width="640"
   inkscape:window-height="480"
   id="namedview2812"
   showgrid="false"
   inkscape:zoom="0.55503813"
   inkscape:cx="186.5465"
   inkscape:cy="198.42601"
   inkscape:window-x="0"
   inkscape:window-y="0"
   inkscape:window-maximized="0"
   inkscape:current-layer="Layer_1" />
<g
   id="LWPOLYLINE_12_"
   transform="translate(-26.052,-14.173)">
	<rect
   x="26.052"
   y="14.173"
   style="fill:#ffcd00"
   width="373.09299"
   height="396.85101"
   id="rect2778" />
</g>
<g
   id="LWPOLYLINE_14_"
   transform="translate(-26.052,-14.173)">
	<path
   style="fill:#e4002b"
   d="m 44.917,411.023 h 335.364 c 10.419,0 18.864,-8.446 18.864,-18.864 V 33.037 c 0,-10.419 -8.445,-18.864 -18.864,-18.864 H 44.917 c -10.419,0 -18.864,8.445 -18.864,18.864 v 359.122 c -0.001,10.418 8.445,18.864 18.864,18.864 z"
   id="path2781"
   inkscape:connector-curvature="0" />
</g>
<g
   id="LWPOLYLINE_13_"
   transform="translate(-26.052,-14.173)">
	<path
   style="fill:#ffcd00"
   d="m 44.917,398.447 h 335.364 c 3.476,0 6.288,-2.817 6.288,-6.288 V 33.037 c 0,-3.474 -2.813,-6.288 -6.288,-6.288 H 44.917 c -3.472,0 -6.288,2.814 -6.288,6.288 v 359.122 c -10e-4,3.471 2.816,6.288 6.288,6.288 z"
   id="path2784"
   inkscape:connector-curvature="0" />
</g>
<g
   id="LWPOLYLINE_10_"
   transform="translate(-26.052,-14.173)">
	<path
   style="fill:#101820"
   d="M 120.374,209.199 V 91.227 l 20.958,20.96 V 92.425 L 111.989,63.08 82.645,92.425 v 19.762 l 20.96,-20.96 v 117.972 c 5.541,-1.056 11.228,-1.056 16.769,0 z"
   id="path2787"
   inkscape:connector-curvature="0" />
</g>
<g
   id="LWPOLYLINE_11_"
   transform="translate(-26.052,-14.173)">
	<path
   style="fill:#101820"
   d="m 120.377,381.679 v -84.636 c -5.541,1.06 -11.228,1.06 -16.769,0 v 84.636 z"
   id="path2790"
   inkscape:connector-curvature="0" />
</g>
<g
   id="LWPOLYLINE_18_"
   transform="translate(-26.052,-14.173)">
	<polyline
   style="fill:#101820"
   points="321.592,381.659 321.592,91.227 342.552,112.188 342.552,92.425 313.208,63.081    283.863,92.425 283.863,112.188 304.824,91.227 304.838,381.679 321.607,381.679  "
   id="polyline2793" />
</g>
<g
   id="LWPOLYLINE_19_"
   transform="translate(-26.052,-14.173)">
	<polyline
   style="fill:#101820"
   points="220.981,381.659 220.981,91.227 241.942,112.188 241.942,92.425 212.597,63.081    183.253,92.425 183.253,112.188 204.213,91.227 204.229,381.679 220.997,381.679  "
   id="polyline2796" />
</g>
<g
   id="CIRCLE_2_"
   transform="translate(-26.052,-14.173)">
	<path
   style="fill:#005eb8"
   d="m 155.311,253.123 c 0,-23.927 -19.396,-43.319 -43.322,-43.319 -23.923,0 -43.318,19.393 -43.318,43.319 0,23.919 19.396,43.315 43.318,43.315 23.926,0 43.322,-19.396 43.322,-43.315 z"
   id="path2799"
   inkscape:connector-curvature="0" />
</g>
<g
   id="LWPOLYLINE_15_"
   transform="translate(-26.052,-14.173)">
	<path
   style="fill:#ffffff"
   d="m 114.783,262.556 c 0,6.365 5.163,11.527 11.53,11.527 6.365,0 11.528,-5.162 11.528,-11.527 v -18.864 c 0,-6.37 -5.163,-11.529 -11.528,-11.529 -6.367,0 -11.53,5.159 -11.53,11.529 z"
   id="path2802"
   inkscape:connector-curvature="0" />
</g>
<g
   id="LWPOLYLINE_16_"
   transform="translate(-26.052,-14.173)">
	<path
   style="fill:#ffffff"
   d="m 87.188,262.556 c 0,6.365 5.162,11.527 11.527,11.527 6.37,0 11.528,-5.162 11.528,-11.527 v -4.616 c 0,-6.365 -5.158,-11.529 -11.528,-11.529 -1.606,0 -3.197,0.34 -4.665,0.991 l 0.894,-8.951 h 11.528 l -0.42,-6.288 H 89.284 l -2.096,20.961 7.336,1.672 c 0.99,-1.317 2.543,-2.097 4.191,-2.097 2.895,0 5.24,2.351 5.24,5.241 v 4.616 c 0,2.889 -2.346,5.239 -5.24,5.239 -2.893,0 -5.239,-2.351 -5.239,-5.239 z"
   id="path2805"
   inkscape:connector-curvature="0" />
</g>
<g
   id="LWPOLYLINE_17_"
   transform="translate(-26.052,-14.173)">
	<path
   style="fill:#005eb8"
   d="m 121.071,262.556 c 0,2.889 2.345,5.239 5.242,5.239 2.89,0 5.24,-2.351 5.24,-5.239 v -18.864 c 0,-2.897 -2.351,-5.241 -5.24,-5.241 -2.897,0 -5.242,2.344 -5.242,5.241 z"
   id="path2808"
   inkscape:connector-curvature="0" />
</g>
</svg>