<?xml version="1.0" encoding="UTF-8" standalone="no"?>
<!-- Generator: Adobe Illustrator 16.0.0, SVG Export Plug-In . SVG Version: 6.00 Build 0)  -->

<svg
   xmlns:dc="http://purl.org/dc/elements/1.1/"
   xmlns:cc="http://creativecommons.org/ns#"
   xmlns:rdf="http://www.w3.org/1999/02/22-rdf-syntax-ns#"
   xmlns:svg="http://www.w3.org/2000/svg"
   xmlns="http://www.w3.org/2000/svg"
   xmlns:sodipodi="http://sodipodi.sourceforge.net/DTD/sodipodi-0.dtd"
   xmlns:inkscape="http://www.inkscape.org/namespaces/inkscape"
   version="1.1"
   id="Layer_1"
   x="0px"
   y="0px"
   width="396.853"
   height="396.849"
   viewBox="0 0 396.85301 396.84899"
   xml:space="preserve"
   sodipodi:docname="C37.svg"
   inkscape:version="0.92.5 (2060ec1f9f, 2020-04-08)"><metadata
   id="metadata3338"><rdf:RDF><cc:Work
       rdf:about=""><dc:format>image/svg+xml</dc:format><dc:type
         rdf:resource="http://purl.org/dc/dcmitype/StillImage" /></cc:Work></rdf:RDF></metadata><defs
   id="defs3336" /><sodipodi:namedview
   pagecolor="#ffffff"
   bordercolor="#666666"
   borderopacity="1"
   objecttolerance="10"
   gridtolerance="10"
   guidetolerance="10"
   inkscape:pageopacity="0"
   inkscape:pageshadow="2"
   inkscape:window-width="640"
   inkscape:window-height="480"
   id="namedview3334"
   showgrid="false"
   inkscape:zoom="0.55503813"
   inkscape:cx="198.4265"
   inkscape:cy="198.42499"
   inkscape:window-x="0"
   inkscape:window-y="0"
   inkscape:window-maximized="0"
   inkscape:current-layer="Layer_1" />
<g
   id="CIRCLE_2_"
   transform="translate(-14.172,-14.174)">
	<path
   style="fill:#ffcd00"
   d="m 411.025,212.6 c 0,-109.584 -88.84,-198.426 -198.428,-198.426 -109.59,0 -198.425,88.842 -198.425,198.426 0,109.588 88.835,198.423 198.425,198.423 109.588,-0.001 198.428,-88.835 198.428,-198.423 z"
   id="path3303"
   inkscape:connector-curvature="0" />
</g>
<g
   id="CIRCLE_3_"
   transform="translate(-14.172,-14.174)">
	<path
   style="fill:#e4002b"
   d="m 404.821,212.6 c 0,-106.162 -86.062,-192.224 -192.224,-192.224 -106.164,0 -192.226,86.062 -192.226,192.224 0,106.166 86.062,192.224 192.226,192.224 106.162,-0.001 192.224,-86.063 192.224,-192.224 z"
   id="path3306"
   inkscape:connector-curvature="0" />
</g>
<g
   id="LWPOLYLINE_9_"
   transform="translate(-14.172,-14.174)">
	<path
   style="fill:#ffcd00"
   d="m 94.774,308.504 c -45.461,-55.854 -45.461,-135.955 0,-191.805 l 95.902,95.9 z"
   id="path3309"
   inkscape:connector-curvature="0" />
</g>
<g
   id="LWPOLYLINE_11_"
   transform="translate(-14.172,-14.174)">
	<path
   style="fill:#ffcd00"
   d="m 116.695,94.773 95.902,95.9 95.899,-95.9 c -55.853,-45.456 -135.945,-45.456 -191.801,0 z"
   id="path3312"
   inkscape:connector-curvature="0" />
</g>
<g
   id="LWPOLYLINE_13_"
   transform="translate(-14.172,-14.174)">
	<path
   style="fill:#ffcd00"
   d="m 234.518,212.6 95.9,95.904 c 45.466,-55.854 45.466,-135.955 0,-191.805 z"
   id="path3315"
   inkscape:connector-curvature="0" />
</g>
<g
   id="LWPOLYLINE_15_"
   transform="translate(-14.172,-14.174)">
	<path
   style="fill:#ffcd00"
   d="m 212.597,234.525 -95.902,95.899 c 55.856,45.457 135.948,45.457 191.802,0 z"
   id="path3318"
   inkscape:connector-curvature="0" />
</g>
<g
   id="LWPOLYLINE_10_"
   transform="translate(-14.172,-14.174)">
	<path
   style="fill:#005eb8"
   d="m 95.035,303.851 c -41.678,-53.693 -41.678,-128.809 0,-182.503 l 91.25,91.252 z"
   id="path3321"
   inkscape:connector-curvature="0" />
</g>
<g
   id="LWPOLYLINE_12_"
   transform="translate(-14.172,-14.174)">
	<path
   style="fill:#005eb8"
   d="m 121.343,95.04 91.254,91.252 91.247,-91.252 C 250.155,53.361 175.04,53.361 121.343,95.04 Z"
   id="path3324"
   inkscape:connector-curvature="0" />
</g>
<g
   id="LWPOLYLINE_14_"
   transform="translate(-14.172,-14.174)">
	<path
   style="fill:#005eb8"
   d="m 238.901,212.6 91.256,91.251 c 41.679,-53.693 41.679,-128.809 0,-182.503 z"
   id="path3327"
   inkscape:connector-curvature="0" />
</g>
<g
   id="LWPOLYLINE_16_"
   transform="translate(-14.172,-14.174)">
	<path
   style="fill:#005eb8"
   d="m 212.597,238.908 -91.254,91.251 c 53.696,41.683 128.812,41.683 182.501,0 z"
   id="path3330"
   inkscape:connector-curvature="0" />
</g>
</svg>