<?xml version="1.0" encoding="iso-8859-1"?>
<!-- Generator: Adobe Illustrator 16.0.0, SVG Export Plug-In . SVG Version: 6.00 Build 0)  -->
<!DOCTYPE svg PUBLIC "-//W3C//DTD SVG 1.1//EN" "http://www.w3.org/Graphics/SVG/1.1/DTD/svg11.dtd">
<svg version="1.1" id="Layer_1" xmlns="http://www.w3.org/2000/svg" xmlns:xlink="http://www.w3.org/1999/xlink" x="0px" y="0px"
	 width="425.197px" height="425.196px" viewBox="0 0 425.197 425.196" style="enable-background:new 0 0 425.197 425.196;"
	 xml:space="preserve">
<g id="CIRCLE_2_">
	<path style="fill:#FFCD00;" d="M411.025,212.6c0-109.584-88.84-198.426-198.428-198.426c-109.59,0-198.425,88.842-198.425,198.426
		c0,109.588,88.835,198.423,198.425,198.423C322.185,411.022,411.025,322.188,411.025,212.6L411.025,212.6z"/>
</g>
<g id="CIRCLE_3_">
	<path style="fill:#E4002B;" d="M404.821,212.6c0-106.162-86.062-192.224-192.224-192.224
		c-106.164,0-192.226,86.062-192.226,192.224c0,106.166,86.062,192.224,192.226,192.224
		C318.759,404.823,404.821,318.761,404.821,212.6L404.821,212.6z"/>
</g>
<g id="LWPOLYLINE_5_">
	<path style="fill:#FFCD00;" d="M116.695,94.773l213.724,213.73c52.968-65.078,43.147-160.762-21.922-213.73
		C252.643,49.317,172.551,49.317,116.695,94.773z"/>
</g>
<g id="LWPOLYLINE_7_">
	<path style="fill:#FFCD00;" d="M94.774,116.699l213.723,213.726c-55.854,45.457-135.946,45.457-191.802,0
		C51.621,277.457,41.806,181.773,94.774,116.699z"/>
</g>
<g id="LWPOLYLINE_6_">
	<path style="fill:#005EB8;" d="M121.343,95.04l208.813,208.811c50.398-64.925,38.621-158.412-26.313-208.811
		C250.155,53.361,175.04,53.361,121.343,95.04z"/>
</g>
<g id="LWPOLYLINE_8_">
	<path style="fill:#005EB8;" d="M95.035,121.348l208.809,208.812c-53.689,41.683-128.805,41.683-182.501,0
		C56.418,279.761,44.637,186.273,95.035,121.348z"/>
</g>
</svg>
