<?xml version="1.0" encoding="UTF-8" standalone="no"?>
<!-- Generator: Adobe Illustrator 16.0.0, SVG Export Plug-In . SVG Version: 6.00 Build 0)  -->

<svg
   xmlns:dc="http://purl.org/dc/elements/1.1/"
   xmlns:cc="http://creativecommons.org/ns#"
   xmlns:rdf="http://www.w3.org/1999/02/22-rdf-syntax-ns#"
   xmlns:svg="http://www.w3.org/2000/svg"
   xmlns="http://www.w3.org/2000/svg"
   xmlns:sodipodi="http://sodipodi.sourceforge.net/DTD/sodipodi-0.dtd"
   xmlns:inkscape="http://www.inkscape.org/namespaces/inkscape"
   version="1.1"
   id="Layer_1"
   x="0px"
   y="0px"
   width="396.853"
   height="396.849"
   viewBox="0 0 396.85301 396.84899"
   xml:space="preserve"
   sodipodi:docname="C38.svg"
   inkscape:version="0.92.5 (2060ec1f9f, 2020-04-08)"><metadata
   id="metadata3363"><rdf:RDF><cc:Work
       rdf:about=""><dc:format>image/svg+xml</dc:format><dc:type
         rdf:resource="http://purl.org/dc/dcmitype/StillImage" /></cc:Work></rdf:RDF></metadata><defs
   id="defs3361" /><sodipodi:namedview
   pagecolor="#ffffff"
   bordercolor="#666666"
   borderopacity="1"
   objecttolerance="10"
   gridtolerance="10"
   guidetolerance="10"
   inkscape:pageopacity="0"
   inkscape:pageshadow="2"
   inkscape:window-width="640"
   inkscape:window-height="480"
   id="namedview3359"
   showgrid="false"
   inkscape:zoom="0.55503813"
   inkscape:cx="198.4265"
   inkscape:cy="198.42499"
   inkscape:window-x="0"
   inkscape:window-y="0"
   inkscape:window-maximized="0"
   inkscape:current-layer="Layer_1" />
<g
   id="CIRCLE_2_"
   transform="translate(-14.172,-14.174)">
	<path
   style="fill:#ffcd00"
   d="m 411.025,212.6 c 0,-109.584 -88.84,-198.426 -198.428,-198.426 -109.59,0 -198.425,88.842 -198.425,198.426 0,109.588 88.835,198.423 198.425,198.423 109.588,-0.001 198.428,-88.835 198.428,-198.423 z"
   id="path3340"
   inkscape:connector-curvature="0" />
</g>
<g
   id="CIRCLE_3_"
   transform="translate(-14.172,-14.174)">
	<path
   style="fill:#e4002b"
   d="m 404.821,212.6 c 0,-106.162 -86.062,-192.224 -192.224,-192.224 -106.164,0 -192.226,86.062 -192.226,192.224 0,106.166 86.062,192.224 192.226,192.224 106.162,-0.001 192.224,-86.063 192.224,-192.224 z"
   id="path3343"
   inkscape:connector-curvature="0" />
</g>
<g
   id="LWPOLYLINE_5_"
   transform="translate(-14.172,-14.174)">
	<path
   style="fill:#ffcd00"
   d="m 116.695,94.773 213.724,213.73 c 52.968,-65.078 43.147,-160.762 -21.922,-213.73 -55.854,-45.456 -135.946,-45.456 -191.802,0 z"
   id="path3346"
   inkscape:connector-curvature="0" />
</g>
<g
   id="LWPOLYLINE_7_"
   transform="translate(-14.172,-14.174)">
	<path
   style="fill:#ffcd00"
   d="m 94.774,116.699 213.723,213.726 c -55.854,45.457 -135.946,45.457 -191.802,0 C 51.621,277.457 41.806,181.773 94.774,116.699 Z"
   id="path3349"
   inkscape:connector-curvature="0" />
</g>
<g
   id="LWPOLYLINE_6_"
   transform="translate(-14.172,-14.174)">
	<path
   style="fill:#005eb8"
   d="M 121.343,95.04 330.156,303.851 C 380.554,238.926 368.777,145.439 303.843,95.04 250.155,53.361 175.04,53.361 121.343,95.04 Z"
   id="path3352"
   inkscape:connector-curvature="0" />
</g>
<g
   id="LWPOLYLINE_8_"
   transform="translate(-14.172,-14.174)">
	<path
   style="fill:#005eb8"
   d="M 95.035,121.348 303.844,330.16 c -53.689,41.683 -128.805,41.683 -182.501,0 C 56.418,279.761 44.637,186.273 95.035,121.348 Z"
   id="path3355"
   inkscape:connector-curvature="0" />
</g>
</svg>