<?xml version="1.0" encoding="iso-8859-1"?>
<!-- Generator: Adobe Illustrator 16.0.0, SVG Export Plug-In . SVG Version: 6.00 Build 0)  -->
<!DOCTYPE svg PUBLIC "-//W3C//DTD SVG 1.1//EN" "http://www.w3.org/Graphics/SVG/1.1/DTD/svg11.dtd">
<svg version="1.1" id="Layer_1" xmlns="http://www.w3.org/2000/svg" xmlns:xlink="http://www.w3.org/1999/xlink" x="0px" y="0px"
	 width="425.197px" height="425.196px" viewBox="0 0 425.197 425.196" style="enable-background:new 0 0 425.197 425.196;"
	 xml:space="preserve">
<g id="LWPOLYLINE_23_">
	<polygon style="fill:#FFCD00;" points="411.025,411.034 14.171,411.034 14.171,14.296 411.025,14.163 	"/>
</g>
<g id="LWPOLYLINE_22_">
	<path style="fill:#E4002B;" d="M391.181,411.034H34.015c-10.963,0-19.844-8.881-19.844-19.844V34.129
		c0-10.953,8.881-19.833,19.834-19.838l357.165-0.118c10.969,0,19.854,8.885,19.854,19.844V391.19
		C411.025,402.153,402.139,411.034,391.181,411.034z"/>
</g>
<g id="LWPOLYLINE_24_">
	<path style="fill:#FFCD00;" d="M388.975,397.808H36.216c-4.869,0-8.819-3.949-8.819-8.818V36.335c0-4.869,3.95-8.814,8.819-8.814
		l352.759-0.123c4.874,0,8.813,3.95,8.813,8.824v352.767C397.789,393.858,393.849,397.808,388.975,397.808z"/>
</g>
<g id="CIRCLE_1_">
	<path style="fill:#E4002B;" d="M349.288,212.634c0-75.491-61.203-136.693-136.688-136.693
		c-75.498,0-136.696,61.203-136.696,136.693c0,75.49,61.198,136.693,136.696,136.693
		C288.084,349.327,349.288,288.124,349.288,212.634L349.288,212.634z"/>
</g>
<g id="LWPOLYLINE_35_">
	<path style="fill:#FFCD00;" d="M128.795,144.428L280.8,296.437c-39.719,32.33-96.684,32.33-136.409,0
		C98.107,258.759,91.129,190.708,128.795,144.428z"/>
</g>
<g id="LWPOLYLINE_37_">
	<path style="fill:#FFCD00;" d="M144.391,128.833l152.005,152.006c37.666-46.279,30.688-114.335-15.596-152.006
		C241.082,96.502,184.117,96.502,144.391,128.833z"/>
</g>
<g id="LWPOLYLINE_34_">
	<path style="fill:#005EB8;" d="M147.695,129.022L296.21,277.536c35.84-46.182,27.468-112.669-18.715-148.514
		C239.307,99.38,185.881,99.38,147.695,129.022z"/>
</g>
<g id="LWPOLYLINE_36_">
	<path style="fill:#005EB8;" d="M128.985,147.732l148.511,148.513c-38.188,29.643-91.614,29.643-129.801,0
		C101.518,260.401,93.14,193.909,128.985,147.732z"/>
</g>
</svg>
