<?xml version="1.0" encoding="UTF-8" standalone="no"?>
<!-- Generator: Adobe Illustrator 16.0.0, SVG Export Plug-In . SVG Version: 6.00 Build 0)  -->

<svg
   xmlns:dc="http://purl.org/dc/elements/1.1/"
   xmlns:cc="http://creativecommons.org/ns#"
   xmlns:rdf="http://www.w3.org/1999/02/22-rdf-syntax-ns#"
   xmlns:svg="http://www.w3.org/2000/svg"
   xmlns="http://www.w3.org/2000/svg"
   xmlns:sodipodi="http://sodipodi.sourceforge.net/DTD/sodipodi-0.dtd"
   xmlns:inkscape="http://www.inkscape.org/namespaces/inkscape"
   version="1.1"
   id="Layer_1"
   x="0px"
   y="0px"
   width="322.444"
   height="396.85101"
   viewBox="0 0 322.44401 396.851"
   xml:space="preserve"
   sodipodi:docname="C43.svg"
   inkscape:version="0.92.5 (2060ec1f9f, 2020-04-08)"><metadata
   id="metadata3662"><rdf:RDF><cc:Work
       rdf:about=""><dc:format>image/svg+xml</dc:format><dc:type
         rdf:resource="http://purl.org/dc/dcmitype/StillImage" /></cc:Work></rdf:RDF></metadata><defs
   id="defs3660" /><sodipodi:namedview
   pagecolor="#ffffff"
   bordercolor="#666666"
   borderopacity="1"
   objecttolerance="10"
   gridtolerance="10"
   guidetolerance="10"
   inkscape:pageopacity="0"
   inkscape:pageshadow="2"
   inkscape:window-width="640"
   inkscape:window-height="480"
   id="namedview3658"
   showgrid="false"
   inkscape:zoom="0.55503813"
   inkscape:cx="161.2225"
   inkscape:cy="198.42601"
   inkscape:window-x="0"
   inkscape:window-y="0"
   inkscape:window-maximized="0"
   inkscape:current-layer="Layer_1" />
<g
   id="LWPOLYLINE_47_"
   transform="translate(-51.375999,-14.173)">
	<rect
   x="51.375999"
   y="14.173"
   style="fill:#ffcd00"
   width="322.44299"
   height="396.85101"
   id="rect3561" />
</g>
<g
   id="LWPOLYLINE_72_"
   transform="translate(-51.375999,-14.173)">
	<path
   style="fill:#e4002b"
   d="M 353.977,14.173 H 71.219 c -10.958,0 -19.843,8.883 -19.843,19.842 v 357.167 c 0,10.958 8.885,19.842 19.843,19.842 h 282.758 c 10.958,0 19.843,-8.884 19.843,-19.842 V 34.015 c 0,-10.959 -8.885,-19.842 -19.843,-19.842 z"
   id="path3564"
   inkscape:connector-curvature="0" />
</g>
<g
   id="LWPOLYLINE_73_"
   transform="translate(-51.375999,-14.173)">
	<path
   style="fill:#ffcd00"
   d="M 353.977,24.094 H 71.219 c -5.479,0 -9.922,4.442 -9.922,9.921 v 357.167 c 0,5.479 4.442,9.921 9.922,9.921 h 282.758 c 5.48,0 9.922,-4.442 9.922,-9.921 V 34.015 c 0,-5.479 -4.441,-9.921 -9.922,-9.921 z"
   id="path3567"
   inkscape:connector-curvature="0" />
</g>
<g
   id="LWPOLYLINE_48_"
   transform="translate(-51.375999,-14.173)">
	<polygon
   style="fill:#101820"
   points="73.726,93.552 73.726,53.866 79.679,53.866 79.679,72.916 92.378,53.866 99.522,53.866 88.211,70.732 99.522,93.552 92.776,93.552 84.442,76.486 79.679,83.63 79.679,93.552 "
   id="polygon3570" />
</g>
<g
   id="LWPOLYLINE_49_"
   transform="translate(-51.375999,-14.173)">
	<path
   style="fill:#101820"
   d="m 107.459,80.654 c 0,7.123 5.774,12.898 12.897,12.898 7.123,0 12.897,-5.775 12.897,-12.898 V 53.866 h -5.952 v 26.788 c 0,3.835 -3.11,6.944 -6.945,6.944 -3.836,0 -6.945,-3.109 -6.945,-6.944 V 53.866 h -5.952 z"
   id="path3573"
   inkscape:connector-curvature="0" />
</g>
<g
   id="LWPOLYLINE_51_"
   transform="translate(-51.375999,-14.173)">
	<path
   style="fill:#101820"
   d="m 169.368,80.654 v -13.89 c 0,-7.123 -5.774,-12.897 -12.897,-12.897 -7.123,0 -12.897,5.774 -12.897,12.897 v 13.89 c 0,7.123 5.774,12.898 12.897,12.898 7.123,0 12.897,-5.775 12.897,-12.898 z"
   id="path3576"
   inkscape:connector-curvature="0" />
</g>
<g
   id="LWPOLYLINE_52_"
   transform="translate(-51.375999,-14.173)">
	<path
   style="fill:#101820"
   d="m 185.639,75.693 v 17.859 h -5.953 V 53.866 h 13.692 c 5.589,0 10.118,4.531 10.118,10.12 v 1.587 c 0,4.262 -2.669,8.067 -6.677,9.517 l 6.677,18.462 h -6.349 l -6.459,-17.859 z"
   id="path3579"
   inkscape:connector-curvature="0" />
</g>
<g
   id="LWPOLYLINE_54_"
   transform="translate(-51.375999,-14.173)">
	<polygon
   style="fill:#101820"
   points="239.214,93.552 245.167,93.552 245.167,53.866 238.42,53.866 229.293,76.486 220.166,53.866 213.418,53.866 213.418,93.552 219.372,93.552 219.372,67.756 229.293,93.552 239.214,67.756 "
   id="polygon3582" />
</g>
<g
   id="LWPOLYLINE_56_"
   transform="translate(-51.375999,-14.173)">
	<polygon
   style="fill:#101820"
   points="264.415,53.866 271.161,53.866 281.677,93.552 275.328,93.552 273.542,86.805 262.034,86.805 260.248,93.552 253.897,93.552 "
   id="polygon3585" />
</g>
<g
   id="LWPOLYLINE_57_"
   transform="translate(-51.375999,-14.173)">
	<path
   style="fill:#101820"
   d="m 290.408,80.654 c 0,7.123 5.775,12.898 12.898,12.898 7.123,0 12.896,-5.775 12.896,-12.898 V 53.866 h -5.952 v 26.788 c 0,3.835 -3.109,6.944 -6.944,6.944 -3.836,0 -6.945,-3.109 -6.945,-6.944 V 53.866 h -5.953 z"
   id="path3588"
   inkscape:connector-curvature="0" />
</g>
<g
   id="LWPOLYLINE_58_"
   transform="translate(-51.375999,-14.173)">
	<path
   style="fill:#101820"
   d="m 345.026,64.582 c -0.127,-2.569 -2.175,-4.625 -4.742,-4.763 h -2.499 c -2.598,0.165 -4.569,2.404 -4.405,5.001 0.087,1.38 0.776,2.652 1.885,3.479 l 10.587,3.879 c 2.755,1.647 4.698,4.366 5.366,7.505 1.326,6.235 -2.652,12.365 -8.889,13.692 -0.085,0.015 -0.171,0.027 -0.257,0.041 -7.708,1.14 -14.881,-4.185 -16.021,-11.892 l 5.89,-0.871 c 0.659,4.456 4.805,7.533 9.26,6.874 0.004,0 0.009,-0.001 0.013,-0.002 3.005,-0.71 4.864,-3.722 4.153,-6.726 -0.311,-1.314 -1.087,-2.473 -2.185,-3.259 l -10.615,-3.89 c -3.06,-1.849 -4.99,-5.108 -5.141,-8.68 -0.247,-5.885 4.322,-10.857 10.208,-11.104 h 2.777 c 5.809,0.21 10.443,4.913 10.571,10.723 z"
   id="path3591"
   inkscape:connector-curvature="0" />
</g>
<g
   id="LWPOLYLINE_59_"
   transform="translate(-51.375999,-14.173)">
	<polygon
   style="fill:#101820"
   points="99.297,120.008 99.297,153.741 113.186,153.741 113.186,159.693 93.344,159.693 93.344,120.008 "
   id="polygon3594" />
</g>
<g
   id="LWPOLYLINE_61_"
   transform="translate(-51.375999,-14.173)">
	<polygon
   style="fill:#101820"
   points="125.687,120.008 132.434,120.008 142.951,159.693 136.601,159.693 134.815,152.947 123.306,152.947 121.521,159.693 115.17,159.693 "
   id="polygon3597" />
</g>
<g
   id="LWPOLYLINE_62_"
   transform="translate(-51.375999,-14.173)">
	<path
   style="fill:#101820"
   d="m 167.011,130.725 c -0.127,-2.569 -2.176,-4.626 -4.743,-4.763 h -2.499 c -2.598,0.165 -4.57,2.403 -4.405,5.001 0.088,1.38 0.776,2.652 1.885,3.479 l 10.588,3.88 c 2.754,1.647 4.698,4.366 5.366,7.505 1.326,6.235 -2.653,12.365 -8.889,13.691 -0.086,0.015 -0.172,0.028 -0.258,0.041 -7.707,1.14 -14.88,-4.184 -16.02,-11.892 l 5.888,-0.871 c 0.659,4.455 4.806,7.533 9.261,6.875 0.005,-0.001 0.009,-0.001 0.014,-0.002 3.004,-0.71 4.863,-3.721 4.153,-6.726 -0.312,-1.315 -1.088,-2.473 -2.187,-3.26 l -10.614,-3.89 c -3.061,-1.849 -4.99,-5.107 -5.141,-8.68 -0.247,-5.885 4.322,-10.857 10.208,-11.104 h 2.778 c 5.807,0.21 10.443,4.913 10.57,10.723 z"
   id="path3600"
   inkscape:connector-curvature="0" />
</g>
<g
   id="LWPOLYLINE_63_"
   transform="translate(-51.375999,-14.173)">
	<polygon
   style="fill:#101820"
   points="203.669,125.961 193.748,125.961 193.748,159.693 187.795,159.693 187.795,125.961 177.874,125.961 177.874,120.008 203.669,120.008 "
   id="polygon3603" />
</g>
<g
   id="LWPOLYLINE_64_"
   transform="translate(-51.375999,-14.173)">
	<polygon
   style="fill:#101820"
   points="217.162,120.008 231.051,146.796 231.051,120.008 237.004,120.008 237.004,159.693 231.051,159.693 217.162,132.906 217.162,159.693 211.209,159.693 211.209,120.008 "
   id="polygon3606" />
</g>
<g
   id="LWPOLYLINE_65_"
   transform="translate(-51.375999,-14.173)">
	<rect
   x="250.49899"
   y="120.008"
   style="fill:#101820"
   width="5.9520001"
   height="39.685001"
   id="rect3609" />
</g>
<g
   id="LWPOLYLINE_66_"
   transform="translate(-51.375999,-14.173)">
	<polygon
   style="fill:#101820"
   points="275.897,120.008 289.786,146.796 289.786,120.008 295.739,120.008 295.739,159.693 289.786,159.693 275.897,132.906 275.897,159.693 269.944,159.693 269.944,120.008 "
   id="polygon3612" />
</g>
<g
   id="LWPOLYLINE_67_"
   transform="translate(-51.375999,-14.173)">
	<path
   style="fill:#101820"
   d="m 327.884,159.693 h 3.968 v -21.827 h -12.896 v 5.953 h 6.943 v 2.778 0.198 c 0,3.836 -3.108,6.945 -6.943,6.945 -3.837,0 -6.945,-3.109 -6.945,-6.945 v -13.89 c 0,-3.835 3.108,-6.944 6.945,-6.944 3.835,0 6.943,3.109 6.943,6.944 h 5.953 c 0,-7.123 -5.773,-12.897 -12.896,-12.897 -7.123,0 -12.898,5.774 -12.898,12.897 v 13.89 c 0.006,7.107 5.771,12.863 12.878,12.858 2.637,-0.002 5.21,-0.815 7.37,-2.328 z"
   id="path3615"
   inkscape:connector-curvature="0" />
</g>
<g
   id="LWPOLYLINE_50_"
   transform="translate(-51.375999,-14.173)">
	<path
   style="fill:#ffcd00"
   d="m 163.416,80.654 v -13.89 c 0,-3.836 -3.109,-6.945 -6.945,-6.945 -3.835,0 -6.944,3.109 -6.944,6.945 v 13.89 c 0,3.835 3.109,6.944 6.944,6.944 3.835,0 6.945,-3.109 6.945,-6.944 z"
   id="path3618"
   inkscape:connector-curvature="0" />
</g>
<g
   id="LWPOLYLINE_53_"
   transform="translate(-51.375999,-14.173)">
	<path
   style="fill:#ffcd00"
   d="m 185.639,69.74 h 7.739 c 2.301,0 4.166,-1.865 4.166,-4.167 v -1.587 c 0,-2.302 -1.865,-4.167 -4.166,-4.167 h -7.739 z"
   id="path3621"
   inkscape:connector-curvature="0" />
</g>
<g
   id="LWPOLYLINE_55_"
   transform="translate(-51.375999,-14.173)">
	<polygon
   style="fill:#ffcd00"
   points="267.788,63.787 272.153,80.852 263.422,80.852 "
   id="polygon3624" />
</g>
<g
   id="LWPOLYLINE_60_"
   transform="translate(-51.375999,-14.173)">
	<polygon
   style="fill:#ffcd00"
   points="129.061,129.93 133.426,146.994 124.696,146.994 "
   id="polygon3627" />
</g>
<g
   id="CIRCLE_1_"
   transform="translate(-51.375999,-14.173)">
	<path
   style="fill:#e4002b"
   d="m 307.842,276.082 c 0,-52.602 -42.643,-95.244 -95.244,-95.244 -52.603,0 -95.244,42.643 -95.244,95.244 0,52.603 42.642,95.245 95.244,95.245 52.602,0 95.244,-42.642 95.244,-95.245 z"
   id="path3630"
   inkscape:connector-curvature="0" />
</g>
<g
   id="LWPOLYLINE_74_"
   transform="translate(-51.375999,-14.173)">
	<path
   style="fill:#ffcd00"
   d="m 156.041,322.116 c -21.822,-26.81 -21.822,-65.258 0,-92.068 l 46.034,46.034 z"
   id="path3633"
   inkscape:connector-curvature="0" />
</g>
<g
   id="LWPOLYLINE_76_"
   transform="translate(-51.375999,-14.173)">
	<path
   style="fill:#ffcd00"
   d="m 166.565,219.524 46.033,46.034 46.033,-46.034 c -26.808,-21.821 -65.256,-21.821 -92.066,0 z"
   id="path3636"
   inkscape:connector-curvature="0" />
</g>
<g
   id="LWPOLYLINE_78_"
   transform="translate(-51.375999,-14.173)">
	<path
   style="fill:#ffcd00"
   d="m 223.122,276.082 46.035,46.034 c 21.821,-26.81 21.821,-65.258 0,-92.068 z"
   id="path3639"
   inkscape:connector-curvature="0" />
</g>
<g
   id="LWPOLYLINE_80_"
   transform="translate(-51.375999,-14.173)">
	<path
   style="fill:#ffcd00"
   d="m 212.598,286.605 -46.033,46.034 c 26.81,21.822 65.258,21.822 92.066,0 z"
   id="path3642"
   inkscape:connector-curvature="0" />
</g>
<g
   id="LWPOLYLINE_75_"
   transform="translate(-51.375999,-14.173)">
	<path
   style="fill:#005eb8"
   d="m 156.268,318.381 c -18.818,-25.06 -18.818,-59.537 0,-84.598 l 42.299,42.299 z"
   id="path3645"
   inkscape:connector-curvature="0" />
</g>
<g
   id="LWPOLYLINE_77_"
   transform="translate(-51.375999,-14.173)">
	<path
   style="fill:#005eb8"
   d="m 170.299,219.752 42.299,42.3 42.3,-42.3 c -25.061,-18.817 -59.539,-18.817 -84.599,0 z"
   id="path3648"
   inkscape:connector-curvature="0" />
</g>
<g
   id="LWPOLYLINE_79_"
   transform="translate(-51.375999,-14.173)">
	<path
   style="fill:#005eb8"
   d="m 226.629,276.082 42.299,42.299 c 18.818,-25.06 18.818,-59.537 0,-84.598 z"
   id="path3651"
   inkscape:connector-curvature="0" />
</g>
<g
   id="LWPOLYLINE_81_"
   transform="translate(-51.375999,-14.173)">
	<path
   style="fill:#005eb8"
   d="m 212.598,290.114 -42.299,42.299 c 25.06,18.817 59.538,18.817 84.599,0 z"
   id="path3654"
   inkscape:connector-curvature="0" />
</g>
</svg>