<?xml version="1.0" encoding="UTF-8" standalone="no"?>
<!-- Generator: Adobe Illustrator 16.0.0, SVG Export Plug-In . SVG Version: 6.00 Build 0)  -->

<svg
   xmlns:dc="http://purl.org/dc/elements/1.1/"
   xmlns:cc="http://creativecommons.org/ns#"
   xmlns:rdf="http://www.w3.org/1999/02/22-rdf-syntax-ns#"
   xmlns:svg="http://www.w3.org/2000/svg"
   xmlns="http://www.w3.org/2000/svg"
   xmlns:sodipodi="http://sodipodi.sourceforge.net/DTD/sodipodi-0.dtd"
   xmlns:inkscape="http://www.inkscape.org/namespaces/inkscape"
   version="1.1"
   id="Layer_1"
   x="0px"
   y="0px"
   width="396.85101"
   height="396.849"
   viewBox="0 0 396.85102 396.84899"
   xml:space="preserve"
   sodipodi:docname="C45.svg"
   inkscape:version="0.92.5 (2060ec1f9f, 2020-04-08)"><metadata
   id="metadata3797"><rdf:RDF><cc:Work
       rdf:about=""><dc:format>image/svg+xml</dc:format><dc:type
         rdf:resource="http://purl.org/dc/dcmitype/StillImage" /></cc:Work></rdf:RDF></metadata><defs
   id="defs3795" /><sodipodi:namedview
   pagecolor="#ffffff"
   bordercolor="#666666"
   borderopacity="1"
   objecttolerance="10"
   gridtolerance="10"
   guidetolerance="10"
   inkscape:pageopacity="0"
   inkscape:pageshadow="2"
   inkscape:window-width="640"
   inkscape:window-height="480"
   id="namedview3793"
   showgrid="false"
   inkscape:zoom="0.55503813"
   inkscape:cx="198.4255"
   inkscape:cy="198.42499"
   inkscape:window-x="0"
   inkscape:window-y="0"
   inkscape:window-maximized="0"
   inkscape:current-layer="Layer_1" />
<g
   id="CIRCLE_6_"
   transform="translate(-14.173,-14.174)">
	<path
   style="fill:#ffcd00"
   d="m 411.024,212.604 c 0,-109.59 -88.84,-198.43 -198.427,-198.43 -109.584,0 -198.424,88.84 -198.424,198.43 0,109.579 88.84,198.419 198.424,198.419 109.587,-0.001 198.427,-88.84 198.427,-198.419 z"
   id="path3735"
   inkscape:connector-curvature="0" />
</g>
<g
   id="CIRCLE_2_"
   transform="translate(-14.173,-14.174)">
	<path
   style="fill:#e4002b"
   d="m 404.818,212.604 c 0,-106.166 -86.062,-192.228 -192.221,-192.228 -106.164,0 -192.226,86.062 -192.226,192.228 0,106.16 86.062,192.221 192.226,192.221 106.159,-10e-4 192.221,-86.061 192.221,-192.221 z"
   id="path3738"
   inkscape:connector-curvature="0" />
</g>
<g
   id="CIRCLE_1_"
   transform="translate(-14.173,-14.174)">
	<path
   style="fill:#ffcd00"
   d="m 364.245,212.604 c 0,-83.909 -68.015,-151.924 -151.913,-151.924 -83.902,0 -151.917,68.015 -151.917,151.924 0,83.898 68.015,151.913 151.917,151.913 83.898,0 151.913,-68.015 151.913,-151.913 z"
   id="path3741"
   inkscape:connector-curvature="0" />
</g>
<g
   id="LWPOLYLINE_13_"
   transform="translate(-14.173,-14.174)">
	<path
   style="fill:#101820"
   d="m 124.83,234.258 h 175.307 c 11.961,-0.351 21.364,-10.336 21.014,-22.295 -0.334,-11.465 -9.549,-20.681 -21.014,-21.022 H 124.83 c -11.96,0.487 -21.261,10.584 -20.773,22.544 0.452,11.275 9.497,20.311 20.773,20.773 z"
   id="path3744"
   inkscape:connector-curvature="0" />
</g>
<g
   id="LWPOLYLINE_14_"
   transform="translate(-14.173,-14.174)">
	<polygon
   style="fill:#101820"
   points="265.009,298.827 272.097,298.827 272.097,278.045 288.87,278.045 288.87,298.827 295.964,298.827 295.964,249.611 288.87,249.611 288.87,270.873 272.097,270.873 272.097,249.611 265.009,249.611 "
   id="polygon3747" />
</g>
<g
   id="LWPOLYLINE_15_"
   transform="translate(-14.173,-14.174)">
	<polygon
   style="fill:#101820"
   points="231.148,274.181 222.017,249.611 229.814,249.611 238.32,270.949 238.32,249.611 245.407,249.611 245.407,270.949 253.828,249.611 261.625,249.611 251.939,274.181 261.078,298.827 253.357,298.827 245.407,278.199 245.407,298.827 238.32,298.827 238.32,278.199 229.968,298.827 221.778,298.827 "
   id="polygon3750" />
</g>
<g
   id="LWPOLYLINE_16_"
   transform="translate(-14.173,-14.174)">
	<polygon
   style="fill:#101820"
   points="154.289,298.827 146.809,298.827 146.809,249.611 157.751,249.611 166.261,275.13 174.768,249.611 185.71,249.611 185.71,298.827 178.23,298.827 178.23,262.922 166.261,298.827 154.289,262.922 "
   id="polygon3753" />
</g>
<g
   id="LWPOLYLINE_17_"
   transform="translate(-14.173,-14.174)">
	<polygon
   style="fill:#101820"
   points="123.659,249.611 131.216,249.611 144.45,298.827 136.097,298.827 133.977,291.116 119.957,291.116 117.674,298.827 110.032,298.827 "
   id="polygon3756" />
</g>
<g
   id="LWPOLYLINE_11_"
   transform="translate(-14.173,-14.174)">
	<polygon
   style="fill:#101820"
   points="104.997,257.647 117.042,257.647 117.042,249.611 84.752,249.611 84.752,257.647 96.806,257.647 96.806,298.827 104.997,298.827 "
   id="polygon3759" />
</g>
<g
   id="LWPOLYLINE_10_"
   transform="translate(-14.173,-14.174)">
	<path
   style="fill:#101820"
   d="m 311.396,249.611 h 18.824 v 49.216 h -7.326 v -21.099 h -7.01 l -7.011,21.099 h -8.112 l 7.326,-21.491 c -4.779,-1.573 -8.036,-6.002 -8.113,-11.028 v -4.805 c 0.266,-6.274 5.164,-11.37 11.422,-11.892 z"
   id="path3762"
   inkscape:connector-curvature="0" />
</g>
<g
   id="LWPOLYLINE_9_"
   transform="translate(-14.173,-14.174)">
	<path
   style="fill:#101820"
   d="m 221.941,284.97 c 0.632,-7.044 0.632,-14.131 0,-21.185 -0.992,-8.72 -8.865,-14.985 -17.586,-13.994 -7.36,0.838 -13.165,6.643 -13.994,13.994 -1.06,7.027 -1.06,14.166 0,21.185 1.137,8.72 9.131,14.866 17.85,13.729 7.156,-0.931 12.789,-6.565 13.73,-13.729 z"
   id="path3765"
   inkscape:connector-curvature="0" />
</g>
<g
   id="LWPOLYLINE_8_"
   transform="translate(-14.173,-14.174)">
	<polygon
   style="fill:#101820"
   points="254.178,175.35 254.178,165.583 232.677,165.583 232.677,113.61 222.368,113.61 222.368,175.35 "
   id="polygon3768" />
</g>
<g
   id="LWPOLYLINE_7_"
   transform="translate(-14.173,-14.174)">
	<polygon
   style="fill:#101820"
   points="134.062,123.693 149.262,123.693 149.262,113.61 108.707,113.61 108.707,123.693 123.821,123.693 123.821,175.35 134.062,175.35 "
   id="polygon3771" />
</g>
<g
   id="LWPOLYLINE_6_"
   transform="translate(-14.173,-14.174)">
	<path
   style="fill:#101820"
   d="M 161.042,156.606 V 113.61 h 9.921 v 42.996 c 0.719,5.634 5.873,9.617 11.499,8.896 4.65,-0.595 8.301,-4.249 8.898,-8.896 V 113.61 h 9.917 v 42.996 c -0.71,10.015 -8.677,17.982 -18.688,18.696 -11.113,0.787 -20.759,-7.582 -21.547,-18.696 z"
   id="path3774"
   inkscape:connector-curvature="0" />
</g>
<g
   id="LWPOLYLINE_5_"
   transform="translate(-14.173,-14.174)">
	<rect
   x="307.07901"
   y="113.61"
   style="fill:#101820"
   width="9.1820002"
   height="61.738998"
   id="rect3777" />
</g>
<g
   id="LWPOLYLINE_4_"
   transform="translate(-14.173,-14.174)">
	<polygon
   style="fill:#101820"
   points="296.538,175.35 296.538,165.583 275.038,165.583 275.038,113.61 264.719,113.61 264.719,175.35 "
   id="polygon3780" />
</g>
<g
   id="LWPOLYLINE_3_"
   transform="translate(-14.173,-14.174)">
	<path
   style="fill:#ffcd00"
   d="m 307.224,262.29 c 0.085,-2.497 1.94,-4.583 4.411,-4.959 h 11.259 v 13.226 h -11.259 c -2.582,-0.462 -4.454,-2.728 -4.411,-5.352 z"
   id="path3783"
   inkscape:connector-curvature="0" />
</g>
<g
   id="LWPOLYLINE_2_"
   transform="translate(-14.173,-14.174)">
	<polygon
   style="fill:#ffcd00"
   points="127.284,265.521 122.163,283.474 132.165,283.474 "
   id="polygon3786" />
</g>
<g
   id="LWPOLYLINE_1_"
   transform="translate(-14.173,-14.174)">
	<path
   style="fill:#ffcd00"
   d="m 214.452,284.97 c 0.743,-7.044 0.743,-14.14 0,-21.185 -1.026,-4.564 -5.557,-7.438 -10.122,-6.411 -3.197,0.718 -5.693,3.214 -6.411,6.411 -0.847,7.036 -0.847,14.148 0,21.185 0.812,4.565 5.172,7.617 9.737,6.805 3.47,-0.616 6.18,-3.335 6.796,-6.805 z"
   id="path3789"
   inkscape:connector-curvature="0" />
</g>
</svg>