<?xml version="1.0" encoding="iso-8859-1"?>
<!-- Generator: Adobe Illustrator 16.0.0, SVG Export Plug-In . SVG Version: 6.00 Build 0)  -->
<!DOCTYPE svg PUBLIC "-//W3C//DTD SVG 1.1//EN" "http://www.w3.org/Graphics/SVG/1.1/DTD/svg11.dtd">
<svg version="1.1" id="Layer_1" xmlns="http://www.w3.org/2000/svg" xmlns:xlink="http://www.w3.org/1999/xlink" x="0px" y="0px"
	 width="425.197px" height="425.196px" viewBox="0 0 425.197 425.196" style="enable-background:new 0 0 425.197 425.196;"
	 xml:space="preserve">
<g id="CIRCLE_6_">
	<path style="fill:#FFCD00;" d="M411.024,212.604c0-109.59-88.84-198.43-198.427-198.43c-109.584,0-198.424,88.84-198.424,198.43
		c0,109.579,88.84,198.419,198.424,198.419C322.184,411.022,411.024,322.183,411.024,212.604L411.024,212.604z"/>
</g>
<g id="CIRCLE_2_">
	<path style="fill:#E4002B;" d="M404.818,212.604c0-106.166-86.062-192.228-192.221-192.228
		c-106.164,0-192.226,86.062-192.226,192.228c0,106.16,86.062,192.221,192.226,192.221
		C318.756,404.824,404.818,318.764,404.818,212.604L404.818,212.604z"/>
</g>
<g id="CIRCLE_1_">
	<path style="fill:#FFCD00;" d="M364.245,212.604c0-83.909-68.015-151.924-151.913-151.924
		c-83.902,0-151.917,68.015-151.917,151.924c0,83.898,68.015,151.913,151.917,151.913
		C296.23,364.517,364.245,296.502,364.245,212.604L364.245,212.604z"/>
</g>
<g id="LWPOLYLINE_13_">
	<path style="fill:#101820;" d="M124.83,234.258h175.307c11.961-0.351,21.364-10.336,21.014-22.295
		c-0.334-11.465-9.549-20.681-21.014-21.022H124.83c-11.96,0.487-21.261,10.584-20.773,22.544
		C104.509,224.76,113.554,233.796,124.83,234.258z"/>
</g>
<g id="LWPOLYLINE_14_">
	<polygon style="fill:#101820;" points="272.097,249.611 265.009,249.611 265.009,298.827 272.097,298.827 272.097,278.045 
		288.87,278.045 288.87,298.827 295.964,298.827 295.964,249.611 288.87,249.611 288.87,270.873 272.097,270.873 	"/>
</g>
<g id="LWPOLYLINE_15_">
	<polygon style="fill:#101820;" points="229.968,298.827 221.778,298.827 231.148,274.181 222.017,249.611 229.814,249.611 
		238.32,270.949 238.32,249.611 245.407,249.611 245.407,270.949 253.828,249.611 261.625,249.611 251.939,274.181 261.078,298.827 
		253.357,298.827 245.407,278.199 245.407,298.827 238.32,298.827 238.32,278.199 	"/>
</g>
<g id="LWPOLYLINE_16_">
	<polygon style="fill:#101820;" points="166.261,298.827 154.289,262.922 154.289,298.827 146.809,298.827 146.809,249.611 
		157.751,249.611 166.261,275.13 174.768,249.611 185.71,249.611 185.71,298.827 178.23,298.827 178.23,262.922 	"/>
</g>
<g id="LWPOLYLINE_17_">
	<polygon style="fill:#101820;" points="117.674,298.827 110.032,298.827 123.659,249.611 131.216,249.611 144.45,298.827 
		136.097,298.827 133.977,291.116 119.957,291.116 	"/>
</g>
<g id="LWPOLYLINE_11_">
	<polygon style="fill:#101820;" points="96.806,298.827 104.997,298.827 104.997,257.647 117.042,257.647 117.042,249.611 
		84.752,249.611 84.752,257.647 96.806,257.647 	"/>
</g>
<g id="LWPOLYLINE_10_">
	<path style="fill:#101820;" d="M311.396,249.611h18.824v49.216h-7.326v-21.099h-7.01l-7.011,21.099h-8.112l7.326-21.491
		c-4.779-1.573-8.036-6.002-8.113-11.028v-4.805C300.24,255.229,305.138,250.133,311.396,249.611z"/>
</g>
<g id="LWPOLYLINE_9_">
	<path style="fill:#101820;" d="M221.941,284.97c0.632-7.044,0.632-14.131,0-21.185c-0.992-8.72-8.865-14.985-17.586-13.994
		c-7.36,0.838-13.165,6.643-13.994,13.994c-1.06,7.027-1.06,14.166,0,21.185c1.137,8.72,9.131,14.866,17.85,13.729
		C215.367,297.768,221,292.134,221.941,284.97z"/>
</g>
<g id="LWPOLYLINE_8_">
	<polygon style="fill:#101820;" points="222.368,113.61 222.368,175.35 254.178,175.35 254.178,165.583 232.677,165.583 
		232.677,113.61 	"/>
</g>
<g id="LWPOLYLINE_7_">
	<polygon style="fill:#101820;" points="123.821,175.35 134.062,175.35 134.062,123.693 149.262,123.693 149.262,113.61 
		108.707,113.61 108.707,123.693 123.821,123.693 	"/>
</g>
<g id="LWPOLYLINE_6_">
	<path style="fill:#101820;" d="M161.042,156.606V113.61h9.921v42.996c0.719,5.634,5.873,9.617,11.499,8.896
		c4.65-0.595,8.301-4.249,8.898-8.896V113.61h9.917v42.996c-0.71,10.015-8.677,17.982-18.688,18.696
		C171.476,176.089,161.83,167.72,161.042,156.606z"/>
</g>
<g id="LWPOLYLINE_5_">
	<rect x="307.079" y="113.61" style="fill:#101820;" width="9.182" height="61.739"/>
</g>
<g id="LWPOLYLINE_4_">
	<polygon style="fill:#101820;" points="264.719,113.61 264.719,175.35 296.538,175.35 296.538,165.583 275.038,165.583 
		275.038,113.61 	"/>
</g>
<g id="LWPOLYLINE_3_">
	<path style="fill:#FFCD00;" d="M307.224,262.29c0.085-2.497,1.94-4.583,4.411-4.959h11.259v13.226h-11.259
		c-2.582-0.462-4.454-2.728-4.411-5.352V262.29z"/>
</g>
<g id="LWPOLYLINE_2_">
	<polygon style="fill:#FFCD00;" points="122.163,283.474 132.165,283.474 127.284,265.521 	"/>
</g>
<g id="LWPOLYLINE_1_">
	<path style="fill:#FFCD00;" d="M214.452,284.97c0.743-7.044,0.743-14.14,0-21.185c-1.026-4.564-5.557-7.438-10.122-6.411
		c-3.197,0.718-5.693,3.214-6.411,6.411c-0.847,7.036-0.847,14.148,0,21.185c0.812,4.565,5.172,7.617,9.737,6.805
		C211.126,291.159,213.836,288.44,214.452,284.97z"/>
</g>
</svg>
