<?xml version="1.0" encoding="iso-8859-1"?>
<!-- Generator: Adobe Illustrator 16.0.0, SVG Export Plug-In . SVG Version: 6.00 Build 0)  -->
<!DOCTYPE svg PUBLIC "-//W3C//DTD SVG 1.1//EN" "http://www.w3.org/Graphics/SVG/1.1/DTD/svg11.dtd">
<svg version="1.1" id="Layer_1" xmlns="http://www.w3.org/2000/svg" xmlns:xlink="http://www.w3.org/1999/xlink" x="0px" y="0px"
	 width="425.197px" height="425.196px" viewBox="0 0 425.197 425.196" style="enable-background:new 0 0 425.197 425.196;"
	 xml:space="preserve">
<g id="CIRCLE_3_">
	<path style="fill:#FFCD00;" d="M411.025,212.601c0-109.588-88.84-198.428-198.428-198.428
		c-109.585,0-198.425,88.84-198.425,198.428c0,109.583,88.84,198.423,198.425,198.423
		C322.185,411.023,411.025,322.184,411.025,212.601L411.025,212.601z"/>
</g>
<g id="CIRCLE_4_">
	<path style="fill:#E4002B;" d="M404.818,212.601c0-106.164-86.062-192.226-192.221-192.226
		c-106.162,0-192.223,86.062-192.223,192.226c0,106.159,86.062,192.221,192.223,192.221
		C318.756,404.821,404.818,318.76,404.818,212.601L404.818,212.601z"/>
</g>
<g id="CIRCLE_5_">
	<path style="fill:#FFCD00;" d="M364.246,212.601c0-83.907-68.016-151.922-151.913-151.922c-83.907,0-151.92,68.015-151.92,151.922
		c0,83.898,68.013,151.917,151.92,151.917C296.23,364.518,364.246,296.499,364.246,212.601L364.246,212.601z"/>
</g>
<g id="LWPOLYLINE_2_">
	<path style="fill:#101820;" d="M124.826,234.255h175.311c11.96-0.351,21.363-10.336,21.013-22.296
		c-0.333-11.464-9.549-20.68-21.013-21.018H124.826c-11.96,0.487-21.259,10.579-20.771,22.539
		C104.512,224.757,113.55,233.793,124.826,234.255z"/>
</g>
<g id="LWPOLYLINE_12_">
	<polygon style="fill:#101820;" points="222.369,113.609 222.369,175.349 254.179,175.349 254.179,165.582 232.678,165.582 
		232.678,113.609 	"/>
</g>
<g id="LWPOLYLINE_13_">
	<polygon style="fill:#101820;" points="123.826,175.349 134.059,175.349 134.059,123.692 149.259,123.692 149.259,113.609 
		108.705,113.609 108.705,123.692 123.826,123.692 	"/>
</g>
<g id="LWPOLYLINE_14_">
	<path style="fill:#101820;" d="M161.039,156.605v-42.997h9.925v42.997c0.718,5.634,5.873,9.617,11.498,8.895
		c4.65-0.594,8.301-4.249,8.899-8.895v-42.997h9.917v42.997c-0.71,10.015-8.678,17.982-18.688,18.696
		C171.477,176.088,161.834,167.719,161.039,156.605z"/>
</g>
<g id="LWPOLYLINE_15_">
	<rect x="307.079" y="113.609" style="fill:#101820;" width="9.182" height="61.74"/>
</g>
<g id="LWPOLYLINE_16_">
	<polygon style="fill:#101820;" points="264.719,113.609 264.719,175.349 296.539,175.349 296.539,165.582 275.038,165.582 
		275.038,113.609 	"/>
</g>
<g id="LWPOLYLINE_17_">
	<polygon style="fill:#101820;" points="232.285,249.608 232.285,311.348 264.104,311.348 264.104,301.585 242.603,301.585 
		242.603,249.608 	"/>
</g>
<g id="LWPOLYLINE_18_">
	<polygon style="fill:#101820;" points="133.743,311.348 143.984,311.348 143.984,259.688 159.184,259.688 159.184,249.608 
		118.628,249.608 118.628,259.688 133.743,259.688 	"/>
</g>
<g id="LWPOLYLINE_19_">
	<path style="fill:#101820;" d="M170.964,292.609v-43.001h9.917v43.001c0.727,5.634,5.873,9.612,11.506,8.891
		c4.643-0.59,8.302-4.249,8.892-8.891v-43.001h9.925v43.001c-0.71,10.011-8.677,17.978-18.688,18.688
		C181.402,312.088,171.75,303.723,170.964,292.609z"/>
</g>
<g id="LWPOLYLINE_20_">
	<polygon style="fill:#101820;" points="274.645,249.608 274.645,311.348 306.455,311.348 306.455,301.585 284.955,301.585 
		284.955,249.608 	"/>
</g>
</svg>
