<?xml version="1.0" encoding="UTF-8" standalone="no"?>
<!-- Generator: Adobe Illustrator 16.0.0, SVG Export Plug-In . SVG Version: 6.00 Build 0)  -->

<svg
   xmlns:dc="http://purl.org/dc/elements/1.1/"
   xmlns:cc="http://creativecommons.org/ns#"
   xmlns:rdf="http://www.w3.org/1999/02/22-rdf-syntax-ns#"
   xmlns:svg="http://www.w3.org/2000/svg"
   xmlns="http://www.w3.org/2000/svg"
   xmlns:sodipodi="http://sodipodi.sourceforge.net/DTD/sodipodi-0.dtd"
   xmlns:inkscape="http://www.inkscape.org/namespaces/inkscape"
   version="1.1"
   id="Layer_1"
   x="0px"
   y="0px"
   width="396.853"
   height="396.85101"
   viewBox="0 0 396.85301 396.851"
   xml:space="preserve"
   sodipodi:docname="C46.svg"
   inkscape:version="0.92.5 (2060ec1f9f, 2020-04-08)"><metadata
   id="metadata3959"><rdf:RDF><cc:Work
       rdf:about=""><dc:format>image/svg+xml</dc:format><dc:type
         rdf:resource="http://purl.org/dc/dcmitype/StillImage" /></cc:Work></rdf:RDF></metadata><defs
   id="defs3957" /><sodipodi:namedview
   pagecolor="#ffffff"
   bordercolor="#666666"
   borderopacity="1"
   objecttolerance="10"
   gridtolerance="10"
   guidetolerance="10"
   inkscape:pageopacity="0"
   inkscape:pageshadow="2"
   inkscape:window-width="640"
   inkscape:window-height="480"
   id="namedview3955"
   showgrid="false"
   inkscape:zoom="0.55503813"
   inkscape:cx="198.4265"
   inkscape:cy="198.42599"
   inkscape:window-x="0"
   inkscape:window-y="0"
   inkscape:window-maximized="0"
   inkscape:current-layer="Layer_1" />
<g
   id="CIRCLE_2_"
   transform="translate(-14.172,-14.173)">
	<path
   style="fill:#ffcd00"
   d="m 411.025,212.599 c 0,-109.588 -88.842,-198.426 -198.425,-198.426 -109.59,0 -198.428,88.838 -198.428,198.426 0,109.592 88.838,198.425 198.428,198.425 109.583,-10e-4 198.425,-88.834 198.425,-198.425 z"
   id="path3894"
   inkscape:connector-curvature="0" />
</g>
<g
   id="CIRCLE_3_"
   transform="translate(-14.172,-14.173)">
	<path
   style="fill:#e4002b"
   d="m 404.821,212.599 c 0,-106.165 -86.056,-192.226 -192.221,-192.226 -106.163,0 -192.229,86.061 -192.229,192.226 0,106.165 86.065,192.23 192.229,192.23 106.165,0 192.221,-86.065 192.221,-192.23 z"
   id="path3897"
   inkscape:connector-curvature="0" />
</g>
<g
   id="CIRCLE_4_"
   transform="translate(-14.172,-14.173)">
	<path
   style="fill:#ffcd00"
   d="m 364.485,212.599 c 0,-83.883 -68.002,-151.89 -151.885,-151.89 -83.89,0 -151.893,68.007 -151.893,151.89 0,83.888 68.003,151.894 151.893,151.894 83.883,-10e-4 151.885,-68.007 151.885,-151.894 z"
   id="path3900"
   inkscape:connector-curvature="0" />
</g>
<g
   id="LWPOLYLINE_17_"
   transform="translate(-14.172,-14.173)">
	<rect
   x="306.564"
   y="125.601"
   style="fill:#101820"
   width="7.4390001"
   height="49.610001"
   id="rect3903" />
</g>
<g
   id="LWPOLYLINE_18_"
   transform="translate(-14.172,-14.173)">
	<path
   style="fill:#101820"
   d="m 279.89,175.211 c 7.737,0.01 14.022,-6.263 14.031,-14.004 0,-5.186 -2.858,-9.956 -7.439,-12.391 l -13.608,-5.176 c -1.253,-1.028 -2.028,-2.517 -2.146,-4.131 -0.253,-3.26 2.191,-6.1 5.456,-6.348 h 3.472 c 3.192,0.189 5.717,2.759 5.861,5.956 l 7.35,0.009 c -0.163,-7.264 -5.952,-13.144 -13.211,-13.405 h -3.472 c -7.359,0.307 -13.076,6.524 -12.761,13.879 0.181,4.468 2.598,8.539 6.421,10.853 l 13.273,4.865 c 1.335,0.979 2.291,2.394 2.697,4.004 0.965,3.814 -1.344,7.691 -5.158,8.657 -5.618,0.753 -10.795,-3.166 -11.598,-8.774 h -7.268 c 0,8.909 7.223,16.123 16.123,16.123 0.66,0 1.319,-0.035 1.977,-0.117 z"
   id="path3906"
   inkscape:connector-curvature="0" />
</g>
<g
   id="LWPOLYLINE_19_"
   transform="translate(-14.172,-14.173)">
	<rect
   x="243.007"
   y="125.601"
   style="fill:#101820"
   width="7.4390001"
   height="49.610001"
   id="rect3909" />
</g>
<g
   id="LWPOLYLINE_20_"
   transform="translate(-14.172,-14.173)">
	<rect
   x="220.05701"
   y="125.601"
   style="fill:#101820"
   width="7.4489999"
   height="49.610001"
   id="rect3912" />
</g>
<g
   id="LWPOLYLINE_21_"
   transform="translate(-14.172,-14.173)">
	<polygon
   style="fill:#101820"
   points="194.943,125.601 194.943,167.768 212.311,167.768 212.311,175.211 187.503,175.211 187.503,125.601 "
   id="polygon3915" />
</g>
<g
   id="LWPOLYLINE_22_"
   transform="translate(-14.172,-14.173)">
	<path
   style="fill:#101820"
   d="m 174.175,159.088 v -17.364 c 0,-8.904 -7.224,-16.123 -16.124,-16.123 -8.907,0 -16.121,7.219 -16.121,16.123 v 17.364 c 0,8.9 7.214,16.123 16.121,16.123 8.901,0 16.124,-7.223 16.124,-16.123 z"
   id="path3918"
   inkscape:connector-curvature="0" />
</g>
<g
   id="LWPOLYLINE_23_"
   transform="translate(-14.172,-14.173)">
	<path
   style="fill:#101820"
   d="m 113.091,152.884 h 9.677 c 6.983,0 12.646,-5.663 12.646,-12.647 v -1.984 c 0,-6.984 -5.663,-12.651 -12.646,-12.651 h -17.116 v 49.61 h 7.439 z"
   id="path3921"
   inkscape:connector-curvature="0" />
</g>
<g
   id="LWPOLYLINE_26_"
   transform="translate(-14.172,-14.173)">
	<path
   style="fill:#101820"
   d="m 129.139,191.673 c -11.764,1.259 -20.272,11.818 -19.015,23.577 1.078,10.019 8.991,17.937 19.015,19.01 h 170.075 c 11.76,-0.568 20.831,-10.561 20.263,-22.324 -0.531,-10.961 -9.297,-19.734 -20.263,-20.263 z"
   id="path3924"
   inkscape:connector-curvature="0" />
</g>
<g
   id="LWPOLYLINE_28_"
   transform="translate(-14.172,-14.173)">
	<path
   style="fill:#101820"
   d="m 136.993,277.053 h 9.672 c 6.984,0 12.649,-5.663 12.649,-12.647 v -1.983 c 0,-6.989 -5.665,-12.652 -12.649,-12.652 H 129.55 v 49.602 h 7.443 z"
   id="path3927"
   inkscape:connector-curvature="0" />
</g>
<g
   id="LWPOLYLINE_30_"
   transform="translate(-14.172,-14.173)">
	<path
   style="fill:#101820"
   d="m 198,283.252 v -17.358 c 0,-8.905 -7.215,-16.124 -16.124,-16.124 -8.9,0 -16.114,7.219 -16.114,16.124 v 17.358 c 0,8.9 7.214,16.119 16.114,16.119 8.91,0 16.124,-7.219 16.124,-16.119 z"
   id="path3930"
   inkscape:connector-curvature="0" />
</g>
<g
   id="LWPOLYLINE_31_"
   transform="translate(-14.172,-14.173)">
	<polygon
   style="fill:#101820"
   points="218.335,249.77 218.335,291.932 235.694,291.932 235.694,299.371 210.895,299.371 210.895,249.77 "
   id="polygon3933" />
</g>
<g
   id="LWPOLYLINE_32_"
   transform="translate(-14.172,-14.173)">
	<rect
   x="244.125"
   y="249.77"
   style="fill:#101820"
   width="7.4390001"
   height="49.602001"
   id="rect3936" />
</g>
<g
   id="LWPOLYLINE_33_"
   transform="translate(-14.172,-14.173)">
	<path
   style="fill:#101820"
   d="m 287.591,263.165 c -0.153,-3.21 -2.715,-5.78 -5.925,-5.956 h -3.129 c -3.247,0.208 -5.709,3.008 -5.501,6.254 0.108,1.727 0.965,3.314 2.354,4.352 l 13.229,4.847 c 3.445,2.061 5.88,5.456 6.71,9.383 1.659,7.791 -3.319,15.452 -11.11,17.106 -0.108,0.019 -0.216,0.036 -0.315,0.055 -9.64,1.424 -18.604,-5.23 -20.028,-14.861 l 7.358,-1.092 c 0.83,5.568 6.006,9.415 11.578,8.594 3.77,-0.893 6.097,-4.652 5.204,-8.413 -0.388,-1.642 -1.353,-3.089 -2.732,-4.071 l -13.266,-4.86 c -3.823,-2.313 -6.231,-6.385 -6.42,-10.849 -0.316,-7.354 5.401,-13.571 12.751,-13.883 h 3.48 c 7.25,0.266 13.049,6.141 13.211,13.405 z"
   id="path3939"
   inkscape:connector-curvature="0" />
</g>
<g
   id="LWPOLYLINE_24_"
   transform="translate(-14.172,-14.173)">
	<path
   style="fill:#ffcd00"
   d="m 166.736,159.088 v -17.364 c 0,-4.793 -3.887,-8.679 -8.685,-8.679 -4.795,0 -8.682,3.886 -8.682,8.679 v 17.364 c 0,4.793 3.887,8.68 8.682,8.68 4.798,0 8.685,-3.887 8.685,-8.68 z"
   id="path3942"
   inkscape:connector-curvature="0" />
</g>
<g
   id="LWPOLYLINE_25_"
   transform="translate(-14.172,-14.173)">
	<path
   style="fill:#ffcd00"
   d="m 113.091,145.443 h 9.677 c 2.876,0 5.207,-2.331 5.207,-5.207 v -1.984 c 0,-2.876 -2.331,-5.207 -5.207,-5.207 h -9.677 z"
   id="path3945"
   inkscape:connector-curvature="0" />
</g>
<g
   id="LWPOLYLINE_27_"
   transform="translate(-14.172,-14.173)">
	<path
   style="fill:#ffcd00"
   d="m 136.993,269.613 h 9.672 c 2.877,0 5.208,-2.331 5.208,-5.208 v -1.983 c 0,-2.877 -2.331,-5.213 -5.208,-5.213 h -9.672 z"
   id="path3948"
   inkscape:connector-curvature="0" />
</g>
<g
   id="LWPOLYLINE_29_"
   transform="translate(-14.172,-14.173)">
	<path
   style="fill:#ffcd00"
   d="m 190.56,283.252 v -17.358 c 0,-4.798 -3.887,-8.685 -8.684,-8.685 -4.788,0 -8.675,3.887 -8.675,8.685 v 17.358 c 0,4.793 3.887,8.68 8.675,8.68 4.797,0 8.684,-3.887 8.684,-8.68 z"
   id="path3951"
   inkscape:connector-curvature="0" />
</g>
</svg>