<?xml version="1.0" encoding="iso-8859-1"?>
<!-- Generator: Adobe Illustrator 16.0.0, SVG Export Plug-In . SVG Version: 6.00 Build 0)  -->
<!DOCTYPE svg PUBLIC "-//W3C//DTD SVG 1.1//EN" "http://www.w3.org/Graphics/SVG/1.1/DTD/svg11.dtd">
<svg version="1.1" id="Layer_1" xmlns="http://www.w3.org/2000/svg" xmlns:xlink="http://www.w3.org/1999/xlink" x="0px" y="0px"
	 width="425.197px" height="425.196px" viewBox="0 0 425.197 425.196" style="enable-background:new 0 0 425.197 425.196;"
	 xml:space="preserve">
<g id="CIRCLE_2_">
	<path style="fill:#FFCD00;" d="M411.025,212.598c0-109.587-88.846-198.424-198.428-198.424
		c-109.591,0-198.425,88.837-198.425,198.424c0,109.584,88.834,198.425,198.425,198.425
		C322.179,411.022,411.025,322.182,411.025,212.598L411.025,212.598z"/>
</g>
<g id="CIRCLE_3_">
	<path style="fill:#E4002B;" d="M404.819,212.598c0-106.161-86.059-192.225-192.222-192.225S20.374,106.437,20.374,212.598
		c0,106.165,86.061,192.224,192.224,192.224S404.819,318.763,404.819,212.598L404.819,212.598z"/>
</g>
<g id="CIRCLE_4_">
	<path style="fill:#FFCD00;" d="M364.482,212.598c0-83.886-67.997-151.888-151.885-151.888S60.71,128.712,60.71,212.598
		c0,83.885,67.999,151.887,151.887,151.887S364.482,296.482,364.482,212.598L364.482,212.598z"/>
</g>
<g id="LWPOLYLINE_30_">
	<path style="fill:#101820;" d="M129.137,191.67c-11.762,1.262-20.275,11.817-19.01,23.577c1.077,10.021,8.992,17.936,19.01,19.013
		h170.074c11.762-0.573,20.831-10.565,20.259-22.327c-0.53-10.962-9.292-19.732-20.259-20.263H129.137z"/>
</g>
<g id="LWPOLYLINE_51_">
	<polygon style="fill:#101820;" points="102.237,280.793 102.237,290.094 96.656,290.094 96.656,252.894 102.237,252.894 
		102.237,270.75 114.144,252.894 120.837,252.894 110.238,268.698 120.837,290.094 114.512,290.094 106.699,274.092 	"/>
</g>
<g id="LWPOLYLINE_53_">
	<path style="fill:#101820;" d="M149.857,277.998V264.98c0-6.676-5.419-12.087-12.095-12.087s-12.086,5.411-12.086,12.087v13.018
		c0,6.681,5.411,12.096,12.086,12.096S149.857,284.679,149.857,277.998z"/>
</g>
<g id="LWPOLYLINE_54_">
	<polygon style="fill:#101820;" points="159.524,290.094 159.524,252.894 165.106,252.894 178.124,277.998 178.124,252.894 
		183.706,252.894 183.706,290.094 178.124,290.094 165.106,264.98 165.106,290.094 	"/>
</g>
<g id="LWPOLYLINE_55_">
	<polygon style="fill:#101820;" points="190.775,252.894 214.957,252.894 214.957,258.471 205.657,258.471 205.657,290.094 
		200.075,290.094 200.075,258.471 190.775,258.471 	"/>
</g>
<g id="LWPOLYLINE_56_">
	<path style="fill:#101820;" d="M227.598,273.349v16.745h-5.581v-37.2h12.839c5.239,0,9.487,4.244,9.487,9.483v1.487
		c0,3.996-2.504,7.561-6.266,8.92l6.266,17.31h-5.957l-6.053-16.745H227.598z"/>
</g>
<g id="LWPOLYLINE_59_">
	<path style="fill:#101820;" d="M275.218,277.998V264.98c0-6.676-5.411-12.087-12.096-12.087c-6.676,0-12.086,5.411-12.086,12.087
		v13.018c0,6.681,5.41,12.096,12.086,12.096C269.807,290.094,275.218,284.679,275.218,277.998z"/>
</g>
<g id="LWPOLYLINE_60_">
	<polygon style="fill:#101820;" points="284.885,290.094 284.885,252.894 290.467,252.894 290.467,284.512 303.486,284.512 
		303.486,290.094 	"/>
</g>
<g id="LWPOLYLINE_61_">
	<polygon style="fill:#101820;" points="309.811,290.094 309.811,252.894 315.392,252.894 315.392,284.512 328.411,284.512 
		328.411,290.094 	"/>
</g>
<g id="LWPOLYLINE_64_">
	<path style="fill:#101820;" d="M130.265,173.87h3.727v-20.464h-12.095v5.582h6.514v2.603v0.188c0,3.594-2.915,6.509-6.514,6.509
		s-6.513-2.915-6.513-6.509v-13.022c0-3.597,2.915-6.512,6.513-6.512s6.514,2.915,6.514,6.512h5.582
		c0-6.679-5.419-12.091-12.095-12.091s-12.095,5.412-12.095,12.091v13.022c0.008,6.66,5.411,12.059,12.078,12.052
		c2.47-0.002,4.881-0.763,6.907-2.182L130.265,173.87z"/>
</g>
<g id="LWPOLYLINE_65_">
	<path style="fill:#101820;" d="M150.729,157.127v16.743h-5.582v-37.204h12.839c5.24,0,9.488,4.246,9.488,9.485v1.489
		c0,3.994-2.504,7.563-6.257,8.92l6.257,17.31h-5.949l-6.06-16.743H150.729z"/>
</g>
<g id="LWPOLYLINE_66_">
	<polygon style="fill:#101820;" points="176.774,173.87 197.237,173.87 197.237,168.288 182.355,168.288 182.355,157.127 
		192.399,157.127 192.399,151.547 182.355,151.547 182.355,142.245 197.237,142.245 197.237,136.666 176.774,136.666 	"/>
</g>
<g id="LWPOLYLINE_67_">
	<polygon style="fill:#101820;" points="207.281,173.87 207.281,136.666 212.862,136.666 225.88,161.779 225.88,136.666 
		231.462,136.666 231.462,173.87 225.88,173.87 212.862,148.757 212.862,173.87 	"/>
</g>
<g id="LWPOLYLINE_68_">
	<path style="fill:#101820;" d="M258.558,146.711c-0.119-2.408-2.043-4.336-4.453-4.466h-2.342
		c-2.437,0.154-4.282,2.255-4.129,4.688c0.086,1.295,0.727,2.487,1.77,3.263l9.924,3.638c2.582,1.543,4.402,4.092,5.035,7.034
		c1.239,5.847-2.488,11.593-8.334,12.837c-0.086,0.013-0.163,0.025-0.248,0.036c-7.223,1.071-13.95-3.921-15.019-11.146l5.521-0.816
		c0.624,4.175,4.505,7.06,8.685,6.442c2.829-0.667,4.573-3.489,3.906-6.306c-0.29-1.233-1.017-2.319-2.051-3.057l-9.95-3.647
		c-2.872-1.733-4.676-4.789-4.821-8.138c-0.23-5.518,4.052-10.178,9.574-10.408h2.599c5.444,0.196,9.796,4.604,9.915,10.052
		L258.558,146.711z"/>
</g>
<g id="LWPOLYLINE_69_">
	<polygon style="fill:#101820;" points="273.893,173.87 294.357,173.87 294.357,168.288 279.475,168.288 279.475,157.127 
		289.518,157.127 289.518,151.547 279.475,151.547 279.475,142.245 294.357,142.245 294.357,136.666 273.893,136.666 	"/>
</g>
<g id="LWPOLYLINE_71_">
	<rect x="306.452" y="152.477" style="fill:#101820;" width="12.086" height="5.58"/>
</g>
<g id="LWPOLYLINE_52_">
	<path style="fill:#FFCD00;" d="M144.275,277.998V264.98c0-3.595-2.915-6.51-6.513-6.51c-3.59,0-6.505,2.915-6.505,6.51v13.018
		c0,3.599,2.915,6.514,6.505,6.514C141.36,284.512,144.275,281.597,144.275,277.998z"/>
</g>
<g id="LWPOLYLINE_57_">
	<path style="fill:#FFCD00;" d="M227.598,267.771h7.258c2.153,0,3.906-1.748,3.906-3.906v-1.487c0-2.158-1.753-3.906-3.906-3.906
		h-7.258V267.771z"/>
</g>
<g id="LWPOLYLINE_58_">
	<path style="fill:#FFCD00;" d="M269.636,277.998V264.98c0-3.595-2.915-6.51-6.514-6.51c-3.59,0-6.504,2.915-6.504,6.51v13.018
		c0,3.599,2.914,6.514,6.504,6.514C266.721,284.512,269.636,281.597,269.636,277.998z"/>
</g>
<g id="LWPOLYLINE_70_">
	<path style="fill:#FFCD00;" d="M150.729,151.547h7.257c2.154,0,3.906-1.75,3.906-3.906v-1.489c0-2.156-1.752-3.906-3.906-3.906
		h-7.257V151.547z"/>
</g>
</svg>
