<?xml version="1.0" encoding="iso-8859-1"?>
<!-- Generator: Adobe Illustrator 16.0.0, SVG Export Plug-In . SVG Version: 6.00 Build 0)  -->
<!DOCTYPE svg PUBLIC "-//W3C//DTD SVG 1.1//EN" "http://www.w3.org/Graphics/SVG/1.1/DTD/svg11.dtd">
<svg version="1.1" id="Layer_1" xmlns="http://www.w3.org/2000/svg" xmlns:xlink="http://www.w3.org/1999/xlink" x="0px" y="0px"
	 width="425.197px" height="425.196px" viewBox="0 0 425.197 425.196" style="enable-background:new 0 0 425.197 425.196;"
	 xml:space="preserve">
<g id="CIRCLE_5_">
	<path style="fill:#FFCD00;" d="M411.025,212.601c0-109.588-88.84-198.428-198.428-198.428
		c-109.585,0-198.425,88.84-198.425,198.428c0,109.583,88.84,198.423,198.425,198.423
		C322.185,411.023,411.025,322.184,411.025,212.601L411.025,212.601z"/>
</g>
<g id="CIRCLE_6_">
	<path style="fill:#E4002B;" d="M404.818,212.601c0-106.164-86.062-192.226-192.221-192.226
		c-106.162,0-192.223,86.062-192.223,192.226c0,106.159,86.062,192.221,192.223,192.221
		C318.756,404.821,404.818,318.76,404.818,212.601L404.818,212.601z"/>
</g>
<g id="CIRCLE_7_">
	<path style="fill:#FFCD00;" d="M364.519,212.601c0-83.907-68.023-151.922-151.922-151.922
		c-83.905,0-151.919,68.015-151.919,151.922c0,83.898,68.019,151.917,151.919,151.917
		C296.496,364.518,364.519,296.499,364.519,212.601L364.519,212.601z"/>
</g>
<g id="LWPOLYLINE_9_">
	<path style="fill:#101820;" d="M112.454,190.501c0,14.127,11.451,25.578,25.578,25.578s25.581-11.451,25.581-25.578v-10.232
		c0-14.123-11.454-25.578-25.581-25.578c-3.564,0-7.095,0.748-10.356,2.193l1.987-19.863h25.578l-0.932-13.952h-37.205
		l-4.651,46.506l16.277,3.719c2.197-2.924,5.642-4.651,9.301-4.651c6.42,0,11.626,5.207,11.626,11.627v10.232
		c0,6.421-5.206,11.627-11.626,11.627c-6.42,0-11.626-5.206-11.626-11.627H112.454z"/>
</g>
<g id="LWPOLYLINE_10_">
	<path style="fill:#101820;" d="M184.078,190.501c0,14.127,11.447,25.578,25.579,25.578c14.122,0,25.578-11.451,25.578-25.578
		v-41.854c0-14.127-11.456-25.578-25.578-25.578c-14.132,0-25.579,11.451-25.579,25.578V190.501z"/>
</g>
<g id="LWPOLYLINE_12_">
	<path style="fill:#101820;" d="M299.051,150.271c-3.026-2.552-6.848-3.95-10.806-3.95c-5.607,0.693-11.002,2.599-15.807,5.583
		v-5.583h-13.951v69.758h13.951v-49.296c0-5.134,4.163-9.301,9.301-9.301c5.139,0,9.302,4.167,9.302,9.301v49.296h13.952v-49.296
		c0-5.134,4.163-9.301,9.301-9.301s9.301,4.167,9.301,9.301v49.296h13.952l-0.009-53.156c-0.641-8.942-7.788-16.038-16.738-16.602
		C313.32,145.363,305.72,146.74,299.051,150.271z"/>
</g>
<g id="CIRCLE_8_">
	<path style="fill:#101820;" d="M149.573,310.267c0-8.878-7.194-16.076-16.072-16.076s-16.076,7.198-16.076,16.076
		s7.198,16.076,16.076,16.076S149.573,319.145,149.573,310.267L149.573,310.267z"/>
</g>
<g id="LWPOLYLINE_14_">
	<path style="fill:#101820;" d="M125.97,241.256l39.19,30.55c0.581,0.448,0.915,1.141,0.915,1.876v28.673
		c0,1.313-1.06,2.377-2.376,2.377h-9.401c-2.565-11.485-13.952-18.718-25.438-16.153c-8.062,1.8-14.354,8.092-16.153,16.153H95.728
		c-7.25-9.199-13.392-19.218-18.291-29.853c1.235-0.095,2.193-1.129,2.189-2.373v-21.214c-0.004-1.304-1.064-2.359-2.368-2.359
		h-8.977c-0.68-2.71-1.287-5.437-1.816-8.177h58.042C125.038,240.756,125.555,240.931,125.97,241.256z"/>
</g>
<g id="CIRCLE_9_">
	<path style="fill:#101820;" d="M309.421,310.267c0-8.878-7.198-16.076-16.072-16.076c-8.882,0-16.08,7.198-16.08,16.076
		s7.198,16.076,16.08,16.076C302.223,326.343,309.421,319.145,309.421,310.267L309.421,310.267z"/>
</g>
<g id="LWPOLYLINE_15_">
	<path style="fill:#101820;" d="M347.754,274.883h-15.508c-0.59,0-1.162-0.227-1.606-0.628c-0.958-0.89-1.018-2.39-0.129-3.348
		l19.654-21.214c0.453-0.487,1.077-0.761,1.744-0.761h5.001c0.684-2.71,1.29-5.437,1.82-8.177h-13.652
		c-0.633,0-1.239,0.252-1.685,0.696l-30.365,30.37c-0.453,0.449-1.051,0.697-1.684,0.697h-40.351
		c-6.558,0-11.875,5.317-11.875,11.878v17.957c0,1.313,1.061,2.377,2.377,2.377h11.054c1.795-8.062,8.096-14.354,16.157-16.153
		c11.481-2.564,22.868,4.668,25.433,16.153h15.328C336.718,295.537,342.856,285.518,347.754,274.883z"/>
</g>
<g id="LWPOLYLINE_11_">
	<path style="fill:#FFCD00;" d="M198.03,190.501c0,6.421,5.206,11.627,11.627,11.627c6.42,0,11.626-5.206,11.626-11.627v-41.854
		c0-6.42-5.206-11.626-11.626-11.626c-6.421,0-11.627,5.206-11.627,11.626V190.501z"/>
</g>
<g id="LWPOLYLINE_13_">
	<path style="fill:#FFCD00;" d="M87.897,251.194v21.295c0.004,1.308,1.064,2.363,2.373,2.363h43.009
		c1.316,0,2.385-1.068,2.385-2.385c0-0.53-0.175-1.047-0.504-1.466l-16.546-21.235c-0.47-0.603-1.193-0.953-1.958-0.953H90.274
		C88.961,248.809,87.897,249.873,87.897,251.194z"/>
</g>
</svg>
