<?xml version="1.0" encoding="UTF-8" standalone="no"?>
<!-- Generator: Adobe Illustrator 16.0.0, SVG Export Plug-In . SVG Version: 6.00 Build 0)  -->

<svg
   xmlns:dc="http://purl.org/dc/elements/1.1/"
   xmlns:cc="http://creativecommons.org/ns#"
   xmlns:rdf="http://www.w3.org/1999/02/22-rdf-syntax-ns#"
   xmlns:svg="http://www.w3.org/2000/svg"
   xmlns="http://www.w3.org/2000/svg"
   xmlns:sodipodi="http://sodipodi.sourceforge.net/DTD/sodipodi-0.dtd"
   xmlns:inkscape="http://www.inkscape.org/namespaces/inkscape"
   version="1.1"
   id="Layer_1"
   x="0px"
   y="0px"
   width="396.853"
   height="396.85101"
   viewBox="0 0 396.85301 396.851"
   xml:space="preserve"
   sodipodi:docname="C47.svg"
   inkscape:version="0.92.5 (2060ec1f9f, 2020-04-08)"><metadata
   id="metadata4160"><rdf:RDF><cc:Work
       rdf:about=""><dc:format>image/svg+xml</dc:format><dc:type
         rdf:resource="http://purl.org/dc/dcmitype/StillImage" /></cc:Work></rdf:RDF></metadata><defs
   id="defs4158" /><sodipodi:namedview
   pagecolor="#ffffff"
   bordercolor="#666666"
   borderopacity="1"
   objecttolerance="10"
   gridtolerance="10"
   guidetolerance="10"
   inkscape:pageopacity="0"
   inkscape:pageshadow="2"
   inkscape:window-width="640"
   inkscape:window-height="480"
   id="namedview4156"
   showgrid="false"
   inkscape:zoom="0.55503813"
   inkscape:cx="198.4265"
   inkscape:cy="198.42599"
   inkscape:window-x="0"
   inkscape:window-y="0"
   inkscape:window-maximized="0"
   inkscape:current-layer="Layer_1" />
<g
   id="CIRCLE_5_"
   transform="translate(-14.172,-14.173)">
	<path
   style="fill:#ffcd00"
   d="m 411.025,212.601 c 0,-109.588 -88.84,-198.428 -198.428,-198.428 -109.585,0 -198.425,88.84 -198.425,198.428 0,109.583 88.84,198.423 198.425,198.423 109.588,-10e-4 198.428,-88.84 198.428,-198.423 z"
   id="path4119"
   inkscape:connector-curvature="0" />
</g>
<g
   id="CIRCLE_6_"
   transform="translate(-14.172,-14.173)">
	<path
   style="fill:#e4002b"
   d="m 404.818,212.601 c 0,-106.164 -86.062,-192.226 -192.221,-192.226 -106.162,0 -192.223,86.062 -192.223,192.226 0,106.159 86.062,192.221 192.223,192.221 106.159,-10e-4 192.221,-86.062 192.221,-192.221 z"
   id="path4122"
   inkscape:connector-curvature="0" />
</g>
<g
   id="CIRCLE_7_"
   transform="translate(-14.172,-14.173)">
	<path
   style="fill:#ffcd00"
   d="m 364.519,212.601 c 0,-83.907 -68.023,-151.922 -151.922,-151.922 -83.905,0 -151.919,68.015 -151.919,151.922 0,83.898 68.019,151.917 151.919,151.917 83.899,0 151.922,-68.019 151.922,-151.917 z"
   id="path4125"
   inkscape:connector-curvature="0" />
</g>
<g
   id="LWPOLYLINE_9_"
   transform="translate(-14.172,-14.173)">
	<path
   style="fill:#101820"
   d="m 112.454,190.501 c 0,14.127 11.451,25.578 25.578,25.578 14.127,0 25.581,-11.451 25.581,-25.578 v -10.232 c 0,-14.123 -11.454,-25.578 -25.581,-25.578 -3.564,0 -7.095,0.748 -10.356,2.193 l 1.987,-19.863 h 25.578 l -0.932,-13.952 h -37.205 l -4.651,46.506 16.277,3.719 c 2.197,-2.924 5.642,-4.651 9.301,-4.651 6.42,0 11.626,5.207 11.626,11.627 v 10.232 c 0,6.421 -5.206,11.627 -11.626,11.627 -6.42,0 -11.626,-5.206 -11.626,-11.627 h -13.951 z"
   id="path4128"
   inkscape:connector-curvature="0" />
</g>
<g
   id="LWPOLYLINE_10_"
   transform="translate(-14.172,-14.173)">
	<path
   style="fill:#101820"
   d="m 184.078,190.501 c 0,14.127 11.447,25.578 25.579,25.578 14.122,0 25.578,-11.451 25.578,-25.578 v -41.854 c 0,-14.127 -11.456,-25.578 -25.578,-25.578 -14.132,0 -25.579,11.451 -25.579,25.578 z"
   id="path4131"
   inkscape:connector-curvature="0" />
</g>
<g
   id="LWPOLYLINE_12_"
   transform="translate(-14.172,-14.173)">
	<path
   style="fill:#101820"
   d="m 299.051,150.271 c -3.026,-2.552 -6.848,-3.95 -10.806,-3.95 -5.607,0.693 -11.002,2.599 -15.807,5.583 v -5.583 h -13.951 v 69.758 h 13.951 v -49.296 c 0,-5.134 4.163,-9.301 9.301,-9.301 5.139,0 9.302,4.167 9.302,9.301 v 49.296 h 13.952 v -49.296 c 0,-5.134 4.163,-9.301 9.301,-9.301 5.138,0 9.301,4.167 9.301,9.301 v 49.296 h 13.952 l -0.009,-53.156 c -0.641,-8.942 -7.788,-16.038 -16.738,-16.602 -7.48,-0.958 -15.08,0.419 -21.749,3.95 z"
   id="path4134"
   inkscape:connector-curvature="0" />
</g>
<g
   id="CIRCLE_8_"
   transform="translate(-14.172,-14.173)">
	<path
   style="fill:#101820"
   d="m 149.573,310.267 c 0,-8.878 -7.194,-16.076 -16.072,-16.076 -8.878,0 -16.076,7.198 -16.076,16.076 0,8.878 7.198,16.076 16.076,16.076 8.878,0 16.072,-7.198 16.072,-16.076 z"
   id="path4137"
   inkscape:connector-curvature="0" />
</g>
<g
   id="LWPOLYLINE_14_"
   transform="translate(-14.172,-14.173)">
	<path
   style="fill:#101820"
   d="m 125.97,241.256 39.19,30.55 c 0.581,0.448 0.915,1.141 0.915,1.876 v 28.673 c 0,1.313 -1.06,2.377 -2.376,2.377 h -9.401 c -2.565,-11.485 -13.952,-18.718 -25.438,-16.153 -8.062,1.8 -14.354,8.092 -16.153,16.153 H 95.728 c -7.25,-9.199 -13.392,-19.218 -18.291,-29.853 1.235,-0.095 2.193,-1.129 2.189,-2.373 v -21.214 c -0.004,-1.304 -1.064,-2.359 -2.368,-2.359 h -8.977 c -0.68,-2.71 -1.287,-5.437 -1.816,-8.177 h 58.042 c 0.531,0 1.048,0.175 1.463,0.5 z"
   id="path4140"
   inkscape:connector-curvature="0" />
</g>
<g
   id="CIRCLE_9_"
   transform="translate(-14.172,-14.173)">
	<path
   style="fill:#101820"
   d="m 309.421,310.267 c 0,-8.878 -7.198,-16.076 -16.072,-16.076 -8.882,0 -16.08,7.198 -16.08,16.076 0,8.878 7.198,16.076 16.08,16.076 8.874,0 16.072,-7.198 16.072,-16.076 z"
   id="path4143"
   inkscape:connector-curvature="0" />
</g>
<g
   id="LWPOLYLINE_15_"
   transform="translate(-14.172,-14.173)">
	<path
   style="fill:#101820"
   d="m 347.754,274.883 h -15.508 c -0.59,0 -1.162,-0.227 -1.606,-0.628 -0.958,-0.89 -1.018,-2.39 -0.129,-3.348 l 19.654,-21.214 c 0.453,-0.487 1.077,-0.761 1.744,-0.761 h 5.001 c 0.684,-2.71 1.29,-5.437 1.82,-8.177 h -13.652 c -0.633,0 -1.239,0.252 -1.685,0.696 l -30.365,30.37 c -0.453,0.449 -1.051,0.697 -1.684,0.697 h -40.351 c -6.558,0 -11.875,5.317 -11.875,11.878 v 17.957 c 0,1.313 1.061,2.377 2.377,2.377 h 11.054 c 1.795,-8.062 8.096,-14.354 16.157,-16.153 11.481,-2.564 22.868,4.668 25.433,16.153 h 15.328 c 7.251,-9.193 13.389,-19.212 18.287,-29.847 z"
   id="path4146"
   inkscape:connector-curvature="0" />
</g>
<g
   id="LWPOLYLINE_11_"
   transform="translate(-14.172,-14.173)">
	<path
   style="fill:#ffcd00"
   d="m 198.03,190.501 c 0,6.421 5.206,11.627 11.627,11.627 6.42,0 11.626,-5.206 11.626,-11.627 v -41.854 c 0,-6.42 -5.206,-11.626 -11.626,-11.626 -6.421,0 -11.627,5.206 -11.627,11.626 z"
   id="path4149"
   inkscape:connector-curvature="0" />
</g>
<g
   id="LWPOLYLINE_13_"
   transform="translate(-14.172,-14.173)">
	<path
   style="fill:#ffcd00"
   d="m 87.897,251.194 v 21.295 c 0.004,1.308 1.064,2.363 2.373,2.363 h 43.009 c 1.316,0 2.385,-1.068 2.385,-2.385 0,-0.53 -0.175,-1.047 -0.504,-1.466 l -16.546,-21.235 c -0.47,-0.603 -1.193,-0.953 -1.958,-0.953 H 90.274 c -1.313,-0.004 -2.377,1.06 -2.377,2.381 z"
   id="path4152"
   inkscape:connector-curvature="0" />
</g>
</svg>