<?xml version="1.0" encoding="iso-8859-1"?>
<!-- Generator: Adobe Illustrator 16.0.0, SVG Export Plug-In . SVG Version: 6.00 Build 0)  -->
<!DOCTYPE svg PUBLIC "-//W3C//DTD SVG 1.1//EN" "http://www.w3.org/Graphics/SVG/1.1/DTD/svg11.dtd">
<svg version="1.1" id="Layer_1" xmlns="http://www.w3.org/2000/svg" xmlns:xlink="http://www.w3.org/1999/xlink" x="0px" y="0px"
	 width="425.197px" height="425.196px" viewBox="0 0 425.197 425.196" style="enable-background:new 0 0 425.197 425.196;"
	 xml:space="preserve">
<g id="CIRCLE_34_">
	<path style="fill:#FFCD00;" d="M411.024,212.597c0-109.585-88.839-198.425-198.425-198.425S14.173,103.011,14.173,212.597
		c0,109.589,88.84,198.428,198.426,198.428S411.024,322.186,411.024,212.597L411.024,212.597z"/>
</g>
<g id="CIRCLE_35_">
	<path style="fill:#E4002B;" d="M404.818,212.597c0-106.162-86.061-192.223-192.219-192.223
		c-106.168,0-192.229,86.061-192.229,192.223c0,106.161,86.061,192.222,192.229,192.222
		C318.757,404.818,404.818,318.758,404.818,212.597L404.818,212.597z"/>
</g>
<g id="LWPOLYLINE_70_">
	<path style="fill:#FFCD00;" d="M116.706,94.776L330.419,308.49c52.958-65.066,43.145-160.752-21.928-213.714
		C252.639,49.319,172.549,49.319,116.706,94.776z"/>
</g>
<g id="LWPOLYLINE_71_">
	<path style="fill:#FFCD00;" d="M94.778,116.704l213.714,213.717c-55.853,45.452-135.942,45.452-191.786,0
		C51.634,277.457,41.82,181.771,94.778,116.704z"/>
</g>
<g id="CIRCLE_40_">
	<path style="fill:#101820;" d="M167.697,261.374c0-22.713-18.41-41.119-41.114-41.119c-22.712,0-41.122,18.406-41.122,41.119
		c0,22.708,18.41,41.118,41.122,41.118C149.287,302.492,167.697,284.082,167.697,261.374L167.697,261.374z"/>
</g>
<g id="CIRCLE_41_">
	<path style="fill:#FFCD00;" d="M153.03,261.374c0-14.613-11.844-26.456-26.447-26.456c-14.612,0-26.456,11.843-26.456,26.456
		c0,14.607,11.844,26.451,26.456,26.451C141.186,287.825,153.03,275.981,153.03,261.374L153.03,261.374z"/>
</g>
<g id="LWPOLYLINE_79_">
	<path style="fill:#101820;" d="M179.82,157.895l13.53-11.104c5.177-4.249,10.896-7.802,17.012-10.558
		c4.916-2.219,10.607-1.88,15.226,0.907c1.038,0.631,2.012,1.38,2.896,2.228l25.563,33.167l-26.059,18.271l-23.751-31.999
		l-13.367,10.139L179.82,157.895z"/>
</g>
<g id="LWPOLYLINE_80_">
	<path style="fill:#101820;" d="M218.38,196.451h12.24l26.89-18.775l14.387,18.775h36.784c5.439,4.74,6.107,12.958,1.507,18.514
		c-20.133-5.015-41.204,3.514-52.173,21.125L218.38,196.451z"/>
</g>
<g id="LWPOLYLINE_81_">
	<path style="fill:#101820;" d="M250.636,272.567l-58.297-2.598c-8.578-0.396-15.947-6.232-18.293-14.495
		c-2.949-23.669-22.875-41.552-46.724-41.926c-1.841-0.059-3.645-0.51-5.295-1.326c-6.387-3.157-9.003-10.892-5.845-17.278
		c4.537-11.614,14.44-20.3,26.546-23.286l5.438-1.561l17.788,17.788c-1.976,1.804-2.508,4.708-1.299,7.103
		c3.815,7.23,10.923,12.136,19.042,13.152l0.767-1.75L250.636,272.567z"/>
</g>
<g id="LWPOLYLINE_82_">
	<path style="fill:#101820;" d="M189.814,142.867l10.139-7.537c2.887-2.142,6.053-3.865,9.426-5.119
		c3.979-1.471,8.308-1.714,12.43-0.686l7.541,2.228v-22.401c-1.073-6.098-5.638-10.991-11.636-12.506
		c-6.774-2.111-14.081-1.764-20.62,0.97c-6.955,3.053-11.284,10.107-10.852,17.688h12.827h0.595l-0.595,8.583l-13.513,4.844
		c-0.568,4.898,0.613,9.832,3.347,13.937c0.162,0.257,0.505,0.324,0.758,0.158C189.724,142.984,189.778,142.93,189.814,142.867z"/>
</g>
<g id="LWPOLYLINE_83_">
	<path style="fill:#101820;" d="M319.009,297.08c19.719-11.262,26.573-36.379,15.308-56.101
		c-11.257-19.719-36.378-26.574-56.097-15.313c-6.377,3.645-11.672,8.935-15.316,15.313l10.987,10.986
		c2.688-7.059,8.253-12.628,15.315-15.316c13.657-5.195,28.938,1.659,34.133,15.316c5.195,13.651-1.66,28.937-15.316,34.132
		L319.009,297.08z"/>
</g>
</svg>
