<?xml version="1.0" encoding="iso-8859-1"?>
<!-- Generator: Adobe Illustrator 16.0.0, SVG Export Plug-In . SVG Version: 6.00 Build 0)  -->
<!DOCTYPE svg PUBLIC "-//W3C//DTD SVG 1.1//EN" "http://www.w3.org/Graphics/SVG/1.1/DTD/svg11.dtd">
<svg version="1.1" id="Layer_1" xmlns="http://www.w3.org/2000/svg" xmlns:xlink="http://www.w3.org/1999/xlink" x="0px" y="0px"
	 width="425.197px" height="425.196px" viewBox="0 0 425.197 425.196" style="enable-background:new 0 0 425.197 425.196;"
	 xml:space="preserve">
<g id="CIRCLE_2_">
	<path style="fill:#FFCD00;" d="M411.023,212.598c0-109.587-88.838-198.425-198.425-198.425
		c-109.587,0-198.424,88.838-198.424,198.425s88.837,198.426,198.424,198.426C322.185,411.023,411.023,322.185,411.023,212.598
		L411.023,212.598z"/>
</g>
<g id="CIRCLE_3_">
	<path style="fill:#E4002B;" d="M404.822,212.598c0-106.162-86.061-192.225-192.224-192.225
		C106.436,20.374,20.374,106.436,20.374,212.598c0.001,106.163,86.063,192.225,192.224,192.225
		C318.761,404.822,404.822,318.761,404.822,212.598L404.822,212.598z"/>
</g>
<g id="LWPOLYLINE_5_">
	<path style="fill:#FFCD00;" d="M94.793,116.742l213.691,213.691c-55.844,45.454-135.926,45.454-191.771,0
		C51.65,277.478,41.836,181.804,94.793,116.742"/>
</g>
<g id="LWPOLYLINE_6_">
	<path style="fill:#FFCD00;" d="M116.712,94.822l213.691,213.692c52.957-65.063,43.145-160.735-21.92-213.692
		C252.64,49.369,172.558,49.369,116.712,94.822"/>
</g>
<g id="LWPOLYLINE_7_">
	<path style="fill:#101820;" d="M221.841,199.951l8.438-0.623l-1.871-11.991l-8.848,3.804c-0.877,0.418-1.852,0.598-2.822,0.521
		l-3.862-0.675l-37.214-37.215l5.751-17.302c10.643,9.998,16.871,23.816,17.315,38.41l15.178,2.859
		c0.914,0.171,1.847-0.149,2.464-0.843l15.984-16.866c1.094-1.123,2.342-2.089,3.703-2.868c8.104-4.637,18.43-1.827,23.064,6.274
		c5.99,12.869,10.391,26.419,13.111,40.351l4.984,17.164h40.266v35.58c8.305,0.194,15.16,6.557,15.971,14.825
		c0.885,9.031-5.719,17.071-14.752,17.956h-7.5L221.841,199.951z"/>
</g>
<g id="LWPOLYLINE_8_">
	<path style="fill:#101820;" d="M267.363,289.312h-13.148c0,0.001-30.5,0.001-30.5,0.001c-3.055-0.317-5.949-1.523-8.324-3.47
		c-1.137-1.068-2.006-2.389-2.542-3.854l-1.005-2.724c-0.35-1.137-1.22-2.038-2.341-2.43c-17.946-0.296-35.794-2.699-53.179-7.162
		l-3.899,13.245c11.454,0.445,22.905,0.93,34.355,1.451c2.046,0.99,3.594,2.777,4.279,4.943h-49.818
		c-19.347,0.96-37.911-7.741-49.548-23.226l0.117-4.231c12.193,14.453,30.575,22.182,49.432,20.784l4.61-15.66
		c-13.684-4.786-26.673-11.365-38.629-19.564c9.308-25.139,29.533-44.687,54.973-53.133l2.529-7.607l22.09,22.09l-2.056,7.349
		c-0.107,0.385-0.015,0.796,0.246,1.099l11.646,13.498l3.567-8.543L267.363,289.312z"/>
</g>
<g id="LWPOLYLINE_9_">
	<path style="fill:#101820;" d="M214.734,163.305l11.248-8.368c3.197-2.379,6.717-4.29,10.455-5.676
		c4.416-1.638,9.225-1.904,13.795-0.764l8.373,2.474v-24.861c-1.057-6.823-6.307-12.235-13.094-13.501
		c-7.375-2.71-15.512-2.459-22.707,0.698c-7.719,3.387-12.52,11.213-12.042,19.629h14.241h0.654l-0.654,9.525l-15.002,5.376
		c-0.629,5.433,0.687,10.912,3.713,15.468c0.188,0.281,0.567,0.357,0.848,0.172C214.63,163.43,214.687,163.372,214.734,163.305z"/>
</g>
</svg>
