<?xml version="1.0" encoding="iso-8859-1"?>
<!-- Generator: Adobe Illustrator 16.0.0, SVG Export Plug-In . SVG Version: 6.00 Build 0)  -->
<!DOCTYPE svg PUBLIC "-//W3C//DTD SVG 1.1//EN" "http://www.w3.org/Graphics/SVG/1.1/DTD/svg11.dtd">
<svg version="1.1" id="Layer_1" xmlns="http://www.w3.org/2000/svg" xmlns:xlink="http://www.w3.org/1999/xlink" x="0px" y="0px"
	 width="425.197px" height="425.196px" viewBox="0 0 425.197 425.196" style="enable-background:new 0 0 425.197 425.196;"
	 xml:space="preserve">
<g id="CIRCLE_2_">
	<path style="fill:#FFCD00;" d="M411.023,212.598c0-109.587-88.838-198.425-198.425-198.425S14.173,103.011,14.173,212.598
		c0,109.588,88.838,198.426,198.425,198.426S411.023,322.186,411.023,212.598L411.023,212.598z"/>
</g>
<g id="CIRCLE_3_">
	<path style="fill:#E4002B;" d="M404.824,212.598c0-106.162-86.063-192.225-192.226-192.225
		C106.436,20.374,20.374,106.436,20.374,212.598c0.001,106.163,86.063,192.226,192.225,192.226
		C318.761,404.823,404.824,318.761,404.824,212.598L404.824,212.598z"/>
</g>
<g id="LWPOLYLINE_2_">
	<path style="fill:#FFCD00;" d="M94.793,116.742l213.691,213.692c-55.844,45.453-135.926,45.453-191.771,0
		C51.65,277.479,41.836,181.804,94.793,116.742"/>
</g>
<g id="LWPOLYLINE_3_">
	<path style="fill:#FFCD00;" d="M116.712,94.822l213.691,213.692c52.957-65.063,43.145-160.735-21.92-213.692
		C252.64,49.369,172.558,49.369,116.712,94.822"/>
</g>
<g id="LWPOLYLINE_9_">
	<path style="fill:#101820;" d="M156.774,134.883v-2.75h111.335v89.604h-24.482l37.086,37.086h18.104V118.118
		c-0.355-9.225-7.707-16.646-16.928-17.087H142.049c-4.918,0.313-9.439,2.807-12.327,6.802L156.774,134.883z"/>
</g>
<g id="LWPOLYLINE_10_">
	<polygon style="fill:#101820;" points="199.843,221.737 156.774,221.737 156.774,178.724 125.751,147.7 125.751,258.823 
		236.849,258.823 	"/>
</g>
<g id="LWPOLYLINE_11_">
	<polygon style="fill:#101820;" points="135.042,268.192 146.853,268.192 150.16,271.5 150.16,286.774 150.16,305.672 
		150.16,320.79 146.853,324.097 135.042,324.097 131.735,320.79 131.735,305.672 131.735,286.774 131.735,271.5 	"/>
</g>
<g id="LWPOLYLINE_12_">
	<polygon style="fill:#101820;" points="292.203,314.097 292.203,320.947 288.896,324.254 277.085,324.254 273.779,320.947 
		273.779,295.672 	"/>
</g>
<g id="LWPOLYLINE_13_">
	<path style="fill:#101820;" d="M249.291,271.264v15.511h-24.488c-5.385-6.931-15.37-8.183-22.301-2.797
		c-1.02,0.791-1.938,1.704-2.737,2.719h-24.959V271.5l-3.307-3.308h-11.811l-3.308,3.308v15.274v18.897v15.118l3.308,3.307h11.811
		l3.307-3.307v-15.118h24.959c5.24,6.915,15.095,8.271,22.007,3.03c1.146-0.866,2.164-1.886,3.031-3.03h24.488v15.275l3.307,3.307
		h11.811l3.307-3.307v-31.338L249.291,271.264z"/>
</g>
<g id="LWPOLYLINE_14_">
	<polygon style="fill:#FE5000;" points="156.774,221.737 199.788,221.737 156.774,178.724 	"/>
</g>
<g id="LWPOLYLINE_15_">
	<polygon style="fill:#FE5000;" points="156.774,134.883 156.774,132.133 268.109,132.133 268.109,221.737 243.626,221.737 	"/>
</g>
</svg>
