<?xml version="1.0" encoding="iso-8859-1"?>
<!-- Generator: Adobe Illustrator 16.0.0, SVG Export Plug-In . SVG Version: 6.00 Build 0)  -->
<!DOCTYPE svg PUBLIC "-//W3C//DTD SVG 1.1//EN" "http://www.w3.org/Graphics/SVG/1.1/DTD/svg11.dtd">
<svg version="1.1" id="Layer_1" xmlns="http://www.w3.org/2000/svg" xmlns:xlink="http://www.w3.org/1999/xlink" x="0px" y="0px"
	 width="425.197px" height="425.196px" viewBox="0 0 425.197 425.196" style="enable-background:new 0 0 425.197 425.196;"
	 xml:space="preserve">
<g id="CIRCLE_2_">
	<path style="fill:#FFCD00;" d="M411.023,212.598c0-109.587-88.838-198.425-198.425-198.425
		c-109.587,0-198.424,88.838-198.424,198.425s88.837,198.426,198.424,198.426C322.185,411.023,411.023,322.185,411.023,212.598
		L411.023,212.598z"/>
</g>
<g id="CIRCLE_3_">
	<path style="fill:#E4002B;" d="M404.822,212.598c0-106.162-86.061-192.225-192.224-192.225
		C106.436,20.374,20.374,106.436,20.374,212.598c0.001,106.163,86.063,192.225,192.224,192.225
		C318.761,404.822,404.822,318.761,404.822,212.598L404.822,212.598z"/>
</g>
<g id="LWPOLYLINE_2_">
	<path style="fill:#FFCD00;" d="M94.793,116.742l213.691,213.691c-55.844,45.454-135.926,45.454-191.771,0
		C51.65,277.478,41.836,181.804,94.793,116.742"/>
</g>
<g id="LWPOLYLINE_3_">
	<path style="fill:#FFCD00;" d="M116.712,94.822l213.691,213.692c52.957-65.063,43.145-160.735-21.92-213.692
		C252.64,49.369,172.558,49.369,116.712,94.822"/>
</g>
<g id="CIRCLE_5_">
	<path style="fill:#101820;" d="M155.243,251.288c0-9.13-7.403-16.532-16.535-16.532c-9.13,0-16.533,7.402-16.533,16.532
		c0,9.131,7.402,16.533,16.533,16.533C147.84,267.821,155.243,260.419,155.243,251.288L155.243,251.288z"/>
</g>
<g id="LWPOLYLINE_9_">
	<path style="fill:#101820;" d="M229.337,251.288h-68.584c0-12.175-9.869-22.043-22.044-22.043
		c-12.174,0-22.043,9.868-22.043,22.043H88.986V220.85l12.135-50.877c0.591-2.481,2.809-4.232,5.36-4.232h37.31L229.337,251.288z"/>
</g>
<g id="LWPOLYLINE_11_">
	<path style="fill:#101820;" d="M259.144,237.254c4.188-5.071,10.42-8.009,17-8.009c12.172,0,22.043,9.868,22.043,22.043h33.127
		c3.045,0,5.512-2.467,5.512-5.511v-74.131c0-3.262-2.645-5.906-5.906-5.906H187.63L259.144,237.254z"/>
</g>
<g id="LWPOLYLINE_16_">
	<path style="fill:#101820;" d="M286.257,264.367c7.223-5.586,8.549-15.97,2.963-23.192c-5.586-7.224-15.969-8.55-23.191-2.964
		c-1.109,0.857-2.105,1.854-2.965,2.964L286.257,264.367"/>
</g>
<g id="LWPOLYLINE_10_">
	<rect x="286.125" y="171.252" style="fill:#FFCD00;" width="43.055" height="33.066"/>
</g>
<g id="LWPOLYLINE_12_">
	<rect x="236.525" y="171.252" style="fill:#FFCD00;" width="42.021" height="33.066"/>
</g>
<g id="LWPOLYLINE_13_">
	<polygon style="fill:#FFCD00;" points="226.208,204.318 228.949,204.318 228.949,171.252 193.143,171.252 	"/>
</g>
<g id="LWPOLYLINE_14_">
	<polyline style="fill:#FFCD00;" points="135.254,171.252 130.167,215.339 96.586,215.339 107.102,171.252 135.254,171.252 	"/>
</g>
<g id="LWPOLYLINE_15_">
	<polygon style="fill:#FFCD00;" points="179.35,201.299 179.35,204.318 139.039,204.318 142.854,171.252 149.302,171.252 	"/>
</g>
</svg>
