<?xml version="1.0" encoding="UTF-8" standalone="no"?>
<!-- Generator: Adobe Illustrator 16.0.0, SVG Export Plug-In . SVG Version: 6.00 Build 0)  -->

<svg
   xmlns:dc="http://purl.org/dc/elements/1.1/"
   xmlns:cc="http://creativecommons.org/ns#"
   xmlns:rdf="http://www.w3.org/1999/02/22-rdf-syntax-ns#"
   xmlns:svg="http://www.w3.org/2000/svg"
   xmlns="http://www.w3.org/2000/svg"
   xmlns:sodipodi="http://sodipodi.sourceforge.net/DTD/sodipodi-0.dtd"
   xmlns:inkscape="http://www.inkscape.org/namespaces/inkscape"
   version="1.1"
   id="Layer_1"
   x="0px"
   y="0px"
   width="397.349"
   height="397.349"
   viewBox="0 0 397.34901 397.34899"
   xml:space="preserve"
   sodipodi:docname="D1.1.svg"
   inkscape:version="0.92.5 (2060ec1f9f, 2020-04-08)"><metadata
   id="metadata19"><rdf:RDF><cc:Work
       rdf:about=""><dc:format>image/svg+xml</dc:format><dc:type
         rdf:resource="http://purl.org/dc/dcmitype/StillImage" /></cc:Work></rdf:RDF></metadata><defs
   id="defs17" /><sodipodi:namedview
   pagecolor="#ffffff"
   bordercolor="#666666"
   borderopacity="1"
   objecttolerance="10"
   gridtolerance="10"
   guidetolerance="10"
   inkscape:pageopacity="0"
   inkscape:pageshadow="2"
   inkscape:window-width="640"
   inkscape:window-height="480"
   id="namedview15"
   showgrid="false"
   inkscape:zoom="0.55503813"
   inkscape:cx="198.6745"
   inkscape:cy="198.67499"
   inkscape:window-x="0"
   inkscape:window-y="0"
   inkscape:window-maximized="0"
   inkscape:current-layer="Layer_1" />
<g
   id="CIRCLE_4_"
   transform="translate(-13.924,-13.924)">
	<path
   style="fill:#ffffff"
   d="m 411.023,212.599 c 0,-109.587 -88.838,-198.425 -198.424,-198.425 -109.587,0 -198.425,88.838 -198.425,198.425 0,109.588 88.838,198.424 198.425,198.424 109.586,-0.001 198.424,-88.836 198.424,-198.424 z"
   id="path2"
   inkscape:connector-curvature="0" />
</g>
<g
   id="CIRCLE_3_"
   transform="translate(-13.924,-13.924)">
	<path
   style="fill:#005eb8"
   d="m 401.724,212.599 c 0,-104.45 -84.676,-189.124 -189.125,-189.124 -104.45,0 -189.124,84.674 -189.124,189.124 0,104.449 84.674,189.125 189.124,189.125 104.449,0 189.125,-84.676 189.125,-189.125 z"
   id="path5"
   inkscape:connector-curvature="0" />
</g>
<g
   id="LWPOLYLINE_1_"
   transform="translate(-13.924,-13.924)">
	<polygon
   style="fill:#ffffff"
   points="234.107,293.21 287.007,293.21 367.619,212.599 287.007,131.988 234.107,131.988 294.564,192.446 57.579,192.446 57.579,232.751 294.564,232.751 "
   id="polygon8" />
</g>
<g
   id="CIRCLE_2_"
   transform="translate(-13.924,-13.924)">
	<path
   style="fill:none;stroke:#005eb8;stroke-width:0.5;stroke-miterlimit:10"
   d="m 411.023,212.599 c 0,-109.587 -88.838,-198.425 -198.424,-198.425 -109.587,0 -198.425,88.838 -198.425,198.425 0,109.588 88.838,198.424 198.425,198.424 109.586,-0.001 198.424,-88.836 198.424,-198.424 z"
   id="path11"
   inkscape:connector-curvature="0" />
</g>
</svg>