<?xml version="1.0" encoding="UTF-8" standalone="no"?>
<!-- Generator: Adobe Illustrator 16.0.0, SVG Export Plug-In . SVG Version: 6.00 Build 0)  -->

<svg
   xmlns:dc="http://purl.org/dc/elements/1.1/"
   xmlns:cc="http://creativecommons.org/ns#"
   xmlns:rdf="http://www.w3.org/1999/02/22-rdf-syntax-ns#"
   xmlns:svg="http://www.w3.org/2000/svg"
   xmlns="http://www.w3.org/2000/svg"
   xmlns:sodipodi="http://sodipodi.sourceforge.net/DTD/sodipodi-0.dtd"
   xmlns:inkscape="http://www.inkscape.org/namespaces/inkscape"
   version="1.1"
   id="Layer_1"
   x="0px"
   y="0px"
   width="397.349"
   height="397.34698"
   viewBox="0 0 397.34901 397.34697"
   xml:space="preserve"
   sodipodi:docname="D1.2.svg"
   inkscape:version="0.92.5 (2060ec1f9f, 2020-04-08)"><metadata
   id="metadata38"><rdf:RDF><cc:Work
       rdf:about=""><dc:format>image/svg+xml</dc:format><dc:type
         rdf:resource="http://purl.org/dc/dcmitype/StillImage" /></cc:Work></rdf:RDF></metadata><defs
   id="defs36" /><sodipodi:namedview
   pagecolor="#ffffff"
   bordercolor="#666666"
   borderopacity="1"
   objecttolerance="10"
   gridtolerance="10"
   guidetolerance="10"
   inkscape:pageopacity="0"
   inkscape:pageshadow="2"
   inkscape:window-width="640"
   inkscape:window-height="480"
   id="namedview34"
   showgrid="false"
   inkscape:zoom="0.55503813"
   inkscape:cx="198.6745"
   inkscape:cy="198.67399"
   inkscape:window-x="0"
   inkscape:window-y="0"
   inkscape:window-maximized="0"
   inkscape:current-layer="Layer_1" />
<g
   id="CIRCLE_4_"
   transform="translate(-13.924,-13.925)">
	<path
   style="fill:#ffffff"
   d="m 411.023,212.601 c 0,-109.587 -88.835,-198.426 -198.421,-198.426 -109.587,0 -198.428,88.839 -198.428,198.426 0,109.586 88.841,198.421 198.428,198.421 109.586,-10e-4 198.421,-88.835 198.421,-198.421 z"
   id="path21"
   inkscape:connector-curvature="0" />
</g>
<g
   id="CIRCLE_2_"
   transform="translate(-13.924,-13.925)">
	<path
   style="fill:none;stroke:#005eb8;stroke-width:0.5;stroke-miterlimit:10"
   d="m 411.023,212.601 c 0,-109.587 -88.835,-198.426 -198.421,-198.426 -109.587,0 -198.428,88.839 -198.428,198.426 0,109.586 88.841,198.421 198.428,198.421 109.586,-10e-4 198.421,-88.835 198.421,-198.421 z"
   id="path24"
   inkscape:connector-curvature="0" />
</g>
<g
   id="CIRCLE_3_"
   transform="translate(-13.924,-13.925)">
	<path
   style="fill:#005eb8"
   d="m 401.724,212.601 c 0,-104.45 -84.677,-189.123 -189.122,-189.123 -104.455,0 -189.125,84.673 -189.125,189.123 0,104.445 84.67,189.122 189.125,189.122 104.445,0 189.122,-84.677 189.122,-189.122 z"
   id="path27"
   inkscape:connector-curvature="0" />
</g>
<g
   id="LWPOLYLINE_3_"
   transform="translate(-13.924,-13.925)">
	<polygon
   style="fill:#ffffff"
   points="191.092,293.21 138.188,293.21 57.579,212.601 138.188,131.991 191.092,131.991 130.63,192.448 367.616,192.448 367.616,232.753 130.63,232.753 "
   id="polygon30" />
</g>
</svg>