<?xml version="1.0" encoding="iso-8859-1"?>
<!-- Generator: Adobe Illustrator 16.0.0, SVG Export Plug-In . SVG Version: 6.00 Build 0)  -->
<!DOCTYPE svg PUBLIC "-//W3C//DTD SVG 1.1//EN" "http://www.w3.org/Graphics/SVG/1.1/DTD/svg11.dtd">
<svg version="1.1" id="Layer_1" xmlns="http://www.w3.org/2000/svg" xmlns:xlink="http://www.w3.org/1999/xlink" x="0px" y="0px"
	 width="425.197px" height="425.196px" viewBox="0 0 425.197 425.196" style="enable-background:new 0 0 425.197 425.196;"
	 xml:space="preserve">
<g id="CIRCLE_4_">
	<path style="fill:#FFFFFF;" d="M411.024,212.601c0-109.587-88.835-198.427-198.422-198.427
		c-109.587,0-198.429,88.839-198.429,198.427c0,109.587,88.841,198.422,198.429,198.422
		C322.189,411.022,411.024,322.188,411.024,212.601L411.024,212.601z"/>
</g>
<g id="CIRCLE_2_">
	<path style="fill:none;stroke:#005EB8;stroke-width:0.5;stroke-miterlimit:10;" d="M411.024,212.601
		c0-109.587-88.835-198.427-198.422-198.427c-109.587,0-198.429,88.839-198.429,198.427c0,109.587,88.841,198.422,198.429,198.422
		C322.189,411.022,411.024,322.188,411.024,212.601L411.024,212.601z"/>
</g>
<g id="CIRCLE_3_">
	<path style="fill:#005EB8;" d="M401.726,212.601c0-104.451-84.678-189.124-189.124-189.124
		c-104.456,0-189.126,84.673-189.126,189.124c0,104.446,84.67,189.123,189.126,189.123
		C317.048,401.724,401.726,317.047,401.726,212.601L401.726,212.601z"/>
</g>
<g id="LWPOLYLINE">
	<polygon style="fill:#FFFFFF;" points="232.75,367.62 232.75,130.633 293.212,191.091 293.212,138.191 212.602,57.577 
		131.992,138.191 131.992,191.091 192.445,130.633 192.445,367.62 	"/>
</g>
</svg>
