<?xml version="1.0" encoding="UTF-8" standalone="no"?>
<!-- Generator: Adobe Illustrator 16.0.0, SVG Export Plug-In . SVG Version: 6.00 Build 0)  -->

<svg
   xmlns:dc="http://purl.org/dc/elements/1.1/"
   xmlns:cc="http://creativecommons.org/ns#"
   xmlns:rdf="http://www.w3.org/1999/02/22-rdf-syntax-ns#"
   xmlns:svg="http://www.w3.org/2000/svg"
   xmlns="http://www.w3.org/2000/svg"
   xmlns:sodipodi="http://sodipodi.sourceforge.net/DTD/sodipodi-0.dtd"
   xmlns:inkscape="http://www.inkscape.org/namespaces/inkscape"
   version="1.1"
   id="Layer_1"
   x="0px"
   y="0px"
   width="397.353"
   height="397.35101"
   viewBox="0 0 397.35301 397.351"
   xml:space="preserve"
   sodipodi:docname="D1.4_2.svg"
   inkscape:version="0.92.5 (2060ec1f9f, 2020-04-08)"><metadata
   id="metadata90"><rdf:RDF><cc:Work
       rdf:about=""><dc:format>image/svg+xml</dc:format><dc:type
         rdf:resource="http://purl.org/dc/dcmitype/StillImage" /></cc:Work></rdf:RDF></metadata><defs
   id="defs88" /><sodipodi:namedview
   pagecolor="#ffffff"
   bordercolor="#666666"
   borderopacity="1"
   objecttolerance="10"
   gridtolerance="10"
   guidetolerance="10"
   inkscape:pageopacity="0"
   inkscape:pageshadow="2"
   inkscape:window-width="640"
   inkscape:window-height="480"
   id="namedview86"
   showgrid="false"
   inkscape:zoom="0.55503813"
   inkscape:cx="198.6765"
   inkscape:cy="198.67599"
   inkscape:window-x="0"
   inkscape:window-y="0"
   inkscape:window-maximized="0"
   inkscape:current-layer="Layer_1" />
<path
   style="fill:#ffffff;stroke:#005eb8;stroke-width:0.5;stroke-miterlimit:10"
   d="M 397.103,198.678 C 397.103,89.09 308.263,0.25 198.675,0.25 89.087,0.25 0.25,89.09 0.25,198.678 c 0,109.583 88.837,198.423 198.425,198.423 109.588,0 198.428,-88.84 198.428,-198.423 z"
   id="path78"
   inkscape:connector-curvature="0" />
<path
   style="fill:#005eb8"
   d="M 387.801,198.678 C 387.801,94.228 303.125,9.552 198.675,9.552 94.225,9.552 9.551,94.228 9.551,198.678 c 0,104.449 84.674,189.121 189.124,189.121 104.45,0 189.126,-84.672 189.126,-189.121 z"
   id="path80"
   inkscape:connector-curvature="0" />
<g
   id="LWPOLYLINE_1_"
   transform="translate(-13.922,-13.923)">
	<path
   style="fill:#ffffff"
   d="m 258.051,137.601 -65.595,65.818 c -8.942,8.98 -13.969,21.137 -13.969,33.811 v 98.577 H 147.488 V 237.23 c 0,-20.876 8.267,-40.897 22.997,-55.688 l 65.638,-65.86 h -65.766 l 27.904,-27.904 h 87.693 v 87.694 l -27.903,27.903 z"
   id="path82"
   inkscape:connector-curvature="0" />
</g>
</svg>