<?xml version="1.0" encoding="iso-8859-1"?>
<!-- Generator: Adobe Illustrator 16.0.0, SVG Export Plug-In . SVG Version: 6.00 Build 0)  -->
<!DOCTYPE svg PUBLIC "-//W3C//DTD SVG 1.1//EN" "http://www.w3.org/Graphics/SVG/1.1/DTD/svg11.dtd">
<svg version="1.1" id="Layer_1" xmlns="http://www.w3.org/2000/svg" xmlns:xlink="http://www.w3.org/1999/xlink" x="0px" y="0px"
	 width="425.197px" height="425.196px" viewBox="0 0 425.197 425.196" style="enable-background:new 0 0 425.197 425.196;"
	 xml:space="preserve">
<g id="CIRCLE_2_">
	<path style="fill:#FFFFFF;stroke:#005EB8;stroke-width:0.5;stroke-miterlimit:10;" d="M411.025,212.601
		c0-109.588-88.84-198.428-198.428-198.428S14.172,103.013,14.172,212.601c0,109.583,88.837,198.423,198.425,198.423
		S411.025,322.184,411.025,212.601L411.025,212.601z"/>
</g>
<g id="CIRCLE_3_">
	<path style="fill:#005EB8;" d="M401.723,212.601c0-104.45-84.676-189.126-189.126-189.126
		c-104.45,0-189.124,84.676-189.124,189.126c0,104.449,84.674,189.121,189.124,189.121
		C317.047,401.722,401.723,317.05,401.723,212.601L401.723,212.601z"/>
</g>
<g id="LWPOLYLINE">
	<path style="fill:#FFFFFF;" d="M167.143,137.601l65.595,65.818c8.942,8.98,13.97,21.137,13.97,33.811v98.577h30.998v-98.577
		c0-20.876-8.267-40.897-22.997-55.688l-65.638-65.86h65.767l-27.904-27.904H139.24v87.694l27.903,27.903V137.601z"/>
</g>
</svg>
