<?xml version="1.0" encoding="iso-8859-1"?>
<!-- Generator: Adobe Illustrator 16.0.0, SVG Export Plug-In . SVG Version: 6.00 Build 0)  -->
<!DOCTYPE svg PUBLIC "-//W3C//DTD SVG 1.1//EN" "http://www.w3.org/Graphics/SVG/1.1/DTD/svg11.dtd">
<svg version="1.1" id="Layer_1" xmlns="http://www.w3.org/2000/svg" xmlns:xlink="http://www.w3.org/1999/xlink" x="0px" y="0px"
	 width="425.197px" height="425.196px" viewBox="0 0 425.197 425.196" style="enable-background:new 0 0 425.197 425.196;"
	 xml:space="preserve">
<g id="CIRCLE_4_">
	<path style="fill:#FFFFFF;stroke:#005EB8;stroke-width:0.5;stroke-miterlimit:10;" d="M411.023,212.601
		c0-109.587-88.835-198.426-198.421-198.426c-109.587,0-198.428,88.839-198.428,198.426c0,109.586,88.841,198.421,198.428,198.421
		C322.188,411.021,411.023,322.187,411.023,212.601L411.023,212.601z"/>
</g>
<g id="CIRCLE_3_">
	<path style="fill:#005EB8;" d="M401.724,212.601c0-104.45-84.677-189.123-189.122-189.123
		c-104.455,0-189.125,84.673-189.125,189.123c0,104.445,84.67,189.122,189.125,189.122
		C317.047,401.723,401.724,317.046,401.724,212.601L401.724,212.601z"/>
</g>
<g id="LWPOLYLINE_1_">
	<path style="fill:#FFFFFF;" d="M152.681,165.838h67.361c24.909,0,45.103,20.193,45.103,45.094v125.428h30.997V210.932
		c0-42.027-34.063-76.1-76.1-76.1h-67.361l46.51-46.501h-39.466l-62.004,62.004l62.004,62.009h39.466L152.681,165.838z"/>
</g>
</svg>
