<?xml version="1.0" encoding="iso-8859-1"?>
<!-- Generator: Adobe Illustrator 16.0.0, SVG Export Plug-In . SVG Version: 6.00 Build 0)  -->
<!DOCTYPE svg PUBLIC "-//W3C//DTD SVG 1.1//EN" "http://www.w3.org/Graphics/SVG/1.1/DTD/svg11.dtd">
<svg version="1.1" id="Layer_1" xmlns="http://www.w3.org/2000/svg" xmlns:xlink="http://www.w3.org/1999/xlink" x="0px" y="0px"
	 width="425.197px" height="425.196px" viewBox="0 0 425.197 425.196" style="enable-background:new 0 0 425.197 425.196;"
	 xml:space="preserve">
<g id="CIRCLE_4_">
	<path style="fill:#FFFFFF;" d="M411.024,212.601c0-109.587-88.835-198.427-198.423-198.427
		c-109.587,0-198.428,88.84-198.428,198.427c0,109.586,88.841,198.422,198.428,198.422
		C322.189,411.022,411.024,322.187,411.024,212.601L411.024,212.601z"/>
</g>
<g id="CIRCLE_2_">
	<path style="fill:none;stroke:#005EB8;stroke-width:0.5;stroke-miterlimit:10;" d="M411.024,212.601
		c0-109.587-88.835-198.427-198.423-198.427c-109.587,0-198.428,88.84-198.428,198.427c0,109.586,88.841,198.422,198.428,198.422
		C322.189,411.022,411.024,322.187,411.024,212.601L411.024,212.601z"/>
</g>
<g id="CIRCLE_3_">
	<path style="fill:#005EB8;" d="M401.725,212.601c0-104.451-84.677-189.124-189.124-189.124
		c-104.455,0-189.126,84.672-189.126,189.124c0,104.445,84.671,189.123,189.126,189.123
		C317.048,401.724,401.725,317.046,401.725,212.601L401.725,212.601z"/>
</g>
<g id="LWPOLYLINE">
	<path style="fill:#FFFFFF;" d="M194.618,304.204v63.416h-31.007V112.546l-38.762,38.763v-39.466l54.266-54.266l54.248,54.256
		v39.458l-38.745-38.745v130.357c13.068-9.614,28.869-14.8,45.095-14.8l57.774-0.004l-38.754-38.759h39.457l54.266,54.262
		l-54.257,54.252h-39.457l38.753-38.753l-57.782,0.004C214.802,259.105,194.618,279.294,194.618,304.204z"/>
</g>
</svg>
