<?xml version="1.0" encoding="UTF-8" standalone="no"?>
<!-- Generator: Adobe Illustrator 16.0.0, SVG Export Plug-In . SVG Version: 6.00 Build 0)  -->

<svg
   xmlns:dc="http://purl.org/dc/elements/1.1/"
   xmlns:cc="http://creativecommons.org/ns#"
   xmlns:rdf="http://www.w3.org/1999/02/22-rdf-syntax-ns#"
   xmlns:svg="http://www.w3.org/2000/svg"
   xmlns="http://www.w3.org/2000/svg"
   xmlns:sodipodi="http://sodipodi.sourceforge.net/DTD/sodipodi-0.dtd"
   xmlns:inkscape="http://www.inkscape.org/namespaces/inkscape"
   version="1.1"
   id="Layer_1"
   x="0px"
   y="0px"
   width="397.35101"
   height="397.349"
   viewBox="0 0 397.35102 397.34899"
   xml:space="preserve"
   sodipodi:docname="D1.6.svg"
   inkscape:version="0.92.5 (2060ec1f9f, 2020-04-08)"><metadata
   id="metadata173"><rdf:RDF><cc:Work
       rdf:about=""><dc:format>image/svg+xml</dc:format><dc:type
         rdf:resource="http://purl.org/dc/dcmitype/StillImage" /></cc:Work></rdf:RDF></metadata><defs
   id="defs171" /><sodipodi:namedview
   pagecolor="#ffffff"
   bordercolor="#666666"
   borderopacity="1"
   objecttolerance="10"
   gridtolerance="10"
   guidetolerance="10"
   inkscape:pageopacity="0"
   inkscape:pageshadow="2"
   inkscape:window-width="640"
   inkscape:window-height="480"
   id="namedview169"
   showgrid="false"
   inkscape:zoom="0.55503813"
   inkscape:cx="198.6755"
   inkscape:cy="198.67499"
   inkscape:window-x="0"
   inkscape:window-y="0"
   inkscape:window-maximized="0"
   inkscape:current-layer="Layer_1" />
<g
   id="CIRCLE_4_"
   transform="translate(-13.923,-13.924)">
	<path
   style="fill:#ffffff"
   d="m 411.024,212.601 c 0,-109.587 -88.835,-198.427 -198.423,-198.427 -109.587,0 -198.428,88.84 -198.428,198.427 0,109.586 88.841,198.422 198.428,198.422 109.588,-0.001 198.423,-88.836 198.423,-198.422 z"
   id="path156"
   inkscape:connector-curvature="0" />
</g>
<g
   id="CIRCLE_2_"
   transform="translate(-13.923,-13.924)">
	<path
   style="fill:none;stroke:#005eb8;stroke-width:0.5;stroke-miterlimit:10"
   d="m 411.024,212.601 c 0,-109.587 -88.835,-198.427 -198.423,-198.427 -109.587,0 -198.428,88.84 -198.428,198.427 0,109.586 88.841,198.422 198.428,198.422 109.588,-0.001 198.423,-88.836 198.423,-198.422 z"
   id="path159"
   inkscape:connector-curvature="0" />
</g>
<g
   id="CIRCLE_3_"
   transform="translate(-13.923,-13.924)">
	<path
   style="fill:#005eb8"
   d="m 401.725,212.601 c 0,-104.451 -84.677,-189.124 -189.124,-189.124 -104.455,0 -189.126,84.672 -189.126,189.124 0,104.445 84.671,189.123 189.126,189.123 104.447,0 189.124,-84.678 189.124,-189.123 z"
   id="path162"
   inkscape:connector-curvature="0" />
</g>
<g
   id="LWPOLYLINE"
   transform="translate(-13.923,-13.924)">
	<path
   style="fill:#ffffff"
   d="M 194.618,304.204 V 367.62 H 163.611 V 112.546 l -38.762,38.763 v -39.466 l 54.266,-54.266 54.248,54.256 v 39.458 l -38.745,-38.745 v 130.357 c 13.068,-9.614 28.869,-14.8 45.095,-14.8 l 57.774,-0.004 -38.754,-38.759 h 39.457 l 54.266,54.262 -54.257,54.252 h -39.457 l 38.753,-38.753 -57.782,0.004 c -24.911,0 -45.095,20.189 -45.095,45.099 z"
   id="path165"
   inkscape:connector-curvature="0" />
</g>
</svg>