<?xml version="1.0" encoding="iso-8859-1"?>
<!-- Generator: Adobe Illustrator 16.0.0, SVG Export Plug-In . SVG Version: 6.00 Build 0)  -->
<!DOCTYPE svg PUBLIC "-//W3C//DTD SVG 1.1//EN" "http://www.w3.org/Graphics/SVG/1.1/DTD/svg11.dtd">
<svg version="1.1" id="Layer_1" xmlns="http://www.w3.org/2000/svg" xmlns:xlink="http://www.w3.org/1999/xlink" x="0px" y="0px"
	 width="425.197px" height="425.196px" viewBox="0 0 425.197 425.196" style="enable-background:new 0 0 425.197 425.196;"
	 xml:space="preserve">
<g id="CIRCLE_4_">
	<path style="fill:#FFFFFF;" d="M411.023,212.601c0-109.587-88.835-198.426-198.421-198.426
		c-109.587,0-198.428,88.839-198.428,198.426c0,109.586,88.841,198.421,198.428,198.421
		C322.188,411.021,411.023,322.187,411.023,212.601L411.023,212.601z"/>
</g>
<g id="CIRCLE_2_">
	<path style="fill:none;stroke:#005EB8;stroke-width:0.5;stroke-miterlimit:10;" d="M411.023,212.601
		c0-109.587-88.835-198.426-198.421-198.426c-109.587,0-198.428,88.839-198.428,198.426c0,109.586,88.841,198.421,198.428,198.421
		C322.188,411.021,411.023,322.187,411.023,212.601L411.023,212.601z"/>
</g>
<g id="CIRCLE_3_">
	<path style="fill:#005EB8;" d="M401.724,212.601c0-104.45-84.677-189.123-189.122-189.123
		c-104.455,0-189.125,84.673-189.125,189.123c0,104.445,84.67,189.122,189.125,189.122
		C317.047,401.723,401.724,317.046,401.724,212.601L401.724,212.601z"/>
</g>
<g id="LWPOLYLINE_3_">
	<path style="fill:#FFFFFF;" d="M230.585,304.203v63.416h31.006V112.547l38.763,38.763v-39.467l-54.266-54.265l-54.248,54.256
		v39.457l38.745-38.744v130.356c-13.068-9.614-28.869-14.8-45.094-14.8l-57.774-0.004l38.754-38.759h-39.466l-54.257,54.262
		l54.257,54.252h39.457l-38.754-38.754l57.783,0.005C210.392,259.105,230.585,279.294,230.585,304.203z"/>
</g>
</svg>
