<?xml version="1.0" encoding="iso-8859-1"?>
<!-- Generator: Adobe Illustrator 16.0.0, SVG Export Plug-In . SVG Version: 6.00 Build 0)  -->
<!DOCTYPE svg PUBLIC "-//W3C//DTD SVG 1.1//EN" "http://www.w3.org/Graphics/SVG/1.1/DTD/svg11.dtd">
<svg version="1.1" id="Layer_1" xmlns="http://www.w3.org/2000/svg" xmlns:xlink="http://www.w3.org/1999/xlink" x="0px" y="0px"
	 width="425.197px" height="425.196px" viewBox="0 0 425.197 425.196" style="enable-background:new 0 0 425.197 425.196;"
	 xml:space="preserve">
<g id="CIRCLE_2_">
	<path style="fill:#FFFFFF;stroke:#005EB8;stroke-width:0.5;stroke-miterlimit:10;" d="M411.025,212.601
		c0-109.588-88.84-198.428-198.428-198.428S14.172,103.013,14.172,212.601c0,109.583,88.837,198.423,198.425,198.423
		S411.025,322.184,411.025,212.601L411.025,212.601z"/>
</g>
<g id="CIRCLE_3_">
	<path style="fill:#005EB8;" d="M401.723,212.601c0-104.45-84.676-189.126-189.126-189.126
		c-104.45,0-189.124,84.676-189.124,189.126c0,104.449,84.674,189.121,189.124,189.121
		C317.047,401.722,401.723,317.05,401.723,212.601L401.723,212.601z"/>
</g>
<g id="LWPOLYLINE">
	<path style="fill:#FFFFFF;" d="M233.602,203.667c-19.021-8.027-41.009-3.728-55.603,10.865l-51.224,51.221v-54.807L98.872,238.85
		v76.734h76.727l27.903-27.903h-54.807l51.225-51.221c3.701-3.701,8.72-5.779,13.951-5.779c10.9,0,19.731,8.831,19.731,19.727
		v117.209h31.007L264.6,112.549l38.761,38.756v-39.466l-54.26-54.26l-54.251,54.255v39.457l38.752-38.748V203.667z"/>
</g>
</svg>
