<?xml version="1.0" encoding="iso-8859-1"?>
<!-- Generator: Adobe Illustrator 16.0.0, SVG Export Plug-In . SVG Version: 6.00 Build 0)  -->
<!DOCTYPE svg PUBLIC "-//W3C//DTD SVG 1.1//EN" "http://www.w3.org/Graphics/SVG/1.1/DTD/svg11.dtd">
<svg version="1.1" id="Layer_1" xmlns="http://www.w3.org/2000/svg" xmlns:xlink="http://www.w3.org/1999/xlink" x="0px" y="0px"
	 width="425.197px" height="425.196px" viewBox="0 0 425.197 425.196" style="enable-background:new 0 0 425.197 425.196;"
	 xml:space="preserve">
<g id="ELLIPSE">
	<path style="fill:#FFFFFF;stroke:#005EB8;stroke-width:0.5;stroke-miterlimit:10;" d="M411.025,212.6
		c0-109.584-88.84-198.426-198.428-198.426c-109.588,0-198.425,88.842-198.425,198.426c0,109.588,88.837,198.423,198.425,198.423
		C322.185,411.022,411.025,322.188,411.025,212.6"/>
</g>
<g id="CIRCLE_2_">
	<path style="fill:#005EB8;" d="M401.718,212.6c0-104.453-84.673-189.126-189.121-189.126S23.473,108.146,23.473,212.6
		s84.676,189.126,189.124,189.126S401.718,317.053,401.718,212.6L401.718,212.6z"/>
</g>
<g id="LWPOLYLINE_3_">
	<path style="fill:#FFFFFF;" d="M224.996,257.556c0,28.252,22.904,51.155,51.156,51.155c28.251,0,51.155-22.903,51.155-51.155
		v-83.708c0-28.257-22.904-51.156-51.155-51.156c-28.252,0-51.156,22.899-51.156,51.156V257.556z"/>
</g>
<g id="LWPOLYLINE_4_">
	<path style="fill:#FFFFFF;" d="M102.54,257.556c0,28.252,22.904,51.155,51.156,51.155c28.251,0,51.155-22.903,51.155-51.155v-20.46
		c0-28.257-22.904-51.156-51.155-51.156c-7.133,0-14.185,1.488-20.713,4.378l3.977-39.726h51.155l-1.866-27.9h-74.402l-9.306,93.01
		l32.553,7.439c4.392-5.856,11.29-9.301,18.603-9.301c12.841,0,23.256,10.41,23.256,23.256v20.46
		c0,12.841-10.415,23.256-23.256,23.256s-23.247-10.415-23.247-23.256H102.54z"/>
</g>
<g id="LWPOLYLINE_5_">
	<path style="fill:#005EB8;" d="M252.905,257.556c0,12.841,10.406,23.256,23.247,23.256s23.256-10.415,23.256-23.256v-83.708
		c0-12.846-10.415-23.256-23.256-23.256s-23.247,10.41-23.247,23.256V257.556z"/>
</g>
</svg>
