<?xml version="1.0" encoding="UTF-8" standalone="no"?>
<svg
   xmlns:dc="http://purl.org/dc/elements/1.1/"
   xmlns:cc="http://creativecommons.org/ns#"
   xmlns:rdf="http://www.w3.org/1999/02/22-rdf-syntax-ns#"
   xmlns:svg="http://www.w3.org/2000/svg"
   xmlns="http://www.w3.org/2000/svg"
   xmlns:sodipodi="http://sodipodi.sourceforge.net/DTD/sodipodi-0.dtd"
   xmlns:inkscape="http://www.inkscape.org/namespaces/inkscape"
   inkscape:version="1.0 (4035a4fb49, 2020-05-01)"
   sodipodi:docname="D10_blanko.svg"
   xml:space="preserve"
   viewBox="0 0 397.35301 397.34899"
   height="397.349"
   width="397.353"
   y="0px"
   x="0px"
   id="Layer_1"
   version="1.1"><metadata
   id="metadata310"><rdf:RDF><cc:Work
       rdf:about=""><dc:format>image/svg+xml</dc:format><dc:type
         rdf:resource="http://purl.org/dc/dcmitype/StillImage" /><dc:title></dc:title></cc:Work></rdf:RDF></metadata><defs
   id="defs308" /><sodipodi:namedview
   inkscape:document-rotation="0"
   inkscape:current-layer="Layer_1"
   inkscape:window-maximized="0"
   inkscape:window-y="245"
   inkscape:window-x="321"
   inkscape:cy="251.20537"
   inkscape:cx="168.74224"
   inkscape:zoom="1.1100763"
   showgrid="false"
   id="namedview306"
   inkscape:window-height="821"
   inkscape:window-width="984"
   inkscape:pageshadow="2"
   inkscape:pageopacity="0"
   guidetolerance="10"
   gridtolerance="10"
   objecttolerance="10"
   borderopacity="1"
   bordercolor="#666666"
   pagecolor="#ffffff" />
<g
   transform="translate(-13.922,-13.924)"
   id="ELLIPSE">
	<path
   inkscape:connector-curvature="0"
   id="path290"
   d="m 411.025,212.6 c 0,-109.584 -88.84,-198.426 -198.428,-198.426 -109.588,0 -198.425,88.842 -198.425,198.426 0,109.588 88.837,198.423 198.425,198.423 109.588,-0.001 198.428,-88.835 198.428,-198.423"
   style="fill:#ffffff;stroke:#005eb8;stroke-width:0.5;stroke-miterlimit:10" />
</g>
<g
   transform="translate(-13.922,-13.924)"
   id="CIRCLE_2_">
	<path
   inkscape:connector-curvature="0"
   id="path293"
   d="m 401.718,212.6 c 0,-104.453 -84.673,-189.126 -189.121,-189.126 -104.448,0 -189.124,84.672 -189.124,189.126 0,104.454 84.676,189.126 189.124,189.126 104.448,0 189.121,-84.673 189.121,-189.126 z"
   style="fill:#005eb8" />
</g>



</svg>
