<?xml version="1.0" encoding="iso-8859-1"?>
<!-- Generator: Adobe Illustrator 16.0.0, SVG Export Plug-In . SVG Version: 6.00 Build 0)  -->
<!DOCTYPE svg PUBLIC "-//W3C//DTD SVG 1.1//EN" "http://www.w3.org/Graphics/SVG/1.1/DTD/svg11.dtd">
<svg version="1.1" id="Layer_1" xmlns="http://www.w3.org/2000/svg" xmlns:xlink="http://www.w3.org/1999/xlink" x="0px" y="0px"
	 width="425.197px" height="425.196px" viewBox="0 0 425.197 425.196" style="enable-background:new 0 0 425.197 425.196;"
	 xml:space="preserve">
<g id="ELLIPSE">
	<path style="fill:#FFFFFF;stroke:#005EB8;stroke-width:0.5;stroke-miterlimit:10;" d="M411.023,212.596
		c0-109.586-88.836-198.423-198.423-198.423c-109.586,0-198.425,88.837-198.425,198.423c0,109.589,88.839,198.428,198.425,198.428
		C322.187,411.023,411.023,322.185,411.023,212.596"/>
</g>
<g id="CIRCLE_2_">
	<path style="fill:#005EB8;" d="M401.722,212.596c0-104.449-84.672-189.123-189.123-189.123
		c-104.449,0-189.125,84.674-189.125,189.123c0,104.451,84.676,189.124,189.125,189.124
		C317.05,401.72,401.722,317.047,401.722,212.596L401.722,212.596z"/>
</g>
<g id="LWPOLYLINE_7_">
	<path style="fill:#FFFFFF;" d="M225.001,254.445c0,28.249,22.9,51.148,51.148,51.148c28.242,0,51.148-22.899,51.148-51.148v-83.698
		c0-28.248-22.906-51.146-51.148-51.146c-28.248,0-51.148,22.899-51.148,51.146V254.445z"/>
</g>
<g id="LWPOLYLINE_8_">
	<path style="fill:#FFFFFF;" d="M114.04,204.139c-10.296,9.667-16.138,23.163-16.138,37.288v13.019
		c0,28.249,22.899,51.148,51.146,51.148c28.25,0,51.149-22.899,51.149-51.148v-13.019c0-14.125-5.838-27.621-16.138-37.288
		c7.411-8.476,11.488-19.348,11.488-30.601v-7.441c0-25.679-20.813-46.497-46.499-46.497c-25.679,0-46.497,20.818-46.497,46.497
		v7.441C102.552,184.791,106.633,195.663,114.04,204.139z"/>
</g>
<g id="LWPOLYLINE_9_">
	<path style="fill:#005EB8;" d="M125.801,254.445c0,12.842,10.409,23.249,23.247,23.249c12.847,0,23.25-10.407,23.25-23.249v-13.019
		c0-12.838-10.402-23.249-23.25-23.249c-12.838,0-23.247,10.411-23.247,23.249V254.445z"/>
</g>
<g id="LWPOLYLINE_10_">
	<path style="fill:#005EB8;" d="M130.451,166.097v7.441c0,10.27,8.332,18.6,18.597,18.6c10.274,0,18.6-8.33,18.6-18.6v-7.441
		c0-10.27-8.325-18.599-18.6-18.599C138.783,147.498,130.451,155.827,130.451,166.097z"/>
</g>
<g id="LWPOLYLINE_11_">
	<path style="fill:#005EB8;" d="M252.902,254.445c0,12.842,10.402,23.249,23.248,23.249c12.84,0,23.25-10.407,23.25-23.249v-83.698
		c0-12.838-10.41-23.249-23.25-23.249c-12.846,0-23.248,10.411-23.248,23.249V254.445z"/>
</g>
</svg>
