<?xml version="1.0" encoding="iso-8859-1"?>
<!-- Generator: Adobe Illustrator 16.0.0, SVG Export Plug-In . SVG Version: 6.00 Build 0)  -->
<!DOCTYPE svg PUBLIC "-//W3C//DTD SVG 1.1//EN" "http://www.w3.org/Graphics/SVG/1.1/DTD/svg11.dtd">
<svg version="1.1" id="Layer_1" xmlns="http://www.w3.org/2000/svg" xmlns:xlink="http://www.w3.org/1999/xlink" x="0px" y="0px"
	 width="425.197px" height="425.196px" viewBox="0 0 425.197 425.196" style="enable-background:new 0 0 425.197 425.196;"
	 xml:space="preserve">
<g id="CIRCLE_4_">
	<path style="fill:#FFFFFF;" d="M411.023,212.601c0-109.587-88.835-198.426-198.421-198.426
		c-109.587,0-198.428,88.839-198.428,198.426c0,109.586,88.841,198.421,198.428,198.421
		C322.188,411.021,411.023,322.187,411.023,212.601L411.023,212.601z"/>
</g>
<g id="CIRCLE_2_">
	<path style="fill:none;stroke:#005EB8;stroke-width:0.5;stroke-miterlimit:10;" d="M411.023,212.601
		c0-109.587-88.835-198.426-198.421-198.426c-109.587,0-198.428,88.839-198.428,198.426c0,109.586,88.841,198.421,198.428,198.421
		C322.188,411.021,411.023,322.187,411.023,212.601L411.023,212.601z"/>
</g>
<g id="CIRCLE_3_">
	<path style="fill:#005EB8;" d="M401.724,212.601c0-104.45-84.677-189.125-189.122-189.125
		c-104.455,0-189.125,84.675-189.125,189.125c0,104.445,84.67,189.122,189.125,189.122
		C317.047,401.723,401.724,317.046,401.724,212.601L401.724,212.601z"/>
</g>
<g id="LWPOLYLINE_11_">
	<path style="fill:#E4002B;" d="M97.559,362.713l265.15-265.15c-10.102-13.182-21.889-24.976-35.074-35.076L62.485,327.634
		C72.586,340.819,84.382,352.611,97.559,362.713z"/>
</g>
<g id="LWPOLYLINE_12_">
	<path style="fill:#FFFFFF;" d="M100.066,364.598l264.528-264.533c-0.622-0.841-1.244-1.673-1.885-2.502l-265.15,265.15
		C98.389,363.349,99.227,363.975,100.066,364.598z"/>
</g>
<g id="LWPOLYLINE_13_">
	<path style="fill:#FFFFFF;" d="M60.6,325.136L325.137,60.604c0.839,0.62,1.669,1.247,2.498,1.883L62.485,327.634
		C61.854,326.809,61.222,325.975,60.6,325.136z"/>
</g>
<g id="LWPOLYLINE_14_">
	<path style="fill:#FFFFFF;" d="M260.663,125.071c-15.837,5.028-28.246,17.44-33.279,33.284L260.663,125.071z"/>
</g>
<g id="LWPOLYLINE_15_">
	<path style="fill:#FFFFFF;" d="M187.259,198.479c-14.98-13.025-36.138-16.214-54.284-8.176l3.969-39.726h51.154l-1.858-27.903
		h-74.404l-9.308,93.012l32.558,7.44c7.64-10.188,22.061-12.335,32.332-4.812L187.259,198.479z"/>
</g>
<g id="LWPOLYLINE_16_">
	<path style="fill:#FFFFFF;" d="M128.196,257.541h-25.668c0,7.277,1.561,14.475,4.563,21.108L128.196,257.541z"/>
</g>
<g id="LWPOLYLINE_17_">
	<path style="fill:#FFFFFF;" d="M156.018,308.646c26.425-1.204,47.565-22.354,48.773-48.775L156.018,308.646z"/>
</g>
<g id="LWPOLYLINE_18_">
	<path style="fill:#FFFFFF;" d="M318.906,145.756c5.474,8.34,8.396,18.099,8.396,28.075v83.71c0,28.256-22.908,51.154-51.163,51.154
		c-28.247,0-51.154-22.898-51.154-51.154v-17.866l27.903-27.904v45.771c0,12.843,10.408,23.25,23.251,23.25
		c12.842,0,23.259-10.407,23.259-23.25v-83.71c0-2.505-0.406-4.992-1.199-7.368L318.906,145.756z"/>
</g>
</svg>
