<?xml version="1.0" encoding="iso-8859-1"?>
<!-- Generator: Adobe Illustrator 16.0.0, SVG Export Plug-In . SVG Version: 6.00 Build 0)  -->
<!DOCTYPE svg PUBLIC "-//W3C//DTD SVG 1.1//EN" "http://www.w3.org/Graphics/SVG/1.1/DTD/svg11.dtd">
<svg version="1.1" id="Layer_1" xmlns="http://www.w3.org/2000/svg" xmlns:xlink="http://www.w3.org/1999/xlink" x="0px" y="0px"
	 width="425.197px" height="425.196px" viewBox="0 0 425.197 425.196" style="enable-background:new 0 0 425.197 425.196;"
	 xml:space="preserve">
<g id="CIRCLE_5_">
	<path style="fill:#FFFFFF;stroke:#005EB8;stroke-width:0.5;stroke-miterlimit:10;" d="M411.025,212.601
		c0-109.59-88.84-198.428-198.428-198.428c-109.585,0-198.425,88.837-198.425,198.428c0,109.583,88.84,198.423,198.425,198.423
		C322.185,411.023,411.025,322.184,411.025,212.601L411.025,212.601z"/>
</g>
<g id="CIRCLE_7_">
	<path style="fill:#005EB8;" d="M401.723,212.601c0-104.452-84.676-189.126-189.126-189.126
		c-104.452,0-189.124,84.674-189.124,189.126c0,104.449,84.672,189.121,189.124,189.121
		C317.047,401.722,401.723,317.05,401.723,212.601L401.723,212.601z"/>
</g>
<g id="LWPOLYLINE_24_">
	<path style="fill:#E4002B;" d="M97.562,362.71L362.707,97.561c-10.097-13.18-21.894-24.976-35.076-35.076L62.481,327.634
		C72.586,340.815,84.379,352.609,97.562,362.71z"/>
</g>
<g id="LWPOLYLINE_18_">
	<path style="fill:#FFFFFF;" d="M100.062,364.595l264.533-264.534c-0.623-0.838-1.248-1.671-1.889-2.5L97.562,362.71
		C98.387,363.347,99.22,363.975,100.062,364.595z"/>
</g>
<g id="LWPOLYLINE_19_">
	<path style="fill:#FFFFFF;" d="M60.601,325.133L325.134,60.6c0.838,0.622,1.667,1.25,2.496,1.885L62.481,327.634
		C61.849,326.805,61.221,325.976,60.601,325.133z"/>
</g>
<g id="LWPOLYLINE_20_">
	<path style="fill:#FFFFFF;" d="M264.89,120.841c-19.252,4.347-34.289,19.382-38.641,38.636L264.89,120.841z"/>
</g>
<g id="LWPOLYLINE_21_">
	<path style="fill:#FFFFFF;" d="M181.548,204.188l-20.192,20.192c-11.473-5.771-25.45-1.154-31.227,10.318
		c-1.633,3.24-2.483,6.821-2.483,10.455v9.301c0,1.129,0.085,2.266,0.248,3.386l-21.62,21.62
		c-4.283-7.639-6.531-16.251-6.531-25.006v-29.1c6.643-38.641,22.855-75.004,47.158-105.769h37.213
		c-21.466,21.68-37.871,47.841-48.036,76.604C151.644,191.476,168.52,194.447,181.548,204.188z"/>
</g>
<g id="LWPOLYLINE_22_">
	<path style="fill:#FFFFFF;" d="M252.905,211.754v42.701c0,12.841,10.404,23.253,23.253,23.253
		c12.841,0,23.253-10.412,23.253-23.253v-83.71c0-1.667-0.18-3.334-0.538-4.963l21.227-21.227c4.719,7.92,7.215,16.965,7.215,26.189
		v83.71c0,28.25-22.91,51.156-51.156,51.156c-28.254,0-51.156-22.906-51.156-51.156v-14.798L252.905,211.754z"/>
</g>
<g id="LWPOLYLINE_23_">
	<path style="fill:#FFFFFF;" d="M159.833,304.825l41.437-41.437C197.517,284.526,180.975,301.072,159.833,304.825z"/>
</g>
</svg>
