<?xml version="1.0" encoding="UTF-8" standalone="no"?>
<svg
   xmlns:dc="http://purl.org/dc/elements/1.1/"
   xmlns:cc="http://creativecommons.org/ns#"
   xmlns:rdf="http://www.w3.org/1999/02/22-rdf-syntax-ns#"
   xmlns:svg="http://www.w3.org/2000/svg"
   xmlns="http://www.w3.org/2000/svg"
   xmlns:sodipodi="http://sodipodi.sourceforge.net/DTD/sodipodi-0.dtd"
   xmlns:inkscape="http://www.inkscape.org/namespaces/inkscape"
   inkscape:version="1.0 (4035a4fb49, 2020-05-01)"
   sodipodi:docname="D11_blanko.svg"
   xml:space="preserve"
   viewBox="0 0 397.34901 397.34697"
   height="397.34698"
   width="397.349"
   y="0px"
   x="0px"
   id="Layer_1"
   version="1.1"><metadata
   id="metadata425"><rdf:RDF><cc:Work
       rdf:about=""><dc:format>image/svg+xml</dc:format><dc:type
         rdf:resource="http://purl.org/dc/dcmitype/StillImage" /><dc:title></dc:title></cc:Work></rdf:RDF></metadata><defs
   id="defs423" /><sodipodi:namedview
   inkscape:document-rotation="0"
   inkscape:current-layer="Layer_1"
   inkscape:window-maximized="0"
   inkscape:window-y="461"
   inkscape:window-x="471"
   inkscape:cy="187.77111"
   inkscape:cx="181.42799"
   inkscape:zoom="1.1100763"
   showgrid="false"
   id="namedview421"
   inkscape:window-height="480"
   inkscape:window-width="687"
   inkscape:pageshadow="2"
   inkscape:pageopacity="0"
   guidetolerance="10"
   gridtolerance="10"
   objecttolerance="10"
   borderopacity="1"
   bordercolor="#666666"
   pagecolor="#ffffff" />
<g
   transform="translate(-13.924,-13.925)"
   id="CIRCLE_4_">
	<path
   inkscape:connector-curvature="0"
   id="path387"
   d="m 411.023,212.601 c 0,-109.587 -88.835,-198.426 -198.421,-198.426 -109.587,0 -198.428,88.839 -198.428,198.426 0,109.586 88.841,198.421 198.428,198.421 109.586,-10e-4 198.421,-88.835 198.421,-198.421 z"
   style="fill:#ffffff" />
</g>
<g
   transform="translate(-13.924,-13.925)"
   id="CIRCLE_2_">
	<path
   inkscape:connector-curvature="0"
   id="path390"
   d="m 411.023,212.601 c 0,-109.587 -88.835,-198.426 -198.421,-198.426 -109.587,0 -198.428,88.839 -198.428,198.426 0,109.586 88.841,198.421 198.428,198.421 109.586,-10e-4 198.421,-88.835 198.421,-198.421 z"
   style="fill:none;stroke:#005eb8;stroke-width:0.5;stroke-miterlimit:10" />
</g>
<g
   transform="translate(-13.924,-13.925)"
   id="CIRCLE_3_">
	<path
   inkscape:connector-curvature="0"
   id="path393"
   d="m 401.724,212.601 c 0,-104.45 -84.677,-189.125 -189.122,-189.125 -104.455,0 -189.125,84.675 -189.125,189.125 0,104.445 84.67,189.122 189.125,189.122 104.445,0 189.122,-84.677 189.122,-189.122 z"
   style="fill:#005eb8" />
</g>
<g
   transform="translate(-13.924,-13.925)"
   id="LWPOLYLINE_11_">
	<path
   inkscape:connector-curvature="0"
   id="path396"
   d="M 97.559,362.713 362.709,97.563 C 352.607,84.381 340.82,72.587 327.635,62.487 L 62.485,327.634 c 10.101,13.185 21.897,24.977 35.074,35.079 z"
   style="fill:#e4002b" />
</g>
<g
   transform="translate(-13.924,-13.925)"
   id="LWPOLYLINE_12_">
	<path
   inkscape:connector-curvature="0"
   id="path399"
   d="M 100.066,364.598 364.594,100.065 c -0.622,-0.841 -1.244,-1.673 -1.885,-2.502 l -265.15,265.15 c 0.83,0.636 1.668,1.262 2.507,1.885 z"
   style="fill:#ffffff" />
</g>
<g
   transform="translate(-13.924,-13.925)"
   id="LWPOLYLINE_13_">
	<path
   inkscape:connector-curvature="0"
   id="path402"
   d="M 60.6,325.136 325.137,60.604 c 0.839,0.62 1.669,1.247 2.498,1.883 L 62.485,327.634 c -0.631,-0.825 -1.263,-1.659 -1.885,-2.498 z"
   style="fill:#ffffff" />
</g>





</svg>
