<?xml version="1.0" encoding="iso-8859-1"?>
<!-- Generator: Adobe Illustrator 16.0.0, SVG Export Plug-In . SVG Version: 6.00 Build 0)  -->
<!DOCTYPE svg PUBLIC "-//W3C//DTD SVG 1.1//EN" "http://www.w3.org/Graphics/SVG/1.1/DTD/svg11.dtd">
<svg version="1.1" id="Layer_1" xmlns="http://www.w3.org/2000/svg" xmlns:xlink="http://www.w3.org/1999/xlink" x="0px" y="0px"
	 width="425.197px" height="425.196px" viewBox="0 0 425.197 425.196" style="enable-background:new 0 0 425.197 425.196;"
	 xml:space="preserve">
<g id="CIRCLE_4_">
	<path style="fill:#FFFFFF;" d="M411.023,212.601c0-109.587-88.835-198.426-198.421-198.426
		c-109.587,0-198.428,88.839-198.428,198.426c0,109.586,88.841,198.421,198.428,198.421
		C322.188,411.021,411.023,322.187,411.023,212.601L411.023,212.601z"/>
</g>
<g id="CIRCLE_2_">
	<path style="fill:none;stroke:#005EB8;stroke-width:0.5;stroke-miterlimit:10;" d="M411.023,212.601
		c0-109.587-88.835-198.426-198.421-198.426c-109.587,0-198.428,88.839-198.428,198.426c0,109.586,88.841,198.421,198.428,198.421
		C322.188,411.021,411.023,322.187,411.023,212.601L411.023,212.601z"/>
</g>
<g id="CIRCLE_3_">
	<path style="fill:#005EB8;" d="M401.724,212.601c0-104.45-84.677-189.123-189.122-189.123
		c-104.455,0-189.125,84.673-189.125,189.123c0,104.445,84.67,189.122,189.125,189.122
		C317.047,401.723,401.724,317.046,401.724,212.601L401.724,212.601z"/>
</g>
<g id="LWPOLYLINE_3_">
	<path style="fill:#FFFFFF;" d="M187.593,122.17c-44.192,13.009-74.378,53.774-73.927,99.837l41.116-35.083l-2.741,34.186
		L96.91,268.057L49.967,212.93l2.751-34.23l30.519,35.795c-0.107-58.279,38.952-109.36,95.221-124.539L187.593,122.17z"/>
</g>
<g id="LWPOLYLINE_4_">
	<path style="fill:#FFFFFF;" d="M277.924,327.914c-50.234,29.13-113.753,21.004-155.022-19.837l23.331-24.017
		c33.55,31.407,83.739,37.08,123.457,13.956l-51.74-18.28l31.007-15.075l68.434,23.67l-23.665,68.425l-30.898,15.016
		L277.924,327.914z"/>
</g>
<g id="LWPOLYLINE_5_">
	<path style="fill:#FFFFFF;" d="M306.847,238.024c10.183-44.606-10.056-90.611-49.81-113.248l10.073,53.68l-28.246-19.409
		l-13.213-71.193l71.194-13.208l28.255,19.413l-46.311,8.481c50.216,28.811,74.99,87.622,60.524,143.683L306.847,238.024z"/>
</g>
</svg>
