<?xml version="1.0" encoding="iso-8859-1"?>
<!-- Generator: Adobe Illustrator 16.0.0, SVG Export Plug-In . SVG Version: 6.00 Build 0)  -->
<!DOCTYPE svg PUBLIC "-//W3C//DTD SVG 1.1//EN" "http://www.w3.org/Graphics/SVG/1.1/DTD/svg11.dtd">
<svg version="1.1" id="Layer_1" xmlns="http://www.w3.org/2000/svg" xmlns:xlink="http://www.w3.org/1999/xlink" x="0px" y="0px"
	 width="425.197px" height="425.196px" viewBox="0 0 425.197 425.196" style="enable-background:new 0 0 425.197 425.196;"
	 xml:space="preserve">
<g id="CIRCLE_2_">
	<path style="fill:#FFFFFF;stroke:#005EB8;stroke-width:0.5;stroke-miterlimit:10;" d="M411.024,212.599
		c0-109.59-88.839-198.426-198.426-198.426c-109.586,0-198.425,88.836-198.425,198.426c0,109.586,88.839,198.425,198.425,198.425
		C322.185,411.023,411.024,322.185,411.024,212.599L411.024,212.599z"/>
</g>
<g id="CIRCLE_4_">
	<path style="fill:#005EB8;" d="M401.722,212.599c0-104.45-84.673-189.124-189.124-189.124
		c-104.45,0-189.124,84.674-189.124,189.124s84.674,189.124,189.124,189.124C317.049,401.723,401.722,317.049,401.722,212.599
		L401.722,212.599z"/>
</g>
<g id="LWPOLYLINE_2_">
	<polygon style="fill:#FFFFFF;" points="89.436,117.5 256.259,284.32 170.513,284.32 207.922,321.726 321.725,321.726 
		321.725,207.919 284.324,170.518 284.324,256.256 117.507,89.439 	"/>
</g>
</svg>
