<?xml version="1.0" encoding="UTF-8" standalone="no"?>
<!-- Generator: Adobe Illustrator 16.0.0, SVG Export Plug-In . SVG Version: 6.00 Build 0)  -->

<svg
   xmlns:dc="http://purl.org/dc/elements/1.1/"
   xmlns:cc="http://creativecommons.org/ns#"
   xmlns:rdf="http://www.w3.org/1999/02/22-rdf-syntax-ns#"
   xmlns:svg="http://www.w3.org/2000/svg"
   xmlns="http://www.w3.org/2000/svg"
   xmlns:sodipodi="http://sodipodi.sourceforge.net/DTD/sodipodi-0.dtd"
   xmlns:inkscape="http://www.inkscape.org/namespaces/inkscape"
   version="1.1"
   id="Layer_1"
   x="0px"
   y="0px"
   width="397.35101"
   height="397.35101"
   viewBox="0 0 397.35102 397.351"
   xml:space="preserve"
   sodipodi:docname="D3.svg"
   inkscape:version="0.92.5 (2060ec1f9f, 2020-04-08)"><metadata
   id="metadata663"><rdf:RDF><cc:Work
       rdf:about=""><dc:format>image/svg+xml</dc:format><dc:type
         rdf:resource="http://purl.org/dc/dcmitype/StillImage" /></cc:Work></rdf:RDF></metadata><defs
   id="defs661" /><sodipodi:namedview
   pagecolor="#ffffff"
   bordercolor="#666666"
   borderopacity="1"
   objecttolerance="10"
   gridtolerance="10"
   guidetolerance="10"
   inkscape:pageopacity="0"
   inkscape:pageshadow="2"
   inkscape:window-width="640"
   inkscape:window-height="480"
   id="namedview659"
   showgrid="false"
   inkscape:zoom="0.55503813"
   inkscape:cx="198.6755"
   inkscape:cy="198.67599"
   inkscape:window-x="0"
   inkscape:window-y="0"
   inkscape:window-maximized="0"
   inkscape:current-layer="Layer_1" />
<g
   id="CIRCLE_2_"
   transform="translate(-13.923,-13.923)">
	<path
   style="fill:#ffffff;stroke:#005eb8;stroke-width:0.5;stroke-miterlimit:10"
   d="m 411.024,212.599 c 0,-109.59 -88.839,-198.426 -198.426,-198.426 -109.586,0 -198.425,88.836 -198.425,198.426 0,109.586 88.839,198.425 198.425,198.425 109.587,-10e-4 198.426,-88.839 198.426,-198.425 z"
   id="path649"
   inkscape:connector-curvature="0" />
</g>
<g
   id="CIRCLE_4_"
   transform="translate(-13.923,-13.923)">
	<path
   style="fill:#005eb8"
   d="m 401.722,212.599 c 0,-104.45 -84.673,-189.124 -189.124,-189.124 -104.45,0 -189.124,84.674 -189.124,189.124 0,104.45 84.674,189.124 189.124,189.124 104.451,0 189.124,-84.674 189.124,-189.124 z"
   id="path652"
   inkscape:connector-curvature="0" />
</g>
<g
   id="LWPOLYLINE_2_"
   transform="translate(-13.923,-13.923)">
	<polygon
   style="fill:#ffffff"
   points="170.513,284.32 207.922,321.726 321.725,321.726 321.725,207.919 284.324,170.518 284.324,256.256 117.507,89.439 89.436,117.5 256.259,284.32 "
   id="polygon655" />
</g>
</svg>