<?xml version="1.0" encoding="UTF-8" standalone="no"?>
<!-- Generator: Adobe Illustrator 16.0.0, SVG Export Plug-In . SVG Version: 6.00 Build 0)  -->

<svg
   xmlns:dc="http://purl.org/dc/elements/1.1/"
   xmlns:cc="http://creativecommons.org/ns#"
   xmlns:rdf="http://www.w3.org/1999/02/22-rdf-syntax-ns#"
   xmlns:svg="http://www.w3.org/2000/svg"
   xmlns="http://www.w3.org/2000/svg"
   xmlns:sodipodi="http://sodipodi.sourceforge.net/DTD/sodipodi-0.dtd"
   xmlns:inkscape="http://www.inkscape.org/namespaces/inkscape"
   version="1.1"
   id="Layer_1"
   x="0px"
   y="0px"
   width="397.349"
   height="397.34698"
   viewBox="0 0 397.34901 397.34697"
   xml:space="preserve"
   sodipodi:docname="D5.svg"
   inkscape:version="0.92.5 (2060ec1f9f, 2020-04-08)"><metadata
   id="metadata725"><rdf:RDF><cc:Work
       rdf:about=""><dc:format>image/svg+xml</dc:format><dc:type
         rdf:resource="http://purl.org/dc/dcmitype/StillImage" /></cc:Work></rdf:RDF></metadata><defs
   id="defs723" /><sodipodi:namedview
   pagecolor="#ffffff"
   bordercolor="#666666"
   borderopacity="1"
   objecttolerance="10"
   gridtolerance="10"
   guidetolerance="10"
   inkscape:pageopacity="0"
   inkscape:pageshadow="2"
   inkscape:window-width="640"
   inkscape:window-height="480"
   id="namedview721"
   showgrid="false"
   inkscape:zoom="0.55503813"
   inkscape:cx="198.6745"
   inkscape:cy="198.67399"
   inkscape:window-x="0"
   inkscape:window-y="0"
   inkscape:window-maximized="0"
   inkscape:current-layer="Layer_1" />
<g
   id="CIRCLE_2_"
   transform="translate(-13.924,-13.925)">
	<path
   style="fill:#ffffff"
   d="m 411.023,212.601 c 0,-109.587 -88.835,-198.426 -198.421,-198.426 -109.587,0 -198.428,88.839 -198.428,198.426 0,109.586 88.841,198.421 198.428,198.421 109.586,-10e-4 198.421,-88.835 198.421,-198.421 z"
   id="path693"
   inkscape:connector-curvature="0" />
</g>
<g
   id="CIRCLE_1_"
   transform="translate(-13.924,-13.925)">
	<path
   style="fill:#005eb8"
   d="m 401.724,212.601 c 0,-104.45 -84.677,-189.123 -189.122,-189.123 -104.455,0 -189.125,84.673 -189.125,189.123 0,104.445 84.67,189.122 189.125,189.122 104.445,0 189.122,-84.677 189.122,-189.122 z"
   id="path696"
   inkscape:connector-curvature="0" />
</g>
<g
   id="LWPOLYLINE_9_"
   transform="translate(-13.924,-13.925)">
	<path
   style="fill:#ffffff"
   d="m 261.411,175.759 14.241,20.328 c 5.465,-3.229 11.427,-5.546 17.632,-6.863 31.602,-6.7 62.652,13.483 69.354,45.085 6.702,31.602 -13.483,62.653 -45.085,69.354 -31.602,6.706 -62.652,-13.482 -69.354,-45.084 h -20.454 c -4.708,0 -9.199,-1.984 -12.374,-5.466 l -68.831,-73.394 -3.923,12.874 c 25.216,10.691 39.638,37.45 34.704,64.389 -5.826,31.777 -36.301,52.823 -68.083,46.997 -31.772,-5.817 -52.813,-36.301 -46.996,-68.073 5.826,-31.778 36.301,-52.818 68.082,-46.997 l 16.703,-54.807 c 2.507,-8.226 10.092,-13.84 18.687,-13.84 h 22.529 v 12.834 h -22.529 c -2.949,0 -5.547,1.926 -6.412,4.748 l -4.672,15.346 95.346,16.495 9.821,-26.573 -21.663,-5.943 c -1.307,-0.496 -2.137,-1.781 -2.056,-3.175 0.099,-1.768 1.605,-3.12 3.382,-3.021 h 1.687 46.834 v 12.653 H 273.29 Z"
   id="path699"
   inkscape:connector-curvature="0" />
</g>
<g
   id="CIRCLE"
   transform="translate(-13.924,-13.925)">
	<path
   style="fill:none;stroke:#005eb8;stroke-width:0.5;stroke-miterlimit:10"
   d="m 411.023,212.601 c 0,-109.587 -88.835,-198.426 -198.421,-198.426 -109.587,0 -198.428,88.839 -198.428,198.426 0,109.586 88.841,198.421 198.428,198.421 109.586,-10e-4 198.421,-88.835 198.421,-198.421 z"
   id="path702"
   inkscape:connector-curvature="0" />
</g>
<g
   id="LWPOLYLINE_6_"
   transform="translate(-13.924,-13.925)">
	<path
   style="fill:#005eb8"
   d="m 150.86,165.563 94.588,16.364 -22.402,60.557 c -0.001,0 -72.196,-76.925 -72.186,-76.921 z"
   id="path705"
   inkscape:connector-curvature="0" />
</g>
<g
   id="LWPOLYLINE_7_"
   transform="translate(-13.924,-13.925)">
	<path
   style="fill:#005eb8"
   d="m 272.847,214.449 c -8.216,8.365 -12.897,19.57 -13.077,31.295 h 35.001 z"
   id="path708"
   inkscape:connector-curvature="0" />
</g>
<g
   id="LWPOLYLINE_8_"
   transform="translate(-13.924,-13.925)">
	<path
   style="fill:#005eb8"
   d="m 246.927,245.744 c 0.189,-15.909 6.854,-31.056 18.452,-41.946 L 256,190.401 235.528,245.744 h 11.489 z"
   id="path711"
   inkscape:connector-curvature="0" />
</g>
<g
   id="LWPOLYLINE_10_"
   transform="translate(-13.924,-13.925)">
	<path
   style="fill:#005eb8"
   d="m 310.203,245.401 c 0.982,1.407 1.515,3.085 1.515,4.808 0,4.622 -3.752,8.369 -8.369,8.369 h -41.946 c 6.701,24.31 31.846,38.582 56.15,31.881 24.314,-6.701 38.582,-31.841 31.882,-56.15 -6.701,-24.306 -31.836,-38.582 -56.15,-31.881 -3.572,0.982 -7.008,2.398 -10.236,4.211 z"
   id="path714"
   inkscape:connector-curvature="0" />
</g>
<g
   id="LWPOLYLINE_11_"
   transform="translate(-13.924,-13.925)">
	<path
   style="fill:#005eb8"
   d="m 138.846,204.957 -12.833,42.113 c -0.081,0.374 -0.189,0.744 -0.334,1.1 -1.344,3.297 -5.096,4.889 -8.396,3.549 -3.301,-1.339 -4.888,-5.091 -3.553,-8.392 l 12.815,-42.036 c -24.938,-3.738 -48.179,13.447 -51.921,38.389 -3.734,24.937 13.456,48.182 38.393,51.916 24.937,3.738 48.178,-13.447 51.921,-38.384 3.012,-20.103 -7.63,-39.769 -26.092,-48.255 z"
   id="path717"
   inkscape:connector-curvature="0" />
</g>
</svg>