<?xml version="1.0" encoding="iso-8859-1"?>
<!-- Generator: Adobe Illustrator 16.0.0, SVG Export Plug-In . SVG Version: 6.00 Build 0)  -->
<!DOCTYPE svg PUBLIC "-//W3C//DTD SVG 1.1//EN" "http://www.w3.org/Graphics/SVG/1.1/DTD/svg11.dtd">
<svg version="1.1" id="Layer_1" xmlns="http://www.w3.org/2000/svg" xmlns:xlink="http://www.w3.org/1999/xlink" x="0px" y="0px"
	 width="425.197px" height="425.196px" viewBox="0 0 425.197 425.196" style="enable-background:new 0 0 425.197 425.196;"
	 xml:space="preserve">
<g id="LWPOLYLINE_13_">
	
		<rect x="129.919" y="287.008" style="fill:#005EB8;stroke:#005EB8;stroke-width:0.5;stroke-miterlimit:10;" width="165.36" height="124.016"/>
</g>
<g id="LWPOLYLINE_15_">
	<path style="fill:#FFFFFF;" d="M129.919,303.545v90.941c0,9.133,7.404,16.537,16.541,16.537h132.278
		c9.137,0,16.541-7.404,16.541-16.537v-90.941c0-9.137-7.404-16.537-16.541-16.537H146.46
		C137.323,287.008,129.919,294.408,129.919,303.545z"/>
</g>
<g id="CIRCLE_4_">
	<path style="fill:#FFFFFF;stroke:#005EB8;stroke-width:0.5;stroke-miterlimit:10;" d="M344.884,146.455
		c0-73.06-59.227-132.282-132.286-132.282c-73.06,0-132.287,59.223-132.287,132.282c0,73.061,59.227,132.287,132.287,132.287
		C285.658,278.742,344.884,219.516,344.884,146.455L344.884,146.455z"/>
</g>
<g id="CIRCLE_3_">
	<path style="fill:#005EB8;" d="M338.685,146.455c0-69.631-56.455-126.081-126.086-126.081c-69.631,0-126.086,56.45-126.086,126.081
		c0,69.632,56.455,126.086,126.086,126.086C282.23,272.541,338.685,216.087,338.685,146.455L338.685,146.455z"/>
</g>
<g id="LWPOLYLINE_14_">
	<path style="fill:#005EB8;" d="M138.189,303.545v90.941c0,4.569,3.702,8.271,8.271,8.271h132.278c4.568,0,8.27-3.702,8.27-8.271
		v-90.941c0-4.568-3.701-8.271-8.27-8.271H146.46C141.892,295.274,138.189,298.977,138.189,303.545z"/>
</g>
<g id="LWPOLYLINE_22_">
	<path style="fill:#FFFFFF;" d="M245.134,121.894l9.502,13.556c3.639-2.152,7.615-3.702,11.754-4.578
		c21.064-4.468,41.764,8.991,46.232,30.056c4.469,21.073-8.99,41.773-30.055,46.241c-21.064,4.469-41.773-8.99-46.242-30.06h-13.633
		c-3.137,0-6.127-1.322-8.242-3.644l-45.896-48.932l-2.617,8.581c16.815,7.131,26.427,24.968,23.135,42.932
		c-3.876,21.183-24.192,35.212-45.385,31.332c-21.183-3.885-35.207-24.201-31.323-45.384c3.876-21.184,24.192-35.213,45.385-31.332
		l11.134-36.54c1.669-5.48,6.729-9.228,12.456-9.228h15.02v8.563h-15.02c-1.969,0-3.702,1.281-4.276,3.159l-3.118,10.231
		l63.567,10.997l6.557-17.713l-14.445-3.967c-0.875-0.328-1.432-1.186-1.377-2.115c0.064-1.177,1.076-2.079,2.254-2.016h1.131
		h31.223v8.439h-9.795L245.134,121.894z"/>
</g>
<g id="LWPOLYLINE_16_">
	<polygon style="fill:#FFFFFF;" points="256.003,382.085 256.003,336.76 270.476,351.228 270.476,336.614 249.804,315.946 
		229.13,336.614 229.13,351.228 243.603,336.76 243.603,382.085 	"/>
</g>
<g id="LWPOLYLINE_17_">
	<polygon style="fill:#FFFFFF;" points="181.595,315.946 181.595,361.268 196.066,346.8 196.066,361.418 175.394,382.085 
		154.722,361.418 154.722,346.8 169.193,361.268 169.193,315.946 	"/>
</g>
<g id="LWPOLYLINE_19_">
	<polygon style="fill:#005EB8;" points="171.437,115.096 234.494,126.007 219.566,166.38 	"/>
</g>
<g id="LWPOLYLINE_20_">
	<path style="fill:#005EB8;" d="M252.757,147.687c-5.471,5.581-8.598,13.049-8.717,20.863h23.334L252.757,147.687z"/>
</g>
<g id="LWPOLYLINE_21_">
	<path style="fill:#005EB8;" d="M235.488,168.55c0.127-10.604,4.568-20.699,12.301-27.962l-6.256-8.933l-13.65,36.895h7.66H235.488z
		"/>
</g>
<g id="LWPOLYLINE_23_">
	<path style="fill:#005EB8;" d="M277.671,168.322c0.656,0.939,1.002,2.061,1.002,3.205c0,3.082-2.498,5.581-5.58,5.581h-27.959
		c4.469,16.208,21.229,25.72,37.434,21.256c16.203-4.468,25.723-21.229,21.256-37.438c-4.469-16.204-21.229-25.72-37.434-21.256
		c-2.379,0.656-4.678,1.604-6.83,2.813L277.671,168.322z"/>
</g>
<g id="LWPOLYLINE_24_">
	<path style="fill:#005EB8;" d="M163.43,141.357l-8.553,28.077c-0.055,0.251-0.128,0.497-0.229,0.734
		c-0.894,2.202-3.392,3.26-5.599,2.366c-2.197-0.894-3.256-3.396-2.362-5.595l8.545-28.026
		c-16.633-2.489-32.126,8.969-34.615,25.597c-2.489,16.623,8.964,32.121,25.587,34.61c16.633,2.494,32.126-8.969,34.615-25.592
		C182.825,160.134,175.74,147.021,163.43,141.357z"/>
</g>
</svg>
