<?xml version="1.0" encoding="UTF-8" standalone="no"?>
<!-- Generator: Adobe Illustrator 16.0.0, SVG Export Plug-In . SVG Version: 6.00 Build 0)  -->

<svg
   xmlns:dc="http://purl.org/dc/elements/1.1/"
   xmlns:cc="http://creativecommons.org/ns#"
   xmlns:rdf="http://www.w3.org/1999/02/22-rdf-syntax-ns#"
   xmlns:svg="http://www.w3.org/2000/svg"
   xmlns="http://www.w3.org/2000/svg"
   xmlns:sodipodi="http://sodipodi.sourceforge.net/DTD/sodipodi-0.dtd"
   xmlns:inkscape="http://www.inkscape.org/namespaces/inkscape"
   version="1.1"
   id="Layer_1"
   x="0px"
   y="0px"
   width="265.073"
   height="397.35098"
   viewBox="0 0 265.073 397.35097"
   xml:space="preserve"
   sodipodi:docname="D5_2.svg"
   inkscape:version="0.92.5 (2060ec1f9f, 2020-04-08)"><metadata
   id="metadata771"><rdf:RDF><cc:Work
       rdf:about=""><dc:format>image/svg+xml</dc:format><dc:type
         rdf:resource="http://purl.org/dc/dcmitype/StillImage" /></cc:Work></rdf:RDF></metadata><defs
   id="defs769" /><sodipodi:namedview
   pagecolor="#ffffff"
   bordercolor="#666666"
   borderopacity="1"
   objecttolerance="10"
   gridtolerance="10"
   guidetolerance="10"
   inkscape:pageopacity="0"
   inkscape:pageshadow="2"
   inkscape:window-width="640"
   inkscape:window-height="480"
   id="namedview767"
   showgrid="false"
   inkscape:zoom="0.55503813"
   inkscape:cx="132.5375"
   inkscape:cy="198.67599"
   inkscape:window-x="0"
   inkscape:window-y="0"
   inkscape:window-maximized="0"
   inkscape:current-layer="Layer_1" />
<g
   id="LWPOLYLINE_13_"
   transform="translate(-80.061,-13.923)">
	
		<rect
   x="129.91901"
   y="287.008"
   style="fill:#005eb8;stroke:#005eb8;stroke-width:0.5;stroke-miterlimit:10"
   width="165.36"
   height="124.016"
   id="rect727" />
</g>
<g
   id="LWPOLYLINE_15_"
   transform="translate(-80.061,-13.923)">
	<path
   style="fill:#ffffff"
   d="m 129.919,303.545 v 90.941 c 0,9.133 7.404,16.537 16.541,16.537 h 132.278 c 9.137,0 16.541,-7.404 16.541,-16.537 v -90.941 c 0,-9.137 -7.404,-16.537 -16.541,-16.537 H 146.46 c -9.137,0 -16.541,7.4 -16.541,16.537 z"
   id="path730"
   inkscape:connector-curvature="0" />
</g>
<g
   id="CIRCLE_4_"
   transform="translate(-80.061,-13.923)">
	<path
   style="fill:#ffffff;stroke:#005eb8;stroke-width:0.5;stroke-miterlimit:10"
   d="m 344.884,146.455 c 0,-73.06 -59.227,-132.282 -132.286,-132.282 -73.06,0 -132.287,59.223 -132.287,132.282 0,73.061 59.227,132.287 132.287,132.287 73.06,0 132.286,-59.226 132.286,-132.287 z"
   id="path733"
   inkscape:connector-curvature="0" />
</g>
<g
   id="CIRCLE_3_"
   transform="translate(-80.061,-13.923)">
	<path
   style="fill:#005eb8"
   d="m 338.685,146.455 c 0,-69.631 -56.455,-126.081 -126.086,-126.081 -69.631,0 -126.086,56.45 -126.086,126.081 0,69.632 56.455,126.086 126.086,126.086 69.631,0 126.086,-56.454 126.086,-126.086 z"
   id="path736"
   inkscape:connector-curvature="0" />
</g>
<g
   id="LWPOLYLINE_14_"
   transform="translate(-80.061,-13.923)">
	<path
   style="fill:#005eb8"
   d="m 138.189,303.545 v 90.941 c 0,4.569 3.702,8.271 8.271,8.271 h 132.278 c 4.568,0 8.27,-3.702 8.27,-8.271 v -90.941 c 0,-4.568 -3.701,-8.271 -8.27,-8.271 H 146.46 c -4.568,0 -8.271,3.703 -8.271,8.271 z"
   id="path739"
   inkscape:connector-curvature="0" />
</g>
<g
   id="LWPOLYLINE_22_"
   transform="translate(-80.061,-13.923)">
	<path
   style="fill:#ffffff"
   d="m 245.134,121.894 9.502,13.556 c 3.639,-2.152 7.615,-3.702 11.754,-4.578 21.064,-4.468 41.764,8.991 46.232,30.056 4.469,21.073 -8.99,41.773 -30.055,46.241 -21.064,4.469 -41.773,-8.99 -46.242,-30.06 h -13.633 c -3.137,0 -6.127,-1.322 -8.242,-3.644 l -45.896,-48.932 -2.617,8.581 c 16.815,7.131 26.427,24.968 23.135,42.932 -3.876,21.183 -24.192,35.212 -45.385,31.332 -21.183,-3.885 -35.207,-24.201 -31.323,-45.384 3.876,-21.184 24.192,-35.213 45.385,-31.332 l 11.134,-36.54 c 1.669,-5.48 6.729,-9.228 12.456,-9.228 h 15.02 v 8.563 h -15.02 c -1.969,0 -3.702,1.281 -4.276,3.159 l -3.118,10.231 63.567,10.997 6.557,-17.713 -14.445,-3.967 c -0.875,-0.328 -1.432,-1.186 -1.377,-2.115 0.064,-1.177 1.076,-2.079 2.254,-2.016 h 1.131 31.223 v 8.439 h -9.795 z"
   id="path742"
   inkscape:connector-curvature="0" />
</g>
<g
   id="LWPOLYLINE_16_"
   transform="translate(-80.061,-13.923)">
	<polygon
   style="fill:#ffffff"
   points="270.476,351.228 270.476,336.614 249.804,315.946 229.13,336.614 229.13,351.228 243.603,336.76 243.603,382.085 256.003,382.085 256.003,336.76 "
   id="polygon745" />
</g>
<g
   id="LWPOLYLINE_17_"
   transform="translate(-80.061,-13.923)">
	<polygon
   style="fill:#ffffff"
   points="196.066,346.8 196.066,361.418 175.394,382.085 154.722,361.418 154.722,346.8 169.193,361.268 169.193,315.946 181.595,315.946 181.595,361.268 "
   id="polygon748" />
</g>
<g
   id="LWPOLYLINE_19_"
   transform="translate(-80.061,-13.923)">
	<polygon
   style="fill:#005eb8"
   points="219.566,166.38 171.437,115.096 234.494,126.007 "
   id="polygon751" />
</g>
<g
   id="LWPOLYLINE_20_"
   transform="translate(-80.061,-13.923)">
	<path
   style="fill:#005eb8"
   d="m 252.757,147.687 c -5.471,5.581 -8.598,13.049 -8.717,20.863 h 23.334 z"
   id="path754"
   inkscape:connector-curvature="0" />
</g>
<g
   id="LWPOLYLINE_21_"
   transform="translate(-80.061,-13.923)">
	<path
   style="fill:#005eb8"
   d="m 235.488,168.55 c 0.127,-10.604 4.568,-20.699 12.301,-27.962 l -6.256,-8.933 -13.65,36.895 h 7.66 z"
   id="path757"
   inkscape:connector-curvature="0" />
</g>
<g
   id="LWPOLYLINE_23_"
   transform="translate(-80.061,-13.923)">
	<path
   style="fill:#005eb8"
   d="m 277.671,168.322 c 0.656,0.939 1.002,2.061 1.002,3.205 0,3.082 -2.498,5.581 -5.58,5.581 h -27.959 c 4.469,16.208 21.229,25.72 37.434,21.256 16.203,-4.468 25.723,-21.229 21.256,-37.438 -4.469,-16.204 -21.229,-25.72 -37.434,-21.256 -2.379,0.656 -4.678,1.604 -6.83,2.813 z"
   id="path760"
   inkscape:connector-curvature="0" />
</g>
<g
   id="LWPOLYLINE_24_"
   transform="translate(-80.061,-13.923)">
	<path
   style="fill:#005eb8"
   d="m 163.43,141.357 -8.553,28.077 c -0.055,0.251 -0.128,0.497 -0.229,0.734 -0.894,2.202 -3.392,3.26 -5.599,2.366 -2.197,-0.894 -3.256,-3.396 -2.362,-5.595 l 8.545,-28.026 c -16.633,-2.489 -32.126,8.969 -34.615,25.597 -2.489,16.623 8.964,32.121 25.587,34.61 16.633,2.494 32.126,-8.969 34.615,-25.592 2.006,-13.394 -5.079,-26.507 -17.389,-32.171 z"
   id="path763"
   inkscape:connector-curvature="0" />
</g>
</svg>