<?xml version="1.0" encoding="UTF-8" standalone="no"?>
<!-- Generator: Adobe Illustrator 16.0.0, SVG Export Plug-In . SVG Version: 6.00 Build 0)  -->

<svg
   xmlns:dc="http://purl.org/dc/elements/1.1/"
   xmlns:cc="http://creativecommons.org/ns#"
   xmlns:rdf="http://www.w3.org/1999/02/22-rdf-syntax-ns#"
   xmlns:svg="http://www.w3.org/2000/svg"
   xmlns="http://www.w3.org/2000/svg"
   xmlns:sodipodi="http://sodipodi.sourceforge.net/DTD/sodipodi-0.dtd"
   xmlns:inkscape="http://www.inkscape.org/namespaces/inkscape"
   version="1.1"
   id="Layer_1"
   x="0px"
   y="0px"
   width="240.114"
   height="397.353"
   viewBox="0 0 240.114 397.35298"
   xml:space="preserve"
   sodipodi:docname="D5_3.svg"
   inkscape:version="0.92.5 (2060ec1f9f, 2020-04-08)"><metadata
   id="metadata820"><rdf:RDF><cc:Work
       rdf:about=""><dc:format>image/svg+xml</dc:format><dc:type
         rdf:resource="http://purl.org/dc/dcmitype/StillImage" /></cc:Work></rdf:RDF></metadata><defs
   id="defs818" /><sodipodi:namedview
   pagecolor="#ffffff"
   bordercolor="#666666"
   borderopacity="1"
   objecttolerance="10"
   gridtolerance="10"
   guidetolerance="10"
   inkscape:pageopacity="0"
   inkscape:pageshadow="2"
   inkscape:window-width="640"
   inkscape:window-height="480"
   id="namedview816"
   showgrid="false"
   inkscape:zoom="0.55503813"
   inkscape:cx="120.0575"
   inkscape:cy="198.677"
   inkscape:window-x="0"
   inkscape:window-y="0"
   inkscape:window-maximized="0"
   inkscape:current-layer="Layer_1" />
<g
   id="CIRCLE_2_"
   transform="translate(-92.541,-13.922)">
	<path
   style="fill:#ffffff;stroke:#005eb8;stroke-width:0.5;stroke-miterlimit:10"
   d="m 332.405,133.975 c 0,-66.168 -53.639,-119.803 -119.807,-119.803 -66.167,0 -119.807,53.635 -119.807,119.803 0,66.167 53.64,119.807 119.807,119.807 66.168,-0.001 119.807,-53.64 119.807,-119.807 z"
   id="path773"
   inkscape:connector-curvature="0" />
</g>
<g
   id="CIRCLE_3_"
   transform="translate(-92.541,-13.922)">
	<path
   style="fill:#005eb8"
   d="m 326.79,133.975 c 0,-63.063 -51.129,-114.187 -114.191,-114.187 -63.062,0 -114.191,51.124 -114.191,114.187 0,63.063 51.128,114.19 114.19,114.19 63.062,0 114.192,-51.128 114.192,-114.19 z"
   id="path776"
   inkscape:connector-curvature="0" />
</g>
<g
   id="LWPOLYLINE_11_"
   transform="translate(-92.541,-13.922)">
	<path
   style="fill:#ffffff"
   d="m 242.065,111.73 8.605,12.276 c 3.295,-1.949 6.896,-3.353 10.645,-4.146 19.078,-4.046 37.824,8.143 41.871,27.221 4.047,19.085 -8.143,37.832 -27.22,41.879 -19.077,4.047 -37.833,-8.143 -41.88,-27.225 H 221.74 c -2.842,0 -5.55,-1.197 -7.466,-3.299 l -41.565,-44.315 -2.37,7.771 c 15.229,6.458 23.933,22.612 20.952,38.881 -3.511,19.185 -21.91,31.891 -41.104,28.376 -19.185,-3.518 -31.886,-21.918 -28.368,-41.103 3.511,-19.185 21.91,-31.89 41.103,-28.376 l 10.084,-33.092 c 1.512,-4.963 6.095,-8.358 11.281,-8.358 h 13.602 v 7.755 h -13.602 c -1.783,0 -3.353,1.161 -3.873,2.862 l -2.824,9.266 57.57,9.96 5.938,-16.042 -13.081,-3.592 c -0.793,-0.297 -1.297,-1.074 -1.247,-1.916 0.058,-1.065 0.975,-1.883 2.04,-1.825 h 1.023 28.277 v 7.643 h -8.869 z"
   id="path779"
   inkscape:connector-curvature="0" />
</g>
<g
   id="LWPOLYLINE_19_"
   transform="translate(-92.541,-13.922)">
	<rect
   x="137.718"
   y="261.26801"
   style="fill:none"
   width="149.75999"
   height="149.757"
   id="rect782" />
</g>
<g
   id="LWPOLYLINE_20_"
   transform="translate(-92.541,-13.922)">
	
		<rect
   x="137.718"
   y="261.26801"
   style="fill:#005eb8;stroke:#005eb8;stroke-width:0.5;stroke-miterlimit:10"
   width="149.75999"
   height="149.757"
   id="rect785" />
</g>
<g
   id="LWPOLYLINE_8_"
   transform="translate(-92.541,-13.922)">
	<polygon
   style="fill:#005eb8"
   points="218.908,152.02 175.319,105.573 232.427,115.455 "
   id="polygon788" />
</g>
<g
   id="LWPOLYLINE_9_"
   transform="translate(-92.541,-13.922)">
	<path
   style="fill:#005eb8"
   d="m 248.969,135.089 c -4.955,5.054 -7.788,11.818 -7.896,18.896 h 21.134 z"
   id="path791"
   inkscape:connector-curvature="0" />
</g>
<g
   id="LWPOLYLINE_10_"
   transform="translate(-92.541,-13.922)">
	<path
   style="fill:#005eb8"
   d="m 233.327,153.985 c 0.116,-9.605 4.138,-18.747 11.142,-25.325 l -5.666,-8.089 -12.362,33.415 h 6.937 -0.051 z"
   id="path794"
   inkscape:connector-curvature="0" />
</g>
<g
   id="LWPOLYLINE_12_"
   transform="translate(-92.541,-13.922)">
	<path
   style="fill:#005eb8"
   d="m 271.531,153.778 c 0.595,0.851 0.909,1.866 0.909,2.903 0,2.791 -2.264,5.054 -5.055,5.054 h -25.32 c 4.047,14.68 19.226,23.293 33.901,19.251 14.675,-4.047 23.297,-19.226 19.25,-33.905 -4.046,-14.676 -19.226,-23.293 -33.901,-19.251 -2.155,0.595 -4.236,1.454 -6.186,2.548 z"
   id="path797"
   inkscape:connector-curvature="0" />
</g>
<g
   id="LWPOLYLINE_13_"
   transform="translate(-92.541,-13.922)">
	<path
   style="fill:#005eb8"
   d="m 168.068,129.358 -7.746,25.428 c -0.05,0.227 -0.116,0.45 -0.207,0.665 -0.81,1.994 -3.072,2.952 -5.07,2.143 -1.99,-0.81 -2.948,-3.076 -2.14,-5.066 l 7.738,-25.383 c -15.063,-2.254 -29.094,8.122 -31.349,23.182 -2.255,15.056 8.118,29.091 23.173,31.346 15.063,2.259 29.096,-8.122 31.35,-23.178 1.817,-12.133 -4.6,-24.009 -15.749,-29.137 z"
   id="path800"
   inkscape:connector-curvature="0" />
</g>
<g
   id="LWPOLYLINE_22_"
   transform="translate(-92.541,-13.922)">
	<path
   style="fill:#ffffff"
   d="m 152.699,411.024 h 119.799 c 8.274,0 14.98,-6.706 14.98,-14.978 V 276.244 c 0,-8.274 -6.706,-14.977 -14.98,-14.977 H 152.699 c -8.274,0 -14.98,6.702 -14.98,14.977 v 119.803 c -0.001,8.271 6.705,14.977 14.98,14.977 z"
   id="path803"
   inkscape:connector-curvature="0" />
</g>
<g
   id="LWPOLYLINE_21_"
   transform="translate(-92.541,-13.922)">
	<path
   style="fill:#005eb8"
   d="m 152.699,403.534 h 119.799 c 4.138,0 7.49,-3.354 7.49,-7.487 V 276.244 c 0,-4.137 -3.353,-7.49 -7.49,-7.49 H 152.699 c -4.138,0 -7.49,3.354 -7.49,7.49 v 119.803 c -0.001,4.134 3.352,7.487 7.49,7.487 z"
   id="path806"
   inkscape:connector-curvature="0" />
</g>
<g
   id="LWPOLYLINE_23_"
   transform="translate(-92.541,-13.922)">
	<polygon
   style="fill:#ffffff"
   points="184.651,317.426 171.413,317.426 152.699,336.144 171.413,354.866 184.651,354.866 171.544,341.76 205.108,341.76 205.108,330.528 171.544,330.528 "
   id="polygon809" />
</g>
<g
   id="LWPOLYLINE_24_"
   transform="translate(-92.541,-13.922)">
	<polygon
   style="fill:#ffffff"
   points="240.545,317.426 253.784,317.426 272.498,336.144 253.784,354.866 240.545,354.866 253.651,341.76 220.088,341.76 220.088,330.528 253.651,330.528 "
   id="polygon812" />
</g>
</svg>