<?xml version="1.0" encoding="UTF-8" standalone="no"?>
<!-- Generator: Adobe Illustrator 16.0.0, SVG Export Plug-In . SVG Version: 6.00 Build 0)  -->

<svg
   xmlns:dc="http://purl.org/dc/elements/1.1/"
   xmlns:cc="http://creativecommons.org/ns#"
   xmlns:rdf="http://www.w3.org/1999/02/22-rdf-syntax-ns#"
   xmlns:svg="http://www.w3.org/2000/svg"
   xmlns="http://www.w3.org/2000/svg"
   xmlns:sodipodi="http://sodipodi.sourceforge.net/DTD/sodipodi-0.dtd"
   xmlns:inkscape="http://www.inkscape.org/namespaces/inkscape"
   version="1.1"
   id="Layer_1"
   x="0px"
   y="0px"
   width="198.92999"
   height="397.35098"
   viewBox="0 0 198.93 397.35097"
   xml:space="preserve"
   sodipodi:docname="D5_5.svg"
   inkscape:version="0.92.5 (2060ec1f9f, 2020-04-08)"><metadata
   id="metadata1053"><rdf:RDF><cc:Work
       rdf:about=""><dc:format>image/svg+xml</dc:format><dc:type
         rdf:resource="http://purl.org/dc/dcmitype/StillImage" /></cc:Work></rdf:RDF></metadata><defs
   id="defs1051" /><sodipodi:namedview
   pagecolor="#ffffff"
   bordercolor="#666666"
   borderopacity="1"
   objecttolerance="10"
   gridtolerance="10"
   guidetolerance="10"
   inkscape:pageopacity="0"
   inkscape:pageshadow="2"
   inkscape:window-width="640"
   inkscape:window-height="480"
   id="namedview1049"
   showgrid="false"
   inkscape:zoom="0.55503813"
   inkscape:cx="99.465495"
   inkscape:cy="198.67598"
   inkscape:window-x="0"
   inkscape:window-y="0"
   inkscape:window-maximized="0"
   inkscape:current-layer="Layer_1" />
<g
   id="CIRCLE_2_"
   transform="translate(-113.133,-13.923)">
	<path
   style="fill:#ffffff;stroke:#005eb8;stroke-width:0.5;stroke-miterlimit:10"
   d="m 311.813,113.386 c 0,-54.795 -44.42,-99.213 -99.215,-99.213 -54.795,0 -99.215,44.418 -99.215,99.213 0,54.793 44.42,99.211 99.215,99.211 54.795,0 99.215,-44.418 99.215,-99.211 z"
   id="path931"
   inkscape:connector-curvature="0" />
</g>
<g
   id="LWPOLYLINE_13_"
   transform="translate(-113.133,-13.923)">
	
		<rect
   x="150.588"
   y="287.00699"
   style="fill:#005eb8;stroke:#005eb8;stroke-width:0.5;stroke-miterlimit:10"
   width="124.02"
   height="124.017"
   id="rect934" />
</g>
<g
   id="LWPOLYLINE_16_"
   transform="translate(-113.133,-13.923)">
	<path
   style="fill:#ffffff"
   d="m 162.995,411.023 h 99.207 c 6.854,0 12.406,-5.554 12.406,-12.403 v -99.211 c 0,-6.85 -5.553,-12.402 -12.406,-12.402 h -99.207 c -6.853,0 -12.406,5.553 -12.406,12.402 v 99.211 c -0.001,6.85 5.553,12.403 12.406,12.403 z"
   id="path937"
   inkscape:connector-curvature="0" />
</g>
<g
   id="LWPOLYLINE_77_"
   transform="translate(-113.133,-13.923)">
	
		<rect
   x="113.383"
   y="218.8"
   style="fill:#005eb8;stroke:#005eb8;stroke-width:0.5;stroke-miterlimit:10"
   width="198.42999"
   height="62.007"
   id="rect940" />
</g>
<g
   id="LWPOLYLINE_74_"
   transform="translate(-113.133,-13.923)">
	<path
   style="fill:#ffffff"
   d="m 125.79,280.807 h 173.617 c 6.853,0 12.406,-5.553 12.406,-12.402 V 231.2 c 0,-6.85 -5.554,-12.399 -12.406,-12.399 H 125.79 c -6.853,0 -12.406,5.55 -12.406,12.399 v 37.205 c -0.001,6.849 5.553,12.402 12.406,12.402 z"
   id="path943"
   inkscape:connector-curvature="0" />
</g>
<g
   id="CIRCLE_3_"
   transform="translate(-113.133,-13.923)">
	<path
   style="fill:#005eb8;stroke:#005eb8;stroke-width:0.5;stroke-miterlimit:10"
   d="m 307.163,113.386 c 0,-52.227 -42.341,-94.563 -94.564,-94.563 -52.223,0 -94.563,42.336 -94.563,94.563 0,52.225 42.341,94.561 94.563,94.561 52.223,-0.001 94.564,-42.336 94.564,-94.561 z"
   id="path946"
   inkscape:connector-curvature="0" />
</g>
<g
   id="LWPOLYLINE_75_"
   transform="translate(-113.133,-13.923)">
	<path
   style="fill:#005eb8"
   d="m 125.79,274.607 h 173.617 c 3.427,0 6.203,-2.777 6.203,-6.203 v -37.205 c 0,-3.426 -2.776,-6.199 -6.203,-6.199 H 125.79 c -3.426,0 -6.203,2.773 -6.203,6.199 v 37.205 c -0.001,3.426 2.777,6.203 6.203,6.203 z"
   id="path949"
   inkscape:connector-curvature="0" />
</g>
<g
   id="LWPOLYLINE_15_"
   transform="translate(-113.133,-13.923)">
	<path
   style="fill:#005eb8"
   d="m 162.995,404.823 h 99.207 c 3.427,0 6.203,-2.776 6.203,-6.203 v -99.211 c 0,-3.423 -2.776,-6.2 -6.203,-6.2 h -99.207 c -3.427,0 -6.203,2.777 -6.203,6.2 v 99.211 c 0,3.427 2.776,6.203 6.203,6.203 z"
   id="path952"
   inkscape:connector-curvature="0" />
</g>
<g
   id="LWPOLYLINE_22_"
   transform="translate(-113.133,-13.923)">
	<path
   style="fill:#ffffff"
   d="m 237,94.965 7.126,10.165 c 2.729,-1.616 5.711,-2.775 8.815,-3.433 15.799,-3.352 31.323,6.743 34.674,22.543 3.352,15.802 -6.743,31.328 -22.541,34.68 -15.799,3.349 -31.33,-6.744 -34.682,-22.545 h -10.224 c -2.354,0 -4.597,-0.992 -6.183,-2.73 l -34.422,-36.699 -1.963,6.436 c 12.611,5.346 19.82,18.725 17.352,32.197 -2.907,15.889 -18.145,26.409 -34.038,23.499 -15.888,-2.912 -26.406,-18.151 -23.492,-34.038 2.906,-15.889 18.144,-26.409 34.038,-23.5 l 8.35,-27.404 c 1.252,-4.11 5.048,-6.919 9.343,-6.919 h 11.264 v 6.419 h -11.264 c -1.478,0 -2.776,0.962 -3.208,2.373 l -2.339,7.673 47.676,8.246 4.917,-13.285 -10.833,-2.974 c -0.656,-0.248 -1.073,-0.891 -1.032,-1.586 0.048,-0.884 0.807,-1.561 1.688,-1.511 h 0.849 23.417 v 6.329 h -7.346 z"
   id="path955"
   inkscape:connector-curvature="0" />
</g>
<g
   id="LWPOLYLINE_51_"
   transform="translate(-113.133,-13.923)">
	<path
   style="fill:#ffffff"
   d="m 131.924,245.521 c -0.062,-1.204 -1.019,-2.168 -2.223,-2.233 h -1.177 c -1.217,0.079 -2.141,1.125 -2.065,2.343 0.042,0.649 0.37,1.245 0.89,1.635 l 4.958,1.819 c 1.293,0.77 2.202,2.045 2.517,3.515 0.623,2.924 -1.244,5.797 -4.165,6.419 -0.041,0.007 -0.082,0.01 -0.123,0.017 -3.61,0.534 -6.976,-1.959 -7.509,-5.573 l 2.763,-0.407 c 0.308,2.089 2.25,3.532 4.336,3.222 1.416,-0.332 2.291,-1.744 1.956,-3.153 -0.144,-0.615 -0.513,-1.159 -1.025,-1.528 l -4.973,-1.822 c -1.436,-0.865 -2.339,-2.395 -2.414,-4.069 -0.116,-2.76 2.031,-5.089 4.787,-5.205 h 1.3 c 2.722,0.1 4.896,2.302 4.958,5.026 z"
   id="path958"
   inkscape:connector-curvature="0" />
</g>
<g
   id="LWPOLYLINE_52_"
   transform="translate(-113.133,-13.923)">
	<path
   style="fill:#ffffff"
   d="m 147.585,259.1 h -2.79 v -0.893 c -1.121,0.605 -2.38,0.913 -3.652,0.893 -1.148,0.03 -2.175,-0.69 -2.544,-1.778 -0.451,-1.426 -0.068,-2.985 0.992,-4.045 1.36,-1.457 3.214,-2.35 5.204,-2.497 v -1.446 c 0,-0.77 -0.629,-1.395 -1.395,-1.395 -0.773,0 -1.396,0.625 -1.396,1.395 h -2.79 c 0,-2.312 1.873,-4.186 4.186,-4.186 2.312,0 4.185,1.874 4.185,4.186 z"
   id="path961"
   inkscape:connector-curvature="0" />
</g>
<g
   id="LWPOLYLINE_54_"
   transform="translate(-113.133,-13.923)">
	<rect
   x="152.045"
   y="240.49699"
   style="fill:#ffffff"
   width="2.79"
   height="18.603001"
   id="rect964" />
</g>
<g
   id="LWPOLYLINE_55_"
   transform="translate(-113.133,-13.923)">
	<rect
   x="159.8"
   y="240.49699"
   style="fill:#ffffff"
   width="2.7909999"
   height="18.603001"
   id="rect967" />
</g>
<g
   id="LWPOLYLINE_56_"
   transform="translate(-113.133,-13.923)">
	<rect
   x="167.549"
   y="245.147"
   style="fill:#ffffff"
   width="2.79"
   height="13.952"
   id="rect970" />
</g>
<g
   id="LWPOLYLINE_57_"
   transform="translate(-113.133,-13.923)">
	<rect
   x="167.549"
   y="240.49699"
   style="fill:#ffffff"
   width="2.79"
   height="2.79"
   id="rect973" />
</g>
<g
   id="LWPOLYLINE_58_"
   transform="translate(-113.133,-13.923)">
	<path
   style="fill:#ffffff"
   d="m 178.184,245.147 h 1.58 v 2.791 h -1.58 v 6.791 c 0,0.872 0.711,1.58 1.58,1.58 v 2.79 c -2.415,0 -4.371,-1.956 -4.371,-4.37 v -6.791 h -1.579 v -2.791 h 1.579 v -4.65 h 2.791 z"
   id="path976"
   inkscape:connector-curvature="0" />
</g>
<g
   id="LWPOLYLINE_59_"
   transform="translate(-113.133,-13.923)">
	<path
   style="fill:#ffffff"
   d="m 186.371,245.147 h 1.579 v 2.791 h -1.579 v 6.791 c 0,0.872 0.704,1.58 1.579,1.58 v 2.79 c -2.414,0 -4.37,-1.956 -4.37,-4.37 v -6.791 H 182 v -2.791 h 1.579 v -4.65 h 2.791 v 4.65 z"
   id="path979"
   inkscape:connector-curvature="0" />
</g>
<g
   id="LWPOLYLINE_60_"
   transform="translate(-113.133,-13.923)">
	<path
   style="fill:#ffffff"
   d="m 191.171,255.659 v -10.512 h 2.79 v 9.858 c 0,1.029 0.835,1.86 1.86,1.86 1.033,0 1.86,-0.831 1.86,-1.86 v -9.858 h 2.79 V 259.1 h -2.79 v -1.115 c -0.957,0.596 -2.038,0.975 -3.16,1.115 -1.846,0 -3.351,-1.498 -3.351,-3.348 v -0.093 z"
   id="path982"
   inkscape:connector-curvature="0" />
</g>
<g
   id="LWPOLYLINE_61_"
   transform="translate(-113.133,-13.923)">
	<path
   style="fill:#ffffff"
   d="m 217.891,245.938 c -0.608,-0.51 -1.374,-0.79 -2.16,-0.79 -1.122,0.141 -2.203,0.521 -3.167,1.118 v -1.118 h -2.79 V 259.1 h 2.79 v -9.858 c 0,-1.026 0.834,-1.86 1.86,-1.86 1.032,0 1.86,0.834 1.86,1.86 v 9.858 h 2.79 v -9.858 c 0,-1.026 0.834,-1.86 1.86,-1.86 1.032,0 1.86,0.834 1.86,1.86 v 9.858 h 2.79 v -10.632 c -0.123,-1.788 -1.553,-3.207 -3.344,-3.32 -1.496,-0.192 -3.015,0.085 -4.349,0.79 z"
   id="path985"
   inkscape:connector-curvature="0" />
</g>
<g
   id="LWPOLYLINE_62_"
   transform="translate(-113.133,-13.923)">
	<path
   style="fill:#ffffff"
   d="m 229.559,254.449 c 0,2.567 2.079,4.65 4.65,4.65 2.564,0 4.65,-2.083 4.65,-4.65 v -4.65 c 0,-2.568 -2.086,-4.651 -4.65,-4.651 -2.571,0 -4.65,2.083 -4.65,4.651 z"
   id="path988"
   inkscape:connector-curvature="0" />
</g>
<g
   id="LWPOLYLINE_64_"
   transform="translate(-113.133,-13.923)">
	<path
   style="fill:#ffffff"
   d="m 252.627,255.659 -0.014,-7.649 c -0.308,-1.614 -1.696,-2.804 -3.338,-2.862 -1.121,0.141 -2.195,0.517 -3.159,1.102 v -1.102 h -2.79 v 17.673 h 2.79 v -4.836 c 0.957,0.596 2.038,0.975 3.159,1.115 1.847,0 3.352,-1.498 3.352,-3.348 z"
   id="path991"
   inkscape:connector-curvature="0" />
</g>
<g
   id="LWPOLYLINE_66_"
   transform="translate(-113.133,-13.923)">
	<path
   style="fill:#ffffff"
   d="m 256.594,254.449 c 0,2.567 2.079,4.65 4.65,4.65 2.564,0 4.65,-2.083 4.65,-4.65 v -4.65 c 0,-2.568 -2.086,-4.651 -4.65,-4.651 -2.571,0 -4.65,2.083 -4.65,4.651 z"
   id="path994"
   inkscape:connector-curvature="0" />
</g>
<g
   id="LWPOLYLINE_68_"
   transform="translate(-113.133,-13.923)">
	<rect
   x="270.36099"
   y="245.147"
   style="fill:#ffffff"
   width="2.7909999"
   height="13.952"
   id="rect997" />
</g>
<g
   id="LWPOLYLINE_69_"
   transform="translate(-113.133,-13.923)">
	<rect
   x="270.36099"
   y="240.49699"
   style="fill:#ffffff"
   width="2.7909999"
   height="2.79"
   id="rect1000" />
</g>
<g
   id="LWPOLYLINE_70_"
   transform="translate(-113.133,-13.923)">
	<rect
   x="278.10999"
   y="240.49699"
   style="fill:#ffffff"
   width="2.79"
   height="18.603001"
   id="rect1003" />
</g>
<g
   id="LWPOLYLINE_71_"
   transform="translate(-113.133,-13.923)">
	<rect
   x="285.85901"
   y="240.49699"
   style="fill:#ffffff"
   width="2.79"
   height="18.603001"
   id="rect1006" />
</g>
<g
   id="LWPOLYLINE_72_"
   transform="translate(-113.133,-13.923)">
	<path
   style="fill:#ffffff"
   d="m 299.379,254.449 h 2.79 c 0,2.567 -2.086,4.65 -4.65,4.65 -2.571,0 -4.65,-2.083 -4.65,-4.65 v -4.65 c 0,-2.568 2.079,-4.651 4.65,-4.651 2.564,0 4.65,2.083 4.65,4.651 v 2.605 h -6.511 v 2.045 c 0,1.029 0.835,1.86 1.86,1.86 1.027,10e-4 1.861,-0.83 1.861,-1.86 z"
   id="path1009"
   inkscape:connector-curvature="0" />
</g>
<g
   id="LWPOLYLINE_17_"
   transform="translate(-113.133,-13.923)">
	<polygon
   style="fill:#ffffff"
   points="189.455,333.513 178.492,333.513 162.995,349.017 178.492,364.518 189.455,364.518 178.601,353.667 206.395,353.667 206.395,344.366 178.601,344.366 "
   id="polygon1012" />
</g>
<g
   id="LWPOLYLINE_18_"
   transform="translate(-113.133,-13.923)">
	<polygon
   style="fill:#ffffff"
   points="235.742,333.513 246.705,333.513 262.202,349.017 246.705,364.518 235.742,364.518 246.595,353.667 218.801,353.667 218.801,344.366 246.595,344.366 "
   id="polygon1015" />
</g>
<g
   id="LWPOLYLINE_19_"
   transform="translate(-113.133,-13.923)">
	<polygon
   style="fill:#005eb8"
   points="217.823,128.328 181.726,89.866 229.019,98.049 "
   id="polygon1018" />
</g>
<g
   id="LWPOLYLINE_20_"
   transform="translate(-113.133,-13.923)">
	<path
   style="fill:#005eb8"
   d="m 242.717,114.311 c -4.104,4.182 -6.449,9.784 -6.538,15.646 h 17.501 z"
   id="path1021"
   inkscape:connector-curvature="0" />
</g>
<g
   id="LWPOLYLINE_21_"
   transform="translate(-113.133,-13.923)">
	<path
   style="fill:#005eb8"
   d="m 229.764,129.957 c 0.096,-7.956 3.427,-15.528 9.226,-20.972 l -4.691,-6.699 -10.238,27.671 h 5.745 z"
   id="path1024"
   inkscape:connector-curvature="0" />
</g>
<g
   id="LWPOLYLINE_23_"
   transform="translate(-113.133,-13.923)">
	<path
   style="fill:#005eb8"
   d="m 261.402,129.788 c 0.492,0.703 0.752,1.542 0.752,2.4 0,2.312 -1.874,4.186 -4.186,4.186 H 237 c 3.351,12.155 15.921,19.293 28.074,15.942 12.153,-3.351 19.293,-15.919 15.941,-28.076 -3.351,-12.155 -15.921,-19.291 -28.074,-15.94 -1.785,0.492 -3.509,1.2 -5.122,2.106 z"
   id="path1027"
   inkscape:connector-curvature="0" />
</g>
<g
   id="LWPOLYLINE_24_"
   transform="translate(-113.133,-13.923)">
	<path
   style="fill:#005eb8"
   d="m 175.722,109.563 -6.415,21.058 c -0.041,0.188 -0.096,0.373 -0.171,0.551 -0.671,1.648 -2.545,2.443 -4.199,1.774 -1.648,-0.668 -2.441,-2.547 -1.771,-4.195 l 6.408,-21.02 c -12.475,-1.869 -24.095,6.726 -25.961,19.194 -1.867,12.469 6.723,24.092 19.19,25.961 12.474,1.867 24.094,-6.726 25.961,-19.195 1.504,-10.05 -3.809,-19.885 -13.042,-24.128 z"
   id="path1030"
   inkscape:connector-curvature="0" />
</g>
<g
   id="LWPOLYLINE_53_"
   transform="translate(-113.133,-13.923)">
	<path
   style="fill:#005eb8"
   d="m 144.795,252.599 c -0.93,0.223 -1.799,0.664 -2.523,1.289 -0.649,0.571 -1.02,1.402 -1.013,2.268 0.015,0.567 0.479,1.016 1.047,1.002 0.048,-0.004 0.096,-0.004 0.137,-0.011 0.82,-0.137 1.614,-0.403 2.353,-0.8 v -3.748 z"
   id="path1033"
   inkscape:connector-curvature="0" />
</g>
<g
   id="LWPOLYLINE_63_"
   transform="translate(-113.133,-13.923)">
	<path
   style="fill:#005eb8"
   d="m 232.349,254.449 c 0,1.029 0.835,1.86 1.86,1.86 1.026,0 1.86,-0.831 1.86,-1.86 v -4.65 c 0,-1.026 -0.834,-1.86 -1.86,-1.86 -1.025,0 -1.86,0.834 -1.86,1.86 z"
   id="path1036"
   inkscape:connector-curvature="0" />
</g>
<g
   id="LWPOLYLINE_65_"
   transform="translate(-113.133,-13.923)">
	<path
   style="fill:#005eb8"
   d="m 246.117,255.006 v -5.765 c 0,-1.026 0.827,-1.86 1.86,-1.86 1.025,0 1.86,0.834 1.86,1.86 v 5.765 c 0,1.029 -0.835,1.86 -1.86,1.86 -1.033,0 -1.86,-0.831 -1.86,-1.86 z"
   id="path1039"
   inkscape:connector-curvature="0" />
</g>
<g
   id="LWPOLYLINE_67_"
   transform="translate(-113.133,-13.923)">
	<path
   style="fill:#005eb8"
   d="m 259.384,254.449 c 0,1.029 0.835,1.86 1.86,1.86 1.025,0 1.86,-0.831 1.86,-1.86 v -4.65 c 0,-1.026 -0.835,-1.86 -1.86,-1.86 -1.025,0 -1.86,0.834 -1.86,1.86 z"
   id="path1042"
   inkscape:connector-curvature="0" />
</g>
<g
   id="LWPOLYLINE_73_"
   transform="translate(-113.133,-13.923)">
	<path
   style="fill:#005eb8"
   d="m 295.659,249.986 h 3.721 v -0.188 c 0,-1.026 -0.834,-1.86 -1.86,-1.86 -1.025,0 -1.86,0.834 -1.86,1.86 v 0.188 z"
   id="path1045"
   inkscape:connector-curvature="0" />
</g>
</svg>