<?xml version="1.0" encoding="UTF-8" standalone="no"?>
<!-- Generator: Adobe Illustrator 16.0.0, SVG Export Plug-In . SVG Version: 6.00 Build 0)  -->

<svg
   xmlns:dc="http://purl.org/dc/elements/1.1/"
   xmlns:cc="http://creativecommons.org/ns#"
   xmlns:rdf="http://www.w3.org/1999/02/22-rdf-syntax-ns#"
   xmlns:svg="http://www.w3.org/2000/svg"
   xmlns="http://www.w3.org/2000/svg"
   xmlns:sodipodi="http://sodipodi.sourceforge.net/DTD/sodipodi-0.dtd"
   xmlns:inkscape="http://www.inkscape.org/namespaces/inkscape"
   version="1.1"
   id="Layer_1"
   x="0px"
   y="0px"
   width="397.35001"
   height="397.35101"
   viewBox="0 0 397.35001 397.351"
   xml:space="preserve"
   sodipodi:docname="D8.svg"
   inkscape:version="0.92.5 (2060ec1f9f, 2020-04-08)"><metadata
   id="metadata1775"><rdf:RDF><cc:Work
       rdf:about=""><dc:format>image/svg+xml</dc:format><dc:type
         rdf:resource="http://purl.org/dc/dcmitype/StillImage" /></cc:Work></rdf:RDF></metadata><defs
   id="defs1773" /><sodipodi:namedview
   pagecolor="#ffffff"
   bordercolor="#666666"
   borderopacity="1"
   objecttolerance="10"
   gridtolerance="10"
   guidetolerance="10"
   inkscape:pageopacity="0"
   inkscape:pageshadow="2"
   inkscape:window-width="640"
   inkscape:window-height="480"
   id="namedview1771"
   showgrid="false"
   inkscape:zoom="0.55503813"
   inkscape:cx="198.6755"
   inkscape:cy="198.67599"
   inkscape:window-x="0"
   inkscape:window-y="0"
   inkscape:window-maximized="0"
   inkscape:current-layer="Layer_1" />
<g
   id="CIRCLE_2_"
   transform="translate(-13.923,-13.923)">
	<path
   style="fill:#ffffff;stroke:#005eb8;stroke-width:0.5;stroke-miterlimit:10"
   d="m 411.023,212.599 c 0,-109.579 -88.846,-198.426 -198.425,-198.426 -109.593,0 -198.425,88.847 -198.425,198.426 0,109.593 88.832,198.425 198.425,198.425 109.579,-10e-4 198.425,-88.833 198.425,-198.425 z"
   id="path1755"
   inkscape:connector-curvature="0" />
</g>
<g
   id="ELLIPSE_1_"
   transform="translate(-13.923,-13.923)">
	<path
   style="fill:#005eb8"
   d="M 401.097,212.599 C 401.097,108.495 316.709,24.1 212.598,24.1 c -104.11,0 -188.499,84.396 -188.499,188.499 0,104.11 84.389,188.506 188.499,188.506 104.111,-0.001 188.499,-84.396 188.499,-188.506"
   id="path1758"
   inkscape:connector-curvature="0" />
</g>
<g
   id="LWPOLYLINE_3_"
   transform="translate(-13.923,-13.923)">
	<path
   style="fill:#ffffff"
   d="m 262.965,291.785 h -38.118 c -3.823,-0.396 -7.444,-1.904 -10.402,-4.335 -1.428,-1.342 -2.51,-2.987 -3.174,-4.819 l -1.27,-3.405 c -0.433,-1.421 -1.515,-2.546 -2.914,-3.036 -22.436,-0.368 -44.755,-3.377 -66.483,-8.953 l -4.877,16.556 c 14.327,0.556 28.64,1.162 42.951,1.812 2.554,1.24 4.487,3.477 5.354,6.182 h -62.271 c -24.195,1.205 -47.396,-9.674 -61.938,-29.036 l 0.145,-5.28 c 15.235,18.063 38.219,27.723 61.794,25.97 l 5.757,-19.571 c -17.111,-5.979 -33.343,-14.204 -48.29,-24.455 11.644,-31.424 36.921,-55.856 68.72,-66.418 l 24.022,-72.262 c 13.302,12.494 21.093,29.771 21.641,48.009 l 18.973,3.578 c 1.141,0.216 2.309,-0.188 3.088,-1.054 l 19.968,-21.079 c 1.371,-1.406 2.929,-2.611 4.632,-3.592 10.128,-5.793 23.041,-2.28 28.841,7.849 7.474,16.087 12.985,33.024 16.376,50.439 l 6.232,21.454 h 50.339 v 44.466 c 10.373,0.246 18.943,8.203 19.953,18.54 1.111,11.282 -7.142,21.339 -18.438,22.442 H 320.59 262.965 Z"
   id="path1761"
   inkscape:connector-curvature="0" />
</g>
<g
   id="LWPOLYLINE_5_"
   transform="translate(-13.923,-13.923)">
	<path
   style="fill:#ffffff"
   d="m 213.623,135.266 14.053,-10.46 c 3.996,-2.973 8.396,-5.367 13.071,-7.099 5.526,-2.049 11.528,-2.381 17.241,-0.952 l 10.475,3.087 V 88.765 c -1.327,-8.526 -7.892,-15.293 -16.375,-16.873 -9.22,-3.384 -19.392,-3.073 -28.38,0.873 -9.652,4.234 -15.654,14.017 -15.048,24.541 h 17.789 0.822 l -0.808,11.903 -18.756,6.724 c -0.794,6.78 0.851,13.634 4.631,19.333 0.245,0.346 0.722,0.447 1.067,0.209 0.088,-0.051 0.16,-0.13 0.218,-0.209 z"
   id="path1764"
   inkscape:connector-curvature="0" />
</g>
<g
   id="LWPOLYLINE_4_"
   transform="translate(-13.923,-13.923)">
	<path
   style="fill:#005eb8"
   d="m 186.167,164.453 -10.013,35.831 c -0.13,0.483 -0.015,0.996 0.303,1.378 l 14.558,16.866 13.216,-31.64 c 1.443,-3.456 4.704,-5.801 8.426,-6.074 l 20.401,-1.508 -2.352,-14.991 -11.052,4.754 c -1.097,0.52 -2.309,0.751 -3.521,0.649 l -21.339,-3.722 z"
   id="path1767"
   inkscape:connector-curvature="0" />
</g>
</svg>