<?xml version="1.0" encoding="iso-8859-1"?>
<!-- Generator: Adobe Illustrator 16.0.0, SVG Export Plug-In . SVG Version: 6.00 Build 0)  -->
<!DOCTYPE svg PUBLIC "-//W3C//DTD SVG 1.1//EN" "http://www.w3.org/Graphics/SVG/1.1/DTD/svg11.dtd">
<svg version="1.1" id="Layer_1" xmlns="http://www.w3.org/2000/svg" xmlns:xlink="http://www.w3.org/1999/xlink" x="0px" y="0px"
	 width="425.197px" height="425.196px" viewBox="0 0 425.197 425.196" style="enable-background:new 0 0 425.197 425.196;"
	 xml:space="preserve">
<g id="ELLIPSE_1_">
	<path style="fill:#FFFFFF;" d="M411.025,212.6c0-109.584-88.84-198.426-198.428-198.426c-109.588,0-198.425,88.842-198.425,198.426
		c0,109.588,88.837,198.423,198.425,198.423C322.185,411.022,411.025,322.188,411.025,212.6"/>
</g>
<g id="ELLIPSE">
	<path style="fill:none;stroke:#005EB8;stroke-width:0.5;stroke-miterlimit:10;" d="M411.025,212.6
		c0-109.584-88.84-198.426-198.428-198.426c-109.588,0-198.425,88.842-198.425,198.426c0,109.588,88.837,198.423,198.425,198.423
		C322.185,411.022,411.025,322.188,411.025,212.6"/>
</g>
<g id="CIRCLE">
	<path style="fill:#005EB8;" d="M401.718,212.6c0-104.453-84.673-189.126-189.121-189.126S23.473,108.146,23.473,212.6
		s84.676,189.126,189.124,189.126S401.718,317.053,401.718,212.6L401.718,212.6z"/>
</g>
<g id="LWPOLYLINE_2_">
	<path style="fill:#FFFFFF;" d="M225.762,123.269c-1.262-8.291-9.017-13.985-17.313-12.719c-7.475,1.146-12.967,7.61-12.886,15.172
		l-2.028,24.743c-0.081,0.983-0.641,1.858-1.497,2.345l-13.859,7.872c-1.687,0.956-3.797,0.717-5.23-0.595
		c-9.82-9.045-19.964-17.729-30.425-26.038c-14.139-11.366-33.265-14.351-50.2-7.827c-7.529-1.118-15.194-0.694-22.552,1.249
		l11.199,5.563l6.754,52.455c1.199,4.945,6.177,7.98,11.118,6.785c1.722-0.415,3.292-1.321,4.509-2.602
		c2.2,0.234,4.175-1.357,4.41-3.553c0-0.009-0.875-8.242-0.875-8.242l4.5-14.392l7.169-4.076c7.295,10.001,12.786,21.2,16.222,33.09
		c-0.226,10.095,2.083,20.086,6.718,29.059c-13.247,1.866-26.006,6.303-37.566,13.048c-2.254,1.316-3.391,3.954-2.795,6.502
		c2.958,12.597,6.691,25.005,11.164,37.151c4.374,8.386,12.714,13.977,22.128,14.852V280.56h-6.898
		c-1.245-3.373-4.274-5.768-7.854-6.182c-1.281-1.114-2.047-2.705-2.137-4.4c-1.136-7.318-2.354-14.627-3.661-21.917
		c-0.271-1.551,0.703-3.048,2.236-3.418l11.578-2.795c10.631-0.019,21.092-2.674,30.443-7.737l5.753,2.593
		c4.896,9.716,10.46,19.085,16.664,28.026l15.194,31.168c0.722,3.377-0.027,6.898-2.056,9.689
		c-3.517,3.584-6.276,7.841-8.106,12.512h13.021c0.045-4.297,1.695-8.422,4.635-11.556l2.868-3.084
		c0.893-1.772,0.73-3.896-0.424-5.51c-2.146-2.764-3.652-5.965-4.419-9.378c-2.831-9.572-5.501-19.189-7.998-28.852
		c-1.19-8.323-2.895-16.561-5.095-24.672c20.586,2.408,41.435,1.565,61.769-2.488c2.228,11.421,5.681,22.57,10.298,33.256
		c0.848,1.962,0.577,4.225-0.703,5.934c-10.136,13.504-20.082,27.151-29.83,40.939l-3.002,5.414h13.029l2.201-8.255l2.29-0.901
		c1.614-0.632,2.858-1.948,3.408-3.59l1.804-5.374c7.016-11.47,16.259-21.425,27.16-29.288c1.425-1.023,2.119-2.782,1.776-4.5
		l-1.884-9.432c-2.038-9.369,2.795-18.874,11.56-22.756c3.463,7.083,9.225,12.773,16.349,16.146
		c9.712,4.712,17.791,12.21,23.22,21.534c4.175,9.531,7.557,19.383,10.108,29.469c0.045,2.173-0.379,4.337-1.235,6.339
		c-2.795,3.075-4.941,6.69-6.321,10.613l12.606,0.005v-7.823l3.526-3.985c1.046-1.177,1.389-2.813,0.919-4.314l-10.73-33.757v-11.38
		c0-0.856-0.37-1.678-1.019-2.241c-11.461-10.063-16.881-25.361-14.302-40.402c1.01-13.661-3.913-27.097-13.517-36.872
		c-0.082-0.086-0.145-0.189-0.189-0.297c-0.181-0.46,0.045-0.979,0.505-1.164c6.979-2.759,14.888,0.487,17.917,7.358
		c4.437,11.371,6.33,23.571,5.564,35.754c0.225,10.866,4.968,21.146,13.084,28.369c3.228,2.443,7.674,2.488,10.965,0.126
		c-0.145-0.031-0.279-0.067-0.415-0.108c-5.059-1.415-8.007-6.664-6.583-11.718c4.167-11.259,5.077-23.463,2.606-35.213
		c-3.399-20.393-22.679-34.176-43.076-30.781c-1.461,0.244-2.912,0.577-4.328,0.992c-1.434,0.415-2.976,0.279-4.311-0.379
		c-13.337-6.601-28.594-8.224-43.013-4.563c-4.707,1.294-9.54,2.105-14.41,2.426c-2.695,0.135-5.365,0.567-7.971,1.28
		C231.93,153.924,229.18,138.526,225.762,123.269z"/>
</g>
<g id="LWPOLYLINE_3_">
	<path style="fill:#FFFFFF;" d="M192.281,80.089l-11.561,2.584l0.1,4.184l9.522-0.748c-1.046,8.977,5.374,17.11,14.355,18.161
		c8.973,1.055,17.106-5.37,18.161-14.347c1.055-8.981-5.374-17.111-14.355-18.161C201.912,70.986,195.5,74.277,192.281,80.089z"/>
</g>
</svg>
