<?xml version="1.0" encoding="UTF-8" standalone="no"?>
<!-- Generator: Adobe Illustrator 16.0.0, SVG Export Plug-In . SVG Version: 6.00 Build 0)  -->

<svg
   xmlns:dc="http://purl.org/dc/elements/1.1/"
   xmlns:cc="http://creativecommons.org/ns#"
   xmlns:rdf="http://www.w3.org/1999/02/22-rdf-syntax-ns#"
   xmlns:svg="http://www.w3.org/2000/svg"
   xmlns="http://www.w3.org/2000/svg"
   xmlns:sodipodi="http://sodipodi.sourceforge.net/DTD/sodipodi-0.dtd"
   xmlns:inkscape="http://www.inkscape.org/namespaces/inkscape"
   version="1.1"
   id="Layer_1"
   x="0px"
   y="0px"
   width="397.353"
   height="397.349"
   viewBox="0 0 397.35301 397.34899"
   xml:space="preserve"
   sodipodi:docname="D9.svg"
   inkscape:version="0.92.5 (2060ec1f9f, 2020-04-08)"><metadata
   id="metadata1797"><rdf:RDF><cc:Work
       rdf:about=""><dc:format>image/svg+xml</dc:format><dc:type
         rdf:resource="http://purl.org/dc/dcmitype/StillImage" /></cc:Work></rdf:RDF></metadata><defs
   id="defs1795" /><sodipodi:namedview
   pagecolor="#ffffff"
   bordercolor="#666666"
   borderopacity="1"
   objecttolerance="10"
   gridtolerance="10"
   guidetolerance="10"
   inkscape:pageopacity="0"
   inkscape:pageshadow="2"
   inkscape:window-width="640"
   inkscape:window-height="480"
   id="namedview1793"
   showgrid="false"
   inkscape:zoom="0.55503813"
   inkscape:cx="198.6765"
   inkscape:cy="198.67499"
   inkscape:window-x="0"
   inkscape:window-y="0"
   inkscape:window-maximized="0"
   inkscape:current-layer="Layer_1" />
<g
   id="ELLIPSE_1_"
   transform="translate(-13.922,-13.924)">
	<path
   style="fill:#ffffff"
   d="m 411.025,212.6 c 0,-109.584 -88.84,-198.426 -198.428,-198.426 -109.588,0 -198.425,88.842 -198.425,198.426 0,109.588 88.837,198.423 198.425,198.423 109.588,-0.001 198.428,-88.835 198.428,-198.423"
   id="path1777"
   inkscape:connector-curvature="0" />
</g>
<g
   id="ELLIPSE"
   transform="translate(-13.922,-13.924)">
	<path
   style="fill:none;stroke:#005eb8;stroke-width:0.5;stroke-miterlimit:10"
   d="m 411.025,212.6 c 0,-109.584 -88.84,-198.426 -198.428,-198.426 -109.588,0 -198.425,88.842 -198.425,198.426 0,109.588 88.837,198.423 198.425,198.423 109.588,-0.001 198.428,-88.835 198.428,-198.423"
   id="path1780"
   inkscape:connector-curvature="0" />
</g>
<g
   id="CIRCLE"
   transform="translate(-13.922,-13.924)">
	<path
   style="fill:#005eb8"
   d="m 401.718,212.6 c 0,-104.453 -84.673,-189.126 -189.121,-189.126 -104.448,0 -189.124,84.672 -189.124,189.126 0,104.454 84.676,189.126 189.124,189.126 104.448,0 189.121,-84.673 189.121,-189.126 z"
   id="path1783"
   inkscape:connector-curvature="0" />
</g>
<g
   id="LWPOLYLINE_2_"
   transform="translate(-13.922,-13.924)">
	<path
   style="fill:#ffffff"
   d="m 225.762,123.269 c -1.262,-8.291 -9.017,-13.985 -17.313,-12.719 -7.475,1.146 -12.967,7.61 -12.886,15.172 l -2.028,24.743 c -0.081,0.983 -0.641,1.858 -1.497,2.345 l -13.859,7.872 c -1.687,0.956 -3.797,0.717 -5.23,-0.595 -9.82,-9.045 -19.964,-17.729 -30.425,-26.038 -14.139,-11.366 -33.265,-14.351 -50.2,-7.827 -7.529,-1.118 -15.194,-0.694 -22.552,1.249 l 11.199,5.563 6.754,52.455 c 1.199,4.945 6.177,7.98 11.118,6.785 1.722,-0.415 3.292,-1.321 4.509,-2.602 2.2,0.234 4.175,-1.357 4.41,-3.553 0,-0.009 -0.875,-8.242 -0.875,-8.242 l 4.5,-14.392 7.169,-4.076 c 7.295,10.001 12.786,21.2 16.222,33.09 -0.226,10.095 2.083,20.086 6.718,29.059 -13.247,1.866 -26.006,6.303 -37.566,13.048 -2.254,1.316 -3.391,3.954 -2.795,6.502 2.958,12.597 6.691,25.005 11.164,37.151 4.374,8.386 12.714,13.977 22.128,14.852 V 280.56 h -6.898 c -1.245,-3.373 -4.274,-5.768 -7.854,-6.182 -1.281,-1.114 -2.047,-2.705 -2.137,-4.4 -1.136,-7.318 -2.354,-14.627 -3.661,-21.917 -0.271,-1.551 0.703,-3.048 2.236,-3.418 l 11.578,-2.795 c 10.631,-0.019 21.092,-2.674 30.443,-7.737 l 5.753,2.593 c 4.896,9.716 10.46,19.085 16.664,28.026 l 15.194,31.168 c 0.722,3.377 -0.027,6.898 -2.056,9.689 -3.517,3.584 -6.276,7.841 -8.106,12.512 h 13.021 c 0.045,-4.297 1.695,-8.422 4.635,-11.556 l 2.868,-3.084 c 0.893,-1.772 0.73,-3.896 -0.424,-5.51 -2.146,-2.764 -3.652,-5.965 -4.419,-9.378 -2.831,-9.572 -5.501,-19.189 -7.998,-28.852 -1.19,-8.323 -2.895,-16.561 -5.095,-24.672 20.586,2.408 41.435,1.565 61.769,-2.488 2.228,11.421 5.681,22.57 10.298,33.256 0.848,1.962 0.577,4.225 -0.703,5.934 -10.136,13.504 -20.082,27.151 -29.83,40.939 l -3.002,5.414 h 13.029 l 2.201,-8.255 2.29,-0.901 c 1.614,-0.632 2.858,-1.948 3.408,-3.59 l 1.804,-5.374 c 7.016,-11.47 16.259,-21.425 27.16,-29.288 1.425,-1.023 2.119,-2.782 1.776,-4.5 l -1.884,-9.432 c -2.038,-9.369 2.795,-18.874 11.56,-22.756 3.463,7.083 9.225,12.773 16.349,16.146 9.712,4.712 17.791,12.21 23.22,21.534 4.175,9.531 7.557,19.383 10.108,29.469 0.045,2.173 -0.379,4.337 -1.235,6.339 -2.795,3.075 -4.941,6.69 -6.321,10.613 l 12.606,0.005 v -7.823 l 3.526,-3.985 c 1.046,-1.177 1.389,-2.813 0.919,-4.314 l -10.73,-33.757 v -11.38 c 0,-0.856 -0.37,-1.678 -1.019,-2.241 -11.461,-10.063 -16.881,-25.361 -14.302,-40.402 1.01,-13.661 -3.913,-27.097 -13.517,-36.872 -0.082,-0.086 -0.145,-0.189 -0.189,-0.297 -0.181,-0.46 0.045,-0.979 0.505,-1.164 6.979,-2.759 14.888,0.487 17.917,7.358 4.437,11.371 6.33,23.571 5.564,35.754 0.225,10.866 4.968,21.146 13.084,28.369 3.228,2.443 7.674,2.488 10.965,0.126 -0.145,-0.031 -0.279,-0.067 -0.415,-0.108 -5.059,-1.415 -8.007,-6.664 -6.583,-11.718 4.167,-11.259 5.077,-23.463 2.606,-35.213 -3.399,-20.393 -22.679,-34.176 -43.076,-30.781 -1.461,0.244 -2.912,0.577 -4.328,0.992 -1.434,0.415 -2.976,0.279 -4.311,-0.379 -13.337,-6.601 -28.594,-8.224 -43.013,-4.563 -4.707,1.294 -9.54,2.105 -14.41,2.426 -2.695,0.135 -5.365,0.567 -7.971,1.28 -2.066,-15.496 -4.816,-30.894 -8.234,-46.151 z"
   id="path1786"
   inkscape:connector-curvature="0" />
</g>
<g
   id="LWPOLYLINE_3_"
   transform="translate(-13.922,-13.924)">
	<path
   style="fill:#ffffff"
   d="m 192.281,80.089 -11.561,2.584 0.1,4.184 9.522,-0.748 c -1.046,8.977 5.374,17.11 14.355,18.161 8.973,1.055 17.106,-5.37 18.161,-14.347 1.055,-8.981 -5.374,-17.111 -14.355,-18.161 -6.591,-0.776 -13.003,2.515 -16.222,8.327 z"
   id="path1789"
   inkscape:connector-curvature="0" />
</g>
</svg>