<?xml version="1.0" encoding="iso-8859-1"?>
<!-- Generator: Adobe Illustrator 16.0.0, SVG Export Plug-In . SVG Version: 6.00 Build 0)  -->
<!DOCTYPE svg PUBLIC "-//W3C//DTD SVG 1.1//EN" "http://www.w3.org/Graphics/SVG/1.1/DTD/svg11.dtd">
<svg version="1.1" id="Layer_1" xmlns="http://www.w3.org/2000/svg" xmlns:xlink="http://www.w3.org/1999/xlink" x="0px" y="0px"
	 width="425.197px" height="425.196px" viewBox="0 0 425.197 425.196" style="enable-background:new 0 0 425.197 425.196;"
	 xml:space="preserve">
<g id="LWPOLYLINE_5_">
	
		<rect x="14.171" y="14.173" style="fill:#005EB8;stroke:#005EB8;stroke-width:0.5;stroke-miterlimit:10;" width="396.854" height="396.851"/>
</g>
<g id="LWPOLYLINE_4_">
	<path style="fill:#FFFFFF;" d="M31.811,14.173c-9.743,0-17.64,7.896-17.64,17.637v361.58c0,9.743,7.896,17.634,17.64,17.634
		h361.574c9.738,0,17.64-7.891,17.64-17.634V31.81c0-9.74-7.901-17.637-17.64-17.637H31.811z"/>
</g>
<g id="LWPOLYLINE_36_">
	<path style="fill:#005EB8;" d="M31.811,22.993c-4.874,0-8.819,3.947-8.819,8.816v361.58c0,4.869,3.945,8.819,8.819,8.819h361.574
		c4.874,0,8.825-3.95,8.825-8.819V31.81c0-4.869-3.951-8.816-8.825-8.816H31.811z"/>
</g>
<g id="LWPOLYLINE_25_">
	<path style="fill:#FFFFFF;" d="M280.386,174.995h6.547c3.314,5.7,10.62,7.64,16.315,4.336c2.791-1.621,4.803-4.289,5.593-7.414
		h30.518v-42.005l-9.226-39.517H187.695v-4.3l33.309-22.75L181.127,36.22l-39.794,27.049l32.601,22.827v4.3H95.763l-11.257,41.313
		v40.209h30.691c1.766,6.49,8.456,10.328,14.94,8.563c3.038-0.821,5.645-2.791,7.255-5.485h7.737
		c3.223,5.639,10.405,7.589,16.039,4.366c1.816-1.041,3.324-2.545,4.371-4.366h94.107c3.387,5.721,10.774,7.619,16.5,4.233
		C277.893,178.197,279.35,176.74,280.386,174.995z"/>
</g>
<g id="LWPOLYLINE_32_">
	<polygon style="fill:#FFFFFF;" points="156.859,345.012 170.096,345.012 174.366,330.02 201.096,330.02 205.365,345.012 
		218.592,345.012 195.227,256.82 180.235,256.82 	"/>
</g>
<g id="LWPOLYLINE_21_">
	<rect x="128.025" y="99.466" style="fill:#005EB8;" width="30.354" height="30.99"/>
</g>
<g id="LWPOLYLINE_23_">
	<polygon style="fill:#005EB8;" points="121.755,99.466 98.739,99.466 90.817,130.456 121.755,130.456 	"/>
</g>
<g id="LWPOLYLINE_24_">
	<rect x="237.35" y="99.466" style="fill:#005EB8;" width="30.353" height="30.99"/>
</g>
<g id="LWPOLYLINE_26_">
	<rect x="164.463" y="99.466" style="fill:#005EB8;" width="30.353" height="30.99"/>
</g>
<g id="LWPOLYLINE_27_">
	<rect x="200.901" y="99.466" style="fill:#005EB8;" width="30.364" height="30.99"/>
</g>
<g id="LWPOLYLINE_28_">
	<polyline style="fill:#005EB8;" points="209.121,62.489 181.209,43.646 152.909,62.956 180.82,82.735 209.121,62.489 	"/>
</g>
<g id="LWPOLYLINE_29_">
	<rect x="273.789" y="99.466" style="fill:#005EB8;" width="30.353" height="30.99"/>
</g>
<g id="LWPOLYLINE_30_">
	<polyline style="fill:#005EB8;" points="326.491,99.466 310.257,99.466 310.257,130.456 333.325,130.456 326.491,99.466 	"/>
</g>
<g id="LWPOLYLINE_33_">
	<polygon style="fill:#005EB8;" points="187.726,283.125 178.131,316.788 197.331,316.788 	"/>
</g>
<g id="LWPOLYLINE_22_">
	<polyline style="fill:#FFFFFF;" points="64.958,181.142 64.958,190.552 360.466,190.552 360.466,181.142 64.958,181.142 	"/>
</g>
<g id="LWPOLYLINE_31_">
	<polygon style="fill:#FFFFFF;" points="150.826,256.82 93.505,256.82 93.505,270.047 115.557,270.047 115.557,345.012 
		128.784,345.012 128.784,270.047 150.826,270.047 	"/>
</g>
<g id="LWPOLYLINE_34_">
	<polygon style="fill:#FFFFFF;" points="271.952,345.012 258.283,314.967 244.615,345.012 229.623,345.012 250.782,298.492 
		231.83,256.82 246.821,256.82 258.283,282.018 269.746,256.82 284.737,256.82 265.774,298.492 286.943,345.012 	"/>
</g>
<g id="LWPOLYLINE_35_">
	<rect x="307.671" y="256.82" style="fill:#FFFFFF;" width="13.227" height="88.191"/>
</g>
</svg>
