<?xml version="1.0" encoding="iso-8859-1"?>
<!-- Generator: Adobe Illustrator 16.0.0, SVG Export Plug-In . SVG Version: 6.00 Build 0)  -->
<!DOCTYPE svg PUBLIC "-//W3C//DTD SVG 1.1//EN" "http://www.w3.org/Graphics/SVG/1.1/DTD/svg11.dtd">
<svg version="1.1" id="Layer_1" xmlns="http://www.w3.org/2000/svg" xmlns:xlink="http://www.w3.org/1999/xlink" x="0px" y="0px"
	 width="425.197px" height="425.196px" viewBox="0 0 425.197 425.196" style="enable-background:new 0 0 425.197 425.196;"
	 xml:space="preserve">
<g id="LWPOLYLINE_5_">
	
		<rect x="14.171" y="14.173" style="fill:#005EB8;stroke:#005EB8;stroke-width:0.5;stroke-miterlimit:10;" width="396.854" height="396.851"/>
</g>
<g id="LWPOLYLINE_4_">
	<path style="fill:#FFFFFF;" d="M31.811,14.173c-9.743,0-17.64,7.896-17.64,17.637v361.58c0,9.743,7.896,17.634,17.64,17.634
		h361.574c9.738,0,17.64-7.891,17.64-17.634V31.81c0-9.74-7.901-17.637-17.64-17.637H31.811z"/>
</g>
<g id="LWPOLYLINE_42_">
	<path style="fill:#005EB8;" d="M31.811,22.993c-4.874,0-8.819,3.947-8.819,8.816v361.58c0,4.869,3.945,8.819,8.819,8.819h361.574
		c4.874,0,8.825-3.95,8.825-8.819V31.81c0-4.869-3.951-8.816-8.825-8.816H31.811z"/>
</g>
<g id="LWPOLYLINE_32_">
	<path style="fill:#FFFFFF;" d="M137.393,249.955h7.737c3.223,5.639,10.405,7.589,16.039,4.366c1.816-1.036,3.324-2.545,4.371-4.366
		h94.107c3.387,5.727,10.774,7.619,16.5,4.233c1.745-1.026,3.202-2.483,4.238-4.233h6.547c3.314,5.7,10.62,7.64,16.315,4.336
		c2.791-1.616,4.803-4.289,5.593-7.414h30.518v-42.005l-9.226-39.512H187.695v-4.305l33.309-22.75l-39.876-27.121l-39.794,27.049
		l32.601,22.822v4.305H95.763l-11.257,41.308v40.209h30.691c1.766,6.495,8.456,10.328,14.94,8.568
		C133.176,254.619,135.783,252.654,137.393,249.955z"/>
</g>
<g id="LWPOLYLINE_29_">
	<rect x="128.025" y="174.426" style="fill:#005EB8;" width="30.354" height="30.99"/>
</g>
<g id="LWPOLYLINE_31_">
	<polygon style="fill:#005EB8;" points="121.755,174.426 98.739,174.426 90.817,205.416 121.755,205.416 	"/>
</g>
<g id="LWPOLYLINE_33_">
	<rect x="237.35" y="174.426" style="fill:#005EB8;" width="30.353" height="30.99"/>
</g>
<g id="LWPOLYLINE_34_">
	<rect x="164.463" y="174.426" style="fill:#005EB8;" width="30.353" height="30.99"/>
</g>
<g id="LWPOLYLINE_35_">
	<rect x="200.901" y="174.426" style="fill:#005EB8;" width="30.364" height="30.99"/>
</g>
<g id="LWPOLYLINE_36_">
	<polyline style="fill:#005EB8;" points="209.121,137.449 181.209,118.608 152.909,137.916 180.82,157.7 209.121,137.449 	"/>
</g>
<g id="LWPOLYLINE_37_">
	<rect x="273.789" y="174.426" style="fill:#005EB8;" width="30.353" height="30.99"/>
</g>
<g id="LWPOLYLINE_38_">
	<polygon style="fill:#005EB8;" points="326.491,174.426 310.257,174.426 310.257,205.416 333.325,205.416 	"/>
</g>
<g id="LWPOLYLINE_30_">
	<rect x="64.958" y="256.102" style="fill:#FFFFFF;" width="295.508" height="9.415"/>
</g>
</svg>
