<?xml version="1.0" encoding="UTF-8" standalone="no"?>
<!-- Generator: Adobe Illustrator 16.0.0, SVG Export Plug-In . SVG Version: 6.00 Build 0)  -->

<svg
   xmlns:dc="http://purl.org/dc/elements/1.1/"
   xmlns:cc="http://creativecommons.org/ns#"
   xmlns:rdf="http://www.w3.org/1999/02/22-rdf-syntax-ns#"
   xmlns:svg="http://www.w3.org/2000/svg"
   xmlns="http://www.w3.org/2000/svg"
   xmlns:sodipodi="http://sodipodi.sourceforge.net/DTD/sodipodi-0.dtd"
   xmlns:inkscape="http://www.inkscape.org/namespaces/inkscape"
   version="1.1"
   id="Layer_1"
   x="0px"
   y="0px"
   width="397.35101"
   height="397.35101"
   viewBox="0 0 397.35102 397.351"
   xml:space="preserve"
   sodipodi:docname="E12.1.svg"
   inkscape:version="0.92.5 (2060ec1f9f, 2020-04-08)"><metadata
   id="metadata293"><rdf:RDF><cc:Work
       rdf:about=""><dc:format>image/svg+xml</dc:format><dc:type
         rdf:resource="http://purl.org/dc/dcmitype/StillImage" /></cc:Work></rdf:RDF></metadata><defs
   id="defs291" /><sodipodi:namedview
   pagecolor="#ffffff"
   bordercolor="#666666"
   borderopacity="1"
   objecttolerance="10"
   gridtolerance="10"
   guidetolerance="10"
   inkscape:pageopacity="0"
   inkscape:pageshadow="2"
   inkscape:window-width="640"
   inkscape:window-height="480"
   id="namedview289"
   showgrid="false"
   inkscape:zoom="0.55503813"
   inkscape:cx="198.6755"
   inkscape:cy="198.67601"
   inkscape:window-x="0"
   inkscape:window-y="0"
   inkscape:window-maximized="0"
   inkscape:current-layer="Layer_1" />
<g
   id="LWPOLYLINE_27_"
   transform="translate(-13.923,-13.923)">
	
		<rect
   x="14.173"
   y="14.173"
   style="fill:#005eb8;stroke:#005eb8;stroke-width:0.5;stroke-miterlimit:10"
   width="396.85101"
   height="396.85101"
   id="rect249" />
</g>
<g
   id="LWPOLYLINE_14_"
   transform="translate(-13.923,-13.923)">
	<path
   style="fill:#ffffff"
   d="m 31.807,14.173 c -9.736,0 -17.634,7.896 -17.634,17.638 v 361.574 c 0,9.741 7.897,17.639 17.634,17.639 h 361.582 c 9.736,0 17.635,-7.897 17.635,-17.639 V 31.811 c 0,-9.741 -7.898,-17.638 -17.635,-17.638 z"
   id="path252"
   inkscape:connector-curvature="0" />
</g>
<g
   id="LWPOLYLINE_4_"
   transform="translate(-13.923,-13.923)">
	<path
   style="fill:#005eb8"
   d="M 366.038,22.99 H 31.807 c -4.863,0 -8.813,3.949 -8.813,8.82 v 334.223 z"
   id="path255"
   inkscape:connector-curvature="0" />
</g>
<g
   id="LWPOLYLINE_5_"
   transform="translate(-13.923,-13.923)">
	<path
   style="fill:#005eb8"
   d="m 59.159,402.207 h 334.23 c 4.863,0 8.813,-3.949 8.813,-8.822 V 59.159 Z"
   id="path258"
   inkscape:connector-curvature="0" />
</g>
<g
   id="LWPOLYLINE_15_"
   transform="translate(-13.923,-13.923)">
	<path
   style="fill:#ffffff"
   d="m 294.79,166.576 -9.231,9.23 h 12.344 v 30.776 h -29.54 v -13.584 l -6.157,6.157 v 7.427 h -7.422 l -43.546,43.541 h 48.205 c 3.502,5.948 11.166,7.933 17.119,4.421 1.819,-1.069 3.346,-2.597 4.416,-4.421 h 5.777 c 3.133,5.734 10.32,7.835 16.059,4.703 2.977,-1.629 5.117,-4.465 5.865,-7.781 h 30.775 V 206.582 L 328.678,166.575 H 294.79 Z"
   id="path261"
   inkscape:connector-curvature="0" />
</g>
<g
   id="LWPOLYLINE_13_"
   transform="translate(-13.923,-13.923)">
	<polygon
   style="fill:#ffffff"
   points="360.318,265.512 195.849,265.512 205.089,256.276 360.318,256.276 "
   id="polygon264" />
</g>
<g
   id="LWPOLYLINE_12_"
   transform="translate(-13.923,-13.923)">
	<polygon
   style="fill:#ffffff"
   points="64.878,256.276 132.751,256.276 123.521,265.512 64.878,265.512 "
   id="polygon267" />
</g>
<g
   id="LWPOLYLINE_11_"
   transform="translate(-13.923,-13.923)">
	<path
   style="fill:#ffffff"
   d="m 222.452,166.576 -9.23,9.23 h -16.254 v 16.254 l -6.157,6.157 v -22.411 h -29.54 v 30.776 h 21.176 L 138.9,250.123 h -2.179 c -1.634,2.981 -4.465,5.121 -7.781,5.865 -6.371,1.435 -12.703,-2.572 -14.144,-8.943 H 84.02 v -40.463 l 10.777,-40.007 h 79.254 v -5.116 l -32.623,-22.58 40.006,-27.697 40.016,27.697 -32.623,22.58 v 5.116 h 33.625 z"
   id="path270"
   inkscape:connector-curvature="0" />
</g>
<g
   id="LWPOLYLINE_10_"
   transform="translate(-13.923,-13.923)">
	<polygon
   style="fill:#005eb8"
   points="92.667,206.583 119.417,206.583 119.417,175.807 100.955,175.807 "
   id="polygon273" />
</g>
<g
   id="LWPOLYLINE_9_"
   transform="translate(-13.923,-13.923)">
	<rect
   x="125.573"
   y="175.80701"
   style="fill:#005eb8"
   width="29.541"
   height="30.775999"
   id="rect276" />
</g>
<g
   id="LWPOLYLINE_8_"
   transform="translate(-13.923,-13.923)">
	<polygon
   style="fill:#005eb8"
   points="304.059,206.583 330.807,206.583 322.53,175.807 304.059,175.807 "
   id="polygon279" />
</g>
<g
   id="LWPOLYLINE_7_"
   transform="translate(-13.923,-13.923)">
	<polygon
   style="fill:#005eb8"
   points="152.244,138.88 181.434,159.087 210.633,138.88 181.434,118.667 "
   id="polygon282" />
</g>
<g
   id="LWPOLYLINE_6_"
   transform="translate(-13.923,-13.923)">
	<path
   style="fill:#e4002b"
   d="M 54.169,402.207 402.202,54.17 V 31.811 c 0,-4.871 -3.949,-8.82 -8.813,-8.82 H 371.027 L 22.995,371.022 v 22.362 c 0,4.873 3.949,8.822 8.813,8.822 h 22.361 z"
   id="path285"
   inkscape:connector-curvature="0" />
</g>
</svg>