<?xml version="1.0" encoding="iso-8859-1"?>
<!-- Generator: Adobe Illustrator 16.0.0, SVG Export Plug-In . SVG Version: 6.00 Build 0)  -->
<!DOCTYPE svg PUBLIC "-//W3C//DTD SVG 1.1//EN" "http://www.w3.org/Graphics/SVG/1.1/DTD/svg11.dtd">
<svg version="1.1" id="Layer_1" xmlns="http://www.w3.org/2000/svg" xmlns:xlink="http://www.w3.org/1999/xlink" x="0px" y="0px"
	 width="425.197px" height="425.196px" viewBox="0 0 425.197 425.196" style="enable-background:new 0 0 425.197 425.196;"
	 xml:space="preserve">
<g id="LWPOLYLINE_16_">
	
		<rect x="113.385" y="14.174" style="fill:#005EB8;stroke:#005EB8;stroke-width:0.5;stroke-miterlimit:10;" width="198.427" height="396.849"/>
</g>
<g id="LWPOLYLINE_18_">
	<path style="fill:#FFFFFF;" d="M311.812,391.182V34.018c0-10.96-8.889-19.844-19.849-19.844H133.226
		c-10.96,0-19.841,8.884-19.841,19.844v357.164c0,10.96,8.881,19.841,19.841,19.841h158.737
		C302.923,411.022,311.812,402.142,311.812,391.182z"/>
</g>
<g id="LWPOLYLINE_17_">
	<path style="fill:#005EB8;" d="M301.891,391.182V34.018c0-5.48-4.444-9.921-9.928-9.921H133.226c-5.477,0-9.921,4.44-9.921,9.921
		v357.164c0,5.479,4.444,9.921,9.921,9.921h158.737C297.447,401.103,301.891,396.661,301.891,391.182z"/>
</g>
<g id="LWPOLYLINE_19_">
	<polygon style="fill:#FFFFFF;" points="232.44,378.779 232.44,115.37 282.042,164.975 282.042,115.868 212.598,46.42 
		143.147,115.868 143.147,164.975 192.757,115.37 192.757,378.779 	"/>
</g>
</svg>
