<?xml version="1.0" encoding="UTF-8" standalone="no"?>
<!-- Generator: Adobe Illustrator 16.0.0, SVG Export Plug-In . SVG Version: 6.00 Build 0)  -->

<svg
   xmlns:dc="http://purl.org/dc/elements/1.1/"
   xmlns:cc="http://creativecommons.org/ns#"
   xmlns:rdf="http://www.w3.org/1999/02/22-rdf-syntax-ns#"
   xmlns:svg="http://www.w3.org/2000/svg"
   xmlns="http://www.w3.org/2000/svg"
   xmlns:sodipodi="http://sodipodi.sourceforge.net/DTD/sodipodi-0.dtd"
   xmlns:inkscape="http://www.inkscape.org/namespaces/inkscape"
   version="1.1"
   id="Layer_1"
   x="0px"
   y="0px"
   width="397.35501"
   height="397.345"
   viewBox="0 0 397.35502 397.34499"
   xml:space="preserve"
   sodipodi:docname="E14.2_2.svg"
   inkscape:version="0.92.5 (2060ec1f9f, 2020-04-08)"><metadata
   id="metadata763"><rdf:RDF><cc:Work
       rdf:about=""><dc:format>image/svg+xml</dc:format><dc:type
         rdf:resource="http://purl.org/dc/dcmitype/StillImage" /></cc:Work></rdf:RDF></metadata><defs
   id="defs761" /><sodipodi:namedview
   pagecolor="#ffffff"
   bordercolor="#666666"
   borderopacity="1"
   objecttolerance="10"
   gridtolerance="10"
   guidetolerance="10"
   inkscape:pageopacity="0"
   inkscape:pageshadow="2"
   inkscape:window-width="640"
   inkscape:window-height="480"
   id="namedview759"
   showgrid="false"
   inkscape:zoom="0.55503813"
   inkscape:cx="198.6785"
   inkscape:cy="198.673"
   inkscape:window-x="0"
   inkscape:window-y="0"
   inkscape:window-maximized="0"
   inkscape:current-layer="Layer_1" />
<g
   id="LWPOLYLINE_17_"
   transform="translate(-13.92,-13.926)">
	
		<rect
   x="14.17"
   y="212.59801"
   style="fill:#005eb8;stroke:#005eb8;stroke-width:0.5;stroke-miterlimit:10"
   width="396.85501"
   height="198.423"
   id="rect689" />
</g>
<g
   id="LWPOLYLINE_29_"
   transform="translate(-13.92,-13.926)">
	<path
   style="fill:#ffffff"
   d="M 391.176,212.598 H 34.02 c -10.964,0 -19.85,8.886 -19.85,19.845 v 158.739 c 0,10.959 8.886,19.839 19.85,19.839 h 357.156 c 10.965,0 19.85,-8.88 19.85,-19.839 v -158.74 c 0,-10.959 -8.885,-19.844 -19.85,-19.844 z"
   id="path692"
   inkscape:connector-curvature="0" />
</g>
<g
   id="LWPOLYLINE_28_"
   transform="translate(-13.92,-13.926)">
	<path
   style="fill:#005eb8"
   d="M 391.176,222.522 H 34.02 c -5.482,0 -9.925,4.442 -9.925,9.92 v 158.739 c 0,5.481 4.442,9.925 9.925,9.925 h 357.156 c 5.482,0 9.925,-4.443 9.925,-9.925 V 232.442 c 0,-5.477 -4.442,-9.92 -9.925,-9.92 z"
   id="path695"
   inkscape:connector-curvature="0" />
</g>
<g
   id="LWPOLYLINE_13_"
   transform="translate(-13.92,-13.926)">
	
		<rect
   x="14.17"
   y="14.176"
   style="fill:#005eb8;stroke:#005eb8;stroke-width:0.5;stroke-miterlimit:10"
   width="396.85501"
   height="198.422"
   id="rect698" />
</g>
<g
   id="LWPOLYLINE_15_"
   transform="translate(-13.92,-13.926)">
	<path
   style="fill:#ffffff"
   d="M 391.176,14.176 H 34.02 c -10.964,0 -19.85,8.885 -19.85,19.839 v 158.744 c 0,10.953 8.886,19.839 19.85,19.839 h 357.156 c 10.965,0 19.85,-8.886 19.85,-19.839 V 34.015 c 0,-10.954 -8.885,-19.839 -19.85,-19.839 z"
   id="path701"
   inkscape:connector-curvature="0" />
</g>
<g
   id="LWPOLYLINE_14_"
   transform="translate(-13.92,-13.926)">
	<path
   style="fill:#005eb8"
   d="M 391.176,24.095 H 34.02 c -5.482,0 -9.925,4.442 -9.925,9.92 v 158.744 c 0,5.477 4.442,9.919 9.925,9.919 h 357.156 c 5.482,0 9.925,-4.442 9.925,-9.919 V 34.015 c 0,-5.478 -4.442,-9.92 -9.925,-9.92 z"
   id="path704"
   inkscape:connector-curvature="0" />
</g>
<g
   id="LWPOLYLINE_16_"
   transform="translate(-13.92,-13.926)">
	<polygon
   style="fill:#ffffff"
   points="164.97,43.939 115.872,43.939 46.418,113.387 115.872,182.834 164.97,182.834 115.368,133.231 378.778,133.231 378.778,93.542 115.368,93.542 "
   id="polygon707" />
</g>
<g
   id="LWPOLYLINE_18_"
   transform="translate(-13.92,-13.926)">
	<polygon
   style="fill:#ffffff"
   points="62.789,322.254 50.883,322.254 50.883,313.324 58.915,313.324 58.915,308.859 50.883,308.859 50.883,301.419 62.789,301.419 62.789,296.954 46.418,296.954 46.418,326.718 62.789,326.718 "
   id="polygon710" />
</g>
<g
   id="LWPOLYLINE_19_"
   transform="translate(-13.92,-13.926)">
	<rect
   x="68.150002"
   y="304.396"
   style="fill:#ffffff"
   width="4.4650002"
   height="22.322001"
   id="rect713" />
</g>
<g
   id="LWPOLYLINE_20_"
   transform="translate(-13.92,-13.926)">
	<rect
   x="68.150002"
   y="296.95401"
   style="fill:#ffffff"
   width="4.4650002"
   height="4.4650002"
   id="rect716" />
</g>
<g
   id="LWPOLYLINE_21_"
   transform="translate(-13.92,-13.926)">
	<polygon
   style="fill:#ffffff"
   points="87.486,296.954 91.951,296.954 91.951,313.401 97.904,304.396 102.368,304.396 97.28,312.044 102.401,326.729 97.904,326.718 94.325,316.476 91.951,320.021 91.951,326.718 87.486,326.718 "
   id="polygon719" />
</g>
<g
   id="LWPOLYLINE_22_"
   transform="translate(-13.92,-13.926)">
	<path
   style="fill:#ffffff"
   d="m 105.651,319.277 c 0,4.114 3.326,7.44 7.44,7.44 4.104,0 7.441,-3.326 7.441,-7.44 v -7.441 c 0,-4.104 -3.338,-7.44 -7.441,-7.44 -4.114,0 -7.44,3.337 -7.44,7.44 z"
   id="path722"
   inkscape:connector-curvature="0" />
</g>
<g
   id="LWPOLYLINE_24_"
   transform="translate(-13.92,-13.926)">
	<path
   style="fill:#ffffff"
   d="m 124.691,319.277 c 0,4.114 3.337,7.44 7.44,7.44 h 0.603 c 3.61,0 6.543,-2.933 6.543,-6.543 0,-2.331 -1.236,-4.487 -3.25,-5.657 l -4.935,-2.878 c -0.46,-0.274 -0.744,-0.761 -0.744,-1.292 0,-0.82 0.667,-1.488 1.488,-1.488 h 0.897 c 0.82,0 1.488,0.668 1.488,1.488 h 4.464 c 0,-3.282 -2.67,-5.952 -5.952,-5.952 h -0.897 c -3.283,0 -5.953,2.67 -5.953,5.952 0,2.123 1.127,4.082 2.954,5.144 l 4.946,2.878 c 0.635,0.377 1.029,1.062 1.029,1.806 0,1.148 -0.931,2.079 -2.079,2.079 h -0.603 c -1.642,0 -2.976,-1.33 -2.976,-2.977 z"
   id="path725"
   inkscape:connector-curvature="0" />
</g>
<g
   id="LWPOLYLINE_25_"
   transform="translate(-13.92,-13.926)">
	<polygon
   style="fill:#ffffff"
   points="144.343,296.954 148.808,296.954 148.808,313.401 154.761,304.396 159.226,304.396 154.126,312.044 159.248,326.729 154.761,326.718 151.171,316.476 148.808,320.021 148.808,326.718 144.343,326.718 "
   id="polygon728" />
</g>
<g
   id="LWPOLYLINE_26_"
   transform="translate(-13.92,-13.926)">
	<path
   style="fill:#ffffff"
   d="m 172.62,319.277 h 4.464 c 0,4.114 -3.337,7.44 -7.44,7.44 -4.114,0 -7.441,-3.326 -7.441,-7.44 v -7.441 c 0,-4.104 3.327,-7.44 7.441,-7.44 4.104,0 7.44,3.337 7.44,7.44 v 4.17 h -10.417 v 3.271 c 0,1.646 1.324,2.977 2.977,2.977 1.641,0 2.976,-1.33 2.976,-2.977 z"
   id="path731"
   inkscape:connector-curvature="0" />
</g>
<g
   id="LWPOLYLINE_33_"
   transform="translate(-13.92,-13.926)">
	<path
   style="fill:#ffffff"
   d="m 323.715,292.02 7.648,10.92 c 2.933,-1.734 6.139,-2.976 9.477,-3.688 16.972,-3.6 33.659,7.244 37.26,24.222 3.6,16.978 -7.244,33.659 -24.228,37.26 -16.972,3.6 -33.659,-7.244 -37.26,-24.222 h -10.986 c -2.527,0 -4.945,-1.066 -6.642,-2.933 l -36.986,-39.432 -2.101,6.916 c 13.547,5.739 21.294,20.118 18.635,34.595 -3.129,17.07 -19.5,28.374 -36.57,25.245 -17.07,-3.13 -28.374,-19.5 -25.244,-36.57 3.129,-17.071 19.5,-28.374 36.57,-25.25 l 8.973,-29.441 c 1.346,-4.421 5.417,-7.436 10.034,-7.436 h 12.113 v 6.894 h -12.113 c -1.575,0 -2.977,1.034 -3.436,2.55 l -2.517,8.245 51.222,8.863 5.285,-14.279 -11.643,-3.19 c -0.7,-0.268 -1.149,-0.957 -1.105,-1.707 0.055,-0.946 0.864,-1.68 1.816,-1.625 h 0.908 25.157 v 6.801 h -7.89 z"
   id="path734"
   inkscape:connector-curvature="0" />
</g>
<g
   id="LWPOLYLINE_23_"
   transform="translate(-13.92,-13.926)">
	<path
   style="fill:#005eb8"
   d="m 110.116,319.277 c 0,1.646 1.323,2.977 2.976,2.977 1.642,0 2.977,-1.33 2.977,-2.977 v -7.441 c 0,-1.641 -1.335,-2.977 -2.977,-2.977 -1.652,0 -2.976,1.336 -2.976,2.977 z"
   id="path737"
   inkscape:connector-curvature="0" />
</g>
<g
   id="LWPOLYLINE_27_"
   transform="translate(-13.92,-13.926)">
	<path
   style="fill:#005eb8"
   d="m 166.667,312.137 h 5.953 v -0.301 c 0,-1.641 -1.335,-2.977 -2.977,-2.977 -1.652,0 -2.977,1.336 -2.977,2.977 v 0.301 z"
   id="path740"
   inkscape:connector-curvature="0" />
</g>
<g
   id="LWPOLYLINE_30_"
   transform="translate(-13.92,-13.926)">
	<polygon
   style="fill:#005eb8"
   points="303.099,327.867 264.319,286.542 315.136,295.335 "
   id="polygon743" />
</g>
<g
   id="LWPOLYLINE_31_"
   transform="translate(-13.92,-13.926)">
	<path
   style="fill:#005eb8"
   d="m 329.854,312.805 c -4.41,4.492 -6.927,10.511 -7.025,16.813 h 18.8 z"
   id="path746"
   inkscape:connector-curvature="0" />
</g>
<g
   id="LWPOLYLINE_32_"
   transform="translate(-13.92,-13.926)">
	<path
   style="fill:#005eb8"
   d="m 315.935,329.618 c 0.098,-8.546 3.677,-16.688 9.914,-22.536 l -5.045,-7.195 -10.997,29.731 h 6.171 z"
   id="path749"
   inkscape:connector-curvature="0" />
</g>
<g
   id="LWPOLYLINE_34_"
   transform="translate(-13.92,-13.926)">
	<path
   style="fill:#005eb8"
   d="m 349.922,329.432 c 0.536,0.756 0.821,1.658 0.821,2.583 0,2.483 -2.014,4.497 -4.498,4.497 h -22.542 c 3.601,13.061 17.114,20.726 30.169,17.125 13.065,-3.6 20.726,-17.104 17.125,-30.163 -3.6,-13.06 -17.103,-20.73 -30.157,-17.131 -1.926,0.531 -3.765,1.292 -5.504,2.266 z"
   id="path752"
   inkscape:connector-curvature="0" />
</g>
<g
   id="LWPOLYLINE_35_"
   transform="translate(-13.92,-13.926)">
	<path
   style="fill:#005eb8"
   d="m 257.874,307.705 -6.905,22.624 c -0.032,0.202 -0.099,0.399 -0.175,0.591 -0.723,1.773 -2.735,2.627 -4.509,1.904 -1.772,-0.717 -2.626,-2.735 -1.903,-4.509 l 6.883,-22.58 c -13.405,-2.008 -25.891,7.228 -27.893,20.622 -2.014,13.398 7.222,25.89 20.615,27.893 13.405,2.008 25.891,-7.223 27.893,-20.621 1.62,-10.795 -4.092,-21.366 -14.006,-25.924 z"
   id="path755"
   inkscape:connector-curvature="0" />
</g>
</svg>