<?xml version="1.0" encoding="iso-8859-1"?>
<!-- Generator: Adobe Illustrator 16.0.0, SVG Export Plug-In . SVG Version: 6.00 Build 0)  -->
<!DOCTYPE svg PUBLIC "-//W3C//DTD SVG 1.1//EN" "http://www.w3.org/Graphics/SVG/1.1/DTD/svg11.dtd">
<svg version="1.1" id="Layer_1" xmlns="http://www.w3.org/2000/svg" xmlns:xlink="http://www.w3.org/1999/xlink" x="0px" y="0px"
	 width="425.197px" height="425.196px" viewBox="0 0 425.197 425.196" style="enable-background:new 0 0 425.197 425.196;"
	 xml:space="preserve">
<g id="LWPOLYLINE_17_">
	
		<rect x="14.17" y="212.598" style="fill:#005EB8;stroke:#005EB8;stroke-width:0.5;stroke-miterlimit:10;" width="396.855" height="198.423"/>
</g>
<g id="LWPOLYLINE_29_">
	<path style="fill:#FFFFFF;" d="M391.176,212.598H34.02c-10.964,0-19.85,8.886-19.85,19.845v158.739
		c0,10.959,8.886,19.839,19.85,19.839h357.156c10.965,0,19.85-8.88,19.85-19.839V232.442
		C411.026,221.483,402.141,212.598,391.176,212.598z"/>
</g>
<g id="LWPOLYLINE_28_">
	<path style="fill:#005EB8;" d="M391.176,222.522H34.02c-5.482,0-9.925,4.442-9.925,9.92v158.739c0,5.481,4.442,9.925,9.925,9.925
		h357.156c5.482,0,9.925-4.443,9.925-9.925V232.442C401.101,226.965,396.659,222.522,391.176,222.522z"/>
</g>
<g id="LWPOLYLINE_13_">
	
		<rect x="14.17" y="14.176" style="fill:#005EB8;stroke:#005EB8;stroke-width:0.5;stroke-miterlimit:10;" width="396.855" height="198.422"/>
</g>
<g id="LWPOLYLINE_15_">
	<path style="fill:#FFFFFF;" d="M391.176,14.176H34.02c-10.964,0-19.85,8.885-19.85,19.839v158.744
		c0,10.953,8.886,19.839,19.85,19.839h357.156c10.965,0,19.85-8.886,19.85-19.839V34.015
		C411.026,23.061,402.141,14.176,391.176,14.176z"/>
</g>
<g id="LWPOLYLINE_14_">
	<path style="fill:#005EB8;" d="M391.176,24.095H34.02c-5.482,0-9.925,4.442-9.925,9.92v158.744c0,5.477,4.442,9.919,9.925,9.919
		h357.156c5.482,0,9.925-4.442,9.925-9.919V34.015C401.101,28.537,396.659,24.095,391.176,24.095z"/>
</g>
<g id="LWPOLYLINE_16_">
	<polygon style="fill:#FFFFFF;" points="378.778,93.542 115.368,93.542 164.97,43.939 115.872,43.939 46.418,113.387 
		115.872,182.834 164.97,182.834 115.368,133.231 378.778,133.231 	"/>
</g>
<g id="LWPOLYLINE_18_">
	<polygon style="fill:#FFFFFF;" points="46.418,326.718 62.789,326.718 62.789,322.254 50.883,322.254 50.883,313.324 
		58.915,313.324 58.915,308.859 50.883,308.859 50.883,301.419 62.789,301.419 62.789,296.954 46.418,296.954 	"/>
</g>
<g id="LWPOLYLINE_19_">
	<rect x="68.15" y="304.396" style="fill:#FFFFFF;" width="4.465" height="22.322"/>
</g>
<g id="LWPOLYLINE_20_">
	<rect x="68.15" y="296.954" style="fill:#FFFFFF;" width="4.465" height="4.465"/>
</g>
<g id="LWPOLYLINE_21_">
	<polygon style="fill:#FFFFFF;" points="91.951,326.718 87.486,326.718 87.486,296.954 91.951,296.954 91.951,313.401 
		97.904,304.396 102.368,304.396 97.28,312.044 102.401,326.729 97.904,326.718 94.325,316.476 91.951,320.021 	"/>
</g>
<g id="LWPOLYLINE_22_">
	<path style="fill:#FFFFFF;" d="M105.651,319.277c0,4.114,3.326,7.44,7.44,7.44c4.104,0,7.441-3.326,7.441-7.44v-7.441
		c0-4.104-3.338-7.44-7.441-7.44c-4.114,0-7.44,3.337-7.44,7.44V319.277z"/>
</g>
<g id="LWPOLYLINE_24_">
	<path style="fill:#FFFFFF;" d="M124.691,319.277c0,4.114,3.337,7.44,7.44,7.44h0.603c3.61,0,6.543-2.933,6.543-6.543
		c0-2.331-1.236-4.487-3.25-5.657l-4.935-2.878c-0.46-0.274-0.744-0.761-0.744-1.292c0-0.82,0.667-1.488,1.488-1.488h0.897
		c0.82,0,1.488,0.668,1.488,1.488h4.464c0-3.282-2.67-5.952-5.952-5.952h-0.897c-3.283,0-5.953,2.67-5.953,5.952
		c0,2.123,1.127,4.082,2.954,5.144l4.946,2.878c0.635,0.377,1.029,1.062,1.029,1.806c0,1.148-0.931,2.079-2.079,2.079h-0.603
		c-1.642,0-2.976-1.33-2.976-2.977H124.691z"/>
</g>
<g id="LWPOLYLINE_25_">
	<polygon style="fill:#FFFFFF;" points="148.808,326.718 144.343,326.718 144.343,296.954 148.808,296.954 148.808,313.401 
		154.761,304.396 159.226,304.396 154.126,312.044 159.248,326.729 154.761,326.718 151.171,316.476 148.808,320.021 	"/>
</g>
<g id="LWPOLYLINE_26_">
	<path style="fill:#FFFFFF;" d="M172.62,319.277h4.464c0,4.114-3.337,7.44-7.44,7.44c-4.114,0-7.441-3.326-7.441-7.44v-7.441
		c0-4.104,3.327-7.44,7.441-7.44c4.104,0,7.44,3.337,7.44,7.44v4.17h-10.417v3.271c0,1.646,1.324,2.977,2.977,2.977
		C171.285,322.254,172.62,320.924,172.62,319.277z"/>
</g>
<g id="LWPOLYLINE_33_">
	<path style="fill:#FFFFFF;" d="M323.715,292.02l7.648,10.92c2.933-1.734,6.139-2.976,9.477-3.688
		c16.972-3.6,33.659,7.244,37.26,24.222c3.6,16.978-7.244,33.659-24.228,37.26c-16.972,3.6-33.659-7.244-37.26-24.222h-10.986
		c-2.527,0-4.945-1.066-6.642-2.933l-36.986-39.432l-2.101,6.916c13.547,5.739,21.294,20.118,18.635,34.595
		c-3.129,17.07-19.5,28.374-36.57,25.245c-17.07-3.13-28.374-19.5-25.244-36.57c3.129-17.071,19.5-28.374,36.57-25.25l8.973-29.441
		c1.346-4.421,5.417-7.436,10.034-7.436h12.113v6.894h-12.113c-1.575,0-2.977,1.034-3.436,2.55l-2.517,8.245l51.222,8.863
		l5.285-14.279l-11.643-3.19c-0.7-0.268-1.149-0.957-1.105-1.707c0.055-0.946,0.864-1.68,1.816-1.625h0.908h25.157v6.801h-7.89
		L323.715,292.02z"/>
</g>
<g id="LWPOLYLINE_23_">
	<path style="fill:#005EB8;" d="M110.116,319.277c0,1.646,1.323,2.977,2.976,2.977c1.642,0,2.977-1.33,2.977-2.977v-7.441
		c0-1.641-1.335-2.977-2.977-2.977c-1.652,0-2.976,1.336-2.976,2.977V319.277z"/>
</g>
<g id="LWPOLYLINE_27_">
	<path style="fill:#005EB8;" d="M166.667,312.137h5.953v-0.301c0-1.641-1.335-2.977-2.977-2.977c-1.652,0-2.977,1.336-2.977,2.977
		V312.137z"/>
</g>
<g id="LWPOLYLINE_30_">
	<polygon style="fill:#005EB8;" points="264.319,286.542 315.136,295.335 303.099,327.867 	"/>
</g>
<g id="LWPOLYLINE_31_">
	<path style="fill:#005EB8;" d="M329.854,312.805c-4.41,4.492-6.927,10.511-7.025,16.813h18.8L329.854,312.805z"/>
</g>
<g id="LWPOLYLINE_32_">
	<path style="fill:#005EB8;" d="M315.935,329.618c0.098-8.546,3.677-16.688,9.914-22.536l-5.045-7.195l-10.997,29.731h6.171H315.935
		z"/>
</g>
<g id="LWPOLYLINE_34_">
	<path style="fill:#005EB8;" d="M349.922,329.432c0.536,0.756,0.821,1.658,0.821,2.583c0,2.483-2.014,4.497-4.498,4.497h-22.542
		c3.601,13.061,17.114,20.726,30.169,17.125c13.065-3.6,20.726-17.104,17.125-30.163c-3.6-13.06-17.103-20.73-30.157-17.131
		c-1.926,0.531-3.765,1.292-5.504,2.266L349.922,329.432z"/>
</g>
<g id="LWPOLYLINE_35_">
	<path style="fill:#005EB8;" d="M257.874,307.705l-6.905,22.624c-0.032,0.202-0.099,0.399-0.175,0.591
		c-0.723,1.773-2.735,2.627-4.509,1.904c-1.772-0.717-2.626-2.735-1.903-4.509l6.883-22.58
		c-13.405-2.008-25.891,7.228-27.893,20.622c-2.014,13.398,7.222,25.89,20.615,27.893c13.405,2.008,25.891-7.223,27.893-20.621
		C273.5,322.834,267.788,312.263,257.874,307.705z"/>
</g>
</svg>
