<?xml version="1.0" encoding="UTF-8" standalone="no"?>
<!-- Generator: Adobe Illustrator 16.0.0, SVG Export Plug-In . SVG Version: 6.00 Build 0)  -->

<svg
   xmlns:dc="http://purl.org/dc/elements/1.1/"
   xmlns:cc="http://creativecommons.org/ns#"
   xmlns:rdf="http://www.w3.org/1999/02/22-rdf-syntax-ns#"
   xmlns:svg="http://www.w3.org/2000/svg"
   xmlns="http://www.w3.org/2000/svg"
   xmlns:sodipodi="http://sodipodi.sourceforge.net/DTD/sodipodi-0.dtd"
   xmlns:inkscape="http://www.inkscape.org/namespaces/inkscape"
   version="1.1"
   id="Layer_1"
   x="0px"
   y="0px"
   width="278.29099"
   height="397.35101"
   viewBox="0 0 278.29099 397.351"
   xml:space="preserve"
   sodipodi:docname="E15_2.svg"
   inkscape:version="0.92.5 (2060ec1f9f, 2020-04-08)"><metadata
   id="metadata943"><rdf:RDF><cc:Work
       rdf:about=""><dc:format>image/svg+xml</dc:format><dc:type
         rdf:resource="http://purl.org/dc/dcmitype/StillImage" /></cc:Work></rdf:RDF></metadata><defs
   id="defs941" /><sodipodi:namedview
   pagecolor="#ffffff"
   bordercolor="#666666"
   borderopacity="1"
   objecttolerance="10"
   gridtolerance="10"
   guidetolerance="10"
   inkscape:pageopacity="0"
   inkscape:pageshadow="2"
   inkscape:window-width="640"
   inkscape:window-height="480"
   id="namedview939"
   showgrid="false"
   inkscape:zoom="0.55503813"
   inkscape:cx="139.14549"
   inkscape:cy="198.67601"
   inkscape:window-x="0"
   inkscape:window-y="0"
   inkscape:window-maximized="0"
   inkscape:current-layer="Layer_1" />
<g
   id="LWPOLYLINE_11_"
   transform="translate(-73.453003,-13.923)">
	
		<rect
   x="73.703003"
   y="14.173"
   style="fill:#009775;stroke:#009775;stroke-width:0.5;stroke-miterlimit:10"
   width="277.79099"
   height="396.85101"
   id="rect914" />
</g>
<g
   id="LWPOLYLINE_16_"
   transform="translate(-73.453003,-13.923)">
	<path
   style="fill:#ffffff"
   d="m 97.511,411.023 h 230.175 c 13.158,0 23.808,-10.663 23.808,-23.808 V 37.988 c 0,-13.159 -10.649,-23.815 -23.808,-23.815 H 97.511 c -13.145,0 -23.808,10.656 -23.808,23.815 v 349.228 c 0,13.144 10.663,23.807 23.808,23.807 z"
   id="path917"
   inkscape:connector-curvature="0" />
</g>
<g
   id="LWPOLYLINE_17_"
   transform="translate(-73.453003,-13.923)">
	<path
   style="fill:#009775"
   d="m 97.511,399.119 h 230.175 c 6.572,0 11.91,-5.331 11.91,-11.903 V 37.988 c 0,-6.58 -5.338,-11.911 -11.91,-11.911 H 97.511 c -6.572,0 -11.897,5.332 -11.897,11.911 v 349.228 c 0,6.572 5.324,11.903 11.897,11.903 z"
   id="path920"
   inkscape:connector-curvature="0" />
</g>
<g
   id="LWPOLYLINE_6_"
   transform="translate(-73.453003,-13.923)">
	<polygon
   style="fill:#ffffff"
   points="223.081,192.76 228.475,377.287 280.07,377.287 253.086,192.76 "
   id="polygon923" />
</g>
<g
   id="LWPOLYLINE_7_"
   transform="translate(-73.453003,-13.923)">
	<polygon
   style="fill:#ffffff"
   points="218.546,37.988 221.971,155.058 247.568,155.058 230.458,37.988 "
   id="polygon926" />
</g>
<g
   id="LWPOLYLINE_8_"
   transform="translate(-73.453003,-13.923)">
	<polygon
   style="fill:#ffffff"
   points="172.11,192.76 145.14,377.287 196.721,377.287 202.116,192.76 "
   id="polygon929" />
</g>
<g
   id="LWPOLYLINE_9_"
   transform="translate(-73.453003,-13.923)">
	<polygon
   style="fill:#ffffff"
   points="194.739,37.988 177.628,155.058 203.225,155.058 206.65,37.988 "
   id="polygon932" />
</g>
<g
   id="LWPOLYLINE_10_"
   transform="translate(-73.453003,-13.923)">
	<polygon
   style="fill:#ffffff"
   points="144.017,186.804 147.124,172.917 95.528,172.917 95.528,164.972 329.668,164.972 329.668,172.917 278.087,172.917 281.179,186.804 271.14,186.804 261.087,186.804 264.194,172.917 161.002,172.917 164.109,186.804 "
   id="polygon935" />
</g>
</svg>