<?xml version="1.0" encoding="iso-8859-1"?>
<!-- Generator: Adobe Illustrator 16.0.0, SVG Export Plug-In . SVG Version: 6.00 Build 0)  -->
<!DOCTYPE svg PUBLIC "-//W3C//DTD SVG 1.1//EN" "http://www.w3.org/Graphics/SVG/1.1/DTD/svg11.dtd">
<svg version="1.1" id="Layer_1" xmlns="http://www.w3.org/2000/svg" xmlns:xlink="http://www.w3.org/1999/xlink" x="0px" y="0px"
	 width="425.197px" height="425.196px" viewBox="0 0 425.197 425.196" style="enable-background:new 0 0 425.197 425.196;"
	 xml:space="preserve">
<g id="LWPOLYLINE_5_">
	
		<rect x="73.699" y="14.173" style="fill:#009775;stroke:#009775;stroke-width:0.5;stroke-miterlimit:10;" width="277.799" height="396.851"/>
</g>
<g id="LWPOLYLINE_12_">
	<path style="fill:#FFFFFF;" d="M91.556,411.023H333.64c9.861,0,17.857-7.997,17.857-17.858V32.031
		c0-9.863-7.996-17.858-17.857-17.858H91.556c-9.862,0-17.857,7.995-17.857,17.858v361.134
		C73.699,403.026,81.694,411.023,91.556,411.023z"/>
</g>
<g id="LWPOLYLINE_13_">
	<path style="fill:#009775;" d="M108.048,402.094H333.64c4.93,0,8.93-3.998,8.93-8.929V67.066L108.048,402.094z"/>
</g>
<g id="LWPOLYLINE_14_">
	<path style="fill:#009775;" d="M82.626,358.128L317.148,23.102H91.556c-4.931,0-8.929,3.997-8.929,8.929V358.128z"/>
</g>
<g id="LWPOLYLINE_3_">
	<path style="fill:#FFFFFF;" d="M206.688,261.175h86.737v25.008c0,3.65,2.961,6.612,6.611,6.612h11.432
		c3.65,0,6.611-2.962,6.611-6.612v-27.05c0.65-0.256,1.287-0.531,1.91-0.834c2.266-1.093,3.709-3.384,3.717-5.902v-37.777
		c0-3.536-0.939-7.006-2.732-10.053l-10.137-17.25c-0.695-1.188-1.32-2.42-1.865-3.688l-18.271-42.475l-8.916,12.74l16.066,37.358
		h-42.217l-12.178,17.402h21.35c0.553,0,0.992,0.442,0.992,0.991v7.429H237.56l-5.416,7.74h33.654v7.433
		c0,0.545-0.439,0.991-0.992,0.991h-38.559L206.688,261.175z"/>
</g>
<g id="LWPOLYLINE_4_">
	<path style="fill:#FFFFFF;" d="M240.593,132.467h-27.996h-65.662c-5.285,0-10.065,3.145-12.152,8l-18.561,43.161
		c-0.545,1.268-1.168,2.499-1.865,3.688l-10.137,17.25c-1.792,3.047-2.738,6.517-2.738,10.053v37.777
		c0.013,2.519,1.458,4.81,3.723,5.902c0.624,0.303,1.261,0.578,1.911,0.834v27.05c0,3.65,2.961,6.612,6.612,6.612h11.43
		c3.65,0,6.612-2.962,6.612-6.612v-25.008h18.725l19.559-27.937h-9.559c-0.545,0-0.992-0.446-0.992-0.991v-7.433h16.447l5.416-7.74
		h-21.863v-7.429c0-0.549,0.447-0.991,0.992-0.991h26.768l12.186-17.402h-72.103l17.872-41.557c1.044-2.429,3.434-4.001,6.073-4.001
		h61.309h18.738L240.593,132.467z"/>
</g>
<g id="CIRCLE_2_">
	<path style="fill:#009775;" d="M310.648,220.192c0-8.594-6.973-15.56-15.568-15.56c-8.594,0-15.559,6.966-15.559,15.56
		c0,8.598,6.965,15.567,15.559,15.567C303.675,235.76,310.648,228.79,310.648,220.192L310.648,220.192z"/>
</g>
<g id="CIRCLE_3_">
	<path style="fill:#009775;" d="M146.095,220.452c0-8.538-6.92-15.465-15.461-15.465c-8.542,0-15.469,6.927-15.469,15.465
		c0,8.542,6.927,15.465,15.469,15.465C139.175,235.917,146.095,228.994,146.095,220.452L146.095,220.452z"/>
</g>
<g id="LWPOLYLINE_10_">
	<path style="fill:#E4002B;" d="M321.021,23.102h12.619c4.93,0,8.93,3.997,8.93,8.929V61.53L104.174,402.094H91.556
		c-4.931,0-8.929-3.998-8.929-8.929v-29.499L321.021,23.102z"/>
</g>
</svg>
