<?xml version="1.0" encoding="iso-8859-1"?>
<!-- Generator: Adobe Illustrator 16.0.0, SVG Export Plug-In . SVG Version: 6.00 Build 0)  -->
<!DOCTYPE svg PUBLIC "-//W3C//DTD SVG 1.1//EN" "http://www.w3.org/Graphics/SVG/1.1/DTD/svg11.dtd">
<svg version="1.1" id="Layer_1" xmlns="http://www.w3.org/2000/svg" xmlns:xlink="http://www.w3.org/1999/xlink" x="0px" y="0px"
	 width="425.197px" height="425.196px" viewBox="0 0 425.197 425.196" style="enable-background:new 0 0 425.197 425.196;"
	 xml:space="preserve">
<g id="LWPOLYLINE_11_">
	
		<rect x="53.858" y="14.174" style="fill:#005EB8;stroke:#005EB8;stroke-width:0.5;stroke-miterlimit:10;" width="317.48" height="269.859"/>
</g>
<g id="LWPOLYLINE_12_">
	<path style="fill:#FFFFFF;" d="M358.642,14.174H66.56c-7.016,0-12.702,5.687-12.702,12.698v244.459
		c0,7.016,5.687,12.702,12.702,12.702h292.082c7.01,0,12.696-5.687,12.696-12.702V26.872
		C371.338,19.86,365.652,14.174,358.642,14.174z"/>
</g>
<g id="LWPOLYLINE_13_">
	<path style="fill:#005EB8;" d="M358.642,20.523c3.508,0,6.351,2.843,6.351,6.349v244.459c0,3.508-2.843,6.352-6.351,6.352H66.56
		c-3.508,0-6.351-2.844-6.351-6.352V26.872c0-3.506,2.843-6.349,6.351-6.349H358.642z"/>
</g>
<g id="LWPOLYLINE_21_">
	<rect x="87.196" y="47.509" style="fill:#FFFFFF;" width="250.81" height="203.187"/>
</g>
<g id="LWPOLYLINE_63_">
	
		<rect x="53.858" y="284.033" style="fill:#005EB8;stroke:#005EB8;stroke-width:0.5;stroke-miterlimit:10;" width="317.48" height="63.494"/>
</g>
<g id="LWPOLYLINE_73_">
	
		<rect x="53.858" y="347.527" style="fill:#005EB8;stroke:#005EB8;stroke-width:0.5;stroke-miterlimit:10;" width="317.48" height="63.495"/>
</g>
<g id="LWPOLYLINE_66_">
	<path style="fill:#FFFFFF;" d="M66.56,284.033h292.082c7.01,0,12.696,5.687,12.696,12.696v38.1c0,7.016-5.687,12.698-12.696,12.698
		H66.56c-7.016,0-12.702-5.683-12.702-12.698v-38.1C53.858,289.72,59.544,284.033,66.56,284.033z"/>
</g>
<g id="LWPOLYLINE_76_">
	<path style="fill:#FFFFFF;" d="M66.56,347.527h292.082c7.01,0,12.696,5.687,12.696,12.699v38.1c0,7.013-5.687,12.696-12.696,12.696
		H66.56c-7.016,0-12.702-5.684-12.702-12.696v-38.1C53.858,353.214,59.544,347.527,66.56,347.527z"/>
</g>
<g id="LWPOLYLINE_65_">
	<path style="fill:#005EB8;" d="M66.56,290.381h292.082c3.508,0,6.351,2.844,6.351,6.349v38.1c0,3.508-2.843,6.351-6.351,6.351
		H66.56c-3.508,0-6.351-2.843-6.351-6.351v-38.1C60.209,293.225,63.052,290.381,66.56,290.381z"/>
</g>
<g id="LWPOLYLINE_75_">
	<path style="fill:#005EB8;" d="M66.56,353.876h292.082c3.508,0,6.351,2.843,6.351,6.351v38.1c0,3.505-2.843,6.349-6.351,6.349
		H66.56c-3.508,0-6.351-2.844-6.351-6.349v-38.1C60.209,356.719,63.052,353.876,66.56,353.876z"/>
</g>
<g id="LWPOLYLINE_14_">
	<path style="fill:#101820;" d="M162.387,199.108v-55.956c3.846-5.308,8.509-9.975,13.819-13.82
		c27.732-20.102,66.509-13.912,86.607,13.82v55.956H162.387z"/>
</g>
<g id="LWPOLYLINE_15_">
	<rect x="95.133" y="206.251" style="fill:#101820;" width="234.933" height="15.874"/>
</g>
<g id="LWPOLYLINE_16_">
	<path style="fill:#101820;" d="M164.271,76.082h96.658l-15.899,41.461c-20.318-10.606-44.54-10.606-64.858,0L164.271,76.082z"/>
</g>
<g id="LWPOLYLINE_17_">
	<path style="fill:#101820;" d="M174.655,120.757l-19.217-39.579l-33.528,40.905l36.019,13.811
		C162.647,129.977,168.295,124.862,174.655,120.757z"/>
</g>
<g id="LWPOLYLINE_18_">
	<polygon style="fill:#101820;" points="304.669,131.23 270.753,140.667 270.733,201.489 304.669,201.489 	"/>
</g>
<g id="LWPOLYLINE_19_">
	<path style="fill:#101820;" d="M250.545,120.757l19.217-39.579l33.529,40.905l-36.022,13.811
		C262.55,129.977,256.902,124.862,250.545,120.757z"/>
</g>
<g id="LWPOLYLINE_20_">
	<polygon style="fill:#101820;" points="120.531,131.23 154.444,140.667 154.467,201.489 120.531,201.489 	"/>
</g>
<g id="LWPOLYLINE_46_">
	<path style="fill:#FFFFFF;" d="M110.756,317.368v14.285h-4.762v-31.746h10.953c4.471,0,8.097,3.624,8.097,8.097v1.269
		c0,3.409-2.139,6.452-5.343,7.613l5.343,14.768h-5.08l-5.169-14.285H110.756z"/>
</g>
<g id="LWPOLYLINE_48_">
	<path style="fill:#FFFFFF;" d="M144.501,331.653h-4.765v-1.522c-1.913,1.031-4.057,1.555-6.229,1.52
		c-1.956,0.052-3.716-1.179-4.334-3.033c-0.774-2.434-0.121-5.098,1.688-6.9c2.317-2.49,5.486-4.011,8.876-4.265v-2.468
		c0-1.312-1.066-2.381-2.381-2.381s-2.381,1.069-2.381,2.381h-4.762c0-3.944,3.198-7.143,7.143-7.143
		c3.947,0,7.146,3.198,7.146,7.143V331.653z"/>
</g>
<g id="LWPOLYLINE_50_">
	<path style="fill:#FFFFFF;" d="M166.088,313.716v17.938h-4.762v-16.825c0-1.754-1.422-3.175-3.176-3.175s-3.173,1.421-3.173,3.175
		v16.825h-4.765v-23.812h4.765v1.907c1.639-1.018,3.479-1.67,5.395-1.907c3.158,0,5.716,2.561,5.716,5.715V313.716z"/>
</g>
<g id="LWPOLYLINE_51_">
	<path style="fill:#FFFFFF;" d="M177.36,307.842h2.698v4.762h-2.698v11.59c0,1.49,1.208,2.698,2.698,2.698v4.762
		c-4.12,0-7.46-3.34-7.46-7.46v-11.59h-2.699v-4.762h2.699v-7.935h4.762V307.842z"/>
</g>
<g id="LWPOLYLINE_52_">
	<path style="fill:#FFFFFF;" d="M199.198,331.653h-4.762v-1.522c-1.913,1.031-4.06,1.555-6.232,1.52
		c-1.953,0.052-3.713-1.179-4.334-3.033c-0.771-2.434-0.121-5.098,1.69-6.9c2.314-2.49,5.486-4.011,8.876-4.265v-2.468
		c0-1.312-1.066-2.381-2.381-2.381s-2.381,1.069-2.381,2.381h-4.765c0-3.944,3.198-7.143,7.146-7.143
		c3.944,0,7.143,3.198,7.143,7.143V331.653z"/>
</g>
<g id="LWPOLYLINE_54_">
	<path style="fill:#FFFFFF;" d="M210.469,307.842h2.699v4.762h-2.699v11.59c0,1.49,1.208,2.698,2.699,2.698v4.762
		c-4.121,0-7.464-3.34-7.464-7.46v-11.59h-2.695v-4.762h2.695v-7.935h4.765V307.842z"/>
</g>
<g id="LWPOLYLINE_55_">
	<path style="fill:#FFFFFF;" d="M217.294,325.779v-17.938h4.762v16.828c0,1.754,1.421,3.173,3.175,3.173s3.176-1.419,3.176-3.173
		v-16.828h4.762v23.812h-4.762v-1.904c-1.642,1.018-3.481,1.667-5.397,1.904c-3.155,0-5.715-2.557-5.715-5.712V325.779z"/>
</g>
<g id="LWPOLYLINE_56_">
	<path style="fill:#FFFFFF;" d="M255.39,313.716v17.938h-4.762v-16.825c0-1.754-1.421-3.175-3.175-3.175
		c-1.751,0-3.173,1.421-3.173,3.175v16.825h-4.765v-23.812h4.765v1.907c1.639-1.018,3.479-1.67,5.397-1.907
		c3.155,0,5.712,2.561,5.712,5.715V313.716z"/>
</g>
<g id="LWPOLYLINE_57_">
	<path style="fill:#FFFFFF;" d="M276.98,313.716v17.938h-4.762v-16.825c0-1.754-1.421-3.175-3.175-3.175s-3.176,1.421-3.176,3.175
		v16.825h-4.762v-23.812h4.762v1.907c1.642-1.018,3.481-1.67,5.397-1.907c3.158,0,5.715,2.561,5.715,5.715V313.716z"/>
</g>
<g id="LWPOLYLINE_58_">
	<path style="fill:#FFFFFF;" d="M292.855,323.717h4.762c0,4.386-3.555,7.937-7.938,7.937s-7.938-3.551-7.938-7.937v-7.935
		c0-4.387,3.555-7.94,7.938-7.94s7.938,3.554,7.938,7.94v4.443h-11.113v3.491c0,1.753,1.422,3.175,3.176,3.175
		S292.855,325.47,292.855,323.717z"/>
</g>
<g id="LWPOLYLINE_60_">
	<rect x="303.332" y="299.907" style="fill:#FFFFFF;" width="4.762" height="31.746"/>
</g>
<g id="LWPOLYLINE_61_">
	<rect x="314.446" y="307.842" style="fill:#FFFFFF;" width="4.762" height="23.812"/>
</g>
<g id="LWPOLYLINE_62_">
	<rect x="314.446" y="299.907" style="fill:#FFFFFF;" width="4.762" height="4.762"/>
</g>
<g id="LWPOLYLINE_67_">
	<path style="fill:#FFFFFF;" d="M150.286,373.721h4.765v-1.59c0-0.512,0.099-1.022,0.292-1.496c0.829-2.028,3.146-3.006,5.175-2.176
		c2.028,0.829,3.002,3.144,2.176,5.175l-12.407,16.753v4.765h17.464v-4.765h-12.066l11.547-15.288
		c1.638-4.533-0.711-9.538-5.245-11.18c-4.536-1.635-9.54,0.711-11.179,5.248c-0.445,1.23-0.606,2.542-0.474,3.843L150.286,373.721z
		"/>
</g>
<g id="LWPOLYLINE_68_">
	<path style="fill:#FFFFFF;" d="M174.626,399.118l3.84-4.467c1.04-0.804,1.23-2.3,0.425-3.341c-0.806-1.04-2.3-1.23-3.34-0.425
		c-0.584,0.454-0.925,1.147-0.925,1.882V399.118z"/>
</g>
<g id="LWPOLYLINE_69_">
	<polygon style="fill:#FFFFFF;" points="204.716,363.402 209.481,363.402 209.481,384.038 212.021,384.038 212.021,388.8 
		209.481,388.8 209.481,395.151 204.716,395.151 204.716,388.8 192.971,388.8 192.971,384.038 	"/>
</g>
<g id="LWPOLYLINE_71_">
	<polygon style="fill:#FFFFFF;" points="232.657,395.151 227.892,395.151 227.892,363.402 232.657,363.402 232.657,380.943 
		239.005,371.34 243.767,371.34 238.332,379.493 243.798,395.156 239.005,395.151 235.179,384.221 232.657,388.006 	"/>
</g>
<g id="LWPOLYLINE_72_">
	<path style="fill:#FFFFFF;" d="M261.773,372.686c-1.031-0.869-2.337-1.346-3.687-1.346c-1.916,0.236-3.759,0.887-5.397,1.903
		v-1.903h-4.762v23.812h4.762v-16.828c0-1.754,1.422-3.176,3.176-3.176c1.751,0,3.172,1.422,3.172,3.176v16.828h4.765v-16.828
		c0-1.754,1.419-3.176,3.173-3.176s3.176,1.422,3.176,3.176v16.828h4.762l-0.003-18.146c-0.217-3.052-2.658-5.476-5.713-5.666
		C266.642,371.01,264.05,371.483,261.773,372.686z"/>
</g>
<g id="LWPOLYLINE_47_">
	<path style="fill:#005EB8;" d="M110.756,312.604h6.191c1.841,0,3.332-1.491,3.332-3.331v-1.269c0-1.844-1.491-3.335-3.332-3.335
		h-6.191V312.604z"/>
</g>
<g id="LWPOLYLINE_49_">
	<path style="fill:#005EB8;" d="M139.737,320.556c-1.586,0.384-3.063,1.138-4.303,2.201c-1.112,0.979-1.742,2.393-1.725,3.875
		c0.021,0.965,0.82,1.728,1.786,1.707c0.077-0.003,0.155-0.011,0.236-0.022c1.401-0.226,2.757-0.688,4.005-1.361V320.556z"/>
</g>
<g id="LWPOLYLINE_53_">
	<path style="fill:#005EB8;" d="M194.436,320.556c-1.589,0.384-3.063,1.138-4.303,2.201c-1.112,0.979-1.745,2.393-1.728,3.875
		c0.023,0.965,0.82,1.728,1.786,1.707c0.08-0.003,0.158-0.011,0.236-0.022c1.401-0.226,2.757-0.688,4.008-1.361V320.556z"/>
</g>
<g id="LWPOLYLINE_59_">
	<path style="fill:#005EB8;" d="M286.503,316.097h6.352v-0.314c0-1.757-1.422-3.179-3.176-3.179s-3.176,1.422-3.176,3.179V316.097z"
		/>
</g>
<g id="LWPOLYLINE_70_">
	<polygon style="fill:#005EB8;" points="198.369,384.038 204.716,372.883 204.716,384.038 	"/>
</g>
</svg>
