<?xml version="1.0" encoding="iso-8859-1"?>
<!-- Generator: Adobe Illustrator 16.0.0, SVG Export Plug-In . SVG Version: 6.00 Build 0)  -->
<!DOCTYPE svg PUBLIC "-//W3C//DTD SVG 1.1//EN" "http://www.w3.org/Graphics/SVG/1.1/DTD/svg11.dtd">
<svg version="1.1" id="Layer_1" xmlns="http://www.w3.org/2000/svg" xmlns:xlink="http://www.w3.org/1999/xlink" x="0px" y="0px"
	 width="425.197px" height="425.196px" viewBox="0 0 425.197 425.196" style="enable-background:new 0 0 425.197 425.196;"
	 xml:space="preserve">
<g id="LWPOLYLINE_11_">
	
		<rect x="23.623" y="14.173" style="fill:#005EB8;stroke:#005EB8;stroke-width:0.5;stroke-miterlimit:10;" width="377.952" height="321.259"/>
</g>
<g id="LWPOLYLINE_12_">
	<path style="fill:#FFFFFF;" d="M386.46,14.173H38.744c-8.352,0-15.121,6.769-15.121,15.118v291.022
		c0,8.349,6.77,15.118,15.121,15.118H386.46c8.346,0,15.114-6.77,15.114-15.118V29.291C401.575,20.941,394.806,14.173,386.46,14.173
		z"/>
</g>
<g id="LWPOLYLINE_13_">
	<path style="fill:#005EB8;" d="M386.46,21.732c4.176,0,7.561,3.383,7.561,7.559v291.022c0,4.177-3.385,7.561-7.561,7.561H38.744
		c-4.176,0-7.561-3.384-7.561-7.561V29.291c0-4.176,3.385-7.559,7.561-7.559H386.46z"/>
</g>
<g id="LWPOLYLINE_21_">
	<rect x="63.31" y="53.858" style="fill:#FFFFFF;" width="298.584" height="241.889"/>
</g>
<g id="LWPOLYLINE_38_">
	
		<rect x="23.623" y="335.432" style="fill:#005EB8;stroke:#005EB8;stroke-width:0.5;stroke-miterlimit:10;" width="377.952" height="75.592"/>
</g>
<g id="LWPOLYLINE_41_">
	<path style="fill:#FFFFFF;" d="M38.744,335.432H386.46c8.346,0,15.114,6.77,15.114,15.121v45.354
		c0,8.349-6.769,15.117-15.114,15.117H38.744c-8.352,0-15.121-6.769-15.121-15.117v-45.354
		C23.623,342.201,30.392,335.432,38.744,335.432z"/>
</g>
<g id="LWPOLYLINE_40_">
	<path style="fill:#005EB8;" d="M38.744,342.992H386.46c4.176,0,7.561,3.385,7.561,7.561v45.354c0,4.173-3.385,7.557-7.561,7.557
		H38.744c-4.176,0-7.561-3.384-7.561-7.557v-45.354C31.183,346.377,34.568,342.992,38.744,342.992z"/>
</g>
<g id="LWPOLYLINE_14_">
	<path style="fill:#101820;" d="M152.824,234.33v-66.614c4.578-6.315,10.129-11.871,16.452-16.449
		c33.015-23.931,79.176-16.565,103.103,16.449v66.614H152.824z"/>
</g>
<g id="LWPOLYLINE_15_">
	<rect x="72.759" y="242.833" style="fill:#101820;" width="279.683" height="18.899"/>
</g>
<g id="LWPOLYLINE_16_">
	<path style="fill:#101820;" d="M155.066,87.872h115.07l-18.93,49.36c-24.188-12.624-53.023-12.624-77.212,0L155.066,87.872z"/>
</g>
<g id="LWPOLYLINE_17_">
	<path style="fill:#101820;" d="M167.428,141.058L144.55,93.939l-39.915,48.697l42.88,16.438
		C153.132,152.03,159.857,145.945,167.428,141.058z"/>
</g>
<g id="LWPOLYLINE_18_">
	<polygon style="fill:#101820;" points="322.208,153.526 281.833,164.758 281.808,237.164 322.208,237.164 	"/>
</g>
<g id="LWPOLYLINE_19_">
	<path style="fill:#101820;" d="M257.774,141.058l22.878-47.118l39.914,48.697l-42.883,16.438
		C272.066,152.03,265.341,145.945,257.774,141.058z"/>
</g>
<g id="LWPOLYLINE_20_">
	<polygon style="fill:#101820;" points="102.995,153.526 143.368,164.758 143.395,237.164 102.995,237.164 	"/>
</g>
<g id="LWPOLYLINE_32_">
	<path style="fill:#FFFFFF;" d="M138.417,366.613h5.672v-1.888c0-0.613,0.117-1.219,0.348-1.786c0.987-2.418,3.746-3.573,6.16-2.59
		c2.415,0.983,3.574,3.742,2.591,6.157l-14.771,19.95v5.669h20.79v-5.669h-14.364l13.745-18.203
		c1.95-5.399-0.847-11.357-6.243-13.305c-5.4-1.95-11.358,0.846-13.309,6.246c-0.53,1.463-0.723,3.027-0.564,4.575L138.417,366.613z
		"/>
</g>
<g id="LWPOLYLINE_33_">
	<path style="fill:#FFFFFF;" d="M167.394,396.853l4.571-5.318c1.238-0.963,1.465-2.741,0.506-3.979
		c-0.96-1.235-2.738-1.462-3.977-0.506c-0.695,0.536-1.101,1.366-1.101,2.243V396.853z"/>
</g>
<g id="LWPOLYLINE_34_">
	<polygon style="fill:#FFFFFF;" points="203.215,354.33 208.888,354.33 208.888,378.896 211.912,378.896 211.912,384.565 
		208.888,384.565 208.888,392.126 203.215,392.126 203.215,384.565 189.233,384.565 189.233,378.896 	"/>
</g>
<g id="LWPOLYLINE_36_">
	<polygon style="fill:#FFFFFF;" points="236.478,392.126 230.806,392.126 230.806,354.33 236.478,354.33 236.478,375.217 
		244.035,363.778 249.704,363.778 243.234,373.486 249.742,392.134 244.035,392.126 239.481,379.117 236.478,383.623 	"/>
</g>
<g id="LWPOLYLINE_37_">
	<path style="fill:#FFFFFF;" d="M271.141,365.386c-1.229-1.039-2.783-1.607-4.389-1.607c-2.281,0.283-4.476,1.057-6.426,2.268
		v-2.268h-5.669v28.348h5.669v-20.033c0-2.085,1.692-3.776,3.78-3.776c2.084,0,3.776,1.691,3.776,3.776v20.033h5.672v-20.033
		c0-2.085,1.689-3.776,3.777-3.776s3.78,1.691,3.78,3.776v20.033h5.669l-0.004-21.602c-0.258-3.632-3.165-6.516-6.801-6.746
		C276.937,363.391,273.851,363.95,271.141,365.386z"/>
</g>
<g id="LWPOLYLINE_35_">
	<polygon style="fill:#005EB8;" points="195.659,378.896 203.215,365.619 203.215,378.896 	"/>
</g>
</svg>
