<?xml version="1.0" encoding="iso-8859-1"?>
<!-- Generator: Adobe Illustrator 16.0.0, SVG Export Plug-In . SVG Version: 6.00 Build 0)  -->
<!DOCTYPE svg PUBLIC "-//W3C//DTD SVG 1.1//EN" "http://www.w3.org/Graphics/SVG/1.1/DTD/svg11.dtd">
<svg version="1.1" id="Layer_1" xmlns="http://www.w3.org/2000/svg" xmlns:xlink="http://www.w3.org/1999/xlink" x="0px" y="0px"
	 width="425.197px" height="425.196px" viewBox="0 0 425.197 425.196" style="enable-background:new 0 0 425.197 425.196;"
	 xml:space="preserve">
<g id="LWPOLYLINE">
	
		<rect x="14.174" y="43.938" style="fill:#005EB8;stroke:#005EB8;stroke-width:0.5;stroke-miterlimit:10;" width="396.848" height="337.319"/>
</g>
<g id="LWPOLYLINE_104_">
	<path style="fill:#FFFFFF;" d="M395.157,44.059H30.05c-8.765,0-15.876,7.11-15.876,15.875v305.453
		c0,8.769,7.111,15.871,15.876,15.871h365.106c8.764,0,15.865-7.103,15.865-15.871V59.934
		C411.022,51.169,403.92,44.059,395.157,44.059z"/>
</g>
<g id="LWPOLYLINE_115_">
	<path style="fill:#E4002B;" d="M403.089,76.844v-16.91c0-4.382-3.556-7.933-7.933-7.933h-24.114l-348.93,296.48v16.905
		c0,4.382,3.555,7.938,7.938,7.938h24.113L403.089,76.844z"/>
</g>
<g id="LWPOLYLINE_106_">
	<path style="fill:#101820;" d="M265.308,193.919c3.703,3.436,7.064,7.231,10.038,11.323v69.976H169.621L265.308,193.919z"/>
</g>
<g id="LWPOLYLINE_107_">
	<path style="fill:#101820;" d="M149.857,239.93v-34.688c17.575-24.234,47.525-36.185,76.958-30.698L149.857,239.93z"/>
</g>
<g id="LWPOLYLINE_108_">
	<polygon style="fill:#101820;" points="327.637,190.35 285.265,202.139 285.238,278.117 327.637,278.117 	"/>
</g>
<g id="LWPOLYLINE_109_">
	<path style="fill:#101820;" d="M308.28,157.402l17.64,21.519l-45.013,17.257c-2.457-3.09-5.126-6.008-7.989-8.732L308.28,157.402z"
		/>
</g>
<g id="LWPOLYLINE_110_">
	<path style="fill:#101820;" d="M236.216,166.555c-21.453-6.007-44.385-3.615-64.139,6.696l-19.865-51.806h120.77l-7.887,20.571
		L236.216,166.555z"/>
</g>
<g id="LWPOLYLINE_111_">
	<path style="fill:#101820;" d="M165.188,177.264l-24.012-49.45l-41.892,51.107l45.013,17.257
		C150.19,188.784,157.246,182.394,165.188,177.264z"/>
</g>
<g id="LWPOLYLINE_112_">
	<polygon style="fill:#101820;" points="104.918,278.117 97.567,278.117 97.567,190.35 139.939,202.139 139.958,248.348 	"/>
</g>
<g id="LWPOLYLINE_113_">
	<polygon style="fill:#101820;" points="97.918,284.069 65.75,284.069 65.75,304.032 74.425,304.032 	"/>
</g>
<g id="LWPOLYLINE_114_">
	<polygon style="fill:#101820;" points="135.708,304.032 359.453,304.032 359.453,284.069 159.204,284.069 	"/>
</g>
<g id="LWPOLYLINE_105_">
	<path style="fill:#005EB8;" d="M22.113,345.877v-41.656V59.934c0-4.382,3.555-7.933,7.938-7.933h337.927l-39.306,33.745H55.826
		v231.483L22.113,345.877z"/>
</g>
<g id="LWPOLYLINE_116_">
	<path style="fill:#005EB8;" d="M57.225,373.324l39.714-33.741h272.433V107.81l33.718-28.361v285.938
		c0,4.382-3.556,7.938-7.933,7.938H57.225z"/>
</g>
</svg>
