<?xml version="1.0" encoding="iso-8859-1"?>
<!-- Generator: Adobe Illustrator 16.0.0, SVG Export Plug-In . SVG Version: 6.00 Build 0)  -->
<!DOCTYPE svg PUBLIC "-//W3C//DTD SVG 1.1//EN" "http://www.w3.org/Graphics/SVG/1.1/DTD/svg11.dtd">
<svg version="1.1" id="Layer_1" xmlns="http://www.w3.org/2000/svg" xmlns:xlink="http://www.w3.org/1999/xlink" x="0px" y="0px"
	 width="425.197px" height="425.196px" viewBox="0 0 425.197 425.196" style="enable-background:new 0 0 425.197 425.196;"
	 xml:space="preserve">
<g id="LWPOLYLINE_3_">
	
		<rect x="73.701" y="14.173" style="fill:#005EB8;stroke:#005EB8;stroke-width:0.5;stroke-miterlimit:10;" width="277.794" height="396.851"/>
</g>
<g id="LWPOLYLINE_1_">
	<path style="fill:#FFFFFF;" d="M89.575,411.023h246.048c8.766,0,15.873-7.106,15.873-15.874V30.047
		c0-8.767-7.107-15.874-15.873-15.874H89.575c-8.767,0-15.874,7.107-15.874,15.874v365.103
		C73.701,403.917,80.808,411.023,89.575,411.023z"/>
</g>
<g id="LWPOLYLINE_157_">
	<path style="fill:#101820;" d="M285.014,202.181c0-10.685-8.661-19.346-19.346-19.346c-10.686,0-19.347,8.661-19.347,19.346v20.835
		c0,10.685,8.661,19.347,19.347,19.347c10.685,0,19.346-8.662,19.346-19.347V202.181z"/>
</g>
<g id="LWPOLYLINE_2_">
	<path style="fill:#005EB8;" d="M113.386,402.689V22.11H89.575c-4.383,0-7.937,3.553-7.937,7.937v365.103
		c0,4.384,3.554,7.938,7.937,7.938h23.811"/>
</g>
<g id="LWPOLYLINE_155_">
	<path style="fill:#005EB8;" d="M212.598,22.11v39.685l99.195,59.527l0.018,182.552l-99.213,59.528v39.685h123.024
		c4.384,0,7.937-3.554,7.937-7.938V30.047c0-4.384-3.553-7.937-7.937-7.937H212.598z"/>
</g>
<g id="LWPOLYLINE_159_">
	<path style="fill:#FFFFFF;" d="M276.085,223.016c0,5.754-4.664,10.417-10.417,10.417c-5.754,0-10.417-4.663-10.417-10.417v-20.835
		c0-5.753,4.663-10.417,10.417-10.417c5.753,0,10.417,4.664,10.417,10.417V223.016z"/>
</g>
<g id="LWPOLYLINE_156_">
	<path style="fill:#101820;" d="M273.65,137.949l-12.325-4.312c-2.746-0.96-4.586-3.553-4.586-6.462
		c0-3.781,3.064-6.846,6.846-6.846h4.167c3.781,0,6.846,3.064,6.846,6.846h8.93c0-8.712-7.063-15.774-15.775-15.774h-4.167
		c-8.712,0-15.775,7.063-15.775,15.774c0,6.705,4.238,12.677,10.567,14.891l12.326,4.312c1.81,0.633,3.333,1.892,4.295,3.549
		c0.917,1.577,1.089,3.479,0.469,5.194c-1.491,4.128-5.409,6.879-9.798,6.879c-5.754,0-10.417-4.664-10.417-10.418h-8.93
		c0,10.685,8.661,19.347,19.347,19.347h2.381c9.37,0,16.965-7.596,16.965-16.965C285.014,146.753,280.457,140.331,273.65,137.949z"
		/>
</g>
<g id="LWPOLYLINE_158_">
	<path style="fill:#101820;" d="M267.75,254.268h-4.165c-8.708,0-15.768,7.06-15.768,15.768c0,6.701,4.236,12.671,10.562,14.883
		l12.321,4.311c1.808,0.632,3.331,1.891,4.293,3.547c0.916,1.576,1.087,3.477,0.468,5.192c-1.49,4.125-5.406,6.875-9.793,6.875
		c-5.751,0-10.413-4.662-10.413-10.413h-8.925c0,10.68,8.658,19.338,19.338,19.338h2.38c9.365,0,16.957-7.593,16.957-16.957
		c0-7.208-4.556-13.627-11.358-16.008l-12.321-4.309c-2.744-0.961-4.583-3.551-4.583-6.459c0-3.779,3.064-6.843,6.843-6.843h4.165
		c3.779,0,6.843,3.063,6.843,6.843h8.925C283.518,261.327,276.459,254.268,267.75,254.268z"/>
</g>
<g id="LWPOLYLINE_160_">
	<rect x="212.598" y="95.527" style="fill:#101820;" width="13.89" height="27.779"/>
</g>
<g id="LWPOLYLINE_161_">
	<rect x="212.598" y="147.118" style="fill:#101820;" width="13.89" height="27.779"/>
</g>
<g id="LWPOLYLINE_162_">
	<rect x="212.598" y="198.708" style="fill:#101820;" width="13.89" height="27.78"/>
</g>
<g id="LWPOLYLINE_163_">
	<rect x="212.598" y="250.299" style="fill:#101820;" width="13.89" height="27.78"/>
</g>
<g id="LWPOLYLINE_164_">
	<rect x="212.598" y="301.89" style="fill:#101820;" width="13.89" height="27.779"/>
</g>
</svg>
