<?xml version="1.0" encoding="iso-8859-1"?>
<!-- Generator: Adobe Illustrator 16.0.0, SVG Export Plug-In . SVG Version: 6.00 Build 0)  -->
<!DOCTYPE svg PUBLIC "-//W3C//DTD SVG 1.1//EN" "http://www.w3.org/Graphics/SVG/1.1/DTD/svg11.dtd">
<svg version="1.1" id="Layer_1" xmlns="http://www.w3.org/2000/svg" xmlns:xlink="http://www.w3.org/1999/xlink" x="0px" y="0px"
	 width="425.197px" height="425.196px" viewBox="0 0 425.197 425.196" style="enable-background:new 0 0 425.197 425.196;"
	 xml:space="preserve">
<g id="LWPOLYLINE_3_">
	
		<rect x="113.386" y="14.173" style="fill:#005EB8;stroke:#005EB8;stroke-width:0.5;stroke-miterlimit:10;" width="198.424" height="283.465"/>
</g>
<g id="LWPOLYLINE_1_">
	<path style="fill:#FFFFFF;" d="M124.726,297.638h175.75c6.26,0,11.334-5.078,11.334-11.34V25.511
		c0-6.262-5.074-11.338-11.334-11.338h-175.75c-6.261,0-11.339,5.076-11.339,11.338v260.787
		C113.386,292.56,118.464,297.638,124.726,297.638z"/>
</g>
<g id="LWPOLYLINE_26_">
	<path style="fill:#101820;" d="M264.326,148.463c0-7.632-6.188-13.819-13.818-13.819c-7.633,0-13.818,6.188-13.818,13.819v14.882
		c0,7.634,6.186,13.819,13.818,13.819c7.631,0,13.818-6.186,13.818-13.819V148.463z"/>
</g>
<g id="LWPOLYLINE_76_">
	
		<rect x="113.386" y="297.638" style="fill:#005EB8;stroke:#005EB8;stroke-width:0.5;stroke-miterlimit:10;" width="198.424" height="113.386"/>
</g>
<g id="LWPOLYLINE_54_">
	<path style="fill:#FFFFFF;" d="M300.476,411.023h-175.75c-6.261,0-11.339-5.078-11.339-11.339v-90.71
		c0-6.262,5.078-11.337,11.339-11.337h175.75c6.26,0,11.334,5.075,11.334,11.337v90.71
		C311.81,405.945,306.736,411.023,300.476,411.023z"/>
</g>
<g id="LWPOLYLINE_53_">
	<path style="fill:#005EB8;" d="M300.476,405.352h-175.75c-3.132,0-5.669-2.535-5.669-5.667v-90.71c0-3.129,2.538-5.67,5.669-5.67
		h175.75c3.127,0,5.668,2.541,5.668,5.67v90.71C306.144,402.816,303.603,405.352,300.476,405.352z"/>
</g>
<g id="LWPOLYLINE_64_">
	<path style="fill:#FFFFFF;" d="M174.254,389.763h-26.403v-54.015c0.018-1.393,0.533-2.734,1.451-3.783l-2.938,1.959v5.254h-6.063
		v-10.444l12.995-8.804h3.624v-1.033h8.458v1.033h0.995l5.476,2.346v4.188l-4.844,2.15h-1.627v1.382h3.188
		c3.091,0,5.634,2.436,5.767,5.524L174.254,389.763z"/>
</g>
<g id="LWPOLYLINE_60_">
	<path style="fill:#FFFFFF;" d="M254.218,367.073h-1.586c-4.102,0-7.428,3.326-7.428,7.427c0,3.155,1.994,5.969,4.977,7.009
		l4.695,1.643c0.369,0.131,0.682,0.388,0.877,0.728c0.141,0.237,0.166,0.525,0.072,0.785c-0.072,0.194-0.164,0.38-0.277,0.549
		c-0.783,1.173-2.367,1.489-3.541,0.703c-1.17-0.78-1.484-2.366-0.703-3.537h-6.551c-0.783,4.79,2.467,9.307,7.254,10.09
		c0.469,0.076,0.943,0.115,1.418,0.115h0.908c4.352,0,7.881-3.527,7.881-7.882c0-3.346-2.119-6.33-5.279-7.437l-4.695-1.643
		c-0.477-0.169-0.799-0.617-0.799-1.123c0-0.658,0.533-1.19,1.191-1.19h1.586c0.658,0,1.191,0.532,1.191,1.19
		c0,0.781,0.635,1.418,1.418,1.418h4.684c0.783-4.029-1.848-7.927-5.875-8.71C255.169,367.119,254.695,367.073,254.218,367.073z"/>
</g>
<g id="LWPOLYLINE_61_">
	<path style="fill:#FFFFFF;" d="M239.166,375.847v7.938c0,2.188-1.775,3.969-3.969,3.969c-2.191,0-3.969-1.78-3.969-3.969v-7.938
		c0-2.193,1.777-3.968,3.969-3.968C237.39,371.879,239.166,373.653,239.166,375.847z"/>
</g>
<g id="LWPOLYLINE_58_">
	<path style="fill:#FFFFFF;" d="M226.41,375.847v7.938c0,4.852,3.936,8.784,8.787,8.784c4.854,0,8.789-3.933,8.789-8.784v-7.938
		c0-4.855-3.936-8.789-8.789-8.789C230.345,367.058,226.41,370.991,226.41,375.847z"/>
</g>
<g id="LWPOLYLINE_56_">
	<path style="fill:#FFFFFF;" d="M217.84,367.073h-1.589c-4.101,0-7.424,3.326-7.424,7.427c0,3.155,1.994,5.969,4.973,7.009
		l4.695,1.643c0.37,0.131,0.682,0.388,0.881,0.728c0.137,0.237,0.162,0.525,0.068,0.785c-0.068,0.194-0.164,0.38-0.278,0.549
		c-0.782,1.173-2.366,1.489-3.538,0.703c-1.17-0.78-1.486-2.366-0.703-3.537h-6.552c-0.783,4.79,2.466,9.307,7.255,10.09
		c0.471,0.076,0.941,0.115,1.419,0.115h0.905c4.354,0,7.881-3.527,7.881-7.882c0-3.346-2.117-6.33-5.279-7.437l-4.695-1.643
		c-0.477-0.169-0.796-0.617-0.796-1.123c0-0.658,0.533-1.19,1.188-1.19h1.589c0.658,0,1.191,0.532,1.191,1.19
		c0,0.781,0.632,1.418,1.415,1.418h4.684c0.783-4.029-1.848-7.927-5.875-8.71C218.789,367.119,218.315,367.073,217.84,367.073z"/>
</g>
<g id="LWPOLYLINE_57_">
	<path style="fill:#E4002B;" d="M227.828,375.847v7.938c0,4.068,3.301,7.368,7.369,7.368c4.07,0,7.371-3.3,7.371-7.368v-7.938
		c0-4.07-3.301-7.371-7.371-7.371C231.128,368.476,227.828,371.776,227.828,375.847z"/>
</g>
<g id="LWPOLYLINE_59_">
	<path style="fill:#E4002B;" d="M254.218,368.491h-1.586c-3.318,0-6.01,2.688-6.01,6.009c0,2.554,1.615,4.828,4.025,5.673
		l4.695,1.643c0.689,0.239,1.27,0.719,1.637,1.352c0.35,0.602,0.414,1.326,0.18,1.979c-0.568,1.571-2.061,2.619-3.734,2.619
		c-2.191,0-3.969-1.777-3.969-3.969h-3.402c0,4.07,3.301,7.368,7.371,7.368h0.908c3.568,0,6.463-2.892,6.463-6.463
		c0-2.744-1.736-5.192-4.33-6.098l-4.695-1.643c-1.047-0.367-1.748-1.354-1.748-2.462c0-1.44,1.168-2.608,2.609-2.608h1.586
		c1.441,0,2.609,1.168,2.609,2.608h3.402C260.23,371.18,257.539,368.491,254.218,368.491z"/>
</g>
<g id="LWPOLYLINE_55_">
	<path style="fill:#E4002B;" d="M217.84,368.491h-1.589c-3.318,0-6.009,2.688-6.009,6.009c0,2.554,1.615,4.828,4.025,5.673
		l4.695,1.643c0.691,0.239,1.271,0.719,1.638,1.352c0.35,0.602,0.413,1.326,0.179,1.979c-0.568,1.571-2.061,2.619-3.731,2.619
		c-2.193,0-3.969-1.777-3.969-3.969h-3.402c0,4.07,3.3,7.368,7.371,7.368h0.905c3.57,0,6.463-2.892,6.463-6.463
		c0-2.744-1.736-5.192-4.328-6.098l-4.695-1.643c-1.046-0.367-1.747-1.354-1.747-2.462c0-1.44,1.168-2.608,2.606-2.608h1.589
		c1.438,0,2.606,1.168,2.606,2.608h3.402C223.849,371.18,221.159,368.491,217.84,368.491z"/>
</g>
<g id="LWPOLYLINE_2_">
	<path style="fill:#005EB8;" d="M141.733,291.685V19.842h-17.007c-3.132,0-5.669,2.538-5.669,5.669v260.787
		c0,3.132,2.538,5.67,5.669,5.67h17.007"/>
</g>
<g id="LWPOLYLINE_24_">
	<path style="fill:#005EB8;" d="M212.599,19.842v28.346l70.854,42.52l0.014,130.395l-70.867,42.52v28.347h87.877
		c3.127,0,5.668-2.538,5.668-5.67V25.511c0-3.131-2.541-5.669-5.668-5.669H212.599z"/>
</g>
<g id="LWPOLYLINE_62_">
	<path style="fill:#005EB8;" d="M237.75,375.847v7.938c0,1.408-1.143,2.551-2.553,2.551c-1.408,0-2.551-1.143-2.551-2.551v-7.938
		c0-1.41,1.143-2.553,2.551-2.553C236.607,373.294,237.75,374.437,237.75,375.847z"/>
</g>
<g id="LWPOLYLINE_65_">
	<path style="fill:#005EB8;" d="M151.83,330.282c0.752-0.253,1.548-0.35,2.339-0.286h2.752v-1.334l-2.792,0.092L151.83,330.282z"/>
</g>
<g id="LWPOLYLINE_63_">
	<path style="fill:#E4002B;" d="M172.839,388.345H149.27v-52.587c0.002-0.117,0.008-0.232,0.021-0.347
		c0.227-2.434,2.385-4.224,4.818-3.997h4.231v-4.221l-4.663,0.155l-8.73,5.815v4.594h-3.226v-8.274l12.01-8.134h4.609v-1.035h5.619
		v1.035h2.125l4.349,1.862v2.328l-3.726,1.653h-2.747v4.221h4.609c2.321,0,4.234,1.818,4.349,4.137L172.839,388.345z"/>
</g>
<g id="LWPOLYLINE_66_">
	<path style="fill:#E4002B;" d="M228.669,328.896l10.43,10.575c0.877,0.796,2.227,0.765,3.068-0.071l3.797-3.801l-13.588-13.559
		l-3.674,3.752C227.897,326.668,227.884,328.007,228.669,328.896z"/>
</g>
<g id="LWPOLYLINE_67_">
	<path style="fill:#E4002B;" d="M268.453,333.824c-1.436-1.453-2.951-2.831-4.537-4.124c-4.98-4.509-10.881-7.889-17.289-9.906
		c-4-1.298-8.326-1.165-12.24,0.37l-0.988,0.854l13.59,13.559l0.258-0.258c0.742-0.628,1.783-0.76,2.66-0.342
		c3.846,2.14,7.381,4.795,10.506,7.896c3.125,3.119,5.811,6.651,7.98,10.498c0.42,0.877,0.287,1.918-0.34,2.66l-0.301,0.301
		l13.592,13.556l0.873-1.01c1.533-3.912,1.66-8.238,0.361-12.237c-2.051-6.414-5.461-12.309-9.998-17.282
		C271.287,336.773,269.91,335.261,268.453,333.824z"/>
</g>
<g id="LWPOLYLINE_68_">
	<path style="fill:#E4002B;" d="M273.488,373.679l-10.58-10.495c-0.801-0.877-0.77-2.227,0.066-3.068l3.775-3.779l13.592,13.559
		l-3.75,3.749C275.72,374.449,274.38,374.465,273.488,373.679z"/>
</g>
<g id="LWPOLYLINE_28_">
	<path style="fill:#FFFFFF;" d="M257.947,163.345c0,4.109-3.33,7.44-7.439,7.44c-4.111,0-7.442-3.331-7.442-7.44v-14.882
		c0-4.109,3.331-7.44,7.442-7.44c4.109,0,7.439,3.331,7.439,7.44V163.345z"/>
</g>
<g id="LWPOLYLINE_69_">
	<path style="fill:#FFFFFF;" d="M267.902,355.183l0.15-0.15c0.627-0.742,0.76-1.783,0.34-2.66c-2.17-3.847-4.855-7.379-7.98-10.498
		c-3.125-3.102-6.66-5.757-10.506-7.896c-0.877-0.418-1.918-0.286-2.66,0.342l-0.258,0.258l1.039,1.035l0.17-0.242
		c0.307-0.234,0.715-0.283,1.066-0.13c3.713,2.073,7.129,4.642,10.148,7.639c3.02,3.015,5.615,6.428,7.717,10.141
		c0.154,0.353,0.105,0.758-0.129,1.062l-0.289,0.212l1.041,1.04L267.902,355.183z"/>
</g>
<g id="LWPOLYLINE_70_">
	<path style="fill:#FFFFFF;" d="M233.398,321.019l0.988-0.854c3.914-1.535,8.24-1.668,12.24-0.37
		c6.408,2.018,12.309,5.397,17.289,9.906c1.586,1.293,3.102,2.671,4.537,4.124c1.457,1.437,2.834,2.949,4.127,4.535
		c4.537,4.974,7.947,10.868,9.998,17.282c1.299,3.999,1.172,8.325-0.361,12.237l-0.873,1.01l1.041,1.041l1.061-1.303
		c1.736-4.277,1.908-9.032,0.482-13.421c-2.109-6.594-5.613-12.656-10.273-17.775c-1.316-1.609-2.719-3.147-4.199-4.608
		c-1.461-1.482-3.002-2.882-4.613-4.195c-5.127-4.635-11.193-8.105-17.785-10.182c-4.389-1.424-9.141-1.248-13.415,0.492
		l-1.286,1.043L233.398,321.019z"/>
</g>
<g id="LWPOLYLINE_71_">
	<path style="fill:#FFFFFF;" d="M245.964,335.6l-3.797,3.801c-0.842,0.836-2.191,0.867-3.068,0.071l-10.43-10.575
		c-0.785-0.89-0.772-2.229,0.033-3.104l3.674-3.752l-1.014-1.01l-3.686,3.785c-1.323,1.418-1.341,3.611-0.04,5.05l10.478,10.623
		c1.434,1.336,3.668,1.298,5.055-0.084l3.801-3.804L245.964,335.6z"/>
</g>
<g id="LWPOLYLINE_72_">
	<path style="fill:#FFFFFF;" d="M266.75,356.336l-3.775,3.779c-0.836,0.842-0.867,2.191-0.066,3.068l10.58,10.495
		c0.893,0.786,2.232,0.771,3.104-0.035l3.75-3.749l1.002,0.999l-3.768,3.771c-1.414,1.331-3.615,1.352-5.061,0.048l-10.629-10.546
		c-1.334-1.434-1.297-3.663,0.084-5.053l3.777-3.777L266.75,356.336z"/>
</g>
<g id="LWPOLYLINE_25_">
	<path style="fill:#101820;" d="M256.208,102.584l-8.805-3.08c-1.961-0.686-3.275-2.536-3.275-4.615
		c0-2.701,2.189-4.889,4.891-4.889h2.975c2.701,0,4.891,2.188,4.891,4.889h6.379c0-6.223-5.045-11.268-11.27-11.268h-2.975
		c-6.225,0-11.27,5.045-11.27,11.268c0,4.789,3.027,9.055,7.551,10.636l8.803,3.079c1.291,0.453,2.381,1.352,3.068,2.535
		c0.654,1.127,0.775,2.483,0.334,3.711c-1.064,2.948-3.863,4.915-6.998,4.915c-4.111,0-7.442-3.331-7.442-7.443h-6.376
		c0,7.632,6.186,13.819,13.818,13.819h1.701c6.693,0,12.117-5.425,12.117-12.117C264.326,108.873,261.07,104.285,256.208,102.584z"
		/>
</g>
<g id="LWPOLYLINE_27_">
	<path style="fill:#101820;" d="M251.994,185.67h-2.975c-6.219,0-11.262,5.039-11.262,11.26c0,4.788,3.025,9.053,7.545,10.634
		l8.799,3.076c1.293,0.453,2.379,1.352,3.066,2.535c0.654,1.124,0.777,2.483,0.334,3.708c-1.064,2.946-3.861,4.91-6.994,4.91
		c-4.109,0-7.438-3.329-7.438-7.438h-6.376c0,7.629,6.185,13.811,13.813,13.811h1.699c6.689,0,12.111-5.422,12.111-12.109
		c0-5.149-3.252-9.732-8.113-11.434l-8.799-3.079c-1.961-0.686-3.274-2.535-3.274-4.614c0-2.698,2.188-4.887,4.888-4.887h2.975
		c2.699,0,4.889,2.188,4.889,4.887h6.375C263.257,190.709,258.214,185.67,251.994,185.67z"/>
</g>
<g id="LWPOLYLINE_29_">
	<rect x="212.599" y="72.282" style="fill:#101820;" width="9.922" height="19.843"/>
</g>
<g id="LWPOLYLINE_30_">
	<rect x="212.599" y="109.134" style="fill:#101820;" width="9.922" height="19.843"/>
</g>
<g id="LWPOLYLINE_31_">
	<rect x="212.599" y="145.983" style="fill:#101820;" width="9.922" height="19.844"/>
</g>
<g id="LWPOLYLINE_32_">
	<rect x="212.599" y="182.833" style="fill:#101820;" width="9.922" height="19.844"/>
</g>
<g id="LWPOLYLINE_33_">
	<rect x="212.599" y="219.684" style="fill:#101820;" width="9.922" height="19.843"/>
</g>
</svg>
