<?xml version="1.0" encoding="UTF-8" standalone="no"?>
<!-- Generator: Adobe Illustrator 16.0.0, SVG Export Plug-In . SVG Version: 6.00 Build 0)  -->

<svg
   xmlns:dc="http://purl.org/dc/elements/1.1/"
   xmlns:cc="http://creativecommons.org/ns#"
   xmlns:rdf="http://www.w3.org/1999/02/22-rdf-syntax-ns#"
   xmlns:svg="http://www.w3.org/2000/svg"
   xmlns="http://www.w3.org/2000/svg"
   xmlns:sodipodi="http://sodipodi.sourceforge.net/DTD/sodipodi-0.dtd"
   xmlns:inkscape="http://www.inkscape.org/namespaces/inkscape"
   version="1.1"
   id="Layer_1"
   x="0px"
   y="0px"
   width="198.924"
   height="397.35101"
   viewBox="0 0 198.924 397.351"
   xml:space="preserve"
   sodipodi:docname="E21_2.svg"
   inkscape:version="0.92.5 (2060ec1f9f, 2020-04-08)"><metadata
   id="metadata1662"><rdf:RDF><cc:Work
       rdf:about=""><dc:format>image/svg+xml</dc:format><dc:type
         rdf:resource="http://purl.org/dc/dcmitype/StillImage" /></cc:Work></rdf:RDF></metadata><defs
   id="defs1660" /><sodipodi:namedview
   pagecolor="#ffffff"
   bordercolor="#666666"
   borderopacity="1"
   objecttolerance="10"
   gridtolerance="10"
   guidetolerance="10"
   inkscape:pageopacity="0"
   inkscape:pageshadow="2"
   inkscape:window-width="640"
   inkscape:window-height="480"
   id="namedview1658"
   showgrid="false"
   inkscape:zoom="0.55503813"
   inkscape:cx="99.462494"
   inkscape:cy="198.67599"
   inkscape:window-x="0"
   inkscape:window-y="0"
   inkscape:window-maximized="0"
   inkscape:current-layer="Layer_1" />
<g
   id="LWPOLYLINE_3_"
   transform="translate(-113.136,-13.923)">
	
		<rect
   x="113.386"
   y="14.173"
   style="fill:#005eb8;stroke:#005eb8;stroke-width:0.5;stroke-miterlimit:10"
   width="198.424"
   height="283.465"
   id="rect1555" />
</g>
<g
   id="LWPOLYLINE_1_"
   transform="translate(-113.136,-13.923)">
	<path
   style="fill:#ffffff"
   d="m 124.726,297.638 h 175.75 c 6.26,0 11.334,-5.078 11.334,-11.34 V 25.511 c 0,-6.262 -5.074,-11.338 -11.334,-11.338 h -175.75 c -6.261,0 -11.339,5.076 -11.339,11.338 v 260.787 c -0.001,6.262 5.077,11.34 11.339,11.34 z"
   id="path1558"
   inkscape:connector-curvature="0" />
</g>
<g
   id="LWPOLYLINE_26_"
   transform="translate(-113.136,-13.923)">
	<path
   style="fill:#101820"
   d="m 264.326,148.463 c 0,-7.632 -6.188,-13.819 -13.818,-13.819 -7.633,0 -13.818,6.188 -13.818,13.819 v 14.882 c 0,7.634 6.186,13.819 13.818,13.819 7.631,0 13.818,-6.186 13.818,-13.819 z"
   id="path1561"
   inkscape:connector-curvature="0" />
</g>
<g
   id="LWPOLYLINE_76_"
   transform="translate(-113.136,-13.923)">
	
		<rect
   x="113.386"
   y="297.638"
   style="fill:#005eb8;stroke:#005eb8;stroke-width:0.5;stroke-miterlimit:10"
   width="198.424"
   height="113.386"
   id="rect1564" />
</g>
<g
   id="LWPOLYLINE_54_"
   transform="translate(-113.136,-13.923)">
	<path
   style="fill:#ffffff"
   d="m 300.476,411.023 h -175.75 c -6.261,0 -11.339,-5.078 -11.339,-11.339 v -90.71 c 0,-6.262 5.078,-11.337 11.339,-11.337 h 175.75 c 6.26,0 11.334,5.075 11.334,11.337 v 90.71 c 0,6.261 -5.074,11.339 -11.334,11.339 z"
   id="path1567"
   inkscape:connector-curvature="0" />
</g>
<g
   id="LWPOLYLINE_53_"
   transform="translate(-113.136,-13.923)">
	<path
   style="fill:#005eb8"
   d="m 300.476,405.352 h -175.75 c -3.132,0 -5.669,-2.535 -5.669,-5.667 v -90.71 c 0,-3.129 2.538,-5.67 5.669,-5.67 h 175.75 c 3.127,0 5.668,2.541 5.668,5.67 v 90.71 c 0,3.131 -2.541,5.667 -5.668,5.667 z"
   id="path1570"
   inkscape:connector-curvature="0" />
</g>
<g
   id="LWPOLYLINE_64_"
   transform="translate(-113.136,-13.923)">
	<path
   style="fill:#ffffff"
   d="m 174.254,389.763 h -26.403 v -54.015 c 0.018,-1.393 0.533,-2.734 1.451,-3.783 l -2.938,1.959 v 5.254 h -6.063 v -10.444 l 12.995,-8.804 h 3.624 v -1.033 h 8.458 v 1.033 h 0.995 l 5.476,2.346 v 4.188 l -4.844,2.15 h -1.627 v 1.382 h 3.188 c 3.091,0 5.634,2.436 5.767,5.524 z"
   id="path1573"
   inkscape:connector-curvature="0" />
</g>
<g
   id="LWPOLYLINE_60_"
   transform="translate(-113.136,-13.923)">
	<path
   style="fill:#ffffff"
   d="m 254.218,367.073 h -1.586 c -4.102,0 -7.428,3.326 -7.428,7.427 0,3.155 1.994,5.969 4.977,7.009 l 4.695,1.643 c 0.369,0.131 0.682,0.388 0.877,0.728 0.141,0.237 0.166,0.525 0.072,0.785 -0.072,0.194 -0.164,0.38 -0.277,0.549 -0.783,1.173 -2.367,1.489 -3.541,0.703 -1.17,-0.78 -1.484,-2.366 -0.703,-3.537 h -6.551 c -0.783,4.79 2.467,9.307 7.254,10.09 0.469,0.076 0.943,0.115 1.418,0.115 h 0.908 c 4.352,0 7.881,-3.527 7.881,-7.882 0,-3.346 -2.119,-6.33 -5.279,-7.437 l -4.695,-1.643 c -0.477,-0.169 -0.799,-0.617 -0.799,-1.123 0,-0.658 0.533,-1.19 1.191,-1.19 h 1.586 c 0.658,0 1.191,0.532 1.191,1.19 0,0.781 0.635,1.418 1.418,1.418 h 4.684 c 0.783,-4.029 -1.848,-7.927 -5.875,-8.71 -0.467,-0.089 -0.941,-0.135 -1.418,-0.135 z"
   id="path1576"
   inkscape:connector-curvature="0" />
</g>
<g
   id="LWPOLYLINE_61_"
   transform="translate(-113.136,-13.923)">
	<path
   style="fill:#ffffff"
   d="m 239.166,375.847 v 7.938 c 0,2.188 -1.775,3.969 -3.969,3.969 -2.191,0 -3.969,-1.78 -3.969,-3.969 v -7.938 c 0,-2.193 1.777,-3.968 3.969,-3.968 2.193,0 3.969,1.774 3.969,3.968 z"
   id="path1579"
   inkscape:connector-curvature="0" />
</g>
<g
   id="LWPOLYLINE_58_"
   transform="translate(-113.136,-13.923)">
	<path
   style="fill:#ffffff"
   d="m 226.41,375.847 v 7.938 c 0,4.852 3.936,8.784 8.787,8.784 4.854,0 8.789,-3.933 8.789,-8.784 v -7.938 c 0,-4.855 -3.936,-8.789 -8.789,-8.789 -4.852,0 -8.787,3.933 -8.787,8.789 z"
   id="path1582"
   inkscape:connector-curvature="0" />
</g>
<g
   id="LWPOLYLINE_56_"
   transform="translate(-113.136,-13.923)">
	<path
   style="fill:#ffffff"
   d="m 217.84,367.073 h -1.589 c -4.101,0 -7.424,3.326 -7.424,7.427 0,3.155 1.994,5.969 4.973,7.009 l 4.695,1.643 c 0.37,0.131 0.682,0.388 0.881,0.728 0.137,0.237 0.162,0.525 0.068,0.785 -0.068,0.194 -0.164,0.38 -0.278,0.549 -0.782,1.173 -2.366,1.489 -3.538,0.703 -1.17,-0.78 -1.486,-2.366 -0.703,-3.537 h -6.552 c -0.783,4.79 2.466,9.307 7.255,10.09 0.471,0.076 0.941,0.115 1.419,0.115 h 0.905 c 4.354,0 7.881,-3.527 7.881,-7.882 0,-3.346 -2.117,-6.33 -5.279,-7.437 l -4.695,-1.643 c -0.477,-0.169 -0.796,-0.617 -0.796,-1.123 0,-0.658 0.533,-1.19 1.188,-1.19 h 1.589 c 0.658,0 1.191,0.532 1.191,1.19 0,0.781 0.632,1.418 1.415,1.418 h 4.684 c 0.783,-4.029 -1.848,-7.927 -5.875,-8.71 -0.466,-0.089 -0.94,-0.135 -1.415,-0.135 z"
   id="path1585"
   inkscape:connector-curvature="0" />
</g>
<g
   id="LWPOLYLINE_57_"
   transform="translate(-113.136,-13.923)">
	<path
   style="fill:#e4002b"
   d="m 227.828,375.847 v 7.938 c 0,4.068 3.301,7.368 7.369,7.368 4.07,0 7.371,-3.3 7.371,-7.368 v -7.938 c 0,-4.07 -3.301,-7.371 -7.371,-7.371 -4.069,0 -7.369,3.3 -7.369,7.371 z"
   id="path1588"
   inkscape:connector-curvature="0" />
</g>
<g
   id="LWPOLYLINE_59_"
   transform="translate(-113.136,-13.923)">
	<path
   style="fill:#e4002b"
   d="m 254.218,368.491 h -1.586 c -3.318,0 -6.01,2.688 -6.01,6.009 0,2.554 1.615,4.828 4.025,5.673 l 4.695,1.643 c 0.689,0.239 1.27,0.719 1.637,1.352 0.35,0.602 0.414,1.326 0.18,1.979 -0.568,1.571 -2.061,2.619 -3.734,2.619 -2.191,0 -3.969,-1.777 -3.969,-3.969 h -3.402 c 0,4.07 3.301,7.368 7.371,7.368 h 0.908 c 3.568,0 6.463,-2.892 6.463,-6.463 0,-2.744 -1.736,-5.192 -4.33,-6.098 l -4.695,-1.643 c -1.047,-0.367 -1.748,-1.354 -1.748,-2.462 0,-1.44 1.168,-2.608 2.609,-2.608 h 1.586 c 1.441,0 2.609,1.168 2.609,2.608 h 3.402 c 0.001,-3.319 -2.69,-6.008 -6.011,-6.008 z"
   id="path1591"
   inkscape:connector-curvature="0" />
</g>
<g
   id="LWPOLYLINE_55_"
   transform="translate(-113.136,-13.923)">
	<path
   style="fill:#e4002b"
   d="m 217.84,368.491 h -1.589 c -3.318,0 -6.009,2.688 -6.009,6.009 0,2.554 1.615,4.828 4.025,5.673 l 4.695,1.643 c 0.691,0.239 1.271,0.719 1.638,1.352 0.35,0.602 0.413,1.326 0.179,1.979 -0.568,1.571 -2.061,2.619 -3.731,2.619 -2.193,0 -3.969,-1.777 -3.969,-3.969 h -3.402 c 0,4.07 3.3,7.368 7.371,7.368 h 0.905 c 3.57,0 6.463,-2.892 6.463,-6.463 0,-2.744 -1.736,-5.192 -4.328,-6.098 l -4.695,-1.643 c -1.046,-0.367 -1.747,-1.354 -1.747,-2.462 0,-1.44 1.168,-2.608 2.606,-2.608 h 1.589 c 1.438,0 2.606,1.168 2.606,2.608 h 3.402 c 0,-3.319 -2.69,-6.008 -6.009,-6.008 z"
   id="path1594"
   inkscape:connector-curvature="0" />
</g>
<g
   id="LWPOLYLINE_2_"
   transform="translate(-113.136,-13.923)">
	<path
   style="fill:#005eb8"
   d="M 141.733,291.685 V 19.842 h -17.007 c -3.132,0 -5.669,2.538 -5.669,5.669 v 260.787 c 0,3.132 2.538,5.67 5.669,5.67 h 17.007"
   id="path1597"
   inkscape:connector-curvature="0" />
</g>
<g
   id="LWPOLYLINE_24_"
   transform="translate(-113.136,-13.923)">
	<path
   style="fill:#005eb8"
   d="m 212.599,19.842 v 28.346 l 70.854,42.52 0.014,130.395 -70.867,42.52 v 28.347 h 87.877 c 3.127,0 5.668,-2.538 5.668,-5.67 V 25.511 c 0,-3.131 -2.541,-5.669 -5.668,-5.669 z"
   id="path1600"
   inkscape:connector-curvature="0" />
</g>
<g
   id="LWPOLYLINE_62_"
   transform="translate(-113.136,-13.923)">
	<path
   style="fill:#005eb8"
   d="m 237.75,375.847 v 7.938 c 0,1.408 -1.143,2.551 -2.553,2.551 -1.408,0 -2.551,-1.143 -2.551,-2.551 v -7.938 c 0,-1.41 1.143,-2.553 2.551,-2.553 1.41,0 2.553,1.143 2.553,2.553 z"
   id="path1603"
   inkscape:connector-curvature="0" />
</g>
<g
   id="LWPOLYLINE_65_"
   transform="translate(-113.136,-13.923)">
	<path
   style="fill:#005eb8"
   d="m 151.83,330.282 c 0.752,-0.253 1.548,-0.35 2.339,-0.286 h 2.752 v -1.334 l -2.792,0.092 z"
   id="path1606"
   inkscape:connector-curvature="0" />
</g>
<g
   id="LWPOLYLINE_63_"
   transform="translate(-113.136,-13.923)">
	<path
   style="fill:#e4002b"
   d="M 172.839,388.345 H 149.27 v -52.587 c 0.002,-0.117 0.008,-0.232 0.021,-0.347 0.227,-2.434 2.385,-4.224 4.818,-3.997 h 4.231 v -4.221 l -4.663,0.155 -8.73,5.815 v 4.594 h -3.226 v -8.274 l 12.01,-8.134 h 4.609 v -1.035 h 5.619 v 1.035 h 2.125 l 4.349,1.862 v 2.328 l -3.726,1.653 h -2.747 v 4.221 h 4.609 c 2.321,0 4.234,1.818 4.349,4.137 z"
   id="path1609"
   inkscape:connector-curvature="0" />
</g>
<g
   id="LWPOLYLINE_66_"
   transform="translate(-113.136,-13.923)">
	<path
   style="fill:#e4002b"
   d="m 228.669,328.896 10.43,10.575 c 0.877,0.796 2.227,0.765 3.068,-0.071 l 3.797,-3.801 -13.588,-13.559 -3.674,3.752 c -0.805,0.876 -0.818,2.215 -0.033,3.104 z"
   id="path1612"
   inkscape:connector-curvature="0" />
</g>
<g
   id="LWPOLYLINE_67_"
   transform="translate(-113.136,-13.923)">
	<path
   style="fill:#e4002b"
   d="m 268.453,333.824 c -1.436,-1.453 -2.951,-2.831 -4.537,-4.124 -4.98,-4.509 -10.881,-7.889 -17.289,-9.906 -4,-1.298 -8.326,-1.165 -12.24,0.37 l -0.988,0.854 13.59,13.559 0.258,-0.258 c 0.742,-0.628 1.783,-0.76 2.66,-0.342 3.846,2.14 7.381,4.795 10.506,7.896 3.125,3.119 5.811,6.651 7.98,10.498 0.42,0.877 0.287,1.918 -0.34,2.66 l -0.301,0.301 13.592,13.556 0.873,-1.01 c 1.533,-3.912 1.66,-8.238 0.361,-12.237 -2.051,-6.414 -5.461,-12.309 -9.998,-17.282 -1.293,-1.586 -2.67,-3.098 -4.127,-4.535 z"
   id="path1615"
   inkscape:connector-curvature="0" />
</g>
<g
   id="LWPOLYLINE_68_"
   transform="translate(-113.136,-13.923)">
	<path
   style="fill:#e4002b"
   d="m 273.488,373.679 -10.58,-10.495 c -0.801,-0.877 -0.77,-2.227 0.066,-3.068 l 3.775,-3.779 13.592,13.559 -3.75,3.749 c -0.871,0.804 -2.211,0.82 -3.103,0.034 z"
   id="path1618"
   inkscape:connector-curvature="0" />
</g>
<g
   id="LWPOLYLINE_28_"
   transform="translate(-113.136,-13.923)">
	<path
   style="fill:#ffffff"
   d="m 257.947,163.345 c 0,4.109 -3.33,7.44 -7.439,7.44 -4.111,0 -7.442,-3.331 -7.442,-7.44 v -14.882 c 0,-4.109 3.331,-7.44 7.442,-7.44 4.109,0 7.439,3.331 7.439,7.44 z"
   id="path1621"
   inkscape:connector-curvature="0" />
</g>
<g
   id="LWPOLYLINE_69_"
   transform="translate(-113.136,-13.923)">
	<path
   style="fill:#ffffff"
   d="m 267.902,355.183 0.15,-0.15 c 0.627,-0.742 0.76,-1.783 0.34,-2.66 -2.17,-3.847 -4.855,-7.379 -7.98,-10.498 -3.125,-3.102 -6.66,-5.757 -10.506,-7.896 -0.877,-0.418 -1.918,-0.286 -2.66,0.342 l -0.258,0.258 1.039,1.035 0.17,-0.242 c 0.307,-0.234 0.715,-0.283 1.066,-0.13 3.713,2.073 7.129,4.642 10.148,7.639 3.02,3.015 5.615,6.428 7.717,10.141 0.154,0.353 0.105,0.758 -0.129,1.062 l -0.289,0.212 1.041,1.04 z"
   id="path1624"
   inkscape:connector-curvature="0" />
</g>
<g
   id="LWPOLYLINE_70_"
   transform="translate(-113.136,-13.923)">
	<path
   style="fill:#ffffff"
   d="m 233.398,321.019 0.988,-0.854 c 3.914,-1.535 8.24,-1.668 12.24,-0.37 6.408,2.018 12.309,5.397 17.289,9.906 1.586,1.293 3.102,2.671 4.537,4.124 1.457,1.437 2.834,2.949 4.127,4.535 4.537,4.974 7.947,10.868 9.998,17.282 1.299,3.999 1.172,8.325 -0.361,12.237 l -0.873,1.01 1.041,1.041 1.061,-1.303 c 1.736,-4.277 1.908,-9.032 0.482,-13.421 -2.109,-6.594 -5.613,-12.656 -10.273,-17.775 -1.316,-1.609 -2.719,-3.147 -4.199,-4.608 -1.461,-1.482 -3.002,-2.882 -4.613,-4.195 -5.127,-4.635 -11.193,-8.105 -17.785,-10.182 -4.389,-1.424 -9.141,-1.248 -13.415,0.492 l -1.286,1.043 z"
   id="path1627"
   inkscape:connector-curvature="0" />
</g>
<g
   id="LWPOLYLINE_71_"
   transform="translate(-113.136,-13.923)">
	<path
   style="fill:#ffffff"
   d="m 245.964,335.6 -3.797,3.801 c -0.842,0.836 -2.191,0.867 -3.068,0.071 l -10.43,-10.575 c -0.785,-0.89 -0.772,-2.229 0.033,-3.104 l 3.674,-3.752 -1.014,-1.01 -3.686,3.785 c -1.323,1.418 -1.341,3.611 -0.04,5.05 l 10.478,10.623 c 1.434,1.336 3.668,1.298 5.055,-0.084 l 3.801,-3.804 z"
   id="path1630"
   inkscape:connector-curvature="0" />
</g>
<g
   id="LWPOLYLINE_72_"
   transform="translate(-113.136,-13.923)">
	<path
   style="fill:#ffffff"
   d="m 266.75,356.336 -3.775,3.779 c -0.836,0.842 -0.867,2.191 -0.066,3.068 l 10.58,10.495 c 0.893,0.786 2.232,0.771 3.104,-0.035 l 3.75,-3.749 1.002,0.999 -3.768,3.771 c -1.414,1.331 -3.615,1.352 -5.061,0.048 l -10.629,-10.546 c -1.334,-1.434 -1.297,-3.663 0.084,-5.053 l 3.777,-3.777 z"
   id="path1633"
   inkscape:connector-curvature="0" />
</g>
<g
   id="LWPOLYLINE_25_"
   transform="translate(-113.136,-13.923)">
	<path
   style="fill:#101820"
   d="m 256.208,102.584 -8.805,-3.08 c -1.961,-0.686 -3.275,-2.536 -3.275,-4.615 0,-2.701 2.189,-4.889 4.891,-4.889 h 2.975 c 2.701,0 4.891,2.188 4.891,4.889 h 6.379 c 0,-6.223 -5.045,-11.268 -11.27,-11.268 h -2.975 c -6.225,0 -11.27,5.045 -11.27,11.268 0,4.789 3.027,9.055 7.551,10.636 l 8.803,3.079 c 1.291,0.453 2.381,1.352 3.068,2.535 0.654,1.127 0.775,2.483 0.334,3.711 -1.064,2.948 -3.863,4.915 -6.998,4.915 -4.111,0 -7.442,-3.331 -7.442,-7.443 h -6.376 c 0,7.632 6.186,13.819 13.818,13.819 h 1.701 c 6.693,0 12.117,-5.425 12.117,-12.117 0.001,-5.151 -3.255,-9.739 -8.117,-11.44 z"
   id="path1636"
   inkscape:connector-curvature="0" />
</g>
<g
   id="LWPOLYLINE_27_"
   transform="translate(-113.136,-13.923)">
	<path
   style="fill:#101820"
   d="m 251.994,185.67 h -2.975 c -6.219,0 -11.262,5.039 -11.262,11.26 0,4.788 3.025,9.053 7.545,10.634 l 8.799,3.076 c 1.293,0.453 2.379,1.352 3.066,2.535 0.654,1.124 0.777,2.483 0.334,3.708 -1.064,2.946 -3.861,4.91 -6.994,4.91 -4.109,0 -7.438,-3.329 -7.438,-7.438 h -6.376 c 0,7.629 6.185,13.811 13.813,13.811 h 1.699 c 6.689,0 12.111,-5.422 12.111,-12.109 0,-5.149 -3.252,-9.732 -8.113,-11.434 l -8.799,-3.079 c -1.961,-0.686 -3.274,-2.535 -3.274,-4.614 0,-2.698 2.188,-4.887 4.888,-4.887 h 2.975 c 2.699,0 4.889,2.188 4.889,4.887 h 6.375 c 0,-6.221 -5.043,-11.26 -11.263,-11.26 z"
   id="path1639"
   inkscape:connector-curvature="0" />
</g>
<g
   id="LWPOLYLINE_29_"
   transform="translate(-113.136,-13.923)">
	<rect
   x="212.599"
   y="72.281998"
   style="fill:#101820"
   width="9.9219999"
   height="19.843"
   id="rect1642" />
</g>
<g
   id="LWPOLYLINE_30_"
   transform="translate(-113.136,-13.923)">
	<rect
   x="212.599"
   y="109.134"
   style="fill:#101820"
   width="9.9219999"
   height="19.843"
   id="rect1645" />
</g>
<g
   id="LWPOLYLINE_31_"
   transform="translate(-113.136,-13.923)">
	<rect
   x="212.599"
   y="145.983"
   style="fill:#101820"
   width="9.9219999"
   height="19.844"
   id="rect1648" />
</g>
<g
   id="LWPOLYLINE_32_"
   transform="translate(-113.136,-13.923)">
	<rect
   x="212.599"
   y="182.83299"
   style="fill:#101820"
   width="9.9219999"
   height="19.844"
   id="rect1651" />
</g>
<g
   id="LWPOLYLINE_33_"
   transform="translate(-113.136,-13.923)">
	<rect
   x="212.599"
   y="219.68401"
   style="fill:#101820"
   width="9.9219999"
   height="19.843"
   id="rect1654" />
</g>
</svg>