<?xml version="1.0" encoding="UTF-8" standalone="no"?>
<!-- Generator: Adobe Illustrator 16.0.0, SVG Export Plug-In . SVG Version: 6.00 Build 0)  -->

<svg
   xmlns:dc="http://purl.org/dc/elements/1.1/"
   xmlns:cc="http://creativecommons.org/ns#"
   xmlns:rdf="http://www.w3.org/1999/02/22-rdf-syntax-ns#"
   xmlns:svg="http://www.w3.org/2000/svg"
   xmlns="http://www.w3.org/2000/svg"
   xmlns:sodipodi="http://sodipodi.sourceforge.net/DTD/sodipodi-0.dtd"
   xmlns:inkscape="http://www.inkscape.org/namespaces/inkscape"
   version="1.1"
   id="Layer_1"
   x="0px"
   y="0px"
   width="396.853"
   height="238.10699"
   viewBox="0 0 396.85301 238.10699"
   xml:space="preserve"
   sodipodi:docname="E23.svg"
   inkscape:version="0.92.5 (2060ec1f9f, 2020-04-08)"><metadata
   id="metadata1770"><rdf:RDF><cc:Work
       rdf:about=""><dc:format>image/svg+xml</dc:format><dc:type
         rdf:resource="http://purl.org/dc/dcmitype/StillImage" /></cc:Work></rdf:RDF></metadata><defs
   id="defs1768" /><sodipodi:namedview
   pagecolor="#ffffff"
   bordercolor="#666666"
   borderopacity="1"
   objecttolerance="10"
   gridtolerance="10"
   guidetolerance="10"
   inkscape:pageopacity="0"
   inkscape:pageshadow="2"
   inkscape:window-width="640"
   inkscape:window-height="480"
   id="namedview1766"
   showgrid="false"
   inkscape:zoom="0.55503813"
   inkscape:cx="198.4265"
   inkscape:cy="119.05399"
   inkscape:window-x="0"
   inkscape:window-y="0"
   inkscape:window-maximized="0"
   inkscape:current-layer="Layer_1" />
<g
   id="LWPOLYLINE_7_"
   transform="translate(-14.172,-93.544998)">
	<rect
   x="14.172"
   y="93.544998"
   style="fill:#ffcd00"
   width="396.853"
   height="238.106"
   id="rect1744" />
</g>
<g
   id="LWPOLYLINE_8_"
   transform="translate(-14.172,-93.544998)">
	<path
   style="fill:#101820"
   d="m 34.016,93.545 h 357.162 c 10.962,0 19.847,8.884 19.847,19.842 v 198.428 c 0,10.953 -8.885,19.837 -19.847,19.837 H 34.016 c -10.962,0 -19.844,-8.884 -19.844,-19.837 V 113.387 c 0,-10.958 8.882,-19.842 19.844,-19.842 z"
   id="path1747"
   inkscape:connector-curvature="0" />
</g>
<g
   id="LWPOLYLINE_9_"
   transform="translate(-14.172,-93.544998)">
	<path
   style="fill:#ffcd00"
   d="m 34.016,105.449 h 357.162 c 4.387,0 7.933,3.553 7.933,7.938 v 198.428 c 0,4.377 -3.546,7.933 -7.933,7.933 H 34.016 c -4.387,0 -7.942,-3.556 -7.942,-7.933 V 113.387 c 0,-4.385 3.555,-7.938 7.942,-7.938 z"
   id="path1750"
   inkscape:connector-curvature="0" />
</g>
<g
   id="LWPOLYLINE_10_"
   transform="translate(-14.172,-93.544998)">
	<polygon
   style="fill:#101820"
   points="72.703,220.533 111.398,236.409 111.398,250.179 34.016,296.608 34.016,236.409 "
   id="polygon1753" />
</g>
<g
   id="LWPOLYLINE_11_"
   transform="translate(-14.172,-93.544998)">
	<polygon
   style="fill:#101820"
   points="164.916,218.067 118.916,245.667 145.134,133.229 "
   id="polygon1756" />
</g>
<g
   id="LWPOLYLINE_12_"
   transform="translate(-14.172,-93.544998)">
	<path
   style="fill:#101820"
   d="m 233.432,223.239 v 5.319 h 15.875 l 14.878,19.842 v 11.904 h 5.957 v -27.779 l 32.738,-19.842 32.739,19.842 v 39.601 h 5.956 v -73.415 l 24.797,-5.955 24.806,5.955 v 109.132 c 0,2.189 -1.773,3.972 -3.971,3.972 h -301.4 l 87.106,-52.262 v 8.689 h 5.947 v -12.264 z"
   id="path1759"
   inkscape:connector-curvature="0" />
</g>
<g
   id="LWPOLYLINE_13_"
   transform="translate(-14.172,-93.544998)">
	<path
   style="fill:#e4002b"
   d="M 399.111,123.827 72.583,319.747 H 34.016 c -4.387,0 -7.942,-3.556 -7.942,-7.933 v -10.445 l 326.538,-195.92 h 38.566 c 4.387,0 7.933,3.553 7.933,7.938 z"
   id="path1762"
   inkscape:connector-curvature="0" />
</g>
</svg>