<?xml version="1.0" encoding="iso-8859-1"?>
<!-- Generator: Adobe Illustrator 16.0.0, SVG Export Plug-In . SVG Version: 6.00 Build 0)  -->
<!DOCTYPE svg PUBLIC "-//W3C//DTD SVG 1.1//EN" "http://www.w3.org/Graphics/SVG/1.1/DTD/svg11.dtd">
<svg version="1.1" id="Layer_1" xmlns="http://www.w3.org/2000/svg" xmlns:xlink="http://www.w3.org/1999/xlink" x="0px" y="0px"
	 width="425.197px" height="425.196px" viewBox="0 0 425.197 425.196" style="enable-background:new 0 0 425.197 425.196;"
	 xml:space="preserve">
<g id="LWPOLYLINE_7_">
	<rect x="14.172" y="93.545" style="fill:#FFCD00;" width="396.853" height="238.106"/>
</g>
<g id="LWPOLYLINE_8_">
	<path style="fill:#101820;" d="M34.016,93.545h357.162c10.962,0,19.847,8.884,19.847,19.842v198.428
		c0,10.953-8.885,19.837-19.847,19.837H34.016c-10.962,0-19.844-8.884-19.844-19.837V113.387
		C14.172,102.429,23.054,93.545,34.016,93.545z"/>
</g>
<g id="LWPOLYLINE_9_">
	<path style="fill:#FFCD00;" d="M34.016,105.449h357.162c4.387,0,7.933,3.553,7.933,7.938v198.428c0,4.377-3.546,7.933-7.933,7.933
		H34.016c-4.387,0-7.942-3.556-7.942-7.933V113.387C26.074,109.002,29.629,105.449,34.016,105.449z"/>
</g>
<g id="LWPOLYLINE_10_">
	<polygon style="fill:#101820;" points="34.016,296.608 34.016,236.409 72.703,220.533 111.398,236.409 111.398,250.179 	"/>
</g>
<g id="LWPOLYLINE_11_">
	<polygon style="fill:#101820;" points="118.916,245.667 145.134,133.229 164.916,218.067 	"/>
</g>
<g id="LWPOLYLINE_12_">
	<path style="fill:#101820;" d="M233.432,223.239v5.319h15.875l14.878,19.842v11.904h5.957v-27.779l32.738-19.842l32.739,19.842
		v39.601h5.956v-73.415l24.797-5.955l24.806,5.955v109.132c0,2.189-1.773,3.972-3.971,3.972h-301.4l87.106-52.262v8.689h5.947
		v-12.264L233.432,223.239z"/>
</g>
<g id="LWPOLYLINE_13_">
	<path style="fill:#E4002B;" d="M399.111,123.827L72.583,319.747H34.016c-4.387,0-7.942-3.556-7.942-7.933v-10.445l326.538-195.92
		h38.566c4.387,0,7.933,3.553,7.933,7.938V123.827z"/>
</g>
</svg>
