<?xml version="1.0" encoding="UTF-8" standalone="no"?>
<!-- Generator: Adobe Illustrator 16.0.0, SVG Export Plug-In . SVG Version: 6.00 Build 0)  -->

<svg
   xmlns:dc="http://purl.org/dc/elements/1.1/"
   xmlns:cc="http://creativecommons.org/ns#"
   xmlns:rdf="http://www.w3.org/1999/02/22-rdf-syntax-ns#"
   xmlns:svg="http://www.w3.org/2000/svg"
   xmlns="http://www.w3.org/2000/svg"
   xmlns:sodipodi="http://sodipodi.sourceforge.net/DTD/sodipodi-0.dtd"
   xmlns:inkscape="http://www.inkscape.org/namespaces/inkscape"
   version="1.1"
   id="Layer_1"
   x="0px"
   y="0px"
   width="397.353"
   height="283.96399"
   viewBox="0 0 397.35301 283.96398"
   xml:space="preserve"
   sodipodi:docname="E24.svg"
   inkscape:version="0.92.5 (2060ec1f9f, 2020-04-08)"><metadata
   id="metadata1825"><rdf:RDF><cc:Work
       rdf:about=""><dc:format>image/svg+xml</dc:format><dc:type
         rdf:resource="http://purl.org/dc/dcmitype/StillImage" /></cc:Work></rdf:RDF></metadata><defs
   id="defs1823" /><sodipodi:namedview
   pagecolor="#ffffff"
   bordercolor="#666666"
   borderopacity="1"
   objecttolerance="10"
   gridtolerance="10"
   guidetolerance="10"
   inkscape:pageopacity="0"
   inkscape:pageshadow="2"
   inkscape:window-width="640"
   inkscape:window-height="480"
   id="namedview1821"
   showgrid="false"
   inkscape:zoom="0.55503813"
   inkscape:cx="198.6765"
   inkscape:cy="141.98198"
   inkscape:window-x="0"
   inkscape:window-y="0"
   inkscape:window-maximized="0"
   inkscape:current-layer="Layer_1" />
<g
   id="LWPOLYLINE_7_"
   transform="translate(-13.922,-70.615997)">
	
		<rect
   x="14.172"
   y="70.865997"
   style="fill:#005eb8;stroke:#005eb8;stroke-width:0.5;stroke-miterlimit:10"
   width="396.853"
   height="283.46399"
   id="rect1772" />
</g>
<g
   id="LWPOLYLINE_8_"
   transform="translate(-13.922,-70.615997)">
	<path
   style="fill:#ffffff"
   d="m 36.851,70.866 h 351.492 c 12.529,0 22.682,10.153 22.682,22.676 v 238.109 c 0,12.525 -10.152,22.679 -22.682,22.679 H 36.851 c -12.525,0 -22.679,-10.153 -22.679,-22.679 V 93.542 c 0,-12.522 10.154,-22.676 22.679,-22.676 z"
   id="path1775"
   inkscape:connector-curvature="0" />
</g>
<g
   id="LWPOLYLINE_9_"
   transform="translate(-13.922,-70.615997)">
	<path
   style="fill:#005eb8"
   d="m 36.851,82.205 h 351.492 c 6.26,0 11.34,5.076 11.34,11.337 v 238.109 c 0,6.261 -5.08,11.342 -11.34,11.342 H 36.851 c -6.265,0 -11.341,-5.081 -11.341,-11.342 V 93.542 c 0,-6.261 5.076,-11.337 11.341,-11.337 z"
   id="path1778"
   inkscape:connector-curvature="0" />
</g>
<g
   id="LWPOLYLINE_10_"
   transform="translate(-13.922,-70.615997)">
	<polygon
   style="fill:#ffffff"
   points="277.009,207.384 277.009,134.227 271.945,134.227 318.654,94.141 367.06,134.363 361.619,134.363 361.619,207.673 326.853,207.673 326.853,174.06 310.814,174.06 310.814,207.384 "
   id="polygon1781" />
</g>
<g
   id="CIRCLE_3_"
   transform="translate(-13.922,-70.615997)">
	<path
   style="fill:#ffffff"
   d="m 247.873,309.118 c 0,-7.199 -5.84,-13.037 -13.047,-13.037 -7.197,0 -13.037,5.838 -13.037,13.037 0,7.202 5.84,13.041 13.037,13.041 7.207,0 13.047,-5.839 13.047,-13.041 z"
   id="path1784"
   inkscape:connector-curvature="0" />
</g>
<g
   id="CIRCLE_4_"
   transform="translate(-13.922,-70.615997)">
	<path
   style="fill:#ffffff"
   d="m 274.548,234.74 c 0,-6.667 -5.4,-12.076 -12.068,-12.076 -6.668,0 -12.076,5.409 -12.076,12.076 0,6.667 5.408,12.071 12.076,12.071 6.668,0 12.068,-5.404 12.068,-12.071 z"
   id="path1787"
   inkscape:connector-curvature="0" />
</g>
<g
   id="LWPOLYLINE_12_"
   transform="translate(-13.922,-70.615997)">
	<path
   style="fill:#ffffff"
   d="m 303.554,260.768 -15.805,-9.911 c -0.727,-0.531 -1.594,-0.836 -2.494,-0.879 l -17.43,-0.849 c -0.813,-0.039 -1.625,0.063 -2.406,0.306 -3.729,1.164 -6.434,4.416 -6.887,8.301 l -3.502,13.127 -8.262,13.291 c -0.984,1.837 -0.305,4.123 1.533,5.111 1.57,0.853 3.523,0.478 4.674,-0.891 l 8.215,-12.271 2.078,-5.041 2.822,15.015 -5.049,28.872 c -0.461,2.619 1.289,5.112 3.908,5.569 2.617,0.457 5.111,-1.294 5.564,-3.912 0.016,-0.082 0.031,-0.168 0.039,-0.258 l 5.838,-29.033 6.121,12.041 c 0.703,1.751 2.398,2.899 4.283,2.899 h 17.445 c 2.484,0 4.494,-2.008 4.494,-4.49 0,-2.478 -2.01,-4.486 -4.494,-4.486 -0.016,0 -0.039,0 -0.063,0 l -0.328,0.004 -13.641,0.102 -11.879,-34.75 7.025,0.102 14.266,8.902 c 1.859,1.161 4.299,0.594 5.463,-1.262 1.156,-1.856 0.586,-4.299 -1.266,-5.456 -0.082,-0.056 -0.168,-0.107 -0.262,-0.153 z"
   id="path1790"
   inkscape:connector-curvature="0" />
</g>
<g
   id="CIRCLE_5_"
   transform="translate(-13.922,-70.615997)">
	<path
   style="fill:#ffffff"
   d="m 111.739,171.264 c 0,-8.604 -6.972,-15.578 -15.578,-15.578 -8.598,0 -15.577,6.975 -15.577,15.578 0,8.603 6.979,15.579 15.577,15.579 8.606,0 15.578,-6.976 15.578,-15.579 z"
   id="path1793"
   inkscape:connector-curvature="0" />
</g>
<g
   id="LWPOLYLINE_13_"
   transform="translate(-13.922,-70.615997)">
	<path
   style="fill:#ffffff"
   d="m 78.544,315.77 -2.642,5.424 c -1.977,4.049 -6.847,5.714 -10.88,3.744 -4.025,-1.97 -5.698,-6.839 -3.728,-10.872 l 2.673,-5.444 11.271,-22.998 1.071,-61.63 -7.082,10.497 -0.336,19.165 c -0.555,2.923 -3.041,5.088 -6.011,5.236 -3.556,0.18 -6.581,-2.563 -6.761,-6.116 L 56.58,228.3 73.901,200.662 c 1.571,-2.846 3.775,-5.292 6.433,-7.16 9.7,-6.808 23.081,-4.463 29.889,5.237 l 11.888,32.312 12.771,8.832 c 2.29,2.048 2.923,5.378 1.547,8.129 -1.68,3.36 -5.776,4.725 -9.137,3.04 l -14.085,-9.676 -7.011,-14.116 0.469,22.776 13.866,32.866 7.91,31.562 c 0.641,4.158 -1.868,8.156 -5.886,9.396 -4.479,1.375 -9.215,-1.138 -10.591,-5.612 l -7.417,-28.834 -11.466,-25.707 -0.415,21.533 c -0.188,1.423 -0.61,2.803 -1.25,4.088 0.001,-10e-4 -12.872,26.438 -12.872,26.442 z"
   id="path1796"
   inkscape:connector-curvature="0" />
</g>
<g
   id="LWPOLYLINE_20_"
   transform="translate(-13.922,-70.615997)">
	<path
   style="fill:#ffffff"
   d="m 159.706,166.22 c -0.266,-0.105 -0.523,-0.221 -0.781,-0.344 -0.938,-0.449 -1.532,-1.393 -1.532,-2.427 v -15.546 c 0,-1.454 0.391,-2.883 1.125,-4.137 l 4.166,-7.098 c 0.289,-0.49 0.547,-0.996 0.774,-1.518 l 7.636,-17.759 c 0.86,-1.999 2.822,-3.292 5.002,-3.292 h 27.013 27.019 c 2.174,0 4.143,1.293 4.996,3.292 l 7.643,17.759 c 0.219,0.521 0.477,1.027 0.768,1.518 l 4.172,7.098 c 0.736,1.254 1.119,2.683 1.119,4.137 v 15.546 c 0,1.034 -0.594,1.978 -1.525,2.427 -0.258,0.123 -0.523,0.238 -0.789,0.344 v 11.354 c 0,1.502 -1.219,2.722 -2.719,2.722 h -4.707 c -1.5,0 -2.719,-1.22 -2.719,-2.722 V 167.061 H 203.11 169.852 v 10.513 c 0,1.502 -1.219,2.722 -2.72,2.722 h -4.705 c -1.501,0 -2.72,-1.22 -2.72,-2.722 V 166.22 Z"
   id="path1799"
   inkscape:connector-curvature="0" />
</g>
<g
   id="LWPOLYLINE_11_"
   transform="translate(-13.922,-70.615997)">
	<rect
   x="310.189"
   y="135.405"
   style="fill:#005eb8"
   width="16.961"
   height="15.938"
   id="rect1802" />
</g>
<g
   id="CIRCLE_8_"
   transform="translate(-13.922,-70.615997)">
	<path
   style="fill:#005eb8"
   d="m 243.197,150.303 c 0,-3.514 -2.844,-6.362 -6.361,-6.362 -3.51,0 -6.363,2.849 -6.363,6.362 0,3.516 2.854,6.364 6.363,6.364 3.517,0 6.361,-2.849 6.361,-6.364 z"
   id="path1805"
   inkscape:connector-curvature="0" />
</g>
<g
   id="LWPOLYLINE_19_"
   transform="translate(-13.922,-70.615997)">
	<path
   style="fill:#005eb8"
   d="m 203.109,119.542 h 25.23 c 1.086,0 2.063,0.647 2.494,1.647 l 7.354,17.098 H 203.109 168.03 l 7.354,-17.098 c 0.431,-1 1.415,-1.647 2.502,-1.647 z"
   id="path1808"
   inkscape:connector-curvature="0" />
</g>
<g
   id="CIRCLE_9_"
   transform="translate(-13.922,-70.615997)">
	<path
   style="fill:#005eb8"
   d="m 175.745,150.303 c 0,-3.514 -2.845,-6.362 -6.363,-6.362 -3.509,0 -6.362,2.849 -6.362,6.362 0,3.516 2.853,6.364 6.362,6.364 3.518,0 6.363,-2.849 6.363,-6.364 z"
   id="path1811"
   inkscape:connector-curvature="0" />
</g>
<g
   id="LWPOLYLINE_21_"
   transform="translate(-13.922,-70.615997)">
	<path
   style="fill:#005eb8"
   d="m 181.263,152.099 h 43.739 v 3.058 c 0,0.225 -0.18,0.408 -0.406,0.408 H 181.67 c -0.219,0 -0.406,-0.184 -0.406,-0.408 v -3.058 z"
   id="path1814"
   inkscape:connector-curvature="0" />
</g>
<g
   id="LWPOLYLINE_22_"
   transform="translate(-13.922,-70.615997)">
	<path
   style="fill:#005eb8"
   d="m 225.001,148.913 h -43.739 v -3.056 c 0,-0.227 0.188,-0.408 0.406,-0.408 h 42.926 c 0.227,0 0.406,0.182 0.406,0.408 v 3.056 z"
   id="path1817"
   inkscape:connector-curvature="0" />
</g>
</svg>