<?xml version="1.0" encoding="UTF-8" standalone="no"?>
<!-- Generator: Adobe Illustrator 16.0.0, SVG Export Plug-In . SVG Version: 6.00 Build 0)  -->

<svg
   xmlns:dc="http://purl.org/dc/elements/1.1/"
   xmlns:cc="http://creativecommons.org/ns#"
   xmlns:rdf="http://www.w3.org/1999/02/22-rdf-syntax-ns#"
   xmlns:svg="http://www.w3.org/2000/svg"
   xmlns="http://www.w3.org/2000/svg"
   xmlns:sodipodi="http://sodipodi.sourceforge.net/DTD/sodipodi-0.dtd"
   xmlns:inkscape="http://www.inkscape.org/namespaces/inkscape"
   version="1.1"
   id="Layer_1"
   x="0px"
   y="0px"
   width="397.34698"
   height="397.354"
   viewBox="0 0 397.34699 397.35399"
   xml:space="preserve"
   sodipodi:docname="E26_2.svg"
   inkscape:version="0.92.5 (2060ec1f9f, 2020-04-08)"><metadata
   id="metadata2062"><rdf:RDF><cc:Work
       rdf:about=""><dc:format>image/svg+xml</dc:format><dc:type
         rdf:resource="http://purl.org/dc/dcmitype/StillImage" /></cc:Work></rdf:RDF></metadata><defs
   id="defs2060" /><sodipodi:namedview
   pagecolor="#ffffff"
   bordercolor="#666666"
   borderopacity="1"
   objecttolerance="10"
   gridtolerance="10"
   guidetolerance="10"
   inkscape:pageopacity="0"
   inkscape:pageshadow="2"
   inkscape:window-width="640"
   inkscape:window-height="480"
   id="namedview2058"
   showgrid="false"
   inkscape:zoom="0.55503813"
   inkscape:cx="198.6735"
   inkscape:cy="198.67701"
   inkscape:window-x="0"
   inkscape:window-y="0"
   inkscape:window-maximized="0"
   inkscape:current-layer="Layer_1" />
<g
   id="LWPOLYLINE_74_"
   transform="translate(-13.925,-13.921)">
	
		<rect
   x="14.175"
   y="297.64001"
   style="fill:#005eb8;stroke:#005eb8;stroke-width:0.5;stroke-miterlimit:10"
   width="396.84698"
   height="113.385"
   id="rect1937" />
</g>
<g
   id="LWPOLYLINE_77_"
   transform="translate(-13.925,-13.921)">
	<path
   style="fill:#ffffff"
   d="m 36.849,297.64 h 351.499 c 12.527,0 22.674,10.146 22.674,22.674 v 68.031 c 0,12.527 -10.146,22.68 -22.674,22.68 H 36.849 c -12.521,0 -22.674,-10.152 -22.674,-22.68 v -68.031 c 0,-12.528 10.154,-22.674 22.674,-22.674 z"
   id="path1940"
   inkscape:connector-curvature="0" />
</g>
<g
   id="LWPOLYLINE_76_"
   transform="translate(-13.925,-13.921)">
	<path
   style="fill:#005eb8"
   d="m 36.849,308.978 h 351.499 c 6.264,0 11.344,5.072 11.344,11.336 v 68.031 c 0,6.264 -5.08,11.336 -11.344,11.336 H 36.849 c -6.264,0 -11.337,-5.072 -11.337,-11.336 v -68.031 c 0,-6.264 5.073,-11.336 11.337,-11.336 z"
   id="path1943"
   inkscape:connector-curvature="0" />
</g>
<g
   id="LWPOLYLINE_65_"
   transform="translate(-13.925,-13.921)">
	<path
   style="fill:#ffffff"
   d="m 283.522,371.335 h -5.095 v -1.631 c -2.05,1.111 -4.359,1.674 -6.683,1.631 -2.093,0.057 -3.983,-1.264 -4.647,-3.248 -0.823,-2.611 -0.13,-5.463 1.818,-7.396 2.482,-2.662 5.874,-4.293 9.512,-4.568 v -2.641 c 0,-1.414 -1.147,-2.555 -2.555,-2.555 -1.415,0 -2.555,1.141 -2.555,2.555 h -5.103 c 0,-4.229 3.428,-7.656 7.657,-7.656 4.229,0 7.649,3.428 7.649,7.656 v 17.853 z"
   id="path1946"
   inkscape:connector-curvature="0" />
</g>
<g
   id="LWPOLYLINE_58_"
   transform="translate(-13.925,-13.921)">
	<path
   style="fill:#ffffff"
   d="m 194.067,371.335 h -5.109 v -1.631 c -2.05,1.111 -4.345,1.674 -6.676,1.631 -2.092,0.057 -3.976,-1.264 -4.64,-3.248 -0.83,-2.611 -0.13,-5.463 1.804,-7.396 2.482,-2.662 5.882,-4.293 9.512,-4.568 v -2.641 c 0,-1.414 -1.141,-2.555 -2.548,-2.555 -1.407,0 -2.547,1.141 -2.547,2.555 h -5.109 c 0,-4.229 3.428,-7.656 7.656,-7.656 4.222,0 7.657,3.428 7.657,7.656 z"
   id="path1949"
   inkscape:connector-curvature="0" />
</g>
<g
   id="LWPOLYLINE_62_"
   transform="translate(-13.925,-13.921)">
	<path
   style="fill:#ffffff"
   d="m 211.415,362.833 c 0,4.699 3.804,8.502 8.502,8.502 4.69,0 8.5,-3.803 8.5,-8.502 v -8.5 c 0,-4.697 -3.81,-8.508 -8.5,-8.508 -4.698,0 -8.502,3.811 -8.502,8.508 z"
   id="path1952"
   inkscape:connector-curvature="0" />
</g>
<g
   id="LWPOLYLINE_56_"
   transform="translate(-13.925,-13.921)">
	<path
   style="fill:#ffffff"
   d="m 155.286,362.833 c 0,4.699 3.81,8.502 8.501,8.502 4.698,0 8.501,-3.803 8.501,-8.502 v -8.5 c 0,-4.697 -3.803,-8.508 -8.501,-8.508 -4.691,0 -8.501,3.811 -8.501,8.508 z"
   id="path1955"
   inkscape:connector-curvature="0" />
</g>
<g
   id="LWPOLYLINE_52_"
   transform="translate(-13.925,-13.921)">
	<path
   style="fill:#ffffff"
   d="m 106.978,362.833 c 0,4.699 3.811,8.502 8.509,8.502 4.697,0 8.508,-3.803 8.508,-8.502 v -8.5 c 0,-4.697 -3.811,-8.508 -8.508,-8.508 -4.698,0 -8.509,3.811 -8.509,8.508 z"
   id="path1958"
   inkscape:connector-curvature="0" />
</g>
<g
   id="LWPOLYLINE_3_"
   transform="translate(-13.925,-13.921)">
	
		<rect
   x="14.175"
   y="14.171"
   style="fill:#005eb8;stroke:#005eb8;stroke-width:0.5;stroke-miterlimit:10"
   width="396.84698"
   height="283.46799"
   id="rect1961" />
</g>
<g
   id="LWPOLYLINE_1_"
   transform="translate(-13.925,-13.921)">
	<path
   style="fill:#ffffff"
   d="m 36.849,14.171 h 351.499 c 12.527,0 22.674,10.153 22.674,22.678 V 274.96 c 0,12.52 -10.146,22.68 -22.674,22.68 H 36.849 c -12.521,0 -22.674,-10.16 -22.674,-22.68 V 36.849 c 0,-12.524 10.154,-22.678 22.674,-22.678 z"
   id="path1964"
   inkscape:connector-curvature="0" />
</g>
<g
   id="LWPOLYLINE_2_"
   transform="translate(-13.925,-13.921)">
	<path
   style="fill:#005eb8"
   d="m 36.849,25.512 h 351.499 c 6.264,0 11.344,5.077 11.344,11.337 V 274.96 c 0,6.264 -5.08,11.336 -11.344,11.336 H 36.849 c -6.264,0 -11.337,-5.072 -11.337,-11.336 V 36.849 c 0,-6.261 5.073,-11.337 11.337,-11.337 z"
   id="path1967"
   inkscape:connector-curvature="0" />
</g>
<g
   id="CIRCLE"
   transform="translate(-13.925,-13.921)">
	<path
   style="fill:#ffffff"
   d="m 256.576,77.813 c 0,-10.1 -8.184,-18.286 -18.286,-18.286 -10.097,0 -18.287,8.187 -18.287,18.286 0,10.099 8.19,18.287 18.287,18.287 10.102,0 18.286,-8.187 18.286,-18.287 z"
   id="path1970"
   inkscape:connector-curvature="0" />
</g>
<g
   id="CIRCLE_1_"
   transform="translate(-13.925,-13.921)">
	<path
   style="fill:#ffffff"
   d="m 321.22,136.006 c 0,-8.097 -6.566,-14.664 -14.663,-14.664 -8.098,0 -14.664,6.567 -14.664,14.664 0,8.097 6.566,14.664 14.664,14.664 8.097,0 14.663,-6.567 14.663,-14.664 z"
   id="path1973"
   inkscape:connector-curvature="0" />
</g>
<g
   id="LWPOLYLINE_5_"
   transform="translate(-13.925,-13.921)">
	<path
   style="fill:#ffffff"
   d="m 293.409,189.083 -6.727,13.849 c -0.043,0.043 -0.072,0.1 -0.115,0.15 -1.588,2.238 -4.697,2.758 -6.935,1.162 -2.237,-1.602 -2.757,-4.705 -1.162,-6.942 l 6.105,-11.611 5.015,-22.97 c 0.6,-0.895 1.264,-1.747 1.985,-2.555 8.515,-9.504 23.121,-10.305 32.632,-1.79 1.646,1.891 2.873,4.113 3.609,6.509 l 3.088,8.429 6.423,29.414 c 0,2.879 -2.338,5.225 -5.225,5.225 -2.887,0 -5.225,-2.346 -5.225,-5.225 l -2.439,-15.739 -2.728,-8.061 1.097,24.737 3.255,23.527 1.623,21.352 c 1.537,3.328 0.08,7.268 -3.247,8.797 -3.334,1.531 -7.267,0.072 -8.804,-3.246 l -2.786,-27.084 -4.575,-15.385 -3.717,14.988 -5.953,17.752 c -1.104,2.75 -4.005,4.33 -6.913,3.768 -3.363,-0.643 -5.563,-3.891 -4.922,-7.252 l 7.707,-34.855 1.169,-14.087 v -14.895 z"
   id="path1976"
   inkscape:connector-curvature="0" />
</g>
<g
   id="LWPOLYLINE_4_"
   transform="translate(-13.925,-13.921)">
	<path
   style="fill:#ffffff"
   d="m 238.939,98.077 c -11.705,0.52 -22.198,7.375 -27.38,17.89 l -6.134,29.393 -10.008,17.34 c -1.971,3.5 -0.729,7.931 2.764,9.901 3.507,1.97 7.938,0.729 9.9,-2.771 0.145,-0.252 0.274,-0.513 0.383,-0.772 l 9.923,-17.045 2.691,-20.033 -1.812,32.2 -6.134,48.892 -1.559,31.693 c -1.508,5.348 1.603,10.904 6.942,12.42 5.348,1.508 10.911,-1.602 12.42,-6.941 l 2.489,-35.49 5.34,-26.752 c 0.044,-0.26 0.245,-0.469 0.491,-0.527 0.354,-0.086 0.707,0.13 0.794,0.477 l 6.653,27.119 0.664,25.006 c 0.548,4.285 4.474,7.316 8.761,6.762 3.326,-0.426 6.011,-2.93 6.675,-6.213 l 0.909,-27.113 -1.241,-27.329 -0.534,-18.733 -2.475,-34.444 5.354,11.532 5.318,15.371 c 1.422,3.515 5.427,5.203 8.941,3.782 3.507,-1.429 5.195,-5.427 3.767,-8.934 -0.028,-0.086 -0.064,-0.166 -0.101,-0.246 l -4.979,-15.443 -6.091,-13.754 -4.358,-9.54 C 261.8,105.127 250.917,98.344 238.939,98.077 Z"
   id="path1979"
   inkscape:connector-curvature="0" />
</g>
<g
   id="LWPOLYLINE_9_"
   transform="translate(-13.925,-13.921)">
	<path
   style="fill:#ffffff"
   d="m 132.698,67.522 6.408,9.161 c 2.468,-1.454 5.152,-2.5 7.952,-3.092 14.231,-3.02 28.231,6.076 31.248,20.314 3.017,14.238 -6.076,28.23 -20.322,31.247 -14.23,3.024 -28.23,-6.076 -31.247,-20.314 h -9.208 c -2.121,0 -4.149,-0.887 -5.578,-2.46 L 80.934,69.309 79.166,75.107 c 11.358,4.82 17.86,16.875 15.631,29.017 -2.612,14.318 -16.353,23.8 -30.67,21.173 C 49.81,122.67 40.327,108.944 42.954,94.623 45.58,80.306 59.306,70.827 73.624,73.446 l 7.533,-24.694 c 1.126,-3.702 4.547,-6.235 8.415,-6.235 h 10.153 v 5.784 H 89.573 c -1.328,0 -2.497,0.87 -2.887,2.14 l -2.107,6.914 42.96,7.433 4.423,-11.972 -9.756,-2.681 c -0.592,-0.224 -0.968,-0.801 -0.924,-1.429 0.043,-0.797 0.722,-1.407 1.516,-1.36 h 0.765 21.101 v 5.701 h -6.617 z"
   id="path1982"
   inkscape:connector-curvature="0" />
</g>
<g
   id="LWPOLYLINE_6_"
   transform="translate(-13.925,-13.921)">
	<polygon
   style="fill:#005eb8"
   points="115.408,97.59 82.875,62.929 125.496,70.304 "
   id="polygon1985" />
</g>
<g
   id="LWPOLYLINE_7_"
   transform="translate(-13.925,-13.921)">
	<path
   style="fill:#005eb8"
   d="m 137.843,84.958 c -3.702,3.767 -5.81,8.818 -5.896,14.101 h 15.774 z"
   id="path1988"
   inkscape:connector-curvature="0" />
</g>
<g
   id="LWPOLYLINE_8_"
   transform="translate(-13.925,-13.921)">
	<path
   style="fill:#005eb8"
   d="m 126.167,99.058 c 0.087,-7.169 3.089,-13.993 8.321,-18.9 l -4.236,-6.037 -9.216,24.937 h 5.167 z"
   id="path1991"
   inkscape:connector-curvature="0" />
</g>
<g
   id="LWPOLYLINE_10_"
   transform="translate(-13.925,-13.921)">
	<path
   style="fill:#005eb8"
   d="m 154.679,98.903 c 0.44,0.635 0.679,1.39 0.679,2.162 0,2.085 -1.689,3.774 -3.768,3.774 h -18.907 c 3.024,10.955 14.354,17.385 25.301,14.368 10.955,-3.017 17.393,-14.346 14.376,-25.301 -3.023,-10.955 -14.347,-17.385 -25.302,-14.364 -1.616,0.444 -3.16,1.079 -4.618,1.898 z"
   id="path1994"
   inkscape:connector-curvature="0" />
</g>
<g
   id="LWPOLYLINE_11_"
   transform="translate(-13.925,-13.921)">
	<path
   style="fill:#005eb8"
   d="M 77.463,80.678 71.69,99.654 c -0.043,0.169 -0.087,0.335 -0.158,0.501 -0.6,1.479 -2.295,2.194 -3.782,1.595 -1.486,-0.599 -2.2,-2.295 -1.602,-3.782 l 5.773,-18.939 c -11.229,-1.685 -21.707,6.059 -23.389,17.294 -1.682,11.235 6.062,21.714 17.298,23.396 11.235,1.682 21.707,-6.062 23.396,-17.297 1.357,-9.057 -3.435,-17.92 -11.763,-21.744 z"
   id="path1997"
   inkscape:connector-curvature="0" />
</g>
<g
   id="LWPOLYLINE_53_"
   transform="translate(-13.925,-13.921)">
	<path
   style="fill:#005eb8"
   d="m 112.087,362.833 c 0,1.877 1.516,3.406 3.399,3.406 1.876,0 3.398,-1.529 3.398,-3.406 v -8.5 c 0,-1.877 -1.522,-3.406 -3.398,-3.406 -1.884,0 -3.399,1.529 -3.399,3.406 z"
   id="path2000"
   inkscape:connector-curvature="0" />
</g>
<g
   id="LWPOLYLINE_57_"
   transform="translate(-13.925,-13.921)">
	<path
   style="fill:#005eb8"
   d="m 160.387,362.833 c 0,1.877 1.523,3.406 3.399,3.406 1.876,0 3.406,-1.529 3.406,-3.406 v -8.5 c 0,-1.877 -1.53,-3.406 -3.406,-3.406 -1.876,0 -3.399,1.529 -3.399,3.406 z"
   id="path2003"
   inkscape:connector-curvature="0" />
</g>
<g
   id="LWPOLYLINE_59_"
   transform="translate(-13.925,-13.921)">
	<path
   style="fill:#005eb8"
   d="m 188.958,359.448 c -1.703,0.412 -3.276,1.221 -4.604,2.361 -1.197,1.045 -1.869,2.561 -1.847,4.148 0.014,1.033 0.873,1.855 1.904,1.826 0.087,0 0.174,-0.008 0.26,-0.021 1.502,-0.238 2.945,-0.736 4.287,-1.457 z"
   id="path2006"
   inkscape:connector-curvature="0" />
</g>
<g
   id="LWPOLYLINE_63_"
   transform="translate(-13.925,-13.921)">
	<path
   style="fill:#005eb8"
   d="m 216.51,362.833 c 0,1.877 1.529,3.406 3.406,3.406 1.876,0 3.398,-1.529 3.398,-3.406 v -8.5 c 0,-1.877 -1.522,-3.406 -3.398,-3.406 -1.877,0 -3.406,1.529 -3.406,3.406 z"
   id="path2009"
   inkscape:connector-curvature="0" />
</g>
<g
   id="LWPOLYLINE_66_"
   transform="translate(-13.925,-13.921)">
	<path
   style="fill:#005eb8"
   d="m 278.427,359.448 c -1.703,0.412 -3.291,1.221 -4.619,2.361 -1.184,1.045 -1.861,2.561 -1.847,4.148 0.028,1.033 0.88,1.855 1.912,1.826 0.086,0 0.166,-0.008 0.252,-0.021 1.502,-0.238 2.959,-0.736 4.302,-1.457 z"
   id="path2012"
   inkscape:connector-curvature="0" />
</g>
<g
   id="LWPOLYLINE_50_"
   transform="translate(-13.925,-13.921)">
	<polygon
   style="fill:#ffffff"
   points="60.721,356.036 60.721,371.335 55.619,371.335 55.619,337.323 60.721,337.323 60.721,350.927 72.628,350.927 72.628,337.323 77.723,337.323 77.723,371.335 72.628,371.335 72.628,356.036 "
   id="polygon2015" />
</g>
<g
   id="LWPOLYLINE_51_"
   transform="translate(-13.925,-13.921)">
	<path
   style="fill:#ffffff"
   d="m 83.85,365.042 v -19.217 h 5.102 v 18.033 c 0,1.877 1.522,3.398 3.406,3.398 1.876,0 3.399,-1.521 3.399,-3.398 v -18.033 h 5.102 v 25.51 H 95.757 V 369.3 c -1.754,1.09 -3.731,1.789 -5.781,2.035 -3.384,0 -6.126,-2.742 -6.126,-6.119 z"
   id="path2018"
   inkscape:connector-curvature="0" />
</g>
<g
   id="LWPOLYLINE_54_"
   transform="translate(-13.925,-13.921)">
	<rect
   x="130.11501"
   y="337.323"
   style="fill:#ffffff"
   width="5.1020002"
   height="34.012001"
   id="rect2021" />
</g>
<g
   id="LWPOLYLINE_55_"
   transform="translate(-13.925,-13.921)">
	<path
   style="fill:#ffffff"
   d="m 147.968,345.825 h 2.894 v 5.102 h -2.894 v 12.42 c 0,1.594 1.299,2.893 2.894,2.893 v 5.096 c -4.409,0 -7.988,-3.58 -7.988,-7.988 v -12.42 h -2.901 v -5.102 h 2.901 v -8.502 h 5.095 v 8.501 z"
   id="path2024"
   inkscape:connector-curvature="0" />
</g>
<g
   id="LWPOLYLINE_60_"
   transform="translate(-13.925,-13.921)">
	<path
   style="fill:#ffffff"
   d="m 205.289,345.825 v 24.832 c 0,4.135 -3.356,7.482 -7.483,7.482 h -0.679 l 0.679,-5.102 c 1.313,0 2.381,-1.068 2.381,-2.381 v -24.832 h 5.102 z"
   id="path2027"
   inkscape:connector-curvature="0" />
</g>
<g
   id="LWPOLYLINE_61_"
   transform="translate(-13.925,-13.921)">
	<rect
   x="200.186"
   y="337.323"
   style="fill:#ffffff"
   width="5.1030002"
   height="5.1020002"
   id="rect2030" />
</g>
<g
   id="LWPOLYLINE_64_"
   transform="translate(-13.925,-13.921)">
	<path
   style="fill:#ffffff"
   d="m 245.426,362.833 c 0,4.699 3.803,8.502 8.508,8.502 h 0.679 c 4.128,0 7.476,-3.35 7.476,-7.477 0,-2.67 -1.414,-5.123 -3.709,-6.467 l -5.643,-3.289 c -0.527,-0.305 -0.852,-0.867 -0.852,-1.473 0,-0.938 0.765,-1.703 1.703,-1.703 h 1.024 c 0.938,0 1.703,0.766 1.703,1.703 h 5.095 c 0,-3.76 -3.045,-6.805 -6.798,-6.805 h -1.024 c -3.753,0 -6.799,3.045 -6.799,6.805 0,2.424 1.285,4.662 3.378,5.873 l 5.644,3.291 c 0.735,0.434 1.184,1.213 1.184,2.064 0,1.313 -1.068,2.381 -2.382,2.381 h -0.679 c -1.883,0 -3.406,-1.529 -3.406,-3.406 h -5.102 z"
   id="path2033"
   inkscape:connector-curvature="0" />
</g>
<g
   id="LWPOLYLINE_67_"
   transform="translate(-13.925,-13.921)">
	<rect
   x="289.64099"
   y="337.323"
   style="fill:#ffffff"
   width="5.1090002"
   height="34.012001"
   id="rect2036" />
</g>
<g
   id="LWPOLYLINE_68_"
   transform="translate(-13.925,-13.921)">
	<rect
   x="301.548"
   y="337.323"
   style="fill:#ffffff"
   width="5.1090002"
   height="34.012001"
   id="rect2039" />
</g>
<g
   id="LWPOLYLINE_69_"
   transform="translate(-13.925,-13.921)">
	<rect
   x="313.45599"
   y="345.82501"
   style="fill:#ffffff"
   width="5.1090002"
   height="25.51"
   id="rect2042" />
</g>
<g
   id="LWPOLYLINE_70_"
   transform="translate(-13.925,-13.921)">
	<rect
   x="313.45599"
   y="337.323"
   style="fill:#ffffff"
   width="5.1090002"
   height="5.1020002"
   id="rect2045" />
</g>
<g
   id="LWPOLYLINE_71_"
   transform="translate(-13.925,-13.921)">
	<path
   style="fill:#ffffff"
   d="m 331.317,345.825 h 2.894 v 5.102 h -2.894 v 12.42 c 0,1.594 1.291,2.893 2.894,2.893 v 5.096 c -4.417,0 -7.996,-3.58 -7.996,-7.988 v -12.42 h -2.887 v -5.102 h 2.887 v -8.502 h 5.103 v 8.501 z"
   id="path2048"
   inkscape:connector-curvature="0" />
</g>
<g
   id="LWPOLYLINE_72_"
   transform="translate(-13.925,-13.921)">
	<path
   style="fill:#ffffff"
   d="m 345.266,345.825 h 2.887 v 5.102 h -2.887 v 12.42 c 0,1.594 1.291,2.893 2.887,2.893 v 5.096 c -4.417,0 -7.996,-3.58 -7.996,-7.988 v -12.42 h -2.887 v -5.102 h 2.887 v -8.502 h 5.109 z"
   id="path2051"
   inkscape:connector-curvature="0" />
</g>
<g
   id="LWPOLYLINE_73_"
   transform="translate(-13.925,-13.921)">
	<path
   style="fill:#ffffff"
   d="m 352.576,365.042 v -19.217 h 5.103 v 18.033 c 0,1.877 1.522,3.398 3.406,3.398 1.876,0 3.398,-1.521 3.398,-3.398 v -18.033 h 5.103 v 25.51 h -5.103 V 369.3 c -1.754,1.09 -3.73,1.789 -5.78,2.035 -3.385,0 -6.127,-2.742 -6.127,-6.119 z"
   id="path2054"
   inkscape:connector-curvature="0" />
</g>
</svg>