<?xml version="1.0" encoding="UTF-8" standalone="no"?>
<!-- Generator: Adobe Illustrator 16.0.0, SVG Export Plug-In . SVG Version: 6.00 Build 0)  -->

<svg
   xmlns:dc="http://purl.org/dc/elements/1.1/"
   xmlns:cc="http://creativecommons.org/ns#"
   xmlns:rdf="http://www.w3.org/1999/02/22-rdf-syntax-ns#"
   xmlns:svg="http://www.w3.org/2000/svg"
   xmlns="http://www.w3.org/2000/svg"
   xmlns:sodipodi="http://sodipodi.sourceforge.net/DTD/sodipodi-0.dtd"
   xmlns:inkscape="http://www.inkscape.org/namespaces/inkscape"
   version="1.1"
   id="Layer_1"
   x="0px"
   y="0px"
   width="327.31799"
   height="397.35001"
   viewBox="0 0 327.318 397.34999"
   xml:space="preserve"
   sodipodi:docname="E26_3.svg"
   inkscape:version="0.92.5 (2060ec1f9f, 2020-04-08)"><metadata
   id="metadata2294"><rdf:RDF><cc:Work
       rdf:about=""><dc:format>image/svg+xml</dc:format><dc:type
         rdf:resource="http://purl.org/dc/dcmitype/StillImage" /></cc:Work></rdf:RDF></metadata><defs
   id="defs2292" /><sodipodi:namedview
   pagecolor="#ffffff"
   bordercolor="#666666"
   borderopacity="1"
   objecttolerance="10"
   gridtolerance="10"
   guidetolerance="10"
   inkscape:pageopacity="0"
   inkscape:pageshadow="2"
   inkscape:window-width="640"
   inkscape:window-height="480"
   id="namedview2290"
   showgrid="false"
   inkscape:zoom="0.55503813"
   inkscape:cx="163.6595"
   inkscape:cy="198.675"
   inkscape:window-x="0"
   inkscape:window-y="0"
   inkscape:window-maximized="0"
   inkscape:current-layer="Layer_1" />
<g
   id="LWPOLYLINE"
   transform="translate(-48.938999,-13.923)">
	
		<rect
   x="49.188999"
   y="14.173"
   style="fill:#005eb8;stroke:#005eb8;stroke-width:0.5;stroke-miterlimit:10"
   width="326.81799"
   height="233.442"
   id="rect2064" />
</g>
<g
   id="LWPOLYLINE_1_"
   transform="translate(-48.938999,-13.923)">
	<path
   style="fill:#ffffff"
   d="m 67.866,14.173 h 289.467 c 10.315,0 18.674,8.361 18.674,18.676 v 196.09 c 0,10.316 -8.358,18.677 -18.674,18.677 H 67.866 c -10.316,0 -18.677,-8.36 -18.677,-18.677 V 32.849 c 0,-10.315 8.361,-18.676 18.677,-18.676 z"
   id="path2067"
   inkscape:connector-curvature="0" />
</g>
<g
   id="LWPOLYLINE_2_"
   transform="translate(-48.938999,-13.923)">
	<path
   style="fill:#005eb8"
   d="m 67.866,23.51 h 289.467 c 5.158,0 9.34,4.181 9.34,9.339 v 196.09 c 0,5.158 -4.182,9.34 -9.34,9.34 H 67.866 c -5.158,0 -9.337,-4.182 -9.337,-9.34 V 32.849 c 0,-5.159 4.179,-9.339 9.337,-9.339 z"
   id="path2070"
   inkscape:connector-curvature="0" />
</g>
<g
   id="LWPOLYLINE_9_"
   transform="translate(-48.938999,-13.923)">
	<path
   style="fill:#ffffff"
   d="m 146.791,58.11 5.289,7.543 c 2.028,-1.198 4.236,-2.059 6.542,-2.548 11.722,-2.486 23.249,5.004 25.735,16.73 2.486,11.726 -5.006,23.248 -16.733,25.735 -11.728,2.486 -23.248,-5.004 -25.734,-16.729 h -7.59 c -1.745,0 -3.413,-0.736 -4.591,-2.028 l -25.538,-27.234 -1.456,4.776 c 9.356,3.968 14.705,13.896 12.873,23.895 -2.159,11.79 -13.467,19.598 -25.26,17.438 C 78.54,103.529 70.733,92.219 72.892,80.427 75.051,68.637 86.359,60.829 98.152,62.989 l 6.199,-20.337 c 0.927,-3.051 3.74,-5.135 6.93,-5.135 h 8.364 v 4.763 h -8.364 c -1.091,0 -2.056,0.714 -2.377,1.761 l -1.734,5.695 35.38,6.12 3.647,-9.859 -8.042,-2.206 c -0.485,-0.185 -0.791,-0.661 -0.764,-1.178 0.038,-0.657 0.6,-1.159 1.254,-1.122 h 0.627 17.381 v 4.697 h -5.452 z"
   id="path2073"
   inkscape:connector-curvature="0" />
</g>
<g
   id="LWPOLYLINE_141_"
   transform="translate(-48.938999,-13.923)">
	
		<rect
   x="49.188999"
   y="247.61501"
   style="fill:#005eb8;stroke:#005eb8;stroke-width:0.5;stroke-miterlimit:10"
   width="326.81799"
   height="163.408"
   id="rect2076" />
</g>
<g
   id="LWPOLYLINE_143_"
   transform="translate(-48.938999,-13.923)">
	<path
   style="fill:#ffffff"
   d="m 67.866,247.615 h 289.467 c 10.315,0 18.674,8.361 18.674,18.677 v 126.056 c 0,10.315 -8.358,18.676 -18.674,18.676 H 67.866 c -10.316,0 -18.677,-8.36 -18.677,-18.676 V 266.292 c 0,-10.315 8.361,-18.677 18.677,-18.677 z"
   id="path2079"
   inkscape:connector-curvature="0" />
</g>
<g
   id="LWPOLYLINE_142_"
   transform="translate(-48.938999,-13.923)">
	<path
   style="fill:#005eb8"
   d="m 67.866,256.952 h 289.467 c 5.158,0 9.34,4.182 9.34,9.34 v 126.056 c 0,5.157 -4.182,9.339 -9.34,9.339 H 67.866 c -5.158,0 -9.337,-4.182 -9.337,-9.339 V 266.292 c 0,-5.158 4.179,-9.34 9.337,-9.34 z"
   id="path2082"
   inkscape:connector-curvature="0" />
</g>
<g
   id="LWPOLYLINE_91_"
   transform="translate(-48.938999,-13.923)">
	<path
   style="fill:#ffffff"
   d="m 197.333,301.307 h -4.203 v -1.345 c -1.685,0.911 -3.577,1.371 -5.496,1.345 -1.729,0.043 -3.276,-1.042 -3.827,-2.678 -0.682,-2.15 -0.104,-4.498 1.494,-6.09 2.044,-2.197 4.841,-3.538 7.829,-3.762 v -2.176 c 0,-1.161 -0.938,-2.104 -2.1,-2.104 -1.161,0 -2.099,0.943 -2.099,2.104 h -4.204 c 0,-3.484 2.819,-6.306 6.303,-6.306 3.479,0 6.303,2.821 6.303,6.306 z"
   id="path2085"
   inkscape:connector-curvature="0" />
</g>
<g
   id="LWPOLYLINE_85_"
   transform="translate(-48.938999,-13.923)">
	<path
   style="fill:#ffffff"
   d="m 125.62,294.303 c 0,3.868 3.135,7.004 7,7.004 3.871,0 7.006,-3.136 7.006,-7.004 V 287.3 c 0,-3.866 -3.135,-7.004 -7.006,-7.004 -3.866,0 -7,3.138 -7,7.004 z"
   id="path2088"
   inkscape:connector-curvature="0" />
</g>
<g
   id="LWPOLYLINE_89_"
   transform="translate(-48.938999,-13.923)">
	<path
   style="fill:#ffffff"
   d="m 165.399,294.303 c 0,3.868 3.136,7.004 7.001,7.004 3.871,0 7.006,-3.136 7.006,-7.004 V 287.3 c 0,-3.866 -3.135,-7.004 -7.006,-7.004 -3.865,0 -7.001,3.138 -7.001,7.004 z"
   id="path2091"
   inkscape:connector-curvature="0" />
</g>
<g
   id="LWPOLYLINE_95_"
   transform="translate(-48.938999,-13.923)">
	<path
   style="fill:#ffffff"
   d="m 211.618,294.303 c 0,3.868 3.135,7.004 7.006,7.004 3.866,0 7.001,-3.136 7.001,-7.004 V 287.3 c 0,-3.866 -3.135,-7.004 -7.001,-7.004 -3.871,0 -7.006,3.138 -7.006,7.004 z"
   id="path2094"
   inkscape:connector-curvature="0" />
</g>
<g
   id="LWPOLYLINE_98_"
   transform="translate(-48.938999,-13.923)">
	<path
   style="fill:#ffffff"
   d="m 271.008,301.307 h -4.203 v -1.345 c -1.69,0.911 -3.582,1.371 -5.496,1.345 -1.729,0.043 -3.276,-1.042 -3.827,-2.678 -0.682,-2.15 -0.104,-4.498 1.494,-6.09 2.039,-2.197 4.836,-3.538 7.829,-3.762 v -2.176 c 0,-1.161 -0.943,-2.104 -2.1,-2.104 -1.161,0 -2.104,0.943 -2.104,2.104 h -4.198 c 0,-3.484 2.819,-6.306 6.303,-6.306 3.479,0 6.303,2.821 6.303,6.306 v 14.706 z"
   id="path2097"
   inkscape:connector-curvature="0" />
</g>
<g
   id="LWPOLYLINE_108_"
   transform="translate(-48.938999,-13.923)">
	<path
   style="fill:#ffffff"
   d="m 131.694,339.123 h 4.204 c 0,3.868 -3.135,7.006 -7.006,7.006 -3.865,0 -7,-3.138 -7,-7.006 v -7.001 c 0,-3.868 3.135,-7.006 7,-7.006 3.871,0 7.006,3.138 7.006,7.006 v 3.92 h -9.809 v 3.081 c 0,1.548 1.259,2.802 2.802,2.802 1.549,0 2.803,-1.254 2.803,-2.802 z"
   id="path2100"
   inkscape:connector-curvature="0" />
</g>
<g
   id="LWPOLYLINE_115_"
   transform="translate(-48.938999,-13.923)">
	<path
   style="fill:#ffffff"
   d="m 207.327,339.123 h 4.204 c 0,3.868 -3.135,7.006 -7.001,7.006 -3.871,0 -7.006,-3.138 -7.006,-7.006 v -7.001 c 0,-3.868 3.135,-7.006 7.006,-7.006 3.866,0 7.001,3.138 7.001,7.006 v 3.92 h -9.804 v 3.081 c 0,1.548 1.255,2.802 2.803,2.802 1.543,0 2.797,-1.254 2.797,-2.802 z"
   id="path2103"
   inkscape:connector-curvature="0" />
</g>
<g
   id="LWPOLYLINE_118_"
   transform="translate(-48.938999,-13.923)">
	<path
   style="fill:#ffffff"
   d="m 233.661,339.123 c 0,3.868 3.136,7.006 7.007,7.006 3.865,0 7,-3.138 7,-7.006 v -7.001 c 0,-3.868 -3.135,-7.006 -7,-7.006 -3.871,0 -7.007,3.138 -7.007,7.006 z"
   id="path2106"
   inkscape:connector-curvature="0" />
</g>
<g
   id="LWPOLYLINE_127_"
   transform="translate(-48.938999,-13.923)">
	<path
   style="fill:#ffffff"
   d="m 321.622,345.006 c -1.444,0.899 -3.069,1.472 -4.76,1.682 -2.786,0 -5.043,-2.257 -5.043,-5.04 v -0.143 l 0.011,-11.52 c 0.469,-2.433 2.557,-4.218 5.032,-4.308 1.685,0.213 3.304,0.776 4.76,1.657 v -1.657 h 4.204 v 19.328 c 0,0.984 -0.219,1.957 -0.633,2.846 -1.57,3.364 -5.572,4.82 -8.937,3.247 l 1.777,-3.809 c 1.26,0.589 2.765,0.044 3.354,-1.216 0.153,-0.334 0.235,-0.697 0.235,-1.067 z"
   id="path2109"
   inkscape:connector-curvature="0" />
</g>
<g
   id="LWPOLYLINE_134_"
   transform="translate(-48.938999,-13.923)">
	<path
   style="fill:#ffffff"
   d="m 216.056,385.347 h -4.204 V 384 c -1.685,0.91 -3.582,1.374 -5.496,1.344 -1.728,0.047 -3.276,-1.041 -3.827,-2.677 -0.682,-2.148 -0.104,-4.498 1.494,-6.09 2.039,-2.195 4.836,-3.539 7.829,-3.763 v -2.175 c 0,-1.162 -0.938,-2.103 -2.099,-2.103 -1.162,0 -2.104,0.94 -2.104,2.103 h -4.198 c 0,-3.481 2.818,-6.303 6.303,-6.303 3.479,0 6.303,2.821 6.303,6.303 v 14.708 z"
   id="path2112"
   inkscape:connector-curvature="0" />
</g>
<g
   id="CIRCLE_6_"
   transform="translate(-48.938999,-13.923)">
	<path
   style="fill:#ffffff"
   d="m 212.555,360.414 c 0,-1.549 -1.254,-2.803 -2.802,-2.803 -1.549,0 -2.803,1.254 -2.803,2.803 0,1.548 1.254,2.802 2.803,2.802 1.548,0 2.802,-1.254 2.802,-2.802 z"
   id="path2115"
   inkscape:connector-curvature="0" />
</g>
<g
   id="LWPOLYLINE_137_"
   transform="translate(-48.938999,-13.923)">
	<path
   style="fill:#ffffff"
   d="m 241.545,378.341 h 4.203 c 0,3.871 -3.135,7.006 -7.001,7.006 -3.871,0 -7.006,-3.135 -7.006,-7.006 v -7.001 c 0,-3.868 3.135,-7.003 7.006,-7.003 3.866,0 7.001,3.135 7.001,7.003 v 3.92 h -9.803 v 3.081 c 0,1.548 1.254,2.802 2.802,2.802 1.544,0 2.798,-1.254 2.798,-2.802 z"
   id="path2118"
   inkscape:connector-curvature="0" />
</g>
<g
   id="CIRCLE"
   transform="translate(-48.938999,-13.923)">
	<path
   style="fill:#ffffff"
   d="m 248.818,66.583 c 0,-8.317 -6.744,-15.06 -15.059,-15.06 -8.32,0 -15.064,6.742 -15.064,15.06 0,8.318 6.744,15.06 15.064,15.06 8.315,0 15.059,-6.743 15.059,-15.06 z"
   id="path2121"
   inkscape:connector-curvature="0" />
</g>
<g
   id="LWPOLYLINE_4_"
   transform="translate(-48.938999,-13.923)">
	<path
   style="fill:#ffffff"
   d="m 234.293,83.27 c -9.645,0.431 -18.287,6.077 -22.556,14.735 l -5.049,24.204 -8.238,14.279 c -1.625,2.882 -0.605,6.531 2.279,8.153 2.879,1.622 6.531,0.603 8.15,-2.278 0.115,-0.207 0.224,-0.42 0.312,-0.64 l 8.178,-14.039 2.208,-16.494 -1.493,26.517 -5.044,40.265 -1.281,26.103 c -1.248,4.402 1.314,8.979 5.714,10.226 4.4,1.243 8.98,-1.314 10.224,-5.717 l 2.05,-29.227 4.405,-22.032 c 0.032,-0.212 0.19,-0.382 0.403,-0.433 0.289,-0.07 0.583,0.106 0.654,0.396 l 5.474,22.33 0.546,20.593 c 0.458,3.533 3.686,6.025 7.219,5.572 2.736,-0.354 4.95,-2.415 5.495,-5.122 l 0.747,-22.324 -1.02,-22.51 -0.441,-15.427 -2.033,-28.365 4.405,9.495 4.378,12.664 c 1.178,2.89 4.471,4.281 7.36,3.107 2.889,-1.174 4.28,-4.469 3.107,-7.359 -0.027,-0.066 -0.054,-0.132 -0.081,-0.197 l -4.101,-12.723 -5.016,-11.323 -3.588,-7.859 C 253.12,89.077 244.157,83.49 234.293,83.27 Z"
   id="path2124"
   inkscape:connector-curvature="0" />
</g>
<g
   id="CIRCLE_1_"
   transform="translate(-48.938999,-13.923)">
	<path
   style="fill:#ffffff"
   d="m 302.048,114.505 c 0,-6.668 -5.403,-12.074 -12.071,-12.074 -6.668,0 -12.077,5.406 -12.077,12.074 0,6.67 5.409,12.075 12.077,12.075 6.668,0 12.071,-5.405 12.071,-12.075 z"
   id="path2127"
   inkscape:connector-curvature="0" />
</g>
<g
   id="LWPOLYLINE_5_"
   transform="translate(-48.938999,-13.923)">
	<path
   style="fill:#ffffff"
   d="m 279.143,158.217 -5.539,11.401 c -0.027,0.044 -0.055,0.086 -0.087,0.129 -1.314,1.843 -3.871,2.271 -5.714,0.957 -1.843,-1.317 -2.274,-3.876 -0.96,-5.719 l 5.032,-9.561 4.128,-18.915 c 0.496,-0.738 1.041,-1.44 1.635,-2.103 7.012,-7.828 19.045,-8.489 26.874,-1.477 1.353,1.56 2.366,3.386 2.967,5.361 l 2.546,6.937 5.288,24.224 c 0,2.375 -1.924,4.302 -4.302,4.302 -2.377,0 -4.302,-1.927 -4.302,-4.302 l -2.012,-12.957 -2.246,-6.643 0.905,20.377 2.683,19.371 1.341,17.584 c 1.26,2.742 0.061,5.986 -2.677,7.249 -2.743,1.262 -5.986,0.063 -7.252,-2.68 l -2.295,-22.3 -3.773,-12.671 -3.053,12.346 -4.901,14.615 c -0.911,2.269 -3.305,3.568 -5.698,3.108 -2.77,-0.535 -4.579,-3.209 -4.051,-5.977 l 6.341,-28.703 0.971,-11.603 v -12.265 z"
   id="path2130"
   inkscape:connector-curvature="0" />
</g>
<g
   id="LWPOLYLINE_6_"
   transform="translate(-48.938999,-13.923)">
	<path
   style="fill:#005eb8"
   d="m 105.774,54.326 35.096,6.072 -8.309,22.47 c 0,0 -26.792,-28.542 -26.787,-28.542 z"
   id="path2133"
   inkscape:connector-curvature="0" />
</g>
<g
   id="LWPOLYLINE_7_"
   transform="translate(-48.938999,-13.923)">
	<path
   style="fill:#005eb8"
   d="m 151.038,72.467 c -3.053,3.104 -4.787,7.261 -4.858,11.61 h 12.993 z"
   id="path2136"
   inkscape:connector-curvature="0" />
</g>
<g
   id="LWPOLYLINE_8_"
   transform="translate(-48.938999,-13.923)">
	<path
   style="fill:#005eb8"
   d="m 141.42,84.077 c 0.071,-5.903 2.541,-11.521 6.848,-15.563 l -3.484,-4.971 -7.595,20.534 h 4.264 z"
   id="path2139"
   inkscape:connector-curvature="0" />
</g>
<g
   id="LWPOLYLINE_10_"
   transform="translate(-48.938999,-13.923)">
	<path
   style="fill:#005eb8"
   d="m 164.898,83.952 c 0.365,0.521 0.562,1.145 0.562,1.783 0,1.714 -1.391,3.106 -3.108,3.106 h -15.56 c 2.486,9.019 11.815,14.315 20.833,11.829 9.023,-2.486 14.317,-11.814 11.832,-20.835 -2.486,-9.021 -11.815,-14.316 -20.833,-11.83 -1.325,0.365 -2.601,0.89 -3.8,1.563 z"
   id="path2142"
   inkscape:connector-curvature="0" />
</g>
<g
   id="LWPOLYLINE_11_"
   transform="translate(-48.938999,-13.923)">
	<path
   style="fill:#005eb8"
   d="m 101.314,68.943 -4.76,15.628 c -0.033,0.139 -0.071,0.275 -0.125,0.407 -0.496,1.224 -1.892,1.814 -3.113,1.318 -1.227,-0.498 -1.815,-1.891 -1.319,-3.115 l 4.754,-15.599 c -9.252,-1.386 -17.878,4.991 -19.268,14.245 -1.385,9.253 4.994,17.88 14.247,19.266 9.252,1.387 17.878,-4.991 19.268,-14.245 1.111,-7.456 -2.831,-14.756 -9.684,-17.905 z"
   id="path2145"
   inkscape:connector-curvature="0" />
</g>
<g
   id="LWPOLYLINE_86_"
   transform="translate(-48.938999,-13.923)">
	<path
   style="fill:#005eb8"
   d="m 129.824,294.303 c 0,1.546 1.254,2.803 2.797,2.803 1.548,0 2.802,-1.257 2.802,-2.803 V 287.3 c 0,-1.549 -1.254,-2.803 -2.802,-2.803 -1.543,0 -2.797,1.254 -2.797,2.803 z"
   id="path2148"
   inkscape:connector-curvature="0" />
</g>
<g
   id="LWPOLYLINE_90_"
   transform="translate(-48.938999,-13.923)">
	<path
   style="fill:#005eb8"
   d="m 169.597,294.303 c 0,1.546 1.254,2.803 2.803,2.803 1.549,0 2.803,-1.257 2.803,-2.803 V 287.3 c 0,-1.549 -1.254,-2.803 -2.803,-2.803 -1.549,0 -2.803,1.254 -2.803,2.803 z"
   id="path2151"
   inkscape:connector-curvature="0" />
</g>
<g
   id="LWPOLYLINE_92_"
   transform="translate(-48.938999,-13.923)">
	<path
   style="fill:#005eb8"
   d="m 193.129,291.514 c -1.401,0.339 -2.699,1.004 -3.795,1.944 -0.981,0.864 -1.537,2.109 -1.521,3.416 0.017,0.85 0.72,1.526 1.57,1.507 0.071,-0.003 0.142,-0.008 0.213,-0.019 1.237,-0.202 2.432,-0.605 3.533,-1.202 z"
   id="path2154"
   inkscape:connector-curvature="0" />
</g>
<g
   id="LWPOLYLINE_96_"
   transform="translate(-48.938999,-13.923)">
	<path
   style="fill:#005eb8"
   d="m 215.822,294.303 c 0,1.546 1.254,2.803 2.802,2.803 1.549,0 2.803,-1.257 2.803,-2.803 V 287.3 c 0,-1.549 -1.254,-2.803 -2.803,-2.803 -1.548,0 -2.802,1.254 -2.802,2.803 z"
   id="path2157"
   inkscape:connector-curvature="0" />
</g>
<g
   id="LWPOLYLINE_99_"
   transform="translate(-48.938999,-13.923)">
	<path
   style="fill:#005eb8"
   d="m 266.805,291.514 c -1.401,0.339 -2.704,1.004 -3.795,1.944 -0.981,0.864 -1.537,2.109 -1.526,3.416 0.021,0.85 0.725,1.526 1.575,1.507 0.071,-0.003 0.142,-0.008 0.213,-0.019 1.232,-0.202 2.432,-0.605 3.533,-1.202 z"
   id="path2160"
   inkscape:connector-curvature="0" />
</g>
<g
   id="LWPOLYLINE_109_"
   transform="translate(-48.938999,-13.923)">
	<path
   style="fill:#005eb8"
   d="m 126.089,332.4 h 5.605 v -0.278 c 0,-1.549 -1.254,-2.803 -2.803,-2.803 -1.543,0 -2.802,1.254 -2.802,2.803 z"
   id="path2163"
   inkscape:connector-curvature="0" />
</g>
<g
   id="LWPOLYLINE_116_"
   transform="translate(-48.938999,-13.923)">
	<path
   style="fill:#005eb8"
   d="m 201.727,332.4 h 5.6 v -0.278 c 0,-1.549 -1.254,-2.803 -2.797,-2.803 -1.548,0 -2.803,1.254 -2.803,2.803 z"
   id="path2166"
   inkscape:connector-curvature="0" />
</g>
<g
   id="LWPOLYLINE_120_"
   transform="translate(-48.938999,-13.923)">
	<path
   style="fill:#005eb8"
   d="m 237.865,339.123 c 0,1.548 1.254,2.802 2.803,2.802 1.543,0 2.797,-1.254 2.797,-2.802 v -7.001 c 0,-1.549 -1.254,-2.803 -2.797,-2.803 -1.549,0 -2.803,1.254 -2.803,2.803 z"
   id="path2169"
   inkscape:connector-curvature="0" />
</g>
<g
   id="LWPOLYLINE_128_"
   transform="translate(-48.938999,-13.923)">
	<path
   style="fill:#005eb8"
   d="m 316.022,340.524 c 0,1.548 1.254,2.802 2.797,2.802 1.549,0 2.803,-1.254 2.803,-2.802 v -8.684 c 0,-1.548 -1.254,-2.802 -2.803,-2.802 -1.543,0 -2.797,1.254 -2.797,2.802 z"
   id="path2172"
   inkscape:connector-curvature="0" />
</g>
<g
   id="LWPOLYLINE_135_"
   transform="translate(-48.938999,-13.923)">
	<path
   style="fill:#005eb8"
   d="m 211.852,375.555 c -1.401,0.338 -2.704,1.003 -3.795,1.94 -0.981,0.864 -1.537,2.11 -1.526,3.419 0.021,0.851 0.726,1.526 1.576,1.505 0.07,0 0.142,-0.006 0.212,-0.017 1.238,-0.201 2.432,-0.607 3.533,-1.202 z"
   id="path2175"
   inkscape:connector-curvature="0" />
</g>
<g
   id="CIRCLE_7_"
   transform="translate(-48.938999,-13.923)">
	<path
   style="fill:#005eb8"
   d="m 210.871,360.414 c 0,-0.619 -0.501,-1.121 -1.117,-1.121 -0.622,0 -1.123,0.502 -1.123,1.121 0,0.618 0.501,1.12 1.123,1.12 0.616,0 1.117,-0.502 1.117,-1.12 z"
   id="path2178"
   inkscape:connector-curvature="0" />
</g>
<g
   id="LWPOLYLINE_138_"
   transform="translate(-48.938999,-13.923)">
	<path
   style="fill:#005eb8"
   d="m 235.946,371.618 h 5.6 v -0.278 c 0,-1.549 -1.255,-2.803 -2.798,-2.803 -1.548,0 -2.802,1.254 -2.802,2.803 z"
   id="path2181"
   inkscape:connector-curvature="0" />
</g>
<g
   id="LWPOLYLINE_83_"
   transform="translate(-48.938999,-13.923)">
	<polygon
   style="fill:#ffffff"
   points="87.52,288.7 87.52,301.307 83.322,301.307 83.322,273.293 87.52,273.293 87.52,284.497 97.329,284.497 97.329,273.293 101.527,273.293 101.527,301.307 97.329,301.307 97.329,288.7 "
   id="polygon2184" />
</g>
<g
   id="LWPOLYLINE_84_"
   transform="translate(-48.938999,-13.923)">
	<path
   style="fill:#ffffff"
   d="m 106.57,296.124 v -15.828 h 4.204 v 14.85 c 0,1.545 1.254,2.8 2.803,2.8 1.543,0 2.797,-1.255 2.797,-2.8 v -14.85 h 4.204 v 21.011 h -4.204 v -1.68 c -1.445,0.896 -3.07,1.472 -4.76,1.68 -2.786,0 -5.043,-2.258 -5.043,-5.044 v -0.139 z"
   id="path2187"
   inkscape:connector-curvature="0" />
</g>
<g
   id="LWPOLYLINE_87_"
   transform="translate(-48.938999,-13.923)">
	<rect
   x="144.67"
   y="273.293"
   style="fill:#ffffff"
   width="4.198"
   height="28.014"
   id="rect2190" />
</g>
<g
   id="LWPOLYLINE_88_"
   transform="translate(-48.938999,-13.923)">
	<path
   style="fill:#ffffff"
   d="m 159.375,280.296 h 2.383 v 4.201 h -2.383 v 10.226 c 0,1.316 1.069,2.383 2.383,2.383 v 4.201 c -3.637,0 -6.586,-2.947 -6.586,-6.584 v -10.226 h -2.377 v -4.201 h 2.377 v -7.003 h 4.204 v 7.003 z"
   id="path2193"
   inkscape:connector-curvature="0" />
</g>
<g
   id="LWPOLYLINE_93_"
   transform="translate(-48.938999,-13.923)">
	<path
   style="fill:#ffffff"
   d="m 206.575,280.296 v 20.449 c 0,3.404 -2.759,6.163 -6.161,6.163 h -0.562 l 0.562,-4.201 c 1.085,0 1.963,-0.878 1.963,-1.962 v -20.449 z"
   id="path2196"
   inkscape:connector-curvature="0" />
</g>
<g
   id="LWPOLYLINE_94_"
   transform="translate(-48.938999,-13.923)">
	<rect
   x="202.37601"
   y="273.293"
   style="fill:#ffffff"
   width="4.198"
   height="4.2030001"
   id="rect2199" />
</g>
<g
   id="LWPOLYLINE_97_"
   transform="translate(-48.938999,-13.923)">
	<path
   style="fill:#ffffff"
   d="m 239.631,294.303 c 0,3.868 3.135,7.004 7.006,7.004 h 0.557 c 3.407,0 6.166,-2.759 6.166,-6.161 0,-2.195 -1.167,-4.221 -3.059,-5.327 l -4.65,-2.71 c -0.431,-0.251 -0.698,-0.711 -0.698,-1.21 0,-0.774 0.627,-1.401 1.401,-1.401 h 0.84 c 0.773,0 1.4,0.627 1.4,1.401 h 4.204 c 0,-3.092 -2.508,-5.603 -5.604,-5.603 h -0.84 c -3.092,0 -5.6,2.511 -5.6,5.603 0,1.995 1.058,3.838 2.78,4.842 l 4.651,2.709 c 0.6,0.352 0.97,0.998 0.97,1.696 0,1.079 -0.877,1.96 -1.962,1.96 h -0.557 c -1.548,0 -2.803,-1.257 -2.803,-2.803 z"
   id="path2202"
   inkscape:connector-curvature="0" />
</g>
<g
   id="LWPOLYLINE_100_"
   transform="translate(-48.938999,-13.923)">
	<rect
   x="276.052"
   y="273.293"
   style="fill:#ffffff"
   width="4.198"
   height="28.014"
   id="rect2205" />
</g>
<g
   id="LWPOLYLINE_101_"
   transform="translate(-48.938999,-13.923)">
	<rect
   x="285.85501"
   y="273.293"
   style="fill:#ffffff"
   width="4.198"
   height="28.014"
   id="rect2208" />
</g>
<g
   id="LWPOLYLINE_102_"
   transform="translate(-48.938999,-13.923)">
	<rect
   x="295.65799"
   y="280.29599"
   style="fill:#ffffff"
   width="4.204"
   height="21.011"
   id="rect2211" />
</g>
<g
   id="LWPOLYLINE_103_"
   transform="translate(-48.938999,-13.923)">
	<rect
   x="295.65799"
   y="273.293"
   style="fill:#ffffff"
   width="4.204"
   height="4.2030001"
   id="rect2214" />
</g>
<g
   id="LWPOLYLINE_104_"
   transform="translate(-48.938999,-13.923)">
	<path
   style="fill:#ffffff"
   d="m 310.363,280.296 h 2.383 v 4.201 h -2.383 v 10.226 c 0,1.316 1.068,2.383 2.383,2.383 v 4.201 c -3.637,0 -6.581,-2.947 -6.581,-6.584 v -10.226 h -2.383 v -4.201 h 2.383 v -7.003 h 4.198 z"
   id="path2217"
   inkscape:connector-curvature="0" />
</g>
<g
   id="LWPOLYLINE_105_"
   transform="translate(-48.938999,-13.923)">
	<path
   style="fill:#ffffff"
   d="m 321.851,280.296 h 2.382 v 4.201 h -2.382 v 10.226 c 0,1.316 1.068,2.383 2.382,2.383 v 4.201 c -3.637,0 -6.586,-2.947 -6.586,-6.584 v -10.226 h -2.377 v -4.201 h 2.377 v -7.003 h 4.204 z"
   id="path2220"
   inkscape:connector-curvature="0" />
</g>
<g
   id="LWPOLYLINE_106_"
   transform="translate(-48.938999,-13.923)">
	<path
   style="fill:#ffffff"
   d="m 327.875,296.124 v -15.828 h 4.198 v 14.85 c 0,1.545 1.254,2.8 2.803,2.8 1.548,0 2.802,-1.255 2.802,-2.8 v -14.85 h 4.204 v 21.011 h -4.204 v -1.68 c -1.444,0.896 -3.069,1.472 -4.765,1.68 -2.781,0 -5.038,-2.258 -5.038,-5.044 z"
   id="path2223"
   inkscape:connector-curvature="0" />
</g>
<g
   id="LWPOLYLINE_107_"
   transform="translate(-48.938999,-13.923)">
	<path
   style="fill:#ffffff"
   d="m 112.824,325.678 c -0.093,-1.813 -1.538,-3.266 -3.353,-3.361 h -1.761 c -1.832,0.117 -3.228,1.698 -3.108,3.53 0.06,0.976 0.545,1.87 1.331,2.456 l 7.469,2.74 c 1.947,1.161 3.321,3.08 3.79,5.297 0.938,4.399 -1.87,8.726 -6.275,9.664 -0.06,0.011 -0.12,0.019 -0.18,0.026 -5.441,0.808 -10.501,-2.952 -11.308,-8.391 l 4.155,-0.616 c 0.469,3.146 3.391,5.316 6.537,4.853 2.132,-0.504 3.446,-2.628 2.944,-4.749 -0.224,-0.93 -0.769,-1.744 -1.543,-2.301 l -7.497,-2.748 c -2.159,-1.303 -3.522,-3.604 -3.626,-6.125 -0.174,-4.155 3.053,-7.663 7.203,-7.838 h 1.962 c 4.1,0.147 7.372,3.468 7.464,7.567 z"
   id="path2226"
   inkscape:connector-curvature="0" />
</g>
<g
   id="LWPOLYLINE_110_"
   transform="translate(-48.938999,-13.923)">
	<path
   style="fill:#ffffff"
   d="m 145.139,331.561 v 14.568 h -4.198 v -21.013 h 4.198 v 1.126 c 1.478,-0.739 3.108,-1.126 4.766,-1.126 v 4.443 c -1.107,-1.082 -2.879,-1.063 -3.964,0.038 -0.513,0.527 -0.802,1.23 -0.802,1.964 z"
   id="path2229"
   inkscape:connector-curvature="0" />
</g>
<g
   id="LWPOLYLINE_111_"
   transform="translate(-48.938999,-13.923)">
	<polygon
   style="fill:#ffffff"
   points="160.825,346.129 166.43,325.116 162.226,325.116 158.726,338.25 155.226,325.116 151.022,325.116 156.626,346.129 "
   id="polygon2232" />
</g>
<g
   id="LWPOLYLINE_112_"
   transform="translate(-48.938999,-13.923)">
	<rect
   x="170.07201"
   y="325.116"
   style="fill:#ffffff"
   width="4.204"
   height="21.013"
   id="rect2235" />
</g>
<g
   id="LWPOLYLINE_113_"
   transform="translate(-48.938999,-13.923)">
	<rect
   x="170.07201"
   y="318.11499"
   style="fill:#ffffff"
   width="4.204"
   height="4.2010002"
   id="rect2238" />
</g>
<g
   id="LWPOLYLINE_114_"
   transform="translate(-48.938999,-13.923)">
	<path
   style="fill:#ffffff"
   d="m 193.32,332.122 c 0,-3.868 -3.135,-7.006 -7,-7.006 -3.866,0 -7.001,3.138 -7.001,7.006 v 7.001 c 0,3.868 3.135,7.006 7.001,7.006 3.865,0 7,-3.138 7,-7.006 h -4.198 c 0,1.548 -1.254,2.802 -2.802,2.802 -1.549,0 -2.803,-1.254 -2.803,-2.802 v -7.001 c 0,-1.549 1.254,-2.803 2.803,-2.803 1.548,0 2.802,1.254 2.802,2.803 z"
   id="path2241"
   inkscape:connector-curvature="0" />
</g>
<g
   id="LWPOLYLINE_117_"
   transform="translate(-48.938999,-13.923)">
	<polygon
   style="fill:#ffffff"
   points="216.574,318.115 220.778,318.115 220.778,333.595 226.376,325.116 230.581,325.116 225.783,332.313 230.608,346.135 226.376,346.129 223.001,336.483 220.778,339.826 220.778,346.129 216.574,346.129 "
   id="polygon2244" />
</g>
<g
   id="LWPOLYLINE_119_"
   transform="translate(-48.938999,-13.923)">
	<rect
   x="242.34599"
   y="318.11499"
   style="fill:#ffffff"
   width="4.204"
   height="4.2010002"
   id="rect2247" />
</g>
<g
   id="LWPOLYLINE_121_"
   transform="translate(-48.938999,-13.923)">
	<rect
   x="234.785"
   y="318.11499"
   style="fill:#ffffff"
   width="4.197"
   height="4.2010002"
   id="rect2250" />
</g>
<g
   id="LWPOLYLINE_122_"
   transform="translate(-48.938999,-13.923)">
	<path
   style="fill:#ffffff"
   d="m 256.915,331.561 v 14.568 h -4.203 v -21.013 h 4.203 v 1.126 c 1.478,-0.739 3.108,-1.126 4.76,-1.126 v 4.443 c -1.106,-1.082 -2.879,-1.063 -3.964,0.038 -0.512,0.527 -0.796,1.23 -0.796,1.964 z"
   id="path2253"
   inkscape:connector-curvature="0" />
</g>
<g
   id="LWPOLYLINE_123_"
   transform="translate(-48.938999,-13.923)">
	<path
   style="fill:#ffffff"
   d="m 278.762,330.301 v 15.828 h -4.204 v -14.85 c 0,-1.545 -1.254,-2.799 -2.797,-2.799 -1.549,0 -2.803,1.254 -2.803,2.799 v 14.85 h -4.203 v -21.013 h 4.203 v 1.682 c 1.445,-0.896 3.069,-1.472 4.76,-1.682 2.786,0 5.044,2.257 5.044,5.043 z"
   id="path2256"
   inkscape:connector-curvature="0" />
</g>
<g
   id="LWPOLYLINE_124_"
   transform="translate(-48.938999,-13.923)">
	<rect
   x="283.80499"
   y="325.116"
   style="fill:#ffffff"
   width="4.2030001"
   height="21.013"
   id="rect2259" />
</g>
<g
   id="LWPOLYLINE_125_"
   transform="translate(-48.938999,-13.923)">
	<rect
   x="283.80499"
   y="318.11499"
   style="fill:#ffffff"
   width="4.2030001"
   height="4.2010002"
   id="rect2262" />
</g>
<g
   id="LWPOLYLINE_126_"
   transform="translate(-48.938999,-13.923)">
	<path
   style="fill:#ffffff"
   d="m 307.615,330.301 v 15.828 h -4.198 v -14.85 c 0,-1.545 -1.259,-2.799 -2.802,-2.799 -1.549,0 -2.803,1.254 -2.803,2.799 v 14.85 h -4.204 v -21.013 h 4.204 v 1.682 c 1.444,-0.896 3.069,-1.472 4.76,-1.682 2.786,0 5.043,2.257 5.043,5.043 z"
   id="path2265"
   inkscape:connector-curvature="0" />
</g>
<g
   id="LWPOLYLINE_129_"
   transform="translate(-48.938999,-13.923)">
	<path
   style="fill:#ffffff"
   d="m 167.171,364.337 h 2.383 v 4.2 h -2.383 v 10.226 c 0,1.314 1.068,2.38 2.383,2.38 v 4.204 c -3.637,0 -6.587,-2.949 -6.587,-6.584 v -10.226 h -2.377 v -4.2 h 2.377 v -7.004 h 4.204 z"
   id="path2268"
   inkscape:connector-curvature="0" />
</g>
<g
   id="LWPOLYLINE_130_"
   transform="translate(-48.938999,-13.923)">
	<rect
   x="173.757"
   y="364.33701"
   style="fill:#ffffff"
   width="4.198"
   height="21.01"
   id="rect2271" />
</g>
<g
   id="LWPOLYLINE_131_"
   transform="translate(-48.938999,-13.923)">
	<rect
   x="173.757"
   y="357.33301"
   style="fill:#ffffff"
   width="4.198"
   height="4.2010002"
   id="rect2274" />
</g>
<g
   id="LWPOLYLINE_132_"
   transform="translate(-48.938999,-13.923)">
	<rect
   x="183.561"
   y="357.33301"
   style="fill:#ffffff"
   width="4.2030001"
   height="28.014"
   id="rect2277" />
</g>
<g
   id="LWPOLYLINE_133_"
   transform="translate(-48.938999,-13.923)">
	<rect
   x="193.364"
   y="357.33301"
   style="fill:#ffffff"
   width="4.204"
   height="28.014"
   id="rect2280" />
</g>
<g
   id="LWPOLYLINE_136_"
   transform="translate(-48.938999,-13.923)">
	<path
   style="fill:#ffffff"
   d="m 226,364.337 h 2.377 v 4.2 H 226 v 10.226 c 0,1.314 1.063,2.38 2.377,2.38 v 4.204 c -3.631,0 -6.58,-2.949 -6.58,-6.584 v -10.226 h -2.383 v -4.2 h 2.383 v -7.004 H 226 Z"
   id="path2283"
   inkscape:connector-curvature="0" />
</g>
<g
   id="LWPOLYLINE_139_"
   transform="translate(-48.938999,-13.923)">
	<path
   style="fill:#ffffff"
   d="m 264.798,369.519 v 15.828 h -4.203 V 370.5 c 0,-1.548 -1.254,-2.802 -2.803,-2.802 -1.543,0 -2.797,1.254 -2.797,2.802 v 14.847 h -4.204 v -21.01 h 4.204 v 1.682 c 1.445,-0.899 3.069,-1.472 4.76,-1.682 2.786,0 5.043,2.257 5.043,5.04 z"
   id="path2286"
   inkscape:connector-curvature="0" />
</g>
</svg>