<?xml version="1.0" encoding="iso-8859-1"?>
<!-- Generator: Adobe Illustrator 16.0.0, SVG Export Plug-In . SVG Version: 6.00 Build 0)  -->
<!DOCTYPE svg PUBLIC "-//W3C//DTD SVG 1.1//EN" "http://www.w3.org/Graphics/SVG/1.1/DTD/svg11.dtd">
<svg version="1.1" id="Layer_1" xmlns="http://www.w3.org/2000/svg" xmlns:xlink="http://www.w3.org/1999/xlink" x="0px" y="0px"
	 width="425.197px" height="425.196px" viewBox="0 0 425.197 425.196" style="enable-background:new 0 0 425.197 425.196;"
	 xml:space="preserve">
<g id="LWPOLYLINE">
	
		<rect x="49.189" y="14.173" style="fill:#005EB8;stroke:#005EB8;stroke-width:0.5;stroke-miterlimit:10;" width="326.818" height="233.442"/>
</g>
<g id="LWPOLYLINE_1_">
	<path style="fill:#FFFFFF;" d="M67.866,14.173h289.467c10.315,0,18.674,8.361,18.674,18.676v196.09
		c0,10.316-8.358,18.677-18.674,18.677H67.866c-10.316,0-18.677-8.36-18.677-18.677V32.849
		C49.189,22.534,57.55,14.173,67.866,14.173z"/>
</g>
<g id="LWPOLYLINE_2_">
	<path style="fill:#005EB8;" d="M67.866,23.51h289.467c5.158,0,9.34,4.181,9.34,9.339v196.09c0,5.158-4.182,9.34-9.34,9.34H67.866
		c-5.158,0-9.337-4.182-9.337-9.34V32.849C58.529,27.69,62.708,23.51,67.866,23.51z"/>
</g>
<g id="LWPOLYLINE_9_">
	<path style="fill:#FFFFFF;" d="M146.791,58.11l5.289,7.543c2.028-1.198,4.236-2.059,6.542-2.548
		c11.722-2.486,23.249,5.004,25.735,16.73c2.486,11.726-5.006,23.248-16.733,25.735c-11.728,2.486-23.248-5.004-25.734-16.729H134.3
		c-1.745,0-3.413-0.736-4.591-2.028l-25.538-27.234l-1.456,4.776c9.356,3.968,14.705,13.896,12.873,23.895
		c-2.159,11.79-13.467,19.598-25.26,17.438c-11.788-2.159-19.595-13.469-17.436-25.261c2.159-11.79,13.467-19.598,25.26-17.438
		l6.199-20.337c0.927-3.051,3.74-5.135,6.93-5.135h8.364v4.763h-8.364c-1.091,0-2.056,0.714-2.377,1.761l-1.734,5.695l35.38,6.12
		l3.647-9.859l-8.042-2.206c-0.485-0.185-0.791-0.661-0.764-1.178c0.038-0.657,0.6-1.159,1.254-1.122h0.627h17.381v4.697h-5.452
		L146.791,58.11z"/>
</g>
<g id="LWPOLYLINE_141_">
	
		<rect x="49.189" y="247.615" style="fill:#005EB8;stroke:#005EB8;stroke-width:0.5;stroke-miterlimit:10;" width="326.818" height="163.408"/>
</g>
<g id="LWPOLYLINE_143_">
	<path style="fill:#FFFFFF;" d="M67.866,247.615h289.467c10.315,0,18.674,8.361,18.674,18.677v126.056
		c0,10.315-8.358,18.676-18.674,18.676H67.866c-10.316,0-18.677-8.36-18.677-18.676V266.292
		C49.189,255.977,57.55,247.615,67.866,247.615z"/>
</g>
<g id="LWPOLYLINE_142_">
	<path style="fill:#005EB8;" d="M67.866,256.952h289.467c5.158,0,9.34,4.182,9.34,9.34v126.056c0,5.157-4.182,9.339-9.34,9.339
		H67.866c-5.158,0-9.337-4.182-9.337-9.339V266.292C58.529,261.134,62.708,256.952,67.866,256.952z"/>
</g>
<g id="LWPOLYLINE_91_">
	<path style="fill:#FFFFFF;" d="M197.333,301.307h-4.203v-1.345c-1.685,0.911-3.577,1.371-5.496,1.345
		c-1.729,0.043-3.276-1.042-3.827-2.678c-0.682-2.15-0.104-4.498,1.494-6.09c2.044-2.197,4.841-3.538,7.829-3.762v-2.176
		c0-1.161-0.938-2.104-2.1-2.104c-1.161,0-2.099,0.943-2.099,2.104h-4.204c0-3.484,2.819-6.306,6.303-6.306
		c3.479,0,6.303,2.821,6.303,6.306V301.307z"/>
</g>
<g id="LWPOLYLINE_85_">
	<path style="fill:#FFFFFF;" d="M125.62,294.303c0,3.868,3.135,7.004,7,7.004c3.871,0,7.006-3.136,7.006-7.004V287.3
		c0-3.866-3.135-7.004-7.006-7.004c-3.866,0-7,3.138-7,7.004V294.303z"/>
</g>
<g id="LWPOLYLINE_89_">
	<path style="fill:#FFFFFF;" d="M165.399,294.303c0,3.868,3.136,7.004,7.001,7.004c3.871,0,7.006-3.136,7.006-7.004V287.3
		c0-3.866-3.135-7.004-7.006-7.004c-3.865,0-7.001,3.138-7.001,7.004V294.303z"/>
</g>
<g id="LWPOLYLINE_95_">
	<path style="fill:#FFFFFF;" d="M211.618,294.303c0,3.868,3.135,7.004,7.006,7.004c3.866,0,7.001-3.136,7.001-7.004V287.3
		c0-3.866-3.135-7.004-7.001-7.004c-3.871,0-7.006,3.138-7.006,7.004V294.303z"/>
</g>
<g id="LWPOLYLINE_98_">
	<path style="fill:#FFFFFF;" d="M271.008,301.307h-4.203v-1.345c-1.69,0.911-3.582,1.371-5.496,1.345
		c-1.729,0.043-3.276-1.042-3.827-2.678c-0.682-2.15-0.104-4.498,1.494-6.09c2.039-2.197,4.836-3.538,7.829-3.762v-2.176
		c0-1.161-0.943-2.104-2.1-2.104c-1.161,0-2.104,0.943-2.104,2.104h-4.198c0-3.484,2.819-6.306,6.303-6.306
		c3.479,0,6.303,2.821,6.303,6.306V301.307z"/>
</g>
<g id="LWPOLYLINE_108_">
	<path style="fill:#FFFFFF;" d="M131.694,339.123h4.204c0,3.868-3.135,7.006-7.006,7.006c-3.865,0-7-3.138-7-7.006v-7.001
		c0-3.868,3.135-7.006,7-7.006c3.871,0,7.006,3.138,7.006,7.006v3.92h-9.809v3.081c0,1.548,1.259,2.802,2.802,2.802
		C130.44,341.925,131.694,340.671,131.694,339.123z"/>
</g>
<g id="LWPOLYLINE_115_">
	<path style="fill:#FFFFFF;" d="M207.327,339.123h4.204c0,3.868-3.135,7.006-7.001,7.006c-3.871,0-7.006-3.138-7.006-7.006v-7.001
		c0-3.868,3.135-7.006,7.006-7.006c3.866,0,7.001,3.138,7.001,7.006v3.92h-9.804v3.081c0,1.548,1.255,2.802,2.803,2.802
		C206.073,341.925,207.327,340.671,207.327,339.123z"/>
</g>
<g id="LWPOLYLINE_118_">
	<path style="fill:#FFFFFF;" d="M233.661,339.123c0,3.868,3.136,7.006,7.007,7.006c3.865,0,7-3.138,7-7.006v-7.001
		c0-3.868-3.135-7.006-7-7.006c-3.871,0-7.007,3.138-7.007,7.006V339.123z"/>
</g>
<g id="LWPOLYLINE_127_">
	<path style="fill:#FFFFFF;" d="M321.622,345.006c-1.444,0.899-3.069,1.472-4.76,1.682c-2.786,0-5.043-2.257-5.043-5.04v-0.143
		l0.011-11.52c0.469-2.433,2.557-4.218,5.032-4.308c1.685,0.213,3.304,0.776,4.76,1.657v-1.657h4.204v19.328
		c0,0.984-0.219,1.957-0.633,2.846c-1.57,3.364-5.572,4.82-8.937,3.247l1.777-3.809c1.26,0.589,2.765,0.044,3.354-1.216
		C321.54,345.739,321.622,345.376,321.622,345.006z"/>
</g>
<g id="LWPOLYLINE_134_">
	<path style="fill:#FFFFFF;" d="M216.056,385.347h-4.204V384c-1.685,0.91-3.582,1.374-5.496,1.344
		c-1.728,0.047-3.276-1.041-3.827-2.677c-0.682-2.148-0.104-4.498,1.494-6.09c2.039-2.195,4.836-3.539,7.829-3.763v-2.175
		c0-1.162-0.938-2.103-2.099-2.103c-1.162,0-2.104,0.94-2.104,2.103h-4.198c0-3.481,2.818-6.303,6.303-6.303
		c3.479,0,6.303,2.821,6.303,6.303V385.347z"/>
</g>
<g id="CIRCLE_6_">
	<path style="fill:#FFFFFF;" d="M212.555,360.414c0-1.549-1.254-2.803-2.802-2.803c-1.549,0-2.803,1.254-2.803,2.803
		c0,1.548,1.254,2.802,2.803,2.802C211.301,363.216,212.555,361.962,212.555,360.414L212.555,360.414z"/>
</g>
<g id="LWPOLYLINE_137_">
	<path style="fill:#FFFFFF;" d="M241.545,378.341h4.203c0,3.871-3.135,7.006-7.001,7.006c-3.871,0-7.006-3.135-7.006-7.006v-7.001
		c0-3.868,3.135-7.003,7.006-7.003c3.866,0,7.001,3.135,7.001,7.003v3.92h-9.803v3.081c0,1.548,1.254,2.802,2.802,2.802
		C240.291,381.143,241.545,379.889,241.545,378.341z"/>
</g>
<g id="CIRCLE">
	<path style="fill:#FFFFFF;" d="M248.818,66.583c0-8.317-6.744-15.06-15.059-15.06c-8.32,0-15.064,6.742-15.064,15.06
		s6.744,15.06,15.064,15.06C242.074,81.643,248.818,74.9,248.818,66.583L248.818,66.583z"/>
</g>
<g id="LWPOLYLINE_4_">
	<path style="fill:#FFFFFF;" d="M234.293,83.27c-9.645,0.431-18.287,6.077-22.556,14.735l-5.049,24.204l-8.238,14.279
		c-1.625,2.882-0.605,6.531,2.279,8.153c2.879,1.622,6.531,0.603,8.15-2.278c0.115-0.207,0.224-0.42,0.312-0.64l8.178-14.039
		l2.208-16.494l-1.493,26.517l-5.044,40.265l-1.281,26.103c-1.248,4.402,1.314,8.979,5.714,10.226
		c4.4,1.243,8.98-1.314,10.224-5.717l2.05-29.227l4.405-22.032c0.032-0.212,0.19-0.382,0.403-0.433
		c0.289-0.07,0.583,0.106,0.654,0.396l5.474,22.33l0.546,20.593c0.458,3.533,3.686,6.025,7.219,5.572
		c2.736-0.354,4.95-2.415,5.495-5.122l0.747-22.324l-1.02-22.51l-0.441-15.427l-2.033-28.365l4.405,9.495l4.378,12.664
		c1.178,2.89,4.471,4.281,7.36,3.107s4.28-4.469,3.107-7.359c-0.027-0.066-0.054-0.132-0.081-0.197l-4.101-12.723l-5.016-11.323
		l-3.588-7.859C253.12,89.077,244.157,83.49,234.293,83.27z"/>
</g>
<g id="CIRCLE_1_">
	<path style="fill:#FFFFFF;" d="M302.048,114.505c0-6.668-5.403-12.074-12.071-12.074s-12.077,5.406-12.077,12.074
		c0,6.67,5.409,12.075,12.077,12.075S302.048,121.175,302.048,114.505L302.048,114.505z"/>
</g>
<g id="LWPOLYLINE_5_">
	<path style="fill:#FFFFFF;" d="M279.143,158.217l-5.539,11.401c-0.027,0.044-0.055,0.086-0.087,0.129
		c-1.314,1.843-3.871,2.271-5.714,0.957c-1.843-1.317-2.274-3.876-0.96-5.719l5.032-9.561l4.128-18.915
		c0.496-0.738,1.041-1.44,1.635-2.103c7.012-7.828,19.045-8.489,26.874-1.477c1.353,1.56,2.366,3.386,2.967,5.361l2.546,6.937
		l5.288,24.224c0,2.375-1.924,4.302-4.302,4.302c-2.377,0-4.302-1.927-4.302-4.302l-2.012-12.957l-2.246-6.643l0.905,20.377
		l2.683,19.371l1.341,17.584c1.26,2.742,0.061,5.986-2.677,7.249c-2.743,1.262-5.986,0.063-7.252-2.68l-2.295-22.3l-3.773-12.671
		l-3.053,12.346l-4.901,14.615c-0.911,2.269-3.305,3.568-5.698,3.108c-2.77-0.535-4.579-3.209-4.051-5.977l6.341-28.703
		l0.971-11.603v-12.265L279.143,158.217z"/>
</g>
<g id="LWPOLYLINE_6_">
	<path style="fill:#005EB8;" d="M105.774,54.326l35.096,6.072l-8.309,22.47C132.561,82.868,105.769,54.326,105.774,54.326z"/>
</g>
<g id="LWPOLYLINE_7_">
	<path style="fill:#005EB8;" d="M151.038,72.467c-3.053,3.104-4.787,7.261-4.858,11.61h12.993L151.038,72.467z"/>
</g>
<g id="LWPOLYLINE_8_">
	<path style="fill:#005EB8;" d="M141.42,84.077c0.071-5.903,2.541-11.521,6.848-15.563l-3.484-4.971l-7.595,20.534h4.264H141.42z"/>
</g>
<g id="LWPOLYLINE_10_">
	<path style="fill:#005EB8;" d="M164.898,83.952c0.365,0.521,0.562,1.145,0.562,1.783c0,1.714-1.391,3.106-3.108,3.106h-15.56
		c2.486,9.019,11.815,14.315,20.833,11.829c9.023-2.486,14.317-11.814,11.832-20.835c-2.486-9.021-11.815-14.316-20.833-11.83
		c-1.325,0.365-2.601,0.89-3.8,1.563L164.898,83.952z"/>
</g>
<g id="LWPOLYLINE_11_">
	<path style="fill:#005EB8;" d="M101.314,68.943l-4.76,15.628c-0.033,0.139-0.071,0.275-0.125,0.407
		c-0.496,1.224-1.892,1.814-3.113,1.318c-1.227-0.498-1.815-1.891-1.319-3.115l4.754-15.599
		c-9.252-1.386-17.878,4.991-19.268,14.245c-1.385,9.253,4.994,17.88,14.247,19.266c9.252,1.387,17.878-4.991,19.268-14.245
		C112.109,79.392,108.167,72.092,101.314,68.943z"/>
</g>
<g id="LWPOLYLINE_86_">
	<path style="fill:#005EB8;" d="M129.824,294.303c0,1.546,1.254,2.803,2.797,2.803c1.548,0,2.802-1.257,2.802-2.803V287.3
		c0-1.549-1.254-2.803-2.802-2.803c-1.543,0-2.797,1.254-2.797,2.803V294.303z"/>
</g>
<g id="LWPOLYLINE_90_">
	<path style="fill:#005EB8;" d="M169.597,294.303c0,1.546,1.254,2.803,2.803,2.803s2.803-1.257,2.803-2.803V287.3
		c0-1.549-1.254-2.803-2.803-2.803s-2.803,1.254-2.803,2.803V294.303z"/>
</g>
<g id="LWPOLYLINE_92_">
	<path style="fill:#005EB8;" d="M193.129,291.514c-1.401,0.339-2.699,1.004-3.795,1.944c-0.981,0.864-1.537,2.109-1.521,3.416
		c0.017,0.85,0.72,1.526,1.57,1.507c0.071-0.003,0.142-0.008,0.213-0.019c1.237-0.202,2.432-0.605,3.533-1.202V291.514z"/>
</g>
<g id="LWPOLYLINE_96_">
	<path style="fill:#005EB8;" d="M215.822,294.303c0,1.546,1.254,2.803,2.802,2.803c1.549,0,2.803-1.257,2.803-2.803V287.3
		c0-1.549-1.254-2.803-2.803-2.803c-1.548,0-2.802,1.254-2.802,2.803V294.303z"/>
</g>
<g id="LWPOLYLINE_99_">
	<path style="fill:#005EB8;" d="M266.805,291.514c-1.401,0.339-2.704,1.004-3.795,1.944c-0.981,0.864-1.537,2.109-1.526,3.416
		c0.021,0.85,0.725,1.526,1.575,1.507c0.071-0.003,0.142-0.008,0.213-0.019c1.232-0.202,2.432-0.605,3.533-1.202V291.514z"/>
</g>
<g id="LWPOLYLINE_109_">
	<path style="fill:#005EB8;" d="M126.089,332.4h5.605v-0.278c0-1.549-1.254-2.803-2.803-2.803c-1.543,0-2.802,1.254-2.802,2.803
		V332.4z"/>
</g>
<g id="LWPOLYLINE_116_">
	<path style="fill:#005EB8;" d="M201.727,332.4h5.6v-0.278c0-1.549-1.254-2.803-2.797-2.803c-1.548,0-2.803,1.254-2.803,2.803V332.4
		z"/>
</g>
<g id="LWPOLYLINE_120_">
	<path style="fill:#005EB8;" d="M237.865,339.123c0,1.548,1.254,2.802,2.803,2.802c1.543,0,2.797-1.254,2.797-2.802v-7.001
		c0-1.549-1.254-2.803-2.797-2.803c-1.549,0-2.803,1.254-2.803,2.803V339.123z"/>
</g>
<g id="LWPOLYLINE_128_">
	<path style="fill:#005EB8;" d="M316.022,340.524c0,1.548,1.254,2.802,2.797,2.802c1.549,0,2.803-1.254,2.803-2.802v-8.684
		c0-1.548-1.254-2.802-2.803-2.802c-1.543,0-2.797,1.254-2.797,2.802V340.524z"/>
</g>
<g id="LWPOLYLINE_135_">
	<path style="fill:#005EB8;" d="M211.852,375.555c-1.401,0.338-2.704,1.003-3.795,1.94c-0.981,0.864-1.537,2.11-1.526,3.419
		c0.021,0.851,0.726,1.526,1.576,1.505c0.07,0,0.142-0.006,0.212-0.017c1.238-0.201,2.432-0.607,3.533-1.202V375.555z"/>
</g>
<g id="CIRCLE_7_">
	<path style="fill:#005EB8;" d="M210.871,360.414c0-0.619-0.501-1.121-1.117-1.121c-0.622,0-1.123,0.502-1.123,1.121
		c0,0.618,0.501,1.12,1.123,1.12C210.37,361.534,210.871,361.032,210.871,360.414L210.871,360.414z"/>
</g>
<g id="LWPOLYLINE_138_">
	<path style="fill:#005EB8;" d="M235.946,371.618h5.6v-0.278c0-1.549-1.255-2.803-2.798-2.803c-1.548,0-2.802,1.254-2.802,2.803
		V371.618z"/>
</g>
<g id="LWPOLYLINE_83_">
	<polygon style="fill:#FFFFFF;" points="97.329,301.307 97.329,288.7 87.52,288.7 87.52,301.307 83.322,301.307 83.322,273.293 
		87.52,273.293 87.52,284.497 97.329,284.497 97.329,273.293 101.527,273.293 101.527,301.307 	"/>
</g>
<g id="LWPOLYLINE_84_">
	<path style="fill:#FFFFFF;" d="M106.57,296.124v-15.828h4.204v14.85c0,1.545,1.254,2.8,2.803,2.8c1.543,0,2.797-1.255,2.797-2.8
		v-14.85h4.204v21.011h-4.204v-1.68c-1.445,0.896-3.07,1.472-4.76,1.68c-2.786,0-5.043-2.258-5.043-5.044V296.124z"/>
</g>
<g id="LWPOLYLINE_87_">
	<rect x="144.67" y="273.293" style="fill:#FFFFFF;" width="4.198" height="28.014"/>
</g>
<g id="LWPOLYLINE_88_">
	<path style="fill:#FFFFFF;" d="M159.375,280.296h2.383v4.201h-2.383v10.226c0,1.316,1.069,2.383,2.383,2.383v4.201
		c-3.637,0-6.586-2.947-6.586-6.584v-10.226h-2.377v-4.201h2.377v-7.003h4.204V280.296z"/>
</g>
<g id="LWPOLYLINE_93_">
	<path style="fill:#FFFFFF;" d="M206.575,280.296v20.449c0,3.404-2.759,6.163-6.161,6.163h-0.562l0.562-4.201
		c1.085,0,1.963-0.878,1.963-1.962v-20.449H206.575z"/>
</g>
<g id="LWPOLYLINE_94_">
	<rect x="202.376" y="273.293" style="fill:#FFFFFF;" width="4.198" height="4.203"/>
</g>
<g id="LWPOLYLINE_97_">
	<path style="fill:#FFFFFF;" d="M239.631,294.303c0,3.868,3.135,7.004,7.006,7.004h0.557c3.407,0,6.166-2.759,6.166-6.161
		c0-2.195-1.167-4.221-3.059-5.327l-4.65-2.71c-0.431-0.251-0.698-0.711-0.698-1.21c0-0.774,0.627-1.401,1.401-1.401h0.84
		c0.773,0,1.4,0.627,1.4,1.401h4.204c0-3.092-2.508-5.603-5.604-5.603h-0.84c-3.092,0-5.6,2.511-5.6,5.603
		c0,1.995,1.058,3.838,2.78,4.842l4.651,2.709c0.6,0.352,0.97,0.998,0.97,1.696c0,1.079-0.877,1.96-1.962,1.96h-0.557
		c-1.548,0-2.803-1.257-2.803-2.803H239.631z"/>
</g>
<g id="LWPOLYLINE_100_">
	<rect x="276.052" y="273.293" style="fill:#FFFFFF;" width="4.198" height="28.014"/>
</g>
<g id="LWPOLYLINE_101_">
	<rect x="285.855" y="273.293" style="fill:#FFFFFF;" width="4.198" height="28.014"/>
</g>
<g id="LWPOLYLINE_102_">
	<rect x="295.658" y="280.296" style="fill:#FFFFFF;" width="4.204" height="21.011"/>
</g>
<g id="LWPOLYLINE_103_">
	<rect x="295.658" y="273.293" style="fill:#FFFFFF;" width="4.204" height="4.203"/>
</g>
<g id="LWPOLYLINE_104_">
	<path style="fill:#FFFFFF;" d="M310.363,280.296h2.383v4.201h-2.383v10.226c0,1.316,1.068,2.383,2.383,2.383v4.201
		c-3.637,0-6.581-2.947-6.581-6.584v-10.226h-2.383v-4.201h2.383v-7.003h4.198V280.296z"/>
</g>
<g id="LWPOLYLINE_105_">
	<path style="fill:#FFFFFF;" d="M321.851,280.296h2.382v4.201h-2.382v10.226c0,1.316,1.068,2.383,2.382,2.383v4.201
		c-3.637,0-6.586-2.947-6.586-6.584v-10.226h-2.377v-4.201h2.377v-7.003h4.204V280.296z"/>
</g>
<g id="LWPOLYLINE_106_">
	<path style="fill:#FFFFFF;" d="M327.875,296.124v-15.828h4.198v14.85c0,1.545,1.254,2.8,2.803,2.8c1.548,0,2.802-1.255,2.802-2.8
		v-14.85h4.204v21.011h-4.204v-1.68c-1.444,0.896-3.069,1.472-4.765,1.68c-2.781,0-5.038-2.258-5.038-5.044V296.124z"/>
</g>
<g id="LWPOLYLINE_107_">
	<path style="fill:#FFFFFF;" d="M112.824,325.678c-0.093-1.813-1.538-3.266-3.353-3.361h-1.761c-1.832,0.117-3.228,1.698-3.108,3.53
		c0.06,0.976,0.545,1.87,1.331,2.456l7.469,2.74c1.947,1.161,3.321,3.08,3.79,5.297c0.938,4.399-1.87,8.726-6.275,9.664
		c-0.06,0.011-0.12,0.019-0.18,0.026c-5.441,0.808-10.501-2.952-11.308-8.391l4.155-0.616c0.469,3.146,3.391,5.316,6.537,4.853
		c2.132-0.504,3.446-2.628,2.944-4.749c-0.224-0.93-0.769-1.744-1.543-2.301l-7.497-2.748c-2.159-1.303-3.522-3.604-3.626-6.125
		c-0.174-4.155,3.053-7.663,7.203-7.838h1.962c4.1,0.147,7.372,3.468,7.464,7.567L112.824,325.678z"/>
</g>
<g id="LWPOLYLINE_110_">
	<path style="fill:#FFFFFF;" d="M145.139,331.561v14.568h-4.198v-21.013h4.198v1.126c1.478-0.739,3.108-1.126,4.766-1.126v4.443
		c-1.107-1.082-2.879-1.063-3.964,0.038C145.428,330.124,145.139,330.827,145.139,331.561z"/>
</g>
<g id="LWPOLYLINE_111_">
	<polygon style="fill:#FFFFFF;" points="151.022,325.116 156.626,346.129 160.825,346.129 166.43,325.116 162.226,325.116 
		158.726,338.25 155.226,325.116 	"/>
</g>
<g id="LWPOLYLINE_112_">
	<rect x="170.072" y="325.116" style="fill:#FFFFFF;" width="4.204" height="21.013"/>
</g>
<g id="LWPOLYLINE_113_">
	<rect x="170.072" y="318.115" style="fill:#FFFFFF;" width="4.204" height="4.201"/>
</g>
<g id="LWPOLYLINE_114_">
	<path style="fill:#FFFFFF;" d="M193.32,332.122c0-3.868-3.135-7.006-7-7.006c-3.866,0-7.001,3.138-7.001,7.006v7.001
		c0,3.868,3.135,7.006,7.001,7.006c3.865,0,7-3.138,7-7.006h-4.198c0,1.548-1.254,2.802-2.802,2.802
		c-1.549,0-2.803-1.254-2.803-2.802v-7.001c0-1.549,1.254-2.803,2.803-2.803c1.548,0,2.802,1.254,2.802,2.803H193.32z"/>
</g>
<g id="LWPOLYLINE_117_">
	<polygon style="fill:#FFFFFF;" points="220.778,346.129 216.574,346.129 216.574,318.115 220.778,318.115 220.778,333.595 
		226.376,325.116 230.581,325.116 225.783,332.313 230.608,346.135 226.376,346.129 223.001,336.483 220.778,339.826 	"/>
</g>
<g id="LWPOLYLINE_119_">
	<rect x="242.346" y="318.115" style="fill:#FFFFFF;" width="4.204" height="4.201"/>
</g>
<g id="LWPOLYLINE_121_">
	<rect x="234.785" y="318.115" style="fill:#FFFFFF;" width="4.197" height="4.201"/>
</g>
<g id="LWPOLYLINE_122_">
	<path style="fill:#FFFFFF;" d="M256.915,331.561v14.568h-4.203v-21.013h4.203v1.126c1.478-0.739,3.108-1.126,4.76-1.126v4.443
		c-1.106-1.082-2.879-1.063-3.964,0.038C257.199,330.124,256.915,330.827,256.915,331.561z"/>
</g>
<g id="LWPOLYLINE_123_">
	<path style="fill:#FFFFFF;" d="M278.762,330.301v15.828h-4.204v-14.85c0-1.545-1.254-2.799-2.797-2.799
		c-1.549,0-2.803,1.254-2.803,2.799v14.85h-4.203v-21.013h4.203v1.682c1.445-0.896,3.069-1.472,4.76-1.682
		c2.786,0,5.044,2.257,5.044,5.043V330.301z"/>
</g>
<g id="LWPOLYLINE_124_">
	<rect x="283.805" y="325.116" style="fill:#FFFFFF;" width="4.203" height="21.013"/>
</g>
<g id="LWPOLYLINE_125_">
	<rect x="283.805" y="318.115" style="fill:#FFFFFF;" width="4.203" height="4.201"/>
</g>
<g id="LWPOLYLINE_126_">
	<path style="fill:#FFFFFF;" d="M307.615,330.301v15.828h-4.198v-14.85c0-1.545-1.259-2.799-2.802-2.799
		c-1.549,0-2.803,1.254-2.803,2.799v14.85h-4.204v-21.013h4.204v1.682c1.444-0.896,3.069-1.472,4.76-1.682
		c2.786,0,5.043,2.257,5.043,5.043V330.301z"/>
</g>
<g id="LWPOLYLINE_129_">
	<path style="fill:#FFFFFF;" d="M167.171,364.337h2.383v4.2h-2.383v10.226c0,1.314,1.068,2.38,2.383,2.38v4.204
		c-3.637,0-6.587-2.949-6.587-6.584v-10.226h-2.377v-4.2h2.377v-7.004h4.204V364.337z"/>
</g>
<g id="LWPOLYLINE_130_">
	<rect x="173.757" y="364.337" style="fill:#FFFFFF;" width="4.198" height="21.01"/>
</g>
<g id="LWPOLYLINE_131_">
	<rect x="173.757" y="357.333" style="fill:#FFFFFF;" width="4.198" height="4.201"/>
</g>
<g id="LWPOLYLINE_132_">
	<rect x="183.561" y="357.333" style="fill:#FFFFFF;" width="4.203" height="28.014"/>
</g>
<g id="LWPOLYLINE_133_">
	<rect x="193.364" y="357.333" style="fill:#FFFFFF;" width="4.204" height="28.014"/>
</g>
<g id="LWPOLYLINE_136_">
	<path style="fill:#FFFFFF;" d="M226,364.337h2.377v4.2H226v10.226c0,1.314,1.063,2.38,2.377,2.38v4.204
		c-3.631,0-6.58-2.949-6.58-6.584v-10.226h-2.383v-4.2h2.383v-7.004H226V364.337z"/>
</g>
<g id="LWPOLYLINE_139_">
	<path style="fill:#FFFFFF;" d="M264.798,369.519v15.828h-4.203V370.5c0-1.548-1.254-2.802-2.803-2.802
		c-1.543,0-2.797,1.254-2.797,2.802v14.847h-4.204v-21.01h4.204v1.682c1.445-0.899,3.069-1.472,4.76-1.682
		c2.786,0,5.043,2.257,5.043,5.04V369.519z"/>
</g>
</svg>
