<?xml version="1.0" encoding="UTF-8" standalone="no"?>
<!-- Generator: Adobe Illustrator 16.0.0, SVG Export Plug-In . SVG Version: 6.00 Build 0)  -->

<svg
   xmlns:dc="http://purl.org/dc/elements/1.1/"
   xmlns:cc="http://creativecommons.org/ns#"
   xmlns:rdf="http://www.w3.org/1999/02/22-rdf-syntax-ns#"
   xmlns:svg="http://www.w3.org/2000/svg"
   xmlns="http://www.w3.org/2000/svg"
   xmlns:sodipodi="http://sodipodi.sourceforge.net/DTD/sodipodi-0.dtd"
   xmlns:inkscape="http://www.inkscape.org/namespaces/inkscape"
   version="1.1"
   id="Layer_1"
   x="0px"
   y="0px"
   width="397.353"
   height="283.96201"
   viewBox="0 0 397.35301 283.962"
   xml:space="preserve"
   sodipodi:docname="E27.svg"
   inkscape:version="0.92.5 (2060ec1f9f, 2020-04-08)"><metadata
   id="metadata2352"><rdf:RDF><cc:Work
       rdf:about=""><dc:format>image/svg+xml</dc:format><dc:type
         rdf:resource="http://purl.org/dc/dcmitype/StillImage" /></cc:Work></rdf:RDF></metadata><defs
   id="defs2350" /><sodipodi:namedview
   pagecolor="#ffffff"
   bordercolor="#666666"
   borderopacity="1"
   objecttolerance="10"
   gridtolerance="10"
   guidetolerance="10"
   inkscape:pageopacity="0"
   inkscape:pageshadow="2"
   inkscape:window-width="640"
   inkscape:window-height="480"
   id="namedview2348"
   showgrid="false"
   inkscape:zoom="0.55503813"
   inkscape:cx="198.6765"
   inkscape:cy="141.981"
   inkscape:window-x="0"
   inkscape:window-y="0"
   inkscape:window-maximized="0"
   inkscape:current-layer="Layer_1" />
<g
   id="LWPOLYLINE"
   transform="translate(-13.922,-70.616997)">
	
		<rect
   x="14.172"
   y="70.866997"
   style="fill:#005eb8;stroke:#005eb8;stroke-width:0.5;stroke-miterlimit:10"
   width="396.853"
   height="283.46201"
   id="rect2296" />
</g>
<g
   id="LWPOLYLINE_1_"
   transform="translate(-13.922,-70.616997)">
	<path
   style="fill:#ffffff"
   d="m 36.852,70.867 h 351.497 c 12.525,0 22.676,10.154 22.676,22.678 v 238.111 c 0,12.523 -10.15,22.674 -22.676,22.674 H 36.852 c -12.525,0 -22.68,-10.15 -22.68,-22.674 V 93.544 c 0,-12.523 10.155,-22.677 22.68,-22.677 z"
   id="path2299"
   inkscape:connector-curvature="0" />
</g>
<g
   id="LWPOLYLINE_30_"
   transform="translate(-13.922,-70.616997)">
	<path
   style="fill:#005eb8"
   d="M 356.133,82.207 H 36.852 c -6.263,0 -11.342,5.077 -11.342,11.338 v 224.822 z"
   id="path2302"
   inkscape:connector-curvature="0" />
</g>
<g
   id="LWPOLYLINE_19_"
   transform="translate(-13.922,-70.616997)">
	<path
   style="fill:#ffffff"
   d="m 132.69,124.221 6.415,9.159 c 2.466,-1.455 5.146,-2.5 7.949,-3.094 14.24,-3.018 28.226,6.077 31.252,20.315 3.018,14.241 -6.078,28.231 -20.318,31.251 -14.24,3.018 -28.233,-6.077 -31.251,-20.315 h -9.219 c -2.119,0 -4.14,-0.895 -5.574,-2.461 l -31.012,-33.071 -1.765,5.801 c 11.362,4.817 17.852,16.873 15.634,29.013 -2.622,14.318 -16.359,23.799 -30.674,21.177 -14.315,-2.624 -23.8,-16.357 -21.176,-30.674 2.622,-14.319 16.352,-23.799 30.675,-21.175 l 7.528,-24.696 c 1.121,-3.705 4.543,-6.236 8.419,-6.236 h 10.15 v 5.784 h -10.15 c -1.328,0 -2.507,0.868 -2.895,2.138 l -2.103,6.914 42.96,7.434 4.428,-11.973 -9.763,-2.678 c -0.586,-0.225 -0.965,-0.804 -0.932,-1.433 0.049,-0.796 0.733,-1.406 1.525,-1.361 h 0.767 21.101 v 5.704 h -6.621 z"
   id="path2305"
   inkscape:connector-curvature="0" />
</g>
<g
   id="LWPOLYLINE_28_"
   transform="translate(-13.922,-70.616997)">
	<path
   style="fill:#005eb8"
   d="M 69.066,342.993 399.687,106.834 v 224.821 c 0,6.262 -5.079,11.338 -11.338,11.338 z"
   id="path2308"
   inkscape:connector-curvature="0" />
</g>
<g
   id="CIRCLE_2_"
   transform="translate(-13.922,-70.616997)">
	<path
   style="fill:#ffffff"
   d="m 256.575,134.509 c 0,-10.099 -8.188,-18.287 -18.289,-18.287 -10.094,0 -18.281,8.188 -18.281,18.287 0,10.099 8.188,18.287 18.281,18.287 10.1,0 18.289,-8.188 18.289,-18.287 z"
   id="path2311"
   inkscape:connector-curvature="0" />
</g>
<g
   id="CIRCLE_3_"
   transform="translate(-13.922,-70.616997)">
	<path
   style="fill:#ffffff"
   d="m 321.221,192.699 c 0,-8.097 -6.572,-14.661 -14.67,-14.661 -8.097,0 -14.66,6.563 -14.66,14.661 0,8.1 6.563,14.663 14.66,14.663 8.098,0 14.67,-6.563 14.67,-14.663 z"
   id="path2314"
   inkscape:connector-curvature="0" />
</g>
<g
   id="LWPOLYLINE_15_"
   transform="translate(-13.922,-70.616997)">
	<path
   style="fill:#ffffff"
   d="m 293.4,245.778 -6.721,13.846 c -0.041,0.053 -0.074,0.104 -0.107,0.152 -1.6,2.238 -4.708,2.758 -6.942,1.162 -2.234,-1.6 -2.754,-4.703 -1.163,-6.943 l 6.11,-11.609 5.014,-22.965 c 0.594,-0.898 1.262,-1.752 1.979,-2.555 8.518,-9.508 23.13,-10.309 32.637,-1.789 1.641,1.887 2.869,4.105 3.604,6.506 l 3.092,8.422 6.424,29.416 c 0,2.887 -2.342,5.225 -5.228,5.225 -2.887,0 -5.22,-2.338 -5.22,-5.225 l -2.441,-15.732 -2.729,-8.064 1.088,24.742 3.266,23.521 1.624,21.355 c 1.534,3.322 0.074,7.264 -3.249,8.799 -3.331,1.529 -7.272,0.074 -8.798,-3.258 l -2.795,-27.078 -4.576,-15.383 -3.711,14.994 -5.953,17.746 c -1.105,2.75 -4.008,4.328 -6.919,3.771 -3.363,-0.646 -5.565,-3.896 -4.914,-7.256 l 7.701,-34.855 1.18,-14.088 v -14.891 z"
   id="path2317"
   inkscape:connector-curvature="0" />
</g>
<g
   id="LWPOLYLINE_25_"
   transform="translate(-13.922,-70.616997)">
	<path
   style="fill:#ffffff"
   d="m 217.217,237.171 -4.09,32.596 -1.55,31.695 c -1.518,5.344 1.591,10.906 6.942,12.414 5.344,1.514 10.901,-1.596 12.41,-6.941 l 2.49,-35.486 5.343,-26.754 c 0.05,-0.256 0.239,-0.461 0.495,-0.527 0.346,-0.082 0.709,0.133 0.791,0.482 l 6.646,27.115 0.668,25.006 c 0.553,4.287 4.478,7.318 8.766,6.766 3.322,-0.428 6.011,-2.928 6.67,-6.217 l 0.907,-27.111 -1.236,-27.332 -0.536,-18.729 -1.295,-17.997 z"
   id="path2320"
   inkscape:connector-curvature="0" />
</g>
<g
   id="LWPOLYLINE_26_"
   transform="translate(-13.922,-70.616997)">
	<path
   style="fill:#ffffff"
   d="m 265.348,202.79 4.782,13.82 c 1.427,3.508 5.426,5.195 8.938,3.771 3.513,-1.426 5.203,-5.43 3.776,-8.934 -0.033,-0.082 -0.066,-0.166 -0.107,-0.244 l -4.98,-15.448 -0.61,-1.392 z"
   id="path2323"
   inkscape:connector-curvature="0" />
</g>
<g
   id="LWPOLYLINE_27_"
   transform="translate(-13.922,-70.616997)">
	<path
   style="fill:#ffffff"
   d="m 250.942,157.339 c -3.801,-1.604 -7.874,-2.476 -12.005,-2.568 -11.709,0.521 -22.206,7.38 -27.385,17.894 l -3.142,15.061 z"
   id="path2326"
   inkscape:connector-curvature="0" />
</g>
<g
   id="LWPOLYLINE_16_"
   transform="translate(-13.922,-70.616997)">
	<polygon
   style="fill:#005eb8"
   points="115.407,154.285 82.877,119.625 125.5,127 "
   id="polygon2329" />
</g>
<g
   id="LWPOLYLINE_17_"
   transform="translate(-13.922,-70.616997)">
	<path
   style="fill:#005eb8"
   d="m 137.844,141.652 c -3.703,3.771 -5.813,8.819 -5.896,14.101 h 15.774 z"
   id="path2332"
   inkscape:connector-curvature="0" />
</g>
<g
   id="LWPOLYLINE_18_"
   transform="translate(-13.922,-70.616997)">
	<path
   style="fill:#005eb8"
   d="m 126.167,155.752 c 0.083,-7.168 3.084,-13.991 8.313,-18.899 l -4.23,-6.036 -9.219,24.935 h 5.179 z"
   id="path2335"
   inkscape:connector-curvature="0" />
</g>
<g
   id="LWPOLYLINE_20_"
   transform="translate(-13.922,-70.616997)">
	<path
   style="fill:#005eb8"
   d="m 154.673,155.6 c 0.445,0.635 0.685,1.39 0.685,2.165 0,2.082 -1.69,3.772 -3.776,3.772 H 132.69 c 3.019,10.953 14.34,17.384 25.298,14.364 10.95,-3.018 17.383,-14.346 14.364,-25.3 -3.018,-10.952 -14.348,-17.384 -25.298,-14.364 -1.607,0.443 -3.158,1.08 -4.617,1.898 z"
   id="path2338"
   inkscape:connector-curvature="0" />
</g>
<g
   id="LWPOLYLINE_21_"
   transform="translate(-13.922,-70.616997)">
	<path
   style="fill:#005eb8"
   d="M 77.468,137.376 71.68,156.35 c -0.033,0.169 -0.083,0.336 -0.148,0.497 -0.602,1.486 -2.292,2.201 -3.785,1.6 -1.484,-0.604 -2.201,-2.297 -1.6,-3.783 l 5.78,-18.941 c -11.238,-1.684 -21.711,6.061 -23.401,17.298 -1.682,11.237 6.061,21.709 17.3,23.393 11.239,1.684 21.711,-6.061 23.393,-17.297 1.361,-9.054 -3.43,-17.918 -11.751,-21.741 z"
   id="path2341"
   inkscape:connector-curvature="0" />
</g>
<g
   id="LWPOLYLINE_29_"
   transform="translate(-13.922,-70.616997)">
	<path
   style="fill:#e4002b"
   d="M 399.687,103.351 64.185,342.993 H 36.852 c -6.263,0 -11.342,-5.076 -11.342,-11.338 V 321.85 L 361.014,82.207 h 27.335 c 6.259,0 11.338,5.077 11.338,11.338 z"
   id="path2344"
   inkscape:connector-curvature="0" />
</g>
</svg>