<?xml version="1.0" encoding="iso-8859-1"?>
<!-- Generator: Adobe Illustrator 16.0.0, SVG Export Plug-In . SVG Version: 6.00 Build 0)  -->
<!DOCTYPE svg PUBLIC "-//W3C//DTD SVG 1.1//EN" "http://www.w3.org/Graphics/SVG/1.1/DTD/svg11.dtd">
<svg version="1.1" id="Layer_1" xmlns="http://www.w3.org/2000/svg" xmlns:xlink="http://www.w3.org/1999/xlink" x="0px" y="0px"
	 width="425.197px" height="425.196px" viewBox="0 0 425.197 425.196" style="enable-background:new 0 0 425.197 425.196;"
	 xml:space="preserve">
<g id="LWPOLYLINE_3_">
	
		<rect x="14.172" y="70.867" style="fill:#005EB8;stroke:#005EB8;stroke-width:0.5;stroke-miterlimit:10;" width="396.853" height="283.462"/>
</g>
<g id="LWPOLYLINE_1_">
	<path style="fill:#FFFFFF;" d="M36.852,70.867h351.497c12.525,0,22.676,10.154,22.676,22.678v238.111
		c0,12.523-10.15,22.674-22.676,22.674H36.852c-12.525,0-22.68-10.15-22.68-22.674V93.544
		C14.172,81.021,24.327,70.867,36.852,70.867z"/>
</g>
<g id="LWPOLYLINE_2_">
	<path style="fill:#005EB8;" d="M36.852,82.207h351.497c6.259,0,11.338,5.077,11.338,11.338v238.111
		c0,6.262-5.079,11.338-11.338,11.338H36.852c-6.263,0-11.342-5.076-11.342-11.338V93.544C25.51,87.284,30.589,82.207,36.852,82.207
		z"/>
</g>
<g id="LWPOLYLINE_24_">
	<path style="fill:#FFFFFF;" d="M45.376,163.493c-0.33-0.13-0.651-0.27-0.974-0.423c-1.146-0.554-1.878-1.717-1.882-2.995v-19.171
		c0-1.793,0.48-3.556,1.388-5.102l5.146-8.753c0.354-0.604,0.667-1.229,0.948-1.872l9.416-21.903
		c1.056-2.463,3.479-4.061,6.168-4.061h33.321h33.32c2.681,0,5.104,1.598,6.16,4.061l9.425,21.903
		c0.272,0.643,0.594,1.268,0.948,1.872l5.146,8.753c0.907,1.546,1.385,3.309,1.385,5.102v19.171
		c-0.008,1.278-0.742,2.441-1.888,2.995c-0.322,0.153-0.644,0.293-0.965,0.423v14.003c0,1.854-1.509,3.356-3.364,3.356h-5.797
		c-1.855,0-3.356-1.502-3.356-3.356V164.53H98.908H57.885v12.966c0,1.854-1.501,3.356-3.356,3.356h-5.797
		c-1.855,0-3.355-1.502-3.355-3.356V163.493z"/>
</g>
<g id="LWPOLYLINE_20_">
	<path style="fill:#FFFFFF;" d="M295.816,202.464l10.497,14.979c4.023-2.379,8.41-4.09,12.986-5.059
		c23.286-4.936,46.168,9.936,51.099,33.219c4.939,23.285-9.936,46.162-33.214,51.098c-23.285,4.939-46.168-9.936-51.099-33.217
		h-15.073c-3.463,0-6.777-1.465-9.111-4.025l-50.72-54.078l-2.886,9.486c18.578,7.879,29.198,27.594,25.562,47.441
		c-4.287,23.41-26.74,38.916-50.15,34.623c-23.409-4.287-38.92-26.74-34.624-50.154c4.288-23.414,26.741-38.915,50.15-34.623
		l12.312-40.382c1.847-6.056,7.43-10.196,13.762-10.196h16.607v9.458h-16.607c-2.168,0-4.081,1.418-4.716,3.494l-3.447,11.309
		l70.245,12.152l7.24-19.576l-15.964-4.38c-0.957-0.367-1.575-1.313-1.518-2.34c0.074-1.303,1.196-2.301,2.499-2.227h1.245h34.508
		v9.326h-10.826L295.816,202.464z"/>
</g>
<g id="LWPOLYLINE_17_">
	<polygon style="fill:#005EB8;" points="214.365,194.953 284.057,207.012 267.557,251.626 	"/>
</g>
<g id="LWPOLYLINE_18_">
	<path style="fill:#005EB8;" d="M304.243,230.974c-6.053,6.16-9.507,14.414-9.639,23.051h25.792L304.243,230.974z"/>
</g>
<g id="LWPOLYLINE_19_">
	<path style="fill:#005EB8;" d="M285.146,254.024c0.14-11.721,5.055-22.877,13.597-30.9l-6.91-9.869l-15.081,40.77h8.46H285.146z"/>
</g>
<g id="LWPOLYLINE_21_">
	<path style="fill:#005EB8;" d="M331.767,253.778c0.726,1.033,1.113,2.271,1.113,3.537c0,3.404-2.763,6.168-6.168,6.168h-30.896
		c4.931,17.908,23.459,28.426,41.368,23.488c17.91-4.936,28.424-23.461,23.484-41.369c-4.932-17.91-23.459-28.424-41.369-23.488
		c-2.63,0.725-5.162,1.768-7.536,3.104L331.767,253.778z"/>
</g>
<g id="LWPOLYLINE_22_">
	<path style="fill:#005EB8;" d="M205.517,223.978l-9.458,31.025c-0.058,0.279-0.141,0.551-0.248,0.811
		c-0.98,2.43-3.751,3.6-6.184,2.619c-2.425-0.99-3.596-3.756-2.614-6.186l9.441-30.971c-18.371-2.754-35.498,9.908-38.252,28.283
		c-2.754,18.371,9.911,35.498,28.283,38.252c18.371,2.754,35.497-9.91,38.252-28.283
		C226.956,244.72,219.122,230.231,205.517,223.978z"/>
</g>
<g id="CIRCLE_2_">
	<path style="fill:#005EB8;" d="M148.349,143.864c0-4.335-3.513-7.848-7.851-7.848c-4.337,0-7.85,3.513-7.85,7.848
		c0,4.335,3.513,7.848,7.85,7.848C144.836,151.712,148.349,148.199,148.349,143.864L148.349,143.864z"/>
</g>
<g id="LWPOLYLINE_23_">
	<path style="fill:#005EB8;" d="M98.908,105.927h31.111c1.335,0,2.548,0.798,3.083,2.029l9.063,21.088H98.908H55.642l9.07-21.088
		c0.527-1.231,1.74-2.029,3.084-2.029H98.908z"/>
</g>
<g id="CIRCLE_3_">
	<path style="fill:#005EB8;" d="M65.158,143.864c0-4.335-3.513-7.848-7.85-7.848c-4.329,0-7.851,3.513-7.851,7.848
		c0,4.335,3.521,7.848,7.851,7.848C61.645,151.712,65.158,148.199,65.158,143.864L65.158,143.864z"/>
</g>
<g id="LWPOLYLINE_25_">
	<path style="fill:#005EB8;" d="M71.96,146.078h53.943v3.77c0,0.278-0.223,0.505-0.503,0.505H72.463
		c-0.28,0-0.503-0.227-0.503-0.505V146.078z"/>
</g>
<g id="LWPOLYLINE_26_">
	<path style="fill:#005EB8;" d="M125.904,142.151H71.96v-3.772c0-0.276,0.223-0.503,0.503-0.503h52.938
		c0.28,0,0.503,0.227,0.503,0.503V142.151z"/>
</g>
</svg>
