<?xml version="1.0" encoding="iso-8859-1"?>
<!-- Generator: Adobe Illustrator 16.0.0, SVG Export Plug-In . SVG Version: 6.00 Build 0)  -->
<!DOCTYPE svg PUBLIC "-//W3C//DTD SVG 1.1//EN" "http://www.w3.org/Graphics/SVG/1.1/DTD/svg11.dtd">
<svg version="1.1" id="Layer_1" xmlns="http://www.w3.org/2000/svg" xmlns:xlink="http://www.w3.org/1999/xlink" x="0px" y="0px"
	 width="425.197px" height="425.196px" viewBox="0 0 425.197 425.196" style="enable-background:new 0 0 425.197 425.196;"
	 xml:space="preserve">
<g id="LWPOLYLINE_2_">
	
		<rect x="14.172" y="14.173" style="fill:#005EB8;stroke:#005EB8;stroke-width:0.5;stroke-miterlimit:10;" width="396.853" height="396.851"/>
</g>
<g id="LWPOLYLINE_9_">
	<path style="fill:#FFFFFF;" d="M40.63,411.023h343.941c14.608,0,26.453-11.845,26.453-26.458V40.629
		c0-14.61-11.845-26.456-26.453-26.456H40.63c-14.612,0-26.458,11.846-26.458,26.456v343.937
		C14.172,399.179,26.018,411.023,40.63,411.023z"/>
</g>
<g id="LWPOLYLINE_10_">
	<path style="fill:#005EB8;" d="M40.63,397.797h343.941c7.304,0,13.222-5.927,13.222-13.231V40.629
		c0-7.307-5.918-13.229-13.222-13.229H40.63c-7.304,0-13.227,5.922-13.227,13.229v343.937
		C27.404,391.87,33.327,397.797,40.63,397.797z"/>
</g>
<g id="LWPOLYLINE_5_">
	<path style="fill:#FFFFFF;" d="M80.316,371.339V53.858h145.516c51.138,0,92.592,41.456,92.592,92.597
		c0,51.139-41.454,92.602-92.592,92.602h-85.99v132.282H80.316z"/>
</g>
<g id="LWPOLYLINE_12_">
	<path style="fill:#FFFFFF;" d="M308.502,258.498c7.814-4.049,13.696-11.047,16.341-19.441h20.043v132.282h-19.843V269.478
		l-14.544,2.648L308.502,258.498z"/>
</g>
<g id="LWPOLYLINE_6_">
	<path style="fill:#005EB8;" d="M139.841,113.386h85.99c18.265,0,33.064,14.805,33.064,33.069s-14.8,33.074-33.064,33.074h-85.99
		V113.386z"/>
</g>
</svg>
