<?xml version="1.0" encoding="UTF-8" standalone="no"?>
<!-- Generator: Adobe Illustrator 16.0.0, SVG Export Plug-In . SVG Version: 6.00 Build 0)  -->

<svg
   xmlns:dc="http://purl.org/dc/elements/1.1/"
   xmlns:cc="http://creativecommons.org/ns#"
   xmlns:rdf="http://www.w3.org/1999/02/22-rdf-syntax-ns#"
   xmlns:svg="http://www.w3.org/2000/svg"
   xmlns="http://www.w3.org/2000/svg"
   xmlns:sodipodi="http://sodipodi.sourceforge.net/DTD/sodipodi-0.dtd"
   xmlns:inkscape="http://www.inkscape.org/namespaces/inkscape"
   version="1.1"
   id="Layer_1"
   x="0px"
   y="0px"
   width="397.353"
   height="397.35101"
   viewBox="0 0 397.35301 397.351"
   xml:space="preserve"
   sodipodi:docname="E2_6.svg"
   inkscape:version="0.92.5 (2060ec1f9f, 2020-04-08)"><metadata
   id="metadata2593"><rdf:RDF><cc:Work
       rdf:about=""><dc:format>image/svg+xml</dc:format><dc:type
         rdf:resource="http://purl.org/dc/dcmitype/StillImage" /></cc:Work></rdf:RDF></metadata><defs
   id="defs2591" /><sodipodi:namedview
   pagecolor="#ffffff"
   bordercolor="#666666"
   borderopacity="1"
   objecttolerance="10"
   gridtolerance="10"
   guidetolerance="10"
   inkscape:pageopacity="0"
   inkscape:pageshadow="2"
   inkscape:window-width="640"
   inkscape:window-height="480"
   id="namedview2589"
   showgrid="false"
   inkscape:zoom="0.55503813"
   inkscape:cx="198.6765"
   inkscape:cy="198.67601"
   inkscape:window-x="0"
   inkscape:window-y="0"
   inkscape:window-maximized="0"
   inkscape:current-layer="Layer_1" />
<g
   id="LWPOLYLINE_2_"
   transform="translate(-13.922,-13.923)">
	
		<rect
   x="14.172"
   y="14.173"
   style="fill:#005eb8;stroke:#005eb8;stroke-width:0.5;stroke-miterlimit:10"
   width="396.853"
   height="396.85101"
   id="rect2570" />
</g>
<g
   id="LWPOLYLINE_9_"
   transform="translate(-13.922,-13.923)">
	<path
   style="fill:#ffffff"
   d="m 40.63,411.023 h 343.941 c 14.608,0 26.453,-11.845 26.453,-26.458 V 40.629 c 0,-14.61 -11.845,-26.456 -26.453,-26.456 H 40.63 c -14.612,0 -26.458,11.846 -26.458,26.456 v 343.937 c 0,14.613 11.846,26.457 26.458,26.457 z"
   id="path2573"
   inkscape:connector-curvature="0" />
</g>
<g
   id="LWPOLYLINE_10_"
   transform="translate(-13.922,-13.923)">
	<path
   style="fill:#005eb8"
   d="m 40.63,397.797 h 343.941 c 7.304,0 13.222,-5.927 13.222,-13.231 V 40.629 c 0,-7.307 -5.918,-13.229 -13.222,-13.229 H 40.63 c -7.304,0 -13.227,5.922 -13.227,13.229 v 343.937 c 0.001,7.304 5.924,13.231 13.227,13.231 z"
   id="path2576"
   inkscape:connector-curvature="0" />
</g>
<g
   id="LWPOLYLINE_5_"
   transform="translate(-13.922,-13.923)">
	<path
   style="fill:#ffffff"
   d="M 80.316,371.339 V 53.858 h 145.516 c 51.138,0 92.592,41.456 92.592,92.597 0,51.139 -41.454,92.602 -92.592,92.602 h -85.99 v 132.282 z"
   id="path2579"
   inkscape:connector-curvature="0" />
</g>
<g
   id="LWPOLYLINE_12_"
   transform="translate(-13.922,-13.923)">
	<path
   style="fill:#ffffff"
   d="m 272.127,334.959 c 0,20.089 16.286,36.38 36.375,36.38 20.098,0 36.384,-16.291 36.384,-36.38 v -14.553 c 0,-20.089 -16.286,-36.375 -36.384,-36.375 -5.07,0 -10.085,1.062 -14.727,3.118 l 2.826,-28.25 h 36.375 l -1.322,-19.843 h -52.916 l -6.611,66.139 23.152,5.289 c 3.119,-4.158 8.025,-6.611 13.223,-6.611 9.137,0 16.541,7.404 16.541,16.533 v 14.553 c 0,9.133 -7.404,16.537 -16.541,16.537 -9.128,0 -16.532,-7.404 -16.532,-16.537 z"
   id="path2582"
   inkscape:connector-curvature="0" />
</g>
<g
   id="LWPOLYLINE_6_"
   transform="translate(-13.922,-13.923)">
	<path
   style="fill:#005eb8"
   d="m 139.841,113.386 h 85.99 c 18.265,0 33.064,14.805 33.064,33.069 0,18.264 -14.8,33.074 -33.064,33.074 h -85.99 z"
   id="path2585"
   inkscape:connector-curvature="0" />
</g>
</svg>