<?xml version="1.0" encoding="iso-8859-1"?>
<!-- Generator: Adobe Illustrator 16.0.0, SVG Export Plug-In . SVG Version: 6.00 Build 0)  -->
<!DOCTYPE svg PUBLIC "-//W3C//DTD SVG 1.1//EN" "http://www.w3.org/Graphics/SVG/1.1/DTD/svg11.dtd">
<svg version="1.1" id="Layer_1" xmlns="http://www.w3.org/2000/svg" xmlns:xlink="http://www.w3.org/1999/xlink" x="0px" y="0px"
	 width="425.197px" height="425.196px" viewBox="0 0 425.197 425.196" style="enable-background:new 0 0 425.197 425.196;"
	 xml:space="preserve">
<g id="LWPOLYLINE_1_">
	
		<rect x="14.173" y="14.174" style="fill:#005EB8;stroke:#005EB8;stroke-width:0.5;stroke-miterlimit:10;" width="396.851" height="396.849"/>
</g>
<g id="LWPOLYLINE_17_">
	<path style="fill:#FFFFFF;" d="M40.63,411.022h343.937c14.612,0,26.457-11.845,26.457-26.455V40.63
		c0-14.611-11.845-26.456-26.457-26.456H40.63c-14.612,0-26.457,11.845-26.457,26.456v343.938
		C14.173,399.178,26.018,411.022,40.63,411.022z"/>
</g>
<g id="LWPOLYLINE_18_">
	<path style="fill:#005EB8;" d="M40.63,397.795h343.937c7.306,0,13.229-5.923,13.229-13.228V40.63
		c0-7.306-5.923-13.229-13.229-13.229H40.63c-7.306,0-13.229,5.923-13.229,13.229v343.938
		C27.402,391.872,33.325,397.795,40.63,397.795z"/>
</g>
<g id="LWPOLYLINE_9_">
	<path style="fill:#FFFFFF;" d="M316.772,252.283v-13.229h-52.913v33.071h-49.607v-9.921c0-7.307-5.923-13.229-13.227-13.229
		c-7.307,0-13.229,5.922-13.229,13.229v9.921h-36.378v-26.457h-16.535v26.457H115.04v62.834h9.272
		c-5.479,9.491-2.228,21.626,7.264,27.105c0.415,0.24,0.839,0.465,1.271,0.674h-27.729v8.599h214.96v-8.599h-37.65
		c9.864-4.776,13.985-16.645,9.21-26.507c-0.21-0.433-0.435-0.856-0.675-1.272h25.809v-52.913h-13.229v16.535h-26.456v-46.299
		H316.772z"/>
</g>
<g id="LWPOLYLINE_10_">
	<polygon style="fill:#FFFFFF;" points="296.93,134.882 296.93,110.079 313.465,110.079 313.465,134.882 338.268,134.882 
		338.268,151.417 313.465,151.417 313.465,176.221 296.93,176.221 296.93,151.417 272.125,151.417 272.125,134.882 	"/>
</g>
<g id="LWPOLYLINE_11_">
	<path style="fill:#FFFFFF;" d="M86.929,212.599V53.858h72.757c25.569,0,46.299,20.729,46.299,46.3
		c0,25.569-20.729,46.299-46.299,46.299h-42.993v66.142H86.929z"/>
</g>
<g id="LWPOLYLINE_12_">
	<path style="fill:#005EB8;" d="M116.693,83.622h42.993c9.132,0,16.534,7.403,16.534,16.536c0,9.132-7.402,16.535-16.534,16.535
		h-42.993V83.622z"/>
</g>
<g id="LWPOLYLINE_13_">
	<path style="fill:#005EB8;" d="M198.989,362.739h-48.844c9.863-4.776,13.986-16.645,9.21-26.507
		c-0.21-0.433-0.435-0.856-0.675-1.272h31.773c-5.479,9.491-2.228,21.626,7.264,27.105
		C198.133,362.306,198.556,362.53,198.989,362.739z"/>
</g>
<g id="LWPOLYLINE_14_">
	<path style="fill:#005EB8;" d="M265.131,362.739h-48.844c9.862-4.776,13.985-16.645,9.21-26.507
		c-0.21-0.433-0.437-0.856-0.675-1.272h31.773c-5.479,9.491-2.228,21.626,7.263,27.105
		C264.274,362.306,264.699,362.53,265.131,362.739z"/>
</g>
</svg>
