<?xml version="1.0" encoding="iso-8859-1"?>
<!-- Generator: Adobe Illustrator 16.0.0, SVG Export Plug-In . SVG Version: 6.00 Build 0)  -->
<!DOCTYPE svg PUBLIC "-//W3C//DTD SVG 1.1//EN" "http://www.w3.org/Graphics/SVG/1.1/DTD/svg11.dtd">
<svg version="1.1" id="Layer_1" xmlns="http://www.w3.org/2000/svg" xmlns:xlink="http://www.w3.org/1999/xlink" x="0px" y="0px"
	 width="425.197px" height="425.196px" viewBox="0 0 425.197 425.196" style="enable-background:new 0 0 425.197 425.196;"
	 xml:space="preserve">
<g id="LWPOLYLINE_21_">
	
		<rect x="106.773" y="331.654" style="fill:#005EB8;stroke:#005EB8;stroke-width:0.5;stroke-miterlimit:10;" width="211.65" height="79.369"/>
</g>
<g id="LWPOLYLINE_20_">
	<path style="fill:#FFFFFF;" d="M106.773,342.236c0-5.845,4.738-10.582,10.583-10.582h190.486c5.848,0,10.582,4.737,10.582,10.582
		v58.204c0,5.845-4.734,10.583-10.582,10.583H117.355c-5.844,0-10.583-4.738-10.583-10.583V342.236z"/>
</g>
<g id="LWPOLYLINE_5_">
	
		<rect x="106.773" y="14.173" style="fill:#005EB8;stroke:#005EB8;stroke-width:0.5;stroke-miterlimit:10;" width="211.65" height="317.481"/>
</g>
<g id="LWPOLYLINE_7_">
	<path style="fill:#FFFFFF;" d="M117.355,14.173h190.486c5.848,0,10.582,4.738,10.582,10.583v296.315
		c0,5.845-4.734,10.583-10.582,10.583H117.355c-5.844,0-10.583-4.738-10.583-10.583V24.756
		C106.773,18.911,111.511,14.173,117.355,14.173z"/>
</g>
<g id="LWPOLYLINE_6_">
	<path style="fill:#005EB8;" d="M117.355,19.464h190.486c2.924,0,5.291,2.371,5.291,5.292v296.315c0,2.924-2.367,5.291-5.291,5.291
		H117.355c-2.924,0-5.291-2.367-5.291-5.291V24.756C112.064,21.835,114.432,19.464,117.355,19.464z"/>
</g>
<g id="LWPOLYLINE_19_">
	<path style="fill:#005EB8;" d="M112.064,400.44v-58.204c0-2.924,2.367-5.291,5.291-5.291h190.486c2.924,0,5.291,2.367,5.291,5.291
		v58.204c0,2.924-2.367,5.292-5.291,5.292H117.355C114.432,405.732,112.064,403.364,112.064,400.44v-58.204"/>
</g>
<g id="LWPOLYLINE_8_">
	<path style="fill:#FFFFFF;" d="M174.237,311.812v-50.359c0-13.701,3.604-27.16,10.455-39.024l25.011-43.315
		c1.024-1.779,1.989-3.593,2.894-5.437c0.905,1.844,1.871,3.657,2.9,5.437l25.006,43.315c6.85,11.864,10.459,25.323,10.459,39.024
		v50.359h18.52v-50.359c0-16.951-4.463-33.605-12.938-48.284l-25.008-43.316c-6.338-10.979-9.676-23.435-9.676-36.112V85.57
		l23.811,23.813V85.062L212.598,51.99l-33.069,33.071v24.322l23.811-23.813v48.169c0,12.678-3.338,25.134-9.677,36.112
		l-25.009,43.316c-8.476,14.679-12.935,31.333-12.935,48.284v50.359H174.237z"/>
</g>
<g id="LWPOLYLINE_22_">
	<path style="fill:#FFFFFF;" d="M254.105,391.181v-21.031c0-2.193,1.775-3.972,3.967-3.972c2.189,0,3.971,1.778,3.971,3.972v21.031
		h5.947v-21.031c0-2.193,1.783-3.972,3.973-3.972s3.965,1.778,3.965,3.972v21.031h5.955v-22.222c0-4.166-3.375-7.54-7.541-7.54
		h-1.189c-2.652,0-5.256,0.698-7.553,2.027c-1.396-1.306-3.236-2.027-5.148-2.027h-1.658c-1.639,0.267-3.225,0.796-4.688,1.574
		v-1.574h-5.953v29.762H254.105z"/>
</g>
<g id="LWPOLYLINE_23_">
	<path style="fill:#FFFFFF;" d="M177.173,362.41v17.859c0,6.025,4.886,10.911,10.914,10.911c6.025,0,10.911-4.886,10.911-10.911
		V362.41c0-6.028-4.886-10.914-10.911-10.914C182.059,351.496,177.173,356.382,177.173,362.41z"/>
</g>
<g id="LWPOLYLINE_25_">
	<path style="fill:#FFFFFF;" d="M206.786,362.41v17.859c0,6.025,4.889,10.911,10.913,10.911c6.031,0,10.914-4.886,10.914-10.911
		V362.41c0-6.028-4.883-10.914-10.914-10.914C211.675,351.496,206.786,356.382,206.786,362.41z"/>
</g>
<g id="LWPOLYLINE_27_">
	<path style="fill:#FFFFFF;" d="M164.149,361.419v1.586c0,2.403-0.87,4.721-2.451,6.528c2.196,2.063,3.445,4.942,3.445,7.955v2.781
		c0,6.025-4.889,10.911-10.914,10.911c-6.028,0-10.914-4.886-10.914-10.911h5.954c0,2.737,2.22,4.96,4.96,4.96s4.96-2.223,4.96-4.96
		v-2.781c0-2.737-2.22-4.96-4.96-4.96h-1.589v-5.555h1.589c2.19,0,3.969-1.778,3.969-3.969v-1.586c0-2.193-1.779-3.972-3.969-3.972
		c-2.193,0-3.968,1.778-3.968,3.972h-5.954c0-5.48,4.442-9.923,9.922-9.923C159.707,351.496,164.149,355.938,164.149,361.419z"/>
</g>
<g id="LWPOLYLINE_9_">
	<path style="fill:#E4002B;" d="M172.915,310.489v-49.037c0-13.933,3.667-27.619,10.633-39.685l25.008-43.315
		c1.479-2.561,2.83-5.188,4.042-7.881c1.22,2.693,2.568,5.32,4.042,7.881l25.012,43.315c6.967,12.065,10.631,25.752,10.631,39.685
		v49.037h15.873v-49.037c0-16.72-4.396-33.145-12.76-47.621l-25.006-43.316c-6.459-11.184-9.855-23.864-9.855-36.775V82.377
		l23.811,23.811V85.608l-31.748-31.748l-31.746,31.748v20.579l23.811-23.811v51.362c0,12.911-3.4,25.592-9.854,36.775
		l-25.006,43.316c-8.36,14.477-12.761,30.901-12.761,47.621v49.037H172.915z"/>
</g>
<g id="LWPOLYLINE_24_">
	<path style="fill:#005EB8;" d="M193.047,362.41c0-2.74-2.223-4.963-4.96-4.963c-2.74,0-4.963,2.223-4.963,4.963v17.859
		c0,2.737,2.223,4.96,4.963,4.96c2.737,0,4.96-2.223,4.96-4.96V362.41z"/>
</g>
<g id="LWPOLYLINE_26_">
	<path style="fill:#005EB8;" d="M222.66,362.41c0-2.74-2.221-4.963-4.961-4.963s-4.959,2.223-4.959,4.963v17.859
		c0,2.737,2.219,4.96,4.959,4.96s4.961-2.223,4.961-4.96V362.41z"/>
</g>
</svg>
