<?xml version="1.0" encoding="iso-8859-1"?>
<!-- Generator: Adobe Illustrator 16.0.0, SVG Export Plug-In . SVG Version: 6.00 Build 0)  -->
<!DOCTYPE svg PUBLIC "-//W3C//DTD SVG 1.1//EN" "http://www.w3.org/Graphics/SVG/1.1/DTD/svg11.dtd">
<svg version="1.1" id="Layer_1" xmlns="http://www.w3.org/2000/svg" xmlns:xlink="http://www.w3.org/1999/xlink" x="0px" y="0px"
	 width="425.197px" height="425.196px" viewBox="0 0 425.197 425.196" style="enable-background:new 0 0 425.197 425.196;"
	 xml:space="preserve">
<g id="LWPOLYLINE">
	
		<rect x="14.174" y="14.173" style="fill:#005EB8;stroke:#005EB8;stroke-width:0.5;stroke-miterlimit:10;" width="396.849" height="396.851"/>
</g>
<g id="LWPOLYLINE_2_">
	<path style="fill:#FFFFFF;" d="M14.174,40.629v343.938c0,14.611,11.846,26.457,26.456,26.457h343.938
		c14.613,0,26.455-11.846,26.455-26.457V40.629c0-14.61-11.842-26.456-26.455-26.456H40.63
		C26.02,14.173,14.174,26.019,14.174,40.629z"/>
</g>
<g id="LWPOLYLINE_3_">
	<path style="fill:#005EB8;" d="M27.402,40.629v343.938c0,7.307,5.925,13.229,13.228,13.229h343.938
		c7.311,0,13.227-5.923,13.227-13.229V40.629c0-7.305-5.916-13.228-13.227-13.228H40.63C33.327,27.401,27.402,33.324,27.402,40.629z
		"/>
</g>
<g id="LWPOLYLINE_8_">
	<rect x="229.136" y="179.528" style="fill:#FFFFFF;" width="66.141" height="119.054"/>
</g>
<g id="LWPOLYLINE_9_">
	<rect x="53.862" y="126.614" style="fill:#FFFFFF;" width="317.477" height="26.456"/>
</g>
<g id="LWPOLYLINE_10_">
	<rect x="129.923" y="179.528" style="fill:#FFFFFF;" width="66.14" height="119.054"/>
</g>
</svg>
