<?xml version="1.0" encoding="iso-8859-1"?>
<!-- Generator: Adobe Illustrator 16.0.0, SVG Export Plug-In . SVG Version: 6.00 Build 0)  -->
<!DOCTYPE svg PUBLIC "-//W3C//DTD SVG 1.1//EN" "http://www.w3.org/Graphics/SVG/1.1/DTD/svg11.dtd">
<svg version="1.1" id="Layer_1" xmlns="http://www.w3.org/2000/svg" xmlns:xlink="http://www.w3.org/1999/xlink" x="0px" y="0px"
	 width="425.197px" height="425.196px" viewBox="0 0 425.197 425.196" style="enable-background:new 0 0 425.197 425.196;"
	 xml:space="preserve">
<g id="LWPOLYLINE_7_">
	
		<rect x="14.174" y="14.174" style="fill:#005EB8;stroke:#005EB8;stroke-width:0.5;stroke-miterlimit:10;" width="396.849" height="396.849"/>
</g>
<g id="LWPOLYLINE_21_">
	<path style="fill:#FFFFFF;" d="M14.174,40.632v343.936c0,14.612,11.842,26.455,26.455,26.455h343.938
		c14.611,0,26.455-11.843,26.455-26.455V40.632c0-14.613-11.844-26.458-26.455-26.458H40.629
		C26.017,14.174,14.174,26.019,14.174,40.632z"/>
</g>
<g id="LWPOLYLINE_22_">
	<path style="fill:#005EB8;" d="M27.402,40.632v343.936c0,7.307,5.921,13.228,13.228,13.228h343.938
		c7.301,0,13.227-5.921,13.227-13.228V40.632c0-7.307-5.926-13.23-13.227-13.23H40.629C33.323,27.401,27.402,33.325,27.402,40.632z"
		/>
</g>
<g id="LWPOLYLINE_17_">
	<polygon style="fill:#FFFFFF;" points="142.566,172.695 245.673,113.167 212.6,55.889 109.492,115.418 	"/>
</g>
<g id="LWPOLYLINE_18_">
	<polygon style="fill:#FFFFFF;" points="142.258,272.085 245.365,212.562 212.292,155.273 109.184,214.803 	"/>
</g>
<g id="LWPOLYLINE_19_">
	
		<rect x="118.054" y="279.645" transform="matrix(-0.866 0.5 -0.5 -0.866 487.7318 494.7497)" style="fill:#FFFFFF;" width="119.058" height="66.145"/>
</g>
<g id="LWPOLYLINE_20_">
	<rect x="272.128" y="53.859" style="fill:#FFFFFF;" width="26.455" height="317.48"/>
</g>
</svg>
