<?xml version="1.0" encoding="iso-8859-1"?>
<!-- Generator: Adobe Illustrator 16.0.0, SVG Export Plug-In . SVG Version: 6.00 Build 0)  -->
<!DOCTYPE svg PUBLIC "-//W3C//DTD SVG 1.1//EN" "http://www.w3.org/Graphics/SVG/1.1/DTD/svg11.dtd">
<svg version="1.1" id="Layer_1" xmlns="http://www.w3.org/2000/svg" xmlns:xlink="http://www.w3.org/1999/xlink" x="0px" y="0px"
	 width="425.197px" height="425.196px" viewBox="0 0 425.197 425.196" style="enable-background:new 0 0 425.197 425.196;"
	 xml:space="preserve">
<g id="LWPOLYLINE_3_">
	
		<rect x="14.174" y="14.173" style="fill:#005EB8;stroke:#005EB8;stroke-width:0.5;stroke-miterlimit:10;" width="396.849" height="396.851"/>
</g>
<g id="LWPOLYLINE_5_">
	<path style="fill:#FFFFFF;" d="M14.174,40.629v343.938c0,14.611,11.846,26.457,26.456,26.457h343.938
		c14.613,0,26.455-11.846,26.455-26.457V40.629c0-14.61-11.842-26.456-26.455-26.456H40.63
		C26.02,14.173,14.174,26.019,14.174,40.629z"/>
</g>
<g id="LWPOLYLINE_6_">
	<path style="fill:#005EB8;" d="M27.402,40.629v343.938c0,7.307,5.925,13.229,13.228,13.229h343.938
		c7.311,0,13.227-5.923,13.227-13.229V40.629c0-7.305-5.916-13.228-13.227-13.228H40.63C33.327,27.401,27.402,33.324,27.402,40.629z
		"/>
</g>
<g id="LWPOLYLINE_12_">
	<polygon style="fill:#FFFFFF;" points="282.634,172.695 179.53,113.168 212.604,55.889 315.708,115.416 	"/>
</g>
<g id="LWPOLYLINE_13_">
	
		<rect x="188.396" y="180.61" transform="matrix(0.866 0.5 -0.5 0.866 140.0581 -95.3347)" style="fill:#FFFFFF;" width="119.055" height="66.142"/>
</g>
<g id="LWPOLYLINE_14_">
	<polygon style="fill:#FFFFFF;" points="282.634,371.121 179.53,311.593 212.604,254.313 315.708,313.842 	"/>
</g>
<g id="LWPOLYLINE_15_">
	<rect x="126.618" y="53.859" style="fill:#FFFFFF;" width="26.456" height="317.479"/>
</g>
</svg>
