<?xml version="1.0" encoding="iso-8859-1"?>
<!-- Generator: Adobe Illustrator 16.0.0, SVG Export Plug-In . SVG Version: 6.00 Build 0)  -->
<!DOCTYPE svg PUBLIC "-//W3C//DTD SVG 1.1//EN" "http://www.w3.org/Graphics/SVG/1.1/DTD/svg11.dtd">
<svg version="1.1" id="Layer_1" xmlns="http://www.w3.org/2000/svg" xmlns:xlink="http://www.w3.org/1999/xlink" x="0px" y="0px"
	 width="425.197px" height="425.196px" viewBox="0 0 425.197 425.196" style="enable-background:new 0 0 425.197 425.196;"
	 xml:space="preserve">
<g id="LWPOLYLINE_10_">
	
		<rect x="14.171" y="14.176" style="fill:#005EB8;stroke:#005EB8;stroke-width:0.5;stroke-miterlimit:10;" width="396.854" height="396.844"/>
</g>
<g id="LWPOLYLINE_6_">
	<path style="fill:#FFFFFF;" d="M53.857,411.021h317.472c21.919,0,39.696-17.764,39.696-39.684V53.866
		c0-21.922-17.777-39.689-39.696-39.689H53.857c-21.919,0-39.686,17.767-39.686,39.689v317.471
		C14.171,393.257,31.938,411.021,53.857,411.021z"/>
</g>
<g id="LWPOLYLINE_7_">
	<path style="fill:#005EB8;" d="M53.857,391.179h317.472c10.967,0,19.855-8.881,19.855-19.842V53.866
		c0-10.963-8.889-19.845-19.855-19.845H53.857c-10.952,0-19.841,8.882-19.841,19.845v317.471
		C34.016,382.298,42.905,391.179,53.857,391.179z"/>
</g>
<g id="LWPOLYLINE_8_">
	<polygon style="fill:#FFFFFF;" points="306.841,130.842 350.247,174.233 350.247,128.656 289.483,67.892 228.718,128.67 
		228.718,174.24 272.124,130.835 272.124,330.804 306.841,330.804 	"/>
</g>
<g id="LWPOLYLINE_9_">
	<polygon style="fill:#FFFFFF;" points="116.858,293.511 73.699,250.364 73.699,295.94 134.217,356.46 194.736,295.94 
		194.736,250.364 151.577,293.517 151.577,93.548 116.858,93.548 	"/>
</g>
</svg>
