<?xml version="1.0" encoding="iso-8859-1"?>
<!-- Generator: Adobe Illustrator 16.0.0, SVG Export Plug-In . SVG Version: 6.00 Build 0)  -->
<!DOCTYPE svg PUBLIC "-//W3C//DTD SVG 1.1//EN" "http://www.w3.org/Graphics/SVG/1.1/DTD/svg11.dtd">
<svg version="1.1" id="Layer_1" xmlns="http://www.w3.org/2000/svg" xmlns:xlink="http://www.w3.org/1999/xlink" x="0px" y="0px"
	 width="425.197px" height="425.196px" viewBox="0 0 425.197 425.196" style="enable-background:new 0 0 425.197 425.196;"
	 xml:space="preserve">
<g id="LWPOLYLINE_17_">
	<rect x="14.173" y="104.364" style="fill:#FFCD00;" width="396.85" height="216.469"/>
</g>
<g id="LWPOLYLINE_9_">
	<path style="fill:#101820;" d="M48.419,111.564h328.357c14.947,0,27.059,12.118,27.059,27.059v147.945
		c0,14.947-12.111,27.059-27.059,27.059H48.419c-14.947,0-27.059-12.111-27.059-27.059V138.623
		C21.361,123.682,33.473,111.564,48.419,111.564z"/>
</g>
<g id="LWPOLYLINE_10_">
	<path style="fill:#FFCD00;" d="M48.419,125.093h328.357c7.475,0,13.529,6.062,13.529,13.529v147.945
		c0,7.475-6.055,13.529-13.529,13.529H48.419c-7.474,0-13.529-6.055-13.529-13.529V138.623
		C34.89,131.155,40.946,125.093,48.419,125.093z"/>
</g>
<g id="CIRCLE_2_">
	<path style="fill:#101820;" d="M142.304,260.702c0-10.793-8.754-19.547-19.548-19.547c-10.794,0-19.536,8.754-19.536,19.547
		c0,10.795,8.742,19.543,19.536,19.543C133.549,280.245,142.304,271.497,142.304,260.702L142.304,260.702z"/>
</g>
<g id="LWPOLYLINE_11_">
	<path style="fill:#101820;" d="M148.819,260.528h110.336c0-14.387,11.664-26.051,26.051-26.051s26.051,11.664,26.051,26.051h39.158
		c3.605,0,6.516-2.916,6.516-6.516v-88.549c0-3.855-3.121-6.982-6.977-6.982H84.667c-3.022,0-5.646,2.07-6.342,5.005l-14.338,60.136
		v36.906h32.717c0-14.387,11.664-26.051,26.051-26.051C137.143,234.478,148.819,246.142,148.819,260.528z"/>
</g>
<g id="CIRCLE_3_">
	<path style="fill:#101820;" d="M304.753,260.702c0-10.793-8.754-19.547-19.547-19.547s-19.549,8.754-19.549,19.547
		c0,10.795,8.756,19.543,19.549,19.543S304.753,271.497,304.753,260.702L304.753,260.702z"/>
</g>
<g id="LWPOLYLINE_12_">
	<rect x="296.273" y="164.991" style="fill:#FFCD00;" width="50.896" height="39.083"/>
</g>
<g id="LWPOLYLINE_13_">
	<rect x="237.642" y="164.991" style="fill:#FFCD00;" width="49.678" height="39.083"/>
</g>
<g id="LWPOLYLINE_14_">
	<polygon style="fill:#FFCD00;" points="170.059,164.991 126.921,164.991 122.383,204.073 170.059,204.073 	"/>
</g>
<g id="LWPOLYLINE_15_">
	<rect x="178.987" y="164.991" style="fill:#FFCD00;" width="49.702" height="39.083"/>
</g>
<g id="LWPOLYLINE_16_">
	<polyline style="fill:#FFCD00;" points="117.943,164.991 84.667,164.991 72.232,217.106 111.925,217.106 117.956,164.854 	"/>
</g>
</svg>
