<?xml version="1.0" encoding="iso-8859-1"?>
<!-- Generator: Adobe Illustrator 16.0.0, SVG Export Plug-In . SVG Version: 6.00 Build 0)  -->
<!DOCTYPE svg PUBLIC "-//W3C//DTD SVG 1.1//EN" "http://www.w3.org/Graphics/SVG/1.1/DTD/svg11.dtd">
<svg version="1.1" id="Layer_1" xmlns="http://www.w3.org/2000/svg" xmlns:xlink="http://www.w3.org/1999/xlink" x="0px" y="0px"
	 width="425.197px" height="425.196px" viewBox="0 0 425.197 425.196" style="enable-background:new 0 0 425.197 425.196;"
	 xml:space="preserve">
<g id="LWPOLYLINE_5_">
	<rect x="14.175" y="104.366" style="fill:#FFCD00;" width="396.847" height="216.465"/>
</g>
<g id="LWPOLYLINE_3_">
	<path style="fill:#101820;" d="M48.423,111.565h328.354c14.946,0,27.058,12.118,27.058,27.058v147.944
		c0,14.945-12.111,27.057-27.058,27.057H48.423c-14.946,0-27.061-12.111-27.061-27.057V138.624
		C21.362,123.683,33.477,111.565,48.423,111.565z"/>
</g>
<g id="LWPOLYLINE_4_">
	<path style="fill:#FFCD00;" d="M48.423,125.094h328.354c7.474,0,13.529,6.062,13.529,13.529v147.944
		c0,7.473-6.056,13.527-13.529,13.527H48.423c-7.473,0-13.529-6.055-13.529-13.527V138.624
		C34.894,131.156,40.95,125.094,48.423,125.094z"/>
</g>
<g id="LWPOLYLINE_22_">
	<path style="fill:#101820;" d="M144.146,271.888h143.398c3.171,5.354,10.072,7.119,15.419,3.961
		c1.629-0.971,2.997-2.326,3.967-3.961h6.118c3.097,5.328,9.923,7.143,15.245,4.053c2.611-1.51,4.489-4.01,5.223-6.932h27.63
		v-39.916l-10.868-36.266H164.851v-4.022l31.125-21.257l-37.255-25.354l-37.192,25.28l30.465,21.332v4.022H78.938l-10.532,38.604
		v37.578h28.687c1.654,6.068,7.908,9.656,13.977,8.008c2.835-0.771,5.26-2.611,6.777-5.129h7.225
		c3.009,5.266,9.724,7.094,14.996,4.084C141.759,274.995,143.176,273.585,144.146,271.888z"/>
</g>
<g id="LWPOLYLINE_15_">
	<polyline style="fill:#FFCD00;" points="184.871,166.745 158.794,149.137 132.346,167.18 158.421,185.665 184.871,166.745 	"/>
</g>
<g id="LWPOLYLINE_16_">
	<rect x="283.665" y="201.302" style="fill:#FFCD00;" width="37.951" height="28.959"/>
</g>
<g id="LWPOLYLINE_17_">
	<polygon style="fill:#FFCD00;" points="327.983,201.302 346.809,201.302 327.983,201.302 327.983,230.261 354.606,230.261 
		346.809,201.302 	"/>
</g>
<g id="LWPOLYLINE_18_">
	<rect x="106.929" y="201.302" style="fill:#FFCD00;" width="37.951" height="28.959"/>
</g>
<g id="LWPOLYLINE_19_">
	<rect x="195.291" y="201.302" style="fill:#FFCD00;" width="37.951" height="28.959"/>
</g>
<g id="LWPOLYLINE_20_">
	<rect x="239.484" y="201.302" style="fill:#FFCD00;" width="37.951" height="28.959"/>
</g>
<g id="LWPOLYLINE_21_">
	<rect x="151.11" y="201.302" style="fill:#FFCD00;" width="37.951" height="28.959"/>
</g>
<g id="LWPOLYLINE_23_">
	<polygon style="fill:#FFCD00;" points="100.55,201.302 81.711,201.302 74.313,230.261 100.55,230.261 	"/>
</g>
</svg>
