<?xml version="1.0" encoding="UTF-8" standalone="no"?>
<!-- Generator: Adobe Illustrator 16.0.0, SVG Export Plug-In . SVG Version: 6.00 Build 0)  -->

<svg
   xmlns:dc="http://purl.org/dc/elements/1.1/"
   xmlns:cc="http://creativecommons.org/ns#"
   xmlns:rdf="http://www.w3.org/1999/02/22-rdf-syntax-ns#"
   xmlns:svg="http://www.w3.org/2000/svg"
   xmlns="http://www.w3.org/2000/svg"
   xmlns:sodipodi="http://sodipodi.sourceforge.net/DTD/sodipodi-0.dtd"
   xmlns:inkscape="http://www.inkscape.org/namespaces/inkscape"
   version="1.1"
   id="Layer_1"
   x="0px"
   y="0px"
   width="396.854"
   height="216.46201"
   viewBox="0 0 396.85401 216.462"
   xml:space="preserve"
   sodipodi:docname="E8.svg"
   inkscape:version="0.92.5 (2060ec1f9f, 2020-04-08)"><metadata
   id="metadata3344"><rdf:RDF><cc:Work
       rdf:about=""><dc:format>image/svg+xml</dc:format><dc:type
         rdf:resource="http://purl.org/dc/dcmitype/StillImage" /></cc:Work></rdf:RDF></metadata><defs
   id="defs3342" /><sodipodi:namedview
   pagecolor="#ffffff"
   bordercolor="#666666"
   borderopacity="1"
   objecttolerance="10"
   gridtolerance="10"
   guidetolerance="10"
   inkscape:pageopacity="0"
   inkscape:pageshadow="2"
   inkscape:window-width="640"
   inkscape:window-height="480"
   id="namedview3340"
   showgrid="false"
   inkscape:zoom="0.55503813"
   inkscape:cx="198.4275"
   inkscape:cy="108.231"
   inkscape:window-x="0"
   inkscape:window-y="0"
   inkscape:window-maximized="0"
   inkscape:current-layer="Layer_1" />
<g
   id="LWPOLYLINE_5_"
   transform="translate(-14.171,-104.367)">
	<rect
   x="14.171"
   y="104.367"
   style="fill:#ffcd00"
   width="396.854"
   height="216.46201"
   id="rect3315" />
</g>
<g
   id="LWPOLYLINE_3_"
   transform="translate(-14.171,-104.367)">
	<path
   style="fill:#101820"
   d="m 48.426,111.569 h 328.348 c 14.941,0 27.063,12.121 27.063,27.063 V 286.58 c 0,14.941 -12.121,27.049 -27.063,27.049 H 48.426 c -14.954,0 -27.06,-12.107 -27.06,-27.049 V 138.631 c 0.001,-14.941 12.106,-27.062 27.06,-27.062 z"
   id="path3318"
   inkscape:connector-curvature="0" />
</g>
<g
   id="LWPOLYLINE_4_"
   transform="translate(-14.171,-104.367)">
	<path
   style="fill:#ffcd00"
   d="m 48.426,125.1 h 328.348 c 7.478,0 13.524,6.054 13.524,13.531 v 147.948 c 0,7.463 -6.047,13.523 -13.524,13.523 H 48.426 c -7.478,0 -13.538,-6.061 -13.538,-13.523 V 138.631 c 0,-7.477 6.061,-13.531 13.538,-13.531 z"
   id="path3321"
   inkscape:connector-curvature="0" />
</g>
<g
   id="LWPOLYLINE_18_"
   transform="translate(-14.171,-104.367)">
	<polygon
   style="fill:#101820"
   points="201.921,242.751 175.134,242.751 171.002,258.112 157.176,258.112 181.274,167.951 194.235,167.951 220.064,258.112 206.342,258.112 "
   id="polygon3324" />
</g>
<g
   id="LWPOLYLINE_17_"
   transform="translate(-14.171,-104.367)">
	<polygon
   style="fill:#ffcd00"
   points="178.584,229.69 198.275,229.69 188.187,193.878 "
   id="polygon3327" />
</g>
<g
   id="LWPOLYLINE_19_"
   transform="translate(-14.171,-104.367)">
	<polygon
   style="fill:#101820"
   points="91.506,180.531 114.831,180.531 114.831,258.112 127.792,258.112 127.792,180.531 150.262,180.531 150.262,167.951 91.506,167.951 "
   id="polygon3330" />
</g>
<g
   id="LWPOLYLINE_20_"
   transform="translate(-14.171,-104.367)">
	<rect
   x="312.44199"
   y="167.951"
   style="fill:#101820"
   width="13.053"
   height="90.162003"
   id="rect3333" />
</g>
<g
   id="LWPOLYLINE_21_"
   transform="translate(-14.171,-104.367)">
	<polygon
   style="fill:#101820"
   points="261.176,227.39 247.193,258.112 231.871,258.112 253.515,210.538 234.126,167.918 249.449,167.918 261.176,193.688 272.904,167.918 288.239,167.918 268.851,210.538 290.496,258.112 275.161,258.112 "
   id="polygon3336" />
</g>
</svg>