<?xml version="1.0" encoding="UTF-8" standalone="no"?>
<!-- Generator: Adobe Illustrator 16.0.0, SVG Export Plug-In . SVG Version: 6.00 Build 0)  -->

<svg
   xmlns:dc="http://purl.org/dc/elements/1.1/"
   xmlns:cc="http://creativecommons.org/ns#"
   xmlns:rdf="http://www.w3.org/1999/02/22-rdf-syntax-ns#"
   xmlns:svg="http://www.w3.org/2000/svg"
   xmlns="http://www.w3.org/2000/svg"
   xmlns:sodipodi="http://sodipodi.sourceforge.net/DTD/sodipodi-0.dtd"
   xmlns:inkscape="http://www.inkscape.org/namespaces/inkscape"
   version="1.1"
   id="Layer_1"
   x="0px"
   y="0px"
   width="397.354"
   height="397.35101"
   viewBox="0 0 397.35401 397.351"
   xml:space="preserve"
   sodipodi:docname="E9.1.svg"
   inkscape:version="0.92.5 (2060ec1f9f, 2020-04-08)"><metadata
   id="metadata3384"><rdf:RDF><cc:Work
       rdf:about=""><dc:format>image/svg+xml</dc:format><dc:type
         rdf:resource="http://purl.org/dc/dcmitype/StillImage" /></cc:Work></rdf:RDF></metadata><defs
   id="defs3382" /><sodipodi:namedview
   pagecolor="#ffffff"
   bordercolor="#666666"
   borderopacity="1"
   objecttolerance="10"
   gridtolerance="10"
   guidetolerance="10"
   inkscape:pageopacity="0"
   inkscape:pageshadow="2"
   inkscape:window-width="640"
   inkscape:window-height="480"
   id="namedview3380"
   showgrid="false"
   inkscape:zoom="0.55503813"
   inkscape:cx="198.6775"
   inkscape:cy="198.67601"
   inkscape:window-x="0"
   inkscape:window-y="0"
   inkscape:window-maximized="0"
   inkscape:current-layer="Layer_1" />
<g
   id="LWPOLYLINE_18_"
   transform="translate(-13.921,-13.923)">
	
		<rect
   x="14.171"
   y="14.173"
   style="fill:#005eb8;stroke:#005eb8;stroke-width:0.5;stroke-miterlimit:10"
   width="396.854"
   height="396.85101"
   id="rect3346" />
</g>
<g
   id="LWPOLYLINE_3_"
   transform="translate(-13.921,-13.923)">
	<path
   style="fill:#ffffff"
   d="m 31.811,14.173 c -9.743,0 -17.64,7.896 -17.64,17.637 v 361.58 c 0,9.743 7.896,17.634 17.64,17.634 h 361.574 c 9.738,0 17.64,-7.891 17.64,-17.634 V 31.81 c 0,-9.74 -7.901,-17.637 -17.64,-17.637 z"
   id="path3349"
   inkscape:connector-curvature="0" />
</g>
<g
   id="LWPOLYLINE_17_"
   transform="translate(-13.921,-13.923)">
	<path
   style="fill:#005eb8"
   d="M 402.405,393.358 V 31.782 c 0,-4.869 -3.95,-8.82 -8.825,-8.82 H 32.006 c -4.869,0 -8.82,3.951 -8.82,8.82 v 361.576 c 0,4.869 3.951,8.82 8.82,8.82 H 393.58 c 4.875,10e-4 8.825,-3.95 8.825,-8.82 z"
   id="path3352"
   inkscape:connector-curvature="0" />
</g>
<g
   id="CIRCLE_2_"
   transform="translate(-13.921,-13.923)">
	<path
   style="fill:#ffffff"
   d="m 145.941,252.813 c 0,-10.56 -8.558,-19.112 -19.106,-19.112 -10.548,0 -19.106,8.553 -19.106,19.112 0,10.548 8.558,19.106 19.106,19.106 10.548,0 19.106,-8.558 19.106,-19.106 z"
   id="path3355"
   inkscape:connector-curvature="0" />
</g>
<g
   id="CIRCLE_3_"
   transform="translate(-13.921,-13.923)">
	<path
   style="fill:#ffffff"
   d="m 304.778,252.813 c 0,-10.56 -8.548,-19.112 -19.106,-19.112 -10.549,0 -19.107,8.553 -19.107,19.112 0,10.548 8.559,19.106 19.107,19.106 10.558,0.001 19.106,-8.558 19.106,-19.106 z"
   id="path3358"
   inkscape:connector-curvature="0" />
</g>
<g
   id="LWPOLYLINE_11_"
   transform="translate(-13.921,-13.923)">
	<path
   style="fill:#ffffff"
   d="M 101.355,252.813 H 69.371 v -36.09 l 14.017,-58.804 c 0.688,-2.867 3.253,-4.889 6.198,-4.889 h 259.398 c 3.766,0 6.824,3.053 6.824,6.823 v 86.586 c 0,3.521 -2.854,6.373 -6.373,6.373 H 311.15 c 0,-14.074 -11.41,-25.479 -25.479,-25.479 -14.069,0 -25.479,11.405 -25.479,25.479 H 152.314 c 0,-14.074 -11.411,-25.479 -25.479,-25.479 -14.068,0 -25.48,11.406 -25.48,25.48 z"
   id="path3361"
   inkscape:connector-curvature="0" />
</g>
<g
   id="LWPOLYLINE_12_"
   transform="translate(-13.921,-13.923)">
	<polygon
   style="fill:#005eb8"
   points="77.436,210.352 89.585,159.398 122.125,159.398 116.245,210.352 "
   id="polygon3364" />
</g>
<g
   id="LWPOLYLINE_13_"
   transform="translate(-13.921,-13.923)">
	<polygon
   style="fill:#005eb8"
   points="173.093,197.611 126.496,197.611 130.898,159.398 173.093,159.398 "
   id="polygon3367" />
</g>
<g
   id="LWPOLYLINE_14_"
   transform="translate(-13.921,-13.923)">
	<rect
   x="181.815"
   y="159.39799"
   style="fill:#005eb8"
   width="48.598999"
   height="38.213001"
   id="rect3370" />
</g>
<g
   id="LWPOLYLINE_15_"
   transform="translate(-13.921,-13.923)">
	<rect
   x="239.16701"
   y="159.39799"
   style="fill:#005eb8"
   width="48.567001"
   height="38.213001"
   id="rect3373" />
</g>
<g
   id="LWPOLYLINE_16_"
   transform="translate(-13.921,-13.923)">
	<rect
   x="296.49701"
   y="159.39799"
   style="fill:#005eb8"
   width="49.757999"
   height="38.213001"
   id="rect3376" />
</g>
</svg>