<?xml version="1.0" encoding="iso-8859-1"?>
<!-- Generator: Adobe Illustrator 16.0.0, SVG Export Plug-In . SVG Version: 6.00 Build 0)  -->
<!DOCTYPE svg PUBLIC "-//W3C//DTD SVG 1.1//EN" "http://www.w3.org/Graphics/SVG/1.1/DTD/svg11.dtd">
<svg version="1.1" id="Layer_1" xmlns="http://www.w3.org/2000/svg" xmlns:xlink="http://www.w3.org/1999/xlink" x="0px" y="0px"
	 width="425.197px" height="425.196px" viewBox="0 0 425.197 425.196" style="enable-background:new 0 0 425.197 425.196;"
	 xml:space="preserve">
<g id="LWPOLYLINE_18_">
	
		<rect x="14.171" y="14.173" style="fill:#005EB8;stroke:#005EB8;stroke-width:0.5;stroke-miterlimit:10;" width="396.854" height="396.851"/>
</g>
<g id="LWPOLYLINE_3_">
	<path style="fill:#FFFFFF;" d="M31.811,14.173c-9.743,0-17.64,7.896-17.64,17.637v361.58c0,9.743,7.896,17.634,17.64,17.634
		h361.574c9.738,0,17.64-7.891,17.64-17.634V31.81c0-9.74-7.901-17.637-17.64-17.637H31.811z"/>
</g>
<g id="LWPOLYLINE_17_">
	<path style="fill:#005EB8;" d="M402.405,393.358V31.782c0-4.869-3.95-8.82-8.825-8.82H32.006c-4.869,0-8.82,3.951-8.82,8.82
		v361.576c0,4.869,3.951,8.82,8.82,8.82H393.58C398.455,402.179,402.405,398.228,402.405,393.358z"/>
</g>
<g id="CIRCLE_2_">
	<path style="fill:#FFFFFF;" d="M145.941,252.813c0-10.56-8.558-19.112-19.106-19.112s-19.106,8.553-19.106,19.112
		c0,10.548,8.558,19.106,19.106,19.106S145.941,263.361,145.941,252.813L145.941,252.813z"/>
</g>
<g id="CIRCLE_3_">
	<path style="fill:#FFFFFF;" d="M304.778,252.813c0-10.56-8.548-19.112-19.106-19.112c-10.549,0-19.107,8.553-19.107,19.112
		c0,10.548,8.559,19.106,19.107,19.106C296.23,271.92,304.778,263.361,304.778,252.813L304.778,252.813z"/>
</g>
<g id="LWPOLYLINE_11_">
	<path style="fill:#FFFFFF;" d="M101.355,252.813H69.371v-36.09l14.017-58.804c0.688-2.867,3.253-4.889,6.198-4.889h259.398
		c3.766,0,6.824,3.053,6.824,6.823v86.586c0,3.521-2.854,6.373-6.373,6.373H311.15c0-14.074-11.41-25.479-25.479-25.479
		c-14.069,0-25.479,11.405-25.479,25.479H152.314c0-14.074-11.411-25.479-25.479-25.479S101.355,238.739,101.355,252.813z"/>
</g>
<g id="LWPOLYLINE_12_">
	<polygon style="fill:#005EB8;" points="122.125,159.398 116.245,210.352 77.436,210.352 89.585,159.398 	"/>
</g>
<g id="LWPOLYLINE_13_">
	<polygon style="fill:#005EB8;" points="130.898,159.398 173.093,159.398 173.093,197.611 126.496,197.611 	"/>
</g>
<g id="LWPOLYLINE_14_">
	<rect x="181.815" y="159.398" style="fill:#005EB8;" width="48.599" height="38.213"/>
</g>
<g id="LWPOLYLINE_15_">
	<rect x="239.167" y="159.398" style="fill:#005EB8;" width="48.567" height="38.213"/>
</g>
<g id="LWPOLYLINE_16_">
	<rect x="296.497" y="159.398" style="fill:#005EB8;" width="49.758" height="38.213"/>
</g>
</svg>
