<?xml version="1.0" encoding="UTF-8" standalone="no"?>
<!-- Generator: Adobe Illustrator 16.0.0, SVG Export Plug-In . SVG Version: 6.00 Build 0)  -->

<svg
   xmlns:dc="http://purl.org/dc/elements/1.1/"
   xmlns:cc="http://creativecommons.org/ns#"
   xmlns:rdf="http://www.w3.org/1999/02/22-rdf-syntax-ns#"
   xmlns:svg="http://www.w3.org/2000/svg"
   xmlns="http://www.w3.org/2000/svg"
   xmlns:sodipodi="http://sodipodi.sourceforge.net/DTD/sodipodi-0.dtd"
   xmlns:inkscape="http://www.inkscape.org/namespaces/inkscape"
   version="1.1"
   id="Layer_1"
   x="0px"
   y="0px"
   width="397.353"
   height="250.015"
   viewBox="0 0 397.35301 250.01499"
   xml:space="preserve"
   sodipodi:docname="F1.1.svg"
   inkscape:version="0.92.5 (2060ec1f9f, 2020-04-08)"><metadata
   id="metadata211"><rdf:RDF><cc:Work
       rdf:about=""><dc:format>image/svg+xml</dc:format><dc:type
         rdf:resource="http://purl.org/dc/dcmitype/StillImage" /></cc:Work></rdf:RDF></metadata><defs
   id="defs209" /><sodipodi:namedview
   pagecolor="#ffffff"
   bordercolor="#666666"
   borderopacity="1"
   objecttolerance="10"
   gridtolerance="10"
   guidetolerance="10"
   inkscape:pageopacity="0"
   inkscape:pageshadow="2"
   inkscape:window-width="640"
   inkscape:window-height="480"
   id="namedview207"
   showgrid="false"
   inkscape:zoom="0.55503813"
   inkscape:cx="198.6765"
   inkscape:cy="125.008"
   inkscape:window-x="0"
   inkscape:window-y="0"
   inkscape:window-maximized="0"
   inkscape:current-layer="Layer_1" />
<g
   id="LWPOLYLINE_218_"
   transform="translate(-13.922,-87.591003)">
	
		<rect
   x="14.172"
   y="87.841003"
   style="fill:#005eb8;stroke:#005eb8;stroke-width:0.5;stroke-miterlimit:10"
   width="396.853"
   height="249.515"
   id="rect2" />
</g>
<g
   id="LWPOLYLINE_216_"
   transform="translate(-13.922,-87.591003)">
	<path
   style="fill:#ffffff"
   d="m 20.185,87.841 h 384.823 c 3.323,0 6.018,2.694 6.018,6.013 v 237.489 c 0,3.319 -2.694,6.013 -6.018,6.013 H 20.185 c -3.323,0 -6.013,-2.693 -6.013,-6.013 V 93.854 c 0,-3.319 2.689,-6.013 6.013,-6.013 z"
   id="path5"
   inkscape:connector-curvature="0" />
</g>
<g
   id="LWPOLYLINE_217_"
   transform="translate(-13.922,-87.591003)">
	<path
   style="fill:#005eb8"
   d="m 20.185,90.845 h 384.823 c 1.662,0 3.009,1.347 3.009,3.008 v 237.489 c 0,1.657 -1.347,3.004 -3.009,3.004 H 20.185 c -1.662,0 -3.008,-1.347 -3.008,-3.004 V 93.854 c -0.001,-1.662 1.346,-3.009 3.008,-3.009 z"
   id="path8"
   inkscape:connector-curvature="0" />
</g>
<g
   id="LWPOLYLINE_177_"
   transform="translate(-13.922,-87.591003)">
	<polygon
   style="fill:#ffffff"
   points="255.59,302.032 255.59,319.068 262.604,319.068 262.604,322.072 252.582,322.072 252.582,302.032 "
   id="polygon11" />
</g>
<g
   id="LWPOLYLINE_178_"
   transform="translate(-13.922,-87.591003)">
	<path
   style="fill:#ffffff"
   d="m 266.015,315.562 c 0,3.595 2.912,6.511 6.506,6.511 3.604,0 6.516,-2.916 6.516,-6.511 v -13.529 h -3.008 v 13.529 c 0,1.933 -1.565,3.507 -3.508,3.507 -1.933,0 -3.507,-1.574 -3.507,-3.507 v -13.529 h -2.999 z"
   id="path14"
   inkscape:connector-curvature="0" />
</g>
<g
   id="LWPOLYLINE_179_"
   transform="translate(-13.922,-87.591003)">
	<polygon
   style="fill:#ffffff"
   points="288.858,313.052 288.858,322.072 285.85,322.072 285.85,302.032 288.858,302.032 288.858,310.048 295.873,310.048 295.873,302.032 298.88,302.032 298.88,322.072 295.873,322.072 295.873,313.052 "
   id="polygon17" />
</g>
<g
   id="LWPOLYLINE_181_"
   transform="translate(-13.922,-87.591003)">
	<polygon
   style="fill:#ffffff"
   points="361.717,302.032 365.128,302.032 370.437,322.072 367.227,322.072 366.326,318.666 360.51,318.666 359.61,322.072 356.409,322.072 "
   id="polygon20" />
</g>
<g
   id="LWPOLYLINE_183_"
   transform="translate(-13.922,-87.591003)">
	<polygon
   style="fill:#ffffff"
   points="308.606,302.032 312.007,302.032 317.325,322.072 314.116,322.072 313.214,318.666 307.399,318.666 306.498,322.072 303.289,322.072 "
   id="polygon23" />
</g>
<g
   id="LWPOLYLINE_184_"
   transform="translate(-13.922,-87.591003)">
	<polygon
   style="fill:#ffffff"
   points="324.741,302.032 331.755,315.562 331.755,302.032 334.754,302.032 334.754,322.072 331.755,322.072 324.741,308.543 324.741,322.072 321.733,322.072 321.733,302.032 "
   id="polygon26" />
</g>
<g
   id="LWPOLYLINE_185_"
   transform="translate(-13.922,-87.591003)">
	<polygon
   style="fill:#ffffff"
   points="341.577,322.072 341.577,302.032 344.576,302.032 344.576,311.652 350.996,302.032 354.598,302.032 348.887,310.55 354.598,322.072 351.197,322.072 346.981,313.454 344.576,317.062 344.576,322.072 "
   id="polygon29" />
</g>
<g
   id="LWPOLYLINE_187_"
   transform="translate(-13.922,-87.591003)">
	<rect
   x="294.67401"
   y="254.929"
   style="fill:#ffffff"
   width="60.125"
   height="35.074001"
   id="rect32" />
</g>
<g
   id="LWPOLYLINE_188_"
   transform="translate(-13.922,-87.591003)">
	<path
   style="fill:#101820"
   d="m 299.685,289.001 h 50.104 c 2.213,0 4.014,-1.793 4.014,-4.005 V 259.94 c 0,-2.213 -1.801,-4.011 -4.014,-4.011 h -50.104 c -2.213,0 -4.014,1.798 -4.014,4.011 v 25.056 c 0,2.212 1.801,4.005 4.014,4.005 z"
   id="path35"
   inkscape:connector-curvature="0" />
</g>
<g
   id="LWPOLYLINE_189_"
   transform="translate(-13.922,-87.591003)">
	<path
   style="fill:#ffffff"
   d="m 299.685,286.999 h 50.104 c 1.11,0 2.002,-0.901 2.002,-2.003 V 259.94 c 0,-1.111 -0.892,-2.003 -2.002,-2.003 h -50.104 c -1.11,0 -2.003,0.892 -2.003,2.003 v 25.056 c 0,1.102 0.893,2.003 2.003,2.003 z"
   id="path38"
   inkscape:connector-curvature="0" />
</g>
<g
   id="LWPOLYLINE_211_"
   transform="translate(-13.922,-87.591003)">
	<path
   style="fill:#101820"
   d="m 332.306,276.977 c 0,3.043 2.466,5.51 5.51,5.51 3.043,0 5.51,-2.467 5.51,-5.51 v -9.017 c 0,-3.048 -2.467,-5.515 -5.51,-5.515 -3.044,0 -5.51,2.467 -5.51,5.515 z"
   id="path41"
   inkscape:connector-curvature="0" />
</g>
<g
   id="LWPOLYLINE_209_"
   transform="translate(-13.922,-87.591003)">
	<path
   style="fill:#101820"
   d="m 306.148,276.977 v -3.136 c 0.717,-4.163 2.458,-8.081 5.081,-11.396 h 4.006 c -2.309,2.335 -4.075,5.155 -5.178,8.252 0.525,-0.157 1.059,-0.236 1.601,-0.236 3.044,0 5.51,2.466 5.51,5.514 v 1.002 c 0,3.043 -2.466,5.51 -5.51,5.51 -3.043,-0.001 -5.51,-2.467 -5.51,-5.51 z"
   id="path44"
   inkscape:connector-curvature="0" />
</g>
<g
   id="LWPOLYLINE_153_"
   transform="translate(-13.922,-87.591003)">
	<polygon
   style="fill:#ffffff"
   points="201.473,103.124 201.473,120.16 208.487,120.16 208.487,123.168 198.464,123.168 198.464,103.124 "
   id="polygon47" />
</g>
<g
   id="LWPOLYLINE_155_"
   transform="translate(-13.922,-87.591003)">
	<polygon
   style="fill:#ffffff"
   points="216.804,103.124 220.214,103.124 225.523,123.168 222.314,123.168 221.413,119.758 215.606,119.758 214.705,123.168 211.496,123.168 "
   id="polygon50" />
</g>
<g
   id="LWPOLYLINE_156_"
   transform="translate(-13.922,-87.591003)">
	<polygon
   style="fill:#ffffff"
   points="232.939,114.147 232.939,123.168 229.931,123.168 229.931,103.124 232.939,103.124 232.939,111.144 239.953,111.144 239.953,103.124 242.961,103.124 242.961,123.168 239.953,123.168 239.953,114.147 "
   id="polygon53" />
</g>
<g
   id="LWPOLYLINE_157_"
   transform="translate(-13.922,-87.591003)">
	<polygon
   style="fill:#ffffff"
   points="259.796,106.132 254.786,106.132 254.786,123.168 251.777,123.168 251.777,106.132 246.766,106.132 246.766,103.124 259.796,103.124 "
   id="polygon56" />
</g>
<g
   id="LWPOLYLINE_158_"
   transform="translate(-13.922,-87.591003)">
	<rect
   x="263.60999"
   y="103.124"
   style="fill:#ffffff"
   width="3"
   height="20.044001"
   id="rect59" />
</g>
<g
   id="LWPOLYLINE_190_"
   transform="translate(-13.922,-87.591003)">
	<path
   style="fill:#ffffff"
   d="m 226.022,170.272 h 52.114 c 2.213,0 4.006,-1.798 4.006,-4.01 v -27.059 c 0,-2.217 -1.793,-4.01 -4.006,-4.01 h -52.114 c -2.213,0 -4.006,1.793 -4.006,4.01 v 27.059 c 0,2.213 1.793,4.01 4.006,4.01 z"
   id="path62"
   inkscape:connector-curvature="0" />
</g>
<g
   id="LWPOLYLINE_159_"
   transform="translate(-13.922,-87.591003)">
	<path
   style="fill:#ffffff"
   d="m 186.938,170.268 h 27.059 c 2.213,0 4.014,-1.797 4.014,-4.01 v -27.059 c 0,-2.213 -1.801,-4.006 -4.014,-4.006 h -27.059 c -2.213,0 -4.006,1.793 -4.006,4.006 v 27.059 c 0,2.213 1.793,4.01 4.006,4.01 z"
   id="path65"
   inkscape:connector-curvature="0" />
</g>
<g
   id="LWPOLYLINE_160_"
   transform="translate(-13.922,-87.591003)">
	<path
   style="fill:#e4002b"
   d="m 186.938,168.261 h 27.059 c 1.11,0 2.003,-0.893 2.003,-2.003 v -27.059 c 0,-1.106 -0.893,-2.003 -2.003,-2.003 h -27.059 c -1.102,0 -2.003,0.896 -2.003,2.003 v 27.059 c 0,1.11 0.901,2.003 2.003,2.003 z"
   id="path68"
   inkscape:connector-curvature="0" />
</g>
<g
   id="LWPOLYLINE_161_"
   transform="translate(-13.922,-87.591003)">
	<polygon
   style="fill:#ffffff"
   points="204.883,155.711 206.484,155.711 206.484,158.719 204.883,158.719 204.883,162.733 201.875,162.733 201.875,158.719 194.458,158.719 194.458,155.711 201.341,142.688 204.883,142.688 "
   id="polygon71" />
</g>
<g
   id="LWPOLYLINE_191_"
   transform="translate(-13.922,-87.591003)">
	<path
   style="fill:#009775"
   d="m 226.022,168.265 h 52.114 c 1.11,0 2.003,-0.896 2.003,-2.002 v -27.059 c 0,-1.106 -0.893,-2.007 -2.003,-2.007 h -52.114 c -1.103,0 -2.003,0.901 -2.003,2.007 v 27.059 c 0,1.105 0.9,2.002 2.003,2.002 z"
   id="path74"
   inkscape:connector-curvature="0" />
</g>
<g
   id="LWPOLYLINE_163_"
   transform="translate(-13.922,-87.591003)">
	<polygon
   style="fill:#ffffff"
   points="252.582,242.4 252.582,222.36 255.59,222.36 255.59,231.98 262,222.36 265.613,222.36 259.902,230.879 265.613,242.4 262.202,242.4 257.996,233.782 255.59,237.394 255.59,242.4 "
   id="polygon77" />
</g>
<g
   id="LWPOLYLINE_165_"
   transform="translate(-13.922,-87.591003)">
	<path
   style="fill:#ffffff"
   d="m 281.241,235.89 v -7.019 c 0,-3.599 -2.912,-6.511 -6.516,-6.511 -3.594,0 -6.507,2.912 -6.507,6.511 v 7.019 c 0,3.595 2.913,6.511 6.507,6.511 3.604,-0.001 6.516,-2.917 6.516,-6.511 z"
   id="path80"
   inkscape:connector-curvature="0" />
</g>
<g
   id="LWPOLYLINE_166_"
   transform="translate(-13.922,-87.591003)">
	<path
   style="fill:#ffffff"
   d="m 289.461,233.38 v 9.021 h -3.009 v -20.04 h 6.918 c 2.825,0 5.107,2.287 5.107,5.107 v 0.805 c 0,2.151 -1.347,4.075 -3.367,4.806 l 3.367,9.322 h -3.2 l -3.263,-9.021 z"
   id="path83"
   inkscape:connector-curvature="0" />
</g>
<g
   id="LWPOLYLINE_169_"
   transform="translate(-13.922,-87.591003)">
	<path
   style="fill:#ffffff"
   d="m 306.498,233.38 h 3.91 c 2.824,0 5.106,-2.287 5.106,-5.107 v -0.805 c 0,-2.82 -2.282,-5.107 -5.106,-5.107 h -6.918 v 20.04 h 3.008 z"
   id="path86"
   inkscape:connector-curvature="0" />
</g>
<g
   id="LWPOLYLINE_170_"
   transform="translate(-13.922,-87.591003)">
	<rect
   x="319.73001"
   y="222.36"
   style="fill:#ffffff"
   width="3"
   height="20.040001"
   id="rect89" />
</g>
<g
   id="LWPOLYLINE_171_"
   transform="translate(-13.922,-87.591003)">
	<polygon
   style="fill:#ffffff"
   points="332.551,222.36 332.551,239.396 339.565,239.396 339.565,242.4 329.551,242.4 329.551,222.36 "
   id="polygon92" />
</g>
<g
   id="LWPOLYLINE_173_"
   transform="translate(-13.922,-87.591003)">
	<polygon
   style="fill:#ffffff"
   points="347.89,222.36 351.292,222.36 356.601,242.4 353.4,242.4 352.5,238.994 346.684,238.994 345.783,242.4 342.574,242.4 "
   id="polygon95" />
</g>
<g
   id="LWPOLYLINE_174_"
   transform="translate(-13.922,-87.591003)">
	<polygon
   style="fill:#ffffff"
   points="364.017,233.38 364.017,242.4 361.017,242.4 361.017,222.36 364.017,222.36 364.017,230.376 371.04,230.376 371.04,222.36 374.04,222.36 374.04,242.4 371.04,242.4 371.04,233.38 "
   id="polygon98" />
</g>
<g
   id="LWPOLYLINE_175_"
   transform="translate(-13.922,-87.591003)">
	<polygon
   style="fill:#ffffff"
   points="390.875,225.364 385.873,225.364 385.873,242.4 382.864,242.4 382.864,225.364 377.853,225.364 377.853,222.36 390.875,222.36 "
   id="polygon101" />
</g>
<g
   id="LWPOLYLINE_176_"
   transform="translate(-13.922,-87.591003)">
	<rect
   x="394.68799"
   y="222.36"
   style="fill:#ffffff"
   width="3.0090001"
   height="20.040001"
   id="rect104" />
</g>
<g
   id="LWPOLYLINE_207_"
   transform="translate(-13.922,-87.591003)">
	<rect
   x="27.5"
   y="214.341"
   style="fill:#ffffff"
   width="184.992"
   height="36.075001"
   id="rect107" />
</g>
<g
   id="LWPOLYLINE_220_"
   transform="translate(-13.922,-87.591003)">
	<path
   style="fill:#101820"
   d="m 31.505,216.344 h 176.981 c 1.11,0 2.003,0.9 2.003,2.007 v 28.061 c 0,1.105 -0.893,2.002 -2.003,2.002 H 31.505 c -1.106,0 -2.002,-0.896 -2.002,-2.002 v -28.061 c 0,-1.107 0.896,-2.007 2.002,-2.007 z"
   id="path110"
   inkscape:connector-curvature="0" />
</g>
<g
   id="LWPOLYLINE_194_"
   transform="translate(-13.922,-87.591003)">
	<polygon
   style="fill:#ffffff"
   points="55.258,222.36 58.665,222.36 63.978,242.4 60.768,242.4 59.867,238.994 54.056,238.994 53.155,242.4 49.946,242.4 "
   id="polygon113" />
</g>
<g
   id="LWPOLYLINE_206_"
   transform="translate(-13.922,-87.591003)">
	<polygon
   style="fill:#ffffff"
   points="195.762,222.36 199.164,222.36 204.481,242.4 201.272,242.4 200.371,238.994 194.555,238.994 193.654,242.4 190.445,242.4 "
   id="polygon116" />
</g>
<g
   id="LWPOLYLINE_203_"
   transform="translate(-13.922,-87.591003)">
	<path
   style="fill:#ffffff"
   d="m 178.822,233.38 v 9.021 h -3.008 v -20.04 h 6.917 c 2.825,0 5.107,2.287 5.107,5.107 v 0.805 c 0,2.151 -1.347,4.075 -3.367,4.806 l 3.367,9.322 h -3.201 l -3.262,-9.021 z"
   id="path119"
   inkscape:connector-curvature="0" />
</g>
<g
   id="LWPOLYLINE_200_"
   transform="translate(-13.922,-87.591003)">
	<polygon
   style="fill:#ffffff"
   points="146.656,222.36 150.058,222.36 155.375,242.4 152.166,242.4 151.265,238.994 145.449,238.994 144.548,242.4 141.347,242.4 "
   id="polygon122" />
</g>
<g
   id="LWPOLYLINE_202_"
   transform="translate(-13.922,-87.591003)">
	<polygon
   style="fill:#ffffff"
   points="162.687,222.36 166.097,222.36 171.406,242.4 168.205,242.4 167.295,238.994 161.488,238.994 160.587,242.4 157.378,242.4 "
   id="polygon125" />
</g>
<g
   id="LWPOLYLINE_186_"
   transform="translate(-13.922,-87.591003)">
	<path
   style="fill:#ffffff"
   d="m 236.551,269.145 v -63.903 -13.049 l 10.014,10.022 v -10.123 l -14.028,-13.826 -14.027,14.027 v 9.922 l 10.022,-10.022 v 13.049 63.903 c -1.286,-0.455 -2.642,-0.687 -4.015,-0.687 h -32.166 l 10.022,-10.022 h -9.917 l -14.037,14.028 14.037,14.032 h 9.917 l -10.022,-10.019 h 32.166 c 2.222,0 4.015,1.793 4.015,4.006 v 53.863 h 8.02 v -53.863 c 0,-2.213 1.793,-4.006 4.005,-4.006 h 32.166 l -10.021,10.019 h 9.926 l 14.027,-14.032 -14.027,-14.028 h -9.926 l 10.021,10.022 h -32.166 c -1.365,0 -2.721,0.231 -4.006,0.687 z"
   id="path128"
   inkscape:connector-curvature="0" />
</g>
<g
   id="LWPOLYLINE_208_"
   transform="translate(-13.922,-87.591003)">
	<path
   style="fill:#ffffff"
   d="m 309.157,276.977 c 0,1.382 1.119,2.505 2.501,2.505 1.382,0 2.51,-1.123 2.51,-2.505 v -1.002 c 0,-1.386 -1.128,-2.505 -2.51,-2.505 -1.382,0 -2.501,1.119 -2.501,2.505 z"
   id="path131"
   inkscape:connector-curvature="0" />
</g>
<g
   id="LWPOLYLINE_212_"
   transform="translate(-13.922,-87.591003)">
	<path
   style="fill:#ffffff"
   d="m 335.306,276.977 c 0,1.382 1.128,2.505 2.51,2.505 1.382,0 2.501,-1.123 2.501,-2.505 v -9.017 c 0,-1.387 -1.119,-2.511 -2.501,-2.511 -1.382,0 -2.51,1.124 -2.51,2.511 z"
   id="path134"
   inkscape:connector-curvature="0" />
</g>
<g
   id="LWPOLYLINE_213_"
   transform="translate(-13.922,-87.591003)">
	<polygon
   style="fill:#ffffff"
   points="241.309,159.747 233.289,159.747 233.289,153.734 238.703,153.734 238.703,150.726 233.289,150.726 233.289,145.714 241.309,145.714 241.309,142.71 230.281,142.71 230.281,162.751 241.309,162.751 "
   id="polygon137" />
</g>
<g
   id="LWPOLYLINE_214_"
   transform="translate(-13.922,-87.591003)">
	<path
   style="fill:#ffffff"
   d="m 248.821,142.71 v 3.004 h 6.638 c -0.314,1.609 -0.804,3.179 -1.46,4.679 -1.225,3.043 -1.854,6.288 -1.854,9.567 v 2.79 h 3.009 v -3.791 c 0,-3.346 0.639,-6.655 1.872,-9.76 0.69,-2.099 1.102,-4.281 1.215,-6.489 z"
   id="path140"
   inkscape:connector-curvature="0" />
</g>
<g
   id="LWPOLYLINE_215_"
   transform="translate(-13.922,-87.591003)">
	<path
   style="fill:#ffffff"
   d="m 262.858,157.241 c 0,3.043 2.466,5.51 5.51,5.51 3.043,0 5.51,-2.467 5.51,-5.51 v -2.204 c 0,-3.043 -2.467,-5.51 -5.51,-5.51 -0.77,0 -1.53,0.157 -2.23,0.473 l 0.429,-4.286 h 5.51 l -0.201,-3.004 h -8.02 l -0.997,10.022 3.507,0.801 c 0.473,-0.63 1.216,-1.002 2.003,-1.002 1.382,0 2.501,1.124 2.501,2.506 v 2.204 c 0,1.382 -1.119,2.506 -2.501,2.506 -1.382,0 -2.511,-1.124 -2.511,-2.506 z"
   id="path143"
   inkscape:connector-curvature="0" />
</g>
<g
   id="LWPOLYLINE_193_"
   transform="translate(-13.922,-87.591003)">
	<polygon
   style="fill:#101820"
   points="56.964,227.372 59.167,235.986 54.755,235.986 "
   id="polygon146" />
</g>
<g
   id="LWPOLYLINE_199_"
   transform="translate(-13.922,-87.591003)">
	<polygon
   style="fill:#101820"
   points="148.361,227.372 150.565,235.986 146.157,235.986 "
   id="polygon149" />
</g>
<g
   id="LWPOLYLINE_201_"
   transform="translate(-13.922,-87.591003)">
	<polygon
   style="fill:#101820"
   points="164.392,227.372 166.596,235.986 162.188,235.986 "
   id="polygon152" />
</g>
<g
   id="LWPOLYLINE_204_"
   transform="translate(-13.922,-87.591003)">
	<path
   style="fill:#101820"
   d="m 178.822,230.376 h 3.909 c 1.163,0 2.108,-0.94 2.108,-2.104 v -0.805 c 0,-1.163 -0.945,-2.104 -2.108,-2.104 h -3.909 z"
   id="path155"
   inkscape:connector-curvature="0" />
</g>
<g
   id="LWPOLYLINE_205_"
   transform="translate(-13.922,-87.591003)">
	<polygon
   style="fill:#101820"
   points="197.467,227.372 199.671,235.986 195.254,235.986 "
   id="polygon158" />
</g>
<g
   id="LWPOLYLINE_162_"
   transform="translate(-13.922,-87.591003)">
	<polygon
   style="fill:#e4002b"
   points="201.875,155.711 197.861,155.711 201.875,148.67 "
   id="polygon161" />
</g>
<g
   id="LWPOLYLINE_154_"
   transform="translate(-13.922,-87.591003)">
	<polygon
   style="fill:#005eb8"
   points="218.509,108.135 220.713,116.754 216.305,116.754 "
   id="polygon164" />
</g>
<g
   id="LWPOLYLINE_164_"
   transform="translate(-13.922,-87.591003)">
	<path
   style="fill:#005eb8"
   d="m 278.241,235.89 v -7.019 c 0,-1.937 -1.574,-3.507 -3.516,-3.507 -1.933,0 -3.507,1.57 -3.507,3.507 v 7.019 c 0,1.933 1.574,3.507 3.507,3.507 1.942,-0.001 3.516,-1.575 3.516,-3.507 z"
   id="path167"
   inkscape:connector-curvature="0" />
</g>
<g
   id="LWPOLYLINE_167_"
   transform="translate(-13.922,-87.591003)">
	<path
   style="fill:#005eb8"
   d="m 289.461,230.376 h 3.909 c 1.163,0 2.1,-0.94 2.1,-2.104 v -0.805 c 0,-1.163 -0.937,-2.104 -2.1,-2.104 h -3.909 z"
   id="path170"
   inkscape:connector-curvature="0" />
</g>
<g
   id="LWPOLYLINE_168_"
   transform="translate(-13.922,-87.591003)">
	<path
   style="fill:#005eb8"
   d="m 306.498,230.376 h 3.91 c 1.162,0 2.107,-0.94 2.107,-2.104 v -0.805 c 0,-1.163 -0.945,-2.104 -2.107,-2.104 h -3.91 z"
   id="path173"
   inkscape:connector-curvature="0" />
</g>
<g
   id="LWPOLYLINE_172_"
   transform="translate(-13.922,-87.591003)">
	<polygon
   style="fill:#005eb8"
   points="349.587,227.372 351.791,235.986 347.383,235.986 "
   id="polygon176" />
</g>
<g
   id="LWPOLYLINE_180_"
   transform="translate(-13.922,-87.591003)">
	<polygon
   style="fill:#005eb8"
   points="363.422,307.043 365.626,315.657 361.218,315.657 "
   id="polygon179" />
</g>
<g
   id="LWPOLYLINE_182_"
   transform="translate(-13.922,-87.591003)">
	<polygon
   style="fill:#005eb8"
   points="310.302,307.043 312.515,315.657 308.098,315.657 "
   id="polygon182" />
</g>
<g
   id="LWPOLYLINE_210_"
   transform="translate(-13.922,-87.591003)">
	<path
   style="fill:#101820"
   d="m 320.78,265.389 c 1.181,-0.612 2.072,-1.671 2.475,-2.943 h 3.034 v 20.041 h -3.008 v -15.432 l -2.204,0.397 z"
   id="path185"
   inkscape:connector-curvature="0" />
</g>
<g
   id="LWPOLYLINE_192_"
   transform="translate(-13.922,-87.591003)">
	<polygon
   style="fill:#ffffff"
   points="48.542,225.364 43.531,225.364 43.531,242.4 40.527,242.4 40.527,225.364 35.516,225.364 35.516,222.36 48.542,222.36 "
   id="polygon188" />
</g>
<g
   id="LWPOLYLINE_195_"
   transform="translate(-13.922,-87.591003)">
	<polygon
   style="fill:#ffffff"
   points="81.417,242.4 84.42,242.4 84.42,222.36 81.014,222.36 76.405,233.782 71.792,222.36 68.385,222.36 68.385,242.4 71.394,242.4 71.394,229.374 76.405,242.4 81.417,229.374 "
   id="polygon191" />
</g>
<g
   id="LWPOLYLINE_196_"
   transform="translate(-13.922,-87.591003)">
	<polygon
   style="fill:#ffffff"
   points="104.264,242.4 107.268,242.4 107.268,222.36 103.862,222.36 99.253,233.782 94.644,222.36 91.238,222.36 91.238,242.4 94.242,242.4 94.242,229.374 99.253,242.4 104.264,229.374 "
   id="polygon194" />
</g>
<g
   id="LWPOLYLINE_197_"
   transform="translate(-13.922,-87.591003)">
	<rect
   x="114.087"
   y="222.36"
   style="fill:#ffffff"
   width="3"
   height="20.040001"
   id="rect197" />
</g>
<g
   id="LWPOLYLINE_198_"
   transform="translate(-13.922,-87.591003)">
	<polygon
   style="fill:#ffffff"
   points="126.909,233.38 126.909,242.4 123.909,242.4 123.909,222.36 126.909,222.36 126.909,230.376 133.931,230.376 133.931,222.36 136.931,222.36 136.931,242.4 133.931,242.4 133.931,233.38 "
   id="polygon200" />
</g>
<g
   id="LWPOLYLINE_221_"
   transform="translate(-13.922,-87.591003)">
	<path
   style="fill:none"
   d="m 31.505,214.341 h 176.981 c 2.213,0 4.005,1.793 4.005,4.01 v 28.061 c 0,2.212 -1.792,4.005 -4.005,4.005 H 31.505 c -2.212,0 -4.005,-1.793 -4.005,-4.005 v -28.061 c 0,-2.217 1.793,-4.01 4.005,-4.01 z"
   id="path203"
   inkscape:connector-curvature="0" />
</g>
</svg>