<?xml version="1.0" encoding="iso-8859-1"?>
<!-- Generator: Adobe Illustrator 16.0.0, SVG Export Plug-In . SVG Version: 6.00 Build 0)  -->
<!DOCTYPE svg PUBLIC "-//W3C//DTD SVG 1.1//EN" "http://www.w3.org/Graphics/SVG/1.1/DTD/svg11.dtd">
<svg version="1.1" id="Layer_1" xmlns="http://www.w3.org/2000/svg" xmlns:xlink="http://www.w3.org/1999/xlink" x="0px" y="0px"
	 width="425.197px" height="425.196px" viewBox="0 0 425.197 425.196" style="enable-background:new 0 0 425.197 425.196;"
	 xml:space="preserve">
<g id="LWPOLYLINE_172_">
	
		<rect x="14.173" y="93.542" style="fill:#005EB8;stroke:#005EB8;stroke-width:0.5;stroke-miterlimit:10;" width="396.851" height="238.114"/>
</g>
<g id="LWPOLYLINE_170_">
	<path style="fill:#FFFFFF;" d="M20.124,93.542h384.942c3.291,0,5.958,2.667,5.958,5.958V325.7c0,3.287-2.667,5.955-5.958,5.955
		H20.124c-3.283,0-5.95-2.668-5.95-5.955V99.5C14.173,96.208,16.84,93.542,20.124,93.542z"/>
</g>
<g id="LWPOLYLINE_171_">
	<path style="fill:#005EB8;" d="M20.124,96.521h384.942c1.649,0,2.979,1.33,2.979,2.979V325.7c0,1.646-1.329,2.977-2.979,2.977
		H20.124c-1.642,0-2.971-1.33-2.971-2.977V99.5C17.153,97.85,18.482,96.521,20.124,96.521z"/>
</g>
<g id="LWPOLYLINE_163_">
	<polygon style="fill:#FFFFFF;" points="194.937,128.269 191.761,128.269 197.022,108.429 200.395,108.429 205.656,128.269 
		202.48,128.269 201.585,124.896 195.832,124.896 	"/>
</g>
<g id="LWPOLYLINE_131_">
	<path style="fill:#FFFFFF;" d="M196.726,140.173h31.744c2.191,0,3.973,1.777,3.973,3.972v26.787c0,2.191-1.781,3.964-3.973,3.964
		h-31.744c-2.199,0-3.972-1.773-3.972-3.964v-26.787C192.754,141.95,194.527,140.173,196.726,140.173z"/>
</g>
<g id="LWPOLYLINE_130_">
	<path style="fill:#E4002B;" d="M196.726,142.159h31.744c1.1,0,1.986,0.886,1.986,1.986v26.787c0,1.091-0.887,1.982-1.986,1.982
		h-31.744c-1.1,0-1.985-0.891-1.985-1.982v-26.787C194.741,143.045,195.626,142.159,196.726,142.159z"/>
</g>
<g id="LWPOLYLINE_148_">
	<path style="fill:#FFFFFF;" d="M341.57,285.023h51.596c2.191,0,3.964-1.776,3.964-3.968v-26.787c0-2.191-1.772-3.969-3.964-3.969
		H341.57c-2.191,0-3.965,1.777-3.965,3.969v26.787C337.605,283.247,339.378,285.023,341.57,285.023z"/>
</g>
<g id="LWPOLYLINE_149_">
	<path style="fill:#009775;" d="M341.57,283.038h51.596c1.092,0,1.979-0.887,1.979-1.982v-26.787c0-1.096-0.887-1.982-1.979-1.982
		H341.57c-1.092,0-1.979,0.887-1.979,1.982v26.787C339.591,282.151,340.478,283.038,341.57,283.038z"/>
</g>
<g id="LWPOLYLINE_142_">
	<path style="fill:#FFFFFF;" d="M363.843,272.126v-3.105c0.713-4.12,2.437-7.998,5.03-11.281h3.972
		c-2.289,2.311-4.037,5.102-5.121,8.17c0.51-0.155,1.043-0.229,1.576-0.229c3.012,0,5.457,2.438,5.457,5.453v0.992
		c0,3.017-2.445,5.454-5.457,5.454S363.843,275.143,363.843,272.126z"/>
</g>
<g id="LWPOLYLINE_144_">
	<path style="fill:#FFFFFF;" d="M302.882,285.023h26.787c2.191,0,3.964-1.776,3.964-3.968v-26.787c0-2.191-1.772-3.969-3.964-3.969
		h-26.787c-2.191,0-3.973,1.777-3.973,3.969v26.787C298.91,283.247,300.691,285.023,302.882,285.023z"/>
</g>
<g id="LWPOLYLINE_135_">
	<path style="fill:#FFFFFF;" d="M32.032,285.023h26.787c2.191,0,3.964-1.776,3.964-3.968v-26.787c0-2.191-1.772-3.969-3.964-3.969
		H32.032c-2.191,0-3.973,1.777-3.973,3.969v26.787C28.059,283.247,29.84,285.023,32.032,285.023z"/>
</g>
<g id="LWPOLYLINE_136_">
	<path style="fill:#E4002B;" d="M32.032,283.038h26.787c1.091,0,1.985-0.887,1.985-1.982v-26.787c0-1.096-0.895-1.982-1.985-1.982
		H32.032c-1.1,0-1.986,0.887-1.986,1.982v26.787C30.045,282.151,30.932,283.038,32.032,283.038z"/>
</g>
<g id="LWPOLYLINE_145_">
	<path style="fill:#E4002B;" d="M302.882,283.038h26.787c1.092,0,1.986-0.887,1.986-1.982v-26.787c0-1.096-0.895-1.982-1.986-1.982
		h-26.787c-1.1,0-1.986,0.887-1.986,1.982v26.787C300.896,282.151,301.783,283.038,302.882,283.038z"/>
</g>
<g id="LWPOLYLINE_137_">
	<path style="fill:#FFFFFF;" d="M70.727,285.023h51.588c2.191,0,3.964-1.776,3.964-3.968v-26.787c0-2.191-1.772-3.969-3.964-3.969
		H70.727c-2.2,0-3.973,1.777-3.973,3.969v26.787C66.754,283.247,68.527,285.023,70.727,285.023z"/>
</g>
<g id="LWPOLYLINE_138_">
	<path style="fill:#009775;" d="M70.727,283.038h51.588c1.092,0,1.986-0.887,1.986-1.982v-26.787c0-1.096-0.895-1.982-1.986-1.982
		H70.727c-1.1,0-1.986,0.887-1.986,1.982v26.787C68.741,282.151,69.627,283.038,70.727,283.038z"/>
</g>
<g id="LWPOLYLINE_139_">
	<path style="fill:#FFFFFF;" d="M50.882,263.218v3.103c-0.714,4.12-2.438,8.001-5.03,11.284H41.88
		c2.289-2.314,4.037-5.104,5.129-8.174c-0.518,0.156-1.051,0.234-1.584,0.234c-3.012,0-5.458-2.441-5.458-5.454v-0.993
		c0-3.016,2.446-5.457,5.458-5.457S50.882,260.202,50.882,263.218z"/>
</g>
<g id="LWPOLYLINE_168_">
	<polygon style="fill:#FFFFFF;" points="221.027,147.616 224.006,147.616 224.006,160.513 225.59,160.513 225.59,163.488 
		224.006,163.488 224.006,167.457 221.027,167.457 221.027,163.488 213.69,163.488 213.69,160.513 	"/>
</g>
<g id="LWPOLYLINE_133_">
	<path style="fill:#FFFFFF;" d="M93,272.126v-3.105c0.706-4.12,2.438-7.998,5.022-11.281h3.972c-2.289,2.311-4.037,5.102-5.121,8.17
		c0.509-0.155,1.042-0.229,1.576-0.229c3.021,0,5.458,2.438,5.458,5.453v0.992c0,3.017-2.438,5.454-5.458,5.454
		C95.438,277.58,93,275.143,93,272.126z"/>
</g>
<g id="LWPOLYLINE_129_">
	<polygon style="fill:#FFFFFF;" points="154.658,238.392 151.482,238.392 156.743,218.552 160.116,218.552 165.369,238.392 
		162.201,238.392 161.306,235.019 155.552,235.019 	"/>
</g>
<g id="LWPOLYLINE_123_">
	<polygon style="fill:#FFFFFF;" points="76.078,238.392 72.91,238.392 78.163,218.552 81.535,218.552 86.796,238.392 83.62,238.392 
		82.725,235.019 76.972,235.019 	"/>
</g>
<g id="LWPOLYLINE_153_">
	<polygon style="fill:#FFFFFF;" points="274.7,238.392 271.532,238.392 276.785,218.552 280.158,218.552 285.417,238.392 
		282.242,238.392 281.347,235.019 275.594,235.019 	"/>
</g>
<g id="LWPOLYLINE_156_">
	<path style="fill:#FFFFFF;" d="M315.381,229.464h3.865c2.799,0,5.063-2.266,5.063-5.057v-0.795c0-2.795-2.265-5.061-5.063-5.061
		h-6.845v19.84h2.979V229.464z"/>
</g>
<g id="LWPOLYLINE_158_">
	<path style="fill:#FFFFFF;" d="M347.724,229.464v8.928h-2.979v-19.84h6.844c2.799,0,5.064,2.266,5.064,5.061v0.795
		c0,2.126-1.338,4.03-3.341,4.756l3.341,9.229h-3.177l-3.225-8.928H347.724z"/>
</g>
<g id="LWPOLYLINE_141_">
	<path style="fill:#E4002B;" d="M42.857,263.21v0.992c0,1.371,1.107,2.479,2.479,2.479c1.37,0,2.478-1.107,2.478-2.479v-0.992
		c0-1.371-1.107-2.479-2.478-2.479C43.964,260.731,42.857,261.839,42.857,263.21z"/>
</g>
<g id="LWPOLYLINE_147_">
	<path style="fill:#E4002B;" d="M313.707,263.21v0.992c0,1.371,1.108,2.479,2.479,2.479c1.371,0,2.479-1.107,2.479-2.479v-0.992
		c0-1.371-1.107-2.479-2.479-2.479C314.815,260.731,313.707,261.839,313.707,263.21z"/>
</g>
<g id="LWPOLYLINE_169_">
	<polygon style="fill:#E4002B;" points="217.063,160.513 221.027,153.542 221.027,160.513 	"/>
</g>
<g id="LWPOLYLINE_122_">
	<polygon style="fill:#005EB8;" points="82.036,232.044 77.669,232.044 79.853,223.513 	"/>
</g>
<g id="LWPOLYLINE_128_">
	<polygon style="fill:#005EB8;" points="160.608,232.044 156.242,232.044 158.425,223.513 	"/>
</g>
<g id="LWPOLYLINE_152_">
	<polygon style="fill:#005EB8;" points="280.658,232.044 276.292,232.044 278.475,223.513 	"/>
</g>
<g id="LWPOLYLINE_155_">
	<path style="fill:#005EB8;" d="M315.381,226.488h3.865c1.157,0,2.085-0.932,2.085-2.081v-0.795c0-1.149-0.928-2.085-2.085-2.085
		h-3.865V226.488z"/>
</g>
<g id="LWPOLYLINE_159_">
	<path style="fill:#005EB8;" d="M347.724,226.488h3.865c1.158,0,2.085-0.932,2.085-2.081v-0.795c0-1.149-0.927-2.085-2.085-2.085
		h-3.865V226.488z"/>
</g>
<g id="LWPOLYLINE_162_">
	<polygon style="fill:#005EB8;" points="200.887,121.921 196.521,121.921 198.705,113.386 	"/>
</g>
<g id="LWPOLYLINE_132_">
	<path style="fill:#FFFFFF;" d="M208.626,299.427v29.25h7.936v-29.25c0-1.822,1.24-3.41,3.013-3.85
		c10.308-2.576,18.358-10.627,20.936-20.943c0.443-1.765,2.026-3.004,3.849-3.004h32.828l-9.923,9.922h9.824l13.886-13.89
		l-13.886-13.89h-9.824l9.923,9.922h-32.828c-1.822,0-3.405-1.24-3.849-3.008c-2.577-10.313-10.628-18.363-20.936-20.939
		c-1.772-0.439-3.013-2.027-3.013-3.85v-17.346v-21.924l9.923,9.918v-9.82l-13.886-13.89l-13.895,13.89v9.82l9.922-9.918v21.924
		v17.346c0,1.822-1.239,3.41-3.004,3.85c-10.315,2.576-18.367,10.627-20.936,20.939c-0.443,1.768-2.035,3.008-3.857,3.008h-32.818
		l9.922-9.922h-9.824l-13.894,13.89l13.894,13.89h9.824l-9.922-9.922h32.818c5.466,0,10.227-3.718,11.556-9.02
		c1.862-7.468,7.698-13.295,15.158-15.162c11.169-2.79,22.479,4.001,25.269,15.162c2.791,11.162-4.005,22.475-15.166,25.266
		C212.344,289.2,208.626,293.961,208.626,299.427z"/>
</g>
<g id="LWPOLYLINE_180_">
	<path style="fill:#009775;" d="M366.822,272.126c0,1.371,1.107,2.482,2.479,2.482c1.37,0,2.486-1.111,2.486-2.482v-0.992
		c0-1.367-1.116-2.482-2.486-2.482c-1.371,0-2.479,1.115-2.479,2.482V272.126z"/>
</g>
<g id="LWPOLYLINE_181_">
	<path style="fill:#009775;" d="M95.971,272.126c0,1.371,1.116,2.482,2.479,2.482c1.37,0,2.486-1.111,2.486-2.482v-0.992
		c0-1.367-1.116-2.482-2.486-2.482c-1.362,0-2.479,1.115-2.479,2.482V272.126z"/>
</g>
<g id="LWPOLYLINE_119_">
	<path style="fill:#FFFFFF;" d="M31.039,232.935h-2.979c0,3.016,2.446,5.457,5.458,5.457s5.457-2.441,5.457-5.457v-14.383h-2.979
		v14.383c0,1.371-1.108,2.482-2.479,2.482C32.146,235.417,31.039,234.306,31.039,232.935z"/>
</g>
<g id="LWPOLYLINE_120_">
	<polygon style="fill:#FFFFFF;" points="48.996,238.392 50.48,238.392 50.48,230.456 55.446,218.552 52.073,218.552 48.996,225.935 
		45.917,218.552 42.544,218.552 47.509,230.456 47.509,238.392 	"/>
</g>
<g id="LWPOLYLINE_121_">
	<polygon style="fill:#FFFFFF;" points="57.03,218.552 60.206,218.552 63.972,232.442 67.748,218.552 70.923,218.552 
		65.466,238.392 62.487,238.392 	"/>
</g>
<g id="CIRCLE_4_">
	<path style="fill:#FFFFFF;" d="M78.458,216.168c0-0.874-0.706-1.584-1.584-1.584s-1.584,0.71-1.584,1.584
		c0,0.878,0.706,1.593,1.584,1.593S78.458,217.046,78.458,216.168L78.458,216.168z"/>
</g>
<g id="CIRCLE_5_">
	<path style="fill:#FFFFFF;" d="M84.416,216.168c0-0.874-0.714-1.584-1.592-1.584c-0.87,0-1.584,0.71-1.584,1.584
		c0,0.878,0.714,1.593,1.584,1.593C83.702,217.761,84.416,217.046,84.416,216.168L84.416,216.168z"/>
</g>
<g id="LWPOLYLINE_124_">
	<path style="fill:#FFFFFF;" d="M98.828,223.907c-0.066-1.28-1.092-2.311-2.372-2.38h-1.248c-1.305,0.082-2.289,1.202-2.207,2.503
		c0.049,0.689,0.394,1.321,0.943,1.74l5.294,1.937c1.379,0.825,2.347,2.183,2.684,3.751c0.664,3.118-1.33,6.188-4.448,6.848
		c-0.041,0.009-0.082,0.013-0.123,0.021c-3.857,0.57-7.444-2.094-8.01-5.946l2.946-0.435c0.328,2.228,2.396,3.762,4.628,3.434
		c1.511-0.353,2.438-1.862,2.085-3.364c-0.156-0.657-0.55-1.231-1.1-1.625l-5.302-1.944c-1.534-0.928-2.495-2.557-2.569-4.342
		c-0.131-2.942,2.159-5.43,5.097-5.553h1.396c2.896,0.104,5.22,2.459,5.285,5.363L98.828,223.907z"/>
</g>
<g id="LWPOLYLINE_125_">
	<polygon style="fill:#FFFFFF;" points="110.21,233.436 110.21,238.392 107.231,238.392 107.231,218.552 110.21,218.552 
		110.21,228.076 116.562,218.552 120.132,218.552 114.478,226.985 120.132,238.392 116.759,238.392 112.59,229.861 	"/>
</g>
<g id="LWPOLYLINE_126_">
	<polygon style="fill:#FFFFFF;" points="128.167,238.392 129.652,238.392 129.652,230.456 134.617,218.552 131.244,218.552 
		128.167,225.935 125.089,218.552 121.716,218.552 126.681,230.456 126.681,238.392 	"/>
</g>
<g id="LWPOLYLINE_127_">
	<polygon style="fill:#FFFFFF;" points="138.582,238.392 138.582,218.552 141.56,218.552 141.56,235.417 148.503,235.417 
		148.503,238.392 	"/>
</g>
<g id="CIRCLE_6_">
	<path style="fill:#FFFFFF;" d="M157.039,216.168c0-0.874-0.715-1.584-1.584-1.584c-0.879,0-1.592,0.71-1.592,1.584
		c0,0.878,0.713,1.593,1.592,1.593C156.324,217.761,157.039,217.046,157.039,216.168L157.039,216.168z"/>
</g>
<g id="CIRCLE_7_">
	<path style="fill:#FFFFFF;" d="M162.988,216.168c0-0.874-0.705-1.584-1.584-1.584c-0.878,0-1.592,0.71-1.592,1.584
		c0,0.878,0.714,1.593,1.592,1.593C162.283,217.761,162.988,217.046,162.988,216.168L162.988,216.168z"/>
</g>
<g id="LWPOLYLINE_134_">
	<path style="fill:#FFFFFF;" d="M107.486,272.126c0,3.017,2.438,5.454,5.449,5.454c3.02,0,5.457-2.438,5.457-5.454v-1.189
		c0-1.613-0.705-3.139-1.945-4.178c0.936-0.988,1.453-2.302,1.453-3.664v-0.394c0-2.741-2.225-4.962-4.965-4.962
		c-2.733,0-4.957,2.221-4.957,4.962v0.394h2.979v-0.394c0-1.096,0.887-1.986,1.979-1.986c1.1,0,1.985,0.891,1.985,1.986v0.394
		c0,1.317-1.066,2.385-2.38,2.385h-0.394v2.777h0.788c1.37,0,2.486,1.107,2.486,2.479v1.391c0,1.371-1.116,2.482-2.486,2.482
		c-1.371,0-2.479-1.111-2.479-2.482H107.486z"/>
</g>
<g id="LWPOLYLINE_140_">
	<polygon style="fill:#FFFFFF;" points="74.642,277.58 85.556,277.58 85.556,274.608 77.621,274.608 77.621,268.651 82.98,268.651 
		82.98,265.681 77.621,265.681 77.621,260.715 85.556,260.715 85.556,257.739 74.642,257.739 	"/>
</g>
<g id="LWPOLYLINE_143_">
	<path style="fill:#FFFFFF;" d="M378.328,272.126c0,3.017,2.445,5.454,5.458,5.454c3.012,0,5.457-2.438,5.457-5.454v-1.189
		c0-1.613-0.714-3.139-1.944-4.178c0.936-0.988,1.452-2.302,1.452-3.664v-0.394c0-2.741-2.224-4.962-4.965-4.962
		s-4.957,2.221-4.957,4.962v0.394h2.971v-0.394c0-1.096,0.895-1.986,1.986-1.986c1.1,0,1.985,0.891,1.985,1.986v0.394
		c0,1.317-1.066,2.385-2.38,2.385h-0.394v2.777h0.788c1.37,0,2.478,1.107,2.478,2.479v1.391c0,1.371-1.107,2.482-2.478,2.482
		c-1.371,0-2.479-1.111-2.479-2.482H378.328z"/>
</g>
<g id="LWPOLYLINE_146_">
	<path style="fill:#FFFFFF;" d="M321.734,263.218v3.103c-0.715,4.12-2.438,8.001-5.031,11.284h-3.973
		c2.29-2.314,4.038-5.104,5.121-8.174c-0.509,0.156-1.042,0.234-1.575,0.234c-3.012,0-5.458-2.441-5.458-5.454v-0.993
		c0-3.016,2.446-5.457,5.458-5.457S321.734,260.202,321.734,263.218z"/>
</g>
<g id="LWPOLYLINE_150_">
	<polygon style="fill:#FFFFFF;" points="345.492,277.58 356.408,277.58 356.408,274.608 348.471,274.608 348.471,268.651 
		353.822,268.651 353.822,265.681 348.471,265.681 348.471,260.715 356.408,260.715 356.408,257.739 345.492,257.739 	"/>
</g>
<g id="LWPOLYLINE_151_">
	<polygon style="fill:#FFFFFF;" points="257.244,218.552 270.137,218.552 270.137,221.527 265.18,221.527 265.18,238.392 
		262.201,238.392 262.201,221.527 257.244,221.527 	"/>
</g>
<g id="LWPOLYLINE_154_">
	<polygon style="fill:#FFFFFF;" points="297.72,238.392 302.685,225.495 302.685,238.392 305.656,238.392 305.656,218.552 
		302.283,218.552 297.72,229.861 293.157,218.552 289.784,218.552 289.784,238.392 292.763,238.392 292.763,225.495 	"/>
</g>
<g id="LWPOLYLINE_157_">
	<polygon style="fill:#FFFFFF;" points="328.479,238.392 339.386,238.392 339.386,235.417 331.451,235.417 331.451,229.464 
		336.809,229.464 336.809,226.488 331.451,226.488 331.451,221.527 339.386,221.527 339.386,218.552 328.479,218.552 	"/>
</g>
<g id="LWPOLYLINE_160_">
	<polygon style="fill:#FFFFFF;" points="361.611,238.392 372.525,238.392 372.525,235.417 364.589,235.417 364.589,229.464 
		369.949,229.464 369.949,226.488 364.589,226.488 364.589,221.527 372.525,221.527 372.525,218.552 361.611,218.552 	"/>
</g>
<g id="LWPOLYLINE_161_">
	<polygon style="fill:#FFFFFF;" points="178.869,128.269 178.869,108.429 181.839,108.429 181.839,125.293 188.783,125.293 
		188.783,128.269 	"/>
</g>
<g id="LWPOLYLINE_164_">
	<polygon style="fill:#FFFFFF;" points="219.935,128.269 219.935,119.34 212.993,119.34 212.993,128.269 210.013,128.269 
		210.013,108.429 212.993,108.429 212.993,116.365 219.935,116.365 219.935,108.429 222.915,108.429 222.915,128.269 	"/>
</g>
<g id="LWPOLYLINE_165_">
	<polygon style="fill:#FFFFFF;" points="226.681,108.429 239.583,108.429 239.583,111.399 234.625,111.399 234.625,128.269 
		231.647,128.269 231.647,111.399 226.681,111.399 	"/>
</g>
<g id="LWPOLYLINE_166_">
	<rect x="243.349" y="108.429" style="fill:#FFFFFF;" width="2.979" height="19.84"/>
</g>
<g id="LWPOLYLINE_167_">
	<path style="fill:#FFFFFF;" d="M199.599,154.063h2.979v-0.989c0-0.324,0.058-0.64,0.181-0.939c0.518-1.268,1.97-1.875,3.233-1.358
		c1.272,0.517,1.88,1.961,1.363,3.233l-7.756,10.472v2.975h10.915v-2.975h-7.542l7.214-9.557c1.025-2.835-0.443-5.962-3.274-6.988
		c-2.84-1.022-5.967,0.447-6.984,3.283c-0.279,0.767-0.386,1.588-0.304,2.4L199.599,154.063z"/>
</g>
</svg>
