<?xml version="1.0" encoding="UTF-8" standalone="no"?>
<!-- Generator: Adobe Illustrator 16.0.0, SVG Export Plug-In . SVG Version: 6.00 Build 0)  -->

<svg
   xmlns:dc="http://purl.org/dc/elements/1.1/"
   xmlns:cc="http://creativecommons.org/ns#"
   xmlns:rdf="http://www.w3.org/1999/02/22-rdf-syntax-ns#"
   xmlns:svg="http://www.w3.org/2000/svg"
   xmlns="http://www.w3.org/2000/svg"
   xmlns:sodipodi="http://sodipodi.sourceforge.net/DTD/sodipodi-0.dtd"
   xmlns:inkscape="http://www.inkscape.org/namespaces/inkscape"
   version="1.1"
   id="Layer_1"
   x="0px"
   y="0px"
   width="317.38501"
   height="397.35001"
   viewBox="0 0 317.38502 397.34999"
   xml:space="preserve"
   sodipodi:docname="F1.3.svg"
   inkscape:version="0.92.5 (2060ec1f9f, 2020-04-08)"><metadata
   id="metadata717"><rdf:RDF><cc:Work
       rdf:about=""><dc:format>image/svg+xml</dc:format><dc:type
         rdf:resource="http://purl.org/dc/dcmitype/StillImage" /></cc:Work></rdf:RDF></metadata><defs
   id="defs715" /><sodipodi:namedview
   pagecolor="#ffffff"
   bordercolor="#666666"
   borderopacity="1"
   objecttolerance="10"
   gridtolerance="10"
   guidetolerance="10"
   inkscape:pageopacity="0"
   inkscape:pageshadow="2"
   inkscape:window-width="640"
   inkscape:window-height="480"
   id="namedview713"
   showgrid="false"
   inkscape:zoom="0.55503813"
   inkscape:cx="158.6925"
   inkscape:cy="198.675"
   inkscape:window-x="0"
   inkscape:window-y="0"
   inkscape:window-maximized="0"
   inkscape:current-layer="Layer_1" />
<g
   id="LWPOLYLINE"
   transform="translate(-53.905998,-13.923)">
	
		<rect
   x="54.155998"
   y="351.23401"
   style="fill:#009775;stroke:#009775;stroke-width:0.5;stroke-miterlimit:10"
   width="316.88501"
   height="59.789001"
   id="rect400" />
</g>
<g
   id="LWPOLYLINE_3_"
   transform="translate(-53.905998,-13.923)">
	<path
   style="fill:#ffffff"
   d="m 60.882,351.234 h 303.432 c 3.71,0 6.727,3.012 6.727,6.727 v 46.336 c 0,3.717 -3.017,6.727 -6.727,6.727 H 60.882 c -3.716,0 -6.727,-3.01 -6.727,-6.727 v -46.336 c 10e-4,-3.715 3.012,-6.727 6.727,-6.727 z"
   id="path403"
   inkscape:connector-curvature="0" />
</g>
<g
   id="LWPOLYLINE_6_"
   transform="translate(-53.905998,-13.923)">
	<path
   style="fill:#009775"
   d="m 60.882,354.598 h 303.432 c 1.854,0 3.363,1.506 3.363,3.363 v 46.336 c 0,1.857 -1.509,3.363 -3.363,3.363 H 60.882 c -1.86,0 -3.363,-1.506 -3.363,-3.363 v -46.336 c 0,-1.857 1.503,-3.363 3.363,-3.363 z"
   id="path406"
   inkscape:connector-curvature="0" />
</g>
<g
   id="LWPOLYLINE_480_"
   transform="translate(-53.905998,-13.923)">
	<path
   style="fill:#ffffff"
   d="m 130.563,399.813 h 52.314 c 10.324,0 18.688,-8.365 18.688,-18.684 0,-10.319 -8.364,-18.682 -18.688,-18.682 h -52.314 c -10.318,0 -18.684,8.363 -18.684,18.682 0,10.319 8.366,18.684 18.684,18.684 z"
   id="path409"
   inkscape:connector-curvature="0" />
</g>
<g
   id="LWPOLYLINE_481_"
   transform="translate(-53.905998,-13.923)">
	<path
   style="fill:#005eb8"
   d="m 130.563,397.57 h 52.314 c 9.081,0 16.444,-7.359 16.444,-16.441 0,-9.082 -7.363,-16.441 -16.444,-16.441 h -52.314 c -9.082,0 -16.439,7.359 -16.439,16.441 0,9.082 7.357,16.441 16.439,16.441 z"
   id="path412"
   inkscape:connector-curvature="0" />
</g>
<g
   id="LWPOLYLINE_482_"
   transform="translate(-53.905998,-13.923)">
	<polygon
   style="fill:#ffffff"
   points="132.201,392.338 123.231,392.338 128.46,369.918 132.201,369.918 "
   id="polygon415" />
</g>
<g
   id="LWPOLYLINE_483_"
   transform="translate(-53.905998,-13.923)">
	<path
   style="fill:#ffffff"
   d="m 144.423,369.918 4.229,4.229 -1.583,1.586 c -1.854,1.867 -3.388,4.023 -4.55,6.379 l -2.844,-12.193 h -3.74 v 22.42 h 8.971 l -0.161,-0.611 c -0.748,-5.064 0.891,-10.189 4.433,-13.881 l 1.589,-1.586 4.229,4.227 V 369.92 h -10.573 z"
   id="path418"
   inkscape:connector-curvature="0" />
</g>
<g
   id="LWPOLYLINE_485_"
   transform="translate(-53.905998,-13.923)">
	<path
   style="fill:#ffffff"
   d="m 179.767,386.26 c 0,3.406 2.764,6.168 6.17,6.168 3.4,0 6.164,-2.762 6.164,-6.168 v -1.34 c 0,-1.822 -0.804,-3.549 -2.195,-4.721 1.052,-1.123 1.633,-2.6 1.633,-4.139 v -0.449 c 0,-3.094 -2.511,-5.604 -5.602,-5.604 -3.097,0 -5.607,2.51 -5.607,5.604 v 0.449 h 3.363 v -0.449 c 0,-1.24 1.002,-2.24 2.244,-2.24 1.236,0 2.238,1 2.238,2.24 v 0.449 c 0,1.486 -1.206,2.691 -2.689,2.691 h -0.451 v 3.139 h 0.902 c 1.546,0 2.801,1.254 2.801,2.803 v 1.566 c 0,1.553 -1.255,2.805 -2.801,2.805 -1.552,0 -2.807,-1.252 -2.807,-2.805 h -3.363 z"
   id="path421"
   inkscape:connector-curvature="0" />
</g>
<g
   id="LWPOLYLINE_487_"
   transform="translate(-53.905998,-13.923)">
	<path
   style="fill:#ffffff"
   d="m 164.899,380.199 c -1.242,1.164 -1.947,2.791 -1.947,4.494 v 1.566 c 0,3.406 2.764,6.168 6.17,6.168 3.4,0 6.164,-2.762 6.164,-6.168 v -1.566 c 0,-1.703 -0.705,-3.33 -1.948,-4.494 0.896,-1.023 1.385,-2.334 1.385,-3.688 v -0.9 c 0,-3.094 -2.51,-5.604 -5.601,-5.604 -3.098,0 -5.607,2.51 -5.607,5.604 v 0.9 c -10e-4,1.354 0.487,2.665 1.384,3.688 z"
   id="path424"
   inkscape:connector-curvature="0" />
</g>
<g
   id="LWPOLYLINE_95_"
   transform="translate(-53.905998,-13.923)">
	
		<rect
   x="54.155998"
   y="14.173"
   style="fill:#009775;stroke:#009775;stroke-width:0.5;stroke-miterlimit:10"
   width="316.88501"
   height="337.06201"
   id="rect427" />
</g>
<g
   id="LWPOLYLINE_4_"
   transform="translate(-53.905998,-13.923)">
	<path
   style="fill:#ffffff"
   d="m 60.882,14.173 h 303.432 c 3.71,0 6.727,3.011 6.727,6.727 v 323.608 c 0,3.713 -3.017,6.727 -6.727,6.727 H 60.882 c -3.716,0 -6.727,-3.014 -6.727,-6.727 V 20.899 c 10e-4,-3.715 3.012,-6.726 6.727,-6.726 z"
   id="path430"
   inkscape:connector-curvature="0" />
</g>
<g
   id="LWPOLYLINE_5_"
   transform="translate(-53.905998,-13.923)">
	<path
   style="fill:#009775"
   d="m 60.882,17.536 h 303.432 c 1.854,0 3.363,1.505 3.363,3.363 v 323.608 c 0,1.859 -1.509,3.363 -3.363,3.363 H 60.882 c -1.86,0 -3.363,-1.504 -3.363,-3.363 V 20.899 c 0,-1.858 1.503,-3.363 3.363,-3.363 z"
   id="path433"
   inkscape:connector-curvature="0" />
</g>
<g
   id="LWPOLYLINE_2_"
   transform="translate(-53.905998,-13.923)">
	<path
   style="fill:#ffffff"
   d="m 114.316,334.42 h 236.095 c 2.479,0 4.481,-2.008 4.481,-4.486 V 158.042 c 0,-2.479 -2.003,-4.485 -4.481,-4.485 H 114.316 c -2.474,0 -4.482,2.006 -4.482,4.485 v 171.892 c -0.001,2.478 2.008,4.486 4.482,4.486 z"
   id="path436"
   inkscape:connector-curvature="0" />
</g>
<g
   id="LWPOLYLINE_7_"
   transform="translate(-53.905998,-13.923)">
	<path
   style="fill:#005eb8"
   d="m 114.316,332.178 h 236.095 c 1.236,0 2.244,-1.004 2.244,-2.244 V 158.042 c 0,-1.239 -1.008,-2.244 -2.244,-2.244 H 114.316 c -1.236,0 -2.238,1.005 -2.238,2.244 v 171.892 c 0,1.24 1.002,2.244 2.238,2.244 z"
   id="path439"
   inkscape:connector-curvature="0" />
</g>
<g
   id="LWPOLYLINE_13_"
   transform="translate(-53.905998,-13.923)">
	<rect
   x="118.804"
   y="285.09399"
   style="fill:#ffffff"
   width="132.95599"
   height="40.356998"
   id="rect442" />
</g>
<g
   id="LWPOLYLINE_78_"
   transform="translate(-53.905998,-13.923)">
	<path
   style="fill:#101820"
   d="m 180.825,300.117 c -0.074,-1.453 -1.23,-2.615 -2.678,-2.693 h -1.415 c -1.466,0.094 -2.578,1.357 -2.485,2.826 0.049,0.779 0.438,1.498 1.063,1.965 l 5.978,2.193 c 1.559,0.93 2.659,2.467 3.036,4.24 0.748,3.523 -1.503,6.986 -5.021,7.734 -0.049,0.01 -0.099,0.016 -0.148,0.023 -4.352,0.645 -8.407,-2.363 -9.051,-6.719 l 3.326,-0.492 c 0.371,2.516 2.714,4.256 5.23,3.883 1.706,-0.402 2.758,-2.102 2.355,-3.799 -0.173,-0.742 -0.612,-1.398 -1.236,-1.842 l -5.997,-2.199 c -1.725,-1.045 -2.819,-2.883 -2.899,-4.904 -0.143,-3.324 2.442,-6.133 5.768,-6.273 h 1.564 c 3.283,0.121 5.904,2.777 5.973,6.059 z"
   id="path445"
   inkscape:connector-curvature="0" />
</g>
<g
   id="LWPOLYLINE_77_"
   transform="translate(-53.905998,-13.923)">
	<path
   style="fill:#101820"
   d="m 190.327,309.195 c 0,4.025 3.258,7.285 7.282,7.285 4.025,0 7.289,-3.26 7.289,-7.285 V 294.06 h -3.363 v 15.135 c 0,2.168 -1.755,3.922 -3.926,3.922 -2.163,0 -3.919,-1.754 -3.919,-3.922 V 294.06 h -3.363 z"
   id="path448"
   inkscape:connector-curvature="0" />
</g>
<g
   id="LWPOLYLINE_76_"
   transform="translate(-53.905998,-13.923)">
	<polygon
   style="fill:#101820"
   points="215.884,294.061 215.884,313.117 223.729,313.117 223.729,316.48 212.521,316.48 212.521,294.061 "
   id="polygon451" />
</g>
<g
   id="LWPOLYLINE_75_"
   transform="translate(-53.905998,-13.923)">
	<polygon
   style="fill:#101820"
   points="233.04,294.061 236.848,294.061 242.79,316.48 239.204,316.48 238.196,312.67 231.692,312.67 230.684,316.48 227.092,316.48 "
   id="polygon454" />
</g>
<g
   id="LWPOLYLINE_74_"
   transform="translate(-53.905998,-13.923)">
	<polygon
   style="fill:#101820"
   points="131.131,306.393 131.131,316.48 127.768,316.48 127.768,294.061 131.131,294.061 131.131,303.029 138.983,303.029 138.983,294.061 142.346,294.061 142.346,316.48 138.983,316.48 138.983,306.393 "
   id="polygon457" />
</g>
<g
   id="LWPOLYLINE_73_"
   transform="translate(-53.905998,-13.923)">
	<path
   style="fill:#101820"
   d="m 149.969,309.195 c 0,4.025 3.264,7.285 7.282,7.285 4.024,0 7.289,-3.26 7.289,-7.285 V 294.06 h -3.363 v 15.135 c 0,2.168 -1.756,3.922 -3.926,3.922 -2.164,0 -3.92,-1.754 -3.92,-3.922 V 294.06 h -3.362 z"
   id="path460"
   inkscape:connector-curvature="0" />
</g>
<g
   id="LWPOLYLINE_12_"
   transform="translate(-53.905998,-13.923)">
	<rect
   x="217.455"
   y="234.27299"
   style="fill:#ffffff"
   width="67.263"
   height="37.367001"
   id="rect463" />
</g>
<g
   id="LWPOLYLINE_72_"
   transform="translate(-53.905998,-13.923)">
	<polygon
   style="fill:#101820"
   points="271.154,256.318 272.947,256.318 272.947,259.682 271.154,259.682 271.154,264.166 267.791,264.166 267.791,259.682 259.494,259.682 259.494,256.318 267.791,241.744 271.154,241.744 "
   id="polygon466" />
</g>
<g
   id="LWPOLYLINE_71_"
   transform="translate(-53.905998,-13.923)">
	<path
   style="fill:#101820"
   d="m 229.225,258 c 0,3.406 2.764,6.166 6.164,6.166 3.406,0 6.17,-2.76 6.17,-6.166 v -1.344 c 0,-1.818 -0.804,-3.547 -2.201,-4.719 1.051,-1.121 1.639,-2.602 1.639,-4.139 v -0.447 c 0,-3.098 -2.51,-5.607 -5.607,-5.607 -3.091,0 -5.602,2.51 -5.602,5.607 v 0.447 h 3.363 v -0.447 c 0,-1.24 1.002,-2.244 2.238,-2.244 1.242,0 2.244,1.004 2.244,2.244 v 0.447 c 0,1.488 -1.205,2.693 -2.689,2.693 h -0.451 v 3.137 h 0.896 c 1.552,0 2.807,1.256 2.807,2.805 V 258 c 0,1.549 -1.255,2.805 -2.807,2.805 -1.546,0 -2.801,-1.256 -2.801,-2.805 z"
   id="path469"
   inkscape:connector-curvature="0" />
</g>
<g
   id="LWPOLYLINE_70_"
   transform="translate(-53.905998,-13.923)">
	<path
   style="fill:#101820"
   d="m 245.368,241.744 v 3.363 h 7.418 c -0.352,1.799 -0.896,3.555 -1.632,5.236 -1.366,3.4 -2.071,7.035 -2.071,10.701 v 3.137 h 3.363 v -4.258 c 0,-3.742 0.711,-7.447 2.096,-10.922 0.779,-2.346 1.236,-4.785 1.366,-7.258 h -10.54 z"
   id="path472"
   inkscape:connector-curvature="0" />
</g>
<g
   id="LWPOLYLINE_8_"
   transform="translate(-53.905998,-13.923)">
	<path
   style="fill:#ffffff"
   d="m 172.615,234.273 h 35.869 c 2.479,0 4.488,2.006 4.488,4.484 v 28.398 c 0,2.477 -2.009,4.484 -4.488,4.484 h -35.869 c -2.479,0 -4.488,-2.008 -4.488,-4.484 v -28.398 c -0.001,-2.478 2.008,-4.484 4.488,-4.484 z"
   id="path475"
   inkscape:connector-curvature="0" />
</g>
<g
   id="LWPOLYLINE_14_"
   transform="translate(-53.905998,-13.923)">
	<path
   style="fill:#e4002b"
   d="m 172.615,236.514 h 35.869 c 1.243,0 2.244,1.004 2.244,2.244 v 28.398 c 0,1.24 -1.001,2.24 -2.244,2.24 h -35.869 c -1.243,0 -2.244,-1 -2.244,-2.24 v -28.398 c 0,-1.24 1.001,-2.244 2.244,-2.244 z"
   id="path478"
   inkscape:connector-curvature="0" />
</g>
<g
   id="LWPOLYLINE_19_"
   transform="translate(-53.905998,-13.923)">
	<path
   style="fill:#ffffff"
   d="m 175.526,249.033 h 3.363 v -1.123 c 0,-0.361 0.074,-0.719 0.211,-1.057 0.58,-1.434 2.219,-2.123 3.653,-1.537 1.434,0.586 2.12,2.221 1.533,3.654 l -8.761,11.834 v 3.361 h 12.334 v -3.361 h -8.52 l 8.154,-10.799 c 1.156,-3.205 -0.507,-6.734 -3.709,-7.895 -3.202,-1.156 -6.732,0.504 -7.895,3.707 -0.31,0.865 -0.427,1.795 -0.334,2.713 z"
   id="path481"
   inkscape:connector-curvature="0" />
</g>
<g
   id="LWPOLYLINE_18_"
   transform="translate(-53.905998,-13.923)">
	<path
   style="fill:#ffffff"
   d="m 193.239,258 v -3.508 c 0.804,-4.656 2.757,-9.039 5.688,-12.748 h 4.482 c -2.585,2.615 -4.563,5.768 -5.787,9.236 0.575,-0.18 1.181,-0.266 1.787,-0.266 3.4,0 6.163,2.76 6.163,6.164 V 258 c 0,3.406 -2.763,6.166 -6.163,6.166 -3.408,0 -6.17,-2.76 -6.17,-6.166 z"
   id="path484"
   inkscape:connector-curvature="0" />
</g>
<g
   id="LWPOLYLINE_46_"
   transform="translate(-53.905998,-13.923)">
	<path
   style="fill:#ffffff"
   d="m 184.497,174.857 h 4.371 c 3.159,0 5.719,-2.56 5.719,-5.719 v -0.896 c 0,-3.158 -2.56,-5.718 -5.719,-5.718 h -7.734 v 22.423 h 3.363 z"
   id="path487"
   inkscape:connector-curvature="0" />
</g>
<g
   id="LWPOLYLINE_45_"
   transform="translate(-53.905998,-13.923)">
	<polygon
   style="fill:#ffffff"
   points="211.625,181.584 202.654,181.584 202.654,174.857 208.712,174.857 208.712,171.494 202.654,171.494 202.654,165.888 211.625,165.888 211.625,162.524 199.291,162.524 199.291,184.947 211.625,184.947 "
   id="polygon490" />
</g>
<g
   id="LWPOLYLINE_44_"
   transform="translate(-53.905998,-13.923)">
	<polygon
   style="fill:#ffffff"
   points="230.01,181.584 221.04,181.584 221.04,174.857 227.092,174.857 227.092,171.494 221.04,171.494 221.04,165.888 230.01,165.888 230.01,162.524 217.677,162.524 217.677,184.947 230.01,184.947 "
   id="polygon493" />
</g>
<g
   id="LWPOLYLINE_43_"
   transform="translate(-53.905998,-13.923)">
	<polygon
   style="fill:#ffffff"
   points="239.426,162.524 247.271,177.658 247.271,162.524 250.634,162.524 250.634,184.947 247.271,184.947 239.426,169.813 239.426,184.947 236.063,184.947 236.063,162.524 "
   id="polygon496" />
</g>
<g
   id="LWPOLYLINE_42_"
   transform="translate(-53.905998,-13.923)">
	<path
   style="fill:#ffffff"
   d="m 261.626,174.857 v 10.09 h -3.363 v -22.423 h 7.734 c 3.153,0 5.719,2.56 5.719,5.718 v 0.896 c 0,2.408 -1.509,4.557 -3.777,5.376 l 3.777,10.433 h -3.592 l -3.647,-10.09 z"
   id="path499"
   inkscape:connector-curvature="0" />
</g>
<g
   id="LWPOLYLINE_41_"
   transform="translate(-53.905998,-13.923)">
	<polygon
   style="fill:#ffffff"
   points="280.569,162.524 284.383,162.524 290.325,184.947 286.733,184.947 285.725,181.133 279.221,181.133 278.213,184.947 274.627,184.947 "
   id="polygon502" />
</g>
<g
   id="LWPOLYLINE_40_"
   transform="translate(-53.905998,-13.923)">
	<polygon
   style="fill:#ffffff"
   points="298.622,162.524 306.466,177.658 306.466,162.524 309.83,162.524 309.83,184.947 306.466,184.947 298.622,169.813 298.622,184.947 295.258,184.947 295.258,162.524 "
   id="polygon505" />
</g>
<g
   id="LWPOLYLINE_39_"
   transform="translate(-53.905998,-13.923)">
	<polygon
   style="fill:#ffffff"
   points="328.661,165.888 323.06,165.888 323.06,184.947 319.697,184.947 319.697,165.888 314.089,165.888 314.089,162.524 328.661,162.524 "
   id="polygon508" />
</g>
<g
   id="LWPOLYLINE_38_"
   transform="translate(-53.905998,-13.923)">
	<polygon
   style="fill:#ffffff"
   points="336.172,162.524 339.987,162.524 345.928,184.947 342.336,184.947 341.329,181.133 334.831,181.133 333.817,184.947 330.231,184.947 "
   id="polygon511" />
</g>
<g
   id="LWPOLYLINE_34_"
   transform="translate(-53.905998,-13.923)">
	<polygon
   style="fill:#ffffff"
   points="131.131,162.524 131.131,181.584 138.983,181.584 138.983,184.947 127.768,184.947 127.768,162.524 "
   id="polygon514" />
</g>
<g
   id="LWPOLYLINE_33_"
   transform="translate(-53.905998,-13.923)">
	<polygon
   style="fill:#ffffff"
   points="148.288,162.524 152.095,162.524 158.037,184.947 154.451,184.947 153.443,181.133 146.94,181.133 145.932,184.947 142.346,184.947 "
   id="polygon517" />
</g>
<g
   id="LWPOLYLINE_32_"
   transform="translate(-53.905998,-13.923)">
	<path
   style="fill:#ffffff"
   d="m 166.333,174.857 h 4.37 c 3.159,0 5.719,-2.56 5.719,-5.719 v -0.896 c 0,-3.158 -2.56,-5.718 -5.719,-5.718 h -7.733 v 22.423 h 3.363 z"
   id="path520"
   inkscape:connector-curvature="0" />
</g>
<g
   id="LWPOLYLINE_51_"
   transform="translate(-53.905998,-13.923)">
	<polygon
   style="fill:#ffffff"
   points="187.637,214.094 191.897,198.4 195.483,198.4 189.319,220.82 185.956,220.82 179.786,198.4 183.377,198.4 "
   id="polygon523" />
</g>
<g
   id="LWPOLYLINE_50_"
   transform="translate(-53.905998,-13.923)">
	<polygon
   style="fill:#ffffff"
   points="212.744,217.457 203.779,217.457 203.779,210.73 209.832,210.73 209.832,207.367 203.779,207.367 203.779,201.764 212.744,201.764 212.744,198.4 200.417,198.4 200.417,220.82 212.744,220.82 "
   id="polygon526" />
</g>
<g
   id="LWPOLYLINE_49_"
   transform="translate(-53.905998,-13.923)">
	<polygon
   style="fill:#ffffff"
   points="230.01,201.764 224.403,201.764 224.403,220.82 221.04,220.82 221.04,201.764 215.439,201.764 215.439,198.4 230.01,198.4 "
   id="polygon529" />
</g>
<g
   id="LWPOLYLINE_48_"
   transform="translate(-53.905998,-13.923)">
	<polygon
   style="fill:#ffffff"
   points="247.271,201.764 241.67,201.764 241.67,220.82 238.307,220.82 238.307,201.764 232.7,201.764 232.7,198.4 247.271,198.4 "
   id="polygon532" />
</g>
<g
   id="LWPOLYLINE_47_"
   transform="translate(-53.905998,-13.923)">
	<rect
   x="251.53799"
   y="198.39999"
   style="fill:#ffffff"
   width="3.362"
   height="22.42"
   id="rect535" />
</g>
<g
   id="LWPOLYLINE_37_"
   transform="translate(-53.905998,-13.923)">
	<polygon
   style="fill:#ffffff"
   points="142.346,201.764 136.739,201.764 136.739,220.82 133.375,220.82 133.375,201.764 127.768,201.764 127.768,198.4 142.346,198.4 "
   id="polygon538" />
</g>
<g
   id="LWPOLYLINE_36_"
   transform="translate(-53.905998,-13.923)">
	<polygon
   style="fill:#ffffff"
   points="149.858,198.4 153.666,198.4 159.607,220.82 156.021,220.82 155.013,217.008 148.51,217.008 147.502,220.82 143.917,220.82 "
   id="polygon541" />
</g>
<g
   id="LWPOLYLINE_35_"
   transform="translate(-53.905998,-13.923)">
	<polygon
   style="fill:#ffffff"
   points="167.792,198.4 171.607,198.4 177.547,220.82 173.956,220.82 172.948,217.008 166.445,217.008 165.437,220.82 161.851,220.82 "
   id="polygon544" />
</g>
<g
   id="LWPOLYLINE_10_"
   transform="translate(-53.905998,-13.923)">
	<path
   style="fill:#ffffff"
   d="m 73.216,104.231 h 28.395 c 2.479,0 4.488,-2.009 4.488,-4.485 V 71.347 c 0,-2.478 -2.009,-4.485 -4.488,-4.485 H 73.216 c -2.479,0 -4.489,2.008 -4.489,4.485 v 28.399 c 0,2.477 2.01,4.485 4.489,4.485 z"
   id="path547"
   inkscape:connector-curvature="0" />
</g>
<g
   id="LWPOLYLINE_15_"
   transform="translate(-53.905998,-13.923)">
	<path
   style="fill:#e4002b"
   d="m 73.216,101.987 h 28.395 c 1.243,0 2.244,-1.002 2.244,-2.241 V 71.347 c 0,-1.238 -1.001,-2.243 -2.244,-2.243 H 73.216 c -1.243,0 -2.244,1.005 -2.244,2.243 v 28.399 c 0,1.239 1.001,2.241 2.244,2.241 z"
   id="path550"
   inkscape:connector-curvature="0" />
</g>
<g
   id="LWPOLYLINE_9_"
   transform="translate(-53.905998,-13.923)">
	<path
   style="fill:#ffffff"
   d="m 114.316,104.231 h 59.788 c 2.065,0 3.74,-1.676 3.74,-3.74 V 70.599 c 0,-2.063 -1.675,-3.737 -3.74,-3.737 h -59.788 c -2.059,0 -3.734,1.674 -3.734,3.737 v 29.893 c 0,2.064 1.675,3.739 3.734,3.739 z"
   id="path553"
   inkscape:connector-curvature="0" />
</g>
<g
   id="LWPOLYLINE_11_"
   transform="translate(-53.905998,-13.923)">
	<path
   style="fill:#009775"
   d="m 114.316,101.987 h 59.788 c 0.829,0 1.496,-0.668 1.496,-1.496 V 70.599 c 0,-0.825 -0.667,-1.495 -1.496,-1.495 h -59.788 c -0.822,0 -1.49,0.67 -1.49,1.495 v 29.893 c 0,0.827 0.668,1.495 1.49,1.495 z"
   id="path556"
   inkscape:connector-curvature="0" />
</g>
<g
   id="LWPOLYLINE_20_"
   transform="translate(-53.905998,-13.923)">
	<path
   style="fill:#ffffff"
   d="m 156.602,84.525 c -1.242,1.167 -1.947,2.793 -1.947,4.498 v 1.566 c 0,3.407 2.764,6.167 6.17,6.167 3.406,0 6.164,-2.76 6.164,-6.167 v -1.566 c 0,-1.705 -0.705,-3.331 -1.947,-4.498 0.896,-1.02 1.385,-2.331 1.385,-3.688 v -0.896 c 0,-3.096 -2.511,-5.605 -5.602,-5.605 -3.098,0 -5.607,2.51 -5.607,5.605 v 0.896 c -10e-4,1.357 0.494,2.669 1.384,3.688 z"
   id="path559"
   inkscape:connector-curvature="0" />
</g>
<g
   id="LWPOLYLINE_92_"
   transform="translate(-53.905998,-13.923)">
	<path
   style="fill:#ffffff"
   d="m 91.899,291.072 c 0,-18.574 15.054,-33.631 33.631,-33.631 h 18.047 l -11.209,11.207 h 11.098 l 15.696,-15.693 -15.696,-15.693 h -11.098 l 11.209,11.209 H 125.53 c -13.149,0 -25.563,6.074 -33.631,16.453 V 128.781 l 11.208,11.208 v -11.097 l -15.696,-15.693 -15.69,15.693 v 11.097 l 11.208,-11.208 v 219.09 H 91.9 v -56.799 z"
   id="path562"
   inkscape:connector-curvature="0" />
</g>
<g
   id="LWPOLYLINE_91_"
   transform="translate(-53.905998,-13.923)">
	<polygon
   style="fill:#ffffff"
   points="234.944,299.666 237.411,309.307 232.477,309.307 "
   id="polygon565" />
</g>
<g
   id="LWPOLYLINE_90_"
   transform="translate(-53.905998,-13.923)">
	<polygon
   style="fill:#ffffff"
   points="267.791,256.318 263.308,256.318 267.791,248.443 "
   id="polygon568" />
</g>
<g
   id="LWPOLYLINE_89_"
   transform="translate(-53.905998,-13.923)">
	<path
   style="fill:#e4002b"
   d="m 196.602,258 c 0,1.549 1.255,2.805 2.807,2.805 1.545,0 2.8,-1.256 2.8,-2.805 v -1.121 c 0,-1.547 -1.255,-2.801 -2.8,-2.801 -1.552,0 -2.807,1.254 -2.807,2.801 z"
   id="path571"
   inkscape:connector-curvature="0" />
</g>
<g
   id="LWPOLYLINE_88_"
   transform="translate(-53.905998,-13.923)">
	<path
   style="fill:#005eb8"
   d="m 184.497,171.494 h 4.371 c 1.298,0 2.355,-1.057 2.355,-2.355 v -0.896 c 0,-1.301 -1.058,-2.354 -2.355,-2.354 h -4.371 z"
   id="path574"
   inkscape:connector-curvature="0" />
</g>
<g
   id="LWPOLYLINE_87_"
   transform="translate(-53.905998,-13.923)">
	<path
   style="fill:#005eb8"
   d="m 261.626,171.494 h 4.371 c 1.298,0 2.355,-1.057 2.355,-2.355 v -0.896 c 0,-1.301 -1.058,-2.354 -2.355,-2.354 h -4.371 z"
   id="path577"
   inkscape:connector-curvature="0" />
</g>
<g
   id="LWPOLYLINE_86_"
   transform="translate(-53.905998,-13.923)">
	<polygon
   style="fill:#005eb8"
   points="282.473,168.132 284.94,177.77 280.006,177.77 "
   id="polygon580" />
</g>
<g
   id="LWPOLYLINE_85_"
   transform="translate(-53.905998,-13.923)">
	<polygon
   style="fill:#005eb8"
   points="338.077,168.132 340.543,177.77 335.61,177.77 "
   id="polygon583" />
</g>
<g
   id="LWPOLYLINE_84_"
   transform="translate(-53.905998,-13.923)">
	<polygon
   style="fill:#005eb8"
   points="151.761,204.004 154.228,213.646 149.295,213.646 "
   id="polygon586" />
</g>
<g
   id="LWPOLYLINE_83_"
   transform="translate(-53.905998,-13.923)">
	<polygon
   style="fill:#005eb8"
   points="169.696,204.004 172.163,213.646 167.23,213.646 "
   id="polygon589" />
</g>
<g
   id="LWPOLYLINE_82_"
   transform="translate(-53.905998,-13.923)">
	<polygon
   style="fill:#005eb8"
   points="150.191,168.132 152.658,177.77 147.725,177.77 "
   id="polygon592" />
</g>
<g
   id="LWPOLYLINE_81_"
   transform="translate(-53.905998,-13.923)">
	<path
   style="fill:#005eb8"
   d="m 166.333,171.494 h 4.37 c 1.305,0 2.355,-1.057 2.355,-2.355 v -0.896 c 0,-1.301 -1.051,-2.354 -2.355,-2.354 h -4.37 z"
   id="path595"
   inkscape:connector-curvature="0" />
</g>
<g
   id="LWPOLYLINE_486_"
   transform="translate(-53.905998,-13.923)">
	<path
   style="fill:#005eb8"
   d="m 166.315,386.26 c 0,1.553 1.255,2.805 2.807,2.805 1.545,0 2.801,-1.252 2.801,-2.805 v -1.566 c 0,-1.549 -1.256,-2.803 -2.801,-2.803 -1.552,0 -2.807,1.254 -2.807,2.803 z"
   id="path598"
   inkscape:connector-curvature="0" />
</g>
<g
   id="LWPOLYLINE_488_"
   transform="translate(-53.905998,-13.923)">
	<path
   style="fill:#005eb8"
   d="m 166.877,375.611 v 0.9 c 0,1.236 1.001,2.24 2.244,2.24 1.236,0 2.238,-1.004 2.238,-2.24 v -0.9 c 0,-1.24 -1.002,-2.24 -2.238,-2.24 -1.243,0 -2.244,1 -2.244,2.24 z"
   id="path601"
   inkscape:connector-curvature="0" />
</g>
<g
   id="LWPOLYLINE_80_"
   transform="translate(-53.905998,-13.923)">
	<path
   style="fill:#009775"
   d="m 158.018,90.59 c 0,1.549 1.255,2.804 2.807,2.804 1.546,0 2.801,-1.255 2.801,-2.804 v -1.566 c 0,-1.552 -1.255,-2.804 -2.801,-2.804 -1.552,0 -2.807,1.252 -2.807,2.804 z"
   id="path604"
   inkscape:connector-curvature="0" />
</g>
<g
   id="LWPOLYLINE_79_"
   transform="translate(-53.905998,-13.923)">
	<path
   style="fill:#009775"
   d="m 158.581,79.941 v 0.896 c 0,1.238 1.002,2.241 2.244,2.241 1.236,0 2.238,-1.003 2.238,-2.241 v -0.896 c 0,-1.239 -1.002,-2.242 -2.238,-2.242 -1.242,0 -2.244,1.003 -2.244,2.242 z"
   id="path607"
   inkscape:connector-curvature="0" />
</g>
<g
   id="LWPOLYLINE_69_"
   transform="translate(-53.905998,-13.923)">
	<path
   style="fill:#101820"
   d="m 218.574,241.744 v -1.867 c 0,-2.477 2.009,-4.482 4.488,-4.482 h 3.362 v 2.242 h -3.362 c -1.243,0 -2.244,1.004 -2.244,2.24 v 1.867 z"
   id="path610"
   inkscape:connector-curvature="0" />
</g>
<g
   id="LWPOLYLINE_68_"
   transform="translate(-53.905998,-13.923)">
	<path
   style="fill:#101820"
   d="m 220.818,264.166 v 1.867 c 0,1.24 1.001,2.244 2.244,2.244 h 3.362 v 2.242 h -3.362 c -2.479,0 -4.488,-2.006 -4.488,-4.486 v -1.867 z"
   id="path613"
   inkscape:connector-curvature="0" />
</g>
<g
   id="LWPOLYLINE_67_"
   transform="translate(-53.905998,-13.923)">
	<path
   style="fill:#101820"
   d="m 283.598,241.744 v -1.867 c 0,-2.477 -2.009,-4.482 -4.488,-4.482 h -3.363 v 2.242 h 3.363 c 1.243,0 2.244,1.004 2.244,2.24 v 1.867 z"
   id="path616"
   inkscape:connector-curvature="0" />
</g>
<g
   id="LWPOLYLINE_66_"
   transform="translate(-53.905998,-13.923)">
	<path
   style="fill:#101820"
   d="m 281.354,264.166 v 1.867 c 0,1.24 -1.001,2.244 -2.244,2.244 h -3.363 v 2.242 h 3.363 c 2.479,0 4.488,-2.006 4.488,-4.486 v -1.867 z"
   id="path619"
   inkscape:connector-curvature="0" />
</g>
<g
   id="LWPOLYLINE_65_"
   transform="translate(-53.905998,-13.923)">
	<rect
   x="218.57401"
   y="246.229"
   style="fill:#101820"
   width="2.244"
   height="4.4860001"
   id="rect622" />
</g>
<g
   id="LWPOLYLINE_64_"
   transform="translate(-53.905998,-13.923)">
	<rect
   x="218.57401"
   y="255.19701"
   style="fill:#101820"
   width="2.244"
   height="4.4840002"
   id="rect625" />
</g>
<g
   id="LWPOLYLINE_63_"
   transform="translate(-53.905998,-13.923)">
	<rect
   x="266.78299"
   y="268.27701"
   style="fill:#101820"
   width="4.4819999"
   height="2.2420001"
   id="rect628" />
</g>
<g
   id="LWPOLYLINE_62_"
   transform="translate(-53.905998,-13.923)">
	<rect
   x="257.81201"
   y="268.27701"
   style="fill:#101820"
   width="4.4819999"
   height="2.2420001"
   id="rect631" />
</g>
<g
   id="LWPOLYLINE_61_"
   transform="translate(-53.905998,-13.923)">
	<rect
   x="248.841"
   y="268.27701"
   style="fill:#101820"
   width="4.4889998"
   height="2.2420001"
   id="rect634" />
</g>
<g
   id="LWPOLYLINE_60_"
   transform="translate(-53.905998,-13.923)">
	<rect
   x="239.877"
   y="268.27701"
   style="fill:#101820"
   width="4.4819999"
   height="2.2420001"
   id="rect637" />
</g>
<g
   id="LWPOLYLINE_59_"
   transform="translate(-53.905998,-13.923)">
	<rect
   x="266.78299"
   y="235.395"
   style="fill:#101820"
   width="4.4819999"
   height="2.2420001"
   id="rect640" />
</g>
<g
   id="LWPOLYLINE_58_"
   transform="translate(-53.905998,-13.923)">
	<rect
   x="257.81201"
   y="235.395"
   style="fill:#101820"
   width="4.4819999"
   height="2.2420001"
   id="rect643" />
</g>
<g
   id="LWPOLYLINE_57_"
   transform="translate(-53.905998,-13.923)">
	<rect
   x="248.841"
   y="235.395"
   style="fill:#101820"
   width="4.4889998"
   height="2.2420001"
   id="rect646" />
</g>
<g
   id="LWPOLYLINE_56_"
   transform="translate(-53.905998,-13.923)">
	<rect
   x="239.877"
   y="235.395"
   style="fill:#101820"
   width="4.4819999"
   height="2.2420001"
   id="rect649" />
</g>
<g
   id="LWPOLYLINE_55_"
   transform="translate(-53.905998,-13.923)">
	<rect
   x="230.907"
   y="235.395"
   style="fill:#101820"
   width="4.4819999"
   height="2.2420001"
   id="rect652" />
</g>
<g
   id="LWPOLYLINE_54_"
   transform="translate(-53.905998,-13.923)">
	<rect
   x="281.354"
   y="246.229"
   style="fill:#101820"
   width="2.244"
   height="4.4860001"
   id="rect655" />
</g>
<g
   id="LWPOLYLINE_53_"
   transform="translate(-53.905998,-13.923)">
	<rect
   x="281.354"
   y="255.19701"
   style="fill:#101820"
   width="2.244"
   height="4.4840002"
   id="rect658" />
</g>
<g
   id="LWPOLYLINE_52_"
   transform="translate(-53.905998,-13.923)">
	<rect
   x="230.907"
   y="268.27701"
   style="fill:#101820"
   width="4.4819999"
   height="2.2420001"
   id="rect661" />
</g>
<g
   id="LWPOLYLINE_31_"
   transform="translate(-53.905998,-13.923)">
	<polygon
   style="fill:#ffffff"
   points="175.674,53.41 175.674,30.988 179.038,30.988 179.038,41.75 186.215,30.988 190.252,30.988 183.86,40.517 190.252,53.41 186.438,53.41 181.733,43.769 179.038,47.805 179.038,53.41 "
   id="polygon664" />
</g>
<g
   id="LWPOLYLINE_30_"
   transform="translate(-53.905998,-13.923)">
	<rect
   x="194.735"
   y="30.988001"
   style="fill:#ffffff"
   width="3.3629999"
   height="22.422001"
   id="rect667" />
</g>
<g
   id="LWPOLYLINE_29_"
   transform="translate(-53.905998,-13.923)">
	<polygon
   style="fill:#ffffff"
   points="72.09,43.32 72.09,53.41 68.727,53.41 68.727,30.988 72.09,30.988 72.09,39.958 79.942,39.958 79.942,30.988 83.305,30.988 83.305,53.41 79.942,53.41 79.942,43.32 "
   id="polygon670" />
</g>
<g
   id="LWPOLYLINE_28_"
   transform="translate(-53.905998,-13.923)">
	<polygon
   style="fill:#ffffff"
   points="103.255,50.047 94.292,50.047 94.292,43.32 100.344,43.32 100.344,39.958 94.292,39.958 94.292,34.352 103.255,34.352 103.255,30.988 90.928,30.988 90.928,53.41 103.255,53.41 "
   id="polygon673" />
</g>
<g
   id="LWPOLYLINE_27_"
   transform="translate(-53.905998,-13.923)">
	<polygon
   style="fill:#ffffff"
   points="112.671,30.988 112.671,50.047 120.523,50.047 120.523,53.41 109.308,53.41 109.308,30.988 "
   id="polygon676" />
</g>
<g
   id="LWPOLYLINE_26_"
   transform="translate(-53.905998,-13.923)">
	<path
   style="fill:#ffffff"
   d="m 132.993,37.043 c -0.068,-1.451 -1.23,-2.614 -2.678,-2.691 H 128.9 c -1.466,0.093 -2.578,1.358 -2.485,2.825 0.049,0.781 0.438,1.498 1.063,1.966 l 5.984,2.192 c 1.552,0.93 2.651,2.467 3.029,4.239 0.748,3.523 -1.496,6.986 -5.021,7.735 -0.049,0.008 -0.099,0.018 -0.148,0.023 -4.352,0.645 -8.407,-2.363 -9.051,-6.719 l 3.326,-0.491 c 0.377,2.516 2.714,4.255 5.236,3.884 1.7,-0.403 2.751,-2.105 2.35,-3.802 -0.174,-0.742 -0.612,-1.397 -1.23,-1.841 l -5.997,-2.198 c -1.73,-1.045 -2.819,-2.886 -2.905,-4.904 -0.143,-3.324 2.441,-6.134 5.768,-6.273 h 1.57 c 3.277,0.119 5.898,2.776 5.973,6.058 z"
   id="path679"
   inkscape:connector-curvature="0" />
</g>
<g
   id="LWPOLYLINE_25_"
   transform="translate(-53.905998,-13.923)">
	<rect
   x="142.495"
   y="30.988001"
   style="fill:#ffffff"
   width="3.3629999"
   height="22.422001"
   id="rect682" />
</g>
<g
   id="LWPOLYLINE_24_"
   transform="translate(-53.905998,-13.923)">
	<polygon
   style="fill:#ffffff"
   points="156.843,30.988 164.689,46.123 164.689,30.988 168.052,30.988 168.052,53.41 164.689,53.41 156.843,38.276 156.843,53.41 153.48,53.41 153.48,30.988 "
   id="polygon685" />
</g>
<g
   id="LWPOLYLINE_23_"
   transform="translate(-53.905998,-13.923)">
	<path
   style="fill:#ffffff"
   d="m 82.149,74.336 v 3.361 h 7.413 c -0.353,1.798 -0.903,3.55 -1.632,5.229 -1.367,3.4 -2.071,7.031 -2.071,10.693 v 3.138 h 3.363 v -4.26 c 0,-3.733 0.711,-7.437 2.096,-10.908 0.772,-2.346 1.229,-4.785 1.36,-7.253 z"
   id="path688"
   inkscape:connector-curvature="0" />
</g>
<g
   id="LWPOLYLINE_22_"
   transform="translate(-53.905998,-13.923)">
	<polygon
   style="fill:#ffffff"
   points="133.771,93.394 124.801,93.394 124.801,86.668 130.853,86.668 130.853,83.305 124.801,83.305 124.801,77.699 133.771,77.699 133.771,74.336 121.438,74.336 121.438,96.757 133.771,96.757 "
   id="polygon691" />
</g>
<g
   id="LWPOLYLINE_21_"
   transform="translate(-53.905998,-13.923)">
	<path
   style="fill:#ffffff"
   d="m 141.988,77.631 c 1.329,-0.687 2.324,-1.872 2.77,-3.295 h 3.4 v 22.421 h -3.363 V 79.493 l -2.467,0.448 z"
   id="path694"
   inkscape:connector-curvature="0" />
</g>
<g
   id="LWPOLYLINE_484_"
   transform="translate(-53.905998,-13.923)">
	<path
   style="fill:#ffffff"
   d="m 223.983,373.217 c 1.329,-0.688 2.324,-1.875 2.77,-3.299 h 3.4 v 22.42 h -3.363 v -17.262 l -2.467,0.445 z"
   id="path697"
   inkscape:connector-curvature="0" />
</g>
<g
   id="LWPOLYLINE_489_"
   transform="translate(-53.905998,-13.923)">
	<path
   style="fill:#ffffff"
   d="m 235.08,390.656 v 5.045 l 3.092,-4.117 c 0.507,-0.777 0.297,-1.818 -0.482,-2.332 -0.772,-0.51 -1.817,-0.297 -2.331,0.48 -0.18,0.276 -0.279,0.596 -0.279,0.924 z"
   id="path700"
   inkscape:connector-curvature="0" />
</g>
<g
   id="LWPOLYLINE_490_"
   transform="translate(-53.905998,-13.923)">
	<path
   style="fill:#ffffff"
   d="m 245.843,387.713 c 0,2.557 2.071,4.625 4.624,4.625 2.554,0 4.625,-2.068 4.625,-4.625 v -1.848 c 0,-2.553 -2.071,-4.625 -4.625,-4.625 -0.643,0 -1.279,0.137 -1.873,0.396 l 0.358,-3.592 h 4.625 l -0.167,-2.523 h -6.727 l -0.841,8.408 2.942,0.674 c 0.396,-0.529 1.021,-0.84 1.682,-0.84 1.162,0 2.103,0.939 2.103,2.102 v 1.848 c 0,1.162 -0.94,2.102 -2.103,2.102 -1.163,0 -2.102,-0.939 -2.102,-2.102 z"
   id="path703"
   inkscape:connector-curvature="0" />
</g>
<g
   id="LWPOLYLINE_17_"
   transform="translate(-53.905998,-13.923)">
	<polygon
   style="fill:#ffffff"
   points="269.669,369.918 273.033,369.918 273.033,382.307 277.515,375.521 280.878,375.521 277.04,381.281 280.903,392.344 277.515,392.338 274.813,384.623 273.033,387.293 273.033,392.338 269.669,392.338 "
   id="polygon706" />
</g>
<g
   id="LWPOLYLINE_16_"
   transform="translate(-53.905998,-13.923)">
	<path
   style="fill:#ffffff"
   d="m 293.571,376.475 c -0.729,-0.613 -1.651,-0.953 -2.604,-0.953 -1.354,0.168 -2.652,0.629 -3.814,1.348 v -1.348 h -3.363 v 16.816 h 3.363 v -11.883 c 0,-1.236 1.008,-2.24 2.244,-2.24 1.236,0 2.244,1.004 2.244,2.24 v 11.883 h 3.363 v -11.883 c 0,-1.236 1.002,-2.24 2.238,-2.24 1.242,0 2.244,1.004 2.244,2.24 v 11.883 h 3.363 v -12.811 c -0.154,-2.156 -1.88,-3.869 -4.037,-4.006 -1.805,-0.228 -3.634,0.106 -5.241,0.954 z"
   id="path709"
   inkscape:connector-curvature="0" />
</g>
</svg>