<?xml version="1.0" encoding="iso-8859-1"?>
<!-- Generator: Adobe Illustrator 16.0.0, SVG Export Plug-In . SVG Version: 6.00 Build 0)  -->
<!DOCTYPE svg PUBLIC "-//W3C//DTD SVG 1.1//EN" "http://www.w3.org/Graphics/SVG/1.1/DTD/svg11.dtd">
<svg version="1.1" id="Layer_1" xmlns="http://www.w3.org/2000/svg" xmlns:xlink="http://www.w3.org/1999/xlink" x="0px" y="0px"
	 width="425.197px" height="425.196px" viewBox="0 0 425.197 425.196" style="enable-background:new 0 0 425.197 425.196;"
	 xml:space="preserve">
<g id="LWPOLYLINE_210_">
	
		<rect x="14.174" y="105.278" style="fill:#005EB8;stroke:#005EB8;stroke-width:0.5;stroke-miterlimit:10;" width="396.849" height="214.641"/>
</g>
<g id="LWPOLYLINE_209_">
	<path style="fill:#FFFFFF;" d="M22.76,105.278h379.678c4.742,0,8.585,3.843,8.585,8.585v197.47c0,4.738-3.843,8.586-8.585,8.586
		H22.76c-4.742,0-8.586-3.848-8.586-8.586v-197.47C14.174,109.121,18.018,105.278,22.76,105.278z"/>
</g>
<g id="LWPOLYLINE_208_">
	<path style="fill:#005EB8;" d="M22.76,109.571h379.678c2.367,0,4.292,1.921,4.292,4.292v197.47c0,2.371-1.925,4.293-4.292,4.293
		H22.76c-2.375,0-4.293-1.922-4.293-4.293v-197.47C18.467,111.492,20.385,109.571,22.76,109.571z"/>
</g>
<g id="LWPOLYLINE_171_">
	<path style="fill:#FFFFFF;" d="M38.977,298.454h93.486c3.165,0,5.722-2.561,5.722-5.725v-36.252c0-3.156-2.557-5.721-5.722-5.721
		H38.977c-3.165,0-5.722,2.564-5.722,5.721v36.252C33.255,295.894,35.812,298.454,38.977,298.454z"/>
</g>
<g id="LWPOLYLINE_172_">
	<path style="fill:#005EB8;" d="M38.977,295.595h93.486c1.578,0,2.865-1.287,2.865-2.865v-36.252c0-1.578-1.287-2.861-2.865-2.861
		H38.977c-1.578,0-2.865,1.283-2.865,2.861v36.252C36.112,294.308,37.399,295.595,38.977,295.595z"/>
</g>
<g id="LWPOLYLINE_158_">
	<path style="fill:#E4002B;" d="M258.383,298.454h36.252c3.165,0,5.729-2.561,5.729-5.725v-36.252c0-3.156-2.564-5.721-5.729-5.721
		h-36.252c-3.156,0-5.721,2.564-5.721,5.721v36.252C252.663,295.894,255.227,298.454,258.383,298.454z"/>
</g>
<g id="LWPOLYLINE_157_">
	<path style="fill:#009775;" d="M311.807,250.757h74.414c3.156,0,5.721,2.564,5.721,5.721v36.252c0,3.164-2.564,5.725-5.721,5.725
		h-74.414c-3.156,0-5.721-2.561-5.721-5.725v-36.252C306.086,253.321,308.651,250.757,311.807,250.757z"/>
</g>
<g id="LWPOLYLINE_137_">
	<rect x="317.536" y="295.595" style="fill:#FFFFFF;" width="5.722" height="2.859"/>
</g>
<g id="LWPOLYLINE_138_">
	<rect x="328.978" y="295.595" style="fill:#FFFFFF;" width="5.729" height="2.859"/>
</g>
<g id="LWPOLYLINE_139_">
	<rect x="340.428" y="295.595" style="fill:#FFFFFF;" width="5.721" height="2.859"/>
</g>
<g id="LWPOLYLINE_140_">
	<rect x="351.878" y="295.595" style="fill:#FFFFFF;" width="5.722" height="2.859"/>
</g>
<g id="LWPOLYLINE_141_">
	<rect x="363.321" y="295.595" style="fill:#FFFFFF;" width="5.729" height="2.859"/>
</g>
<g id="LWPOLYLINE_142_">
	<rect x="374.771" y="295.595" style="fill:#FFFFFF;" width="5.721" height="2.859"/>
</g>
<g id="LWPOLYLINE_143_">
	<rect x="389.078" y="277.468" style="fill:#FFFFFF;" width="2.864" height="5.721"/>
</g>
<g id="LWPOLYLINE_144_">
	<rect x="389.078" y="266.019" style="fill:#FFFFFF;" width="2.864" height="5.725"/>
</g>
<g id="LWPOLYLINE_145_">
	<path style="fill:#FFFFFF;" d="M311.807,250.757c-3.156,0-5.721,2.564-5.721,5.721v3.818h2.864v-3.818
		c0-1.578,1.278-2.861,2.856-2.861V250.757z"/>
</g>
<g id="LWPOLYLINE_146_">
	<rect x="306.086" y="266.019" style="fill:#FFFFFF;" width="2.864" height="5.725"/>
</g>
<g id="LWPOLYLINE_147_">
	<rect x="306.086" y="277.468" style="fill:#FFFFFF;" width="2.864" height="5.721"/>
</g>
<g id="LWPOLYLINE_148_">
	<path style="fill:#FFFFFF;" d="M306.086,288.913v3.816c0,3.164,2.564,5.725,5.721,5.725v-2.859c-1.578,0-2.856-1.287-2.856-2.865
		v-3.816H306.086z"/>
</g>
<g id="LWPOLYLINE_149_">
	<rect x="317.536" y="250.757" style="fill:#FFFFFF;" width="5.722" height="2.859"/>
</g>
<g id="LWPOLYLINE_150_">
	<rect x="328.978" y="250.757" style="fill:#FFFFFF;" width="5.729" height="2.859"/>
</g>
<g id="LWPOLYLINE_151_">
	<rect x="340.428" y="250.757" style="fill:#FFFFFF;" width="5.721" height="2.859"/>
</g>
<g id="LWPOLYLINE_152_">
	<rect x="351.878" y="250.757" style="fill:#FFFFFF;" width="5.722" height="2.859"/>
</g>
<g id="LWPOLYLINE_153_">
	<rect x="363.321" y="250.757" style="fill:#FFFFFF;" width="5.729" height="2.859"/>
</g>
<g id="LWPOLYLINE_154_">
	<rect x="374.771" y="250.757" style="fill:#FFFFFF;" width="5.721" height="2.859"/>
</g>
<g id="LWPOLYLINE_155_">
	<path style="fill:#FFFFFF;" d="M386.221,250.757c3.156,0,5.721,2.564,5.721,5.721v3.818h-2.864v-3.818
		c0-1.578-1.278-2.861-2.856-2.861V250.757z"/>
</g>
<g id="LWPOLYLINE_156_">
	<path style="fill:#FFFFFF;" d="M391.942,288.913v3.816c0,3.164-2.564,5.725-5.721,5.725v-2.859c1.578,0,2.856-1.287,2.856-2.865
		v-3.816H391.942z"/>
</g>
<g id="LWPOLYLINE_173_">
	<polygon style="fill:#FFFFFF;" points="319.943,288.913 335.678,288.913 335.678,284.622 324.236,284.622 324.236,276.036 
		331.961,276.036 331.961,271.743 324.236,271.743 324.236,264.589 335.678,264.589 335.678,260.296 319.943,260.296 	"/>
</g>
<g id="LWPOLYLINE_174_">
	<path style="fill:#FFFFFF;" d="M346.173,264.503c1.696-0.877,2.967-2.391,3.535-4.207h4.34v28.617h-4.292v-22.035l-3.149,0.572
		L346.173,264.503z"/>
</g>
<g id="LWPOLYLINE_176_">
	<path style="fill:#FFFFFF;" d="M364.828,273.302c-1.586,1.49-2.485,3.566-2.485,5.736v2.004c0,4.348,3.527,7.871,7.875,7.871
		c4.341,0,7.868-3.523,7.868-7.871v-2.004c0-2.17-0.899-4.246-2.486-5.736c1.145-1.303,1.769-2.975,1.769-4.707v-1.145
		c0-3.949-3.204-7.154-7.15-7.154c-3.953,0-7.157,3.205-7.157,7.154v1.145C363.06,270.327,363.692,271.999,364.828,273.302z"/>
</g>
<g id="LWPOLYLINE_183_">
	<rect x="56.629" y="172.531" style="fill:#FFFFFF;" width="266.438" height="51.513"/>
</g>
<g id="LWPOLYLINE_184_">
	<polygon style="fill:#101820;" points="72.364,205.442 72.364,212.599 68.072,212.599 68.072,183.979 72.364,183.979 
		72.364,197.716 81.526,183.979 86.679,183.979 78.52,196.141 86.679,212.599 81.81,212.599 75.797,200.292 	"/>
</g>
<g id="LWPOLYLINE_186_">
	<path style="fill:#101820;" d="M108.996,203.296v-10.015c0-5.138-4.159-9.302-9.296-9.302c-5.138,0-9.304,4.164-9.304,9.302v10.015
		c0,5.139,4.166,9.303,9.304,9.303C104.836,212.599,108.996,208.435,108.996,203.296z"/>
</g>
<g id="LWPOLYLINE_187_">
	<path style="fill:#101820;" d="M120.729,199.72v12.879h-4.292v-28.62h9.88c4.024,0,7.291,3.267,7.291,7.297v1.145
		c0,3.074-1.926,5.819-4.813,6.864l4.813,13.314h-4.577l-4.655-12.879H120.729z"/>
</g>
<g id="LWPOLYLINE_189_">
	<polygon style="fill:#101820;" points="145.058,205.442 145.058,212.599 140.765,212.599 140.765,183.979 145.058,183.979 
		145.058,197.716 154.219,183.979 159.365,183.979 151.213,196.141 159.365,212.599 154.504,212.599 148.491,200.292 	"/>
</g>
<g id="LWPOLYLINE_190_">
	<polygon style="fill:#101820;" points="165.094,212.599 180.829,212.599 180.829,208.306 169.387,208.306 169.387,199.72 
		177.112,199.72 177.112,195.426 169.387,195.426 169.387,188.272 180.829,188.272 180.829,183.979 165.094,183.979 	"/>
</g>
<g id="LWPOLYLINE_192_">
	<polygon style="fill:#101820;" points="189.707,212.599 185.122,212.599 192.706,183.979 197.574,183.979 205.158,212.599 
		200.581,212.599 199.294,207.733 190.993,207.733 	"/>
</g>
<g id="LWPOLYLINE_193_">
	<polygon style="fill:#101820;" points="215.748,205.442 215.748,212.599 211.455,212.599 211.455,183.979 215.748,183.979 
		215.748,197.716 224.901,183.979 230.054,183.979 221.903,196.141 230.054,212.599 225.193,212.599 219.18,200.292 	"/>
</g>
<g id="LWPOLYLINE_195_">
	<path style="fill:#101820;" d="M252.378,203.296v-10.015c0-5.138-4.167-9.302-9.304-9.302s-9.296,4.164-9.296,9.302v10.015
		c0,5.139,4.159,9.303,9.296,9.303S252.378,208.435,252.378,203.296z"/>
</g>
<g id="LWPOLYLINE_196_">
	<path style="fill:#101820;" d="M270.875,191.706c-0.095-1.852-1.57-3.336-3.425-3.434h-1.8c-1.869,0.118-3.298,1.734-3.18,3.605
		c0.063,0.996,0.561,1.914,1.365,2.51l7.631,2.797c1.988,1.188,3.393,3.149,3.875,5.413c0.954,4.498-1.918,8.916-6.416,9.871
		c-0.063,0.016-0.118,0.023-0.182,0.031c-5.563,0.82-10.732-3.016-11.553-8.574l4.246-0.629c0.473,3.215,3.464,5.432,6.676,4.959
		c2.178-0.516,3.52-2.688,3.006-4.854c-0.221-0.947-0.781-1.783-1.578-2.35l-7.654-2.805c-2.201-1.334-3.599-3.684-3.709-6.26
		c-0.174-4.244,3.117-7.828,7.363-8.008h2.004c4.19,0.152,7.528,3.543,7.623,7.732L270.875,191.706z"/>
</g>
<g id="LWPOLYLINE_197_">
	<polygon style="fill:#101820;" points="287.29,205.442 287.29,212.599 282.997,212.599 282.997,183.979 287.29,183.979 
		287.29,197.716 296.451,183.979 301.604,183.979 293.444,196.141 301.604,212.599 296.735,212.599 290.73,200.292 	"/>
</g>
<g id="LWPOLYLINE_198_">
	<rect x="307.325" y="183.979" style="fill:#101820;" width="4.293" height="28.62"/>
</g>
<g id="LWPOLYLINE_159_">
	<path style="fill:#FFFFFF;" d="M262.203,253.616h-4.056c-1.483,0.135-2.62,1.377-2.62,2.861v3.818h-2.864v-3.818
		c0-3.156,2.564-5.721,5.721-5.721h3.819V253.616z"/>
</g>
<g id="LWPOLYLINE_160_">
	<rect x="252.663" y="266.019" style="fill:#FFFFFF;" width="2.864" height="5.725"/>
</g>
<g id="LWPOLYLINE_161_">
	<rect x="252.663" y="277.468" style="fill:#FFFFFF;" width="2.864" height="5.721"/>
</g>
<g id="LWPOLYLINE_162_">
	<rect x="267.924" y="250.757" style="fill:#FFFFFF;" width="5.729" height="2.859"/>
</g>
<g id="LWPOLYLINE_163_">
	<rect x="279.375" y="250.757" style="fill:#FFFFFF;" width="5.721" height="2.859"/>
</g>
<g id="LWPOLYLINE_164_">
	<path style="fill:#FFFFFF;" d="M297.5,260.296v-3.818c0-1.578-1.278-2.861-2.865-2.861h-3.811v-2.859h3.811
		c3.165,0,5.729,2.564,5.729,5.721v3.818H297.5z"/>
</g>
<g id="LWPOLYLINE_165_">
	<rect x="297.5" y="266.019" style="fill:#FFFFFF;" width="2.864" height="5.725"/>
</g>
<g id="LWPOLYLINE_166_">
	<rect x="297.5" y="277.468" style="fill:#FFFFFF;" width="2.864" height="5.721"/>
</g>
<g id="LWPOLYLINE_167_">
	<path style="fill:#FFFFFF;" d="M290.825,295.595h3.811c1.587,0,2.865-1.287,2.865-2.865v-3.816h2.864v3.816
		c0,3.164-2.564,5.725-5.729,5.725h-3.811V295.595z"/>
</g>
<g id="LWPOLYLINE_168_">
	<path style="fill:#FFFFFF;" d="M262.203,298.454h-3.819c-3.156,0-5.721-2.561-5.721-5.725v-3.816h2.864v3.816
		c0,1.578,1.278,2.865,2.856,2.865h3.819V298.454z"/>
</g>
<g id="LWPOLYLINE_169_">
	<rect x="267.924" y="295.595" style="fill:#FFFFFF;" width="5.729" height="2.859"/>
</g>
<g id="LWPOLYLINE_170_">
	<rect x="279.375" y="295.595" style="fill:#FFFFFF;" width="5.721" height="2.859"/>
</g>
<g id="LWPOLYLINE_178_">
	<path style="fill:#FFFFFF;" d="M269.794,260.304v4.293h9.462c-0.45,2.293-1.152,4.529-2.084,6.676
		c-1.744,4.338-2.644,8.973-2.644,13.648v4.006h4.293v-5.438c0-4.768,0.907-9.494,2.675-13.928c0.986-2.992,1.57-6.109,1.736-9.258
		H269.794z"/>
</g>
<g id="LWPOLYLINE_179_">
	<path style="fill:#FFFFFF;" d="M47.231,281.042c0,4.348,3.52,7.871,7.867,7.871c4.349,0,7.867-3.523,7.867-7.871v-1.717
		c0-2.322-1.025-4.525-2.801-6.02c1.342-1.434,2.091-3.318,2.091-5.283v-0.572c0-3.949-3.203-7.154-7.157-7.154
		c-3.953,0-7.157,3.205-7.157,7.154v0.572h4.293v-0.572c0-1.582,1.286-2.861,2.864-2.861s2.865,1.279,2.865,2.861v0.572
		c0,1.896-1.539,3.432-3.434,3.432h-0.576v4.01h1.145c1.973,0,3.575,1.602,3.575,3.574v2.004c0,1.977-1.603,3.58-3.575,3.58
		s-3.574-1.604-3.574-3.58H47.231z"/>
</g>
<g id="LWPOLYLINE_180_">
	<path style="fill:#FFFFFF;" d="M69.839,281.042c0,4.348,3.52,7.871,7.867,7.871c4.349,0,7.868-3.523,7.868-7.871v-3.148
		c0-4.344-3.52-7.867-7.868-7.867c-1.097,0-2.186,0.229-3.188,0.67l0.616-6.107h7.867l-0.284-4.293H71.268l-1.429,14.307
		l5.003,1.145c0.679-0.898,1.736-1.428,2.864-1.428c1.973,0,3.575,1.602,3.575,3.574v3.148c0,1.977-1.603,3.58-3.575,3.58
		s-3.574-1.604-3.574-3.58H69.839z"/>
</g>
<g id="LWPOLYLINE_181_">
	<path style="fill:#FFFFFF;" d="M89.583,260.296v4.293h9.47c-0.45,2.297-1.144,4.537-2.083,6.68
		c-1.744,4.346-2.644,8.977-2.644,13.656v4.01h4.293v-5.438c0-4.775,0.907-9.502,2.675-13.936c0.994-3,1.578-6.117,1.744-9.266
		H89.583z"/>
</g>
<g id="LWPOLYLINE_182_">
	<path style="fill:#FFFFFF;" d="M108.474,281.042c0,4.348,3.52,7.871,7.868,7.871c4.348,0,7.867-3.523,7.867-7.871v-1.717
		c0-2.322-1.025-4.525-2.801-6.02c1.341-1.434,2.091-3.318,2.091-5.283v-0.572c0-3.949-3.204-7.154-7.157-7.154
		c-3.954,0-7.158,3.205-7.158,7.154v0.572h4.293v-0.572c0-1.582,1.287-2.861,2.865-2.861s2.864,1.279,2.864,2.861v0.572
		c0,1.896-1.539,3.432-3.433,3.432h-0.576v4.01h1.145c1.973,0,3.574,1.602,3.574,3.574v2.004c0,1.977-1.602,3.58-3.574,3.58
		s-3.575-1.604-3.575-3.58H108.474z"/>
</g>
<g id="LWPOLYLINE_185_">
	<path style="fill:#FFFFFF;" d="M104.703,203.296v-10.015c0-2.767-2.241-5.009-5.003-5.009c-2.77,0-5.012,2.242-5.012,5.009v10.015
		c0,2.766,2.242,5.01,5.012,5.01C102.461,208.306,104.703,206.062,104.703,203.296z"/>
</g>
<g id="LWPOLYLINE_188_">
	<path style="fill:#FFFFFF;" d="M120.729,195.426h5.588c1.656,0,2.998-1.345,2.998-3.006v-1.145c0-1.658-1.342-3.004-2.998-3.004
		h-5.588V195.426z"/>
</g>
<g id="LWPOLYLINE_191_">
	<polygon style="fill:#FFFFFF;" points="198.292,203.44 191.995,203.44 195.143,191.134 	"/>
</g>
<g id="LWPOLYLINE_194_">
	<path style="fill:#FFFFFF;" d="M248.085,203.296v-10.015c0-2.767-2.241-5.009-5.011-5.009c-2.762,0-5.003,2.242-5.003,5.009v10.015
		c0,2.766,2.241,5.01,5.003,5.01C245.844,208.306,248.085,206.062,248.085,203.296z"/>
</g>
<g id="LWPOLYLINE_199_">
	<polygon style="fill:#FFFFFF;" points="82.386,155.359 82.386,142.481 72.364,142.481 72.364,155.359 68.072,155.359 
		68.072,126.742 72.364,126.742 72.364,138.188 82.386,138.188 82.386,126.742 86.679,126.742 86.679,155.359 	"/>
</g>
<g id="LWPOLYLINE_200_">
	<polygon style="fill:#FFFFFF;" points="96.409,155.359 112.144,155.359 112.144,151.066 100.702,151.066 100.702,142.481 
		108.427,142.481 108.427,138.188 100.702,138.188 100.702,131.035 112.144,131.035 112.144,126.742 96.409,126.742 	"/>
</g>
<g id="LWPOLYLINE_201_">
	<polygon style="fill:#FFFFFF;" points="119.877,155.359 119.877,126.742 124.17,126.742 124.17,151.066 134.184,151.066 
		134.184,155.359 	"/>
</g>
<g id="LWPOLYLINE_202_">
	<path style="fill:#FFFFFF;" d="M150.1,134.469c-0.086-1.853-1.563-3.336-3.416-3.435h-1.808c-1.87,0.118-3.29,1.732-3.172,3.606
		c0.063,0.994,0.56,1.912,1.356,2.509l7.639,2.797c1.981,1.188,3.386,3.148,3.867,5.412c0.955,4.496-1.91,8.917-6.407,9.874
		c-0.063,0.01-0.127,0.02-0.189,0.03c-5.556,0.823-10.732-3.019-11.553-8.576l4.245-0.627c0.481,3.212,3.473,5.431,6.684,4.956
		c2.17-0.513,3.512-2.685,2.999-4.851c-0.221-0.949-0.781-1.783-1.57-2.35l-7.654-2.805c-2.21-1.333-3.599-3.686-3.709-6.26
		c-0.182-4.244,3.117-7.83,7.362-8.008h2.004c4.183,0.15,7.529,3.543,7.623,7.731L150.1,134.469z"/>
</g>
<g id="LWPOLYLINE_203_">
	<rect x="162.229" y="126.742" style="fill:#FFFFFF;" width="4.293" height="28.618"/>
</g>
<g id="LWPOLYLINE_204_">
	<polygon style="fill:#FFFFFF;" points="176.252,155.359 176.252,126.742 180.545,126.742 190.559,146.06 190.559,126.742 
		194.852,126.742 194.852,155.359 190.559,155.359 180.545,136.042 180.545,155.359 	"/>
</g>
<g id="LWPOLYLINE_205_">
	<polygon style="fill:#FFFFFF;" points="208.875,148.206 208.875,155.359 204.582,155.359 204.582,126.742 208.875,126.742 
		208.875,140.479 218.036,126.742 223.189,126.742 215.03,138.904 223.189,155.359 218.32,155.359 212.315,143.053 	"/>
</g>
<g id="LWPOLYLINE_206_">
	<rect x="228.91" y="126.742" style="fill:#FFFFFF;" width="4.293" height="28.618"/>
</g>
<g id="LWPOLYLINE_1_">
	<path style="fill:#FFFFFF;" d="M166.806,298.454v-37.203c0-3.164,2.564-5.725,5.722-5.725h31.627l-14.307-14.311h14.165
		l20.028,20.035l-20.028,20.031h-14.165l14.307-14.311h-23.042c-1.578,0-2.856,1.283-2.856,2.865v28.617H166.806z"/>
</g>
<g id="LWPOLYLINE_175_">
	<path style="fill:#009775;" d="M366.635,281.042c0,1.977,1.602,3.58,3.582,3.58c1.973,0,3.575-1.604,3.575-3.58v-2.004
		c0-1.973-1.603-3.574-3.575-3.574c-1.98,0-3.582,1.602-3.582,3.574V281.042z"/>
</g>
<g id="LWPOLYLINE_177_">
	<path style="fill:#009775;" d="M367.353,267.45v1.145c0,1.582,1.278,2.859,2.864,2.859c1.578,0,2.857-1.277,2.857-2.859v-1.145
		c0-1.582-1.279-2.861-2.857-2.861C368.631,264.589,367.353,265.868,367.353,267.45z"/>
</g>
</svg>
