<?xml version="1.0" encoding="UTF-8" standalone="no"?>
<!-- Generator: Adobe Illustrator 16.0.0, SVG Export Plug-In . SVG Version: 6.00 Build 0)  -->

<svg
   xmlns:dc="http://purl.org/dc/elements/1.1/"
   xmlns:cc="http://creativecommons.org/ns#"
   xmlns:rdf="http://www.w3.org/1999/02/22-rdf-syntax-ns#"
   xmlns:svg="http://www.w3.org/2000/svg"
   xmlns="http://www.w3.org/2000/svg"
   xmlns:sodipodi="http://sodipodi.sourceforge.net/DTD/sodipodi-0.dtd"
   xmlns:inkscape="http://www.inkscape.org/namespaces/inkscape"
   version="1.1"
   id="Layer_1"
   x="0px"
   y="0px"
   width="397.353"
   height="174.048"
   viewBox="0 0 397.35301 174.048"
   xml:space="preserve"
   sodipodi:docname="F12.svg"
   inkscape:version="0.92.5 (2060ec1f9f, 2020-04-08)"><metadata
   id="metadata1125"><rdf:RDF><cc:Work
       rdf:about=""><dc:format>image/svg+xml</dc:format><dc:type
         rdf:resource="http://purl.org/dc/dcmitype/StillImage" /></cc:Work></rdf:RDF></metadata><defs
   id="defs1123" /><sodipodi:namedview
   pagecolor="#ffffff"
   bordercolor="#666666"
   borderopacity="1"
   objecttolerance="10"
   gridtolerance="10"
   guidetolerance="10"
   inkscape:pageopacity="0"
   inkscape:pageshadow="2"
   inkscape:window-width="640"
   inkscape:window-height="480"
   id="namedview1121"
   showgrid="false"
   inkscape:zoom="0.55503813"
   inkscape:cx="198.6765"
   inkscape:cy="87.023994"
   inkscape:window-x="0"
   inkscape:window-y="0"
   inkscape:window-maximized="0"
   inkscape:current-layer="Layer_1" />
<g
   id="LWPOLYLINE_153_"
   transform="translate(-13.922,-125.574)">
	
		<rect
   x="14.172"
   y="125.824"
   style="fill:#005eb8;stroke:#005eb8;stroke-width:0.5;stroke-miterlimit:10"
   width="396.853"
   height="173.548"
   id="rect1072" />
</g>
<g
   id="LWPOLYLINE_155_"
   transform="translate(-13.922,-125.574)">
	<path
   style="fill:#ffffff"
   d="m 25.095,299.372 h 375.007 c 6.029,0 10.923,-4.893 10.923,-10.923 V 136.745 c 0,-6.031 -4.894,-10.921 -10.923,-10.921 H 25.095 c -6.033,0 -10.923,4.89 -10.923,10.921 v 151.704 c 0,6.03 4.89,10.923 10.923,10.923 z"
   id="path1075"
   inkscape:connector-curvature="0" />
</g>
<g
   id="LWPOLYLINE_154_"
   transform="translate(-13.922,-125.574)">
	<path
   style="fill:#005eb8"
   d="m 25.095,293.907 h 375.007 c 3.015,0 5.458,-2.443 5.458,-5.458 V 136.745 c 0,-3.015 -2.443,-5.461 -5.458,-5.461 H 25.095 c -3.019,0 -5.462,2.446 -5.462,5.461 v 151.704 c 0,3.015 2.444,5.458 5.462,5.458 z"
   id="path1078"
   inkscape:connector-curvature="0" />
</g>
<g
   id="LWPOLYLINE_166_"
   transform="translate(-13.922,-125.574)">
	<path
   style="fill:#ffffff"
   d="m 48.758,272.062 h 46.119 c 4.021,0 7.279,-3.258 7.279,-7.279 v -46.119 c 0,-4.021 -3.258,-7.279 -7.279,-7.279 H 48.758 c -4.021,0 -7.279,3.259 -7.279,7.279 v 46.119 c 0,4.021 3.258,7.279 7.279,7.279 z"
   id="path1081"
   inkscape:connector-curvature="0" />
</g>
<g
   id="LWPOLYLINE_165_"
   transform="translate(-13.922,-125.574)">
	<path
   style="fill:#e4002b"
   d="m 48.758,268.422 h 46.119 c 2.009,0 3.64,-1.627 3.64,-3.64 v -46.119 c 0,-2.009 -1.631,-3.64 -3.64,-3.64 H 48.758 c -2.009,0 -3.64,1.631 -3.64,3.64 v 46.119 c 10e-4,2.013 1.632,3.64 3.64,3.64 z"
   id="path1084"
   inkscape:connector-curvature="0" />
</g>
<g
   id="LWPOLYLINE_157_"
   transform="translate(-13.922,-125.574)">
	<path
   style="fill:#ffffff"
   d="m 46.94,179.524 h -5.461 c 0,5.53 4.483,10.014 10.012,10.014 5.529,0 10.012,-4.483 10.012,-10.014 v -26.396 h -5.461 v 26.396 c 0,2.514 -2.037,4.553 -4.551,4.553 -2.514,0 -4.551,-2.039 -4.551,-4.553 z"
   id="path1087"
   inkscape:connector-curvature="0" />
</g>
<g
   id="LWPOLYLINE_159_"
   transform="translate(-13.922,-125.574)">
	<path
   style="fill:#ffffff"
   d="m 94.634,177.705 v -12.742 c 0,-6.537 -5.299,-11.834 -11.834,-11.834 -6.534,0 -11.833,5.297 -11.833,11.834 v 12.742 c 0,6.534 5.299,11.833 11.833,11.833 6.535,0 11.834,-5.299 11.834,-11.833 z"
   id="path1090"
   inkscape:connector-curvature="0" />
</g>
<g
   id="LWPOLYLINE_160_"
   transform="translate(-13.922,-125.574)">
	<polygon
   style="fill:#ffffff"
   points="124.125,184.077 109.56,184.077 109.56,173.154 119.391,173.154 119.391,167.693 109.56,167.693 109.56,158.591 124.125,158.591 124.125,153.129 104.098,153.129 104.098,189.538 124.125,189.538 "
   id="polygon1093" />
</g>
<g
   id="LWPOLYLINE_161_"
   transform="translate(-13.922,-125.574)">
	<polygon
   style="fill:#ffffff"
   points="139.416,153.129 152.16,177.705 152.16,153.129 157.621,153.129 157.621,189.538 152.16,189.538 139.416,164.963 139.416,189.538 133.954,189.538 133.954,153.129 "
   id="polygon1096" />
</g>
<g
   id="LWPOLYLINE_162_"
   transform="translate(-13.922,-125.574)">
	<path
   style="fill:#ffffff"
   d="m 184.062,162.961 c -0.116,-2.356 -1.994,-4.243 -4.353,-4.37 h -2.291 c -2.383,0.151 -4.19,2.206 -4.042,4.589 0.081,1.266 0.713,2.433 1.729,3.191 l 9.712,3.561 c 2.527,1.511 4.311,4.005 4.925,6.884 1.218,5.721 -2.433,11.345 -8.155,12.561 -0.077,0.015 -0.155,0.026 -0.236,0.039 -7.071,1.045 -13.651,-3.839 -14.696,-10.91 l 5.401,-0.8 c 0.607,4.088 4.409,6.91 8.497,6.307 2.768,-0.653 4.473,-3.415 3.823,-6.173 -0.286,-1.205 -0.999,-2.268 -2.005,-2.99 l -9.74,-3.568 c -2.807,-1.696 -4.579,-4.685 -4.717,-7.963 -0.226,-5.399 3.969,-9.961 9.366,-10.188 h 2.549 c 5.327,0.194 9.581,4.509 9.697,9.837 z"
   id="path1099"
   inkscape:connector-curvature="0" />
</g>
<g
   id="LWPOLYLINE_163_"
   transform="translate(-13.922,-125.574)">
	<path
   style="fill:#ffffff"
   d="m 199.49,177.705 c 0,6.534 5.299,11.833 11.833,11.833 6.535,0 11.836,-5.299 11.836,-11.833 v -24.576 h -5.463 v 24.576 c 0,3.52 -2.853,6.372 -6.373,6.372 -3.52,0 -6.372,-2.853 -6.372,-6.372 v -24.576 h -5.461 z"
   id="path1102"
   inkscape:connector-curvature="0" />
</g>
<g
   id="LWPOLYLINE_164_"
   transform="translate(-13.922,-125.574)">
	<path
   style="fill:#ffffff"
   d="m 235.536,177.705 c 0,6.534 5.295,11.833 11.833,11.833 6.531,0 11.834,-5.299 11.834,-11.833 v -24.576 h -5.465 v 24.576 c 0,3.52 -2.853,6.372 -6.369,6.372 -3.522,0 -6.375,-2.853 -6.375,-6.372 v -24.576 h -5.458 z"
   id="path1105"
   inkscape:connector-curvature="0" />
</g>
<g
   id="LWPOLYLINE_167_"
   transform="translate(-13.922,-125.574)">
	<path
   style="fill:#ffffff"
   d="m 81.83,233.533 v 5.693 c -1.299,7.563 -4.473,14.68 -9.229,20.698 h -7.282 c 4.201,-4.243 7.41,-9.362 9.4,-14.989 -0.942,0.282 -1.916,0.431 -2.901,0.431 -5.528,0 -10.012,-4.483 -10.012,-10.016 v -1.817 c 0,-5.532 4.483,-10.013 10.012,-10.013 5.529,0 10.012,4.481 10.012,10.013 z"
   id="path1108"
   inkscape:connector-curvature="0" />
</g>
<g
   id="LWPOLYLINE_168_"
   transform="translate(-13.922,-125.574)">
	<path
   style="fill:#e4002b"
   d="m 67.267,233.533 v 1.817 c 0,2.514 2.037,4.551 4.551,4.551 2.514,0 4.551,-2.037 4.551,-4.551 v -1.817 c 0,-2.514 -2.037,-4.555 -4.551,-4.555 -2.514,0 -4.551,2.042 -4.551,4.555 z"
   id="path1111"
   inkscape:connector-curvature="0" />
</g>
<g
   id="LWPOLYLINE_158_"
   transform="translate(-13.922,-125.574)">
	<path
   style="fill:#005eb8"
   d="m 89.172,177.705 v -12.742 c 0,-3.521 -2.853,-6.372 -6.372,-6.372 -3.519,0 -6.372,2.852 -6.372,6.372 v 12.742 c 0,3.52 2.853,6.372 6.372,6.372 3.519,0 6.372,-2.852 6.372,-6.372 z"
   id="path1114"
   inkscape:connector-curvature="0" />
</g>
<g
   id="LWPOLYLINE_156_"
   transform="translate(-13.922,-125.574)">
	<polygon
   style="fill:#ffffff"
   points="296.333,244.702 307.919,256.289 368.548,195.662 368.548,230.419 383.714,215.246 383.714,168.906 337.376,168.906 322.204,184.077 356.962,184.077 "
   id="polygon1117" />
</g>
</svg>