<?xml version="1.0" encoding="iso-8859-1"?>
<!-- Generator: Adobe Illustrator 16.0.0, SVG Export Plug-In . SVG Version: 6.00 Build 0)  -->
<!DOCTYPE svg PUBLIC "-//W3C//DTD SVG 1.1//EN" "http://www.w3.org/Graphics/SVG/1.1/DTD/svg11.dtd">
<svg version="1.1" id="Layer_1" xmlns="http://www.w3.org/2000/svg" xmlns:xlink="http://www.w3.org/1999/xlink" x="0px" y="0px"
	 width="425.197px" height="425.196px" viewBox="0 0 425.197 425.196" style="enable-background:new 0 0 425.197 425.196;"
	 xml:space="preserve">
<g id="LWPOLYLINE_180_">
	<rect x="14.173" y="73.807" style="fill:#8A8D8F;" width="126.657" height="52.773"/>
</g>
<g id="LWPOLYLINE_174_">
	<path style="fill:#FFFFFF;" d="M14.173,100.193c0,14.573,11.813,26.387,26.389,26.387h73.879c14.571,0,26.389-11.813,26.389-26.387
		c0-14.571-11.817-26.387-26.389-26.387H77.593H40.562C25.986,73.807,14.173,85.622,14.173,100.193z"/>
</g>
<g id="LWPOLYLINE_175_">
	<path style="fill:#005EB8;" d="M17.338,100.193c0,12.825,10.398,23.22,23.224,23.22h73.879c12.825,0,23.219-10.395,23.219-23.22
		c0-12.823-10.394-23.22-23.219-23.22H77.593H40.562C27.737,76.974,17.338,87.37,17.338,100.193z"/>
</g>
<g id="LWPOLYLINE_134_">
	<polygon style="fill:#005EB8;stroke:#005EB8;stroke-width:0.5;stroke-miterlimit:10;" points="245.476,351.39 14.173,351.39 
		14.173,126.58 411.023,126.58 306.195,351.39 	"/>
</g>
<g id="LWPOLYLINE_136_">
	<path style="fill:#FFFFFF;" d="M23.672,351.39c-5.247,0-9.499-4.252-9.499-9.499V136.079c0-5.245,4.252-9.499,9.499-9.499h372.444
		c1.383,0,2.754,0.304,4.012,0.891c4.754,2.218,6.814,7.868,4.596,12.622l-95.973,205.813c-1.563,3.349-4.919,5.483-8.607,5.483
		H23.672z"/>
</g>
<g id="LWPOLYLINE_135_">
	<path style="fill:#005EB8;" d="M23.672,346.64c-2.624,0-4.75-2.121-4.75-4.749V136.079c0-2.621,2.126-4.75,4.75-4.75h372.444
		c0.689,0,1.375,0.153,2.004,0.445c2.379,1.109,3.408,3.936,2.299,6.313l-95.972,205.812c-0.781,1.676-2.462,2.741-4.304,2.741
		H23.672z"/>
</g>
<g id="CIRCLE_6_">
	<path style="fill:#FFFFFF;" d="M159.034,189.592c0-2.013-1.628-3.643-3.641-3.643c-2.008,0-3.641,1.63-3.641,3.643
		c0,2.01,1.633,3.641,3.641,3.641C157.405,193.232,159.034,191.602,159.034,189.592L159.034,189.592z"/>
</g>
<g id="LWPOLYLINE_155_">
	<polygon style="fill:#FFFFFF;" points="53.754,283.316 53.754,269.067 42.67,269.067 42.67,283.316 37.921,283.316 37.921,251.652 
		42.67,251.652 42.67,264.318 53.754,264.318 53.754,251.652 58.503,251.652 58.503,283.316 	"/>
</g>
<g id="LWPOLYLINE_156_">
	<polygon style="fill:#FFFFFF;" points="75.127,283.316 77.501,283.316 77.501,270.65 85.416,251.652 80.034,251.652 
		75.127,263.432 70.22,251.652 64.838,251.652 72.752,270.65 72.752,283.316 	"/>
</g>
<g id="LWPOLYLINE_157_">
	<polygon style="fill:#FFFFFF;" points="87.948,251.652 93.016,251.652 99.032,273.817 105.047,251.652 110.115,251.652 
		101.406,283.316 96.657,283.316 	"/>
</g>
<g id="LWPOLYLINE_158_">
	<rect x="117.083" y="251.652" style="fill:#FFFFFF;" width="4.75" height="31.664"/>
</g>
<g id="LWPOLYLINE_159_">
	<polygon style="fill:#FFFFFF;" points="132.597,283.316 132.597,251.652 137.346,251.652 148.426,273.024 148.426,251.652 
		153.175,251.652 153.175,283.316 148.426,283.316 137.346,261.943 137.346,283.316 	"/>
</g>
<g id="LWPOLYLINE_160_">
	<polygon style="fill:#FFFFFF;" points="168.694,275.399 168.694,283.316 163.944,283.316 163.944,251.652 168.694,251.652 
		168.694,266.85 178.826,251.652 184.523,251.652 175.5,265.108 184.523,283.316 179.14,283.316 172.492,269.7 	"/>
</g>
<g id="LWPOLYLINE_162_">
	<polygon style="fill:#FFFFFF;" points="192.441,283.316 187.374,283.316 195.764,251.652 201.146,251.652 209.541,283.316 
		204.473,283.316 203.049,277.934 193.865,277.934 	"/>
</g>
<g id="CIRCLE_8_">
	<path style="fill:#FFFFFF;" d="M196.239,247.852c0-1.398-1.135-2.531-2.532-2.531c-1.401,0-2.532,1.133-2.532,2.531
		c0,1.399,1.13,2.534,2.532,2.534C195.104,250.386,196.239,249.251,196.239,247.852L196.239,247.852z"/>
</g>
<g id="CIRCLE_9_">
	<path style="fill:#FFFFFF;" d="M205.738,247.852c0-1.398-1.135-2.531-2.532-2.531c-1.401,0-2.532,1.133-2.532,2.531
		c0,1.399,1.13,2.534,2.532,2.534C204.604,250.386,205.738,249.251,205.738,247.852L205.738,247.852z"/>
</g>
<g id="LWPOLYLINE_164_">
	<polygon style="fill:#FFFFFF;" points="217.769,283.316 212.706,283.316 221.095,251.652 226.478,251.652 234.869,283.316 
		229.804,283.316 228.377,277.934 219.197,277.934 	"/>
</g>
<g id="CIRCLE_2_">
	<path style="fill:#FFFFFF;" d="M221.572,247.852c0-1.398-1.135-2.531-2.532-2.531c-1.401,0-2.536,1.133-2.536,2.531
		c0,1.399,1.135,2.534,2.536,2.534C220.437,250.386,221.572,249.251,221.572,247.852L221.572,247.852z"/>
</g>
<g id="CIRCLE_1_">
	<path style="fill:#FFFFFF;" d="M231.071,247.852c0-1.398-1.136-2.531-2.532-2.531c-1.4,0-2.536,1.133-2.536,2.531
		c0,1.399,1.136,2.534,2.536,2.534C229.935,250.386,231.071,249.251,231.071,247.852L231.071,247.852z"/>
</g>
<g id="LWPOLYLINE_184_">
	<polygon style="fill:#FFFFFF;" points="277.435,222.016 305.835,211.679 273.763,280.461 286.677,286.48 318.75,217.7 
		329.09,246.102 336.896,229.362 323.11,191.49 285.24,205.274 	"/>
</g>
<g id="LWPOLYLINE_172_">
	<polygon style="fill:#FFFFFF;" points="36.537,84.316 41.208,84.316 41.208,116.068 28.592,116.068 	"/>
</g>
<g id="LWPOLYLINE_173_">
	<path style="fill:#FFFFFF;" d="M65.855,93.368l5.924,5.922V84.364l-14.93,0.005l5.959,5.954c-3.912,1.803-7.242,4.66-9.626,8.248
		l-3.566-14.255h-4.684v31.752h12.633l-0.349-1.389c-0.864-3.883-0.406-7.945,1.31-11.537
		C60.241,99.398,62.742,96.065,65.855,93.368z"/>
</g>
<g id="LWPOLYLINE_177_">
	<path style="fill:#FFFFFF;" d="M82.543,107.446v-4.952c1.131-6.579,3.89-12.767,8.028-18.003h6.33
		c-3.654,3.688-6.443,8.142-8.172,13.039c0.816-0.249,1.667-0.375,2.519-0.375c4.811,0,8.709,3.898,8.709,8.709v1.582
		c0,4.809-3.898,8.707-8.709,8.707C86.442,116.153,82.543,112.255,82.543,107.446z"/>
</g>
<g id="LWPOLYLINE_178_">
	<path style="fill:#FFFFFF;" d="M107.238,107.446c0,4.809,3.903,8.707,8.709,8.707c4.811,0,8.709-3.898,8.709-8.707V93.198
		c0-4.809-3.898-8.707-8.709-8.707c-4.806,0-8.709,3.898-8.709,8.707V107.446z"/>
</g>
<g id="LWPOLYLINE_137_">
	<path style="fill:#FFFFFF;" d="M42.67,167.743h6.177c4.457,0,8.071-3.614,8.071-8.074v-1.268c0-4.457-3.614-8.074-8.071-8.074
		H37.921v31.664h4.75V167.743z"/>
</g>
<g id="LWPOLYLINE_140_">
	<path style="fill:#FFFFFF;" d="M81.618,171.7v-11.081c0-5.684-4.61-10.292-10.293-10.292c-5.679,0-10.289,4.608-10.289,10.292
		V171.7c0,5.684,4.61,10.291,10.289,10.291C77.008,181.991,81.618,177.384,81.618,171.7z"/>
</g>
<g id="LWPOLYLINE_141_">
	<path style="fill:#FFFFFF;" d="M94.601,167.743v14.248h-4.75v-31.664h10.922c4.461,0,8.076,3.617,8.076,8.074v1.268
		c0,3.401-2.13,6.438-5.33,7.594l5.33,14.729h-5.068l-5.151-14.248H94.601z"/>
</g>
<g id="LWPOLYLINE_143_">
	<polygon style="fill:#FFFFFF;" points="113.28,150.327 118.348,150.327 124.364,172.492 130.379,150.327 135.447,150.327 
		126.739,181.991 121.989,181.991 	"/>
</g>
<g id="LWPOLYLINE_145_">
	<path style="fill:#FFFFFF;" d="M160.461,171.7v-11.081c0-5.684-4.61-10.292-10.293-10.292c-5.679,0-10.289,4.608-10.289,10.292
		V171.7c0,5.684,4.61,10.291,10.289,10.291C155.851,181.991,160.461,177.384,160.461,171.7z"/>
</g>
<g id="LWPOLYLINE_147_">
	<path style="fill:#FFFFFF;" d="M186.74,171.7v-11.081c0-5.684-4.605-10.292-10.289-10.292s-10.293,4.608-10.293,10.292V171.7
		c0,5.684,4.61,10.291,10.293,10.291S186.74,177.384,186.74,171.7z"/>
</g>
<g id="LWPOLYLINE_149_">
	<path style="fill:#FFFFFF;" d="M85.102,216.03v-11.081c0-5.684-4.609-10.291-10.293-10.291c-5.684,0-10.289,4.607-10.289,10.291
		v11.081c0,5.684,4.605,10.292,10.289,10.292C80.492,226.322,85.102,221.714,85.102,216.03z"/>
</g>
<g id="LWPOLYLINE_150_">
	<path style="fill:#FFFFFF;" d="M135.447,226.322h3.165v-17.416h-10.289v4.75h5.54v2.215v0.159c0,3.061-2.479,5.542-5.54,5.542
		s-5.544-2.481-5.544-5.542v-11.081c0-3.063,2.484-5.542,5.544-5.542s5.54,2.479,5.54,5.542h4.75
		c0-5.684-4.605-10.291-10.289-10.291s-10.293,4.607-10.293,10.291v11.081c0.004,5.671,4.605,10.263,10.276,10.259
		c2.104-0.002,4.156-0.65,5.88-1.857L135.447,226.322z"/>
</g>
<g id="LWPOLYLINE_152_">
	<polygon style="fill:#FFFFFF;" points="149.377,226.322 144.313,226.322 152.704,194.658 158.086,194.658 166.477,226.322 
		161.408,226.322 159.985,220.938 150.8,220.938 	"/>
</g>
<g id="LWPOLYLINE_153_">
	<path style="fill:#FFFFFF;" d="M98.084,212.073v14.249h-4.75v-31.664h10.922c4.461,0,8.076,3.614,8.076,8.073v1.266
		c0,3.401-2.13,6.438-5.33,7.594l5.33,14.731h-5.068l-5.155-14.249H98.084z"/>
</g>
<g id="LWPOLYLINE_1_">
	<path style="fill:#FFFFFF;" d="M37.921,194.658v31.664h4.75h7.282c4.723,0,8.551-3.829,8.551-8.55v-1.901
		c0-2.669-1.248-5.186-3.374-6.804c1.161-1.436,1.79-3.224,1.79-5.07v-1.266c0-4.459-3.614-8.073-8.071-8.073H37.921z"/>
</g>
<g id="LWPOLYLINE_138_">
	<path style="fill:#005EB8;" d="M42.67,162.993h6.177c1.833,0,3.322-1.488,3.322-3.324v-1.268c0-1.836-1.488-3.324-3.322-3.324
		H42.67V162.993z"/>
</g>
<g id="LWPOLYLINE_139_">
	<path style="fill:#005EB8;" d="M76.869,171.7v-11.081c0-3.061-2.479-5.542-5.544-5.542c-3.06,0-5.54,2.481-5.54,5.542V171.7
		c0,3.063,2.479,5.542,5.54,5.542C74.389,177.242,76.869,174.763,76.869,171.7z"/>
</g>
<g id="LWPOLYLINE_142_">
	<path style="fill:#005EB8;" d="M94.601,162.993h6.173c1.838,0,3.326-1.488,3.326-3.324v-1.268c0-1.836-1.488-3.324-3.326-3.324
		h-6.173V162.993z"/>
</g>
<g id="LWPOLYLINE_144_">
	<path style="fill:#005EB8;" d="M155.711,171.7v-11.081c0-3.061-2.484-5.542-5.544-5.542s-5.54,2.481-5.54,5.542V171.7
		c0,3.063,2.479,5.542,5.54,5.542S155.711,174.763,155.711,171.7z"/>
</g>
<g id="LWPOLYLINE_146_">
	<path style="fill:#005EB8;" d="M181.991,171.7v-11.081c0-3.061-2.479-5.542-5.54-5.542s-5.544,2.481-5.544,5.542V171.7
		c0,3.063,2.484,5.542,5.544,5.542S181.991,174.763,181.991,171.7z"/>
</g>
<g id="LWPOLYLINE_148_">
	<path style="fill:#005EB8;" d="M80.352,216.03v-11.081c0-3.063-2.484-5.542-5.544-5.542s-5.54,2.479-5.54,5.542v11.081
		c0,3.061,2.479,5.542,5.54,5.542S80.352,219.091,80.352,216.03z"/>
</g>
<g id="LWPOLYLINE_151_">
	<polygon style="fill:#005EB8;" points="158.876,216.188 151.909,216.188 155.393,202.574 	"/>
</g>
<g id="CIRCLE_7_">
	<path style="fill:#005EB8;" d="M156.659,189.592c0-0.701-0.567-1.266-1.266-1.266c-0.698,0-1.266,0.564-1.266,1.266
		c0,0.698,0.567,1.266,1.266,1.266C156.091,190.857,156.659,190.29,156.659,189.592L156.659,189.592z"/>
</g>
<g id="LWPOLYLINE_154_">
	<path style="fill:#005EB8;" d="M98.084,207.324h6.172c1.838,0,3.327-1.489,3.327-3.327v-1.266c0-1.836-1.489-3.324-3.327-3.324
		h-6.172V207.324z"/>
</g>
<g id="LWPOLYLINE_161_">
	<polygon style="fill:#005EB8;" points="201.94,273.184 194.974,273.184 198.457,259.568 	"/>
</g>
<g id="LWPOLYLINE_163_">
	<polygon style="fill:#005EB8;" points="227.269,273.184 220.306,273.184 223.789,259.568 	"/>
</g>
<g id="LWPOLYLINE_176_">
	<path style="fill:#005EB8;" d="M87.293,107.446c0,2.188,1.772,3.957,3.955,3.957c2.187,0,3.959-1.77,3.959-3.957v-1.582
		c0-2.188-1.772-3.96-3.959-3.96c-2.183,0-3.955,1.772-3.955,3.96V107.446z"/>
</g>
<g id="LWPOLYLINE_179_">
	<path style="fill:#005EB8;" d="M111.988,107.446c0,2.188,1.772,3.957,3.959,3.957s3.959-1.77,3.959-3.957V93.198
		c0-2.186-1.772-3.958-3.959-3.958s-3.959,1.772-3.959,3.958V107.446z"/>
</g>
<g id="LWPOLYLINE_3_">
	<path style="fill:#005EB8;" d="M42.67,207.324h6.177c1.833,0,3.322-1.489,3.322-3.327v-1.266c0-1.836-1.488-3.324-3.322-3.324
		H42.67V207.324z"/>
</g>
<g id="LWPOLYLINE_2_">
	<path style="fill:#005EB8;" d="M42.67,212.073h7.282c2.1,0,3.802,1.7,3.802,3.798v1.901c0,2.098-1.702,3.8-3.802,3.8H42.67V212.073
		z"/>
</g>
<g id="LWPOLYLINE_165_">
	<polygon style="fill:#FFFFFF;" points="53.754,327.642 53.754,313.394 42.67,313.394 42.67,327.642 37.921,327.642 37.921,295.979 
		42.67,295.979 42.67,308.644 53.754,308.644 53.754,295.979 58.503,295.979 58.503,327.642 	"/>
</g>
<g id="LWPOLYLINE_166_">
	<polygon style="fill:#FFFFFF;" points="75.127,327.642 77.501,327.642 77.501,314.982 85.416,295.979 80.034,295.979 
		75.127,307.762 70.22,295.979 64.838,295.979 72.752,314.982 72.752,327.642 	"/>
</g>
<g id="LWPOLYLINE_167_">
	<polygon style="fill:#FFFFFF;" points="87.948,295.979 93.016,295.979 99.032,318.143 105.047,295.979 110.115,295.979 
		101.406,327.642 96.657,327.642 	"/>
</g>
<g id="LWPOLYLINE_168_">
	<rect x="117.083" y="295.979" style="fill:#FFFFFF;" width="4.75" height="31.662"/>
</g>
<g id="LWPOLYLINE_169_">
	<polygon style="fill:#FFFFFF;" points="132.597,327.642 132.597,295.979 137.346,295.979 148.426,317.357 148.426,295.979 
		153.175,295.979 153.175,327.642 148.426,327.642 137.346,306.27 137.346,327.642 	"/>
</g>
<g id="LWPOLYLINE_170_">
	<path style="fill:#FFFFFF;" d="M178.826,327.642h3.165v-17.413h-10.289v4.754h5.54v2.213v0.162c0,3.056-2.479,5.535-5.54,5.535
		s-5.544-2.479-5.544-5.535V306.27c0-3.057,2.484-5.54,5.544-5.54s5.54,2.483,5.54,5.54h4.75c0-5.685-4.605-10.29-10.289-10.29
		s-10.293,4.605-10.293,10.29v11.088c0.004,5.666,4.605,10.258,10.276,10.258c2.104-0.004,4.156-0.654,5.88-1.859L178.826,327.642z"
		/>
</g>
<g id="LWPOLYLINE_171_">
	<polygon style="fill:#FFFFFF;" points="191.49,327.642 208.903,327.642 208.903,322.893 196.239,322.893 196.239,313.394 
		204.791,313.394 204.791,308.644 196.239,308.644 196.239,300.729 208.903,300.729 208.903,295.979 191.49,295.979 	"/>
</g>
</svg>
