<?xml version="1.0" encoding="UTF-8" standalone="no"?>
<!-- Generator: Adobe Illustrator 16.0.0, SVG Export Plug-In . SVG Version: 6.00 Build 0)  -->

<svg
   xmlns:dc="http://purl.org/dc/elements/1.1/"
   xmlns:cc="http://creativecommons.org/ns#"
   xmlns:rdf="http://www.w3.org/1999/02/22-rdf-syntax-ns#"
   xmlns:svg="http://www.w3.org/2000/svg"
   xmlns="http://www.w3.org/2000/svg"
   xmlns:sodipodi="http://sodipodi.sourceforge.net/DTD/sodipodi-0.dtd"
   xmlns:inkscape="http://www.inkscape.org/namespaces/inkscape"
   version="1.1"
   id="Layer_1"
   x="0px"
   y="0px"
   width="397.49243"
   height="277.83401"
   viewBox="0 0 397.49244 277.83401"
   xml:space="preserve"
   sodipodi:docname="F14.svg"
   inkscape:version="0.92.5 (2060ec1f9f, 2020-04-08)"><metadata
   id="metadata1355"><rdf:RDF><cc:Work
       rdf:about=""><dc:format>image/svg+xml</dc:format><dc:type
         rdf:resource="http://purl.org/dc/dcmitype/StillImage" /></cc:Work></rdf:RDF></metadata><defs
   id="defs1353" /><sodipodi:namedview
   pagecolor="#ffffff"
   bordercolor="#666666"
   borderopacity="1"
   objecttolerance="10"
   gridtolerance="10"
   guidetolerance="10"
   inkscape:pageopacity="0"
   inkscape:pageshadow="2"
   inkscape:window-width="640"
   inkscape:window-height="480"
   id="namedview1351"
   showgrid="false"
   inkscape:zoom="0.55503813"
   inkscape:cx="198.6755"
   inkscape:cy="139.04199"
   inkscape:window-x="0"
   inkscape:window-y="0"
   inkscape:window-maximized="0"
   inkscape:current-layer="Layer_1" />
<g
   id="LWPOLYLINE_180_"
   transform="translate(-13.923,-73.806)">
	<rect
   x="14.173"
   y="73.806999"
   style="fill:#8a8d8f"
   width="126.657"
   height="52.772999"
   id="rect1179" />
</g>
<g
   id="LWPOLYLINE_174_"
   transform="translate(-13.923,-73.806)">
	<path
   style="fill:#ffffff"
   d="m 14.173,100.193 c 0,14.573 11.813,26.387 26.389,26.387 h 73.879 c 14.571,0 26.389,-11.813 26.389,-26.387 0,-14.571 -11.817,-26.387 -26.389,-26.387 H 77.593 40.562 C 25.986,73.807 14.173,85.622 14.173,100.193 Z"
   id="path1182"
   inkscape:connector-curvature="0" />
</g>
<g
   id="LWPOLYLINE_175_"
   transform="translate(-13.923,-73.806)">
	<path
   style="fill:#005eb8"
   d="m 17.338,100.193 c 0,12.825 10.398,23.22 23.224,23.22 h 73.879 c 12.825,0 23.219,-10.395 23.219,-23.22 0,-12.823 -10.394,-23.22 -23.219,-23.22 H 77.593 40.562 C 27.737,76.974 17.338,87.37 17.338,100.193 Z"
   id="path1185"
   inkscape:connector-curvature="0" />
</g>
<g
   id="LWPOLYLINE_134_"
   transform="translate(-13.923,-73.806)">
	<polygon
   style="fill:#005eb8;stroke:#005eb8;stroke-width:0.5;stroke-miterlimit:10"
   points="14.173,126.58 411.023,126.58 306.195,351.39 245.476,351.39 14.173,351.39 "
   id="polygon1188" />
</g>
<g
   id="LWPOLYLINE_136_"
   transform="translate(-13.923,-73.806)">
	<path
   style="fill:#ffffff"
   d="m 23.672,351.39 c -5.247,0 -9.499,-4.252 -9.499,-9.499 V 136.079 c 0,-5.245 4.252,-9.499 9.499,-9.499 h 372.444 c 1.383,0 2.754,0.304 4.012,0.891 4.754,2.218 6.814,7.868 4.596,12.622 l -95.973,205.813 c -1.563,3.349 -4.919,5.483 -8.607,5.483 H 23.672 Z"
   id="path1191"
   inkscape:connector-curvature="0" />
</g>
<g
   id="LWPOLYLINE_135_"
   transform="translate(-13.923,-73.806)">
	<path
   style="fill:#005eb8"
   d="m 23.672,346.64 c -2.624,0 -4.75,-2.121 -4.75,-4.749 V 136.079 c 0,-2.621 2.126,-4.75 4.75,-4.75 h 372.444 c 0.689,0 1.375,0.153 2.004,0.445 2.379,1.109 3.408,3.936 2.299,6.313 l -95.972,205.812 c -0.781,1.676 -2.462,2.741 -4.304,2.741 z"
   id="path1194"
   inkscape:connector-curvature="0" />
</g>
<g
   id="CIRCLE_6_"
   transform="translate(-13.923,-73.806)">
	<path
   style="fill:#ffffff"
   d="m 159.034,189.592 c 0,-2.013 -1.628,-3.643 -3.641,-3.643 -2.008,0 -3.641,1.63 -3.641,3.643 0,2.01 1.633,3.641 3.641,3.641 2.012,-0.001 3.641,-1.631 3.641,-3.641 z"
   id="path1197"
   inkscape:connector-curvature="0" />
</g>
<g
   id="LWPOLYLINE_155_"
   transform="translate(-13.923,-73.806)">
	<polygon
   style="fill:#ffffff"
   points="42.67,269.067 42.67,283.316 37.921,283.316 37.921,251.652 42.67,251.652 42.67,264.318 53.754,264.318 53.754,251.652 58.503,251.652 58.503,283.316 53.754,283.316 53.754,269.067 "
   id="polygon1200" />
</g>
<g
   id="LWPOLYLINE_156_"
   transform="translate(-13.923,-73.806)">
	<polygon
   style="fill:#ffffff"
   points="77.501,270.65 85.416,251.652 80.034,251.652 75.127,263.432 70.22,251.652 64.838,251.652 72.752,270.65 72.752,283.316 75.127,283.316 77.501,283.316 "
   id="polygon1203" />
</g>
<g
   id="LWPOLYLINE_157_"
   transform="translate(-13.923,-73.806)">
	<polygon
   style="fill:#ffffff"
   points="99.032,273.817 105.047,251.652 110.115,251.652 101.406,283.316 96.657,283.316 87.948,251.652 93.016,251.652 "
   id="polygon1206" />
</g>
<g
   id="LWPOLYLINE_158_"
   transform="translate(-13.923,-73.806)">
	<rect
   x="117.083"
   y="251.65199"
   style="fill:#ffffff"
   width="4.75"
   height="31.664"
   id="rect1209" />
</g>
<g
   id="LWPOLYLINE_159_"
   transform="translate(-13.923,-73.806)">
	<polygon
   style="fill:#ffffff"
   points="137.346,251.652 148.426,273.024 148.426,251.652 153.175,251.652 153.175,283.316 148.426,283.316 137.346,261.943 137.346,283.316 132.597,283.316 132.597,251.652 "
   id="polygon1212" />
</g>
<g
   id="LWPOLYLINE_160_"
   transform="translate(-13.923,-73.806)">
	<polygon
   style="fill:#ffffff"
   points="163.944,283.316 163.944,251.652 168.694,251.652 168.694,266.85 178.826,251.652 184.523,251.652 175.5,265.108 184.523,283.316 179.14,283.316 172.492,269.7 168.694,275.399 168.694,283.316 "
   id="polygon1215" />
</g>
<g
   id="LWPOLYLINE_162_"
   transform="translate(-13.923,-73.806)">
	<polygon
   style="fill:#ffffff"
   points="195.764,251.652 201.146,251.652 209.541,283.316 204.473,283.316 203.049,277.934 193.865,277.934 192.441,283.316 187.374,283.316 "
   id="polygon1218" />
</g>
<g
   id="CIRCLE_8_"
   transform="translate(-13.923,-73.806)">
	<path
   style="fill:#ffffff"
   d="m 196.239,247.852 c 0,-1.398 -1.135,-2.531 -2.532,-2.531 -1.401,0 -2.532,1.133 -2.532,2.531 0,1.399 1.13,2.534 2.532,2.534 1.397,0 2.532,-1.135 2.532,-2.534 z"
   id="path1221"
   inkscape:connector-curvature="0" />
</g>
<g
   id="CIRCLE_9_"
   transform="translate(-13.923,-73.806)">
	<path
   style="fill:#ffffff"
   d="m 205.738,247.852 c 0,-1.398 -1.135,-2.531 -2.532,-2.531 -1.401,0 -2.532,1.133 -2.532,2.531 0,1.399 1.13,2.534 2.532,2.534 1.398,0 2.532,-1.135 2.532,-2.534 z"
   id="path1224"
   inkscape:connector-curvature="0" />
</g>
<g
   id="LWPOLYLINE_164_"
   transform="translate(-13.923,-73.806)">
	<polygon
   style="fill:#ffffff"
   points="221.095,251.652 226.478,251.652 234.869,283.316 229.804,283.316 228.377,277.934 219.197,277.934 217.769,283.316 212.706,283.316 "
   id="polygon1227" />
</g>
<g
   id="CIRCLE_2_"
   transform="translate(-13.923,-73.806)">
	<path
   style="fill:#ffffff"
   d="m 221.572,247.852 c 0,-1.398 -1.135,-2.531 -2.532,-2.531 -1.401,0 -2.536,1.133 -2.536,2.531 0,1.399 1.135,2.534 2.536,2.534 1.397,0 2.532,-1.135 2.532,-2.534 z"
   id="path1230"
   inkscape:connector-curvature="0" />
</g>
<g
   id="CIRCLE_1_"
   transform="translate(-13.923,-73.806)">
	<path
   style="fill:#ffffff"
   d="m 231.071,247.852 c 0,-1.398 -1.136,-2.531 -2.532,-2.531 -1.4,0 -2.536,1.133 -2.536,2.531 0,1.399 1.136,2.534 2.536,2.534 1.396,0 2.532,-1.135 2.532,-2.534 z"
   id="path1233"
   inkscape:connector-curvature="0" />
</g>
<g
   id="LWPOLYLINE_184_"
   transform="translate(-13.923,-73.806)">
	<polygon
   style="fill:#ffffff"
   points="273.763,280.461 286.677,286.48 318.75,217.7 329.09,246.102 336.896,229.362 323.11,191.49 285.24,205.274 277.435,222.016 305.835,211.679 "
   id="polygon1236" />
</g>
<g
   id="LWPOLYLINE_172_"
   transform="translate(-13.923,-73.806)">
	<polygon
   style="fill:#ffffff"
   points="41.208,116.068 28.592,116.068 36.537,84.316 41.208,84.316 "
   id="polygon1239" />
</g>
<g
   id="LWPOLYLINE_173_"
   transform="translate(-13.923,-73.806)">
	<path
   style="fill:#ffffff"
   d="m 65.855,93.368 5.924,5.922 V 84.364 l -14.93,0.005 5.959,5.954 c -3.912,1.803 -7.242,4.66 -9.626,8.248 L 49.616,84.316 h -4.684 v 31.752 h 12.633 l -0.349,-1.389 c -0.864,-3.883 -0.406,-7.945 1.31,-11.537 1.715,-3.744 4.216,-7.077 7.329,-9.774 z"
   id="path1242"
   inkscape:connector-curvature="0" />
</g>
<g
   id="LWPOLYLINE_177_"
   transform="translate(-13.923,-73.806)">
	<path
   style="fill:#ffffff"
   d="m 82.543,107.446 v -4.952 c 1.131,-6.579 3.89,-12.767 8.028,-18.003 h 6.33 c -3.654,3.688 -6.443,8.142 -8.172,13.039 0.816,-0.249 1.667,-0.375 2.519,-0.375 4.811,0 8.709,3.898 8.709,8.709 v 1.582 c 0,4.809 -3.898,8.707 -8.709,8.707 -4.806,0 -8.705,-3.898 -8.705,-8.707 z"
   id="path1245"
   inkscape:connector-curvature="0" />
</g>
<g
   id="LWPOLYLINE_178_"
   transform="translate(-13.923,-73.806)">
	<path
   style="fill:#ffffff"
   d="m 107.238,107.446 c 0,4.809 3.903,8.707 8.709,8.707 4.811,0 8.709,-3.898 8.709,-8.707 V 93.198 c 0,-4.809 -3.898,-8.707 -8.709,-8.707 -4.806,0 -8.709,3.898 -8.709,8.707 z"
   id="path1248"
   inkscape:connector-curvature="0" />
</g>
<g
   id="LWPOLYLINE_137_"
   transform="translate(-13.923,-73.806)">
	<path
   style="fill:#ffffff"
   d="m 42.67,167.743 h 6.177 c 4.457,0 8.071,-3.614 8.071,-8.074 v -1.268 c 0,-4.457 -3.614,-8.074 -8.071,-8.074 H 37.921 v 31.664 h 4.75 v -14.248 z"
   id="path1251"
   inkscape:connector-curvature="0" />
</g>
<g
   id="LWPOLYLINE_140_"
   transform="translate(-13.923,-73.806)">
	<path
   style="fill:#ffffff"
   d="m 81.618,171.7 v -11.081 c 0,-5.684 -4.61,-10.292 -10.293,-10.292 -5.679,0 -10.289,4.608 -10.289,10.292 V 171.7 c 0,5.684 4.61,10.291 10.289,10.291 5.683,0 10.293,-4.607 10.293,-10.291 z"
   id="path1254"
   inkscape:connector-curvature="0" />
</g>
<g
   id="LWPOLYLINE_141_"
   transform="translate(-13.923,-73.806)">
	<path
   style="fill:#ffffff"
   d="m 94.601,167.743 v 14.248 h -4.75 v -31.664 h 10.922 c 4.461,0 8.076,3.617 8.076,8.074 v 1.268 c 0,3.401 -2.13,6.438 -5.33,7.594 l 5.33,14.729 h -5.068 L 98.63,167.744 h -4.029 z"
   id="path1257"
   inkscape:connector-curvature="0" />
</g>
<g
   id="LWPOLYLINE_143_"
   transform="translate(-13.923,-73.806)">
	<polygon
   style="fill:#ffffff"
   points="124.364,172.492 130.379,150.327 135.447,150.327 126.739,181.991 121.989,181.991 113.28,150.327 118.348,150.327 "
   id="polygon1260" />
</g>
<g
   id="LWPOLYLINE_145_"
   transform="translate(-13.923,-73.806)">
	<path
   style="fill:#ffffff"
   d="m 160.461,171.7 v -11.081 c 0,-5.684 -4.61,-10.292 -10.293,-10.292 -5.679,0 -10.289,4.608 -10.289,10.292 V 171.7 c 0,5.684 4.61,10.291 10.289,10.291 5.683,0 10.293,-4.607 10.293,-10.291 z"
   id="path1263"
   inkscape:connector-curvature="0" />
</g>
<g
   id="LWPOLYLINE_147_"
   transform="translate(-13.923,-73.806)">
	<path
   style="fill:#ffffff"
   d="m 186.74,171.7 v -11.081 c 0,-5.684 -4.605,-10.292 -10.289,-10.292 -5.684,0 -10.293,4.608 -10.293,10.292 V 171.7 c 0,5.684 4.61,10.291 10.293,10.291 5.683,0 10.289,-4.607 10.289,-10.291 z"
   id="path1266"
   inkscape:connector-curvature="0" />
</g>
<g
   id="LWPOLYLINE_149_"
   transform="translate(-13.923,-73.806)">
	<path
   style="fill:#ffffff"
   d="m 85.102,216.03 v -11.081 c 0,-5.684 -4.609,-10.291 -10.293,-10.291 -5.684,0 -10.289,4.607 -10.289,10.291 v 11.081 c 0,5.684 4.605,10.292 10.289,10.292 5.683,0 10.293,-4.608 10.293,-10.292 z"
   id="path1269"
   inkscape:connector-curvature="0" />
</g>
<g
   id="LWPOLYLINE_150_"
   transform="translate(-13.923,-73.806)">
	<path
   style="fill:#ffffff"
   d="m 135.447,226.322 h 3.165 v -17.416 h -10.289 v 4.75 h 5.54 v 2.215 0.159 c 0,3.061 -2.479,5.542 -5.54,5.542 -3.061,0 -5.544,-2.481 -5.544,-5.542 v -11.081 c 0,-3.063 2.484,-5.542 5.544,-5.542 3.06,0 5.54,2.479 5.54,5.542 h 4.75 c 0,-5.684 -4.605,-10.291 -10.289,-10.291 -5.684,0 -10.293,4.607 -10.293,10.291 v 11.081 c 0.004,5.671 4.605,10.263 10.276,10.259 2.104,-0.002 4.156,-0.65 5.88,-1.857 z"
   id="path1272"
   inkscape:connector-curvature="0" />
</g>
<g
   id="LWPOLYLINE_152_"
   transform="translate(-13.923,-73.806)">
	<polygon
   style="fill:#ffffff"
   points="152.704,194.658 158.086,194.658 166.477,226.322 161.408,226.322 159.985,220.938 150.8,220.938 149.377,226.322 144.313,226.322 "
   id="polygon1275" />
</g>
<g
   id="LWPOLYLINE_153_"
   transform="translate(-13.923,-73.806)">
	<path
   style="fill:#ffffff"
   d="m 98.084,212.073 v 14.249 h -4.75 v -31.664 h 10.922 c 4.461,0 8.076,3.614 8.076,8.073 v 1.266 c 0,3.401 -2.13,6.438 -5.33,7.594 l 5.33,14.731 h -5.068 l -5.155,-14.249 z"
   id="path1278"
   inkscape:connector-curvature="0" />
</g>
<g
   id="LWPOLYLINE_1_"
   transform="translate(-13.923,-73.806)">
	<path
   style="fill:#ffffff"
   d="m 37.921,194.658 v 31.664 h 4.75 7.282 c 4.723,0 8.551,-3.829 8.551,-8.55 v -1.901 c 0,-2.669 -1.248,-5.186 -3.374,-6.804 1.161,-1.436 1.79,-3.224 1.79,-5.07 v -1.266 c 0,-4.459 -3.614,-8.073 -8.071,-8.073 z"
   id="path1281"
   inkscape:connector-curvature="0" />
</g>
<g
   id="LWPOLYLINE_138_"
   transform="translate(-13.923,-73.806)">
	<path
   style="fill:#005eb8"
   d="m 42.67,162.993 h 6.177 c 1.833,0 3.322,-1.488 3.322,-3.324 v -1.268 c 0,-1.836 -1.488,-3.324 -3.322,-3.324 H 42.67 Z"
   id="path1284"
   inkscape:connector-curvature="0" />
</g>
<g
   id="LWPOLYLINE_139_"
   transform="translate(-13.923,-73.806)">
	<path
   style="fill:#005eb8"
   d="m 76.869,171.7 v -11.081 c 0,-3.061 -2.479,-5.542 -5.544,-5.542 -3.06,0 -5.54,2.481 -5.54,5.542 V 171.7 c 0,3.063 2.479,5.542 5.54,5.542 3.064,0 5.544,-2.479 5.544,-5.542 z"
   id="path1287"
   inkscape:connector-curvature="0" />
</g>
<g
   id="LWPOLYLINE_142_"
   transform="translate(-13.923,-73.806)">
	<path
   style="fill:#005eb8"
   d="m 94.601,162.993 h 6.173 c 1.838,0 3.326,-1.488 3.326,-3.324 v -1.268 c 0,-1.836 -1.488,-3.324 -3.326,-3.324 h -6.173 z"
   id="path1290"
   inkscape:connector-curvature="0" />
</g>
<g
   id="LWPOLYLINE_144_"
   transform="translate(-13.923,-73.806)">
	<path
   style="fill:#005eb8"
   d="m 155.711,171.7 v -11.081 c 0,-3.061 -2.484,-5.542 -5.544,-5.542 -3.06,0 -5.54,2.481 -5.54,5.542 V 171.7 c 0,3.063 2.479,5.542 5.54,5.542 3.061,0 5.544,-2.479 5.544,-5.542 z"
   id="path1293"
   inkscape:connector-curvature="0" />
</g>
<g
   id="LWPOLYLINE_146_"
   transform="translate(-13.923,-73.806)">
	<path
   style="fill:#005eb8"
   d="m 181.991,171.7 v -11.081 c 0,-3.061 -2.479,-5.542 -5.54,-5.542 -3.061,0 -5.544,2.481 -5.544,5.542 V 171.7 c 0,3.063 2.484,5.542 5.544,5.542 3.06,0 5.54,-2.479 5.54,-5.542 z"
   id="path1296"
   inkscape:connector-curvature="0" />
</g>
<g
   id="LWPOLYLINE_148_"
   transform="translate(-13.923,-73.806)">
	<path
   style="fill:#005eb8"
   d="m 80.352,216.03 v -11.081 c 0,-3.063 -2.484,-5.542 -5.544,-5.542 -3.06,0 -5.54,2.479 -5.54,5.542 v 11.081 c 0,3.061 2.479,5.542 5.54,5.542 3.061,0 5.544,-2.481 5.544,-5.542 z"
   id="path1299"
   inkscape:connector-curvature="0" />
</g>
<g
   id="LWPOLYLINE_151_"
   transform="translate(-13.923,-73.806)">
	<polygon
   style="fill:#005eb8"
   points="155.393,202.574 158.876,216.188 151.909,216.188 "
   id="polygon1302" />
</g>
<g
   id="CIRCLE_7_"
   transform="translate(-13.923,-73.806)">
	<path
   style="fill:#005eb8"
   d="m 156.659,189.592 c 0,-0.701 -0.567,-1.266 -1.266,-1.266 -0.698,0 -1.266,0.564 -1.266,1.266 0,0.698 0.567,1.266 1.266,1.266 0.698,-0.001 1.266,-0.568 1.266,-1.266 z"
   id="path1305"
   inkscape:connector-curvature="0" />
</g>
<g
   id="LWPOLYLINE_154_"
   transform="translate(-13.923,-73.806)">
	<path
   style="fill:#005eb8"
   d="m 98.084,207.324 h 6.172 c 1.838,0 3.327,-1.489 3.327,-3.327 v -1.266 c 0,-1.836 -1.489,-3.324 -3.327,-3.324 h -6.172 z"
   id="path1308"
   inkscape:connector-curvature="0" />
</g>
<g
   id="LWPOLYLINE_161_"
   transform="translate(-13.923,-73.806)">
	<polygon
   style="fill:#005eb8"
   points="198.457,259.568 201.94,273.184 194.974,273.184 "
   id="polygon1311" />
</g>
<g
   id="LWPOLYLINE_163_"
   transform="translate(-13.923,-73.806)">
	<polygon
   style="fill:#005eb8"
   points="223.789,259.568 227.269,273.184 220.306,273.184 "
   id="polygon1314" />
</g>
<g
   id="LWPOLYLINE_176_"
   transform="translate(-13.923,-73.806)">
	<path
   style="fill:#005eb8"
   d="m 87.293,107.446 c 0,2.188 1.772,3.957 3.955,3.957 2.187,0 3.959,-1.77 3.959,-3.957 v -1.582 c 0,-2.188 -1.772,-3.96 -3.959,-3.96 -2.183,0 -3.955,1.772 -3.955,3.96 z"
   id="path1317"
   inkscape:connector-curvature="0" />
</g>
<g
   id="LWPOLYLINE_179_"
   transform="translate(-13.923,-73.806)">
	<path
   style="fill:#005eb8"
   d="m 111.988,107.446 c 0,2.188 1.772,3.957 3.959,3.957 2.187,0 3.959,-1.77 3.959,-3.957 V 93.198 c 0,-2.186 -1.772,-3.958 -3.959,-3.958 -2.187,0 -3.959,1.772 -3.959,3.958 z"
   id="path1320"
   inkscape:connector-curvature="0" />
</g>
<g
   id="LWPOLYLINE_3_"
   transform="translate(-13.923,-73.806)">
	<path
   style="fill:#005eb8"
   d="m 42.67,207.324 h 6.177 c 1.833,0 3.322,-1.489 3.322,-3.327 v -1.266 c 0,-1.836 -1.488,-3.324 -3.322,-3.324 H 42.67 Z"
   id="path1323"
   inkscape:connector-curvature="0" />
</g>
<g
   id="LWPOLYLINE_2_"
   transform="translate(-13.923,-73.806)">
	<path
   style="fill:#005eb8"
   d="m 42.67,212.073 h 7.282 c 2.1,0 3.802,1.7 3.802,3.798 v 1.901 c 0,2.098 -1.702,3.8 -3.802,3.8 H 42.67 Z"
   id="path1326"
   inkscape:connector-curvature="0" />
</g>
<g
   id="LWPOLYLINE_165_"
   transform="translate(-13.923,-73.806)">
	<polygon
   style="fill:#ffffff"
   points="42.67,313.394 42.67,327.642 37.921,327.642 37.921,295.979 42.67,295.979 42.67,308.644 53.754,308.644 53.754,295.979 58.503,295.979 58.503,327.642 53.754,327.642 53.754,313.394 "
   id="polygon1329" />
</g>
<g
   id="LWPOLYLINE_166_"
   transform="translate(-13.923,-73.806)">
	<polygon
   style="fill:#ffffff"
   points="77.501,314.982 85.416,295.979 80.034,295.979 75.127,307.762 70.22,295.979 64.838,295.979 72.752,314.982 72.752,327.642 75.127,327.642 77.501,327.642 "
   id="polygon1332" />
</g>
<g
   id="LWPOLYLINE_167_"
   transform="translate(-13.923,-73.806)">
	<polygon
   style="fill:#ffffff"
   points="99.032,318.143 105.047,295.979 110.115,295.979 101.406,327.642 96.657,327.642 87.948,295.979 93.016,295.979 "
   id="polygon1335" />
</g>
<g
   id="LWPOLYLINE_168_"
   transform="translate(-13.923,-73.806)">
	<rect
   x="117.083"
   y="295.979"
   style="fill:#ffffff"
   width="4.75"
   height="31.662001"
   id="rect1338" />
</g>
<g
   id="LWPOLYLINE_169_"
   transform="translate(-13.923,-73.806)">
	<polygon
   style="fill:#ffffff"
   points="137.346,295.979 148.426,317.357 148.426,295.979 153.175,295.979 153.175,327.642 148.426,327.642 137.346,306.27 137.346,327.642 132.597,327.642 132.597,295.979 "
   id="polygon1341" />
</g>
<g
   id="LWPOLYLINE_170_"
   transform="translate(-13.923,-73.806)">
	<path
   style="fill:#ffffff"
   d="m 178.826,327.642 h 3.165 v -17.413 h -10.289 v 4.754 h 5.54 v 2.213 0.162 c 0,3.056 -2.479,5.535 -5.54,5.535 -3.061,0 -5.544,-2.479 -5.544,-5.535 V 306.27 c 0,-3.057 2.484,-5.54 5.544,-5.54 3.06,0 5.54,2.483 5.54,5.54 h 4.75 c 0,-5.685 -4.605,-10.29 -10.289,-10.29 -5.684,0 -10.293,4.605 -10.293,10.29 v 11.088 c 0.004,5.666 4.605,10.258 10.276,10.258 2.104,-0.004 4.156,-0.654 5.88,-1.859 z"
   id="path1344"
   inkscape:connector-curvature="0" />
</g>
<g
   id="LWPOLYLINE_171_"
   transform="translate(-13.923,-73.806)">
	<polygon
   style="fill:#ffffff"
   points="208.903,322.893 196.239,322.893 196.239,313.394 204.791,313.394 204.791,308.644 196.239,308.644 196.239,300.729 208.903,300.729 208.903,295.979 191.49,295.979 191.49,327.642 208.903,327.642 "
   id="polygon1347" />
</g>
</svg>