<?xml version="1.0" encoding="UTF-8" standalone="no"?>
<!-- Generator: Adobe Illustrator 16.0.0, SVG Export Plug-In . SVG Version: 6.00 Build 0)  -->

<svg
   xmlns:dc="http://purl.org/dc/elements/1.1/"
   xmlns:cc="http://creativecommons.org/ns#"
   xmlns:rdf="http://www.w3.org/1999/02/22-rdf-syntax-ns#"
   xmlns:svg="http://www.w3.org/2000/svg"
   xmlns="http://www.w3.org/2000/svg"
   xmlns:sodipodi="http://sodipodi.sourceforge.net/DTD/sodipodi-0.dtd"
   xmlns:inkscape="http://www.inkscape.org/namespaces/inkscape"
   version="1.1"
   id="Layer_1"
   x="0px"
   y="0px"
   width="397.34601"
   height="107.181"
   viewBox="0 0 397.34602 107.181"
   xml:space="preserve"
   sodipodi:docname="F16.svg"
   inkscape:version="0.92.5 (2060ec1f9f, 2020-04-08)"><metadata
   id="metadata1432"><rdf:RDF><cc:Work
       rdf:about=""><dc:format>image/svg+xml</dc:format><dc:type
         rdf:resource="http://purl.org/dc/dcmitype/StillImage" /></cc:Work></rdf:RDF></metadata><defs
   id="defs1430" /><sodipodi:namedview
   pagecolor="#ffffff"
   bordercolor="#666666"
   borderopacity="1"
   objecttolerance="10"
   gridtolerance="10"
   guidetolerance="10"
   inkscape:pageopacity="0"
   inkscape:pageshadow="2"
   inkscape:window-width="640"
   inkscape:window-height="480"
   id="namedview1428"
   showgrid="false"
   inkscape:zoom="0.55503813"
   inkscape:cx="198.6735"
   inkscape:cy="53.589996"
   inkscape:window-x="0"
   inkscape:window-y="0"
   inkscape:window-maximized="0"
   inkscape:current-layer="Layer_1" />
<g
   id="LWPOLYLINE_204_"
   transform="translate(-13.925,-159.007)">
	
		<rect
   x="14.175"
   y="159.257"
   style="fill:#101820;stroke:#101820;stroke-width:0.5;stroke-miterlimit:10"
   width="396.84601"
   height="106.681"
   id="rect1376" />
</g>
<g
   id="LWPOLYLINE_205_"
   transform="translate(-13.925,-159.007)">
	<path
   style="fill:#ffffff"
   d="m 411.021,212.593 -49.582,49.592 c -2.403,2.404 -5.66,3.754 -9.057,3.754 H 26.976 c -7.07,0 -12.801,-5.734 -12.801,-12.805 v -81.076 c 0,-7.07 5.73,-12.8 12.801,-12.8 h 325.406 c 3.396,0 6.653,1.351 9.057,3.749 z"
   id="path1379"
   inkscape:connector-curvature="0" />
</g>
<g
   id="LWPOLYLINE_206_"
   transform="translate(-13.925,-159.007)">
	<path
   style="fill:#101820"
   d="m 26.976,165.658 h 313.122 c 1.698,0 3.327,0.675 4.528,1.872 l 45.064,45.063 -45.064,45.068 c -1.201,1.197 -2.83,1.873 -4.528,1.873 H 26.976 c -3.535,0 -6.396,-2.865 -6.396,-6.4 v -81.076 c 0.001,-3.536 2.861,-6.4 6.396,-6.4 z"
   id="path1382"
   inkscape:connector-curvature="0" />
</g>
<g
   id="LWPOLYLINE_207_"
   transform="translate(-13.925,-159.007)">
	<polygon
   style="fill:#ffffff"
   points="142.982,233.933 142.982,191.263 149.376,191.263 149.376,211.745 163.042,191.263 170.717,191.263 158.552,209.396 170.717,233.933 163.468,233.933 154.5,215.583 149.376,223.263 149.376,233.933 "
   id="polygon1385" />
</g>
<g
   id="LWPOLYLINE_208_"
   transform="translate(-13.925,-159.007)">
	<rect
   x="175.414"
   y="201.929"
   style="fill:#ffffff"
   width="6.3959999"
   height="32.004002"
   id="rect1388" />
</g>
<g
   id="LWPOLYLINE_210_"
   transform="translate(-13.925,-159.007)">
	<path
   style="fill:#ffffff"
   d="m 196.745,211.745 v 22.188 h -6.396 v -32.004 h 6.396 v 1.713 c 2.254,-1.127 4.736,-1.713 7.259,-1.713 v 6.768 c -1.688,-1.648 -4.389,-1.625 -6.037,0.059 -0.786,0.798 -1.222,1.872 -1.222,2.989 z"
   id="path1391"
   inkscape:connector-curvature="0" />
</g>
<g
   id="LWPOLYLINE_211_"
   transform="translate(-13.925,-159.007)">
	<path
   style="fill:#ffffff"
   d="m 214.668,201.929 v 31.15 c 0,5.184 -4.2,9.385 -9.384,9.385 h -0.854 l 0.854,-6.395 c 1.648,0 2.988,-1.342 2.988,-2.99 v -31.15 z"
   id="path1394"
   inkscape:connector-curvature="0" />
</g>
<g
   id="LWPOLYLINE_213_"
   transform="translate(-13.925,-159.007)">
	<path
   style="fill:#ffffff"
   d="m 242.832,233.933 h -6.396 v -2.049 c -2.572,1.389 -5.462,2.09 -8.382,2.049 -2.621,0.07 -4.984,-1.588 -5.818,-4.08 -1.043,-3.271 -0.169,-6.852 2.264,-9.275 3.118,-3.346 7.378,-5.393 11.937,-5.73 v -3.316 c 0,-1.768 -1.44,-3.201 -3.208,-3.201 -1.768,0 -3.197,1.434 -3.197,3.201 h -6.395 c 0,-5.303 4.289,-9.602 9.592,-9.602 5.303,0 9.604,4.299 9.604,9.602 v 22.401 z"
   id="path1397"
   inkscape:connector-curvature="0" />
</g>
<g
   id="LWPOLYLINE_215_"
   transform="translate(-13.925,-159.007)">
	<path
   style="fill:#ffffff"
   d="m 248.809,223.263 c 0,5.895 4.776,10.67 10.665,10.67 h 0.854 c 5.184,0 9.384,-4.199 9.384,-9.389 0,-3.342 -1.768,-6.43 -4.657,-8.107 l -7.08,-4.131 c -0.655,-0.383 -1.063,-1.082 -1.063,-1.842 0,-1.178 0.953,-2.135 2.135,-2.135 h 1.281 c 1.182,0 2.135,0.957 2.135,2.135 h 6.396 c 0,-4.713 -3.813,-8.535 -8.53,-8.535 h -1.281 c -4.707,0 -8.53,3.822 -8.53,8.535 0,3.033 1.608,5.844 4.23,7.373 l 7.09,4.131 c 0.914,0.531 1.479,1.514 1.479,2.576 0,1.654 -1.34,2.984 -2.988,2.984 h -0.854 c -2.354,0 -4.27,-1.906 -4.27,-4.266 h -6.396 z"
   id="path1400"
   inkscape:connector-curvature="0" />
</g>
<g
   id="LWPOLYLINE_216_"
   transform="translate(-13.925,-159.007)">
	<path
   style="fill:#ffffff"
   d="m 284.439,201.929 h 3.625 v 6.4 h -3.625 v 15.574 c 0,2.006 1.619,3.625 3.625,3.625 v 6.404 c -5.541,0 -10.03,-4.488 -10.03,-10.029 v -15.574 h -3.624 v -6.4 h 3.624 v -10.666 h 6.405 z"
   id="path1403"
   inkscape:connector-curvature="0" />
</g>
<g
   id="LWPOLYLINE_217_"
   transform="translate(-13.925,-159.007)">
	<path
   style="fill:#ffffff"
   d="m 293.615,223.263 c 0,5.895 4.776,10.67 10.665,10.67 5.889,0 10.665,-4.775 10.665,-10.67 v -10.67 c 0,-5.889 -4.776,-10.664 -10.665,-10.664 -5.889,0 -10.665,4.775 -10.665,10.664 z"
   id="path1406"
   inkscape:connector-curvature="0" />
</g>
<g
   id="LWPOLYLINE_214_"
   transform="translate(-13.925,-159.007)">
	<path
   style="fill:#101820"
   d="m 236.436,219.019 c -2.135,0.516 -4.121,1.529 -5.79,2.959 -1.489,1.311 -2.343,3.217 -2.313,5.203 0.03,1.301 1.103,2.324 2.394,2.295 0.109,0 0.219,-0.01 0.317,-0.031 1.887,-0.303 3.704,-0.922 5.393,-1.826 v -8.6 z"
   id="path1409"
   inkscape:connector-curvature="0" />
</g>
<g
   id="LWPOLYLINE_218_"
   transform="translate(-13.925,-159.007)">
	<path
   style="fill:#101820"
   d="m 300.009,223.263 c 0,2.359 1.917,4.266 4.271,4.266 2.354,0 4.271,-1.906 4.271,-4.266 v -10.67 c 0,-2.354 -1.917,-4.264 -4.271,-4.264 -2.354,0 -4.271,1.91 -4.271,4.264 z"
   id="path1412"
   inkscape:connector-curvature="0" />
</g>
<g
   id="LWPOLYLINE_209_"
   transform="translate(-13.925,-159.007)">
	<rect
   x="175.414"
   y="191.263"
   style="fill:#ffffff"
   width="6.3959999"
   height="6.3940001"
   id="rect1415" />
</g>
<g
   id="LWPOLYLINE_212_"
   transform="translate(-13.925,-159.007)">
	<rect
   x="208.27299"
   y="191.263"
   style="fill:#ffffff"
   width="6.3959999"
   height="6.3940001"
   id="rect1418" />
</g>
<g
   id="LWPOLYLINE_219_"
   transform="translate(-13.925,-159.007)">
	<path
   style="fill:#ffffff"
   d="m 81.781,200.587 c 0,-5.228 -3.177,-9.93 -8.033,-11.876 l -9.285,-3.733 c -1.38,-0.557 -2.79,-1.033 -4.22,-1.44 l -14.062,-4.012 2.701,37.964 c 0.396,5.68 3.793,10.719 8.907,13.227 l 9.474,4.652 -0.248,-0.123 c -2.731,-1.342 -4.538,-4.023 -4.757,-7.057 l -1.639,-23.033 7.666,2.254 c 0.953,0.279 1.887,0.586 2.811,0.93 l 6.504,2.408 c 2.513,0.934 4.181,3.326 4.181,6.002 0,-2.676 1.669,-5.068 4.171,-6.002 l 6.505,-2.408 c 0.923,-0.344 1.866,-0.65 2.811,-0.93 l 7.666,-2.254 -1.639,23.033 c -0.209,3.033 -2.026,5.715 -4.747,7.057 l -0.248,0.123 9.464,-4.652 c 5.114,-2.508 8.51,-7.547 8.917,-13.227 l 2.701,-37.964 -14.071,4.012 c -1.43,0.407 -2.83,0.883 -4.21,1.44 l -9.295,3.733 c -4.848,1.946 -8.025,6.648 -8.025,11.876 z"
   id="path1421"
   inkscape:connector-curvature="0" />
</g>
<g
   id="LWPOLYLINE_220_"
   transform="translate(-13.925,-159.007)">
	<path
   style="fill:#ffffff"
   d="m 81.781,232.3 c 0,-1.668 -1.013,-3.168 -2.562,-3.789 L 76.25,227.32 c -0.438,-0.174 -0.884,-0.326 -1.341,-0.457 l -4.488,-1.279 0.863,12.104 c 0.129,1.818 1.212,3.422 2.84,4.221 l 7.656,3.76 7.646,-3.76 c 1.629,-0.799 2.711,-2.402 2.841,-4.221 l 0.863,-12.104 -4.488,1.279 c -0.457,0.131 -0.903,0.283 -1.341,0.457 l -2.959,1.191 c -1.548,0.621 -2.561,2.121 -2.561,3.789 z"
   id="path1424"
   inkscape:connector-curvature="0" />
</g>
</svg>