<?xml version="1.0" encoding="iso-8859-1"?>
<!-- Generator: Adobe Illustrator 16.0.0, SVG Export Plug-In . SVG Version: 6.00 Build 0)  -->
<!DOCTYPE svg PUBLIC "-//W3C//DTD SVG 1.1//EN" "http://www.w3.org/Graphics/SVG/1.1/DTD/svg11.dtd">
<svg version="1.1" id="Layer_1" xmlns="http://www.w3.org/2000/svg" xmlns:xlink="http://www.w3.org/1999/xlink" x="0px" y="0px"
	 width="425.197px" height="425.196px" viewBox="0 0 425.197 425.196" style="enable-background:new 0 0 425.197 425.196;"
	 xml:space="preserve">
<g id="LWPOLYLINE_213_">
	
		<rect x="14.176" y="186.491" style="fill:#101820;stroke:#101820;stroke-width:0.5;stroke-miterlimit:10;" width="396.844" height="208.866"/>
</g>
<g id="LWPOLYLINE_210_">
	<path style="fill:#FFFFFF;" d="M35.065,395.356h355.067c11.544,0,20.888-9.35,20.888-20.889V207.372
		c0-11.531-9.344-20.881-20.888-20.881H35.065c-11.532,0-20.889,9.351-20.889,20.881v167.096
		C14.176,386.007,23.533,395.356,35.065,395.356z"/>
</g>
<g id="LWPOLYLINE_211_">
	<path style="fill:#101820;" d="M390.132,384.913H35.065c-5.772,0-10.45-4.672-10.45-10.445V207.372
		c0-5.76,4.678-10.437,10.45-10.437h355.067c5.771,0,10.45,4.677,10.45,10.437v167.096
		C400.583,380.241,395.904,384.913,390.132,384.913z"/>
</g>
<g id="LWPOLYLINE_212_">
	<path style="fill:#FFFFFF;" d="M149.945,361.417V262.2c0-5.76,4.666-10.438,10.438-10.438h78.584l-31.327-31.332h25.847
		l41.776,41.77l-41.776,41.777H207.64l31.327-31.326h-62.921c-2.88,0-5.226,2.332-5.226,5.219v83.547H149.945z"/>
</g>
<g id="LWPOLYLINE_214_">
	
		<rect x="14.176" y="29.839" style="fill:#101820;stroke:#101820;stroke-width:0.5;stroke-miterlimit:10;" width="396.844" height="156.651"/>
</g>
<g id="LWPOLYLINE_190_">
	<path style="fill:#FFFFFF;" d="M35.065,186.491h355.067c11.544,0,20.888-9.351,20.888-20.889V50.728
		c0-11.538-9.344-20.888-20.888-20.888H35.065c-11.532,0-20.889,9.351-20.889,20.888v114.875
		C14.176,177.14,23.533,186.491,35.065,186.491z"/>
</g>
<g id="LWPOLYLINE_189_">
	<path style="fill:#101820;" d="M35.065,176.046h355.067c5.771,0,10.45-4.678,10.45-10.444V50.728
		c0-5.772-4.679-10.444-10.45-10.444H35.065c-5.772,0-10.45,4.672-10.45,10.444v114.875
		C24.615,171.368,29.292,176.046,35.065,176.046z"/>
</g>
<g id="LWPOLYLINE_192_">
	<path style="fill:#FFFFFF;" d="M71.617,111.297h12.212c8.834,0,15.979-7.151,15.979-15.973v-2.509
		c0-8.828-7.146-15.979-15.979-15.979H62.211v62.659h9.405V111.297z"/>
</g>
<g id="LWPOLYLINE_195_">
	<path style="fill:#FFFFFF;" d="M135.534,139.495h-9.405v-3.008c-3.779,2.036-8.008,3.068-12.298,3.008
		c-3.864,0.097-7.327-2.333-8.555-5.991c-1.531-4.806-0.243-10.062,3.33-13.622c4.568-4.909,10.827-7.917,17.522-8.415V106.6
		c0-2.6-2.103-4.702-4.703-4.702c-2.588,0-4.69,2.102-4.69,4.702h-9.405c0-7.789,6.319-14.102,14.096-14.102
		c7.789,0,14.108,6.313,14.108,14.102V139.495z"/>
</g>
<g id="LWPOLYLINE_197_">
	<rect x="146.81" y="92.499" style="fill:#FFFFFF;" width="9.394" height="46.996"/>
</g>
<g id="LWPOLYLINE_199_">
	<polygon style="fill:#FFFFFF;" points="164.357,92.499 176.885,139.495 186.278,139.495 198.819,92.499 189.413,92.499 
		181.587,121.875 173.75,92.499 	"/>
</g>
<g id="LWPOLYLINE_202_">
	<path style="fill:#FFFFFF;" d="M235.784,139.495h-9.394v-3.008c-3.779,2.036-8.021,3.068-12.31,3.008
		c-3.852,0.097-7.327-2.333-8.542-5.991c-1.531-4.806-0.243-10.062,3.329-13.622c4.569-4.909,10.827-7.917,17.522-8.415V106.6
		c0-2.6-2.114-4.702-4.702-4.702c-2.601,0-4.703,2.102-4.703,4.702h-9.393c0-7.789,6.307-14.102,14.096-14.102
		s14.096,6.313,14.096,14.102V139.495z"/>
</g>
<g id="LWPOLYLINE_204_">
	<polygon style="fill:#FFFFFF;" points="256.465,139.495 247.06,139.495 247.06,76.835 256.465,76.835 256.465,111.461 
		268.994,92.499 278.386,92.499 267.668,108.593 278.459,139.507 268.994,139.495 261.448,117.926 256.465,125.399 	"/>
</g>
<g id="LWPOLYLINE_205_">
	<path style="fill:#FFFFFF;" d="M285.289,123.832c0,8.651,7.012,15.663,15.663,15.663c8.652,0,15.664-7.012,15.664-15.663v-15.664
		c0-8.652-7.012-15.669-15.664-15.669c-8.651,0-15.663,7.018-15.663,15.669V123.832z"/>
</g>
<g id="LWPOLYLINE_207_">
	<path style="fill:#FFFFFF;" d="M338.865,92.499h5.322v9.399h-5.322v22.869c0,2.94,2.382,5.328,5.322,5.328v9.399
		c-8.13,0-14.728-6.592-14.728-14.728v-22.869h-5.322v-9.399h5.322V76.835h9.405V92.499z"/>
</g>
<g id="LWPOLYLINE_208_">
	<rect x="353.581" y="92.499" style="fill:#FFFFFF;" width="9.404" height="46.996"/>
</g>
<g id="LWPOLYLINE_191_">
	<path style="fill:#101820;" d="M71.617,101.898h12.212c3.634,0,6.586-2.941,6.586-6.574v-2.509c0-3.633-2.952-6.58-6.586-6.58
		H71.617V101.898z"/>
</g>
<g id="LWPOLYLINE_196_">
	<path style="fill:#101820;" d="M126.128,117.591c-3.136,0.76-6.04,2.248-8.494,4.344c-2.188,1.932-3.438,4.727-3.402,7.643
		c0.036,1.908,1.616,3.415,3.523,3.372c0.158-0.006,0.304-0.018,0.462-0.042c2.771-0.45,5.444-1.355,7.911-2.686V117.591z"/>
</g>
<g id="LWPOLYLINE_203_">
	<path style="fill:#101820;" d="M226.39,117.591c-3.135,0.76-6.052,2.248-8.494,4.344c-2.199,1.932-3.438,4.727-3.414,7.643
		c0.048,1.908,1.628,3.415,3.523,3.372c0.158-0.006,0.316-0.018,0.474-0.042c2.759-0.45,5.433-1.355,7.911-2.686V117.591z"/>
</g>
<g id="LWPOLYLINE_206_">
	<path style="fill:#101820;" d="M294.682,123.832c0,3.463,2.807,6.264,6.27,6.264s6.271-2.801,6.271-6.264v-15.664
		c0-3.463-2.808-6.27-6.271-6.27s-6.27,2.807-6.27,6.27V123.832z"/>
</g>
<g id="LWPOLYLINE_193_">
	<rect x="124.876" y="76.835" style="fill:#FFFFFF;" width="9.394" height="9.399"/>
</g>
<g id="LWPOLYLINE_194_">
	<rect x="107.961" y="76.835" style="fill:#FFFFFF;" width="9.394" height="9.399"/>
</g>
<g id="LWPOLYLINE_198_">
	<rect x="146.81" y="76.835" style="fill:#FFFFFF;" width="9.394" height="9.399"/>
</g>
<g id="LWPOLYLINE_200_">
	<rect x="225.126" y="76.835" style="fill:#FFFFFF;" width="9.405" height="9.399"/>
</g>
<g id="LWPOLYLINE_201_">
	<rect x="208.211" y="76.835" style="fill:#FFFFFF;" width="9.405" height="9.399"/>
</g>
<g id="LWPOLYLINE_209_">
	<rect x="353.581" y="76.835" style="fill:#FFFFFF;" width="9.404" height="9.399"/>
</g>
</svg>
