<?xml version="1.0" encoding="iso-8859-1"?>
<!-- Generator: Adobe Illustrator 16.0.0, SVG Export Plug-In . SVG Version: 6.00 Build 0)  -->
<!DOCTYPE svg PUBLIC "-//W3C//DTD SVG 1.1//EN" "http://www.w3.org/Graphics/SVG/1.1/DTD/svg11.dtd">
<svg version="1.1" id="Layer_1" xmlns="http://www.w3.org/2000/svg" xmlns:xlink="http://www.w3.org/1999/xlink" x="0px" y="0px"
	 width="425.197px" height="425.196px" viewBox="0 0 425.197 425.196" style="enable-background:new 0 0 425.197 425.196;"
	 xml:space="preserve">
<g id="LWPOLYLINE_114_">
	
		<rect x="14.173" y="158.677" style="fill:#FFFFFF;stroke:#101820;stroke-width:0.5;stroke-miterlimit:10;" width="396.851" height="107.841"/>
</g>
<g id="LWPOLYLINE_102_">
	<path style="fill:#101820;" d="M360.896,162.469l50.128,50.128l-50.128,50.131c-2.426,2.426-5.721,3.791-9.152,3.791H27.114
		c-7.148,0-12.94-5.795-12.94-12.94v-81.96c0-7.146,5.792-12.941,12.94-12.941h324.63
		C355.175,158.677,358.47,160.042,360.896,162.469z"/>
</g>
<g id="LWPOLYLINE_101_">
	<path style="fill:#FFFFFF;" d="M346.32,165.148H27.114c-3.574,0-6.47,2.896-6.47,6.47v81.96c0,3.574,2.896,6.47,6.47,6.47H346.32
		c3.574,0,6.471-2.896,6.471-6.47v-81.96C352.791,168.044,349.894,165.148,346.32,165.148z"/>
</g>
<g id="LWPOLYLINE_87_">
	<path style="fill:#005EB8;" d="M50.837,250.343h58.233c4.765,0,8.63-3.865,8.63-8.629v-58.234c0-4.763-3.865-8.626-8.63-8.626
		H50.837c-4.764,0-8.63,3.863-8.63,8.626v58.234C42.208,246.478,46.074,250.343,50.837,250.343z"/>
</g>
<g id="LWPOLYLINE_88_">
	<path style="fill:#FFFFFF;" d="M62.702,238.479v-51.764h23.723c8.338,0,15.1,6.762,15.1,15.1s-6.762,15.097-15.1,15.097H72.407
		v21.567H62.702z"/>
</g>
<g id="LWPOLYLINE_106_">
	<path style="fill:#101820;" d="M289.691,239.62c-0.452,0.768-1.089,1.404-1.855,1.855c-2.504,1.48-5.739,0.654-7.22-1.855h-41.22
		c-0.458,0.797-1.118,1.457-1.915,1.915c-2.468,1.409-5.613,0.554-7.029-1.915h-3.384c-0.708,1.184-1.844,2.043-3.176,2.402
		c-2.843,0.773-5.774-0.906-6.548-3.749h-13.44v-17.612l4.931-18.092h34.237v-1.885l-14.279-9.997l17.431-11.847l17.461,11.882
		l-14.582,9.961v1.885h61.85l4.573,16.994v18.71h-13.369c-0.345,1.368-1.225,2.536-2.444,3.244c-2.498,1.45-5.697,0.601-7.148-1.897
		H289.691z"/>
</g>
<g id="LWPOLYLINE_133_">
	<polygon style="fill:#101820;" points="195.346,242.314 195.346,246.353 324.754,246.353 324.754,242.314 195.412,242.314 	"/>
</g>
<g id="LWPOLYLINE_89_">
	<path style="fill:#005EB8;" d="M72.407,196.42h14.018c2.979,0,5.394,2.415,5.394,5.394c0,2.977-2.414,5.392-5.394,5.392H72.407
		V196.42z"/>
</g>
<g id="LWPOLYLINE_104_">
	<polygon style="fill:#FFFFFF;" points="217.827,206.542 210.136,206.542 206.669,220.114 217.827,220.114 	"/>
</g>
<g id="LWPOLYLINE_105_">
	<polygon style="fill:#FFFFFF;" points="258.481,190.346 246.259,182.094 233.866,190.551 246.086,199.216 	"/>
</g>
<g id="LWPOLYLINE_107_">
	<rect x="252.825" y="206.542" style="fill:#FFFFFF;" width="13.595" height="13.572"/>
</g>
<g id="LWPOLYLINE_108_">
	<rect x="220.597" y="206.542" style="fill:#FFFFFF;" width="13.446" height="13.572"/>
</g>
<g id="LWPOLYLINE_109_">
	<rect x="236.672" y="206.542" style="fill:#FFFFFF;" width="13.596" height="13.572"/>
</g>
<g id="LINE_143_">
	<line style="fill:#FFFFFF;" x1="250.268" y1="206.542" x2="250.268" y2="220.138"/>
</g>
<g id="LWPOLYLINE_110_">
	<rect x="269.048" y="206.542" style="fill:#FFFFFF;" width="13.44" height="13.572"/>
</g>
<g id="LWPOLYLINE_111_">
	<rect x="285.118" y="206.542" style="fill:#FFFFFF;" width="13.595" height="13.572"/>
</g>
<g id="LINE_144_">
	<line style="fill:#FFFFFF;" x1="298.712" y1="220.114" x2="285.118" y2="220.114"/>
</g>
<g id="LWPOLYLINE_112_">
	<polygon style="fill:#FFFFFF;" points="301.424,206.542 309.233,206.542 301.424,206.542 301.424,220.114 312.878,220.114 
		309.233,206.542 	"/>
</g>
<g id="LWPOLYLINE_113_">
	<polygon style="fill:#101820;" points="145.736,215.294 145.736,209.903 153.824,209.903 153.824,201.814 159.217,201.814 
		159.217,209.903 167.305,209.903 167.305,215.294 159.217,215.294 159.217,223.382 153.824,223.382 153.824,215.294 	"/>
</g>
</svg>
