<?xml version="1.0" encoding="iso-8859-1"?>
<!-- Generator: Adobe Illustrator 16.0.0, SVG Export Plug-In . SVG Version: 6.00 Build 0)  -->
<!DOCTYPE svg PUBLIC "-//W3C//DTD SVG 1.1//EN" "http://www.w3.org/Graphics/SVG/1.1/DTD/svg11.dtd">
<svg version="1.1" id="Layer_1" xmlns="http://www.w3.org/2000/svg" xmlns:xlink="http://www.w3.org/1999/xlink" x="0px" y="0px"
	 width="425.197px" height="425.196px" viewBox="0 0 425.197 425.196" style="enable-background:new 0 0 425.197 425.196;"
	 xml:space="preserve">
<g id="LWPOLYLINE_161_">
	<path style="fill:#101820;" d="M357.552,159.126l53.471,53.474l-53.471,53.471c-2.59,2.59-6.097,4.042-9.758,4.042H27.98
		c-7.626,0-13.806-6.18-13.806-13.803v-87.423c0-7.622,6.18-13.802,13.806-13.802h319.814
		C351.456,155.084,354.962,156.539,357.552,159.126z"/>
</g>
<g id="LWPOLYLINE_160_">
	<path style="fill:#FFFFFF;" d="M342.006,161.987H27.98c-3.814,0-6.903,3.088-6.903,6.899v87.423c0,3.812,3.089,6.903,6.903,6.903
		h314.026c3.814,0,6.906-3.092,6.906-6.903v-87.423C348.913,165.075,345.821,161.987,342.006,161.987z"/>
</g>
<g id="LWPOLYLINE_163_">
	<path style="fill:#101820;" d="M299.892,242.431c4.671-2.835,6.163-8.921,3.326-13.596c-0.04-0.07-0.08-0.141-0.127-0.207h12.642
		v-27.609h-6.907v8.57h-13.799v-24.675h16.102v-6.899h-23.008v18.403h-25.304v-7.137c-1.826-3.812-6.397-5.421-10.212-3.598
		c-1.572,0.757-2.838,2.024-3.594,3.598v7.137h-16.984v-13.806h-9.202v13.806h-8.318h-2.302v32.21h5.199
		c-2.944,4.601-1.605,10.721,2.998,13.672c0.067,0.043,0.134,0.087,0.208,0.131h-13.184v4.601h110.602v-4.601h-18.424H299.892z"/>
</g>
<g id="LWPOLYLINE_165_">
	<path style="fill:#005EB8;" d="M53.287,252.86h62.115c5.079,0,9.202-4.123,9.202-9.202v-62.117c0-5.083-4.123-9.202-9.202-9.202
		H53.287c-5.083,0-9.205,4.119-9.205,9.202v62.117C44.082,248.737,48.204,252.86,53.287,252.86z"/>
</g>
<g id="LWPOLYLINE_166_">
	<path style="fill:#FFFFFF;" d="M65.94,240.205v-55.214h25.303c8.894,0,16.108,7.211,16.108,16.104
		c0,8.895-7.214,16.102-16.108,16.102h-14.95v23.008H65.94z"/>
</g>
<g id="LWPOLYLINE_167_">
	<path style="fill:#005EB8;" d="M76.292,195.344h14.95c3.179,0,5.755,2.573,5.755,5.752c0,3.176-2.576,5.749-5.755,5.749h-14.95
		V195.344z"/>
</g>
<g id="LWPOLYLINE_168_">
	<path style="fill:#FFFFFF;" d="M230.869,242.431c4.678-2.835,6.17-8.921,3.333-13.596c-0.04-0.07-0.08-0.141-0.127-0.207h17.841
		c-2.951,4.601-1.605,10.721,2.991,13.672c0.074,0.043,0.141,0.087,0.208,0.131h-24.527H230.869z"/>
</g>
<g id="LWPOLYLINE_169_">
	<path style="fill:#FFFFFF;" d="M268.58,228.628h17.848c-2.951,4.601-1.612,10.721,2.991,13.672
		c0.067,0.043,0.141,0.087,0.208,0.131H265.38c4.671-2.835,6.164-8.921,3.333-13.596
		C268.673,228.765,268.626,228.694,268.58,228.628z"/>
</g>
<g id="LWPOLYLINE_164_">
	<polygon style="fill:#101820;" points="154.511,215.474 154.511,209.722 163.137,209.722 163.137,201.096 168.892,201.096 
		168.892,209.722 177.519,209.722 177.519,215.474 168.892,215.474 168.892,224.101 163.137,224.101 163.137,215.474 	"/>
</g>
<g id="LWPOLYLINE_162_">
	
		<rect x="14.174" y="155.084" style="fill:none;stroke:#101820;stroke-width:0.5;stroke-miterlimit:10;" width="396.849" height="115.028"/>
</g>
</svg>
