<?xml version="1.0" encoding="iso-8859-1"?>
<!-- Generator: Adobe Illustrator 16.0.0, SVG Export Plug-In . SVG Version: 6.00 Build 0)  -->
<!DOCTYPE svg PUBLIC "-//W3C//DTD SVG 1.1//EN" "http://www.w3.org/Graphics/SVG/1.1/DTD/svg11.dtd">
<svg version="1.1" id="Layer_1" xmlns="http://www.w3.org/2000/svg" xmlns:xlink="http://www.w3.org/1999/xlink" x="0px" y="0px"
	 width="425.197px" height="425.196px" viewBox="0 0 425.197 425.196" style="enable-background:new 0 0 425.197 425.196;"
	 xml:space="preserve">
<g>
	<g id="LWPOLYLINE_16_">
		
			<rect x="14.175" y="164.898" style="fill:#FFFFFF;stroke:#101820;stroke-width:0.5;stroke-miterlimit:10;" width="396.846" height="95.399"/>
	</g>
	<g id="LWPOLYLINE_15_">
		<path style="fill:#101820;" d="M366.677,168.254l44.344,44.344l-44.344,44.348c-2.146,2.146-5.057,3.353-8.094,3.353H25.624
			c-6.322,0-11.448-5.126-11.448-11.446v-72.504c0-6.323,5.126-11.449,11.448-11.449h332.96
			C361.621,164.898,364.531,166.107,366.677,168.254z"/>
	</g>
	<g id="LWPOLYLINE_14_">
		<path style="fill:#FFFFFF;" d="M353.787,170.625H25.624c-3.159,0-5.723,2.563-5.723,5.723v72.504c0,3.16,2.563,5.72,5.723,5.72
			h328.163c3.162,0,5.725-2.56,5.725-5.72v-72.504C359.511,173.188,356.949,170.625,353.787,170.625z"/>
	</g>
	<g id="LWPOLYLINE_17_">
		<polygon style="fill:#101820;" points="130.559,214.984 130.559,210.215 137.715,210.215 137.715,203.059 142.485,203.059 
			142.485,210.215 149.638,210.215 149.638,214.984 142.485,214.984 142.485,222.141 137.715,222.141 137.715,214.984 		"/>
	</g>
	<g id="LWPOLYLINE_18_">
		<path style="fill:#101820;" d="M329.746,219.277v-13.355c0-6.85-5.551-12.402-12.4-12.402s-12.402,5.553-12.402,12.402v13.355
			c0,6.847,5.553,12.402,12.402,12.402S329.746,226.124,329.746,219.277z"/>
	</g>
	<g id="LWPOLYLINE_19_">
		<path style="fill:#101820;" d="M279.57,214.508v17.172h-5.725v-38.16h13.166c5.371,0,9.73,4.356,9.73,9.731v1.525
			c0,4.097-2.568,7.756-6.424,9.15l6.424,17.753h-6.107l-6.209-17.172H279.57z"/>
	</g>
	<g id="LWPOLYLINE_20_">
		<polygon style="fill:#101820;" points="243.509,193.52 268.314,193.52 268.314,199.242 258.771,199.242 258.771,231.68 
			253.048,231.68 253.048,199.242 243.509,199.242 		"/>
	</g>
	<g id="LWPOLYLINE_21_">
		<polygon style="fill:#101820;" points="216.609,231.68 237.593,231.68 237.593,225.954 222.332,225.954 222.332,214.508 
			232.634,214.508 232.634,208.781 222.332,208.781 222.332,199.242 237.593,199.242 237.593,193.52 216.609,193.52 		"/>
	</g>
	<g id="LWPOLYLINE_24_">
		<polygon style="fill:#101820;" points="189.705,231.68 199.245,206.875 199.245,231.68 204.97,231.68 204.97,193.52 
			198.484,193.52 189.705,215.271 180.929,193.52 174.443,193.52 174.443,231.68 180.166,231.68 180.166,206.875 		"/>
	</g>
	<g id="LWPOLYLINE_22_">
		<path style="fill:#FFFFFF;" d="M324.025,219.277v-13.355c0-3.687-2.988-6.68-6.68-6.68c-3.686,0-6.676,2.993-6.676,6.68v13.355
			c0,3.688,2.99,6.677,6.676,6.677C321.037,225.954,324.025,222.965,324.025,219.277z"/>
	</g>
	<g id="LWPOLYLINE_23_">
		<path style="fill:#FFFFFF;" d="M279.57,208.781h7.441c2.213,0,4.006-1.793,4.006-4.005v-1.525c0-2.216-1.793-4.009-4.006-4.009
			h-7.441V208.781z"/>
	</g>
	<g id="LWPOLYLINE_25_">
		<path style="fill:#005EB8;" d="M46.613,245.985h51.513c4.214,0,7.633-3.415,7.633-7.629v-51.513c0-4.218-3.419-7.633-7.633-7.633
			H46.613c-4.218,0-7.633,3.415-7.633,7.633v51.513C38.98,242.57,42.395,245.985,46.613,245.985z"/>
	</g>
	<g id="LWPOLYLINE_26_">
		<path style="fill:#FFFFFF;" d="M57.105,235.493v-45.79h20.988c7.374,0,13.355,5.979,13.355,13.355s-5.981,13.355-13.355,13.355
			H65.691v19.079H57.105z"/>
	</g>
	<g id="LWPOLYLINE_27_">
		<path style="fill:#005EB8;" d="M65.691,198.289h12.402c2.633,0,4.77,2.134,4.77,4.77s-2.137,4.77-4.77,4.77H65.691V198.289z"/>
	</g>
</g>
</svg>
