<?xml version="1.0" encoding="UTF-8" standalone="no"?>
<!-- Generator: Adobe Illustrator 16.0.0, SVG Export Plug-In . SVG Version: 6.00 Build 0)  -->

<svg
   xmlns:dc="http://purl.org/dc/elements/1.1/"
   xmlns:cc="http://creativecommons.org/ns#"
   xmlns:rdf="http://www.w3.org/1999/02/22-rdf-syntax-ns#"
   xmlns:svg="http://www.w3.org/2000/svg"
   xmlns="http://www.w3.org/2000/svg"
   xmlns:sodipodi="http://sodipodi.sourceforge.net/DTD/sodipodi-0.dtd"
   xmlns:inkscape="http://www.inkscape.org/namespaces/inkscape"
   version="1.1"
   id="Layer_1"
   x="0px"
   y="0px"
   width="397.35501"
   height="310.34601"
   viewBox="0 0 397.35502 310.346"
   xml:space="preserve"
   sodipodi:docname="F2.1.svg"
   inkscape:version="0.92.5 (2060ec1f9f, 2020-04-08)"><metadata
   id="metadata2183"><rdf:RDF><cc:Work
       rdf:about=""><dc:format>image/svg+xml</dc:format><dc:type
         rdf:resource="http://purl.org/dc/dcmitype/StillImage" /></cc:Work></rdf:RDF></metadata><defs
   id="defs2181" /><sodipodi:namedview
   pagecolor="#ffffff"
   bordercolor="#666666"
   borderopacity="1"
   objecttolerance="10"
   gridtolerance="10"
   guidetolerance="10"
   inkscape:pageopacity="0"
   inkscape:pageshadow="2"
   inkscape:window-width="640"
   inkscape:window-height="480"
   id="namedview2179"
   showgrid="false"
   inkscape:zoom="0.55503813"
   inkscape:cx="198.6785"
   inkscape:cy="155.173"
   inkscape:window-x="0"
   inkscape:window-y="0"
   inkscape:window-maximized="0"
   inkscape:current-layer="Layer_1" />
<g
   id="g2176"
   transform="translate(-13.92,-57.424999)">
	<g
   id="LWPOLYLINE_390_">
		
			<rect
   x="14.17"
   y="248.468"
   style="fill:#ffffff;stroke:#101820;stroke-width:0.5;stroke-miterlimit:10"
   width="396.85501"
   height="119.053"
   id="rect1906" />
	</g>
	<g
   id="LWPOLYLINE_4_">
		<path
   style="fill:#101820"
   d="m 23.329,367.521 h 378.539 c 5.059,0 9.158,-4.098 9.158,-9.158 V 257.626 c 0,-5.059 -4.1,-9.158 -9.158,-9.158 H 23.329 c -5.05,0 -9.158,4.1 -9.158,9.158 v 100.736 c -10e-4,5.061 4.108,9.159 9.158,9.159 z"
   id="path1909"
   inkscape:connector-curvature="0" />
	</g>
	<g
   id="LWPOLYLINE_5_">
		<path
   style="fill:#ffffff"
   d="m 23.329,362.942 h 378.539 c 2.525,0 4.579,-2.051 4.579,-4.58 V 257.626 c 0,-2.529 -2.054,-4.578 -4.579,-4.578 H 23.329 c -2.525,0 -4.579,2.049 -4.579,4.578 v 100.736 c 0,2.53 2.053,4.58 4.579,4.58 z"
   id="path1912"
   inkscape:connector-curvature="0" />
	</g>
	<g
   id="LWPOLYLINE_31_">
		<polygon
   style="fill:#101820"
   points="261.04,314.097 266.233,314.097 274.322,344.626 269.431,344.626 268.059,339.437 259.205,339.437 257.833,344.626 252.951,344.626 "
   id="polygon1915" />
	</g>
	<g
   id="LWPOLYLINE_44_">
		<polygon
   style="fill:#101820"
   points="122.542,301.888 122.542,271.362 127.122,271.362 127.122,286.017 136.894,271.362 142.39,271.362 133.687,284.333 142.39,301.888 137.197,301.888 130.783,288.761 127.122,294.257 127.122,301.888 "
   id="polygon1918" />
	</g>
	<g
   id="LWPOLYLINE_43_">
		<rect
   x="148.493"
   y="271.362"
   style="fill:#101820"
   width="4.579"
   height="30.525"
   id="rect1921" />
	</g>
	<g
   id="LWPOLYLINE_42_">
		<polygon
   style="fill:#101820"
   points="170.47,292.729 176.27,271.362 181.16,271.362 172.759,301.888 168.18,301.888 159.789,271.362 164.67,271.362 "
   id="polygon1924" />
	</g>
	<g
   id="LWPOLYLINE_41_">
		<rect
   x="187.869"
   y="271.362"
   style="fill:#101820"
   width="4.579"
   height="30.525"
   id="rect1927" />
	</g>
	<g
   id="LWPOLYLINE_40_">
		<polygon
   style="fill:#101820"
   points="207.414,288.151 207.414,301.888 202.834,301.888 202.834,271.362 207.414,271.362 207.414,283.571 218.094,283.571 218.094,271.362 222.673,271.362 222.673,301.888 218.094,301.888 218.094,288.151 "
   id="polygon1930" />
	</g>
	<g
   id="LWPOLYLINE_39_">
		<polygon
   style="fill:#101820"
   points="237.479,271.362 242.665,271.362 250.753,301.888 245.872,301.888 244.5,296.698 235.645,296.698 234.272,301.888 229.391,301.888 "
   id="polygon1933" />
	</g>
	<g
   id="LWPOLYLINE_38_">
		<polygon
   style="fill:#101820"
   points="257.47,301.888 257.47,271.362 262.049,271.362 262.049,286.017 271.822,271.362 277.318,271.362 268.615,284.333 277.318,301.888 272.125,301.888 265.719,288.761 262.049,294.257 262.049,301.888 "
   id="polygon1936" />
	</g>
	<g
   id="LWPOLYLINE_37_">
		<polygon
   style="fill:#101820"
   points="288.151,271.362 293.344,271.362 301.433,301.888 296.551,301.888 295.171,296.698 286.325,296.698 284.944,301.888 280.062,301.888 "
   id="polygon1939" />
	</g>
	<g
   id="LWPOLYLINE_27_">
		<path
   style="fill:#101820"
   d="M 92.022,338.521 H 82.864 V 302.65 c 0,-1.262 -1.027,-2.289 -2.289,-2.289 H 53.521 l 13.737,13.736 H 55.381 L 37.066,295.78 55.381,277.466 h 11.877 l -13.737,13.736 h 33.922 c 2.525,0 4.579,2.055 4.579,4.578 z"
   id="path1942"
   inkscape:connector-curvature="0" />
	</g>
	<g
   id="LWPOLYLINE_387_">
		
			<rect
   x="14.17"
   y="57.674999"
   style="fill:#005eb8;stroke:#005eb8;stroke-width:0.5;stroke-miterlimit:10"
   width="396.85501"
   height="190.79201"
   id="rect1945" />
	</g>
	<g
   id="LWPOLYLINE_3_">
		<path
   style="fill:#ffffff"
   d="m 23.329,248.468 h 378.539 c 5.059,0 9.158,-4.1 9.158,-9.158 V 66.833 c 0,-5.059 -4.1,-9.158 -9.158,-9.158 H 23.329 c -5.05,0 -9.158,4.099 -9.158,9.158 V 239.31 c -10e-4,5.058 4.108,9.158 9.158,9.158 z"
   id="path1948"
   inkscape:connector-curvature="0" />
	</g>
	<g
   id="LWPOLYLINE_6_">
		<path
   style="fill:#005eb8"
   d="m 23.329,243.89 h 378.539 c 2.525,0 4.579,-2.055 4.579,-4.58 V 66.833 c 0,-2.529 -2.054,-4.579 -4.579,-4.579 H 23.329 c -2.525,0 -4.579,2.049 -4.579,4.579 V 239.31 c 0,2.525 2.053,4.58 4.579,4.58 z"
   id="path1951"
   inkscape:connector-curvature="0" />
	</g>
	<g
   id="LWPOLYLINE_26_">
		<path
   style="fill:#e4002b"
   d="m 128.654,133.994 h 41.21 c 3.367,0 6.103,-2.736 6.103,-6.111 V 86.672 c 0,-3.367 -2.735,-6.103 -6.103,-6.103 h -41.21 c -3.376,0 -6.111,2.736 -6.111,6.103 v 41.211 c -0.001,3.375 2.735,6.111 6.111,6.111 z"
   id="path1954"
   inkscape:connector-curvature="0" />
	</g>
	<g
   id="LWPOLYLINE_7_">
		<path
   style="fill:#009775"
   d="m 188.18,133.994 h 79.365 c 3.376,0 6.103,-2.736 6.103,-6.111 V 86.672 c 0,-3.367 -2.727,-6.103 -6.103,-6.103 H 188.18 c -3.375,0 -6.111,2.736 -6.111,6.103 v 41.211 c 0,3.375 2.736,6.111 6.111,6.111 z"
   id="path1957"
   inkscape:connector-curvature="0" />
	</g>
	<g
   id="LWPOLYLINE_25_">
		<polygon
   style="fill:#ffffff"
   points="142.39,156.889 134.756,156.889 134.756,182.834 130.177,182.834 130.177,156.889 122.542,156.889 122.542,152.31 142.39,152.31 "
   id="polygon1960" />
	</g>
	<g
   id="LWPOLYLINE_24_">
		<polygon
   style="fill:#ffffff"
   points="152.618,152.31 157.802,152.31 165.891,182.834 161.009,182.834 159.637,177.646 150.782,177.646 149.411,182.834 144.52,182.834 "
   id="polygon1963" />
	</g>
	<g
   id="LWPOLYLINE_23_">
		<polygon
   style="fill:#ffffff"
   points="192.448,182.834 197.026,182.834 197.026,152.31 191.841,152.31 184.822,169.708 177.801,152.31 172.608,152.31 172.608,182.834 177.187,182.834 177.187,162.991 184.822,182.834 192.448,162.991 "
   id="polygon1966" />
	</g>
	<g
   id="LWPOLYLINE_22_">
		<path
   style="fill:#ffffff"
   d="m 211.993,169.098 h 5.95 c 4.293,0 7.786,-3.489 7.786,-7.786 v -1.221 c 0,-4.297 -3.493,-7.781 -7.786,-7.781 h -10.529 v 30.524 h 4.579 z"
   id="path1969"
   inkscape:connector-curvature="0" />
	</g>
	<g
   id="LWPOLYLINE_21_">
		<polygon
   style="fill:#ffffff"
   points="248.927,178.256 236.713,178.256 236.713,169.098 244.954,169.098 244.954,164.519 236.713,164.519 236.713,156.889 248.927,156.889 248.927,152.31 232.134,152.31 232.134,182.834 248.927,182.834 "
   id="polygon1972" />
	</g>
	<g
   id="LWPOLYLINE_20_">
		<path
   style="fill:#ffffff"
   d="m 261.747,169.098 v 13.736 h -4.579 V 152.31 h 10.53 c 4.301,0 7.785,3.484 7.785,7.781 v 1.221 c 0,3.278 -2.054,6.208 -5.135,7.319 l 5.135,14.204 h -4.882 l -4.975,-13.736 h -3.879 z"
   id="path1975"
   inkscape:connector-curvature="0" />
	</g>
	<g
   id="LWPOLYLINE_19_">
		<polygon
   style="fill:#ffffff"
   points="299.902,178.256 287.697,178.256 287.697,169.098 295.937,169.098 295.937,164.519 287.697,164.519 287.697,156.889 299.902,156.889 299.902,152.31 283.118,152.31 283.118,182.834 299.902,182.834 "
   id="polygon1978" />
	</g>
	<g
   id="LWPOLYLINE_18_">
		<polygon
   style="fill:#ffffff"
   points="142.39,199.622 134.756,199.622 134.756,225.573 130.177,225.573 130.177,199.622 122.542,199.622 122.542,195.044 142.39,195.044 "
   id="polygon1981" />
	</g>
	<g
   id="LWPOLYLINE_17_">
		<polygon
   style="fill:#ffffff"
   points="152.618,195.044 157.802,195.044 165.891,225.573 161.009,225.573 159.637,220.38 150.782,220.38 149.411,225.573 144.52,225.573 "
   id="polygon1984" />
	</g>
	<g
   id="LWPOLYLINE_16_">
		<polygon
   style="fill:#ffffff"
   points="192.448,225.573 197.026,225.573 197.026,195.044 191.841,195.044 184.822,212.442 177.801,195.044 172.608,195.044 172.608,225.573 177.187,225.573 177.187,205.729 184.822,225.573 192.448,205.729 "
   id="polygon1987" />
	</g>
	<g
   id="LWPOLYLINE_15_">
		<polygon
   style="fill:#ffffff"
   points="227.252,225.573 231.832,225.573 231.832,195.044 226.638,195.044 219.618,212.442 212.598,195.044 207.414,195.044 207.414,225.573 211.993,225.573 211.993,205.729 219.618,225.573 227.252,205.729 "
   id="polygon1990" />
	</g>
	<g
   id="LWPOLYLINE_14_">
		<polygon
   style="fill:#ffffff"
   points="259.002,220.995 246.789,220.995 246.789,211.837 255.03,211.837 255.03,207.257 246.789,207.257 246.789,199.622 259.002,199.622 259.002,195.044 242.209,195.044 242.209,225.573 259.002,225.573 "
   id="polygon1993" />
	</g>
	<g
   id="LWPOLYLINE_13_">
		<path
   style="fill:#ffffff"
   d="m 271.822,211.837 v 13.736 h -4.579 v -30.529 h 10.53 c 4.301,0 7.786,3.484 7.786,7.785 v 1.221 c 0,3.279 -2.055,6.203 -5.135,7.324 l 5.135,14.199 h -4.883 l -4.975,-13.736 z"
   id="path1996"
   inkscape:connector-curvature="0" />
	</g>
	<g
   id="LWPOLYLINE_12_">
		<polygon
   style="fill:#ffffff"
   points="309.977,199.622 297.772,199.622 297.772,207.257 306.012,207.257 306.012,211.837 297.772,211.837 297.772,225.573 293.193,225.573 293.193,195.044 309.977,195.044 "
   id="polygon1999" />
	</g>
	<g
   id="LWPOLYLINE_11_">
		<path
   style="fill:#ffffff"
   d="m 334.404,215.649 v -10.682 c 0,-5.479 -4.444,-9.923 -9.924,-9.923 -5.48,0 -9.924,4.445 -9.924,9.923 v 10.682 c 0,5.48 4.444,9.924 9.924,9.924 5.48,0 9.924,-4.443 9.924,-9.924 z"
   id="path2002"
   inkscape:connector-curvature="0" />
	</g>
	<g
   id="LWPOLYLINE_10_">
		<path
   style="fill:#ffffff"
   d="m 346.92,211.837 v 13.736 h -4.579 v -30.529 h 10.53 c 4.301,0 7.785,3.484 7.785,7.785 v 1.221 c 0,3.279 -2.054,6.203 -5.143,7.324 l 5.143,14.199 h -4.891 l -4.966,-13.736 z"
   id="path2005"
   inkscape:connector-curvature="0" />
	</g>
	<g
   id="LWPOLYLINE_9_">
		<path
   style="fill:#ffffff"
   d="m 380.387,203.288 c -0.102,-1.973 -1.676,-3.557 -3.653,-3.666 h -1.919 c -2.004,0.127 -3.519,1.854 -3.393,3.848 0.067,1.061 0.598,2.041 1.448,2.676 l 8.147,2.988 c 2.121,1.264 3.611,3.359 4.125,5.771 1.018,4.793 -2.037,9.51 -6.835,10.533 -0.067,0.008 -0.135,0.018 -0.202,0.029 -5.926,0.875 -11.439,-3.219 -12.323,-9.145 l 4.537,-0.674 c 0.505,3.426 3.695,5.795 7.121,5.285 2.323,-0.547 3.754,-2.861 3.207,-5.172 -0.244,-1.014 -0.842,-1.902 -1.684,-2.504 l -8.165,-2.996 c -2.356,-1.424 -3.838,-3.932 -3.956,-6.676 -0.193,-4.527 3.325,-8.349 7.854,-8.542 h 2.138 c 4.461,0.159 8.03,3.779 8.131,8.248 z"
   id="path2008"
   inkscape:connector-curvature="0" />
	</g>
	<g
   id="LWPOLYLINE_90_">
		<polygon
   style="fill:#005eb8"
   points="155.209,159.94 158.568,173.067 151.851,173.067 "
   id="polygon2011" />
	</g>
	<g
   id="LWPOLYLINE_89_">
		<path
   style="fill:#005eb8"
   d="m 211.993,164.519 h 5.95 c 1.768,0 3.207,-1.435 3.207,-3.207 v -1.221 c 0,-1.771 -1.439,-3.203 -3.207,-3.203 h -5.95 z"
   id="path2014"
   inkscape:connector-curvature="0" />
	</g>
	<g
   id="LWPOLYLINE_88_">
		<path
   style="fill:#005eb8"
   d="m 261.747,164.519 h 5.951 c 1.775,0 3.207,-1.435 3.207,-3.207 v -1.221 c 0,-1.771 -1.432,-3.203 -3.207,-3.203 h -5.951 z"
   id="path2017"
   inkscape:connector-curvature="0" />
	</g>
	<g
   id="LWPOLYLINE_87_">
		<polygon
   style="fill:#005eb8"
   points="155.209,202.679 158.568,215.802 151.851,215.802 "
   id="polygon2020" />
	</g>
	<g
   id="LWPOLYLINE_86_">
		<path
   style="fill:#005eb8"
   d="m 271.822,207.257 h 5.951 c 1.768,0 3.207,-1.439 3.207,-3.207 v -1.221 c 0,-1.771 -1.439,-3.207 -3.207,-3.207 h -5.951 z"
   id="path2023"
   inkscape:connector-curvature="0" />
	</g>
	<g
   id="LWPOLYLINE_85_">
		<path
   style="fill:#005eb8"
   d="m 329.825,215.649 v -10.682 c 0,-2.955 -2.398,-5.346 -5.345,-5.346 -2.954,0 -5.345,2.391 -5.345,5.346 v 10.682 c 0,2.955 2.391,5.346 5.345,5.346 2.946,0 5.345,-2.391 5.345,-5.346 z"
   id="path2026"
   inkscape:connector-curvature="0" />
	</g>
	<g
   id="LWPOLYLINE_84_">
		<path
   style="fill:#005eb8"
   d="m 346.92,207.257 h 5.951 c 1.768,0 3.206,-1.439 3.206,-3.207 v -1.221 c 0,-1.771 -1.438,-3.207 -3.206,-3.207 h -5.951 z"
   id="path2029"
   inkscape:connector-curvature="0" />
	</g>
	<g
   id="LWPOLYLINE_83_">
		<polygon
   style="fill:#ffffff"
   points="240.072,278.993 243.43,292.12 236.713,292.12 "
   id="polygon2032" />
	</g>
	<g
   id="LWPOLYLINE_82_">
		<polygon
   style="fill:#ffffff"
   points="290.744,278.993 294.102,292.12 287.385,292.12 "
   id="polygon2035" />
	</g>
	<g
   id="LWPOLYLINE_81_">
		<polygon
   style="fill:#ffffff"
   points="263.631,321.731 266.991,334.858 260.273,334.858 "
   id="polygon2038" />
	</g>
	<g
   id="LWPOLYLINE_80_">
		<path
   style="fill:#ffffff"
   d="m 140.858,114.146 c 0,4.638 3.763,8.4 8.4,8.4 4.63,0 8.393,-3.762 8.393,-8.4 v -1.826 c 0,-2.479 -1.095,-4.832 -2.988,-6.427 1.431,-1.528 2.223,-3.54 2.223,-5.635 v -0.61 c 0,-4.213 -3.418,-7.63 -7.627,-7.63 -4.217,0 -7.634,3.417 -7.634,7.63 v 0.61 h 4.579 v -0.61 c 0,-1.688 1.363,-3.051 3.055,-3.051 1.684,0 3.047,1.364 3.047,3.051 v 0.61 c 0,2.024 -1.641,3.662 -3.661,3.662 h -0.605 v 4.276 h 1.22 c 2.104,0 3.813,1.708 3.813,3.817 v 2.134 c 0,2.113 -1.709,3.822 -3.813,3.822 -2.112,0 -3.821,-1.709 -3.821,-3.822 h -4.581 z"
   id="path2041"
   inkscape:connector-curvature="0" />
	</g>
	<g
   id="LWPOLYLINE_79_">
		<path
   style="fill:#ffffff"
   d="m 267.545,133.994 c 3.376,0 6.103,-2.736 6.103,-6.111 v -5.337 h -3.047 v 5.337 c 0,1.688 -1.372,3.055 -3.056,3.055 z"
   id="path2044"
   inkscape:connector-curvature="0" />
	</g>
	<g
   id="LWPOLYLINE_78_">
		<rect
   x="270.60101"
   y="110.333"
   style="fill:#ffffff"
   width="3.0469999"
   height="6.1020002"
   id="rect2047" />
	</g>
	<g
   id="LWPOLYLINE_77_">
		<rect
   x="270.60101"
   y="98.120003"
   style="fill:#ffffff"
   width="3.0469999"
   height="6.1069999"
   id="rect2050" />
	</g>
	<g
   id="LWPOLYLINE_76_">
		<path
   style="fill:#ffffff"
   d="m 273.648,92.018 v -5.345 c 0,-3.367 -2.727,-6.103 -6.103,-6.103 v 3.051 c 1.684,0 3.056,1.368 3.056,3.051 v 5.345 h 3.047 z"
   id="path2053"
   inkscape:connector-curvature="0" />
	</g>
	<g
   id="LWPOLYLINE_75_">
		<rect
   x="255.33299"
   y="80.57"
   style="fill:#ffffff"
   width="6.1110001"
   height="3.0510001"
   id="rect2056" />
	</g>
	<g
   id="LWPOLYLINE_74_">
		<rect
   x="243.127"
   y="80.57"
   style="fill:#ffffff"
   width="6.1030002"
   height="3.0510001"
   id="rect2059" />
	</g>
	<g
   id="LWPOLYLINE_73_">
		<rect
   x="230.91499"
   y="80.57"
   style="fill:#ffffff"
   width="6.1020002"
   height="3.0510001"
   id="rect2062" />
	</g>
	<g
   id="LWPOLYLINE_72_">
		<rect
   x="218.701"
   y="80.57"
   style="fill:#ffffff"
   width="6.1100001"
   height="3.0510001"
   id="rect2065" />
	</g>
	<g
   id="LWPOLYLINE_71_">
		<rect
   x="206.496"
   y="80.57"
   style="fill:#ffffff"
   width="6.1030002"
   height="3.0510001"
   id="rect2068" />
	</g>
	<g
   id="LWPOLYLINE_70_">
		<rect
   x="194.283"
   y="80.57"
   style="fill:#ffffff"
   width="6.1030002"
   height="3.0510001"
   id="rect2071" />
	</g>
	<g
   id="LWPOLYLINE_69_">
		<path
   style="fill:#ffffff"
   d="m 188.18,80.57 c -3.375,0 -6.111,2.736 -6.111,6.103 v 5.345 h 3.056 v -5.345 c 0,-1.684 1.363,-3.051 3.056,-3.051 V 80.57 Z"
   id="path2074"
   inkscape:connector-curvature="0" />
	</g>
	<g
   id="LWPOLYLINE_68_">
		<rect
   x="182.069"
   y="98.120003"
   style="fill:#ffffff"
   width="3.056"
   height="6.1069999"
   id="rect2077" />
	</g>
	<g
   id="LWPOLYLINE_67_">
		<rect
   x="182.069"
   y="110.333"
   style="fill:#ffffff"
   width="3.056"
   height="6.1020002"
   id="rect2080" />
	</g>
	<g
   id="LWPOLYLINE_66_">
		<path
   style="fill:#ffffff"
   d="m 182.069,122.546 v 5.337 c 0,3.375 2.736,6.111 6.111,6.111 v -3.056 c -1.692,0 -3.056,-1.368 -3.056,-3.055 v -5.337 z"
   id="path2083"
   inkscape:connector-curvature="0" />
	</g>
	<g
   id="LWPOLYLINE_65_">
		<rect
   x="255.33299"
   y="130.938"
   style="fill:#ffffff"
   width="6.1110001"
   height="3.056"
   id="rect2086" />
	</g>
	<g
   id="LWPOLYLINE_64_">
		<rect
   x="243.127"
   y="130.938"
   style="fill:#ffffff"
   width="6.1030002"
   height="3.056"
   id="rect2089" />
	</g>
	<g
   id="LWPOLYLINE_63_">
		<rect
   x="230.91499"
   y="130.938"
   style="fill:#ffffff"
   width="6.1020002"
   height="3.056"
   id="rect2092" />
	</g>
	<g
   id="LWPOLYLINE_62_">
		<rect
   x="218.701"
   y="130.938"
   style="fill:#ffffff"
   width="6.1100001"
   height="3.056"
   id="rect2095" />
	</g>
	<g
   id="LWPOLYLINE_61_">
		<rect
   x="206.496"
   y="130.938"
   style="fill:#ffffff"
   width="6.1030002"
   height="3.056"
   id="rect2098" />
	</g>
	<g
   id="LWPOLYLINE_60_">
		<rect
   x="194.283"
   y="130.938"
   style="fill:#ffffff"
   width="6.1030002"
   height="3.056"
   id="rect2101" />
	</g>
	<g
   id="LWPOLYLINE_59_">
		<polygon
   style="fill:#ffffff"
   points="213.819,117.968 201.606,117.968 201.606,108.806 209.854,108.806 209.854,104.227 201.606,104.227 201.606,96.596 213.819,96.596 213.819,92.018 197.026,92.018 197.026,122.546 213.819,122.546 "
   id="polygon2104" />
	</g>
	<g
   id="LWPOLYLINE_58_">
		<path
   style="fill:#ffffff"
   d="m 225.266,96.504 c 1.801,-0.935 3.165,-2.55 3.771,-4.486 h 4.621 v 30.529 h -4.58 V 99.038 l -3.35,0.61 z"
   id="path2107"
   inkscape:connector-curvature="0" />
	</g>
	<g
   id="LWPOLYLINE_57_">
		<path
   style="fill:#ffffff"
   d="m 241.907,101.937 h 4.579 v -1.528 c 0,-0.492 0.093,-0.98 0.278,-1.439 0.799,-1.953 3.021,-2.887 4.975,-2.092 1.952,0.795 2.887,3.026 2.096,4.975 l -11.928,16.115 v 4.579 h 16.784 v -4.579 h -11.599 l 11.102,-14.705 c 1.574,-4.36 -0.682,-9.175 -5.041,-10.749 -4.36,-1.574 -9.176,0.686 -10.749,5.046 -0.43,1.183 -0.581,2.445 -0.455,3.695 z"
   id="path2110"
   inkscape:connector-curvature="0" />
	</g>
	<g
   id="LWPOLYLINE_56_">
		<rect
   x="140.101"
   y="130.938"
   style="fill:#ffffff"
   width="6.1030002"
   height="3.056"
   id="rect2113" />
	</g>
	<g
   id="LWPOLYLINE_55_">
		<rect
   x="140.101"
   y="80.57"
   style="fill:#ffffff"
   width="6.1030002"
   height="3.0510001"
   id="rect2116" />
	</g>
	<g
   id="LWPOLYLINE_54_">
		<rect
   x="152.30499"
   y="130.938"
   style="fill:#ffffff"
   width="6.1110001"
   height="3.056"
   id="rect2119" />
	</g>
	<g
   id="LWPOLYLINE_53_">
		<rect
   x="152.30499"
   y="80.57"
   style="fill:#ffffff"
   width="6.1110001"
   height="3.0510001"
   id="rect2122" />
	</g>
	<g
   id="LWPOLYLINE_52_">
		<path
   style="fill:#ffffff"
   d="m 175.966,122.546 v 5.337 c 0,3.375 -2.735,6.111 -6.103,6.111 h -5.345 v -3.056 h 5.345 c 1.684,0 3.047,-1.368 3.047,-3.055 v -5.337 z"
   id="path2125"
   inkscape:connector-curvature="0" />
	</g>
	<g
   id="LWPOLYLINE_51_">
		<path
   style="fill:#ffffff"
   d="m 172.911,92.018 v -5.345 c 0,-1.684 -1.363,-3.051 -3.047,-3.051 h -5.345 V 80.57 h 5.345 c 3.367,0 6.103,2.736 6.103,6.103 v 5.345 z"
   id="path2128"
   inkscape:connector-curvature="0" />
	</g>
	<g
   id="LWPOLYLINE_50_">
		<path
   style="fill:#ffffff"
   d="m 133.99,80.57 h -5.336 c -3.376,0 -6.111,2.736 -6.111,6.103 v 5.345 h 3.056 v -5.345 c 0,-1.684 1.363,-3.051 3.056,-3.051 h 5.336 V 80.57 Z"
   id="path2131"
   inkscape:connector-curvature="0" />
	</g>
	<g
   id="LWPOLYLINE_49_">
		<rect
   x="122.542"
   y="98.120003"
   style="fill:#ffffff"
   width="3.056"
   height="6.1069999"
   id="rect2134" />
	</g>
	<g
   id="LWPOLYLINE_48_">
		<rect
   x="172.911"
   y="98.120003"
   style="fill:#ffffff"
   width="3.056"
   height="6.1069999"
   id="rect2137" />
	</g>
	<g
   id="LWPOLYLINE_47_">
		<rect
   x="122.542"
   y="110.333"
   style="fill:#ffffff"
   width="3.056"
   height="6.1020002"
   id="rect2140" />
	</g>
	<g
   id="LWPOLYLINE_46_">
		<rect
   x="172.911"
   y="110.333"
   style="fill:#ffffff"
   width="3.056"
   height="6.1020002"
   id="rect2143" />
	</g>
	<g
   id="LWPOLYLINE_45_">
		<path
   style="fill:#ffffff"
   d="m 133.99,133.994 h -5.336 c -3.376,0 -6.111,-2.736 -6.111,-6.111 v -5.337 h 3.056 v 5.337 c 0,1.688 1.363,3.055 3.056,3.055 h 5.336 v 3.056 z"
   id="path2146"
   inkscape:connector-curvature="0" />
	</g>
	<g
   id="LWPOLYLINE_36_">
		<path
   style="fill:#101820"
   d="m 137.138,322.341 c -0.093,-1.973 -1.667,-3.555 -3.645,-3.664 h -1.928 c -1.995,0.125 -3.51,1.852 -3.384,3.846 0.067,1.064 0.598,2.045 1.447,2.678 l 8.148,2.986 c 2.112,1.264 3.611,3.359 4.124,5.775 1.019,4.793 -2.036,9.512 -6.835,10.529 -0.066,0.01 -0.135,0.021 -0.201,0.029 -5.926,0.881 -11.448,-3.219 -12.323,-9.145 l 4.528,-0.674 c 0.514,3.43 3.704,5.799 7.13,5.291 2.314,-0.547 3.745,-2.867 3.198,-5.174 -0.236,-1.014 -0.833,-1.902 -1.675,-2.508 l -8.165,-2.996 c -2.356,-1.418 -3.838,-3.926 -3.956,-6.676 -0.193,-4.527 3.325,-8.35 7.854,-8.543 h 2.138 c 4.461,0.164 8.03,3.779 8.131,8.25 z"
   id="path2149"
   inkscape:connector-curvature="0" />
	</g>
	<g
   id="LWPOLYLINE_35_">
		<polygon
   style="fill:#101820"
   points="165.335,318.677 157.709,318.677 157.709,344.626 153.13,344.626 153.13,318.677 145.497,318.677 145.497,314.097 165.335,314.097 "
   id="polygon2152" />
	</g>
	<g
   id="LWPOLYLINE_34_">
		<polygon
   style="fill:#101820"
   points="187.927,340.048 175.714,340.048 175.714,330.89 183.963,330.89 183.963,326.31 175.714,326.31 175.714,318.677 187.927,318.677 187.927,314.097 171.135,314.097 171.135,344.626 187.927,344.626 "
   id="polygon2155" />
	</g>
	<g
   id="LWPOLYLINE_33_">
		<polygon
   style="fill:#101820"
   points="200.747,314.097 211.437,334.702 211.437,314.097 216.016,314.097 216.016,344.626 211.437,344.626 200.747,324.021 200.747,344.626 196.167,344.626 196.167,314.097 "
   id="polygon2158" />
	</g>
	<g
   id="LWPOLYLINE_32_">
		<polygon
   style="fill:#101820"
   points="230.973,330.89 230.973,344.626 226.394,344.626 226.394,314.097 230.973,314.097 230.973,326.31 241.655,326.31 241.655,314.097 246.233,314.097 246.233,344.626 241.655,344.626 241.655,330.89 "
   id="polygon2161" />
	</g>
	<g
   id="LWPOLYLINE_30_">
		<path
   style="fill:#101820"
   d="m 295.381,344.626 h 3.056 v -16.793 h -9.924 v 4.58 h 5.345 v 2.139 0.15 c 0,2.955 -2.391,5.346 -5.345,5.346 -2.946,0 -5.345,-2.391 -5.345,-5.346 V 324.02 c 0,-2.949 2.398,-5.344 5.345,-5.344 2.954,0 5.345,2.395 5.345,5.344 h 4.579 c 0,-5.479 -4.444,-9.924 -9.924,-9.924 -5.48,0 -9.924,4.445 -9.924,9.924 v 10.682 c 0.009,5.471 4.444,9.898 9.907,9.891 2.028,0 4.006,-0.623 5.673,-1.789 z"
   id="path2164"
   inkscape:connector-curvature="0" />
	</g>
	<g
   id="LWPOLYLINE_29_">
		<polygon
   style="fill:#101820"
   points="324.387,340.048 312.174,340.048 312.174,330.89 320.415,330.89 320.415,326.31 312.174,326.31 312.174,318.677 324.387,318.677 324.387,314.097 307.595,314.097 307.595,344.626 324.387,344.626 "
   id="polygon2167" />
	</g>
	<g
   id="LWPOLYLINE_28_">
		<polygon
   style="fill:#101820"
   points="337.207,314.097 347.888,334.702 347.888,314.097 352.467,314.097 352.467,344.626 347.888,344.626 337.207,324.021 337.207,344.626 332.627,344.626 332.627,314.097 "
   id="polygon2170" />
	</g>
	<g
   id="LWPOLYLINE_8_">
		<polygon
   style="fill:#ffffff"
   points="82.864,152.731 82.864,140.862 64.54,122.546 46.223,140.862 46.223,152.731 59.96,138.994 59.96,183.596 69.126,183.596 69.126,138.994 "
   id="polygon2173" />
	</g>
</g>
</svg>