<?xml version="1.0" encoding="iso-8859-1"?>
<!-- Generator: Adobe Illustrator 16.0.0, SVG Export Plug-In . SVG Version: 6.00 Build 0)  -->
<!DOCTYPE svg PUBLIC "-//W3C//DTD SVG 1.1//EN" "http://www.w3.org/Graphics/SVG/1.1/DTD/svg11.dtd">
<svg version="1.1" id="Layer_1" xmlns="http://www.w3.org/2000/svg" xmlns:xlink="http://www.w3.org/1999/xlink" x="0px" y="0px"
	 width="425.197px" height="425.196px" viewBox="0 0 425.197 425.196" style="enable-background:new 0 0 425.197 425.196;"
	 xml:space="preserve">
<g>
	<g id="LWPOLYLINE_390_">
		
			<rect x="14.17" y="248.468" style="fill:#FFFFFF;stroke:#101820;stroke-width:0.5;stroke-miterlimit:10;" width="396.855" height="119.053"/>
	</g>
	<g id="LWPOLYLINE_4_">
		<path style="fill:#101820;" d="M23.329,367.521h378.539c5.059,0,9.158-4.098,9.158-9.158V257.626c0-5.059-4.1-9.158-9.158-9.158
			H23.329c-5.05,0-9.158,4.1-9.158,9.158v100.736C14.17,363.423,18.279,367.521,23.329,367.521z"/>
	</g>
	<g id="LWPOLYLINE_5_">
		<path style="fill:#FFFFFF;" d="M23.329,362.942h378.539c2.525,0,4.579-2.051,4.579-4.58V257.626c0-2.529-2.054-4.578-4.579-4.578
			H23.329c-2.525,0-4.579,2.049-4.579,4.578v100.736C18.75,360.892,20.803,362.942,23.329,362.942z"/>
	</g>
	<g id="LWPOLYLINE_31_">
		<polygon style="fill:#101820;" points="257.833,344.626 252.951,344.626 261.04,314.097 266.233,314.097 274.322,344.626 
			269.431,344.626 268.059,339.437 259.205,339.437 		"/>
	</g>
	<g id="LWPOLYLINE_44_">
		<polygon style="fill:#101820;" points="127.122,294.257 127.122,301.888 122.542,301.888 122.542,271.362 127.122,271.362 
			127.122,286.017 136.894,271.362 142.39,271.362 133.687,284.333 142.39,301.888 137.197,301.888 130.783,288.761 		"/>
	</g>
	<g id="LWPOLYLINE_43_">
		<rect x="148.493" y="271.362" style="fill:#101820;" width="4.579" height="30.525"/>
	</g>
	<g id="LWPOLYLINE_42_">
		<polygon style="fill:#101820;" points="159.789,271.362 164.67,271.362 170.47,292.729 176.27,271.362 181.16,271.362 
			172.759,301.888 168.18,301.888 		"/>
	</g>
	<g id="LWPOLYLINE_41_">
		<rect x="187.869" y="271.362" style="fill:#101820;" width="4.579" height="30.525"/>
	</g>
	<g id="LWPOLYLINE_40_">
		<polygon style="fill:#101820;" points="218.094,301.888 218.094,288.151 207.414,288.151 207.414,301.888 202.834,301.888 
			202.834,271.362 207.414,271.362 207.414,283.571 218.094,283.571 218.094,271.362 222.673,271.362 222.673,301.888 		"/>
	</g>
	<g id="LWPOLYLINE_39_">
		<polygon style="fill:#101820;" points="234.272,301.888 229.391,301.888 237.479,271.362 242.665,271.362 250.753,301.888 
			245.872,301.888 244.5,296.698 235.645,296.698 		"/>
	</g>
	<g id="LWPOLYLINE_38_">
		<polygon style="fill:#101820;" points="262.049,294.257 262.049,301.888 257.47,301.888 257.47,271.362 262.049,271.362 
			262.049,286.017 271.822,271.362 277.318,271.362 268.615,284.333 277.318,301.888 272.125,301.888 265.719,288.761 		"/>
	</g>
	<g id="LWPOLYLINE_37_">
		<polygon style="fill:#101820;" points="284.944,301.888 280.062,301.888 288.151,271.362 293.344,271.362 301.433,301.888 
			296.551,301.888 295.171,296.698 286.325,296.698 		"/>
	</g>
	<g id="LWPOLYLINE_27_">
		<path style="fill:#101820;" d="M92.022,338.521h-9.158v-35.871c0-1.262-1.027-2.289-2.289-2.289H53.521l13.737,13.736H55.381
			L37.066,295.78l18.315-18.314h11.877l-13.737,13.736h33.922c2.525,0,4.579,2.055,4.579,4.578V338.521z"/>
	</g>
	<g id="LWPOLYLINE_387_">
		
			<rect x="14.17" y="57.675" style="fill:#005EB8;stroke:#005EB8;stroke-width:0.5;stroke-miterlimit:10;" width="396.855" height="190.792"/>
	</g>
	<g id="LWPOLYLINE_3_">
		<path style="fill:#FFFFFF;" d="M23.329,248.468h378.539c5.059,0,9.158-4.1,9.158-9.158V66.833c0-5.059-4.1-9.158-9.158-9.158
			H23.329c-5.05,0-9.158,4.099-9.158,9.158V239.31C14.17,244.368,18.279,248.468,23.329,248.468z"/>
	</g>
	<g id="LWPOLYLINE_6_">
		<path style="fill:#005EB8;" d="M23.329,243.89h378.539c2.525,0,4.579-2.055,4.579-4.58V66.833c0-2.529-2.054-4.579-4.579-4.579
			H23.329c-2.525,0-4.579,2.049-4.579,4.579V239.31C18.75,241.835,20.803,243.89,23.329,243.89z"/>
	</g>
	<g id="LWPOLYLINE_26_">
		<path style="fill:#E4002B;" d="M128.654,133.994h41.21c3.367,0,6.103-2.736,6.103-6.111V86.672c0-3.367-2.735-6.103-6.103-6.103
			h-41.21c-3.376,0-6.111,2.736-6.111,6.103v41.211C122.542,131.258,125.278,133.994,128.654,133.994z"/>
	</g>
	<g id="LWPOLYLINE_7_">
		<path style="fill:#009775;" d="M188.18,133.994h79.365c3.376,0,6.103-2.736,6.103-6.111V86.672c0-3.367-2.727-6.103-6.103-6.103
			H188.18c-3.375,0-6.111,2.736-6.111,6.103v41.211C182.069,131.258,184.805,133.994,188.18,133.994z"/>
	</g>
	<g id="LWPOLYLINE_25_">
		<polygon style="fill:#FFFFFF;" points="122.542,152.31 142.39,152.31 142.39,156.889 134.756,156.889 134.756,182.834 
			130.177,182.834 130.177,156.889 122.542,156.889 		"/>
	</g>
	<g id="LWPOLYLINE_24_">
		<polygon style="fill:#FFFFFF;" points="149.411,182.834 144.52,182.834 152.618,152.31 157.802,152.31 165.891,182.834 
			161.009,182.834 159.637,177.646 150.782,177.646 		"/>
	</g>
	<g id="LWPOLYLINE_23_">
		<polygon style="fill:#FFFFFF;" points="184.822,182.834 192.448,162.991 192.448,182.834 197.026,182.834 197.026,152.31 
			191.841,152.31 184.822,169.708 177.801,152.31 172.608,152.31 172.608,182.834 177.187,182.834 177.187,162.991 		"/>
	</g>
	<g id="LWPOLYLINE_22_">
		<path style="fill:#FFFFFF;" d="M211.993,169.098h5.95c4.293,0,7.786-3.489,7.786-7.786v-1.221c0-4.297-3.493-7.781-7.786-7.781
			h-10.529v30.524h4.579V169.098z"/>
	</g>
	<g id="LWPOLYLINE_21_">
		<polygon style="fill:#FFFFFF;" points="232.134,182.834 248.927,182.834 248.927,178.256 236.713,178.256 236.713,169.098 
			244.954,169.098 244.954,164.519 236.713,164.519 236.713,156.889 248.927,156.889 248.927,152.31 232.134,152.31 		"/>
	</g>
	<g id="LWPOLYLINE_20_">
		<path style="fill:#FFFFFF;" d="M261.747,169.098v13.736h-4.579V152.31h10.53c4.301,0,7.785,3.484,7.785,7.781v1.221
			c0,3.278-2.054,6.208-5.135,7.319l5.135,14.204h-4.882l-4.975-13.736H261.747z"/>
	</g>
	<g id="LWPOLYLINE_19_">
		<polygon style="fill:#FFFFFF;" points="283.118,182.834 299.902,182.834 299.902,178.256 287.697,178.256 287.697,169.098 
			295.937,169.098 295.937,164.519 287.697,164.519 287.697,156.889 299.902,156.889 299.902,152.31 283.118,152.31 		"/>
	</g>
	<g id="LWPOLYLINE_18_">
		<polygon style="fill:#FFFFFF;" points="122.542,195.044 142.39,195.044 142.39,199.622 134.756,199.622 134.756,225.573 
			130.177,225.573 130.177,199.622 122.542,199.622 		"/>
	</g>
	<g id="LWPOLYLINE_17_">
		<polygon style="fill:#FFFFFF;" points="149.411,225.573 144.52,225.573 152.618,195.044 157.802,195.044 165.891,225.573 
			161.009,225.573 159.637,220.38 150.782,220.38 		"/>
	</g>
	<g id="LWPOLYLINE_16_">
		<polygon style="fill:#FFFFFF;" points="184.822,225.573 192.448,205.729 192.448,225.573 197.026,225.573 197.026,195.044 
			191.841,195.044 184.822,212.442 177.801,195.044 172.608,195.044 172.608,225.573 177.187,225.573 177.187,205.729 		"/>
	</g>
	<g id="LWPOLYLINE_15_">
		<polygon style="fill:#FFFFFF;" points="219.618,225.573 227.252,205.729 227.252,225.573 231.832,225.573 231.832,195.044 
			226.638,195.044 219.618,212.442 212.598,195.044 207.414,195.044 207.414,225.573 211.993,225.573 211.993,205.729 		"/>
	</g>
	<g id="LWPOLYLINE_14_">
		<polygon style="fill:#FFFFFF;" points="242.209,225.573 259.002,225.573 259.002,220.995 246.789,220.995 246.789,211.837 
			255.03,211.837 255.03,207.257 246.789,207.257 246.789,199.622 259.002,199.622 259.002,195.044 242.209,195.044 		"/>
	</g>
	<g id="LWPOLYLINE_13_">
		<path style="fill:#FFFFFF;" d="M271.822,211.837v13.736h-4.579v-30.529h10.53c4.301,0,7.786,3.484,7.786,7.785v1.221
			c0,3.279-2.055,6.203-5.135,7.324l5.135,14.199h-4.883l-4.975-13.736H271.822z"/>
	</g>
	<g id="LWPOLYLINE_12_">
		<polygon style="fill:#FFFFFF;" points="293.193,195.044 309.977,195.044 309.977,199.622 297.772,199.622 297.772,207.257 
			306.012,207.257 306.012,211.837 297.772,211.837 297.772,225.573 293.193,225.573 		"/>
	</g>
	<g id="LWPOLYLINE_11_">
		<path style="fill:#FFFFFF;" d="M334.404,215.649v-10.682c0-5.479-4.444-9.923-9.924-9.923s-9.924,4.445-9.924,9.923v10.682
			c0,5.48,4.444,9.924,9.924,9.924S334.404,221.13,334.404,215.649z"/>
	</g>
	<g id="LWPOLYLINE_10_">
		<path style="fill:#FFFFFF;" d="M346.92,211.837v13.736h-4.579v-30.529h10.53c4.301,0,7.785,3.484,7.785,7.785v1.221
			c0,3.279-2.054,6.203-5.143,7.324l5.143,14.199h-4.891l-4.966-13.736H346.92z"/>
	</g>
	<g id="LWPOLYLINE_9_">
		<path style="fill:#FFFFFF;" d="M380.387,203.288c-0.102-1.973-1.676-3.557-3.653-3.666h-1.919
			c-2.004,0.127-3.519,1.854-3.393,3.848c0.067,1.061,0.598,2.041,1.448,2.676l8.147,2.988c2.121,1.264,3.611,3.359,4.125,5.771
			c1.018,4.793-2.037,9.51-6.835,10.533c-0.067,0.008-0.135,0.018-0.202,0.029c-5.926,0.875-11.439-3.219-12.323-9.145l4.537-0.674
			c0.505,3.426,3.695,5.795,7.121,5.285c2.323-0.547,3.754-2.861,3.207-5.172c-0.244-1.014-0.842-1.902-1.684-2.504l-8.165-2.996
			c-2.356-1.424-3.838-3.932-3.956-6.676c-0.193-4.527,3.325-8.349,7.854-8.542h2.138c4.461,0.159,8.03,3.779,8.131,8.248
			L380.387,203.288z"/>
	</g>
	<g id="LWPOLYLINE_90_">
		<polygon style="fill:#005EB8;" points="158.568,173.067 151.851,173.067 155.209,159.94 		"/>
	</g>
	<g id="LWPOLYLINE_89_">
		<path style="fill:#005EB8;" d="M211.993,164.519h5.95c1.768,0,3.207-1.435,3.207-3.207v-1.221c0-1.771-1.439-3.203-3.207-3.203
			h-5.95V164.519z"/>
	</g>
	<g id="LWPOLYLINE_88_">
		<path style="fill:#005EB8;" d="M261.747,164.519h5.951c1.775,0,3.207-1.435,3.207-3.207v-1.221c0-1.771-1.432-3.203-3.207-3.203
			h-5.951V164.519z"/>
	</g>
	<g id="LWPOLYLINE_87_">
		<polygon style="fill:#005EB8;" points="158.568,215.802 151.851,215.802 155.209,202.679 		"/>
	</g>
	<g id="LWPOLYLINE_86_">
		<path style="fill:#005EB8;" d="M271.822,207.257h5.951c1.768,0,3.207-1.439,3.207-3.207v-1.221c0-1.771-1.439-3.207-3.207-3.207
			h-5.951V207.257z"/>
	</g>
	<g id="LWPOLYLINE_85_">
		<path style="fill:#005EB8;" d="M329.825,215.649v-10.682c0-2.955-2.398-5.346-5.345-5.346c-2.954,0-5.345,2.391-5.345,5.346
			v10.682c0,2.955,2.391,5.346,5.345,5.346C327.426,220.995,329.825,218.604,329.825,215.649z"/>
	</g>
	<g id="LWPOLYLINE_84_">
		<path style="fill:#005EB8;" d="M346.92,207.257h5.951c1.768,0,3.206-1.439,3.206-3.207v-1.221c0-1.771-1.438-3.207-3.206-3.207
			h-5.951V207.257z"/>
	</g>
	<g id="LWPOLYLINE_83_">
		<polygon style="fill:#FFFFFF;" points="243.43,292.12 236.713,292.12 240.072,278.993 		"/>
	</g>
	<g id="LWPOLYLINE_82_">
		<polygon style="fill:#FFFFFF;" points="294.102,292.12 287.385,292.12 290.744,278.993 		"/>
	</g>
	<g id="LWPOLYLINE_81_">
		<polygon style="fill:#FFFFFF;" points="266.991,334.858 260.273,334.858 263.631,321.731 		"/>
	</g>
	<g id="LWPOLYLINE_80_">
		<path style="fill:#FFFFFF;" d="M140.858,114.146c0,4.638,3.763,8.4,8.4,8.4c4.63,0,8.393-3.762,8.393-8.4v-1.826
			c0-2.479-1.095-4.832-2.988-6.427c1.431-1.528,2.223-3.54,2.223-5.635v-0.61c0-4.213-3.418-7.63-7.627-7.63
			c-4.217,0-7.634,3.417-7.634,7.63v0.61h4.579v-0.61c0-1.688,1.363-3.051,3.055-3.051c1.684,0,3.047,1.364,3.047,3.051v0.61
			c0,2.024-1.641,3.662-3.661,3.662h-0.605v4.276h1.22c2.104,0,3.813,1.708,3.813,3.817v2.134c0,2.113-1.709,3.822-3.813,3.822
			c-2.112,0-3.821-1.709-3.821-3.822H140.858z"/>
	</g>
	<g id="LWPOLYLINE_79_">
		<path style="fill:#FFFFFF;" d="M267.545,133.994c3.376,0,6.103-2.736,6.103-6.111v-5.337h-3.047v5.337
			c0,1.688-1.372,3.055-3.056,3.055V133.994z"/>
	</g>
	<g id="LWPOLYLINE_78_">
		<rect x="270.601" y="110.333" style="fill:#FFFFFF;" width="3.047" height="6.102"/>
	</g>
	<g id="LWPOLYLINE_77_">
		<rect x="270.601" y="98.12" style="fill:#FFFFFF;" width="3.047" height="6.107"/>
	</g>
	<g id="LWPOLYLINE_76_">
		<path style="fill:#FFFFFF;" d="M273.648,92.018v-5.345c0-3.367-2.727-6.103-6.103-6.103v3.051c1.684,0,3.056,1.368,3.056,3.051
			v5.345H273.648z"/>
	</g>
	<g id="LWPOLYLINE_75_">
		<rect x="255.333" y="80.57" style="fill:#FFFFFF;" width="6.111" height="3.051"/>
	</g>
	<g id="LWPOLYLINE_74_">
		<rect x="243.127" y="80.57" style="fill:#FFFFFF;" width="6.103" height="3.051"/>
	</g>
	<g id="LWPOLYLINE_73_">
		<rect x="230.915" y="80.57" style="fill:#FFFFFF;" width="6.102" height="3.051"/>
	</g>
	<g id="LWPOLYLINE_72_">
		<rect x="218.701" y="80.57" style="fill:#FFFFFF;" width="6.11" height="3.051"/>
	</g>
	<g id="LWPOLYLINE_71_">
		<rect x="206.496" y="80.57" style="fill:#FFFFFF;" width="6.103" height="3.051"/>
	</g>
	<g id="LWPOLYLINE_70_">
		<rect x="194.283" y="80.57" style="fill:#FFFFFF;" width="6.103" height="3.051"/>
	</g>
	<g id="LWPOLYLINE_69_">
		<path style="fill:#FFFFFF;" d="M188.18,80.57c-3.375,0-6.111,2.736-6.111,6.103v5.345h3.056v-5.345
			c0-1.684,1.363-3.051,3.056-3.051V80.57z"/>
	</g>
	<g id="LWPOLYLINE_68_">
		<rect x="182.069" y="98.12" style="fill:#FFFFFF;" width="3.056" height="6.107"/>
	</g>
	<g id="LWPOLYLINE_67_">
		<rect x="182.069" y="110.333" style="fill:#FFFFFF;" width="3.056" height="6.102"/>
	</g>
	<g id="LWPOLYLINE_66_">
		<path style="fill:#FFFFFF;" d="M182.069,122.546v5.337c0,3.375,2.736,6.111,6.111,6.111v-3.056c-1.692,0-3.056-1.368-3.056-3.055
			v-5.337H182.069z"/>
	</g>
	<g id="LWPOLYLINE_65_">
		<rect x="255.333" y="130.938" style="fill:#FFFFFF;" width="6.111" height="3.056"/>
	</g>
	<g id="LWPOLYLINE_64_">
		<rect x="243.127" y="130.938" style="fill:#FFFFFF;" width="6.103" height="3.056"/>
	</g>
	<g id="LWPOLYLINE_63_">
		<rect x="230.915" y="130.938" style="fill:#FFFFFF;" width="6.102" height="3.056"/>
	</g>
	<g id="LWPOLYLINE_62_">
		<rect x="218.701" y="130.938" style="fill:#FFFFFF;" width="6.11" height="3.056"/>
	</g>
	<g id="LWPOLYLINE_61_">
		<rect x="206.496" y="130.938" style="fill:#FFFFFF;" width="6.103" height="3.056"/>
	</g>
	<g id="LWPOLYLINE_60_">
		<rect x="194.283" y="130.938" style="fill:#FFFFFF;" width="6.103" height="3.056"/>
	</g>
	<g id="LWPOLYLINE_59_">
		<polygon style="fill:#FFFFFF;" points="197.026,122.546 213.819,122.546 213.819,117.968 201.606,117.968 201.606,108.806 
			209.854,108.806 209.854,104.227 201.606,104.227 201.606,96.596 213.819,96.596 213.819,92.018 197.026,92.018 		"/>
	</g>
	<g id="LWPOLYLINE_58_">
		<path style="fill:#FFFFFF;" d="M225.266,96.504c1.801-0.935,3.165-2.55,3.771-4.486h4.621v30.529h-4.58V99.038l-3.35,0.61
			L225.266,96.504z"/>
	</g>
	<g id="LWPOLYLINE_57_">
		<path style="fill:#FFFFFF;" d="M241.907,101.937h4.579v-1.528c0-0.492,0.093-0.98,0.278-1.439
			c0.799-1.953,3.021-2.887,4.975-2.092c1.952,0.795,2.887,3.026,2.096,4.975l-11.928,16.115v4.579h16.784v-4.579h-11.599
			l11.102-14.705c1.574-4.36-0.682-9.175-5.041-10.749c-4.36-1.574-9.176,0.686-10.749,5.046c-0.43,1.183-0.581,2.445-0.455,3.695
			L241.907,101.937z"/>
	</g>
	<g id="LWPOLYLINE_56_">
		<rect x="140.101" y="130.938" style="fill:#FFFFFF;" width="6.103" height="3.056"/>
	</g>
	<g id="LWPOLYLINE_55_">
		<rect x="140.101" y="80.57" style="fill:#FFFFFF;" width="6.103" height="3.051"/>
	</g>
	<g id="LWPOLYLINE_54_">
		<rect x="152.305" y="130.938" style="fill:#FFFFFF;" width="6.111" height="3.056"/>
	</g>
	<g id="LWPOLYLINE_53_">
		<rect x="152.305" y="80.57" style="fill:#FFFFFF;" width="6.111" height="3.051"/>
	</g>
	<g id="LWPOLYLINE_52_">
		<path style="fill:#FFFFFF;" d="M175.966,122.546v5.337c0,3.375-2.735,6.111-6.103,6.111h-5.345v-3.056h5.345
			c1.684,0,3.047-1.368,3.047-3.055v-5.337H175.966z"/>
	</g>
	<g id="LWPOLYLINE_51_">
		<path style="fill:#FFFFFF;" d="M172.911,92.018v-5.345c0-1.684-1.363-3.051-3.047-3.051h-5.345V80.57h5.345
			c3.367,0,6.103,2.736,6.103,6.103v5.345H172.911z"/>
	</g>
	<g id="LWPOLYLINE_50_">
		<path style="fill:#FFFFFF;" d="M133.99,80.57h-5.336c-3.376,0-6.111,2.736-6.111,6.103v5.345h3.056v-5.345
			c0-1.684,1.363-3.051,3.056-3.051h5.336V80.57z"/>
	</g>
	<g id="LWPOLYLINE_49_">
		<rect x="122.542" y="98.12" style="fill:#FFFFFF;" width="3.056" height="6.107"/>
	</g>
	<g id="LWPOLYLINE_48_">
		<rect x="172.911" y="98.12" style="fill:#FFFFFF;" width="3.056" height="6.107"/>
	</g>
	<g id="LWPOLYLINE_47_">
		<rect x="122.542" y="110.333" style="fill:#FFFFFF;" width="3.056" height="6.102"/>
	</g>
	<g id="LWPOLYLINE_46_">
		<rect x="172.911" y="110.333" style="fill:#FFFFFF;" width="3.056" height="6.102"/>
	</g>
	<g id="LWPOLYLINE_45_">
		<path style="fill:#FFFFFF;" d="M133.99,133.994h-5.336c-3.376,0-6.111-2.736-6.111-6.111v-5.337h3.056v5.337
			c0,1.688,1.363,3.055,3.056,3.055h5.336V133.994z"/>
	</g>
	<g id="LWPOLYLINE_36_">
		<path style="fill:#101820;" d="M137.138,322.341c-0.093-1.973-1.667-3.555-3.645-3.664h-1.928
			c-1.995,0.125-3.51,1.852-3.384,3.846c0.067,1.064,0.598,2.045,1.447,2.678l8.148,2.986c2.112,1.264,3.611,3.359,4.124,5.775
			c1.019,4.793-2.036,9.512-6.835,10.529c-0.066,0.01-0.135,0.021-0.201,0.029c-5.926,0.881-11.448-3.219-12.323-9.145l4.528-0.674
			c0.514,3.43,3.704,5.799,7.13,5.291c2.314-0.547,3.745-2.867,3.198-5.174c-0.236-1.014-0.833-1.902-1.675-2.508l-8.165-2.996
			c-2.356-1.418-3.838-3.926-3.956-6.676c-0.193-4.527,3.325-8.35,7.854-8.543h2.138c4.461,0.164,8.03,3.779,8.131,8.25
			L137.138,322.341z"/>
	</g>
	<g id="LWPOLYLINE_35_">
		<polygon style="fill:#101820;" points="145.497,314.097 165.335,314.097 165.335,318.677 157.709,318.677 157.709,344.626 
			153.13,344.626 153.13,318.677 145.497,318.677 		"/>
	</g>
	<g id="LWPOLYLINE_34_">
		<polygon style="fill:#101820;" points="171.135,344.626 187.927,344.626 187.927,340.048 175.714,340.048 175.714,330.89 
			183.963,330.89 183.963,326.31 175.714,326.31 175.714,318.677 187.927,318.677 187.927,314.097 171.135,314.097 		"/>
	</g>
	<g id="LWPOLYLINE_33_">
		<polygon style="fill:#101820;" points="196.167,344.626 196.167,314.097 200.747,314.097 211.437,334.702 211.437,314.097 
			216.016,314.097 216.016,344.626 211.437,344.626 200.747,324.021 200.747,344.626 		"/>
	</g>
	<g id="LWPOLYLINE_32_">
		<polygon style="fill:#101820;" points="241.655,344.626 241.655,330.89 230.973,330.89 230.973,344.626 226.394,344.626 
			226.394,314.097 230.973,314.097 230.973,326.31 241.655,326.31 241.655,314.097 246.233,314.097 246.233,344.626 		"/>
	</g>
	<g id="LWPOLYLINE_30_">
		<path style="fill:#101820;" d="M295.381,344.626h3.056v-16.793h-9.924v4.58h5.345v2.139v0.15c0,2.955-2.391,5.346-5.345,5.346
			c-2.946,0-5.345-2.391-5.345-5.346v-10.682c0-2.949,2.398-5.344,5.345-5.344c2.954,0,5.345,2.395,5.345,5.344h4.579
			c0-5.479-4.444-9.924-9.924-9.924s-9.924,4.445-9.924,9.924v10.682c0.009,5.471,4.444,9.898,9.907,9.891
			c2.028,0,4.006-0.623,5.673-1.789L295.381,344.626z"/>
	</g>
	<g id="LWPOLYLINE_29_">
		<polygon style="fill:#101820;" points="307.595,344.626 324.387,344.626 324.387,340.048 312.174,340.048 312.174,330.89 
			320.415,330.89 320.415,326.31 312.174,326.31 312.174,318.677 324.387,318.677 324.387,314.097 307.595,314.097 		"/>
	</g>
	<g id="LWPOLYLINE_28_">
		<polygon style="fill:#101820;" points="332.627,344.626 332.627,314.097 337.207,314.097 347.888,334.702 347.888,314.097 
			352.467,314.097 352.467,344.626 347.888,344.626 337.207,324.021 337.207,344.626 		"/>
	</g>
	<g id="LWPOLYLINE_8_">
		<polygon style="fill:#FFFFFF;" points="69.126,183.596 69.126,138.994 82.864,152.731 82.864,140.862 64.54,122.546 
			46.223,140.862 46.223,152.731 59.96,138.994 59.96,183.596 		"/>
	</g>
</g>
</svg>
