<?xml version="1.0" encoding="iso-8859-1"?>
<!-- Generator: Adobe Illustrator 16.0.0, SVG Export Plug-In . SVG Version: 6.00 Build 0)  -->
<!DOCTYPE svg PUBLIC "-//W3C//DTD SVG 1.1//EN" "http://www.w3.org/Graphics/SVG/1.1/DTD/svg11.dtd">
<svg version="1.1" id="Layer_1" xmlns="http://www.w3.org/2000/svg" xmlns:xlink="http://www.w3.org/1999/xlink" x="0px" y="0px"
	 width="425.197px" height="425.196px" viewBox="0 0 425.197 425.196" style="enable-background:new 0 0 425.197 425.196;"
	 xml:space="preserve">
<g id="LWPOLYLINE_1_">
	
		<rect x="14.175" y="270.863" style="fill:#005EB8;stroke:#005EB8;stroke-width:0.5;stroke-miterlimit:10;" width="396.846" height="86.618"/>
</g>
<g id="LWPOLYLINE_2_">
	<path style="fill:#FFFFFF;" d="M14.175,348.033v-1.581v-64.564v-1.576c0-5.22,4.229-9.448,9.448-9.448h14.174h56.691h31.499
		h275.585c5.219,0,9.448,4.229,9.448,9.448v67.722c0,5.215-4.229,9.448-9.448,9.448H23.624
		C18.405,357.481,14.175,353.248,14.175,348.033z"/>
</g>
<g id="LWPOLYLINE_6_">
	<path style="fill:#005EB8;" d="M18.899,348.033v-1.581v-64.564v-1.576c0-2.605,2.111-4.725,4.725-4.725h14.174h56.691h31.499
		h275.585c2.613,0,4.724,2.119,4.724,4.725v67.722c0,2.605-2.11,4.725-4.724,4.725H23.624
		C21.01,352.758,18.899,350.639,18.899,348.033z"/>
</g>
<g id="LWPOLYLINE_7_">
	<rect x="144.885" y="286.612" style="fill:#FFFFFF;" width="94.487" height="55.116"/>
</g>
<g id="LWPOLYLINE_12_">
	<path style="fill:#101820;" d="M152.753,340.156h78.742c3.482,0,6.296-2.822,6.296-6.296v-39.376c0-3.474-2.813-6.296-6.296-6.296
		h-78.742c-3.474,0-6.296,2.822-6.296,6.296v39.376C146.458,337.334,149.28,340.156,152.753,340.156z"/>
</g>
<g id="LWPOLYLINE_13_">
	<path style="fill:#FFFFFF;" d="M152.753,337.004h78.742c1.737,0,3.152-1.407,3.152-3.144v-39.376c0-1.736-1.415-3.148-3.152-3.148
		h-78.742c-1.737,0-3.144,1.412-3.144,3.148v39.376C149.61,335.597,151.016,337.004,152.753,337.004z"/>
</g>
<g id="LWPOLYLINE_18_">
	<polygon style="fill:#FFFFFF;" points="258.27,329.917 258.27,298.423 262.995,298.423 262.995,325.193 274.015,325.193 
		274.015,329.917 	"/>
</g>
<g id="LWPOLYLINE_17_">
	<polygon style="fill:#FFFFFF;" points="283.776,329.917 278.739,329.917 287.084,298.423 292.443,298.423 300.79,329.917 
		295.744,329.917 294.328,324.567 285.201,324.567 	"/>
</g>
<g id="LWPOLYLINE_16_">
	<polygon style="fill:#FFFFFF;" points="320.312,329.917 328.189,309.448 328.189,329.917 332.913,329.917 332.913,298.423 
		327.554,298.423 320.312,316.378 313.069,298.423 307.719,298.423 307.719,329.917 312.444,329.917 312.444,309.448 	"/>
</g>
<g id="LWPOLYLINE_15_">
	<polygon style="fill:#FFFFFF;" points="356.222,329.917 364.09,309.448 364.09,329.917 368.815,329.917 368.815,298.423 
		363.465,298.423 356.222,316.378 348.979,298.423 343.621,298.423 343.621,329.917 348.345,329.917 348.345,309.448 	"/>
</g>
<g id="LWPOLYLINE_14_">
	<rect x="379.532" y="298.423" style="fill:#FFFFFF;" width="4.724" height="31.494"/>
</g>
<g id="LWPOLYLINE_4_">
	
		<rect x="14.175" y="184.252" style="fill:#FFFFFF;stroke:#101820;stroke-width:0.5;stroke-miterlimit:10;" width="396.846" height="86.611"/>
</g>
<g id="LWPOLYLINE_9_">
	<path style="fill:#101820;" d="M14.175,261.414v-1.572v-64.568v-1.572c0-5.22,4.229-9.449,9.448-9.449h14.174h56.691h31.499
		h275.585c5.219,0,9.448,4.229,9.448,9.449v67.713c0,5.22-4.229,9.449-9.448,9.449H23.624
		C18.405,270.863,14.175,266.634,14.175,261.414z"/>
</g>
<g id="LWPOLYLINE_11_">
	<path style="fill:#FFFFFF;" d="M18.899,261.414v-1.572v-64.568v-1.572c0-2.614,2.111-4.725,4.725-4.725h14.174h56.691h31.499
		h275.585c2.613,0,4.724,2.11,4.724,4.725v67.713c0,2.614-2.11,4.725-4.724,4.725H23.624
		C21.01,266.139,18.899,264.028,18.899,261.414z"/>
</g>
<g id="LWPOLYLINE_28_">
	<polygon style="fill:#101820;" points="157.478,243.307 165.354,222.833 165.354,243.307 170.079,243.307 170.079,211.809 
		164.72,211.809 157.478,229.764 150.235,211.809 144.885,211.809 144.885,243.307 149.61,243.307 149.61,222.833 	"/>
</g>
<g id="LWPOLYLINE_27_">
	<polygon style="fill:#101820;" points="182.046,243.307 177.009,243.307 185.355,211.809 190.705,211.809 199.05,243.307 
		194.013,243.307 192.598,237.948 183.461,237.948 	"/>
</g>
<g id="LWPOLYLINE_26_">
	<polygon style="fill:#101820;" points="205.981,243.307 205.981,211.809 210.705,211.809 210.705,238.582 221.734,238.582 
		221.734,243.307 	"/>
</g>
<g id="LWPOLYLINE_25_">
	<polygon style="fill:#101820;" points="227.083,243.307 227.083,211.809 231.808,211.809 231.808,238.582 242.837,238.582 
		242.837,243.307 	"/>
</g>
<g id="LWPOLYLINE_24_">
	<rect x="248.187" y="211.809" style="fill:#101820;" width="4.725" height="31.498"/>
</g>
<g id="LWPOLYLINE_23_">
	<polygon style="fill:#101820;" points="263.62,243.307 263.62,211.809 268.344,211.809 268.344,238.582 279.374,238.582 
		279.374,243.307 	"/>
</g>
<g id="LWPOLYLINE_22_">
	<polygon style="fill:#101820;" points="289.134,243.307 284.097,243.307 292.443,211.809 297.792,211.809 306.139,243.307 
		301.102,243.307 299.686,237.948 290.55,237.948 	"/>
</g>
<g id="LWPOLYLINE_21_">
	<path style="fill:#101820;" d="M53.542,255.903h-9.448v-20.76c0-3.795,2.71-7.052,6.443-7.742c3.848-0.712,6.861-3.726,7.573-7.577
		c0.686-3.73,3.942-6.439,7.746-6.439h24.256l-14.173-14.174h12.245l18.897,18.898l-18.897,18.896H75.939l14.173-14.173H69.409
		c-1.303,0-2.476,0.804-2.936,2.023c-1.92,5.02-5.889,8.984-10.908,10.903c-1.216,0.469-2.023,1.638-2.023,2.944V255.903z"/>
</g>
<g id="LWPOLYLINE_3_">
	<polyline style="fill:#005EB8;stroke:#005EB8;stroke-width:0.5;stroke-miterlimit:10;" points="14.175,184.252 14.175,67.715 
		234.648,67.715 234.648,184.252 14.175,184.252 14.175,67.715 	"/>
</g>
<g id="LWPOLYLINE_5_">
	<path style="fill:#FFFFFF;" d="M225.2,184.252H23.624c-5.219,0-9.448-4.229-9.448-9.448V78.735v-1.571
		c0-5.22,4.229-9.449,9.448-9.449H225.2c5.219,0,9.448,4.229,9.448,9.449v97.64C234.648,180.023,230.418,184.252,225.2,184.252z"/>
</g>
<g id="LWPOLYLINE_8_">
	<path style="fill:#005EB8;" d="M225.2,179.528H23.624c-2.613,0-4.725-2.119-4.725-4.725V78.735v-1.571
		c0-2.61,2.111-4.725,4.725-4.725H225.2c2.605,0,4.724,2.114,4.724,4.725v97.64C229.923,177.409,227.805,179.528,225.2,179.528z"/>
</g>
<g id="LWPOLYLINE_10_">
	<path style="fill:#FFFFFF;" d="M151.181,96.852h50.396c3.474,0,6.296,2.818,6.296,6.296v42.52c0,3.482-2.822,6.301-6.296,6.301
		h-50.396c-3.482,0-6.296-2.818-6.296-6.301v-42.52C144.885,99.67,147.699,96.852,151.181,96.852z"/>
</g>
<g id="LWPOLYLINE_20_">
	<path style="fill:#E4002B;" d="M151.181,99.995h50.396c1.737,0,3.144,1.416,3.144,3.152v42.52c0,1.737-1.406,3.152-3.144,3.152
		h-50.396c-1.736,0-3.152-1.415-3.152-3.152v-42.52C148.029,101.411,149.445,99.995,151.181,99.995z"/>
</g>
<g id="LWPOLYLINE_36_">
	<path style="fill:#101820;" d="M165.12,321.259c0,4.785,3.874,8.658,8.659,8.658s8.658-3.873,8.658-8.658v-1.889
		c0-2.558-1.129-4.98-3.083-6.631c1.477-1.572,2.301-3.651,2.301-5.81v-0.635c0-4.346-3.525-7.872-7.876-7.872
		c-4.352,0-7.877,3.526-7.877,7.872v0.635h4.724v-0.635c0-1.736,1.416-3.147,3.153-3.147c1.736,0,3.152,1.411,3.152,3.147v0.635
		c0,2.084-1.693,3.777-3.778,3.777h-0.634v4.412h1.26c2.171,0,3.934,1.763,3.934,3.934v2.206c0,2.171-1.763,3.935-3.934,3.935
		s-3.935-1.764-3.935-3.935H165.12z"/>
</g>
<g id="LWPOLYLINE_35_">
	<path style="fill:#101820;" d="M188.742,303.057c1.858-0.965,3.257-2.632,3.891-4.634h4.768v31.494h-4.724V305.67l-3.466,0.625
		L188.742,303.057z"/>
</g>
<g id="LWPOLYLINE_34_">
	<path style="fill:#101820;" d="M204.331,298.423v4.725h10.421c-0.495,2.527-1.268,4.993-2.292,7.352
		c-1.92,4.78-2.91,9.883-2.91,15.032v4.412h4.725v-5.983c0-5.255,0.999-10.461,2.944-15.337c1.086-3.301,1.737-6.73,1.919-10.2
		H204.331z"/>
</g>
<g id="LWPOLYLINE_33_">
	<polygon style="fill:#005EB8;" points="293.225,319.844 286.294,319.844 289.76,306.295 	"/>
</g>
<g id="LWPOLYLINE_32_">
	<path style="fill:#FFFFFF;" d="M159.136,113.291c1.858-0.964,3.257-2.631,3.882-4.629h4.777v31.495h-4.725v-24.252l-3.465,0.625
		L159.136,113.291z"/>
</g>
<g id="LWPOLYLINE_31_">
	<path style="fill:#FFFFFF;" d="M176.297,118.893h4.724v-1.571c0-0.513,0.104-1.017,0.296-1.485
		c0.816-2.015,3.117-2.979,5.132-2.162c2.016,0.824,2.979,3.122,2.154,5.132l-12.306,16.627v4.725h17.325v-4.725h-11.968
		l11.455-15.168c1.624-4.498-0.712-9.466-5.211-11.09c-4.498-1.624-9.457,0.703-11.09,5.202c-0.434,1.225-0.599,2.527-0.469,3.813
		L176.297,118.893z"/>
</g>
<g id="LWPOLYLINE_30_">
	<polygon style="fill:#FFFFFF;" points="191.495,233.225 184.565,233.225 188.03,219.686 	"/>
</g>
<g id="LWPOLYLINE_29_">
	<polygon style="fill:#FFFFFF;" points="298.583,233.225 291.653,233.225 295.118,219.686 	"/>
</g>
<g id="LWPOLYLINE_19_">
	<path style="fill:#FFFFFF;" d="M89.765,342.519h9.448v-17.204c0-1.303,0.808-2.475,2.023-2.939
		c9.744-3.73,14.634-14.655,10.899-24.399c-3.726-9.753-14.651-14.634-24.395-10.903c-5.021,1.919-8.989,5.884-10.908,10.903
		c-0.46,1.216-1.633,2.023-2.936,2.023H54.766l14.174-14.173H56.694l-18.896,18.897l18.896,18.897H68.94l-14.174-14.173H77.45
		c3.796,0,7.053-2.71,7.747-6.444c0.712-3.848,3.726-6.86,7.573-7.572c5.132-0.947,10.057,2.439,11.012,7.572
		c0.946,5.133-2.44,10.061-7.573,11.012c-3.734,0.687-6.443,3.943-6.443,7.742V342.519z"/>
</g>
<g id="LWPOLYLINE_152_">
	<path style="fill:#FFFFFF;" d="M80.316,173.228h-9.448v-20.761c0-3.795,2.709-7.052,6.443-7.746
		c5.124-0.947,8.52-5.875,7.573-11.008c-0.712-3.852-3.726-6.86-7.573-7.573c-3.734-0.69-6.443-3.946-6.443-7.742V95.714
		l-14.174,14.173V97.633l18.897-18.897l18.897,18.897v12.254L80.316,95.714v19.123c0,1.308,0.808,2.476,2.023,2.944
		c5.02,1.919,8.979,5.879,10.899,10.899c3.726,9.752-1.155,20.678-10.899,24.403c-1.216,0.464-2.023,1.632-2.023,2.939V173.228z"/>
</g>
</svg>
