<?xml version="1.0" encoding="UTF-8" standalone="no"?>
<!-- Generator: Adobe Illustrator 16.0.0, SVG Export Plug-In . SVG Version: 6.00 Build 0)  -->

<svg
   xmlns:dc="http://purl.org/dc/elements/1.1/"
   xmlns:cc="http://creativecommons.org/ns#"
   xmlns:rdf="http://www.w3.org/1999/02/22-rdf-syntax-ns#"
   xmlns:svg="http://www.w3.org/2000/svg"
   xmlns="http://www.w3.org/2000/svg"
   xmlns:sodipodi="http://sodipodi.sourceforge.net/DTD/sodipodi-0.dtd"
   xmlns:inkscape="http://www.inkscape.org/namespaces/inkscape"
   version="1.1"
   id="Layer_1"
   x="0px"
   y="0px"
   width="392.84799"
   height="397.30801"
   viewBox="0 0 392.848 397.308"
   xml:space="preserve"
   sodipodi:docname="F2.3.svg"
   inkscape:version="0.92.5 (2060ec1f9f, 2020-04-08)"><metadata
   id="metadata2503"><rdf:RDF><cc:Work
       rdf:about=""><dc:format>image/svg+xml</dc:format><dc:type
         rdf:resource="http://purl.org/dc/dcmitype/StillImage" /></cc:Work></rdf:RDF></metadata><defs
   id="defs2501" /><sodipodi:namedview
   pagecolor="#ffffff"
   bordercolor="#666666"
   borderopacity="1"
   objecttolerance="10"
   gridtolerance="10"
   guidetolerance="10"
   inkscape:pageopacity="0"
   inkscape:pageshadow="2"
   inkscape:window-width="640"
   inkscape:window-height="480"
   id="namedview2499"
   showgrid="false"
   inkscape:zoom="0.55503813"
   inkscape:cx="196.4245"
   inkscape:cy="198.632"
   inkscape:window-x="0"
   inkscape:window-y="0"
   inkscape:window-maximized="0"
   inkscape:current-layer="Layer_1" />
<g
   id="LWPOLYLINE_159_"
   transform="translate(-16.174,-13.922)">
	
		<rect
   x="16.424"
   y="321.81201"
   style="fill:#009775;stroke:#009775;stroke-width:0.5;stroke-miterlimit:10"
   width="392.34799"
   height="89.167999"
   id="rect2303" />
</g>
<g
   id="LWPOLYLINE_161_"
   transform="translate(-16.174,-13.922)">
	<path
   style="fill:#ffffff"
   d="M 26.457,321.812 H 398.74 c 5.532,0 10.032,4.49 10.032,10.031 v 70.221 c -0.01,0.24 -0.019,0.484 -0.047,0.729 -0.497,5.016 -4.97,8.686 -9.985,8.188 H 26.457 c -0.24,0.023 -0.489,0.037 -0.729,0.042 -5.044,0.097 -9.211,-3.914 -9.304,-8.958 v -70.221 c 0,-5.542 4.491,-10.032 10.033,-10.032 z"
   id="path2306"
   inkscape:connector-curvature="0" />
</g>
<g
   id="LWPOLYLINE_160_"
   transform="translate(-16.174,-13.922)">
	<path
   style="fill:#009775"
   d="M 26.457,326.827 H 398.74 c 2.767,0 5.016,2.24 5.016,5.016 v 69.105 c 0,2.766 -2.249,5.016 -5.016,5.016 H 26.457 c -0.222,0.046 -0.442,0.074 -0.674,0.083 -2.295,0.102 -4.241,-1.688 -4.342,-3.983 v -70.221 c 0,-2.776 2.24,-5.016 5.016,-5.016 z"
   id="path2309"
   inkscape:connector-curvature="0" />
</g>
<g
   id="LWPOLYLINE_217_"
   transform="translate(-16.174,-13.922)">
	<path
   style="fill:#ffffff"
   d="m 68.26,366.391 c 0,15.394 12.476,27.868 27.864,27.868 h 78.03 c 15.388,0 27.863,-12.475 27.863,-27.868 0,-15.389 -12.476,-27.863 -27.863,-27.863 H 135.235 96.125 C 80.736,338.527 68.26,351.002 68.26,366.391 Z"
   id="path2312"
   inkscape:connector-curvature="0" />
</g>
<g
   id="LWPOLYLINE_218_"
   transform="translate(-16.174,-13.922)">
	<path
   style="fill:#005eb8"
   d="m 71.608,366.391 c 0,13.545 10.98,24.526 24.517,24.526 h 78.03 c 13.544,0 24.517,-10.981 24.517,-24.526 0,-13.54 -10.973,-24.517 -24.517,-24.517 H 135.236 96.125 c -13.537,0 -24.517,10.977 -24.517,24.517 z"
   id="path2315"
   inkscape:connector-curvature="0" />
</g>
<g
   id="LWPOLYLINE_221_"
   transform="translate(-16.174,-13.922)">
	<path
   style="fill:#ffffff"
   d="m 343.207,359.743 c 1.937,-1.12 4.131,-1.71 6.362,-1.71 h 1.005 c 3.504,0 6.353,2.844 6.353,6.356 v 18.745 h -5.016 V 365.39 c 0,-1.849 -1.494,-3.343 -3.347,-3.343 -1.845,0 -3.338,1.494 -3.338,3.343 v 17.744 H 340.21 V 365.39 c 0,-1.849 -1.503,-3.343 -3.348,-3.343 -1.844,0 -3.347,1.494 -3.347,3.343 v 17.744 H 328.5 v -25.102 h 5.016 v 1.327 c 1.235,-0.654 2.572,-1.102 3.956,-1.327 h 1.401 c 1.605,0.001 3.154,0.614 4.334,1.711 z"
   id="path2318"
   inkscape:connector-curvature="0" />
</g>
<g
   id="LWPOLYLINE_222_"
   transform="translate(-16.174,-13.922)">
	<path
   style="fill:#ffffff"
   d="m 288.217,358.867 v 15.047 c 0,5.081 4.112,9.197 9.192,9.197 5.081,0 9.202,-4.116 9.202,-9.197 v -15.047 c 0,-5.076 -4.121,-9.192 -9.202,-9.192 -5.079,0 -9.192,4.116 -9.192,9.192 z"
   id="path2321"
   inkscape:connector-curvature="0" />
</g>
<g
   id="LWPOLYLINE_224_"
   transform="translate(-16.174,-13.922)">
	<path
   style="fill:#ffffff"
   d="m 261.313,358.867 v 15.047 c 0,5.081 4.121,9.197 9.202,9.197 5.08,0 9.192,-4.116 9.192,-9.197 v -15.047 c 0,-5.076 -4.112,-9.192 -9.192,-9.192 -5.081,0 -9.202,4.116 -9.202,9.192 z"
   id="path2324"
   inkscape:connector-curvature="0" />
</g>
<g
   id="LWPOLYLINE_226_"
   transform="translate(-16.174,-13.922)">
	<path
   style="fill:#ffffff"
   d="m 253.844,370.235 v 3.679 c 0,5.081 -4.112,9.197 -9.192,9.197 -5.08,0 -9.192,-4.116 -9.192,-9.197 h 5.016 c 0,2.314 1.872,4.182 4.177,4.182 2.306,0 4.177,-1.867 4.177,-4.182 v -3.679 c 0,-2.305 -1.871,-4.177 -4.177,-4.177 -1.318,0 -2.554,0.618 -3.347,1.669 l -5.846,-1.337 1.669,-16.716 h 13.379 l 0.331,5.016 h -9.174 l -0.71,7.127 c 1.162,-0.507 2.425,-0.774 3.697,-0.774 5.08,0 9.192,4.117 9.192,9.192 z"
   id="path2327"
   inkscape:connector-curvature="0" />
</g>
<g
   id="LWPOLYLINE_129_"
   transform="translate(-16.174,-13.922)">
	
		<rect
   x="16.424"
   y="108.917"
   style="fill:#005eb8;stroke:#005eb8;stroke-width:0.5;stroke-miterlimit:10"
   width="392.34799"
   height="212.895"
   id="rect2330" />
</g>
<g
   id="LWPOLYLINE_131_"
   transform="translate(-16.174,-13.922)">
	<path
   style="fill:#ffffff"
   d="M 398.74,108.917 H 26.457 c -5.542,0 -10.032,4.49 -10.032,10.031 V 311.78 c 0,5.537 4.49,10.032 10.032,10.032 H 398.74 c 5.542,0 10.032,-4.495 10.032,-10.032 V 118.948 c 0,-5.541 -4.49,-10.031 -10.032,-10.031 z"
   id="path2333"
   inkscape:connector-curvature="0" />
</g>
<g
   id="LWPOLYLINE_130_"
   transform="translate(-16.174,-13.922)">
	<path
   style="fill:#005eb8"
   d="M 398.74,113.932 H 26.457 c -2.775,0 -5.016,2.245 -5.016,5.016 V 311.78 c 0,2.767 2.24,5.017 5.016,5.017 H 398.74 c 2.767,0 5.016,-2.25 5.016,-5.017 V 118.948 c -10e-4,-2.771 -2.25,-5.016 -5.016,-5.016 z"
   id="path2336"
   inkscape:connector-curvature="0" />
</g>
<g
   id="LWPOLYLINE_162_"
   transform="translate(-16.174,-13.922)">
	<path
   style="fill:#ffffff"
   d="m 137.357,189.722 h 109.231 c 3.697,0 6.693,-2.992 6.693,-6.685 V 140.68 c 0,-3.693 -2.996,-6.685 -6.693,-6.685 H 137.357 c -3.688,0 -6.685,2.992 -6.685,6.685 v 42.357 c 0,3.693 2.996,6.685 6.685,6.685 z"
   id="path2339"
   inkscape:connector-curvature="0" />
</g>
<g
   id="LWPOLYLINE_163_"
   transform="translate(-16.174,-13.922)">
	<path
   style="fill:#005eb8"
   d="m 137.357,186.379 h 109.231 c 1.854,0 3.347,-1.498 3.347,-3.342 V 140.68 c 0,-1.844 -1.493,-3.343 -3.347,-3.343 H 137.357 c -1.845,0 -3.338,1.499 -3.338,3.343 v 42.357 c 0,1.844 1.493,3.342 3.338,3.342 z"
   id="path2342"
   inkscape:connector-curvature="0" />
</g>
<g
   id="LWPOLYLINE_164_"
   transform="translate(-16.174,-13.922)">
	<path
   style="fill:#ffffff"
   d="m 153.022,150.057 c 1.973,-1.023 3.457,-2.794 4.13,-4.915 h 5.063 v 33.437 h -5.016 v -25.748 l -3.679,0.668 z"
   id="path2345"
   inkscape:connector-curvature="0" />
</g>
<g
   id="LWPOLYLINE_166_"
   transform="translate(-16.174,-13.922)">
	<path
   style="fill:#ffffff"
   d="m 172.246,169.382 v -5.228 c 1.199,-6.948 4.112,-13.485 8.474,-19.012 h 6.694 c -3.863,3.896 -6.805,8.598 -8.64,13.766 0.866,-0.258 1.761,-0.392 2.664,-0.392 5.081,0 9.202,4.117 9.202,9.197 v 1.669 c 0,5.081 -4.121,9.197 -9.202,9.197 -5.07,0.001 -9.192,-4.116 -9.192,-9.197 z"
   id="path2348"
   inkscape:connector-curvature="0" />
</g>
<g
   id="LWPOLYLINE_167_"
   transform="translate(-16.174,-13.922)">
	<path
   style="fill:#ffffff"
   d="m 196.661,169.382 c 0,5.081 4.112,9.197 9.192,9.197 5.081,0 9.193,-4.117 9.193,-9.197 v -2.005 c 0,-2.715 -1.199,-5.288 -3.273,-7.04 1.567,-1.669 2.443,-3.877 2.443,-6.168 V 153.5 c 0,-4.615 -3.743,-8.358 -8.363,-8.358 -4.619,0 -8.362,3.743 -8.362,8.358 v 0.668 h 5.016 V 153.5 c 0,-1.849 1.503,-3.342 3.347,-3.342 1.845,0 3.348,1.494 3.348,3.342 v 0.668 c 0,2.213 -1.798,4.011 -4.021,4.011 h -0.664 v 4.684 h 1.337 c 2.306,0 4.178,1.872 4.178,4.177 v 2.342 c 0,2.31 -1.872,4.182 -4.178,4.182 -2.313,0 -4.176,-1.872 -4.176,-4.182 z"
   id="path2351"
   inkscape:connector-curvature="0" />
</g>
<g
   id="LWPOLYLINE_168_"
   transform="translate(-16.174,-13.922)">
	<path
   style="fill:#ffffff"
   d="m 221.74,150.057 c 1.974,-1.023 3.458,-2.794 4.121,-4.915 h 5.071 v 33.437 h -5.016 v -25.748 l -3.679,0.668 z"
   id="path2354"
   inkscape:connector-curvature="0" />
</g>
<g
   id="LWPOLYLINE_136_"
   transform="translate(-16.174,-13.922)">
	<path
   style="fill:#ffffff"
   d="m 152.404,232.356 v -11.7 c 0,-6.002 -4.859,-10.87 -10.861,-10.87 -6.002,0 -10.87,4.868 -10.87,10.87 v 11.7 c 0,6.003 4.868,10.871 10.87,10.871 6.002,0 10.861,-4.868 10.861,-10.871 z"
   id="path2357"
   inkscape:connector-curvature="0" />
</g>
<g
   id="LWPOLYLINE_137_"
   transform="translate(-16.174,-13.922)">
	<path
   style="fill:#ffffff"
   d="m 166.115,228.18 v 15.048 h -5.016 v -33.441 h 11.534 c 4.711,0 8.528,3.816 8.528,8.528 v 1.337 c 0,3.596 -2.25,6.8 -5.624,8.021 l 5.624,15.555 h -5.348 l -5.439,-15.048 z"
   id="path2360"
   inkscape:connector-curvature="0" />
</g>
<g
   id="LWPOLYLINE_139_"
   transform="translate(-16.174,-13.922)">
	<rect
   x="189.52499"
   y="209.786"
   style="fill:#ffffff"
   width="5.0159998"
   height="33.441002"
   id="rect2363" />
</g>
<g
   id="LWPOLYLINE_140_"
   transform="translate(-16.174,-13.922)">
	<polygon
   style="fill:#ffffff"
   points="227.641,243.228 232.657,243.228 232.657,209.786 226.977,209.786 219.288,228.849 211.588,209.786 205.909,209.786 205.909,243.228 210.924,243.228 210.924,221.495 219.288,243.228 227.641,221.495 "
   id="polygon2366" />
</g>
<g
   id="LWPOLYLINE_142_"
   transform="translate(-16.174,-13.922)">
	<polygon
   style="fill:#ffffff"
   points="248.875,209.786 254.564,209.786 263.424,243.228 258.077,243.228 256.565,237.543 246.875,237.543 245.362,243.228 240.014,243.228 "
   id="polygon2369" />
</g>
<g
   id="LWPOLYLINE_143_"
   transform="translate(-16.174,-13.922)">
	<polygon
   style="fill:#ffffff"
   points="287.499,214.802 279.135,214.802 279.135,243.228 274.12,243.228 274.12,214.802 265.766,214.802 265.766,209.786 287.499,209.786 "
   id="polygon2372" />
</g>
<g
   id="LWPOLYLINE_144_"
   transform="translate(-16.174,-13.922)">
	<polygon
   style="fill:#ffffff"
   points="313.25,214.802 304.887,214.802 304.887,243.228 299.872,243.228 299.872,214.802 291.509,214.802 291.509,209.786 313.25,209.786 "
   id="polygon2375" />
</g>
<g
   id="LWPOLYLINE_145_"
   transform="translate(-16.174,-13.922)">
	<rect
   x="319.603"
   y="209.786"
   style="fill:#ffffff"
   width="5.0159998"
   height="33.441002"
   id="rect2378" />
</g>
<g
   id="LWPOLYLINE_146_"
   transform="translate(-16.174,-13.922)">
	<polygon
   style="fill:#ffffff"
   points="341.003,209.786 341.003,238.212 352.704,238.212 352.704,243.228 335.988,243.228 335.988,209.786 "
   id="polygon2381" />
</g>
<g
   id="LWPOLYLINE_148_"
   transform="translate(-16.174,-13.922)">
	<polygon
   style="fill:#ffffff"
   points="366.58,209.786 372.269,209.786 381.129,243.228 375.773,243.228 374.269,237.543 364.58,237.543 363.067,243.228 357.719,243.228 "
   id="polygon2384" />
</g>
<g
   id="LWPOLYLINE_149_"
   transform="translate(-16.174,-13.922)">
	<polygon
   style="fill:#ffffff"
   points="135.688,263.291 135.688,291.717 147.388,291.717 147.388,296.732 130.672,296.732 130.672,263.291 "
   id="polygon2387" />
</g>
<g
   id="LWPOLYLINE_150_"
   transform="translate(-16.174,-13.922)">
	<path
   style="fill:#ffffff"
   d="m 153.077,285.861 c 0,6.003 4.859,10.871 10.862,10.871 6.002,0 10.87,-4.868 10.87,-10.871 v -22.57 h -5.016 v 22.57 c 0,3.232 -2.619,5.855 -5.854,5.855 -3.228,0 -5.846,-2.623 -5.846,-5.855 v -22.57 h -5.017 v 22.57 z"
   id="path2390"
   inkscape:connector-curvature="0" />
</g>
<g
   id="LWPOLYLINE_151_"
   transform="translate(-16.174,-13.922)">
	<polygon
   style="fill:#ffffff"
   points="191.193,281.685 191.193,296.732 186.177,296.732 186.177,263.291 191.193,263.291 191.193,276.669 202.903,276.669 202.903,263.291 207.918,263.291 207.918,296.732 202.903,296.732 202.903,281.685 "
   id="polygon2393" />
</g>
<g
   id="LWPOLYLINE_152_"
   transform="translate(-16.174,-13.922)">
	<polygon
   style="fill:#ffffff"
   points="236.003,268.307 227.641,268.307 227.641,296.732 222.625,296.732 222.625,268.307 214.271,268.307 214.271,263.291 236.003,263.291 "
   id="polygon2396" />
</g>
<g
   id="LWPOLYLINE_153_"
   transform="translate(-16.174,-13.922)">
	<rect
   x="242.356"
   y="263.29099"
   style="fill:#ffffff"
   width="5.0170002"
   height="33.441002"
   id="rect2399" />
</g>
<g
   id="LWPOLYLINE_154_"
   transform="translate(-16.174,-13.922)">
	<polygon
   style="fill:#ffffff"
   points="258.741,296.732 258.741,263.291 263.756,263.291 263.756,279.343 274.46,263.291 280.472,263.291 270.948,277.499 280.472,296.732 274.792,296.732 267.767,282.349 263.756,288.369 263.756,296.732 "
   id="polygon2402" />
</g>
<g
   id="LWPOLYLINE_155_"
   transform="translate(-16.174,-13.922)">
	<polygon
   style="fill:#ffffff"
   points="296.525,283.354 304.887,263.291 299.199,263.291 294.017,275.729 288.835,263.291 283.156,263.291 291.509,283.354 291.509,296.732 294.017,296.732 296.525,296.732 "
   id="polygon2405" />
</g>
<g
   id="LWPOLYLINE_156_"
   transform="translate(-16.174,-13.922)">
	<polygon
   style="fill:#ffffff"
   points="316.588,263.291 316.588,291.717 328.297,291.717 328.297,296.732 311.572,296.732 311.572,263.291 "
   id="polygon2408" />
</g>
<g
   id="LWPOLYLINE_158_"
   transform="translate(-16.174,-13.922)">
	<polygon
   style="fill:#ffffff"
   points="342.174,263.291 347.854,263.291 356.714,296.732 351.367,296.732 349.864,291.043 340.164,291.043 338.662,296.732 333.314,296.732 "
   id="polygon2411" />
</g>
<g
   id="CIRCLE_2_"
   transform="translate(-16.174,-13.922)">
	<path
   style="fill:#ffffff"
   d="m 342.672,259.28 c 0,-1.48 -1.199,-2.674 -2.675,-2.674 -1.475,0 -2.674,1.193 -2.674,2.674 0,1.475 1.199,2.674 2.674,2.674 1.476,0 2.675,-1.199 2.675,-2.674 z"
   id="path2414"
   inkscape:connector-curvature="0" />
</g>
<g
   id="CIRCLE_3_"
   transform="translate(-16.174,-13.922)">
	<path
   style="fill:#ffffff"
   d="m 352.704,259.28 c 0,-1.48 -1.198,-2.674 -2.674,-2.674 -1.476,0 -2.674,1.193 -2.674,2.674 0,1.475 1.198,2.674 2.674,2.674 1.476,0 2.674,-1.199 2.674,-2.674 z"
   id="path2417"
   inkscape:connector-curvature="0" />
</g>
<g
   id="LWPOLYLINE_132_"
   transform="translate(-16.174,-13.922)">
	
		<rect
   x="16.424"
   y="14.172"
   style="fill:#009775;stroke:#009775;stroke-width:0.5;stroke-miterlimit:10"
   width="392.34799"
   height="94.745003"
   id="rect2420" />
</g>
<g
   id="LWPOLYLINE_134_"
   transform="translate(-16.174,-13.922)">
	<path
   style="fill:#ffffff"
   d="M 398.74,14.172 H 26.457 c -5.542,0 -10.032,4.49 -10.032,10.032 v 74.681 c 0,5.542 4.49,10.032 10.032,10.032 H 398.74 c 5.542,0 10.032,-4.49 10.032,-10.032 V 24.204 c 0,-5.542 -4.49,-10.032 -10.032,-10.032 z"
   id="path2423"
   inkscape:connector-curvature="0" />
</g>
<g
   id="LWPOLYLINE_133_"
   transform="translate(-16.174,-13.922)">
	<path
   style="fill:#009775"
   d="M 398.74,19.188 H 26.457 c -2.775,0 -5.016,2.245 -5.016,5.016 v 74.681 c 0,2.766 2.24,5.016 5.016,5.016 H 398.74 c 2.767,0 5.016,-2.25 5.016,-5.016 V 24.204 c -10e-4,-2.771 -2.25,-5.016 -5.016,-5.016 z"
   id="path2426"
   inkscape:connector-curvature="0" />
</g>
<g
   id="LWPOLYLINE_200_"
   transform="translate(-16.174,-13.922)">
	<path
   style="fill:#ffffff"
   d="m 137.357,33.677 h 42.357 c 3.697,0 6.685,2.994 6.685,6.687 v 42.357 c 0,3.693 -2.987,6.685 -6.685,6.685 h -42.357 c -3.688,0 -6.685,-2.992 -6.685,-6.685 V 40.364 c 0,-3.693 2.996,-6.687 6.685,-6.687 z"
   id="path2429"
   inkscape:connector-curvature="0" />
</g>
<g
   id="LWPOLYLINE_199_"
   transform="translate(-16.174,-13.922)">
	<path
   style="fill:#e4002b"
   d="m 137.357,37.022 h 42.357 c 1.844,0 3.347,1.496 3.347,3.342 v 42.357 c 0,1.844 -1.503,3.342 -3.347,3.342 h -42.357 c -1.845,0 -3.338,-1.498 -3.338,-3.342 V 40.364 c 0,-1.846 1.493,-3.342 3.338,-3.342 z"
   id="path2432"
   inkscape:connector-curvature="0" />
</g>
<g
   id="LWPOLYLINE_203_"
   transform="translate(-16.174,-13.922)">
	<polygon
   style="fill:#ffffff"
   points="165.893,66.559 168.567,66.559 168.567,71.575 165.893,71.575 165.893,78.259 160.877,78.259 160.877,71.575 148.503,71.575 148.503,66.559 160.877,44.827 165.893,44.827 "
   id="polygon2435" />
</g>
<g
   id="LWPOLYLINE_201_"
   transform="translate(-16.174,-13.922)">
	<path
   style="fill:#ffffff"
   d="m 198.662,89.406 h 89.169 c 3.079,0 5.578,-2.494 5.578,-5.569 V 39.251 c 0,-3.077 -2.499,-5.574 -5.578,-5.574 h -89.169 c -3.079,0 -5.569,2.497 -5.569,5.574 v 44.586 c -10e-4,3.076 2.49,5.569 5.569,5.569 z"
   id="path2438"
   inkscape:connector-curvature="0" />
</g>
<g
   id="LWPOLYLINE_202_"
   transform="translate(-16.174,-13.922)">
	<path
   style="fill:#009775"
   d="m 198.662,86.064 h 89.169 c 1.235,0 2.231,-1 2.231,-2.227 V 39.251 c 0,-1.231 -0.996,-2.229 -2.231,-2.229 h -89.169 c -1.227,0 -2.231,0.998 -2.231,2.229 v 44.586 c -0.001,1.227 1.004,2.227 2.231,2.227 z"
   id="path2441"
   inkscape:connector-curvature="0" />
</g>
<g
   id="LWPOLYLINE_204_"
   transform="translate(-16.174,-13.922)">
	<polygon
   style="fill:#e4002b"
   points="160.877,66.559 154.193,66.559 160.877,54.812 "
   id="polygon2444" />
</g>
<g
   id="LWPOLYLINE_135_"
   transform="translate(-16.174,-13.922)">
	<path
   style="fill:#005eb8"
   d="m 147.388,232.356 v -11.7 c 0,-3.231 -2.618,-5.854 -5.846,-5.854 -3.236,0 -5.854,2.623 -5.854,5.854 v 11.7 c 0,3.236 2.618,5.855 5.854,5.855 3.228,10e-4 5.846,-2.618 5.846,-5.855 z"
   id="path2447"
   inkscape:connector-curvature="0" />
</g>
<g
   id="LWPOLYLINE_138_"
   transform="translate(-16.174,-13.922)">
	<path
   style="fill:#005eb8"
   d="m 166.115,223.164 h 6.519 c 1.945,0 3.513,-1.572 3.513,-3.513 v -1.337 c 0,-1.937 -1.567,-3.513 -3.513,-3.513 h -6.519 z"
   id="path2450"
   inkscape:connector-curvature="0" />
</g>
<g
   id="LWPOLYLINE_141_"
   transform="translate(-16.174,-13.922)">
	<polygon
   style="fill:#005eb8"
   points="251.714,218.148 255.394,232.527 248.045,232.527 "
   id="polygon2453" />
</g>
<g
   id="LWPOLYLINE_147_"
   transform="translate(-16.174,-13.922)">
	<polygon
   style="fill:#005eb8"
   points="369.419,218.148 373.099,232.527 365.741,232.527 "
   id="polygon2456" />
</g>
<g
   id="LWPOLYLINE_157_"
   transform="translate(-16.174,-13.922)">
	<polygon
   style="fill:#005eb8"
   points="345.014,271.653 348.693,286.027 341.335,286.027 "
   id="polygon2459" />
</g>
<g
   id="LWPOLYLINE_165_"
   transform="translate(-16.174,-13.922)">
	<path
   style="fill:#005eb8"
   d="m 177.261,169.382 c 0,2.31 1.872,4.182 4.177,4.182 2.314,0 4.187,-1.872 4.187,-4.182 v -1.669 c 0,-2.31 -1.872,-4.181 -4.187,-4.181 -2.305,0 -4.177,1.872 -4.177,4.181 z"
   id="path2462"
   inkscape:connector-curvature="0" />
</g>
<g
   id="LWPOLYLINE_194_"
   transform="translate(-16.174,-13.922)">
	<path
   style="fill:#ffffff"
   d="m 54.873,286.701 v -60.098 c 0,-8.28 3.292,-16.219 9.146,-22.073 L 85.53,183.019 v 23.646 L 97.231,194.959 V 161.858 H 64.13 L 52.429,173.563 H 76.07 l -21.511,21.511 c -8.362,8.358 -13.056,19.7 -13.056,31.529 v 60.098 z"
   id="path2465"
   inkscape:connector-curvature="0" />
</g>
<g
   id="LWPOLYLINE_196_"
   transform="translate(-16.174,-13.922)">
	<polygon
   style="fill:#ffffff"
   points="225.41,73.244 212.041,73.244 212.041,63.212 221.067,63.212 221.067,58.196 212.041,58.196 212.041,49.843 225.41,49.843 225.41,44.827 207.025,44.827 207.025,78.259 225.41,78.259 "
   id="polygon2468" />
</g>
<g
   id="LWPOLYLINE_197_"
   transform="translate(-16.174,-13.922)">
	<path
   style="fill:#ffffff"
   d="m 237.672,44.827 v 5.016 h 11.064 c -0.525,2.683 -1.337,5.297 -2.435,7.8 -2.037,5.076 -3.089,10.492 -3.089,15.96 v 4.684 h 5.017 v -6.353 c 0,-5.578 1.06,-11.105 3.125,-16.283 1.162,-3.504 1.844,-7.146 2.038,-10.825 h -15.72 z"
   id="path2471"
   inkscape:connector-curvature="0" />
</g>
<g
   id="LWPOLYLINE_198_"
   transform="translate(-16.174,-13.922)">
	<path
   style="fill:#ffffff"
   d="m 261.083,69.067 c 0,5.08 4.112,9.192 9.192,9.192 5.08,0 9.202,-4.112 9.202,-9.192 v -3.679 c 0,-5.08 -4.122,-9.192 -9.202,-9.192 -1.281,0 -2.545,0.267 -3.725,0.784 l 0.719,-7.136 h 9.192 l -0.332,-5.016 h -13.378 l -1.669,16.716 5.854,1.337 c 0.784,-1.051 2.028,-1.669 3.338,-1.669 2.314,0 4.186,1.872 4.186,4.177 v 3.679 c 0,2.31 -1.871,4.177 -4.186,4.177 -2.305,0 -4.177,-1.867 -4.177,-4.177 h -5.014 z"
   id="path2474"
   inkscape:connector-curvature="0" />
</g>
<g
   id="LWPOLYLINE_205_"
   transform="translate(-16.174,-13.922)">
	<polygon
   style="fill:#ffffff"
   points="45.957,68.062 45.957,51.511 69.367,28.104 92.777,51.511 92.777,68.062 76.051,51.345 76.051,94.985 62.682,94.985 62.682,51.345 "
   id="polygon2477" />
</g>
<g
   id="LWPOLYLINE_215_"
   transform="translate(-16.174,-13.922)">
	<polygon
   style="fill:#ffffff"
   points="96.816,383.158 83.483,383.158 91.882,349.629 96.816,349.629 "
   id="polygon2480" />
</g>
<g
   id="LWPOLYLINE_216_"
   transform="translate(-16.174,-13.922)">
	<path
   style="fill:#ffffff"
   d="m 122.844,359.186 6.251,6.251 v -15.762 l -15.767,0.005 6.298,6.292 c -4.131,1.899 -7.653,4.919 -10.17,8.709 l -3.762,-15.052 h -4.951 v 33.529 h 13.342 l -0.369,-1.467 c -0.913,-4.098 -0.424,-8.39 1.383,-12.185 1.817,-3.954 4.453,-7.472 7.745,-10.32 z"
   id="path2483"
   inkscape:connector-curvature="0" />
</g>
<g
   id="LWPOLYLINE_219_"
   transform="translate(-16.174,-13.922)">
	<path
   style="fill:#ffffff"
   d="m 147.665,357.986 3.67,-0.668 v 25.747 h 5.016 v -33.437 h -5.016 -0.046 c -0.674,2.12 -2.158,3.891 -4.131,4.914 z"
   id="path2486"
   inkscape:connector-curvature="0" />
</g>
<g
   id="LWPOLYLINE_220_"
   transform="translate(-16.174,-13.922)">
	<path
   style="fill:#ffffff"
   d="m 166.05,373.37 c 0,5.076 4.111,9.193 9.192,9.193 5.08,0 9.201,-4.117 9.201,-9.193 v -3.679 c 0,-5.08 -4.121,-9.197 -9.201,-9.197 -1.282,0 -2.545,0.268 -3.726,0.789 l 0.72,-7.142 h 9.192 l -0.332,-5.016 h -13.379 l -1.668,16.721 5.854,1.337 c 0.783,-1.051 2.02,-1.673 3.338,-1.673 2.313,0 4.186,1.871 4.186,4.181 v 3.679 c 0,2.306 -1.872,4.177 -4.186,4.177 -2.306,0 -4.177,-1.871 -4.177,-4.177 z"
   id="path2489"
   inkscape:connector-curvature="0" />
</g>
<g
   id="LWPOLYLINE_223_"
   transform="translate(-16.174,-13.922)">
	<path
   style="fill:#009775"
   d="m 301.596,358.867 v 15.047 c 0,2.314 -1.872,4.182 -4.187,4.182 -2.305,0 -4.177,-1.867 -4.177,-4.182 v -15.047 c 0,-2.305 1.872,-4.177 4.177,-4.177 2.315,0 4.187,1.873 4.187,4.177 z"
   id="path2492"
   inkscape:connector-curvature="0" />
</g>
<g
   id="LWPOLYLINE_225_"
   transform="translate(-16.174,-13.922)">
	<path
   style="fill:#009775"
   d="m 274.691,373.914 v -15.047 c 0,-2.305 -1.871,-4.177 -4.176,-4.177 -2.314,0 -4.187,1.872 -4.187,4.177 v 15.047 c 0,2.314 1.872,4.182 4.187,4.182 2.305,0 4.176,-1.867 4.176,-4.182 z"
   id="path2495"
   inkscape:connector-curvature="0" />
</g>
</svg>