<?xml version="1.0" encoding="UTF-8" standalone="no"?>
<!-- Generator: Adobe Illustrator 16.0.0, SVG Export Plug-In . SVG Version: 6.00 Build 0)  -->

<svg
   xmlns:dc="http://purl.org/dc/elements/1.1/"
   xmlns:cc="http://creativecommons.org/ns#"
   xmlns:rdf="http://www.w3.org/1999/02/22-rdf-syntax-ns#"
   xmlns:svg="http://www.w3.org/2000/svg"
   xmlns="http://www.w3.org/2000/svg"
   xmlns:sodipodi="http://sodipodi.sourceforge.net/DTD/sodipodi-0.dtd"
   xmlns:inkscape="http://www.inkscape.org/namespaces/inkscape"
   version="1.1"
   id="Layer_1"
   x="0px"
   y="0px"
   width="397.35001"
   height="55.383999"
   viewBox="0 0 397.35001 55.383997"
   xml:space="preserve"
   sodipodi:docname="F20.2.svg"
   inkscape:version="0.92.5 (2060ec1f9f, 2020-04-08)"><metadata
   id="metadata2693"><rdf:RDF><cc:Work
       rdf:about=""><dc:format>image/svg+xml</dc:format><dc:type
         rdf:resource="http://purl.org/dc/dcmitype/StillImage" /></cc:Work></rdf:RDF></metadata><defs
   id="defs2691" /><sodipodi:namedview
   pagecolor="#ffffff"
   bordercolor="#666666"
   borderopacity="1"
   objecttolerance="10"
   gridtolerance="10"
   guidetolerance="10"
   inkscape:pageopacity="0"
   inkscape:pageshadow="2"
   inkscape:window-width="640"
   inkscape:window-height="480"
   id="namedview2689"
   showgrid="false"
   inkscape:zoom="0.55503813"
   inkscape:cx="198.6755"
   inkscape:cy="27.691993"
   inkscape:window-x="0"
   inkscape:window-y="0"
   inkscape:window-maximized="0"
   inkscape:current-layer="Layer_1" />
<g
   id="g2686"
   transform="translate(-13.923,-184.906)">
	<g
   id="LWPOLYLINE_1_">
		<polygon
   style="fill:#005eb8;stroke:#005eb8;stroke-width:0.5;stroke-miterlimit:10"
   points="411.023,185.156 411.023,240.04 208.964,240.04 14.173,240.04 14.173,185.156 208.964,185.156 "
   id="polygon2572" />
	</g>
	<g
   id="LWPOLYLINE_42_">
		<path
   style="fill:#ffffff"
   d="m 386.056,237.567 24.967,-24.969 -24.967,-24.969 c -1.289,-1.286 -2.957,-2.124 -4.758,-2.387 L 22.616,185.155 c -4.663,0 -8.443,3.78 -8.443,8.444 v 37.997 c 0,4.664 3.781,8.443 8.443,8.443 h 357.467 c 2.243,0.001 4.389,-0.89 5.973,-2.472 z"
   id="path2575"
   inkscape:connector-curvature="0" />
	</g>
	<g
   id="LWPOLYLINE_41_">
		<path
   style="fill:#005eb8"
   d="m 373.841,234.581 21.984,-21.982 -21.984,-21.983 c -0.791,-0.792 -1.865,-1.237 -2.986,-1.237 H 22.617 c -2.332,0 -4.222,1.891 -4.222,4.222 v 37.997 c 0,2.332 1.891,4.221 4.222,4.221 h 348.238 c 1.121,-0.002 2.195,-0.445 2.986,-1.238 z"
   id="path2578"
   inkscape:connector-curvature="0" />
	</g>
	<g
   id="LWPOLYLINE_58_">
		<path
   style="fill:#ffffff"
   d="m 336.529,224.503 c 0.633,-0.838 0.461,-2.029 -0.379,-2.658 -0.84,-0.631 -2.031,-0.459 -2.658,0.379 -0.248,0.328 -0.383,0.729 -0.383,1.141 v 5.699 z"
   id="path2581"
   inkscape:connector-curvature="0" />
	</g>
	<g
   id="LWPOLYLINE_70_">
		<path
   style="fill:#ffffff"
   d="m 327.537,206.897 v 3.965 c -0.902,5.262 -3.111,10.211 -6.42,14.4 h -5.066 c 2.922,-2.951 5.156,-6.514 6.539,-10.432 -0.652,0.199 -1.334,0.301 -2.018,0.301 -3.848,0 -6.967,-3.121 -6.967,-6.967 v -1.268 c 0,-3.846 3.119,-6.965 6.967,-6.965 3.848,0 6.965,3.121 6.965,6.966 z"
   id="path2584"
   inkscape:connector-curvature="0" />
	</g>
	<g
   id="LWPOLYLINE_72_">
		<path
   style="fill:#ffffff"
   d="m 345.269,220.04 c 0,2.885 2.34,5.225 5.223,5.225 2.889,0 5.229,-2.34 5.229,-5.225 v -2.088 c 0,-2.889 -2.34,-5.227 -5.229,-5.227 -0.727,0 -1.449,0.152 -2.111,0.447 l 0.404,-4.057 h 5.223 l -0.188,-2.85 h -7.6 l -0.951,9.5 3.326,0.76 c 0.447,-0.6 1.152,-0.949 1.896,-0.949 1.313,0 2.375,1.063 2.375,2.375 v 2.088 c 0,1.313 -1.063,2.375 -2.375,2.375 -1.309,0 -2.373,-1.063 -2.373,-2.375 h -2.849 z"
   id="path2587"
   inkscape:connector-curvature="0" />
	</g>
	<g
   id="LWPOLYLINE_52_">
		<path
   style="fill:#ffffff"
   d="m 264.634,193.6 h 29.551 c 2.33,0 4.223,1.89 4.223,4.221 v 29.553 c 0,2.332 -1.893,4.223 -4.223,4.223 h -29.551 c -2.334,0 -4.223,-1.891 -4.223,-4.223 v -29.553 c 10e-4,-2.331 1.889,-4.221 4.223,-4.221 z"
   id="path2590"
   inkscape:connector-curvature="0" />
	</g>
	<g
   id="LWPOLYLINE_51_">
		<path
   style="fill:#005eb8"
   d="m 264.634,195.711 h 29.551 c 1.166,0 2.113,0.945 2.113,2.11 v 29.553 c 0,1.166 -0.947,2.111 -2.113,2.111 h -29.551 c -1.168,0 -2.113,-0.945 -2.113,-2.111 v -29.553 c 0,-1.164 0.945,-2.11 2.113,-2.11 z"
   id="path2593"
   inkscape:connector-curvature="0" />
	</g>
	<g
   id="LWPOLYLINE_53_">
		<path
   style="fill:#ffffff"
   d="m 292.56,210.874 v -1.67 h -6.678 v 4.174 h -6.264 v -1.252 c 0,-0.924 -0.748,-1.672 -1.67,-1.672 -0.922,0 -1.67,0.748 -1.67,1.672 v 1.252 h -4.594 v -3.34 h -2.09 v 3.34 h -2.504 v 8.197 h 1.172 c -0.693,1.199 -0.283,2.73 0.916,3.422 0.053,0.031 0.105,0.059 0.16,0.086 h -3.5 v 1.086 h 27.141 v -1.086 h -4.756 c 1.246,-0.604 1.768,-2.104 1.164,-3.348 -0.025,-0.053 -0.055,-0.107 -0.084,-0.16 h 3.256 v -6.945 h -1.67 v 2.09 h -3.338 v -5.846 z"
   id="path2596"
   inkscape:connector-curvature="0" />
	</g>
	<g
   id="CIRCLE_1_">
		<path
   style="fill:#ffffff"
   d="m 272.058,205.3 c 0,-1.719 -1.391,-3.109 -3.107,-3.109 -1.721,0 -3.111,1.391 -3.111,3.109 0,1.718 1.391,3.109 3.111,3.109 1.716,0 3.107,-1.39 3.107,-3.109 z"
   id="path2599"
   inkscape:connector-curvature="0" />
	</g>
	<g
   id="LWPOLYLINE_59_">
		<polygon
   style="fill:#ffffff"
   points="142.516,203.731 136.183,203.731 136.183,225.263 132.384,225.263 132.384,203.731 126.051,203.731 126.051,199.933 142.516,199.933 "
   id="polygon2602" />
	</g>
	<g
   id="LWPOLYLINE_60_">
		<path
   style="fill:#ffffff"
   d="m 156.702,225.263 h -3.799 v -1.215 c -1.527,0.824 -3.238,1.242 -4.972,1.215 -1.56,0.041 -2.963,-0.941 -3.458,-2.422 -0.617,-1.943 -0.098,-4.066 1.347,-5.506 1.848,-1.984 4.377,-3.201 7.083,-3.402 v -1.967 c 0,-1.051 -0.852,-1.9 -1.9,-1.9 -1.049,0 -1.899,0.85 -1.899,1.9 h -3.801 c 0,-3.148 2.552,-5.701 5.7,-5.701 3.148,0 5.7,2.553 5.7,5.701 v 13.297 z"
   id="path2605"
   inkscape:connector-curvature="0" />
	</g>
	<g
   id="LWPOLYLINE_62_">
		<path
   style="fill:#ffffff"
   d="m 172.308,207.341 c -0.822,-0.693 -1.864,-1.076 -2.94,-1.076 -1.528,0.189 -2.998,0.709 -4.306,1.521 v -1.521 h -3.801 v 18.998 h 3.801 v -13.424 c 0,-1.398 1.134,-2.533 2.532,-2.533 1.4,0 2.533,1.135 2.533,2.533 v 13.424 h 3.799 v -13.424 c 0,-1.398 1.135,-2.533 2.534,-2.533 1.399,0 2.534,1.135 2.534,2.533 v 13.424 h 3.798 v -14.477 c -0.175,-2.436 -2.122,-4.367 -4.558,-4.521 -2.039,-0.26 -4.108,0.115 -5.926,1.076 z"
   id="path2608"
   inkscape:connector-curvature="0" />
	</g>
	<g
   id="LWPOLYLINE_63_">
		<path
   style="fill:#ffffff"
   d="m 200.018,220.577 -0.012,-10.418 c -0.425,-2.199 -2.311,-3.813 -4.549,-3.895 -1.521,0.193 -2.991,0.703 -4.304,1.498 v -1.498 h -3.801 v 24.066 h 3.801 v -6.588 c 1.307,0.813 2.776,1.332 4.304,1.52 2.521,0 4.561,-2.041 4.561,-4.559 z"
   id="path2611"
   inkscape:connector-curvature="0" />
	</g>
	<g
   id="LWPOLYLINE_65_">
		<path
   style="fill:#ffffff"
   d="m 212.683,218.931 h 3.801 c 0,3.496 -2.837,6.332 -6.333,6.332 -3.498,0 -6.333,-2.836 -6.333,-6.332 v -6.332 c 0,-3.498 2.835,-6.334 6.333,-6.334 3.495,0 6.333,2.836 6.333,6.334 v 3.545 h -8.868 v 2.787 c 0,1.398 1.135,2.533 2.535,2.533 1.397,0 2.532,-1.135 2.532,-2.533 z"
   id="path2614"
   inkscape:connector-curvature="0" />
	</g>
	<g
   id="LWPOLYLINE_67_">
		<path
   style="fill:#ffffff"
   d="m 224.841,212.091 v 13.172 h -3.801 v -18.998 h 3.801 v 1.018 c 1.336,-0.67 2.813,-1.018 4.309,-1.018 v 4.018 c -1.002,-0.979 -2.605,-0.963 -3.584,0.035 -0.465,0.474 -0.725,1.111 -0.725,1.773 z"
   id="path2617"
   inkscape:connector-curvature="0" />
	</g>
	<g
   id="LWPOLYLINE_68_">
		<path
   style="fill:#ffffff"
   d="m 239.787,218.931 h 3.801 c 0,3.496 -2.834,6.332 -6.334,6.332 -3.498,0 -6.332,-2.836 -6.332,-6.332 v -6.332 c 0,-3.498 2.834,-6.334 6.332,-6.334 3.5,0 6.334,2.836 6.334,6.334 v 3.545 h -8.865 v 2.787 c 0,1.398 1.133,2.533 2.531,2.533 1.4,0 2.533,-1.135 2.533,-2.533 z"
   id="path2620"
   inkscape:connector-curvature="0" />
	</g>
	<g
   id="LWPOLYLINE_46_">
		<path
   style="fill:#ffffff"
   d="m 63.166,206.688 2.286,3.262 c 0.876,-0.52 1.832,-0.891 2.829,-1.102 5.069,-1.076 10.05,2.162 11.125,7.232 1.076,5.07 -2.162,10.051 -7.233,11.127 -5.069,1.074 -10.052,-2.164 -11.126,-7.234 h -3.281 c -0.755,0 -1.477,-0.316 -1.985,-0.875 l -11.043,-11.775 -0.63,2.064 c 4.045,1.717 6.359,6.008 5.567,10.33 -0.934,5.1 -5.824,8.475 -10.922,7.541 -5.097,-0.934 -8.473,-5.824 -7.539,-10.922 0.934,-5.098 5.824,-8.475 10.921,-7.539 l 2.68,-8.795 c 0.402,-1.318 1.62,-2.219 2.998,-2.219 h 3.616 v 2.061 h -3.616 c -0.473,0 -0.889,0.307 -1.027,0.76 l -0.75,2.463 15.296,2.646 1.578,-4.264 -3.477,-0.955 c -0.209,-0.078 -0.343,-0.285 -0.33,-0.508 0.016,-0.283 0.259,-0.502 0.543,-0.486 h 0.271 7.514 v 2.031 h -2.357 z"
   id="path2623"
   inkscape:connector-curvature="0" />
	</g>
	<g
   id="LWPOLYLINE">
		<polygon
   style="fill:none"
   points="411.023,185.156 411.023,240.04 208.964,240.04 14.173,240.04 14.173,185.156 208.964,185.156 "
   id="polygon2626" />
	</g>
	<g
   id="LWPOLYLINE_43_">
		<polygon
   style="fill:#005eb8"
   points="57.013,217.394 45.431,205.054 60.605,207.679 "
   id="polygon2629" />
	</g>
	<g
   id="LWPOLYLINE_44_">
		<path
   style="fill:#005eb8"
   d="m 65.001,212.896 c -1.318,1.342 -2.069,3.139 -2.098,5.02 h 5.615 z"
   id="path2632"
   inkscape:connector-curvature="0" />
	</g>
	<g
   id="LWPOLYLINE_45_">
		<path
   style="fill:#005eb8"
   d="m 60.844,217.915 c 0.031,-2.553 1.1,-4.98 2.96,-6.729 l -1.506,-2.148 -3.283,8.877 h 1.844 z"
   id="path2635"
   inkscape:connector-curvature="0" />
	</g>
	<g
   id="LWPOLYLINE_47_">
		<path
   style="fill:#005eb8"
   d="m 70.995,217.86 c 0.157,0.227 0.243,0.496 0.243,0.771 0,0.742 -0.601,1.342 -1.343,1.342 h -6.729 c 1.074,3.9 5.108,6.191 9.007,5.117 3.9,-1.078 6.19,-5.109 5.115,-9.01 -1.074,-3.9 -5.107,-6.189 -9.007,-5.113 -0.574,0.156 -1.125,0.383 -1.643,0.674 z"
   id="path2638"
   inkscape:connector-curvature="0" />
	</g>
	<g
   id="LWPOLYLINE_48_">
		<path
   style="fill:#005eb8"
   d="m 43.503,211.372 -2.059,6.758 c -0.011,0.059 -0.03,0.119 -0.054,0.176 -0.214,0.527 -0.816,0.783 -1.346,0.568 -0.53,-0.215 -0.785,-0.818 -0.569,-1.346 l 2.055,-6.744 c -4,-0.6 -7.729,2.158 -8.329,6.158 -0.6,4 2.158,7.73 6.158,8.33 4.001,0.6 7.731,-2.158 8.331,-6.16 0.482,-3.224 -1.224,-6.379 -4.187,-7.74 z"
   id="path2641"
   inkscape:connector-curvature="0" />
	</g>
	<g
   id="LWPOLYLINE_55_">
		<path
   style="fill:#005eb8"
   d="m 277.677,225.183 h -6.215 c 1.254,-0.607 1.777,-2.117 1.17,-3.373 -0.027,-0.055 -0.057,-0.109 -0.086,-0.162 h 4.043 c -0.695,1.207 -0.281,2.752 0.926,3.449 0.053,0.031 0.108,0.058 0.162,0.086 z"
   id="path2644"
   inkscape:connector-curvature="0" />
	</g>
	<g
   id="LWPOLYLINE_56_">
		<path
   style="fill:#005eb8"
   d="m 286.042,225.083 h -6.168 c 1.246,-0.604 1.768,-2.104 1.162,-3.348 -0.027,-0.053 -0.053,-0.107 -0.084,-0.16 h 4.012 c -0.691,1.199 -0.281,2.73 0.918,3.422 0.053,0.031 0.104,0.059 0.16,0.086 z"
   id="path2647"
   inkscape:connector-curvature="0" />
	</g>
	<g
   id="CIRCLE_8_">
		<path
   style="fill:#005eb8"
   d="m 271.607,205.3 c 0,-1.467 -1.189,-2.658 -2.656,-2.658 -1.471,0 -2.66,1.191 -2.66,2.658 0,1.467 1.189,2.658 2.66,2.658 1.466,0 2.656,-1.191 2.656,-2.658 z"
   id="path2650"
   inkscape:connector-curvature="0" />
	</g>
	<g
   id="LWPOLYLINE_61_">
		<path
   style="fill:#005eb8"
   d="m 152.903,216.409 c -1.268,0.305 -2.445,0.908 -3.433,1.758 -0.888,0.779 -1.391,1.908 -1.378,3.09 0.018,0.77 0.655,1.379 1.425,1.361 0.063,-0.002 0.126,-0.008 0.189,-0.018 1.119,-0.18 2.199,-0.549 3.197,-1.088 z"
   id="path2653"
   inkscape:connector-curvature="0" />
	</g>
	<g
   id="LWPOLYLINE_64_">
		<path
   style="fill:#005eb8"
   d="m 191.153,219.692 v -7.854 c 0,-1.398 1.132,-2.533 2.531,-2.533 1.4,0 2.532,1.135 2.532,2.533 v 7.854 c 0,1.398 -1.132,2.531 -2.532,2.531 -1.399,10e-4 -2.531,-1.132 -2.531,-2.531 z"
   id="path2656"
   inkscape:connector-curvature="0" />
	</g>
	<g
   id="LWPOLYLINE_66_">
		<path
   style="fill:#005eb8"
   d="m 207.616,212.851 h 5.066 v -0.252 c 0,-1.398 -1.135,-2.533 -2.531,-2.533 -1.4,0 -2.535,1.135 -2.535,2.533 z"
   id="path2659"
   inkscape:connector-curvature="0" />
	</g>
	<g
   id="LWPOLYLINE_69_">
		<path
   style="fill:#005eb8"
   d="m 234.722,212.851 h 5.064 v -0.252 c 0,-1.398 -1.133,-2.533 -2.533,-2.533 -1.398,0 -2.531,1.135 -2.531,2.533 z"
   id="path2662"
   inkscape:connector-curvature="0" />
	</g>
	<g
   id="LWPOLYLINE_71_">
		<path
   style="fill:#005eb8"
   d="m 317.406,206.897 v 1.268 c 0,1.748 1.418,3.168 3.166,3.168 1.75,0 3.166,-1.42 3.166,-3.168 v -1.268 c 0,-1.748 -1.416,-3.166 -3.166,-3.166 -1.748,0 -3.166,1.418 -3.166,3.166 z"
   id="path2665"
   inkscape:connector-curvature="0" />
	</g>
	<g
   id="CIRCLE_3_">
		<path
   style="fill:#ffffff"
   d="m 97.874,197.051 c 0,-1.939 -1.573,-3.514 -3.514,-3.514 -1.94,0 -3.513,1.574 -3.513,3.514 0,1.94 1.573,3.514 3.513,3.514 1.941,0 3.514,-1.574 3.514,-3.514 z"
   id="path2668"
   inkscape:connector-curvature="0" />
	</g>
	<g
   id="LWPOLYLINE_49_">
		<path
   style="fill:#ffffff"
   d="m 94.485,200.944 c -2.25,0.1 -4.265,1.416 -5.26,3.438 l -1.179,5.645 -1.922,3.332 c -0.378,0.674 -0.14,1.523 0.531,1.902 0.672,0.379 1.525,0.141 1.903,-0.531 0.026,-0.049 0.051,-0.1 0.071,-0.15 l 1.908,-3.275 0.517,-3.848 -0.349,6.188 -1.177,9.393 -0.298,6.09 c -0.291,1.025 0.306,2.094 1.333,2.385 1.027,0.291 2.094,-0.307 2.385,-1.334 l 0.478,-6.818 1.027,-5.139 c 0.009,-0.051 0.046,-0.09 0.094,-0.102 0.068,-0.016 0.137,0.025 0.153,0.092 l 1.278,5.209 0.128,4.807 c 0.105,0.822 0.858,1.404 1.682,1.297 0.64,-0.082 1.155,-0.561 1.282,-1.193 l 0.174,-5.209 -0.237,-5.25 -0.103,-3.6 -0.475,-6.615 1.027,2.215 1.023,2.953 c 0.274,0.676 1.042,0.998 1.716,0.725 0.675,-0.273 1,-1.041 0.726,-1.717 -0.007,-0.014 -0.013,-0.031 -0.021,-0.045 l -0.956,-2.969 -1.17,-2.641 -0.838,-1.834 c -1.06,-2.047 -3.149,-3.348 -5.451,-3.401 z"
   id="path2671"
   inkscape:connector-curvature="0" />
	</g>
	<g
   id="CIRCLE_2_">
		<path
   style="fill:#ffffff"
   d="m 110.292,208.231 c 0,-1.557 -1.262,-2.818 -2.817,-2.818 -1.556,0 -2.816,1.262 -2.816,2.818 0,1.555 1.26,2.816 2.816,2.816 1.555,0.001 2.817,-1.261 2.817,-2.816 z"
   id="path2674"
   inkscape:connector-curvature="0" />
	</g>
	<g
   id="LWPOLYLINE_50_">
		<path
   style="fill:#ffffff"
   d="m 104.947,218.427 -1.291,2.66 c -0.007,0.01 -0.015,0.021 -0.021,0.031 -0.307,0.43 -0.905,0.529 -1.334,0.223 -0.429,-0.307 -0.529,-0.904 -0.223,-1.334 l 1.173,-2.23 0.963,-4.412 c 0.115,-0.172 0.243,-0.338 0.381,-0.492 1.636,-1.826 4.442,-1.979 6.269,-0.342 0.316,0.363 0.553,0.787 0.693,1.25 l 0.595,1.617 1.232,5.65 c 0,0.557 -0.448,1.004 -1.002,1.004 -0.555,0 -1.004,-0.447 -1.004,-1.004 l -0.47,-3.021 -0.522,-1.551 0.209,4.754 0.625,4.518 0.313,4.104 c 0.294,0.641 0.015,1.396 -0.624,1.691 -0.641,0.295 -1.397,0.016 -1.691,-0.625 l -0.537,-5.203 -0.879,-2.955 -0.713,2.881 -1.144,3.408 c -0.213,0.529 -0.77,0.832 -1.329,0.725 -0.646,-0.123 -1.068,-0.748 -0.944,-1.395 l 1.478,-6.695 0.227,-2.707 v -2.861 z"
   id="path2677"
   inkscape:connector-curvature="0" />
	</g>
	<g
   id="LWPOLYLINE_54_">
		<path
   style="fill:#ffffff"
   d="m 292.98,199.028 h -26.838 c -0.17,0 -0.303,0.135 -0.303,0.301 0,0.154 0.115,0.285 0.27,0.301 l 26.871,4.283 z"
   id="path2680"
   inkscape:connector-curvature="0" />
	</g>
	<g
   id="LWPOLYLINE_57_">
		<path
   style="fill:#ffffff"
   d="m 269.082,205.433 0.799,-0.799 c 0.074,-0.074 0.074,-0.193 0,-0.268 -0.072,-0.072 -0.191,-0.072 -0.264,0 l -0.48,0.477 v -1.428 c 0,-0.105 -0.084,-0.189 -0.186,-0.189 -0.105,0 -0.189,0.084 -0.189,0.189 v 1.885 c 0,0.051 0.02,0.098 0.055,0.133 0.071,0.074 0.19,0.074 0.265,0 z"
   id="path2683"
   inkscape:connector-curvature="0" />
	</g>
</g>
</svg>