<?xml version="1.0" encoding="UTF-8" standalone="no"?>
<!-- Generator: Adobe Illustrator 16.0.0, SVG Export Plug-In . SVG Version: 6.00 Build 0)  -->

<svg
   xmlns:dc="http://purl.org/dc/elements/1.1/"
   xmlns:cc="http://creativecommons.org/ns#"
   xmlns:rdf="http://www.w3.org/1999/02/22-rdf-syntax-ns#"
   xmlns:svg="http://www.w3.org/2000/svg"
   xmlns="http://www.w3.org/2000/svg"
   xmlns:sodipodi="http://sodipodi.sourceforge.net/DTD/sodipodi-0.dtd"
   xmlns:inkscape="http://www.inkscape.org/namespaces/inkscape"
   version="1.1"
   id="Layer_1"
   x="0px"
   y="0px"
   width="397.35001"
   height="86.427002"
   viewBox="0 0 397.35001 86.426999"
   xml:space="preserve"
   sodipodi:docname="F20.1.svg"
   inkscape:version="0.92.5 (2060ec1f9f, 2020-04-08)"><metadata
   id="metadata2570"><rdf:RDF><cc:Work
       rdf:about=""><dc:format>image/svg+xml</dc:format><dc:type
         rdf:resource="http://purl.org/dc/dcmitype/StillImage" /></cc:Work></rdf:RDF></metadata><defs
   id="defs2568" /><sodipodi:namedview
   pagecolor="#ffffff"
   bordercolor="#666666"
   borderopacity="1"
   objecttolerance="10"
   gridtolerance="10"
   guidetolerance="10"
   inkscape:pageopacity="0"
   inkscape:pageshadow="2"
   inkscape:window-width="640"
   inkscape:window-height="480"
   id="namedview2566"
   showgrid="false"
   inkscape:zoom="0.55503813"
   inkscape:cx="198.6755"
   inkscape:cy="43.213993"
   inkscape:window-x="0"
   inkscape:window-y="0"
   inkscape:window-maximized="0"
   inkscape:current-layer="Layer_1" />
<g
   id="LWPOLYLINE_134_"
   transform="translate(-13.923,-169.385)">
	<polygon
   style="fill:#005eb8;stroke:#005eb8;stroke-width:0.5;stroke-miterlimit:10"
   points="411.023,169.635 411.023,255.562 319.143,255.562 14.173,255.562 14.173,169.635 319.143,169.635 "
   id="polygon2505" />
</g>
<g
   id="LWPOLYLINE_645_"
   transform="translate(-13.923,-169.385)">
	<path
   style="fill:#ffffff"
   d="m 371.934,251.688 39.089,-39.091 -39.089,-39.092 c -2.479,-2.479 -5.842,-3.871 -9.351,-3.871 H 27.394 c -7.302,0 -13.221,5.918 -13.221,13.219 v 59.487 c 0,7.302 5.919,13.221 13.221,13.221 h 335.189 c 3.509,0.001 6.872,-1.394 9.351,-3.873 z"
   id="path2508"
   inkscape:connector-curvature="0" />
</g>
<g
   id="LWPOLYLINE_152_"
   transform="translate(-13.923,-169.385)">
	<path
   style="fill:#005eb8"
   d="m 352.811,247.014 34.418,-34.416 -34.418,-34.418 c -1.24,-1.239 -2.921,-1.936 -4.676,-1.936 H 27.394 c -3.652,0 -6.609,2.96 -6.609,6.609 v 59.487 c 0,3.652 2.957,6.609 6.609,6.609 h 320.741 c 1.755,10e-4 3.436,-0.693 4.676,-1.935 z"
   id="path2511"
   inkscape:connector-curvature="0" />
</g>
<g
   id="LWPOLYLINE_135_"
   transform="translate(-13.923,-169.385)">
	<polygon
   style="fill:#ffffff"
   points="162.233,198.718 152.318,198.718 152.318,232.427 146.37,232.427 146.37,198.718 136.456,198.718 136.456,192.769 162.233,192.769 "
   id="polygon2514" />
</g>
<g
   id="LWPOLYLINE_136_"
   transform="translate(-13.923,-169.385)">
	<path
   style="fill:#ffffff"
   d="m 184.443,232.427 h -5.951 v -1.902 c -2.387,1.289 -5.068,1.943 -7.784,1.9 -2.439,0.065 -4.639,-1.473 -5.413,-3.791 -0.966,-3.042 -0.15,-6.368 2.109,-8.621 2.894,-3.107 6.854,-5.01 11.088,-5.326 v -3.08 c 0,-1.643 -1.33,-2.976 -2.973,-2.976 -1.643,0 -2.976,1.333 -2.976,2.976 h -5.948 c 0,-4.928 3.996,-8.924 8.924,-8.924 4.928,0 8.924,3.996 8.924,8.924 z"
   id="path2517"
   inkscape:connector-curvature="0" />
</g>
<g
   id="LWPOLYLINE_138_"
   transform="translate(-13.923,-169.385)">
	<path
   style="fill:#ffffff"
   d="m 208.876,204.366 c -1.29,-1.087 -2.921,-1.684 -4.604,-1.684 -2.395,0.297 -4.695,1.109 -6.743,2.381 v -2.381 h -5.948 v 29.744 h 5.948 v -21.019 c 0,-2.189 1.776,-3.967 3.966,-3.967 2.19,0 3.967,1.777 3.967,3.967 v 21.019 h 5.948 v -21.019 c 0,-2.189 1.774,-3.967 3.966,-3.967 2.189,0 3.967,1.777 3.967,3.967 v 21.019 h 5.948 l -0.002,-22.666 c -0.273,-3.813 -3.322,-6.836 -7.138,-7.078 -3.192,-0.407 -6.432,0.181 -9.275,1.684 z"
   id="path2520"
   inkscape:connector-curvature="0" />
</g>
<g
   id="LWPOLYLINE_139_"
   transform="translate(-13.923,-169.385)">
	<path
   style="fill:#ffffff"
   d="m 252.256,225.089 -0.014,-16.31 c -0.665,-3.442 -3.618,-5.969 -7.122,-6.097 -2.389,0.304 -4.685,1.101 -6.744,2.345 v -2.345 h -5.948 v 37.677 h 5.948 v -10.313 c 2.05,1.273 4.349,2.087 6.744,2.381 3.941,0 7.136,-3.196 7.136,-7.138 z"
   id="path2523"
   inkscape:connector-curvature="0" />
</g>
<g
   id="LWPOLYLINE_141_"
   transform="translate(-13.923,-169.385)">
	<path
   style="fill:#ffffff"
   d="m 272.085,222.512 h 5.95 c 0,5.475 -4.438,9.915 -9.914,9.915 -5.476,0 -9.915,-4.44 -9.915,-9.915 v -9.914 c 0,-5.475 4.438,-9.915 9.915,-9.915 5.477,0 9.914,4.44 9.914,9.915 v 5.552 h -13.878 v 4.362 c 0,2.189 1.772,3.967 3.964,3.967 2.192,0 3.964,-1.778 3.964,-3.967 z"
   id="path2526"
   inkscape:connector-curvature="0" />
</g>
<g
   id="LWPOLYLINE_143_"
   transform="translate(-13.923,-169.385)">
	<path
   style="fill:#ffffff"
   d="m 291.122,211.805 v 20.622 h -5.945 v -29.744 h 5.945 v 1.593 c 2.097,-1.048 4.401,-1.593 6.744,-1.593 v 6.29 c -1.563,-1.533 -4.074,-1.508 -5.609,0.055 -0.725,0.743 -1.135,1.74 -1.135,2.777 z"
   id="path2529"
   inkscape:connector-curvature="0" />
</g>
<g
   id="LWPOLYLINE_144_"
   transform="translate(-13.923,-169.385)">
	<path
   style="fill:#ffffff"
   d="m 314.523,222.512 h 5.946 c 0,5.475 -4.438,9.915 -9.914,9.915 -5.478,0 -9.915,-4.44 -9.915,-9.915 v -9.914 c 0,-5.475 4.438,-9.915 9.915,-9.915 5.477,0 9.914,4.44 9.914,9.915 v 5.552 H 306.59 v 4.362 c 0,2.189 1.777,3.967 3.965,3.967 2.192,0 3.968,-1.778 3.968,-3.967 z"
   id="path2532"
   inkscape:connector-curvature="0" />
</g>
<g
   id="LWPOLYLINE_149_"
   transform="translate(-13.923,-169.385)">
	<path
   style="fill:#ffffff"
   d="m 90.88,203.346 3.576,5.105 c 1.374,-0.813 2.868,-1.395 4.429,-1.725 7.938,-1.684 15.738,3.386 17.422,11.325 1.681,7.937 -3.388,15.735 -11.325,17.421 -7.939,1.682 -15.737,-3.39 -17.421,-11.327 h -5.138 c -1.183,0 -2.31,-0.497 -3.107,-1.371 l -17.289,-18.436 -0.986,3.232 c 6.333,2.687 9.956,9.407 8.716,16.173 -1.462,7.983 -9.117,13.269 -17.098,11.806 -7.982,-1.462 -13.268,-9.117 -11.806,-17.1 1.463,-7.98 9.118,-13.266 17.101,-11.804 l 4.194,-13.767 c 0.631,-2.064 2.535,-3.476 4.692,-3.476 h 5.662 v 3.225 H 66.84 c -0.737,0 -1.392,0.483 -1.608,1.191 l -1.175,3.855 23.95,4.144 2.467,-6.675 -5.442,-1.493 c -0.325,-0.124 -0.535,-0.448 -0.517,-0.798 0.024,-0.444 0.405,-0.783 0.85,-0.76 h 0.426 11.763 v 3.181 h -3.688 z"
   id="path2535"
   inkscape:connector-curvature="0" />
</g>
<g
   id="LWPOLYLINE_137_"
   transform="translate(-13.923,-169.385)">
	<path
   style="fill:#005eb8"
   d="m 178.492,218.563 c -1.983,0.479 -3.824,1.422 -5.374,2.752 -1.39,1.222 -2.178,2.987 -2.155,4.84 0.027,1.202 1.025,2.157 2.229,2.13 0.101,-0.003 0.198,-0.012 0.296,-0.027 1.752,-0.283 3.444,-0.859 5.005,-1.702 v -7.993 z"
   id="path2538"
   inkscape:connector-curvature="0" />
</g>
<g
   id="LWPOLYLINE_140_"
   transform="translate(-13.923,-169.385)">
	<path
   style="fill:#005eb8"
   d="m 238.376,223.703 v -12.295 c 0,-2.189 1.776,-3.967 3.966,-3.967 2.191,0 3.968,1.777 3.968,3.967 v 12.295 c 0,2.189 -1.776,3.965 -3.968,3.965 -2.189,0 -3.966,-1.775 -3.966,-3.965 z"
   id="path2541"
   inkscape:connector-curvature="0" />
</g>
<g
   id="LWPOLYLINE_142_"
   transform="translate(-13.923,-169.385)">
	<path
   style="fill:#005eb8"
   d="m 264.158,212.994 h 7.928 v -0.396 c 0,-2.189 -1.772,-3.967 -3.964,-3.967 -2.192,0 -3.964,1.777 -3.964,3.967 z"
   id="path2544"
   inkscape:connector-curvature="0" />
</g>
<g
   id="LWPOLYLINE_145_"
   transform="translate(-13.923,-169.385)">
	<path
   style="fill:#005eb8"
   d="m 306.59,212.994 h 7.933 v -0.396 c 0,-2.189 -1.776,-3.967 -3.968,-3.967 -2.188,0 -3.965,1.777 -3.965,3.967 z"
   id="path2547"
   inkscape:connector-curvature="0" />
</g>
<g
   id="LWPOLYLINE_146_"
   transform="translate(-13.923,-169.385)">
	<polygon
   style="fill:#005eb8"
   points="81.244,220.104 63.111,200.785 86.869,204.895 "
   id="polygon2550" />
</g>
<g
   id="LWPOLYLINE_147_"
   transform="translate(-13.923,-169.385)">
	<path
   style="fill:#005eb8"
   d="m 93.75,213.063 c -2.062,2.103 -3.239,4.914 -3.285,7.859 h 8.792 z"
   id="path2553"
   inkscape:connector-curvature="0" />
</g>
<g
   id="LWPOLYLINE_148_"
   transform="translate(-13.923,-169.385)">
	<path
   style="fill:#005eb8"
   d="m 87.242,220.922 c 0.048,-3.996 1.723,-7.798 4.636,-10.534 l -2.357,-3.365 -5.142,13.899 h 2.886 z"
   id="path2556"
   inkscape:connector-curvature="0" />
</g>
<g
   id="LWPOLYLINE_150_"
   transform="translate(-13.923,-169.385)">
	<path
   style="fill:#005eb8"
   d="m 103.134,220.838 c 0.248,0.353 0.381,0.774 0.381,1.207 0,1.159 -0.941,2.101 -2.103,2.101 H 90.877 c 1.684,6.105 7.997,9.691 14.104,8.01 6.105,-1.686 9.691,-7.998 8.008,-14.104 -1.684,-6.108 -7.999,-9.691 -14.104,-8.008 -0.897,0.245 -1.761,0.601 -2.571,1.057 z"
   id="path2559"
   inkscape:connector-curvature="0" />
</g>
<g
   id="LWPOLYLINE_151_"
   transform="translate(-13.923,-169.385)">
	<path
   style="fill:#005eb8"
   d="m 60.095,210.677 -3.224,10.58 c -0.021,0.094 -0.048,0.187 -0.085,0.275 -0.337,0.827 -1.28,1.229 -2.109,0.891 -0.827,-0.335 -1.228,-1.28 -0.891,-2.107 l 3.219,-10.559 c -6.265,-0.939 -12.104,3.378 -13.042,9.641 -0.938,6.266 3.378,12.104 9.644,13.043 6.263,0.938 12.102,-3.379 13.04,-9.644 0.757,-5.049 -1.914,-9.987 -6.552,-12.12 z"
   id="path2562"
   inkscape:connector-curvature="0" />
</g>
</svg>