<?xml version="1.0" encoding="iso-8859-1"?>
<!-- Generator: Adobe Illustrator 16.0.0, SVG Export Plug-In . SVG Version: 6.00 Build 0)  -->
<!DOCTYPE svg PUBLIC "-//W3C//DTD SVG 1.1//EN" "http://www.w3.org/Graphics/SVG/1.1/DTD/svg11.dtd">
<svg version="1.1" id="Layer_1" xmlns="http://www.w3.org/2000/svg" xmlns:xlink="http://www.w3.org/1999/xlink" x="0px" y="0px"
	 width="425.197px" height="425.196px" viewBox="0 0 425.197 425.196" style="enable-background:new 0 0 425.197 425.196;"
	 xml:space="preserve">
<g id="LWPOLYLINE_394_">
	
		<rect x="124.405" y="14.173" style="fill:#005EB8;stroke:#005EB8;stroke-width:0.5;stroke-miterlimit:10;" width="176.387" height="396.851"/>
</g>
<g id="LWPOLYLINE_396_">
	<path style="fill:#FFFFFF;" d="M142.042,14.173h141.105c9.742,0,17.644,7.896,17.644,17.638v361.575
		c0,9.742-7.901,17.638-17.644,17.638H142.042c-9.742,0-17.638-7.896-17.638-17.638V31.811
		C124.405,22.069,132.3,14.173,142.042,14.173z"/>
</g>
<g id="LWPOLYLINE_395_">
	<path style="fill:#005EB8;" d="M142.042,22.991h141.105c4.874,0,8.818,3.949,8.818,8.819v361.575c0,4.868-3.944,8.819-8.818,8.819
		H142.042c-4.868,0-8.819-3.951-8.819-8.819V31.811C133.223,26.94,137.174,22.991,142.042,22.991z"/>
</g>
<g id="LWPOLYLINE_379_">
	<path style="fill:#FFFFFF;" d="M189.208,184.696c2.457-1.272,4.304-3.473,5.138-6.108h6.298v41.573h-6.233V188.15l-4.573,0.831
		L189.208,184.696z"/>
</g>
<g id="LWPOLYLINE_380_">
	<path style="fill:#FFFFFF;" d="M213.118,208.729c0,6.314,5.118,11.433,11.429,11.433c6.318,0,11.436-5.118,11.436-11.433v-18.708
		c0-6.314-5.117-11.433-11.436-11.433c-6.311,0-11.429,5.118-11.429,11.433V208.729z"/>
</g>
<g id="LWPOLYLINE_390_">
	<path style="fill:#FFFFFF;" d="M226.252,68.373l6.626-17.922l-9.307-2.556c-0.564-0.213-0.924-0.765-0.885-1.364
		c0.038-0.76,0.692-1.341,1.449-1.299h0.731h20.126v5.44h-6.312l-5.104,13.811l6.118,8.735c2.348-1.386,4.906-2.387,7.581-2.951
		c13.577-2.879,26.924,5.799,29.804,19.379c2.88,13.581-5.798,26.928-19.375,29.808c-13.584,2.88-26.931-5.795-29.811-19.376h-8.787
		c-2.026,0-3.957-0.853-5.323-2.347l-29.579-31.549l-1.688,5.535c10.839,4.595,17.035,16.095,14.912,27.675
		c-2.501,13.654-15.598,22.697-29.259,20.196c-13.654-2.501-22.698-15.598-20.196-29.259c2.501-13.655,15.604-22.698,29.259-20.196
		l7.177-23.556c1.077-3.534,4.342-5.947,8.029-5.947h9.691v5.516h-9.691c-1.263,0-2.379,0.827-2.751,2.039l-2.008,6.597
		C187.681,54.782,226.259,68.363,226.252,68.373z"/>
</g>
<g id="LWPOLYLINE_381_">
	<path style="fill:#005EB8;" d="M219.352,208.729c0,2.87,2.328,5.198,5.194,5.198c2.874,0,5.202-2.328,5.202-5.198v-18.708
		c0-2.87-2.328-5.198-5.202-5.198c-2.866,0-5.194,2.328-5.194,5.198V208.729z"/>
</g>
<g id="LWPOLYLINE_387_">
	<polygon style="fill:#005EB8;" points="186.007,60.042 224.341,73.545 217.087,93.158 186.007,60.042 186.059,60.103 	"/>
</g>
<g id="LWPOLYLINE_388_">
	<path style="fill:#005EB8;" d="M238.49,81.113c-3.533,3.592-5.548,8.408-5.624,13.446h15.046L238.49,81.113z"/>
</g>
<g id="LWPOLYLINE_389_">
	<path style="fill:#005EB8;" d="M227.349,94.56c0.084-6.837,2.944-13.347,7.935-18.025l-4.034-5.76l-8.8,23.785h4.938H227.349z"/>
</g>
<g id="LWPOLYLINE_391_">
	<path style="fill:#005EB8;" d="M254.543,94.415c0.423,0.604,0.654,1.324,0.654,2.065c0,1.985-1.61,3.598-3.599,3.598h-18.028
		c2.88,10.448,13.687,16.579,24.135,13.7c10.447-2.88,16.579-13.684,13.699-24.132c-2.88-10.447-13.681-16.582-24.128-13.702
		c-1.539,0.423-3.015,1.032-4.406,1.812L254.543,94.415z"/>
</g>
<g id="LWPOLYLINE_392_">
	<path style="fill:#005EB8;" d="M180.896,77.031l-5.516,18.1c-0.032,0.163-0.083,0.32-0.142,0.471
		c-0.577,1.418-2.193,2.104-3.61,1.526c-1.418-0.573-2.098-2.187-1.526-3.604l5.509-18.066c-10.717-1.61-20.709,5.778-22.313,16.495
		c-1.61,10.721,5.778,20.71,16.496,22.316c10.717,1.606,20.709-5.782,22.318-16.499C193.402,89.131,188.835,80.678,180.896,77.031z"
		/>
</g>
<g id="LWPOLYLINE_393_">
	<path style="fill:#FFFFFF;" d="M164.092,384.567h15.874v-62.18c0-2.19,1.776-3.967,3.97-3.967h48.647l-23.808,23.811h20.575
		l31.753-31.748l-31.753-31.747h-20.575l23.808,23.811h-60.558c-4.381,0-7.934,3.553-7.934,7.937V384.567z"/>
</g>
<g id="LWPOLYLINE_372_">
	<path style="fill:#FFCD00;" d="M210.424,153.029l1.667-5.124l1.668,5.124h5.4l-4.374,3.175l1.667,5.128l-4.361-3.172l-4.361,3.185
		l1.661-5.141l-4.361-3.175C205.03,153.029,210.417,153.029,210.424,153.029z"/>
</g>
<g id="LWPOLYLINE_373_">
	<path style="fill:#FFCD00;" d="M188.168,158.994l1.668-5.128l1.667,5.128h5.395l-4.368,3.175l1.668,5.128l-4.361-3.172
		l-4.368,3.182l1.668-5.142l-4.361-3.171C182.775,158.994,188.163,158.994,188.168,158.994z"/>
</g>
<g id="LWPOLYLINE_374_">
	<path style="fill:#FFCD00;" d="M171.872,175.288l1.668-5.128l1.668,5.128l5.399-0.003l-4.374,3.178l1.675,5.128l-4.368-3.172
		l-4.361,3.185l1.668-5.144l-4.368-3.172C166.478,175.288,171.866,175.288,171.872,175.288z"/>
</g>
<g id="LWPOLYLINE_375_">
	<path style="fill:#FFCD00;" d="M165.914,197.511l1.668-5.127l1.661,5.127l5.4-0.003l-4.374,3.178l1.674,5.128l-4.368-3.172
		l-4.361,3.182l1.668-5.141l-4.361-3.172C160.52,197.511,165.908,197.511,165.914,197.511z"/>
</g>
<g id="LWPOLYLINE_376_">
	<path style="fill:#FFCD00;" d="M171.988,219.969l1.667-5.131l1.668,5.131l5.399-0.007l-4.373,3.178l1.674,5.128l-4.368-3.172
		l-4.361,3.185l1.668-5.144l-4.368-3.168C166.593,219.969,171.981,219.969,171.988,219.969z"/>
</g>
<g id="LWPOLYLINE_377_">
	<path style="fill:#FFCD00;" d="M210.162,242.243l1.667-5.131l1.668,5.131l5.394-0.004l-4.368,3.179l1.668,5.124l-4.361-3.172
		l-4.367,3.185l1.667-5.144l-4.361-3.168C204.767,242.243,210.155,242.243,210.162,242.243z"/>
</g>
<g id="LWPOLYLINE_378_">
	<path style="fill:#FFCD00;" d="M248.861,219.969l1.668-5.131l1.667,5.131l5.394-0.007l-4.367,3.178l1.668,5.128l-4.361-3.172
		l-4.368,3.185l1.668-5.144l-4.361-3.168C243.467,219.969,248.854,219.969,248.861,219.969z"/>
</g>
<g id="LWPOLYLINE_382_">
	<polygon style="fill:#FFCD00;" points="197.013,236.159 191.62,236.163 189.952,231.032 188.285,236.163 182.89,236.163 
		187.251,239.331 185.584,244.475 189.952,241.294 194.313,244.462 192.639,239.338 	"/>
</g>
<g id="LWPOLYLINE_383_">
	<path style="fill:#FFCD00;" d="M236.021,158.994l-1.668-5.131l-1.667,5.131l-5.4-0.003l4.374,3.178l-1.674,5.124l4.367-3.168
		l4.361,3.182l-1.667-5.145l4.367-3.168C241.415,158.994,236.027,158.994,236.021,158.994z"/>
</g>
<g id="LWPOLYLINE_384_">
	<path style="fill:#FFCD00;" d="M252.311,175.285l-1.667-5.128l-1.668,5.128h-5.394l4.367,3.175l-1.667,5.127l4.361-3.171
		l4.367,3.181l-1.667-5.141l4.361-3.171C257.706,175.285,252.318,175.285,252.311,175.285z"/>
</g>
<g id="LWPOLYLINE_385_">
	<path style="fill:#FFCD00;" d="M258.276,197.508l-1.667-5.128l-1.668,5.128h-5.4l4.374,3.175l-1.667,5.128l4.361-3.172l4.361,3.182
		l-1.661-5.141l4.36-3.172C263.669,197.508,258.283,197.508,258.276,197.508z"/>
</g>
<g id="LWPOLYLINE_386_">
	<polygon style="fill:#FFCD00;" points="227.17,236.156 232.57,236.159 234.238,231.032 235.906,236.159 241.299,236.159 
		236.931,239.331 238.599,244.472 234.238,241.287 229.871,244.462 231.544,239.331 	"/>
</g>
</svg>
