<?xml version="1.0" encoding="UTF-8" standalone="no"?>
<!-- Generator: Adobe Illustrator 16.0.0, SVG Export Plug-In . SVG Version: 6.00 Build 0)  -->

<svg
   xmlns:dc="http://purl.org/dc/elements/1.1/"
   xmlns:cc="http://creativecommons.org/ns#"
   xmlns:rdf="http://www.w3.org/1999/02/22-rdf-syntax-ns#"
   xmlns:svg="http://www.w3.org/2000/svg"
   xmlns="http://www.w3.org/2000/svg"
   xmlns:sodipodi="http://sodipodi.sourceforge.net/DTD/sodipodi-0.dtd"
   xmlns:inkscape="http://www.inkscape.org/namespaces/inkscape"
   version="1.1"
   id="Layer_1"
   x="0px"
   y="0px"
   width="397.353"
   height="247.03"
   viewBox="0 0 397.35301 247.02999"
   xml:space="preserve"
   sodipodi:docname="F22.svg"
   inkscape:version="0.92.5 (2060ec1f9f, 2020-04-08)"><metadata
   id="metadata3137"><rdf:RDF><cc:Work
       rdf:about=""><dc:format>image/svg+xml</dc:format><dc:type
         rdf:resource="http://purl.org/dc/dcmitype/StillImage" /></cc:Work></rdf:RDF></metadata><defs
   id="defs3135" /><sodipodi:namedview
   pagecolor="#ffffff"
   bordercolor="#666666"
   borderopacity="1"
   objecttolerance="10"
   gridtolerance="10"
   guidetolerance="10"
   inkscape:pageopacity="0"
   inkscape:pageshadow="2"
   inkscape:window-width="640"
   inkscape:window-height="480"
   id="namedview3133"
   showgrid="false"
   inkscape:zoom="0.55503813"
   inkscape:cx="198.6765"
   inkscape:cy="123.51498"
   inkscape:window-x="0"
   inkscape:window-y="0"
   inkscape:window-maximized="0"
   inkscape:current-layer="Layer_1" />
<g
   id="LWPOLYLINE_352_"
   transform="translate(-13.922,-89.083)">
	
		<rect
   x="14.172"
   y="89.333"
   style="fill:#005eb8;stroke:#005eb8;stroke-width:0.5;stroke-miterlimit:10"
   width="396.853"
   height="90.195999"
   id="rect2979" />
</g>
<g
   id="LWPOLYLINE_354_"
   transform="translate(-13.922,-89.083)">
	<path
   style="fill:#ffffff"
   d="m 26.197,89.333 h 372.795 c 6.646,0 12.033,5.383 12.033,12.025 V 167.5 c 0,6.642 -5.387,12.029 -12.033,12.029 H 26.197 c -6.642,0 -12.024,-5.388 -12.024,-12.029 V 101.358 C 14.172,94.716 19.555,89.333 26.197,89.333 Z"
   id="path2982"
   inkscape:connector-curvature="0" />
</g>
<g
   id="LWPOLYLINE_353_"
   transform="translate(-13.922,-89.083)">
	<path
   style="fill:#005eb8"
   d="m 26.197,95.346 h 372.795 c 3.323,0 6.017,2.693 6.017,6.013 V 167.5 c 0,3.319 -2.693,6.013 -6.017,6.013 H 26.197 c -3.318,0 -6.012,-2.693 -6.012,-6.013 v -66.142 c 0,-3.318 2.693,-6.012 6.012,-6.012 z"
   id="path2985"
   inkscape:connector-curvature="0" />
</g>
<g
   id="LWPOLYLINE_391_"
   transform="translate(-13.922,-89.083)">
	<path
   style="fill:#ffffff"
   d="m 221.905,126.288 4.521,-12.217 -6.349,-1.745 c -0.386,-0.145 -0.621,-0.521 -0.604,-0.932 0.034,-0.516 0.472,-0.914 0.988,-0.883 h 0.498 13.722 v 3.708 h -4.303 l -3.48,9.419 4.171,5.956 c 1.609,-0.949 3.35,-1.626 5.169,-2.011 9.262,-1.968 18.356,3.949 20.324,13.21 1.968,9.261 -3.953,18.361 -13.214,20.325 -9.262,1.963 -18.356,-3.953 -20.325,-13.21 h -5.99 c -1.382,0 -2.693,-0.586 -3.62,-1.605 l -20.176,-21.509 -1.146,3.778 c 7.39,3.131 11.613,10.971 10.162,18.864 -1.706,9.313 -10.635,15.479 -19.949,13.774 -9.305,-1.706 -15.471,-10.635 -13.765,-19.949 1.705,-9.314 10.634,-15.479 19.948,-13.774 l 4.889,-16.057 c 0.734,-2.414 2.965,-4.058 5.475,-4.058 h 6.611 v 3.761 h -6.611 c -0.857,0 -1.618,0.568 -1.871,1.39 l -1.373,4.5 c 0.001,-10e-4 26.307,9.256 26.298,9.265 z"
   id="path2988"
   inkscape:connector-curvature="0" />
</g>
<g
   id="LWPOLYLINE_388_"
   transform="translate(-13.922,-89.083)">
	<polygon
   style="fill:#005cb9"
   points="215.661,143.188 194.47,120.607 194.505,120.647 194.47,120.607 220.602,129.816 "
   id="polygon2991" />
</g>
<g
   id="LWPOLYLINE_389_"
   transform="translate(-13.922,-89.083)">
	<path
   style="fill:#005cb9"
   d="m 230.249,134.972 c -2.405,2.449 -3.778,5.737 -3.831,9.169 h 10.259 z"
   id="path2994"
   inkscape:connector-curvature="0" />
</g>
<g
   id="LWPOLYLINE_390_"
   transform="translate(-13.922,-89.083)">
	<path
   style="fill:#005cb9"
   d="m 222.657,144.141 c 0.053,-4.661 2.012,-9.1 5.405,-12.292 l -2.746,-3.927 -5.999,16.218 h 3.366 -0.026 z"
   id="path2997"
   inkscape:connector-curvature="0" />
</g>
<g
   id="LWPOLYLINE_392_"
   transform="translate(-13.922,-89.083)">
	<path
   style="fill:#005cb9"
   d="m 241.198,144.041 c 0.288,0.416 0.445,0.905 0.445,1.408 0,1.355 -1.102,2.458 -2.457,2.458 h -12.287 c 1.959,7.119 9.331,11.303 16.45,9.34 7.127,-1.964 11.308,-9.332 9.349,-16.455 -1.968,-7.124 -9.331,-11.304 -16.459,-9.345 -1.05,0.289 -2.055,0.708 -3,1.238 z"
   id="path3000"
   inkscape:connector-curvature="0" />
</g>
<g
   id="LWPOLYLINE_393_"
   transform="translate(-13.922,-89.083)">
	<path
   style="fill:#005cb9"
   d="m 190.981,132.191 -3.761,12.34 c -0.017,0.113 -0.052,0.218 -0.096,0.323 -0.394,0.967 -1.495,1.435 -2.458,1.041 -0.971,-0.394 -1.434,-1.496 -1.04,-2.458 l 3.752,-12.322 c -7.303,-1.093 -14.115,3.944 -15.209,11.251 -1.102,7.307 3.936,14.12 11.247,15.212 7.303,1.093 14.115,-3.939 15.217,-11.247 0.875,-5.889 -2.238,-11.657 -7.652,-14.14 z"
   id="path3003"
   inkscape:connector-curvature="0" />
</g>
<g
   id="LWPOLYLINE_380_"
   transform="translate(-13.922,-89.083)">
	
		<rect
   x="14.172"
   y="179.53"
   style="fill:#005eb8;stroke:#005eb8;stroke-width:0.5;stroke-miterlimit:10"
   width="396.853"
   height="156.33299"
   id="rect3006" />
</g>
<g
   id="LWPOLYLINE_382_"
   transform="translate(-13.922,-89.083)">
	<path
   style="fill:#ffffff"
   d="m 26.197,179.53 h 372.795 c 6.646,0 12.033,5.378 12.033,12.025 v 132.284 c 0,6.637 -5.387,12.023 -12.033,12.023 H 26.197 c -6.642,0 -12.024,-5.387 -12.024,-12.023 V 191.555 c -10e-4,-6.647 5.382,-12.025 12.024,-12.025 z"
   id="path3009"
   inkscape:connector-curvature="0" />
</g>
<g
   id="LWPOLYLINE_381_"
   transform="translate(-13.922,-89.083)">
	<path
   style="fill:#005eb8"
   d="m 26.197,185.538 h 372.795 c 3.323,0 6.017,2.694 6.017,6.018 V 323.84 c 0,3.318 -2.693,6.008 -6.017,6.008 H 26.197 c -3.318,0 -6.012,-2.689 -6.012,-6.008 V 191.555 c 0,-3.323 2.693,-6.017 6.012,-6.017 z"
   id="path3012"
   inkscape:connector-curvature="0" />
</g>
<g
   id="LWPOLYLINE_386_"
   transform="translate(-13.922,-89.083)">
	<path
   style="fill:#ffffff"
   d="m 367.097,300.759 c 0,4.111 3.331,7.443 7.442,7.443 4.109,0 7.441,-3.332 7.441,-7.443 v -12.174 c 0,-4.109 -3.332,-7.441 -7.441,-7.441 -4.111,0 -7.442,3.332 -7.442,7.441 z"
   id="path3015"
   inkscape:connector-curvature="0" />
</g>
<g
   id="LWPOLYLINE_384_"
   transform="translate(-13.922,-89.083)">
	<path
   style="fill:#ffffff"
   d="m 322.452,298.28 v -5.646 c 1.285,-7.49 4.434,-14.543 9.147,-20.508 h 7.215 c -4.163,4.203 -7.346,9.279 -9.313,14.855 0.927,-0.285 1.897,-0.426 2.868,-0.426 5.483,0 9.926,4.443 9.926,9.918 v 1.807 c 0,5.479 -4.442,9.922 -9.926,9.922 -5.475,0 -9.917,-4.443 -9.917,-9.922 z"
   id="path3018"
   inkscape:connector-curvature="0" />
</g>
<g
   id="ELLIPSE_18_"
   transform="translate(-13.922,-89.083)">
	<path
   style="fill:#ffffff"
   d="m 300.806,290.163 c 0,-14.941 -12.112,-27.057 -27.059,-27.057 -14.945,0 -27.058,12.115 -27.058,27.057 0,14.942 12.112,27.059 27.058,27.059 14.947,0 27.059,-12.118 27.059,-27.059"
   id="path3021"
   inkscape:connector-curvature="0" />
</g>
<g
   id="ELLIPSE_19_"
   transform="translate(-13.922,-89.083)">
	<path
   style="fill:#e4002b"
   d="m 297.797,290.163 c 0,-13.283 -10.766,-24.053 -24.05,-24.053 -13.284,0 -24.05,10.77 -24.05,24.053 0,13.281 10.766,24.051 24.05,24.051 13.284,0 24.05,-10.77 24.05,-24.051"
   id="path3024"
   inkscape:connector-curvature="0" />
</g>
<g
   id="LWPOLYLINE_369_"
   transform="translate(-13.922,-89.083)">
	<path
   style="fill:#ffffff"
   d="m 48.625,291.97 h 7.036 c 5.081,0 9.2,-4.119 9.2,-9.199 v -1.443 c 0,-5.082 -4.119,-9.201 -9.2,-9.201 H 43.216 v 36.076 h 5.408 V 291.97 Z"
   id="path3027"
   inkscape:connector-curvature="0" />
</g>
<g
   id="LWPOLYLINE_370_"
   transform="translate(-13.922,-89.083)">
	<rect
   x="68.827003"
   y="281.14401"
   style="fill:#ffffff"
   width="5.414"
   height="27.059"
   id="rect3030" />
</g>
<g
   id="LWPOLYLINE_372_"
   transform="translate(-13.922,-89.083)">
	<path
   style="fill:#ffffff"
   d="m 86.869,289.442 v 18.76 h -5.413 v -27.059 h 5.413 v 1.451 c 1.902,-0.953 4.003,-1.451 6.128,-1.451 v 5.719 c -1.416,-1.391 -3.701,-1.369 -5.096,0.053 -0.665,0.674 -1.032,1.582 -1.032,2.527 z"
   id="path3033"
   inkscape:connector-curvature="0" />
</g>
<g
   id="LWPOLYLINE_373_"
   transform="translate(-13.922,-89.083)">
	<polygon
   style="fill:#ffffff"
   points="96.967,272.126 102.381,272.126 102.381,292.058 109.596,281.144 115.009,281.144 108.835,290.409 115.044,308.21 109.596,308.202 105.25,295.782 102.381,300.085 102.381,308.202 96.967,308.202 "
   id="polygon3036" />
</g>
<g
   id="LWPOLYLINE_374_"
   transform="translate(-13.922,-89.083)">
	<polygon
   style="fill:#ffffff"
   points="119.697,272.126 125.11,272.126 125.11,292.058 132.326,281.144 137.739,281.144 131.556,290.409 137.774,308.21 132.326,308.202 127.979,295.782 125.11,300.085 125.11,308.202 119.697,308.202 "
   id="polygon3039" />
</g>
<g
   id="LWPOLYLINE_375_"
   transform="translate(-13.922,-89.083)">
	<path
   style="fill:#ffffff"
   d="m 159.025,308.202 h -5.413 v -1.732 c -2.178,1.172 -4.609,1.766 -7.084,1.732 -2.222,0.057 -4.215,-1.344 -4.924,-3.451 -0.874,-2.768 -0.14,-5.793 1.915,-7.84 2.633,-2.83 6.236,-4.561 10.093,-4.846 v -2.807 c 0,-1.49 -1.216,-2.703 -2.711,-2.703 -1.487,0 -2.702,1.213 -2.702,2.703 h -5.414 c 0,-4.479 3.639,-8.115 8.116,-8.115 4.486,0 8.124,3.637 8.124,8.115 z"
   id="path3042"
   inkscape:connector-curvature="0" />
</g>
<g
   id="LWPOLYLINE_377_"
   transform="translate(-13.922,-89.083)">
	<rect
   x="165.51401"
   y="272.12601"
   style="fill:#ffffff"
   width="5.4130001"
   height="36.076"
   id="rect3045" />
</g>
<g
   id="LWPOLYLINE_378_"
   transform="translate(-13.922,-89.083)">
	<path
   style="fill:#ffffff"
   d="m 194.742,308.202 h -5.413 v -1.732 c -2.178,1.172 -4.609,1.766 -7.084,1.732 -2.222,0.057 -4.216,-1.344 -4.924,-3.451 -0.875,-2.768 -0.14,-5.793 1.915,-7.84 2.633,-2.83 6.235,-4.561 10.093,-4.846 v -2.807 c 0,-1.49 -1.216,-2.703 -2.711,-2.703 -1.487,0 -2.703,1.213 -2.703,2.703 h -5.413 c 0,-4.479 3.638,-8.115 8.116,-8.115 4.486,0 8.124,3.637 8.124,8.115 z"
   id="path3048"
   inkscape:connector-curvature="0" />
</g>
<g
   id="LWPOLYLINE_355_"
   transform="translate(-13.922,-89.083)">
	<polygon
   style="fill:#ffffff"
   points="66.663,212.597 57.646,212.597 57.646,243.263 52.232,243.263 52.232,212.597 43.216,212.597 43.216,207.183 66.663,207.183 "
   id="polygon3051" />
</g>
<g
   id="LWPOLYLINE_356_"
   transform="translate(-13.922,-89.083)">
	<path
   style="fill:#ffffff"
   d="m 86.869,243.263 h -5.413 v -1.732 c -2.174,1.176 -4.609,1.771 -7.08,1.732 -2.221,0.057 -4.22,-1.344 -4.923,-3.451 -0.879,-2.764 -0.141,-5.789 1.915,-7.84 2.632,-2.828 6.235,-4.561 10.088,-4.846 v -2.803 c 0,-1.494 -1.212,-2.707 -2.707,-2.707 -1.491,0 -2.702,1.213 -2.702,2.707 h -5.414 c 0,-4.486 3.634,-8.115 8.116,-8.115 4.486,0 8.12,3.629 8.12,8.115 z"
   id="path3054"
   inkscape:connector-curvature="0" />
</g>
<g
   id="LWPOLYLINE_358_"
   transform="translate(-13.922,-89.083)">
	<path
   style="fill:#ffffff"
   d="m 109.097,217.739 c -1.172,-0.988 -2.658,-1.531 -4.188,-1.531 -2.178,0.268 -4.269,1.006 -6.14,2.16 v -2.16 h -5.404 v 27.055 h 5.404 V 224.14 c 0,-1.988 1.618,-3.604 3.612,-3.604 1.993,0 3.611,1.615 3.611,3.604 v 19.123 h 5.405 V 224.14 c 0,-1.988 1.617,-3.604 3.611,-3.604 1.994,0 3.604,1.615 3.604,3.604 v 19.123 h 5.413 v -20.617 c -0.245,-3.469 -3.026,-6.219 -6.489,-6.438 -2.903,-0.375 -5.85,0.158 -8.439,1.531 z"
   id="path3057"
   inkscape:connector-curvature="0" />
</g>
<g
   id="LWPOLYLINE_359_"
   transform="translate(-13.922,-89.083)">
	<path
   style="fill:#ffffff"
   d="m 148.557,236.589 -0.009,-14.836 c -0.612,-3.131 -3.297,-5.432 -6.48,-5.545 -2.169,0.271 -4.259,0.996 -6.14,2.129 v -2.129 h -5.404 v 34.273 h 5.404 v -9.385 c 1.872,1.16 3.962,1.898 6.14,2.166 3.586,0 6.489,-2.908 6.489,-6.494 z"
   id="path3060"
   inkscape:connector-curvature="0" />
</g>
<g
   id="LWPOLYLINE_361_"
   transform="translate(-13.922,-89.083)">
	<path
   style="fill:#ffffff"
   d="m 166.599,234.241 h 5.413 c 0,4.984 -4.04,9.021 -9.025,9.021 -4.977,0 -9.017,-4.037 -9.017,-9.021 v -9.016 c 0,-4.982 4.04,-9.018 9.017,-9.018 4.985,0 9.025,4.035 9.025,9.018 v 5.049 h -12.629 v 3.967 c 0,1.994 1.618,3.611 3.604,3.611 1.994,0.001 3.612,-1.617 3.612,-3.611 z"
   id="path3063"
   inkscape:connector-curvature="0" />
</g>
<g
   id="LWPOLYLINE_363_"
   transform="translate(-13.922,-89.083)">
	<path
   style="fill:#ffffff"
   d="m 183.915,224.503 v 18.76 h -5.413 v -27.055 h 5.413 v 1.443 c 1.906,-0.949 4.006,-1.443 6.131,-1.443 v 5.719 c -1.417,-1.395 -3.708,-1.373 -5.099,0.053 -0.665,0.673 -1.032,1.58 -1.032,2.523 z"
   id="path3066"
   inkscape:connector-curvature="0" />
</g>
<g
   id="LWPOLYLINE_364_"
   transform="translate(-13.922,-89.083)">
	<path
   style="fill:#ffffff"
   d="m 205.202,234.241 h 5.413 c 0,4.984 -4.04,9.021 -9.025,9.021 -4.977,0 -9.017,-4.037 -9.017,-9.021 v -9.016 c 0,-4.982 4.04,-9.018 9.017,-9.018 4.985,0 9.025,4.035 9.025,9.018 v 5.049 h -12.629 v 3.967 c 0,1.994 1.618,3.611 3.604,3.611 1.993,0.001 3.612,-1.617 3.612,-3.611 z"
   id="path3069"
   inkscape:connector-curvature="0" />
</g>
<g
   id="ELLIPSE_16_"
   transform="translate(-13.922,-89.083)">
	<path
   style="fill:#ffffff"
   d="m 300.806,225.226 c 0,-14.947 -12.112,-27.059 -27.059,-27.059 -14.945,0 -27.058,12.111 -27.058,27.059 0,14.945 12.112,27.057 27.058,27.057 14.947,-10e-4 27.059,-12.112 27.059,-27.057"
   id="path3072"
   inkscape:connector-curvature="0" />
</g>
<g
   id="ELLIPSE_17_"
   transform="translate(-13.922,-89.083)">
	<path
   style="fill:#e4002b"
   d="m 297.797,225.226 c 0,-13.285 -10.766,-24.051 -24.05,-24.051 -13.284,0 -24.05,10.766 -24.05,24.051 0,13.283 10.766,24.049 24.05,24.049 13.284,0 24.05,-10.766 24.05,-24.049"
   id="path3075"
   inkscape:connector-curvature="0" />
</g>
<g
   id="LWPOLYLINE_395_"
   transform="translate(-13.922,-89.083)">
	<path
   style="fill:#ffffff"
   d="m 268.658,223.991 c -1.504,1.408 -2.353,3.371 -2.353,5.428 v 1.893 c 0,4.109 3.332,7.441 7.442,7.441 4.11,0 7.442,-3.332 7.442,-7.441 v -1.893 c 0,-2.057 -0.848,-4.02 -2.353,-5.428 1.085,-1.232 1.671,-2.811 1.671,-4.451 v -1.08 c 0,-3.738 -3.026,-6.764 -6.761,-6.764 -3.733,0 -6.769,3.025 -6.769,6.764 v 1.08 c 0.002,1.641 0.597,3.219 1.681,4.451 z"
   id="path3078"
   inkscape:connector-curvature="0" />
</g>
<g
   id="LWPOLYLINE_394_"
   transform="translate(-13.922,-89.083)">
	<path
   style="fill:#e4002b"
   d="m 270.364,231.312 c 0,1.871 1.513,3.385 3.384,3.385 1.872,0 3.385,-1.514 3.385,-3.385 v -1.893 c 0,-1.867 -1.513,-3.381 -3.385,-3.381 -1.871,0 -3.384,1.514 -3.384,3.381 z"
   id="path3081"
   inkscape:connector-curvature="0" />
</g>
<g
   id="LWPOLYLINE_396_"
   transform="translate(-13.922,-89.083)">
	<path
   style="fill:#e4002b"
   d="m 271.045,218.46 v 1.08 c 0,1.496 1.207,2.711 2.702,2.711 1.496,0 2.703,-1.215 2.703,-2.711 v -1.08 c 0,-1.496 -1.207,-2.707 -2.703,-2.707 -1.495,0 -2.702,1.211 -2.702,2.707 z"
   id="path3084"
   inkscape:connector-curvature="0" />
</g>
<g
   id="LWPOLYLINE_357_"
   transform="translate(-13.922,-89.083)">
	<path
   style="fill:#005eb8"
   d="m 81.456,230.651 c -1.807,0.438 -3.481,1.295 -4.889,2.506 -1.264,1.109 -1.981,2.715 -1.964,4.398 0.026,1.094 0.936,1.963 2.029,1.941 0.092,-0.004 0.179,-0.014 0.271,-0.025 1.592,-0.258 3.131,-0.779 4.553,-1.549 z"
   id="path3087"
   inkscape:connector-curvature="0" />
</g>
<g
   id="LWPOLYLINE_360_"
   transform="translate(-13.922,-89.083)">
	<path
   style="fill:#005eb8"
   d="M 135.928,235.325 V 224.14 c 0,-1.988 1.618,-3.604 3.612,-3.604 1.994,0 3.611,1.615 3.611,3.604 v 11.186 c 0,1.994 -1.617,3.607 -3.611,3.607 -1.994,0 -3.612,-1.614 -3.612,-3.608 z"
   id="path3090"
   inkscape:connector-curvature="0" />
</g>
<g
   id="LWPOLYLINE_362_"
   transform="translate(-13.922,-89.083)">
	<path
   style="fill:#005eb8"
   d="m 159.383,225.583 h 7.216 v -0.357 c 0,-1.994 -1.618,-3.609 -3.612,-3.609 -1.985,0 -3.604,1.615 -3.604,3.609 z"
   id="path3093"
   inkscape:connector-curvature="0" />
</g>
<g
   id="LWPOLYLINE_365_"
   transform="translate(-13.922,-89.083)">
	<path
   style="fill:#005eb8"
   d="m 197.986,225.583 h 7.216 v -0.357 c 0,-1.994 -1.618,-3.609 -3.612,-3.609 -1.985,0 -3.604,1.615 -3.604,3.609 z"
   id="path3096"
   inkscape:connector-curvature="0" />
</g>
<g
   id="LWPOLYLINE_368_"
   transform="translate(-13.922,-89.083)">
	<path
   style="fill:#005eb8"
   d="m 48.625,286.556 h 7.036 c 2.095,0 3.787,-1.695 3.787,-3.785 v -1.443 c 0,-2.096 -1.692,-3.791 -3.787,-3.791 h -7.036 z"
   id="path3099"
   inkscape:connector-curvature="0" />
</g>
<g
   id="LWPOLYLINE_376_"
   transform="translate(-13.922,-89.083)">
	<path
   style="fill:#005eb8"
   d="m 153.612,295.591 c -1.811,0.438 -3.48,1.293 -4.889,2.5 -1.269,1.111 -1.985,2.721 -1.968,4.404 0.026,1.098 0.936,1.963 2.029,1.938 0.096,0 0.184,-0.01 0.271,-0.021 1.592,-0.26 3.131,-0.783 4.557,-1.549 z"
   id="path3102"
   inkscape:connector-curvature="0" />
</g>
<g
   id="LWPOLYLINE_379_"
   transform="translate(-13.922,-89.083)">
	<path
   style="fill:#005eb8"
   d="m 189.329,295.591 c -1.811,0.438 -3.481,1.293 -4.89,2.5 -1.268,1.111 -1.984,2.721 -1.968,4.404 0.026,1.098 0.937,1.963 2.029,1.938 0.097,0 0.184,-0.01 0.271,-0.021 1.592,-0.26 3.131,-0.783 4.557,-1.549 v -7.272 z"
   id="path3105"
   inkscape:connector-curvature="0" />
</g>
<g
   id="LWPOLYLINE_383_"
   transform="translate(-13.922,-89.083)">
	<path
   style="fill:#005eb8"
   d="m 327.865,298.28 c 0,2.492 2.021,4.508 4.504,4.508 2.492,0 4.513,-2.016 4.513,-4.508 v -1.807 c 0,-2.488 -2.021,-4.504 -4.513,-4.504 -2.483,0 -4.504,2.016 -4.504,4.504 z"
   id="path3108"
   inkscape:connector-curvature="0" />
</g>
<g
   id="LWPOLYLINE_387_"
   transform="translate(-13.922,-89.083)">
	<path
   style="fill:#005eb8"
   d="m 371.155,300.759 c 0,1.871 1.513,3.385 3.385,3.385 1.862,0 3.384,-1.514 3.384,-3.385 v -12.174 c 0,-1.867 -1.521,-3.385 -3.384,-3.385 -1.872,0 -3.385,1.518 -3.385,3.385 z"
   id="path3111"
   inkscape:connector-curvature="0" />
</g>
<g
   id="LWPOLYLINE_366_"
   transform="translate(-13.922,-89.083)">
	<path
   style="fill:#ffffff"
   d="m 332.824,212.491 c 2.134,-1.105 3.734,-3.018 4.451,-5.309 h 5.475 v 36.08 h -5.413 v -27.781 l -3.971,0.727 z"
   id="path3114"
   inkscape:connector-curvature="0" />
</g>
<g
   id="LWPOLYLINE_367_"
   transform="translate(-13.922,-89.083)">
	<path
   style="fill:#ffffff"
   d="m 351.766,233.341 c 0,5.482 4.442,9.922 9.917,9.922 5.483,0 9.927,-4.439 9.927,-9.922 v -2.16 c 0,-2.93 -1.295,-5.711 -3.533,-7.596 1.688,-1.807 2.632,-4.186 2.632,-6.66 v -0.717 c 0,-4.984 -4.04,-9.025 -9.025,-9.025 -4.976,0 -9.017,4.041 -9.017,9.025 v 0.717 h 5.414 v -0.717 c 0,-1.994 1.608,-3.611 3.603,-3.611 1.995,0 3.612,1.617 3.612,3.611 v 0.717 c 0,2.393 -1.941,4.33 -4.329,4.33 h -0.726 v 5.055 h 1.442 c 2.493,0 4.513,2.016 4.513,4.508 v 2.523 c 0,2.492 -2.02,4.512 -4.513,4.512 -2.492,0 -4.504,-2.02 -4.504,-4.512 z"
   id="path3117"
   inkscape:connector-curvature="0" />
</g>
<g
   id="LWPOLYLINE_371_"
   transform="translate(-13.922,-89.083)">
	<rect
   x="68.827003"
   y="272.12601"
   style="fill:#ffffff"
   width="5.414"
   height="5.4099998"
   id="rect3120" />
</g>
<g
   id="LWPOLYLINE_385_"
   transform="translate(-13.922,-89.083)">
	<path
   style="fill:#ffffff"
   d="m 350.113,312.714 4.364,-5.08 c 1.181,-0.914 1.391,-2.615 0.481,-3.797 -0.919,-1.18 -2.615,-1.395 -3.796,-0.48 -0.665,0.516 -1.05,1.303 -1.05,2.143 v 7.214 z"
   id="path3123"
   inkscape:connector-curvature="0" />
</g>
<g
   id="LWPOLYLINE_397_"
   transform="translate(-13.922,-89.083)">
	<path
   style="fill:#ffffff"
   d="m 259.205,280.61 c 1.601,-0.828 2.798,-2.258 3.341,-3.977 h 4.102 v 27.059 h -4.059 v -20.836 l -2.973,0.543 z"
   id="path3126"
   inkscape:connector-curvature="0" />
</g>
<g
   id="LWPOLYLINE_398_"
   transform="translate(-13.922,-89.083)">
	<path
   style="fill:#ffffff"
   d="m 273.407,296.251 c 0,4.109 3.332,7.441 7.442,7.441 4.11,0 7.442,-3.332 7.442,-7.441 v -1.623 c 0,-2.195 -0.971,-4.281 -2.649,-5.693 1.268,-1.355 1.976,-3.139 1.976,-4.992 V 283.4 c 0,-3.734 -3.034,-6.766 -6.769,-6.766 -3.735,0 -6.76,3.031 -6.76,6.766 v 0.543 h 4.058 V 283.4 c 0,-1.496 1.207,-2.707 2.702,-2.707 1.495,0 2.711,1.211 2.711,2.707 v 0.543 c 0,1.791 -1.46,3.244 -3.253,3.244 h -0.542 v 3.787 h 1.084 c 1.872,0 3.385,1.516 3.385,3.383 v 1.895 c 0,1.867 -1.513,3.379 -3.385,3.379 -1.862,0 -3.385,-1.512 -3.385,-3.379 h -4.057 z"
   id="path3129"
   inkscape:connector-curvature="0" />
</g>
</svg>