<?xml version="1.0" encoding="UTF-8" standalone="no"?>
<!-- Generator: Adobe Illustrator 16.0.0, SVG Export Plug-In . SVG Version: 6.00 Build 0)  -->

<svg
   xmlns:dc="http://purl.org/dc/elements/1.1/"
   xmlns:cc="http://creativecommons.org/ns#"
   xmlns:rdf="http://www.w3.org/1999/02/22-rdf-syntax-ns#"
   xmlns:svg="http://www.w3.org/2000/svg"
   xmlns="http://www.w3.org/2000/svg"
   xmlns:sodipodi="http://sodipodi.sourceforge.net/DTD/sodipodi-0.dtd"
   xmlns:inkscape="http://www.inkscape.org/namespaces/inkscape"
   version="1.1"
   id="Layer_1"
   x="0px"
   y="0px"
   width="397.353"
   height="265.07001"
   viewBox="0 0 397.35301 265.07"
   xml:space="preserve"
   sodipodi:docname="F23.svg"
   inkscape:version="0.92.5 (2060ec1f9f, 2020-04-08)"><metadata
   id="metadata3222"><rdf:RDF><cc:Work
       rdf:about=""><dc:format>image/svg+xml</dc:format><dc:type
         rdf:resource="http://purl.org/dc/dcmitype/StillImage" /></cc:Work></rdf:RDF></metadata><defs
   id="defs3220" /><sodipodi:namedview
   pagecolor="#ffffff"
   bordercolor="#666666"
   borderopacity="1"
   objecttolerance="10"
   gridtolerance="10"
   guidetolerance="10"
   inkscape:pageopacity="0"
   inkscape:pageshadow="2"
   inkscape:window-width="640"
   inkscape:window-height="480"
   id="namedview3218"
   showgrid="false"
   inkscape:zoom="0.55503813"
   inkscape:cx="198.6765"
   inkscape:cy="132.53499"
   inkscape:window-x="0"
   inkscape:window-y="0"
   inkscape:window-maximized="0"
   inkscape:current-layer="Layer_1" />
<g
   id="LWPOLYLINE_237_"
   transform="translate(-13.922,-80.063004)">
	
		<rect
   x="14.172"
   y="80.313004"
   style="fill:#005eb8;stroke:#005eb8;stroke-width:0.5;stroke-miterlimit:10"
   width="396.853"
   height="132.285"
   id="rect3139" />
</g>
<g
   id="LWPOLYLINE_239_"
   transform="translate(-13.922,-80.063004)">
	<path
   style="fill:#ffffff"
   d="m 31.809,80.313 h 361.572 c 9.742,0 17.644,7.898 17.644,17.641 v 97.005 c 0,9.741 -7.901,17.64 -17.644,17.64 H 31.809 c -9.739,0 -17.637,-7.898 -17.637,-17.64 V 97.954 c 0,-9.742 7.898,-17.641 17.637,-17.641 z"
   id="path3142"
   inkscape:connector-curvature="0" />
</g>
<g
   id="LWPOLYLINE_238_"
   transform="translate(-13.922,-80.063004)">
	<path
   style="fill:#005eb8"
   d="m 31.809,89.132 h 361.572 c 4.874,0 8.818,3.951 8.818,8.822 v 97.005 c 0,4.874 -3.944,8.821 -8.818,8.821 H 31.809 c -4.871,0 -8.818,-3.947 -8.818,-8.821 V 97.954 c 0,-4.871 3.947,-8.822 8.818,-8.822 z"
   id="path3145"
   inkscape:connector-curvature="0" />
</g>
<g
   id="LWPOLYLINE_246_"
   transform="translate(-13.922,-80.063004)">
	
		<rect
   x="14.172"
   y="212.599"
   style="fill:#005eb8;stroke:#005eb8;stroke-width:0.5;stroke-miterlimit:10"
   width="396.853"
   height="132.284"
   id="rect3148" />
</g>
<g
   id="LWPOLYLINE_248_"
   transform="translate(-13.922,-80.063004)">
	<path
   style="fill:#ffffff"
   d="m 31.809,212.599 h 361.572 c 9.742,0 17.644,7.898 17.644,17.64 v 97.005 c 0,9.742 -7.901,17.64 -17.644,17.64 H 31.809 c -9.739,0 -17.637,-7.897 -17.637,-17.64 v -97.005 c 0,-9.742 7.898,-17.64 17.637,-17.64 z"
   id="path3151"
   inkscape:connector-curvature="0" />
</g>
<g
   id="LWPOLYLINE_247_"
   transform="translate(-13.922,-80.063004)">
	<path
   style="fill:#005eb8"
   d="m 31.809,221.417 h 361.572 c 4.874,0 8.818,3.947 8.818,8.821 v 97.005 c 0,4.871 -3.944,8.821 -8.818,8.821 H 31.809 c -4.871,0 -8.818,-3.95 -8.818,-8.821 v -97.005 c 0,-4.874 3.947,-8.821 8.818,-8.821 z"
   id="path3154"
   inkscape:connector-curvature="0" />
</g>
<g
   id="LWPOLYLINE_224_"
   transform="translate(-13.922,-80.063004)">
	<path
   style="fill:#ffffff"
   d="m 64.173,281.385 h 10.319 c 7.452,0 13.494,-6.041 13.494,-13.494 v -2.116 c 0,-7.452 -6.042,-13.49 -13.494,-13.49 H 56.237 v 52.913 h 7.937 v -23.813 z"
   id="path3157"
   inkscape:connector-curvature="0" />
</g>
<g
   id="LWPOLYLINE_225_"
   transform="translate(-13.922,-80.063004)">
	<path
   style="fill:#ffffff"
   d="m 92.749,295.407 v -29.896 h 7.937 v 28.046 c 0,2.921 2.369,5.291 5.291,5.291 2.924,0 5.291,-2.37 5.291,-5.291 v -28.046 h 7.937 v 39.686 h -7.937 v -3.175 c -2.732,1.696 -5.801,2.777 -8.995,3.175 -5.259,0 -9.523,-4.265 -9.523,-9.523 v -0.267 z"
   id="path3160"
   inkscape:connector-curvature="0" />
</g>
<g
   id="LWPOLYLINE_226_"
   transform="translate(-13.922,-80.063004)">
	<path
   style="fill:#ffffff"
   d="m 156.244,275.299 v 29.898 h -7.937 v -28.045 c 0,-2.922 -2.37,-5.291 -5.291,-5.291 -2.921,0 -5.291,2.369 -5.291,5.291 v 28.045 h -7.937 v -39.686 h 7.937 v 3.175 c 2.732,-1.696 5.801,-2.78 8.994,-3.175 5.26,0 9.524,4.265 9.524,9.523 v 0.265 z"
   id="path3163"
   inkscape:connector-curvature="0" />
</g>
<g
   id="LWPOLYLINE_227_"
   transform="translate(-13.922,-80.063004)">
	<polygon
   style="fill:#ffffff"
   points="165.767,252.284 173.707,252.284 173.704,281.52 184.289,265.512 192.225,265.512 183.167,279.102 192.277,305.21 184.289,305.197 177.915,286.98 173.707,293.291 173.707,305.197 165.767,305.197 "
   id="polygon3166" />
</g>
<g
   id="LWPOLYLINE_228_"
   transform="translate(-13.922,-80.063004)">
	<path
   style="fill:#ffffff"
   d="m 223.443,305.197 h -7.937 v -2.539 c -3.188,1.719 -6.764,2.591 -10.387,2.536 -3.255,0.087 -6.189,-1.966 -7.222,-5.057 -1.289,-4.06 -0.202,-8.498 2.815,-11.503 3.861,-4.146 9.143,-6.686 14.793,-7.105 v -4.114 c 0,-2.19 -1.777,-3.967 -3.967,-3.967 -2.193,0 -3.97,1.776 -3.97,3.967 h -7.937 c 0,-6.574 5.329,-11.903 11.906,-11.903 6.573,0 11.903,5.329 11.903,11.903 v 27.782 z"
   id="path3169"
   inkscape:connector-curvature="0" />
</g>
<g
   id="LWPOLYLINE_230_"
   transform="translate(-13.922,-80.063004)">
	<path
   style="fill:#ffffff"
   d="m 259.426,275.299 v -0.264 c 0,-5.259 -4.265,-9.523 -9.523,-9.523 -3.194,0.395 -6.267,1.479 -8.998,3.175 v -16.402 h -7.936 v 52.913 h 7.936 v -28.045 c 0,-2.922 2.373,-5.291 5.291,-5.291 2.924,0 5.291,2.369 5.291,5.291 v 28.045 h 7.939 z"
   id="path3172"
   inkscape:connector-curvature="0" />
</g>
<g
   id="LWPOLYLINE_231_"
   transform="translate(-13.922,-80.063004)">
	<path
   style="fill:#ffffff"
   d="m 293.289,305.197 h -7.934 v -2.539 c -3.188,1.719 -6.766,2.591 -10.39,2.536 -3.258,0.087 -6.188,-1.966 -7.221,-5.057 -1.289,-4.06 -0.206,-8.498 2.815,-11.503 3.86,-4.146 9.146,-6.686 14.795,-7.105 v -4.114 c 0,-2.19 -1.776,-3.967 -3.97,-3.967 -2.194,0 -3.97,1.776 -3.97,3.967 h -7.939 c 0,-6.574 5.336,-11.903 11.909,-11.903 6.574,0 11.903,5.329 11.903,11.903 v 27.782 z"
   id="path3175"
   inkscape:connector-curvature="0" />
</g>
<g
   id="LWPOLYLINE_233_"
   transform="translate(-13.922,-80.063004)">
	<path
   style="fill:#ffffff"
   d="m 310.752,277.681 v 27.517 h -7.94 v -39.686 h 7.94 v 2.123 c 2.789,-1.396 5.874,-2.123 8.991,-2.123 v 8.392 c -2.084,-2.046 -5.433,-2.011 -7.479,0.074 -0.967,0.987 -1.512,2.321 -1.512,3.703 z"
   id="path3178"
   inkscape:connector-curvature="0" />
</g>
<g
   id="LWPOLYLINE_234_"
   transform="translate(-13.922,-80.063004)">
	<path
   style="fill:#ffffff"
   d="m 332.974,265.512 v 38.628 c 0,6.426 -5.214,11.64 -11.64,11.64 h -1.059 l 1.059,-7.937 c 2.046,0 3.7,-1.657 3.7,-3.703 v -38.628 z"
   id="path3181"
   inkscape:connector-curvature="0" />
</g>
<g
   id="LWPOLYLINE_235_"
   transform="translate(-13.922,-80.063004)">
	<rect
   x="325.035"
   y="252.284"
   style="fill:#ffffff"
   width="7.9390001"
   height="7.9369998"
   id="rect3184" />
</g>
<g
   id="LWPOLYLINE_236_"
   transform="translate(-13.922,-80.063004)">
	<path
   style="fill:#ffffff"
   d="m 342.498,295.407 v -29.896 h 7.94 v 28.046 c 0,2.921 2.366,5.291 5.291,5.291 2.918,0 5.291,-2.37 5.291,-5.291 v -28.046 h 7.933 v 39.686 h -7.933 v -3.175 c -2.732,1.696 -5.805,2.777 -8.998,3.175 -5.259,0 -9.524,-4.265 -9.524,-9.523 z"
   id="path3187"
   inkscape:connector-curvature="0" />
</g>
<g
   id="LWPOLYLINE_243_"
   transform="translate(-13.922,-80.063004)">
	<path
   style="fill:#ffffff"
   d="m 226.254,134.513 6.629,-17.919 -9.313,-2.556 c -0.562,-0.215 -0.92,-0.766 -0.885,-1.366 0.041,-0.76 0.692,-1.34 1.452,-1.298 h 0.729 20.13 v 5.438 h -6.317 l -5.104,13.811 6.123,8.738 c 2.348,-1.389 4.906,-2.386 7.574,-2.95 13.583,-2.88 26.93,5.795 29.81,19.375 2.879,13.583 -5.798,26.93 -19.382,29.81 -13.577,2.879 -26.925,-5.798 -29.804,-19.379 h -8.79 c -2.026,0 -3.954,-0.853 -5.319,-2.347 l -29.582,-31.544 -1.687,5.531 c 10.839,4.595 17.033,16.095 14.914,27.674 -2.501,13.657 -15.601,22.7 -29.258,20.199 -13.657,-2.502 -22.7,-15.602 -20.198,-29.259 2.501,-13.656 15.601,-22.699 29.257,-20.198 l 7.181,-23.553 c 1.077,-3.534 4.335,-5.948 8.029,-5.948 h 9.688 v 5.515 h -9.688 c -1.267,0 -2.383,0.831 -2.752,2.04 l -2.01,6.596 c 10e-4,0 38.577,13.58 38.573,13.59 z"
   id="path3190"
   inkscape:connector-curvature="0" />
</g>
<g
   id="LWPOLYLINE_223_"
   transform="translate(-13.922,-80.063004)">
	<path
   style="fill:#005eb8"
   d="m 64.173,273.448 h 10.319 c 3.069,0 5.558,-2.485 5.558,-5.558 v -2.116 c 0,-3.065 -2.488,-5.554 -5.558,-5.554 H 64.173 Z"
   id="path3193"
   inkscape:connector-curvature="0" />
</g>
<g
   id="LWPOLYLINE_229_"
   transform="translate(-13.922,-80.063004)">
	<path
   style="fill:#005eb8"
   d="m 215.506,286.701 c -2.646,0.639 -5.105,1.896 -7.171,3.669 -1.854,1.629 -2.905,3.989 -2.876,6.458 0.035,1.604 1.369,2.88 2.976,2.841 0.132,0 0.263,-0.013 0.395,-0.035 2.338,-0.375 4.595,-1.145 6.677,-2.267 v -10.666 z"
   id="path3196"
   inkscape:connector-curvature="0" />
</g>
<g
   id="LWPOLYLINE_232_"
   transform="translate(-13.922,-80.063004)">
	<path
   style="fill:#005eb8"
   d="m 285.355,286.701 c -2.648,0.639 -5.104,1.896 -7.176,3.669 -1.854,1.629 -2.899,3.989 -2.874,6.458 0.039,1.604 1.366,2.88 2.977,2.841 0.128,0 0.263,-0.013 0.391,-0.035 2.341,-0.375 4.599,-1.145 6.683,-2.267 v -10.666 z"
   id="path3199"
   inkscape:connector-curvature="0" />
</g>
<g
   id="LWPOLYLINE_240_"
   transform="translate(-13.922,-80.063004)">
	<polygon
   style="fill:#005eb8"
   points="217.086,159.301 186.004,126.182 186.062,126.239 186.004,126.182 224.34,139.688 "
   id="polygon3202" />
</g>
<g
   id="LWPOLYLINE_241_"
   transform="translate(-13.922,-80.063004)">
	<path
   style="fill:#005eb8"
   d="m 238.487,147.25 c -3.529,3.598 -5.543,8.414 -5.62,13.448 h 15.041 z"
   id="path3205"
   inkscape:connector-curvature="0" />
</g>
<g
   id="LWPOLYLINE_242_"
   transform="translate(-13.922,-80.063004)">
	<path
   style="fill:#005eb8"
   d="m 227.351,160.698 c 0.081,-6.836 2.944,-13.346 7.931,-18.024 l -4.034,-5.756 -8.796,23.78 h 4.938 z"
   id="path3208"
   inkscape:connector-curvature="0" />
</g>
<g
   id="LWPOLYLINE_244_"
   transform="translate(-13.922,-80.063004)">
	<path
   style="fill:#005eb8"
   d="m 254.545,160.555 c 0.424,0.605 0.647,1.324 0.647,2.064 0,1.985 -1.609,3.598 -3.598,3.598 h -18.022 c 2.879,10.448 13.681,16.582 24.128,13.703 10.447,-2.88 16.585,-13.687 13.706,-24.134 -2.88,-10.447 -13.687,-16.582 -24.134,-13.699 -1.533,0.42 -3.015,1.029 -4.399,1.809 z"
   id="path3211"
   inkscape:connector-curvature="0" />
</g>
<g
   id="LWPOLYLINE_245_"
   transform="translate(-13.922,-80.063004)">
	<path
   style="fill:#005eb8"
   d="m 180.9,143.171 -5.516,18.099 c -0.035,0.163 -0.084,0.32 -0.145,0.475 -0.577,1.417 -2.19,2.101 -3.607,1.526 -1.417,-0.577 -2.101,-2.19 -1.526,-3.607 l 5.506,-18.066 c -10.717,-1.606 -20.709,5.781 -22.313,16.498 -1.606,10.717 5.779,20.709 16.499,22.313 10.717,1.609 20.708,-5.778 22.312,-16.495 1.296,-8.642 -3.274,-17.094 -11.21,-20.743 z"
   id="path3214"
   inkscape:connector-curvature="0" />
</g>
</svg>