<?xml version="1.0" encoding="UTF-8" standalone="no"?>
<!-- Generator: Adobe Illustrator 16.0.0, SVG Export Plug-In . SVG Version: 6.00 Build 0)  -->

<svg
   xmlns:dc="http://purl.org/dc/elements/1.1/"
   xmlns:cc="http://creativecommons.org/ns#"
   xmlns:rdf="http://www.w3.org/1999/02/22-rdf-syntax-ns#"
   xmlns:svg="http://www.w3.org/2000/svg"
   xmlns="http://www.w3.org/2000/svg"
   xmlns:sodipodi="http://sodipodi.sourceforge.net/DTD/sodipodi-0.dtd"
   xmlns:inkscape="http://www.inkscape.org/namespaces/inkscape"
   version="1.1"
   id="Layer_1"
   x="0px"
   y="0px"
   width="397.353"
   height="397.35599"
   viewBox="0 0 397.35301 397.35597"
   xml:space="preserve"
   sodipodi:docname="F24.3.svg"
   inkscape:version="0.92.5 (2060ec1f9f, 2020-04-08)"><metadata
   id="metadata3306"><rdf:RDF><cc:Work
       rdf:about=""><dc:format>image/svg+xml</dc:format><dc:type
         rdf:resource="http://purl.org/dc/dcmitype/StillImage" /></cc:Work></rdf:RDF></metadata><defs
   id="defs3304" /><sodipodi:namedview
   pagecolor="#ffffff"
   bordercolor="#666666"
   borderopacity="1"
   objecttolerance="10"
   gridtolerance="10"
   guidetolerance="10"
   inkscape:pageopacity="0"
   inkscape:pageshadow="2"
   inkscape:window-width="640"
   inkscape:window-height="480"
   id="namedview3302"
   showgrid="false"
   inkscape:zoom="0.55503813"
   inkscape:cx="198.6765"
   inkscape:cy="198.67798"
   inkscape:window-x="0"
   inkscape:window-y="0"
   inkscape:window-maximized="0"
   inkscape:current-layer="Layer_1" />
<g
   id="LWPOLYLINE_137_"
   transform="translate(-13.922,-13.92)">
	
		<rect
   x="14.172"
   y="14.17"
   style="fill:#005eb8;stroke:#005eb8;stroke-width:0.5;stroke-miterlimit:10"
   width="396.853"
   height="396.85599"
   id="rect3268" />
</g>
<g
   id="LWPOLYLINE_140_"
   transform="translate(-13.922,-13.92)">
	<path
   style="fill:#ffffff"
   d="m 40.628,14.17 h 343.94 c 14.613,0 26.456,11.843 26.456,26.457 v 343.942 c 0,14.609 -11.843,26.457 -26.456,26.457 H 40.628 c -14.614,0 -26.457,-11.848 -26.457,-26.457 V 40.627 C 14.172,26.013 26.015,14.17 40.628,14.17 Z"
   id="path3271"
   inkscape:connector-curvature="0" />
</g>
<g
   id="LWPOLYLINE_139_"
   transform="translate(-13.922,-13.92)">
	<path
   style="fill:#005eb8"
   d="m 40.628,27.399 h 343.94 c 7.302,0 13.228,5.926 13.228,13.228 v 343.942 c 0,7.303 -5.926,13.229 -13.228,13.229 H 40.628 c -7.307,0 -13.229,-5.926 -13.229,-13.229 V 40.627 C 27.4,33.325 33.322,27.399 40.628,27.399 Z"
   id="path3274"
   inkscape:connector-curvature="0" />
</g>
<g
   id="LWPOLYLINE_176_"
   transform="translate(-13.922,-13.92)">
	<path
   style="fill:#ffffff"
   d="m 242.457,74.587 8.717,12.439 c 3.345,-1.973 6.991,-3.396 10.791,-4.205 19.338,-4.098 38.338,8.254 42.437,27.592 4.099,19.338 -8.255,38.342 -27.592,42.441 -19.337,4.103 -38.335,-8.25 -42.438,-27.587 h -12.516 c -2.882,0 -5.629,-1.217 -7.566,-3.348 l -42.124,-44.909 -2.4,7.879 c 15.432,6.542 24.253,22.916 21.232,39.396 -3.56,19.448 -22.209,32.325 -41.657,28.766 -19.443,-3.564 -32.32,-22.214 -28.755,-41.662 3.56,-19.443 22.213,-32.32 41.657,-28.761 l 10.222,-33.537 c 1.535,-5.031 6.171,-8.466 11.434,-8.466 h 13.791 v 7.855 h -13.791 c -1.804,0 -3.396,1.179 -3.92,2.901 l -2.862,9.394 58.343,10.092 6.013,-16.258 -13.257,-3.637 c -0.798,-0.303 -1.309,-1.092 -1.26,-1.943 0.063,-1.082 0.986,-1.91 2.068,-1.852 h 1.034 28.657 v 7.745 h -8.983 z"
   id="path3277"
   inkscape:connector-curvature="0" />
</g>
<g
   id="LWPOLYLINE_171_"
   transform="translate(-13.922,-13.92)">
	<polygon
   style="fill:#ffffff"
   points="205.98,192.727 162.992,192.727 162.992,239.026 199.367,239.026 199.367,371.341 225.823,371.341 225.823,239.026 262.206,239.026 262.206,192.727 219.208,192.727 219.208,166.271 205.98,166.271 "
   id="polygon3280" />
</g>
<g
   id="LWPOLYLINE_172_"
   transform="translate(-13.922,-13.92)">
	<rect
   x="169.605"
   y="199.341"
   style="fill:#e4002b"
   width="85.981003"
   height="33.07"
   id="rect3283" />
</g>
<g
   id="LWPOLYLINE_173_"
   transform="translate(-13.922,-13.92)">
	<polygon
   style="fill:#005eb8"
   points="218.983,115.417 174.805,68.348 232.687,78.358 "
   id="polygon3286" />
</g>
<g
   id="LWPOLYLINE_174_"
   transform="translate(-13.922,-13.92)">
	<path
   style="fill:#005eb8"
   d="m 249.456,98.263 c -5.031,5.118 -7.894,11.978 -8.004,19.145 h 21.417 z"
   id="path3289"
   inkscape:connector-curvature="0" />
</g>
<g
   id="LWPOLYLINE_175_"
   transform="translate(-13.922,-13.92)">
	<path
   style="fill:#005eb8"
   d="m 233.596,117.408 c 0.115,-9.731 4.194,-19 11.29,-25.663 l -5.744,-8.202 -12.521,33.864 h 7.027 -0.052 z"
   id="path3292"
   inkscape:connector-curvature="0" />
</g>
<g
   id="LWPOLYLINE_177_"
   transform="translate(-13.922,-13.92)">
	<path
   style="fill:#005eb8"
   d="m 272.317,117.206 c 0.596,0.856 0.923,1.886 0.923,2.934 0,2.833 -2.289,5.128 -5.118,5.128 h -25.67 c 4.099,14.873 19.484,23.608 34.357,19.51 14.873,-4.103 23.608,-19.486 19.511,-34.364 -4.099,-14.874 -19.481,-23.609 -34.355,-19.51 -2.184,0.606 -4.29,1.472 -6.272,2.583 z"
   id="path3295"
   inkscape:connector-curvature="0" />
</g>
<g
   id="LWPOLYLINE_178_"
   transform="translate(-13.922,-13.92)">
	<path
   style="fill:#005eb8"
   d="m 167.46,92.453 -7.855,25.773 c -0.048,0.23 -0.12,0.452 -0.207,0.673 -0.817,2.015 -3.117,2.987 -5.137,2.169 -2.015,-0.818 -2.987,-3.117 -2.169,-5.133 l 7.841,-25.725 c -15.263,-2.29 -29.487,8.23 -31.771,23.493 -2.285,15.258 8.23,29.482 23.488,31.767 15.263,2.29 29.487,-8.23 31.771,-23.493 1.842,-12.294 -4.662,-24.33 -15.961,-29.524 z"
   id="path3298"
   inkscape:connector-curvature="0" />
</g>
</svg>