<?xml version="1.0" encoding="iso-8859-1"?>
<!-- Generator: Adobe Illustrator 16.0.0, SVG Export Plug-In . SVG Version: 6.00 Build 0)  -->
<!DOCTYPE svg PUBLIC "-//W3C//DTD SVG 1.1//EN" "http://www.w3.org/Graphics/SVG/1.1/DTD/svg11.dtd">
<svg version="1.1" id="Layer_1" xmlns="http://www.w3.org/2000/svg" xmlns:xlink="http://www.w3.org/1999/xlink" x="0px" y="0px"
	 width="425.197px" height="425.196px" viewBox="0 0 425.197 425.196" style="enable-background:new 0 0 425.197 425.196;"
	 xml:space="preserve">
<g id="LWPOLYLINE_137_">
	
		<rect x="14.172" y="14.17" style="fill:#005EB8;stroke:#005EB8;stroke-width:0.5;stroke-miterlimit:10;" width="396.853" height="396.856"/>
</g>
<g id="LWPOLYLINE_140_">
	<path style="fill:#FFFFFF;" d="M40.628,14.17h343.94c14.613,0,26.456,11.843,26.456,26.457v343.942
		c0,14.609-11.843,26.457-26.456,26.457H40.628c-14.614,0-26.457-11.848-26.457-26.457V40.627
		C14.172,26.013,26.015,14.17,40.628,14.17z"/>
</g>
<g id="LWPOLYLINE_139_">
	<path style="fill:#005EB8;" d="M40.628,27.399h343.94c7.302,0,13.228,5.926,13.228,13.228v343.942
		c0,7.303-5.926,13.229-13.228,13.229H40.628c-7.307,0-13.229-5.926-13.229-13.229V40.627C27.4,33.325,33.322,27.399,40.628,27.399z
		"/>
</g>
<g id="LWPOLYLINE_176_">
	<path style="fill:#FFFFFF;" d="M242.457,74.587l8.717,12.439c3.345-1.973,6.991-3.396,10.791-4.205
		c19.338-4.098,38.338,8.254,42.437,27.592s-8.255,38.342-27.592,42.441c-19.337,4.103-38.335-8.25-42.438-27.587h-12.516
		c-2.882,0-5.629-1.217-7.566-3.348l-42.124-44.909l-2.4,7.879c15.432,6.542,24.253,22.916,21.232,39.396
		c-3.56,19.448-22.209,32.325-41.657,28.766c-19.443-3.564-32.32-22.214-28.755-41.662c3.56-19.443,22.213-32.32,41.657-28.761
		l10.222-33.537c1.535-5.031,6.171-8.466,11.434-8.466h13.791v7.855h-13.791c-1.804,0-3.396,1.179-3.92,2.901l-2.862,9.394
		l58.343,10.092l6.013-16.258l-13.257-3.637c-0.798-0.303-1.309-1.092-1.26-1.943c0.063-1.082,0.986-1.91,2.068-1.852h1.034h28.657
		v7.745h-8.983L242.457,74.587z"/>
</g>
<g id="LWPOLYLINE_171_">
	<polygon style="fill:#FFFFFF;" points="219.208,166.271 205.98,166.271 205.98,192.727 162.992,192.727 162.992,239.026 
		199.367,239.026 199.367,371.341 225.823,371.341 225.823,239.026 262.206,239.026 262.206,192.727 219.208,192.727 	"/>
</g>
<g id="LWPOLYLINE_172_">
	<rect x="169.605" y="199.341" style="fill:#E4002B;" width="85.981" height="33.07"/>
</g>
<g id="LWPOLYLINE_173_">
	<polygon style="fill:#005EB8;" points="174.805,68.348 232.687,78.358 218.983,115.417 	"/>
</g>
<g id="LWPOLYLINE_174_">
	<path style="fill:#005EB8;" d="M249.456,98.263c-5.031,5.118-7.894,11.978-8.004,19.145h21.417L249.456,98.263z"/>
</g>
<g id="LWPOLYLINE_175_">
	<path style="fill:#005EB8;" d="M233.596,117.408c0.115-9.731,4.194-19,11.29-25.663l-5.744-8.202l-12.521,33.864h7.027H233.596z"/>
</g>
<g id="LWPOLYLINE_177_">
	<path style="fill:#005EB8;" d="M272.317,117.206c0.596,0.856,0.923,1.886,0.923,2.934c0,2.833-2.289,5.128-5.118,5.128h-25.67
		c4.099,14.873,19.484,23.608,34.357,19.51c14.873-4.103,23.608-19.486,19.511-34.364c-4.099-14.874-19.481-23.609-34.355-19.51
		c-2.184,0.606-4.29,1.472-6.272,2.583L272.317,117.206z"/>
</g>
<g id="LWPOLYLINE_178_">
	<path style="fill:#005EB8;" d="M167.46,92.453l-7.855,25.773c-0.048,0.23-0.12,0.452-0.207,0.673
		c-0.817,2.015-3.117,2.987-5.137,2.169c-2.015-0.818-2.987-3.117-2.169-5.133l7.841-25.725c-15.263-2.29-29.487,8.23-31.771,23.493
		c-2.285,15.258,8.23,29.482,23.488,31.767c15.263,2.29,29.487-8.23,31.771-23.493C185.263,109.683,178.759,97.647,167.46,92.453z"
		/>
</g>
</svg>
