<?xml version="1.0" encoding="iso-8859-1"?>
<!-- Generator: Adobe Illustrator 16.0.0, SVG Export Plug-In . SVG Version: 6.00 Build 0)  -->
<!DOCTYPE svg PUBLIC "-//W3C//DTD SVG 1.1//EN" "http://www.w3.org/Graphics/SVG/1.1/DTD/svg11.dtd">
<svg version="1.1" id="Layer_1" xmlns="http://www.w3.org/2000/svg" xmlns:xlink="http://www.w3.org/1999/xlink" x="0px" y="0px"
	 width="425.197px" height="425.196px" viewBox="0 0 425.197 425.196" style="enable-background:new 0 0 425.197 425.196;"
	 xml:space="preserve">
<g id="LWPOLYLINE_137_">
	
		<rect x="14.172" y="14.17" style="fill:#005EB8;stroke:#005EB8;stroke-width:0.5;stroke-miterlimit:10;" width="396.853" height="396.856"/>
</g>
<g id="LWPOLYLINE_140_">
	<path style="fill:#FFFFFF;" d="M40.628,14.17h343.94c14.613,0,26.456,11.843,26.456,26.457v343.942
		c0,14.609-11.843,26.457-26.456,26.457H40.628c-14.614,0-26.457-11.848-26.457-26.457V40.627
		C14.172,26.013,26.015,14.17,40.628,14.17z"/>
</g>
<g id="LWPOLYLINE_139_">
	<path style="fill:#005EB8;" d="M40.628,27.399h343.94c7.302,0,13.228,5.926,13.228,13.228v343.942
		c0,7.303-5.926,13.229-13.228,13.229H40.628c-7.307,0-13.229-5.926-13.229-13.229V40.627C27.4,33.325,33.322,27.399,40.628,27.399z
		"/>
</g>
<g id="LWPOLYLINE_151_">
	<polygon style="fill:#FFFFFF;" points="123.307,60.469 123.307,364.722 149.763,364.722 149.763,212.599 255.586,212.599 
		255.586,248.978 301.89,248.978 301.89,149.762 255.586,149.762 255.586,186.137 149.763,186.137 149.763,60.469 	"/>
</g>
<g id="LWPOLYLINE_152_">
	<rect x="262.206" y="156.376" style="fill:#E4002B;" width="33.065" height="85.982"/>
</g>
</svg>
