<?xml version="1.0" encoding="UTF-8" standalone="no"?>
<svg
   xmlns:dc="http://purl.org/dc/elements/1.1/"
   xmlns:cc="http://creativecommons.org/ns#"
   xmlns:rdf="http://www.w3.org/1999/02/22-rdf-syntax-ns#"
   xmlns:svg="http://www.w3.org/2000/svg"
   xmlns="http://www.w3.org/2000/svg"
   xmlns:sodipodi="http://sodipodi.sourceforge.net/DTD/sodipodi-0.dtd"
   xmlns:inkscape="http://www.inkscape.org/namespaces/inkscape"
   inkscape:version="1.0 (4035a4fb49, 2020-05-01)"
   sodipodi:docname="F25_blanko.svg"
   xml:space="preserve"
   viewBox="0 0 397.35301 397.35597"
   height="397.35599"
   width="397.353"
   y="0px"
   x="0px"
   id="Layer_1"
   version="1.1"><metadata
   id="metadata3343"><rdf:RDF><cc:Work
       rdf:about=""><dc:format>image/svg+xml</dc:format><dc:type
         rdf:resource="http://purl.org/dc/dcmitype/StillImage" /><dc:title></dc:title></cc:Work></rdf:RDF></metadata><defs
   id="defs3341" /><sodipodi:namedview
   inkscape:document-rotation="0"
   inkscape:current-layer="Layer_1"
   inkscape:window-maximized="0"
   inkscape:window-y="352"
   inkscape:window-x="224"
   inkscape:cy="198.67798"
   inkscape:cx="198.6765"
   inkscape:zoom="0.55503813"
   showgrid="false"
   id="namedview3339"
   inkscape:window-height="732"
   inkscape:window-width="847"
   inkscape:pageshadow="2"
   inkscape:pageopacity="0"
   guidetolerance="10"
   gridtolerance="10"
   objecttolerance="10"
   borderopacity="1"
   bordercolor="#666666"
   pagecolor="#ffffff" />
<g
   transform="translate(-13.922,-13.92)"
   id="LWPOLYLINE_137_">
	
		<rect
   id="rect3308"
   height="396.85599"
   width="396.853"
   style="fill:#005eb8;stroke:#005eb8;stroke-width:0.5;stroke-miterlimit:10"
   y="14.17"
   x="14.172" />
</g>
<g
   transform="translate(-13.922,-13.92)"
   id="LWPOLYLINE_140_">
	<path
   inkscape:connector-curvature="0"
   id="path3311"
   d="m 40.628,14.17 h 343.94 c 14.613,0 26.456,11.845 26.456,26.457 v 343.942 c 0,14.609 -11.843,26.457 -26.456,26.457 H 40.628 c -14.614,0 -26.457,-11.848 -26.457,-26.457 V 40.627 C 14.172,26.016 26.015,14.17 40.628,14.17 Z"
   style="fill:#ffffff" />
</g>
<g
   transform="translate(-13.922,-13.92)"
   id="LWPOLYLINE_139_">
	<path
   inkscape:connector-curvature="0"
   id="path3314"
   d="m 40.628,27.399 h 343.94 c 7.302,0 13.228,5.924 13.228,13.228 v 343.942 c 0,7.303 -5.926,13.229 -13.228,13.229 H 40.628 c -7.307,0 -13.229,-5.926 -13.229,-13.229 V 40.627 C 27.4,33.323 33.322,27.399 40.628,27.399 Z"
   style="fill:#005eb8" />
</g>



<g
   transform="translate(-13.922,-13.92)"
   id="LWPOLYLINE_157_">
	<path
   inkscape:connector-curvature="0"
   id="path3326"
   d="m 201.81,368.032 v -42.07 c 0,-4.377 -3.555,-7.938 -7.937,-7.938 -4.387,0 -7.937,3.561 -7.937,7.938 v 42.07 H 174.03 v -42.07 c 0,-4.377 -3.555,-7.938 -7.937,-7.938 -4.387,0 -7.942,3.561 -7.942,7.938 v 42.07 h -11.905 v -59.531 h 11.905 v 3.15 c 2.934,-1.555 6.104,-2.613 9.38,-3.15 h 3.324 c 3.819,0 7.494,1.451 10.289,4.059 4.589,-2.654 9.803,-4.059 15.109,-4.059 h 2.381 c 8.327,0 15.08,6.752 15.08,15.084 v 44.447 z"
   style="fill:#ffffff" />
</g>
<g
   transform="translate(-13.922,-13.92)"
   id="LWPOLYLINE_158_">
	
		<rect
   id="rect3329"
   height="6.6149998"
   width="110.012"
   style="fill:#ffffff"
   transform="matrix(-0.5438,0.8392,-0.8392,-0.5438,663.8176,291.1426)"
   y="322.685"
   x="197.772" />
</g>
<g
   transform="translate(-13.922,-13.92)"
   id="LWPOLYLINE_159_">
	<path
   inkscape:connector-curvature="0"
   id="path3332"
   d="m 300.562,325.962 c 0,-4.377 3.56,-7.938 7.938,-7.938 4.387,0 7.937,3.561 7.937,7.938 v 42.07 h 11.91 v -48.873 c -0.048,-0.404 -0.145,-0.809 -0.289,-1.193 -2.251,-5.607 -7.629,-9.326 -13.67,-9.455 -4.83,0.07 -9.572,1.303 -13.825,3.588 v -23.436 h -11.9 v 79.369 h 11.9 v -42.07 z"
   style="fill:#ffffff" />
</g>
<g
   transform="translate(-13.922,-13.92)"
   id="LWPOLYLINE_161_">
	<polygon
   id="polygon3335"
   points="136.535,368.032 123.196,329.921 136.535,309.38 122.335,309.38 110.026,328.337 108.751,330.3 108.751,288.663 96.846,288.663 96.846,368.032 108.751,368.032 108.751,352.157 115,342.542 123.918,368.032 "
   style="fill:#ffffff" />
</g>
</svg>
