<?xml version="1.0" encoding="UTF-8" standalone="no"?>
<!-- Generator: Adobe Illustrator 16.0.0, SVG Export Plug-In . SVG Version: 6.00 Build 0)  -->

<svg
   xmlns:dc="http://purl.org/dc/elements/1.1/"
   xmlns:cc="http://creativecommons.org/ns#"
   xmlns:rdf="http://www.w3.org/1999/02/22-rdf-syntax-ns#"
   xmlns:svg="http://www.w3.org/2000/svg"
   xmlns="http://www.w3.org/2000/svg"
   xmlns:sodipodi="http://sodipodi.sourceforge.net/DTD/sodipodi-0.dtd"
   xmlns:inkscape="http://www.inkscape.org/namespaces/inkscape"
   version="1.1"
   id="Layer_1"
   x="0px"
   y="0px"
   width="397.349"
   height="272.33899"
   viewBox="0 0 397.34901 272.33898"
   xml:space="preserve"
   sodipodi:docname="F26.svg"
   inkscape:version="0.92.5 (2060ec1f9f, 2020-04-08)"><metadata
   id="metadata3470"><rdf:RDF><cc:Work
       rdf:about=""><dc:format>image/svg+xml</dc:format><dc:type
         rdf:resource="http://purl.org/dc/dcmitype/StillImage" /></cc:Work></rdf:RDF></metadata><defs
   id="defs3468" /><sodipodi:namedview
   pagecolor="#ffffff"
   bordercolor="#666666"
   borderopacity="1"
   objecttolerance="10"
   gridtolerance="10"
   guidetolerance="10"
   inkscape:pageopacity="0"
   inkscape:pageshadow="2"
   inkscape:window-width="640"
   inkscape:window-height="480"
   id="namedview3466"
   showgrid="false"
   inkscape:zoom="0.55503813"
   inkscape:cx="198.6745"
   inkscape:cy="136.16998"
   inkscape:window-x="0"
   inkscape:window-y="0"
   inkscape:window-maximized="0"
   inkscape:current-layer="Layer_1" />
<g
   id="LWPOLYLINE_101_"
   transform="translate(-13.924,-76.429001)">
	
		<rect
   x="14.174"
   y="76.679001"
   style="fill:#005eb8;stroke:#005eb8;stroke-width:0.5;stroke-miterlimit:10"
   width="396.849"
   height="271.83899"
   id="rect3345" />
</g>
<g
   id="LWPOLYLINE_95_"
   transform="translate(-13.924,-76.429001)">
	<path
   style="fill:#ffffff"
   d="m 399.116,348.518 c 6.573,0 11.907,-5.33 11.907,-11.906 V 88.585 c 0,-6.577 -5.334,-11.906 -11.907,-11.906 H 26.081 c -6.577,0 -11.907,5.329 -11.907,11.906 v 248.026 c 0,6.576 5.33,11.906 11.907,11.906 h 373.035 z"
   id="path3348"
   inkscape:connector-curvature="0" />
</g>
<g
   id="LWPOLYLINE_96_"
   transform="translate(-13.924,-76.429001)">
	<path
   style="fill:#005eb8"
   d="m 399.116,342.568 c 3.29,0 5.957,-2.667 5.957,-5.957 V 88.585 c 0,-3.288 -2.667,-5.953 -5.957,-5.953 H 26.081 c -3.287,0 -5.954,2.665 -5.954,5.953 v 248.026 c 0,3.29 2.667,5.957 5.954,5.957 z"
   id="path3351"
   inkscape:connector-curvature="0" />
</g>
<g
   id="LWPOLYLINE_102_"
   transform="translate(-13.924,-76.429001)">
	<rect
   x="142.683"
   y="279.07001"
   style="fill:#ffffff"
   width="5.9530001"
   height="39.685001"
   id="rect3354" />
</g>
<g
   id="LWPOLYLINE_105_"
   transform="translate(-13.924,-76.429001)">
	<polygon
   style="fill:#ffffff"
   points="283.508,318.755 289.458,318.755 278.944,279.07 272.197,279.07 261.683,318.755 267.632,318.755 269.558,312.009 281.583,312.009 "
   id="polygon3357" />
</g>
<g
   id="LWPOLYLINE_107_"
   transform="translate(-13.924,-76.429001)">
	<polygon
   style="fill:#ffffff"
   points="214.304,296.078 225.643,318.755 218.991,318.755 210.502,301.785 205.803,308.837 205.803,318.755 199.85,318.755 199.85,279.07 205.803,279.07 205.803,298.101 218.492,279.07 225.643,279.07 "
   id="polygon3360" />
</g>
<g
   id="LWPOLYLINE_108_"
   transform="translate(-13.924,-76.429001)">
	<polygon
   style="fill:#ffffff"
   points="117.457,318.755 123.406,318.755 134.322,279.07 128.147,279.07 120.432,307.129 112.715,279.07 106.541,279.07 "
   id="polygon3363" />
</g>
<g
   id="LWPOLYLINE_109_"
   transform="translate(-13.924,-76.429001)">
	<polygon
   style="fill:#ffffff"
   points="161.346,279.07 161.346,318.755 167.299,318.755 167.299,291.968 181.186,318.755 187.14,318.755 187.14,279.07 181.186,279.07 181.186,305.858 167.299,279.07 "
   id="polygon3366" />
</g>
<g
   id="LWPOLYLINE_110_"
   transform="translate(-13.924,-76.429001)">
	<polygon
   style="fill:#ffffff"
   points="49.89,294.942 49.89,279.07 43.94,279.07 43.94,318.755 49.89,318.755 49.89,300.899 63.781,300.899 63.781,318.755 69.734,318.755 69.734,279.07 63.781,279.07 63.781,294.942 "
   id="polygon3369" />
</g>
<g
   id="LWPOLYLINE_111_"
   transform="translate(-13.924,-76.429001)">
	<polygon
   style="fill:#ffffff"
   points="93.585,318.755 93.585,302.88 103.503,279.07 97.055,279.07 90.606,294.548 84.158,279.07 77.709,279.07 87.632,302.88 87.632,318.755 "
   id="polygon3372" />
</g>
<g
   id="LWPOLYLINE_112_"
   transform="translate(-13.924,-76.429001)">
	<polygon
   style="fill:#ffffff"
   points="251.598,318.755 257.555,318.755 247.034,279.07 240.29,279.07 229.775,318.755 235.728,318.755 237.65,312.009 249.679,312.009 "
   id="polygon3375" />
</g>
<g
   id="LWPOLYLINE_122_"
   transform="translate(-13.924,-76.429001)">
	<polygon
   style="fill:#ffffff"
   points="372.131,310.779 372.131,318.714 378.081,318.714 378.081,310.779 381.253,310.779 381.253,304.826 378.081,304.826 378.081,279.032 372.131,279.032 357.447,304.826 357.447,310.779 "
   id="polygon3378" />
</g>
<g
   id="LWPOLYLINE_124_"
   transform="translate(-13.924,-76.429001)">
	<path
   style="fill:#ffffff"
   d="m 337.908,284.864 0.603,4.087 4.356,-0.793 v 30.556 h 5.957 v -39.682 h -5.957 -0.055 c -0.797,2.518 -2.557,4.616 -4.904,5.832 z"
   id="path3381"
   inkscape:connector-curvature="0" />
</g>
<g
   id="LWPOLYLINE_103_"
   transform="translate(-13.924,-76.429001)">
	<rect
   x="265.021"
   y="215.573"
   style="fill:#ffffff"
   width="5.9569998"
   height="39.688"
   id="rect3384" />
</g>
<g
   id="LWPOLYLINE_104_"
   transform="translate(-13.924,-76.429001)">
	<rect
   x="173.786"
   y="215.573"
   style="fill:#ffffff"
   width="5.9530001"
   height="39.688"
   id="rect3387" />
</g>
<g
   id="LWPOLYLINE_114_"
   transform="translate(-13.924,-76.429001)">
	<polygon
   style="fill:#ffffff"
   points="192.449,215.573 192.449,255.261 198.402,255.261 198.402,228.474 212.292,255.261 218.242,255.261 218.242,215.573 212.292,215.573 212.292,242.364 198.402,215.573 "
   id="polygon3390" />
</g>
<g
   id="LWPOLYLINE_115_"
   transform="translate(-13.924,-76.429001)">
	<path
   style="fill:#ffffff"
   d="m 157.965,244.719 c -0.994,2.757 -3.605,4.589 -6.531,4.589 -3.837,0 -6.947,-3.109 -6.947,-6.943 h -5.953 c 0,7.12 5.776,12.896 12.9,12.896 h 1.586 c 6.248,0 11.311,-5.063 11.311,-11.311 0,-4.807 -3.038,-9.087 -7.578,-10.677 l -8.218,-2.875 c -1.829,-0.641 -3.054,-2.365 -3.054,-4.308 0,-2.518 2.043,-4.562 4.564,-4.562 h 2.777 c 2.521,0 4.564,2.044 4.564,4.562 h 5.95 c 0,-5.808 -4.707,-10.518 -10.514,-10.518 h -2.777 c -5.808,0 -10.518,4.71 -10.518,10.518 0,4.471 2.826,8.453 7.044,9.929 l 8.218,2.874 c 1.205,0.423 2.22,1.261 2.864,2.366 0.61,1.05 0.724,2.317 0.312,3.46 z"
   id="path3393"
   inkscape:connector-curvature="0" />
</g>
<g
   id="LWPOLYLINE_116_"
   transform="translate(-13.924,-76.429001)">
	<polygon
   style="fill:#ffffff"
   points="134.876,249.308 120.986,249.308 120.986,215.573 115.036,215.573 115.036,255.261 134.876,255.261 "
   id="polygon3396" />
</g>
<g
   id="LWPOLYLINE_117_"
   transform="translate(-13.924,-76.429001)">
	<polygon
   style="fill:#ffffff"
   points="49.89,231.448 49.89,215.573 43.94,215.573 43.94,255.261 49.89,255.261 49.89,237.401 63.781,237.401 63.781,255.261 69.734,255.261 69.734,215.573 63.781,215.573 63.781,231.448 "
   id="polygon3399" />
</g>
<g
   id="LWPOLYLINE_118_"
   transform="translate(-13.924,-76.429001)">
	<polygon
   style="fill:#ffffff"
   points="105.065,221.529 89.193,221.529 89.193,231.448 99.905,231.448 99.905,237.401 89.193,237.401 89.193,249.308 105.065,249.308 105.065,255.261 83.24,255.261 83.24,215.573 105.065,215.573 "
   id="polygon3402" />
</g>
<g
   id="LWPOLYLINE_119_"
   transform="translate(-13.924,-76.429001)">
	<polygon
   style="fill:#ffffff"
   points="245.413,232.584 256.751,255.261 250.095,255.261 241.609,238.288 236.906,245.339 236.906,255.261 230.953,255.261 230.953,215.573 236.906,215.573 236.906,234.606 249.596,215.573 256.751,215.573 "
   id="polygon3405" />
</g>
<g
   id="LWPOLYLINE_120_"
   transform="translate(-13.924,-76.429001)">
	<polygon
   style="fill:#ffffff"
   points="372.131,247.489 372.131,255.428 378.081,255.428 378.081,247.489 381.253,247.489 381.253,241.536 378.081,241.536 378.081,215.742 372.131,215.742 357.447,241.536 357.447,247.489 "
   id="polygon3408" />
</g>
<g
   id="LWPOLYLINE_125_"
   transform="translate(-13.924,-76.429001)">
	<path
   style="fill:#ffffff"
   d="m 335.504,221.439 c 1.323,-1.971 2.75,-3.872 4.273,-5.697 h 7.516 l -5.16,6.508 c -2.591,3.089 -4.51,6.684 -5.632,10.556 1.205,-0.457 2.487,-0.699 3.782,-0.706 6.025,-0.049 10.943,4.8 10.992,10.825 v 2.016 c -0.242,5.957 -5.216,10.618 -11.173,10.479 -6.032,-0.145 -10.812,-5.152 -10.666,-11.186 v -2.016 l 0.187,-4.388 0.215,-2.421 c 0.838,-5.013 2.771,-9.786 5.666,-13.97 z"
   id="path3411"
   inkscape:connector-curvature="0" />
</g>
<g
   id="LWPOLYLINE_127_"
   transform="translate(-13.924,-76.429001)">
	<path
   style="fill:#ffffff"
   d="m 122.315,175.887 h 53.576 c 4.384,0 7.938,-3.554 7.938,-7.938 v -53.574 c 0,-4.384 -3.553,-7.938 -7.938,-7.938 h -53.576 c -4.384,0 -7.938,3.554 -7.938,7.938 v 53.574 c 0.001,4.384 3.554,7.938 7.938,7.938 z"
   id="path3414"
   inkscape:connector-curvature="0" />
</g>
<g
   id="LWPOLYLINE_129_"
   transform="translate(-13.924,-76.429001)">
	<path
   style="fill:#ffffff"
   d="m 199.701,175.891 h 103.181 c 4.384,0 7.938,-3.554 7.938,-7.937 v -53.575 c 0,-4.383 -3.554,-7.937 -7.938,-7.937 H 199.701 c -4.385,0 -7.938,3.554 -7.938,7.937 v 53.575 c 0,4.383 3.553,7.937 7.938,7.937 z"
   id="path3417"
   inkscape:connector-curvature="0" />
</g>
<g
   id="LWPOLYLINE_128_"
   transform="translate(-13.924,-76.429001)">
	<path
   style="fill:#e4002b"
   d="m 122.315,171.918 h 53.576 c 2.192,0 3.969,-1.776 3.969,-3.969 v -53.574 c 0,-2.192 -1.776,-3.969 -3.969,-3.969 h -53.576 c -2.192,0 -3.969,1.776 -3.969,3.969 v 53.574 c 10e-4,2.193 1.778,3.969 3.969,3.969 z"
   id="path3420"
   inkscape:connector-curvature="0" />
</g>
<g
   id="LWPOLYLINE_130_"
   transform="translate(-13.924,-76.429001)">
	<path
   style="fill:#009775"
   d="m 199.701,171.921 h 103.181 c 2.195,0 3.969,-1.776 3.969,-3.967 v -53.575 c 0,-2.192 -1.773,-3.969 -3.969,-3.969 H 199.701 c -2.192,0 -3.969,1.776 -3.969,3.969 v 53.575 c 0,2.191 1.776,3.967 3.969,3.967 z"
   id="path3423"
   inkscape:connector-curvature="0" />
</g>
<g
   id="LWPOLYLINE_106_"
   transform="translate(-13.924,-76.429001)">
	<polygon
   style="fill:#005eb8"
   points="279.892,306.056 275.571,290.904 271.255,306.056 "
   id="polygon3426" />
</g>
<g
   id="LWPOLYLINE_113_"
   transform="translate(-13.924,-76.429001)">
	<polygon
   style="fill:#005eb8"
   points="247.983,306.056 243.661,290.904 239.347,306.056 "
   id="polygon3429" />
</g>
<g
   id="LWPOLYLINE_121_"
   transform="translate(-13.924,-76.429001)">
	<polygon
   style="fill:#005eb8"
   points="372.131,241.536 364.297,241.536 372.131,227.777 "
   id="polygon3432" />
</g>
<g
   id="LWPOLYLINE_123_"
   transform="translate(-13.924,-76.429001)">
	<polygon
   style="fill:#005eb8"
   points="372.131,304.826 364.297,304.826 372.131,291.063 "
   id="polygon3435" />
</g>
<g
   id="LWPOLYLINE_126_"
   transform="translate(-13.924,-76.429001)">
	<path
   style="fill:#005eb8"
   d="m 335.408,242.925 v 2.016 c 0.27,2.777 2.742,4.808 5.52,4.533 2.396,-0.235 4.295,-2.133 4.53,-4.533 v -2.016 c -0.049,-2.777 -2.341,-4.983 -5.119,-4.932 -2.702,0.049 -4.883,2.231 -4.931,4.932 z"
   id="path3438"
   inkscape:connector-curvature="0" />
</g>
<g
   id="LWPOLYLINE_97_"
   transform="translate(-13.924,-76.429001)">
	<polygon
   style="fill:#ffffff"
   points="233.038,155.056 217.162,155.056 217.162,143.15 227.877,143.15 227.877,137.197 217.162,137.197 217.162,127.277 233.038,127.277 233.038,121.324 211.208,121.324 211.208,161.009 233.038,161.009 "
   id="polygon3441" />
</g>
<g
   id="LWPOLYLINE_98_"
   transform="translate(-13.924,-76.429001)">
	<path
   style="fill:#ffffff"
   d="m 247.92,127.156 c 2.341,-1.214 4.107,-3.313 4.896,-5.832 h 6.013 v 39.685 h -5.95 v -30.558 l -4.363,0.793 z"
   id="path3444"
   inkscape:connector-curvature="0" />
</g>
<g
   id="LWPOLYLINE_99_"
   transform="translate(-13.924,-76.429001)">
	<path
   style="fill:#ffffff"
   d="m 269.544,134.221 h 5.957 v -1.984 c 0,-0.643 0.124,-1.277 0.366,-1.873 1.032,-2.537 3.928,-3.754 6.463,-2.719 2.542,1.033 3.754,3.929 2.722,6.466 l -15.508,20.945 v 5.953 h 21.832 v -5.953 H 276.29 l 14.435,-19.111 c 2.043,-5.67 -0.887,-11.924 -6.56,-13.971 -5.665,-2.049 -11.92,0.888 -13.97,6.558 -0.555,1.536 -0.755,3.177 -0.596,4.805 z"
   id="path3447"
   inkscape:connector-curvature="0" />
</g>
<g
   id="LWPOLYLINE_100_"
   transform="translate(-13.924,-76.429001)">
	<path
   style="fill:#ffffff"
   d="m 138.191,150.091 c 0,6.028 4.886,10.913 10.912,10.913 6.026,0 10.913,-4.885 10.913,-10.913 v -2.381 c 0,-3.221 -1.423,-6.276 -3.886,-8.352 1.86,-1.984 2.896,-4.603 2.896,-7.324 v -0.793 c 0,-5.479 -4.443,-9.922 -9.922,-9.922 -5.479,0 -9.922,4.442 -9.922,9.922 v 0.793 h 5.953 v -0.793 c 0,-2.192 1.777,-3.969 3.969,-3.969 2.192,0 3.969,1.776 3.969,3.969 v 0.793 c 0,2.63 -2.133,4.762 -4.762,4.762 h -0.793 v 5.557 h 1.586 c 2.74,0 4.959,2.222 4.959,4.961 v 2.777 c 0,2.739 -2.22,4.961 -4.959,4.961 -2.739,0 -4.959,-2.222 -4.959,-4.961 z"
   id="path3450"
   inkscape:connector-curvature="0" />
</g>
<g
   id="CIRCLE_4_"
   transform="translate(-13.924,-76.429001)">
	<path
   style="fill:#ffffff"
   d="m 241.314,272.026 c 0,-1.79 -1.454,-3.245 -3.245,-3.245 -1.794,0 -3.245,1.455 -3.245,3.245 0,1.79 1.451,3.245 3.245,3.245 1.791,0 3.245,-1.455 3.245,-3.245 z"
   id="path3453"
   inkscape:connector-curvature="0" />
</g>
<g
   id="CIRCLE_5_"
   transform="translate(-13.924,-76.429001)">
	<path
   style="fill:#ffffff"
   d="m 251.681,272.026 c 0,-1.79 -1.454,-3.245 -3.248,-3.245 -1.787,0 -3.242,1.455 -3.242,3.245 0,1.79 1.455,3.245 3.242,3.245 1.794,0 3.248,-1.455 3.248,-3.245 z"
   id="path3456"
   inkscape:connector-curvature="0" />
</g>
<g
   id="CIRCLE_6_"
   transform="translate(-13.924,-76.429001)">
	<path
   style="fill:#ffffff"
   d="m 273.797,272.026 c 0,-1.79 -1.448,-3.245 -3.242,-3.245 -1.794,0 -3.248,1.455 -3.248,3.245 0,1.79 1.454,3.245 3.248,3.245 1.794,0 3.242,-1.455 3.242,-3.245 z"
   id="path3459"
   inkscape:connector-curvature="0" />
</g>
<g
   id="CIRCLE_7_"
   transform="translate(-13.924,-76.429001)">
	<path
   style="fill:#ffffff"
   d="m 283.473,272.026 c 0,-1.79 -1.447,-3.245 -3.241,-3.245 -1.794,0 -3.249,1.455 -3.249,3.245 0,1.79 1.455,3.245 3.249,3.245 1.794,0 3.241,-1.455 3.241,-3.245 z"
   id="path3462"
   inkscape:connector-curvature="0" />
</g>
</svg>