<?xml version="1.0" encoding="iso-8859-1"?>
<!-- Generator: Adobe Illustrator 16.0.0, SVG Export Plug-In . SVG Version: 6.00 Build 0)  -->
<!DOCTYPE svg PUBLIC "-//W3C//DTD SVG 1.1//EN" "http://www.w3.org/Graphics/SVG/1.1/DTD/svg11.dtd">
<svg version="1.1" id="Layer_1" xmlns="http://www.w3.org/2000/svg" xmlns:xlink="http://www.w3.org/1999/xlink" x="0px" y="0px"
	 width="425.197px" height="425.196px" viewBox="0 0 425.197 425.196" style="enable-background:new 0 0 425.197 425.196;"
	 xml:space="preserve">
<g id="LWPOLYLINE_183_">
	
		<rect x="14.173" y="162.994" style="fill:#009775;stroke:#009775;stroke-width:0.5;stroke-miterlimit:10;" width="396.85" height="99.208"/>
</g>
<g id="LWPOLYLINE_186_">
	<path style="fill:#FFFFFF;" d="M26.079,162.994h373.04c6.564,0,11.904,5.328,11.904,11.905v75.398
		c0,6.576-5.34,11.904-11.904,11.904H26.079c-6.576,0-11.905-5.328-11.905-11.904v-75.398
		C14.173,168.322,19.502,162.994,26.079,162.994z"/>
</g>
<g id="LWPOLYLINE_185_">
	<path style="fill:#009775;" d="M26.079,168.946h373.04c3.283,0,5.953,2.664,5.953,5.953v75.398c0,3.293-2.67,5.952-5.953,5.952
		H26.079c-3.288,0-5.952-2.659-5.952-5.952v-75.398C20.126,171.61,22.791,168.946,26.079,168.946z"/>
</g>
<g id="LWPOLYLINE_178_">
	<path style="fill:#FFFFFF;" d="M329.667,219.544v-13.892c0-7.123-5.777-12.896-12.902-12.896c-7.123,0-12.889,5.772-12.889,12.896
		v13.892c0,7.123,5.766,12.896,12.889,12.896C323.89,232.439,329.667,226.667,329.667,219.544z"/>
</g>
<g id="LWPOLYLINE_177_">
	<path style="fill:#009775;" d="M323.714,219.544v-13.892c0-3.829-3.107-6.942-6.949-6.942c-3.83,0-6.938,3.113-6.938,6.942v13.892
		c0,3.835,3.107,6.942,6.938,6.942C320.607,226.486,323.714,223.379,323.714,219.544z"/>
</g>
<g id="LWPOLYLINE_170_">
	<polygon style="fill:#FFFFFF;" points="150.685,232.439 160.61,206.648 160.61,232.439 166.563,232.439 166.563,192.757 
		159.817,192.757 150.685,215.38 141.559,192.757 134.813,192.757 134.813,232.439 140.766,232.439 140.766,206.648 	"/>
</g>
<g id="LWPOLYLINE_172_">
	<polygon style="fill:#FFFFFF;" points="181.641,232.439 175.294,232.439 185.81,192.757 192.556,192.757 203.072,232.439 
		196.72,232.439 194.936,225.699 183.43,225.699 	"/>
</g>
<g id="LWPOLYLINE_173_">
	<polygon style="fill:#FFFFFF;" points="209.025,232.439 209.025,192.757 214.977,192.757 214.977,226.486 228.869,226.486 
		228.869,232.439 	"/>
</g>
<g id="LWPOLYLINE_174_">
	<polygon style="fill:#FFFFFF;" points="235.615,232.439 235.615,192.757 241.568,192.757 241.568,226.486 255.453,226.486 
		255.453,232.439 	"/>
</g>
<g id="LWPOLYLINE_175_">
	<rect x="262.197" y="192.757" style="fill:#FFFFFF;" width="5.951" height="39.683"/>
</g>
<g id="LWPOLYLINE_176_">
	<path style="fill:#FFFFFF;" d="M277.679,221.53h-5.953c0,6.029,4.881,10.909,10.91,10.909s10.92-4.88,10.92-10.909v-28.773h-5.951
		v28.773c0,2.735-2.223,4.956-4.969,4.956C279.902,226.486,277.679,224.266,277.679,221.53z"/>
</g>
<g id="LWPOLYLINE_179_">
	<polygon style="fill:#FFFFFF;" points="345.939,222.521 345.939,232.439 339.986,232.439 339.986,192.757 345.939,192.757 
		345.939,211.802 358.632,192.757 365.777,192.757 354.474,209.624 365.777,232.439 359.037,232.439 350.699,215.38 	"/>
</g>
<g id="LWPOLYLINE_180_">
	<rect x="373.71" y="192.757" style="fill:#FFFFFF;" width="5.953" height="39.683"/>
</g>
<g id="LWPOLYLINE_181_">
	<path style="fill:#FFFFFF;" d="M114.969,227.379c-2.079,0-4.108,0.673-5.783,1.909c-3.441,2.544-8.136,2.544-11.577,0
		c-3.436-2.55-8.136-2.55-11.571,0c-3.441,2.544-8.141,2.544-11.577,0c-3.436-2.55-8.136-2.55-11.577,0
		c-3.436,2.544-8.136,2.544-11.571,0c-1.674-1.236-3.704-1.909-5.788-1.909v-9.865c2.084,0,4.114,0.668,5.788,1.904
		c3.436,2.55,8.136,2.55,11.571,0c3.441-2.544,8.142-2.544,11.577,0c3.437,2.55,8.136,2.55,11.577,0
		c3.436-2.544,8.136-2.544,11.571,0c3.441,2.55,8.136,2.55,11.577,0c1.675-1.236,3.704-1.904,5.783-1.904V227.379z"/>
</g>
<g id="LWPOLYLINE_171_">
	<polygon style="fill:#009775;" points="193.546,219.746 184.815,219.746 189.18,202.676 	"/>
</g>
<g id="LWPOLYLINE_182_">
	<path style="fill:#FFFFFF;" d="M114.969,207.83c-2.079,0-4.108,0.668-5.783,1.903c-3.441,2.55-8.136,2.55-11.577,0
		c-3.436-2.543-8.136-2.543-11.571,0c-3.441,2.55-8.141,2.55-11.577,0c-3.436-2.543-8.136-2.543-11.577,0
		c-3.436,2.55-8.136,2.55-11.571,0c-1.674-1.235-3.704-1.903-5.788-1.903v-9.87c2.084,0,4.114,0.668,5.788,1.909
		c3.436,2.545,8.136,2.545,11.571,0c3.441-2.544,8.142-2.544,11.577,0c3.437,2.545,8.136,2.545,11.577,0
		c3.436-2.544,8.136-2.544,11.571,0c3.441,2.545,8.136,2.545,11.577,0c1.675-1.241,3.704-1.909,5.783-1.909V207.83z"/>
</g>
</svg>
