<?xml version="1.0" encoding="UTF-8" standalone="no"?>
<!-- Generator: Adobe Illustrator 16.0.0, SVG Export Plug-In . SVG Version: 6.00 Build 0)  -->

<svg
   xmlns:dc="http://purl.org/dc/elements/1.1/"
   xmlns:cc="http://creativecommons.org/ns#"
   xmlns:rdf="http://www.w3.org/1999/02/22-rdf-syntax-ns#"
   xmlns:svg="http://www.w3.org/2000/svg"
   xmlns="http://www.w3.org/2000/svg"
   xmlns:sodipodi="http://sodipodi.sourceforge.net/DTD/sodipodi-0.dtd"
   xmlns:inkscape="http://www.inkscape.org/namespaces/inkscape"
   version="1.1"
   id="Layer_1"
   x="0px"
   y="0px"
   width="397.35001"
   height="99.708"
   viewBox="0 0 397.35001 99.707997"
   xml:space="preserve"
   sodipodi:docname="F27.2.svg"
   inkscape:version="0.92.5 (2060ec1f9f, 2020-04-08)"><metadata
   id="metadata3583"><rdf:RDF><cc:Work
       rdf:about=""><dc:format>image/svg+xml</dc:format><dc:type
         rdf:resource="http://purl.org/dc/dcmitype/StillImage" /></cc:Work></rdf:RDF></metadata><defs
   id="defs3581" /><sodipodi:namedview
   pagecolor="#ffffff"
   bordercolor="#666666"
   borderopacity="1"
   objecttolerance="10"
   gridtolerance="10"
   guidetolerance="10"
   inkscape:pageopacity="0"
   inkscape:pageshadow="2"
   inkscape:window-width="640"
   inkscape:window-height="480"
   id="namedview3579"
   showgrid="false"
   inkscape:zoom="0.55503813"
   inkscape:cx="198.6755"
   inkscape:cy="49.853996"
   inkscape:window-x="0"
   inkscape:window-y="0"
   inkscape:window-maximized="0"
   inkscape:current-layer="Layer_1" />
<g
   id="LWPOLYLINE_183_"
   transform="translate(-13.923,-162.744)">
	
		<rect
   x="14.173"
   y="162.994"
   style="fill:#009775;stroke:#009775;stroke-width:0.5;stroke-miterlimit:10"
   width="396.85001"
   height="99.208"
   id="rect3530" />
</g>
<g
   id="LWPOLYLINE_186_"
   transform="translate(-13.923,-162.744)">
	<path
   style="fill:#ffffff"
   d="m 26.079,162.994 h 373.04 c 6.564,0 11.904,5.328 11.904,11.905 v 75.398 c 0,6.576 -5.34,11.904 -11.904,11.904 H 26.079 c -6.576,0 -11.905,-5.328 -11.905,-11.904 v -75.398 c -10e-4,-6.577 5.328,-11.905 11.905,-11.905 z"
   id="path3533"
   inkscape:connector-curvature="0" />
</g>
<g
   id="LWPOLYLINE_185_"
   transform="translate(-13.923,-162.744)">
	<path
   style="fill:#009775"
   d="m 26.079,168.946 h 373.04 c 3.283,0 5.953,2.664 5.953,5.953 v 75.398 c 0,3.293 -2.67,5.952 -5.953,5.952 H 26.079 c -3.288,0 -5.952,-2.659 -5.952,-5.952 v -75.398 c -10e-4,-3.289 2.664,-5.953 5.952,-5.953 z"
   id="path3536"
   inkscape:connector-curvature="0" />
</g>
<g
   id="LWPOLYLINE_178_"
   transform="translate(-13.923,-162.744)">
	<path
   style="fill:#ffffff"
   d="m 329.667,219.544 v -13.892 c 0,-7.123 -5.777,-12.896 -12.902,-12.896 -7.123,0 -12.889,5.772 -12.889,12.896 v 13.892 c 0,7.123 5.766,12.896 12.889,12.896 7.125,-0.001 12.902,-5.773 12.902,-12.896 z"
   id="path3539"
   inkscape:connector-curvature="0" />
</g>
<g
   id="LWPOLYLINE_177_"
   transform="translate(-13.923,-162.744)">
	<path
   style="fill:#009775"
   d="m 323.714,219.544 v -13.892 c 0,-3.829 -3.107,-6.942 -6.949,-6.942 -3.83,0 -6.938,3.113 -6.938,6.942 v 13.892 c 0,3.835 3.107,6.942 6.938,6.942 3.842,0 6.949,-3.107 6.949,-6.942 z"
   id="path3542"
   inkscape:connector-curvature="0" />
</g>
<g
   id="LWPOLYLINE_170_"
   transform="translate(-13.923,-162.744)">
	<polygon
   style="fill:#ffffff"
   points="160.61,232.439 166.563,232.439 166.563,192.757 159.817,192.757 150.685,215.38 141.559,192.757 134.813,192.757 134.813,232.439 140.766,232.439 140.766,206.648 150.685,232.439 160.61,206.648 "
   id="polygon3545" />
</g>
<g
   id="LWPOLYLINE_172_"
   transform="translate(-13.923,-162.744)">
	<polygon
   style="fill:#ffffff"
   points="185.81,192.757 192.556,192.757 203.072,232.439 196.72,232.439 194.936,225.699 183.43,225.699 181.641,232.439 175.294,232.439 "
   id="polygon3548" />
</g>
<g
   id="LWPOLYLINE_173_"
   transform="translate(-13.923,-162.744)">
	<polygon
   style="fill:#ffffff"
   points="214.977,192.757 214.977,226.486 228.869,226.486 228.869,232.439 209.025,232.439 209.025,192.757 "
   id="polygon3551" />
</g>
<g
   id="LWPOLYLINE_174_"
   transform="translate(-13.923,-162.744)">
	<polygon
   style="fill:#ffffff"
   points="241.568,192.757 241.568,226.486 255.453,226.486 255.453,232.439 235.615,232.439 235.615,192.757 "
   id="polygon3554" />
</g>
<g
   id="LWPOLYLINE_175_"
   transform="translate(-13.923,-162.744)">
	<rect
   x="262.19699"
   y="192.757"
   style="fill:#ffffff"
   width="5.9510002"
   height="39.682999"
   id="rect3557" />
</g>
<g
   id="LWPOLYLINE_176_"
   transform="translate(-13.923,-162.744)">
	<path
   style="fill:#ffffff"
   d="m 277.679,221.53 h -5.953 c 0,6.029 4.881,10.909 10.91,10.909 6.029,0 10.92,-4.88 10.92,-10.909 v -28.773 h -5.951 v 28.773 c 0,2.735 -2.223,4.956 -4.969,4.956 -2.734,0 -4.957,-2.22 -4.957,-4.956 z"
   id="path3560"
   inkscape:connector-curvature="0" />
</g>
<g
   id="LWPOLYLINE_179_"
   transform="translate(-13.923,-162.744)">
	<polygon
   style="fill:#ffffff"
   points="339.986,232.439 339.986,192.757 345.939,192.757 345.939,211.802 358.632,192.757 365.777,192.757 354.474,209.624 365.777,232.439 359.037,232.439 350.699,215.38 345.939,222.521 345.939,232.439 "
   id="polygon3563" />
</g>
<g
   id="LWPOLYLINE_180_"
   transform="translate(-13.923,-162.744)">
	<rect
   x="373.70999"
   y="192.757"
   style="fill:#ffffff"
   width="5.9530001"
   height="39.682999"
   id="rect3566" />
</g>
<g
   id="LWPOLYLINE_181_"
   transform="translate(-13.923,-162.744)">
	<path
   style="fill:#ffffff"
   d="m 114.969,227.379 c -2.079,0 -4.108,0.673 -5.783,1.909 -3.441,2.544 -8.136,2.544 -11.577,0 -3.436,-2.55 -8.136,-2.55 -11.571,0 -3.441,2.544 -8.141,2.544 -11.577,0 -3.436,-2.55 -8.136,-2.55 -11.577,0 -3.436,2.544 -8.136,2.544 -11.571,0 -1.674,-1.236 -3.704,-1.909 -5.788,-1.909 v -9.865 c 2.084,0 4.114,0.668 5.788,1.904 3.436,2.55 8.136,2.55 11.571,0 3.441,-2.544 8.142,-2.544 11.577,0 3.437,2.55 8.136,2.55 11.577,0 3.436,-2.544 8.136,-2.544 11.571,0 3.441,2.55 8.136,2.55 11.577,0 1.675,-1.236 3.704,-1.904 5.783,-1.904 z"
   id="path3569"
   inkscape:connector-curvature="0" />
</g>
<g
   id="LWPOLYLINE_171_"
   transform="translate(-13.923,-162.744)">
	<polygon
   style="fill:#009775"
   points="189.18,202.676 193.546,219.746 184.815,219.746 "
   id="polygon3572" />
</g>
<g
   id="LWPOLYLINE_182_"
   transform="translate(-13.923,-162.744)">
	<path
   style="fill:#ffffff"
   d="m 114.969,207.83 c -2.079,0 -4.108,0.668 -5.783,1.903 -3.441,2.55 -8.136,2.55 -11.577,0 -3.436,-2.543 -8.136,-2.543 -11.571,0 -3.441,2.55 -8.141,2.55 -11.577,0 -3.436,-2.543 -8.136,-2.543 -11.577,0 -3.436,2.55 -8.136,2.55 -11.571,0 -1.674,-1.235 -3.704,-1.903 -5.788,-1.903 v -9.87 c 2.084,0 4.114,0.668 5.788,1.909 3.436,2.545 8.136,2.545 11.571,0 3.441,-2.544 8.142,-2.544 11.577,0 3.437,2.545 8.136,2.545 11.577,0 3.436,-2.544 8.136,-2.544 11.571,0 3.441,2.545 8.136,2.545 11.577,0 1.675,-1.241 3.704,-1.909 5.783,-1.909 z"
   id="path3575"
   inkscape:connector-curvature="0" />
</g>
</svg>