<?xml version="1.0" encoding="iso-8859-1"?>
<!-- Generator: Adobe Illustrator 16.0.0, SVG Export Plug-In . SVG Version: 6.00 Build 0)  -->
<!DOCTYPE svg PUBLIC "-//W3C//DTD SVG 1.1//EN" "http://www.w3.org/Graphics/SVG/1.1/DTD/svg11.dtd">
<svg version="1.1" id="Layer_1" xmlns="http://www.w3.org/2000/svg" xmlns:xlink="http://www.w3.org/1999/xlink" x="0px" y="0px"
	 width="425.197px" height="425.196px" viewBox="0 0 425.197 425.196" style="enable-background:new 0 0 425.197 425.196;"
	 xml:space="preserve">
<g id="LWPOLYLINE_228_">
	
		<rect x="14.173" y="14.174" style="fill:#E4002B;stroke:#E4002B;stroke-width:0.5;stroke-miterlimit:10;" width="396.851" height="396.849"/>
</g>
<g id="LWPOLYLINE_225_">
	<path style="fill:#FFFFFF;" d="M59.53,411.022h306.137c25.051,0,45.357-20.309,45.357-45.352V59.528
		c0-25.048-20.307-45.354-45.357-45.354H59.53c-25.051,0-45.356,20.307-45.356,45.354v306.143
		C14.173,390.714,34.479,411.022,59.53,411.022z"/>
</g>
<g id="LWPOLYLINE_226_">
	<path style="fill:#E4002B;" d="M59.53,388.349h306.137c12.528,0,22.682-10.154,22.682-22.678V59.528
		c0-12.523-10.153-22.676-22.682-22.676H59.53c-12.528,0-22.681,10.152-22.681,22.676v306.143
		C36.849,378.194,47.001,388.349,59.53,388.349z"/>
</g>
<g id="LWPOLYLINE_227_">
	<path style="fill:#FFFFFF;" d="M159.341,99.292v33.991h74.982c-3.558,18.182-9.093,35.919-16.509,52.894
		c-13.819,34.391-20.917,71.102-20.917,108.16v31.728h33.989v-43.062c0-37.793,7.19-75.246,21.187-110.35
		c7.833-23.733,12.468-48.404,13.781-73.361H159.341z"/>
</g>
</svg>
