<?xml version="1.0" encoding="UTF-8" standalone="no"?>
<svg
   xmlns:dc="http://purl.org/dc/elements/1.1/"
   xmlns:cc="http://creativecommons.org/ns#"
   xmlns:rdf="http://www.w3.org/1999/02/22-rdf-syntax-ns#"
   xmlns:svg="http://www.w3.org/2000/svg"
   xmlns="http://www.w3.org/2000/svg"
   xmlns:sodipodi="http://sodipodi.sourceforge.net/DTD/sodipodi-0.dtd"
   xmlns:inkscape="http://www.inkscape.org/namespaces/inkscape"
   inkscape:version="1.0 (4035a4fb49, 2020-05-01)"
   sodipodi:docname="F29_blanko.svg"
   xml:space="preserve"
   viewBox="0 0 397.35102 397.34899"
   height="397.349"
   width="397.35101"
   y="0px"
   x="0px"
   id="Layer_1"
   version="1.1"><metadata
   id="metadata3630"><rdf:RDF><cc:Work
       rdf:about=""><dc:format>image/svg+xml</dc:format><dc:type
         rdf:resource="http://purl.org/dc/dcmitype/StillImage" /><dc:title></dc:title></cc:Work></rdf:RDF></metadata><defs
   id="defs3628" /><sodipodi:namedview
   inkscape:document-rotation="0"
   inkscape:current-layer="Layer_1"
   inkscape:window-maximized="0"
   inkscape:window-y="279"
   inkscape:window-x="370"
   inkscape:cy="198.67499"
   inkscape:cx="198.6755"
   inkscape:zoom="0.55503813"
   showgrid="false"
   id="namedview3626"
   inkscape:window-height="480"
   inkscape:window-width="687"
   inkscape:pageshadow="2"
   inkscape:pageopacity="0"
   guidetolerance="10"
   gridtolerance="10"
   objecttolerance="10"
   borderopacity="1"
   bordercolor="#666666"
   pagecolor="#ffffff" />
<g
   transform="translate(-13.923,-13.924)"
   id="LWPOLYLINE_228_">
	
		<rect
   id="rect3613"
   height="396.849"
   width="396.85101"
   style="fill:#e4002b;stroke:#e4002b;stroke-width:0.5;stroke-miterlimit:10"
   y="14.174"
   x="14.173" />
</g>
<g
   transform="translate(-13.923,-13.924)"
   id="LWPOLYLINE_225_">
	<path
   inkscape:connector-curvature="0"
   id="path3616"
   d="m 59.53,411.022 h 306.137 c 25.051,0 45.357,-20.309 45.357,-45.352 V 59.528 c 0,-25.048 -20.307,-45.354 -45.357,-45.354 H 59.53 c -25.051,0 -45.356,20.307 -45.356,45.354 v 306.143 c -10e-4,25.043 20.305,45.351 45.356,45.351 z"
   style="fill:#ffffff" />
</g>
<g
   transform="translate(-13.923,-13.924)"
   id="LWPOLYLINE_226_">
	<path
   inkscape:connector-curvature="0"
   id="path3619"
   d="m 59.53,388.349 h 306.137 c 12.528,0 22.682,-10.154 22.682,-22.678 V 59.528 c 0,-12.523 -10.153,-22.676 -22.682,-22.676 H 59.53 c -12.528,0 -22.681,10.152 -22.681,22.676 v 306.143 c 0,12.523 10.152,22.678 22.681,22.678 z"
   style="fill:#e4002b" />
</g>

</svg>
