<?xml version="1.0" encoding="UTF-8" standalone="no"?>
<!-- Generator: Adobe Illustrator 16.0.0, SVG Export Plug-In . SVG Version: 6.00 Build 0)  -->

<svg
   xmlns:dc="http://purl.org/dc/elements/1.1/"
   xmlns:cc="http://creativecommons.org/ns#"
   xmlns:rdf="http://www.w3.org/1999/02/22-rdf-syntax-ns#"
   xmlns:svg="http://www.w3.org/2000/svg"
   xmlns="http://www.w3.org/2000/svg"
   xmlns:sodipodi="http://sodipodi.sourceforge.net/DTD/sodipodi-0.dtd"
   xmlns:inkscape="http://www.inkscape.org/namespaces/inkscape"
   version="1.1"
   id="Layer_1"
   x="0px"
   y="0px"
   width="396.853"
   height="347.24301"
   viewBox="0 0 396.85301 347.243"
   xml:space="preserve"
   sodipodi:docname="F30.svg"
   inkscape:version="0.92.5 (2060ec1f9f, 2020-04-08)"><metadata
   id="metadata3826"><rdf:RDF><cc:Work
       rdf:about=""><dc:format>image/svg+xml</dc:format><dc:type
         rdf:resource="http://purl.org/dc/dcmitype/StillImage" /></cc:Work></rdf:RDF></metadata><defs
   id="defs3824" /><sodipodi:namedview
   pagecolor="#ffffff"
   bordercolor="#666666"
   borderopacity="1"
   objecttolerance="10"
   gridtolerance="10"
   guidetolerance="10"
   inkscape:pageopacity="0"
   inkscape:pageshadow="2"
   inkscape:window-width="640"
   inkscape:window-height="480"
   id="namedview3822"
   showgrid="false"
   inkscape:zoom="0.55503813"
   inkscape:cx="198.4265"
   inkscape:cy="173.62201"
   inkscape:window-x="0"
   inkscape:window-y="0"
   inkscape:window-maximized="0"
   inkscape:current-layer="Layer_1" />
<g
   id="LWPOLYLINE_222_"
   transform="translate(-14.172,-38.977001)">
	<rect
   x="14.172"
   y="38.977001"
   style="fill:#ffcd00"
   width="396.853"
   height="347.24301"
   id="rect3800" />
</g>
<g
   id="LWPOLYLINE_224_"
   transform="translate(-14.172,-38.977001)">
	<path
   style="fill:#101820"
   d="m 63.778,48.898 h 297.637 c 21.914,0 39.683,17.768 39.683,39.685 v 248.035 c 0,21.914 -17.769,39.684 -39.683,39.684 H 63.778 c -21.919,0 -39.688,-17.77 -39.688,-39.684 V 88.583 c 0,-21.917 17.768,-39.685 39.688,-39.685 z"
   id="path3803"
   inkscape:connector-curvature="0" />
</g>
<g
   id="LWPOLYLINE_223_"
   transform="translate(-14.172,-38.977001)">
	<path
   style="fill:#ffcd00"
   d="m 63.778,68.742 h 297.637 c 10.957,0 19.846,8.884 19.846,19.841 v 248.035 c 0,10.957 -8.889,19.838 -19.846,19.838 H 63.778 c -10.958,0 -19.841,-8.881 -19.841,-19.838 V 88.583 c 0,-10.958 8.883,-19.841 19.841,-19.841 z"
   id="path3806"
   inkscape:connector-curvature="0" />
</g>
<g
   id="LWPOLYLINE_225_"
   transform="translate(-14.172,-38.977001)">
	<polygon
   style="fill:#101820"
   points="179.858,242.362 195.731,242.362 195.731,272.126 179.858,272.126 179.858,311.813 150.093,311.813 150.093,272.126 76.673,272.126 76.673,242.362 150.093,113.386 179.858,113.386 "
   id="polygon3809" />
</g>
<g
   id="LWPOLYLINE_227_"
   transform="translate(-14.172,-38.977001)">
	<polygon
   style="fill:#101820"
   points="332.641,242.362 348.514,242.362 348.514,272.126 332.641,272.126 332.641,311.813 302.876,311.813 302.876,272.126 229.463,272.126 229.463,242.362 302.876,113.386 332.641,113.386 "
   id="polygon3812" />
</g>
<g
   id="LWPOLYLINE_226_"
   transform="translate(-14.172,-38.977001)">
	<polygon
   style="fill:#ffcd00"
   points="150.093,242.362 110.406,242.362 150.093,172.645 "
   id="polygon3815" />
</g>
<g
   id="LWPOLYLINE_228_"
   transform="translate(-14.172,-38.977001)">
	<polygon
   style="fill:#ffcd00"
   points="302.876,242.362 263.194,242.362 302.876,172.645 "
   id="polygon3818" />
</g>
</svg>