<?xml version="1.0" encoding="UTF-8" standalone="no"?>
<svg
   xmlns:dc="http://purl.org/dc/elements/1.1/"
   xmlns:cc="http://creativecommons.org/ns#"
   xmlns:rdf="http://www.w3.org/1999/02/22-rdf-syntax-ns#"
   xmlns:svg="http://www.w3.org/2000/svg"
   xmlns="http://www.w3.org/2000/svg"
   xmlns:sodipodi="http://sodipodi.sourceforge.net/DTD/sodipodi-0.dtd"
   xmlns:inkscape="http://www.inkscape.org/namespaces/inkscape"
   inkscape:version="1.0 (4035a4fb49, 2020-05-01)"
   sodipodi:docname="F30_blanko.svg"
   xml:space="preserve"
   viewBox="0 0 396.85301 347.243"
   height="347.24301"
   width="396.853"
   y="0px"
   x="0px"
   id="Layer_1"
   version="1.1"><metadata
   id="metadata3826"><rdf:RDF><cc:Work
       rdf:about=""><dc:format>image/svg+xml</dc:format><dc:type
         rdf:resource="http://purl.org/dc/dcmitype/StillImage" /><dc:title></dc:title></cc:Work></rdf:RDF></metadata><defs
   id="defs3824" /><sodipodi:namedview
   inkscape:document-rotation="0"
   inkscape:current-layer="Layer_1"
   inkscape:window-maximized="0"
   inkscape:window-y="340"
   inkscape:window-x="405"
   inkscape:cy="173.62201"
   inkscape:cx="198.4265"
   inkscape:zoom="0.55503813"
   showgrid="false"
   id="namedview3822"
   inkscape:window-height="480"
   inkscape:window-width="689"
   inkscape:pageshadow="2"
   inkscape:pageopacity="0"
   guidetolerance="10"
   gridtolerance="10"
   objecttolerance="10"
   borderopacity="1"
   bordercolor="#666666"
   pagecolor="#ffffff" />
<g
   transform="translate(-14.172,-38.977001)"
   id="LWPOLYLINE_222_">
	<rect
   id="rect3800"
   height="347.24301"
   width="396.853"
   style="fill:#ffcd00"
   y="38.977001"
   x="14.172" />
</g>
<g
   transform="translate(-14.172,-38.977001)"
   id="LWPOLYLINE_224_">
	<path
   inkscape:connector-curvature="0"
   id="path3803"
   d="m 63.778,48.898 h 297.637 c 21.914,0 39.683,17.768 39.683,39.685 v 248.035 c 0,21.914 -17.769,39.684 -39.683,39.684 H 63.778 c -21.919,0 -39.688,-17.77 -39.688,-39.684 V 88.583 c 0,-21.917 17.768,-39.685 39.688,-39.685 z"
   style="fill:#101820" />
</g>
<g
   transform="translate(-14.172,-38.977001)"
   id="LWPOLYLINE_223_">
	<path
   inkscape:connector-curvature="0"
   id="path3806"
   d="m 63.778,68.742 h 297.637 c 10.957,0 19.846,8.884 19.846,19.841 v 248.035 c 0,10.957 -8.889,19.838 -19.846,19.838 H 63.778 c -10.958,0 -19.841,-8.881 -19.841,-19.838 V 88.583 c 0,-10.958 8.883,-19.841 19.841,-19.841 z"
   style="fill:#ffcd00" />
</g>




</svg>
