<?xml version="1.0" encoding="iso-8859-1"?>
<!-- Generator: Adobe Illustrator 16.0.0, SVG Export Plug-In . SVG Version: 6.00 Build 0)  -->
<!DOCTYPE svg PUBLIC "-//W3C//DTD SVG 1.1//EN" "http://www.w3.org/Graphics/SVG/1.1/DTD/svg11.dtd">
<svg version="1.1" id="Layer_1" xmlns="http://www.w3.org/2000/svg" xmlns:xlink="http://www.w3.org/1999/xlink" x="0px" y="0px"
	 width="425.197px" height="425.196px" viewBox="0 0 425.197 425.196" style="enable-background:new 0 0 425.197 425.196;"
	 xml:space="preserve">
<g id="LWPOLYLINE_221_">
	
		<rect x="14.174" y="96.851" style="fill:#FFFFFF;stroke:#101820;stroke-width:0.5;stroke-miterlimit:10;" width="396.849" height="231.494"/>
</g>
<g id="LWPOLYLINE_222_">
	<path style="fill:#101820;" d="M47.245,321.733h330.712c14.609,0,26.454-11.846,26.454-26.455V129.921
		c0-14.611-11.845-26.457-26.454-26.457H47.245c-14.613,0-26.455,11.846-26.455,26.457v165.357
		C20.79,309.888,32.631,321.733,47.245,321.733z"/>
</g>
<g id="LWPOLYLINE_223_">
	<path style="fill:#FFFFFF;" d="M47.245,308.503h330.712c7.305,0,13.224-5.92,13.224-13.225V129.921
		c0-7.305-5.919-13.228-13.224-13.228H47.245c-7.305,0-13.228,5.922-13.228,13.228v165.357
		C34.017,302.583,39.94,308.503,47.245,308.503z"/>
</g>
<g id="LWPOLYLINE_224_">
	<path style="fill:#101820;" d="M77.009,242.36c0,20.094,16.286,36.381,36.376,36.381c20.093,0,36.38-16.287,36.38-36.381V227.81
		c0-20.09-16.287-36.376-36.38-36.376c-5.073,0-10.092,1.062-14.729,3.117l2.825-28.25h36.377l-1.321-19.843H83.625l-6.615,66.14
		l23.148,5.291c3.123-4.162,8.023-6.611,13.228-6.611c9.133,0,16.537,7.4,16.537,16.533v14.551c0,9.133-7.404,16.537-16.537,16.537
		c-9.13,0-16.533-7.404-16.533-16.537H77.009z"/>
</g>
<g id="LWPOLYLINE_225_">
	<path style="fill:#101820;" d="M174.899,189.451h19.843v-6.615c0-2.142,0.417-4.263,1.225-6.247
		c3.447-8.456,13.1-12.514,21.556-9.065c8.456,3.451,12.516,13.101,9.065,21.556l-51.688,69.818v19.844h72.758v-19.844h-50.27
		l48.102-63.706c6.824-18.897-2.957-39.747-21.855-46.571c-18.896-6.825-39.746,2.961-46.573,21.858
		c-1.851,5.123-2.523,10.597-1.979,16.016L174.899,189.451z"/>
</g>
<g id="LWPOLYLINE_226_">
	<path style="fill:#101820;" d="M275.432,189.451h19.844v-6.615c0-2.142,0.416-4.263,1.225-6.247
		c3.45-8.456,13.103-12.514,21.555-9.065c8.46,3.451,12.52,13.101,9.069,21.556l-51.692,69.818v19.844h72.76v-19.844h-50.268
		l48.1-63.706c6.824-18.897-2.956-39.747-21.856-46.571c-18.894-6.825-39.75,2.961-46.573,21.858
		c-1.848,5.123-2.527,10.597-1.976,16.016L275.432,189.451z"/>
</g>
</svg>
