<?xml version="1.0" encoding="iso-8859-1"?>
<!-- Generator: Adobe Illustrator 16.0.0, SVG Export Plug-In . SVG Version: 6.00 Build 0)  -->
<!DOCTYPE svg PUBLIC "-//W3C//DTD SVG 1.1//EN" "http://www.w3.org/Graphics/SVG/1.1/DTD/svg11.dtd">
<svg version="1.1" id="Layer_1" xmlns="http://www.w3.org/2000/svg" xmlns:xlink="http://www.w3.org/1999/xlink" x="0px" y="0px"
	 width="425.197px" height="425.196px" viewBox="0 0 425.197 425.196" style="enable-background:new 0 0 425.197 425.196;"
	 xml:space="preserve">
<g id="LWPOLYLINE_220_">
	
		<rect x="14.172" y="96.852" style="fill:#FFFFFF;stroke:#101820;stroke-width:0.5;stroke-miterlimit:10;" width="396.853" height="231.493"/>
</g>
<g id="LWPOLYLINE_222_">
	<path style="fill:#101820;" d="M47.241,321.736h330.71c14.613,0,26.455-11.848,26.455-26.46V129.923
		c0-14.613-11.842-26.458-26.455-26.458H47.241c-14.613,0-26.455,11.845-26.455,26.458v165.354
		C20.786,309.889,32.628,321.736,47.241,321.736z"/>
</g>
<g id="LWPOLYLINE_223_">
	<path style="fill:#FFFFFF;" d="M47.241,308.509h330.71c7.302,0,13.228-5.926,13.228-13.232V129.923
		c0-7.307-5.926-13.228-13.228-13.228H47.241c-7.306,0-13.228,5.921-13.228,13.228v165.354
		C34.013,302.583,39.935,308.509,47.241,308.509z"/>
</g>
<g id="ELLIPSE_7_">
	<path style="fill:#101820;" d="M258.893,212.597c0-36.527-44.417-66.14-99.208-66.14c-54.796,0-99.216,29.612-99.216,66.14
		c0,36.532,44.42,66.147,99.216,66.147C214.476,278.744,258.893,249.129,258.893,212.597"/>
</g>
<g id="SPLINE_7_">
	<path style="fill:#FFFFFF;" d="M232.441,212.597c0-0.942-0.077-1.896-0.235-2.867c-0.154-0.971-0.395-1.967-0.736-3.001
		c-0.337-1.039-0.779-2.116-1.337-3.232c-0.563-1.115-1.241-2.279-2.059-3.468c-0.823-1.188-1.78-2.415-2.887-3.65
		c-1.101-1.236-2.356-2.487-3.756-3.733c-1.404-1.24-2.959-2.481-4.656-3.688c-2.449-1.746-5.2-3.43-8.216-5.008
		c-3.021-1.567-6.301-3.03-9.798-4.329c-3.502-1.299-7.21-2.434-11.078-3.386c-3.862-0.952-7.883-1.713-11.991-2.261
		c-4.108-0.549-8.302-0.885-12.516-1.01c-4.214-0.116-8.447-0.02-12.626,0.293c-4.185,0.313-8.316,0.847-12.333,1.582
		c-4.011,0.731-7.912,1.665-11.625,2.78c-3.718,1.116-7.249,2.405-10.548,3.839c-3.295,1.434-6.35,3.006-9.125,4.666
		c-2.771,1.664-5.257,3.424-7.436,5.204c-2.179,1.789-4.045,3.603-5.599,5.387c-1.293,1.478-2.376,2.935-3.266,4.339
		c-0.89,1.404-1.583,2.761-2.121,4.055c-0.534,1.294-0.914,2.525-1.164,3.709c-0.255,1.183-0.38,2.328-0.404,3.463
		c-0.019,1.135,0.067,2.271,0.274,3.444c0.207,1.168,0.534,2.381,1.01,3.65c0.477,1.27,1.111,2.603,1.929,3.987
		c0.818,1.386,1.823,2.828,3.035,4.301c1.217,1.472,2.641,2.968,4.281,4.463c1.645,1.491,3.501,2.982,5.565,4.426
		c2.063,1.442,4.334,2.843,6.792,4.17c2.458,1.328,5.103,2.578,7.908,3.728c2.799,1.155,5.762,2.198,8.85,3.127
		c3.083,0.924,6.296,1.731,9.596,2.396c4.637,0.933,9.447,1.597,14.329,1.967c4.882,0.371,9.832,0.443,14.738,0.222
		c4.906-0.227,9.774-0.746,14.493-1.544c4.714-0.799,9.283-1.881,13.598-3.203c4.314-1.318,8.379-2.877,12.102-4.618
		c3.723-1.741,7.104-3.66,10.082-5.671c2.371-1.602,4.483-3.266,6.325-4.936c1.843-1.669,3.415-3.348,4.729-4.987
		c1.309-1.636,2.357-3.232,3.185-4.758c0.822-1.524,1.419-2.972,1.842-4.353c0.352-1.136,0.582-2.231,0.712-3.3
		C232.393,214.05,232.441,213.328,232.441,212.597z"/>
</g>
<g id="LWPOLYLINE_225_">
	<path style="fill:#101820;" d="M310.159,165.901c7.812-4.05,13.689-11.046,16.335-19.444h20.038v132.287h-19.836V176.883
		l-14.546,2.646L310.159,165.901z"/>
</g>
</svg>
