<?xml version="1.0" encoding="UTF-8" standalone="no"?>
<!-- Generator: Adobe Illustrator 16.0.0, SVG Export Plug-In . SVG Version: 6.00 Build 0)  -->

<svg
   xmlns:dc="http://purl.org/dc/elements/1.1/"
   xmlns:cc="http://creativecommons.org/ns#"
   xmlns:rdf="http://www.w3.org/1999/02/22-rdf-syntax-ns#"
   xmlns:svg="http://www.w3.org/2000/svg"
   xmlns="http://www.w3.org/2000/svg"
   xmlns:sodipodi="http://sodipodi.sourceforge.net/DTD/sodipodi-0.dtd"
   xmlns:inkscape="http://www.inkscape.org/namespaces/inkscape"
   version="1.1"
   id="Layer_1"
   x="0px"
   y="0px"
   width="397.353"
   height="231.993"
   viewBox="0 0 397.35301 231.99299"
   xml:space="preserve"
   sodipodi:docname="F33.svg"
   inkscape:version="0.92.5 (2060ec1f9f, 2020-04-08)"><metadata
   id="metadata3907"><rdf:RDF><cc:Work
       rdf:about=""><dc:format>image/svg+xml</dc:format><dc:type
         rdf:resource="http://purl.org/dc/dcmitype/StillImage" /></cc:Work></rdf:RDF></metadata><defs
   id="defs3905" /><sodipodi:namedview
   pagecolor="#ffffff"
   bordercolor="#666666"
   borderopacity="1"
   objecttolerance="10"
   gridtolerance="10"
   guidetolerance="10"
   inkscape:pageopacity="0"
   inkscape:pageshadow="2"
   inkscape:window-width="640"
   inkscape:window-height="480"
   id="namedview3903"
   showgrid="false"
   inkscape:zoom="0.55503813"
   inkscape:cx="198.6765"
   inkscape:cy="115.99699"
   inkscape:window-x="0"
   inkscape:window-y="0"
   inkscape:window-maximized="0"
   inkscape:current-layer="Layer_1" />
<g
   id="LWPOLYLINE_220_"
   transform="translate(-13.922,-96.601997)">
	
		<rect
   x="14.172"
   y="96.851997"
   style="fill:#ffffff;stroke:#101820;stroke-width:0.5;stroke-miterlimit:10"
   width="396.853"
   height="231.493"
   id="rect3884" />
</g>
<g
   id="LWPOLYLINE_222_"
   transform="translate(-13.922,-96.601997)">
	<path
   style="fill:#101820"
   d="m 47.241,321.736 h 330.71 c 14.613,0 26.455,-11.848 26.455,-26.46 V 129.923 c 0,-14.613 -11.842,-26.458 -26.455,-26.458 H 47.241 c -14.613,0 -26.455,11.845 -26.455,26.458 v 165.354 c 0,14.612 11.842,26.459 26.455,26.459 z"
   id="path3887"
   inkscape:connector-curvature="0" />
</g>
<g
   id="LWPOLYLINE_223_"
   transform="translate(-13.922,-96.601997)">
	<path
   style="fill:#ffffff"
   d="m 47.241,308.509 h 330.71 c 7.302,0 13.228,-5.926 13.228,-13.232 V 129.923 c 0,-7.307 -5.926,-13.228 -13.228,-13.228 H 47.241 c -7.306,0 -13.228,5.921 -13.228,13.228 v 165.354 c 0,7.306 5.922,13.232 13.228,13.232 z"
   id="path3890"
   inkscape:connector-curvature="0" />
</g>
<g
   id="ELLIPSE_7_"
   transform="translate(-13.922,-96.601997)">
	<path
   style="fill:#101820"
   d="m 258.893,212.597 c 0,-36.527 -44.417,-66.14 -99.208,-66.14 -54.796,0 -99.216,29.612 -99.216,66.14 0,36.532 44.42,66.147 99.216,66.147 54.791,0 99.208,-29.615 99.208,-66.147"
   id="path3893"
   inkscape:connector-curvature="0" />
</g>
<g
   id="SPLINE_7_"
   transform="translate(-13.922,-96.601997)">
	<path
   style="fill:#ffffff"
   d="m 232.441,212.597 c 0,-0.942 -0.077,-1.896 -0.235,-2.867 -0.154,-0.971 -0.395,-1.967 -0.736,-3.001 -0.337,-1.039 -0.779,-2.116 -1.337,-3.232 -0.563,-1.115 -1.241,-2.279 -2.059,-3.468 -0.823,-1.188 -1.78,-2.415 -2.887,-3.65 -1.101,-1.236 -2.356,-2.487 -3.756,-3.733 -1.404,-1.24 -2.959,-2.481 -4.656,-3.688 -2.449,-1.746 -5.2,-3.43 -8.216,-5.008 -3.021,-1.567 -6.301,-3.03 -9.798,-4.329 -3.502,-1.299 -7.21,-2.434 -11.078,-3.386 -3.862,-0.952 -7.883,-1.713 -11.991,-2.261 -4.108,-0.549 -8.302,-0.885 -12.516,-1.01 -4.214,-0.116 -8.447,-0.02 -12.626,0.293 -4.185,0.313 -8.316,0.847 -12.333,1.582 -4.011,0.731 -7.912,1.665 -11.625,2.78 -3.718,1.116 -7.249,2.405 -10.548,3.839 -3.295,1.434 -6.35,3.006 -9.125,4.666 -2.771,1.664 -5.257,3.424 -7.436,5.204 -2.179,1.789 -4.045,3.603 -5.599,5.387 -1.293,1.478 -2.376,2.935 -3.266,4.339 -0.89,1.404 -1.583,2.761 -2.121,4.055 -0.534,1.294 -0.914,2.525 -1.164,3.709 -0.255,1.183 -0.38,2.328 -0.404,3.463 -0.019,1.135 0.067,2.271 0.274,3.444 0.207,1.168 0.534,2.381 1.01,3.65 0.477,1.27 1.111,2.603 1.929,3.987 0.818,1.386 1.823,2.828 3.035,4.301 1.217,1.472 2.641,2.968 4.281,4.463 1.645,1.491 3.501,2.982 5.565,4.426 2.063,1.442 4.334,2.843 6.792,4.17 2.458,1.328 5.103,2.578 7.908,3.728 2.799,1.155 5.762,2.198 8.85,3.127 3.083,0.924 6.296,1.731 9.596,2.396 4.637,0.933 9.447,1.597 14.329,1.967 4.882,0.371 9.832,0.443 14.738,0.222 4.906,-0.227 9.774,-0.746 14.493,-1.544 4.714,-0.799 9.283,-1.881 13.598,-3.203 4.314,-1.318 8.379,-2.877 12.102,-4.618 3.723,-1.741 7.104,-3.66 10.082,-5.671 2.371,-1.602 4.483,-3.266 6.325,-4.936 1.843,-1.669 3.415,-3.348 4.729,-4.987 1.309,-1.636 2.357,-3.232 3.185,-4.758 0.822,-1.524 1.419,-2.972 1.842,-4.353 0.352,-1.136 0.582,-2.231 0.712,-3.3 0.089,-0.742 0.137,-1.464 0.137,-2.195 z"
   id="path3896"
   inkscape:connector-curvature="0" />
</g>
<g
   id="LWPOLYLINE_225_"
   transform="translate(-13.922,-96.601997)">
	<path
   style="fill:#101820"
   d="m 310.159,165.901 c 7.812,-4.05 13.689,-11.046 16.335,-19.444 h 20.038 V 278.744 H 326.696 V 176.883 l -14.546,2.646 z"
   id="path3899"
   inkscape:connector-curvature="0" />
</g>
</svg>