<?xml version="1.0" encoding="iso-8859-1"?>
<!-- Generator: Adobe Illustrator 16.0.0, SVG Export Plug-In . SVG Version: 6.00 Build 0)  -->
<!DOCTYPE svg PUBLIC "-//W3C//DTD SVG 1.1//EN" "http://www.w3.org/Graphics/SVG/1.1/DTD/svg11.dtd">
<svg version="1.1" id="Layer_1" xmlns="http://www.w3.org/2000/svg" xmlns:xlink="http://www.w3.org/1999/xlink" x="0px" y="0px"
	 width="425.197px" height="425.196px" viewBox="0 0 425.197 425.196" style="enable-background:new 0 0 425.197 425.196;"
	 xml:space="preserve">
<g id="LWPOLYLINE_245_">
	
		<rect x="14.171" y="14.174" style="fill:#E4002B;stroke:#E4002B;stroke-width:0.5;stroke-miterlimit:10;" width="396.854" height="396.848"/>
</g>
<g id="LWPOLYLINE_230_">
	<path style="fill:#FFFFFF;" d="M159.307,99.212v34.017h75.03c-3.557,18.195-9.098,35.946-16.519,52.938
		c-13.83,34.407-20.933,71.145-20.933,108.227v31.746h34.016v-43.08c0-37.826,7.19-75.301,21.197-110.433
		c7.842-23.75,12.481-48.438,13.79-73.415H159.307z"/>
</g>
<g id="LWPOLYLINE_231_">
	<rect x="144.564" y="388.353" style="fill:#FFFFFF;" width="45.357" height="22.67"/>
</g>
<g id="LWPOLYLINE_232_">
	<rect x="144.564" y="14.174" style="fill:#FFFFFF;" width="45.357" height="22.679"/>
</g>
<g id="LWPOLYLINE_233_">
	<rect x="235.272" y="388.353" style="fill:#FFFFFF;" width="45.36" height="22.67"/>
</g>
<g id="LWPOLYLINE_234_">
	<rect x="235.272" y="14.174" style="fill:#FFFFFF;" width="45.36" height="22.679"/>
</g>
<g id="LWPOLYLINE_235_">
	<path style="fill:#FFFFFF;" d="M411.025,325.987v39.684c0,25.045-20.307,45.352-45.352,45.352h-39.689v-22.67h39.689
		c12.522,0,22.67-10.16,22.67-22.682v-39.684H411.025z"/>
</g>
<g id="LWPOLYLINE_236_">
	<path style="fill:#FFFFFF;" d="M388.343,99.212V59.529c0-12.522-10.147-22.676-22.67-22.676h-39.689V14.174h39.689
		c25.045,0,45.352,20.307,45.352,45.354v39.684H388.343z"/>
</g>
<g id="LWPOLYLINE_237_">
	<path style="fill:#FFFFFF;" d="M99.212,14.174H59.529c-25.051,0-45.357,20.307-45.357,45.354v39.684h22.676V59.529
		c0-12.522,10.153-22.676,22.682-22.676h39.684V14.174z"/>
</g>
<g id="LWPOLYLINE_238_">
	<rect x="14.171" y="144.57" style="fill:#FFFFFF;" width="22.676" height="45.357"/>
</g>
<g id="LWPOLYLINE_239_">
	<rect x="388.343" y="144.57" style="fill:#FFFFFF;" width="22.682" height="45.357"/>
</g>
<g id="LWPOLYLINE_240_">
	<rect x="14.171" y="235.278" style="fill:#FFFFFF;" width="22.676" height="45.352"/>
</g>
<g id="LWPOLYLINE_241_">
	<rect x="388.343" y="235.278" style="fill:#FFFFFF;" width="22.682" height="45.352"/>
</g>
<g id="LWPOLYLINE_242_">
	<path style="fill:#FFFFFF;" d="M99.212,411.022H59.529c-25.051,0-45.357-20.307-45.357-45.352v-39.684h22.676v39.684
		c0,12.521,10.153,22.682,22.682,22.682h39.684V411.022z"/>
</g>
</svg>
