<?xml version="1.0" encoding="UTF-8" standalone="no"?>
<svg
   xmlns:dc="http://purl.org/dc/elements/1.1/"
   xmlns:cc="http://creativecommons.org/ns#"
   xmlns:rdf="http://www.w3.org/1999/02/22-rdf-syntax-ns#"
   xmlns:svg="http://www.w3.org/2000/svg"
   xmlns="http://www.w3.org/2000/svg"
   xmlns:sodipodi="http://sodipodi.sourceforge.net/DTD/sodipodi-0.dtd"
   xmlns:inkscape="http://www.inkscape.org/namespaces/inkscape"
   inkscape:version="1.0 (4035a4fb49, 2020-05-01)"
   sodipodi:docname="F35_blanko.svg"
   xml:space="preserve"
   viewBox="0 0 397.35401 397.34798"
   height="397.34799"
   width="397.354"
   y="0px"
   x="0px"
   id="Layer_1"
   version="1.1"><metadata
   id="metadata3984"><rdf:RDF><cc:Work
       rdf:about=""><dc:format>image/svg+xml</dc:format><dc:type
         rdf:resource="http://purl.org/dc/dcmitype/StillImage" /><dc:title></dc:title></cc:Work></rdf:RDF></metadata><defs
   id="defs3982" /><sodipodi:namedview
   inkscape:document-rotation="0"
   inkscape:current-layer="Layer_1"
   inkscape:window-maximized="0"
   inkscape:window-y="0"
   inkscape:window-x="0"
   inkscape:cy="198.67398"
   inkscape:cx="198.6775"
   inkscape:zoom="0.55503813"
   showgrid="false"
   id="namedview3980"
   inkscape:window-height="480"
   inkscape:window-width="687"
   inkscape:pageshadow="2"
   inkscape:pageopacity="0"
   guidetolerance="10"
   gridtolerance="10"
   objecttolerance="10"
   borderopacity="1"
   bordercolor="#666666"
   pagecolor="#ffffff" />
<g
   transform="translate(-13.921,-13.924)"
   id="LWPOLYLINE_245_">
	
		<rect
   id="rect3937"
   height="396.84799"
   width="396.854"
   style="fill:#e4002b;stroke:#e4002b;stroke-width:0.5;stroke-miterlimit:10"
   y="14.174"
   x="14.171" />
</g>

<g
   transform="translate(-13.921,-13.924)"
   id="LWPOLYLINE_231_">
	<rect
   id="rect3943"
   height="22.67"
   width="45.356998"
   style="fill:#ffffff"
   y="388.353"
   x="144.564" />
</g>
<g
   transform="translate(-13.921,-13.924)"
   id="LWPOLYLINE_232_">
	<rect
   id="rect3946"
   height="22.679001"
   width="45.356998"
   style="fill:#ffffff"
   y="14.174"
   x="144.564" />
</g>
<g
   transform="translate(-13.921,-13.924)"
   id="LWPOLYLINE_233_">
	<rect
   id="rect3949"
   height="22.67"
   width="45.360001"
   style="fill:#ffffff"
   y="388.353"
   x="235.272" />
</g>
<g
   transform="translate(-13.921,-13.924)"
   id="LWPOLYLINE_234_">
	<rect
   id="rect3952"
   height="22.679001"
   width="45.360001"
   style="fill:#ffffff"
   y="14.174"
   x="235.272" />
</g>
<g
   transform="translate(-13.921,-13.924)"
   id="LWPOLYLINE_235_">
	<path
   inkscape:connector-curvature="0"
   id="path3955"
   d="m 411.025,325.987 v 39.684 c 0,25.045 -20.307,45.352 -45.352,45.352 h -39.689 v -22.67 h 39.689 c 12.522,0 22.67,-10.16 22.67,-22.682 v -39.684 z"
   style="fill:#ffffff" />
</g>
<g
   transform="translate(-13.921,-13.924)"
   id="LWPOLYLINE_236_">
	<path
   inkscape:connector-curvature="0"
   id="path3958"
   d="M 388.343,99.212 V 59.529 c 0,-12.522 -10.147,-22.676 -22.67,-22.676 H 325.984 V 14.174 h 39.689 c 25.045,0 45.352,20.307 45.352,45.354 v 39.684 z"
   style="fill:#ffffff" />
</g>
<g
   transform="translate(-13.921,-13.924)"
   id="LWPOLYLINE_237_">
	<path
   inkscape:connector-curvature="0"
   id="path3961"
   d="M 99.212,14.174 H 59.529 c -25.051,0 -45.357,20.307 -45.357,45.354 V 99.212 H 36.848 V 59.529 c 0,-12.522 10.153,-22.676 22.682,-22.676 H 99.214 V 14.174 Z"
   style="fill:#ffffff" />
</g>
<g
   transform="translate(-13.921,-13.924)"
   id="LWPOLYLINE_238_">
	<rect
   id="rect3964"
   height="45.356998"
   width="22.676001"
   style="fill:#ffffff"
   y="144.57001"
   x="14.171" />
</g>
<g
   transform="translate(-13.921,-13.924)"
   id="LWPOLYLINE_239_">
	<rect
   id="rect3967"
   height="45.356998"
   width="22.681999"
   style="fill:#ffffff"
   y="144.57001"
   x="388.34299" />
</g>
<g
   transform="translate(-13.921,-13.924)"
   id="LWPOLYLINE_240_">
	<rect
   id="rect3970"
   height="45.352001"
   width="22.676001"
   style="fill:#ffffff"
   y="235.278"
   x="14.171" />
</g>
<g
   transform="translate(-13.921,-13.924)"
   id="LWPOLYLINE_241_">
	<rect
   id="rect3973"
   height="45.352001"
   width="22.681999"
   style="fill:#ffffff"
   y="235.278"
   x="388.34299" />
</g>
<g
   transform="translate(-13.921,-13.924)"
   id="LWPOLYLINE_242_">
	<path
   inkscape:connector-curvature="0"
   id="path3976"
   d="M 99.212,411.022 H 59.529 c -25.051,0 -45.357,-20.307 -45.357,-45.352 v -39.684 h 22.676 v 39.684 c 0,12.521 10.153,22.682 22.682,22.682 h 39.684 v 22.67 z"
   style="fill:#ffffff" />
</g>
</svg>
