<?xml version="1.0" encoding="iso-8859-1"?>
<!-- Generator: Adobe Illustrator 16.0.0, SVG Export Plug-In . SVG Version: 6.00 Build 0)  -->
<!DOCTYPE svg PUBLIC "-//W3C//DTD SVG 1.1//EN" "http://www.w3.org/Graphics/SVG/1.1/DTD/svg11.dtd">
<svg version="1.1" id="Layer_1" xmlns="http://www.w3.org/2000/svg" xmlns:xlink="http://www.w3.org/1999/xlink" x="0px" y="0px"
	 width="425.197px" height="425.196px" viewBox="0 0 425.197 425.196" style="enable-background:new 0 0 425.197 425.196;"
	 xml:space="preserve">
<g id="LWPOLYLINE_251_">
	<polygon style="fill:#005EB8;" points="150.093,113.386 179.858,113.386 179.858,242.362 195.731,242.362 195.731,272.126 
		179.858,272.126 179.858,311.813 150.093,311.813 150.093,272.126 76.673,272.126 76.673,242.362 	"/>
</g>
<g id="LWPOLYLINE_253_">
	<polygon style="fill:#005EB8;" points="302.876,113.386 332.641,113.386 332.641,242.362 348.514,242.362 348.514,272.126 
		332.641,272.126 332.641,311.813 302.876,311.813 302.876,272.126 229.463,272.126 229.463,242.362 	"/>
</g>
<g id="LWPOLYLINE_252_">
	<polygon style="fill:#FFFFFF;" points="110.406,242.362 150.093,172.645 150.093,242.362 	"/>
</g>
<g id="LWPOLYLINE_254_">
	<polygon style="fill:#FFFFFF;" points="263.194,242.362 302.876,172.645 302.876,242.362 	"/>
</g>
<g id="LWPOLYLINE_237_">
	<path style="fill:#005EB8;" d="M24.09,311.813v24.805c0,21.914,17.768,39.684,39.688,39.684h9.923v-19.846h-9.923
		c-10.958,0-19.841-8.881-19.841-19.838v-24.805H24.09z"/>
</g>
<g id="LWPOLYLINE_238_">
	<path style="fill:#005EB8;" d="M43.937,113.386V88.583c0-10.958,8.884-19.841,19.841-19.841h9.923V48.898h-9.923
		c-21.919,0-39.688,17.768-39.688,39.685v24.803H43.937z"/>
</g>
<g id="LWPOLYLINE_239_">
	<rect x="113.383" y="356.456" style="fill:#005EB8;" width="39.688" height="19.846"/>
</g>
<g id="LWPOLYLINE_240_">
	<rect x="113.383" y="48.898" style="fill:#005EB8;" width="39.688" height="19.844"/>
</g>
<g id="LWPOLYLINE_241_">
	<rect x="192.753" y="356.456" style="fill:#005EB8;" width="39.688" height="19.846"/>
</g>
<g id="LWPOLYLINE_242_">
	<rect x="192.753" y="48.898" style="fill:#005EB8;" width="39.688" height="19.844"/>
</g>
<g id="LWPOLYLINE_243_">
	<rect x="272.122" y="356.456" style="fill:#005EB8;" width="39.691" height="19.846"/>
</g>
<g id="LWPOLYLINE_244_">
	<rect x="272.122" y="48.898" style="fill:#005EB8;" width="39.691" height="19.844"/>
</g>
<g id="LWPOLYLINE_245_">
	<path style="fill:#005EB8;" d="M401.097,311.813v24.805c0,21.914-17.769,39.684-39.683,39.684h-9.919v-19.846h9.919
		c10.957,0,19.846-8.881,19.846-19.838v-24.805H401.097z"/>
</g>
<g id="LWPOLYLINE_246_">
	<path style="fill:#005EB8;" d="M381.26,113.386V88.583c0-10.958-8.889-19.841-19.846-19.841h-9.919V48.898h9.919
		c21.914,0,39.683,17.768,39.683,39.685v24.803H381.26z"/>
</g>
<g id="LWPOLYLINE_247_">
	<rect x="24.09" y="153.073" style="fill:#005EB8;" width="19.846" height="39.688"/>
</g>
<g id="LWPOLYLINE_248_">
	<rect x="381.26" y="153.073" style="fill:#005EB8;" width="19.837" height="39.688"/>
</g>
<g id="LWPOLYLINE_249_">
	<rect x="24.09" y="232.442" style="fill:#005EB8;" width="19.846" height="39.684"/>
</g>
<g id="LWPOLYLINE_250_">
	<rect x="381.26" y="232.442" style="fill:#005EB8;" width="19.837" height="39.684"/>
</g>
<g id="LWPOLYLINE_235_">
	
		<rect x="14.172" y="38.977" style="fill:none;stroke:#005EB8;stroke-width:0.5;stroke-miterlimit:10;" width="396.853" height="347.243"/>
</g>
</svg>
