<?xml version="1.0" encoding="UTF-8" standalone="no"?>
<svg
   xmlns:dc="http://purl.org/dc/elements/1.1/"
   xmlns:cc="http://creativecommons.org/ns#"
   xmlns:rdf="http://www.w3.org/1999/02/22-rdf-syntax-ns#"
   xmlns:svg="http://www.w3.org/2000/svg"
   xmlns="http://www.w3.org/2000/svg"
   xmlns:sodipodi="http://sodipodi.sourceforge.net/DTD/sodipodi-0.dtd"
   xmlns:inkscape="http://www.inkscape.org/namespaces/inkscape"
   inkscape:version="1.0 (4035a4fb49, 2020-05-01)"
   sodipodi:docname="F36_blanko.svg"
   xml:space="preserve"
   viewBox="0 0 397.35301 347.743"
   height="347.74301"
   width="397.353"
   y="0px"
   x="0px"
   id="Layer_1"
   version="1.1"><metadata
   id="metadata4048"><rdf:RDF><cc:Work
       rdf:about=""><dc:format>image/svg+xml</dc:format><dc:type
         rdf:resource="http://purl.org/dc/dcmitype/StillImage" /><dc:title></dc:title></cc:Work></rdf:RDF></metadata><defs
   id="defs4046" /><sodipodi:namedview
   inkscape:document-rotation="0"
   inkscape:current-layer="Layer_1"
   inkscape:window-maximized="0"
   inkscape:window-y="0"
   inkscape:window-x="0"
   inkscape:cy="173.87201"
   inkscape:cx="198.6765"
   inkscape:zoom="0.55503813"
   showgrid="false"
   id="namedview4044"
   inkscape:window-height="480"
   inkscape:window-width="689"
   inkscape:pageshadow="2"
   inkscape:pageopacity="0"
   guidetolerance="10"
   gridtolerance="10"
   objecttolerance="10"
   borderopacity="1"
   bordercolor="#666666"
   pagecolor="#ffffff" />




<g
   transform="translate(-13.922,-38.727001)"
   id="LWPOLYLINE_237_">
	<path
   inkscape:connector-curvature="0"
   id="path3998"
   d="m 24.09,311.813 v 24.805 c 0,21.914 17.768,39.684 39.688,39.684 h 9.923 v -19.846 h -9.923 c -10.958,0 -19.841,-8.881 -19.841,-19.838 v -24.805 z"
   style="fill:#005eb8" />
</g>
<g
   transform="translate(-13.922,-38.727001)"
   id="LWPOLYLINE_238_">
	<path
   inkscape:connector-curvature="0"
   id="path4001"
   d="M 43.937,113.386 V 88.583 c 0,-10.958 8.884,-19.841 19.841,-19.841 h 9.923 V 48.898 h -9.923 c -21.919,0 -39.688,17.768 -39.688,39.685 v 24.803 z"
   style="fill:#005eb8" />
</g>
<g
   transform="translate(-13.922,-38.727001)"
   id="LWPOLYLINE_239_">
	<rect
   id="rect4004"
   height="19.846001"
   width="39.688"
   style="fill:#005eb8"
   y="356.45599"
   x="113.383" />
</g>
<g
   transform="translate(-13.922,-38.727001)"
   id="LWPOLYLINE_240_">
	<rect
   id="rect4007"
   height="19.844"
   width="39.688"
   style="fill:#005eb8"
   y="48.897999"
   x="113.383" />
</g>
<g
   transform="translate(-13.922,-38.727001)"
   id="LWPOLYLINE_241_">
	<rect
   id="rect4010"
   height="19.846001"
   width="39.688"
   style="fill:#005eb8"
   y="356.45599"
   x="192.75301" />
</g>
<g
   transform="translate(-13.922,-38.727001)"
   id="LWPOLYLINE_242_">
	<rect
   id="rect4013"
   height="19.844"
   width="39.688"
   style="fill:#005eb8"
   y="48.897999"
   x="192.75301" />
</g>
<g
   transform="translate(-13.922,-38.727001)"
   id="LWPOLYLINE_243_">
	<rect
   id="rect4016"
   height="19.846001"
   width="39.691002"
   style="fill:#005eb8"
   y="356.45599"
   x="272.12201" />
</g>
<g
   transform="translate(-13.922,-38.727001)"
   id="LWPOLYLINE_244_">
	<rect
   id="rect4019"
   height="19.844"
   width="39.691002"
   style="fill:#005eb8"
   y="48.897999"
   x="272.12201" />
</g>
<g
   transform="translate(-13.922,-38.727001)"
   id="LWPOLYLINE_245_">
	<path
   inkscape:connector-curvature="0"
   id="path4022"
   d="m 401.097,311.813 v 24.805 c 0,21.914 -17.769,39.684 -39.683,39.684 h -9.919 v -19.846 h 9.919 c 10.957,0 19.846,-8.881 19.846,-19.838 v -24.805 z"
   style="fill:#005eb8" />
</g>
<g
   transform="translate(-13.922,-38.727001)"
   id="LWPOLYLINE_246_">
	<path
   inkscape:connector-curvature="0"
   id="path4025"
   d="M 381.26,113.386 V 88.583 c 0,-10.958 -8.889,-19.841 -19.846,-19.841 h -9.919 V 48.898 h 9.919 c 21.914,0 39.683,17.768 39.683,39.685 v 24.803 z"
   style="fill:#005eb8" />
</g>
<g
   transform="translate(-13.922,-38.727001)"
   id="LWPOLYLINE_247_">
	<rect
   id="rect4028"
   height="39.688"
   width="19.846001"
   style="fill:#005eb8"
   y="153.073"
   x="24.09" />
</g>
<g
   transform="translate(-13.922,-38.727001)"
   id="LWPOLYLINE_248_">
	<rect
   id="rect4031"
   height="39.688"
   width="19.837"
   style="fill:#005eb8"
   y="153.073"
   x="381.26001" />
</g>
<g
   transform="translate(-13.922,-38.727001)"
   id="LWPOLYLINE_249_">
	<rect
   id="rect4034"
   height="39.683998"
   width="19.846001"
   style="fill:#005eb8"
   y="232.442"
   x="24.09" />
</g>
<g
   transform="translate(-13.922,-38.727001)"
   id="LWPOLYLINE_250_">
	<rect
   id="rect4037"
   height="39.683998"
   width="19.837"
   style="fill:#005eb8"
   y="232.442"
   x="381.26001" />
</g>
<g
   transform="translate(-13.922,-38.727001)"
   id="LWPOLYLINE_235_">
	
		<rect
   id="rect4040"
   height="347.24301"
   width="396.853"
   style="fill:none;stroke:#005eb8;stroke-width:0.5;stroke-miterlimit:10"
   y="38.977001"
   x="14.172" />
</g>
</svg>
