<?xml version="1.0" encoding="UTF-8" standalone="no"?>
<!-- Generator: Adobe Illustrator 16.0.0, SVG Export Plug-In . SVG Version: 6.00 Build 0)  -->

<svg
   xmlns:dc="http://purl.org/dc/elements/1.1/"
   xmlns:cc="http://creativecommons.org/ns#"
   xmlns:rdf="http://www.w3.org/1999/02/22-rdf-syntax-ns#"
   xmlns:svg="http://www.w3.org/2000/svg"
   xmlns="http://www.w3.org/2000/svg"
   xmlns:sodipodi="http://sodipodi.sourceforge.net/DTD/sodipodi-0.dtd"
   xmlns:inkscape="http://www.inkscape.org/namespaces/inkscape"
   version="1.1"
   id="Layer_1"
   x="0px"
   y="0px"
   width="255.01601"
   height="397.35101"
   viewBox="0 0 255.01601 397.351"
   xml:space="preserve"
   sodipodi:docname="F4.1.svg"
   inkscape:version="0.92.5 (2060ec1f9f, 2020-04-08)"><metadata
   id="metadata4259"><rdf:RDF><cc:Work
       rdf:about=""><dc:format>image/svg+xml</dc:format><dc:type
         rdf:resource="http://purl.org/dc/dcmitype/StillImage" /></cc:Work></rdf:RDF></metadata><defs
   id="defs4257" /><sodipodi:namedview
   pagecolor="#ffffff"
   bordercolor="#666666"
   borderopacity="1"
   objecttolerance="10"
   gridtolerance="10"
   guidetolerance="10"
   inkscape:pageopacity="0"
   inkscape:pageshadow="2"
   inkscape:window-width="640"
   inkscape:window-height="480"
   id="namedview4255"
   showgrid="false"
   inkscape:zoom="0.55503813"
   inkscape:cx="127.5085"
   inkscape:cy="198.67601"
   inkscape:window-x="0"
   inkscape:window-y="0"
   inkscape:window-maximized="0"
   inkscape:current-layer="Layer_1" />
<g
   id="LWPOLYLINE_167_"
   transform="translate(-85.089996,-13.923)">
	
		<rect
   x="85.339996"
   y="14.173"
   style="fill:#005eb8;stroke:#005eb8;stroke-width:0.5;stroke-miterlimit:10"
   width="254.51601"
   height="396.85101"
   id="rect4134" />
</g>
<g
   id="LWPOLYLINE_169_"
   transform="translate(-85.089996,-13.923)">
	<path
   style="fill:#ffffff"
   d="m 95.386,411.023 h 234.423 c 5.55,0 10.047,-4.497 10.047,-10.051 V 24.22 c 0,-5.55 -4.497,-10.047 -10.047,-10.047 H 95.386 c -5.549,0 -10.046,4.497 -10.046,10.047 v 376.753 c 0,5.553 4.497,10.05 10.046,10.05 z"
   id="path4137"
   inkscape:connector-curvature="0" />
</g>
<g
   id="LWPOLYLINE_168_"
   transform="translate(-85.089996,-13.923)">
	<path
   style="fill:#005eb8"
   d="m 95.386,406 h 234.423 c 2.771,0 5.023,-2.248 5.023,-5.027 V 24.22 c 0,-2.775 -2.253,-5.023 -5.023,-5.023 H 95.386 c -2.779,0 -5.022,2.248 -5.022,5.023 v 376.753 c 0,2.779 2.243,5.027 5.022,5.027 z"
   id="path4140"
   inkscape:connector-curvature="0" />
</g>
<g
   id="CIRCLE_1_"
   transform="translate(-85.089996,-13.923)">
	<path
   style="fill:#ffcd00"
   d="m 217.617,305.53 c 0,-29.595 -23.99,-53.585 -53.585,-53.585 -29.585,0 -53.575,23.99 -53.575,53.585 0,29.595 23.99,53.585 53.575,53.585 29.594,0 53.585,-23.99 53.585,-53.585 z"
   id="path4143"
   inkscape:connector-curvature="0" />
</g>
<g
   id="CIRCLE_2_"
   transform="translate(-85.089996,-13.923)">
	<path
   style="fill:#e4002b"
   d="m 215.946,305.53 c 0,-28.672 -23.242,-51.909 -51.914,-51.909 -28.662,0 -51.903,23.237 -51.903,51.909 0,28.667 23.241,51.904 51.903,51.904 28.672,10e-4 51.914,-23.237 51.914,-51.904 z"
   id="path4146"
   inkscape:connector-curvature="0" />
</g>
<g
   id="CIRCLE_3_"
   transform="translate(-85.089996,-13.923)">
	<path
   style="fill:#ffcd00"
   d="m 205.049,305.53 c 0,-22.651 -18.357,-41.018 -41.018,-41.018 -22.65,0 -41.008,18.366 -41.008,41.018 0,22.65 18.357,41.018 41.008,41.018 22.661,0 41.018,-18.367 41.018,-41.018 z"
   id="path4149"
   inkscape:connector-curvature="0" />
</g>
<g
   id="LWPOLYLINE_2_"
   transform="translate(-85.089996,-13.923)">
	<rect
   x="256.13101"
   y="276.508"
   style="fill:#ffcd00"
   width="58.608002"
   height="58.608002"
   id="rect4152" />
</g>
<g
   id="LWPOLYLINE_3_"
   transform="translate(-85.089996,-13.923)">
	<path
   style="fill:#101820"
   d="m 264.507,333.439 h 41.857 c 3.702,0 6.694,-2.996 6.694,-6.699 v -41.857 c 0,-3.702 -2.992,-6.699 -6.694,-6.699 h -41.857 c -3.703,0 -6.704,2.997 -6.704,6.699 v 41.857 c 0,3.703 3.001,6.699 6.704,6.699 z"
   id="path4155"
   inkscape:connector-curvature="0" />
</g>
<g
   id="LWPOLYLINE_6_"
   transform="translate(-85.089996,-13.923)">
	<path
   style="fill:#ffcd00"
   d="m 264.507,330.093 h 41.857 c 1.847,0 3.352,-1.501 3.352,-3.353 v -41.857 c 0,-1.852 -1.505,-3.352 -3.352,-3.352 h -41.857 c -1.856,0 -3.353,1.5 -3.353,3.352 v 41.857 c 10e-4,1.852 1.497,3.353 3.353,3.353 z"
   id="path4158"
   inkscape:connector-curvature="0" />
</g>
<g
   id="CIRCLE_6_"
   transform="translate(-85.089996,-13.923)">
	<path
   style="fill:#101820"
   d="m 276.058,313.181 c 0,-2.097 -1.698,-3.795 -3.795,-3.795 -2.096,0 -3.795,1.698 -3.795,3.795 0,2.096 1.699,3.795 3.795,3.795 2.097,0 3.795,-1.7 3.795,-3.795 z"
   id="path4161"
   inkscape:connector-curvature="0" />
</g>
<g
   id="CIRCLE_7_"
   transform="translate(-85.089996,-13.923)">
	<path
   style="fill:#101820"
   d="m 300.842,313.181 c 0,-2.097 -1.699,-3.795 -3.795,-3.795 -2.097,0 -3.795,1.698 -3.795,3.795 0,2.096 1.698,3.795 3.795,3.795 2.096,0 3.795,-1.7 3.795,-3.795 z"
   id="path4164"
   inkscape:connector-curvature="0" />
</g>
<g
   id="LWPOLYLINE_16_"
   transform="translate(-85.089996,-13.923)">
	<path
   style="fill:#101820"
   d="m 276.723,313.407 c 0.12,-2.466 -1.782,-4.566 -4.247,-4.687 -2.466,-0.12 -4.562,1.782 -4.682,4.247 -0.01,0.144 -0.01,0.291 0,0.439 h -2.678 v -7.147 l 2.234,-6.03 h 10.047 v 9.825 h 1.561 v -13.842 h 26.565 v 12.503 h -3.795 v 1.787 h 3.795 v 2.904 h -4.017 c 0.12,-2.466 -1.782,-4.566 -4.248,-4.687 -2.465,-0.12 -4.562,1.782 -4.682,4.247 -0.009,0.144 -0.009,0.291 0,0.439 h -15.853 z"
   id="path4167"
   inkscape:connector-curvature="0" />
</g>
<g
   id="LWPOLYLINE_5_"
   transform="translate(-85.089996,-13.923)">
	<path
   style="fill:#ffffff"
   d="m 117.152,151.479 h 45.209 c 3.703,0 6.694,-2.998 6.694,-6.699 V 99.568 c 0,-3.698 -2.991,-6.696 -6.694,-6.696 h -45.209 c -3.703,0 -6.695,2.998 -6.695,6.696 v 45.212 c 0,3.701 2.992,6.699 6.695,6.699 z"
   id="path4170"
   inkscape:connector-curvature="0" />
</g>
<g
   id="LWPOLYLINE_4_"
   transform="translate(-85.089996,-13.923)">
	<path
   style="fill:#ffffff"
   d="m 182.454,151.479 h 87.076 c 3.694,0 6.695,-2.998 6.695,-6.699 V 99.568 c 0,-3.698 -3.001,-6.696 -6.695,-6.696 h -87.076 c -3.693,0 -6.694,2.998 -6.694,6.696 v 45.212 c -0.001,3.701 3,6.699 6.694,6.699 z"
   id="path4173"
   inkscape:connector-curvature="0" />
</g>
<g
   id="LWPOLYLINE_15_"
   transform="translate(-85.089996,-13.923)">
	<path
   style="fill:#e4002b"
   d="m 117.152,148.13 h 45.209 c 1.847,0 3.352,-1.498 3.352,-3.35 V 99.568 c 0,-1.849 -1.505,-3.347 -3.352,-3.347 h -45.209 c -1.848,0 -3.353,1.498 -3.353,3.347 v 45.212 c 0,1.852 1.505,3.35 3.353,3.35 z"
   id="path4176"
   inkscape:connector-curvature="0" />
</g>
<g
   id="LWPOLYLINE_7_"
   transform="translate(-85.089996,-13.923)">
	<path
   style="fill:#009775"
   d="m 182.454,148.13 h 87.076 c 1.847,0 3.343,-1.498 3.343,-3.35 V 99.568 c 0,-1.849 -1.496,-3.347 -3.343,-3.347 h -87.076 c -1.847,0 -3.352,1.498 -3.352,3.347 v 45.212 c 0,1.852 1.505,3.35 3.352,3.35 z"
   id="path4179"
   inkscape:connector-curvature="0" />
</g>
<g
   id="LWPOLYLINE_172_"
   transform="translate(-85.089996,-13.923)">
	<polygon
   style="fill:#ffffff"
   points="132.221,44.313 123.845,44.313 123.845,72.778 118.823,72.778 118.823,44.313 110.457,44.313 110.457,39.289 132.221,39.289 "
   id="polygon4182" />
</g>
<g
   id="LWPOLYLINE_14_"
   transform="translate(-85.089996,-13.923)">
	<polygon
   style="fill:#ffffff"
   points="143.441,39.289 149.138,39.289 158.011,72.778 152.646,72.778 151.142,67.084 141.427,67.084 139.922,72.778 134.566,72.778 "
   id="polygon4185" />
</g>
<g
   id="LWPOLYLINE_13_"
   transform="translate(-85.089996,-13.923)">
	<polygon
   style="fill:#ffffff"
   points="187.145,72.778 192.167,72.778 192.167,39.289 186.47,39.289 178.769,58.378 171.068,39.289 165.38,39.289 165.38,72.778 170.404,72.778 170.404,51.01 178.769,72.778 187.145,51.01 "
   id="polygon4188" />
</g>
<g
   id="LWPOLYLINE_12_"
   transform="translate(-85.089996,-13.923)">
	<path
   style="fill:#ffffff"
   d="m 208.577,57.709 h 6.528 c 4.719,0 8.542,-3.825 8.542,-8.542 v -1.339 c 0,-4.716 -3.823,-8.539 -8.542,-8.539 h -11.552 v 33.489 h 5.023 V 57.709 Z"
   id="path4191"
   inkscape:connector-curvature="0" />
</g>
<g
   id="LWPOLYLINE_11_"
   transform="translate(-85.089996,-13.923)">
	<polygon
   style="fill:#ffffff"
   points="249.095,67.755 235.707,67.755 235.707,57.709 244.747,57.709 244.747,52.686 235.707,52.686 235.707,44.313 249.095,44.313 249.095,39.289 230.683,39.289 230.683,72.778 249.095,72.778 "
   id="polygon4194" />
</g>
<g
   id="LWPOLYLINE_10_"
   transform="translate(-85.089996,-13.923)">
	<path
   style="fill:#ffffff"
   d="m 263.167,57.709 v 15.069 h -5.022 V 39.289 h 11.552 c 4.718,0 8.541,3.823 8.541,8.539 v 1.339 c 0,3.597 -2.253,6.809 -5.642,8.031 l 5.642,15.58 h -5.365 l -5.447,-15.069 z"
   id="path4197"
   inkscape:connector-curvature="0" />
</g>
<g
   id="LWPOLYLINE_9_"
   transform="translate(-85.089996,-13.923)">
	<polygon
   style="fill:#ffffff"
   points="305.026,67.755 291.626,67.755 291.626,57.709 300.667,57.709 300.667,52.686 291.626,52.686 291.626,44.313 305.026,44.313 305.026,39.289 286.604,39.289 286.604,72.778 305.026,72.778 "
   id="polygon4200" />
</g>
<g
   id="LWPOLYLINE_29_"
   transform="translate(-85.089996,-13.923)">
	<polygon
   style="fill:#ffcd00"
   points="273.842,302.243 273.842,306.26 267.416,306.26 268.625,302.243 "
   id="polygon4203" />
</g>
<g
   id="LWPOLYLINE_28_"
   transform="translate(-85.089996,-13.923)">
	<path
   style="fill:#101820"
   d="m 151.105,343.574 c 8.384,2.854 17.479,2.854 25.864,0 l -12.938,-12.928 z"
   id="path4206"
   inkscape:connector-curvature="0" />
</g>
<g
   id="LWPOLYLINE_27_"
   transform="translate(-85.089996,-13.923)">
	<path
   style="fill:#101820"
   d="m 151.105,267.481 c 8.384,-2.849 17.479,-2.849 25.864,0 l -12.938,12.933 z"
   id="path4209"
   inkscape:connector-curvature="0" />
</g>
<g
   id="LWPOLYLINE_26_"
   transform="translate(-85.089996,-13.923)">
	<path
   style="fill:#101820"
   d="m 131.177,311.56 c 0,5.084 4.119,9.207 9.207,9.207 5.088,0 9.206,-4.123 9.206,-9.207 v -2.013 c 0,-2.715 -1.2,-5.296 -3.278,-7.046 1.57,-1.676 2.447,-3.887 2.447,-6.182 v -0.67 c 0,-4.626 -3.749,-8.375 -8.375,-8.375 -4.627,0 -8.375,3.749 -8.375,8.375 v 0.67 h 5.022 v -0.67 c 0,-1.847 1.505,-3.352 3.353,-3.352 1.847,0 3.352,1.505 3.352,3.352 v 0.67 c 0,2.221 -1.801,4.021 -4.025,4.021 h -0.666 v 4.687 h 1.34 c 2.309,0 4.183,1.874 4.183,4.188 v 2.345 c 0,2.309 -1.874,4.184 -4.183,4.184 -2.309,0 -4.184,-1.875 -4.184,-4.184 z"
   id="path4212"
   inkscape:connector-curvature="0" />
</g>
<g
   id="LWPOLYLINE_25_"
   transform="translate(-85.089996,-13.923)">
	<path
   style="fill:#101820"
   d="m 152.138,324.954 4.055,-4.714 c 1.089,-0.85 1.292,-2.429 0.442,-3.523 -0.849,-1.094 -2.429,-1.297 -3.526,-0.447 -0.609,0.476 -0.971,1.209 -0.971,1.985 z"
   id="path4215"
   inkscape:connector-curvature="0" />
</g>
<g
   id="LWPOLYLINE_24_"
   transform="translate(-85.089996,-13.923)">
	<path
   style="fill:#101820"
   d="m 160.985,313.859 c 0,3.813 3.084,6.907 6.907,6.907 3.813,0 6.906,-3.094 6.906,-6.907 v -2.761 c 0,-3.814 -3.093,-6.907 -6.906,-6.907 -0.97,0 -1.921,0.203 -2.798,0.591 l 0.535,-5.365 h 6.907 l -0.249,-3.768 H 162.24 l -1.256,12.559 4.396,1.007 c 0.591,-0.794 1.523,-1.256 2.512,-1.256 1.727,0 3.14,1.403 3.14,3.14 v 2.761 c 0,1.735 -1.413,3.14 -3.14,3.14 -1.736,0 -3.14,-1.404 -3.14,-3.14 h -3.767 z"
   id="path4218"
   inkscape:connector-curvature="0" />
</g>
<g
   id="LWPOLYLINE_23_"
   transform="translate(-85.089996,-13.923)">
	<path
   style="fill:#101820"
   d="m 188.585,306.551 c -0.656,-0.55 -1.487,-0.854 -2.336,-0.854 -1.21,0.147 -2.383,0.563 -3.417,1.21 v -1.21 h -3.011 v 15.07 h 3.011 V 310.12 c 0,-1.107 0.896,-2.013 2.013,-2.013 1.108,0 2.004,0.905 2.004,2.013 v 10.647 h 3.02 V 310.12 c 0,-1.107 0.896,-2.013 2.004,-2.013 1.108,0 2.013,0.905 2.013,2.013 v 10.647 h 3.011 v -11.482 c -0.139,-1.935 -1.681,-3.468 -3.61,-3.588 -1.627,-0.209 -3.261,0.092 -4.702,0.854 z"
   id="path4221"
   inkscape:connector-curvature="0" />
</g>
<g
   id="LWPOLYLINE_173_"
   transform="translate(-85.089996,-13.923)">
	<polygon
   style="fill:#005eb8"
   points="146.285,47.66 149.968,62.061 142.6,62.061 "
   id="polygon4224" />
</g>
<g
   id="LWPOLYLINE_22_"
   transform="translate(-85.089996,-13.923)">
	<path
   style="fill:#005eb8"
   d="m 208.577,52.686 h 6.528 c 1.948,0 3.519,-1.574 3.519,-3.519 v -1.339 c 0,-1.941 -1.57,-3.516 -3.519,-3.516 h -6.528 z"
   id="path4227"
   inkscape:connector-curvature="0" />
</g>
<g
   id="LWPOLYLINE_21_"
   transform="translate(-85.089996,-13.923)">
	<path
   style="fill:#005eb8"
   d="m 263.167,52.686 h 6.529 c 1.938,0 3.518,-1.574 3.518,-3.519 v -1.339 c 0,-1.941 -1.579,-3.516 -3.518,-3.516 h -6.529 z"
   id="path4230"
   inkscape:connector-curvature="0" />
</g>
<g
   id="LWPOLYLINE_20_"
   transform="translate(-85.089996,-13.923)">
	<polygon
   style="fill:#ffffff"
   points="210.589,133.898 197.191,133.898 197.191,123.852 206.231,123.852 206.231,118.826 197.191,118.826 197.191,110.453 210.589,110.453 210.589,105.43 192.167,105.43 192.167,138.922 210.589,138.922 "
   id="polygon4233" />
</g>
<g
   id="LWPOLYLINE_19_"
   transform="translate(-85.089996,-13.923)">
	<path
   style="fill:#ffffff"
   d="m 223.148,110.352 c 1.977,-1.024 3.463,-2.796 4.128,-4.922 h 5.078 v 33.492 h -5.023 v -25.788 l -3.684,0.669 z"
   id="path4236"
   inkscape:connector-curvature="0" />
</g>
<g
   id="LWPOLYLINE_18_"
   transform="translate(-85.089996,-13.923)">
	<path
   style="fill:#ffffff"
   d="m 241.394,116.314 h 5.023 v -1.676 c 0,-0.54 0.111,-1.078 0.314,-1.581 0.867,-2.141 3.314,-3.168 5.457,-2.295 2.143,0.875 3.167,3.317 2.29,5.457 l -13.085,17.679 v 5.023 h 18.422 v -5.023 H 247.09 l 12.18,-16.132 c 1.727,-4.783 -0.757,-10.063 -5.54,-11.79 -4.783,-1.727 -10.056,0.751 -11.792,5.534 -0.462,1.297 -0.637,2.683 -0.498,4.056 z"
   id="path4239"
   inkscape:connector-curvature="0" />
</g>
<g
   id="LWPOLYLINE_17_"
   transform="translate(-85.089996,-13.923)">
	<path
   style="fill:#ffffff"
   d="m 130.55,129.711 c 0,5.088 4.117,9.211 9.205,9.211 5.088,0 9.207,-4.123 9.207,-9.211 v -2.009 c 0,-2.72 -1.201,-5.296 -3.278,-7.046 1.569,-1.678 2.447,-3.89 2.447,-6.184 v -0.67 c 0,-4.624 -3.749,-8.373 -8.376,-8.373 -4.625,0 -8.375,3.749 -8.375,8.373 v 0.67 h 5.023 v -0.67 c 0,-1.852 1.506,-3.35 3.352,-3.35 1.848,0 3.353,1.498 3.353,3.35 v 0.67 c 0,2.218 -1.801,4.019 -4.017,4.019 h -0.674 v 4.691 h 1.338 c 2.309,0 4.184,1.874 4.184,4.185 v 2.344 c 0,2.313 -1.875,4.188 -4.184,4.188 -2.308,0 -4.183,-1.875 -4.183,-4.188 z"
   id="path4242"
   inkscape:connector-curvature="0" />
</g>
<g
   id="LWPOLYLINE_170_"
   transform="translate(-85.089996,-13.923)">
	<rect
   x="157.33701"
   y="365.81"
   style="fill:#ffffff"
   width="13.398"
   height="40.189999"
   id="rect4245" />
</g>
<g
   id="LWPOLYLINE_8_"
   transform="translate(-85.089996,-13.923)">
	<polygon
   style="fill:#ffffff"
   points="187.477,204.894 187.477,188.318 164.032,164.876 140.596,188.318 140.596,204.894 157.337,188.15 157.337,245.251 170.736,245.251 170.736,188.15 "
   id="polygon4248" />
</g>
<g
   id="LWPOLYLINE_171_"
   transform="translate(-85.089996,-13.923)">
	<polygon
   style="fill:#ffcd00"
   points="170.736,392.117 170.736,380.52 231.015,345.717 231.015,265.344 170.736,230.539 170.736,218.938 241.062,259.545 241.062,351.516 "
   id="polygon4251" />
</g>
</svg>