<?xml version="1.0" encoding="UTF-8" standalone="no"?>
<!-- Generator: Adobe Illustrator 16.0.0, SVG Export Plug-In . SVG Version: 6.00 Build 0)  -->

<svg
   xmlns:dc="http://purl.org/dc/elements/1.1/"
   xmlns:cc="http://creativecommons.org/ns#"
   xmlns:rdf="http://www.w3.org/1999/02/22-rdf-syntax-ns#"
   xmlns:svg="http://www.w3.org/2000/svg"
   xmlns="http://www.w3.org/2000/svg"
   xmlns:sodipodi="http://sodipodi.sourceforge.net/DTD/sodipodi-0.dtd"
   xmlns:inkscape="http://www.inkscape.org/namespaces/inkscape"
   version="1.1"
   id="Layer_1"
   x="0px"
   y="0px"
   width="396.845"
   height="213.98901"
   viewBox="0 0 396.84501 213.98901"
   xml:space="preserve"
   sodipodi:docname="F4.2.svg"
   inkscape:version="0.92.5 (2060ec1f9f, 2020-04-08)"><metadata
   id="metadata4341"><rdf:RDF><cc:Work
       rdf:about=""><dc:format>image/svg+xml</dc:format><dc:type
         rdf:resource="http://purl.org/dc/dcmitype/StillImage" /></cc:Work></rdf:RDF></metadata><defs
   id="defs4339" /><sodipodi:namedview
   pagecolor="#ffffff"
   bordercolor="#666666"
   borderopacity="1"
   objecttolerance="10"
   gridtolerance="10"
   guidetolerance="10"
   inkscape:pageopacity="0"
   inkscape:pageshadow="2"
   inkscape:window-width="640"
   inkscape:window-height="480"
   id="namedview4337"
   showgrid="false"
   inkscape:zoom="0.55503813"
   inkscape:cx="198.4225"
   inkscape:cy="106.995"
   inkscape:window-x="0"
   inkscape:window-y="0"
   inkscape:window-maximized="0"
   inkscape:current-layer="Layer_1" />
<g
   id="LWPOLYLINE_186_"
   transform="translate(-14.176,-105.604)">
	<rect
   x="14.176"
   y="212.599"
   style="fill:#ffcd00"
   width="396.845"
   height="106.994"
   id="rect4261" />
</g>
<g
   id="LWPOLYLINE_167_"
   transform="translate(-14.176,-105.604)">
	<path
   style="fill:#101820"
   d="m 14.176,307.921 v -83.65 c 0,-6.445 5.224,-11.672 11.672,-11.672 h 373.501 c 6.447,0 11.672,5.227 11.672,11.672 v 83.65 c 0,6.447 -5.225,11.672 -11.672,11.672 H 25.848 c -6.448,0 -11.672,-5.225 -11.672,-11.672 z"
   id="path4264"
   inkscape:connector-curvature="0" />
</g>
<g
   id="LWPOLYLINE_166_"
   transform="translate(-14.176,-105.604)">
	<path
   style="fill:#ffcd00"
   d="m 20.012,307.921 v -83.65 c 0,-3.221 2.607,-5.836 5.836,-5.836 h 373.501 c 3.229,0 5.836,2.615 5.836,5.836 v 83.65 c 0,3.223 -2.607,5.836 -5.836,5.836 H 25.848 c -3.229,0 -5.836,-2.613 -5.836,-5.836 z"
   id="path4267"
   inkscape:connector-curvature="0" />
</g>
<g
   id="LWPOLYLINE_162_"
   transform="translate(-14.176,-105.604)">
	<path
   style="fill:#101820"
   d="m 113.387,301.114 h -11.672 v -37.939 c 0,-1.609 -1.309,-2.918 -2.918,-2.918 H 64.318 l 17.508,17.508 H 66.699 L 43.355,254.421 66.699,231.079 h 15.126 l -17.508,17.508 h 43.233 c 3.218,0 5.836,2.615 5.836,5.834 v 38.91 7.783 z"
   id="path4270"
   inkscape:connector-curvature="0" />
</g>
<g
   id="LWPOLYLINE_179_"
   transform="translate(-14.176,-105.604)">
	<polygon
   style="fill:#101820"
   points="177.583,252.479 167.852,252.479 167.852,285.554 162.016,285.554 162.016,252.479 152.286,252.479 152.286,246.644 177.583,246.644 "
   id="polygon4273" />
</g>
<g
   id="LWPOLYLINE_180_"
   transform="translate(-14.176,-105.604)">
	<path
   style="fill:#101820"
   d="m 184.974,272.905 c 0,6.982 5.664,12.648 12.647,12.648 6.984,0 12.638,-5.666 12.638,-12.648 v -26.262 h -5.836 v 26.262 c 0,3.76 -3.047,6.813 -6.802,6.813 -3.765,0 -6.812,-3.053 -6.812,-6.813 v -26.262 h -5.836 v 26.262 z"
   id="path4276"
   inkscape:connector-curvature="0" />
</g>
<g
   id="LWPOLYLINE_181_"
   transform="translate(-14.176,-105.604)">
	<path
   style="fill:#101820"
   d="m 229.323,268.046 v 17.508 h -5.836 v -38.91 h 13.432 c 5.471,0 9.912,4.441 9.912,9.922 v 1.557 c 0,4.174 -2.617,7.906 -6.544,9.328 l 6.544,18.104 h -6.222 l -6.33,-17.508 h -4.956 z"
   id="path4279"
   inkscape:connector-curvature="0" />
</g>
<g
   id="LWPOLYLINE_183_"
   transform="translate(-14.176,-105.604)">
	<polygon
   style="fill:#101820"
   points="256.561,285.554 256.561,246.644 262.397,246.644 262.397,265.319 274.852,246.644 281.846,246.644 270.764,263.175 281.846,285.554 275.238,285.554 267.063,268.817 262.397,275.823 262.397,285.554 "
   id="polygon4282" />
</g>
<g
   id="LWPOLYLINE_184_"
   transform="translate(-14.176,-105.604)">
	<path
   style="fill:#101820"
   d="m 289.635,272.905 c 0,6.982 5.653,12.648 12.637,12.648 6.984,0 12.648,-5.666 12.648,-12.648 v -26.262 h -5.836 v 26.262 c 0,3.76 -3.047,6.813 -6.813,6.813 -3.754,0 -6.801,-3.053 -6.801,-6.813 v -26.262 h -5.836 v 26.262 z"
   id="path4285"
   inkscape:connector-curvature="0" />
</g>
<g
   id="LWPOLYLINE_165_"
   transform="translate(-14.176,-105.604)">
	<rect
   x="14.176"
   y="105.604"
   style="fill:#ffcd00"
   width="396.845"
   height="106.995"
   id="rect4288" />
</g>
<g
   id="LWPOLYLINE_164_"
   transform="translate(-14.176,-105.604)">
	<path
   style="fill:#101820"
   d="m 14.176,200.927 v -83.651 c 0,-6.445 5.224,-11.672 11.672,-11.672 h 373.501 c 6.447,0 11.672,5.227 11.672,11.672 v 83.651 c 0,6.447 -5.225,11.672 -11.672,11.672 H 25.848 c -6.448,0 -11.672,-5.225 -11.672,-11.672 z"
   id="path4291"
   inkscape:connector-curvature="0" />
</g>
<g
   id="LWPOLYLINE_163_"
   transform="translate(-14.176,-105.604)">
	<path
   style="fill:#ffcd00"
   d="m 20.012,200.927 v -83.651 c 0,-3.221 2.607,-5.836 5.836,-5.836 h 373.501 c 3.229,0 5.836,2.615 5.836,5.836 v 83.651 c 0,3.223 -2.607,5.836 -5.836,5.836 H 25.848 c -3.229,0 -5.836,-2.614 -5.836,-5.836 z"
   id="path4294"
   inkscape:connector-curvature="0" />
</g>
<g
   id="LWPOLYLINE_161_"
   transform="translate(-14.176,-105.604)">
	<path
   style="fill:#101820"
   d="m 43.355,194.12 h 11.672 v -37.937 c 0,-1.612 1.298,-2.918 2.918,-2.918 H 92.414 L 74.906,170.773 H 90.043 L 113.387,147.429 90.043,124.085 H 74.906 l 17.508,17.508 H 49.191 c -3.229,0 -5.836,2.615 -5.836,5.836 v 46.691"
   id="path4297"
   inkscape:connector-curvature="0" />
</g>
<g
   id="LWPOLYLINE_169_"
   transform="translate(-14.176,-105.604)">
	<polygon
   style="fill:#101820"
   points="177.583,145.485 167.852,145.485 167.852,178.556 162.016,178.556 162.016,145.485 152.286,145.485 152.286,139.649 177.583,139.649 "
   id="polygon4300" />
</g>
<g
   id="LWPOLYLINE_171_"
   transform="translate(-14.176,-105.604)">
	<polygon
   style="fill:#101820"
   points="190.617,139.649 197.225,139.649 207.535,178.556 201.313,178.556 199.564,171.942 188.278,171.942 186.53,178.556 180.307,178.556 "
   id="polygon4303" />
</g>
<g
   id="LWPOLYLINE_172_"
   transform="translate(-14.176,-105.604)">
	<polygon
   style="fill:#101820"
   points="241.392,178.556 247.228,178.556 247.228,139.649 240.609,139.649 231.662,161.826 222.714,139.649 216.095,139.649 216.095,178.556 221.931,178.556 221.931,153.265 231.662,178.556 241.392,153.265 "
   id="polygon4306" />
</g>
<g
   id="LWPOLYLINE_174_"
   transform="translate(-14.176,-105.604)">
	<path
   style="fill:#101820"
   d="m 266.292,161.048 h 7.584 c 5.482,0 9.924,-4.444 9.924,-9.921 v -1.558 c 0,-5.479 -4.441,-9.92 -9.924,-9.92 h -13.42 v 38.907 h 5.836 z"
   id="path4309"
   inkscape:connector-curvature="0" />
</g>
<g
   id="LWPOLYLINE_175_"
   transform="translate(-14.176,-105.604)">
	<polygon
   style="fill:#101820"
   points="313.365,172.72 297.799,172.72 297.799,161.048 308.312,161.048 308.312,155.212 297.799,155.212 297.799,145.485 313.365,145.485 313.365,139.649 291.963,139.649 291.963,178.556 313.365,178.556 "
   id="polygon4312" />
</g>
<g
   id="LWPOLYLINE_176_"
   transform="translate(-14.176,-105.604)">
	<path
   style="fill:#101820"
   d="m 329.704,161.048 v 17.508 h -5.836 v -38.907 h 13.42 c 5.482,0 9.924,4.441 9.924,9.92 v 1.558 c 0,4.176 -2.617,7.907 -6.544,9.328 l 6.544,18.101 h -6.223 l -6.329,-17.508 z"
   id="path4315"
   inkscape:connector-curvature="0" />
</g>
<g
   id="LWPOLYLINE_178_"
   transform="translate(-14.176,-105.604)">
	<polygon
   style="fill:#101820"
   points="378.343,172.72 362.778,172.72 362.778,161.048 373.28,161.048 373.28,155.212 362.778,155.212 362.778,145.485 378.343,145.485 378.343,139.649 356.942,139.649 356.942,178.556 378.343,178.556 "
   id="polygon4318" />
</g>
<g
   id="LWPOLYLINE_170_"
   transform="translate(-14.176,-105.604)">
	<polygon
   style="fill:#ffcd00"
   points="193.92,149.376 198.202,166.106 189.64,166.106 "
   id="polygon4321" />
</g>
<g
   id="LWPOLYLINE_173_"
   transform="translate(-14.176,-105.604)">
	<path
   style="fill:#ffcd00"
   d="m 266.292,155.212 h 7.584 c 2.253,0 4.088,-1.829 4.088,-4.085 v -1.558 c 0,-2.255 -1.835,-4.084 -4.088,-4.084 h -7.584 z"
   id="path4324"
   inkscape:connector-curvature="0" />
</g>
<g
   id="LWPOLYLINE_177_"
   transform="translate(-14.176,-105.604)">
	<path
   style="fill:#ffcd00"
   d="m 329.704,155.212 h 7.584 c 2.264,0 4.088,-1.829 4.088,-4.085 v -1.558 c 0,-2.255 -1.824,-4.084 -4.088,-4.084 h -7.584 z"
   id="path4327"
   inkscape:connector-curvature="0" />
</g>
<g
   id="LWPOLYLINE_182_"
   transform="translate(-14.176,-105.604)">
	<path
   style="fill:#ffcd00"
   d="m 229.323,262.21 h 7.596 c 2.253,0 4.076,-1.836 4.076,-4.088 v -1.557 c 0,-2.258 -1.823,-4.086 -4.076,-4.086 h -7.596 z"
   id="path4330"
   inkscape:connector-curvature="0" />
</g>
<g
   id="LWPOLYLINE_168_"
   transform="translate(-14.176,-105.604)">
	<rect
   x="14.176"
   y="212.599"
   style="fill:none"
   width="396.845"
   height="106.994"
   id="rect4333" />
</g>
</svg>