<?xml version="1.0" encoding="iso-8859-1"?>
<!-- Generator: Adobe Illustrator 16.0.0, SVG Export Plug-In . SVG Version: 6.00 Build 0)  -->
<!DOCTYPE svg PUBLIC "-//W3C//DTD SVG 1.1//EN" "http://www.w3.org/Graphics/SVG/1.1/DTD/svg11.dtd">
<svg version="1.1" id="Layer_1" xmlns="http://www.w3.org/2000/svg" xmlns:xlink="http://www.w3.org/1999/xlink" x="0px" y="0px"
	 width="425.197px" height="425.196px" viewBox="0 0 425.197 425.196" style="enable-background:new 0 0 425.197 425.196;"
	 xml:space="preserve">
<g id="LWPOLYLINE_149_">
	
		<rect x="14.173" y="14.173" style="fill:#005EB8;stroke:#005EB8;stroke-width:0.5;stroke-miterlimit:10;" width="396.85" height="396.851"/>
</g>
<g id="LWPOLYLINE_147_">
	<path style="fill:#FFFFFF;" d="M59.53,411.023h306.139c25.047,0,45.354-20.305,45.354-45.351V59.527
		c0-25.048-20.307-45.354-45.354-45.354H59.53c-25.049,0-45.357,20.307-45.357,45.354v306.146
		C14.173,390.719,34.481,411.023,59.53,411.023z"/>
</g>
<g id="LWPOLYLINE_148_">
	<path style="fill:#005EB8;" d="M59.53,388.344h306.139c12.525,0,22.684-10.149,22.684-22.671V59.527
		c0-12.524-10.158-22.679-22.684-22.679H59.53c-12.527,0-22.682,10.154-22.682,22.679v306.146
		C36.849,378.194,47.003,388.344,59.53,388.344z"/>
</g>
<g id="LWPOLYLINE_150_">
	<path style="fill:#FFFFFF;" d="M103.838,263.543l-33.136-50.944h50.881l5.778-11.339h22.863l6.575-11.342h-23.661l10.924-21.439
		h25.176l27.023-46.588h5.778l-3.771,11.538h9.494v7.938h-12.09l-9.135,27.112l9.712,10.104h70.882l16.322-28.146h23.154v28.146
		h12.887l6.123,11.335H179.803l-3.706,11.342h155.634l6.113,11.339h10.818v39.624c-20.691,15.117-48.783,15.117-69.475,0
		c-20.682,15.117-48.773,15.117-69.464,0c-20.686,15.117-48.776,15.117-69.468,0C129.708,259.929,116.9,263.908,103.838,263.543z"/>
</g>
<g id="LWPOLYLINE_151_">
	<path style="fill:#FFFFFF;" d="M348.664,274.903v-11.339c-20.691,15.123-48.783,15.123-69.475,0
		c-20.682,15.123-48.773,15.123-69.464,0c-20.686,15.123-48.776,15.123-69.468,0c-20.658,15.123-48.727,15.123-69.391,0
		l-0.077,11.339c20.687,15.116,48.782,15.116,69.468,0c20.692,15.116,48.783,15.116,69.468,0c20.691,15.116,48.783,15.116,69.464,0
		C299.88,290.02,327.972,290.02,348.664,274.903z"/>
</g>
</svg>
