<?xml version="1.0" encoding="iso-8859-1"?>
<!-- Generator: Adobe Illustrator 16.0.0, SVG Export Plug-In . SVG Version: 6.00 Build 0)  -->
<!DOCTYPE svg PUBLIC "-//W3C//DTD SVG 1.1//EN" "http://www.w3.org/Graphics/SVG/1.1/DTD/svg11.dtd">
<svg version="1.1" id="Layer_1" xmlns="http://www.w3.org/2000/svg" xmlns:xlink="http://www.w3.org/1999/xlink" x="0px" y="0px"
	 width="425.197px" height="425.196px" viewBox="0 0 425.197 425.196" style="enable-background:new 0 0 425.197 425.196;"
	 xml:space="preserve">
<g id="LWPOLYLINE_145_">
	
		<rect x="14.173" y="14.172" style="fill:#005EB8;stroke:#005EB8;stroke-width:0.5;stroke-miterlimit:10;" width="396.851" height="396.853"/>
</g>
<g id="LWPOLYLINE_143_">
	<path style="fill:#FFFFFF;" d="M59.527,411.024H365.67c25.045,0,45.354-20.306,45.354-45.353V59.529
		c0-25.049-20.309-45.357-45.354-45.357H59.527c-25.047,0-45.354,20.309-45.354,45.357v306.143
		C14.173,390.719,34.48,411.024,59.527,411.024z"/>
</g>
<g id="LWPOLYLINE_144_">
	<path style="fill:#005EB8;" d="M59.527,388.343H365.67c12.523,0,22.676-10.148,22.676-22.671V59.529
		c0-12.526-10.152-22.677-22.676-22.677H59.527c-12.523,0-22.677,10.15-22.677,22.677v306.143
		C36.85,378.194,47.003,388.343,59.527,388.343z"/>
</g>
<g id="LWPOLYLINE_165_">
	<path style="fill:#FFFFFF;" d="M50.879,291.149v19.253l4.15,2.99c11.55,8.328,27.135,8.328,38.686,0l7.614-5.487
		c11.55-8.334,27.135-8.334,38.685,0l7.613,5.487c11.55,8.328,27.135,8.328,38.685,0l7.614-5.487c11.55-8.334,27.135-8.334,38.686,0
		l7.613,5.487c11.55,8.328,27.136,8.328,38.686,0l7.614-5.487c11.55-8.334,27.135-8.334,38.685,0l7.614,5.487
		c11.55,8.328,27.135,8.328,38.685,0l2.804-2.022v-19.253l-2.804,2.022c-11.55,8.334-27.135,8.334-38.685,0l-7.614-5.484
		c-11.55-8.33-27.135-8.33-38.685,0l-7.614,5.484c-11.55,8.334-27.136,8.334-38.686,0l-7.613-5.484
		c-11.551-8.33-27.136-8.33-38.686,0l-7.614,5.484c-11.55,8.334-27.135,8.334-38.685,0l-7.613-5.484
		c-11.55-8.33-27.135-8.33-38.685,0l-7.614,5.484c-11.551,8.334-27.136,8.334-38.686,0L50.879,291.149z"/>
</g>
<g id="LWPOLYLINE_166_">
	<path style="fill:#FFFFFF;" d="M348.041,242.157v6.301l-2.513,8.162c-2.249,7.307-6.955,13.606-13.326,17.829l-6.992-5.047
		c-11.55-8.324-27.135-8.324-38.685,0l-7.614,5.493c-11.55,8.327-27.136,8.327-38.686,0l-7.613-5.493
		c-11.551-8.324-27.136-8.324-38.686,0l-7.614,5.493c-11.55,8.327-27.135,8.327-38.685,0l-7.613-5.493
		c-11.55-8.324-27.135-8.324-38.685,0l-7.614,5.493c-2.815,2.026-5.927,3.599-9.23,4.66c-15.377-2.423-26.981-15.254-27.854-30.802
		L55.25,224.34l16.669,4.299c10.791,2.787,21.895,4.194,33.044,4.194h243.078V242.157z"/>
</g>
<g id="LWPOLYLINE_167_">
	<rect x="139.86" y="159.845" style="fill:#FFFFFF;" width="208.181" height="66.712"/>
</g>
<g id="POLYLINE_2_">
	<polygon style="fill:#FFFFFF;" points="314.314,147.603 331.185,111.412 318.629,105.559 299.025,147.603 	"/>
</g>
<g id="LWPOLYLINE_172_">
	<rect x="139.86" y="147.603" style="fill:#FFFFFF;" width="208.181" height="5.97"/>
</g>
<g id="LWPOLYLINE_168_">
	<path style="fill:#005EB8;" d="M231.123,180.169H209.27c-3.382,0-6.124,2.736-6.124,6.123v13.821c0,3.38,2.742,6.125,6.124,6.125
		h21.853c3.38,0,6.117-2.745,6.117-6.125v-13.821C237.24,182.905,234.502,180.169,231.123,180.169z"/>
</g>
<g id="LWPOLYLINE_169_">
	<path style="fill:#005EB8;" d="M181.342,180.169h-21.846c-3.387,0-6.124,2.736-6.124,6.123v13.821c0,3.38,2.737,6.125,6.124,6.125
		h21.846c3.381,0,6.125-2.745,6.125-6.125v-13.821C187.467,182.905,184.723,180.169,181.342,180.169z"/>
</g>
<g id="LWPOLYLINE_170_">
	<path style="fill:#005EB8;" d="M278.63,180.169h-21.853c-3.381,0-6.124,2.736-6.124,6.123v13.821c0,3.38,2.743,6.125,6.124,6.125
		h21.853c3.381,0,6.118-2.745,6.118-6.125v-13.821C284.749,182.905,282.011,180.169,278.63,180.169z"/>
</g>
<g id="LWPOLYLINE_171_">
	<path style="fill:#005EB8;" d="M328.404,179.541h-21.848c-3.38,0-6.124,2.744-6.124,6.125v13.819c0,3.383,2.744,6.125,6.124,6.125
		h21.848c3.381,0,6.124-2.742,6.124-6.125v-13.819C334.528,182.285,331.785,179.541,328.404,179.541z"/>
</g>
</svg>
