<?xml version="1.0" encoding="UTF-8" standalone="no"?>
<!-- Generator: Adobe Illustrator 16.0.0, SVG Export Plug-In . SVG Version: 6.00 Build 0)  -->

<svg
   xmlns:dc="http://purl.org/dc/elements/1.1/"
   xmlns:cc="http://creativecommons.org/ns#"
   xmlns:rdf="http://www.w3.org/1999/02/22-rdf-syntax-ns#"
   xmlns:svg="http://www.w3.org/2000/svg"
   xmlns="http://www.w3.org/2000/svg"
   xmlns:sodipodi="http://sodipodi.sourceforge.net/DTD/sodipodi-0.dtd"
   xmlns:inkscape="http://www.inkscape.org/namespaces/inkscape"
   version="1.1"
   id="Layer_1"
   x="0px"
   y="0px"
   width="397.35101"
   height="397.353"
   viewBox="0 0 397.35102 397.35298"
   xml:space="preserve"
   sodipodi:docname="F41.svg"
   inkscape:version="0.92.5 (2060ec1f9f, 2020-04-08)"><metadata
   id="metadata4406"><rdf:RDF><cc:Work
       rdf:about=""><dc:format>image/svg+xml</dc:format><dc:type
         rdf:resource="http://purl.org/dc/dcmitype/StillImage" /></cc:Work></rdf:RDF></metadata><defs
   id="defs4404" /><sodipodi:namedview
   pagecolor="#ffffff"
   bordercolor="#666666"
   borderopacity="1"
   objecttolerance="10"
   gridtolerance="10"
   guidetolerance="10"
   inkscape:pageopacity="0"
   inkscape:pageshadow="2"
   inkscape:window-width="640"
   inkscape:window-height="480"
   id="namedview4402"
   showgrid="false"
   inkscape:zoom="0.55503813"
   inkscape:cx="198.6755"
   inkscape:cy="198.67699"
   inkscape:window-x="0"
   inkscape:window-y="0"
   inkscape:window-maximized="0"
   inkscape:current-layer="Layer_1" />
<g
   id="LWPOLYLINE_145_"
   transform="translate(-13.923,-13.922)">
	
		<rect
   x="14.173"
   y="14.172"
   style="fill:#005eb8;stroke:#005eb8;stroke-width:0.5;stroke-miterlimit:10"
   width="396.85101"
   height="396.853"
   id="rect4365" />
</g>
<g
   id="LWPOLYLINE_143_"
   transform="translate(-13.923,-13.922)">
	<path
   style="fill:#ffffff"
   d="M 59.527,411.024 H 365.67 c 25.045,0 45.354,-20.306 45.354,-45.353 V 59.529 c 0,-25.049 -20.309,-45.357 -45.354,-45.357 H 59.527 c -25.047,0 -45.354,20.309 -45.354,45.357 v 306.143 c 0,25.047 20.307,45.352 45.354,45.352 z"
   id="path4368"
   inkscape:connector-curvature="0" />
</g>
<g
   id="LWPOLYLINE_144_"
   transform="translate(-13.923,-13.922)">
	<path
   style="fill:#005eb8"
   d="M 59.527,388.343 H 365.67 c 12.523,0 22.676,-10.148 22.676,-22.671 V 59.529 c 0,-12.526 -10.152,-22.677 -22.676,-22.677 H 59.527 c -12.523,0 -22.677,10.15 -22.677,22.677 v 306.143 c 0,12.522 10.153,22.671 22.677,22.671 z"
   id="path4371"
   inkscape:connector-curvature="0" />
</g>
<g
   id="LWPOLYLINE_165_"
   transform="translate(-13.923,-13.922)">
	<path
   style="fill:#ffffff"
   d="m 50.879,291.149 v 19.253 l 4.15,2.99 c 11.55,8.328 27.135,8.328 38.686,0 l 7.614,-5.487 c 11.55,-8.334 27.135,-8.334 38.685,0 l 7.613,5.487 c 11.55,8.328 27.135,8.328 38.685,0 l 7.614,-5.487 c 11.55,-8.334 27.135,-8.334 38.686,0 l 7.613,5.487 c 11.55,8.328 27.136,8.328 38.686,0 l 7.614,-5.487 c 11.55,-8.334 27.135,-8.334 38.685,0 l 7.614,5.487 c 11.55,8.328 27.135,8.328 38.685,0 l 2.804,-2.022 v -19.253 l -2.804,2.022 c -11.55,8.334 -27.135,8.334 -38.685,0 l -7.614,-5.484 c -11.55,-8.33 -27.135,-8.33 -38.685,0 l -7.614,5.484 c -11.55,8.334 -27.136,8.334 -38.686,0 l -7.613,-5.484 c -11.551,-8.33 -27.136,-8.33 -38.686,0 l -7.614,5.484 c -11.55,8.334 -27.135,8.334 -38.685,0 l -7.613,-5.484 c -11.55,-8.33 -27.135,-8.33 -38.685,0 l -7.614,5.484 c -11.551,8.334 -27.136,8.334 -38.686,0 z"
   id="path4374"
   inkscape:connector-curvature="0" />
</g>
<g
   id="LWPOLYLINE_166_"
   transform="translate(-13.923,-13.922)">
	<path
   style="fill:#ffffff"
   d="m 348.041,242.157 v 6.301 l -2.513,8.162 c -2.249,7.307 -6.955,13.606 -13.326,17.829 l -6.992,-5.047 c -11.55,-8.324 -27.135,-8.324 -38.685,0 l -7.614,5.493 c -11.55,8.327 -27.136,8.327 -38.686,0 l -7.613,-5.493 c -11.551,-8.324 -27.136,-8.324 -38.686,0 l -7.614,5.493 c -11.55,8.327 -27.135,8.327 -38.685,0 l -7.613,-5.493 c -11.55,-8.324 -27.135,-8.324 -38.685,0 l -7.614,5.493 c -2.815,2.026 -5.927,3.599 -9.23,4.66 -15.377,-2.423 -26.981,-15.254 -27.854,-30.802 l -1.381,-24.413 16.669,4.299 c 10.791,2.787 21.895,4.194 33.044,4.194 h 243.078 z"
   id="path4377"
   inkscape:connector-curvature="0" />
</g>
<g
   id="LWPOLYLINE_167_"
   transform="translate(-13.923,-13.922)">
	<rect
   x="139.86"
   y="159.845"
   style="fill:#ffffff"
   width="208.181"
   height="66.711998"
   id="rect4380" />
</g>
<g
   id="POLYLINE_2_"
   transform="translate(-13.923,-13.922)">
	<polygon
   style="fill:#ffffff"
   points="318.629,105.559 299.025,147.603 314.314,147.603 331.185,111.412 "
   id="polygon4383" />
</g>
<g
   id="LWPOLYLINE_172_"
   transform="translate(-13.923,-13.922)">
	<rect
   x="139.86"
   y="147.603"
   style="fill:#ffffff"
   width="208.181"
   height="5.9699998"
   id="rect4386" />
</g>
<g
   id="LWPOLYLINE_168_"
   transform="translate(-13.923,-13.922)">
	<path
   style="fill:#005eb8"
   d="M 231.123,180.169 H 209.27 c -3.382,0 -6.124,2.736 -6.124,6.123 v 13.821 c 0,3.38 2.742,6.125 6.124,6.125 h 21.853 c 3.38,0 6.117,-2.745 6.117,-6.125 v -13.821 c 0,-3.387 -2.738,-6.123 -6.117,-6.123 z"
   id="path4389"
   inkscape:connector-curvature="0" />
</g>
<g
   id="LWPOLYLINE_169_"
   transform="translate(-13.923,-13.922)">
	<path
   style="fill:#005eb8"
   d="m 181.342,180.169 h -21.846 c -3.387,0 -6.124,2.736 -6.124,6.123 v 13.821 c 0,3.38 2.737,6.125 6.124,6.125 h 21.846 c 3.381,0 6.125,-2.745 6.125,-6.125 v -13.821 c 0,-3.387 -2.744,-6.123 -6.125,-6.123 z"
   id="path4392"
   inkscape:connector-curvature="0" />
</g>
<g
   id="LWPOLYLINE_170_"
   transform="translate(-13.923,-13.922)">
	<path
   style="fill:#005eb8"
   d="m 278.63,180.169 h -21.853 c -3.381,0 -6.124,2.736 -6.124,6.123 v 13.821 c 0,3.38 2.743,6.125 6.124,6.125 h 21.853 c 3.381,0 6.118,-2.745 6.118,-6.125 v -13.821 c 0.001,-3.387 -2.737,-6.123 -6.118,-6.123 z"
   id="path4395"
   inkscape:connector-curvature="0" />
</g>
<g
   id="LWPOLYLINE_171_"
   transform="translate(-13.923,-13.922)">
	<path
   style="fill:#005eb8"
   d="m 328.404,179.541 h -21.848 c -3.38,0 -6.124,2.744 -6.124,6.125 v 13.819 c 0,3.383 2.744,6.125 6.124,6.125 h 21.848 c 3.381,0 6.124,-2.742 6.124,-6.125 v -13.819 c 0,-3.381 -2.743,-6.125 -6.124,-6.125 z"
   id="path4398"
   inkscape:connector-curvature="0" />
</g>
</svg>