<?xml version="1.0" encoding="iso-8859-1"?>
<!-- Generator: Adobe Illustrator 16.0.0, SVG Export Plug-In . SVG Version: 6.00 Build 0)  -->
<!DOCTYPE svg PUBLIC "-//W3C//DTD SVG 1.1//EN" "http://www.w3.org/Graphics/SVG/1.1/DTD/svg11.dtd">
<svg version="1.1" id="Layer_1" xmlns="http://www.w3.org/2000/svg" xmlns:xlink="http://www.w3.org/1999/xlink" x="0px" y="0px"
	 width="425.197px" height="425.196px" viewBox="0 0 425.197 425.196" style="enable-background:new 0 0 425.197 425.196;"
	 xml:space="preserve">
<g id="LWPOLYLINE_4_">
	
		<rect x="14.174" y="14.172" style="fill:#005EB8;stroke:#005EB8;stroke-width:0.5;stroke-miterlimit:10;" width="396.848" height="396.853"/>
</g>
<g id="LWPOLYLINE_147_">
	<path style="fill:#FFFFFF;" d="M59.528,411.024h306.138c25.055,0,45.356-20.307,45.356-45.356V59.528
		c0-25.049-20.302-45.356-45.356-45.356H59.528c-25.049,0-45.354,20.308-45.354,45.356v306.14
		C14.174,390.718,34.479,411.024,59.528,411.024z"/>
</g>
<g id="LWPOLYLINE_148_">
	<path style="fill:#005EB8;" d="M59.528,388.347h306.138c12.527,0,22.678-10.151,22.678-22.679V59.528
		c0-12.524-10.15-22.679-22.678-22.679H59.528c-12.521,0-22.678,10.154-22.678,22.679v306.14
		C36.85,378.195,47.006,388.347,59.528,388.347z"/>
</g>
<g id="ELLIPSE_2_">
	<path style="fill:#FFFFFF;" d="M311.169,330.025c0-13.799-11.184-24.981-24.981-24.981c-13.799,0-24.981,11.183-24.981,24.981
		c0,13.798,11.183,24.981,24.981,24.981C299.986,355.007,311.169,343.823,311.169,330.025"/>
</g>
<g id="ELLIPSE_3_">
	<path style="fill:#FFFFFF;" d="M138.558,330.035c0-13.798-11.183-24.981-24.981-24.981s-24.981,11.184-24.981,24.981
		c0,13.799,11.183,24.981,24.981,24.981S138.558,343.834,138.558,330.035"/>
</g>
<g id="LWPOLYLINE_159_">
	<path style="fill:#FFFFFF;" d="M345.759,306.622v23.45l-29.348,0.016c0.26-16.691-13.059-30.433-29.755-30.693
		c-16.696-0.255-30.433,13.069-30.692,29.766c-0.011,0.302-0.011,0.604,0,0.906H143.805c0.256-16.695-13.069-30.437-29.76-30.692
		c-16.696-0.261-30.438,13.064-30.692,29.76c-0.006,0.308-0.006,0.62,0,0.933H68.939l0.006-51.984l21.859-47.723h67.404v73.376
		h9.307h28.054v-9.354h-28.054V207.39h188.739v89.879h-38.551v9.354H345.759z"/>
</g>
<g id="LWPOLYLINE_158_">
	<polygon style="fill:#005EB8;" points="141.048,239.797 97.964,239.797 81.357,276.07 141.048,276.07 	"/>
</g>
<g id="LWPOLYLINE_149_">
	<path style="fill:#FFFFFF;" d="M354.327,70.864H74.015c-1.741,0-3.147,1.41-3.147,3.15c0,1.621,1.229,2.976,2.84,3.135
		l280.619,44.738V70.864z"/>
</g>
</svg>
