<?xml version="1.0" encoding="iso-8859-1"?>
<!-- Generator: Adobe Illustrator 16.0.0, SVG Export Plug-In . SVG Version: 6.00 Build 0)  -->
<!DOCTYPE svg PUBLIC "-//W3C//DTD SVG 1.1//EN" "http://www.w3.org/Graphics/SVG/1.1/DTD/svg11.dtd">
<svg version="1.1" id="Layer_1" xmlns="http://www.w3.org/2000/svg" xmlns:xlink="http://www.w3.org/1999/xlink" x="0px" y="0px"
	 width="425.197px" height="425.196px" viewBox="0 0 425.197 425.196" style="enable-background:new 0 0 425.197 425.196;"
	 xml:space="preserve">
<g id="LWPOLYLINE_147_">
	
		<rect x="14.173" y="14.172" style="fill:#005EB8;stroke:#005EB8;stroke-width:0.5;stroke-miterlimit:10;" width="396.85" height="396.853"/>
</g>
<g id="LWPOLYLINE_145_">
	<path style="fill:#FFFFFF;" d="M59.527,411.024h306.146c25.047,0,45.35-20.307,45.35-45.354V59.527
		c0-25.049-20.303-45.355-45.35-45.355H59.527c-25.044,0-45.354,20.307-45.354,45.355v306.144
		C14.173,390.718,34.482,411.024,59.527,411.024z"/>
</g>
<g id="LWPOLYLINE_146_">
	<path style="fill:#005EB8;" d="M59.527,388.344h306.146c12.521,0,22.676-10.148,22.676-22.673V59.527
		c0-12.526-10.154-22.677-22.676-22.677H59.527c-12.522,0-22.677,10.15-22.677,22.677v306.144
		C36.85,378.195,47.004,388.344,59.527,388.344z"/>
</g>
<g id="LWPOLYLINE_149_">
	<path style="fill:#FFFFFF;" d="M106.3,354.331V70.865h129.92c45.66,0,82.682,37.019,82.682,82.68
		c0,45.656-37.021,82.673-82.682,82.673h-76.772v118.113H106.3z"/>
</g>
<g id="LWPOLYLINE_150_">
	<path style="fill:#005EB8;" d="M159.448,124.015h76.772c16.312,0,29.531,13.222,29.531,29.529c0,16.304-13.22,29.525-29.531,29.525
		h-76.772V124.015z"/>
</g>
</svg>
