<?xml version="1.0" encoding="UTF-8" standalone="no"?>
<!-- Generator: Adobe Illustrator 16.0.0, SVG Export Plug-In . SVG Version: 6.00 Build 0)  -->

<svg
   xmlns:dc="http://purl.org/dc/elements/1.1/"
   xmlns:cc="http://creativecommons.org/ns#"
   xmlns:rdf="http://www.w3.org/1999/02/22-rdf-syntax-ns#"
   xmlns:svg="http://www.w3.org/2000/svg"
   xmlns="http://www.w3.org/2000/svg"
   xmlns:sodipodi="http://sodipodi.sourceforge.net/DTD/sodipodi-0.dtd"
   xmlns:inkscape="http://www.inkscape.org/namespaces/inkscape"
   version="1.1"
   id="Layer_1"
   x="0px"
   y="0px"
   width="315.68399"
   height="315.67899"
   viewBox="0 0 315.684 315.67897"
   xml:space="preserve"
   sodipodi:docname="F49.svg"
   inkscape:version="0.92.5 (2060ec1f9f, 2020-04-08)"><metadata
   id="metadata4745"><rdf:RDF><cc:Work
       rdf:about=""><dc:format>image/svg+xml</dc:format><dc:type
         rdf:resource="http://purl.org/dc/dcmitype/StillImage" /></cc:Work></rdf:RDF></metadata><defs
   id="defs4743" /><sodipodi:namedview
   pagecolor="#ffffff"
   bordercolor="#666666"
   borderopacity="1"
   objecttolerance="10"
   gridtolerance="10"
   guidetolerance="10"
   inkscape:pageopacity="0"
   inkscape:pageshadow="2"
   inkscape:window-width="640"
   inkscape:window-height="480"
   id="namedview4741"
   showgrid="false"
   inkscape:zoom="0.55503813"
   inkscape:cx="157.8395"
   inkscape:cy="157.83899"
   inkscape:window-x="0"
   inkscape:window-y="0"
   inkscape:window-maximized="0"
   inkscape:current-layer="Layer_1" />
<g
   id="CIRCLE_21_"
   transform="translate(-54.759,-54.758)">
	<path
   style="fill:#101820"
   d="m 370.443,212.597 c 0,-87.171 -70.675,-157.839 -157.846,-157.839 -87.172,0 -157.838,70.668 -157.838,157.839 0,87.172 70.666,157.84 157.838,157.84 87.171,0 157.846,-70.668 157.846,-157.84 z"
   id="path4725"
   inkscape:connector-curvature="0" />
</g>
<g
   id="CIRCLE_20_"
   transform="translate(-54.759,-54.758)">
	<path
   style="fill:#ffffff"
   d="m 343.383,212.597 c 0,-72.228 -58.554,-130.78 -130.786,-130.78 -72.225,0 -130.778,58.552 -130.778,130.78 0,72.229 58.554,130.778 130.778,130.778 72.233,0 130.786,-58.549 130.786,-130.778 z"
   id="path4728"
   inkscape:connector-curvature="0" />
</g>
<g
   id="CIRCLE_1_"
   transform="translate(-54.759,-54.758)">
	<path
   style="fill:#101820"
   d="m 316.324,212.597 c 0,-57.285 -46.441,-103.723 -103.727,-103.723 -57.281,0 -103.72,46.438 -103.72,103.723 0,57.286 46.438,103.724 103.72,103.724 57.285,-0.001 103.727,-46.438 103.727,-103.724 z"
   id="path4731"
   inkscape:connector-curvature="0" />
</g>
<g
   id="CIRCLE_2_"
   transform="translate(-54.759,-54.758)">
	<path
   style="fill:#ffffff"
   d="m 289.265,212.597 c 0,-42.337 -34.322,-76.667 -76.668,-76.667 -42.339,0 -76.66,34.33 -76.66,76.667 0,42.339 34.321,76.664 76.66,76.664 42.346,0 76.668,-34.325 76.668,-76.664 z"
   id="path4734"
   inkscape:connector-curvature="0" />
</g>
<g
   id="CIRCLE_3_"
   transform="translate(-54.759,-54.758)">
	<path
   style="fill:#101820"
   d="m 262.206,212.597 c 0,-27.398 -22.21,-49.608 -49.608,-49.608 -27.392,0 -49.601,22.21 -49.601,49.608 0,27.399 22.209,49.609 49.601,49.609 27.398,0 49.608,-22.21 49.608,-49.609 z"
   id="path4737"
   inkscape:connector-curvature="0" />
</g>
</svg>