<?xml version="1.0" encoding="iso-8859-1"?>
<!-- Generator: Adobe Illustrator 16.0.0, SVG Export Plug-In . SVG Version: 6.00 Build 0)  -->
<!DOCTYPE svg PUBLIC "-//W3C//DTD SVG 1.1//EN" "http://www.w3.org/Graphics/SVG/1.1/DTD/svg11.dtd">
<svg version="1.1" id="Layer_1" xmlns="http://www.w3.org/2000/svg" xmlns:xlink="http://www.w3.org/1999/xlink" x="0px" y="0px"
	 width="425.197px" height="425.196px" viewBox="0 0 425.197 425.196" style="enable-background:new 0 0 425.197 425.196;"
	 xml:space="preserve">
<g id="LWPOLYLINE_1_">
	<rect x="14.173" y="14.172" style="fill:#FFCD00;" width="396.851" height="396.852"/>
</g>
<g id="LWPOLYLINE_2_">
	<path style="fill:#101820;" d="M43.937,405.071H381.26c13.15,0,23.811-10.662,23.811-23.811V43.937
		c0-13.151-10.66-23.811-23.811-23.811H43.937c-13.15,0-23.811,10.659-23.811,23.811v337.324
		C20.126,394.409,30.787,405.071,43.937,405.071z"/>
</g>
<g id="LWPOLYLINE_3_">
	<path style="fill:#FFCD00;" d="M43.937,393.165H381.26c6.575,0,11.905-5.33,11.905-11.904V43.937
		c0-6.575-5.33-11.905-11.905-11.905H43.937c-6.575,0-11.905,5.33-11.905,11.905v337.324
		C32.032,387.835,37.362,393.165,43.937,393.165z"/>
</g>
<g id="LWPOLYLINE_7_">
	<polygon style="fill:#101820;" points="97.512,311.812 295.937,284.198 295.937,140.999 97.512,113.386 97.512,45.921 
		129.26,45.921 129.26,85.607 327.685,113.386 327.685,311.812 129.26,339.591 129.26,379.276 97.512,379.276 	"/>
</g>
<g id="LWPOLYLINE_6_">
	<rect x="97.512" y="145.133" style="fill:#101820;" width="31.748" height="31.749"/>
</g>
<g id="LWPOLYLINE_5_">
	<rect x="97.512" y="196.724" style="fill:#101820;" width="31.748" height="31.748"/>
</g>
<g id="LWPOLYLINE_4_">
	<rect x="97.512" y="248.315" style="fill:#101820;" width="31.748" height="31.746"/>
</g>
</svg>
