<?xml version="1.0" encoding="UTF-8" standalone="no"?>
<!-- Generator: Adobe Illustrator 16.0.0, SVG Export Plug-In . SVG Version: 6.00 Build 0)  -->

<svg
   xmlns:dc="http://purl.org/dc/elements/1.1/"
   xmlns:cc="http://creativecommons.org/ns#"
   xmlns:rdf="http://www.w3.org/1999/02/22-rdf-syntax-ns#"
   xmlns:svg="http://www.w3.org/2000/svg"
   xmlns="http://www.w3.org/2000/svg"
   xmlns:sodipodi="http://sodipodi.sourceforge.net/DTD/sodipodi-0.dtd"
   xmlns:inkscape="http://www.inkscape.org/namespaces/inkscape"
   version="1.1"
   id="Layer_1"
   x="0px"
   y="0px"
   width="396.854"
   height="396.853"
   viewBox="0 0 396.85401 396.85298"
   xml:space="preserve"
   sodipodi:docname="F51.svg"
   inkscape:version="0.92.5 (2060ec1f9f, 2020-04-08)"><metadata
   id="metadata4832"><rdf:RDF><cc:Work
       rdf:about=""><dc:format>image/svg+xml</dc:format><dc:type
         rdf:resource="http://purl.org/dc/dcmitype/StillImage" /></cc:Work></rdf:RDF></metadata><defs
   id="defs4830" /><sodipodi:namedview
   pagecolor="#ffffff"
   bordercolor="#666666"
   borderopacity="1"
   objecttolerance="10"
   gridtolerance="10"
   guidetolerance="10"
   inkscape:pageopacity="0"
   inkscape:pageshadow="2"
   inkscape:window-width="640"
   inkscape:window-height="480"
   id="namedview4828"
   showgrid="false"
   inkscape:zoom="0.55503813"
   inkscape:cx="198.4265"
   inkscape:cy="198.42699"
   inkscape:window-x="0"
   inkscape:window-y="0"
   inkscape:window-maximized="0"
   inkscape:current-layer="Layer_1" />
<g
   id="LWPOLYLINE_147_"
   transform="translate(-14.172,-14.172)">
	<rect
   x="14.172"
   y="14.172"
   style="fill:#fe5000"
   width="396.853"
   height="396.853"
   id="rect4803" />
</g>
<g
   id="LWPOLYLINE_145_"
   transform="translate(-14.172,-14.172)">
	<path
   style="fill:#101820"
   d="m 59.531,411.024 h 306.141 c 25.046,0 45.354,-20.307 45.354,-45.354 V 59.528 c 0,-25.049 -20.308,-45.356 -45.354,-45.356 H 59.531 c -25.052,0 -45.359,20.308 -45.359,45.356 v 306.143 c 0,25.047 20.307,45.353 45.359,45.353 z"
   id="path4806"
   inkscape:connector-curvature="0" />
</g>
<g
   id="LWPOLYLINE_146_"
   transform="translate(-14.172,-14.172)">
	<path
   style="fill:#fe5000"
   d="m 59.531,388.343 h 306.141 c 12.523,0 22.672,-10.148 22.672,-22.672 V 59.528 c 0,-12.526 -10.148,-22.677 -22.672,-22.677 H 59.531 c -12.528,0 -22.677,10.15 -22.677,22.677 v 306.143 c 0,12.523 10.148,22.672 22.677,22.672 z"
   id="path4809"
   inkscape:connector-curvature="0" />
</g>
<g
   id="LWPOLYLINE_150_"
   transform="translate(-14.172,-14.172)">
	<path
   style="fill:#101820"
   d="m 159.454,354.33 h -11.819 l -5.904,-5.909 v -59.054 l 5.904,-5.903 h 11.819 l 5.904,5.903 v 17.719 h 31.489 c 1.122,-1.49 2.452,-2.82 3.937,-3.937 8.696,-6.525 21.044,-4.761 27.563,3.937 h 31.5 v -17.719 l 5.904,-5.903 h 11.809 l 5.903,5.903 v 59.054 l -5.903,5.909 h -11.809 l -5.904,-5.909 v -17.713 h -31.5 c -1.121,1.495 -2.44,2.814 -3.937,3.937 -8.696,6.52 -21.032,4.76 -27.563,-3.937 h -31.489 v 17.713 z"
   id="path4812"
   inkscape:connector-curvature="0" />
</g>
<g
   id="LWPOLYLINE_151_"
   transform="translate(-14.172,-14.172)">
	<polygon
   style="fill:#101820"
   points="309.06,283.464 297.241,283.464 291.336,289.367 291.336,348.421 297.241,354.33 309.06,354.33 314.963,348.421 314.963,289.367 "
   id="polygon4815" />
</g>
<g
   id="LWPOLYLINE_152_"
   transform="translate(-14.172,-14.172)">
	<path
   style="fill:#101820"
   d="m 322.836,86.613 c 0,-8.696 -7.048,-15.744 -15.745,-15.744 h -188.98 c -8.697,0 -15.75,7.048 -15.75,15.744 V 271.655 H 322.837 V 86.613 Z"
   id="path4818"
   inkscape:connector-curvature="0" />
</g>
<g
   id="LWPOLYLINE_153_"
   transform="translate(-14.172,-14.172)">
	<rect
   x="141.73"
   y="110.235"
   style="fill:#fe5000"
   width="141.733"
   height="114.175"
   id="rect4821" />
</g>
<g
   id="LWPOLYLINE_149_"
   transform="translate(-14.172,-14.172)">
	<polygon
   style="fill:#101820"
   points="127.951,283.464 116.143,283.464 110.239,289.367 110.239,348.421 116.143,354.33 127.951,354.33 133.861,348.421 133.861,289.367 "
   id="polygon4824" />
</g>
</svg>