<?xml version="1.0" encoding="UTF-8" standalone="no"?>
<!-- Generator: Adobe Illustrator 16.0.0, SVG Export Plug-In . SVG Version: 6.00 Build 0)  -->

<svg
   xmlns:dc="http://purl.org/dc/elements/1.1/"
   xmlns:cc="http://creativecommons.org/ns#"
   xmlns:rdf="http://www.w3.org/1999/02/22-rdf-syntax-ns#"
   xmlns:svg="http://www.w3.org/2000/svg"
   xmlns="http://www.w3.org/2000/svg"
   xmlns:sodipodi="http://sodipodi.sourceforge.net/DTD/sodipodi-0.dtd"
   xmlns:inkscape="http://www.inkscape.org/namespaces/inkscape"
   version="1.1"
   id="Layer_1"
   x="0px"
   y="0px"
   width="397.353"
   height="397.353"
   viewBox="0 0 397.35301 397.35298"
   xml:space="preserve"
   sodipodi:docname="F54.2.svg"
   inkscape:version="0.92.5 (2060ec1f9f, 2020-04-08)"><metadata
   id="metadata4932"><rdf:RDF><cc:Work
       rdf:about=""><dc:format>image/svg+xml</dc:format><dc:type
         rdf:resource="http://purl.org/dc/dcmitype/StillImage" /></cc:Work></rdf:RDF></metadata><defs
   id="defs4930" /><sodipodi:namedview
   pagecolor="#ffffff"
   bordercolor="#666666"
   borderopacity="1"
   objecttolerance="10"
   gridtolerance="10"
   guidetolerance="10"
   inkscape:pageopacity="0"
   inkscape:pageshadow="2"
   inkscape:window-width="640"
   inkscape:window-height="480"
   id="namedview4928"
   showgrid="false"
   inkscape:zoom="0.55503813"
   inkscape:cx="198.6765"
   inkscape:cy="198.67699"
   inkscape:window-x="0"
   inkscape:window-y="0"
   inkscape:window-maximized="0"
   inkscape:current-layer="Layer_1" />
<g
   id="LWPOLYLINE_142_"
   transform="translate(-13.922,-13.922)">
	
		<rect
   x="14.172"
   y="14.172"
   style="fill:#005eb8;stroke:#005eb8;stroke-width:0.5;stroke-miterlimit:10"
   width="396.853"
   height="396.853"
   id="rect4909" />
</g>
<g
   id="LWPOLYLINE_140_"
   transform="translate(-13.922,-13.922)">
	<path
   style="fill:#ffffff"
   d="m 59.531,411.024 h 306.141 c 25.046,0 45.354,-20.307 45.354,-45.354 V 59.528 c 0,-25.049 -20.308,-45.356 -45.354,-45.356 H 59.531 c -25.052,0 -45.359,20.308 -45.359,45.356 v 306.143 c 0,25.047 20.307,45.353 45.359,45.353 z"
   id="path4912"
   inkscape:connector-curvature="0" />
</g>
<g
   id="LWPOLYLINE_141_"
   transform="translate(-13.922,-13.922)">
	<path
   style="fill:#005eb8"
   d="m 59.531,388.343 h 306.141 c 12.523,0 22.672,-10.148 22.672,-22.672 V 59.528 c 0,-12.526 -10.148,-22.677 -22.672,-22.677 H 59.531 c -12.528,0 -22.677,10.15 -22.677,22.677 v 306.143 c 0,12.523 10.148,22.672 22.677,22.672 z"
   id="path4915"
   inkscape:connector-curvature="0" />
</g>
<g
   id="LWPOLYLINE_146_"
   transform="translate(-13.922,-13.922)">
	<polygon
   style="fill:#ffffff"
   points="133.229,280.627 133.229,296.503 196.726,296.503 196.726,312.38 260.221,312.38 260.221,328.251 323.715,328.251 323.715,344.121 371.334,344.121 371.334,359.998 302.551,359.998 302.551,344.121 239.056,344.121 239.056,328.251 175.561,328.251 175.561,312.38 112.064,312.38 112.064,296.503 53.857,296.503 53.857,280.627 "
   id="polygon4918" />
</g>
<g
   id="CIRCLE_5_"
   transform="translate(-13.922,-13.922)">
	<path
   style="fill:#ffffff"
   d="m 222.443,92.474 c 0,-12.045 -9.764,-21.808 -21.803,-21.808 -12.05,0 -21.802,9.763 -21.802,21.808 0,12.039 9.752,21.803 21.802,21.803 12.039,-0.001 21.803,-9.764 21.803,-21.803 z"
   id="path4921"
   inkscape:connector-curvature="0" />
</g>
<g
   id="LWPOLYLINE_147_"
   transform="translate(-13.922,-13.922)">
	<path
   style="fill:#ffffff"
   d="m 229.359,218.858 -0.935,-53.715 9.928,14.694 0.462,26.821 c 0.924,4.898 5.651,8.114 10.544,7.186 4.09,-0.77 7.125,-4.249 7.334,-8.411 l -0.638,-34.26 -24.255,-38.69 c -8.037,-14.502 -26.321,-19.741 -40.823,-11.698 -3.98,2.21 -7.411,5.288 -10.017,9.016 l -16.646,45.222 -17.866,12.369 c -3.925,3.507 -4.266,9.532 -0.759,13.457 2.87,3.211 7.532,4.102 11.379,2.172 l 19.714,-13.546 9.818,-19.763 -0.66,31.885 -23.32,29.729 c -1.748,2.221 -2.54,5.041 -2.21,7.851 l 5.541,47.909 c 1.353,6.41 7.642,10.517 14.063,9.164 5.761,-1.22 9.752,-6.476 9.39,-12.353 l -4.53,-41.423 20.33,-21.071 1.869,25.15 c 0.264,3.485 1.033,6.916 2.286,10.182 l 13.348,34.666 2.87,7.949 c 2.144,5.904 8.664,8.967 14.568,6.828 5.903,-2.133 8.96,-8.653 6.827,-14.558 0,-0.021 -2.913,-8.004 -2.913,-8.004 l -12.271,-33.677 -2.419,-32.468 z"
   id="path4924"
   inkscape:connector-curvature="0" />
</g>
</svg>