<?xml version="1.0" encoding="iso-8859-1"?>
<!-- Generator: Adobe Illustrator 16.0.0, SVG Export Plug-In . SVG Version: 6.00 Build 0)  -->
<!DOCTYPE svg PUBLIC "-//W3C//DTD SVG 1.1//EN" "http://www.w3.org/Graphics/SVG/1.1/DTD/svg11.dtd">
<svg version="1.1" id="Layer_1" xmlns="http://www.w3.org/2000/svg" xmlns:xlink="http://www.w3.org/1999/xlink" x="0px" y="0px"
	 width="425.197px" height="425.196px" viewBox="0 0 425.197 425.196" style="enable-background:new 0 0 425.197 425.196;"
	 xml:space="preserve">
<g id="LWPOLYLINE_142_">
	
		<rect x="14.172" y="14.172" style="fill:#005EB8;stroke:#005EB8;stroke-width:0.5;stroke-miterlimit:10;" width="396.853" height="396.853"/>
</g>
<g id="LWPOLYLINE_140_">
	<path style="fill:#FFFFFF;" d="M59.531,411.024h306.141c25.046,0,45.354-20.307,45.354-45.354V59.528
		c0-25.049-20.308-45.356-45.354-45.356H59.531c-25.052,0-45.359,20.308-45.359,45.356v306.143
		C14.172,390.718,34.479,411.024,59.531,411.024z"/>
</g>
<g id="LWPOLYLINE_141_">
	<path style="fill:#005EB8;" d="M59.531,388.343h306.141c12.523,0,22.672-10.148,22.672-22.672V59.528
		c0-12.526-10.148-22.677-22.672-22.677H59.531c-12.528,0-22.677,10.15-22.677,22.677v306.143
		C36.854,378.194,47.002,388.343,59.531,388.343z"/>
</g>
<g id="LWPOLYLINE_146_">
	<polygon style="fill:#FFFFFF;" points="53.857,296.503 53.857,280.627 133.229,280.627 133.229,296.503 196.726,296.503 
		196.726,312.38 260.221,312.38 260.221,328.251 323.715,328.251 323.715,344.121 371.334,344.121 371.334,359.998 302.551,359.998 
		302.551,344.121 239.056,344.121 239.056,328.251 175.561,328.251 175.561,312.38 112.064,312.38 112.064,296.503 	"/>
</g>
<g id="CIRCLE_5_">
	<path style="fill:#FFFFFF;" d="M222.443,92.474c0-12.045-9.764-21.808-21.803-21.808c-12.05,0-21.802,9.763-21.802,21.808
		c0,12.039,9.752,21.803,21.802,21.803C212.679,114.276,222.443,104.513,222.443,92.474L222.443,92.474z"/>
</g>
<g id="LWPOLYLINE_147_">
	<path style="fill:#FFFFFF;" d="M229.359,218.858l-0.935-53.715l9.928,14.694l0.462,26.821c0.924,4.898,5.651,8.114,10.544,7.186
		c4.09-0.77,7.125-4.249,7.334-8.411l-0.638-34.26l-24.255-38.69c-8.037-14.502-26.321-19.741-40.823-11.698
		c-3.98,2.21-7.411,5.288-10.017,9.016l-16.646,45.222l-17.866,12.369c-3.925,3.507-4.266,9.532-0.759,13.457
		c2.87,3.211,7.532,4.102,11.379,2.172l19.714-13.546l9.818-19.763l-0.66,31.885l-23.32,29.729c-1.748,2.221-2.54,5.041-2.21,7.851
		l5.541,47.909c1.353,6.41,7.642,10.517,14.063,9.164c5.761-1.22,9.752-6.476,9.39-12.353l-4.53-41.423l20.33-21.071l1.869,25.15
		c0.264,3.485,1.033,6.916,2.286,10.182l13.348,34.666l2.87,7.949c2.144,5.904,8.664,8.967,14.568,6.828
		c5.903-2.133,8.96-8.653,6.827-14.558c0-0.021-2.913-8.004-2.913-8.004l-12.271-33.677l-2.419-32.468L229.359,218.858z"/>
</g>
</svg>
