<?xml version="1.0" encoding="iso-8859-1"?>
<!-- Generator: Adobe Illustrator 16.0.0, SVG Export Plug-In . SVG Version: 6.00 Build 0)  -->
<!DOCTYPE svg PUBLIC "-//W3C//DTD SVG 1.1//EN" "http://www.w3.org/Graphics/SVG/1.1/DTD/svg11.dtd">
<svg version="1.1" id="Layer_1" xmlns="http://www.w3.org/2000/svg" xmlns:xlink="http://www.w3.org/1999/xlink" x="0px" y="0px"
	 width="425.197px" height="425.196px" viewBox="0 0 425.197 425.196" style="enable-background:new 0 0 425.197 425.196;"
	 xml:space="preserve">
<g id="LWPOLYLINE_142_">
	
		<rect x="14.172" y="14.172" style="fill:#005EB8;stroke:#005EB8;stroke-width:0.5;stroke-miterlimit:10;" width="396.853" height="396.853"/>
</g>
<g id="LWPOLYLINE_140_">
	<path style="fill:#FFFFFF;" d="M59.531,411.024h306.141c25.046,0,45.354-20.307,45.354-45.354V59.528
		c0-25.049-20.308-45.356-45.354-45.356H59.531c-25.052,0-45.359,20.308-45.359,45.356v306.143
		C14.172,390.718,34.479,411.024,59.531,411.024z"/>
</g>
<g id="LWPOLYLINE_141_">
	<path style="fill:#005EB8;" d="M59.531,388.343h306.141c12.523,0,22.672-10.148,22.672-22.672V59.528
		c0-12.526-10.148-22.677-22.672-22.677H59.531c-12.528,0-22.677,10.15-22.677,22.677v306.143
		C36.854,378.194,47.002,388.343,59.531,388.343z"/>
</g>
<g id="LWPOLYLINE_147_">
	<polygon style="fill:#FFFFFF;" points="70.867,277.56 70.867,354.33 354.336,354.33 354.336,342.517 	"/>
</g>
<g id="LWPOLYLINE_148_">
	<path style="fill:#FFFFFF;" d="M255.35,187.358c12.304,8.351,20.703,21.341,23.254,36.002c5.201,29.867-14.788,58.3-44.66,63.506
		c-29.862,5.206-58.294-14.793-63.506-44.655l-13.7,21.006c16.811,37.432,60.779,54.154,98.216,37.349
		c37.437-16.805,54.16-60.778,37.349-98.21c-7.256-16.174-20.054-29.213-36.084-36.777L255.35,187.358z"/>
</g>
<g id="LWPOLYLINE_149_">
	<path style="fill:#FFFFFF;" d="M106.479,232.568l-12.936,19.4l45.197,30.065l40.186-66.287h67.266l6.597-102.911
		c11.039-5.068,15.865-18.13,10.797-29.164c-5.068-11.033-18.131-15.87-29.169-10.796C223.388,77.949,218.551,91,223.62,102.039
		c1.561,3.397,3.958,6.339,6.971,8.549l-3.364,43.066h-49.598v23.286h47.783l-1.21,15.52h-59.514l-34.922,55.628L106.479,232.568z"
		/>
</g>
</svg>
