<?xml version="1.0" encoding="UTF-8" standalone="no"?>
<!-- Generator: Adobe Illustrator 16.0.0, SVG Export Plug-In . SVG Version: 6.00 Build 0)  -->

<svg
   xmlns:dc="http://purl.org/dc/elements/1.1/"
   xmlns:cc="http://creativecommons.org/ns#"
   xmlns:rdf="http://www.w3.org/1999/02/22-rdf-syntax-ns#"
   xmlns:svg="http://www.w3.org/2000/svg"
   xmlns="http://www.w3.org/2000/svg"
   xmlns:sodipodi="http://sodipodi.sourceforge.net/DTD/sodipodi-0.dtd"
   xmlns:inkscape="http://www.inkscape.org/namespaces/inkscape"
   version="1.1"
   id="Layer_1"
   x="0px"
   y="0px"
   width="397.34799"
   height="397.35599"
   viewBox="0 0 397.348 397.35597"
   xml:space="preserve"
   sodipodi:docname="F55.2.svg"
   inkscape:version="0.92.5 (2060ec1f9f, 2020-04-08)"><metadata
   id="metadata4985"><rdf:RDF><cc:Work
       rdf:about=""><dc:format>image/svg+xml</dc:format><dc:type
         rdf:resource="http://purl.org/dc/dcmitype/StillImage" /></cc:Work></rdf:RDF></metadata><defs
   id="defs4983" /><sodipodi:namedview
   pagecolor="#ffffff"
   bordercolor="#666666"
   borderopacity="1"
   objecttolerance="10"
   gridtolerance="10"
   guidetolerance="10"
   inkscape:pageopacity="0"
   inkscape:pageshadow="2"
   inkscape:window-width="640"
   inkscape:window-height="480"
   id="namedview4981"
   showgrid="false"
   inkscape:zoom="0.55503813"
   inkscape:cx="198.6745"
   inkscape:cy="198.67798"
   inkscape:window-x="0"
   inkscape:window-y="0"
   inkscape:window-maximized="0"
   inkscape:current-layer="Layer_1" />
<g
   id="LWPOLYLINE_148_"
   transform="translate(-13.924,-13.92)">
	
		<rect
   x="14.174"
   y="14.17"
   style="fill:#005eb8;stroke:#005eb8;stroke-width:0.5;stroke-miterlimit:10"
   width="396.84799"
   height="396.85599"
   id="rect4962" />
</g>
<g
   id="LWPOLYLINE_146_"
   transform="translate(-13.924,-13.92)">
	<path
   style="fill:#ffffff"
   d="m 59.526,411.026 h 306.15 c 25.044,0 45.346,-20.308 45.346,-45.357 V 59.527 c 0,-25.05 -20.302,-45.357 -45.346,-45.357 H 59.526 c -25.049,0 -45.352,20.308 -45.352,45.357 v 306.142 c 0,25.05 20.303,45.357 45.352,45.357 z"
   id="path4965"
   inkscape:connector-curvature="0" />
</g>
<g
   id="LWPOLYLINE_147_"
   transform="translate(-13.924,-13.92)">
	<path
   style="fill:#005eb8"
   d="m 59.526,388.348 h 306.15 c 12.517,0 22.668,-10.151 22.668,-22.679 V 59.527 c 0,-12.525 -10.151,-22.679 -22.668,-22.679 H 59.526 c -12.521,0 -22.678,10.153 -22.678,22.679 v 306.142 c 0,12.527 10.156,22.679 22.678,22.679 z"
   id="path4968"
   inkscape:connector-curvature="0" />
</g>
<g
   id="CIRCLE_6_"
   transform="translate(-13.924,-13.92)">
	<path
   style="fill:#ffffff"
   d="m 226.052,93.336 c 0,-12.137 -9.839,-21.975 -21.98,-21.975 -12.131,0 -21.979,9.838 -21.979,21.975 0,12.137 9.849,21.98 21.979,21.98 12.141,0 21.98,-9.843 21.98,-21.98 z"
   id="path4971"
   inkscape:connector-curvature="0" />
</g>
<g
   id="LWPOLYLINE_150_"
   transform="translate(-13.924,-13.92)">
	<path
   style="fill:#ffffff"
   d="m 233.024,223.013 -0.938,-54.153 9.994,14.81 0.479,27.04 c 0.928,4.935 5.69,8.177 10.62,7.249 4.127,-0.782 7.181,-4.294 7.39,-8.484 l -0.646,-34.528 -24.439,-38.999 c -8.108,-14.622 -26.534,-19.906 -41.146,-11.792 -4.012,2.225 -7.462,5.33 -10.099,9.082 l -16.779,45.587 -18.01,12.465 c -3.949,3.533 -4.294,9.608 -0.761,13.563 2.897,3.236 7.588,4.133 11.465,2.189 l 19.874,-13.653 9.891,-19.922 -0.656,32.142 -23.512,29.964 c -1.751,2.24 -2.554,5.086 -2.23,7.91 l 5.597,48.296 c 1.354,6.461 7.701,10.594 14.163,9.233 5.806,-1.229 9.839,-6.524 9.474,-12.449 l -4.575,-41.756 20.5,-21.234 1.887,25.346 c 0.261,3.518 1.031,6.973 2.303,10.261 l 13.455,34.945 2.897,8.015 c 2.146,5.951 8.723,9.036 14.674,6.884 5.951,-2.152 9.036,-8.724 6.89,-14.68 -0.011,-0.021 -2.939,-8.056 -2.939,-8.056 l -12.381,-33.955 -2.429,-32.721 z"
   id="path4974"
   inkscape:connector-curvature="0" />
</g>
<g
   id="LWPOLYLINE_152_"
   transform="translate(-13.924,-13.92)">
	<polygon
   style="fill:#ffffff"
   points="354.441,360.094 354.441,348.306 71.511,283.471 71.511,360.094 "
   id="polygon4977" />
</g>
</svg>