<?xml version="1.0" encoding="UTF-8" standalone="no"?>
<!-- Generator: Adobe Illustrator 16.0.0, SVG Export Plug-In . SVG Version: 6.00 Build 0)  -->

<svg
   xmlns:dc="http://purl.org/dc/elements/1.1/"
   xmlns:cc="http://creativecommons.org/ns#"
   xmlns:rdf="http://www.w3.org/1999/02/22-rdf-syntax-ns#"
   xmlns:svg="http://www.w3.org/2000/svg"
   xmlns="http://www.w3.org/2000/svg"
   xmlns:sodipodi="http://sodipodi.sourceforge.net/DTD/sodipodi-0.dtd"
   xmlns:inkscape="http://www.inkscape.org/namespaces/inkscape"
   version="1.1"
   id="Layer_1"
   x="0px"
   y="0px"
   width="397.353"
   height="397.353"
   viewBox="0 0 397.35301 397.35298"
   xml:space="preserve"
   sodipodi:docname="F55.4.svg"
   inkscape:version="0.92.5 (2060ec1f9f, 2020-04-08)"><metadata
   id="metadata5035"><rdf:RDF><cc:Work
       rdf:about=""><dc:format>image/svg+xml</dc:format><dc:type
         rdf:resource="http://purl.org/dc/dcmitype/StillImage" /></cc:Work></rdf:RDF></metadata><defs
   id="defs5033" /><sodipodi:namedview
   pagecolor="#ffffff"
   bordercolor="#666666"
   borderopacity="1"
   objecttolerance="10"
   gridtolerance="10"
   guidetolerance="10"
   inkscape:pageopacity="0"
   inkscape:pageshadow="2"
   inkscape:window-width="640"
   inkscape:window-height="480"
   id="namedview5031"
   showgrid="false"
   inkscape:zoom="0.55503813"
   inkscape:cx="198.6765"
   inkscape:cy="198.67699"
   inkscape:window-x="0"
   inkscape:window-y="0"
   inkscape:window-maximized="0"
   inkscape:current-layer="Layer_1" />
<g
   id="LWPOLYLINE_142_"
   transform="translate(-13.922,-13.922)">
	
		<rect
   x="14.172"
   y="14.172"
   style="fill:#005eb8;stroke:#005eb8;stroke-width:0.5;stroke-miterlimit:10"
   width="396.853"
   height="396.853"
   id="rect5012" />
</g>
<g
   id="LWPOLYLINE_140_"
   transform="translate(-13.922,-13.922)">
	<path
   style="fill:#ffffff"
   d="m 59.531,411.024 h 306.141 c 25.046,0 45.354,-20.307 45.354,-45.354 V 59.528 c 0,-25.049 -20.308,-45.356 -45.354,-45.356 H 59.531 c -25.052,0 -45.359,20.308 -45.359,45.356 v 306.143 c 0,25.047 20.307,45.353 45.359,45.353 z"
   id="path5015"
   inkscape:connector-curvature="0" />
</g>
<g
   id="LWPOLYLINE_141_"
   transform="translate(-13.922,-13.922)">
	<path
   style="fill:#005eb8"
   d="m 59.531,388.343 h 306.141 c 12.523,0 22.672,-10.148 22.672,-22.672 V 59.528 c 0,-12.526 -10.148,-22.677 -22.672,-22.677 H 59.531 c -12.528,0 -22.677,10.15 -22.677,22.677 v 306.143 c 0,12.523 10.148,22.672 22.677,22.672 z"
   id="path5018"
   inkscape:connector-curvature="0" />
</g>
<g
   id="LWPOLYLINE_147_"
   transform="translate(-13.922,-13.922)">
	<polygon
   style="fill:#ffffff"
   points="354.336,354.33 354.336,342.517 70.867,277.56 70.867,354.33 "
   id="polygon5021" />
</g>
<g
   id="LWPOLYLINE_148_"
   transform="translate(-13.922,-13.922)">
	<path
   style="fill:#ffffff"
   d="m 255.35,187.358 c 12.304,8.351 20.703,21.341 23.254,36.002 5.201,29.867 -14.788,58.3 -44.66,63.506 -29.862,5.206 -58.294,-14.793 -63.506,-44.655 l -13.7,21.006 c 16.811,37.432 60.779,54.154 98.216,37.349 37.437,-16.805 54.16,-60.778 37.349,-98.21 -7.256,-16.174 -20.054,-29.213 -36.084,-36.777 z"
   id="path5024"
   inkscape:connector-curvature="0" />
</g>
<g
   id="LWPOLYLINE_149_"
   transform="translate(-13.922,-13.922)">
	<path
   style="fill:#ffffff"
   d="m 106.479,232.568 -12.936,19.4 45.197,30.065 40.186,-66.287 h 67.266 l 6.597,-102.911 c 11.039,-5.068 15.865,-18.13 10.797,-29.164 -5.068,-11.033 -18.131,-15.87 -29.169,-10.796 -11.029,5.074 -15.866,18.125 -10.797,29.164 1.561,3.397 3.958,6.339 6.971,8.549 l -3.364,43.066 h -49.598 v 23.286 h 47.783 l -1.21,15.52 h -59.514 l -34.922,55.628 z"
   id="path5027"
   inkscape:connector-curvature="0" />
</g>
</svg>