<?xml version="1.0" encoding="iso-8859-1"?>
<!-- Generator: Adobe Illustrator 16.0.0, SVG Export Plug-In . SVG Version: 6.00 Build 0)  -->
<!DOCTYPE svg PUBLIC "-//W3C//DTD SVG 1.1//EN" "http://www.w3.org/Graphics/SVG/1.1/DTD/svg11.dtd">
<svg version="1.1" id="Layer_1" xmlns="http://www.w3.org/2000/svg" xmlns:xlink="http://www.w3.org/1999/xlink" x="0px" y="0px"
	 width="425.197px" height="425.196px" viewBox="0 0 425.197 425.196" style="enable-background:new 0 0 425.197 425.196;"
	 xml:space="preserve">
<g id="LWPOLYLINE_148_">
	
		<rect x="14.174" y="14.17" style="fill:#005EB8;stroke:#005EB8;stroke-width:0.5;stroke-miterlimit:10;" width="396.848" height="396.856"/>
</g>
<g id="LWPOLYLINE_146_">
	<path style="fill:#FFFFFF;" d="M59.526,411.026h306.15c25.044,0,45.346-20.308,45.346-45.357V59.527
		c0-25.05-20.302-45.357-45.346-45.357H59.526c-25.049,0-45.352,20.308-45.352,45.357v306.142
		C14.174,390.719,34.477,411.026,59.526,411.026z"/>
</g>
<g id="LWPOLYLINE_147_">
	<path style="fill:#005EB8;" d="M59.526,388.348h306.15c12.517,0,22.668-10.151,22.668-22.679V59.527
		c0-12.525-10.151-22.679-22.668-22.679H59.526c-12.521,0-22.678,10.153-22.678,22.679v306.142
		C36.848,378.196,47.004,388.348,59.526,388.348z"/>
</g>
<g id="CIRCLE_6_">
	<path style="fill:#FFFFFF;" d="M226.052,93.336c0-12.137-9.839-21.975-21.98-21.975c-12.131,0-21.979,9.838-21.979,21.975
		s9.849,21.98,21.979,21.98C216.213,115.316,226.052,105.473,226.052,93.336L226.052,93.336z"/>
</g>
<g id="LWPOLYLINE_150_">
	<path style="fill:#FFFFFF;" d="M233.024,223.013l-0.938-54.153l9.994,14.81l0.479,27.04c0.928,4.935,5.69,8.177,10.62,7.249
		c4.127-0.782,7.181-4.294,7.39-8.484l-0.646-34.528l-24.439-38.999c-8.108-14.622-26.534-19.906-41.146-11.792
		c-4.012,2.225-7.462,5.33-10.099,9.082l-16.779,45.587l-18.01,12.465c-3.949,3.533-4.294,9.608-0.761,13.563
		c2.897,3.236,7.588,4.133,11.465,2.189l19.874-13.653l9.891-19.922l-0.656,32.142l-23.512,29.964
		c-1.751,2.24-2.554,5.086-2.23,7.91l5.597,48.296c1.354,6.461,7.701,10.594,14.163,9.233c5.806-1.229,9.839-6.524,9.474-12.449
		l-4.575-41.756l20.5-21.234l1.887,25.346c0.261,3.518,1.031,6.973,2.303,10.261l13.455,34.945l2.897,8.015
		c2.146,5.951,8.723,9.036,14.674,6.884s9.036-8.724,6.89-14.68c-0.011-0.021-2.939-8.056-2.939-8.056l-12.381-33.955l-2.429-32.721
		L233.024,223.013z"/>
</g>
<g id="LWPOLYLINE_152_">
	<polygon style="fill:#FFFFFF;" points="71.511,283.471 71.511,360.094 354.441,360.094 354.441,348.306 	"/>
</g>
</svg>
