<?xml version="1.0" encoding="UTF-8" standalone="no"?>
<!-- Generator: Adobe Illustrator 16.0.0, SVG Export Plug-In . SVG Version: 6.00 Build 0)  -->

<svg
   xmlns:dc="http://purl.org/dc/elements/1.1/"
   xmlns:cc="http://creativecommons.org/ns#"
   xmlns:rdf="http://www.w3.org/1999/02/22-rdf-syntax-ns#"
   xmlns:svg="http://www.w3.org/2000/svg"
   xmlns="http://www.w3.org/2000/svg"
   xmlns:sodipodi="http://sodipodi.sourceforge.net/DTD/sodipodi-0.dtd"
   xmlns:inkscape="http://www.inkscape.org/namespaces/inkscape"
   version="1.1"
   id="Layer_1"
   x="0px"
   y="0px"
   width="397.353"
   height="397.353"
   viewBox="0 0 397.35301 397.35298"
   xml:space="preserve"
   sodipodi:docname="F55.3.svg"
   inkscape:version="0.92.5 (2060ec1f9f, 2020-04-08)"><metadata
   id="metadata5010"><rdf:RDF><cc:Work
       rdf:about=""><dc:format>image/svg+xml</dc:format><dc:type
         rdf:resource="http://purl.org/dc/dcmitype/StillImage" /></cc:Work></rdf:RDF></metadata><defs
   id="defs5008" /><sodipodi:namedview
   pagecolor="#ffffff"
   bordercolor="#666666"
   borderopacity="1"
   objecttolerance="10"
   gridtolerance="10"
   guidetolerance="10"
   inkscape:pageopacity="0"
   inkscape:pageshadow="2"
   inkscape:window-width="640"
   inkscape:window-height="480"
   id="namedview5006"
   showgrid="false"
   inkscape:zoom="0.55503813"
   inkscape:cx="198.6765"
   inkscape:cy="198.67699"
   inkscape:window-x="0"
   inkscape:window-y="0"
   inkscape:window-maximized="0"
   inkscape:current-layer="Layer_1" />
<g
   id="LWPOLYLINE_142_"
   transform="translate(-13.922,-13.922)">
	
		<rect
   x="14.172"
   y="14.172"
   style="fill:#005eb8;stroke:#005eb8;stroke-width:0.5;stroke-miterlimit:10"
   width="396.853"
   height="396.853"
   id="rect4987" />
</g>
<g
   id="LWPOLYLINE_140_"
   transform="translate(-13.922,-13.922)">
	<path
   style="fill:#ffffff"
   d="m 59.531,411.024 h 306.141 c 25.046,0 45.354,-20.307 45.354,-45.354 V 59.528 c 0,-25.049 -20.308,-45.356 -45.354,-45.356 H 59.531 c -25.052,0 -45.359,20.308 -45.359,45.356 v 306.143 c 0,25.047 20.307,45.353 45.359,45.353 z"
   id="path4990"
   inkscape:connector-curvature="0" />
</g>
<g
   id="LWPOLYLINE_141_"
   transform="translate(-13.922,-13.922)">
	<path
   style="fill:#005eb8"
   d="m 59.531,388.343 h 306.141 c 12.523,0 22.672,-10.148 22.672,-22.672 V 59.528 c 0,-12.526 -10.148,-22.677 -22.672,-22.677 H 59.531 c -12.528,0 -22.677,10.15 -22.677,22.677 v 306.143 c 0,12.523 10.148,22.672 22.677,22.672 z"
   id="path4993"
   inkscape:connector-curvature="0" />
</g>
<g
   id="LWPOLYLINE_147_"
   transform="translate(-13.922,-13.922)">
	<polygon
   style="fill:#ffffff"
   points="354.336,354.33 354.336,342.517 70.867,277.56 70.867,354.33 "
   id="polygon4996" />
</g>
<g
   id="LWPOLYLINE_148_"
   transform="translate(-13.922,-13.922)">
	<path
   style="fill:#ffffff"
   d="m 185.446,187.358 c -25.09,17.02 -31.621,51.158 -14.602,76.249 17.02,25.09 51.159,31.626 76.249,14.601 12.314,-8.351 20.703,-21.341 23.265,-35.997 l 13.699,21.006 c -7.268,16.168 -20.064,29.207 -36.096,36.771 -37.107,17.504 -81.394,1.605 -98.897,-35.513 -17.501,-37.113 -1.605,-81.389 35.513,-98.897 z"
   id="path4999"
   inkscape:connector-curvature="0" />
</g>
<g
   id="LWPOLYLINE_149_"
   transform="translate(-13.922,-13.922)">
	<path
   style="fill:#ffffff"
   d="m 334.315,232.568 12.93,19.4 -45.199,30.065 -40.176,-66.287 h -67.266 l -6.597,-102.911 c -3.397,-1.562 -6.333,-3.958 -8.554,-6.971 -7.18,-9.796 -5.069,-23.557 4.728,-30.741 9.796,-7.186 23.562,-5.068 30.741,4.728 7.18,9.791 5.068,23.551 -4.728,30.736 l 3.364,43.066 h 49.608 v 23.286 h -47.783 l 1.21,15.52 h 59.503 l 34.931,55.628 z"
   id="path5002"
   inkscape:connector-curvature="0" />
</g>
</svg>