<?xml version="1.0" encoding="iso-8859-1"?>
<!-- Generator: Adobe Illustrator 16.0.0, SVG Export Plug-In . SVG Version: 6.00 Build 0)  -->
<!DOCTYPE svg PUBLIC "-//W3C//DTD SVG 1.1//EN" "http://www.w3.org/Graphics/SVG/1.1/DTD/svg11.dtd">
<svg version="1.1" id="Layer_1" xmlns="http://www.w3.org/2000/svg" xmlns:xlink="http://www.w3.org/1999/xlink" x="0px" y="0px"
	 width="425.197px" height="425.196px" viewBox="0 0 425.197 425.196" style="enable-background:new 0 0 425.197 425.196;"
	 xml:space="preserve">
<g id="LWPOLYLINE_146_">
	
		<rect x="14.172" y="14.172" style="fill:#009775;stroke:#009775;stroke-width:0.5;stroke-miterlimit:10;" width="396.853" height="396.853"/>
</g>
<g id="LWPOLYLINE_144_">
	<path style="fill:#FFFFFF;" d="M59.531,411.024h306.141c25.046,0,45.354-20.307,45.354-45.354V59.528
		c0-25.049-20.308-45.356-45.354-45.356H59.531c-25.052,0-45.359,20.308-45.359,45.356v306.143
		C14.172,390.718,34.479,411.024,59.531,411.024z"/>
</g>
<g id="LWPOLYLINE_145_">
	<path style="fill:#009775;" d="M59.531,388.343h306.141c12.523,0,22.672-10.148,22.672-22.672V59.528
		c0-12.526-10.148-22.677-22.672-22.677H59.531c-12.528,0-22.677,10.15-22.677,22.677v306.143
		C36.854,378.194,47.002,388.343,59.531,388.343z"/>
</g>
<g id="LWPOLYLINE_142_">
	<path style="fill:#FFFFFF;" d="M210.811,328.388c-1.518,4.937,0.264,10.297,4.441,13.348l3.441,1.1
		c6.212,1.034,12.083-3.155,13.116-9.362c0-0.021,13.865-51.356,13.865-51.356l23.154-37.305l1.353,3.766l7.268,32.006
		c0.813,5.233,4.783,9.411,9.961,10.494l53.094,1.303c5.651,1.528,11.479-1.819,13.007-7.476c0.759-2.837,0.319-5.86-1.22-8.356
		c-2.199-2.727-5.157-4.744-8.488-5.811l-42.407-0.798l-5.102-46.134c-0.044-4.706-1.242-9.329-3.496-13.452l-16.162-33.303h24.375
		l14.623,25.898c3.519,4.937,10.357,6.091,15.294,2.578c3.914-2.782,5.563-7.779,4.068-12.342l-18.098-32.522
		c-2.199-3.958-6.366-6.41-10.896-6.41h-67.332c-2.969,0-5.794,1.298-7.729,3.546l-31.291,36.311l-17.372-0.012
		c-6.124,1.034-10.236,6.839-9.202,12.958c0.604,3.567,2.892,6.624,6.135,8.218l1.1,0.198l2.188,0.099h21.461
		c3.914-0.324,7.521-2.248,9.973-5.315l19.9-19.779l15.888,26.063l0.989,3.87l-26.288,51.571L210.811,328.388z"/>
</g>
<g id="CIRCLE_5_">
	<path style="fill:#FFFFFF;" d="M253.932,129.911c0-10.945-8.873-19.824-19.824-19.824c-10.95,0-19.823,8.879-19.823,19.824
		c0,10.95,8.873,19.823,19.823,19.823C245.059,149.734,253.932,140.861,253.932,129.911L253.932,129.911z"/>
</g>
<g id="LWPOLYLINE_143_">
	<rect x="70.867" y="99.214" style="fill:#FFFFFF;" width="78.967" height="243.775"/>
</g>
</svg>
