<?xml version="1.0" encoding="iso-8859-1"?>
<!-- Generator: Adobe Illustrator 16.0.0, SVG Export Plug-In . SVG Version: 6.00 Build 0)  -->
<!DOCTYPE svg PUBLIC "-//W3C//DTD SVG 1.1//EN" "http://www.w3.org/Graphics/SVG/1.1/DTD/svg11.dtd">
<svg version="1.1" id="Layer_1" xmlns="http://www.w3.org/2000/svg" xmlns:xlink="http://www.w3.org/1999/xlink" x="0px" y="0px"
	 width="425.197px" height="425.196px" viewBox="0 0 425.197 425.196" style="enable-background:new 0 0 425.197 425.196;"
	 xml:space="preserve">
<g id="LWPOLYLINE_146_">
	
		<rect x="14.172" y="14.172" style="fill:#009775;stroke:#009775;stroke-width:0.5;stroke-miterlimit:10;" width="396.853" height="396.853"/>
</g>
<g id="LWPOLYLINE_144_">
	<path style="fill:#FFFFFF;" d="M59.531,411.024h306.141c25.046,0,45.354-20.307,45.354-45.354V59.528
		c0-25.049-20.308-45.356-45.354-45.356H59.531c-25.052,0-45.359,20.308-45.359,45.356v306.143
		C14.172,390.718,34.479,411.024,59.531,411.024z"/>
</g>
<g id="LWPOLYLINE_145_">
	<path style="fill:#009775;" d="M59.531,388.343h306.141c12.523,0,22.672-10.148,22.672-22.672V59.528
		c0-12.526-10.148-22.677-22.672-22.677H59.531c-12.528,0-22.677,10.15-22.677,22.677v306.143
		C36.854,378.194,47.002,388.343,59.531,388.343z"/>
</g>
<g id="LWPOLYLINE_142_">
	<path style="fill:#FFFFFF;" d="M225.092,194.109l17.372-0.012c3.573,0.605,6.63,2.892,8.224,6.141
		c2.728,5.574,0.418,12.309-5.156,15.035l-1.1,0.198l-2.188,0.099h-21.462c-3.914-0.324-7.521-2.248-9.972-5.315l-19.901-19.779
		l-15.887,26.063l-0.979,3.87l26.289,51.571l13.601,56.408c1.518,4.937-0.264,10.297-4.431,13.348l-3.453,1.1
		c-6.233,1.028-12.094-3.177-13.116-9.384l-13.864-51.335l-23.155-37.305l-1.353,3.766l-7.268,32.006
		c-0.813,5.233-4.782,9.411-9.961,10.494l-53.091,1.303c-2.831,0.771-5.855,0.325-8.351-1.22c-4.98-3.09-6.52-9.626-3.436-14.612
		c2.199-2.727,5.151-4.744,8.488-5.811l42.407-0.798l5.102-46.134c0.038-4.706,1.237-9.329,3.496-13.452l16.16-33.303h-24.373
		l-14.623,25.898c-2.782,3.908-7.779,5.552-12.342,4.067c-5.756-1.88-8.906-8.069-7.025-13.831l18.097-32.522
		c2.199-3.958,6.372-6.41,10.901-6.41h67.329c2.969,0,5.794,1.298,7.729,3.546L225.092,194.109z"/>
</g>
<g id="CIRCLE_5_">
	<path style="fill:#FFFFFF;" d="M210.458,130.257c0-10.945-8.872-19.823-19.823-19.823s-19.824,8.878-19.824,19.823
		s8.873,19.824,19.824,19.824S210.458,141.202,210.458,130.257L210.458,130.257z"/>
</g>
<g id="LWPOLYLINE_143_">
	<rect x="275.361" y="99.214" style="fill:#FFFFFF;" width="78.976" height="243.775"/>
</g>
</svg>
