<?xml version="1.0" encoding="UTF-8" standalone="no"?>
<!-- Generator: Adobe Illustrator 16.0.0, SVG Export Plug-In . SVG Version: 6.00 Build 0)  -->

<svg
   xmlns:dc="http://purl.org/dc/elements/1.1/"
   xmlns:cc="http://creativecommons.org/ns#"
   xmlns:rdf="http://www.w3.org/1999/02/22-rdf-syntax-ns#"
   xmlns:svg="http://www.w3.org/2000/svg"
   xmlns="http://www.w3.org/2000/svg"
   xmlns:sodipodi="http://sodipodi.sourceforge.net/DTD/sodipodi-0.dtd"
   xmlns:inkscape="http://www.inkscape.org/namespaces/inkscape"
   version="1.1"
   id="Layer_1"
   x="0px"
   y="0px"
   width="397.353"
   height="397.353"
   viewBox="0 0 397.35301 397.35298"
   xml:space="preserve"
   sodipodi:docname="F56.1.svg"
   inkscape:version="0.92.5 (2060ec1f9f, 2020-04-08)"><metadata
   id="metadata5060"><rdf:RDF><cc:Work
       rdf:about=""><dc:format>image/svg+xml</dc:format><dc:type
         rdf:resource="http://purl.org/dc/dcmitype/StillImage" /></cc:Work></rdf:RDF></metadata><defs
   id="defs5058" /><sodipodi:namedview
   pagecolor="#ffffff"
   bordercolor="#666666"
   borderopacity="1"
   objecttolerance="10"
   gridtolerance="10"
   guidetolerance="10"
   inkscape:pageopacity="0"
   inkscape:pageshadow="2"
   inkscape:window-width="640"
   inkscape:window-height="480"
   id="namedview5056"
   showgrid="false"
   inkscape:zoom="0.55503813"
   inkscape:cx="198.6765"
   inkscape:cy="198.67699"
   inkscape:window-x="0"
   inkscape:window-y="0"
   inkscape:window-maximized="0"
   inkscape:current-layer="Layer_1" />
<g
   id="LWPOLYLINE_146_"
   transform="translate(-13.922,-13.922)">
	
		<rect
   x="14.172"
   y="14.172"
   style="fill:#009775;stroke:#009775;stroke-width:0.5;stroke-miterlimit:10"
   width="396.853"
   height="396.853"
   id="rect5037" />
</g>
<g
   id="LWPOLYLINE_144_"
   transform="translate(-13.922,-13.922)">
	<path
   style="fill:#ffffff"
   d="m 59.531,411.024 h 306.141 c 25.046,0 45.354,-20.307 45.354,-45.354 V 59.528 c 0,-25.049 -20.308,-45.356 -45.354,-45.356 H 59.531 c -25.052,0 -45.359,20.308 -45.359,45.356 v 306.143 c 0,25.047 20.307,45.353 45.359,45.353 z"
   id="path5040"
   inkscape:connector-curvature="0" />
</g>
<g
   id="LWPOLYLINE_145_"
   transform="translate(-13.922,-13.922)">
	<path
   style="fill:#009775"
   d="m 59.531,388.343 h 306.141 c 12.523,0 22.672,-10.148 22.672,-22.672 V 59.528 c 0,-12.526 -10.148,-22.677 -22.672,-22.677 H 59.531 c -12.528,0 -22.677,10.15 -22.677,22.677 v 306.143 c 0,12.523 10.148,22.672 22.677,22.672 z"
   id="path5043"
   inkscape:connector-curvature="0" />
</g>
<g
   id="LWPOLYLINE_142_"
   transform="translate(-13.922,-13.922)">
	<path
   style="fill:#ffffff"
   d="m 210.811,328.388 c -1.518,4.937 0.264,10.297 4.441,13.348 l 3.441,1.1 c 6.212,1.034 12.083,-3.155 13.116,-9.362 0,-0.021 13.865,-51.356 13.865,-51.356 l 23.154,-37.305 1.353,3.766 7.268,32.006 c 0.813,5.233 4.783,9.411 9.961,10.494 l 53.094,1.303 c 5.651,1.528 11.479,-1.819 13.007,-7.476 0.759,-2.837 0.319,-5.86 -1.22,-8.356 -2.199,-2.727 -5.157,-4.744 -8.488,-5.811 l -42.407,-0.798 -5.102,-46.134 c -0.044,-4.706 -1.242,-9.329 -3.496,-13.452 l -16.162,-33.303 h 24.375 l 14.623,25.898 c 3.519,4.937 10.357,6.091 15.294,2.578 3.914,-2.782 5.563,-7.779 4.068,-12.342 l -18.098,-32.522 c -2.199,-3.958 -6.366,-6.41 -10.896,-6.41 H 238.67 c -2.969,0 -5.794,1.298 -7.729,3.546 l -31.291,36.311 -17.372,-0.012 c -6.124,1.034 -10.236,6.839 -9.202,12.958 0.604,3.567 2.892,6.624 6.135,8.218 l 1.1,0.198 2.188,0.099 h 21.461 c 3.914,-0.324 7.521,-2.248 9.973,-5.315 l 19.9,-19.779 15.888,26.063 0.989,3.87 -26.288,51.571 z"
   id="path5046"
   inkscape:connector-curvature="0" />
</g>
<g
   id="CIRCLE_5_"
   transform="translate(-13.922,-13.922)">
	<path
   style="fill:#ffffff"
   d="m 253.932,129.911 c 0,-10.945 -8.873,-19.824 -19.824,-19.824 -10.95,0 -19.823,8.879 -19.823,19.824 0,10.95 8.873,19.823 19.823,19.823 10.951,0 19.824,-8.873 19.824,-19.823 z"
   id="path5049"
   inkscape:connector-curvature="0" />
</g>
<g
   id="LWPOLYLINE_143_"
   transform="translate(-13.922,-13.922)">
	<rect
   x="70.866997"
   y="99.213997"
   style="fill:#ffffff"
   width="78.967003"
   height="243.77499"
   id="rect5052" />
</g>
</svg>