<?xml version="1.0" encoding="iso-8859-1"?>
<!-- Generator: Adobe Illustrator 16.0.0, SVG Export Plug-In . SVG Version: 6.00 Build 0)  -->
<!DOCTYPE svg PUBLIC "-//W3C//DTD SVG 1.1//EN" "http://www.w3.org/Graphics/SVG/1.1/DTD/svg11.dtd">
<svg version="1.1" id="Layer_1" xmlns="http://www.w3.org/2000/svg" xmlns:xlink="http://www.w3.org/1999/xlink" x="0px" y="0px"
	 width="425.197px" height="425.196px" viewBox="0 0 425.197 425.196" style="enable-background:new 0 0 425.197 425.196;"
	 xml:space="preserve">
<g id="LWPOLYLINE_166_">
	
		<rect x="14.174" y="147.63" style="fill:#009775;stroke:#009775;stroke-width:0.5;stroke-miterlimit:10;" width="396.849" height="129.937"/>
</g>
<g id="LWPOLYLINE_191_">
	<path style="fill:#FFFFFF;" d="M14.174,147.63h389.29c4.179,0,7.56,3.387,7.56,7.56v114.817c0,4.176-3.381,7.56-7.56,7.56H14.174
		V147.63z"/>
</g>
<g id="LWPOLYLINE_167_">
	<path style="fill:#009775;" d="M26.893,199.977l69.227-48.168c0.594-0.413,1.3-0.633,2.026-0.633h305.79
		c1.958,0,3.546,1.584,3.546,3.541v115.763c0,1.957-1.588,3.543-3.546,3.543H96.302c-0.737,0-1.457-0.23-2.059-0.659l-77.04-55.024
		c-0.685-0.48-1.281-1.074-1.759-1.762c-2.235-3.214-1.443-7.631,1.771-9.866L26.893,199.977z"/>
</g>
<g id="LWPOLYLINE_164_">
	<rect x="132.375" y="164.14" style="fill:#FFFFFF;" width="47.188" height="94.506"/>
</g>
<g id="LWPOLYLINE_165_">
	<path style="fill:#FFFFFF;" d="M339.97,180.784l30.902,0.47l8.967,15.795c0.221,1.919-0.632,3.805-2.215,4.904
		c-2.381,1.655-5.652,1.066-7.307-1.312l-4.327-9.73h-8.653l6.493,13.514l3.782,23.785l16.004,0.429
		c1.771,0.451,3.156,1.837,3.606,3.607c0.677,2.669-0.94,5.382-3.606,6.058l-20.33-0.907c-3.832-0.109-6.917-3.191-7.032-7.025
		l-3.243-10.812l-8.653,15.136l-3.788,20.539c-0.83,1.954-2.694,3.271-4.811,3.403c-3.084,0.189-5.745-2.158-5.933-5.245
		l5.872-25.727l10.28-19.998l-6.492-11.892l-10.275,10.812l-11.655-0.344c-1.957-0.627-3.299-2.43-3.337-4.486
		c-0.056-2.652,2.056-4.849,4.711-4.901l6.493,0.542l13.524-16.216L339.97,180.784z"/>
</g>
<g id="LWPOLYLINE_168_">
	<polygon style="fill:#FFFFFF;" points="297.611,187.723 219.592,187.723 233.771,173.546 222.078,173.546 203.176,192.447 
		222.078,211.346 233.771,211.346 219.592,197.17 297.611,197.17 	"/>
</g>
<g id="LWPOLYLINE_169_">
	<path style="fill:#FFFFFF;" d="M246.108,238.178v12.758c0,4.307,3.491,7.798,7.796,7.798c4.31,0,7.801-3.491,7.801-7.798v-12.758
		c0-4.305-3.491-7.796-7.801-7.796C249.599,230.382,246.108,233.873,246.108,238.178z"/>
</g>
<g id="LWPOLYLINE_171_">
	<path style="fill:#FFFFFF;" d="M240,247.661v3.12c0,4.305-3.485,7.796-7.796,7.796c-4.305,0-7.796-3.491-7.796-7.796h4.256
		c0,1.957,1.583,3.543,3.54,3.543c1.958,0,3.546-1.586,3.546-3.543v-3.12c0-1.957-1.588-3.543-3.546-3.543
		c-1.115,0-2.166,0.524-2.831,1.418l-4.965-1.135l1.419-14.174h11.342l0.28,4.253h-7.773l-0.605,6.045
		c0.99-0.435,2.057-0.66,3.134-0.66C236.514,239.865,240,243.356,240,247.661z"/>
</g>
<g id="LWPOLYLINE_172_">
	<path style="fill:#FFFFFF;" d="M277.84,238.541c1.045-0.556,2.178-0.936,3.349-1.125h1.188c1.363,0,2.677,0.517,3.672,1.449
		c1.645-0.951,3.502-1.449,5.399-1.449h0.847c2.979,0,5.388,2.411,5.388,5.385v15.878h-4.25v-15.025c0-1.566-1.27-2.837-2.837-2.837
		c-1.566,0-2.837,1.271-2.837,2.837v15.025h-4.25v-15.025c0-1.566-1.27-2.837-2.836-2.837c-1.567,0-2.832,1.271-2.832,2.837v15.025
		h-4.255v-21.263h4.255V238.541z"/>
</g>
<g id="LWPOLYLINE_173_">
	<path style="fill:#FFFFFF;" d="M208.822,237.386l3.112-0.566v21.826h4.255V230.3h-4.255h-0.039
		c-0.565,1.798-1.83,3.298-3.502,4.164L208.822,237.386z"/>
</g>
<g id="LWPOLYLINE_170_">
	<path style="fill:#009775;" d="M257.45,238.178c0-1.957-1.589-3.543-3.546-3.543s-3.541,1.586-3.541,3.543v12.758
		c0,1.957,1.584,3.543,3.541,3.543s3.546-1.586,3.546-3.543V238.178z"/>
</g>
<g id="CIRCLE_6_">
	<path style="fill:#FFFFFF;" d="M347.293,171.757c0-4.143-3.359-7.502-7.499-7.502c-4.146,0-7.504,3.359-7.504,7.502
		s3.358,7.502,7.504,7.502C343.934,179.259,347.293,175.899,347.293,171.757L347.293,171.757z"/>
</g>
</svg>
