<?xml version="1.0" encoding="UTF-8" standalone="no"?>
<!-- Generator: Adobe Illustrator 16.0.0, SVG Export Plug-In . SVG Version: 6.00 Build 0)  -->

<svg
   xmlns:dc="http://purl.org/dc/elements/1.1/"
   xmlns:cc="http://creativecommons.org/ns#"
   xmlns:rdf="http://www.w3.org/1999/02/22-rdf-syntax-ns#"
   xmlns:svg="http://www.w3.org/2000/svg"
   xmlns="http://www.w3.org/2000/svg"
   xmlns:sodipodi="http://sodipodi.sourceforge.net/DTD/sodipodi-0.dtd"
   xmlns:inkscape="http://www.inkscape.org/namespaces/inkscape"
   version="1.1"
   id="Layer_1"
   x="0px"
   y="0px"
   width="397.349"
   height="130.437"
   viewBox="0 0 397.34901 130.43699"
   xml:space="preserve"
   sodipodi:docname="F57.1.svg"
   inkscape:version="0.92.5 (2060ec1f9f, 2020-04-08)"><metadata
   id="metadata5128"><rdf:RDF><cc:Work
       rdf:about=""><dc:format>image/svg+xml</dc:format><dc:type
         rdf:resource="http://purl.org/dc/dcmitype/StillImage" /></cc:Work></rdf:RDF></metadata><defs
   id="defs5126" /><sodipodi:namedview
   pagecolor="#ffffff"
   bordercolor="#666666"
   borderopacity="1"
   objecttolerance="10"
   gridtolerance="10"
   guidetolerance="10"
   inkscape:pageopacity="0"
   inkscape:pageshadow="2"
   inkscape:window-width="640"
   inkscape:window-height="480"
   id="namedview5124"
   showgrid="false"
   inkscape:zoom="0.55503813"
   inkscape:cx="198.6745"
   inkscape:cy="65.218994"
   inkscape:window-x="0"
   inkscape:window-y="0"
   inkscape:window-maximized="0"
   inkscape:current-layer="Layer_1" />
<g
   id="LWPOLYLINE_166_"
   transform="translate(-13.924,-147.38)">
	
		<rect
   x="14.174"
   y="147.63"
   style="fill:#009775;stroke:#009775;stroke-width:0.5;stroke-miterlimit:10"
   width="396.849"
   height="129.937"
   id="rect5087" />
</g>
<g
   id="LWPOLYLINE_191_"
   transform="translate(-13.924,-147.38)">
	<path
   style="fill:#ffffff"
   d="m 14.174,147.63 h 389.29 c 4.179,0 7.56,3.387 7.56,7.56 v 114.817 c 0,4.176 -3.381,7.56 -7.56,7.56 H 14.174 Z"
   id="path5090"
   inkscape:connector-curvature="0" />
</g>
<g
   id="LWPOLYLINE_167_"
   transform="translate(-13.924,-147.38)">
	<path
   style="fill:#009775"
   d="M 26.893,199.977 96.12,151.809 c 0.594,-0.413 1.3,-0.633 2.026,-0.633 h 305.79 c 1.958,0 3.546,1.584 3.546,3.541 V 270.48 c 0,1.957 -1.588,3.543 -3.546,3.543 H 96.302 c -0.737,0 -1.457,-0.23 -2.059,-0.659 L 17.203,218.34 c -0.685,-0.48 -1.281,-1.074 -1.759,-1.762 -2.235,-3.214 -1.443,-7.631 1.771,-9.866 z"
   id="path5093"
   inkscape:connector-curvature="0" />
</g>
<g
   id="LWPOLYLINE_164_"
   transform="translate(-13.924,-147.38)">
	<rect
   x="132.375"
   y="164.14"
   style="fill:#ffffff"
   width="47.188"
   height="94.505997"
   id="rect5096" />
</g>
<g
   id="LWPOLYLINE_165_"
   transform="translate(-13.924,-147.38)">
	<path
   style="fill:#ffffff"
   d="m 339.97,180.784 30.902,0.47 8.967,15.795 c 0.221,1.919 -0.632,3.805 -2.215,4.904 -2.381,1.655 -5.652,1.066 -7.307,-1.312 l -4.327,-9.73 h -8.653 l 6.493,13.514 3.782,23.785 16.004,0.429 c 1.771,0.451 3.156,1.837 3.606,3.607 0.677,2.669 -0.94,5.382 -3.606,6.058 l -20.33,-0.907 c -3.832,-0.109 -6.917,-3.191 -7.032,-7.025 l -3.243,-10.812 -8.653,15.136 -3.788,20.539 c -0.83,1.954 -2.694,3.271 -4.811,3.403 -3.084,0.189 -5.745,-2.158 -5.933,-5.245 l 5.872,-25.727 10.28,-19.998 -6.492,-11.892 -10.275,10.812 -11.655,-0.344 c -1.957,-0.627 -3.299,-2.43 -3.337,-4.486 -0.056,-2.652 2.056,-4.849 4.711,-4.901 l 6.493,0.542 13.524,-16.216 z"
   id="path5099"
   inkscape:connector-curvature="0" />
</g>
<g
   id="LWPOLYLINE_168_"
   transform="translate(-13.924,-147.38)">
	<polygon
   style="fill:#ffffff"
   points="233.771,173.546 222.078,173.546 203.176,192.447 222.078,211.346 233.771,211.346 219.592,197.17 297.611,197.17 297.611,187.723 219.592,187.723 "
   id="polygon5102" />
</g>
<g
   id="LWPOLYLINE_169_"
   transform="translate(-13.924,-147.38)">
	<path
   style="fill:#ffffff"
   d="m 246.108,238.178 v 12.758 c 0,4.307 3.491,7.798 7.796,7.798 4.31,0 7.801,-3.491 7.801,-7.798 v -12.758 c 0,-4.305 -3.491,-7.796 -7.801,-7.796 -4.305,0 -7.796,3.491 -7.796,7.796 z"
   id="path5105"
   inkscape:connector-curvature="0" />
</g>
<g
   id="LWPOLYLINE_171_"
   transform="translate(-13.924,-147.38)">
	<path
   style="fill:#ffffff"
   d="m 240,247.661 v 3.12 c 0,4.305 -3.485,7.796 -7.796,7.796 -4.305,0 -7.796,-3.491 -7.796,-7.796 h 4.256 c 0,1.957 1.583,3.543 3.54,3.543 1.958,0 3.546,-1.586 3.546,-3.543 v -3.12 c 0,-1.957 -1.588,-3.543 -3.546,-3.543 -1.115,0 -2.166,0.524 -2.831,1.418 l -4.965,-1.135 1.419,-14.174 h 11.342 l 0.28,4.253 h -7.773 l -0.605,6.045 c 0.99,-0.435 2.057,-0.66 3.134,-0.66 4.309,0 7.795,3.491 7.795,7.796 z"
   id="path5108"
   inkscape:connector-curvature="0" />
</g>
<g
   id="LWPOLYLINE_172_"
   transform="translate(-13.924,-147.38)">
	<path
   style="fill:#ffffff"
   d="m 277.84,238.541 c 1.045,-0.556 2.178,-0.936 3.349,-1.125 h 1.188 c 1.363,0 2.677,0.517 3.672,1.449 1.645,-0.951 3.502,-1.449 5.399,-1.449 h 0.847 c 2.979,0 5.388,2.411 5.388,5.385 v 15.878 h -4.25 v -15.025 c 0,-1.566 -1.27,-2.837 -2.837,-2.837 -1.566,0 -2.837,1.271 -2.837,2.837 v 15.025 h -4.25 v -15.025 c 0,-1.566 -1.27,-2.837 -2.836,-2.837 -1.567,0 -2.832,1.271 -2.832,2.837 v 15.025 h -4.255 v -21.263 h 4.255 v 1.125 z"
   id="path5111"
   inkscape:connector-curvature="0" />
</g>
<g
   id="LWPOLYLINE_173_"
   transform="translate(-13.924,-147.38)">
	<path
   style="fill:#ffffff"
   d="m 208.822,237.386 3.112,-0.566 v 21.826 h 4.255 V 230.3 h -4.255 -0.039 c -0.565,1.798 -1.83,3.298 -3.502,4.164 z"
   id="path5114"
   inkscape:connector-curvature="0" />
</g>
<g
   id="LWPOLYLINE_170_"
   transform="translate(-13.924,-147.38)">
	<path
   style="fill:#009775"
   d="m 257.45,238.178 c 0,-1.957 -1.589,-3.543 -3.546,-3.543 -1.957,0 -3.541,1.586 -3.541,3.543 v 12.758 c 0,1.957 1.584,3.543 3.541,3.543 1.957,0 3.546,-1.586 3.546,-3.543 z"
   id="path5117"
   inkscape:connector-curvature="0" />
</g>
<g
   id="CIRCLE_6_"
   transform="translate(-13.924,-147.38)">
	<path
   style="fill:#ffffff"
   d="m 347.293,171.757 c 0,-4.143 -3.359,-7.502 -7.499,-7.502 -4.146,0 -7.504,3.359 -7.504,7.502 0,4.143 3.358,7.502 7.504,7.502 4.14,0 7.499,-3.36 7.499,-7.502 z"
   id="path5120"
   inkscape:connector-curvature="0" />
</g>
</svg>