<?xml version="1.0" encoding="iso-8859-1"?>
<!-- Generator: Adobe Illustrator 16.0.0, SVG Export Plug-In . SVG Version: 6.00 Build 0)  -->
<!DOCTYPE svg PUBLIC "-//W3C//DTD SVG 1.1//EN" "http://www.w3.org/Graphics/SVG/1.1/DTD/svg11.dtd">
<svg version="1.1" id="Layer_1" xmlns="http://www.w3.org/2000/svg" xmlns:xlink="http://www.w3.org/1999/xlink" x="0px" y="0px"
	 width="425.197px" height="425.196px" viewBox="0 0 425.197 425.196" style="enable-background:new 0 0 425.197 425.196;"
	 xml:space="preserve">
<g id="LWPOLYLINE_177_">
	
		<rect x="14.176" y="174.312" style="fill:#FFFFFF;stroke:#009775;stroke-width:0.5;stroke-miterlimit:10;" width="396.848" height="76.572"/>
</g>
<g id="LWPOLYLINE_178_">
	<path style="fill:#009775;" d="M236.866,176.399H63.658c-0.427,0-0.842,0.133-1.193,0.376L21.67,205.161l-5.707,3.967
		c-1.89,1.318-2.36,3.922-1.042,5.816c0.281,0.402,0.632,0.756,1.037,1.037l45.4,32.424c0.356,0.254,0.783,0.393,1.215,0.393
		h174.293h125.756c0.438,0,0.858-0.139,1.215-0.393l45.4-32.424c1.895-1.324,2.354-3.926,1.031-5.816
		c-0.281-0.404-0.632-0.756-1.037-1.037l-5.702-3.967l-40.799-28.386c-0.352-0.243-0.767-0.376-1.193-0.376H236.866z"/>
</g>
<g id="LWPOLYLINE_174_">
	<rect x="83.717" y="184.042" style="fill:#FFFFFF;" width="27.781" height="55.691"/>
</g>
<g id="LWPOLYLINE_175_">
	<rect x="313.669" y="184.042" style="fill:#FFFFFF;" width="27.808" height="55.691"/>
</g>
<g id="CIRCLE_7_">
	<path style="fill:#FFFFFF;" d="M223.734,188.53c0-2.44-1.981-4.423-4.423-4.423c-2.44,0-4.422,1.982-4.422,4.423
		s1.981,4.422,4.422,4.422C221.752,192.952,223.734,190.97,223.734,188.53L223.734,188.53z"/>
</g>
<g id="LWPOLYLINE_176_">
	<path style="fill:#FFFFFF;" d="M219.208,193.848l-18.213,0.28l-5.286,9.306c-0.194,1.699,1.026,3.229,2.722,3.424
		c1.129,0.129,2.241-0.373,2.889-1.307l2.555-5.734h5.097l-3.823,7.965l-2.235,14.014l-9.428,0.254
		c-1.571,0.4-2.521,1.998-2.122,3.572c0.265,1.045,1.08,1.859,2.122,2.125l11.982-0.535c2.257-0.064,4.076-1.879,4.142-4.141
		l1.911-6.373l5.103,8.922l2.23,12.105c0.712,1.676,2.65,2.459,4.33,1.748c1.15-0.49,1.928-1.586,2.003-2.834l-3.461-15.162
		l-6.059-11.787l3.823-7.006l6.059,6.371l6.868-0.203c1.49-0.477,2.311-2.072,1.83-3.563c-0.367-1.156-1.431-1.943-2.641-1.969
		l-3.828,0.318l-7.97-9.557L219.208,193.848z"/>
</g>
<g id="LWPOLYLINE_179_">
	<path style="fill:#FFFFFF;" d="M150.677,227.671v7.52c0,2.537,2.058,4.594,4.595,4.594c2.538,0,4.596-2.057,4.596-4.594v-7.52
		c0-2.537-2.058-4.592-4.596-4.592C152.735,223.079,150.677,225.134,150.677,227.671z"/>
</g>
<g id="LWPOLYLINE_181_">
	<path style="fill:#FFFFFF;" d="M147.076,233.259v1.842c0,2.535-2.057,4.592-4.595,4.592s-4.595-2.057-4.595-4.592h2.511
		c0,1.15,0.934,2.088,2.084,2.088c1.155,0,2.09-0.938,2.09-2.088v-1.842c0-1.148-0.935-2.086-2.09-2.086
		c-0.653,0-1.274,0.311-1.669,0.834l-2.926-0.666l0.837-8.354h6.685l0.167,2.506h-4.584l-0.356,3.561
		c0.583-0.254,1.215-0.387,1.847-0.387C145.019,228.667,147.076,230.724,147.076,233.259z"/>
</g>
<g id="LWPOLYLINE_182_">
	<path style="fill:#FFFFFF;" d="M169.376,227.888c0.615-0.33,1.285-0.551,1.971-0.664h0.702c0.804,0,1.576,0.305,2.165,0.852
		c0.967-0.559,2.063-0.852,3.18-0.852h0.503c1.749,0,3.175,1.42,3.175,3.174v9.355h-2.511v-8.854c0-0.922-0.745-1.674-1.669-1.674
		c-0.923,0-1.668,0.752-1.668,1.674v8.854h-2.511v-8.854c0-0.922-0.745-1.674-1.669-1.674c-0.923,0-1.668,0.752-1.668,1.674v8.854
		h-2.506v-12.529h2.506V227.888z"/>
</g>
<g id="LWPOLYLINE_183_">
	<path style="fill:#FFFFFF;" d="M257.06,227.671v7.52c0,2.537,2.057,4.594,4.595,4.594c2.532,0,4.59-2.057,4.59-4.594v-7.52
		c0-2.537-2.058-4.592-4.59-4.592C259.117,223.079,257.06,225.134,257.06,227.671z"/>
</g>
<g id="LWPOLYLINE_185_">
	<path style="fill:#FFFFFF;" d="M253.458,233.259v1.842c0,2.535-2.058,4.592-4.595,4.592c-2.538,0-4.596-2.057-4.596-4.592h2.506
		c0,1.15,0.939,2.088,2.09,2.088c1.155,0,2.089-0.938,2.089-2.088v-1.842c0-1.148-0.934-2.086-2.089-2.086
		c-0.659,0-1.274,0.311-1.669,0.834l-2.927-0.666l0.837-8.354h6.685l0.168,2.506h-4.584l-0.356,3.561
		c0.583-0.254,1.209-0.387,1.847-0.387C251.401,228.667,253.458,230.724,253.458,233.259z"/>
</g>
<g id="LWPOLYLINE_186_">
	<path style="fill:#FFFFFF;" d="M275.758,227.888c0.616-0.33,1.28-0.551,1.972-0.664h0.701c0.805,0,1.577,0.305,2.166,0.852
		c0.966-0.559,2.063-0.852,3.18-0.852h0.502c1.75,0,3.17,1.42,3.17,3.174v9.355h-2.505v-8.854c0-0.922-0.745-1.674-1.669-1.674
		c-0.923,0-1.674,0.752-1.674,1.674v8.854h-2.506v-8.854c0-0.922-0.745-1.674-1.668-1.674c-0.924,0-1.669,0.752-1.669,1.674v8.854
		h-2.511v-12.529h2.511V227.888z"/>
</g>
<g id="LWPOLYLINE_187_">
	<path style="fill:#FFFFFF;" d="M128.701,227.206l1.836-0.334v12.861h2.506v-16.705h-2.506h-0.026
		c-0.33,1.061-1.075,1.943-2.063,2.455L128.701,227.206z"/>
</g>
<g id="LWPOLYLINE_188_">
	<polygon style="fill:#FFFFFF;" points="181.072,197.979 135.094,197.979 143.448,189.625 136.552,189.625 125.418,200.765 
		136.552,211.901 143.448,211.901 135.094,203.548 181.072,203.548 	"/>
</g>
<g id="LWPOLYLINE_189_">
	<polygon style="fill:#FFFFFF;" points="244.101,197.979 290.079,197.979 281.725,189.625 288.615,189.625 299.754,200.765 
		288.615,211.901 281.725,211.901 290.079,203.548 244.101,203.548 	"/>
</g>
<g id="LWPOLYLINE_180_">
	<path style="fill:#009775;" d="M157.357,227.671c0-1.15-0.935-2.086-2.085-2.086c-1.155,0-2.089,0.936-2.089,2.086v7.52
		c0,1.152,0.934,2.09,2.089,2.09c1.15,0,2.085-0.938,2.085-2.09V227.671z"/>
</g>
<g id="LWPOLYLINE_184_">
	<path style="fill:#009775;" d="M263.74,227.671c0-1.15-0.935-2.086-2.085-2.086c-1.155,0-2.09,0.936-2.09,2.086v7.52
		c0,1.152,0.935,2.09,2.09,2.09c1.15,0,2.085-0.938,2.085-2.09V227.671z"/>
</g>
</svg>
