<?xml version="1.0" encoding="iso-8859-1"?>
<!-- Generator: Adobe Illustrator 16.0.0, SVG Export Plug-In . SVG Version: 6.00 Build 0)  -->
<!DOCTYPE svg PUBLIC "-//W3C//DTD SVG 1.1//EN" "http://www.w3.org/Graphics/SVG/1.1/DTD/svg11.dtd">
<svg version="1.1" id="Layer_1" xmlns="http://www.w3.org/2000/svg" xmlns:xlink="http://www.w3.org/1999/xlink" x="0px" y="0px"
	 width="425.197px" height="425.196px" viewBox="0 0 425.197 425.196" style="enable-background:new 0 0 425.197 425.196;"
	 xml:space="preserve">
<g id="LWPOLYLINE_98_">
	<rect x="14.173" y="76.183" style="fill:#8A8D8F;" width="396.851" height="272.831"/>
</g>
<g id="LWPOLYLINE_102_">
	<path style="fill:#101820;" d="M396.142,349.014H29.055c-8.221,0-14.882-6.661-14.882-14.882V91.064
		c0-8.221,6.661-14.882,14.882-14.882h367.087c8.214,0,14.882,6.661,14.882,14.882v243.067
		C411.024,342.353,404.356,349.014,396.142,349.014z"/>
</g>
<g id="LWPOLYLINE_101_">
	<path style="fill:#8A8D8F;" d="M396.142,341.572H29.055c-4.11,0-7.44-3.33-7.44-7.44V91.064c0-4.11,3.33-7.441,7.44-7.441h367.087
		c4.104,0,7.44,3.331,7.44,7.441v243.067C403.583,338.242,400.246,341.572,396.142,341.572z"/>
</g>
<g id="LWPOLYLINE_100_">
	<polygon style="fill:#FFCD00;" points="162.656,301.94 162.656,341.572 111.493,341.572 111.493,173.479 21.615,173.479 
		21.615,121.687 111.267,121.687 111.267,83.624 163.689,83.624 163.689,121.687 266.036,121.687 266.036,83.624 317.288,83.624 
		317.288,121.687 403.583,121.542 403.583,173.479 317.288,173.479 317.288,251.112 403.583,251.078 403.583,301.94 	"/>
</g>
<g id="LWPOLYLINE_103_">
	<path style="fill:#101820;" d="M132.113,341.572v-51.392c0-10.96,8.884-19.844,19.84-19.844h125.839
		c5.479,0,9.924-4.438,9.924-9.92v-97.953c0-5.478-4.445-9.923-9.924-9.923H82.967l14.882,14.881H84.992l-19.847-19.84
		l19.847-19.844h12.857l-14.882,14.882h194.824c10.963,0,19.848,8.884,19.848,19.844v97.953c0,10.959-8.885,19.843-19.848,19.843
		H151.953c-5.478,0-9.916,4.442-9.916,9.921v51.392H132.113z"/>
</g>
<g id="LWPOLYLINE_99_">
	<rect x="163.689" y="173.479" style="fill:#8A8D8F;" width="102.347" height="77.634"/>
</g>
</svg>
