<?xml version="1.0" encoding="iso-8859-1"?>
<!-- Generator: Adobe Illustrator 16.0.0, SVG Export Plug-In . SVG Version: 6.00 Build 0)  -->
<!DOCTYPE svg PUBLIC "-//W3C//DTD SVG 1.1//EN" "http://www.w3.org/Graphics/SVG/1.1/DTD/svg11.dtd">
<svg version="1.1" id="Layer_1" xmlns="http://www.w3.org/2000/svg" xmlns:xlink="http://www.w3.org/1999/xlink" x="0px" y="0px"
	 width="425.197px" height="425.196px" viewBox="0 0 425.197 425.196" style="enable-background:new 0 0 425.197 425.196;"
	 xml:space="preserve">
<g id="LWPOLYLINE_1_">
	
		<rect x="14.173" y="14.173" style="fill:#005EB8;stroke:#005EB8;stroke-width:0.5;stroke-miterlimit:10;" width="396.85" height="396.851"/>
</g>
<g id="LWPOLYLINE_3_">
	<path style="fill:#FFFFFF;" d="M34.009,411.023h357.168c10.957,0,19.846-8.884,19.846-19.841V34.015
		c0-10.957-8.889-19.842-19.846-19.842H34.009c-10.957,0-19.836,8.885-19.836,19.842v357.168
		C14.173,402.14,23.052,411.023,34.009,411.023z"/>
</g>
<g id="LWPOLYLINE_4_">
	<path style="fill:#005EB8;" d="M34.009,401.101h357.168c5.483,0,9.918-4.439,9.918-9.918V34.015c0-5.479-4.435-9.918-9.918-9.918
		H34.009c-5.474,0-9.918,4.439-9.918,9.918v357.168C24.091,396.661,28.536,401.101,34.009,401.101z"/>
</g>
<g id="LWPOLYLINE_84_">
	<polygon style="fill:#FFFFFF;" points="103.428,384.544 103.448,99.412 133.212,129.177 133.212,103.453 93.529,63.77 
		53.846,103.453 53.846,129.177 83.611,99.412 83.591,384.544 	"/>
</g>
<g id="LWPOLYLINE_5_">
	<path style="fill:#FFFFFF;" d="M321.739,99.412l-29.765,29.765v-25.724l39.683-39.684l39.692,39.684v25.724l-29.764-29.765v40.136
		c0,26.437-10.217,51.853-28.505,70.939l-71.911,75.022c-11.938,11.943-18.653,28.144-18.653,45.037v53.997h-19.847V99.412
		l-29.764,29.765v-25.724l39.692-39.684l39.683,39.684v25.724l-29.765-29.765V276.5c1.424-1.679,2.915-3.299,4.464-4.857
		l71.776-74.889c14.747-15.393,22.982-35.888,22.982-57.206V99.412z"/>
</g>
</svg>
