<?xml version="1.0" encoding="iso-8859-1"?>
<!-- Generator: Adobe Illustrator 16.0.0, SVG Export Plug-In . SVG Version: 6.00 Build 0)  -->
<!DOCTYPE svg PUBLIC "-//W3C//DTD SVG 1.1//EN" "http://www.w3.org/Graphics/SVG/1.1/DTD/svg11.dtd">
<svg version="1.1" id="Layer_1" xmlns="http://www.w3.org/2000/svg" xmlns:xlink="http://www.w3.org/1999/xlink" x="0px" y="0px"
	 width="425.197px" height="425.196px" viewBox="0 0 425.197 425.196" style="enable-background:new 0 0 425.197 425.196;"
	 xml:space="preserve">
<g id="LWPOLYLINE_1_">
	
		<rect x="63.776" y="14.174" style="fill:#005EB8;stroke:#005EB8;stroke-width:0.5;stroke-miterlimit:10;" width="297.645" height="396.849"/>
</g>
<g id="LWPOLYLINE_87_">
	<path style="fill:#FFFFFF;" d="M83.623,14.174h257.951c10.957,0,19.847,8.884,19.847,19.841v357.169
		c0,10.959-8.89,19.838-19.847,19.838H83.623c-10.958,0-19.847-8.879-19.847-19.838V34.015
		C63.776,23.058,72.665,14.174,83.623,14.174z"/>
</g>
<g id="LWPOLYLINE_3_">
	<path style="fill:#005EB8;" d="M83.623,24.095h257.951c5.483,0,9.928,4.442,9.928,9.92v357.169c0,5.475-4.444,9.92-9.928,9.92
		H83.623c-5.483,0-9.919-4.445-9.919-9.92V34.015C73.704,28.537,78.139,24.095,83.623,24.095z"/>
</g>
<g id="LWPOLYLINE_5_">
	<path style="fill:#FFFFFF;" d="M303.402,180.187l-37.941,37.931c-14.883,14.883-23.242,35.078-23.242,56.127v110.332h-19.847
		V274.245c0-26.314,10.457-51.547,29.063-70.157l37.932-37.937h-42.088l18.183-18.187h56.123v56.124l-18.182,18.187V180.187z"/>
</g>
<g id="LWPOLYLINE_4_">
	<polygon style="fill:#FFFFFF;" points="102.612,212.597 219.216,96.002 219.216,138.089 237.399,119.903 237.399,63.78 
		181.275,63.78 163.093,81.966 205.181,81.966 88.586,198.571 	"/>
</g>
</svg>
