<?xml version="1.0" encoding="iso-8859-1"?>
<!-- Generator: Adobe Illustrator 16.0.0, SVG Export Plug-In . SVG Version: 6.00 Build 0)  -->
<!DOCTYPE svg PUBLIC "-//W3C//DTD SVG 1.1//EN" "http://www.w3.org/Graphics/SVG/1.1/DTD/svg11.dtd">
<svg version="1.1" id="Layer_1" xmlns="http://www.w3.org/2000/svg" xmlns:xlink="http://www.w3.org/1999/xlink" x="0px" y="0px"
	 width="425.197px" height="425.196px" viewBox="0 0 425.197 425.196" style="enable-background:new 0 0 425.197 425.196;"
	 xml:space="preserve">
<g id="LWPOLYLINE_243_">
	
		<rect x="14.173" y="106.326" style="fill:#005EB8;stroke:#005EB8;stroke-width:0.5;stroke-miterlimit:10;" width="396.85" height="212.544"/>
</g>
<g id="LWPOLYLINE_245_">
	<path style="fill:#FFFFFF;" d="M21.233,106.326H403.96c3.9,0,7.063,3.162,7.063,7.06v198.428c0,3.895-3.162,7.057-7.063,7.057
		H21.233c-3.898,0-7.06-3.162-7.06-7.057V113.386C14.173,109.488,17.335,106.326,21.233,106.326z"/>
</g>
<g id="LWPOLYLINE_244_">
	<path style="fill:#005EB8;" d="M21.233,109.857H403.96c1.951,0,3.531,1.577,3.531,3.528v198.428c0,1.947-1.58,3.524-3.531,3.524
		H21.233c-1.951,0-3.528-1.577-3.528-3.524V113.386C17.705,111.435,19.282,109.857,21.233,109.857z"/>
</g>
<g id="LWPOLYLINE_246_">
	<path style="fill:#FFFFFF;" d="M224.056,206.058L212.6,230.636l-11.465-24.578c-1.93-4.144-6.091-6.793-10.663-6.793H38.096
		c-0.007,0-0.014,0-0.027,0c-3.442,0.004-6.242-2.792-6.249-6.242v-62.796c0.014-3.471,2.82-6.263,6.276-6.253h349.007
		c3.471-0.003,6.27,2.796,6.27,6.253v62.796c0,0.011,0,0.018,0,0.027c-0.014,3.45-2.82,6.232-6.27,6.215H234.72
		C230.148,199.265,225.994,201.914,224.056,206.058z"/>
</g>
<g id="LWPOLYLINE_308_">
	<path style="fill:#005EB8;" d="M45.939,181.227h29.8c2.601,0,4.709-2.108,4.709-4.705v-29.804c0-2.598-2.108-4.706-4.709-4.706
		h-29.8c-2.601,0-4.709,2.108-4.709,4.706v29.804C41.23,179.118,43.339,181.227,45.939,181.227z"/>
</g>
<g id="LWPOLYLINE_265_">
	<rect x="368.398" y="133.385" style="fill:#101820;" width="3.523" height="23.527"/>
</g>
<g id="LWPOLYLINE_266_">
	<polygon style="fill:#101820;" points="351.218,156.912 362.984,156.912 362.984,153.384 354.75,153.384 354.75,133.385 
		351.218,133.385 	"/>
</g>
<g id="LWPOLYLINE_267_">
	<polygon style="fill:#101820;" points="334.32,152.915 341.451,152.915 342.593,156.912 346.119,156.912 339.884,133.385 
		335.886,133.385 329.652,156.912 333.183,156.912 	"/>
</g>
<g id="LWPOLYLINE_269_">
	<polygon style="fill:#101820;" points="315.498,152.915 322.628,152.915 323.765,156.912 327.296,156.912 321.062,133.385 
		317.064,133.385 310.83,156.912 314.355,156.912 	"/>
</g>
<g id="LWPOLYLINE_271_">
	<polygon style="fill:#101820;" points="302.199,149.268 293.964,133.385 290.433,133.385 290.433,156.912 293.964,156.912 
		293.964,141.033 302.199,156.912 305.73,156.912 305.73,133.385 302.199,133.385 	"/>
</g>
<g id="LWPOLYLINE_272_">
	<rect x="279.064" y="133.385" style="fill:#101820;" width="3.525" height="23.527"/>
</g>
<g id="LWPOLYLINE_273_">
	<polygon style="fill:#101820;" points="267.771,156.912 271.296,156.912 271.296,133.385 267.066,133.385 264.472,140.353 
		261.886,147.084 259.298,140.353 256.71,133.385 252.474,133.385 252.474,156.912 256.005,156.912 256.005,141.622 
		261.886,156.912 267.771,141.622 	"/>
</g>
<g id="LWPOLYLINE_275_">
	<path style="fill:#101820;" d="M232.085,133.385v23.527h3.531v-10.903h2.67l4.141,10.903h3.777l-4.141-10.883
		c2.635-0.862,4.34-3.415,4.121-6.173c0.26-3.306-2.211-6.194-5.51-6.454c-0.158-0.014-0.314-0.018-0.473-0.018H232.085z"/>
</g>
<g id="LWPOLYLINE_276_">
	<polygon style="fill:#101820;" points="214.085,133.385 227.027,133.385 227.027,136.913 217.617,136.913 217.617,142.796 
		223.968,142.796 223.968,146.324 217.617,146.324 217.617,153.384 227.027,153.384 227.027,156.912 214.085,156.912 	"/>
</g>
<g id="LWPOLYLINE_277_">
	<polygon style="fill:#101820;" points="200.389,136.913 200.389,156.912 203.921,156.912 203.921,136.913 209.8,136.913 
		209.8,133.385 194.503,133.385 194.503,136.913 	"/>
</g>
<g id="LWPOLYLINE_278_">
	<polygon style="fill:#101820;" points="181.088,152.915 188.22,152.915 189.355,156.912 192.888,156.912 186.652,133.385 
		182.655,133.385 176.42,156.912 179.945,156.912 	"/>
</g>
<g id="LWPOLYLINE_280_">
	<path style="fill:#101820;" d="M169.22,150.663c-0.589,1.636-2.136,2.721-3.874,2.721c-2.272,0-4.113-1.845-4.113-4.116h-3.532
		c0,4.223,3.422,7.645,7.645,7.645h0.944c3.703,0,6.701-3.001,6.701-6.704c0-2.851-1.8-5.39-4.49-6.331l-4.873-1.704
		c-1.081-0.38-1.807-1.403-1.807-2.553c0-1.495,1.211-2.707,2.703-2.707h1.649c1.492,0,2.704,1.212,2.704,2.707h3.531
		c0-3.446-2.792-6.235-6.235-6.235h-1.649c-3.442,0-6.235,2.789-6.235,6.235c0,2.648,1.677,5.01,4.175,5.883l4.873,1.704
		c0.712,0.253,1.313,0.749,1.697,1.403C169.397,149.236,169.466,149.985,169.22,150.663z"/>
</g>
<g id="LWPOLYLINE_281_">
	<polygon style="fill:#101820;" points="136.524,156.912 140.056,156.912 140.056,141.033 148.29,156.912 151.821,156.912 
		151.821,133.385 148.29,133.385 148.29,149.268 140.056,133.385 136.524,133.385 	"/>
</g>
<g id="LWPOLYLINE_282_">
	<polygon style="fill:#101820;" points="127.9,156.912 131.425,156.912 125.19,133.385 121.193,133.385 114.958,156.912 
		118.482,156.912 119.625,152.915 126.757,152.915 	"/>
</g>
<g id="LWPOLYLINE_284_">
	<polygon style="fill:#101820;" points="106.327,133.385 106.327,142.796 98.093,142.796 98.093,133.385 94.562,133.385 
		94.562,156.912 98.093,156.912 98.093,146.324 106.327,146.324 106.327,156.912 109.859,156.912 109.859,133.385 	"/>
</g>
<g id="POLYLINE_1_">
	<polyline style="fill:#101820;" points="94.562,189.854 98.093,189.854 98.093,179.266 106.327,179.266 106.327,189.854 
		109.859,189.854 109.859,166.323 106.327,166.323 106.327,175.734 98.093,175.734 98.093,166.323 94.562,166.323 94.562,189.854 
		94.726,189.854 94.562,189.854 	"/>
</g>
<g id="LWPOLYLINE_247_">
	<polygon style="fill:#101820;" points="380.437,182.209 372.195,166.323 368.671,166.323 368.671,189.854 372.195,189.854 
		372.195,173.972 380.437,189.854 383.96,189.854 383.96,166.323 380.437,166.323 	"/>
</g>
<g id="LWPOLYLINE_248_">
	<polygon style="fill:#101820;" points="349.65,166.323 362.593,166.323 362.593,169.854 353.181,169.854 353.181,175.734 
		359.533,175.734 359.533,179.266 353.181,179.266 353.181,186.322 362.593,186.322 362.593,189.854 349.65,189.854 	"/>
</g>
<g id="LWPOLYLINE_249_">
	<polygon style="fill:#101820;" points="332.396,189.854 344.162,189.854 344.162,186.322 335.927,186.322 335.927,166.323 
		332.396,166.323 	"/>
</g>
<g id="LWPOLYLINE_250_">
	<polygon style="fill:#101820;" points="315.498,185.854 322.628,185.854 323.765,189.854 327.296,189.854 321.062,166.323 
		317.064,166.323 310.83,189.854 314.355,189.854 	"/>
</g>
<g id="LWPOLYLINE_252_">
	<polygon style="fill:#101820;" points="302.199,182.209 293.964,166.323 290.433,166.323 290.433,189.854 293.964,189.854 
		293.964,173.972 302.199,189.854 305.73,189.854 305.73,166.323 302.199,166.323 	"/>
</g>
<g id="LWPOLYLINE_253_">
	<rect x="279.064" y="166.323" style="fill:#101820;" width="3.525" height="23.53"/>
</g>
<g id="LWPOLYLINE_254_">
	<polygon style="fill:#101820;" points="267.771,189.854 271.296,189.854 271.296,166.323 267.066,166.323 264.472,173.291 
		261.886,180.021 259.298,173.291 256.71,166.323 252.474,166.323 252.474,189.854 256.005,189.854 256.005,174.561 
		261.886,189.854 267.771,174.561 	"/>
</g>
<g id="LWPOLYLINE_256_">
	<path style="fill:#101820;" d="M232.085,166.323v23.53h3.531v-10.902h2.67l4.141,10.902h3.777l-4.141-10.886
		c2.635-0.858,4.34-3.412,4.121-6.174c0.26-3.302-2.211-6.19-5.51-6.45c-0.158-0.014-0.314-0.021-0.473-0.021H232.085z"/>
</g>
<g id="LWPOLYLINE_257_">
	<polygon style="fill:#101820;" points="214.085,166.323 227.027,166.323 227.027,169.854 217.617,169.854 217.617,175.734 
		223.968,175.734 223.968,179.266 217.617,179.266 217.617,186.322 227.027,186.322 227.027,189.854 214.085,189.854 	"/>
</g>
<g id="LWPOLYLINE_258_">
	<polygon style="fill:#101820;" points="200.389,169.854 200.389,189.854 203.921,189.854 203.921,169.854 209.8,169.854 
		209.8,166.323 194.503,166.323 194.503,169.854 	"/>
</g>
<g id="LWPOLYLINE_259_">
	<polygon style="fill:#101820;" points="181.088,185.854 188.22,185.854 189.355,189.854 192.888,189.854 186.652,166.323 
		182.655,166.323 176.42,189.854 179.945,189.854 	"/>
</g>
<g id="LWPOLYLINE_261_">
	<path style="fill:#101820;" d="M169.22,183.605c-0.589,1.632-2.136,2.717-3.874,2.717c-2.272,0-4.113-1.841-4.113-4.113h-3.532
		c0,4.223,3.422,7.645,7.645,7.645h0.944c3.703,0,6.701-3.004,6.701-6.707c0-2.848-1.8-5.387-4.49-6.328l-4.873-1.704
		c-1.081-0.38-1.807-1.406-1.807-2.556c0-1.492,1.211-2.704,2.703-2.704h1.649c1.492,0,2.704,1.212,2.704,2.704h3.531
		c0-3.443-2.792-6.235-6.235-6.235h-1.649c-3.442,0-6.235,2.792-6.235,6.235c0,2.651,1.677,5.01,4.175,5.886l4.873,1.704
		c0.712,0.254,1.313,0.75,1.697,1.403C169.397,182.175,169.466,182.928,169.22,183.605z"/>
</g>
<g id="LWPOLYLINE_262_">
	<polygon style="fill:#101820;" points="136.524,189.854 140.056,189.854 140.056,173.972 148.29,189.854 151.821,189.854 
		151.821,166.323 148.29,166.323 148.29,182.209 140.056,166.323 136.524,166.323 	"/>
</g>
<g id="LWPOLYLINE_263_">
	<polygon style="fill:#101820;" points="127.9,189.854 131.425,189.854 125.19,166.323 121.193,166.323 114.958,189.854 
		118.482,189.854 119.625,185.854 126.757,185.854 	"/>
</g>
<g id="LWPOLYLINE_309_">
	<path style="fill:#FFFFFF;" d="M118.277,292.595h29.8c2.601,0,4.709-2.105,4.709-4.702v-29.808c0-2.598-2.108-4.702-4.709-4.702
		h-29.8c-2.601,0-4.709,2.104-4.709,4.702v29.808C113.568,290.489,115.677,292.595,118.277,292.595z"/>
</g>
<g id="LWPOLYLINE_310_">
	<path style="fill:#005EB8;" d="M118.277,290.243h29.8c1.3,0,2.354-1.054,2.354-2.351v-29.808c0-1.297-1.054-2.351-2.354-2.351
		h-29.8c-1.3,0-2.354,1.054-2.354,2.351v29.808C115.923,289.189,116.977,290.243,118.277,290.243z"/>
</g>
<g id="CIRCLE_6_">
	<path style="fill:#FFFFFF;" d="M298.031,274.437c0-0.996-0.809-1.808-1.807-1.808c-1,0-1.807,0.812-1.807,1.808
		c0,0.999,0.807,1.807,1.807,1.807C297.222,276.243,298.031,275.436,298.031,274.437L298.031,274.437z"/>
</g>
<g id="CIRCLE_7_">
	<path style="fill:#FFFFFF;" d="M291.296,274.437c0-0.996-0.814-1.808-1.809-1.808c-0.998,0-1.807,0.812-1.807,1.808
		c0,0.999,0.809,1.807,1.807,1.807C290.482,276.243,291.296,275.436,291.296,274.437L291.296,274.437z"/>
</g>
<g id="LWPOLYLINE_296_">
	<rect x="308.099" y="244.752" style="fill:#FFFFFF;" width="3.531" height="23.531"/>
</g>
<g id="LWPOLYLINE_297_">
	<polygon style="fill:#FFFFFF;" points="271.201,264.283 278.332,264.283 279.468,268.283 283,268.283 276.765,244.752 
		272.767,244.752 266.533,268.283 270.058,268.283 	"/>
</g>
<g id="LWPOLYLINE_299_">
	<polygon style="fill:#FFFFFF;" points="252.378,264.283 259.511,264.283 260.646,268.283 264.179,268.283 257.943,244.752 
		253.939,244.752 247.705,268.283 251.236,268.283 	"/>
</g>
<g id="LWPOLYLINE_301_">
	<path style="fill:#FFFFFF;" d="M240.873,262.034c-0.588,1.633-2.135,2.718-3.873,2.718c-2.273,0-4.113-1.842-4.113-4.114h-3.531
		c0,4.224,3.422,7.646,7.645,7.646h0.945c3.701,0,6.707-3.005,6.707-6.707c0-2.848-1.807-5.387-4.498-6.328l-4.873-1.704
		c-1.08-0.38-1.807-1.406-1.807-2.557c0-1.492,1.211-2.703,2.703-2.703h1.65c1.492,0,2.703,1.211,2.703,2.703h3.531
		c0-3.442-2.791-6.235-6.234-6.235h-1.65c-3.441,0-6.234,2.793-6.234,6.235c0,2.652,1.678,5.011,4.176,5.887l4.873,1.704
		c0.711,0.253,1.314,0.749,1.697,1.403C241.05,260.604,241.121,261.356,240.873,262.034z"/>
</g>
<g id="LWPOLYLINE_303_">
	<path style="fill:#FFFFFF;" d="M298.517,268.283h3.777l-4.135-10.886c2.629-0.859,4.334-3.412,4.113-6.174
		c0.262-3.303-2.203-6.19-5.508-6.451c-0.158-0.014-0.316-0.021-0.473-0.021h-8.117v23.531h3.531V257.38h2.67L298.517,268.283z"/>
</g>
<g id="LWPOLYLINE_304_">
	<path style="fill:#FFFFFF;" d="M210.06,252.401v8.236c0,4.224,3.423,7.646,7.645,7.646c4.223,0,7.652-3.422,7.652-7.646v-8.236
		c0-4.224-3.43-7.649-7.652-7.649C213.482,244.752,210.06,248.178,210.06,252.401z"/>
</g>
<g id="LWPOLYLINE_306_">
	<path style="fill:#FFFFFF;" d="M188.665,260.638c0,4.224,3.422,7.646,7.645,7.646s7.652-3.422,7.652-7.646v-15.886h-3.532v15.886
		c0,2.272-1.841,4.114-4.12,4.114c-2.272,0-4.113-1.842-4.113-4.114v-15.886h-3.531V260.638z"/>
</g>
<g id="LWPOLYLINE_307_">
	<polygon style="fill:#FFFFFF;" points="179.712,244.752 175.134,261.391 170.562,244.752 166.899,244.752 173.374,268.283 
		176.899,268.283 183.374,244.752 	"/>
</g>
<g id="LWPOLYLINE_285_">
	<path style="fill:#FFFFFF;" d="M285.205,285.339v8.237c0,4.224,3.422,7.648,7.645,7.648s7.652-3.425,7.652-7.648v-8.237
		c0-4.223-3.43-7.645-7.652-7.645S285.205,281.116,285.205,285.339z"/>
</g>
<g id="LWPOLYLINE_287_">
	<path style="fill:#FFFFFF;" d="M266.156,294.729c0,3.573,2.896,6.468,6.469,6.468s6.467-2.895,6.467-6.468v-17.06h-3.523v17.06
		c0,1.622-1.322,2.94-2.943,2.94c-1.623,0-2.943-1.318-2.943-2.94H266.156z"/>
</g>
<g id="LWPOLYLINE_288_">
	<path style="fill:#FFFFFF;" d="M260.263,294.977c-0.588,1.629-2.135,2.717-3.873,2.717c-2.273,0-4.121-1.841-4.121-4.117h-3.525
		c0,4.224,3.422,7.648,7.646,7.648h0.943c3.703,0,6.701-3.004,6.701-6.707c0-2.851-1.801-5.387-4.49-6.331l-4.873-1.704
		c-1.082-0.377-1.814-1.403-1.814-2.553c0-1.492,1.213-2.704,2.711-2.704h1.643c1.5,0,2.711,1.212,2.711,2.704h3.525
		c0-3.443-2.787-6.235-6.236-6.235h-1.643c-3.443,0-6.234,2.792-6.234,6.235c0,2.648,1.676,5.01,4.174,5.886l4.873,1.704
		c0.713,0.25,1.314,0.746,1.697,1.403C260.441,293.546,260.509,294.299,260.263,294.977z"/>
</g>
<g id="LWPOLYLINE_290_">
	<path style="fill:#FFFFFF;" d="M244.98,284.751c0-3.895-3.162-7.057-7.063-7.057h-8.234v9.411v3.531v10.588h8.234
		c3.9,0,7.063-3.162,7.063-7.06V284.751z"/>
</g>
<g id="LWPOLYLINE_292_">
	<path style="fill:#FFFFFF;" d="M209.684,277.694v23.53h3.531v-10.902h2.669l4.141,10.902h3.779l-4.135-10.886
		c2.629-0.858,4.332-3.412,4.113-6.173c0.26-3.303-2.203-6.191-5.51-6.451c-0.156-0.014-0.314-0.021-0.473-0.021H209.684z"/>
</g>
<g id="LWPOLYLINE_293_">
	<path style="fill:#FFFFFF;" d="M188.274,285.339v8.237c0,4.224,3.422,7.648,7.646,7.648c4.223,0,7.645-3.425,7.645-7.648v-8.237
		c0-4.223-3.422-7.645-7.645-7.645C191.696,277.694,188.274,281.116,188.274,285.339z"/>
</g>
<g id="LWPOLYLINE_295_">
	<polygon style="fill:#FFFFFF;" points="178.624,293.576 170.391,277.694 166.865,277.694 166.865,301.225 170.391,301.225 
		170.391,285.339 178.624,301.225 182.155,301.225 182.155,277.694 178.624,277.694 	"/>
</g>
<g id="LWPOLYLINE_286_">
	<path style="fill:#005EB8;" d="M296.97,285.339c0-2.271-1.842-4.113-4.121-4.113c-2.271,0-4.113,1.842-4.113,4.113v8.237
		c0,2.276,1.842,4.117,4.113,4.117c2.279,0,4.121-1.841,4.121-4.117V285.339z"/>
</g>
<g id="LWPOLYLINE_289_">
	<path style="fill:#005EB8;" d="M241.449,284.751c0-1.947-1.582-3.525-3.531-3.525h-4.703v5.88v3.531v7.057h4.703
		c1.949,0,3.531-1.581,3.531-3.528V284.751z"/>
</g>
<g id="LWPOLYLINE_291_">
	<path style="fill:#005EB8;" d="M217.8,287.105h-4.585v-5.88h4.585c1.369,0,2.471,1.103,2.471,2.468v0.941
		C220.271,286,219.169,287.105,217.8,287.105z"/>
</g>
<g id="LWPOLYLINE_294_">
	<path style="fill:#005EB8;" d="M200.04,285.339c0-2.271-1.848-4.113-4.12-4.113s-4.114,1.842-4.114,4.113v8.237
		c0,2.276,1.842,4.117,4.114,4.117s4.12-1.841,4.12-4.117V285.339z"/>
</g>
<g id="LWPOLYLINE_298_">
	<polygon style="fill:#005EB8;" points="274.767,251.771 272.207,260.755 277.326,260.755 	"/>
</g>
<g id="LWPOLYLINE_300_">
	<polygon style="fill:#005EB8;" points="255.945,251.771 253.384,260.755 258.503,260.755 	"/>
</g>
<g id="LWPOLYLINE_302_">
	<path style="fill:#005EB8;" d="M296.292,254.163h-4.586v-5.879h4.586c1.369,0,2.471,1.105,2.471,2.471v0.938
		C298.763,253.062,297.662,254.163,296.292,254.163z"/>
</g>
<g id="LWPOLYLINE_305_">
	<path style="fill:#005EB8;" d="M221.826,252.401c0-2.276-1.842-4.117-4.121-4.117c-2.271,0-4.113,1.841-4.113,4.117v8.236
		c0,2.272,1.841,4.114,4.113,4.114c2.279,0,4.121-1.842,4.121-4.114V252.401z"/>
</g>
<g id="LWPOLYLINE_251_">
	<polygon style="fill:#FFFFFF;" points="319.064,173.342 316.503,182.325 321.623,182.325 	"/>
</g>
<g id="LWPOLYLINE_255_">
	<path style="fill:#FFFFFF;" d="M240.203,175.734h-4.586v-5.88h4.586c1.361,0,2.471,1.105,2.471,2.471v0.938
		C242.673,174.632,241.564,175.734,240.203,175.734z"/>
</g>
<g id="LWPOLYLINE_260_">
	<polygon style="fill:#FFFFFF;" points="184.653,173.342 182.094,182.325 187.214,182.325 	"/>
</g>
<g id="LWPOLYLINE_264_">
	<polygon style="fill:#FFFFFF;" points="123.191,173.342 120.632,182.325 125.751,182.325 	"/>
</g>
<g id="LWPOLYLINE_268_">
	<polygon style="fill:#FFFFFF;" points="337.884,140.403 335.326,149.384 340.445,149.384 	"/>
</g>
<g id="LWPOLYLINE_270_">
	<polygon style="fill:#FFFFFF;" points="319.064,140.403 316.503,149.384 321.623,149.384 	"/>
</g>
<g id="LWPOLYLINE_274_">
	<path style="fill:#FFFFFF;" d="M240.203,142.796h-4.586v-5.883h4.586c1.361,0,2.471,1.108,2.471,2.471v0.941
		C242.673,141.69,241.564,142.796,240.203,142.796z"/>
</g>
<g id="LWPOLYLINE_279_">
	<polygon style="fill:#FFFFFF;" points="184.653,140.403 182.094,149.384 187.214,149.384 	"/>
</g>
<g id="LWPOLYLINE_283_">
	<polygon style="fill:#FFFFFF;" points="123.191,140.403 120.632,149.384 125.751,149.384 	"/>
</g>
<g id="LWPOLYLINE_311_">
	<path style="fill:#FFFFFF;" d="M122.815,283.067l-3.642-5.599h7.228l2.293,1.684h11.163l0.883-1.684h5.879v4.482
		c-2.04,1.492-4.818,1.492-6.865,0c-2.04,1.492-4.818,1.492-6.865,0c-2.04,1.492-4.818,1.492-6.865,0
		C125.094,282.636,123.972,283.026,122.815,283.067z"/>
</g>
<g id="LWPOLYLINE_312_">
	<polygon style="fill:#FFFFFF;" points="126.401,274.669 121.638,274.669 128.537,260.686 135.819,264.327 135.819,264.889 
		130.269,262.671 	"/>
</g>
<g id="LWPOLYLINE_313_">
	<rect x="133.02" y="269.357" style="fill:#FFFFFF;" width="5.044" height="2.8"/>
</g>
<g id="LWPOLYLINE_314_">
	<rect x="135.258" y="265.436" style="fill:none;" width="0.561" height="3.361"/>
</g>
<g id="LWPOLYLINE_315_">
	<polygon style="fill:#FFFFFF;" points="145.504,276.35 141.329,276.35 142.794,273.547 145.504,273.547 	"/>
</g>
<g id="LWPOLYLINE_316_">
	<path style="fill:#FFFFFF;" d="M119.174,284.196v-1.119c2.04,1.489,4.805,1.489,6.845,0c2.053,1.489,4.825,1.489,6.872-0.003
		c2.046,1.492,4.825,1.492,6.865,0c2.046,1.492,4.825,1.492,6.865,0v1.119c-2.04,1.495-4.818,1.495-6.865,0
		c-2.04,1.495-4.818,1.495-6.865,0c-2.04,1.495-4.818,1.495-6.865,0C123.985,285.685,121.213,285.688,119.174,284.196z"/>
</g>
<g id="LWPOLYLINE_317_">
	<path style="fill:#FFFFFF;" d="M50.094,166.651l-3.278-5.03h5.031l0.568-1.123h2.259l0.65-1.122h-2.334l1.081-2.114h2.485
		l2.669-4.606h0.575l-0.376,1.143h0.938v0.78h-1.191l-0.903,2.684l0.958,0.995h7.001l1.615-2.782h2.286v2.782H71.4l0.609,1.119
		H57.602l-0.37,1.122h15.379l0.603,1.123h1.067v3.915c-2.04,1.492-4.818,1.492-6.858,0c-2.046,1.492-4.825,1.492-6.865,0
		c-2.046,1.492-4.825,1.492-6.865,0C52.647,166.296,51.381,166.689,50.094,166.651z"/>
</g>
<g id="LWPOLYLINE_318_">
	<path style="fill:#FFFFFF;" d="M74.282,167.774v-1.119c-2.04,1.495-4.818,1.495-6.858,0c-2.046,1.495-4.825,1.495-6.865,0
		c-2.046,1.495-4.825,1.495-6.865,0c-2.047,1.495-4.818,1.495-6.858,0l-0.007,1.119c2.04,1.495,4.818,1.495,6.865,0
		c2.04,1.495,4.818,1.495,6.865,0c2.04,1.495,4.818,1.495,6.865,0C69.463,169.27,72.242,169.27,74.282,167.774z"/>
</g>
</svg>
