<?xml version="1.0" encoding="UTF-8" standalone="no"?>
<!-- Generator: Adobe Illustrator 16.0.0, SVG Export Plug-In . SVG Version: 6.00 Build 0)  -->

<svg
   xmlns:dc="http://purl.org/dc/elements/1.1/"
   xmlns:cc="http://creativecommons.org/ns#"
   xmlns:rdf="http://www.w3.org/1999/02/22-rdf-syntax-ns#"
   xmlns:svg="http://www.w3.org/2000/svg"
   xmlns="http://www.w3.org/2000/svg"
   xmlns:sodipodi="http://sodipodi.sourceforge.net/DTD/sodipodi-0.dtd"
   xmlns:inkscape="http://www.inkscape.org/namespaces/inkscape"
   version="1.1"
   id="Layer_1"
   x="0px"
   y="0px"
   width="397.35001"
   height="213.04401"
   viewBox="0 0 397.35001 213.044"
   xml:space="preserve"
   sodipodi:docname="F9.svg"
   inkscape:version="0.92.5 (2060ec1f9f, 2020-04-08)"><metadata
   id="metadata5684"><rdf:RDF><cc:Work
       rdf:about=""><dc:format>image/svg+xml</dc:format><dc:type
         rdf:resource="http://purl.org/dc/dcmitype/StillImage" /></cc:Work></rdf:RDF></metadata><defs
   id="defs5682" /><sodipodi:namedview
   pagecolor="#ffffff"
   bordercolor="#666666"
   borderopacity="1"
   objecttolerance="10"
   gridtolerance="10"
   guidetolerance="10"
   inkscape:pageopacity="0"
   inkscape:pageshadow="2"
   inkscape:window-width="640"
   inkscape:window-height="480"
   id="namedview5680"
   showgrid="false"
   inkscape:zoom="0.55503813"
   inkscape:cx="198.6755"
   inkscape:cy="106.522"
   inkscape:window-x="0"
   inkscape:window-y="0"
   inkscape:window-maximized="0"
   inkscape:current-layer="Layer_1" />
<g
   id="LWPOLYLINE_243_"
   transform="translate(-13.923,-106.076)">
	
		<rect
   x="14.173"
   y="106.326"
   style="fill:#005eb8;stroke:#005eb8;stroke-width:0.5;stroke-miterlimit:10"
   width="396.85001"
   height="212.54401"
   id="rect5442" />
</g>
<g
   id="LWPOLYLINE_245_"
   transform="translate(-13.923,-106.076)">
	<path
   style="fill:#ffffff"
   d="M 21.233,106.326 H 403.96 c 3.9,0 7.063,3.162 7.063,7.06 v 198.428 c 0,3.895 -3.162,7.057 -7.063,7.057 H 21.233 c -3.898,0 -7.06,-3.162 -7.06,-7.057 V 113.386 c 0,-3.898 3.162,-7.06 7.06,-7.06 z"
   id="path5445"
   inkscape:connector-curvature="0" />
</g>
<g
   id="LWPOLYLINE_244_"
   transform="translate(-13.923,-106.076)">
	<path
   style="fill:#005eb8"
   d="M 21.233,109.857 H 403.96 c 1.951,0 3.531,1.577 3.531,3.528 v 198.428 c 0,1.947 -1.58,3.524 -3.531,3.524 H 21.233 c -1.951,0 -3.528,-1.577 -3.528,-3.524 V 113.386 c 0,-1.951 1.577,-3.529 3.528,-3.529 z"
   id="path5448"
   inkscape:connector-curvature="0" />
</g>
<g
   id="LWPOLYLINE_246_"
   transform="translate(-13.923,-106.076)">
	<path
   style="fill:#ffffff"
   d="M 224.056,206.058 212.6,230.636 201.135,206.058 c -1.93,-4.144 -6.091,-6.793 -10.663,-6.793 H 38.096 c -0.007,0 -0.014,0 -0.027,0 -3.442,0.004 -6.242,-2.792 -6.249,-6.242 v -62.796 c 0.014,-3.471 2.82,-6.263 6.276,-6.253 h 349.007 c 3.471,-0.003 6.27,2.796 6.27,6.253 v 62.796 c 0,0.011 0,0.018 0,0.027 -0.014,3.45 -2.82,6.232 -6.27,6.215 H 234.72 c -4.572,0 -8.726,2.649 -10.664,6.793 z"
   id="path5451"
   inkscape:connector-curvature="0" />
</g>
<g
   id="LWPOLYLINE_308_"
   transform="translate(-13.923,-106.076)">
	<path
   style="fill:#005eb8"
   d="m 45.939,181.227 h 29.8 c 2.601,0 4.709,-2.108 4.709,-4.705 v -29.804 c 0,-2.598 -2.108,-4.706 -4.709,-4.706 h -29.8 c -2.601,0 -4.709,2.108 -4.709,4.706 v 29.804 c 0,2.596 2.109,4.705 4.709,4.705 z"
   id="path5454"
   inkscape:connector-curvature="0" />
</g>
<g
   id="LWPOLYLINE_265_"
   transform="translate(-13.923,-106.076)">
	<rect
   x="368.39801"
   y="133.38499"
   style="fill:#101820"
   width="3.523"
   height="23.527"
   id="rect5457" />
</g>
<g
   id="LWPOLYLINE_266_"
   transform="translate(-13.923,-106.076)">
	<polygon
   style="fill:#101820"
   points="362.984,153.384 354.75,153.384 354.75,133.385 351.218,133.385 351.218,156.912 362.984,156.912 "
   id="polygon5460" />
</g>
<g
   id="LWPOLYLINE_267_"
   transform="translate(-13.923,-106.076)">
	<polygon
   style="fill:#101820"
   points="342.593,156.912 346.119,156.912 339.884,133.385 335.886,133.385 329.652,156.912 333.183,156.912 334.32,152.915 341.451,152.915 "
   id="polygon5463" />
</g>
<g
   id="LWPOLYLINE_269_"
   transform="translate(-13.923,-106.076)">
	<polygon
   style="fill:#101820"
   points="323.765,156.912 327.296,156.912 321.062,133.385 317.064,133.385 310.83,156.912 314.355,156.912 315.498,152.915 322.628,152.915 "
   id="polygon5466" />
</g>
<g
   id="LWPOLYLINE_271_"
   transform="translate(-13.923,-106.076)">
	<polygon
   style="fill:#101820"
   points="290.433,133.385 290.433,156.912 293.964,156.912 293.964,141.033 302.199,156.912 305.73,156.912 305.73,133.385 302.199,133.385 302.199,149.268 293.964,133.385 "
   id="polygon5469" />
</g>
<g
   id="LWPOLYLINE_272_"
   transform="translate(-13.923,-106.076)">
	<rect
   x="279.064"
   y="133.38499"
   style="fill:#101820"
   width="3.5250001"
   height="23.527"
   id="rect5472" />
</g>
<g
   id="LWPOLYLINE_273_"
   transform="translate(-13.923,-106.076)">
	<polygon
   style="fill:#101820"
   points="271.296,133.385 267.066,133.385 264.472,140.353 261.886,147.084 259.298,140.353 256.71,133.385 252.474,133.385 252.474,156.912 256.005,156.912 256.005,141.622 261.886,156.912 267.771,141.622 267.771,156.912 271.296,156.912 "
   id="polygon5475" />
</g>
<g
   id="LWPOLYLINE_275_"
   transform="translate(-13.923,-106.076)">
	<path
   style="fill:#101820"
   d="m 232.085,133.385 v 23.527 h 3.531 v -10.903 h 2.67 l 4.141,10.903 h 3.777 l -4.141,-10.883 c 2.635,-0.862 4.34,-3.415 4.121,-6.173 0.26,-3.306 -2.211,-6.194 -5.51,-6.454 -0.158,-0.014 -0.314,-0.018 -0.473,-0.018 h -8.116 z"
   id="path5478"
   inkscape:connector-curvature="0" />
</g>
<g
   id="LWPOLYLINE_276_"
   transform="translate(-13.923,-106.076)">
	<polygon
   style="fill:#101820"
   points="227.027,136.913 217.617,136.913 217.617,142.796 223.968,142.796 223.968,146.324 217.617,146.324 217.617,153.384 227.027,153.384 227.027,156.912 214.085,156.912 214.085,133.385 227.027,133.385 "
   id="polygon5481" />
</g>
<g
   id="LWPOLYLINE_277_"
   transform="translate(-13.923,-106.076)">
	<polygon
   style="fill:#101820"
   points="203.921,156.912 203.921,136.913 209.8,136.913 209.8,133.385 194.503,133.385 194.503,136.913 200.389,136.913 200.389,156.912 "
   id="polygon5484" />
</g>
<g
   id="LWPOLYLINE_278_"
   transform="translate(-13.923,-106.076)">
	<polygon
   style="fill:#101820"
   points="189.355,156.912 192.888,156.912 186.652,133.385 182.655,133.385 176.42,156.912 179.945,156.912 181.088,152.915 188.22,152.915 "
   id="polygon5487" />
</g>
<g
   id="LWPOLYLINE_280_"
   transform="translate(-13.923,-106.076)">
	<path
   style="fill:#101820"
   d="m 169.22,150.663 c -0.589,1.636 -2.136,2.721 -3.874,2.721 -2.272,0 -4.113,-1.845 -4.113,-4.116 h -3.532 c 0,4.223 3.422,7.645 7.645,7.645 h 0.944 c 3.703,0 6.701,-3.001 6.701,-6.704 0,-2.851 -1.8,-5.39 -4.49,-6.331 l -4.873,-1.704 c -1.081,-0.38 -1.807,-1.403 -1.807,-2.553 0,-1.495 1.211,-2.707 2.703,-2.707 h 1.649 c 1.492,0 2.704,1.212 2.704,2.707 h 3.531 c 0,-3.446 -2.792,-6.235 -6.235,-6.235 h -1.649 c -3.442,0 -6.235,2.789 -6.235,6.235 0,2.648 1.677,5.01 4.175,5.883 l 4.873,1.704 c 0.712,0.253 1.313,0.749 1.697,1.403 0.363,0.625 0.432,1.374 0.186,2.052 z"
   id="path5490"
   inkscape:connector-curvature="0" />
</g>
<g
   id="LWPOLYLINE_281_"
   transform="translate(-13.923,-106.076)">
	<polygon
   style="fill:#101820"
   points="140.056,141.033 148.29,156.912 151.821,156.912 151.821,133.385 148.29,133.385 148.29,149.268 140.056,133.385 136.524,133.385 136.524,156.912 140.056,156.912 "
   id="polygon5493" />
</g>
<g
   id="LWPOLYLINE_282_"
   transform="translate(-13.923,-106.076)">
	<polygon
   style="fill:#101820"
   points="125.19,133.385 121.193,133.385 114.958,156.912 118.482,156.912 119.625,152.915 126.757,152.915 127.9,156.912 131.425,156.912 "
   id="polygon5496" />
</g>
<g
   id="LWPOLYLINE_284_"
   transform="translate(-13.923,-106.076)">
	<polygon
   style="fill:#101820"
   points="98.093,142.796 98.093,133.385 94.562,133.385 94.562,156.912 98.093,156.912 98.093,146.324 106.327,146.324 106.327,156.912 109.859,156.912 109.859,133.385 106.327,133.385 106.327,142.796 "
   id="polygon5499" />
</g>
<g
   id="POLYLINE_1_"
   transform="translate(-13.923,-106.076)">
	<polyline
   style="fill:#101820"
   points="94.562,189.854 98.093,189.854 98.093,179.266 106.327,179.266 106.327,189.854    109.859,189.854 109.859,166.323 106.327,166.323 106.327,175.734 98.093,175.734 98.093,166.323 94.562,166.323 94.562,189.854    94.726,189.854 94.562,189.854  "
   id="polyline5502" />
</g>
<g
   id="LWPOLYLINE_247_"
   transform="translate(-13.923,-106.076)">
	<polygon
   style="fill:#101820"
   points="368.671,166.323 368.671,189.854 372.195,189.854 372.195,173.972 380.437,189.854 383.96,189.854 383.96,166.323 380.437,166.323 380.437,182.209 372.195,166.323 "
   id="polygon5505" />
</g>
<g
   id="LWPOLYLINE_248_"
   transform="translate(-13.923,-106.076)">
	<polygon
   style="fill:#101820"
   points="362.593,169.854 353.181,169.854 353.181,175.734 359.533,175.734 359.533,179.266 353.181,179.266 353.181,186.322 362.593,186.322 362.593,189.854 349.65,189.854 349.65,166.323 362.593,166.323 "
   id="polygon5508" />
</g>
<g
   id="LWPOLYLINE_249_"
   transform="translate(-13.923,-106.076)">
	<polygon
   style="fill:#101820"
   points="344.162,186.322 335.927,186.322 335.927,166.323 332.396,166.323 332.396,189.854 344.162,189.854 "
   id="polygon5511" />
</g>
<g
   id="LWPOLYLINE_250_"
   transform="translate(-13.923,-106.076)">
	<polygon
   style="fill:#101820"
   points="323.765,189.854 327.296,189.854 321.062,166.323 317.064,166.323 310.83,189.854 314.355,189.854 315.498,185.854 322.628,185.854 "
   id="polygon5514" />
</g>
<g
   id="LWPOLYLINE_252_"
   transform="translate(-13.923,-106.076)">
	<polygon
   style="fill:#101820"
   points="290.433,166.323 290.433,189.854 293.964,189.854 293.964,173.972 302.199,189.854 305.73,189.854 305.73,166.323 302.199,166.323 302.199,182.209 293.964,166.323 "
   id="polygon5517" />
</g>
<g
   id="LWPOLYLINE_253_"
   transform="translate(-13.923,-106.076)">
	<rect
   x="279.064"
   y="166.323"
   style="fill:#101820"
   width="3.5250001"
   height="23.530001"
   id="rect5520" />
</g>
<g
   id="LWPOLYLINE_254_"
   transform="translate(-13.923,-106.076)">
	<polygon
   style="fill:#101820"
   points="271.296,166.323 267.066,166.323 264.472,173.291 261.886,180.021 259.298,173.291 256.71,166.323 252.474,166.323 252.474,189.854 256.005,189.854 256.005,174.561 261.886,189.854 267.771,174.561 267.771,189.854 271.296,189.854 "
   id="polygon5523" />
</g>
<g
   id="LWPOLYLINE_256_"
   transform="translate(-13.923,-106.076)">
	<path
   style="fill:#101820"
   d="m 232.085,166.323 v 23.53 h 3.531 v -10.902 h 2.67 l 4.141,10.902 h 3.777 l -4.141,-10.886 c 2.635,-0.858 4.34,-3.412 4.121,-6.174 0.26,-3.302 -2.211,-6.19 -5.51,-6.45 -0.158,-0.014 -0.314,-0.021 -0.473,-0.021 h -8.116 z"
   id="path5526"
   inkscape:connector-curvature="0" />
</g>
<g
   id="LWPOLYLINE_257_"
   transform="translate(-13.923,-106.076)">
	<polygon
   style="fill:#101820"
   points="227.027,169.854 217.617,169.854 217.617,175.734 223.968,175.734 223.968,179.266 217.617,179.266 217.617,186.322 227.027,186.322 227.027,189.854 214.085,189.854 214.085,166.323 227.027,166.323 "
   id="polygon5529" />
</g>
<g
   id="LWPOLYLINE_258_"
   transform="translate(-13.923,-106.076)">
	<polygon
   style="fill:#101820"
   points="203.921,189.854 203.921,169.854 209.8,169.854 209.8,166.323 194.503,166.323 194.503,169.854 200.389,169.854 200.389,189.854 "
   id="polygon5532" />
</g>
<g
   id="LWPOLYLINE_259_"
   transform="translate(-13.923,-106.076)">
	<polygon
   style="fill:#101820"
   points="189.355,189.854 192.888,189.854 186.652,166.323 182.655,166.323 176.42,189.854 179.945,189.854 181.088,185.854 188.22,185.854 "
   id="polygon5535" />
</g>
<g
   id="LWPOLYLINE_261_"
   transform="translate(-13.923,-106.076)">
	<path
   style="fill:#101820"
   d="m 169.22,183.605 c -0.589,1.632 -2.136,2.717 -3.874,2.717 -2.272,0 -4.113,-1.841 -4.113,-4.113 h -3.532 c 0,4.223 3.422,7.645 7.645,7.645 h 0.944 c 3.703,0 6.701,-3.004 6.701,-6.707 0,-2.848 -1.8,-5.387 -4.49,-6.328 l -4.873,-1.704 c -1.081,-0.38 -1.807,-1.406 -1.807,-2.556 0,-1.492 1.211,-2.704 2.703,-2.704 h 1.649 c 1.492,0 2.704,1.212 2.704,2.704 h 3.531 c 0,-3.443 -2.792,-6.235 -6.235,-6.235 h -1.649 c -3.442,0 -6.235,2.792 -6.235,6.235 0,2.651 1.677,5.01 4.175,5.886 l 4.873,1.704 c 0.712,0.254 1.313,0.75 1.697,1.403 0.363,0.623 0.432,1.376 0.186,2.053 z"
   id="path5538"
   inkscape:connector-curvature="0" />
</g>
<g
   id="LWPOLYLINE_262_"
   transform="translate(-13.923,-106.076)">
	<polygon
   style="fill:#101820"
   points="140.056,173.972 148.29,189.854 151.821,189.854 151.821,166.323 148.29,166.323 148.29,182.209 140.056,166.323 136.524,166.323 136.524,189.854 140.056,189.854 "
   id="polygon5541" />
</g>
<g
   id="LWPOLYLINE_263_"
   transform="translate(-13.923,-106.076)">
	<polygon
   style="fill:#101820"
   points="125.19,166.323 121.193,166.323 114.958,189.854 118.482,189.854 119.625,185.854 126.757,185.854 127.9,189.854 131.425,189.854 "
   id="polygon5544" />
</g>
<g
   id="LWPOLYLINE_309_"
   transform="translate(-13.923,-106.076)">
	<path
   style="fill:#ffffff"
   d="m 118.277,292.595 h 29.8 c 2.601,0 4.709,-2.105 4.709,-4.702 v -29.808 c 0,-2.598 -2.108,-4.702 -4.709,-4.702 h -29.8 c -2.601,0 -4.709,2.104 -4.709,4.702 v 29.808 c 0,2.596 2.109,4.702 4.709,4.702 z"
   id="path5547"
   inkscape:connector-curvature="0" />
</g>
<g
   id="LWPOLYLINE_310_"
   transform="translate(-13.923,-106.076)">
	<path
   style="fill:#005eb8"
   d="m 118.277,290.243 h 29.8 c 1.3,0 2.354,-1.054 2.354,-2.351 v -29.808 c 0,-1.297 -1.054,-2.351 -2.354,-2.351 h -29.8 c -1.3,0 -2.354,1.054 -2.354,2.351 v 29.808 c 0,1.297 1.054,2.351 2.354,2.351 z"
   id="path5550"
   inkscape:connector-curvature="0" />
</g>
<g
   id="CIRCLE_6_"
   transform="translate(-13.923,-106.076)">
	<path
   style="fill:#ffffff"
   d="m 298.031,274.437 c 0,-0.996 -0.809,-1.808 -1.807,-1.808 -1,0 -1.807,0.812 -1.807,1.808 0,0.999 0.807,1.807 1.807,1.807 0.998,-0.001 1.807,-0.808 1.807,-1.807 z"
   id="path5553"
   inkscape:connector-curvature="0" />
</g>
<g
   id="CIRCLE_7_"
   transform="translate(-13.923,-106.076)">
	<path
   style="fill:#ffffff"
   d="m 291.296,274.437 c 0,-0.996 -0.814,-1.808 -1.809,-1.808 -0.998,0 -1.807,0.812 -1.807,1.808 0,0.999 0.809,1.807 1.807,1.807 0.995,-0.001 1.809,-0.808 1.809,-1.807 z"
   id="path5556"
   inkscape:connector-curvature="0" />
</g>
<g
   id="LWPOLYLINE_296_"
   transform="translate(-13.923,-106.076)">
	<rect
   x="308.099"
   y="244.752"
   style="fill:#ffffff"
   width="3.5309999"
   height="23.531"
   id="rect5559" />
</g>
<g
   id="LWPOLYLINE_297_"
   transform="translate(-13.923,-106.076)">
	<polygon
   style="fill:#ffffff"
   points="279.468,268.283 283,268.283 276.765,244.752 272.767,244.752 266.533,268.283 270.058,268.283 271.201,264.283 278.332,264.283 "
   id="polygon5562" />
</g>
<g
   id="LWPOLYLINE_299_"
   transform="translate(-13.923,-106.076)">
	<polygon
   style="fill:#ffffff"
   points="260.646,268.283 264.179,268.283 257.943,244.752 253.939,244.752 247.705,268.283 251.236,268.283 252.378,264.283 259.511,264.283 "
   id="polygon5565" />
</g>
<g
   id="LWPOLYLINE_301_"
   transform="translate(-13.923,-106.076)">
	<path
   style="fill:#ffffff"
   d="m 240.873,262.034 c -0.588,1.633 -2.135,2.718 -3.873,2.718 -2.273,0 -4.113,-1.842 -4.113,-4.114 h -3.531 c 0,4.224 3.422,7.646 7.645,7.646 h 0.945 c 3.701,0 6.707,-3.005 6.707,-6.707 0,-2.848 -1.807,-5.387 -4.498,-6.328 l -4.873,-1.704 c -1.08,-0.38 -1.807,-1.406 -1.807,-2.557 0,-1.492 1.211,-2.703 2.703,-2.703 h 1.65 c 1.492,0 2.703,1.211 2.703,2.703 h 3.531 c 0,-3.442 -2.791,-6.235 -6.234,-6.235 h -1.65 c -3.441,0 -6.234,2.793 -6.234,6.235 0,2.652 1.678,5.011 4.176,5.887 l 4.873,1.704 c 0.711,0.253 1.314,0.749 1.697,1.403 0.36,0.622 0.431,1.374 0.183,2.052 z"
   id="path5568"
   inkscape:connector-curvature="0" />
</g>
<g
   id="LWPOLYLINE_303_"
   transform="translate(-13.923,-106.076)">
	<path
   style="fill:#ffffff"
   d="m 298.517,268.283 h 3.777 l -4.135,-10.886 c 2.629,-0.859 4.334,-3.412 4.113,-6.174 0.262,-3.303 -2.203,-6.19 -5.508,-6.451 -0.158,-0.014 -0.316,-0.021 -0.473,-0.021 h -8.117 v 23.531 h 3.531 V 257.38 h 2.67 z"
   id="path5571"
   inkscape:connector-curvature="0" />
</g>
<g
   id="LWPOLYLINE_304_"
   transform="translate(-13.923,-106.076)">
	<path
   style="fill:#ffffff"
   d="m 210.06,252.401 v 8.236 c 0,4.224 3.423,7.646 7.645,7.646 4.223,0 7.652,-3.422 7.652,-7.646 v -8.236 c 0,-4.224 -3.43,-7.649 -7.652,-7.649 -4.223,0 -7.645,3.426 -7.645,7.649 z"
   id="path5574"
   inkscape:connector-curvature="0" />
</g>
<g
   id="LWPOLYLINE_306_"
   transform="translate(-13.923,-106.076)">
	<path
   style="fill:#ffffff"
   d="m 188.665,260.638 c 0,4.224 3.422,7.646 7.645,7.646 4.223,0 7.652,-3.422 7.652,-7.646 v -15.886 h -3.532 v 15.886 c 0,2.272 -1.841,4.114 -4.12,4.114 -2.272,0 -4.113,-1.842 -4.113,-4.114 v -15.886 h -3.531 v 15.886 z"
   id="path5577"
   inkscape:connector-curvature="0" />
</g>
<g
   id="LWPOLYLINE_307_"
   transform="translate(-13.923,-106.076)">
	<polygon
   style="fill:#ffffff"
   points="170.562,244.752 166.899,244.752 173.374,268.283 176.899,268.283 183.374,244.752 179.712,244.752 175.134,261.391 "
   id="polygon5580" />
</g>
<g
   id="LWPOLYLINE_285_"
   transform="translate(-13.923,-106.076)">
	<path
   style="fill:#ffffff"
   d="m 285.205,285.339 v 8.237 c 0,4.224 3.422,7.648 7.645,7.648 4.223,0 7.652,-3.425 7.652,-7.648 v -8.237 c 0,-4.223 -3.43,-7.645 -7.652,-7.645 -4.222,0 -7.645,3.422 -7.645,7.645 z"
   id="path5583"
   inkscape:connector-curvature="0" />
</g>
<g
   id="LWPOLYLINE_287_"
   transform="translate(-13.923,-106.076)">
	<path
   style="fill:#ffffff"
   d="m 266.156,294.729 c 0,3.573 2.896,6.468 6.469,6.468 3.573,0 6.467,-2.895 6.467,-6.468 v -17.06 h -3.523 v 17.06 c 0,1.622 -1.322,2.94 -2.943,2.94 -1.623,0 -2.943,-1.318 -2.943,-2.94 z"
   id="path5586"
   inkscape:connector-curvature="0" />
</g>
<g
   id="LWPOLYLINE_288_"
   transform="translate(-13.923,-106.076)">
	<path
   style="fill:#ffffff"
   d="m 260.263,294.977 c -0.588,1.629 -2.135,2.717 -3.873,2.717 -2.273,0 -4.121,-1.841 -4.121,-4.117 h -3.525 c 0,4.224 3.422,7.648 7.646,7.648 h 0.943 c 3.703,0 6.701,-3.004 6.701,-6.707 0,-2.851 -1.801,-5.387 -4.49,-6.331 l -4.873,-1.704 c -1.082,-0.377 -1.814,-1.403 -1.814,-2.553 0,-1.492 1.213,-2.704 2.711,-2.704 h 1.643 c 1.5,0 2.711,1.212 2.711,2.704 h 3.525 c 0,-3.443 -2.787,-6.235 -6.236,-6.235 h -1.643 c -3.443,0 -6.234,2.792 -6.234,6.235 0,2.648 1.676,5.01 4.174,5.886 l 4.873,1.704 c 0.713,0.25 1.314,0.746 1.697,1.403 0.363,0.623 0.431,1.376 0.185,2.054 z"
   id="path5589"
   inkscape:connector-curvature="0" />
</g>
<g
   id="LWPOLYLINE_290_"
   transform="translate(-13.923,-106.076)">
	<path
   style="fill:#ffffff"
   d="m 244.98,284.751 c 0,-3.895 -3.162,-7.057 -7.063,-7.057 h -8.234 v 9.411 3.531 10.588 h 8.234 c 3.9,0 7.063,-3.162 7.063,-7.06 z"
   id="path5592"
   inkscape:connector-curvature="0" />
</g>
<g
   id="LWPOLYLINE_292_"
   transform="translate(-13.923,-106.076)">
	<path
   style="fill:#ffffff"
   d="m 209.684,277.694 v 23.53 h 3.531 v -10.902 h 2.669 l 4.141,10.902 h 3.779 l -4.135,-10.886 c 2.629,-0.858 4.332,-3.412 4.113,-6.173 0.26,-3.303 -2.203,-6.191 -5.51,-6.451 -0.156,-0.014 -0.314,-0.021 -0.473,-0.021 h -8.115 z"
   id="path5595"
   inkscape:connector-curvature="0" />
</g>
<g
   id="LWPOLYLINE_293_"
   transform="translate(-13.923,-106.076)">
	<path
   style="fill:#ffffff"
   d="m 188.274,285.339 v 8.237 c 0,4.224 3.422,7.648 7.646,7.648 4.223,0 7.645,-3.425 7.645,-7.648 v -8.237 c 0,-4.223 -3.422,-7.645 -7.645,-7.645 -4.224,0 -7.646,3.422 -7.646,7.645 z"
   id="path5598"
   inkscape:connector-curvature="0" />
</g>
<g
   id="LWPOLYLINE_295_"
   transform="translate(-13.923,-106.076)">
	<polygon
   style="fill:#ffffff"
   points="166.865,277.694 166.865,301.225 170.391,301.225 170.391,285.339 178.624,301.225 182.155,301.225 182.155,277.694 178.624,277.694 178.624,293.576 170.391,277.694 "
   id="polygon5601" />
</g>
<g
   id="LWPOLYLINE_286_"
   transform="translate(-13.923,-106.076)">
	<path
   style="fill:#005eb8"
   d="m 296.97,285.339 c 0,-2.271 -1.842,-4.113 -4.121,-4.113 -2.271,0 -4.113,1.842 -4.113,4.113 v 8.237 c 0,2.276 1.842,4.117 4.113,4.117 2.279,0 4.121,-1.841 4.121,-4.117 z"
   id="path5604"
   inkscape:connector-curvature="0" />
</g>
<g
   id="LWPOLYLINE_289_"
   transform="translate(-13.923,-106.076)">
	<path
   style="fill:#005eb8"
   d="m 241.449,284.751 c 0,-1.947 -1.582,-3.525 -3.531,-3.525 h -4.703 v 5.88 3.531 7.057 h 4.703 c 1.949,0 3.531,-1.581 3.531,-3.528 z"
   id="path5607"
   inkscape:connector-curvature="0" />
</g>
<g
   id="LWPOLYLINE_291_"
   transform="translate(-13.923,-106.076)">
	<path
   style="fill:#005eb8"
   d="m 217.8,287.105 h -4.585 v -5.88 h 4.585 c 1.369,0 2.471,1.103 2.471,2.468 v 0.941 c 0,1.366 -1.102,2.471 -2.471,2.471 z"
   id="path5610"
   inkscape:connector-curvature="0" />
</g>
<g
   id="LWPOLYLINE_294_"
   transform="translate(-13.923,-106.076)">
	<path
   style="fill:#005eb8"
   d="m 200.04,285.339 c 0,-2.271 -1.848,-4.113 -4.12,-4.113 -2.272,0 -4.114,1.842 -4.114,4.113 v 8.237 c 0,2.276 1.842,4.117 4.114,4.117 2.272,0 4.12,-1.841 4.12,-4.117 z"
   id="path5613"
   inkscape:connector-curvature="0" />
</g>
<g
   id="LWPOLYLINE_298_"
   transform="translate(-13.923,-106.076)">
	<polygon
   style="fill:#005eb8"
   points="277.326,260.755 274.767,251.771 272.207,260.755 "
   id="polygon5616" />
</g>
<g
   id="LWPOLYLINE_300_"
   transform="translate(-13.923,-106.076)">
	<polygon
   style="fill:#005eb8"
   points="258.503,260.755 255.945,251.771 253.384,260.755 "
   id="polygon5619" />
</g>
<g
   id="LWPOLYLINE_302_"
   transform="translate(-13.923,-106.076)">
	<path
   style="fill:#005eb8"
   d="m 296.292,254.163 h -4.586 v -5.879 h 4.586 c 1.369,0 2.471,1.105 2.471,2.471 v 0.938 c 0,1.369 -1.101,2.47 -2.471,2.47 z"
   id="path5622"
   inkscape:connector-curvature="0" />
</g>
<g
   id="LWPOLYLINE_305_"
   transform="translate(-13.923,-106.076)">
	<path
   style="fill:#005eb8"
   d="m 221.826,252.401 c 0,-2.276 -1.842,-4.117 -4.121,-4.117 -2.271,0 -4.113,1.841 -4.113,4.117 v 8.236 c 0,2.272 1.841,4.114 4.113,4.114 2.279,0 4.121,-1.842 4.121,-4.114 z"
   id="path5625"
   inkscape:connector-curvature="0" />
</g>
<g
   id="LWPOLYLINE_251_"
   transform="translate(-13.923,-106.076)">
	<polygon
   style="fill:#ffffff"
   points="321.623,182.325 319.064,173.342 316.503,182.325 "
   id="polygon5628" />
</g>
<g
   id="LWPOLYLINE_255_"
   transform="translate(-13.923,-106.076)">
	<path
   style="fill:#ffffff"
   d="m 240.203,175.734 h -4.586 v -5.88 h 4.586 c 1.361,0 2.471,1.105 2.471,2.471 v 0.938 c -0.001,1.369 -1.11,2.471 -2.471,2.471 z"
   id="path5631"
   inkscape:connector-curvature="0" />
</g>
<g
   id="LWPOLYLINE_260_"
   transform="translate(-13.923,-106.076)">
	<polygon
   style="fill:#ffffff"
   points="187.214,182.325 184.653,173.342 182.094,182.325 "
   id="polygon5634" />
</g>
<g
   id="LWPOLYLINE_264_"
   transform="translate(-13.923,-106.076)">
	<polygon
   style="fill:#ffffff"
   points="125.751,182.325 123.191,173.342 120.632,182.325 "
   id="polygon5637" />
</g>
<g
   id="LWPOLYLINE_268_"
   transform="translate(-13.923,-106.076)">
	<polygon
   style="fill:#ffffff"
   points="340.445,149.384 337.884,140.403 335.326,149.384 "
   id="polygon5640" />
</g>
<g
   id="LWPOLYLINE_270_"
   transform="translate(-13.923,-106.076)">
	<polygon
   style="fill:#ffffff"
   points="321.623,149.384 319.064,140.403 316.503,149.384 "
   id="polygon5643" />
</g>
<g
   id="LWPOLYLINE_274_"
   transform="translate(-13.923,-106.076)">
	<path
   style="fill:#ffffff"
   d="m 240.203,142.796 h -4.586 v -5.883 h 4.586 c 1.361,0 2.471,1.108 2.471,2.471 v 0.941 c -0.001,1.365 -1.11,2.471 -2.471,2.471 z"
   id="path5646"
   inkscape:connector-curvature="0" />
</g>
<g
   id="LWPOLYLINE_279_"
   transform="translate(-13.923,-106.076)">
	<polygon
   style="fill:#ffffff"
   points="187.214,149.384 184.653,140.403 182.094,149.384 "
   id="polygon5649" />
</g>
<g
   id="LWPOLYLINE_283_"
   transform="translate(-13.923,-106.076)">
	<polygon
   style="fill:#ffffff"
   points="125.751,149.384 123.191,140.403 120.632,149.384 "
   id="polygon5652" />
</g>
<g
   id="LWPOLYLINE_311_"
   transform="translate(-13.923,-106.076)">
	<path
   style="fill:#ffffff"
   d="m 122.815,283.067 -3.642,-5.599 h 7.228 l 2.293,1.684 h 11.163 l 0.883,-1.684 h 5.879 v 4.482 c -2.04,1.492 -4.818,1.492 -6.865,0 -2.04,1.492 -4.818,1.492 -6.865,0 -2.04,1.492 -4.818,1.492 -6.865,0 -0.93,0.686 -2.052,1.076 -3.209,1.117 z"
   id="path5655"
   inkscape:connector-curvature="0" />
</g>
<g
   id="LWPOLYLINE_312_"
   transform="translate(-13.923,-106.076)">
	<polygon
   style="fill:#ffffff"
   points="128.537,260.686 135.819,264.327 135.819,264.889 130.269,262.671 126.401,274.669 121.638,274.669 "
   id="polygon5658" />
</g>
<g
   id="LWPOLYLINE_313_"
   transform="translate(-13.923,-106.076)">
	<rect
   x="133.02"
   y="269.35699"
   style="fill:#ffffff"
   width="5.0440001"
   height="2.8"
   id="rect5661" />
</g>
<g
   id="LWPOLYLINE_314_"
   transform="translate(-13.923,-106.076)">
	<rect
   x="135.258"
   y="265.436"
   style="fill:none"
   width="0.56099999"
   height="3.3610001"
   id="rect5664" />
</g>
<g
   id="LWPOLYLINE_315_"
   transform="translate(-13.923,-106.076)">
	<polygon
   style="fill:#ffffff"
   points="142.794,273.547 145.504,273.547 145.504,276.35 141.329,276.35 "
   id="polygon5667" />
</g>
<g
   id="LWPOLYLINE_316_"
   transform="translate(-13.923,-106.076)">
	<path
   style="fill:#ffffff"
   d="m 119.174,284.196 v -1.119 c 2.04,1.489 4.805,1.489 6.845,0 2.053,1.489 4.825,1.489 6.872,-0.003 2.046,1.492 4.825,1.492 6.865,0 2.046,1.492 4.825,1.492 6.865,0 v 1.119 c -2.04,1.495 -4.818,1.495 -6.865,0 -2.04,1.495 -4.818,1.495 -6.865,0 -2.04,1.495 -4.818,1.495 -6.865,0 -2.041,1.492 -4.813,1.495 -6.852,0.003 z"
   id="path5670"
   inkscape:connector-curvature="0" />
</g>
<g
   id="LWPOLYLINE_317_"
   transform="translate(-13.923,-106.076)">
	<path
   style="fill:#ffffff"
   d="m 50.094,166.651 -3.278,-5.03 h 5.031 l 0.568,-1.123 h 2.259 l 0.65,-1.122 H 52.99 l 1.081,-2.114 h 2.485 l 2.669,-4.606 H 59.8 l -0.376,1.143 h 0.938 v 0.78 h -1.191 l -0.903,2.684 0.958,0.995 h 7.001 l 1.615,-2.782 h 2.286 v 2.782 H 71.4 l 0.609,1.119 H 57.602 l -0.37,1.122 h 15.379 l 0.603,1.123 h 1.067 v 3.915 c -2.04,1.492 -4.818,1.492 -6.858,0 -2.046,1.492 -4.825,1.492 -6.865,0 -2.046,1.492 -4.825,1.492 -6.865,0 -1.046,0.759 -2.312,1.152 -3.599,1.114 z"
   id="path5673"
   inkscape:connector-curvature="0" />
</g>
<g
   id="LWPOLYLINE_318_"
   transform="translate(-13.923,-106.076)">
	<path
   style="fill:#ffffff"
   d="m 74.282,167.774 v -1.119 c -2.04,1.495 -4.818,1.495 -6.858,0 -2.046,1.495 -4.825,1.495 -6.865,0 -2.046,1.495 -4.825,1.495 -6.865,0 -2.047,1.495 -4.818,1.495 -6.858,0 l -0.007,1.119 c 2.04,1.495 4.818,1.495 6.865,0 2.04,1.495 4.818,1.495 6.865,0 2.04,1.495 4.818,1.495 6.865,0 2.039,1.496 4.818,1.496 6.858,0 z"
   id="path5676"
   inkscape:connector-curvature="0" />
</g>
</svg>