<?xml version="1.0" encoding="UTF-8" standalone="no"?>
<!-- Generator: Adobe Illustrator 16.0.0, SVG Export Plug-In . SVG Version: 6.00 Build 0)  -->

<svg
   xmlns:dc="http://purl.org/dc/elements/1.1/"
   xmlns:cc="http://creativecommons.org/ns#"
   xmlns:rdf="http://www.w3.org/1999/02/22-rdf-syntax-ns#"
   xmlns:svg="http://www.w3.org/2000/svg"
   xmlns="http://www.w3.org/2000/svg"
   xmlns:sodipodi="http://sodipodi.sourceforge.net/DTD/sodipodi-0.dtd"
   xmlns:inkscape="http://www.inkscape.org/namespaces/inkscape"
   version="1.1"
   id="Layer_1"
   x="0px"
   y="0px"
   width="397.35001"
   height="306.216"
   viewBox="0 0 397.35001 306.21599"
   xml:space="preserve"
   sodipodi:docname="G1.svg"
   inkscape:version="0.92.5 (2060ec1f9f, 2020-04-08)"><metadata
   id="metadata55"><rdf:RDF><cc:Work
       rdf:about=""><dc:format>image/svg+xml</dc:format><dc:type
         rdf:resource="http://purl.org/dc/dcmitype/StillImage" /></cc:Work></rdf:RDF></metadata><defs
   id="defs53" /><sodipodi:namedview
   pagecolor="#ffffff"
   bordercolor="#666666"
   borderopacity="1"
   objecttolerance="10"
   gridtolerance="10"
   guidetolerance="10"
   inkscape:pageopacity="0"
   inkscape:pageshadow="2"
   inkscape:window-width="640"
   inkscape:window-height="480"
   id="namedview51"
   showgrid="false"
   inkscape:zoom="0.55503813"
   inkscape:cx="198.6755"
   inkscape:cy="153.108"
   inkscape:window-x="0"
   inkscape:window-y="0"
   inkscape:window-maximized="0"
   inkscape:current-layer="Layer_1" />
<g
   id="LWPOLYLINE_2_"
   transform="translate(-13.923,-59.490002)">
	
		<rect
   x="14.173"
   y="59.740002"
   style="fill:#005eb8;stroke:#005eb8;stroke-width:0.5;stroke-miterlimit:10"
   width="396.85001"
   height="305.716"
   id="rect2" />
</g>
<g
   id="LWPOLYLINE_3_"
   transform="translate(-13.923,-59.490002)">
	<path
   style="fill:#ffffff"
   d="m 31.79,59.74 h 361.588 c 9.748,0 17.645,7.897 17.645,17.646 v 270.425 c 0,9.748 -7.896,17.646 -17.645,17.646 H 31.79 c -9.72,0 -17.617,-7.897 -17.617,-17.646 V 77.386 c 0,-9.748 7.897,-17.646 17.617,-17.646 z"
   id="path5"
   inkscape:connector-curvature="0" />
</g>
<g
   id="LWPOLYLINE_4_"
   transform="translate(-13.923,-59.490002)">
	<path
   style="fill:#005eb8"
   d="m 31.79,68.563 h 361.588 c 4.859,0 8.822,3.949 8.822,8.823 v 270.425 c 0,4.874 -3.963,8.823 -8.822,8.823 H 31.79 c -4.86,0 -8.823,-3.949 -8.823,-8.823 V 77.386 c 0,-4.874 3.963,-8.823 8.823,-8.823 z"
   id="path8"
   inkscape:connector-curvature="0" />
</g>
<g
   id="LWPOLYLINE_83_"
   transform="translate(-13.923,-59.490002)">
	<polygon
   style="fill:#ffffff"
   points="287.824,316.208 272.406,316.208 272.406,278.732 265.781,278.732 265.781,322.832 287.824,322.832 "
   id="polygon11" />
</g>
<g
   id="LWPOLYLINE_10_"
   transform="translate(-13.923,-59.490002)">
	<polygon
   style="fill:#ffffff"
   points="318.833,322.832 325.458,322.832 313.771,278.732 306.279,278.732 294.593,322.832 301.187,322.832 303.328,315.325 316.693,315.325 "
   id="polygon14" />
</g>
<g
   id="LWPOLYLINE_9_"
   transform="translate(-13.923,-59.490002)">
	<polygon
   style="fill:#ffffff"
   points="236.681,316.208 221.234,316.208 221.234,278.732 214.638,278.732 214.638,322.832 236.681,322.832 "
   id="polygon17" />
</g>
<g
   id="LWPOLYLINE_8_"
   transform="translate(-13.923,-59.490002)">
	<polygon
   style="fill:#ffffff"
   points="207.146,316.208 191.698,316.208 191.698,278.732 185.104,278.732 185.104,322.832 207.146,322.832 "
   id="polygon20" />
</g>
<g
   id="LWPOLYLINE_7_"
   transform="translate(-13.923,-59.490002)">
	<rect
   x="244.173"
   y="278.73199"
   style="fill:#ffffff"
   width="6.6230001"
   height="44.099998"
   id="rect23" />
</g>
<g
   id="LWPOLYLINE_6_"
   transform="translate(-13.923,-59.490002)">
	<polygon
   style="fill:#ffffff"
   points="134.828,278.732 126.902,278.732 122.042,291.793 117.183,304.405 112.352,291.793 107.492,278.732 99.566,278.732 99.566,322.832 106.161,322.832 106.161,294.165 117.183,322.832 128.204,294.165 128.204,322.832 134.828,322.832 "
   id="polygon26" />
</g>
<g
   id="LWPOLYLINE_5_"
   transform="translate(-13.923,-59.490002)">
	<polygon
   style="fill:#ffffff"
   points="168.789,322.832 175.384,322.832 163.697,278.732 156.205,278.732 144.519,322.832 151.143,322.832 153.284,315.325 166.648,315.325 "
   id="polygon29" />
</g>
<g
   id="LWPOLYLINE_92_"
   transform="translate(-13.923,-59.490002)">
	<polygon
   style="fill:#ffffff"
   points="80.301,102.364 80.301,234.647 212.584,234.647 344.869,234.647 344.869,102.364 212.584,102.364 344.869,102.364 "
   id="polygon32" />
</g>
<g
   id="LWPOLYLINE_14_"
   transform="translate(-13.923,-59.490002)">
	<path
   style="fill:#101820"
   d="m 205.96,218.767 v -27.886 c 0,-3.774 -0.752,-7.521 -2.228,-11.006 -3.239,-5.597 -8.187,-10.009 -14.087,-12.612 -6.625,-2.806 -13.51,-4.875 -20.597,-6.162 -3.645,-4.772 -8.157,-8.822 -13.277,-11.961 l -0.058,-31.95 c 0,-4.397 -3.558,-7.94 -7.955,-7.926 -4.368,0 -7.926,3.543 -7.926,7.926 v 10.573 H 105.438 V 117.19 c 0,-4.397 -3.559,-7.94 -7.926,-7.94 -4.397,0 -7.955,3.543 -7.955,7.94 v 73.012 -73.012 73.012 c 0,4.383 3.558,7.94 7.955,7.94 4.368,0 7.926,-3.558 7.926,-7.94 v -14.55 l 29.101,24.602 v 18.514 c 0,4.383 3.558,7.94 7.955,7.94 4.368,0 7.926,-3.558 7.926,-7.94 v -18.514 h 39.688 v 18.514 c 0,4.383 3.559,7.94 7.927,7.94 4.396,-0.001 7.925,-3.559 7.925,-7.941 z"
   id="path35"
   inkscape:connector-curvature="0" />
</g>
<g
   id="LWPOLYLINE_13_"
   transform="translate(-13.923,-59.490002)">
	<path
   style="fill:#101820"
   d="m 230.375,206.517 38.154,-35.841 -5.988,-6.451 c -6.363,2.618 -13.652,1.389 -18.803,-3.182 -7.375,-6.798 -12.641,-15.548 -15.244,-25.253 -0.926,-2.864 -0.781,-5.959 0.406,-8.736 2.719,-6.292 10.008,-9.185 16.285,-6.494 8.418,2.676 16.055,7.29 22.361,13.494 5.871,5.25 7.723,13.697 4.541,20.929 l 6.596,6.162 12.9,-12.106 c -2.141,-6.002 -0.52,-12.685 4.107,-17.038 l 15.854,-15.881 c 1.561,-1.562 4.078,-1.548 5.611,0.015 1.533,1.547 1.533,4.064 -0.029,5.611 l -15.822,15.867 c -0.781,0.781 -0.781,2.039 0,2.806 0.781,0.781 2.023,0.767 2.805,0 l 15.91,-15.896 c 1.533,-1.562 4.051,-1.562 5.611,-0.015 1.533,1.548 1.563,4.064 0,5.612 l -15.881,15.896 c -0.781,0.781 -0.781,2.024 0,2.806 0.752,0.767 1.996,0.781 2.777,0.029 l 15.707,-15.896 c 1.533,-1.547 4.051,-1.577 5.613,-0.058 1.561,1.533 1.59,4.035 0.057,5.612 l -15.793,15.953 c -4.311,4.657 -11.021,6.277 -17.01,4.107 l -11.803,12.497 36.246,33.873 c 0.377,0.318 0.752,0.665 1.07,1.027 3.414,3.818 3.066,9.676 -0.752,13.075 -3.818,3.398 -9.662,3.066 -13.076,-0.752 L 279,181.941 244.75,218.187 c -3.211,3.702 -8.736,4.281 -12.641,1.316 -4.049,-3.108 -4.83,-8.908 -1.734,-12.986 z"
   id="path38"
   inkscape:connector-curvature="0" />
</g>
<g
   id="LWPOLYLINE_15_"
   transform="translate(-13.923,-59.490002)">
	<path
   style="fill:#ffffff"
   d="m 120.394,163.921 -14.811,-12.699 c 18.716,-11.932 43.217,-9.112 58.722,6.769 l 2.372,2.661 c -7.492,-1.302 -15.1,-1.895 -22.708,-1.735 -6.624,-0.405 -13.248,0.578 -19.497,2.878 -1.33,0.723 -2.719,1.432 -4.078,2.126 z"
   id="path41"
   inkscape:connector-curvature="0" />
</g>
<g
   id="LWPOLYLINE_12_"
   transform="translate(-13.923,-59.490002)">
	<polygon
   style="fill:#005eb8"
   points="314.812,308.716 310.011,291.88 305.208,308.716 "
   id="polygon44" />
</g>
<g
   id="LWPOLYLINE_11_"
   transform="translate(-13.923,-59.490002)">
	<polygon
   style="fill:#005eb8"
   points="164.768,308.716 159.966,291.88 155.164,308.716 "
   id="polygon47" />
</g>
</svg>