<?xml version="1.0" encoding="UTF-8" standalone="no"?>
<!-- Generator: Adobe Illustrator 16.0.0, SVG Export Plug-In . SVG Version: 6.00 Build 0)  -->

<svg
   xmlns:dc="http://purl.org/dc/elements/1.1/"
   xmlns:cc="http://creativecommons.org/ns#"
   xmlns:rdf="http://www.w3.org/1999/02/22-rdf-syntax-ns#"
   xmlns:svg="http://www.w3.org/2000/svg"
   xmlns="http://www.w3.org/2000/svg"
   xmlns:sodipodi="http://sodipodi.sourceforge.net/DTD/sodipodi-0.dtd"
   xmlns:inkscape="http://www.inkscape.org/namespaces/inkscape"
   version="1.1"
   id="Layer_1"
   x="0px"
   y="0px"
   width="397.345"
   height="326.798"
   viewBox="0 0 397.34501 326.79799"
   xml:space="preserve"
   sodipodi:docname="G11.4.svg"
   inkscape:version="0.92.5 (2060ec1f9f, 2020-04-08)"><metadata
   id="metadata234"><rdf:RDF><cc:Work
       rdf:about=""><dc:format>image/svg+xml</dc:format><dc:type
         rdf:resource="http://purl.org/dc/dcmitype/StillImage" /></cc:Work></rdf:RDF></metadata><defs
   id="defs232" /><sodipodi:namedview
   pagecolor="#ffffff"
   bordercolor="#666666"
   borderopacity="1"
   objecttolerance="10"
   gridtolerance="10"
   guidetolerance="10"
   inkscape:pageopacity="0"
   inkscape:pageshadow="2"
   inkscape:window-width="640"
   inkscape:window-height="480"
   id="namedview230"
   showgrid="false"
   inkscape:zoom="0.55503813"
   inkscape:cx="198.6725"
   inkscape:cy="163.399"
   inkscape:window-x="0"
   inkscape:window-y="0"
   inkscape:window-maximized="0"
   inkscape:current-layer="Layer_1" />
<g
   id="LWPOLYLINE_1_"
   transform="translate(-13.926,-49.199001)">
	
		<rect
   x="14.176"
   y="49.449001"
   style="fill:#005eb8;stroke:#005eb8;stroke-width:0.5;stroke-miterlimit:10"
   width="396.845"
   height="326.298"
   id="rect190" />
</g>
<g
   id="LWPOLYLINE_80_"
   transform="translate(-13.926,-49.199001)">
	<path
   style="fill:#ffffff"
   d="m 40.632,49.449 h 343.934 c 14.609,0 26.455,11.845 26.455,26.457 v 273.387 c 0,14.609 -11.846,26.455 -26.455,26.455 H 40.632 c -14.609,0 -26.457,-11.846 -26.457,-26.455 V 75.905 C 14.176,61.293 26.023,49.449 40.632,49.449 Z"
   id="path193"
   inkscape:connector-curvature="0" />
</g>
<g
   id="LWPOLYLINE_81_"
   transform="translate(-13.926,-49.199001)">
	<path
   style="fill:#005eb8"
   d="m 40.632,62.677 h 343.934 c 7.305,0 13.227,5.923 13.227,13.228 v 273.387 c 0,7.305 -5.922,13.227 -13.227,13.227 H 40.632 c -7.305,0 -13.228,-5.922 -13.228,-13.227 V 75.905 c 0,-7.304 5.924,-13.228 13.228,-13.228 z"
   id="path196"
   inkscape:connector-curvature="0" />
</g>
<g
   id="LWPOLYLINE_79_"
   transform="translate(-13.926,-49.199001)">
	<rect
   x="113.192"
   y="113.494"
   style="fill:#ffffff"
   width="198.422"
   height="198.423"
   id="rect199" />
</g>
<g
   id="LWPOLYLINE_84_"
   transform="translate(-13.926,-49.199001)">
	<path
   style="fill:#101820"
   d="M 267.271,300.454 V 221.23 c 0,-5.172 -4.191,-9.364 -9.365,-9.364 v -3.514 c 0,-5.172 -4.193,-9.367 -9.367,-9.367 H 195.85 l -19.249,72.104 c -2.179,10.373 4.455,20.557 14.833,22.74 10.368,2.184 20.552,-4.449 22.742,-14.828 0.271,-1.283 0.408,-2.596 0.408,-3.914 v -38.57 h 5.934 v 63.938 h 46.753 z"
   id="path202"
   inkscape:connector-curvature="0" />
</g>
<g
   id="LWPOLYLINE_87_"
   transform="translate(-13.926,-49.199001)">
	<path
   style="fill:#005eb8"
   d="m 294.701,281.929 v -79.225 c 0,-5.172 -4.191,-9.365 -9.367,-9.365 v -3.514 c 0,-5.172 -4.191,-9.367 -9.365,-9.367 h -52.68 l -4.951,18.526 h 30.201 c 5.174,0 9.367,4.195 9.367,9.367 v 3.514 c 5.174,0 9.365,4.192 9.365,9.364 v 60.698 h 27.43 z"
   id="path205"
   inkscape:connector-curvature="0" />
</g>
<g
   id="LWPOLYLINE"
   transform="translate(-13.926,-49.199001)">
	<rect
   x="14.176"
   y="49.449001"
   style="fill:none"
   width="396.845"
   height="326.298"
   id="rect208" />
</g>
<g
   id="LWPOLYLINE_85_"
   transform="translate(-13.926,-49.199001)">
	<rect
   x="230.894"
   y="221.317"
   style="fill:#ffffff"
   width="25.726999"
   height="16.34"
   id="rect211" />
</g>
<g
   id="LWPOLYLINE_86_"
   transform="translate(-13.926,-49.199001)">
	<path
   style="fill:#ffffff"
   d="m 205.216,274.337 v -45.994 l 7.11,-7.025 h 8.005 c 0.068,-5.154 4.23,-9.32 9.387,-9.383 v -3.512 l -26.632,0.008 -17.508,65.906 c -0.418,5.424 3.638,10.16 9.065,10.578 5.418,0.418 10.154,-3.643 10.572,-9.064 0.04,-0.506 0.04,-1.012 0.001,-1.514 z"
   id="path214"
   inkscape:connector-curvature="0" />
</g>
<g
   id="LWPOLYLINE_88_"
   transform="translate(-13.926,-49.199001)">
	<path
   style="fill:#ffffff"
   d="m 258.324,202.792 h 25.727 V 219.13 H 267.03 c -0.943,-4.098 -4.504,-7.064 -8.705,-7.254 v -9.084 z"
   id="path217"
   inkscape:connector-curvature="0" />
</g>
<g
   id="LWPOLYLINE_89_"
   transform="translate(-13.926,-49.199001)">
	<path
   style="fill:#ffffff"
   d="m 228.103,198.985 h 20.436 c 1.596,-3.326 4.922,-5.48 8.607,-5.578 v -3.511 l -26.631,0.007 z"
   id="path220"
   inkscape:connector-curvature="0" />
</g>
<g
   id="LWPOLYLINE_82_"
   transform="translate(-13.926,-49.199001)">
	<polygon
   style="fill:#101820"
   points="143.199,142.596 143.199,124.957 136.585,124.957 136.585,169.052 143.199,169.052 143.199,149.21 158.636,149.21 158.636,169.052 165.249,169.052 165.249,124.957 158.636,124.957 158.636,142.596 "
   id="polygon223" />
</g>
<g
   id="LWPOLYLINE_83_"
   transform="translate(-13.926,-49.199001)">
	<path
   style="fill:#101820"
   d="m 175.793,151.257 h 3.959 v -1.318 c 0,-0.426 0.078,-0.849 0.243,-1.245 0.681,-1.685 2.606,-2.493 4.289,-1.804 1.692,0.686 2.5,2.609 1.81,4.294 l -10.301,13.914 v 3.954 h 14.503 v -3.954 h -10.019 l 9.58,-12.695 c 1.362,-3.767 -0.583,-7.92 -4.348,-9.282 -3.773,-1.359 -7.927,0.591 -9.289,4.357 -0.359,1.019 -0.496,2.111 -0.389,3.19 z"
   id="path226"
   inkscape:connector-curvature="0" />
</g>
</svg>