<?xml version="1.0" encoding="iso-8859-1"?>
<!-- Generator: Adobe Illustrator 16.0.0, SVG Export Plug-In . SVG Version: 6.00 Build 0)  -->
<!DOCTYPE svg PUBLIC "-//W3C//DTD SVG 1.1//EN" "http://www.w3.org/Graphics/SVG/1.1/DTD/svg11.dtd">
<svg version="1.1" id="Layer_1" xmlns="http://www.w3.org/2000/svg" xmlns:xlink="http://www.w3.org/1999/xlink" x="0px" y="0px"
	 width="425.197px" height="425.196px" viewBox="0 0 425.197 425.196" style="enable-background:new 0 0 425.197 425.196;"
	 xml:space="preserve">
<g id="LWPOLYLINE_1_">
	
		<rect x="14.176" y="49.449" style="fill:#005EB8;stroke:#005EB8;stroke-width:0.5;stroke-miterlimit:10;" width="396.845" height="326.298"/>
</g>
<g id="LWPOLYLINE_80_">
	<path style="fill:#FFFFFF;" d="M40.632,49.449h343.934c14.609,0,26.455,11.845,26.455,26.457v273.387
		c0,14.609-11.846,26.455-26.455,26.455H40.632c-14.609,0-26.457-11.846-26.457-26.455V75.905
		C14.176,61.293,26.023,49.449,40.632,49.449z"/>
</g>
<g id="LWPOLYLINE_81_">
	<path style="fill:#005EB8;" d="M40.632,62.677h343.934c7.305,0,13.227,5.923,13.227,13.228v273.387
		c0,7.305-5.922,13.227-13.227,13.227H40.632c-7.305,0-13.228-5.922-13.228-13.227V75.905
		C27.404,68.601,33.328,62.677,40.632,62.677z"/>
</g>
<g id="LWPOLYLINE_79_">
	<rect x="113.192" y="113.494" style="fill:#FFFFFF;" width="198.422" height="198.423"/>
</g>
<g id="LWPOLYLINE_84_">
	<path style="fill:#101820;" d="M267.271,300.454V221.23c0-5.172-4.191-9.364-9.365-9.364v-3.514c0-5.172-4.193-9.367-9.367-9.367
		H195.85l-19.249,72.104c-2.179,10.373,4.455,20.557,14.833,22.74c10.368,2.184,20.552-4.449,22.742-14.828
		c0.271-1.283,0.408-2.596,0.408-3.914v-38.57h5.934v63.938H267.271z"/>
</g>
<g id="LWPOLYLINE_87_">
	<path style="fill:#005EB8;" d="M294.701,281.929v-79.225c0-5.172-4.191-9.365-9.367-9.365v-3.514c0-5.172-4.191-9.367-9.365-9.367
		h-52.68l-4.951,18.526h30.201c5.174,0,9.367,4.195,9.367,9.367v3.514c5.174,0,9.365,4.192,9.365,9.364v60.698H294.701z"/>
</g>
<g id="LWPOLYLINE">
	<rect x="14.176" y="49.449" style="fill:none;" width="396.845" height="326.298"/>
</g>
<g id="LWPOLYLINE_85_">
	<rect x="230.894" y="221.317" style="fill:#FFFFFF;" width="25.727" height="16.34"/>
</g>
<g id="LWPOLYLINE_86_">
	<path style="fill:#FFFFFF;" d="M205.216,274.337v-45.994l7.11-7.025h8.005c0.068-5.154,4.23-9.32,9.387-9.383v-3.512l-26.632,0.008
		l-17.508,65.906c-0.418,5.424,3.638,10.16,9.065,10.578c5.418,0.418,10.154-3.643,10.572-9.064
		C205.255,275.345,205.255,274.839,205.216,274.337z"/>
</g>
<g id="LWPOLYLINE_88_">
	<path style="fill:#FFFFFF;" d="M258.324,202.792h25.727v16.338h-17.021c-0.943-4.098-4.504-7.064-8.705-7.254V202.792z"/>
</g>
<g id="LWPOLYLINE_89_">
	<path style="fill:#FFFFFF;" d="M228.103,198.985h20.436c1.596-3.326,4.922-5.48,8.607-5.578v-3.511l-26.631,0.007L228.103,198.985z
		"/>
</g>
<g id="LWPOLYLINE_82_">
	<polygon style="fill:#101820;" points="158.636,124.957 158.636,142.596 143.199,142.596 143.199,124.957 136.585,124.957 
		136.585,169.052 143.199,169.052 143.199,149.21 158.636,149.21 158.636,169.052 165.249,169.052 165.249,124.957 	"/>
</g>
<g id="LWPOLYLINE_83_">
	<path style="fill:#101820;" d="M175.793,151.257h3.959v-1.318c0-0.426,0.078-0.849,0.243-1.245
		c0.681-1.685,2.606-2.493,4.289-1.804c1.692,0.686,2.5,2.609,1.81,4.294l-10.301,13.914v3.954h14.503v-3.954h-10.019l9.58-12.695
		c1.362-3.767-0.583-7.92-4.348-9.282c-3.773-1.359-7.927,0.591-9.289,4.357c-0.359,1.019-0.496,2.111-0.389,3.19L175.793,151.257z"
		/>
</g>
</svg>
