<?xml version="1.0" encoding="iso-8859-1"?>
<!-- Generator: Adobe Illustrator 16.0.0, SVG Export Plug-In . SVG Version: 6.00 Build 0)  -->
<!DOCTYPE svg PUBLIC "-//W3C//DTD SVG 1.1//EN" "http://www.w3.org/Graphics/SVG/1.1/DTD/svg11.dtd">
<svg version="1.1" id="Layer_1" xmlns="http://www.w3.org/2000/svg" xmlns:xlink="http://www.w3.org/1999/xlink" x="0px" y="0px"
	 width="425.197px" height="425.196px" viewBox="0 0 425.197 425.196" style="enable-background:new 0 0 425.197 425.196;"
	 xml:space="preserve">
<g id="LWPOLYLINE_76_">
	
		<rect x="14.175" y="49.449" style="fill:#005EB8;stroke:#005EB8;stroke-width:0.5;stroke-miterlimit:10;" width="396.846" height="326.298"/>
</g>
<g id="LWPOLYLINE_74_">
	<path style="fill:#FFFFFF;" d="M40.632,49.449h343.933c14.609,0,26.456,11.845,26.456,26.457v273.387
		c0,14.609-11.847,26.455-26.456,26.455H40.632c-14.609,0-26.457-11.846-26.457-26.455V75.905
		C14.175,61.293,26.023,49.449,40.632,49.449z"/>
</g>
<g id="LWPOLYLINE_75_">
	<path style="fill:#005EB8;" d="M40.632,62.677h343.933c7.305,0,13.228,5.923,13.228,13.228v273.387
		c0,7.305-5.923,13.227-13.228,13.227H40.632c-7.305,0-13.229-5.922-13.229-13.227V75.905
		C27.404,68.601,33.328,62.677,40.632,62.677z"/>
</g>
<g id="LWPOLYLINE_65_">
	<rect x="113.192" y="117.902" style="fill:#FFFFFF;" width="198.423" height="198.425"/>
</g>
<g id="LWPOLYLINE_66_">
	<path style="fill:#101820;" d="M301.694,292.513v-41.83c0-5.676-1.147-11.293-3.355-16.516
		c-4.873-8.389-12.285-15.014-21.155-18.924c-9.922-4.201-20.271-7.297-30.862-9.23c-5.496-7.156-12.256-13.242-19.95-17.957
		l-0.077-47.93c-0.01-6.575-5.35-11.896-11.925-11.886c-6.565,0.01-11.876,5.325-11.886,11.886v15.874h-51.59v-15.874
		c0-6.575-5.33-11.906-11.905-11.906s-11.906,5.331-11.906,11.906v109.528V140.125v109.528c0,6.576,5.331,11.906,11.906,11.906
		s11.905-5.33,11.905-11.906v-21.826l43.652,36.908v27.777c0,6.574,5.33,11.904,11.905,11.904s11.905-5.33,11.905-11.904v-27.777
		h59.527v27.777c0,6.574,5.33,11.904,11.905,11.904S301.694,299.087,301.694,292.513z"/>
</g>
<g id="LWPOLYLINE_67_">
	<path style="fill:#FFFFFF;" d="M173.312,210.228l-22.225-19.04c28.07-17.904,64.837-13.668,88.094,10.147l3.569,4.005
		c-11.244-1.962-22.653-2.838-34.063-2.616c-9.94-0.596-19.891,0.875-29.238,4.323C177.417,208.134,175.375,209.194,173.312,210.228
		z"/>
</g>
</svg>
