<?xml version="1.0" encoding="UTF-8" standalone="no"?>
<!-- Generator: Adobe Illustrator 16.0.0, SVG Export Plug-In . SVG Version: 6.00 Build 0)  -->

<svg
   xmlns:dc="http://purl.org/dc/elements/1.1/"
   xmlns:cc="http://creativecommons.org/ns#"
   xmlns:rdf="http://www.w3.org/1999/02/22-rdf-syntax-ns#"
   xmlns:svg="http://www.w3.org/2000/svg"
   xmlns="http://www.w3.org/2000/svg"
   xmlns:sodipodi="http://sodipodi.sourceforge.net/DTD/sodipodi-0.dtd"
   xmlns:inkscape="http://www.inkscape.org/namespaces/inkscape"
   version="1.1"
   id="Layer_1"
   x="0px"
   y="0px"
   width="397.34601"
   height="326.798"
   viewBox="0 0 397.34602 326.79799"
   xml:space="preserve"
   sodipodi:docname="G12.svg"
   inkscape:version="0.92.5 (2060ec1f9f, 2020-04-08)"><metadata
   id="metadata259"><rdf:RDF><cc:Work
       rdf:about=""><dc:format>image/svg+xml</dc:format><dc:type
         rdf:resource="http://purl.org/dc/dcmitype/StillImage" /></cc:Work></rdf:RDF></metadata><defs
   id="defs257" /><sodipodi:namedview
   pagecolor="#ffffff"
   bordercolor="#666666"
   borderopacity="1"
   objecttolerance="10"
   gridtolerance="10"
   guidetolerance="10"
   inkscape:pageopacity="0"
   inkscape:pageshadow="2"
   inkscape:window-width="640"
   inkscape:window-height="480"
   id="namedview255"
   showgrid="false"
   inkscape:zoom="0.55503813"
   inkscape:cx="198.6735"
   inkscape:cy="163.399"
   inkscape:window-x="0"
   inkscape:window-y="0"
   inkscape:window-maximized="0"
   inkscape:current-layer="Layer_1" />
<g
   id="LWPOLYLINE_76_"
   transform="translate(-13.925,-49.199001)">
	
		<rect
   x="14.175"
   y="49.449001"
   style="fill:#005eb8;stroke:#005eb8;stroke-width:0.5;stroke-miterlimit:10"
   width="396.84601"
   height="326.298"
   id="rect236" />
</g>
<g
   id="LWPOLYLINE_74_"
   transform="translate(-13.925,-49.199001)">
	<path
   style="fill:#ffffff"
   d="m 40.632,49.449 h 343.933 c 14.609,0 26.456,11.845 26.456,26.457 v 273.387 c 0,14.609 -11.847,26.455 -26.456,26.455 H 40.632 c -14.609,0 -26.457,-11.846 -26.457,-26.455 V 75.905 c 0,-14.612 11.848,-26.456 26.457,-26.456 z"
   id="path239"
   inkscape:connector-curvature="0" />
</g>
<g
   id="LWPOLYLINE_75_"
   transform="translate(-13.925,-49.199001)">
	<path
   style="fill:#005eb8"
   d="m 40.632,62.677 h 343.933 c 7.305,0 13.228,5.923 13.228,13.228 v 273.387 c 0,7.305 -5.923,13.227 -13.228,13.227 H 40.632 c -7.305,0 -13.229,-5.922 -13.229,-13.227 V 75.905 c 0.001,-7.304 5.925,-13.228 13.229,-13.228 z"
   id="path242"
   inkscape:connector-curvature="0" />
</g>
<g
   id="LWPOLYLINE_65_"
   transform="translate(-13.925,-49.199001)">
	<rect
   x="113.192"
   y="117.902"
   style="fill:#ffffff"
   width="198.423"
   height="198.425"
   id="rect245" />
</g>
<g
   id="LWPOLYLINE_66_"
   transform="translate(-13.925,-49.199001)">
	<path
   style="fill:#101820"
   d="m 301.694,292.513 v -41.83 c 0,-5.676 -1.147,-11.293 -3.355,-16.516 -4.873,-8.389 -12.285,-15.014 -21.155,-18.924 -9.922,-4.201 -20.271,-7.297 -30.862,-9.23 -5.496,-7.156 -12.256,-13.242 -19.95,-17.957 l -0.077,-47.93 c -0.01,-6.575 -5.35,-11.896 -11.925,-11.886 -6.565,0.01 -11.876,5.325 -11.886,11.886 V 156 h -51.59 v -15.874 c 0,-6.575 -5.33,-11.906 -11.905,-11.906 -6.575,0 -11.906,5.331 -11.906,11.906 V 249.654 140.125 249.653 c 0,6.576 5.331,11.906 11.906,11.906 6.575,0 11.905,-5.33 11.905,-11.906 v -21.826 l 43.652,36.908 v 27.777 c 0,6.574 5.33,11.904 11.905,11.904 6.575,0 11.905,-5.33 11.905,-11.904 v -27.777 h 59.527 v 27.777 c 0,6.574 5.33,11.904 11.905,11.904 6.575,0 11.906,-5.329 11.906,-11.903 z"
   id="path248"
   inkscape:connector-curvature="0" />
</g>
<g
   id="LWPOLYLINE_67_"
   transform="translate(-13.925,-49.199001)">
	<path
   style="fill:#ffffff"
   d="m 173.312,210.228 -22.225,-19.04 c 28.07,-17.904 64.837,-13.668 88.094,10.147 l 3.569,4.005 c -11.244,-1.962 -22.653,-2.838 -34.063,-2.616 -9.94,-0.596 -19.891,0.875 -29.238,4.323 -2.032,1.087 -4.074,2.147 -6.137,3.181 z"
   id="path251"
   inkscape:connector-curvature="0" />
</g>
</svg>