<?xml version="1.0" encoding="iso-8859-1"?>
<!-- Generator: Adobe Illustrator 16.0.0, SVG Export Plug-In . SVG Version: 6.00 Build 0)  -->
<!DOCTYPE svg PUBLIC "-//W3C//DTD SVG 1.1//EN" "http://www.w3.org/Graphics/SVG/1.1/DTD/svg11.dtd">
<svg version="1.1" id="Layer_1" xmlns="http://www.w3.org/2000/svg" xmlns:xlink="http://www.w3.org/1999/xlink" x="0px" y="0px"
	 width="425.197px" height="425.196px" viewBox="0 0 425.197 425.196" style="enable-background:new 0 0 425.197 425.196;"
	 xml:space="preserve">
<g id="LWPOLYLINE_76_">
	
		<rect x="14.175" y="49.449" style="fill:#005EB8;stroke:#005EB8;stroke-width:0.5;stroke-miterlimit:10;" width="396.846" height="326.298"/>
</g>
<g id="LWPOLYLINE_74_">
	<path style="fill:#FFFFFF;" d="M40.632,49.449h343.933c14.609,0,26.456,11.845,26.456,26.457v273.387
		c0,14.609-11.847,26.455-26.456,26.455H40.632c-14.609,0-26.457-11.846-26.457-26.455V75.905
		C14.175,61.293,26.023,49.449,40.632,49.449z"/>
</g>
<g id="LWPOLYLINE_75_">
	<path style="fill:#005EB8;" d="M40.632,62.677h343.933c7.305,0,13.228,5.923,13.228,13.228v273.387
		c0,7.305-5.923,13.227-13.228,13.227H40.632c-7.305,0-13.229-5.922-13.229-13.227V75.905
		C27.404,68.601,33.328,62.677,40.632,62.677z"/>
</g>
<g id="LWPOLYLINE_65_">
	<rect x="113.192" y="117.902" style="fill:#FFFFFF;" width="198.423" height="198.425"/>
</g>
<g id="LWPOLYLINE_66_">
	<path style="fill:#101820;" d="M298.834,232.907v-2.482V232.907c0,17.816-14.444,32.262-32.264,32.262
		c-17.818,0-32.263-14.445-32.263-32.262v-34.743c0-17.819,14.444-32.263,32.263-32.263c17.819,0,32.264,14.444,32.264,32.263
		h-14.892c0-9.595-7.771-17.372-17.372-17.372c-9.59,0-17.371,7.777-17.371,17.372v34.743c0,9.594,7.781,17.371,17.371,17.371
		c9.601,0,17.372-7.777,17.372-17.371c0-0.832-0.059-1.66-0.175-2.482h15.066V232.907z"/>
</g>
<g id="LWPOLYLINE_67_">
	<polygon style="fill:#101820;" points="220.778,165.937 205.605,165.937 193.378,227.247 181.152,165.937 166.183,165.937 
		153.947,227.228 141.701,165.937 126.528,165.937 146.37,265.149 161.514,265.149 173.672,204.384 185.821,265.149 
		200.936,265.149 	"/>
</g>
</svg>
