<?xml version="1.0" encoding="iso-8859-1"?>
<!-- Generator: Adobe Illustrator 16.0.0, SVG Export Plug-In . SVG Version: 6.00 Build 0)  -->
<!DOCTYPE svg PUBLIC "-//W3C//DTD SVG 1.1//EN" "http://www.w3.org/Graphics/SVG/1.1/DTD/svg11.dtd">
<svg version="1.1" id="Layer_1" xmlns="http://www.w3.org/2000/svg" xmlns:xlink="http://www.w3.org/1999/xlink" x="0px" y="0px"
	 width="425.197px" height="425.196px" viewBox="0 0 425.197 425.196" style="enable-background:new 0 0 425.197 425.196;"
	 xml:space="preserve">
<g id="LWPOLYLINE_77_">
	<rect x="14.175" y="49.449" style="fill:#005EB8;" width="396.846" height="326.298"/>
</g>
<g id="LWPOLYLINE_74_">
	<path style="fill:#FFFFFF;" d="M40.632,49.449h343.933c14.609,0,26.456,11.845,26.456,26.457v273.387
		c0,14.609-11.847,26.455-26.456,26.455H40.632c-14.609,0-26.457-11.846-26.457-26.455V75.905
		C14.175,61.293,26.023,49.449,40.632,49.449z"/>
</g>
<g id="LWPOLYLINE_75_">
	<path style="fill:#005EB8;" d="M40.632,62.677h343.933c7.305,0,13.228,5.923,13.228,13.228v273.387
		c0,7.305-5.923,13.227-13.228,13.227H40.632c-7.305,0-13.229-5.922-13.229-13.227V75.905
		C27.404,68.601,33.328,62.677,40.632,62.677z"/>
</g>
<g id="LWPOLYLINE_65_">
	<rect x="113.192" y="117.902" style="fill:#FFFFFF;" width="198.423" height="198.425"/>
</g>
<g id="LWPOLYLINE_67_">
	<path style="fill:#101820;" d="M156.447,162.115c2.149,20.676,10.737,40.156,24.55,55.687l5.213,5.428
		c-6.438-1.78-12.527-4.63-18.014-8.434l-4.999-3.868c0.681,3.948,1.585,7.856,2.724,11.698
		c3.997,12.252,11.321,23.145,21.165,31.467l3.093,2.473c-7.898-0.104-15.737-1.381-23.266-3.799L162,251.009v23.811h33.731v-75.4
		h-11.905l60.52-65.48l60.519,65.48h-11.905v75.4h9.921v13.889H122.714v-13.889h28.179v-23.811l-5,1.785
		c-7.489,2.4-15.31,3.668-23.179,3.771l5.408-4.518c11.701-10.826,19.317-25.346,21.573-41.12l-3.754,2.985
		c-5.807,4.244-12.333,7.4-19.259,9.316l5.389-5.632C145.787,202.099,154.306,182.699,156.447,162.115z"/>
</g>
<g id="LWPOLYLINE_66_">
	<rect x="231.448" y="235.134" style="fill:#FFFFFF;" width="25.796" height="39.686"/>
</g>
<g id="LWPOLYLINE_76_">
	
		<rect x="14.175" y="49.449" style="fill:none;stroke:#005EB8;stroke-width:0.5;stroke-miterlimit:10;" width="396.846" height="326.298"/>
</g>
</svg>
