<?xml version="1.0" encoding="UTF-8" standalone="no"?>
<!-- Generator: Adobe Illustrator 16.0.0, SVG Export Plug-In . SVG Version: 6.00 Build 0)  -->

<svg
   xmlns:dc="http://purl.org/dc/elements/1.1/"
   xmlns:cc="http://creativecommons.org/ns#"
   xmlns:rdf="http://www.w3.org/1999/02/22-rdf-syntax-ns#"
   xmlns:svg="http://www.w3.org/2000/svg"
   xmlns="http://www.w3.org/2000/svg"
   xmlns:sodipodi="http://sodipodi.sourceforge.net/DTD/sodipodi-0.dtd"
   xmlns:inkscape="http://www.inkscape.org/namespaces/inkscape"
   version="1.1"
   id="Layer_1"
   x="0px"
   y="0px"
   width="397.34601"
   height="326.798"
   viewBox="0 0 397.34602 326.79799"
   xml:space="preserve"
   sodipodi:docname="G16.svg"
   inkscape:version="0.92.5 (2060ec1f9f, 2020-04-08)"><metadata
   id="metadata359"><rdf:RDF><cc:Work
       rdf:about=""><dc:format>image/svg+xml</dc:format><dc:type
         rdf:resource="http://purl.org/dc/dcmitype/StillImage" /></cc:Work></rdf:RDF></metadata><defs
   id="defs357" /><sodipodi:namedview
   pagecolor="#ffffff"
   bordercolor="#666666"
   borderopacity="1"
   objecttolerance="10"
   gridtolerance="10"
   guidetolerance="10"
   inkscape:pageopacity="0"
   inkscape:pageshadow="2"
   inkscape:window-width="640"
   inkscape:window-height="480"
   id="namedview355"
   showgrid="false"
   inkscape:zoom="0.55503813"
   inkscape:cx="198.6735"
   inkscape:cy="163.399"
   inkscape:window-x="0"
   inkscape:window-y="0"
   inkscape:window-maximized="0"
   inkscape:current-layer="Layer_1" />
<g
   id="LWPOLYLINE_77_"
   transform="translate(-13.925,-49.199001)">
	<rect
   x="14.175"
   y="49.449001"
   style="fill:#005eb8"
   width="396.84601"
   height="326.298"
   id="rect333" />
</g>
<g
   id="LWPOLYLINE_74_"
   transform="translate(-13.925,-49.199001)">
	<path
   style="fill:#ffffff"
   d="m 40.632,49.449 h 343.933 c 14.609,0 26.456,11.845 26.456,26.457 v 273.387 c 0,14.609 -11.847,26.455 -26.456,26.455 H 40.632 c -14.609,0 -26.457,-11.846 -26.457,-26.455 V 75.905 c 0,-14.612 11.848,-26.456 26.457,-26.456 z"
   id="path336"
   inkscape:connector-curvature="0" />
</g>
<g
   id="LWPOLYLINE_75_"
   transform="translate(-13.925,-49.199001)">
	<path
   style="fill:#005eb8"
   d="m 40.632,62.677 h 343.933 c 7.305,0 13.228,5.923 13.228,13.228 v 273.387 c 0,7.305 -5.923,13.227 -13.228,13.227 H 40.632 c -7.305,0 -13.229,-5.922 -13.229,-13.227 V 75.905 c 0.001,-7.304 5.925,-13.228 13.229,-13.228 z"
   id="path339"
   inkscape:connector-curvature="0" />
</g>
<g
   id="LWPOLYLINE_65_"
   transform="translate(-13.925,-49.199001)">
	<rect
   x="113.192"
   y="117.902"
   style="fill:#ffffff"
   width="198.423"
   height="198.425"
   id="rect342" />
</g>
<g
   id="LWPOLYLINE_67_"
   transform="translate(-13.925,-49.199001)">
	<path
   style="fill:#101820"
   d="m 156.447,162.115 c 2.149,20.676 10.737,40.156 24.55,55.687 l 5.213,5.428 c -6.438,-1.78 -12.527,-4.63 -18.014,-8.434 l -4.999,-3.868 c 0.681,3.948 1.585,7.856 2.724,11.698 3.997,12.252 11.321,23.145 21.165,31.467 l 3.093,2.473 c -7.898,-0.104 -15.737,-1.381 -23.266,-3.799 L 162,251.009 v 23.811 h 33.731 v -75.4 h -11.905 l 60.52,-65.48 60.519,65.48 H 292.96 v 75.4 h 9.921 v 13.889 H 122.714 V 274.82 h 28.179 v -23.811 l -5,1.785 c -7.489,2.4 -15.31,3.668 -23.179,3.771 l 5.408,-4.518 c 11.701,-10.826 19.317,-25.346 21.573,-41.12 l -3.754,2.985 c -5.807,4.244 -12.333,7.4 -19.259,9.316 l 5.389,-5.632 c 13.716,-15.497 22.235,-34.897 24.376,-55.481 z"
   id="path345"
   inkscape:connector-curvature="0" />
</g>
<g
   id="LWPOLYLINE_66_"
   transform="translate(-13.925,-49.199001)">
	<rect
   x="231.448"
   y="235.134"
   style="fill:#ffffff"
   width="25.796"
   height="39.686001"
   id="rect348" />
</g>
<g
   id="LWPOLYLINE_76_"
   transform="translate(-13.925,-49.199001)">
	
		<rect
   x="14.175"
   y="49.449001"
   style="fill:none;stroke:#005eb8;stroke-width:0.5;stroke-miterlimit:10"
   width="396.84601"
   height="326.298"
   id="rect351" />
</g>
</svg>