<?xml version="1.0" encoding="iso-8859-1"?>
<!-- Generator: Adobe Illustrator 16.0.0, SVG Export Plug-In . SVG Version: 6.00 Build 0)  -->
<!DOCTYPE svg PUBLIC "-//W3C//DTD SVG 1.1//EN" "http://www.w3.org/Graphics/SVG/1.1/DTD/svg11.dtd">
<svg version="1.1" id="Layer_1" xmlns="http://www.w3.org/2000/svg" xmlns:xlink="http://www.w3.org/1999/xlink" x="0px" y="0px"
	 width="425.197px" height="425.196px" viewBox="0 0 425.197 425.196" style="enable-background:new 0 0 425.197 425.196;"
	 xml:space="preserve">
<g id="LWPOLYLINE_80_">
	
		<rect x="14.175" y="49.449" style="fill:#005EB8;stroke:#005EB8;stroke-width:0.5;stroke-miterlimit:10;" width="396.846" height="326.298"/>
</g>
<g id="LWPOLYLINE_78_">
	<path style="fill:#FFFFFF;" d="M40.632,49.449h343.933c14.609,0,26.456,11.845,26.456,26.457v273.387
		c0,14.609-11.847,26.455-26.456,26.455H40.632c-14.609,0-26.457-11.846-26.457-26.455V75.905
		C14.175,61.293,26.023,49.449,40.632,49.449z"/>
</g>
<g id="LWPOLYLINE_79_">
	<path style="fill:#005EB8;" d="M40.632,62.677h343.933c7.305,0,13.228,5.923,13.228,13.228v273.387
		c0,7.305-5.923,13.227-13.228,13.227H40.632c-7.305,0-13.229-5.922-13.229-13.227V75.905
		C27.404,68.601,33.328,62.677,40.632,62.677z"/>
</g>
<g id="LWPOLYLINE_65_">
	<rect x="113.192" y="124.21" style="fill:#FFFFFF;" width="198.423" height="198.426"/>
</g>
<g id="LWPOLYLINE_71_">
	<path style="fill:#101820;" d="M118.97,268.392v-13.137h-5.778v-6.035h17.858c-3.287,0-5.952-2.666-5.952-5.953v-56.969
		c0-6.009,4.415-11.105,10.358-11.959c25.182-5.437,50.86-8.221,76.616-8.313c26.408,0.063,52.738,2.923,78.543,8.528
		c4.795,1.165,8.374,5.165,8.996,10.055v58.659c0,6.574-5.33,11.904-11.905,11.904H234.23c0-10.842-8.705-19.676-19.541-19.842
		c-10.962-0.166-19.978,8.584-20.144,19.541c0,0.1,0,0.199,0,0.301h-69.486v6.303c0.573-0.205,1.177-0.322,1.789-0.348
		c3.288-0.125,6.051,2.436,6.177,5.721c0.01,0.074,0.01,0.152,0.01,0.23c0,3.287-2.665,5.953-5.953,5.953
		c-2.781,0-5.193-1.926-5.807-4.639H118.97z"/>
</g>
<g id="LWPOLYLINE_72_">
	<rect x="120.332" y="273.03" style="fill:#101820;" width="177.851" height="15.873"/>
</g>
<g id="CIRCLE_1_">
	<path style="fill:#101820;" d="M232.246,255.171c0-9.861-7.995-17.857-17.857-17.857c-9.863,0-17.858,7.996-17.858,17.857
		c0,9.863,7.995,17.859,17.858,17.859C224.25,273.03,232.246,265.034,232.246,255.171L232.246,255.171z"/>
</g>
<g id="LWPOLYLINE_73_">
	<path style="fill:#FFFFFF;" d="M153.139,184.124h19.337c1.216,0,2.208,0.985,2.208,2.203v18.176c0,1.219-0.992,2.205-2.208,2.205
		h-19.337c-1.216,0-2.198-0.986-2.198-2.205v-18.176C150.941,185.108,151.923,184.124,153.139,184.124z"/>
</g>
<g id="LWPOLYLINE_74_">
	<path style="fill:#FFFFFF;" d="M216.683,184.077h53.01c1.216,0,2.208,0.987,2.208,2.206v18.226c0,1.215-0.992,2.202-2.208,2.202
		h-53.01c-1.216,0-2.208-0.987-2.208-2.202v-18.226C214.475,185.064,215.467,184.077,216.683,184.077z"/>
</g>
</svg>
