<?xml version="1.0" encoding="UTF-8" standalone="no"?>
<!-- Generator: Adobe Illustrator 16.0.0, SVG Export Plug-In . SVG Version: 6.00 Build 0)  -->

<svg
   xmlns:dc="http://purl.org/dc/elements/1.1/"
   xmlns:cc="http://creativecommons.org/ns#"
   xmlns:rdf="http://www.w3.org/1999/02/22-rdf-syntax-ns#"
   xmlns:svg="http://www.w3.org/2000/svg"
   xmlns="http://www.w3.org/2000/svg"
   xmlns:sodipodi="http://sodipodi.sourceforge.net/DTD/sodipodi-0.dtd"
   xmlns:inkscape="http://www.inkscape.org/namespaces/inkscape"
   version="1.1"
   id="Layer_1"
   x="0px"
   y="0px"
   width="397.34601"
   height="326.798"
   viewBox="0 0 397.34602 326.79799"
   xml:space="preserve"
   sodipodi:docname="G18.svg"
   inkscape:version="0.92.5 (2060ec1f9f, 2020-04-08)"><metadata
   id="metadata418"><rdf:RDF><cc:Work
       rdf:about=""><dc:format>image/svg+xml</dc:format><dc:type
         rdf:resource="http://purl.org/dc/dcmitype/StillImage" /></cc:Work></rdf:RDF></metadata><defs
   id="defs416" /><sodipodi:namedview
   pagecolor="#ffffff"
   bordercolor="#666666"
   borderopacity="1"
   objecttolerance="10"
   gridtolerance="10"
   guidetolerance="10"
   inkscape:pageopacity="0"
   inkscape:pageshadow="2"
   inkscape:window-width="640"
   inkscape:window-height="480"
   id="namedview414"
   showgrid="false"
   inkscape:zoom="0.55503813"
   inkscape:cx="198.6735"
   inkscape:cy="163.399"
   inkscape:window-x="0"
   inkscape:window-y="0"
   inkscape:window-maximized="0"
   inkscape:current-layer="Layer_1" />
<g
   id="LWPOLYLINE_80_"
   transform="translate(-13.925,-49.199001)">
	
		<rect
   x="14.175"
   y="49.449001"
   style="fill:#005eb8;stroke:#005eb8;stroke-width:0.5;stroke-miterlimit:10"
   width="396.84601"
   height="326.298"
   id="rect386" />
</g>
<g
   id="LWPOLYLINE_78_"
   transform="translate(-13.925,-49.199001)">
	<path
   style="fill:#ffffff"
   d="m 40.632,49.449 h 343.933 c 14.609,0 26.456,11.845 26.456,26.457 v 273.387 c 0,14.609 -11.847,26.455 -26.456,26.455 H 40.632 c -14.609,0 -26.457,-11.846 -26.457,-26.455 V 75.905 c 0,-14.612 11.848,-26.456 26.457,-26.456 z"
   id="path389"
   inkscape:connector-curvature="0" />
</g>
<g
   id="LWPOLYLINE_79_"
   transform="translate(-13.925,-49.199001)">
	<path
   style="fill:#005eb8"
   d="m 40.632,62.677 h 343.933 c 7.305,0 13.228,5.923 13.228,13.228 v 273.387 c 0,7.305 -5.923,13.227 -13.228,13.227 H 40.632 c -7.305,0 -13.229,-5.922 -13.229,-13.227 V 75.905 c 0.001,-7.304 5.925,-13.228 13.229,-13.228 z"
   id="path392"
   inkscape:connector-curvature="0" />
</g>
<g
   id="LWPOLYLINE_65_"
   transform="translate(-13.925,-49.199001)">
	<rect
   x="113.192"
   y="124.21"
   style="fill:#ffffff"
   width="198.423"
   height="198.42599"
   id="rect395" />
</g>
<g
   id="LWPOLYLINE_71_"
   transform="translate(-13.925,-49.199001)">
	<path
   style="fill:#101820"
   d="m 118.97,268.392 v -13.137 h -5.778 v -6.035 h 17.858 c -3.287,0 -5.952,-2.666 -5.952,-5.953 v -56.969 c 0,-6.009 4.415,-11.105 10.358,-11.959 25.182,-5.437 50.86,-8.221 76.616,-8.313 26.408,0.063 52.738,2.923 78.543,8.528 4.795,1.165 8.374,5.165 8.996,10.055 v 58.659 c 0,6.574 -5.33,11.904 -11.905,11.904 H 234.23 c 0,-10.842 -8.705,-19.676 -19.541,-19.842 -10.962,-0.166 -19.978,8.584 -20.144,19.541 0,0.1 0,0.199 0,0.301 h -69.486 v 6.303 c 0.573,-0.205 1.177,-0.322 1.789,-0.348 3.288,-0.125 6.051,2.436 6.177,5.721 0.01,0.074 0.01,0.152 0.01,0.23 0,3.287 -2.665,5.953 -5.953,5.953 -2.781,0 -5.193,-1.926 -5.807,-4.639 z"
   id="path398"
   inkscape:connector-curvature="0" />
</g>
<g
   id="LWPOLYLINE_72_"
   transform="translate(-13.925,-49.199001)">
	<rect
   x="120.332"
   y="273.03"
   style="fill:#101820"
   width="177.851"
   height="15.873"
   id="rect401" />
</g>
<g
   id="CIRCLE_1_"
   transform="translate(-13.925,-49.199001)">
	<path
   style="fill:#101820"
   d="m 232.246,255.171 c 0,-9.861 -7.995,-17.857 -17.857,-17.857 -9.863,0 -17.858,7.996 -17.858,17.857 0,9.863 7.995,17.859 17.858,17.859 9.861,0 17.857,-7.996 17.857,-17.859 z"
   id="path404"
   inkscape:connector-curvature="0" />
</g>
<g
   id="LWPOLYLINE_73_"
   transform="translate(-13.925,-49.199001)">
	<path
   style="fill:#ffffff"
   d="m 153.139,184.124 h 19.337 c 1.216,0 2.208,0.985 2.208,2.203 v 18.176 c 0,1.219 -0.992,2.205 -2.208,2.205 h -19.337 c -1.216,0 -2.198,-0.986 -2.198,-2.205 v -18.176 c 0,-1.219 0.982,-2.203 2.198,-2.203 z"
   id="path407"
   inkscape:connector-curvature="0" />
</g>
<g
   id="LWPOLYLINE_74_"
   transform="translate(-13.925,-49.199001)">
	<path
   style="fill:#ffffff"
   d="m 216.683,184.077 h 53.01 c 1.216,0 2.208,0.987 2.208,2.206 v 18.226 c 0,1.215 -0.992,2.202 -2.208,2.202 h -53.01 c -1.216,0 -2.208,-0.987 -2.208,-2.202 v -18.226 c 0,-1.219 0.992,-2.206 2.208,-2.206 z"
   id="path410"
   inkscape:connector-curvature="0" />
</g>
</svg>