<?xml version="1.0" encoding="iso-8859-1"?>
<!-- Generator: Adobe Illustrator 16.0.0, SVG Export Plug-In . SVG Version: 6.00 Build 0)  -->
<!DOCTYPE svg PUBLIC "-//W3C//DTD SVG 1.1//EN" "http://www.w3.org/Graphics/SVG/1.1/DTD/svg11.dtd">
<svg version="1.1" id="Layer_1" xmlns="http://www.w3.org/2000/svg" xmlns:xlink="http://www.w3.org/1999/xlink" x="0px" y="0px"
	 width="425.197px" height="425.196px" viewBox="0 0 425.197 425.196" style="enable-background:new 0 0 425.197 425.196;"
	 xml:space="preserve">
<g id="LWPOLYLINE_74_">
	
		<rect x="14.175" y="49.449" style="fill:#005EB8;stroke:#005EB8;stroke-width:0.5;stroke-miterlimit:10;" width="396.846" height="326.298"/>
</g>
<g id="LWPOLYLINE_72_">
	<path style="fill:#FFFFFF;" d="M40.632,49.449h343.933c14.609,0,26.456,11.845,26.456,26.457v273.387
		c0,14.609-11.847,26.455-26.456,26.455H40.632c-14.609,0-26.457-11.846-26.457-26.455V75.905
		C14.175,61.293,26.023,49.449,40.632,49.449z"/>
</g>
<g id="LWPOLYLINE_73_">
	<path style="fill:#005EB8;" d="M40.632,62.677h343.933c7.305,0,13.228,5.923,13.228,13.228v273.387
		c0,7.305-5.923,13.227-13.228,13.227H40.632c-7.305,0-13.229-5.922-13.229-13.227V75.905
		C27.404,68.601,33.328,62.677,40.632,62.677z"/>
</g>
<g id="LWPOLYLINE_67_">
	<rect x="113.523" y="117.902" style="fill:#FFFFFF;" width="198.423" height="198.421"/>
</g>
<g id="LWPOLYLINE_68_">
	<polyline style="fill:#101820;" points="302.025,284.575 245.668,284.575 245.668,232.987 297.258,232.987 266.308,194.891 
		281.19,194.891 252.418,165.127 262.34,165.127 236.545,121.475 210.75,165.127 220.671,165.127 191.9,194.891 206.782,194.891 
		176.22,232.987 227.811,232.987 227.811,284.575 163.128,284.575 163.128,264.735 182.971,264.735 182.971,248.862 
		123.444,248.862 123.444,264.735 143.287,264.735 143.287,284.575 123.444,284.575 123.444,300.448 302.025,300.448 
		302.025,284.575 	"/>
</g>
</svg>
