<?xml version="1.0" encoding="UTF-8" standalone="no"?>
<!-- Generator: Adobe Illustrator 16.0.0, SVG Export Plug-In . SVG Version: 6.00 Build 0)  -->

<svg
   xmlns:dc="http://purl.org/dc/elements/1.1/"
   xmlns:cc="http://creativecommons.org/ns#"
   xmlns:rdf="http://www.w3.org/1999/02/22-rdf-syntax-ns#"
   xmlns:svg="http://www.w3.org/2000/svg"
   xmlns="http://www.w3.org/2000/svg"
   xmlns:sodipodi="http://sodipodi.sourceforge.net/DTD/sodipodi-0.dtd"
   xmlns:inkscape="http://www.inkscape.org/namespaces/inkscape"
   version="1.1"
   id="Layer_1"
   x="0px"
   y="0px"
   width="397.34601"
   height="326.798"
   viewBox="0 0 397.34602 326.79799"
   xml:space="preserve"
   sodipodi:docname="G20.svg"
   inkscape:version="0.92.5 (2060ec1f9f, 2020-04-08)"><metadata
   id="metadata535"><rdf:RDF><cc:Work
       rdf:about=""><dc:format>image/svg+xml</dc:format><dc:type
         rdf:resource="http://purl.org/dc/dcmitype/StillImage" /></cc:Work></rdf:RDF></metadata><defs
   id="defs533" /><sodipodi:namedview
   pagecolor="#ffffff"
   bordercolor="#666666"
   borderopacity="1"
   objecttolerance="10"
   gridtolerance="10"
   guidetolerance="10"
   inkscape:pageopacity="0"
   inkscape:pageshadow="2"
   inkscape:window-width="640"
   inkscape:window-height="480"
   id="namedview531"
   showgrid="false"
   inkscape:zoom="0.55503813"
   inkscape:cx="198.6735"
   inkscape:cy="163.399"
   inkscape:window-x="0"
   inkscape:window-y="0"
   inkscape:window-maximized="0"
   inkscape:current-layer="Layer_1" />
<g
   id="LWPOLYLINE_80_"
   transform="translate(-13.925,-49.199001)">
	
		<rect
   x="14.175"
   y="49.449001"
   style="fill:#005eb8;stroke:#005eb8;stroke-width:0.5;stroke-miterlimit:10"
   width="396.84601"
   height="326.298"
   id="rect506" />
</g>
<g
   id="LWPOLYLINE_78_"
   transform="translate(-13.925,-49.199001)">
	<path
   style="fill:#ffffff"
   d="m 40.632,49.449 h 343.933 c 14.609,0 26.456,11.845 26.456,26.457 v 273.387 c 0,14.609 -11.847,26.455 -26.456,26.455 H 40.632 c -14.609,0 -26.457,-11.846 -26.457,-26.455 V 75.905 c 0,-14.612 11.848,-26.456 26.457,-26.456 z"
   id="path509"
   inkscape:connector-curvature="0" />
</g>
<g
   id="LWPOLYLINE_79_"
   transform="translate(-13.925,-49.199001)">
	<path
   style="fill:#005eb8"
   d="m 40.632,62.677 h 343.933 c 7.305,0 13.228,5.923 13.228,13.228 v 273.387 c 0,7.305 -5.923,13.227 -13.228,13.227 H 40.632 c -7.305,0 -13.229,-5.922 -13.229,-13.227 V 75.905 c 0.001,-7.304 5.925,-13.228 13.229,-13.228 z"
   id="path512"
   inkscape:connector-curvature="0" />
</g>
<g
   id="LWPOLYLINE_65_"
   transform="translate(-13.925,-49.199001)">
	<rect
   x="113.523"
   y="117.902"
   style="fill:#ffffff"
   width="198.423"
   height="198.42101"
   id="rect515" />
</g>
<g
   id="LWPOLYLINE_66_"
   transform="translate(-13.925,-49.199001)">
	<path
   style="fill:#101820"
   d="m 147.342,218.405 c -1.108,-0.031 -2.169,-0.455 -2.995,-1.194 -0.623,-0.632 -1.148,-1.359 -1.557,-2.151 -0.243,-0.698 -0.351,-1.438 -0.312,-2.174 0.01,-0.824 0.214,-1.635 0.613,-2.357 l 3.258,-7.861 c 0.652,-1.789 2.286,-3.034 4.183,-3.189 l 7.771,0.422 c 2.51,0.139 4.62,1.936 5.165,4.396 l -1.508,15.727 10.135,-8.873 7.606,-11.055 c 1.839,-2.675 3.142,-5.683 3.842,-8.856 1.021,-4.664 2.111,-9.316 3.249,-13.951 1.061,-4.29 2.938,-8.335 5.524,-11.913 0.943,-1.233 2.14,-2.249 3.502,-2.983 5.33,-2.87 11.974,-0.878 14.843,4.447 2.704,4.126 4.222,8.912 4.416,13.841 l 1.265,52.889 6.264,27.523 -4.445,14.83 -3.773,-5.219 -11.575,-30.285 -18.51,45.309 -2.295,8.584 -9.075,-0.385 18.724,-90.822 4.99,-7.912 -2.529,-1.097 -17.994,26.315 -15.835,15.338 -1.624,26.182 4.591,12.188 7.781,8.098 -2.033,7.699 -14.58,-11.01 -6.108,-11.994 -12.654,27.449 -7.771,-0.234 14.026,-45.17 -0.662,-3.344 -9.376,8.146 -4.62,-3.805 z"
   id="path518"
   inkscape:connector-curvature="0" />
</g>
<g
   id="LWPOLYLINE_67_"
   transform="translate(-13.925,-49.199001)">
	<path
   style="fill:#101820"
   d="m 233.179,293.829 -15.358,-0.125 10.748,-38.391 18.529,-38.504 -3.2,-18.84 10.311,-14.914 -2.179,-2.213 -10.087,13.605 -9.765,-24.54 5.097,-5.595 4.201,3.91 5.126,-9.768 c 1.187,-2.259 3.113,-4.042 5.457,-5.053 l 34.043,-9.286 4.095,50.508 c 0.233,2.898 -1.604,5.563 -4.396,6.374 -3.881,1.125 -7.858,1.898 -11.876,2.314 l 4.504,43.967 26.466,39.145 -8.628,7.023 -33.449,-34.309 -4.514,-18.746 -14.269,22.909 z"
   id="path521"
   inkscape:connector-curvature="0" />
</g>
<g
   id="LWPOLYLINE_68_"
   transform="translate(-13.925,-49.199001)">
	<path
   style="fill:#101820"
   d="m 260.123,147.172 -8.881,2.344 c -1.167,0.307 -2.198,1.012 -2.908,1.989 l -1.818,1.914 c -0.02,0.017 -0.039,0.034 -0.049,0.051 -0.457,0.42 -1.177,0.392 -1.596,-0.063 l -4.211,-5.595 -2.831,-5.004 c -0.72,-1.629 -0.651,-3.499 0.176,-5.077 l 1.838,-7.628 c 0.224,-1.658 1.09,-3.161 2.412,-4.188 2.422,-1.184 5.116,-1.707 7.801,-1.507 2.324,0.233 4.61,0.705 6.838,1.41 1.449,0.649 2.665,1.722 3.492,3.076 0.768,2.317 1.099,4.759 0.963,7.198 -0.107,2.14 -0.292,4.279 -0.535,6.41 l -0.633,4.657 z"
   id="path524"
   inkscape:connector-curvature="0" />
</g>
<g
   id="LWPOLYLINE_69_"
   transform="translate(-13.925,-49.199001)">
	<path
   style="fill:#101820"
   d="m 217.169,151.213 -9.542,8.518 -2.11,-0.771 c -3.502,-0.978 -7.236,-0.64 -10.515,0.951 -0.875,0.756 -2.032,1.097 -3.181,0.941 -1.887,-0.268 -3.336,-1.807 -3.491,-3.706 l -0.837,-3.514 -0.573,-10.862 c -0.225,-4.304 1.73,-8.436 5.203,-10.986 3.939,-2.077 8.754,-1.524 12.129,1.386 3.327,2.478 5.953,5.782 7.616,9.588 l 5.301,8.455"
   id="path527"
   inkscape:connector-curvature="0" />
</g>
</svg>