<?xml version="1.0" encoding="iso-8859-1"?>
<!-- Generator: Adobe Illustrator 16.0.0, SVG Export Plug-In . SVG Version: 6.00 Build 0)  -->
<!DOCTYPE svg PUBLIC "-//W3C//DTD SVG 1.1//EN" "http://www.w3.org/Graphics/SVG/1.1/DTD/svg11.dtd">
<svg version="1.1" id="Layer_1" xmlns="http://www.w3.org/2000/svg" xmlns:xlink="http://www.w3.org/1999/xlink" x="0px" y="0px"
	 width="425.197px" height="425.196px" viewBox="0 0 425.197 425.196" style="enable-background:new 0 0 425.197 425.196;"
	 xml:space="preserve">
<g id="LWPOLYLINE_74_">
	
		<rect x="14.175" y="49.449" style="fill:#005EB8;stroke:#005EB8;stroke-width:0.5;stroke-miterlimit:10;" width="396.846" height="326.298"/>
</g>
<g id="LWPOLYLINE_72_">
	<path style="fill:#FFFFFF;" d="M40.632,49.449h343.933c14.609,0,26.456,11.845,26.456,26.457v273.387
		c0,14.609-11.847,26.455-26.456,26.455H40.632c-14.609,0-26.457-11.846-26.457-26.455V75.905
		C14.175,61.293,26.023,49.449,40.632,49.449z"/>
</g>
<g id="LWPOLYLINE_73_">
	<path style="fill:#005EB8;" d="M40.632,62.677h343.933c7.305,0,13.228,5.923,13.228,13.228v273.387
		c0,7.305-5.923,13.227-13.228,13.227H40.632c-7.305,0-13.229-5.922-13.229-13.227V75.905
		C27.404,68.601,33.328,62.677,40.632,62.677z"/>
</g>
<g id="LWPOLYLINE_65_">
	<rect x="113.192" y="117.902" style="fill:#FFFFFF;" width="198.423" height="198.425"/>
</g>
<g id="LWPOLYLINE_66_">
	<path style="fill:#E4002B;" d="M245.376,296.534h-54.945v-122.58c0.01-0.272,0.02-0.542,0.049-0.813
		c0.525-5.675,5.554-9.843,11.225-9.315h9.872v-9.836l-10.874,0.357l-18.364,13.556v10.711h-7.519v-19.288l26.009-18.964h10.748
		v-2.41h13.102v2.41h4.951l10.135,4.34v5.43l-8.695,3.857h-6.391v9.836h10.738c5.408,0,9.863,4.243,10.136,9.644L245.376,296.534z"
		/>
</g>
</svg>
