<?xml version="1.0" encoding="UTF-8" standalone="no"?>
<!-- Generator: Adobe Illustrator 16.0.0, SVG Export Plug-In . SVG Version: 6.00 Build 0)  -->

<svg
   xmlns:dc="http://purl.org/dc/elements/1.1/"
   xmlns:cc="http://creativecommons.org/ns#"
   xmlns:rdf="http://www.w3.org/1999/02/22-rdf-syntax-ns#"
   xmlns:svg="http://www.w3.org/2000/svg"
   xmlns="http://www.w3.org/2000/svg"
   xmlns:sodipodi="http://sodipodi.sourceforge.net/DTD/sodipodi-0.dtd"
   xmlns:inkscape="http://www.inkscape.org/namespaces/inkscape"
   version="1.1"
   id="Layer_1"
   x="0px"
   y="0px"
   width="397.34601"
   height="326.798"
   viewBox="0 0 397.34602 326.79799"
   xml:space="preserve"
   sodipodi:docname="G23.svg"
   inkscape:version="0.92.5 (2060ec1f9f, 2020-04-08)"><metadata
   id="metadata634"><rdf:RDF><cc:Work
       rdf:about=""><dc:format>image/svg+xml</dc:format><dc:type
         rdf:resource="http://purl.org/dc/dcmitype/StillImage" /></cc:Work></rdf:RDF></metadata><defs
   id="defs632" /><sodipodi:namedview
   pagecolor="#ffffff"
   bordercolor="#666666"
   borderopacity="1"
   objecttolerance="10"
   gridtolerance="10"
   guidetolerance="10"
   inkscape:pageopacity="0"
   inkscape:pageshadow="2"
   inkscape:window-width="640"
   inkscape:window-height="480"
   id="namedview630"
   showgrid="false"
   inkscape:zoom="0.55503813"
   inkscape:cx="198.6735"
   inkscape:cy="163.399"
   inkscape:window-x="0"
   inkscape:window-y="0"
   inkscape:window-maximized="0"
   inkscape:current-layer="Layer_1" />
<g
   id="LWPOLYLINE_241_"
   transform="translate(-13.925,-49.199001)">
	
		<rect
   x="14.175"
   y="49.449001"
   style="fill:#6b3529;stroke:#6b3529;stroke-width:0.5;stroke-miterlimit:10"
   width="396.84601"
   height="326.298"
   id="rect599" />
</g>
<g
   id="LWPOLYLINE_239_"
   transform="translate(-13.925,-49.199001)">
	<path
   style="fill:#ffffff"
   d="m 40.632,49.449 h 343.933 c 14.609,0 26.456,11.845 26.456,26.457 v 273.387 c 0,14.609 -11.847,26.455 -26.456,26.455 H 40.632 c -14.609,0 -26.457,-11.846 -26.457,-26.455 V 75.905 c 0,-14.612 11.848,-26.456 26.457,-26.456 z"
   id="path602"
   inkscape:connector-curvature="0" />
</g>
<g
   id="LWPOLYLINE_240_"
   transform="translate(-13.925,-49.199001)">
	<path
   style="fill:#6b3529"
   d="m 40.632,62.677 h 343.933 c 7.305,0 13.228,5.923 13.228,13.228 v 273.387 c 0,7.305 -5.923,13.227 -13.228,13.227 H 40.632 c -7.305,0 -13.229,-5.922 -13.229,-13.227 V 75.905 c 0.001,-7.304 5.925,-13.228 13.229,-13.228 z"
   id="path605"
   inkscape:connector-curvature="0" />
</g>
<g
   id="LWPOLYLINE_222_"
   transform="translate(-13.925,-49.199001)">
	<rect
   x="113.523"
   y="117.902"
   style="fill:#ffffff"
   width="198.423"
   height="198.42101"
   id="rect608" />
</g>
<g
   id="LWPOLYLINE_223_"
   transform="translate(-13.925,-49.199001)">
	<polygon
   style="fill:#6b3529"
   points="212.734,135.529 131.158,181.646 294.301,181.646 "
   id="polygon611" />
</g>
<g
   id="LWPOLYLINE_224_"
   transform="translate(-13.925,-49.199001)">
	<polygon
   style="fill:#6b3529"
   points="283.282,274.44 142.177,274.44 126.751,298.688 298.717,298.688 "
   id="polygon614" />
</g>
<g
   id="LWPOLYLINE_225_"
   transform="translate(-13.925,-49.199001)">
	<rect
   x="261.23099"
   y="190.85201"
   style="fill:#6b3529"
   width="22.051001"
   height="83.587997"
   id="rect617" />
</g>
<g
   id="LWPOLYLINE_226_"
   transform="translate(-13.925,-49.199001)">
	<rect
   x="142.177"
   y="190.85201"
   style="fill:#6b3529"
   width="22.051001"
   height="83.587997"
   id="rect620" />
</g>
<g
   id="LWPOLYLINE_227_"
   transform="translate(-13.925,-49.199001)">
	<rect
   x="181.862"
   y="190.85201"
   style="fill:#6b3529"
   width="22.051001"
   height="83.587997"
   id="rect623" />
</g>
<g
   id="LWPOLYLINE_228_"
   transform="translate(-13.925,-49.199001)">
	<rect
   x="221.54601"
   y="190.85201"
   style="fill:#6b3529"
   width="22.051001"
   height="83.587997"
   id="rect626" />
</g>
</svg>