<?xml version="1.0" encoding="UTF-8" standalone="no"?>
<!-- Generator: Adobe Illustrator 16.0.0, SVG Export Plug-In . SVG Version: 6.00 Build 0)  -->

<svg
   xmlns:dc="http://purl.org/dc/elements/1.1/"
   xmlns:cc="http://creativecommons.org/ns#"
   xmlns:rdf="http://www.w3.org/1999/02/22-rdf-syntax-ns#"
   xmlns:svg="http://www.w3.org/2000/svg"
   xmlns="http://www.w3.org/2000/svg"
   xmlns:sodipodi="http://sodipodi.sourceforge.net/DTD/sodipodi-0.dtd"
   xmlns:inkscape="http://www.inkscape.org/namespaces/inkscape"
   version="1.1"
   id="Layer_1"
   x="0px"
   y="0px"
   width="397.34601"
   height="326.798"
   viewBox="0 0 397.34602 326.79799"
   xml:space="preserve"
   sodipodi:docname="G24.svg"
   inkscape:version="0.92.5 (2060ec1f9f, 2020-04-08)"><metadata
   id="metadata659"><rdf:RDF><cc:Work
       rdf:about=""><dc:format>image/svg+xml</dc:format><dc:type
         rdf:resource="http://purl.org/dc/dcmitype/StillImage" /></cc:Work></rdf:RDF></metadata><defs
   id="defs657" /><sodipodi:namedview
   pagecolor="#ffffff"
   bordercolor="#666666"
   borderopacity="1"
   objecttolerance="10"
   gridtolerance="10"
   guidetolerance="10"
   inkscape:pageopacity="0"
   inkscape:pageshadow="2"
   inkscape:window-width="640"
   inkscape:window-height="480"
   id="namedview655"
   showgrid="false"
   inkscape:zoom="0.55503813"
   inkscape:cx="198.6735"
   inkscape:cy="163.399"
   inkscape:window-x="0"
   inkscape:window-y="0"
   inkscape:window-maximized="0"
   inkscape:current-layer="Layer_1" />
<g
   id="LWPOLYLINE_76_"
   transform="translate(-13.925,-49.199001)">
	
		<rect
   x="14.175"
   y="49.449001"
   style="fill:#6b3529;stroke:#6b3529;stroke-width:0.5;stroke-miterlimit:10"
   width="396.84601"
   height="326.298"
   id="rect636" />
</g>
<g
   id="LWPOLYLINE_74_"
   transform="translate(-13.925,-49.199001)">
	<path
   style="fill:#ffffff"
   d="m 40.632,49.449 h 343.933 c 14.609,0 26.456,11.845 26.456,26.457 V 349.29 c 0,14.609 -11.847,26.457 -26.456,26.457 H 40.632 c -14.609,0 -26.457,-11.848 -26.457,-26.457 V 75.905 c 0,-14.612 11.848,-26.456 26.457,-26.456 z"
   id="path639"
   inkscape:connector-curvature="0" />
</g>
<g
   id="LWPOLYLINE_75_"
   transform="translate(-13.925,-49.199001)">
	<path
   style="fill:#6b3529"
   d="m 40.632,62.677 h 343.933 c 7.305,0 13.228,5.923 13.228,13.228 V 349.29 c 0,7.305 -5.923,13.229 -13.228,13.229 H 40.632 c -7.305,0 -13.229,-5.924 -13.229,-13.229 V 75.905 c 0.001,-7.304 5.925,-13.228 13.229,-13.228 z"
   id="path642"
   inkscape:connector-curvature="0" />
</g>
<g
   id="LWPOLYLINE_68_"
   transform="translate(-13.925,-49.199001)">
	<rect
   x="113.523"
   y="117.902"
   style="fill:#ffffff"
   width="198.423"
   height="198.42101"
   id="rect645" />
</g>
<g
   id="LWPOLYLINE_70_"
   transform="translate(-13.925,-49.199001)">
	<path
   style="fill:#6b3529"
   d="m 218.181,289.263 v -39.65 l 32.205,-32.496 -37.651,-37.654 -37.662,37.654 32.088,32.373 v 40.697 c 0.039,0.744 -0.01,1.488 -0.146,2.223 -0.924,4.795 -5.563,7.934 -10.358,7.008 -39.354,-7.668 -67.766,-42.139 -67.766,-82.235 0,-46.267 37.506,-83.777 83.775,-83.777 46.269,0 83.785,37.51 83.785,83.777 0,40.097 -28.412,74.567 -67.766,82.235 -0.555,0.107 -1.119,0.162 -1.683,0.162 -4.873,0 -8.822,-3.949 -8.822,-8.818 0.079,-0.497 0.079,-1.003 0.001,-1.499 z"
   id="path648"
   inkscape:connector-curvature="0" />
</g>
<g
   id="LWPOLYLINE_69_"
   transform="translate(-13.925,-49.199001)">
	<path
   style="fill:#ffffff"
   d="m 233.928,282.222 v -26.529 l 38.274,-38.625 -59.468,-59.473 -59.479,59.473 38.274,38.625 v 26.568 c -28.198,-9.156 -47.291,-35.43 -47.291,-65.079 0,-37.79 30.639,-68.424 68.427,-68.424 37.797,0 68.427,30.634 68.427,68.424 0.001,29.6 -19.034,55.844 -47.164,65.04"
   id="path651"
   inkscape:connector-curvature="0" />
</g>
</svg>