<?xml version="1.0" encoding="iso-8859-1"?>
<!-- Generator: Adobe Illustrator 16.0.0, SVG Export Plug-In . SVG Version: 6.00 Build 0)  -->
<!DOCTYPE svg PUBLIC "-//W3C//DTD SVG 1.1//EN" "http://www.w3.org/Graphics/SVG/1.1/DTD/svg11.dtd">
<svg version="1.1" id="Layer_1" xmlns="http://www.w3.org/2000/svg" xmlns:xlink="http://www.w3.org/1999/xlink" x="0px" y="0px"
	 width="425.197px" height="425.196px" viewBox="0 0 425.197 425.196" style="enable-background:new 0 0 425.197 425.196;"
	 xml:space="preserve">
<g id="LWPOLYLINE_237_">
	
		<rect x="14.175" y="49.449" style="fill:#6B3529;stroke:#6B3529;stroke-width:0.5;stroke-miterlimit:10;" width="396.846" height="326.298"/>
</g>
<g id="LWPOLYLINE_235_">
	<path style="fill:#FFFFFF;" d="M40.632,49.449h343.933c14.609,0,26.456,11.845,26.456,26.457v273.387
		c0,14.609-11.847,26.455-26.456,26.455H40.632c-14.609,0-26.457-11.846-26.457-26.455V75.905
		C14.175,61.293,26.023,49.449,40.632,49.449z"/>
</g>
<g id="LWPOLYLINE_236_">
	<path style="fill:#6B3529;" d="M40.632,62.677h343.933c7.305,0,13.228,5.923,13.228,13.228v273.387
		c0,7.305-5.923,13.227-13.228,13.227H40.632c-7.305,0-13.229-5.922-13.229-13.227V75.905
		C27.404,68.601,33.328,62.677,40.632,62.677z"/>
</g>
<g id="LWPOLYLINE_220_">
	<rect x="113.523" y="117.902" style="fill:#FFFFFF;" width="198.423" height="198.423"/>
</g>
<g id="LWPOLYLINE_221_">
	<path style="fill:#6B3529;" d="M219.299,225.81v-22.625c-0.496-10.022,2.18-19.944,7.655-28.353
		c12.343-13.544,30.182-20.732,48.468-19.533c0.01,0,0.02,0,0.029-0.002c10.262-0.968,19.365,6.563,20.328,16.822
		c1.945,11.993-1.05,24.26-8.307,34.009c-10.407,12.576-25.921,19.803-42.242,19.682H219.299"/>
</g>
<g id="LWPOLYLINE_222_">
	<path style="fill:#6B3529;" d="M219.299,234.629l13.646,0.063c6.041-0.051,12.081,0.664,17.946,2.125
		c7.46,2.303,14.104,6.685,19.151,12.633c2.918,3.992,4.951,8.564,5.953,13.41c1.06,4.336,1.157,8.852,0.311,13.232
		c-0.496,3.896-2.889,7.295-6.39,9.072c-2.763,1.307-5.769,2.033-8.822,2.141c-2.986,0.24-5.982,0.238-8.968,0
		c-5.165-0.586-10.184-2.035-14.872-4.287c-5.632-2.268-10.389-6.283-13.579-11.451c-1.926-2.984-3.209-6.342-3.754-9.85
		c-0.398-2.486-0.604-4.998-0.594-7.514L219.299,234.629z"/>
</g>
<g id="LWPOLYLINE_223_">
	<path style="fill:#6B3529;" d="M206.072,225.81v-22.625c0.496-10.022-2.179-19.944-7.655-28.353
		c-12.343-13.544-30.182-20.732-48.467-19.533c-10.262-0.982-19.376,6.536-20.358,16.795c0,0.007,0,0.017,0,0.024
		c-1.945,11.993,1.051,24.26,8.307,34.009c10.407,12.576,25.921,19.803,42.242,19.682H206.072"/>
</g>
<g id="LWPOLYLINE_224_">
	<path style="fill:#6B3529;" d="M206.072,234.629l-13.637,0.063c-6.05-0.051-12.081,0.664-17.955,2.125
		c-7.451,2.303-14.104,6.685-19.152,12.633c-2.918,3.992-4.95,8.564-5.952,13.41c-1.051,4.336-1.157,8.852-0.312,13.232
		c0.496,3.896,2.889,7.295,6.391,9.072c2.763,1.307,5.768,2.033,8.821,2.141c2.986,0.24,5.982,0.238,8.969,0
		c5.164-0.586,10.193-2.035,14.872-4.287c5.632-2.268,10.388-6.283,13.578-11.451c1.926-2.984,3.21-6.342,3.764-9.85
		c0.399-2.486,0.594-4.998,0.584-7.514L206.072,234.629z"/>
</g>
</svg>
