<?xml version="1.0" encoding="UTF-8" standalone="no"?>
<!-- Generator: Adobe Illustrator 16.0.0, SVG Export Plug-In . SVG Version: 6.00 Build 0)  -->

<svg
   xmlns:dc="http://purl.org/dc/elements/1.1/"
   xmlns:cc="http://creativecommons.org/ns#"
   xmlns:rdf="http://www.w3.org/1999/02/22-rdf-syntax-ns#"
   xmlns:svg="http://www.w3.org/2000/svg"
   xmlns="http://www.w3.org/2000/svg"
   xmlns:sodipodi="http://sodipodi.sourceforge.net/DTD/sodipodi-0.dtd"
   xmlns:inkscape="http://www.inkscape.org/namespaces/inkscape"
   version="1.1"
   id="Layer_1"
   x="0px"
   y="0px"
   width="397.34601"
   height="326.798"
   viewBox="0 0 397.34602 326.79799"
   xml:space="preserve"
   sodipodi:docname="G25.svg"
   inkscape:version="0.92.5 (2060ec1f9f, 2020-04-08)"><metadata
   id="metadata690"><rdf:RDF><cc:Work
       rdf:about=""><dc:format>image/svg+xml</dc:format><dc:type
         rdf:resource="http://purl.org/dc/dcmitype/StillImage" /></cc:Work></rdf:RDF></metadata><defs
   id="defs688" /><sodipodi:namedview
   pagecolor="#ffffff"
   bordercolor="#666666"
   borderopacity="1"
   objecttolerance="10"
   gridtolerance="10"
   guidetolerance="10"
   inkscape:pageopacity="0"
   inkscape:pageshadow="2"
   inkscape:window-width="640"
   inkscape:window-height="480"
   id="namedview686"
   showgrid="false"
   inkscape:zoom="0.55503813"
   inkscape:cx="198.6735"
   inkscape:cy="163.399"
   inkscape:window-x="0"
   inkscape:window-y="0"
   inkscape:window-maximized="0"
   inkscape:current-layer="Layer_1" />
<g
   id="LWPOLYLINE_237_"
   transform="translate(-13.925,-49.199001)">
	
		<rect
   x="14.175"
   y="49.449001"
   style="fill:#6b3529;stroke:#6b3529;stroke-width:0.5;stroke-miterlimit:10"
   width="396.84601"
   height="326.298"
   id="rect661" />
</g>
<g
   id="LWPOLYLINE_235_"
   transform="translate(-13.925,-49.199001)">
	<path
   style="fill:#ffffff"
   d="m 40.632,49.449 h 343.933 c 14.609,0 26.456,11.845 26.456,26.457 v 273.387 c 0,14.609 -11.847,26.455 -26.456,26.455 H 40.632 c -14.609,0 -26.457,-11.846 -26.457,-26.455 V 75.905 c 0,-14.612 11.848,-26.456 26.457,-26.456 z"
   id="path664"
   inkscape:connector-curvature="0" />
</g>
<g
   id="LWPOLYLINE_236_"
   transform="translate(-13.925,-49.199001)">
	<path
   style="fill:#6b3529"
   d="m 40.632,62.677 h 343.933 c 7.305,0 13.228,5.923 13.228,13.228 v 273.387 c 0,7.305 -5.923,13.227 -13.228,13.227 H 40.632 c -7.305,0 -13.229,-5.922 -13.229,-13.227 V 75.905 c 0.001,-7.304 5.925,-13.228 13.229,-13.228 z"
   id="path667"
   inkscape:connector-curvature="0" />
</g>
<g
   id="LWPOLYLINE_220_"
   transform="translate(-13.925,-49.199001)">
	<rect
   x="113.523"
   y="117.902"
   style="fill:#ffffff"
   width="198.423"
   height="198.423"
   id="rect670" />
</g>
<g
   id="LWPOLYLINE_221_"
   transform="translate(-13.925,-49.199001)">
	<path
   style="fill:#6b3529"
   d="m 219.299,225.81 v -22.625 c -0.496,-10.022 2.18,-19.944 7.655,-28.353 12.343,-13.544 30.182,-20.732 48.468,-19.533 0.01,0 0.02,0 0.029,-0.002 10.262,-0.968 19.365,6.563 20.328,16.822 1.945,11.993 -1.05,24.26 -8.307,34.009 -10.407,12.576 -25.921,19.803 -42.242,19.682 h -25.931"
   id="path673"
   inkscape:connector-curvature="0" />
</g>
<g
   id="LWPOLYLINE_222_"
   transform="translate(-13.925,-49.199001)">
	<path
   style="fill:#6b3529"
   d="m 219.299,234.629 13.646,0.063 c 6.041,-0.051 12.081,0.664 17.946,2.125 7.46,2.303 14.104,6.685 19.151,12.633 2.918,3.992 4.951,8.564 5.953,13.41 1.06,4.336 1.157,8.852 0.311,13.232 -0.496,3.896 -2.889,7.295 -6.39,9.072 -2.763,1.307 -5.769,2.033 -8.822,2.141 -2.986,0.24 -5.982,0.238 -8.968,0 -5.165,-0.586 -10.184,-2.035 -14.872,-4.287 -5.632,-2.268 -10.389,-6.283 -13.579,-11.451 -1.926,-2.984 -3.209,-6.342 -3.754,-9.85 -0.398,-2.486 -0.604,-4.998 -0.594,-7.514 z"
   id="path676"
   inkscape:connector-curvature="0" />
</g>
<g
   id="LWPOLYLINE_223_"
   transform="translate(-13.925,-49.199001)">
	<path
   style="fill:#6b3529"
   d="m 206.072,225.81 v -22.625 c 0.496,-10.022 -2.179,-19.944 -7.655,-28.353 -12.343,-13.544 -30.182,-20.732 -48.467,-19.533 -10.262,-0.982 -19.376,6.536 -20.358,16.795 0,0.007 0,0.017 0,0.024 -1.945,11.993 1.051,24.26 8.307,34.009 10.407,12.576 25.921,19.803 42.242,19.682 h 25.931"
   id="path679"
   inkscape:connector-curvature="0" />
</g>
<g
   id="LWPOLYLINE_224_"
   transform="translate(-13.925,-49.199001)">
	<path
   style="fill:#6b3529"
   d="m 206.072,234.629 -13.637,0.063 c -6.05,-0.051 -12.081,0.664 -17.955,2.125 -7.451,2.303 -14.104,6.685 -19.152,12.633 -2.918,3.992 -4.95,8.564 -5.952,13.41 -1.051,4.336 -1.157,8.852 -0.312,13.232 0.496,3.896 2.889,7.295 6.391,9.072 2.763,1.307 5.768,2.033 8.821,2.141 2.986,0.24 5.982,0.238 8.969,0 5.164,-0.586 10.193,-2.035 14.872,-4.287 5.632,-2.268 10.388,-6.283 13.578,-11.451 1.926,-2.984 3.21,-6.342 3.764,-9.85 0.399,-2.486 0.594,-4.998 0.584,-7.514 z"
   id="path682"
   inkscape:connector-curvature="0" />
</g>
</svg>