<?xml version="1.0" encoding="UTF-8" standalone="no"?>
<!-- Generator: Adobe Illustrator 16.0.0, SVG Export Plug-In . SVG Version: 6.00 Build 0)  -->

<svg
   xmlns:dc="http://purl.org/dc/elements/1.1/"
   xmlns:cc="http://creativecommons.org/ns#"
   xmlns:rdf="http://www.w3.org/1999/02/22-rdf-syntax-ns#"
   xmlns:svg="http://www.w3.org/2000/svg"
   xmlns="http://www.w3.org/2000/svg"
   xmlns:sodipodi="http://sodipodi.sourceforge.net/DTD/sodipodi-0.dtd"
   xmlns:inkscape="http://www.inkscape.org/namespaces/inkscape"
   version="1.1"
   id="Layer_1"
   x="0px"
   y="0px"
   width="397.345"
   height="326.798"
   viewBox="0 0 397.34501 326.79799"
   xml:space="preserve"
   sodipodi:docname="G27.svg"
   inkscape:version="0.92.5 (2060ec1f9f, 2020-04-08)"><metadata
   id="metadata764"><rdf:RDF><cc:Work
       rdf:about=""><dc:format>image/svg+xml</dc:format><dc:type
         rdf:resource="http://purl.org/dc/dcmitype/StillImage" /></cc:Work></rdf:RDF></metadata><defs
   id="defs762" /><sodipodi:namedview
   pagecolor="#ffffff"
   bordercolor="#666666"
   borderopacity="1"
   objecttolerance="10"
   gridtolerance="10"
   guidetolerance="10"
   inkscape:pageopacity="0"
   inkscape:pageshadow="2"
   inkscape:window-width="640"
   inkscape:window-height="480"
   id="namedview760"
   showgrid="false"
   inkscape:zoom="0.55503813"
   inkscape:cx="198.6725"
   inkscape:cy="163.399"
   inkscape:window-x="0"
   inkscape:window-y="0"
   inkscape:window-maximized="0"
   inkscape:current-layer="Layer_1" />
<g
   id="LWPOLYLINE_91_"
   transform="translate(-13.926,-49.199001)">
	
		<rect
   x="14.176"
   y="49.449001"
   style="fill:#6b3529;stroke:#6b3529;stroke-width:0.5;stroke-miterlimit:10"
   width="396.845"
   height="326.298"
   id="rect729" />
</g>
<g
   id="LWPOLYLINE_89_"
   transform="translate(-13.926,-49.199001)">
	<path
   style="fill:#ffffff"
   d="m 40.632,49.449 h 343.934 c 14.609,0 26.455,11.845 26.455,26.457 V 349.29 c 0,14.609 -11.846,26.457 -26.455,26.457 H 40.632 c -14.609,0 -26.457,-11.848 -26.457,-26.457 V 75.905 C 14.176,61.293 26.023,49.449 40.632,49.449 Z"
   id="path732"
   inkscape:connector-curvature="0" />
</g>
<g
   id="LWPOLYLINE_90_"
   transform="translate(-13.926,-49.199001)">
	<path
   style="fill:#6b3529"
   d="m 40.632,62.677 h 343.934 c 7.305,0 13.227,5.923 13.227,13.228 V 349.29 c 0,7.305 -5.922,13.229 -13.227,13.229 H 40.632 c -7.305,0 -13.228,-5.924 -13.228,-13.229 V 75.905 c 0,-7.304 5.924,-13.228 13.228,-13.228 z"
   id="path735"
   inkscape:connector-curvature="0" />
</g>
<g
   id="LWPOLYLINE_72_"
   transform="translate(-13.926,-49.199001)">
	<rect
   x="113.523"
   y="117.902"
   style="fill:#ffffff"
   width="198.423"
   height="198.42101"
   id="rect738" />
</g>
<g
   id="LWPOLYLINE_73_"
   transform="translate(-13.926,-49.199001)">
	<path
   style="fill:#6b3529"
   d="m 197.979,222.113 -3.346,9.575 -1.061,4.713 c -5.35,4.16 -12.537,5.078 -18.753,2.389 -0.418,-0.67 -0.7,-1.41 -0.836,-2.188 -0.604,-3.396 1.663,-6.641 5.067,-7.242 1.226,-2.916 1.469,-6.158 0.671,-9.225 l -0.817,-6.215 -1.43,-7.151 -3.219,-7.866 -1.08,-5.004 -1.07,-9.654 c -1.469,-3.652 -4.279,-6.6 -7.868,-8.224 l -9.756,-7.309 c -3.599,-1.917 -7.646,-2.85 -11.711,-2.699 -3.064,-0.068 -6.04,-1.056 -8.54,-2.833 l -6.848,-2.889 -3.044,-4.083 -0.496,-3.56 c 0,-0.019 0,-0.034 0,-0.053 0.205,-1.979 1.975,-3.417 3.959,-3.212 l 5.583,-1.607 5.447,-3.599 c 1.08,-0.827 2.042,-1.79 2.869,-2.862 1.576,-2.799 4.387,-4.688 7.577,-5.094 l -0.613,-4.987 1.099,-3.283 2.121,-1.422 2.344,0.603 4.669,5.199 0.69,0.729 3.93,-3.407 2.208,-1.223 2.422,0.348 2.675,2.823 0.729,4.984 8.89,3.894 c 2.908,1.274 6.138,1.612 9.25,0.973 5.106,-1.053 10.427,-0.095 14.853,2.675 3.822,2.4 8.258,3.664 12.781,3.65 h 13.385 c 7.217,0 14.424,0.569 21.543,1.702 9.572,1.522 18.744,4.956 26.963,10.096 l 9.123,6.079 c 4.184,4.061 6.625,9.585 6.818,15.412 -0.973,3.667 -0.973,7.521 0,11.188 0.555,1.958 0.623,4.022 0.186,6.011 l -0.146,9.578 -0.078,9.017 1.4,12.328 0.332,5.527 c -0.633,3.791 -3.91,6.566 -7.752,6.551 -3.355,0.746 -6.867,0.428 -10.039,-0.912 -0.846,-0.678 -1.42,-1.629 -1.643,-2.686 -0.525,-2.525 1.098,-4.998 3.617,-5.523 l -4.688,-18.889 -5.203,13.656 -2.832,9.08 -3.092,3.508 c -2.568,0.99 -5.32,1.389 -8.064,1.158 -0.01,0.002 -0.029,0.008 -0.039,0.01 -2.811,0.699 -5.65,-1.004 -6.352,-3.811 -0.67,-2.135 0.293,-4.447 2.287,-5.471 1.818,-1.012 2.811,-3.066 2.471,-5.127 l -1.635,-20.158 -12.041,0.924 c -5.01,0.202 -10.02,-0.371 -14.854,-1.701 l -8.248,-2.474 v 10.405 l -1.945,10.729 -1.303,8.129 c -0.156,1.709 -0.73,3.352 -1.693,4.771 -3.112,4.611 -9.386,5.826 -13.996,2.709 -0.39,-0.223 -0.729,-0.516 -1.012,-0.863 -1.245,-1.553 -0.992,-3.818 0.554,-5.064 2.317,-3.696 1.743,-8.501 -1.37,-11.553"
   id="path741"
   inkscape:connector-curvature="0" />
</g>
<g
   id="LWPOLYLINE_74_"
   transform="translate(-13.926,-49.199001)">
	<polygon
   style="fill:#6b3529"
   points="184.722,262.532 160.736,299.573 185.598,299.573 185.598,307.511 151.204,307.511 151.204,299.573 175.2,262.532 152.975,262.532 152.975,254.595 184.722,254.595 "
   id="polygon744" />
</g>
<g
   id="LWPOLYLINE_75_"
   transform="translate(-13.926,-49.199001)">
	<path
   style="fill:#6b3529"
   d="m 240.115,271.792 v 18.521 c 0,9.494 7.703,17.197 17.197,17.197 9.492,0 17.197,-7.703 17.197,-17.197 v -18.521 c 0,-9.498 -7.705,-17.197 -17.197,-17.197 -9.494,0 -17.197,7.699 -17.197,17.197 z"
   id="path747"
   inkscape:connector-curvature="0" />
</g>
<g
   id="LWPOLYLINE_77_"
   transform="translate(-13.926,-49.199001)">
	<path
   style="fill:#6b3529"
   d="m 194.974,271.792 v 18.521 c 0,9.494 7.694,17.197 17.197,17.197 9.493,0 17.196,-7.703 17.196,-17.197 v -18.521 c 0,-9.498 -7.703,-17.197 -17.196,-17.197 -9.503,0 -17.197,7.699 -17.197,17.197 z"
   id="path750"
   inkscape:connector-curvature="0" />
</g>
<g
   id="LWPOLYLINE_76_"
   transform="translate(-13.926,-49.199001)">
	<path
   style="fill:#ffffff"
   d="m 266.572,271.792 c 0,-5.113 -4.145,-9.26 -9.26,-9.26 -5.117,0 -9.26,4.146 -9.26,9.26 v 18.521 c 0,5.111 4.143,9.26 9.26,9.26 5.115,0 9.26,-4.148 9.26,-9.26 z"
   id="path753"
   inkscape:connector-curvature="0" />
</g>
<g
   id="LWPOLYLINE_78_"
   transform="translate(-13.926,-49.199001)">
	<path
   style="fill:#ffffff"
   d="m 221.431,271.792 c 0,-5.113 -4.154,-9.26 -9.26,-9.26 -5.116,0 -9.26,4.146 -9.26,9.26 v 18.521 c 0,5.111 4.144,9.26 9.26,9.26 5.106,0 9.26,-4.148 9.26,-9.26 z"
   id="path756"
   inkscape:connector-curvature="0" />
</g>
</svg>