<?xml version="1.0" encoding="UTF-8" standalone="no"?>
<!-- Generator: Adobe Illustrator 16.0.0, SVG Export Plug-In . SVG Version: 6.00 Build 0)  -->

<svg
   xmlns:dc="http://purl.org/dc/elements/1.1/"
   xmlns:cc="http://creativecommons.org/ns#"
   xmlns:rdf="http://www.w3.org/1999/02/22-rdf-syntax-ns#"
   xmlns:svg="http://www.w3.org/2000/svg"
   xmlns="http://www.w3.org/2000/svg"
   xmlns:sodipodi="http://sodipodi.sourceforge.net/DTD/sodipodi-0.dtd"
   xmlns:inkscape="http://www.inkscape.org/namespaces/inkscape"
   version="1.1"
   id="Layer_1"
   x="0px"
   y="0px"
   width="397.34601"
   height="326.798"
   viewBox="0 0 397.34602 326.79799"
   xml:space="preserve"
   sodipodi:docname="G28.svg"
   inkscape:version="0.92.5 (2060ec1f9f, 2020-04-08)"><metadata
   id="metadata804"><rdf:RDF><cc:Work
       rdf:about=""><dc:format>image/svg+xml</dc:format><dc:type
         rdf:resource="http://purl.org/dc/dcmitype/StillImage" /></cc:Work></rdf:RDF></metadata><defs
   id="defs802" /><sodipodi:namedview
   pagecolor="#ffffff"
   bordercolor="#666666"
   borderopacity="1"
   objecttolerance="10"
   gridtolerance="10"
   guidetolerance="10"
   inkscape:pageopacity="0"
   inkscape:pageshadow="2"
   inkscape:window-width="640"
   inkscape:window-height="480"
   id="namedview800"
   showgrid="false"
   inkscape:zoom="0.55503813"
   inkscape:cx="198.6735"
   inkscape:cy="163.399"
   inkscape:window-x="0"
   inkscape:window-y="0"
   inkscape:window-maximized="0"
   inkscape:current-layer="Layer_1" />
<g
   id="LWPOLYLINE_91_"
   transform="translate(-13.925,-49.199001)">
	
		<rect
   x="14.175"
   y="49.449001"
   style="fill:#6b3529;stroke:#6b3529;stroke-width:0.5;stroke-miterlimit:10"
   width="396.84601"
   height="326.298"
   id="rect766" />
</g>
<g
   id="LWPOLYLINE_89_"
   transform="translate(-13.925,-49.199001)">
	<path
   style="fill:#ffffff"
   d="m 40.632,49.449 h 343.933 c 14.609,0 26.456,11.845 26.456,26.457 V 349.29 c 0,14.609 -11.847,26.457 -26.456,26.457 H 40.632 c -14.609,0 -26.457,-11.848 -26.457,-26.457 V 75.905 c 0,-14.612 11.848,-26.456 26.457,-26.456 z"
   id="path769"
   inkscape:connector-curvature="0" />
</g>
<g
   id="LWPOLYLINE_90_"
   transform="translate(-13.925,-49.199001)">
	<path
   style="fill:#6b3529"
   d="m 40.632,62.677 h 343.933 c 7.305,0 13.228,5.923 13.228,13.228 V 349.29 c 0,7.305 -5.923,13.229 -13.228,13.229 H 40.632 c -7.305,0 -13.229,-5.924 -13.229,-13.229 V 75.905 c 0.001,-7.304 5.925,-13.228 13.229,-13.228 z"
   id="path772"
   inkscape:connector-curvature="0" />
</g>
<g
   id="LWPOLYLINE_78_"
   transform="translate(-13.925,-49.199001)">
	<rect
   x="113.523"
   y="117.902"
   style="fill:#ffffff"
   width="198.423"
   height="198.42101"
   id="rect775" />
</g>
<g
   id="LWPOLYLINE_72_"
   transform="translate(-13.925,-49.199001)">
	<path
   style="fill:#6b3529"
   d="m 196.763,180.235 v -17.858 c 0,-20.822 -16.876,-37.701 -37.7,-37.701 -20.814,0 -37.7,16.878 -37.7,37.701 0,20.819 16.886,37.7 37.7,37.7 h 17.858 v 31.748 h -17.858 c -20.814,0 -37.7,16.879 -37.7,37.701 0,20.816 16.886,37.701 37.7,37.701 20.824,0 37.7,-16.885 37.7,-37.701 v -17.859 h 31.748 v 17.859 c 0,20.816 16.885,37.701 37.7,37.701 20.824,0 37.7,-16.885 37.7,-37.701 0,-20.822 -16.876,-37.701 -37.7,-37.701 h -17.858 v -31.748 h 17.858 c 20.824,0 37.7,-16.88 37.7,-37.7 0,-20.822 -16.876,-37.701 -37.7,-37.701 -20.815,0 -37.7,16.878 -37.7,37.701 v 17.858 z"
   id="path778"
   inkscape:connector-curvature="0" />
</g>
<g
   id="LWPOLYLINE_73_"
   transform="translate(-13.925,-49.199001)">
	<rect
   x="196.763"
   y="200.077"
   style="fill:#ffffff"
   width="31.747999"
   height="31.747999"
   id="rect781" />
</g>
<g
   id="LWPOLYLINE_74_"
   transform="translate(-13.925,-49.199001)">
	<path
   style="fill:#ffffff"
   d="m 176.921,251.667 h -17.858 c -9.862,0 -17.857,7.996 -17.857,17.859 0,9.861 7.995,17.859 17.857,17.859 9.863,0 17.858,-7.998 17.858,-17.859 z"
   id="path784"
   inkscape:connector-curvature="0" />
</g>
<g
   id="LWPOLYLINE_75_"
   transform="translate(-13.925,-49.199001)">
	<path
   style="fill:#ffffff"
   d="m 176.921,180.235 h -17.858 c -9.862,0 -17.857,-7.995 -17.857,-17.858 0,-9.863 7.995,-17.858 17.857,-17.858 9.863,0 17.858,7.996 17.858,17.858 z"
   id="path787"
   inkscape:connector-curvature="0" />
</g>
<g
   id="LWPOLYLINE_76_"
   transform="translate(-13.925,-49.199001)">
	<path
   style="fill:#ffffff"
   d="m 248.353,251.667 h 17.858 c 9.862,0 17.857,7.996 17.857,17.859 0,9.861 -7.995,17.859 -17.857,17.859 -9.863,0 -17.858,-7.998 -17.858,-17.859 z"
   id="path790"
   inkscape:connector-curvature="0" />
</g>
<g
   id="LWPOLYLINE_77_"
   transform="translate(-13.925,-49.199001)">
	<path
   style="fill:#ffffff"
   d="m 248.353,180.235 h 17.858 c 9.862,0 17.857,-7.995 17.857,-17.858 0,-9.863 -7.995,-17.858 -17.857,-17.858 -9.863,0 -17.858,7.996 -17.858,17.858 z"
   id="path793"
   inkscape:connector-curvature="0" />
</g>
<g
   id="LWPOLYLINE_92_"
   transform="translate(-13.925,-49.199001)">
	<polyline
   style="fill:none"
   points="14.175,375.747 14.175,49.449 411.021,49.449  "
   id="polyline796" />
</g>
</svg>