<?xml version="1.0" encoding="UTF-8" standalone="no"?>
<!-- Generator: Adobe Illustrator 16.0.0, SVG Export Plug-In . SVG Version: 6.00 Build 0)  -->

<svg
   xmlns:dc="http://purl.org/dc/elements/1.1/"
   xmlns:cc="http://creativecommons.org/ns#"
   xmlns:rdf="http://www.w3.org/1999/02/22-rdf-syntax-ns#"
   xmlns:svg="http://www.w3.org/2000/svg"
   xmlns="http://www.w3.org/2000/svg"
   xmlns:sodipodi="http://sodipodi.sourceforge.net/DTD/sodipodi-0.dtd"
   xmlns:inkscape="http://www.inkscape.org/namespaces/inkscape"
   version="1.1"
   id="Layer_1"
   x="0px"
   y="0px"
   width="397.34601"
   height="326.798"
   viewBox="0 0 397.34602 326.79799"
   xml:space="preserve"
   sodipodi:docname="G29.svg"
   inkscape:version="0.92.5 (2060ec1f9f, 2020-04-08)"><metadata
   id="metadata832"><rdf:RDF><cc:Work
       rdf:about=""><dc:format>image/svg+xml</dc:format><dc:type
         rdf:resource="http://purl.org/dc/dcmitype/StillImage" /></cc:Work></rdf:RDF></metadata><defs
   id="defs830" /><sodipodi:namedview
   pagecolor="#ffffff"
   bordercolor="#666666"
   borderopacity="1"
   objecttolerance="10"
   gridtolerance="10"
   guidetolerance="10"
   inkscape:pageopacity="0"
   inkscape:pageshadow="2"
   inkscape:window-width="640"
   inkscape:window-height="480"
   id="namedview828"
   showgrid="false"
   inkscape:zoom="0.55503813"
   inkscape:cx="198.6735"
   inkscape:cy="163.399"
   inkscape:window-x="0"
   inkscape:window-y="0"
   inkscape:window-maximized="0"
   inkscape:current-layer="Layer_1" />
<g
   id="LWPOLYLINE_85_"
   transform="translate(-13.925,-49.199001)">
	
		<rect
   x="14.175"
   y="49.449001"
   style="fill:#6b3529;stroke:#6b3529;stroke-width:0.5;stroke-miterlimit:10"
   width="396.84601"
   height="326.298"
   id="rect806" />
</g>
<g
   id="LWPOLYLINE_83_"
   transform="translate(-13.925,-49.199001)">
	<path
   style="fill:#ffffff"
   d="m 40.632,49.449 h 343.933 c 14.609,0 26.456,11.845 26.456,26.457 V 349.29 c 0,14.609 -11.847,26.457 -26.456,26.457 H 40.632 c -14.609,0 -26.457,-11.848 -26.457,-26.457 V 75.905 c 0,-14.612 11.848,-26.456 26.457,-26.456 z"
   id="path809"
   inkscape:connector-curvature="0" />
</g>
<g
   id="LWPOLYLINE_84_"
   transform="translate(-13.925,-49.199001)">
	<path
   style="fill:#6b3529"
   d="m 40.632,62.677 h 343.933 c 7.305,0 13.228,5.923 13.228,13.228 V 349.29 c 0,7.305 -5.923,13.229 -13.228,13.229 H 40.632 c -7.305,0 -13.229,-5.924 -13.229,-13.229 V 75.905 c 0.001,-7.304 5.925,-13.228 13.229,-13.228 z"
   id="path812"
   inkscape:connector-curvature="0" />
</g>
<g
   id="LWPOLYLINE_69_"
   transform="translate(-13.925,-49.199001)">
	<rect
   x="113.523"
   y="117.902"
   style="fill:#ffffff"
   width="198.423"
   height="198.42101"
   id="rect815" />
</g>
<g
   id="LWPOLYLINE_70_"
   transform="translate(-13.925,-49.199001)">
	<path
   style="fill:#6b3529"
   d="m 150.717,234.036 1.353,-3.662 c 3.938,-9.088 11.448,-16.154 20.747,-19.541 l 24.676,-9.353 c 3.055,-1.157 4.591,-4.569 3.434,-7.621 -0.661,-1.749 -2.11,-3.079 -3.91,-3.589 -1.508,-0.431 -3.035,-0.795 -4.571,-1.095 -2.792,-0.542 -4.747,-3.068 -4.571,-5.906 0.477,-2.062 0.048,-4.231 -1.178,-5.96 -2.217,-3.793 -3.005,-8.263 -2.197,-12.586 0.554,-1.974 0.836,-4.012 0.855,-6.06 0.564,-2.757 -0.253,-5.615 -2.198,-7.655 -1.41,-4.007 -1.557,-8.357 -0.408,-12.45 0.282,-3.1 1.983,-5.892 4.61,-7.558 3.151,-2.239 6.652,-3.934 10.358,-5.019 10.164,-3.414 21.282,-2.541 30.795,2.417 10.086,11.713 13.043,27.974 7.713,42.486 l -5.573,11.057 c -1.518,3.01 -2.52,6.254 -2.957,9.598 -0.389,2.977 1.012,5.907 3.579,7.471 5.769,1.107 11.234,3.452 16.011,6.871 6.643,3.236 12.323,8.16 16.467,14.283 3.696,4.312 6.799,9.102 9.221,14.24 l -2.772,-0.096 c -2.218,-0.074 -4.386,-0.676 -6.331,-1.752 l -12.985,-6.061 c -5.311,-2.48 -11.458,-2.48 -16.778,0 l -12.985,6.061 c -5.311,2.48 -11.458,2.48 -16.778,0 l -12.985,-6.061 c -5.311,-2.48 -11.458,-2.48 -16.778,0 l -11.905,5.559 c -3.681,1.916 -7.864,2.609 -11.959,1.982 z"
   id="path818"
   inkscape:connector-curvature="0" />
</g>
<g
   id="LWPOLYLINE_71_"
   transform="translate(-13.925,-49.199001)">
	<path
   style="fill:#6b3529"
   d="m 131.77,238.284 13.044,6.086 c 5.32,2.482 11.467,2.482 16.778,0 l 12.984,-6.057 c 5.32,-2.482 11.468,-2.482 16.778,0 l 12.985,6.057 c 5.32,2.482 11.468,2.482 16.778,0 l 12.985,-6.057 c 5.32,-2.482 11.468,-2.482 16.778,0 l 12.985,6.057 c 5.32,2.482 11.467,2.482 16.777,0 l 12.956,-6.045 c 2.636,-1.23 5.516,-1.865 8.424,-1.861 v 23.893 c -2.898,0 -5.769,0.637 -8.395,1.861 l -12.985,6.059 c -5.311,2.482 -11.457,2.482 -16.777,0 l -12.985,-6.059 c -5.311,-2.482 -11.458,-2.482 -16.778,0 l -12.985,6.059 c -5.311,2.482 -11.458,2.482 -16.778,0 l -12.985,-6.059 c -5.311,-2.482 -11.458,-2.482 -16.778,0 l -12.984,6.059 c -5.312,2.482 -11.458,2.482 -16.778,0 l -13.073,-6.102 c -2.597,-1.211 -5.427,-1.848 -8.297,-1.859 v -23.895 c 2.88,0.01 5.72,0.644 8.326,1.863 l 13.044,6.086"
   id="path821"
   inkscape:connector-curvature="0" />
</g>
<g
   id="LWPOLYLINE_72_"
   transform="translate(-13.925,-49.199001)">
	<path
   style="fill:#6b3529"
   d="m 131.77,277.704 13.044,6.084 c 5.32,2.484 11.467,2.484 16.778,0 l 12.984,-6.057 c 5.32,-2.482 11.468,-2.482 16.778,0 l 12.985,6.057 c 5.32,2.484 11.468,2.484 16.778,0 l 12.985,-6.057 c 5.32,-2.482 11.468,-2.482 16.778,0 l 12.985,6.057 c 5.32,2.484 11.467,2.484 16.777,0 l 12.956,-6.041 c 2.636,-1.23 5.516,-1.867 8.424,-1.863 v 23.895 c -2.898,0 -5.769,0.631 -8.395,1.857 l -12.985,6.059 c -5.311,2.48 -11.457,2.48 -16.777,0 l -12.985,-6.059 c -5.311,-2.48 -11.458,-2.48 -16.778,0 l -12.985,6.059 c -5.311,2.48 -11.458,2.48 -16.778,0 l -12.985,-6.059 c -5.311,-2.48 -11.458,-2.48 -16.778,0 l -12.984,6.059 c -5.312,2.48 -11.458,2.48 -16.778,0 l -13.073,-6.098 c -2.597,-1.217 -5.427,-1.848 -8.297,-1.863 v -23.893 c 2.88,0.01 5.72,0.646 8.326,1.863 l 13.044,6.084"
   id="path824"
   inkscape:connector-curvature="0" />
</g>
</svg>