<?xml version="1.0" encoding="iso-8859-1"?>
<!-- Generator: Adobe Illustrator 16.0.0, SVG Export Plug-In . SVG Version: 6.00 Build 0)  -->
<!DOCTYPE svg PUBLIC "-//W3C//DTD SVG 1.1//EN" "http://www.w3.org/Graphics/SVG/1.1/DTD/svg11.dtd">
<svg version="1.1" id="Layer_1" xmlns="http://www.w3.org/2000/svg" xmlns:xlink="http://www.w3.org/1999/xlink" x="0px" y="0px"
	 width="425.197px" height="425.196px" viewBox="0 0 425.197 425.196" style="enable-background:new 0 0 425.197 425.196;"
	 xml:space="preserve">
<g id="LWPOLYLINE_137_">
	<polygon style="fill:#005EB8;stroke:#005EB8;stroke-width:0.5;stroke-miterlimit:10;" points="14.173,279.165 14.173,146.024 
		411.024,146.024 348.941,279.173 	"/>
</g>
<g id="LWPOLYLINE_138_">
	<path style="fill:#FFFFFF;" d="M14.173,271.558V153.632c0-4.203,3.405-7.608,7.608-7.608h377.306c1.104,0,2.202,0.243,3.209,0.713
		c3.812,1.776,5.462,6.302,3.686,10.11L350.99,274.776c-1.252,2.682-3.944,4.396-6.895,4.396l-322.313-0.008
		C17.579,279.165,14.173,275.759,14.173,271.558z"/>
</g>
<g id="LWPOLYLINE_139_">
	<path style="fill:#005EB8;" d="M17.977,271.558V153.632c0-2.102,1.703-3.804,3.805-3.804h377.306c0.552,0,1.098,0.123,1.601,0.356
		c1.909,0.888,2.734,3.15,1.847,5.056l-54.992,117.932c-0.63,1.336-1.972,2.195-3.447,2.195L21.782,275.36
		C19.68,275.36,17.977,273.661,17.977,271.558z"/>
</g>
<g id="LWPOLYLINE_147_">
	<rect x="167.67" y="241.128" style="fill:#FFFFFF;" width="2.854" height="19.02"/>
</g>
<g id="LWPOLYLINE_148_">
	<polygon style="fill:#FFFFFF;" points="154.926,260.147 164.437,260.147 164.437,257.294 157.78,257.294 157.78,241.128 
		154.926,241.128 	"/>
</g>
<g id="LWPOLYLINE_149_">
	<path style="fill:#FFFFFF;" d="M136.094,253.966c0,3.416,2.77,6.182,6.182,6.182c3.416,0,6.182-2.766,6.182-6.182v-12.838h-2.853
		v12.838c0,1.84-1.489,3.328-3.329,3.328c-1.835,0-3.328-1.488-3.328-3.328v-12.838h-2.854V253.966z"/>
</g>
<g id="LWPOLYLINE_150_">
	<path style="fill:#FFFFFF;" d="M117.266,253.966c0,3.416,2.766,6.182,6.182,6.182c3.412,0,6.182-2.766,6.182-6.182v-12.838h-2.853
		v12.838c0,1.84-1.49,3.328-3.329,3.328s-3.329-1.488-3.329-3.328v-12.838h-2.853V253.966z"/>
</g>
<g id="LWPOLYLINE_151_">
	<polygon style="fill:#FFFFFF;" points="106.042,243.979 106.042,260.147 108.896,260.147 108.896,243.979 113.651,243.979 
		113.651,241.128 101.288,241.128 101.288,243.979 	"/>
</g>
<g id="LWPOLYLINE_152_">
	<path style="fill:#FFFFFF;" d="M86.833,247.31v6.656c0,3.416,2.766,6.182,6.183,6.182c3.412,0,6.182-2.766,6.182-6.182v-6.656
		c0-3.414-2.77-6.182-6.182-6.182C89.598,241.128,86.833,243.896,86.833,247.31z"/>
</g>
<g id="LWPOLYLINE_154_">
	<path style="fill:#FFFFFF;" d="M75.801,251.333v8.814h-2.853v-19.02h6.56c0.129,0,0.255,0.004,0.381,0.016
		c2.671,0.209,4.664,2.545,4.454,5.215c0.175,2.232-1.199,4.297-3.328,4.988l-3.057-0.014H75.801z"/>
</g>
<g id="LWPOLYLINE_156_">
	<polygon style="fill:#FFFFFF;" points="57.351,241.128 67.812,241.128 67.812,243.979 60.204,243.979 60.204,248.735 
		65.34,248.735 65.34,251.589 60.204,251.589 60.204,257.294 67.812,257.294 67.812,260.147 57.351,260.147 	"/>
</g>
<g id="LWPOLYLINE_157_">
	<polygon style="fill:#FFFFFF;" points="44.606,260.147 54.117,260.147 54.117,257.294 47.459,257.294 47.459,241.128 
		44.606,241.128 	"/>
</g>
<g id="LWPOLYLINE_136_">
	<rect x="44.606" y="165.044" style="fill:#FFFFFF;" width="228.249" height="57.062"/>
</g>
<g id="LWPOLYLINE_142_">
	<path style="fill:#101820;" d="M206.664,218.302v-38.611c0-2.521-2.046-4.566-4.566-4.566v-1.711c0-2.521-2.042-4.565-4.563-4.565
		h-25.678l-9.385,35.143c-1.063,5.057,2.172,10.018,7.228,11.084c5.056,1.064,10.021-2.172,11.084-7.227
		c0.133-0.629,0.199-1.268,0.202-1.91V187.14h2.892v31.162H206.664z"/>
</g>
<g id="LWPOLYLINE_143_">
	<path style="fill:#FFFFFF;" d="M176.418,205.573v-22.417l3.469-3.423h3.898c0.032-2.514,2.06-4.543,4.573-4.573v-1.711
		l-12.981,0.003l-8.532,32.122c-0.202,2.645,1.776,4.953,4.42,5.156s4.951-1.775,5.153-4.418
		C176.44,206.065,176.44,205.819,176.418,205.573z"/>
</g>
<g id="LWPOLYLINE_144_">
	<rect x="188.933" y="179.733" style="fill:#FFFFFF;" width="12.538" height="7.964"/>
</g>
<g id="LWPOLYLINE_140_">
	<polygon style="fill:#101820;" points="104.839,175.712 130.2,167.578 155.559,175.712 155.559,179.707 130.2,171.569 
		104.839,179.728 	"/>
</g>
<g id="CIRCLE_1_">
	<path style="fill:#101820;" d="M137.808,185.333c0-4.201-3.406-7.608-7.608-7.608c-4.203,0-7.608,3.407-7.608,7.608
		c0,4.203,3.405,7.608,7.608,7.608C134.402,192.941,137.808,189.536,137.808,185.333L137.808,185.333z"/>
</g>
<g id="LWPOLYLINE_141_">
	<path style="fill:#101820;" d="M114.983,218.302h30.433v-1.014c-4.465,0-8.094-3.609-8.115-8.074v-14.371h-19.275v0.509
		c2.804,0,5.073,2.269,5.073,5.071l-0.073,8.705c-0.039,4.445-3.598,8.057-8.042,8.16V218.302z"/>
</g>
<g id="LWPOLYLINE_145_">
	<polyline style="fill:#101820;" points="98.815,212.978 82.609,212.978 82.609,198.14 97.445,198.14 88.542,187.184 
		92.823,187.184 84.549,178.625 87.403,178.625 79.983,166.073 72.568,178.625 75.42,178.625 67.144,187.184 71.424,187.184 
		62.637,198.14 77.473,198.14 77.473,212.978 58.872,212.978 58.872,207.271 64.578,207.271 64.578,202.704 47.459,202.704 
		47.459,207.271 53.166,207.271 53.166,212.978 47.459,212.978 47.459,217.542 98.815,217.542 98.815,212.978 	"/>
</g>
<g id="LWPOLYLINE_146_">
	<path style="fill:#101820;" d="M223.463,209.976l16.465-15.464l-2.583-2.783c-2.745,1.133-5.892,0.602-8.108-1.371
		c-3.182-2.932-5.466-6.711-6.577-10.892c-0.406-1.235-0.343-2.576,0.171-3.771c1.165-2.713,4.312-3.965,7.021-2.799
		c3.629,1.152,6.934,3.144,9.644,5.814c2.541,2.268,3.335,5.912,1.968,9.029l2.843,2.659l5.56-5.222
		c-0.923-2.588-0.224-5.474,1.779-7.352l6.832-6.848c0.675-0.671,1.759-0.668,2.427,0.002c0.664,0.671,0.661,1.755-0.011,2.421
		l-6.828,6.848c-0.336,0.336-0.332,0.878,0,1.212c0.336,0.332,0.878,0.332,1.213-0.002c0-0.002,6.856-6.86,6.856-6.86
		c0.668-0.668,1.752-0.668,2.42,0c0.671,0.667,0.671,1.751,0.004,2.419l-6.854,6.854c-0.336,0.336-0.336,0.878,0,1.212
		c0.329,0.329,0.86,0.334,1.195,0.013l6.787-6.858c0.661-0.67,1.737-0.679,2.409-0.023c0.678,0.659,0.692,1.743,0.035,2.42
		l-6.815,6.881c-1.866,2.014-4.758,2.712-7.339,1.771l-5.094,5.39l15.636,14.619c0.164,0.135,0.322,0.283,0.462,0.441
		c1.468,1.646,1.325,4.17-0.322,5.639c-1.646,1.467-4.171,1.324-5.64-0.324l-14.573-15.682l-14.782,15.639
		c-1.378,1.6-3.767,1.848-5.448,0.566C222.463,214.235,222.125,211.729,223.463,209.976z"/>
</g>
<g id="LWPOLYLINE_153_">
	<path style="fill:#005EB8;" d="M96.343,247.31c0-1.838-1.489-3.33-3.328-3.33c-1.84,0-3.329,1.492-3.329,3.33v6.656
		c0,1.84,1.489,3.328,3.329,3.328c1.839,0,3.328-1.488,3.328-3.328V247.31z"/>
</g>
<g id="LWPOLYLINE_155_">
	<path style="fill:#005EB8;" d="M79.508,248.735c1.104,0,2-0.893,2-1.996v-0.76c0-1.104-0.896-2-2-2h-3.707v4.756H79.508z"/>
</g>
<g id="LWPOLYLINE_158_">
	<polygon style="fill:#FFFFFF;" points="306.501,202.657 329.27,194.429 305.732,244.614 316.06,249.46 339.605,199.274 
		347.829,222.042 354.178,208.513 343.207,178.156 312.851,189.128 	"/>
</g>
</svg>
