<?xml version="1.0" encoding="UTF-8" standalone="no"?>
<!-- Generator: Adobe Illustrator 16.0.0, SVG Export Plug-In . SVG Version: 6.00 Build 0)  -->

<svg
   xmlns:dc="http://purl.org/dc/elements/1.1/"
   xmlns:cc="http://creativecommons.org/ns#"
   xmlns:rdf="http://www.w3.org/1999/02/22-rdf-syntax-ns#"
   xmlns:svg="http://www.w3.org/2000/svg"
   xmlns="http://www.w3.org/2000/svg"
   xmlns:sodipodi="http://sodipodi.sourceforge.net/DTD/sodipodi-0.dtd"
   xmlns:inkscape="http://www.inkscape.org/namespaces/inkscape"
   version="1.1"
   id="Layer_1"
   x="0px"
   y="0px"
   width="397.49341"
   height="133.649"
   viewBox="0 0 397.49342 133.649"
   xml:space="preserve"
   sodipodi:docname="G3.svg"
   inkscape:version="0.92.5 (2060ec1f9f, 2020-04-08)"><metadata
   id="metadata911"><rdf:RDF><cc:Work
       rdf:about=""><dc:format>image/svg+xml</dc:format><dc:type
         rdf:resource="http://purl.org/dc/dcmitype/StillImage" /></cc:Work></rdf:RDF></metadata><defs
   id="defs909" /><sodipodi:namedview
   pagecolor="#ffffff"
   bordercolor="#666666"
   borderopacity="1"
   objecttolerance="10"
   gridtolerance="10"
   guidetolerance="10"
   inkscape:pageopacity="0"
   inkscape:pageshadow="2"
   inkscape:window-width="640"
   inkscape:window-height="480"
   id="namedview907"
   showgrid="false"
   inkscape:zoom="0.55503813"
   inkscape:cx="198.6755"
   inkscape:cy="66.824997"
   inkscape:window-x="0"
   inkscape:window-y="0"
   inkscape:window-maximized="0"
   inkscape:current-layer="Layer_1" />
<g
   id="LWPOLYLINE_137_"
   transform="translate(-13.923,-145.774)">
	<polygon
   style="fill:#005eb8;stroke:#005eb8;stroke-width:0.5;stroke-miterlimit:10"
   points="411.024,146.024 348.941,279.173 14.173,279.165 14.173,146.024 "
   id="polygon834" />
</g>
<g
   id="LWPOLYLINE_138_"
   transform="translate(-13.923,-145.774)">
	<path
   style="fill:#ffffff"
   d="M 14.173,271.558 V 153.632 c 0,-4.203 3.405,-7.608 7.608,-7.608 h 377.306 c 1.104,0 2.202,0.243 3.209,0.713 3.812,1.776 5.462,6.302 3.686,10.11 L 350.99,274.776 c -1.252,2.682 -3.944,4.396 -6.895,4.396 L 21.782,279.164 c -4.203,0.001 -7.609,-3.405 -7.609,-7.606 z"
   id="path837"
   inkscape:connector-curvature="0" />
</g>
<g
   id="LWPOLYLINE_139_"
   transform="translate(-13.923,-145.774)">
	<path
   style="fill:#005eb8"
   d="M 17.977,271.558 V 153.632 c 0,-2.102 1.703,-3.804 3.805,-3.804 h 377.306 c 0.552,0 1.098,0.123 1.601,0.356 1.909,0.888 2.734,3.15 1.847,5.056 l -54.992,117.932 c -0.63,1.336 -1.972,2.195 -3.447,2.195 L 21.782,275.36 c -2.102,0 -3.805,-1.699 -3.805,-3.802 z"
   id="path840"
   inkscape:connector-curvature="0" />
</g>
<g
   id="LWPOLYLINE_147_"
   transform="translate(-13.923,-145.774)">
	<rect
   x="167.67"
   y="241.12801"
   style="fill:#ffffff"
   width="2.8540001"
   height="19.02"
   id="rect843" />
</g>
<g
   id="LWPOLYLINE_148_"
   transform="translate(-13.923,-145.774)">
	<polygon
   style="fill:#ffffff"
   points="164.437,257.294 157.78,257.294 157.78,241.128 154.926,241.128 154.926,260.147 164.437,260.147 "
   id="polygon846" />
</g>
<g
   id="LWPOLYLINE_149_"
   transform="translate(-13.923,-145.774)">
	<path
   style="fill:#ffffff"
   d="m 136.094,253.966 c 0,3.416 2.77,6.182 6.182,6.182 3.416,0 6.182,-2.766 6.182,-6.182 v -12.838 h -2.853 v 12.838 c 0,1.84 -1.489,3.328 -3.329,3.328 -1.835,0 -3.328,-1.488 -3.328,-3.328 v -12.838 h -2.854 z"
   id="path849"
   inkscape:connector-curvature="0" />
</g>
<g
   id="LWPOLYLINE_150_"
   transform="translate(-13.923,-145.774)">
	<path
   style="fill:#ffffff"
   d="m 117.266,253.966 c 0,3.416 2.766,6.182 6.182,6.182 3.412,0 6.182,-2.766 6.182,-6.182 v -12.838 h -2.853 v 12.838 c 0,1.84 -1.49,3.328 -3.329,3.328 -1.839,0 -3.329,-1.488 -3.329,-3.328 v -12.838 h -2.853 z"
   id="path852"
   inkscape:connector-curvature="0" />
</g>
<g
   id="LWPOLYLINE_151_"
   transform="translate(-13.923,-145.774)">
	<polygon
   style="fill:#ffffff"
   points="108.896,260.147 108.896,243.979 113.651,243.979 113.651,241.128 101.288,241.128 101.288,243.979 106.042,243.979 106.042,260.147 "
   id="polygon855" />
</g>
<g
   id="LWPOLYLINE_152_"
   transform="translate(-13.923,-145.774)">
	<path
   style="fill:#ffffff"
   d="m 86.833,247.31 v 6.656 c 0,3.416 2.766,6.182 6.183,6.182 3.412,0 6.182,-2.766 6.182,-6.182 v -6.656 c 0,-3.414 -2.77,-6.182 -6.182,-6.182 -3.418,0 -6.183,2.768 -6.183,6.182 z"
   id="path858"
   inkscape:connector-curvature="0" />
</g>
<g
   id="LWPOLYLINE_154_"
   transform="translate(-13.923,-145.774)">
	<path
   style="fill:#ffffff"
   d="m 75.801,251.333 v 8.814 h -2.853 v -19.02 h 6.56 c 0.129,0 0.255,0.004 0.381,0.016 2.671,0.209 4.664,2.545 4.454,5.215 0.175,2.232 -1.199,4.297 -3.328,4.988 l -3.057,-0.014 h -2.157 z"
   id="path861"
   inkscape:connector-curvature="0" />
</g>
<g
   id="LWPOLYLINE_156_"
   transform="translate(-13.923,-145.774)">
	<polygon
   style="fill:#ffffff"
   points="67.812,243.979 60.204,243.979 60.204,248.735 65.34,248.735 65.34,251.589 60.204,251.589 60.204,257.294 67.812,257.294 67.812,260.147 57.351,260.147 57.351,241.128 67.812,241.128 "
   id="polygon864" />
</g>
<g
   id="LWPOLYLINE_157_"
   transform="translate(-13.923,-145.774)">
	<polygon
   style="fill:#ffffff"
   points="54.117,257.294 47.459,257.294 47.459,241.128 44.606,241.128 44.606,260.147 54.117,260.147 "
   id="polygon867" />
</g>
<g
   id="LWPOLYLINE_136_"
   transform="translate(-13.923,-145.774)">
	<rect
   x="44.605999"
   y="165.04401"
   style="fill:#ffffff"
   width="228.24899"
   height="57.062"
   id="rect870" />
</g>
<g
   id="LWPOLYLINE_142_"
   transform="translate(-13.923,-145.774)">
	<path
   style="fill:#101820"
   d="m 206.664,218.302 v -38.611 c 0,-2.521 -2.046,-4.566 -4.566,-4.566 v -1.711 c 0,-2.521 -2.042,-4.565 -4.563,-4.565 h -25.678 l -9.385,35.143 c -1.063,5.057 2.172,10.018 7.228,11.084 5.056,1.064 10.021,-2.172 11.084,-7.227 0.133,-0.629 0.199,-1.268 0.202,-1.91 V 187.14 h 2.892 v 31.162 z"
   id="path873"
   inkscape:connector-curvature="0" />
</g>
<g
   id="LWPOLYLINE_143_"
   transform="translate(-13.923,-145.774)">
	<path
   style="fill:#ffffff"
   d="m 176.418,205.573 v -22.417 l 3.469,-3.423 h 3.898 c 0.032,-2.514 2.06,-4.543 4.573,-4.573 v -1.711 l -12.981,0.003 -8.532,32.122 c -0.202,2.645 1.776,4.953 4.42,5.156 2.644,0.203 4.951,-1.775 5.153,-4.418 0.022,-0.247 0.022,-0.493 0,-0.739 z"
   id="path876"
   inkscape:connector-curvature="0" />
</g>
<g
   id="LWPOLYLINE_144_"
   transform="translate(-13.923,-145.774)">
	<rect
   x="188.933"
   y="179.733"
   style="fill:#ffffff"
   width="12.538"
   height="7.9640002"
   id="rect879" />
</g>
<g
   id="LWPOLYLINE_140_"
   transform="translate(-13.923,-145.774)">
	<polygon
   style="fill:#101820"
   points="155.559,175.712 155.559,179.707 130.2,171.569 104.839,179.728 104.839,175.712 130.2,167.578 "
   id="polygon882" />
</g>
<g
   id="CIRCLE_1_"
   transform="translate(-13.923,-145.774)">
	<path
   style="fill:#101820"
   d="m 137.808,185.333 c 0,-4.201 -3.406,-7.608 -7.608,-7.608 -4.203,0 -7.608,3.407 -7.608,7.608 0,4.203 3.405,7.608 7.608,7.608 4.202,0 7.608,-3.405 7.608,-7.608 z"
   id="path885"
   inkscape:connector-curvature="0" />
</g>
<g
   id="LWPOLYLINE_141_"
   transform="translate(-13.923,-145.774)">
	<path
   style="fill:#101820"
   d="m 114.983,218.302 h 30.433 v -1.014 c -4.465,0 -8.094,-3.609 -8.115,-8.074 v -14.371 h -19.275 v 0.509 c 2.804,0 5.073,2.269 5.073,5.071 l -0.073,8.705 c -0.039,4.445 -3.598,8.057 -8.042,8.16 v 1.014 z"
   id="path888"
   inkscape:connector-curvature="0" />
</g>
<g
   id="LWPOLYLINE_145_"
   transform="translate(-13.923,-145.774)">
	<polyline
   style="fill:#101820"
   points="98.815,212.978 82.609,212.978 82.609,198.14 97.445,198.14 88.542,187.184    92.823,187.184 84.549,178.625 87.403,178.625 79.983,166.073 72.568,178.625 75.42,178.625 67.144,187.184 71.424,187.184    62.637,198.14 77.473,198.14 77.473,212.978 58.872,212.978 58.872,207.271 64.578,207.271 64.578,202.704 47.459,202.704    47.459,207.271 53.166,207.271 53.166,212.978 47.459,212.978 47.459,217.542 98.815,217.542 98.815,212.978  "
   id="polyline891" />
</g>
<g
   id="LWPOLYLINE_146_"
   transform="translate(-13.923,-145.774)">
	<path
   style="fill:#101820"
   d="m 223.463,209.976 16.465,-15.464 -2.583,-2.783 c -2.745,1.133 -5.892,0.602 -8.108,-1.371 -3.182,-2.932 -5.466,-6.711 -6.577,-10.892 -0.406,-1.235 -0.343,-2.576 0.171,-3.771 1.165,-2.713 4.312,-3.965 7.021,-2.799 3.629,1.152 6.934,3.144 9.644,5.814 2.541,2.268 3.335,5.912 1.968,9.029 l 2.843,2.659 5.56,-5.222 c -0.923,-2.588 -0.224,-5.474 1.779,-7.352 l 6.832,-6.848 c 0.675,-0.671 1.759,-0.668 2.427,0.002 0.664,0.671 0.661,1.755 -0.011,2.421 l -6.828,6.848 c -0.336,0.336 -0.332,0.878 0,1.212 0.336,0.332 0.878,0.332 1.213,-0.002 0,-0.002 6.856,-6.86 6.856,-6.86 0.668,-0.668 1.752,-0.668 2.42,0 0.671,0.667 0.671,1.751 0.004,2.419 l -6.854,6.854 c -0.336,0.336 -0.336,0.878 0,1.212 0.329,0.329 0.86,0.334 1.195,0.013 l 6.787,-6.858 c 0.661,-0.67 1.737,-0.679 2.409,-0.023 0.678,0.659 0.692,1.743 0.035,2.42 l -6.815,6.881 c -1.866,2.014 -4.758,2.712 -7.339,1.771 l -5.094,5.39 15.636,14.619 c 0.164,0.135 0.322,0.283 0.462,0.441 1.468,1.646 1.325,4.17 -0.322,5.639 -1.646,1.467 -4.171,1.324 -5.64,-0.324 l -14.573,-15.682 -14.782,15.639 c -1.378,1.6 -3.767,1.848 -5.448,0.566 -1.753,-1.339 -2.091,-3.845 -0.753,-5.598 z"
   id="path894"
   inkscape:connector-curvature="0" />
</g>
<g
   id="LWPOLYLINE_153_"
   transform="translate(-13.923,-145.774)">
	<path
   style="fill:#005eb8"
   d="m 96.343,247.31 c 0,-1.838 -1.489,-3.33 -3.328,-3.33 -1.84,0 -3.329,1.492 -3.329,3.33 v 6.656 c 0,1.84 1.489,3.328 3.329,3.328 1.839,0 3.328,-1.488 3.328,-3.328 z"
   id="path897"
   inkscape:connector-curvature="0" />
</g>
<g
   id="LWPOLYLINE_155_"
   transform="translate(-13.923,-145.774)">
	<path
   style="fill:#005eb8"
   d="m 79.508,248.735 c 1.104,0 2,-0.893 2,-1.996 v -0.76 c 0,-1.104 -0.896,-2 -2,-2 h -3.707 v 4.756 z"
   id="path900"
   inkscape:connector-curvature="0" />
</g>
<g
   id="LWPOLYLINE_158_"
   transform="translate(-13.923,-145.774)">
	<polygon
   style="fill:#ffffff"
   points="305.732,244.614 316.06,249.46 339.605,199.274 347.829,222.042 354.178,208.513 343.207,178.156 312.851,189.128 306.501,202.657 329.27,194.429 "
   id="polygon903" />
</g>
</svg>