<?xml version="1.0" encoding="UTF-8" standalone="no"?>
<!-- Generator: Adobe Illustrator 16.0.0, SVG Export Plug-In . SVG Version: 6.00 Build 0)  -->

<svg
   xmlns:dc="http://purl.org/dc/elements/1.1/"
   xmlns:cc="http://creativecommons.org/ns#"
   xmlns:rdf="http://www.w3.org/1999/02/22-rdf-syntax-ns#"
   xmlns:svg="http://www.w3.org/2000/svg"
   xmlns="http://www.w3.org/2000/svg"
   xmlns:sodipodi="http://sodipodi.sourceforge.net/DTD/sodipodi-0.dtd"
   xmlns:inkscape="http://www.inkscape.org/namespaces/inkscape"
   version="1.1"
   id="Layer_1"
   x="0px"
   y="0px"
   width="397.34601"
   height="326.798"
   viewBox="0 0 397.34602 326.79799"
   xml:space="preserve"
   sodipodi:docname="G30.svg"
   inkscape:version="0.92.5 (2060ec1f9f, 2020-04-08)"><metadata
   id="metadata942"><rdf:RDF><cc:Work
       rdf:about=""><dc:format>image/svg+xml</dc:format><dc:type
         rdf:resource="http://purl.org/dc/dcmitype/StillImage" /></cc:Work></rdf:RDF></metadata><defs
   id="defs940" /><sodipodi:namedview
   pagecolor="#ffffff"
   bordercolor="#666666"
   borderopacity="1"
   objecttolerance="10"
   gridtolerance="10"
   guidetolerance="10"
   inkscape:pageopacity="0"
   inkscape:pageshadow="2"
   inkscape:window-width="640"
   inkscape:window-height="480"
   id="namedview938"
   showgrid="false"
   inkscape:zoom="0.55503813"
   inkscape:cx="198.6735"
   inkscape:cy="163.399"
   inkscape:window-x="0"
   inkscape:window-y="0"
   inkscape:window-maximized="0"
   inkscape:current-layer="Layer_1" />
<g
   id="LWPOLYLINE_85_"
   transform="translate(-13.925,-49.199001)">
	
		<rect
   x="14.175"
   y="49.449001"
   style="fill:#6b3529;stroke:#6b3529;stroke-width:0.5;stroke-miterlimit:10"
   width="396.84601"
   height="326.298"
   id="rect913" />
</g>
<g
   id="LWPOLYLINE_83_"
   transform="translate(-13.925,-49.199001)">
	<path
   style="fill:#ffffff"
   d="m 40.632,49.449 h 343.933 c 14.609,0 26.456,11.845 26.456,26.457 V 349.29 c 0,14.609 -11.847,26.457 -26.456,26.457 H 40.632 c -14.609,0 -26.457,-11.848 -26.457,-26.457 V 75.905 c 0,-14.612 11.848,-26.456 26.457,-26.456 z"
   id="path916"
   inkscape:connector-curvature="0" />
</g>
<g
   id="LWPOLYLINE_84_"
   transform="translate(-13.925,-49.199001)">
	<path
   style="fill:#6b3529"
   d="m 40.632,62.677 h 343.933 c 7.305,0 13.228,5.923 13.228,13.228 V 349.29 c 0,7.305 -5.923,13.229 -13.228,13.229 H 40.632 c -7.305,0 -13.229,-5.924 -13.229,-13.229 V 75.905 c 0.001,-7.304 5.925,-13.228 13.229,-13.228 z"
   id="path919"
   inkscape:connector-curvature="0" />
</g>
<g
   id="LWPOLYLINE_76_"
   transform="translate(-13.925,-49.199001)">
	<rect
   x="113.523"
   y="117.902"
   style="fill:#ffffff"
   width="198.423"
   height="198.42101"
   id="rect922" />
</g>
<g
   id="LWPOLYLINE_77_"
   transform="translate(-13.925,-49.199001)">
	<path
   style="fill:#6b3529"
   d="m 282.854,235.474 -3.006,5.377 c -3.346,4.521 -8.151,7.74 -13.607,9.109 l -18.705,3.918 c -11.117,11.045 -24.521,19.512 -39.266,24.801 l 5.019,2.744 c 5.778,1.279 11.643,2.174 17.537,2.676 l -5.933,3.982 -9.144,3.799 c -8.899,2.865 -18.655,0.881 -25.736,-5.238 l -36.105,4.119 c -3.687,0.424 -7.411,0.438 -11.098,0.055 -3.521,-1.057 -6.818,-2.719 -9.756,-4.912 -0.516,-1.172 -0.778,-2.428 -0.788,-3.701 -0.059,-1.041 0.623,-1.975 1.625,-2.232 2.207,-0.434 4.503,0.02 6.38,1.264 2.52,1.469 5.563,1.752 8.307,0.77 l 8.783,-2.322 -9.571,-2.201 c -4.805,-0.486 -9.629,-0.9 -14.453,-1.234 -0.253,-0.059 -0.506,-0.148 -0.739,-0.273 -1.449,-0.764 -2.014,-2.559 -1.255,-4.012 0.778,-1.551 1.644,-3.064 2.577,-4.531 2.918,-3.846 6.8,-6.869 11.234,-8.77 l 12.888,-5.824 38.615,-23.195 3.005,-5.326 c 4.056,-7.199 8.881,-13.943 14.386,-20.104 l 14.347,6.025 1.42,6.291 28.032,-16.31 c 7.12,-3.136 11.536,-10.358 11.099,-18.123 2.548,-1.072 4.357,-3.397 4.766,-6.13 1.061,-2.181 0.992,-4.747 -0.185,-6.87 -1.109,-1.683 -2.714,-2.981 -4.591,-3.723 l -4.076,-0.698 -6.166,-30.69 c 7.577,2.835 14.249,7.643 19.346,13.926 11.429,14.398 16.243,32.952 13.258,51.092 -4.027,14.738 -12.597,27.834 -24.482,37.432 l 16.038,-0.961 -3.006,5.377"
   id="path925"
   inkscape:connector-curvature="0" />
</g>
<g
   id="LWPOLYLINE_79_"
   transform="translate(-13.925,-49.199001)">
	<path
   style="fill:#6b3529"
   d="m 227.129,117.902 h -1.526 l -94.349,150.765 c -0.34,0.881 -0.175,1.879 0.448,2.59 0.72,-1.619 1.644,-3.145 2.723,-4.545 z"
   id="path928"
   inkscape:connector-curvature="0" />
</g>
<g
   id="CIRCLE_1_"
   transform="translate(-13.925,-49.199001)">
	<path
   style="fill:#ffffff"
   d="m 152.08,268.858 c 0,-1.244 -1.012,-2.254 -2.257,-2.254 -1.245,0 -2.257,1.01 -2.257,2.254 0,1.246 1.012,2.258 2.257,2.258 1.245,0 2.257,-1.012 2.257,-2.258 z"
   id="path931"
   inkscape:connector-curvature="0" />
</g>
<g
   id="LWPOLYLINE_78_"
   transform="translate(-13.925,-49.199001)">
	<path
   style="fill:#ffffff"
   d="m 174.752,284.167 0.934,-23.943 c 21.33,-6.537 42.038,-14.969 61.861,-25.191 6.993,-3.918 13.627,-8.441 19.832,-13.521 9.863,-8.022 17.692,-18.268 22.848,-29.898 l -6.595,14.318 c -8.354,14.314 -20.591,25.973 -35.298,33.627 -17.828,11.223 -36.854,20.428 -56.726,27.449 l -1.196,4.137 c -1.312,4.561 -3.218,8.936 -5.66,13.022 z"
   id="path934"
   inkscape:connector-curvature="0" />
</g>
</svg>