<?xml version="1.0" encoding="UTF-8" standalone="no"?>
<!-- Generator: Adobe Illustrator 16.0.0, SVG Export Plug-In . SVG Version: 6.00 Build 0)  -->

<svg
   xmlns:dc="http://purl.org/dc/elements/1.1/"
   xmlns:cc="http://creativecommons.org/ns#"
   xmlns:rdf="http://www.w3.org/1999/02/22-rdf-syntax-ns#"
   xmlns:svg="http://www.w3.org/2000/svg"
   xmlns="http://www.w3.org/2000/svg"
   xmlns:sodipodi="http://sodipodi.sourceforge.net/DTD/sodipodi-0.dtd"
   xmlns:inkscape="http://www.inkscape.org/namespaces/inkscape"
   version="1.1"
   id="Layer_1"
   x="0px"
   y="0px"
   width="397.345"
   height="326.798"
   viewBox="0 0 397.34501 326.79799"
   xml:space="preserve"
   sodipodi:docname="G31.svg"
   inkscape:version="0.92.5 (2060ec1f9f, 2020-04-08)"><metadata
   id="metadata967"><rdf:RDF><cc:Work
       rdf:about=""><dc:format>image/svg+xml</dc:format><dc:type
         rdf:resource="http://purl.org/dc/dcmitype/StillImage" /></cc:Work></rdf:RDF></metadata><defs
   id="defs965" /><sodipodi:namedview
   pagecolor="#ffffff"
   bordercolor="#666666"
   borderopacity="1"
   objecttolerance="10"
   gridtolerance="10"
   guidetolerance="10"
   inkscape:pageopacity="0"
   inkscape:pageshadow="2"
   inkscape:window-width="640"
   inkscape:window-height="480"
   id="namedview963"
   showgrid="false"
   inkscape:zoom="0.55503813"
   inkscape:cx="198.6725"
   inkscape:cy="163.399"
   inkscape:window-x="0"
   inkscape:window-y="0"
   inkscape:window-maximized="0"
   inkscape:current-layer="Layer_1" />
<g
   id="LWPOLYLINE_85_"
   transform="translate(-13.926,-49.199001)">
	
		<rect
   x="14.176"
   y="49.449001"
   style="fill:#6b3529;stroke:#6b3529;stroke-width:0.5;stroke-miterlimit:10"
   width="396.845"
   height="326.298"
   id="rect944" />
</g>
<g
   id="LWPOLYLINE_83_"
   transform="translate(-13.926,-49.199001)">
	<path
   style="fill:#ffffff"
   d="m 40.632,49.449 h 343.934 c 14.609,0 26.455,11.845 26.455,26.457 V 349.29 c 0,14.609 -11.846,26.457 -26.455,26.457 H 40.632 c -14.609,0 -26.457,-11.848 -26.457,-26.457 V 75.905 C 14.176,61.293 26.023,49.449 40.632,49.449 Z"
   id="path947"
   inkscape:connector-curvature="0" />
</g>
<g
   id="LWPOLYLINE_84_"
   transform="translate(-13.926,-49.199001)">
	<path
   style="fill:#6b3529"
   d="m 40.632,62.677 h 343.934 c 7.305,0 13.227,5.923 13.227,13.228 V 349.29 c 0,7.305 -5.922,13.229 -13.227,13.229 H 40.632 c -7.305,0 -13.228,-5.924 -13.228,-13.229 V 75.905 c 0,-7.304 5.924,-13.228 13.228,-13.228 z"
   id="path950"
   inkscape:connector-curvature="0" />
</g>
<g
   id="LWPOLYLINE_77_"
   transform="translate(-13.926,-49.199001)">
	<rect
   x="113.523"
   y="117.902"
   style="fill:#ffffff"
   width="198.423"
   height="198.42101"
   id="rect953" />
</g>
<g
   id="LWPOLYLINE_78_"
   transform="translate(-13.926,-49.199001)">
	<path
   style="fill:#6b3529"
   d="m 237.236,179.231 -5.311,3.881 -3.939,-0.499 -29.685,20.618 2.489,6.675 7.188,-0.36 2.296,6.447 -26.32,3.041 -18.724,-4.277 -3.064,-6.455 18.607,3.377 44.314,-30.354 -16.973,-0.659 -17.994,-6.064 5.651,23.431 -15.29,11.074 -22.089,-4.222 -21.156,57.47 c 1.372,0.686 2.052,2.252 1.625,3.723 -0.486,1.684 -2.247,2.652 -3.93,2.164 l -0.856,2.738 -2.033,1.098 -0.642,-2.607 0.924,-2.234 c -1.119,-0.637 -1.731,-1.896 -1.547,-3.174 0.253,-1.709 1.838,-2.893 3.55,-2.643 l 21.603,-57.463 -29.199,53.773 c 0.048,0.031 0.107,0.066 0.155,0.1 1.43,0.992 1.78,2.957 0.788,4.385 -0.992,1.43 -2.957,1.785 -4.387,0.789 l -1.041,2.084 -1.683,0.781 -0.185,-2.922 0.992,-1.734 c -0.477,-0.137 -0.905,-0.393 -1.245,-0.744 -1.07,-1.109 -1.041,-2.879 0.068,-3.953 1.109,-1.078 2.879,-1.049 3.949,0.061 l 29.667,-54.572 -4.844,-8.372 5.272,-26.218 6.497,-6.208 1.187,-5.376 c -2.179,-2.558 -3.453,-5.768 -3.608,-9.128 -0.272,-0.866 -0.418,-1.765 -0.457,-2.675 -0.194,-5.646 4.222,-10.388 9.862,-10.59 3.055,-0.428 6.089,0.917 7.82,3.468 2.578,3.149 3.404,7.375 2.208,11.261 l -1.536,6.945 12.178,3.874 22.905,11.516 21.205,2.833 2.781,0.931 76.49,-52.641 -1.041,3.711 -73.668,50.654 0.631,0.873 c 0.02,0.031 0.049,0.063 0.068,0.095 0.489,0.768 0.256,1.787 -0.523,2.273"
   id="path956"
   inkscape:connector-curvature="0" />
</g>
<g
   id="LWPOLYLINE_79_"
   transform="translate(-13.926,-49.199001)">
	<path
   style="fill:#6b3529"
   d="m 205.731,220.204 15.768,22.082 5.396,32.992 3.512,1.395 43.303,-13.389 8.316,-8.563 -0.078,6.291 c -0.029,2.748 -2.061,5.064 -4.785,5.459 l -39.139,12.221 2.908,0.582 0.438,1.576 50.295,-16.123 8.541,-8.43 -0.76,6.857 c -0.271,2.492 -2.275,4.445 -4.775,4.658 l -132.544,43.953 -8.646,-1.328 64.867,-21.434 -1.303,-3.291 -73.33,23.479 -8.618,-1.137 57.29,-18.842 -6.283,-36.586 -18.228,-33.793 18.733,3.154 z"
   id="path959"
   inkscape:connector-curvature="0" />
</g>
</svg>