<?xml version="1.0" encoding="UTF-8" standalone="no"?>
<!-- Generator: Adobe Illustrator 16.0.0, SVG Export Plug-In . SVG Version: 6.00 Build 0)  -->

<svg
   xmlns:dc="http://purl.org/dc/elements/1.1/"
   xmlns:cc="http://creativecommons.org/ns#"
   xmlns:rdf="http://www.w3.org/1999/02/22-rdf-syntax-ns#"
   xmlns:svg="http://www.w3.org/2000/svg"
   xmlns="http://www.w3.org/2000/svg"
   xmlns:sodipodi="http://sodipodi.sourceforge.net/DTD/sodipodi-0.dtd"
   xmlns:inkscape="http://www.inkscape.org/namespaces/inkscape"
   version="1.1"
   id="Layer_1"
   x="0px"
   y="0px"
   width="396.84601"
   height="326.298"
   viewBox="0 0 396.84602 326.29799"
   xml:space="preserve"
   sodipodi:docname="G32.svg"
   inkscape:version="0.92.5 (2060ec1f9f, 2020-04-08)"><metadata
   id="metadata1001"><rdf:RDF><cc:Work
       rdf:about=""><dc:format>image/svg+xml</dc:format><dc:type
         rdf:resource="http://purl.org/dc/dcmitype/StillImage" /></cc:Work></rdf:RDF></metadata><defs
   id="defs999" /><sodipodi:namedview
   pagecolor="#ffffff"
   bordercolor="#666666"
   borderopacity="1"
   objecttolerance="10"
   gridtolerance="10"
   guidetolerance="10"
   inkscape:pageopacity="0"
   inkscape:pageshadow="2"
   inkscape:window-width="640"
   inkscape:window-height="480"
   id="namedview997"
   showgrid="false"
   inkscape:zoom="0.55503813"
   inkscape:cx="198.4235"
   inkscape:cy="163.149"
   inkscape:window-x="0"
   inkscape:window-y="0"
   inkscape:window-maximized="0"
   inkscape:current-layer="Layer_1" />
<g
   id="LWPOLYLINE_87_"
   transform="translate(-14.175,-49.449)">
	<rect
   x="14.175"
   y="49.449001"
   style="fill:#6b3529"
   width="396.84601"
   height="326.298"
   id="rect969" />
</g>
<g
   id="LWPOLYLINE_85_"
   transform="translate(-14.175,-49.449)">
	<path
   style="fill:#ffffff"
   d="m 40.632,49.449 h 343.933 c 14.609,0 26.456,11.845 26.456,26.457 V 349.29 c 0,14.609 -11.847,26.457 -26.456,26.457 H 40.632 c -14.609,0 -26.457,-11.848 -26.457,-26.457 V 75.905 c 0,-14.612 11.848,-26.456 26.457,-26.456 z"
   id="path972"
   inkscape:connector-curvature="0" />
</g>
<g
   id="LWPOLYLINE_86_"
   transform="translate(-14.175,-49.449)">
	<path
   style="fill:#6b3529"
   d="m 40.632,62.677 h 343.933 c 7.305,0 13.228,5.923 13.228,13.228 V 349.29 c 0,7.305 -5.923,13.229 -13.228,13.229 H 40.632 c -7.305,0 -13.229,-5.924 -13.229,-13.229 V 75.905 c 0.001,-7.304 5.925,-13.228 13.229,-13.228 z"
   id="path975"
   inkscape:connector-curvature="0" />
</g>
<g
   id="LWPOLYLINE_73_"
   transform="translate(-14.175,-49.449)">
	<rect
   x="113.523"
   y="117.902"
   style="fill:#ffffff"
   width="198.423"
   height="198.42101"
   id="rect978" />
</g>
<g
   id="CIRCLE_1_"
   transform="translate(-14.175,-49.449)">
	<path
   style="fill:#6b3529"
   d="m 219.728,153.387 c 0,-7.052 -5.71,-12.771 -12.771,-12.771 -7.052,0 -12.771,5.719 -12.771,12.771 0,7.055 5.719,12.771 12.771,12.771 7.061,0.001 12.771,-5.716 12.771,-12.771 z"
   id="path981"
   inkscape:connector-curvature="0" />
</g>
<g
   id="LWPOLYLINE_78_"
   transform="translate(-14.175,-49.449)">
	<path
   style="fill:#6b3529"
   d="m 220.244,226.536 11.37,-7.37 c 2.169,-3.372 2.577,-7.587 1.09,-11.312 l -7.14,-22.279 8.15,2.977 5.71,17.855 c 0.379,2.643 2.83,4.477 5.476,4.095 1.839,-0.265 3.356,-1.556 3.92,-3.323 l 53.127,19.631 -0.632,-3.736 -52.709,-19.473 -6.935,-21.603 c -0.682,-2.103 -2.325,-3.752 -4.426,-4.435 l -22.614,-8.357 c -6.789,-1.831 -13.88,1.704 -16.496,8.231 l -0.604,1.631 11.293,35.041 -12.889,19.857 c -1.556,2.406 -2.393,5.215 -2.393,8.084 l -0.029,26.398 c -0.106,3.693 2.802,6.77 6.498,6.871 3.696,0.104 6.77,-2.809 6.867,-6.498 0.01,-0.125 0.01,-0.248 0,-0.373 V 241.19 Z"
   id="path984"
   inkscape:connector-curvature="0" />
</g>
<g
   id="LWPOLYLINE_79_"
   transform="translate(-14.175,-49.449)">
	<path
   style="fill:#6b3529"
   d="m 170.686,204.624 c -2.461,1.302 -3.395,4.352 -2.101,6.813 0.865,1.623 2.538,2.652 4.377,2.684 l 14.823,61.943 3.171,-0.818 -14.794,-61.908 21.924,-6.957 2.314,-6.271 -4.961,-15.393 -5.028,13.62 z"
   id="path987"
   inkscape:connector-curvature="0" />
</g>
<g
   id="LWPOLYLINE_80_"
   transform="translate(-14.175,-49.449)">
	<path
   style="fill:#6b3529"
   d="m 134.708,285.179 h 156.881 v -6.387 H 134.066 c -3.979,0 -7.402,-2.811 -8.171,-6.709 -0.204,-1.006 -1.177,-1.658 -2.179,-1.461 -0.855,0.17 -1.479,0.91 -1.498,1.777 -0.155,6.898 5.312,12.619 12.207,12.773 0.098,0.007 0.186,0.007 0.283,0.007 z"
   id="path990"
   inkscape:connector-curvature="0" />
</g>
<g
   id="LWPOLYLINE_81_"
   transform="translate(-14.175,-49.449)">
	<path
   style="fill:#6b3529"
   d="m 235.008,220.754 c -0.233,0.387 -0.477,0.767 -0.749,1.131 l -11.584,7.517 -1.323,1.447 3.122,12.129 14.065,25.947 0.554,1.291 c 1.994,3.152 6.167,4.094 9.318,2.1 3.112,-1.971 4.075,-6.08 2.149,-9.227 l -12.518,-23.115 z"
   id="path993"
   inkscape:connector-curvature="0" />
</g>
</svg>