<?xml version="1.0" encoding="UTF-8" standalone="no"?>
<!-- Generator: Adobe Illustrator 16.0.0, SVG Export Plug-In . SVG Version: 6.00 Build 0)  -->

<svg
   xmlns:dc="http://purl.org/dc/elements/1.1/"
   xmlns:cc="http://creativecommons.org/ns#"
   xmlns:rdf="http://www.w3.org/1999/02/22-rdf-syntax-ns#"
   xmlns:svg="http://www.w3.org/2000/svg"
   xmlns="http://www.w3.org/2000/svg"
   xmlns:sodipodi="http://sodipodi.sourceforge.net/DTD/sodipodi-0.dtd"
   xmlns:inkscape="http://www.inkscape.org/namespaces/inkscape"
   version="1.1"
   id="Layer_1"
   x="0px"
   y="0px"
   width="397.34601"
   height="326.798"
   viewBox="0 0 397.34602 326.79799"
   xml:space="preserve"
   sodipodi:docname="G34.svg"
   inkscape:version="0.92.5 (2060ec1f9f, 2020-04-08)"><metadata
   id="metadata1051"><rdf:RDF><cc:Work
       rdf:about=""><dc:format>image/svg+xml</dc:format><dc:type
         rdf:resource="http://purl.org/dc/dcmitype/StillImage" /></cc:Work></rdf:RDF></metadata><defs
   id="defs1049" /><sodipodi:namedview
   pagecolor="#ffffff"
   bordercolor="#666666"
   borderopacity="1"
   objecttolerance="10"
   gridtolerance="10"
   guidetolerance="10"
   inkscape:pageopacity="0"
   inkscape:pageshadow="2"
   inkscape:window-width="640"
   inkscape:window-height="480"
   id="namedview1047"
   showgrid="false"
   inkscape:zoom="0.55503813"
   inkscape:cx="198.6735"
   inkscape:cy="163.399"
   inkscape:window-x="0"
   inkscape:window-y="0"
   inkscape:window-maximized="0"
   inkscape:current-layer="Layer_1" />
<g
   id="LWPOLYLINE_81_"
   transform="translate(-13.925,-49.199001)">
	
		<rect
   x="14.175"
   y="49.449001"
   style="fill:#6b3529;stroke:#6b3529;stroke-width:0.5;stroke-miterlimit:10"
   width="396.84601"
   height="326.298"
   id="rect1031" />
</g>
<g
   id="LWPOLYLINE_79_"
   transform="translate(-13.925,-49.199001)">
	<path
   style="fill:#ffffff"
   d="m 40.632,49.449 h 343.933 c 14.609,0 26.456,11.845 26.456,26.457 V 349.29 c 0,14.609 -11.847,26.457 -26.456,26.457 H 40.632 c -14.609,0 -26.457,-11.848 -26.457,-26.457 V 75.905 c 0,-14.612 11.848,-26.456 26.457,-26.456 z"
   id="path1034"
   inkscape:connector-curvature="0" />
</g>
<g
   id="LWPOLYLINE_80_"
   transform="translate(-13.925,-49.199001)">
	<path
   style="fill:#6b3529"
   d="m 40.632,62.677 h 343.933 c 7.305,0 13.228,5.923 13.228,13.228 V 349.29 c 0,7.305 -5.923,13.229 -13.228,13.229 H 40.632 c -7.305,0 -13.229,-5.924 -13.229,-13.229 V 75.905 c 0.001,-7.304 5.925,-13.228 13.229,-13.228 z"
   id="path1037"
   inkscape:connector-curvature="0" />
</g>
<g
   id="LWPOLYLINE_74_"
   transform="translate(-13.925,-49.199001)">
	<rect
   x="113.523"
   y="117.902"
   style="fill:#ffffff"
   width="198.423"
   height="198.42101"
   id="rect1040" />
</g>
<g
   id="LWPOLYLINE_75_"
   transform="translate(-13.925,-49.199001)">
	<path
   style="fill:#6b3529"
   d="m 222.393,241.276 v 39.869 h 67.454 v 22.037 H 135.641 v -22.037 h 68.009 v -40.594 c -1.459,-0.158 -2.908,-0.348 -4.367,-0.568 l -22.079,6.553 5.252,19.441 -12.46,2.84 -3.726,-18.35 c -0.097,-0.488 -0.32,-0.939 -0.651,-1.311 -1.343,-2.066 -2.218,-4.398 -2.577,-6.834 -0.37,-1.199 -0.292,-2.488 0.214,-3.633 0.603,-1.072 1.565,-1.896 2.714,-2.332 l 4.678,-1.836 3.064,-2.402 c 1.527,-1.207 1.906,-3.373 0.875,-5.027 l -16.398,-24.902 -18.588,9.832 -5.895,-4.151 c -0.855,-0.62 -1.04,-1.788 -0.438,-2.622 l 1.313,-3.277 13.325,-19.791 -3.307,-6.344 5.466,-0.681 3.969,5.846 h 17.926 l 23.83,23.591 c 0.895,0.891 2.033,1.498 3.278,1.748 l 4.581,0.213 v -40.215 h -68.125 l 77.161,-41.863 77.161,41.863 h -67.454 v 41.073 l 0.506,0.021 c 1.789,0.084 3.579,-0.213 5.242,-0.872 l 17.051,-3.714 c 1.469,-0.32 2.996,-0.168 4.377,0.436 l 13.111,9.832 4.153,0.873 3.278,0.438 31.65,8.27 -5.418,10.299 -26.67,-9.832 -2.617,-0.436 -2.412,16.383 c -0.33,1.08 -0.301,2.236 0.078,3.303 l 4.416,9.088 c 0.555,1.072 0.545,2.355 -0.039,3.418 l -8.656,16.041 -9.99,-3.678 4.776,-14.473 c 0.555,-0.807 0.341,-1.906 -0.467,-2.455 -0.049,-0.037 -0.107,-0.07 -0.175,-0.104 l -1.965,-1.967 c -0.788,-1.309 -1.596,-2.605 -2.422,-3.895 -0.564,-1.861 -2.296,-3.117 -4.241,-3.078 l -19.57,-0.016 c -1.33,0 -2.663,-0.008 -3.995,-0.018 z"
   id="path1043"
   inkscape:connector-curvature="0" />
</g>
</svg>