<?xml version="1.0" encoding="UTF-8" standalone="no"?>
<!-- Generator: Adobe Illustrator 16.0.0, SVG Export Plug-In . SVG Version: 6.00 Build 0)  -->

<svg
   xmlns:dc="http://purl.org/dc/elements/1.1/"
   xmlns:cc="http://creativecommons.org/ns#"
   xmlns:rdf="http://www.w3.org/1999/02/22-rdf-syntax-ns#"
   xmlns:svg="http://www.w3.org/2000/svg"
   xmlns="http://www.w3.org/2000/svg"
   xmlns:sodipodi="http://sodipodi.sourceforge.net/DTD/sodipodi-0.dtd"
   xmlns:inkscape="http://www.inkscape.org/namespaces/inkscape"
   version="1.1"
   id="Layer_1"
   x="0px"
   y="0px"
   width="397.34601"
   height="326.798"
   viewBox="0 0 397.34602 326.79799"
   xml:space="preserve"
   sodipodi:docname="G36.svg"
   inkscape:version="0.92.5 (2060ec1f9f, 2020-04-08)"><metadata
   id="metadata1131"><rdf:RDF><cc:Work
       rdf:about=""><dc:format>image/svg+xml</dc:format><dc:type
         rdf:resource="http://purl.org/dc/dcmitype/StillImage" /></cc:Work></rdf:RDF></metadata><defs
   id="defs1129" /><sodipodi:namedview
   pagecolor="#ffffff"
   bordercolor="#666666"
   borderopacity="1"
   objecttolerance="10"
   gridtolerance="10"
   guidetolerance="10"
   inkscape:pageopacity="0"
   inkscape:pageshadow="2"
   inkscape:window-width="640"
   inkscape:window-height="480"
   id="namedview1127"
   showgrid="false"
   inkscape:zoom="0.55503813"
   inkscape:cx="198.6735"
   inkscape:cy="163.399"
   inkscape:window-x="0"
   inkscape:window-y="0"
   inkscape:window-maximized="0"
   inkscape:current-layer="Layer_1" />
<g
   id="LWPOLYLINE_101_"
   transform="translate(-13.925,-49.199001)">
	
		<rect
   x="14.175"
   y="49.449001"
   style="fill:#6b3529;stroke:#6b3529;stroke-width:0.5;stroke-miterlimit:10"
   width="396.84601"
   height="326.298"
   id="rect1078" />
</g>
<g
   id="LWPOLYLINE_99_"
   transform="translate(-13.925,-49.199001)">
	<path
   style="fill:#ffffff"
   d="m 40.632,49.449 h 343.933 c 14.609,0 26.456,11.845 26.456,26.457 V 349.29 c 0,14.609 -11.847,26.457 -26.456,26.457 H 40.632 c -14.609,0 -26.457,-11.848 -26.457,-26.457 V 75.905 c 0,-14.612 11.848,-26.456 26.457,-26.456 z"
   id="path1081"
   inkscape:connector-curvature="0" />
</g>
<g
   id="LWPOLYLINE_100_"
   transform="translate(-13.925,-49.199001)">
	<path
   style="fill:#6b3529"
   d="m 40.632,62.677 h 343.933 c 7.305,0 13.228,5.923 13.228,13.228 V 349.29 c 0,7.305 -5.923,13.229 -13.228,13.229 H 40.632 c -7.305,0 -13.229,-5.924 -13.229,-13.229 V 75.905 c 0.001,-7.304 5.925,-13.228 13.229,-13.228 z"
   id="path1084"
   inkscape:connector-curvature="0" />
</g>
<g
   id="LWPOLYLINE_84_"
   transform="translate(-13.925,-49.199001)">
	<rect
   x="113.523"
   y="117.902"
   style="fill:#ffffff"
   width="198.423"
   height="198.42101"
   id="rect1087" />
</g>
<g
   id="LWPOLYLINE_95_"
   transform="translate(-13.925,-49.199001)">
	<path
   style="fill:#6b3529"
   d="m 143.345,139.889 v 52.913 h 20.104 c 7.889,0 14.288,-6.396 14.288,-14.286 v -3.176 c 0,-4.423 -2.052,-8.598 -5.554,-11.305 1.887,-2.347 2.908,-5.265 2.908,-8.272 v -2.646 c 0,-7.305 -5.924,-13.229 -13.229,-13.229 h -18.517 z"
   id="path1090"
   inkscape:connector-curvature="0" />
</g>
<g
   id="LWPOLYLINE_94_"
   transform="translate(-13.925,-49.199001)">
	<path
   style="fill:#ffffff"
   d="m 151.282,147.826 h 10.582 c 2.928,0 5.292,2.369 5.292,5.292 v 2.646 c 0,2.923 -2.364,5.291 -5.292,5.291 h -10.582 z"
   id="path1093"
   inkscape:connector-curvature="0" />
</g>
<g
   id="LWPOLYLINE_90_"
   transform="translate(-13.925,-49.199001)">
	<path
   style="fill:#6b3529"
   d="m 280.441,155.763 v -2.646 c 0,-7.305 -5.923,-13.229 -13.228,-13.229 h -18.52 v 52.913 h 20.104 c 7.889,0 14.288,-6.396 14.288,-14.286 v -3.176 c 0,-4.423 -2.052,-8.598 -5.554,-11.305 1.88,-2.345 2.91,-5.263 2.91,-8.271 z"
   id="path1096"
   inkscape:connector-curvature="0" />
</g>
<g
   id="LWPOLYLINE_92_"
   transform="translate(-13.925,-49.199001)">
	<path
   style="fill:#ffffff"
   d="m 256.63,147.826 h 10.583 c 2.918,0 5.291,2.369 5.291,5.292 v 2.646 c 0,2.923 -2.373,5.291 -5.291,5.291 H 256.63 Z"
   id="path1099"
   inkscape:connector-curvature="0" />
</g>
<g
   id="LWPOLYLINE_89_"
   transform="translate(-13.925,-49.199001)">
	<path
   style="fill:#6b3529"
   d="m 220.846,188.62 c 1.021,0.98 2.111,1.887 3.259,2.716 l 3.122,1.755 4.727,-5.763 c -2.256,-1.248 -4.348,-2.753 -6.254,-4.484 0.924,-1.425 1.663,-2.961 2.198,-4.571 l 1.235,-3.694 -6.974,-1.461 c -0.38,1.535 -0.934,3.021 -1.644,4.433 l -5.681,-7.19 0.341,-0.187 3.034,-2.218 c 2.763,-1.778 4.289,-4.965 3.939,-8.236 -0.351,-3.219 -2.51,-5.955 -5.544,-7.059 -3.687,-1.34 -7.733,-1.272 -11.361,0.187 -2.597,1.126 -4.483,3.46 -5.019,6.242 -0.204,2.631 0.516,5.25 2.042,7.404 l 2.004,2.487 -3.063,1.933 c -2.636,1.622 -4.591,4.144 -5.505,7.096 -0.468,1.07 -0.652,2.247 -0.516,3.409 0.116,5.007 3.511,9.34 8.345,10.656 2.5,0.763 5.146,0.973 7.743,0.618 3.571,-0.205 6.956,-1.644 9.572,-4.073 z"
   id="path1102"
   inkscape:connector-curvature="0" />
</g>
<g
   id="LWPOLYLINE_87_"
   transform="translate(-13.925,-49.199001)">
	<path
   style="fill:#ffffff"
   d="m 211.139,165.677 -2.859,-3.616 c -0.107,-0.119 -0.204,-0.25 -0.292,-0.392 -0.739,-1.182 -0.38,-2.738 0.808,-3.475 1.74,-0.795 3.744,-0.795 5.485,0 0.039,0.029 0.078,0.061 0.117,0.092 1.303,1.082 1.479,3.018 0.398,4.321 -1.061,1.124 -2.247,2.13 -3.521,3.005 z"
   id="path1105"
   inkscape:connector-curvature="0" />
</g>
<g
   id="LWPOLYLINE_88_"
   transform="translate(-13.925,-49.199001)">
	<path
   style="fill:#ffffff"
   d="m 208.163,174.005 c -1.508,0.662 -2.82,1.705 -3.803,3.027 -0.963,1.315 -1.43,2.933 -1.313,4.562 0.127,1.666 0.992,3.188 2.374,4.134 1.118,0.627 2.383,0.919 3.666,0.844 1.1,0.015 2.189,-0.202 3.2,-0.632 1.333,-0.632 2.559,-1.464 3.628,-2.466 l -7.654,-9.52 z"
   id="path1108"
   inkscape:connector-curvature="0" />
</g>
<g
   id="LWPOLYLINE_91_"
   transform="translate(-13.925,-49.199001)">
	<path
   style="fill:#ffffff"
   d="m 275.15,178.516 c 0,3.506 -2.85,6.349 -6.352,6.349 H 256.63 v -15.874 h 12.168 c 3.502,0 6.352,2.843 6.352,6.349 z"
   id="path1111"
   inkscape:connector-curvature="0" />
</g>
<g
   id="LWPOLYLINE_93_"
   transform="translate(-13.925,-49.199001)">
	<path
   style="fill:#ffffff"
   d="m 169.801,178.516 c 0,3.506 -2.84,6.349 -6.352,6.349 h -12.168 v -15.874 h 12.168 c 3.512,0 6.352,2.843 6.352,6.349 z"
   id="path1114"
   inkscape:connector-curvature="0" />
</g>
<g
   id="LWPOLYLINE_85_"
   transform="translate(-13.925,-49.199001)">
	<path
   style="fill:#6b3529"
   d="m 126.567,239.198 v 63.936 h 13.228 v -13.15 h 145.598 v 13.15 h 13.229 l -0.01,-81.541 c 0,-3.652 -2.957,-6.613 -6.614,-6.613 -3.638,0 -6.595,2.943 -6.614,6.586 v 25.732 c -2.422,13.561 -13.607,23.832 -27.322,25.104 H 139.794 v -33.203 c 0,-3.652 -2.967,-6.609 -6.623,-6.605 -3.648,0.005 -6.594,2.96 -6.604,6.604 z"
   id="path1117"
   inkscape:connector-curvature="0" />
</g>
<g
   id="ELLIPSE_1_"
   transform="translate(-13.925,-49.199001)">
	<path
   style="fill:#6b3529"
   d="m 251.057,262.87 c -3.161,-3.996 0.272,-11.971 7.674,-17.816 7.393,-5.844 15.952,-7.344 19.104,-3.35 3.161,3.996 -0.272,11.973 -7.674,17.818 -7.393,5.846 -15.953,7.344 -19.104,3.348"
   id="path1120"
   inkscape:connector-curvature="0" />
</g>
<g
   id="LWPOLYLINE_86_"
   transform="translate(-13.925,-49.199001)">
	<path
   style="fill:#6b3529"
   d="m 196.618,265.899 h -43.479 c -0.389,0.01 -0.777,-0.016 -1.157,-0.08 -3.297,-0.547 -5.524,-3.664 -4.979,-6.959 0.544,-3.523 2.859,-6.518 6.137,-7.922 28.188,-9.625 58.769,-9.625 86.946,0 3.278,1.404 5.593,4.398 6.138,7.922 0.078,0.439 0.107,0.887 0.088,1.336 -0.137,3.293 -2.928,5.85 -6.226,5.703 z"
   id="path1123"
   inkscape:connector-curvature="0" />
</g>
</svg>