<?xml version="1.0" encoding="iso-8859-1"?>
<!-- Generator: Adobe Illustrator 16.0.0, SVG Export Plug-In . SVG Version: 6.00 Build 0)  -->
<!DOCTYPE svg PUBLIC "-//W3C//DTD SVG 1.1//EN" "http://www.w3.org/Graphics/SVG/1.1/DTD/svg11.dtd">
<svg version="1.1" id="Layer_1" xmlns="http://www.w3.org/2000/svg" xmlns:xlink="http://www.w3.org/1999/xlink" x="0px" y="0px"
	 width="425.197px" height="425.196px" viewBox="0 0 425.197 425.196" style="enable-background:new 0 0 425.197 425.196;"
	 xml:space="preserve">
<g id="LWPOLYLINE_101_">
	
		<rect x="14.175" y="49.449" style="fill:#6B3529;stroke:#6B3529;stroke-width:0.5;stroke-miterlimit:10;" width="396.846" height="326.298"/>
</g>
<g id="LWPOLYLINE_99_">
	<path style="fill:#FFFFFF;" d="M40.632,49.449h343.933c14.609,0,26.456,11.845,26.456,26.457V349.29
		c0,14.609-11.847,26.457-26.456,26.457H40.632c-14.609,0-26.457-11.848-26.457-26.457V75.905
		C14.175,61.293,26.023,49.449,40.632,49.449z"/>
</g>
<g id="LWPOLYLINE_100_">
	<path style="fill:#6B3529;" d="M40.632,62.677h343.933c7.305,0,13.228,5.923,13.228,13.228V349.29
		c0,7.305-5.923,13.229-13.228,13.229H40.632c-7.305,0-13.229-5.924-13.229-13.229V75.905
		C27.404,68.601,33.328,62.677,40.632,62.677z"/>
</g>
<g id="LWPOLYLINE_84_">
	<rect x="113.523" y="117.902" style="fill:#FFFFFF;" width="198.423" height="198.421"/>
</g>
<g id="LWPOLYLINE_95_">
	<path style="fill:#6B3529;" d="M143.345,139.889v52.913h20.104c7.889,0,14.288-6.396,14.288-14.286v-3.176
		c0-4.423-2.052-8.598-5.554-11.305c1.887-2.347,2.908-5.265,2.908-8.272v-2.646c0-7.305-5.924-13.229-13.229-13.229H143.345z"/>
</g>
<g id="LWPOLYLINE_94_">
	<path style="fill:#FFFFFF;" d="M151.282,147.826h10.582c2.928,0,5.292,2.369,5.292,5.292v2.646c0,2.923-2.364,5.291-5.292,5.291
		h-10.582V147.826z"/>
</g>
<g id="LWPOLYLINE_90_">
	<path style="fill:#6B3529;" d="M280.441,155.763v-2.646c0-7.305-5.923-13.229-13.228-13.229h-18.52v52.913h20.104
		c7.889,0,14.288-6.396,14.288-14.286v-3.176c0-4.423-2.052-8.598-5.554-11.305C279.411,161.689,280.441,158.771,280.441,155.763z"
		/>
</g>
<g id="LWPOLYLINE_92_">
	<path style="fill:#FFFFFF;" d="M256.63,147.826h10.583c2.918,0,5.291,2.369,5.291,5.292v2.646c0,2.923-2.373,5.291-5.291,5.291
		H256.63V147.826z"/>
</g>
<g id="LWPOLYLINE_89_">
	<path style="fill:#6B3529;" d="M220.846,188.62c1.021,0.98,2.111,1.887,3.259,2.716l3.122,1.755l4.727-5.763
		c-2.256-1.248-4.348-2.753-6.254-4.484c0.924-1.425,1.663-2.961,2.198-4.571l1.235-3.694l-6.974-1.461
		c-0.38,1.535-0.934,3.021-1.644,4.433l-5.681-7.19l0.341-0.187l3.034-2.218c2.763-1.778,4.289-4.965,3.939-8.236
		c-0.351-3.219-2.51-5.955-5.544-7.059c-3.687-1.34-7.733-1.272-11.361,0.187c-2.597,1.126-4.483,3.46-5.019,6.242
		c-0.204,2.631,0.516,5.25,2.042,7.404l2.004,2.487l-3.063,1.933c-2.636,1.622-4.591,4.144-5.505,7.096
		c-0.468,1.07-0.652,2.247-0.516,3.409c0.116,5.007,3.511,9.34,8.345,10.656c2.5,0.763,5.146,0.973,7.743,0.618
		C214.845,192.488,218.23,191.049,220.846,188.62z"/>
</g>
<g id="LWPOLYLINE_87_">
	<path style="fill:#FFFFFF;" d="M211.139,165.677l-2.859-3.616c-0.107-0.119-0.204-0.25-0.292-0.392
		c-0.739-1.182-0.38-2.738,0.808-3.475c1.74-0.795,3.744-0.795,5.485,0c0.039,0.029,0.078,0.061,0.117,0.092
		c1.303,1.082,1.479,3.018,0.398,4.321c-1.061,1.124-2.247,2.13-3.521,3.005L211.139,165.677z"/>
</g>
<g id="LWPOLYLINE_88_">
	<path style="fill:#FFFFFF;" d="M208.163,174.005c-1.508,0.662-2.82,1.705-3.803,3.027c-0.963,1.315-1.43,2.933-1.313,4.562
		c0.127,1.666,0.992,3.188,2.374,4.134c1.118,0.627,2.383,0.919,3.666,0.844c1.1,0.015,2.189-0.202,3.2-0.632
		c1.333-0.632,2.559-1.464,3.628-2.466l-7.654-9.52L208.163,174.005z"/>
</g>
<g id="LWPOLYLINE_91_">
	<path style="fill:#FFFFFF;" d="M275.15,178.516c0,3.506-2.85,6.349-6.352,6.349H256.63v-15.874h12.168
		c3.502,0,6.352,2.843,6.352,6.349V178.516z"/>
</g>
<g id="LWPOLYLINE_93_">
	<path style="fill:#FFFFFF;" d="M169.801,178.516c0,3.506-2.84,6.349-6.352,6.349h-12.168v-15.874h12.168
		c3.512,0,6.352,2.843,6.352,6.349V178.516z"/>
</g>
<g id="LWPOLYLINE_85_">
	<path style="fill:#6B3529;" d="M126.567,239.198v63.936h13.228v-13.15h145.598v13.15h13.229l-0.01-81.541
		c0-3.652-2.957-6.613-6.614-6.613c-3.638,0-6.595,2.943-6.614,6.586v25.732c-2.422,13.561-13.607,23.832-27.322,25.104H139.794
		v-33.203c0-3.652-2.967-6.609-6.623-6.605C129.523,232.599,126.577,235.554,126.567,239.198z"/>
</g>
<g id="ELLIPSE_1_">
	<path style="fill:#6B3529;" d="M251.057,262.87c-3.161-3.996,0.272-11.971,7.674-17.816c7.393-5.844,15.952-7.344,19.104-3.35
		c3.161,3.996-0.272,11.973-7.674,17.818C262.768,265.368,254.208,266.866,251.057,262.87"/>
</g>
<g id="LWPOLYLINE_86_">
	<path style="fill:#6B3529;" d="M196.618,265.899h-43.479c-0.389,0.01-0.777-0.016-1.157-0.08c-3.297-0.547-5.524-3.664-4.979-6.959
		c0.544-3.523,2.859-6.518,6.137-7.922c28.188-9.625,58.769-9.625,86.946,0c3.278,1.404,5.593,4.398,6.138,7.922
		c0.078,0.439,0.107,0.887,0.088,1.336c-0.137,3.293-2.928,5.85-6.226,5.703H196.618z"/>
</g>
</svg>
