<?xml version="1.0" encoding="UTF-8" standalone="no"?>
<!-- Generator: Adobe Illustrator 16.0.0, SVG Export Plug-In . SVG Version: 6.00 Build 0)  -->

<svg
   xmlns:dc="http://purl.org/dc/elements/1.1/"
   xmlns:cc="http://creativecommons.org/ns#"
   xmlns:rdf="http://www.w3.org/1999/02/22-rdf-syntax-ns#"
   xmlns:svg="http://www.w3.org/2000/svg"
   xmlns="http://www.w3.org/2000/svg"
   xmlns:sodipodi="http://sodipodi.sourceforge.net/DTD/sodipodi-0.dtd"
   xmlns:inkscape="http://www.inkscape.org/namespaces/inkscape"
   version="1.1"
   id="Layer_1"
   x="0px"
   y="0px"
   width="397.34601"
   height="326.798"
   viewBox="0 0 397.34602 326.79799"
   xml:space="preserve"
   sodipodi:docname="G37.svg"
   inkscape:version="0.92.5 (2060ec1f9f, 2020-04-08)"><metadata
   id="metadata1177"><rdf:RDF><cc:Work
       rdf:about=""><dc:format>image/svg+xml</dc:format><dc:type
         rdf:resource="http://purl.org/dc/dcmitype/StillImage" /></cc:Work></rdf:RDF></metadata><defs
   id="defs1175" /><sodipodi:namedview
   pagecolor="#ffffff"
   bordercolor="#666666"
   borderopacity="1"
   objecttolerance="10"
   gridtolerance="10"
   guidetolerance="10"
   inkscape:pageopacity="0"
   inkscape:pageshadow="2"
   inkscape:window-width="640"
   inkscape:window-height="480"
   id="namedview1173"
   showgrid="false"
   inkscape:zoom="0.55503813"
   inkscape:cx="198.6735"
   inkscape:cy="163.399"
   inkscape:window-x="0"
   inkscape:window-y="0"
   inkscape:window-maximized="0"
   inkscape:current-layer="Layer_1" />
<g
   id="LWPOLYLINE_97_"
   transform="translate(-13.925,-49.199001)">
	
		<rect
   x="14.175"
   y="49.449001"
   style="fill:#6b3529;stroke:#6b3529;stroke-width:0.5;stroke-miterlimit:10"
   width="396.84601"
   height="326.298"
   id="rect1133" />
</g>
<g
   id="LWPOLYLINE_95_"
   transform="translate(-13.925,-49.199001)">
	<path
   style="fill:#ffffff"
   d="m 40.632,49.449 h 343.933 c 14.609,0 26.456,11.845 26.456,26.457 V 349.29 c 0,14.609 -11.847,26.457 -26.456,26.457 H 40.632 c -14.609,0 -26.457,-11.848 -26.457,-26.457 V 75.905 c 0,-14.612 11.848,-26.456 26.457,-26.456 z"
   id="path1136"
   inkscape:connector-curvature="0" />
</g>
<g
   id="LWPOLYLINE_96_"
   transform="translate(-13.925,-49.199001)">
	<path
   style="fill:#6b3529"
   d="m 40.632,62.677 h 343.933 c 7.305,0 13.228,5.923 13.228,13.228 V 349.29 c 0,7.305 -5.923,13.229 -13.228,13.229 H 40.632 c -7.305,0 -13.229,-5.924 -13.229,-13.229 V 75.905 c 0.001,-7.304 5.925,-13.228 13.229,-13.228 z"
   id="path1139"
   inkscape:connector-curvature="0" />
</g>
<g
   id="LWPOLYLINE_72_"
   transform="translate(-13.925,-49.199001)">
	<rect
   x="113.523"
   y="117.902"
   style="fill:#ffffff"
   width="198.423"
   height="198.42101"
   id="rect1142" />
</g>
<g
   id="LWPOLYLINE_73_"
   transform="translate(-13.925,-49.199001)">
	<path
   style="fill:#6b3529"
   d="m 161.679,261.438 0.594,10.729 c 0.214,3.756 0.759,7.484 1.634,11.145 0.604,2.563 1.557,5.037 2.811,7.352 1.723,3.162 4.018,5.988 6.761,8.326 1.479,0.969 3.024,1.84 4.63,2.607 1.226,0.525 2.461,1.051 3.695,1.566 2.432,0.729 4.902,1.293 7.402,1.682 1.265,0.264 2.549,0.424 3.832,0.486 2.841,0.117 5.681,0.117 8.521,-0.004 1.596,-0.088 3.181,-0.346 4.728,-0.773 1.906,-0.375 3.404,-1.848 3.803,-3.75 0.146,-0.441 0.253,-0.891 0.331,-1.348 0.224,-2.436 -0.194,-4.893 -1.216,-7.115 -1.09,-2.596 -3.083,-4.717 -5.603,-5.977 -1.839,-1.012 -3.793,-1.779 -5.826,-2.275 -1.128,-0.234 -2.247,-0.539 -3.336,-0.904 -6.187,-1.844 -12.324,-3.838 -18.403,-5.98 -2.412,-0.979 -4.746,-2.143 -6.974,-3.482 -1.518,-0.975 -2.792,-2.297 -3.706,-3.857 -0.642,-1.156 -1.226,-2.342 -1.751,-3.557 l -1.927,-4.871"
   id="path1145"
   inkscape:connector-curvature="0" />
</g>
<g
   id="LWPOLYLINE_74_"
   transform="translate(-13.925,-49.199001)">
	<path
   style="fill:#6b3529"
   d="m 161.679,231.396 0.594,10.729 c 0.214,3.756 0.759,7.486 1.634,11.143 0.604,2.566 1.557,5.037 2.811,7.352 1.723,3.166 4.018,5.99 6.761,8.328 1.479,0.969 3.024,1.84 4.63,2.607 1.226,0.527 2.461,1.051 3.695,1.566 2.432,0.73 4.902,1.293 7.402,1.682 1.265,0.26 2.549,0.424 3.832,0.49 2.841,0.113 5.681,0.111 8.521,-0.008 1.596,-0.086 3.181,-0.346 4.728,-0.775 1.906,-0.373 3.404,-1.85 3.803,-3.748 0.146,-0.439 0.253,-0.891 0.331,-1.348 0.224,-2.436 -0.194,-4.887 -1.216,-7.115 -1.09,-2.596 -3.083,-4.715 -5.603,-5.979 -1.839,-1.012 -3.793,-1.775 -5.826,-2.27 -1.128,-0.24 -2.247,-0.541 -3.336,-0.908 -6.187,-1.844 -12.324,-3.838 -18.403,-5.98 -2.412,-0.977 -4.746,-2.143 -6.974,-3.482 -1.518,-0.975 -2.792,-2.297 -3.706,-3.857 -0.642,-1.156 -1.226,-2.342 -1.751,-3.557 l -1.927,-4.87"
   id="path1148"
   inkscape:connector-curvature="0" />
</g>
<g
   id="LWPOLYLINE_75_"
   transform="translate(-13.925,-49.199001)">
	<path
   style="fill:#6b3529"
   d="m 263.429,231.396 -0.593,10.729 c -0.205,3.756 -0.749,7.486 -1.625,11.143 -0.612,2.566 -1.556,5.037 -2.82,7.352 -1.722,3.166 -4.008,5.99 -6.75,8.328 -1.488,0.969 -3.035,1.84 -4.63,2.607 -1.235,0.527 -2.461,1.051 -3.706,1.566 -2.422,0.73 -4.893,1.293 -7.402,1.682 -1.264,0.26 -2.538,0.424 -3.832,0.49 -2.84,0.113 -5.681,0.111 -8.511,-0.008 -1.604,-0.086 -3.19,-0.346 -4.728,-0.775 -1.906,-0.373 -3.404,-1.85 -3.813,-3.748 -0.136,-0.439 -0.253,-0.891 -0.321,-1.348 -0.224,-2.436 0.195,-4.887 1.206,-7.115 1.1,-2.596 3.084,-4.715 5.612,-5.979 1.829,-1.012 3.794,-1.775 5.827,-2.27 1.128,-0.24 2.236,-0.541 3.336,-0.908 6.176,-1.844 12.313,-3.838 18.402,-5.98 2.412,-0.977 4.737,-2.143 6.965,-3.482 1.526,-0.975 2.801,-2.297 3.715,-3.857 0.643,-1.156 1.226,-2.342 1.751,-3.557 l 1.917,-4.87"
   id="path1151"
   inkscape:connector-curvature="0" />
</g>
<g
   id="LWPOLYLINE_76_"
   transform="translate(-13.925,-49.199001)">
	<path
   style="fill:#6b3529"
   d="m 263.429,261.438 -0.593,10.729 c -0.205,3.756 -0.749,7.484 -1.625,11.145 -0.612,2.563 -1.556,5.037 -2.82,7.352 -1.722,3.162 -4.008,5.988 -6.75,8.326 -1.488,0.969 -3.035,1.84 -4.63,2.607 -1.235,0.525 -2.461,1.051 -3.706,1.566 -2.422,0.729 -4.893,1.293 -7.402,1.682 -1.264,0.264 -2.538,0.424 -3.832,0.486 -2.84,0.117 -5.681,0.117 -8.511,-0.004 -1.604,-0.088 -3.19,-0.346 -4.728,-0.773 -1.906,-0.375 -3.404,-1.848 -3.813,-3.75 -0.136,-0.441 -0.253,-0.891 -0.321,-1.348 -0.224,-2.436 0.195,-4.893 1.206,-7.115 1.1,-2.596 3.084,-4.717 5.612,-5.977 1.829,-1.012 3.794,-1.779 5.827,-2.275 1.128,-0.234 2.236,-0.539 3.336,-0.904 6.176,-1.844 12.313,-3.838 18.402,-5.98 2.412,-0.979 4.737,-2.143 6.965,-3.482 1.526,-0.975 2.801,-2.297 3.715,-3.857 0.643,-1.156 1.226,-2.342 1.751,-3.557 l 1.917,-4.871"
   id="path1154"
   inkscape:connector-curvature="0" />
</g>
<g
   id="LWPOLYLINE_77_"
   transform="translate(-13.925,-49.199001)">
	<path
   style="fill:#6b3529"
   d="m 160.755,149.02 1.313,9.564 c 0.622,4.479 1.439,8.926 2.451,13.333 0.573,2.52 1.332,4.995 2.256,7.407 1.274,3.081 3.609,5.6 6.595,7.088 3.502,1.644 7.12,3.032 10.826,4.158 3.112,1.281 6.332,2.264 9.629,2.933 3.19,0.878 6.264,2.118 9.173,3.693 2.432,1.225 4.396,3.215 5.602,5.667 1.245,2.548 1.576,5.449 0.935,8.213 -0.477,2.506 -2.694,4.295 -5.253,4.229 -2.5,0.323 -5.028,0.528 -7.548,0.608 -2.14,-0.02 -4.27,-0.137 -6.399,-0.354 -6.274,-0.674 -12.285,-2.891 -17.499,-6.458 -2.432,-1.813 -4.483,-4.091 -6.03,-6.702 -1.896,-3.153 -3.229,-6.619 -3.93,-10.234 -0.826,-4.572 -1.342,-9.194 -1.536,-13.836 -0.078,-2.546 -0.186,-5.089 -0.312,-7.633 z"
   id="path1157"
   inkscape:connector-curvature="0" />
</g>
<g
   id="LWPOLYLINE_78_"
   transform="translate(-13.925,-49.199001)">
	<path
   style="fill:#6b3529"
   d="m 161.679,201.352 0.594,10.731 c 0.214,3.754 0.759,7.484 1.634,11.145 0.604,2.563 1.557,5.033 2.811,7.35 1.723,3.166 4.018,5.988 6.761,8.326 1.479,0.969 3.024,1.842 4.63,2.607 1.226,0.529 2.461,1.051 3.695,1.568 2.432,0.729 4.902,1.291 7.402,1.68 1.265,0.26 2.549,0.424 3.832,0.488 2.841,0.115 5.681,0.115 8.521,-0.004 1.596,-0.088 3.181,-0.348 4.728,-0.775 1.906,-0.375 3.404,-1.848 3.803,-3.75 0.146,-0.439 0.253,-0.891 0.331,-1.348 0.224,-2.436 -0.194,-4.887 -1.216,-7.111 -1.09,-2.598 -3.083,-4.719 -5.603,-5.98 -1.839,-1.012 -3.793,-1.775 -5.826,-2.271 -1.128,-0.238 -2.247,-0.541 -3.336,-0.908 -6.187,-1.844 -12.324,-3.836 -18.403,-5.978 -2.412,-0.979 -4.746,-2.146 -6.974,-3.481 -1.518,-0.979 -2.792,-2.299 -3.706,-3.862 -0.642,-1.152 -1.226,-2.339 -1.751,-3.553 l -1.927,-4.874"
   id="path1160"
   inkscape:connector-curvature="0" />
</g>
<g
   id="LWPOLYLINE_79_"
   transform="translate(-13.925,-49.199001)">
	<path
   style="fill:#6b3529"
   d="m 264.354,149.02 -1.313,9.564 c -0.613,4.479 -1.43,8.926 -2.441,13.333 -0.574,2.52 -1.333,4.995 -2.267,7.407 -1.265,3.081 -3.599,5.6 -6.585,7.088 -3.501,1.644 -7.13,3.032 -10.835,4.158 -3.104,1.281 -6.332,2.264 -9.63,2.933 -3.181,0.878 -6.254,2.118 -9.162,3.693 -2.432,1.225 -4.406,3.215 -5.603,5.667 -1.245,2.548 -1.576,5.449 -0.943,8.213 0.477,2.506 2.704,4.295 5.252,4.229 2.51,0.323 5.029,0.528 7.558,0.608 2.14,-0.02 4.271,-0.137 6.391,-0.354 6.283,-0.674 12.294,-2.891 17.508,-6.458 2.432,-1.813 4.475,-4.091 6.03,-6.702 1.896,-3.153 3.229,-6.619 3.93,-10.234 0.827,-4.572 1.343,-9.194 1.537,-13.836 0.068,-2.546 0.175,-5.089 0.311,-7.633 z"
   id="path1163"
   inkscape:connector-curvature="0" />
</g>
<g
   id="LWPOLYLINE_80_"
   transform="translate(-13.925,-49.199001)">
	<path
   style="fill:#6b3529"
   d="m 212.657,124.56 -2.977,15.911 c -0.321,2.735 -1.332,5.347 -2.928,7.591 -9.007,12.511 -9.872,29.134 -2.218,42.515 2.821,4.428 8.696,5.734 13.131,2.916 1.167,-0.747 2.169,-1.744 2.908,-2.916 7.694,-13.374 6.828,-30.014 -2.218,-42.515 -1.595,-2.242 -2.597,-4.854 -2.918,-7.591 z"
   id="path1166"
   inkscape:connector-curvature="0" />
</g>
<g
   id="LWPOLYLINE_81_"
   transform="translate(-13.925,-49.199001)">
	<path
   style="fill:#6b3529"
   d="m 263.429,201.352 -0.593,10.731 c -0.205,3.754 -0.749,7.484 -1.625,11.145 -0.612,2.563 -1.556,5.033 -2.82,7.35 -1.722,3.166 -4.008,5.988 -6.75,8.326 -1.488,0.969 -3.035,1.842 -4.63,2.607 -1.235,0.529 -2.461,1.051 -3.706,1.568 -2.422,0.729 -4.893,1.291 -7.402,1.68 -1.264,0.26 -2.538,0.424 -3.832,0.488 -2.84,0.115 -5.681,0.115 -8.511,-0.004 -1.604,-0.088 -3.19,-0.348 -4.728,-0.775 -1.906,-0.375 -3.404,-1.848 -3.813,-3.75 -0.136,-0.439 -0.253,-0.891 -0.321,-1.348 -0.224,-2.436 0.195,-4.887 1.206,-7.111 1.1,-2.598 3.084,-4.719 5.612,-5.98 1.829,-1.012 3.794,-1.775 5.827,-2.271 1.128,-0.238 2.236,-0.541 3.336,-0.908 6.176,-1.844 12.313,-3.836 18.402,-5.978 2.412,-0.979 4.737,-2.146 6.965,-3.481 1.526,-0.979 2.801,-2.299 3.715,-3.862 0.643,-1.152 1.226,-2.339 1.751,-3.553 l 1.917,-4.874"
   id="path1169"
   inkscape:connector-curvature="0" />
</g>
</svg>