<?xml version="1.0" encoding="UTF-8" standalone="no"?>
<!-- Generator: Adobe Illustrator 16.0.0, SVG Export Plug-In . SVG Version: 6.00 Build 0)  -->

<svg
   xmlns:dc="http://purl.org/dc/elements/1.1/"
   xmlns:cc="http://creativecommons.org/ns#"
   xmlns:rdf="http://www.w3.org/1999/02/22-rdf-syntax-ns#"
   xmlns:svg="http://www.w3.org/2000/svg"
   xmlns="http://www.w3.org/2000/svg"
   xmlns:sodipodi="http://sodipodi.sourceforge.net/DTD/sodipodi-0.dtd"
   xmlns:inkscape="http://www.inkscape.org/namespaces/inkscape"
   version="1.1"
   id="Layer_1"
   x="0px"
   y="0px"
   width="396.84601"
   height="326.298"
   viewBox="0 0 396.84602 326.29799"
   xml:space="preserve"
   sodipodi:docname="G38.svg"
   inkscape:version="0.92.5 (2060ec1f9f, 2020-04-08)"><metadata
   id="metadata1208"><rdf:RDF><cc:Work
       rdf:about=""><dc:format>image/svg+xml</dc:format><dc:type
         rdf:resource="http://purl.org/dc/dcmitype/StillImage" /></cc:Work></rdf:RDF></metadata><defs
   id="defs1206" /><sodipodi:namedview
   pagecolor="#ffffff"
   bordercolor="#666666"
   borderopacity="1"
   objecttolerance="10"
   gridtolerance="10"
   guidetolerance="10"
   inkscape:pageopacity="0"
   inkscape:pageshadow="2"
   inkscape:window-width="640"
   inkscape:window-height="480"
   id="namedview1204"
   showgrid="false"
   inkscape:zoom="0.55503813"
   inkscape:cx="198.4235"
   inkscape:cy="163.149"
   inkscape:window-x="0"
   inkscape:window-y="0"
   inkscape:window-maximized="0"
   inkscape:current-layer="Layer_1" />
<g
   id="LWPOLYLINE_85_"
   transform="translate(-14.175,-49.449)">
	<rect
   x="14.175"
   y="49.449001"
   style="fill:#6b3529"
   width="396.84601"
   height="326.298"
   id="rect1179" />
</g>
<g
   id="LWPOLYLINE_83_"
   transform="translate(-14.175,-49.449)">
	<path
   style="fill:#ffffff"
   d="m 40.632,49.449 h 343.933 c 14.609,0 26.456,11.845 26.456,26.457 V 349.29 c 0,14.609 -11.847,26.457 -26.456,26.457 H 40.632 c -14.609,0 -26.457,-11.848 -26.457,-26.457 V 75.905 c 0,-14.612 11.848,-26.456 26.457,-26.456 z"
   id="path1182"
   inkscape:connector-curvature="0" />
</g>
<g
   id="LWPOLYLINE_84_"
   transform="translate(-14.175,-49.449)">
	<path
   style="fill:#6b3529"
   d="m 40.632,62.677 h 343.933 c 7.305,0 13.228,5.923 13.228,13.228 V 349.29 c 0,7.305 -5.923,13.229 -13.228,13.229 H 40.632 c -7.305,0 -13.229,-5.924 -13.229,-13.229 V 75.905 c 0.001,-7.304 5.925,-13.228 13.229,-13.228 z"
   id="path1185"
   inkscape:connector-curvature="0" />
</g>
<g
   id="LWPOLYLINE_72_"
   transform="translate(-14.175,-49.449)">
	<rect
   x="113.523"
   y="117.902"
   style="fill:#ffffff"
   width="198.423"
   height="198.42101"
   id="rect1188" />
</g>
<g
   id="LWPOLYLINE_73_"
   transform="translate(-14.175,-49.449)">
	<path
   style="fill:#6b3529"
   d="m 231.167,302.755 1.293,-56.309 h -5.631 l 3.034,-52.407 -39.014,24.256 -5.193,-11.694 29.472,-20.358 11.272,-14.291 c 1.702,-2.045 3.59,-3.93 5.632,-5.632 l 15.164,-12.56 8.472,12.703 c 3.56,4.982 6.303,10.493 8.151,16.329 l 15.455,55.424 c 1.313,4.695 2.335,9.469 3.035,14.293 1.177,5.082 2.48,10.139 3.9,15.16 l 15.173,35.516 h -20.377 l -28.168,-53.707 -3.9,53.707 z"
   id="path1191"
   inkscape:connector-curvature="0" />
</g>
<g
   id="CIRCLE"
   transform="translate(-14.175,-49.449)">
	<path
   style="fill:#6b3529"
   d="m 236.477,149.988 c 0,-7.917 -6.42,-14.339 -14.347,-14.339 -7.918,0 -14.337,6.422 -14.337,14.339 0,7.92 6.419,14.342 14.337,14.342 7.927,0 14.347,-6.422 14.347,-14.342 z"
   id="path1194"
   inkscape:connector-curvature="0" />
</g>
<g
   id="LWPOLYLINE_74_"
   transform="translate(-14.175,-49.449)">
	<polygon
   style="fill:#6b3529"
   points="179.644,224.858 166.591,224.858 153.548,224.858 147.216,185.374 166.591,185.374 185.976,185.374 "
   id="polygon1197" />
</g>
<g
   id="LWPOLYLINE_75_"
   transform="translate(-14.175,-49.449)">
	<path
   style="fill:#6b3529"
   d="M 165.288,230.444 H 120.75 v 2.607 c -0.107,1.689 0.281,3.369 1.118,4.844 2.753,3.584 5.485,7.186 8.199,10.801 l 15.65,20.859 c 3.2,4.279 2.889,10.234 -0.739,14.154 l -9.328,10.057 c -2.314,1.439 -3.725,3.979 -3.725,6.701 v 2.607 h 33.361 33.362 v -2.607 c 0,-2.723 -1.41,-5.262 -3.725,-6.701 l -9.318,-10.057 c -3.638,-3.92 -3.949,-9.875 -0.749,-14.154 l 15.66,-20.859 c 2.713,-3.615 5.446,-7.217 8.199,-10.801 0.827,-1.475 1.216,-3.154 1.118,-4.844 v -2.607 z"
   id="path1200"
   inkscape:connector-curvature="0" />
</g>
</svg>