<?xml version="1.0" encoding="iso-8859-1"?>
<!-- Generator: Adobe Illustrator 16.0.0, SVG Export Plug-In . SVG Version: 6.00 Build 0)  -->
<!DOCTYPE svg PUBLIC "-//W3C//DTD SVG 1.1//EN" "http://www.w3.org/Graphics/SVG/1.1/DTD/svg11.dtd">
<svg version="1.1" id="Layer_1" xmlns="http://www.w3.org/2000/svg" xmlns:xlink="http://www.w3.org/1999/xlink" x="0px" y="0px"
	 width="425.197px" height="425.196px" viewBox="0 0 425.197 425.196" style="enable-background:new 0 0 425.197 425.196;"
	 xml:space="preserve">
<g id="LWPOLYLINE_85_">
	<rect x="14.175" y="49.449" style="fill:#6B3529;" width="396.846" height="326.298"/>
</g>
<g id="LWPOLYLINE_83_">
	<path style="fill:#FFFFFF;" d="M40.632,49.449h343.933c14.609,0,26.456,11.845,26.456,26.457V349.29
		c0,14.609-11.847,26.457-26.456,26.457H40.632c-14.609,0-26.457-11.848-26.457-26.457V75.905
		C14.175,61.293,26.023,49.449,40.632,49.449z"/>
</g>
<g id="LWPOLYLINE_84_">
	<path style="fill:#6B3529;" d="M40.632,62.677h343.933c7.305,0,13.228,5.923,13.228,13.228V349.29
		c0,7.305-5.923,13.229-13.228,13.229H40.632c-7.305,0-13.229-5.924-13.229-13.229V75.905
		C27.404,68.601,33.328,62.677,40.632,62.677z"/>
</g>
<g id="LWPOLYLINE_72_">
	<rect x="113.523" y="117.902" style="fill:#FFFFFF;" width="198.423" height="198.421"/>
</g>
<g id="LWPOLYLINE_73_">
	<path style="fill:#6B3529;" d="M231.167,302.755l1.293-56.309h-5.631l3.034-52.407l-39.014,24.256l-5.193-11.694l29.472-20.358
		l11.272-14.291c1.702-2.045,3.59-3.93,5.632-5.632l15.164-12.56l8.472,12.703c3.56,4.982,6.303,10.493,8.151,16.329l15.455,55.424
		c1.313,4.695,2.335,9.469,3.035,14.293c1.177,5.082,2.48,10.139,3.9,15.16l15.173,35.516h-20.377l-28.168-53.707l-3.9,53.707
		L231.167,302.755z"/>
</g>
<g id="CIRCLE">
	<path style="fill:#6B3529;" d="M236.477,149.988c0-7.917-6.42-14.339-14.347-14.339c-7.918,0-14.337,6.422-14.337,14.339
		c0,7.92,6.419,14.342,14.337,14.342C230.057,164.33,236.477,157.908,236.477,149.988L236.477,149.988z"/>
</g>
<g id="LWPOLYLINE_74_">
	<polygon style="fill:#6B3529;" points="166.591,185.374 185.976,185.374 179.644,224.858 166.591,224.858 153.548,224.858 
		147.216,185.374 	"/>
</g>
<g id="LWPOLYLINE_75_">
	<path style="fill:#6B3529;" d="M165.288,230.444H120.75v2.607c-0.107,1.689,0.281,3.369,1.118,4.844
		c2.753,3.584,5.485,7.186,8.199,10.801l15.65,20.859c3.2,4.279,2.889,10.234-0.739,14.154l-9.328,10.057
		c-2.314,1.439-3.725,3.979-3.725,6.701v2.607h33.361h33.362v-2.607c0-2.723-1.41-5.262-3.725-6.701l-9.318-10.057
		c-3.638-3.92-3.949-9.875-0.749-14.154l15.66-20.859c2.713-3.615,5.446-7.217,8.199-10.801c0.827-1.475,1.216-3.154,1.118-4.844
		v-2.607H165.288z"/>
</g>
</svg>
