<?xml version="1.0" encoding="UTF-8" standalone="no"?>
<!-- Generator: Adobe Illustrator 16.0.0, SVG Export Plug-In . SVG Version: 6.00 Build 0)  -->

<svg
   xmlns:dc="http://purl.org/dc/elements/1.1/"
   xmlns:cc="http://creativecommons.org/ns#"
   xmlns:rdf="http://www.w3.org/1999/02/22-rdf-syntax-ns#"
   xmlns:svg="http://www.w3.org/2000/svg"
   xmlns="http://www.w3.org/2000/svg"
   xmlns:sodipodi="http://sodipodi.sourceforge.net/DTD/sodipodi-0.dtd"
   xmlns:inkscape="http://www.inkscape.org/namespaces/inkscape"
   version="1.1"
   id="Layer_1"
   x="0px"
   y="0px"
   width="397.349"
   height="106.798"
   viewBox="0 0 397.34901 106.79799"
   xml:space="preserve"
   sodipodi:docname="G4.svg"
   inkscape:version="0.92.5 (2060ec1f9f, 2020-04-08)"><metadata
   id="metadata1315"><rdf:RDF><cc:Work
       rdf:about=""><dc:format>image/svg+xml</dc:format><dc:type
         rdf:resource="http://purl.org/dc/dcmitype/StillImage" /></cc:Work></rdf:RDF></metadata><defs
   id="defs1313" /><sodipodi:namedview
   pagecolor="#ffffff"
   bordercolor="#666666"
   borderopacity="1"
   objecttolerance="10"
   gridtolerance="10"
   guidetolerance="10"
   inkscape:pageopacity="0"
   inkscape:pageshadow="2"
   inkscape:window-width="640"
   inkscape:window-height="480"
   id="namedview1311"
   showgrid="false"
   inkscape:zoom="0.55503813"
   inkscape:cx="198.6745"
   inkscape:cy="53.398994"
   inkscape:window-x="0"
   inkscape:window-y="0"
   inkscape:window-maximized="0"
   inkscape:current-layer="Layer_1" />
<g
   id="LWPOLYLINE_1_"
   transform="translate(-13.924,-159.19901)">
	
		<rect
   x="14.174"
   y="159.44901"
   style="fill:#6b3529;stroke:#6b3529;stroke-width:0.5;stroke-miterlimit:10"
   width="396.849"
   height="106.298"
   id="rect1238" />
</g>
<g
   id="LWPOLYLINE_9_"
   transform="translate(-13.924,-159.19901)">
	<path
   style="fill:#ffffff"
   d="m 360.992,162.564 50.031,50.035 -50.031,50.033 c -1.992,1.994 -4.697,3.115 -7.52,3.115 H 28.349 c -7.828,0 -14.175,-6.346 -14.175,-14.174 v -77.95 c 0,-7.832 6.347,-14.175 14.175,-14.175 h 325.123 c 2.822,0.001 5.528,1.122 7.52,3.116 z"
   id="path1241"
   inkscape:connector-curvature="0" />
</g>
<g
   id="LWPOLYLINE_2_"
   transform="translate(-13.924,-159.19901)">
	<path
   style="fill:#6b3529"
   d="m 345.775,168.609 43.988,43.99 -43.988,43.984 c -1.33,1.328 -3.127,2.08 -5.012,2.08 H 28.349 c -3.912,0 -7.085,-3.174 -7.085,-7.09 v -77.95 c 0,-3.916 3.173,-7.09 7.085,-7.09 h 312.414 c 1.885,0.001 3.682,0.748 5.012,2.076 z"
   id="path1244"
   inkscape:connector-curvature="0" />
</g>
<g
   id="LWPOLYLINE_24_"
   transform="translate(-13.924,-159.19901)">
	<rect
   x="42.441002"
   y="180.71201"
   style="fill:#ffffff"
   width="63.778999"
   height="63.778999"
   id="rect1247" />
</g>
<g
   id="LWPOLYLINE_23_"
   transform="translate(-13.924,-159.19901)">
	<rect
   x="309.742"
   y="203.739"
   style="fill:#ffffff"
   width="5.3140001"
   height="26.573999"
   id="rect1250" />
</g>
<g
   id="LWPOLYLINE_22_"
   transform="translate(-13.924,-159.19901)">
	<rect
   x="309.742"
   y="194.883"
   style="fill:#ffffff"
   width="5.3140001"
   height="5.3150001"
   id="rect1253" />
</g>
<g
   id="LWPOLYLINE_21_"
   transform="translate(-13.924,-159.19901)">
	<rect
   x="275.60901"
   y="203.743"
   style="fill:#ffffff"
   width="5.3140001"
   height="26.573999"
   id="rect1256" />
</g>
<g
   id="LWPOLYLINE_20_"
   transform="translate(-13.924,-159.19901)">
	<rect
   x="275.60901"
   y="194.883"
   style="fill:#ffffff"
   width="5.3140001"
   height="5.3150001"
   id="rect1259" />
</g>
<g
   id="LWPOLYLINE_19_"
   transform="translate(-13.924,-159.19901)">
	<polygon
   style="fill:#ffffff"
   points="295.392,220.349 299.816,203.739 305.13,203.739 298.048,230.313 292.734,230.313 285.644,203.739 290.96,203.739 "
   id="polygon1262" />
</g>
<g
   id="LWPOLYLINE_18_"
   transform="translate(-13.924,-159.19901)">
	<polygon
   style="fill:#ffffff"
   points="258.937,223.231 258.937,230.317 253.623,230.317 253.623,194.883 258.937,194.883 258.937,213.47 259.507,212.599 265.003,204.134 271.341,204.134 265.386,213.306 271.341,230.317 265.707,230.317 261.728,218.94 "
   id="polygon1265" />
</g>
<g
   id="LWPOLYLINE_17_"
   transform="translate(-13.924,-159.19901)">
	<path
   style="fill:#ffffff"
   d="m 234.841,203.743 h -5.316 v 26.574 h 5.316 v -18.779 c 0,-1.957 1.586,-3.543 3.547,-3.543 1.955,0 3.541,1.586 3.541,3.543 v 18.779 h 5.314 v -19.842 c 0,-3.721 -3.016,-6.732 -6.729,-6.732 h -1.484 c -1.463,0.238 -2.877,0.715 -4.189,1.406 z"
   id="path1268"
   inkscape:connector-curvature="0" />
</g>
<g
   id="LWPOLYLINE_16_"
   transform="translate(-13.924,-159.19901)">
	<path
   style="fill:#ffffff"
   d="m 199.41,194.883 h -5.315 v 10.872 c -0.524,-0.293 -1.063,-0.547 -1.618,-0.766 l -2.095,-0.813 c -3.283,-1.275 -6.979,0.348 -8.254,3.631 -0.289,0.738 -0.438,1.52 -0.438,2.313 v 13.818 c 0,3.467 2.767,6.297 6.237,6.375 2.157,-0.031 4.275,-0.602 6.167,-1.65 v 1.654 h 5.315 v -35.434 z"
   id="path1271"
   inkscape:connector-curvature="0" />
</g>
<g
   id="LWPOLYLINE_15_"
   transform="translate(-13.924,-159.19901)">
	<rect
   x="157.60001"
   y="203.743"
   style="fill:#ffffff"
   width="5.3169999"
   height="26.573999"
   id="rect1274" />
</g>
<g
   id="LWPOLYLINE_14_"
   transform="translate(-13.924,-159.19901)">
	<rect
   x="157.60001"
   y="194.883"
   style="fill:#ffffff"
   width="5.3169999"
   height="5.3150001"
   id="rect1277" />
</g>
<g
   id="LWPOLYLINE_13_"
   transform="translate(-13.924,-159.19901)">
	<polygon
   style="fill:#ffffff"
   points="132.795,209.058 132.795,194.883 127.48,194.883 127.48,230.317 132.795,230.317 132.795,214.372 145.196,214.372 145.196,230.317 150.511,230.317 150.511,194.883 145.196,194.883 145.196,209.058 "
   id="polygon1280" />
</g>
<g
   id="LWPOLYLINE_12_"
   transform="translate(-13.924,-159.19901)">
	<rect
   x="169.998"
   y="203.743"
   style="fill:#ffffff"
   width="5.3150001"
   height="26.573999"
   id="rect1283" />
</g>
<g
   id="LWPOLYLINE_11_"
   transform="translate(-13.924,-159.19901)">
	<rect
   x="169.998"
   y="194.883"
   style="fill:#ffffff"
   width="5.3150001"
   height="5.3150001"
   id="rect1286" />
</g>
<g
   id="LWPOLYLINE_10_"
   transform="translate(-13.924,-159.19901)">
	<path
   style="fill:#ffffff"
   d="m 223.125,221.474 c 0,4.893 -3.963,8.855 -8.855,8.855 -4.893,0 -8.864,-3.963 -8.864,-8.855 v -8.859 c 0,-4.893 3.971,-8.859 8.864,-8.859 4.893,0 8.855,3.967 8.855,8.859 v 4.959 H 210.9 210.728 l -0.008,3.893 c 0,1.953 1.579,3.545 3.542,3.549 1.953,0.008 3.541,-1.58 3.549,-3.533 -0.001,-0.009 5.314,-0.009 5.314,-0.009 z"
   id="path1289"
   inkscape:connector-curvature="0" />
</g>
<g
   id="LWPOLYLINE_8_"
   transform="translate(-13.924,-159.19901)">
	<path
   style="fill:#6b3529"
   d="m 76.387,214.063 v -7.035 c -0.152,-3.117 0.68,-6.201 2.384,-8.816 3.838,-4.212 9.383,-6.448 15.065,-6.073 3.201,-0.305 6.03,2.04 6.331,5.229 0.606,3.728 -0.328,7.542 -2.583,10.576 -3.236,3.908 -8.059,6.154 -13.135,6.119 h -8.062"
   id="path1292"
   inkscape:connector-curvature="0" />
</g>
<g
   id="LWPOLYLINE_7_"
   transform="translate(-13.924,-159.19901)">
	<path
   style="fill:#6b3529"
   d="m 76.387,216.804 4.244,0.02 c 1.88,-0.016 3.755,0.207 5.581,0.664 2.317,0.711 4.381,2.074 5.952,3.924 0.911,1.242 1.54,2.664 1.852,4.17 0.329,1.348 0.36,2.754 0.094,4.115 -0.152,1.211 -0.895,2.266 -1.985,2.82 -0.86,0.408 -1.79,0.635 -2.74,0.666 -0.93,0.074 -1.864,0.074 -2.791,0 -1.606,-0.18 -3.169,-0.635 -4.623,-1.334 -1.751,-0.707 -3.232,-1.953 -4.221,-3.561 -0.602,-0.93 -1,-1.969 -1.172,-3.063 -0.121,-0.773 -0.184,-1.557 -0.18,-2.338 z"
   id="path1295"
   inkscape:connector-curvature="0" />
</g>
<g
   id="LWPOLYLINE_6_"
   transform="translate(-13.924,-159.19901)">
	<path
   style="fill:#6b3529"
   d="m 72.275,214.063 v -7.035 c 0.156,-3.117 -0.68,-6.201 -2.38,-8.816 -3.838,-4.212 -9.383,-6.448 -15.069,-6.073 -3.189,-0.305 -6.022,2.032 -6.331,5.222 -0.602,3.736 0.328,7.55 2.583,10.583 3.236,3.908 8.059,6.154 13.135,6.119 h 8.062"
   id="path1298"
   inkscape:connector-curvature="0" />
</g>
<g
   id="LWPOLYLINE_5_"
   transform="translate(-13.924,-159.19901)">
	<path
   style="fill:#6b3529"
   d="m 72.275,216.804 -4.24,0.02 c -1.884,-0.016 -3.756,0.207 -5.581,0.664 -2.322,0.711 -4.385,2.074 -5.956,3.924 -0.911,1.242 -1.54,2.664 -1.853,4.17 -0.328,1.348 -0.359,2.754 -0.094,4.115 0.152,1.211 0.895,2.266 1.985,2.82 0.86,0.408 1.794,0.635 2.74,0.666 0.93,0.074 1.864,0.074 2.79,0 1.606,-0.18 3.169,-0.635 4.624,-1.334 1.75,-0.707 3.232,-1.953 4.225,-3.561 0.598,-0.93 0.997,-1.969 1.168,-3.063 0.121,-0.773 0.184,-1.557 0.184,-2.338 z"
   id="path1301"
   inkscape:connector-curvature="0" />
</g>
<g
   id="LWPOLYLINE_4_"
   transform="translate(-13.924,-159.19901)">
	<path
   style="fill:#6b3529"
   d="m 194.095,222.876 v -11.338 c 0,-1.957 -1.587,-3.543 -3.541,-3.543 -1.961,0 -3.548,1.586 -3.548,3.543 v 11.338 c 0,1.959 1.587,3.545 3.548,3.545 1.954,0 3.541,-1.586 3.541,-3.545 z"
   id="path1304"
   inkscape:connector-curvature="0" />
</g>
<g
   id="LWPOLYLINE_3_"
   transform="translate(-13.924,-159.19901)">
	<path
   style="fill:#6b3529"
   d="m 217.613,212.97 h -6.713 -0.156 c -0.031,-0.234 -0.031,-0.477 0,-0.711 0.195,-1.947 1.931,-3.365 3.877,-3.17 1.945,0.195 3.369,1.934 3.174,3.881 z"
   id="path1307"
   inkscape:connector-curvature="0" />
</g>
</svg>