<?xml version="1.0" encoding="iso-8859-1"?>
<!-- Generator: Adobe Illustrator 16.0.0, SVG Export Plug-In . SVG Version: 6.00 Build 0)  -->
<!DOCTYPE svg PUBLIC "-//W3C//DTD SVG 1.1//EN" "http://www.w3.org/Graphics/SVG/1.1/DTD/svg11.dtd">
<svg version="1.1" id="Layer_1" xmlns="http://www.w3.org/2000/svg" xmlns:xlink="http://www.w3.org/1999/xlink" x="0px" y="0px"
	 width="425.197px" height="425.196px" viewBox="0 0 425.197 425.196" style="enable-background:new 0 0 425.197 425.196;"
	 xml:space="preserve">
<g id="LWPOLYLINE_1_">
	
		<rect x="14.174" y="159.449" style="fill:#6B3529;stroke:#6B3529;stroke-width:0.5;stroke-miterlimit:10;" width="396.849" height="106.298"/>
</g>
<g id="LWPOLYLINE_9_">
	<path style="fill:#FFFFFF;" d="M360.992,162.564l50.031,50.035l-50.031,50.033c-1.992,1.994-4.697,3.115-7.52,3.115H28.349
		c-7.828,0-14.175-6.346-14.175-14.174v-77.95c0-7.832,6.347-14.175,14.175-14.175h325.123
		C356.294,159.449,359,160.57,360.992,162.564z"/>
</g>
<g id="LWPOLYLINE_2_">
	<path style="fill:#6B3529;" d="M345.775,168.609l43.988,43.99l-43.988,43.984c-1.33,1.328-3.127,2.08-5.012,2.08H28.349
		c-3.912,0-7.085-3.174-7.085-7.09v-77.95c0-3.916,3.173-7.09,7.085-7.09h312.414C342.648,166.534,344.445,167.281,345.775,168.609z
		"/>
</g>
<g id="LWPOLYLINE_24_">
	<rect x="42.441" y="180.712" style="fill:#FFFFFF;" width="63.779" height="63.779"/>
</g>
<g id="LWPOLYLINE_23_">
	<rect x="309.742" y="203.739" style="fill:#FFFFFF;" width="5.314" height="26.574"/>
</g>
<g id="LWPOLYLINE_22_">
	<rect x="309.742" y="194.883" style="fill:#FFFFFF;" width="5.314" height="5.315"/>
</g>
<g id="LWPOLYLINE_21_">
	<rect x="275.609" y="203.743" style="fill:#FFFFFF;" width="5.314" height="26.574"/>
</g>
<g id="LWPOLYLINE_20_">
	<rect x="275.609" y="194.883" style="fill:#FFFFFF;" width="5.314" height="5.315"/>
</g>
<g id="LWPOLYLINE_19_">
	<polygon style="fill:#FFFFFF;" points="285.644,203.739 290.96,203.739 295.392,220.349 299.816,203.739 305.13,203.739 
		298.048,230.313 292.734,230.313 	"/>
</g>
<g id="LWPOLYLINE_18_">
	<polygon style="fill:#FFFFFF;" points="265.707,230.317 261.728,218.94 258.937,223.231 258.937,230.317 253.623,230.317 
		253.623,194.883 258.937,194.883 258.937,213.47 259.507,212.599 265.003,204.134 271.341,204.134 265.386,213.306 
		271.341,230.317 	"/>
</g>
<g id="LWPOLYLINE_17_">
	<path style="fill:#FFFFFF;" d="M234.841,203.743h-5.316v26.574h5.316v-18.779c0-1.957,1.586-3.543,3.547-3.543
		c1.955,0,3.541,1.586,3.541,3.543v18.779h5.314v-19.842c0-3.721-3.016-6.732-6.729-6.732h-1.484
		c-1.463,0.238-2.877,0.715-4.189,1.406V203.743z"/>
</g>
<g id="LWPOLYLINE_16_">
	<path style="fill:#FFFFFF;" d="M199.41,194.883h-5.315v10.872c-0.524-0.293-1.063-0.547-1.618-0.766l-2.095-0.813
		c-3.283-1.275-6.979,0.348-8.254,3.631c-0.289,0.738-0.438,1.52-0.438,2.313v13.818c0,3.467,2.767,6.297,6.237,6.375
		c2.157-0.031,4.275-0.602,6.167-1.65v1.654h5.315V194.883z"/>
</g>
<g id="LWPOLYLINE_15_">
	<rect x="157.6" y="203.743" style="fill:#FFFFFF;" width="5.317" height="26.574"/>
</g>
<g id="LWPOLYLINE_14_">
	<rect x="157.6" y="194.883" style="fill:#FFFFFF;" width="5.317" height="5.315"/>
</g>
<g id="LWPOLYLINE_13_">
	<polygon style="fill:#FFFFFF;" points="145.196,194.883 145.196,209.058 132.795,209.058 132.795,194.883 127.48,194.883 
		127.48,230.317 132.795,230.317 132.795,214.372 145.196,214.372 145.196,230.317 150.511,230.317 150.511,194.883 	"/>
</g>
<g id="LWPOLYLINE_12_">
	<rect x="169.998" y="203.743" style="fill:#FFFFFF;" width="5.315" height="26.574"/>
</g>
<g id="LWPOLYLINE_11_">
	<rect x="169.998" y="194.883" style="fill:#FFFFFF;" width="5.315" height="5.315"/>
</g>
<g id="LWPOLYLINE_10_">
	<path style="fill:#FFFFFF;" d="M223.125,221.474c0,4.893-3.963,8.855-8.855,8.855c-4.893,0-8.864-3.963-8.864-8.855v-8.859
		c0-4.893,3.971-8.859,8.864-8.859c4.893,0,8.855,3.967,8.855,8.859v4.959h-12.225h-0.172l-0.008,3.893
		c0,1.953,1.579,3.545,3.542,3.549c1.953,0.008,3.541-1.58,3.549-3.533C217.81,221.474,223.125,221.474,223.125,221.474z"/>
</g>
<g id="LWPOLYLINE_8_">
	<path style="fill:#6B3529;" d="M76.387,214.063v-7.035c-0.152-3.117,0.68-6.201,2.384-8.816c3.838-4.212,9.383-6.448,15.065-6.073
		c3.201-0.305,6.03,2.04,6.331,5.229c0.606,3.728-0.328,7.542-2.583,10.576c-3.236,3.908-8.059,6.154-13.135,6.119H76.387"/>
</g>
<g id="LWPOLYLINE_7_">
	<path style="fill:#6B3529;" d="M76.387,216.804l4.244,0.02c1.88-0.016,3.755,0.207,5.581,0.664
		c2.317,0.711,4.381,2.074,5.952,3.924c0.911,1.242,1.54,2.664,1.852,4.17c0.329,1.348,0.36,2.754,0.094,4.115
		c-0.152,1.211-0.895,2.266-1.985,2.82c-0.86,0.408-1.79,0.635-2.74,0.666c-0.93,0.074-1.864,0.074-2.791,0
		c-1.606-0.18-3.169-0.635-4.623-1.334c-1.751-0.707-3.232-1.953-4.221-3.561c-0.602-0.93-1-1.969-1.172-3.063
		c-0.121-0.773-0.184-1.557-0.18-2.338L76.387,216.804z"/>
</g>
<g id="LWPOLYLINE_6_">
	<path style="fill:#6B3529;" d="M72.275,214.063v-7.035c0.156-3.117-0.68-6.201-2.38-8.816c-3.838-4.212-9.383-6.448-15.069-6.073
		c-3.189-0.305-6.022,2.032-6.331,5.222c-0.602,3.736,0.328,7.55,2.583,10.583c3.236,3.908,8.059,6.154,13.135,6.119H72.275"/>
</g>
<g id="LWPOLYLINE_5_">
	<path style="fill:#6B3529;" d="M72.275,216.804l-4.24,0.02c-1.884-0.016-3.756,0.207-5.581,0.664
		c-2.322,0.711-4.385,2.074-5.956,3.924c-0.911,1.242-1.54,2.664-1.853,4.17c-0.328,1.348-0.359,2.754-0.094,4.115
		c0.152,1.211,0.895,2.266,1.985,2.82c0.86,0.408,1.794,0.635,2.74,0.666c0.93,0.074,1.864,0.074,2.79,0
		c1.606-0.18,3.169-0.635,4.624-1.334c1.75-0.707,3.232-1.953,4.225-3.561c0.598-0.93,0.997-1.969,1.168-3.063
		c0.121-0.773,0.184-1.557,0.184-2.338L72.275,216.804z"/>
</g>
<g id="LWPOLYLINE_4_">
	<path style="fill:#6B3529;" d="M194.095,222.876v-11.338c0-1.957-1.587-3.543-3.541-3.543c-1.961,0-3.548,1.586-3.548,3.543v11.338
		c0,1.959,1.587,3.545,3.548,3.545C192.508,226.421,194.095,224.835,194.095,222.876z"/>
</g>
<g id="LWPOLYLINE_3_">
	<path style="fill:#6B3529;" d="M217.613,212.97h-6.713h-0.156c-0.031-0.234-0.031-0.477,0-0.711
		c0.195-1.947,1.931-3.365,3.877-3.17c1.945,0.195,3.369,1.934,3.174,3.881H217.613z"/>
</g>
</svg>
