<?xml version="1.0" encoding="UTF-8" standalone="no"?>
<!-- Generator: Adobe Illustrator 16.0.0, SVG Export Plug-In . SVG Version: 6.00 Build 0)  -->

<svg
   xmlns:dc="http://purl.org/dc/elements/1.1/"
   xmlns:cc="http://creativecommons.org/ns#"
   xmlns:rdf="http://www.w3.org/1999/02/22-rdf-syntax-ns#"
   xmlns:svg="http://www.w3.org/2000/svg"
   xmlns="http://www.w3.org/2000/svg"
   xmlns:sodipodi="http://sodipodi.sourceforge.net/DTD/sodipodi-0.dtd"
   xmlns:inkscape="http://www.inkscape.org/namespaces/inkscape"
   version="1.1"
   id="Layer_1"
   x="0px"
   y="0px"
   width="397.353"
   height="269.78799"
   viewBox="0 0 397.35301 269.78799"
   xml:space="preserve"
   sodipodi:docname="G5.svg"
   inkscape:version="0.92.5 (2060ec1f9f, 2020-04-08)"><metadata
   id="metadata1614"><rdf:RDF><cc:Work
       rdf:about=""><dc:format>image/svg+xml</dc:format><dc:type
         rdf:resource="http://purl.org/dc/dcmitype/StillImage" /></cc:Work></rdf:RDF></metadata><defs
   id="defs1612" /><sodipodi:namedview
   pagecolor="#ffffff"
   bordercolor="#666666"
   borderopacity="1"
   objecttolerance="10"
   gridtolerance="10"
   guidetolerance="10"
   inkscape:pageopacity="0"
   inkscape:pageshadow="2"
   inkscape:window-width="640"
   inkscape:window-height="480"
   id="namedview1610"
   showgrid="false"
   inkscape:zoom="0.55503813"
   inkscape:cx="198.6765"
   inkscape:cy="134.892"
   inkscape:window-x="0"
   inkscape:window-y="0"
   inkscape:window-maximized="0"
   inkscape:current-layer="Layer_1" />
<g
   id="LWPOLYLINE_93_"
   transform="translate(-13.922,-77.702)">
	
		<rect
   x="14.172"
   y="205.511"
   style="fill:#6b3529;stroke:#6b3529;stroke-width:0.5;stroke-miterlimit:10"
   width="396.853"
   height="141.729"
   id="rect1525" />
</g>
<g
   id="LWPOLYLINE_119_"
   transform="translate(-13.922,-77.702)">
	<path
   style="fill:#ffffff"
   d="m 31.18,347.244 h 362.837 c 9.387,0 17.008,-7.617 17.008,-17.008 V 222.519 c 0,-9.391 -7.621,-17.008 -17.008,-17.008 H 31.18 c -9.391,0 -17.008,7.617 -17.008,17.008 v 107.718 c 0,9.39 7.617,17.007 17.008,17.007 z"
   id="path1528"
   inkscape:connector-curvature="0" />
</g>
<g
   id="LWPOLYLINE_118_"
   transform="translate(-13.922,-77.702)">
	<path
   style="fill:#6b3529"
   d="m 31.18,338.74 h 362.837 c 4.697,0 8.504,-3.807 8.504,-8.504 V 222.519 c 0,-4.697 -3.807,-8.504 -8.504,-8.504 H 31.18 c -4.697,0 -8.504,3.807 -8.504,8.504 v 107.718 c 0,4.697 3.807,8.503 8.504,8.503 z"
   id="path1531"
   inkscape:connector-curvature="0" />
</g>
<g
   id="LWPOLYLINE_116_"
   transform="translate(-13.922,-77.702)">
	<polyline
   style="fill:#6b3529;stroke:#6b3529;stroke-width:0.5;stroke-miterlimit:10"
   points="14.172,205.511 411.025,205.511    411.025,77.952 14.172,77.952 14.172,205.511  "
   id="polyline1534" />
</g>
<g
   id="LWPOLYLINE_115_"
   transform="translate(-13.922,-77.702)">
	<path
   style="fill:#ffffff"
   d="m 31.18,205.511 h 362.837 c 9.387,0 17.008,-7.617 17.008,-17.008 V 94.96 c 0,-9.391 -7.621,-17.008 -17.008,-17.008 H 31.18 c -9.391,0 -17.008,7.617 -17.008,17.008 v 93.543 c 0,9.391 7.617,17.008 17.008,17.008 z"
   id="path1537"
   inkscape:connector-curvature="0" />
</g>
<g
   id="LWPOLYLINE_114_"
   transform="translate(-13.922,-77.702)">
	<path
   style="fill:#6b3529"
   d="m 31.18,197.007 h 362.837 c 4.697,0 8.504,-3.811 8.504,-8.504 V 94.96 c 0,-4.697 -3.807,-8.504 -8.504,-8.504 H 31.18 c -4.697,0 -8.504,3.807 -8.504,8.504 v 93.543 c 0,4.693 3.807,8.504 8.504,8.504 z"
   id="path1540"
   inkscape:connector-curvature="0" />
</g>
<g
   id="LWPOLYLINE_120_"
   transform="translate(-13.922,-77.702)">
	<path
   style="fill:#ffffff"
   d="m 161.574,327.398 h 17.008 v -55.275 c 0,-2.345 1.907,-4.252 4.252,-4.252 h 50.234 l -25.511,25.512 h 22.048 l 34.016,-34.016 -34.016,-34.016 h -22.048 l 25.511,25.512 h -62.99 c -4.697,0 -8.504,3.807 -8.504,8.504 z"
   id="path1543"
   inkscape:connector-curvature="0" />
</g>
<g
   id="LWPOLYLINE_98_"
   transform="translate(-13.922,-77.702)">
	<rect
   x="377.71201"
   y="131.105"
   style="fill:#ffffff"
   width="6.3790002"
   height="31.889999"
   id="rect1546" />
</g>
<g
   id="LWPOLYLINE_99_"
   transform="translate(-13.922,-77.702)">
	<rect
   x="377.71201"
   y="120.476"
   style="fill:#ffffff"
   width="6.3790002"
   height="6.3779998"
   id="rect1549" />
</g>
<g
   id="LWPOLYLINE_100_"
   transform="translate(-13.922,-77.702)">
	<rect
   x="336.48999"
   y="131.105"
   style="fill:#ffffff"
   width="6.3790002"
   height="31.889999"
   id="rect1552" />
</g>
<g
   id="LWPOLYLINE_101_"
   transform="translate(-13.922,-77.702)">
	<rect
   x="336.48999"
   y="120.476"
   style="fill:#ffffff"
   width="6.3790002"
   height="6.3779998"
   id="rect1555" />
</g>
<g
   id="LWPOLYLINE_102_"
   transform="translate(-13.922,-77.702)">
	<polygon
   style="fill:#ffffff"
   points="360.494,151.036 365.808,131.105 372.187,131.105 363.683,162.995 357.304,162.995 348.8,131.105 355.179,131.105 "
   id="polygon1558" />
</g>
<g
   id="LWPOLYLINE_103_"
   transform="translate(-13.922,-77.702)">
	<polygon
   style="fill:#ffffff"
   points="324.218,142.579 331.371,131.574 323.765,131.574 317.169,141.728 316.49,142.778 316.49,120.476 310.111,120.476 310.111,162.995 316.49,162.995 316.49,154.491 319.833,149.341 324.611,162.995 331.371,162.995 "
   id="polygon1561" />
</g>
<g
   id="LWPOLYLINE_104_"
   transform="translate(-13.922,-77.702)">
	<path
   style="fill:#ffffff"
   d="m 287.57,131.105 h -6.379 v 31.89 h 6.379 v -22.538 c 0,-2.349 1.906,-4.252 4.252,-4.252 2.352,0 4.252,1.903 4.252,4.252 v 22.538 h 6.377 v -23.812 c 0,-4.463 -3.609,-8.078 -8.074,-8.078 h -1.781 c -1.75,0.281 -3.447,0.852 -5.025,1.685 v -1.685 z"
   id="path1564"
   inkscape:connector-curvature="0" />
</g>
<g
   id="LWPOLYLINE_105_"
   transform="translate(-13.922,-77.702)">
	<path
   style="fill:#ffffff"
   d="m 245.05,120.476 h -6.371 v 13.041 c -0.633,-0.348 -1.281,-0.656 -1.945,-0.918 l -2.51,-0.973 c -3.939,-1.536 -8.379,0.418 -9.91,4.357 -0.344,0.883 -0.516,1.825 -0.516,2.775 v 16.582 c 0,4.162 3.314,7.559 7.473,7.652 2.594,-0.043 5.143,-0.723 7.408,-1.985 v 1.989 h 6.371 z"
   id="path1567"
   inkscape:connector-curvature="0" />
</g>
<g
   id="LWPOLYLINE_107_"
   transform="translate(-13.922,-77.702)">
	<rect
   x="194.87801"
   y="131.105"
   style="fill:#ffffff"
   width="6.3779998"
   height="31.889999"
   id="rect1570" />
</g>
<g
   id="LWPOLYLINE_108_"
   transform="translate(-13.922,-77.702)">
	<rect
   x="194.87801"
   y="120.476"
   style="fill:#ffffff"
   width="6.3779998"
   height="6.3779998"
   id="rect1573" />
</g>
<g
   id="LWPOLYLINE_109_"
   transform="translate(-13.922,-77.702)">
	<polygon
   style="fill:#ffffff"
   points="165.115,137.483 165.115,120.476 158.739,120.476 158.739,162.995 165.115,162.995 165.115,143.861 179.997,143.861 179.997,162.995 186.375,162.995 186.375,120.476 179.997,120.476 179.997,137.483 "
   id="polygon1576" />
</g>
<g
   id="LWPOLYLINE_110_"
   transform="translate(-13.922,-77.702)">
	<rect
   x="209.761"
   y="131.105"
   style="fill:#ffffff"
   width="6.3769999"
   height="31.889999"
   id="rect1579" />
</g>
<g
   id="LWPOLYLINE_111_"
   transform="translate(-13.922,-77.702)">
	<rect
   x="209.761"
   y="120.476"
   style="fill:#ffffff"
   width="6.3769999"
   height="6.3779998"
   id="rect1582" />
</g>
<g
   id="LWPOLYLINE_113_"
   transform="translate(-13.922,-77.702)">
	<path
   style="fill:#ffffff"
   d="m 273.509,152.381 c 0,5.87 -4.762,10.63 -10.631,10.63 -5.869,0 -10.629,-4.76 -10.629,-10.63 v -10.63 c 0,-5.874 4.76,-10.63 10.629,-10.63 5.869,0 10.631,4.756 10.631,10.63 v 5.948 h -14.672 -0.203 l -0.008,4.67 c 0,2.349 1.9,4.256 4.244,4.264 2.354,0 4.26,-1.899 4.26,-4.244 0,-0.008 6.379,-0.008 6.379,-0.008 z"
   id="path1585"
   inkscape:connector-curvature="0" />
</g>
<g
   id="LWPOLYLINE_117_"
   transform="translate(-13.922,-77.702)">
	<rect
   x="48.188"
   y="99.216003"
   style="fill:#ffffff"
   width="85.039001"
   height="85.035004"
   id="rect1588" />
</g>
<g
   id="LWPOLYLINE_94_"
   transform="translate(-13.922,-77.702)">
	<path
   style="fill:#6b3529"
   d="m 93.541,145.534 v -9.7 c -0.211,-4.291 0.938,-8.547 3.283,-12.15 5.292,-5.803 12.936,-8.883 20.771,-8.371 4.409,-0.418 8.313,2.81 8.727,7.21 0.833,5.139 -0.454,10.396 -3.561,14.573 -4.459,5.389 -11.11,8.488 -18.106,8.438 H 93.541"
   id="path1591"
   inkscape:connector-curvature="0" />
</g>
<g
   id="LWPOLYLINE_95_"
   transform="translate(-13.922,-77.702)">
	<path
   style="fill:#6b3529"
   d="m 93.541,149.31 5.846,0.031 c 2.595,-0.023 5.178,0.281 7.695,0.91 3.197,0.984 6.042,2.864 8.207,5.412 1.255,1.712 2.122,3.674 2.552,5.745 0.453,1.86 0.496,3.799 0.133,5.675 -0.211,1.669 -1.239,3.126 -2.74,3.889 -1.184,0.559 -2.47,0.871 -3.779,0.918 -1.278,0.102 -2.564,0.102 -3.846,0 -2.212,-0.254 -4.365,-0.875 -6.37,-1.837 -2.415,-0.977 -4.455,-2.696 -5.823,-4.908 -0.825,-1.282 -1.372,-2.72 -1.61,-4.225 -0.168,-1.063 -0.254,-2.138 -0.25,-3.216 z"
   id="path1594"
   inkscape:connector-curvature="0" />
</g>
<g
   id="LWPOLYLINE_96_"
   transform="translate(-13.922,-77.702)">
	<path
   style="fill:#6b3529"
   d="m 87.874,145.534 v -9.7 c 0.211,-4.291 -0.934,-8.547 -3.283,-12.15 -5.292,-5.803 -12.936,-8.883 -20.771,-8.371 -4.396,-0.422 -8.305,2.802 -8.723,7.199 -0.836,5.151 0.449,10.407 3.556,14.585 4.463,5.389 11.111,8.488 18.106,8.438 h 11.115"
   id="path1597"
   inkscape:connector-curvature="0" />
</g>
<g
   id="LWPOLYLINE_97_"
   transform="translate(-13.922,-77.702)">
	<path
   style="fill:#6b3529"
   d="m 87.874,149.31 -5.846,0.031 c -2.595,-0.023 -5.178,0.281 -7.695,0.91 -3.193,0.984 -6.042,2.864 -8.207,5.412 -1.25,1.712 -2.122,3.674 -2.552,5.745 -0.454,1.86 -0.497,3.799 -0.133,5.675 0.215,1.669 1.239,3.126 2.739,3.889 1.184,0.559 2.47,0.871 3.779,0.918 1.278,0.102 2.567,0.102 3.845,0 2.212,-0.254 4.365,-0.875 6.37,-1.837 2.416,-0.977 4.456,-2.696 5.823,-4.908 0.825,-1.282 1.375,-2.72 1.61,-4.225 0.172,-1.063 0.254,-2.138 0.254,-3.216 z"
   id="path1600"
   inkscape:connector-curvature="0" />
</g>
<g
   id="LWPOLYLINE_106_"
   transform="translate(-13.922,-77.702)">
	<path
   style="fill:#6b3529"
   d="m 238.679,154.065 v -13.608 c 0,-2.349 -1.906,-4.252 -4.252,-4.252 -2.352,0 -4.252,1.903 -4.252,4.252 v 13.608 c 0,2.349 1.9,4.252 4.252,4.252 2.346,0 4.252,-1.903 4.252,-4.252 z"
   id="path1603"
   inkscape:connector-curvature="0" />
</g>
<g
   id="LWPOLYLINE_112_"
   transform="translate(-13.922,-77.702)">
	<path
   style="fill:#6b3529"
   d="m 266.896,142.173 h -8.059 -0.188 c -0.031,-0.281 -0.031,-0.566 0,-0.852 0.234,-2.337 2.322,-4.037 4.658,-3.803 2.338,0.234 4.041,2.317 3.807,4.654 h -0.218 z"
   id="path1606"
   inkscape:connector-curvature="0" />
</g>
</svg>