<?xml version="1.0" encoding="UTF-8" standalone="no"?>
<!-- Generator: Adobe Illustrator 16.0.0, SVG Export Plug-In . SVG Version: 6.00 Build 0)  -->

<svg
   xmlns:dc="http://purl.org/dc/elements/1.1/"
   xmlns:cc="http://creativecommons.org/ns#"
   xmlns:rdf="http://www.w3.org/1999/02/22-rdf-syntax-ns#"
   xmlns:svg="http://www.w3.org/2000/svg"
   xmlns="http://www.w3.org/2000/svg"
   xmlns:sodipodi="http://sodipodi.sourceforge.net/DTD/sodipodi-0.dtd"
   xmlns:inkscape="http://www.inkscape.org/namespaces/inkscape"
   version="1.1"
   id="Layer_1"
   x="0px"
   y="0px"
   width="397.34799"
   height="326.79901"
   viewBox="0 0 397.348 326.799"
   xml:space="preserve"
   sodipodi:docname="G7.svg"
   inkscape:version="0.92.5 (2060ec1f9f, 2020-04-08)"><metadata
   id="metadata1709"><rdf:RDF><cc:Work
       rdf:about=""><dc:format>image/svg+xml</dc:format><dc:type
         rdf:resource="http://purl.org/dc/dcmitype/StillImage" /></cc:Work></rdf:RDF></metadata><defs
   id="defs1707" /><sodipodi:namedview
   pagecolor="#ffffff"
   bordercolor="#666666"
   borderopacity="1"
   objecttolerance="10"
   gridtolerance="10"
   guidetolerance="10"
   inkscape:pageopacity="0"
   inkscape:pageshadow="2"
   inkscape:window-width="640"
   inkscape:window-height="480"
   id="namedview1705"
   showgrid="false"
   inkscape:zoom="0.55503813"
   inkscape:cx="201.7875"
   inkscape:cy="172.92801"
   inkscape:window-x="0"
   inkscape:window-y="0"
   inkscape:window-maximized="0"
   inkscape:current-layer="Layer_1" />
<g
   id="LWPOLYLINE_2_"
   transform="translate(-10.811,-58.727001)">
	
		<rect
   x="11.061"
   y="58.977001"
   style="fill:#005eb8;stroke:#005eb8;stroke-width:0.5;stroke-miterlimit:10"
   width="396.84799"
   height="326.29901"
   id="rect1686" />
</g>
<g
   id="LWPOLYLINE_70_"
   transform="translate(-10.811,-58.727001)">
	<path
   style="fill:#ffffff"
   d="m 37.517,58.977 h 343.936 c 14.609,0 26.456,11.845 26.456,26.457 V 358.82 c 0,14.608 -11.847,26.456 -26.456,26.456 H 37.517 C 22.908,385.276 11.06,373.428 11.06,358.82 V 85.433 C 11.061,70.821 22.908,58.977 37.517,58.977 Z"
   id="path1689"
   inkscape:connector-curvature="0" />
</g>
<g
   id="LWPOLYLINE_3_"
   transform="translate(-10.811,-58.727001)">
	<path
   style="fill:#005eb8"
   d="m 37.517,72.205 h 343.936 c 7.305,0 13.228,5.923 13.228,13.228 v 273.386 c 0,7.304 -5.923,13.228 -13.228,13.228 H 37.517 c -7.305,0 -13.228,-5.924 -13.228,-13.228 V 85.433 c 0,-7.305 5.923,-13.228 13.228,-13.228 z"
   id="path1692"
   inkscape:connector-curvature="0" />
</g>
<g
   id="LWPOLYLINE_4_"
   transform="translate(-10.811,-58.727001)">
	<rect
   x="110.078"
   y="123.021"
   style="fill:#ffffff"
   width="198.425"
   height="198.423"
   id="rect1695" />
</g>
<g
   id="CIRCLE_2_"
   transform="translate(-10.811,-58.727001)">
	<path
   style="fill:#101820"
   d="m 242.362,164.909 c 0,-18.262 -14.807,-33.07 -33.073,-33.07 -18.262,0 -33.071,14.809 -33.071,33.07 0,18.261 14.809,33.07 33.071,33.07 18.266,0 33.073,-14.808 33.073,-33.07 z"
   id="path1698"
   inkscape:connector-curvature="0" />
</g>
<g
   id="LWPOLYLINE_5_"
   transform="translate(-10.811,-58.727001)">
	<path
   style="fill:#101820"
   d="m 143.148,308.216 v -4.411 c 19.361,-0.34 34.894,-16.102 34.953,-35.468 l 0.321,-37.287 c 0.107,-12.07 -9.595,-21.943 -21.666,-22.045 -0.126,0 -0.253,0 -0.379,0 v -2.208 h 83.778 v 61.91 c 0,19.385 15.719,35.098 35.104,35.098 0.059,0 0.116,0 0.175,0 v 4.411 z"
   id="path1701"
   inkscape:connector-curvature="0" />
</g>
</svg>