<?xml version="1.0" encoding="UTF-8" standalone="no"?>
<!-- Generator: Adobe Illustrator 16.0.0, SVG Export Plug-In . SVG Version: 6.00 Build 0)  -->

<svg
   xmlns:dc="http://purl.org/dc/elements/1.1/"
   xmlns:cc="http://creativecommons.org/ns#"
   xmlns:rdf="http://www.w3.org/1999/02/22-rdf-syntax-ns#"
   xmlns:svg="http://www.w3.org/2000/svg"
   xmlns="http://www.w3.org/2000/svg"
   xmlns:sodipodi="http://sodipodi.sourceforge.net/DTD/sodipodi-0.dtd"
   xmlns:inkscape="http://www.inkscape.org/namespaces/inkscape"
   version="1.1"
   id="Layer_1"
   x="0px"
   y="0px"
   width="397.34601"
   height="326.798"
   viewBox="0 0 397.34602 326.79799"
   xml:space="preserve"
   sodipodi:docname="G8.svg"
   inkscape:version="0.92.5 (2060ec1f9f, 2020-04-08)"><metadata
   id="metadata1737"><rdf:RDF><cc:Work
       rdf:about=""><dc:format>image/svg+xml</dc:format><dc:type
         rdf:resource="http://purl.org/dc/dcmitype/StillImage" /></cc:Work></rdf:RDF></metadata><defs
   id="defs1735" /><sodipodi:namedview
   pagecolor="#ffffff"
   bordercolor="#666666"
   borderopacity="1"
   objecttolerance="10"
   gridtolerance="10"
   guidetolerance="10"
   inkscape:pageopacity="0"
   inkscape:pageshadow="2"
   inkscape:window-width="640"
   inkscape:window-height="480"
   id="namedview1733"
   showgrid="false"
   inkscape:zoom="0.55503813"
   inkscape:cx="198.6735"
   inkscape:cy="163.399"
   inkscape:window-x="0"
   inkscape:window-y="0"
   inkscape:window-maximized="0"
   inkscape:current-layer="Layer_1" />
<g
   id="LWPOLYLINE_76_"
   transform="translate(-13.925,-49.199001)">
	
		<rect
   x="14.175"
   y="49.449001"
   style="fill:#005eb8;stroke:#005eb8;stroke-width:0.5;stroke-miterlimit:10"
   width="396.84601"
   height="326.298"
   id="rect1711" />
</g>
<g
   id="LWPOLYLINE_74_"
   transform="translate(-13.925,-49.199001)">
	<path
   style="fill:#ffffff"
   d="m 40.632,49.449 h 343.933 c 14.609,0 26.456,11.845 26.456,26.457 v 273.387 c 0,14.607 -11.847,26.455 -26.456,26.455 H 40.632 c -14.609,0 -26.457,-11.848 -26.457,-26.455 V 75.905 c 0,-14.612 11.848,-26.456 26.457,-26.456 z"
   id="path1714"
   inkscape:connector-curvature="0" />
</g>
<g
   id="LWPOLYLINE_75_"
   transform="translate(-13.925,-49.199001)">
	<path
   style="fill:#005eb8"
   d="m 40.632,62.677 h 343.933 c 7.305,0 13.228,5.923 13.228,13.228 v 273.387 c 0,7.303 -5.923,13.227 -13.228,13.227 H 40.632 c -7.305,0 -13.229,-5.924 -13.229,-13.227 V 75.905 c 0.001,-7.304 5.925,-13.228 13.229,-13.228 z"
   id="path1717"
   inkscape:connector-curvature="0" />
</g>
<g
   id="LWPOLYLINE_65_"
   transform="translate(-13.925,-49.199001)">
	<rect
   x="110.975"
   y="117.9"
   style="fill:#ffffff"
   width="198.422"
   height="198.427"
   id="rect1720" />
</g>
<g
   id="LWPOLYLINE_69_"
   transform="translate(-13.925,-49.199001)">
	<polygon
   style="fill:#101820"
   points="298.377,154.997 298.377,168.887 210.186,140.587 122.004,168.955 122.004,154.997 210.186,126.712 "
   id="polygon1723" />
</g>
<g
   id="CIRCLE_1_"
   transform="translate(-13.925,-49.199001)">
	<path
   style="fill:#101820"
   d="m 236.642,188.452 c 0,-14.614 -11.837,-26.456 -26.456,-26.456 -14.609,0 -26.456,11.842 -26.456,26.456 0,14.614 11.847,26.458 26.456,26.458 14.619,-0.001 26.456,-11.845 26.456,-26.458 z"
   id="path1726"
   inkscape:connector-curvature="0" />
</g>
<g
   id="LWPOLYLINE_70_"
   transform="translate(-13.925,-49.199001)">
	<path
   style="fill:#101820"
   d="m 157.273,303.095 h 105.826 v -3.525 c -15.524,0 -28.14,-12.553 -28.218,-28.082 v -49.965 h -67.025 v 1.766 c 9.746,0 17.644,7.898 17.644,17.635 l -0.263,30.273 c -0.136,15.455 -12.508,28.012 -27.964,28.373 z"
   id="path1729"
   inkscape:connector-curvature="0" />
</g>
</svg>