<?xml version="1.0" encoding="iso-8859-1"?>
<!-- Generator: Adobe Illustrator 16.0.0, SVG Export Plug-In . SVG Version: 6.00 Build 0)  -->
<!DOCTYPE svg PUBLIC "-//W3C//DTD SVG 1.1//EN" "http://www.w3.org/Graphics/SVG/1.1/DTD/svg11.dtd">
<svg version="1.1" id="Layer_1" xmlns="http://www.w3.org/2000/svg" xmlns:xlink="http://www.w3.org/1999/xlink" x="0px" y="0px"
	 width="425.197px" height="425.196px" viewBox="0 0 425.197 425.196" style="enable-background:new 0 0 425.197 425.196;"
	 xml:space="preserve">
<g id="LWPOLYLINE_76_">
	
		<rect x="14.175" y="49.449" style="fill:#005EB8;stroke:#005EB8;stroke-width:0.5;stroke-miterlimit:10;" width="396.846" height="326.298"/>
</g>
<g id="LWPOLYLINE_74_">
	<path style="fill:#FFFFFF;" d="M40.632,49.449h343.933c14.609,0,26.456,11.845,26.456,26.457v273.387
		c0,14.607-11.847,26.455-26.456,26.455H40.632c-14.609,0-26.457-11.848-26.457-26.455V75.905
		C14.175,61.293,26.023,49.449,40.632,49.449z"/>
</g>
<g id="LWPOLYLINE_75_">
	<path style="fill:#005EB8;" d="M40.632,62.677h343.933c7.305,0,13.228,5.923,13.228,13.228v273.387
		c0,7.303-5.923,13.227-13.228,13.227H40.632c-7.305,0-13.229-5.924-13.229-13.227V75.905
		C27.404,68.601,33.328,62.677,40.632,62.677z"/>
</g>
<g id="LWPOLYLINE_65_">
	<rect x="110.975" y="117.9" style="fill:#FFFFFF;" width="198.422" height="198.427"/>
</g>
<g id="LWPOLYLINE_69_">
	<polygon style="fill:#101820;" points="122.004,154.997 210.186,126.712 298.377,154.997 298.377,168.887 210.186,140.587 
		122.004,168.955 	"/>
</g>
<g id="CIRCLE_1_">
	<path style="fill:#101820;" d="M236.642,188.452c0-14.614-11.837-26.456-26.456-26.456c-14.609,0-26.456,11.842-26.456,26.456
		c0,14.614,11.847,26.458,26.456,26.458C224.805,214.909,236.642,203.065,236.642,188.452L236.642,188.452z"/>
</g>
<g id="LWPOLYLINE_70_">
	<path style="fill:#101820;" d="M157.273,303.095h105.826v-3.525c-15.524,0-28.14-12.553-28.218-28.082v-49.965h-67.025v1.766
		c9.746,0,17.644,7.898,17.644,17.635l-0.263,30.273c-0.136,15.455-12.508,28.012-27.964,28.373V303.095z"/>
</g>
</svg>
