<?xml version="1.0" encoding="iso-8859-1"?>
<!-- Generator: Adobe Illustrator 16.0.0, SVG Export Plug-In . SVG Version: 6.00 Build 0)  -->
<!DOCTYPE svg PUBLIC "-//W3C//DTD SVG 1.1//EN" "http://www.w3.org/Graphics/SVG/1.1/DTD/svg11.dtd">
<svg version="1.1" id="Layer_1" xmlns="http://www.w3.org/2000/svg" xmlns:xlink="http://www.w3.org/1999/xlink" x="0px" y="0px"
	 width="425.197px" height="425.196px" viewBox="0 0 425.197 425.196" style="enable-background:new 0 0 425.197 425.196;"
	 xml:space="preserve">
<g id="LWPOLYLINE_142_">
	<rect x="14.171" y="14.173" style="fill:#FFCD00;" width="396.854" height="396.851"/>
</g>
<g id="LWPOLYLINE_144_">
	<path style="fill:#E4002B;" d="M14.171,53.855v317.479c0,21.919,17.771,39.689,39.686,39.689h317.472
		c21.919,0,39.697-17.771,39.697-39.689V53.855c0-21.919-17.778-39.683-39.697-39.683H53.857
		C31.942,14.173,14.171,31.936,14.171,53.855z"/>
</g>
<g id="LWPOLYLINE_143_">
	<path style="fill:#FFCD00;" d="M34.012,53.855v317.479c0,10.96,8.889,19.849,19.845,19.849h317.472
		c10.967,0,19.842-8.889,19.842-19.849V53.855c0-10.953-8.875-19.841-19.842-19.841H53.857
		C42.901,34.014,34.012,42.903,34.012,53.855z"/>
</g>
<g id="LWPOLYLINE_154_">
	<polygon style="fill:#101820;" points="192.759,118.342 192.759,237.894 145.631,190.773 145.631,239.885 212.6,306.847 
		279.57,239.885 279.57,190.773 232.441,237.894 232.441,118.342 	"/>
</g>
</svg>
