<?xml version="1.0" encoding="iso-8859-1"?>
<!-- Generator: Adobe Illustrator 16.0.0, SVG Export Plug-In . SVG Version: 6.00 Build 0)  -->
<!DOCTYPE svg PUBLIC "-//W3C//DTD SVG 1.1//EN" "http://www.w3.org/Graphics/SVG/1.1/DTD/svg11.dtd">
<svg version="1.1" id="Layer_1" xmlns="http://www.w3.org/2000/svg" xmlns:xlink="http://www.w3.org/1999/xlink" x="0px" y="0px"
	 width="425.197px" height="425.196px" viewBox="0 0 425.197 425.196" style="enable-background:new 0 0 425.197 425.196;"
	 xml:space="preserve">
<g id="LWPOLYLINE_144_">
	<rect x="14.172" y="113.385" style="fill:#FFCD00;" width="396.853" height="198.427"/>
</g>
<g id="LWPOLYLINE_142_">
	<path style="fill:#E4002B;" d="M40.632,311.812H384.57c14.612,0,26.455-11.847,26.455-26.46V139.845
		c0-14.613-11.843-26.46-26.455-26.46H40.632c-14.613,0-26.46,11.847-26.46,26.46v145.507
		C14.172,299.965,26.019,311.812,40.632,311.812z"/>
</g>
<g id="LWPOLYLINE_143_">
	<path style="fill:#FFCD00;" d="M40.632,298.584H384.57c7.302,0,13.228-5.926,13.228-13.232V139.845
		c0-7.312-5.926-13.232-13.228-13.232H40.632c-7.306,0-13.232,5.921-13.232,13.232v145.507
		C27.399,292.658,33.326,298.584,40.632,298.584z"/>
</g>
<g id="LWPOLYLINE_149_">
	<path style="fill:#101820;" d="M226.32,190.35c-0.865-0.943-1.472-2.083-1.779-3.319c-1.029-4.103,1.472-8.254,5.57-9.278h36.902
		c1.25,0,2.261,1.01,2.261,2.256v4.781c8.898-1.866,18.095-1.818,26.975,0.154c2.145,0.846,3.501,2.973,3.367,5.271
		c-0.174,2.943-2.704,5.186-5.647,5.012c-24.406-5.406-49.293,6.83-59.923,29.457h42.434c7.052,0,12.766,5.714,12.766,12.766
		c0,7.051-5.714,12.766-12.766,12.766h-59c-8.177,0-15.699-4.42-19.691-11.554l-23.627-42.285l-14.7,33.901
		c1.962,2.309,3.04,5.248,3.021,8.278c-0.039,6.988-5.734,12.621-12.718,12.588c-6.984-0.039-12.622-5.734-12.583-12.723
		c0.038-6.984,5.733-12.622,12.718-12.583l32.794-75.623h18.095c1.443,0.577,2.578,1.717,3.155,3.16
		c1.164,2.91-0.25,6.209-3.155,7.373H189.61l-6.368,14.681l19.269,35.845c4.021,7.57,11.573,12.606,20.097,13.41
		c3.146-8.283,7.975-15.815,14.189-22.136l-10.794-12.569L226.32,190.35z"/>
</g>
<g id="LWPOLYLINE_150_">
	<path style="fill:#101820;" d="M159.625,158.199v21.563c5.955-0.13,10.678-5.065,10.543-11.02
		C170.043,162.971,165.396,158.324,159.625,158.199z"/>
</g>
<g id="LWPOLYLINE_151_">
	<path style="fill:#101820;" d="M242.944,255.236h14.439c9.245,9.938,24.801,10.486,34.729,1.241
		c9.938-9.255,10.485-24.801,1.24-34.738c-8.907-9.567-23.761-10.485-33.775-2.077h-15.469c3.492-5.787,8.514-10.491,14.507-13.594
		c17.912-9.245,39.923-2.231,49.168,15.671c9.255,17.908,2.231,39.923-15.671,49.168
		C274.208,280.162,252.198,273.14,242.944,255.236z"/>
</g>
<g id="LWPOLYLINE_152_">
	<path style="fill:#101820;" d="M168.369,222.355l5.07-11.688c9.466,8.028,14.199,20.313,12.563,32.612
		c-2.646,19.98-20.981,34.03-40.962,31.385s-34.026-20.986-31.381-40.967c2.646-19.977,20.981-34.026,40.962-31.381l-5.031,11.602
		c-13.574,0.131-24.464,11.236-24.329,24.811c0.125,13.574,11.236,24.469,24.81,24.339c13.574-0.135,24.464-11.246,24.339-24.82
		C174.353,232.403,172.208,226.771,168.369,222.355z"/>
</g>
</svg>
