<?xml version="1.0" encoding="iso-8859-1"?>
<!-- Generator: Adobe Illustrator 16.0.0, SVG Export Plug-In . SVG Version: 6.00 Build 0)  -->
<!DOCTYPE svg PUBLIC "-//W3C//DTD SVG 1.1//EN" "http://www.w3.org/Graphics/SVG/1.1/DTD/svg11.dtd">
<svg version="1.1" id="Layer_1" xmlns="http://www.w3.org/2000/svg" xmlns:xlink="http://www.w3.org/1999/xlink" x="0px" y="0px"
	 width="425.197px" height="425.196px" viewBox="0 0 425.197 425.196" style="enable-background:new 0 0 425.197 425.196;"
	 xml:space="preserve">
<g id="LWPOLYLINE_32_">
	<rect x="14.174" y="47.242" style="fill:#FFCD00;" width="396.849" height="330.712"/>
</g>
<g id="LWPOLYLINE_31_">
	<path style="fill:#E4002B;" d="M40.627,377.954h343.941c14.608,0,26.454-11.845,26.454-26.458V73.701
		c0-14.613-11.846-26.459-26.454-26.459H40.627c-14.607,0-26.453,11.846-26.453,26.459v277.795
		C14.174,366.109,26.02,377.954,40.627,377.954z"/>
</g>
<g id="LWPOLYLINE_30_">
	<path style="fill:#FFCD00;" d="M40.627,364.724h343.941c7.304,0,13.223-5.918,13.223-13.228V73.701
		c0-7.305-5.919-13.228-13.223-13.228H40.627c-7.304,0-13.227,5.923-13.227,13.228v277.795
		C27.401,358.806,33.324,364.724,40.627,364.724z"/>
</g>
<g id="LWPOLYLINE_53_">
	<polygon style="fill:#101820;" points="125.488,116.691 147.316,116.691 147.316,110.741 131.442,110.741 131.442,98.837 
		142.157,98.837 142.157,92.882 131.442,92.882 131.442,82.961 147.316,82.961 147.316,77.007 125.488,77.007 	"/>
</g>
<g id="LWPOLYLINE_54_">
	<rect x="154.456" y="86.928" style="fill:#101820;" width="5.955" height="29.764"/>
</g>
<g id="LWPOLYLINE_55_">
	<rect x="154.456" y="77.007" style="fill:#101820;" width="5.955" height="5.954"/>
</g>
<g id="LWPOLYLINE_56_">
	<polygon style="fill:#101820;" points="186.208,116.691 180.252,116.691 180.252,77.007 186.208,77.007 186.208,98.938 
		194.141,86.928 200.095,86.928 193.302,97.122 200.141,116.7 194.141,116.691 189.363,103.031 186.208,107.765 	"/>
</g>
<g id="LWPOLYLINE_57_">
	<path style="fill:#101820;" d="M204.463,106.771c0,5.48,4.44,9.921,9.921,9.921s9.922-4.44,9.922-9.921v-9.922
		c0-5.48-4.441-9.921-9.922-9.921s-9.921,4.44-9.921,9.921V106.771z"/>
</g>
<g id="LWPOLYLINE_59_">
	<path style="fill:#101820;" d="M229.859,106.771c0,5.48,4.441,9.921,9.922,9.921h0.793c4.824,0,8.736-3.907,8.736-8.727
		c0-3.109-1.65-5.982-4.341-7.546l-6.584-3.839c-0.61-0.352-0.984-1.008-0.984-1.715c0-1.094,0.894-1.983,1.987-1.983h1.186
		c1.095,0,1.988,0.89,1.988,1.983h5.954c0-4.381-3.556-7.938-7.942-7.938h-1.186c-4.386,0-7.942,3.557-7.942,7.938
		c0,2.822,1.505,5.439,3.939,6.857l6.593,3.839c0.848,0.497,1.377,1.414,1.377,2.403c0,1.532-1.24,2.776-2.781,2.776h-0.793
		c-2.188,0-3.967-1.778-3.967-3.971H229.859z"/>
</g>
<g id="LWPOLYLINE_60_">
	<polygon style="fill:#101820;" points="262.003,116.691 256.058,116.691 256.058,77.007 262.003,77.007 262.003,98.938 
		269.946,86.928 275.9,86.928 269.097,97.122 275.937,116.7 269.946,116.691 265.158,103.031 262.003,107.765 	"/>
</g>
<g id="LWPOLYLINE_61_">
	<path style="fill:#101820;" d="M293.754,106.771h5.955c0,5.48-4.441,9.921-9.921,9.921c-5.48,0-9.922-4.44-9.922-9.921v-9.922
		c0-5.48,4.441-9.921,9.922-9.921c5.479,0,9.921,4.44,9.921,9.921v5.559h-13.888v4.363c0,2.192,1.769,3.971,3.967,3.971
		C291.976,110.741,293.754,108.963,293.754,106.771z"/>
</g>
<g id="LWPOLYLINE_63_">
	<path style="fill:#101820;" d="M145.328,348.19h3.976v-21.83h-12.9v5.955h6.946v2.781v0.195c0,3.835-3.112,6.944-6.946,6.944
		c-3.835,0-6.944-3.109-6.944-6.944v-13.893c0-3.83,3.109-6.939,6.944-6.939c3.834,0,6.946,3.109,6.946,6.939h5.954
		c0-7.121-5.781-12.894-12.9-12.894c-7.122,0-12.898,5.772-12.898,12.894v13.893c0.004,7.108,5.771,12.862,12.88,12.857
		c2.636-0.004,5.207-0.815,7.366-2.329L145.328,348.19z"/>
</g>
<g id="LWPOLYLINE_64_">
	<rect x="168.745" y="308.506" style="fill:#101820;" width="5.955" height="5.954"/>
</g>
<g id="LWPOLYLINE_65_">
	<rect x="158.03" y="308.506" style="fill:#101820;" width="5.955" height="5.954"/>
</g>
<g id="LWPOLYLINE_66_">
	<path style="fill:#101820;" d="M175.493,348.19h-5.954v-1.905c-2.39,1.29-5.07,1.946-7.788,1.905
		c-2.443,0.064-4.642-1.477-5.416-3.793c-0.967-3.046-0.155-6.374,2.106-8.627c2.899-3.113,6.857-5.015,11.098-5.334v-3.082
		c0-1.642-1.332-2.973-2.973-2.973c-1.642,0-2.982,1.331-2.982,2.973h-5.945c0-4.934,3.994-8.928,8.928-8.928
		c4.933,0,8.927,3.994,8.927,8.928V348.19z"/>
</g>
<g id="LWPOLYLINE_68_">
	<rect x="182.632" y="308.506" style="fill:#101820;" width="5.955" height="39.685"/>
</g>
<g id="LWPOLYLINE_69_">
	<rect x="196.53" y="308.506" style="fill:#101820;" width="5.945" height="39.685"/>
</g>
<g id="LWPOLYLINE_70_">
	<path style="fill:#101820;" d="M223.111,338.27h5.955c0,5.48-4.44,9.921-9.921,9.921s-9.922-4.44-9.922-9.921v-9.921
		c0-5.48,4.441-9.922,9.922-9.922s9.921,4.441,9.921,9.922v5.553h-13.888v4.368c0,2.188,1.778,3.967,3.967,3.967
		C221.342,342.236,223.111,340.458,223.111,338.27z"/>
</g>
<g id="LWPOLYLINE_72_">
	<path style="fill:#101820;" d="M242.161,327.555v20.636h-5.945v-29.764h5.945v1.592c2.098-1.045,4.404-1.592,6.748-1.592v6.292
		c-1.56-1.532-4.076-1.509-5.608,0.055C242.571,325.517,242.161,326.516,242.161,327.555z"/>
</g>
<g id="LWPOLYLINE_73_">
	<path style="fill:#101820;" d="M282.639,338.27h5.954c0,5.48-4.44,9.921-9.921,9.921s-9.921-4.44-9.921-9.921v-9.921
		c0-5.48,4.44-9.922,9.921-9.922s9.921,4.441,9.921,9.922v5.553h-13.888v4.368c0,2.188,1.778,3.967,3.967,3.967
		C280.87,342.236,282.639,340.458,282.639,338.27z"/>
</g>
<g id="LWPOLYLINE_75_">
	<path style="fill:#101820;" d="M301.688,318.427v28.971c0,4.824-3.902,8.727-8.727,8.727h-0.793l0.793-5.95
		c1.532,0,2.781-1.244,2.781-2.776v-28.971H301.688z"/>
</g>
<g id="LWPOLYLINE_76_">
	<rect x="295.743" y="308.506" style="fill:#101820;" width="5.945" height="5.954"/>
</g>
<g id="CIRCLE_9_">
	<path style="fill:#101820;" d="M174.143,259.501c0-14.156-11.472-25.633-25.633-25.633c-14.154,0-25.631,11.477-25.631,25.633
		c0,14.157,11.477,25.633,25.631,25.633C162.671,285.134,174.143,273.658,174.143,259.501L174.143,259.501z"/>
</g>
<g id="LWPOLYLINE_78_">
	<path style="fill:#101820;" d="M216.619,249.356h-39.867c-5.6-15.593-22.788-23.695-38.384-18.096
		c-5.978,2.151-11.115,6.137-14.686,11.394l-3.63-37.104c-0.059-0.497-0.068-0.998-0.031-1.491c0.328-4.24,4.025-7.409,8.266-7.08
		h66.757c1.869,0,3.502-1.272,3.958-3.087l12.675-50.842c0.502-1.819,2.188-3.051,4.076-2.986h54.513
		c1.869,0,3.501,1.276,3.957,3.086l12.191,48.316c0.155,0.625,0.548,1.167,1.095,1.51l4.696,2.689l3.311,2.18l3.301,2.59
		c1.486,1.162,2.262,3.014,2.061,4.892c-0.137,1.195-0.875,2.239-1.97,2.754c-0.729,0.347-1.522,0.579-2.334,0.68
		c-1.249,0.155-2.48-0.388-3.21-1.418c-19.487-16.879-48.959-14.759-65.838,4.728C218.643,222.324,214.667,235.934,216.619,249.356z
		"/>
</g>
<g id="CIRCLE_11_">
	<path style="fill:#101820;" d="M305.199,242.731c0-23.426-18.985-42.411-42.411-42.411c-23.417,0-42.402,18.985-42.402,42.411
		c0,23.418,18.985,42.402,42.402,42.402C286.213,285.134,305.199,266.149,305.199,242.731L305.199,242.731z"/>
</g>
<g id="LWPOLYLINE_58_">
	<path style="fill:#FFCD00;" d="M210.417,106.771c0,2.192,1.778,3.971,3.967,3.971c2.189,0,3.967-1.778,3.967-3.971v-9.922
		c0-2.188-1.777-3.967-3.967-3.967c-2.188,0-3.967,1.778-3.967,3.967V106.771z"/>
</g>
<g id="LWPOLYLINE_62_">
	<path style="fill:#FFCD00;" d="M285.822,97.25h7.933v-0.401c0-2.188-1.778-3.967-3.966-3.967c-2.198,0-3.967,1.778-3.967,3.967
		V97.25z"/>
</g>
<g id="LWPOLYLINE_67_">
	<path style="fill:#FFCD00;" d="M169.539,334.321c-1.988,0.474-3.83,1.418-5.381,2.749c-1.386,1.222-2.179,2.991-2.151,4.842
		c0.027,1.204,1.021,2.157,2.225,2.134c0.101-0.004,0.2-0.014,0.301-0.027c1.751-0.282,3.447-0.861,5.007-1.7V334.321z"/>
</g>
<g id="LWPOLYLINE_71_">
	<path style="fill:#FFCD00;" d="M215.178,328.745h7.933v-0.396c0-2.193-1.769-3.967-3.966-3.967c-2.188,0-3.967,1.773-3.967,3.967
		V328.745z"/>
</g>
<g id="LWPOLYLINE_74_">
	<path style="fill:#FFCD00;" d="M274.706,328.745h7.934v-0.396c0-2.193-1.77-3.967-3.967-3.967c-2.188,0-3.967,1.773-3.967,3.967
		V328.745z"/>
</g>
<g id="CIRCLE_8_">
	<path style="fill:#FFCD00;" d="M284.344,242.731c0-11.909-9.647-21.561-21.557-21.561c-11.9,0-21.558,9.651-21.558,21.561
		c0,11.905,9.657,21.558,21.558,21.558C274.697,264.289,284.344,254.637,284.344,242.731L284.344,242.731z"/>
</g>
<g id="LWPOLYLINE_77_">
	<path style="fill:#FFCD00;" d="M218.424,207.479c0.374,0.405,1.003,0.438,1.404,0.063c4.732-5.771,10.578-10.532,17.188-14.002
		c0.146-0.059,0.292-0.15,0.411-0.264c0.848-0.78,1.322-1.874,1.322-3.023v-39.99c0.137-0.712-0.338-1.396-1.049-1.527
		c-0.073-0.014-0.155-0.019-0.237-0.019l-17.48-0.041c-0.712-0.014-1.35,0.451-1.551,1.135l-10.997,43.88
		c-0.347,1.387,0.063,2.854,1.076,3.867l9.985,9.984L218.424,207.479z"/>
</g>
<g id="LWPOLYLINE_79_">
	<path style="fill:#FFCD00;" d="M247.513,187.572v-37.574c0.137-0.771,0.803-1.327,1.587-1.322h15.675
		c0.685,0,1.295,0.465,1.469,1.135l9.219,36.558c0.055,0.237,0.055,0.483,0,0.726c-0.191,0.834-1.021,1.354-1.852,1.162
		c-8.124-1.568-16.478-1.363-24.511,0.603c-0.693,0.018-1.313-0.429-1.514-1.095C247.568,187.7,247.541,187.636,247.513,187.572z"/>
</g>
<g id="CIRCLE_10_">
	<path style="fill:#FFCD00;" d="M161.414,259.487c0-7.135-5.781-12.916-12.912-12.916c-7.134,0-12.92,5.781-12.92,12.916
		c0,7.136,5.786,12.917,12.92,12.917C155.632,272.404,161.414,266.623,161.414,259.487L161.414,259.487z"/>
</g>
</svg>
