<?xml version="1.0" encoding="UTF-8" standalone="no"?>
<!-- Generator: Adobe Illustrator 16.0.0, SVG Export Plug-In . SVG Version: 6.00 Build 0)  -->

<svg
   xmlns:dc="http://purl.org/dc/elements/1.1/"
   xmlns:cc="http://creativecommons.org/ns#"
   xmlns:rdf="http://www.w3.org/1999/02/22-rdf-syntax-ns#"
   xmlns:svg="http://www.w3.org/2000/svg"
   xmlns="http://www.w3.org/2000/svg"
   xmlns:sodipodi="http://sodipodi.sourceforge.net/DTD/sodipodi-0.dtd"
   xmlns:inkscape="http://www.inkscape.org/namespaces/inkscape"
   version="1.1"
   id="Layer_1"
   x="0px"
   y="0px"
   width="396.853"
   height="198.427"
   viewBox="0 0 396.85301 198.427"
   xml:space="preserve"
   sodipodi:docname="H12.11.svg"
   inkscape:version="0.92.5 (2060ec1f9f, 2020-04-08)"><metadata
   id="metadata487"><rdf:RDF><cc:Work
       rdf:about=""><dc:format>image/svg+xml</dc:format><dc:type
         rdf:resource="http://purl.org/dc/dcmitype/StillImage" /></cc:Work></rdf:RDF></metadata><defs
   id="defs485" /><sodipodi:namedview
   pagecolor="#ffffff"
   bordercolor="#666666"
   borderopacity="1"
   objecttolerance="10"
   gridtolerance="10"
   guidetolerance="10"
   inkscape:pageopacity="0"
   inkscape:pageshadow="2"
   inkscape:window-width="640"
   inkscape:window-height="480"
   id="namedview483"
   showgrid="false"
   inkscape:zoom="0.55503813"
   inkscape:cx="198.4265"
   inkscape:cy="99.213997"
   inkscape:window-x="0"
   inkscape:window-y="0"
   inkscape:window-maximized="0"
   inkscape:current-layer="Layer_1" />
<g
   id="LWPOLYLINE_144_"
   transform="translate(-14.172,-113.385)">
	<rect
   x="14.172"
   y="113.385"
   style="fill:#ffcd00"
   width="396.853"
   height="198.427"
   id="rect464" />
</g>
<g
   id="LWPOLYLINE_142_"
   transform="translate(-14.172,-113.385)">
	<path
   style="fill:#e4002b"
   d="M 40.632,311.812 H 384.57 c 14.612,0 26.455,-11.847 26.455,-26.46 V 139.845 c 0,-14.613 -11.843,-26.46 -26.455,-26.46 H 40.632 c -14.613,0 -26.46,11.847 -26.46,26.46 v 145.507 c 0,14.613 11.847,26.46 26.46,26.46 z"
   id="path467"
   inkscape:connector-curvature="0" />
</g>
<g
   id="LWPOLYLINE_143_"
   transform="translate(-14.172,-113.385)">
	<path
   style="fill:#ffcd00"
   d="M 40.632,298.584 H 384.57 c 7.302,0 13.228,-5.926 13.228,-13.232 V 139.845 c 0,-7.312 -5.926,-13.232 -13.228,-13.232 H 40.632 c -7.306,0 -13.232,5.921 -13.232,13.232 v 145.507 c -10e-4,7.306 5.926,13.232 13.232,13.232 z"
   id="path470"
   inkscape:connector-curvature="0" />
</g>
<g
   id="LWPOLYLINE_148_"
   transform="translate(-14.172,-113.385)">
	<path
   style="fill:#101820"
   d="m 243.809,279.277 h -22.886 c -2.29,-0.241 -4.454,-1.146 -6.243,-2.607 -0.847,-0.799 -1.501,-1.789 -1.905,-2.886 l -0.75,-2.05 c -0.27,-0.846 -0.914,-1.524 -1.761,-1.817 -13.458,-0.222 -26.85,-2.025 -39.885,-5.373 l -2.924,9.933 c 8.591,0.337 17.182,0.702 25.772,1.087 1.529,0.746 2.693,2.088 3.204,3.714 h -37.365 c -14.517,0.721 -28.437,-5.811 -37.172,-17.422 l 0.087,-3.175 c 9.148,10.842 22.934,16.638 37.085,15.589 l 3.454,-11.746 c -10.265,-3.593 -20.01,-8.528 -28.976,-14.675 6.984,-18.855 22.155,-33.521 41.231,-39.856 l 14.42,-43.367 c 7.985,7.499 12.651,17.865 12.987,28.813 l 11.391,2.146 c 0.683,0.125 1.385,-0.116 1.847,-0.636 l 11.986,-12.65 c 0.818,-0.842 1.761,-1.567 2.78,-2.149 6.08,-3.478 13.824,-1.371 17.297,4.709 4.493,9.648 7.802,19.817 9.842,30.265 l 3.732,12.871 h 30.207 v 26.696 c 6.233,0.144 11.371,4.915 11.977,11.115 0.664,6.777 -4.29,12.81 -11.063,13.474 h -13.796 c -0.007,-0.003 -34.573,-0.003 -34.573,-0.003 z"
   id="path473"
   inkscape:connector-curvature="0" />
</g>
<g
   id="LWPOLYLINE_149_"
   transform="translate(-14.172,-113.385)">
	<path
   style="fill:#ffcd00"
   d="m 197.72,202.865 -6.013,21.5 c -0.087,0.289 -0.01,0.597 0.183,0.828 l 8.735,10.12 7.927,-18.99 c 0.865,-2.068 2.818,-3.478 5.06,-3.646 l 12.237,-0.904 -1.405,-8.995 -6.638,2.857 c -0.654,0.313 -1.385,0.447 -2.116,0.39 l -12.795,-2.236 z"
   id="path476"
   inkscape:connector-curvature="0" />
</g>
<g
   id="LWPOLYLINE_150_"
   transform="translate(-14.172,-113.385)">
	<path
   style="fill:#101820"
   d="m 214.189,185.347 8.438,-6.276 c 2.396,-1.785 5.04,-3.219 7.84,-4.258 3.319,-1.23 6.927,-1.428 10.352,-0.576 l 6.281,1.856 v -18.648 c -0.798,-5.118 -4.732,-9.178 -9.821,-10.125 -5.532,-2.03 -11.641,-1.848 -17.037,0.52 -5.792,2.544 -9.39,8.417 -9.033,14.728 h 10.688 0.49 l -0.49,7.144 -11.256,4.035 c -0.471,4.074 0.52,8.187 2.79,11.602 0.135,0.212 0.424,0.27 0.635,0.125 0.046,-0.031 0.095,-0.079 0.123,-0.127 z"
   id="path479"
   inkscape:connector-curvature="0" />
</g>
</svg>