<?xml version="1.0" encoding="UTF-8" standalone="no"?>
<!-- Generator: Adobe Illustrator 16.0.0, SVG Export Plug-In . SVG Version: 6.00 Build 0)  -->

<svg
   xmlns:dc="http://purl.org/dc/elements/1.1/"
   xmlns:cc="http://creativecommons.org/ns#"
   xmlns:rdf="http://www.w3.org/1999/02/22-rdf-syntax-ns#"
   xmlns:svg="http://www.w3.org/2000/svg"
   xmlns="http://www.w3.org/2000/svg"
   xmlns:sodipodi="http://sodipodi.sourceforge.net/DTD/sodipodi-0.dtd"
   xmlns:inkscape="http://www.inkscape.org/namespaces/inkscape"
   version="1.1"
   id="Layer_1"
   x="0px"
   y="0px"
   width="396.849"
   height="297.638"
   viewBox="0 0 396.84901 297.63799"
   xml:space="preserve"
   sodipodi:docname="H12.5_2_2.svg"
   inkscape:version="0.92.5 (2060ec1f9f, 2020-04-08)"><metadata
   id="metadata1750"><rdf:RDF><cc:Work
       rdf:about=""><dc:format>image/svg+xml</dc:format><dc:type
         rdf:resource="http://purl.org/dc/dcmitype/StillImage" /></cc:Work></rdf:RDF></metadata><defs
   id="defs1748" /><sodipodi:namedview
   pagecolor="#ffffff"
   bordercolor="#666666"
   borderopacity="1"
   objecttolerance="10"
   gridtolerance="10"
   guidetolerance="10"
   inkscape:pageopacity="0"
   inkscape:pageshadow="2"
   inkscape:window-width="640"
   inkscape:window-height="480"
   id="namedview1746"
   showgrid="false"
   inkscape:zoom="0.55503813"
   inkscape:cx="198.4245"
   inkscape:cy="148.81899"
   inkscape:window-x="0"
   inkscape:window-y="0"
   inkscape:window-maximized="0"
   inkscape:current-layer="Layer_1" />
<g
   id="LWPOLYLINE_19_"
   transform="translate(-14.174,-63.778999)">
	<rect
   x="14.174"
   y="63.778999"
   style="fill:#ffcd00"
   width="396.849"
   height="297.638"
   id="rect1649" />
</g>
<g
   id="LWPOLYLINE_18_"
   transform="translate(-14.174,-63.778999)">
	<path
   style="fill:#e4002b"
   d="m 40.627,361.417 h 343.941 c 14.608,0 26.454,-11.845 26.454,-26.458 V 90.233 c 0,-14.608 -11.846,-26.454 -26.454,-26.454 H 40.627 c -14.607,0 -26.453,11.846 -26.453,26.454 v 244.726 c 0,14.613 11.846,26.458 26.453,26.458 z"
   id="path1652"
   inkscape:connector-curvature="0" />
</g>
<g
   id="LWPOLYLINE_17_"
   transform="translate(-14.174,-63.778999)">
	<path
   style="fill:#ffcd00"
   d="m 40.627,348.187 h 343.941 c 7.304,0 13.223,-5.919 13.223,-13.228 V 90.233 c 0,-7.305 -5.919,-13.228 -13.223,-13.228 H 40.627 c -7.304,0 -13.227,5.923 -13.227,13.228 v 244.726 c 0.001,7.309 5.924,13.228 13.227,13.228 z"
   id="path1655"
   inkscape:connector-curvature="0" />
</g>
<g
   id="LWPOLYLINE_55_"
   transform="translate(-14.174,-63.778999)">
	<polygon
   style="fill:#101820"
   points="147.316,127.273 131.442,127.273 131.442,115.369 142.157,115.369 142.157,109.419 131.442,109.419 131.442,99.498 147.316,99.498 147.316,93.543 125.488,93.543 125.488,133.229 147.316,133.229 "
   id="polygon1658" />
</g>
<g
   id="LWPOLYLINE_56_"
   transform="translate(-14.174,-63.778999)">
	<rect
   x="154.45599"
   y="103.465"
   style="fill:#101820"
   width="5.9549999"
   height="29.764"
   id="rect1661" />
</g>
<g
   id="LWPOLYLINE_57_"
   transform="translate(-14.174,-63.778999)">
	<rect
   x="154.45599"
   y="93.542999"
   style="fill:#101820"
   width="5.9549999"
   height="5.9549999"
   id="rect1664" />
</g>
<g
   id="LWPOLYLINE_58_"
   transform="translate(-14.174,-63.778999)">
	<polygon
   style="fill:#101820"
   points="180.252,93.543 186.208,93.543 186.208,115.474 194.141,103.465 200.095,103.465 193.302,113.654 200.141,133.237 194.141,133.229 189.363,119.568 186.208,124.301 186.208,133.229 180.252,133.229 "
   id="polygon1667" />
</g>
<g
   id="LWPOLYLINE_59_"
   transform="translate(-14.174,-63.778999)">
	<path
   style="fill:#101820"
   d="m 204.463,123.307 c 0,5.48 4.44,9.922 9.921,9.922 5.481,0 9.922,-4.441 9.922,-9.922 v -9.921 c 0,-5.48 -4.441,-9.921 -9.922,-9.921 -5.481,0 -9.921,4.44 -9.921,9.921 z"
   id="path1670"
   inkscape:connector-curvature="0" />
</g>
<g
   id="LWPOLYLINE_61_"
   transform="translate(-14.174,-63.778999)">
	<path
   style="fill:#101820"
   d="m 229.859,123.307 c 0,5.48 4.441,9.922 9.922,9.922 h 0.793 c 4.824,0 8.736,-3.912 8.736,-8.731 0,-3.104 -1.65,-5.978 -4.341,-7.546 l -6.584,-3.839 c -0.61,-0.355 -0.984,-1.003 -0.984,-1.715 0,-1.094 0.894,-1.979 1.987,-1.979 h 1.186 c 1.095,0 1.988,0.885 1.988,1.979 h 5.954 c 0,-4.381 -3.556,-7.933 -7.942,-7.933 h -1.186 c -4.386,0 -7.942,3.552 -7.942,7.933 0,2.827 1.505,5.436 3.939,6.857 l 6.593,3.84 c 0.848,0.501 1.377,1.413 1.377,2.402 0,1.536 -1.24,2.776 -2.781,2.776 h -0.793 c -2.188,0 -3.967,-1.778 -3.967,-3.967 h -5.955 z"
   id="path1673"
   inkscape:connector-curvature="0" />
</g>
<g
   id="LWPOLYLINE_62_"
   transform="translate(-14.174,-63.778999)">
	<polygon
   style="fill:#101820"
   points="256.058,93.543 262.003,93.543 262.003,115.474 269.946,103.465 275.9,103.465 269.097,113.654 275.937,133.237 269.946,133.229 265.158,119.568 262.003,124.301 262.003,133.229 256.058,133.229 "
   id="polygon1676" />
</g>
<g
   id="LWPOLYLINE_63_"
   transform="translate(-14.174,-63.778999)">
	<path
   style="fill:#101820"
   d="m 293.754,123.307 h 5.955 c 0,5.48 -4.441,9.922 -9.921,9.922 -5.48,0 -9.922,-4.441 -9.922,-9.922 v -9.921 c 0,-5.48 4.441,-9.921 9.922,-9.921 5.479,0 9.921,4.44 9.921,9.921 v 5.554 h -13.888 v 4.367 c 0,2.188 1.769,3.967 3.967,3.967 2.188,-0.001 3.966,-1.779 3.966,-3.967 z"
   id="path1679"
   inkscape:connector-curvature="0" />
</g>
<g
   id="LWPOLYLINE_65_"
   transform="translate(-14.174,-63.778999)">
	<path
   style="fill:#101820"
   d="m 145.328,331.653 h 3.976 v -21.83 h -12.9 v 5.955 h 6.946 v 2.781 0.195 c 0,3.835 -3.112,6.944 -6.946,6.944 -3.835,0 -6.944,-3.109 -6.944,-6.944 v -13.893 c 0,-3.83 3.109,-6.939 6.944,-6.939 3.834,0 6.946,3.109 6.946,6.939 h 5.954 c 0,-7.121 -5.781,-12.894 -12.9,-12.894 -7.122,0 -12.898,5.772 -12.898,12.894 v 13.893 c 0.004,7.108 5.771,12.862 12.88,12.857 2.636,-0.004 5.207,-0.815 7.366,-2.329 z"
   id="path1682"
   inkscape:connector-curvature="0" />
</g>
<g
   id="LWPOLYLINE_66_"
   transform="translate(-14.174,-63.778999)">
	<rect
   x="168.745"
   y="291.96899"
   style="fill:#101820"
   width="5.9549999"
   height="5.954"
   id="rect1685" />
</g>
<g
   id="LWPOLYLINE_67_"
   transform="translate(-14.174,-63.778999)">
	<rect
   x="158.03"
   y="291.96899"
   style="fill:#101820"
   width="5.9549999"
   height="5.954"
   id="rect1688" />
</g>
<g
   id="LWPOLYLINE_68_"
   transform="translate(-14.174,-63.778999)">
	<path
   style="fill:#101820"
   d="m 175.493,331.653 h -5.954 v -1.905 c -2.39,1.29 -5.07,1.946 -7.788,1.905 -2.443,0.064 -4.642,-1.477 -5.416,-3.793 -0.967,-3.046 -0.155,-6.374 2.106,-8.627 2.899,-3.113 6.857,-5.015 11.098,-5.334 v -3.082 c 0,-1.642 -1.332,-2.973 -2.973,-2.973 -1.642,0 -2.982,1.331 -2.982,2.973 h -5.945 c 0,-4.934 3.994,-8.928 8.928,-8.928 4.933,0 8.927,3.994 8.927,8.928 v 20.836 z"
   id="path1691"
   inkscape:connector-curvature="0" />
</g>
<g
   id="LWPOLYLINE_70_"
   transform="translate(-14.174,-63.778999)">
	<rect
   x="182.632"
   y="291.96899"
   style="fill:#101820"
   width="5.9549999"
   height="39.685001"
   id="rect1694" />
</g>
<g
   id="LWPOLYLINE_71_"
   transform="translate(-14.174,-63.778999)">
	<rect
   x="196.53"
   y="291.96899"
   style="fill:#101820"
   width="5.9450002"
   height="39.685001"
   id="rect1697" />
</g>
<g
   id="LWPOLYLINE_72_"
   transform="translate(-14.174,-63.778999)">
	<path
   style="fill:#101820"
   d="m 223.111,321.732 h 5.955 c 0,5.48 -4.44,9.921 -9.921,9.921 -5.481,0 -9.922,-4.44 -9.922,-9.921 v -9.921 c 0,-5.48 4.441,-9.922 9.922,-9.922 5.481,0 9.921,4.441 9.921,9.922 v 5.553 h -13.888 v 4.368 c 0,2.188 1.778,3.967 3.967,3.967 2.197,0 3.966,-1.778 3.966,-3.967 z"
   id="path1700"
   inkscape:connector-curvature="0" />
</g>
<g
   id="LWPOLYLINE_74_"
   transform="translate(-14.174,-63.778999)">
	<path
   style="fill:#101820"
   d="m 242.161,311.018 v 20.636 h -5.945 V 301.89 h 5.945 v 1.592 c 2.098,-1.045 4.404,-1.592 6.748,-1.592 v 6.292 c -1.56,-1.532 -4.076,-1.509 -5.608,0.055 -0.73,0.742 -1.14,1.742 -1.14,2.781 z"
   id="path1703"
   inkscape:connector-curvature="0" />
</g>
<g
   id="LWPOLYLINE_75_"
   transform="translate(-14.174,-63.778999)">
	<path
   style="fill:#101820"
   d="m 282.639,321.732 h 5.954 c 0,5.48 -4.44,9.921 -9.921,9.921 -5.481,0 -9.921,-4.44 -9.921,-9.921 v -9.921 c 0,-5.48 4.44,-9.922 9.921,-9.922 5.481,0 9.921,4.441 9.921,9.922 v 5.553 h -13.888 v 4.368 c 0,2.188 1.778,3.967 3.967,3.967 2.198,0 3.967,-1.778 3.967,-3.967 z"
   id="path1706"
   inkscape:connector-curvature="0" />
</g>
<g
   id="LWPOLYLINE_77_"
   transform="translate(-14.174,-63.778999)">
	<rect
   x="295.74301"
   y="291.96899"
   style="fill:#101820"
   width="5.9450002"
   height="5.954"
   id="rect1709" />
</g>
<g
   id="LWPOLYLINE_78_"
   transform="translate(-14.174,-63.778999)">
	<rect
   x="121.548"
   y="262.36899"
   style="fill:#101820"
   width="186.951"
   height="15.784"
   id="rect1712" />
</g>
<g
   id="LWPOLYLINE_79_"
   transform="translate(-14.174,-63.778999)">
	<path
   style="fill:#101820"
   d="M 238.932,242.946 H 308.5 v -74.332 c 0,-5.613 -3.839,-10.491 -9.292,-11.805 -54.138,-13.021 -110.584,-13.021 -164.715,0 -5.458,1.313 -9.302,6.191 -9.302,11.805 v 69.48 h -8.498 v 4.852 h 3.643 v 14.571 h 1.213 c 0,2.681 2.175,4.852 4.855,4.852 2.68,0 4.855,-2.171 4.855,-4.852 0,-2.681 -2.175,-4.86 -4.855,-4.86 -0.41,0 -0.816,0.055 -1.213,0.155 v -9.866 h 70.782 c 0.62,-10.925 9.338,-19.643 20.263,-20.263 11.863,-0.669 22.021,8.404 22.696,20.263 z"
   id="path1715"
   inkscape:connector-curvature="0" />
</g>
<g
   id="CIRCLE_2_"
   transform="translate(-14.174,-63.778999)">
	<path
   style="fill:#101820"
   d="m 235.667,244.159 c 0,-10.054 -8.151,-18.206 -18.21,-18.206 -10.058,0 -18.21,8.152 -18.21,18.206 0,10.058 8.152,18.21 18.21,18.21 10.059,0 18.21,-8.152 18.21,-18.21 z"
   id="path1718"
   inkscape:connector-curvature="0" />
</g>
<g
   id="LWPOLYLINE_109_"
   transform="translate(-14.174,-63.778999)">
	<path
   style="fill:#101820"
   d="m 301.688,305.195 v 28.971 c 0,4.819 -3.902,8.731 -8.727,8.731 h -0.793 l 0.793,-5.955 c 1.532,0 2.781,-1.24 2.781,-2.776 v -28.971 z"
   id="path1721"
   inkscape:connector-curvature="0" />
</g>
<g
   id="LWPOLYLINE_60_"
   transform="translate(-14.174,-63.778999)">
	<path
   style="fill:#ffcd00"
   d="m 210.417,123.307 c 0,2.188 1.778,3.967 3.967,3.967 2.189,0 3.967,-1.778 3.967,-3.967 v -9.921 c 0,-2.193 -1.777,-3.967 -3.967,-3.967 -2.188,0 -3.967,1.773 -3.967,3.967 z"
   id="path1724"
   inkscape:connector-curvature="0" />
</g>
<g
   id="LWPOLYLINE_64_"
   transform="translate(-14.174,-63.778999)">
	<path
   style="fill:#ffcd00"
   d="m 285.822,113.782 h 7.933 v -0.396 c 0,-2.193 -1.778,-3.967 -3.966,-3.967 -2.198,0 -3.967,1.773 -3.967,3.967 z"
   id="path1727"
   inkscape:connector-curvature="0" />
</g>
<g
   id="LWPOLYLINE_69_"
   transform="translate(-14.174,-63.778999)">
	<path
   style="fill:#ffcd00"
   d="m 169.539,317.784 c -1.988,0.474 -3.83,1.418 -5.381,2.749 -1.386,1.222 -2.179,2.991 -2.151,4.842 0.027,1.204 1.021,2.157 2.225,2.134 0.101,-0.004 0.2,-0.014 0.301,-0.027 1.751,-0.282 3.447,-0.861 5.007,-1.7 v -7.998 z"
   id="path1730"
   inkscape:connector-curvature="0" />
</g>
<g
   id="LWPOLYLINE_73_"
   transform="translate(-14.174,-63.778999)">
	<path
   style="fill:#ffcd00"
   d="m 215.178,312.208 h 7.933 v -0.396 c 0,-2.193 -1.769,-3.967 -3.966,-3.967 -2.188,0 -3.967,1.773 -3.967,3.967 z"
   id="path1733"
   inkscape:connector-curvature="0" />
</g>
<g
   id="LWPOLYLINE_76_"
   transform="translate(-14.174,-63.778999)">
	<path
   style="fill:#ffcd00"
   d="m 274.706,312.208 h 7.934 v -0.396 c 0,-2.193 -1.77,-3.967 -3.967,-3.967 -2.188,0 -3.967,1.773 -3.967,3.967 z"
   id="path1736"
   inkscape:connector-curvature="0" />
</g>
<g
   id="LWPOLYLINE_80_"
   transform="translate(-14.174,-63.778999)">
	<path
   style="fill:#ffcd00"
   d="m 158.113,198.856 h 19.067 c 1.678,0 3.036,-1.358 3.036,-3.036 V 174.8 c 0,-1.678 -1.358,-3.036 -3.036,-3.036 h -19.067 c -1.669,0 -3.028,1.358 -3.028,3.036 v 21.02 c -0.001,1.678 1.359,3.036 3.028,3.036 z"
   id="path1739"
   inkscape:connector-curvature="0" />
</g>
<g
   id="LWPOLYLINE_81_"
   transform="translate(-14.174,-63.778999)">
	<path
   style="fill:#ffcd00"
   d="m 219.172,198.856 h 52.761 c 1.669,0 3.027,-1.358 3.027,-3.036 V 174.8 c 0,-1.678 -1.358,-3.036 -3.027,-3.036 h -52.761 c -1.669,0 -3.027,1.358 -3.027,3.036 0,0.014 0,0.027 0,0.046 v 21.019 c 0.018,1.66 1.367,2.991 3.027,2.991 z"
   id="path1742"
   inkscape:connector-curvature="0" />
</g>
</svg>