<?xml version="1.0" encoding="iso-8859-1"?>
<!-- Generator: Adobe Illustrator 16.0.0, SVG Export Plug-In . SVG Version: 6.00 Build 0)  -->
<!DOCTYPE svg PUBLIC "-//W3C//DTD SVG 1.1//EN" "http://www.w3.org/Graphics/SVG/1.1/DTD/svg11.dtd">
<svg version="1.1" id="Layer_1" xmlns="http://www.w3.org/2000/svg" xmlns:xlink="http://www.w3.org/1999/xlink" x="0px" y="0px"
	 width="425.197px" height="425.196px" viewBox="0 0 425.197 425.196" style="enable-background:new 0 0 425.197 425.196;"
	 xml:space="preserve">
<g id="LWPOLYLINE_156_">
	<rect x="14.172" y="80.315" style="fill:#FFCD00;" width="396.853" height="264.565"/>
</g>
<g id="LWPOLYLINE_154_">
	<path style="fill:#E4002B;" d="M40.627,344.881H384.56c14.612,0,26.465-11.848,26.465-26.455V106.771
		c0-14.613-11.853-26.455-26.465-26.455H40.627c-14.613,0-26.455,11.842-26.455,26.455v211.655
		C14.172,333.033,26.014,344.881,40.627,344.881z"/>
</g>
<g id="LWPOLYLINE_155_">
	<path style="fill:#FFCD00;" d="M40.627,331.653H384.56c7.312,0,13.228-5.921,13.228-13.228V106.771
		c0-7.307-5.916-13.228-13.228-13.228H40.627c-7.306,0-13.228,5.921-13.228,13.228v211.655
		C27.399,325.732,33.321,331.653,40.627,331.653z"/>
</g>
<g id="LWPOLYLINE_157_">
	<path style="fill:#101820;" d="M106.77,174.899H94.865v1.981c0,7.673-6.219,13.892-13.891,13.892
		c-7.672,0-13.892-6.219-13.892-13.892v-27.782c0-7.667,6.219-13.887,13.892-13.887c7.672,0,13.891,6.22,13.891,13.887v1.986h11.905
		v-1.986c0-14.242-11.549-25.791-25.796-25.791c-14.248,0-25.796,11.549-25.796,25.791v27.782c0,14.248,11.549,25.797,25.796,25.797
		c14.247,0,25.796-11.549,25.796-25.797V174.899z"/>
</g>
<g id="LWPOLYLINE_159_">
	<path style="fill:#101820;" d="M170.264,176.881v-27.782c0-14.242-11.554-25.791-25.791-25.791
		c-14.248,0-25.801,11.549-25.801,25.791v27.782c0,14.248,11.554,25.797,25.801,25.797
		C158.71,202.678,170.264,191.129,170.264,176.881z"/>
</g>
<g id="LWPOLYLINE_160_">
	<path style="fill:#101820;" d="M186.137,170.532h7.147v-2.381c0-0.774,0.145-1.534,0.434-2.246c1.25-3.05,4.723-4.507,7.763-3.267
		c3.05,1.241,4.502,4.719,3.262,7.759l-18.605,25.138v7.143h26.195v-7.143h-18.096l17.316-22.935
		c2.453-6.802-1.067-14.31-7.869-16.768c-6.801-2.458-14.314,1.067-16.768,7.869c-0.664,1.847-0.904,3.814-0.712,5.767
		L186.137,170.532z"/>
</g>
<g id="LWPOLYLINE_161_">
	<polygon style="fill:#101820;" points="319.481,176.218 331.053,153.072 321.135,153.072 314.516,166.299 307.908,153.072 
		297.98,153.072 309.562,176.218 296.334,202.678 306.252,202.678 314.516,186.141 322.79,202.678 332.708,202.678 	"/>
</g>
<g id="LWPOLYLINE_162_">
	<polygon style="fill:#101820;" points="358.5,176.218 370.082,153.072 360.154,153.072 353.545,166.299 346.926,153.072 
		337.008,153.072 348.582,176.218 335.354,202.678 345.272,202.678 353.545,186.141 361.809,202.678 371.737,202.678 	"/>
</g>
<g id="LWPOLYLINE_163_">
	<path style="fill:#101820;" d="M149.398,299.243c-3.415,2.121-7.253,3.478-11.246,3.969c-6.571,0-11.9-5.33-11.9-11.905v-0.332
		l0.029-27.2c1.106-5.738,6.032-9.957,11.872-10.169c3.982,0.506,7.811,1.833,11.246,3.911v-3.911h9.928v45.638
		c0,2.323-0.51,4.613-1.5,6.72c-3.704,7.941-13.151,11.371-21.097,7.662l4.204-8.989c2.973,1.395,6.513,0.105,7.908-2.872
		C149.206,300.975,149.398,300.114,149.398,299.243z"/>
</g>
<g id="LWPOLYLINE_165_">
	<polygon style="fill:#101820;" points="210.707,301.889 200.779,301.889 200.779,235.746 210.707,235.746 210.707,272.293 
		223.934,252.283 233.853,252.283 222.53,269.268 233.92,301.903 223.934,301.889 215.959,279.118 210.707,287.007 	"/>
</g>
<g id="LWPOLYLINE_166_">
	<path style="fill:#101820;" d="M271.293,255.092c-2.145-1.817-4.867-2.809-7.677-2.809c-3.992,0.49-7.83,1.847-11.245,3.969v-3.969
		h-9.919v49.605h9.919v-35.055c0-3.651,2.963-6.614,6.618-6.614s6.609,2.963,6.609,6.614v35.055h9.928v-35.055
		c0-3.651,2.963-6.614,6.608-6.614c3.656,0,6.619,2.963,6.619,6.614v35.055h9.918v-37.802c-0.452-6.358-5.541-11.399-11.9-11.804
		C281.443,251.601,276.046,252.581,271.293,255.092z"/>
</g>
<g id="LWPOLYLINE_168_">
	<polygon style="fill:#101820;" points="185.945,234.669 166.599,302.971 174.16,302.971 193.506,234.669 	"/>
</g>
<g id="LWPOLYLINE_158_">
	<path style="fill:#FFCD00;" d="M158.354,176.881v-27.782c0-7.667-6.214-13.887-13.881-13.887c-7.677,0-13.892,6.22-13.892,13.887
		v27.782c0,7.673,6.215,13.892,13.892,13.892C152.14,190.772,158.354,184.554,158.354,176.881z"/>
</g>
<g id="LWPOLYLINE_164_">
	<path style="fill:#FFCD00;" d="M136.171,288.661c0,3.651,2.963,6.614,6.619,6.614c3.646,0,6.609-2.963,6.609-6.614v-20.505
		c0-3.655-2.963-6.613-6.609-6.613c-3.656,0-6.619,2.958-6.619,6.613V288.661z"/>
</g>
<g id="LWPOLYLINE_167_">
	<polygon style="fill:#101820;" points="276.489,146.453 276.489,154.395 241.645,169.608 276.489,184.818 276.489,192.754 
		232.169,173.408 232.169,165.799 	"/>
</g>
</svg>
