<?xml version="1.0" encoding="UTF-8" standalone="no"?>
<!-- Generator: Adobe Illustrator 16.0.0, SVG Export Plug-In . SVG Version: 6.00 Build 0)  -->

<svg
   xmlns:dc="http://purl.org/dc/elements/1.1/"
   xmlns:cc="http://creativecommons.org/ns#"
   xmlns:rdf="http://www.w3.org/1999/02/22-rdf-syntax-ns#"
   xmlns:svg="http://www.w3.org/2000/svg"
   xmlns="http://www.w3.org/2000/svg"
   xmlns:sodipodi="http://sodipodi.sourceforge.net/DTD/sodipodi-0.dtd"
   xmlns:inkscape="http://www.inkscape.org/namespaces/inkscape"
   version="1.1"
   id="Layer_1"
   x="0px"
   y="0px"
   width="396.849"
   height="198.427"
   viewBox="0 0 396.84901 198.427"
   xml:space="preserve"
   sodipodi:docname="H12.4.svg"
   inkscape:version="0.92.5 (2060ec1f9f, 2020-04-08)"><metadata
   id="metadata1397"><rdf:RDF><cc:Work
       rdf:about=""><dc:format>image/svg+xml</dc:format><dc:type
         rdf:resource="http://purl.org/dc/dcmitype/StillImage" /></cc:Work></rdf:RDF></metadata><defs
   id="defs1395" /><sodipodi:namedview
   pagecolor="#ffffff"
   bordercolor="#666666"
   borderopacity="1"
   objecttolerance="10"
   gridtolerance="10"
   guidetolerance="10"
   inkscape:pageopacity="0"
   inkscape:pageshadow="2"
   inkscape:window-width="640"
   inkscape:window-height="480"
   id="namedview1393"
   showgrid="false"
   inkscape:zoom="0.55503813"
   inkscape:cx="198.4245"
   inkscape:cy="99.213993"
   inkscape:window-x="0"
   inkscape:window-y="0"
   inkscape:window-maximized="0"
   inkscape:current-layer="Layer_1" />
<g
   id="LWPOLYLINE_2_"
   transform="translate(-14.174,-113.385)">
	<rect
   x="14.174"
   y="113.385"
   style="fill:#ffcd00"
   width="396.849"
   height="198.42599"
   id="rect1371" />
</g>
<g
   id="LWPOLYLINE"
   transform="translate(-14.174,-113.385)">
	<path
   style="fill:#e4002b"
   d="m 40.627,311.812 h 343.941 c 14.608,0 26.454,-11.846 26.454,-26.459 V 139.839 c 0,-14.608 -11.846,-26.454 -26.454,-26.454 H 40.627 c -14.607,0 -26.453,11.846 -26.453,26.454 v 145.513 c 0,14.614 11.846,26.46 26.453,26.46 z"
   id="path1374"
   inkscape:connector-curvature="0" />
</g>
<g
   id="LWPOLYLINE_1_"
   transform="translate(-14.174,-113.385)">
	<path
   style="fill:#ffcd00"
   d="m 40.627,298.579 h 343.941 c 7.304,0 13.223,-5.918 13.223,-13.227 V 139.839 c 0,-7.304 -5.919,-13.228 -13.223,-13.228 H 40.627 c -7.304,0 -13.227,5.924 -13.227,13.228 v 145.513 c 0.001,7.309 5.924,13.227 13.227,13.227 z"
   id="path1377"
   inkscape:connector-curvature="0" />
</g>
<g
   id="ELLIPSE_2_"
   transform="translate(-14.174,-113.385)">
	<path
   style="fill:#101820"
   d="m 170.87,261.565 c 0,-11.316 -9.164,-20.48 -20.479,-20.48 -11.313,0 -20.481,9.164 -20.481,20.48 0,11.309 9.169,20.482 20.481,20.482 11.315,10e-4 20.479,-9.173 20.479,-20.482"
   id="path1380"
   inkscape:connector-curvature="0" />
</g>
<g
   id="LWPOLYLINE_14_"
   transform="translate(-14.174,-113.385)">
	<path
   style="fill:#101820"
   d="m 264.966,261.565 h -89.911 c -0.073,-13.586 -11.134,-24.543 -24.724,-24.475 -13.486,0.064 -24.406,10.984 -24.47,24.475 H 92.938 c -2.403,0 -4.354,-1.951 -4.354,-4.357 v -32.605 c 0,-5.484 2.836,-10.582 7.505,-13.469 l 16.354,-10.125 30.722,-39.257 c 0.843,-1.075 2.138,-1.705 3.506,-1.705 h 180.614 c 2.371,0 4.322,1.851 4.45,4.218 l 4.869,92.616 c 0.009,0.076 0.009,0.154 0.009,0.232 0,2.457 -1.997,4.453 -4.449,4.453 h -18.01 c -0.064,-13.586 -11.135,-24.543 -24.712,-24.475 -13.487,0.064 -24.411,10.984 -24.476,24.474 z"
   id="path1383"
   inkscape:connector-curvature="0" />
</g>
<g
   id="CIRCLE_2_"
   transform="translate(-14.174,-113.385)">
	<path
   style="fill:#101820"
   d="m 309.977,261.565 c 0,-11.316 -9.164,-20.48 -20.48,-20.48 -11.308,0 -20.481,9.164 -20.481,20.48 0,11.309 9.174,20.482 20.481,20.482 11.316,10e-4 20.48,-9.173 20.48,-20.482 z"
   id="path1386"
   inkscape:connector-curvature="0" />
</g>
<g
   id="LWPOLYLINE_15_"
   transform="translate(-14.174,-113.385)">
	<polygon
   style="fill:#ffcd00"
   points="122.423,207.464 185.743,207.429 185.916,173.141 148.207,173.141 "
   id="polygon1389" />
</g>
</svg>