<?xml version="1.0" encoding="UTF-8" standalone="no"?>
<!-- Generator: Adobe Illustrator 16.0.0, SVG Export Plug-In . SVG Version: 6.00 Build 0)  -->

<svg
   xmlns:dc="http://purl.org/dc/elements/1.1/"
   xmlns:cc="http://creativecommons.org/ns#"
   xmlns:rdf="http://www.w3.org/1999/02/22-rdf-syntax-ns#"
   xmlns:svg="http://www.w3.org/2000/svg"
   xmlns="http://www.w3.org/2000/svg"
   xmlns:sodipodi="http://sodipodi.sourceforge.net/DTD/sodipodi-0.dtd"
   xmlns:inkscape="http://www.inkscape.org/namespaces/inkscape"
   version="1.1"
   id="Layer_1"
   x="0px"
   y="0px"
   width="396.853"
   height="264.56601"
   viewBox="0 0 396.85301 264.566"
   xml:space="preserve"
   sodipodi:docname="H12.13.svg"
   inkscape:version="0.92.5 (2060ec1f9f, 2020-04-08)"><metadata
   id="metadata904"><rdf:RDF><cc:Work
       rdf:about=""><dc:format>image/svg+xml</dc:format><dc:type
         rdf:resource="http://purl.org/dc/dcmitype/StillImage" /></cc:Work></rdf:RDF></metadata><defs
   id="defs902" /><sodipodi:namedview
   pagecolor="#ffffff"
   bordercolor="#666666"
   borderopacity="1"
   objecttolerance="10"
   gridtolerance="10"
   guidetolerance="10"
   inkscape:pageopacity="0"
   inkscape:pageshadow="2"
   inkscape:window-width="640"
   inkscape:window-height="480"
   id="namedview900"
   showgrid="false"
   inkscape:zoom="0.55503813"
   inkscape:cx="198.4265"
   inkscape:cy="132.28299"
   inkscape:window-x="0"
   inkscape:window-y="0"
   inkscape:window-maximized="0"
   inkscape:current-layer="Layer_1" />
<g
   id="LWPOLYLINE_156_"
   transform="translate(-14.172,-80.315002)">
	<rect
   x="14.172"
   y="80.315002"
   style="fill:#ffcd00"
   width="396.853"
   height="264.565"
   id="rect854" />
</g>
<g
   id="LWPOLYLINE_154_"
   transform="translate(-14.172,-80.315002)">
	<path
   style="fill:#e4002b"
   d="M 40.627,344.881 H 384.56 c 14.612,0 26.465,-11.848 26.465,-26.455 V 106.771 c 0,-14.613 -11.853,-26.455 -26.465,-26.455 H 40.627 c -14.613,0 -26.455,11.842 -26.455,26.455 v 211.655 c 0,14.607 11.842,26.455 26.455,26.455 z"
   id="path857"
   inkscape:connector-curvature="0" />
</g>
<g
   id="LWPOLYLINE_155_"
   transform="translate(-14.172,-80.315002)">
	<path
   style="fill:#ffcd00"
   d="M 40.627,331.653 H 384.56 c 7.312,0 13.228,-5.921 13.228,-13.228 V 106.771 c 0,-7.307 -5.916,-13.228 -13.228,-13.228 H 40.627 c -7.306,0 -13.228,5.921 -13.228,13.228 v 211.655 c 0,7.306 5.922,13.227 13.228,13.227 z"
   id="path860"
   inkscape:connector-curvature="0" />
</g>
<g
   id="LWPOLYLINE_157_"
   transform="translate(-14.172,-80.315002)">
	<path
   style="fill:#101820"
   d="M 106.77,174.899 H 94.865 v 1.981 c 0,7.673 -6.219,13.892 -13.891,13.892 -7.672,0 -13.892,-6.219 -13.892,-13.892 v -27.782 c 0,-7.667 6.219,-13.887 13.892,-13.887 7.672,0 13.891,6.22 13.891,13.887 v 1.986 h 11.905 v -1.986 c 0,-14.242 -11.549,-25.791 -25.796,-25.791 -14.248,0 -25.796,11.549 -25.796,25.791 v 27.782 c 0,14.248 11.549,25.797 25.796,25.797 14.247,0 25.796,-11.549 25.796,-25.797 z"
   id="path863"
   inkscape:connector-curvature="0" />
</g>
<g
   id="LWPOLYLINE_159_"
   transform="translate(-14.172,-80.315002)">
	<path
   style="fill:#101820"
   d="m 170.264,176.881 v -27.782 c 0,-14.242 -11.554,-25.791 -25.791,-25.791 -14.248,0 -25.801,11.549 -25.801,25.791 v 27.782 c 0,14.248 11.554,25.797 25.801,25.797 14.237,0 25.791,-11.549 25.791,-25.797 z"
   id="path866"
   inkscape:connector-curvature="0" />
</g>
<g
   id="LWPOLYLINE_160_"
   transform="translate(-14.172,-80.315002)">
	<path
   style="fill:#101820"
   d="m 186.137,170.532 h 7.147 v -2.381 c 0,-0.774 0.145,-1.534 0.434,-2.246 1.25,-3.05 4.723,-4.507 7.763,-3.267 3.05,1.241 4.502,4.719 3.262,7.759 l -18.605,25.138 v 7.143 h 26.195 v -7.143 H 194.237 L 211.553,172.6 c 2.453,-6.802 -1.067,-14.31 -7.869,-16.768 -6.801,-2.458 -14.314,1.067 -16.768,7.869 -0.664,1.847 -0.904,3.814 -0.712,5.767 z"
   id="path869"
   inkscape:connector-curvature="0" />
</g>
<g
   id="LWPOLYLINE_161_"
   transform="translate(-14.172,-80.315002)">
	<polygon
   style="fill:#101820"
   points="321.135,153.072 314.516,166.299 307.908,153.072 297.98,153.072 309.562,176.218 296.334,202.678 306.252,202.678 314.516,186.141 322.79,202.678 332.708,202.678 319.481,176.218 331.053,153.072 "
   id="polygon872" />
</g>
<g
   id="LWPOLYLINE_162_"
   transform="translate(-14.172,-80.315002)">
	<polygon
   style="fill:#101820"
   points="360.154,153.072 353.545,166.299 346.926,153.072 337.008,153.072 348.582,176.218 335.354,202.678 345.272,202.678 353.545,186.141 361.809,202.678 371.737,202.678 358.5,176.218 370.082,153.072 "
   id="polygon875" />
</g>
<g
   id="LWPOLYLINE_163_"
   transform="translate(-14.172,-80.315002)">
	<path
   style="fill:#101820"
   d="m 149.398,299.243 c -3.415,2.121 -7.253,3.478 -11.246,3.969 -6.571,0 -11.9,-5.33 -11.9,-11.905 v -0.332 l 0.029,-27.2 c 1.106,-5.738 6.032,-9.957 11.872,-10.169 3.982,0.506 7.811,1.833 11.246,3.911 v -3.911 h 9.928 v 45.638 c 0,2.323 -0.51,4.613 -1.5,6.72 -3.704,7.941 -13.151,11.371 -21.097,7.662 l 4.204,-8.989 c 2.973,1.395 6.513,0.105 7.908,-2.872 0.364,-0.79 0.556,-1.651 0.556,-2.522 z"
   id="path878"
   inkscape:connector-curvature="0" />
</g>
<g
   id="LWPOLYLINE_165_"
   transform="translate(-14.172,-80.315002)">
	<polygon
   style="fill:#101820"
   points="200.779,235.746 210.707,235.746 210.707,272.293 223.934,252.283 233.853,252.283 222.53,269.268 233.92,301.903 223.934,301.889 215.959,279.118 210.707,287.007 210.707,301.889 200.779,301.889 "
   id="polygon881" />
</g>
<g
   id="LWPOLYLINE_166_"
   transform="translate(-14.172,-80.315002)">
	<path
   style="fill:#101820"
   d="m 271.293,255.092 c -2.145,-1.817 -4.867,-2.809 -7.677,-2.809 -3.992,0.49 -7.83,1.847 -11.245,3.969 v -3.969 h -9.919 v 49.605 h 9.919 v -35.055 c 0,-3.651 2.963,-6.614 6.618,-6.614 3.655,0 6.609,2.963 6.609,6.614 v 35.055 h 9.928 v -35.055 c 0,-3.651 2.963,-6.614 6.608,-6.614 3.656,0 6.619,2.963 6.619,6.614 v 35.055 h 9.918 v -37.802 c -0.452,-6.358 -5.541,-11.399 -11.9,-11.804 -5.328,-0.681 -10.725,0.299 -15.478,2.81 z"
   id="path884"
   inkscape:connector-curvature="0" />
</g>
<g
   id="LWPOLYLINE_168_"
   transform="translate(-14.172,-80.315002)">
	<polygon
   style="fill:#101820"
   points="174.16,302.971 193.506,234.669 185.945,234.669 166.599,302.971 "
   id="polygon887" />
</g>
<g
   id="LWPOLYLINE_158_"
   transform="translate(-14.172,-80.315002)">
	<path
   style="fill:#ffcd00"
   d="m 158.354,176.881 v -27.782 c 0,-7.667 -6.214,-13.887 -13.881,-13.887 -7.677,0 -13.892,6.22 -13.892,13.887 v 27.782 c 0,7.673 6.215,13.892 13.892,13.892 7.667,-0.001 13.881,-6.219 13.881,-13.892 z"
   id="path890"
   inkscape:connector-curvature="0" />
</g>
<g
   id="LWPOLYLINE_164_"
   transform="translate(-14.172,-80.315002)">
	<path
   style="fill:#ffcd00"
   d="m 136.171,288.661 c 0,3.651 2.963,6.614 6.619,6.614 3.646,0 6.609,-2.963 6.609,-6.614 v -20.505 c 0,-3.655 -2.963,-6.613 -6.609,-6.613 -3.656,0 -6.619,2.958 -6.619,6.613 z"
   id="path893"
   inkscape:connector-curvature="0" />
</g>
<g
   id="LWPOLYLINE_167_"
   transform="translate(-14.172,-80.315002)">
	<polygon
   style="fill:#101820"
   points="241.645,169.608 276.489,184.818 276.489,192.754 232.169,173.408 232.169,165.799 276.489,146.453 276.489,154.395 "
   id="polygon896" />
</g>
</svg>