<?xml version="1.0" encoding="iso-8859-1"?>
<!-- Generator: Adobe Illustrator 16.0.0, SVG Export Plug-In . SVG Version: 6.00 Build 0)  -->
<!DOCTYPE svg PUBLIC "-//W3C//DTD SVG 1.1//EN" "http://www.w3.org/Graphics/SVG/1.1/DTD/svg11.dtd">
<svg version="1.1" id="Layer_1" xmlns="http://www.w3.org/2000/svg" xmlns:xlink="http://www.w3.org/1999/xlink" x="0px" y="0px"
	 width="425.197px" height="425.196px" viewBox="0 0 425.197 425.196" style="enable-background:new 0 0 425.197 425.196;"
	 xml:space="preserve">
<g id="LWPOLYLINE_144_">
	<rect x="14.172" y="113.385" style="fill:#FFCD00;" width="396.853" height="198.427"/>
</g>
<g id="LWPOLYLINE_142_">
	<path style="fill:#E4002B;" d="M40.632,311.812H384.57c14.612,0,26.455-11.847,26.455-26.46V139.845
		c0-14.613-11.843-26.46-26.455-26.46H40.632c-14.613,0-26.46,11.847-26.46,26.46v145.507
		C14.172,299.965,26.019,311.812,40.632,311.812z"/>
</g>
<g id="LWPOLYLINE_143_">
	<path style="fill:#FFCD00;" d="M40.632,298.584H384.57c7.302,0,13.228-5.926,13.228-13.232V139.845
		c0-7.312-5.926-13.232-13.228-13.232H40.632c-7.306,0-13.232,5.921-13.232,13.232v145.507
		C27.399,292.658,33.326,298.584,40.632,298.584z"/>
</g>
<g id="LWPOLYLINE_148_">
	<path style="fill:#101820;" d="M243.809,279.277h-22.886c-2.29-0.241-4.454-1.146-6.243-2.607
		c-0.847-0.799-1.501-1.789-1.905-2.886l-0.75-2.05c-0.27-0.846-0.914-1.524-1.761-1.817c-13.458-0.222-26.85-2.025-39.885-5.373
		l-2.924,9.933c8.591,0.337,17.182,0.702,25.772,1.087c1.529,0.746,2.693,2.088,3.204,3.714h-37.365
		c-14.517,0.721-28.437-5.811-37.172-17.422l0.087-3.175c9.148,10.842,22.934,16.638,37.085,15.589l3.454-11.746
		c-10.265-3.593-20.01-8.528-28.976-14.675c6.984-18.855,22.155-33.521,41.231-39.856l14.42-43.367
		c7.985,7.499,12.651,17.865,12.987,28.813l11.391,2.146c0.683,0.125,1.385-0.116,1.847-0.636l11.986-12.65
		c0.818-0.842,1.761-1.567,2.78-2.149c6.08-3.478,13.824-1.371,17.297,4.709c4.493,9.648,7.802,19.817,9.842,30.265l3.732,12.871
		h30.207v26.696c6.233,0.144,11.371,4.915,11.977,11.115c0.664,6.777-4.29,12.81-11.063,13.474h-13.796
		C278.375,279.277,243.809,279.277,243.809,279.277z"/>
</g>
<g id="LWPOLYLINE_149_">
	<path style="fill:#FFCD00;" d="M197.72,202.865l-6.013,21.5c-0.087,0.289-0.01,0.597,0.183,0.828l8.735,10.12l7.927-18.99
		c0.865-2.068,2.818-3.478,5.06-3.646l12.237-0.904l-1.405-8.995l-6.638,2.857c-0.654,0.313-1.385,0.447-2.116,0.39l-12.795-2.236
		L197.72,202.865z"/>
</g>
<g id="LWPOLYLINE_150_">
	<path style="fill:#101820;" d="M214.189,185.347l8.438-6.276c2.396-1.785,5.04-3.219,7.84-4.258
		c3.319-1.23,6.927-1.428,10.352-0.576l6.281,1.856v-18.648c-0.798-5.118-4.732-9.178-9.821-10.125
		c-5.532-2.03-11.641-1.848-17.037,0.52c-5.792,2.544-9.39,8.417-9.033,14.728h10.688h0.49l-0.49,7.144l-11.256,4.035
		c-0.471,4.074,0.52,8.187,2.79,11.602c0.135,0.212,0.424,0.27,0.635,0.125C214.112,185.443,214.161,185.395,214.189,185.347z"/>
</g>
</svg>
