<?xml version="1.0" encoding="iso-8859-1"?>
<!-- Generator: Adobe Illustrator 16.0.0, SVG Export Plug-In . SVG Version: 6.00 Build 0)  -->
<!DOCTYPE svg PUBLIC "-//W3C//DTD SVG 1.1//EN" "http://www.w3.org/Graphics/SVG/1.1/DTD/svg11.dtd">
<svg version="1.1" id="Layer_1" xmlns="http://www.w3.org/2000/svg" xmlns:xlink="http://www.w3.org/1999/xlink" x="0px" y="0px"
	 width="425.197px" height="425.196px" viewBox="0 0 425.197 425.196" style="enable-background:new 0 0 425.197 425.196;"
	 xml:space="preserve">
<g id="LWPOLYLINE_169_">
	<rect x="14.173" y="80.311" style="fill:#FFCD00;" width="396.851" height="264.575"/>
</g>
<g id="LWPOLYLINE_168_">
	<path style="fill:#E4002B;" d="M40.586,344.886h343.978c14.611,0,26.46-11.849,26.46-26.46V106.771
		c0-14.611-11.849-26.46-26.46-26.46H40.586c-14.611,0-26.413,11.849-26.413,26.46v211.655
		C14.173,333.037,25.975,344.886,40.586,344.886z"/>
</g>
<g id="LWPOLYLINE_167_">
	<path style="fill:#FFCD00;" d="M40.586,331.655h343.978c7.307,0,13.207-5.924,13.207-13.229V106.771
		c0-7.306-5.9-13.23-13.207-13.23H40.586c-7.306,0-13.207,5.924-13.207,13.23v211.655C27.379,325.731,33.281,331.655,40.586,331.655
		z"/>
</g>
<g id="LWPOLYLINE_170_">
	<polygon style="fill:#101820;" points="125.492,149.762 147.315,149.762 147.315,143.814 131.44,143.814 131.44,131.896 
		142.117,131.896 142.117,125.948 131.44,125.948 131.44,116.043 147.315,116.043 147.315,110.072 125.492,110.072 	"/>
</g>
<g id="LWPOLYLINE_171_">
	<rect x="154.434" y="120" style="fill:#101820;" width="5.947" height="29.761"/>
</g>
<g id="LWPOLYLINE_172_">
	<rect x="154.434" y="110.072" style="fill:#101820;" width="5.947" height="5.971"/>
</g>
<g id="LWPOLYLINE_173_">
	<polygon style="fill:#101820;" points="186.186,149.762 180.238,149.762 180.238,110.072 186.186,110.072 186.186,132.013 
		194.147,120 200.095,120 193.304,130.187 200.142,149.762 194.147,149.762 189.324,136.087 186.186,140.817 	"/>
</g>
<g id="LWPOLYLINE_174_">
	<path style="fill:#101820;" d="M204.451,139.833c0,5.479,4.448,9.928,9.928,9.928s9.928-4.449,9.928-9.928v-9.928
		c0-5.479-4.448-9.905-9.928-9.905s-9.928,4.426-9.928,9.905V139.833z"/>
</g>
<g id="LWPOLYLINE_176_">
	<path style="fill:#101820;" d="M229.833,139.833c0,5.479,4.448,9.928,9.928,9.928h0.796c4.823,0,8.711-3.91,8.711-8.734
		c0-3.114-1.64-5.971-4.309-7.54l-6.604-3.84c-0.608-0.352-0.983-1.007-0.983-1.709c0-1.101,0.891-1.99,2.014-1.99h1.171
		c1.077,0,1.967,0.89,1.967,1.99h5.995c0-4.402-3.56-7.938-7.962-7.938h-1.171c-4.402,0-7.961,3.536-7.961,7.938
		c0,2.81,1.498,5.433,3.934,6.837l6.604,3.84c0.843,0.515,1.357,1.428,1.357,2.412c0,1.522-1.217,2.787-2.763,2.787h-0.796
		c-2.201,0-3.98-1.78-3.98-3.981H229.833z"/>
</g>
<g id="LWPOLYLINE_177_">
	<polygon style="fill:#101820;" points="262.005,149.762 256.058,149.762 256.058,110.072 262.005,110.072 262.005,132.013 
		269.92,120 275.869,120 269.078,130.187 275.916,149.762 269.92,149.762 265.144,136.087 262.005,140.817 	"/>
</g>
<g id="LWPOLYLINE_178_">
	<path style="fill:#101820;" d="M293.757,139.833h5.948c0,5.479-4.449,9.928-9.929,9.928c-5.479,0-9.928-4.449-9.928-9.928v-9.928
		c0-5.479,4.449-9.905,9.928-9.905c5.479,0,9.929,4.426,9.929,9.905v5.573h-13.909v4.355c0,2.201,1.779,3.981,3.98,3.981
		S293.757,142.035,293.757,139.833z"/>
</g>
<g id="CIRCLE_23_">
	<path style="fill:#101820;" d="M174.103,289.483c0-14.166-11.474-25.64-25.617-25.64c-14.143,0-25.616,11.474-25.616,25.64
		c0,14.167,11.474,25.641,25.616,25.641C162.629,315.124,174.103,303.65,174.103,289.483L174.103,289.483z"/>
</g>
<g id="LWPOLYLINE_181_">
	<path style="fill:#101820;" d="M216.626,279.345h-39.901c-5.619-15.595-22.76-23.697-38.354-18.1
		c-5.994,2.13-11.146,6.135-14.705,11.402l-3.653-37.113c-0.047-0.492-0.047-1.008,0-1.499c0.328-4.238,4.028-7.399,8.243-7.095
		h66.781c1.873,0,3.513-1.265,3.934-3.067l12.691-50.836c0.516-1.826,2.201-3.044,4.074-2.997h54.513
		c1.873,0,3.513,1.264,3.98,3.091l12.177,48.307c0.141,0.632,0.562,1.171,1.076,1.522l4.73,2.669l3.278,2.201l3.325,2.575
		c1.451,1.172,2.248,3.021,2.061,4.895c-0.141,1.194-0.891,2.248-1.967,2.764c-0.75,0.351-1.546,0.584-2.342,0.678
		c-1.265,0.141-2.482-0.397-3.231-1.404c-19.481-16.906-48.938-14.775-65.845,4.707C218.64,252.3,214.66,265.904,216.626,279.345z"
		/>
</g>
<g id="CIRCLE_25_">
	<path style="fill:#101820;" d="M305.185,272.694c0-23.416-18.967-42.383-42.43-42.383c-23.416,0-42.383,18.967-42.383,42.383
		c0,23.439,18.967,42.43,42.383,42.43C286.218,315.124,305.185,296.134,305.185,272.694L305.185,272.694z"/>
</g>
<g id="LWPOLYLINE_175_">
	<path style="fill:#FFCD00;" d="M210.398,139.833c0,2.201,1.779,3.981,3.98,3.981s3.934-1.78,3.934-3.981v-9.928
		c0-2.178-1.732-3.957-3.934-3.957s-3.98,1.779-3.98,3.957V139.833z"/>
</g>
<g id="LWPOLYLINE_179_">
	<path style="fill:#FFCD00;" d="M285.796,130.327h7.961v-0.421c0-2.178-1.779-3.957-3.98-3.957s-3.98,1.779-3.98,3.957V130.327z"/>
</g>
<g id="CIRCLE_22_">
	<path style="fill:#FFCD00;" d="M284.345,272.694c0-11.895-9.648-21.542-21.59-21.542c-11.895,0-21.543,9.647-21.543,21.542
		c0,11.919,9.648,21.59,21.543,21.59C274.697,294.284,284.345,284.613,284.345,272.694L284.345,272.694z"/>
</g>
<g id="LWPOLYLINE_180_">
	<path style="fill:#FFCD00;" d="M218.406,237.454c0.375,0.398,0.983,0.445,1.405,0.07c4.729-5.76,10.583-10.537,17.187-14.003
		c0.141-0.047,0.281-0.141,0.422-0.28c0.844-0.75,1.312-1.874,1.312-2.998v-39.994c0.14-0.702-0.328-1.404-1.03-1.545
		c-0.094,0-0.188,0-0.234,0l-17.516-0.047c-0.701-0.023-1.311,0.445-1.545,1.123L207.4,223.662
		c-0.327,1.405,0.094,2.856,1.078,3.888C208.478,227.55,218.453,237.524,218.406,237.454z"/>
</g>
<g id="LWPOLYLINE_182_">
	<path style="fill:#FFCD00;" d="M247.488,217.551v-37.583c0.141-0.749,0.797-1.311,1.593-1.311h15.688
		c0.656,0,1.265,0.469,1.451,1.123l9.227,36.576c0.047,0.234,0.047,0.469,0,0.703c-0.188,0.842-1.03,1.357-1.873,1.17
		c-8.102-1.568-16.438-1.357-24.493,0.609c-0.702,0.023-1.312-0.422-1.499-1.102C247.535,217.667,247.535,217.62,247.488,217.551z"
		/>
</g>
<g id="CIRCLE_24_">
	<path style="fill:#FFCD00;" d="M161.412,289.46c0-7.118-5.807-12.902-12.926-12.902c-7.118,0-12.925,5.784-12.925,12.902
		c0,7.143,5.807,12.926,12.925,12.926C155.605,302.386,161.412,296.603,161.412,289.46L161.412,289.46z"/>
</g>
</svg>
