<?xml version="1.0" encoding="UTF-8" standalone="no"?>
<!-- Generator: Adobe Illustrator 16.0.0, SVG Export Plug-In . SVG Version: 6.00 Build 0)  -->

<svg
   xmlns:dc="http://purl.org/dc/elements/1.1/"
   xmlns:cc="http://creativecommons.org/ns#"
   xmlns:rdf="http://www.w3.org/1999/02/22-rdf-syntax-ns#"
   xmlns:svg="http://www.w3.org/2000/svg"
   xmlns="http://www.w3.org/2000/svg"
   xmlns:sodipodi="http://sodipodi.sourceforge.net/DTD/sodipodi-0.dtd"
   xmlns:inkscape="http://www.inkscape.org/namespaces/inkscape"
   version="1.1"
   id="Layer_1"
   x="0px"
   y="0px"
   width="396.849"
   height="264.57001"
   viewBox="0 0 396.84901 264.57"
   xml:space="preserve"
   sodipodi:docname="H12.11_2.svg"
   inkscape:version="0.92.5 (2060ec1f9f, 2020-04-08)"><metadata
   id="metadata542"><rdf:RDF><cc:Work
       rdf:about=""><dc:format>image/svg+xml</dc:format><dc:type
         rdf:resource="http://purl.org/dc/dcmitype/StillImage" /></cc:Work></rdf:RDF></metadata><defs
   id="defs540" /><sodipodi:namedview
   pagecolor="#ffffff"
   bordercolor="#666666"
   borderopacity="1"
   objecttolerance="10"
   gridtolerance="10"
   guidetolerance="10"
   inkscape:pageopacity="0"
   inkscape:pageshadow="2"
   inkscape:window-width="640"
   inkscape:window-height="480"
   id="namedview538"
   showgrid="false"
   inkscape:zoom="0.55503813"
   inkscape:cx="198.4245"
   inkscape:cy="132.28499"
   inkscape:window-x="0"
   inkscape:window-y="0"
   inkscape:window-maximized="0"
   inkscape:current-layer="Layer_1" />
<g
   id="LWPOLYLINE_175_"
   transform="translate(-14.174,-80.313)">
	<rect
   x="14.174"
   y="80.313004"
   style="fill:#ffcd00"
   width="396.849"
   height="264.569"
   id="rect489" />
</g>
<g
   id="LWPOLYLINE_174_"
   transform="translate(-14.174,-80.313)">
	<path
   style="fill:#e4002b"
   d="m 40.627,344.883 h 343.941 c 14.608,0 26.454,-11.846 26.454,-26.459 V 106.771 c 0,-14.612 -11.846,-26.458 -26.454,-26.458 H 40.627 c -14.607,0 -26.453,11.846 -26.453,26.458 v 211.652 c 0,14.614 11.846,26.46 26.453,26.46 z"
   id="path492"
   inkscape:connector-curvature="0" />
</g>
<g
   id="LWPOLYLINE_173_"
   transform="translate(-14.174,-80.313)">
	<path
   style="fill:#ffcd00"
   d="m 40.627,331.651 h 343.941 c 7.304,0 13.223,-5.919 13.223,-13.228 V 106.771 c 0,-7.304 -5.919,-13.23 -13.223,-13.23 H 40.627 c -7.304,0 -13.227,5.927 -13.227,13.23 v 211.652 c 0.001,7.309 5.924,13.228 13.227,13.228 z"
   id="path495"
   inkscape:connector-curvature="0" />
</g>
<g
   id="LWPOLYLINE_176_"
   transform="translate(-14.174,-80.313)">
	<polygon
   style="fill:#101820"
   points="147.316,147.118 131.442,147.118 131.442,135.214 142.157,135.214 142.157,129.259 131.442,129.259 131.442,119.338 147.316,119.338 147.316,113.383 125.488,113.383 125.488,153.068 147.316,153.068 "
   id="polygon498" />
</g>
<g
   id="LWPOLYLINE_177_"
   transform="translate(-14.174,-80.313)">
	<rect
   x="154.45599"
   y="123.305"
   style="fill:#101820"
   width="5.9549999"
   height="29.764"
   id="rect501" />
</g>
<g
   id="LWPOLYLINE_178_"
   transform="translate(-14.174,-80.313)">
	<rect
   x="154.45599"
   y="113.383"
   style="fill:#101820"
   width="5.9549999"
   height="5.9549999"
   id="rect504" />
</g>
<g
   id="LWPOLYLINE_179_"
   transform="translate(-14.174,-80.313)">
	<polygon
   style="fill:#101820"
   points="180.252,113.383 186.208,113.383 186.208,135.313 194.141,123.305 200.095,123.305 193.302,133.499 200.141,153.077 194.141,153.068 189.363,139.408 186.208,144.141 186.208,153.068 180.252,153.068 "
   id="polygon507" />
</g>
<g
   id="LWPOLYLINE_180_"
   transform="translate(-14.174,-80.313)">
	<path
   style="fill:#101820"
   d="m 204.463,143.146 c 0,5.48 4.44,9.922 9.921,9.922 5.481,0 9.922,-4.441 9.922,-9.922 v -9.921 c 0,-5.48 -4.441,-9.921 -9.922,-9.921 -5.481,0 -9.921,4.44 -9.921,9.921 z"
   id="path510"
   inkscape:connector-curvature="0" />
</g>
<g
   id="LWPOLYLINE_182_"
   transform="translate(-14.174,-80.313)">
	<path
   style="fill:#101820"
   d="m 229.859,143.146 c 0,5.48 4.441,9.922 9.922,9.922 h 0.793 c 4.824,0 8.736,-3.907 8.736,-8.727 0,-3.109 -1.65,-5.982 -4.341,-7.546 l -6.584,-3.839 c -0.61,-0.352 -0.984,-1.008 -0.984,-1.715 0,-1.094 0.894,-1.983 1.987,-1.983 h 1.186 c 1.095,0 1.988,0.89 1.988,1.983 h 5.954 c 0,-4.382 -3.556,-7.938 -7.942,-7.938 h -1.186 c -4.386,0 -7.942,3.556 -7.942,7.938 0,2.822 1.505,5.439 3.939,6.857 l 6.593,3.839 c 0.848,0.497 1.377,1.414 1.377,2.403 0,1.531 -1.24,2.776 -2.781,2.776 h -0.793 c -2.188,0 -3.967,-1.778 -3.967,-3.972 h -5.955 z"
   id="path513"
   inkscape:connector-curvature="0" />
</g>
<g
   id="LWPOLYLINE_183_"
   transform="translate(-14.174,-80.313)">
	<polygon
   style="fill:#101820"
   points="256.058,113.383 262.003,113.383 262.003,135.313 269.946,123.305 275.9,123.305 269.097,133.499 275.937,153.077 269.946,153.068 265.158,139.408 262.003,144.141 262.003,153.068 256.058,153.068 "
   id="polygon516" />
</g>
<g
   id="LWPOLYLINE_184_"
   transform="translate(-14.174,-80.313)">
	<path
   style="fill:#101820"
   d="m 293.754,143.146 h 5.955 c 0,5.48 -4.441,9.922 -9.921,9.922 -5.48,0 -9.922,-4.441 -9.922,-9.922 v -9.921 c 0,-5.48 4.441,-9.921 9.922,-9.921 5.479,0 9.921,4.44 9.921,9.921 v 5.558 h -13.888 v 4.363 c 0,2.193 1.769,3.972 3.967,3.972 2.188,0 3.966,-1.778 3.966,-3.972 z"
   id="path519"
   inkscape:connector-curvature="0" />
</g>
<g
   id="LWPOLYLINE_186_"
   transform="translate(-14.174,-80.313)">
	<path
   style="fill:#101820"
   d="M 243.884,311.809 H 220.95 c -2.299,-0.237 -4.478,-1.145 -6.266,-2.608 -0.856,-0.802 -1.504,-1.796 -1.905,-2.899 l -0.757,-2.047 c -0.265,-0.853 -0.921,-1.532 -1.76,-1.828 -13.505,-0.22 -26.929,-2.029 -40.005,-5.385 l -2.927,9.962 c 8.617,0.333 17.226,0.697 25.843,1.09 1.532,0.743 2.699,2.093 3.21,3.716 h -37.46 c -14.554,0.725 -28.518,-5.818 -37.271,-17.467 l 0.087,-3.178 c 9.174,10.869 22.995,16.678 37.185,15.629 l 3.465,-11.781 c -10.295,-3.598 -20.063,-8.544 -29.055,-14.713 6.998,-18.908 22.206,-33.607 41.347,-39.964 l 14.453,-43.479 c 8.007,7.519 12.685,17.91 13.022,28.889 l 11.416,2.152 c 0.685,0.128 1.387,-0.114 1.852,-0.639 l 12.019,-12.685 c 0.83,-0.843 1.769,-1.568 2.79,-2.156 6.092,-3.488 13.86,-1.372 17.345,4.719 4.504,9.68 7.814,19.87 9.866,30.348 l 3.748,12.912 h 30.283 v 26.76 c 6.246,0.146 11.398,4.929 12.01,11.147 0.665,6.793 -4.305,12.839 -11.098,13.505 h -13.833 z"
   id="path522"
   inkscape:connector-curvature="0" />
</g>
<g
   id="LWPOLYLINE_188_"
   transform="translate(-14.174,-80.313)">
	<path
   style="fill:#101820"
   d="m 214.193,217.63 8.463,-6.292 c 2.407,-1.788 5.052,-3.229 7.86,-4.268 3.319,-1.231 6.939,-1.432 10.377,-0.575 l 6.292,1.86 v -18.698 c -0.793,-5.129 -4.742,-9.2 -9.839,-10.153 -5.554,-2.038 -11.673,-1.852 -17.08,0.524 -5.809,2.549 -9.42,8.435 -9.055,14.763 h 10.705 0.493 l -0.493,7.163 -11.279,4.044 c -0.475,4.09 0.511,8.207 2.79,11.632 0.137,0.214 0.429,0.273 0.639,0.132 0.055,-0.033 0.091,-0.077 0.127,-0.132 z"
   id="path525"
   inkscape:connector-curvature="0" />
</g>
<g
   id="LWPOLYLINE_181_"
   transform="translate(-14.174,-80.313)">
	<path
   style="fill:#ffcd00"
   d="m 210.417,143.146 c 0,2.193 1.778,3.972 3.967,3.972 2.189,0 3.967,-1.778 3.967,-3.972 v -9.921 c 0,-2.188 -1.777,-3.967 -3.967,-3.967 -2.188,0 -3.967,1.778 -3.967,3.967 z"
   id="path528"
   inkscape:connector-curvature="0" />
</g>
<g
   id="LWPOLYLINE_185_"
   transform="translate(-14.174,-80.313)">
	<path
   style="fill:#ffcd00"
   d="m 285.822,133.627 h 7.933 v -0.401 c 0,-2.188 -1.778,-3.967 -3.966,-3.967 -2.198,0 -3.967,1.778 -3.967,3.967 z"
   id="path531"
   inkscape:connector-curvature="0" />
</g>
<g
   id="LWPOLYLINE_187_"
   transform="translate(-14.174,-80.313)">
	<path
   style="fill:#ffcd00"
   d="m 197.679,235.197 -6.028,21.561 c -0.082,0.288 -0.009,0.598 0.183,0.826 l 8.764,10.153 7.951,-19.045 c 0.866,-2.074 2.818,-3.487 5.062,-3.651 l 12.273,-0.908 -1.404,-9.018 -6.656,2.858 c -0.657,0.314 -1.396,0.451 -2.125,0.392 l -12.83,-2.243 z"
   id="path534"
   inkscape:connector-curvature="0" />
</g>
</svg>