<?xml version="1.0" encoding="iso-8859-1"?>
<!-- Generator: Adobe Illustrator 16.0.0, SVG Export Plug-In . SVG Version: 6.00 Build 0)  -->
<!DOCTYPE svg PUBLIC "-//W3C//DTD SVG 1.1//EN" "http://www.w3.org/Graphics/SVG/1.1/DTD/svg11.dtd">
<svg version="1.1" id="Layer_1" xmlns="http://www.w3.org/2000/svg" xmlns:xlink="http://www.w3.org/1999/xlink" x="0px" y="0px"
	 width="425.197px" height="425.196px" viewBox="0 0 425.197 425.196" style="enable-background:new 0 0 425.197 425.196;"
	 xml:space="preserve">
<g id="LWPOLYLINE_144_">
	<rect x="14.172" y="113.385" style="fill:#FFCD00;" width="396.853" height="198.427"/>
</g>
<g id="LWPOLYLINE_142_">
	<path style="fill:#E4002B;" d="M40.632,311.812H384.57c14.612,0,26.455-11.847,26.455-26.46V139.845
		c0-14.613-11.843-26.46-26.455-26.46H40.632c-14.613,0-26.46,11.847-26.46,26.46v145.507
		C14.172,299.965,26.019,311.812,40.632,311.812z"/>
</g>
<g id="LWPOLYLINE_143_">
	<path style="fill:#FFCD00;" d="M40.632,298.584H384.57c7.302,0,13.228-5.926,13.228-13.232V139.845
		c0-7.312-5.926-13.232-13.228-13.232H40.632c-7.306,0-13.232,5.921-13.232,13.232v145.507
		C27.399,292.658,33.326,298.584,40.632,298.584z"/>
</g>
<g id="LWPOLYLINE_147_">
	<path style="fill:#101820;" d="M191.178,253.086c9.158,20.419,33.141,29.539,53.564,20.371
		c20.414-9.168,29.533-33.15,20.365-53.564c-3.953-8.821-10.938-15.931-19.683-20.053l-0.471,11.876
		c6.714,4.555,11.294,11.64,12.679,19.634c2.848,16.287-8.062,31.795-24.349,34.633c-16.296,2.842-31.804-8.063-34.642-24.354
		L191.178,253.086z"/>
</g>
<g id="LWPOLYLINE_148_">
	<path style="fill:#101820;" d="M227.965,214.5h-32.448l-19.058,30.337l-12.698-8.466l-7.052,10.582l24.695,16.229l21.867-35.983
		h36.69l3.598-56.129c6.013-2.761,8.658-9.884,5.888-15.901c-2.771-6.022-9.89-8.658-15.911-5.893
		c-6.013,2.766-8.648,9.89-5.888,15.907c0.856,1.852,2.164,3.453,3.81,4.665l-1.838,23.483h-27.051v12.703h26.061L227.965,214.5z"/>
</g>
</svg>
