<?xml version="1.0" encoding="UTF-8" standalone="no"?>
<!-- Generator: Adobe Illustrator 16.0.0, SVG Export Plug-In . SVG Version: 6.00 Build 0)  -->

<svg
   xmlns:dc="http://purl.org/dc/elements/1.1/"
   xmlns:cc="http://creativecommons.org/ns#"
   xmlns:rdf="http://www.w3.org/1999/02/22-rdf-syntax-ns#"
   xmlns:svg="http://www.w3.org/2000/svg"
   xmlns="http://www.w3.org/2000/svg"
   xmlns:sodipodi="http://sodipodi.sourceforge.net/DTD/sodipodi-0.dtd"
   xmlns:inkscape="http://www.inkscape.org/namespaces/inkscape"
   version="1.1"
   id="Layer_1"
   x="0px"
   y="0px"
   width="396.849"
   height="264.57001"
   viewBox="0 0 396.84901 264.57"
   xml:space="preserve"
   sodipodi:docname="H12.9_2.svg"
   inkscape:version="0.92.5 (2060ec1f9f, 2020-04-08)"><metadata
   id="metadata2393"><rdf:RDF><cc:Work
       rdf:about=""><dc:format>image/svg+xml</dc:format><dc:type
         rdf:resource="http://purl.org/dc/dcmitype/StillImage" /></cc:Work></rdf:RDF></metadata><defs
   id="defs2391" /><sodipodi:namedview
   pagecolor="#ffffff"
   bordercolor="#666666"
   borderopacity="1"
   objecttolerance="10"
   gridtolerance="10"
   guidetolerance="10"
   inkscape:pageopacity="0"
   inkscape:pageshadow="2"
   inkscape:window-width="640"
   inkscape:window-height="480"
   id="namedview2389"
   showgrid="false"
   inkscape:zoom="0.55503813"
   inkscape:cx="198.4245"
   inkscape:cy="132.28499"
   inkscape:window-x="0"
   inkscape:window-y="0"
   inkscape:window-maximized="0"
   inkscape:current-layer="Layer_1" />
<g
   id="LWPOLYLINE_46_"
   transform="translate(-14.174,-80.313)">
	<rect
   x="14.174"
   y="80.313004"
   style="fill:#ffcd00"
   width="396.849"
   height="264.569"
   id="rect2337" />
</g>
<g
   id="LWPOLYLINE_45_"
   transform="translate(-14.174,-80.313)">
	<path
   style="fill:#e4002b"
   d="m 40.627,344.883 h 343.941 c 14.608,0 26.454,-11.846 26.454,-26.459 V 106.771 c 0,-14.612 -11.846,-26.458 -26.454,-26.458 H 40.627 c -14.607,0 -26.453,11.846 -26.453,26.458 v 211.652 c 0,14.614 11.846,26.46 26.453,26.46 z"
   id="path2340"
   inkscape:connector-curvature="0" />
</g>
<g
   id="LWPOLYLINE_44_"
   transform="translate(-14.174,-80.313)">
	<path
   style="fill:#ffcd00"
   d="m 40.627,331.651 h 343.941 c 7.304,0 13.223,-5.919 13.223,-13.228 V 106.771 c 0,-7.304 -5.919,-13.23 -13.223,-13.23 H 40.627 c -7.304,0 -13.227,5.927 -13.227,13.23 v 211.652 c 0.001,7.309 5.924,13.228 13.227,13.228 z"
   id="path2343"
   inkscape:connector-curvature="0" />
</g>
<g
   id="LWPOLYLINE_47_"
   transform="translate(-14.174,-80.313)">
	<polygon
   style="fill:#101820"
   points="147.316,150.424 131.442,150.424 131.442,138.52 142.157,138.52 142.157,132.569 131.442,132.569 131.442,122.647 147.316,122.647 147.316,116.693 125.488,116.693 125.488,156.378 147.316,156.378 "
   id="polygon2346" />
</g>
<g
   id="LWPOLYLINE_48_"
   transform="translate(-14.174,-80.313)">
	<rect
   x="154.45599"
   y="126.614"
   style="fill:#101820"
   width="5.9549999"
   height="29.764"
   id="rect2349" />
</g>
<g
   id="LWPOLYLINE_49_"
   transform="translate(-14.174,-80.313)">
	<rect
   x="154.45599"
   y="116.693"
   style="fill:#101820"
   width="5.9549999"
   height="5.954"
   id="rect2352" />
</g>
<g
   id="LWPOLYLINE_50_"
   transform="translate(-14.174,-80.313)">
	<polygon
   style="fill:#101820"
   points="180.252,116.693 186.208,116.693 186.208,138.624 194.141,126.614 200.095,126.614 193.302,136.805 200.141,156.388 194.141,156.378 189.363,142.719 186.208,147.451 186.208,156.378 180.252,156.378 "
   id="polygon2355" />
</g>
<g
   id="LWPOLYLINE_51_"
   transform="translate(-14.174,-80.313)">
	<path
   style="fill:#101820"
   d="m 204.463,146.457 c 0,5.48 4.44,9.921 9.921,9.921 5.481,0 9.922,-4.44 9.922,-9.921 v -9.921 c 0,-5.48 -4.441,-9.922 -9.922,-9.922 -5.481,0 -9.921,4.441 -9.921,9.922 z"
   id="path2358"
   inkscape:connector-curvature="0" />
</g>
<g
   id="LWPOLYLINE_53_"
   transform="translate(-14.174,-80.313)">
	<path
   style="fill:#101820"
   d="m 229.859,146.457 c 0,5.48 4.441,9.921 9.922,9.921 h 0.793 c 4.824,0 8.736,-3.911 8.736,-8.73 0,-3.105 -1.65,-5.978 -4.341,-7.546 l -6.584,-3.84 c -0.61,-0.355 -0.984,-1.003 -0.984,-1.714 0,-1.095 0.894,-1.979 1.987,-1.979 h 1.186 c 1.095,0 1.988,0.884 1.988,1.979 h 5.954 c 0,-4.382 -3.556,-7.934 -7.942,-7.934 h -1.186 c -4.386,0 -7.942,3.552 -7.942,7.934 0,2.827 1.505,5.435 3.939,6.857 l 6.593,3.839 c 0.848,0.502 1.377,1.413 1.377,2.403 0,1.536 -1.24,2.776 -2.781,2.776 h -0.793 c -2.188,0 -3.967,-1.778 -3.967,-3.967 h -5.955 z"
   id="path2361"
   inkscape:connector-curvature="0" />
</g>
<g
   id="LWPOLYLINE_54_"
   transform="translate(-14.174,-80.313)">
	<polygon
   style="fill:#101820"
   points="256.058,116.693 262.003,116.693 262.003,138.624 269.946,126.614 275.9,126.614 269.097,136.805 275.937,156.388 269.946,156.378 265.158,142.719 262.003,147.451 262.003,156.378 256.058,156.378 "
   id="polygon2364" />
</g>
<g
   id="LWPOLYLINE_55_"
   transform="translate(-14.174,-80.313)">
	<path
   style="fill:#101820"
   d="m 293.754,146.457 h 5.955 c 0,5.48 -4.441,9.921 -9.921,9.921 -5.48,0 -9.922,-4.44 -9.922,-9.921 v -9.921 c 0,-5.48 4.441,-9.922 9.922,-9.922 5.479,0 9.921,4.441 9.921,9.922 v 5.553 h -13.888 v 4.368 c 0,2.188 1.769,3.967 3.967,3.967 2.188,0 3.966,-1.778 3.966,-3.967 z"
   id="path2367"
   inkscape:connector-curvature="0" />
</g>
<g
   id="LWPOLYLINE_57_"
   transform="translate(-14.174,-80.313)">
	<path
   style="fill:#101820"
   d="m 226.312,223.871 c -0.857,-0.943 -1.468,-2.083 -1.778,-3.319 -1.021,-4.099 1.478,-8.257 5.581,-9.278 h 36.895 c 1.249,0 2.262,1.013 2.262,2.257 v 4.783 c 8.899,-1.869 18.101,-1.814 26.982,0.15 2.143,0.848 3.492,2.978 3.355,5.275 -0.173,2.945 -2.699,5.188 -5.635,5.015 -24.411,-5.411 -49.306,6.826 -59.93,29.454 h 42.439 c 7.049,0 12.767,5.713 12.767,12.767 0,7.049 -5.718,12.762 -12.767,12.762 h -59.008 c -8.171,0 -15.703,-4.418 -19.688,-11.549 l -23.627,-42.284 -14.7,33.899 c 1.961,2.307 3.037,5.248 3.019,8.275 -0.036,6.989 -5.727,12.625 -12.721,12.588 -6.984,-0.036 -12.618,-5.73 -12.581,-12.721 0.036,-6.989 5.733,-12.625 12.718,-12.584 l 32.801,-75.627 h 18.092 c 1.44,0.58 2.58,1.724 3.155,3.165 1.167,2.908 -0.246,6.21 -3.155,7.377 h -11.18 l -6.365,14.677 19.269,35.846 c 4.021,7.564 11.571,12.607 20.098,13.409 3.146,-8.279 7.97,-15.821 14.18,-22.136 l -10.787,-12.57 z"
   id="path2370"
   inkscape:connector-curvature="0" />
</g>
<g
   id="LWPOLYLINE_58_"
   transform="translate(-14.174,-80.313)">
	<path
   style="fill:#101820"
   d="m 159.626,191.723 v 21.562 c 5.954,-0.128 10.678,-5.061 10.541,-11.016 -0.118,-5.772 -4.769,-10.418 -10.541,-10.546 z"
   id="path2373"
   inkscape:connector-curvature="0" />
</g>
<g
   id="LWPOLYLINE_59_"
   transform="translate(-14.174,-80.313)">
	<path
   style="fill:#101820"
   d="m 242.945,288.761 h 14.436 c 9.246,9.935 24.803,10.486 34.733,1.235 9.93,-9.246 10.486,-24.794 1.239,-34.733 -8.918,-9.565 -23.763,-10.481 -33.775,-2.079 h -15.466 c 3.483,-5.786 8.508,-10.491 14.508,-13.587 17.9,-9.256 39.913,-2.234 49.169,15.666 9.246,17.909 2.225,39.922 -15.675,49.169 -17.91,9.251 -39.923,2.234 -49.169,-15.671 z"
   id="path2376"
   inkscape:connector-curvature="0" />
</g>
<g
   id="LWPOLYLINE_60_"
   transform="translate(-14.174,-80.313)">
	<path
   style="fill:#101820"
   d="m 168.371,255.883 5.07,-11.69 c 9.456,8.024 14.198,20.313 12.565,32.613 -2.644,19.976 -20.991,34.027 -40.971,31.383 -19.977,-2.645 -34.024,-20.987 -31.38,-40.966 2.649,-19.979 20.987,-34.027 40.964,-31.383 l -5.024,11.599 c -13.575,0.133 -24.473,11.244 -24.34,24.813 0.132,13.573 11.243,24.466 24.814,24.338 13.568,-0.137 24.466,-11.243 24.338,-24.812 -0.054,-5.85 -2.197,-11.486 -6.036,-15.895 z"
   id="path2379"
   inkscape:connector-curvature="0" />
</g>
<g
   id="LWPOLYLINE_52_"
   transform="translate(-14.174,-80.313)">
	<path
   style="fill:#ffcd00"
   d="m 210.417,146.457 c 0,2.188 1.778,3.967 3.967,3.967 2.189,0 3.967,-1.778 3.967,-3.967 v -9.921 c 0,-2.193 -1.777,-3.967 -3.967,-3.967 -2.188,0 -3.967,1.773 -3.967,3.967 z"
   id="path2382"
   inkscape:connector-curvature="0" />
</g>
<g
   id="LWPOLYLINE_56_"
   transform="translate(-14.174,-80.313)">
	<path
   style="fill:#ffcd00"
   d="m 285.822,136.933 h 7.933 v -0.396 c 0,-2.193 -1.778,-3.967 -3.966,-3.967 -2.198,0 -3.967,1.773 -3.967,3.967 z"
   id="path2385"
   inkscape:connector-curvature="0" />
</g>
</svg>