<?xml version="1.0" encoding="UTF-8" standalone="no"?>
<!-- Generator: Adobe Illustrator 16.0.0, SVG Export Plug-In . SVG Version: 6.00 Build 0)  -->

<svg
   xmlns:dc="http://purl.org/dc/elements/1.1/"
   xmlns:cc="http://creativecommons.org/ns#"
   xmlns:rdf="http://www.w3.org/1999/02/22-rdf-syntax-ns#"
   xmlns:svg="http://www.w3.org/2000/svg"
   xmlns="http://www.w3.org/2000/svg"
   xmlns:sodipodi="http://sodipodi.sourceforge.net/DTD/sodipodi-0.dtd"
   xmlns:inkscape="http://www.inkscape.org/namespaces/inkscape"
   version="1.1"
   id="Layer_1"
   x="0px"
   y="0px"
   width="396.84698"
   height="396.858"
   viewBox="0 0 396.84699 396.85799"
   xml:space="preserve"
   sodipodi:docname="H12.10_3.svg"
   inkscape:version="0.92.5 (2060ec1f9f, 2020-04-08)"><metadata
   id="metadata356"><rdf:RDF><cc:Work
       rdf:about=""><dc:format>image/svg+xml</dc:format><dc:type
         rdf:resource="http://purl.org/dc/dcmitype/StillImage" /></cc:Work></rdf:RDF></metadata><defs
   id="defs354" /><sodipodi:namedview
   pagecolor="#ffffff"
   bordercolor="#666666"
   borderopacity="1"
   objecttolerance="10"
   gridtolerance="10"
   guidetolerance="10"
   inkscape:pageopacity="0"
   inkscape:pageshadow="2"
   inkscape:window-width="640"
   inkscape:window-height="480"
   id="namedview352"
   showgrid="false"
   inkscape:zoom="0.55503813"
   inkscape:cx="198.4235"
   inkscape:cy="198.42899"
   inkscape:window-x="0"
   inkscape:window-y="0"
   inkscape:window-maximized="0"
   inkscape:current-layer="Layer_1" />
<g
   id="LWPOLYLINE_19_"
   transform="translate(-14.175,-14.169)">
	<rect
   x="14.175"
   y="14.169"
   style="fill:#ffcd00"
   width="396.84698"
   height="396.858"
   id="rect294" />
</g>
<g
   id="LWPOLYLINE_20_"
   transform="translate(-14.175,-14.169)">
	<path
   style="fill:#e4002b"
   d="M 411.022,373.821 V 51.374 c 0,-20.551 -16.646,-37.205 -37.205,-37.205 H 51.38 c -20.552,0 -37.205,16.654 -37.205,37.205 v 322.447 c 0,20.545 16.653,37.206 37.205,37.206 h 322.437 c 20.558,0 37.205,-16.661 37.205,-37.206 z"
   id="path297"
   inkscape:connector-curvature="0" />
</g>
<g
   id="LWPOLYLINE_21_"
   transform="translate(-14.175,-14.169)">
	<path
   style="fill:#ffcd00"
   d="M 391.189,373.821 V 51.374 c 0,-9.588 -7.783,-17.364 -17.372,-17.364 H 51.38 c -9.589,0 -17.364,7.776 -17.364,17.364 v 322.447 c 0,9.589 7.775,17.358 17.364,17.358 h 322.437 c 9.589,0.001 17.372,-7.769 17.372,-17.358 z"
   id="path300"
   inkscape:connector-curvature="0" />
</g>
<g
   id="LWPOLYLINE_22_"
   transform="translate(-14.175,-14.169)">
	<polygon
   style="fill:#101820"
   points="114.68,139.183 90.863,139.183 90.863,121.318 106.938,121.318 106.938,112.394 90.863,112.394 90.863,97.512 114.68,97.512 114.68,88.58 81.938,88.58 81.938,148.108 114.68,148.108 "
   id="polygon303" />
</g>
<g
   id="LWPOLYLINE_23_"
   transform="translate(-14.175,-14.169)">
	<rect
   x="125.39"
   y="103.462"
   style="fill:#101820"
   width="8.9329996"
   height="44.646"
   id="rect306" />
</g>
<g
   id="LWPOLYLINE_24_"
   transform="translate(-14.175,-14.169)">
	<rect
   x="125.39"
   y="88.580002"
   style="fill:#101820"
   width="8.9329996"
   height="8.9320002"
   id="rect309" />
</g>
<g
   id="LWPOLYLINE_25_"
   transform="translate(-14.175,-14.169)">
	<polygon
   style="fill:#101820"
   points="164.086,88.58 173.019,88.58 173.019,121.47 184.918,103.462 193.851,103.462 183.661,118.747 193.906,148.122 184.918,148.108 177.751,127.611 173.019,134.717 173.019,148.108 164.086,148.108 "
   id="polygon312" />
</g>
<g
   id="LWPOLYLINE_26_"
   transform="translate(-14.175,-14.169)">
	<path
   style="fill:#101820"
   d="m 200.403,133.226 c 0,8.221 6.661,14.883 14.882,14.883 8.207,0 14.883,-6.662 14.883,-14.883 v -14.882 c 0,-8.214 -6.676,-14.882 -14.883,-14.882 -8.221,0 -14.882,6.668 -14.882,14.882 z"
   id="path315"
   inkscape:connector-curvature="0" />
</g>
<g
   id="LWPOLYLINE_28_"
   transform="translate(-14.175,-14.169)">
	<path
   style="fill:#101820"
   d="m 238.498,133.226 c 0,8.221 6.661,14.883 14.882,14.883 h 1.189 c 7.236,0 13.091,-5.861 13.091,-13.098 0,-4.657 -2.477,-8.966 -6.497,-11.312 l -9.876,-5.759 c -0.917,-0.533 -1.478,-1.512 -1.478,-2.571 0,-1.642 1.327,-2.976 2.968,-2.976 h 1.792 c 1.642,0 2.982,1.334 2.982,2.976 h 8.918 c 0,-6.58 -5.32,-11.907 -11.9,-11.907 h -1.792 c -6.565,0 -11.899,5.327 -11.899,11.907 0,4.24 2.257,8.152 5.909,10.286 l 9.875,5.758 c 1.286,0.746 2.079,2.12 2.079,3.598 0,2.305 -1.874,4.172 -4.172,4.172 h -1.189 c -3.283,0 -5.95,-2.667 -5.95,-5.957 z"
   id="path318"
   inkscape:connector-curvature="0" />
</g>
<g
   id="LWPOLYLINE_29_"
   transform="translate(-14.175,-14.169)">
	<polygon
   style="fill:#101820"
   points="277.782,88.58 286.713,88.58 286.713,121.47 298.614,103.462 307.545,103.462 297.355,118.747 307.614,148.122 298.614,148.108 291.446,127.611 286.713,134.717 286.713,148.108 277.782,148.108 "
   id="polygon321" />
</g>
<g
   id="LWPOLYLINE_30_"
   transform="translate(-14.175,-14.169)">
	<path
   style="fill:#101820"
   d="m 334.341,133.226 h 8.918 c 0,8.221 -6.661,14.883 -14.882,14.883 -8.207,0 -14.882,-6.662 -14.882,-14.883 v -14.882 c 0,-8.214 6.675,-14.882 14.882,-14.882 8.221,0 14.882,6.668 14.882,14.882 v 8.337 h -20.832 v 6.545 c 0,3.29 2.668,5.957 5.95,5.957 3.297,0 5.964,-2.667 5.964,-5.957 z"
   id="path324"
   inkscape:connector-curvature="0" />
</g>
<g
   id="LWPOLYLINE_35_"
   transform="translate(-14.175,-14.169)">
	<path
   style="fill:#101820"
   d="m 250.63,235.984 11.093,15.84 c 4.254,-2.517 8.891,-4.322 13.733,-5.348 24.621,-5.226 48.804,10.505 54.029,35.126 5.211,24.614 -10.505,48.804 -35.126,54.022 -24.621,5.218 -48.805,-10.505 -54.03,-35.119 h -15.935 c -3.666,0 -7.168,-1.546 -9.63,-4.261 l -53.619,-57.169 -3.064,10.026 c 19.643,8.33 30.872,29.169 27.028,50.158 -4.527,24.751 -28.272,41.145 -53.03,36.61 -24.744,-4.534 -41.142,-28.28 -36.601,-53.031 4.528,-24.751 28.271,-41.145 53.028,-36.61 l 13.008,-42.696 c 1.956,-6.402 7.865,-10.779 14.554,-10.779 h 17.563 v 9.999 h -17.563 c -2.284,0 -4.322,1.498 -4.979,3.7 l -3.652,11.955 74.273,12.844 7.66,-20.695 -16.879,-4.63 c -1.013,-0.39 -1.669,-1.389 -1.601,-2.476 0.068,-1.375 1.244,-2.429 2.626,-2.354 h 1.327 36.48 v 9.855 h -11.449 z"
   id="path327"
   inkscape:connector-curvature="0" />
</g>
<g
   id="LWPOLYLINE_27_"
   transform="translate(-14.175,-14.169)">
	<path
   style="fill:#ffcd00"
   d="m 209.321,133.226 c 0,3.29 2.668,5.957 5.964,5.957 3.283,0 5.95,-2.667 5.95,-5.957 v -14.882 c 0,-3.29 -2.667,-5.95 -5.95,-5.95 -3.296,0 -5.964,2.66 -5.964,5.95 z"
   id="path330"
   inkscape:connector-curvature="0" />
</g>
<g
   id="LWPOLYLINE_31_"
   transform="translate(-14.175,-14.169)">
	<path
   style="fill:#ffcd00"
   d="m 322.427,118.938 h 11.914 v -0.595 c 0,-3.29 -2.667,-5.95 -5.964,-5.95 -3.282,0 -5.95,2.66 -5.95,5.95 z"
   id="path333"
   inkscape:connector-curvature="0" />
</g>
<g
   id="LWPOLYLINE_32_"
   transform="translate(-14.175,-14.169)">
	<path
   style="fill:#ffcd00"
   d="m 164.51,228.045 73.672,12.748 -17.439,47.17 c 0,0 -56.246,-59.926 -56.233,-59.918 z"
   id="path336"
   inkscape:connector-curvature="0" />
</g>
<g
   id="LWPOLYLINE_33_"
   transform="translate(-14.175,-14.169)">
	<path
   style="fill:#ffcd00"
   d="m 259.535,266.125 c -6.401,6.518 -10.054,15.244 -10.19,24.382 h 27.261 z"
   id="path339"
   inkscape:connector-curvature="0" />
</g>
<g
   id="LWPOLYLINE_34_"
   transform="translate(-14.175,-14.169)">
	<path
   style="fill:#ffcd00"
   d="m 239.345,290.507 c 0.15,-12.393 5.335,-24.197 14.376,-32.678 l -7.318,-10.437 -15.935,43.114 h 8.945 -0.068 z"
   id="path342"
   inkscape:connector-curvature="0" />
</g>
<g
   id="LWPOLYLINE_36_"
   transform="translate(-14.175,-14.169)">
	<path
   style="fill:#ffcd00"
   d="m 288.628,290.24 c 0.766,1.094 1.176,2.4 1.176,3.741 0,3.597 -2.913,6.524 -6.511,6.524 h -32.677 c 5.225,18.931 24.799,30.051 43.743,24.833 18.931,-5.219 30.051,-24.806 24.84,-43.736 -5.226,-18.945 -24.813,-30.065 -43.743,-24.841 -2.791,0.767 -5.458,1.867 -7.975,3.283 z"
   id="path345"
   inkscape:connector-curvature="0" />
</g>
<g
   id="LWPOLYLINE_37_"
   transform="translate(-14.175,-14.169)">
	<path
   style="fill:#ffcd00"
   d="m 155.155,258.732 -9.999,32.8 c -0.068,0.302 -0.15,0.589 -0.273,0.862 -1.04,2.571 -3.967,3.803 -6.538,2.763 -2.559,-1.039 -3.803,-3.967 -2.764,-6.538 l 9.985,-32.746 c -19.423,-2.913 -37.533,10.478 -40.446,29.908 -2.91,19.423 10.478,37.533 29.9,40.439 19.438,2.914 37.533,-10.478 40.447,-29.9 2.353,-15.655 -5.936,-30.981 -20.312,-37.588 z"
   id="path348"
   inkscape:connector-curvature="0" />
</g>
</svg>