<?xml version="1.0" encoding="iso-8859-1"?>
<!-- Generator: Adobe Illustrator 16.0.0, SVG Export Plug-In . SVG Version: 6.00 Build 0)  -->
<!DOCTYPE svg PUBLIC "-//W3C//DTD SVG 1.1//EN" "http://www.w3.org/Graphics/SVG/1.1/DTD/svg11.dtd">
<svg version="1.1" id="Layer_1" xmlns="http://www.w3.org/2000/svg" xmlns:xlink="http://www.w3.org/1999/xlink" x="0px" y="0px"
	 width="425.197px" height="425.196px" viewBox="0 0 425.197 425.196" style="enable-background:new 0 0 425.197 425.196;"
	 xml:space="preserve">
<g id="LWPOLYLINE_28_">
	<rect x="14.172" y="113.385" style="fill:#FFCD00;" width="396.853" height="198.427"/>
</g>
<g id="LWPOLYLINE_40_">
	<path style="fill:#E4002B;" d="M391.177,113.385H34.013c-10.956,0-19.84,8.884-19.84,19.844v158.739
		c0,10.96,8.884,19.844,19.84,19.844h357.165c10.963,0,19.848-8.884,19.848-19.844V133.229
		C411.025,122.269,402.14,113.385,391.177,113.385z"/>
</g>
<g id="LWPOLYLINE_39_">
	<path style="fill:#FFCD00;" d="M391.177,123.305H34.013c-5.478,0-9.92,4.446-9.92,9.924v158.739c0,5.481,4.442,9.92,9.92,9.92
		h357.165c5.484,0,9.924-4.438,9.924-9.92V133.229C401.101,127.75,396.662,123.305,391.177,123.305z"/>
</g>
<g id="LWPOLYLINE_29_">
	<polygon style="fill:#101820;" points="46.416,227.479 62.785,227.479 62.785,223.016 50.881,223.016 50.881,214.088 
		58.917,214.088 58.917,209.621 50.881,209.621 50.881,202.181 62.785,202.181 62.785,197.715 46.416,197.715 	"/>
</g>
<g id="LWPOLYLINE_30_">
	<rect x="68.144" y="205.155" style="fill:#101820;" width="4.466" height="22.323"/>
</g>
<g id="LWPOLYLINE_31_">
	<rect x="68.144" y="197.715" style="fill:#101820;" width="4.466" height="4.466"/>
</g>
<g id="LWPOLYLINE_32_">
	<polygon style="fill:#101820;" points="91.954,227.479 87.491,227.479 87.491,197.715 91.954,197.715 91.954,214.162 
		97.907,205.155 102.373,205.155 97.274,212.802 102.4,227.485 97.907,227.479 94.32,217.233 91.954,220.783 	"/>
</g>
<g id="LWPOLYLINE_33_">
	<path style="fill:#101820;" d="M105.646,220.037c0,4.11,3.331,7.441,7.441,7.441s7.441-3.331,7.441-7.441v-7.44
		c0-4.11-3.331-7.441-7.441-7.441s-7.441,3.331-7.441,7.441V220.037z"/>
</g>
<g id="LWPOLYLINE_35_">
	<path style="fill:#101820;" d="M124.696,220.037c0,4.11,3.331,7.441,7.441,7.441h0.595c3.615,0,6.549-2.931,6.549-6.545
		c0-2.332-1.238-4.486-3.252-5.659l-4.941-2.88c-0.455-0.263-0.739-0.756-0.739-1.285c0-0.821,0.667-1.488,1.491-1.488h0.892
		c0.821,0,1.488,0.667,1.488,1.488h4.462c0-3.287-2.664-5.954-5.95-5.954h-0.892c-3.29,0-5.954,2.667-5.954,5.954
		c0,2.116,1.125,4.079,2.955,5.143l4.938,2.879c0.643,0.373,1.036,1.061,1.036,1.803c0,1.148-0.934,2.082-2.083,2.082h-0.595
		c-1.645,0-2.979-1.333-2.979-2.979H124.696z"/>
</g>
<g id="LWPOLYLINE_36_">
	<polygon style="fill:#101820;" points="148.804,227.479 144.338,227.479 144.338,197.715 148.804,197.715 148.804,214.162 
		154.757,205.155 159.22,205.155 154.125,212.802 159.251,227.485 154.757,227.479 151.17,217.233 148.804,220.783 	"/>
</g>
<g id="LWPOLYLINE_37_">
	<path style="fill:#101820;" d="M172.613,220.037h4.466c0,4.11-3.331,7.441-7.441,7.441s-7.441-3.331-7.441-7.441v-7.44
		c0-4.11,3.331-7.441,7.441-7.441s7.441,3.331,7.441,7.441v4.168h-10.416v3.272c0,1.646,1.333,2.979,2.975,2.979
		S172.613,221.683,172.613,220.037z"/>
</g>
<g id="LWPOLYLINE_44_">
	<path style="fill:#101820;" d="M323.71,192.804l7.652,10.923c2.934-1.734,6.135-2.982,9.473-3.687
		c16.98-3.601,33.662,7.242,37.26,24.221c3.604,16.978-7.244,33.658-24.225,37.26c-16.975,3.601-33.656-7.246-37.26-24.221h-10.984
		c-2.529,0-4.943-1.067-6.646-2.935L262,194.931l-2.105,6.918c13.549,5.745,21.289,20.121,18.643,34.596
		c-3.131,17.07-19.504,28.372-36.574,25.247c-17.072-3.129-28.376-19.502-25.25-36.572c3.131-17.07,19.504-28.376,36.574-25.25
		l8.973-29.443c1.348-4.418,5.424-7.434,10.041-7.434h12.105v6.894H272.3c-1.588,0-2.982,1.036-3.441,2.551l-2.516,8.244
		l51.225,8.86l5.279-14.273l-11.639-3.194c-0.705-0.267-1.15-0.957-1.109-1.706c0.055-0.951,0.869-1.679,1.82-1.624h0.908h25.162
		v6.802h-7.893L323.71,192.804z"/>
</g>
<g id="LWPOLYLINE_34_">
	<path style="fill:#FFCD00;" d="M110.112,220.037c0,1.646,1.33,2.979,2.975,2.979c1.645,0,2.975-1.333,2.975-2.979v-7.44
		c0-1.642-1.33-2.976-2.975-2.976c-1.645,0-2.975,1.334-2.975,2.976V220.037z"/>
</g>
<g id="LWPOLYLINE_38_">
	<path style="fill:#FFCD00;" d="M166.663,212.897h5.95v-0.301c0-1.642-1.333-2.976-2.975-2.976s-2.975,1.334-2.975,2.976V212.897z"
		/>
</g>
<g id="LWPOLYLINE_41_">
	<polygon style="fill:#FFCD00;" points="264.318,187.329 315.132,196.121 303.103,228.654 	"/>
</g>
<g id="LWPOLYLINE_42_">
	<path style="fill:#FFCD00;" d="M329.857,213.592c-4.418,4.496-6.934,10.515-7.029,16.811h18.807L329.857,213.592z"/>
</g>
<g id="LWPOLYLINE_43_">
	<path style="fill:#FFCD00;" d="M315.933,230.402c0.104-8.546,3.68-16.685,9.91-22.531l-5.041-7.198l-10.996,29.729h6.176H315.933z"
		/>
</g>
<g id="LWPOLYLINE_45_">
	<path style="fill:#FFCD00;" d="M349.923,230.221c0.527,0.756,0.814,1.655,0.814,2.578c0,2.486-2.012,4.501-4.5,4.501H323.71
		c3.596,13.059,17.104,20.729,30.16,17.125c13.063-3.598,20.729-17.104,17.131-30.164c-3.604-13.06-17.104-20.727-30.166-17.129
		c-1.916,0.53-3.762,1.293-5.5,2.264L349.923,230.221z"/>
</g>
<g id="LWPOLYLINE_46_">
	<path style="fill:#FFCD00;" d="M257.869,208.493l-6.9,22.624c-0.041,0.201-0.102,0.399-0.178,0.588
		c-0.719,1.774-2.736,2.626-4.506,1.908c-1.771-0.719-2.627-2.736-1.908-4.507l6.879-22.583
		c-13.391-2.011-25.879,7.226-27.889,20.62c-2.004,13.397,7.229,25.886,20.627,27.896c13.396,2.004,25.885-7.229,27.889-20.627
		C273.503,223.618,267.787,213.051,257.869,208.493z"/>
</g>
</svg>
