<?xml version="1.0" encoding="iso-8859-1"?>
<!-- Generator: Adobe Illustrator 16.0.0, SVG Export Plug-In . SVG Version: 6.00 Build 0)  -->
<!DOCTYPE svg PUBLIC "-//W3C//DTD SVG 1.1//EN" "http://www.w3.org/Graphics/SVG/1.1/DTD/svg11.dtd">
<svg version="1.1" id="Layer_1" xmlns="http://www.w3.org/2000/svg" xmlns:xlink="http://www.w3.org/1999/xlink" x="0px" y="0px"
	 width="425.197px" height="425.196px" viewBox="0 0 425.197 425.196" style="enable-background:new 0 0 425.197 425.196;"
	 xml:space="preserve">
<g id="LWPOLYLINE_84_">
	<rect x="14.174" y="80.313" style="fill:#FFCD00;" width="396.849" height="264.569"/>
</g>
<g id="LWPOLYLINE_82_">
	<path style="fill:#E4002B;" d="M40.627,344.883h343.94c14.609,0,26.455-11.846,26.455-26.459V106.772
		c0-14.613-11.846-26.459-26.455-26.459H40.627c-14.608,0-26.454,11.846-26.454,26.459v211.651
		C14.174,333.037,26.019,344.883,40.627,344.883z"/>
</g>
<g id="LWPOLYLINE_83_">
	<path style="fill:#FFCD00;" d="M40.627,331.651h343.94c7.305,0,13.223-5.919,13.223-13.228V106.772
		c0-7.305-5.918-13.231-13.223-13.231H40.627c-7.304,0-13.227,5.927-13.227,13.231v211.651
		C27.401,325.732,33.323,331.651,40.627,331.651z"/>
</g>
<g id="LWPOLYLINE_87_">
	<path style="fill:#101820;" d="M269.654,239.205l-112.326-0.055c-2.809-12.63-15.329-20.591-27.958-17.773
		c-8.864,1.97-15.785,8.892-17.764,17.746l-12.158-0.005c-1.44,0-2.612-1.172-2.608-2.612l0.009-19.742
		c0.004-7.213,5.854-13.059,13.061-13.054l44.363,0.022c0.693,0,1.359-0.273,1.842-0.766l33.412-33.371
		c0.492-0.487,1.158-0.766,1.842-0.766l91.297,0.046c0.584,0,1.148,0.196,1.605,0.552l43.068,33.607
		c0.639,0.497,1.012,1.254,1.012,2.056l-0.018,31.533c0,1.44-1.168,2.608-2.617,2.608l-10.332-0.005
		c-2.818-12.63-15.328-20.586-27.959-17.772C278.562,223.429,271.642,230.341,269.654,239.205z"/>
</g>
<g id="LWPOLYLINE_90_">
	<polygon style="fill:#101820;" points="125.485,149.763 147.315,149.763 147.315,143.813 131.439,143.813 131.439,131.903 
		142.154,131.903 142.154,125.953 131.439,125.953 131.439,116.032 147.315,116.032 147.315,110.077 125.485,110.077 	"/>
</g>
<g id="LWPOLYLINE_91_">
	<rect x="154.455" y="119.999" style="fill:#101820;" width="5.955" height="29.764"/>
</g>
<g id="LWPOLYLINE_92_">
	<rect x="154.455" y="110.077" style="fill:#101820;" width="5.955" height="5.955"/>
</g>
<g id="LWPOLYLINE_93_">
	<polygon style="fill:#101820;" points="186.207,149.763 180.252,149.763 180.252,110.077 186.207,110.077 186.207,132.004 
		194.141,119.999 200.095,119.999 193.302,130.189 200.141,149.771 194.141,149.763 189.362,136.098 186.207,140.835 	"/>
</g>
<g id="LWPOLYLINE_94_">
	<path style="fill:#101820;" d="M204.463,139.842c0,5.479,4.44,9.921,9.921,9.921c5.48,0,9.922-4.441,9.922-9.921v-9.922
		c0-5.476-4.441-9.921-9.922-9.921c-5.481,0-9.921,4.445-9.921,9.921V139.842z"/>
</g>
<g id="LWPOLYLINE_96_">
	<path style="fill:#101820;" d="M229.859,139.842c0,5.479,4.441,9.921,9.922,9.921h0.793c4.824,0,8.736-3.907,8.736-8.731
		c0-3.104-1.652-5.978-4.342-7.541l-6.584-3.839c-0.611-0.355-0.984-1.008-0.984-1.715c0-1.094,0.895-1.983,1.988-1.983h1.186
		c1.094,0,1.988,0.89,1.988,1.983h5.953c0-4.386-3.555-7.938-7.941-7.938h-1.186c-4.387,0-7.943,3.552-7.943,7.938
		c0,2.827,1.506,5.435,3.939,6.857l6.594,3.839c0.848,0.497,1.377,1.414,1.377,2.398c0,1.536-1.24,2.781-2.781,2.781h-0.793
		c-2.189,0-3.967-1.778-3.967-3.971H229.859z"/>
</g>
<g id="LWPOLYLINE_97_">
	<polygon style="fill:#101820;" points="262.003,149.763 256.056,149.763 256.056,110.077 262.003,110.077 262.003,132.004 
		269.945,119.999 275.9,119.999 269.097,130.189 275.937,149.771 269.945,149.763 265.158,136.098 262.003,140.835 	"/>
</g>
<g id="LWPOLYLINE_98_">
	<path style="fill:#101820;" d="M293.753,139.842h5.955c0,5.479-4.441,9.921-9.922,9.921c-5.479,0-9.92-4.441-9.92-9.921v-9.922
		c0-5.476,4.441-9.921,9.92-9.921c5.48,0,9.922,4.445,9.922,9.921v5.558h-13.887v4.364c0,2.192,1.768,3.971,3.965,3.971
		C291.976,143.813,293.753,142.034,293.753,139.842z"/>
</g>
<g id="LWPOLYLINE_100_">
	<path style="fill:#101820;" d="M145.327,315.119h3.976v-21.831H136.4v5.955h6.949v2.781v0.195c0,3.835-3.109,6.944-6.949,6.944
		c-3.83,0-6.939-3.109-6.939-6.944v-13.892c0-3.83,3.11-6.939,6.939-6.939c3.839,0,6.949,3.109,6.949,6.939h5.955
		c0-7.122-5.781-12.895-12.903-12.895c-7.122,0-12.894,5.772-12.894,12.895v13.892c0,7.108,5.772,12.862,12.876,12.858
		c2.635-0.005,5.207-0.816,7.368-2.33L145.327,315.119z"/>
</g>
<g id="LWPOLYLINE_101_">
	<rect x="168.745" y="275.434" style="fill:#101820;" width="5.955" height="5.955"/>
</g>
<g id="LWPOLYLINE_102_">
	<rect x="158.03" y="275.434" style="fill:#101820;" width="5.955" height="5.955"/>
</g>
<g id="LWPOLYLINE_103_">
	<path style="fill:#101820;" d="M175.492,315.119h-5.954v-1.906c-2.39,1.29-5.07,1.947-7.788,1.906
		c-2.444,0.063-4.642-1.478-5.417-3.794c-0.967-3.046-0.155-6.374,2.106-8.626c2.899-3.114,6.857-5.016,11.098-5.335v-3.082
		c0-1.642-1.332-2.973-2.973-2.973c-1.641,0-2.982,1.331-2.982,2.973h-5.945c0-4.934,3.994-8.928,8.927-8.928
		c4.934,0,8.927,3.994,8.927,8.928V315.119z"/>
</g>
<g id="LWPOLYLINE_105_">
	<rect x="182.632" y="275.434" style="fill:#101820;" width="5.955" height="39.686"/>
</g>
<g id="LWPOLYLINE_106_">
	<rect x="196.529" y="275.434" style="fill:#101820;" width="5.945" height="39.686"/>
</g>
<g id="LWPOLYLINE_107_">
	<path style="fill:#101820;" d="M223.111,305.197h5.955c0,5.48-4.441,9.922-9.922,9.922c-5.48,0-9.921-4.441-9.921-9.922v-9.921
		c0-5.48,4.441-9.922,9.921-9.922c5.48,0,9.922,4.441,9.922,9.922v5.553h-13.889v4.368c0,2.188,1.779,3.967,3.967,3.967
		C221.341,309.164,223.111,307.386,223.111,305.197z"/>
</g>
<g id="LWPOLYLINE_109_">
	<path style="fill:#101820;" d="M242.16,294.482v20.637h-5.945v-29.765h5.945v1.592c2.098-1.044,4.404-1.592,6.748-1.592v6.292
		c-1.559-1.531-4.076-1.509-5.607,0.055C242.57,292.444,242.16,293.443,242.16,294.482z"/>
</g>
<g id="LWPOLYLINE_110_">
	<path style="fill:#101820;" d="M282.638,305.197h5.955c0,5.48-4.441,9.922-9.922,9.922s-9.922-4.441-9.922-9.922v-9.921
		c0-5.48,4.441-9.922,9.922-9.922s9.922,4.441,9.922,9.922v5.553h-13.889v4.368c0,2.188,1.779,3.967,3.967,3.967
		C280.869,309.164,282.638,307.386,282.638,305.197z"/>
</g>
<g id="LWPOLYLINE_112_">
	<path style="fill:#101820;" d="M301.687,288.66v28.971c0,4.819-3.902,8.731-8.727,8.731h-0.793l0.793-5.955
		c1.533,0,2.781-1.24,2.781-2.776V288.66H301.687z"/>
</g>
<g id="LWPOLYLINE_113_">
	<rect x="295.742" y="275.434" style="fill:#101820;" width="5.945" height="5.955"/>
</g>
<g id="LWPOLYLINE_88_">
	<path style="fill:#FFCD00;" d="M198.444,177.666l31.944,0.023c1.439,0,2.607,1.167,2.607,2.604l0.092,23.412
		c0,1.45-1.178,2.617-2.617,2.617l-53.71-0.036c-0.656,0-1.286-0.247-1.769-0.693c-1.058-0.98-1.122-2.636-0.146-3.693
		l21.685-23.398C197.021,177.972,197.715,177.666,198.444,177.666"/>
</g>
<g id="LWPOLYLINE_89_">
	<path style="fill:#FFCD00;" d="M292.294,206.35l-47.289-0.036c-1.432,0-2.6-1.163-2.607-2.6l-0.092-23.407
		c0.01-1.459,1.176-2.627,2.617-2.627l29.125,0.027c0.813,0,1.568,0.369,2.061,1.004l18.248,23.421
		c0.363,0.461,0.555,1.026,0.555,1.605C294.912,205.183,293.736,206.35,292.294,206.35"/>
</g>
<g id="LWPOLYLINE_95_">
	<path style="fill:#FFCD00;" d="M210.417,139.842c0,2.192,1.778,3.971,3.967,3.971c2.188,0,3.967-1.778,3.967-3.971v-9.922
		c0-2.193-1.779-3.967-3.967-3.967c-2.189,0-3.967,1.773-3.967,3.967V139.842z"/>
</g>
<g id="LWPOLYLINE_99_">
	<path style="fill:#FFCD00;" d="M285.822,130.316h7.932v-0.396c0-2.193-1.777-3.967-3.967-3.967c-2.197,0-3.965,1.773-3.965,3.967
		V130.316z"/>
</g>
<g id="LWPOLYLINE_104_">
	<path style="fill:#FFCD00;" d="M169.538,301.249c-1.988,0.474-3.83,1.418-5.38,2.749c-1.386,1.223-2.179,2.991-2.152,4.842
		c0.027,1.204,1.021,2.157,2.225,2.135c0.101-0.005,0.201-0.014,0.301-0.027c1.75-0.283,3.447-0.862,5.006-1.701V301.249z"/>
</g>
<g id="LWPOLYLINE_108_">
	<path style="fill:#FFCD00;" d="M215.177,295.673h7.934v-0.396c0-2.193-1.77-3.967-3.967-3.967c-2.188,0-3.967,1.773-3.967,3.967
		V295.673z"/>
</g>
<g id="LWPOLYLINE_111_">
	<path style="fill:#FFCD00;" d="M274.705,295.673h7.934v-0.396c0-2.193-1.77-3.967-3.967-3.967c-2.188,0-3.967,1.773-3.967,3.967
		V295.673z"/>
</g>
<g id="CIRCLE_2_">
	<path style="fill:#101820;" d="M310.188,245.21c0-9.76-7.912-17.672-17.667-17.672c-9.763,0-17.676,7.912-17.676,17.672
		c0,9.763,7.913,17.675,17.676,17.675C302.276,262.885,310.188,254.973,310.188,245.21L310.188,245.21z"/>
</g>
<g id="CIRCLE_3_">
	<path style="fill:#101820;" d="M152.137,245.21c0-9.76-7.913-17.672-17.672-17.672s-17.671,7.912-17.671,17.672
		c0,9.763,7.912,17.675,17.671,17.675S152.137,254.973,152.137,245.21L152.137,245.21z"/>
</g>
<g id="LWPOLYLINE_75_">
	<path style="fill:none;stroke:#00FFFF;stroke-width:0.7087;stroke-linecap:round;stroke-linejoin:round;stroke-miterlimit:10;" d="
		M285.819,130.316h7.936v-0.396c0-2.193-1.782-3.968-3.968-3.968c-2.193,0-3.968,1.774-3.968,3.968V130.316z"/>
</g>
</svg>
