<?xml version="1.0" encoding="iso-8859-1"?>
<!-- Generator: Adobe Illustrator 16.0.0, SVG Export Plug-In . SVG Version: 6.00 Build 0)  -->
<!DOCTYPE svg PUBLIC "-//W3C//DTD SVG 1.1//EN" "http://www.w3.org/Graphics/SVG/1.1/DTD/svg11.dtd">
<svg version="1.1" id="Layer_1" xmlns="http://www.w3.org/2000/svg" xmlns:xlink="http://www.w3.org/1999/xlink" x="0px" y="0px"
	 width="425.197px" height="425.196px" viewBox="0 0 425.197 425.196" style="enable-background:new 0 0 425.197 425.196;"
	 xml:space="preserve">
<g id="LWPOLYLINE_2_">
	<rect x="14.174" y="113.385" style="fill:#FFCD00;" width="396.849" height="198.426"/>
</g>
<g id="LWPOLYLINE">
	<path style="fill:#E4002B;" d="M40.627,311.812h343.941c14.608,0,26.454-11.846,26.454-26.459V139.839
		c0-14.608-11.846-26.454-26.454-26.454H40.627c-14.607,0-26.453,11.846-26.453,26.454v145.513
		C14.174,299.966,26.02,311.812,40.627,311.812z"/>
</g>
<g id="LWPOLYLINE_1_">
	<path style="fill:#FFCD00;" d="M40.627,298.579h343.941c7.304,0,13.223-5.918,13.223-13.227V139.839
		c0-7.304-5.919-13.228-13.223-13.228H40.627c-7.304,0-13.227,5.924-13.227,13.228v145.513
		C27.401,292.661,33.324,298.579,40.627,298.579z"/>
</g>
<g id="ELLIPSE_2_">
	<path style="fill:#101820;" d="M170.87,261.565c0-11.316-9.164-20.48-20.479-20.48c-11.313,0-20.481,9.164-20.481,20.48
		c0,11.309,9.169,20.482,20.481,20.482C161.706,282.048,170.87,272.874,170.87,261.565"/>
</g>
<g id="LWPOLYLINE_14_">
	<path style="fill:#101820;" d="M264.966,261.565h-89.911c-0.073-13.586-11.134-24.543-24.724-24.475
		c-13.486,0.064-24.406,10.984-24.47,24.475H92.938c-2.403,0-4.354-1.951-4.354-4.357v-32.605c0-5.484,2.836-10.582,7.505-13.469
		l16.354-10.125l30.722-39.257c0.843-1.075,2.138-1.705,3.506-1.705h180.614c2.371,0,4.322,1.851,4.45,4.218l4.869,92.616
		c0.009,0.076,0.009,0.154,0.009,0.232c0,2.457-1.997,4.453-4.449,4.453h-18.01c-0.064-13.586-11.135-24.543-24.712-24.475
		C275.955,237.155,265.031,248.075,264.966,261.565z"/>
</g>
<g id="CIRCLE_2_">
	<path style="fill:#101820;" d="M309.977,261.565c0-11.316-9.164-20.48-20.48-20.48c-11.308,0-20.481,9.164-20.481,20.48
		c0,11.309,9.174,20.482,20.481,20.482C300.813,282.048,309.977,272.874,309.977,261.565L309.977,261.565z"/>
</g>
<g id="LWPOLYLINE_15_">
	<polygon style="fill:#FFCD00;" points="185.916,173.141 148.207,173.141 122.423,207.464 185.743,207.429 	"/>
</g>
</svg>
