<?xml version="1.0" encoding="UTF-8" standalone="no"?>
<!-- Generator: Adobe Illustrator 16.0.0, SVG Export Plug-In . SVG Version: 6.00 Build 0)  -->

<svg
   xmlns:dc="http://purl.org/dc/elements/1.1/"
   xmlns:cc="http://creativecommons.org/ns#"
   xmlns:rdf="http://www.w3.org/1999/02/22-rdf-syntax-ns#"
   xmlns:svg="http://www.w3.org/2000/svg"
   xmlns="http://www.w3.org/2000/svg"
   xmlns:sodipodi="http://sodipodi.sourceforge.net/DTD/sodipodi-0.dtd"
   xmlns:inkscape="http://www.inkscape.org/namespaces/inkscape"
   version="1.1"
   id="Layer_1"
   x="0px"
   y="0px"
   width="396.849"
   height="330.71201"
   viewBox="0 0 396.84901 330.71199"
   xml:space="preserve"
   sodipodi:docname="H12.12_2_2.svg"
   inkscape:version="0.92.5 (2060ec1f9f, 2020-04-08)"><metadata
   id="metadata852"><rdf:RDF><cc:Work
       rdf:about=""><dc:format>image/svg+xml</dc:format><dc:type
         rdf:resource="http://purl.org/dc/dcmitype/StillImage" /></cc:Work></rdf:RDF></metadata><defs
   id="defs850" /><sodipodi:namedview
   pagecolor="#ffffff"
   bordercolor="#666666"
   borderopacity="1"
   objecttolerance="10"
   gridtolerance="10"
   guidetolerance="10"
   inkscape:pageopacity="0"
   inkscape:pageshadow="2"
   inkscape:window-width="640"
   inkscape:window-height="480"
   id="namedview848"
   showgrid="false"
   inkscape:zoom="0.55503813"
   inkscape:cx="198.4245"
   inkscape:cy="165.356"
   inkscape:window-x="0"
   inkscape:window-y="0"
   inkscape:window-maximized="0"
   inkscape:current-layer="Layer_1" />
<g
   id="LWPOLYLINE_32_"
   transform="translate(-14.174,-47.242)">
	<rect
   x="14.174"
   y="47.242001"
   style="fill:#ffcd00"
   width="396.849"
   height="330.71201"
   id="rect745" />
</g>
<g
   id="LWPOLYLINE_31_"
   transform="translate(-14.174,-47.242)">
	<path
   style="fill:#e4002b"
   d="m 40.627,377.954 h 343.941 c 14.608,0 26.454,-11.845 26.454,-26.458 V 73.701 c 0,-14.613 -11.846,-26.459 -26.454,-26.459 H 40.627 c -14.607,0 -26.453,11.846 -26.453,26.459 v 277.795 c 0,14.613 11.846,26.458 26.453,26.458 z"
   id="path748"
   inkscape:connector-curvature="0" />
</g>
<g
   id="LWPOLYLINE_30_"
   transform="translate(-14.174,-47.242)">
	<path
   style="fill:#ffcd00"
   d="m 40.627,364.724 h 343.941 c 7.304,0 13.223,-5.918 13.223,-13.228 V 73.701 c 0,-7.305 -5.919,-13.228 -13.223,-13.228 H 40.627 c -7.304,0 -13.227,5.923 -13.227,13.228 v 277.795 c 0.001,7.31 5.924,13.228 13.227,13.228 z"
   id="path751"
   inkscape:connector-curvature="0" />
</g>
<g
   id="LWPOLYLINE_53_"
   transform="translate(-14.174,-47.242)">
	<polygon
   style="fill:#101820"
   points="147.316,110.741 131.442,110.741 131.442,98.837 142.157,98.837 142.157,92.882 131.442,92.882 131.442,82.961 147.316,82.961 147.316,77.007 125.488,77.007 125.488,116.691 147.316,116.691 "
   id="polygon754" />
</g>
<g
   id="LWPOLYLINE_54_"
   transform="translate(-14.174,-47.242)">
	<rect
   x="154.45599"
   y="86.928001"
   style="fill:#101820"
   width="5.9549999"
   height="29.764"
   id="rect757" />
</g>
<g
   id="LWPOLYLINE_55_"
   transform="translate(-14.174,-47.242)">
	<rect
   x="154.45599"
   y="77.007004"
   style="fill:#101820"
   width="5.9549999"
   height="5.954"
   id="rect760" />
</g>
<g
   id="LWPOLYLINE_56_"
   transform="translate(-14.174,-47.242)">
	<polygon
   style="fill:#101820"
   points="180.252,77.007 186.208,77.007 186.208,98.938 194.141,86.928 200.095,86.928 193.302,97.122 200.141,116.7 194.141,116.691 189.363,103.031 186.208,107.765 186.208,116.691 180.252,116.691 "
   id="polygon763" />
</g>
<g
   id="LWPOLYLINE_57_"
   transform="translate(-14.174,-47.242)">
	<path
   style="fill:#101820"
   d="m 204.463,106.771 c 0,5.48 4.44,9.921 9.921,9.921 5.481,0 9.922,-4.44 9.922,-9.921 v -9.922 c 0,-5.48 -4.441,-9.921 -9.922,-9.921 -5.481,0 -9.921,4.44 -9.921,9.921 z"
   id="path766"
   inkscape:connector-curvature="0" />
</g>
<g
   id="LWPOLYLINE_59_"
   transform="translate(-14.174,-47.242)">
	<path
   style="fill:#101820"
   d="m 229.859,106.771 c 0,5.48 4.441,9.921 9.922,9.921 h 0.793 c 4.824,0 8.736,-3.907 8.736,-8.727 0,-3.109 -1.65,-5.982 -4.341,-7.546 l -6.584,-3.839 c -0.61,-0.352 -0.984,-1.008 -0.984,-1.715 0,-1.094 0.894,-1.983 1.987,-1.983 h 1.186 c 1.095,0 1.988,0.89 1.988,1.983 h 5.954 c 0,-4.381 -3.556,-7.938 -7.942,-7.938 h -1.186 c -4.386,0 -7.942,3.557 -7.942,7.938 0,2.822 1.505,5.439 3.939,6.857 l 6.593,3.839 c 0.848,0.497 1.377,1.414 1.377,2.403 0,1.532 -1.24,2.776 -2.781,2.776 h -0.793 c -2.188,0 -3.967,-1.778 -3.967,-3.971 h -5.955 z"
   id="path769"
   inkscape:connector-curvature="0" />
</g>
<g
   id="LWPOLYLINE_60_"
   transform="translate(-14.174,-47.242)">
	<polygon
   style="fill:#101820"
   points="256.058,77.007 262.003,77.007 262.003,98.938 269.946,86.928 275.9,86.928 269.097,97.122 275.937,116.7 269.946,116.691 265.158,103.031 262.003,107.765 262.003,116.691 256.058,116.691 "
   id="polygon772" />
</g>
<g
   id="LWPOLYLINE_61_"
   transform="translate(-14.174,-47.242)">
	<path
   style="fill:#101820"
   d="m 293.754,106.771 h 5.955 c 0,5.48 -4.441,9.921 -9.921,9.921 -5.48,0 -9.922,-4.44 -9.922,-9.921 v -9.922 c 0,-5.48 4.441,-9.921 9.922,-9.921 5.479,0 9.921,4.44 9.921,9.921 v 5.559 h -13.888 v 4.363 c 0,2.192 1.769,3.971 3.967,3.971 2.188,-0.001 3.966,-1.779 3.966,-3.971 z"
   id="path775"
   inkscape:connector-curvature="0" />
</g>
<g
   id="LWPOLYLINE_63_"
   transform="translate(-14.174,-47.242)">
	<path
   style="fill:#101820"
   d="m 145.328,348.19 h 3.976 v -21.83 h -12.9 v 5.955 h 6.946 v 2.781 0.195 c 0,3.835 -3.112,6.944 -6.946,6.944 -3.835,0 -6.944,-3.109 -6.944,-6.944 v -13.893 c 0,-3.83 3.109,-6.939 6.944,-6.939 3.834,0 6.946,3.109 6.946,6.939 h 5.954 c 0,-7.121 -5.781,-12.894 -12.9,-12.894 -7.122,0 -12.898,5.772 -12.898,12.894 v 13.893 c 0.004,7.108 5.771,12.862 12.88,12.857 2.636,-0.004 5.207,-0.815 7.366,-2.329 z"
   id="path778"
   inkscape:connector-curvature="0" />
</g>
<g
   id="LWPOLYLINE_64_"
   transform="translate(-14.174,-47.242)">
	<rect
   x="168.745"
   y="308.50601"
   style="fill:#101820"
   width="5.9549999"
   height="5.954"
   id="rect781" />
</g>
<g
   id="LWPOLYLINE_65_"
   transform="translate(-14.174,-47.242)">
	<rect
   x="158.03"
   y="308.50601"
   style="fill:#101820"
   width="5.9549999"
   height="5.954"
   id="rect784" />
</g>
<g
   id="LWPOLYLINE_66_"
   transform="translate(-14.174,-47.242)">
	<path
   style="fill:#101820"
   d="m 175.493,348.19 h -5.954 v -1.905 c -2.39,1.29 -5.07,1.946 -7.788,1.905 -2.443,0.064 -4.642,-1.477 -5.416,-3.793 -0.967,-3.046 -0.155,-6.374 2.106,-8.627 2.899,-3.113 6.857,-5.015 11.098,-5.334 v -3.082 c 0,-1.642 -1.332,-2.973 -2.973,-2.973 -1.642,0 -2.982,1.331 -2.982,2.973 h -5.945 c 0,-4.934 3.994,-8.928 8.928,-8.928 4.933,0 8.927,3.994 8.927,8.928 v 20.836 z"
   id="path787"
   inkscape:connector-curvature="0" />
</g>
<g
   id="LWPOLYLINE_68_"
   transform="translate(-14.174,-47.242)">
	<rect
   x="182.632"
   y="308.50601"
   style="fill:#101820"
   width="5.9549999"
   height="39.685001"
   id="rect790" />
</g>
<g
   id="LWPOLYLINE_69_"
   transform="translate(-14.174,-47.242)">
	<rect
   x="196.53"
   y="308.50601"
   style="fill:#101820"
   width="5.9450002"
   height="39.685001"
   id="rect793" />
</g>
<g
   id="LWPOLYLINE_70_"
   transform="translate(-14.174,-47.242)">
	<path
   style="fill:#101820"
   d="m 223.111,338.27 h 5.955 c 0,5.48 -4.44,9.921 -9.921,9.921 -5.481,0 -9.922,-4.44 -9.922,-9.921 v -9.921 c 0,-5.48 4.441,-9.922 9.922,-9.922 5.481,0 9.921,4.441 9.921,9.922 v 5.553 h -13.888 v 4.368 c 0,2.188 1.778,3.967 3.967,3.967 2.197,-0.001 3.966,-1.779 3.966,-3.967 z"
   id="path796"
   inkscape:connector-curvature="0" />
</g>
<g
   id="LWPOLYLINE_72_"
   transform="translate(-14.174,-47.242)">
	<path
   style="fill:#101820"
   d="m 242.161,327.555 v 20.636 h -5.945 v -29.764 h 5.945 v 1.592 c 2.098,-1.045 4.404,-1.592 6.748,-1.592 v 6.292 c -1.56,-1.532 -4.076,-1.509 -5.608,0.055 -0.73,0.743 -1.14,1.742 -1.14,2.781 z"
   id="path799"
   inkscape:connector-curvature="0" />
</g>
<g
   id="LWPOLYLINE_73_"
   transform="translate(-14.174,-47.242)">
	<path
   style="fill:#101820"
   d="m 282.639,338.27 h 5.954 c 0,5.48 -4.44,9.921 -9.921,9.921 -5.481,0 -9.921,-4.44 -9.921,-9.921 v -9.921 c 0,-5.48 4.44,-9.922 9.921,-9.922 5.481,0 9.921,4.441 9.921,9.922 v 5.553 h -13.888 v 4.368 c 0,2.188 1.778,3.967 3.967,3.967 2.198,-0.001 3.967,-1.779 3.967,-3.967 z"
   id="path802"
   inkscape:connector-curvature="0" />
</g>
<g
   id="LWPOLYLINE_75_"
   transform="translate(-14.174,-47.242)">
	<path
   style="fill:#101820"
   d="m 301.688,318.427 v 28.971 c 0,4.824 -3.902,8.727 -8.727,8.727 h -0.793 l 0.793,-5.95 c 1.532,0 2.781,-1.244 2.781,-2.776 v -28.971 h 5.946 z"
   id="path805"
   inkscape:connector-curvature="0" />
</g>
<g
   id="LWPOLYLINE_76_"
   transform="translate(-14.174,-47.242)">
	<rect
   x="295.74301"
   y="308.50601"
   style="fill:#101820"
   width="5.9450002"
   height="5.954"
   id="rect808" />
</g>
<g
   id="CIRCLE_9_"
   transform="translate(-14.174,-47.242)">
	<path
   style="fill:#101820"
   d="m 174.143,259.501 c 0,-14.156 -11.472,-25.633 -25.633,-25.633 -14.154,0 -25.631,11.477 -25.631,25.633 0,14.157 11.477,25.633 25.631,25.633 14.161,0 25.633,-11.476 25.633,-25.633 z"
   id="path811"
   inkscape:connector-curvature="0" />
</g>
<g
   id="LWPOLYLINE_78_"
   transform="translate(-14.174,-47.242)">
	<path
   style="fill:#101820"
   d="m 216.619,249.356 h -39.867 c -5.6,-15.593 -22.788,-23.695 -38.384,-18.096 -5.978,2.151 -11.115,6.137 -14.686,11.394 l -3.63,-37.104 c -0.059,-0.497 -0.068,-0.998 -0.031,-1.491 0.328,-4.24 4.025,-7.409 8.266,-7.08 h 66.757 c 1.869,0 3.502,-1.272 3.958,-3.087 l 12.675,-50.842 c 0.502,-1.819 2.188,-3.051 4.076,-2.986 h 54.513 c 1.869,0 3.501,1.276 3.957,3.086 l 12.191,48.316 c 0.155,0.625 0.548,1.167 1.095,1.51 l 4.696,2.689 3.311,2.18 3.301,2.59 c 1.486,1.162 2.262,3.014 2.061,4.892 -0.137,1.195 -0.875,2.239 -1.97,2.754 -0.729,0.347 -1.522,0.579 -2.334,0.68 -1.249,0.155 -2.48,-0.388 -3.21,-1.418 -19.487,-16.879 -48.959,-14.759 -65.838,4.728 -8.883,10.253 -12.859,23.863 -10.907,37.285 z"
   id="path814"
   inkscape:connector-curvature="0" />
</g>
<g
   id="CIRCLE_11_"
   transform="translate(-14.174,-47.242)">
	<path
   style="fill:#101820"
   d="m 305.199,242.731 c 0,-23.426 -18.985,-42.411 -42.411,-42.411 -23.417,0 -42.402,18.985 -42.402,42.411 0,23.418 18.985,42.402 42.402,42.402 23.425,0.001 42.411,-18.984 42.411,-42.402 z"
   id="path817"
   inkscape:connector-curvature="0" />
</g>
<g
   id="LWPOLYLINE_58_"
   transform="translate(-14.174,-47.242)">
	<path
   style="fill:#ffcd00"
   d="m 210.417,106.771 c 0,2.192 1.778,3.971 3.967,3.971 2.189,0 3.967,-1.778 3.967,-3.971 v -9.922 c 0,-2.188 -1.777,-3.967 -3.967,-3.967 -2.188,0 -3.967,1.778 -3.967,3.967 z"
   id="path820"
   inkscape:connector-curvature="0" />
</g>
<g
   id="LWPOLYLINE_62_"
   transform="translate(-14.174,-47.242)">
	<path
   style="fill:#ffcd00"
   d="m 285.822,97.25 h 7.933 v -0.401 c 0,-2.188 -1.778,-3.967 -3.966,-3.967 -2.198,0 -3.967,1.778 -3.967,3.967 z"
   id="path823"
   inkscape:connector-curvature="0" />
</g>
<g
   id="LWPOLYLINE_67_"
   transform="translate(-14.174,-47.242)">
	<path
   style="fill:#ffcd00"
   d="m 169.539,334.321 c -1.988,0.474 -3.83,1.418 -5.381,2.749 -1.386,1.222 -2.179,2.991 -2.151,4.842 0.027,1.204 1.021,2.157 2.225,2.134 0.101,-0.004 0.2,-0.014 0.301,-0.027 1.751,-0.282 3.447,-0.861 5.007,-1.7 v -7.998 z"
   id="path826"
   inkscape:connector-curvature="0" />
</g>
<g
   id="LWPOLYLINE_71_"
   transform="translate(-14.174,-47.242)">
	<path
   style="fill:#ffcd00"
   d="m 215.178,328.745 h 7.933 v -0.396 c 0,-2.193 -1.769,-3.967 -3.966,-3.967 -2.188,0 -3.967,1.773 -3.967,3.967 z"
   id="path829"
   inkscape:connector-curvature="0" />
</g>
<g
   id="LWPOLYLINE_74_"
   transform="translate(-14.174,-47.242)">
	<path
   style="fill:#ffcd00"
   d="m 274.706,328.745 h 7.934 v -0.396 c 0,-2.193 -1.77,-3.967 -3.967,-3.967 -2.188,0 -3.967,1.773 -3.967,3.967 z"
   id="path832"
   inkscape:connector-curvature="0" />
</g>
<g
   id="CIRCLE_8_"
   transform="translate(-14.174,-47.242)">
	<path
   style="fill:#ffcd00"
   d="m 284.344,242.731 c 0,-11.909 -9.647,-21.561 -21.557,-21.561 -11.9,0 -21.558,9.651 -21.558,21.561 0,11.905 9.657,21.558 21.558,21.558 11.91,0 21.557,-9.652 21.557,-21.558 z"
   id="path835"
   inkscape:connector-curvature="0" />
</g>
<g
   id="LWPOLYLINE_77_"
   transform="translate(-14.174,-47.242)">
	<path
   style="fill:#ffcd00"
   d="m 218.424,207.479 c 0.374,0.405 1.003,0.438 1.404,0.063 4.732,-5.771 10.578,-10.532 17.188,-14.002 0.146,-0.059 0.292,-0.15 0.411,-0.264 0.848,-0.78 1.322,-1.874 1.322,-3.023 v -39.99 c 0.137,-0.712 -0.338,-1.396 -1.049,-1.527 -0.073,-0.014 -0.155,-0.019 -0.237,-0.019 l -17.48,-0.041 c -0.712,-0.014 -1.35,0.451 -1.551,1.135 l -10.997,43.88 c -0.347,1.387 0.063,2.854 1.076,3.867 l 9.985,9.984 z"
   id="path838"
   inkscape:connector-curvature="0" />
</g>
<g
   id="LWPOLYLINE_79_"
   transform="translate(-14.174,-47.242)">
	<path
   style="fill:#ffcd00"
   d="m 247.513,187.572 v -37.574 c 0.137,-0.771 0.803,-1.327 1.587,-1.322 h 15.675 c 0.685,0 1.295,0.465 1.469,1.135 l 9.219,36.558 c 0.055,0.237 0.055,0.483 0,0.726 -0.191,0.834 -1.021,1.354 -1.852,1.162 -8.124,-1.568 -16.478,-1.363 -24.511,0.603 -0.693,0.018 -1.313,-0.429 -1.514,-1.095 -0.018,-0.065 -0.045,-0.129 -0.073,-0.193 z"
   id="path841"
   inkscape:connector-curvature="0" />
</g>
<g
   id="CIRCLE_10_"
   transform="translate(-14.174,-47.242)">
	<path
   style="fill:#ffcd00"
   d="m 161.414,259.487 c 0,-7.135 -5.781,-12.916 -12.912,-12.916 -7.134,0 -12.92,5.781 -12.92,12.916 0,7.136 5.786,12.917 12.92,12.917 7.13,0 12.912,-5.781 12.912,-12.917 z"
   id="path844"
   inkscape:connector-curvature="0" />
</g>
</svg>