<?xml version="1.0" encoding="UTF-8" standalone="no"?>
<!-- Generator: Adobe Illustrator 16.0.0, SVG Export Plug-In . SVG Version: 6.00 Build 0)  -->

<svg
   xmlns:dc="http://purl.org/dc/elements/1.1/"
   xmlns:cc="http://creativecommons.org/ns#"
   xmlns:rdf="http://www.w3.org/1999/02/22-rdf-syntax-ns#"
   xmlns:svg="http://www.w3.org/2000/svg"
   xmlns="http://www.w3.org/2000/svg"
   xmlns:sodipodi="http://sodipodi.sourceforge.net/DTD/sodipodi-0.dtd"
   xmlns:inkscape="http://www.inkscape.org/namespaces/inkscape"
   version="1.1"
   id="Layer_1"
   x="0px"
   y="0px"
   width="396.85101"
   height="264.57001"
   viewBox="0 0 396.85102 264.57"
   xml:space="preserve"
   sodipodi:docname="H12.3_2_2.svg"
   inkscape:version="0.92.5 (2060ec1f9f, 2020-04-08)"><metadata
   id="metadata1369"><rdf:RDF><cc:Work
       rdf:about=""><dc:format>image/svg+xml</dc:format><dc:type
         rdf:resource="http://purl.org/dc/dcmitype/StillImage" /></cc:Work></rdf:RDF></metadata><defs
   id="defs1367" /><sodipodi:namedview
   pagecolor="#ffffff"
   bordercolor="#666666"
   borderopacity="1"
   objecttolerance="10"
   gridtolerance="10"
   guidetolerance="10"
   inkscape:pageopacity="0"
   inkscape:pageshadow="2"
   inkscape:window-width="640"
   inkscape:window-height="480"
   id="namedview1365"
   showgrid="false"
   inkscape:zoom="0.55503813"
   inkscape:cx="198.4255"
   inkscape:cy="132.28499"
   inkscape:window-x="0"
   inkscape:window-y="0"
   inkscape:window-maximized="0"
   inkscape:current-layer="Layer_1" />
<g
   id="LWPOLYLINE_2_"
   transform="translate(-14.173,-80.313)">
	<rect
   x="14.173"
   y="80.313004"
   style="fill:#ffcd00"
   width="396.85101"
   height="264.569"
   id="rect1271" />
</g>
<g
   id="LWPOLYLINE_1_"
   transform="translate(-14.173,-80.313)">
	<path
   style="fill:#e4002b"
   d="m 40.626,344.883 h 343.939 c 14.612,0 26.458,-11.846 26.458,-26.459 V 106.771 c 0,-14.612 -11.846,-26.458 -26.458,-26.458 H 40.626 c -14.608,0 -26.453,11.846 -26.453,26.458 v 211.652 c 0,14.614 11.845,26.46 26.453,26.46 z"
   id="path1274"
   inkscape:connector-curvature="0" />
</g>
<g
   id="LWPOLYLINE"
   transform="translate(-14.173,-80.313)">
	<path
   style="fill:#ffcd00"
   d="m 40.626,331.651 h 343.939 c 7.304,0 13.227,-5.919 13.227,-13.228 V 106.771 c 0,-7.304 -5.923,-13.23 -13.227,-13.23 H 40.626 c -7.304,0 -13.227,5.927 -13.227,13.23 v 211.652 c 10e-4,7.309 5.924,13.228 13.227,13.228 z"
   id="path1277"
   inkscape:connector-curvature="0" />
</g>
<g
   id="LWPOLYLINE_77_"
   transform="translate(-14.173,-80.313)">
	<polygon
   style="fill:#101820"
   points="147.317,143.813 131.441,143.813 131.441,131.903 142.156,131.903 142.156,125.953 131.441,125.953 131.441,116.032 147.317,116.032 147.317,110.077 125.487,110.077 125.487,149.763 147.317,149.763 "
   id="polygon1280" />
</g>
<g
   id="LWPOLYLINE_78_"
   transform="translate(-14.173,-80.313)">
	<rect
   x="154.457"
   y="119.999"
   style="fill:#101820"
   width="5.9549999"
   height="29.764"
   id="rect1283" />
</g>
<g
   id="LWPOLYLINE_79_"
   transform="translate(-14.173,-80.313)">
	<rect
   x="154.457"
   y="110.077"
   style="fill:#101820"
   width="5.9549999"
   height="5.9549999"
   id="rect1286" />
</g>
<g
   id="LWPOLYLINE_80_"
   transform="translate(-14.173,-80.313)">
	<polygon
   style="fill:#101820"
   points="180.254,110.077 186.208,110.077 186.208,132.004 194.142,119.999 200.096,119.999 193.303,130.189 200.137,149.771 194.142,149.763 189.364,136.098 186.208,140.835 186.208,149.763 180.254,149.763 "
   id="polygon1289" />
</g>
<g
   id="LWPOLYLINE_81_"
   transform="translate(-14.173,-80.313)">
	<path
   style="fill:#101820"
   d="m 204.459,139.841 c 0,5.48 4.446,9.922 9.922,9.922 5.48,0 9.921,-4.441 9.921,-9.922 v -9.921 c 0,-5.476 -4.44,-9.921 -9.921,-9.921 -5.476,0 -9.922,4.445 -9.922,9.921 z"
   id="path1292"
   inkscape:connector-curvature="0" />
</g>
<g
   id="LWPOLYLINE_83_"
   transform="translate(-14.173,-80.313)">
	<path
   style="fill:#101820"
   d="m 229.86,139.841 c 0,5.48 4.441,9.922 9.922,9.922 h 0.793 c 4.824,0 8.731,-3.907 8.731,-8.731 0,-3.104 -1.65,-5.978 -4.336,-7.541 l -6.584,-3.839 c -0.61,-0.356 -0.984,-1.008 -0.984,-1.715 0,-1.094 0.889,-1.983 1.983,-1.983 h 1.189 c 1.095,0 1.983,0.89 1.983,1.983 h 5.955 c 0,-4.386 -3.557,-7.938 -7.938,-7.938 h -1.189 c -4.382,0 -7.938,3.552 -7.938,7.938 0,2.827 1.5,5.435 3.939,6.857 l 6.589,3.839 c 0.853,0.497 1.377,1.414 1.377,2.398 0,1.536 -1.24,2.781 -2.777,2.781 h -0.793 c -2.193,0 -3.967,-1.778 -3.967,-3.972 h -5.955 z"
   id="path1295"
   inkscape:connector-curvature="0" />
</g>
<g
   id="LWPOLYLINE_84_"
   transform="translate(-14.173,-80.313)">
	<polygon
   style="fill:#101820"
   points="256.054,110.077 262.004,110.077 262.004,132.004 269.942,119.999 275.897,119.999 269.098,130.189 275.933,149.771 269.942,149.763 265.16,136.098 262.004,140.835 262.004,149.763 256.054,149.763 "
   id="polygon1298" />
</g>
<g
   id="LWPOLYLINE_85_"
   transform="translate(-14.173,-80.313)">
	<path
   style="fill:#101820"
   d="m 293.751,139.841 h 5.954 c 0,5.48 -4.44,9.922 -9.921,9.922 -5.481,0 -9.921,-4.441 -9.921,-9.922 v -9.921 c 0,-5.476 4.44,-9.921 9.921,-9.921 5.481,0 9.921,4.445 9.921,9.921 v 5.558 h -13.888 v 4.363 c 0,2.193 1.773,3.972 3.967,3.972 2.194,0 3.967,-1.779 3.967,-3.972 z"
   id="path1301"
   inkscape:connector-curvature="0" />
</g>
<g
   id="LWPOLYLINE_89_"
   transform="translate(-14.173,-80.313)">
	<path
   style="fill:#101820"
   d="m 145.329,315.119 h 3.972 v -21.831 h -12.898 v 5.955 h 6.943 v 2.781 0.195 c 0,3.835 -3.109,6.944 -6.943,6.944 -3.835,0 -6.944,-3.109 -6.944,-6.944 v -13.893 c 0,-3.829 3.109,-6.938 6.944,-6.938 3.834,0 6.943,3.109 6.943,6.938 h 5.955 c 0,-7.121 -5.776,-12.894 -12.898,-12.894 -7.122,0 -12.898,5.772 -12.898,12.894 v 13.893 c 0.004,7.108 5.771,12.862 12.88,12.858 2.636,-0.005 5.207,-0.816 7.368,-2.33 z"
   id="path1304"
   inkscape:connector-curvature="0" />
</g>
<g
   id="LWPOLYLINE_90_"
   transform="translate(-14.173,-80.313)">
	<rect
   x="168.746"
   y="275.43399"
   style="fill:#101820"
   width="5.9499998"
   height="5.9549999"
   id="rect1307" />
</g>
<g
   id="LWPOLYLINE_91_"
   transform="translate(-14.173,-80.313)">
	<rect
   x="158.032"
   y="275.43399"
   style="fill:#101820"
   width="5.9499998"
   height="5.9549999"
   id="rect1310" />
</g>
<g
   id="LWPOLYLINE_92_"
   transform="translate(-14.173,-80.313)">
	<path
   style="fill:#101820"
   d="m 175.49,315.119 h -5.95 v -1.906 c -2.39,1.29 -5.075,1.947 -7.792,1.906 -2.439,0.063 -4.642,-1.478 -5.417,-3.794 -0.967,-3.046 -0.15,-6.374 2.111,-8.626 2.896,-3.114 6.857,-5.016 11.098,-5.335 v -3.082 c 0,-1.642 -1.331,-2.973 -2.978,-2.973 -1.642,0 -2.978,1.331 -2.978,2.973 h -5.949 c 0,-4.934 3.993,-8.928 8.927,-8.928 4.934,0 8.928,3.994 8.928,8.928 z"
   id="path1313"
   inkscape:connector-curvature="0" />
</g>
<g
   id="LWPOLYLINE_94_"
   transform="translate(-14.173,-80.313)">
	<rect
   x="182.634"
   y="275.43399"
   style="fill:#101820"
   width="5.954"
   height="39.686001"
   id="rect1316" />
</g>
<g
   id="LWPOLYLINE_95_"
   transform="translate(-14.173,-80.313)">
	<rect
   x="196.52699"
   y="275.43399"
   style="fill:#101820"
   width="5.9489999"
   height="39.686001"
   id="rect1319" />
</g>
<g
   id="LWPOLYLINE_96_"
   transform="translate(-14.173,-80.313)">
	<path
   style="fill:#101820"
   d="m 223.113,305.197 h 5.954 c 0,5.48 -4.44,9.922 -9.921,9.922 -5.481,0 -9.922,-4.441 -9.922,-9.922 v -9.921 c 0,-5.48 4.441,-9.922 9.922,-9.922 5.481,0 9.921,4.441 9.921,9.922 v 5.553 h -13.893 v 4.368 c 0,2.188 1.778,3.967 3.972,3.967 2.192,0 3.967,-1.778 3.967,-3.967 z"
   id="path1322"
   inkscape:connector-curvature="0" />
</g>
<g
   id="LWPOLYLINE_98_"
   transform="translate(-14.173,-80.313)">
	<path
   style="fill:#101820"
   d="m 242.162,294.482 v 20.637 h -5.95 v -29.765 h 5.95 v 1.592 c 2.098,-1.044 4.404,-1.592 6.748,-1.592 v 6.292 c -1.564,-1.531 -4.076,-1.509 -5.612,0.055 -0.726,0.743 -1.136,1.742 -1.136,2.781 z"
   id="path1325"
   inkscape:connector-curvature="0" />
</g>
<g
   id="LWPOLYLINE_99_"
   transform="translate(-14.173,-80.313)">
	<path
   style="fill:#101820"
   d="m 282.64,305.197 h 5.955 c 0,5.48 -4.441,9.922 -9.922,9.922 -5.481,0 -9.921,-4.441 -9.921,-9.922 v -9.921 c 0,-5.48 4.44,-9.922 9.921,-9.922 5.481,0 9.922,4.441 9.922,9.922 v 5.553 h -13.894 v 4.368 c 0,2.188 1.778,3.967 3.972,3.967 2.194,0 3.967,-1.778 3.967,-3.967 z"
   id="path1328"
   inkscape:connector-curvature="0" />
</g>
<g
   id="LWPOLYLINE_101_"
   transform="translate(-14.173,-80.313)">
	<path
   style="fill:#101820"
   d="m 301.689,288.66 v 28.971 c 0,4.819 -3.907,8.731 -8.73,8.731 h -0.794 l 0.794,-5.955 c 1.536,0 2.781,-1.24 2.781,-2.776 V 288.66 Z"
   id="path1331"
   inkscape:connector-curvature="0" />
</g>
<g
   id="LWPOLYLINE_102_"
   transform="translate(-14.173,-80.313)">
	<rect
   x="295.73999"
   y="275.43399"
   style="fill:#101820"
   width="5.9489999"
   height="5.9549999"
   id="rect1334" />
</g>
<g
   id="LWPOLYLINE_82_"
   transform="translate(-14.173,-80.313)">
	<path
   style="fill:#ffcd00"
   d="m 210.415,139.841 c 0,2.193 1.778,3.972 3.967,3.972 2.192,0 3.971,-1.778 3.971,-3.972 v -9.921 c 0,-2.193 -1.778,-3.967 -3.971,-3.967 -2.188,0 -3.967,1.773 -3.967,3.967 z"
   id="path1337"
   inkscape:connector-curvature="0" />
</g>
<g
   id="LWPOLYLINE_86_"
   transform="translate(-14.173,-80.313)">
	<path
   style="fill:#ffcd00"
   d="m 285.818,130.316 h 7.934 v -0.396 c 0,-2.193 -1.773,-3.967 -3.967,-3.967 -2.194,0 -3.967,1.773 -3.967,3.967 z"
   id="path1340"
   inkscape:connector-curvature="0" />
</g>
<g
   id="LWPOLYLINE_93_"
   transform="translate(-14.173,-80.313)">
	<path
   style="fill:#ffcd00"
   d="m 169.54,301.249 c -1.988,0.474 -3.83,1.418 -5.38,2.749 -1.391,1.223 -2.18,2.991 -2.157,4.842 0.027,1.204 1.026,2.157 2.229,2.135 0.101,-0.005 0.201,-0.014 0.297,-0.027 1.755,-0.283 3.446,-0.862 5.011,-1.701 z"
   id="path1343"
   inkscape:connector-curvature="0" />
</g>
<g
   id="LWPOLYLINE_97_"
   transform="translate(-14.173,-80.313)">
	<path
   style="fill:#ffcd00"
   d="m 215.174,295.673 h 7.938 v -0.396 c 0,-2.193 -1.774,-3.967 -3.967,-3.967 -2.193,0 -3.972,1.773 -3.972,3.967 v 0.396 z"
   id="path1346"
   inkscape:connector-curvature="0" />
</g>
<g
   id="LWPOLYLINE_100_"
   transform="translate(-14.173,-80.313)">
	<path
   style="fill:#ffcd00"
   d="m 274.702,295.673 h 7.938 v -0.396 c 0,-2.193 -1.773,-3.967 -3.967,-3.967 -2.194,0 -3.972,1.773 -3.972,3.967 v 0.396 z"
   id="path1349"
   inkscape:connector-curvature="0" />
</g>
<g
   id="ELLIPSE_2_"
   transform="translate(-14.173,-80.313)">
	<path
   style="fill:#101820"
   d="m 122.824,251.187 c 0,-9.734 -7.888,-17.627 -17.627,-17.627 -9.739,0 -17.626,7.893 -17.626,17.627 0,9.738 7.887,17.631 17.626,17.631 9.739,0 17.627,-7.893 17.627,-17.631"
   id="path1352"
   inkscape:connector-curvature="0" />
</g>
<g
   id="ELLIPSE_3_"
   transform="translate(-14.173,-80.313)">
	<path
   style="fill:#101820"
   d="m 298.981,251.249 c 0,-9.738 -7.897,-17.631 -17.637,-17.631 -9.729,0 -17.626,7.893 -17.626,17.631 0,9.734 7.896,17.627 17.626,17.627 9.739,0 17.637,-7.893 17.637,-17.627"
   id="path1355"
   inkscape:connector-curvature="0" />
</g>
<g
   id="LWPOLYLINE_5_"
   transform="translate(-14.173,-80.313)">
	<path
   style="fill:#101820"
   d="m 143.258,232.63 h 19.797 v -6.598 h -19.797 v -61.351 h 208.237 v 63.425 h -27.21 v 6.594 h 19.797 v 16.545 l -41.408,0.023 c 0.182,-11.777 -9.22,-21.475 -21.001,-21.658 -11.772,-0.182 -21.476,9.221 -21.657,21.002 0,0.199 0,0.4 0,0.602 h -133.49 c 0.182,-11.781 -9.219,-21.48 -21.001,-21.658 -11.781,-0.182 -21.475,9.221 -21.657,20.996 -0.009,0.225 -0.009,0.443 0,0.662 H 73.701 V 214.528 L 89.13,180.853 h 47.563 v 51.777 z"
   id="path1358"
   inkscape:connector-curvature="0" />
</g>
<g
   id="LWPOLYLINE_3_"
   transform="translate(-14.173,-80.313)">
	<polygon
   style="fill:#ffcd00"
   points="82.455,213.106 124.583,213.106 124.583,187.514 94.181,187.514 "
   id="polygon1361" />
</g>
</svg>