<?xml version="1.0" encoding="UTF-8" standalone="no"?>
<!-- Generator: Adobe Illustrator 16.0.0, SVG Export Plug-In . SVG Version: 6.00 Build 0)  -->

<svg
   xmlns:dc="http://purl.org/dc/elements/1.1/"
   xmlns:cc="http://creativecommons.org/ns#"
   xmlns:rdf="http://www.w3.org/1999/02/22-rdf-syntax-ns#"
   xmlns:svg="http://www.w3.org/2000/svg"
   xmlns="http://www.w3.org/2000/svg"
   xmlns:sodipodi="http://sodipodi.sourceforge.net/DTD/sodipodi-0.dtd"
   xmlns:inkscape="http://www.inkscape.org/namespaces/inkscape"
   version="1.1"
   id="Layer_1"
   x="0px"
   y="0px"
   width="396.849"
   height="297.638"
   viewBox="0 0 396.84901 297.63799"
   xml:space="preserve"
   sodipodi:docname="H12.9_2_2.svg"
   inkscape:version="0.92.5 (2060ec1f9f, 2020-04-08)"><metadata
   id="metadata2493"><rdf:RDF><cc:Work
       rdf:about=""><dc:format>image/svg+xml</dc:format><dc:type
         rdf:resource="http://purl.org/dc/dcmitype/StillImage" /></cc:Work></rdf:RDF></metadata><defs
   id="defs2491" /><sodipodi:namedview
   pagecolor="#ffffff"
   bordercolor="#666666"
   borderopacity="1"
   objecttolerance="10"
   gridtolerance="10"
   guidetolerance="10"
   inkscape:pageopacity="0"
   inkscape:pageshadow="2"
   inkscape:window-width="640"
   inkscape:window-height="480"
   id="namedview2489"
   showgrid="false"
   inkscape:zoom="0.55503813"
   inkscape:cx="198.4245"
   inkscape:cy="148.81899"
   inkscape:window-x="0"
   inkscape:window-y="0"
   inkscape:window-maximized="0"
   inkscape:current-layer="Layer_1" />
<g
   id="LWPOLYLINE_46_"
   transform="translate(-14.174,-63.778999)">
	<rect
   x="14.174"
   y="63.778999"
   style="fill:#ffcd00"
   width="396.849"
   height="297.638"
   id="rect2395" />
</g>
<g
   id="LWPOLYLINE_45_"
   transform="translate(-14.174,-63.778999)">
	<path
   style="fill:#e4002b"
   d="m 40.627,361.417 h 343.941 c 14.608,0 26.454,-11.846 26.454,-26.459 V 90.233 c 0,-14.608 -11.846,-26.454 -26.454,-26.454 H 40.627 c -14.607,0 -26.453,11.845 -26.453,26.454 v 244.725 c 0,14.613 11.846,26.459 26.453,26.459 z"
   id="path2398"
   inkscape:connector-curvature="0" />
</g>
<g
   id="LWPOLYLINE_44_"
   transform="translate(-14.174,-63.778999)">
	<path
   style="fill:#ffcd00"
   d="m 40.627,348.187 h 343.941 c 7.304,0 13.223,-5.92 13.223,-13.229 V 90.233 c 0,-7.304 -5.919,-13.227 -13.223,-13.227 H 40.627 c -7.304,0 -13.227,5.923 -13.227,13.227 v 244.725 c 0.001,7.309 5.924,13.229 13.227,13.229 z"
   id="path2401"
   inkscape:connector-curvature="0" />
</g>
<g
   id="LWPOLYLINE_55_"
   transform="translate(-14.174,-63.778999)">
	<polygon
   style="fill:#101820"
   points="147.316,127.273 131.442,127.273 131.442,115.369 142.157,115.369 142.157,109.419 131.442,109.419 131.442,99.498 147.316,99.498 147.316,93.543 125.488,93.543 125.488,133.228 147.316,133.228 "
   id="polygon2404" />
</g>
<g
   id="LWPOLYLINE_56_"
   transform="translate(-14.174,-63.778999)">
	<rect
   x="154.45599"
   y="103.464"
   style="fill:#101820"
   width="5.9549999"
   height="29.764"
   id="rect2407" />
</g>
<g
   id="LWPOLYLINE_57_"
   transform="translate(-14.174,-63.778999)">
	<rect
   x="154.45599"
   y="93.542999"
   style="fill:#101820"
   width="5.9549999"
   height="5.9549999"
   id="rect2410" />
</g>
<g
   id="LWPOLYLINE_58_"
   transform="translate(-14.174,-63.778999)">
	<polygon
   style="fill:#101820"
   points="180.252,93.543 186.208,93.543 186.208,115.474 194.141,103.464 200.095,103.464 193.302,113.654 200.141,133.237 194.141,133.228 189.363,119.568 186.208,124.301 186.208,133.228 180.252,133.228 "
   id="polygon2413" />
</g>
<g
   id="LWPOLYLINE_59_"
   transform="translate(-14.174,-63.778999)">
	<path
   style="fill:#101820"
   d="m 204.463,123.307 c 0,5.48 4.44,9.921 9.921,9.921 5.481,0 9.922,-4.441 9.922,-9.921 v -9.921 c 0,-5.48 -4.441,-9.921 -9.922,-9.921 -5.481,0 -9.921,4.441 -9.921,9.921 z"
   id="path2416"
   inkscape:connector-curvature="0" />
</g>
<g
   id="LWPOLYLINE_61_"
   transform="translate(-14.174,-63.778999)">
	<path
   style="fill:#101820"
   d="m 229.859,123.307 c 0,5.48 4.441,9.921 9.922,9.921 h 0.793 c 4.824,0 8.736,-3.912 8.736,-8.731 0,-3.104 -1.65,-5.977 -4.341,-7.546 l -6.584,-3.839 c -0.61,-0.355 -0.984,-1.003 -0.984,-1.714 0,-1.094 0.894,-1.979 1.987,-1.979 h 1.186 c 1.095,0 1.988,0.884 1.988,1.979 h 5.954 c 0,-4.381 -3.556,-7.933 -7.942,-7.933 h -1.186 c -4.386,0 -7.942,3.552 -7.942,7.933 0,2.827 1.505,5.435 3.939,6.857 l 6.593,3.839 c 0.848,0.501 1.377,1.413 1.377,2.402 0,1.537 -1.24,2.777 -2.781,2.777 h -0.793 c -2.188,0 -3.967,-1.778 -3.967,-3.967 h -5.955 z"
   id="path2419"
   inkscape:connector-curvature="0" />
</g>
<g
   id="LWPOLYLINE_62_"
   transform="translate(-14.174,-63.778999)">
	<polygon
   style="fill:#101820"
   points="256.058,93.543 262.003,93.543 262.003,115.474 269.946,103.464 275.9,103.464 269.097,113.654 275.937,133.237 269.946,133.228 265.158,119.568 262.003,124.301 262.003,133.228 256.058,133.228 "
   id="polygon2422" />
</g>
<g
   id="LWPOLYLINE_63_"
   transform="translate(-14.174,-63.778999)">
	<path
   style="fill:#101820"
   d="m 293.754,123.307 h 5.955 c 0,5.48 -4.441,9.921 -9.921,9.921 -5.48,0 -9.922,-4.441 -9.922,-9.921 v -9.921 c 0,-5.48 4.441,-9.921 9.922,-9.921 5.479,0 9.921,4.441 9.921,9.921 v 5.554 h -13.888 v 4.368 c 0,2.188 1.769,3.967 3.967,3.967 2.188,-0.002 3.966,-1.78 3.966,-3.968 z"
   id="path2425"
   inkscape:connector-curvature="0" />
</g>
<g
   id="LWPOLYLINE_65_"
   transform="translate(-14.174,-63.778999)">
	<path
   style="fill:#101820"
   d="m 145.328,331.653 h 3.976 v -21.83 h -12.9 v 5.955 h 6.946 v 2.781 0.195 c 0,3.834 -3.112,6.943 -6.946,6.943 -3.835,0 -6.944,-3.109 -6.944,-6.943 v -13.893 c 0,-3.83 3.109,-6.939 6.944,-6.939 3.834,0 6.946,3.109 6.946,6.939 h 5.954 c 0,-7.121 -5.781,-12.895 -12.9,-12.895 -7.122,0 -12.898,5.773 -12.898,12.895 v 13.893 c 0.004,7.107 5.771,12.861 12.88,12.857 2.636,-0.004 5.207,-0.816 7.366,-2.33 z"
   id="path2428"
   inkscape:connector-curvature="0" />
</g>
<g
   id="LWPOLYLINE_66_"
   transform="translate(-14.174,-63.778999)">
	<rect
   x="168.745"
   y="291.96799"
   style="fill:#101820"
   width="5.9549999"
   height="5.9549999"
   id="rect2431" />
</g>
<g
   id="LWPOLYLINE_67_"
   transform="translate(-14.174,-63.778999)">
	<rect
   x="158.03"
   y="291.96799"
   style="fill:#101820"
   width="5.9549999"
   height="5.9549999"
   id="rect2434" />
</g>
<g
   id="LWPOLYLINE_68_"
   transform="translate(-14.174,-63.778999)">
	<path
   style="fill:#101820"
   d="m 175.493,331.653 h -5.954 v -1.906 c -2.39,1.291 -5.07,1.947 -7.788,1.906 -2.443,0.064 -4.642,-1.477 -5.416,-3.793 -0.967,-3.047 -0.155,-6.375 2.106,-8.627 2.899,-3.113 6.857,-5.016 11.098,-5.334 v -3.082 c 0,-1.643 -1.332,-2.973 -2.973,-2.973 -1.642,0 -2.982,1.33 -2.982,2.973 h -5.945 c 0,-4.934 3.994,-8.928 8.928,-8.928 4.933,0 8.927,3.994 8.927,8.928 v 20.836 z"
   id="path2437"
   inkscape:connector-curvature="0" />
</g>
<g
   id="LWPOLYLINE_70_"
   transform="translate(-14.174,-63.778999)">
	<rect
   x="182.632"
   y="291.96799"
   style="fill:#101820"
   width="5.9549999"
   height="39.686001"
   id="rect2440" />
</g>
<g
   id="LWPOLYLINE_71_"
   transform="translate(-14.174,-63.778999)">
	<rect
   x="196.53"
   y="291.96799"
   style="fill:#101820"
   width="5.9450002"
   height="39.686001"
   id="rect2443" />
</g>
<g
   id="LWPOLYLINE_72_"
   transform="translate(-14.174,-63.778999)">
	<path
   style="fill:#101820"
   d="m 223.111,321.731 h 5.955 c 0,5.48 -4.44,9.922 -9.921,9.922 -5.481,0 -9.922,-4.441 -9.922,-9.922 v -9.92 c 0,-5.48 4.441,-9.922 9.922,-9.922 5.481,0 9.921,4.441 9.921,9.922 v 5.553 h -13.888 v 4.367 c 0,2.189 1.778,3.967 3.967,3.967 2.197,0 3.966,-1.777 3.966,-3.967 z"
   id="path2446"
   inkscape:connector-curvature="0" />
</g>
<g
   id="LWPOLYLINE_74_"
   transform="translate(-14.174,-63.778999)">
	<path
   style="fill:#101820"
   d="m 242.161,311.017 v 20.637 h -5.945 V 301.89 h 5.945 v 1.592 c 2.098,-1.045 4.404,-1.592 6.748,-1.592 v 6.291 c -1.56,-1.531 -4.076,-1.508 -5.608,0.055 -0.73,0.743 -1.14,1.742 -1.14,2.781 z"
   id="path2449"
   inkscape:connector-curvature="0" />
</g>
<g
   id="LWPOLYLINE_75_"
   transform="translate(-14.174,-63.778999)">
	<path
   style="fill:#101820"
   d="m 282.639,321.731 h 5.954 c 0,5.48 -4.44,9.922 -9.921,9.922 -5.481,0 -9.921,-4.441 -9.921,-9.922 v -9.92 c 0,-5.48 4.44,-9.922 9.921,-9.922 5.481,0 9.921,4.441 9.921,9.922 v 5.553 h -13.888 v 4.367 c 0,2.189 1.778,3.967 3.967,3.967 2.198,0 3.967,-1.777 3.967,-3.967 z"
   id="path2452"
   inkscape:connector-curvature="0" />
</g>
<g
   id="LWPOLYLINE_77_"
   transform="translate(-14.174,-63.778999)">
	<path
   style="fill:#101820"
   d="m 301.688,305.194 v 28.971 c 0,4.82 -3.902,8.732 -8.727,8.732 h -0.793 l 0.793,-5.955 c 1.532,0 2.781,-1.24 2.781,-2.777 v -28.971 z"
   id="path2455"
   inkscape:connector-curvature="0" />
</g>
<g
   id="LWPOLYLINE_78_"
   transform="translate(-14.174,-63.778999)">
	<rect
   x="295.74301"
   y="291.96799"
   style="fill:#101820"
   width="5.9450002"
   height="5.9549999"
   id="rect2458" />
</g>
<g
   id="LWPOLYLINE_79_"
   transform="translate(-14.174,-63.778999)">
	<path
   style="fill:#101820"
   d="m 226.312,190.348 c -0.857,-0.939 -1.468,-2.079 -1.778,-3.319 -1.021,-4.104 1.478,-8.252 5.581,-9.273 h 36.895 c 1.249,0 2.262,1.008 2.262,2.252 v 4.783 c 8.899,-1.87 18.101,-1.819 26.982,0.15 2.143,0.848 3.492,2.978 3.355,5.279 -0.173,2.937 -2.699,5.18 -5.635,5.007 -24.411,-5.408 -49.306,6.831 -59.93,29.458 h 42.439 c 7.049,0 12.767,5.713 12.767,12.762 0,7.049 -5.718,12.768 -12.767,12.768 h -59.008 c -8.171,0 -15.703,-4.418 -19.688,-11.549 l -23.627,-42.29 -14.7,33.905 c 1.961,2.307 3.037,5.242 3.019,8.279 -0.036,6.984 -5.727,12.621 -12.721,12.584 -6.984,-0.037 -12.618,-5.73 -12.581,-12.721 0.036,-6.984 5.733,-12.621 12.718,-12.584 l 32.801,-75.623 h 18.092 c 1.44,0.574 2.58,1.714 3.155,3.155 1.167,2.913 -0.246,6.214 -3.155,7.377 h -11.18 l -6.365,14.682 19.269,35.846 c 4.021,7.568 11.571,12.602 20.098,13.408 3.146,-8.283 7.97,-15.816 14.18,-22.135 l -10.787,-12.571 z"
   id="path2461"
   inkscape:connector-curvature="0" />
</g>
<g
   id="LWPOLYLINE_80_"
   transform="translate(-14.174,-63.778999)">
	<path
   style="fill:#101820"
   d="m 159.626,158.2 v 21.562 c 5.954,-0.128 10.678,-5.061 10.541,-11.016 -0.118,-5.772 -4.769,-10.423 -10.541,-10.546 z"
   id="path2464"
   inkscape:connector-curvature="0" />
</g>
<g
   id="LWPOLYLINE_81_"
   transform="translate(-14.174,-63.778999)">
	<path
   style="fill:#101820"
   d="m 242.945,255.237 h 14.436 c 9.246,9.932 24.803,10.486 34.733,1.24 9.93,-9.25 10.486,-24.803 1.239,-34.732 -8.918,-9.57 -23.763,-10.488 -33.775,-2.084 h -15.466 c 3.483,-5.787 8.508,-10.492 14.508,-13.592 17.9,-9.247 39.913,-2.234 49.169,15.676 9.246,17.904 2.225,39.916 -15.675,49.168 -17.91,9.246 -39.923,2.229 -49.169,-15.676 z"
   id="path2467"
   inkscape:connector-curvature="0" />
</g>
<g
   id="LWPOLYLINE_82_"
   transform="translate(-14.174,-63.778999)">
	<path
   style="fill:#101820"
   d="m 168.371,222.354 5.07,-11.689 c 9.456,8.029 14.198,20.316 12.565,32.617 -2.644,19.98 -20.991,34.027 -40.971,31.383 -19.977,-2.648 -34.024,-20.986 -31.38,-40.967 2.649,-19.979 20.987,-34.031 40.964,-31.381 l -5.024,11.598 c -13.575,0.133 -24.473,11.24 -24.34,24.818 0.132,13.568 11.243,24.465 24.814,24.328 13.568,-0.127 24.466,-11.238 24.338,-24.813 -0.054,-5.845 -2.197,-11.479 -6.036,-15.894 z"
   id="path2470"
   inkscape:connector-curvature="0" />
</g>
<g
   id="LWPOLYLINE_60_"
   transform="translate(-14.174,-63.778999)">
	<path
   style="fill:#ffcd00"
   d="m 210.417,123.307 c 0,2.188 1.778,3.967 3.967,3.967 2.189,0 3.967,-1.778 3.967,-3.967 v -9.921 c 0,-2.193 -1.777,-3.966 -3.967,-3.966 -2.188,0 -3.967,1.773 -3.967,3.966 z"
   id="path2473"
   inkscape:connector-curvature="0" />
</g>
<g
   id="LWPOLYLINE_64_"
   transform="translate(-14.174,-63.778999)">
	<path
   style="fill:#ffcd00"
   d="m 285.822,113.782 h 7.933 v -0.397 c 0,-2.193 -1.778,-3.966 -3.966,-3.966 -2.198,0 -3.967,1.773 -3.967,3.966 z"
   id="path2476"
   inkscape:connector-curvature="0" />
</g>
<g
   id="LWPOLYLINE_69_"
   transform="translate(-14.174,-63.778999)">
	<path
   style="fill:#ffcd00"
   d="m 169.539,317.784 c -1.988,0.473 -3.83,1.418 -5.381,2.748 -1.386,1.223 -2.179,2.992 -2.151,4.842 0.027,1.205 1.021,2.158 2.225,2.135 0.101,-0.004 0.2,-0.014 0.301,-0.027 1.751,-0.283 3.447,-0.861 5.007,-1.701 v -7.997 z"
   id="path2479"
   inkscape:connector-curvature="0" />
</g>
<g
   id="LWPOLYLINE_73_"
   transform="translate(-14.174,-63.778999)">
	<path
   style="fill:#ffcd00"
   d="m 215.178,312.208 h 7.933 v -0.396 c 0,-2.193 -1.769,-3.967 -3.966,-3.967 -2.188,0 -3.967,1.773 -3.967,3.967 z"
   id="path2482"
   inkscape:connector-curvature="0" />
</g>
<g
   id="LWPOLYLINE_76_"
   transform="translate(-14.174,-63.778999)">
	<path
   style="fill:#ffcd00"
   d="m 274.706,312.208 h 7.934 v -0.396 c 0,-2.193 -1.77,-3.967 -3.967,-3.967 -2.188,0 -3.967,1.773 -3.967,3.967 z"
   id="path2485"
   inkscape:connector-curvature="0" />
</g>
</svg>