<?xml version="1.0" encoding="iso-8859-1"?>
<!-- Generator: Adobe Illustrator 16.0.0, SVG Export Plug-In . SVG Version: 6.00 Build 0)  -->
<!DOCTYPE svg PUBLIC "-//W3C//DTD SVG 1.1//EN" "http://www.w3.org/Graphics/SVG/1.1/DTD/svg11.dtd">
<svg version="1.1" id="Layer_1" xmlns="http://www.w3.org/2000/svg" xmlns:xlink="http://www.w3.org/1999/xlink" x="0px" y="0px"
	 width="425.197px" height="425.196px" viewBox="0 0 425.197 425.196" style="enable-background:new 0 0 425.197 425.196;"
	 xml:space="preserve">
<g id="LWPOLYLINE_19_">
	<rect x="14.175" y="14.169" style="fill:#FFCD00;" width="396.847" height="396.858"/>
</g>
<g id="LWPOLYLINE_20_">
	<path style="fill:#E4002B;" d="M411.022,373.821V51.374c0-20.551-16.646-37.205-37.205-37.205H51.38
		c-20.552,0-37.205,16.654-37.205,37.205v322.447c0,20.545,16.653,37.206,37.205,37.206h322.437
		C394.375,411.027,411.022,394.366,411.022,373.821z"/>
</g>
<g id="LWPOLYLINE_21_">
	<path style="fill:#FFCD00;" d="M391.189,373.821V51.374c0-9.588-7.783-17.364-17.372-17.364H51.38
		c-9.589,0-17.364,7.776-17.364,17.364v322.447c0,9.589,7.775,17.358,17.364,17.358h322.437
		C383.406,391.18,391.189,383.41,391.189,373.821z"/>
</g>
<g id="LWPOLYLINE_22_">
	<polygon style="fill:#101820;" points="81.938,148.108 114.68,148.108 114.68,139.183 90.863,139.183 90.863,121.318 
		106.938,121.318 106.938,112.394 90.863,112.394 90.863,97.512 114.68,97.512 114.68,88.58 81.938,88.58 	"/>
</g>
<g id="LWPOLYLINE_23_">
	<rect x="125.39" y="103.462" style="fill:#101820;" width="8.933" height="44.646"/>
</g>
<g id="LWPOLYLINE_24_">
	<rect x="125.39" y="88.58" style="fill:#101820;" width="8.933" height="8.932"/>
</g>
<g id="LWPOLYLINE_25_">
	<polygon style="fill:#101820;" points="173.019,148.108 164.086,148.108 164.086,88.58 173.019,88.58 173.019,121.47 
		184.918,103.462 193.851,103.462 183.661,118.747 193.906,148.122 184.918,148.108 177.751,127.611 173.019,134.717 	"/>
</g>
<g id="LWPOLYLINE_26_">
	<path style="fill:#101820;" d="M200.403,133.226c0,8.221,6.661,14.883,14.882,14.883c8.207,0,14.883-6.662,14.883-14.883v-14.882
		c0-8.214-6.676-14.882-14.883-14.882c-8.221,0-14.882,6.668-14.882,14.882V133.226z"/>
</g>
<g id="LWPOLYLINE_28_">
	<path style="fill:#101820;" d="M238.498,133.226c0,8.221,6.661,14.883,14.882,14.883h1.189c7.236,0,13.091-5.861,13.091-13.098
		c0-4.657-2.477-8.966-6.497-11.312l-9.876-5.759c-0.917-0.533-1.478-1.512-1.478-2.571c0-1.642,1.327-2.976,2.968-2.976h1.792
		c1.642,0,2.982,1.334,2.982,2.976h8.918c0-6.58-5.32-11.907-11.9-11.907h-1.792c-6.565,0-11.899,5.327-11.899,11.907
		c0,4.24,2.257,8.152,5.909,10.286l9.875,5.758c1.286,0.746,2.079,2.12,2.079,3.598c0,2.305-1.874,4.172-4.172,4.172h-1.189
		c-3.283,0-5.95-2.667-5.95-5.957H238.498z"/>
</g>
<g id="LWPOLYLINE_29_">
	<polygon style="fill:#101820;" points="286.713,148.108 277.782,148.108 277.782,88.58 286.713,88.58 286.713,121.47 
		298.614,103.462 307.545,103.462 297.355,118.747 307.614,148.122 298.614,148.108 291.446,127.611 286.713,134.717 	"/>
</g>
<g id="LWPOLYLINE_30_">
	<path style="fill:#101820;" d="M334.341,133.226h8.918c0,8.221-6.661,14.883-14.882,14.883c-8.207,0-14.882-6.662-14.882-14.883
		v-14.882c0-8.214,6.675-14.882,14.882-14.882c8.221,0,14.882,6.668,14.882,14.882v8.337h-20.832v6.545
		c0,3.29,2.668,5.957,5.95,5.957C331.674,139.183,334.341,136.516,334.341,133.226z"/>
</g>
<g id="LWPOLYLINE_35_">
	<path style="fill:#101820;" d="M250.63,235.984l11.093,15.84c4.254-2.517,8.891-4.322,13.733-5.348
		c24.621-5.226,48.804,10.505,54.029,35.126c5.211,24.614-10.505,48.804-35.126,54.022c-24.621,5.218-48.805-10.505-54.03-35.119
		h-15.935c-3.666,0-7.168-1.546-9.63-4.261l-53.619-57.169l-3.064,10.026c19.643,8.33,30.872,29.169,27.028,50.158
		c-4.527,24.751-28.272,41.145-53.03,36.61c-24.744-4.534-41.142-28.28-36.601-53.031c4.528-24.751,28.271-41.145,53.028-36.61
		l13.008-42.696c1.956-6.402,7.865-10.779,14.554-10.779h17.563v9.999h-17.563c-2.284,0-4.322,1.498-4.979,3.7l-3.652,11.955
		l74.273,12.844l7.66-20.695l-16.879-4.63c-1.013-0.39-1.669-1.389-1.601-2.476c0.068-1.375,1.244-2.429,2.626-2.354h1.327h36.48
		v9.855h-11.449L250.63,235.984z"/>
</g>
<g id="LWPOLYLINE_27_">
	<path style="fill:#FFCD00;" d="M209.321,133.226c0,3.29,2.668,5.957,5.964,5.957c3.283,0,5.95-2.667,5.95-5.957v-14.882
		c0-3.29-2.667-5.95-5.95-5.95c-3.296,0-5.964,2.66-5.964,5.95V133.226z"/>
</g>
<g id="LWPOLYLINE_31_">
	<path style="fill:#FFCD00;" d="M322.427,118.938h11.914v-0.595c0-3.29-2.667-5.95-5.964-5.95c-3.282,0-5.95,2.66-5.95,5.95V118.938
		z"/>
</g>
<g id="LWPOLYLINE_32_">
	<path style="fill:#FFCD00;" d="M164.51,228.045l73.672,12.748l-17.439,47.17C220.743,287.963,164.497,228.037,164.51,228.045z"/>
</g>
<g id="LWPOLYLINE_33_">
	<path style="fill:#FFCD00;" d="M259.535,266.125c-6.401,6.518-10.054,15.244-10.19,24.382h27.261L259.535,266.125z"/>
</g>
<g id="LWPOLYLINE_34_">
	<path style="fill:#FFCD00;" d="M239.345,290.507c0.15-12.393,5.335-24.197,14.376-32.678l-7.318-10.437l-15.935,43.114h8.945
		H239.345z"/>
</g>
<g id="LWPOLYLINE_36_">
	<path style="fill:#FFCD00;" d="M288.628,290.24c0.766,1.094,1.176,2.4,1.176,3.741c0,3.597-2.913,6.524-6.511,6.524h-32.677
		c5.225,18.931,24.799,30.051,43.743,24.833c18.931-5.219,30.051-24.806,24.84-43.736c-5.226-18.945-24.813-30.065-43.743-24.841
		c-2.791,0.767-5.458,1.867-7.975,3.283L288.628,290.24z"/>
</g>
<g id="LWPOLYLINE_37_">
	<path style="fill:#FFCD00;" d="M155.155,258.732l-9.999,32.8c-0.068,0.302-0.15,0.589-0.273,0.862
		c-1.04,2.571-3.967,3.803-6.538,2.763c-2.559-1.039-3.803-3.967-2.764-6.538l9.985-32.746
		c-19.423-2.913-37.533,10.478-40.446,29.908c-2.91,19.423,10.478,37.533,29.9,40.439c19.438,2.914,37.533-10.478,40.447-29.9
		C177.82,280.665,169.531,265.339,155.155,258.732z"/>
</g>
</svg>
