<?xml version="1.0" encoding="iso-8859-1"?>
<!-- Generator: Adobe Illustrator 16.0.0, SVG Export Plug-In . SVG Version: 6.00 Build 0)  -->
<!DOCTYPE svg PUBLIC "-//W3C//DTD SVG 1.1//EN" "http://www.w3.org/Graphics/SVG/1.1/DTD/svg11.dtd">
<svg version="1.1" id="Layer_1" xmlns="http://www.w3.org/2000/svg" xmlns:xlink="http://www.w3.org/1999/xlink" x="0px" y="0px"
	 width="425.197px" height="425.196px" viewBox="0 0 425.197 425.196" style="enable-background:new 0 0 425.197 425.196;"
	 xml:space="preserve">
<g id="LWPOLYLINE_144_">
	<rect x="14.172" y="113.385" style="fill:#FFCD00;" width="396.853" height="198.427"/>
</g>
<g id="LWPOLYLINE_142_">
	<path style="fill:#E4002B;" d="M40.632,311.812H384.57c14.612,0,26.455-11.847,26.455-26.46V139.845
		c0-14.613-11.843-26.46-26.455-26.46H40.632c-14.613,0-26.46,11.847-26.46,26.46v145.507
		C14.172,299.965,26.019,311.812,40.632,311.812z"/>
</g>
<g id="LWPOLYLINE_143_">
	<path style="fill:#FFCD00;" d="M40.632,298.584H384.57c7.302,0,13.228-5.926,13.228-13.232V139.845
		c0-7.312-5.926-13.232-13.228-13.232H40.632c-7.306,0-13.232,5.921-13.232,13.232v145.507
		C27.399,292.658,33.326,298.584,40.632,298.584z"/>
</g>
<g id="LWPOLYLINE_154_">
	<path style="fill:#101820;" d="M244.838,188.444l9.332,13.329c3.588-2.117,7.484-3.637,11.563-4.498
		c20.713-4.396,41.068,8.836,45.455,29.553c4.396,20.712-8.841,41.068-29.553,45.465c-20.712,4.387-41.068-8.841-45.464-29.558
		H222.77c-3.088,0-6.031-1.299-8.109-3.584l-45.127-48.109l-2.569,8.437c16.527,7.014,25.983,24.551,22.751,42.213
		c-3.819,20.827-23.8,34.623-44.627,30.804c-20.827-3.814-34.622-23.791-30.803-44.623c3.81-20.832,23.791-34.622,44.618-30.808
		l10.958-35.922c1.635-5.392,6.609-9.071,12.246-9.071h14.767v8.413h-14.767c-1.934,0-3.636,1.265-4.204,3.111l-3.069,10.059
		l62.502,10.813l6.445-17.417l-14.199-3.896c-0.856-0.327-1.404-1.169-1.356-2.083c0.067-1.159,1.059-2.044,2.222-1.981h1.106
		h30.697v8.298h-9.629L244.838,188.444z"/>
</g>
<g id="LWPOLYLINE_151_">
	<polygon style="fill:#FFCD00;" points="172.371,181.769 234.373,192.49 219.692,232.187 	"/>
</g>
<g id="LWPOLYLINE_152_">
	<path style="fill:#FFCD00;" d="M252.333,213.813c-5.387,5.483-8.456,12.823-8.571,20.51h22.935L252.333,213.813z"/>
</g>
<g id="LWPOLYLINE_153_">
	<path style="fill:#FFCD00;" d="M235.344,234.322c0.125-10.428,4.492-20.355,12.092-27.494l-6.147-8.783l-13.42,36.277h7.533
		H235.344z"/>
</g>
<g id="LWPOLYLINE_155_">
	<path style="fill:#FFCD00;" d="M276.816,234.102c0.645,0.923,0.991,2.02,0.991,3.146c0,3.03-2.453,5.488-5.484,5.488h-27.494
		c4.396,15.936,20.876,25.291,36.807,20.899c15.94-4.396,25.291-20.871,20.904-36.807c-4.396-15.936-20.875-25.291-36.807-20.899
		c-2.347,0.645-4.598,1.573-6.714,2.766L276.816,234.102"/>
</g>
<g id="LWPOLYLINE_156_">
	<path style="fill:#FFCD00;" d="M164.492,207.588l-8.408,27.601c-0.058,0.25-0.125,0.49-0.222,0.722
		c-0.875,2.164-3.338,3.203-5.502,2.328c-2.165-0.876-3.204-3.339-2.328-5.503l8.398-27.552
		c-16.344-2.448-31.583,8.816-34.036,25.166c-2.443,16.344,8.821,31.582,25.166,34.03c16.344,2.448,31.583-8.816,34.036-25.161
		C183.569,226.04,176.604,213.148,164.492,207.588z"/>
</g>
</svg>
