<?xml version="1.0" encoding="iso-8859-1"?>
<!-- Generator: Adobe Illustrator 16.0.0, SVG Export Plug-In . SVG Version: 6.00 Build 0)  -->
<!DOCTYPE svg PUBLIC "-//W3C//DTD SVG 1.1//EN" "http://www.w3.org/Graphics/SVG/1.1/DTD/svg11.dtd">
<svg version="1.1" id="Layer_1" xmlns="http://www.w3.org/2000/svg" xmlns:xlink="http://www.w3.org/1999/xlink" x="0px" y="0px"
	 width="425.197px" height="425.196px" viewBox="0 0 425.197 425.196" style="enable-background:new 0 0 425.197 425.196;"
	 xml:space="preserve">
<g id="LWPOLYLINE_17_">
	<rect x="14.174" y="96.849" style="fill:#FFCD00;" width="396.849" height="231.499"/>
</g>
<g id="LWPOLYLINE_16_">
	<path style="fill:#E4002B;" d="M40.627,328.348h343.941c14.608,0,26.454-11.846,26.454-26.459V123.307
		c0-14.613-11.846-26.458-26.454-26.458H40.627c-14.607,0-26.453,11.845-26.453,26.458v178.582
		C14.174,316.502,26.02,328.348,40.627,328.348z"/>
</g>
<g id="LWPOLYLINE_15_">
	<path style="fill:#FFCD00;" d="M40.627,315.116h343.941c7.304,0,13.223-5.919,13.223-13.228V123.307
		c0-7.305-5.919-13.227-13.223-13.227H40.627c-7.304,0-13.227,5.922-13.227,13.227v178.582
		C27.401,309.197,33.324,315.116,40.627,315.116z"/>
</g>
<g id="LWPOLYLINE_18_">
	<polygon style="fill:#101820;" points="125.488,169.607 147.316,169.607 147.316,163.652 131.442,163.652 131.442,151.748 
		142.157,151.748 142.157,145.798 131.442,145.798 131.442,135.877 147.316,135.877 147.316,129.922 125.488,129.922 	"/>
</g>
<g id="LWPOLYLINE_19_">
	<rect x="154.456" y="139.844" style="fill:#101820;" width="5.955" height="29.764"/>
</g>
<g id="LWPOLYLINE_20_">
	<rect x="154.456" y="129.922" style="fill:#101820;" width="5.955" height="5.955"/>
</g>
<g id="LWPOLYLINE_21_">
	<polygon style="fill:#101820;" points="186.208,169.607 180.252,169.607 180.252,129.922 186.208,129.922 186.208,151.853 
		194.141,139.844 200.095,139.844 193.302,150.034 200.141,169.616 194.141,169.607 189.363,155.947 186.208,160.68 	"/>
</g>
<g id="LWPOLYLINE_22_">
	<path style="fill:#101820;" d="M204.463,159.686c0,5.48,4.44,9.922,9.921,9.922s9.922-4.441,9.922-9.922v-9.921
		c0-5.48-4.441-9.921-9.922-9.921s-9.921,4.44-9.921,9.921V159.686z"/>
</g>
<g id="LWPOLYLINE_24_">
	<path style="fill:#101820;" d="M229.859,159.686c0,5.48,4.441,9.922,9.922,9.922h0.793c4.824,0,8.736-3.912,8.736-8.731
		c0-3.104-1.65-5.978-4.341-7.546l-6.584-3.839c-0.61-0.355-0.984-1.003-0.984-1.715c0-1.094,0.894-1.979,1.987-1.979h1.186
		c1.095,0,1.988,0.885,1.988,1.979h5.954c0-4.381-3.556-7.933-7.942-7.933h-1.186c-4.386,0-7.942,3.552-7.942,7.933
		c0,2.827,1.505,5.436,3.939,6.857l6.593,3.84c0.848,0.501,1.377,1.413,1.377,2.402c0,1.536-1.24,2.776-2.781,2.776h-0.793
		c-2.188,0-3.967-1.777-3.967-3.967H229.859z"/>
</g>
<g id="LWPOLYLINE_25_">
	<polygon style="fill:#101820;" points="262.003,169.607 256.058,169.607 256.058,129.922 262.003,129.922 262.003,151.853 
		269.946,139.844 275.9,139.844 269.097,150.034 275.937,169.616 269.946,169.607 265.158,155.947 262.003,160.68 	"/>
</g>
<g id="LWPOLYLINE_26_">
	<path style="fill:#101820;" d="M293.754,159.686h5.955c0,5.48-4.441,9.922-9.921,9.922c-5.48,0-9.922-4.441-9.922-9.922v-9.921
		c0-5.48,4.441-9.921,9.922-9.921c5.479,0,9.921,4.44,9.921,9.921v5.554h-13.888v4.367c0,2.189,1.769,3.967,3.967,3.967
		C291.976,163.652,293.754,161.875,293.754,159.686z"/>
</g>
<g id="LWPOLYLINE_23_">
	<path style="fill:#FFCD00;" d="M210.417,159.686c0,2.189,1.778,3.967,3.967,3.967c2.189,0,3.967-1.777,3.967-3.967v-9.921
		c0-2.193-1.777-3.967-3.967-3.967c-2.188,0-3.967,1.773-3.967,3.967V159.686z"/>
</g>
<g id="LWPOLYLINE_27_">
	<path style="fill:#FFCD00;" d="M285.822,150.161h7.933v-0.396c0-2.193-1.778-3.967-3.966-3.967c-2.198,0-3.967,1.773-3.967,3.967
		V150.161z"/>
</g>
<path style="fill:#101820;" d="M122.824,277.647c0-9.74-7.888-17.627-17.627-17.627s-17.626,7.887-17.626,17.627
	c0,9.738,7.887,17.627,17.626,17.627S122.824,287.386,122.824,277.647"/>
<path style="fill:#101820;" d="M298.981,277.706c0-9.734-7.897-17.631-17.636-17.631c-9.729,0-17.627,7.896-17.627,17.631
	s7.897,17.631,17.627,17.631C291.083,295.337,298.981,287.44,298.981,277.706"/>
<path style="fill:#101820;" d="M143.258,259.091h19.797v-6.602h-19.797v-61.352h208.237v63.42h-27.21v6.604h19.797v16.541
	l-41.408,0.027c0.182-11.781-9.22-21.475-21.001-21.658c-11.772-0.182-21.475,9.221-21.657,21.002c0,0.199,0,0.396,0,0.596h-133.49
	c0.183-11.781-9.219-21.479-21.001-21.66c-11.781-0.178-21.475,9.223-21.657,21c-0.009,0.219-0.009,0.441,0,0.66H73.701v-36.68
	l15.429-33.68h47.564v51.781H143.258z"/>
<polygon style="fill:#FFCD00;" points="124.583,213.97 94.181,213.97 82.455,239.567 124.583,239.567 "/>
</svg>
