<?xml version="1.0" encoding="UTF-8" standalone="no"?>
<!-- Generator: Adobe Illustrator 16.0.0, SVG Export Plug-In . SVG Version: 6.00 Build 0)  -->

<svg
   xmlns:dc="http://purl.org/dc/elements/1.1/"
   xmlns:cc="http://creativecommons.org/ns#"
   xmlns:rdf="http://www.w3.org/1999/02/22-rdf-syntax-ns#"
   xmlns:svg="http://www.w3.org/2000/svg"
   xmlns="http://www.w3.org/2000/svg"
   xmlns:sodipodi="http://sodipodi.sourceforge.net/DTD/sodipodi-0.dtd"
   xmlns:inkscape="http://www.inkscape.org/namespaces/inkscape"
   version="1.1"
   id="Layer_1"
   x="0px"
   y="0px"
   width="396.853"
   height="198.427"
   viewBox="0 0 396.85301 198.427"
   xml:space="preserve"
   sodipodi:docname="H12.9_Mopo.svg"
   inkscape:version="0.92.5 (2060ec1f9f, 2020-04-08)"><metadata
   id="metadata2521"><rdf:RDF><cc:Work
       rdf:about=""><dc:format>image/svg+xml</dc:format><dc:type
         rdf:resource="http://purl.org/dc/dcmitype/StillImage" /></cc:Work></rdf:RDF></metadata><defs
   id="defs2519" /><sodipodi:namedview
   pagecolor="#ffffff"
   bordercolor="#666666"
   borderopacity="1"
   objecttolerance="10"
   gridtolerance="10"
   guidetolerance="10"
   inkscape:pageopacity="0"
   inkscape:pageshadow="2"
   inkscape:window-width="640"
   inkscape:window-height="480"
   id="namedview2517"
   showgrid="false"
   inkscape:zoom="0.55503813"
   inkscape:cx="198.4265"
   inkscape:cy="99.213997"
   inkscape:window-x="0"
   inkscape:window-y="0"
   inkscape:window-maximized="0"
   inkscape:current-layer="Layer_1" />
<g
   id="LWPOLYLINE_144_"
   transform="translate(-14.172,-113.385)">
	<rect
   x="14.172"
   y="113.385"
   style="fill:#ffcd00"
   width="396.853"
   height="198.427"
   id="rect2495" />
</g>
<g
   id="LWPOLYLINE_142_"
   transform="translate(-14.172,-113.385)">
	<path
   style="fill:#e4002b"
   d="M 40.632,311.812 H 384.57 c 14.612,0 26.455,-11.847 26.455,-26.46 V 139.845 c 0,-14.613 -11.843,-26.46 -26.455,-26.46 H 40.632 c -14.613,0 -26.46,11.847 -26.46,26.46 v 145.507 c 0,14.613 11.847,26.46 26.46,26.46 z"
   id="path2498"
   inkscape:connector-curvature="0" />
</g>
<g
   id="LWPOLYLINE_143_"
   transform="translate(-14.172,-113.385)">
	<path
   style="fill:#ffcd00"
   d="M 40.632,298.584 H 384.57 c 7.302,0 13.228,-5.926 13.228,-13.232 V 139.845 c 0,-7.312 -5.926,-13.232 -13.228,-13.232 H 40.632 c -7.306,0 -13.232,5.921 -13.232,13.232 v 145.507 c -10e-4,7.306 5.926,13.232 13.232,13.232 z"
   id="path2501"
   inkscape:connector-curvature="0" />
</g>
<g
   id="LWPOLYLINE_149_"
   transform="translate(-14.172,-113.385)">
	<path
   style="fill:#101820"
   d="m 226.32,190.35 c -0.865,-0.943 -1.472,-2.083 -1.779,-3.319 -1.029,-4.103 1.472,-8.254 5.57,-9.278 h 36.902 c 1.25,0 2.261,1.01 2.261,2.256 v 4.781 c 8.898,-1.866 18.095,-1.818 26.975,0.154 2.145,0.846 3.501,2.973 3.367,5.271 -0.174,2.943 -2.704,5.186 -5.647,5.012 -24.406,-5.406 -49.293,6.83 -59.923,29.457 h 42.434 c 7.052,0 12.766,5.714 12.766,12.766 0,7.051 -5.714,12.766 -12.766,12.766 h -59 c -8.177,0 -15.699,-4.42 -19.691,-11.554 l -23.627,-42.285 -14.7,33.901 c 1.962,2.309 3.04,5.248 3.021,8.278 -0.039,6.988 -5.734,12.621 -12.718,12.588 -6.984,-0.039 -12.622,-5.734 -12.583,-12.723 0.038,-6.984 5.733,-12.622 12.718,-12.583 l 32.794,-75.623 h 18.095 c 1.443,0.577 2.578,1.717 3.155,3.16 1.164,2.91 -0.25,6.209 -3.155,7.373 H 189.61 l -6.368,14.681 19.269,35.845 c 4.021,7.57 11.573,12.606 20.097,13.41 3.146,-8.283 7.975,-15.815 14.189,-22.136 l -10.794,-12.569 z"
   id="path2504"
   inkscape:connector-curvature="0" />
</g>
<g
   id="LWPOLYLINE_150_"
   transform="translate(-14.172,-113.385)">
	<path
   style="fill:#101820"
   d="m 159.625,158.199 v 21.563 c 5.955,-0.13 10.678,-5.065 10.543,-11.02 -0.125,-5.771 -4.772,-10.418 -10.543,-10.543 z"
   id="path2507"
   inkscape:connector-curvature="0" />
</g>
<g
   id="LWPOLYLINE_151_"
   transform="translate(-14.172,-113.385)">
	<path
   style="fill:#101820"
   d="m 242.944,255.236 h 14.439 c 9.245,9.938 24.801,10.486 34.729,1.241 9.938,-9.255 10.485,-24.801 1.24,-34.738 -8.907,-9.567 -23.761,-10.485 -33.775,-2.077 h -15.469 c 3.492,-5.787 8.514,-10.491 14.507,-13.594 17.912,-9.245 39.923,-2.231 49.168,15.671 9.255,17.908 2.231,39.923 -15.671,49.168 -17.904,9.255 -39.914,2.233 -49.168,-15.671 z"
   id="path2510"
   inkscape:connector-curvature="0" />
</g>
<g
   id="LWPOLYLINE_152_"
   transform="translate(-14.172,-113.385)">
	<path
   style="fill:#101820"
   d="m 168.369,222.355 5.07,-11.688 c 9.466,8.028 14.199,20.313 12.563,32.612 -2.646,19.98 -20.981,34.03 -40.962,31.385 -19.981,-2.645 -34.026,-20.986 -31.381,-40.967 2.646,-19.977 20.981,-34.026 40.962,-31.381 l -5.031,11.602 c -13.574,0.131 -24.464,11.236 -24.329,24.811 0.125,13.574 11.236,24.469 24.81,24.339 13.574,-0.135 24.464,-11.246 24.339,-24.82 -0.057,-5.845 -2.202,-11.477 -6.041,-15.893 z"
   id="path2513"
   inkscape:connector-curvature="0" />
</g>
</svg>