<?xml version="1.0" encoding="UTF-8" standalone="no"?>
<!-- Generator: Adobe Illustrator 16.0.0, SVG Export Plug-In . SVG Version: 6.00 Build 0)  -->

<svg
   xmlns:dc="http://purl.org/dc/elements/1.1/"
   xmlns:cc="http://creativecommons.org/ns#"
   xmlns:rdf="http://www.w3.org/1999/02/22-rdf-syntax-ns#"
   xmlns:svg="http://www.w3.org/2000/svg"
   xmlns="http://www.w3.org/2000/svg"
   xmlns:sodipodi="http://sodipodi.sourceforge.net/DTD/sodipodi-0.dtd"
   xmlns:inkscape="http://www.inkscape.org/namespaces/inkscape"
   version="1.1"
   id="Layer_1"
   x="0px"
   y="0px"
   width="396.849"
   height="264.57001"
   viewBox="0 0 396.84901 264.57"
   xml:space="preserve"
   sodipodi:docname="H12.2_2_2.svg"
   inkscape:version="0.92.5 (2060ec1f9f, 2020-04-08)"><metadata
   id="metadata1187"><rdf:RDF><cc:Work
       rdf:about=""><dc:format>image/svg+xml</dc:format><dc:type
         rdf:resource="http://purl.org/dc/dcmitype/StillImage" /></cc:Work></rdf:RDF></metadata><defs
   id="defs1185" /><sodipodi:namedview
   pagecolor="#ffffff"
   bordercolor="#666666"
   borderopacity="1"
   objecttolerance="10"
   gridtolerance="10"
   guidetolerance="10"
   inkscape:pageopacity="0"
   inkscape:pageshadow="2"
   inkscape:window-width="640"
   inkscape:window-height="480"
   id="namedview1183"
   showgrid="false"
   inkscape:zoom="0.55503813"
   inkscape:cx="198.4245"
   inkscape:cy="132.28499"
   inkscape:window-x="0"
   inkscape:window-y="0"
   inkscape:window-maximized="0"
   inkscape:current-layer="Layer_1" />
<g
   id="LWPOLYLINE_33_"
   transform="translate(-14.174,-80.313)">
	<rect
   x="14.174"
   y="80.313004"
   style="fill:#ffcd00"
   width="396.849"
   height="264.569"
   id="rect1077" />
</g>
<g
   id="LWPOLYLINE_36_"
   transform="translate(-14.174,-80.313)">
	<path
   style="fill:#e4002b"
   d="m 40.627,344.883 h 343.941 c 14.608,0 26.454,-11.846 26.454,-26.459 V 106.771 c 0,-14.612 -11.846,-26.458 -26.454,-26.458 H 40.627 c -14.608,0 -26.453,11.846 -26.453,26.458 v 211.652 c 0,14.614 11.845,26.46 26.453,26.46 z"
   id="path1080"
   inkscape:connector-curvature="0" />
</g>
<g
   id="LWPOLYLINE_35_"
   transform="translate(-14.174,-80.313)">
	<path
   style="fill:#ffcd00"
   d="m 40.627,331.651 h 343.941 c 7.305,0 13.223,-5.919 13.223,-13.228 V 106.771 c 0,-7.304 -5.918,-13.23 -13.223,-13.23 H 40.627 c -7.304,0 -13.227,5.927 -13.227,13.23 v 211.652 c 0.001,7.309 5.924,13.228 13.227,13.228 z"
   id="path1083"
   inkscape:connector-curvature="0" />
</g>
<g
   id="LWPOLYLINE_59_"
   transform="translate(-14.174,-80.313)">
	<polygon
   style="fill:#101820"
   points="147.318,143.813 131.442,143.813 131.442,131.903 142.157,131.903 142.157,125.953 131.442,125.953 131.442,116.032 147.318,116.032 147.318,110.077 125.488,110.077 125.488,149.763 147.318,149.763 "
   id="polygon1086" />
</g>
<g
   id="LWPOLYLINE_60_"
   transform="translate(-14.174,-80.313)">
	<rect
   x="154.45799"
   y="119.999"
   style="fill:#101820"
   width="5.9549999"
   height="29.764"
   id="rect1089" />
</g>
<g
   id="LWPOLYLINE_61_"
   transform="translate(-14.174,-80.313)">
	<rect
   x="154.45799"
   y="110.077"
   style="fill:#101820"
   width="5.9549999"
   height="5.9549999"
   id="rect1092" />
</g>
<g
   id="LWPOLYLINE_62_"
   transform="translate(-14.174,-80.313)">
	<polygon
   style="fill:#101820"
   points="180.255,110.077 186.209,110.077 186.209,132.004 194.143,119.999 200.097,119.999 193.304,130.189 200.138,149.771 194.143,149.763 189.365,136.098 186.209,140.835 186.209,149.763 180.255,149.763 "
   id="polygon1095" />
</g>
<g
   id="LWPOLYLINE_63_"
   transform="translate(-14.174,-80.313)">
	<path
   style="fill:#101820"
   d="m 204.46,139.841 c 0,5.48 4.446,9.922 9.922,9.922 5.48,0 9.921,-4.441 9.921,-9.922 v -9.921 c 0,-5.476 -4.44,-9.921 -9.921,-9.921 -5.476,0 -9.922,4.445 -9.922,9.921 z"
   id="path1098"
   inkscape:connector-curvature="0" />
</g>
<g
   id="LWPOLYLINE_65_"
   transform="translate(-14.174,-80.313)">
	<path
   style="fill:#101820"
   d="m 229.862,139.841 c 0,5.48 4.44,9.922 9.921,9.922 h 0.791 c 4.824,0 8.736,-3.907 8.736,-8.731 0,-3.104 -1.651,-5.978 -4.341,-7.541 l -6.582,-3.839 c -0.61,-0.356 -0.984,-1.008 -0.984,-1.715 0,-1.094 0.889,-1.983 1.983,-1.983 h 1.188 c 1.095,0 1.988,0.89 1.988,1.983 h 5.954 c 0,-4.386 -3.556,-7.938 -7.942,-7.938 h -1.188 c -4.382,0 -7.938,3.552 -7.938,7.938 0,2.827 1.501,5.435 3.939,6.857 l 6.591,3.839 c 0.848,0.497 1.377,1.414 1.377,2.398 0,1.536 -1.24,2.781 -2.781,2.781 h -0.791 c -2.193,0 -3.967,-1.778 -3.967,-3.972 h -5.954 z"
   id="path1101"
   inkscape:connector-curvature="0" />
</g>
<g
   id="LWPOLYLINE_66_"
   transform="translate(-14.174,-80.313)">
	<polygon
   style="fill:#101820"
   points="256.057,110.077 262.003,110.077 262.003,132.004 269.946,119.999 275.9,119.999 269.097,130.189 275.937,149.771 269.946,149.763 265.158,136.098 262.003,140.835 262.003,149.763 256.057,149.763 "
   id="polygon1104" />
</g>
<g
   id="LWPOLYLINE_67_"
   transform="translate(-14.174,-80.313)">
	<path
   style="fill:#101820"
   d="m 293.754,139.841 h 5.955 c 0,5.48 -4.441,9.922 -9.922,9.922 -5.479,0 -9.921,-4.441 -9.921,-9.922 v -9.921 c 0,-5.476 4.441,-9.921 9.921,-9.921 5.48,0 9.922,4.445 9.922,9.921 v 5.558 h -13.888 v 4.363 c 0,2.193 1.769,3.972 3.966,3.972 2.189,0 3.967,-1.779 3.967,-3.972 z"
   id="path1107"
   inkscape:connector-curvature="0" />
</g>
<g
   id="CIRCLE_2_"
   transform="translate(-14.174,-80.313)">
	<path
   style="fill:#101820"
   d="m 158.735,249.24 c 0,-8.9 -7.218,-16.118 -16.118,-16.118 -8.904,0 -16.122,7.218 -16.122,16.118 0,8.904 7.218,16.117 16.122,16.117 8.9,0 16.118,-7.212 16.118,-16.117 z"
   id="path1110"
   inkscape:connector-curvature="0" />
</g>
<g
   id="LWPOLYLINE_69_"
   transform="translate(-14.174,-80.313)">
	<path
   style="fill:#101820"
   d="m 293.727,250.074 h 32.181 c 3.173,0 5.745,-2.567 5.745,-5.74 v -72.139 c 0,-3.174 -2.572,-5.741 -5.745,-5.741 H 111.973 c -2.621,0 -4.915,1.774 -5.563,4.313 l -12.866,50.3 v 29.007 h 28.573 c -0.022,-0.557 -0.022,-1.112 0,-1.669 0.461,-11.321 10.013,-20.125 21.334,-19.66 11.321,0.461 20.12,10.013 19.66,21.329 h 89.617 c -0.027,-0.557 -0.027,-1.112 0,-1.669 0.465,-11.321 10.013,-20.125 21.338,-19.66 11.317,0.461 20.117,10.013 19.661,21.329 z"
   id="path1113"
   inkscape:connector-curvature="0" />
</g>
<g
   id="ELLIPSE_2_"
   transform="translate(-14.174,-80.313)">
	<path
   style="fill:#101820"
   d="m 289.341,249.24 c 0,-8.9 -7.213,-16.118 -16.113,-16.118 -8.899,0 -16.122,7.218 -16.122,16.118 0,8.904 7.223,16.117 16.122,16.117 8.9,0 16.113,-7.212 16.113,-16.117"
   id="path1116"
   inkscape:connector-curvature="0" />
</g>
<g
   id="LWPOLYLINE_75_"
   transform="translate(-14.174,-80.313)">
	<path
   style="fill:#101820"
   d="m 145.33,315.119 h 3.972 v -21.831 h -12.898 v 5.955 h 6.943 v 2.781 0.195 c 0,3.835 -3.109,6.944 -6.943,6.944 -3.835,0 -6.944,-3.109 -6.944,-6.944 v -13.893 c 0,-3.829 3.109,-6.938 6.944,-6.938 3.834,0 6.943,3.109 6.943,6.938 h 5.955 c 0,-7.121 -5.776,-12.894 -12.898,-12.894 -7.122,0 -12.898,5.772 -12.898,12.894 v 13.893 c 0.004,7.108 5.771,12.862 12.88,12.858 2.636,-0.005 5.207,-0.816 7.368,-2.33 z"
   id="path1119"
   inkscape:connector-curvature="0" />
</g>
<g
   id="LWPOLYLINE_76_"
   transform="translate(-14.174,-80.313)">
	<rect
   x="168.74699"
   y="275.43399"
   style="fill:#101820"
   width="5.9499998"
   height="5.9549999"
   id="rect1122" />
</g>
<g
   id="LWPOLYLINE_77_"
   transform="translate(-14.174,-80.313)">
	<rect
   x="158.033"
   y="275.43399"
   style="fill:#101820"
   width="5.9499998"
   height="5.9549999"
   id="rect1125" />
</g>
<g
   id="LWPOLYLINE_78_"
   transform="translate(-14.174,-80.313)">
	<path
   style="fill:#101820"
   d="m 175.491,315.119 h -5.95 v -1.906 c -2.39,1.29 -5.075,1.947 -7.792,1.906 -2.439,0.063 -4.642,-1.478 -5.417,-3.794 -0.967,-3.046 -0.15,-6.374 2.111,-8.626 2.896,-3.114 6.857,-5.016 11.098,-5.335 v -3.082 c 0,-1.642 -1.331,-2.973 -2.978,-2.973 -1.642,0 -2.978,1.331 -2.978,2.973 h -5.949 c 0,-4.934 3.993,-8.928 8.927,-8.928 4.934,0 8.928,3.994 8.928,8.928 z"
   id="path1128"
   inkscape:connector-curvature="0" />
</g>
<g
   id="LWPOLYLINE_80_"
   transform="translate(-14.174,-80.313)">
	<rect
   x="182.63499"
   y="275.43399"
   style="fill:#101820"
   width="5.954"
   height="39.686001"
   id="rect1131" />
</g>
<g
   id="LWPOLYLINE_81_"
   transform="translate(-14.174,-80.313)">
	<rect
   x="196.528"
   y="275.43399"
   style="fill:#101820"
   width="5.9489999"
   height="39.686001"
   id="rect1134" />
</g>
<g
   id="LWPOLYLINE_82_"
   transform="translate(-14.174,-80.313)">
	<path
   style="fill:#101820"
   d="m 223.114,305.197 h 5.954 c 0,5.48 -4.44,9.922 -9.921,9.922 -5.481,0 -9.922,-4.441 -9.922,-9.922 v -9.921 c 0,-5.48 4.441,-9.922 9.922,-9.922 5.481,0 9.921,4.441 9.921,9.922 v 5.553 h -13.893 v 4.368 c 0,2.188 1.778,3.967 3.972,3.967 2.194,0 3.967,-1.778 3.967,-3.967 z"
   id="path1137"
   inkscape:connector-curvature="0" />
</g>
<g
   id="LWPOLYLINE_84_"
   transform="translate(-14.174,-80.313)">
	<path
   style="fill:#101820"
   d="m 242.161,294.482 v 20.637 h -5.948 v -29.765 h 5.948 v 1.592 c 2.097,-1.044 4.404,-1.592 6.748,-1.592 v 6.292 c -1.56,-1.531 -4.076,-1.509 -5.608,0.055 -0.73,0.743 -1.14,1.742 -1.14,2.781 z"
   id="path1140"
   inkscape:connector-curvature="0" />
</g>
<g
   id="LWPOLYLINE_85_"
   transform="translate(-14.174,-80.313)">
	<path
   style="fill:#101820"
   d="m 282.639,305.197 h 5.954 c 0,5.48 -4.44,9.922 -9.921,9.922 -5.481,0 -9.922,-4.441 -9.922,-9.922 v -9.921 c 0,-5.48 4.441,-9.922 9.922,-9.922 5.481,0 9.921,4.441 9.921,9.922 v 5.553 h -13.888 v 4.368 c 0,2.188 1.778,3.967 3.967,3.967 2.198,0 3.967,-1.778 3.967,-3.967 z"
   id="path1143"
   inkscape:connector-curvature="0" />
</g>
<g
   id="LWPOLYLINE_87_"
   transform="translate(-14.174,-80.313)">
	<path
   style="fill:#101820"
   d="m 301.688,288.66 v 28.971 c 0,4.819 -3.902,8.731 -8.727,8.731 h -0.793 l 0.793,-5.955 c 1.532,0 2.781,-1.24 2.781,-2.776 V 288.66 Z"
   id="path1146"
   inkscape:connector-curvature="0" />
</g>
<g
   id="LWPOLYLINE_88_"
   transform="translate(-14.174,-80.313)">
	<rect
   x="295.74301"
   y="275.43399"
   style="fill:#101820"
   width="5.9450002"
   height="5.9549999"
   id="rect1149" />
</g>
<g
   id="LWPOLYLINE_64_"
   transform="translate(-14.174,-80.313)">
	<path
   style="fill:#ffcd00"
   d="m 210.416,139.841 c 0,2.193 1.778,3.972 3.967,3.972 2.193,0 3.971,-1.778 3.971,-3.972 v -9.921 c 0,-2.193 -1.777,-3.967 -3.971,-3.967 -2.188,0 -3.967,1.773 -3.967,3.967 z"
   id="path1152"
   inkscape:connector-curvature="0" />
</g>
<g
   id="LWPOLYLINE_68_"
   transform="translate(-14.174,-80.313)">
	<path
   style="fill:#ffcd00"
   d="m 285.822,130.316 h 7.933 v -0.396 c 0,-2.193 -1.778,-3.967 -3.967,-3.967 -2.197,0 -3.966,1.773 -3.966,3.967 z"
   id="path1155"
   inkscape:connector-curvature="0" />
</g>
<g
   id="LWPOLYLINE_70_"
   transform="translate(-14.174,-80.313)">
	<polygon
   style="fill:#ffcd00"
   points="140.515,172.277 111.695,172.277 100.708,215.231 135.272,215.231 "
   id="polygon1158" />
</g>
<g
   id="LWPOLYLINE_71_"
   transform="translate(-14.174,-80.313)">
	<polygon
   style="fill:#ffcd00"
   points="181.458,172.277 146.05,172.277 142.029,205.246 181.458,205.246 "
   id="polygon1161" />
</g>
<g
   id="LWPOLYLINE_72_"
   transform="translate(-14.174,-80.313)">
	<rect
   x="186.95799"
   y="172.27699"
   style="fill:#ffcd00"
   width="42.124001"
   height="32.969002"
   id="rect1164" />
</g>
<g
   id="LWPOLYLINE_73_"
   transform="translate(-14.174,-80.313)">
	<rect
   x="234.576"
   y="172.27699"
   style="fill:#ffcd00"
   width="42.126999"
   height="32.969002"
   id="rect1167" />
</g>
<g
   id="LWPOLYLINE_74_"
   transform="translate(-14.174,-80.313)">
	<rect
   x="282.202"
   y="172.27699"
   style="fill:#ffcd00"
   width="42.127998"
   height="32.969002"
   id="rect1170" />
</g>
<g
   id="LWPOLYLINE_79_"
   transform="translate(-14.174,-80.313)">
	<path
   style="fill:#ffcd00"
   d="m 169.541,301.249 c -1.988,0.474 -3.83,1.418 -5.38,2.749 -1.391,1.223 -2.18,2.991 -2.157,4.842 0.027,1.204 1.026,2.157 2.229,2.135 0.101,-0.005 0.201,-0.014 0.297,-0.027 1.755,-0.283 3.446,-0.862 5.011,-1.701 z"
   id="path1173"
   inkscape:connector-curvature="0" />
</g>
<g
   id="LWPOLYLINE_83_"
   transform="translate(-14.174,-80.313)">
	<path
   style="fill:#ffcd00"
   d="m 215.175,295.673 h 7.938 v -0.396 c 0,-2.193 -1.773,-3.967 -3.967,-3.967 -2.194,0 -3.972,1.773 -3.972,3.967 v 0.396 z"
   id="path1176"
   inkscape:connector-curvature="0" />
</g>
<g
   id="LWPOLYLINE_86_"
   transform="translate(-14.174,-80.313)">
	<path
   style="fill:#ffcd00"
   d="m 274.706,295.673 h 7.934 v -0.396 c 0,-2.193 -1.77,-3.967 -3.967,-3.967 -2.188,0 -3.967,1.773 -3.967,3.967 z"
   id="path1179"
   inkscape:connector-curvature="0" />
</g>
</svg>