<?xml version="1.0" encoding="iso-8859-1"?>
<!-- Generator: Adobe Illustrator 16.0.0, SVG Export Plug-In . SVG Version: 6.00 Build 0)  -->
<!DOCTYPE svg PUBLIC "-//W3C//DTD SVG 1.1//EN" "http://www.w3.org/Graphics/SVG/1.1/DTD/svg11.dtd">
<svg version="1.1" id="Layer_1" xmlns="http://www.w3.org/2000/svg" xmlns:xlink="http://www.w3.org/1999/xlink" x="0px" y="0px"
	 width="425.197px" height="425.196px" viewBox="0 0 425.197 425.196" style="enable-background:new 0 0 425.197 425.196;"
	 xml:space="preserve">
<g id="LWPOLYLINE_32_">
	<rect x="14.174" y="63.779" style="fill:#FFCD00;" width="396.849" height="297.638"/>
</g>
<g id="LWPOLYLINE_31_">
	<path style="fill:#E4002B;" d="M40.627,361.417h343.941c14.608,0,26.454-11.845,26.454-26.458V90.233
		c0-14.608-11.846-26.454-26.454-26.454H40.627c-14.607,0-26.453,11.846-26.453,26.454v244.726
		C14.174,349.572,26.02,361.417,40.627,361.417z"/>
</g>
<g id="LWPOLYLINE_30_">
	<path style="fill:#FFCD00;" d="M40.627,348.187h343.941c7.304,0,13.223-5.919,13.223-13.228V90.233
		c0-7.305-5.919-13.228-13.223-13.228H40.627c-7.304,0-13.227,5.923-13.227,13.228v244.726
		C27.401,342.268,33.324,348.187,40.627,348.187z"/>
</g>
<g id="LWPOLYLINE_53_">
	<polygon style="fill:#101820;" points="125.488,133.229 147.316,133.229 147.316,127.273 131.442,127.273 131.442,115.369 
		142.157,115.369 142.157,109.419 131.442,109.419 131.442,99.498 147.316,99.498 147.316,93.543 125.488,93.543 	"/>
</g>
<g id="LWPOLYLINE_54_">
	<rect x="154.456" y="103.465" style="fill:#101820;" width="5.955" height="29.764"/>
</g>
<g id="LWPOLYLINE_55_">
	<rect x="154.456" y="93.543" style="fill:#101820;" width="5.955" height="5.955"/>
</g>
<g id="LWPOLYLINE_56_">
	<polygon style="fill:#101820;" points="186.208,133.229 180.252,133.229 180.252,93.543 186.208,93.543 186.208,115.474 
		194.141,103.465 200.095,103.465 193.302,113.654 200.141,133.237 194.141,133.229 189.363,119.568 186.208,124.301 	"/>
</g>
<g id="LWPOLYLINE_57_">
	<path style="fill:#101820;" d="M204.463,123.307c0,5.48,4.44,9.922,9.921,9.922s9.922-4.441,9.922-9.922v-9.921
		c0-5.48-4.441-9.921-9.922-9.921s-9.921,4.44-9.921,9.921V123.307z"/>
</g>
<g id="LWPOLYLINE_59_">
	<path style="fill:#101820;" d="M229.859,123.307c0,5.48,4.441,9.922,9.922,9.922h0.793c4.824,0,8.736-3.912,8.736-8.731
		c0-3.104-1.65-5.978-4.341-7.546l-6.584-3.839c-0.61-0.355-0.984-1.003-0.984-1.715c0-1.094,0.894-1.979,1.987-1.979h1.186
		c1.095,0,1.988,0.885,1.988,1.979h5.954c0-4.381-3.556-7.933-7.942-7.933h-1.186c-4.386,0-7.942,3.552-7.942,7.933
		c0,2.827,1.505,5.436,3.939,6.857l6.593,3.84c0.848,0.501,1.377,1.413,1.377,2.402c0,1.536-1.24,2.776-2.781,2.776h-0.793
		c-2.188,0-3.967-1.778-3.967-3.967H229.859z"/>
</g>
<g id="LWPOLYLINE_60_">
	<polygon style="fill:#101820;" points="262.003,133.229 256.058,133.229 256.058,93.543 262.003,93.543 262.003,115.474 
		269.946,103.465 275.9,103.465 269.097,113.654 275.937,133.237 269.946,133.229 265.158,119.568 262.003,124.301 	"/>
</g>
<g id="LWPOLYLINE_61_">
	<path style="fill:#101820;" d="M293.754,123.307h5.955c0,5.48-4.441,9.922-9.921,9.922c-5.48,0-9.922-4.441-9.922-9.922v-9.921
		c0-5.48,4.441-9.921,9.922-9.921c5.479,0,9.921,4.44,9.921,9.921v5.554h-13.888v4.367c0,2.188,1.769,3.967,3.967,3.967
		C291.976,127.273,293.754,125.495,293.754,123.307z"/>
</g>
<g id="LWPOLYLINE_63_">
	<path style="fill:#101820;" d="M145.328,331.653h3.976v-21.83h-12.9v5.955h6.946v2.781v0.195c0,3.835-3.112,6.944-6.946,6.944
		c-3.835,0-6.944-3.109-6.944-6.944v-13.893c0-3.83,3.109-6.939,6.944-6.939c3.834,0,6.946,3.109,6.946,6.939h5.954
		c0-7.121-5.781-12.894-12.9-12.894c-7.122,0-12.898,5.772-12.898,12.894v13.893c0.004,7.108,5.771,12.862,12.88,12.857
		c2.636-0.004,5.207-0.815,7.366-2.329L145.328,331.653z"/>
</g>
<g id="LWPOLYLINE_64_">
	<rect x="168.745" y="291.969" style="fill:#101820;" width="5.955" height="5.954"/>
</g>
<g id="LWPOLYLINE_65_">
	<rect x="158.03" y="291.969" style="fill:#101820;" width="5.955" height="5.954"/>
</g>
<g id="LWPOLYLINE_66_">
	<path style="fill:#101820;" d="M175.493,331.653h-5.954v-1.905c-2.39,1.29-5.07,1.946-7.788,1.905
		c-2.443,0.064-4.642-1.477-5.416-3.793c-0.967-3.046-0.155-6.374,2.106-8.627c2.899-3.113,6.857-5.015,11.098-5.334v-3.082
		c0-1.642-1.332-2.973-2.973-2.973c-1.642,0-2.982,1.331-2.982,2.973h-5.945c0-4.934,3.994-8.928,8.928-8.928
		c4.933,0,8.927,3.994,8.927,8.928V331.653z"/>
</g>
<g id="LWPOLYLINE_68_">
	<rect x="182.632" y="291.969" style="fill:#101820;" width="5.955" height="39.685"/>
</g>
<g id="LWPOLYLINE_69_">
	<rect x="196.53" y="291.969" style="fill:#101820;" width="5.945" height="39.685"/>
</g>
<g id="LWPOLYLINE_70_">
	<path style="fill:#101820;" d="M223.111,321.732h5.955c0,5.48-4.44,9.921-9.921,9.921s-9.922-4.44-9.922-9.921v-9.921
		c0-5.48,4.441-9.922,9.922-9.922s9.921,4.441,9.921,9.922v5.553h-13.888v4.368c0,2.188,1.778,3.967,3.967,3.967
		C221.342,325.699,223.111,323.921,223.111,321.732z"/>
</g>
<g id="LWPOLYLINE_72_">
	<path style="fill:#101820;" d="M242.161,311.018v20.636h-5.945V301.89h5.945v1.592c2.098-1.045,4.404-1.592,6.748-1.592v6.292
		c-1.56-1.532-4.076-1.509-5.608,0.055C242.571,308.979,242.161,309.979,242.161,311.018z"/>
</g>
<g id="LWPOLYLINE_73_">
	<path style="fill:#101820;" d="M282.639,321.732h5.954c0,5.48-4.44,9.921-9.921,9.921s-9.921-4.44-9.921-9.921v-9.921
		c0-5.48,4.44-9.922,9.921-9.922s9.921,4.441,9.921,9.922v5.553h-13.888v4.368c0,2.188,1.778,3.967,3.967,3.967
		C280.87,325.699,282.639,323.921,282.639,321.732z"/>
</g>
<g id="LWPOLYLINE_75_">
	<path style="fill:#101820;" d="M301.688,305.195v28.971c0,4.819-3.902,8.731-8.727,8.731h-0.793l0.793-5.955
		c1.532,0,2.781-1.24,2.781-2.776v-28.971H301.688z"/>
</g>
<g id="LWPOLYLINE_76_">
	<rect x="295.743" y="291.969" style="fill:#101820;" width="5.945" height="5.954"/>
</g>
<g id="LWPOLYLINE_77_">
	<path style="fill:#101820;" d="M243.884,279.453h-22.934c-2.299-0.241-4.478-1.145-6.266-2.612
		c-0.856-0.803-1.504-1.797-1.905-2.896l-0.757-2.047c-0.265-0.857-0.921-1.532-1.76-1.833c-13.505-0.219-26.929-2.024-40.005-5.38
		l-2.927,9.957c8.617,0.338,17.226,0.702,25.843,1.095c1.532,0.743,2.699,2.088,3.21,3.716h-37.46
		c-14.554,0.725-28.518-5.822-37.271-17.467l0.087-3.183c9.174,10.869,22.995,16.678,37.185,15.63l3.465-11.777
		c-10.295-3.598-20.063-8.549-29.055-14.713c6.998-18.908,22.206-33.612,41.347-39.964l14.453-43.482
		c8.007,7.522,12.685,17.914,13.022,28.889l11.416,2.151c0.685,0.128,1.387-0.109,1.852-0.634l12.019-12.684
		c0.83-0.844,1.769-1.573,2.79-2.157c6.092-3.487,13.86-1.377,17.345,4.719c4.504,9.68,7.814,19.87,9.866,30.348l3.748,12.908
		h30.283v26.764c6.246,0.146,11.398,4.929,12.01,11.147c0.665,6.793-4.305,12.839-11.098,13.505h-13.833H243.884z"/>
</g>
<g id="LWPOLYLINE_79_">
	<path style="fill:#101820;" d="M214.193,185.274l8.463-6.292c2.407-1.792,5.052-3.229,7.86-4.272
		c3.319-1.231,6.939-1.432,10.377-0.574l6.292,1.86v-18.694c-0.793-5.134-4.742-9.205-9.839-10.158
		c-5.554-2.033-11.673-1.851-17.08,0.529c-5.809,2.544-9.42,8.435-9.055,14.763h10.705h0.493l-0.493,7.163l-11.279,4.045
		c-0.475,4.085,0.511,8.206,2.79,11.631c0.137,0.214,0.429,0.269,0.639,0.132C214.121,185.37,214.157,185.324,214.193,185.274z"/>
</g>
<g id="LWPOLYLINE_58_">
	<path style="fill:#FFCD00;" d="M210.417,123.307c0,2.188,1.778,3.967,3.967,3.967c2.189,0,3.967-1.778,3.967-3.967v-9.921
		c0-2.193-1.777-3.967-3.967-3.967c-2.188,0-3.967,1.773-3.967,3.967V123.307z"/>
</g>
<g id="LWPOLYLINE_62_">
	<path style="fill:#FFCD00;" d="M285.822,113.782h7.933v-0.396c0-2.193-1.778-3.967-3.966-3.967c-2.198,0-3.967,1.773-3.967,3.967
		V113.782z"/>
</g>
<g id="LWPOLYLINE_67_">
	<path style="fill:#FFCD00;" d="M169.539,317.784c-1.988,0.474-3.83,1.418-5.381,2.749c-1.386,1.222-2.179,2.991-2.151,4.842
		c0.027,1.204,1.021,2.157,2.225,2.134c0.101-0.004,0.2-0.014,0.301-0.027c1.751-0.282,3.447-0.861,5.007-1.7V317.784z"/>
</g>
<g id="LWPOLYLINE_71_">
	<path style="fill:#FFCD00;" d="M215.178,312.208h7.933v-0.396c0-2.193-1.769-3.967-3.966-3.967c-2.188,0-3.967,1.773-3.967,3.967
		V312.208z"/>
</g>
<g id="LWPOLYLINE_74_">
	<path style="fill:#FFCD00;" d="M274.706,312.208h7.934v-0.396c0-2.193-1.77-3.967-3.967-3.967c-2.188,0-3.967,1.773-3.967,3.967
		V312.208z"/>
</g>
<g id="LWPOLYLINE_78_">
	<path style="fill:#FFCD00;" d="M197.679,202.842l-6.028,21.557c-0.082,0.292-0.009,0.602,0.183,0.83l8.764,10.148l7.951-19.04
		c0.866-2.079,2.818-3.492,5.062-3.656l12.273-0.902l-1.404-9.023l-6.656,2.863c-0.657,0.314-1.396,0.447-2.125,0.388l-12.83-2.243
		L197.679,202.842z"/>
</g>
</svg>
