<?xml version="1.0" encoding="UTF-8" standalone="no"?>
<!-- Generator: Adobe Illustrator 16.0.0, SVG Export Plug-In . SVG Version: 6.00 Build 0)  -->

<svg
   xmlns:dc="http://purl.org/dc/elements/1.1/"
   xmlns:cc="http://creativecommons.org/ns#"
   xmlns:rdf="http://www.w3.org/1999/02/22-rdf-syntax-ns#"
   xmlns:svg="http://www.w3.org/2000/svg"
   xmlns="http://www.w3.org/2000/svg"
   xmlns:sodipodi="http://sodipodi.sourceforge.net/DTD/sodipodi-0.dtd"
   xmlns:inkscape="http://www.inkscape.org/namespaces/inkscape"
   version="1.1"
   id="Layer_1"
   x="0px"
   y="0px"
   width="396.85001"
   height="264.57001"
   viewBox="0 0 396.85001 264.57"
   xml:space="preserve"
   sodipodi:docname="H12.svg"
   inkscape:version="0.92.5 (2060ec1f9f, 2020-04-08)"><metadata
   id="metadata2627"><rdf:RDF><cc:Work
       rdf:about=""><dc:format>image/svg+xml</dc:format><dc:type
         rdf:resource="http://purl.org/dc/dcmitype/StillImage" /></cc:Work></rdf:RDF></metadata><defs
   id="defs2625" /><sodipodi:namedview
   pagecolor="#ffffff"
   bordercolor="#666666"
   borderopacity="1"
   objecttolerance="10"
   gridtolerance="10"
   guidetolerance="10"
   inkscape:pageopacity="0"
   inkscape:pageshadow="2"
   inkscape:window-width="640"
   inkscape:window-height="480"
   id="namedview2623"
   showgrid="false"
   inkscape:zoom="0.55503813"
   inkscape:cx="198.4255"
   inkscape:cy="132.28499"
   inkscape:window-x="0"
   inkscape:window-y="0"
   inkscape:window-maximized="0"
   inkscape:current-layer="Layer_1" />
<g
   id="LWPOLYLINE_84_"
   transform="translate(-14.173,-80.313)">
	<rect
   x="14.174"
   y="80.313004"
   style="fill:#ffcd00"
   width="396.849"
   height="264.569"
   id="rect2523" />
</g>
<g
   id="LWPOLYLINE_82_"
   transform="translate(-14.173,-80.313)">
	<path
   style="fill:#e4002b"
   d="m 40.627,344.883 h 343.94 c 14.609,0 26.455,-11.846 26.455,-26.459 V 106.772 c 0,-14.613 -11.846,-26.459 -26.455,-26.459 H 40.627 c -14.608,0 -26.454,11.846 -26.454,26.459 v 211.651 c 10e-4,14.614 11.846,26.46 26.454,26.46 z"
   id="path2526"
   inkscape:connector-curvature="0" />
</g>
<g
   id="LWPOLYLINE_83_"
   transform="translate(-14.173,-80.313)">
	<path
   style="fill:#ffcd00"
   d="m 40.627,331.651 h 343.94 c 7.305,0 13.223,-5.919 13.223,-13.228 V 106.772 c 0,-7.305 -5.918,-13.231 -13.223,-13.231 H 40.627 c -7.304,0 -13.227,5.927 -13.227,13.231 v 211.651 c 0.001,7.309 5.923,13.228 13.227,13.228 z"
   id="path2529"
   inkscape:connector-curvature="0" />
</g>
<g
   id="LWPOLYLINE_87_"
   transform="translate(-14.173,-80.313)">
	<path
   style="fill:#101820"
   d="M 269.654,239.205 157.328,239.15 c -2.809,-12.63 -15.329,-20.591 -27.958,-17.773 -8.864,1.97 -15.785,8.892 -17.764,17.746 l -12.158,-0.005 c -1.44,0 -2.612,-1.172 -2.608,-2.612 l 0.009,-19.742 c 0.004,-7.213 5.854,-13.059 13.061,-13.054 l 44.363,0.022 c 0.693,0 1.359,-0.273 1.842,-0.766 l 33.412,-33.371 c 0.492,-0.487 1.158,-0.766 1.842,-0.766 l 91.297,0.046 c 0.584,0 1.148,0.196 1.605,0.552 l 43.068,33.607 c 0.639,0.497 1.012,1.254 1.012,2.056 l -0.018,31.533 c 0,1.44 -1.168,2.608 -2.617,2.608 l -10.332,-0.005 c -2.818,-12.63 -15.328,-20.586 -27.959,-17.772 -8.863,1.975 -15.783,8.887 -17.771,17.751 z"
   id="path2532"
   inkscape:connector-curvature="0" />
</g>
<g
   id="LWPOLYLINE_90_"
   transform="translate(-14.173,-80.313)">
	<polygon
   style="fill:#101820"
   points="147.315,143.813 131.439,143.813 131.439,131.903 142.154,131.903 142.154,125.953 131.439,125.953 131.439,116.032 147.315,116.032 147.315,110.077 125.485,110.077 125.485,149.763 147.315,149.763 "
   id="polygon2535" />
</g>
<g
   id="LWPOLYLINE_91_"
   transform="translate(-14.173,-80.313)">
	<rect
   x="154.455"
   y="119.999"
   style="fill:#101820"
   width="5.9549999"
   height="29.764"
   id="rect2538" />
</g>
<g
   id="LWPOLYLINE_92_"
   transform="translate(-14.173,-80.313)">
	<rect
   x="154.455"
   y="110.077"
   style="fill:#101820"
   width="5.9549999"
   height="5.9549999"
   id="rect2541" />
</g>
<g
   id="LWPOLYLINE_93_"
   transform="translate(-14.173,-80.313)">
	<polygon
   style="fill:#101820"
   points="180.252,110.077 186.207,110.077 186.207,132.004 194.141,119.999 200.095,119.999 193.302,130.189 200.141,149.771 194.141,149.763 189.362,136.098 186.207,140.835 186.207,149.763 180.252,149.763 "
   id="polygon2544" />
</g>
<g
   id="LWPOLYLINE_94_"
   transform="translate(-14.173,-80.313)">
	<path
   style="fill:#101820"
   d="m 204.463,139.842 c 0,5.479 4.44,9.921 9.921,9.921 5.48,0 9.922,-4.441 9.922,-9.921 v -9.922 c 0,-5.476 -4.441,-9.921 -9.922,-9.921 -5.481,0 -9.921,4.445 -9.921,9.921 z"
   id="path2547"
   inkscape:connector-curvature="0" />
</g>
<g
   id="LWPOLYLINE_96_"
   transform="translate(-14.173,-80.313)">
	<path
   style="fill:#101820"
   d="m 229.859,139.842 c 0,5.479 4.441,9.921 9.922,9.921 h 0.793 c 4.824,0 8.736,-3.907 8.736,-8.731 0,-3.104 -1.652,-5.978 -4.342,-7.541 l -6.584,-3.839 c -0.611,-0.355 -0.984,-1.008 -0.984,-1.715 0,-1.094 0.895,-1.983 1.988,-1.983 h 1.186 c 1.094,0 1.988,0.89 1.988,1.983 h 5.953 c 0,-4.386 -3.555,-7.938 -7.941,-7.938 h -1.186 c -4.387,0 -7.943,3.552 -7.943,7.938 0,2.827 1.506,5.435 3.939,6.857 l 6.594,3.839 c 0.848,0.497 1.377,1.414 1.377,2.398 0,1.536 -1.24,2.781 -2.781,2.781 h -0.793 c -2.189,0 -3.967,-1.778 -3.967,-3.971 h -5.955 z"
   id="path2550"
   inkscape:connector-curvature="0" />
</g>
<g
   id="LWPOLYLINE_97_"
   transform="translate(-14.173,-80.313)">
	<polygon
   style="fill:#101820"
   points="256.056,110.077 262.003,110.077 262.003,132.004 269.945,119.999 275.9,119.999 269.097,130.189 275.937,149.771 269.945,149.763 265.158,136.098 262.003,140.835 262.003,149.763 256.056,149.763 "
   id="polygon2553" />
</g>
<g
   id="LWPOLYLINE_98_"
   transform="translate(-14.173,-80.313)">
	<path
   style="fill:#101820"
   d="m 293.753,139.842 h 5.955 c 0,5.479 -4.441,9.921 -9.922,9.921 -5.479,0 -9.92,-4.441 -9.92,-9.921 v -9.922 c 0,-5.476 4.441,-9.921 9.92,-9.921 5.48,0 9.922,4.445 9.922,9.921 v 5.558 h -13.887 v 4.364 c 0,2.192 1.768,3.971 3.965,3.971 2.19,0 3.967,-1.779 3.967,-3.971 z"
   id="path2556"
   inkscape:connector-curvature="0" />
</g>
<g
   id="LWPOLYLINE_100_"
   transform="translate(-14.173,-80.313)">
	<path
   style="fill:#101820"
   d="m 145.327,315.119 h 3.976 V 293.288 H 136.4 v 5.955 h 6.949 v 2.781 0.195 c 0,3.835 -3.109,6.944 -6.949,6.944 -3.83,0 -6.939,-3.109 -6.939,-6.944 v -13.892 c 0,-3.83 3.11,-6.939 6.939,-6.939 3.839,0 6.949,3.109 6.949,6.939 h 5.955 c 0,-7.122 -5.781,-12.895 -12.903,-12.895 -7.122,0 -12.894,5.772 -12.894,12.895 v 13.892 c 0,7.108 5.772,12.862 12.876,12.858 2.635,-0.005 5.207,-0.816 7.368,-2.33 z"
   id="path2559"
   inkscape:connector-curvature="0" />
</g>
<g
   id="LWPOLYLINE_101_"
   transform="translate(-14.173,-80.313)">
	<rect
   x="168.745"
   y="275.43399"
   style="fill:#101820"
   width="5.9549999"
   height="5.9549999"
   id="rect2562" />
</g>
<g
   id="LWPOLYLINE_102_"
   transform="translate(-14.173,-80.313)">
	<rect
   x="158.03"
   y="275.43399"
   style="fill:#101820"
   width="5.9549999"
   height="5.9549999"
   id="rect2565" />
</g>
<g
   id="LWPOLYLINE_103_"
   transform="translate(-14.173,-80.313)">
	<path
   style="fill:#101820"
   d="m 175.492,315.119 h -5.954 v -1.906 c -2.39,1.29 -5.07,1.947 -7.788,1.906 -2.444,0.063 -4.642,-1.478 -5.417,-3.794 -0.967,-3.046 -0.155,-6.374 2.106,-8.626 2.899,-3.114 6.857,-5.016 11.098,-5.335 v -3.082 c 0,-1.642 -1.332,-2.973 -2.973,-2.973 -1.641,0 -2.982,1.331 -2.982,2.973 h -5.945 c 0,-4.934 3.994,-8.928 8.927,-8.928 4.934,0 8.927,3.994 8.927,8.928 v 20.837 z"
   id="path2568"
   inkscape:connector-curvature="0" />
</g>
<g
   id="LWPOLYLINE_105_"
   transform="translate(-14.173,-80.313)">
	<rect
   x="182.632"
   y="275.43399"
   style="fill:#101820"
   width="5.9549999"
   height="39.686001"
   id="rect2571" />
</g>
<g
   id="LWPOLYLINE_106_"
   transform="translate(-14.173,-80.313)">
	<rect
   x="196.52901"
   y="275.43399"
   style="fill:#101820"
   width="5.9450002"
   height="39.686001"
   id="rect2574" />
</g>
<g
   id="LWPOLYLINE_107_"
   transform="translate(-14.173,-80.313)">
	<path
   style="fill:#101820"
   d="m 223.111,305.197 h 5.955 c 0,5.48 -4.441,9.922 -9.922,9.922 -5.48,0 -9.921,-4.441 -9.921,-9.922 v -9.921 c 0,-5.48 4.441,-9.922 9.921,-9.922 5.48,0 9.922,4.441 9.922,9.922 v 5.553 h -13.889 v 4.368 c 0,2.188 1.779,3.967 3.967,3.967 2.197,0 3.967,-1.778 3.967,-3.967 z"
   id="path2577"
   inkscape:connector-curvature="0" />
</g>
<g
   id="LWPOLYLINE_109_"
   transform="translate(-14.173,-80.313)">
	<path
   style="fill:#101820"
   d="m 242.16,294.482 v 20.637 h -5.945 v -29.765 h 5.945 v 1.592 c 2.098,-1.044 4.404,-1.592 6.748,-1.592 v 6.292 c -1.559,-1.531 -4.076,-1.509 -5.607,0.055 -0.731,0.743 -1.141,1.742 -1.141,2.781 z"
   id="path2580"
   inkscape:connector-curvature="0" />
</g>
<g
   id="LWPOLYLINE_110_"
   transform="translate(-14.173,-80.313)">
	<path
   style="fill:#101820"
   d="m 282.638,305.197 h 5.955 c 0,5.48 -4.441,9.922 -9.922,9.922 -5.481,0 -9.922,-4.441 -9.922,-9.922 v -9.921 c 0,-5.48 4.441,-9.922 9.922,-9.922 5.481,0 9.922,4.441 9.922,9.922 v 5.553 h -13.889 v 4.368 c 0,2.188 1.779,3.967 3.967,3.967 2.198,0 3.967,-1.778 3.967,-3.967 z"
   id="path2583"
   inkscape:connector-curvature="0" />
</g>
<g
   id="LWPOLYLINE_112_"
   transform="translate(-14.173,-80.313)">
	<path
   style="fill:#101820"
   d="m 301.687,288.66 v 28.971 c 0,4.819 -3.902,8.731 -8.727,8.731 h -0.793 l 0.793,-5.955 c 1.533,0 2.781,-1.24 2.781,-2.776 V 288.66 Z"
   id="path2586"
   inkscape:connector-curvature="0" />
</g>
<g
   id="LWPOLYLINE_113_"
   transform="translate(-14.173,-80.313)">
	<rect
   x="295.742"
   y="275.43399"
   style="fill:#101820"
   width="5.9450002"
   height="5.9549999"
   id="rect2589" />
</g>
<g
   id="LWPOLYLINE_88_"
   transform="translate(-14.173,-80.313)">
	<path
   style="fill:#ffcd00"
   d="m 198.444,177.666 31.944,0.023 c 1.439,0 2.607,1.167 2.607,2.604 l 0.092,23.412 c 0,1.45 -1.178,2.617 -2.617,2.617 l -53.71,-0.036 c -0.656,0 -1.286,-0.247 -1.769,-0.693 -1.058,-0.98 -1.122,-2.636 -0.146,-3.693 l 21.685,-23.398 c 0.491,-0.53 1.185,-0.836 1.914,-0.836"
   id="path2592"
   inkscape:connector-curvature="0" />
</g>
<g
   id="LWPOLYLINE_89_"
   transform="translate(-14.173,-80.313)">
	<path
   style="fill:#ffcd00"
   d="m 292.294,206.35 -47.289,-0.036 c -1.432,0 -2.6,-1.163 -2.607,-2.6 l -0.092,-23.407 c 0.01,-1.459 1.176,-2.627 2.617,-2.627 l 29.125,0.027 c 0.813,0 1.568,0.369 2.061,1.004 l 18.248,23.421 c 0.363,0.461 0.555,1.026 0.555,1.605 0,1.446 -1.176,2.613 -2.618,2.613"
   id="path2595"
   inkscape:connector-curvature="0" />
</g>
<g
   id="LWPOLYLINE_95_"
   transform="translate(-14.173,-80.313)">
	<path
   style="fill:#ffcd00"
   d="m 210.417,139.842 c 0,2.192 1.778,3.971 3.967,3.971 2.188,0 3.967,-1.778 3.967,-3.971 v -9.922 c 0,-2.193 -1.779,-3.967 -3.967,-3.967 -2.189,0 -3.967,1.773 -3.967,3.967 z"
   id="path2598"
   inkscape:connector-curvature="0" />
</g>
<g
   id="LWPOLYLINE_99_"
   transform="translate(-14.173,-80.313)">
	<path
   style="fill:#ffcd00"
   d="m 285.822,130.316 h 7.932 v -0.396 c 0,-2.193 -1.777,-3.967 -3.967,-3.967 -2.197,0 -3.965,1.773 -3.965,3.967 z"
   id="path2601"
   inkscape:connector-curvature="0" />
</g>
<g
   id="LWPOLYLINE_104_"
   transform="translate(-14.173,-80.313)">
	<path
   style="fill:#ffcd00"
   d="m 169.538,301.249 c -1.988,0.474 -3.83,1.418 -5.38,2.749 -1.386,1.223 -2.179,2.991 -2.152,4.842 0.027,1.204 1.021,2.157 2.225,2.135 0.101,-0.005 0.201,-0.014 0.301,-0.027 1.75,-0.283 3.447,-0.862 5.006,-1.701 z"
   id="path2604"
   inkscape:connector-curvature="0" />
</g>
<g
   id="LWPOLYLINE_108_"
   transform="translate(-14.173,-80.313)">
	<path
   style="fill:#ffcd00"
   d="m 215.177,295.673 h 7.934 v -0.396 c 0,-2.193 -1.77,-3.967 -3.967,-3.967 -2.188,0 -3.967,1.773 -3.967,3.967 z"
   id="path2607"
   inkscape:connector-curvature="0" />
</g>
<g
   id="LWPOLYLINE_111_"
   transform="translate(-14.173,-80.313)">
	<path
   style="fill:#ffcd00"
   d="m 274.705,295.673 h 7.934 v -0.396 c 0,-2.193 -1.77,-3.967 -3.967,-3.967 -2.188,0 -3.967,1.773 -3.967,3.967 z"
   id="path2610"
   inkscape:connector-curvature="0" />
</g>
<g
   id="CIRCLE_2_"
   transform="translate(-14.173,-80.313)">
	<path
   style="fill:#101820"
   d="m 310.188,245.21 c 0,-9.76 -7.912,-17.672 -17.667,-17.672 -9.763,0 -17.676,7.912 -17.676,17.672 0,9.763 7.913,17.675 17.676,17.675 9.755,0 17.667,-7.912 17.667,-17.675 z"
   id="path2613"
   inkscape:connector-curvature="0" />
</g>
<g
   id="CIRCLE_3_"
   transform="translate(-14.173,-80.313)">
	<path
   style="fill:#101820"
   d="m 152.137,245.21 c 0,-9.76 -7.913,-17.672 -17.672,-17.672 -9.759,0 -17.671,7.912 -17.671,17.672 0,9.763 7.912,17.675 17.671,17.675 9.759,0 17.672,-7.912 17.672,-17.675 z"
   id="path2616"
   inkscape:connector-curvature="0" />
</g>
<g
   id="LWPOLYLINE_75_"
   transform="translate(-14.173,-80.313)">
	<path
   style="fill:none;stroke:#00ffff;stroke-width:0.7087;stroke-linecap:round;stroke-linejoin:round;stroke-miterlimit:10"
   d="m 285.819,130.316 h 7.936 v -0.396 c 0,-2.193 -1.782,-3.968 -3.968,-3.968 -2.193,0 -3.968,1.774 -3.968,3.968 z"
   id="path2619"
   inkscape:connector-curvature="0" />
</g>
</svg>