<?xml version="1.0" encoding="iso-8859-1"?>
<!-- Generator: Adobe Illustrator 16.0.0, SVG Export Plug-In . SVG Version: 6.00 Build 0)  -->
<!DOCTYPE svg PUBLIC "-//W3C//DTD SVG 1.1//EN" "http://www.w3.org/Graphics/SVG/1.1/DTD/svg11.dtd">
<svg version="1.1" id="Layer_1" xmlns="http://www.w3.org/2000/svg" xmlns:xlink="http://www.w3.org/1999/xlink" x="0px" y="0px"
	 width="425.197px" height="425.196px" viewBox="0 0 425.197 425.196" style="enable-background:new 0 0 425.197 425.196;"
	 xml:space="preserve">
<g id="LWPOLYLINE">
	<rect x="14.175" y="14.169" style="fill:#FFCD00;" width="396.847" height="396.858"/>
</g>
<g id="LWPOLYLINE_2_">
	<path style="fill:#E4002B;" d="M411.022,371.339V53.857c0-21.92-17.768-39.688-39.681-39.688H53.856
		c-21.912,0-39.681,17.769-39.681,39.688v317.481c0,21.92,17.769,39.688,39.681,39.688h317.485
		C393.254,411.027,411.022,393.259,411.022,371.339z"/>
</g>
<g id="LWPOLYLINE_1_">
	<path style="fill:#FFCD00;" d="M391.189,371.339V53.857c0-10.957-8.891-19.848-19.848-19.848H53.856
		c-10.956,0-19.84,8.891-19.84,19.848v317.481c0,10.964,8.884,19.841,19.84,19.841h317.485
		C382.298,391.18,391.189,382.303,391.189,371.339z"/>
</g>
<g id="LWPOLYLINE_3_">
	<polygon style="fill:#101820;" points="81.938,113.386 114.68,113.386 114.68,104.453 90.863,104.453 90.863,86.597 
		106.938,86.597 106.938,77.671 90.863,77.671 90.863,62.789 114.68,62.789 114.68,53.857 81.938,53.857 	"/>
</g>
<g id="LWPOLYLINE_4_">
	<rect x="125.39" y="68.739" style="fill:#101820;" width="8.933" height="44.646"/>
</g>
<g id="LWPOLYLINE_5_">
	<rect x="125.39" y="53.857" style="fill:#101820;" width="8.933" height="8.932"/>
</g>
<g id="LWPOLYLINE_6_">
	<polygon style="fill:#101820;" points="173.019,113.386 164.086,113.386 164.086,53.857 173.019,53.857 173.019,86.754 
		184.918,68.739 193.851,68.739 183.661,84.024 193.906,113.399 184.918,113.386 177.751,92.896 173.019,99.994 	"/>
</g>
<g id="LWPOLYLINE_7_">
	<path style="fill:#101820;" d="M200.403,98.503c0,8.221,6.661,14.883,14.882,14.883c8.207,0,14.883-6.662,14.883-14.883V83.621
		c0-8.221-6.676-14.882-14.883-14.882c-8.221,0-14.882,6.661-14.882,14.882V98.503z"/>
</g>
<g id="LWPOLYLINE_9_">
	<path style="fill:#101820;" d="M238.498,98.503c0,8.221,6.661,14.883,14.882,14.883h1.189c7.236,0,13.091-5.868,13.091-13.098
		c0-4.657-2.477-8.966-6.497-11.318l-9.876-5.759c-0.917-0.533-1.478-1.505-1.478-2.571c0-1.642,1.327-2.969,2.968-2.969h1.792
		c1.642,0,2.982,1.327,2.982,2.969h8.918c0-6.572-5.32-11.9-11.9-11.9h-1.792c-6.565,0-11.899,5.328-11.899,11.9
		c0,4.24,2.257,8.152,5.909,10.286l9.875,5.759c1.286,0.752,2.079,2.12,2.079,3.604c0,2.305-1.874,4.165-4.172,4.165h-1.189
		c-3.283,0-5.95-2.667-5.95-5.95H238.498z"/>
</g>
<g id="LWPOLYLINE_10_">
	<polygon style="fill:#101820;" points="286.713,113.386 277.782,113.386 277.782,53.857 286.713,53.857 286.713,86.754 
		298.614,68.739 307.545,68.739 297.355,84.024 307.614,113.399 298.614,113.386 291.446,92.896 286.713,99.994 	"/>
</g>
<g id="LWPOLYLINE_11_">
	<path style="fill:#101820;" d="M334.341,98.503h8.918c0,8.221-6.661,14.883-14.882,14.883c-8.207,0-14.882-6.662-14.882-14.883
		V83.621c0-8.221,6.675-14.882,14.882-14.882c8.221,0,14.882,6.661,14.882,14.882v8.33h-20.832v6.552c0,3.283,2.668,5.95,5.95,5.95
		C331.674,104.453,334.341,101.786,334.341,98.503z"/>
</g>
<g id="LWPOLYLINE_13_">
	<path style="fill:#101820;" d="M111.699,371.339h5.95V338.6H98.304v8.933h10.426v4.165v0.294c0,5.759-4.667,10.423-10.426,10.423
		c-5.752,0-10.416-4.664-10.416-10.423v-20.832c0-5.759,4.664-10.416,10.416-10.416c5.759,0,10.426,4.657,10.426,10.416h8.919
		c0-10.683-8.659-19.349-19.345-19.349c-10.683,0-19.342,8.666-19.342,19.349v20.832c0.007,10.662,8.652,19.3,19.314,19.286
		c3.953,0,7.813-1.217,11.056-3.488L111.699,371.339z"/>
</g>
<g id="LWPOLYLINE_14_">
	<rect x="146.825" y="311.811" style="fill:#101820;" width="8.932" height="8.933"/>
</g>
<g id="LWPOLYLINE_15_">
	<rect x="130.752" y="311.811" style="fill:#101820;" width="8.932" height="8.933"/>
</g>
<g id="LWPOLYLINE_16_">
	<path style="fill:#101820;" d="M156.947,371.339h-8.933v-2.852c-3.583,1.929-7.604,2.913-11.681,2.845
		c-3.666,0.103-6.963-2.202-8.125-5.684c-1.45-4.568-0.232-9.561,3.159-12.946c4.35-4.664,10.286-7.517,16.646-7.988v-4.623
		c0-2.469-1.997-4.466-4.473-4.466c-2.462,0-4.459,1.997-4.459,4.466h-8.932c0-7.4,6.005-13.397,13.391-13.397
		c7.4,0,13.405,5.997,13.405,13.397V371.339z"/>
</g>
<g id="LWPOLYLINE_18_">
	<rect x="167.657" y="311.811" style="fill:#101820;" width="8.932" height="59.528"/>
</g>
<g id="LWPOLYLINE_19_">
	<rect x="188.489" y="311.811" style="fill:#101820;" width="8.933" height="59.528"/>
</g>
<g id="LWPOLYLINE_20_">
	<path style="fill:#101820;" d="M228.375,356.457h8.932c0,8.221-6.661,14.882-14.882,14.882s-14.883-6.661-14.883-14.882v-14.882
		c0-8.214,6.662-14.882,14.883-14.882s14.882,6.668,14.882,14.882v8.337h-20.832v6.545c0,3.289,2.653,5.957,5.95,5.957
		C225.708,362.414,228.375,359.746,228.375,356.457z"/>
</g>
<g id="LWPOLYLINE_22_">
	<path style="fill:#101820;" d="M256.949,340.385v30.954h-8.932v-44.646h8.932v2.387c3.146-1.566,6.607-2.387,10.123-2.387v9.444
		c-2.354-2.305-6.115-2.271-8.427,0.082C257.565,337.328,256.949,338.825,256.949,340.385z"/>
</g>
<g id="LWPOLYLINE_23_">
	<path style="fill:#101820;" d="M317.667,356.457h8.932c0,8.221-6.661,14.882-14.882,14.882s-14.882-6.661-14.882-14.882v-14.882
		c0-8.214,6.661-14.882,14.882-14.882s14.882,6.668,14.882,14.882v8.337h-20.832v6.545c0,3.289,2.654,5.957,5.95,5.957
		C315,362.414,317.667,359.746,317.667,356.457z"/>
</g>
<g id="LWPOLYLINE_25_">
	<path style="fill:#101820;" d="M346.242,326.693v43.456c0,7.229-5.868,13.097-13.09,13.097h-1.19l1.19-8.932
		c2.298,0,4.158-1.86,4.158-4.165v-43.456H346.242z"/>
</g>
<g id="LWPOLYLINE_26_">
	<rect x="337.31" y="311.811" style="fill:#101820;" width="8.932" height="8.933"/>
</g>
<g id="LWPOLYLINE_30_">
	<path style="fill:#101820;" d="M250.63,183.897l11.093,15.84c4.254-2.517,8.891-4.322,13.733-5.349
		c24.621-5.225,48.804,10.505,54.029,35.126c5.211,24.614-10.505,48.805-35.126,54.022c-24.621,5.219-48.805-10.505-54.03-35.119
		h-15.935c-3.666,0-7.168-1.545-9.63-4.261l-53.619-57.175l-3.064,10.033c19.643,8.33,30.872,29.169,27.028,50.158
		c-4.527,24.751-28.272,41.145-53.03,36.61c-24.744-4.535-41.142-28.28-36.601-53.031c4.528-24.751,28.271-41.145,53.028-36.61
		l13.008-42.697c1.956-6.401,7.865-10.778,14.554-10.778h17.563v9.999h-17.563c-2.284,0-4.322,1.497-4.979,3.7l-3.652,11.954
		l74.273,12.845l7.66-20.695l-16.879-4.631c-1.013-0.39-1.669-1.388-1.601-2.476c0.068-1.375,1.244-2.428,2.626-2.353h1.327h36.48
		v9.855h-11.449L250.63,183.897z"/>
</g>
<g id="LWPOLYLINE_8_">
	<path style="fill:#FFCD00;" d="M209.321,98.503c0,3.283,2.668,5.95,5.964,5.95c3.283,0,5.95-2.667,5.95-5.95V83.621
		c0-3.289-2.667-5.95-5.95-5.95c-3.296,0-5.964,2.661-5.964,5.95V98.503z"/>
</g>
<g id="LWPOLYLINE_12_">
	<path style="fill:#FFCD00;" d="M322.427,84.216h11.914v-0.595c0-3.289-2.667-5.95-5.964-5.95c-3.282,0-5.95,2.661-5.95,5.95V84.216
		z"/>
</g>
<g id="LWPOLYLINE_17_">
	<path style="fill:#FFCD00;" d="M148.014,350.527c-2.981,0.725-5.744,2.134-8.069,4.131c-2.08,1.833-3.27,4.486-3.242,7.264
		c0.041,1.805,1.546,3.241,3.352,3.2c0.15,0,0.301-0.014,0.451-0.041c2.626-0.424,5.156-1.286,7.509-2.551V350.527z"/>
</g>
<g id="LWPOLYLINE_21_">
	<path style="fill:#FFCD00;" d="M216.475,342.17h11.9v-0.595c0-3.29-2.668-5.95-5.95-5.95c-3.297,0-5.95,2.66-5.95,5.95V342.17z"/>
</g>
<g id="LWPOLYLINE_24_">
	<path style="fill:#FFCD00;" d="M305.767,342.17h11.9v-0.595c0-3.29-2.667-5.95-5.95-5.95c-3.296,0-5.95,2.66-5.95,5.95V342.17z"/>
</g>
<g id="LWPOLYLINE_27_">
	<path style="fill:#FFCD00;" d="M164.51,175.957l73.672,12.748l-17.439,47.17C220.743,235.875,164.497,175.95,164.51,175.957z"/>
</g>
<g id="LWPOLYLINE_28_">
	<path style="fill:#FFCD00;" d="M259.535,214.038c-6.401,6.518-10.054,15.244-10.19,24.382h27.261L259.535,214.038z"/>
</g>
<g id="LWPOLYLINE_29_">
	<path style="fill:#FFCD00;" d="M239.345,238.42c0.15-12.393,5.335-24.197,14.376-32.678l-7.318-10.437l-15.935,43.114h8.945
		H239.345z"/>
</g>
<g id="LWPOLYLINE_31_">
	<path style="fill:#FFCD00;" d="M288.628,238.152c0.766,1.095,1.176,2.401,1.176,3.741c0,3.598-2.913,6.524-6.511,6.524h-32.677
		c5.225,18.932,24.799,30.052,43.743,24.834c18.931-5.219,30.051-24.807,24.84-43.737c-5.226-18.944-24.813-30.064-43.743-24.84
		c-2.791,0.767-5.458,1.867-7.975,3.283L288.628,238.152z"/>
</g>
<g id="LWPOLYLINE_32_">
	<path style="fill:#FFCD00;" d="M155.155,206.645l-9.999,32.801c-0.068,0.301-0.15,0.588-0.273,0.861
		c-1.04,2.572-3.967,3.803-6.538,2.764c-2.559-1.04-3.803-3.967-2.764-6.538l9.985-32.746
		c-19.423-2.914-37.533,10.478-40.446,29.907c-2.91,19.424,10.478,37.533,29.9,40.44c19.438,2.913,37.533-10.478,40.447-29.901
		C177.82,228.578,169.531,213.251,155.155,206.645z"/>
</g>
</svg>
