<?xml version="1.0" encoding="UTF-8" standalone="no"?>
<!-- Generator: Adobe Illustrator 16.0.0, SVG Export Plug-In . SVG Version: 6.00 Build 0)  -->

<svg
   xmlns:dc="http://purl.org/dc/elements/1.1/"
   xmlns:cc="http://creativecommons.org/ns#"
   xmlns:rdf="http://www.w3.org/1999/02/22-rdf-syntax-ns#"
   xmlns:svg="http://www.w3.org/2000/svg"
   xmlns="http://www.w3.org/2000/svg"
   xmlns:sodipodi="http://sodipodi.sourceforge.net/DTD/sodipodi-0.dtd"
   xmlns:inkscape="http://www.inkscape.org/namespaces/inkscape"
   version="1.1"
   id="Layer_1"
   x="0px"
   y="0px"
   width="396.84698"
   height="396.858"
   viewBox="0 0 396.84699 396.85799"
   xml:space="preserve"
   sodipodi:docname="H12.10_3_2.svg"
   inkscape:version="0.92.5 (2060ec1f9f, 2020-04-08)"><metadata
   id="metadata462"><rdf:RDF><cc:Work
       rdf:about=""><dc:format>image/svg+xml</dc:format><dc:type
         rdf:resource="http://purl.org/dc/dcmitype/StillImage" /></cc:Work></rdf:RDF></metadata><defs
   id="defs460" /><sodipodi:namedview
   pagecolor="#ffffff"
   bordercolor="#666666"
   borderopacity="1"
   objecttolerance="10"
   gridtolerance="10"
   guidetolerance="10"
   inkscape:pageopacity="0"
   inkscape:pageshadow="2"
   inkscape:window-width="640"
   inkscape:window-height="480"
   id="namedview458"
   showgrid="false"
   inkscape:zoom="0.55503813"
   inkscape:cx="198.4235"
   inkscape:cy="198.42899"
   inkscape:window-x="0"
   inkscape:window-y="0"
   inkscape:window-maximized="0"
   inkscape:current-layer="Layer_1" />
<g
   id="LWPOLYLINE"
   transform="translate(-14.175,-14.169)">
	<rect
   x="14.175"
   y="14.169"
   style="fill:#ffcd00"
   width="396.84698"
   height="396.858"
   id="rect358" />
</g>
<g
   id="LWPOLYLINE_2_"
   transform="translate(-14.175,-14.169)">
	<path
   style="fill:#e4002b"
   d="M 411.022,371.339 V 53.857 c 0,-21.92 -17.768,-39.688 -39.681,-39.688 H 53.856 c -21.912,0 -39.681,17.769 -39.681,39.688 v 317.481 c 0,21.92 17.769,39.688 39.681,39.688 h 317.485 c 21.913,10e-4 39.681,-17.767 39.681,-39.687 z"
   id="path361"
   inkscape:connector-curvature="0" />
</g>
<g
   id="LWPOLYLINE_1_"
   transform="translate(-14.175,-14.169)">
	<path
   style="fill:#ffcd00"
   d="M 391.189,371.339 V 53.857 c 0,-10.957 -8.891,-19.848 -19.848,-19.848 H 53.856 c -10.956,0 -19.84,8.891 -19.84,19.848 v 317.481 c 0,10.964 8.884,19.841 19.84,19.841 h 317.485 c 10.957,0.001 19.848,-8.876 19.848,-19.84 z"
   id="path364"
   inkscape:connector-curvature="0" />
</g>
<g
   id="LWPOLYLINE_3_"
   transform="translate(-14.175,-14.169)">
	<polygon
   style="fill:#101820"
   points="114.68,104.453 90.863,104.453 90.863,86.597 106.938,86.597 106.938,77.671 90.863,77.671 90.863,62.789 114.68,62.789 114.68,53.857 81.938,53.857 81.938,113.386 114.68,113.386 "
   id="polygon367" />
</g>
<g
   id="LWPOLYLINE_4_"
   transform="translate(-14.175,-14.169)">
	<rect
   x="125.39"
   y="68.738998"
   style="fill:#101820"
   width="8.9329996"
   height="44.646"
   id="rect370" />
</g>
<g
   id="LWPOLYLINE_5_"
   transform="translate(-14.175,-14.169)">
	<rect
   x="125.39"
   y="53.856998"
   style="fill:#101820"
   width="8.9329996"
   height="8.9320002"
   id="rect373" />
</g>
<g
   id="LWPOLYLINE_6_"
   transform="translate(-14.175,-14.169)">
	<polygon
   style="fill:#101820"
   points="164.086,53.857 173.019,53.857 173.019,86.754 184.918,68.739 193.851,68.739 183.661,84.024 193.906,113.399 184.918,113.386 177.751,92.896 173.019,99.994 173.019,113.386 164.086,113.386 "
   id="polygon376" />
</g>
<g
   id="LWPOLYLINE_7_"
   transform="translate(-14.175,-14.169)">
	<path
   style="fill:#101820"
   d="m 200.403,98.503 c 0,8.221 6.661,14.883 14.882,14.883 8.207,0 14.883,-6.662 14.883,-14.883 V 83.621 c 0,-8.221 -6.676,-14.882 -14.883,-14.882 -8.221,0 -14.882,6.661 -14.882,14.882 z"
   id="path379"
   inkscape:connector-curvature="0" />
</g>
<g
   id="LWPOLYLINE_9_"
   transform="translate(-14.175,-14.169)">
	<path
   style="fill:#101820"
   d="m 238.498,98.503 c 0,8.221 6.661,14.883 14.882,14.883 h 1.189 c 7.236,0 13.091,-5.868 13.091,-13.098 0,-4.657 -2.477,-8.966 -6.497,-11.318 l -9.876,-5.759 c -0.917,-0.533 -1.478,-1.505 -1.478,-2.571 0,-1.642 1.327,-2.969 2.968,-2.969 h 1.792 c 1.642,0 2.982,1.327 2.982,2.969 h 8.918 c 0,-6.572 -5.32,-11.9 -11.9,-11.9 h -1.792 c -6.565,0 -11.899,5.328 -11.899,11.9 0,4.24 2.257,8.152 5.909,10.286 l 9.875,5.759 c 1.286,0.752 2.079,2.12 2.079,3.604 0,2.305 -1.874,4.165 -4.172,4.165 h -1.189 c -3.283,0 -5.95,-2.667 -5.95,-5.95 h -8.932 z"
   id="path382"
   inkscape:connector-curvature="0" />
</g>
<g
   id="LWPOLYLINE_10_"
   transform="translate(-14.175,-14.169)">
	<polygon
   style="fill:#101820"
   points="277.782,53.857 286.713,53.857 286.713,86.754 298.614,68.739 307.545,68.739 297.355,84.024 307.614,113.399 298.614,113.386 291.446,92.896 286.713,99.994 286.713,113.386 277.782,113.386 "
   id="polygon385" />
</g>
<g
   id="LWPOLYLINE_11_"
   transform="translate(-14.175,-14.169)">
	<path
   style="fill:#101820"
   d="m 334.341,98.503 h 8.918 c 0,8.221 -6.661,14.883 -14.882,14.883 -8.207,0 -14.882,-6.662 -14.882,-14.883 V 83.621 c 0,-8.221 6.675,-14.882 14.882,-14.882 8.221,0 14.882,6.661 14.882,14.882 v 8.33 h -20.832 v 6.552 c 0,3.283 2.668,5.95 5.95,5.95 3.297,0 5.964,-2.667 5.964,-5.95 z"
   id="path388"
   inkscape:connector-curvature="0" />
</g>
<g
   id="LWPOLYLINE_13_"
   transform="translate(-14.175,-14.169)">
	<path
   style="fill:#101820"
   d="m 111.699,371.339 h 5.95 V 338.6 H 98.304 v 8.933 h 10.426 v 4.165 0.294 c 0,5.759 -4.667,10.423 -10.426,10.423 -5.752,0 -10.416,-4.664 -10.416,-10.423 V 331.16 c 0,-5.759 4.664,-10.416 10.416,-10.416 5.759,0 10.426,4.657 10.426,10.416 h 8.919 c 0,-10.683 -8.659,-19.349 -19.345,-19.349 -10.683,0 -19.342,8.666 -19.342,19.349 v 20.832 c 0.007,10.662 8.652,19.3 19.314,19.286 3.953,0 7.813,-1.217 11.056,-3.488 z"
   id="path391"
   inkscape:connector-curvature="0" />
</g>
<g
   id="LWPOLYLINE_14_"
   transform="translate(-14.175,-14.169)">
	<rect
   x="146.825"
   y="311.811"
   style="fill:#101820"
   width="8.9320002"
   height="8.9329996"
   id="rect394" />
</g>
<g
   id="LWPOLYLINE_15_"
   transform="translate(-14.175,-14.169)">
	<rect
   x="130.752"
   y="311.811"
   style="fill:#101820"
   width="8.9320002"
   height="8.9329996"
   id="rect397" />
</g>
<g
   id="LWPOLYLINE_16_"
   transform="translate(-14.175,-14.169)">
	<path
   style="fill:#101820"
   d="m 156.947,371.339 h -8.933 v -2.852 c -3.583,1.929 -7.604,2.913 -11.681,2.845 -3.666,0.103 -6.963,-2.202 -8.125,-5.684 -1.45,-4.568 -0.232,-9.561 3.159,-12.946 4.35,-4.664 10.286,-7.517 16.646,-7.988 v -4.623 c 0,-2.469 -1.997,-4.466 -4.473,-4.466 -2.462,0 -4.459,1.997 -4.459,4.466 h -8.932 c 0,-7.4 6.005,-13.397 13.391,-13.397 7.4,0 13.405,5.997 13.405,13.397 v 31.248 z"
   id="path400"
   inkscape:connector-curvature="0" />
</g>
<g
   id="LWPOLYLINE_18_"
   transform="translate(-14.175,-14.169)">
	<rect
   x="167.657"
   y="311.811"
   style="fill:#101820"
   width="8.9320002"
   height="59.528"
   id="rect403" />
</g>
<g
   id="LWPOLYLINE_19_"
   transform="translate(-14.175,-14.169)">
	<rect
   x="188.489"
   y="311.811"
   style="fill:#101820"
   width="8.9329996"
   height="59.528"
   id="rect406" />
</g>
<g
   id="LWPOLYLINE_20_"
   transform="translate(-14.175,-14.169)">
	<path
   style="fill:#101820"
   d="m 228.375,356.457 h 8.932 c 0,8.221 -6.661,14.882 -14.882,14.882 -8.221,0 -14.883,-6.661 -14.883,-14.882 v -14.882 c 0,-8.214 6.662,-14.882 14.883,-14.882 8.221,0 14.882,6.668 14.882,14.882 v 8.337 h -20.832 v 6.545 c 0,3.289 2.653,5.957 5.95,5.957 3.283,0 5.95,-2.668 5.95,-5.957 z"
   id="path409"
   inkscape:connector-curvature="0" />
</g>
<g
   id="LWPOLYLINE_22_"
   transform="translate(-14.175,-14.169)">
	<path
   style="fill:#101820"
   d="m 256.949,340.385 v 30.954 h -8.932 v -44.646 h 8.932 v 2.387 c 3.146,-1.566 6.607,-2.387 10.123,-2.387 v 9.444 c -2.354,-2.305 -6.115,-2.271 -8.427,0.082 -1.08,1.109 -1.696,2.606 -1.696,4.166 z"
   id="path412"
   inkscape:connector-curvature="0" />
</g>
<g
   id="LWPOLYLINE_23_"
   transform="translate(-14.175,-14.169)">
	<path
   style="fill:#101820"
   d="m 317.667,356.457 h 8.932 c 0,8.221 -6.661,14.882 -14.882,14.882 -8.221,0 -14.882,-6.661 -14.882,-14.882 v -14.882 c 0,-8.214 6.661,-14.882 14.882,-14.882 8.221,0 14.882,6.668 14.882,14.882 v 8.337 h -20.832 v 6.545 c 0,3.289 2.654,5.957 5.95,5.957 3.283,0 5.95,-2.668 5.95,-5.957 z"
   id="path415"
   inkscape:connector-curvature="0" />
</g>
<g
   id="LWPOLYLINE_25_"
   transform="translate(-14.175,-14.169)">
	<path
   style="fill:#101820"
   d="m 346.242,326.693 v 43.456 c 0,7.229 -5.868,13.097 -13.09,13.097 h -1.19 l 1.19,-8.932 c 2.298,0 4.158,-1.86 4.158,-4.165 v -43.456 z"
   id="path418"
   inkscape:connector-curvature="0" />
</g>
<g
   id="LWPOLYLINE_26_"
   transform="translate(-14.175,-14.169)">
	<rect
   x="337.31"
   y="311.811"
   style="fill:#101820"
   width="8.9320002"
   height="8.9329996"
   id="rect421" />
</g>
<g
   id="LWPOLYLINE_30_"
   transform="translate(-14.175,-14.169)">
	<path
   style="fill:#101820"
   d="m 250.63,183.897 11.093,15.84 c 4.254,-2.517 8.891,-4.322 13.733,-5.349 24.621,-5.225 48.804,10.505 54.029,35.126 5.211,24.614 -10.505,48.805 -35.126,54.022 -24.621,5.219 -48.805,-10.505 -54.03,-35.119 h -15.935 c -3.666,0 -7.168,-1.545 -9.63,-4.261 l -53.619,-57.175 -3.064,10.033 c 19.643,8.33 30.872,29.169 27.028,50.158 -4.527,24.751 -28.272,41.145 -53.03,36.61 -24.744,-4.535 -41.142,-28.28 -36.601,-53.031 4.528,-24.751 28.271,-41.145 53.028,-36.61 l 13.008,-42.697 c 1.956,-6.401 7.865,-10.778 14.554,-10.778 h 17.563 v 9.999 h -17.563 c -2.284,0 -4.322,1.497 -4.979,3.7 l -3.652,11.954 74.273,12.845 7.66,-20.695 -16.879,-4.631 c -1.013,-0.39 -1.669,-1.388 -1.601,-2.476 0.068,-1.375 1.244,-2.428 2.626,-2.353 h 1.327 36.48 v 9.855 h -11.449 z"
   id="path424"
   inkscape:connector-curvature="0" />
</g>
<g
   id="LWPOLYLINE_8_"
   transform="translate(-14.175,-14.169)">
	<path
   style="fill:#ffcd00"
   d="m 209.321,98.503 c 0,3.283 2.668,5.95 5.964,5.95 3.283,0 5.95,-2.667 5.95,-5.95 V 83.621 c 0,-3.289 -2.667,-5.95 -5.95,-5.95 -3.296,0 -5.964,2.661 -5.964,5.95 z"
   id="path427"
   inkscape:connector-curvature="0" />
</g>
<g
   id="LWPOLYLINE_12_"
   transform="translate(-14.175,-14.169)">
	<path
   style="fill:#ffcd00"
   d="m 322.427,84.216 h 11.914 v -0.595 c 0,-3.289 -2.667,-5.95 -5.964,-5.95 -3.282,0 -5.95,2.661 -5.95,5.95 z"
   id="path430"
   inkscape:connector-curvature="0" />
</g>
<g
   id="LWPOLYLINE_17_"
   transform="translate(-14.175,-14.169)">
	<path
   style="fill:#ffcd00"
   d="m 148.014,350.527 c -2.981,0.725 -5.744,2.134 -8.069,4.131 -2.08,1.833 -3.27,4.486 -3.242,7.264 0.041,1.805 1.546,3.241 3.352,3.2 0.15,0 0.301,-0.014 0.451,-0.041 2.626,-0.424 5.156,-1.286 7.509,-2.551 v -12.003 z"
   id="path433"
   inkscape:connector-curvature="0" />
</g>
<g
   id="LWPOLYLINE_21_"
   transform="translate(-14.175,-14.169)">
	<path
   style="fill:#ffcd00"
   d="m 216.475,342.17 h 11.9 v -0.595 c 0,-3.29 -2.668,-5.95 -5.95,-5.95 -3.297,0 -5.95,2.66 -5.95,5.95 z"
   id="path436"
   inkscape:connector-curvature="0" />
</g>
<g
   id="LWPOLYLINE_24_"
   transform="translate(-14.175,-14.169)">
	<path
   style="fill:#ffcd00"
   d="m 305.767,342.17 h 11.9 v -0.595 c 0,-3.29 -2.667,-5.95 -5.95,-5.95 -3.296,0 -5.95,2.66 -5.95,5.95 z"
   id="path439"
   inkscape:connector-curvature="0" />
</g>
<g
   id="LWPOLYLINE_27_"
   transform="translate(-14.175,-14.169)">
	<path
   style="fill:#ffcd00"
   d="m 164.51,175.957 73.672,12.748 -17.439,47.17 c 0,0 -56.246,-59.925 -56.233,-59.918 z"
   id="path442"
   inkscape:connector-curvature="0" />
</g>
<g
   id="LWPOLYLINE_28_"
   transform="translate(-14.175,-14.169)">
	<path
   style="fill:#ffcd00"
   d="m 259.535,214.038 c -6.401,6.518 -10.054,15.244 -10.19,24.382 h 27.261 z"
   id="path445"
   inkscape:connector-curvature="0" />
</g>
<g
   id="LWPOLYLINE_29_"
   transform="translate(-14.175,-14.169)">
	<path
   style="fill:#ffcd00"
   d="m 239.345,238.42 c 0.15,-12.393 5.335,-24.197 14.376,-32.678 l -7.318,-10.437 -15.935,43.114 h 8.945 -0.068 z"
   id="path448"
   inkscape:connector-curvature="0" />
</g>
<g
   id="LWPOLYLINE_31_"
   transform="translate(-14.175,-14.169)">
	<path
   style="fill:#ffcd00"
   d="m 288.628,238.152 c 0.766,1.095 1.176,2.401 1.176,3.741 0,3.598 -2.913,6.524 -6.511,6.524 h -32.677 c 5.225,18.932 24.799,30.052 43.743,24.834 18.931,-5.219 30.051,-24.807 24.84,-43.737 -5.226,-18.944 -24.813,-30.064 -43.743,-24.84 -2.791,0.767 -5.458,1.867 -7.975,3.283 z"
   id="path451"
   inkscape:connector-curvature="0" />
</g>
<g
   id="LWPOLYLINE_32_"
   transform="translate(-14.175,-14.169)">
	<path
   style="fill:#ffcd00"
   d="m 155.155,206.645 -9.999,32.801 c -0.068,0.301 -0.15,0.588 -0.273,0.861 -1.04,2.572 -3.967,3.803 -6.538,2.764 -2.559,-1.04 -3.803,-3.967 -2.764,-6.538 l 9.985,-32.746 c -19.423,-2.914 -37.533,10.478 -40.446,29.907 -2.91,19.424 10.478,37.533 29.9,40.44 19.438,2.913 37.533,-10.478 40.447,-29.901 2.353,-15.655 -5.936,-30.982 -20.312,-37.588 z"
   id="path454"
   inkscape:connector-curvature="0" />
</g>
</svg>