<?xml version="1.0" encoding="UTF-8" standalone="no"?>
<!-- Generator: Adobe Illustrator 16.0.0, SVG Export Plug-In . SVG Version: 6.00 Build 0)  -->

<svg
   xmlns:dc="http://purl.org/dc/elements/1.1/"
   xmlns:cc="http://creativecommons.org/ns#"
   xmlns:rdf="http://www.w3.org/1999/02/22-rdf-syntax-ns#"
   xmlns:svg="http://www.w3.org/2000/svg"
   xmlns="http://www.w3.org/2000/svg"
   xmlns:sodipodi="http://sodipodi.sourceforge.net/DTD/sodipodi-0.dtd"
   xmlns:inkscape="http://www.inkscape.org/namespaces/inkscape"
   version="1.1"
   id="Layer_1"
   x="0px"
   y="0px"
   width="396.85101"
   height="264.57501"
   viewBox="0 0 396.85102 264.575"
   xml:space="preserve"
   sodipodi:docname="H12.12_2.svg"
   inkscape:version="0.92.5 (2060ec1f9f, 2020-04-08)"><metadata
   id="metadata743"><rdf:RDF><cc:Work
       rdf:about=""><dc:format>image/svg+xml</dc:format><dc:type
         rdf:resource="http://purl.org/dc/dcmitype/StillImage" /></cc:Work></rdf:RDF></metadata><defs
   id="defs741" /><sodipodi:namedview
   pagecolor="#ffffff"
   bordercolor="#666666"
   borderopacity="1"
   objecttolerance="10"
   gridtolerance="10"
   guidetolerance="10"
   inkscape:pageopacity="0"
   inkscape:pageshadow="2"
   inkscape:window-width="640"
   inkscape:window-height="480"
   id="namedview739"
   showgrid="false"
   inkscape:zoom="0.55503813"
   inkscape:cx="198.4255"
   inkscape:cy="132.288"
   inkscape:window-x="0"
   inkscape:window-y="0"
   inkscape:window-maximized="0"
   inkscape:current-layer="Layer_1" />
<g
   id="LWPOLYLINE_169_"
   transform="translate(-14.173,-80.310997)">
	<rect
   x="14.173"
   y="80.310997"
   style="fill:#ffcd00"
   width="396.85101"
   height="264.57501"
   id="rect678" />
</g>
<g
   id="LWPOLYLINE_168_"
   transform="translate(-14.173,-80.310997)">
	<path
   style="fill:#e4002b"
   d="m 40.586,344.886 h 343.978 c 14.611,0 26.46,-11.849 26.46,-26.46 V 106.771 c 0,-14.611 -11.849,-26.46 -26.46,-26.46 H 40.586 c -14.611,0 -26.413,11.849 -26.413,26.46 v 211.655 c 0,14.611 11.802,26.46 26.413,26.46 z"
   id="path681"
   inkscape:connector-curvature="0" />
</g>
<g
   id="LWPOLYLINE_167_"
   transform="translate(-14.173,-80.310997)">
	<path
   style="fill:#ffcd00"
   d="m 40.586,331.655 h 343.978 c 7.307,0 13.207,-5.924 13.207,-13.229 V 106.771 c 0,-7.306 -5.9,-13.23 -13.207,-13.23 H 40.586 c -7.306,0 -13.207,5.924 -13.207,13.23 v 211.655 c 0,7.305 5.902,13.229 13.207,13.229 z"
   id="path684"
   inkscape:connector-curvature="0" />
</g>
<g
   id="LWPOLYLINE_170_"
   transform="translate(-14.173,-80.310997)">
	<polygon
   style="fill:#101820"
   points="147.315,143.814 131.44,143.814 131.44,131.896 142.117,131.896 142.117,125.948 131.44,125.948 131.44,116.043 147.315,116.043 147.315,110.072 125.492,110.072 125.492,149.762 147.315,149.762 "
   id="polygon687" />
</g>
<g
   id="LWPOLYLINE_171_"
   transform="translate(-14.173,-80.310997)">
	<rect
   x="154.43401"
   y="120"
   style="fill:#101820"
   width="5.947"
   height="29.761"
   id="rect690" />
</g>
<g
   id="LWPOLYLINE_172_"
   transform="translate(-14.173,-80.310997)">
	<rect
   x="154.43401"
   y="110.072"
   style="fill:#101820"
   width="5.947"
   height="5.9710002"
   id="rect693" />
</g>
<g
   id="LWPOLYLINE_173_"
   transform="translate(-14.173,-80.310997)">
	<polygon
   style="fill:#101820"
   points="180.238,110.072 186.186,110.072 186.186,132.013 194.147,120 200.095,120 193.304,130.187 200.142,149.762 194.147,149.762 189.324,136.087 186.186,140.817 186.186,149.762 180.238,149.762 "
   id="polygon696" />
</g>
<g
   id="LWPOLYLINE_174_"
   transform="translate(-14.173,-80.310997)">
	<path
   style="fill:#101820"
   d="m 204.451,139.833 c 0,5.479 4.448,9.928 9.928,9.928 5.48,0 9.928,-4.449 9.928,-9.928 v -9.928 c 0,-5.479 -4.448,-9.905 -9.928,-9.905 -5.48,0 -9.928,4.426 -9.928,9.905 z"
   id="path699"
   inkscape:connector-curvature="0" />
</g>
<g
   id="LWPOLYLINE_176_"
   transform="translate(-14.173,-80.310997)">
	<path
   style="fill:#101820"
   d="m 229.833,139.833 c 0,5.479 4.448,9.928 9.928,9.928 h 0.796 c 4.823,0 8.711,-3.91 8.711,-8.734 0,-3.114 -1.64,-5.971 -4.309,-7.54 l -6.604,-3.84 c -0.608,-0.352 -0.983,-1.007 -0.983,-1.709 0,-1.101 0.891,-1.99 2.014,-1.99 h 1.171 c 1.077,0 1.967,0.89 1.967,1.99 h 5.995 c 0,-4.402 -3.56,-7.938 -7.962,-7.938 h -1.171 c -4.402,0 -7.961,3.536 -7.961,7.938 0,2.81 1.498,5.433 3.934,6.837 l 6.604,3.84 c 0.843,0.515 1.357,1.428 1.357,2.412 0,1.522 -1.217,2.787 -2.763,2.787 h -0.796 c -2.201,0 -3.98,-1.78 -3.98,-3.981 z"
   id="path702"
   inkscape:connector-curvature="0" />
</g>
<g
   id="LWPOLYLINE_177_"
   transform="translate(-14.173,-80.310997)">
	<polygon
   style="fill:#101820"
   points="256.058,110.072 262.005,110.072 262.005,132.013 269.92,120 275.869,120 269.078,130.187 275.916,149.762 269.92,149.762 265.144,136.087 262.005,140.817 262.005,149.762 256.058,149.762 "
   id="polygon705" />
</g>
<g
   id="LWPOLYLINE_178_"
   transform="translate(-14.173,-80.310997)">
	<path
   style="fill:#101820"
   d="m 293.757,139.833 h 5.948 c 0,5.479 -4.449,9.928 -9.929,9.928 -5.479,0 -9.928,-4.449 -9.928,-9.928 v -9.928 c 0,-5.479 4.449,-9.905 9.928,-9.905 5.479,0 9.929,4.426 9.929,9.905 v 5.573 h -13.909 v 4.355 c 0,2.201 1.779,3.981 3.98,3.981 2.201,0 3.981,-1.779 3.981,-3.981 z"
   id="path708"
   inkscape:connector-curvature="0" />
</g>
<g
   id="CIRCLE_23_"
   transform="translate(-14.173,-80.310997)">
	<path
   style="fill:#101820"
   d="m 174.103,289.483 c 0,-14.166 -11.474,-25.64 -25.617,-25.64 -14.143,0 -25.616,11.474 -25.616,25.64 0,14.167 11.474,25.641 25.616,25.641 14.143,0 25.617,-11.474 25.617,-25.641 z"
   id="path711"
   inkscape:connector-curvature="0" />
</g>
<g
   id="LWPOLYLINE_181_"
   transform="translate(-14.173,-80.310997)">
	<path
   style="fill:#101820"
   d="m 216.626,279.345 h -39.901 c -5.619,-15.595 -22.76,-23.697 -38.354,-18.1 -5.994,2.13 -11.146,6.135 -14.705,11.402 l -3.653,-37.113 c -0.047,-0.492 -0.047,-1.008 0,-1.499 0.328,-4.238 4.028,-7.399 8.243,-7.095 h 66.781 c 1.873,0 3.513,-1.265 3.934,-3.067 l 12.691,-50.836 c 0.516,-1.826 2.201,-3.044 4.074,-2.997 h 54.513 c 1.873,0 3.513,1.264 3.98,3.091 l 12.177,48.307 c 0.141,0.632 0.562,1.171 1.076,1.522 l 4.73,2.669 3.278,2.201 3.325,2.575 c 1.451,1.172 2.248,3.021 2.061,4.895 -0.141,1.194 -0.891,2.248 -1.967,2.764 -0.75,0.351 -1.546,0.584 -2.342,0.678 -1.265,0.141 -2.482,-0.397 -3.231,-1.404 -19.481,-16.906 -48.938,-14.775 -65.845,4.707 -8.851,10.255 -12.831,23.859 -10.865,37.3 z"
   id="path714"
   inkscape:connector-curvature="0" />
</g>
<g
   id="CIRCLE_25_"
   transform="translate(-14.173,-80.310997)">
	<path
   style="fill:#101820"
   d="m 305.185,272.694 c 0,-23.416 -18.967,-42.383 -42.43,-42.383 -23.416,0 -42.383,18.967 -42.383,42.383 0,23.439 18.967,42.43 42.383,42.43 23.463,0 42.43,-18.99 42.43,-42.43 z"
   id="path717"
   inkscape:connector-curvature="0" />
</g>
<g
   id="LWPOLYLINE_175_"
   transform="translate(-14.173,-80.310997)">
	<path
   style="fill:#ffcd00"
   d="m 210.398,139.833 c 0,2.201 1.779,3.981 3.98,3.981 2.201,0 3.934,-1.78 3.934,-3.981 v -9.928 c 0,-2.178 -1.732,-3.957 -3.934,-3.957 -2.202,0 -3.98,1.779 -3.98,3.957 z"
   id="path720"
   inkscape:connector-curvature="0" />
</g>
<g
   id="LWPOLYLINE_179_"
   transform="translate(-14.173,-80.310997)">
	<path
   style="fill:#ffcd00"
   d="m 285.796,130.327 h 7.961 v -0.421 c 0,-2.178 -1.779,-3.957 -3.98,-3.957 -2.201,0 -3.98,1.779 -3.98,3.957 v 0.421 z"
   id="path723"
   inkscape:connector-curvature="0" />
</g>
<g
   id="CIRCLE_22_"
   transform="translate(-14.173,-80.310997)">
	<path
   style="fill:#ffcd00"
   d="m 284.345,272.694 c 0,-11.895 -9.648,-21.542 -21.59,-21.542 -11.895,0 -21.543,9.647 -21.543,21.542 0,11.919 9.648,21.59 21.543,21.59 11.942,0 21.59,-9.671 21.59,-21.59 z"
   id="path726"
   inkscape:connector-curvature="0" />
</g>
<g
   id="LWPOLYLINE_180_"
   transform="translate(-14.173,-80.310997)">
	<path
   style="fill:#ffcd00"
   d="m 218.406,237.454 c 0.375,0.398 0.983,0.445 1.405,0.07 4.729,-5.76 10.583,-10.537 17.187,-14.003 0.141,-0.047 0.281,-0.141 0.422,-0.28 0.844,-0.75 1.312,-1.874 1.312,-2.998 v -39.994 c 0.14,-0.702 -0.328,-1.404 -1.03,-1.545 -0.094,0 -0.188,0 -0.234,0 l -17.516,-0.047 c -0.701,-0.023 -1.311,0.445 -1.545,1.123 L 207.4,223.662 c -0.327,1.405 0.094,2.856 1.078,3.888 0,0 9.975,9.974 9.928,9.904 z"
   id="path729"
   inkscape:connector-curvature="0" />
</g>
<g
   id="LWPOLYLINE_182_"
   transform="translate(-14.173,-80.310997)">
	<path
   style="fill:#ffcd00"
   d="m 247.488,217.551 v -37.583 c 0.141,-0.749 0.797,-1.311 1.593,-1.311 h 15.688 c 0.656,0 1.265,0.469 1.451,1.123 l 9.227,36.576 c 0.047,0.234 0.047,0.469 0,0.703 -0.188,0.842 -1.03,1.357 -1.873,1.17 -8.102,-1.568 -16.438,-1.357 -24.493,0.609 -0.702,0.023 -1.312,-0.422 -1.499,-1.102 -0.047,-0.069 -0.047,-0.116 -0.094,-0.185 z"
   id="path732"
   inkscape:connector-curvature="0" />
</g>
<g
   id="CIRCLE_24_"
   transform="translate(-14.173,-80.310997)">
	<path
   style="fill:#ffcd00"
   d="m 161.412,289.46 c 0,-7.118 -5.807,-12.902 -12.926,-12.902 -7.118,0 -12.925,5.784 -12.925,12.902 0,7.143 5.807,12.926 12.925,12.926 7.119,0 12.926,-5.783 12.926,-12.926 z"
   id="path735"
   inkscape:connector-curvature="0" />
</g>
</svg>