<?xml version="1.0" encoding="UTF-8" standalone="no"?>
<!-- Generator: Adobe Illustrator 16.0.0, SVG Export Plug-In . SVG Version: 6.00 Build 0)  -->

<svg
   xmlns:dc="http://purl.org/dc/elements/1.1/"
   xmlns:cc="http://creativecommons.org/ns#"
   xmlns:rdf="http://www.w3.org/1999/02/22-rdf-syntax-ns#"
   xmlns:svg="http://www.w3.org/2000/svg"
   xmlns="http://www.w3.org/2000/svg"
   xmlns:sodipodi="http://sodipodi.sourceforge.net/DTD/sodipodi-0.dtd"
   xmlns:inkscape="http://www.inkscape.org/namespaces/inkscape"
   version="1.1"
   id="Layer_1"
   x="0px"
   y="0px"
   width="396.854"
   height="198.427"
   viewBox="0 0 396.85401 198.427"
   xml:space="preserve"
   sodipodi:docname="H12.10_2.svg"
   inkscape:version="0.92.5 (2060ec1f9f, 2020-04-08)"><metadata
   id="metadata186"><rdf:RDF><cc:Work
       rdf:about=""><dc:format>image/svg+xml</dc:format><dc:type
         rdf:resource="http://purl.org/dc/dcmitype/StillImage" /></cc:Work></rdf:RDF></metadata><defs
   id="defs184" /><sodipodi:namedview
   pagecolor="#ffffff"
   bordercolor="#666666"
   borderopacity="1"
   objecttolerance="10"
   gridtolerance="10"
   guidetolerance="10"
   inkscape:pageopacity="0"
   inkscape:pageshadow="2"
   inkscape:window-width="640"
   inkscape:window-height="480"
   id="namedview182"
   showgrid="false"
   inkscape:zoom="0.55503813"
   inkscape:cx="198.4265"
   inkscape:cy="99.213997"
   inkscape:window-x="0"
   inkscape:window-y="0"
   inkscape:window-maximized="0"
   inkscape:current-layer="Layer_1" />
<g
   id="LWPOLYLINE_28_"
   transform="translate(-14.172,-113.385)">
	<rect
   x="14.172"
   y="113.385"
   style="fill:#ffcd00"
   width="396.853"
   height="198.427"
   id="rect124" />
</g>
<g
   id="LWPOLYLINE_40_"
   transform="translate(-14.172,-113.385)">
	<path
   style="fill:#e4002b"
   d="M 391.177,113.385 H 34.013 c -10.956,0 -19.84,8.884 -19.84,19.844 v 158.739 c 0,10.96 8.884,19.844 19.84,19.844 h 357.165 c 10.963,0 19.848,-8.884 19.848,-19.844 V 133.229 c -0.001,-10.96 -8.886,-19.844 -19.849,-19.844 z"
   id="path127"
   inkscape:connector-curvature="0" />
</g>
<g
   id="LWPOLYLINE_39_"
   transform="translate(-14.172,-113.385)">
	<path
   style="fill:#ffcd00"
   d="M 391.177,123.305 H 34.013 c -5.478,0 -9.92,4.446 -9.92,9.924 v 158.739 c 0,5.481 4.442,9.92 9.92,9.92 h 357.165 c 5.484,0 9.924,-4.438 9.924,-9.92 V 133.229 c -10e-4,-5.479 -4.44,-9.924 -9.925,-9.924 z"
   id="path130"
   inkscape:connector-curvature="0" />
</g>
<g
   id="LWPOLYLINE_29_"
   transform="translate(-14.172,-113.385)">
	<polygon
   style="fill:#101820"
   points="62.785,223.016 50.881,223.016 50.881,214.088 58.917,214.088 58.917,209.621 50.881,209.621 50.881,202.181 62.785,202.181 62.785,197.715 46.416,197.715 46.416,227.479 62.785,227.479 "
   id="polygon133" />
</g>
<g
   id="LWPOLYLINE_30_"
   transform="translate(-14.172,-113.385)">
	<rect
   x="68.143997"
   y="205.155"
   style="fill:#101820"
   width="4.4660001"
   height="22.323"
   id="rect136" />
</g>
<g
   id="LWPOLYLINE_31_"
   transform="translate(-14.172,-113.385)">
	<rect
   x="68.143997"
   y="197.715"
   style="fill:#101820"
   width="4.4660001"
   height="4.4660001"
   id="rect139" />
</g>
<g
   id="LWPOLYLINE_32_"
   transform="translate(-14.172,-113.385)">
	<polygon
   style="fill:#101820"
   points="87.491,197.715 91.954,197.715 91.954,214.162 97.907,205.155 102.373,205.155 97.274,212.802 102.4,227.485 97.907,227.479 94.32,217.233 91.954,220.783 91.954,227.479 87.491,227.479 "
   id="polygon142" />
</g>
<g
   id="LWPOLYLINE_33_"
   transform="translate(-14.172,-113.385)">
	<path
   style="fill:#101820"
   d="m 105.646,220.037 c 0,4.11 3.331,7.441 7.441,7.441 4.11,0 7.441,-3.331 7.441,-7.441 v -7.44 c 0,-4.11 -3.331,-7.441 -7.441,-7.441 -4.11,0 -7.441,3.331 -7.441,7.441 z"
   id="path145"
   inkscape:connector-curvature="0" />
</g>
<g
   id="LWPOLYLINE_35_"
   transform="translate(-14.172,-113.385)">
	<path
   style="fill:#101820"
   d="m 124.696,220.037 c 0,4.11 3.331,7.441 7.441,7.441 h 0.595 c 3.615,0 6.549,-2.931 6.549,-6.545 0,-2.332 -1.238,-4.486 -3.252,-5.659 l -4.941,-2.88 c -0.455,-0.263 -0.739,-0.756 -0.739,-1.285 0,-0.821 0.667,-1.488 1.491,-1.488 h 0.892 c 0.821,0 1.488,0.667 1.488,1.488 h 4.462 c 0,-3.287 -2.664,-5.954 -5.95,-5.954 h -0.892 c -3.29,0 -5.954,2.667 -5.954,5.954 0,2.116 1.125,4.079 2.955,5.143 l 4.938,2.879 c 0.643,0.373 1.036,1.061 1.036,1.803 0,1.148 -0.934,2.082 -2.083,2.082 h -0.595 c -1.645,0 -2.979,-1.333 -2.979,-2.979 z"
   id="path148"
   inkscape:connector-curvature="0" />
</g>
<g
   id="LWPOLYLINE_36_"
   transform="translate(-14.172,-113.385)">
	<polygon
   style="fill:#101820"
   points="144.338,197.715 148.804,197.715 148.804,214.162 154.757,205.155 159.22,205.155 154.125,212.802 159.251,227.485 154.757,227.479 151.17,217.233 148.804,220.783 148.804,227.479 144.338,227.479 "
   id="polygon151" />
</g>
<g
   id="LWPOLYLINE_37_"
   transform="translate(-14.172,-113.385)">
	<path
   style="fill:#101820"
   d="m 172.613,220.037 h 4.466 c 0,4.11 -3.331,7.441 -7.441,7.441 -4.11,0 -7.441,-3.331 -7.441,-7.441 v -7.44 c 0,-4.11 3.331,-7.441 7.441,-7.441 4.11,0 7.441,3.331 7.441,7.441 v 4.168 h -10.416 v 3.272 c 0,1.646 1.333,2.979 2.975,2.979 1.642,0 2.975,-1.333 2.975,-2.979 z"
   id="path154"
   inkscape:connector-curvature="0" />
</g>
<g
   id="LWPOLYLINE_44_"
   transform="translate(-14.172,-113.385)">
	<path
   style="fill:#101820"
   d="m 323.71,192.804 7.652,10.923 c 2.934,-1.734 6.135,-2.982 9.473,-3.687 16.98,-3.601 33.662,7.242 37.26,24.221 3.604,16.978 -7.244,33.658 -24.225,37.26 -16.975,3.601 -33.656,-7.246 -37.26,-24.221 h -10.984 c -2.529,0 -4.943,-1.067 -6.646,-2.935 L 262,194.931 l -2.105,6.918 c 13.549,5.745 21.289,20.121 18.643,34.596 -3.131,17.07 -19.504,28.372 -36.574,25.247 -17.072,-3.129 -28.376,-19.502 -25.25,-36.572 3.131,-17.07 19.504,-28.376 36.574,-25.25 l 8.973,-29.443 c 1.348,-4.418 5.424,-7.434 10.041,-7.434 h 12.105 v 6.894 H 272.3 c -1.588,0 -2.982,1.036 -3.441,2.551 l -2.516,8.244 51.225,8.86 5.279,-14.273 -11.639,-3.194 c -0.705,-0.267 -1.15,-0.957 -1.109,-1.706 0.055,-0.951 0.869,-1.679 1.82,-1.624 h 0.908 25.162 v 6.802 h -7.893 z"
   id="path157"
   inkscape:connector-curvature="0" />
</g>
<g
   id="LWPOLYLINE_34_"
   transform="translate(-14.172,-113.385)">
	<path
   style="fill:#ffcd00"
   d="m 110.112,220.037 c 0,1.646 1.33,2.979 2.975,2.979 1.645,0 2.975,-1.333 2.975,-2.979 v -7.44 c 0,-1.642 -1.33,-2.976 -2.975,-2.976 -1.645,0 -2.975,1.334 -2.975,2.976 z"
   id="path160"
   inkscape:connector-curvature="0" />
</g>
<g
   id="LWPOLYLINE_38_"
   transform="translate(-14.172,-113.385)">
	<path
   style="fill:#ffcd00"
   d="m 166.663,212.897 h 5.95 v -0.301 c 0,-1.642 -1.333,-2.976 -2.975,-2.976 -1.642,0 -2.975,1.334 -2.975,2.976 z"
   id="path163"
   inkscape:connector-curvature="0" />
</g>
<g
   id="LWPOLYLINE_41_"
   transform="translate(-14.172,-113.385)">
	<polygon
   style="fill:#ffcd00"
   points="303.103,228.654 264.318,187.329 315.132,196.121 "
   id="polygon166" />
</g>
<g
   id="LWPOLYLINE_42_"
   transform="translate(-14.172,-113.385)">
	<path
   style="fill:#ffcd00"
   d="m 329.857,213.592 c -4.418,4.496 -6.934,10.515 -7.029,16.811 h 18.807 z"
   id="path169"
   inkscape:connector-curvature="0" />
</g>
<g
   id="LWPOLYLINE_43_"
   transform="translate(-14.172,-113.385)">
	<path
   style="fill:#ffcd00"
   d="m 315.933,230.402 c 0.104,-8.546 3.68,-16.685 9.91,-22.531 l -5.041,-7.198 -10.996,29.729 h 6.176 z"
   id="path172"
   inkscape:connector-curvature="0" />
</g>
<g
   id="LWPOLYLINE_45_"
   transform="translate(-14.172,-113.385)">
	<path
   style="fill:#ffcd00"
   d="m 349.923,230.221 c 0.527,0.756 0.814,1.655 0.814,2.578 0,2.486 -2.012,4.501 -4.5,4.501 H 323.71 c 3.596,13.059 17.104,20.729 30.16,17.125 13.063,-3.598 20.729,-17.104 17.131,-30.164 -3.604,-13.06 -17.104,-20.727 -30.166,-17.129 -1.916,0.53 -3.762,1.293 -5.5,2.264 z"
   id="path175"
   inkscape:connector-curvature="0" />
</g>
<g
   id="LWPOLYLINE_46_"
   transform="translate(-14.172,-113.385)">
	<path
   style="fill:#ffcd00"
   d="m 257.869,208.493 -6.9,22.624 c -0.041,0.201 -0.102,0.399 -0.178,0.588 -0.719,1.774 -2.736,2.626 -4.506,1.908 -1.771,-0.719 -2.627,-2.736 -1.908,-4.507 l 6.879,-22.583 c -13.391,-2.011 -25.879,7.226 -27.889,20.62 -2.004,13.397 7.229,25.886 20.627,27.896 13.396,2.004 25.885,-7.229 27.889,-20.627 1.62,-10.794 -4.096,-21.361 -14.014,-25.919 z"
   id="path178"
   inkscape:connector-curvature="0" />
</g>
</svg>