<?xml version="1.0" encoding="iso-8859-1"?>
<!-- Generator: Adobe Illustrator 16.0.0, SVG Export Plug-In . SVG Version: 6.00 Build 0)  -->
<!DOCTYPE svg PUBLIC "-//W3C//DTD SVG 1.1//EN" "http://www.w3.org/Graphics/SVG/1.1/DTD/svg11.dtd">
<svg version="1.1" id="Layer_1" xmlns="http://www.w3.org/2000/svg" xmlns:xlink="http://www.w3.org/1999/xlink" x="0px" y="0px"
	 width="425.197px" height="425.196px" viewBox="0 0 425.197 425.196" style="enable-background:new 0 0 425.197 425.196;"
	 xml:space="preserve">
<g id="LWPOLYLINE_52_">
	<rect x="14.174" y="96.849" style="fill:#FFCD00;" width="396.849" height="231.499"/>
</g>
<g id="LWPOLYLINE_87_">
	<path style="fill:#E4002B;" d="M40.627,328.348h343.941c14.608,0,26.454-11.846,26.454-26.459V123.307
		c0-14.613-11.846-26.458-26.454-26.458H40.627c-14.608,0-26.453,11.845-26.453,26.458v178.582
		C14.174,316.502,26.019,328.348,40.627,328.348z"/>
</g>
<g id="LWPOLYLINE_86_">
	<path style="fill:#FFCD00;" d="M40.627,315.116h343.941c7.305,0,13.223-5.918,13.223-13.228V123.307
		c0-7.304-5.918-13.227-13.223-13.227H40.627c-7.304,0-13.227,5.923-13.227,13.227v178.582
		C27.401,309.198,33.324,315.116,40.627,315.116z"/>
</g>
<g id="LWPOLYLINE_53_">
	<polygon style="fill:#101820;" points="125.488,169.607 147.318,169.607 147.318,163.652 131.442,163.652 131.442,151.748 
		142.157,151.748 142.157,145.798 131.442,145.798 131.442,135.877 147.318,135.877 147.318,129.922 125.488,129.922 	"/>
</g>
<g id="LWPOLYLINE_54_">
	<rect x="154.458" y="139.844" style="fill:#101820;" width="5.955" height="29.764"/>
</g>
<g id="LWPOLYLINE_55_">
	<rect x="154.458" y="129.922" style="fill:#101820;" width="5.955" height="5.955"/>
</g>
<g id="LWPOLYLINE_56_">
	<polygon style="fill:#101820;" points="186.209,169.607 180.255,169.607 180.255,129.922 186.209,129.922 186.209,151.854 
		194.143,139.844 200.097,139.844 193.304,150.034 200.138,169.616 194.143,169.607 189.365,155.947 186.209,160.68 	"/>
</g>
<g id="LWPOLYLINE_57_">
	<path style="fill:#101820;" d="M204.46,159.687c0,5.48,4.446,9.921,9.922,9.921c5.48,0,9.921-4.44,9.921-9.921v-9.922
		c0-5.48-4.44-9.921-9.921-9.921c-5.476,0-9.922,4.44-9.922,9.921V159.687z"/>
</g>
<g id="LWPOLYLINE_59_">
	<path style="fill:#101820;" d="M229.862,159.687c0,5.48,4.44,9.921,9.921,9.921h0.791c4.824,0,8.736-3.912,8.736-8.731
		c0-3.104-1.651-5.978-4.341-7.546l-6.582-3.839c-0.61-0.355-0.984-1.003-0.984-1.714c0-1.095,0.889-1.979,1.983-1.979h1.188
		c1.095,0,1.988,0.885,1.988,1.979h5.954c0-4.382-3.556-7.934-7.942-7.934h-1.188c-4.382,0-7.938,3.552-7.938,7.934
		c0,2.826,1.501,5.435,3.939,6.857l6.591,3.839c0.848,0.501,1.377,1.413,1.377,2.402c0,1.537-1.24,2.776-2.781,2.776h-0.791
		c-2.193,0-3.967-1.777-3.967-3.966H229.862z"/>
</g>
<g id="LWPOLYLINE_60_">
	<polygon style="fill:#101820;" points="262.003,169.607 256.057,169.607 256.057,129.922 262.003,129.922 262.003,151.854 
		269.946,139.844 275.9,139.844 269.097,150.034 275.937,169.616 269.946,169.607 265.158,155.947 262.003,160.68 	"/>
</g>
<g id="LWPOLYLINE_61_">
	<path style="fill:#101820;" d="M293.754,159.687h5.955c0,5.48-4.441,9.921-9.922,9.921c-5.479,0-9.921-4.44-9.921-9.921v-9.922
		c0-5.48,4.441-9.921,9.921-9.921c5.48,0,9.922,4.44,9.922,9.921v5.554h-13.888v4.368c0,2.188,1.769,3.966,3.966,3.966
		C291.976,163.652,293.754,161.875,293.754,159.687z"/>
</g>
<g id="CIRCLE_2_">
	<path style="fill:#101820;" d="M158.735,279.006c0-8.9-7.218-16.122-16.118-16.122c-8.904,0-16.122,7.222-16.122,16.122
		c0,8.899,7.218,16.117,16.122,16.117C151.517,295.123,158.735,287.905,158.735,279.006L158.735,279.006z"/>
</g>
<g id="LWPOLYLINE_63_">
	<path style="fill:#101820;" d="M293.727,279.845h32.181c3.173,0,5.745-2.571,5.745-5.745v-72.139c0-3.174-2.572-5.745-5.745-5.745
		H111.973c-2.621,0-4.915,1.778-5.563,4.317l-12.866,50.3v29.012h28.573c-0.022-0.562-0.022-1.122,0-1.678
		c0.461-11.317,10.013-20.121,21.334-19.66c11.321,0.465,20.12,10.012,19.66,21.338h89.617c-0.027-0.562-0.027-1.122,0-1.678
		c0.465-11.317,10.013-20.121,21.338-19.66C285.383,258.972,294.183,268.519,293.727,279.845z"/>
</g>
<g id="ELLIPSE_2_">
	<path style="fill:#101820;" d="M289.341,279.006c0-8.9-7.213-16.122-16.113-16.122c-8.899,0-16.122,7.222-16.122,16.122
		c0,8.899,7.223,16.117,16.122,16.117C282.128,295.123,289.341,287.905,289.341,279.006"/>
</g>
<g id="LWPOLYLINE_58_">
	<path style="fill:#FFCD00;" d="M210.416,159.687c0,2.188,1.778,3.966,3.967,3.966c2.193,0,3.971-1.777,3.971-3.966v-9.922
		c0-2.193-1.777-3.967-3.971-3.967c-2.188,0-3.967,1.773-3.967,3.967V159.687z"/>
</g>
<g id="LWPOLYLINE_62_">
	<path style="fill:#FFCD00;" d="M285.822,150.161h7.933v-0.396c0-2.193-1.778-3.967-3.967-3.967c-2.197,0-3.966,1.773-3.966,3.967
		V150.161z"/>
</g>
<g id="LWPOLYLINE_64_">
	<polygon style="fill:#FFCD00;" points="100.708,244.992 135.272,244.992 140.515,202.043 111.695,202.043 	"/>
</g>
<g id="LWPOLYLINE_65_">
	<polygon style="fill:#FFCD00;" points="142.029,235.007 181.458,235.007 181.458,202.043 146.05,202.043 	"/>
</g>
<g id="LWPOLYLINE_66_">
	<rect x="186.958" y="202.043" style="fill:#FFCD00;" width="42.124" height="32.964"/>
</g>
<g id="LWPOLYLINE_67_">
	<rect x="234.576" y="202.043" style="fill:#FFCD00;" width="42.127" height="32.964"/>
</g>
<g id="LWPOLYLINE_68_">
	<rect x="282.202" y="202.043" style="fill:#FFCD00;" width="42.128" height="32.964"/>
</g>
</svg>
