<?xml version="1.0" encoding="UTF-8" standalone="no"?>
<!-- Generator: Adobe Illustrator 16.0.0, SVG Export Plug-In . SVG Version: 6.00 Build 0)  -->

<svg
   xmlns:dc="http://purl.org/dc/elements/1.1/"
   xmlns:cc="http://creativecommons.org/ns#"
   xmlns:rdf="http://www.w3.org/1999/02/22-rdf-syntax-ns#"
   xmlns:svg="http://www.w3.org/2000/svg"
   xmlns="http://www.w3.org/2000/svg"
   xmlns:sodipodi="http://sodipodi.sourceforge.net/DTD/sodipodi-0.dtd"
   xmlns:inkscape="http://www.inkscape.org/namespaces/inkscape"
   version="1.1"
   id="Layer_1"
   x="0px"
   y="0px"
   width="396.853"
   height="198.427"
   viewBox="0 0 396.85301 198.427"
   xml:space="preserve"
   sodipodi:docname="H12.8.svg"
   inkscape:version="0.92.5 (2060ec1f9f, 2020-04-08)"><metadata
   id="metadata2165"><rdf:RDF><cc:Work
       rdf:about=""><dc:format>image/svg+xml</dc:format><dc:type
         rdf:resource="http://purl.org/dc/dcmitype/StillImage" /></cc:Work></rdf:RDF></metadata><defs
   id="defs2163" /><sodipodi:namedview
   pagecolor="#ffffff"
   bordercolor="#666666"
   borderopacity="1"
   objecttolerance="10"
   gridtolerance="10"
   guidetolerance="10"
   inkscape:pageopacity="0"
   inkscape:pageshadow="2"
   inkscape:window-width="640"
   inkscape:window-height="480"
   id="namedview2161"
   showgrid="false"
   inkscape:zoom="0.55503813"
   inkscape:cx="198.4265"
   inkscape:cy="99.213997"
   inkscape:window-x="0"
   inkscape:window-y="0"
   inkscape:window-maximized="0"
   inkscape:current-layer="Layer_1" />
<g
   id="LWPOLYLINE_144_"
   transform="translate(-14.172,-113.385)">
	<rect
   x="14.172"
   y="113.385"
   style="fill:#ffcd00"
   width="396.853"
   height="198.427"
   id="rect2133" />
</g>
<g
   id="LWPOLYLINE_142_"
   transform="translate(-14.172,-113.385)">
	<path
   style="fill:#e4002b"
   d="M 40.632,311.812 H 384.57 c 14.612,0 26.455,-11.847 26.455,-26.46 V 139.845 c 0,-14.613 -11.843,-26.46 -26.455,-26.46 H 40.632 c -14.613,0 -26.46,11.847 -26.46,26.46 v 145.507 c 0,14.613 11.847,26.46 26.46,26.46 z"
   id="path2136"
   inkscape:connector-curvature="0" />
</g>
<g
   id="LWPOLYLINE_143_"
   transform="translate(-14.172,-113.385)">
	<path
   style="fill:#ffcd00"
   d="M 40.632,298.584 H 384.57 c 7.302,0 13.228,-5.926 13.228,-13.232 V 139.845 c 0,-7.312 -5.926,-13.232 -13.228,-13.232 H 40.632 c -7.306,0 -13.232,5.921 -13.232,13.232 v 145.507 c -10e-4,7.306 5.926,13.232 13.232,13.232 z"
   id="path2139"
   inkscape:connector-curvature="0" />
</g>
<g
   id="CIRCLE_9_"
   transform="translate(-14.172,-113.385)">
	<path
   style="fill:#101820"
   d="m 181.597,255.684 c 0,-15.686 -12.718,-28.394 -28.398,-28.394 -15.68,0 -28.399,12.708 -28.399,28.394 0,15.686 12.718,28.394 28.398,28.394 15.68,0 28.399,-12.709 28.399,-28.394 z"
   id="path2142"
   inkscape:connector-curvature="0" />
</g>
<g
   id="CIRCLE_11_"
   transform="translate(-14.172,-113.385)">
	<path
   style="fill:#101820"
   d="m 300.394,255.684 c 0,-15.686 -12.708,-28.394 -28.389,-28.394 -15.69,0 -28.397,12.708 -28.397,28.394 0,15.686 12.707,28.394 28.397,28.394 15.681,-10e-4 28.389,-12.709 28.389,-28.394 z"
   id="path2145"
   inkscape:connector-curvature="0" />
</g>
<g
   id="LWPOLYLINE_148_"
   transform="translate(-14.172,-113.385)">
	<path
   style="fill:#101820"
   d="m 175.45,196.136 23.857,-19.581 c 3.578,-2.935 7.522,-5.388 11.746,-7.293 3.396,-1.529 7.33,-1.298 10.515,0.626 0.722,0.438 1.395,0.952 2.001,1.539 l 17.652,22.905 -17.999,12.617 -16.393,-22.098 -26.156,19.841 c -1.587,1.203 -2.078,3.367 -1.184,5.147 2.636,4.992 7.552,8.384 13.15,9.081 l 2.473,-5.638 c 0.654,-1.481 2.126,-2.438 3.752,-2.434 h 26.186 l 18.566,-12.968 9.938,12.968 h 25.397 c 3.761,3.275 4.223,8.946 1.039,12.785 -17.701,-4.416 -35.623,6.358 -40.039,24.06 -1.289,5.176 -1.309,10.582 -0.048,15.768 l -41.289,-1.843 c -5.936,-0.273 -11.025,-4.305 -12.641,-10.01 -2.03,-16.344 -15.796,-28.696 -32.266,-28.951 -1.27,-0.043 -2.511,-0.352 -3.656,-0.919 -4.406,-2.179 -6.214,-7.522 -4.04,-11.929 3.136,-8.023 9.976,-14.021 18.336,-16.085 l 10.543,-3.021 c 0.098,1.82 0.28,3.629 0.56,5.433"
   id="path2148"
   inkscape:connector-curvature="0" />
</g>
<g
   id="LWPOLYLINE_149_"
   transform="translate(-14.172,-113.385)">
	<path
   style="fill:#101820"
   d="m 196.864,173.846 7.003,-5.209 c 1.991,-1.481 4.185,-2.664 6.503,-3.53 2.752,-1.02 5.744,-1.184 8.591,-0.477 l 5.205,1.544 v -15.479 c -0.761,-4.155 -3.819,-7.522 -7.889,-8.677 -4.733,-1.414 -9.813,-1.164 -14.382,0.712 -4.811,2.106 -7.792,6.979 -7.494,12.217 h 8.86 0.403 l -0.403,5.926 -9.341,3.349 c -0.385,3.376 0.433,6.791 2.309,9.624 0.125,0.179 0.355,0.227 0.529,0.106 0.048,-0.024 0.086,-0.062 0.106,-0.106 z"
   id="path2151"
   inkscape:connector-curvature="0" />
</g>
<g
   id="CIRCLE_8_"
   transform="translate(-14.172,-113.385)">
	<path
   style="fill:#ffcd00"
   d="m 171.467,255.684 c 0,-10.086 -8.177,-18.269 -18.269,-18.269 -10.092,0 -18.269,8.183 -18.269,18.269 0,10.087 8.177,18.269 18.269,18.269 10.092,0 18.269,-8.182 18.269,-18.269 z"
   id="path2154"
   inkscape:connector-curvature="0" />
</g>
<g
   id="CIRCLE_10_"
   transform="translate(-14.172,-113.385)">
	<path
   style="fill:#ffcd00"
   d="m 290.274,255.684 c 0,-10.086 -8.187,-18.269 -18.269,-18.269 -10.091,0 -18.269,8.183 -18.269,18.269 0,10.087 8.178,18.269 18.269,18.269 10.082,-10e-4 18.269,-8.182 18.269,-18.269 z"
   id="path2157"
   inkscape:connector-curvature="0" />
</g>
</svg>