<?xml version="1.0" encoding="iso-8859-1"?>
<!-- Generator: Adobe Illustrator 16.0.0, SVG Export Plug-In . SVG Version: 6.00 Build 0)  -->
<!DOCTYPE svg PUBLIC "-//W3C//DTD SVG 1.1//EN" "http://www.w3.org/Graphics/SVG/1.1/DTD/svg11.dtd">
<svg version="1.1" id="Layer_1" xmlns="http://www.w3.org/2000/svg" xmlns:xlink="http://www.w3.org/1999/xlink" x="0px" y="0px"
	 width="425.197px" height="425.196px" viewBox="0 0 425.197 425.196" style="enable-background:new 0 0 425.197 425.196;"
	 xml:space="preserve">
<g id="LWPOLYLINE_42_">
	<rect x="14.173" y="113.386" style="fill:#FFCD00;" width="396.85" height="198.425"/>
</g>
<g id="LWPOLYLINE_44_">
	<path style="fill:#E4002B;" d="M391.18,113.386H34.017c-10.957,0-19.844,8.886-19.844,19.843v158.738
		c0,10.957,8.887,19.844,19.844,19.844H391.18c10.956,0,19.843-8.887,19.843-19.844V133.229
		C411.023,122.272,402.136,113.386,391.18,113.386z"/>
</g>
<g id="LWPOLYLINE_43_">
	<path style="fill:#FFCD00;" d="M391.18,123.307H34.017c-5.479,0-9.922,4.443-9.922,9.922v158.738c0,5.479,4.443,9.922,9.922,9.922
		H391.18c5.479,0,9.921-4.443,9.921-9.922V133.229C401.101,127.75,396.659,123.307,391.18,123.307z"/>
</g>
<g id="LWPOLYLINE_48_">
	<path style="fill:#101820;" d="M323.71,192.809l7.656,10.918c2.93-1.738,6.133-2.979,9.463-3.682
		c16.981-3.604,33.661,7.236,37.265,24.218c3.604,16.973-7.246,33.652-24.229,37.256c-16.972,3.604-33.651-7.246-37.255-24.219
		h-10.986c-2.529,0-4.941-1.064-6.65-2.939l-36.973-39.433l-2.109,6.924c13.545,5.742,21.289,20.116,18.643,34.589
		c-3.135,17.07-19.502,28.379-36.571,25.254c-17.07-3.135-28.379-19.502-25.254-36.572c3.135-17.069,19.512-28.378,36.581-25.253
		l8.965-29.443c1.348-4.414,5.43-7.432,10.039-7.432h12.109v6.895h-12.109c-1.582,0-2.979,1.035-3.438,2.549l-2.52,8.242
		l51.23,8.867l5.283-14.277l-11.641-3.193c-0.703-0.264-1.152-0.957-1.113-1.709c0.059-0.947,0.869-1.68,1.816-1.621h0.918h25.156
		v6.797h-7.891L323.71,192.809z"/>
</g>
<g id="LWPOLYLINE_76_">
	<polygon style="fill:#101820;" points="46.418,202.682 62.786,202.682 62.786,198.219 50.881,198.219 50.881,189.283 
		58.918,189.283 58.918,184.82 50.881,184.82 50.881,177.379 62.786,177.379 62.786,172.916 46.418,172.916 	"/>
</g>
<g id="LWPOLYLINE_77_">
	<rect x="68.147" y="180.357" style="fill:#101820;" width="4.463" height="22.324"/>
</g>
<g id="LWPOLYLINE_78_">
	<rect x="68.147" y="172.916" style="fill:#101820;" width="4.463" height="4.463"/>
</g>
<g id="LWPOLYLINE_79_">
	<polygon style="fill:#101820;" points="91.956,202.682 87.493,202.682 87.493,172.916 91.956,172.916 91.956,189.361 
		97.913,180.357 102.375,180.357 97.278,187.994 102.405,202.682 97.913,202.682 94.319,192.428 91.956,195.982 	"/>
</g>
<g id="LWPOLYLINE_80_">
	<path style="fill:#101820;" d="M105.647,195.24c0,4.102,3.33,7.441,7.441,7.441c4.11,0,7.44-3.34,7.44-7.441v-7.441
		c0-4.111-3.33-7.441-7.44-7.441c-4.111,0-7.441,3.33-7.441,7.441V195.24z"/>
</g>
<g id="LWPOLYLINE_82_">
	<path style="fill:#101820;" d="M124.699,195.24c0,4.102,3.33,7.441,7.441,7.441h0.596c3.613,0,6.543-2.939,6.543-6.553
		c0-2.324-1.23-4.482-3.252-5.654l-4.941-2.881c-0.449-0.264-0.732-0.752-0.732-1.289c0-0.82,0.664-1.484,1.484-1.484h0.898
		c0.82,0,1.484,0.664,1.484,1.484h4.463c0-3.291-2.666-5.947-5.947-5.947h-0.898c-3.281,0-5.947,2.656-5.947,5.947
		c0,2.119,1.123,4.082,2.949,5.146l4.941,2.881c0.645,0.371,1.035,1.055,1.035,1.797c0,1.152-0.938,2.09-2.08,2.09h-0.596
		c-1.65,0-2.979-1.338-2.979-2.979H124.699z"/>
</g>
<g id="LWPOLYLINE_83_">
	<polygon style="fill:#101820;" points="148.81,202.682 144.337,202.682 144.337,172.916 148.81,172.916 148.81,189.361 
		154.757,180.357 159.22,180.357 154.123,187.994 159.25,202.682 154.757,202.682 151.173,192.428 148.81,195.982 	"/>
</g>
<g id="LWPOLYLINE_84_">
	<path style="fill:#101820;" d="M172.619,195.24h4.463c0,4.102-3.33,7.441-7.441,7.441s-7.441-3.34-7.441-7.441v-7.441
		c0-4.111,3.33-7.441,7.441-7.441s7.441,3.33,7.441,7.441v4.16h-10.42v3.281c0,1.641,1.338,2.979,2.979,2.979
		S172.619,196.881,172.619,195.24z"/>
</g>
<g id="LWPOLYLINE_86_">
	<path style="fill:#101820;" d="M62.786,252.28h2.979v-16.367h-9.673v4.463h5.21v2.09v0.146c0,2.871-2.334,5.205-5.21,5.205
		s-5.21-2.334-5.21-5.205v-10.42c0-2.871,2.334-5.205,5.21-5.205s5.21,2.334,5.21,5.205h4.463c0-5.342-4.331-9.678-9.673-9.678
		s-9.673,4.336-9.673,9.678v10.42c0.005,5.332,4.326,9.648,9.658,9.639c1.978,0,3.906-0.615,5.527-1.748L62.786,252.28z"/>
</g>
<g id="LWPOLYLINE_87_">
	<rect x="80.354" y="222.515" style="fill:#101820;" width="4.463" height="4.473"/>
</g>
<g id="LWPOLYLINE_88_">
	<rect x="72.317" y="222.515" style="fill:#101820;" width="4.463" height="4.473"/>
</g>
<g id="LWPOLYLINE_89_">
	<path style="fill:#101820;" d="M85.403,252.28H80.95v-1.426c-1.797,0.967-3.809,1.455-5.85,1.426
		c-1.836,0.049-3.477-1.104-4.063-2.842c-0.723-2.285-0.107-4.785,1.582-6.475c2.178-2.334,5.146-3.76,8.33-3.994v-2.314
		c0-1.23-1.006-2.227-2.236-2.227c-1.24,0-2.236,0.996-2.236,2.227h-4.463c0-3.701,2.998-6.699,6.699-6.699
		c3.691,0,6.689,2.998,6.689,6.699V252.28z"/>
</g>
<g id="LWPOLYLINE_91_">
	<rect x="90.764" y="222.515" style="fill:#101820;" width="4.473" height="29.766"/>
</g>
<g id="LWPOLYLINE_92_">
	<rect x="101.184" y="222.515" style="fill:#101820;" width="4.463" height="29.766"/>
</g>
<g id="LWPOLYLINE_93_">
	<path style="fill:#101820;" d="M121.125,244.839h4.463c0,4.111-3.33,7.441-7.441,7.441s-7.44-3.33-7.44-7.441v-7.441
		c0-4.102,3.329-7.441,7.44-7.441s7.441,3.34,7.441,7.441v4.17h-10.42v3.271c0,1.641,1.338,2.979,2.979,2.979
		S121.125,246.479,121.125,244.839z"/>
</g>
<g id="LWPOLYLINE_95_">
	<path style="fill:#101820;" d="M135.412,236.812v15.469h-4.463v-22.324h4.463v1.201c1.572-0.791,3.301-1.201,5.059-1.201v4.727
		c-1.172-1.152-3.057-1.133-4.209,0.039C135.714,235.278,135.412,236.03,135.412,236.812z"/>
</g>
<g id="LWPOLYLINE_96_">
	<path style="fill:#101820;" d="M165.773,244.839h4.463c0,4.111-3.33,7.441-7.441,7.441s-7.441-3.33-7.441-7.441v-7.441
		c0-4.102,3.33-7.441,7.441-7.441s7.441,3.34,7.441,7.441v4.17h-10.42v3.271c0,1.641,1.338,2.979,2.979,2.979
		S165.773,246.479,165.773,244.839z"/>
</g>
<g id="LWPOLYLINE_98_">
	<path style="fill:#101820;" d="M180.05,229.956v21.729c0,3.623-2.92,6.553-6.543,6.553h-0.596l0.596-4.463
		c1.152,0,2.08-0.938,2.08-2.09v-21.729H180.05z"/>
</g>
<g id="LWPOLYLINE_99_">
	<rect x="175.587" y="222.515" style="fill:#101820;" width="4.463" height="4.473"/>
</g>
<g id="LWPOLYLINE_45_">
	<polygon style="fill:#FFCD00;" points="264.316,187.33 315.136,196.119 303.105,228.657 	"/>
</g>
<g id="LWPOLYLINE_46_">
	<path style="fill:#FFCD00;" d="M329.853,213.59c-4.414,4.501-6.934,10.517-7.031,16.815h18.809L329.853,213.59z"/>
</g>
<g id="LWPOLYLINE_47_">
	<path style="fill:#FFCD00;" d="M315.937,230.405c0.098-8.545,3.672-16.688,9.902-22.538l-5.039-7.197l-10.996,29.735h6.172H315.937
		z"/>
</g>
<g id="LWPOLYLINE_49_">
	<path style="fill:#FFCD00;" d="M349.92,230.22c0.527,0.752,0.82,1.66,0.82,2.578c0,2.49-2.012,4.502-4.502,4.502H323.71
		c3.594,13.057,17.1,20.732,30.155,17.129c13.066-3.604,20.732-17.109,17.139-30.166c-3.604-13.065-17.109-20.731-30.175-17.128
		c-1.914,0.527-3.76,1.289-5.498,2.266L349.92,230.22z"/>
</g>
<g id="LWPOLYLINE_50_">
	<path style="fill:#FFCD00;" d="M257.871,208.492l-6.904,22.626c-0.039,0.195-0.098,0.4-0.176,0.586
		c-0.723,1.777-2.734,2.627-4.511,1.904c-1.768-0.713-2.617-2.734-1.904-4.502l6.884-22.587
		c-13.397-2.002-25.878,7.227-27.89,20.624c-2.012,13.398,7.227,25.889,20.625,27.9c13.397,2.002,25.888-7.236,27.89-20.635
		C273.505,223.618,267.783,213.053,257.871,208.492z"/>
</g>
<g id="LWPOLYLINE_81_">
	<path style="fill:#FFCD00;" d="M110.11,195.24c0,1.641,1.338,2.979,2.979,2.979c1.649,0,2.978-1.338,2.978-2.979v-7.441
		c0-1.65-1.328-2.979-2.978-2.979c-1.641,0-2.979,1.328-2.979,2.979V195.24z"/>
</g>
<g id="LWPOLYLINE_85_">
	<path style="fill:#FFCD00;" d="M166.662,188.092h5.957v-0.293c0-1.65-1.338-2.979-2.979-2.979s-2.979,1.328-2.979,2.979V188.092z"
		/>
</g>
<g id="LWPOLYLINE_90_">
	<path style="fill:#FFCD00;" d="M80.95,241.88c-1.494,0.361-2.881,1.064-4.043,2.061c-1.035,0.918-1.631,2.246-1.611,3.633
		c0.02,0.908,0.771,1.621,1.67,1.602c0.078,0,0.146-0.01,0.225-0.02c1.318-0.215,2.578-0.645,3.76-1.279V241.88z"/>
</g>
<g id="LWPOLYLINE_94_">
	<path style="fill:#FFCD00;" d="M115.167,237.7h5.957v-0.303c0-1.641-1.338-2.969-2.979-2.969s-2.979,1.328-2.979,2.969V237.7z"/>
</g>
<g id="LWPOLYLINE_97_">
	<path style="fill:#FFCD00;" d="M159.816,237.7h5.957v-0.303c0-1.641-1.338-2.969-2.979-2.969s-2.979,1.328-2.979,2.969V237.7z"/>
</g>
</svg>
