<?xml version="1.0" encoding="UTF-8" standalone="no"?>
<!-- Generator: Adobe Illustrator 16.0.0, SVG Export Plug-In . SVG Version: 6.00 Build 0)  -->

<svg
   xmlns:dc="http://purl.org/dc/elements/1.1/"
   xmlns:cc="http://creativecommons.org/ns#"
   xmlns:rdf="http://www.w3.org/1999/02/22-rdf-syntax-ns#"
   xmlns:svg="http://www.w3.org/2000/svg"
   xmlns="http://www.w3.org/2000/svg"
   xmlns:sodipodi="http://sodipodi.sourceforge.net/DTD/sodipodi-0.dtd"
   xmlns:inkscape="http://www.inkscape.org/namespaces/inkscape"
   version="1.1"
   id="Layer_1"
   x="0px"
   y="0px"
   width="396.853"
   height="198.427"
   viewBox="0 0 396.85301 198.427"
   xml:space="preserve"
   sodipodi:docname="H12.7.svg"
   inkscape:version="0.92.5 (2060ec1f9f, 2020-04-08)"><metadata
   id="metadata1985"><rdf:RDF><cc:Work
       rdf:about=""><dc:format>image/svg+xml</dc:format><dc:type
         rdf:resource="http://purl.org/dc/dcmitype/StillImage" /></cc:Work></rdf:RDF></metadata><defs
   id="defs1983" /><sodipodi:namedview
   pagecolor="#ffffff"
   bordercolor="#666666"
   borderopacity="1"
   objecttolerance="10"
   gridtolerance="10"
   guidetolerance="10"
   inkscape:pageopacity="0"
   inkscape:pageshadow="2"
   inkscape:window-width="640"
   inkscape:window-height="480"
   id="namedview1981"
   showgrid="false"
   inkscape:zoom="0.55503813"
   inkscape:cx="198.4265"
   inkscape:cy="99.213997"
   inkscape:window-x="0"
   inkscape:window-y="0"
   inkscape:window-maximized="0"
   inkscape:current-layer="Layer_1" />
<g
   id="LWPOLYLINE_144_"
   transform="translate(-14.172,-113.385)">
	<rect
   x="14.172"
   y="113.385"
   style="fill:#ffcd00"
   width="396.853"
   height="198.427"
   id="rect1965" />
</g>
<g
   id="LWPOLYLINE_142_"
   transform="translate(-14.172,-113.385)">
	<path
   style="fill:#e4002b"
   d="M 40.632,311.812 H 384.57 c 14.612,0 26.455,-11.847 26.455,-26.46 V 139.845 c 0,-14.613 -11.843,-26.46 -26.455,-26.46 H 40.632 c -14.613,0 -26.46,11.847 -26.46,26.46 v 145.507 c 0,14.613 11.847,26.46 26.46,26.46 z"
   id="path1968"
   inkscape:connector-curvature="0" />
</g>
<g
   id="LWPOLYLINE_143_"
   transform="translate(-14.172,-113.385)">
	<path
   style="fill:#ffcd00"
   d="M 40.632,298.584 H 384.57 c 7.302,0 13.228,-5.926 13.228,-13.232 V 139.845 c 0,-7.312 -5.926,-13.232 -13.228,-13.232 H 40.632 c -7.306,0 -13.232,5.921 -13.232,13.232 v 145.507 c -10e-4,7.306 5.926,13.232 13.232,13.232 z"
   id="path1971"
   inkscape:connector-curvature="0" />
</g>
<g
   id="LWPOLYLINE_147_"
   transform="translate(-14.172,-113.385)">
	<path
   style="fill:#101820"
   d="m 191.178,253.086 c 9.158,20.419 33.141,29.539 53.564,20.371 20.414,-9.168 29.533,-33.15 20.365,-53.564 -3.953,-8.821 -10.938,-15.931 -19.683,-20.053 l -0.471,11.876 c 6.714,4.555 11.294,11.64 12.679,19.634 2.848,16.287 -8.062,31.795 -24.349,34.633 -16.296,2.842 -31.804,-8.063 -34.642,-24.354 z"
   id="path1974"
   inkscape:connector-curvature="0" />
</g>
<g
   id="LWPOLYLINE_148_"
   transform="translate(-14.172,-113.385)">
	<path
   style="fill:#101820"
   d="m 227.965,214.5 h -32.448 l -19.058,30.337 -12.698,-8.466 -7.052,10.582 24.695,16.229 21.867,-35.983 h 36.69 l 3.598,-56.129 c 6.013,-2.761 8.658,-9.884 5.888,-15.901 -2.771,-6.022 -9.89,-8.658 -15.911,-5.893 -6.013,2.766 -8.648,9.89 -5.888,15.907 0.856,1.852 2.164,3.453 3.81,4.665 l -1.838,23.483 h -27.051 v 12.703 h 26.061 z"
   id="path1977"
   inkscape:connector-curvature="0" />
</g>
</svg>