<?xml version="1.0" encoding="iso-8859-1"?>
<!-- Generator: Adobe Illustrator 16.0.0, SVG Export Plug-In . SVG Version: 6.00 Build 0)  -->
<!DOCTYPE svg PUBLIC "-//W3C//DTD SVG 1.1//EN" "http://www.w3.org/Graphics/SVG/1.1/DTD/svg11.dtd">
<svg version="1.1" id="Layer_1" xmlns="http://www.w3.org/2000/svg" xmlns:xlink="http://www.w3.org/1999/xlink" x="0px" y="0px"
	 width="425.197px" height="425.196px" viewBox="0 0 425.197 425.196" style="enable-background:new 0 0 425.197 425.196;"
	 xml:space="preserve">
<g id="LWPOLYLINE">
	<rect x="14.172" y="136.281" style="fill:#FFCD00;" width="396.853" height="152.634"/>
</g>
<g id="LWPOLYLINE_25_">
	<path style="fill:#E4002B;" d="M38.596,288.915c-13.487,0-24.424-10.937-24.424-24.424v-103.79c0-13.487,10.937-24.42,24.424-24.42
		h348.001c13.495,0,24.428,10.933,24.428,24.42v103.79c0,13.487-10.933,24.424-24.428,24.424H38.596z"/>
</g>
<g id="LWPOLYLINE_26_">
	<path style="fill:#FFCD00;" d="M386.597,276.702c6.751,0,12.214-5.467,12.214-12.211v-103.79c0-6.744-5.463-12.214-12.214-12.214
		H38.596c-6.744,0-12.214,5.47-12.214,12.214v103.79c0,6.744,5.47,12.211,12.214,12.211H386.597z"/>
</g>
<g id="LWPOLYLINE_27_">
	<path style="fill:#101820;" d="M301.675,255.311c0,1.698,1.373,3.078,3.078,3.078h8.619c1.698,0,3.078-1.38,3.078-3.078v-14.188
		h-14.775V255.311"/>
</g>
<g id="LWPOLYLINE_29_">
	<path style="fill:#101820;" d="M301.342,179.014c2.456,0,4.685,1.465,5.654,3.726l8.641,20.086c0.254,0.592,0.544,1.164,0.87,1.72
		l4.713,8.028c0.835,1.419,1.273,3.032,1.273,4.678v17.584c0,1.171-0.672,2.24-1.733,2.746c-1.826,0.881-3.836,1.341-5.866,1.341
		h-88.228c-2.03,0-4.04-0.46-5.865-1.341c-1.055-0.506-1.728-1.575-1.734-2.746v-17.584c0-1.646,0.439-3.259,1.273-4.678
		l4.721-8.028c0.325-0.556,0.615-1.128,0.863-1.72l8.64-20.086c0.977-2.261,3.198-3.726,5.654-3.726H301.342z"/>
</g>
<g id="LWPOLYLINE_30_">
	<path style="fill:#101820;" d="M239.885,255.311c0,1.698-1.373,3.078-3.078,3.078h-8.611c-1.706,0-3.078-1.38-3.078-3.078v-14.188
		h14.768V255.311"/>
</g>
<g id="LWPOLYLINE_31_">
	<path style="fill:#101820;" d="M386.597,273.651H212.599v-15.263h183.162v6.103C395.761,269.548,391.657,273.651,386.597,273.651z"
		/>
</g>
<g id="LWPOLYLINE_28_">
	<path style="fill:#FFCD00;" d="M299.312,185.171c1.231,0,2.342,0.735,2.83,1.864l8.314,19.339h-79.353l8.314-19.339
		c0.488-1.129,1.6-1.864,2.83-1.864H299.312z"/>
</g>
</svg>
