<?xml version="1.0" encoding="iso-8859-1"?>
<!-- Generator: Adobe Illustrator 16.0.0, SVG Export Plug-In . SVG Version: 6.00 Build 0)  -->
<!DOCTYPE svg PUBLIC "-//W3C//DTD SVG 1.1//EN" "http://www.w3.org/Graphics/SVG/1.1/DTD/svg11.dtd">
<svg version="1.1" id="Layer_1" xmlns="http://www.w3.org/2000/svg" xmlns:xlink="http://www.w3.org/1999/xlink" x="0px" y="0px"
	 width="425.197px" height="425.196px" viewBox="0 0 425.197 425.196" style="enable-background:new 0 0 425.197 425.196;"
	 xml:space="preserve">
<g id="LWPOLYLINE_17_">
	<rect x="14.174" y="129.921" style="fill:#FFCD00;" width="396.849" height="165.354"/>
</g>
<g id="LWPOLYLINE_18_">
	<path style="fill:#E4002B;" d="M40.629,129.921h343.938c14.611,0,26.455,11.844,26.455,26.455v112.44
		c0,14.611-11.844,26.459-26.455,26.459H40.629c-14.611,0-26.455-11.848-26.455-26.459v-112.44
		C14.174,141.765,26.018,129.921,40.629,129.921z"/>
</g>
<g id="LWPOLYLINE_19_">
	<path style="fill:#FFCD00;" d="M384.568,282.044c7.306,0,13.224-5.922,13.224-13.228v-112.44c0-7.306-5.918-13.231-13.224-13.231
		H40.629c-7.306,0-13.228,5.926-13.228,13.231v112.44c0,7.306,5.922,13.228,13.228,13.228H384.568z"/>
</g>
<g id="LWPOLYLINE_20_">
	<path style="fill:#101820;" d="M309.096,258.87c0,1.84,1.495,3.334,3.335,3.334h9.337c1.84,0,3.335-1.494,3.335-3.334v-15.371
		h-16.007V258.87"/>
</g>
<g id="LWPOLYLINE_22_">
	<path style="fill:#101820;" d="M308.736,176.216c2.668,0,5.075,1.587,6.125,4.036l9.36,21.76c0.276,0.64,0.591,1.261,0.943,1.862
		l5.113,8.697c0.896,1.537,1.372,3.285,1.372,5.067v19.05c0,1.269-0.729,2.426-1.871,2.975c-1.985,0.954-4.154,1.452-6.362,1.452
		h-95.571c-2.208,0-4.377-0.498-6.362-1.452c-1.143-0.549-1.871-1.706-1.879-2.975v-19.05c0-1.782,0.483-3.53,1.38-5.067
		l5.113-8.697c0.353-0.602,0.667-1.223,0.943-1.862l9.36-21.76c1.05-2.449,3.457-4.036,6.125-4.036H308.736z"/>
</g>
<g id="LWPOLYLINE_23_">
	<path style="fill:#101820;" d="M242.166,258.87c0,1.84-1.495,3.334-3.335,3.334h-9.337c-1.84,0-3.335-1.494-3.335-3.334v-15.371
		h16.007V258.87"/>
</g>
<g id="LWPOLYLINE_24_">
	<path style="fill:#101820;" d="M384.568,278.74H212.597v-16.536h181.891v6.612C394.488,274.294,390.049,278.74,384.568,278.74z"/>
</g>
<g id="LWPOLYLINE_21_">
	<path style="fill:#FFCD00;" d="M306.543,182.885c1.326,0,2.538,0.798,3.059,2.021l9.016,20.95h-85.974l9.016-20.95
		c0.521-1.223,1.725-2.021,3.059-2.021H306.543z"/>
</g>
</svg>
