<?xml version="1.0" encoding="iso-8859-1"?>
<!-- Generator: Adobe Illustrator 16.0.0, SVG Export Plug-In . SVG Version: 6.00 Build 0)  -->
<!DOCTYPE svg PUBLIC "-//W3C//DTD SVG 1.1//EN" "http://www.w3.org/Graphics/SVG/1.1/DTD/svg11.dtd">
<svg version="1.1" id="Layer_1" xmlns="http://www.w3.org/2000/svg" xmlns:xlink="http://www.w3.org/1999/xlink" x="0px" y="0px"
	 width="425.197px" height="425.196px" viewBox="0 0 425.197 425.196" style="enable-background:new 0 0 425.197 425.196;"
	 xml:space="preserve">
<g id="LWPOLYLINE">
	
		<rect x="14.174" y="129.92" style="fill:#005EB8;stroke:#005EB8;stroke-width:0.5;stroke-miterlimit:10;" width="396.849" height="165.356"/>
</g>
<g id="LWPOLYLINE_8_">
	<path style="fill:#FFFFFF;" d="M40.627,129.92h343.941c14.608,0,26.454,11.846,26.454,26.459v112.439
		c0,14.612-11.846,26.458-26.454,26.458H40.627c-14.608,0-26.453-11.846-26.453-26.458V156.379
		C14.174,141.766,26.019,129.92,40.627,129.92z"/>
</g>
<g id="LWPOLYLINE_9_">
	<path style="fill:#005EB8;" d="M212.597,265.513h185.194V156.379c0-7.305-5.919-13.232-13.223-13.232H40.627
		c-7.304,0-13.227,5.928-13.227,13.232v112.439c0,7.309,5.923,13.227,13.227,13.227h171.97V265.513z"/>
</g>
<g id="LWPOLYLINE_10_">
	<path style="fill:#FFFFFF;" d="M309.092,262.175c0,1.842,1.496,3.338,3.338,3.338h9.337c1.843,0,3.338-1.496,3.338-3.338V246.81
		h-16.013V262.175"/>
</g>
<g id="LWPOLYLINE_11_">
	<path style="fill:#FFFFFF;" d="M308.737,179.526c2.663,0,5.07,1.587,6.128,4.035l9.355,21.763c0.273,0.638,0.593,1.258,0.939,1.855
		l5.116,8.699c0.902,1.541,1.377,3.287,1.377,5.07v19.049c0,1.268-0.729,2.426-1.879,2.973c-1.979,0.957-4.149,1.45-6.355,1.45
		h-95.574c-2.207,0-4.377-0.493-6.365-1.45c-1.14-0.547-1.869-1.705-1.869-2.973v-19.049c0-1.783,0.474-3.529,1.377-5.07
		l5.106-8.699c0.355-0.598,0.675-1.218,0.948-1.855l9.355-21.763c1.049-2.448,3.466-4.035,6.128-4.035H308.737z"/>
</g>
<g id="LWPOLYLINE_12_">
	<path style="fill:#FFFFFF;" d="M242.161,262.175c0,1.842-1.486,3.338-3.329,3.338h-9.337c-1.842,0-3.338-1.496-3.338-3.338V246.81
		h16.004V262.175"/>
</g>
<g id="LWPOLYLINE_15_">
	<path style="fill:#005EB8;" d="M306.54,186.197c1.331,0,2.534,0.793,3.063,2.015l9.01,20.955H232.65l9.009-20.955
		c0.521-1.222,1.732-2.015,3.064-2.015H306.54z"/>
</g>
</svg>
