<?xml version="1.0" encoding="UTF-8" standalone="no"?>
<!-- Generator: Adobe Illustrator 16.0.0, SVG Export Plug-In . SVG Version: 6.00 Build 0)  -->

<svg
   xmlns:dc="http://purl.org/dc/elements/1.1/"
   xmlns:cc="http://creativecommons.org/ns#"
   xmlns:rdf="http://www.w3.org/1999/02/22-rdf-syntax-ns#"
   xmlns:svg="http://www.w3.org/2000/svg"
   xmlns="http://www.w3.org/2000/svg"
   xmlns:sodipodi="http://sodipodi.sourceforge.net/DTD/sodipodi-0.dtd"
   xmlns:inkscape="http://www.inkscape.org/namespaces/inkscape"
   version="1.1"
   id="Layer_1"
   x="0px"
   y="0px"
   width="397.349"
   height="165.856"
   viewBox="0 0 397.34901 165.856"
   xml:space="preserve"
   sodipodi:docname="H13.1.svg"
   inkscape:version="0.92.5 (2060ec1f9f, 2020-04-08)"><metadata
   id="metadata2655"><rdf:RDF><cc:Work
       rdf:about=""><dc:format>image/svg+xml</dc:format><dc:type
         rdf:resource="http://purl.org/dc/dcmitype/StillImage" /></cc:Work></rdf:RDF></metadata><defs
   id="defs2653" /><sodipodi:namedview
   pagecolor="#ffffff"
   bordercolor="#666666"
   borderopacity="1"
   objecttolerance="10"
   gridtolerance="10"
   guidetolerance="10"
   inkscape:pageopacity="0"
   inkscape:pageshadow="2"
   inkscape:window-width="640"
   inkscape:window-height="480"
   id="namedview2651"
   showgrid="false"
   inkscape:zoom="0.55503813"
   inkscape:cx="198.6745"
   inkscape:cy="82.927994"
   inkscape:window-x="0"
   inkscape:window-y="0"
   inkscape:window-maximized="0"
   inkscape:current-layer="Layer_1" />
<g
   id="LWPOLYLINE"
   transform="translate(-13.924,-129.67)">
	
		<rect
   x="14.174"
   y="129.92"
   style="fill:#005eb8;stroke:#005eb8;stroke-width:0.5;stroke-miterlimit:10"
   width="396.849"
   height="165.356"
   id="rect2629" />
</g>
<g
   id="LWPOLYLINE_8_"
   transform="translate(-13.924,-129.67)">
	<path
   style="fill:#ffffff"
   d="m 40.627,129.92 h 343.941 c 14.608,0 26.454,11.846 26.454,26.459 v 112.439 c 0,14.612 -11.846,26.458 -26.454,26.458 H 40.627 c -14.608,0 -26.453,-11.846 -26.453,-26.458 V 156.379 c 0,-14.613 11.845,-26.459 26.453,-26.459 z"
   id="path2632"
   inkscape:connector-curvature="0" />
</g>
<g
   id="LWPOLYLINE_9_"
   transform="translate(-13.924,-129.67)">
	<path
   style="fill:#005eb8"
   d="M 212.597,265.513 H 397.791 V 156.379 c 0,-7.305 -5.919,-13.232 -13.223,-13.232 H 40.627 c -7.304,0 -13.227,5.928 -13.227,13.232 v 112.439 c 0,7.309 5.923,13.227 13.227,13.227 h 171.97 z"
   id="path2635"
   inkscape:connector-curvature="0" />
</g>
<g
   id="LWPOLYLINE_10_"
   transform="translate(-13.924,-129.67)">
	<path
   style="fill:#ffffff"
   d="m 309.092,262.175 c 0,1.842 1.496,3.338 3.338,3.338 h 9.337 c 1.843,0 3.338,-1.496 3.338,-3.338 V 246.81 h -16.013 v 15.365"
   id="path2638"
   inkscape:connector-curvature="0" />
</g>
<g
   id="LWPOLYLINE_11_"
   transform="translate(-13.924,-129.67)">
	<path
   style="fill:#ffffff"
   d="m 308.737,179.526 c 2.663,0 5.07,1.587 6.128,4.035 l 9.355,21.763 c 0.273,0.638 0.593,1.258 0.939,1.855 l 5.116,8.699 c 0.902,1.541 1.377,3.287 1.377,5.07 v 19.049 c 0,1.268 -0.729,2.426 -1.879,2.973 -1.979,0.957 -4.149,1.45 -6.355,1.45 h -95.574 c -2.207,0 -4.377,-0.493 -6.365,-1.45 -1.14,-0.547 -1.869,-1.705 -1.869,-2.973 v -19.049 c 0,-1.783 0.474,-3.529 1.377,-5.07 l 5.106,-8.699 c 0.355,-0.598 0.675,-1.218 0.948,-1.855 l 9.355,-21.763 c 1.049,-2.448 3.466,-4.035 6.128,-4.035 z"
   id="path2641"
   inkscape:connector-curvature="0" />
</g>
<g
   id="LWPOLYLINE_12_"
   transform="translate(-13.924,-129.67)">
	<path
   style="fill:#ffffff"
   d="m 242.161,262.175 c 0,1.842 -1.486,3.338 -3.329,3.338 h -9.337 c -1.842,0 -3.338,-1.496 -3.338,-3.338 V 246.81 h 16.004 v 15.365"
   id="path2644"
   inkscape:connector-curvature="0" />
</g>
<g
   id="LWPOLYLINE_15_"
   transform="translate(-13.924,-129.67)">
	<path
   style="fill:#005eb8"
   d="m 306.54,186.197 c 1.331,0 2.534,0.793 3.063,2.015 l 9.01,20.955 H 232.65 l 9.009,-20.955 c 0.521,-1.222 1.732,-2.015 3.064,-2.015 z"
   id="path2647"
   inkscape:connector-curvature="0" />
</g>
</svg>