<?xml version="1.0" encoding="UTF-8" standalone="no"?>
<!-- Generator: Adobe Illustrator 16.0.0, SVG Export Plug-In . SVG Version: 6.00 Build 0)  -->

<svg
   xmlns:dc="http://purl.org/dc/elements/1.1/"
   xmlns:cc="http://creativecommons.org/ns#"
   xmlns:rdf="http://www.w3.org/1999/02/22-rdf-syntax-ns#"
   xmlns:svg="http://www.w3.org/2000/svg"
   xmlns="http://www.w3.org/2000/svg"
   xmlns:sodipodi="http://sodipodi.sourceforge.net/DTD/sodipodi-0.dtd"
   xmlns:inkscape="http://www.inkscape.org/namespaces/inkscape"
   version="1.1"
   id="Layer_1"
   x="0px"
   y="0px"
   width="396.853"
   height="152.634"
   viewBox="0 0 396.85301 152.634"
   xml:space="preserve"
   sodipodi:docname="H13.1_2.svg"
   inkscape:version="0.92.5 (2060ec1f9f, 2020-04-08)"><metadata
   id="metadata2686"><rdf:RDF><cc:Work
       rdf:about=""><dc:format>image/svg+xml</dc:format><dc:type
         rdf:resource="http://purl.org/dc/dcmitype/StillImage" /></cc:Work></rdf:RDF></metadata><defs
   id="defs2684" /><sodipodi:namedview
   pagecolor="#ffffff"
   bordercolor="#666666"
   borderopacity="1"
   objecttolerance="10"
   gridtolerance="10"
   guidetolerance="10"
   inkscape:pageopacity="0"
   inkscape:pageshadow="2"
   inkscape:window-width="640"
   inkscape:window-height="480"
   id="namedview2682"
   showgrid="false"
   inkscape:zoom="0.55503813"
   inkscape:cx="198.4265"
   inkscape:cy="76.317001"
   inkscape:window-x="0"
   inkscape:window-y="0"
   inkscape:window-maximized="0"
   inkscape:current-layer="Layer_1" />
<g
   id="LWPOLYLINE"
   transform="translate(-14.172,-136.281)">
	<rect
   x="14.172"
   y="136.28101"
   style="fill:#ffcd00"
   width="396.853"
   height="152.634"
   id="rect2657" />
</g>
<g
   id="LWPOLYLINE_25_"
   transform="translate(-14.172,-136.281)">
	<path
   style="fill:#e4002b"
   d="m 38.596,288.915 c -13.487,0 -24.424,-10.937 -24.424,-24.424 v -103.79 c 0,-13.487 10.937,-24.42 24.424,-24.42 h 348.001 c 13.495,0 24.428,10.933 24.428,24.42 v 103.79 c 0,13.487 -10.933,24.424 -24.428,24.424 z"
   id="path2660"
   inkscape:connector-curvature="0" />
</g>
<g
   id="LWPOLYLINE_26_"
   transform="translate(-14.172,-136.281)">
	<path
   style="fill:#ffcd00"
   d="m 386.597,276.702 c 6.751,0 12.214,-5.467 12.214,-12.211 v -103.79 c 0,-6.744 -5.463,-12.214 -12.214,-12.214 H 38.596 c -6.744,0 -12.214,5.47 -12.214,12.214 v 103.79 c 0,6.744 5.47,12.211 12.214,12.211 z"
   id="path2663"
   inkscape:connector-curvature="0" />
</g>
<g
   id="LWPOLYLINE_27_"
   transform="translate(-14.172,-136.281)">
	<path
   style="fill:#101820"
   d="m 301.675,255.311 c 0,1.698 1.373,3.078 3.078,3.078 h 8.619 c 1.698,0 3.078,-1.38 3.078,-3.078 v -14.188 h -14.775 v 14.188"
   id="path2666"
   inkscape:connector-curvature="0" />
</g>
<g
   id="LWPOLYLINE_29_"
   transform="translate(-14.172,-136.281)">
	<path
   style="fill:#101820"
   d="m 301.342,179.014 c 2.456,0 4.685,1.465 5.654,3.726 l 8.641,20.086 c 0.254,0.592 0.544,1.164 0.87,1.72 l 4.713,8.028 c 0.835,1.419 1.273,3.032 1.273,4.678 v 17.584 c 0,1.171 -0.672,2.24 -1.733,2.746 -1.826,0.881 -3.836,1.341 -5.866,1.341 h -88.228 c -2.03,0 -4.04,-0.46 -5.865,-1.341 -1.055,-0.506 -1.728,-1.575 -1.734,-2.746 v -17.584 c 0,-1.646 0.439,-3.259 1.273,-4.678 l 4.721,-8.028 c 0.325,-0.556 0.615,-1.128 0.863,-1.72 l 8.64,-20.086 c 0.977,-2.261 3.198,-3.726 5.654,-3.726 z"
   id="path2669"
   inkscape:connector-curvature="0" />
</g>
<g
   id="LWPOLYLINE_30_"
   transform="translate(-14.172,-136.281)">
	<path
   style="fill:#101820"
   d="m 239.885,255.311 c 0,1.698 -1.373,3.078 -3.078,3.078 h -8.611 c -1.706,0 -3.078,-1.38 -3.078,-3.078 v -14.188 h 14.768 v 14.188"
   id="path2672"
   inkscape:connector-curvature="0" />
</g>
<g
   id="LWPOLYLINE_31_"
   transform="translate(-14.172,-136.281)">
	<path
   style="fill:#101820"
   d="M 386.597,273.651 H 212.599 v -15.263 h 183.162 v 6.103 c 0,5.057 -4.104,9.16 -9.164,9.16 z"
   id="path2675"
   inkscape:connector-curvature="0" />
</g>
<g
   id="LWPOLYLINE_28_"
   transform="translate(-14.172,-136.281)">
	<path
   style="fill:#ffcd00"
   d="m 299.312,185.171 c 1.231,0 2.342,0.735 2.83,1.864 l 8.314,19.339 h -79.353 l 8.314,-19.339 c 0.488,-1.129 1.6,-1.864 2.83,-1.864 z"
   id="path2678"
   inkscape:connector-curvature="0" />
</g>
</svg>