<?xml version="1.0" encoding="UTF-8" standalone="no"?>
<!-- Generator: Adobe Illustrator 16.0.0, SVG Export Plug-In . SVG Version: 6.00 Build 0)  -->

<svg
   xmlns:dc="http://purl.org/dc/elements/1.1/"
   xmlns:cc="http://creativecommons.org/ns#"
   xmlns:rdf="http://www.w3.org/1999/02/22-rdf-syntax-ns#"
   xmlns:svg="http://www.w3.org/2000/svg"
   xmlns="http://www.w3.org/2000/svg"
   xmlns:sodipodi="http://sodipodi.sourceforge.net/DTD/sodipodi-0.dtd"
   xmlns:inkscape="http://www.inkscape.org/namespaces/inkscape"
   version="1.1"
   id="Layer_1"
   x="0px"
   y="0px"
   width="396.853"
   height="132.28601"
   viewBox="0 0 396.85301 132.28601"
   xml:space="preserve"
   sodipodi:docname="H14.svg"
   inkscape:version="0.92.5 (2060ec1f9f, 2020-04-08)"><metadata
   id="metadata2785"><rdf:RDF><cc:Work
       rdf:about=""><dc:format>image/svg+xml</dc:format><dc:type
         rdf:resource="http://purl.org/dc/dcmitype/StillImage" /></cc:Work></rdf:RDF></metadata><defs
   id="defs2783" /><sodipodi:namedview
   pagecolor="#ffffff"
   bordercolor="#666666"
   borderopacity="1"
   objecttolerance="10"
   gridtolerance="10"
   guidetolerance="10"
   inkscape:pageopacity="0"
   inkscape:pageshadow="2"
   inkscape:window-width="640"
   inkscape:window-height="480"
   id="namedview2781"
   showgrid="false"
   inkscape:zoom="0.55503813"
   inkscape:cx="198.4265"
   inkscape:cy="66.143993"
   inkscape:window-x="0"
   inkscape:window-y="0"
   inkscape:window-maximized="0"
   inkscape:current-layer="Layer_1" />
<g
   id="LWPOLYLINE_173_"
   transform="translate(-14.172,-146.45599)">
	<rect
   x="14.172"
   y="146.45599"
   style="fill:#ffcd00"
   width="396.853"
   height="132.286"
   id="rect2747" />
</g>
<g
   id="LWPOLYLINE_175_"
   transform="translate(-14.172,-146.45599)">
	<path
   style="fill:#e4002b"
   d="M 40.627,146.456 H 384.56 c 14.613,0 26.465,11.842 26.465,26.455 v 79.37 c 0,14.613 -11.852,26.461 -26.465,26.461 H 40.627 c -14.613,0 -26.455,-11.848 -26.455,-26.461 v -79.37 c 0,-14.614 11.842,-26.455 26.455,-26.455 z"
   id="path2750"
   inkscape:connector-curvature="0" />
</g>
<g
   id="LWPOLYLINE_174_"
   transform="translate(-14.172,-146.45599)">
	<path
   style="fill:#ffcd00"
   d="M 40.627,159.683 H 384.56 c 7.312,0 13.228,5.921 13.228,13.228 v 79.37 c 0,7.307 -5.916,13.232 -13.228,13.232 H 40.627 c -7.306,0 -13.228,-5.926 -13.228,-13.232 v -79.37 c 0,-7.307 5.922,-13.228 13.228,-13.228 z"
   id="path2753"
   inkscape:connector-curvature="0" />
</g>
<g
   id="LWPOLYLINE_176_"
   transform="translate(-14.172,-146.45599)">
	<polygon
   style="fill:#101820"
   points="89.242,179.524 77.996,179.524 60.468,245.667 70.392,245.667 73.595,234.421 93.643,234.421 96.847,245.667 106.77,245.667 "
   id="polygon2756" />
</g>
<g
   id="LWPOLYLINE_178_"
   transform="translate(-14.172,-146.45599)">
	<polygon
   style="fill:#101820"
   points="263.357,245.667 273.276,245.667 255.748,179.524 244.511,179.524 226.984,245.667 236.902,245.667 240.106,234.421 260.154,234.421 "
   id="polygon2759" />
</g>
<g
   id="LWPOLYLINE_180_"
   transform="translate(-14.172,-146.45599)">
	<polygon
   style="fill:#101820"
   points="311.929,207.87 330.823,245.667 319.731,245.667 305.589,217.38 297.749,229.13 297.749,245.667 287.831,245.667 287.831,179.524 297.749,179.524 297.749,211.247 318.903,179.524 330.823,179.524 "
   id="polygon2762" />
</g>
<g
   id="LWPOLYLINE_181_"
   transform="translate(-14.172,-146.45599)">
	<path
   style="fill:#101820"
   d="m 352.294,167.952 h -5.233 c 9.178,29.057 9.178,60.235 0,89.288 h 5.233 c 16.566,-27.456 16.566,-61.833 0,-89.288 z"
   id="path2765"
   inkscape:connector-curvature="0" />
</g>
<g
   id="LWPOLYLINE_182_"
   transform="translate(-14.172,-146.45599)">
	<path
   style="fill:#101820"
   d="m 157.496,257.239 c -9.178,-29.053 -9.178,-60.231 0,-89.288 h -5.229 c -16.571,27.455 -16.571,61.833 0,89.288 z"
   id="path2768"
   inkscape:connector-curvature="0" />
</g>
<g
   id="LWPOLYLINE_183_"
   transform="translate(-14.172,-146.45599)">
	<polygon
   style="fill:#101820"
   points="184.031,179.524 173.735,179.524 191.929,245.667 201.847,245.667 220.039,179.524 209.745,179.524 196.883,226.292 "
   id="polygon2771" />
</g>
<g
   id="LWPOLYLINE_177_"
   transform="translate(-14.172,-146.45599)">
	<polygon
   style="fill:#ffcd00"
   points="90.815,224.503 83.619,199.251 76.423,224.503 "
   id="polygon2774" />
</g>
<g
   id="LWPOLYLINE_179_"
   transform="translate(-14.172,-146.45599)">
	<polygon
   style="fill:#ffcd00"
   points="257.326,224.503 250.129,199.251 242.934,224.503 "
   id="polygon2777" />
</g>
</svg>