<?xml version="1.0" encoding="iso-8859-1"?>
<!-- Generator: Adobe Illustrator 16.0.0, SVG Export Plug-In . SVG Version: 6.00 Build 0)  -->
<!DOCTYPE svg PUBLIC "-//W3C//DTD SVG 1.1//EN" "http://www.w3.org/Graphics/SVG/1.1/DTD/svg11.dtd">
<svg version="1.1" id="Layer_1" xmlns="http://www.w3.org/2000/svg" xmlns:xlink="http://www.w3.org/1999/xlink" x="0px" y="0px"
	 width="425.197px" height="425.196px" viewBox="0 0 425.197 425.196" style="enable-background:new 0 0 425.197 425.196;"
	 xml:space="preserve">
<g id="LWPOLYLINE_173_">
	<rect x="14.172" y="146.456" style="fill:#FFCD00;" width="396.853" height="132.286"/>
</g>
<g id="LWPOLYLINE_175_">
	<path style="fill:#E4002B;" d="M40.627,146.456H384.56c14.613,0,26.465,11.842,26.465,26.455v79.37
		c0,14.613-11.852,26.461-26.465,26.461H40.627c-14.613,0-26.455-11.848-26.455-26.461v-79.37
		C14.172,158.297,26.014,146.456,40.627,146.456z"/>
</g>
<g id="LWPOLYLINE_174_">
	<path style="fill:#FFCD00;" d="M40.627,159.683H384.56c7.312,0,13.228,5.921,13.228,13.228v79.37
		c0,7.307-5.916,13.232-13.228,13.232H40.627c-7.306,0-13.228-5.926-13.228-13.232v-79.37
		C27.399,165.604,33.321,159.683,40.627,159.683z"/>
</g>
<g id="LWPOLYLINE_176_">
	<polygon style="fill:#101820;" points="96.847,245.667 106.77,245.667 89.242,179.524 77.996,179.524 60.468,245.667 
		70.392,245.667 73.595,234.421 93.643,234.421 	"/>
</g>
<g id="LWPOLYLINE_178_">
	<polygon style="fill:#101820;" points="240.106,234.421 260.154,234.421 263.357,245.667 273.276,245.667 255.748,179.524 
		244.511,179.524 226.984,245.667 236.902,245.667 	"/>
</g>
<g id="LWPOLYLINE_180_">
	<polygon style="fill:#101820;" points="318.903,179.524 330.823,179.524 311.929,207.87 330.823,245.667 319.731,245.667 
		305.589,217.38 297.749,229.13 297.749,245.667 287.831,245.667 287.831,179.524 297.749,179.524 297.749,211.247 	"/>
</g>
<g id="LWPOLYLINE_181_">
	<path style="fill:#101820;" d="M352.294,167.952h-5.233c9.178,29.057,9.178,60.235,0,89.288h5.233
		C368.86,229.784,368.86,195.407,352.294,167.952z"/>
</g>
<g id="LWPOLYLINE_182_">
	<path style="fill:#101820;" d="M157.496,257.239c-9.178-29.053-9.178-60.231,0-89.288h-5.229
		c-16.571,27.455-16.571,61.833,0,89.288H157.496z"/>
</g>
<g id="LWPOLYLINE_183_">
	<polygon style="fill:#101820;" points="209.745,179.524 196.883,226.292 184.031,179.524 173.735,179.524 191.929,245.667 
		201.847,245.667 220.039,179.524 	"/>
</g>
<g id="LWPOLYLINE_177_">
	<polygon style="fill:#FFCD00;" points="83.619,199.251 76.423,224.503 90.815,224.503 	"/>
</g>
<g id="LWPOLYLINE_179_">
	<polygon style="fill:#FFCD00;" points="250.129,199.251 242.934,224.503 257.326,224.503 	"/>
</g>
</svg>
