<?xml version="1.0" encoding="iso-8859-1"?>
<!-- Generator: Adobe Illustrator 16.0.0, SVG Export Plug-In . SVG Version: 6.00 Build 0)  -->
<!DOCTYPE svg PUBLIC "-//W3C//DTD SVG 1.1//EN" "http://www.w3.org/Graphics/SVG/1.1/DTD/svg11.dtd">
<svg version="1.1" id="Layer_1" xmlns="http://www.w3.org/2000/svg" xmlns:xlink="http://www.w3.org/1999/xlink" x="0px" y="0px"
	 width="425.197px" height="425.196px" viewBox="0 0 425.197 425.196" style="enable-background:new 0 0 425.197 425.196;"
	 xml:space="preserve">
<g id="LWPOLYLINE_170_">
	<rect x="14.171" y="14.173" style="fill:#FFCD00;" width="396.854" height="396.851"/>
</g>
<g id="LWPOLYLINE_172_">
	<path style="fill:#E4002B;" d="M14.171,59.524v306.139c0,25.051,20.301,45.36,45.352,45.36h306.135
		c25.051,0,45.368-20.31,45.368-45.36V59.524c0-25.05-20.317-45.352-45.368-45.352H59.523
		C34.472,14.173,14.171,34.474,14.171,59.524z"/>
</g>
<g id="LWPOLYLINE_171_">
	<path style="fill:#FFCD00;" d="M36.847,59.524v306.139c0,12.525,10.15,22.685,22.676,22.685h306.135
		c12.534,0,22.692-10.159,22.692-22.685V59.524c0-12.525-10.158-22.676-22.692-22.676H59.523
		C46.998,36.849,36.847,46.999,36.847,59.524z"/>
</g>
<g id="LWPOLYLINE_168_">
	<path style="fill:#101820;" d="M138.896,99.203v226.774h34.01h52.162c33.808,0,61.233-27.409,61.233-61.225v-13.605
		c0-19.122-8.938-37.156-24.16-48.732c8.295-10.283,12.813-23.097,12.813-36.307v-9.07c0-31.943-25.891-57.835-57.818-57.835
		H138.896z"/>
</g>
<g id="LWPOLYLINE_167_">
	<path style="fill:#FFCD00;" d="M172.906,189.923h44.23c13.144,0,23.813-10.67,23.813-23.814v-9.07
		c0-13.151-10.67-23.813-23.813-23.813h-44.23V189.923z"/>
</g>
<g id="LWPOLYLINE_169_">
	<path style="fill:#FFCD00;" d="M172.906,223.928h52.162c15.024,0,27.211,12.188,27.211,27.22v13.605
		c0,15.031-12.187,27.211-27.211,27.211h-52.162V223.928z"/>
</g>
</svg>
