<?xml version="1.0" encoding="UTF-8" standalone="no"?>
<!-- Generator: Adobe Illustrator 16.0.0, SVG Export Plug-In . SVG Version: 6.00 Build 0)  -->

<svg
   xmlns:dc="http://purl.org/dc/elements/1.1/"
   xmlns:cc="http://creativecommons.org/ns#"
   xmlns:rdf="http://www.w3.org/1999/02/22-rdf-syntax-ns#"
   xmlns:svg="http://www.w3.org/2000/svg"
   xmlns="http://www.w3.org/2000/svg"
   xmlns:sodipodi="http://sodipodi.sourceforge.net/DTD/sodipodi-0.dtd"
   xmlns:inkscape="http://www.inkscape.org/namespaces/inkscape"
   version="1.1"
   id="Layer_1"
   x="0px"
   y="0px"
   width="396.849"
   height="132.28801"
   viewBox="0 0 396.84901 132.28801"
   xml:space="preserve"
   sodipodi:docname="H18.svg"
   inkscape:version="0.92.5 (2060ec1f9f, 2020-04-08)"><metadata
   id="metadata3001"><rdf:RDF><cc:Work
       rdf:about=""><dc:format>image/svg+xml</dc:format><dc:type
         rdf:resource="http://purl.org/dc/dcmitype/StillImage" /></cc:Work></rdf:RDF></metadata><defs
   id="defs2999" /><sodipodi:namedview
   pagecolor="#ffffff"
   bordercolor="#666666"
   borderopacity="1"
   objecttolerance="10"
   gridtolerance="10"
   guidetolerance="10"
   inkscape:pageopacity="0"
   inkscape:pageshadow="2"
   inkscape:window-width="640"
   inkscape:window-height="480"
   id="namedview2997"
   showgrid="false"
   inkscape:zoom="0.55503813"
   inkscape:cx="198.4245"
   inkscape:cy="66.143997"
   inkscape:window-x="0"
   inkscape:window-y="0"
   inkscape:window-maximized="0"
   inkscape:current-layer="Layer_1" />
<g
   id="LWPOLYLINE_39_"
   transform="translate(-14.174,-146.454)">
	<rect
   x="14.174"
   y="146.455"
   style="fill:#ffcd00"
   width="396.849"
   height="132.287"
   id="rect2966" />
</g>
<g
   id="LWPOLYLINE_41_"
   transform="translate(-14.174,-146.454)">
	<path
   style="fill:#e4002b"
   d="m 411.023,252.282 c 0,14.613 -11.846,26.459 -26.454,26.459 H 40.627 c -14.608,0 -26.453,-11.846 -26.453,-26.459 v -79.37 c 0,-14.612 11.845,-26.458 26.453,-26.458 h 343.941 c 14.608,0 26.454,11.846 26.454,26.458 v 79.37 z"
   id="path2969"
   inkscape:connector-curvature="0" />
</g>
<g
   id="LWPOLYLINE_40_"
   transform="translate(-14.174,-146.454)">
	<path
   style="fill:#ffcd00"
   d="m 397.792,252.282 c 0,7.309 -5.919,13.229 -13.223,13.229 H 40.627 c -7.304,0 -13.227,-5.92 -13.227,-13.229 v -79.37 c 0,-7.304 5.923,-13.227 13.227,-13.227 h 343.941 c 7.304,0 13.223,5.923 13.223,13.227 v 79.37 z"
   id="path2972"
   inkscape:connector-curvature="0" />
</g>
<g
   id="LWPOLYLINE_42_"
   transform="translate(-14.174,-146.454)">
	<path
   style="fill:#101820"
   d="m 137.722,199.372 v 2.115 c 0,3.199 -1.157,6.291 -3.264,8.707 2.927,2.746 4.586,6.584 4.586,10.605 v 3.703 c 0,8.037 -6.513,14.553 -14.547,14.553 -8.038,0 -14.553,-6.516 -14.553,-14.553 h 7.938 c 0,3.656 2.964,6.615 6.615,6.615 3.652,0 6.616,-2.959 6.616,-6.615 V 220.8 c 0,-3.652 -2.964,-6.611 -6.616,-6.611 h -2.115 v -7.412 h 2.115 c 2.923,0 5.289,-2.367 5.289,-5.289 v -2.115 c 0,-2.923 -2.366,-5.294 -5.289,-5.294 -2.922,0 -5.293,2.371 -5.293,5.294 h -7.934 c 0,-7.305 5.918,-13.232 13.227,-13.232 7.305,-0.001 13.225,5.926 13.225,13.231 z"
   id="path2975"
   inkscape:connector-curvature="0" />
</g>
<g
   id="LWPOLYLINE_43_"
   transform="translate(-14.174,-146.454)">
	<path
   style="fill:#101820"
   d="m 152.276,200.694 v 23.809 c 0,8.037 6.511,14.553 14.554,14.553 8.034,0 14.554,-6.516 14.554,-14.553 v -23.809 c 0,-8.035 -6.52,-14.554 -14.554,-14.554 -8.043,0 -14.554,6.52 -14.554,14.554 z"
   id="path2978"
   inkscape:connector-curvature="0" />
</g>
<g
   id="LWPOLYLINE_53_"
   transform="translate(-14.174,-146.454)">
	<rect
   x="270.27399"
   y="199.554"
   style="fill:#101820"
   width="7.9330001"
   height="39.686001"
   id="rect2981" />
</g>
<g
   id="LWPOLYLINE_54_"
   transform="translate(-14.174,-146.454)">
	<rect
   x="270.27399"
   y="186.327"
   style="fill:#101820"
   width="7.9330001"
   height="7.9380002"
   id="rect2984" />
</g>
<g
   id="LWPOLYLINE_55_"
   transform="translate(-14.174,-146.454)">
	<path
   style="fill:#101820"
   d="m 252.811,209.606 c 0,-2.047 -1.659,-3.701 -3.702,-3.701 h -0.529 c -3.51,0 -6.346,2.84 -6.346,6.352 v 26.982 h -7.943 v -29.633 c 0,-2.047 -1.659,-3.701 -3.702,-3.701 h -0.528 c -3.511,0 -6.347,2.84 -6.347,6.352 v 26.982 h -7.942 v -39.686 h 7.942 v 3.174 c 2.59,-1.605 5.489,-2.668 8.508,-3.109 0.374,-0.055 0.747,-0.064 1.121,-0.041 2.955,0.195 5.663,1.764 7.295,4.234 2.974,-2.215 6.438,-3.656 10.104,-4.193 0.373,-0.055 0.747,-0.064 1.121,-0.041 4.997,0.332 8.891,4.49 8.891,9.502 v 30.16 h -7.942 v -29.633 z"
   id="path2987"
   inkscape:connector-curvature="0" />
</g>
<g
   id="LWPOLYLINE_56_"
   transform="translate(-14.174,-146.454)">
	<path
   style="fill:#101820"
   d="m 296.727,239.239 h -7.933 v -39.686 h 7.933 v 3.174 c 2.599,-1.605 5.499,-2.668 8.518,-3.109 0.374,-0.055 0.747,-0.064 1.112,-0.041 5.006,0.332 8.891,4.49 8.891,9.502 v 30.16 h -7.934 v -29.633 c 0,-2.047 -1.659,-3.701 -3.702,-3.701 h -0.528 c -3.511,0 -6.356,2.84 -6.356,6.352 v 26.982 z"
   id="path2990"
   inkscape:connector-curvature="0" />
</g>
<g
   id="LWPOLYLINE_44_"
   transform="translate(-14.174,-146.454)">
	<path
   style="fill:#ffcd00"
   d="m 173.441,200.694 c 0,-3.653 -2.964,-6.617 -6.611,-6.617 -3.656,0 -6.62,2.964 -6.62,6.617 v 23.809 c 0,3.656 2.964,6.615 6.62,6.615 3.647,0 6.611,-2.959 6.611,-6.615 z"
   id="path2993"
   inkscape:connector-curvature="0" />
</g>
</svg>