<?xml version="1.0" encoding="UTF-8" standalone="no"?>
<!-- Generator: Adobe Illustrator 16.0.0, SVG Export Plug-In . SVG Version: 6.00 Build 0)  -->

<svg
   xmlns:dc="http://purl.org/dc/elements/1.1/"
   xmlns:cc="http://creativecommons.org/ns#"
   xmlns:rdf="http://www.w3.org/1999/02/22-rdf-syntax-ns#"
   xmlns:svg="http://www.w3.org/2000/svg"
   xmlns="http://www.w3.org/2000/svg"
   xmlns:sodipodi="http://sodipodi.sourceforge.net/DTD/sodipodi-0.dtd"
   xmlns:inkscape="http://www.inkscape.org/namespaces/inkscape"
   version="1.1"
   id="Layer_1"
   x="0px"
   y="0px"
   width="397.35101"
   height="165.856"
   viewBox="0 0 397.35102 165.856"
   xml:space="preserve"
   sodipodi:docname="H19.2.svg"
   inkscape:version="0.92.5 (2060ec1f9f, 2020-04-08)"><metadata
   id="metadata3120"><rdf:RDF><cc:Work
       rdf:about=""><dc:format>image/svg+xml</dc:format><dc:type
         rdf:resource="http://purl.org/dc/dcmitype/StillImage" /></cc:Work></rdf:RDF></metadata><defs
   id="defs3118" /><sodipodi:namedview
   pagecolor="#ffffff"
   bordercolor="#666666"
   borderopacity="1"
   objecttolerance="10"
   gridtolerance="10"
   guidetolerance="10"
   inkscape:pageopacity="0"
   inkscape:pageshadow="2"
   inkscape:window-width="640"
   inkscape:window-height="480"
   id="namedview3116"
   showgrid="false"
   inkscape:zoom="0.55503813"
   inkscape:cx="198.6755"
   inkscape:cy="82.927994"
   inkscape:window-x="0"
   inkscape:window-y="0"
   inkscape:window-maximized="0"
   inkscape:current-layer="Layer_1" />
<g
   id="LWPOLYLINE_17_"
   transform="translate(-13.923,-129.67)">
	
		<rect
   x="14.173"
   y="129.92"
   style="fill:#005eb8;stroke:#005eb8;stroke-width:0.5;stroke-miterlimit:10"
   width="396.85101"
   height="165.356"
   id="rect3061" />
</g>
<g
   id="LWPOLYLINE_15_"
   transform="translate(-13.923,-129.67)">
	<path
   style="fill:#ffffff"
   d="M 40.631,129.92 H 384.57 c 14.608,0 26.454,11.846 26.454,26.458 v 112.439 c 0,14.613 -11.846,26.459 -26.454,26.459 H 40.631 c -14.613,0 -26.458,-11.846 -26.458,-26.459 V 156.378 c 0,-14.612 11.845,-26.458 26.458,-26.458 z"
   id="path3064"
   inkscape:connector-curvature="0" />
</g>
<g
   id="LWPOLYLINE_16_"
   transform="translate(-13.923,-129.67)">
	<path
   style="fill:#005eb8"
   d="M 40.631,143.147 H 384.57 c 7.305,0 13.228,5.928 13.228,13.231 v 112.439 c 0,7.309 -5.923,13.227 -13.228,13.227 H 40.631 c -7.304,0 -13.227,-5.918 -13.227,-13.227 V 156.378 c 0.001,-7.303 5.924,-13.231 13.227,-13.231 z"
   id="path3067"
   inkscape:connector-curvature="0" />
</g>
<g
   id="LWPOLYLINE_14_"
   transform="translate(-13.923,-129.67)">
	<path
   style="fill:#ffffff"
   d="M 47.248,255.116 V 170.08 c 0,-3.916 3.168,-7.09 7.085,-7.09 h 58.816 c 3.916,0 7.09,3.174 7.09,7.09 v 85.037 c 0,3.912 -3.174,7.086 -7.09,7.086 H 54.333 c -3.917,-10e-4 -7.085,-3.175 -7.085,-7.087 z"
   id="path3070"
   inkscape:connector-curvature="0" />
</g>
<g
   id="LWPOLYLINE_13_"
   transform="translate(-13.923,-129.67)">
	<path
   style="fill:#005eb8"
   d="M 50.79,255.116 V 170.08 c 0,-1.956 1.587,-3.543 3.543,-3.543 h 58.816 c 1.96,0 3.547,1.587 3.547,3.543 v 85.037 c 0,1.961 -1.587,3.549 -3.547,3.549 H 54.333 c -1.957,-10e-4 -3.543,-1.589 -3.543,-3.55 z"
   id="path3073"
   inkscape:connector-curvature="0" />
</g>
<g
   id="LWPOLYLINE_12_"
   transform="translate(-13.923,-129.67)">
	<polygon
   style="fill:#ffffff"
   points="76.656,170.08 83.741,198.753 90.826,170.08 "
   id="polygon3076" />
</g>
<g
   id="LWPOLYLINE_11_"
   transform="translate(-13.923,-129.67)">
	<path
   style="fill:#ffffff"
   d="m 57.875,206.905 17.266,-12.533 c 3.447,4.75 10.095,5.804 14.846,2.356 0.903,-0.656 1.701,-1.454 2.357,-2.356 l 17.262,12.533 c -1.974,2.723 -4.363,5.111 -7.081,7.086 -14.284,10.377 -34.277,7.203 -44.65,-7.086 z"
   id="path3079"
   inkscape:connector-curvature="0" />
</g>
<g
   id="LWPOLYLINE_10_"
   transform="translate(-13.923,-129.67)">
	<path
   style="fill:#ffffff"
   d="m 67.796,251.931 v -25.51 c 0,-1.76 1.427,-3.191 3.191,-3.191 h 25.51 c 1.76,0 3.188,1.432 3.188,3.191 v 25.51 c 0,1.76 -1.428,3.186 -3.188,3.186 h -25.51 c -1.764,-10e-4 -3.191,-1.427 -3.191,-3.186 z"
   id="path3082"
   inkscape:connector-curvature="0" />
</g>
<g
   id="LWPOLYLINE_9_"
   transform="translate(-13.923,-129.67)">
	<path
   style="fill:#005eb8"
   d="m 69.392,251.931 v -25.51 c 0,-0.881 0.716,-1.596 1.596,-1.596 h 25.51 c 0.88,0 1.592,0.715 1.592,1.596 v 25.51 c 0,0.879 -0.712,1.59 -1.592,1.59 h -25.51 c -0.88,0 -1.596,-0.711 -1.596,-1.59 z"
   id="path3085"
   inkscape:connector-curvature="0" />
</g>
<g
   id="LWPOLYLINE_8_"
   transform="translate(-13.923,-129.67)">
	<path
   style="fill:#ffffff"
   d="m 75.223,251.958 h 4.783 v -10.629 h 6.912 c 4.108,0 7.441,-3.332 7.441,-7.441 0,-4.111 -3.333,-7.439 -7.441,-7.439 H 75.223 Z"
   id="path3088"
   inkscape:connector-curvature="0" />
</g>
<g
   id="LWPOLYLINE_58_"
   transform="translate(-13.923,-129.67)">
	<path
   style="fill:#ffffff"
   d="m 184.143,199.37 v 2.119 c 0,3.201 -1.158,6.293 -3.269,8.699 2.932,2.754 4.591,6.594 4.591,10.615 v 3.701 c 0,8.033 -6.511,14.549 -14.549,14.549 -8.038,0 -14.554,-6.516 -14.554,-14.549 h 7.938 c 0,3.652 2.964,6.611 6.616,6.611 3.652,0 6.615,-2.959 6.615,-6.611 v -3.701 c 0,-3.658 -2.963,-6.621 -6.615,-6.621 h -2.115 v -7.404 h 2.115 c 2.923,0 5.289,-2.371 5.289,-5.289 v -2.119 c 0,-2.923 -2.366,-5.294 -5.289,-5.294 -2.923,0 -5.294,2.371 -5.294,5.294 h -7.933 c 0,-7.305 5.922,-13.228 13.227,-13.228 7.304,0 13.227,5.923 13.227,13.228 z"
   id="path3091"
   inkscape:connector-curvature="0" />
</g>
<g
   id="LWPOLYLINE_59_"
   transform="translate(-13.923,-129.67)">
	<path
   style="fill:#ffffff"
   d="m 198.697,200.692 v 23.813 c 0,8.033 6.516,14.549 14.549,14.549 8.038,0 14.554,-6.516 14.554,-14.549 v -23.813 c 0,-8.04 -6.516,-14.55 -14.554,-14.55 -8.034,0 -14.549,6.511 -14.549,14.55 z"
   id="path3094"
   inkscape:connector-curvature="0" />
</g>
<g
   id="LWPOLYLINE_7_"
   transform="translate(-13.923,-129.67)">
	<rect
   x="316.69501"
   y="199.556"
   style="fill:#ffffff"
   width="7.9330001"
   height="39.686001"
   id="rect3097" />
</g>
<g
   id="LWPOLYLINE_6_"
   transform="translate(-13.923,-129.67)">
	<rect
   x="316.69501"
   y="186.325"
   style="fill:#ffffff"
   width="7.9330001"
   height="7.9380002"
   id="rect3100" />
</g>
<g
   id="LWPOLYLINE_5_"
   transform="translate(-13.923,-129.67)">
	<path
   style="fill:#ffffff"
   d="m 299.232,209.604 c 0,-2.043 -1.66,-3.701 -3.707,-3.701 h -0.528 c -3.507,0 -6.347,2.844 -6.347,6.352 v 26.986 h -7.938 v -29.637 c 0,-2.043 -1.66,-3.701 -3.702,-3.701 h -0.529 c -3.511,0 -6.351,2.844 -6.351,6.352 v 26.986 h -7.938 v -39.686 h 7.938 v 3.174 c 2.594,-1.613 5.494,-2.672 8.512,-3.109 0.369,-0.055 0.743,-0.068 1.117,-0.045 2.964,0.199 5.663,1.764 7.305,4.24 2.964,-2.221 6.438,-3.662 10.099,-4.195 0.369,-0.055 0.743,-0.068 1.117,-0.045 5.002,0.336 8.891,4.49 8.891,9.5 v 30.166 h -7.938 v -29.637 z"
   id="path3103"
   inkscape:connector-curvature="0" />
</g>
<g
   id="LWPOLYLINE_4_"
   transform="translate(-13.923,-129.67)">
	<path
   style="fill:#ffffff"
   d="m 343.148,239.241 h -7.938 v -39.686 h 7.938 v 3.174 c 2.595,-1.613 5.494,-2.672 8.517,-3.109 0.37,-0.055 0.743,-0.068 1.117,-0.045 5.002,0.336 8.887,4.49 8.887,9.5 v 30.166 h -7.938 v -29.637 c 0,-2.043 -1.654,-3.701 -3.702,-3.701 H 349.5 c -3.507,0 -6.352,2.844 -6.352,6.352 z"
   id="path3106"
   inkscape:connector-curvature="0" />
</g>
<g
   id="LWPOLYLINE_3_"
   transform="translate(-13.923,-129.67)">
	<path
   style="fill:#005eb8"
   d="m 80.006,231.229 v 5.309 h 7.117 c 1.464,-0.115 2.558,-1.396 2.444,-2.859 -0.109,-1.381 -1.264,-2.449 -2.649,-2.449 h -6.912 z"
   id="path3109"
   inkscape:connector-curvature="0" />
</g>
<g
   id="LWPOLYLINE_2_"
   transform="translate(-13.923,-129.67)">
	<path
   style="fill:#005eb8"
   d="m 219.862,200.692 c 0,-3.653 -2.964,-6.617 -6.616,-6.617 -3.651,0 -6.611,2.964 -6.611,6.617 v 23.813 c 0,3.652 2.96,6.611 6.611,6.611 3.652,0 6.616,-2.959 6.616,-6.611 z"
   id="path3112"
   inkscape:connector-curvature="0" />
</g>
</svg>