<?xml version="1.0" encoding="iso-8859-1"?>
<!-- Generator: Adobe Illustrator 16.0.0, SVG Export Plug-In . SVG Version: 6.00 Build 0)  -->
<!DOCTYPE svg PUBLIC "-//W3C//DTD SVG 1.1//EN" "http://www.w3.org/Graphics/SVG/1.1/DTD/svg11.dtd">
<svg version="1.1" id="Layer_1" xmlns="http://www.w3.org/2000/svg" xmlns:xlink="http://www.w3.org/1999/xlink" x="0px" y="0px"
	 width="425.197px" height="425.196px" viewBox="0 0 425.197 425.196" style="enable-background:new 0 0 425.197 425.196;"
	 xml:space="preserve">
<g id="LWPOLYLINE_160_">
	<rect x="14.174" y="113.385" style="fill:#FFCD00;" width="396.849" height="198.427"/>
</g>
<g id="LWPOLYLINE_162_">
	<path style="fill:#E4002B;" d="M40.634,113.385h343.934c14.611,0,26.455,11.847,26.455,26.46v145.512
		c0,14.608-11.844,26.455-26.455,26.455H40.634c-14.613,0-26.46-11.847-26.46-26.455V139.845
		C14.174,125.231,26.021,113.385,40.634,113.385z"/>
</g>
<g id="LWPOLYLINE_161_">
	<path style="fill:#FFCD00;" d="M40.634,126.612h343.934c7.311,0,13.227,5.926,13.227,13.232v145.512
		c0,7.307-5.916,13.229-13.227,13.229H40.634c-7.306,0-13.228-5.922-13.228-13.229V139.845
		C27.407,132.538,33.328,126.612,40.634,126.612z"/>
</g>
<g id="LWPOLYLINE_163_">
	<path style="fill:#101820;" d="M217.236,227.482c0,10.044,8.139,18.187,18.191,18.187c10.045,0,18.182-8.143,18.182-18.187v-3.968
		c0-5.368-2.365-10.462-6.473-13.92c3.098-3.31,4.818-7.672,4.818-12.208v-1.323c0-9.134-7.396-16.531-16.527-16.531
		c-9.139,0-16.537,7.397-16.537,16.531v1.323h9.92v-1.323c0-3.65,2.963-6.613,6.617-6.613c3.646,0,6.609,2.963,6.609,6.613v1.323
		c0,4.387-3.549,7.937-7.936,7.937h-1.318v9.264h2.645c4.561,0,8.264,3.699,8.264,8.264v4.632c0,4.565-3.703,8.269-8.264,8.269
		c-4.568,0-8.273-3.703-8.273-8.269H217.236z"/>
</g>
<g id="LWPOLYLINE_164_">
	<polygon style="fill:#101820;" points="283.375,245.669 273.457,245.669 273.457,179.532 283.375,179.532 283.375,216.078 
		296.601,196.063 306.529,196.063 295.207,213.048 306.587,245.684 296.601,245.669 288.636,222.898 283.375,230.787 	"/>
</g>
<g id="LWPOLYLINE_165_">
	<path style="fill:#101820;" d="M343.97,198.873c-2.145-1.813-4.867-2.81-7.676-2.81c-3.992,0.496-7.832,1.848-11.246,3.969v-3.969
		h-9.918v49.605h9.918v-35.055c0-3.651,2.963-6.614,6.609-6.614c3.654,0,6.617,2.963,6.617,6.614v35.055h9.92v-35.055
		c0-3.651,2.963-6.614,6.617-6.614c3.646,0,6.609,2.963,6.609,6.614v35.055h9.928l-0.01-37.797
		c-0.451-6.358-5.541-11.409-11.9-11.809C354.121,195.381,348.714,196.362,343.97,198.873z"/>
</g>
<g id="LWPOLYLINE_166_">
	<polygon style="fill:#101820;" points="186.145,225.828 99.826,225.828 139.516,265.516 106.779,265.516 53.862,212.601 
		106.779,159.686 139.516,159.686 99.826,199.368 186.145,199.368 	"/>
</g>
</svg>
