<?xml version="1.0" encoding="UTF-8" standalone="no"?>
<!-- Generator: Adobe Illustrator 16.0.0, SVG Export Plug-In . SVG Version: 6.00 Build 0)  -->

<svg
   xmlns:dc="http://purl.org/dc/elements/1.1/"
   xmlns:cc="http://creativecommons.org/ns#"
   xmlns:rdf="http://www.w3.org/1999/02/22-rdf-syntax-ns#"
   xmlns:svg="http://www.w3.org/2000/svg"
   xmlns="http://www.w3.org/2000/svg"
   xmlns:sodipodi="http://sodipodi.sourceforge.net/DTD/sodipodi-0.dtd"
   xmlns:inkscape="http://www.inkscape.org/namespaces/inkscape"
   version="1.1"
   id="Layer_1"
   x="0px"
   y="0px"
   width="396.849"
   height="198.427"
   viewBox="0 0 396.84901 198.427"
   xml:space="preserve"
   sodipodi:docname="H2.2.svg"
   inkscape:version="0.92.5 (2060ec1f9f, 2020-04-08)"><metadata
   id="metadata3148"><rdf:RDF><cc:Work
       rdf:about=""><dc:format>image/svg+xml</dc:format><dc:type
         rdf:resource="http://purl.org/dc/dcmitype/StillImage" /></cc:Work></rdf:RDF></metadata><defs
   id="defs3146" /><sodipodi:namedview
   pagecolor="#ffffff"
   bordercolor="#666666"
   borderopacity="1"
   objecttolerance="10"
   gridtolerance="10"
   guidetolerance="10"
   inkscape:pageopacity="0"
   inkscape:pageshadow="2"
   inkscape:window-width="640"
   inkscape:window-height="480"
   id="namedview3144"
   showgrid="false"
   inkscape:zoom="0.55503813"
   inkscape:cx="198.4245"
   inkscape:cy="99.213997"
   inkscape:window-x="0"
   inkscape:window-y="0"
   inkscape:window-maximized="0"
   inkscape:current-layer="Layer_1" />
<g
   id="LWPOLYLINE_160_"
   transform="translate(-14.174,-113.385)">
	<rect
   x="14.174"
   y="113.385"
   style="fill:#ffcd00"
   width="396.849"
   height="198.427"
   id="rect3122" />
</g>
<g
   id="LWPOLYLINE_162_"
   transform="translate(-14.174,-113.385)">
	<path
   style="fill:#e4002b"
   d="m 40.634,113.385 h 343.934 c 14.611,0 26.455,11.847 26.455,26.46 v 145.512 c 0,14.608 -11.844,26.455 -26.455,26.455 H 40.634 c -14.613,0 -26.46,-11.847 -26.46,-26.455 V 139.845 c 0,-14.614 11.847,-26.46 26.46,-26.46 z"
   id="path3125"
   inkscape:connector-curvature="0" />
</g>
<g
   id="LWPOLYLINE_161_"
   transform="translate(-14.174,-113.385)">
	<path
   style="fill:#ffcd00"
   d="m 40.634,126.612 h 343.934 c 7.311,0 13.227,5.926 13.227,13.232 v 145.512 c 0,7.307 -5.916,13.229 -13.227,13.229 H 40.634 c -7.306,0 -13.228,-5.922 -13.228,-13.229 V 139.845 c 0.001,-7.307 5.922,-13.233 13.228,-13.233 z"
   id="path3128"
   inkscape:connector-curvature="0" />
</g>
<g
   id="LWPOLYLINE_163_"
   transform="translate(-14.174,-113.385)">
	<path
   style="fill:#101820"
   d="m 217.236,227.482 c 0,10.044 8.139,18.187 18.191,18.187 10.045,0 18.182,-8.143 18.182,-18.187 v -3.968 c 0,-5.368 -2.365,-10.462 -6.473,-13.92 3.098,-3.31 4.818,-7.672 4.818,-12.208 v -1.323 c 0,-9.134 -7.396,-16.531 -16.527,-16.531 -9.139,0 -16.537,7.397 -16.537,16.531 v 1.323 h 9.92 v -1.323 c 0,-3.65 2.963,-6.613 6.617,-6.613 3.646,0 6.609,2.963 6.609,6.613 v 1.323 c 0,4.387 -3.549,7.937 -7.936,7.937 h -1.318 v 9.264 h 2.645 c 4.561,0 8.264,3.699 8.264,8.264 v 4.632 c 0,4.565 -3.703,8.269 -8.264,8.269 -4.568,0 -8.273,-3.703 -8.273,-8.269 h -9.918 z"
   id="path3131"
   inkscape:connector-curvature="0" />
</g>
<g
   id="LWPOLYLINE_164_"
   transform="translate(-14.174,-113.385)">
	<polygon
   style="fill:#101820"
   points="273.457,179.532 283.375,179.532 283.375,216.078 296.601,196.063 306.529,196.063 295.207,213.048 306.587,245.684 296.601,245.669 288.636,222.898 283.375,230.787 283.375,245.669 273.457,245.669 "
   id="polygon3134" />
</g>
<g
   id="LWPOLYLINE_165_"
   transform="translate(-14.174,-113.385)">
	<path
   style="fill:#101820"
   d="m 343.97,198.873 c -2.145,-1.813 -4.867,-2.81 -7.676,-2.81 -3.992,0.496 -7.832,1.848 -11.246,3.969 v -3.969 h -9.918 v 49.605 h 9.918 v -35.055 c 0,-3.651 2.963,-6.614 6.609,-6.614 3.654,0 6.617,2.963 6.617,6.614 v 35.055 h 9.92 v -35.055 c 0,-3.651 2.963,-6.614 6.617,-6.614 3.646,0 6.609,2.963 6.609,6.614 v 35.055 h 9.928 l -0.01,-37.797 c -0.451,-6.358 -5.541,-11.409 -11.9,-11.809 -5.317,-0.681 -10.724,0.3 -15.468,2.811 z"
   id="path3137"
   inkscape:connector-curvature="0" />
</g>
<g
   id="LWPOLYLINE_166_"
   transform="translate(-14.174,-113.385)">
	<polygon
   style="fill:#101820"
   points="139.516,265.516 106.779,265.516 53.862,212.601 106.779,159.686 139.516,159.686 99.826,199.368 186.145,199.368 186.145,225.828 99.826,225.828 "
   id="polygon3140" />
</g>
</svg>