<?xml version="1.0" encoding="UTF-8" standalone="no"?>
<!-- Generator: Adobe Illustrator 16.0.0, SVG Export Plug-In . SVG Version: 6.00 Build 0)  -->

<svg
   xmlns:dc="http://purl.org/dc/elements/1.1/"
   xmlns:cc="http://creativecommons.org/ns#"
   xmlns:rdf="http://www.w3.org/1999/02/22-rdf-syntax-ns#"
   xmlns:svg="http://www.w3.org/2000/svg"
   xmlns="http://www.w3.org/2000/svg"
   xmlns:sodipodi="http://sodipodi.sourceforge.net/DTD/sodipodi-0.dtd"
   xmlns:inkscape="http://www.inkscape.org/namespaces/inkscape"
   version="1.1"
   id="Layer_1"
   x="0px"
   y="0px"
   width="396.84799"
   height="396.85599"
   viewBox="0 0 396.848 396.85597"
   xml:space="preserve"
   sodipodi:docname="H22.2.svg"
   inkscape:version="0.92.5 (2060ec1f9f, 2020-04-08)"><metadata
   id="metadata3325"><rdf:RDF><cc:Work
       rdf:about=""><dc:format>image/svg+xml</dc:format><dc:type
         rdf:resource="http://purl.org/dc/dcmitype/StillImage" /></cc:Work></rdf:RDF></metadata><defs
   id="defs3323" /><sodipodi:namedview
   pagecolor="#ffffff"
   bordercolor="#666666"
   borderopacity="1"
   objecttolerance="10"
   gridtolerance="10"
   guidetolerance="10"
   inkscape:pageopacity="0"
   inkscape:pageshadow="2"
   inkscape:window-width="640"
   inkscape:window-height="480"
   id="namedview3321"
   showgrid="false"
   inkscape:zoom="0.55503813"
   inkscape:cx="198.4245"
   inkscape:cy="198.42799"
   inkscape:window-x="0"
   inkscape:window-y="0"
   inkscape:window-maximized="0"
   inkscape:current-layer="Layer_1" />
<g
   id="LWPOLYLINE_146_"
   transform="translate(-14.174,-14.17)">
	<rect
   x="14.174"
   y="14.17"
   style="fill:#ffcd00"
   width="396.84799"
   height="396.85599"
   id="rect3308" />
</g>
<g
   id="LWPOLYLINE_148_"
   transform="translate(-14.174,-14.17)">
	<path
   style="fill:#e4002b"
   d="m 45.92,14.17 h 333.355 c 17.535,0 31.746,14.217 31.746,31.749 v 333.355 c 0,17.535 -14.211,31.752 -31.746,31.752 H 45.92 c -17.535,0 -31.746,-14.217 -31.746,-31.752 V 45.919 C 14.174,28.387 28.385,14.17 45.92,14.17 Z"
   id="path3311"
   inkscape:connector-curvature="0" />
</g>
<g
   id="LWPOLYLINE_147_"
   transform="translate(-14.174,-14.17)">
	<path
   style="fill:#ffcd00"
   d="m 45.92,30.046 h 333.355 c 8.773,0 15.873,7.105 15.873,15.873 v 333.355 c 0,8.768 -7.1,15.879 -15.873,15.879 H 45.92 c -8.768,0 -15.873,-7.111 -15.873,-15.879 V 45.919 c 0,-8.768 7.106,-15.873 15.873,-15.873 z"
   id="path3314"
   inkscape:connector-curvature="0" />
</g>
<g
   id="LWPOLYLINE_149_"
   transform="translate(-14.174,-14.17)">
	<path
   style="fill:#101820"
   d="M 53.857,192.751 H 192.758 V 53.855 h 23.804 v 135.929 c 14.973,-10.961 33.039,-16.871 51.591,-16.871 h 103.192 v 47.625 H 268.153 c -21.911,0 -39.678,17.766 -39.678,39.683 V 371.338 H 180.857 V 260.221 c 0,-15.325 4.028,-30.378 11.693,-43.654 H 53.857 Z"
   id="path3317"
   inkscape:connector-curvature="0" />
</g>
</svg>