<?xml version="1.0" encoding="iso-8859-1"?>
<!-- Generator: Adobe Illustrator 16.0.0, SVG Export Plug-In . SVG Version: 6.00 Build 0)  -->
<!DOCTYPE svg PUBLIC "-//W3C//DTD SVG 1.1//EN" "http://www.w3.org/Graphics/SVG/1.1/DTD/svg11.dtd">
<svg version="1.1" id="Layer_1" xmlns="http://www.w3.org/2000/svg" xmlns:xlink="http://www.w3.org/1999/xlink" x="0px" y="0px"
	 width="425.197px" height="425.196px" viewBox="0 0 425.197 425.196" style="enable-background:new 0 0 425.197 425.196;"
	 xml:space="preserve">
<g id="LWPOLYLINE_161_">
	<rect x="14.172" y="77.405" style="fill:#FFCD00;" width="396.853" height="264.26"/>
</g>
<g id="LWPOLYLINE_163_">
	<path style="fill:#E4002B;" d="M411.025,103.863v211.342c0,14.613-11.853,26.46-26.465,26.46H40.627
		c-14.613,0-26.455-11.847-26.455-26.46V103.863c0-14.613,11.842-26.458,26.455-26.458H384.56
		C399.172,77.405,411.025,89.25,411.025,103.863z"/>
</g>
<g id="LWPOLYLINE_162_">
	<path style="fill:#FFCD00;" d="M397.788,103.863v211.342c0,7.307-5.916,13.232-13.228,13.232H40.627
		c-7.306,0-13.228-5.926-13.228-13.232V103.863c0-7.306,5.921-13.23,13.228-13.23H384.56
		C391.872,90.633,397.788,96.557,397.788,103.863z"/>
</g>
<g id="LWPOLYLINE_173_">
	<path style="fill:#101820;" d="M97.643,154.306l-7.001,9.995c-13.675-8.081-31.313-3.55-39.399,10.125
		c-8.085,13.675-3.55,31.318,10.125,39.399c13.675,8.085,31.32,3.549,39.401-10.125c1.587-2.689,2.732-5.614,3.377-8.673h10.053
		c2.318,0,4.531-0.972,6.089-2.684l33.843-36.094l1.934,6.33c-14.622,6.205-21.453,23.088-15.257,37.71
		c6.205,14.632,23.088,21.458,37.72,15.258c14.622-6.205,21.453-23.088,15.248-37.71c-5.253-12.4-18.413-19.495-31.66-17.066
		l-8.216-26.953c-1.231-4.043-4.964-6.806-9.187-6.806h-11.092v6.313h11.092c1.443,0,2.723,0.948,3.146,2.333l2.299,7.547
		l-46.888,8.11l-4.829-13.064l10.649-2.925c0.818-0.31,1.222-1.222,0.914-2.035c-0.241-0.642-0.875-1.051-1.559-1.012h-0.837H84.581
		v6.224h7.225L97.643,154.306z"/>
</g>
<g id="LWPOLYLINE_167_">
	<path style="fill:#101820;" d="M327.542,154.306l7.003,9.995c2.693-1.587,5.618-2.732,8.668-3.376
		c15.546-3.295,30.813,6.628,34.112,22.174c3.29,15.536-6.638,30.808-22.174,34.103c-15.536,3.3-30.813-6.628-34.104-22.174h-10.063
		c-2.318,0-4.521-0.972-6.079-2.684l-33.854-36.094l-1.924,6.33c12.4,5.262,19.49,18.417,17.057,31.669
		c-2.857,15.623-17.846,25.974-33.479,23.107c-15.623-2.857-25.964-17.846-23.107-33.478c2.867-15.623,17.855-25.974,33.479-23.107
		l8.215-26.953c1.231-4.043,4.964-6.806,9.188-6.806h11.082v6.313h-11.082c-1.453,0-2.732,0.948-3.146,2.333l-2.31,7.547
		l46.889,8.11l4.839-13.064l-10.659-2.925c-0.635-0.245-1.049-0.875-1.01-1.561c0.048-0.871,0.789-1.535,1.664-1.486h0.827h23.03
		v6.224h-7.225L327.542,154.306z"/>
</g>
<g id="LWPOLYLINE_164_">
	<polygon style="fill:#FFCD00;" points="273.179,149.289 319.692,157.336 308.677,187.115 	"/>
</g>
<g id="LWPOLYLINE_165_">
	<path style="fill:#FFCD00;" d="M333.169,173.329c-4.04,4.113-6.349,9.625-6.436,15.387h17.21L333.169,173.329z"/>
</g>
<g id="LWPOLYLINE_166_">
	<path style="fill:#FFCD00;" d="M320.423,188.716c0.097-7.821,3.367-15.267,9.071-20.625l-4.617-6.59l-10.063,27.215h5.646H320.423z
		"/>
</g>
<g id="LWPOLYLINE_168_">
	<path style="fill:#FFCD00;" d="M351.535,188.553c0.49,0.693,0.75,1.515,0.75,2.362c0,2.275-1.847,4.113-4.117,4.113h-20.625
		c3.29,11.958,15.651,18.98,27.609,15.681c11.958-3.295,18.971-15.657,15.681-27.609c-3.3-11.958-15.662-18.976-27.619-15.681
		c-1.751,0.481-3.444,1.183-5.031,2.073L351.535,188.553z"/>
</g>
<g id="LWPOLYLINE_169_">
	<path style="fill:#FFCD00;" d="M267.273,168.659l-6.312,20.712c-0.038,0.183-0.096,0.366-0.163,0.539
		c-0.664,1.626-2.511,2.405-4.127,1.751c-1.626-0.659-2.405-2.511-1.751-4.127l6.301-20.673
		c-12.266-1.837-23.693,6.614-25.531,18.875c-1.837,12.266,6.619,23.694,18.875,25.531c12.266,1.838,23.693-6.608,25.531-18.875
		C281.578,182.507,276.354,172.834,267.273,168.659z"/>
</g>
<g id="LWPOLYLINE_170_">
	<polygon style="fill:#FFCD00;" points="152.015,149.289 105.502,157.336 116.507,187.115 	"/>
</g>
<g id="LWPOLYLINE_171_">
	<path style="fill:#FFCD00;" d="M92.022,173.329c4.043,4.113,6.342,9.625,6.438,15.387H81.243L92.022,173.329z"/>
</g>
<g id="LWPOLYLINE_172_">
	<path style="fill:#FFCD00;" d="M104.771,188.716c-0.096-7.821-3.376-15.267-9.081-20.625l4.617-6.59l10.063,27.215h-5.646H104.771z
		"/>
</g>
<g id="LWPOLYLINE_174_">
	<path style="fill:#FFCD00;" d="M73.653,188.553c-1.304,1.862-0.852,4.425,1.01,5.734c0.693,0.481,1.515,0.741,2.362,0.741h20.628
		c-0.481,1.76-1.184,3.448-2.078,5.041c-6.073,10.803-19.762,14.642-30.57,8.566c-10.808-6.075-14.646-19.765-8.572-30.572
		c6.075-10.809,19.765-14.646,30.573-8.572L73.653,188.553z"/>
</g>
<g id="LWPOLYLINE_175_">
	<path style="fill:#FFCD00;" d="M157.922,168.659l6.311,20.712c0.356,1.712,2.04,2.809,3.752,2.453
		c1.712-0.361,2.809-2.04,2.453-3.752c-0.039-0.183-0.096-0.365-0.173-0.539l-6.301-20.673c9.889-1.481,19.557,3.747,23.732,12.828
		c5.176,11.27,0.24,24.598-11.024,29.779c-11.265,5.176-24.599,0.24-29.774-11.024C141.712,187.172,146.647,173.839,157.922,168.659
		z"/>
</g>
<g id="LWPOLYLINE_176_">
	<polygon style="fill:#101820;" points="77.005,275.519 173.544,275.519 157.008,292.055 172.91,292.055 196.055,268.909 
		172.91,245.759 157.008,245.759 173.544,262.29 77.005,262.29 	"/>
</g>
<g id="LWPOLYLINE_177_">
	<polygon style="fill:#101820;" points="348.187,275.519 251.65,275.519 268.177,292.055 252.285,292.055 229.129,268.909 
		252.285,245.759 268.177,245.759 251.65,262.29 348.187,262.29 	"/>
</g>
</svg>
