<?xml version="1.0" encoding="iso-8859-1"?>
<!-- Generator: Adobe Illustrator 16.0.0, SVG Export Plug-In . SVG Version: 6.00 Build 0)  -->
<!DOCTYPE svg PUBLIC "-//W3C//DTD SVG 1.1//EN" "http://www.w3.org/Graphics/SVG/1.1/DTD/svg11.dtd">
<svg version="1.1" id="Layer_1" xmlns="http://www.w3.org/2000/svg" xmlns:xlink="http://www.w3.org/1999/xlink" x="0px" y="0px"
	 width="425.197px" height="425.196px" viewBox="0 0 425.197 425.196" style="enable-background:new 0 0 425.197 425.196;"
	 xml:space="preserve">
<g id="LWPOLYLINE_165_">
	
		<rect x="14.174" y="99.211" style="fill:#005EB8;stroke:#005EB8;stroke-width:0.5;stroke-miterlimit:10;" width="396.849" height="226.774"/>
</g>
<g id="LWPOLYLINE_167_">
	<path style="fill:#FFFFFF;" d="M388.347,325.985H36.85c-12.521,0-22.676-10.154-22.676-22.68V121.889
		c0-12.522,10.154-22.678,22.676-22.678h351.497c12.525,0,22.676,10.155,22.676,22.678v181.417
		C411.023,315.831,400.873,325.985,388.347,325.985z"/>
</g>
<g id="LWPOLYLINE_166_">
	<path style="fill:#005EB8;" d="M388.347,314.647H36.85c-6.259,0-11.338-5.079-11.338-11.342V121.889
		c0-6.263,5.079-11.338,11.338-11.338h351.497c6.259,0,11.338,5.075,11.338,11.338v181.417
		C399.685,309.568,394.606,314.647,388.347,314.647z"/>
</g>
<g id="LWPOLYLINE_177_">
	<path style="fill:#FFFFFF;" d="M135.912,283.462H83.104V175.435c0.033-2.787,1.064-5.467,2.902-7.565l-5.879,3.917v10.509H68.002
		v-20.891l25.99-17.604h7.248v-2.067h16.918v2.067h1.987l10.95,4.69v8.373l-9.688,4.302h-3.249v2.767h6.374
		c6.185,0,11.272,4.874,11.536,11.05L135.912,283.462z"/>
</g>
<g id="LWPOLYLINE_181_">
	<path style="fill:#E4002B;" d="M334.378,251.3l-21.167-20.993c-1.6-1.757-1.533-4.457,0.133-6.14l7.553-7.557l27.187,27.116
		l-7.504,7.503C338.839,252.838,336.16,252.871,334.378,251.3z"/>
</g>
<g id="LWPOLYLINE_183_">
	<path style="fill:#FFFFFF;" d="M254.197,145.975l1.979-1.705c7.825-3.073,16.475-3.335,24.474-0.741
		c12.821,4.036,24.621,10.793,34.582,19.81c3.175,2.585,6.201,5.34,9.07,8.25c2.919,2.874,5.673,5.9,8.263,9.066
		c9.07,9.952,15.89,21.74,19.987,34.566c2.598,7.998,2.342,16.648-0.726,24.481l-1.74,2.021l2.078,2.078l2.119-2.61
		c3.479-8.555,3.818-18.063,0.965-26.84c-4.214-13.188-11.223-25.311-20.54-35.552c-2.631-3.216-5.434-6.296-8.402-9.215
		c-2.919-2.964-6.003-5.764-9.227-8.394c-10.25-9.267-22.388-16.211-35.564-20.363c-8.781-2.845-18.289-2.494-26.84,0.987
		l-2.564,2.082L254.197,145.975z"/>
</g>
<g id="LWPOLYLINE_180_">
	<path style="fill:#E4002B;" d="M324.302,171.588c-2.869-2.91-5.896-5.665-9.07-8.25c-9.961-9.017-21.761-15.773-34.582-19.81
		c-7.999-2.594-16.648-2.332-24.474,0.741l-1.979,1.705l27.179,27.118l0.52-0.52c1.483-1.253,3.562-1.517,5.318-0.68
		c7.685,4.279,14.76,9.594,21.01,15.794c6.25,6.238,11.618,13.301,15.964,20.994c0.833,1.757,0.569,3.834-0.685,5.322l-0.602,0.599
		l27.186,27.12l1.74-2.021c3.067-7.833,3.323-16.483,0.726-24.481c-4.098-12.826-10.917-24.614-19.987-34.566
		C329.975,177.488,327.221,174.462,324.302,171.588z"/>
</g>
<g id="LWPOLYLINE_169_">
	<path style="fill:#FFFFFF;" d="M223.078,238.086h-3.175c-8.204,0-14.851,6.646-14.851,14.851c0,6.316,3.991,11.939,9.944,14.021
		l9.393,3.286c0.742,0.256,1.368,0.775,1.765,1.451c0.271,0.479,0.321,1.052,0.14,1.571c-0.14,0.388-0.329,0.759-0.561,1.101
		c-1.566,2.342-4.733,2.973-7.075,1.41c-2.342-1.566-2.977-4.733-1.409-7.079h-13.103c-1.567,9.577,4.931,18.614,14.512,20.182
		c0.94,0.148,1.889,0.23,2.837,0.23h1.814c8.699,0,15.757-7.058,15.757-15.766c0-6.695-4.229-12.665-10.554-14.875l-9.393-3.282
		c-0.956-0.338-1.6-1.236-1.6-2.251c0-1.312,1.072-2.383,2.383-2.383h3.175c1.319,0,2.383,1.071,2.383,2.383
		c0,1.566,1.271,2.837,2.837,2.837h9.359c1.566-8.057-3.687-15.849-11.742-17.415C224.983,238.177,224.035,238.086,223.078,238.086z
		"/>
</g>
<g id="LWPOLYLINE_173_">
	<path style="fill:#FFFFFF;" d="M295.838,238.086h-3.175c-8.204,0-14.851,6.646-14.851,14.851c0,6.316,3.991,11.939,9.944,14.021
		l9.392,3.286c0.742,0.256,1.369,0.775,1.757,1.451c0.28,0.479,0.33,1.052,0.148,1.571c-0.141,0.388-0.33,0.759-0.561,1.101
		c-1.567,2.342-4.733,2.973-7.075,1.41c-2.342-1.566-2.977-4.733-1.41-7.079h-13.103c-1.566,9.577,4.931,18.614,14.513,20.182
		c0.932,0.148,1.88,0.23,2.837,0.23h1.813c8.699,0,15.758-7.058,15.758-15.766c0-6.695-4.238-12.665-10.555-14.875l-9.392-3.282
		c-0.957-0.338-1.6-1.236-1.6-2.251c0-1.312,1.071-2.383,2.383-2.383h3.175c1.319,0,2.383,1.071,2.383,2.383
		c0,1.566,1.27,2.837,2.837,2.837h9.358c1.566-8.057-3.694-15.849-11.742-17.415C297.743,238.177,296.787,238.086,295.838,238.086z"
		/>
</g>
<g id="LWPOLYLINE_171_">
	<path style="fill:#FFFFFF;" d="M240.221,255.633v15.873c0,9.705,7.866,17.571,17.571,17.571s17.58-7.866,17.58-17.571v-15.873
		c0-9.709-7.875-17.58-17.58-17.58S240.221,245.924,240.221,255.633z"/>
</g>
<g id="LWPOLYLINE_168_">
	<path style="fill:#E4002B;" d="M223.078,240.918h-3.175c-6.638,0-12.014,5.381-12.014,12.019c0,5.108,3.224,9.66,8.048,11.346
		l9.392,3.286c1.377,0.482,2.54,1.439,3.273,2.701c0.693,1.203,0.825,2.654,0.354,3.957c-1.138,3.15-4.122,5.245-7.462,5.245
		c-4.387,0-7.94-3.555-7.94-7.941h-6.803c0,8.144,6.597,14.744,14.743,14.744h1.814c7.132,0,12.921-5.789,12.921-12.93
		c0-5.491-3.472-10.386-8.658-12.199l-9.392-3.286c-2.087-0.729-3.488-2.705-3.488-4.923c0-2.878,2.334-5.216,5.211-5.216h3.175
		c2.887,0,5.22,2.338,5.22,5.216h6.803C235.1,246.299,229.715,240.918,223.078,240.918z"/>
</g>
<g id="LWPOLYLINE_172_">
	<path style="fill:#E4002B;" d="M295.838,240.918h-3.175c-6.638,0-12.022,5.381-12.022,12.019c0,5.108,3.232,9.66,8.057,11.346
		l9.392,3.286c1.377,0.482,2.54,1.439,3.273,2.701c0.692,1.203,0.824,2.654,0.354,3.957c-1.138,3.15-4.123,5.245-7.462,5.245
		c-4.387,0-7.941-3.555-7.941-7.941h-6.803c0,8.144,6.597,14.744,14.744,14.744h1.813c7.133,0,12.921-5.789,12.921-12.93
		c0-5.491-3.471-10.386-8.657-12.199l-9.393-3.286c-2.094-0.729-3.496-2.705-3.496-4.923c0-2.878,2.342-5.216,5.22-5.216h3.175
		c2.878,0,5.22,2.338,5.22,5.216h6.803C307.861,246.299,302.476,240.918,295.838,240.918z"/>
</g>
<g id="LWPOLYLINE_170_">
	<path style="fill:#E4002B;" d="M243.057,255.633v15.873c0,8.139,6.597,14.739,14.735,14.739c8.146,0,14.743-6.601,14.743-14.739
		v-15.873c0-8.143-6.597-14.743-14.743-14.743C249.654,240.89,243.057,247.49,243.057,255.633z"/>
</g>
<g id="LWPOLYLINE_174_">
	<path style="fill:#FFFFFF;" d="M265.733,255.633v15.873c0,4.383-3.554,7.933-7.94,7.933c-4.379,0-7.933-3.55-7.933-7.933v-15.873
		c0-4.387,3.554-7.94,7.933-7.94C262.179,247.692,265.733,251.246,265.733,255.633z"/>
</g>
<g id="LWPOLYLINE_176_">
	<path style="fill:#E4002B;" d="M133.076,280.626H85.941V175.455c0.004-0.23,0.017-0.466,0.037-0.696
		c0.453-4.865,4.771-8.443,9.635-7.99h8.465v-8.439l-9.326,0.307l-17.46,11.629v9.194h-6.448v-16.55l24.02-16.271h9.215v-2.069
		h11.236v2.069h4.255l8.691,3.723v4.657l-7.454,3.311h-5.492v8.439h9.219c4.643,0,8.469,3.637,8.699,8.274L133.076,280.626z"/>
</g>
<g id="LWPOLYLINE_179_">
	<path style="fill:#E4002B;" d="M244.74,161.73l20.861,21.15c1.748,1.596,4.453,1.533,6.135-0.141l7.595-7.603l-27.179-27.116
		l-7.347,7.504C243.198,157.271,243.165,159.951,244.74,161.73z"/>
</g>
<g id="LWPOLYLINE_175_">
	<path style="fill:#005EB8;" d="M262.896,255.633v15.873c0,2.816-2.283,5.1-5.104,5.1c-2.812,0-5.096-2.283-5.096-5.1v-15.873
		c0-2.82,2.284-5.104,5.096-5.104C260.613,250.529,262.896,252.813,262.896,255.633z"/>
</g>
<g id="LWPOLYLINE_178_">
	<path style="fill:#005EB8;" d="M91.061,164.505c1.505-0.507,3.097-0.705,4.676-0.573h5.504v-2.671l-5.586,0.183L91.061,164.505z"/>
</g>
<g id="LWPOLYLINE_182_">
	<path style="fill:#FFFFFF;" d="M323.206,214.306l0.297-0.302c1.254-1.488,1.518-3.565,0.685-5.322
		c-4.346-7.693-9.714-14.756-15.964-20.994c-6.25-6.2-13.325-11.515-21.01-15.794c-1.757-0.837-3.835-0.573-5.318,0.68l-0.52,0.52
		l2.077,2.07l0.339-0.479c0.609-0.47,1.426-0.573,2.136-0.264c7.429,4.147,14.257,9.284,20.292,15.274
		c6.044,6.032,11.239,12.852,15.437,20.281c0.313,0.705,0.206,1.517-0.256,2.127l-0.577,0.421l2.078,2.078L323.206,214.306z"/>
</g>
<g id="LWPOLYLINE_184_">
	<path style="fill:#FFFFFF;" d="M279.331,175.138l-7.595,7.603c-1.682,1.674-4.387,1.736-6.135,0.141l-20.861-21.15
		c-1.575-1.779-1.542-4.459,0.065-6.205l7.347-7.504l-2.028-2.02l-7.371,7.567c-2.647,2.836-2.68,7.228-0.083,10.103l20.961,21.245
		c2.861,2.672,7.33,2.598,10.109-0.173l7.603-7.603L279.331,175.138z"/>
</g>
<g id="LWPOLYLINE_185_">
	<path style="fill:#FFFFFF;" d="M320.897,216.61l-7.553,7.557c-1.666,1.683-1.732,4.383-0.133,6.14l21.167,20.993
		c1.781,1.571,4.461,1.538,6.201-0.07l7.504-7.503l2.003,2.003l-7.536,7.537c-2.828,2.663-7.231,2.704-10.117,0.099l-21.258-21.093
		c-2.672-2.865-2.598-7.33,0.165-10.109l7.553-7.557L320.897,216.61z"/>
</g>
</svg>
