<?xml version="1.0" encoding="iso-8859-1"?>
<!-- Generator: Adobe Illustrator 16.0.0, SVG Export Plug-In . SVG Version: 6.00 Build 0)  -->
<!DOCTYPE svg PUBLIC "-//W3C//DTD SVG 1.1//EN" "http://www.w3.org/Graphics/SVG/1.1/DTD/svg11.dtd">
<svg version="1.1" id="Layer_1" xmlns="http://www.w3.org/2000/svg" xmlns:xlink="http://www.w3.org/1999/xlink" x="0px" y="0px"
	 width="425.197px" height="425.196px" viewBox="0 0 425.197 425.196" style="enable-background:new 0 0 425.197 425.196;"
	 xml:space="preserve">
<g id="LWPOLYLINE_62_">
	<rect x="14.173" y="119.578" style="fill:#FFCD00;" width="396.85" height="186.04"/>
</g>
<g id="LWPOLYLINE_64_">
	<path style="fill:#E4002B;" d="M38.978,305.618H386.22c13.699,0,24.803-11.104,24.803-24.805V144.378
		c0-13.694-11.104-24.8-24.803-24.8H38.978c-13.7,0-24.805,11.105-24.805,24.8v136.436
		C14.173,294.514,25.278,305.618,38.978,305.618z"/>
</g>
<g id="LWPOLYLINE_63_">
	<path style="fill:#FFCD00;" d="M38.978,293.214H386.22c6.852,0,12.404-5.548,12.404-12.4V144.378
		c0-6.847-5.553-12.399-12.404-12.399H38.978c-6.848,0-12.4,5.553-12.4,12.399v136.436C26.578,287.666,32.13,293.214,38.978,293.214
		z"/>
</g>
<g id="LWPOLYLINE_65_">
	<polygon style="fill:#101820;" points="136.302,181.592 145.604,181.592 145.604,221.899 150.562,221.899 150.562,231.2 
		145.604,231.2 145.604,243.601 136.302,243.601 136.302,231.2 113.357,231.2 113.357,221.899 	"/>
</g>
<g id="LWPOLYLINE_67_">
	<polygon style="fill:#101820;" points="229.314,243.601 220.013,243.601 220.013,181.592 229.314,181.592 229.314,215.855 
		241.714,197.095 251.015,197.095 240.398,213.018 251.075,243.613 241.714,243.601 234.242,222.254 229.314,229.648 	"/>
</g>
<g id="LWPOLYLINE_68_">
	<path style="fill:#101820;" d="M286.181,199.74c-2.014-1.701-4.565-2.633-7.203-2.633c-3.74,0.462-7.339,1.735-10.541,3.719v-3.719
		h-9.301v46.506h9.301v-32.861c0-3.429,2.779-6.202,6.203-6.202s6.197,2.773,6.197,6.202v32.861h9.301v-32.861
		c0-3.429,2.779-6.202,6.203-6.202s6.202,2.773,6.202,6.202v32.861h9.302l-0.006-35.435c-0.422-5.963-5.193-10.695-11.155-11.071
		C295.691,196.467,290.626,197.39,286.181,199.74z"/>
</g>
<g id="LWPOLYLINE_69_">
	<polygon style="fill:#101820;" points="79.281,259.112 79.281,197.305 100.987,219.01 100.987,197.086 69.98,166.084 
		38.978,197.086 38.978,219.01 60.679,197.305 60.679,259.112 	"/>
</g>
<g id="LWPOLYLINE_70_">
	<polygon style="fill:#101820;" points="364.519,259.112 364.519,197.305 386.22,219.01 386.22,197.086 355.216,166.084 
		324.214,197.086 324.214,219.01 345.916,197.305 345.916,259.112 	"/>
</g>
<g id="LWPOLYLINE_71_">
	<path style="fill:#101820;" d="M177.102,229.961c0,7.531,6.108,13.64,13.64,13.64c7.536,0,13.644-6.108,13.644-13.64v-5.459
		c0-7.535-6.108-13.639-13.644-13.639c-1.902,0-3.783,0.396-5.522,1.166l1.06-10.596h13.64l-0.496-7.438h-19.842l-2.479,24.8
		l8.682,1.983c1.171-1.556,3.009-2.479,4.958-2.479c3.428,0,6.202,2.777,6.202,6.201v5.459c0,3.424-2.774,6.198-6.202,6.198
		c-3.424,0-6.198-2.774-6.198-6.198H177.102z"/>
</g>
<g id="LWPOLYLINE_72_">
	<path style="fill:#101820;" d="M157.443,238.95v13.951l8.374-11.16c1.539-2.056,1.124-4.967-0.932-6.51
		c-2.056-1.543-4.971-1.124-6.51,0.928C157.773,236.963,157.443,237.945,157.443,238.95z"/>
</g>
<g id="LWPOLYLINE_66_">
	<polygon style="fill:#FFCD00;" points="123.898,221.899 136.302,200.112 136.302,221.899 	"/>
</g>
</svg>
