<?xml version="1.0" encoding="iso-8859-1"?>
<!-- Generator: Adobe Illustrator 16.0.0, SVG Export Plug-In . SVG Version: 6.00 Build 0)  -->
<!DOCTYPE svg PUBLIC "-//W3C//DTD SVG 1.1//EN" "http://www.w3.org/Graphics/SVG/1.1/DTD/svg11.dtd">
<svg version="1.1" id="Layer_1" xmlns="http://www.w3.org/2000/svg" xmlns:xlink="http://www.w3.org/1999/xlink" x="0px" y="0px"
	 width="425.197px" height="425.196px" viewBox="0 0 425.197 425.196" style="enable-background:new 0 0 425.197 425.196;"
	 xml:space="preserve">
<g id="LWPOLYLINE_39_">
	<rect x="14.174" y="129.92" style="fill:#FFCD00;" width="396.849" height="165.356"/>
</g>
<g id="LWPOLYLINE_41_">
	<path style="fill:#E4002B;" d="M40.627,129.92h343.941c14.608,0,26.454,11.846,26.454,26.458v112.439
		c0,14.613-11.846,26.459-26.454,26.459H40.627c-14.608,0-26.453-11.846-26.453-26.459V156.378
		C14.174,141.766,26.019,129.92,40.627,129.92z"/>
</g>
<g id="LWPOLYLINE_40_">
	<path style="fill:#FFCD00;" d="M40.627,143.147h343.941c7.304,0,13.223,5.928,13.223,13.231v112.439
		c0,7.309-5.919,13.227-13.223,13.227H40.627c-7.304,0-13.227-5.918-13.227-13.227V156.378
		C27.401,149.075,33.324,143.147,40.627,143.147z"/>
</g>
<g id="LWPOLYLINE_46_">
	<path style="fill:#101820;" d="M333.64,212.696v32.828v-37.041c0-6.939-5.626-12.566-12.565-12.566h-1.988
		c-4.423,0-8.763,1.168-12.593,3.384c-2.325-2.171-5.39-3.384-8.571-3.384h-2.772c-2.727,0.447-5.362,1.332-7.814,2.626v-2.626
		h-9.922v49.607h9.922v-35.053c0-3.656,2.963-6.615,6.62-6.615c3.647,0,6.61,2.959,6.61,6.615v35.053h9.922v-35.053
		c0-3.656,2.964-6.615,6.611-6.615c3.656,0,6.62,2.959,6.62,6.615v35.053h9.921"/>
</g>
<g id="LWPOLYLINE_47_">
	<path style="fill:#101820;" d="M234.427,197.714c0-10.044-8.143-18.187-18.191-18.187s-18.192,8.143-18.192,18.187v29.764
		c0,10.049,8.144,18.193,18.192,18.193s18.191-8.145,18.191-18.193V197.714z"/>
</g>
<g id="LWPOLYLINE_49_">
	<path style="fill:#101820;" d="M144.47,197.714v29.764c0,10.049,8.144,18.193,18.192,18.193c10.04,0,18.183-8.145,18.183-18.193
		v-29.764c0-10.044-8.143-18.187-18.183-18.187C152.614,179.527,144.47,187.669,144.47,197.714z"/>
</g>
<g id="LWPOLYLINE_51_">
	<path style="fill:#101820;" d="M91.556,227.478c0,10.049,8.147,18.193,18.189,18.193c10.05,0,18.192-8.145,18.192-18.193v-4.627
		c0-5.02-2.079-9.822-5.735-13.26c2.626-3.014,4.076-6.879,4.076-10.883v-2.644c0-9.133-7.396-16.537-16.533-16.537
		c-9.13,0-16.534,7.404-16.534,16.537h9.921c0-3.657,2.964-6.616,6.613-6.616c3.657,0,6.611,2.959,6.611,6.616v2.644
		c0,3.652-2.954,6.615-6.611,6.615h-2.642v9.26h2.642c4.569,0,8.271,3.703,8.271,8.268v4.627c0,4.568-3.702,8.271-8.271,8.271
		c-4.565,0-8.268-3.703-8.268-8.271H91.556z"/>
</g>
<g id="LWPOLYLINE_48_">
	<path style="fill:#FFCD00;" d="M224.506,197.714c0-4.564-3.702-8.266-8.271-8.266s-8.271,3.702-8.271,8.266v29.764
		c0,4.568,3.702,8.271,8.271,8.271s8.271-3.703,8.271-8.271V197.714z"/>
</g>
<g id="LWPOLYLINE_50_">
	<path style="fill:#FFCD00;" d="M170.924,197.714c0-4.564-3.693-8.266-8.262-8.266s-8.271,3.702-8.271,8.266v29.764
		c0,4.568,3.702,8.271,8.271,8.271s8.262-3.703,8.262-8.271V197.714z"/>
</g>
</svg>
