<?xml version="1.0" encoding="iso-8859-1"?>
<!-- Generator: Adobe Illustrator 16.0.0, SVG Export Plug-In . SVG Version: 6.00 Build 0)  -->
<!DOCTYPE svg PUBLIC "-//W3C//DTD SVG 1.1//EN" "http://www.w3.org/Graphics/SVG/1.1/DTD/svg11.dtd">
<svg version="1.1" id="Layer_1" xmlns="http://www.w3.org/2000/svg" xmlns:xlink="http://www.w3.org/1999/xlink" x="0px" y="0px"
	 width="425.197px" height="425.196px" viewBox="0 0 425.197 425.196" style="enable-background:new 0 0 425.197 425.196;"
	 xml:space="preserve">
<g id="LWPOLYLINE_182_">
	<rect x="14.174" y="53.855" style="fill:#FFCD00;" width="396.848" height="317.485"/>
</g>
<g id="LWPOLYLINE_184_">
	<path style="fill:#E4002B;" d="M45.92,53.855h333.379c17.535,0.012,31.734,14.222,31.723,31.746v253.987
		c0,17.541-14.199,31.746-31.723,31.752H45.92c-17.535,0-31.746-14.217-31.746-31.752V85.602
		C14.174,68.066,28.385,53.855,45.92,53.855z"/>
</g>
<g id="LWPOLYLINE_183_">
	<path style="fill:#FFCD00;" d="M45.92,69.729h333.379c8.762,0.012,15.861,7.117,15.85,15.873v253.987
		c0,8.773-7.1,15.873-15.85,15.878H45.92c-8.768,0-15.873-7.11-15.873-15.878V85.602C30.047,76.84,37.153,69.729,45.92,69.729z"/>
</g>
<g id="LWPOLYLINE_185_">
	<polygon style="fill:#101820;" points="185.474,196.725 185.474,129.261 205.307,129.261 205.307,117.354 153.716,117.354 
		153.716,129.261 173.561,129.261 173.561,196.725 	"/>
</g>
<g id="LWPOLYLINE_186_">
	<path style="fill:#101820;" d="M296.205,159.945v36.779h-11.901v-79.371h27.382c0.531,0,1.051,0.018,1.582,0.063
		c11.151,0.877,19.475,10.621,18.597,21.761c0.728,9.316-5.01,17.928-13.898,20.825l-12.756-0.058H296.205z"/>
</g>
<g id="LWPOLYLINE_188_">
	<path style="fill:#101820;" d="M212.764,143.148v27.775c0,14.251,11.544,25.801,25.789,25.801c14.246,0,25.801-11.55,25.801-25.801
		v-27.775c0-14.245-11.555-25.795-25.801-25.795C224.308,117.354,212.764,128.903,212.764,143.148z"/>
</g>
<g id="LWPOLYLINE_190_">
	<path style="fill:#101820;" d="M132.14,175.646c-1.997,5.506-7.215,9.172-13.067,9.172c-7.677,0-13.888-6.217-13.888-13.894H93.272
		c0,14.251,11.556,25.801,25.801,25.801h3.175c12.49,0,22.614-10.13,22.614-22.626c0-9.61-6.072-18.171-15.146-21.346l-16.438-5.749
		c-3.66-1.281-6.107-4.739-6.107-8.618c0-5.039,4.087-9.125,9.12-9.125h5.564c5.033,0,9.119,4.086,9.119,9.125h11.914
		c0-11.619-9.42-21.033-21.033-21.033h-5.564c-11.613,0-21.033,9.414-21.033,21.033c0,8.941,5.656,16.9,14.095,19.851l16.428,5.748
		c2.413,0.843,4.444,2.528,5.737,4.733C132.729,170.819,132.96,173.359,132.14,175.646z"/>
</g>
<g id="LWPOLYLINE_191_">
	<path style="fill:#101820;" d="M72.08,295.935l29.758-39.683c3.29-4.381,2.401-10.604-1.985-13.894
		c-4.376-3.284-10.598-2.401-13.888,1.985c-1.524,2.032-2.205,4.571-1.916,7.1v2.823H72.08v-3.966c0-4.728,1.529-9.322,4.363-13.103
		c7.235-9.64,20.915-11.596,30.555-4.363c9.65,7.238,11.602,20.918,4.363,30.557l-24.404,32.543h28.769v11.907H72.08V295.935z"/>
</g>
<g id="LWPOLYLINE_192_">
	<path style="fill:#101820;" d="M198.542,250.301v35.718c0,12.052,9.767,21.823,21.83,21.823c12.052,0,21.818-9.771,21.818-21.823
		v-35.718c0-12.058-9.767-21.83-21.818-21.83C208.308,228.471,198.542,238.243,198.542,250.301z"/>
</g>
<g id="LWPOLYLINE_194_">
	<path style="fill:#101820;" d="M135.546,250.301v35.718c0,12.052,9.766,21.823,21.818,21.823c12.063,0,21.829-9.771,21.829-21.823
		v-35.718c0-12.058-9.766-21.83-21.829-21.83C145.312,228.471,135.546,238.243,135.546,250.301z"/>
</g>
<g id="LWPOLYLINE_196_">
	<path style="fill:#101820;" d="M297.567,307.842v-42.066c0-4.381,3.544-7.937,7.931-7.937s7.942,3.556,7.942,7.937v42.066h11.902
		v-42.066c0-4.381,3.555-7.937,7.941-7.937c4.376,0,7.932,3.556,7.932,7.937v42.066h11.901v-44.45
		c0-8.323-6.753-15.076-15.076-15.076h-2.378c-5.311,0-10.517,1.396-15.111,4.052c-2.794-2.604-6.465-4.052-10.286-4.052h-3.324
		c-3.278,0.531-6.442,1.593-9.374,3.146v-3.146h-11.914v59.526H297.567z"/>
</g>
<g id="LWPOLYLINE_187_">
	<path style="fill:#FFCD00;" d="M311.685,149.1c4.595,0,8.335-3.734,8.335-8.329v-3.18c0-4.6-3.74-8.329-8.335-8.329h-15.48V149.1
		H311.685z"/>
</g>
<g id="LWPOLYLINE_189_">
	<path style="fill:#FFCD00;" d="M252.441,143.148c0-7.671-6.211-13.887-13.888-13.887c-7.665,0-13.887,6.216-13.887,13.887v27.775
		c0,7.677,6.222,13.894,13.887,13.894c7.677,0,13.888-6.217,13.888-13.894V143.148z"/>
</g>
<g id="LWPOLYLINE_193_">
	<path style="fill:#FFCD00;" d="M230.288,250.301c0-5.483-4.444-9.928-9.916-9.928c-5.483,0-9.928,4.444-9.928,9.928v35.718
		c0,5.472,4.444,9.916,9.928,9.916c5.472,0,9.916-4.444,9.916-9.916V250.301z"/>
</g>
<g id="LWPOLYLINE_195_">
	<path style="fill:#FFCD00;" d="M167.292,250.301c0-5.483-4.444-9.928-9.928-9.928c-5.473,0-9.917,4.444-9.917,9.928v35.718
		c0,5.472,4.444,9.916,9.917,9.916c5.483,0,9.928-4.444,9.928-9.916V250.301z"/>
</g>
</svg>
