<?xml version="1.0" encoding="UTF-8" standalone="no"?>
<!-- Generator: Adobe Illustrator 16.0.0, SVG Export Plug-In . SVG Version: 6.00 Build 0)  -->

<svg
   xmlns:dc="http://purl.org/dc/elements/1.1/"
   xmlns:cc="http://creativecommons.org/ns#"
   xmlns:rdf="http://www.w3.org/1999/02/22-rdf-syntax-ns#"
   xmlns:svg="http://www.w3.org/2000/svg"
   xmlns="http://www.w3.org/2000/svg"
   xmlns:sodipodi="http://sodipodi.sourceforge.net/DTD/sodipodi-0.dtd"
   xmlns:inkscape="http://www.inkscape.org/namespaces/inkscape"
   version="1.1"
   id="Layer_1"
   x="0px"
   y="0px"
   width="396.849"
   height="198.425"
   viewBox="0 0 396.84901 198.425"
   xml:space="preserve"
   sodipodi:docname="H6.svg"
   inkscape:version="0.92.5 (2060ec1f9f, 2020-04-08)"><metadata
   id="metadata3811"><rdf:RDF><cc:Work
       rdf:about=""><dc:format>image/svg+xml</dc:format><dc:type
         rdf:resource="http://purl.org/dc/dcmitype/StillImage" /></cc:Work></rdf:RDF></metadata><defs
   id="defs3809" /><sodipodi:namedview
   pagecolor="#ffffff"
   bordercolor="#666666"
   borderopacity="1"
   objecttolerance="10"
   gridtolerance="10"
   guidetolerance="10"
   inkscape:pageopacity="0"
   inkscape:pageshadow="2"
   inkscape:window-width="640"
   inkscape:window-height="480"
   id="namedview3807"
   showgrid="false"
   inkscape:zoom="0.55503813"
   inkscape:cx="198.4245"
   inkscape:cy="99.212997"
   inkscape:window-x="0"
   inkscape:window-y="0"
   inkscape:window-maximized="0"
   inkscape:current-layer="Layer_1" />
<g
   id="LWPOLYLINE_10_"
   transform="translate(-14.174,-113.386)">
	<rect
   x="14.174"
   y="113.386"
   style="fill:#ffcd00"
   width="396.849"
   height="198.425"
   id="rect3770" />
</g>
<g
   id="LWPOLYLINE_12_"
   transform="translate(-14.174,-113.386)">
	<path
   style="fill:#e4002b"
   d="m 40.632,311.811 h 343.937 c 14.608,0 26.454,-11.845 26.454,-26.458 V 139.844 c 0,-14.612 -11.846,-26.458 -26.454,-26.458 H 40.632 c -14.613,0 -26.458,11.846 -26.458,26.458 v 145.509 c 0,14.613 11.845,26.458 26.458,26.458 z"
   id="path3773"
   inkscape:connector-curvature="0" />
</g>
<g
   id="LWPOLYLINE_11_"
   transform="translate(-14.174,-113.386)">
	<path
   style="fill:#ffcd00"
   d="m 40.632,298.584 h 343.937 c 7.304,0 13.231,-5.927 13.231,-13.231 V 139.844 c 0,-7.309 -5.928,-13.231 -13.231,-13.231 H 40.632 c -7.304,0 -13.227,5.923 -13.227,13.231 v 145.509 c 10e-4,7.304 5.924,13.231 13.227,13.231 z"
   id="path3776"
   inkscape:connector-curvature="0" />
</g>
<g
   id="LWPOLYLINE_13_"
   transform="translate(-14.174,-113.386)">
	<polygon
   style="fill:#101820"
   points="30.711,265.51 83.623,212.599 30.711,159.687 "
   id="polygon3779" />
</g>
<g
   id="LWPOLYLINE_14_"
   transform="translate(-14.174,-113.386)">
	<polygon
   style="fill:#101820"
   points="394.49,159.687 394.49,265.51 341.574,212.599 "
   id="polygon3782" />
</g>
<g
   id="LWPOLYLINE_47_"
   transform="translate(-14.174,-113.386)">
	<polygon
   style="fill:#101820"
   points="144.735,224.426 151.09,224.426 151.09,236.33 144.735,236.33 144.735,252.206 132.834,252.206 132.834,236.33 103.465,236.33 103.465,224.426 132.834,172.836 144.735,172.836 "
   id="polygon3785" />
</g>
<g
   id="LWPOLYLINE_50_"
   transform="translate(-14.174,-113.386)">
	<path
   style="fill:#101820"
   d="m 198.819,219.733 c -3.292,3.097 -5.161,7.414 -5.161,11.937 v 4.168 c 0,9.036 7.331,16.368 16.368,16.368 9.037,0 16.368,-7.332 16.368,-16.368 v -4.168 c 0,-4.522 -1.869,-8.84 -5.161,-11.937 2.371,-2.708 3.675,-6.191 3.675,-9.793 v -2.38 c 0,-8.217 -6.666,-14.882 -14.882,-14.882 -8.216,0 -14.882,6.665 -14.882,14.882 v 2.38 c 0,3.602 1.304,7.085 3.675,9.793 z"
   id="path3788"
   inkscape:connector-curvature="0" />
</g>
<g
   id="LWPOLYLINE_52_"
   transform="translate(-14.174,-113.386)">
	<path
   style="fill:#101820"
   d="m 174.07,249.826 c 1.97,-2.631 1.441,-6.365 -1.194,-8.335 -2.626,-1.97 -6.355,-1.44 -8.334,1.19 -0.767,1.03 -1.186,2.284 -1.186,3.569 v 17.859 z"
   id="path3791"
   inkscape:connector-curvature="0" />
</g>
<g
   id="LWPOLYLINE_53_"
   transform="translate(-14.174,-113.386)">
	<path
   style="fill:#101820"
   d="m 309.832,207.761 c 0,-3.073 -2.49,-5.558 -5.563,-5.558 h -0.794 c -5.252,0 -9.52,4.263 -9.52,9.524 v 40.479 h -11.909 v -44.445 c 0,-3.073 -2.48,-5.558 -5.554,-5.558 H 275.7 c -5.262,0 -9.521,4.263 -9.521,9.524 v 40.479 H 254.27 v -59.527 h 11.909 v 4.76 c 3.885,-2.417 8.234,-4.003 12.767,-4.66 0.557,-0.082 1.112,-0.104 1.678,-0.068 4.44,0.297 8.489,2.649 10.952,6.356 4.449,-3.324 9.656,-5.49 15.146,-6.288 0.556,-0.082 1.121,-0.104 1.678,-0.068 7.504,0.502 13.331,6.734 13.331,14.258 v 45.238 h -11.899 z"
   id="path3794"
   inkscape:connector-curvature="0" />
</g>
<g
   id="LWPOLYLINE_48_"
   transform="translate(-14.174,-113.386)">
	<polygon
   style="fill:#ffcd00"
   points="132.834,224.426 116.959,224.426 132.834,196.54 "
   id="polygon3797" />
</g>
<g
   id="LWPOLYLINE_49_"
   transform="translate(-14.174,-113.386)">
	<path
   style="fill:#ffcd00"
   d="m 202.584,235.838 c 0,4.107 3.329,7.44 7.441,7.44 4.112,0 7.44,-3.333 7.44,-7.44 v -4.168 c 0,-4.112 -3.328,-7.44 -7.44,-7.44 -4.112,0 -7.441,3.328 -7.441,7.44 z"
   id="path3800"
   inkscape:connector-curvature="0" />
</g>
<g
   id="LWPOLYLINE_51_"
   transform="translate(-14.174,-113.386)">
	<path
   style="fill:#ffcd00"
   d="m 204.072,207.561 v 2.38 c 0,3.292 2.662,5.954 5.954,5.954 3.292,0 5.954,-2.662 5.954,-5.954 v -2.38 c 0,-3.288 -2.662,-5.955 -5.954,-5.955 -3.292,0 -5.954,2.666 -5.954,5.955 z"
   id="path3803"
   inkscape:connector-curvature="0" />
</g>
</svg>