<?xml version="1.0" encoding="iso-8859-1"?>
<!-- Generator: Adobe Illustrator 16.0.0, SVG Export Plug-In . SVG Version: 6.00 Build 0)  -->
<!DOCTYPE svg PUBLIC "-//W3C//DTD SVG 1.1//EN" "http://www.w3.org/Graphics/SVG/1.1/DTD/svg11.dtd">
<svg version="1.1" id="Layer_1" xmlns="http://www.w3.org/2000/svg" xmlns:xlink="http://www.w3.org/1999/xlink" x="0px" y="0px"
	 width="425.197px" height="425.196px" viewBox="0 0 425.197 425.196" style="enable-background:new 0 0 425.197 425.196;"
	 xml:space="preserve">
<g id="LWPOLYLINE_144_">
	<rect x="14.171" y="14.173" style="fill:#FFCD00;" width="396.854" height="396.851"/>
</g>
<g id="LWPOLYLINE_146_">
	<path style="fill:#E4002B;" d="M14.171,53.855v317.479c0,21.919,17.771,39.689,39.686,39.689h317.472
		c21.919,0,39.697-17.771,39.697-39.689V53.855c0-21.919-17.778-39.683-39.697-39.683H53.857
		C31.942,14.173,14.171,31.936,14.171,53.855z"/>
</g>
<g id="LWPOLYLINE_145_">
	<path style="fill:#FFCD00;" d="M34.012,53.855v317.479c0,10.96,8.889,19.849,19.845,19.849h317.472
		c10.967,0,19.842-8.889,19.842-19.849V53.855c0-10.953-8.875-19.841-19.842-19.841H53.857
		C42.901,34.014,34.012,42.903,34.012,53.855z"/>
</g>
<g id="LWPOLYLINE_147_">
	<polygon style="fill:#101820;" points="227.478,192.757 227.478,103.818 262.196,138.544 262.196,103.465 212.6,53.855 
		162.991,103.465 162.991,138.544 197.708,103.818 197.708,192.757 	"/>
</g>
<g id="LWPOLYLINE_148_">
	<polygon style="fill:#101820;" points="227.478,232.439 227.478,321.378 262.196,286.652 262.196,321.731 212.6,371.334 
		162.991,321.731 162.991,286.652 197.708,321.378 197.708,232.439 	"/>
</g>
</svg>
