<?xml version="1.0" encoding="UTF-8" standalone="no"?>
<!-- Generator: Adobe Illustrator 16.0.0, SVG Export Plug-In . SVG Version: 6.00 Build 0)  -->

<svg
   xmlns:dc="http://purl.org/dc/elements/1.1/"
   xmlns:cc="http://creativecommons.org/ns#"
   xmlns:rdf="http://www.w3.org/1999/02/22-rdf-syntax-ns#"
   xmlns:svg="http://www.w3.org/2000/svg"
   xmlns="http://www.w3.org/2000/svg"
   xmlns:sodipodi="http://sodipodi.sourceforge.net/DTD/sodipodi-0.dtd"
   xmlns:inkscape="http://www.inkscape.org/namespaces/inkscape"
   version="1.1"
   id="Layer_1"
   x="0px"
   y="0px"
   width="396.85501"
   height="396.85202"
   viewBox="0 0 396.85502 396.85201"
   xml:space="preserve"
   sodipodi:docname="H9.svg"
   inkscape:version="0.92.5 (2060ec1f9f, 2020-04-08)"><metadata
   id="metadata3931"><rdf:RDF><cc:Work
       rdf:about=""><dc:format>image/svg+xml</dc:format><dc:type
         rdf:resource="http://purl.org/dc/dcmitype/StillImage" /></cc:Work></rdf:RDF></metadata><defs
   id="defs3929" /><sodipodi:namedview
   pagecolor="#ffffff"
   bordercolor="#666666"
   borderopacity="1"
   objecttolerance="10"
   gridtolerance="10"
   guidetolerance="10"
   inkscape:pageopacity="0"
   inkscape:pageshadow="2"
   inkscape:window-width="640"
   inkscape:window-height="480"
   id="namedview3927"
   showgrid="false"
   inkscape:zoom="0.55503813"
   inkscape:cx="198.4275"
   inkscape:cy="198.42601"
   inkscape:window-x="0"
   inkscape:window-y="0"
   inkscape:window-maximized="0"
   inkscape:current-layer="Layer_1" />
<g
   id="LWPOLYLINE_144_"
   transform="translate(-14.171,-14.172)">
	<rect
   x="14.171"
   y="14.173"
   style="fill:#ffcd00"
   width="396.854"
   height="396.85101"
   id="rect3912" />
</g>
<g
   id="LWPOLYLINE_146_"
   transform="translate(-14.171,-14.172)">
	<path
   style="fill:#e4002b"
   d="m 53.857,411.023 h 317.472 c 21.919,0 39.697,-17.771 39.697,-39.689 V 53.855 c 0,-21.919 -17.778,-39.683 -39.697,-39.683 H 53.857 c -21.915,0 -39.686,17.763 -39.686,39.683 v 317.479 c 0,21.919 17.771,39.689 39.686,39.689 z"
   id="path3915"
   inkscape:connector-curvature="0" />
</g>
<g
   id="LWPOLYLINE_145_"
   transform="translate(-14.171,-14.172)">
	<path
   style="fill:#ffcd00"
   d="m 53.857,391.183 h 317.472 c 10.967,0 19.842,-8.889 19.842,-19.849 V 53.855 c 0,-10.953 -8.875,-19.841 -19.842,-19.841 H 53.857 c -10.956,0 -19.845,8.889 -19.845,19.841 v 317.479 c 0,10.96 8.889,19.849 19.845,19.849 z"
   id="path3918"
   inkscape:connector-curvature="0" />
</g>
<g
   id="LWPOLYLINE_147_"
   transform="translate(-14.171,-14.172)">
	<polygon
   style="fill:#101820"
   points="138.546,162.988 103.467,162.988 53.857,212.599 103.467,262.201 138.546,262.201 103.813,227.476 192.759,227.476 192.759,197.714 103.813,197.714 "
   id="polygon3921" />
</g>
<polygon
   style="fill:#101820"
   points="286.655,162.988 321.734,162.988 371.329,212.599 321.734,262.201 286.655,262.201 321.373,227.476 232.441,227.476 232.441,197.714 321.373,197.714 "
   id="polygon3924"
   transform="translate(-14.171,-14.172)" />
</svg>