<?xml version="1.0" encoding="UTF-8" standalone="no"?>
<!-- Generator: Adobe Illustrator 16.0.0, SVG Export Plug-In . SVG Version: 6.00 Build 0)  -->

<svg
   xmlns:dc="http://purl.org/dc/elements/1.1/"
   xmlns:cc="http://creativecommons.org/ns#"
   xmlns:rdf="http://www.w3.org/1999/02/22-rdf-syntax-ns#"
   xmlns:svg="http://www.w3.org/2000/svg"
   xmlns="http://www.w3.org/2000/svg"
   xmlns:sodipodi="http://sodipodi.sourceforge.net/DTD/sodipodi-0.dtd"
   xmlns:inkscape="http://www.inkscape.org/namespaces/inkscape"
   version="1.1"
   id="Layer_1"
   x="0px"
   y="0px"
   width="396.85101"
   height="231.49901"
   viewBox="0 0 396.85102 231.499"
   xml:space="preserve"
   sodipodi:docname="I13.svg"
   inkscape:version="0.92.5 (2060ec1f9f, 2020-04-08)"><metadata
   id="metadata4090"><rdf:RDF><cc:Work
       rdf:about=""><dc:format>image/svg+xml</dc:format><dc:type
         rdf:resource="http://purl.org/dc/dcmitype/StillImage" /></cc:Work></rdf:RDF></metadata><defs
   id="defs4088" /><sodipodi:namedview
   pagecolor="#ffffff"
   bordercolor="#666666"
   borderopacity="1"
   objecttolerance="10"
   gridtolerance="10"
   guidetolerance="10"
   inkscape:pageopacity="0"
   inkscape:pageshadow="2"
   inkscape:window-width="640"
   inkscape:window-height="480"
   id="namedview4086"
   showgrid="false"
   inkscape:zoom="0.55503813"
   inkscape:cx="198.4255"
   inkscape:cy="115.74999"
   inkscape:window-x="0"
   inkscape:window-y="0"
   inkscape:window-maximized="0"
   inkscape:current-layer="Layer_1" />
<g
   id="LWPOLYLINE_39_"
   transform="translate(-14.173,-96.848999)">
	<rect
   x="14.173"
   y="96.848999"
   style="fill:#ffcd00"
   width="396.85101"
   height="231.49899"
   id="rect4001" />
</g>
<g
   id="LWPOLYLINE_41_"
   transform="translate(-14.173,-96.848999)">
	<path
   style="fill:#e4002b"
   d="m 14.173,301.889 c 0,14.613 11.845,26.459 26.462,26.459 H 384.57 c 14.608,0 26.454,-11.846 26.454,-26.459 V 123.307 c 0,-14.613 -11.846,-26.458 -26.454,-26.458 H 40.635 c -14.617,0 -26.462,11.845 -26.462,26.458 z"
   id="path4004"
   inkscape:connector-curvature="0" />
</g>
<g
   id="LWPOLYLINE_40_"
   transform="translate(-14.173,-96.848999)">
	<path
   style="fill:#ffcd00"
   d="m 397.801,123.307 c 0,-7.305 -5.928,-13.227 -13.231,-13.227 H 40.635 c -7.304,0 -13.231,5.922 -13.231,13.227 v 178.582 c 0,7.309 5.928,13.228 13.231,13.228 H 384.57 c 7.304,0 13.231,-5.919 13.231,-13.228 z"
   id="path4007"
   inkscape:connector-curvature="0" />
</g>
<g
   id="CIRCLE_2_"
   transform="translate(-14.173,-96.848999)">
	<path
   style="fill:#101820"
   d="m 209.917,275.039 c 0,-11.18 -9.064,-20.244 -20.244,-20.244 -11.18,0 -20.234,9.064 -20.234,20.244 0,11.175 9.055,20.234 20.234,20.234 11.179,0 20.244,-9.059 20.244,-20.234 z"
   id="path4010"
   inkscape:connector-curvature="0" />
</g>
<g
   id="LWPOLYLINE_21_"
   transform="translate(-14.173,-96.848999)">
	<path
   style="fill:#101820"
   d="m 124.273,238.126 52.607,-36.831 h 62.199 v 68.979 h 29.764 v 5.95 H 233.134 V 207.25 h -54.166 l -30.877,30.876 h 76.271 l -0.164,13.099 v 9.525 15.475 h -10.715 c 0.647,-13.149 -9.493,-24.329 -22.643,-24.973 -13.148,-0.643 -24.338,9.498 -24.977,22.651 -0.036,0.771 -0.036,1.55 0,2.321 h -54.767 c 0.647,-13.149 -9.493,-24.329 -22.643,-24.973 -13.158,-0.643 -24.338,9.498 -24.977,22.651 -0.036,0.771 -0.036,1.55 0,2.321 H 49.189 V 238.124 L 61.098,205.98 h 53.573 v 32.144 h 9.602 z"
   id="path4013"
   inkscape:connector-curvature="0" />
</g>
<g
   id="CIRCLE_3_"
   transform="translate(-14.173,-96.848999)">
	<path
   style="fill:#101820"
   d="m 107.532,275.039 c 0,-11.18 -9.064,-20.244 -20.244,-20.244 -11.18,0 -20.234,9.064 -20.234,20.244 0,11.175 9.055,20.234 20.234,20.234 11.179,0 20.244,-9.059 20.244,-20.234 z"
   id="path4016"
   inkscape:connector-curvature="0" />
</g>
<g
   id="LWPOLYLINE_23_"
   transform="translate(-14.173,-96.848999)">
	<path
   style="fill:#101820"
   d="m 62.94,138.85 c -0.109,-2.139 -1.814,-3.853 -3.948,-3.967 h -2.088 c -2.161,0.137 -3.803,2.002 -3.666,4.167 0.073,1.149 0.647,2.207 1.568,2.9 l 8.818,3.232 c 2.298,1.372 3.921,3.638 4.477,6.251 1.104,5.197 -2.216,10.304 -7.404,11.412 -0.072,0.014 -0.146,0.022 -0.219,0.031 -6.42,0.953 -12.401,-3.482 -13.35,-9.907 l 4.906,-0.725 c 0.547,3.711 4.003,6.273 7.714,5.727 2.517,-0.593 4.067,-3.101 3.475,-5.608 -0.256,-1.094 -0.903,-2.061 -1.824,-2.713 l -8.845,-3.241 c -2.544,-1.541 -4.158,-4.259 -4.277,-7.231 -0.209,-4.906 3.603,-9.051 8.499,-9.256 h 2.316 c 4.842,0.174 8.708,4.095 8.809,8.937 z"
   id="path4019"
   inkscape:connector-curvature="0" />
</g>
<g
   id="LWPOLYLINE_24_"
   transform="translate(-14.173,-96.848999)">
	<rect
   x="76.956001"
   y="129.922"
   style="fill:#101820"
   width="4.961"
   height="33.069"
   id="rect4022" />
</g>
<g
   id="LWPOLYLINE_25_"
   transform="translate(-14.173,-96.848999)">
	<rect
   x="93.160004"
   y="129.922"
   style="fill:#101820"
   width="4.961"
   height="33.069"
   id="rect4025" />
</g>
<g
   id="LWPOLYLINE_26_"
   transform="translate(-14.173,-96.848999)">
	<path
   style="fill:#101820"
   d="m 114.325,148.109 v 14.882 h -4.961 v -33.069 h 11.408 c 4.659,0 8.435,3.775 8.435,8.436 v 1.322 c 0,3.547 -2.225,6.72 -5.563,7.929 l 5.563,15.383 h -5.289 l -5.389,-14.882 h -4.204 z"
   id="path4028"
   inkscape:connector-curvature="0" />
</g>
<g
   id="LWPOLYLINE_28_"
   transform="translate(-14.173,-96.848999)">
	<polygon
   style="fill:#101820"
   points="154.667,134.883 146.405,134.883 146.405,162.991 141.444,162.991 141.444,134.883 133.173,134.883 133.173,129.922 154.667,129.922 "
   id="polygon4031" />
</g>
<g
   id="LWPOLYLINE_30_"
   transform="translate(-14.173,-96.848999)">
	<path
   style="fill:#101820"
   d="m 179.807,152.245 v -11.576 c 0,-5.937 -4.814,-10.747 -10.751,-10.747 -5.937,0 -10.751,4.811 -10.751,10.747 v 11.576 c 0,5.937 4.814,10.746 10.751,10.746 5.937,0 10.751,-4.809 10.751,-10.746 z"
   id="path4034"
   inkscape:connector-curvature="0" />
</g>
<g
   id="LWPOLYLINE_31_"
   transform="translate(-14.173,-96.848999)">
	<polygon
   style="fill:#101820"
   points="188.406,162.991 188.406,129.922 193.367,129.922 193.367,145.798 203.945,129.922 209.899,129.922 200.47,143.975 209.899,162.991 204.273,162.991 197.333,148.771 193.367,154.726 193.367,162.991 "
   id="polygon4037" />
</g>
<g
   id="LWPOLYLINE_32_"
   transform="translate(-14.173,-96.848999)">
	<polygon
   style="fill:#101820"
   points="234.703,158.031 221.471,158.031 221.471,148.109 230.398,148.109 230.398,143.149 221.471,143.149 221.471,134.883 234.703,134.883 234.703,129.922 216.51,129.922 216.51,162.991 234.703,162.991 "
   id="polygon4040" />
</g>
<g
   id="LWPOLYLINE_33_"
   transform="translate(-14.173,-96.848999)">
	<polygon
   style="fill:#101820"
   points="248.59,148.109 248.59,162.991 243.629,162.991 243.629,129.922 248.59,129.922 248.59,143.149 260.162,143.149 260.162,129.922 265.123,129.922 265.123,162.991 260.162,162.991 260.162,148.109 "
   id="polygon4043" />
</g>
<g
   id="LWPOLYLINE_35_"
   transform="translate(-14.173,-96.848999)">
	<path
   style="fill:#101820"
   d="m 295.224,152.245 v -11.576 c 0,-5.937 -4.815,-10.747 -10.751,-10.747 -5.937,0 -10.752,4.811 -10.752,10.747 v 11.576 c 0,5.937 4.815,10.746 10.752,10.746 5.936,0 10.751,-4.809 10.751,-10.746 z"
   id="path4046"
   inkscape:connector-curvature="0" />
</g>
<g
   id="LWPOLYLINE_36_"
   transform="translate(-14.173,-96.848999)">
	<polygon
   style="fill:#101820"
   points="320.903,134.883 312.641,134.883 312.641,162.991 307.68,162.991 307.68,134.883 299.41,134.883 299.41,129.922 320.903,129.922 "
   id="polygon4049" />
</g>
<g
   id="LWPOLYLINE_37_"
   transform="translate(-14.173,-96.848999)">
	<path
   style="fill:#101820"
   d="m 327.194,152.245 c 0,5.937 4.807,10.746 10.742,10.746 5.937,0 10.751,-4.81 10.751,-10.746 v -22.323 h -4.96 v 22.323 c 0,3.196 -2.59,5.786 -5.791,5.786 -3.191,0 -5.781,-2.59 -5.781,-5.786 v -22.323 h -4.961 z"
   id="path4052"
   inkscape:connector-curvature="0" />
</g>
<g
   id="LWPOLYLINE_38_"
   transform="translate(-14.173,-96.848999)">
	<path
   style="fill:#101820"
   d="m 372.707,138.85 c -0.109,-2.139 -1.815,-3.853 -3.958,-3.967 h -2.079 c -2.161,0.137 -3.812,2.002 -3.675,4.167 0.073,1.149 0.647,2.207 1.578,2.9 l 8.817,3.232 c 2.298,1.372 3.921,3.638 4.478,6.251 1.104,5.197 -2.216,10.304 -7.414,11.412 -0.063,0.014 -0.137,0.022 -0.209,0.031 -6.43,0.953 -12.402,-3.482 -13.351,-9.907 l 4.906,-0.725 c 0.547,3.711 4.003,6.273 7.715,5.727 2.517,-0.593 4.066,-3.101 3.474,-5.608 -0.255,-1.094 -0.902,-2.061 -1.823,-2.713 l -8.846,-3.241 c -2.544,-1.541 -4.158,-4.259 -4.286,-7.231 -0.2,-4.906 3.603,-9.051 8.508,-9.256 h 2.316 c 4.842,0.174 8.709,4.095 8.809,8.937 z"
   id="path4055"
   inkscape:connector-curvature="0" />
</g>
<g
   id="CIRCLE_6_"
   transform="translate(-14.173,-96.848999)">
	<path
   style="fill:#101820"
   d="m 359.867,285.006 c 0,-5.672 -4.604,-10.268 -10.276,-10.268 -5.663,0 -10.268,4.596 -10.268,10.268 0,5.672 4.604,10.268 10.268,10.268 5.671,-10e-4 10.276,-4.596 10.276,-10.268 z"
   id="path4058"
   inkscape:connector-curvature="0" />
</g>
<g
   id="CIRCLE_7_"
   transform="translate(-14.173,-96.848999)">
	<path
   style="fill:#101820"
   d="m 271.451,260.139 c 0,-5.672 -4.596,-10.272 -10.268,-10.272 -5.672,0 -10.268,4.601 -10.268,10.272 0,5.667 4.596,10.268 10.268,10.268 5.672,0 10.268,-4.601 10.268,-10.268 z"
   id="path4061"
   inkscape:connector-curvature="0" />
</g>
<g
   id="LWPOLYLINE_46_"
   transform="translate(-14.173,-96.848999)">
	<path
   style="fill:#101820"
   d="m 375.715,266.832 c 0.283,0.374 0.365,0.857 0.237,1.309 l -4.961,17.636 c -0.228,0.807 -1.058,1.276 -1.869,1.053 l -5.781,-1.632 c 0.41,-7.505 -5.344,-13.925 -12.849,-14.335 -5.271,-0.282 -10.231,2.499 -12.729,7.14 l -62.829,-17.672 c 0.411,-7.505 -5.344,-13.925 -12.848,-14.335 -5.271,-0.287 -10.231,2.494 -12.73,7.141 l -6.803,-1.915 c -0.802,-0.229 -1.276,-1.067 -1.049,-1.869 l 3.11,-11.043 c 1.13,-4.04 5.325,-6.389 9.355,-5.253 l 24.813,6.98 c 0.392,0.109 0.803,0.06 1.158,-0.137 l 23.928,-13.423 c 0.355,-0.196 0.766,-0.246 1.158,-0.137 l 51.065,14.366 c 0.328,0.092 0.61,0.288 0.812,0.562 z"
   id="path4064"
   inkscape:connector-curvature="0" />
</g>
<g
   id="LWPOLYLINE_22_"
   transform="translate(-14.173,-96.848999)">
	<polygon
   style="fill:#ffcd00"
   points="95.741,216.696 95.741,238.126 61.454,238.126 67.882,216.696 "
   id="polygon4067" />
</g>
<g
   id="LWPOLYLINE_27_"
   transform="translate(-14.173,-96.848999)">
	<path
   style="fill:#ffcd00"
   d="m 114.325,143.149 h 6.447 c 1.915,0 3.474,-1.555 3.474,-3.47 v -1.322 c 0,-1.92 -1.559,-3.475 -3.474,-3.475 h -6.447 z"
   id="path4070"
   inkscape:connector-curvature="0" />
</g>
<g
   id="LWPOLYLINE_29_"
   transform="translate(-14.173,-96.848999)">
	<path
   style="fill:#ffcd00"
   d="m 174.846,152.245 v -11.576 c 0,-3.196 -2.59,-5.786 -5.79,-5.786 -3.192,0 -5.791,2.59 -5.791,5.786 v 11.576 c 0,3.196 2.599,5.786 5.791,5.786 3.2,0 5.79,-2.59 5.79,-5.786 z"
   id="path4073"
   inkscape:connector-curvature="0" />
</g>
<g
   id="LWPOLYLINE_34_"
   transform="translate(-14.173,-96.848999)">
	<path
   style="fill:#ffcd00"
   d="m 290.263,152.245 v -11.576 c 0,-3.196 -2.59,-5.786 -5.79,-5.786 -3.192,0 -5.791,2.59 -5.791,5.786 v 11.576 c 0,3.196 2.599,5.786 5.791,5.786 3.2,0 5.79,-2.59 5.79,-5.786 z"
   id="path4076"
   inkscape:connector-curvature="0" />
</g>
<g
   id="LWPOLYLINE_45_"
   transform="translate(-14.173,-96.848999)">
	<path
   style="fill:#ffcd00"
   d="m 290.856,242.361 15.748,-9.647 c 0.365,-0.219 0.803,-0.278 1.204,-0.164 l 17.809,5.011 c 0.803,0.228 1.268,1.058 1.049,1.86 L 323,252.465 c -0.228,0.812 -1.066,1.281 -1.869,1.054 l -29.9,-8.412 c -0.365,-0.105 -0.675,-0.342 -0.876,-0.666 -0.438,-0.712 -0.21,-1.646 0.501,-2.08 z"
   id="path4079"
   inkscape:connector-curvature="0" />
</g>
<g
   id="LWPOLYLINE_47_"
   transform="translate(-14.173,-96.848999)">
	<path
   style="fill:#ffcd00"
   d="m 331.772,240.788 -3.684,13.095 c -0.229,0.808 0.246,1.642 1.048,1.869 l 26.445,7.441 c 0.812,0.229 1.65,-0.246 1.878,-1.058 0.101,-0.328 0.073,-0.675 -0.055,-0.989 l -6.502,-15.922 c -0.182,-0.451 -0.564,-0.793 -1.039,-0.926 l -16.223,-4.563 c -0.802,-0.227 -1.64,0.242 -1.868,1.053 z"
   id="path4082"
   inkscape:connector-curvature="0" />
</g>
</svg>