<?xml version="1.0" encoding="iso-8859-1"?>
<!-- Generator: Adobe Illustrator 16.0.0, SVG Export Plug-In . SVG Version: 6.00 Build 0)  -->
<!DOCTYPE svg PUBLIC "-//W3C//DTD SVG 1.1//EN" "http://www.w3.org/Graphics/SVG/1.1/DTD/svg11.dtd">
<svg version="1.1" id="Layer_1" xmlns="http://www.w3.org/2000/svg" xmlns:xlink="http://www.w3.org/1999/xlink" x="0px" y="0px"
	 width="425.197px" height="425.196px" viewBox="0 0 425.197 425.196" style="enable-background:new 0 0 425.197 425.196;"
	 xml:space="preserve">
<g id="LWPOLYLINE_65_">
	<rect x="14.179" y="14.175" style="fill:#FFCD00;" width="396.839" height="396.847"/>
</g>
<g id="LWPOLYLINE_67_">
	<path style="fill:#E4002B;" d="M384.574,14.175H40.623c-14.607,0-26.444,11.845-26.444,26.452V384.57
		c0,14.614,11.836,26.451,26.444,26.451h343.951c14.607,0,26.444-11.837,26.444-26.451V40.626
		C411.018,26.02,399.181,14.175,384.574,14.175z"/>
</g>
<g id="LWPOLYLINE_66_">
	<path style="fill:#FFCD00;" d="M384.574,27.404H40.623c-7.296,0-13.222,5.918-13.222,13.222V384.57
		c0,7.304,5.926,13.229,13.222,13.229h343.951c7.296,0,13.222-5.926,13.222-13.229V40.626
		C397.795,33.323,391.87,27.404,384.574,27.404z"/>
</g>
<g id="LWPOLYLINE_68_">
	<path style="fill:#101820;" d="M117.213,94.591c-0.169-3.425-2.909-6.164-6.326-6.349h-3.34c-3.463,0.223-6.096,3.209-5.865,6.672
		c0.108,1.832,1.031,3.533,2.509,4.633l14.114,5.171c3.679,2.201,6.265,5.826,7.157,10.005c1.771,8.32-3.54,16.493-11.852,18.255
		c-0.108,0.023-0.231,0.046-0.339,0.062c-10.282,1.516-19.84-5.58-21.364-15.854l7.85-1.17c0.877,5.941,6.403,10.051,12.344,9.174
		c4.033-0.954,6.511-4.972,5.557-8.974c-0.416-1.755-1.447-3.294-2.909-4.34l-14.161-5.187c-4.079-2.471-6.649-6.819-6.849-11.575
		c-0.323-7.85,5.756-14.484,13.606-14.807h3.709c7.742,0.277,13.93,6.549,14.099,14.299L117.213,94.591z"/>
</g>
<g id="LWPOLYLINE_70_">
	<path style="fill:#101820;" d="M169.792,116.017V97.5c0-9.497-7.711-17.193-17.208-17.193s-17.193,7.696-17.193,17.193v18.517
		c0,9.497,7.696,17.201,17.193,17.201S169.792,125.514,169.792,116.017z"/>
</g>
<g id="LWPOLYLINE_71_">
	<path style="fill:#101820;" d="M203.979,94.591c-0.17-3.425-2.895-6.164-6.312-6.349h-3.34c-3.463,0.223-6.095,3.209-5.88,6.672
		c0.123,1.832,1.047,3.533,2.524,4.633l14.114,5.171c3.664,2.201,6.265,5.826,7.158,10.005c1.77,8.32-3.541,16.493-11.853,18.255
		c-0.123,0.023-0.23,0.046-0.354,0.062c-10.267,1.516-19.841-5.58-21.35-15.854l7.851-1.17c0.877,5.941,6.403,10.051,12.344,9.174
		c4.018-0.954,6.496-4.972,5.557-8.974c-0.415-1.755-1.446-3.294-2.908-4.34l-14.161-5.187c-4.079-2.471-6.649-6.819-6.85-11.575
		c-0.339-7.85,5.757-14.484,13.606-14.807h3.71c7.742,0.277,13.914,6.549,14.083,14.299L203.979,94.591z"/>
</g>
<g id="LWPOLYLINE_72_">
	<path style="fill:#101820;" d="M247.569,88.08c3.125-1.616,5.479-4.417,6.542-7.773h8.019v52.91h-7.941V92.475l-5.818,1.054
		L247.569,88.08z"/>
</g>
<g id="LWPOLYLINE_73_">
	<path style="fill:#101820;" d="M275.352,88.08c3.124-1.616,5.479-4.417,6.525-7.773h8.02v52.91h-7.927V92.475l-5.818,1.054
		L275.352,88.08z"/>
</g>
<g id="LWPOLYLINE_74_">
	<path style="fill:#101820;" d="M304.181,97.5h7.942v-2.647c0-0.854,0.169-1.701,0.492-2.493c1.386-3.387,5.233-5.003,8.62-3.633
		c3.386,1.385,5.002,5.249,3.632,8.627l-20.687,27.929v7.935h29.106v-7.935h-20.102l19.239-25.489
		c2.725-7.558-1.185-15.892-8.742-18.625c-7.558-2.724-15.9,1.186-18.625,8.743c-0.738,2.047-1.016,4.24-0.8,6.403L304.181,97.5z"/>
</g>
<g id="LWPOLYLINE_75_">
	<path style="fill:#101820;" d="M355.729,59.451c-1.493-1.516-3.063-2.94-4.71-4.287c-5.172-4.687-11.313-8.196-17.962-10.297
		c-4.156-1.347-8.65-1.208-12.729,0.393l-1.017,0.877l14.115,14.099l0.277-0.277c0.77-0.646,1.847-0.785,2.755-0.354
		c4.002,2.232,7.665,4.987,10.913,8.204c3.248,3.248,6.049,6.919,8.296,10.913c0.446,0.908,0.308,1.993-0.354,2.771l-0.293,0.292
		l14.13,14.084l0.893-1.031c1.586-4.063,1.725-8.558,0.37-12.714c-2.124-6.665-5.68-12.791-10.39-17.962
		C358.684,62.514,357.252,60.944,355.729,59.451z"/>
</g>
<g id="LWPOLYLINE_76_">
	<path style="fill:#101820;" d="M360.962,100.871l-10.989-10.913c-0.832-0.908-0.801-2.309,0.061-3.186l3.926-3.925l14.13,14.084
		l-3.895,3.902C363.287,101.671,361.886,101.687,360.962,100.871z"/>
</g>
<g id="LWPOLYLINE_77_">
	<path style="fill:#101820;" d="M314.386,54.325l10.836,10.99c0.923,0.831,2.324,0.8,3.201-0.069l3.94-3.948l-14.13-14.099
		l-3.802,3.91C313.585,52.009,313.571,53.402,314.386,54.325z"/>
</g>
<g id="LWPOLYLINE_78_">
	<polygon style="fill:#101820;" points="118.106,277.903 118.106,285.345 113.627,285.345 113.627,255.577 118.106,255.577 
		118.106,269.868 127.619,255.577 132.975,255.577 124.494,268.229 132.975,285.345 127.926,285.345 121.677,272.547 	"/>
</g>
<g id="LWPOLYLINE_79_">
	<path style="fill:#101820;" d="M135.653,279.835v-16.809h4.464v15.77c0,1.646,1.339,2.979,2.986,2.979s2.971-1.332,2.971-2.979
		v-15.77h4.463v22.318h-4.463v-1.785c-1.54,0.954-3.263,1.563-5.064,1.785c-2.955,0-5.356-2.4-5.356-5.355V279.835z"/>
</g>
<g id="LWPOLYLINE_80_">
	<path style="fill:#101820;" d="M171.378,268.529v16.815h-4.464v-15.776c0-1.647-1.339-2.971-2.986-2.971
		c-1.631,0-2.971,1.323-2.971,2.971v15.776h-4.463v-22.318h4.463v1.785c1.54-0.953,3.263-1.569,5.064-1.785
		c2.955,0,5.356,2.394,5.356,5.356V268.529z"/>
</g>
<g id="LWPOLYLINE_81_">
	<path style="fill:#101820;" d="M191.619,268.529v16.815h-4.464v-15.776c0-1.647-1.339-2.971-2.986-2.971
		c-1.631,0-2.971,1.323-2.971,2.971v15.776h-4.463v-22.318h4.463v1.785c1.54-0.953,3.264-1.569,5.064-1.785
		c2.955,0,5.356,2.394,5.356,5.356V268.529z"/>
</g>
<g id="LWPOLYLINE_82_">
	<path style="fill:#101820;" d="M210.659,285.345h-4.464v-1.431c-1.785,0.97-3.802,1.462-5.833,1.431
		c-1.832,0.047-3.479-1.107-4.063-2.848c-0.724-2.277-0.124-4.778,1.585-6.464c2.17-2.34,5.141-3.764,8.312-4.002v-2.31
		c0-1.23-1-2.231-2.231-2.231s-2.232,1.001-2.232,2.231h-4.463c0-3.701,3.001-6.695,6.695-6.695c3.709,0,6.695,2.994,6.695,6.695
		V285.345z"/>
</g>
<g id="LWPOLYLINE_84_">
	<path style="fill:#101820;" d="M230.899,268.529v16.815h-4.463v-15.776c0-1.647-1.324-2.971-2.971-2.971
		c-1.647,0-2.971,1.323-2.971,2.971v15.776h-4.479v-22.318h4.479v1.785c1.523-0.953,3.263-1.569,5.049-1.785
		c2.955,0,5.355,2.394,5.355,5.356V268.529z"/>
</g>
<g id="LWPOLYLINE_85_">
	<path style="fill:#101820;" d="M260.667,268.529v16.815h-4.464v-15.776c0-1.647-1.339-2.971-2.971-2.971
		c-1.646,0-2.985,1.323-2.985,2.971v15.776h-4.464v-22.318h4.464v1.785c1.539-0.953,3.263-1.569,5.063-1.785
		c2.955,0,5.356,2.394,5.356,5.356V268.529z"/>
</g>
<g id="LWPOLYLINE_86_">
	<rect x="266.024" y="263.026" style="fill:#101820;" width="4.464" height="22.318"/>
</g>
<g id="LWPOLYLINE_87_">
	<rect x="266.024" y="255.577" style="fill:#101820;" width="4.464" height="4.463"/>
</g>
<g id="LWPOLYLINE_88_">
	<path style="fill:#101820;" d="M289.42,264.289c-0.97-0.816-2.186-1.263-3.448-1.263c-1.801,0.216-3.524,0.832-5.063,1.785v-1.785
		h-4.464v22.318h4.464v-15.776c0-1.647,1.339-2.971,2.971-2.971c1.646,0,2.985,1.323,2.985,2.971v15.776h4.464v-15.776
		c0-1.647,1.324-2.971,2.971-2.971s2.971,1.323,2.971,2.971v15.776h4.479l-0.016-17.008c-0.2-2.863-2.493-5.133-5.356-5.311
		C293.992,262.719,291.559,263.157,289.42,264.289z"/>
</g>
<g id="LWPOLYLINE_89_">
	<rect x="307.106" y="263.026" style="fill:#101820;" width="4.463" height="22.318"/>
</g>
<g id="LWPOLYLINE_90_">
	<rect x="307.106" y="255.577" style="fill:#101820;" width="4.463" height="4.463"/>
</g>
<g id="LWPOLYLINE_91_">
	<path style="fill:#101820;" d="M112.98,304.493c-6.665,9.065-6.665,21.395,0,30.461c-0.8-0.686-1.539-1.432-2.232-2.232
		C103.576,324.317,104.561,311.681,112.98,304.493z"/>
</g>
<g id="LWPOLYLINE_93_">
	<path style="fill:#101820;" d="M125.31,321.563h5.803c4.187,0,7.588-3.401,7.588-7.596v-1.192c0-4.188-3.401-7.589-7.588-7.589
		h-10.266v29.769h4.463V321.563z"/>
</g>
<g id="LWPOLYLINE_94_">
	<path style="fill:#101820;" d="M155.663,334.954h-4.463v-1.432c-1.801,0.97-3.802,1.462-5.849,1.432
		c-1.832,0.046-3.479-1.108-4.063-2.848c-0.724-2.286-0.108-4.779,1.585-6.473c2.17-2.332,5.141-3.764,8.327-3.994v-2.309
		c0-1.239-1-2.24-2.232-2.24s-2.232,1.001-2.232,2.24h-4.463c0-3.702,3.001-6.703,6.695-6.703s6.695,3.001,6.695,6.703V334.954z"/>
</g>
<g id="LWPOLYLINE_96_">
	<rect x="161.019" y="312.628" style="fill:#101820;" width="4.464" height="22.326"/>
</g>
<g id="LWPOLYLINE_97_">
	<rect x="161.019" y="305.186" style="fill:#101820;" width="4.464" height="4.464"/>
</g>
<g id="LWPOLYLINE_98_">
	<polygon style="fill:#101820;" points="175.904,334.954 171.44,334.954 171.44,305.186 175.904,305.186 175.904,321.632 
		181.86,312.628 186.324,312.628 181.229,320.27 186.355,334.954 181.86,334.954 178.274,324.702 175.904,328.259 	"/>
</g>
<g id="LWPOLYLINE_99_">
	<path style="fill:#101820;" d="M203.886,334.954h-4.464v-1.432c-1.801,0.97-3.817,1.462-5.849,1.432
		c-1.832,0.046-3.479-1.108-4.063-2.848c-0.724-2.286-0.108-4.779,1.585-6.473c2.171-2.332,5.142-3.764,8.327-3.994v-2.309
		c0-1.239-1-2.24-2.247-2.24c-1.231,0-2.231,1.001-2.231,2.24h-4.464c0-3.702,3.001-6.703,6.695-6.703
		c3.71,0,6.711,3.001,6.711,6.703V334.954z"/>
</g>
<g id="LWPOLYLINE_101_">
	<path style="fill:#101820;" d="M224.126,318.13v16.824h-4.479v-15.777c0-1.646-1.324-2.979-2.971-2.979
		c-1.647,0-2.971,1.332-2.971,2.979v15.777h-4.464v-22.326h4.464v1.785c1.539-0.954,3.263-1.563,5.049-1.785
		c2.971,0,5.371,2.4,5.371,5.356V318.13z"/>
</g>
<g id="LWPOLYLINE_102_">
	<path style="fill:#101820;" d="M253.879,318.13v16.824h-4.463v-15.777c0-1.646-1.324-2.979-2.971-2.979
		c-1.647,0-2.986,1.332-2.986,2.979v15.777h-4.464v-22.326h4.464v1.785c1.539-0.954,3.263-1.563,5.063-1.785
		c2.956,0,5.356,2.4,5.356,5.356V318.13z"/>
</g>
<g id="LWPOLYLINE_103_">
	<rect x="259.236" y="312.628" style="fill:#101820;" width="4.464" height="22.326"/>
</g>
<g id="LWPOLYLINE_104_">
	<rect x="259.236" y="305.186" style="fill:#101820;" width="4.464" height="4.464"/>
</g>
<g id="LWPOLYLINE_105_">
	<path style="fill:#101820;" d="M282.632,313.897c-0.954-0.815-2.186-1.27-3.448-1.27c-1.801,0.223-3.524,0.831-5.063,1.785v-1.785
		h-4.464v22.326h4.464v-15.777c0-1.646,1.339-2.979,2.985-2.979c1.632,0,2.971,1.332,2.971,2.979v15.777h4.464v-15.777
		c0-1.646,1.339-2.979,2.971-2.979c1.647,0,2.986,1.332,2.986,2.979v15.777h4.464v-17.009c-0.216-2.862-2.494-5.141-5.356-5.317
		C287.204,312.319,284.772,312.759,282.632,313.897z"/>
</g>
<g id="LWPOLYLINE_106_">
	<rect x="300.318" y="312.628" style="fill:#101820;" width="4.464" height="22.326"/>
</g>
<g id="LWPOLYLINE_107_">
	<rect x="300.318" y="305.186" style="fill:#101820;" width="4.464" height="4.464"/>
</g>
<g id="LWPOLYLINE_108_">
	<path style="fill:#101820;" d="M312.215,334.954c6.665-9.066,6.665-21.396,0-30.461c0.801,0.685,1.555,1.432,2.232,2.231
		C321.621,315.129,320.635,327.766,312.215,334.954z"/>
</g>
<g id="LWPOLYLINE_109_">
	<polygon style="fill:#101820;" points="150.984,369.679 150.984,374.635 148.013,374.635 148.013,354.794 150.984,354.794 
		150.984,364.322 157.34,354.794 160.912,354.794 155.247,363.229 160.912,374.635 157.541,374.635 153.37,366.107 	"/>
</g>
<g id="LWPOLYLINE_110_">
	<path style="fill:#101820;" d="M162.697,369.679c0,2.739,2.217,4.956,4.957,4.956s4.957-2.217,4.957-4.956v-4.964
		c0-2.74-2.217-4.964-4.957-4.964s-4.957,2.224-4.957,4.964V369.679z"/>
</g>
<g id="LWPOLYLINE_112_">
	<path style="fill:#101820;" d="M175.795,369.679c0,2.739,2.217,4.956,4.957,4.956c2.739,0,4.956-2.217,4.956-4.956v-4.964
		c0-2.74-2.217-4.964-4.956-4.964c-2.74,0-4.957,2.224-4.957,4.964V369.679z"/>
</g>
<g id="LWPOLYLINE_114_">
	<path style="fill:#101820;" d="M192.265,364.322v10.313h-2.986v-14.884h2.986v0.8c1.047-0.523,2.201-0.8,3.371-0.8v3.155
		c-0.785-0.771-2.047-0.755-2.802,0.022C192.465,363.306,192.265,363.799,192.265,364.322z"/>
</g>
<g id="LWPOLYLINE_115_">
	<path style="fill:#101820;" d="M197.221,363.429l0.016,8.158c0.323,1.725,1.801,2.986,3.556,3.048c1.2-0.154,2.34-0.546,3.371-1.17
		v1.17h2.985v-19.841h-2.985v6.149c-1.017-0.639-2.171-1.039-3.371-1.192c-1.97,0-3.571,1.601-3.571,3.57V363.429z"/>
</g>
<g id="LWPOLYLINE_117_">
	<rect x="211.105" y="359.751" style="fill:#101820;" width="2.986" height="14.884"/>
</g>
<g id="LWPOLYLINE_118_">
	<rect x="211.105" y="354.794" style="fill:#101820;" width="2.986" height="2.979"/>
</g>
<g id="LWPOLYLINE_119_">
	<path style="fill:#101820;" d="M227.975,363.429v11.206h-2.971v-10.513c0-1.093-0.893-1.986-1.986-1.986
		c-1.092,0-1.985,0.894-1.985,1.986v10.513h-2.971v-14.884h2.971v1.192c1.031-0.639,2.171-1.039,3.371-1.192
		c1.97,0,3.571,1.601,3.571,3.57V363.429z"/>
</g>
<g id="LWPOLYLINE_120_">
	<path style="fill:#101820;" d="M240.673,374.635h-2.971v-0.954c-1.2,0.646-2.54,0.977-3.895,0.954
		c-1.231,0.03-2.323-0.739-2.709-1.894c-0.492-1.523-0.077-3.186,1.047-4.317c1.447-1.555,3.433-2.501,5.557-2.663v-1.547
		c0-0.815-0.662-1.478-1.493-1.478c-0.815,0-1.493,0.662-1.493,1.478h-2.971c0-2.463,2.001-4.463,4.464-4.463s4.464,2,4.464,4.463
		V374.635z"/>
</g>
<g id="LWPOLYLINE_122_">
	<path style="fill:#101820;" d="M253.372,374.635h-2.971v-0.954c-1.2,0.646-2.539,0.977-3.895,0.954
		c-1.23,0.03-2.324-0.739-2.709-1.894c-0.492-1.523-0.076-3.186,1.047-4.317c1.463-1.555,3.433-2.501,5.557-2.663v-1.547
		c0-0.815-0.662-1.478-1.492-1.478c-0.816,0-1.479,0.662-1.479,1.478h-2.986c0-2.463,2.002-4.463,4.465-4.463
		c2.462,0,4.463,2,4.463,4.463V374.635z"/>
</g>
<g id="LWPOLYLINE_124_">
	<path style="fill:#101820;" d="M260.421,359.751h1.678v2.985h-1.678v7.234c0,0.939,0.754,1.693,1.678,1.693v2.971
		c-2.57,0-4.648-2.086-4.648-4.664v-7.234h-1.693v-2.985h1.693v-4.957h2.971V359.751z"/>
</g>
<g id="LWPOLYLINE_125_">
	<rect x="265.085" y="359.751" style="fill:#101820;" width="2.971" height="14.884"/>
</g>
<g id="LWPOLYLINE_126_">
	<rect x="265.085" y="354.794" style="fill:#101820;" width="2.971" height="2.979"/>
</g>
<g id="LWPOLYLINE_127_">
	<path style="fill:#101820;" d="M275.505,359.751h1.678v2.985h-1.678v7.234c0,0.939,0.755,1.693,1.678,1.693v2.971
		c-2.57,0-4.663-2.086-4.663-4.664v-7.234h-1.678v-2.985h1.678v-4.957h2.985V359.751z"/>
</g>
<g id="LWPOLYLINE_129_">
	<path style="fill:#101820;" d="M134.622,167.28h3.864c2.801,0,5.064-2.263,5.064-5.057v-0.8c0-2.786-2.263-5.057-5.064-5.057h-6.85
		v19.848h2.986V167.28z"/>
</g>
<g id="LWPOLYLINE_130_">
	<path style="fill:#101820;" d="M154.862,176.215h-2.986v-0.954c-1.186,0.646-2.524,0.97-3.895,0.954
		c-1.216,0.031-2.324-0.738-2.709-1.9c-0.477-1.524-0.077-3.187,1.063-4.317c1.447-1.555,3.432-2.509,5.541-2.663v-1.539
		c0-0.823-0.662-1.493-1.478-1.493c-0.832,0-1.493,0.67-1.493,1.493h-2.971c0-2.463,1.985-4.464,4.464-4.464
		c2.462,0,4.463,2.001,4.463,4.464V176.215z"/>
</g>
<g id="LWPOLYLINE_132_">
	<rect x="158.433" y="161.331" style="fill:#101820;" width="2.971" height="14.884"/>
</g>
<g id="LWPOLYLINE_133_">
	<rect x="158.433" y="156.367" style="fill:#101820;" width="2.971" height="2.979"/>
</g>
<g id="LWPOLYLINE_134_">
	<polygon style="fill:#101820;" points="168.346,176.215 165.375,176.215 165.375,156.367 168.346,156.367 168.346,167.334 
		172.317,161.331 175.288,161.331 171.902,166.426 175.319,176.215 172.317,176.215 169.931,169.381 168.346,171.752 	"/>
</g>
<g id="LWPOLYLINE_135_">
	<path style="fill:#101820;" d="M187.001,176.215h-2.971v-0.954c-1.201,0.646-2.54,0.97-3.895,0.954
		c-1.231,0.031-2.324-0.738-2.709-1.9c-0.492-1.524-0.077-3.187,1.047-4.317c1.446-1.555,3.433-2.509,5.557-2.663v-1.539
		c0-0.823-0.678-1.493-1.493-1.493c-0.816,0-1.493,0.67-1.493,1.493h-2.971c0-2.463,2.001-4.464,4.464-4.464
		s4.464,2.001,4.464,4.464V176.215z"/>
</g>
<g id="LWPOLYLINE_137_">
	<path style="fill:#101820;" d="M200.5,164.994v11.221h-2.986v-10.521c0-1.1-0.878-1.985-1.986-1.985
		c-1.092,0-1.985,0.886-1.985,1.985v10.521h-2.971v-14.884h2.971v1.186c1.031-0.631,2.186-1.039,3.387-1.186
		c1.97,0,3.571,1.601,3.571,3.571V164.994z"/>
</g>
<g id="LWPOLYLINE_138_">
	<path style="fill:#101820;" d="M213.983,164.994v11.221h-2.97v-10.521c0-1.1-0.894-1.985-1.986-1.985s-1.985,0.886-1.985,1.985
		v10.521h-2.971v-14.884h2.971v1.186c1.031-0.631,2.17-1.039,3.371-1.186c1.97,0,3.57,1.601,3.57,3.571V164.994z"/>
</g>
<g id="LWPOLYLINE_139_">
	<path style="fill:#101820;" d="M217.169,172.536v-11.205h2.971v10.513c0,1.093,0.893,1.985,1.985,1.985
		c1.094,0,1.986-0.893,1.986-1.985v-10.513h2.971v14.884h-2.971v-1.192c-1.031,0.639-2.186,1.039-3.371,1.192
		c-1.985,0-3.571-1.601-3.571-3.57V172.536z"/>
</g>
<g id="LWPOLYLINE_140_">
	<path style="fill:#101820;" d="M230.252,171.251c0,2.74,2.232,4.964,4.973,4.964h0.385c2.416,0,4.371-1.954,4.371-4.371
		c0-1.555-0.832-2.986-2.171-3.771l-3.294-1.917c-0.292-0.177-0.492-0.508-0.492-0.854c0-0.554,0.446-1,1-1h0.586
		c0.554,0,1,0.446,1,1h2.971c0-2.2-1.771-3.971-3.971-3.971h-0.586c-2.2,0-3.971,1.771-3.971,3.971c0,1.409,0.754,2.709,1.971,3.426
		l3.293,1.916c0.432,0.246,0.693,0.708,0.693,1.2c0,0.77-0.631,1.386-1.4,1.386h-0.385c-1.109,0-1.986-0.886-1.986-1.979H230.252z"
		/>
</g>
<g id="LWPOLYLINE_141_">
	<path style="fill:#101820;" d="M253.28,172.536l-0.016-8.157c-0.323-1.724-1.801-2.986-3.556-3.048
		c-1.2,0.154-2.34,0.547-3.371,1.17v-1.17h-2.985v18.848h2.985v-5.156c1.017,0.639,2.171,1.039,3.371,1.192
		c1.97,0,3.571-1.601,3.571-3.57V172.536z"/>
</g>
<g id="LWPOLYLINE_143_">
	<rect x="256.85" y="161.331" style="fill:#101820;" width="2.971" height="14.884"/>
</g>
<g id="LWPOLYLINE_144_">
	<rect x="256.85" y="156.367" style="fill:#101820;" width="2.971" height="2.979"/>
</g>
<g id="LWPOLYLINE_145_">
	<path style="fill:#101820;" d="M262.992,171.251c0,2.74,2.231,4.964,4.972,4.964h0.4c2.401,0,4.355-1.954,4.355-4.371
		c0-1.555-0.815-2.986-2.17-3.771l-3.294-1.917c-0.292-0.177-0.492-0.508-0.492-0.854c0-0.554,0.446-1,1-1h0.601
		c0.539,0,0.985,0.446,0.985,1h2.971c0-2.2-1.771-3.971-3.956-3.971h-0.601c-2.201,0-3.971,1.771-3.971,3.971
		c0,1.409,0.754,2.709,1.97,3.426l3.294,1.916c0.431,0.246,0.692,0.708,0.692,1.2c0,0.77-0.631,1.386-1.385,1.386h-0.4
		c-1.093,0-1.985-0.886-1.985-1.979H262.992z"/>
</g>
<g id="LWPOLYLINE_146_">
	<path style="fill:#101820;" d="M279.569,161.331h1.693v2.971h-1.693v7.25c0,0.923,0.754,1.678,1.693,1.678v2.985
		c-2.586,0-4.664-2.093-4.664-4.663v-7.25h-1.693v-2.971h1.693v-4.964h2.971V161.331z"/>
</g>
<g id="LWPOLYLINE_147_">
	<path style="fill:#101820;" d="M290.575,171.251h2.986c0,2.74-2.232,4.964-4.973,4.964c-2.739,0-4.956-2.224-4.956-4.964v-4.964
		c0-2.739,2.217-4.956,4.956-4.956c2.74,0,4.973,2.217,4.973,4.956v2.778h-6.942v2.186c0,1.093,0.878,1.979,1.97,1.979
		C289.697,173.229,290.575,172.344,290.575,171.251z"/>
</g>
<g id="LWPOLYLINE_150_">
	<path style="fill:#101820;" d="M108.825,197.041h3.863c2.802,0,5.064-2.263,5.064-5.057v-0.793c0-2.793-2.262-5.063-5.064-5.063
		h-6.85v19.848h2.986V197.041z"/>
</g>
<g id="LWPOLYLINE_151_">
	<path style="fill:#101820;" d="M119.538,201.012c0,2.74,2.216,4.964,4.956,4.964c2.74,0,4.972-2.224,4.972-4.964v-4.956
		c0-2.74-2.231-4.964-4.972-4.964c-2.74,0-4.956,2.224-4.956,4.964V201.012z"/>
</g>
<g id="LWPOLYLINE_153_">
	<path style="fill:#101820;" d="M132.236,201.012c0,2.74,2.217,4.964,4.957,4.964h0.4c2.417,0,4.372-1.955,4.372-4.363
		c0-1.555-0.831-2.994-2.17-3.771l-3.294-1.924c-0.308-0.177-0.492-0.508-0.492-0.854c0-0.547,0.446-0.993,0.985-0.993h0.6
		c0.554,0,1.001,0.446,1.001,0.993h2.971c0-2.194-1.771-3.972-3.972-3.972h-0.6c-2.186,0-3.956,1.777-3.956,3.972
		c0,1.408,0.739,2.716,1.97,3.424l3.294,1.924c0.416,0.247,0.678,0.709,0.678,1.201c0,0.77-0.616,1.385-1.386,1.385h-0.4
		c-1.093,0-1.986-0.893-1.986-1.985H132.236z"/>
</g>
<g id="LWPOLYLINE_154_">
	<rect x="145.334" y="191.092" style="fill:#101820;" width="2.971" height="14.884"/>
</g>
<g id="LWPOLYLINE_155_">
	<rect x="145.334" y="186.128" style="fill:#101820;" width="2.971" height="2.986"/>
</g>
<g id="LWPOLYLINE_156_">
	<path style="fill:#101820;" d="M155.755,191.092h1.678v2.979h-1.678v7.241c0,0.932,0.754,1.686,1.678,1.686v2.979
		c-2.571,0-4.664-2.086-4.664-4.664v-7.241h-1.678v-2.979h1.678v-4.964h2.986V191.092z"/>
</g>
<g id="LWPOLYLINE_157_">
	<rect x="160.419" y="191.092" style="fill:#101820;" width="2.971" height="14.884"/>
</g>
<g id="LWPOLYLINE_158_">
	<rect x="160.419" y="186.128" style="fill:#101820;" width="2.971" height="2.986"/>
</g>
<g id="LWPOLYLINE_159_">
	<path style="fill:#101820;" d="M166.96,201.012c0,2.74,2.217,4.964,4.956,4.964c2.74,0,4.972-2.224,4.972-4.964v-4.956
		c0-2.74-2.231-4.964-4.972-4.964c-2.739,0-4.956,2.224-4.956,4.964V201.012z"/>
</g>
<g id="LWPOLYLINE_161_">
	<path style="fill:#101820;" d="M190.372,194.763v11.213h-2.971v-10.521c0-1.093-0.893-1.985-1.985-1.985s-1.985,0.893-1.985,1.985
		v10.521h-2.971v-14.884h2.971v1.192c1.031-0.639,2.17-1.046,3.371-1.192c1.97,0,3.57,1.601,3.57,3.571V194.763z"/>
</g>
<g id="LWPOLYLINE_162_">
	<path style="fill:#101820;" d="M200.3,201.012h2.97c0,2.74-2.216,4.964-4.956,4.964c-2.739,0-4.956-2.224-4.956-4.964v-4.956
		c0-2.74,2.217-4.964,4.956-4.964c2.74,0,4.956,2.224,4.956,4.964v2.771h-6.941v2.186c0,1.093,0.893,1.985,1.985,1.985
		S200.3,202.104,200.3,201.012z"/>
</g>
<g id="LWPOLYLINE_164_">
	<path style="fill:#101820;" d="M209.828,195.655v10.32h-2.986v-14.884h2.986v0.793c1.047-0.523,2.201-0.793,3.371-0.793v3.147
		c-0.785-0.77-2.048-0.754-2.817,0.031C210.028,194.64,209.828,195.132,209.828,195.655z"/>
</g>
<g id="LWPOLYLINE_165_">
	<rect x="215.384" y="191.092" style="fill:#101820;" width="2.971" height="14.884"/>
</g>
<g id="LWPOLYLINE_166_">
	<rect x="215.384" y="186.128" style="fill:#101820;" width="2.971" height="2.986"/>
</g>
<g id="LWPOLYLINE_167_">
	<path style="fill:#101820;" d="M232.239,194.763v11.213h-2.971v-10.521c0-1.093-0.893-1.985-1.986-1.985
		c-1.093,0-1.985,0.893-1.985,1.985v10.521h-2.971v-14.884h2.971v1.192c1.031-0.639,2.171-1.046,3.371-1.192
		c1.97,0,3.571,1.601,3.571,3.571V194.763z"/>
</g>
<g id="LWPOLYLINE_168_">
	<path style="fill:#101820;" d="M242.167,205.183c-1.031,0.632-2.17,1.039-3.371,1.186c-1.971,0-3.57-1.601-3.57-3.57v-0.093v-8.165
		c0.338-1.717,1.815-2.986,3.57-3.056c1.186,0.153,2.34,0.554,3.371,1.177v-1.177h2.971v13.698c0,0.693-0.154,1.386-0.446,2.017
		c-1.108,2.378-3.94,3.409-6.326,2.294l1.262-2.693c0.894,0.415,1.955,0.03,2.37-0.862
		C242.105,205.698,242.167,205.444,242.167,205.183z"/>
</g>
<g id="LWPOLYLINE_170_">
	<path style="fill:#101820;" d="M247.923,201.012c0,2.74,2.216,4.964,4.956,4.964h0.4c2.4,0,4.355-1.955,4.355-4.363
		c0-1.555-0.815-2.994-2.154-3.771l-3.295-1.924c-0.308-0.177-0.492-0.508-0.492-0.854c0-0.547,0.446-0.993,0.985-0.993h0.601
		c0.538,0,0.984,0.446,0.984,0.993h2.986c0-2.194-1.785-3.972-3.971-3.972h-0.601c-2.186,0-3.972,1.777-3.972,3.972
		c0,1.408,0.755,2.716,1.971,3.424l3.294,1.924c0.431,0.247,0.692,0.709,0.692,1.201c0,0.77-0.615,1.385-1.385,1.385h-0.4
		c-1.093,0-1.985-0.893-1.985-1.985H247.923z"/>
</g>
<g id="LWPOLYLINE_171_">
	<path style="fill:#101820;" d="M270.934,202.305v-8.157c-0.339-1.725-1.816-2.986-3.57-3.056c-1.186,0.153-2.34,0.546-3.371,1.178
		v-1.178h-2.971v18.848h2.971v-5.156c1.031,0.639,2.17,1.046,3.371,1.192c1.97,0,3.57-1.601,3.57-3.57V202.305z"/>
</g>
<g id="LWPOLYLINE_173_">
	<path style="fill:#101820;" d="M274.105,202.305v-11.213h2.986v10.521c0,1.093,0.877,1.985,1.985,1.985
		c1.093,0,1.985-0.893,1.985-1.985v-10.521h2.971v14.884h-2.971v-1.192c-1.031,0.639-2.186,1.046-3.386,1.192
		c-1.971,0-3.571-1.601-3.571-3.57V202.305z"/>
</g>
<g id="LWPOLYLINE_174_">
	<path style="fill:#101820;" d="M297.917,194.763v11.213h-2.971v-10.521c0-1.093-0.893-1.985-1.985-1.985s-1.985,0.893-1.985,1.985
		v10.521h-2.971v-14.884h2.971v1.192c1.031-0.639,2.186-1.046,3.37-1.192c1.971,0,3.571,1.601,3.571,3.571V194.763z"/>
</g>
<g id="LWPOLYLINE_175_">
	<polygon style="fill:#101820;" points="304.473,205.976 301.488,205.976 301.488,186.128 304.473,186.128 304.473,197.095 
		308.445,191.092 311.416,191.092 308.014,196.187 311.43,205.983 308.445,205.976 306.043,199.142 304.473,201.513 	"/>
</g>
<g id="LWPOLYLINE_176_">
	<path style="fill:#101820;" d="M317.464,191.092h1.693v2.979h-1.693v7.241c0,0.932,0.755,1.686,1.693,1.686v2.979
		c-2.586,0-4.664-2.086-4.664-4.664v-7.241h-1.692v-2.979h1.692v-4.964h2.971V191.092z"/>
</g>
<g id="LWPOLYLINE_177_">
	<polygon style="fill:#101820;" points="167.854,235.736 167.854,215.896 170.824,215.896 170.824,232.766 177.782,232.766 
		177.782,235.736 	"/>
</g>
<g id="LWPOLYLINE_178_">
	<path style="fill:#101820;" d="M179.952,230.78c0,2.74,2.231,4.956,4.972,4.956c2.739,0,4.956-2.216,4.956-4.956v-4.964
		c0-2.74-2.217-4.964-4.956-4.964c-2.74,0-4.972,2.224-4.972,4.964V230.78z"/>
</g>
<g id="LWPOLYLINE_180_">
	<path style="fill:#101820;" d="M202.978,225.816c0-2.74-2.217-4.964-4.956-4.964c-2.74,0-4.972,2.224-4.972,4.964v4.964
		c0,2.74,2.231,4.956,4.972,4.956c2.739,0,4.956-2.216,4.956-4.956h-2.986c0,1.093-0.877,1.985-1.97,1.985
		c-1.108,0-1.985-0.893-1.985-1.985v-4.964c0-1.093,0.877-1.978,1.985-1.978c1.093,0,1.97,0.885,1.97,1.978H202.978z"/>
</g>
<g id="LWPOLYLINE_181_">
	<path style="fill:#101820;" d="M215.676,235.736h-2.971v-0.954c-1.2,0.646-2.539,0.978-3.909,0.954
		c-1.216,0.031-2.309-0.739-2.693-1.894c-0.493-1.523-0.077-3.186,1.046-4.316c1.447-1.555,3.433-2.502,5.557-2.663v-1.548
		c0-0.815-0.677-1.477-1.492-1.477c-0.832,0-1.493,0.661-1.493,1.477h-2.971c0-2.462,2.001-4.463,4.464-4.463
		c2.462,0,4.463,2.001,4.463,4.463V235.736z"/>
</g>
<g id="LWPOLYLINE_183_">
	<path style="fill:#101820;" d="M222.726,220.853h1.678v2.986h-1.678v7.234c0,0.938,0.754,1.692,1.678,1.692v2.971
		c-2.57,0-4.664-2.085-4.664-4.663v-7.234h-1.678v-2.986h1.678v-4.957h2.986V220.853z"/>
</g>
<g id="LWPOLYLINE_184_">
	<rect x="227.375" y="220.853" style="fill:#101820;" width="2.986" height="14.884"/>
</g>
<g id="LWPOLYLINE_185_">
	<rect x="227.375" y="215.896" style="fill:#101820;" width="2.986" height="2.979"/>
</g>
<g id="LWPOLYLINE_186_">
	<path style="fill:#101820;" d="M233.932,230.78c0,2.74,2.216,4.956,4.956,4.956c2.739,0,4.956-2.216,4.956-4.956v-4.964
		c0-2.74-2.217-4.964-4.956-4.964c-2.74,0-4.956,2.224-4.956,4.964V230.78z"/>
</g>
<g id="LWPOLYLINE_188_">
	<path style="fill:#101820;" d="M257.343,224.531v11.205h-2.971v-10.513c0-1.093-0.894-1.985-1.985-1.985
		c-1.094,0-1.986,0.893-1.986,1.985v10.513h-2.971v-14.884h2.971v1.192c1.016-0.639,2.171-1.038,3.371-1.192
		c1.971,0,3.571,1.601,3.571,3.57V224.531z"/>
</g>
<g id="LWPOLYLINE_69_">
	<path style="fill:#FFCD00;" d="M161.851,116.017V97.5c0-5.11-4.141-9.258-9.266-9.258c-5.11,0-9.251,4.148-9.251,9.258v18.517
		c0,5.118,4.141,9.266,9.251,9.266C157.71,125.283,161.851,121.135,161.851,116.017z"/>
</g>
<g id="LWPOLYLINE_83_">
	<path style="fill:#FFCD00;" d="M206.195,274.94c-1.478,0.361-2.862,1.069-4.032,2.063c-1.047,0.924-1.632,2.247-1.616,3.633
		c0.015,0.907,0.77,1.623,1.678,1.601c0.077,0,0.139-0.008,0.215-0.016c1.324-0.216,2.586-0.646,3.756-1.277V274.94z"/>
</g>
<g id="LWPOLYLINE_92_">
	<path style="fill:#FFCD00;" d="M125.31,317.091h5.803c1.724,0,3.125-1.393,3.125-3.124v-1.192c0-1.725-1.4-3.125-3.125-3.125
		h-5.803V317.091z"/>
</g>
<g id="LWPOLYLINE_95_">
	<path style="fill:#FFCD00;" d="M151.199,324.549c-1.493,0.354-2.878,1.062-4.033,2.063c-1.047,0.916-1.632,2.247-1.616,3.633
		c0.015,0.908,0.77,1.616,1.662,1.601c0.077,0,0.154-0.016,0.231-0.023c1.309-0.207,2.586-0.639,3.756-1.27V324.549z"/>
</g>
<g id="LWPOLYLINE_100_">
	<path style="fill:#FFCD00;" d="M199.422,324.549c-1.493,0.354-2.878,1.062-4.048,2.063c-1.031,0.916-1.632,2.247-1.616,3.633
		c0.031,0.908,0.77,1.616,1.678,1.601c0.077,0,0.154-0.016,0.216-0.023c1.323-0.207,2.585-0.639,3.771-1.27V324.549z"/>
</g>
<g id="LWPOLYLINE_111_">
	<path style="fill:#FFCD00;" d="M165.667,369.679c0,1.093,0.893,1.985,1.986,1.985c1.093,0,1.986-0.893,1.986-1.985v-4.964
		c0-1.093-0.893-1.979-1.986-1.979c-1.093,0-1.986,0.886-1.986,1.979V369.679z"/>
</g>
<g id="LWPOLYLINE_113_">
	<path style="fill:#FFCD00;" d="M178.766,369.679c0,1.093,0.893,1.985,1.986,1.985c1.092,0,1.985-0.893,1.985-1.985v-4.964
		c0-1.093-0.894-1.979-1.985-1.979c-1.094,0-1.986,0.886-1.986,1.979V369.679z"/>
</g>
<g id="LWPOLYLINE_116_">
	<path style="fill:#FFCD00;" d="M204.164,364.122v6.148c0,1.102-0.894,1.986-1.985,1.986c-1.094,0-1.986-0.885-1.986-1.986v-6.148
		c0-1.093,0.893-1.986,1.986-1.986C203.27,362.136,204.164,363.029,204.164,364.122z"/>
</g>
<g id="LWPOLYLINE_121_">
	<path style="fill:#FFCD00;" d="M237.703,367.7c-1.001,0.239-1.924,0.716-2.693,1.378c-0.692,0.608-1.093,1.493-1.077,2.417
		c0.015,0.6,0.508,1.085,1.123,1.069c0.046,0,0.092-0.008,0.139-0.016c0.877-0.138,1.724-0.423,2.509-0.854V367.7z"/>
</g>
<g id="LWPOLYLINE_123_">
	<path style="fill:#FFCD00;" d="M250.401,367.7c-1,0.239-1.908,0.716-2.693,1.378c-0.692,0.608-1.093,1.493-1.077,2.417
		c0.015,0.6,0.508,1.085,1.123,1.069c0.046,0,0.093-0.008,0.139-0.016c0.878-0.138,1.724-0.423,2.509-0.854V367.7z"/>
</g>
<g id="LWPOLYLINE_128_">
	<path style="fill:#FFCD00;" d="M134.622,164.302h3.864c1.154,0,2.078-0.932,2.078-2.078v-0.8c0-1.147-0.923-2.078-2.078-2.078
		h-3.864V164.302z"/>
</g>
<g id="LWPOLYLINE_131_">
	<path style="fill:#FFCD00;" d="M151.876,169.273c-0.985,0.246-1.909,0.708-2.678,1.378c-0.708,0.607-1.093,1.5-1.093,2.424
		c0.015,0.601,0.523,1.077,1.124,1.063c0.046,0,0.092,0,0.154-0.016c0.877-0.139,1.724-0.432,2.494-0.847V169.273z"/>
</g>
<g id="LWPOLYLINE_136_">
	<path style="fill:#FFCD00;" d="M184.031,169.273c-1.001,0.246-1.925,0.708-2.694,1.378c-0.692,0.607-1.093,1.5-1.077,2.424
		c0.016,0.601,0.508,1.077,1.108,1.063c0.062,0,0.107,0,0.154-0.016c0.877-0.139,1.724-0.432,2.509-0.847V169.273z"/>
</g>
<g id="LWPOLYLINE_142_">
	<path style="fill:#FFCD00;" d="M246.337,171.844v-6.149c0-1.1,0.878-1.985,1.985-1.985c1.094,0,1.971,0.886,1.971,1.985v6.149
		c0,1.093-0.877,1.985-1.971,1.985C247.215,173.829,246.337,172.937,246.337,171.844z"/>
</g>
<g id="LWPOLYLINE_148_">
	<path style="fill:#FFCD00;" d="M286.619,166.487h3.956v-0.2c0-1.093-0.878-1.985-1.986-1.985c-1.092,0-1.97,0.893-1.97,1.985
		V166.487z"/>
</g>
<g id="LWPOLYLINE_149_">
	<path style="fill:#FFCD00;" d="M108.825,194.07h3.863c1.154,0,2.093-0.939,2.093-2.086v-0.793c0-1.154-0.939-2.077-2.093-2.077
		h-3.863V194.07z"/>
</g>
<g id="LWPOLYLINE_152_">
	<path style="fill:#FFCD00;" d="M122.508,201.012c0,1.093,0.893,1.985,1.985,1.985s1.986-0.893,1.986-1.985v-4.956
		c0-1.093-0.893-1.985-1.986-1.985s-1.985,0.893-1.985,1.985V201.012z"/>
</g>
<g id="LWPOLYLINE_160_">
	<path style="fill:#FFCD00;" d="M169.931,201.012c0,1.093,0.893,1.985,1.985,1.985c1.108,0,1.986-0.893,1.986-1.985v-4.956
		c0-1.093-0.878-1.985-1.986-1.985c-1.093,0-1.985,0.893-1.985,1.985V201.012z"/>
</g>
<g id="LWPOLYLINE_163_">
	<path style="fill:#FFCD00;" d="M196.329,196.256h3.972v-0.2c0-1.093-0.894-1.985-1.986-1.985s-1.985,0.893-1.985,1.985V196.256z"/>
</g>
<g id="LWPOLYLINE_169_">
	<path style="fill:#FFCD00;" d="M238.196,202.005c0,1.101,0.893,1.985,1.984,1.985c1.094,0,1.986-0.885,1.986-1.985v-6.149
		c0-1.093-0.893-1.985-1.986-1.985c-1.092,0-1.984,0.893-1.984,1.985V202.005z"/>
</g>
<g id="LWPOLYLINE_172_">
	<path style="fill:#FFCD00;" d="M263.993,201.612v-6.157c0-1.093,0.893-1.985,1.985-1.985s1.985,0.893,1.985,1.985v6.157
		c0,1.093-0.893,1.985-1.985,1.985S263.993,202.705,263.993,201.612z"/>
</g>
<g id="LWPOLYLINE_179_">
	<path style="fill:#FFCD00;" d="M182.938,230.78c0,1.093,0.893,1.985,1.985,1.985s1.985-0.893,1.985-1.985v-4.964
		c0-1.093-0.893-1.978-1.985-1.978s-1.985,0.885-1.985,1.978V230.78z"/>
</g>
<g id="LWPOLYLINE_182_">
	<path style="fill:#FFCD00;" d="M212.706,228.802c-1,0.239-1.924,0.717-2.693,1.378c-0.692,0.608-1.093,1.493-1.077,2.417
		c0.015,0.6,0.508,1.085,1.108,1.069c0.046,0,0.107-0.008,0.153-0.015c0.878-0.139,1.724-0.424,2.509-0.854V228.802z"/>
</g>
<g id="LWPOLYLINE_187_">
	<path style="fill:#FFCD00;" d="M236.903,230.78c0,1.093,0.893,1.985,1.985,1.985s1.985-0.893,1.985-1.985v-4.964
		c0-1.093-0.893-1.978-1.985-1.978s-1.985,0.885-1.985,1.978V230.78z"/>
</g>
</svg>
