<?xml version="1.0" encoding="UTF-8" standalone="no"?>
<svg
   xmlns:dc="http://purl.org/dc/elements/1.1/"
   xmlns:cc="http://creativecommons.org/ns#"
   xmlns:rdf="http://www.w3.org/1999/02/22-rdf-syntax-ns#"
   xmlns:svg="http://www.w3.org/2000/svg"
   xmlns="http://www.w3.org/2000/svg"
   xmlns:sodipodi="http://sodipodi.sourceforge.net/DTD/sodipodi-0.dtd"
   xmlns:inkscape="http://www.inkscape.org/namespaces/inkscape"
   inkscape:version="1.0 (4035a4fb49, 2020-05-01)"
   sodipodi:docname="I17.2_Poronhoitoalue.svg"
   xml:space="preserve"
   viewBox="0 0 396.85301 313.06701"
   height="313.06702"
   width="396.853"
   y="0px"
   x="0px"
   id="Layer_1"
   version="1.1"><metadata
   id="metadata31"><rdf:RDF><cc:Work
       rdf:about=""><dc:format>image/svg+xml</dc:format><dc:type
         rdf:resource="http://purl.org/dc/dcmitype/StillImage" /><dc:title></dc:title></cc:Work></rdf:RDF></metadata><defs
   id="defs29" /><sodipodi:namedview
   inkscape:current-layer="Layer_1"
   inkscape:window-maximized="1"
   inkscape:window-y="73"
   inkscape:window-x="-8"
   inkscape:cy="156.53301"
   inkscape:cx="198.4265"
   inkscape:zoom="1.999078"
   showgrid="false"
   id="namedview27"
   inkscape:window-height="1017"
   inkscape:window-width="1920"
   inkscape:pageshadow="2"
   inkscape:pageopacity="0"
   guidetolerance="10"
   gridtolerance="10"
   objecttolerance="10"
   borderopacity="1"
   bordercolor="#666666"
   pagecolor="#ffffff" />
<g
   transform="translate(-14.172,-56.064999)"
   id="LWPOLYLINE_73_">
	<rect
   id="rect2"
   height="313.06699"
   width="396.853"
   style="fill:#ffcd00"
   y="56.064999"
   x="14.172" />
</g>
<g
   transform="translate(-14.172,-56.064999)"
   id="LWPOLYLINE_75_">
	<path
   id="path5"
   d="M 411.025,360.315 V 64.883 c 0,-4.87 -3.948,-8.818 -8.819,-8.818 H 22.992 c -4.867,0 -8.819,3.948 -8.819,8.818 v 295.433 c 0,4.867 3.952,8.816 8.819,8.816 h 379.214 c 4.871,0 8.819,-3.949 8.819,-8.817 z"
   style="fill:#e4002b" />
</g>
<g
   transform="translate(-14.172,-56.064999)"
   id="LWPOLYLINE_74_">
	<path
   id="path8"
   d="M 406.615,360.315 V 64.883 c 0,-2.436 -1.978,-4.41 -4.409,-4.41 H 22.992 c -2.436,0 -4.409,1.974 -4.409,4.41 v 295.433 c 0,2.436 1.974,4.406 4.409,4.406 h 379.214 c 2.431,0 4.409,-1.971 4.409,-4.407 z"
   style="fill:#ffcd00" />
</g>
<g
   transform="translate(-14.172,-56.064999)"
   id="LWPOLYLINE_82_">
	<path
   id="path11"
   d="M 280.178,135.328 190.905,289.94 c -1.578,2.742 -0.639,6.248 2.101,7.83 0.87,0.504 1.862,0.766 2.863,0.766 h 178.539 c 3.163,0 5.733,-2.563 5.733,-5.73 0,-1.004 -0.27,-1.992 -0.77,-2.865 L 290.105,135.328 c -1.586,-2.744 -5.095,-3.683 -7.835,-2.101 -0.868,0.504 -1.592,1.227 -2.092,2.101 z"
   style="fill:#e4002b" />
</g>
<g
   transform="translate(-14.172,-56.064999)"
   id="LWPOLYLINE_83_">
	<polygon
   id="polygon14"
   points="359.2,284.028 285.142,155.753 211.076,284.028 "
   style="fill:#ffcd00" />
</g>
<g
   transform="translate(-14.172,-56.064999)"
   id="LWPOLYLINE_76_">
	<polygon
   id="polygon17"
   points="127.258,84.159 129.814,90.072 129.56,91.199 129.421,92.465 127.767,94.905 125.766,101.808 125.766,106.664 123.072,116.352 124.426,125.348 131.815,128.109 139.226,139.892 129.814,160.647 141.919,184.851 141.919,191.754 139.888,193.14 137.864,203.538 139.888,204.942 140.557,207.681 137.864,209.774 139.888,216.679 142.605,216.679 144.606,220.8 142.605,221.534 133.362,226.472 124.527,222.515 123.496,218.095 109.473,214.981 107.788,216.278 105.064,212.772 102.462,211.606 98.629,212.796 96.113,209.341 94.543,206.358 91.403,205.415 90.002,206.415 88.848,207.116 90.095,198.681 87.424,195.21 83.376,193.852 80.683,189.685 77.304,189.685 72.61,172.384 76.658,162.025 73.249,150.247 75.303,148.172 74.98,145.001 72.402,143.501 73.941,132.25 70.585,122.587 60.458,115.684 50.399,103.212 47.713,99.761 48.352,98.356 52.408,99.761 51.738,95.595 54.432,93.523 58.48,94.905 63.867,108.711 71.271,112.232 77.989,108.043 88.763,114.97 91.434,108.711 96.167,103.212 98.815,84.503 106.249,78.314 109.612,78.982 116.331,74.839 117.639,74.77 118.239,74.77 118.401,74.955 120.378,79.672 "
   style="fill:#101820" />
</g>
<g
   transform="translate(-14.172,-56.064999)"
   id="LWPOLYLINE_84_">
	<path
   id="path20"
   d="m 333.134,269.606 c -0.454,0.031 -0.901,-0.025 -1.324,-0.168 l -0.377,-0.123 c -0.631,-0.209 -1.186,-0.59 -1.601,-1.102 l -0.362,-0.441 c -0.454,-0.551 -0.815,-1.162 -1.085,-1.82 l -2.939,-7.297 c -0.146,-0.361 -0.323,-0.715 -0.531,-1.047 l -0.23,-0.385 c -0.131,-0.207 -0.316,-0.377 -0.531,-0.496 l -0.893,-0.477 c -0.585,-0.316 -1.224,-0.52 -1.878,-0.611 l -3.333,-0.463 c -0.562,-0.076 -1.115,-0.223 -1.639,-0.43 l -2.078,-0.832 c -0.692,-0.277 -1.416,-0.496 -2.14,-0.658 l -0.569,-0.127 c -0.185,-0.039 -0.377,0.076 -0.416,0.266 -0.007,0.023 -0.007,0.043 -0.007,0.064 l -0.085,2.578 c -0.023,0.785 0.123,1.57 0.423,2.303 l 0.939,2.293 c 0.177,0.428 0.054,0.92 -0.3,1.211 l -1.225,1.002 c -1.484,1.219 -2.87,2.559 -4.132,4.002 l -0.886,1.008 c -0.338,0.381 -0.631,0.805 -0.877,1.25 l -0.185,0.35 c -0.046,0.082 -0.085,0.166 -0.108,0.252 l -0.354,1.115 c -0.039,0.135 -0.062,0.273 -0.062,0.412 v 0.295 c 0,0.113 -0.054,0.221 -0.131,0.301 -0.169,0.158 -0.438,0.154 -0.593,-0.016 -0.054,-0.053 -0.146,-0.057 -0.2,-0.008 -0.016,0.016 -0.022,0.027 -0.03,0.039 l -0.239,0.477 c -0.169,0.34 -0.469,0.594 -0.839,0.709 -0.777,0.234 -1.585,0.334 -2.393,0.291 l -1.493,-0.076 c -0.108,0 -0.192,-0.084 -0.2,-0.191 l -0.008,-0.197 c -0.008,-0.064 -0.039,-0.119 -0.085,-0.158 l -0.185,-0.131 c -0.023,-0.02 -0.046,-0.045 -0.069,-0.068 -0.085,-0.131 -0.054,-0.301 0.077,-0.389 l 0.3,-0.205 c 0.262,-0.176 0.539,-0.33 0.831,-0.457 l 1.471,-0.627 c 0.554,-0.238 1.054,-0.574 1.484,-0.988 l 0.678,-0.658 c 1.016,-0.994 1.963,-2.059 2.816,-3.191 l 1.14,-1.504 c 0.484,-0.635 0.908,-1.316 1.277,-2.023 0.47,-0.932 0.5,-2.018 0.085,-2.971 l -2.794,-6.434 c -0.169,-0.389 -0.554,-0.639 -0.978,-0.627 l -0.97,0.018 c -0.962,0.02 -1.916,0.139 -2.855,0.355 l -7.172,1.654 c -1.547,0.354 -3.125,0.535 -4.71,0.535 h -0.354 c -0.1,0 -0.2,0.041 -0.262,0.119 l -0.262,0.291 c -1,1.148 -2.039,2.256 -3.116,3.334 l -1.394,1.389 c -0.554,0.551 -1.146,1.055 -1.785,1.504 l -0.431,0.309 c -0.063,0.041 -0.077,0.131 -0.031,0.191 0.016,0.02 0.031,0.035 0.054,0.047 l 2.755,1.385 c 0.585,0.293 1.209,0.504 1.848,0.623 l 0.831,0.158 c 0.677,0.127 1.378,0.051 2.009,-0.219 l 0.938,-0.4 c 0.062,-0.023 0.123,-0.039 0.192,-0.039 0.27,0 0.493,0.221 0.493,0.492 v 0.348 l 0.315,-0.23 c 0.115,-0.086 0.262,-0.131 0.407,-0.131 h 0.9 c 0.393,0 0.793,0.068 1.162,0.199 l 0.939,0.33 c 0.146,0.055 0.3,0.102 0.446,0.143 0.023,0.008 0.038,0.02 0.054,0.031 0.062,0.051 0.062,0.143 0.016,0.197 l -0.539,0.592 c -0.238,0.27 -0.516,0.492 -0.823,0.678 l -0.67,0.393 c -0.323,0.188 -0.685,0.287 -1.062,0.287 h -0.646 c -0.339,0 -0.678,-0.049 -1.009,-0.148 l -3.524,-1.055 c -1.801,-0.539 -3.625,-1.008 -5.464,-1.4 l -0.823,-0.178 c -0.239,-0.051 -0.47,-0.146 -0.678,-0.277 l -0.331,-0.207 c -0.1,-0.063 -0.2,-0.139 -0.292,-0.217 -0.854,-0.777 -0.924,-2.104 -0.146,-2.963 l 1.108,-1.23 c 0.708,-0.785 1.354,-1.623 1.939,-2.506 l 0.538,-0.818 c 0.108,-0.162 0.062,-0.377 -0.1,-0.486 -0.062,-0.037 -0.123,-0.053 -0.192,-0.053 h -0.716 c -0.123,0 -0.238,0.064 -0.3,0.174 l -0.4,0.695 c -0.339,0.586 -0.762,1.123 -1.255,1.59 l -0.123,0.119 c -1.123,1.07 -2.324,2.059 -3.578,2.967 l -0.462,0.334 c -0.862,0.623 -1.678,1.309 -2.432,2.055 l -4.033,3.965 c -0.4,0.396 -0.754,0.838 -1.047,1.314 l -0.962,1.566 c -0.123,0.193 -0.192,0.412 -0.208,0.635 l -0.061,0.805 c 0,0.027 -0.008,0.051 -0.016,0.078 -0.055,0.184 -0.246,0.287 -0.432,0.23 -0.115,-0.035 -0.215,-0.096 -0.3,-0.182 l -0.208,-0.219 c -0.03,-0.027 -0.076,-0.027 -0.1,-0.004 -0.016,0.016 -0.377,0.631 -0.377,0.631 -0.108,0.178 -0.285,0.293 -0.485,0.33 l -0.777,0.139 c -0.5,0.09 -1,0.123 -1.508,0.102 l -2.278,-0.09 c -0.039,-0.004 -0.069,-0.02 -0.093,-0.045 l -0.354,-0.381 c -0.023,-0.031 -0.062,-0.047 -0.101,-0.047 h -0.33 c -0.047,0 -0.077,-0.023 -0.101,-0.063 -0.022,-0.053 0,-0.115 0.054,-0.137 l 3.956,-1.813 c 1,-0.459 1.878,-1.148 2.563,-2.01 l 0.523,-0.658 c 0.385,-0.48 0.785,-0.945 1.208,-1.393 l 0.047,-0.051 c 0.338,-0.373 0.639,-0.783 0.893,-1.223 l 1.178,-2.043 c 0.23,-0.404 0.522,-0.766 0.877,-1.07 l 0.477,-0.42 c 0.539,-0.469 1.039,-0.98 1.501,-1.527 l 3.671,-4.363 c 0.162,-0.193 0.254,-0.432 0.246,-0.686 v -0.16 c 0,-0.244 -0.123,-0.463 -0.33,-0.594 l -0.285,-0.178 c -0.223,-0.133 -0.477,-0.207 -0.738,-0.207 h -0.331 c -0.378,0 -0.739,-0.15 -1.001,-0.424 -0.139,-0.143 -0.3,-0.27 -0.477,-0.365 -0.362,-0.203 -0.654,-0.508 -0.847,-0.877 l -0.016,-0.027 c -0.115,-0.23 -0.224,-0.469 -0.315,-0.707 -0.023,-0.082 -0.085,-0.146 -0.154,-0.186 l -0.169,-0.053 c -0.224,-0.07 -0.369,-0.27 -0.369,-0.502 v -0.457 c 0,-0.088 -0.039,-0.178 -0.101,-0.242 l -0.277,-0.289 c -0.076,-0.08 -0.115,-0.191 -0.092,-0.305 l 0.123,-0.699 c 0.023,-0.131 -0.031,-0.262 -0.139,-0.338 l -0.192,-0.146 c -0.169,-0.119 -0.246,-0.328 -0.208,-0.527 l 0.115,-0.543 c 0.023,-0.119 -0.015,-0.246 -0.107,-0.328 l -0.139,-0.127 c -0.076,-0.068 -0.115,-0.16 -0.115,-0.26 v -0.439 c 0,-0.096 -0.046,-0.193 -0.115,-0.254 -0.17,-0.158 -0.246,-0.385 -0.216,-0.607 0.093,-0.682 -0.022,-1.379 -0.323,-1.994 l -0.639,-1.305 c -0.23,-0.48 -0.724,-0.785 -1.254,-0.785 h -2.271 c -0.362,0 -0.716,-0.027 -1.063,-0.08 -0.724,-0.111 -1.462,-0.107 -2.178,0.008 l -0.938,0.154 c -0.377,0.061 -0.755,0.088 -1.14,0.088 l -0.262,-0.004 c -0.2,0 -0.385,-0.084 -0.516,-0.23 l -0.323,-0.361 c -0.03,-0.031 -0.069,-0.047 -0.107,-0.047 l -0.893,-0.008 c -0.146,0 -0.277,-0.055 -0.385,-0.154 -0.555,-0.531 -0.7,-1.361 -0.354,-2.047 l 0.185,-0.361 c 0.131,-0.266 0.323,-0.496 0.547,-0.686 0.985,-0.801 2.078,-1.463 3.24,-1.971 l 2.17,-0.941 c 0.323,-0.143 0.623,-0.332 0.885,-0.563 l 1.209,-1.039 c 0.254,-0.227 0.53,-0.434 0.823,-0.619 l 1.047,-0.658 c 0.2,-0.131 0.438,-0.203 0.685,-0.215 l -1.239,0.057 c -0.346,0.016 -0.692,0.082 -1.031,0.201 l -1.454,0.527 c -0.309,0.111 -0.631,0.164 -0.955,0.164 h -0.576 c -0.193,0 -0.347,-0.152 -0.347,-0.346 v -0.139 c 0,-0.143 0.054,-0.277 0.146,-0.385 l 0.677,-0.73 -0.169,-0.455 c -0.093,-0.254 0,-0.545 0.223,-0.699 0.231,-0.158 0.508,-0.242 0.785,-0.242 l 0.993,-0.004 c 0.246,0 0.484,0.037 0.716,0.123 l 0.315,0.107 -0.062,-0.027 c -0.293,-0.139 -0.563,-0.326 -0.793,-0.559 l -0.146,-0.148 c -0.015,-0.016 -0.03,-0.035 -0.038,-0.051 -0.192,-0.246 -0.146,-0.592 0.1,-0.785 0.2,-0.162 0.478,-0.193 0.716,-0.084 l 1.247,0.568 c 0.277,0.123 0.569,0.193 0.869,0.193 h 0.285 c 0.347,0 0.67,-0.178 0.869,-0.467 l 0.454,-0.68 c 0.239,-0.348 0.362,-0.762 0.362,-1.178 v -0.301 c -0.008,-0.154 -0.047,-0.309 -0.131,-0.439 -0.354,-0.576 -0.862,-1.037 -1.478,-1.326 -0.739,-0.354 -1.463,-0.75 -2.155,-1.189 l -1.309,-0.82 c -0.254,-0.156 -0.446,-0.396 -0.554,-0.68 -0.016,-0.043 -0.03,-0.086 -0.03,-0.131 -0.008,-0.236 0.169,-0.432 0.399,-0.439 0.277,-0.008 0.547,0.063 0.777,0.199 l 1.985,1.193 c 0.432,0.254 0.886,0.467 1.355,0.627 0.185,0.063 0.385,-0.033 0.445,-0.219 0.023,-0.08 0.023,-0.17 -0.007,-0.25 l -0.569,-1.328 c -1.263,-2.947 -3.51,-5.371 -6.35,-6.867 l -1.108,-0.586 c -0.223,-0.119 -0.415,-0.293 -0.546,-0.508 l -0.085,-0.143 c -0.038,-0.057 -0.054,-0.123 -0.054,-0.184 0,-0.193 0.161,-0.352 0.354,-0.352 l 0.662,0.004 c 0.654,0 1.309,0.162 1.894,0.463 l 0.861,0.438 c 0.101,0.055 0.231,0.012 0.285,-0.092 0.016,-0.031 0.022,-0.063 0.022,-0.092 0,-0.355 -0.084,-0.701 -0.254,-1.012 l -0.6,-1.109 c -0.254,-0.473 -0.616,-0.881 -1.055,-1.197 l -0.646,-0.453 c -0.246,-0.178 -0.47,-0.377 -0.662,-0.607 l -0.276,-0.336 c -0.047,-0.053 -0.077,-0.119 -0.077,-0.191 -0.023,-0.193 0.115,-0.361 0.308,-0.381 0.331,-0.031 0.662,0.053 0.932,0.246 1.631,1.135 2.847,2.777 3.455,4.672 l 0.354,1.08 c 0.161,0.504 0.385,0.992 0.654,1.451 l 0.354,0.584 c 0.2,0.332 0.631,0.439 0.962,0.244 0.123,-0.082 0.231,-0.197 0.285,-0.336 l 0.762,-1.877 c 0.115,-0.277 0.246,-0.555 0.4,-0.816 0.069,-0.131 0.207,-0.211 0.361,-0.211 0.23,0 0.423,0.188 0.423,0.418 v 0.352 c 0,0.434 -0.107,0.865 -0.3,1.25 l -1.101,2.205 c -0.254,0.512 -0.246,1.111 0.031,1.615 l 0.107,0.236 c 0.608,1.23 1.139,2.5 1.601,3.793 0.139,0.408 0.246,0.832 0.315,1.254 0.031,0.232 0.246,0.385 0.478,0.355 0.107,-0.02 0.208,-0.078 0.27,-0.17 l 3.37,-4.582 c 0.093,-0.121 0.231,-0.182 0.385,-0.17 0.224,0.023 0.393,0.227 0.37,0.457 l -0.046,0.486 c -0.031,0.338 -0.146,0.664 -0.339,0.953 l -0.816,1.225 c -0.315,0.477 -0.685,0.908 -1.101,1.293 l -0.276,0.246 c -0.377,0.346 -0.7,0.742 -0.97,1.178 l -2.532,4.063 c -0.062,0.1 -0.03,0.23 0.069,0.293 0.031,0.016 0.062,0.027 0.092,0.031 0.601,0.053 1.209,-0.02 1.778,-0.221 l 2.655,-0.932 c 0.423,-0.145 0.815,-0.357 1.162,-0.627 l 0.585,-0.445 c 0.161,-0.123 0.3,-0.281 0.393,-0.463 l 0.153,-0.291 c 0.123,-0.242 0.101,-0.539 -0.069,-0.756 l -0.399,-0.508 c -0.101,-0.123 -0.239,-0.207 -0.385,-0.246 l -0.085,-0.02 c -0.131,-0.029 -0.254,-0.08 -0.37,-0.148 l -0.707,-0.408 c -0.031,-0.02 -0.055,-0.047 -0.077,-0.074 -0.093,-0.123 -0.069,-0.295 0.054,-0.393 0.238,-0.188 0.539,-0.287 0.847,-0.287 h 0.254 c 0.246,0 0.492,0.068 0.708,0.195 l 1.108,0.658 c 0.223,0.131 0.477,0.199 0.73,0.193 l 0.493,-0.008 c 0.523,-0.008 1,-0.313 1.231,-0.785 0.369,-0.758 0.562,-1.586 0.562,-2.432 l 0.008,-0.344 c 0,-0.635 -0.246,-1.246 -0.686,-1.705 l -0.639,-0.66 c -0.2,-0.209 -0.438,-0.371 -0.7,-0.479 l -0.554,-0.234 c -0.446,-0.184 -0.831,-0.48 -1.124,-0.857 -0.046,-0.055 -0.069,-0.115 -0.085,-0.178 -0.046,-0.23 0.108,-0.449 0.331,-0.492 0.585,-0.115 1.193,0.023 1.67,0.385 l 0.632,0.473 c 0.199,0.15 0.484,0.111 0.631,-0.088 0.054,-0.07 0.084,-0.154 0.092,-0.246 0.023,-0.281 -0.046,-0.563 -0.192,-0.809 l -0.254,-0.432 c -0.131,-0.219 -0.269,-0.43 -0.423,-0.635 l -0.547,-0.727 c -0.808,-1.074 -1.77,-2.027 -2.848,-2.828 l -2.632,-1.951 c -0.238,-0.174 -0.431,-0.393 -0.577,-0.646 l -0.062,-0.115 c -0.03,-0.055 -0.046,-0.111 -0.046,-0.174 0,-0.191 0.154,-0.35 0.347,-0.35 h 0.431 c 0.246,0 0.484,0.066 0.7,0.186 l 1.37,0.787 c 0.161,0.098 0.377,0.039 0.477,-0.127 0.047,-0.08 0.055,-0.176 0.031,-0.26 l -0.185,-0.725 c -0.093,-0.27 0.008,-0.563 0.238,-0.723 0.285,-0.193 0.678,-0.123 0.878,0.16 0.238,0.355 0.369,0.773 0.369,1.201 l -0.008,0.832 c 0,0.408 0.115,0.801 0.331,1.139 l 0.354,0.551 c 0.385,0.611 0.816,1.188 1.293,1.727 l 1.023,1.162 c 0.139,0.154 0.378,0.186 0.547,0.07 0.223,-0.154 0.4,-0.365 0.508,-0.613 l 0.208,-0.504 c 0.153,-0.354 0.246,-0.738 0.277,-1.123 l 0.153,-2.209 c 0.008,-0.092 0.046,-0.176 0.115,-0.238 0.146,-0.123 0.37,-0.107 0.493,0.035 l 0.354,0.404 c 0.054,0.061 0.085,0.143 0.085,0.227 l 0.008,0.742 c 0,0.354 -0.023,0.709 -0.077,1.055 l -0.154,1.063 c -0.046,0.287 -0.146,0.564 -0.3,0.814 l -0.23,0.363 c -0.069,0.107 -0.131,0.23 -0.178,0.354 l -0.593,1.516 c -0.107,0.262 -0.153,0.547 -0.146,0.828 l 0.038,1.305 c 0.008,0.148 0.023,0.295 0.054,0.441 l 0.154,0.697 c 0.03,0.139 0.046,0.277 0.054,0.418 l 0.062,1.498 c 0.016,0.396 -0.038,0.789 -0.153,1.166 l -0.331,1.088 c -0.139,0.459 -0.378,0.887 -0.686,1.248 l -1.339,1.566 c -0.107,0.123 -0.162,0.279 -0.169,0.441 0,0.193 0.153,0.354 0.346,0.354 0.062,0 0.123,-0.012 0.178,-0.041 l 2.085,-1.154 c 0.154,-0.09 0.293,-0.201 0.4,-0.336 l 0.054,-0.064 c 0.185,-0.221 0.393,-0.42 0.616,-0.59 l 0.577,-0.43 c 0.254,-0.186 0.554,-0.281 0.869,-0.277 0.039,0.004 0.085,0.016 0.123,0.031 0.131,0.072 0.185,0.242 0.116,0.377 l -0.347,0.684 c -0.077,0.154 -0.185,0.293 -0.315,0.408 l -1.563,1.385 c -0.285,0.254 -0.608,0.455 -0.962,0.605 l -1.047,0.441 c -0.3,0.127 -0.615,0.213 -0.938,0.25 l -1.632,0.197 c -0.478,0.061 -0.946,0.17 -1.408,0.322 l -4.648,1.582 c -0.107,0.039 -0.169,0.158 -0.131,0.266 0.016,0.055 0.062,0.1 0.107,0.123 l 0.954,0.439 c 0.139,0.061 0.293,0.076 0.439,0.045 l 1.531,-0.334 c 0.23,-0.051 0.47,-0.043 0.692,0.027 0.046,0.012 0.085,0.033 0.115,0.068 0.116,0.107 0.116,0.285 0.008,0.393 l -1.016,1.047 c -0.077,0.084 -0.077,0.215 0.008,0.301 0.016,0.016 0.038,0.029 0.062,0.037 l 0.523,0.232 c 1.246,0.545 2.463,1.17 3.64,1.861 l 2.263,1.332 c 0.862,0.508 1.84,0.773 2.84,0.773 h 1.239 c 0.569,0 1.139,-0.035 1.709,-0.104 l 1.5,-0.186 c 0.886,-0.107 1.778,-0.131 2.663,-0.072 l 3.602,0.25 c 0.885,0.061 1.778,0.033 2.655,-0.074 l 10.336,-1.262 c 0.861,-0.104 1.731,-0.182 2.601,-0.219 l 2.31,-0.107 c 0.484,-0.023 0.978,0.037 1.446,0.184 l 6.488,2.023 c 0.885,0.277 1.577,0.975 1.847,1.863 l 0.361,1.189 c 0.023,0.096 0,0.199 -0.069,0.273 -0.107,0.111 -0.284,0.115 -0.393,0.012 l -0.308,-0.293 c -0.361,-0.342 -0.8,-0.604 -1.27,-0.766 -0.177,-0.063 -0.339,-0.162 -0.478,-0.285 l -0.3,-0.266 0.161,0.266 c 0.101,0.174 0.162,0.365 0.186,0.566 l 0.146,1.457 c 0.124,1.182 0.185,2.371 0.185,3.557 v 2.67 c 0,1.943 1.231,3.672 3.079,4.299 l 3.532,1.207 c 0.531,0.182 0.9,0.65 0.946,1.205 l 0.254,3.006 c 0.055,0.627 0.192,1.25 0.416,1.842 l 1.108,2.986 c 0.139,0.369 0.346,0.701 0.623,0.982 l 0.716,0.727 c 0.177,0.186 0.4,0.316 0.654,0.377 l 0.562,0.143 c 0.208,0.055 0.4,0.154 0.563,0.297 0.068,0.053 0.107,0.139 0.123,0.223 0.015,0.193 -0.123,0.365 -0.316,0.385 l -0.484,0.059 c -0.139,0.01 -0.23,0.135 -0.216,0.268 0.008,0.082 0.054,0.154 0.131,0.193 l 0.755,0.381 c 0.415,0.207 0.73,0.578 0.877,1.023 l 0.531,1.635 c 0,0.02 0.008,0.035 0.008,0.051 0.019,0.119 -0.065,0.219 -0.181,0.226 z"
   style="fill:#101820" />
</g>
<g
   transform="translate(-14.172,-56.064999)"
   id="LWPOLYLINE_77_">
	<polygon
   id="polygon23"
   points="124.527,222.515 123.496,218.095 109.473,214.981 107.788,216.278 105.064,212.772 102.462,211.606 98.629,212.796 96.113,209.341 94.543,206.358 91.403,205.415 90.002,206.415 88.848,207.116 88.763,207.681 90.095,211.845 88.071,213.896 85.377,213.896 81.352,215.966 78.635,222.915 63.198,240.171 58.48,239.505 56.479,244.36 47.021,255.427 42.326,256.093 35.584,272.021 38.301,288.655 39.632,300.392 38.301,307.271 32.914,319.054 33.583,327.196 34.915,330.097 37.655,330.351 38.963,334.978 40.302,336.331 43.426,336.173 43.658,339.81 48.306,339.901 47.251,344.597 47.829,345.216 52.408,345.331 53.462,350.392 61.15,346.021 67.222,345.331 73.941,342.569 75.303,344.665 79.99,339.116 84.708,339.116 87.424,337.739 92.765,339.116 96.814,336.331 102.201,335.669 110.274,331.479 117.708,332.214 129.814,319.054 140.557,304.554 143.251,303.153 143.944,300.392 161.429,273.401 163.43,265.093 158.735,256.81 149.323,250.575 143.251,244.36 145.945,242.263 149.993,233.981 147.992,229.819 143.251,226.364 142.605,221.534 133.362,226.472 "
   style="fill:none;stroke:#101820;stroke-linecap:round;stroke-linejoin:round;stroke-miterlimit:10" />
</g>
</svg>
