<?xml version="1.0" encoding="iso-8859-1"?>
<!-- Generator: Adobe Illustrator 16.0.0, SVG Export Plug-In . SVG Version: 6.00 Build 0)  -->
<!DOCTYPE svg PUBLIC "-//W3C//DTD SVG 1.1//EN" "http://www.w3.org/Graphics/SVG/1.1/DTD/svg11.dtd">
<svg version="1.1" id="Layer_1" xmlns="http://www.w3.org/2000/svg" xmlns:xlink="http://www.w3.org/1999/xlink" x="0px" y="0px"
	 width="425.197px" height="425.196px" viewBox="0 0 425.197 425.196" style="enable-background:new 0 0 425.197 425.196;"
	 xml:space="preserve">
<g id="LWPOLYLINE_183_">
	
		<rect x="14.174" y="23.886" style="fill:#005EB8;stroke:#005EB8;stroke-width:0.5;stroke-miterlimit:10;" width="396.849" height="377.423"/>
</g>
<g id="LWPOLYLINE_185_">
	<path style="fill:#FFFFFF;" d="M26.665,23.886h371.87c6.895,0,12.488,5.593,12.488,12.489v352.446
		c0,6.898-5.594,12.488-12.488,12.488H26.665c-6.902,0-12.491-5.59-12.491-12.488V36.375C14.174,29.479,19.763,23.886,26.665,23.886
		z"/>
</g>
<g id="LWPOLYLINE_184_">
	<path style="fill:#005EB8;" d="M26.665,30.131h371.87c3.447,0,6.248,2.797,6.248,6.244v352.446c0,3.447-2.801,6.244-6.248,6.244
		H26.665c-3.447,0-6.249-2.797-6.249-6.244V36.375C20.417,32.928,23.218,30.131,26.665,30.131z"/>
</g>
<g id="LWPOLYLINE_225_">
	<rect x="62.048" y="261.163" style="fill:#FFFFFF;" width="301.104" height="108.234"/>
</g>
<g id="LWPOLYLINE_186_">
	<rect x="82.859" y="273.651" style="fill:#FFCD00;" width="138.762" height="83.258"/>
</g>
<g id="LWPOLYLINE_187_">
	<path style="fill:#101820;" d="M89.802,356.909h124.877c3.834,0,6.941-3.107,6.941-6.941v-69.377c0-3.834-3.107-6.939-6.941-6.939
		H89.802c-3.835,0-6.943,3.105-6.943,6.939v69.377C82.859,353.802,85.967,356.909,89.802,356.909z"/>
</g>
<g id="LWPOLYLINE_224_">
	<rect x="62.048" y="125.181" style="fill:#FFFFFF;" width="301.104" height="108.232"/>
</g>
<g id="LWPOLYLINE_194_">
	<rect x="82.859" y="137.671" style="fill:#FFCD00;" width="138.762" height="83.253"/>
</g>
<g id="LWPOLYLINE_195_">
	<path style="fill:#101820;" d="M89.802,220.925h124.877c3.834,0,6.941-3.107,6.941-6.938v-69.381c0-3.831-3.107-6.935-6.941-6.935
		H89.802c-3.835,0-6.943,3.104-6.943,6.935v69.381C82.859,217.817,85.967,220.925,89.802,220.925z"/>
</g>
<g id="LWPOLYLINE_196_">
	<path style="fill:#FFCD00;" d="M89.802,216.759h124.877c1.533,0,2.775-1.242,2.775-2.771v-69.381c0-1.534-1.242-2.773-2.775-2.773
		H89.802c-1.534,0-2.777,1.239-2.777,2.773v69.381C87.024,215.517,88.268,216.759,89.802,216.759z"/>
</g>
<g id="CIRCLE_12_">
	<path style="fill:#FFCD00;" d="M342.339,179.294c0-24.521-19.883-44.4-44.406-44.4c-24.518,0-44.4,19.879-44.4,44.4
		c0,24.525,19.883,44.408,44.4,44.408C322.457,223.702,342.339,203.819,342.339,179.294L342.339,179.294z"/>
</g>
<g id="CIRCLE_15_">
	<path style="fill:#FFCD00;" d="M342.339,315.278c0-24.52-19.883-44.398-44.406-44.398c-24.518,0-44.4,19.879-44.4,44.398
		c0,24.525,19.883,44.404,44.4,44.404C322.457,359.683,342.339,339.804,342.339,315.278L342.339,315.278z"/>
</g>
<g id="CIRCLE_10_">
	<path style="fill:#E4002B;" d="M340.953,179.294c0-23.754-19.262-43.012-43.02-43.012c-23.75,0-43.012,19.257-43.012,43.012
		c0,23.757,19.262,43.019,43.012,43.019C321.691,222.313,340.953,203.052,340.953,179.294L340.953,179.294z"/>
</g>
<g id="CIRCLE_13_">
	<path style="fill:#E4002B;" d="M340.953,315.278c0-23.758-19.262-43.012-43.02-43.012c-23.75,0-43.012,19.254-43.012,43.012
		s19.262,43.016,43.012,43.016C321.691,358.294,340.953,339.036,340.953,315.278L340.953,315.278z"/>
</g>
<g id="CIRCLE_11_">
	<path style="fill:#FFCD00;" d="M331.935,179.294c0-18.773-15.227-33.995-34.002-33.995c-18.77,0-33.994,15.221-33.994,33.995
		c0,18.777,15.225,33.998,33.994,33.998C316.708,213.292,331.935,198.071,331.935,179.294L331.935,179.294z"/>
</g>
<g id="CIRCLE_14_">
	<path style="fill:#FFCD00;" d="M331.935,315.278c0-18.777-15.227-33.994-34.002-33.994c-18.77,0-33.994,15.217-33.994,33.994
		s15.225,33.994,33.994,33.994C316.708,349.272,331.935,334.056,331.935,315.278L331.935,315.278z"/>
</g>
<g id="LWPOLYLINE_201_">
	<path style="fill:#101820;" d="M300.708,324.644c0,6.324,5.127,11.451,11.447,11.451c6.322,0,11.447-5.127,11.447-11.451v-18.729
		c0-6.322-5.125-11.447-11.447-11.447c-6.32,0-11.447,5.125-11.447,11.447V324.644z"/>
</g>
<g id="LWPOLYLINE_202_">
	<path style="fill:#101820;" d="M275.878,313.386c-2.311,2.168-3.617,5.188-3.617,8.348v2.91c0,6.324,5.127,11.451,11.455,11.451
		c6.32,0,11.447-5.127,11.447-11.451v-2.91c0-3.16-1.309-6.18-3.617-8.348c1.664-1.893,2.576-4.33,2.576-6.85v-1.662
		c0-5.748-4.658-10.406-10.406-10.406s-10.414,4.658-10.414,10.406v1.662C273.302,309.056,274.222,311.493,275.878,313.386z"/>
</g>
<g id="LWPOLYLINE_198_">
	<path style="fill:#101820;" d="M300.708,189.357c0,6.325,5.127,11.447,11.447,11.447c6.322,0,11.447-5.122,11.447-11.447v-18.733
		c0-6.321-5.125-11.447-11.447-11.447c-6.32,0-11.447,5.126-11.447,11.447V189.357z"/>
</g>
<g id="LWPOLYLINE_199_">
	<path style="fill:#101820;" d="M273.31,189.357c0,6.325,5.127,11.447,11.447,11.447s11.447-5.122,11.447-11.447v-4.582
		c0-6.321-5.127-11.447-11.447-11.447c-1.598,0-3.18,0.335-4.633,0.985l0.887-8.892h11.447l-0.42-6.244h-16.654l-2.074,20.811
		l7.281,1.667c0.986-1.312,2.527-2.079,4.166-2.079c2.875,0,5.199,2.325,5.199,5.199v4.582c0,2.874-2.324,5.203-5.199,5.203
		c-2.873,0-5.207-2.329-5.207-5.203H273.31z"/>
</g>
<g id="LWPOLYLINE_206_">
	<path style="fill:#FFFFFF;" d="M64.292,67.043c-0.137-2.696-2.285-4.852-4.981-4.997h-2.616c-2.729,0.173-4.795,2.521-4.625,5.245
		c0.097,1.449,0.815,2.783,1.978,3.651l11.108,4.068c2.89,1.728,4.924,4.582,5.626,7.873c1.389,6.541-2.785,12.971-9.324,14.361
		c-0.089,0.014-0.178,0.03-0.267,0.042c-8.089,1.197-15.613-4.39-16.807-12.475l6.175-0.912c0.694,4.672,5.045,7.901,9.711,7.209
		c3.173-0.747,5.118-3.905,4.375-7.056c-0.331-1.38-1.138-2.593-2.292-3.418l-11.132-4.081c-3.213-1.939-5.239-5.358-5.393-9.104
		c-0.267-6.173,4.529-11.389,10.705-11.649h2.914c6.095,0.22,10.955,5.155,11.092,11.248L64.292,67.043z"/>
</g>
<g id="LWPOLYLINE_207_">
	<path style="fill:#FFFFFF;" d="M78.177,89.728V66.209h6.249v22.061c0,2.3,1.865,4.164,4.166,4.164c2.292,0,4.157-1.863,4.157-4.164
		V66.209h6.249v31.219h-6.249v-2.497c-2.147,1.334-4.561,2.186-7.072,2.497c-4.141,0-7.5-3.354-7.5-7.491V89.728z"/>
</g>
<g id="LWPOLYLINE_208_">
	<path style="fill:#FFFFFF;" d="M106.488,87.023c0,5.748,4.658,10.406,10.406,10.406c5.748,0,10.406-4.658,10.406-10.406V76.615
		c0-5.748-4.658-10.406-10.406-10.406c-5.748,0-10.406,4.658-10.406,10.406V87.023z"/>
</g>
<g id="LWPOLYLINE_210_">
	<path style="fill:#FFFFFF;" d="M152.946,67.976c-1.348-1.14-3.06-1.766-4.835-1.766c-2.511,0.309-4.924,1.163-7.072,2.497v-2.497
		h-6.248v31.219h6.248V75.366c0-2.299,1.865-4.162,4.166-4.162c2.292,0,4.158,1.863,4.158,4.162v22.063h6.248V75.366
		c0-2.299,1.865-4.162,4.157-4.162c2.301,0,4.166,1.863,4.166,4.162v22.063h6.24v-23.79c-0.283-4.002-3.487-7.177-7.492-7.429
		C159.332,65.78,155.933,66.397,152.946,67.976z"/>
</g>
<g id="LWPOLYLINE_211_">
	<rect x="177.673" y="66.209" style="fill:#FFFFFF;" width="6.24" height="31.219"/>
</g>
<g id="LWPOLYLINE_214_">
	<polygon style="fill:#FFFFFF;" points="221.378,55.802 244.273,55.802 244.273,62.046 227.626,62.046 227.626,72.452 
		238.865,72.452 238.865,78.696 227.626,78.696 227.626,97.429 221.378,97.429 	"/>
</g>
<g id="LWPOLYLINE_215_">
	<rect x="248.439" y="66.209" style="fill:#FFFFFF;" width="6.24" height="31.219"/>
</g>
<g id="LWPOLYLINE_217_">
	<path style="fill:#FFFFFF;" d="M283.822,73.909v23.52h-6.248V75.366c0-2.299-1.857-4.162-4.158-4.162s-4.166,1.863-4.166,4.162
		v22.063h-6.24V66.209h6.24v2.497c2.148-1.334,4.57-2.188,7.08-2.497c4.133,0,7.492,3.354,7.492,7.492V73.909z"/>
</g>
<g id="LWPOLYLINE_218_">
	<rect x="291.312" y="55.802" style="fill:#FFFFFF;" width="6.248" height="41.627"/>
</g>
<g id="LWPOLYLINE_219_">
	<path style="fill:#FFFFFF;" d="M325.033,97.429h-6.248v-1.998c-2.504,1.354-5.32,2.042-8.17,1.996
		c-2.559,0.069-4.867-1.546-5.684-3.978c-1.01-3.192-0.152-6.684,2.221-9.049c3.035-3.263,7.191-5.259,11.633-5.59v-3.233
		c0-1.726-1.396-3.125-3.117-3.125c-1.727,0-3.123,1.399-3.123,3.125h-6.248c0-5.175,4.197-9.367,9.371-9.367
		c5.168,0,9.365,4.192,9.365,9.367V97.429z"/>
</g>
<g id="LWPOLYLINE_221_">
	<path style="fill:#FFFFFF;" d="M353.335,73.909v23.52h-6.24V75.366c0-2.299-1.865-4.162-4.166-4.162s-4.156,1.863-4.156,4.162
		v22.063h-6.25V66.209h6.25v2.497c2.146-1.334,4.561-2.188,7.07-2.497c4.143,0,7.492,3.354,7.492,7.492V73.909z"/>
</g>
<g id="LWPOLYLINE_222_">
	<path style="fill:#FFFFFF;" d="M359.996,73.909l0.023,17.12c0.695,3.614,3.795,6.266,7.477,6.399
		c2.502-0.317,4.916-1.154,7.07-2.462v2.462h6.248V55.802h-6.248v12.904c-2.146-1.334-4.561-2.188-7.07-2.497
		c-4.143,0-7.5,3.354-7.5,7.492V73.909z"/>
</g>
<g id="LWPOLYLINE_200_">
	<path style="fill:#FFCD00;" d="M306.958,189.357c0,2.874,2.324,5.203,5.197,5.203c2.875,0,5.207-2.329,5.207-5.203v-18.733
		c0-2.874-2.332-5.203-5.207-5.203c-2.873,0-5.197,2.329-5.197,5.203V189.357z"/>
</g>
<g id="LWPOLYLINE_203_">
	<path style="fill:#FFCD00;" d="M278.509,324.644c0,2.873,2.334,5.207,5.207,5.207s5.199-2.334,5.199-5.207v-2.91
		c0-2.875-2.326-5.203-5.199-5.203s-5.207,2.328-5.207,5.203V324.644z"/>
</g>
<g id="LWPOLYLINE_204_">
	<path style="fill:#FFCD00;" d="M279.55,304.874v1.662c0,2.301,1.865,4.166,4.166,4.166c2.293,0,4.158-1.865,4.158-4.166v-1.662
		c0-2.301-1.865-4.166-4.158-4.166C281.416,300.708,279.55,302.573,279.55,304.874z"/>
</g>
<g id="LWPOLYLINE_205_">
	<path style="fill:#FFCD00;" d="M306.958,324.644c0,2.873,2.324,5.207,5.197,5.207c2.875,0,5.207-2.334,5.207-5.207v-18.729
		c0-2.875-2.332-5.207-5.207-5.207c-2.873,0-5.197,2.332-5.197,5.207V324.644z"/>
</g>
<g id="LWPOLYLINE_197_">
	<polygon style="fill:#101820;" points="89.802,190.418 102.121,185.922 114.916,189.918 114.916,200.065 117.2,200.065 
		117.2,194.059 127.082,154.769 136.971,193.187 136.971,199.657 139.029,199.657 139.029,192.501 144.946,187.145 150.783,187.145 
		150.783,185.236 158.734,185.236 158.734,187.064 164.999,187.064 170.835,191.96 170.835,197.167 172.619,197.167 172.619,187.98 
		182.783,182.015 193.455,187.601 193.455,198.503 196.015,198.503 196.015,178.535 204.806,174.249 214.679,178.067 
		214.679,213.987 89.802,213.987 	"/>
</g>
<g id="LWPOLYLINE_193_">
	<path style="fill:#E4002B;" d="M217.455,284.239l-114.171,68.506H89.802c-1.534,0-2.777-1.244-2.777-2.777v-3.648l114.173-68.506
		h13.482c1.533,0,2.775,1.244,2.775,2.777V284.239z"/>
</g>
<g id="LWPOLYLINE_209_">
	<path style="fill:#005EB8;" d="M112.728,87.023c0,2.299,1.865,4.162,4.166,4.162s4.166-1.863,4.166-4.162V76.615
		c0-2.298-1.865-4.164-4.166-4.164s-4.166,1.865-4.166,4.164V87.023z"/>
</g>
<g id="LWPOLYLINE_220_">
	<path style="fill:#005EB8;" d="M318.785,82.878c-2.084,0.502-4.014,1.493-5.635,2.888c-1.461,1.282-2.293,3.136-2.27,5.078
		c0.033,1.266,1.082,2.267,2.342,2.238c0.105-0.002,0.209-0.012,0.314-0.028c1.832-0.296,3.609-0.9,5.248-1.784V82.878z"/>
</g>
<g id="LWPOLYLINE_223_">
	<path style="fill:#005EB8;" d="M374.566,75.366v12.904c0,2.3-1.863,4.164-4.156,4.164c-2.301,0-4.166-1.863-4.166-4.164V75.366
		c0-2.299,1.865-4.162,4.166-4.162C372.703,71.205,374.566,73.067,374.566,75.366z"/>
</g>
<g id="LWPOLYLINE_190_">
	<polygon style="fill:none;" points="155.828,321.216 158.734,321.216 158.734,323.044 164.999,323.044 170.835,327.944 
		170.835,333.151 172.619,333.151 172.619,323.962 182.783,317.999 193.455,323.585 193.455,334.487 196.015,334.487 
		196.015,314.517 204.806,310.229 214.679,314.052 214.679,349.968 107.909,349.968 	"/>
</g>
<g id="LWPOLYLINE_191_">
	<polygon style="fill:none;" points="117.741,327.888 127.082,290.755 134.113,318.063 	"/>
</g>
<g id="LWPOLYLINE_192_">
	<polygon style="fill:none;" points="89.802,344.655 89.802,326.403 102.121,321.907 114.916,325.899 114.916,329.583 	"/>
</g>
<g id="LWPOLYLINE_212_">
	<rect x="177.673" y="55.802" style="fill:#FFFFFF;" width="6.24" height="6.245"/>
</g>
<g id="LWPOLYLINE_213_">
	<rect x="194.319" y="73.493" style="fill:#FFFFFF;" width="13.529" height="6.244"/>
</g>
<g id="LWPOLYLINE_216_">
	<rect x="248.439" y="55.802" style="fill:#FFFFFF;" width="6.24" height="6.245"/>
</g>
<g id="LWPOLYLINE_188_">
	<path style="fill:#FFCD00;" d="M103.283,352.745h111.396c1.533,0,2.775-1.244,2.775-2.777v-65.729l-61.626,36.977h2.906v1.828
		h6.265l5.836,4.9v5.207h1.784v-9.189l10.164-5.963l10.672,5.586v10.902h2.56v-19.971l8.791-4.287l9.874,3.822v35.916H107.909
		L103.283,352.745z"/>
</g>
<g id="LWPOLYLINE_189_">
	<path style="fill:#FFCD00;" d="M117.741,327.888l9.34-37.133l7.031,27.309l67.084-40.25H89.802c-1.534,0-2.777,1.244-2.777,2.777
		v65.729l2.777-1.664v-18.252l12.319-4.496l12.795,3.992v3.684L117.741,327.888z"/>
</g>
</svg>
