<?xml version="1.0" encoding="UTF-8" standalone="no"?>
<svg
   xmlns:dc="http://purl.org/dc/elements/1.1/"
   xmlns:cc="http://creativecommons.org/ns#"
   xmlns:rdf="http://www.w3.org/1999/02/22-rdf-syntax-ns#"
   xmlns:svg="http://www.w3.org/2000/svg"
   xmlns="http://www.w3.org/2000/svg"
   xmlns:sodipodi="http://sodipodi.sourceforge.net/DTD/sodipodi-0.dtd"
   xmlns:inkscape="http://www.inkscape.org/namespaces/inkscape"
   inkscape:version="1.0 (4035a4fb49, 2020-05-01)"
   sodipodi:docname="I2.2_Sulkuaita.svg"
   xml:space="preserve"
   viewBox="0 0 346.34101 397.34999"
   height="397.35001"
   width="346.341"
   y="0px"
   x="0px"
   id="Layer_1"
   version="1.1"><metadata
   id="metadata157"><rdf:RDF><cc:Work
       rdf:about=""><dc:format>image/svg+xml</dc:format><dc:type
         rdf:resource="http://purl.org/dc/dcmitype/StillImage" /><dc:title></dc:title></cc:Work></rdf:RDF></metadata><defs
   id="defs155" /><sodipodi:namedview
   inkscape:current-layer="Layer_1"
   inkscape:window-maximized="1"
   inkscape:window-y="73"
   inkscape:window-x="-8"
   inkscape:cy="198.92501"
   inkscape:cx="173.1705"
   inkscape:zoom="1.999078"
   fit-margin-bottom="0"
   fit-margin-right="0"
   fit-margin-left="0"
   fit-margin-top="0"
   showgrid="false"
   id="namedview153"
   inkscape:window-height="1017"
   inkscape:window-width="1920"
   inkscape:pageshadow="2"
   inkscape:pageopacity="0"
   guidetolerance="10"
   gridtolerance="10"
   objecttolerance="10"
   borderopacity="1"
   bordercolor="#666666"
   pagecolor="#ffffff" />
<g
   transform="translate(-39.428,-13.673)"
   id="LWPOLYLINE_13_">
	<polygon
   id="polygon2"
   points="76.948,310.005 85.603,310.005 85.603,402.363 339.593,402.363 339.593,310.005 348.25,310.005 348.25,411.023 76.948,411.023 "
   style="fill:#8a8d8f" />
</g>
<g
   transform="translate(-39.428,-13.673)"
   id="LWPOLYLINE_14_">
	<rect
   id="rect5"
   height="86.584999"
   width="8.6549997"
   style="fill:#8a8d8f"
   y="136.836"
   x="76.947998" />
</g>
<g
   transform="translate(-39.428,-13.673)"
   id="LWPOLYLINE_15_">
	<rect
   id="rect8"
   height="86.584999"
   width="8.6560001"
   style="fill:#8a8d8f"
   y="136.836"
   x="339.59299" />
</g>
<g
   transform="translate(-39.428,-13.673)"
   id="LWPOLYLINE_16_">
	<polygon
   id="polygon11"
   points="126.011,93.542 169.307,136.836 212.603,136.836 169.307,93.542 212.603,50.251 169.307,50.251 "
   style="fill:#e3e829" />
</g>
<g
   transform="translate(-39.428,-13.673)"
   id="LWPOLYLINE_17_">
	<polygon
   id="polygon14"
   points="39.428,93.542 82.724,136.836 126.011,136.836 82.724,93.542 126.011,50.251 82.724,50.251 "
   style="fill:#e3e829" />
</g>
<g
   transform="translate(-39.428,-13.673)"
   id="LWPOLYLINE_18_">
	<polygon
   id="polygon17"
   points="299.186,93.542 342.482,136.836 385.769,136.836 342.482,93.542 385.769,50.251 342.482,50.251 "
   style="fill:#e3e829" />
</g>
<g
   transform="translate(-39.428,-13.673)"
   id="LWPOLYLINE_19_">
	<polygon
   id="polygon20"
   points="212.603,93.542 255.89,136.836 299.186,136.836 255.89,93.542 299.186,50.251 255.89,50.251 "
   style="fill:#e3e829" />
</g>
<g
   transform="translate(-39.428,-13.673)"
   id="LWPOLYLINE_26_">
	<polygon
   id="polygon23"
   points="126.011,266.713 169.307,310.005 212.603,310.005 169.307,266.713 212.603,223.421 169.307,223.421 "
   style="fill:#e3e829" />
</g>
<g
   transform="translate(-39.428,-13.673)"
   id="LWPOLYLINE_27_">
	<polygon
   id="polygon26"
   points="39.428,266.713 82.724,310.005 126.011,310.005 82.724,266.713 126.011,223.421 82.724,223.421 "
   style="fill:#e3e829" />
</g>
<g
   transform="translate(-39.428,-13.673)"
   id="LWPOLYLINE_28_">
	<polygon
   id="polygon29"
   points="299.186,266.713 342.482,310.005 385.769,310.005 342.482,266.713 385.769,223.421 342.482,223.421 "
   style="fill:#e3e829" />
</g>
<g
   transform="translate(-39.428,-13.673)"
   id="LWPOLYLINE_29_">
	<polygon
   id="polygon32"
   points="212.603,266.713 255.89,310.005 299.186,310.005 255.89,266.713 299.186,223.421 255.89,223.421 "
   style="fill:#e3e829" />
</g>
<g
   transform="translate(-39.428,-13.673)"
   id="LWPOLYLINE_20_">
	<polyline
   id="polyline35"
   points="385.769,50.251 342.482,93.542 385.769,136.836 385.769,50.251  "
   style="fill:#e4002b" />
</g>
<g
   transform="translate(-39.428,-13.673)"
   id="LWPOLYLINE_30_">
	<polyline
   id="polyline38"
   points="385.769,223.421 342.482,266.713 385.769,310.005 385.769,223.421  "
   style="fill:#e4002b" />
</g>
<g
   transform="translate(-39.428,-13.673)"
   id="LWPOLYLINE_21_">
	<polygon
   id="polygon41"
   points="255.89,93.542 299.186,136.836 342.482,136.836 299.186,93.542 342.482,50.251 299.186,50.251 "
   style="fill:#e4002b" />
</g>
<g
   transform="translate(-39.428,-13.673)"
   id="LWPOLYLINE_22_">
	<polygon
   id="polygon44"
   points="169.307,93.542 212.603,136.836 255.89,136.836 212.603,93.542 255.89,50.251 212.603,50.251 "
   style="fill:#e4002b" />
</g>
<g
   transform="translate(-39.428,-13.673)"
   id="LWPOLYLINE_23_">
	<polygon
   id="polygon47"
   points="82.724,93.542 126.011,136.836 169.307,136.836 126.011,93.542 169.307,50.251 126.011,50.251 "
   style="fill:#e4002b" />
</g>
<g
   transform="translate(-39.428,-13.673)"
   id="LWPOLYLINE_24_">
	<polyline
   id="polyline50"
   points="39.428,93.542 39.428,136.836 82.724,136.836 39.428,93.542  "
   style="fill:#e4002b" />
</g>
<g
   transform="translate(-39.428,-13.673)"
   id="LWPOLYLINE_25_">
	<polyline
   id="polyline53"
   points="39.428,50.251 39.428,93.542 82.724,50.251 39.428,50.251  "
   style="fill:#e4002b" />
</g>
<g
   transform="translate(-39.428,-13.673)"
   id="LWPOLYLINE_31_">
	<polygon
   id="polygon56"
   points="255.89,266.713 299.186,310.005 342.482,310.005 299.186,266.713 342.482,223.421 299.186,223.421 "
   style="fill:#e4002b" />
</g>
<g
   transform="translate(-39.428,-13.673)"
   id="LWPOLYLINE_32_">
	<polygon
   id="polygon59"
   points="169.307,266.713 212.603,310.005 255.89,310.005 212.603,266.713 255.89,223.421 212.603,223.421 "
   style="fill:#e4002b" />
</g>
<g
   transform="translate(-39.428,-13.673)"
   id="LWPOLYLINE_33_">
	<polygon
   id="polygon62"
   points="82.724,266.713 126.011,310.005 169.307,310.005 126.011,266.713 169.307,223.421 126.011,223.421 "
   style="fill:#e4002b" />
</g>
<g
   transform="translate(-39.428,-13.673)"
   id="LWPOLYLINE_34_">
	<polyline
   id="polyline65"
   points="39.428,266.713 39.428,310.005 82.724,310.005 39.428,266.713  "
   style="fill:#e4002b" />
</g>
<g
   transform="translate(-39.428,-13.673)"
   id="LWPOLYLINE_35_">
	<polyline
   id="polyline68"
   points="39.428,223.421 39.428,266.713 82.724,223.421 39.428,223.421  "
   style="fill:#e4002b" />
</g>
<g
   transform="translate(-39.428,-13.673)"
   id="LINE_32_">
	
		<line
   id="line71"
   y2="51.124001"
   x2="70.297997"
   y1="46.022999"
   x1="75.403"
   style="fill:none;stroke:#101820;stroke-linecap:round;stroke-linejoin:round;stroke-miterlimit:10" />
</g>
<g
   transform="translate(-39.428,-13.673)"
   id="LINE_33_">
	
		<line
   id="line74"
   y2="51.124001"
   x2="100.917"
   y1="46.022999"
   x1="95.811996"
   style="fill:none;stroke:#101820;stroke-linecap:round;stroke-linejoin:round;stroke-miterlimit:10" />
</g>
<g
   transform="translate(-39.428,-13.673)"
   id="LINE_34_">
	
		<line
   id="line77"
   y2="51.383999"
   x2="85.602997"
   y1="58.598"
   x1="85.602997"
   style="fill:none;stroke:#101820;stroke-linecap:round;stroke-linejoin:round;stroke-miterlimit:10" />
</g>
<g
   transform="translate(-39.428,-13.673)"
   id="LINE_35_">
	
		<line
   id="line80"
   y2="35.818001"
   x2="107.255"
   y1="35.818001"
   x1="100.036"
   style="fill:none;stroke:#101820;stroke-linecap:round;stroke-linejoin:round;stroke-miterlimit:10" />
</g>
<g
   transform="translate(-39.428,-13.673)"
   id="LINE_36_">
	
		<line
   id="line83"
   y2="35.818001"
   x2="63.959"
   y1="35.818001"
   x1="71.18"
   style="fill:none;stroke:#101820;stroke-linecap:round;stroke-linejoin:round;stroke-miterlimit:10" />
</g>
<g
   transform="translate(-39.428,-13.673)"
   id="LINE_37_">
	
		<line
   id="line86"
   y2="14.173"
   x2="85.602997"
   y1="21.386999"
   x1="85.602997"
   style="fill:none;stroke:#101820;stroke-linecap:round;stroke-linejoin:round;stroke-miterlimit:10" />
</g>
<g
   transform="translate(-39.428,-13.673)"
   id="LINE_38_">
	
		<line
   id="line89"
   y2="20.511999"
   x2="100.917"
   y1="25.614"
   x1="95.811996"
   style="fill:none;stroke:#101820;stroke-linecap:round;stroke-linejoin:round;stroke-miterlimit:10" />
</g>
<g
   transform="translate(-39.428,-13.673)"
   id="LINE_39_">
	
		<line
   id="line92"
   y2="20.511999"
   x2="70.297997"
   y1="25.614"
   x1="75.403"
   style="fill:none;stroke:#101820;stroke-linecap:round;stroke-linejoin:round;stroke-miterlimit:10" />
</g>
<g
   transform="translate(-39.428,-13.673)"
   id="CIRCLE_4_">
	<path
   id="path95"
   d="m 100.036,35.818 c 0,-7.969 -6.456,-14.432 -14.433,-14.432 -7.967,0 -14.423,6.463 -14.423,14.432 0,7.97 6.456,14.433 14.423,14.433 7.977,0 14.433,-6.463 14.433,-14.433 z"
   style="fill:#ffcd00" />
</g>
<g
   transform="translate(-39.428,-13.673)"
   id="LINE_40_">
	
		<line
   id="line98"
   y2="51.124001"
   x2="197.297"
   y1="46.022999"
   x1="202.394"
   style="fill:none;stroke:#101820;stroke-linecap:round;stroke-linejoin:round;stroke-miterlimit:10" />
</g>
<g
   transform="translate(-39.428,-13.673)"
   id="LINE_41_">
	
		<line
   id="line101"
   y2="51.124001"
   x2="227.908"
   y1="46.022999"
   x1="222.80299"
   style="fill:none;stroke:#101820;stroke-linecap:round;stroke-linejoin:round;stroke-miterlimit:10" />
</g>
<g
   transform="translate(-39.428,-13.673)"
   id="LINE_42_">
	
		<line
   id="line104"
   y2="51.383999"
   x2="212.603"
   y1="58.598"
   x1="212.603"
   style="fill:none;stroke:#101820;stroke-linecap:round;stroke-linejoin:round;stroke-miterlimit:10" />
</g>
<g
   transform="translate(-39.428,-13.673)"
   id="LINE_43_">
	
		<line
   id="line107"
   y2="35.818001"
   x2="234.24699"
   y1="35.818001"
   x1="227.035"
   style="fill:none;stroke:#101820;stroke-linecap:round;stroke-linejoin:round;stroke-miterlimit:10" />
</g>
<g
   transform="translate(-39.428,-13.673)"
   id="LINE_44_">
	
		<line
   id="line110"
   y2="35.818001"
   x2="190.951"
   y1="35.818001"
   x1="198.17"
   style="fill:none;stroke:#101820;stroke-linecap:round;stroke-linejoin:round;stroke-miterlimit:10" />
</g>
<g
   transform="translate(-39.428,-13.673)"
   id="LINE_45_">
	
		<line
   id="line113"
   y2="14.173"
   x2="212.603"
   y1="21.386999"
   x1="212.603"
   style="fill:none;stroke:#101820;stroke-linecap:round;stroke-linejoin:round;stroke-miterlimit:10" />
</g>
<g
   transform="translate(-39.428,-13.673)"
   id="LINE_46_">
	
		<line
   id="line116"
   y2="20.511999"
   x2="227.908"
   y1="25.614"
   x1="222.80299"
   style="fill:none;stroke:#101820;stroke-linecap:round;stroke-linejoin:round;stroke-miterlimit:10" />
</g>
<g
   transform="translate(-39.428,-13.673)"
   id="LINE_47_">
	
		<line
   id="line119"
   y2="20.511999"
   x2="197.297"
   y1="25.614"
   x1="202.394"
   style="fill:none;stroke:#101820;stroke-linecap:round;stroke-linejoin:round;stroke-miterlimit:10" />
</g>
<g
   transform="translate(-39.428,-13.673)"
   id="CIRCLE_5_">
	<path
   id="path122"
   d="m 227.035,35.818 c 0,-7.969 -6.465,-14.432 -14.432,-14.432 -7.977,0 -14.433,6.463 -14.433,14.432 0,7.97 6.456,14.433 14.433,14.433 7.967,0 14.432,-6.463 14.432,-14.433 z"
   style="fill:#ffcd00" />
</g>
<g
   transform="translate(-39.428,-13.673)"
   id="LINE_24_">
	
		<line
   id="line125"
   y2="51.124001"
   x2="324.289"
   y1="46.022999"
   x1="329.384"
   style="fill:none;stroke:#101820;stroke-linecap:round;stroke-linejoin:round;stroke-miterlimit:10" />
</g>
<g
   transform="translate(-39.428,-13.673)"
   id="LINE_25_">
	
		<line
   id="line128"
   y2="51.124001"
   x2="354.89899"
   y1="46.022999"
   x1="349.79401"
   style="fill:none;stroke:#101820;stroke-linecap:round;stroke-linejoin:round;stroke-miterlimit:10" />
</g>
<g
   transform="translate(-39.428,-13.673)"
   id="LINE_26_">
	
		<line
   id="line131"
   y2="51.383999"
   x2="339.59299"
   y1="58.598"
   x1="339.59299"
   style="fill:none;stroke:#101820;stroke-linecap:round;stroke-linejoin:round;stroke-miterlimit:10" />
</g>
<g
   transform="translate(-39.428,-13.673)"
   id="LINE_27_">
	
		<line
   id="line134"
   y2="35.818001"
   x2="361.237"
   y1="35.818001"
   x1="354.02499"
   style="fill:none;stroke:#101820;stroke-linecap:round;stroke-linejoin:round;stroke-miterlimit:10" />
</g>
<g
   transform="translate(-39.428,-13.673)"
   id="LINE_28_">
	
		<line
   id="line137"
   y2="35.818001"
   x2="317.95001"
   y1="35.818001"
   x1="325.16199"
   style="fill:none;stroke:#101820;stroke-linecap:round;stroke-linejoin:round;stroke-miterlimit:10" />
</g>
<g
   transform="translate(-39.428,-13.673)"
   id="LINE_29_">
	
		<line
   id="line140"
   y2="14.173"
   x2="339.59299"
   y1="21.386999"
   x1="339.59299"
   style="fill:none;stroke:#101820;stroke-linecap:round;stroke-linejoin:round;stroke-miterlimit:10" />
</g>
<g
   transform="translate(-39.428,-13.673)"
   id="LINE_30_">
	
		<line
   id="line143"
   y2="20.511999"
   x2="354.89899"
   y1="25.614"
   x1="349.79401"
   style="fill:none;stroke:#101820;stroke-linecap:round;stroke-linejoin:round;stroke-miterlimit:10" />
</g>
<g
   transform="translate(-39.428,-13.673)"
   id="LINE_31_">
	
		<line
   id="line146"
   y2="20.511999"
   x2="324.289"
   y1="25.614"
   x1="329.384"
   style="fill:none;stroke:#101820;stroke-linecap:round;stroke-linejoin:round;stroke-miterlimit:10" />
</g>
<g
   transform="translate(-39.428,-13.673)"
   id="CIRCLE_3_">
	<path
   id="path149"
   d="m 354.025,35.818 c 0,-7.969 -6.464,-14.432 -14.432,-14.432 -7.967,0 -14.432,6.463 -14.432,14.432 0,7.97 6.465,14.433 14.432,14.433 7.968,0 14.432,-6.463 14.432,-14.433 z"
   style="fill:#ffcd00" />
</g>
</svg>
